<svg width="71" height="79" viewBox="0 0 71 79" fill="none" xmlns="http://www.w3.org/2000/svg">
<rect y="8.01465" width="70.9855" height="70.9855" rx="7.39432" fill="#D9D9D9"/>
<rect width="70.9855" height="79" rx="7.39432" fill="#DADADA"/>
<rect x="4.58008" y="21.7539" width="61.8261" height="52.6667" rx="4.57971" fill="white"/>
<rect x="4.58008" y="4.58008" width="32.058" height="12.5942" rx="3.43478" fill="white"/>
<path opacity="0.3" d="M24.784 60.6377H22.1453V50.1164C22.1453 49.7661 22.149 49.4158 22.1564 49.0654C22.1639 48.7151 22.1714 48.3722 22.1788 48.0368C22.1937 47.7014 22.2124 47.3808 22.2347 47.0752C22.0782 47.2467 21.8844 47.433 21.6533 47.6343C21.4297 47.8355 21.1912 48.0442 20.9377 48.2604L19.0593 49.7586L17.74 48.0927L22.5925 44.2912H24.784V60.6377ZM36.6246 43.2402L36.1773 47.5113L40.4708 46.2926L40.8062 48.6741L36.7923 49.0319L39.3974 52.5092L37.2283 53.6832L35.3388 49.9375L33.6504 53.672L31.3919 52.5092L33.9747 49.0319L29.9831 48.6629L30.3633 46.2926L34.5785 47.5113L34.1312 43.2402H36.6246ZM50.433 60.6377H47.7943V50.1164C47.7943 49.7661 47.7981 49.4158 47.8055 49.0654C47.813 48.7151 47.8204 48.3722 47.8279 48.0368C47.8428 47.7014 47.8614 47.3808 47.8838 47.0752C47.7272 47.2467 47.5334 47.433 47.3024 47.6343C47.0787 47.8355 46.8402 48.0442 46.5868 48.2604L44.7084 49.7586L43.389 48.0927L48.2416 44.2912H50.433V60.6377Z" fill="#444444"/>
</svg>
