<svg width="92" height="92" viewBox="0 0 92 92" fill="none" xmlns="http://www.w3.org/2000/svg">
<rect x="0.389831" y="0.389831" width="91.079" height="91.2203" rx="17.5424" stroke="#BEBEBE" stroke-width="0.779661"/>
<rect width="70" height="60.7317" transform="translate(10.6299 16)" fill="white"/>
<path d="M20.3857 21.8535V68.9267" stroke="#E0E0E0" stroke-width="0.243902"/>
<path d="M28.3126 68.9267C28.3126 68.994 28.3672 69.0486 28.4346 69.0486C28.5019 69.0486 28.5565 68.994 28.5565 68.9267H28.3126ZM28.4346 21.8535H28.3126V68.9267H28.4346H28.5565V21.8535H28.4346Z" fill="#E0E0E0"/>
<path d="M36.3614 68.9267C36.3614 68.994 36.416 69.0486 36.4834 69.0486C36.5508 69.0486 36.6053 68.994 36.6053 68.9267H36.3614ZM36.4834 21.8535H36.3614V68.9267H36.4834H36.6053V21.8535H36.4834Z" fill="#E0E0E0"/>
<path d="M44.4103 68.9267C44.4103 68.994 44.4649 69.0486 44.5322 69.0486C44.5996 69.0486 44.6542 68.994 44.6542 68.9267H44.4103ZM44.5322 21.8535H44.4103V68.9267H44.5322H44.6542V21.8535H44.5322Z" fill="#E0E0E0"/>
<path d="M52.4591 68.9267C52.4591 68.994 52.5137 69.0486 52.5811 69.0486C52.6484 69.0486 52.703 68.994 52.703 68.9267H52.4591ZM52.5811 21.8535H52.4591V68.9267H52.5811H52.703V21.8535H52.5811Z" fill="#E0E0E0"/>
<path d="M60.5079 68.9267C60.5079 68.994 60.5625 69.0486 60.6299 69.0486C60.6972 69.0486 60.7518 68.994 60.7518 68.9267H60.5079ZM60.6299 21.8535H60.5079V68.9267H60.6299H60.7518V21.8535H60.6299Z" fill="#E0E0E0"/>
<path d="M68.5568 68.9267C68.5568 68.994 68.6114 69.0486 68.6787 69.0486C68.7461 69.0486 68.8007 68.994 68.8007 68.9267H68.5568ZM68.6787 21.8535H68.5568V68.9267H68.6787H68.8007V21.8535H68.6787Z" fill="#E0E0E0"/>
<path d="M76.6056 68.9267C76.6056 68.994 76.6602 69.0486 76.7275 69.0486C76.7949 69.0486 76.8495 68.994 76.8495 68.9267H76.6056ZM76.7275 21.8535H76.6056V68.9267H76.7275H76.8495V21.8535H76.7275Z" fill="#E0E0E0"/>
<path d="M14.4898 23.8535H13.577V23.7211L13.9496 23.3428C14.0188 23.273 14.0769 23.2107 14.1239 23.1561C14.1715 23.1015 14.2077 23.0478 14.2325 22.9951C14.2573 22.9417 14.2697 22.8833 14.2697 22.8198C14.2697 22.741 14.2462 22.681 14.1992 22.6397C14.1528 22.5978 14.0915 22.5768 14.0153 22.5768C13.9486 22.5768 13.8895 22.5883 13.8381 22.6111C13.7866 22.634 13.7339 22.6664 13.6799 22.7083L13.5951 22.6016C13.632 22.5705 13.672 22.5429 13.7152 22.5187C13.759 22.4946 13.8057 22.4755 13.8552 22.4616C13.9054 22.4476 13.9588 22.4406 14.0153 22.4406C14.101 22.4406 14.175 22.4555 14.2373 22.4854C14.2995 22.5152 14.3475 22.5578 14.3811 22.613C14.4154 22.6683 14.4326 22.734 14.4326 22.8103C14.4326 22.8839 14.418 22.9525 14.3888 23.0161C14.3595 23.0789 14.3186 23.1415 14.2659 23.2037C14.2131 23.2654 14.1515 23.3308 14.081 23.4L13.7781 23.702V23.7087H14.4898V23.8535ZM15.1338 23.0018C15.2285 23.0018 15.3107 23.018 15.3806 23.0504C15.4504 23.0821 15.5044 23.1285 15.5425 23.1895C15.5813 23.2504 15.6007 23.3244 15.6007 23.4114C15.6007 23.5067 15.58 23.589 15.5387 23.6582C15.4974 23.7268 15.4381 23.7798 15.3606 23.8173C15.2831 23.8542 15.1903 23.8726 15.0824 23.8726C15.01 23.8726 14.9426 23.8662 14.8804 23.8535C14.8181 23.8408 14.7657 23.8218 14.7232 23.7964V23.6458C14.7695 23.6738 14.8258 23.696 14.8918 23.7125C14.9579 23.729 15.022 23.7373 15.0843 23.7373C15.1548 23.7373 15.2164 23.7262 15.2691 23.7039C15.3225 23.6811 15.3637 23.6468 15.393 23.601C15.4228 23.5547 15.4377 23.4966 15.4377 23.4267C15.4377 23.334 15.4092 23.2625 15.352 23.2123C15.2955 23.1615 15.2059 23.1361 15.0833 23.1361C15.0439 23.1361 15.0007 23.1393 14.9537 23.1456C14.9067 23.152 14.868 23.159 14.8375 23.1666L14.7575 23.1142L14.8108 22.4606H15.5035V22.6054H14.9461L14.9109 23.0256C14.935 23.0205 14.9661 23.0154 15.0042 23.0103C15.0423 23.0046 15.0855 23.0018 15.1338 23.0018ZM16.7306 23.1552C16.7306 23.2682 16.722 23.3692 16.7049 23.4581C16.6877 23.547 16.6607 23.6223 16.6239 23.6839C16.5871 23.7455 16.5394 23.7925 16.481 23.8249C16.4226 23.8567 16.3524 23.8726 16.2704 23.8726C16.1669 23.8726 16.0812 23.8443 16.0132 23.7878C15.9459 23.7312 15.8954 23.6496 15.8617 23.5429C15.8287 23.4356 15.8122 23.3063 15.8122 23.1552C15.8122 23.0065 15.8271 22.8789 15.8569 22.7722C15.8874 22.6648 15.9363 22.5826 16.0037 22.5254C16.071 22.4676 16.1599 22.4387 16.2704 22.4387C16.3752 22.4387 16.4616 22.4673 16.5296 22.5244C16.5975 22.581 16.648 22.6629 16.6811 22.7702C16.7141 22.877 16.7306 23.0053 16.7306 23.1552ZM15.9713 23.1552C15.9713 23.2847 15.9811 23.3927 16.0008 23.4791C16.0205 23.5655 16.0523 23.6303 16.0961 23.6734C16.1405 23.716 16.1987 23.7373 16.2704 23.7373C16.3422 23.7373 16.4 23.716 16.4438 23.6734C16.4883 23.6309 16.5204 23.5664 16.5401 23.48C16.5604 23.3937 16.5706 23.2854 16.5706 23.1552C16.5706 23.0275 16.5607 22.9208 16.541 22.835C16.5213 22.7487 16.4896 22.6839 16.4457 22.6407C16.4019 22.5968 16.3435 22.5749 16.2704 22.5749C16.1974 22.5749 16.139 22.5968 16.0951 22.6407C16.0513 22.6839 16.0195 22.7487 15.9999 22.835C15.9808 22.9208 15.9713 23.0275 15.9713 23.1552ZM17.8472 23.1552C17.8472 23.2682 17.8387 23.3692 17.8215 23.4581C17.8044 23.547 17.7774 23.6223 17.7405 23.6839C17.7037 23.7455 17.656 23.7925 17.5976 23.8249C17.5392 23.8567 17.469 23.8726 17.3871 23.8726C17.2835 23.8726 17.1978 23.8443 17.1298 23.7878C17.0625 23.7312 17.012 23.6496 16.9783 23.5429C16.9453 23.4356 16.9288 23.3063 16.9288 23.1552C16.9288 23.0065 16.9437 22.8789 16.9736 22.7722C17.004 22.6648 17.053 22.5826 17.1203 22.5254C17.1876 22.4676 17.2765 22.4387 17.3871 22.4387C17.4919 22.4387 17.5782 22.4673 17.6462 22.5244C17.7142 22.581 17.7647 22.6629 17.7977 22.7702C17.8307 22.877 17.8472 23.0053 17.8472 23.1552ZM17.0879 23.1552C17.0879 23.2847 17.0977 23.3927 17.1174 23.4791C17.1371 23.5655 17.1689 23.6303 17.2127 23.6734C17.2572 23.716 17.3153 23.7373 17.3871 23.7373C17.4588 23.7373 17.5166 23.716 17.5605 23.6734C17.6049 23.6309 17.637 23.5664 17.6567 23.48C17.677 23.3937 17.6872 23.2854 17.6872 23.1552C17.6872 23.0275 17.6773 22.9208 17.6576 22.835C17.6379 22.7487 17.6062 22.6839 17.5624 22.6407C17.5185 22.5968 17.4601 22.5749 17.3871 22.5749C17.314 22.5749 17.2556 22.5968 17.2117 22.6407C17.1679 22.6839 17.1362 22.7487 17.1165 22.835C17.0974 22.9208 17.0879 23.0275 17.0879 23.1552Z" fill="#212121"/>
<path d="M14.4898 31.2441H13.577V31.1117L13.9496 30.7335C14.0188 30.6636 14.0769 30.6014 14.1239 30.5467C14.1715 30.4921 14.2077 30.4384 14.2325 30.3857C14.2573 30.3324 14.2697 30.2739 14.2697 30.2104C14.2697 30.1317 14.2462 30.0716 14.1992 30.0303C14.1528 29.9884 14.0915 29.9675 14.0153 29.9675C13.9486 29.9675 13.8895 29.9789 13.8381 30.0018C13.7866 30.0246 13.7339 30.057 13.6799 30.0989L13.5951 29.9922C13.632 29.9611 13.672 29.9335 13.7152 29.9093C13.759 29.8852 13.8057 29.8662 13.8552 29.8522C13.9054 29.8382 13.9588 29.8312 14.0153 29.8312C14.101 29.8312 14.175 29.8461 14.2373 29.876C14.2995 29.9059 14.3475 29.9484 14.3811 30.0037C14.4154 30.0589 14.4326 30.1247 14.4326 30.2009C14.4326 30.2746 14.418 30.3432 14.3888 30.4067C14.3595 30.4696 14.3186 30.5321 14.2659 30.5944C14.2131 30.656 14.1515 30.7214 14.081 30.7906L13.7781 31.0927V31.0993H14.4898V31.2441ZM15.614 30.5458C15.614 30.6588 15.6054 30.7598 15.5883 30.8488C15.5711 30.9377 15.5441 31.0129 15.5073 31.0746C15.4704 31.1362 15.4228 31.1832 15.3644 31.2156C15.3059 31.2473 15.2358 31.2632 15.1538 31.2632C15.0503 31.2632 14.9645 31.2349 14.8966 31.1784C14.8293 31.1219 14.7788 31.0403 14.7451 30.9335C14.7121 30.8262 14.6956 30.6969 14.6956 30.5458C14.6956 30.3972 14.7105 30.2695 14.7403 30.1628C14.7708 30.0554 14.8197 29.9732 14.8871 29.916C14.9544 29.8582 15.0433 29.8293 15.1538 29.8293C15.2586 29.8293 15.345 29.8579 15.413 29.9151C15.4809 29.9716 15.5314 30.0535 15.5645 30.1609C15.5975 30.2676 15.614 30.3959 15.614 30.5458ZM14.8547 30.5458C14.8547 30.6754 14.8645 30.7833 14.8842 30.8697C14.9039 30.9561 14.9356 31.0209 14.9795 31.0641C15.0239 31.1066 15.082 31.1279 15.1538 31.1279C15.2256 31.1279 15.2834 31.1066 15.3272 31.0641C15.3717 31.0215 15.4038 30.957 15.4234 30.8707C15.4438 30.7843 15.4539 30.676 15.4539 30.5458C15.4539 30.4181 15.4441 30.3114 15.4244 30.2257C15.4047 30.1393 15.373 30.0745 15.3291 30.0313C15.2853 29.9875 15.2269 29.9656 15.1538 29.9656C15.0808 29.9656 15.0223 29.9875 14.9785 30.0313C14.9347 30.0745 14.9029 30.1393 14.8832 30.2257C14.8642 30.3114 14.8547 30.4181 14.8547 30.5458ZM16.7306 30.5458C16.7306 30.6588 16.722 30.7598 16.7049 30.8488C16.6877 30.9377 16.6607 31.0129 16.6239 31.0746C16.5871 31.1362 16.5394 31.1832 16.481 31.2156C16.4226 31.2473 16.3524 31.2632 16.2704 31.2632C16.1669 31.2632 16.0812 31.2349 16.0132 31.1784C15.9459 31.1219 15.8954 31.0403 15.8617 30.9335C15.8287 30.8262 15.8122 30.6969 15.8122 30.5458C15.8122 30.3972 15.8271 30.2695 15.8569 30.1628C15.8874 30.0554 15.9363 29.9732 16.0037 29.916C16.071 29.8582 16.1599 29.8293 16.2704 29.8293C16.3752 29.8293 16.4616 29.8579 16.5296 29.9151C16.5975 29.9716 16.648 30.0535 16.6811 30.1609C16.7141 30.2676 16.7306 30.3959 16.7306 30.5458ZM15.9713 30.5458C15.9713 30.6754 15.9811 30.7833 16.0008 30.8697C16.0205 30.9561 16.0523 31.0209 16.0961 31.0641C16.1405 31.1066 16.1987 31.1279 16.2704 31.1279C16.3422 31.1279 16.4 31.1066 16.4438 31.0641C16.4883 31.0215 16.5204 30.957 16.5401 30.8707C16.5604 30.7843 16.5706 30.676 16.5706 30.5458C16.5706 30.4181 16.5607 30.3114 16.541 30.2257C16.5213 30.1393 16.4896 30.0745 16.4457 30.0313C16.4019 29.9875 16.3435 29.9656 16.2704 29.9656C16.1974 29.9656 16.139 29.9875 16.0951 30.0313C16.0513 30.0745 16.0195 30.1393 15.9999 30.2257C15.9808 30.3114 15.9713 30.4181 15.9713 30.5458ZM17.8472 30.5458C17.8472 30.6588 17.8387 30.7598 17.8215 30.8488C17.8044 30.9377 17.7774 31.0129 17.7405 31.0746C17.7037 31.1362 17.656 31.1832 17.5976 31.2156C17.5392 31.2473 17.469 31.2632 17.3871 31.2632C17.2835 31.2632 17.1978 31.2349 17.1298 31.1784C17.0625 31.1219 17.012 31.0403 16.9783 30.9335C16.9453 30.8262 16.9288 30.6969 16.9288 30.5458C16.9288 30.3972 16.9437 30.2695 16.9736 30.1628C17.004 30.0554 17.053 29.9732 17.1203 29.916C17.1876 29.8582 17.2765 29.8293 17.3871 29.8293C17.4919 29.8293 17.5782 29.8579 17.6462 29.9151C17.7142 29.9716 17.7647 30.0535 17.7977 30.1609C17.8307 30.2676 17.8472 30.3959 17.8472 30.5458ZM17.0879 30.5458C17.0879 30.6754 17.0977 30.7833 17.1174 30.8697C17.1371 30.9561 17.1689 31.0209 17.2127 31.0641C17.2572 31.1066 17.3153 31.1279 17.3871 31.1279C17.4588 31.1279 17.5166 31.1066 17.5605 31.0641C17.6049 31.0215 17.637 30.957 17.6567 30.8707C17.677 30.7843 17.6872 30.676 17.6872 30.5458C17.6872 30.4181 17.6773 30.3114 17.6576 30.2257C17.6379 30.1393 17.6062 30.0745 17.5624 30.0313C17.5185 29.9875 17.4601 29.9656 17.3871 29.9656C17.314 29.9656 17.2556 29.9875 17.2117 30.0313C17.1679 30.0745 17.1362 30.1393 17.1165 30.2257C17.0974 30.3114 17.0879 30.4181 17.0879 30.5458Z" fill="#212121"/>
<path d="M14.1658 38.6348H14.0115V37.6477C14.0115 37.6102 14.0115 37.5782 14.0115 37.5515C14.0121 37.5242 14.0128 37.4994 14.0134 37.4772C14.0147 37.4543 14.0162 37.4311 14.0181 37.4076C13.9985 37.428 13.98 37.4454 13.9629 37.46C13.9457 37.474 13.9245 37.4915 13.8991 37.5124L13.7399 37.6401L13.6571 37.5324L14.0343 37.2419H14.1658V38.6348ZM15.1338 37.783C15.2285 37.783 15.3107 37.7992 15.3806 37.8316C15.4504 37.8634 15.5044 37.9097 15.5425 37.9707C15.5813 38.0317 15.6007 38.1057 15.6007 38.1927C15.6007 38.288 15.58 38.3702 15.5387 38.4395C15.4974 38.5081 15.4381 38.5611 15.3606 38.5986C15.2831 38.6354 15.1903 38.6538 15.0824 38.6538C15.01 38.6538 14.9426 38.6475 14.8804 38.6348C14.8181 38.6221 14.7657 38.603 14.7232 38.5776V38.4271C14.7695 38.455 14.8258 38.4772 14.8918 38.4938C14.9579 38.5103 15.022 38.5185 15.0843 38.5185C15.1548 38.5185 15.2164 38.5074 15.2691 38.4852C15.3225 38.4623 15.3637 38.428 15.393 38.3823C15.4228 38.3359 15.4377 38.2778 15.4377 38.2079C15.4377 38.1152 15.4092 38.0437 15.352 37.9936C15.2955 37.9428 15.2059 37.9173 15.0833 37.9173C15.0439 37.9173 15.0007 37.9205 14.9537 37.9269C14.9067 37.9332 14.868 37.9402 14.8375 37.9478L14.7575 37.8954L14.8108 37.2419H15.5035V37.3867H14.9461L14.9109 37.8068C14.935 37.8017 14.9661 37.7967 15.0042 37.7916C15.0423 37.7859 15.0855 37.783 15.1338 37.783ZM16.7306 37.9364C16.7306 38.0495 16.722 38.1505 16.7049 38.2394C16.6877 38.3283 16.6607 38.4036 16.6239 38.4652C16.5871 38.5268 16.5394 38.5738 16.481 38.6062C16.4226 38.6379 16.3524 38.6538 16.2704 38.6538C16.1669 38.6538 16.0812 38.6256 16.0132 38.569C15.9459 38.5125 15.8954 38.4309 15.8617 38.3242C15.8287 38.2168 15.8122 38.0876 15.8122 37.9364C15.8122 37.7878 15.8271 37.6601 15.8569 37.5534C15.8874 37.4461 15.9363 37.3638 16.0037 37.3066C16.071 37.2488 16.1599 37.2199 16.2704 37.2199C16.3752 37.2199 16.4616 37.2485 16.5296 37.3057C16.5975 37.3622 16.648 37.4442 16.6811 37.5515C16.7141 37.6582 16.7306 37.7865 16.7306 37.9364ZM15.9713 37.9364C15.9713 38.066 15.9811 38.174 16.0008 38.2603C16.0205 38.3467 16.0523 38.4115 16.0961 38.4547C16.1405 38.4973 16.1987 38.5185 16.2704 38.5185C16.3422 38.5185 16.4 38.4973 16.4438 38.4547C16.4883 38.4121 16.5204 38.3477 16.5401 38.2613C16.5604 38.1749 16.5706 38.0666 16.5706 37.9364C16.5706 37.8087 16.5607 37.702 16.541 37.6163C16.5213 37.5299 16.4896 37.4651 16.4457 37.4219C16.4019 37.3781 16.3435 37.3562 16.2704 37.3562C16.1974 37.3562 16.139 37.3781 16.0951 37.4219C16.0513 37.4651 16.0195 37.5299 15.9999 37.6163C15.9808 37.702 15.9713 37.8087 15.9713 37.9364ZM17.8472 37.9364C17.8472 38.0495 17.8387 38.1505 17.8215 38.2394C17.8044 38.3283 17.7774 38.4036 17.7405 38.4652C17.7037 38.5268 17.656 38.5738 17.5976 38.6062C17.5392 38.6379 17.469 38.6538 17.3871 38.6538C17.2835 38.6538 17.1978 38.6256 17.1298 38.569C17.0625 38.5125 17.012 38.4309 16.9783 38.3242C16.9453 38.2168 16.9288 38.0876 16.9288 37.9364C16.9288 37.7878 16.9437 37.6601 16.9736 37.5534C17.004 37.4461 17.053 37.3638 17.1203 37.3066C17.1876 37.2488 17.2765 37.2199 17.3871 37.2199C17.4919 37.2199 17.5782 37.2485 17.6462 37.3057C17.7142 37.3622 17.7647 37.4442 17.7977 37.5515C17.8307 37.6582 17.8472 37.7865 17.8472 37.9364ZM17.0879 37.9364C17.0879 38.066 17.0977 38.174 17.1174 38.2603C17.1371 38.3467 17.1689 38.4115 17.2127 38.4547C17.2572 38.4973 17.3153 38.5185 17.3871 38.5185C17.4588 38.5185 17.5166 38.4973 17.5605 38.4547C17.6049 38.4121 17.637 38.3477 17.6567 38.2613C17.677 38.1749 17.6872 38.0666 17.6872 37.9364C17.6872 37.8087 17.6773 37.702 17.6576 37.6163C17.6379 37.5299 17.6062 37.4651 17.5624 37.4219C17.5185 37.3781 17.4601 37.3562 17.3871 37.3562C17.314 37.3562 17.2556 37.3781 17.2117 37.4219C17.1679 37.4651 17.1362 37.5299 17.1165 37.6163C17.0974 37.702 17.0879 37.8087 17.0879 37.9364Z" fill="#212121"/>
<path d="M14.1658 46.0234H14.0115V45.0364C14.0115 44.9989 14.0115 44.9668 14.0115 44.9402C14.0121 44.9129 14.0128 44.8881 14.0134 44.8659C14.0147 44.843 14.0162 44.8198 14.0181 44.7963C13.9985 44.8166 13.98 44.8341 13.9629 44.8487C13.9457 44.8627 13.9245 44.8801 13.8991 44.9011L13.7399 45.0288L13.6571 44.9211L14.0343 44.6305H14.1658V46.0234ZM15.614 45.3251C15.614 45.4381 15.6054 45.5391 15.5883 45.628C15.5711 45.717 15.5441 45.7922 15.5073 45.8538C15.4704 45.9155 15.4228 45.9625 15.3644 45.9949C15.3059 46.0266 15.2358 46.0425 15.1538 46.0425C15.0503 46.0425 14.9645 46.0142 14.8966 45.9577C14.8293 45.9012 14.7788 45.8196 14.7451 45.7128C14.7121 45.6055 14.6956 45.4762 14.6956 45.3251C14.6956 45.1764 14.7105 45.0488 14.7403 44.9421C14.7708 44.8347 14.8197 44.7525 14.8871 44.6953C14.9544 44.6375 15.0433 44.6086 15.1538 44.6086C15.2586 44.6086 15.345 44.6372 15.413 44.6944C15.4809 44.7509 15.5314 44.8328 15.5645 44.9402C15.5975 45.0469 15.614 45.1752 15.614 45.3251ZM14.8547 45.3251C14.8547 45.4546 14.8645 45.5626 14.8842 45.649C14.9039 45.7354 14.9356 45.8002 14.9795 45.8434C15.0239 45.8859 15.082 45.9072 15.1538 45.9072C15.2256 45.9072 15.2834 45.8859 15.3272 45.8434C15.3717 45.8008 15.4038 45.7363 15.4234 45.65C15.4438 45.5636 15.4539 45.4553 15.4539 45.3251C15.4539 45.1974 15.4441 45.0907 15.4244 45.005C15.4047 44.9186 15.373 44.8538 15.3291 44.8106C15.2853 44.7668 15.2269 44.7449 15.1538 44.7449C15.0808 44.7449 15.0223 44.7668 14.9785 44.8106C14.9347 44.8538 14.9029 44.9186 14.8832 45.005C14.8642 45.0907 14.8547 45.1974 14.8547 45.3251ZM16.7306 45.3251C16.7306 45.4381 16.722 45.5391 16.7049 45.628C16.6877 45.717 16.6607 45.7922 16.6239 45.8538C16.5871 45.9155 16.5394 45.9625 16.481 45.9949C16.4226 46.0266 16.3524 46.0425 16.2704 46.0425C16.1669 46.0425 16.0812 46.0142 16.0132 45.9577C15.9459 45.9012 15.8954 45.8196 15.8617 45.7128C15.8287 45.6055 15.8122 45.4762 15.8122 45.3251C15.8122 45.1764 15.8271 45.0488 15.8569 44.9421C15.8874 44.8347 15.9363 44.7525 16.0037 44.6953C16.071 44.6375 16.1599 44.6086 16.2704 44.6086C16.3752 44.6086 16.4616 44.6372 16.5296 44.6944C16.5975 44.7509 16.648 44.8328 16.6811 44.9402C16.7141 45.0469 16.7306 45.1752 16.7306 45.3251ZM15.9713 45.3251C15.9713 45.4546 15.9811 45.5626 16.0008 45.649C16.0205 45.7354 16.0523 45.8002 16.0961 45.8434C16.1405 45.8859 16.1987 45.9072 16.2704 45.9072C16.3422 45.9072 16.4 45.8859 16.4438 45.8434C16.4883 45.8008 16.5204 45.7363 16.5401 45.65C16.5604 45.5636 16.5706 45.4553 16.5706 45.3251C16.5706 45.1974 16.5607 45.0907 16.541 45.005C16.5213 44.9186 16.4896 44.8538 16.4457 44.8106C16.4019 44.7668 16.3435 44.7449 16.2704 44.7449C16.1974 44.7449 16.139 44.7668 16.0951 44.8106C16.0513 44.8538 16.0195 44.9186 15.9999 45.005C15.9808 45.0907 15.9713 45.1974 15.9713 45.3251ZM17.8472 45.3251C17.8472 45.4381 17.8387 45.5391 17.8215 45.628C17.8044 45.717 17.7774 45.7922 17.7405 45.8538C17.7037 45.9155 17.656 45.9625 17.5976 45.9949C17.5392 46.0266 17.469 46.0425 17.3871 46.0425C17.2835 46.0425 17.1978 46.0142 17.1298 45.9577C17.0625 45.9012 17.012 45.8196 16.9783 45.7128C16.9453 45.6055 16.9288 45.4762 16.9288 45.3251C16.9288 45.1764 16.9437 45.0488 16.9736 44.9421C17.004 44.8347 17.053 44.7525 17.1203 44.6953C17.1876 44.6375 17.2765 44.6086 17.3871 44.6086C17.4919 44.6086 17.5782 44.6372 17.6462 44.6944C17.7142 44.7509 17.7647 44.8328 17.7977 44.9402C17.8307 45.0469 17.8472 45.1752 17.8472 45.3251ZM17.0879 45.3251C17.0879 45.4546 17.0977 45.5626 17.1174 45.649C17.1371 45.7354 17.1689 45.8002 17.2127 45.8434C17.2572 45.8859 17.3153 45.9072 17.3871 45.9072C17.4588 45.9072 17.5166 45.8859 17.5605 45.8434C17.6049 45.8008 17.637 45.7363 17.6567 45.65C17.677 45.5636 17.6872 45.4553 17.6872 45.3251C17.6872 45.1974 17.6773 45.0907 17.6576 45.005C17.6379 44.9186 17.6062 44.8538 17.5624 44.8106C17.5185 44.7668 17.4601 44.7449 17.3871 44.7449C17.314 44.7449 17.2556 44.7668 17.2117 44.8106C17.1679 44.8538 17.1362 44.9186 17.1165 45.005C17.0974 45.0907 17.0879 45.1974 17.0879 45.3251Z" fill="#212121"/>
<path d="M15.1334 52.5623C15.228 52.5623 15.3103 52.5785 15.3802 52.6109C15.45 52.6427 15.504 52.689 15.5421 52.75C15.5809 52.811 15.6003 52.885 15.6003 52.972C15.6003 53.0673 15.5796 53.1495 15.5383 53.2187C15.497 53.2873 15.4377 53.3404 15.3602 53.3779C15.2827 53.4147 15.1899 53.4331 15.082 53.4331C15.0096 53.4331 14.9422 53.4268 14.88 53.4141C14.8177 53.4014 14.7653 53.3823 14.7228 53.3569V53.2064C14.7691 53.2343 14.8254 53.2565 14.8914 53.2731C14.9575 53.2896 15.0216 53.2978 15.0839 53.2978C15.1544 53.2978 15.216 53.2867 15.2687 53.2645C15.3221 53.2416 15.3633 53.2073 15.3926 53.1616C15.4224 53.1152 15.4373 53.0571 15.4373 52.9872C15.4373 52.8945 15.4088 52.823 15.3516 52.7729C15.2951 52.7221 15.2055 52.6966 15.0829 52.6966C15.0435 52.6966 15.0003 52.6998 14.9533 52.7062C14.9063 52.7125 14.8676 52.7195 14.8371 52.7271L14.7571 52.6747L14.8104 52.0212H15.5031V52.166H14.9457L14.9105 52.5861C14.9346 52.581 14.9657 52.576 15.0038 52.5709C15.0419 52.5652 15.0851 52.5623 15.1334 52.5623ZM16.7302 52.7157C16.7302 52.8288 16.7216 52.9298 16.7045 53.0187C16.6873 53.1076 16.6603 53.1829 16.6235 53.2445C16.5867 53.3061 16.539 53.3531 16.4806 53.3855C16.4222 53.4172 16.352 53.4331 16.27 53.4331C16.1665 53.4331 16.0808 53.4049 16.0128 53.3483C15.9455 53.2918 15.895 53.2102 15.8613 53.1035C15.8283 52.9961 15.8118 52.8669 15.8118 52.7157C15.8118 52.5671 15.8267 52.4394 15.8565 52.3327C15.887 52.2254 15.9359 52.1431 16.0033 52.0859C16.0706 52.0281 16.1595 51.9992 16.27 51.9992C16.3748 51.9992 16.4612 52.0278 16.5292 52.085C16.5971 52.1415 16.6476 52.2235 16.6807 52.3308C16.7137 52.4375 16.7302 52.5658 16.7302 52.7157ZM15.9709 52.7157C15.9709 52.8453 15.9807 52.9533 16.0004 53.0396C16.0201 53.126 16.0519 53.1908 16.0957 53.234C16.1401 53.2765 16.1983 53.2978 16.27 53.2978C16.3418 53.2978 16.3996 53.2765 16.4434 53.234C16.4879 53.1914 16.52 53.127 16.5397 53.0406C16.56 52.9542 16.5701 52.8459 16.5701 52.7157C16.5701 52.588 16.5603 52.4813 16.5406 52.3956C16.5209 52.3092 16.4892 52.2444 16.4453 52.2012C16.4015 52.1574 16.3431 52.1355 16.27 52.1355C16.197 52.1355 16.1386 52.1574 16.0947 52.2012C16.0509 52.2444 16.0191 52.3092 15.9995 52.3956C15.9804 52.4813 15.9709 52.588 15.9709 52.7157ZM17.8468 52.7157C17.8468 52.8288 17.8382 52.9298 17.8211 53.0187C17.8039 53.1076 17.777 53.1829 17.7401 53.2445C17.7033 53.3061 17.6556 53.3531 17.5972 53.3855C17.5388 53.4172 17.4686 53.4331 17.3866 53.4331C17.2831 53.4331 17.1974 53.4049 17.1294 53.3483C17.0621 53.2918 17.0116 53.2102 16.9779 53.1035C16.9449 52.9961 16.9284 52.8669 16.9284 52.7157C16.9284 52.5671 16.9433 52.4394 16.9732 52.3327C17.0036 52.2254 17.0526 52.1431 17.1199 52.0859C17.1872 52.0281 17.2761 51.9992 17.3866 51.9992C17.4914 51.9992 17.5778 52.0278 17.6458 52.085C17.7138 52.1415 17.7643 52.2235 17.7973 52.3308C17.8303 52.4375 17.8468 52.5658 17.8468 52.7157ZM17.0875 52.7157C17.0875 52.8453 17.0973 52.9533 17.117 53.0396C17.1367 53.126 17.1685 53.1908 17.2123 53.234C17.2568 53.2765 17.3149 53.2978 17.3866 53.2978C17.4584 53.2978 17.5162 53.2765 17.56 53.234C17.6045 53.1914 17.6366 53.127 17.6563 53.0406C17.6766 52.9542 17.6868 52.8459 17.6868 52.7157C17.6868 52.588 17.6769 52.4813 17.6572 52.3956C17.6375 52.3092 17.6058 52.2444 17.562 52.2012C17.5181 52.1574 17.4597 52.1355 17.3866 52.1355C17.3136 52.1355 17.2552 52.1574 17.2113 52.2012C17.1675 52.2444 17.1358 52.3092 17.1161 52.3956C17.097 52.4813 17.0875 52.588 17.0875 52.7157Z" fill="#212121"/>
<path d="M15.282 60.8047H15.1277V59.8176C15.1277 59.7802 15.1277 59.7481 15.1277 59.7214C15.1283 59.6941 15.129 59.6693 15.1296 59.6471C15.1309 59.6242 15.1325 59.6011 15.1344 59.5776C15.1147 59.5979 15.0963 59.6153 15.0791 59.63C15.062 59.6439 15.0407 59.6614 15.0153 59.6824L14.8562 59.81L14.7733 59.7024L15.1506 59.4118H15.282V60.8047ZM16.7302 60.1063C16.7302 60.2194 16.7216 60.3204 16.7045 60.4093C16.6873 60.4982 16.6603 60.5735 16.6235 60.6351C16.5867 60.6967 16.539 60.7437 16.4806 60.7761C16.4222 60.8079 16.352 60.8237 16.27 60.8237C16.1665 60.8237 16.0808 60.7955 16.0128 60.7389C15.9455 60.6824 15.895 60.6008 15.8613 60.4941C15.8283 60.3868 15.8118 60.2575 15.8118 60.1063C15.8118 59.9577 15.8267 59.83 15.8565 59.7233C15.887 59.616 15.9359 59.5337 16.0033 59.4766C16.0706 59.4188 16.1595 59.3899 16.27 59.3899C16.3748 59.3899 16.4612 59.4184 16.5292 59.4756C16.5971 59.5321 16.6476 59.6141 16.6807 59.7214C16.7137 59.8281 16.7302 59.9564 16.7302 60.1063ZM15.9709 60.1063C15.9709 60.2359 15.9807 60.3439 16.0004 60.4303C16.0201 60.5166 16.0519 60.5814 16.0957 60.6246C16.1401 60.6672 16.1983 60.6885 16.27 60.6885C16.3418 60.6885 16.3996 60.6672 16.4434 60.6246C16.4879 60.5821 16.52 60.5176 16.5397 60.4312C16.56 60.3448 16.5701 60.2365 16.5701 60.1063C16.5701 59.9787 16.5603 59.872 16.5406 59.7862C16.5209 59.6998 16.4892 59.635 16.4453 59.5918C16.4015 59.548 16.3431 59.5261 16.27 59.5261C16.197 59.5261 16.1386 59.548 16.0947 59.5918C16.0509 59.635 16.0191 59.6998 15.9995 59.7862C15.9804 59.872 15.9709 59.9787 15.9709 60.1063ZM17.8468 60.1063C17.8468 60.2194 17.8382 60.3204 17.8211 60.4093C17.8039 60.4982 17.777 60.5735 17.7401 60.6351C17.7033 60.6967 17.6556 60.7437 17.5972 60.7761C17.5388 60.8079 17.4686 60.8237 17.3866 60.8237C17.2831 60.8237 17.1974 60.7955 17.1294 60.7389C17.0621 60.6824 17.0116 60.6008 16.9779 60.4941C16.9449 60.3868 16.9284 60.2575 16.9284 60.1063C16.9284 59.9577 16.9433 59.83 16.9732 59.7233C17.0036 59.616 17.0526 59.5337 17.1199 59.4766C17.1872 59.4188 17.2761 59.3899 17.3866 59.3899C17.4914 59.3899 17.5778 59.4184 17.6458 59.4756C17.7138 59.5321 17.7643 59.6141 17.7973 59.7214C17.8303 59.8281 17.8468 59.9564 17.8468 60.1063ZM17.0875 60.1063C17.0875 60.2359 17.0973 60.3439 17.117 60.4303C17.1367 60.5166 17.1685 60.5814 17.2123 60.6246C17.2568 60.6672 17.3149 60.6885 17.3866 60.6885C17.4584 60.6885 17.5162 60.6672 17.56 60.6246C17.6045 60.5821 17.6366 60.5176 17.6563 60.4312C17.6766 60.3448 17.6868 60.2365 17.6868 60.1063C17.6868 59.9787 17.6769 59.872 17.6572 59.7862C17.6375 59.6998 17.6058 59.635 17.562 59.5918C17.5181 59.548 17.4597 59.5261 17.3866 59.5261C17.3136 59.5261 17.2552 59.548 17.2113 59.5918C17.1675 59.635 17.1358 59.6998 17.1161 59.7862C17.097 59.872 17.0875 59.9787 17.0875 60.1063Z" fill="#212121"/>
<path d="M17.8468 67.497C17.8468 67.61 17.8382 67.711 17.8211 67.7999C17.8039 67.8888 17.777 67.9641 17.7401 68.0257C17.7033 68.0873 17.6556 68.1343 17.5972 68.1667C17.5388 68.1985 17.4686 68.2144 17.3866 68.2144C17.2831 68.2144 17.1974 68.1861 17.1294 68.1296C17.0621 68.073 17.0116 67.9914 16.9779 67.8847C16.9449 67.7774 16.9284 67.6481 16.9284 67.497C16.9284 67.3483 16.9433 67.2207 16.9732 67.1139C17.0036 67.0066 17.0526 66.9244 17.1199 66.8672C17.1872 66.8094 17.2761 66.7805 17.3866 66.7805C17.4914 66.7805 17.5778 66.8091 17.6458 66.8662C17.7138 66.9228 17.7643 67.0047 17.7973 67.112C17.8303 67.2187 17.8468 67.3471 17.8468 67.497ZM17.0875 67.497C17.0875 67.6265 17.0973 67.7345 17.117 67.8209C17.1367 67.9073 17.1685 67.9721 17.2123 68.0152C17.2568 68.0578 17.3149 68.0791 17.3866 68.0791C17.4584 68.0791 17.5162 68.0578 17.56 68.0152C17.6045 67.9727 17.6366 67.9082 17.6563 67.8218C17.6766 67.7355 17.6868 67.6272 17.6868 67.497C17.6868 67.3693 17.6769 67.2626 17.6572 67.1768C17.6375 67.0904 17.6058 67.0257 17.562 66.9825C17.5181 66.9386 17.4597 66.9167 17.3866 66.9167C17.3136 66.9167 17.2552 66.9386 17.2113 66.9825C17.1675 67.0257 17.1358 67.0904 17.1161 67.1768C17.097 67.2626 17.0875 67.3693 17.0875 67.497Z" fill="#212121"/>
<path d="M29.2715 71.4141H29.1172V70.427C29.1172 70.3895 29.1172 70.3575 29.1172 70.3308C29.1178 70.3035 29.1185 70.2787 29.1191 70.2565C29.1204 70.2336 29.122 70.2104 29.1239 70.1869C29.1042 70.2073 29.0857 70.2247 29.0686 70.2393C29.0514 70.2533 29.0302 70.2708 29.0048 70.2917L28.8457 70.4194L28.7628 70.3117L29.1401 70.0212H29.2715V71.4141Z" fill="#212121"/>
<path d="M21.5543 70.7157C21.5543 70.8288 21.5457 70.9298 21.5285 71.0187C21.5114 71.1076 21.4844 71.1829 21.4476 71.2445C21.4107 71.3061 21.3631 71.3531 21.3046 71.3855C21.2462 71.4172 21.176 71.4331 21.0941 71.4331C20.9906 71.4331 20.9048 71.4049 20.8368 71.3483C20.7695 71.2918 20.719 71.2102 20.6854 71.1035C20.6523 70.9961 20.6358 70.8669 20.6358 70.7157C20.6358 70.5671 20.6507 70.4394 20.6806 70.3327C20.7111 70.2254 20.76 70.1431 20.8273 70.0859C20.8946 70.0281 20.9836 69.9992 21.0941 69.9992C21.1989 69.9992 21.2853 70.0278 21.3532 70.085C21.4212 70.1415 21.4717 70.2235 21.5047 70.3308C21.5377 70.4375 21.5543 70.5658 21.5543 70.7157ZM20.7949 70.7157C20.7949 70.8453 20.8048 70.9533 20.8245 71.0396C20.8441 71.126 20.8759 71.1908 20.9197 71.234C20.9642 71.2765 21.0223 71.2978 21.0941 71.2978C21.1659 71.2978 21.2237 71.2765 21.2675 71.234C21.3119 71.1914 21.344 71.127 21.3637 71.0406C21.384 70.9542 21.3942 70.8459 21.3942 70.7157C21.3942 70.588 21.3844 70.4813 21.3647 70.3956C21.345 70.3092 21.3132 70.2444 21.2694 70.2012C21.2256 70.1574 21.1671 70.1355 21.0941 70.1355C21.021 70.1355 20.9626 70.1574 20.9188 70.2012C20.875 70.2444 20.8432 70.3092 20.8235 70.3956C20.8044 70.4813 20.7949 70.588 20.7949 70.7157Z" fill="#212121"/>
<path d="M37.6443 71.4141H36.7316V71.2816L37.1041 70.9034C37.1733 70.8335 37.2314 70.7713 37.2784 70.7167C37.3261 70.662 37.3623 70.6084 37.3871 70.5556C37.4118 70.5023 37.4242 70.4439 37.4242 70.3803C37.4242 70.3016 37.4007 70.2416 37.3537 70.2003C37.3073 70.1583 37.246 70.1374 37.1698 70.1374C37.1031 70.1374 37.0441 70.1488 36.9926 70.1717C36.9412 70.1946 36.8884 70.2269 36.8345 70.2689L36.7497 70.1622C36.7865 70.131 36.8265 70.1034 36.8697 70.0793C36.9135 70.0551 36.9602 70.0361 37.0098 70.0221C37.0599 70.0081 37.1133 70.0011 37.1698 70.0011C37.2556 70.0011 37.3296 70.0161 37.3918 70.0459C37.4541 70.0758 37.502 70.1183 37.5357 70.1736C37.57 70.2288 37.5871 70.2946 37.5871 70.3708C37.5871 70.4445 37.5725 70.5131 37.5433 70.5766C37.5141 70.6395 37.4731 70.702 37.4204 70.7643C37.3677 70.8259 37.3061 70.8913 37.2356 70.9606L36.9326 71.2626V71.2692H37.6443V71.4141Z" fill="#212121"/>
<path d="M45.8858 70.346C45.8858 70.4083 45.8737 70.4623 45.8496 70.508C45.8255 70.5537 45.7918 70.5912 45.7486 70.6204C45.7054 70.649 45.6546 70.669 45.5962 70.6804V70.6881C45.7067 70.702 45.7896 70.7376 45.8448 70.7948C45.9007 70.8519 45.9287 70.9269 45.9287 71.0196C45.9287 71.1003 45.9096 71.1717 45.8715 71.234C45.834 71.2962 45.7762 71.3451 45.6981 71.3807C45.6206 71.4157 45.5212 71.4331 45.3999 71.4331C45.3262 71.4331 45.258 71.4271 45.1951 71.415C45.1328 71.4036 45.0731 71.3842 45.016 71.3569V71.2083C45.0738 71.2369 45.1366 71.2594 45.2046 71.2759C45.2726 71.2918 45.3383 71.2997 45.4018 71.2997C45.5289 71.2997 45.6206 71.2746 45.6772 71.2245C45.7337 71.1737 45.762 71.1044 45.762 71.0168C45.762 70.9564 45.7461 70.9078 45.7143 70.871C45.6832 70.8335 45.6381 70.8062 45.579 70.7891C45.5206 70.7713 45.4501 70.7624 45.3675 70.7624H45.2284V70.6271H45.3685C45.4441 70.6271 45.5082 70.616 45.5609 70.5937C45.6136 70.5715 45.6537 70.5404 45.681 70.5004C45.7089 70.4597 45.7229 70.4118 45.7229 70.3565C45.7229 70.286 45.6994 70.2317 45.6524 70.1936C45.6054 70.1549 45.5416 70.1355 45.4609 70.1355C45.4113 70.1355 45.3663 70.1406 45.3256 70.1507C45.2849 70.1609 45.2468 70.1749 45.2113 70.1926C45.1757 70.2104 45.1401 70.2311 45.1046 70.2546L45.0245 70.146C45.0753 70.1066 45.1373 70.0726 45.2103 70.044C45.2834 70.0154 45.3663 70.0011 45.459 70.0011C45.6013 70.0011 45.708 70.0335 45.7791 70.0983C45.8502 70.1631 45.8858 70.2457 45.8858 70.346Z" fill="#212121"/>
<path d="M54.0556 71.0911H53.847V71.4141H53.6926V71.0911H53.0191V70.9577L53.6822 70.0135H53.847V70.9482H54.0556V71.0911ZM53.6926 70.9482V70.4928C53.6926 70.4578 53.693 70.4264 53.6936 70.3984C53.6942 70.3699 53.6952 70.3435 53.6965 70.3194C53.6977 70.2946 53.6987 70.2711 53.6993 70.2489C53.7006 70.2266 53.7015 70.2047 53.7022 70.1831H53.6946C53.6825 70.2085 53.6685 70.2355 53.6526 70.2641C53.6374 70.292 53.6218 70.3171 53.6059 70.3394L53.1763 70.9482H53.6926Z" fill="#212121"/>
<path d="M61.5614 70.5623C61.656 70.5623 61.7383 70.5785 61.8081 70.6109C61.878 70.6427 61.932 70.689 61.9701 70.75C62.0089 70.811 62.0282 70.885 62.0282 70.972C62.0282 71.0673 62.0076 71.1495 61.9663 71.2187C61.925 71.2873 61.8656 71.3404 61.7881 71.3779C61.7106 71.4147 61.6179 71.4331 61.5099 71.4331C61.4375 71.4331 61.3702 71.4268 61.308 71.4141C61.2457 71.4014 61.1933 71.3823 61.1507 71.3569V71.2064C61.1971 71.2343 61.2533 71.2565 61.3194 71.2731C61.3854 71.2896 61.4496 71.2978 61.5118 71.2978C61.5823 71.2978 61.644 71.2867 61.6967 71.2645C61.75 71.2416 61.7913 71.2073 61.8205 71.1616C61.8504 71.1152 61.8653 71.0571 61.8653 70.9872C61.8653 70.8945 61.8367 70.823 61.7796 70.7729C61.723 70.7221 61.6335 70.6966 61.5109 70.6966C61.4715 70.6966 61.4283 70.6998 61.3813 70.7062C61.3343 70.7125 61.2956 70.7195 61.2651 70.7271L61.185 70.6747L61.2384 70.0212H61.931V70.166H61.3737L61.3384 70.5861C61.3626 70.581 61.3937 70.576 61.4318 70.5709C61.4699 70.5652 61.5131 70.5623 61.5614 70.5623Z" fill="#212121"/>
<path d="M69.1843 70.8186C69.1843 70.7348 69.19 70.6528 69.2015 70.5728C69.2135 70.4928 69.2336 70.4184 69.2615 70.3498C69.2895 70.2806 69.3276 70.22 69.3758 70.1679C69.4241 70.1158 69.4841 70.0751 69.5559 70.0459C69.6283 70.0161 69.715 70.0011 69.816 70.0011C69.8446 70.0011 69.8754 70.0027 69.9084 70.0059C69.9414 70.0084 69.9688 70.0129 69.9904 70.0192V70.1555C69.9669 70.1472 69.9399 70.1412 69.9094 70.1374C69.8795 70.1336 69.8493 70.1317 69.8189 70.1317C69.7007 70.1317 69.6077 70.1574 69.5397 70.2088C69.4724 70.2603 69.4238 70.3302 69.3939 70.4184C69.3641 70.5061 69.3469 70.6049 69.3425 70.7147H69.353C69.3727 70.683 69.3977 70.6544 69.4282 70.629C69.4587 70.603 69.4956 70.5823 69.5388 70.5671C69.5826 70.5518 69.6334 70.5442 69.6912 70.5442C69.7725 70.5442 69.8433 70.5607 69.9037 70.5937C69.9646 70.6268 70.0116 70.6747 70.0447 70.7376C70.0783 70.8005 70.0952 70.8767 70.0952 70.9663C70.0952 71.0622 70.0774 71.1451 70.0418 71.2149C70.0062 71.2848 69.9554 71.3388 69.8894 71.3769C69.8239 71.4144 69.7458 71.4331 69.655 71.4331C69.587 71.4331 69.5245 71.4201 69.4673 71.3941C69.4101 71.368 69.3603 71.3293 69.3177 71.2778C69.2758 71.2264 69.2431 71.1625 69.2196 71.0863C69.1961 71.0095 69.1843 70.9202 69.1843 70.8186ZM69.6531 71.2997C69.7395 71.2997 69.8087 71.2721 69.8608 71.2168C69.9129 71.1616 69.9389 71.0781 69.9389 70.9663C69.9389 70.8748 69.9157 70.8024 69.8694 70.749C69.823 70.6957 69.7531 70.669 69.6598 70.669C69.5962 70.669 69.541 70.6824 69.494 70.709C69.447 70.7351 69.4104 70.7681 69.3844 70.8081C69.3584 70.8481 69.3453 70.8888 69.3453 70.9301C69.3453 70.972 69.3514 71.0145 69.3634 71.0577C69.3762 71.1009 69.3952 71.1409 69.4206 71.1778C69.446 71.2146 69.4781 71.2442 69.5168 71.2664C69.5556 71.2886 69.601 71.2997 69.6531 71.2997Z" fill="#212121"/>
<path d="M77.1558 71.4141L77.7274 70.166H76.9681V70.0212H77.897V70.1431L77.3292 71.4141H77.1558Z" fill="#212121"/>
<path d="M20.2638 68.9267C20.2638 68.994 20.3184 69.0486 20.3857 69.0486C20.4531 69.0486 20.5077 68.994 20.5077 68.9267H20.2638ZM20.3857 21.8535H20.2638V68.9267H20.3857H20.5077V21.8535H20.3857Z" fill="#D4D4D4"/>
<path d="M20.3857 68.9258H76.7272" stroke="#D4D4D4" stroke-width="0.243902"/>
<path opacity="0.8" d="M20.3857 65.269C20.3857 65.269 32.5809 62.2205 36.3614 54.5373C40.1418 46.8542 37.5809 34.781 46.2394 34.4153C57.6926 33.9316 49.654 53.0739 60.7516 55.0251C71.8492 56.9764 76.8492 65.6349 76.8492 65.6349" stroke="#FF6C61" stroke-width="0.349224"/>
<circle cx="20.3631" cy="65.2859" r="0.465632" fill="#C1382E"/>
<path opacity="0.8" d="M20.3057 67.5526C20.3057 67.5526 24.0307 50.6152 30.7242 48.6945C37.4176 46.7738 45.2907 51.1119 51.0956 57.5997C55.0534 62.0232 55.9847 66.7377 66.345 67.5526C76.7053 68.3675 76.7274 65.9979 76.7274 65.9979" stroke="#006FFF" stroke-width="0.349224"/>
<g filter="url(#filter0_d_7837_42117)">
<rect x="49.168" y="54.5391" width="6.09756" height="3.65854" rx="1.82927" fill="white"/>
</g>
<path d="M51.1337 57.0273H50.9088V56.1308C50.9088 56.101 50.9092 56.0711 50.9098 56.0413C50.9104 56.0114 50.9111 55.9822 50.9117 55.9536C50.913 55.925 50.9146 55.8977 50.9165 55.8717C50.9031 55.8863 50.8866 55.9022 50.8669 55.9193C50.8479 55.9365 50.8275 55.9542 50.8059 55.9727L50.6459 56.1003L50.5335 55.9584L50.947 55.6344H51.1337V57.0273ZM52.5352 57.0273H51.592V56.8587L51.9531 56.4929C52.0229 56.4217 52.0804 56.3604 52.1255 56.309C52.1706 56.2569 52.2039 56.2077 52.2255 56.1613C52.2478 56.1149 52.2589 56.0644 52.2589 56.0098C52.2589 55.9425 52.2395 55.8917 52.2008 55.8574C52.162 55.8224 52.1109 55.805 52.0474 55.805C51.987 55.805 51.9311 55.817 51.8797 55.8412C51.8289 55.8647 51.7762 55.8983 51.7215 55.9422L51.5986 55.7945C51.6374 55.7615 51.6787 55.7313 51.7225 55.704C51.767 55.6767 51.8165 55.6551 51.8711 55.6392C51.9257 55.6227 51.988 55.6144 52.0579 55.6144C52.1461 55.6144 52.2224 55.6303 52.2865 55.6621C52.3507 55.6932 52.3999 55.7367 52.4342 55.7926C52.4691 55.8485 52.4866 55.9136 52.4866 55.9879C52.4866 56.0628 52.4717 56.1321 52.4418 56.1956C52.412 56.2591 52.3694 56.322 52.3141 56.3842C52.2589 56.4459 52.1931 56.5129 52.1169 56.5853L51.8759 56.8206V56.8311H52.5352V57.0273ZM53.6518 56.3299C53.6518 56.4424 53.6429 56.543 53.6251 56.632C53.608 56.7202 53.5807 56.7952 53.5432 56.8568C53.5057 56.9184 53.4568 56.9654 53.3965 56.9978C53.3361 57.0302 53.2631 57.0464 53.1773 57.0464C53.07 57.0464 52.9814 57.0181 52.9115 56.9616C52.8416 56.9044 52.7899 56.8225 52.7562 56.7158C52.7226 56.6085 52.7057 56.4798 52.7057 56.3299C52.7057 56.18 52.721 56.0517 52.7515 55.945C52.7826 55.8377 52.8328 55.7554 52.902 55.6983C52.9712 55.6411 53.063 55.6125 53.1773 55.6125C53.2853 55.6125 53.3742 55.6411 53.4441 55.6983C53.5146 55.7548 53.5667 55.8367 53.6003 55.9441C53.6346 56.0508 53.6518 56.1794 53.6518 56.3299ZM52.9315 56.3299C52.9315 56.4474 52.9391 56.5456 52.9544 56.6243C52.9703 56.7031 52.9963 56.7622 53.0325 56.8015C53.0687 56.8403 53.117 56.8597 53.1773 56.8597C53.2377 56.8597 53.2859 56.8403 53.3221 56.8015C53.3584 56.7628 53.3844 56.704 53.4003 56.6253C53.4168 56.5465 53.425 56.4481 53.425 56.3299C53.425 56.2131 53.4171 56.1153 53.4012 56.0365C53.3853 55.9577 53.3593 55.8987 53.3231 55.8593C53.2869 55.8193 53.2383 55.7993 53.1773 55.7993C53.1164 55.7993 53.0678 55.8193 53.0316 55.8593C52.996 55.8987 52.9703 55.9577 52.9544 56.0365C52.9391 56.1153 52.9315 56.2131 52.9315 56.3299Z" fill="#444444"/>
<circle cx="20.3631" cy="67.6102" r="0.465632" fill="#1165D3"/>
<circle cx="28.4119" cy="50.1219" r="0.465632" fill="#1165D3"/>
<circle cx="28.4119" cy="61.8289" r="0.465632" fill="#C1382E"/>
<circle cx="36.4608" cy="54.2684" r="0.465632" fill="#C1382E"/>
<circle cx="44.5096" cy="34.5125" r="0.465632" fill="#C1382E"/>
<circle cx="52.5584" cy="38.659" r="0.465632" fill="#C1382E"/>
<circle cx="60.6072" cy="55.0008" r="0.465632" fill="#C1382E"/>
<circle cx="68.6561" cy="57.9266" r="0.465632" fill="#C1382E"/>
<circle cx="36.4608" cy="48.4149" r="0.465632" fill="#1165D3"/>
<circle cx="44.5096" cy="51.8289" r="0.465632" fill="#1165D3"/>
<circle cx="52.5584" cy="59.3914" r="0.465632" fill="#1165D3"/>
<circle cx="60.6072" cy="66.4637" r="0.465632" fill="#1165D3"/>
<circle cx="68.6561" cy="67.6824" r="0.465632" fill="#1165D3"/>
<circle cx="76.7049" cy="65.9754" r="0.465632" fill="#1165D3"/>
<g filter="url(#filter1_d_7837_42117)">
<rect x="25.9941" y="58.4414" width="4.87805" height="3.65854" rx="1.82927" fill="white"/>
</g>
<path d="M27.7712 59.5177C27.8519 59.5177 27.9246 59.5304 27.9894 59.5558C28.0542 59.5806 28.1056 59.6178 28.1437 59.6673C28.1819 59.7168 28.2009 59.7781 28.2009 59.8512C28.2009 59.9077 28.1892 59.9569 28.1657 59.9989C28.1428 60.0408 28.1117 60.0776 28.0723 60.1094C28.0329 60.1405 27.9888 60.1681 27.9399 60.1923C27.9945 60.2189 28.0447 60.2497 28.0904 60.2847C28.1368 60.319 28.1739 60.3593 28.2019 60.4057C28.2304 60.452 28.2447 60.5064 28.2447 60.5686C28.2447 60.6467 28.2247 60.7144 28.1847 60.7715C28.1453 60.8281 28.0904 60.8719 28.0199 60.903C27.9494 60.9335 27.8671 60.9487 27.7731 60.9487C27.6721 60.9487 27.5861 60.9338 27.5149 60.904C27.4438 60.8741 27.3898 60.8316 27.353 60.7763C27.3161 60.7204 27.2977 60.6537 27.2977 60.5762C27.2977 60.5121 27.3104 60.4565 27.3358 60.4095C27.3612 60.3625 27.3952 60.3218 27.4378 60.2875C27.481 60.2532 27.5283 60.2243 27.5797 60.2008C27.5359 60.1748 27.4959 60.1456 27.4597 60.1132C27.4235 60.0802 27.3946 60.0424 27.373 59.9998C27.352 59.9566 27.3415 59.9068 27.3415 59.8502C27.3415 59.7778 27.3609 59.7172 27.3997 59.6683C27.4384 59.6187 27.4902 59.5812 27.5549 59.5558C27.6204 59.5304 27.6925 59.5177 27.7712 59.5177ZM27.5111 60.5676C27.5111 60.6286 27.5327 60.6788 27.5759 60.7182C27.6191 60.7576 27.6836 60.7772 27.7693 60.7772C27.8544 60.7772 27.9192 60.7579 27.9637 60.7191C28.0081 60.6804 28.0304 60.6293 28.0304 60.5657C28.0304 60.5251 28.0189 60.4892 27.9961 60.4581C27.9738 60.427 27.9437 60.3993 27.9056 60.3752C27.8681 60.3504 27.8265 60.3276 27.7807 60.3066L27.7503 60.2942C27.7007 60.3152 27.6582 60.339 27.6226 60.3657C27.587 60.3917 27.5594 60.4212 27.5397 60.4543C27.5207 60.4873 27.5111 60.5251 27.5111 60.5676ZM27.7693 59.6902C27.7077 59.6902 27.6569 59.7054 27.6169 59.7359C27.5775 59.7658 27.5578 59.8089 27.5578 59.8655C27.5578 59.9055 27.5673 59.9398 27.5864 59.9684C27.6061 59.997 27.6324 60.0217 27.6655 60.0427C27.6985 60.063 27.735 60.0821 27.775 60.0998C27.8138 60.0827 27.8487 60.064 27.8798 60.0436C27.9116 60.0227 27.9367 59.9979 27.9551 59.9693C27.9742 59.9401 27.9837 59.9052 27.9837 59.8645C27.9837 59.8086 27.9637 59.7658 27.9237 59.7359C27.8843 59.7054 27.8328 59.6902 27.7693 59.6902ZM29.3614 60.2323C29.3614 60.3447 29.3525 60.4454 29.3347 60.5343C29.3175 60.6226 29.2902 60.6975 29.2527 60.7591C29.2153 60.8208 29.1664 60.8678 29.106 60.9002C29.0457 60.9325 28.9726 60.9487 28.8869 60.9487C28.7795 60.9487 28.6909 60.9205 28.6211 60.8639C28.5512 60.8068 28.4994 60.7248 28.4658 60.6181C28.4321 60.5108 28.4153 60.3822 28.4153 60.2323C28.4153 60.0824 28.4305 59.9541 28.461 59.8474C28.4921 59.74 28.5423 59.6578 28.6115 59.6006C28.6808 59.5434 28.7726 59.5149 28.8869 59.5149C28.9949 59.5149 29.0838 59.5434 29.1537 59.6006C29.2242 59.6571 29.2762 59.7391 29.3099 59.8464C29.3442 59.9531 29.3614 60.0817 29.3614 60.2323ZM28.6411 60.2323C28.6411 60.3498 28.6487 60.4479 28.6639 60.5267C28.6798 60.6054 28.7059 60.6645 28.7421 60.7039C28.7783 60.7426 28.8265 60.762 28.8869 60.762C28.9472 60.762 28.9955 60.7426 29.0317 60.7039C29.0679 60.6651 29.0939 60.6064 29.1098 60.5276C29.1263 60.4489 29.1346 60.3504 29.1346 60.2323C29.1346 60.1154 29.1267 60.0176 29.1108 59.9388C29.0949 59.8601 29.0689 59.801 29.0327 59.7616C28.9965 59.7216 28.9479 59.7016 28.8869 59.7016C28.8259 59.7016 28.7773 59.7216 28.7411 59.7616C28.7055 59.801 28.6798 59.8601 28.6639 59.9388C28.6487 60.0176 28.6411 60.1154 28.6411 60.2323Z" fill="#444444"/>
<circle cx="76.7049" cy="65.2469" r="0.465632" fill="#C1382E"/>
<defs>
<filter id="filter0_d_7837_42117" x="48.2597" y="54.5391" width="7.91422" height="5.47477" filterUnits="userSpaceOnUse" color-interpolation-filters="sRGB">
<feFlood flood-opacity="0" result="BackgroundImageFix"/>
<feColorMatrix in="SourceAlpha" type="matrix" values="0 0 0 0 0 0 0 0 0 0 0 0 0 0 0 0 0 0 127 0" result="hardAlpha"/>
<feOffset dy="0.908283"/>
<feGaussianBlur stdDeviation="0.454141"/>
<feComposite in2="hardAlpha" operator="out"/>
<feColorMatrix type="matrix" values="0 0 0 0 0 0 0 0 0 0 0 0 0 0 0 0 0 0 0.25 0"/>
<feBlend mode="normal" in2="BackgroundImageFix" result="effect1_dropShadow_7837_42117"/>
<feBlend mode="normal" in="SourceGraphic" in2="effect1_dropShadow_7837_42117" result="shape"/>
</filter>
<filter id="filter1_d_7837_42117" x="25.0859" y="58.4414" width="6.69449" height="5.47477" filterUnits="userSpaceOnUse" color-interpolation-filters="sRGB">
<feFlood flood-opacity="0" result="BackgroundImageFix"/>
<feColorMatrix in="SourceAlpha" type="matrix" values="0 0 0 0 0 0 0 0 0 0 0 0 0 0 0 0 0 0 127 0" result="hardAlpha"/>
<feOffset dy="0.908283"/>
<feGaussianBlur stdDeviation="0.454141"/>
<feComposite in2="hardAlpha" operator="out"/>
<feColorMatrix type="matrix" values="0 0 0 0 0 0 0 0 0 0 0 0 0 0 0 0 0 0 0.25 0"/>
<feBlend mode="normal" in2="BackgroundImageFix" result="effect1_dropShadow_7837_42117"/>
<feBlend mode="normal" in="SourceGraphic" in2="effect1_dropShadow_7837_42117" result="shape"/>
</filter>
</defs>
</svg>
