<svg width="92" height="92" viewBox="0 0 92 92" fill="none" xmlns="http://www.w3.org/2000/svg">
<rect x="0.389831" y="0.389831" width="91.079" height="91.2203" rx="17.5424" stroke="#BEBEBE" stroke-width="0.779661"/>
<rect x="46.7158" y="12" width="20.7861" height="59.4268" rx="3.78138" fill="#F6F6F6"/>
<rect x="46.7881" y="56.1133" width="20.7976" height="15.3956" rx="3.78138" fill="#FFF235"/>
<rect x="50.5674" y="53.4062" width="13.3078" height="4.37517" rx="2.18759" fill="white"/>
<path d="M53.8691 55.9453H52.8246V55.7586L53.2245 55.3534C53.3019 55.2746 53.3655 55.2068 53.4154 55.1498C53.4654 55.0921 53.5023 55.0376 53.5262 54.9863C53.5508 54.9349 53.5632 54.879 53.5632 54.8185C53.5632 54.7439 53.5417 54.6877 53.4988 54.6497C53.4559 54.611 53.3993 54.5917 53.3289 54.5917C53.2621 54.5917 53.2002 54.605 53.1432 54.6317C53.087 54.6578 53.0286 54.695 52.9681 54.7436L52.832 54.58C52.8749 54.5435 52.9206 54.5101 52.9692 54.4798C53.0184 54.4496 53.0733 54.4257 53.1337 54.4081C53.1942 54.3898 53.2632 54.3806 53.3405 54.3806C53.4383 54.3806 53.5227 54.3982 53.5938 54.4334C53.6648 54.4679 53.7193 54.516 53.7573 54.5779C53.796 54.6398 53.8153 54.7119 53.8153 54.7942C53.8153 54.8772 53.7988 54.9539 53.7657 55.0242C53.7327 55.0946 53.6855 55.1642 53.6244 55.2331C53.5632 55.3014 53.4904 55.3756 53.406 55.4558L53.139 55.7164V55.728H53.8691V55.9453ZM55.1057 55.173C55.1057 55.2975 55.0958 55.409 55.0761 55.5075C55.0571 55.6052 55.0269 55.6882 54.9854 55.7565C54.9439 55.8247 54.8897 55.8767 54.8229 55.9126C54.7561 55.9485 54.6752 55.9664 54.5802 55.9664C54.4614 55.9664 54.3633 55.9351 54.2859 55.8725C54.2085 55.8092 54.1512 55.7185 54.1139 55.6003C54.0766 55.4814 54.058 55.339 54.058 55.173C54.058 55.007 54.0749 54.8649 54.1086 54.7467C54.1431 54.6279 54.1987 54.5368 54.2753 54.4735C54.352 54.4102 54.4536 54.3785 54.5802 54.3785C54.6998 54.3785 54.7983 54.4102 54.8757 54.4735C54.9537 54.5361 55.0114 54.6268 55.0487 54.7457C55.0867 54.8639 55.1057 55.0063 55.1057 55.173ZM54.308 55.173C54.308 55.3031 54.3165 55.4118 54.3334 55.499C54.3509 55.5862 54.3798 55.6517 54.4199 55.6953C54.46 55.7382 54.5134 55.7596 54.5802 55.7596C54.6471 55.7596 54.7005 55.7382 54.7406 55.6953C54.7807 55.6524 54.8096 55.5873 54.8271 55.5001C54.8454 55.4129 54.8546 55.3038 54.8546 55.173C54.8546 55.0436 54.8458 54.9353 54.8282 54.848C54.8106 54.7608 54.7818 54.6954 54.7417 54.6518C54.7016 54.6075 54.6478 54.5853 54.5802 54.5853C54.5127 54.5853 54.4589 54.6075 54.4188 54.6518C54.3794 54.6954 54.3509 54.7608 54.3334 54.848C54.3165 54.9353 54.308 55.0436 54.308 55.173ZM56.3422 55.173C56.3422 55.2975 56.3324 55.409 56.3127 55.5075C56.2937 55.6052 56.2634 55.6882 56.2219 55.7565C56.1804 55.8247 56.1263 55.8767 56.0595 55.9126C55.9926 55.9485 55.9118 55.9664 55.8168 55.9664C55.6979 55.9664 55.5998 55.9351 55.5224 55.8725C55.4451 55.8092 55.3877 55.7185 55.3505 55.6003C55.3132 55.4814 55.2945 55.339 55.2945 55.173C55.2945 55.007 55.3114 54.8649 55.3452 54.7467C55.3796 54.6279 55.4352 54.5368 55.5119 54.4735C55.5885 54.4102 55.6902 54.3785 55.8168 54.3785C55.9364 54.3785 56.0348 54.4102 56.1122 54.4735C56.1903 54.5361 56.248 54.6268 56.2852 54.7457C56.3232 54.8639 56.3422 55.0063 56.3422 55.173ZM55.5446 55.173C55.5446 55.3031 55.553 55.4118 55.5699 55.499C55.5875 55.5862 55.6163 55.6517 55.6564 55.6953C55.6965 55.7382 55.75 55.7596 55.8168 55.7596C55.8836 55.7596 55.9371 55.7382 55.9772 55.6953C56.0173 55.6524 56.0461 55.5873 56.0637 55.5001C56.082 55.4129 56.0911 55.3038 56.0911 55.173C56.0911 55.0436 56.0823 54.9353 56.0647 54.848C56.0472 54.7608 56.0183 54.6954 55.9782 54.6518C55.9381 54.6075 55.8843 54.5853 55.8168 54.5853C55.7493 54.5853 55.6955 54.6075 55.6554 54.6518C55.616 54.6954 55.5875 54.7608 55.5699 54.848C55.553 54.9353 55.5446 55.0436 55.5446 55.173ZM56.5364 55.288C56.5364 55.1973 56.5427 55.1079 56.5553 55.02C56.5687 54.9321 56.5912 54.8498 56.6229 54.7731C56.6545 54.6965 56.6981 54.6289 56.7537 54.5706C56.81 54.5122 56.8807 54.4665 56.9658 54.4334C57.0509 54.3996 57.1532 54.3827 57.2728 54.3827C57.3037 54.3827 57.3386 54.3842 57.3772 54.387C57.4159 54.3898 57.4479 54.3944 57.4733 54.4007V54.6064C57.4458 54.5987 57.4156 54.5927 57.3825 54.5885C57.3502 54.5843 57.3178 54.5822 57.2855 54.5822C57.156 54.5822 57.0551 54.6068 56.9827 54.656C56.9102 54.7045 56.8585 54.7714 56.8276 54.8565C56.7966 54.9409 56.7787 55.0376 56.7737 55.1466H56.7864C56.8075 55.1115 56.8339 55.0802 56.8655 55.0527C56.8972 55.0253 56.9359 55.0035 56.9816 54.9873C57.0273 54.9704 57.0804 54.962 57.1409 54.962C57.2309 54.962 57.3094 54.981 57.3762 55.019C57.443 55.0562 57.4944 55.1104 57.5302 55.1814C57.5668 55.2525 57.5851 55.3386 57.5851 55.4399C57.5851 55.549 57.5643 55.6429 57.5229 55.7216C57.4821 55.8004 57.4237 55.8609 57.3477 55.9031C57.2724 55.9453 57.1828 55.9664 57.0787 55.9664C57.002 55.9664 56.9306 55.9523 56.8645 55.9242C56.7991 55.8961 56.7417 55.8539 56.6925 55.7976C56.6433 55.7413 56.6049 55.671 56.5775 55.5866C56.5501 55.5015 56.5364 55.4019 56.5364 55.288ZM57.0744 55.7617C57.1546 55.7617 57.219 55.7357 57.2675 55.6837C57.3168 55.6309 57.3414 55.5504 57.3414 55.442C57.3414 55.3541 57.3196 55.2845 57.276 55.2331C57.2331 55.1818 57.1683 55.1561 57.0818 55.1561C57.0227 55.1561 56.971 55.1688 56.9267 55.1941C56.8824 55.2194 56.848 55.2514 56.8233 55.2901C56.7994 55.3288 56.7875 55.3682 56.7875 55.4083C56.7875 55.4491 56.7934 55.4902 56.8054 55.5317C56.8174 55.5732 56.8353 55.6116 56.8592 55.6467C56.8831 55.6812 56.913 55.709 56.9489 55.7301C56.9848 55.7512 57.0266 55.7617 57.0744 55.7617ZM58.7562 54.7552C58.7562 54.8248 58.7422 54.8853 58.714 54.9367C58.6859 54.988 58.6472 55.0302 58.598 55.0633C58.5494 55.0956 58.4932 55.1188 58.4292 55.1329V55.1403C58.5523 55.1558 58.6451 55.1945 58.7077 55.2563C58.771 55.3182 58.8027 55.4002 58.8027 55.5022C58.8027 55.5915 58.7812 55.6713 58.7383 55.7417C58.6954 55.8113 58.6296 55.8662 58.541 55.9063C58.4524 55.9464 58.3384 55.9664 58.1992 55.9664C58.1154 55.9664 58.0377 55.9597 57.966 55.9464C57.8949 55.933 57.8274 55.9116 57.7634 55.882V55.6615C57.8288 55.6939 57.8985 55.7188 57.9723 55.7364C58.0462 55.754 58.1162 55.7628 58.1823 55.7628C58.311 55.7628 58.4028 55.7389 58.4576 55.691C58.5125 55.6425 58.5399 55.5757 58.5399 55.4906C58.5399 55.4357 58.5255 55.3907 58.4967 55.3555C58.4685 55.3204 58.4246 55.294 58.3648 55.2764C58.3057 55.2588 58.2294 55.25 58.1358 55.25H57.9997V55.0506H58.1369C58.2262 55.0506 58.298 55.0401 58.3521 55.019C58.4063 54.9972 58.4453 54.9673 58.4693 54.9293C58.4939 54.8913 58.5062 54.847 58.5062 54.7963C58.5062 54.7302 58.4847 54.6789 58.4418 54.6423C58.3989 54.605 58.3353 54.5864 58.2509 54.5864C58.1988 54.5864 58.1513 54.5924 58.1084 54.6043C58.0662 54.6163 58.0272 54.6314 57.9913 54.6497C57.9554 54.668 57.9213 54.6877 57.889 54.7088L57.7697 54.5368C57.8281 54.4932 57.8978 54.4563 57.9786 54.426C58.0595 54.3958 58.1538 54.3806 58.2614 54.3806C58.4197 54.3806 58.5417 54.4148 58.6275 54.483C58.7133 54.5505 58.7562 54.6412 58.7562 54.7552ZM60.0519 55.9453H59.0073V55.7586L59.4072 55.3534C59.4846 55.2746 59.5482 55.2068 59.5982 55.1498C59.6481 55.0921 59.685 55.0376 59.709 54.9863C59.7336 54.9349 59.7459 54.879 59.7459 54.8185C59.7459 54.7439 59.7244 54.6877 59.6815 54.6497C59.6386 54.611 59.582 54.5917 59.5117 54.5917C59.4448 54.5917 59.3829 54.605 59.326 54.6317C59.2697 54.6578 59.2113 54.695 59.1508 54.7436L59.0147 54.58C59.0576 54.5435 59.1034 54.5101 59.1519 54.4798C59.2011 54.4496 59.256 54.4257 59.3165 54.4081C59.377 54.3898 59.4459 54.3806 59.5233 54.3806C59.621 54.3806 59.7054 54.3982 59.7765 54.4334C59.8475 54.4679 59.902 54.516 59.94 54.5779C59.9787 54.6398 59.9981 54.7119 59.9981 54.7942C59.9981 54.8772 59.9815 54.9539 59.9485 55.0242C59.9154 55.0946 59.8683 55.1642 59.8071 55.2331C59.7459 55.3014 59.6731 55.3756 59.5887 55.4558L59.3218 55.7164V55.728H60.0519V55.9453ZM60.7683 54.981C60.8674 54.981 60.9547 54.9989 61.0299 55.0348C61.1059 55.07 61.165 55.122 61.2072 55.1909C61.2494 55.2592 61.2705 55.3429 61.2705 55.442C61.2705 55.5504 61.2476 55.6439 61.2019 55.7227C61.1562 55.8008 61.089 55.8609 61.0004 55.9031C60.9117 55.9453 60.8038 55.9664 60.6765 55.9664C60.5956 55.9664 60.52 55.9594 60.4496 55.9453C60.38 55.9312 60.3199 55.9101 60.2692 55.882V55.6583C60.322 55.6879 60.3853 55.7121 60.4591 55.7311C60.533 55.7494 60.6037 55.7586 60.6712 55.7586C60.7429 55.7586 60.8045 55.748 60.8558 55.7269C60.9072 55.7058 60.9466 55.6735 60.974 55.6298C61.0021 55.5862 61.0162 55.531 61.0162 55.4642C61.0162 55.3756 60.9877 55.3073 60.9307 55.2595C60.8745 55.211 60.7862 55.1867 60.6659 55.1867C60.6237 55.1867 60.5787 55.1906 60.5309 55.1983C60.4837 55.2054 60.4443 55.2131 60.4127 55.2215L60.304 55.1572L60.3621 54.4028H61.1639V54.6212H60.5805L60.5467 55.0052C60.572 54.9996 60.6023 54.9943 60.6374 54.9894C60.6726 54.9838 60.7162 54.981 60.7683 54.981Z" fill="black"/>
<rect x="23.5293" y="12" width="20.7861" height="59.4268" rx="3.78138" fill="#F6F6F6"/>
<rect x="23.5283" y="51.2578" width="20.7976" height="20.2574" rx="3.78138" fill="#06B6F6"/>
<rect x="27.3135" y="49.1016" width="13.3078" height="4.37517" rx="2.18759" fill="white"/>
<path d="M30.6152 51.6406H29.5707V51.4539L29.9706 51.0487C30.0479 50.9699 30.1116 50.9021 30.1615 50.8451C30.2115 50.7874 30.2484 50.7329 30.2723 50.6816C30.2969 50.6302 30.3093 50.5743 30.3093 50.5138C30.3093 50.4392 30.2878 50.383 30.2449 50.345C30.202 50.3063 30.1454 50.287 30.075 50.287C30.0082 50.287 29.9463 50.3003 29.8893 50.3271C29.8331 50.3531 29.7747 50.3904 29.7142 50.4389L29.5781 50.2754C29.621 50.2388 29.6667 50.2054 29.7152 50.1751C29.7645 50.1449 29.8193 50.121 29.8798 50.1034C29.9403 50.0851 30.0093 50.076 30.0866 50.076C30.1844 50.076 30.2688 50.0935 30.3398 50.1287C30.4109 50.1632 30.4654 50.2114 30.5034 50.2732C30.5421 50.3351 30.5614 50.4072 30.5614 50.4895C30.5614 50.5725 30.5449 50.6492 30.5118 50.7195C30.4788 50.7899 30.4316 50.8595 30.3704 50.9285C30.3093 50.9967 30.2365 51.0709 30.152 51.1511L29.8851 51.4117V51.4233H30.6152V51.6406ZM31.8518 50.8683C31.8518 50.9928 31.8419 51.1043 31.8222 51.2028C31.8032 51.3005 31.773 51.3835 31.7315 51.4518C31.69 51.52 31.6358 51.572 31.569 51.6079C31.5022 51.6438 31.4213 51.6617 31.3263 51.6617C31.2075 51.6617 31.1093 51.6304 31.032 51.5678C30.9546 51.5045 30.8973 51.4138 30.86 51.2956C30.8227 51.1767 30.8041 51.0343 30.8041 50.8683C30.8041 50.7023 30.821 50.5602 30.8547 50.4421C30.8892 50.3232 30.9448 50.2321 31.0214 50.1688C31.0981 50.1055 31.1997 50.0738 31.3263 50.0738C31.4459 50.0738 31.5444 50.1055 31.6218 50.1688C31.6998 50.2314 31.7575 50.3221 31.7948 50.441C31.8328 50.5592 31.8518 50.7016 31.8518 50.8683ZM31.0541 50.8683C31.0541 50.9984 31.0626 51.1071 31.0795 51.1943C31.097 51.2815 31.1259 51.347 31.166 51.3906C31.2061 51.4335 31.2595 51.4549 31.3263 51.4549C31.3932 51.4549 31.4466 51.4335 31.4867 51.3906C31.5268 51.3477 31.5556 51.2826 31.5732 51.1954C31.5915 51.1082 31.6007 50.9991 31.6007 50.8683C31.6007 50.7389 31.5919 50.6306 31.5743 50.5433C31.5567 50.4561 31.5279 50.3907 31.4878 50.3471C31.4477 50.3028 31.3939 50.2806 31.3263 50.2806C31.2588 50.2806 31.205 50.3028 31.1649 50.3471C31.1255 50.3907 31.097 50.4561 31.0795 50.5433C31.0626 50.6306 31.0541 50.7389 31.0541 50.8683ZM33.0883 50.8683C33.0883 50.9928 33.0785 51.1043 33.0588 51.2028C33.0398 51.3005 33.0095 51.3835 32.968 51.4518C32.9265 51.52 32.8724 51.572 32.8056 51.6079C32.7387 51.6438 32.6578 51.6617 32.5629 51.6617C32.444 51.6617 32.3459 51.6304 32.2685 51.5678C32.1912 51.5045 32.1338 51.4138 32.0965 51.2956C32.0593 51.1767 32.0406 51.0343 32.0406 50.8683C32.0406 50.7023 32.0575 50.5602 32.0913 50.4421C32.1257 50.3232 32.1813 50.2321 32.258 50.1688C32.3346 50.1055 32.4363 50.0738 32.5629 50.0738C32.6825 50.0738 32.7809 50.1055 32.8583 50.1688C32.9364 50.2314 32.9941 50.3221 33.0313 50.441C33.0693 50.5592 33.0883 50.7016 33.0883 50.8683ZM32.2907 50.8683C32.2907 50.9984 32.2991 51.1071 32.316 51.1943C32.3336 51.2815 32.3624 51.347 32.4025 51.3906C32.4426 51.4335 32.4961 51.4549 32.5629 51.4549C32.6297 51.4549 32.6832 51.4335 32.7233 51.3906C32.7634 51.3477 32.7922 51.2826 32.8098 51.1954C32.8281 51.1082 32.8372 50.9991 32.8372 50.8683C32.8372 50.7389 32.8284 50.6306 32.8108 50.5433C32.7932 50.4561 32.7644 50.3907 32.7243 50.3471C32.6842 50.3028 32.6304 50.2806 32.5629 50.2806C32.4954 50.2806 32.4416 50.3028 32.4015 50.3471C32.3621 50.3907 32.3336 50.4561 32.316 50.5433C32.2991 50.6306 32.2907 50.7389 32.2907 50.8683ZM33.2824 50.9833C33.2824 50.8926 33.2888 50.8032 33.3014 50.7153C33.3148 50.6274 33.3373 50.5451 33.369 50.4684C33.4006 50.3918 33.4442 50.3242 33.4998 50.2659C33.5561 50.2075 33.6268 50.1618 33.7119 50.1287C33.797 50.0949 33.8993 50.0781 34.0189 50.0781C34.0498 50.0781 34.0847 50.0795 34.1233 50.0823C34.162 50.0851 34.194 50.0897 34.2194 50.096V50.3017C34.1919 50.294 34.1617 50.288 34.1286 50.2838C34.0963 50.2796 34.0639 50.2775 34.0316 50.2775C33.9021 50.2775 33.8012 50.3021 33.7287 50.3513C33.6563 50.3999 33.6046 50.4667 33.5737 50.5518C33.5427 50.6362 33.5248 50.7329 33.5198 50.8419H33.5325C33.5536 50.8068 33.58 50.7755 33.6116 50.748C33.6433 50.7206 33.682 50.6988 33.7277 50.6826C33.7734 50.6657 33.8265 50.6573 33.887 50.6573C33.977 50.6573 34.0555 50.6763 34.1223 50.7143C34.1891 50.7515 34.2405 50.8057 34.2763 50.8768C34.3129 50.9478 34.3312 51.034 34.3312 51.1352C34.3312 51.2443 34.3104 51.3382 34.2689 51.4169C34.2281 51.4957 34.1698 51.5562 34.0938 51.5984C34.0185 51.6406 33.9289 51.6617 33.8248 51.6617C33.7481 51.6617 33.6767 51.6477 33.6106 51.6195C33.5452 51.5914 33.4878 51.5492 33.4386 51.4929C33.3894 51.4366 33.351 51.3663 33.3236 51.2819C33.2962 51.1968 33.2824 51.0973 33.2824 50.9833ZM33.8205 51.457C33.9007 51.457 33.9651 51.431 34.0136 51.379C34.0629 51.3262 34.0875 51.2457 34.0875 51.1374C34.0875 51.0494 34.0657 50.9798 34.0221 50.9285C33.9792 50.8771 33.9144 50.8514 33.8279 50.8514C33.7688 50.8514 33.7171 50.8641 33.6728 50.8894C33.6285 50.9147 33.594 50.9467 33.5694 50.9854C33.5455 51.0241 33.5336 51.0635 33.5336 51.1036C33.5336 51.1444 33.5395 51.1855 33.5515 51.227C33.5635 51.2685 33.5814 51.3069 33.6053 51.342C33.6292 51.3765 33.6591 51.4043 33.695 51.4254C33.7309 51.4465 33.7727 51.457 33.8205 51.457ZM35.5023 50.4505C35.5023 50.5201 35.4883 50.5806 35.4601 50.632C35.432 50.6833 35.3933 50.7255 35.3441 50.7586C35.2955 50.7909 35.2393 50.8142 35.1753 50.8282V50.8356C35.2983 50.8511 35.3912 50.8898 35.4538 50.9517C35.5171 51.0136 35.5487 51.0955 35.5487 51.1975C35.5487 51.2868 35.5273 51.3667 35.4844 51.437C35.4415 51.5066 35.3757 51.5615 35.2871 51.6016C35.1985 51.6417 35.0845 51.6617 34.9452 51.6617C34.8615 51.6617 34.7838 51.655 34.7121 51.6417C34.641 51.6283 34.5735 51.6069 34.5095 51.5773V51.3568C34.5749 51.3892 34.6446 51.4141 34.7184 51.4317C34.7923 51.4493 34.8622 51.4581 34.9284 51.4581C35.0571 51.4581 35.1489 51.4342 35.2037 51.3864C35.2586 51.3378 35.286 51.271 35.286 51.1859C35.286 51.131 35.2716 51.086 35.2428 51.0508C35.2146 51.0157 35.1707 50.9893 35.1109 50.9717C35.0518 50.9541 34.9755 50.9453 34.8819 50.9453H34.7458V50.7459H34.883C34.9723 50.7459 35.0441 50.7354 35.0982 50.7143C35.1524 50.6925 35.1914 50.6626 35.2153 50.6246C35.24 50.5866 35.2523 50.5423 35.2523 50.4916C35.2523 50.4255 35.2308 50.3742 35.1879 50.3376C35.145 50.3003 35.0814 50.2817 34.9969 50.2817C34.9449 50.2817 34.8974 50.2877 34.8545 50.2996C34.8123 50.3116 34.7733 50.3267 34.7374 50.345C34.7015 50.3633 34.6674 50.383 34.6351 50.4041L34.5158 50.2321C34.5742 50.1885 34.6438 50.1516 34.7247 50.1213C34.8056 50.0911 34.8999 50.076 35.0075 50.076C35.1658 50.076 35.2878 50.1101 35.3736 50.1783C35.4594 50.2458 35.5023 50.3366 35.5023 50.4505ZM36.798 51.6406H35.7534V51.4539L36.1533 51.0487C36.2307 50.9699 36.2943 50.9021 36.3443 50.8451C36.3942 50.7874 36.4311 50.7329 36.4551 50.6816C36.4797 50.6302 36.492 50.5743 36.492 50.5138C36.492 50.4392 36.4705 50.383 36.4276 50.345C36.3847 50.3063 36.3281 50.287 36.2578 50.287C36.1909 50.287 36.129 50.3003 36.0721 50.3271C36.0158 50.3531 35.9574 50.3904 35.8969 50.4389L35.7608 50.2754C35.8037 50.2388 35.8494 50.2054 35.898 50.1751C35.9472 50.1449 36.0021 50.121 36.0626 50.1034C36.1231 50.0851 36.192 50.076 36.2694 50.076C36.3671 50.076 36.4515 50.0935 36.5226 50.1287C36.5936 50.1632 36.6481 50.2114 36.6861 50.2732C36.7248 50.3351 36.7441 50.4072 36.7441 50.4895C36.7441 50.5725 36.7276 50.6492 36.6946 50.7195C36.6615 50.7899 36.6144 50.8595 36.5532 50.9285C36.492 50.9967 36.4192 51.0709 36.3348 51.1511L36.0678 51.4117V51.4233H36.798V51.6406ZM37.5144 50.6763C37.6135 50.6763 37.7007 50.6942 37.776 50.7301C37.852 50.7653 37.9111 50.8173 37.9533 50.8862C37.9955 50.9545 38.0166 51.0382 38.0166 51.1374C38.0166 51.2457 37.9937 51.3392 37.948 51.418C37.9023 51.4961 37.8351 51.5562 37.7465 51.5984C37.6578 51.6406 37.5499 51.6617 37.4226 51.6617C37.3417 51.6617 37.2661 51.6547 37.1957 51.6406C37.1261 51.6266 37.0659 51.6055 37.0153 51.5773V51.3536C37.0681 51.3832 37.1314 51.4075 37.2052 51.4264C37.2791 51.4447 37.3498 51.4539 37.4173 51.4539C37.489 51.4539 37.5506 51.4433 37.6019 51.4222C37.6533 51.4011 37.6927 51.3688 37.7201 51.3252C37.7482 51.2815 37.7623 51.2263 37.7623 51.1595C37.7623 51.0709 37.7338 51.0027 37.6768 50.9548C37.6206 50.9063 37.5323 50.882 37.412 50.882C37.3698 50.882 37.3248 50.8859 37.277 50.8936C37.2298 50.9007 37.1904 50.9084 37.1588 50.9168L37.0501 50.8525L37.1081 50.0981H37.91V50.3165H37.3265L37.2928 50.7006C37.3181 50.6949 37.3484 50.6897 37.3835 50.6847C37.4187 50.6791 37.4623 50.6763 37.5144 50.6763Z" fill="black"/>
<path d="M26.9522 81.4141V80.1127H27.1658V81.4141H26.9522ZM28.0016 80.41C28.1126 80.41 28.1989 80.4388 28.2606 80.4963C28.323 80.5533 28.3541 80.645 28.3541 80.7714V81.4141H28.1449V80.8106C28.1449 80.734 28.1292 80.6767 28.0978 80.6388C28.0663 80.6002 28.0176 80.5809 27.9518 80.5809C27.8562 80.5809 27.7898 80.6103 27.7524 80.669C27.7156 80.7278 27.6972 80.8129 27.6972 80.9245V81.4141H27.488V80.4287H27.6509L27.6803 80.5622H27.6919C27.7132 80.5278 27.7396 80.4996 27.7711 80.4776C27.8031 80.4551 27.8387 80.4382 27.8779 80.4269C27.9177 80.4156 27.9589 80.41 28.0016 80.41ZM29.044 81.4319C28.9508 81.4319 28.8701 81.4138 28.8018 81.3776C28.7336 81.3414 28.6811 81.2859 28.6443 81.2111C28.6075 81.1363 28.5891 81.0414 28.5891 80.9263C28.5891 80.8064 28.6093 80.7085 28.6496 80.6325C28.69 80.5566 28.7458 80.5005 28.817 80.4643C28.8888 80.4281 28.971 80.41 29.0635 80.41C29.1223 80.41 29.1754 80.4159 29.2229 80.4278C29.2709 80.4391 29.3116 80.453 29.3448 80.4696L29.2825 80.637C29.2463 80.6221 29.2092 80.6097 29.1713 80.5996C29.1333 80.5895 29.0968 80.5845 29.0618 80.5845C29.0042 80.5845 28.9561 80.5972 28.9176 80.6227C28.8796 80.6483 28.8511 80.6862 28.8321 80.7367C28.8137 80.7871 28.8045 80.8497 28.8045 80.9245C28.8045 80.9969 28.814 81.058 28.833 81.1079C28.852 81.1571 28.8802 81.1945 28.9176 81.22C28.9549 81.2449 29.0009 81.2574 29.0555 81.2574C29.1095 81.2574 29.1579 81.2509 29.2006 81.2378C29.2434 81.2248 29.2837 81.2078 29.3217 81.1871V81.3687C29.2843 81.39 29.2442 81.4058 29.2015 81.4158C29.1588 81.4265 29.1063 81.4319 29.044 81.4319ZM30.4254 80.9191C30.4254 81.001 30.4148 81.0737 30.3934 81.1372C30.372 81.2007 30.3409 81.2544 30.2999 81.2983C30.259 81.3417 30.2097 81.3749 30.1522 81.398C30.0946 81.4206 30.0296 81.4319 29.9572 81.4319C29.8896 81.4319 29.8276 81.4206 29.7712 81.398C29.7148 81.3749 29.6659 81.3417 29.6243 81.2983C29.5834 81.2544 29.5516 81.2007 29.5291 81.1372C29.5065 81.0737 29.4953 81.001 29.4953 80.9191C29.4953 80.8106 29.514 80.7186 29.5513 80.6432C29.5893 80.5673 29.6433 80.5094 29.7133 80.4696C29.7834 80.4299 29.8667 80.41 29.9635 80.41C30.0543 80.41 30.1344 80.4299 30.2038 80.4696C30.2732 80.5094 30.3275 80.5673 30.3667 80.6432C30.4059 80.7192 30.4254 80.8111 30.4254 80.9191ZM29.7107 80.9191C29.7107 80.991 29.7193 81.0524 29.7365 81.1034C29.7543 81.1544 29.7816 81.1936 29.8184 81.2209C29.8552 81.2476 29.9026 81.261 29.9608 81.261C30.019 81.261 30.0664 81.2476 30.1032 81.2209C30.14 81.1936 30.167 81.1544 30.1842 81.1034C30.2014 81.0524 30.21 80.991 30.21 80.9191C30.21 80.8473 30.2014 80.7865 30.1842 80.7367C30.167 80.6862 30.14 80.648 30.1032 80.6218C30.0664 80.5951 30.0187 80.5818 29.9599 80.5818C29.8733 80.5818 29.8101 80.6109 29.7703 80.669C29.7306 80.7272 29.7107 80.8106 29.7107 80.9191ZM31.7793 80.41C31.8897 80.41 31.9728 80.4385 32.0286 80.4954C32.0849 80.5524 32.1131 80.6438 32.1131 80.7696V81.4141H31.904V80.807C31.904 80.7322 31.8894 80.6758 31.8603 80.6379C31.8313 80.5999 31.787 80.5809 31.7277 80.5809C31.6446 80.5809 31.5847 80.6076 31.5479 80.661C31.5117 80.7138 31.4936 80.7907 31.4936 80.8916V81.4141H31.2844V80.807C31.2844 80.7571 31.2779 80.7156 31.2648 80.6824C31.2524 80.6485 31.2331 80.6233 31.207 80.6067C31.1809 80.5895 31.1479 80.5809 31.1082 80.5809C31.0506 80.5809 31.0046 80.594 30.9702 80.6201C30.9364 80.6462 30.9121 80.6847 30.8972 80.7358C30.8824 80.7862 30.875 80.8482 30.875 80.9218V81.4141H30.6658V80.4287H30.8287L30.858 80.5613H30.8696C30.8898 80.5269 30.9147 80.4987 30.9444 80.4768C30.9747 80.4542 31.0082 80.4376 31.045 80.4269C31.0818 80.4156 31.12 80.41 31.1598 80.41C31.2334 80.41 31.2954 80.423 31.3458 80.4492C31.3963 80.4747 31.434 80.5138 31.4589 80.5667H31.4749C31.5058 80.5132 31.5488 80.4738 31.604 80.4483C31.6592 80.4228 31.7176 80.41 31.7793 80.41ZM32.6143 80.4287V81.4141H32.4051V80.4287H32.6143ZM32.511 80.0513C32.5431 80.0513 32.5707 80.0599 32.5938 80.0771C32.6175 80.0943 32.6294 80.124 32.6294 80.1661C32.6294 80.2076 32.6175 80.2373 32.5938 80.2551C32.5707 80.2723 32.5431 80.2809 32.511 80.2809C32.4778 80.2809 32.4496 80.2723 32.4265 80.2551C32.4039 80.2373 32.3926 80.2076 32.3926 80.1661C32.3926 80.124 32.4039 80.0943 32.4265 80.0771C32.4496 80.0599 32.4778 80.0513 32.511 80.0513ZM33.4279 80.41C33.5388 80.41 33.6252 80.4388 33.6869 80.4963C33.7492 80.5533 33.7803 80.645 33.7803 80.7714V81.4141H33.5712V80.8106C33.5712 80.734 33.5554 80.6767 33.524 80.6388C33.4925 80.6002 33.4439 80.5809 33.378 80.5809C33.2825 80.5809 33.216 80.6103 33.1786 80.669C33.1418 80.7278 33.1234 80.8129 33.1234 80.9245V81.4141H32.9143V80.4287H33.0771L33.1065 80.5622H33.1181C33.1395 80.5278 33.1659 80.4996 33.1973 80.4776C33.2294 80.4551 33.265 80.4382 33.3041 80.4269C33.3439 80.4156 33.3851 80.41 33.4279 80.41ZM34.3545 81.852C34.221 81.852 34.1186 81.828 34.0474 81.7799C33.9762 81.7318 33.9406 81.6645 33.9406 81.5778C33.9406 81.5173 33.9596 81.466 33.9975 81.4239C34.0355 81.3823 34.0898 81.3535 34.1604 81.3375C34.1337 81.3256 34.1106 81.3072 34.091 81.2823C34.072 81.2568 34.0625 81.2286 34.0625 81.1978C34.0625 81.161 34.0729 81.1295 34.0937 81.1034C34.1144 81.0773 34.1456 81.0521 34.1871 81.0277C34.1355 81.0058 34.094 80.9702 34.0625 80.9209C34.0317 80.8711 34.0162 80.8126 34.0162 80.7456C34.0162 80.6744 34.0314 80.6138 34.0616 80.564C34.0919 80.5135 34.1361 80.4753 34.1943 80.4492C34.2524 80.4225 34.3227 80.4091 34.4052 80.4091C34.423 80.4091 34.4423 80.4103 34.4631 80.4127C34.4844 80.4144 34.504 80.4168 34.5218 80.4198C34.5402 80.4222 34.5542 80.4248 34.5637 80.4278H34.9046V80.5444L34.7372 80.5756C34.7533 80.5981 34.766 80.6239 34.7755 80.653C34.785 80.6815 34.7898 80.7126 34.7898 80.7465C34.7898 80.8485 34.7545 80.9289 34.6838 80.9877C34.6138 81.0458 34.5171 81.0749 34.3937 81.0749C34.364 81.0737 34.3352 81.0714 34.3073 81.0678C34.2859 81.0809 34.2696 81.0954 34.2584 81.1114C34.2471 81.1268 34.2414 81.1444 34.2414 81.1639C34.2414 81.18 34.2471 81.193 34.2584 81.2031C34.2696 81.2126 34.2862 81.2197 34.3082 81.2245C34.3307 81.2292 34.358 81.2316 34.3901 81.2316H34.5601C34.6681 81.2316 34.7506 81.2544 34.8076 81.3001C34.8645 81.3458 34.893 81.4129 34.893 81.5013C34.893 81.6135 34.8467 81.6998 34.7542 81.7603C34.6616 81.8214 34.5284 81.852 34.3545 81.852ZM34.3625 81.7051C34.4355 81.7051 34.4969 81.698 34.5468 81.6838C34.5966 81.6695 34.6343 81.6491 34.6598 81.6224C34.6853 81.5962 34.6981 81.5651 34.6981 81.5289C34.6981 81.4968 34.6901 81.4722 34.674 81.455C34.658 81.4378 34.634 81.4259 34.6019 81.4194C34.5699 81.4129 34.5301 81.4096 34.4827 81.4096H34.3278C34.2892 81.4096 34.2551 81.4155 34.2254 81.4274C34.1957 81.4399 34.1726 81.4577 34.156 81.4808C34.14 81.504 34.132 81.5319 34.132 81.5645C34.132 81.6096 34.1518 81.6443 34.1916 81.6686C34.2319 81.693 34.2889 81.7051 34.3625 81.7051ZM34.4034 80.9378C34.4646 80.9378 34.51 80.9212 34.5396 80.888C34.5693 80.8542 34.5841 80.8067 34.5841 80.7456C34.5841 80.6791 34.5687 80.6293 34.5379 80.596C34.5076 80.5628 34.4625 80.5462 34.4026 80.5462C34.3438 80.5462 34.299 80.5631 34.2681 80.5969C34.2379 80.6307 34.2227 80.6809 34.2227 80.7474C34.2227 80.8073 34.2379 80.8542 34.2681 80.888C34.299 80.9212 34.3441 80.9378 34.4034 80.9378ZM36.3858 81.4141L36.2585 81.0527H35.7609L35.6336 81.4141H35.4084L35.8926 80.1074H36.1294L36.6127 81.4141H36.3858ZM36.2033 80.8693L36.0796 80.5132C36.0748 80.4978 36.068 80.4762 36.0591 80.4483C36.0502 80.4198 36.0413 80.391 36.0324 80.3619C36.0235 80.3323 36.0161 80.3073 36.0101 80.2872C36.0042 80.3115 35.9968 80.3388 35.9879 80.369C35.9796 80.3987 35.9713 80.4266 35.963 80.4527C35.9552 80.4788 35.9493 80.499 35.9451 80.5132L35.8205 80.8693H36.2033ZM36.9884 81.4141L36.6136 80.4287H36.8353L37.0382 81.0073C37.0513 81.0441 37.0632 81.0838 37.0738 81.1266C37.0845 81.1693 37.0919 81.2052 37.0961 81.2343H37.1032C37.1074 81.204 37.1154 81.1678 37.1272 81.1257C37.1391 81.0829 37.1513 81.0435 37.1637 81.0073L37.3667 80.4287H37.5874L37.2127 81.4141H36.9884ZM38.1295 80.41C38.2174 80.41 38.2927 80.4281 38.3556 80.4643C38.4185 80.5005 38.4669 80.5518 38.5007 80.6183C38.5345 80.6847 38.5515 80.7643 38.5515 80.8568V80.969H37.8936C37.896 81.0645 37.9215 81.1381 37.9702 81.1897C38.0195 81.2414 38.0883 81.2672 38.1767 81.2672C38.2396 81.2672 38.296 81.2613 38.3458 81.2494C38.3963 81.2369 38.4482 81.2188 38.5016 81.1951V81.3651C38.4524 81.3882 38.4022 81.4052 38.3512 81.4158C38.3001 81.4265 38.239 81.4319 38.1678 81.4319C38.0711 81.4319 37.9859 81.4132 37.9123 81.3758C37.8393 81.3378 37.7821 81.2814 37.7405 81.2067C37.6996 81.1319 37.6791 81.039 37.6791 80.9281C37.6791 80.8177 37.6978 80.7239 37.7352 80.6468C37.7726 80.5696 37.8251 80.5109 37.8928 80.4705C37.9604 80.4302 38.0393 80.41 38.1295 80.41ZM38.1295 80.5675C38.0637 80.5675 38.0103 80.5889 37.9693 80.6316C37.929 80.6744 37.9052 80.737 37.8981 80.8195H38.3467C38.3461 80.7702 38.3378 80.7266 38.3218 80.6886C38.3064 80.6506 38.2826 80.621 38.2506 80.5996C38.2191 80.5782 38.1788 80.5675 38.1295 80.5675ZM39.2867 80.41C39.3033 80.41 39.3214 80.4109 39.341 80.4127C39.3606 80.4144 39.3775 80.4168 39.3917 80.4198L39.3722 80.6156C39.3597 80.6121 39.3443 80.6094 39.3259 80.6076C39.3081 80.6058 39.292 80.6049 39.2778 80.6049C39.2404 80.6049 39.2048 80.6112 39.171 80.6236C39.1372 80.6355 39.1072 80.6539 39.0811 80.6788C39.055 80.7031 39.0345 80.7337 39.0197 80.7705C39.0048 80.8073 38.9974 80.85 38.9974 80.8987V81.4141H38.7873V80.4287H38.9511L38.9796 80.6023H38.9894C39.009 80.5673 39.0333 80.5352 39.0624 80.5061C39.0915 80.4771 39.1247 80.4539 39.1621 80.4367C39.2001 80.4189 39.2416 80.41 39.2867 80.41ZM39.9605 80.41C40.0851 80.41 40.1792 80.4376 40.2427 80.4928C40.3068 80.548 40.3388 80.634 40.3388 80.7509V81.4141H40.1902L40.1501 81.2743H40.143C40.1151 81.3099 40.0863 81.3393 40.0567 81.3624C40.027 81.3856 39.9926 81.4028 39.9534 81.4141C39.9148 81.4259 39.8677 81.4319 39.8119 81.4319C39.7531 81.4319 39.7006 81.4212 39.6543 81.3998C39.608 81.3779 39.5715 81.3446 39.5448 81.3001C39.5181 81.2556 39.5048 81.1992 39.5048 81.131C39.5048 81.0295 39.5425 80.9533 39.6178 80.9022C39.6938 80.8512 39.8083 80.823 39.9614 80.8177L40.1323 80.8114V80.7598C40.1323 80.6916 40.1163 80.6429 40.0843 80.6138C40.0528 80.5848 40.0083 80.5702 39.9507 80.5702C39.9015 80.5702 39.8537 80.5773 39.8074 80.5916C39.7611 80.6058 39.716 80.6233 39.6721 80.6441L39.6045 80.4963C39.6525 80.4708 39.7071 80.4501 39.7683 80.434C39.83 80.418 39.8941 80.41 39.9605 80.41ZM40.1314 80.9432L40.0041 80.9476C39.8997 80.9512 39.8264 80.969 39.7843 81.001C39.7422 81.0331 39.7211 81.077 39.7211 81.1328C39.7211 81.1814 39.7356 81.217 39.7647 81.2396C39.7938 81.2616 39.8321 81.2725 39.8795 81.2725C39.9519 81.2725 40.0119 81.2521 40.0593 81.2111C40.1074 81.1696 40.1314 81.1087 40.1314 81.0286V80.9432ZM40.913 81.852C40.7795 81.852 40.6771 81.828 40.6059 81.7799C40.5347 81.7318 40.4991 81.6645 40.4991 81.5778C40.4991 81.5173 40.518 81.466 40.556 81.4239C40.594 81.3823 40.6483 81.3535 40.7189 81.3375C40.6922 81.3256 40.6691 81.3072 40.6495 81.2823C40.6305 81.2568 40.621 81.2286 40.621 81.1978C40.621 81.161 40.6314 81.1295 40.6522 81.1034C40.6729 81.0773 40.7041 81.0521 40.7456 81.0277C40.694 81.0058 40.6525 80.9702 40.621 80.9209C40.5901 80.8711 40.5747 80.8126 40.5747 80.7456C40.5747 80.6744 40.5899 80.6138 40.6201 80.564C40.6504 80.5135 40.6946 80.4753 40.7527 80.4492C40.8109 80.4225 40.8812 80.4091 40.9637 80.4091C40.9815 80.4091 41.0008 80.4103 41.0216 80.4127C41.0429 80.4144 41.0625 80.4168 41.0803 80.4198C41.0987 80.4222 41.1127 80.4248 41.1222 80.4278H41.4631V80.5444L41.2957 80.5756C41.3117 80.5981 41.3245 80.6239 41.334 80.653C41.3435 80.6815 41.3482 80.7126 41.3482 80.7465C41.3482 80.8485 41.3129 80.9289 41.2423 80.9877C41.1723 81.0458 41.0756 81.0749 40.9521 81.0749C40.9225 81.0737 40.8937 81.0714 40.8658 81.0678C40.8444 81.0809 40.8281 81.0954 40.8168 81.1114C40.8056 81.1268 40.7999 81.1444 40.7999 81.1639C40.7999 81.18 40.8056 81.193 40.8168 81.2031C40.8281 81.2126 40.8447 81.2197 40.8667 81.2245C40.8892 81.2292 40.9165 81.2316 40.9486 81.2316H41.1186C41.2266 81.2316 41.3091 81.2544 41.366 81.3001C41.423 81.3458 41.4515 81.4129 41.4515 81.5013C41.4515 81.6135 41.4052 81.6998 41.3126 81.7603C41.2201 81.8214 41.0868 81.852 40.913 81.852ZM40.921 81.7051C40.994 81.7051 41.0554 81.698 41.1052 81.6838C41.1551 81.6695 41.1928 81.6491 41.2183 81.6224C41.2438 81.5962 41.2566 81.5651 41.2566 81.5289C41.2566 81.4968 41.2485 81.4722 41.2325 81.455C41.2165 81.4378 41.1925 81.4259 41.1604 81.4194C41.1284 81.4129 41.0886 81.4096 41.0411 81.4096H40.8863C40.8477 81.4096 40.8136 81.4155 40.7839 81.4274C40.7542 81.4399 40.7311 81.4577 40.7145 81.4808C40.6984 81.504 40.6904 81.5319 40.6904 81.5645C40.6904 81.6096 40.7103 81.6443 40.7501 81.6686C40.7904 81.693 40.8474 81.7051 40.921 81.7051ZM40.9619 80.9378C41.023 80.9378 41.0684 80.9212 41.0981 80.888C41.1278 80.8542 41.1426 80.8067 41.1426 80.7456C41.1426 80.6791 41.1272 80.6293 41.0963 80.596C41.0661 80.5628 41.021 80.5462 40.961 80.5462C40.9023 80.5462 40.8575 80.5631 40.8266 80.5969C40.7964 80.6307 40.7812 80.6809 40.7812 80.7474C40.7812 80.8073 40.7964 80.8542 40.8266 80.888C40.8575 80.9212 40.9026 80.9378 40.9619 80.9378ZM42.0354 80.41C42.1233 80.41 42.1986 80.4281 42.2615 80.4643C42.3244 80.5005 42.3728 80.5518 42.4066 80.6183C42.4404 80.6847 42.4573 80.7643 42.4573 80.8568V80.969H41.7995C41.8019 81.0645 41.8274 81.1381 41.8761 81.1897C41.9253 81.2414 41.9942 81.2672 42.0826 81.2672C42.1455 81.2672 42.2019 81.2613 42.2517 81.2494C42.3022 81.2369 42.3541 81.2188 42.4075 81.1951V81.3651C42.3582 81.3882 42.3081 81.4052 42.2571 81.4158C42.206 81.4265 42.1449 81.4319 42.0737 81.4319C41.977 81.4319 41.8918 81.4132 41.8182 81.3758C41.7452 81.3378 41.688 81.2814 41.6464 81.2067C41.6055 81.1319 41.585 81.039 41.585 80.9281C41.585 80.8177 41.6037 80.7239 41.6411 80.6468C41.6785 80.5696 41.731 80.5109 41.7986 80.4705C41.8663 80.4302 41.9452 80.41 42.0354 80.41ZM42.0354 80.5675C41.9696 80.5675 41.9161 80.5889 41.8752 80.6316C41.8348 80.6744 41.8111 80.737 41.804 80.8195H42.2526C42.252 80.7702 42.2437 80.7266 42.2277 80.6886C42.2123 80.6506 42.1885 80.621 42.1565 80.5996C42.125 80.5782 42.0847 80.5675 42.0354 80.5675Z" fill="#626262"/>
<circle cx="24.0804" cy="80.764" r="1.0804" fill="#06B6F6"/>
<path d="M53.4757 80.7616C53.4757 80.8619 53.463 80.9533 53.4374 81.0358C53.4125 81.1176 53.3748 81.1883 53.3244 81.2476C53.2739 81.3064 53.2107 81.3518 53.1348 81.3838C53.0588 81.4158 52.9698 81.4319 52.8677 81.4319C52.7639 81.4319 52.6737 81.4158 52.5971 81.3838C52.5212 81.3518 52.458 81.3061 52.4076 81.2467C52.3577 81.1874 52.3203 81.1165 52.2954 81.034C52.2705 80.9515 52.258 80.8601 52.258 80.7598C52.258 80.6257 52.28 80.5088 52.3239 80.4091C52.3684 80.3088 52.4357 80.2311 52.5259 80.1759C52.6167 80.1201 52.7313 80.0922 52.8695 80.0922C53.0048 80.0922 53.1173 80.1198 53.2069 80.175C53.2965 80.2302 53.3636 80.3079 53.4081 80.4082C53.4532 80.5079 53.4757 80.6257 53.4757 80.7616ZM52.4823 80.7616C52.4823 80.8619 52.496 80.9488 52.5233 81.0224C52.5506 81.0954 52.5924 81.1518 52.6488 81.1915C52.7057 81.2307 52.7787 81.2503 52.8677 81.2503C52.9574 81.2503 53.0303 81.2307 53.0867 81.1915C53.1431 81.1518 53.1846 81.0954 53.2113 81.0224C53.238 80.9488 53.2514 80.8619 53.2514 80.7616C53.2514 80.6091 53.2208 80.4898 53.1597 80.4038C53.0992 80.3171 53.0025 80.2738 52.8695 80.2738C52.7805 80.2738 52.7072 80.2934 52.6497 80.3326C52.5927 80.3717 52.5506 80.4278 52.5233 80.5008C52.496 80.5732 52.4823 80.6601 52.4823 80.7616ZM54.5928 80.4287V81.4141H54.4281L54.3997 81.2814H54.3881C54.3673 81.3153 54.3409 81.3434 54.3089 81.366C54.2768 81.388 54.2412 81.4043 54.2021 81.415C54.1629 81.4262 54.1216 81.4319 54.0783 81.4319C54.0042 81.4319 53.9407 81.4194 53.8878 81.3945C53.8356 81.369 53.7956 81.3298 53.7677 81.277C53.7398 81.2242 53.7258 81.1559 53.7258 81.0723V80.4287H53.9359V81.0331C53.9359 81.1096 53.9513 81.1669 53.9822 81.2049C54.0136 81.2429 54.0623 81.2619 54.1282 81.2619C54.1917 81.2619 54.2421 81.2488 54.2795 81.2227C54.3169 81.1966 54.3433 81.158 54.3587 81.107C54.3747 81.0559 54.3828 80.9933 54.3828 80.9191V80.4287H54.5928ZM55.2595 81.2627C55.2868 81.2627 55.3138 81.2604 55.3405 81.2556C55.3672 81.2503 55.3916 81.244 55.4135 81.2369V81.3954C55.3904 81.4055 55.3604 81.4141 55.3236 81.4212C55.2868 81.4283 55.2486 81.4319 55.2088 81.4319C55.153 81.4319 55.1029 81.4227 55.0584 81.4043C55.0139 81.3853 54.9785 81.3529 54.9524 81.3072C54.9263 81.2616 54.9133 81.1984 54.9133 81.1176V80.588H54.7789V80.4946L54.9231 80.4207L54.9916 80.2097H55.1233V80.4287H55.4055V80.588H55.1233V81.115C55.1233 81.1648 55.1358 81.2019 55.1607 81.2262C55.1857 81.2506 55.2186 81.2627 55.2595 81.2627ZM55.8951 81.852C55.7616 81.852 55.6592 81.828 55.588 81.7799C55.5168 81.7318 55.4812 81.6645 55.4812 81.5778C55.4812 81.5173 55.5002 81.466 55.5381 81.4239C55.5761 81.3823 55.6304 81.3535 55.701 81.3375C55.6743 81.3256 55.6512 81.3072 55.6316 81.2823C55.6126 81.2568 55.6031 81.2286 55.6031 81.1978C55.6031 81.161 55.6135 81.1295 55.6343 81.1034C55.655 81.0773 55.6862 81.0521 55.7277 81.0277C55.6761 81.0058 55.6346 80.9702 55.6031 80.9209C55.5723 80.8711 55.5568 80.8126 55.5568 80.7456C55.5568 80.6744 55.572 80.6138 55.6022 80.564C55.6325 80.5135 55.6767 80.4753 55.7349 80.4492C55.793 80.4225 55.8633 80.4091 55.9458 80.4091C55.9636 80.4091 55.9829 80.4103 56.0037 80.4127C56.025 80.4144 56.0446 80.4168 56.0624 80.4198C56.0808 80.4222 56.0948 80.4248 56.1043 80.4278H56.4452V80.5444L56.2778 80.5756C56.2939 80.5981 56.3066 80.6239 56.3161 80.653C56.3256 80.6815 56.3304 80.7126 56.3304 80.7465C56.3304 80.8485 56.2951 80.9289 56.2244 80.9877C56.1544 81.0458 56.0577 81.0749 55.9343 81.0749C55.9046 81.0737 55.8758 81.0714 55.8479 81.0678C55.8265 81.0809 55.8102 81.0954 55.799 81.1114C55.7877 81.1268 55.782 81.1444 55.782 81.1639C55.782 81.18 55.7877 81.193 55.799 81.2031C55.8102 81.2126 55.8268 81.2197 55.8488 81.2245C55.8713 81.2292 55.8986 81.2316 55.9307 81.2316H56.1007C56.2087 81.2316 56.2912 81.2544 56.3482 81.3001C56.4051 81.3458 56.4336 81.4129 56.4336 81.5013C56.4336 81.6135 56.3873 81.6998 56.2948 81.7603C56.2022 81.8214 56.069 81.852 55.8951 81.852ZM55.9031 81.7051C55.9761 81.7051 56.0375 81.698 56.0874 81.6838C56.1372 81.6695 56.1749 81.6491 56.2004 81.6224C56.2259 81.5962 56.2387 81.5651 56.2387 81.5289C56.2387 81.4968 56.2307 81.4722 56.2146 81.455C56.1986 81.4378 56.1746 81.4259 56.1425 81.4194C56.1105 81.4129 56.0707 81.4096 56.0233 81.4096H55.8684C55.8298 81.4096 55.7957 81.4155 55.766 81.4274C55.7363 81.4399 55.7132 81.4577 55.6966 81.4808C55.6806 81.504 55.6726 81.5319 55.6726 81.5645C55.6726 81.6096 55.6924 81.6443 55.7322 81.6686C55.7725 81.693 55.8295 81.7051 55.9031 81.7051ZM55.944 80.9378C56.0052 80.9378 56.0506 80.9212 56.0802 80.888C56.1099 80.8542 56.1247 80.8067 56.1247 80.7456C56.1247 80.6791 56.1093 80.6293 56.0785 80.596C56.0482 80.5628 56.0031 80.5462 55.9432 80.5462C55.8844 80.5462 55.8396 80.5631 55.8087 80.5969C55.7785 80.6307 55.7633 80.6809 55.7633 80.7474C55.7633 80.8073 55.7785 80.8542 55.8087 80.888C55.8396 80.9212 55.8847 80.9378 55.944 80.9378ZM57.4973 80.9191C57.4973 81.001 57.4866 81.0737 57.4653 81.1372C57.4439 81.2007 57.4128 81.2544 57.3718 81.2983C57.3309 81.3417 57.2816 81.3749 57.2241 81.398C57.1665 81.4206 57.1015 81.4319 57.0291 81.4319C56.9615 81.4319 56.8994 81.4206 56.8431 81.398C56.7867 81.3749 56.7377 81.3417 56.6962 81.2983C56.6553 81.2544 56.6235 81.2007 56.601 81.1372C56.5784 81.0737 56.5671 81.001 56.5671 80.9191C56.5671 80.8106 56.5858 80.7186 56.6232 80.6432C56.6612 80.5673 56.7152 80.5094 56.7852 80.4696C56.8552 80.4299 56.9386 80.41 57.0353 80.41C57.1261 80.41 57.2062 80.4299 57.2757 80.4696C57.3451 80.5094 57.3994 80.5673 57.4386 80.6432C57.4777 80.7192 57.4973 80.8111 57.4973 80.9191ZM56.7825 80.9191C56.7825 80.991 56.7912 81.0524 56.8084 81.1034C56.8262 81.1544 56.8535 81.1936 56.8903 81.2209C56.927 81.2476 56.9745 81.261 57.0327 81.261C57.0908 81.261 57.1383 81.2476 57.1751 81.2209C57.2119 81.1936 57.2389 81.1544 57.2561 81.1034C57.2733 81.0524 57.2819 80.991 57.2819 80.9191C57.2819 80.8473 57.2733 80.7865 57.2561 80.7367C57.2389 80.6862 57.2119 80.648 57.1751 80.6218C57.1383 80.5951 57.0905 80.5818 57.0318 80.5818C56.9451 80.5818 56.8819 80.6109 56.8422 80.669C56.8024 80.7272 56.7825 80.8106 56.7825 80.9191ZM57.9468 80.4287V81.4141H57.7377V80.4287H57.9468ZM57.8436 80.0513C57.8756 80.0513 57.9032 80.0599 57.9264 80.0771C57.9501 80.0943 57.962 80.124 57.962 80.1661C57.962 80.2076 57.9501 80.2373 57.9264 80.2551C57.9032 80.2723 57.8756 80.2809 57.8436 80.2809C57.8104 80.2809 57.7822 80.2723 57.759 80.2551C57.7365 80.2373 57.7252 80.2076 57.7252 80.1661C57.7252 80.124 57.7365 80.0943 57.759 80.0771C57.7822 80.0599 57.8104 80.0513 57.8436 80.0513ZM58.7604 80.41C58.8714 80.41 58.9577 80.4388 59.0194 80.4963C59.0818 80.5533 59.1129 80.645 59.1129 80.7714V81.4141H58.9037V80.8106C58.9037 80.734 58.888 80.6767 58.8566 80.6388C58.8251 80.6002 58.7764 80.5809 58.7106 80.5809C58.615 80.5809 58.5486 80.6103 58.5112 80.669C58.4744 80.7278 58.456 80.8129 58.456 80.9245V81.4141H58.2468V80.4287H58.4097L58.4391 80.5622H58.4507C58.472 80.5278 58.4984 80.4996 58.5299 80.4776C58.5619 80.4551 58.5975 80.4382 58.6367 80.4269C58.6764 80.4156 58.7177 80.41 58.7604 80.41ZM59.687 81.852C59.5535 81.852 59.4512 81.828 59.3799 81.7799C59.3087 81.7318 59.2731 81.6645 59.2731 81.5778C59.2731 81.5173 59.2921 81.466 59.3301 81.4239C59.3681 81.3823 59.4224 81.3535 59.493 81.3375C59.4663 81.3256 59.4431 81.3072 59.4236 81.2823C59.4046 81.2568 59.3951 81.2286 59.3951 81.1978C59.3951 81.161 59.4055 81.1295 59.4262 81.1034C59.447 81.0773 59.4782 81.0521 59.5197 81.0277C59.4681 81.0058 59.4265 80.9702 59.3951 80.9209C59.3642 80.8711 59.3488 80.8126 59.3488 80.7456C59.3488 80.6744 59.3639 80.6138 59.3942 80.564C59.4245 80.5135 59.4687 80.4753 59.5268 80.4492C59.585 80.4225 59.6553 80.4091 59.7378 80.4091C59.7556 80.4091 59.7749 80.4103 59.7956 80.4127C59.817 80.4144 59.8366 80.4168 59.8544 80.4198C59.8728 80.4222 59.8867 80.4248 59.8962 80.4278H60.2371V80.5444L60.0698 80.5756C60.0858 80.5981 60.0986 80.6239 60.1081 80.653C60.1176 80.6815 60.1223 80.7126 60.1223 80.7465C60.1223 80.8485 60.087 80.9289 60.0164 80.9877C59.9464 81.0458 59.8496 81.0749 59.7262 81.0749C59.6965 81.0737 59.6678 81.0714 59.6399 81.0678C59.6185 81.0809 59.6022 81.0954 59.5909 81.1114C59.5796 81.1268 59.574 81.1444 59.574 81.1639C59.574 81.18 59.5796 81.193 59.5909 81.2031C59.6022 81.2126 59.6188 81.2197 59.6408 81.2245C59.6633 81.2292 59.6906 81.2316 59.7226 81.2316H59.8927C60.0007 81.2316 60.0832 81.2544 60.1401 81.3001C60.1971 81.3458 60.2256 81.4129 60.2256 81.5013C60.2256 81.6135 60.1793 81.6998 60.0867 81.7603C59.9941 81.8214 59.8609 81.852 59.687 81.852ZM59.6951 81.7051C59.768 81.7051 59.8295 81.698 59.8793 81.6838C59.9292 81.6695 59.9668 81.6491 59.9924 81.6224C60.0179 81.5962 60.0306 81.5651 60.0306 81.5289C60.0306 81.4968 60.0226 81.4722 60.0066 81.455C59.9906 81.4378 59.9665 81.4259 59.9345 81.4194C59.9025 81.4129 59.8627 81.4096 59.8152 81.4096H59.6603C59.6218 81.4096 59.5876 81.4155 59.558 81.4274C59.5283 81.4399 59.5052 81.4577 59.4885 81.4808C59.4725 81.504 59.4645 81.5319 59.4645 81.5645C59.4645 81.6096 59.4844 81.6443 59.5241 81.6686C59.5645 81.693 59.6215 81.7051 59.6951 81.7051ZM59.736 80.9378C59.7971 80.9378 59.8425 80.9212 59.8722 80.888C59.9019 80.8542 59.9167 80.8067 59.9167 80.7456C59.9167 80.6791 59.9013 80.6293 59.8704 80.596C59.8401 80.5628 59.795 80.5462 59.7351 80.5462C59.6764 80.5462 59.6316 80.5631 59.6007 80.5969C59.5704 80.6307 59.5553 80.6809 59.5553 80.7474C59.5553 80.8073 59.5704 80.8542 59.6007 80.888C59.6316 80.9212 59.6767 80.9378 59.736 80.9378ZM61.7183 81.4141L61.591 81.0527H61.0935L60.9662 81.4141H60.741L61.2252 80.1074H61.462L61.9453 81.4141H61.7183ZM61.5358 80.8693L61.4121 80.5132C61.4074 80.4978 61.4005 80.4762 61.3916 80.4483C61.3827 80.4198 61.3738 80.391 61.3649 80.3619C61.356 80.3323 61.3486 80.3073 61.3427 80.2872C61.3368 80.3115 61.3293 80.3388 61.3204 80.369C61.3121 80.3987 61.3038 80.4266 61.2955 80.4527C61.2878 80.4788 61.2819 80.499 61.2777 80.5132L61.1531 80.8693H61.5358ZM62.3209 81.4141L61.9462 80.4287H62.1678L62.3708 81.0073C62.3838 81.0441 62.3957 81.0838 62.4064 81.1266C62.4171 81.1693 62.4245 81.2052 62.4286 81.2343H62.4358C62.4399 81.204 62.4479 81.1678 62.4598 81.1257C62.4717 81.0829 62.4838 81.0435 62.4963 81.0073L62.6992 80.4287H62.92L62.5453 81.4141H62.3209ZM63.4621 80.41C63.5499 80.41 63.6253 80.4281 63.6882 80.4643C63.7511 80.5005 63.7994 80.5518 63.8333 80.6183C63.8671 80.6847 63.884 80.7643 63.884 80.8568V80.969H63.2262C63.2286 81.0645 63.2541 81.1381 63.3028 81.1897C63.352 81.2414 63.4208 81.2672 63.5093 81.2672C63.5722 81.2672 63.6285 81.2613 63.6784 81.2494C63.7288 81.2369 63.7808 81.2188 63.8342 81.1951V81.3651C63.7849 81.3882 63.7348 81.4052 63.6837 81.4158C63.6327 81.4265 63.5716 81.4319 63.5004 81.4319C63.4036 81.4319 63.3185 81.4132 63.2449 81.3758C63.1719 81.3378 63.1146 81.2814 63.0731 81.2067C63.0322 81.1319 63.0117 81.039 63.0117 80.9281C63.0117 80.8177 63.0304 80.7239 63.0678 80.6468C63.1051 80.5696 63.1577 80.5109 63.2253 80.4705C63.293 80.4302 63.3719 80.41 63.4621 80.41ZM63.4621 80.5675C63.3962 80.5675 63.3428 80.5889 63.3019 80.6316C63.2615 80.6744 63.2378 80.737 63.2307 80.8195H63.6793C63.6787 80.7702 63.6704 80.7266 63.6544 80.6886C63.6389 80.6506 63.6152 80.621 63.5831 80.5996C63.5517 80.5782 63.5113 80.5675 63.4621 80.5675ZM64.6193 80.41C64.6359 80.41 64.654 80.4109 64.6736 80.4127C64.6931 80.4144 64.7101 80.4168 64.7243 80.4198L64.7047 80.6156C64.6923 80.6121 64.6768 80.6094 64.6584 80.6076C64.6406 80.6058 64.6246 80.6049 64.6104 80.6049C64.573 80.6049 64.5374 80.6112 64.5035 80.6236C64.4697 80.6355 64.4397 80.6539 64.4136 80.6788C64.3875 80.7031 64.3671 80.7337 64.3522 80.7705C64.3374 80.8073 64.33 80.85 64.33 80.8987V81.4141H64.1199V80.4287H64.2837L64.3122 80.6023H64.322C64.3415 80.5673 64.3659 80.5352 64.3949 80.5061C64.424 80.4771 64.4573 80.4539 64.4946 80.4367C64.5326 80.4189 64.5742 80.41 64.6193 80.41ZM65.2931 80.41C65.4177 80.41 65.5118 80.4376 65.5753 80.4928C65.6393 80.548 65.6714 80.634 65.6714 80.7509V81.4141H65.5227L65.4827 81.2743H65.4756C65.4477 81.3099 65.4189 81.3393 65.3892 81.3624C65.3596 81.3856 65.3251 81.4028 65.286 81.4141C65.2474 81.4259 65.2002 81.4319 65.1444 81.4319C65.0857 81.4319 65.0332 81.4212 64.9869 81.3998C64.9406 81.3779 64.9041 81.3446 64.8774 81.3001C64.8507 81.2556 64.8373 81.1992 64.8373 81.131C64.8373 81.0295 64.875 80.9533 64.9504 80.9022C65.0263 80.8512 65.1409 80.823 65.294 80.8177L65.4649 80.8114V80.7598C65.4649 80.6916 65.4489 80.6429 65.4168 80.6138C65.3854 80.5848 65.3409 80.5702 65.2833 80.5702C65.234 80.5702 65.1863 80.5773 65.14 80.5916C65.0937 80.6058 65.0486 80.6233 65.0047 80.6441L64.937 80.4963C64.9851 80.4708 65.0397 80.4501 65.1008 80.434C65.1625 80.418 65.2266 80.41 65.2931 80.41ZM65.464 80.9432L65.3367 80.9476C65.2323 80.9512 65.159 80.969 65.1168 81.001C65.0747 81.0331 65.0536 81.077 65.0536 81.1328C65.0536 81.1814 65.0682 81.217 65.0973 81.2396C65.1263 81.2616 65.1646 81.2725 65.2121 81.2725C65.2845 81.2725 65.3444 81.2521 65.3919 81.2111C65.44 81.1696 65.464 81.1087 65.464 81.0286V80.9432ZM66.2455 81.852C66.112 81.852 66.0096 81.828 65.9384 81.7799C65.8672 81.7318 65.8316 81.6645 65.8316 81.5778C65.8316 81.5173 65.8506 81.466 65.8886 81.4239C65.9266 81.3823 65.9809 81.3535 66.0515 81.3375C66.0248 81.3256 66.0016 81.3072 65.982 81.2823C65.9631 81.2568 65.9536 81.2286 65.9536 81.1978C65.9536 81.161 65.964 81.1295 65.9847 81.1034C66.0055 81.0773 66.0366 81.0521 66.0782 81.0277C66.0266 81.0058 65.985 80.9702 65.9536 80.9209C65.9227 80.8711 65.9073 80.8126 65.9073 80.7456C65.9073 80.6744 65.9224 80.6138 65.9527 80.564C65.9829 80.5135 66.0271 80.4753 66.0853 80.4492C66.1435 80.4225 66.2138 80.4091 66.2963 80.4091C66.3141 80.4091 66.3334 80.4103 66.3541 80.4127C66.3755 80.4144 66.3951 80.4168 66.4129 80.4198C66.4313 80.4222 66.4452 80.4248 66.4547 80.4278H66.7956V80.5444L66.6283 80.5756C66.6443 80.5981 66.6571 80.6239 66.6666 80.653C66.6761 80.6815 66.6808 80.7126 66.6808 80.7465C66.6808 80.8485 66.6455 80.9289 66.5749 80.9877C66.5049 81.0458 66.4081 81.0749 66.2847 81.0749C66.255 81.0737 66.2262 81.0714 66.1984 81.0678C66.177 81.0809 66.1607 81.0954 66.1494 81.1114C66.1381 81.1268 66.1325 81.1444 66.1325 81.1639C66.1325 81.18 66.1381 81.193 66.1494 81.2031C66.1607 81.2126 66.1773 81.2197 66.1992 81.2245C66.2218 81.2292 66.2491 81.2316 66.2811 81.2316H66.4511C66.5592 81.2316 66.6416 81.2544 66.6986 81.3001C66.7556 81.3458 66.7841 81.4129 66.7841 81.5013C66.7841 81.6135 66.7378 81.6998 66.6452 81.7603C66.5526 81.8214 66.4194 81.852 66.2455 81.852ZM66.2535 81.7051C66.3265 81.7051 66.3879 81.698 66.4378 81.6838C66.4876 81.6695 66.5253 81.6491 66.5508 81.6224C66.5764 81.5962 66.5891 81.5651 66.5891 81.5289C66.5891 81.4968 66.5811 81.4722 66.5651 81.455C66.5491 81.4378 66.525 81.4259 66.493 81.4194C66.4609 81.4129 66.4212 81.4096 66.3737 81.4096H66.2188C66.1803 81.4096 66.1461 81.4155 66.1165 81.4274C66.0868 81.4399 66.0636 81.4577 66.047 81.4808C66.031 81.504 66.023 81.5319 66.023 81.5645C66.023 81.6096 66.0429 81.6443 66.0826 81.6686C66.123 81.693 66.18 81.7051 66.2535 81.7051ZM66.2945 80.9378C66.3556 80.9378 66.401 80.9212 66.4307 80.888C66.4603 80.8542 66.4752 80.8067 66.4752 80.7456C66.4752 80.6791 66.4598 80.6293 66.4289 80.596C66.3986 80.5628 66.3535 80.5462 66.2936 80.5462C66.2348 80.5462 66.19 80.5631 66.1592 80.5969C66.1289 80.6307 66.1138 80.6809 66.1138 80.7474C66.1138 80.8073 66.1289 80.8542 66.1592 80.888C66.19 80.9212 66.2351 80.9378 66.2945 80.9378ZM67.368 80.41C67.4558 80.41 67.5312 80.4281 67.5941 80.4643C67.657 80.5005 67.7053 80.5518 67.7392 80.6183C67.773 80.6847 67.7899 80.7643 67.7899 80.8568V80.969H67.1321C67.1345 81.0645 67.16 81.1381 67.2087 81.1897C67.2579 81.2414 67.3267 81.2672 67.4152 81.2672C67.4781 81.2672 67.5344 81.2613 67.5843 81.2494C67.6347 81.2369 67.6867 81.2188 67.7401 81.1951V81.3651C67.6908 81.3882 67.6407 81.4052 67.5896 81.4158C67.5386 81.4265 67.4775 81.4319 67.4063 81.4319C67.3095 81.4319 67.2244 81.4132 67.1508 81.3758C67.0778 81.3378 67.0205 81.2814 66.979 81.2067C66.9381 81.1319 66.9176 81.039 66.9176 80.9281C66.9176 80.8177 66.9363 80.7239 66.9737 80.6468C67.011 80.5696 67.0636 80.5109 67.1312 80.4705C67.1989 80.4302 67.2778 80.41 67.368 80.41ZM67.368 80.5675C67.3021 80.5675 67.2487 80.5889 67.2078 80.6316C67.1674 80.6744 67.1437 80.737 67.1366 80.8195H67.5852C67.5846 80.7702 67.5763 80.7266 67.5603 80.6886C67.5448 80.6506 67.5211 80.621 67.489 80.5996C67.4576 80.5782 67.4172 80.5675 67.368 80.5675Z" fill="#626262"/>
<circle cx="49.1781" cy="80.764" r="1.0804" fill="#FFF235"/>
</svg>
