<svg width="93" height="92" viewBox="0 0 93 92" fill="none" xmlns="http://www.w3.org/2000/svg">
<rect x="1.25995" y="0.389831" width="91.079" height="91.2203" rx="17.5424" stroke="#BEBEBE" stroke-width="0.779661"/>
<rect x="12.1591" y="11.1591" width="69.6818" height="69.6818" rx="34.8409" stroke="#D4D4D4" stroke-width="0.318182"/>
<rect x="20.1591" y="19.1591" width="53.6818" height="53.6818" rx="26.8409" stroke="#F5F5F5" stroke-width="0.318182"/>
<rect x="28.1591" y="27.1591" width="37.6819" height="37.6819" rx="18.8409" stroke="#F5F5F5" stroke-width="0.318182"/>
<rect x="36.1591" y="35.1591" width="21.6818" height="21.6818" rx="10.8409" stroke="#F5F5F5" stroke-width="0.318182"/>
<rect x="44.1591" y="43.1591" width="5.68182" height="5.68182" rx="2.84091" stroke="#F5F5F5" stroke-width="0.318182"/>
<path d="M24.4092 46L82.0001 46" stroke="#D4D4D4" stroke-width="0.318182"/>
<path d="M17.6016 27.0078L49.5456 47.9096" stroke="#D4D4D4" stroke-width="0.318182"/>
<path d="M19.9541 45.9986C19.9541 42.4469 20.6537 38.93 22.0128 35.6487C23.372 32.3674 25.3641 29.386 27.8755 26.8746C30.3869 24.3632 33.3684 22.371 36.6497 21.0118C39.931 19.6527 43.4479 18.9531 46.9996 18.9531C50.5512 18.9531 54.0681 19.6527 57.3494 21.0118C60.6307 22.371 63.6122 24.3632 66.1236 26.8746C68.635 29.386 70.6271 32.3674 71.9863 35.6487C73.3455 38.93 74.045 42.4469 74.045 45.9986L46.9996 45.9986L19.9541 45.9986Z" fill="#06B6F6"/>
<path d="M74.045 45.9986C74.045 50.2033 73.0646 54.3501 71.1817 58.1097C69.2989 61.8692 66.5653 65.138 63.1982 67.6564C59.8311 70.1747 55.9232 71.8734 51.7848 72.6173C47.6465 73.3613 43.3916 73.1301 39.3582 71.9421C35.3248 70.7541 31.624 68.6421 28.5496 65.7737C25.4752 62.9053 23.1119 59.3596 21.6475 55.4182C20.183 51.4767 19.6577 47.2481 20.1133 43.0681C20.5689 38.8882 21.9928 34.872 24.272 31.3386L46.9996 45.9986H74.045Z" fill="#FFF235"/>
<circle cx="70.5624" cy="75.9267" r="1.28997" fill="#FFF235"/>
<circle cx="23.79" cy="16.7431" r="1.28997" fill="#06B6F6"/>
</svg>
