<svg width="92" height="92" viewBox="0 0 92 92" fill="none" xmlns="http://www.w3.org/2000/svg">
<rect x="0.389831" y="0.389831" width="91.079" height="91.2203" rx="17.5424" fill="white" stroke="#BEBEBE" stroke-width="0.779661"/>
<mask id="mask0_7578_103408" style="mask-type:alpha" maskUnits="userSpaceOnUse" x="11" y="16" width="24" height="53">
<path d="M29.169 18.0269C28.5523 17.0054 27.2199 16.6718 26.2384 17.3503C22.6399 19.8378 19.5342 22.9819 17.0877 26.6237C14.2389 30.8644 12.3531 35.6772 11.5625 40.7243C10.7719 45.7713 11.0958 50.9303 12.5113 55.8389C13.727 60.0544 15.7226 63.9975 18.388 67.4663C19.115 68.4124 20.4857 68.5022 21.3851 67.7182L28.3814 61.6201C29.2809 60.8361 29.3644 59.4769 28.6751 58.503C27.2936 56.5512 26.246 54.3773 25.5806 52.0699C24.7151 49.0689 24.5172 45.9149 25.0005 42.8292C25.4839 39.7436 26.6368 36.8012 28.3785 34.2086C29.7176 32.2152 31.3797 30.4657 33.2918 29.0299C34.246 28.3134 34.5821 26.9938 33.9654 25.9723L29.169 18.0269Z" fill="#D9D9D9"/>
</mask>
<g mask="url(#mask0_7578_103408)">
<line y1="-0.432097" x2="81.1334" y2="-0.432097" transform="matrix(-0.607831 0.794066 0.375448 0.926844 82.6621 16.7402)" stroke="black" stroke-width="0.864195"/>
<line y1="-0.432097" x2="81.1334" y2="-0.432097" transform="matrix(-0.607831 0.794066 0.375448 0.926844 77.502 16.043)" stroke="black" stroke-width="0.864195"/>
<line y1="-0.432097" x2="81.1334" y2="-0.432097" transform="matrix(-0.607831 0.794066 0.375448 0.926844 72.3398 15.3477)" stroke="black" stroke-width="0.864195"/>
<line y1="-0.432097" x2="81.1334" y2="-0.432097" transform="matrix(-0.607831 0.794066 0.375448 0.926844 67.1797 14.6504)" stroke="black" stroke-width="0.864195"/>
<line y1="-0.432097" x2="81.1334" y2="-0.432097" transform="matrix(-0.607831 0.794066 0.375448 0.926844 62.0195 13.9531)" stroke="#FFC20B" stroke-width="0.864195"/>
<line y1="-0.432097" x2="81.1334" y2="-0.432097" transform="matrix(-0.607831 0.794066 0.375448 0.926844 56.8594 13.2568)" stroke="#FFC20B" stroke-width="0.864195"/>
<line y1="-0.432097" x2="81.1334" y2="-0.432097" transform="matrix(-0.607831 0.794066 0.375448 0.926844 51.1934 12.498)" stroke="#FFC20B" stroke-width="0.864195"/>
<line y1="-0.432097" x2="81.1334" y2="-0.432097" transform="matrix(-0.607831 0.794066 0.375448 0.926844 46.5391 11.8623)" stroke="#FFC20B" stroke-width="0.864195"/>
<line y1="-0.432097" x2="81.1334" y2="-0.432097" transform="matrix(-0.607831 0.794066 0.375448 0.926844 41.377 11.166)" stroke="#FFC20B" stroke-width="0.864195"/>
<line y1="-0.432097" x2="81.1334" y2="-0.432097" transform="matrix(-0.607831 0.794066 0.375448 0.926844 36.2168 10.4678)" stroke="#FFC20B" stroke-width="0.864195"/>
<line y1="-0.432097" x2="81.1334" y2="-0.432097" transform="matrix(-0.607831 0.794066 0.375448 0.926844 31.0566 9.77148)" stroke="#FFC20B" stroke-width="0.864195"/>
<line y1="-0.432097" x2="81.1334" y2="-0.432097" transform="matrix(-0.607831 0.794066 0.375448 0.926844 25.8945 9.07617)" stroke="black" stroke-width="0.864195"/>
<line y1="-0.432097" x2="81.1334" y2="-0.432097" transform="matrix(-0.607831 0.794066 0.375448 0.926844 20.7363 8.37695)" stroke="black" stroke-width="0.864195"/>
<line y1="-0.432097" x2="81.1334" y2="-0.432097" transform="matrix(-0.607831 0.794066 0.375448 0.926844 15.5762 7.68066)" stroke="black" stroke-width="0.864195"/>
<line y1="-0.432097" x2="81.1334" y2="-0.432097" transform="matrix(-0.607831 0.794066 0.375448 0.926844 82.6602 20.2773)" stroke="#FFC20B" stroke-width="0.864195"/>
<line y1="-0.432097" x2="81.1334" y2="-0.432097" transform="matrix(-0.607831 0.794066 0.375448 0.926844 77.5 19.5801)" stroke="#FFC20B" stroke-width="0.864195"/>
<line y1="-0.432097" x2="81.1334" y2="-0.432097" transform="matrix(-0.607831 0.794066 0.375448 0.926844 72.3379 18.8848)" stroke="#FFC20B" stroke-width="0.864195"/>
<line y1="-0.432097" x2="81.1334" y2="-0.432097" transform="matrix(-0.607831 0.794066 0.375448 0.926844 67.1777 18.1875)" stroke="#FFC20B" stroke-width="0.864195"/>
<line y1="-0.432097" x2="81.1334" y2="-0.432097" transform="matrix(-0.607831 0.794066 0.375448 0.926844 62.0176 17.4902)" stroke="#FFC20B" stroke-width="0.864195"/>
<line y1="-0.432097" x2="81.1334" y2="-0.432097" transform="matrix(-0.607831 0.794066 0.375448 0.926844 56.8574 16.7939)" stroke="#FFC20B" stroke-width="0.864195"/>
<line y1="-0.432097" x2="81.1334" y2="-0.432097" transform="matrix(-0.607831 0.794066 0.375448 0.926844 51.1914 16.0352)" stroke="#FFC20B" stroke-width="0.864195"/>
<line y1="-0.432097" x2="81.1334" y2="-0.432097" transform="matrix(-0.607831 0.794066 0.375448 0.926844 46.5371 15.3994)" stroke="#FFC20B" stroke-width="0.864195"/>
<line y1="-0.432097" x2="81.1334" y2="-0.432097" transform="matrix(-0.607831 0.794066 0.375448 0.926844 41.375 14.7031)" stroke="#FFC20B" stroke-width="0.864195"/>
<line y1="-0.432097" x2="81.1334" y2="-0.432097" transform="matrix(-0.607831 0.794066 0.375448 0.926844 36.2148 14.0049)" stroke="#FFC20B" stroke-width="0.864195"/>
<line y1="-0.432097" x2="81.1334" y2="-0.432097" transform="matrix(-0.607831 0.794066 0.375448 0.926844 31.0547 13.3086)" stroke="#FFC20B" stroke-width="0.864195"/>
<line y1="-0.432097" x2="81.1334" y2="-0.432097" transform="matrix(-0.607831 0.794066 0.375448 0.926844 25.8926 12.6133)" stroke="#FFC20B" stroke-width="0.864195"/>
<line y1="-0.432097" x2="81.1334" y2="-0.432097" transform="matrix(-0.607831 0.794066 0.375448 0.926844 20.7344 11.9141)" stroke="#FFC20B" stroke-width="0.864195"/>
<line y1="-0.432097" x2="81.1334" y2="-0.432097" transform="matrix(-0.607831 0.794066 0.375448 0.926844 15.5742 11.2178)" stroke="#FFC20B" stroke-width="0.864195"/>
</g>
<path d="M22.1281 68.5421C21.2556 69.3561 21.2038 70.7287 22.07 71.5493C26.3014 75.5578 31.4763 78.4545 37.1305 79.9608C43.482 81.6529 50.1817 81.5223 56.4624 79.5838C62.7432 77.6453 68.3511 73.9773 72.6442 68.9999C76.9372 64.0224 79.7419 57.9366 80.737 51.4393C81.7321 44.942 80.8775 38.2958 78.271 32.2616C75.6645 26.2274 71.4114 21.0491 65.9988 17.3197C60.5861 13.5902 54.2327 11.4603 47.6658 11.1739C41.82 10.9189 36.0154 12.1339 30.7782 14.6923C29.7061 15.216 29.3447 16.5412 29.9336 17.579L34.5139 25.6509C35.1028 26.6887 36.418 27.0415 37.5099 26.5602C40.5084 25.2385 43.78 24.6192 47.0731 24.7628C51.0879 24.938 54.9722 26.2401 58.2813 28.5202C61.5905 30.8003 64.1907 33.9661 65.7842 37.6553C67.3778 41.3444 67.9003 45.4078 67.2919 49.3801C66.6835 53.3524 64.9688 57.073 62.3441 60.1161C59.7195 63.1592 56.2909 65.4017 52.4511 66.5868C48.6112 67.772 44.5152 67.8519 40.632 66.8174C37.4469 65.9688 34.5107 64.3987 32.0451 62.2401C31.1474 61.4541 29.7869 61.3972 28.9144 62.2111L22.1281 68.5421Z" fill="#C2F800"/>
</svg>
