<svg width="92" height="92" viewBox="0 0 92 92" fill="none" xmlns="http://www.w3.org/2000/svg">
<rect x="0.389831" y="0.389831" width="91.079" height="91.2203" rx="17.5424" stroke="#BEBEBE" stroke-width="0.779661"/>
<g clip-path="url(#clip0_7578_103599)">
<path d="M24.2301 80H23.9518V77.8646H23.2031V77.6204H24.9756V77.8646H24.2301V80ZM26.8327 79.1048C26.8327 79.2513 26.8137 79.3821 26.7757 79.4971C26.7377 79.6121 26.6829 79.7092 26.6113 79.7884C26.5397 79.8676 26.4529 79.9284 26.3509 79.9707C26.25 80.0119 26.1355 80.0326 26.0075 80.0326C25.8881 80.0326 25.7785 80.0119 25.6787 79.9707C25.58 79.9284 25.4942 79.8676 25.4215 79.7884C25.3499 79.7092 25.2941 79.6121 25.2539 79.4971C25.2148 79.3821 25.1953 79.2513 25.1953 79.1048C25.1953 78.9095 25.2284 78.7435 25.2946 78.6068C25.3608 78.469 25.4552 78.3643 25.5778 78.2926C25.7015 78.2199 25.8485 78.1836 26.0189 78.1836C26.1816 78.1836 26.3238 78.2199 26.4453 78.2926C26.5679 78.3653 26.6629 78.4706 26.7301 78.6084C26.7985 78.7451 26.8327 78.9106 26.8327 79.1048ZM25.4753 79.1048C25.4753 79.248 25.4942 79.3723 25.5322 79.4775C25.5702 79.5828 25.6288 79.6642 25.708 79.7217C25.7872 79.7792 25.8892 79.8079 26.014 79.8079C26.1377 79.8079 26.2391 79.7792 26.3184 79.7217C26.3987 79.6642 26.4578 79.5828 26.4958 79.4775C26.5337 79.3723 26.5527 79.248 26.5527 79.1048C26.5527 78.9627 26.5337 78.8401 26.4958 78.737C26.4578 78.6328 26.3992 78.5525 26.32 78.4961C26.2408 78.4397 26.1382 78.4115 26.0124 78.4115C25.8268 78.4115 25.6906 78.4728 25.6038 78.5954C25.5181 78.718 25.4753 78.8878 25.4753 79.1048ZM27.9346 80.0326C27.7089 80.0326 27.5298 79.9555 27.3975 79.8014C27.2662 79.6474 27.2005 79.4184 27.2005 79.1146C27.2005 78.8075 27.2678 78.5758 27.4023 78.4196C27.5369 78.2623 27.7159 78.1836 27.9395 78.1836C28.0339 78.1836 28.1163 78.1961 28.1868 78.221C28.2574 78.246 28.3181 78.2796 28.3691 78.3219C28.4201 78.3632 28.463 78.4104 28.4977 78.4635H28.5173C28.5129 78.4299 28.5086 78.3838 28.5042 78.3252C28.4999 78.2666 28.4977 78.2189 28.4977 78.182V77.4674H28.7679V80H28.5498L28.5091 79.7461H28.4977C28.4641 79.7993 28.4212 79.8475 28.3691 79.891C28.3181 79.9344 28.2568 79.9691 28.1852 79.9951C28.1147 80.0201 28.0311 80.0326 27.9346 80.0326ZM27.9769 79.8079C28.1679 79.8079 28.303 79.7537 28.3822 79.6452C28.4614 79.5367 28.501 79.3755 28.501 79.1618V79.113C28.501 78.8862 28.463 78.712 28.387 78.5905C28.3122 78.469 28.1755 78.4082 27.9769 78.4082C27.8109 78.4082 27.6866 78.4722 27.6042 78.6003C27.5217 78.7272 27.4805 78.9008 27.4805 79.1211C27.4805 79.3403 27.5212 79.5095 27.6025 79.6289C27.685 79.7483 27.8098 79.8079 27.9769 79.8079ZM30.0081 78.1868C30.2208 78.1868 30.3787 78.2346 30.4818 78.3301C30.5849 78.4256 30.6364 78.578 30.6364 78.7874V80H30.4395L30.3874 79.7363H30.3743C30.3244 79.8014 30.2724 79.8562 30.2181 79.9007C30.1638 79.9441 30.1009 79.9772 30.0293 80C29.9588 80.0217 29.872 80.0326 29.7689 80.0326C29.6604 80.0326 29.5638 80.0136 29.4792 79.9756C29.3956 79.9376 29.3294 79.8801 29.2806 79.8031C29.2329 79.726 29.209 79.6284 29.209 79.5101C29.209 79.3321 29.2795 79.1954 29.4206 79.0999C29.5616 79.0044 29.7765 78.9524 30.0651 78.9437L30.3727 78.9307V78.8216C30.3727 78.6675 30.3396 78.5596 30.2734 78.4977C30.2072 78.4359 30.1139 78.4049 29.9935 78.4049C29.9002 78.4049 29.8112 78.4185 29.7266 78.4456C29.6419 78.4728 29.5616 78.5048 29.4857 78.5417L29.4027 78.3366C29.483 78.2954 29.5752 78.2601 29.6794 78.2308C29.7835 78.2015 29.8931 78.1868 30.0081 78.1868ZM30.3695 79.1211L30.0977 79.1325C29.8752 79.1412 29.7184 79.1775 29.6273 79.2415C29.5361 79.3056 29.4906 79.3962 29.4906 79.5133C29.4906 79.6153 29.5215 79.6908 29.5833 79.7396C29.6452 79.7884 29.7271 79.8128 29.8291 79.8128C29.9875 79.8128 30.1172 79.7689 30.2181 79.681C30.319 79.5931 30.3695 79.4613 30.3695 79.2855V79.1211ZM30.9115 78.2161H31.2012L31.5951 79.2513C31.6178 79.3121 31.639 79.3707 31.6585 79.4271C31.6781 79.4824 31.6954 79.5356 31.7106 79.5866C31.7258 79.6376 31.7377 79.687 31.7464 79.7347H31.7578C31.773 79.6804 31.7947 79.6094 31.8229 79.5215C31.8511 79.4325 31.8815 79.3419 31.9141 79.2497L32.2868 78.2161H32.5781L31.8018 80.262C31.7605 80.3716 31.7122 80.4671 31.6569 80.5485C31.6026 80.6299 31.5365 80.6923 31.4583 80.7357C31.3802 80.7802 31.2858 80.8024 31.1751 80.8024C31.1241 80.8024 31.0791 80.7992 31.04 80.7926C31.001 80.7872 30.9673 80.7807 30.9391 80.7731V80.5566C30.963 80.5621 30.9918 80.5669 31.0254 80.5713C31.0601 80.5756 31.0959 80.5778 31.1328 80.5778C31.2001 80.5778 31.2581 80.5648 31.307 80.5387C31.3569 80.5138 31.3997 80.4769 31.4355 80.4281C31.4714 80.3792 31.5023 80.3212 31.5283 80.2539L31.626 80.0033L30.9115 78.2161Z" fill="#666666"/>
<path d="M14.6943 29.8541C14.6943 27.246 16.8085 25.1318 19.4166 25.1318H37.6895C40.2975 25.1318 42.4117 27.246 42.4117 29.8541V72.0884H14.6943V29.8541Z" fill="#C3FF11"/>
<g filter="url(#filter0_d_7578_103599)">
<rect x="17.959" y="20.2393" width="21.1957" height="9.78261" rx="4.16667" fill="white"/>
<rect x="18.0979" y="20.3781" width="20.9179" height="9.50483" rx="4.02778" stroke="url(#paint0_linear_7578_103599)" stroke-width="0.277778"/>
</g>
<circle cx="28.5564" cy="29.8592" r="0.815217" fill="#ECECEC"/>
<circle cx="28.5575" cy="29.8602" r="0.48913" fill="#006FFF"/>
<path d="M20.8656 15.6283C21.0034 15.6283 21.1254 15.65 21.2318 15.6934C21.3381 15.7368 21.4211 15.8008 21.4808 15.8854C21.5416 15.969 21.5719 16.072 21.5719 16.1947C21.5719 16.2912 21.5508 16.3759 21.5085 16.4486C21.4672 16.5202 21.4113 16.5831 21.3408 16.6374C21.2703 16.6905 21.1922 16.7383 21.1064 16.7806C21.2084 16.8273 21.3001 16.8799 21.3815 16.9385C21.464 16.9971 21.5291 17.066 21.5768 17.1452C21.6246 17.2244 21.6484 17.3183 21.6484 17.4268C21.6484 17.5602 21.6159 17.6758 21.5508 17.7734C21.4868 17.87 21.3967 17.9443 21.2806 17.9964C21.1645 18.0485 21.0283 18.0745 20.8721 18.0745C20.7039 18.0745 20.5607 18.0496 20.4424 17.9997C20.3252 17.9487 20.2357 17.876 20.1738 17.7816C20.1131 17.6861 20.0827 17.5716 20.0827 17.4382C20.0827 17.3286 20.106 17.2336 20.1527 17.1533C20.1993 17.0719 20.2612 17.002 20.3382 16.9434C20.4153 16.8848 20.4993 16.8354 20.5905 16.7952C20.5113 16.7518 20.4386 16.7025 20.3724 16.6471C20.3073 16.5918 20.2552 16.5272 20.2161 16.4535C20.1782 16.3786 20.1592 16.2918 20.1592 16.193C20.1592 16.0726 20.1896 15.9706 20.2503 15.887C20.3122 15.8024 20.3963 15.7384 20.5026 15.695C20.61 15.6505 20.731 15.6283 20.8656 15.6283ZM20.348 17.4398C20.348 17.5613 20.3908 17.6617 20.4766 17.7409C20.5623 17.819 20.6919 17.8581 20.8656 17.8581C21.0305 17.8581 21.158 17.819 21.248 17.7409C21.3381 17.6617 21.3831 17.5581 21.3831 17.43C21.3831 17.3508 21.3625 17.2814 21.3213 17.2217C21.2801 17.1609 21.2215 17.1067 21.1455 17.0589C21.0696 17.0112 20.98 16.9678 20.877 16.9287L20.8184 16.9076C20.7185 16.9488 20.6334 16.9949 20.5628 17.0459C20.4934 17.0958 20.4402 17.1528 20.4033 17.2168C20.3664 17.2808 20.348 17.3551 20.348 17.4398ZM20.8623 15.8496C20.7343 15.8496 20.6296 15.8805 20.5482 15.9424C20.4668 16.0031 20.4261 16.091 20.4261 16.2061C20.4261 16.2885 20.4456 16.3585 20.4847 16.416C20.5248 16.4724 20.5791 16.5213 20.6475 16.5625C20.7158 16.6026 20.7923 16.6401 20.877 16.6748C20.9594 16.6401 21.0327 16.6021 21.0967 16.5609C21.1607 16.5186 21.2112 16.4686 21.248 16.4111C21.2849 16.3536 21.3034 16.2847 21.3034 16.2044C21.3034 16.0894 21.2627 16.0015 21.1813 15.9408C21.101 15.88 20.9947 15.8496 20.8623 15.8496ZM23.5592 16.849C23.5592 17.0421 23.5446 17.2146 23.5153 17.3665C23.486 17.5184 23.4399 17.647 23.377 17.7523C23.314 17.8575 23.2326 17.9378 23.1328 17.9932C23.033 18.0474 22.9131 18.0745 22.7731 18.0745C22.5962 18.0745 22.4498 18.0263 22.3337 17.9297C22.2186 17.8331 22.1324 17.6937 22.0749 17.5114C22.0184 17.328 21.9902 17.1072 21.9902 16.849C21.9902 16.5951 22.0157 16.377 22.0667 16.1947C22.1188 16.0113 22.2024 15.8708 22.3174 15.7731C22.4324 15.6744 22.5843 15.625 22.7731 15.625C22.9521 15.625 23.0997 15.6738 23.2158 15.7715C23.3319 15.8681 23.4182 16.008 23.4746 16.1914C23.531 16.3737 23.5592 16.5929 23.5592 16.849ZM22.262 16.849C22.262 17.0703 22.2789 17.2548 22.3125 17.4023C22.3461 17.5499 22.4004 17.6606 22.4753 17.7344C22.5512 17.8071 22.6505 17.8434 22.7731 17.8434C22.8957 17.8434 22.9945 17.8071 23.0693 17.7344C23.1453 17.6617 23.2001 17.5515 23.2337 17.404C23.2684 17.2564 23.2858 17.0714 23.2858 16.849C23.2858 16.6309 23.269 16.4486 23.2354 16.3021C23.2017 16.1545 23.1475 16.0438 23.0726 15.9701C22.9977 15.8952 22.8979 15.8577 22.7731 15.8577C22.6483 15.8577 22.5485 15.8952 22.4736 15.9701C22.3988 16.0438 22.3445 16.1545 22.3109 16.3021C22.2783 16.4486 22.262 16.6309 22.262 16.849ZM25.4668 16.849C25.4668 17.0421 25.4521 17.2146 25.4229 17.3665C25.3936 17.5184 25.3474 17.647 25.2845 17.7523C25.2216 17.8575 25.1402 17.9378 25.0404 17.9932C24.9405 18.0474 24.8206 18.0745 24.6807 18.0745C24.5038 18.0745 24.3573 18.0263 24.2412 17.9297C24.1262 17.8331 24.0399 17.6937 23.9824 17.5114C23.926 17.328 23.8978 17.1072 23.8978 16.849C23.8978 16.5951 23.9233 16.377 23.9743 16.1947C24.0264 16.0113 24.1099 15.8708 24.2249 15.7731C24.34 15.6744 24.4919 15.625 24.6807 15.625C24.8597 15.625 25.0073 15.6738 25.1234 15.7715C25.2395 15.8681 25.3257 16.008 25.3822 16.1914C25.4386 16.3737 25.4668 16.5929 25.4668 16.849ZM24.1696 16.849C24.1696 17.0703 24.1864 17.2548 24.2201 17.4023C24.2537 17.5499 24.3079 17.6606 24.3828 17.7344C24.4588 17.8071 24.5581 17.8434 24.6807 17.8434C24.8033 17.8434 24.902 17.8071 24.9769 17.7344C25.0528 17.6617 25.1076 17.5515 25.1413 17.404C25.176 17.2564 25.1934 17.0714 25.1934 16.849C25.1934 16.6309 25.1765 16.4486 25.1429 16.3021C25.1093 16.1545 25.055 16.0438 24.9801 15.9701C24.9053 15.8952 24.8054 15.8577 24.6807 15.8577C24.5559 15.8577 24.4561 15.8952 24.3812 15.9701C24.3063 16.0438 24.2521 16.1545 24.2184 16.3021C24.1859 16.4486 24.1696 16.6309 24.1696 16.849ZM26.8242 15.6624L25.9388 18.042H25.6719L26.5589 15.6624H26.8242ZM28.0319 18.042H27.7682V16.3558C27.7682 16.2918 27.7682 16.237 27.7682 16.1914C27.7693 16.1447 27.7704 16.1024 27.7715 16.0645C27.7737 16.0254 27.7764 15.9858 27.7796 15.9456C27.746 15.9804 27.7145 16.0102 27.6852 16.0352C27.6559 16.059 27.6196 16.0889 27.5762 16.1247L27.3044 16.3428L27.1628 16.1589L27.8073 15.6624H28.0319V18.042ZM30.5059 16.849C30.5059 17.0421 30.4912 17.2146 30.4619 17.3665C30.4326 17.5184 30.3865 17.647 30.3236 17.7523C30.2606 17.8575 30.1793 17.9378 30.0794 17.9932C29.9796 18.0474 29.8597 18.0745 29.7197 18.0745C29.5429 18.0745 29.3964 18.0263 29.2803 17.9297C29.1653 17.8331 29.079 17.6937 29.0215 17.5114C28.9651 17.328 28.9368 17.1072 28.9368 16.849C28.9368 16.5951 28.9623 16.377 29.0133 16.1947C29.0654 16.0113 29.149 15.8708 29.264 15.7731C29.379 15.6744 29.5309 15.625 29.7197 15.625C29.8988 15.625 30.0463 15.6738 30.1624 15.7715C30.2785 15.8681 30.3648 16.008 30.4212 16.1914C30.4776 16.3737 30.5059 16.5929 30.5059 16.849ZM29.2087 16.849C29.2087 17.0703 29.2255 17.2548 29.2591 17.4023C29.2928 17.5499 29.347 17.6606 29.4219 17.7344C29.4978 17.8071 29.5971 17.8434 29.7197 17.8434C29.8423 17.8434 29.9411 17.8071 30.0159 17.7344C30.0919 17.6617 30.1467 17.5515 30.1803 17.404C30.2151 17.2564 30.2324 17.0714 30.2324 16.849C30.2324 16.6309 30.2156 16.4486 30.182 16.3021C30.1483 16.1545 30.0941 16.0438 30.0192 15.9701C29.9443 15.8952 29.8445 15.8577 29.7197 15.8577C29.5949 15.8577 29.4951 15.8952 29.4202 15.9701C29.3454 16.0438 29.2911 16.1545 29.2575 16.3021C29.2249 16.4486 29.2087 16.6309 29.2087 16.849ZM32.4134 16.849C32.4134 17.0421 32.3988 17.2146 32.3695 17.3665C32.3402 17.5184 32.2941 17.647 32.2311 17.7523C32.1682 17.8575 32.0868 17.9378 31.987 17.9932C31.8872 18.0474 31.7673 18.0745 31.6273 18.0745C31.4504 18.0745 31.3039 18.0263 31.1878 17.9297C31.0728 17.8331 30.9865 17.6937 30.929 17.5114C30.8726 17.328 30.8444 17.1072 30.8444 16.849C30.8444 16.5951 30.8699 16.377 30.9209 16.1947C30.973 16.0113 31.0565 15.8708 31.1715 15.7731C31.2866 15.6744 31.4385 15.625 31.6273 15.625C31.8063 15.625 31.9539 15.6738 32.07 15.7715C32.1861 15.8681 32.2724 16.008 32.3288 16.1914C32.3852 16.3737 32.4134 16.5929 32.4134 16.849ZM31.1162 16.849C31.1162 17.0703 31.133 17.2548 31.1667 17.4023C31.2003 17.5499 31.2546 17.6606 31.3294 17.7344C31.4054 17.8071 31.5047 17.8434 31.6273 17.8434C31.7499 17.8434 31.8486 17.8071 31.9235 17.7344C31.9995 17.6617 32.0543 17.5515 32.0879 17.404C32.1226 17.2564 32.14 17.0714 32.14 16.849C32.14 16.6309 32.1232 16.4486 32.0895 16.3021C32.0559 16.1545 32.0016 16.0438 31.9268 15.9701C31.8519 15.8952 31.7521 15.8577 31.6273 15.8577C31.5025 15.8577 31.4027 15.8952 31.3278 15.9701C31.2529 16.0438 31.1987 16.1545 31.165 16.3021C31.1325 16.4486 31.1162 16.6309 31.1162 16.849ZM34.321 16.849C34.321 17.0421 34.3063 17.2146 34.277 17.3665C34.2477 17.5184 34.2016 17.647 34.1387 17.7523C34.0757 17.8575 33.9944 17.9378 33.8945 17.9932C33.7947 18.0474 33.6748 18.0745 33.5348 18.0745C33.358 18.0745 33.2115 18.0263 33.0954 17.9297C32.9804 17.8331 32.8941 17.6937 32.8366 17.5114C32.7802 17.328 32.752 17.1072 32.752 16.849C32.752 16.5951 32.7775 16.377 32.8285 16.1947C32.8805 16.0113 32.9641 15.8708 33.0791 15.7731C33.1941 15.6744 33.346 15.625 33.5348 15.625C33.7139 15.625 33.8614 15.6738 33.9775 15.7715C34.0936 15.8681 34.1799 16.008 34.2363 16.1914C34.2928 16.3737 34.321 16.5929 34.321 16.849ZM33.0238 16.849C33.0238 17.0703 33.0406 17.2548 33.0742 17.4023C33.1079 17.5499 33.1621 17.6606 33.237 17.7344C33.3129 17.8071 33.4122 17.8434 33.5348 17.8434C33.6574 17.8434 33.7562 17.8071 33.8311 17.7344C33.907 17.6617 33.9618 17.5515 33.9954 17.404C34.0302 17.2564 34.0475 17.0714 34.0475 16.849C34.0475 16.6309 34.0307 16.4486 33.9971 16.3021C33.9634 16.1545 33.9092 16.0438 33.8343 15.9701C33.7594 15.8952 33.6596 15.8577 33.5348 15.8577C33.41 15.8577 33.3102 15.8952 33.2354 15.9701C33.1605 16.0438 33.1062 16.1545 33.0726 16.3021C33.04 16.4486 33.0238 16.6309 33.0238 16.849Z" fill="#444444"/>
<path d="M53.9844 53.9668H73.1865C75.5644 53.9668 77.4921 55.8946 77.4922 58.2725V72.2764H49.4004V58.5508C49.4004 56.0195 51.4531 53.9668 53.9844 53.9668Z" stroke="#FF8A01" stroke-width="0.277778"/>
<path d="M57.2519 78.8135L57.885 77.6204H58.1829L57.3902 79.0771V80H57.1136V79.0902L56.3193 77.6204H56.622L57.2519 78.8135ZM59.1562 78.1836C59.3081 78.1836 59.4383 78.2172 59.5468 78.2845C59.6553 78.3518 59.7383 78.4462 59.7958 78.5677C59.8534 78.6882 59.8821 78.8292 59.8821 78.9909V79.1585H58.65C58.6533 79.3679 58.7054 79.5275 58.8063 79.637C58.9072 79.7466 59.0493 79.8014 59.2327 79.8014C59.3455 79.8014 59.4454 79.7911 59.5322 79.7705C59.619 79.7499 59.709 79.7195 59.8024 79.6794V79.917C59.7123 79.9571 59.6228 79.9864 59.5338 80.0049C59.4459 80.0233 59.3417 80.0326 59.2213 80.0326C59.0499 80.0326 58.9001 79.9978 58.7721 79.9284C58.6451 79.8579 58.5464 79.7548 58.4759 79.6191C58.4053 79.4835 58.3701 79.3175 58.3701 79.1211C58.3701 78.929 58.4021 78.763 58.4661 78.623C58.5312 78.482 58.6223 78.3735 58.7395 78.2975C58.8578 78.2216 58.9967 78.1836 59.1562 78.1836ZM59.1529 78.4049C59.0086 78.4049 58.8936 78.4521 58.8079 78.5465C58.7222 78.641 58.6712 78.7728 58.6549 78.9421H59.5989C59.5978 78.8357 59.581 78.7424 59.5484 78.6621C59.517 78.5807 59.4687 78.5178 59.4036 78.4733C59.3385 78.4277 59.2549 78.4049 59.1529 78.4049ZM61.4951 79.5117C61.4951 79.6257 61.4663 79.7217 61.4088 79.7998C61.3524 79.8768 61.271 79.9349 61.1647 79.974C61.0594 80.013 60.9335 80.0326 60.7871 80.0326C60.6623 80.0326 60.5543 80.0228 60.4632 80.0033C60.372 79.9837 60.2923 79.9561 60.2239 79.9202V79.6712C60.2966 79.707 60.3834 79.7396 60.4843 79.7689C60.5852 79.7982 60.6883 79.8128 60.7936 79.8128C60.9476 79.8128 61.0594 79.7879 61.1289 79.738C61.1983 79.688 61.233 79.6202 61.233 79.5345C61.233 79.4857 61.2189 79.4428 61.1907 79.4059C61.1636 79.3679 61.1175 79.3316 61.0524 79.2969C60.9873 79.2611 60.8972 79.222 60.7822 79.1797C60.6682 79.1363 60.5695 79.0934 60.4859 79.0511C60.4035 79.0077 60.3395 78.9551 60.2939 78.8932C60.2494 78.8314 60.2272 78.7511 60.2272 78.6523C60.2272 78.5015 60.2879 78.386 60.4095 78.3057C60.5321 78.2243 60.6927 78.1836 60.8912 78.1836C60.9986 78.1836 61.099 78.1944 61.1923 78.2161C61.2867 78.2368 61.3746 78.265 61.456 78.3008L61.3649 78.5173C61.2911 78.4858 61.2124 78.4592 61.1289 78.4375C61.0453 78.4158 60.9601 78.4049 60.8733 78.4049C60.7485 78.4049 60.6525 78.4256 60.5852 78.4668C60.519 78.508 60.4859 78.5645 60.4859 78.6361C60.4859 78.6914 60.5011 78.737 60.5315 78.7728C60.563 78.8086 60.6129 78.8422 60.6813 78.8737C60.7496 78.9052 60.8397 78.9421 60.9514 78.9844C61.0632 79.0256 61.1598 79.0685 61.2412 79.113C61.3225 79.1564 61.3849 79.2095 61.4283 79.2725C61.4728 79.3343 61.4951 79.4141 61.4951 79.5117ZM62.5058 79.8112C62.5503 79.8112 62.5959 79.8074 62.6425 79.7998C62.6892 79.7922 62.7272 79.783 62.7565 79.7721V79.9821C62.725 79.9962 62.681 80.0081 62.6246 80.0179C62.5693 80.0277 62.515 80.0326 62.4619 80.0326C62.3675 80.0326 62.2817 80.0163 62.2047 79.9837C62.1277 79.9501 62.0658 79.8937 62.0192 79.8145C61.9736 79.7352 61.9508 79.6257 61.9508 79.4857V78.4277H61.6969V78.2959L61.9524 78.1901L62.0598 77.8027H62.2226V78.2161H62.7451V78.4277H62.2226V79.4775C62.2226 79.5893 62.2481 79.6729 62.2991 79.7282C62.3512 79.7835 62.4201 79.8112 62.5058 79.8112ZM63.8046 78.1836C63.9565 78.1836 64.0868 78.2172 64.1953 78.2845C64.3038 78.3518 64.3868 78.4462 64.4443 78.5677C64.5018 78.6882 64.5305 78.8292 64.5305 78.9909V79.1585H63.2984C63.3017 79.3679 63.3538 79.5275 63.4547 79.637C63.5556 79.7466 63.6978 79.8014 63.8811 79.8014C63.994 79.8014 64.0938 79.7911 64.1806 79.7705C64.2674 79.7499 64.3575 79.7195 64.4508 79.6794V79.917C64.3607 79.9571 64.2712 79.9864 64.1822 80.0049C64.0943 80.0233 63.9902 80.0326 63.8697 80.0326C63.6983 80.0326 63.5486 79.9978 63.4205 79.9284C63.2936 79.8579 63.1948 79.7548 63.1243 79.6191C63.0538 79.4835 63.0185 79.3175 63.0185 79.1211C63.0185 78.929 63.0505 78.763 63.1145 78.623C63.1796 78.482 63.2708 78.3735 63.388 78.2975C63.5062 78.2216 63.6451 78.1836 63.8046 78.1836ZM63.8014 78.4049C63.6571 78.4049 63.542 78.4521 63.4563 78.5465C63.3706 78.641 63.3196 78.7728 63.3033 78.9421H64.2473C64.2463 78.8357 64.2294 78.7424 64.1969 78.6621C64.1654 78.5807 64.1171 78.5178 64.052 78.4733C63.9869 78.4277 63.9034 78.4049 63.8014 78.4049ZM65.8001 78.1836C65.8359 78.1836 65.8733 78.1858 65.9124 78.1901C65.9514 78.1934 65.9862 78.1982 66.0165 78.2048L65.9824 78.4554C65.9531 78.4478 65.9205 78.4418 65.8847 78.4375C65.8489 78.4332 65.8153 78.431 65.7838 78.431C65.7122 78.431 65.6444 78.4456 65.5803 78.4749C65.5174 78.5031 65.4621 78.5444 65.4143 78.5986C65.3666 78.6518 65.3292 78.7164 65.302 78.7923C65.2749 78.8672 65.2613 78.9507 65.2613 79.043V80H64.9895V78.2161H65.2141L65.2434 78.5449H65.2548C65.2917 78.4787 65.3362 78.4185 65.3883 78.3643C65.4404 78.3089 65.5006 78.265 65.569 78.2324C65.6384 78.1999 65.7154 78.1836 65.8001 78.1836ZM66.9882 80.0326C66.7625 80.0326 66.5835 79.9555 66.4511 79.8014C66.3198 79.6474 66.2542 79.4184 66.2542 79.1146C66.2542 78.8075 66.3215 78.5758 66.456 78.4196C66.5905 78.2623 66.7696 78.1836 66.9931 78.1836C67.0875 78.1836 67.17 78.1961 67.2405 78.221C67.311 78.246 67.3718 78.2796 67.4228 78.3219C67.4738 78.3632 67.5167 78.4104 67.5514 78.4635H67.5709C67.5666 78.4299 67.5622 78.3838 67.5579 78.3252C67.5535 78.2666 67.5514 78.2189 67.5514 78.182V77.4674H67.8216V80H67.6035L67.5628 79.7461H67.5514C67.5177 79.7993 67.4749 79.8475 67.4228 79.891C67.3718 79.9344 67.3105 79.9691 67.2389 79.9951C67.1683 80.0201 67.0848 80.0326 66.9882 80.0326ZM67.0305 79.8079C67.2215 79.8079 67.3566 79.7537 67.4358 79.6452C67.515 79.5367 67.5546 79.3755 67.5546 79.1618V79.113C67.5546 78.8862 67.5167 78.712 67.4407 78.5905C67.3658 78.469 67.2291 78.4082 67.0305 78.4082C66.8645 78.4082 66.7403 78.4722 66.6578 78.6003C66.5754 78.7272 66.5341 78.9008 66.5341 79.1211C66.5341 79.3403 66.5748 79.5095 66.6562 79.6289C66.7387 79.7483 66.8634 79.8079 67.0305 79.8079ZM69.0618 78.1868C69.2745 78.1868 69.4323 78.2346 69.5354 78.3301C69.6385 78.4256 69.6901 78.578 69.6901 78.7874V80H69.4931L69.441 79.7363H69.428C69.3781 79.8014 69.326 79.8562 69.2718 79.9007C69.2175 79.9441 69.1546 79.9772 69.083 80C69.0124 80.0217 68.9256 80.0326 68.8225 80.0326C68.714 80.0326 68.6175 80.0136 68.5328 79.9756C68.4493 79.9376 68.3831 79.8801 68.3343 79.8031C68.2865 79.726 68.2626 79.6284 68.2626 79.5101C68.2626 79.3321 68.3332 79.1954 68.4742 79.0999C68.6153 79.0044 68.8301 78.9524 69.1188 78.9437L69.4264 78.9307V78.8216C69.4264 78.6675 69.3933 78.5596 69.3271 78.4977C69.2609 78.4359 69.1676 78.4049 69.0471 78.4049C68.9538 78.4049 68.8649 78.4185 68.7802 78.4456C68.6956 78.4728 68.6153 78.5048 68.5393 78.5417L68.4563 78.3366C68.5366 78.2954 68.6289 78.2601 68.733 78.2308C68.8372 78.2015 68.9468 78.1868 69.0618 78.1868ZM69.4231 79.1211L69.1513 79.1325C68.9289 79.1412 68.7721 79.1775 68.6809 79.2415C68.5898 79.3056 68.5442 79.3962 68.5442 79.5133C68.5442 79.6153 68.5751 79.6908 68.637 79.7396C68.6988 79.7884 68.7808 79.8128 68.8828 79.8128C69.0412 79.8128 69.1708 79.7689 69.2718 79.681C69.3727 79.5931 69.4231 79.4613 69.4231 79.2855V79.1211ZM69.9651 78.2161H70.2548L70.6487 79.2513C70.6715 79.3121 70.6927 79.3707 70.7122 79.4271C70.7317 79.4824 70.7491 79.5356 70.7643 79.5866C70.7795 79.6376 70.7914 79.687 70.8001 79.7347H70.8115C70.8267 79.6804 70.8484 79.6094 70.8766 79.5215C70.9048 79.4325 70.9352 79.3419 70.9677 79.2497L71.3404 78.2161H71.6318L70.8554 80.262C70.8142 80.3716 70.7659 80.4671 70.7106 80.5485C70.6563 80.6299 70.5901 80.6923 70.512 80.7357C70.4339 80.7802 70.3395 80.8024 70.2288 80.8024C70.1778 80.8024 70.1328 80.7992 70.0937 80.7926C70.0546 80.7872 70.021 80.7807 69.9928 80.7731V80.5566C70.0167 80.5621 70.0454 80.5669 70.079 80.5713C70.1138 80.5756 70.1496 80.5778 70.1865 80.5778C70.2537 80.5778 70.3118 80.5648 70.3606 80.5387C70.4105 80.5138 70.4534 80.4769 70.4892 80.4281C70.525 80.3792 70.5559 80.3212 70.582 80.2539L70.6796 80.0033L69.9651 78.2161Z" fill="#666666"/>
<mask id="mask0_7578_103599" style="mask-type:alpha" maskUnits="userSpaceOnUse" x="49" y="54" width="29" height="19">
<path d="M49.5811 58.5978C49.5811 56.1432 51.5709 54.1533 54.0255 54.1533H73.1318C75.433 54.1533 77.2984 56.0188 77.2984 58.32V72.0881H49.5811V58.5978Z" fill="#CCCCCC"/>
</mask>
<g mask="url(#mask0_7578_103599)">
<line y1="-0.277778" x2="37.604" y2="-0.277778" transform="matrix(-0.848766 0.528769 -0.848766 -0.528769 77.3027 35.8516)" stroke="black" stroke-width="0.555556"/>
<line y1="-0.277778" x2="37.604" y2="-0.277778" transform="matrix(-0.848766 0.528769 -0.848766 -0.528769 77.3027 38.4521)" stroke="black" stroke-width="0.555556"/>
<line y1="-0.138889" x2="37.604" y2="-0.138889" transform="matrix(-0.848766 0.528769 -0.848766 -0.528769 77.3027 41.0508)" stroke="#FF8A01" stroke-width="0.277778"/>
<line y1="-0.138889" x2="37.604" y2="-0.138889" transform="matrix(-0.848766 0.528769 -0.848766 -0.528769 77.3027 43.6514)" stroke="#FF8A01" stroke-width="0.277778"/>
<line y1="-0.138889" x2="37.604" y2="-0.138889" transform="matrix(-0.848766 0.528769 -0.848766 -0.528769 77.3027 46.2539)" stroke="#FF8A01" stroke-width="0.277778"/>
<line y1="-0.138889" x2="37.604" y2="-0.138889" transform="matrix(-0.848766 0.528769 -0.848766 -0.528769 77.3027 48.8545)" stroke="#FF8A01" stroke-width="0.277778"/>
<line y1="-0.138889" x2="37.604" y2="-0.138889" transform="matrix(-0.848766 0.528769 -0.848766 -0.528769 77.3027 51.4551)" stroke="#FF8A01" stroke-width="0.277778"/>
<line y1="-0.138889" x2="37.604" y2="-0.138889" transform="matrix(-0.848766 0.528769 -0.848766 -0.528769 77.3027 54.1543)" stroke="#FF8A01" stroke-width="0.277778"/>
<line y1="-0.138889" x2="37.604" y2="-0.138889" transform="matrix(-0.848766 0.528769 -0.848766 -0.528769 77.3027 56.7559)" stroke="#FF8A01" stroke-width="0.277778"/>
<line y1="-0.138889" x2="37.604" y2="-0.138889" transform="matrix(-0.848766 0.528769 -0.848766 -0.528769 77.3027 59.3584)" stroke="#FF8A01" stroke-width="0.277778"/>
<line y1="-0.138889" x2="37.604" y2="-0.138889" transform="matrix(-0.848766 0.528769 -0.848766 -0.528769 77.3027 61.957)" stroke="#FF8A01" stroke-width="0.277778"/>
<line y1="-0.138889" x2="37.604" y2="-0.138889" transform="matrix(-0.848766 0.528769 -0.848766 -0.528769 77.3027 64.5576)" stroke="#FF8A01" stroke-width="0.277778"/>
<line y1="-0.138889" x2="37.604" y2="-0.138889" transform="matrix(-0.848766 0.528769 -0.848766 -0.528769 77.3027 67.1602)" stroke="#FF8A01" stroke-width="0.277778"/>
<line y1="-0.138889" x2="37.604" y2="-0.138889" transform="matrix(-0.848766 0.528769 -0.848766 -0.528769 77.3027 69.7607)" stroke="#FF8A01" stroke-width="0.277778"/>
</g>
<g filter="url(#filter1_d_7578_103599)">
<rect x="52.8486" y="48.9355" width="21.1957" height="9.78261" rx="4.16667" fill="white"/>
<rect x="52.9875" y="49.0744" width="20.9179" height="9.50483" rx="4.02778" stroke="url(#paint1_linear_7578_103599)" stroke-width="0.277778"/>
</g>
<circle cx="63.4461" cy="58.5535" r="0.815217" fill="#ECECEC"/>
<circle cx="63.4471" cy="58.5546" r="0.48913" fill="black"/>
<path d="M60.7733 54.8926H58.8934V54.5565L59.6131 53.8273C59.7524 53.6855 59.8669 53.5634 59.9568 53.4608C60.0467 53.357 60.1132 53.2589 60.1562 53.1665C60.2005 53.0741 60.2227 52.9735 60.2227 52.8646C60.2227 52.7304 60.184 52.6291 60.1068 52.5608C60.0296 52.4911 59.9277 52.4563 59.8011 52.4563C59.6808 52.4563 59.5694 52.4804 59.4669 52.5285C59.3656 52.5753 59.2606 52.6424 59.1517 52.7298L58.9067 52.4354C58.984 52.3696 59.0662 52.3095 59.1536 52.255C59.2422 52.2006 59.3409 52.1576 59.4498 52.1259C59.5587 52.093 59.6827 52.0766 59.822 52.0766C59.998 52.0766 60.1499 52.1082 60.2777 52.1715C60.4056 52.2335 60.5037 52.3202 60.572 52.4316C60.6417 52.543 60.6765 52.6728 60.6765 52.8209C60.6765 52.9703 60.6467 53.1083 60.5872 53.2349C60.5277 53.3615 60.4429 53.4868 60.3328 53.6108C60.2227 53.7336 60.0916 53.8672 59.9397 54.0115L59.4593 54.4805V54.5014H60.7733V54.8926ZM62.9988 53.5026C62.9988 53.7267 62.9811 53.9273 62.9456 54.1045C62.9115 54.2805 62.857 54.4299 62.7823 54.5527C62.7076 54.6755 62.6102 54.7692 62.4899 54.8337C62.3696 54.8983 62.2241 54.9306 62.0532 54.9306C61.8392 54.9306 61.6626 54.8742 61.5234 54.7616C61.3841 54.6476 61.281 54.4843 61.2139 54.2716C61.1468 54.0577 61.1132 53.8014 61.1132 53.5026C61.1132 53.2038 61.1436 52.9481 61.2044 52.7355C61.2664 52.5215 61.3664 52.3576 61.5044 52.2437C61.6424 52.1297 61.8253 52.0728 62.0532 52.0728C62.2684 52.0728 62.4456 52.1297 62.5849 52.2437C62.7254 52.3563 62.8292 52.5196 62.8963 52.7336C62.9646 52.9462 62.9988 53.2026 62.9988 53.5026ZM61.5633 53.5026C61.5633 53.7368 61.5785 53.9324 61.6088 54.0894C61.6405 54.2463 61.6924 54.3641 61.7645 54.4425C61.8367 54.5198 61.9329 54.5584 62.0532 54.5584C62.1734 54.5584 62.2696 54.5198 62.3418 54.4425C62.414 54.3653 62.4659 54.2482 62.4975 54.0913C62.5304 53.9343 62.5469 53.7381 62.5469 53.5026C62.5469 53.2697 62.5311 53.0747 62.4994 52.9178C62.4678 52.7608 62.4159 52.643 62.3437 52.5646C62.2715 52.4848 62.1747 52.4449 62.0532 52.4449C61.9316 52.4449 61.8348 52.4848 61.7626 52.5646C61.6918 52.643 61.6405 52.7608 61.6088 52.9178C61.5785 53.0747 61.5633 53.2697 61.5633 53.5026ZM63.9368 52.0766C64.1407 52.0766 64.2951 52.1525 64.4002 52.3044C64.5052 52.4551 64.5578 52.6684 64.5578 52.9443C64.5578 53.219 64.5071 53.4336 64.4059 53.5881C64.3059 53.7425 64.1495 53.8197 63.9368 53.8197C63.7381 53.8197 63.5868 53.7425 63.483 53.5881C63.3792 53.4336 63.3273 53.219 63.3273 52.9443C63.3273 52.6684 63.376 52.4551 63.4735 52.3044C63.5723 52.1525 63.7267 52.0766 63.9368 52.0766ZM63.9387 52.388C63.8565 52.388 63.7957 52.4342 63.7565 52.5266C63.7185 52.619 63.6995 52.7589 63.6995 52.9462C63.6995 53.1323 63.7185 53.2728 63.7565 53.3678C63.7957 53.4615 63.8565 53.5083 63.9387 53.5083C64.0223 53.5083 64.0843 53.4615 64.1248 53.3678C64.1666 53.2741 64.1875 53.1336 64.1875 52.9462C64.1875 52.7601 64.1672 52.6209 64.1267 52.5285C64.0862 52.4348 64.0236 52.388 63.9387 52.388ZM65.8015 52.1164L64.2616 54.8926H63.8951L65.4351 52.1164H65.8015ZM65.7503 53.1874C65.9541 53.1874 66.1085 53.2633 66.2136 53.4153C66.3199 53.5659 66.3731 53.7792 66.3731 54.0552C66.3731 54.3286 66.3225 54.5426 66.2212 54.697C66.1212 54.8514 65.9642 54.9287 65.7503 54.9287C65.5515 54.9287 65.4002 54.8514 65.2964 54.697C65.1926 54.5426 65.1407 54.3286 65.1407 54.0552C65.1407 53.7792 65.1895 53.5659 65.2869 53.4153C65.3857 53.2633 65.5401 53.1874 65.7503 53.1874ZM65.7522 53.4988C65.6699 53.4988 65.6091 53.545 65.5699 53.6374C65.5319 53.7298 65.5129 53.8697 65.5129 54.0571C65.5129 54.2432 65.5319 54.3837 65.5699 54.4786C65.6091 54.5723 65.6699 54.6191 65.7522 54.6191C65.837 54.6191 65.8996 54.5729 65.9402 54.4805C65.9807 54.3868 66.0009 54.2457 66.0009 54.0571C66.0009 53.871 65.9807 53.7317 65.9402 53.6393C65.8996 53.5456 65.837 53.4988 65.7522 53.4988Z" fill="#444444"/>
<path d="M56.5312 46.7402H54.972V46.514L55.6084 45.8678C55.7267 45.7485 55.826 45.6421 55.9062 45.5488C55.9876 45.4555 56.0495 45.3638 56.0918 45.2738C56.1341 45.1826 56.1553 45.0828 56.1553 44.9743C56.1553 44.8397 56.1151 44.7372 56.0348 44.6667C55.9556 44.5951 55.8509 44.5592 55.7207 44.5592C55.6068 44.5592 55.5059 44.5788 55.418 44.6178C55.3301 44.6569 55.24 44.7122 55.1478 44.7839L55.0029 44.6016C55.0659 44.5484 55.1342 44.5012 55.208 44.46C55.2829 44.4187 55.3626 44.3862 55.4473 44.3623C55.533 44.3384 55.6241 44.3265 55.7207 44.3265C55.8672 44.3265 55.9936 44.352 56.0999 44.403C56.2063 44.454 56.2882 44.5267 56.3457 44.6211C56.4043 44.7155 56.4336 44.8278 56.4336 44.958C56.4336 45.0839 56.4086 45.2011 56.3587 45.3096C56.3088 45.417 56.2388 45.5239 56.1488 45.6302C56.0587 45.7355 55.9535 45.8472 55.833 45.9655L55.3154 46.4814V46.4928H56.5312V46.7402ZM58.4518 45.5472C58.4518 45.7403 58.4372 45.9129 58.4079 46.0648C58.3786 46.2167 58.3325 46.3453 58.2695 46.4505C58.2066 46.5558 58.1252 46.6361 58.0254 46.6914C57.9256 46.7457 57.8057 46.7728 57.6657 46.7728C57.4888 46.7728 57.3423 46.7245 57.2262 46.6279C57.1112 46.5314 57.025 46.3919 56.9674 46.2096C56.911 46.0263 56.8828 45.8054 56.8828 45.5472C56.8828 45.2933 56.9083 45.0752 56.9593 44.8929C57.0114 44.7095 57.0949 44.569 57.21 44.4714C57.325 44.3726 57.4769 44.3232 57.6657 44.3232C57.8447 44.3232 57.9923 44.3721 58.1084 44.4697C58.2245 44.5663 58.3108 44.7063 58.3672 44.8896C58.4236 45.0719 58.4518 45.2911 58.4518 45.5472ZM57.1546 45.5472C57.1546 45.7686 57.1714 45.953 57.2051 46.1006C57.2387 46.2482 57.293 46.3588 57.3678 46.4326C57.4438 46.5053 57.5431 46.5417 57.6657 46.5417C57.7883 46.5417 57.887 46.5053 57.9619 46.4326C58.0379 46.3599 58.0927 46.2498 58.1263 46.1022C58.161 45.9546 58.1784 45.7696 58.1784 45.5472C58.1784 45.3291 58.1616 45.1468 58.1279 45.0003C58.0943 44.8528 58.04 44.7421 57.9652 44.6683C57.8903 44.5934 57.7905 44.556 57.6657 44.556C57.5409 44.556 57.4411 44.5934 57.3662 44.6683C57.2913 44.7421 57.2371 44.8528 57.2035 45.0003C57.1709 45.1468 57.1546 45.3291 57.1546 45.5472ZM60.3594 45.5472C60.3594 45.7403 60.3447 45.9129 60.3154 46.0648C60.2861 46.2167 60.24 46.3453 60.1771 46.4505C60.1141 46.5558 60.0328 46.6361 59.9329 46.6914C59.8331 46.7457 59.7132 46.7728 59.5732 46.7728C59.3964 46.7728 59.2499 46.7245 59.1338 46.6279C59.0188 46.5314 58.9325 46.3919 58.875 46.2096C58.8186 46.0263 58.7904 45.8054 58.7904 45.5472C58.7904 45.2933 58.8159 45.0752 58.8669 44.8929C58.9189 44.7095 59.0025 44.569 59.1175 44.4714C59.2325 44.3726 59.3844 44.3232 59.5732 44.3232C59.7523 44.3232 59.8998 44.3721 60.016 44.4697C60.1321 44.5663 60.2183 44.7063 60.2747 44.8896C60.3312 45.0719 60.3594 45.2911 60.3594 45.5472ZM59.0622 45.5472C59.0622 45.7686 59.079 45.953 59.1126 46.1006C59.1463 46.2482 59.2005 46.3588 59.2754 46.4326C59.3513 46.5053 59.4506 46.5417 59.5732 46.5417C59.6959 46.5417 59.7946 46.5053 59.8695 46.4326C59.9454 46.3599 60.0002 46.2498 60.0339 46.1022C60.0686 45.9546 60.0859 45.7696 60.0859 45.5472C60.0859 45.3291 60.0691 45.1468 60.0355 45.0003C60.0018 44.8528 59.9476 44.7421 59.8727 44.6683C59.7979 44.5934 59.698 44.556 59.5732 44.556C59.4485 44.556 59.3486 44.5934 59.2738 44.6683C59.1989 44.7421 59.1446 44.8528 59.111 45.0003C59.0785 45.1468 59.0622 45.3291 59.0622 45.5472ZM61.7168 44.3607L60.8314 46.7402H60.5645L61.4515 44.3607H61.7168ZM62.9245 46.7402H62.6608V45.054C62.6608 44.99 62.6608 44.9352 62.6608 44.8896C62.6619 44.843 62.663 44.8007 62.6641 44.7627C62.6662 44.7236 62.6689 44.684 62.6722 44.6439C62.6386 44.6786 62.6071 44.7084 62.5778 44.7334C62.5485 44.7573 62.5122 44.7871 62.4687 44.8229L62.1969 45.041L62.0553 44.8571L62.6999 44.3607H62.9245V46.7402ZM65.3984 45.5472C65.3984 45.7403 65.3838 45.9129 65.3545 46.0648C65.3252 46.2167 65.2791 46.3453 65.2161 46.4505C65.1532 46.5558 65.0718 46.6361 64.972 46.6914C64.8722 46.7457 64.7523 46.7728 64.6123 46.7728C64.4354 46.7728 64.289 46.7245 64.1729 46.6279C64.0578 46.5314 63.9716 46.3919 63.9141 46.2096C63.8576 46.0263 63.8294 45.8054 63.8294 45.5472C63.8294 45.2933 63.8549 45.0752 63.9059 44.8929C63.958 44.7095 64.0416 44.569 64.1566 44.4714C64.2716 44.3726 64.4235 44.3232 64.6123 44.3232C64.7913 44.3232 64.9389 44.3721 65.055 44.4697C65.1711 44.5663 65.2574 44.7063 65.3138 44.8896C65.3702 45.0719 65.3984 45.2911 65.3984 45.5472ZM64.1012 45.5472C64.1012 45.7686 64.1181 45.953 64.1517 46.1006C64.1853 46.2482 64.2396 46.3588 64.3145 46.4326C64.3904 46.5053 64.4897 46.5417 64.6123 46.5417C64.7349 46.5417 64.8337 46.5053 64.9085 46.4326C64.9845 46.3599 65.0393 46.2498 65.0729 46.1022C65.1076 45.9546 65.125 45.7696 65.125 45.5472C65.125 45.3291 65.1082 45.1468 65.0745 45.0003C65.0409 44.8528 64.9867 44.7421 64.9118 44.6683C64.8369 44.5934 64.7371 44.556 64.6123 44.556C64.4875 44.556 64.3877 44.5934 64.3128 44.6683C64.238 44.7421 64.1837 44.8528 64.1501 45.0003C64.1175 45.1468 64.1012 45.3291 64.1012 45.5472ZM67.306 45.5472C67.306 45.7403 67.2913 45.9129 67.262 46.0648C67.2327 46.2167 67.1866 46.3453 67.1237 46.4505C67.0608 46.5558 66.9794 46.6361 66.8796 46.6914C66.7797 46.7457 66.6598 46.7728 66.5199 46.7728C66.343 46.7728 66.1965 46.7245 66.0804 46.6279C65.9654 46.5314 65.8791 46.3919 65.8216 46.2096C65.7652 46.0263 65.737 45.8054 65.737 45.5472C65.737 45.2933 65.7625 45.0752 65.8135 44.8929C65.8656 44.7095 65.9491 44.569 66.0641 44.4714C66.1791 44.3726 66.3311 44.3232 66.5199 44.3232C66.6989 44.3232 66.8465 44.3721 66.9626 44.4697C67.0787 44.5663 67.1649 44.7063 67.2214 44.8896C67.2778 45.0719 67.306 45.2911 67.306 45.5472ZM66.0088 45.5472C66.0088 45.7686 66.0256 45.953 66.0592 46.1006C66.0929 46.2482 66.1471 46.3588 66.222 46.4326C66.298 46.5053 66.3972 46.5417 66.5199 46.5417C66.6425 46.5417 66.7412 46.5053 66.8161 46.4326C66.892 46.3599 66.9468 46.2498 66.9805 46.1022C67.0152 45.9546 67.0326 45.7696 67.0326 45.5472C67.0326 45.3291 67.0157 45.1468 66.9821 45.0003C66.9485 44.8528 66.8942 44.7421 66.8193 44.6683C66.7445 44.5934 66.6446 44.556 66.5199 44.556C66.3951 44.556 66.2952 44.5934 66.2204 44.6683C66.1455 44.7421 66.0913 44.8528 66.0576 45.0003C66.0251 45.1468 66.0088 45.3291 66.0088 45.5472ZM69.2135 45.5472C69.2135 45.7403 69.1989 45.9129 69.1696 46.0648C69.1403 46.2167 69.0942 46.3453 69.0312 46.4505C68.9683 46.5558 68.8869 46.6361 68.7871 46.6914C68.6873 46.7457 68.5674 46.7728 68.4274 46.7728C68.2505 46.7728 68.1041 46.7245 67.988 46.6279C67.8729 46.5314 67.7867 46.3919 67.7292 46.2096C67.6727 46.0263 67.6445 45.8054 67.6445 45.5472C67.6445 45.2933 67.67 45.0752 67.721 44.8929C67.7731 44.7095 67.8567 44.569 67.9717 44.4714C68.0867 44.3726 68.2386 44.3232 68.4274 44.3232C68.6064 44.3232 68.754 44.3721 68.8701 44.4697C68.9862 44.5663 69.0725 44.7063 69.1289 44.8896C69.1853 45.0719 69.2135 45.2911 69.2135 45.5472ZM67.9163 45.5472C67.9163 45.7686 67.9332 45.953 67.9668 46.1006C68.0004 46.2482 68.0547 46.3588 68.1296 46.4326C68.2055 46.5053 68.3048 46.5417 68.4274 46.5417C68.55 46.5417 68.6488 46.5053 68.7236 46.4326C68.7996 46.3599 68.8544 46.2498 68.888 46.1022C68.9227 45.9546 68.9401 45.7696 68.9401 45.5472C68.9401 45.3291 68.9233 45.1468 68.8896 45.0003C68.856 44.8528 68.8018 44.7421 68.7269 44.6683C68.652 44.5934 68.5522 44.556 68.4274 44.556C68.3026 44.556 68.2028 44.5934 68.1279 44.6683C68.0531 44.7421 67.9988 44.8528 67.9652 45.0003C67.9326 45.1468 67.9163 45.3291 67.9163 45.5472Z" fill="#444444"/>
<line x1="4.91406" y1="72.2742" x2="87.088" y2="72.2742" stroke="#EEEEEE" stroke-width="0.277778"/>
<path d="M24.937 23.3812C25.0978 23.3812 25.2427 23.4065 25.3719 23.4571C25.501 23.5065 25.6035 23.5806 25.6795 23.6793C25.7554 23.778 25.7934 23.9002 25.7934 24.0458C25.7934 24.1585 25.77 24.2566 25.7231 24.3401C25.6776 24.4237 25.6155 24.4971 25.5371 24.5604C25.4586 24.6224 25.3706 24.6775 25.2731 24.7256C25.382 24.7788 25.482 24.8402 25.5731 24.9098C25.6655 24.9781 25.7396 25.0585 25.7953 25.1509C25.8523 25.2433 25.8808 25.3516 25.8808 25.4756C25.8808 25.6313 25.8409 25.7662 25.7611 25.8801C25.6826 25.9928 25.5731 26.0801 25.4326 26.1421C25.2921 26.2029 25.1282 26.2333 24.9408 26.2333C24.7395 26.2333 24.568 26.2035 24.4262 26.144C24.2844 26.0845 24.1768 25.9997 24.1034 25.8896C24.03 25.7782 23.9933 25.6453 23.9933 25.4908C23.9933 25.363 24.0186 25.2522 24.0692 25.1585C24.1199 25.0649 24.1876 24.9838 24.2724 24.9155C24.3585 24.8471 24.4528 24.7895 24.5553 24.7427C24.468 24.6908 24.3882 24.6325 24.3161 24.568C24.2439 24.5022 24.1863 24.4268 24.1433 24.342C24.1015 24.2559 24.0806 24.1566 24.0806 24.0439C24.0806 23.8996 24.1192 23.7787 24.1965 23.6812C24.2737 23.5825 24.3768 23.5078 24.506 23.4571C24.6364 23.4065 24.78 23.3812 24.937 23.3812ZM24.4186 25.4737C24.4186 25.5953 24.4617 25.6953 24.5477 25.7738C24.6338 25.8522 24.7623 25.8915 24.9332 25.8915C25.1028 25.8915 25.232 25.8529 25.3206 25.7757C25.4092 25.6984 25.4535 25.5965 25.4535 25.4699C25.4535 25.3889 25.4307 25.3174 25.3851 25.2554C25.3408 25.1933 25.2807 25.1383 25.2048 25.0902C25.1301 25.0408 25.0471 24.9952 24.956 24.9535L24.8952 24.9288C24.7965 24.9705 24.7117 25.018 24.6408 25.0712C24.5699 25.1231 24.5148 25.1819 24.4756 25.2478C24.4376 25.3136 24.4186 25.3889 24.4186 25.4737ZM24.9332 23.7249C24.8104 23.7249 24.7091 23.7553 24.6294 23.816C24.5509 23.8755 24.5117 23.9616 24.5117 24.0743C24.5117 24.154 24.5307 24.2224 24.5686 24.2794C24.6079 24.3363 24.6604 24.3857 24.7262 24.4275C24.7921 24.468 24.8649 24.5059 24.9446 24.5414C25.0218 24.5072 25.0915 24.4699 25.1535 24.4294C25.2168 24.3876 25.2668 24.3382 25.3035 24.2812C25.3415 24.223 25.3605 24.1534 25.3605 24.0724C25.3605 23.961 25.3206 23.8755 25.2408 23.816C25.1623 23.7553 25.0598 23.7249 24.9332 23.7249ZM28.1062 24.8053C28.1062 25.0294 28.0885 25.2301 28.0531 25.4073C28.0189 25.5832 27.9644 25.7326 27.8898 25.8554C27.8151 25.9782 27.7176 26.0719 27.5973 26.1364C27.4771 26.201 27.3315 26.2333 27.1606 26.2333C26.9467 26.2333 26.7701 26.177 26.6308 26.0643C26.4916 25.9504 26.3884 25.7871 26.3213 25.5744C26.2542 25.3604 26.2206 25.1041 26.2206 24.8053C26.2206 24.5066 26.251 24.2509 26.3118 24.0382C26.3738 23.8243 26.4738 23.6603 26.6118 23.5464C26.7498 23.4325 26.9327 23.3755 27.1606 23.3755C27.3758 23.3755 27.553 23.4325 27.6923 23.5464C27.8328 23.6591 27.9366 23.8224 28.0037 24.0363C28.072 24.249 28.1062 24.5053 28.1062 24.8053ZM26.6707 24.8053C26.6707 25.0395 26.6859 25.2351 26.7163 25.3921C26.7479 25.5491 26.7998 25.6668 26.872 25.7453C26.9441 25.8225 27.0403 25.8611 27.1606 25.8611C27.2809 25.8611 27.3771 25.8225 27.4492 25.7453C27.5214 25.6681 27.5733 25.551 27.6049 25.394C27.6378 25.237 27.6543 25.0408 27.6543 24.8053C27.6543 24.5724 27.6385 24.3775 27.6068 24.2205C27.5752 24.0635 27.5233 23.9458 27.4511 23.8673C27.379 23.7875 27.2821 23.7477 27.1606 23.7477C27.0391 23.7477 26.9422 23.7875 26.8701 23.8673C26.7992 23.9458 26.7479 24.0635 26.7163 24.2205C26.6859 24.3775 26.6707 24.5724 26.6707 24.8053ZM29.0443 23.3793C29.2481 23.3793 29.4025 23.4552 29.5076 23.6072C29.6127 23.7578 29.6652 23.9711 29.6652 24.2471C29.6652 24.5218 29.6146 24.7363 29.5133 24.8908C29.4133 25.0452 29.2569 25.1224 29.0443 25.1224C28.8455 25.1224 28.6942 25.0452 28.5904 24.8908C28.4866 24.7363 28.4347 24.5218 28.4347 24.2471C28.4347 23.9711 28.4835 23.7578 28.5809 23.6072C28.6797 23.4552 28.8341 23.3793 29.0443 23.3793ZM29.0462 23.6907C28.9639 23.6907 28.9031 23.7369 28.8639 23.8293C28.8259 23.9217 28.8069 24.0616 28.8069 24.249C28.8069 24.4351 28.8259 24.5756 28.8639 24.6705C28.9031 24.7642 28.9639 24.811 29.0462 24.811C29.1297 24.811 29.1918 24.7642 29.2323 24.6705C29.274 24.5768 29.2949 24.4363 29.2949 24.249C29.2949 24.0629 29.2747 23.9236 29.2342 23.8312C29.1936 23.7375 29.131 23.6907 29.0462 23.6907ZM30.909 23.4192L29.369 26.1953H29.0025L30.5425 23.4192H30.909ZM30.8577 24.4901C31.0615 24.4901 31.2159 24.5661 31.321 24.718C31.4274 24.8686 31.4805 25.0819 31.4805 25.3579C31.4805 25.6313 31.4299 25.8453 31.3286 25.9997C31.2286 26.1542 31.0716 26.2314 30.8577 26.2314C30.6589 26.2314 30.5077 26.1542 30.4039 25.9997C30.3001 25.8453 30.2482 25.6313 30.2482 25.3579C30.2482 25.0819 30.2969 24.8686 30.3944 24.718C30.4931 24.5661 30.6476 24.4901 30.8577 24.4901ZM30.8596 24.8015C30.7773 24.8015 30.7165 24.8477 30.6773 24.9402C30.6393 25.0326 30.6203 25.1725 30.6203 25.3598C30.6203 25.5459 30.6393 25.6864 30.6773 25.7814C30.7165 25.875 30.7773 25.9219 30.8596 25.9219C30.9444 25.9219 31.0071 25.8757 31.0476 25.7833C31.0881 25.6896 31.1083 25.5484 31.1083 25.3598C31.1083 25.1737 31.0881 25.0345 31.0476 24.9421C31.0071 24.8484 30.9444 24.8015 30.8596 24.8015Z" fill="#444444"/>
</g>
<defs>
<filter id="filter0_d_7578_103599" x="16.8479" y="20.2393" width="23.4175" height="12.0044" filterUnits="userSpaceOnUse" color-interpolation-filters="sRGB">
<feFlood flood-opacity="0" result="BackgroundImageFix"/>
<feColorMatrix in="SourceAlpha" type="matrix" values="0 0 0 0 0 0 0 0 0 0 0 0 0 0 0 0 0 0 127 0" result="hardAlpha"/>
<feOffset dy="1.11111"/>
<feGaussianBlur stdDeviation="0.555556"/>
<feComposite in2="hardAlpha" operator="out"/>
<feColorMatrix type="matrix" values="0 0 0 0 0 0 0 0 0 0 0 0 0 0 0 0 0 0 0.25 0"/>
<feBlend mode="normal" in2="BackgroundImageFix" result="effect1_dropShadow_7578_103599"/>
<feBlend mode="normal" in="SourceGraphic" in2="effect1_dropShadow_7578_103599" result="shape"/>
</filter>
<filter id="filter1_d_7578_103599" x="51.7375" y="48.9355" width="23.4175" height="12.0044" filterUnits="userSpaceOnUse" color-interpolation-filters="sRGB">
<feFlood flood-opacity="0" result="BackgroundImageFix"/>
<feColorMatrix in="SourceAlpha" type="matrix" values="0 0 0 0 0 0 0 0 0 0 0 0 0 0 0 0 0 0 127 0" result="hardAlpha"/>
<feOffset dy="1.11111"/>
<feGaussianBlur stdDeviation="0.555556"/>
<feComposite in2="hardAlpha" operator="out"/>
<feColorMatrix type="matrix" values="0 0 0 0 0 0 0 0 0 0 0 0 0 0 0 0 0 0 0.25 0"/>
<feBlend mode="normal" in2="BackgroundImageFix" result="effect1_dropShadow_7578_103599"/>
<feBlend mode="normal" in="SourceGraphic" in2="effect1_dropShadow_7578_103599" result="shape"/>
</filter>
<linearGradient id="paint0_linear_7578_103599" x1="28.5568" y1="20.2393" x2="28.5568" y2="30.0219" gradientUnits="userSpaceOnUse">
<stop stop-color="#ECECEC"/>
<stop offset="1" stop-color="#868686" stop-opacity="0"/>
</linearGradient>
<linearGradient id="paint1_linear_7578_103599" x1="63.4465" y1="48.9355" x2="63.4465" y2="58.7182" gradientUnits="userSpaceOnUse">
<stop stop-color="#ECECEC"/>
<stop offset="1" stop-color="#868686" stop-opacity="0"/>
</linearGradient>
<clipPath id="clip0_7578_103599">
<rect width="70" height="70" fill="white" transform="translate(11 11)"/>
</clipPath>
</defs>
</svg>
