<svg width="92" height="92" viewBox="0 0 92 92" fill="none" xmlns="http://www.w3.org/2000/svg">
<rect x="0.389831" y="0.389831" width="91.079" height="91.2203" rx="17.5424" stroke="#BEBEBE" stroke-width="0.779661"/>
<circle cx="33.8794" cy="33.0484" r="20.2222" fill="#99F7FF"/>
<circle cx="60.3226" cy="43.3167" r="15.2444" fill="#EB5757"/>
<circle cx="33.8774" cy="61.6714" r="18.0444" fill="#FAFF6E"/>
<circle cx="61.2581" cy="66.0296" r="15.2444" fill="#8863F6"/>
<rect x="14.6676" y="11.3493" width="21.6222" height="6.06667" rx="3.03333" fill="white"/>
<rect x="14.6676" y="11.3493" width="21.6222" height="6.06667" rx="3.03333" stroke="#D5D5D5" stroke-width="0.155556"/>
<circle cx="18.0452" cy="14.3831" r="1.24444" fill="#FFCF27"/>
<path d="M22.4095 13.3579C22.287 13.3579 22.1766 13.3791 22.0783 13.4217C21.9811 13.4632 21.8981 13.5239 21.8292 13.6039C21.7614 13.6829 21.7092 13.7786 21.6727 13.8911C21.6363 14.0035 21.6181 14.1301 21.6181 14.2708C21.6181 14.4572 21.6469 14.6192 21.7046 14.7569C21.7634 14.8937 21.8505 14.9995 21.9659 15.0744C22.0824 15.1494 22.2277 15.1868 22.4019 15.1868C22.5012 15.1868 22.5943 15.1787 22.6814 15.1625C22.7695 15.1453 22.8551 15.1241 22.9382 15.0987V15.3236C22.8571 15.3539 22.7721 15.3762 22.6829 15.3904C22.5938 15.4056 22.488 15.4132 22.3655 15.4132C22.1396 15.4132 21.9507 15.3666 21.7988 15.2734C21.6479 15.1793 21.5345 15.0466 21.4586 14.8754C21.3836 14.7043 21.3461 14.5022 21.3461 14.2693C21.3461 14.1012 21.3694 13.9478 21.416 13.809C21.4636 13.6693 21.5325 13.5488 21.6226 13.4475C21.7138 13.3462 21.8252 13.2682 21.9568 13.2135C22.0895 13.1578 22.2414 13.13 22.4125 13.13C22.525 13.13 22.6333 13.1411 22.7376 13.1634C22.8419 13.1857 22.9361 13.2176 23.0202 13.2591L22.9169 13.4779C22.846 13.4455 22.768 13.4176 22.6829 13.3943C22.5989 13.37 22.5077 13.3579 22.4095 13.3579ZM24.0046 13.6905C24.2031 13.6905 24.3504 13.7351 24.4466 13.8242C24.5428 13.9133 24.5909 14.0556 24.5909 14.2511V15.3828H24.4071L24.3585 15.1367H24.3464C24.2998 15.1975 24.2512 15.2486 24.2005 15.2901C24.1499 15.3307 24.0911 15.3615 24.0243 15.3828C23.9585 15.4031 23.8775 15.4132 23.7812 15.4132C23.68 15.4132 23.5898 15.3955 23.5109 15.36C23.4329 15.3246 23.3711 15.2709 23.3255 15.199C23.281 15.1271 23.2587 15.036 23.2587 14.9256C23.2587 14.7595 23.3245 14.6319 23.4562 14.5428C23.5878 14.4536 23.7883 14.405 24.0577 14.3969L24.3448 14.3848V14.283C24.3448 14.1392 24.3139 14.0384 24.2522 13.9807C24.1904 13.923 24.1033 13.8941 23.9909 13.8941C23.9038 13.8941 23.8207 13.9068 23.7418 13.9321C23.6628 13.9574 23.5878 13.9873 23.5169 14.0217L23.4395 13.8303C23.5144 13.7918 23.6005 13.7589 23.6977 13.7316C23.7949 13.7042 23.8972 13.6905 24.0046 13.6905ZM24.3418 14.5625L24.0881 14.5731C23.8805 14.5812 23.7342 14.6152 23.6491 14.6749C23.564 14.7347 23.5215 14.8192 23.5215 14.9286C23.5215 15.0238 23.5503 15.0942 23.6081 15.1398C23.6658 15.1853 23.7423 15.2081 23.8375 15.2081C23.9853 15.2081 24.1063 15.1671 24.2005 15.0851C24.2947 15.003 24.3418 14.88 24.3418 14.7159V14.5625ZM25.8928 13.6875C26.1004 13.6875 26.266 13.7589 26.3895 13.9017C26.5131 14.0445 26.5749 14.2592 26.5749 14.5458C26.5749 14.7352 26.5465 14.8942 26.4898 15.0228C26.4331 15.1514 26.3531 15.2486 26.2498 15.3145C26.1475 15.3803 26.0265 15.4132 25.8867 15.4132C25.7986 15.4132 25.7211 15.4015 25.6543 15.3783C25.5875 15.355 25.5302 15.3236 25.4826 15.2841C25.435 15.2446 25.3955 15.2015 25.3641 15.1549H25.3459C25.349 15.1944 25.3525 15.242 25.3566 15.2977C25.3616 15.3534 25.3641 15.4021 25.3641 15.4436V16.1272H25.1105V13.7179H25.3186L25.352 13.964H25.3641C25.3966 13.9133 25.4361 13.8673 25.4826 13.8257C25.5292 13.7832 25.5859 13.7498 25.6528 13.7255C25.7206 13.7002 25.8006 13.6875 25.8928 13.6875ZM25.8487 13.9002C25.7333 13.9002 25.6401 13.9225 25.5692 13.967C25.4993 14.0116 25.4482 14.0784 25.4158 14.1675C25.3834 14.2556 25.3662 14.3665 25.3641 14.5002V14.5488C25.3641 14.6896 25.3793 14.8086 25.4097 14.9058C25.4411 15.003 25.4923 15.077 25.5632 15.1276C25.6351 15.1782 25.7313 15.2036 25.8518 15.2036C25.9551 15.2036 26.0412 15.1757 26.11 15.12C26.1789 15.0643 26.23 14.9868 26.2635 14.8876C26.2979 14.7873 26.3151 14.6724 26.3151 14.5428C26.3151 14.3463 26.2766 14.1903 26.1997 14.0749C26.1237 13.9584 26.0067 13.9002 25.8487 13.9002ZM27.6382 13.6905C27.8367 13.6905 27.9841 13.7351 28.0803 13.8242C28.1765 13.9133 28.2246 14.0556 28.2246 14.2511V15.3828H28.0408L27.9922 15.1367H27.98C27.9334 15.1975 27.8848 15.2486 27.8342 15.2901C27.7836 15.3307 27.7248 15.3615 27.658 15.3828C27.5922 15.4031 27.5111 15.4132 27.4149 15.4132C27.3137 15.4132 27.2235 15.3955 27.1445 15.36C27.0666 15.3246 27.0048 15.2709 26.9592 15.199C26.9146 15.1271 26.8924 15.036 26.8924 14.9256C26.8924 14.7595 26.9582 14.6319 27.0898 14.5428C27.2215 14.4536 27.422 14.405 27.6914 14.3969L27.9785 14.3848V14.283C27.9785 14.1392 27.9476 14.0384 27.8859 13.9807C27.8241 13.923 27.737 13.8941 27.6246 13.8941C27.5375 13.8941 27.4544 13.9068 27.3754 13.9321C27.2964 13.9574 27.2215 13.9873 27.1506 14.0217L27.0731 13.8303C27.1481 13.7918 27.2342 13.7589 27.3314 13.7316C27.4286 13.7042 27.5309 13.6905 27.6382 13.6905ZM27.9755 14.5625L27.7218 14.5731C27.5142 14.5812 27.3678 14.6152 27.2828 14.6749C27.1977 14.7347 27.1552 14.8192 27.1552 14.9286C27.1552 15.0238 27.184 15.0942 27.2418 15.1398C27.2995 15.1853 27.3759 15.2081 27.4711 15.2081C27.619 15.2081 27.74 15.1671 27.8342 15.0851C27.9284 15.003 27.9755 14.88 27.9755 14.7159V14.5625ZM29.411 15.4132C29.2611 15.4132 29.129 15.3823 29.0145 15.3205C28.9001 15.2588 28.811 15.1646 28.7472 15.038C28.6834 14.9114 28.6515 14.7519 28.6515 14.5595C28.6515 14.3579 28.6849 14.1934 28.7517 14.0658C28.8196 13.9371 28.9128 13.8419 29.0312 13.7802C29.1497 13.7184 29.2844 13.6875 29.4353 13.6875C29.5184 13.6875 29.5984 13.6961 29.6753 13.7133C29.7533 13.7295 29.8171 13.7503 29.8668 13.7756L29.7908 13.9868C29.7402 13.9665 29.6814 13.9483 29.6146 13.9321C29.5488 13.9159 29.487 13.9078 29.4293 13.9078C29.3138 13.9078 29.2176 13.9326 29.1406 13.9822C29.0647 14.0318 29.0075 14.1047 28.969 14.201C28.9315 14.2972 28.9128 14.4157 28.9128 14.5564C28.9128 14.6911 28.931 14.8061 28.9674 14.9013C29.0049 14.9965 29.0601 15.0694 29.133 15.12C29.207 15.1696 29.2991 15.1944 29.4095 15.1944C29.4976 15.1944 29.5771 15.1853 29.648 15.1671C29.7189 15.1479 29.7832 15.1256 29.8409 15.1003V15.3251C29.7852 15.3534 29.7229 15.3752 29.6541 15.3904C29.5862 15.4056 29.5052 15.4132 29.411 15.4132ZM30.4881 13.7179V15.3828H30.2359V13.7179H30.4881ZM30.365 13.0951C30.4065 13.0951 30.442 13.1087 30.4714 13.1361C30.5017 13.1624 30.5169 13.2039 30.5169 13.2606C30.5169 13.3163 30.5017 13.3579 30.4714 13.3852C30.442 13.4125 30.4065 13.4262 30.365 13.4262C30.3215 13.4262 30.285 13.4125 30.2556 13.3852C30.2273 13.3579 30.2131 13.3163 30.2131 13.2606C30.2131 13.2039 30.2273 13.1624 30.2556 13.1361C30.285 13.1087 30.3215 13.0951 30.365 13.0951ZM31.5605 15.2066C31.6021 15.2066 31.6446 15.2031 31.6882 15.196C31.7317 15.1889 31.7671 15.1803 31.7945 15.1701V15.3661C31.7651 15.3793 31.7241 15.3904 31.6714 15.3995C31.6198 15.4086 31.5692 15.4132 31.5195 15.4132C31.4314 15.4132 31.3514 15.398 31.2795 15.3676C31.2076 15.3362 31.1499 15.2836 31.1063 15.2096C31.0638 15.1357 31.0425 15.0334 31.0425 14.9028V13.9154H30.8056V13.7923L31.0441 13.6936L31.1443 13.332H31.2962V13.7179H31.7839V13.9154H31.2962V14.8952C31.2962 14.9995 31.32 15.0775 31.3676 15.1291C31.4162 15.1808 31.4805 15.2066 31.5605 15.2066ZM31.8689 13.7179H32.1393L32.5069 14.684C32.5282 14.7407 32.548 14.7954 32.5662 14.8481C32.5844 14.8997 32.6006 14.9494 32.6148 14.997C32.629 15.0446 32.6401 15.0906 32.6482 15.1352H32.6589C32.673 15.0846 32.6933 15.0182 32.7196 14.9362C32.7459 14.8532 32.7743 14.7686 32.8047 14.6825L33.1526 13.7179H33.4245L32.6999 15.6274C32.6614 15.7297 32.6163 15.8188 32.5647 15.8947C32.514 15.9707 32.4523 16.0289 32.3793 16.0694C32.3064 16.111 32.2183 16.1317 32.115 16.1317C32.0674 16.1317 32.0254 16.1287 31.9889 16.1226C31.9525 16.1175 31.9211 16.1115 31.8947 16.1044V15.9023C31.917 15.9074 31.9439 15.912 31.9753 15.916C32.0077 15.9201 32.0411 15.9221 32.0755 15.9221C32.1383 15.9221 32.1925 15.9099 32.2381 15.8856C32.2846 15.8623 32.3247 15.8279 32.3581 15.7823C32.3915 15.7368 32.4204 15.6826 32.4447 15.6198L32.5358 15.3859L31.8689 13.7179Z" fill="#252525"/>
<rect x="14.6676" y="11.3493" width="21.6222" height="6.06667" rx="3.03333" fill="white"/>
<rect x="14.6676" y="11.3493" width="21.6222" height="6.06667" rx="3.03333" stroke="#D5D5D5" stroke-width="0.155556"/>
<circle cx="18.0452" cy="14.3831" r="1.24444" fill="#99F7FF"/>
<path d="M22.4095 13.3579C22.287 13.3579 22.1766 13.3791 22.0783 13.4217C21.9811 13.4632 21.8981 13.5239 21.8292 13.6039C21.7614 13.6829 21.7092 13.7786 21.6727 13.8911C21.6363 14.0035 21.6181 14.1301 21.6181 14.2708C21.6181 14.4572 21.6469 14.6192 21.7046 14.7569C21.7634 14.8937 21.8505 14.9995 21.9659 15.0744C22.0824 15.1494 22.2277 15.1868 22.4019 15.1868C22.5012 15.1868 22.5943 15.1787 22.6814 15.1625C22.7695 15.1453 22.8551 15.1241 22.9382 15.0987V15.3236C22.8571 15.3539 22.7721 15.3762 22.6829 15.3904C22.5938 15.4056 22.488 15.4132 22.3655 15.4132C22.1396 15.4132 21.9507 15.3666 21.7988 15.2734C21.6479 15.1793 21.5345 15.0466 21.4586 14.8754C21.3836 14.7043 21.3461 14.5022 21.3461 14.2693C21.3461 14.1012 21.3694 13.9478 21.416 13.809C21.4636 13.6693 21.5325 13.5488 21.6226 13.4475C21.7138 13.3462 21.8252 13.2682 21.9568 13.2135C22.0895 13.1578 22.2414 13.13 22.4125 13.13C22.525 13.13 22.6333 13.1411 22.7376 13.1634C22.8419 13.1857 22.9361 13.2176 23.0202 13.2591L22.9169 13.4779C22.846 13.4455 22.768 13.4176 22.6829 13.3943C22.5989 13.37 22.5077 13.3579 22.4095 13.3579ZM24.0046 13.6905C24.2031 13.6905 24.3504 13.7351 24.4466 13.8242C24.5428 13.9133 24.5909 14.0556 24.5909 14.2511V15.3828H24.4071L24.3585 15.1367H24.3464C24.2998 15.1975 24.2512 15.2486 24.2005 15.2901C24.1499 15.3307 24.0911 15.3615 24.0243 15.3828C23.9585 15.4031 23.8775 15.4132 23.7812 15.4132C23.68 15.4132 23.5898 15.3955 23.5109 15.36C23.4329 15.3246 23.3711 15.2709 23.3255 15.199C23.281 15.1271 23.2587 15.036 23.2587 14.9256C23.2587 14.7595 23.3245 14.6319 23.4562 14.5428C23.5878 14.4536 23.7883 14.405 24.0577 14.3969L24.3448 14.3848V14.283C24.3448 14.1392 24.3139 14.0384 24.2522 13.9807C24.1904 13.923 24.1033 13.8941 23.9909 13.8941C23.9038 13.8941 23.8207 13.9068 23.7418 13.9321C23.6628 13.9574 23.5878 13.9873 23.5169 14.0217L23.4395 13.8303C23.5144 13.7918 23.6005 13.7589 23.6977 13.7316C23.7949 13.7042 23.8972 13.6905 24.0046 13.6905ZM24.3418 14.5625L24.0881 14.5731C23.8805 14.5812 23.7342 14.6152 23.6491 14.6749C23.564 14.7347 23.5215 14.8192 23.5215 14.9286C23.5215 15.0238 23.5503 15.0942 23.6081 15.1398C23.6658 15.1853 23.7423 15.2081 23.8375 15.2081C23.9853 15.2081 24.1063 15.1671 24.2005 15.0851C24.2947 15.003 24.3418 14.88 24.3418 14.7159V14.5625ZM25.8928 13.6875C26.1004 13.6875 26.266 13.7589 26.3895 13.9017C26.5131 14.0445 26.5749 14.2592 26.5749 14.5458C26.5749 14.7352 26.5465 14.8942 26.4898 15.0228C26.4331 15.1514 26.3531 15.2486 26.2498 15.3145C26.1475 15.3803 26.0265 15.4132 25.8867 15.4132C25.7986 15.4132 25.7211 15.4015 25.6543 15.3783C25.5875 15.355 25.5302 15.3236 25.4826 15.2841C25.435 15.2446 25.3955 15.2015 25.3641 15.1549H25.3459C25.349 15.1944 25.3525 15.242 25.3566 15.2977C25.3616 15.3534 25.3641 15.4021 25.3641 15.4436V16.1272H25.1105V13.7179H25.3186L25.352 13.964H25.3641C25.3966 13.9133 25.4361 13.8673 25.4826 13.8257C25.5292 13.7832 25.5859 13.7498 25.6528 13.7255C25.7206 13.7002 25.8006 13.6875 25.8928 13.6875ZM25.8487 13.9002C25.7333 13.9002 25.6401 13.9225 25.5692 13.967C25.4993 14.0116 25.4482 14.0784 25.4158 14.1675C25.3834 14.2556 25.3662 14.3665 25.3641 14.5002V14.5488C25.3641 14.6896 25.3793 14.8086 25.4097 14.9058C25.4411 15.003 25.4923 15.077 25.5632 15.1276C25.6351 15.1782 25.7313 15.2036 25.8518 15.2036C25.9551 15.2036 26.0412 15.1757 26.11 15.12C26.1789 15.0643 26.23 14.9868 26.2635 14.8876C26.2979 14.7873 26.3151 14.6724 26.3151 14.5428C26.3151 14.3463 26.2766 14.1903 26.1997 14.0749C26.1237 13.9584 26.0067 13.9002 25.8487 13.9002ZM27.6382 13.6905C27.8367 13.6905 27.9841 13.7351 28.0803 13.8242C28.1765 13.9133 28.2246 14.0556 28.2246 14.2511V15.3828H28.0408L27.9922 15.1367H27.98C27.9334 15.1975 27.8848 15.2486 27.8342 15.2901C27.7836 15.3307 27.7248 15.3615 27.658 15.3828C27.5922 15.4031 27.5111 15.4132 27.4149 15.4132C27.3137 15.4132 27.2235 15.3955 27.1445 15.36C27.0666 15.3246 27.0048 15.2709 26.9592 15.199C26.9146 15.1271 26.8924 15.036 26.8924 14.9256C26.8924 14.7595 26.9582 14.6319 27.0898 14.5428C27.2215 14.4536 27.422 14.405 27.6914 14.3969L27.9785 14.3848V14.283C27.9785 14.1392 27.9476 14.0384 27.8859 13.9807C27.8241 13.923 27.737 13.8941 27.6246 13.8941C27.5375 13.8941 27.4544 13.9068 27.3754 13.9321C27.2964 13.9574 27.2215 13.9873 27.1506 14.0217L27.0731 13.8303C27.1481 13.7918 27.2342 13.7589 27.3314 13.7316C27.4286 13.7042 27.5309 13.6905 27.6382 13.6905ZM27.9755 14.5625L27.7218 14.5731C27.5142 14.5812 27.3678 14.6152 27.2828 14.6749C27.1977 14.7347 27.1552 14.8192 27.1552 14.9286C27.1552 15.0238 27.184 15.0942 27.2418 15.1398C27.2995 15.1853 27.3759 15.2081 27.4711 15.2081C27.619 15.2081 27.74 15.1671 27.8342 15.0851C27.9284 15.003 27.9755 14.88 27.9755 14.7159V14.5625ZM29.411 15.4132C29.2611 15.4132 29.129 15.3823 29.0145 15.3205C28.9001 15.2588 28.811 15.1646 28.7472 15.038C28.6834 14.9114 28.6515 14.7519 28.6515 14.5595C28.6515 14.3579 28.6849 14.1934 28.7517 14.0658C28.8196 13.9371 28.9128 13.8419 29.0312 13.7802C29.1497 13.7184 29.2844 13.6875 29.4353 13.6875C29.5184 13.6875 29.5984 13.6961 29.6753 13.7133C29.7533 13.7295 29.8171 13.7503 29.8668 13.7756L29.7908 13.9868C29.7402 13.9665 29.6814 13.9483 29.6146 13.9321C29.5488 13.9159 29.487 13.9078 29.4293 13.9078C29.3138 13.9078 29.2176 13.9326 29.1406 13.9822C29.0647 14.0318 29.0075 14.1047 28.969 14.201C28.9315 14.2972 28.9128 14.4157 28.9128 14.5564C28.9128 14.6911 28.931 14.8061 28.9674 14.9013C29.0049 14.9965 29.0601 15.0694 29.133 15.12C29.207 15.1696 29.2991 15.1944 29.4095 15.1944C29.4976 15.1944 29.5771 15.1853 29.648 15.1671C29.7189 15.1479 29.7832 15.1256 29.8409 15.1003V15.3251C29.7852 15.3534 29.7229 15.3752 29.6541 15.3904C29.5862 15.4056 29.5052 15.4132 29.411 15.4132ZM30.4881 13.7179V15.3828H30.2359V13.7179H30.4881ZM30.365 13.0951C30.4065 13.0951 30.442 13.1087 30.4714 13.1361C30.5017 13.1624 30.5169 13.2039 30.5169 13.2606C30.5169 13.3163 30.5017 13.3579 30.4714 13.3852C30.442 13.4125 30.4065 13.4262 30.365 13.4262C30.3215 13.4262 30.285 13.4125 30.2556 13.3852C30.2273 13.3579 30.2131 13.3163 30.2131 13.2606C30.2131 13.2039 30.2273 13.1624 30.2556 13.1361C30.285 13.1087 30.3215 13.0951 30.365 13.0951ZM31.5605 15.2066C31.6021 15.2066 31.6446 15.2031 31.6882 15.196C31.7317 15.1889 31.7671 15.1803 31.7945 15.1701V15.3661C31.7651 15.3793 31.7241 15.3904 31.6714 15.3995C31.6198 15.4086 31.5692 15.4132 31.5195 15.4132C31.4314 15.4132 31.3514 15.398 31.2795 15.3676C31.2076 15.3362 31.1499 15.2836 31.1063 15.2096C31.0638 15.1357 31.0425 15.0334 31.0425 14.9028V13.9154H30.8056V13.7923L31.0441 13.6936L31.1443 13.332H31.2962V13.7179H31.7839V13.9154H31.2962V14.8952C31.2962 14.9995 31.32 15.0775 31.3676 15.1291C31.4162 15.1808 31.4805 15.2066 31.5605 15.2066ZM31.8689 13.7179H32.1393L32.5069 14.684C32.5282 14.7407 32.548 14.7954 32.5662 14.8481C32.5844 14.8997 32.6006 14.9494 32.6148 14.997C32.629 15.0446 32.6401 15.0906 32.6482 15.1352H32.6589C32.673 15.0846 32.6933 15.0182 32.7196 14.9362C32.7459 14.8532 32.7743 14.7686 32.8047 14.6825L33.1526 13.7179H33.4245L32.6999 15.6274C32.6614 15.7297 32.6163 15.8188 32.5647 15.8947C32.514 15.9707 32.4523 16.0289 32.3793 16.0694C32.3064 16.111 32.2183 16.1317 32.115 16.1317C32.0674 16.1317 32.0254 16.1287 31.9889 16.1226C31.9525 16.1175 31.9211 16.1115 31.8947 16.1044V15.9023C31.917 15.9074 31.9439 15.912 31.9753 15.916C32.0077 15.9201 32.0411 15.9221 32.0755 15.9221C32.1383 15.9221 32.1925 15.9099 32.2381 15.8856C32.2846 15.8623 32.3247 15.8279 32.3581 15.7823C32.3915 15.7368 32.4204 15.6826 32.4447 15.6198L32.5358 15.3859L31.8689 13.7179Z" fill="#252525"/>
<rect x="57.9108" y="25.0407" width="23.1778" height="6.06667" rx="3.03333" fill="white"/>
<rect x="57.9108" y="25.0407" width="23.1778" height="6.06667" rx="3.03333" stroke="#D5D5D5" stroke-width="0.155556"/>
<circle cx="61.0667" cy="28.0745" r="1.24444" fill="#EB5757"/>
<path d="M66.1617 26.8533V28.2904C66.1617 28.4473 66.1298 28.5871 66.066 28.7096C66.0032 28.8322 65.908 28.9289 65.7804 28.9998C65.6528 29.0697 65.4928 29.1046 65.3003 29.1046C65.0259 29.1046 64.8168 29.0302 64.673 28.8813C64.5302 28.7324 64.4588 28.5334 64.4588 28.2843V26.8533H64.7185V28.2919C64.7185 28.4803 64.7682 28.6256 64.8674 28.7279C64.9677 28.8302 65.117 28.8813 65.3155 28.8813C65.4512 28.8813 65.5621 28.857 65.6482 28.8084C65.7353 28.7588 65.7996 28.6899 65.8411 28.6018C65.8837 28.5127 65.9049 28.4099 65.9049 28.2934V26.8533H66.1617ZM67.2509 28.898C67.2924 28.898 67.3349 28.8945 67.3785 28.8874C67.422 28.8803 67.4575 28.8717 67.4848 28.8615V29.0575C67.4554 29.0707 67.4144 29.0818 67.3618 29.0909C67.3101 29.1 67.2595 29.1046 67.2099 29.1046C67.1217 29.1046 67.0417 29.0894 66.9698 29.059C66.8979 29.0276 66.8402 28.975 66.7967 28.901C66.7541 28.8271 66.7329 28.7248 66.7329 28.5942V27.6068H66.4959V27.4837L66.7344 27.385L66.8346 27.0234H66.9865V27.4093H67.4742V27.6068H66.9865V28.5866C66.9865 28.6909 67.0103 28.7689 67.0579 28.8205C67.1066 28.8722 67.1709 28.898 67.2509 28.898ZM68.0742 27.4093V29.0742H67.822V27.4093H68.0742ZM67.9512 26.7865C67.9927 26.7865 68.0281 26.8001 68.0575 26.8275C68.0879 26.8538 68.1031 26.8953 68.1031 26.952C68.1031 27.0077 68.0879 27.0493 68.0575 27.0766C68.0281 27.1039 67.9927 27.1176 67.9512 27.1176C67.9076 27.1176 67.8712 27.1039 67.8418 27.0766C67.8134 27.0493 67.7993 27.0077 67.7993 26.952C67.7993 26.8953 67.8134 26.8538 67.8418 26.8275C67.8712 26.8001 67.9076 26.7865 67.9512 26.7865ZM68.8626 29.0742H68.6089V26.7105H68.8626V29.0742ZM69.648 27.4093V29.0742H69.3958V27.4093H69.648ZM69.525 26.7865C69.5665 26.7865 69.6019 26.8001 69.6313 26.8275C69.6617 26.8538 69.6769 26.8953 69.6769 26.952C69.6769 27.0077 69.6617 27.0493 69.6313 27.0766C69.6019 27.1039 69.5665 27.1176 69.525 27.1176C69.4814 27.1176 69.445 27.1039 69.4156 27.0766C69.3872 27.0493 69.373 27.0077 69.373 26.952C69.373 26.8953 69.3872 26.8538 69.4156 26.8275C69.445 26.8001 69.4814 26.7865 69.525 26.7865ZM71.2522 29.0742H70.0384V28.9071L70.9514 27.6068H70.0961V27.4093H71.2324V27.5961L70.3316 28.8783H71.2522V29.0742ZM72.2639 27.3819C72.4624 27.3819 72.6097 27.4265 72.7059 27.5156C72.8022 27.6047 72.8503 27.747 72.8503 27.9425V29.0742H72.6664L72.6178 28.8281H72.6057C72.5591 28.8889 72.5105 28.94 72.4599 28.9816C72.4092 29.0221 72.3505 29.053 72.2836 29.0742C72.2178 29.0945 72.1368 29.1046 72.0406 29.1046C71.9393 29.1046 71.8492 29.0869 71.7702 29.0514C71.6922 29.016 71.6304 28.9623 71.5849 28.8904C71.5403 28.8185 71.518 28.7274 71.518 28.617C71.518 28.4509 71.5838 28.3233 71.7155 28.2342C71.8471 28.145 72.0477 28.0964 72.3171 28.0883L72.6042 28.0762V27.9744C72.6042 27.8306 72.5733 27.7298 72.5115 27.6721C72.4497 27.6144 72.3626 27.5855 72.2502 27.5855C72.1631 27.5855 72.0801 27.5982 72.0011 27.6235C71.9221 27.6488 71.8471 27.6787 71.7763 27.7131L71.6988 27.5217C71.7737 27.4832 71.8598 27.4503 71.957 27.423C72.0543 27.3956 72.1565 27.3819 72.2639 27.3819ZM72.6011 28.2539L72.3474 28.2645C72.1398 28.2726 71.9935 28.3066 71.9084 28.3663C71.8234 28.4261 71.7808 28.5106 71.7808 28.62C71.7808 28.7152 71.8097 28.7856 71.8674 28.8312C71.9251 28.8767 72.0016 28.8995 72.0968 28.8995C72.2446 28.8995 72.3657 28.8585 72.4599 28.7765C72.554 28.6944 72.6011 28.5714 72.6011 28.4073V28.2539ZM73.9076 28.898C73.9491 28.898 73.9916 28.8945 74.0352 28.8874C74.0787 28.8803 74.1141 28.8717 74.1415 28.8615V29.0575C74.1121 29.0707 74.0711 29.0818 74.0184 29.0909C73.9668 29.1 73.9162 29.1046 73.8665 29.1046C73.7784 29.1046 73.6984 29.0894 73.6265 29.059C73.5546 29.0276 73.4969 28.975 73.4533 28.901C73.4108 28.8271 73.3895 28.7248 73.3895 28.5942V27.6068H73.1526V27.4837L73.3911 27.385L73.4913 27.0234H73.6432V27.4093H74.1309V27.6068H73.6432V28.5866C73.6432 28.6909 73.667 28.7689 73.7146 28.8205C73.7632 28.8722 73.8275 28.898 73.9076 28.898ZM74.7309 27.4093V29.0742H74.4787V27.4093H74.7309ZM74.6079 26.7865C74.6494 26.7865 74.6848 26.8001 74.7142 26.8275C74.7446 26.8538 74.7598 26.8953 74.7598 26.952C74.7598 27.0077 74.7446 27.0493 74.7142 27.0766C74.6848 27.1039 74.6494 27.1176 74.6079 27.1176C74.5643 27.1176 74.5278 27.1039 74.4985 27.0766C74.4701 27.0493 74.4559 27.0077 74.4559 26.952C74.4559 26.8953 74.4701 26.8538 74.4985 26.8275C74.5278 26.8001 74.5643 26.7865 74.6079 26.7865ZM76.7012 28.2387C76.7012 28.3754 76.6834 28.4975 76.648 28.6048C76.6126 28.7122 76.5614 28.8028 76.4946 28.8767C76.4277 28.9507 76.3467 29.0074 76.2515 29.0469C76.1573 29.0854 76.0505 29.1046 75.931 29.1046C75.8196 29.1046 75.7173 29.0854 75.6241 29.0469C75.532 29.0074 75.452 28.9507 75.3841 28.8767C75.3173 28.8028 75.2651 28.7122 75.2276 28.6048C75.1912 28.4975 75.173 28.3754 75.173 28.2387C75.173 28.0564 75.2038 27.9015 75.2656 27.7739C75.3274 27.6453 75.4155 27.5475 75.5299 27.4807C75.6454 27.4128 75.7826 27.3789 75.9416 27.3789C76.0935 27.3789 76.2262 27.4128 76.3396 27.4807C76.4541 27.5485 76.5427 27.6468 76.6055 27.7754C76.6693 27.903 76.7012 28.0574 76.7012 28.2387ZM75.4342 28.2387C75.4342 28.3724 75.452 28.4884 75.4874 28.5866C75.5229 28.6848 75.5775 28.7608 75.6515 28.8145C75.7254 28.8681 75.8206 28.895 75.9371 28.895C76.0525 28.895 76.1472 28.8681 76.2211 28.8145C76.2961 28.7608 76.3513 28.6848 76.3867 28.5866C76.4222 28.4884 76.4399 28.3724 76.4399 28.2387C76.4399 28.106 76.4222 27.9916 76.3867 27.8954C76.3513 27.7982 76.2966 27.7232 76.2227 27.6706C76.1487 27.6179 76.053 27.5916 75.9355 27.5916C75.7624 27.5916 75.6353 27.6488 75.5543 27.7632C75.4742 27.8777 75.4342 28.0362 75.4342 28.2387ZM77.9256 27.3789C78.123 27.3789 78.2724 27.4275 78.3737 27.5247C78.475 27.6209 78.5256 27.7759 78.5256 27.9896V29.0742H78.2765V28.0063C78.2765 27.8675 78.2446 27.7637 78.1808 27.6949C78.118 27.626 78.0213 27.5916 77.8906 27.5916C77.7063 27.5916 77.5767 27.6437 77.5017 27.748C77.4268 27.8524 77.3893 28.0038 77.3893 28.2023V29.0742H77.1372V27.4093H77.3407L77.3787 27.6493H77.3924C77.4278 27.5906 77.4729 27.5414 77.5276 27.502C77.5822 27.4614 77.6435 27.4311 77.7114 27.4108C77.7792 27.3895 77.8506 27.3789 77.9256 27.3789Z" fill="#626262"/>
<rect x="11.5563" y="48.9957" width="22.2444" height="6.06667" rx="3.03333" fill="white"/>
<rect x="11.5563" y="48.9957" width="22.2444" height="6.06667" rx="3.03333" stroke="#D5D5D5" stroke-width="0.155556"/>
<circle cx="14.7454" cy="52.0296" r="1.24444" fill="#FAFF6E"/>
<path d="M19.137 53.0293L18.3912 51.0636H18.379C18.3831 51.1051 18.3866 51.1557 18.3896 51.2155C18.3927 51.2752 18.3952 51.3406 18.3972 51.4115C18.3993 51.4813 18.4003 51.5527 18.4003 51.6257V53.0293H18.1603V50.8084H18.5431L19.2464 52.6556H19.2571L19.971 50.8084H20.3508V53.0293H20.0956V51.6074C20.0956 51.5416 20.0966 51.4758 20.0986 51.4099C20.1007 51.3431 20.1032 51.2803 20.1062 51.2216C20.1093 51.1618 20.1123 51.1102 20.1153 51.0666H20.1032L19.3482 53.0293H19.137ZM22.356 52.1938C22.356 52.3305 22.3383 52.4525 22.3028 52.5599C22.2674 52.6672 22.2163 52.7579 22.1494 52.8318C22.0826 52.9057 22.0016 52.9625 21.9064 53.002C21.8122 53.0404 21.7053 53.0597 21.5858 53.0597C21.4744 53.0597 21.3721 53.0404 21.279 53.002C21.1868 52.9625 21.1068 52.9057 21.039 52.8318C20.9721 52.7579 20.92 52.6672 20.8825 52.5599C20.846 52.4525 20.8278 52.3305 20.8278 52.1938C20.8278 52.0115 20.8587 51.8566 20.9205 51.7289C20.9822 51.6003 21.0703 51.5026 21.1848 51.4358C21.3002 51.3679 21.4375 51.334 21.5965 51.334C21.7484 51.334 21.881 51.3679 21.9945 51.4358C22.1089 51.5036 22.1975 51.6019 22.2603 51.7305C22.3241 51.8581 22.356 52.0125 22.356 52.1938ZM21.0891 52.1938C21.0891 52.3275 21.1068 52.4434 21.1423 52.5417C21.1777 52.6399 21.2324 52.7159 21.3063 52.7695C21.3802 52.8232 21.4754 52.85 21.5919 52.85C21.7074 52.85 21.802 52.8232 21.876 52.7695C21.9509 52.7159 22.0061 52.6399 22.0416 52.5417C22.077 52.4434 22.0947 52.3275 22.0947 52.1938C22.0947 52.0611 22.077 51.9467 22.0416 51.8505C22.0061 51.7533 21.9514 51.6783 21.8775 51.6257C21.8036 51.573 21.7079 51.5467 21.5904 51.5467C21.4172 51.5467 21.2901 51.6039 21.2091 51.7183C21.1291 51.8328 21.0891 51.9912 21.0891 52.1938ZM23.869 52.5736C23.869 52.6799 23.8422 52.7695 23.7885 52.8424C23.7359 52.9144 23.6599 52.9685 23.5607 53.005C23.4624 53.0414 23.3449 53.0597 23.2082 53.0597C23.0918 53.0597 22.991 53.0506 22.9059 53.0323C22.8209 53.0141 22.7464 52.9883 22.6826 52.9549V52.7224C22.7505 52.7559 22.8315 52.7862 22.9257 52.8136C23.0199 52.8409 23.1161 52.8546 23.2143 52.8546C23.3581 52.8546 23.4624 52.8313 23.5272 52.7847C23.592 52.7381 23.6245 52.6748 23.6245 52.5948C23.6245 52.5493 23.6113 52.5093 23.585 52.4748C23.5596 52.4394 23.5166 52.4055 23.4558 52.373C23.3951 52.3396 23.311 52.3032 23.2037 52.2637C23.0973 52.2232 23.0052 52.1832 22.9272 52.1437C22.8502 52.1032 22.7905 52.054 22.7479 51.9963C22.7064 51.9386 22.6857 51.8636 22.6857 51.7715C22.6857 51.6307 22.7424 51.5229 22.8558 51.4479C22.9702 51.372 23.1201 51.334 23.3054 51.334C23.4057 51.334 23.4994 51.3441 23.5865 51.3644C23.6746 51.3836 23.7566 51.4099 23.8326 51.4434L23.7475 51.6454C23.6786 51.616 23.6052 51.5912 23.5272 51.571C23.4493 51.5507 23.3698 51.5406 23.2887 51.5406C23.1723 51.5406 23.0826 51.5598 23.0199 51.5983C22.9581 51.6368 22.9272 51.6895 22.9272 51.7563C22.9272 51.8079 22.9414 51.8505 22.9697 51.8839C22.9991 51.9173 23.0457 51.9487 23.1095 51.9781C23.1733 52.0075 23.2573 52.0419 23.3617 52.0814C23.466 52.1199 23.5561 52.1599 23.6321 52.2014C23.708 52.2419 23.7662 52.2915 23.8067 52.3503C23.8483 52.408 23.869 52.4824 23.869 52.5736ZM24.8124 52.8531C24.8539 52.8531 24.8964 52.8495 24.94 52.8424C24.9835 52.8354 25.019 52.8268 25.0463 52.8166V53.0126C25.017 53.0258 24.9759 53.0369 24.9233 53.046C24.8716 53.0551 24.821 53.0597 24.7714 53.0597C24.6833 53.0597 24.6033 53.0445 24.5314 53.0141C24.4595 52.9827 24.4017 52.93 24.3582 52.8561C24.3156 52.7822 24.2944 52.6799 24.2944 52.5493V51.5618H24.0574V51.4388L24.2959 51.3401L24.3962 50.9785H24.5481V51.3644H25.0357V51.5618H24.5481V52.5417C24.5481 52.646 24.5719 52.724 24.6195 52.7756C24.6681 52.8273 24.7324 52.8531 24.8124 52.8531ZM27.9934 51.8976C27.9934 52.1477 27.9478 52.3568 27.8567 52.525C27.7655 52.6921 27.6334 52.8181 27.4602 52.9032C27.288 52.9873 27.0789 53.0293 26.8328 53.0293H26.2297V50.8084H26.8996C27.1255 50.8084 27.3199 50.8499 27.483 50.9329C27.646 51.015 27.7716 51.137 27.8597 51.299C27.9488 51.4601 27.9934 51.6596 27.9934 51.8976ZM27.7215 51.9067C27.7215 51.7072 27.688 51.5426 27.6212 51.413C27.5554 51.2833 27.4582 51.1871 27.3295 51.1243C27.2019 51.0605 27.0455 51.0286 26.8601 51.0286H26.488V52.8075H26.8024C27.1083 52.8075 27.3376 52.7321 27.4906 52.5812C27.6445 52.4303 27.7215 52.2054 27.7215 51.9067ZM29.0719 51.337C29.2704 51.337 29.4178 51.3816 29.514 51.4707C29.6102 51.5598 29.6583 51.7021 29.6583 51.8976V53.0293H29.4745L29.4259 52.7832H29.4137C29.3672 52.844 29.3185 52.8951 29.2679 52.9366C29.2173 52.9771 29.1585 53.008 29.0917 53.0293C29.0259 53.0496 28.9448 53.0597 28.8486 53.0597C28.7474 53.0597 28.6572 53.042 28.5782 53.0065C28.5003 52.9711 28.4385 52.9174 28.3929 52.8455C28.3483 52.7736 28.3261 52.6824 28.3261 52.572C28.3261 52.406 28.3919 52.2784 28.5235 52.1892C28.6552 52.1001 28.8557 52.0515 29.1251 52.0434L29.4122 52.0313V51.9295C29.4122 51.7857 29.3813 51.6849 29.3196 51.6272C29.2578 51.5694 29.1707 51.5406 29.0583 51.5406C28.9712 51.5406 28.8881 51.5532 28.8091 51.5786C28.7301 51.6039 28.6552 51.6338 28.5843 51.6682L28.5068 51.4768C28.5818 51.4383 28.6679 51.4054 28.7651 51.378C28.8623 51.3507 28.9646 51.337 29.0719 51.337ZM29.4092 52.209L29.1555 52.2196C28.9479 52.2277 28.8015 52.2616 28.7165 52.3214C28.6314 52.3811 28.5889 52.4657 28.5889 52.5751C28.5889 52.6703 28.6177 52.7407 28.6755 52.7862C28.7332 52.8318 28.8096 52.8546 28.9048 52.8546C29.0527 52.8546 29.1737 52.8136 29.2679 52.7316C29.3621 52.6495 29.4092 52.5265 29.4092 52.3624V52.209ZM29.915 51.3644H30.1854L30.5531 52.3305C30.5743 52.3872 30.5941 52.4419 30.6123 52.4946C30.6305 52.5462 30.6467 52.5958 30.6609 52.6434C30.6751 52.691 30.6862 52.7371 30.6943 52.7817H30.705C30.7191 52.731 30.7394 52.6647 30.7657 52.5827C30.7921 52.4996 30.8204 52.4151 30.8508 52.329L31.1987 51.3644H31.4706L30.746 53.2739C30.7075 53.3762 30.6624 53.4653 30.6108 53.5412C30.5601 53.6172 30.4984 53.6754 30.4255 53.7159C30.3525 53.7575 30.2644 53.7782 30.1611 53.7782C30.1135 53.7782 30.0715 53.7752 30.035 53.7691C29.9986 53.764 29.9672 53.758 29.9409 53.7509V53.5488C29.9631 53.5539 29.99 53.5584 30.0214 53.5625C30.0538 53.5666 30.0872 53.5686 30.1216 53.5686C30.1844 53.5686 30.2386 53.5564 30.2842 53.5321C30.3308 53.5088 30.3708 53.4744 30.4042 53.4288C30.4376 53.3832 30.4665 53.3291 30.4908 53.2663L30.5819 53.0323L29.915 51.3644Z" fill="black"/>
<rect x="62.2692" y="74.5055" width="23.1778" height="6.06667" rx="3.03333" fill="white"/>
<rect x="62.2692" y="74.5055" width="23.1778" height="6.06667" rx="3.03333" stroke="#D5D5D5" stroke-width="0.155556"/>
<circle cx="65.4251" cy="77.5394" r="1.24444" fill="#8863F6"/>
<path d="M68.84 78.5391V76.3181H69.0982V78.3082H70.0841V78.5391H68.84ZM71.0685 76.8438C71.2103 76.8438 71.3318 76.8751 71.4331 76.9379C71.5343 77.0007 71.6118 77.0888 71.6655 77.2023C71.7191 77.3147 71.746 77.4463 71.746 77.5972V77.7537H70.596C70.5991 77.9491 70.6477 78.098 70.7419 78.2003C70.836 78.3026 70.9687 78.3537 71.1399 78.3537C71.2452 78.3537 71.3384 78.3441 71.4194 78.3249C71.5004 78.3056 71.5845 78.2773 71.6715 78.2398V78.4616C71.5875 78.4991 71.5039 78.5264 71.4209 78.5436C71.3389 78.5608 71.2416 78.5694 71.1292 78.5694C70.9692 78.5694 70.8295 78.537 70.71 78.4722C70.5915 78.4064 70.4993 78.3102 70.4335 78.1836C70.3677 78.057 70.3347 77.9021 70.3347 77.7188C70.3347 77.5395 70.3646 77.3845 70.4244 77.2539C70.4851 77.1223 70.5702 77.021 70.6796 76.9501C70.79 76.8792 70.9196 76.8438 71.0685 76.8438ZM71.0654 77.0503C70.9307 77.0503 70.8234 77.0944 70.7434 77.1825C70.6634 77.2706 70.6158 77.3937 70.6006 77.5516H71.4817C71.4806 77.4524 71.465 77.3653 71.4346 77.2904C71.4052 77.2144 71.3601 77.1557 71.2994 77.1141C71.2386 77.0716 71.1606 77.0503 71.0654 77.0503ZM72.7972 76.8468C72.9957 76.8468 73.143 76.8913 73.2393 76.9805C73.3355 77.0696 73.3836 77.2119 73.3836 77.4073V78.5391H73.1998L73.1511 78.293H73.139C73.0924 78.3537 73.0438 78.4049 72.9932 78.4464C72.9425 78.4869 72.8838 78.5178 72.8169 78.5391C72.7511 78.5593 72.6701 78.5694 72.5739 78.5694C72.4726 78.5694 72.3825 78.5517 72.3035 78.5163C72.2255 78.4808 72.1637 78.4272 72.1182 78.3553C72.0736 78.2833 72.0513 78.1922 72.0513 78.0818C72.0513 77.9157 72.1172 77.7881 72.2488 77.699C72.3805 77.6099 72.581 77.5613 72.8504 77.5532L73.1375 77.541V77.4392C73.1375 77.2954 73.1066 77.1947 73.0448 77.1369C72.983 77.0792 72.8959 77.0503 72.7835 77.0503C72.6964 77.0503 72.6134 77.063 72.5344 77.0883C72.4554 77.1136 72.3805 77.1435 72.3096 77.178L72.2321 76.9865C72.307 76.9481 72.3931 76.9151 72.4903 76.8878C72.5876 76.8605 72.6899 76.8468 72.7972 76.8468ZM73.1344 77.7188L72.8808 77.7294C72.6731 77.7375 72.5268 77.7714 72.4417 77.8312C72.3567 77.8909 72.3141 77.9755 72.3141 78.0849C72.3141 78.18 72.343 78.2504 72.4007 78.296C72.4584 78.3416 72.5349 78.3644 72.6301 78.3644C72.778 78.3644 72.899 78.3234 72.9932 78.2413C73.0873 78.1593 73.1344 78.0362 73.1344 77.8722V77.7188ZM74.9801 78.0833C74.9801 78.1897 74.9533 78.2793 74.8996 78.3522C74.847 78.4241 74.771 78.4783 74.6718 78.5148C74.5735 78.5512 74.4561 78.5694 74.3193 78.5694C74.2029 78.5694 74.1021 78.5603 74.017 78.5421C73.932 78.5239 73.8575 78.498 73.7937 78.4646V78.2322C73.8616 78.2656 73.9426 78.296 74.0368 78.3234C74.131 78.3507 74.2272 78.3644 74.3254 78.3644C74.4692 78.3644 74.5735 78.3411 74.6383 78.2945C74.7032 78.2479 74.7356 78.1846 74.7356 78.1046C74.7356 78.059 74.7224 78.019 74.6961 77.9846C74.6708 77.9491 74.6277 77.9152 74.5669 77.8828C74.5062 77.8494 74.4221 77.8129 74.3148 77.7734C74.2084 77.7329 74.1163 77.6929 74.0383 77.6534C73.9613 77.6129 73.9016 77.5638 73.859 77.5061C73.8175 77.4484 73.7968 77.3734 73.7968 77.2813C73.7968 77.1405 73.8535 77.0326 73.9669 76.9577C74.0813 76.8817 74.2312 76.8438 74.4166 76.8438C74.5168 76.8438 74.6105 76.8539 74.6976 76.8741C74.7857 76.8934 74.8677 76.9197 74.9437 76.9531L74.8586 77.1552C74.7897 77.1258 74.7163 77.101 74.6383 77.0807C74.5604 77.0605 74.4809 77.0503 74.3998 77.0503C74.2834 77.0503 74.1938 77.0696 74.131 77.1081C74.0692 77.1466 74.0383 77.1992 74.0383 77.2661C74.0383 77.3177 74.0525 77.3602 74.0808 77.3937C74.1102 77.4271 74.1568 77.4585 74.2206 77.4878C74.2844 77.5172 74.3685 77.5516 74.4728 77.5911C74.5771 77.6296 74.6672 77.6696 74.7432 77.7112C74.8191 77.7517 74.8774 77.8013 74.9179 77.86C74.9594 77.9178 74.9801 77.9922 74.9801 78.0833ZM75.9235 78.3628C75.965 78.3628 76.0076 78.3593 76.0511 78.3522C76.0947 78.3451 76.1301 78.3365 76.1574 78.3264V78.5224C76.1281 78.5355 76.0871 78.5467 76.0344 78.5558C75.9827 78.5649 75.9321 78.5694 75.8825 78.5694C75.7944 78.5694 75.7144 78.5543 75.6425 78.5239C75.5706 78.4925 75.5128 78.4398 75.4693 78.3659C75.4268 78.292 75.4055 78.1897 75.4055 78.059V77.0716H75.1685V76.9486L75.407 76.8498L75.5073 76.4883H75.6592V76.8741H76.1468V77.0716H75.6592V78.0514C75.6592 78.1557 75.683 78.2337 75.7306 78.2854C75.7792 78.337 75.8435 78.3628 75.9235 78.3628ZM79.1045 77.4073C79.1045 77.6575 79.0589 77.8666 78.9678 78.0347C78.8766 78.2018 78.7445 78.3279 78.5713 78.413C78.3991 78.497 78.19 78.5391 77.9439 78.5391H77.3408V76.3181H78.0107C78.2366 76.3181 78.431 76.3597 78.5941 76.4427C78.7571 76.5247 78.8827 76.6468 78.9708 76.8088C79.0599 76.9698 79.1045 77.1693 79.1045 77.4073ZM78.8326 77.4164C78.8326 77.2169 78.7992 77.0524 78.7323 76.9227C78.6665 76.7931 78.5693 76.6969 78.4406 76.6341C78.313 76.5703 78.1566 76.5384 77.9712 76.5384H77.5991V78.3173H77.9135C78.2194 78.3173 78.4487 78.2418 78.6017 78.0909C78.7556 77.94 78.8326 77.7152 78.8326 77.4164ZM80.1831 76.8468C80.3815 76.8468 80.5289 76.8913 80.6251 76.9805C80.7213 77.0696 80.7694 77.2119 80.7694 77.4073V78.5391H80.5856L80.537 78.293H80.5248C80.4783 78.3537 80.4297 78.4049 80.379 78.4464C80.3284 78.4869 80.2696 78.5178 80.2028 78.5391C80.137 78.5593 80.056 78.5694 79.9597 78.5694C79.8585 78.5694 79.7683 78.5517 79.6893 78.5163C79.6114 78.4808 79.5496 78.4272 79.504 78.3553C79.4595 78.2833 79.4372 78.1922 79.4372 78.0818C79.4372 77.9157 79.503 77.7881 79.6347 77.699C79.7663 77.6099 79.9668 77.5613 80.2362 77.5532L80.5233 77.541V77.4392C80.5233 77.2954 80.4924 77.1947 80.4307 77.1369C80.3689 77.0792 80.2818 77.0503 80.1694 77.0503C80.0823 77.0503 79.9992 77.063 79.9202 77.0883C79.8413 77.1136 79.7663 77.1435 79.6954 77.178L79.6179 76.9865C79.6929 76.9481 79.779 76.9151 79.8762 76.8878C79.9734 76.8605 80.0757 76.8468 80.1831 76.8468ZM80.5203 77.7188L80.2666 77.7294C80.059 77.7375 79.9127 77.7714 79.8276 77.8312C79.7425 77.8909 79.7 77.9755 79.7 78.0849C79.7 78.18 79.7288 78.2504 79.7866 78.296C79.8443 78.3416 79.9208 78.3644 80.016 78.3644C80.1638 78.3644 80.2848 78.3234 80.379 78.2413C80.4732 78.1593 80.5203 78.0362 80.5203 77.8722V77.7188ZM81.0261 76.8741H81.2965L81.6642 77.8403C81.6854 77.897 81.7052 77.9517 81.7234 78.0043C81.7416 78.056 81.7578 78.1056 81.772 78.1532C81.7862 78.2008 81.7973 78.2469 81.8054 78.2914H81.8161C81.8303 78.2408 81.8505 78.1745 81.8768 78.0924C81.9032 78.0094 81.9315 77.9248 81.9619 77.8388L82.3098 76.8741H82.5817L81.8571 78.7836C81.8186 78.8859 81.7735 78.975 81.7219 79.051C81.6713 79.127 81.6095 79.1852 81.5366 79.2257C81.4636 79.2672 81.3755 79.288 81.2722 79.288C81.2246 79.288 81.1826 79.2849 81.1462 79.2789C81.1097 79.2738 81.0783 79.2677 81.052 79.2606V79.0586C81.0743 79.0637 81.1011 79.0682 81.1325 79.0723C81.1649 79.0763 81.1983 79.0783 81.2327 79.0783C81.2955 79.0783 81.3497 79.0662 81.3953 79.0419C81.4419 79.0186 81.4819 78.9842 81.5153 78.9386C81.5487 78.893 81.5776 78.8388 81.6019 78.776L81.693 78.5421L81.0261 76.8741Z" fill="black"/>
<path d="M26.6348 30.5013C26.892 30.5013 27.1239 30.5418 27.3305 30.6228C27.5371 30.7018 27.7012 30.8203 27.8227 30.9783C27.9442 31.1363 28.005 31.3317 28.005 31.5647C28.005 31.7449 27.9675 31.9019 27.8926 32.0356C27.8197 32.1693 27.7204 32.2867 27.5948 32.388C27.4693 32.4873 27.3285 32.5754 27.1725 32.6523C27.3467 32.7374 27.5067 32.8356 27.6526 32.947C27.8004 33.0564 27.9189 33.185 28.008 33.3329C28.0992 33.4808 28.1447 33.6539 28.1447 33.8524C28.1447 34.1016 28.0809 34.3173 27.9533 34.4996C27.8278 34.6798 27.6526 34.8196 27.4277 34.9188C27.2029 35.0161 26.9406 35.0647 26.6408 35.0647C26.3188 35.0647 26.0443 35.0171 25.8175 34.9219C25.5906 34.8267 25.4185 34.691 25.301 34.5148C25.1835 34.3365 25.1248 34.1238 25.1248 33.8767C25.1248 33.6722 25.1653 33.4949 25.2463 33.3451C25.3273 33.1952 25.4357 33.0655 25.5714 32.9562C25.7091 32.8468 25.86 32.7546 26.0241 32.6797C25.8843 32.5966 25.7567 32.5035 25.6413 32.4002C25.5258 32.2948 25.4337 32.1743 25.3648 32.0386C25.298 31.9009 25.2645 31.7419 25.2645 31.5616C25.2645 31.3307 25.3263 31.1373 25.4499 30.9813C25.5734 30.8234 25.7385 30.7038 25.9451 30.6228C26.1537 30.5418 26.3836 30.5013 26.6348 30.5013ZM25.8053 33.8494C25.8053 34.0438 25.8742 34.2038 26.0119 34.3294C26.1497 34.455 26.3553 34.5178 26.6287 34.5178C26.9001 34.5178 27.1067 34.456 27.2485 34.3325C27.3903 34.2089 27.4612 34.0459 27.4612 33.8433C27.4612 33.7137 27.4247 33.5992 27.3518 33.5C27.2809 33.4008 27.1847 33.3126 27.0632 33.2357C26.9436 33.1567 26.811 33.0838 26.6651 33.0169L26.5679 32.9774C26.4099 33.0443 26.2742 33.1202 26.1608 33.2053C26.0474 33.2883 25.9593 33.3825 25.8965 33.4878C25.8357 33.5932 25.8053 33.7137 25.8053 33.8494ZM26.6287 31.0512C26.4322 31.0512 26.2702 31.0998 26.1426 31.197C26.017 31.2922 25.9542 31.43 25.9542 31.6102C25.9542 31.7378 25.9846 31.8472 26.0454 31.9384C26.1081 32.0295 26.1922 32.1085 26.2975 32.1753C26.4029 32.2402 26.5193 32.3009 26.6469 32.3576C26.7705 32.303 26.8819 32.2432 26.9811 32.1784C27.0824 32.1115 27.1624 32.0326 27.2211 31.9414C27.2819 31.8482 27.3123 31.7368 27.3123 31.6072C27.3123 31.429 27.2485 31.2922 27.1209 31.197C26.9953 31.0998 26.8312 31.0512 26.6287 31.0512ZM31.7055 32.7799C31.7055 33.1385 31.6772 33.4595 31.6204 33.7431C31.5658 34.0246 31.4787 34.2636 31.3592 34.4601C31.2397 34.6565 31.0837 34.8064 30.8913 34.9097C30.6989 35.013 30.4659 35.0647 30.1925 35.0647C29.8502 35.0647 29.5676 34.9745 29.3448 34.7943C29.122 34.612 28.957 34.3507 28.8496 34.0104C28.7423 33.6681 28.6886 33.258 28.6886 32.7799C28.6886 32.3019 28.7372 31.8928 28.8344 31.5525C28.9337 31.2102 29.0937 30.9479 29.3145 30.7656C29.5352 30.5833 29.8279 30.4922 30.1925 30.4922C30.5368 30.4922 30.8204 30.5833 31.0432 30.7656C31.268 30.9459 31.4341 31.2072 31.5414 31.5495C31.6508 31.8898 31.7055 32.2999 31.7055 32.7799ZM29.4086 32.7799C29.4086 33.1547 29.4329 33.4676 29.4816 33.7188C29.5322 33.9699 29.6152 34.1583 29.7307 34.2839C29.8461 34.4074 30.0001 34.4692 30.1925 34.4692C30.3849 34.4692 30.5388 34.4074 30.6543 34.2839C30.7697 34.1603 30.8528 33.9729 30.9034 33.7218C30.9561 33.4706 30.9824 33.1567 30.9824 32.7799C30.9824 32.4073 30.9571 32.0953 30.9065 31.8442C30.8558 31.593 30.7728 31.4047 30.6573 31.2791C30.5419 31.1515 30.3869 31.0877 30.1925 31.0877C29.998 31.0877 29.8431 31.1515 29.7276 31.2791C29.6142 31.4047 29.5322 31.593 29.4816 31.8442C29.4329 32.0953 29.4086 32.4073 29.4086 32.7799ZM35.2663 32.7799C35.2663 33.1385 35.2379 33.4595 35.1812 33.7431C35.1265 34.0246 35.0394 34.2636 34.9199 34.4601C34.8004 34.6565 34.6445 34.8064 34.452 34.9097C34.2596 35.013 34.0267 35.0647 33.7533 35.0647C33.411 35.0647 33.1284 34.9745 32.9056 34.7943C32.6828 34.612 32.5177 34.3507 32.4104 34.0104C32.303 33.6681 32.2493 33.258 32.2493 32.7799C32.2493 32.3019 32.298 31.8928 32.3952 31.5525C32.4944 31.2102 32.6544 30.9479 32.8752 30.7656C33.096 30.5833 33.3887 30.4922 33.7533 30.4922C34.0976 30.4922 34.3811 30.5833 34.6039 30.7656C34.8288 30.9459 34.9949 31.2072 35.1022 31.5495C35.2116 31.8898 35.2663 32.2999 35.2663 32.7799ZM32.9694 32.7799C32.9694 33.1547 32.9937 33.4676 33.0423 33.7188C33.093 33.9699 33.176 34.1583 33.2914 34.2839C33.4069 34.4074 33.5608 34.4692 33.7533 34.4692C33.9457 34.4692 34.0996 34.4074 34.2151 34.2839C34.3305 34.1603 34.4136 33.9729 34.4642 33.7218C34.5169 33.4706 34.5432 33.1567 34.5432 32.7799C34.5432 32.4073 34.5179 32.0953 34.4672 31.8442C34.4166 31.593 34.3335 31.4047 34.2181 31.2791C34.1026 31.1515 33.9477 31.0877 33.7533 31.0877C33.5588 31.0877 33.4039 31.1515 33.2884 31.2791C33.175 31.4047 33.093 31.593 33.0423 31.8442C32.9937 32.0953 32.9694 32.4073 32.9694 32.7799ZM38.827 32.7799C38.827 33.1385 38.7987 33.4595 38.742 33.7431C38.6873 34.0246 38.6002 34.2636 38.4807 34.4601C38.3612 34.6565 38.2052 34.8064 38.0128 34.9097C37.8204 35.013 37.5875 35.0647 37.314 35.0647C36.9717 35.0647 36.6892 34.9745 36.4664 34.7943C36.2436 34.612 36.0785 34.3507 35.9711 34.0104C35.8638 33.6681 35.8101 33.258 35.8101 32.7799C35.8101 32.3019 35.8587 31.8928 35.9559 31.5525C36.0552 31.2102 36.2152 30.9479 36.436 30.7656C36.6568 30.5833 36.9494 30.4922 37.314 30.4922C37.6583 30.4922 37.9419 30.5833 38.1647 30.7656C38.3895 30.9459 38.5556 31.2072 38.663 31.5495C38.7724 31.8898 38.827 32.2999 38.827 32.7799ZM36.5302 32.7799C36.5302 33.1547 36.5545 33.4676 36.6031 33.7188C36.6537 33.9699 36.7368 34.1583 36.8522 34.2839C36.9677 34.4074 37.1216 34.4692 37.314 34.4692C37.5064 34.4692 37.6604 34.4074 37.7758 34.2839C37.8913 34.1603 37.9743 33.9729 38.025 33.7218C38.0776 33.4706 38.1039 33.1567 38.1039 32.7799C38.1039 32.4073 38.0786 32.0953 38.028 31.8442C37.9774 31.593 37.8943 31.4047 37.7789 31.2791C37.6634 31.1515 37.5085 31.0877 37.314 31.0877C37.1196 31.0877 36.9646 31.1515 36.8492 31.2791C36.7357 31.4047 36.6537 31.593 36.6031 31.8442C36.5545 32.0953 36.5302 32.4073 36.5302 32.7799ZM42.3878 32.7799C42.3878 33.1385 42.3594 33.4595 42.3027 33.7431C42.248 34.0246 42.161 34.2636 42.0414 34.4601C41.9219 34.6565 41.766 34.8064 41.5736 34.9097C41.3811 35.013 41.1482 35.0647 40.8748 35.0647C40.5325 35.0647 40.2499 34.9745 40.0271 34.7943C39.8043 34.612 39.6392 34.3507 39.5319 34.0104C39.4246 33.6681 39.3709 33.258 39.3709 32.7799C39.3709 32.3019 39.4195 31.8928 39.5167 31.5525C39.616 31.2102 39.776 30.9479 39.9967 30.7656C40.2175 30.5833 40.5102 30.4922 40.8748 30.4922C41.2191 30.4922 41.5027 30.5833 41.7255 30.7656C41.9503 30.9459 42.1164 31.2072 42.2237 31.5495C42.3331 31.8898 42.3878 32.2999 42.3878 32.7799ZM40.0909 32.7799C40.0909 33.1547 40.1152 33.4676 40.1638 33.7188C40.2145 33.9699 40.2975 34.1583 40.413 34.2839C40.5284 34.4074 40.6824 34.4692 40.8748 34.4692C41.0672 34.4692 41.2211 34.4074 41.3366 34.2839C41.452 34.1603 41.5351 33.9729 41.5857 33.7218C41.6384 33.4706 41.6647 33.1567 41.6647 32.7799C41.6647 32.4073 41.6394 32.0953 41.5888 31.8442C41.5381 31.593 41.4551 31.4047 41.3396 31.2791C41.2242 31.1515 41.0692 31.0877 40.8748 31.0877C40.6803 31.0877 40.5254 31.1515 40.4099 31.2791C40.2965 31.4047 40.2145 31.593 40.1638 31.8442C40.1152 32.0953 40.0909 32.4073 40.0909 32.7799Z" fill="#212121"/>
<path d="M26.6348 59.1243C26.892 59.1243 27.1239 59.1649 27.3305 59.2459C27.5371 59.3249 27.7012 59.4434 27.8227 59.6013C27.9442 59.7593 28.005 59.9548 28.005 60.1877C28.005 60.368 27.9675 60.525 27.8926 60.6586C27.8197 60.7923 27.7204 60.9098 27.5948 61.0111C27.4693 61.1103 27.3285 61.1984 27.1725 61.2754C27.3467 61.3605 27.5067 61.4587 27.6526 61.5701C27.8004 61.6795 27.9189 61.8081 28.008 61.9559C28.0992 62.1038 28.1447 62.277 28.1447 62.4755C28.1447 62.7246 28.0809 62.9403 27.9533 63.1226C27.8278 63.3029 27.6526 63.4426 27.4277 63.5419C27.2029 63.6391 26.9406 63.6877 26.6408 63.6877C26.3188 63.6877 26.0443 63.6401 25.8175 63.5449C25.5906 63.4497 25.4185 63.314 25.301 63.1378C25.1835 62.9596 25.1248 62.7469 25.1248 62.4998C25.1248 62.2952 25.1653 62.118 25.2463 61.9681C25.3273 61.8182 25.4357 61.6886 25.5714 61.5792C25.7091 61.4698 25.86 61.3777 26.0241 61.3027C25.8843 61.2197 25.7567 61.1265 25.6413 61.0232C25.5258 60.9179 25.4337 60.7974 25.3648 60.6617C25.298 60.5239 25.2645 60.3649 25.2645 60.1847C25.2645 59.9538 25.3263 59.7603 25.4499 59.6044C25.5734 59.4464 25.7385 59.3269 25.9451 59.2459C26.1537 59.1649 26.3836 59.1243 26.6348 59.1243ZM25.8053 62.4724C25.8053 62.6669 25.8742 62.8269 26.0119 62.9525C26.1497 63.0781 26.3553 63.1408 26.6287 63.1408C26.9001 63.1408 27.1067 63.0791 27.2485 62.9555C27.3903 62.832 27.4612 62.6689 27.4612 62.4664C27.4612 62.3367 27.4247 62.2223 27.3518 62.123C27.2809 62.0238 27.1847 61.9357 27.0632 61.8587C26.9436 61.7797 26.811 61.7068 26.6651 61.64L26.5679 61.6005C26.4099 61.6673 26.2742 61.7433 26.1608 61.8283C26.0474 61.9114 25.9593 62.0056 25.8965 62.1109C25.8357 62.2162 25.8053 62.3367 25.8053 62.4724ZM26.6287 59.6743C26.4322 59.6743 26.2702 59.7229 26.1426 59.8201C26.017 59.9153 25.9542 60.053 25.9542 60.2333C25.9542 60.3609 25.9846 60.4703 26.0454 60.5614C26.1081 60.6526 26.1922 60.7316 26.2975 60.7984C26.4029 60.8632 26.5193 60.924 26.6469 60.9807C26.7705 60.926 26.8819 60.8662 26.9811 60.8014C27.0824 60.7346 27.1624 60.6556 27.2211 60.5645C27.2819 60.4713 27.3123 60.3599 27.3123 60.2303C27.3123 60.052 27.2485 59.9153 27.1209 59.8201C26.9953 59.7229 26.8312 59.6743 26.6287 59.6743ZM31.7055 61.403C31.7055 61.7615 31.6772 62.0825 31.6204 62.3661C31.5658 62.6476 31.4787 62.8866 31.3592 63.0831C31.2397 63.2796 31.0837 63.4295 30.8913 63.5328C30.6989 63.6361 30.4659 63.6877 30.1925 63.6877C29.8502 63.6877 29.5676 63.5976 29.3448 63.4173C29.122 63.235 28.957 62.9737 28.8496 62.6335C28.7423 62.2912 28.6886 61.881 28.6886 61.403C28.6886 60.925 28.7372 60.5158 28.8344 60.1756C28.9337 59.8333 29.0937 59.571 29.3145 59.3887C29.5352 59.2064 29.8279 59.1152 30.1925 59.1152C30.5368 59.1152 30.8204 59.2064 31.0432 59.3887C31.268 59.5689 31.4341 59.8302 31.5414 60.1725C31.6508 60.5128 31.7055 60.923 31.7055 61.403ZM29.4086 61.403C29.4086 61.7777 29.4329 62.0906 29.4816 62.3418C29.5322 62.593 29.6152 62.7813 29.7307 62.9069C29.8461 63.0305 30.0001 63.0922 30.1925 63.0922C30.3849 63.0922 30.5388 63.0305 30.6543 62.9069C30.7697 62.7833 30.8528 62.596 30.9034 62.3448C30.9561 62.0937 30.9824 61.7797 30.9824 61.403C30.9824 61.0303 30.9571 60.7184 30.9065 60.4672C30.8558 60.2161 30.7728 60.0277 30.6573 59.9021C30.5419 59.7745 30.3869 59.7107 30.1925 59.7107C29.998 59.7107 29.8431 59.7745 29.7276 59.9021C29.6142 60.0277 29.5322 60.2161 29.4816 60.4672C29.4329 60.7184 29.4086 61.0303 29.4086 61.403ZM35.2663 61.403C35.2663 61.7615 35.2379 62.0825 35.1812 62.3661C35.1265 62.6476 35.0394 62.8866 34.9199 63.0831C34.8004 63.2796 34.6445 63.4295 34.452 63.5328C34.2596 63.6361 34.0267 63.6877 33.7533 63.6877C33.411 63.6877 33.1284 63.5976 32.9056 63.4173C32.6828 63.235 32.5177 62.9737 32.4104 62.6335C32.303 62.2912 32.2493 61.881 32.2493 61.403C32.2493 60.925 32.298 60.5158 32.3952 60.1756C32.4944 59.8333 32.6544 59.571 32.8752 59.3887C33.096 59.2064 33.3887 59.1152 33.7533 59.1152C34.0976 59.1152 34.3811 59.2064 34.6039 59.3887C34.8288 59.5689 34.9949 59.8302 35.1022 60.1725C35.2116 60.5128 35.2663 60.923 35.2663 61.403ZM32.9694 61.403C32.9694 61.7777 32.9937 62.0906 33.0423 62.3418C33.093 62.593 33.176 62.7813 33.2914 62.9069C33.4069 63.0305 33.5608 63.0922 33.7533 63.0922C33.9457 63.0922 34.0996 63.0305 34.2151 62.9069C34.3305 62.7833 34.4136 62.596 34.4642 62.3448C34.5169 62.0937 34.5432 61.7797 34.5432 61.403C34.5432 61.0303 34.5179 60.7184 34.4672 60.4672C34.4166 60.2161 34.3335 60.0277 34.2181 59.9021C34.1026 59.7745 33.9477 59.7107 33.7533 59.7107C33.5588 59.7107 33.4039 59.7745 33.2884 59.9021C33.175 60.0277 33.093 60.2161 33.0423 60.4672C32.9937 60.7184 32.9694 61.0303 32.9694 61.403ZM38.827 61.403C38.827 61.7615 38.7987 62.0825 38.742 62.3661C38.6873 62.6476 38.6002 62.8866 38.4807 63.0831C38.3612 63.2796 38.2052 63.4295 38.0128 63.5328C37.8204 63.6361 37.5875 63.6877 37.314 63.6877C36.9717 63.6877 36.6892 63.5976 36.4664 63.4173C36.2436 63.235 36.0785 62.9737 35.9711 62.6335C35.8638 62.2912 35.8101 61.881 35.8101 61.403C35.8101 60.925 35.8587 60.5158 35.9559 60.1756C36.0552 59.8333 36.2152 59.571 36.436 59.3887C36.6568 59.2064 36.9494 59.1152 37.314 59.1152C37.6583 59.1152 37.9419 59.2064 38.1647 59.3887C38.3895 59.5689 38.5556 59.8302 38.663 60.1725C38.7724 60.5128 38.827 60.923 38.827 61.403ZM36.5302 61.403C36.5302 61.7777 36.5545 62.0906 36.6031 62.3418C36.6537 62.593 36.7368 62.7813 36.8522 62.9069C36.9677 63.0305 37.1216 63.0922 37.314 63.0922C37.5064 63.0922 37.6604 63.0305 37.7758 62.9069C37.8913 62.7833 37.9743 62.596 38.025 62.3448C38.0776 62.0937 38.1039 61.7797 38.1039 61.403C38.1039 61.0303 38.0786 60.7184 38.028 60.4672C37.9774 60.2161 37.8943 60.0277 37.7789 59.9021C37.6634 59.7745 37.5085 59.7107 37.314 59.7107C37.1196 59.7107 36.9646 59.7745 36.8492 59.9021C36.7357 60.0277 36.6537 60.2161 36.6031 60.4672C36.5545 60.7184 36.5302 61.0303 36.5302 61.403ZM42.3878 61.403C42.3878 61.7615 42.3594 62.0825 42.3027 62.3661C42.248 62.6476 42.161 62.8866 42.0414 63.0831C41.9219 63.2796 41.766 63.4295 41.5736 63.5328C41.3811 63.6361 41.1482 63.6877 40.8748 63.6877C40.5325 63.6877 40.2499 63.5976 40.0271 63.4173C39.8043 63.235 39.6392 62.9737 39.5319 62.6335C39.4246 62.2912 39.3709 61.881 39.3709 61.403C39.3709 60.925 39.4195 60.5158 39.5167 60.1756C39.616 59.8333 39.776 59.571 39.9967 59.3887C40.2175 59.2064 40.5102 59.1152 40.8748 59.1152C41.2191 59.1152 41.5027 59.2064 41.7255 59.3887C41.9503 59.5689 42.1164 59.8302 42.2237 60.1725C42.3331 60.5128 42.3878 60.923 42.3878 61.403ZM40.0909 61.403C40.0909 61.7777 40.1152 62.0906 40.1638 62.3418C40.2145 62.593 40.2975 62.7813 40.413 62.9069C40.5284 63.0305 40.6824 63.0922 40.8748 63.0922C41.0672 63.0922 41.2211 63.0305 41.3366 62.9069C41.452 62.7833 41.5351 62.596 41.5857 62.3448C41.6384 62.0937 41.6647 61.7797 41.6647 61.403C41.6647 61.0303 41.6394 60.7184 41.5888 60.4672C41.5381 60.2161 41.4551 60.0277 41.3396 59.9021C41.2242 59.7745 41.0692 59.7107 40.8748 59.7107C40.6803 59.7107 40.5254 59.7745 40.4099 59.9021C40.2965 60.0277 40.2145 60.2161 40.1638 60.4672C40.1152 60.7184 40.0909 61.0303 40.0909 61.403Z" fill="#212121"/>
<path d="M58.3447 67.9844H57.6277V65.1254C57.6277 65.0302 57.6287 64.935 57.6308 64.8398C57.6328 64.7446 57.6348 64.6515 57.6368 64.5603C57.6409 64.4692 57.6459 64.3821 57.652 64.299C57.6095 64.3456 57.5568 64.3963 57.494 64.451C57.4333 64.5056 57.3685 64.5624 57.2996 64.6211L56.7892 65.0282L56.4307 64.5755L57.7492 63.5425H58.3447V67.9844ZM62.8139 67.9844H59.8061V67.4466L60.9576 66.2799C61.1804 66.0531 61.3637 65.8576 61.5075 65.6936C61.6513 65.5275 61.7576 65.3705 61.8265 65.2227C61.8974 65.0748 61.9328 64.9138 61.9328 64.7396C61.9328 64.5249 61.8711 64.3628 61.7475 64.2535C61.624 64.1421 61.4609 64.0864 61.2584 64.0864C61.0659 64.0864 60.8877 64.1249 60.7236 64.2018C60.5616 64.2768 60.3935 64.3841 60.2193 64.5239L59.8274 64.053C59.9509 63.9476 60.0826 63.8514 60.2223 63.7643C60.3641 63.6772 60.5221 63.6084 60.6963 63.5577C60.8705 63.5051 61.069 63.4787 61.2918 63.4787C61.5733 63.4787 61.8164 63.5294 62.0209 63.6306C62.2255 63.7299 62.3825 63.8686 62.4919 64.0469C62.6033 64.2251 62.659 64.4327 62.659 64.6697C62.659 64.9087 62.6114 65.1295 62.5162 65.332C62.421 65.5346 62.2853 65.7351 62.109 65.9336C61.9328 66.1301 61.7232 66.3438 61.4801 66.5747L60.7115 67.3251V67.3585H62.8139V67.9844ZM66.2045 64.5573C66.2045 64.7578 66.164 64.932 66.083 65.0799C66.002 65.2277 65.8906 65.3492 65.7488 65.4444C65.609 65.5376 65.447 65.6045 65.2627 65.645V65.6662C65.6172 65.7108 65.8845 65.8222 66.0648 66.0004C66.2471 66.1787 66.3382 66.4146 66.3382 66.7083C66.3382 66.9656 66.2764 67.1955 66.1529 67.398C66.0293 67.5985 65.84 67.7565 65.5847 67.872C65.3295 67.9874 65.0014 68.0451 64.6004 68.0451C64.3593 68.0451 64.1355 68.0259 63.9289 67.9874C63.7244 67.9489 63.5299 67.8872 63.3456 67.8021V67.1671C63.534 67.2603 63.7345 67.3322 63.9472 67.3828C64.1598 67.4334 64.3614 67.4588 64.5518 67.4588C64.9224 67.4588 65.1867 67.3899 65.3447 67.2522C65.5027 67.1124 65.5817 66.92 65.5817 66.6749C65.5817 66.5169 65.5402 66.3873 65.4571 66.286C65.3761 66.1848 65.2495 66.1088 65.0774 66.0582C64.9072 66.0075 64.6875 65.9822 64.4181 65.9822H64.0261V65.408H64.4211C64.6783 65.408 64.8849 65.3776 65.0409 65.3168C65.1969 65.2541 65.3093 65.168 65.3781 65.0586C65.449 64.9492 65.4845 64.8216 65.4845 64.6758C65.4845 64.4854 65.4227 64.3375 65.2992 64.2322C65.1756 64.1249 64.9923 64.0712 64.7492 64.0712C64.5994 64.0712 64.4626 64.0884 64.3391 64.1228C64.2176 64.1573 64.1051 64.2008 64.0018 64.2535C63.8985 64.3061 63.8003 64.3628 63.7071 64.4236L63.3638 63.9284C63.5319 63.8028 63.7325 63.6965 63.9654 63.6094C64.1983 63.5223 64.4697 63.4787 64.7796 63.4787C65.2354 63.4787 65.5868 63.577 65.8339 63.7734C66.081 63.9679 66.2045 64.2292 66.2045 64.5573Z" fill="white"/>
<path d="M55.8799 40.7708C56.1371 40.7708 56.369 40.8113 56.5756 40.8924C56.7822 40.9714 56.9463 41.0898 57.0678 41.2478C57.1893 41.4058 57.2501 41.6013 57.2501 41.8342C57.2501 42.0145 57.2126 42.1714 57.1377 42.3051C57.0648 42.4388 56.9655 42.5563 56.84 42.6576C56.7144 42.7568 56.5736 42.8449 56.4176 42.9219C56.5918 43.0069 56.7518 43.1052 56.8977 43.2166C57.0455 43.326 57.164 43.4546 57.2531 43.6024C57.3443 43.7503 57.3899 43.9235 57.3899 44.122C57.3899 44.3711 57.3261 44.5868 57.1985 44.7691C57.0729 44.9494 56.8977 45.0891 56.6729 45.1884C56.448 45.2856 56.1857 45.3342 55.886 45.3342C55.5639 45.3342 55.2895 45.2866 55.0626 45.1914C54.8358 45.0962 54.6636 44.9605 54.5461 44.7843C54.4286 44.606 54.3699 44.3934 54.3699 44.1463C54.3699 43.9417 54.4104 43.7645 54.4914 43.6146C54.5724 43.4647 54.6808 43.3351 54.8165 43.2257C54.9542 43.1163 55.1051 43.0242 55.2692 42.9492C55.1294 42.8662 55.0018 42.773 54.8864 42.6697C54.7709 42.5644 54.6788 42.4439 54.6099 42.3082C54.5431 42.1704 54.5097 42.0114 54.5097 41.8312C54.5097 41.6003 54.5714 41.4068 54.695 41.2509C54.8185 41.0929 54.9836 40.9734 55.1902 40.8924C55.3988 40.8113 55.6287 40.7708 55.8799 40.7708ZM55.0505 44.1189C55.0505 44.3134 55.1193 44.4734 55.2571 44.599C55.3948 44.7245 55.6004 44.7873 55.8738 44.7873C56.1452 44.7873 56.3518 44.7255 56.4936 44.602C56.6354 44.4784 56.7063 44.3154 56.7063 44.1128C56.7063 43.9832 56.6698 43.8688 56.5969 43.7695C56.526 43.6703 56.4298 43.5822 56.3083 43.5052C56.1888 43.4262 56.0561 43.3533 55.9103 43.2865L55.813 43.247C55.6551 43.3138 55.5194 43.3898 55.4059 43.4748C55.2925 43.5579 55.2044 43.6521 55.1416 43.7574C55.0808 43.8627 55.0505 43.9832 55.0505 44.1189ZM55.8738 41.3207C55.6773 41.3207 55.5153 41.3694 55.3877 41.4666C55.2621 41.5618 55.1993 41.6995 55.1993 41.8798C55.1993 42.0074 55.2297 42.1168 55.2905 42.2079C55.3533 42.299 55.4373 42.378 55.5426 42.4449C55.648 42.5097 55.7644 42.5705 55.892 42.6272C56.0156 42.5725 56.127 42.5127 56.2262 42.4479C56.3275 42.3811 56.4075 42.3021 56.4663 42.2109C56.527 42.1178 56.5574 42.0064 56.5574 41.8767C56.5574 41.6985 56.4936 41.5618 56.366 41.4666C56.2404 41.3694 56.0764 41.3207 55.8738 41.3207ZM60.9506 43.0495C60.9506 43.408 60.9223 43.729 60.8656 44.0126C60.8109 44.2941 60.7238 44.5331 60.6043 44.7296C60.4848 44.9261 60.3288 45.076 60.1364 45.1793C59.944 45.2826 59.711 45.3342 59.4376 45.3342C59.0953 45.3342 58.8128 45.2441 58.59 45.0638C58.3672 44.8815 58.2021 44.6202 58.0947 44.2799C57.9874 43.9376 57.9337 43.5275 57.9337 43.0495C57.9337 42.5715 57.9823 42.1623 58.0795 41.822C58.1788 41.4797 58.3388 41.2174 58.5596 41.0352C58.7803 40.8529 59.073 40.7617 59.4376 40.7617C59.7819 40.7617 60.0655 40.8529 60.2883 41.0352C60.5131 41.2154 60.6792 41.4767 60.7866 41.819C60.8959 42.1593 60.9506 42.5694 60.9506 43.0495ZM58.6538 43.0495C58.6538 43.4242 58.6781 43.7371 58.7267 43.9883C58.7773 44.2394 58.8604 44.4278 58.9758 44.5534C59.0913 44.6769 59.2452 44.7387 59.4376 44.7387C59.63 44.7387 59.784 44.6769 59.8994 44.5534C60.0149 44.4298 60.0979 44.2425 60.1485 43.9913C60.2012 43.7402 60.2275 43.4262 60.2275 43.0495C60.2275 42.6768 60.2022 42.3649 60.1516 42.1137C60.1009 41.8626 60.0179 41.6742 59.9025 41.5486C59.787 41.421 59.6321 41.3572 59.4376 41.3572C59.2432 41.3572 59.0882 41.421 58.9728 41.5486C58.8593 41.6742 58.7773 41.8626 58.7267 42.1137C58.6781 42.3649 58.6538 42.6768 58.6538 43.0495ZM62.4515 40.7678C62.7776 40.7678 63.0247 40.8893 63.1928 41.1324C63.3609 41.3734 63.445 41.7147 63.445 42.1563C63.445 42.5958 63.364 42.9391 63.2019 43.1862C63.0419 43.4333 62.7918 43.5569 62.4515 43.5569C62.1335 43.5569 61.8915 43.4333 61.7254 43.1862C61.5593 42.9391 61.4762 42.5958 61.4762 42.1563C61.4762 41.7147 61.5542 41.3734 61.7102 41.1324C61.8682 40.8893 62.1153 40.7678 62.4515 40.7678ZM62.4545 41.2661C62.3229 41.2661 62.2257 41.34 62.1629 41.4878C62.1021 41.6357 62.0717 41.8595 62.0717 42.1593C62.0717 42.457 62.1021 42.6819 62.1629 42.8338C62.2257 42.9837 62.3229 43.0586 62.4545 43.0586C62.5882 43.0586 62.6875 42.9837 62.7523 42.8338C62.8191 42.6839 62.8525 42.4591 62.8525 42.1593C62.8525 41.8615 62.8201 41.6387 62.7553 41.4909C62.6905 41.341 62.5902 41.2661 62.4545 41.2661ZM65.435 40.8316L62.971 45.2734H62.3847L64.8486 40.8316H65.435ZM65.353 42.5451C65.6791 42.5451 65.9262 42.6667 66.0943 42.9097C66.2644 43.1508 66.3495 43.492 66.3495 43.9336C66.3495 44.3711 66.2685 44.7134 66.1064 44.9605C65.9464 45.2076 65.6953 45.3312 65.353 45.3312C65.035 45.3312 64.7929 45.2076 64.6268 44.9605C64.4608 44.7134 64.3777 44.3711 64.3777 43.9336C64.3777 43.492 64.4557 43.1508 64.6117 42.9097C64.7696 42.6667 65.0167 42.5451 65.353 42.5451ZM65.356 43.0434C65.2244 43.0434 65.1271 43.1173 65.0643 43.2652C65.0036 43.413 64.9732 43.6369 64.9732 43.9366C64.9732 44.2344 65.0036 44.4592 65.0643 44.6111C65.1271 44.761 65.2244 44.8359 65.356 44.8359C65.4917 44.8359 65.592 44.762 65.6568 44.6141C65.7216 44.4643 65.754 44.2384 65.754 43.9366C65.754 43.6389 65.7216 43.4161 65.6568 43.2682C65.592 43.1183 65.4917 43.0434 65.356 43.0434Z" fill="white"/>
</svg>
