<svg width="92" height="92" viewBox="0 0 92 92" fill="none" xmlns="http://www.w3.org/2000/svg">
<rect x="0.389831" y="0.389831" width="91.079" height="91.2203" rx="17.5424" stroke="#BEBEBE" stroke-width="0.779661"/>
<circle opacity="0.1" cx="46" cy="46" r="35" fill="#FFBF6B"/>
<circle opacity="0.2" cx="46.1317" cy="52.496" r="28.5038" fill="#FFBF6B"/>
<path d="M43.3475 29.2845C43.5009 29.2845 43.6393 29.3087 43.7625 29.357C43.8858 29.4041 43.9837 29.4748 44.0562 29.5691C44.1287 29.6633 44.1649 29.7799 44.1649 29.9189C44.1649 30.0264 44.1426 30.1201 44.0979 30.1998C44.0544 30.2796 43.9951 30.3497 43.9202 30.4101C43.8453 30.4693 43.7613 30.5219 43.6683 30.5678C43.7722 30.6185 43.8677 30.6771 43.9547 30.7436C44.0429 30.8089 44.1136 30.8856 44.1667 30.9738C44.2211 31.062 44.2483 31.1653 44.2483 31.2837C44.2483 31.4324 44.2102 31.5611 44.1341 31.6698C44.0592 31.7774 43.9547 31.8607 43.8205 31.92C43.6864 31.978 43.5299 32.007 43.3511 32.007C43.159 32.007 42.9952 31.9786 42.8599 31.9218C42.7245 31.865 42.6218 31.784 42.5517 31.6789C42.4817 31.5725 42.4466 31.4457 42.4466 31.2982C42.4466 31.1762 42.4708 31.0705 42.5191 30.981C42.5675 30.8916 42.6321 30.8143 42.7131 30.749C42.7952 30.6838 42.8853 30.6288 42.9831 30.5841C42.8998 30.5346 42.8236 30.479 42.7547 30.4173C42.6859 30.3545 42.6309 30.2826 42.5898 30.2016C42.5499 30.1195 42.53 30.0246 42.53 29.9171C42.53 29.7793 42.5668 29.6639 42.6406 29.5709C42.7143 29.4766 42.8128 29.4053 42.936 29.357C43.0605 29.3087 43.1976 29.2845 43.3475 29.2845ZM42.8526 31.2819C42.8526 31.3979 42.8937 31.4934 42.9759 31.5683C43.0581 31.6432 43.1807 31.6807 43.3438 31.6807C43.5058 31.6807 43.629 31.6438 43.7136 31.5701C43.7982 31.4964 43.8405 31.3991 43.8405 31.2783C43.8405 31.201 43.8187 31.1327 43.7752 31.0735C43.7329 31.0143 43.6755 30.9617 43.603 30.9158C43.5317 30.8687 43.4526 30.8252 43.3656 30.7853L43.3076 30.7617C43.2133 30.8016 43.1324 30.8469 43.0647 30.8977C42.997 30.9472 42.9445 31.0034 42.907 31.0662C42.8708 31.1291 42.8526 31.201 42.8526 31.2819ZM43.3438 29.6126C43.2266 29.6126 43.1299 29.6416 43.0538 29.6996C42.9789 29.7564 42.9414 29.8385 42.9414 29.9461C42.9414 30.0222 42.9596 30.0875 42.9958 30.1418C43.0333 30.1962 43.0834 30.2433 43.1463 30.2832C43.2091 30.3219 43.2786 30.3581 43.3547 30.392C43.4284 30.3593 43.4949 30.3237 43.5541 30.285C43.6145 30.2451 43.6622 30.198 43.6973 30.1436C43.7335 30.0881 43.7517 30.0216 43.7517 29.9443C43.7517 29.8379 43.7136 29.7564 43.6375 29.6996C43.5625 29.6416 43.4647 29.6126 43.3438 29.6126ZM46.3726 30.6439C46.3726 30.8578 46.3557 31.0493 46.3219 31.2185C46.2892 31.3865 46.2373 31.529 46.166 31.6463C46.0947 31.7635 46.0016 31.8529 45.8869 31.9145C45.7721 31.9761 45.6331 32.007 45.47 32.007C45.2657 32.007 45.0972 31.9532 44.9643 31.8456C44.8313 31.7369 44.7329 31.581 44.6688 31.378C44.6048 31.1738 44.5727 30.9291 44.5727 30.6439C44.5727 30.3587 44.6017 30.1146 44.6597 29.9116C44.719 29.7074 44.8144 29.5509 44.9461 29.4422C45.0778 29.3334 45.2525 29.2791 45.47 29.2791C45.6754 29.2791 45.8446 29.3334 45.9775 29.4422C46.1116 29.5497 46.2107 29.7056 46.2747 29.9098C46.34 30.1128 46.3726 30.3575 46.3726 30.6439ZM45.0023 30.6439C45.0023 30.8675 45.0168 31.0542 45.0458 31.204C45.076 31.3538 45.1256 31.4662 45.1945 31.5411C45.2633 31.6148 45.3552 31.6517 45.47 31.6517C45.5848 31.6517 45.6766 31.6148 45.7455 31.5411C45.8143 31.4674 45.8639 31.3556 45.8941 31.2058C45.9255 31.056 45.9412 30.8687 45.9412 30.6439C45.9412 30.4216 45.9261 30.2355 45.8959 30.0856C45.8657 29.9358 45.8162 29.8234 45.7473 29.7485C45.6784 29.6724 45.586 29.6343 45.47 29.6343C45.354 29.6343 45.2615 29.6724 45.1926 29.7485C45.125 29.8234 45.076 29.9358 45.0458 30.0856C45.0168 30.2355 45.0023 30.4216 45.0023 30.6439ZM47.268 29.2827C47.4626 29.2827 47.61 29.3552 47.7103 29.5002C47.8106 29.644 47.8607 29.8476 47.8607 30.111C47.8607 30.3732 47.8124 30.5781 47.7157 30.7255C47.6203 30.8729 47.471 30.9466 47.268 30.9466C47.0783 30.9466 46.9339 30.8729 46.8348 30.7255C46.7357 30.5781 46.6862 30.3732 46.6862 30.111C46.6862 29.8476 46.7327 29.644 46.8258 29.5002C46.92 29.3552 47.0674 29.2827 47.268 29.2827ZM47.2698 29.5799C47.1913 29.5799 47.1333 29.624 47.0958 29.7123C47.0596 29.8005 47.0415 29.934 47.0415 30.1128C47.0415 30.2905 47.0596 30.4246 47.0958 30.5152C47.1333 30.6046 47.1913 30.6493 47.2698 30.6493C47.3496 30.6493 47.4088 30.6046 47.4475 30.5152C47.4873 30.4258 47.5073 30.2917 47.5073 30.1128C47.5073 29.9352 47.4879 29.8023 47.4493 29.7141C47.4106 29.6246 47.3508 29.5799 47.2698 29.5799ZM49.048 29.3207L47.578 31.9707H47.2281L48.6981 29.3207H49.048ZM48.999 30.343C49.1936 30.343 49.341 30.4155 49.4413 30.5605C49.5428 30.7043 49.5935 30.9079 49.5935 31.1714C49.5935 31.4324 49.5452 31.6366 49.4485 31.784C49.3531 31.9314 49.2032 32.0051 48.999 32.0051C48.8093 32.0051 48.6649 31.9314 48.5658 31.784C48.4667 31.6366 48.4172 31.4324 48.4172 31.1714C48.4172 30.9079 48.4637 30.7043 48.5568 30.5605C48.651 30.4155 48.7984 30.343 48.999 30.343ZM49.0008 30.6403C48.9223 30.6403 48.8643 30.6844 48.8268 30.7726C48.7906 30.8608 48.7724 30.9943 48.7724 31.1732C48.7724 31.3508 48.7906 31.4849 48.8268 31.5756C48.8643 31.665 48.9223 31.7097 49.0008 31.7097C49.0818 31.7097 49.1416 31.6656 49.1803 31.5774C49.2189 31.488 49.2383 31.3532 49.2383 31.1732C49.2383 30.9955 49.2189 30.8626 49.1803 30.7744C49.1416 30.685 49.0818 30.6403 49.0008 30.6403Z" fill="#212121"/>
<path d="M41.7566 16.0267C41.9101 16.0267 42.0485 16.0508 42.1717 16.0992C42.295 16.1463 42.3928 16.217 42.4653 16.3112C42.5378 16.4055 42.5741 16.5221 42.5741 16.6611C42.5741 16.7686 42.5517 16.8623 42.507 16.942C42.4635 17.0218 42.4043 17.0919 42.3294 17.1523C42.2545 17.2115 42.1705 17.2641 42.0775 17.31C42.1814 17.3607 42.2768 17.4193 42.3638 17.4858C42.4521 17.551 42.5227 17.6278 42.5759 17.716C42.6303 17.8042 42.6575 17.9075 42.6575 18.0259C42.6575 18.1746 42.6194 18.3033 42.5433 18.412C42.4684 18.5196 42.3638 18.6029 42.2297 18.6621C42.0956 18.7201 41.9391 18.7491 41.7603 18.7491C41.5681 18.7491 41.4044 18.7207 41.2691 18.664C41.1337 18.6072 41.031 18.5262 40.9609 18.4211C40.8908 18.3147 40.8558 18.1879 40.8558 18.0404C40.8558 17.9184 40.88 17.8127 40.9283 17.7232C40.9766 17.6338 41.0413 17.5565 41.1222 17.4912C41.2044 17.426 41.2944 17.371 41.3923 17.3263C41.3089 17.2767 41.2328 17.2212 41.1639 17.1595C41.0951 17.0967 41.0401 17.0248 40.999 16.9438C40.9591 16.8617 40.9392 16.7668 40.9392 16.6593C40.9392 16.5215 40.976 16.4061 41.0497 16.3131C41.1234 16.2188 41.2219 16.1475 41.3452 16.0992C41.4696 16.0508 41.6068 16.0267 41.7566 16.0267ZM41.2618 18.0241C41.2618 18.1401 41.3029 18.2356 41.3851 18.3105C41.4672 18.3854 41.5899 18.4229 41.753 18.4229C41.9149 18.4229 42.0382 18.386 42.1228 18.3123C42.2074 18.2386 42.2497 18.1413 42.2497 18.0205C42.2497 17.9432 42.2279 17.8749 42.1844 17.8157C42.1421 17.7565 42.0847 17.7039 42.0122 17.658C41.9409 17.6109 41.8618 17.5674 41.7748 17.5275L41.7168 17.5039C41.6225 17.5438 41.5415 17.5891 41.4739 17.6399C41.4062 17.6894 41.3536 17.7456 41.3162 17.8084C41.2799 17.8713 41.2618 17.9432 41.2618 18.0241ZM41.753 16.3548C41.6358 16.3548 41.5391 16.3838 41.463 16.4418C41.3881 16.4985 41.3506 16.5807 41.3506 16.6883C41.3506 16.7644 41.3687 16.8296 41.405 16.884C41.4425 16.9384 41.4926 16.9855 41.5554 17.0254C41.6183 17.0641 41.6878 17.1003 41.7639 17.1342C41.8376 17.1015 41.9041 17.0659 41.9633 17.0272C42.0237 16.9873 42.0714 16.9402 42.1065 16.8858C42.1427 16.8302 42.1608 16.7638 42.1608 16.6864C42.1608 16.5801 42.1228 16.4985 42.0466 16.4418C41.9717 16.3838 41.8738 16.3548 41.753 16.3548ZM44.7818 17.3861C44.7818 17.6 44.7649 17.7915 44.731 17.9607C44.6984 18.1286 44.6465 18.2712 44.5752 18.3884C44.5039 18.5057 44.4108 18.5951 44.296 18.6567C44.1812 18.7183 44.0423 18.7491 43.8791 18.7491C43.6749 18.7491 43.5064 18.6954 43.3734 18.5878C43.2405 18.4791 43.142 18.3232 43.078 18.1202C43.0139 17.916 42.9819 17.6713 42.9819 17.3861C42.9819 17.1009 43.0109 16.8568 43.0689 16.6538C43.1281 16.4496 43.2236 16.2931 43.3553 16.1844C43.487 16.0756 43.6616 16.0212 43.8791 16.0212C44.0846 16.0212 44.2537 16.0756 44.3867 16.1844C44.5208 16.2919 44.6199 16.4478 44.6839 16.652C44.7492 16.855 44.7818 17.0997 44.7818 17.3861ZM43.4115 17.3861C43.4115 17.6096 43.426 17.7963 43.455 17.9462C43.4852 18.096 43.5348 18.2084 43.6036 18.2833C43.6725 18.357 43.7643 18.3939 43.8791 18.3939C43.9939 18.3939 44.0858 18.357 44.1547 18.2833C44.2235 18.2096 44.2731 18.0978 44.3033 17.948C44.3347 17.7982 44.3504 17.6109 44.3504 17.3861C44.3504 17.1638 44.3353 16.9777 44.3051 16.8278C44.2749 16.678 44.2253 16.5656 44.1565 16.4907C44.0876 16.4146 43.9951 16.3765 43.8791 16.3765C43.7631 16.3765 43.6707 16.4146 43.6018 16.4907C43.5342 16.5656 43.4852 16.678 43.455 16.8278C43.426 16.9777 43.4115 17.1638 43.4115 17.3861ZM46.9061 17.3861C46.9061 17.6 46.8892 17.7915 46.8554 17.9607C46.8227 18.1286 46.7708 18.2712 46.6995 18.3884C46.6282 18.5057 46.5351 18.5951 46.4204 18.6567C46.3056 18.7183 46.1666 18.7491 46.0035 18.7491C45.7992 18.7491 45.6307 18.6954 45.4978 18.5878C45.3648 18.4791 45.2664 18.3232 45.2023 18.1202C45.1383 17.916 45.1062 17.6713 45.1062 17.3861C45.1062 17.1009 45.1352 16.8568 45.1932 16.6538C45.2525 16.4496 45.3479 16.2931 45.4796 16.1844C45.6113 16.0756 45.786 16.0212 46.0035 16.0212C46.2089 16.0212 46.3781 16.0756 46.511 16.1844C46.6451 16.2919 46.7442 16.4478 46.8082 16.652C46.8735 16.855 46.9061 17.0997 46.9061 17.3861ZM45.5358 17.3861C45.5358 17.6096 45.5503 17.7963 45.5793 17.9462C45.6095 18.096 45.6591 18.2084 45.728 18.2833C45.7968 18.357 45.8887 18.3939 46.0035 18.3939C46.1183 18.3939 46.2101 18.357 46.279 18.2833C46.3478 18.2096 46.3974 18.0978 46.4276 17.948C46.459 17.7982 46.4747 17.6109 46.4747 17.3861C46.4747 17.1638 46.4596 16.9777 46.4294 16.8278C46.3992 16.678 46.3497 16.5656 46.2808 16.4907C46.2119 16.4146 46.1195 16.3765 46.0035 16.3765C45.8875 16.3765 45.795 16.4146 45.7261 16.4907C45.6585 16.5656 45.6095 16.678 45.5793 16.8278C45.5503 16.9777 45.5358 17.1638 45.5358 17.3861ZM49.0304 17.3861C49.0304 17.6 49.0135 17.7915 48.9797 17.9607C48.9471 18.1286 48.8951 18.2712 48.8238 18.3884C48.7525 18.5057 48.6595 18.5951 48.5447 18.6567C48.4299 18.7183 48.2909 18.7491 48.1278 18.7491C47.9236 18.7491 47.755 18.6954 47.6221 18.5878C47.4892 18.4791 47.3907 18.3232 47.3266 18.1202C47.2626 17.916 47.2306 17.6713 47.2306 17.3861C47.2306 17.1009 47.2596 16.8568 47.3176 16.6538C47.3768 16.4496 47.4722 16.2931 47.604 16.1844C47.7357 16.0756 47.9103 16.0212 48.1278 16.0212C48.3332 16.0212 48.5024 16.0756 48.6353 16.1844C48.7694 16.2919 48.8685 16.4478 48.9326 16.652C48.9978 16.855 49.0304 17.0997 49.0304 17.3861ZM47.6601 17.3861C47.6601 17.6096 47.6746 17.7963 47.7036 17.9462C47.7339 18.096 47.7834 18.2084 47.8523 18.2833C47.9211 18.357 48.013 18.3939 48.1278 18.3939C48.2426 18.3939 48.3344 18.357 48.4033 18.2833C48.4722 18.2096 48.5217 18.0978 48.5519 17.948C48.5833 17.7982 48.599 17.6109 48.599 17.3861C48.599 17.1638 48.5839 16.9777 48.5537 16.8278C48.5235 16.678 48.474 16.5656 48.4051 16.4907C48.3362 16.4146 48.2438 16.3765 48.1278 16.3765C48.0118 16.3765 47.9193 16.4146 47.8505 16.4907C47.7828 16.5656 47.7339 16.678 47.7036 16.8278C47.6746 16.9777 47.6601 17.1638 47.6601 17.3861ZM51.1548 17.3861C51.1548 17.6 51.1378 17.7915 51.104 17.9607C51.0714 18.1286 51.0194 18.2712 50.9481 18.3884C50.8768 18.5057 50.7838 18.5951 50.669 18.6567C50.5542 18.7183 50.4152 18.7491 50.2521 18.7491C50.0479 18.7491 49.8793 18.6954 49.7464 18.5878C49.6135 18.4791 49.515 18.3232 49.4509 18.1202C49.3869 17.916 49.3549 17.6713 49.3549 17.3861C49.3549 17.1009 49.3839 16.8568 49.4419 16.6538C49.5011 16.4496 49.5966 16.2931 49.7283 16.1844C49.86 16.0756 50.0346 16.0212 50.2521 16.0212C50.4575 16.0212 50.6267 16.0756 50.7596 16.1844C50.8937 16.2919 50.9928 16.4478 51.0569 16.652C51.1221 16.855 51.1548 17.0997 51.1548 17.3861ZM49.7845 17.3861C49.7845 17.6096 49.799 17.7963 49.828 17.9462C49.8582 18.096 49.9077 18.2084 49.9766 18.2833C50.0455 18.357 50.1373 18.3939 50.2521 18.3939C50.3669 18.3939 50.4587 18.357 50.5276 18.2833C50.5965 18.2096 50.646 18.0978 50.6762 17.948C50.7077 17.7982 50.7234 17.6109 50.7234 17.3861C50.7234 17.1638 50.7083 16.9777 50.6781 16.8278C50.6478 16.678 50.5983 16.5656 50.5294 16.4907C50.4605 16.4146 50.3681 16.3765 50.2521 16.3765C50.1361 16.3765 50.0437 16.4146 49.9748 16.4907C49.9071 16.5656 49.8582 16.678 49.828 16.8278C49.799 16.9777 49.7845 17.1638 49.7845 17.3861Z" fill="#212121"/>
<circle opacity="0.3" cx="46.1338" cy="59.125" r="21.875" fill="#FFBF6B"/>
<circle cx="45.8678" cy="66.0201" r="14.9811" fill="#FFBF6B"/>
<path d="M41.492 44.3958C41.6455 44.3958 41.7838 44.42 41.9071 44.4683C42.0303 44.5154 42.1282 44.5861 42.2007 44.6804C42.2732 44.7746 42.3095 44.8913 42.3095 45.0302C42.3095 45.1378 42.2871 45.2314 42.2424 45.3112C42.1989 45.3909 42.1397 45.461 42.0648 45.5214C41.9898 45.5806 41.9059 45.6332 41.8128 45.6791C41.9167 45.7299 42.0122 45.7885 42.0992 45.8549C42.1874 45.9202 42.2581 45.9969 42.3113 46.0851C42.3656 46.1733 42.3928 46.2767 42.3928 46.3951C42.3928 46.5437 42.3548 46.6724 42.2786 46.7811C42.2037 46.8887 42.0992 46.9721 41.9651 47.0313C41.8309 47.0893 41.6745 47.1183 41.4956 47.1183C41.3035 47.1183 41.1397 47.0899 41.0044 47.0331C40.8691 46.9763 40.7664 46.8953 40.6963 46.7902C40.6262 46.6839 40.5911 46.557 40.5911 46.4096C40.5911 46.2875 40.6153 46.1818 40.6636 46.0924C40.712 46.003 40.7766 45.9256 40.8576 45.8604C40.9398 45.7951 41.0298 45.7401 41.1277 45.6954C41.0443 45.6459 40.9682 45.5903 40.8993 45.5287C40.8304 45.4658 40.7754 45.3939 40.7343 45.313C40.6945 45.2308 40.6745 45.1359 40.6745 45.0284C40.6745 44.8906 40.7114 44.7752 40.7851 44.6822C40.8588 44.588 40.9573 44.5167 41.0805 44.4683C41.205 44.42 41.3421 44.3958 41.492 44.3958ZM40.9972 46.3933C40.9972 46.5093 41.0382 46.6047 41.1204 46.6796C41.2026 46.7546 41.3252 46.792 41.4884 46.792C41.6503 46.792 41.7735 46.7552 41.8581 46.6815C41.9427 46.6077 41.985 46.5105 41.985 46.3896C41.985 46.3123 41.9633 46.244 41.9198 46.1848C41.8775 46.1256 41.8201 46.073 41.7476 46.0271C41.6763 45.98 41.5971 45.9365 41.5101 45.8966L41.4521 45.8731C41.3579 45.9129 41.2769 45.9582 41.2092 46.009C41.1416 46.0585 41.089 46.1147 41.0515 46.1776C41.0153 46.2404 40.9972 46.3123 40.9972 46.3933ZM41.4884 44.7239C41.3712 44.7239 41.2745 44.7529 41.1984 44.8109C41.1234 44.8677 41.086 44.9499 41.086 45.0574C41.086 45.1335 41.1041 45.1988 41.1404 45.2532C41.1778 45.3075 41.228 45.3547 41.2908 45.3945C41.3536 45.4332 41.4231 45.4695 41.4992 45.5033C41.5729 45.4707 41.6394 45.435 41.6986 45.3964C41.759 45.3565 41.8068 45.3093 41.8418 45.255C41.8781 45.1994 41.8962 45.1329 41.8962 45.0556C41.8962 44.9493 41.8581 44.8677 41.782 44.8109C41.7071 44.7529 41.6092 44.7239 41.4884 44.7239ZM44.5171 45.7552C44.5171 45.9691 44.5002 46.1606 44.4664 46.3298C44.4338 46.4978 44.3818 46.6404 44.3105 46.7576C44.2392 46.8748 44.1462 46.9642 44.0314 47.0258C43.9166 47.0875 43.7776 47.1183 43.6145 47.1183C43.4103 47.1183 43.2417 47.0645 43.1088 46.957C42.9759 46.8482 42.8774 46.6923 42.8133 46.4893C42.7493 46.2851 42.7173 46.0404 42.7173 45.7552C42.7173 45.4701 42.7463 45.226 42.8043 45.023C42.8635 44.8187 42.959 44.6623 43.0907 44.5535C43.2224 44.4448 43.397 44.3904 43.6145 44.3904C43.8199 44.3904 43.9891 44.4448 44.122 44.5535C44.2561 44.6611 44.3552 44.8169 44.4193 45.0212C44.4845 45.2242 44.5171 45.4689 44.5171 45.7552ZM43.1469 45.7552C43.1469 45.9788 43.1614 46.1655 43.1904 46.3153C43.2206 46.4652 43.2701 46.5775 43.339 46.6525C43.4079 46.7262 43.4997 46.763 43.6145 46.763C43.7293 46.763 43.8211 46.7262 43.89 46.6525C43.9589 46.5787 44.0084 46.467 44.0386 46.3171C44.0701 46.1673 44.0858 45.98 44.0858 45.7552C44.0858 45.5329 44.0707 45.3468 44.0404 45.197C44.0102 45.0471 43.9607 44.9348 43.8918 44.8598C43.8229 44.7837 43.7305 44.7456 43.6145 44.7456C43.4985 44.7456 43.406 44.7837 43.3372 44.8598C43.2695 44.9348 43.2206 45.0471 43.1904 45.197C43.1614 45.3468 43.1469 45.5329 43.1469 45.7552ZM46.6415 45.7552C46.6415 45.9691 46.6246 46.1606 46.5907 46.3298C46.5581 46.4978 46.5061 46.6404 46.4348 46.7576C46.3635 46.8748 46.2705 46.9642 46.1557 47.0258C46.0409 47.0875 45.9019 47.1183 45.7388 47.1183C45.5346 47.1183 45.366 47.0645 45.2331 46.957C45.1002 46.8482 45.0017 46.6923 44.9377 46.4893C44.8736 46.2851 44.8416 46.0404 44.8416 45.7552C44.8416 45.4701 44.8706 45.226 44.9286 45.023C44.9878 44.8187 45.0833 44.6623 45.215 44.5535C45.3467 44.4448 45.5213 44.3904 45.7388 44.3904C45.9442 44.3904 46.1134 44.4448 46.2463 44.5535C46.3805 44.6611 46.4795 44.8169 46.5436 45.0212C46.6088 45.2242 46.6415 45.4689 46.6415 45.7552ZM45.2712 45.7552C45.2712 45.9788 45.2857 46.1655 45.3147 46.3153C45.3449 46.4652 45.3944 46.5775 45.4633 46.6525C45.5322 46.7262 45.624 46.763 45.7388 46.763C45.8536 46.763 45.9454 46.7262 46.0143 46.6525C46.0832 46.5787 46.1327 46.467 46.163 46.3171C46.1944 46.1673 46.2101 45.98 46.2101 45.7552C46.2101 45.5329 46.195 45.3468 46.1648 45.197C46.1346 45.0471 46.085 44.9348 46.0161 44.8598C45.9473 44.7837 45.8548 44.7456 45.7388 44.7456C45.6228 44.7456 45.5304 44.7837 45.4615 44.8598C45.3938 44.9348 45.3449 45.0471 45.3147 45.197C45.2857 45.3468 45.2712 45.5329 45.2712 45.7552ZM48.7658 45.7552C48.7658 45.9691 48.7489 46.1606 48.715 46.3298C48.6824 46.4978 48.6304 46.6404 48.5592 46.7576C48.4879 46.8748 48.3948 46.9642 48.28 47.0258C48.1652 47.0875 48.0263 47.1183 47.8631 47.1183C47.6589 47.1183 47.4903 47.0645 47.3574 46.957C47.2245 46.8482 47.126 46.6923 47.062 46.4893C46.9979 46.2851 46.9659 46.0404 46.9659 45.7552C46.9659 45.4701 46.9949 45.226 47.0529 45.023C47.1121 44.8187 47.2076 44.6623 47.3393 44.5535C47.471 44.4448 47.6456 44.3904 47.8631 44.3904C48.0686 44.3904 48.2377 44.4448 48.3706 44.5535C48.5048 44.6611 48.6039 44.8169 48.6679 45.0212C48.7332 45.2242 48.7658 45.4689 48.7658 45.7552ZM47.3955 45.7552C47.3955 45.9788 47.41 46.1655 47.439 46.3153C47.4692 46.4652 47.5187 46.5775 47.5876 46.6525C47.6565 46.7262 47.7483 46.763 47.8631 46.763C47.9779 46.763 48.0698 46.7262 48.1386 46.6525C48.2075 46.5787 48.2571 46.467 48.2873 46.3171C48.3187 46.1673 48.3344 45.98 48.3344 45.7552C48.3344 45.5329 48.3193 45.3468 48.2891 45.197C48.2589 45.0471 48.2093 44.9348 48.1405 44.8598C48.0716 44.7837 47.9791 44.7456 47.8631 44.7456C47.7471 44.7456 47.6547 44.7837 47.5858 44.8598C47.5181 44.9348 47.4692 45.0471 47.439 45.197C47.41 45.3468 47.3955 45.5329 47.3955 45.7552ZM50.8901 45.7552C50.8901 45.9691 50.8732 46.1606 50.8394 46.3298C50.8067 46.4978 50.7548 46.6404 50.6835 46.7576C50.6122 46.8748 50.5191 46.9642 50.4043 47.0258C50.2895 47.0875 50.1506 47.1183 49.9875 47.1183C49.7832 47.1183 49.6147 47.0645 49.4817 46.957C49.3488 46.8482 49.2503 46.6923 49.1863 46.4893C49.1223 46.2851 49.0902 46.0404 49.0902 45.7552C49.0902 45.4701 49.1192 45.226 49.1772 45.023C49.2364 44.8187 49.3319 44.6623 49.4636 44.5535C49.5953 44.4448 49.7699 44.3904 49.9875 44.3904C50.1929 44.3904 50.362 44.4448 50.495 44.5535C50.6291 44.6611 50.7282 44.8169 50.7922 45.0212C50.8575 45.2242 50.8901 45.4689 50.8901 45.7552ZM49.5198 45.7552C49.5198 45.9788 49.5343 46.1655 49.5633 46.3153C49.5935 46.4652 49.6431 46.5775 49.7119 46.6525C49.7808 46.7262 49.8727 46.763 49.9875 46.763C50.1022 46.763 50.1941 46.7262 50.263 46.6525C50.3318 46.5787 50.3814 46.467 50.4116 46.3171C50.443 46.1673 50.4587 45.98 50.4587 45.7552C50.4587 45.5329 50.4436 45.3468 50.4134 45.197C50.3832 45.0471 50.3337 44.9348 50.2648 44.8598C50.1959 44.7837 50.1035 44.7456 49.9875 44.7456C49.8714 44.7456 49.779 44.7837 49.7101 44.8598C49.6425 44.9348 49.5935 45.0471 49.5633 45.197C49.5343 45.3468 49.5198 45.5329 49.5198 45.7552Z" fill="#212121"/>
<path d="M43.9729 67.5H43.5452V65.7944C43.5452 65.7376 43.5458 65.6808 43.547 65.624C43.5482 65.5672 43.5494 65.5116 43.5506 65.4572C43.553 65.4029 43.5561 65.3509 43.5597 65.3014C43.5343 65.3292 43.5029 65.3594 43.4654 65.392C43.4292 65.4246 43.3905 65.4585 43.3494 65.4935L43.0449 65.7364L42.831 65.4663L43.6177 64.85H43.9729V67.5ZM46.6392 67.5H44.8448V67.1792L45.5317 66.4832C45.6647 66.3478 45.774 66.2312 45.8598 66.1333C45.9456 66.0342 46.0091 65.9406 46.0501 65.8524C46.0924 65.7642 46.1136 65.6681 46.1136 65.5642C46.1136 65.4361 46.0767 65.3394 46.003 65.2742C45.9293 65.2077 45.832 65.1745 45.7112 65.1745C45.5964 65.1745 45.4901 65.1974 45.3922 65.2434C45.2955 65.2881 45.1952 65.3521 45.0913 65.4355L44.8575 65.1545C44.9312 65.0917 45.0097 65.0343 45.0931 64.9824C45.1777 64.9304 45.2719 64.8893 45.3759 64.8591C45.4798 64.8277 45.5982 64.812 45.7311 64.812C45.8991 64.812 46.0441 64.8422 46.1661 64.9026C46.2882 64.9618 46.3818 65.0446 46.4471 65.1509C46.5135 65.2573 46.5468 65.3811 46.5468 65.5225C46.5468 65.6651 46.5184 65.7968 46.4616 65.9176C46.4048 66.0385 46.3238 66.1581 46.2187 66.2765C46.1136 66.3937 45.9885 66.5212 45.8435 66.659L45.3849 67.1067V67.1266H46.6392V67.5ZM48.662 65.4554C48.662 65.5751 48.6379 65.679 48.5895 65.7672C48.5412 65.8554 48.4747 65.9279 48.3902 65.9847C48.3068 66.0403 48.2101 66.0802 48.1001 66.1043V66.117C48.3116 66.1436 48.4711 66.2101 48.5787 66.3164C48.6874 66.4227 48.7418 66.5635 48.7418 66.7387C48.7418 66.8922 48.7049 67.0293 48.6312 67.1502C48.5575 67.2698 48.4445 67.3641 48.2923 67.4329C48.14 67.5018 47.9443 67.5363 47.705 67.5363C47.5612 67.5363 47.4277 67.5248 47.3044 67.5018C47.1824 67.4789 47.0664 67.442 46.9564 67.3912V67.0124C47.0688 67.068 47.1884 67.1109 47.3153 67.1411C47.4422 67.1713 47.5624 67.1864 47.676 67.1864C47.8971 67.1864 48.0548 67.1453 48.1491 67.0632C48.2433 66.9798 48.2905 66.865 48.2905 66.7188C48.2905 66.6245 48.2657 66.5472 48.2161 66.4868C48.1678 66.4264 48.0923 66.381 47.9896 66.3508C47.8881 66.3206 47.757 66.3055 47.5962 66.3055H47.3624V65.9629H47.5981C47.7515 65.9629 47.8748 65.9448 47.9678 65.9086C48.0609 65.8711 48.1279 65.8198 48.169 65.7545C48.2113 65.6893 48.2325 65.6131 48.2325 65.5261C48.2325 65.4125 48.1956 65.3243 48.1219 65.2615C48.0482 65.1974 47.9388 65.1654 47.7938 65.1654C47.7044 65.1654 47.6228 65.1757 47.5491 65.1962C47.4766 65.2168 47.4096 65.2428 47.3479 65.2742C47.2863 65.3056 47.2277 65.3394 47.1721 65.3757L46.9673 65.0802C47.0676 65.0053 47.1872 64.9419 47.3262 64.8899C47.4651 64.838 47.6271 64.812 47.8119 64.812C48.0838 64.812 48.2935 64.8706 48.4409 64.9878C48.5883 65.1038 48.662 65.2597 48.662 65.4554Z" fill="#212121"/>
<rect x="62.5067" y="14.5116" width="18.428" height="5.17045" rx="2.58523" fill="white"/>
<rect x="62.5067" y="14.5116" width="18.428" height="5.17045" rx="2.58523" stroke="#D5D5D5" stroke-width="0.132576"/>
<circle cx="65.4249" cy="17.0977" r="1.06061" fill="#FFF9F0"/>
<path d="M69.1453 16.3718C69.0408 16.3718 68.9467 16.39 68.863 16.4262C68.7802 16.4616 68.7094 16.5134 68.6507 16.5816C68.5929 16.6489 68.5484 16.7305 68.5173 16.8263C68.4863 16.9221 68.4707 17.03 68.4707 17.1499C68.4707 17.3088 68.4953 17.4469 68.5445 17.5642C68.5946 17.6808 68.6688 17.771 68.7672 17.8348C68.8665 17.8987 68.9903 17.9306 69.1388 17.9306C69.2234 17.9306 69.3028 17.9237 69.377 17.9099C69.4521 17.8953 69.525 17.8771 69.5958 17.8556V18.0472C69.5268 18.0731 69.4543 18.092 69.3783 18.1041C69.3024 18.1171 69.2122 18.1235 69.1077 18.1235C68.9152 18.1235 68.7543 18.0838 68.6248 18.0044C68.4962 17.9242 68.3995 17.8111 68.3348 17.6652C68.2709 17.5194 68.239 17.3472 68.239 17.1487C68.239 17.0054 68.2588 16.8746 68.2985 16.7564C68.3391 16.6373 68.3978 16.5345 68.4746 16.4482C68.5523 16.3619 68.6472 16.2955 68.7594 16.2488C68.8725 16.2014 69.002 16.1776 69.1479 16.1776C69.2437 16.1776 69.336 16.1871 69.4249 16.2061C69.5138 16.2251 69.5941 16.2523 69.6657 16.2877L69.5777 16.4741C69.5173 16.4465 69.4508 16.4228 69.3783 16.4029C69.3067 16.3822 69.229 16.3718 69.1453 16.3718ZM70.5047 16.6554C70.6739 16.6554 70.7994 16.6934 70.8814 16.7693C70.9634 16.8453 71.0044 16.9665 71.0044 17.1331V18.0977H70.8478L70.8063 17.8879H70.796C70.7563 17.9397 70.7149 17.9833 70.6717 18.0187C70.6285 18.0532 70.5785 18.0795 70.5215 18.0977C70.4654 18.1149 70.3964 18.1235 70.3144 18.1235C70.2281 18.1235 70.1512 18.1084 70.0839 18.0782C70.0174 18.048 69.9648 18.0023 69.926 17.941C69.888 17.8797 69.869 17.802 69.869 17.708C69.869 17.5664 69.9251 17.4577 70.0373 17.3817C70.1495 17.3057 70.3204 17.2643 70.55 17.2574L70.7947 17.247V17.1603C70.7947 17.0377 70.7684 16.9519 70.7157 16.9027C70.6631 16.8535 70.5888 16.8289 70.493 16.8289C70.4188 16.8289 70.348 16.8397 70.2807 16.8612C70.2134 16.8828 70.1495 16.9083 70.0891 16.9376L70.0231 16.7745C70.0869 16.7417 70.1603 16.7136 70.2432 16.6903C70.326 16.667 70.4132 16.6554 70.5047 16.6554ZM70.7921 17.3985L70.5759 17.4076C70.399 17.4145 70.2742 17.4434 70.2017 17.4943C70.1292 17.5453 70.093 17.6173 70.093 17.7105C70.093 17.7917 70.1176 17.8517 70.1668 17.8905C70.216 17.9293 70.2811 17.9488 70.3623 17.9488C70.4883 17.9488 70.5914 17.9138 70.6717 17.8439C70.752 17.774 70.7921 17.6691 70.7921 17.5293V17.3985ZM72.114 16.6528C72.2909 16.6528 72.432 16.7136 72.5373 16.8353C72.6426 16.957 72.6953 17.14 72.6953 17.3843C72.6953 17.5457 72.6711 17.6812 72.6228 17.7908C72.5745 17.9004 72.5063 17.9833 72.4182 18.0394C72.3311 18.0955 72.2279 18.1235 72.1088 18.1235C72.0337 18.1235 71.9677 18.1136 71.9107 18.0938C71.8537 18.0739 71.805 18.0472 71.7644 18.0135C71.7238 17.9798 71.6902 17.9432 71.6634 17.9035H71.6479C71.6505 17.9371 71.6535 17.9777 71.657 18.0252C71.6613 18.0726 71.6634 18.1141 71.6634 18.1494V18.7321H71.4472V16.6787H71.6246L71.6531 16.8884H71.6634C71.691 16.8453 71.7247 16.806 71.7644 16.7706C71.8041 16.7344 71.8525 16.7059 71.9094 16.6852C71.9672 16.6636 72.0354 16.6528 72.114 16.6528ZM72.0764 16.834C71.978 16.834 71.8986 16.853 71.8382 16.891C71.7787 16.929 71.7351 16.986 71.7074 17.0619C71.6798 17.137 71.6652 17.2315 71.6634 17.3454V17.3869C71.6634 17.5068 71.6764 17.6083 71.7023 17.6911C71.729 17.774 71.7726 17.837 71.833 17.8801C71.8943 17.9233 71.9763 17.9449 72.079 17.9449C72.1671 17.9449 72.2404 17.9211 72.2991 17.8737C72.3578 17.8262 72.4014 17.7602 72.4299 17.6756C72.4592 17.5901 72.4739 17.4922 72.4739 17.3817C72.4739 17.2142 72.4411 17.0813 72.3755 16.9829C72.3108 16.8837 72.2111 16.834 72.0764 16.834ZM73.6016 16.6554C73.7707 16.6554 73.8963 16.6934 73.9783 16.7693C74.0603 16.8453 74.1013 16.9665 74.1013 17.1331V18.0977H73.9447L73.9032 17.8879H73.8929C73.8532 17.9397 73.8117 17.9833 73.7686 18.0187C73.7254 18.0532 73.6754 18.0795 73.6184 18.0977C73.5623 18.1149 73.4932 18.1235 73.4113 18.1235C73.3249 18.1235 73.2481 18.1084 73.1808 18.0782C73.1143 18.048 73.0617 18.0023 73.0228 17.941C72.9849 17.8797 72.9659 17.802 72.9659 17.708C72.9659 17.5664 73.022 17.4577 73.1342 17.3817C73.2464 17.3057 73.4173 17.2643 73.6469 17.2574L73.8916 17.247V17.1603C73.8916 17.0377 73.8653 16.9519 73.8126 16.9027C73.76 16.8535 73.6857 16.8289 73.5899 16.8289C73.5157 16.8289 73.4449 16.8397 73.3776 16.8612C73.3103 16.8828 73.2464 16.9083 73.186 16.9376L73.1199 16.7745C73.1838 16.7417 73.2572 16.7136 73.34 16.6903C73.4229 16.667 73.5101 16.6554 73.6016 16.6554ZM73.889 17.3985L73.6728 17.4076C73.4958 17.4145 73.3711 17.4434 73.2986 17.4943C73.2261 17.5453 73.1899 17.6173 73.1899 17.7105C73.1899 17.7917 73.2145 17.8517 73.2637 17.8905C73.3129 17.9293 73.378 17.9488 73.4592 17.9488C73.5852 17.9488 73.6883 17.9138 73.7686 17.8439C73.8489 17.774 73.889 17.6691 73.889 17.5293V17.3985ZM75.1125 18.1235C74.9847 18.1235 74.8721 18.0972 74.7746 18.0446C74.677 17.9919 74.6011 17.9117 74.5467 17.8038C74.4923 17.6959 74.4651 17.5599 74.4651 17.3959C74.4651 17.2242 74.4936 17.0839 74.5506 16.9752C74.6084 16.8655 74.6878 16.7844 74.7888 16.7318C74.8898 16.6791 75.0046 16.6528 75.1332 16.6528C75.204 16.6528 75.2721 16.6601 75.3377 16.6748C75.4042 16.6886 75.4586 16.7063 75.5009 16.7279L75.4361 16.9078C75.393 16.8906 75.3429 16.875 75.286 16.8612C75.2299 16.8474 75.1772 16.8405 75.128 16.8405C75.0296 16.8405 74.9476 16.8617 74.882 16.904C74.8173 16.9462 74.7685 17.0084 74.7357 17.0904C74.7038 17.1724 74.6878 17.2734 74.6878 17.3933C74.6878 17.5081 74.7033 17.6061 74.7344 17.6872C74.7664 17.7684 74.8134 17.8305 74.8755 17.8737C74.9385 17.916 75.0171 17.9371 75.1112 17.9371C75.1863 17.9371 75.254 17.9293 75.3144 17.9138C75.3749 17.8974 75.4297 17.8784 75.4789 17.8568V18.0485C75.4314 18.0726 75.3783 18.0912 75.3196 18.1041C75.2618 18.1171 75.1927 18.1235 75.1125 18.1235ZM76.0304 16.6787V18.0977H75.8155V16.6787H76.0304ZM75.9255 16.1479C75.9609 16.1479 75.9911 16.1595 76.0162 16.1828C76.0421 16.2053 76.055 16.2406 76.055 16.289C76.055 16.3365 76.0421 16.3718 76.0162 16.3951C75.9911 16.4184 75.9609 16.4301 75.9255 16.4301C75.8884 16.4301 75.8573 16.4184 75.8323 16.3951C75.8081 16.3718 75.7961 16.3365 75.7961 16.289C75.7961 16.2406 75.8081 16.2053 75.8323 16.1828C75.8573 16.1595 75.8884 16.1479 75.9255 16.1479ZM76.9444 17.9475C76.9798 17.9475 77.0161 17.9445 77.0532 17.9384C77.0903 17.9324 77.1205 17.925 77.1438 17.9164V18.0834C77.1188 18.0946 77.0838 18.1041 77.039 18.1119C76.9949 18.1197 76.9518 18.1235 76.9095 18.1235C76.8344 18.1235 76.7662 18.1106 76.7049 18.0847C76.6436 18.058 76.5944 18.0131 76.5573 17.9501C76.5211 17.8871 76.503 17.7999 76.503 17.6885V16.847H76.301V16.7421L76.5043 16.658L76.5897 16.3498H76.7192V16.6787H77.1348V16.847H76.7192V17.6821C76.7192 17.771 76.7395 17.8374 76.78 17.8814C76.8215 17.9255 76.8763 17.9475 76.9444 17.9475ZM77.2073 16.6787H77.4377L77.751 17.5021C77.7692 17.5504 77.786 17.597 77.8015 17.6419C77.8171 17.6859 77.8309 17.7282 77.843 17.7688C77.855 17.8094 77.8645 17.8486 77.8714 17.8866H77.8805C77.8926 17.8435 77.9099 17.7869 77.9323 17.717C77.9547 17.6462 77.9789 17.5742 78.0048 17.5008L78.3013 16.6787H78.533L77.9155 18.3061C77.8827 18.3933 77.8443 18.4692 77.8002 18.534C77.7571 18.5987 77.7044 18.6483 77.6423 18.6829C77.5801 18.7182 77.505 18.7359 77.417 18.7359C77.3764 18.7359 77.3406 18.7333 77.3095 18.7282C77.2785 18.7239 77.2517 18.7187 77.2293 18.7126V18.5404C77.2483 18.5448 77.2711 18.5486 77.2979 18.5521C77.3255 18.5555 77.354 18.5573 77.3833 18.5573C77.4369 18.5573 77.483 18.5469 77.5219 18.5262C77.5616 18.5063 77.5957 18.477 77.6242 18.4382C77.6526 18.3993 77.6772 18.3531 77.698 18.2996L77.7756 18.1002L77.2073 16.6787Z" fill="#252525"/>
<rect x="62.5067" y="28.037" width="18.428" height="5.17045" rx="2.58523" fill="white"/>
<rect x="62.5067" y="28.037" width="18.428" height="5.17045" rx="2.58523" stroke="#D5D5D5" stroke-width="0.132576"/>
<circle cx="64.4249" cy="30.6231" r="1.06061" fill="#FFEDD5"/>
<path d="M68.768 29.7302V30.955C68.768 31.0888 68.7408 31.2079 68.6864 31.3123C68.6329 31.4168 68.5518 31.4992 68.443 31.5596C68.3343 31.6192 68.1979 31.6489 68.0339 31.6489C67.8 31.6489 67.6218 31.5855 67.4992 31.4586C67.3775 31.3317 67.3167 31.1621 67.3167 30.9498V29.7302H67.5381V30.9563C67.5381 31.1168 67.5803 31.2407 67.6649 31.3279C67.7504 31.415 67.8777 31.4586 68.0469 31.4586C68.1625 31.4586 68.257 31.4379 68.3304 31.3965C68.4046 31.3542 68.4594 31.2955 68.4948 31.2204C68.5311 31.1444 68.5492 31.0568 68.5492 30.9576V29.7302H68.768ZM69.6963 31.4729C69.7317 31.4729 69.7679 31.4698 69.805 31.4638C69.8422 31.4578 69.8724 31.4504 69.8957 31.4418V31.6088C69.8706 31.62 69.8357 31.6295 69.7908 31.6373C69.7468 31.6451 69.7036 31.6489 69.6613 31.6489C69.5862 31.6489 69.5181 31.636 69.4568 31.6101C69.3955 31.5833 69.3463 31.5385 69.3092 31.4755C69.2729 31.4124 69.2548 31.3253 69.2548 31.2139V30.3724H69.0528V30.2675L69.2561 30.1834L69.3416 29.8752H69.471V30.2041H69.8866V30.3724H69.471V31.2075C69.471 31.2964 69.4913 31.3628 69.5319 31.4068C69.5733 31.4509 69.6281 31.4729 69.6963 31.4729ZM70.398 30.2041V31.623H70.1831V30.2041H70.398ZM70.2931 29.6733C70.3285 29.6733 70.3587 29.6849 70.3838 29.7082C70.4097 29.7306 70.4226 29.766 70.4226 29.8144C70.4226 29.8618 70.4097 29.8972 70.3838 29.9205C70.3587 29.9438 70.3285 29.9555 70.2931 29.9555C70.256 29.9555 70.225 29.9438 70.1999 29.9205C70.1758 29.8972 70.1637 29.8618 70.1637 29.8144C70.1637 29.766 70.1758 29.7306 70.1999 29.7082C70.225 29.6849 70.256 29.6733 70.2931 29.6733ZM71.07 31.623H70.8537V29.6085H71.07V31.623ZM71.7393 30.2041V31.623H71.5244V30.2041H71.7393ZM71.6344 29.6733C71.6698 29.6733 71.7 29.6849 71.7251 29.7082C71.751 29.7306 71.7639 29.766 71.7639 29.8144C71.7639 29.8618 71.751 29.8972 71.7251 29.9205C71.7 29.9438 71.6698 29.9555 71.6344 29.9555C71.5973 29.9555 71.5663 29.9438 71.5412 29.9205C71.5171 29.8972 71.505 29.8618 71.505 29.8144C71.505 29.766 71.5171 29.7306 71.5412 29.7082C71.5663 29.6849 71.5973 29.6733 71.6344 29.6733ZM73.1065 31.623H72.072V31.4806L72.8501 30.3724H72.1212V30.2041H73.0897V30.3633L72.3219 31.456H73.1065V31.623ZM73.9688 30.1808C74.1379 30.1808 74.2635 30.2187 74.3455 30.2947C74.4275 30.3707 74.4685 30.4919 74.4685 30.6585V31.623H74.3118L74.2704 31.4133H74.2601C74.2204 31.4651 74.1789 31.5087 74.1358 31.5441C74.0926 31.5786 74.0426 31.6049 73.9856 31.623C73.9295 31.6403 73.8604 31.6489 73.7784 31.6489C73.6921 31.6489 73.6153 31.6338 73.548 31.6036C73.4815 31.5734 73.4289 31.5277 73.39 31.4664C73.3521 31.4051 73.3331 31.3274 73.3331 31.2333C73.3331 31.0918 73.3892 30.983 73.5014 30.9071C73.6136 30.8311 73.7845 30.7897 74.0141 30.7828L74.2588 30.7724V30.6857C74.2588 30.5631 74.2324 30.4773 74.1798 30.4281C74.1271 30.3789 74.0529 30.3543 73.9571 30.3543C73.8829 30.3543 73.8121 30.365 73.7448 30.3866C73.6775 30.4082 73.6136 30.4337 73.5532 30.463L73.4871 30.2999C73.551 30.2671 73.6244 30.239 73.7072 30.2157C73.7901 30.1924 73.8773 30.1808 73.9688 30.1808ZM74.2562 30.9239L74.04 30.933C73.863 30.9399 73.7383 30.9688 73.6658 31.0197C73.5933 31.0706 73.557 31.1427 73.557 31.2359C73.557 31.3171 73.5816 31.3771 73.6308 31.4159C73.68 31.4547 73.7452 31.4742 73.8263 31.4742C73.9524 31.4742 74.0555 31.4392 74.1358 31.3693C74.216 31.2994 74.2562 31.1945 74.2562 31.0547V30.9239ZM75.3696 31.4729C75.405 31.4729 75.4412 31.4698 75.4784 31.4638C75.5155 31.4578 75.5457 31.4504 75.569 31.4418V31.6088C75.544 31.62 75.509 31.6295 75.4641 31.6373C75.4201 31.6451 75.3769 31.6489 75.3346 31.6489C75.2596 31.6489 75.1914 31.636 75.1301 31.6101C75.0688 31.5833 75.0196 31.5385 74.9825 31.4755C74.9462 31.4124 74.9281 31.3253 74.9281 31.2139V30.3724H74.7261V30.2675L74.9294 30.1834L75.0149 29.8752H75.1443V30.2041H75.5599V30.3724H75.1443V31.2075C75.1443 31.2964 75.1646 31.3628 75.2052 31.4068C75.2466 31.4509 75.3014 31.4729 75.3696 31.4729ZM76.0713 30.2041V31.623H75.8564V30.2041H76.0713ZM75.9665 29.6733C76.0018 29.6733 76.0321 29.6849 76.0571 29.7082C76.083 29.7306 76.0959 29.766 76.0959 29.8144C76.0959 29.8618 76.083 29.8972 76.0571 29.9205C76.0321 29.9438 76.0018 29.9555 75.9665 29.9555C75.9293 29.9555 75.8983 29.9438 75.8732 29.9205C75.8491 29.8972 75.837 29.8618 75.837 29.8144C75.837 29.766 75.8491 29.7306 75.8732 29.7082C75.8983 29.6849 75.9293 29.6733 75.9665 29.6733ZM77.7505 30.911C77.7505 31.0275 77.7354 31.1315 77.7052 31.223C77.675 31.3145 77.6314 31.3917 77.5745 31.4547C77.5175 31.5177 77.4484 31.5661 77.3673 31.5997C77.287 31.6325 77.196 31.6489 77.0941 31.6489C76.9992 31.6489 76.912 31.6325 76.8326 31.5997C76.7541 31.5661 76.6859 31.5177 76.628 31.4547C76.5711 31.3917 76.5266 31.3145 76.4947 31.223C76.4636 31.1315 76.4481 31.0275 76.4481 30.911C76.4481 30.7556 76.4744 30.6236 76.5271 30.5148C76.5797 30.4052 76.6548 30.3219 76.7523 30.2649C76.8507 30.2071 76.9677 30.1782 77.1032 30.1782C77.2327 30.1782 77.3457 30.2071 77.4424 30.2649C77.5399 30.3228 77.6155 30.4065 77.669 30.5161C77.7233 30.6248 77.7505 30.7565 77.7505 30.911ZM76.6708 30.911C76.6708 31.0249 76.6859 31.1237 76.7161 31.2075C76.7463 31.2912 76.7929 31.3559 76.8559 31.4017C76.9189 31.4474 77 31.4703 77.0993 31.4703C77.1977 31.4703 77.2784 31.4474 77.3414 31.4017C77.4053 31.3559 77.4523 31.2912 77.4825 31.2075C77.5127 31.1237 77.5278 31.0249 77.5278 30.911C77.5278 30.7979 77.5127 30.7004 77.4825 30.6184C77.4523 30.5355 77.4057 30.4716 77.3427 30.4268C77.2797 30.3819 77.1981 30.3594 77.098 30.3594C76.9504 30.3594 76.8421 30.4082 76.773 30.5057C76.7049 30.6033 76.6708 30.7383 76.6708 30.911ZM78.794 30.1782C78.9624 30.1782 79.0897 30.2196 79.176 30.3025C79.2623 30.3845 79.3054 30.5165 79.3054 30.6986V31.623H79.0931V30.7129C79.0931 30.5946 79.0659 30.5062 79.0116 30.4475C78.958 30.3888 78.8756 30.3594 78.7643 30.3594C78.6072 30.3594 78.4967 30.4039 78.4328 30.4928C78.369 30.5817 78.337 30.7107 78.337 30.8799V31.623H78.1221V30.2041H78.2956L78.328 30.4086H78.3396C78.3698 30.3586 78.4082 30.3167 78.4548 30.283C78.5014 30.2485 78.5537 30.2226 78.6115 30.2054C78.6693 30.1872 78.7302 30.1782 78.794 30.1782Z" fill="#252525"/>
<rect x="62.5067" y="46.0663" width="18.428" height="5.17045" rx="2.58523" fill="white"/>
<rect x="62.5067" y="46.0663" width="18.428" height="5.17045" rx="2.58523" stroke="#D5D5D5" stroke-width="0.132576"/>
<circle cx="64.9249" cy="48.6524" r="1.06061" fill="#FFDFB5"/>
<path d="M68.6686 49.6523L68.0329 47.977H68.0225C68.026 48.0124 68.029 48.0556 68.0316 48.1065C68.0342 48.1574 68.0363 48.2131 68.0381 48.2735C68.0398 48.3331 68.0406 48.3939 68.0406 48.4561V49.6523H67.8361V47.7595H68.1623L68.7618 49.3339H68.7708L69.3794 47.7595H69.703V49.6523H69.4855V48.4405C69.4855 48.3844 69.4864 48.3283 69.4881 48.2722C69.4898 48.2152 69.492 48.1617 69.4946 48.1117C69.4972 48.0607 69.4998 48.0167 69.5023 47.9796H69.492L68.8485 49.6523H68.6686ZM71.412 48.9403C71.412 49.0568 71.3969 49.1608 71.3667 49.2523C71.3365 49.3438 71.2929 49.421 71.2359 49.484C71.179 49.547 71.1099 49.5954 71.0288 49.629C70.9485 49.6618 70.8574 49.6782 70.7556 49.6782C70.6607 49.6782 70.5735 49.6618 70.4941 49.629C70.4155 49.5954 70.3473 49.547 70.2895 49.484C70.2325 49.421 70.1881 49.3438 70.1562 49.2523C70.1251 49.1608 70.1096 49.0568 70.1096 48.9403C70.1096 48.7849 70.1359 48.6528 70.1885 48.5441C70.2412 48.4345 70.3163 48.3512 70.4138 48.2942C70.5122 48.2364 70.6292 48.2075 70.7647 48.2075C70.8941 48.2075 71.0072 48.2364 71.1039 48.2942C71.2014 48.352 71.2769 48.4358 71.3304 48.5454C71.3848 48.6541 71.412 48.7858 71.412 48.9403ZM70.3322 48.9403C70.3322 49.0542 70.3473 49.153 70.3776 49.2367C70.4078 49.3205 70.4544 49.3852 70.5174 49.431C70.5804 49.4767 70.6615 49.4996 70.7608 49.4996C70.8592 49.4996 70.9399 49.4767 71.0029 49.431C71.0668 49.3852 71.1138 49.3205 71.144 49.2367C71.1742 49.153 71.1893 49.0542 71.1893 48.9403C71.1893 48.8272 71.1742 48.7297 71.144 48.6477C71.1138 48.5648 71.0672 48.5009 71.0042 48.4561C70.9412 48.4112 70.8596 48.3887 70.7595 48.3887C70.6119 48.3887 70.5036 48.4375 70.4345 48.535C70.3663 48.6326 70.3322 48.7676 70.3322 48.9403ZM72.7015 49.2639C72.7015 49.3546 72.6786 49.431 72.6329 49.4931C72.588 49.5544 72.5233 49.6006 72.4387 49.6316C72.355 49.6627 72.2548 49.6782 72.1383 49.6782C72.0391 49.6782 71.9532 49.6705 71.8807 49.6549C71.8082 49.6394 71.7447 49.6174 71.6904 49.5889V49.3908C71.7482 49.4193 71.8172 49.4452 71.8975 49.4685C71.9778 49.4918 72.0598 49.5035 72.1435 49.5035C72.2661 49.5035 72.355 49.4836 72.4102 49.4439C72.4654 49.4042 72.4931 49.3503 72.4931 49.2821C72.4931 49.2432 72.4818 49.2091 72.4594 49.1798C72.4378 49.1496 72.4011 49.1207 72.3494 49.093C72.2976 49.0646 72.2259 49.0335 72.1344 48.9998C72.0438 48.9653 71.9653 48.9312 71.8988 48.8975C71.8332 48.863 71.7823 48.8212 71.746 48.772C71.7106 48.7228 71.693 48.6589 71.693 48.5803C71.693 48.4604 71.7413 48.3684 71.838 48.3046C71.9355 48.2398 72.0632 48.2075 72.2212 48.2075C72.3066 48.2075 72.3865 48.2161 72.4607 48.2334C72.5358 48.2498 72.6057 48.2722 72.6704 48.3007L72.5979 48.4729C72.5392 48.4479 72.4767 48.4267 72.4102 48.4094C72.3437 48.3922 72.276 48.3836 72.2069 48.3836C72.1077 48.3836 72.0313 48.4 71.9778 48.4328C71.9251 48.4655 71.8988 48.5104 71.8988 48.5674C71.8988 48.6114 71.9109 48.6477 71.9351 48.6762C71.9601 48.7046 71.9998 48.7314 72.0542 48.7564C72.1085 48.7815 72.1802 48.8108 72.2691 48.8445C72.358 48.8773 72.4348 48.9114 72.4995 48.9467C72.5643 48.9813 72.6139 49.0236 72.6484 49.0736C72.6838 49.1228 72.7015 49.1863 72.7015 49.2639ZM73.5055 49.5022C73.5409 49.5022 73.5772 49.4991 73.6143 49.4931C73.6514 49.4871 73.6816 49.4797 73.7049 49.4711V49.6381C73.6799 49.6493 73.6449 49.6588 73.6 49.6666C73.556 49.6744 73.5128 49.6782 73.4706 49.6782C73.3955 49.6782 73.3273 49.6653 73.266 49.6394C73.2047 49.6126 73.1555 49.5678 73.1184 49.5047C73.0821 49.4417 73.064 49.3546 73.064 49.2432V48.4017H72.8621V48.2968L73.0653 48.2127L73.1508 47.9045H73.2802V48.2334H73.6958V48.4017H73.2802V49.2367C73.2802 49.3257 73.3005 49.3921 73.3411 49.4361C73.3825 49.4802 73.4373 49.5022 73.5055 49.5022ZM76.2166 48.6878C76.2166 48.901 76.1777 49.0792 76.1001 49.2225C76.0224 49.3649 75.9097 49.4724 75.7621 49.5449C75.6154 49.6165 75.4372 49.6523 75.2274 49.6523H74.7135V47.7595H75.2844C75.4769 47.7595 75.6426 47.7949 75.7816 47.8657C75.9205 47.9356 76.0276 48.0396 76.1026 48.1777C76.1786 48.3149 76.2166 48.485 76.2166 48.6878ZM75.9848 48.6956C75.9848 48.5255 75.9564 48.3853 75.8994 48.2748C75.8433 48.1643 75.7604 48.0823 75.6508 48.0288C75.5421 47.9744 75.4087 47.9472 75.2507 47.9472H74.9335V49.4633H75.2015C75.4622 49.4633 75.6577 49.399 75.788 49.2704C75.9192 49.1418 75.9848 48.9502 75.9848 48.6956ZM77.1358 48.2101C77.305 48.2101 77.4306 48.248 77.5126 48.324C77.5946 48.4 77.6356 48.5212 77.6356 48.6878V49.6523H77.4789L77.4375 49.4426H77.4271C77.3874 49.4944 77.346 49.538 77.3028 49.5734C77.2597 49.6079 77.2096 49.6342 77.1526 49.6523C77.0965 49.6696 77.0275 49.6782 76.9455 49.6782C76.8592 49.6782 76.7824 49.6631 76.715 49.6329C76.6486 49.6027 76.5959 49.557 76.5571 49.4957C76.5191 49.4344 76.5001 49.3567 76.5001 49.2626C76.5001 49.1211 76.5562 49.0123 76.6684 48.9364C76.7806 48.8604 76.9515 48.819 77.1811 48.8121L77.4258 48.8017V48.715C77.4258 48.5924 77.3995 48.5065 77.3468 48.4573C77.2942 48.4082 77.22 48.3836 77.1242 48.3836C77.0499 48.3836 76.9792 48.3943 76.9118 48.4159C76.8445 48.4375 76.7806 48.463 76.7202 48.4923L76.6542 48.3292C76.7181 48.2964 76.7914 48.2683 76.8743 48.245C76.9571 48.2217 77.0443 48.2101 77.1358 48.2101ZM77.4232 48.9532L77.207 48.9623C77.0301 48.9692 76.9054 48.9981 76.8329 49.049C76.7604 49.0999 76.7241 49.172 76.7241 49.2652C76.7241 49.3464 76.7487 49.4064 76.7979 49.4452C76.8471 49.484 76.9123 49.5035 76.9934 49.5035C77.1194 49.5035 77.2226 49.4685 77.3028 49.3986C77.3831 49.3287 77.4232 49.2238 77.4232 49.084V48.9532ZM77.8544 48.2334H78.0848L78.3981 49.0568C78.4163 49.1051 78.4331 49.1517 78.4486 49.1966C78.4642 49.2406 78.478 49.2829 78.49 49.3235C78.5021 49.3641 78.5116 49.4033 78.5185 49.4413H78.5276C78.5397 49.3982 78.5569 49.3416 78.5794 49.2717C78.6018 49.2009 78.626 49.1289 78.6519 49.0555L78.9484 48.2334H79.1801L78.5626 49.8608C78.5298 49.948 78.4913 50.0239 78.4473 50.0887C78.4042 50.1534 78.3515 50.203 78.2894 50.2375C78.2272 50.2729 78.1521 50.2906 78.0641 50.2906C78.0235 50.2906 77.9877 50.288 77.9566 50.2829C77.9256 50.2785 77.8988 50.2734 77.8764 50.2673V50.0951C77.8954 50.0994 77.9182 50.1033 77.945 50.1068C77.9726 50.1102 78.0011 50.112 78.0304 50.112C78.0839 50.112 78.1301 50.1016 78.169 50.0809C78.2087 50.061 78.2428 50.0317 78.2712 49.9928C78.2997 49.954 78.3243 49.9078 78.345 49.8543L78.4227 49.6549L77.8544 48.2334Z" fill="#252525"/>
<rect x="58.7938" y="63.5663" width="19.7538" height="5.17045" rx="2.58523" fill="white"/>
<rect x="58.7938" y="63.5663" width="19.7538" height="5.17045" rx="2.58523" stroke="#D5D5D5" stroke-width="0.132576"/>
<circle cx="61.4776" cy="66.1524" r="1.06061" fill="#FFBF6B"/>
<path d="M64.3878 67.1523V65.2595H64.6079V66.9556H65.4482V67.1523H64.3878ZM66.2871 65.7075C66.408 65.7075 66.5116 65.7342 66.5979 65.7877C66.6842 65.8413 66.7502 65.9164 66.796 66.013C66.8417 66.1088 66.8646 66.221 66.8646 66.3496V66.483H65.8845C65.8871 66.6496 65.9285 66.7765 66.0088 66.8636C66.0891 66.9508 66.2021 66.9944 66.348 66.9944C66.4378 66.9944 66.5172 66.9862 66.5862 66.9698C66.6553 66.9534 66.7269 66.9292 66.8011 66.8973V67.0863C66.7295 67.1183 66.6583 67.1416 66.5875 67.1562C66.5176 67.1709 66.4347 67.1782 66.3389 67.1782C66.2026 67.1782 66.0834 67.1506 65.9816 67.0954C65.8806 67.0393 65.8021 66.9573 65.746 66.8494C65.6899 66.7415 65.6618 66.6094 65.6618 66.4532C65.6618 66.3004 65.6873 66.1684 65.7382 66.057C65.79 65.9448 65.8625 65.8585 65.9557 65.7981C66.0498 65.7377 66.1603 65.7075 66.2871 65.7075ZM66.2846 65.8836C66.1698 65.8836 66.0783 65.9211 66.0101 65.9962C65.9419 66.0713 65.9013 66.1762 65.8884 66.3108H66.6393C66.6384 66.2262 66.6251 66.152 66.5992 66.0881C66.5741 66.0234 66.5357 65.9733 66.4839 65.9379C66.4322 65.9017 66.3657 65.8836 66.2846 65.8836ZM67.7605 65.7101C67.9297 65.7101 68.0553 65.748 68.1373 65.824C68.2192 65.9 68.2602 66.0212 68.2602 66.1878V67.1523H68.1036L68.0622 66.9426H68.0518C68.0121 66.9944 67.9707 67.038 67.9275 67.0734C67.8844 67.1079 67.8343 67.1342 67.7773 67.1523C67.7212 67.1696 67.6522 67.1782 67.5702 67.1782C67.4839 67.1782 67.407 67.1631 67.3397 67.1329C67.2733 67.1027 67.2206 67.057 67.1818 66.9957C67.1438 66.9344 67.1248 66.8567 67.1248 66.7626C67.1248 66.6211 67.1809 66.5123 67.2931 66.4364C67.4053 66.3604 67.5762 66.319 67.8058 66.3121L68.0505 66.3017V66.215C68.0505 66.0924 68.0242 66.0065 67.9715 65.9573C67.9189 65.9082 67.8447 65.8836 67.7488 65.8836C67.6746 65.8836 67.6038 65.8943 67.5365 65.9159C67.4692 65.9375 67.4053 65.963 67.3449 65.9923L67.2789 65.8292C67.3427 65.7964 67.4161 65.7683 67.499 65.745C67.5818 65.7217 67.669 65.7101 67.7605 65.7101ZM68.0479 66.4532L67.8317 66.4623C67.6548 66.4692 67.53 66.4981 67.4575 66.549C67.385 66.5999 67.3488 66.672 67.3488 66.7652C67.3488 66.8464 67.3734 66.9064 67.4226 66.9452C67.4718 66.984 67.5369 67.0035 67.6181 67.0035C67.7441 67.0035 67.8472 66.9685 67.9275 66.8986C68.0078 66.8287 68.0479 66.7238 68.0479 66.584V66.4532ZM69.621 66.7639C69.621 66.8546 69.5981 66.931 69.5523 66.9931C69.5075 67.0544 69.4427 67.1006 69.3581 67.1316C69.2744 67.1627 69.1743 67.1782 69.0578 67.1782C68.9585 67.1782 68.8726 67.1705 68.8001 67.1549C68.7276 67.1394 68.6642 67.1174 68.6098 67.0889V66.8908C68.6676 66.9193 68.7367 66.9452 68.817 66.9685C68.8972 66.9918 68.9792 67.0035 69.063 67.0035C69.1855 67.0035 69.2744 66.9836 69.3297 66.9439C69.3849 66.9042 69.4125 66.8503 69.4125 66.7821C69.4125 66.7432 69.4013 66.7091 69.3789 66.6798C69.3573 66.6496 69.3206 66.6207 69.2688 66.593C69.217 66.5646 69.1454 66.5335 69.0539 66.4998C68.9633 66.4653 68.8847 66.4312 68.8183 66.3975C68.7527 66.363 68.7017 66.3212 68.6655 66.272C68.6301 66.2228 68.6124 66.1589 68.6124 66.0803C68.6124 65.9604 68.6607 65.8684 68.7574 65.8046C68.8549 65.7398 68.9827 65.7075 69.1406 65.7075C69.2261 65.7075 69.3059 65.7161 69.3801 65.7334C69.4552 65.7498 69.5252 65.7722 69.5899 65.8007L69.5174 65.9729C69.4587 65.9479 69.3961 65.9267 69.3297 65.9094C69.2632 65.8922 69.1954 65.8836 69.1264 65.8836C69.0271 65.8836 68.9507 65.9 68.8972 65.9328C68.8446 65.9655 68.8183 66.0104 68.8183 66.0674C68.8183 66.1114 68.8303 66.1477 68.8545 66.1762C68.8795 66.2046 68.9192 66.2314 68.9736 66.2564C69.028 66.2815 69.0996 66.3108 69.1885 66.3445C69.2774 66.3773 69.3543 66.4114 69.419 66.4467C69.4837 66.4813 69.5334 66.5236 69.5679 66.5736C69.6033 66.6228 69.621 66.6863 69.621 66.7639ZM70.425 67.0022C70.4603 67.0022 70.4966 66.9991 70.5337 66.9931C70.5708 66.9871 70.601 66.9797 70.6243 66.9711V67.1381C70.5993 67.1493 70.5644 67.1588 70.5195 67.1666C70.4755 67.1744 70.4323 67.1782 70.39 67.1782C70.3149 67.1782 70.2467 67.1653 70.1854 67.1394C70.1242 67.1126 70.075 67.0678 70.0378 67.0047C70.0016 66.9417 69.9835 66.8546 69.9835 66.7432V65.9017H69.7815V65.7968L69.9848 65.7127L70.0702 65.4045H70.1997V65.7334H70.6153V65.9017H70.1997V66.7367C70.1997 66.8257 70.22 66.8921 70.2605 66.9361C70.302 66.9802 70.3568 67.0022 70.425 67.0022ZM73.136 66.1878C73.136 66.401 73.0972 66.5792 73.0195 66.7225C72.9418 66.8649 72.8292 66.9724 72.6816 67.0449C72.5349 67.1165 72.3566 67.1523 72.1469 67.1523H71.6329V65.2595H72.2039C72.3963 65.2595 72.5621 65.2949 72.701 65.3657C72.84 65.4356 72.947 65.5396 73.0221 65.6777C73.0981 65.8149 73.136 65.985 73.136 66.1878ZM72.9043 66.1956C72.9043 66.0255 72.8758 65.8853 72.8188 65.7748C72.7627 65.6643 72.6799 65.5823 72.5703 65.5288C72.4615 65.4744 72.3281 65.4472 72.1702 65.4472H71.853V66.9633H72.121C72.3817 66.9633 72.5772 66.899 72.7075 66.7704C72.8387 66.6418 72.9043 66.4502 72.9043 66.1956ZM74.0553 65.7101C74.2244 65.7101 74.35 65.748 74.432 65.824C74.514 65.9 74.555 66.0212 74.555 66.1878V67.1523H74.3983L74.3569 66.9426H74.3466C74.3069 66.9944 74.2654 67.038 74.2223 67.0734C74.1791 67.1079 74.1291 67.1342 74.0721 67.1523C74.016 67.1696 73.9469 67.1782 73.8649 67.1782C73.7786 67.1782 73.7018 67.1631 73.6345 67.1329C73.568 67.1027 73.5154 67.057 73.4765 66.9957C73.4386 66.9344 73.4196 66.8567 73.4196 66.7626C73.4196 66.6211 73.4757 66.5123 73.5879 66.4364C73.7001 66.3604 73.871 66.319 74.1006 66.3121L74.3453 66.3017V66.215C74.3453 66.0924 74.3189 66.0065 74.2663 65.9573C74.2136 65.9082 74.1394 65.8836 74.0436 65.8836C73.9694 65.8836 73.8986 65.8943 73.8313 65.9159C73.764 65.9375 73.7001 65.963 73.6397 65.9923L73.5736 65.8292C73.6375 65.7964 73.7109 65.7683 73.7937 65.745C73.8766 65.7217 73.9638 65.7101 74.0553 65.7101ZM74.3427 66.4532L74.1265 66.4623C73.9495 66.4692 73.8248 66.4981 73.7523 66.549C73.6798 66.5999 73.6435 66.672 73.6435 66.7652C73.6435 66.8464 73.6681 66.9064 73.7173 66.9452C73.7665 66.984 73.8317 67.0035 73.9128 67.0035C74.0389 67.0035 74.142 66.9685 74.2223 66.8986C74.3025 66.8287 74.3427 66.7238 74.3427 66.584V66.4532ZM74.7738 65.7334H75.0043L75.3176 66.5568C75.3357 66.6051 75.3525 66.6517 75.3681 66.6966C75.3836 66.7406 75.3974 66.7829 75.4095 66.8235C75.4216 66.8641 75.4311 66.9033 75.438 66.9413H75.447C75.4591 66.8982 75.4764 66.8416 75.4988 66.7717C75.5213 66.7009 75.5454 66.6289 75.5713 66.5555L75.8678 65.7334H76.0996L75.482 67.3608C75.4492 67.448 75.4108 67.5239 75.3668 67.5887C75.3236 67.6534 75.271 67.703 75.2088 67.7375C75.1467 67.7729 75.0716 67.7906 74.9835 67.7906C74.943 67.7906 74.9072 67.788 74.8761 67.7829C74.845 67.7785 74.8183 67.7734 74.7958 67.7673V67.5951C74.8148 67.5994 74.8377 67.6033 74.8644 67.6068C74.8921 67.6102 74.9205 67.612 74.9499 67.612C75.0034 67.612 75.0496 67.6016 75.0884 67.5809C75.1281 67.561 75.1622 67.5317 75.1907 67.4928C75.2192 67.454 75.2438 67.4078 75.2645 67.3543L75.3422 67.1549L74.7738 65.7334Z" fill="#252525"/>
</svg>
