<svg width="92" height="92" viewBox="0 0 92 92" fill="none" xmlns="http://www.w3.org/2000/svg">
<rect x="0.389831" y="0.389831" width="91.079" height="91.2203" rx="17.5424" stroke="#BEBEBE" stroke-width="0.779661"/>
<rect width="70" height="60.7317" transform="translate(10.5 16.1328)" fill="white"/>
<path d="M20.2559 21.9863V69.0595" stroke="#E0E0E0" stroke-width="0.243902"/>
<path d="M28.1827 69.0595C28.1827 69.1269 28.2373 69.1814 28.3047 69.1814C28.372 69.1814 28.4266 69.1269 28.4266 69.0595H28.1827ZM28.3047 21.9863H28.1827V69.0595H28.3047H28.4266V21.9863H28.3047Z" fill="#E0E0E0"/>
<path d="M36.2316 69.0595C36.2316 69.1269 36.2862 69.1814 36.3535 69.1814C36.4209 69.1814 36.4755 69.1269 36.4755 69.0595H36.2316ZM36.3535 21.9863H36.2316V69.0595H36.3535H36.4755V21.9863H36.3535Z" fill="#E0E0E0"/>
<path d="M44.2804 69.0595C44.2804 69.1269 44.335 69.1814 44.4023 69.1814C44.4697 69.1814 44.5243 69.1269 44.5243 69.0595H44.2804ZM44.4023 21.9863H44.2804V69.0595H44.4023H44.5243V21.9863H44.4023Z" fill="#E0E0E0"/>
<path d="M52.3292 69.0595C52.3292 69.1269 52.3838 69.1814 52.4512 69.1814C52.5185 69.1814 52.5731 69.1269 52.5731 69.0595H52.3292ZM52.4512 21.9863H52.3292V69.0595H52.4512H52.5731V21.9863H52.4512Z" fill="#E0E0E0"/>
<path d="M60.378 69.0595C60.378 69.1269 60.4326 69.1814 60.5 69.1814C60.5674 69.1814 60.622 69.1269 60.622 69.0595H60.378ZM60.5 21.9863H60.378V69.0595H60.5H60.622V21.9863H60.5Z" fill="#E0E0E0"/>
<path d="M68.4269 69.0595C68.4269 69.1269 68.4815 69.1814 68.5488 69.1814C68.6162 69.1814 68.6708 69.1269 68.6708 69.0595H68.4269ZM68.5488 21.9863H68.4269V69.0595H68.5488H68.6708V21.9863H68.5488Z" fill="#E0E0E0"/>
<path d="M76.4757 69.0595C76.4757 69.1269 76.5303 69.1814 76.5977 69.1814C76.665 69.1814 76.7196 69.1269 76.7196 69.0595H76.4757ZM76.5977 21.9863H76.4757V69.0595H76.5977H76.7196V21.9863H76.5977Z" fill="#E0E0E0"/>
<path d="M14.3589 23.9863H13.4462V23.8539L13.8187 23.4757C13.8879 23.4058 13.946 23.3435 13.993 23.2889C14.0407 23.2343 14.0769 23.1806 14.1017 23.1279C14.1264 23.0746 14.1388 23.0161 14.1388 22.9526C14.1388 22.8738 14.1153 22.8138 14.0683 22.7725C14.0219 22.7306 13.9607 22.7097 13.8844 22.7097C13.8177 22.7097 13.7587 22.7211 13.7072 22.744C13.6558 22.7668 13.6031 22.7992 13.5491 22.8411L13.4643 22.7344C13.5011 22.7033 13.5411 22.6757 13.5843 22.6515C13.6281 22.6274 13.6748 22.6083 13.7244 22.5944C13.7745 22.5804 13.8279 22.5734 13.8844 22.5734C13.9702 22.5734 14.0442 22.5883 14.1064 22.6182C14.1687 22.648 14.2166 22.6906 14.2503 22.7459C14.2846 22.8011 14.3017 22.8669 14.3017 22.9431C14.3017 23.0168 14.2871 23.0853 14.2579 23.1489C14.2287 23.2117 14.1877 23.2743 14.135 23.3366C14.0823 23.3982 14.0207 23.4636 13.9502 23.5328L13.6472 23.8348V23.8415H14.3589V23.9863ZM15.003 23.1346C15.0976 23.1346 15.1798 23.1508 15.2497 23.1832C15.3196 23.2149 15.3736 23.2613 15.4117 23.3223C15.4504 23.3832 15.4698 23.4572 15.4698 23.5443C15.4698 23.6395 15.4492 23.7218 15.4079 23.791C15.3666 23.8596 15.3072 23.9126 15.2297 23.9501C15.1522 23.987 15.0595 24.0054 14.9515 24.0054C14.8791 24.0054 14.8118 23.999 14.7495 23.9863C14.6873 23.9736 14.6349 23.9546 14.5923 23.9292V23.7786C14.6387 23.8066 14.6949 23.8288 14.761 23.8453C14.827 23.8618 14.8912 23.8701 14.9534 23.8701C15.0239 23.8701 15.0855 23.859 15.1382 23.8367C15.1916 23.8139 15.2329 23.7796 15.2621 23.7339C15.292 23.6875 15.3069 23.6294 15.3069 23.5595C15.3069 23.4668 15.2783 23.3953 15.2211 23.3451C15.1646 23.2943 15.075 23.2689 14.9525 23.2689C14.9131 23.2689 14.8699 23.2721 14.8229 23.2784C14.7759 23.2848 14.7371 23.2918 14.7067 23.2994L14.6266 23.247L14.68 22.5934H15.3726V22.7382H14.8153L14.78 23.1584C14.8041 23.1533 14.8353 23.1482 14.8734 23.1431C14.9115 23.1374 14.9547 23.1346 15.003 23.1346ZM16.5998 23.288C16.5998 23.401 16.5912 23.502 16.574 23.5909C16.5569 23.6799 16.5299 23.7551 16.493 23.8167C16.4562 23.8784 16.4086 23.9254 16.3501 23.9577C16.2917 23.9895 16.2215 24.0054 16.1396 24.0054C16.036 24.0054 15.9503 23.9771 15.8823 23.9206C15.815 23.8641 15.7645 23.7824 15.7308 23.6757C15.6978 23.5684 15.6813 23.4391 15.6813 23.288C15.6813 23.1393 15.6962 23.0117 15.7261 22.905C15.7566 22.7976 15.8055 22.7154 15.8728 22.6582C15.9401 22.6004 16.0291 22.5715 16.1396 22.5715C16.2444 22.5715 16.3308 22.6001 16.3987 22.6573C16.4667 22.7138 16.5172 22.7957 16.5502 22.9031C16.5832 23.0098 16.5998 23.1381 16.5998 23.288ZM15.8404 23.288C15.8404 23.4175 15.8503 23.5255 15.87 23.6119C15.8896 23.6983 15.9214 23.7631 15.9652 23.8063C16.0097 23.8488 16.0678 23.8701 16.1396 23.8701C16.2114 23.8701 16.2692 23.8488 16.313 23.8063C16.3574 23.7637 16.3895 23.6992 16.4092 23.6129C16.4295 23.5265 16.4397 23.4182 16.4397 23.288C16.4397 23.1603 16.4298 23.0536 16.4102 22.9678C16.3905 22.8815 16.3587 22.8167 16.3149 22.7735C16.2711 22.7297 16.2126 22.7077 16.1396 22.7077C16.0665 22.7077 16.0081 22.7297 15.9643 22.7735C15.9204 22.8167 15.8887 22.8815 15.869 22.9678C15.8499 23.0536 15.8404 23.1603 15.8404 23.288ZM17.7164 23.288C17.7164 23.401 17.7078 23.502 17.6906 23.5909C17.6735 23.6799 17.6465 23.7551 17.6097 23.8167C17.5728 23.8784 17.5252 23.9254 17.4667 23.9577C17.4083 23.9895 17.3381 24.0054 17.2562 24.0054C17.1527 24.0054 17.0669 23.9771 16.999 23.9206C16.9316 23.8641 16.8811 23.7824 16.8475 23.6757C16.8144 23.5684 16.7979 23.4391 16.7979 23.288C16.7979 23.1393 16.8128 23.0117 16.8427 22.905C16.8732 22.7976 16.9221 22.7154 16.9894 22.6582C17.0568 22.6004 17.1457 22.5715 17.2562 22.5715C17.361 22.5715 17.4474 22.6001 17.5153 22.6573C17.5833 22.7138 17.6338 22.7957 17.6668 22.9031C17.6999 23.0098 17.7164 23.1381 17.7164 23.288ZM16.957 23.288C16.957 23.4175 16.9669 23.5255 16.9866 23.6119C17.0063 23.6983 17.038 23.7631 17.0818 23.8063C17.1263 23.8488 17.1844 23.8701 17.2562 23.8701C17.328 23.8701 17.3858 23.8488 17.4296 23.8063C17.4741 23.7637 17.5061 23.6992 17.5258 23.6129C17.5461 23.5265 17.5563 23.4182 17.5563 23.288C17.5563 23.1603 17.5465 23.0536 17.5268 22.9678C17.5071 22.8815 17.4753 22.8167 17.4315 22.7735C17.3877 22.7297 17.3292 22.7077 17.2562 22.7077C17.1831 22.7077 17.1247 22.7297 17.0809 22.7735C17.0371 22.8167 17.0053 22.8815 16.9856 22.9678C16.9666 23.0536 16.957 23.1603 16.957 23.288Z" fill="#212121"/>
<path d="M14.3589 31.377H13.4462V31.2445L13.8187 30.8663C13.8879 30.7964 13.946 30.7342 13.993 30.6795C14.0407 30.6249 14.0769 30.5712 14.1017 30.5185C14.1264 30.4652 14.1388 30.4067 14.1388 30.3432C14.1388 30.2645 14.1153 30.2044 14.0683 30.1632C14.0219 30.1212 13.9607 30.1003 13.8844 30.1003C13.8177 30.1003 13.7587 30.1117 13.7072 30.1346C13.6558 30.1574 13.6031 30.1898 13.5491 30.2318L13.4643 30.125C13.5011 30.0939 13.5411 30.0663 13.5843 30.0422C13.6281 30.018 13.6748 29.999 13.7244 29.985C13.7745 29.971 13.8279 29.964 13.8844 29.964C13.9702 29.964 14.0442 29.979 14.1064 30.0088C14.1687 30.0387 14.2166 30.0812 14.2503 30.1365C14.2846 30.1917 14.3017 30.2575 14.3017 30.3337C14.3017 30.4074 14.2871 30.476 14.2579 30.5395C14.2287 30.6024 14.1877 30.6649 14.135 30.7272C14.0823 30.7888 14.0207 30.8542 13.9502 30.9234L13.6472 31.2255V31.2321H14.3589V31.377ZM15.4831 30.6786C15.4831 30.7917 15.4746 30.8926 15.4574 30.9816C15.4403 31.0705 15.4133 31.1458 15.3764 31.2074C15.3396 31.269 15.292 31.316 15.2335 31.3484C15.1751 31.3801 15.1049 31.396 15.023 31.396C14.9194 31.396 14.8337 31.3677 14.7657 31.3112C14.6984 31.2547 14.6479 31.1731 14.6142 31.0664C14.5812 30.959 14.5647 30.8298 14.5647 30.6786C14.5647 30.53 14.5796 30.4023 14.6095 30.2956C14.64 30.1882 14.6889 30.106 14.7562 30.0488C14.8235 29.991 14.9124 29.9621 15.023 29.9621C15.1278 29.9621 15.2141 29.9907 15.2821 30.0479C15.3501 30.1044 15.4006 30.1863 15.4336 30.2937C15.4666 30.4004 15.4831 30.5287 15.4831 30.6786ZM14.7238 30.6786C14.7238 30.8082 14.7336 30.9161 14.7533 31.0025C14.773 31.0889 14.8048 31.1537 14.8486 31.1969C14.8931 31.2394 14.9512 31.2607 15.023 31.2607C15.0947 31.2607 15.1525 31.2394 15.1964 31.1969C15.2408 31.1543 15.2729 31.0899 15.2926 31.0035C15.3129 30.9171 15.3231 30.8088 15.3231 30.6786C15.3231 30.5509 15.3132 30.4442 15.2935 30.3585C15.2739 30.2721 15.2421 30.2073 15.1983 30.1641C15.1544 30.1203 15.096 30.0984 15.023 30.0984C14.9499 30.0984 14.8915 30.1203 14.8477 30.1641C14.8038 30.2073 14.7721 30.2721 14.7524 30.3585C14.7333 30.4442 14.7238 30.5509 14.7238 30.6786ZM16.5998 30.6786C16.5998 30.7917 16.5912 30.8926 16.574 30.9816C16.5569 31.0705 16.5299 31.1458 16.493 31.2074C16.4562 31.269 16.4086 31.316 16.3501 31.3484C16.2917 31.3801 16.2215 31.396 16.1396 31.396C16.036 31.396 15.9503 31.3677 15.8823 31.3112C15.815 31.2547 15.7645 31.1731 15.7308 31.0664C15.6978 30.959 15.6813 30.8298 15.6813 30.6786C15.6813 30.53 15.6962 30.4023 15.7261 30.2956C15.7566 30.1882 15.8055 30.106 15.8728 30.0488C15.9401 29.991 16.0291 29.9621 16.1396 29.9621C16.2444 29.9621 16.3308 29.9907 16.3987 30.0479C16.4667 30.1044 16.5172 30.1863 16.5502 30.2937C16.5832 30.4004 16.5998 30.5287 16.5998 30.6786ZM15.8404 30.6786C15.8404 30.8082 15.8503 30.9161 15.87 31.0025C15.8896 31.0889 15.9214 31.1537 15.9652 31.1969C16.0097 31.2394 16.0678 31.2607 16.1396 31.2607C16.2114 31.2607 16.2692 31.2394 16.313 31.1969C16.3574 31.1543 16.3895 31.0899 16.4092 31.0035C16.4295 30.9171 16.4397 30.8088 16.4397 30.6786C16.4397 30.5509 16.4298 30.4442 16.4102 30.3585C16.3905 30.2721 16.3587 30.2073 16.3149 30.1641C16.2711 30.1203 16.2126 30.0984 16.1396 30.0984C16.0665 30.0984 16.0081 30.1203 15.9643 30.1641C15.9204 30.2073 15.8887 30.2721 15.869 30.3585C15.8499 30.4442 15.8404 30.5509 15.8404 30.6786ZM17.7164 30.6786C17.7164 30.7917 17.7078 30.8926 17.6906 30.9816C17.6735 31.0705 17.6465 31.1458 17.6097 31.2074C17.5728 31.269 17.5252 31.316 17.4667 31.3484C17.4083 31.3801 17.3381 31.396 17.2562 31.396C17.1527 31.396 17.0669 31.3677 16.999 31.3112C16.9316 31.2547 16.8811 31.1731 16.8475 31.0664C16.8144 30.959 16.7979 30.8298 16.7979 30.6786C16.7979 30.53 16.8128 30.4023 16.8427 30.2956C16.8732 30.1882 16.9221 30.106 16.9894 30.0488C17.0568 29.991 17.1457 29.9621 17.2562 29.9621C17.361 29.9621 17.4474 29.9907 17.5153 30.0479C17.5833 30.1044 17.6338 30.1863 17.6668 30.2937C17.6999 30.4004 17.7164 30.5287 17.7164 30.6786ZM16.957 30.6786C16.957 30.8082 16.9669 30.9161 16.9866 31.0025C17.0063 31.0889 17.038 31.1537 17.0818 31.1969C17.1263 31.2394 17.1844 31.2607 17.2562 31.2607C17.328 31.2607 17.3858 31.2394 17.4296 31.1969C17.4741 31.1543 17.5061 31.0899 17.5258 31.0035C17.5461 30.9171 17.5563 30.8088 17.5563 30.6786C17.5563 30.5509 17.5465 30.4442 17.5268 30.3585C17.5071 30.2721 17.4753 30.2073 17.4315 30.1641C17.3877 30.1203 17.3292 30.0984 17.2562 30.0984C17.1831 30.0984 17.1247 30.1203 17.0809 30.1641C17.0371 30.2073 17.0053 30.2721 16.9856 30.3585C16.9666 30.4442 16.957 30.5509 16.957 30.6786Z" fill="#212121"/>
<path d="M14.035 38.7676H13.8806V37.7805C13.8806 37.7431 13.8806 37.711 13.8806 37.6843C13.8813 37.657 13.8819 37.6322 13.8825 37.61C13.8838 37.5871 13.8854 37.5639 13.8873 37.5404C13.8676 37.5608 13.8492 37.5782 13.832 37.5928C13.8149 37.6068 13.7936 37.6243 13.7682 37.6452L13.6091 37.7729L13.5262 37.6653L13.9035 37.3747H14.035V38.7676ZM15.003 37.9158C15.0976 37.9158 15.1798 37.932 15.2497 37.9644C15.3196 37.9962 15.3736 38.0425 15.4117 38.1035C15.4504 38.1645 15.4698 38.2385 15.4698 38.3255C15.4698 38.4208 15.4492 38.503 15.4079 38.5723C15.3666 38.6409 15.3072 38.6939 15.2297 38.7314C15.1522 38.7682 15.0595 38.7866 14.9515 38.7866C14.8791 38.7866 14.8118 38.7803 14.7495 38.7676C14.6873 38.7549 14.6349 38.7358 14.5923 38.7104V38.5599C14.6387 38.5878 14.6949 38.6101 14.761 38.6266C14.827 38.6431 14.8912 38.6513 14.9534 38.6513C15.0239 38.6513 15.0855 38.6402 15.1382 38.618C15.1916 38.5951 15.2329 38.5608 15.2621 38.5151C15.292 38.4687 15.3069 38.4106 15.3069 38.3407C15.3069 38.248 15.2783 38.1766 15.2211 38.1264C15.1646 38.0756 15.075 38.0502 14.9525 38.0502C14.9131 38.0502 14.8699 38.0533 14.8229 38.0597C14.7759 38.066 14.7371 38.073 14.7067 38.0806L14.6266 38.0282L14.68 37.3747H15.3726V37.5195H14.8153L14.78 37.9396C14.8041 37.9346 14.8353 37.9295 14.8734 37.9244C14.9115 37.9187 14.9547 37.9158 15.003 37.9158ZM16.5998 38.0692C16.5998 38.1823 16.5912 38.2833 16.574 38.3722C16.5569 38.4611 16.5299 38.5364 16.493 38.598C16.4562 38.6596 16.4086 38.7066 16.3501 38.739C16.2917 38.7708 16.2215 38.7866 16.1396 38.7866C16.036 38.7866 15.9503 38.7584 15.8823 38.7018C15.815 38.6453 15.7645 38.5637 15.7308 38.457C15.6978 38.3496 15.6813 38.2204 15.6813 38.0692C15.6813 37.9206 15.6962 37.7929 15.7261 37.6862C15.7566 37.5789 15.8055 37.4966 15.8728 37.4395C15.9401 37.3817 16.0291 37.3528 16.1396 37.3528C16.2444 37.3528 16.3308 37.3813 16.3987 37.4385C16.4667 37.495 16.5172 37.577 16.5502 37.6843C16.5832 37.791 16.5998 37.9193 16.5998 38.0692ZM15.8404 38.0692C15.8404 38.1988 15.8503 38.3068 15.87 38.3931C15.8896 38.4795 15.9214 38.5443 15.9652 38.5875C16.0097 38.6301 16.0678 38.6513 16.1396 38.6513C16.2114 38.6513 16.2692 38.6301 16.313 38.5875C16.3574 38.545 16.3895 38.4805 16.4092 38.3941C16.4295 38.3077 16.4397 38.1994 16.4397 38.0692C16.4397 37.9415 16.4298 37.8348 16.4102 37.7491C16.3905 37.6627 16.3587 37.5979 16.3149 37.5547C16.2711 37.5109 16.2126 37.489 16.1396 37.489C16.0665 37.489 16.0081 37.5109 15.9643 37.5547C15.9204 37.5979 15.8887 37.6627 15.869 37.7491C15.8499 37.8348 15.8404 37.9415 15.8404 38.0692ZM17.7164 38.0692C17.7164 38.1823 17.7078 38.2833 17.6906 38.3722C17.6735 38.4611 17.6465 38.5364 17.6097 38.598C17.5728 38.6596 17.5252 38.7066 17.4667 38.739C17.4083 38.7708 17.3381 38.7866 17.2562 38.7866C17.1527 38.7866 17.0669 38.7584 16.999 38.7018C16.9316 38.6453 16.8811 38.5637 16.8475 38.457C16.8144 38.3496 16.7979 38.2204 16.7979 38.0692C16.7979 37.9206 16.8128 37.7929 16.8427 37.6862C16.8732 37.5789 16.9221 37.4966 16.9894 37.4395C17.0568 37.3817 17.1457 37.3528 17.2562 37.3528C17.361 37.3528 17.4474 37.3813 17.5153 37.4385C17.5833 37.495 17.6338 37.577 17.6668 37.6843C17.6999 37.791 17.7164 37.9193 17.7164 38.0692ZM16.957 38.0692C16.957 38.1988 16.9669 38.3068 16.9866 38.3931C17.0063 38.4795 17.038 38.5443 17.0818 38.5875C17.1263 38.6301 17.1844 38.6513 17.2562 38.6513C17.328 38.6513 17.3858 38.6301 17.4296 38.5875C17.4741 38.545 17.5061 38.4805 17.5258 38.3941C17.5461 38.3077 17.5563 38.1994 17.5563 38.0692C17.5563 37.9415 17.5465 37.8348 17.5268 37.7491C17.5071 37.6627 17.4753 37.5979 17.4315 37.5547C17.3877 37.5109 17.3292 37.489 17.2562 37.489C17.1831 37.489 17.1247 37.5109 17.0809 37.5547C17.0371 37.5979 17.0053 37.6627 16.9856 37.7491C16.9666 37.8348 16.957 37.9415 16.957 38.0692Z" fill="#212121"/>
<path d="M14.035 46.1562H13.8806V45.1692C13.8806 45.1317 13.8806 45.0997 13.8806 45.073C13.8813 45.0457 13.8819 45.0209 13.8825 44.9987C13.8838 44.9758 13.8854 44.9526 13.8873 44.9291C13.8676 44.9494 13.8492 44.9669 13.832 44.9815C13.8149 44.9955 13.7936 45.013 13.7682 45.0339L13.6091 45.1616L13.5262 45.0539L13.9035 44.7633H14.035V46.1562ZM15.4831 45.4579C15.4831 45.5709 15.4746 45.6719 15.4574 45.7609C15.4403 45.8498 15.4133 45.9251 15.3764 45.9867C15.3396 46.0483 15.292 46.0953 15.2335 46.1277C15.1751 46.1594 15.1049 46.1753 15.023 46.1753C14.9194 46.1753 14.8337 46.147 14.7657 46.0905C14.6984 46.034 14.6479 45.9524 14.6142 45.8457C14.5812 45.7383 14.5647 45.6091 14.5647 45.4579C14.5647 45.3093 14.5796 45.1816 14.6095 45.0749C14.64 44.9675 14.6889 44.8853 14.7562 44.8281C14.8235 44.7703 14.9124 44.7414 15.023 44.7414C15.1278 44.7414 15.2141 44.77 15.2821 44.8272C15.3501 44.8837 15.4006 44.9656 15.4336 45.073C15.4666 45.1797 15.4831 45.308 15.4831 45.4579ZM14.7238 45.4579C14.7238 45.5875 14.7336 45.6954 14.7533 45.7818C14.773 45.8682 14.8048 45.933 14.8486 45.9762C14.8931 46.0187 14.9512 46.04 15.023 46.04C15.0947 46.04 15.1525 46.0187 15.1964 45.9762C15.2408 45.9336 15.2729 45.8692 15.2926 45.7828C15.3129 45.6964 15.3231 45.5881 15.3231 45.4579C15.3231 45.3302 15.3132 45.2235 15.2935 45.1378C15.2739 45.0514 15.2421 44.9866 15.1983 44.9434C15.1544 44.8996 15.096 44.8777 15.023 44.8777C14.9499 44.8777 14.8915 44.8996 14.8477 44.9434C14.8038 44.9866 14.7721 45.0514 14.7524 45.1378C14.7333 45.2235 14.7238 45.3302 14.7238 45.4579ZM16.5998 45.4579C16.5998 45.5709 16.5912 45.6719 16.574 45.7609C16.5569 45.8498 16.5299 45.9251 16.493 45.9867C16.4562 46.0483 16.4086 46.0953 16.3501 46.1277C16.2917 46.1594 16.2215 46.1753 16.1396 46.1753C16.036 46.1753 15.9503 46.147 15.8823 46.0905C15.815 46.034 15.7645 45.9524 15.7308 45.8457C15.6978 45.7383 15.6813 45.6091 15.6813 45.4579C15.6813 45.3093 15.6962 45.1816 15.7261 45.0749C15.7566 44.9675 15.8055 44.8853 15.8728 44.8281C15.9401 44.7703 16.0291 44.7414 16.1396 44.7414C16.2444 44.7414 16.3308 44.77 16.3987 44.8272C16.4667 44.8837 16.5172 44.9656 16.5502 45.073C16.5832 45.1797 16.5998 45.308 16.5998 45.4579ZM15.8404 45.4579C15.8404 45.5875 15.8503 45.6954 15.87 45.7818C15.8896 45.8682 15.9214 45.933 15.9652 45.9762C16.0097 46.0187 16.0678 46.04 16.1396 46.04C16.2114 46.04 16.2692 46.0187 16.313 45.9762C16.3574 45.9336 16.3895 45.8692 16.4092 45.7828C16.4295 45.6964 16.4397 45.5881 16.4397 45.4579C16.4397 45.3302 16.4298 45.2235 16.4102 45.1378C16.3905 45.0514 16.3587 44.9866 16.3149 44.9434C16.2711 44.8996 16.2126 44.8777 16.1396 44.8777C16.0665 44.8777 16.0081 44.8996 15.9643 44.9434C15.9204 44.9866 15.8887 45.0514 15.869 45.1378C15.8499 45.2235 15.8404 45.3302 15.8404 45.4579ZM17.7164 45.4579C17.7164 45.5709 17.7078 45.6719 17.6906 45.7609C17.6735 45.8498 17.6465 45.9251 17.6097 45.9867C17.5728 46.0483 17.5252 46.0953 17.4667 46.1277C17.4083 46.1594 17.3381 46.1753 17.2562 46.1753C17.1527 46.1753 17.0669 46.147 16.999 46.0905C16.9316 46.034 16.8811 45.9524 16.8475 45.8457C16.8144 45.7383 16.7979 45.6091 16.7979 45.4579C16.7979 45.3093 16.8128 45.1816 16.8427 45.0749C16.8732 44.9675 16.9221 44.8853 16.9894 44.8281C17.0568 44.7703 17.1457 44.7414 17.2562 44.7414C17.361 44.7414 17.4474 44.77 17.5153 44.8272C17.5833 44.8837 17.6338 44.9656 17.6668 45.073C17.6999 45.1797 17.7164 45.308 17.7164 45.4579ZM16.957 45.4579C16.957 45.5875 16.9669 45.6954 16.9866 45.7818C17.0063 45.8682 17.038 45.933 17.0818 45.9762C17.1263 46.0187 17.1844 46.04 17.2562 46.04C17.328 46.04 17.3858 46.0187 17.4296 45.9762C17.4741 45.9336 17.5061 45.8692 17.5258 45.7828C17.5461 45.6964 17.5563 45.5881 17.5563 45.4579C17.5563 45.3302 17.5465 45.2235 17.5268 45.1378C17.5071 45.0514 17.4753 44.9866 17.4315 44.9434C17.3877 44.8996 17.3292 44.8777 17.2562 44.8777C17.1831 44.8777 17.1247 44.8996 17.0809 44.9434C17.0371 44.9866 17.0053 45.0514 16.9856 45.1378C16.9666 45.2235 16.957 45.3302 16.957 45.4579Z" fill="#212121"/>
<path d="M15.0035 52.6951C15.0982 52.6951 15.1804 52.7113 15.2503 52.7437C15.3202 52.7755 15.3741 52.8218 15.4123 52.8828C15.451 52.9438 15.4704 53.0178 15.4704 53.1048C15.4704 53.2001 15.4497 53.2823 15.4084 53.3516C15.3672 53.4202 15.3078 53.4732 15.2303 53.5107C15.1528 53.5475 15.0601 53.5659 14.9521 53.5659C14.8797 53.5659 14.8123 53.5596 14.7501 53.5469C14.6878 53.5342 14.6354 53.5151 14.5929 53.4897V53.3392C14.6393 53.3671 14.6955 53.3894 14.7615 53.4059C14.8276 53.4224 14.8917 53.4306 14.954 53.4306C15.0245 53.4306 15.0861 53.4195 15.1388 53.3973C15.1922 53.3744 15.2335 53.3401 15.2627 53.2944C15.2925 53.248 15.3075 53.1899 15.3075 53.12C15.3075 53.0273 15.2789 52.9559 15.2217 52.9057C15.1652 52.8549 15.0756 52.8295 14.953 52.8295C14.9136 52.8295 14.8705 52.8326 14.8235 52.839C14.7765 52.8453 14.7377 52.8523 14.7072 52.8599L14.6272 52.8075L14.6805 52.154H15.3732V52.2988H14.8158L14.7806 52.7189C14.8047 52.7139 14.8358 52.7088 14.874 52.7037C14.9121 52.698 14.9553 52.6951 15.0035 52.6951ZM16.6003 52.8485C16.6003 52.9616 16.5917 53.0626 16.5746 53.1515C16.5575 53.2404 16.5305 53.3157 16.4936 53.3773C16.4568 53.4389 16.4091 53.4859 16.3507 53.5183C16.2923 53.5501 16.2221 53.5659 16.1401 53.5659C16.0366 53.5659 15.9509 53.5377 15.8829 53.4811C15.8156 53.4246 15.7651 53.343 15.7314 53.2363C15.6984 53.1289 15.6819 52.9997 15.6819 52.8485C15.6819 52.6999 15.6968 52.5722 15.7267 52.4655C15.7571 52.3582 15.8061 52.2759 15.8734 52.2187C15.9407 52.161 16.0296 52.1321 16.1401 52.1321C16.245 52.1321 16.3313 52.1606 16.3993 52.2178C16.4673 52.2743 16.5178 52.3563 16.5508 52.4636C16.5838 52.5703 16.6003 52.6986 16.6003 52.8485ZM15.841 52.8485C15.841 52.9781 15.8508 53.0861 15.8705 53.1724C15.8902 53.2588 15.922 53.3236 15.9658 53.3668C16.0103 53.4094 16.0684 53.4306 16.1401 53.4306C16.2119 53.4306 16.2697 53.4094 16.3135 53.3668C16.358 53.3243 16.3901 53.2598 16.4098 53.1734C16.4301 53.087 16.4403 52.9787 16.4403 52.8485C16.4403 52.7208 16.4304 52.6141 16.4107 52.5284C16.391 52.442 16.3593 52.3772 16.3155 52.334C16.2716 52.2902 16.2132 52.2683 16.1401 52.2683C16.0671 52.2683 16.0087 52.2902 15.9648 52.334C15.921 52.3772 15.8893 52.442 15.8696 52.5284C15.8505 52.6141 15.841 52.7208 15.841 52.8485ZM17.7169 52.8485C17.7169 52.9616 17.7084 53.0626 17.6912 53.1515C17.6741 53.2404 17.6471 53.3157 17.6102 53.3773C17.5734 53.4389 17.5258 53.4859 17.4673 53.5183C17.4089 53.5501 17.3387 53.5659 17.2568 53.5659C17.1532 53.5659 17.0675 53.5377 16.9995 53.4811C16.9322 53.4246 16.8817 53.343 16.848 53.2363C16.815 53.1289 16.7985 52.9997 16.7985 52.8485C16.7985 52.6999 16.8134 52.5722 16.8433 52.4655C16.8738 52.3582 16.9227 52.2759 16.99 52.2187C17.0573 52.161 17.1462 52.1321 17.2568 52.1321C17.3616 52.1321 17.4479 52.1606 17.5159 52.2178C17.5839 52.2743 17.6344 52.3563 17.6674 52.4636C17.7004 52.5703 17.7169 52.6986 17.7169 52.8485ZM16.9576 52.8485C16.9576 52.9781 16.9674 53.0861 16.9871 53.1724C17.0068 53.2588 17.0386 53.3236 17.0824 53.3668C17.1269 53.4094 17.185 53.4306 17.2568 53.4306C17.3285 53.4306 17.3863 53.4094 17.4302 53.3668C17.4746 53.3243 17.5067 53.2598 17.5264 53.1734C17.5467 53.087 17.5569 52.9787 17.5569 52.8485C17.5569 52.7208 17.547 52.6141 17.5273 52.5284C17.5077 52.442 17.4759 52.3772 17.4321 52.334C17.3882 52.2902 17.3298 52.2683 17.2568 52.2683C17.1837 52.2683 17.1253 52.2902 17.0815 52.334C17.0376 52.3772 17.0059 52.442 16.9862 52.5284C16.9671 52.6141 16.9576 52.7208 16.9576 52.8485Z" fill="#212121"/>
<path d="M15.1522 60.9375H14.9978V59.9505C14.9978 59.913 14.9978 59.8809 14.9978 59.8542C14.9984 59.8269 14.9991 59.8021 14.9997 59.7799C15.001 59.7571 15.0026 59.7339 15.0045 59.7104C14.9848 59.7307 14.9664 59.7482 14.9492 59.7628C14.9321 59.7767 14.9108 59.7942 14.8854 59.8152L14.7263 59.9428L14.6434 59.8352L15.0207 59.5446H15.1522V60.9375ZM16.6003 60.2391C16.6003 60.3522 16.5917 60.4532 16.5746 60.5421C16.5575 60.631 16.5305 60.7063 16.4936 60.7679C16.4568 60.8295 16.4091 60.8765 16.3507 60.9089C16.2923 60.9407 16.2221 60.9566 16.1401 60.9566C16.0366 60.9566 15.9509 60.9283 15.8829 60.8718C15.8156 60.8152 15.7651 60.7336 15.7314 60.6269C15.6984 60.5196 15.6819 60.3903 15.6819 60.2391C15.6819 60.0905 15.6968 59.9628 15.7267 59.8561C15.7571 59.7488 15.8061 59.6665 15.8734 59.6094C15.9407 59.5516 16.0296 59.5227 16.1401 59.5227C16.245 59.5227 16.3313 59.5513 16.3993 59.6084C16.4673 59.665 16.5178 59.7469 16.5508 59.8542C16.5838 59.9609 16.6003 60.0892 16.6003 60.2391ZM15.841 60.2391C15.841 60.3687 15.8508 60.4767 15.8705 60.5631C15.8902 60.6495 15.922 60.7142 15.9658 60.7574C16.0103 60.8 16.0684 60.8213 16.1401 60.8213C16.2119 60.8213 16.2697 60.8 16.3135 60.7574C16.358 60.7149 16.3901 60.6504 16.4098 60.564C16.4301 60.4776 16.4403 60.3693 16.4403 60.2391C16.4403 60.1115 16.4304 60.0048 16.4107 59.919C16.391 59.8326 16.3593 59.7678 16.3155 59.7247C16.2716 59.6808 16.2132 59.6589 16.1401 59.6589C16.0671 59.6589 16.0087 59.6808 15.9648 59.7247C15.921 59.7678 15.8893 59.8326 15.8696 59.919C15.8505 60.0048 15.841 60.1115 15.841 60.2391ZM17.7169 60.2391C17.7169 60.3522 17.7084 60.4532 17.6912 60.5421C17.6741 60.631 17.6471 60.7063 17.6102 60.7679C17.5734 60.8295 17.5258 60.8765 17.4673 60.9089C17.4089 60.9407 17.3387 60.9566 17.2568 60.9566C17.1532 60.9566 17.0675 60.9283 16.9995 60.8718C16.9322 60.8152 16.8817 60.7336 16.848 60.6269C16.815 60.5196 16.7985 60.3903 16.7985 60.2391C16.7985 60.0905 16.8134 59.9628 16.8433 59.8561C16.8738 59.7488 16.9227 59.6665 16.99 59.6094C17.0573 59.5516 17.1462 59.5227 17.2568 59.5227C17.3616 59.5227 17.4479 59.5513 17.5159 59.6084C17.5839 59.665 17.6344 59.7469 17.6674 59.8542C17.7004 59.9609 17.7169 60.0892 17.7169 60.2391ZM16.9576 60.2391C16.9576 60.3687 16.9674 60.4767 16.9871 60.5631C17.0068 60.6495 17.0386 60.7142 17.0824 60.7574C17.1269 60.8 17.185 60.8213 17.2568 60.8213C17.3285 60.8213 17.3863 60.8 17.4302 60.7574C17.4746 60.7149 17.5067 60.6504 17.5264 60.564C17.5467 60.4776 17.5569 60.3693 17.5569 60.2391C17.5569 60.1115 17.547 60.0048 17.5273 59.919C17.5077 59.8326 17.4759 59.7678 17.4321 59.7247C17.3882 59.6808 17.3298 59.6589 17.2568 59.6589C17.1837 59.6589 17.1253 59.6808 17.0815 59.7247C17.0376 59.7678 17.0059 59.8326 16.9862 59.919C16.9671 60.0048 16.9576 60.1115 16.9576 60.2391Z" fill="#212121"/>
<path d="M17.7169 67.6298C17.7169 67.7428 17.7084 67.8438 17.6912 67.9327C17.6741 68.0217 17.6471 68.0969 17.6102 68.1585C17.5734 68.2201 17.5258 68.2671 17.4673 68.2995C17.4089 68.3313 17.3387 68.3472 17.2568 68.3472C17.1532 68.3472 17.0675 68.3189 16.9995 68.2624C16.9322 68.2059 16.8817 68.1242 16.848 68.0175C16.815 67.9102 16.7985 67.7809 16.7985 67.6298C16.7985 67.4811 16.8134 67.3535 16.8433 67.2468C16.8738 67.1394 16.9227 67.0572 16.99 67C17.0573 66.9422 17.1462 66.9133 17.2568 66.9133C17.3616 66.9133 17.4479 66.9419 17.5159 66.999C17.5839 67.0556 17.6344 67.1375 17.6674 67.2449C17.7004 67.3516 17.7169 67.4799 17.7169 67.6298ZM16.9576 67.6298C16.9576 67.7593 16.9674 67.8673 16.9871 67.9537C17.0068 68.0401 17.0386 68.1049 17.0824 68.1481C17.1269 68.1906 17.185 68.2119 17.2568 68.2119C17.3285 68.2119 17.3863 68.1906 17.4302 68.1481C17.4746 68.1055 17.5067 68.041 17.5264 67.9546C17.5467 67.8683 17.5569 67.76 17.5569 67.6298C17.5569 67.5021 17.547 67.3954 17.5273 67.3096C17.5077 67.2233 17.4759 67.1585 17.4321 67.1153C17.3882 67.0715 17.3298 67.0495 17.2568 67.0495C17.1837 67.0495 17.1253 67.0715 17.0815 67.1153C17.0376 67.1585 17.0059 67.2233 16.9862 67.3096C16.9671 67.3954 16.9576 67.5021 16.9576 67.6298Z" fill="#212121"/>
<path d="M29.1407 71.5469H28.9863V70.5598C28.9863 70.5224 28.9863 70.4903 28.9863 70.4636C28.987 70.4363 28.9876 70.4115 28.9882 70.3893C28.9895 70.3664 28.9911 70.3432 28.993 70.3197C28.9733 70.3401 28.9549 70.3575 28.9377 70.3721C28.9206 70.3861 28.8993 70.4036 28.8739 70.4245L28.7148 70.5522L28.6319 70.4446L29.0092 70.154H29.1407V71.5469Z" fill="#212121"/>
<path d="M21.4234 70.8485C21.4234 70.9616 21.4148 71.0626 21.3977 71.1515C21.3805 71.2404 21.3535 71.3157 21.3167 71.3773C21.2799 71.4389 21.2322 71.4859 21.1738 71.5183C21.1153 71.5501 21.0452 71.5659 20.9632 71.5659C20.8597 71.5659 20.7739 71.5377 20.706 71.4811C20.6387 71.4246 20.5882 71.343 20.5545 71.2363C20.5215 71.1289 20.505 70.9997 20.505 70.8485C20.505 70.6999 20.5199 70.5722 20.5497 70.4655C20.5802 70.3582 20.6291 70.2759 20.6965 70.2187C20.7638 70.161 20.8527 70.1321 20.9632 70.1321C21.068 70.1321 21.1544 70.1606 21.2224 70.2178C21.2903 70.2743 21.3408 70.3563 21.3739 70.4636C21.4069 70.5703 21.4234 70.6986 21.4234 70.8485ZM20.6641 70.8485C20.6641 70.9781 20.6739 71.0861 20.6936 71.1724C20.7133 71.2588 20.745 71.3236 20.7889 71.3668C20.8333 71.4094 20.8915 71.4306 20.9632 71.4306C21.035 71.4306 21.0928 71.4094 21.1366 71.3668C21.1811 71.3243 21.2132 71.2598 21.2329 71.1734C21.2532 71.087 21.2633 70.9787 21.2633 70.8485C21.2633 70.7208 21.2535 70.6141 21.2338 70.5284C21.2141 70.442 21.1824 70.3772 21.1385 70.334C21.0947 70.2902 21.0363 70.2683 20.9632 70.2683C20.8902 70.2683 20.8317 70.2902 20.7879 70.334C20.7441 70.3772 20.7123 70.442 20.6926 70.5284C20.6736 70.6141 20.6641 70.7208 20.6641 70.8485Z" fill="#212121"/>
<path d="M37.5134 71.5469H36.6007V71.4144L36.9732 71.0362C37.0425 70.9663 37.1006 70.9041 37.1476 70.8495C37.1952 70.7948 37.2314 70.7412 37.2562 70.6885C37.281 70.6351 37.2933 70.5767 37.2933 70.5131C37.2933 70.4344 37.2698 70.3744 37.2228 70.3331C37.1765 70.2912 37.1152 70.2702 37.039 70.2702C36.9723 70.2702 36.9132 70.2816 36.8618 70.3045C36.8103 70.3274 36.7576 70.3598 36.7036 70.4017L36.6188 70.295C36.6556 70.2638 36.6957 70.2362 36.7389 70.2121C36.7827 70.1879 36.8294 70.1689 36.8789 70.1549C36.9291 70.1409 36.9824 70.134 37.039 70.134C37.1247 70.134 37.1987 70.1489 37.261 70.1787C37.3232 70.2086 37.3712 70.2511 37.4048 70.3064C37.4391 70.3617 37.4563 70.4274 37.4563 70.5036C37.4563 70.5773 37.4417 70.6459 37.4124 70.7094C37.3832 70.7723 37.3423 70.8349 37.2895 70.8971C37.2368 70.9587 37.1752 71.0241 37.1047 71.0934L36.8017 71.3954V71.4021H37.5134V71.5469Z" fill="#212121"/>
<path d="M45.755 70.4788C45.755 70.5411 45.7429 70.5951 45.7187 70.6408C45.6946 70.6865 45.661 70.724 45.6178 70.7532C45.5746 70.7818 45.5238 70.8018 45.4653 70.8133V70.8209C45.5758 70.8349 45.6587 70.8704 45.714 70.9276C45.7699 70.9848 45.7978 71.0597 45.7978 71.1524C45.7978 71.2331 45.7788 71.3046 45.7407 71.3668C45.7032 71.4291 45.6454 71.478 45.5673 71.5135C45.4898 71.5485 45.3904 71.5659 45.2691 71.5659C45.1954 71.5659 45.1271 71.5599 45.0642 71.5478C45.002 71.5364 44.9423 71.517 44.8851 71.4897V71.3411C44.9429 71.3697 45.0058 71.3922 45.0737 71.4087C45.1417 71.4246 45.2074 71.4325 45.271 71.4325C45.398 71.4325 45.4898 71.4075 45.5463 71.3573C45.6028 71.3065 45.6311 71.2372 45.6311 71.1496C45.6311 71.0892 45.6152 71.0407 45.5835 71.0038C45.5523 70.9663 45.5072 70.939 45.4482 70.9219C45.3897 70.9041 45.3192 70.8952 45.2367 70.8952H45.0976V70.7599H45.2376C45.3132 70.7599 45.3774 70.7488 45.4301 70.7266C45.4828 70.7043 45.5228 70.6732 45.5501 70.6332C45.5781 70.5925 45.592 70.5446 45.592 70.4893C45.592 70.4188 45.5685 70.3645 45.5215 70.3264C45.4745 70.2877 45.4107 70.2683 45.33 70.2683C45.2805 70.2683 45.2354 70.2734 45.1947 70.2835C45.1541 70.2937 45.116 70.3077 45.0804 70.3255C45.0448 70.3432 45.0093 70.3639 44.9737 70.3874L44.8937 70.2788C44.9445 70.2394 45.0064 70.2054 45.0795 70.1768C45.1525 70.1482 45.2354 70.134 45.3281 70.134C45.4704 70.134 45.5771 70.1663 45.6482 70.2311C45.7194 70.2959 45.755 70.3785 45.755 70.4788Z" fill="#212121"/>
<path d="M53.9248 71.2239H53.7161V71.5469H53.5618V71.2239H52.8882V71.0905L53.5513 70.1463H53.7161V71.081H53.9248V71.2239ZM53.5618 71.081V70.6256C53.5618 70.5906 53.5621 70.5592 53.5627 70.5312C53.5634 70.5027 53.5643 70.4763 53.5656 70.4522C53.5669 70.4274 53.5678 70.4039 53.5685 70.3817C53.5697 70.3594 53.5707 70.3375 53.5713 70.3159H53.5637C53.5516 70.3413 53.5376 70.3683 53.5218 70.3969C53.5065 70.4249 53.491 70.4499 53.4751 70.4722L53.0454 71.081H53.5618Z" fill="#212121"/>
<path d="M61.4315 70.6951C61.5261 70.6951 61.6084 70.7113 61.6783 70.7437C61.7481 70.7755 61.8021 70.8218 61.8402 70.8828C61.879 70.9438 61.8983 71.0178 61.8983 71.1048C61.8983 71.2001 61.8777 71.2823 61.8364 71.3516C61.7951 71.4202 61.7357 71.4732 61.6583 71.5107C61.5808 71.5475 61.488 71.5659 61.38 71.5659C61.3076 71.5659 61.2403 71.5596 61.1781 71.5469C61.1158 71.5342 61.0634 71.5151 61.0209 71.4897V71.3392C61.0672 71.3671 61.1234 71.3894 61.1895 71.4059C61.2556 71.4224 61.3197 71.4306 61.382 71.4306C61.4525 71.4306 61.5141 71.4195 61.5668 71.3973C61.6201 71.3744 61.6614 71.3401 61.6906 71.2944C61.7205 71.248 61.7354 71.1899 61.7354 71.12C61.7354 71.0273 61.7068 70.9559 61.6497 70.9057C61.5931 70.8549 61.5036 70.8295 61.381 70.8295C61.3416 70.8295 61.2984 70.8326 61.2514 70.839C61.2044 70.8453 61.1657 70.8523 61.1352 70.8599L61.0552 70.8075L61.1085 70.154H61.8012V70.2988H61.2438L61.2086 70.7189C61.2327 70.7139 61.2638 70.7088 61.3019 70.7037C61.34 70.698 61.3832 70.6951 61.4315 70.6951Z" fill="#212121"/>
<path d="M69.0544 70.9514C69.0544 70.8676 69.0602 70.7856 69.0716 70.7056C69.0837 70.6256 69.1037 70.5513 69.1316 70.4827C69.1596 70.4134 69.1977 70.3528 69.246 70.3007C69.2942 70.2486 69.3542 70.208 69.426 70.1787C69.4984 70.1489 69.5851 70.134 69.6861 70.134C69.7147 70.134 69.7455 70.1355 69.7785 70.1387C69.8116 70.1413 69.8389 70.1457 69.8605 70.1521V70.2883C69.837 70.28 69.81 70.274 69.7795 70.2702C69.7496 70.2664 69.7195 70.2645 69.689 70.2645C69.5708 70.2645 69.4778 70.2902 69.4098 70.3417C69.3425 70.3931 69.2939 70.463 69.2641 70.5513C69.2342 70.6389 69.2171 70.7377 69.2126 70.8476H69.2231C69.2428 70.8158 69.2679 70.7872 69.2984 70.7618C69.3288 70.7358 69.3657 70.7151 69.4089 70.6999C69.4527 70.6846 69.5035 70.677 69.5613 70.677C69.6426 70.677 69.7134 70.6935 69.7738 70.7266C69.8347 70.7596 69.8817 70.8075 69.9148 70.8704C69.9484 70.9333 69.9653 71.0095 69.9653 71.0991C69.9653 71.195 69.9475 71.2779 69.9119 71.3478C69.8763 71.4176 69.8255 71.4716 69.7595 71.5097C69.6941 71.5472 69.6159 71.5659 69.5251 71.5659C69.4571 71.5659 69.3946 71.5529 69.3374 71.5269C69.2802 71.5008 69.2304 71.4621 69.1878 71.4106C69.1459 71.3592 69.1132 71.2954 69.0897 71.2191C69.0662 71.1423 69.0544 71.053 69.0544 70.9514ZM69.5232 71.4325C69.6096 71.4325 69.6788 71.4049 69.7309 71.3497C69.783 71.2944 69.809 71.2109 69.809 71.0991C69.809 71.0076 69.7858 70.9352 69.7395 70.8819C69.6931 70.8285 69.6232 70.8018 69.5299 70.8018C69.4664 70.8018 69.4111 70.8152 69.3641 70.8418C69.3171 70.8679 69.2806 70.9009 69.2545 70.9409C69.2285 70.9809 69.2155 71.0216 69.2155 71.0629C69.2155 71.1048 69.2215 71.1474 69.2336 71.1905C69.2463 71.2337 69.2653 71.2738 69.2907 71.3106C69.3161 71.3474 69.3482 71.377 69.387 71.3992C69.4257 71.4214 69.4711 71.4325 69.5232 71.4325Z" fill="#212121"/>
<path d="M77.0249 71.5469L77.5966 70.2988H76.8372V70.154H77.7661V70.2759L77.1983 71.5469H77.0249Z" fill="#212121"/>
<path d="M20.1339 69.0595C20.1339 69.1269 20.1885 69.1814 20.2559 69.1814C20.3232 69.1814 20.3778 69.1269 20.3778 69.0595H20.1339ZM20.2559 21.9863H20.1339V69.0595H20.2559H20.3778V21.9863H20.2559Z" fill="#D4D4D4"/>
<path d="M20.2559 69.0586H76.5973" stroke="#D4D4D4" stroke-width="0.243902"/>
<path opacity="0.8" d="M20.1758 67.6854C20.1758 67.6854 23.9008 50.748 30.5943 48.8273C37.2878 46.9066 45.1608 51.2447 50.9657 57.7325C54.9236 62.156 55.8548 66.8706 66.2151 67.6854C76.5755 68.5003 76.5975 66.1307 76.5975 66.1307" stroke="#99F7FF" stroke-width="0.349224"/>
<g filter="url(#filter0_d_7615_132771)">
<rect x="49.0371" y="54.6719" width="6.09756" height="3.65854" rx="1.82927" fill="white"/>
</g>
<path d="M51.0019 57.1602H50.777V56.2636C50.777 56.2338 50.7773 56.2039 50.778 56.1741C50.7786 56.1442 50.7792 56.115 50.7799 56.0864C50.7811 56.0578 50.7827 56.0305 50.7846 56.0045C50.7713 56.0191 50.7548 56.035 50.7351 56.0521C50.716 56.0693 50.6957 56.087 50.6741 56.1055L50.5141 56.2331L50.4016 56.0912L50.8151 55.7672H51.0019V57.1602ZM52.4033 57.1602H51.4601V56.9915L51.8212 56.6257C51.8911 56.5545 51.9486 56.4932 51.9937 56.4418C52.0388 56.3897 52.0721 56.3405 52.0937 56.2941C52.1159 56.2477 52.127 56.1972 52.127 56.1426C52.127 56.0753 52.1077 56.0245 52.0689 55.9902C52.0302 55.9553 51.9791 55.9378 51.9155 55.9378C51.8552 55.9378 51.7993 55.9499 51.7479 55.974C51.697 55.9975 51.6443 56.0312 51.5897 56.075L51.4668 55.9273C51.5055 55.8943 51.5468 55.8641 51.5907 55.8368C51.6351 55.8095 51.6847 55.7879 51.7393 55.772C51.7939 55.7555 51.8562 55.7472 51.926 55.7472C52.0143 55.7472 52.0905 55.7631 52.1547 55.7949C52.2188 55.826 52.2681 55.8695 52.3024 55.9254C52.3373 55.9813 52.3548 56.0464 52.3548 56.1207C52.3548 56.1957 52.3398 56.2649 52.31 56.3284C52.2801 56.3919 52.2376 56.4548 52.1823 56.5171C52.127 56.5787 52.0613 56.6457 51.9851 56.7181L51.744 56.9534V56.9639H52.4033V57.1602ZM53.52 56.4627C53.52 56.5752 53.5111 56.6758 53.4933 56.7648C53.4761 56.8531 53.4488 56.928 53.4113 56.9896C53.3739 57.0512 53.325 57.0982 53.2646 57.1306C53.2043 57.163 53.1312 57.1792 53.0455 57.1792C52.9382 57.1792 52.8495 57.1509 52.7797 57.0944C52.7098 57.0373 52.658 56.9553 52.6244 56.8486C52.5907 56.7413 52.5739 56.6126 52.5739 56.4627C52.5739 56.3128 52.5891 56.1845 52.6196 56.0778C52.6507 55.9705 52.7009 55.8882 52.7702 55.8311C52.8394 55.7739 52.9312 55.7453 53.0455 55.7453C53.1535 55.7453 53.2424 55.7739 53.3123 55.8311C53.3828 55.8876 53.4348 55.9695 53.4685 56.0769C53.5028 56.1836 53.52 56.3122 53.52 56.4627ZM52.7997 56.4627C52.7997 56.5803 52.8073 56.6784 52.8226 56.7571C52.8384 56.8359 52.8645 56.895 52.9007 56.9344C52.9369 56.9731 52.9852 56.9925 53.0455 56.9925C53.1058 56.9925 53.1541 56.9731 53.1903 56.9344C53.2265 56.8956 53.2526 56.8369 53.2684 56.7581C53.2849 56.6793 53.2932 56.5809 53.2932 56.4627C53.2932 56.3459 53.2853 56.2481 53.2694 56.1693C53.2535 56.0905 53.2275 56.0315 53.1913 55.9921C53.1551 55.9521 53.1065 55.9321 53.0455 55.9321C52.9845 55.9321 52.9359 55.9521 52.8997 55.9921C52.8642 56.0315 52.8384 56.0905 52.8226 56.1693C52.8073 56.2481 52.7997 56.3459 52.7997 56.4627Z" fill="#444444"/>
<g filter="url(#filter1_d_7615_132771)">
<rect x="65.6211" y="62.9629" width="5.85366" height="3.65854" rx="1.82927" fill="white"/>
</g>
<path d="M68.5624 65.4512H68.3376V64.5546C68.3376 64.5248 68.3379 64.4949 68.3385 64.4651C68.3391 64.4352 68.3398 64.406 68.3404 64.3774C68.3417 64.3488 68.3433 64.3215 68.3452 64.2955C68.3318 64.3101 68.3153 64.326 68.2956 64.3431C68.2766 64.3603 68.2563 64.3781 68.2347 64.3965L68.0746 64.5242L67.9622 64.3822L68.3757 64.0583H68.5624V65.4512Z" fill="#444444"/>
<circle cx="20.2332" cy="67.743" r="0.465632" fill="#AEF8FF"/>
<circle cx="28.282" cy="50.2547" r="0.465632" fill="#41C2CE"/>
<circle cx="36.3309" cy="48.5477" r="0.465632" fill="#41C2CE"/>
<circle cx="44.3797" cy="51.9617" r="0.465632" fill="#41C2CE"/>
<circle cx="52.4285" cy="59.5242" r="0.465632" fill="#41C2CE"/>
<circle cx="60.4774" cy="66.5965" r="0.465632" fill="#41C2CE"/>
<circle cx="68.5262" cy="67.8152" r="0.465632" fill="#41C2CE"/>
<circle cx="76.575" cy="66.1082" r="0.465632" fill="#41C2CE"/>
<defs>
<filter id="filter0_d_7615_132771" x="48.1288" y="54.6719" width="7.91422" height="5.47477" filterUnits="userSpaceOnUse" color-interpolation-filters="sRGB">
<feFlood flood-opacity="0" result="BackgroundImageFix"/>
<feColorMatrix in="SourceAlpha" type="matrix" values="0 0 0 0 0 0 0 0 0 0 0 0 0 0 0 0 0 0 127 0" result="hardAlpha"/>
<feOffset dy="0.908283"/>
<feGaussianBlur stdDeviation="0.454141"/>
<feComposite in2="hardAlpha" operator="out"/>
<feColorMatrix type="matrix" values="0 0 0 0 0 0 0 0 0 0 0 0 0 0 0 0 0 0 0.25 0"/>
<feBlend mode="normal" in2="BackgroundImageFix" result="effect1_dropShadow_7615_132771"/>
<feBlend mode="normal" in="SourceGraphic" in2="effect1_dropShadow_7615_132771" result="shape"/>
</filter>
<filter id="filter1_d_7615_132771" x="64.7128" y="62.9629" width="7.67008" height="5.47477" filterUnits="userSpaceOnUse" color-interpolation-filters="sRGB">
<feFlood flood-opacity="0" result="BackgroundImageFix"/>
<feColorMatrix in="SourceAlpha" type="matrix" values="0 0 0 0 0 0 0 0 0 0 0 0 0 0 0 0 0 0 127 0" result="hardAlpha"/>
<feOffset dy="0.908283"/>
<feGaussianBlur stdDeviation="0.454141"/>
<feComposite in2="hardAlpha" operator="out"/>
<feColorMatrix type="matrix" values="0 0 0 0 0 0 0 0 0 0 0 0 0 0 0 0 0 0 0.25 0"/>
<feBlend mode="normal" in2="BackgroundImageFix" result="effect1_dropShadow_7615_132771"/>
<feBlend mode="normal" in="SourceGraphic" in2="effect1_dropShadow_7615_132771" result="shape"/>
</filter>
</defs>
</svg>
