<svg width="92" height="92" viewBox="0 0 92 92" fill="none" xmlns="http://www.w3.org/2000/svg">
<rect x="0.389831" y="0.389831" width="91.079" height="91.2203" rx="17.5424" stroke="#BEBEBE" stroke-width="0.779661"/>
<g clip-path="url(#clip0_7615_127529)">
<rect width="70" height="51.4409" transform="translate(10.5 20)" fill="white"/>
<path d="M19.3848 25.332V68.1998" stroke="#E0E0E0" stroke-width="0.222113"/>
<path d="M27.5452 68.1998C27.5452 68.2612 27.5949 68.3109 27.6562 68.3109C27.7176 68.3109 27.7673 68.2612 27.7673 68.1998H27.5452ZM27.6562 25.332H27.5452V68.1998H27.6562H27.7673V25.332H27.6562Z" fill="#E0E0E0"/>
<path d="M35.8147 68.1998C35.8147 68.2612 35.8644 68.3109 35.9258 68.3109C35.9871 68.3109 36.0368 68.2612 36.0368 68.1998H35.8147ZM35.9258 25.332H35.8147V68.1998H35.9258H36.0368V25.332H35.9258Z" fill="#E0E0E0"/>
<path d="M44.0862 68.1998C44.0862 68.2612 44.1359 68.3109 44.1973 68.3109C44.2586 68.3109 44.3083 68.2612 44.3083 68.1998H44.0862ZM44.1973 25.332H44.0862V68.1998H44.1973H44.3083V25.332H44.1973Z" fill="#E0E0E0"/>
<path d="M52.3577 68.1998C52.3577 68.2612 52.4074 68.3109 52.4688 68.3109C52.5301 68.3109 52.5798 68.2612 52.5798 68.1998H52.3577ZM52.4688 25.332H52.3577V68.1998H52.4688H52.5798V25.332H52.4688Z" fill="#E0E0E0"/>
<path d="M60.6272 68.1998C60.6272 68.2612 60.6769 68.3109 60.7383 68.3109C60.7996 68.3109 60.8493 68.2612 60.8493 68.1998H60.6272ZM60.7383 25.332H60.6272V68.1998H60.7383H60.8493V25.332H60.7383Z" fill="#E0E0E0"/>
<path d="M68.8987 68.1998C68.8987 68.2612 68.9484 68.3109 69.0098 68.3109C69.0711 68.3109 69.1208 68.2612 69.1208 68.1998H68.8987ZM69.0098 25.332H68.8987V68.1998H69.0098H69.1208V25.332H69.0098Z" fill="#E0E0E0"/>
<path d="M77.1702 68.1998C77.1702 68.2612 77.2199 68.3109 77.2812 68.3109C77.3426 68.3109 77.3923 68.2612 77.3923 68.1998H77.1702ZM77.2812 25.332H77.1702V68.1998H77.2812H77.3923V25.332H77.2812Z" fill="#E0E0E0"/>
<path d="M14.2985 27.2461H13.5436V27.1366L13.8517 26.8237C13.909 26.7659 13.9571 26.7145 13.9959 26.6693C14.0353 26.6241 14.0653 26.5797 14.0858 26.5361C14.1063 26.492 14.1165 26.4436 14.1165 26.3911C14.1165 26.326 14.0971 26.2763 14.0582 26.2422C14.0198 26.2075 13.9691 26.1902 13.9061 26.1902C13.8509 26.1902 13.8021 26.1996 13.7595 26.2185C13.717 26.2374 13.6734 26.2642 13.6287 26.2989L13.5586 26.2107C13.5891 26.1849 13.6222 26.1621 13.6579 26.1421C13.6941 26.1221 13.7327 26.1064 13.7737 26.0948C13.8152 26.0833 13.8594 26.0775 13.9061 26.0775C13.977 26.0775 14.0382 26.0898 14.0897 26.1145C14.1412 26.1392 14.1809 26.1744 14.2087 26.2201C14.2371 26.2658 14.2513 26.3202 14.2513 26.3832C14.2513 26.4442 14.2392 26.5009 14.215 26.5534C14.1908 26.6054 14.157 26.6572 14.1134 26.7087C14.0698 26.7596 14.0188 26.8137 13.9605 26.871L13.7099 27.1208V27.1263H14.2985V27.2461ZM14.8312 26.5416C14.9095 26.5416 14.9775 26.555 15.0353 26.5818C15.0931 26.6081 15.1378 26.6464 15.1693 26.6969C15.2013 26.7473 15.2173 26.8085 15.2173 26.8805C15.2173 26.9593 15.2003 27.0273 15.1661 27.0846C15.132 27.1413 15.0829 27.1852 15.0188 27.2161C14.9547 27.2466 14.878 27.2619 14.7887 27.2619C14.7288 27.2619 14.6731 27.2566 14.6216 27.2461C14.5701 27.2356 14.5268 27.2198 14.4916 27.1988V27.0743C14.5299 27.0974 14.5764 27.1158 14.6311 27.1295C14.6857 27.1431 14.7388 27.15 14.7903 27.15C14.8486 27.15 14.8995 27.1408 14.9431 27.1224C14.9873 27.1035 15.0214 27.0751 15.0456 27.0373C15.0703 26.9989 15.0826 26.9509 15.0826 26.8931C15.0826 26.8164 15.059 26.7573 15.0117 26.7158C14.9649 26.6737 14.8909 26.6527 14.7895 26.6527C14.7569 26.6527 14.7212 26.6554 14.6823 26.6606C14.6434 26.6659 14.6114 26.6716 14.5862 26.6779L14.52 26.6346L14.5641 26.094H15.137V26.2138H14.676L14.6468 26.5613C14.6668 26.5571 14.6925 26.5529 14.7241 26.5487C14.7556 26.544 14.7913 26.5416 14.8312 26.5416ZM16.1519 26.6685C16.1519 26.762 16.1448 26.8455 16.1306 26.9191C16.1165 26.9926 16.0941 27.0549 16.0637 27.1058C16.0332 27.1568 15.9938 27.1957 15.9455 27.2225C15.8971 27.2487 15.8391 27.2619 15.7713 27.2619C15.6857 27.2619 15.6148 27.2385 15.5586 27.1917C15.5029 27.145 15.4611 27.0775 15.4333 26.9892C15.4059 26.9004 15.3923 26.7935 15.3923 26.6685C15.3923 26.5456 15.4046 26.44 15.4293 26.3517C15.4545 26.2629 15.495 26.1949 15.5507 26.1476C15.6064 26.0998 15.6799 26.0759 15.7713 26.0759C15.858 26.0759 15.9294 26.0995 15.9857 26.1468C16.0419 26.1936 16.0836 26.2614 16.1109 26.3501C16.1383 26.4384 16.1519 26.5445 16.1519 26.6685ZM15.5239 26.6685C15.5239 26.7757 15.532 26.865 15.5483 26.9364C15.5646 27.0079 15.5909 27.0614 15.6271 27.0972C15.6639 27.1324 15.712 27.15 15.7713 27.15C15.8307 27.15 15.8785 27.1324 15.9147 27.0972C15.9515 27.062 15.978 27.0086 15.9943 26.9372C16.0111 26.8658 16.0195 26.7762 16.0195 26.6685C16.0195 26.5629 16.0114 26.4746 15.9951 26.4037C15.9788 26.3323 15.9526 26.2787 15.9163 26.243C15.8801 26.2067 15.8317 26.1886 15.7713 26.1886C15.7109 26.1886 15.6626 26.2067 15.6263 26.243C15.5901 26.2787 15.5638 26.3323 15.5475 26.4037C15.5318 26.4746 15.5239 26.5629 15.5239 26.6685ZM17.0755 26.6685C17.0755 26.762 17.0684 26.8455 17.0542 26.9191C17.04 26.9926 17.0177 27.0549 16.9872 27.1058C16.9567 27.1568 16.9173 27.1957 16.869 27.2225C16.8207 27.2487 16.7626 27.2619 16.6949 27.2619C16.6092 27.2619 16.5383 27.2385 16.4821 27.1917C16.4264 27.145 16.3846 27.0775 16.3568 26.9892C16.3295 26.9004 16.3158 26.7935 16.3158 26.6685C16.3158 26.5456 16.3282 26.44 16.3529 26.3517C16.3781 26.2629 16.4185 26.1949 16.4742 26.1476C16.5299 26.0998 16.6034 26.0759 16.6949 26.0759C16.7815 26.0759 16.853 26.0995 16.9092 26.1468C16.9654 26.1936 17.0072 26.2614 17.0345 26.3501C17.0618 26.4384 17.0755 26.5445 17.0755 26.6685ZM16.4474 26.6685C16.4474 26.7757 16.4556 26.865 16.4719 26.9364C16.4881 27.0079 16.5144 27.0614 16.5507 27.0972C16.5874 27.1324 16.6355 27.15 16.6949 27.15C16.7542 27.15 16.802 27.1324 16.8383 27.0972C16.875 27.062 16.9016 27.0086 16.9179 26.9372C16.9347 26.8658 16.9431 26.7762 16.9431 26.6685C16.9431 26.5629 16.9349 26.4746 16.9186 26.4037C16.9024 26.3323 16.8761 26.2787 16.8398 26.243C16.8036 26.2067 16.7553 26.1886 16.6949 26.1886C16.6344 26.1886 16.5861 26.2067 16.5499 26.243C16.5136 26.2787 16.4873 26.3323 16.4711 26.4037C16.4553 26.4746 16.4474 26.5629 16.4474 26.6685Z" fill="#212121"/>
<path d="M14.2985 33.2441H13.5436V33.1346L13.8517 32.8218C13.909 32.764 13.9571 32.7125 13.9959 32.6673C14.0353 32.6221 14.0653 32.5778 14.0858 32.5341C14.1063 32.49 14.1165 32.4417 14.1165 32.3892C14.1165 32.324 14.0971 32.2744 14.0582 32.2402C14.0198 32.2056 13.9691 32.1882 13.9061 32.1882C13.8509 32.1882 13.8021 32.1977 13.7595 32.2166C13.717 32.2355 13.6734 32.2623 13.6287 32.297L13.5586 32.2087C13.5891 32.183 13.6222 32.1601 13.6579 32.1401C13.6941 32.1202 13.7327 32.1044 13.7737 32.0929C13.8152 32.0813 13.8594 32.0755 13.9061 32.0755C13.977 32.0755 14.0382 32.0879 14.0897 32.1126C14.1412 32.1373 14.1809 32.1725 14.2087 32.2182C14.2371 32.2639 14.2513 32.3182 14.2513 32.3813C14.2513 32.4422 14.2392 32.499 14.215 32.5515C14.1908 32.6035 14.157 32.6552 14.1134 32.7067C14.0698 32.7577 14.0188 32.8118 13.9605 32.8691L13.7099 33.1188V33.1244H14.2985V33.2441ZM15.2284 32.6665C15.2284 32.76 15.2213 32.8436 15.2071 32.9171C15.1929 32.9907 15.1706 33.0529 15.1401 33.1039C15.1097 33.1548 15.0703 33.1937 15.0219 33.2205C14.9736 33.2468 14.9155 33.2599 14.8478 33.2599C14.7621 33.2599 14.6912 33.2365 14.635 33.1898C14.5793 33.143 14.5376 33.0755 14.5097 32.9873C14.4824 32.8985 14.4687 32.7916 14.4687 32.6665C14.4687 32.5436 14.4811 32.438 14.5058 32.3498C14.531 32.261 14.5714 32.1929 14.6271 32.1457C14.6828 32.0979 14.7564 32.074 14.8478 32.074C14.9345 32.074 15.0059 32.0976 15.0621 32.1449C15.1183 32.1916 15.1601 32.2594 15.1874 32.3482C15.2147 32.4364 15.2284 32.5426 15.2284 32.6665ZM14.6003 32.6665C14.6003 32.7737 14.6085 32.863 14.6248 32.9345C14.6411 33.0059 14.6673 33.0595 14.7036 33.0952C14.7403 33.1304 14.7884 33.148 14.8478 33.148C14.9071 33.148 14.9549 33.1304 14.9912 33.0952C15.028 33.06 15.0545 33.0067 15.0708 32.9352C15.0876 32.8638 15.096 32.7742 15.096 32.6665C15.096 32.5609 15.0879 32.4727 15.0716 32.4018C15.0553 32.3303 15.029 32.2767 14.9928 32.241C14.9565 32.2048 14.9082 32.1866 14.8478 32.1866C14.7874 32.1866 14.739 32.2048 14.7028 32.241C14.6665 32.2767 14.6403 32.3303 14.624 32.4018C14.6082 32.4727 14.6003 32.5609 14.6003 32.6665ZM16.1519 32.6665C16.1519 32.76 16.1448 32.8436 16.1306 32.9171C16.1165 32.9907 16.0941 33.0529 16.0637 33.1039C16.0332 33.1548 15.9938 33.1937 15.9455 33.2205C15.8971 33.2468 15.8391 33.2599 15.7713 33.2599C15.6857 33.2599 15.6148 33.2365 15.5586 33.1898C15.5029 33.143 15.4611 33.0755 15.4333 32.9873C15.4059 32.8985 15.3923 32.7916 15.3923 32.6665C15.3923 32.5436 15.4046 32.438 15.4293 32.3498C15.4545 32.261 15.495 32.1929 15.5507 32.1457C15.6064 32.0979 15.6799 32.074 15.7713 32.074C15.858 32.074 15.9294 32.0976 15.9857 32.1449C16.0419 32.1916 16.0836 32.2594 16.1109 32.3482C16.1383 32.4364 16.1519 32.5426 16.1519 32.6665ZM15.5239 32.6665C15.5239 32.7737 15.532 32.863 15.5483 32.9345C15.5646 33.0059 15.5909 33.0595 15.6271 33.0952C15.6639 33.1304 15.712 33.148 15.7713 33.148C15.8307 33.148 15.8785 33.1304 15.9147 33.0952C15.9515 33.06 15.978 33.0067 15.9943 32.9352C16.0111 32.8638 16.0195 32.7742 16.0195 32.6665C16.0195 32.5609 16.0114 32.4727 15.9951 32.4018C15.9788 32.3303 15.9526 32.2767 15.9163 32.241C15.8801 32.2048 15.8317 32.1866 15.7713 32.1866C15.7109 32.1866 15.6626 32.2048 15.6263 32.241C15.5901 32.2767 15.5638 32.3303 15.5475 32.4018C15.5318 32.4727 15.5239 32.5609 15.5239 32.6665ZM17.0755 32.6665C17.0755 32.76 17.0684 32.8436 17.0542 32.9171C17.04 32.9907 17.0177 33.0529 16.9872 33.1039C16.9567 33.1548 16.9173 33.1937 16.869 33.2205C16.8207 33.2468 16.7626 33.2599 16.6949 33.2599C16.6092 33.2599 16.5383 33.2365 16.4821 33.1898C16.4264 33.143 16.3846 33.0755 16.3568 32.9873C16.3295 32.8985 16.3158 32.7916 16.3158 32.6665C16.3158 32.5436 16.3282 32.438 16.3529 32.3498C16.3781 32.261 16.4185 32.1929 16.4742 32.1457C16.5299 32.0979 16.6034 32.074 16.6949 32.074C16.7815 32.074 16.853 32.0976 16.9092 32.1449C16.9654 32.1916 17.0072 32.2594 17.0345 32.3482C17.0618 32.4364 17.0755 32.5426 17.0755 32.6665ZM16.4474 32.6665C16.4474 32.7737 16.4556 32.863 16.4719 32.9345C16.4881 33.0059 16.5144 33.0595 16.5507 33.0952C16.5874 33.1304 16.6355 33.148 16.6949 33.148C16.7542 33.148 16.802 33.1304 16.8383 33.0952C16.875 33.06 16.9016 33.0067 16.9179 32.9352C16.9347 32.8638 16.9431 32.7742 16.9431 32.6665C16.9431 32.5609 16.9349 32.4727 16.9186 32.4018C16.9024 32.3303 16.8761 32.2767 16.8398 32.241C16.8036 32.2048 16.7553 32.1866 16.6949 32.1866C16.6344 32.1866 16.5861 32.2048 16.5499 32.241C16.5136 32.2767 16.4873 32.3303 16.4711 32.4018C16.4553 32.4727 16.4474 32.5609 16.4474 32.6665Z" fill="#212121"/>
<path d="M14.0306 39.2422H13.903V38.4258C13.903 38.3948 13.903 38.3683 13.903 38.3462C13.9035 38.3236 13.904 38.3031 13.9045 38.2848C13.9056 38.2659 13.9069 38.2467 13.9085 38.2272C13.8922 38.244 13.877 38.2585 13.8628 38.2706C13.8486 38.2821 13.831 38.2966 13.81 38.3139L13.6784 38.4195L13.6098 38.3305L13.9219 38.0901H14.0306V39.2422ZM14.8312 38.5377C14.9095 38.5377 14.9775 38.5511 15.0353 38.5779C15.0931 38.6042 15.1378 38.6425 15.1693 38.6929C15.2013 38.7434 15.2173 38.8046 15.2173 38.8766C15.2173 38.9554 15.2003 39.0234 15.1661 39.0806C15.132 39.1374 15.0829 39.1812 15.0188 39.2122C14.9547 39.2427 14.878 39.2579 14.7887 39.2579C14.7288 39.2579 14.6731 39.2527 14.6216 39.2422C14.5701 39.2317 14.5268 39.2159 14.4916 39.1949V39.0704C14.5299 39.0935 14.5764 39.1119 14.6311 39.1256C14.6857 39.1392 14.7388 39.1461 14.7903 39.1461C14.8486 39.1461 14.8995 39.1369 14.9431 39.1185C14.9873 39.0996 15.0214 39.0712 15.0456 39.0334C15.0703 38.995 15.0826 38.9469 15.0826 38.8892C15.0826 38.8125 15.059 38.7534 15.0117 38.7119C14.9649 38.6698 14.8909 38.6488 14.7895 38.6488C14.7569 38.6488 14.7212 38.6514 14.6823 38.6567C14.6434 38.662 14.6114 38.6677 14.5862 38.674L14.52 38.6307L14.5641 38.0901H15.137V38.2099H14.676L14.6468 38.5574C14.6668 38.5532 14.6925 38.549 14.7241 38.5448C14.7556 38.5401 14.7913 38.5377 14.8312 38.5377ZM16.1519 38.6646C16.1519 38.7581 16.1448 38.8416 16.1306 38.9152C16.1165 38.9887 16.0941 39.051 16.0637 39.1019C16.0332 39.1529 15.9938 39.1918 15.9455 39.2185C15.8971 39.2448 15.8391 39.2579 15.7713 39.2579C15.6857 39.2579 15.6148 39.2346 15.5586 39.1878C15.5029 39.1411 15.4611 39.0736 15.4333 38.9853C15.4059 38.8965 15.3923 38.7896 15.3923 38.6646C15.3923 38.5417 15.4046 38.4361 15.4293 38.3478C15.4545 38.259 15.495 38.191 15.5507 38.1437C15.6064 38.0959 15.6799 38.072 15.7713 38.072C15.858 38.072 15.9294 38.0956 15.9857 38.1429C16.0419 38.1897 16.0836 38.2574 16.1109 38.3462C16.1383 38.4345 16.1519 38.5406 16.1519 38.6646ZM15.5239 38.6646C15.5239 38.7717 15.532 38.8611 15.5483 38.9325C15.5646 39.0039 15.5909 39.0575 15.6271 39.0933C15.6639 39.1285 15.712 39.1461 15.7713 39.1461C15.8307 39.1461 15.8785 39.1285 15.9147 39.0933C15.9515 39.0581 15.978 39.0047 15.9943 38.9333C16.0111 38.8618 16.0195 38.7723 16.0195 38.6646C16.0195 38.559 16.0114 38.4707 15.9951 38.3998C15.9788 38.3284 15.9526 38.2748 15.9163 38.2391C15.8801 38.2028 15.8317 38.1847 15.7713 38.1847C15.7109 38.1847 15.6626 38.2028 15.6263 38.2391C15.5901 38.2748 15.5638 38.3284 15.5475 38.3998C15.5318 38.4707 15.5239 38.559 15.5239 38.6646ZM17.0755 38.6646C17.0755 38.7581 17.0684 38.8416 17.0542 38.9152C17.04 38.9887 17.0177 39.051 16.9872 39.1019C16.9567 39.1529 16.9173 39.1918 16.869 39.2185C16.8207 39.2448 16.7626 39.2579 16.6949 39.2579C16.6092 39.2579 16.5383 39.2346 16.4821 39.1878C16.4264 39.1411 16.3846 39.0736 16.3568 38.9853C16.3295 38.8965 16.3158 38.7896 16.3158 38.6646C16.3158 38.5417 16.3282 38.4361 16.3529 38.3478C16.3781 38.259 16.4185 38.191 16.4742 38.1437C16.5299 38.0959 16.6034 38.072 16.6949 38.072C16.7815 38.072 16.853 38.0956 16.9092 38.1429C16.9654 38.1897 17.0072 38.2574 17.0345 38.3462C17.0618 38.4345 17.0755 38.5406 17.0755 38.6646ZM16.4474 38.6646C16.4474 38.7717 16.4556 38.8611 16.4719 38.9325C16.4881 39.0039 16.5144 39.0575 16.5507 39.0933C16.5874 39.1285 16.6355 39.1461 16.6949 39.1461C16.7542 39.1461 16.802 39.1285 16.8383 39.0933C16.875 39.0581 16.9016 39.0047 16.9179 38.9333C16.9347 38.8618 16.9431 38.7723 16.9431 38.6646C16.9431 38.559 16.9349 38.4707 16.9186 38.3998C16.9024 38.3284 16.8761 38.2748 16.8398 38.2391C16.8036 38.2028 16.7553 38.1847 16.6949 38.1847C16.6344 38.1847 16.5861 38.2028 16.5499 38.2391C16.5136 38.2748 16.4873 38.3284 16.4711 38.3998C16.4553 38.4707 16.4474 38.559 16.4474 38.6646Z" fill="#212121"/>
<path d="M14.0306 45.2402H13.903V44.4239C13.903 44.3929 13.903 44.3663 13.903 44.3443C13.9035 44.3217 13.904 44.3012 13.9045 44.2828C13.9056 44.2639 13.9069 44.2447 13.9085 44.2253C13.8922 44.2421 13.877 44.2565 13.8628 44.2686C13.8486 44.2802 13.831 44.2946 13.81 44.312L13.6784 44.4176L13.6098 44.3285L13.9219 44.0882H14.0306V45.2402ZM15.2284 44.6626C15.2284 44.7561 15.2213 44.8397 15.2071 44.9132C15.1929 44.9868 15.1706 45.049 15.1401 45.1C15.1097 45.1509 15.0703 45.1898 15.0219 45.2166C14.9736 45.2429 14.9155 45.256 14.8478 45.256C14.7621 45.256 14.6912 45.2326 14.635 45.1859C14.5793 45.1391 14.5376 45.0716 14.5097 44.9833C14.4824 44.8946 14.4687 44.7877 14.4687 44.6626C14.4687 44.5397 14.4811 44.4341 14.5058 44.3458C14.531 44.2571 14.5714 44.189 14.6271 44.1418C14.6828 44.094 14.7564 44.07 14.8478 44.07C14.9345 44.07 15.0059 44.0937 15.0621 44.141C15.1183 44.1877 15.1601 44.2555 15.1874 44.3443C15.2147 44.4325 15.2284 44.5386 15.2284 44.6626ZM14.6003 44.6626C14.6003 44.7698 14.6085 44.8591 14.6248 44.9305C14.6411 45.002 14.6673 45.0556 14.7036 45.0913C14.7403 45.1265 14.7884 45.1441 14.8478 45.1441C14.9071 45.1441 14.9549 45.1265 14.9912 45.0913C15.028 45.0561 15.0545 45.0028 15.0708 44.9313C15.0876 44.8599 15.096 44.7703 15.096 44.6626C15.096 44.557 15.0879 44.4688 15.0716 44.3979C15.0553 44.3264 15.029 44.2728 14.9928 44.2371C14.9565 44.2009 14.9082 44.1827 14.8478 44.1827C14.7874 44.1827 14.739 44.2009 14.7028 44.2371C14.6665 44.2728 14.6403 44.3264 14.624 44.3979C14.6082 44.4688 14.6003 44.557 14.6003 44.6626ZM16.1519 44.6626C16.1519 44.7561 16.1448 44.8397 16.1306 44.9132C16.1165 44.9868 16.0941 45.049 16.0637 45.1C16.0332 45.1509 15.9938 45.1898 15.9455 45.2166C15.8971 45.2429 15.8391 45.256 15.7713 45.256C15.6857 45.256 15.6148 45.2326 15.5586 45.1859C15.5029 45.1391 15.4611 45.0716 15.4333 44.9833C15.4059 44.8946 15.3923 44.7877 15.3923 44.6626C15.3923 44.5397 15.4046 44.4341 15.4293 44.3458C15.4545 44.2571 15.495 44.189 15.5507 44.1418C15.6064 44.094 15.6799 44.07 15.7713 44.07C15.858 44.07 15.9294 44.0937 15.9857 44.141C16.0419 44.1877 16.0836 44.2555 16.1109 44.3443C16.1383 44.4325 16.1519 44.5386 16.1519 44.6626ZM15.5239 44.6626C15.5239 44.7698 15.532 44.8591 15.5483 44.9305C15.5646 45.002 15.5909 45.0556 15.6271 45.0913C15.6639 45.1265 15.712 45.1441 15.7713 45.1441C15.8307 45.1441 15.8785 45.1265 15.9147 45.0913C15.9515 45.0561 15.978 45.0028 15.9943 44.9313C16.0111 44.8599 16.0195 44.7703 16.0195 44.6626C16.0195 44.557 16.0114 44.4688 15.9951 44.3979C15.9788 44.3264 15.9526 44.2728 15.9163 44.2371C15.8801 44.2009 15.8317 44.1827 15.7713 44.1827C15.7109 44.1827 15.6626 44.2009 15.6263 44.2371C15.5901 44.2728 15.5638 44.3264 15.5475 44.3979C15.5318 44.4688 15.5239 44.557 15.5239 44.6626ZM17.0755 44.6626C17.0755 44.7561 17.0684 44.8397 17.0542 44.9132C17.04 44.9868 17.0177 45.049 16.9872 45.1C16.9567 45.1509 16.9173 45.1898 16.869 45.2166C16.8207 45.2429 16.7626 45.256 16.6949 45.256C16.6092 45.256 16.5383 45.2326 16.4821 45.1859C16.4264 45.1391 16.3846 45.0716 16.3568 44.9833C16.3295 44.8946 16.3158 44.7877 16.3158 44.6626C16.3158 44.5397 16.3282 44.4341 16.3529 44.3458C16.3781 44.2571 16.4185 44.189 16.4742 44.1418C16.5299 44.094 16.6034 44.07 16.6949 44.07C16.7815 44.07 16.853 44.0937 16.9092 44.141C16.9654 44.1877 17.0072 44.2555 17.0345 44.3443C17.0618 44.4325 17.0755 44.5386 17.0755 44.6626ZM16.4474 44.6626C16.4474 44.7698 16.4556 44.8591 16.4719 44.9305C16.4881 45.002 16.5144 45.0556 16.5507 45.0913C16.5874 45.1265 16.6355 45.1441 16.6949 45.1441C16.7542 45.1441 16.802 45.1265 16.8383 45.0913C16.875 45.0561 16.9016 45.0028 16.9179 44.9313C16.9347 44.8599 16.9431 44.7703 16.9431 44.6626C16.9431 44.557 16.9349 44.4688 16.9186 44.3979C16.9024 44.3264 16.8761 44.2728 16.8398 44.2371C16.8036 44.2009 16.7553 44.1827 16.6949 44.1827C16.6344 44.1827 16.5861 44.2009 16.5499 44.2371C16.5136 44.2728 16.4873 44.3264 16.4711 44.3979C16.4553 44.4688 16.4474 44.557 16.4474 44.6626Z" fill="#212121"/>
<path d="M14.8307 50.5338C14.9089 50.5338 14.977 50.5472 15.0347 50.574C15.0925 50.6003 15.1372 50.6386 15.1687 50.689C15.2008 50.7395 15.2168 50.8007 15.2168 50.8726C15.2168 50.9514 15.1997 51.0195 15.1656 51.0767C15.1314 51.1335 15.0823 51.1773 15.0182 51.2083C14.9541 51.2388 14.8774 51.254 14.7881 51.254C14.7282 51.254 14.6725 51.2488 14.621 51.2383C14.5696 51.2278 14.5262 51.212 14.491 51.191V51.0665C14.5294 51.0896 14.5759 51.108 14.6305 51.1217C14.6851 51.1353 14.7382 51.1421 14.7897 51.1421C14.848 51.1421 14.8989 51.133 14.9425 51.1146C14.9867 51.0957 15.0208 51.0673 15.045 51.0295C15.0697 50.9911 15.082 50.943 15.082 50.8853C15.082 50.8086 15.0584 50.7495 15.0111 50.708C14.9644 50.6659 14.8903 50.6449 14.7889 50.6449C14.7563 50.6449 14.7206 50.6475 14.6817 50.6528C14.6428 50.658 14.6108 50.6638 14.5856 50.6701L14.5194 50.6268L14.5635 50.0862H15.1364V50.206H14.6754L14.6463 50.5535C14.6662 50.5493 14.692 50.5451 14.7235 50.5409C14.755 50.5362 14.7907 50.5338 14.8307 50.5338ZM16.1513 50.6607C16.1513 50.7542 16.1443 50.8377 16.1301 50.9113C16.1159 50.9848 16.0936 51.0471 16.0631 51.098C16.0326 51.149 15.9932 51.1878 15.9449 51.2146C15.8966 51.2409 15.8385 51.254 15.7707 51.254C15.6851 51.254 15.6142 51.2307 15.558 51.1839C15.5023 51.1372 15.4605 51.0696 15.4327 50.9814C15.4054 50.8926 15.3917 50.7857 15.3917 50.6607C15.3917 50.5377 15.4041 50.4322 15.4287 50.3439C15.454 50.2551 15.4944 50.1871 15.5501 50.1398C15.6058 50.092 15.6793 50.0681 15.7707 50.0681C15.8574 50.0681 15.9289 50.0917 15.9851 50.139C16.0413 50.1858 16.0831 50.2535 16.1104 50.3423C16.1377 50.4306 16.1513 50.5367 16.1513 50.6607ZM15.5233 50.6607C15.5233 50.7678 15.5315 50.8571 15.5477 50.9286C15.564 51 15.5903 51.0536 15.6265 51.0893C15.6633 51.1245 15.7114 51.1421 15.7707 51.1421C15.8301 51.1421 15.8779 51.1245 15.9142 51.0893C15.9509 51.0542 15.9775 51.0008 15.9937 50.9294C16.0106 50.8579 16.019 50.7684 16.019 50.6607C16.019 50.5551 16.0108 50.4668 15.9945 50.3959C15.9782 50.3245 15.952 50.2709 15.9157 50.2352C15.8795 50.1989 15.8312 50.1808 15.7707 50.1808C15.7103 50.1808 15.662 50.1989 15.6257 50.2352C15.5895 50.2709 15.5632 50.3245 15.5469 50.3959C15.5312 50.4668 15.5233 50.5551 15.5233 50.6607ZM17.0749 50.6607C17.0749 50.7542 17.0678 50.8377 17.0536 50.9113C17.0394 50.9848 17.0171 51.0471 16.9866 51.098C16.9562 51.149 16.9168 51.1878 16.8684 51.2146C16.8201 51.2409 16.7621 51.254 16.6943 51.254C16.6087 51.254 16.5377 51.2307 16.4815 51.1839C16.4258 51.1372 16.3841 51.0696 16.3562 50.9814C16.3289 50.8926 16.3153 50.7857 16.3153 50.6607C16.3153 50.5377 16.3276 50.4322 16.3523 50.3439C16.3775 50.2551 16.418 50.1871 16.4736 50.1398C16.5293 50.092 16.6029 50.0681 16.6943 50.0681C16.781 50.0681 16.8524 50.0917 16.9086 50.139C16.9648 50.1858 17.0066 50.2535 17.0339 50.3423C17.0612 50.4306 17.0749 50.5367 17.0749 50.6607ZM16.4468 50.6607C16.4468 50.7678 16.455 50.8571 16.4713 50.9286C16.4876 51 16.5138 51.0536 16.5501 51.0893C16.5869 51.1245 16.6349 51.1421 16.6943 51.1421C16.7536 51.1421 16.8015 51.1245 16.8377 51.0893C16.8745 51.0542 16.901 51.0008 16.9173 50.9294C16.9341 50.8579 16.9425 50.7684 16.9425 50.6607C16.9425 50.5551 16.9344 50.4668 16.9181 50.3959C16.9018 50.3245 16.8755 50.2709 16.8393 50.2352C16.803 50.1989 16.7547 50.1808 16.6943 50.1808C16.6339 50.1808 16.5855 50.1989 16.5493 50.2352C16.513 50.2709 16.4868 50.3245 16.4705 50.3959C16.4547 50.4668 16.4468 50.5551 16.4468 50.6607Z" fill="#212121"/>
<path d="M14.9536 57.2363H14.8259V56.42C14.8259 56.389 14.8259 56.3624 14.8259 56.3404C14.8264 56.3178 14.827 56.2973 14.8275 56.2789C14.8286 56.26 14.8299 56.2408 14.8314 56.2214C14.8152 56.2382 14.7999 56.2526 14.7857 56.2647C14.7716 56.2763 14.754 56.2907 14.7329 56.3081L14.6013 56.4137L14.5328 56.3246L14.8448 56.0843H14.9536V57.2363ZM16.1513 56.6587C16.1513 56.7522 16.1443 56.8358 16.1301 56.9093C16.1159 56.9829 16.0936 57.0451 16.0631 57.0961C16.0326 57.147 15.9932 57.1859 15.9449 57.2127C15.8966 57.239 15.8385 57.2521 15.7707 57.2521C15.6851 57.2521 15.6142 57.2287 15.558 57.182C15.5023 57.1352 15.4605 57.0677 15.4327 56.9794C15.4054 56.8907 15.3917 56.7838 15.3917 56.6587C15.3917 56.5358 15.4041 56.4302 15.4287 56.3419C15.454 56.2532 15.4944 56.1851 15.5501 56.1379C15.6058 56.09 15.6793 56.0661 15.7707 56.0661C15.8574 56.0661 15.9289 56.0898 15.9851 56.1371C16.0413 56.1838 16.0831 56.2516 16.1104 56.3404C16.1377 56.4286 16.1513 56.5347 16.1513 56.6587ZM15.5233 56.6587C15.5233 56.7659 15.5315 56.8552 15.5477 56.9266C15.564 56.9981 15.5903 57.0517 15.6265 57.0874C15.6633 57.1226 15.7114 57.1402 15.7707 57.1402C15.8301 57.1402 15.8779 57.1226 15.9142 57.0874C15.9509 57.0522 15.9775 56.9989 15.9937 56.9274C16.0106 56.856 16.019 56.7664 16.019 56.6587C16.019 56.5531 16.0108 56.4649 15.9945 56.394C15.9782 56.3225 15.952 56.2689 15.9157 56.2332C15.8795 56.197 15.8312 56.1788 15.7707 56.1788C15.7103 56.1788 15.662 56.197 15.6257 56.2332C15.5895 56.2689 15.5632 56.3225 15.5469 56.394C15.5312 56.4649 15.5233 56.5531 15.5233 56.6587ZM17.0749 56.6587C17.0749 56.7522 17.0678 56.8358 17.0536 56.9093C17.0394 56.9829 17.0171 57.0451 16.9866 57.0961C16.9562 57.147 16.9168 57.1859 16.8684 57.2127C16.8201 57.239 16.7621 57.2521 16.6943 57.2521C16.6087 57.2521 16.5377 57.2287 16.4815 57.182C16.4258 57.1352 16.3841 57.0677 16.3562 56.9794C16.3289 56.8907 16.3153 56.7838 16.3153 56.6587C16.3153 56.5358 16.3276 56.4302 16.3523 56.3419C16.3775 56.2532 16.418 56.1851 16.4736 56.1379C16.5293 56.09 16.6029 56.0661 16.6943 56.0661C16.781 56.0661 16.8524 56.0898 16.9086 56.1371C16.9648 56.1838 17.0066 56.2516 17.0339 56.3404C17.0612 56.4286 17.0749 56.5347 17.0749 56.6587ZM16.4468 56.6587C16.4468 56.7659 16.455 56.8552 16.4713 56.9266C16.4876 56.9981 16.5138 57.0517 16.5501 57.0874C16.5869 57.1226 16.6349 57.1402 16.6943 57.1402C16.7536 57.1402 16.8015 57.1226 16.8377 57.0874C16.8745 57.0522 16.901 56.9989 16.9173 56.9274C16.9341 56.856 16.9425 56.7664 16.9425 56.6587C16.9425 56.5531 16.9344 56.4649 16.9181 56.394C16.9018 56.3225 16.8755 56.2689 16.8393 56.2332C16.803 56.197 16.7547 56.1788 16.6943 56.1788C16.6339 56.1788 16.5855 56.197 16.5493 56.2332C16.513 56.2689 16.4868 56.3225 16.4705 56.394C16.4547 56.4649 16.4468 56.5531 16.4468 56.6587Z" fill="#212121"/>
<path d="M17.0749 62.6568C17.0749 62.7503 17.0678 62.8338 17.0536 62.9074C17.0394 62.9809 17.0171 63.0432 16.9866 63.0941C16.9562 63.1451 16.9168 63.1839 16.8684 63.2107C16.8201 63.237 16.7621 63.2501 16.6943 63.2501C16.6087 63.2501 16.5377 63.2268 16.4815 63.18C16.4258 63.1332 16.3841 63.0657 16.3562 62.9775C16.3289 62.8887 16.3153 62.7818 16.3153 62.6568C16.3153 62.5338 16.3276 62.4282 16.3523 62.34C16.3775 62.2512 16.418 62.1832 16.4736 62.1359C16.5293 62.0881 16.6029 62.0642 16.6943 62.0642C16.781 62.0642 16.8524 62.0878 16.9086 62.1351C16.9648 62.1819 17.0066 62.2496 17.0339 62.3384C17.0612 62.4267 17.0749 62.5328 17.0749 62.6568ZM16.4468 62.6568C16.4468 62.7639 16.455 62.8532 16.4713 62.9247C16.4876 62.9961 16.5138 63.0497 16.5501 63.0854C16.5869 63.1206 16.6349 63.1382 16.6943 63.1382C16.7536 63.1382 16.8015 63.1206 16.8377 63.0854C16.8745 63.0502 16.901 62.9969 16.9173 62.9255C16.9341 62.854 16.9425 62.7645 16.9425 62.6568C16.9425 62.5512 16.9344 62.4629 16.9181 62.392C16.9018 62.3206 16.8755 62.267 16.8393 62.2312C16.803 62.195 16.7547 62.1769 16.6943 62.1769C16.6339 62.1769 16.5855 62.195 16.5493 62.2312C16.513 62.267 16.4868 62.3206 16.4705 62.392C16.4547 62.4629 16.4468 62.5512 16.4468 62.6568Z" fill="#212121"/>
<path d="M26.8548 70.6426H26.7271V69.8262C26.7271 69.7952 26.7271 69.7687 26.7271 69.7466C26.7277 69.724 26.7282 69.7035 26.7287 69.6852C26.7298 69.6662 26.7311 69.6471 26.7327 69.6276C26.7164 69.6444 26.7011 69.6589 26.687 69.671C26.6728 69.6825 26.6552 69.697 26.6342 69.7143L26.5026 69.8199L26.434 69.7309L26.7461 69.4905H26.8548V70.6426Z" fill="#212121"/>
<path d="M19.799 70.065C19.799 70.1585 19.7919 70.242 19.7777 70.3156C19.7635 70.3891 19.7412 70.4514 19.7107 70.5023C19.6802 70.5533 19.6408 70.5921 19.5925 70.6189C19.5442 70.6452 19.4861 70.6583 19.4183 70.6583C19.3327 70.6583 19.2618 70.635 19.2056 70.5882C19.1499 70.5415 19.1081 70.4739 19.0803 70.3857C19.053 70.2969 19.0393 70.19 19.0393 70.065C19.0393 69.942 19.0517 69.8364 19.0764 69.7482C19.1016 69.6594 19.142 69.5914 19.1977 69.5441C19.2534 69.4963 19.3269 69.4724 19.4183 69.4724C19.505 69.4724 19.5765 69.496 19.6327 69.5433C19.6889 69.5901 19.7307 69.6578 19.758 69.7466C19.7853 69.8349 19.799 69.941 19.799 70.065ZM19.1709 70.065C19.1709 70.1721 19.1791 70.2614 19.1953 70.3329C19.2116 70.4043 19.2379 70.4579 19.2741 70.4936C19.3109 70.5288 19.359 70.5464 19.4183 70.5464C19.4777 70.5464 19.5255 70.5288 19.5618 70.4936C19.5985 70.4584 19.6251 70.4051 19.6414 70.3337C19.6582 70.2622 19.6666 70.1727 19.6666 70.065C19.6666 69.9594 19.6584 69.8711 19.6421 69.8002C19.6259 69.7288 19.5996 69.6752 19.5633 69.6394C19.5271 69.6032 19.4788 69.5851 19.4183 69.5851C19.3579 69.5851 19.3096 69.6032 19.2734 69.6394C19.2371 69.6752 19.2108 69.7288 19.1946 69.8002C19.1788 69.8711 19.1709 69.9594 19.1709 70.065Z" fill="#212121"/>
<path d="M34.4528 70.6426H33.6979V70.533L34.006 70.2202C34.0633 70.1624 34.1113 70.1109 34.1502 70.0658C34.1896 70.0206 34.2196 69.9762 34.24 69.9326C34.2605 69.8885 34.2708 69.8401 34.2708 69.7876C34.2708 69.7225 34.2513 69.6728 34.2125 69.6387C34.1741 69.604 34.1234 69.5867 34.0604 69.5867C34.0052 69.5867 33.9564 69.5961 33.9138 69.615C33.8713 69.6339 33.8277 69.6607 33.783 69.6954L33.7129 69.6071C33.7433 69.5814 33.7764 69.5585 33.8122 69.5386C33.8484 69.5186 33.887 69.5029 33.928 69.4913C33.9695 69.4797 34.0136 69.474 34.0604 69.474C34.1313 69.474 34.1925 69.4863 34.244 69.511C34.2955 69.5357 34.3351 69.5709 34.363 69.6166C34.3913 69.6623 34.4055 69.7167 34.4055 69.7797C34.4055 69.8407 34.3934 69.8974 34.3693 69.9499C34.3451 70.0019 34.3112 70.0537 34.2676 70.1052C34.224 70.1561 34.1731 70.2102 34.1148 70.2675L33.8642 70.5173V70.5228H34.4528V70.6426Z" fill="#212121"/>
<path d="M41.961 69.7592C41.961 69.8107 41.9511 69.8554 41.9311 69.8932C41.9111 69.931 41.8833 69.962 41.8476 69.9862C41.8118 70.0098 41.7698 70.0264 41.7215 70.0358V70.0421C41.8129 70.0537 41.8814 70.0831 41.9271 70.1304C41.9734 70.1777 41.9965 70.2396 41.9965 70.3163C41.9965 70.3831 41.9807 70.4422 41.9492 70.4936C41.9182 70.5451 41.8704 70.5856 41.8058 70.615C41.7417 70.6439 41.6595 70.6583 41.5592 70.6583C41.4982 70.6583 41.4417 70.6533 41.3897 70.6434C41.3382 70.6339 41.2889 70.6179 41.2416 70.5953V70.4724C41.2894 70.496 41.3414 70.5147 41.3976 70.5283C41.4538 70.5415 41.5082 70.548 41.5607 70.548C41.6658 70.548 41.7417 70.5273 41.7885 70.4858C41.8352 70.4437 41.8586 70.3865 41.8586 70.314C41.8586 70.2641 41.8455 70.2239 41.8192 70.1934C41.7935 70.1624 41.7562 70.1398 41.7073 70.1256C41.659 70.1109 41.6007 70.1036 41.5324 70.1036H41.4173V69.9917H41.5331C41.5957 69.9917 41.6487 69.9825 41.6923 69.9641C41.7359 69.9457 41.769 69.92 41.7916 69.8869C41.8147 69.8533 41.8263 69.8136 41.8263 69.7679C41.8263 69.7096 41.8068 69.6647 41.768 69.6331C41.7291 69.6011 41.6763 69.5851 41.6096 69.5851C41.5686 69.5851 41.5313 69.5893 41.4977 69.5977C41.4641 69.6061 41.4325 69.6176 41.4031 69.6324C41.3737 69.6471 41.3443 69.6641 41.3149 69.6836L41.2487 69.5937C41.2907 69.5612 41.3419 69.5331 41.4023 69.5094C41.4628 69.4858 41.5313 69.474 41.608 69.474C41.7257 69.474 41.8139 69.5008 41.8728 69.5543C41.9316 69.6079 41.961 69.6762 41.961 69.7592Z" fill="#212121"/>
<path d="M49.3912 70.3754H49.2186V70.6426H49.091V70.3754H48.5338V70.2651L49.0823 69.4842H49.2186V70.2572H49.3912V70.3754ZM49.091 70.2572V69.8806C49.091 69.8517 49.0912 69.8257 49.0917 69.8026C49.0923 69.7789 49.0931 69.7571 49.0941 69.7372C49.0952 69.7167 49.0959 69.6972 49.0965 69.6788C49.0975 69.6605 49.0983 69.6423 49.0988 69.6245H49.0925C49.0826 69.6455 49.071 69.6678 49.0579 69.6915C49.0453 69.7146 49.0324 69.7353 49.0192 69.7537L48.6639 70.2572H49.091Z" fill="#212121"/>
<path d="M56.2729 69.9381C56.3512 69.9381 56.4192 69.9515 56.477 69.9783C56.5348 70.0046 56.5794 70.0429 56.6109 70.0933C56.643 70.1438 56.659 70.205 56.659 70.2769C56.659 70.3557 56.6419 70.4238 56.6078 70.481C56.5736 70.5378 56.5245 70.5816 56.4604 70.6126C56.3963 70.6431 56.3196 70.6583 56.2303 70.6583C56.1705 70.6583 56.1148 70.6531 56.0633 70.6426C56.0118 70.6321 55.9685 70.6163 55.9333 70.5953V70.4708C55.9716 70.4939 56.0181 70.5123 56.0727 70.526C56.1274 70.5396 56.1804 70.5464 56.2319 70.5464C56.2902 70.5464 56.3412 70.5372 56.3848 70.5189C56.4289 70.4999 56.4631 70.4716 56.4872 70.4338C56.5119 70.3954 56.5243 70.3473 56.5243 70.2896C56.5243 70.2129 56.5006 70.1538 56.4533 70.1123C56.4066 70.0702 56.3325 70.0492 56.2311 70.0492C56.1986 70.0492 56.1628 70.0518 56.124 70.0571C56.0851 70.0623 56.053 70.0681 56.0278 70.0744L55.9616 70.0311L56.0058 69.4905H56.5786V69.6103H56.1177L56.0885 69.9578C56.1085 69.9536 56.1342 69.9494 56.1657 69.9452C56.1972 69.9405 56.233 69.9381 56.2729 69.9381Z" fill="#212121"/>
<path d="M63.2507 70.1501C63.2507 70.0807 63.2555 70.013 63.2649 69.9468C63.2749 69.8806 63.2914 69.8191 63.3146 69.7624C63.3377 69.7051 63.3692 69.6549 63.4091 69.6119C63.449 69.5688 63.4987 69.5352 63.5581 69.511C63.6179 69.4863 63.6897 69.474 63.7732 69.474C63.7968 69.474 63.8223 69.4753 63.8496 69.4779C63.8769 69.48 63.8995 69.4837 63.9174 69.4889V69.6016C63.8979 69.5948 63.8756 69.5898 63.8504 69.5867C63.8257 69.5835 63.8008 69.5819 63.7755 69.5819C63.6778 69.5819 63.6009 69.6032 63.5447 69.6458C63.489 69.6883 63.4488 69.7461 63.4241 69.8191C63.3994 69.8916 63.3852 69.9733 63.3815 70.0642H63.3902C63.4065 70.0379 63.4272 70.0143 63.4525 69.9933C63.4777 69.9717 63.5081 69.9547 63.5439 69.942C63.5801 69.9294 63.6221 69.9231 63.67 69.9231C63.7372 69.9231 63.7958 69.9368 63.8457 69.9641C63.8961 69.9914 63.935 70.0311 63.9623 70.0831C63.9901 70.1351 64.0041 70.1981 64.0041 70.2722C64.0041 70.3515 63.9894 70.4201 63.9599 70.4779C63.9305 70.5357 63.8885 70.5803 63.8339 70.6118C63.7797 70.6428 63.7151 70.6583 63.64 70.6583C63.5838 70.6583 63.532 70.6476 63.4848 70.626C63.4375 70.6045 63.3962 70.5724 63.3611 70.5299C63.3264 70.4873 63.2993 70.4345 63.2799 70.3715C63.2605 70.3079 63.2507 70.2341 63.2507 70.1501ZM63.6384 70.548C63.7099 70.548 63.7671 70.5252 63.8102 70.4795C63.8533 70.4338 63.8748 70.3647 63.8748 70.2722C63.8748 70.1966 63.8557 70.1367 63.8173 70.0926C63.779 70.0484 63.7212 70.0264 63.6439 70.0264C63.5914 70.0264 63.5457 70.0374 63.5068 70.0595C63.468 70.081 63.4378 70.1083 63.4162 70.1414C63.3947 70.1745 63.3839 70.2081 63.3839 70.2423C63.3839 70.2769 63.3889 70.3121 63.3989 70.3479C63.4094 70.3836 63.4251 70.4167 63.4462 70.4472C63.4672 70.4776 63.4937 70.5021 63.5257 70.5204C63.5578 70.5388 63.5954 70.548 63.6384 70.548Z" fill="#212121"/>
<path d="M70.4953 70.6426L70.9681 69.6103H70.34V69.4905H71.1083V69.5914L70.6387 70.6426H70.4953Z" fill="#212121"/>
<path d="M19.2737 68.1998C19.2737 68.2612 19.3234 68.3109 19.3848 68.3109C19.4461 68.3109 19.4958 68.2612 19.4958 68.1998H19.2737ZM19.3848 25.332H19.2737V68.1998H19.3848H19.4958V25.332H19.3848Z" fill="#D4D4D4"/>
<path d="M19.377 68.2129H77.2732" stroke="#D4D4D4" stroke-width="0.222113"/>
<path d="M25.8072 64.9824C22.5911 64.9824 22.5911 53.4992 19.375 53.4992V68.1585H77.2646V46.6582C74.0485 46.6582 74.0485 64.4937 70.8324 64.4937C67.6163 64.4937 67.6163 58.8743 64.4003 58.8743C61.1842 58.8743 61.1842 63.5164 57.9681 63.5164C54.752 63.5164 54.752 51.789 51.5359 51.789C48.3198 51.789 48.3198 57.1641 45.1037 57.1641C41.8876 57.1641 41.8876 65.471 38.6715 65.471C35.4554 65.471 35.4555 53.0106 32.2394 53.0106C29.0233 53.0106 29.0233 64.9824 25.8072 64.9824Z" fill="url(#paint0_linear_7615_127529)"/>
<path d="M19.375 53.4992C22.5911 53.4992 22.5911 64.9824 25.8072 64.9824C29.0233 64.9824 29.0233 53.0106 32.2394 53.0106C35.4554 53.0106 35.4554 65.471 38.6715 65.471C41.8876 65.471 41.8876 57.1641 45.1037 57.1641C48.3198 57.1641 48.3198 51.789 51.5359 51.789C54.752 51.789 54.752 63.5164 57.9681 63.5164C61.1842 63.5164 61.1842 58.8743 64.4003 58.8743C67.6163 58.8743 67.6163 64.4937 70.8324 64.4937C74.0485 64.4937 74.0485 46.6582 77.2646 46.6582M77.2646 46.6582V46.6582Z" stroke="#FF8A01" stroke-width="0.0997233"/>
<circle opacity="0.25" cx="19.3759" cy="53.5009" r="0.797786" fill="#FF8A01"/>
<circle cx="19.3755" cy="53.5005" r="0.349032" fill="#FF8A01" stroke="white" stroke-width="0.0997233"/>
<circle opacity="0.25" cx="25.8056" cy="64.9814" r="0.797786" fill="#FF8A01"/>
<circle cx="25.8071" cy="64.9829" r="0.349032" fill="#FF8A01" stroke="white" stroke-width="0.0997233"/>
<circle opacity="0.25" cx="32.2411" cy="53.0107" r="0.797786" fill="#FF8A01"/>
<circle cx="32.2407" cy="53.0102" r="0.349032" fill="#FF8A01" stroke="white" stroke-width="0.0997233"/>
<circle opacity="0.25" cx="38.6708" cy="65.4697" r="0.797786" fill="#FF8A01"/>
<circle cx="38.6723" cy="65.4712" r="0.349032" fill="#FF8A01" stroke="white" stroke-width="0.0997233"/>
<circle opacity="0.25" cx="45.1025" cy="57.163" r="0.797786" fill="#FF8A01"/>
<circle cx="45.104" cy="57.1626" r="0.349032" fill="#FF8A01" stroke="white" stroke-width="0.0997233"/>
<circle opacity="0.25" cx="51.5341" cy="51.788" r="0.797786" fill="#FF8A01"/>
<circle cx="51.5356" cy="51.7876" r="0.349032" fill="#FF8A01" stroke="white" stroke-width="0.0997233"/>
<circle opacity="0.25" cx="57.9697" cy="63.5165" r="0.797786" fill="#FF8A01"/>
<circle cx="57.9692" cy="63.5161" r="0.349032" fill="#FF8A01" stroke="white" stroke-width="0.0997233"/>
<circle opacity="0.25" cx="64.4013" cy="58.8759" r="0.797786" fill="#FF8A01"/>
<circle cx="64.4008" cy="58.8755" r="0.349032" fill="#FF8A01" stroke="white" stroke-width="0.0997233"/>
<circle opacity="0.25" cx="70.831" cy="64.495" r="0.797786" fill="#FF8A01"/>
<circle cx="70.8325" cy="64.4946" r="0.349032" fill="#FF8A01" stroke="white" stroke-width="0.0997233"/>
<circle opacity="0.25" cx="77.2665" cy="46.6572" r="0.797786" fill="#FF8A01"/>
<circle cx="77.2661" cy="46.6567" r="0.349032" fill="#FF8A01" stroke="white" stroke-width="0.0997233"/>
<g filter="url(#filter0_d_7615_127529)">
<rect x="29.0586" y="48.8477" width="5.85014" height="3.02594" rx="1.51297" fill="white"/>
</g>
<path d="M30.6834 51.25H30.4974V50.5085C30.4974 50.4838 30.4977 50.4591 30.4982 50.4344C30.4988 50.4097 30.4993 50.3856 30.4998 50.3619C30.5009 50.3383 30.5022 50.3157 30.5037 50.2942C30.4927 50.3062 30.4791 50.3194 30.4628 50.3336C30.447 50.3477 30.4302 50.3624 30.4123 50.3777L30.28 50.4833L30.187 50.3659L30.529 50.0979H30.6834V51.25ZM31.8843 50.9971H31.7283V51.25H31.5455V50.9971H31.0215V50.8568L31.5479 50.0948H31.7283V50.8434H31.8843V50.9971ZM31.5455 50.8434V50.5573C31.5455 50.5337 31.5458 50.5098 31.5463 50.4856C31.5473 50.4609 31.5484 50.4373 31.5494 50.4147C31.5505 50.3921 31.5515 50.3714 31.5526 50.3525C31.5536 50.333 31.5544 50.317 31.5549 50.3044H31.5486C31.5387 50.3254 31.5276 50.3469 31.5155 50.369C31.5035 50.3905 31.4906 50.4116 31.4769 50.4321L31.1933 50.8434H31.5455ZM32.3776 50.5298C32.4517 50.5298 32.5168 50.5432 32.573 50.57C32.6298 50.5962 32.6739 50.6351 32.7054 50.6866C32.737 50.7375 32.7527 50.8 32.7527 50.8741C32.7527 50.955 32.7356 51.0249 32.7015 51.0837C32.6673 51.142 32.6172 51.187 32.551 51.2185C32.4848 51.25 32.4042 51.2658 32.3091 51.2658C32.2487 51.2658 32.1922 51.2605 32.1396 51.25C32.0876 51.2395 32.0427 51.2237 32.0049 51.2027V51.0357C32.0443 51.0577 32.0916 51.0759 32.1467 51.09C32.2019 51.1037 32.2547 51.1105 32.3051 51.1105C32.3587 51.1105 32.4047 51.1026 32.443 51.0869C32.4814 51.0711 32.5108 51.047 32.5313 51.0144C32.5523 50.9818 32.5628 50.9406 32.5628 50.8907C32.5628 50.8245 32.5415 50.7735 32.499 50.7378C32.4569 50.7015 32.391 50.6834 32.3012 50.6834C32.2697 50.6834 32.236 50.6863 32.2003 50.6921C32.1651 50.6973 32.1357 50.7031 32.1121 50.7094L32.0309 50.6614L32.0742 50.0979H32.6731V50.2611H32.2374L32.2121 50.5479C32.2311 50.5437 32.2536 50.5397 32.2799 50.5361C32.3062 50.5319 32.3387 50.5298 32.3776 50.5298ZM33.6897 50.6732C33.6897 50.7662 33.6823 50.8494 33.6676 50.923C33.6534 50.996 33.6308 51.058 33.5998 51.1089C33.5688 51.1599 33.5284 51.1988 33.4785 51.2256C33.4286 51.2524 33.3681 51.2658 33.2972 51.2658C33.2084 51.2658 33.1352 51.2424 33.0774 51.1956C33.0196 51.1483 32.9768 51.0806 32.9489 50.9923C32.9211 50.9035 32.9072 50.7972 32.9072 50.6732C32.9072 50.5492 32.9198 50.4431 32.945 50.3548C32.9707 50.266 33.0122 50.198 33.0695 50.1507C33.1268 50.1035 33.2027 50.0798 33.2972 50.0798C33.3865 50.0798 33.4601 50.1035 33.5179 50.1507C33.5762 50.1975 33.6193 50.2653 33.6471 50.354C33.6755 50.4423 33.6897 50.5487 33.6897 50.6732ZM33.0939 50.6732C33.0939 50.7704 33.1002 50.8515 33.1128 50.9167C33.126 50.9818 33.1475 51.0307 33.1774 51.0632C33.2074 51.0953 33.2473 51.1113 33.2972 51.1113C33.3471 51.1113 33.3871 51.0953 33.417 51.0632C33.4469 51.0312 33.4685 50.9826 33.4816 50.9175C33.4953 50.8523 33.5021 50.7709 33.5021 50.6732C33.5021 50.5765 33.4955 50.4956 33.4824 50.4305C33.4693 50.3653 33.4477 50.3165 33.4178 50.2839C33.3878 50.2508 33.3477 50.2343 33.2972 50.2343C33.2468 50.2343 33.2066 50.2508 33.1767 50.2839C33.1472 50.3165 33.126 50.3653 33.1128 50.4305C33.1002 50.4956 33.0939 50.5765 33.0939 50.6732Z" fill="#444444"/>
<g filter="url(#filter1_d_7615_127529)">
<rect x="62.1426" y="53.2871" width="4.8415" height="3.02594" rx="1.51297" fill="white"/>
</g>
<path d="M64.0448 55.4385H63.8888V55.6914H63.7059V55.4385H63.1819V55.2982L63.7083 54.5362H63.8888V55.2848H64.0448V55.4385ZM63.7059 55.2848V54.9988C63.7059 54.9751 63.7062 54.9512 63.7067 54.927C63.7078 54.9024 63.7088 54.8787 63.7099 54.8561C63.7109 54.8335 63.712 54.8128 63.713 54.7939C63.7141 54.7744 63.7149 54.7584 63.7154 54.7458H63.7091C63.6991 54.7668 63.6881 54.7884 63.676 54.8104C63.6639 54.832 63.651 54.853 63.6374 54.8735L63.3537 55.2848H63.7059ZM64.5381 54.9712C64.6121 54.9712 64.6773 54.9846 64.7335 55.0114C64.7902 55.0376 64.8344 55.0765 64.8659 55.128C64.8974 55.1789 64.9132 55.2415 64.9132 55.3155C64.9132 55.3964 64.8961 55.4663 64.8619 55.5251C64.8278 55.5834 64.7776 55.6284 64.7114 55.6599C64.6452 55.6914 64.5646 55.7072 64.4695 55.7072C64.4091 55.7072 64.3526 55.7019 64.3001 55.6914C64.2481 55.6809 64.2032 55.6651 64.1653 55.6441V55.4771C64.2047 55.4991 64.252 55.5173 64.3072 55.5314C64.3623 55.5451 64.4151 55.5519 64.4656 55.5519C64.5192 55.5519 64.5651 55.544 64.6035 55.5283C64.6418 55.5125 64.6712 55.4884 64.6917 55.4558C64.7127 55.4232 64.7232 55.382 64.7232 55.3321C64.7232 55.2659 64.702 55.2149 64.6594 55.1792C64.6174 55.143 64.5515 55.1248 64.4616 55.1248C64.4301 55.1248 64.3965 55.1277 64.3608 55.1335C64.3256 55.1388 64.2961 55.1445 64.2725 55.1508L64.1913 55.1028L64.2347 54.5393H64.8336V54.7025H64.3978L64.3726 54.9893C64.3915 54.9851 64.4141 54.9812 64.4404 54.9775C64.4666 54.9733 64.4992 54.9712 64.5381 54.9712ZM65.8501 55.1146C65.8501 55.2076 65.8427 55.2908 65.828 55.3644C65.8138 55.4374 65.7913 55.4994 65.7603 55.5504C65.7293 55.6013 65.6888 55.6402 65.6389 55.667C65.589 55.6938 65.5286 55.7072 65.4577 55.7072C65.3689 55.7072 65.2956 55.6838 65.2378 55.637C65.18 55.5898 65.1372 55.522 65.1094 55.4337C65.0815 55.3449 65.0676 55.2386 65.0676 55.1146C65.0676 54.9906 65.0802 54.8845 65.1054 54.7962C65.1312 54.7075 65.1727 54.6394 65.2299 54.5921C65.2872 54.5449 65.3631 54.5212 65.4577 54.5212C65.547 54.5212 65.6205 54.5449 65.6783 54.5921C65.7366 54.6389 65.7797 54.7067 65.8075 54.7954C65.8359 54.8837 65.8501 54.9901 65.8501 55.1146ZM65.2544 55.1146C65.2544 55.2118 65.2607 55.2929 65.2733 55.3581C65.2864 55.4232 65.3079 55.4721 65.3379 55.5046C65.3678 55.5367 65.4078 55.5527 65.4577 55.5527C65.5076 55.5527 65.5475 55.5367 65.5774 55.5046C65.6074 55.4726 65.6289 55.424 65.6421 55.3589C65.6557 55.2937 65.6625 55.2123 65.6625 55.1146C65.6625 55.0179 65.656 54.937 65.6428 54.8719C65.6297 54.8067 65.6082 54.7579 65.5782 54.7253C65.5483 54.6922 65.5081 54.6757 65.4577 54.6757C65.4072 54.6757 65.367 54.6922 65.3371 54.7253C65.3077 54.7579 65.2864 54.8067 65.2733 54.8719C65.2607 54.937 65.2544 55.0179 65.2544 55.1146Z" fill="#444444"/>
</g>
<defs>
<filter id="filter0_d_7615_127529" x="28.3074" y="48.8477" width="7.35207" height="4.52785" filterUnits="userSpaceOnUse" color-interpolation-filters="sRGB">
<feFlood flood-opacity="0" result="BackgroundImageFix"/>
<feColorMatrix in="SourceAlpha" type="matrix" values="0 0 0 0 0 0 0 0 0 0 0 0 0 0 0 0 0 0 127 0" result="hardAlpha"/>
<feOffset dy="0.751231"/>
<feGaussianBlur stdDeviation="0.375615"/>
<feComposite in2="hardAlpha" operator="out"/>
<feColorMatrix type="matrix" values="0 0 0 0 0 0 0 0 0 0 0 0 0 0 0 0 0 0 0.25 0"/>
<feBlend mode="normal" in2="BackgroundImageFix" result="effect1_dropShadow_7615_127529"/>
<feBlend mode="normal" in="SourceGraphic" in2="effect1_dropShadow_7615_127529" result="shape"/>
</filter>
<filter id="filter1_d_7615_127529" x="61.3913" y="53.2871" width="6.34426" height="4.52785" filterUnits="userSpaceOnUse" color-interpolation-filters="sRGB">
<feFlood flood-opacity="0" result="BackgroundImageFix"/>
<feColorMatrix in="SourceAlpha" type="matrix" values="0 0 0 0 0 0 0 0 0 0 0 0 0 0 0 0 0 0 127 0" result="hardAlpha"/>
<feOffset dy="0.751231"/>
<feGaussianBlur stdDeviation="0.375615"/>
<feComposite in2="hardAlpha" operator="out"/>
<feColorMatrix type="matrix" values="0 0 0 0 0 0 0 0 0 0 0 0 0 0 0 0 0 0 0.25 0"/>
<feBlend mode="normal" in2="BackgroundImageFix" result="effect1_dropShadow_7615_127529"/>
<feBlend mode="normal" in="SourceGraphic" in2="effect1_dropShadow_7615_127529" result="shape"/>
</filter>
<linearGradient id="paint0_linear_7615_127529" x1="48.999" y1="51.5" x2="48.3198" y2="68.1585" gradientUnits="userSpaceOnUse">
<stop stop-color="#FF8A01" stop-opacity="0.5"/>
<stop offset="1" stop-color="#FF8A01" stop-opacity="0.05"/>
</linearGradient>
<clipPath id="clip0_7615_127529">
<rect width="70" height="51.4409" fill="white" transform="translate(10.5 20)"/>
</clipPath>
</defs>
</svg>
