<svg width="92" height="92" viewBox="0 0 92 92" fill="none" xmlns="http://www.w3.org/2000/svg">
<rect x="0.389831" y="0.389831" width="91.079" height="91.2203" rx="17.5424" stroke="#BEBEBE" stroke-width="0.779661"/>
<rect width="70" height="58.1046" transform="translate(11 17)" fill="white"/>
<path d="M18.7871 21.4434V70.0549" stroke="#E0E0E0" stroke-width="0.251873"/>
<path d="M27.6911 72.5605H27.5464V71.6348C27.5464 71.5996 27.5464 71.5696 27.5464 71.5445C27.5469 71.5189 27.5475 71.4957 27.5481 71.4748C27.5493 71.4534 27.5508 71.4316 27.5526 71.4096C27.5341 71.4287 27.5169 71.4451 27.5008 71.4588C27.4847 71.4719 27.4647 71.4882 27.4409 71.5079L27.2917 71.6276L27.2139 71.5267L27.5678 71.2541H27.6911V72.5605Z" fill="#212121"/>
<path d="M19.6896 71.9055C19.6896 72.0116 19.6815 72.1063 19.6655 72.1897C19.6494 72.2731 19.6241 72.3437 19.5895 72.4015C19.5549 72.4593 19.5103 72.5034 19.4555 72.5337C19.4007 72.5635 19.3348 72.5784 19.258 72.5784C19.1609 72.5784 19.0805 72.5519 19.0167 72.4989C18.9536 72.4459 18.9062 72.3693 18.8746 72.2692C18.8437 72.1686 18.8282 72.0473 18.8282 71.9055C18.8282 71.7661 18.8422 71.6464 18.8702 71.5463C18.8988 71.4456 18.9446 71.3685 19.0078 71.3149C19.0709 71.2607 19.1543 71.2336 19.258 71.2336C19.3563 71.2336 19.4373 71.2604 19.501 71.314C19.5648 71.367 19.6121 71.4439 19.6431 71.5445C19.6741 71.6446 19.6896 71.765 19.6896 71.9055ZM18.9774 71.9055C18.9774 72.0271 18.9866 72.1283 19.0051 72.2094C19.0236 72.2904 19.0533 72.3511 19.0945 72.3917C19.1362 72.4316 19.1907 72.4515 19.258 72.4515C19.3253 72.4515 19.3795 72.4316 19.4206 72.3917C19.4623 72.3517 19.4924 72.2913 19.5109 72.2103C19.5299 72.1292 19.5395 72.0277 19.5395 71.9055C19.5395 71.7858 19.5302 71.6857 19.5118 71.6053C19.4933 71.5243 19.4635 71.4635 19.4224 71.423C19.3813 71.3819 19.3265 71.3614 19.258 71.3614C19.1895 71.3614 19.1347 71.3819 19.0936 71.423C19.0525 71.4635 19.0227 71.5243 19.0042 71.6053C18.9863 71.6857 18.9774 71.7858 18.9774 71.9055Z" fill="#212121"/>
<path d="M36.3074 72.5605H35.4514V72.4363L35.8008 72.0816C35.8657 72.0161 35.9202 71.9577 35.9643 71.9064C36.009 71.8552 36.0429 71.8049 36.0662 71.7554C36.0894 71.7054 36.101 71.6506 36.101 71.591C36.101 71.5171 36.079 71.4608 36.0349 71.4221C35.9914 71.3828 35.9339 71.3631 35.8624 71.3631C35.7999 71.3631 35.7445 71.3739 35.6962 71.3953C35.648 71.4168 35.5985 71.4471 35.5479 71.4865L35.4684 71.3864C35.5029 71.3572 35.5404 71.3313 35.5809 71.3086C35.6221 71.286 35.6658 71.2681 35.7123 71.255C35.7594 71.2419 35.8094 71.2354 35.8624 71.2354C35.9428 71.2354 36.0123 71.2494 36.0706 71.2774C36.129 71.3054 36.174 71.3453 36.2056 71.3971C36.2377 71.4489 36.2538 71.5106 36.2538 71.5821C36.2538 71.6512 36.2401 71.7155 36.2127 71.7751C36.1853 71.8341 36.1469 71.8927 36.0974 71.9511C36.048 72.0089 35.9902 72.0703 35.9241 72.1352L35.6399 72.4185V72.4247H36.3074V72.5605Z" fill="#212121"/>
<path d="M44.8217 71.5588C44.8217 71.6172 44.8104 71.6679 44.7877 71.7107C44.7651 71.7536 44.7335 71.7888 44.693 71.8162C44.6525 71.843 44.6048 71.8618 44.55 71.8725V71.8796C44.6537 71.8927 44.7314 71.9261 44.7833 71.9797C44.8357 72.0333 44.8619 72.1036 44.8619 72.1906C44.8619 72.2663 44.844 72.3333 44.8083 72.3917C44.7731 72.45 44.7189 72.4959 44.6456 72.5293C44.573 72.562 44.4797 72.5784 44.3659 72.5784C44.2968 72.5784 44.2328 72.5728 44.1738 72.5614C44.1154 72.5507 44.0594 72.5325 44.0058 72.5069V72.3675C44.06 72.3943 44.119 72.4155 44.1828 72.431C44.2465 72.4459 44.3082 72.4533 44.3677 72.4533C44.4869 72.4533 44.573 72.4298 44.626 72.3827C44.679 72.3351 44.7055 72.2701 44.7055 72.1879C44.7055 72.1313 44.6906 72.0858 44.6608 72.0512C44.6316 72.0161 44.5893 71.9904 44.5339 71.9744C44.4791 71.9577 44.413 71.9493 44.3356 71.9493H44.2051V71.8224H44.3365C44.4074 71.8224 44.4675 71.812 44.517 71.7912C44.5664 71.7703 44.6039 71.7411 44.6296 71.7036C44.6558 71.6655 44.6689 71.6205 44.6689 71.5687C44.6689 71.5025 44.6468 71.4516 44.6027 71.4159C44.5587 71.3795 44.4988 71.3614 44.4231 71.3614C44.3767 71.3614 44.3344 71.3661 44.2962 71.3757C44.2581 71.3852 44.2224 71.3983 44.189 71.415C44.1557 71.4316 44.1223 71.451 44.0889 71.4731L44.0139 71.3712C44.0615 71.3342 44.1196 71.3024 44.1881 71.2756C44.2566 71.2488 44.3344 71.2354 44.4214 71.2354C44.5548 71.2354 44.6549 71.2657 44.7216 71.3265C44.7883 71.3873 44.8217 71.4647 44.8217 71.5588Z" fill="#212121"/>
<path d="M53.2477 72.2576H53.052V72.5605H52.9072V72.2576H52.2754V72.1325L52.8974 71.247H53.052V72.1236H53.2477V72.2576ZM52.9072 72.1236V71.6964C52.9072 71.6637 52.9075 71.6342 52.9081 71.608C52.9087 71.5812 52.9096 71.5565 52.9108 71.5338C52.912 71.5106 52.9129 71.4885 52.9135 71.4677C52.9147 71.4468 52.9155 71.4263 52.9161 71.406H52.909C52.8977 71.4299 52.8846 71.4552 52.8697 71.482C52.8554 71.5082 52.8408 71.5317 52.8259 71.5526L52.4229 72.1236H52.9072Z" fill="#212121"/>
<path d="M61.0498 71.7617C61.1385 71.7617 61.2157 71.7769 61.2812 71.8073C61.3467 71.837 61.3974 71.8805 61.4331 71.9377C61.4694 71.9949 61.4876 72.0643 61.4876 72.1459C61.4876 72.2353 61.4683 72.3124 61.4295 72.3774C61.3908 72.4417 61.3351 72.4914 61.2624 72.5266C61.1898 72.5611 61.1028 72.5784 61.0015 72.5784C60.9336 72.5784 60.8704 72.5725 60.8121 72.5605C60.7537 72.5486 60.7045 72.5308 60.6646 72.5069V72.3657C60.7081 72.392 60.7608 72.4128 60.8228 72.4283C60.8847 72.4438 60.9449 72.4515 61.0033 72.4515C61.0694 72.4515 61.1272 72.4411 61.1766 72.4203C61.2267 72.3988 61.2654 72.3666 61.2928 72.3237C61.3208 72.2803 61.3348 72.2257 61.3348 72.1602C61.3348 72.0732 61.308 72.0062 61.2544 71.9592C61.2014 71.9115 61.1174 71.8877 61.0024 71.8877C60.9655 71.8877 60.925 71.8907 60.8809 71.8966C60.8368 71.9026 60.8004 71.9091 60.7719 71.9163L60.6968 71.8671L60.7468 71.2541H61.3965V71.3899H60.8737L60.8407 71.784C60.8633 71.7793 60.8925 71.7745 60.9282 71.7697C60.964 71.7644 61.0045 71.7617 61.0498 71.7617Z" fill="#212121"/>
<path d="M68.9628 72.0021C68.9628 71.9234 68.9682 71.8466 68.9789 71.7715C68.9902 71.6964 69.009 71.6267 69.0352 71.5624C69.0614 71.4975 69.0972 71.4406 69.1424 71.3917C69.1877 71.3429 69.244 71.3048 69.3113 71.2774C69.3792 71.2494 69.4606 71.2354 69.5553 71.2354C69.5821 71.2354 69.611 71.2368 69.642 71.2398C69.6729 71.2422 69.6985 71.2464 69.7188 71.2523V71.3801C69.6968 71.3724 69.6714 71.3667 69.6428 71.3631C69.6148 71.3596 69.5866 71.3578 69.558 71.3578C69.4472 71.3578 69.3599 71.3819 69.2961 71.4302C69.233 71.4784 69.1874 71.5439 69.1594 71.6267C69.1314 71.709 69.1153 71.8016 69.1112 71.9047H69.121C69.1395 71.8749 69.163 71.8481 69.1916 71.8242C69.2202 71.7998 69.2547 71.7804 69.2952 71.7661C69.3363 71.7519 69.384 71.7447 69.4382 71.7447C69.5145 71.7447 69.5809 71.7602 69.6375 71.7912C69.6947 71.8221 69.7388 71.8671 69.7697 71.9261C69.8013 71.9851 69.8171 72.0566 69.8171 72.1406C69.8171 72.2305 69.8004 72.3083 69.7671 72.3738C69.7337 72.4393 69.686 72.49 69.6241 72.5257C69.5627 72.5608 69.4894 72.5784 69.4043 72.5784C69.3405 72.5784 69.2818 72.5662 69.2282 72.5418C69.1746 72.5174 69.1278 72.481 69.0879 72.4328C69.0486 72.3845 69.0179 72.3246 68.9959 72.2532C68.9738 72.1811 68.9628 72.0974 68.9628 72.0021ZM69.4025 72.4533C69.4835 72.4533 69.5484 72.4274 69.5973 72.3756C69.6461 72.3237 69.6705 72.2454 69.6705 72.1406C69.6705 72.0548 69.6488 71.9869 69.6053 71.9368C69.5618 71.8868 69.4963 71.8618 69.4087 71.8618C69.3492 71.8618 69.2973 71.8743 69.2532 71.8993C69.2092 71.9237 69.1749 71.9547 69.1505 71.9922C69.1261 72.0298 69.1138 72.0679 69.1138 72.1066C69.1138 72.1459 69.1195 72.1858 69.1308 72.2263C69.1427 72.2669 69.1606 72.3044 69.1844 72.3389C69.2083 72.3735 69.2383 72.4012 69.2747 72.422C69.311 72.4429 69.3536 72.4533 69.4025 72.4533Z" fill="#212121"/>
<path d="M77.1789 72.5605L77.715 71.3899H77.0028V71.2541H77.8741V71.3685L77.3415 72.5605H77.1789Z" fill="#212121"/>
<path d="M18.6612 70.0549C18.6612 70.1244 18.7176 70.1808 18.7871 70.1808C18.8567 70.1808 18.913 70.1244 18.913 70.0549H18.6612ZM18.7871 21.4434H18.6612V70.0549H18.7871H18.913V21.4434H18.7871Z" fill="#D4D4D4"/>
<path d="M76.7569 70.0549C76.7569 70.1244 76.8133 70.1808 76.8828 70.1808C76.9524 70.1808 77.0087 70.1244 77.0087 70.0549H76.7569ZM76.8828 21.4434H76.7569V70.0549H76.8828H77.0087V21.4434H76.8828Z" fill="#D4D4D4"/>
<path d="M18.7871 70.0547H76.9698" stroke="#D4D4D4" stroke-width="0.251873"/>
<path d="M18.7773 21.3457H76.4244" stroke="#D4D4D4" stroke-width="0.228758" stroke-dasharray="0.46 0.46"/>
<path d="M18.7773 28.209H76.4244" stroke="#D4D4D4" stroke-width="0.228758" stroke-dasharray="0.46 0.46"/>
<path d="M18.7773 35.0723H76.4244" stroke="#D4D4D4" stroke-width="0.228758" stroke-dasharray="0.46 0.46"/>
<path d="M18.7773 41.9355H76.4244" stroke="#D4D4D4" stroke-width="0.228758" stroke-dasharray="0.46 0.46"/>
<path d="M18.7773 48.7969H76.4244" stroke="#D4D4D4" stroke-width="0.228758" stroke-dasharray="0.46 0.46"/>
<path d="M18.7773 55.6582H76.4244" stroke="#D4D4D4" stroke-width="0.228758" stroke-dasharray="0.46 0.46"/>
<path d="M18.7773 62.5215H76.4244" stroke="#D4D4D4" stroke-width="0.228758" stroke-dasharray="0.46 0.46"/>
<rect width="3.66013" height="45.5229" transform="translate(21.9805 24.3203)" fill="#FF8A01"/>
<rect width="3.66013" height="34.085" transform="translate(30.4434 35.7598)" fill="#FF8A01"/>
<rect width="3.66013" height="34.085" transform="translate(38.9082 35.7598)" fill="#FF8A01"/>
<rect width="3.66013" height="29.7386" transform="translate(64.3008 40.1055)" fill="#FF8A01"/>
<rect width="3.66013" height="45.5229" transform="translate(72.7637 24.3203)" fill="#FF8A01"/>
<rect width="3.66013" height="45.5229" transform="translate(47.373 24.3203)" fill="#FF8A01"/>
<rect width="3.66013" height="36.8301" transform="translate(55.8359 33.0137)" fill="#FF8A01"/>
<path d="M13.2096 29.0664H12.2518V28.9274L12.6427 28.5305C12.7153 28.4572 12.7763 28.3919 12.8256 28.3345C12.8756 28.2772 12.9136 28.2209 12.9396 28.1656C12.9656 28.1096 12.9786 28.0483 12.9786 27.9816C12.9786 27.899 12.954 27.836 12.9046 27.7926C12.856 27.7487 12.7917 27.7267 12.7117 27.7267C12.6417 27.7267 12.5797 27.7387 12.5257 27.7627C12.4717 27.7866 12.4164 27.8206 12.3597 27.8646L12.2708 27.7527C12.3094 27.72 12.3514 27.691 12.3967 27.6657C12.4427 27.6403 12.4917 27.6203 12.5437 27.6057C12.5964 27.591 12.6523 27.5837 12.7117 27.5837C12.8017 27.5837 12.8793 27.5994 12.9446 27.6307C13.0099 27.662 13.0603 27.7067 13.0956 27.7647C13.1316 27.8226 13.1496 27.8916 13.1496 27.9716C13.1496 28.0489 13.1343 28.1209 13.1036 28.1876C13.0729 28.2536 13.0299 28.3192 12.9746 28.3845C12.9193 28.4492 12.8546 28.5178 12.7807 28.5905L12.4627 28.9074V28.9144H13.2096V29.0664ZM13.8854 28.1726C13.9848 28.1726 14.0711 28.1896 14.1444 28.2236C14.2177 28.2569 14.2744 28.3056 14.3144 28.3695C14.355 28.4335 14.3754 28.5112 14.3754 28.6025C14.3754 28.7025 14.3537 28.7888 14.3104 28.8614C14.267 28.9334 14.2047 28.9891 14.1234 29.0284C14.0421 29.0671 13.9448 29.0864 13.8315 29.0864C13.7555 29.0864 13.6848 29.0797 13.6195 29.0664C13.5542 29.0531 13.4992 29.0331 13.4545 29.0064V28.8484C13.5032 28.8778 13.5622 28.9011 13.6315 28.9184C13.7008 28.9358 13.7681 28.9444 13.8335 28.9444C13.9074 28.9444 13.9721 28.9328 14.0274 28.9094C14.0834 28.8854 14.1267 28.8494 14.1574 28.8015C14.1887 28.7528 14.2044 28.6918 14.2044 28.6185C14.2044 28.5212 14.1744 28.4462 14.1144 28.3935C14.0551 28.3402 13.9611 28.3135 13.8325 28.3135C13.7911 28.3135 13.7458 28.3169 13.6965 28.3235C13.6472 28.3302 13.6065 28.3375 13.5745 28.3455L13.4905 28.2906L13.5465 27.6047H14.2734V27.7567H13.6885L13.6515 28.1976C13.6768 28.1922 13.7095 28.1869 13.7495 28.1816C13.7895 28.1756 13.8348 28.1726 13.8854 28.1726ZM15.5611 28.3335C15.5611 28.4522 15.5521 28.5582 15.5341 28.6515C15.5161 28.7448 15.4878 28.8238 15.4492 28.8884C15.4105 28.9531 15.3605 29.0024 15.2992 29.0364C15.2379 29.0697 15.1642 29.0864 15.0782 29.0864C14.9696 29.0864 14.8796 29.0567 14.8083 28.9974C14.7376 28.9381 14.6846 28.8524 14.6493 28.7405C14.6146 28.6278 14.5973 28.4922 14.5973 28.3335C14.5973 28.1776 14.613 28.0436 14.6443 27.9316C14.6763 27.819 14.7276 27.7327 14.7983 27.6727C14.8689 27.612 14.9622 27.5817 15.0782 27.5817C15.1882 27.5817 15.2789 27.6117 15.3502 27.6717C15.4215 27.731 15.4745 27.817 15.5091 27.9296C15.5438 28.0416 15.5611 28.1762 15.5611 28.3335ZM14.7643 28.3335C14.7643 28.4695 14.7746 28.5828 14.7953 28.6735C14.8159 28.7641 14.8493 28.8321 14.8953 28.8774C14.9419 28.9221 15.0029 28.9444 15.0782 28.9444C15.1535 28.9444 15.2142 28.9221 15.2602 28.8774C15.3068 28.8328 15.3405 28.7651 15.3612 28.6745C15.3825 28.5838 15.3932 28.4702 15.3932 28.3335C15.3932 28.1996 15.3828 28.0876 15.3622 27.9976C15.3415 27.907 15.3082 27.839 15.2622 27.7936C15.2162 27.7477 15.1549 27.7247 15.0782 27.7247C15.0016 27.7247 14.9402 27.7477 14.8943 27.7936C14.8483 27.839 14.8149 27.907 14.7943 27.9976C14.7743 28.0876 14.7643 28.1996 14.7643 28.3335ZM16.7329 28.3335C16.7329 28.4522 16.7239 28.5582 16.7059 28.6515C16.6879 28.7448 16.6596 28.8238 16.6209 28.8884C16.5823 28.9531 16.5323 29.0024 16.471 29.0364C16.4096 29.0697 16.336 29.0864 16.25 29.0864C16.1414 29.0864 16.0514 29.0567 15.9801 28.9974C15.9094 28.9381 15.8564 28.8524 15.8211 28.7405C15.7864 28.6278 15.7691 28.4922 15.7691 28.3335C15.7691 28.1776 15.7848 28.0436 15.8161 27.9316C15.8481 27.819 15.8994 27.7327 15.9701 27.6727C16.0407 27.612 16.134 27.5817 16.25 27.5817C16.36 27.5817 16.4506 27.6117 16.522 27.6717C16.5933 27.731 16.6463 27.817 16.6809 27.9296C16.7156 28.0416 16.7329 28.1762 16.7329 28.3335ZM15.9361 28.3335C15.9361 28.4695 15.9464 28.5828 15.9671 28.6735C15.9877 28.7641 16.021 28.8321 16.067 28.8774C16.1137 28.9221 16.1747 28.9444 16.25 28.9444C16.3253 28.9444 16.386 28.9221 16.432 28.8774C16.4786 28.8328 16.5123 28.7651 16.5329 28.6745C16.5543 28.5838 16.5649 28.4702 16.5649 28.3335C16.5649 28.1996 16.5546 28.0876 16.5339 27.9976C16.5133 27.907 16.48 27.839 16.434 27.7936C16.388 27.7477 16.3267 27.7247 16.25 27.7247C16.1733 27.7247 16.112 27.7477 16.066 27.7936C16.02 27.839 15.9867 27.907 15.9661 27.9976C15.9461 28.0876 15.9361 28.1996 15.9361 28.3335Z" fill="#212121"/>
<path d="M13.1556 20.6253C13.1556 20.6906 13.1429 20.7473 13.1176 20.7953C13.0923 20.8433 13.0569 20.8826 13.0116 20.9133C12.9663 20.9432 12.913 20.9642 12.8516 20.9762V20.9842C12.9676 20.9989 13.0546 21.0362 13.1126 21.0962C13.1713 21.1562 13.2006 21.2349 13.2006 21.3322C13.2006 21.4168 13.1806 21.4918 13.1406 21.5571C13.1013 21.6225 13.0406 21.6738 12.9586 21.7111C12.8773 21.7478 12.773 21.7661 12.6457 21.7661C12.5684 21.7661 12.4967 21.7598 12.4307 21.7471C12.3654 21.7351 12.3027 21.7148 12.2428 21.6861V21.5301C12.3034 21.5601 12.3694 21.5838 12.4407 21.6011C12.512 21.6178 12.581 21.6261 12.6477 21.6261C12.781 21.6261 12.8773 21.5998 12.9366 21.5471C12.996 21.4938 13.0256 21.4212 13.0256 21.3292C13.0256 21.2659 13.0089 21.2149 12.9756 21.1762C12.943 21.1369 12.8956 21.1082 12.8336 21.0902C12.7723 21.0716 12.6983 21.0622 12.6117 21.0622H12.4657V20.9202H12.6127C12.692 20.9202 12.7593 20.9086 12.8147 20.8853C12.87 20.8619 12.912 20.8293 12.9406 20.7873C12.97 20.7446 12.9846 20.6943 12.9846 20.6363C12.9846 20.5623 12.96 20.5053 12.9106 20.4653C12.8613 20.4247 12.7943 20.4043 12.7097 20.4043C12.6577 20.4043 12.6104 20.4097 12.5677 20.4203C12.525 20.431 12.485 20.4457 12.4477 20.4643C12.4104 20.483 12.3731 20.5047 12.3357 20.5293L12.2518 20.4153C12.3051 20.374 12.3701 20.3384 12.4467 20.3084C12.5234 20.2784 12.6104 20.2634 12.7077 20.2634C12.857 20.2634 12.969 20.2974 13.0436 20.3654C13.1183 20.4333 13.1556 20.52 13.1556 20.6253ZM14.3894 21.0132C14.3894 21.1319 14.3804 21.2379 14.3624 21.3312C14.3444 21.4245 14.316 21.5035 14.2774 21.5681C14.2387 21.6328 14.1887 21.6821 14.1274 21.7161C14.0661 21.7494 13.9924 21.7661 13.9064 21.7661C13.7978 21.7661 13.7078 21.7364 13.6365 21.6771C13.5658 21.6178 13.5129 21.5321 13.4775 21.4202C13.4429 21.3075 13.4255 21.1719 13.4255 21.0132C13.4255 20.8573 13.4412 20.7233 13.4725 20.6113C13.5045 20.4987 13.5558 20.4123 13.6265 20.3524C13.6972 20.2917 13.7905 20.2614 13.9064 20.2614C14.0164 20.2614 14.1071 20.2914 14.1784 20.3514C14.2497 20.4107 14.3027 20.4967 14.3374 20.6093C14.372 20.7213 14.3894 20.8559 14.3894 21.0132ZM13.5925 21.0132C13.5925 21.1492 13.6028 21.2625 13.6235 21.3532C13.6442 21.4438 13.6775 21.5118 13.7235 21.5571C13.7701 21.6018 13.8311 21.6241 13.9064 21.6241C13.9818 21.6241 14.0424 21.6018 14.0884 21.5571C14.1351 21.5125 14.1687 21.4448 14.1894 21.3542C14.2107 21.2635 14.2214 21.1499 14.2214 21.0132C14.2214 20.8793 14.2111 20.7673 14.1904 20.6773C14.1697 20.5866 14.1364 20.5187 14.0904 20.4733C14.0444 20.4273 13.9831 20.4043 13.9064 20.4043C13.8298 20.4043 13.7685 20.4273 13.7225 20.4733C13.6765 20.5187 13.6432 20.5866 13.6225 20.6773C13.6025 20.7673 13.5925 20.8793 13.5925 21.0132ZM15.5611 21.0132C15.5611 21.1319 15.5521 21.2379 15.5341 21.3312C15.5161 21.4245 15.4878 21.5035 15.4492 21.5681C15.4105 21.6328 15.3605 21.6821 15.2992 21.7161C15.2379 21.7494 15.1642 21.7661 15.0782 21.7661C14.9696 21.7661 14.8796 21.7364 14.8083 21.6771C14.7376 21.6178 14.6846 21.5321 14.6493 21.4202C14.6146 21.3075 14.5973 21.1719 14.5973 21.0132C14.5973 20.8573 14.613 20.7233 14.6443 20.6113C14.6763 20.4987 14.7276 20.4123 14.7983 20.3524C14.8689 20.2917 14.9622 20.2614 15.0782 20.2614C15.1882 20.2614 15.2789 20.2914 15.3502 20.3514C15.4215 20.4107 15.4745 20.4967 15.5091 20.6093C15.5438 20.7213 15.5611 20.8559 15.5611 21.0132ZM14.7643 21.0132C14.7643 21.1492 14.7746 21.2625 14.7953 21.3532C14.8159 21.4438 14.8493 21.5118 14.8953 21.5571C14.9419 21.6018 15.0029 21.6241 15.0782 21.6241C15.1535 21.6241 15.2142 21.6018 15.2602 21.5571C15.3068 21.5125 15.3405 21.4448 15.3612 21.3542C15.3825 21.2635 15.3932 21.1499 15.3932 21.0132C15.3932 20.8793 15.3828 20.7673 15.3622 20.6773C15.3415 20.5866 15.3082 20.5187 15.2622 20.4733C15.2162 20.4273 15.1549 20.4043 15.0782 20.4043C15.0016 20.4043 14.9402 20.4273 14.8943 20.4733C14.8483 20.5187 14.8149 20.5866 14.7943 20.6773C14.7743 20.7673 14.7643 20.8793 14.7643 21.0132ZM16.7329 21.0132C16.7329 21.1319 16.7239 21.2379 16.7059 21.3312C16.6879 21.4245 16.6596 21.5035 16.6209 21.5681C16.5823 21.6328 16.5323 21.6821 16.471 21.7161C16.4096 21.7494 16.336 21.7661 16.25 21.7661C16.1414 21.7661 16.0514 21.7364 15.9801 21.6771C15.9094 21.6178 15.8564 21.5321 15.8211 21.4202C15.7864 21.3075 15.7691 21.1719 15.7691 21.0132C15.7691 20.8573 15.7848 20.7233 15.8161 20.6113C15.8481 20.4987 15.8994 20.4123 15.9701 20.3524C16.0407 20.2917 16.134 20.2614 16.25 20.2614C16.36 20.2614 16.4506 20.2914 16.522 20.3514C16.5933 20.4107 16.6463 20.4967 16.6809 20.6093C16.7156 20.7213 16.7329 20.8559 16.7329 21.0132ZM15.9361 21.0132C15.9361 21.1492 15.9464 21.2625 15.9671 21.3532C15.9877 21.4438 16.021 21.5118 16.067 21.5571C16.1137 21.6018 16.1747 21.6241 16.25 21.6241C16.3253 21.6241 16.386 21.6018 16.432 21.5571C16.4786 21.5125 16.5123 21.4448 16.5329 21.3542C16.5543 21.2635 16.5649 21.1499 16.5649 21.0132C16.5649 20.8793 16.5546 20.7673 16.5339 20.6773C16.5133 20.5866 16.48 20.5187 16.434 20.4733C16.388 20.4273 16.3267 20.4043 16.25 20.4043C16.1733 20.4043 16.112 20.4273 16.066 20.4733C16.02 20.5187 15.9867 20.5866 15.9661 20.6773C15.9461 20.7673 15.9361 20.8793 15.9361 21.0132Z" fill="#212121"/>
<path d="M13.2096 35.7305H12.2518V35.5915L12.6427 35.1946C12.7153 35.1213 12.7763 35.0559 12.8256 34.9986C12.8756 34.9413 12.9136 34.885 12.9396 34.8296C12.9656 34.7736 12.9786 34.7123 12.9786 34.6457C12.9786 34.563 12.954 34.5 12.9046 34.4567C12.856 34.4127 12.7917 34.3907 12.7117 34.3907C12.6417 34.3907 12.5797 34.4027 12.5257 34.4267C12.4717 34.4507 12.4164 34.4847 12.3597 34.5287L12.2708 34.4167C12.3094 34.3841 12.3514 34.3551 12.3967 34.3297C12.4427 34.3044 12.4917 34.2844 12.5437 34.2697C12.5964 34.2551 12.6523 34.2477 12.7117 34.2477C12.8017 34.2477 12.8793 34.2634 12.9446 34.2947C13.0099 34.3261 13.0603 34.3707 13.0956 34.4287C13.1316 34.4867 13.1496 34.5557 13.1496 34.6357C13.1496 34.713 13.1343 34.785 13.1036 34.8516C13.0729 34.9176 13.0299 34.9833 12.9746 35.0486C12.9193 35.1133 12.8546 35.1819 12.7807 35.2546L12.4627 35.5715V35.5785H13.2096V35.7305ZM14.3894 34.9976C14.3894 35.1163 14.3804 35.2222 14.3624 35.3155C14.3444 35.4089 14.316 35.4878 14.2774 35.5525C14.2387 35.6172 14.1887 35.6665 14.1274 35.7005C14.0661 35.7338 13.9924 35.7505 13.9064 35.7505C13.7978 35.7505 13.7078 35.7208 13.6365 35.6615C13.5658 35.6022 13.5129 35.5165 13.4775 35.4045C13.4429 35.2919 13.4255 35.1562 13.4255 34.9976C13.4255 34.8416 13.4412 34.7077 13.4725 34.5957C13.5045 34.483 13.5558 34.3967 13.6265 34.3367C13.6972 34.2761 13.7905 34.2457 13.9064 34.2457C14.0164 34.2457 14.1071 34.2757 14.1784 34.3357C14.2497 34.3951 14.3027 34.481 14.3374 34.5937C14.372 34.7057 14.3894 34.8403 14.3894 34.9976ZM13.5925 34.9976C13.5925 35.1336 13.6028 35.2469 13.6235 35.3375C13.6442 35.4282 13.6775 35.4962 13.7235 35.5415C13.7701 35.5862 13.8311 35.6085 13.9064 35.6085C13.9818 35.6085 14.0424 35.5862 14.0884 35.5415C14.1351 35.4968 14.1687 35.4292 14.1894 35.3385C14.2107 35.2479 14.2214 35.1342 14.2214 34.9976C14.2214 34.8636 14.2111 34.7517 14.1904 34.6617C14.1697 34.571 14.1364 34.503 14.0904 34.4577C14.0444 34.4117 13.9831 34.3887 13.9064 34.3887C13.8298 34.3887 13.7685 34.4117 13.7225 34.4577C13.6765 34.503 13.6432 34.571 13.6225 34.6617C13.6025 34.7517 13.5925 34.8636 13.5925 34.9976ZM15.5611 34.9976C15.5611 35.1163 15.5521 35.2222 15.5341 35.3155C15.5161 35.4089 15.4878 35.4878 15.4492 35.5525C15.4105 35.6172 15.3605 35.6665 15.2992 35.7005C15.2379 35.7338 15.1642 35.7505 15.0782 35.7505C14.9696 35.7505 14.8796 35.7208 14.8083 35.6615C14.7376 35.6022 14.6846 35.5165 14.6493 35.4045C14.6146 35.2919 14.5973 35.1562 14.5973 34.9976C14.5973 34.8416 14.613 34.7077 14.6443 34.5957C14.6763 34.483 14.7276 34.3967 14.7983 34.3367C14.8689 34.2761 14.9622 34.2457 15.0782 34.2457C15.1882 34.2457 15.2789 34.2757 15.3502 34.3357C15.4215 34.3951 15.4745 34.481 15.5091 34.5937C15.5438 34.7057 15.5611 34.8403 15.5611 34.9976ZM14.7643 34.9976C14.7643 35.1336 14.7746 35.2469 14.7953 35.3375C14.8159 35.4282 14.8493 35.4962 14.8953 35.5415C14.9419 35.5862 15.0029 35.6085 15.0782 35.6085C15.1535 35.6085 15.2142 35.5862 15.2602 35.5415C15.3068 35.4968 15.3405 35.4292 15.3612 35.3385C15.3825 35.2479 15.3932 35.1342 15.3932 34.9976C15.3932 34.8636 15.3828 34.7517 15.3622 34.6617C15.3415 34.571 15.3082 34.503 15.2622 34.4577C15.2162 34.4117 15.1549 34.3887 15.0782 34.3887C15.0016 34.3887 14.9402 34.4117 14.8943 34.4577C14.8483 34.503 14.8149 34.571 14.7943 34.6617C14.7743 34.7517 14.7643 34.8636 14.7643 34.9976ZM16.7329 34.9976C16.7329 35.1163 16.7239 35.2222 16.7059 35.3155C16.6879 35.4089 16.6596 35.4878 16.6209 35.5525C16.5823 35.6172 16.5323 35.6665 16.471 35.7005C16.4096 35.7338 16.336 35.7505 16.25 35.7505C16.1414 35.7505 16.0514 35.7208 15.9801 35.6615C15.9094 35.6022 15.8564 35.5165 15.8211 35.4045C15.7864 35.2919 15.7691 35.1562 15.7691 34.9976C15.7691 34.8416 15.7848 34.7077 15.8161 34.5957C15.8481 34.483 15.8994 34.3967 15.9701 34.3367C16.0407 34.2761 16.134 34.2457 16.25 34.2457C16.36 34.2457 16.4506 34.2757 16.522 34.3357C16.5933 34.3951 16.6463 34.481 16.6809 34.5937C16.7156 34.7057 16.7329 34.8403 16.7329 34.9976ZM15.9361 34.9976C15.9361 35.1336 15.9464 35.2469 15.9671 35.3375C15.9877 35.4282 16.021 35.4962 16.067 35.5415C16.1137 35.5862 16.1747 35.6085 16.25 35.6085C16.3253 35.6085 16.386 35.5862 16.432 35.5415C16.4786 35.4968 16.5123 35.4292 16.5329 35.3385C16.5543 35.2479 16.5649 35.1342 16.5649 34.9976C16.5649 34.8636 16.5546 34.7517 16.5339 34.6617C16.5133 34.571 16.48 34.503 16.434 34.4577C16.388 34.4117 16.3267 34.3887 16.25 34.3887C16.1733 34.3887 16.112 34.4117 16.066 34.4577C16.02 34.503 15.9867 34.571 15.9661 34.6617C15.9461 34.7517 15.9361 34.8636 15.9361 34.9976Z" fill="#212121"/>
<path d="M12.8696 42.3984H12.7077V41.3626C12.7077 41.3233 12.7077 41.2896 12.7077 41.2617C12.7083 41.233 12.709 41.207 12.7097 41.1837C12.711 41.1597 12.7127 41.1353 12.7147 41.1107C12.694 41.132 12.6747 41.1503 12.6567 41.1657C12.6387 41.1803 12.6164 41.1987 12.5897 41.2207L12.4227 41.3546L12.3357 41.2417L12.7317 40.9367H12.8696V42.3984ZM13.8854 41.5046C13.9848 41.5046 14.0711 41.5216 14.1444 41.5556C14.2177 41.5889 14.2744 41.6376 14.3144 41.7016C14.355 41.7656 14.3754 41.8432 14.3754 41.9345C14.3754 42.0345 14.3537 42.1208 14.3104 42.1935C14.267 42.2655 14.2047 42.3211 14.1234 42.3604C14.0421 42.3991 13.9448 42.4184 13.8315 42.4184C13.7555 42.4184 13.6848 42.4118 13.6195 42.3984C13.5542 42.3851 13.4992 42.3651 13.4545 42.3384V42.1805C13.5032 42.2098 13.5622 42.2331 13.6315 42.2505C13.7008 42.2678 13.7681 42.2765 13.8335 42.2765C13.9074 42.2765 13.9721 42.2648 14.0274 42.2415C14.0834 42.2175 14.1267 42.1815 14.1574 42.1335C14.1887 42.0848 14.2044 42.0238 14.2044 41.9505C14.2044 41.8532 14.1744 41.7782 14.1144 41.7256C14.0551 41.6722 13.9611 41.6456 13.8325 41.6456C13.7911 41.6456 13.7458 41.6489 13.6965 41.6556C13.6472 41.6622 13.6065 41.6696 13.5745 41.6776L13.4905 41.6226L13.5465 40.9367H14.2734V41.0887H13.6885L13.6515 41.5296C13.6768 41.5243 13.7095 41.5189 13.7495 41.5136C13.7895 41.5076 13.8348 41.5046 13.8854 41.5046ZM15.5611 41.6656C15.5611 41.7842 15.5521 41.8902 15.5341 41.9835C15.5161 42.0768 15.4878 42.1558 15.4492 42.2205C15.4105 42.2851 15.3605 42.3344 15.2992 42.3684C15.2379 42.4018 15.1642 42.4184 15.0782 42.4184C14.9696 42.4184 14.8796 42.3888 14.8083 42.3295C14.7376 42.2701 14.6846 42.1845 14.6493 42.0725C14.6146 41.9599 14.5973 41.8242 14.5973 41.6656C14.5973 41.5096 14.613 41.3756 14.6443 41.2637C14.6763 41.151 14.7276 41.0647 14.7983 41.0047C14.8689 40.944 14.9622 40.9137 15.0782 40.9137C15.1882 40.9137 15.2789 40.9437 15.3502 41.0037C15.4215 41.063 15.4745 41.149 15.5091 41.2617C15.5438 41.3736 15.5611 41.5083 15.5611 41.6656ZM14.7643 41.6656C14.7643 41.8016 14.7746 41.9149 14.7953 42.0055C14.8159 42.0962 14.8493 42.1641 14.8953 42.2095C14.9419 42.2541 15.0029 42.2765 15.0782 42.2765C15.1535 42.2765 15.2142 42.2541 15.2602 42.2095C15.3068 42.1648 15.3405 42.0972 15.3612 42.0065C15.3825 41.9159 15.3932 41.8022 15.3932 41.6656C15.3932 41.5316 15.3828 41.4196 15.3622 41.3296C15.3415 41.239 15.3082 41.171 15.2622 41.1257C15.2162 41.0797 15.1549 41.0567 15.0782 41.0567C15.0016 41.0567 14.9402 41.0797 14.8943 41.1257C14.8483 41.171 14.8149 41.239 14.7943 41.3296C14.7743 41.4196 14.7643 41.5316 14.7643 41.6656ZM16.7329 41.6656C16.7329 41.7842 16.7239 41.8902 16.7059 41.9835C16.6879 42.0768 16.6596 42.1558 16.6209 42.2205C16.5823 42.2851 16.5323 42.3344 16.471 42.3684C16.4096 42.4018 16.336 42.4184 16.25 42.4184C16.1414 42.4184 16.0514 42.3888 15.9801 42.3295C15.9094 42.2701 15.8564 42.1845 15.8211 42.0725C15.7864 41.9599 15.7691 41.8242 15.7691 41.6656C15.7691 41.5096 15.7848 41.3756 15.8161 41.2637C15.8481 41.151 15.8994 41.0647 15.9701 41.0047C16.0407 40.944 16.134 40.9137 16.25 40.9137C16.36 40.9137 16.4506 40.9437 16.522 41.0037C16.5933 41.063 16.6463 41.149 16.6809 41.2617C16.7156 41.3736 16.7329 41.5083 16.7329 41.6656ZM15.9361 41.6656C15.9361 41.8016 15.9464 41.9149 15.9671 42.0055C15.9877 42.0962 16.021 42.1641 16.067 42.2095C16.1137 42.2541 16.1747 42.2765 16.25 42.2765C16.3253 42.2765 16.386 42.2541 16.432 42.2095C16.4786 42.1648 16.5123 42.0972 16.5329 42.0065C16.5543 41.9159 16.5649 41.8022 16.5649 41.6656C16.5649 41.5316 16.5546 41.4196 16.5339 41.3296C16.5133 41.239 16.48 41.171 16.434 41.1257C16.388 41.0797 16.3267 41.0567 16.25 41.0567C16.1733 41.0567 16.112 41.0797 16.066 41.1257C16.02 41.171 15.9867 41.239 15.9661 41.3296C15.9461 41.4196 15.9361 41.5316 15.9361 41.6656Z" fill="#212121"/>
<path d="M12.8696 49.293H12.7077V48.2572C12.7077 48.2178 12.7077 48.1842 12.7077 48.1562C12.7083 48.1275 12.709 48.1015 12.7097 48.0782C12.711 48.0542 12.7127 48.0299 12.7147 48.0052C12.694 48.0265 12.6747 48.0449 12.6567 48.0602C12.6387 48.0749 12.6164 48.0932 12.5897 48.1152L12.4227 48.2492L12.3357 48.1362L12.7317 47.8312H12.8696V49.293ZM14.3894 48.5601C14.3894 48.6788 14.3804 48.7847 14.3624 48.878C14.3444 48.9714 14.316 49.0503 14.2774 49.115C14.2387 49.1797 14.1887 49.229 14.1274 49.263C14.0661 49.2963 13.9924 49.313 13.9064 49.313C13.7978 49.313 13.7078 49.2833 13.6365 49.224C13.5658 49.1647 13.5129 49.079 13.4775 48.967C13.4429 48.8544 13.4255 48.7187 13.4255 48.5601C13.4255 48.4041 13.4412 48.2702 13.4725 48.1582C13.5045 48.0455 13.5558 47.9592 13.6265 47.8992C13.6972 47.8386 13.7905 47.8082 13.9064 47.8082C14.0164 47.8082 14.1071 47.8382 14.1784 47.8982C14.2497 47.9576 14.3027 48.0435 14.3374 48.1562C14.372 48.2682 14.3894 48.4028 14.3894 48.5601ZM13.5925 48.5601C13.5925 48.6961 13.6028 48.8094 13.6235 48.9C13.6442 48.9907 13.6775 49.0587 13.7235 49.104C13.7701 49.1487 13.8311 49.171 13.9064 49.171C13.9818 49.171 14.0424 49.1487 14.0884 49.104C14.1351 49.0593 14.1687 48.9917 14.1894 48.901C14.2107 48.8104 14.2214 48.6967 14.2214 48.5601C14.2214 48.4261 14.2111 48.3142 14.1904 48.2242C14.1697 48.1335 14.1364 48.0655 14.0904 48.0202C14.0444 47.9742 13.9831 47.9512 13.9064 47.9512C13.8298 47.9512 13.7685 47.9742 13.7225 48.0202C13.6765 48.0655 13.6432 48.1335 13.6225 48.2242C13.6025 48.3142 13.5925 48.4261 13.5925 48.5601ZM15.5611 48.5601C15.5611 48.6788 15.5521 48.7847 15.5341 48.878C15.5161 48.9714 15.4878 49.0503 15.4492 49.115C15.4105 49.1797 15.3605 49.229 15.2992 49.263C15.2379 49.2963 15.1642 49.313 15.0782 49.313C14.9696 49.313 14.8796 49.2833 14.8083 49.224C14.7376 49.1647 14.6846 49.079 14.6493 48.967C14.6146 48.8544 14.5973 48.7187 14.5973 48.5601C14.5973 48.4041 14.613 48.2702 14.6443 48.1582C14.6763 48.0455 14.7276 47.9592 14.7983 47.8992C14.8689 47.8386 14.9622 47.8082 15.0782 47.8082C15.1882 47.8082 15.2789 47.8382 15.3502 47.8982C15.4215 47.9576 15.4745 48.0435 15.5091 48.1562C15.5438 48.2682 15.5611 48.4028 15.5611 48.5601ZM14.7643 48.5601C14.7643 48.6961 14.7746 48.8094 14.7953 48.9C14.8159 48.9907 14.8493 49.0587 14.8953 49.104C14.9419 49.1487 15.0029 49.171 15.0782 49.171C15.1535 49.171 15.2142 49.1487 15.2602 49.104C15.3068 49.0593 15.3405 48.9917 15.3612 48.901C15.3825 48.8104 15.3932 48.6967 15.3932 48.5601C15.3932 48.4261 15.3828 48.3142 15.3622 48.2242C15.3415 48.1335 15.3082 48.0655 15.2622 48.0202C15.2162 47.9742 15.1549 47.9512 15.0782 47.9512C15.0016 47.9512 14.9402 47.9742 14.8943 48.0202C14.8483 48.0655 14.8149 48.1335 14.7943 48.2242C14.7743 48.3142 14.7643 48.4261 14.7643 48.5601ZM16.7329 48.5601C16.7329 48.6788 16.7239 48.7847 16.7059 48.878C16.6879 48.9714 16.6596 49.0503 16.6209 49.115C16.5823 49.1797 16.5323 49.229 16.471 49.263C16.4096 49.2963 16.336 49.313 16.25 49.313C16.1414 49.313 16.0514 49.2833 15.9801 49.224C15.9094 49.1647 15.8564 49.079 15.8211 48.967C15.7864 48.8544 15.7691 48.7187 15.7691 48.5601C15.7691 48.4041 15.7848 48.2702 15.8161 48.1582C15.8481 48.0455 15.8994 47.9592 15.9701 47.8992C16.0407 47.8386 16.134 47.8082 16.25 47.8082C16.36 47.8082 16.4506 47.8382 16.522 47.8982C16.5933 47.9576 16.6463 48.0435 16.6809 48.1562C16.7156 48.2682 16.7329 48.4028 16.7329 48.5601ZM15.9361 48.5601C15.9361 48.6961 15.9464 48.8094 15.9671 48.9C15.9877 48.9907 16.021 49.0587 16.067 49.104C16.1137 49.1487 16.1747 49.171 16.25 49.171C16.3253 49.171 16.386 49.1487 16.432 49.104C16.4786 49.0593 16.5123 48.9917 16.5329 48.901C16.5543 48.8104 16.5649 48.6967 16.5649 48.5601C16.5649 48.4261 16.5546 48.3142 16.5339 48.2242C16.5133 48.1335 16.48 48.0655 16.434 48.0202C16.388 47.9742 16.3267 47.9512 16.25 47.9512C16.1733 47.9512 16.112 47.9742 16.066 48.0202C16.02 48.0655 15.9867 48.1335 15.9661 48.2242C15.9461 48.3142 15.9361 48.4261 15.9361 48.5601Z" fill="#212121"/>
<path d="M13.6895 55.5222C13.7888 55.5222 13.8751 55.5392 13.9484 55.5732C14.0217 55.6065 14.0784 55.6552 14.1184 55.7191C14.1591 55.7831 14.1794 55.8608 14.1794 55.9521C14.1794 56.0521 14.1577 56.1384 14.1144 56.2111C14.0711 56.283 14.0087 56.3387 13.9274 56.378C13.8461 56.4167 13.7488 56.436 13.6355 56.436C13.5595 56.436 13.4888 56.4293 13.4235 56.416C13.3582 56.4027 13.3032 56.3827 13.2586 56.356V56.1981C13.3072 56.2274 13.3662 56.2507 13.4355 56.268C13.5048 56.2854 13.5722 56.294 13.6375 56.294C13.7115 56.294 13.7761 56.2824 13.8314 56.259C13.8874 56.235 13.9308 56.1991 13.9614 56.1511C13.9928 56.1024 14.0084 56.0414 14.0084 55.9681C14.0084 55.8708 13.9784 55.7958 13.9184 55.7431C13.8591 55.6898 13.7651 55.6632 13.6365 55.6632C13.5952 55.6632 13.5498 55.6665 13.5005 55.6732C13.4512 55.6798 13.4105 55.6872 13.3785 55.6952L13.2945 55.6402L13.3505 54.9543H14.0774V55.1063H13.4925L13.4555 55.5472C13.4808 55.5418 13.5135 55.5365 13.5535 55.5312C13.5935 55.5252 13.6388 55.5222 13.6895 55.5222ZM15.3652 55.6832C15.3652 55.8018 15.3562 55.9078 15.3382 56.0011C15.3202 56.0944 15.2918 56.1734 15.2532 56.238C15.2145 56.3027 15.1645 56.352 15.1032 56.386C15.0419 56.4193 14.9682 56.436 14.8822 56.436C14.7736 56.436 14.6836 56.4064 14.6123 56.347C14.5416 56.2877 14.4887 56.2021 14.4533 56.0901C14.4187 55.9774 14.4013 55.8418 14.4013 55.6832C14.4013 55.5272 14.417 55.3932 14.4483 55.2812C14.4803 55.1686 14.5316 55.0823 14.6023 55.0223C14.673 54.9616 14.7663 54.9313 14.8822 54.9313C14.9922 54.9313 15.0829 54.9613 15.1542 55.0213C15.2255 55.0806 15.2785 55.1666 15.3132 55.2792C15.3478 55.3912 15.3652 55.5259 15.3652 55.6832ZM14.5683 55.6832C14.5683 55.8191 14.5786 55.9324 14.5993 56.0231C14.62 56.1137 14.6533 56.1817 14.6993 56.2271C14.7459 56.2717 14.8069 56.294 14.8822 56.294C14.9576 56.294 15.0182 56.2717 15.0642 56.2271C15.1109 56.1824 15.1445 56.1147 15.1652 56.0241C15.1865 55.9334 15.1972 55.8198 15.1972 55.6832C15.1972 55.5492 15.1869 55.4372 15.1662 55.3472C15.1455 55.2566 15.1122 55.1886 15.0662 55.1433C15.0202 55.0973 14.9589 55.0743 14.8822 55.0743C14.8056 55.0743 14.7443 55.0973 14.6983 55.1433C14.6523 55.1886 14.619 55.2566 14.5983 55.3472C14.5783 55.4372 14.5683 55.5492 14.5683 55.6832ZM16.5369 55.6832C16.5369 55.8018 16.5279 55.9078 16.5099 56.0011C16.4919 56.0944 16.4636 56.1734 16.425 56.238C16.3863 56.3027 16.3363 56.352 16.275 56.386C16.2137 56.4193 16.14 56.436 16.054 56.436C15.9454 56.436 15.8554 56.4064 15.7841 56.347C15.7134 56.2877 15.6604 56.2021 15.6251 56.0901C15.5904 55.9774 15.5731 55.8418 15.5731 55.6832C15.5731 55.5272 15.5888 55.3932 15.6201 55.2812C15.6521 55.1686 15.7034 55.0823 15.7741 55.0223C15.8447 54.9616 15.938 54.9313 16.054 54.9313C16.164 54.9313 16.2547 54.9613 16.326 55.0213C16.3973 55.0806 16.4503 55.1666 16.4849 55.2792C16.5196 55.3912 16.5369 55.5259 16.5369 55.6832ZM15.7401 55.6832C15.7401 55.8191 15.7504 55.9324 15.7711 56.0231C15.7917 56.1137 15.8251 56.1817 15.8711 56.2271C15.9177 56.2717 15.9787 56.294 16.054 56.294C16.1293 56.294 16.19 56.2717 16.236 56.2271C16.2827 56.1824 16.3163 56.1147 16.337 56.0241C16.3583 55.9334 16.369 55.8198 16.369 55.6832C16.369 55.5492 16.3586 55.4372 16.338 55.3472C16.3173 55.2566 16.284 55.1886 16.238 55.1433C16.192 55.0973 16.1307 55.0743 16.054 55.0743C15.9774 55.0743 15.9161 55.0973 15.8701 55.1433C15.8241 55.1886 15.7907 55.2566 15.7701 55.3472C15.7501 55.4372 15.7401 55.5492 15.7401 55.6832Z" fill="#212121"/>
<path d="M13.8454 63.3105H13.6835V62.2747C13.6835 62.2354 13.6835 62.2018 13.6835 62.1738C13.6841 62.1451 13.6848 62.1191 13.6855 62.0958C13.6868 62.0718 13.6885 62.0475 13.6905 62.0228C13.6698 62.0441 13.6505 62.0624 13.6325 62.0778C13.6145 62.0924 13.5922 62.1108 13.5655 62.1328L13.3985 62.2667L13.3115 62.1538L13.7075 61.8488H13.8454V63.3105ZM15.3652 62.5777C15.3652 62.6963 15.3562 62.8023 15.3382 62.8956C15.3202 62.9889 15.2918 63.0679 15.2532 63.1326C15.2145 63.1972 15.1645 63.2466 15.1032 63.2806C15.0419 63.3139 14.9682 63.3305 14.8822 63.3305C14.7736 63.3305 14.6836 63.3009 14.6123 63.2416C14.5416 63.1822 14.4887 63.0966 14.4533 62.9846C14.4187 62.872 14.4013 62.7363 14.4013 62.5777C14.4013 62.4217 14.417 62.2877 14.4483 62.1758C14.4803 62.0631 14.5316 61.9768 14.6023 61.9168C14.673 61.8562 14.7663 61.8258 14.8822 61.8258C14.9922 61.8258 15.0829 61.8558 15.1542 61.9158C15.2255 61.9751 15.2785 62.0611 15.3132 62.1738C15.3478 62.2857 15.3652 62.4204 15.3652 62.5777ZM14.5683 62.5777C14.5683 62.7137 14.5786 62.827 14.5993 62.9176C14.62 63.0083 14.6533 63.0763 14.6993 63.1216C14.7459 63.1662 14.8069 63.1886 14.8822 63.1886C14.9576 63.1886 15.0182 63.1662 15.0642 63.1216C15.1109 63.0769 15.1445 63.0093 15.1652 62.9186C15.1865 62.828 15.1972 62.7143 15.1972 62.5777C15.1972 62.4437 15.1869 62.3317 15.1662 62.2417C15.1455 62.1511 15.1122 62.0831 15.0662 62.0378C15.0202 61.9918 14.9589 61.9688 14.8822 61.9688C14.8056 61.9688 14.7443 61.9918 14.6983 62.0378C14.6523 62.0831 14.619 62.1511 14.5983 62.2417C14.5783 62.3317 14.5683 62.4437 14.5683 62.5777ZM16.5369 62.5777C16.5369 62.6963 16.5279 62.8023 16.5099 62.8956C16.4919 62.9889 16.4636 63.0679 16.425 63.1326C16.3863 63.1972 16.3363 63.2466 16.275 63.2806C16.2137 63.3139 16.14 63.3305 16.054 63.3305C15.9454 63.3305 15.8554 63.3009 15.7841 63.2416C15.7134 63.1822 15.6604 63.0966 15.6251 62.9846C15.5904 62.872 15.5731 62.7363 15.5731 62.5777C15.5731 62.4217 15.5888 62.2877 15.6201 62.1758C15.6521 62.0631 15.7034 61.9768 15.7741 61.9168C15.8447 61.8562 15.938 61.8258 16.054 61.8258C16.164 61.8258 16.2547 61.8558 16.326 61.9158C16.3973 61.9751 16.4503 62.0611 16.4849 62.1738C16.5196 62.2857 16.5369 62.4204 16.5369 62.5777ZM15.7401 62.5777C15.7401 62.7137 15.7504 62.827 15.7711 62.9176C15.7917 63.0083 15.8251 63.0763 15.8711 63.1216C15.9177 63.1662 15.9787 63.1886 16.054 63.1886C16.1293 63.1886 16.19 63.1662 16.236 63.1216C16.2827 63.0769 16.3163 63.0093 16.337 62.9186C16.3583 62.828 16.369 62.7143 16.369 62.5777C16.369 62.4437 16.3586 62.3317 16.338 62.2417C16.3173 62.1511 16.284 62.0831 16.238 62.0378C16.192 61.9918 16.1307 61.9688 16.054 61.9688C15.9774 61.9688 15.9161 61.9918 15.8701 62.0378C15.8241 62.0831 15.7907 62.1511 15.7701 62.2417C15.7501 62.3317 15.7401 62.4437 15.7401 62.5777Z" fill="#212121"/>
<path d="M16.5369 69.9292C16.5369 70.0479 16.5279 70.1539 16.5099 70.2472C16.4919 70.3405 16.4636 70.4195 16.425 70.4841C16.3863 70.5488 16.3363 70.5981 16.275 70.6321C16.2137 70.6654 16.14 70.6821 16.054 70.6821C15.9454 70.6821 15.8554 70.6524 15.7841 70.5931C15.7134 70.5338 15.6604 70.4481 15.6251 70.3362C15.5904 70.2235 15.5731 70.0879 15.5731 69.9292C15.5731 69.7733 15.5888 69.6393 15.6201 69.5273C15.6521 69.4147 15.7034 69.3284 15.7741 69.2684C15.8447 69.2077 15.938 69.1774 16.054 69.1774C16.164 69.1774 16.2547 69.2074 16.326 69.2674C16.3973 69.3267 16.4503 69.4127 16.4849 69.5253C16.5196 69.6373 16.5369 69.7719 16.5369 69.9292ZM15.7401 69.9292C15.7401 70.0652 15.7504 70.1785 15.7711 70.2692C15.7917 70.3598 15.8251 70.4278 15.8711 70.4731C15.9177 70.5178 15.9787 70.5401 16.054 70.5401C16.1293 70.5401 16.19 70.5178 16.236 70.4731C16.2827 70.4285 16.3163 70.3608 16.337 70.2702C16.3583 70.1795 16.369 70.0659 16.369 69.9292C16.369 69.7953 16.3586 69.6833 16.338 69.5933C16.3173 69.5027 16.284 69.4347 16.238 69.3894C16.192 69.3434 16.1307 69.3204 16.054 69.3204C15.9774 69.3204 15.9161 69.3434 15.8701 69.3894C15.8241 69.4347 15.7907 69.5027 15.7701 69.5933C15.7501 69.6833 15.7401 69.7953 15.7401 69.9292Z" fill="#212121"/>
</svg>
