<svg width="92" height="92" viewBox="0 0 92 92" fill="none" xmlns="http://www.w3.org/2000/svg">
<rect x="0.389831" y="0.389831" width="91.079" height="91.2203" rx="17.5424" stroke="#BEBEBE" stroke-width="0.779661"/>
<rect width="70" height="58.1046" transform="translate(11 15.9473)" fill="white"/>
<path d="M18.7871 20.3906V69.0021" stroke="#E0E0E0" stroke-width="0.251873"/>
<path d="M27.6911 71.5059H27.5464V70.5801C27.5464 70.545 27.5464 70.5149 27.5464 70.4899C27.5469 70.4642 27.5475 70.441 27.5481 70.4202C27.5493 70.3987 27.5508 70.377 27.5526 70.3549C27.5341 70.374 27.5169 70.3904 27.5008 70.4041C27.4847 70.4172 27.4647 70.4336 27.4409 70.4532L27.2917 70.573L27.2139 70.472L27.5678 70.1994H27.6911V71.5059Z" fill="#212121"/>
<path d="M19.6896 70.8509C19.6896 70.9569 19.6815 71.0516 19.6655 71.135C19.6494 71.2184 19.6241 71.289 19.5895 71.3468C19.5549 71.4046 19.5103 71.4487 19.4555 71.4791C19.4007 71.5088 19.3348 71.5237 19.258 71.5237C19.1609 71.5237 19.0805 71.4972 19.0167 71.4442C18.9536 71.3912 18.9062 71.3146 18.8746 71.2146C18.8437 71.1139 18.8282 70.9926 18.8282 70.8509C18.8282 70.7115 18.8422 70.5917 18.8702 70.4916C18.8988 70.391 18.9446 70.3138 19.0078 70.2602C19.0709 70.206 19.1543 70.1789 19.258 70.1789C19.3563 70.1789 19.4373 70.2057 19.501 70.2593C19.5648 70.3123 19.6121 70.3892 19.6431 70.4899C19.6741 70.5899 19.6896 70.7103 19.6896 70.8509ZM18.9774 70.8509C18.9774 70.9724 18.9866 71.0737 19.0051 71.1547C19.0236 71.2357 19.0533 71.2965 19.0945 71.337C19.1362 71.3769 19.1907 71.3968 19.258 71.3968C19.3253 71.3968 19.3795 71.3769 19.4206 71.337C19.4623 71.2971 19.4924 71.2366 19.5109 71.1556C19.5299 71.0746 19.5395 70.973 19.5395 70.8509C19.5395 70.7311 19.5302 70.631 19.5118 70.5506C19.4933 70.4696 19.4635 70.4088 19.4224 70.3683C19.3813 70.3272 19.3265 70.3067 19.258 70.3067C19.1895 70.3067 19.1347 70.3272 19.0936 70.3683C19.0525 70.4088 19.0227 70.4696 19.0042 70.5506C18.9863 70.631 18.9774 70.7311 18.9774 70.8509Z" fill="#212121"/>
<path d="M36.3074 71.5059H35.4514V71.3817L35.8008 71.0269C35.8657 70.9614 35.9202 70.903 35.9643 70.8518C36.009 70.8005 36.0429 70.7502 36.0662 70.7007C36.0894 70.6507 36.101 70.5959 36.101 70.5363C36.101 70.4624 36.079 70.4062 36.0349 70.3674C35.9914 70.3281 35.9339 70.3085 35.8624 70.3085C35.7999 70.3085 35.7445 70.3192 35.6962 70.3406C35.648 70.3621 35.5985 70.3925 35.5479 70.4318L35.4684 70.3317C35.5029 70.3025 35.5404 70.2766 35.5809 70.2539C35.6221 70.2313 35.6658 70.2134 35.7123 70.2003C35.7594 70.1872 35.8094 70.1807 35.8624 70.1807C35.9428 70.1807 36.0123 70.1947 36.0706 70.2227C36.129 70.2507 36.174 70.2906 36.2056 70.3424C36.2377 70.3942 36.2538 70.4559 36.2538 70.5274C36.2538 70.5965 36.2401 70.6608 36.2127 70.7204C36.1853 70.7794 36.1469 70.8381 36.0974 70.8964C36.048 70.9542 35.9902 71.0156 35.9241 71.0805L35.6399 71.3638V71.37H36.3074V71.5059Z" fill="#212121"/>
<path d="M44.8217 70.5041C44.8217 70.5625 44.8104 70.6132 44.7877 70.6561C44.7651 70.699 44.7335 70.7341 44.693 70.7615C44.6525 70.7883 44.6048 70.8071 44.55 70.8178V70.8249C44.6537 70.8381 44.7314 70.8714 44.7833 70.925C44.8357 70.9786 44.8619 71.0489 44.8619 71.1359C44.8619 71.2116 44.844 71.2786 44.8083 71.337C44.7731 71.3954 44.7189 71.4412 44.6456 71.4746C44.573 71.5073 44.4797 71.5237 44.3659 71.5237C44.2968 71.5237 44.2328 71.5181 44.1738 71.5068C44.1154 71.496 44.0594 71.4779 44.0058 71.4522V71.3128C44.06 71.3397 44.119 71.3608 44.1828 71.3763C44.2465 71.3912 44.3082 71.3986 44.3677 71.3986C44.4869 71.3986 44.573 71.3751 44.626 71.328C44.679 71.2804 44.7055 71.2154 44.7055 71.1332C44.7055 71.0766 44.6906 71.0311 44.6608 70.9965C44.6316 70.9614 44.5893 70.9358 44.5339 70.9197C44.4791 70.903 44.413 70.8946 44.3356 70.8946H44.2051V70.7678H44.3365C44.4074 70.7678 44.4675 70.7573 44.517 70.7365C44.5664 70.7156 44.6039 70.6864 44.6296 70.6489C44.6558 70.6108 44.6689 70.5658 44.6689 70.514C44.6689 70.4479 44.6468 70.3969 44.6027 70.3612C44.5587 70.3248 44.4988 70.3067 44.4231 70.3067C44.3767 70.3067 44.3344 70.3114 44.2962 70.321C44.2581 70.3305 44.2224 70.3436 44.189 70.3603C44.1557 70.377 44.1223 70.3963 44.0889 70.4184L44.0139 70.3165C44.0615 70.2796 44.1196 70.2477 44.1881 70.2209C44.2566 70.1941 44.3344 70.1807 44.4214 70.1807C44.5548 70.1807 44.6549 70.2111 44.7216 70.2718C44.7883 70.3326 44.8217 70.41 44.8217 70.5041Z" fill="#212121"/>
<path d="M53.2477 71.2029H53.052V71.5059H52.9072V71.2029H52.2754V71.0778L52.8974 70.1923H53.052V71.0689H53.2477V71.2029ZM52.9072 71.0689V70.6418C52.9072 70.609 52.9075 70.5795 52.9081 70.5533C52.9087 70.5265 52.9096 70.5018 52.9108 70.4791C52.912 70.4559 52.9129 70.4339 52.9135 70.413C52.9147 70.3922 52.9155 70.3716 52.9161 70.3513H52.909C52.8977 70.3752 52.8846 70.4005 52.8697 70.4273C52.8554 70.4535 52.8408 70.477 52.8259 70.4979L52.4229 71.0689H52.9072Z" fill="#212121"/>
<path d="M61.0517 70.707C61.1405 70.707 61.2176 70.7222 61.2832 70.7526C61.3487 70.7824 61.3993 70.8258 61.4351 70.883C61.4714 70.9402 61.4896 71.0096 61.4896 71.0912C61.4896 71.1806 61.4702 71.2577 61.4315 71.3227C61.3928 71.387 61.3371 71.4368 61.2644 71.4719C61.1917 71.5065 61.1047 71.5237 61.0035 71.5237C60.9355 71.5237 60.8724 71.5178 60.814 71.5059C60.7556 71.4939 60.7065 71.4761 60.6666 71.4522V71.3111C60.7101 71.3373 60.7628 71.3581 60.8247 71.3736C60.8867 71.3891 60.9469 71.3968 61.0052 71.3968C61.0714 71.3968 61.1292 71.3864 61.1786 71.3656C61.2286 71.3441 61.2674 71.312 61.2948 71.2691C61.3228 71.2256 61.3368 71.1711 61.3368 71.1055C61.3368 71.0186 61.31 70.9515 61.2563 70.9045C61.2033 70.8568 61.1193 70.833 61.0044 70.833C60.9674 70.833 60.9269 70.836 60.8828 70.8419C60.8387 70.8479 60.8024 70.8544 60.7738 70.8616L60.6987 70.8124L60.7488 70.1994H61.3984V70.3353H60.8757L60.8426 70.7293C60.8653 70.7246 60.8944 70.7198 60.9302 70.715C60.9659 70.7097 61.0064 70.707 61.0517 70.707Z" fill="#212121"/>
<path d="M68.9628 70.9474C68.9628 70.8687 68.9682 70.7919 68.9789 70.7168C68.9902 70.6418 69.009 70.5721 69.0352 70.5077C69.0614 70.4428 69.0972 70.3859 69.1424 70.337C69.1877 70.2882 69.244 70.2501 69.3113 70.2227C69.3792 70.1947 69.4606 70.1807 69.5553 70.1807C69.5821 70.1807 69.611 70.1822 69.642 70.1851C69.6729 70.1875 69.6985 70.1917 69.7188 70.1976V70.3254C69.6968 70.3177 69.6714 70.312 69.6428 70.3085C69.6148 70.3049 69.5866 70.3031 69.558 70.3031C69.4472 70.3031 69.3599 70.3272 69.2961 70.3755C69.233 70.4237 69.1874 70.4893 69.1594 70.5721C69.1314 70.6543 69.1153 70.7469 69.1112 70.85H69.121C69.1395 70.8202 69.163 70.7934 69.1916 70.7695C69.2202 70.7451 69.2547 70.7258 69.2952 70.7115C69.3363 70.6972 69.384 70.69 69.4382 70.69C69.5145 70.69 69.5809 70.7055 69.6375 70.7365C69.6947 70.7675 69.7388 70.8124 69.7697 70.8714C69.8013 70.9304 69.8171 71.0019 69.8171 71.0859C69.8171 71.1758 69.8004 71.2536 69.7671 71.3191C69.7337 71.3846 69.686 71.4353 69.6241 71.471C69.5627 71.5062 69.4894 71.5237 69.4043 71.5237C69.3405 71.5237 69.2818 71.5115 69.2282 71.4871C69.1746 71.4627 69.1278 71.4263 69.0879 71.3781C69.0486 71.3298 69.0179 71.27 68.9959 71.1985C68.9738 71.1264 68.9628 71.0427 68.9628 70.9474ZM69.4025 71.3986C69.4835 71.3986 69.5484 71.3727 69.5973 71.3209C69.6461 71.2691 69.6705 71.1907 69.6705 71.0859C69.6705 71.0001 69.6488 70.9322 69.6053 70.8821C69.5618 70.8321 69.4963 70.8071 69.4087 70.8071C69.3492 70.8071 69.2973 70.8196 69.2532 70.8446C69.2092 70.869 69.1749 70.9 69.1505 70.9375C69.1261 70.9751 69.1138 71.0132 69.1138 71.0519C69.1138 71.0912 69.1195 71.1311 69.1308 71.1717C69.1427 71.2122 69.1606 71.2497 69.1844 71.2842C69.2083 71.3188 69.2383 71.3465 69.2747 71.3674C69.311 71.3882 69.3536 71.3986 69.4025 71.3986Z" fill="#212121"/>
<path d="M77.1789 71.5059L77.715 70.3353H77.0028V70.1994H77.8741V70.3138L77.3415 71.5059H77.1789Z" fill="#212121"/>
<path d="M18.6612 69.0021C18.6612 69.0717 18.7176 69.1281 18.7871 69.1281C18.8567 69.1281 18.913 69.0717 18.913 69.0021H18.6612ZM18.7871 20.3906H18.6612V69.0021H18.7871H18.913V20.3906H18.7871Z" fill="#D4D4D4"/>
<path d="M76.7569 69.0021C76.7569 69.0717 76.8133 69.1281 76.8828 69.1281C76.9524 69.1281 77.0087 69.0717 77.0087 69.0021H76.7569ZM76.8828 20.3906H76.7569V69.0021H76.8828H77.0087V20.3906H76.8828Z" fill="#D4D4D4"/>
<path d="M18.7871 69.0039H76.9698" stroke="#D4D4D4" stroke-width="0.251873"/>
<path d="M18.7773 20.293H76.4244" stroke="#D4D4D4" stroke-width="0.228758" stroke-dasharray="0.46 0.46"/>
<path d="M18.7773 27.1562H76.4244" stroke="#D4D4D4" stroke-width="0.228758" stroke-dasharray="0.46 0.46"/>
<path d="M18.7773 34.0176H76.4244" stroke="#D4D4D4" stroke-width="0.228758" stroke-dasharray="0.46 0.46"/>
<path d="M18.7773 40.8809H76.4244" stroke="#D4D4D4" stroke-width="0.228758" stroke-dasharray="0.46 0.46"/>
<path d="M18.7773 47.7441H76.4244" stroke="#D4D4D4" stroke-width="0.228758" stroke-dasharray="0.46 0.46"/>
<path d="M18.7773 54.6074H76.4244" stroke="#D4D4D4" stroke-width="0.228758" stroke-dasharray="0.46 0.46"/>
<path d="M18.7773 61.4688H76.4244" stroke="#D4D4D4" stroke-width="0.228758" stroke-dasharray="0.46 0.46"/>
<rect width="3.66013" height="45.5229" transform="translate(21.9805 23.2676)" fill="#00C0D1"/>
<rect width="3.66013" height="34.085" transform="translate(30.4453 34.7051)" fill="#00C0D1"/>
<rect width="3.66013" height="34.085" transform="translate(38.9082 34.7051)" fill="#00C0D1"/>
<rect width="3.66013" height="29.7386" transform="translate(64.3008 39.0527)" fill="#00C0D1"/>
<rect width="3.66013" height="45.5229" transform="translate(72.7656 23.2676)" fill="#00C0D1"/>
<rect width="3.66013" height="45.5229" transform="translate(47.373 23.2676)" fill="#00C0D1"/>
<rect width="3.66013" height="36.8301" transform="translate(55.8359 31.9609)" fill="#00C0D1"/>
<path d="M13.2096 28.0137H12.2518V27.8747L12.6427 27.4778C12.7153 27.4045 12.7763 27.3391 12.8257 27.2818C12.8756 27.2245 12.9136 27.1682 12.9396 27.1128C12.9656 27.0569 12.9786 26.9955 12.9786 26.9289C12.9786 26.8462 12.954 26.7832 12.9046 26.7399C12.856 26.6959 12.7917 26.6739 12.7117 26.6739C12.6417 26.6739 12.5797 26.6859 12.5257 26.7099C12.4717 26.7339 12.4164 26.7679 12.3597 26.8119L12.2708 26.6999C12.3094 26.6673 12.3514 26.6383 12.3967 26.6129C12.4427 26.5876 12.4917 26.5676 12.5437 26.5529C12.5964 26.5383 12.6523 26.531 12.7117 26.531C12.8017 26.531 12.8793 26.5466 12.9446 26.5779C13.0099 26.6093 13.0603 26.6539 13.0956 26.7119C13.1316 26.7699 13.1496 26.8389 13.1496 26.9189C13.1496 26.9962 13.1343 27.0682 13.1036 27.1348C13.0729 27.2008 13.0299 27.2665 12.9746 27.3318C12.9193 27.3965 12.8546 27.4651 12.7807 27.5378L12.4627 27.8547V27.8617H13.2096V28.0137ZM13.8854 27.1198C13.9848 27.1198 14.0711 27.1368 14.1444 27.1708C14.2177 27.2042 14.2744 27.2528 14.3144 27.3168C14.355 27.3808 14.3754 27.4584 14.3754 27.5498C14.3754 27.6497 14.3537 27.7361 14.3104 27.8087C14.267 27.8807 14.2047 27.9364 14.1234 27.9757C14.0421 28.0143 13.9448 28.0337 13.8315 28.0337C13.7555 28.0337 13.6848 28.027 13.6195 28.0137C13.5542 28.0003 13.4992 27.9803 13.4545 27.9537V27.7957C13.5032 27.825 13.5622 27.8484 13.6315 27.8657C13.7008 27.883 13.7681 27.8917 13.8335 27.8917C13.9074 27.8917 13.9721 27.88 14.0274 27.8567C14.0834 27.8327 14.1267 27.7967 14.1574 27.7487C14.1887 27.7001 14.2044 27.6391 14.2044 27.5658C14.2044 27.4684 14.1744 27.3935 14.1144 27.3408C14.0551 27.2875 13.9611 27.2608 13.8325 27.2608C13.7911 27.2608 13.7458 27.2641 13.6965 27.2708C13.6472 27.2775 13.6065 27.2848 13.5745 27.2928L13.4905 27.2378L13.5465 26.5519H14.2734V26.7039H13.6885L13.6515 27.1448C13.6768 27.1395 13.7095 27.1342 13.7495 27.1288C13.7895 27.1228 13.8348 27.1198 13.8854 27.1198ZM15.5611 27.2808C15.5611 27.3995 15.5521 27.5054 15.5341 27.5988C15.5161 27.6921 15.4878 27.7711 15.4492 27.8357C15.4105 27.9004 15.3605 27.9497 15.2992 27.9837C15.2379 28.017 15.1642 28.0337 15.0782 28.0337C14.9696 28.0337 14.8796 28.004 14.8083 27.9447C14.7376 27.8854 14.6846 27.7997 14.6493 27.6877C14.6146 27.5751 14.5973 27.4394 14.5973 27.2808C14.5973 27.1248 14.613 26.9909 14.6443 26.8789C14.6763 26.7662 14.7276 26.6799 14.7983 26.6199C14.8689 26.5593 14.9622 26.529 15.0782 26.529C15.1882 26.529 15.2789 26.5589 15.3502 26.6189C15.4215 26.6783 15.4745 26.7642 15.5091 26.8769C15.5438 26.9889 15.5611 27.1235 15.5611 27.2808ZM14.7643 27.2808C14.7643 27.4168 14.7746 27.5301 14.7953 27.6207C14.8159 27.7114 14.8493 27.7794 14.8953 27.8247C14.9419 27.8694 15.0029 27.8917 15.0782 27.8917C15.1535 27.8917 15.2142 27.8694 15.2602 27.8247C15.3068 27.78 15.3405 27.7124 15.3612 27.6217C15.3825 27.5311 15.3932 27.4175 15.3932 27.2808C15.3932 27.1468 15.3828 27.0349 15.3622 26.9449C15.3415 26.8542 15.3082 26.7862 15.2622 26.7409C15.2162 26.6949 15.1549 26.6719 15.0782 26.6719C15.0016 26.6719 14.9402 26.6949 14.8943 26.7409C14.8483 26.7862 14.8149 26.8542 14.7943 26.9449C14.7743 27.0349 14.7643 27.1468 14.7643 27.2808ZM16.7329 27.2808C16.7329 27.3995 16.7239 27.5054 16.7059 27.5988C16.6879 27.6921 16.6596 27.7711 16.6209 27.8357C16.5823 27.9004 16.5323 27.9497 16.471 27.9837C16.4096 28.017 16.336 28.0337 16.25 28.0337C16.1414 28.0337 16.0514 28.004 15.9801 27.9447C15.9094 27.8854 15.8564 27.7997 15.8211 27.6877C15.7864 27.5751 15.7691 27.4394 15.7691 27.2808C15.7691 27.1248 15.7848 26.9909 15.8161 26.8789C15.8481 26.7662 15.8994 26.6799 15.9701 26.6199C16.0407 26.5593 16.134 26.529 16.25 26.529C16.36 26.529 16.4506 26.5589 16.522 26.6189C16.5933 26.6783 16.6463 26.7642 16.6809 26.8769C16.7156 26.9889 16.7329 27.1235 16.7329 27.2808ZM15.9361 27.2808C15.9361 27.4168 15.9464 27.5301 15.9671 27.6207C15.9877 27.7114 16.021 27.7794 16.067 27.8247C16.1137 27.8694 16.1747 27.8917 16.25 27.8917C16.3253 27.8917 16.386 27.8694 16.432 27.8247C16.4786 27.78 16.5123 27.7124 16.5329 27.6217C16.5543 27.5311 16.5649 27.4175 16.5649 27.2808C16.5649 27.1468 16.5546 27.0349 16.5339 26.9449C16.5133 26.8542 16.48 26.7862 16.434 26.7409C16.388 26.6949 16.3267 26.6719 16.25 26.6719C16.1733 26.6719 16.112 26.6949 16.066 26.7409C16.02 26.7862 15.9867 26.8542 15.9661 26.9449C15.9461 27.0349 15.9361 27.1468 15.9361 27.2808Z" fill="#212121"/>
<path d="M13.1556 19.5726C13.1556 19.6379 13.1429 19.6945 13.1176 19.7425C13.0923 19.7905 13.0569 19.8299 13.0116 19.8605C12.9663 19.8905 12.913 19.9115 12.8516 19.9235V19.9315C12.9676 19.9462 13.0546 19.9835 13.1126 20.0435C13.1713 20.1035 13.2006 20.1821 13.2006 20.2794C13.2006 20.3641 13.1806 20.4391 13.1406 20.5044C13.1013 20.5697 13.0406 20.621 12.9586 20.6584C12.8773 20.695 12.773 20.7134 12.6457 20.7134C12.5684 20.7134 12.4967 20.707 12.4307 20.6944C12.3654 20.6824 12.3027 20.662 12.2428 20.6334V20.4774C12.3034 20.5074 12.3694 20.5311 12.4407 20.5484C12.512 20.5651 12.581 20.5734 12.6477 20.5734C12.781 20.5734 12.8773 20.5471 12.9366 20.4944C12.996 20.4411 13.0256 20.3684 13.0256 20.2764C13.0256 20.2131 13.0089 20.1621 12.9756 20.1235C12.943 20.0841 12.8956 20.0555 12.8336 20.0375C12.7723 20.0188 12.6983 20.0095 12.6117 20.0095H12.4657V19.8675H12.6127C12.692 19.8675 12.7593 19.8559 12.8147 19.8325C12.87 19.8092 12.912 19.7765 12.9406 19.7345C12.97 19.6919 12.9846 19.6416 12.9846 19.5836C12.9846 19.5096 12.96 19.4526 12.9106 19.4126C12.8613 19.3719 12.7943 19.3516 12.7097 19.3516C12.6577 19.3516 12.6104 19.3569 12.5677 19.3676C12.525 19.3783 12.485 19.3929 12.4477 19.4116C12.4104 19.4303 12.3731 19.4519 12.3357 19.4766L12.2518 19.3626C12.3051 19.3213 12.3701 19.2856 12.4467 19.2556C12.5234 19.2256 12.6104 19.2106 12.7077 19.2106C12.857 19.2106 12.969 19.2446 13.0436 19.3126C13.1183 19.3806 13.1556 19.4673 13.1556 19.5726ZM14.3894 19.9605C14.3894 20.0791 14.3804 20.1851 14.3624 20.2784C14.3444 20.3718 14.316 20.4507 14.2774 20.5154C14.2387 20.58 14.1887 20.6294 14.1274 20.6634C14.0661 20.6967 13.9924 20.7134 13.9064 20.7134C13.7978 20.7134 13.7078 20.6837 13.6365 20.6244C13.5658 20.5651 13.5129 20.4794 13.4775 20.3674C13.4429 20.2548 13.4255 20.1191 13.4255 19.9605C13.4255 19.8045 13.4412 19.6706 13.4725 19.5586C13.5045 19.4459 13.5558 19.3596 13.6265 19.2996C13.6972 19.239 13.7905 19.2086 13.9064 19.2086C14.0164 19.2086 14.1071 19.2386 14.1784 19.2986C14.2497 19.3579 14.3027 19.4439 14.3374 19.5566C14.372 19.6686 14.3894 19.8032 14.3894 19.9605ZM13.5925 19.9605C13.5925 20.0965 13.6028 20.2098 13.6235 20.3004C13.6442 20.3911 13.6775 20.4591 13.7235 20.5044C13.7701 20.5491 13.8311 20.5714 13.9064 20.5714C13.9818 20.5714 14.0424 20.5491 14.0884 20.5044C14.1351 20.4597 14.1687 20.3921 14.1894 20.3014C14.2107 20.2108 14.2214 20.0971 14.2214 19.9605C14.2214 19.8265 14.2111 19.7145 14.1904 19.6246C14.1697 19.5339 14.1364 19.4659 14.0904 19.4206C14.0444 19.3746 13.9831 19.3516 13.9064 19.3516C13.8298 19.3516 13.7685 19.3746 13.7225 19.4206C13.6765 19.4659 13.6432 19.5339 13.6225 19.6246C13.6025 19.7145 13.5925 19.8265 13.5925 19.9605ZM15.5611 19.9605C15.5611 20.0791 15.5521 20.1851 15.5341 20.2784C15.5161 20.3718 15.4878 20.4507 15.4492 20.5154C15.4105 20.58 15.3605 20.6294 15.2992 20.6634C15.2379 20.6967 15.1642 20.7134 15.0782 20.7134C14.9696 20.7134 14.8796 20.6837 14.8083 20.6244C14.7376 20.5651 14.6846 20.4794 14.6493 20.3674C14.6146 20.2548 14.5973 20.1191 14.5973 19.9605C14.5973 19.8045 14.613 19.6706 14.6443 19.5586C14.6763 19.4459 14.7276 19.3596 14.7983 19.2996C14.8689 19.239 14.9622 19.2086 15.0782 19.2086C15.1882 19.2086 15.2789 19.2386 15.3502 19.2986C15.4215 19.3579 15.4745 19.4439 15.5091 19.5566C15.5438 19.6686 15.5611 19.8032 15.5611 19.9605ZM14.7643 19.9605C14.7643 20.0965 14.7746 20.2098 14.7953 20.3004C14.8159 20.3911 14.8493 20.4591 14.8953 20.5044C14.9419 20.5491 15.0029 20.5714 15.0782 20.5714C15.1535 20.5714 15.2142 20.5491 15.2602 20.5044C15.3068 20.4597 15.3405 20.3921 15.3612 20.3014C15.3825 20.2108 15.3932 20.0971 15.3932 19.9605C15.3932 19.8265 15.3828 19.7145 15.3622 19.6246C15.3415 19.5339 15.3082 19.4659 15.2622 19.4206C15.2162 19.3746 15.1549 19.3516 15.0782 19.3516C15.0016 19.3516 14.9402 19.3746 14.8943 19.4206C14.8483 19.4659 14.8149 19.5339 14.7943 19.6246C14.7743 19.7145 14.7643 19.8265 14.7643 19.9605ZM16.7329 19.9605C16.7329 20.0791 16.7239 20.1851 16.7059 20.2784C16.6879 20.3718 16.6596 20.4507 16.6209 20.5154C16.5823 20.58 16.5323 20.6294 16.471 20.6634C16.4096 20.6967 16.336 20.7134 16.25 20.7134C16.1414 20.7134 16.0514 20.6837 15.9801 20.6244C15.9094 20.5651 15.8564 20.4794 15.8211 20.3674C15.7864 20.2548 15.7691 20.1191 15.7691 19.9605C15.7691 19.8045 15.7848 19.6706 15.8161 19.5586C15.8481 19.4459 15.8994 19.3596 15.9701 19.2996C16.0407 19.239 16.134 19.2086 16.25 19.2086C16.36 19.2086 16.4506 19.2386 16.522 19.2986C16.5933 19.3579 16.6463 19.4439 16.6809 19.5566C16.7156 19.6686 16.7329 19.8032 16.7329 19.9605ZM15.9361 19.9605C15.9361 20.0965 15.9464 20.2098 15.9671 20.3004C15.9877 20.3911 16.021 20.4591 16.067 20.5044C16.1137 20.5491 16.1747 20.5714 16.25 20.5714C16.3253 20.5714 16.386 20.5491 16.432 20.5044C16.4786 20.4597 16.5123 20.3921 16.5329 20.3014C16.5543 20.2108 16.5649 20.0971 16.5649 19.9605C16.5649 19.8265 16.5546 19.7145 16.5339 19.6246C16.5133 19.5339 16.48 19.4659 16.434 19.4206C16.388 19.3746 16.3267 19.3516 16.25 19.3516C16.1733 19.3516 16.112 19.3746 16.066 19.4206C16.02 19.4659 15.9867 19.5339 15.9661 19.6246C15.9461 19.7145 15.9361 19.8265 15.9361 19.9605Z" fill="#212121"/>
<path d="M13.2096 34.6797H12.2518V34.5407L12.6427 34.1438C12.7153 34.0705 12.7763 34.0051 12.8257 33.9478C12.8756 33.8905 12.9136 33.8342 12.9396 33.7789C12.9656 33.7229 12.9786 33.6615 12.9786 33.5949C12.9786 33.5122 12.954 33.4493 12.9046 33.4059C12.856 33.3619 12.7917 33.3399 12.7117 33.3399C12.6417 33.3399 12.5797 33.3519 12.5257 33.3759C12.4717 33.3999 12.4164 33.4339 12.3597 33.4779L12.2708 33.3659C12.3094 33.3333 12.3514 33.3043 12.3967 33.279C12.4427 33.2536 12.4917 33.2336 12.5437 33.219C12.5964 33.2043 12.6523 33.197 12.7117 33.197C12.8017 33.197 12.8793 33.2126 12.9446 33.244C13.0099 33.2753 13.0603 33.3199 13.0956 33.3779C13.1316 33.4359 13.1496 33.5049 13.1496 33.5849C13.1496 33.6622 13.1343 33.7342 13.1036 33.8009C13.0729 33.8668 13.0299 33.9325 12.9746 33.9978C12.9193 34.0625 12.8546 34.1311 12.7807 34.2038L12.4627 34.5207V34.5277H13.2096V34.6797ZM14.3894 33.9468C14.3894 34.0655 14.3804 34.1715 14.3624 34.2648C14.3444 34.3581 14.316 34.4371 14.2774 34.5017C14.2387 34.5664 14.1887 34.6157 14.1274 34.6497C14.0661 34.683 13.9924 34.6997 13.9064 34.6997C13.7978 34.6997 13.7078 34.67 13.6365 34.6107C13.5658 34.5514 13.5129 34.4657 13.4775 34.3537C13.4429 34.2411 13.4255 34.1055 13.4255 33.9468C13.4255 33.7909 13.4412 33.6569 13.4725 33.5449C13.5045 33.4323 13.5558 33.3459 13.6265 33.286C13.6972 33.2253 13.7905 33.195 13.9064 33.195C14.0164 33.195 14.1071 33.225 14.1784 33.285C14.2497 33.3443 14.3027 33.4303 14.3374 33.5429C14.372 33.6549 14.3894 33.7895 14.3894 33.9468ZM13.5925 33.9468C13.5925 34.0828 13.6028 34.1961 13.6235 34.2868C13.6442 34.3774 13.6775 34.4454 13.7235 34.4907C13.7701 34.5354 13.8311 34.5577 13.9064 34.5577C13.9818 34.5577 14.0424 34.5354 14.0884 34.4907C14.1351 34.4461 14.1687 34.3784 14.1894 34.2878C14.2107 34.1971 14.2214 34.0835 14.2214 33.9468C14.2214 33.8129 14.2111 33.7009 14.1904 33.6109C14.1697 33.5202 14.1364 33.4523 14.0904 33.4069C14.0444 33.3609 13.9831 33.3379 13.9064 33.3379C13.8298 33.3379 13.7685 33.3609 13.7225 33.4069C13.6765 33.4523 13.6432 33.5202 13.6225 33.6109C13.6025 33.7009 13.5925 33.8129 13.5925 33.9468ZM15.5611 33.9468C15.5611 34.0655 15.5521 34.1715 15.5341 34.2648C15.5161 34.3581 15.4878 34.4371 15.4492 34.5017C15.4105 34.5664 15.3605 34.6157 15.2992 34.6497C15.2379 34.683 15.1642 34.6997 15.0782 34.6997C14.9696 34.6997 14.8796 34.67 14.8083 34.6107C14.7376 34.5514 14.6846 34.4657 14.6493 34.3537C14.6146 34.2411 14.5973 34.1055 14.5973 33.9468C14.5973 33.7909 14.613 33.6569 14.6443 33.5449C14.6763 33.4323 14.7276 33.3459 14.7983 33.286C14.8689 33.2253 14.9622 33.195 15.0782 33.195C15.1882 33.195 15.2789 33.225 15.3502 33.285C15.4215 33.3443 15.4745 33.4303 15.5091 33.5429C15.5438 33.6549 15.5611 33.7895 15.5611 33.9468ZM14.7643 33.9468C14.7643 34.0828 14.7746 34.1961 14.7953 34.2868C14.8159 34.3774 14.8493 34.4454 14.8953 34.4907C14.9419 34.5354 15.0029 34.5577 15.0782 34.5577C15.1535 34.5577 15.2142 34.5354 15.2602 34.4907C15.3068 34.4461 15.3405 34.3784 15.3612 34.2878C15.3825 34.1971 15.3932 34.0835 15.3932 33.9468C15.3932 33.8129 15.3828 33.7009 15.3622 33.6109C15.3415 33.5202 15.3082 33.4523 15.2622 33.4069C15.2162 33.3609 15.1549 33.3379 15.0782 33.3379C15.0016 33.3379 14.9402 33.3609 14.8943 33.4069C14.8483 33.4523 14.8149 33.5202 14.7943 33.6109C14.7743 33.7009 14.7643 33.8129 14.7643 33.9468ZM16.7329 33.9468C16.7329 34.0655 16.7239 34.1715 16.7059 34.2648C16.6879 34.3581 16.6596 34.4371 16.6209 34.5017C16.5823 34.5664 16.5323 34.6157 16.471 34.6497C16.4096 34.683 16.336 34.6997 16.25 34.6997C16.1414 34.6997 16.0514 34.67 15.9801 34.6107C15.9094 34.5514 15.8564 34.4657 15.8211 34.3537C15.7864 34.2411 15.7691 34.1055 15.7691 33.9468C15.7691 33.7909 15.7848 33.6569 15.8161 33.5449C15.8481 33.4323 15.8994 33.3459 15.9701 33.286C16.0407 33.2253 16.134 33.195 16.25 33.195C16.36 33.195 16.4506 33.225 16.522 33.285C16.5933 33.3443 16.6463 33.4303 16.6809 33.5429C16.7156 33.6549 16.7329 33.7895 16.7329 33.9468ZM15.9361 33.9468C15.9361 34.0828 15.9464 34.1961 15.9671 34.2868C15.9877 34.3774 16.021 34.4454 16.067 34.4907C16.1137 34.5354 16.1747 34.5577 16.25 34.5577C16.3253 34.5577 16.386 34.5354 16.432 34.4907C16.4786 34.4461 16.5123 34.3784 16.5329 34.2878C16.5543 34.1971 16.5649 34.0835 16.5649 33.9468C16.5649 33.8129 16.5546 33.7009 16.5339 33.6109C16.5133 33.5202 16.48 33.4523 16.434 33.4069C16.388 33.3609 16.3267 33.3379 16.25 33.3379C16.1733 33.3379 16.112 33.3609 16.066 33.4069C16.02 33.4523 15.9867 33.5202 15.9661 33.6109C15.9461 33.7009 15.9361 33.8129 15.9361 33.9468Z" fill="#212121"/>
<path d="M12.8696 41.3457H12.7077V40.3099C12.7077 40.2706 12.7077 40.2369 12.7077 40.2089C12.7083 40.1803 12.709 40.1543 12.7097 40.1309C12.711 40.1069 12.7127 40.0826 12.7147 40.0579C12.694 40.0793 12.6747 40.0976 12.6567 40.1129C12.6387 40.1276 12.6164 40.1459 12.5897 40.1679L12.4227 40.3019L12.3357 40.1889L12.7317 39.884H12.8696V41.3457ZM13.8854 40.4519C13.9848 40.4519 14.0711 40.4689 14.1444 40.5029C14.2177 40.5362 14.2744 40.5848 14.3144 40.6488C14.355 40.7128 14.3754 40.7905 14.3754 40.8818C14.3754 40.9818 14.3537 41.0681 14.3104 41.1407C14.267 41.2127 14.2047 41.2684 14.1234 41.3077C14.0421 41.3464 13.9448 41.3657 13.8315 41.3657C13.7555 41.3657 13.6848 41.359 13.6195 41.3457C13.5542 41.3324 13.4992 41.3124 13.4545 41.2857V41.1277C13.5032 41.1571 13.5622 41.1804 13.6315 41.1977C13.7008 41.2151 13.7681 41.2237 13.8335 41.2237C13.9074 41.2237 13.9721 41.2121 14.0274 41.1887C14.0834 41.1647 14.1267 41.1287 14.1574 41.0808C14.1887 41.0321 14.2044 40.9711 14.2044 40.8978C14.2044 40.8005 14.1744 40.7255 14.1144 40.6728C14.0551 40.6195 13.9611 40.5928 13.8325 40.5928C13.7911 40.5928 13.7458 40.5962 13.6965 40.6028C13.6472 40.6095 13.6065 40.6168 13.5745 40.6248L13.4905 40.5698L13.5465 39.884H14.2734V40.036H13.6885L13.6515 40.4769C13.6768 40.4715 13.7095 40.4662 13.7495 40.4609C13.7895 40.4549 13.8348 40.4519 13.8854 40.4519ZM15.5611 40.6128C15.5611 40.7315 15.5521 40.8375 15.5341 40.9308C15.5161 41.0241 15.4878 41.1031 15.4492 41.1677C15.4105 41.2324 15.3605 41.2817 15.2992 41.3157C15.2379 41.349 15.1642 41.3657 15.0782 41.3657C14.9696 41.3657 14.8796 41.336 14.8083 41.2767C14.7376 41.2174 14.6846 41.1317 14.6493 41.0198C14.6146 40.9071 14.5973 40.7715 14.5973 40.6128C14.5973 40.4569 14.613 40.3229 14.6443 40.2109C14.6763 40.0983 14.7276 40.012 14.7983 39.952C14.8689 39.8913 14.9622 39.861 15.0782 39.861C15.1882 39.861 15.2789 39.891 15.3502 39.951C15.4215 40.0103 15.4745 40.0963 15.5091 40.2089C15.5438 40.3209 15.5611 40.4555 15.5611 40.6128ZM14.7643 40.6128C14.7643 40.7488 14.7746 40.8621 14.7953 40.9528C14.8159 41.0434 14.8493 41.1114 14.8953 41.1567C14.9419 41.2014 15.0029 41.2237 15.0782 41.2237C15.1535 41.2237 15.2142 41.2014 15.2602 41.1567C15.3068 41.1121 15.3405 41.0444 15.3612 40.9538C15.3825 40.8631 15.3932 40.7495 15.3932 40.6128C15.3932 40.4789 15.3828 40.3669 15.3622 40.2769C15.3415 40.1863 15.3082 40.1183 15.2622 40.0729C15.2162 40.027 15.1549 40.004 15.0782 40.004C15.0016 40.004 14.9402 40.027 14.8943 40.0729C14.8483 40.1183 14.8149 40.1863 14.7943 40.2769C14.7743 40.3669 14.7643 40.4789 14.7643 40.6128ZM16.7329 40.6128C16.7329 40.7315 16.7239 40.8375 16.7059 40.9308C16.6879 41.0241 16.6596 41.1031 16.6209 41.1677C16.5823 41.2324 16.5323 41.2817 16.471 41.3157C16.4096 41.349 16.336 41.3657 16.25 41.3657C16.1414 41.3657 16.0514 41.336 15.9801 41.2767C15.9094 41.2174 15.8564 41.1317 15.8211 41.0198C15.7864 40.9071 15.7691 40.7715 15.7691 40.6128C15.7691 40.4569 15.7848 40.3229 15.8161 40.2109C15.8481 40.0983 15.8994 40.012 15.9701 39.952C16.0407 39.8913 16.134 39.861 16.25 39.861C16.36 39.861 16.4506 39.891 16.522 39.951C16.5933 40.0103 16.6463 40.0963 16.6809 40.2089C16.7156 40.3209 16.7329 40.4555 16.7329 40.6128ZM15.9361 40.6128C15.9361 40.7488 15.9464 40.8621 15.9671 40.9528C15.9877 41.0434 16.021 41.1114 16.067 41.1567C16.1137 41.2014 16.1747 41.2237 16.25 41.2237C16.3253 41.2237 16.386 41.2014 16.432 41.1567C16.4786 41.1121 16.5123 41.0444 16.5329 40.9538C16.5543 40.8631 16.5649 40.7495 16.5649 40.6128C16.5649 40.4789 16.5546 40.3669 16.5339 40.2769C16.5133 40.1863 16.48 40.1183 16.434 40.0729C16.388 40.027 16.3267 40.004 16.25 40.004C16.1733 40.004 16.112 40.027 16.066 40.0729C16.02 40.1183 15.9867 40.1863 15.9661 40.2769C15.9461 40.3669 15.9361 40.4789 15.9361 40.6128Z" fill="#212121"/>
<path d="M12.8696 48.2402H12.7077V47.2044C12.7077 47.1651 12.7077 47.1314 12.7077 47.1034C12.7083 47.0748 12.709 47.0488 12.7097 47.0255C12.711 47.0015 12.7127 46.9771 12.7147 46.9525C12.694 46.9738 12.6747 46.9921 12.6567 47.0075C12.6387 47.0221 12.6164 47.0405 12.5897 47.0625L12.4227 47.1964L12.3357 47.0835L12.7317 46.7785H12.8696V48.2402ZM14.3894 47.5074C14.3894 47.626 14.3804 47.732 14.3624 47.8253C14.3444 47.9186 14.316 47.9976 14.2774 48.0623C14.2387 48.1269 14.1887 48.1762 14.1274 48.2102C14.0661 48.2436 13.9924 48.2602 13.9064 48.2602C13.7978 48.2602 13.7078 48.2306 13.6365 48.1712C13.5658 48.1119 13.5129 48.0263 13.4775 47.9143C13.4429 47.8017 13.4255 47.666 13.4255 47.5074C13.4255 47.3514 13.4412 47.2174 13.4725 47.1054C13.5045 46.9928 13.5558 46.9065 13.6265 46.8465C13.6972 46.7858 13.7905 46.7555 13.9064 46.7555C14.0164 46.7555 14.1071 46.7855 14.1784 46.8455C14.2497 46.9048 14.3027 46.9908 14.3374 47.1034C14.372 47.2154 14.3894 47.3501 14.3894 47.5074ZM13.5925 47.5074C13.5925 47.6433 13.6028 47.7567 13.6235 47.8473C13.6442 47.938 13.6775 48.0059 13.7235 48.0513C13.7701 48.0959 13.8311 48.1183 13.9064 48.1183C13.9818 48.1183 14.0424 48.0959 14.0884 48.0513C14.1351 48.0066 14.1687 47.939 14.1894 47.8483C14.2107 47.7577 14.2214 47.644 14.2214 47.5074C14.2214 47.3734 14.2111 47.2614 14.1904 47.1714C14.1697 47.0808 14.1364 47.0128 14.0904 46.9675C14.0444 46.9215 13.9831 46.8985 13.9064 46.8985C13.8298 46.8985 13.7685 46.9215 13.7225 46.9675C13.6765 47.0128 13.6432 47.0808 13.6225 47.1714C13.6025 47.2614 13.5925 47.3734 13.5925 47.5074ZM15.5611 47.5074C15.5611 47.626 15.5521 47.732 15.5341 47.8253C15.5161 47.9186 15.4878 47.9976 15.4492 48.0623C15.4105 48.1269 15.3605 48.1762 15.2992 48.2102C15.2379 48.2436 15.1642 48.2602 15.0782 48.2602C14.9696 48.2602 14.8796 48.2306 14.8083 48.1712C14.7376 48.1119 14.6846 48.0263 14.6493 47.9143C14.6146 47.8017 14.5973 47.666 14.5973 47.5074C14.5973 47.3514 14.613 47.2174 14.6443 47.1054C14.6763 46.9928 14.7276 46.9065 14.7983 46.8465C14.8689 46.7858 14.9622 46.7555 15.0782 46.7555C15.1882 46.7555 15.2789 46.7855 15.3502 46.8455C15.4215 46.9048 15.4745 46.9908 15.5091 47.1034C15.5438 47.2154 15.5611 47.3501 15.5611 47.5074ZM14.7643 47.5074C14.7643 47.6433 14.7746 47.7567 14.7953 47.8473C14.8159 47.938 14.8493 48.0059 14.8953 48.0513C14.9419 48.0959 15.0029 48.1183 15.0782 48.1183C15.1535 48.1183 15.2142 48.0959 15.2602 48.0513C15.3068 48.0066 15.3405 47.939 15.3612 47.8483C15.3825 47.7577 15.3932 47.644 15.3932 47.5074C15.3932 47.3734 15.3828 47.2614 15.3622 47.1714C15.3415 47.0808 15.3082 47.0128 15.2622 46.9675C15.2162 46.9215 15.1549 46.8985 15.0782 46.8985C15.0016 46.8985 14.9402 46.9215 14.8943 46.9675C14.8483 47.0128 14.8149 47.0808 14.7943 47.1714C14.7743 47.2614 14.7643 47.3734 14.7643 47.5074ZM16.7329 47.5074C16.7329 47.626 16.7239 47.732 16.7059 47.8253C16.6879 47.9186 16.6596 47.9976 16.6209 48.0623C16.5823 48.1269 16.5323 48.1762 16.471 48.2102C16.4096 48.2436 16.336 48.2602 16.25 48.2602C16.1414 48.2602 16.0514 48.2306 15.9801 48.1712C15.9094 48.1119 15.8564 48.0263 15.8211 47.9143C15.7864 47.8017 15.7691 47.666 15.7691 47.5074C15.7691 47.3514 15.7848 47.2174 15.8161 47.1054C15.8481 46.9928 15.8994 46.9065 15.9701 46.8465C16.0407 46.7858 16.134 46.7555 16.25 46.7555C16.36 46.7555 16.4506 46.7855 16.522 46.8455C16.5933 46.9048 16.6463 46.9908 16.6809 47.1034C16.7156 47.2154 16.7329 47.3501 16.7329 47.5074ZM15.9361 47.5074C15.9361 47.6433 15.9464 47.7567 15.9671 47.8473C15.9877 47.938 16.021 48.0059 16.067 48.0513C16.1137 48.0959 16.1747 48.1183 16.25 48.1183C16.3253 48.1183 16.386 48.0959 16.432 48.0513C16.4786 48.0066 16.5123 47.939 16.5329 47.8483C16.5543 47.7577 16.5649 47.644 16.5649 47.5074C16.5649 47.3734 16.5546 47.2614 16.5339 47.1714C16.5133 47.0808 16.48 47.0128 16.434 46.9675C16.388 46.9215 16.3267 46.8985 16.25 46.8985C16.1733 46.8985 16.112 46.9215 16.066 46.9675C16.02 47.0128 15.9867 47.0808 15.9661 47.1714C15.9461 47.2614 15.9361 47.3734 15.9361 47.5074Z" fill="#212121"/>
<path d="M13.6895 54.4695C13.7888 54.4695 13.8751 54.4864 13.9484 54.5204C14.0217 54.5538 14.0784 54.6024 14.1184 54.6664C14.1591 54.7304 14.1794 54.8081 14.1794 54.8994C14.1794 54.9994 14.1577 55.0857 14.1144 55.1583C14.0711 55.2303 14.0087 55.286 13.9274 55.3253C13.8461 55.3639 13.7488 55.3833 13.6355 55.3833C13.5595 55.3833 13.4888 55.3766 13.4235 55.3633C13.3582 55.35 13.3032 55.33 13.2586 55.3033V55.1453C13.3072 55.1747 13.3662 55.198 13.4355 55.2153C13.5048 55.2326 13.5722 55.2413 13.6375 55.2413C13.7115 55.2413 13.7761 55.2296 13.8314 55.2063C13.8874 55.1823 13.9308 55.1463 13.9614 55.0983C13.9928 55.0497 14.0084 54.9887 14.0084 54.9154C14.0084 54.8181 13.9784 54.7431 13.9184 54.6904C13.8591 54.6371 13.7651 54.6104 13.6365 54.6104C13.5952 54.6104 13.5498 54.6138 13.5005 54.6204C13.4512 54.6271 13.4105 54.6344 13.3785 54.6424L13.2945 54.5874L13.3505 53.9016H14.0774V54.0535H13.4925L13.4555 54.4944C13.4808 54.4891 13.5135 54.4838 13.5535 54.4784C13.5935 54.4724 13.6388 54.4695 13.6895 54.4695ZM15.3652 54.6304C15.3652 54.7491 15.3562 54.855 15.3382 54.9484C15.3202 55.0417 15.2918 55.1207 15.2532 55.1853C15.2145 55.25 15.1645 55.2993 15.1032 55.3333C15.0419 55.3666 14.9682 55.3833 14.8822 55.3833C14.7736 55.3833 14.6836 55.3536 14.6123 55.2943C14.5416 55.235 14.4887 55.1493 14.4533 55.0373C14.4187 54.9247 14.4013 54.7891 14.4013 54.6304C14.4013 54.4744 14.417 54.3405 14.4483 54.2285C14.4803 54.1159 14.5316 54.0295 14.6023 53.9695C14.673 53.9089 14.7663 53.8786 14.8822 53.8786C14.9922 53.8786 15.0829 53.9086 15.1542 53.9685C15.2255 54.0279 15.2785 54.1139 15.3132 54.2265C15.3478 54.3385 15.3652 54.4731 15.3652 54.6304ZM14.5683 54.6304C14.5683 54.7664 14.5786 54.8797 14.5993 54.9704C14.62 55.061 14.6533 55.129 14.6993 55.1743C14.7459 55.219 14.8069 55.2413 14.8822 55.2413C14.9576 55.2413 15.0182 55.219 15.0642 55.1743C15.1109 55.1297 15.1445 55.062 15.1652 54.9714C15.1865 54.8807 15.1972 54.7671 15.1972 54.6304C15.1972 54.4964 15.1869 54.3845 15.1662 54.2945C15.1455 54.2038 15.1122 54.1358 15.0662 54.0905C15.0202 54.0445 14.9589 54.0215 14.8822 54.0215C14.8056 54.0215 14.7443 54.0445 14.6983 54.0905C14.6523 54.1358 14.619 54.2038 14.5983 54.2945C14.5783 54.3845 14.5683 54.4964 14.5683 54.6304ZM16.5369 54.6304C16.5369 54.7491 16.5279 54.855 16.5099 54.9484C16.4919 55.0417 16.4636 55.1207 16.425 55.1853C16.3863 55.25 16.3363 55.2993 16.275 55.3333C16.2137 55.3666 16.14 55.3833 16.054 55.3833C15.9454 55.3833 15.8554 55.3536 15.7841 55.2943C15.7134 55.235 15.6604 55.1493 15.6251 55.0373C15.5904 54.9247 15.5731 54.7891 15.5731 54.6304C15.5731 54.4744 15.5888 54.3405 15.6201 54.2285C15.6521 54.1159 15.7034 54.0295 15.7741 53.9695C15.8447 53.9089 15.938 53.8786 16.054 53.8786C16.164 53.8786 16.2547 53.9086 16.326 53.9685C16.3973 54.0279 16.4503 54.1139 16.4849 54.2265C16.5196 54.3385 16.5369 54.4731 16.5369 54.6304ZM15.7401 54.6304C15.7401 54.7664 15.7504 54.8797 15.7711 54.9704C15.7917 55.061 15.8251 55.129 15.8711 55.1743C15.9177 55.219 15.9787 55.2413 16.054 55.2413C16.1293 55.2413 16.19 55.219 16.236 55.1743C16.2827 55.1297 16.3163 55.062 16.337 54.9714C16.3583 54.8807 16.369 54.7671 16.369 54.6304C16.369 54.4964 16.3586 54.3845 16.338 54.2945C16.3173 54.2038 16.284 54.1358 16.238 54.0905C16.192 54.0445 16.1307 54.0215 16.054 54.0215C15.9774 54.0215 15.9161 54.0445 15.8701 54.0905C15.8241 54.1358 15.7907 54.2038 15.7701 54.2945C15.7501 54.3845 15.7401 54.4964 15.7401 54.6304Z" fill="#212121"/>
<path d="M13.8454 62.2578H13.6835V61.222C13.6835 61.1827 13.6835 61.149 13.6835 61.121C13.6841 61.0924 13.6848 61.0664 13.6855 61.043C13.6868 61.019 13.6885 60.9947 13.6905 60.9701C13.6698 60.9914 13.6505 61.0097 13.6325 61.025C13.6145 61.0397 13.5922 61.058 13.5655 61.08L13.3985 61.214L13.3115 61.101L13.7075 60.7961H13.8454V62.2578ZM15.3652 61.525C15.3652 61.6436 15.3562 61.7496 15.3382 61.8429C15.3202 61.9362 15.2918 62.0152 15.2532 62.0798C15.2145 62.1445 15.1645 62.1938 15.1032 62.2278C15.0419 62.2611 14.9682 62.2778 14.8822 62.2778C14.7736 62.2778 14.6836 62.2481 14.6123 62.1888C14.5416 62.1295 14.4887 62.0439 14.4533 61.9319C14.4187 61.8192 14.4013 61.6836 14.4013 61.525C14.4013 61.369 14.417 61.235 14.4483 61.123C14.4803 61.0104 14.5316 60.9241 14.6023 60.8641C14.673 60.8034 14.7663 60.7731 14.8822 60.7731C14.9922 60.7731 15.0829 60.8031 15.1542 60.8631C15.2255 60.9224 15.2785 61.0084 15.3132 61.121C15.3478 61.233 15.3652 61.3676 15.3652 61.525ZM14.5683 61.525C14.5683 61.6609 14.5786 61.7742 14.5993 61.8649C14.62 61.9555 14.6533 62.0235 14.6993 62.0688C14.7459 62.1135 14.8069 62.1358 14.8822 62.1358C14.9576 62.1358 15.0182 62.1135 15.0642 62.0688C15.1109 62.0242 15.1445 61.9565 15.1652 61.8659C15.1865 61.7752 15.1972 61.6616 15.1972 61.525C15.1972 61.391 15.1869 61.279 15.1662 61.189C15.1455 61.0984 15.1122 61.0304 15.0662 60.9851C15.0202 60.9391 14.9589 60.9161 14.8822 60.9161C14.8056 60.9161 14.7443 60.9391 14.6983 60.9851C14.6523 61.0304 14.619 61.0984 14.5983 61.189C14.5783 61.279 14.5683 61.391 14.5683 61.525ZM16.5369 61.525C16.5369 61.6436 16.5279 61.7496 16.5099 61.8429C16.4919 61.9362 16.4636 62.0152 16.425 62.0798C16.3863 62.1445 16.3363 62.1938 16.275 62.2278C16.2137 62.2611 16.14 62.2778 16.054 62.2778C15.9454 62.2778 15.8554 62.2481 15.7841 62.1888C15.7134 62.1295 15.6604 62.0439 15.6251 61.9319C15.5904 61.8192 15.5731 61.6836 15.5731 61.525C15.5731 61.369 15.5888 61.235 15.6201 61.123C15.6521 61.0104 15.7034 60.9241 15.7741 60.8641C15.8447 60.8034 15.938 60.7731 16.054 60.7731C16.164 60.7731 16.2547 60.8031 16.326 60.8631C16.3973 60.9224 16.4503 61.0084 16.4849 61.121C16.5196 61.233 16.5369 61.3676 16.5369 61.525ZM15.7401 61.525C15.7401 61.6609 15.7504 61.7742 15.7711 61.8649C15.7917 61.9555 15.8251 62.0235 15.8711 62.0688C15.9177 62.1135 15.9787 62.1358 16.054 62.1358C16.1293 62.1358 16.19 62.1135 16.236 62.0688C16.2827 62.0242 16.3163 61.9565 16.337 61.8659C16.3583 61.7752 16.369 61.6616 16.369 61.525C16.369 61.391 16.3586 61.279 16.338 61.189C16.3173 61.0984 16.284 61.0304 16.238 60.9851C16.192 60.9391 16.1307 60.9161 16.054 60.9161C15.9774 60.9161 15.9161 60.9391 15.8701 60.9851C15.8241 61.0304 15.7907 61.0984 15.7701 61.189C15.7501 61.279 15.7401 61.391 15.7401 61.525Z" fill="#212121"/>
<path d="M16.5369 68.8765C16.5369 68.9952 16.5279 69.1011 16.5099 69.1945C16.4919 69.2878 16.4636 69.3668 16.425 69.4314C16.3863 69.4961 16.3363 69.5454 16.275 69.5794C16.2137 69.6127 16.14 69.6294 16.054 69.6294C15.9454 69.6294 15.8554 69.5997 15.7841 69.5404C15.7134 69.4811 15.6604 69.3954 15.6251 69.2834C15.5904 69.1708 15.5731 69.0352 15.5731 68.8765C15.5731 68.7205 15.5888 68.5866 15.6201 68.4746C15.6521 68.3619 15.7034 68.2756 15.7741 68.2156C15.8447 68.155 15.938 68.1247 16.054 68.1247C16.164 68.1247 16.2547 68.1547 16.326 68.2146C16.3973 68.274 16.4503 68.3599 16.4849 68.4726C16.5196 68.5846 16.5369 68.7192 16.5369 68.8765ZM15.7401 68.8765C15.7401 69.0125 15.7504 69.1258 15.7711 69.2164C15.7917 69.3071 15.8251 69.3751 15.8711 69.4204C15.9177 69.4651 15.9787 69.4874 16.054 69.4874C16.1293 69.4874 16.19 69.4651 16.236 69.4204C16.2827 69.3758 16.3163 69.3081 16.337 69.2174C16.3583 69.1268 16.369 69.0132 16.369 68.8765C16.369 68.7425 16.3586 68.6306 16.338 68.5406C16.3173 68.4499 16.284 68.3819 16.238 68.3366C16.192 68.2906 16.1307 68.2676 16.054 68.2676C15.9774 68.2676 15.9161 68.2906 15.8701 68.3366C15.8241 68.3819 15.7907 68.4499 15.7701 68.5406C15.7501 68.6306 15.7401 68.7425 15.7401 68.8765Z" fill="#212121"/>
</svg>
