<svg width="93" height="92" viewBox="0 0 93 92" fill="none" xmlns="http://www.w3.org/2000/svg">
<rect x="1.13104" y="0.389831" width="91.079" height="91.2203" rx="17.5424" stroke="#BEBEBE" stroke-width="0.779661"/>
<line x1="18.1908" y1="22.125" x2="18.1908" y2="66.4065" stroke="#3347E6" stroke-width="0.1258"/>
<line x1="27.2484" y1="22.1879" x2="27.2484" y2="66.3436" stroke="#D3D6DF" stroke-width="0.1258" stroke-linecap="square" stroke-dasharray="0.25 0.25"/>
<line x1="36.3061" y1="22.1879" x2="36.3061" y2="66.3436" stroke="#D3D6DF" stroke-width="0.1258" stroke-linecap="square" stroke-dasharray="0.25 0.25"/>
<line x1="45.3637" y1="22.1879" x2="45.3637" y2="66.3436" stroke="#D3D6DF" stroke-width="0.1258" stroke-linecap="square" stroke-dasharray="0.25 0.25"/>
<line x1="54.4213" y1="22.1879" x2="54.4213" y2="66.3436" stroke="#D3D6DF" stroke-width="0.1258" stroke-linecap="square" stroke-dasharray="0.25 0.25"/>
<line x1="63.4789" y1="22.1879" x2="63.4789" y2="66.3436" stroke="#D3D6DF" stroke-width="0.1258" stroke-linecap="square" stroke-dasharray="0.25 0.25"/>
<line x1="72.5365" y1="22.1879" x2="72.5365" y2="66.3436" stroke="#D3D6DF" stroke-width="0.1258" stroke-linecap="square" stroke-dasharray="0.25 0.25"/>
<line x1="81.5941" y1="22.1879" x2="81.5941" y2="66.3436" stroke="#D3D6DF" stroke-width="0.1258" stroke-linecap="square" stroke-dasharray="0.25 0.25"/>
<line x1="18.4428" y1="23.3199" x2="81.4684" y2="23.3199" stroke="#D3D6DF" stroke-width="0.1258" stroke-linecap="square" stroke-dasharray="0.25 0.25"/>
<line x1="18.4428" y1="26.0894" x2="81.4684" y2="26.0894" stroke="#D3D6DF" stroke-width="0.1258" stroke-linecap="square" stroke-dasharray="0.25 0.25"/>
<line x1="18.4428" y1="28.8551" x2="81.4684" y2="28.8551" stroke="#D3D6DF" stroke-width="0.1258" stroke-linecap="square" stroke-dasharray="0.25 0.25"/>
<line x1="18.4428" y1="31.6246" x2="81.4684" y2="31.6246" stroke="#D3D6DF" stroke-width="0.1258" stroke-linecap="square" stroke-dasharray="0.25 0.25"/>
<line x1="18.4428" y1="34.3902" x2="81.4684" y2="34.3902" stroke="#D3D6DF" stroke-width="0.1258" stroke-linecap="square" stroke-dasharray="0.25 0.25"/>
<line x1="18.4428" y1="37.1598" x2="81.4684" y2="37.1598" stroke="#D3D6DF" stroke-width="0.1258" stroke-linecap="square" stroke-dasharray="0.25 0.25"/>
<line x1="18.4428" y1="39.9254" x2="81.4684" y2="39.9254" stroke="#D3D6DF" stroke-width="0.1258" stroke-linecap="square" stroke-dasharray="0.25 0.25"/>
<line x1="18.4428" y1="42.6949" x2="81.4684" y2="42.6949" stroke="#D3D6DF" stroke-width="0.1258" stroke-linecap="square" stroke-dasharray="0.25 0.25"/>
<line x1="18.4428" y1="45.4605" x2="81.4684" y2="45.4605" stroke="#D3D6DF" stroke-width="0.1258" stroke-linecap="square" stroke-dasharray="0.25 0.25"/>
<line x1="18.4428" y1="48.2301" x2="81.4684" y2="48.2301" stroke="#D3D6DF" stroke-width="0.1258" stroke-linecap="square" stroke-dasharray="0.25 0.25"/>
<line x1="18.4428" y1="50.9957" x2="81.4684" y2="50.9957" stroke="#D3D6DF" stroke-width="0.1258" stroke-linecap="square" stroke-dasharray="0.25 0.25"/>
<line x1="18.4428" y1="53.7652" x2="81.4684" y2="53.7652" stroke="#D3D6DF" stroke-width="0.1258" stroke-linecap="square" stroke-dasharray="0.25 0.25"/>
<line x1="18.4428" y1="56.5309" x2="81.4684" y2="56.5308" stroke="#D3D6DF" stroke-width="0.1258" stroke-linecap="square" stroke-dasharray="0.25 0.25"/>
<line x1="18.4428" y1="59.3004" x2="81.4684" y2="59.3004" stroke="#D3D6DF" stroke-width="0.1258" stroke-linecap="square" stroke-dasharray="0.25 0.25"/>
<line x1="18.4428" y1="62.066" x2="81.4684" y2="62.066" stroke="#D3D6DF" stroke-width="0.1258" stroke-linecap="square" stroke-dasharray="0.25 0.25"/>
<line x1="18.4428" y1="64.8355" x2="81.4684" y2="64.8355" stroke="#D3D6DF" stroke-width="0.1258" stroke-linecap="square" stroke-dasharray="0.25 0.25"/>
<path d="M18.5358 68.7934C18.5358 68.8939 18.5281 68.9836 18.5129 69.0626C18.4977 69.1417 18.4737 69.2086 18.4409 69.2633C18.4082 69.3181 18.3658 69.3599 18.3139 69.3887C18.262 69.4169 18.1996 69.431 18.1268 69.431C18.0348 69.431 17.9585 69.4059 17.8981 69.3556C17.8383 69.3054 17.7934 69.2329 17.7635 69.138C17.7342 69.0426 17.7195 68.9277 17.7195 68.7934C17.7195 68.6613 17.7327 68.5478 17.7593 68.453C17.7864 68.3576 17.8298 68.2845 17.8897 68.2337C17.9495 68.1823 18.0285 68.1566 18.1268 68.1566C18.2199 68.1566 18.2967 68.182 18.3571 68.2328C18.4175 68.283 18.4624 68.3559 18.4917 68.4513C18.5211 68.5461 18.5358 68.6601 18.5358 68.7934ZM17.8609 68.7934C17.8609 68.9085 17.8696 69.0045 17.8871 69.0813C17.9046 69.1581 17.9329 69.2156 17.9718 69.254C18.0113 69.2918 18.063 69.3108 18.1268 69.3108C18.1906 69.3108 18.2419 69.2918 18.2809 69.254C18.3204 69.2162 18.3489 69.1589 18.3664 69.0821C18.3845 69.0054 18.3935 68.9091 18.3935 68.7934C18.3935 68.6799 18.3848 68.5851 18.3673 68.5089C18.3498 68.4321 18.3215 68.3745 18.2826 68.3361C18.2436 68.2972 18.1917 68.2777 18.1268 68.2777C18.0619 68.2777 18.0099 68.2972 17.971 68.3361C17.932 68.3745 17.9038 68.4321 17.8863 68.5089C17.8694 68.5851 17.8609 68.6799 17.8609 68.7934Z" fill="#222539"/>
<path d="M27.6694 69.4141H27.5322V68.5368C27.5322 68.5035 27.5322 68.475 27.5322 68.4513C27.5328 68.427 27.5333 68.405 27.5339 68.3852C27.535 68.3649 27.5364 68.3443 27.5381 68.3234C27.5206 68.3415 27.5043 68.357 27.489 68.37C27.4738 68.3824 27.4549 68.3979 27.4323 68.4166L27.2909 68.53L27.2172 68.4343L27.5525 68.1761H27.6694V69.4141Z" fill="#222539"/>
<path d="M36.8821 69.4141H36.0709V69.2964L36.402 68.9602C36.4635 68.8981 36.5152 68.8428 36.5569 68.7942C36.5993 68.7457 36.6314 68.698 36.6535 68.6511C36.6755 68.6037 36.6865 68.5518 36.6865 68.4953C36.6865 68.4253 36.6656 68.372 36.6238 68.3353C36.5826 68.298 36.5281 68.2794 36.4604 68.2794C36.4011 68.2794 36.3486 68.2895 36.3029 68.3099C36.2572 68.3302 36.2103 68.359 36.1623 68.3962L36.087 68.3014C36.1197 68.2737 36.1553 68.2492 36.1937 68.2277C36.2326 68.2063 36.2741 68.1893 36.3181 68.1769C36.3627 68.1645 36.4102 68.1583 36.4604 68.1583C36.5366 68.1583 36.6024 68.1716 36.6577 68.1981C36.713 68.2246 36.7556 68.2624 36.7856 68.3116C36.816 68.3607 36.8313 68.4191 36.8313 68.4868C36.8313 68.5523 36.8183 68.6133 36.7923 68.6697C36.7664 68.7256 36.73 68.7812 36.6831 68.8366C36.6362 68.8913 36.5815 68.9495 36.5188 69.011L36.2495 69.2794V69.2854H36.8821V69.4141Z" fill="#222539"/>
<path d="M45.7621 68.4648C45.7621 68.5201 45.7514 68.5681 45.73 68.6088C45.7085 68.6494 45.6786 68.6827 45.6402 68.7087C45.6018 68.7341 45.5567 68.7519 45.5047 68.762V68.7688C45.603 68.7812 45.6766 68.8128 45.7257 68.8637C45.7754 68.9145 45.8003 68.9811 45.8003 69.0635C45.8003 69.1352 45.7833 69.1987 45.7494 69.254C45.7161 69.3093 45.6648 69.3528 45.5953 69.3844C45.5265 69.4155 45.4381 69.431 45.3303 69.431C45.2648 69.431 45.2041 69.4256 45.1482 69.4149C45.0929 69.4047 45.0398 69.3875 44.989 69.3633V69.2312C45.0404 69.2566 45.0963 69.2766 45.1567 69.2913C45.2171 69.3054 45.2755 69.3124 45.332 69.3124C45.4449 69.3124 45.5265 69.2902 45.5767 69.2456C45.6269 69.2004 45.6521 69.1389 45.6521 69.061C45.6521 69.0073 45.638 68.9641 45.6097 68.9314C45.5821 68.8981 45.542 68.8738 45.4895 68.8586C45.4375 68.8428 45.3749 68.8349 45.3015 68.8349H45.1779V68.7146H45.3023C45.3695 68.7146 45.4265 68.7047 45.4734 68.685C45.5202 68.6652 45.5558 68.6376 45.5801 68.602C45.6049 68.5659 45.6173 68.5233 45.6173 68.4741C45.6173 68.4115 45.5965 68.3632 45.5547 68.3293C45.5129 68.2949 45.4562 68.2777 45.3845 68.2777C45.3405 68.2777 45.3004 68.2822 45.2642 68.2912C45.2281 68.3003 45.1942 68.3127 45.1626 68.3285C45.131 68.3443 45.0994 68.3626 45.0678 68.3835L44.9967 68.287C45.0418 68.252 45.0969 68.2218 45.1618 68.1964C45.2267 68.171 45.3004 68.1583 45.3828 68.1583C45.5092 68.1583 45.6041 68.1871 45.6673 68.2447C45.7305 68.3022 45.7621 68.3756 45.7621 68.4648Z" fill="#222539"/>
<path d="M54.7945 69.127H54.609V69.4141H54.4719V69.127H53.8732V69.0085L54.4626 68.1693H54.609V69H54.7945V69.127ZM54.4719 69V68.5952C54.4719 68.5642 54.4722 68.5362 54.4727 68.5114C54.4733 68.486 54.4741 68.4626 54.4753 68.4411C54.4764 68.4191 54.4772 68.3982 54.4778 68.3785C54.4789 68.3587 54.4798 68.3392 54.4803 68.32H54.4736C54.4628 68.3426 54.4504 68.3666 54.4363 68.392C54.4228 68.4168 54.4089 68.4391 54.3948 68.4589L54.0129 69H54.4719Z" fill="#222539"/>
<path d="M63.2385 68.657C63.3226 68.657 63.3957 68.6714 63.4578 68.7002C63.5199 68.7285 63.5679 68.7697 63.6017 68.8239C63.6362 68.8781 63.6534 68.9438 63.6534 69.0212C63.6534 69.1058 63.635 69.1789 63.5983 69.2405C63.5616 69.3014 63.5089 69.3486 63.44 69.3819C63.3711 69.4146 63.2887 69.431 63.1927 69.431C63.1284 69.431 63.0685 69.4254 63.0132 69.4141C62.9579 69.4028 62.9113 69.3858 62.8735 69.3633V69.2295C62.9147 69.2543 62.9647 69.2741 63.0234 69.2887C63.0821 69.3034 63.1391 69.3108 63.1944 69.3108C63.2571 69.3108 63.3118 69.3009 63.3587 69.2811C63.4061 69.2608 63.4428 69.2303 63.4688 69.1897C63.4953 69.1485 63.5086 69.0968 63.5086 69.0347C63.5086 68.9523 63.4832 68.8888 63.4324 68.8442C63.3821 68.799 63.3025 68.7764 63.1936 68.7764C63.1586 68.7764 63.1202 68.7793 63.0784 68.7849C63.0366 68.7906 63.0022 68.7968 62.9751 68.8035L62.904 68.757L62.9514 68.1761H63.567V68.3048H63.0716L63.0403 68.6782C63.0618 68.6737 63.0894 68.6692 63.1233 68.6647C63.1572 68.6596 63.1956 68.657 63.2385 68.657Z" fill="#222539"/>
<path d="M71.7857 68.8848C71.7857 68.8103 71.7908 68.7375 71.801 68.6664C71.8117 68.5952 71.8295 68.5292 71.8543 68.4682C71.8792 68.4067 71.913 68.3528 71.9559 68.3065C71.9988 68.2602 72.0522 68.2241 72.116 68.1981C72.1803 68.1716 72.2574 68.1583 72.3471 68.1583C72.3725 68.1583 72.3999 68.1597 72.4293 68.1625C72.4586 68.1648 72.4829 68.1687 72.5021 68.1744V68.2955C72.4812 68.2881 72.4572 68.2828 72.4301 68.2794C72.4036 68.276 72.3768 68.2743 72.3497 68.2743C72.2447 68.2743 72.162 68.2972 72.1016 68.3429C72.0417 68.3886 71.9986 68.4507 71.972 68.5292C71.9455 68.6071 71.9302 68.6949 71.9263 68.7925H71.9356C71.9531 68.7643 71.9754 68.7389 72.0025 68.7163C72.0296 68.6932 72.0623 68.6748 72.1007 68.6613C72.1397 68.6477 72.1848 68.641 72.2362 68.641C72.3085 68.641 72.3714 68.6556 72.425 68.685C72.4792 68.7143 72.521 68.757 72.5504 68.8128C72.5803 68.8687 72.5952 68.9365 72.5952 69.0161C72.5952 69.1013 72.5794 69.175 72.5478 69.2371C72.5162 69.2992 72.4711 69.3472 72.4123 69.381C72.3542 69.4143 72.2848 69.431 72.204 69.431C72.1436 69.431 72.088 69.4194 72.0372 69.3963C71.9864 69.3731 71.9421 69.3387 71.9043 69.293C71.867 69.2472 71.8379 69.1905 71.8171 69.1228C71.7962 69.0545 71.7857 68.9751 71.7857 68.8848ZM72.2023 69.3124C72.2791 69.3124 72.3406 69.2879 72.3869 69.2388C72.4332 69.1897 72.4564 69.1154 72.4564 69.0161C72.4564 68.9348 72.4358 68.8704 72.3946 68.823C72.3534 68.7756 72.2913 68.7519 72.2083 68.7519C72.1518 68.7519 72.1027 68.7637 72.0609 68.7874C72.0192 68.8106 71.9867 68.8399 71.9636 68.8755C71.9404 68.9111 71.9288 68.9472 71.9288 68.9839C71.9288 69.0212 71.9342 69.059 71.9449 69.0974C71.9562 69.1358 71.9731 69.1713 71.9957 69.2041C72.0183 69.2368 72.0468 69.2631 72.0813 69.2828C72.1157 69.3026 72.1561 69.3124 72.2023 69.3124Z" fill="#222539"/>
<path d="M80.8579 69.4141L81.3659 68.3048H80.6911V68.1761H81.5167V68.2845L81.012 69.4141H80.8579Z" fill="#222539"/>
<path d="M12.6382 24H12.501V23.1227C12.501 23.0894 12.501 23.0609 12.501 23.0372C12.5015 23.0129 12.5021 22.9909 12.5027 22.9712C12.5038 22.9508 12.5052 22.9302 12.5069 22.9093C12.4894 22.9274 12.473 22.9429 12.4578 22.9559C12.4425 22.9683 12.4236 22.9839 12.4011 23.0025L12.2596 23.116L12.186 23.0203L12.5213 22.762H12.6382V24ZM13.4985 23.243C13.5826 23.243 13.6557 23.2574 13.7178 23.2862C13.7799 23.3144 13.8279 23.3556 13.8618 23.4098C13.8962 23.464 13.9134 23.5298 13.9134 23.6071C13.9134 23.6918 13.8951 23.7649 13.8584 23.8264C13.8217 23.8874 13.7689 23.9345 13.7 23.9678C13.6311 24.0006 13.5487 24.0169 13.4528 24.0169C13.3884 24.0169 13.3286 24.0113 13.2732 24C13.2179 23.9887 13.1713 23.9718 13.1335 23.9492V23.8154C13.1747 23.8402 13.2247 23.86 13.2834 23.8747C13.3421 23.8894 13.3991 23.8967 13.4545 23.8967C13.5171 23.8967 13.5719 23.8868 13.6187 23.8671C13.6661 23.8467 13.7028 23.8162 13.7288 23.7756C13.7553 23.7344 13.7686 23.6827 13.7686 23.6206C13.7686 23.5382 13.7432 23.4747 13.6924 23.4301C13.6422 23.385 13.5626 23.3624 13.4536 23.3624C13.4186 23.3624 13.3802 23.3652 13.3384 23.3708C13.2967 23.3765 13.2622 23.3827 13.2351 23.3895L13.164 23.3429L13.2114 22.762H13.827V22.8907H13.3317L13.3003 23.2641C13.3218 23.2596 13.3494 23.2551 13.3833 23.2506C13.4172 23.2455 13.4556 23.243 13.4985 23.243ZM14.9177 23.3793C14.9177 23.4798 14.9101 23.5696 14.8948 23.6486C14.8796 23.7276 14.8556 23.7945 14.8228 23.8493C14.7901 23.904 14.7478 23.9458 14.6958 23.9746C14.6439 24.0028 14.5815 24.0169 14.5087 24.0169C14.4167 24.0169 14.3405 23.9918 14.2801 23.9416C14.2202 23.8913 14.1753 23.8188 14.1454 23.7239C14.1161 23.6285 14.1014 23.5137 14.1014 23.3793C14.1014 23.2472 14.1147 23.1337 14.1412 23.0389C14.1683 22.9435 14.2118 22.8704 14.2716 22.8196C14.3314 22.7682 14.4105 22.7425 14.5087 22.7425C14.6018 22.7425 14.6786 22.7679 14.739 22.8187C14.7994 22.869 14.8443 22.9418 14.8737 23.0372C14.903 23.1321 14.9177 23.2461 14.9177 23.3793ZM14.2428 23.3793C14.2428 23.4945 14.2516 23.5904 14.2691 23.6672C14.2866 23.744 14.3148 23.8016 14.3537 23.84C14.3932 23.8778 14.4449 23.8967 14.5087 23.8967C14.5725 23.8967 14.6239 23.8778 14.6628 23.84C14.7023 23.8021 14.7308 23.7448 14.7483 23.6681C14.7664 23.5913 14.7754 23.495 14.7754 23.3793C14.7754 23.2658 14.7667 23.171 14.7492 23.0948C14.7317 23.018 14.7035 22.9604 14.6645 22.922C14.6255 22.8831 14.5736 22.8636 14.5087 22.8636C14.4438 22.8636 14.3918 22.8831 14.3529 22.922C14.3139 22.9604 14.2857 23.018 14.2682 23.0948C14.2513 23.171 14.2428 23.2658 14.2428 23.3793ZM15.9101 23.3793C15.9101 23.4798 15.9025 23.5696 15.8872 23.6486C15.872 23.7276 15.848 23.7945 15.8153 23.8493C15.7825 23.904 15.7402 23.9458 15.6883 23.9746C15.6363 24.0028 15.5739 24.0169 15.5011 24.0169C15.4091 24.0169 15.3329 23.9918 15.2725 23.9416C15.2126 23.8913 15.1678 23.8188 15.1378 23.7239C15.1085 23.6285 15.0938 23.5137 15.0938 23.3793C15.0938 23.2472 15.1071 23.1337 15.1336 23.0389C15.1607 22.9435 15.2042 22.8704 15.264 22.8196C15.3239 22.7682 15.4029 22.7425 15.5011 22.7425C15.5943 22.7425 15.671 22.7679 15.7314 22.8187C15.7918 22.869 15.8367 22.9418 15.8661 23.0372C15.8954 23.1321 15.9101 23.2461 15.9101 23.3793ZM15.2352 23.3793C15.2352 23.4945 15.244 23.5904 15.2615 23.6672C15.279 23.744 15.3072 23.8016 15.3462 23.84C15.3857 23.8778 15.4373 23.8967 15.5011 23.8967C15.5649 23.8967 15.6163 23.8778 15.6552 23.84C15.6947 23.8021 15.7233 23.7448 15.7408 23.6681C15.7588 23.5913 15.7679 23.495 15.7679 23.3793C15.7679 23.2658 15.7591 23.171 15.7416 23.0948C15.7241 23.018 15.6959 22.9604 15.6569 22.922C15.618 22.8831 15.566 22.8636 15.5011 22.8636C15.4362 22.8636 15.3843 22.8831 15.3453 22.922C15.3064 22.9604 15.2781 23.018 15.2606 23.0948C15.2437 23.171 15.2352 23.2658 15.2352 23.3793ZM12.6382 27H12.501V26.1227C12.501 26.0894 12.501 26.0609 12.501 26.0372C12.5015 26.0129 12.5021 25.9909 12.5027 25.9712C12.5038 25.9508 12.5052 25.9302 12.5069 25.9093C12.4894 25.9274 12.473 25.9429 12.4578 25.9559C12.4425 25.9683 12.4236 25.9839 12.4011 26.0025L12.2596 26.116L12.186 26.0203L12.5213 25.762H12.6382V27ZM13.9803 26.7129H13.7949V27H13.6577V26.7129H13.059V26.5944L13.6484 25.7552H13.7949V26.5859H13.9803V26.7129ZM13.6577 26.5859V26.1812C13.6577 26.1501 13.658 26.1222 13.6585 26.0973C13.6591 26.0719 13.6599 26.0485 13.6611 26.0271C13.6622 26.005 13.663 25.9841 13.6636 25.9644C13.6647 25.9446 13.6656 25.9252 13.6661 25.906H13.6594C13.6486 25.9285 13.6362 25.9525 13.6221 25.9779C13.6086 26.0028 13.5947 26.0251 13.5806 26.0448L13.1987 26.5859H13.6577ZM14.9177 26.3793C14.9177 26.4798 14.9101 26.5696 14.8948 26.6486C14.8796 26.7276 14.8556 26.7945 14.8228 26.8493C14.7901 26.904 14.7478 26.9458 14.6958 26.9746C14.6439 27.0028 14.5815 27.0169 14.5087 27.0169C14.4167 27.0169 14.3405 26.9918 14.2801 26.9416C14.2202 26.8913 14.1753 26.8188 14.1454 26.7239C14.1161 26.6285 14.1014 26.5137 14.1014 26.3793C14.1014 26.2472 14.1147 26.1337 14.1412 26.0389C14.1683 25.9435 14.2118 25.8704 14.2716 25.8196C14.3314 25.7682 14.4105 25.7425 14.5087 25.7425C14.6018 25.7425 14.6786 25.7679 14.739 25.8187C14.7994 25.869 14.8443 25.9418 14.8737 26.0372C14.903 26.1321 14.9177 26.2461 14.9177 26.3793ZM14.2428 26.3793C14.2428 26.4945 14.2516 26.5904 14.2691 26.6672C14.2866 26.744 14.3148 26.8016 14.3537 26.84C14.3932 26.8778 14.4449 26.8967 14.5087 26.8967C14.5725 26.8967 14.6239 26.8778 14.6628 26.84C14.7023 26.8021 14.7308 26.7448 14.7483 26.6681C14.7664 26.5913 14.7754 26.495 14.7754 26.3793C14.7754 26.2658 14.7667 26.171 14.7492 26.0948C14.7317 26.018 14.7035 25.9604 14.6645 25.922C14.6255 25.8831 14.5736 25.8636 14.5087 25.8636C14.4438 25.8636 14.3918 25.8831 14.3529 25.922C14.3139 25.9604 14.2857 26.018 14.2682 26.0948C14.2513 26.171 14.2428 26.2658 14.2428 26.3793ZM15.9101 26.3793C15.9101 26.4798 15.9025 26.5696 15.8872 26.6486C15.872 26.7276 15.848 26.7945 15.8153 26.8493C15.7825 26.904 15.7402 26.9458 15.6883 26.9746C15.6363 27.0028 15.5739 27.0169 15.5011 27.0169C15.4091 27.0169 15.3329 26.9918 15.2725 26.9416C15.2126 26.8913 15.1678 26.8188 15.1378 26.7239C15.1085 26.6285 15.0938 26.5137 15.0938 26.3793C15.0938 26.2472 15.1071 26.1337 15.1336 26.0389C15.1607 25.9435 15.2042 25.8704 15.264 25.8196C15.3239 25.7682 15.4029 25.7425 15.5011 25.7425C15.5943 25.7425 15.671 25.7679 15.7314 25.8187C15.7918 25.869 15.8367 25.9418 15.8661 26.0372C15.8954 26.1321 15.9101 26.2461 15.9101 26.3793ZM15.2352 26.3793C15.2352 26.4945 15.244 26.5904 15.2615 26.6672C15.279 26.744 15.3072 26.8016 15.3462 26.84C15.3857 26.8778 15.4373 26.8967 15.5011 26.8967C15.5649 26.8967 15.6163 26.8778 15.6552 26.84C15.6947 26.8021 15.7233 26.7448 15.7408 26.6681C15.7588 26.5913 15.7679 26.495 15.7679 26.3793C15.7679 26.2658 15.7591 26.171 15.7416 26.0948C15.7241 26.018 15.6959 25.9604 15.6569 25.922C15.618 25.8831 15.566 25.8636 15.5011 25.8636C15.4362 25.8636 15.3843 25.8831 15.3453 25.922C15.3064 25.9604 15.2781 26.018 15.2606 26.0948C15.2437 26.171 15.2352 26.2658 15.2352 26.3793ZM12.6382 30H12.501V29.1227C12.501 29.0894 12.501 29.0609 12.501 29.0372C12.5015 29.0129 12.5021 28.9909 12.5027 28.9712C12.5038 28.9508 12.5052 28.9302 12.5069 28.9093C12.4894 28.9274 12.473 28.9429 12.4578 28.9559C12.4425 28.9683 12.4236 28.9839 12.4011 29.0025L12.2596 29.116L12.186 29.0203L12.5213 28.762H12.6382V30ZM13.8728 29.0508C13.8728 29.1061 13.862 29.1541 13.8406 29.1947C13.8191 29.2354 13.7892 29.2687 13.7508 29.2946C13.7124 29.32 13.6673 29.3378 13.6153 29.348V29.3548C13.7136 29.3672 13.7872 29.3988 13.8363 29.4496C13.886 29.5004 13.9109 29.567 13.9109 29.6494C13.9109 29.7211 13.8939 29.7846 13.8601 29.84C13.8268 29.8953 13.7754 29.9387 13.7059 29.9704C13.6371 30.0014 13.5487 30.0169 13.4409 30.0169C13.3754 30.0169 13.3147 30.0116 13.2588 30.0008C13.2035 29.9907 13.1505 29.9735 13.0996 29.9492V29.8171C13.151 29.8425 13.2069 29.8625 13.2673 29.8772C13.3277 29.8913 13.3861 29.8984 13.4426 29.8984C13.5555 29.8984 13.6371 29.8761 13.6873 29.8315C13.7376 29.7863 13.7627 29.7248 13.7627 29.6469C13.7627 29.5933 13.7486 29.5501 13.7203 29.5173C13.6927 29.484 13.6526 29.4598 13.6001 29.4445C13.5482 29.4287 13.4855 29.4208 13.4121 29.4208H13.2885V29.3006H13.413C13.4801 29.3006 13.5372 29.2907 13.584 29.2709C13.6309 29.2512 13.6664 29.2235 13.6907 29.1879C13.7155 29.1518 13.728 29.1092 13.728 29.0601C13.728 28.9974 13.7071 28.9491 13.6653 28.9153C13.6235 28.8808 13.5668 28.8636 13.4951 28.8636C13.4511 28.8636 13.411 28.8681 13.3749 28.8772C13.3387 28.8862 13.3049 28.8986 13.2732 28.9144C13.2416 28.9302 13.21 28.9486 13.1784 28.9695L13.1073 28.8729C13.1524 28.8379 13.2075 28.8077 13.2724 28.7823C13.3373 28.7569 13.411 28.7442 13.4934 28.7442C13.6199 28.7442 13.7147 28.773 13.7779 28.8306C13.8411 28.8882 13.8728 28.9616 13.8728 29.0508ZM14.9177 29.3793C14.9177 29.4798 14.9101 29.5696 14.8948 29.6486C14.8796 29.7276 14.8556 29.7945 14.8228 29.8493C14.7901 29.904 14.7478 29.9458 14.6958 29.9746C14.6439 30.0028 14.5815 30.0169 14.5087 30.0169C14.4167 30.0169 14.3405 29.9918 14.2801 29.9416C14.2202 29.8913 14.1753 29.8188 14.1454 29.7239C14.1161 29.6285 14.1014 29.5137 14.1014 29.3793C14.1014 29.2472 14.1147 29.1337 14.1412 29.0389C14.1683 28.9435 14.2118 28.8704 14.2716 28.8196C14.3314 28.7682 14.4105 28.7425 14.5087 28.7425C14.6018 28.7425 14.6786 28.7679 14.739 28.8187C14.7994 28.869 14.8443 28.9418 14.8737 29.0372C14.903 29.1321 14.9177 29.2461 14.9177 29.3793ZM14.2428 29.3793C14.2428 29.4945 14.2516 29.5904 14.2691 29.6672C14.2866 29.744 14.3148 29.8016 14.3537 29.84C14.3932 29.8778 14.4449 29.8967 14.5087 29.8967C14.5725 29.8967 14.6239 29.8778 14.6628 29.84C14.7023 29.8021 14.7308 29.7448 14.7483 29.6681C14.7664 29.5913 14.7754 29.495 14.7754 29.3793C14.7754 29.2658 14.7667 29.171 14.7492 29.0948C14.7317 29.018 14.7035 28.9604 14.6645 28.922C14.6255 28.8831 14.5736 28.8636 14.5087 28.8636C14.4438 28.8636 14.3918 28.8831 14.3529 28.922C14.3139 28.9604 14.2857 29.018 14.2682 29.0948C14.2513 29.171 14.2428 29.2658 14.2428 29.3793ZM15.9101 29.3793C15.9101 29.4798 15.9025 29.5696 15.8872 29.6486C15.872 29.7276 15.848 29.7945 15.8153 29.8493C15.7825 29.904 15.7402 29.9458 15.6883 29.9746C15.6363 30.0028 15.5739 30.0169 15.5011 30.0169C15.4091 30.0169 15.3329 29.9918 15.2725 29.9416C15.2126 29.8913 15.1678 29.8188 15.1378 29.7239C15.1085 29.6285 15.0938 29.5137 15.0938 29.3793C15.0938 29.2472 15.1071 29.1337 15.1336 29.0389C15.1607 28.9435 15.2042 28.8704 15.264 28.8196C15.3239 28.7682 15.4029 28.7425 15.5011 28.7425C15.5943 28.7425 15.671 28.7679 15.7314 28.8187C15.7918 28.869 15.8367 28.9418 15.8661 29.0372C15.8954 29.1321 15.9101 29.2461 15.9101 29.3793ZM15.2352 29.3793C15.2352 29.4945 15.244 29.5904 15.2615 29.6672C15.279 29.744 15.3072 29.8016 15.3462 29.84C15.3857 29.8778 15.4373 29.8967 15.5011 29.8967C15.5649 29.8967 15.6163 29.8778 15.6552 29.84C15.6947 29.8021 15.7233 29.7448 15.7408 29.6681C15.7588 29.5913 15.7679 29.495 15.7679 29.3793C15.7679 29.2658 15.7591 29.171 15.7416 29.0948C15.7241 29.018 15.6959 28.9604 15.6569 28.922C15.618 28.8831 15.566 28.8636 15.5011 28.8636C15.4362 28.8636 15.3843 28.8831 15.3453 28.922C15.3064 28.9604 15.2781 29.018 15.2606 29.0948C15.2437 29.171 15.2352 29.2658 15.2352 29.3793ZM12.6382 32H12.501V31.1227C12.501 31.0894 12.501 31.0609 12.501 31.0372C12.5015 31.0129 12.5021 30.9909 12.5027 30.9712C12.5038 30.9508 12.5052 30.9302 12.5069 30.9093C12.4894 30.9274 12.473 30.9429 12.4578 30.9559C12.4425 30.9683 12.4236 30.9839 12.4011 31.0025L12.2596 31.116L12.186 31.0203L12.5213 30.762H12.6382V32ZM13.9185 32H13.1073V31.8823L13.4384 31.5461C13.4999 31.484 13.5515 31.4287 13.5933 31.3802C13.6357 31.3316 13.6678 31.2839 13.6899 31.2371C13.7119 31.1896 13.7229 31.1377 13.7229 31.0812C13.7229 31.0112 13.702 30.9579 13.6602 30.9212C13.619 30.8839 13.5645 30.8653 13.4968 30.8653C13.4375 30.8653 13.385 30.8755 13.3393 30.8958C13.2936 30.9161 13.2467 30.9449 13.1987 30.9822L13.1234 30.8873C13.1561 30.8597 13.1917 30.8351 13.2301 30.8137C13.269 30.7922 13.3105 30.7753 13.3545 30.7629C13.3991 30.7504 13.4465 30.7442 13.4968 30.7442C13.573 30.7442 13.6388 30.7575 13.6941 30.784C13.7494 30.8106 13.792 30.8484 13.822 30.8975C13.8524 30.9466 13.8677 31.005 13.8677 31.0728C13.8677 31.1383 13.8547 31.1992 13.8287 31.2557C13.8028 31.3116 13.7663 31.3672 13.7195 31.4225C13.6726 31.4773 13.6179 31.5354 13.5552 31.5969L13.2859 31.8654V31.8713H13.9185V32ZM14.9177 31.3793C14.9177 31.4798 14.9101 31.5696 14.8948 31.6486C14.8796 31.7276 14.8556 31.7945 14.8228 31.8493C14.7901 31.904 14.7478 31.9458 14.6958 31.9746C14.6439 32.0028 14.5815 32.0169 14.5087 32.0169C14.4167 32.0169 14.3405 31.9918 14.2801 31.9416C14.2202 31.8913 14.1753 31.8188 14.1454 31.7239C14.1161 31.6285 14.1014 31.5137 14.1014 31.3793C14.1014 31.2472 14.1147 31.1337 14.1412 31.0389C14.1683 30.9435 14.2118 30.8704 14.2716 30.8196C14.3314 30.7682 14.4105 30.7425 14.5087 30.7425C14.6018 30.7425 14.6786 30.7679 14.739 30.8187C14.7994 30.869 14.8443 30.9418 14.8737 31.0372C14.903 31.1321 14.9177 31.2461 14.9177 31.3793ZM14.2428 31.3793C14.2428 31.4945 14.2516 31.5904 14.2691 31.6672C14.2866 31.744 14.3148 31.8016 14.3537 31.84C14.3932 31.8778 14.4449 31.8967 14.5087 31.8967C14.5725 31.8967 14.6239 31.8778 14.6628 31.84C14.7023 31.8021 14.7308 31.7448 14.7483 31.6681C14.7664 31.5913 14.7754 31.495 14.7754 31.3793C14.7754 31.2658 14.7667 31.171 14.7492 31.0948C14.7317 31.018 14.7035 30.9604 14.6645 30.922C14.6255 30.8831 14.5736 30.8636 14.5087 30.8636C14.4438 30.8636 14.3918 30.8831 14.3529 30.922C14.3139 30.9604 14.2857 31.018 14.2682 31.0948C14.2513 31.171 14.2428 31.2658 14.2428 31.3793ZM15.9101 31.3793C15.9101 31.4798 15.9025 31.5696 15.8872 31.6486C15.872 31.7276 15.848 31.7945 15.8153 31.8493C15.7825 31.904 15.7402 31.9458 15.6883 31.9746C15.6363 32.0028 15.5739 32.0169 15.5011 32.0169C15.4091 32.0169 15.3329 31.9918 15.2725 31.9416C15.2126 31.8913 15.1678 31.8188 15.1378 31.7239C15.1085 31.6285 15.0938 31.5137 15.0938 31.3793C15.0938 31.2472 15.1071 31.1337 15.1336 31.0389C15.1607 30.9435 15.2042 30.8704 15.264 30.8196C15.3239 30.7682 15.4029 30.7425 15.5011 30.7425C15.5943 30.7425 15.671 30.7679 15.7314 30.8187C15.7918 30.869 15.8367 30.9418 15.8661 31.0372C15.8954 31.1321 15.9101 31.2461 15.9101 31.3793ZM15.2352 31.3793C15.2352 31.4945 15.244 31.5904 15.2615 31.6672C15.279 31.744 15.3072 31.8016 15.3462 31.84C15.3857 31.8778 15.4373 31.8967 15.5011 31.8967C15.5649 31.8967 15.6163 31.8778 15.6552 31.84C15.6947 31.8021 15.7233 31.7448 15.7408 31.6681C15.7588 31.5913 15.7679 31.495 15.7679 31.3793C15.7679 31.2658 15.7591 31.171 15.7416 31.0948C15.7241 31.018 15.6959 30.9604 15.6569 30.922C15.618 30.8831 15.566 30.8636 15.5011 30.8636C15.4362 30.8636 15.3843 30.8831 15.3453 30.922C15.3064 30.9604 15.2781 31.018 15.2606 31.0948C15.2437 31.171 15.2352 31.2658 15.2352 31.3793ZM12.6382 35H12.501V34.1227C12.501 34.0894 12.501 34.0609 12.501 34.0372C12.5015 34.0129 12.5021 33.9909 12.5027 33.9712C12.5038 33.9508 12.5052 33.9302 12.5069 33.9093C12.4894 33.9274 12.473 33.9429 12.4578 33.9559C12.4425 33.9683 12.4236 33.9839 12.4011 34.0025L12.2596 34.116L12.186 34.0203L12.5213 33.762H12.6382V35ZM13.6306 35H13.4934V34.1227C13.4934 34.0894 13.4934 34.0609 13.4934 34.0372C13.494 34.0129 13.4945 33.9909 13.4951 33.9712C13.4962 33.9508 13.4976 33.9302 13.4993 33.9093C13.4818 33.9274 13.4655 33.9429 13.4502 33.9559C13.435 33.9683 13.4161 33.9839 13.3935 34.0025L13.2521 34.116L13.1784 34.0203L13.5137 33.762H13.6306V35ZM14.9177 34.3793C14.9177 34.4798 14.9101 34.5696 14.8948 34.6486C14.8796 34.7276 14.8556 34.7945 14.8228 34.8493C14.7901 34.904 14.7478 34.9458 14.6958 34.9746C14.6439 35.0028 14.5815 35.0169 14.5087 35.0169C14.4167 35.0169 14.3405 34.9918 14.2801 34.9416C14.2202 34.8913 14.1753 34.8188 14.1454 34.7239C14.1161 34.6285 14.1014 34.5137 14.1014 34.3793C14.1014 34.2472 14.1147 34.1337 14.1412 34.0389C14.1683 33.9435 14.2118 33.8704 14.2716 33.8196C14.3314 33.7682 14.4105 33.7425 14.5087 33.7425C14.6018 33.7425 14.6786 33.7679 14.739 33.8187C14.7994 33.869 14.8443 33.9418 14.8737 34.0372C14.903 34.1321 14.9177 34.2461 14.9177 34.3793ZM14.2428 34.3793C14.2428 34.4945 14.2516 34.5904 14.2691 34.6672C14.2866 34.744 14.3148 34.8016 14.3537 34.84C14.3932 34.8778 14.4449 34.8967 14.5087 34.8967C14.5725 34.8967 14.6239 34.8778 14.6628 34.84C14.7023 34.8021 14.7308 34.7448 14.7483 34.6681C14.7664 34.5913 14.7754 34.495 14.7754 34.3793C14.7754 34.2658 14.7667 34.171 14.7492 34.0948C14.7317 34.018 14.7035 33.9604 14.6645 33.922C14.6255 33.8831 14.5736 33.8636 14.5087 33.8636C14.4438 33.8636 14.3918 33.8831 14.3529 33.922C14.3139 33.9604 14.2857 34.018 14.2682 34.0948C14.2513 34.171 14.2428 34.2658 14.2428 34.3793ZM15.9101 34.3793C15.9101 34.4798 15.9025 34.5696 15.8872 34.6486C15.872 34.7276 15.848 34.7945 15.8153 34.8493C15.7825 34.904 15.7402 34.9458 15.6883 34.9746C15.6363 35.0028 15.5739 35.0169 15.5011 35.0169C15.4091 35.0169 15.3329 34.9918 15.2725 34.9416C15.2126 34.8913 15.1678 34.8188 15.1378 34.7239C15.1085 34.6285 15.0938 34.5137 15.0938 34.3793C15.0938 34.2472 15.1071 34.1337 15.1336 34.0389C15.1607 33.9435 15.2042 33.8704 15.264 33.8196C15.3239 33.7682 15.4029 33.7425 15.5011 33.7425C15.5943 33.7425 15.671 33.7679 15.7314 33.8187C15.7918 33.869 15.8367 33.9418 15.8661 34.0372C15.8954 34.1321 15.9101 34.2461 15.9101 34.3793ZM15.2352 34.3793C15.2352 34.4945 15.244 34.5904 15.2615 34.6672C15.279 34.744 15.3072 34.8016 15.3462 34.84C15.3857 34.8778 15.4373 34.8967 15.5011 34.8967C15.5649 34.8967 15.6163 34.8778 15.6552 34.84C15.6947 34.8021 15.7233 34.7448 15.7408 34.6681C15.7588 34.5913 15.7679 34.495 15.7679 34.3793C15.7679 34.2658 15.7591 34.171 15.7416 34.0948C15.7241 34.018 15.6959 33.9604 15.6569 33.922C15.618 33.8831 15.566 33.8636 15.5011 33.8636C15.4362 33.8636 15.3843 33.8831 15.3453 33.922C15.3064 33.9604 15.2781 34.018 15.2606 34.0948C15.2437 34.171 15.2352 34.2658 15.2352 34.3793ZM12.6382 38H12.501V37.1227C12.501 37.0894 12.501 37.0609 12.501 37.0372C12.5015 37.0129 12.5021 36.9909 12.5027 36.9712C12.5038 36.9508 12.5052 36.9302 12.5069 36.9093C12.4894 36.9274 12.473 36.9429 12.4578 36.9559C12.4425 36.9683 12.4236 36.9839 12.4011 37.0025L12.2596 37.116L12.186 37.0203L12.5213 36.762H12.6382V38ZM13.9253 37.3793C13.9253 37.4798 13.9176 37.5696 13.9024 37.6486C13.8872 37.7276 13.8632 37.7945 13.8304 37.8493C13.7977 37.904 13.7553 37.9458 13.7034 37.9746C13.6515 38.0028 13.5891 38.0169 13.5163 38.0169C13.4242 38.0169 13.348 37.9918 13.2876 37.9416C13.2278 37.8913 13.1829 37.8188 13.153 37.7239C13.1236 37.6285 13.109 37.5137 13.109 37.3793C13.109 37.2472 13.1222 37.1337 13.1488 37.0389C13.1759 36.9435 13.2193 36.8704 13.2792 36.8196C13.339 36.7682 13.418 36.7425 13.5163 36.7425C13.6094 36.7425 13.6862 36.7679 13.7466 36.8187C13.807 36.869 13.8519 36.9418 13.8812 37.0372C13.9106 37.1321 13.9253 37.2461 13.9253 37.3793ZM13.2504 37.3793C13.2504 37.4945 13.2591 37.5904 13.2766 37.6672C13.2941 37.744 13.3224 37.8016 13.3613 37.84C13.4008 37.8778 13.4525 37.8967 13.5163 37.8967C13.5801 37.8967 13.6314 37.8778 13.6704 37.84C13.7099 37.8021 13.7384 37.7448 13.7559 37.6681C13.774 37.5913 13.783 37.495 13.783 37.3793C13.783 37.2658 13.7743 37.171 13.7568 37.0948C13.7393 37.018 13.711 36.9604 13.6721 36.922C13.6331 36.8831 13.5812 36.8636 13.5163 36.8636C13.4513 36.8636 13.3994 36.8831 13.3605 36.922C13.3215 36.9604 13.2933 37.018 13.2758 37.0948C13.2588 37.171 13.2504 37.2658 13.2504 37.3793ZM14.9177 37.3793C14.9177 37.4798 14.9101 37.5696 14.8948 37.6486C14.8796 37.7276 14.8556 37.7945 14.8228 37.8493C14.7901 37.904 14.7478 37.9458 14.6958 37.9746C14.6439 38.0028 14.5815 38.0169 14.5087 38.0169C14.4167 38.0169 14.3405 37.9918 14.2801 37.9416C14.2202 37.8913 14.1753 37.8188 14.1454 37.7239C14.1161 37.6285 14.1014 37.5137 14.1014 37.3793C14.1014 37.2472 14.1147 37.1337 14.1412 37.0389C14.1683 36.9435 14.2118 36.8704 14.2716 36.8196C14.3314 36.7682 14.4105 36.7425 14.5087 36.7425C14.6018 36.7425 14.6786 36.7679 14.739 36.8187C14.7994 36.869 14.8443 36.9418 14.8737 37.0372C14.903 37.1321 14.9177 37.2461 14.9177 37.3793ZM14.2428 37.3793C14.2428 37.4945 14.2516 37.5904 14.2691 37.6672C14.2866 37.744 14.3148 37.8016 14.3537 37.84C14.3932 37.8778 14.4449 37.8967 14.5087 37.8967C14.5725 37.8967 14.6239 37.8778 14.6628 37.84C14.7023 37.8021 14.7308 37.7448 14.7483 37.6681C14.7664 37.5913 14.7754 37.495 14.7754 37.3793C14.7754 37.2658 14.7667 37.171 14.7492 37.0948C14.7317 37.018 14.7035 36.9604 14.6645 36.922C14.6255 36.8831 14.5736 36.8636 14.5087 36.8636C14.4438 36.8636 14.3918 36.8831 14.3529 36.922C14.3139 36.9604 14.2857 37.018 14.2682 37.0948C14.2513 37.171 14.2428 37.2658 14.2428 37.3793ZM15.9101 37.3793C15.9101 37.4798 15.9025 37.5696 15.8872 37.6486C15.872 37.7276 15.848 37.7945 15.8153 37.8493C15.7825 37.904 15.7402 37.9458 15.6883 37.9746C15.6363 38.0028 15.5739 38.0169 15.5011 38.0169C15.4091 38.0169 15.3329 37.9918 15.2725 37.9416C15.2126 37.8913 15.1678 37.8188 15.1378 37.7239C15.1085 37.6285 15.0938 37.5137 15.0938 37.3793C15.0938 37.2472 15.1071 37.1337 15.1336 37.0389C15.1607 36.9435 15.2042 36.8704 15.264 36.8196C15.3239 36.7682 15.4029 36.7425 15.5011 36.7425C15.5943 36.7425 15.671 36.7679 15.7314 36.8187C15.7918 36.869 15.8367 36.9418 15.8661 37.0372C15.8954 37.1321 15.9101 37.2461 15.9101 37.3793ZM15.2352 37.3793C15.2352 37.4945 15.244 37.5904 15.2615 37.6672C15.279 37.744 15.3072 37.8016 15.3462 37.84C15.3857 37.8778 15.4373 37.8967 15.5011 37.8967C15.5649 37.8967 15.6163 37.8778 15.6552 37.84C15.6947 37.8021 15.7233 37.7448 15.7408 37.6681C15.7588 37.5913 15.7679 37.495 15.7679 37.3793C15.7679 37.2658 15.7591 37.171 15.7416 37.0948C15.7241 37.018 15.6959 36.9604 15.6569 36.922C15.618 36.8831 15.566 36.8636 15.5011 36.8636C15.4362 36.8636 15.3843 36.8831 15.3453 36.922C15.3064 36.9604 15.2781 37.018 15.2606 37.0948C15.2437 37.171 15.2352 37.2658 15.2352 37.3793ZM13.9202 40.2896C13.9202 40.3646 13.9148 40.4377 13.9041 40.5089C13.8939 40.58 13.8761 40.6463 13.8507 40.7079C13.8259 40.7694 13.792 40.8233 13.7491 40.8696C13.7062 40.9159 13.6523 40.9523 13.5874 40.9788C13.523 41.0048 13.446 41.0178 13.3562 41.0178C13.3319 41.0178 13.3043 41.0161 13.2732 41.0127C13.2422 41.0099 13.2168 41.0056 13.197 41V40.8781C13.2179 40.8854 13.2425 40.8913 13.2707 40.8958C13.2989 40.8998 13.3266 40.9018 13.3537 40.9018C13.4592 40.9018 13.5422 40.8792 13.6026 40.834C13.663 40.7883 13.7065 40.7265 13.733 40.6486C13.7596 40.5701 13.7745 40.4821 13.7779 40.3844H13.7678C13.7508 40.4115 13.7285 40.4366 13.7009 40.4598C13.6738 40.4823 13.6407 40.5007 13.6018 40.5148C13.5628 40.5283 13.5174 40.5351 13.4655 40.5351C13.3938 40.5351 13.3311 40.5204 13.2775 40.4911C13.2244 40.4617 13.1829 40.4191 13.153 40.3632C13.1236 40.3073 13.109 40.2399 13.109 40.1608C13.109 40.0756 13.1251 40.0019 13.1572 39.9398C13.19 39.8772 13.2357 39.8289 13.2944 39.795C13.3531 39.7612 13.4223 39.7442 13.5019 39.7442C13.5628 39.7442 13.6187 39.7558 13.6695 39.7789C13.7203 39.8021 13.7644 39.8368 13.8016 39.8831C13.8395 39.9288 13.8685 39.9856 13.8888 40.0533C13.9097 40.121 13.9202 40.1998 13.9202 40.2896ZM13.5019 39.8636C13.4268 39.8636 13.3658 39.8882 13.319 39.9373C13.2727 39.9864 13.2495 40.0604 13.2495 40.1591C13.2495 40.241 13.2696 40.3056 13.3097 40.3531C13.3497 40.4005 13.4115 40.4242 13.4951 40.4242C13.5527 40.4242 13.6024 40.4126 13.6441 40.3895C13.6865 40.3663 13.7189 40.337 13.7415 40.3014C13.7647 40.2658 13.7762 40.2294 13.7762 40.1922C13.7762 40.1549 13.7706 40.1171 13.7593 40.0787C13.7486 40.0403 13.7319 40.005 13.7093 39.9729C13.6868 39.9401 13.6582 39.9139 13.6238 39.8941C13.5894 39.8738 13.5487 39.8636 13.5019 39.8636ZM14.9177 40.3793C14.9177 40.4798 14.9101 40.5696 14.8948 40.6486C14.8796 40.7276 14.8556 40.7945 14.8228 40.8493C14.7901 40.904 14.7478 40.9458 14.6958 40.9746C14.6439 41.0028 14.5815 41.0169 14.5087 41.0169C14.4167 41.0169 14.3405 40.9918 14.2801 40.9416C14.2202 40.8913 14.1753 40.8188 14.1454 40.7239C14.1161 40.6285 14.1014 40.5137 14.1014 40.3793C14.1014 40.2472 14.1147 40.1337 14.1412 40.0389C14.1683 39.9435 14.2118 39.8704 14.2716 39.8196C14.3314 39.7682 14.4105 39.7425 14.5087 39.7425C14.6018 39.7425 14.6786 39.7679 14.739 39.8187C14.7994 39.869 14.8443 39.9418 14.8737 40.0372C14.903 40.1321 14.9177 40.2461 14.9177 40.3793ZM14.2428 40.3793C14.2428 40.4945 14.2516 40.5904 14.2691 40.6672C14.2866 40.744 14.3148 40.8016 14.3537 40.84C14.3932 40.8778 14.4449 40.8967 14.5087 40.8967C14.5725 40.8967 14.6239 40.8778 14.6628 40.84C14.7023 40.8021 14.7308 40.7448 14.7483 40.6681C14.7664 40.5913 14.7754 40.495 14.7754 40.3793C14.7754 40.2658 14.7667 40.171 14.7492 40.0948C14.7317 40.018 14.7035 39.9604 14.6645 39.922C14.6255 39.8831 14.5736 39.8636 14.5087 39.8636C14.4438 39.8636 14.3918 39.8831 14.3529 39.922C14.3139 39.9604 14.2857 40.018 14.2682 40.0948C14.2513 40.171 14.2428 40.2658 14.2428 40.3793ZM15.9101 40.3793C15.9101 40.4798 15.9025 40.5696 15.8872 40.6486C15.872 40.7276 15.848 40.7945 15.8153 40.8493C15.7825 40.904 15.7402 40.9458 15.6883 40.9746C15.6363 41.0028 15.5739 41.0169 15.5011 41.0169C15.4091 41.0169 15.3329 40.9918 15.2725 40.9416C15.2126 40.8913 15.1678 40.8188 15.1378 40.7239C15.1085 40.6285 15.0938 40.5137 15.0938 40.3793C15.0938 40.2472 15.1071 40.1337 15.1336 40.0389C15.1607 39.9435 15.2042 39.8704 15.264 39.8196C15.3239 39.7682 15.4029 39.7425 15.5011 39.7425C15.5943 39.7425 15.671 39.7679 15.7314 39.8187C15.7918 39.869 15.8367 39.9418 15.8661 40.0372C15.8954 40.1321 15.9101 40.2461 15.9101 40.3793ZM15.2352 40.3793C15.2352 40.4945 15.244 40.5904 15.2615 40.6672C15.279 40.744 15.3072 40.8016 15.3462 40.84C15.3857 40.8778 15.4373 40.8967 15.5011 40.8967C15.5649 40.8967 15.6163 40.8778 15.6552 40.84C15.6947 40.8021 15.7233 40.7448 15.7408 40.6681C15.7588 40.5913 15.7679 40.495 15.7679 40.3793C15.7679 40.2658 15.7591 40.171 15.7416 40.0948C15.7241 40.018 15.6959 39.9604 15.6569 39.922C15.618 39.8831 15.566 39.8636 15.5011 39.8636C15.4362 39.8636 15.3843 39.8831 15.3453 39.922C15.3064 39.9604 15.2781 40.018 15.2606 40.0948C15.2437 40.171 15.2352 40.2658 15.2352 40.3793ZM13.5163 41.7442C13.588 41.7442 13.6515 41.7555 13.7068 41.7781C13.7621 41.8007 13.8053 41.834 13.8363 41.878C13.868 41.9215 13.8838 41.9751 13.8838 42.0389C13.8838 42.0891 13.8728 42.1332 13.8507 42.171C13.8293 42.2083 13.8002 42.241 13.7635 42.2692C13.7268 42.2969 13.6862 42.3217 13.6416 42.3437C13.6947 42.368 13.7424 42.3954 13.7847 42.4259C13.8276 42.4564 13.8615 42.4922 13.8863 42.5334C13.9111 42.5746 13.9236 42.6235 13.9236 42.6799C13.9236 42.7494 13.9066 42.8095 13.8728 42.8603C13.8395 42.9105 13.7926 42.9492 13.7322 42.9763C13.6718 43.0034 13.6009 43.0169 13.5197 43.0169C13.4322 43.0169 13.3576 43.004 13.2961 42.978C13.2351 42.9515 13.1886 42.9136 13.1564 42.8645C13.1248 42.8148 13.109 42.7553 13.109 42.6858C13.109 42.6288 13.1211 42.5794 13.1454 42.5377C13.1697 42.4953 13.2018 42.4589 13.2419 42.4284C13.282 42.3979 13.3257 42.3723 13.3732 42.3514C13.3319 42.3288 13.2941 42.3031 13.2597 42.2743C13.2258 42.2455 13.1987 42.2119 13.1784 42.1735C13.1586 42.1346 13.1488 42.0894 13.1488 42.0381C13.1488 41.9754 13.1646 41.9223 13.1962 41.8789C13.2284 41.8348 13.2721 41.8015 13.3274 41.7789C13.3833 41.7558 13.4463 41.7442 13.5163 41.7442ZM13.247 42.6867C13.247 42.7499 13.2693 42.8021 13.3139 42.8433C13.3585 42.884 13.4259 42.9043 13.5163 42.9043C13.6021 42.9043 13.6684 42.884 13.7153 42.8433C13.7621 42.8021 13.7855 42.7482 13.7855 42.6816C13.7855 42.6404 13.7748 42.6043 13.7534 42.5732C13.7319 42.5416 13.7014 42.5134 13.6619 42.4885C13.6224 42.4637 13.5758 42.4411 13.5222 42.4208L13.4917 42.4098C13.4398 42.4312 13.3955 42.4552 13.3588 42.4818C13.3226 42.5077 13.295 42.5374 13.2758 42.5707C13.2566 42.604 13.247 42.6427 13.247 42.6867ZM13.5146 41.8594C13.448 41.8594 13.3935 41.8755 13.3511 41.9077C13.3088 41.9393 13.2876 41.985 13.2876 42.0448C13.2876 42.0877 13.2978 42.1241 13.3181 42.1541C13.339 42.1834 13.3672 42.2088 13.4028 42.2303C13.4384 42.2512 13.4782 42.2706 13.5222 42.2887C13.5651 42.2706 13.6032 42.2509 13.6365 42.2294C13.6698 42.2074 13.6961 42.1814 13.7153 42.1515C13.7345 42.1216 13.744 42.0858 13.744 42.044C13.744 41.9841 13.7229 41.9384 13.6805 41.9068C13.6388 41.8752 13.5834 41.8594 13.5146 41.8594ZM14.9177 42.3793C14.9177 42.4798 14.9101 42.5696 14.8948 42.6486C14.8796 42.7276 14.8556 42.7945 14.8228 42.8493C14.7901 42.904 14.7478 42.9458 14.6958 42.9746C14.6439 43.0028 14.5815 43.0169 14.5087 43.0169C14.4167 43.0169 14.3405 42.9918 14.2801 42.9416C14.2202 42.8913 14.1753 42.8188 14.1454 42.7239C14.1161 42.6285 14.1014 42.5137 14.1014 42.3793C14.1014 42.2472 14.1147 42.1337 14.1412 42.0389C14.1683 41.9435 14.2118 41.8704 14.2716 41.8196C14.3314 41.7682 14.4105 41.7425 14.5087 41.7425C14.6018 41.7425 14.6786 41.7679 14.739 41.8187C14.7994 41.869 14.8443 41.9418 14.8737 42.0372C14.903 42.1321 14.9177 42.2461 14.9177 42.3793ZM14.2428 42.3793C14.2428 42.4945 14.2516 42.5904 14.2691 42.6672C14.2866 42.744 14.3148 42.8016 14.3537 42.84C14.3932 42.8778 14.4449 42.8967 14.5087 42.8967C14.5725 42.8967 14.6239 42.8778 14.6628 42.84C14.7023 42.8021 14.7308 42.7448 14.7483 42.6681C14.7664 42.5913 14.7754 42.495 14.7754 42.3793C14.7754 42.2658 14.7667 42.171 14.7492 42.0948C14.7317 42.018 14.7035 41.9604 14.6645 41.922C14.6255 41.8831 14.5736 41.8636 14.5087 41.8636C14.4438 41.8636 14.3918 41.8831 14.3529 41.922C14.3139 41.9604 14.2857 42.018 14.2682 42.0948C14.2513 42.171 14.2428 42.2658 14.2428 42.3793ZM15.9101 42.3793C15.9101 42.4798 15.9025 42.5696 15.8872 42.6486C15.872 42.7276 15.848 42.7945 15.8153 42.8493C15.7825 42.904 15.7402 42.9458 15.6883 42.9746C15.6363 43.0028 15.5739 43.0169 15.5011 43.0169C15.4091 43.0169 15.3329 42.9918 15.2725 42.9416C15.2126 42.8913 15.1678 42.8188 15.1378 42.7239C15.1085 42.6285 15.0938 42.5137 15.0938 42.3793C15.0938 42.2472 15.1071 42.1337 15.1336 42.0389C15.1607 41.9435 15.2042 41.8704 15.264 41.8196C15.3239 41.7682 15.4029 41.7425 15.5011 41.7425C15.5943 41.7425 15.671 41.7679 15.7314 41.8187C15.7918 41.869 15.8367 41.9418 15.8661 42.0372C15.8954 42.1321 15.9101 42.2461 15.9101 42.3793ZM15.2352 42.3793C15.2352 42.4945 15.244 42.5904 15.2615 42.6672C15.279 42.744 15.3072 42.8016 15.3462 42.84C15.3857 42.8778 15.4373 42.8967 15.5011 42.8967C15.5649 42.8967 15.6163 42.8778 15.6552 42.84C15.6947 42.8021 15.7233 42.7448 15.7408 42.6681C15.7588 42.5913 15.7679 42.495 15.7679 42.3793C15.7679 42.2658 15.7591 42.171 15.7416 42.0948C15.7241 42.018 15.6959 41.9604 15.6569 41.922C15.618 41.8831 15.566 41.8636 15.5011 41.8636C15.4362 41.8636 15.3843 41.8831 15.3453 41.922C15.3064 41.9604 15.2781 42.018 15.2606 42.0948C15.2437 42.171 15.2352 42.2658 15.2352 42.3793ZM13.2673 46L13.7754 44.8907H13.1005V44.762H13.9261V44.8704L13.4214 46H13.2673ZM14.9177 45.3793C14.9177 45.4798 14.9101 45.5696 14.8948 45.6486C14.8796 45.7276 14.8556 45.7945 14.8228 45.8493C14.7901 45.904 14.7478 45.9458 14.6958 45.9746C14.6439 46.0028 14.5815 46.0169 14.5087 46.0169C14.4167 46.0169 14.3405 45.9918 14.2801 45.9416C14.2202 45.8913 14.1753 45.8188 14.1454 45.7239C14.1161 45.6285 14.1014 45.5137 14.1014 45.3793C14.1014 45.2472 14.1147 45.1337 14.1412 45.0389C14.1683 44.9435 14.2118 44.8704 14.2716 44.8196C14.3314 44.7682 14.4105 44.7425 14.5087 44.7425C14.6018 44.7425 14.6786 44.7679 14.739 44.8187C14.7994 44.869 14.8443 44.9418 14.8737 45.0372C14.903 45.1321 14.9177 45.2461 14.9177 45.3793ZM14.2428 45.3793C14.2428 45.4945 14.2516 45.5904 14.2691 45.6672C14.2866 45.744 14.3148 45.8016 14.3537 45.84C14.3932 45.8778 14.4449 45.8967 14.5087 45.8967C14.5725 45.8967 14.6239 45.8778 14.6628 45.84C14.7023 45.8021 14.7308 45.7448 14.7483 45.6681C14.7664 45.5913 14.7754 45.495 14.7754 45.3793C14.7754 45.2658 14.7667 45.171 14.7492 45.0948C14.7317 45.018 14.7035 44.9604 14.6645 44.922C14.6255 44.8831 14.5736 44.8636 14.5087 44.8636C14.4438 44.8636 14.3918 44.8831 14.3529 44.922C14.3139 44.9604 14.2857 45.018 14.2682 45.0948C14.2513 45.171 14.2428 45.2658 14.2428 45.3793ZM15.9101 45.3793C15.9101 45.4798 15.9025 45.5696 15.8872 45.6486C15.872 45.7276 15.848 45.7945 15.8153 45.8493C15.7825 45.904 15.7402 45.9458 15.6883 45.9746C15.6363 46.0028 15.5739 46.0169 15.5011 46.0169C15.4091 46.0169 15.3329 45.9918 15.2725 45.9416C15.2126 45.8913 15.1678 45.8188 15.1378 45.7239C15.1085 45.6285 15.0938 45.5137 15.0938 45.3793C15.0938 45.2472 15.1071 45.1337 15.1336 45.0389C15.1607 44.9435 15.2042 44.8704 15.264 44.8196C15.3239 44.7682 15.4029 44.7425 15.5011 44.7425C15.5943 44.7425 15.671 44.7679 15.7314 44.8187C15.7918 44.869 15.8367 44.9418 15.8661 45.0372C15.8954 45.1321 15.9101 45.2461 15.9101 45.3793ZM15.2352 45.3793C15.2352 45.4945 15.244 45.5904 15.2615 45.6672C15.279 45.744 15.3072 45.8016 15.3462 45.84C15.3857 45.8778 15.4373 45.8967 15.5011 45.8967C15.5649 45.8967 15.6163 45.8778 15.6552 45.84C15.6947 45.8021 15.7233 45.7448 15.7408 45.6681C15.7588 45.5913 15.7679 45.495 15.7679 45.3793C15.7679 45.2658 15.7591 45.171 15.7416 45.0948C15.7241 45.018 15.6959 44.9604 15.6569 44.922C15.618 44.8831 15.566 44.8636 15.5011 44.8636C15.4362 44.8636 15.3843 44.8831 15.3453 44.922C15.3064 44.9604 15.2781 45.018 15.2606 45.0948C15.2437 45.171 15.2352 45.2658 15.2352 45.3793ZM13.12 48.4708C13.12 48.3962 13.1251 48.3234 13.1352 48.2523C13.1459 48.1812 13.1637 48.1151 13.1886 48.0541C13.2134 47.9926 13.2473 47.9387 13.2902 47.8924C13.3331 47.8461 13.3864 47.81 13.4502 47.784C13.5146 47.7575 13.5916 47.7442 13.6814 47.7442C13.7068 47.7442 13.7342 47.7456 13.7635 47.7485C13.7929 47.7507 13.8172 47.7547 13.8363 47.7603V47.8814C13.8155 47.8741 13.7915 47.8687 13.7644 47.8653C13.7378 47.8619 13.711 47.8602 13.6839 47.8602C13.5789 47.8602 13.4962 47.8831 13.4358 47.9288C13.376 47.9745 13.3328 48.0366 13.3063 48.1151C13.2797 48.193 13.2645 48.2808 13.2605 48.3785H13.2699C13.2874 48.3502 13.3097 48.3248 13.3367 48.3023C13.3638 48.2791 13.3966 48.2608 13.435 48.2472C13.4739 48.2337 13.5191 48.2269 13.5705 48.2269C13.6427 48.2269 13.7057 48.2416 13.7593 48.2709C13.8135 48.3003 13.8553 48.3429 13.8846 48.3988C13.9145 48.4547 13.9295 48.5224 13.9295 48.602C13.9295 48.6873 13.9137 48.7609 13.8821 48.823C13.8505 48.8851 13.8053 48.9331 13.7466 48.967C13.6884 49.0003 13.619 49.0169 13.5383 49.0169C13.4779 49.0169 13.4223 49.0054 13.3715 48.9822C13.3207 48.9591 13.2763 48.9246 13.2385 48.8789C13.2013 48.8332 13.1722 48.7765 13.1513 48.7087C13.1304 48.6404 13.12 48.5611 13.12 48.4708ZM13.5366 48.8984C13.6134 48.8984 13.6749 48.8738 13.7212 48.8247C13.7675 48.7756 13.7906 48.7014 13.7906 48.602C13.7906 48.5207 13.77 48.4564 13.7288 48.4089C13.6876 48.3615 13.6255 48.3378 13.5425 48.3378C13.4861 48.3378 13.437 48.3497 13.3952 48.3734C13.3534 48.3965 13.3209 48.4259 13.2978 48.4614C13.2747 48.497 13.2631 48.5331 13.2631 48.5698C13.2631 48.6071 13.2684 48.6449 13.2792 48.6833C13.2905 48.7217 13.3074 48.7573 13.33 48.79C13.3526 48.8227 13.3811 48.849 13.4155 48.8687C13.4499 48.8885 13.4903 48.8984 13.5366 48.8984ZM14.9177 48.3793C14.9177 48.4798 14.9101 48.5696 14.8948 48.6486C14.8796 48.7276 14.8556 48.7945 14.8228 48.8493C14.7901 48.904 14.7478 48.9458 14.6958 48.9746C14.6439 49.0028 14.5815 49.0169 14.5087 49.0169C14.4167 49.0169 14.3405 48.9918 14.2801 48.9416C14.2202 48.8913 14.1753 48.8188 14.1454 48.7239C14.1161 48.6285 14.1014 48.5137 14.1014 48.3793C14.1014 48.2472 14.1147 48.1337 14.1412 48.0389C14.1683 47.9435 14.2118 47.8704 14.2716 47.8196C14.3314 47.7682 14.4105 47.7425 14.5087 47.7425C14.6018 47.7425 14.6786 47.7679 14.739 47.8187C14.7994 47.869 14.8443 47.9418 14.8737 48.0372C14.903 48.1321 14.9177 48.2461 14.9177 48.3793ZM14.2428 48.3793C14.2428 48.4945 14.2516 48.5904 14.2691 48.6672C14.2866 48.744 14.3148 48.8016 14.3537 48.84C14.3932 48.8778 14.4449 48.8967 14.5087 48.8967C14.5725 48.8967 14.6239 48.8778 14.6628 48.84C14.7023 48.8021 14.7308 48.7448 14.7483 48.6681C14.7664 48.5913 14.7754 48.495 14.7754 48.3793C14.7754 48.2658 14.7667 48.171 14.7492 48.0948C14.7317 48.018 14.7035 47.9604 14.6645 47.922C14.6255 47.8831 14.5736 47.8636 14.5087 47.8636C14.4438 47.8636 14.3918 47.8831 14.3529 47.922C14.3139 47.9604 14.2857 48.018 14.2682 48.0948C14.2513 48.171 14.2428 48.2658 14.2428 48.3793ZM15.9101 48.3793C15.9101 48.4798 15.9025 48.5696 15.8872 48.6486C15.872 48.7276 15.848 48.7945 15.8153 48.8493C15.7825 48.904 15.7402 48.9458 15.6883 48.9746C15.6363 49.0028 15.5739 49.0169 15.5011 49.0169C15.4091 49.0169 15.3329 48.9918 15.2725 48.9416C15.2126 48.8913 15.1678 48.8188 15.1378 48.7239C15.1085 48.6285 15.0938 48.5137 15.0938 48.3793C15.0938 48.2472 15.1071 48.1337 15.1336 48.0389C15.1607 47.9435 15.2042 47.8704 15.264 47.8196C15.3239 47.7682 15.4029 47.7425 15.5011 47.7425C15.5943 47.7425 15.671 47.7679 15.7314 47.8187C15.7918 47.869 15.8367 47.9418 15.8661 48.0372C15.8954 48.1321 15.9101 48.2461 15.9101 48.3793ZM15.2352 48.3793C15.2352 48.4945 15.244 48.5904 15.2615 48.6672C15.279 48.744 15.3072 48.8016 15.3462 48.84C15.3857 48.8778 15.4373 48.8967 15.5011 48.8967C15.5649 48.8967 15.6163 48.8778 15.6552 48.84C15.6947 48.8021 15.7233 48.7448 15.7408 48.6681C15.7588 48.5913 15.7679 48.495 15.7679 48.3793C15.7679 48.2658 15.7591 48.171 15.7416 48.0948C15.7241 48.018 15.6959 47.9604 15.6569 47.922C15.618 47.8831 15.566 47.8636 15.5011 47.8636C15.4362 47.8636 15.3843 47.8831 15.3453 47.922C15.3064 47.9604 15.2781 48.018 15.2606 48.0948C15.2437 48.171 15.2352 48.2658 15.2352 48.3793ZM13.4985 51.243C13.5826 51.243 13.6557 51.2574 13.7178 51.2862C13.7799 51.3144 13.8279 51.3556 13.8618 51.4098C13.8962 51.464 13.9134 51.5298 13.9134 51.6071C13.9134 51.6918 13.8951 51.7649 13.8584 51.8264C13.8217 51.8874 13.7689 51.9345 13.7 51.9678C13.6311 52.0006 13.5487 52.0169 13.4528 52.0169C13.3884 52.0169 13.3286 52.0113 13.2732 52C13.2179 51.9887 13.1713 51.9718 13.1335 51.9492V51.8154C13.1747 51.8402 13.2247 51.86 13.2834 51.8747C13.3421 51.8894 13.3991 51.8967 13.4545 51.8967C13.5171 51.8967 13.5719 51.8868 13.6187 51.8671C13.6661 51.8467 13.7028 51.8162 13.7288 51.7756C13.7553 51.7344 13.7686 51.6827 13.7686 51.6206C13.7686 51.5382 13.7432 51.4747 13.6924 51.4301C13.6422 51.385 13.5626 51.3624 13.4536 51.3624C13.4186 51.3624 13.3802 51.3652 13.3384 51.3708C13.2967 51.3765 13.2622 51.3827 13.2351 51.3895L13.164 51.3429L13.2114 50.762H13.827V50.8907H13.3317L13.3003 51.2641C13.3218 51.2596 13.3494 51.2551 13.3833 51.2506C13.4172 51.2455 13.4556 51.243 13.4985 51.243ZM14.9177 51.3793C14.9177 51.4798 14.9101 51.5696 14.8948 51.6486C14.8796 51.7276 14.8556 51.7945 14.8228 51.8493C14.7901 51.904 14.7478 51.9458 14.6958 51.9746C14.6439 52.0028 14.5815 52.0169 14.5087 52.0169C14.4167 52.0169 14.3405 51.9918 14.2801 51.9416C14.2202 51.8913 14.1753 51.8188 14.1454 51.7239C14.1161 51.6285 14.1014 51.5137 14.1014 51.3793C14.1014 51.2472 14.1147 51.1337 14.1412 51.0389C14.1683 50.9435 14.2118 50.8704 14.2716 50.8196C14.3314 50.7682 14.4105 50.7425 14.5087 50.7425C14.6018 50.7425 14.6786 50.7679 14.739 50.8187C14.7994 50.869 14.8443 50.9418 14.8737 51.0372C14.903 51.1321 14.9177 51.2461 14.9177 51.3793ZM14.2428 51.3793C14.2428 51.4945 14.2516 51.5904 14.2691 51.6672C14.2866 51.744 14.3148 51.8016 14.3537 51.84C14.3932 51.8778 14.4449 51.8967 14.5087 51.8967C14.5725 51.8967 14.6239 51.8778 14.6628 51.84C14.7023 51.8021 14.7308 51.7448 14.7483 51.6681C14.7664 51.5913 14.7754 51.495 14.7754 51.3793C14.7754 51.2658 14.7667 51.171 14.7492 51.0948C14.7317 51.018 14.7035 50.9604 14.6645 50.922C14.6255 50.8831 14.5736 50.8636 14.5087 50.8636C14.4438 50.8636 14.3918 50.8831 14.3529 50.922C14.3139 50.9604 14.2857 51.018 14.2682 51.0948C14.2513 51.171 14.2428 51.2658 14.2428 51.3793ZM15.9101 51.3793C15.9101 51.4798 15.9025 51.5696 15.8872 51.6486C15.872 51.7276 15.848 51.7945 15.8153 51.8493C15.7825 51.904 15.7402 51.9458 15.6883 51.9746C15.6363 52.0028 15.5739 52.0169 15.5011 52.0169C15.4091 52.0169 15.3329 51.9918 15.2725 51.9416C15.2126 51.8913 15.1678 51.8188 15.1378 51.7239C15.1085 51.6285 15.0938 51.5137 15.0938 51.3793C15.0938 51.2472 15.1071 51.1337 15.1336 51.0389C15.1607 50.9435 15.2042 50.8704 15.264 50.8196C15.3239 50.7682 15.4029 50.7425 15.5011 50.7425C15.5943 50.7425 15.671 50.7679 15.7314 50.8187C15.7918 50.869 15.8367 50.9418 15.8661 51.0372C15.8954 51.1321 15.9101 51.2461 15.9101 51.3793ZM15.2352 51.3793C15.2352 51.4945 15.244 51.5904 15.2615 51.6672C15.279 51.744 15.3072 51.8016 15.3462 51.84C15.3857 51.8778 15.4373 51.8967 15.5011 51.8967C15.5649 51.8967 15.6163 51.8778 15.6552 51.84C15.6947 51.8021 15.7233 51.7448 15.7408 51.6681C15.7588 51.5913 15.7679 51.495 15.7679 51.3793C15.7679 51.2658 15.7591 51.171 15.7416 51.0948C15.7241 51.018 15.6959 50.9604 15.6569 50.922C15.618 50.8831 15.566 50.8636 15.5011 50.8636C15.4362 50.8636 15.3843 50.8831 15.3453 50.922C15.3064 50.9604 15.2781 51.018 15.2606 51.0948C15.2437 51.171 15.2352 51.2658 15.2352 51.3793ZM13.9803 54.7129H13.7949V55H13.6577V54.7129H13.059V54.5944L13.6484 53.7552H13.7949V54.5859H13.9803V54.7129ZM13.6577 54.5859V54.1812C13.6577 54.1501 13.658 54.1222 13.6585 54.0973C13.6591 54.0719 13.6599 54.0485 13.6611 54.0271C13.6622 54.005 13.663 53.9841 13.6636 53.9644C13.6647 53.9446 13.6656 53.9252 13.6661 53.906H13.6594C13.6486 53.9285 13.6362 53.9525 13.6221 53.9779C13.6086 54.0028 13.5947 54.0251 13.5806 54.0448L13.1987 54.5859H13.6577ZM14.9177 54.3793C14.9177 54.4798 14.9101 54.5696 14.8948 54.6486C14.8796 54.7276 14.8556 54.7945 14.8228 54.8493C14.7901 54.904 14.7478 54.9458 14.6958 54.9746C14.6439 55.0028 14.5815 55.0169 14.5087 55.0169C14.4167 55.0169 14.3405 54.9918 14.2801 54.9416C14.2202 54.8913 14.1753 54.8188 14.1454 54.7239C14.1161 54.6285 14.1014 54.5137 14.1014 54.3793C14.1014 54.2472 14.1147 54.1337 14.1412 54.0389C14.1683 53.9435 14.2118 53.8704 14.2716 53.8196C14.3314 53.7682 14.4105 53.7425 14.5087 53.7425C14.6018 53.7425 14.6786 53.7679 14.739 53.8187C14.7994 53.869 14.8443 53.9418 14.8737 54.0372C14.903 54.1321 14.9177 54.2461 14.9177 54.3793ZM14.2428 54.3793C14.2428 54.4945 14.2516 54.5904 14.2691 54.6672C14.2866 54.744 14.3148 54.8016 14.3537 54.84C14.3932 54.8778 14.4449 54.8967 14.5087 54.8967C14.5725 54.8967 14.6239 54.8778 14.6628 54.84C14.7023 54.8021 14.7308 54.7448 14.7483 54.6681C14.7664 54.5913 14.7754 54.495 14.7754 54.3793C14.7754 54.2658 14.7667 54.171 14.7492 54.0948C14.7317 54.018 14.7035 53.9604 14.6645 53.922C14.6255 53.8831 14.5736 53.8636 14.5087 53.8636C14.4438 53.8636 14.3918 53.8831 14.3529 53.922C14.3139 53.9604 14.2857 54.018 14.2682 54.0948C14.2513 54.171 14.2428 54.2658 14.2428 54.3793ZM15.9101 54.3793C15.9101 54.4798 15.9025 54.5696 15.8872 54.6486C15.872 54.7276 15.848 54.7945 15.8153 54.8493C15.7825 54.904 15.7402 54.9458 15.6883 54.9746C15.6363 55.0028 15.5739 55.0169 15.5011 55.0169C15.4091 55.0169 15.3329 54.9918 15.2725 54.9416C15.2126 54.8913 15.1678 54.8188 15.1378 54.7239C15.1085 54.6285 15.0938 54.5137 15.0938 54.3793C15.0938 54.2472 15.1071 54.1337 15.1336 54.0389C15.1607 53.9435 15.2042 53.8704 15.264 53.8196C15.3239 53.7682 15.4029 53.7425 15.5011 53.7425C15.5943 53.7425 15.671 53.7679 15.7314 53.8187C15.7918 53.869 15.8367 53.9418 15.8661 54.0372C15.8954 54.1321 15.9101 54.2461 15.9101 54.3793ZM15.2352 54.3793C15.2352 54.4945 15.244 54.5904 15.2615 54.6672C15.279 54.744 15.3072 54.8016 15.3462 54.84C15.3857 54.8778 15.4373 54.8967 15.5011 54.8967C15.5649 54.8967 15.6163 54.8778 15.6552 54.84C15.6947 54.8021 15.7233 54.7448 15.7408 54.6681C15.7588 54.5913 15.7679 54.495 15.7679 54.3793C15.7679 54.2658 15.7591 54.171 15.7416 54.0948C15.7241 54.018 15.6959 53.9604 15.6569 53.922C15.618 53.8831 15.566 53.8636 15.5011 53.8636C15.4362 53.8636 15.3843 53.8831 15.3453 53.922C15.3064 53.9604 15.2781 54.018 15.2606 54.0948C15.2437 54.171 15.2352 54.2658 15.2352 54.3793ZM13.8728 56.0508C13.8728 56.1061 13.862 56.1541 13.8406 56.1947C13.8191 56.2354 13.7892 56.2687 13.7508 56.2946C13.7124 56.32 13.6673 56.3378 13.6153 56.348V56.3548C13.7136 56.3672 13.7872 56.3988 13.8363 56.4496C13.886 56.5004 13.9109 56.567 13.9109 56.6494C13.9109 56.7211 13.8939 56.7846 13.8601 56.84C13.8268 56.8953 13.7754 56.9387 13.7059 56.9704C13.6371 57.0014 13.5487 57.0169 13.4409 57.0169C13.3754 57.0169 13.3147 57.0116 13.2588 57.0008C13.2035 56.9907 13.1505 56.9735 13.0996 56.9492V56.8171C13.151 56.8425 13.2069 56.8625 13.2673 56.8772C13.3277 56.8913 13.3861 56.8984 13.4426 56.8984C13.5555 56.8984 13.6371 56.8761 13.6873 56.8315C13.7376 56.7863 13.7627 56.7248 13.7627 56.6469C13.7627 56.5933 13.7486 56.5501 13.7203 56.5173C13.6927 56.484 13.6526 56.4598 13.6001 56.4445C13.5482 56.4287 13.4855 56.4208 13.4121 56.4208H13.2885V56.3006H13.413C13.4801 56.3006 13.5372 56.2907 13.584 56.2709C13.6309 56.2512 13.6664 56.2235 13.6907 56.1879C13.7155 56.1518 13.728 56.1092 13.728 56.0601C13.728 55.9974 13.7071 55.9491 13.6653 55.9153C13.6235 55.8808 13.5668 55.8636 13.4951 55.8636C13.4511 55.8636 13.411 55.8681 13.3749 55.8772C13.3387 55.8862 13.3049 55.8986 13.2732 55.9144C13.2416 55.9302 13.21 55.9486 13.1784 55.9695L13.1073 55.8729C13.1524 55.8379 13.2075 55.8077 13.2724 55.7823C13.3373 55.7569 13.411 55.7442 13.4934 55.7442C13.6199 55.7442 13.7147 55.773 13.7779 55.8306C13.8411 55.8882 13.8728 55.9616 13.8728 56.0508ZM14.9177 56.3793C14.9177 56.4798 14.9101 56.5696 14.8948 56.6486C14.8796 56.7276 14.8556 56.7945 14.8228 56.8493C14.7901 56.904 14.7478 56.9458 14.6958 56.9746C14.6439 57.0028 14.5815 57.0169 14.5087 57.0169C14.4167 57.0169 14.3405 56.9918 14.2801 56.9416C14.2202 56.8913 14.1753 56.8188 14.1454 56.7239C14.1161 56.6285 14.1014 56.5137 14.1014 56.3793C14.1014 56.2472 14.1147 56.1337 14.1412 56.0389C14.1683 55.9435 14.2118 55.8704 14.2716 55.8196C14.3314 55.7682 14.4105 55.7425 14.5087 55.7425C14.6018 55.7425 14.6786 55.7679 14.739 55.8187C14.7994 55.869 14.8443 55.9418 14.8737 56.0372C14.903 56.1321 14.9177 56.2461 14.9177 56.3793ZM14.2428 56.3793C14.2428 56.4945 14.2516 56.5904 14.2691 56.6672C14.2866 56.744 14.3148 56.8016 14.3537 56.84C14.3932 56.8778 14.4449 56.8967 14.5087 56.8967C14.5725 56.8967 14.6239 56.8778 14.6628 56.84C14.7023 56.8021 14.7308 56.7448 14.7483 56.6681C14.7664 56.5913 14.7754 56.495 14.7754 56.3793C14.7754 56.2658 14.7667 56.171 14.7492 56.0948C14.7317 56.018 14.7035 55.9604 14.6645 55.922C14.6255 55.8831 14.5736 55.8636 14.5087 55.8636C14.4438 55.8636 14.3918 55.8831 14.3529 55.922C14.3139 55.9604 14.2857 56.018 14.2682 56.0948C14.2513 56.171 14.2428 56.2658 14.2428 56.3793ZM15.9101 56.3793C15.9101 56.4798 15.9025 56.5696 15.8872 56.6486C15.872 56.7276 15.848 56.7945 15.8153 56.8493C15.7825 56.904 15.7402 56.9458 15.6883 56.9746C15.6363 57.0028 15.5739 57.0169 15.5011 57.0169C15.4091 57.0169 15.3329 56.9918 15.2725 56.9416C15.2126 56.8913 15.1678 56.8188 15.1378 56.7239C15.1085 56.6285 15.0938 56.5137 15.0938 56.3793C15.0938 56.2472 15.1071 56.1337 15.1336 56.0389C15.1607 55.9435 15.2042 55.8704 15.264 55.8196C15.3239 55.7682 15.4029 55.7425 15.5011 55.7425C15.5943 55.7425 15.671 55.7679 15.7314 55.8187C15.7918 55.869 15.8367 55.9418 15.8661 56.0372C15.8954 56.1321 15.9101 56.2461 15.9101 56.3793ZM15.2352 56.3793C15.2352 56.4945 15.244 56.5904 15.2615 56.6672C15.279 56.744 15.3072 56.8016 15.3462 56.84C15.3857 56.8778 15.4373 56.8967 15.5011 56.8967C15.5649 56.8967 15.6163 56.8778 15.6552 56.84C15.6947 56.8021 15.7233 56.7448 15.7408 56.6681C15.7588 56.5913 15.7679 56.495 15.7679 56.3793C15.7679 56.2658 15.7591 56.171 15.7416 56.0948C15.7241 56.018 15.6959 55.9604 15.6569 55.922C15.618 55.8831 15.566 55.8636 15.5011 55.8636C15.4362 55.8636 15.3843 55.8831 15.3453 55.922C15.3064 55.9604 15.2781 56.018 15.2606 56.0948C15.2437 56.171 15.2352 56.2658 15.2352 56.3793ZM13.9185 60H13.1073V59.8823L13.4384 59.5461C13.4999 59.484 13.5515 59.4287 13.5933 59.3802C13.6357 59.3316 13.6678 59.2839 13.6899 59.2371C13.7119 59.1896 13.7229 59.1377 13.7229 59.0812C13.7229 59.0112 13.702 58.9579 13.6602 58.9212C13.619 58.8839 13.5645 58.8653 13.4968 58.8653C13.4375 58.8653 13.385 58.8755 13.3393 58.8958C13.2936 58.9161 13.2467 58.9449 13.1987 58.9822L13.1234 58.8873C13.1561 58.8597 13.1917 58.8351 13.2301 58.8137C13.269 58.7922 13.3105 58.7753 13.3545 58.7629C13.3991 58.7504 13.4465 58.7442 13.4968 58.7442C13.573 58.7442 13.6388 58.7575 13.6941 58.784C13.7494 58.8106 13.792 58.8484 13.822 58.8975C13.8524 58.9466 13.8677 59.005 13.8677 59.0728C13.8677 59.1383 13.8547 59.1992 13.8287 59.2557C13.8028 59.3116 13.7663 59.3672 13.7195 59.4225C13.6726 59.4773 13.6179 59.5354 13.5552 59.5969L13.2859 59.8654V59.8713H13.9185V60ZM14.9177 59.3793C14.9177 59.4798 14.9101 59.5696 14.8948 59.6486C14.8796 59.7276 14.8556 59.7945 14.8228 59.8493C14.7901 59.904 14.7478 59.9458 14.6958 59.9746C14.6439 60.0028 14.5815 60.0169 14.5087 60.0169C14.4167 60.0169 14.3405 59.9918 14.2801 59.9416C14.2202 59.8913 14.1753 59.8188 14.1454 59.7239C14.1161 59.6285 14.1014 59.5137 14.1014 59.3793C14.1014 59.2472 14.1147 59.1337 14.1412 59.0389C14.1683 58.9435 14.2118 58.8704 14.2716 58.8196C14.3314 58.7682 14.4105 58.7425 14.5087 58.7425C14.6018 58.7425 14.6786 58.7679 14.739 58.8187C14.7994 58.869 14.8443 58.9418 14.8737 59.0372C14.903 59.1321 14.9177 59.2461 14.9177 59.3793ZM14.2428 59.3793C14.2428 59.4945 14.2516 59.5904 14.2691 59.6672C14.2866 59.744 14.3148 59.8016 14.3537 59.84C14.3932 59.8778 14.4449 59.8967 14.5087 59.8967C14.5725 59.8967 14.6239 59.8778 14.6628 59.84C14.7023 59.8021 14.7308 59.7448 14.7483 59.6681C14.7664 59.5913 14.7754 59.495 14.7754 59.3793C14.7754 59.2658 14.7667 59.171 14.7492 59.0948C14.7317 59.018 14.7035 58.9604 14.6645 58.922C14.6255 58.8831 14.5736 58.8636 14.5087 58.8636C14.4438 58.8636 14.3918 58.8831 14.3529 58.922C14.3139 58.9604 14.2857 59.018 14.2682 59.0948C14.2513 59.171 14.2428 59.2658 14.2428 59.3793ZM15.9101 59.3793C15.9101 59.4798 15.9025 59.5696 15.8872 59.6486C15.872 59.7276 15.848 59.7945 15.8153 59.8493C15.7825 59.904 15.7402 59.9458 15.6883 59.9746C15.6363 60.0028 15.5739 60.0169 15.5011 60.0169C15.4091 60.0169 15.3329 59.9918 15.2725 59.9416C15.2126 59.8913 15.1678 59.8188 15.1378 59.7239C15.1085 59.6285 15.0938 59.5137 15.0938 59.3793C15.0938 59.2472 15.1071 59.1337 15.1336 59.0389C15.1607 58.9435 15.2042 58.8704 15.264 58.8196C15.3239 58.7682 15.4029 58.7425 15.5011 58.7425C15.5943 58.7425 15.671 58.7679 15.7314 58.8187C15.7918 58.869 15.8367 58.9418 15.8661 59.0372C15.8954 59.1321 15.9101 59.2461 15.9101 59.3793ZM15.2352 59.3793C15.2352 59.4945 15.244 59.5904 15.2615 59.6672C15.279 59.744 15.3072 59.8016 15.3462 59.84C15.3857 59.8778 15.4373 59.8967 15.5011 59.8967C15.5649 59.8967 15.6163 59.8778 15.6552 59.84C15.6947 59.8021 15.7233 59.7448 15.7408 59.6681C15.7588 59.5913 15.7679 59.495 15.7679 59.3793C15.7679 59.2658 15.7591 59.171 15.7416 59.0948C15.7241 59.018 15.6959 58.9604 15.6569 58.922C15.618 58.8831 15.566 58.8636 15.5011 58.8636C15.4362 58.8636 15.3843 58.8831 15.3453 58.922C15.3064 58.9604 15.2781 59.018 15.2606 59.0948C15.2437 59.171 15.2352 59.2658 15.2352 59.3793ZM13.6306 63H13.4934V62.1227C13.4934 62.0894 13.4934 62.0609 13.4934 62.0372C13.494 62.0129 13.4945 61.9909 13.4951 61.9712C13.4962 61.9508 13.4976 61.9302 13.4993 61.9093C13.4818 61.9274 13.4655 61.9429 13.4502 61.9559C13.435 61.9683 13.4161 61.9839 13.3935 62.0025L13.2521 62.116L13.1784 62.0203L13.5137 61.762H13.6306V63ZM14.9177 62.3793C14.9177 62.4798 14.9101 62.5696 14.8948 62.6486C14.8796 62.7276 14.8556 62.7945 14.8228 62.8493C14.7901 62.904 14.7478 62.9458 14.6958 62.9746C14.6439 63.0028 14.5815 63.0169 14.5087 63.0169C14.4167 63.0169 14.3405 62.9918 14.2801 62.9416C14.2202 62.8913 14.1753 62.8188 14.1454 62.7239C14.1161 62.6285 14.1014 62.5137 14.1014 62.3793C14.1014 62.2472 14.1147 62.1337 14.1412 62.0389C14.1683 61.9435 14.2118 61.8704 14.2716 61.8196C14.3314 61.7682 14.4105 61.7425 14.5087 61.7425C14.6018 61.7425 14.6786 61.7679 14.739 61.8187C14.7994 61.869 14.8443 61.9418 14.8737 62.0372C14.903 62.1321 14.9177 62.2461 14.9177 62.3793ZM14.2428 62.3793C14.2428 62.4945 14.2516 62.5904 14.2691 62.6672C14.2866 62.744 14.3148 62.8016 14.3537 62.84C14.3932 62.8778 14.4449 62.8967 14.5087 62.8967C14.5725 62.8967 14.6239 62.8778 14.6628 62.84C14.7023 62.8021 14.7308 62.7448 14.7483 62.6681C14.7664 62.5913 14.7754 62.495 14.7754 62.3793C14.7754 62.2658 14.7667 62.171 14.7492 62.0948C14.7317 62.018 14.7035 61.9604 14.6645 61.922C14.6255 61.8831 14.5736 61.8636 14.5087 61.8636C14.4438 61.8636 14.3918 61.8831 14.3529 61.922C14.3139 61.9604 14.2857 62.018 14.2682 62.0948C14.2513 62.171 14.2428 62.2658 14.2428 62.3793ZM15.9101 62.3793C15.9101 62.4798 15.9025 62.5696 15.8872 62.6486C15.872 62.7276 15.848 62.7945 15.8153 62.8493C15.7825 62.904 15.7402 62.9458 15.6883 62.9746C15.6363 63.0028 15.5739 63.0169 15.5011 63.0169C15.4091 63.0169 15.3329 62.9918 15.2725 62.9416C15.2126 62.8913 15.1678 62.8188 15.1378 62.7239C15.1085 62.6285 15.0938 62.5137 15.0938 62.3793C15.0938 62.2472 15.1071 62.1337 15.1336 62.0389C15.1607 61.9435 15.2042 61.8704 15.264 61.8196C15.3239 61.7682 15.4029 61.7425 15.5011 61.7425C15.5943 61.7425 15.671 61.7679 15.7314 61.8187C15.7918 61.869 15.8367 61.9418 15.8661 62.0372C15.8954 62.1321 15.9101 62.2461 15.9101 62.3793ZM15.2352 62.3793C15.2352 62.4945 15.244 62.5904 15.2615 62.6672C15.279 62.744 15.3072 62.8016 15.3462 62.84C15.3857 62.8778 15.4373 62.8967 15.5011 62.8967C15.5649 62.8967 15.6163 62.8778 15.6552 62.84C15.6947 62.8021 15.7233 62.7448 15.7408 62.6681C15.7588 62.5913 15.7679 62.495 15.7679 62.3793C15.7679 62.2658 15.7591 62.171 15.7416 62.0948C15.7241 62.018 15.6959 61.9604 15.6569 61.922C15.618 61.8831 15.566 61.8636 15.5011 61.8636C15.4362 61.8636 15.3843 61.8831 15.3453 61.922C15.3064 61.9604 15.2781 62.018 15.2606 62.0948C15.2437 62.171 15.2352 62.2658 15.2352 62.3793ZM15.9101 65.3793C15.9101 65.4798 15.9025 65.5696 15.8872 65.6486C15.872 65.7276 15.848 65.7945 15.8153 65.8493C15.7825 65.904 15.7402 65.9458 15.6883 65.9746C15.6363 66.0028 15.5739 66.0169 15.5011 66.0169C15.4091 66.0169 15.3329 65.9918 15.2725 65.9416C15.2126 65.8913 15.1678 65.8188 15.1378 65.7239C15.1085 65.6285 15.0938 65.5137 15.0938 65.3793C15.0938 65.2472 15.1071 65.1337 15.1336 65.0389C15.1607 64.9435 15.2042 64.8704 15.264 64.8196C15.3239 64.7682 15.4029 64.7425 15.5011 64.7425C15.5943 64.7425 15.671 64.7679 15.7314 64.8187C15.7918 64.869 15.8367 64.9418 15.8661 65.0372C15.8954 65.1321 15.9101 65.2461 15.9101 65.3793ZM15.2352 65.3793C15.2352 65.4945 15.244 65.5904 15.2615 65.6672C15.279 65.744 15.3072 65.8016 15.3462 65.84C15.3857 65.8778 15.4373 65.8967 15.5011 65.8967C15.5649 65.8967 15.6163 65.8778 15.6552 65.84C15.6947 65.8021 15.7233 65.7448 15.7408 65.6681C15.7588 65.5913 15.7679 65.495 15.7679 65.3793C15.7679 65.2658 15.7591 65.171 15.7416 65.0948C15.7241 65.018 15.6959 64.9604 15.6569 64.922C15.618 64.8831 15.566 64.8636 15.5011 64.8636C15.4362 64.8636 15.3843 64.8831 15.3453 64.922C15.3064 64.9604 15.2781 65.018 15.2606 65.0948C15.2437 65.171 15.2352 65.2658 15.2352 65.3793Z" fill="#222539"/>
<circle cx="80.7118" cy="28.872" r="0.754798" fill="#2C4CF5"/>
<circle cx="78.6015" cy="31.6142" r="0.754798" fill="#2C4CF5"/>
<g filter="url(#filter0_d_7971_42235)">
<circle cx="75.8573" cy="34.3603" r="0.754798" fill="#2C4CF5"/>
<circle cx="75.8573" cy="34.3603" r="0.943497" stroke="white" stroke-width="0.377399"/>
</g>
<circle cx="72.4814" cy="37.1025" r="0.754798" fill="#2C4CF5"/>
<circle cx="64.8837" cy="39.8446" r="0.754798" fill="#2C4CF5"/>
<circle cx="60.662" cy="42.5907" r="0.754798" fill="#2C4CF5"/>
<g filter="url(#filter1_d_7971_42235)">
<circle cx="54.331" cy="45.5439" r="0.754798" fill="#2C4CF5"/>
<circle cx="54.331" cy="45.5439" r="0.943497" stroke="white" stroke-width="0.377399"/>
</g>
<circle cx="48.8437" cy="48.29" r="0.754798" fill="#2C4CF5"/>
<circle cx="45.4667" cy="51.8759" r="0.754798" fill="#2C4CF5"/>
<circle cx="39.7685" cy="53.9853" r="0.754798" fill="#2C4CF5"/>
<g filter="url(#filter2_d_7971_42235)">
<circle cx="36.1806" cy="60.1064" r="0.754798" fill="#2C4CF5"/>
<circle cx="36.1806" cy="60.1064" r="0.943497" stroke="white" stroke-width="0.377399"/>
</g>
<circle cx="30.6933" cy="63.6962" r="0.754798" fill="#2C4CF5"/>
<circle cx="21.1962" cy="66.2275" r="0.754798" fill="#2C4CF5"/>
<g filter="url(#filter3_d_7971_42235)">
<rect x="46.6113" y="43.7383" width="5.85294" height="3.25163" rx="1.62582" fill="#2C4CF5" shape-rendering="crispEdges"/>
<path d="M48.5711 44.6415C48.6409 44.6415 48.7038 44.6525 48.7598 44.6745C48.8159 44.6959 48.8604 44.7281 48.8934 44.7709C48.9264 44.8138 48.9429 44.8668 48.9429 44.9301C48.9429 44.979 48.9327 45.0216 48.9124 45.0578C48.8926 45.0941 48.8656 45.126 48.8316 45.1535C48.7975 45.1804 48.7593 45.2043 48.717 45.2252C48.7642 45.2483 48.8077 45.2749 48.8472 45.3052C48.8874 45.3348 48.9195 45.3697 48.9437 45.4099C48.9684 45.45 48.9808 45.497 48.9808 45.5508C48.9808 45.6184 48.9635 45.677 48.9288 45.7264C48.8948 45.7753 48.8472 45.8133 48.7862 45.8402C48.7252 45.8666 48.654 45.8798 48.5727 45.8798C48.4853 45.8798 48.4108 45.8669 48.3493 45.841C48.2877 45.8152 48.241 45.7784 48.2091 45.7306C48.1773 45.6822 48.1613 45.6245 48.1613 45.5574C48.1613 45.5019 48.1723 45.4538 48.1943 45.4132C48.2163 45.3725 48.2457 45.3373 48.2825 45.3076C48.3199 45.278 48.3608 45.2529 48.4053 45.2326C48.3674 45.2101 48.3328 45.1848 48.3015 45.1568C48.2701 45.1282 48.2451 45.0955 48.2265 45.0587C48.2083 45.0213 48.1992 44.9781 48.1992 44.9292C48.1992 44.8666 48.216 44.8141 48.2495 44.7718C48.2831 44.7289 48.3279 44.6965 48.3839 44.6745C48.4405 44.6525 48.5029 44.6415 48.5711 44.6415ZM48.346 45.55C48.346 45.6028 48.3647 45.6462 48.4021 45.6803C48.4394 45.7143 48.4952 45.7314 48.5694 45.7314C48.6431 45.7314 48.6991 45.7146 48.7376 45.6811C48.7761 45.6476 48.7953 45.6033 48.7953 45.5484C48.7953 45.5132 48.7854 45.4821 48.7656 45.4552C48.7464 45.4283 48.7203 45.4044 48.6873 45.3835C48.6549 45.362 48.6189 45.3423 48.5793 45.3241L48.5529 45.3134C48.51 45.3315 48.4732 45.3521 48.4424 45.3752C48.4117 45.3978 48.3878 45.4233 48.3707 45.4519C48.3542 45.4805 48.346 45.5132 48.346 45.55ZM48.5694 44.7907C48.5161 44.7907 48.4721 44.8039 48.4375 44.8303C48.4034 44.8561 48.3864 44.8935 48.3864 44.9424C48.3864 44.977 48.3946 45.0067 48.4111 45.0315C48.4282 45.0562 48.451 45.0776 48.4795 45.0958C48.5081 45.1133 48.5397 45.1298 48.5744 45.1452C48.6079 45.1304 48.6381 45.1142 48.665 45.0966C48.6925 45.0784 48.7142 45.057 48.7302 45.0323C48.7467 45.007 48.7549 44.9768 48.7549 44.9416C48.7549 44.8932 48.7376 44.8561 48.703 44.8303C48.6689 44.8039 48.6244 44.7907 48.5694 44.7907ZM49.947 45.2598C49.947 45.3571 49.9393 45.4442 49.9239 45.5212C49.9091 45.5975 49.8854 45.6624 49.853 45.7157C49.8206 45.769 49.7783 45.8097 49.7261 45.8377C49.6738 45.8658 49.6106 45.8798 49.5364 45.8798C49.4436 45.8798 49.3669 45.8553 49.3064 45.8064C49.246 45.7569 49.2012 45.686 49.172 45.5937C49.1429 45.5008 49.1284 45.3895 49.1284 45.2598C49.1284 45.1301 49.1415 45.0191 49.1679 44.9268C49.1949 44.8339 49.2383 44.7627 49.2982 44.7132C49.3581 44.6638 49.4375 44.639 49.5364 44.639C49.6299 44.639 49.7068 44.6638 49.7673 44.7132C49.8283 44.7621 49.8733 44.833 49.9025 44.9259C49.9322 45.0183 49.947 45.1296 49.947 45.2598ZM49.3237 45.2598C49.3237 45.3615 49.3303 45.4464 49.3435 45.5146C49.3573 45.5827 49.3798 45.6338 49.4111 45.6679C49.4425 45.7014 49.4842 45.7182 49.5364 45.7182C49.5886 45.7182 49.6304 45.7014 49.6617 45.6679C49.6931 45.6344 49.7156 45.5835 49.7293 45.5154C49.7436 45.4472 49.7508 45.362 49.7508 45.2598C49.7508 45.1587 49.7439 45.074 49.7302 45.0059C49.7164 44.9377 49.6939 44.8866 49.6626 44.8526C49.6312 44.8179 49.5892 44.8006 49.5364 44.8006C49.4837 44.8006 49.4416 44.8179 49.4103 44.8526C49.3795 44.8866 49.3573 44.9377 49.3435 45.0059C49.3303 45.074 49.3237 45.1587 49.3237 45.2598ZM50.9132 45.2598C50.9132 45.3571 50.9055 45.4442 50.8901 45.5212C50.8753 45.5975 50.8516 45.6624 50.8192 45.7157C50.7868 45.769 50.7445 45.8097 50.6923 45.8377C50.64 45.8658 50.5768 45.8798 50.5026 45.8798C50.4098 45.8798 50.3331 45.8553 50.2726 45.8064C50.2122 45.7569 50.1674 45.686 50.1383 45.5937C50.1091 45.5008 50.0946 45.3895 50.0946 45.2598C50.0946 45.1301 50.1078 45.0191 50.1341 44.9268C50.1611 44.8339 50.2045 44.7627 50.2644 44.7132C50.3243 44.6638 50.4037 44.639 50.5026 44.639C50.5961 44.639 50.673 44.6638 50.7335 44.7132C50.7945 44.7621 50.8396 44.833 50.8687 44.9259C50.8984 45.0183 50.9132 45.1296 50.9132 45.2598ZM50.2899 45.2598C50.2899 45.3615 50.2965 45.4464 50.3097 45.5146C50.3235 45.5827 50.346 45.6338 50.3773 45.6679C50.4087 45.7014 50.4504 45.7182 50.5026 45.7182C50.5549 45.7182 50.5966 45.7014 50.628 45.6679C50.6593 45.6344 50.6818 45.5835 50.6956 45.5154C50.7098 45.4472 50.717 45.362 50.717 45.2598C50.717 45.1587 50.7101 45.074 50.6964 45.0059C50.6826 44.9377 50.6601 44.8866 50.6288 44.8526C50.5974 44.8179 50.5554 44.8006 50.5026 44.8006C50.4499 44.8006 50.4078 44.8179 50.3765 44.8526C50.3457 44.8866 50.3235 44.9377 50.3097 45.0059C50.2965 45.074 50.2899 45.1587 50.2899 45.2598Z" fill="white"/>
</g>
<g filter="url(#filter4_d_7971_42235)">
<rect x="28.4609" y="57.668" width="5.85294" height="3.25163" rx="1.62582" fill="#2C4CF5" shape-rendering="crispEdges"/>
<path d="M30.5839 59.793H30.3893V59.0172C30.3893 58.9914 30.3896 58.9655 30.3902 58.9397C30.3907 58.9139 30.3913 58.8886 30.3918 58.8639C30.3929 58.8391 30.3943 58.8155 30.3959 58.793C30.3844 58.8056 30.3701 58.8193 30.3531 58.8342C30.3366 58.849 30.319 58.8644 30.3003 58.8803L30.1618 58.9908L30.0645 58.868L30.4223 58.5877H30.5839V59.793ZM31.3869 58.5712C31.4567 58.5712 31.5196 58.5822 31.5757 58.6042C31.6317 58.6256 31.6762 58.6578 31.7092 58.7006C31.7422 58.7435 31.7587 58.7965 31.7587 58.8597C31.7587 58.9087 31.7485 58.9512 31.7282 58.9875C31.7084 59.0238 31.6815 59.0557 31.6474 59.0832C31.6133 59.1101 31.5751 59.134 31.5328 59.1549C31.5801 59.178 31.6235 59.2046 31.663 59.2348C31.7032 59.2645 31.7353 59.2994 31.7595 59.3395C31.7842 59.3797 31.7966 59.4267 31.7966 59.4805C31.7966 59.5481 31.7793 59.6067 31.7447 59.6561C31.7106 59.705 31.663 59.743 31.602 59.7699C31.541 59.7963 31.4699 59.8095 31.3885 59.8095C31.3011 59.8095 31.2267 59.7965 31.1651 59.7707C31.1035 59.7449 31.0568 59.7081 31.025 59.6602C30.9931 59.6119 30.9771 59.5542 30.9771 59.4871C30.9771 59.4316 30.9881 59.3835 31.0101 59.3428C31.0321 59.3022 31.0615 59.267 31.0983 59.2373C31.1357 59.2076 31.1766 59.1826 31.2212 59.1623C31.1832 59.1398 31.1486 59.1145 31.1173 59.0865C31.086 59.0579 31.061 59.0252 31.0423 58.9883C31.0241 58.951 31.0151 58.9078 31.0151 58.8589C31.0151 58.7963 31.0318 58.7438 31.0654 58.7015C31.0989 58.6586 31.1437 58.6262 31.1997 58.6042C31.2563 58.5822 31.3187 58.5712 31.3869 58.5712ZM31.1618 59.4797C31.1618 59.5325 31.1805 59.5759 31.2179 59.61C31.2552 59.644 31.311 59.6611 31.3852 59.6611C31.4589 59.6611 31.5149 59.6443 31.5534 59.6108C31.5919 59.5772 31.6111 59.533 31.6111 59.478C31.6111 59.4429 31.6012 59.4118 31.5814 59.3849C31.5622 59.358 31.5361 59.334 31.5031 59.3132C31.4707 59.2917 31.4347 59.2719 31.3951 59.2538L31.3687 59.2431C31.3259 59.2612 31.289 59.2818 31.2583 59.3049C31.2275 59.3275 31.2036 59.353 31.1865 59.3816C31.1701 59.4102 31.1618 59.4429 31.1618 59.4797ZM31.3852 58.7204C31.3319 58.7204 31.2879 58.7336 31.2533 58.76C31.2192 58.7858 31.2022 58.8232 31.2022 58.8721C31.2022 58.9067 31.2104 58.9364 31.2269 58.9611C31.244 58.9859 31.2668 59.0073 31.2954 59.0254C31.3239 59.043 31.3555 59.0595 31.3902 59.0749C31.4237 59.0601 31.4539 59.0439 31.4809 59.0263C31.5083 59.0081 31.53 58.9867 31.546 58.962C31.5625 58.9367 31.5707 58.9065 31.5707 58.8713C31.5707 58.8229 31.5534 58.7858 31.5188 58.76C31.4847 58.7336 31.4402 58.7204 31.3852 58.7204ZM32.7612 59.1013C32.7612 59.1727 32.7559 59.2428 32.7455 59.3115C32.7356 59.3802 32.718 59.4445 32.6927 59.5044C32.668 59.5643 32.6336 59.6174 32.5897 59.6635C32.5463 59.7092 32.4913 59.7449 32.4248 59.7707C32.3583 59.7965 32.2781 59.8095 32.1841 59.8095C32.1604 59.8095 32.133 59.8081 32.1016 59.8053C32.0709 59.8031 32.0456 59.7998 32.0258 59.7954V59.6339C32.0467 59.6399 32.07 59.6449 32.0959 59.6487C32.1222 59.652 32.1483 59.6536 32.1742 59.6536C32.2759 59.6536 32.355 59.6347 32.4116 59.5968C32.4688 59.5588 32.5092 59.5066 32.5328 59.4401C32.557 59.3736 32.5707 59.298 32.574 59.2134H32.5641C32.5482 59.2398 32.5281 59.264 32.5039 59.286C32.4798 59.3074 32.4498 59.3247 32.4141 59.3379C32.3784 59.3505 32.3349 59.3569 32.2838 59.3569C32.2146 59.3569 32.1541 59.3423 32.1025 59.3132C32.0513 59.284 32.0115 59.2417 31.9829 59.1862C31.9549 59.1301 31.9409 59.0628 31.9409 58.9842C31.9409 58.899 31.9571 58.8257 31.9895 58.7641C32.0219 58.7026 32.0678 58.6553 32.1272 58.6223C32.1865 58.5888 32.2563 58.572 32.3366 58.572C32.397 58.572 32.4528 58.583 32.5039 58.605C32.5556 58.6264 32.6007 58.6594 32.6391 58.7039C32.6776 58.7479 32.7076 58.8031 32.729 58.8696C32.7504 58.9356 32.7612 59.0128 32.7612 59.1013ZM32.3391 58.732C32.2781 58.732 32.2283 58.7526 32.1898 58.7938C32.1514 58.8345 32.1321 58.8971 32.1321 58.9818C32.1321 59.0505 32.1486 59.1049 32.1816 59.145C32.2146 59.1851 32.2651 59.2052 32.3333 59.2052C32.3806 59.2052 32.4212 59.1955 32.4553 59.1763C32.4899 59.1565 32.5166 59.1315 32.5353 59.1013C32.5545 59.0711 32.5641 59.0403 32.5641 59.009C32.5641 58.9765 32.5595 58.9441 32.5501 58.9117C32.5413 58.8793 32.5276 58.8496 32.5089 58.8226C32.4902 58.7957 32.4666 58.774 32.438 58.7575C32.41 58.7405 32.377 58.732 32.3391 58.732Z" fill="white"/>
</g>
<g filter="url(#filter5_d_7971_42235)">
<rect x="68.1377" y="32.7617" width="5.85294" height="3.25163" rx="1.62582" fill="#2C4CF5" shape-rendering="crispEdges"/>
<path d="M69.7776 34.8867H69.583V34.111C69.583 34.0851 69.5833 34.0593 69.5838 34.0335C69.5844 34.0076 69.5849 33.9823 69.5855 33.9576C69.5866 33.9329 69.5879 33.9092 69.5896 33.8867C69.578 33.8994 69.5638 33.9131 69.5467 33.9279C69.5302 33.9428 69.5126 33.9582 69.494 33.9741L69.3555 34.0846L69.2582 33.9617L69.616 33.6814H69.7776V34.8867ZM70.9903 34.8867H70.1741V34.7408L70.4865 34.4242C70.547 34.3627 70.5967 34.3096 70.6358 34.2651C70.6748 34.22 70.7036 34.1775 70.7223 34.1373C70.7416 34.0972 70.7512 34.0535 70.7512 34.0063C70.7512 33.948 70.7344 33.904 70.7009 33.8743C70.6674 33.8441 70.6231 33.829 70.5682 33.829C70.5159 33.829 70.4676 33.8394 70.4231 33.8603C70.3791 33.8807 70.3335 33.9098 70.2862 33.9477L70.1799 33.8199C70.2134 33.7914 70.2491 33.7652 70.287 33.7416C70.3255 33.718 70.3684 33.6993 70.4156 33.6856C70.4629 33.6713 70.5168 33.6641 70.5772 33.6641C70.6536 33.6641 70.7196 33.6779 70.7751 33.7053C70.8306 33.7323 70.8732 33.7699 70.9029 33.8183C70.9331 33.8667 70.9482 33.923 70.9482 33.9873C70.9482 34.0521 70.9353 34.1121 70.9095 34.167C70.8836 34.222 70.8468 34.2764 70.799 34.3302C70.7512 34.3836 70.6943 34.4415 70.6283 34.5042L70.4198 34.7078V34.7169H70.9903V34.8867ZM71.9565 34.2833C71.9565 34.3805 71.9488 34.4676 71.9334 34.5446C71.9185 34.621 71.8949 34.6858 71.8625 34.7391C71.8301 34.7925 71.7877 34.8331 71.7355 34.8612C71.6833 34.8892 71.6201 34.9032 71.5459 34.9032C71.453 34.9032 71.3764 34.8787 71.3159 34.8298C71.2554 34.7804 71.2106 34.7095 71.1815 34.6171C71.1524 34.5243 71.1378 34.413 71.1378 34.2833C71.1378 34.1535 71.151 34.0425 71.1774 33.9502C71.2043 33.8573 71.2477 33.7861 71.3077 33.7367C71.3676 33.6872 71.447 33.6625 71.5459 33.6625C71.6393 33.6625 71.7163 33.6872 71.7767 33.7367C71.8377 33.7856 71.8828 33.8565 71.9119 33.9494C71.9416 34.0417 71.9565 34.153 71.9565 34.2833ZM71.3332 34.2833C71.3332 34.3849 71.3398 34.4698 71.353 34.538C71.3667 34.6061 71.3893 34.6573 71.4206 34.6913C71.4519 34.7249 71.4937 34.7416 71.5459 34.7416C71.5981 34.7416 71.6399 34.7249 71.6712 34.6913C71.7025 34.6578 71.7251 34.607 71.7388 34.5388C71.7531 34.4707 71.7603 34.3855 71.7603 34.2833C71.7603 34.1821 71.7534 34.0975 71.7396 34.0293C71.7259 33.9612 71.7034 33.9101 71.672 33.876C71.6407 33.8414 71.5987 33.8241 71.5459 33.8241C71.4931 33.8241 71.4511 33.8414 71.4198 33.876C71.389 33.9101 71.3667 33.9612 71.353 34.0293C71.3398 34.0975 71.3332 34.1821 71.3332 34.2833ZM72.9227 34.2833C72.9227 34.3805 72.915 34.4676 72.8996 34.5446C72.8847 34.621 72.8611 34.6858 72.8287 34.7391C72.7963 34.7925 72.7539 34.8331 72.7017 34.8612C72.6495 34.8892 72.5863 34.9032 72.5121 34.9032C72.4192 34.9032 72.3426 34.8787 72.2821 34.8298C72.2216 34.7804 72.1769 34.7095 72.1477 34.6171C72.1186 34.5243 72.104 34.413 72.104 34.2833C72.104 34.1535 72.1172 34.0425 72.1436 33.9502C72.1705 33.8573 72.214 33.7861 72.2739 33.7367C72.3338 33.6872 72.4132 33.6625 72.5121 33.6625C72.6055 33.6625 72.6825 33.6872 72.7429 33.7367C72.804 33.7856 72.849 33.8565 72.8781 33.9494C72.9078 34.0417 72.9227 34.153 72.9227 34.2833ZM72.2994 34.2833C72.2994 34.3849 72.306 34.4698 72.3192 34.538C72.3329 34.6061 72.3555 34.6573 72.3868 34.6913C72.4181 34.7249 72.4599 34.7416 72.5121 34.7416C72.5643 34.7416 72.6061 34.7249 72.6374 34.6913C72.6688 34.6578 72.6913 34.607 72.705 34.5388C72.7193 34.4707 72.7265 34.3855 72.7265 34.2833C72.7265 34.1821 72.7196 34.0975 72.7058 34.0293C72.6921 33.9612 72.6696 33.9101 72.6382 33.876C72.6069 33.8414 72.5649 33.8241 72.5121 33.8241C72.4594 33.8241 72.4173 33.8414 72.386 33.876C72.3552 33.9101 72.3329 33.9612 72.3192 34.0293C72.306 34.0975 72.2994 34.1821 72.2994 34.2833Z" fill="white"/>
</g>
<defs>
<filter id="filter0_d_7971_42235" x="74.2224" y="32.8492" width="3.27007" height="3.27202" filterUnits="userSpaceOnUse" color-interpolation-filters="sRGB">
<feFlood flood-opacity="0" result="BackgroundImageFix"/>
<feColorMatrix in="SourceAlpha" type="matrix" values="0 0 0 0 0 0 0 0 0 0 0 0 0 0 0 0 0 0 127 0" result="hardAlpha"/>
<feOffset dy="0.1258"/>
<feGaussianBlur stdDeviation="0.251599"/>
<feComposite in2="hardAlpha" operator="out"/>
<feColorMatrix type="matrix" values="0 0 0 0 0 0 0 0 0 0 0 0 0 0 0 0 0 0 0.25 0"/>
<feBlend mode="normal" in2="BackgroundImageFix" result="effect1_dropShadow_7971_42235"/>
<feBlend mode="normal" in="SourceGraphic" in2="effect1_dropShadow_7971_42235" result="shape"/>
</filter>
<filter id="filter1_d_7971_42235" x="52.696" y="44.0328" width="3.27007" height="3.27202" filterUnits="userSpaceOnUse" color-interpolation-filters="sRGB">
<feFlood flood-opacity="0" result="BackgroundImageFix"/>
<feColorMatrix in="SourceAlpha" type="matrix" values="0 0 0 0 0 0 0 0 0 0 0 0 0 0 0 0 0 0 127 0" result="hardAlpha"/>
<feOffset dy="0.1258"/>
<feGaussianBlur stdDeviation="0.251599"/>
<feComposite in2="hardAlpha" operator="out"/>
<feColorMatrix type="matrix" values="0 0 0 0 0 0 0 0 0 0 0 0 0 0 0 0 0 0 0.25 0"/>
<feBlend mode="normal" in2="BackgroundImageFix" result="effect1_dropShadow_7971_42235"/>
<feBlend mode="normal" in="SourceGraphic" in2="effect1_dropShadow_7971_42235" result="shape"/>
</filter>
<filter id="filter2_d_7971_42235" x="34.5456" y="58.5953" width="3.27007" height="3.27202" filterUnits="userSpaceOnUse" color-interpolation-filters="sRGB">
<feFlood flood-opacity="0" result="BackgroundImageFix"/>
<feColorMatrix in="SourceAlpha" type="matrix" values="0 0 0 0 0 0 0 0 0 0 0 0 0 0 0 0 0 0 127 0" result="hardAlpha"/>
<feOffset dy="0.1258"/>
<feGaussianBlur stdDeviation="0.251599"/>
<feComposite in2="hardAlpha" operator="out"/>
<feColorMatrix type="matrix" values="0 0 0 0 0 0 0 0 0 0 0 0 0 0 0 0 0 0 0.25 0"/>
<feBlend mode="normal" in2="BackgroundImageFix" result="effect1_dropShadow_7971_42235"/>
<feBlend mode="normal" in="SourceGraphic" in2="effect1_dropShadow_7971_42235" result="shape"/>
</filter>
<filter id="filter3_d_7971_42235" x="42.6113" y="40.7383" width="13.8525" height="11.25" filterUnits="userSpaceOnUse" color-interpolation-filters="sRGB">
<feFlood flood-opacity="0" result="BackgroundImageFix"/>
<feColorMatrix in="SourceAlpha" type="matrix" values="0 0 0 0 0 0 0 0 0 0 0 0 0 0 0 0 0 0 127 0" result="hardAlpha"/>
<feOffset dy="1"/>
<feGaussianBlur stdDeviation="2"/>
<feComposite in2="hardAlpha" operator="out"/>
<feColorMatrix type="matrix" values="0 0 0 0 0 0 0 0 0 0 0 0 0 0 0 0 0 0 0.25 0"/>
<feBlend mode="normal" in2="BackgroundImageFix" result="effect1_dropShadow_7971_42235"/>
<feBlend mode="normal" in="SourceGraphic" in2="effect1_dropShadow_7971_42235" result="shape"/>
</filter>
<filter id="filter4_d_7971_42235" x="24.4609" y="54.668" width="13.8525" height="11.25" filterUnits="userSpaceOnUse" color-interpolation-filters="sRGB">
<feFlood flood-opacity="0" result="BackgroundImageFix"/>
<feColorMatrix in="SourceAlpha" type="matrix" values="0 0 0 0 0 0 0 0 0 0 0 0 0 0 0 0 0 0 127 0" result="hardAlpha"/>
<feOffset dy="1"/>
<feGaussianBlur stdDeviation="2"/>
<feComposite in2="hardAlpha" operator="out"/>
<feColorMatrix type="matrix" values="0 0 0 0 0 0 0 0 0 0 0 0 0 0 0 0 0 0 0.25 0"/>
<feBlend mode="normal" in2="BackgroundImageFix" result="effect1_dropShadow_7971_42235"/>
<feBlend mode="normal" in="SourceGraphic" in2="effect1_dropShadow_7971_42235" result="shape"/>
</filter>
<filter id="filter5_d_7971_42235" x="64.1377" y="29.7617" width="13.8525" height="11.25" filterUnits="userSpaceOnUse" color-interpolation-filters="sRGB">
<feFlood flood-opacity="0" result="BackgroundImageFix"/>
<feColorMatrix in="SourceAlpha" type="matrix" values="0 0 0 0 0 0 0 0 0 0 0 0 0 0 0 0 0 0 127 0" result="hardAlpha"/>
<feOffset dy="1"/>
<feGaussianBlur stdDeviation="2"/>
<feComposite in2="hardAlpha" operator="out"/>
<feColorMatrix type="matrix" values="0 0 0 0 0 0 0 0 0 0 0 0 0 0 0 0 0 0 0.25 0"/>
<feBlend mode="normal" in2="BackgroundImageFix" result="effect1_dropShadow_7971_42235"/>
<feBlend mode="normal" in="SourceGraphic" in2="effect1_dropShadow_7971_42235" result="shape"/>
</filter>
</defs>
</svg>
