<svg width="93" height="92" viewBox="0 0 93 92" fill="none" xmlns="http://www.w3.org/2000/svg">
<rect x="1.25995" y="0.389831" width="91.079" height="91.2203" rx="17.5424" stroke="#BEBEBE" stroke-width="0.779661"/>
<path d="M17.1758 67.2109L81.999 67.2109" stroke="#D4D4D4" stroke-width="0.225081"/>
<path d="M17.0667 67.2116C17.0667 67.2719 17.1155 67.3208 17.1758 67.3208C17.236 67.3208 17.2849 67.2719 17.2849 67.2116H17.0667ZM17.1758 23.3438H17.0667V67.2116H17.1758H17.2849V23.3438H17.1758Z" fill="#D4D4D4"/>
<path d="M11.9597 24H11.1174V23.8778L11.4612 23.5287C11.5251 23.4643 11.5787 23.4068 11.6221 23.3564C11.666 23.306 11.6994 23.2565 11.7223 23.2078C11.7452 23.1586 11.7566 23.1047 11.7566 23.046C11.7566 22.9734 11.7349 22.918 11.6915 22.8799C11.6487 22.8412 11.5922 22.8218 11.5218 22.8218C11.4603 22.8218 11.4058 22.8324 11.3583 22.8535C11.3108 22.8746 11.2622 22.9045 11.2124 22.9432L11.1341 22.8447C11.1681 22.816 11.205 22.7905 11.2449 22.7682C11.2853 22.7459 11.3284 22.7284 11.3741 22.7155C11.4204 22.7026 11.4697 22.6961 11.5218 22.6961C11.601 22.6961 11.6693 22.7099 11.7267 22.7374C11.7841 22.765 11.8284 22.8043 11.8595 22.8553C11.8911 22.9062 11.9069 22.9669 11.9069 23.0373C11.9069 23.1052 11.8935 23.1686 11.8665 23.2272C11.8395 23.2852 11.8017 23.3429 11.7531 23.4004C11.7044 23.4572 11.6476 23.5176 11.5825 23.5815L11.3029 23.8602V23.8664H11.9597V24ZM12.5541 23.214C12.6414 23.214 12.7173 23.2289 12.7818 23.2588C12.8462 23.2881 12.8961 23.3309 12.9312 23.3872C12.967 23.4435 12.9849 23.5117 12.9849 23.592C12.9849 23.68 12.9658 23.7559 12.9277 23.8198C12.8896 23.8831 12.8348 23.932 12.7633 23.9666C12.6918 24.0006 12.6062 24.0176 12.5066 24.0176C12.4398 24.0176 12.3776 24.0117 12.3202 24C12.2627 23.9883 12.2144 23.9707 12.1751 23.9472V23.8083C12.2179 23.8341 12.2698 23.8546 12.3307 23.8699C12.3917 23.8851 12.4509 23.8927 12.5083 23.8927C12.5734 23.8927 12.6303 23.8825 12.6789 23.862C12.7281 23.8409 12.7662 23.8092 12.7932 23.767C12.8207 23.7242 12.8345 23.6706 12.8345 23.6061C12.8345 23.5205 12.8081 23.4546 12.7554 23.4083C12.7032 23.3614 12.6206 23.3379 12.5075 23.3379C12.4711 23.3379 12.4313 23.3409 12.3879 23.3467C12.3445 23.3526 12.3087 23.359 12.2806 23.3661L12.2068 23.3177L12.256 22.7146H12.8952V22.8482H12.3808L12.3483 23.236C12.3706 23.2313 12.3993 23.2266 12.4345 23.2219C12.4696 23.2166 12.5095 23.214 12.5541 23.214ZM14.0276 23.3555C14.0276 23.4599 14.0197 23.5531 14.0039 23.6351C13.9881 23.7172 13.9631 23.7866 13.9292 23.8435C13.8952 23.9004 13.8512 23.9437 13.7973 23.9736C13.7433 24.0029 13.6786 24.0176 13.603 24.0176C13.5074 24.0176 13.4283 23.9915 13.3656 23.9393C13.3034 23.8872 13.2568 23.8118 13.2258 23.7134C13.1953 23.6143 13.1801 23.495 13.1801 23.3555C13.1801 23.2184 13.1938 23.1006 13.2214 23.0021C13.2495 22.903 13.2946 22.8271 13.3568 22.7744C13.4189 22.721 13.501 22.6944 13.603 22.6944C13.6997 22.6944 13.7794 22.7207 13.8421 22.7735C13.9048 22.8257 13.9514 22.9013 13.9819 23.0003C14.0124 23.0988 14.0276 23.2172 14.0276 23.3555ZM13.3269 23.3555C13.3269 23.4751 13.336 23.5748 13.3541 23.6545C13.3723 23.7342 13.4016 23.794 13.4421 23.8338C13.4831 23.8731 13.5367 23.8927 13.603 23.8927C13.6692 23.8927 13.7225 23.8731 13.763 23.8338C13.804 23.7946 13.8336 23.7351 13.8518 23.6553C13.8705 23.5756 13.8799 23.4757 13.8799 23.3555C13.8799 23.2377 13.8708 23.1392 13.8527 23.0601C13.8345 22.9804 13.8052 22.9206 13.7647 22.8808C13.7243 22.8403 13.6704 22.8201 13.603 22.8201C13.5356 22.8201 13.4816 22.8403 13.4412 22.8808C13.4007 22.9206 13.3714 22.9804 13.3533 23.0601C13.3357 23.1392 13.3269 23.2377 13.3269 23.3555ZM15.0581 23.3555C15.0581 23.4599 15.0502 23.5531 15.0343 23.6351C15.0185 23.7172 14.9936 23.7866 14.9596 23.8435C14.9256 23.9004 14.8816 23.9437 14.8277 23.9736C14.7738 24.0029 14.709 24.0176 14.6334 24.0176C14.5379 24.0176 14.4587 23.9915 14.396 23.9393C14.3339 23.8872 14.2873 23.8118 14.2562 23.7134C14.2257 23.6143 14.2105 23.495 14.2105 23.3555C14.2105 23.2184 14.2243 23.1006 14.2518 23.0021C14.28 22.903 14.3251 22.8271 14.3872 22.7744C14.4494 22.721 14.5314 22.6944 14.6334 22.6944C14.7301 22.6944 14.8098 22.7207 14.8726 22.7735C14.9353 22.8257 14.9819 22.9013 15.0124 23.0003C15.0428 23.0988 15.0581 23.2172 15.0581 23.3555ZM14.3573 23.3555C14.3573 23.4751 14.3664 23.5748 14.3846 23.6545C14.4028 23.7342 14.4321 23.794 14.4725 23.8338C14.5135 23.8731 14.5672 23.8927 14.6334 23.8927C14.6996 23.8927 14.753 23.8731 14.7934 23.8338C14.8345 23.7946 14.8641 23.7351 14.8822 23.6553C14.901 23.5756 14.9104 23.4757 14.9104 23.3555C14.9104 23.2377 14.9013 23.1392 14.8831 23.0601C14.8649 22.9804 14.8356 22.9206 14.7952 22.8808C14.7547 22.8403 14.7008 22.8201 14.6334 22.8201C14.566 22.8201 14.5121 22.8403 14.4716 22.8808C14.4312 22.9206 14.4019 22.9804 14.3837 23.0601C14.3661 23.1392 14.3573 23.2377 14.3573 23.3555Z" fill="#212121"/>
<path d="M11.9597 30.0508H11.1174V29.9286L11.4612 29.5795C11.5251 29.515 11.5787 29.4576 11.6221 29.4072C11.666 29.3568 11.6994 29.3073 11.7223 29.2586C11.7452 29.2094 11.7566 29.1554 11.7566 29.0968C11.7566 29.0241 11.7349 28.9688 11.6915 28.9307C11.6487 28.892 11.5922 28.8726 11.5218 28.8726C11.4603 28.8726 11.4058 28.8832 11.3583 28.9043C11.3108 28.9254 11.2622 28.9553 11.2124 28.994L11.1341 28.8955C11.1681 28.8668 11.205 28.8413 11.2449 28.819C11.2853 28.7967 11.3284 28.7791 11.3741 28.7662C11.4204 28.7533 11.4697 28.7469 11.5218 28.7469C11.601 28.7469 11.6693 28.7607 11.7267 28.7882C11.7841 28.8158 11.8284 28.855 11.8595 28.906C11.8911 28.957 11.9069 29.0177 11.9069 29.088C11.9069 29.156 11.8935 29.2193 11.8665 29.2779C11.8395 29.336 11.8017 29.3937 11.7531 29.4512C11.7044 29.508 11.6476 29.5684 11.5825 29.6323L11.3029 29.911V29.9171H11.9597V30.0508ZM12.9972 29.4063C12.9972 29.5106 12.9893 29.6038 12.9734 29.6859C12.9576 29.768 12.9327 29.8374 12.8987 29.8943C12.8647 29.9511 12.8207 29.9945 12.7668 30.0244C12.7129 30.0537 12.6481 30.0684 12.5725 30.0684C12.477 30.0684 12.3978 30.0423 12.3351 29.9901C12.273 29.9379 12.2264 29.8626 12.1953 29.7642C12.1648 29.6651 12.1496 29.5458 12.1496 29.4063C12.1496 29.2692 12.1634 29.1513 12.1909 29.0529C12.2191 28.9538 12.2642 28.8779 12.3263 28.8251C12.3885 28.7718 12.4705 28.7451 12.5725 28.7451C12.6692 28.7451 12.7489 28.7715 12.8117 28.8243C12.8744 28.8764 12.921 28.952 12.9515 29.0511C12.9819 29.1496 12.9972 29.268 12.9972 29.4063ZM12.2964 29.4063C12.2964 29.5259 12.3055 29.6255 12.3237 29.7052C12.3419 29.785 12.3712 29.8448 12.4116 29.8846C12.4526 29.9239 12.5063 29.9435 12.5725 29.9435C12.6387 29.9435 12.6921 29.9239 12.7325 29.8846C12.7736 29.8453 12.8032 29.7858 12.8213 29.7061C12.8401 29.6264 12.8495 29.5265 12.8495 29.4063C12.8495 29.2885 12.8404 29.19 12.8222 29.1109C12.804 29.0312 12.7747 28.9714 12.7343 28.9315C12.6938 28.8911 12.6399 28.8709 12.5725 28.8709C12.5051 28.8709 12.4512 28.8911 12.4107 28.9315C12.3703 28.9714 12.341 29.0312 12.3228 29.1109C12.3052 29.19 12.2964 29.2885 12.2964 29.4063ZM14.0276 29.4063C14.0276 29.5106 14.0197 29.6038 14.0039 29.6859C13.9881 29.768 13.9631 29.8374 13.9292 29.8943C13.8952 29.9511 13.8512 29.9945 13.7973 30.0244C13.7433 30.0537 13.6786 30.0684 13.603 30.0684C13.5074 30.0684 13.4283 30.0423 13.3656 29.9901C13.3034 29.9379 13.2568 29.8626 13.2258 29.7642C13.1953 29.6651 13.1801 29.5458 13.1801 29.4063C13.1801 29.2692 13.1938 29.1513 13.2214 29.0529C13.2495 28.9538 13.2946 28.8779 13.3568 28.8251C13.4189 28.7718 13.501 28.7451 13.603 28.7451C13.6997 28.7451 13.7794 28.7715 13.8421 28.8243C13.9048 28.8764 13.9514 28.952 13.9819 29.0511C14.0124 29.1496 14.0276 29.268 14.0276 29.4063ZM13.3269 29.4063C13.3269 29.5259 13.336 29.6255 13.3541 29.7052C13.3723 29.785 13.4016 29.8448 13.4421 29.8846C13.4831 29.9239 13.5367 29.9435 13.603 29.9435C13.6692 29.9435 13.7225 29.9239 13.763 29.8846C13.804 29.8453 13.8336 29.7858 13.8518 29.7061C13.8705 29.6264 13.8799 29.5265 13.8799 29.4063C13.8799 29.2885 13.8708 29.19 13.8527 29.1109C13.8345 29.0312 13.8052 28.9714 13.7647 28.9315C13.7243 28.8911 13.6704 28.8709 13.603 28.8709C13.5356 28.8709 13.4816 28.8911 13.4412 28.9315C13.4007 28.9714 13.3714 29.0312 13.3533 29.1109C13.3357 29.19 13.3269 29.2885 13.3269 29.4063ZM15.0581 29.4063C15.0581 29.5106 15.0502 29.6038 15.0343 29.6859C15.0185 29.768 14.9936 29.8374 14.9596 29.8943C14.9256 29.9511 14.8816 29.9945 14.8277 30.0244C14.7738 30.0537 14.709 30.0684 14.6334 30.0684C14.5379 30.0684 14.4587 30.0423 14.396 29.9901C14.3339 29.9379 14.2873 29.8626 14.2562 29.7642C14.2257 29.6651 14.2105 29.5458 14.2105 29.4063C14.2105 29.2692 14.2243 29.1513 14.2518 29.0529C14.28 28.9538 14.3251 28.8779 14.3872 28.8251C14.4494 28.7718 14.5314 28.7451 14.6334 28.7451C14.7301 28.7451 14.8098 28.7715 14.8726 28.8243C14.9353 28.8764 14.9819 28.952 15.0124 29.0511C15.0428 29.1496 15.0581 29.268 15.0581 29.4063ZM14.3573 29.4063C14.3573 29.5259 14.3664 29.6255 14.3846 29.7052C14.4028 29.785 14.4321 29.8448 14.4725 29.8846C14.5135 29.9239 14.5672 29.9435 14.6334 29.9435C14.6996 29.9435 14.753 29.9239 14.7934 29.8846C14.8345 29.8453 14.8641 29.7858 14.8822 29.7061C14.901 29.6264 14.9104 29.5265 14.9104 29.4063C14.9104 29.2885 14.9013 29.19 14.8831 29.1109C14.8649 29.0312 14.8356 28.9714 14.7952 28.9315C14.7547 28.8911 14.7008 28.8709 14.6334 28.8709C14.566 28.8709 14.5121 28.8911 14.4716 28.9315C14.4312 28.9714 14.4019 29.0312 14.3837 29.1109C14.3661 29.19 14.3573 29.2885 14.3573 29.4063Z" fill="#212121"/>
<path d="M11.6608 36.1016H11.5183V35.1907C11.5183 35.1561 11.5183 35.1265 11.5183 35.1019C11.5189 35.0767 11.5195 35.0538 11.5201 35.0333C11.5213 35.0122 11.5227 34.9908 11.5245 34.9691C11.5063 34.9879 11.4893 35.004 11.4735 35.0175C11.4577 35.0304 11.438 35.0465 11.4146 35.0658L11.2678 35.1837L11.1913 35.0843L11.5394 34.8161H11.6608V36.1016ZM12.5541 35.3155C12.6414 35.3155 12.7173 35.3305 12.7818 35.3604C12.8462 35.3897 12.8961 35.4325 12.9312 35.4887C12.967 35.545 12.9849 35.6133 12.9849 35.6936C12.9849 35.7815 12.9658 35.8574 12.9277 35.9213C12.8896 35.9846 12.8348 36.0336 12.7633 36.0682C12.6918 36.1021 12.6062 36.1191 12.5066 36.1191C12.4398 36.1191 12.3776 36.1133 12.3202 36.1016C12.2627 36.0898 12.2144 36.0723 12.1751 36.0488V35.9099C12.2179 35.9357 12.2698 35.9562 12.3307 35.9714C12.3917 35.9867 12.4509 35.9943 12.5083 35.9943C12.5734 35.9943 12.6303 35.984 12.6789 35.9635C12.7281 35.9424 12.7662 35.9108 12.7932 35.8686C12.8207 35.8258 12.8345 35.7721 12.8345 35.7077C12.8345 35.6221 12.8081 35.5562 12.7554 35.5098C12.7032 35.463 12.6206 35.4395 12.5075 35.4395C12.4711 35.4395 12.4313 35.4424 12.3879 35.4483C12.3445 35.4542 12.3087 35.4606 12.2806 35.4676L12.2068 35.4193L12.256 34.8161H12.8952V34.9498H12.3808L12.3483 35.3375C12.3706 35.3328 12.3993 35.3281 12.4345 35.3235C12.4696 35.3182 12.5095 35.3155 12.5541 35.3155ZM14.0276 35.4571C14.0276 35.5614 14.0197 35.6546 14.0039 35.7367C13.9881 35.8187 13.9631 35.8882 13.9292 35.9451C13.8952 36.0019 13.8512 36.0453 13.7973 36.0752C13.7433 36.1045 13.6786 36.1191 13.603 36.1191C13.5074 36.1191 13.4283 36.0931 13.3656 36.0409C13.3034 35.9887 13.2568 35.9134 13.2258 35.8149C13.1953 35.7159 13.1801 35.5966 13.1801 35.4571C13.1801 35.3199 13.1938 35.2021 13.2214 35.1036C13.2495 35.0046 13.2946 34.9287 13.3568 34.8759C13.4189 34.8226 13.501 34.7959 13.603 34.7959C13.6997 34.7959 13.7794 34.8223 13.8421 34.875C13.9048 34.9272 13.9514 35.0028 13.9819 35.1019C14.0124 35.2004 14.0276 35.3188 14.0276 35.4571ZM13.3269 35.4571C13.3269 35.5767 13.336 35.6763 13.3541 35.756C13.3723 35.8357 13.4016 35.8955 13.4421 35.9354C13.4831 35.9747 13.5367 35.9943 13.603 35.9943C13.6692 35.9943 13.7225 35.9747 13.763 35.9354C13.804 35.8961 13.8336 35.8366 13.8518 35.7569C13.8705 35.6772 13.8799 35.5773 13.8799 35.4571C13.8799 35.3393 13.8708 35.2408 13.8527 35.1617C13.8345 35.082 13.8052 35.0222 13.7647 34.9823C13.7243 34.9419 13.6704 34.9216 13.603 34.9216C13.5356 34.9216 13.4816 34.9419 13.4412 34.9823C13.4007 35.0222 13.3714 35.082 13.3533 35.1617C13.3357 35.2408 13.3269 35.3393 13.3269 35.4571ZM15.0581 35.4571C15.0581 35.5614 15.0502 35.6546 15.0343 35.7367C15.0185 35.8187 14.9936 35.8882 14.9596 35.9451C14.9256 36.0019 14.8816 36.0453 14.8277 36.0752C14.7738 36.1045 14.709 36.1191 14.6334 36.1191C14.5379 36.1191 14.4587 36.0931 14.396 36.0409C14.3339 35.9887 14.2873 35.9134 14.2562 35.8149C14.2257 35.7159 14.2105 35.5966 14.2105 35.4571C14.2105 35.3199 14.2243 35.2021 14.2518 35.1036C14.28 35.0046 14.3251 34.9287 14.3872 34.8759C14.4494 34.8226 14.5314 34.7959 14.6334 34.7959C14.7301 34.7959 14.8098 34.8223 14.8726 34.875C14.9353 34.9272 14.9819 35.0028 15.0124 35.1019C15.0428 35.2004 15.0581 35.3188 15.0581 35.4571ZM14.3573 35.4571C14.3573 35.5767 14.3664 35.6763 14.3846 35.756C14.4028 35.8357 14.4321 35.8955 14.4725 35.9354C14.5135 35.9747 14.5672 35.9943 14.6334 35.9943C14.6996 35.9943 14.753 35.9747 14.7934 35.9354C14.8345 35.8961 14.8641 35.8366 14.8822 35.7569C14.901 35.6772 14.9104 35.5773 14.9104 35.4571C14.9104 35.3393 14.9013 35.2408 14.8831 35.1617C14.8649 35.082 14.8356 35.0222 14.7952 34.9823C14.7547 34.9419 14.7008 34.9216 14.6334 34.9216C14.566 34.9216 14.5121 34.9419 14.4716 34.9823C14.4312 35.0222 14.4019 35.082 14.3837 35.1617C14.3661 35.2408 14.3573 35.3393 14.3573 35.4571Z" fill="#212121"/>
<path d="M11.6608 42.1562H11.5183V41.2454C11.5183 41.2108 11.5183 41.1812 11.5183 41.1566C11.5189 41.1314 11.5195 41.1085 11.5201 41.088C11.5213 41.0669 11.5227 41.0455 11.5245 41.0238C11.5063 41.0426 11.4893 41.0587 11.4735 41.0722C11.4577 41.0851 11.438 41.1012 11.4146 41.1205L11.2678 41.2383L11.1913 41.139L11.5394 40.8708H11.6608V42.1562ZM12.9972 41.5118C12.9972 41.6161 12.9893 41.7093 12.9734 41.7914C12.9576 41.8734 12.9327 41.9429 12.8987 41.9997C12.8647 42.0566 12.8207 42.1 12.7668 42.1299C12.7129 42.1592 12.6481 42.1738 12.5725 42.1738C12.477 42.1738 12.3978 42.1478 12.3351 42.0956C12.273 42.0434 12.2264 41.9681 12.1953 41.8696C12.1648 41.7706 12.1496 41.6513 12.1496 41.5118C12.1496 41.3746 12.1634 41.2568 12.1909 41.1583C12.2191 41.0593 12.2642 40.9834 12.3263 40.9306C12.3885 40.8773 12.4705 40.8506 12.5725 40.8506C12.6692 40.8506 12.7489 40.877 12.8117 40.9297C12.8744 40.9819 12.921 41.0575 12.9515 41.1566C12.9819 41.255 12.9972 41.3735 12.9972 41.5118ZM12.2964 41.5118C12.2964 41.6314 12.3055 41.731 12.3237 41.8107C12.3419 41.8904 12.3712 41.9502 12.4116 41.9901C12.4526 42.0293 12.5063 42.049 12.5725 42.049C12.6387 42.049 12.6921 42.0293 12.7325 41.9901C12.7736 41.9508 12.8032 41.8913 12.8213 41.8116C12.8401 41.7319 12.8495 41.6319 12.8495 41.5118C12.8495 41.394 12.8404 41.2955 12.8222 41.2164C12.804 41.1366 12.7747 41.0769 12.7343 41.037C12.6938 40.9966 12.6399 40.9763 12.5725 40.9763C12.5051 40.9763 12.4512 40.9966 12.4107 41.037C12.3703 41.0769 12.341 41.1366 12.3228 41.2164C12.3052 41.2955 12.2964 41.394 12.2964 41.5118ZM14.0276 41.5118C14.0276 41.6161 14.0197 41.7093 14.0039 41.7914C13.9881 41.8734 13.9631 41.9429 13.9292 41.9997C13.8952 42.0566 13.8512 42.1 13.7973 42.1299C13.7433 42.1592 13.6786 42.1738 13.603 42.1738C13.5074 42.1738 13.4283 42.1478 13.3656 42.0956C13.3034 42.0434 13.2568 41.9681 13.2258 41.8696C13.1953 41.7706 13.1801 41.6513 13.1801 41.5118C13.1801 41.3746 13.1938 41.2568 13.2214 41.1583C13.2495 41.0593 13.2946 40.9834 13.3568 40.9306C13.4189 40.8773 13.501 40.8506 13.603 40.8506C13.6997 40.8506 13.7794 40.877 13.8421 40.9297C13.9048 40.9819 13.9514 41.0575 13.9819 41.1566C14.0124 41.255 14.0276 41.3735 14.0276 41.5118ZM13.3269 41.5118C13.3269 41.6314 13.336 41.731 13.3541 41.8107C13.3723 41.8904 13.4016 41.9502 13.4421 41.9901C13.4831 42.0293 13.5367 42.049 13.603 42.049C13.6692 42.049 13.7225 42.0293 13.763 41.9901C13.804 41.9508 13.8336 41.8913 13.8518 41.8116C13.8705 41.7319 13.8799 41.6319 13.8799 41.5118C13.8799 41.394 13.8708 41.2955 13.8527 41.2164C13.8345 41.1366 13.8052 41.0769 13.7647 41.037C13.7243 40.9966 13.6704 40.9763 13.603 40.9763C13.5356 40.9763 13.4816 40.9966 13.4412 41.037C13.4007 41.0769 13.3714 41.1366 13.3533 41.2164C13.3357 41.2955 13.3269 41.394 13.3269 41.5118ZM15.0581 41.5118C15.0581 41.6161 15.0502 41.7093 15.0343 41.7914C15.0185 41.8734 14.9936 41.9429 14.9596 41.9997C14.9256 42.0566 14.8816 42.1 14.8277 42.1299C14.7738 42.1592 14.709 42.1738 14.6334 42.1738C14.5379 42.1738 14.4587 42.1478 14.396 42.0956C14.3339 42.0434 14.2873 41.9681 14.2562 41.8696C14.2257 41.7706 14.2105 41.6513 14.2105 41.5118C14.2105 41.3746 14.2243 41.2568 14.2518 41.1583C14.28 41.0593 14.3251 40.9834 14.3872 40.9306C14.4494 40.8773 14.5314 40.8506 14.6334 40.8506C14.7301 40.8506 14.8098 40.877 14.8726 40.9297C14.9353 40.9819 14.9819 41.0575 15.0124 41.1566C15.0428 41.255 15.0581 41.3735 15.0581 41.5118ZM14.3573 41.5118C14.3573 41.6314 14.3664 41.731 14.3846 41.8107C14.4028 41.8904 14.4321 41.9502 14.4725 41.9901C14.5135 42.0293 14.5672 42.049 14.6334 42.049C14.6996 42.049 14.753 42.0293 14.7934 41.9901C14.8345 41.9508 14.8641 41.8913 14.8822 41.8116C14.901 41.7319 14.9104 41.6319 14.9104 41.5118C14.9104 41.394 14.9013 41.2955 14.8831 41.2164C14.8649 41.1366 14.8356 41.0769 14.7952 41.037C14.7547 40.9966 14.7008 40.9763 14.6334 40.9763C14.566 40.9763 14.5121 40.9966 14.4716 41.037C14.4312 41.0769 14.4019 41.1366 14.3837 41.2164C14.3661 41.2955 14.3573 41.394 14.3573 41.5118Z" fill="#212121"/>
<path d="M12.5538 47.421C12.6411 47.421 12.7171 47.436 12.7815 47.4658C12.846 47.4952 12.8958 47.5379 12.931 47.5942C12.9668 47.6505 12.9846 47.7188 12.9846 47.7991C12.9846 47.887 12.9656 47.9629 12.9275 48.0268C12.8894 48.0901 12.8346 48.139 12.7631 48.1736C12.6916 48.2076 12.606 48.2246 12.5063 48.2246C12.4395 48.2246 12.3774 48.2188 12.3199 48.207C12.2625 48.1953 12.2141 48.1777 12.1749 48.1543V48.0154C12.2177 48.0412 12.2695 48.0617 12.3305 48.0769C12.3914 48.0921 12.4506 48.0998 12.5081 48.0998C12.5732 48.0998 12.63 48.0895 12.6787 48.069C12.7279 48.0479 12.766 48.0162 12.793 47.974C12.8205 47.9312 12.8343 47.8776 12.8343 47.8131C12.8343 47.7276 12.8079 47.6616 12.7552 47.6153C12.703 47.5684 12.6203 47.545 12.5072 47.545C12.4709 47.545 12.431 47.5479 12.3876 47.5538C12.3443 47.5596 12.3085 47.5661 12.2804 47.5731L12.2065 47.5248L12.2558 46.9216H12.8949V47.0553H12.3806L12.3481 47.443C12.3703 47.4383 12.3991 47.4336 12.4342 47.4289C12.4694 47.4236 12.5093 47.421 12.5538 47.421ZM14.0274 47.5626C14.0274 47.6669 14.0195 47.7601 14.0036 47.8422C13.9878 47.9242 13.9629 47.9937 13.9289 48.0505C13.8949 48.1074 13.851 48.1508 13.797 48.1807C13.7431 48.21 13.6783 48.2246 13.6027 48.2246C13.5072 48.2246 13.4281 48.1985 13.3653 48.1464C13.3032 48.0942 13.2566 48.0189 13.2255 47.9204C13.1951 47.8213 13.1798 47.7021 13.1798 47.5626C13.1798 47.4254 13.1936 47.3076 13.2211 47.2091C13.2493 47.1101 13.2944 47.0342 13.3565 46.9814C13.4187 46.9281 13.5007 46.9014 13.6027 46.9014C13.6994 46.9014 13.7792 46.9278 13.8419 46.9805C13.9046 47.0327 13.9512 47.1083 13.9817 47.2074C14.0121 47.3058 14.0274 47.4242 14.0274 47.5626ZM13.3266 47.5626C13.3266 47.6821 13.3357 47.7818 13.3539 47.8615C13.3721 47.9412 13.4014 48.001 13.4418 48.0409C13.4829 48.0801 13.5365 48.0998 13.6027 48.0998C13.669 48.0998 13.7223 48.0801 13.7627 48.0409C13.8038 48.0016 13.8334 47.9421 13.8515 47.8624C13.8703 47.7827 13.8797 47.6827 13.8797 47.5626C13.8797 47.4447 13.8706 47.3463 13.8524 47.2671C13.8343 47.1874 13.8049 47.1276 13.7645 47.0878C13.7241 47.0473 13.6701 47.0271 13.6027 47.0271C13.5353 47.0271 13.4814 47.0473 13.4409 47.0878C13.4005 47.1276 13.3712 47.1874 13.353 47.2671C13.3354 47.3463 13.3266 47.4447 13.3266 47.5626ZM15.0578 47.5626C15.0578 47.6669 15.0499 47.7601 15.0341 47.8422C15.0183 47.9242 14.9934 47.9937 14.9594 48.0505C14.9254 48.1074 14.8814 48.1508 14.8275 48.1807C14.7736 48.21 14.7088 48.2246 14.6332 48.2246C14.5376 48.2246 14.4585 48.1985 14.3958 48.1464C14.3336 48.0942 14.287 48.0189 14.256 47.9204C14.2255 47.8213 14.2103 47.7021 14.2103 47.5626C14.2103 47.4254 14.224 47.3076 14.2516 47.2091C14.2797 47.1101 14.3249 47.0342 14.387 46.9814C14.4491 46.9281 14.5312 46.9014 14.6332 46.9014C14.7299 46.9014 14.8096 46.9278 14.8723 46.9805C14.935 47.0327 14.9816 47.1083 15.0121 47.2074C15.0426 47.3058 15.0578 47.4242 15.0578 47.5626ZM14.3571 47.5626C14.3571 47.6821 14.3662 47.7818 14.3843 47.8615C14.4025 47.9412 14.4318 48.001 14.4723 48.0409C14.5133 48.0801 14.5669 48.0998 14.6332 48.0998C14.6994 48.0998 14.7527 48.0801 14.7932 48.0409C14.8342 48.0016 14.8638 47.9421 14.882 47.8624C14.9007 47.7827 14.9101 47.6827 14.9101 47.5626C14.9101 47.4447 14.901 47.3463 14.8829 47.2671C14.8647 47.1874 14.8354 47.1276 14.7949 47.0878C14.7545 47.0473 14.7006 47.0271 14.6332 47.0271C14.5658 47.0271 14.5118 47.0473 14.4714 47.0878C14.4309 47.1276 14.4016 47.1874 14.3835 47.2671C14.3659 47.3463 14.3571 47.4447 14.3571 47.5626Z" fill="#212121"/>
<path d="M12.691 54.2578H12.5485V53.3469C12.5485 53.3124 12.5485 53.2828 12.5485 53.2581C12.5491 53.2329 12.5497 53.2101 12.5503 53.1896C12.5515 53.1685 12.5529 53.1471 12.5547 53.1254C12.5365 53.1441 12.5195 53.1603 12.5037 53.1737C12.4879 53.1866 12.4682 53.2027 12.4448 53.2221L12.298 53.3399L12.2215 53.2406L12.5696 52.9724H12.691V54.2578ZM14.0274 53.6133C14.0274 53.7177 14.0195 53.8109 14.0036 53.8929C13.9878 53.975 13.9629 54.0445 13.9289 54.1013C13.8949 54.1582 13.851 54.2015 13.797 54.2314C13.7431 54.2607 13.6783 54.2754 13.6027 54.2754C13.5072 54.2754 13.4281 54.2493 13.3653 54.1971C13.3032 54.145 13.2566 54.0697 13.2255 53.9712C13.1951 53.8721 13.1798 53.7528 13.1798 53.6133C13.1798 53.4762 13.1936 53.3584 13.2211 53.2599C13.2493 53.1608 13.2944 53.0849 13.3565 53.0322C13.4187 52.9788 13.5007 52.9522 13.6027 52.9522C13.6994 52.9522 13.7792 52.9785 13.8419 53.0313C13.9046 53.0835 13.9512 53.1591 13.9817 53.2581C14.0121 53.3566 14.0274 53.475 14.0274 53.6133ZM13.3266 53.6133C13.3266 53.7329 13.3357 53.8326 13.3539 53.9123C13.3721 53.992 13.4014 54.0518 13.4418 54.0916C13.4829 54.1309 13.5365 54.1505 13.6027 54.1505C13.669 54.1505 13.7223 54.1309 13.7627 54.0916C13.8038 54.0524 13.8334 53.9929 13.8515 53.9132C13.8703 53.8334 13.8797 53.7335 13.8797 53.6133C13.8797 53.4955 13.8706 53.3971 13.8524 53.3179C13.8343 53.2382 13.8049 53.1784 13.7645 53.1386C13.7241 53.0981 13.6701 53.0779 13.6027 53.0779C13.5353 53.0779 13.4814 53.0981 13.4409 53.1386C13.4005 53.1784 13.3712 53.2382 13.353 53.3179C13.3354 53.3971 13.3266 53.4955 13.3266 53.6133ZM15.0578 53.6133C15.0578 53.7177 15.0499 53.8109 15.0341 53.8929C15.0183 53.975 14.9934 54.0445 14.9594 54.1013C14.9254 54.1582 14.8814 54.2015 14.8275 54.2314C14.7736 54.2607 14.7088 54.2754 14.6332 54.2754C14.5376 54.2754 14.4585 54.2493 14.3958 54.1971C14.3336 54.145 14.287 54.0697 14.256 53.9712C14.2255 53.8721 14.2103 53.7528 14.2103 53.6133C14.2103 53.4762 14.224 53.3584 14.2516 53.2599C14.2797 53.1608 14.3249 53.0849 14.387 53.0322C14.4491 52.9788 14.5312 52.9522 14.6332 52.9522C14.7299 52.9522 14.8096 52.9785 14.8723 53.0313C14.935 53.0835 14.9816 53.1591 15.0121 53.2581C15.0426 53.3566 15.0578 53.475 15.0578 53.6133ZM14.3571 53.6133C14.3571 53.7329 14.3662 53.8326 14.3843 53.9123C14.4025 53.992 14.4318 54.0518 14.4723 54.0916C14.5133 54.1309 14.5669 54.1505 14.6332 54.1505C14.6994 54.1505 14.7527 54.1309 14.7932 54.0916C14.8342 54.0524 14.8638 53.9929 14.882 53.9132C14.9007 53.8334 14.9101 53.7335 14.9101 53.6133C14.9101 53.4955 14.901 53.3971 14.8829 53.3179C14.8647 53.2382 14.8354 53.1784 14.7949 53.1386C14.7545 53.0981 14.7006 53.0779 14.6332 53.0779C14.5658 53.0779 14.5118 53.0981 14.4714 53.1386C14.4309 53.1784 14.4016 53.2382 14.3835 53.3179C14.3659 53.3971 14.3571 53.4955 14.3571 53.6133Z" fill="#212121"/>
<path d="M15.0578 59.6641C15.0578 59.7685 15.0499 59.8617 15.0341 59.9437C15.0183 60.0258 14.9934 60.0952 14.9594 60.1521C14.9254 60.2089 14.8814 60.2523 14.8275 60.2822C14.7736 60.3115 14.7088 60.3262 14.6332 60.3262C14.5376 60.3262 14.4585 60.3001 14.3958 60.2479C14.3336 60.1958 14.287 60.1204 14.256 60.022C14.2255 59.9229 14.2103 59.8036 14.2103 59.6641C14.2103 59.527 14.224 59.4092 14.2516 59.3107C14.2797 59.2116 14.3249 59.1357 14.387 59.083C14.4491 59.0296 14.5312 59.003 14.6332 59.003C14.7299 59.003 14.8096 59.0293 14.8723 59.0821C14.935 59.1342 14.9816 59.2099 15.0121 59.3089C15.0426 59.4074 15.0578 59.5258 15.0578 59.6641ZM14.3571 59.6641C14.3571 59.7837 14.3662 59.8833 14.3843 59.9631C14.4025 60.0428 14.4318 60.1026 14.4723 60.1424C14.5133 60.1817 14.5669 60.2013 14.6332 60.2013C14.6994 60.2013 14.7527 60.1817 14.7932 60.1424C14.8342 60.1031 14.8638 60.0437 14.882 59.9639C14.9007 59.8842 14.9101 59.7843 14.9101 59.6641C14.9101 59.5463 14.901 59.4478 14.8829 59.3687C14.8647 59.289 14.8354 59.2292 14.7949 59.1893C14.7545 59.1489 14.7006 59.1287 14.6332 59.1287C14.5658 59.1287 14.5118 59.1489 14.4714 59.1893C14.4309 59.2292 14.4016 59.289 14.3835 59.3687C14.3659 59.4478 14.3571 59.5463 14.3571 59.6641Z" fill="#212121"/>
<path d="M32.7326 70.418H32.5901V69.5071C32.5901 69.4725 32.5901 69.4429 32.5901 69.4183C32.5907 69.3931 32.5913 69.3702 32.5919 69.3497C32.5931 69.3286 32.5945 69.3072 32.5963 69.2855C32.5781 69.3043 32.5611 69.3204 32.5453 69.3339C32.5295 69.3468 32.5098 69.3629 32.4864 69.3822L32.3396 69.5001L32.2631 69.4007L32.6112 69.1325H32.7326V70.418Z" fill="#212121"/>
<path d="M24.2602 69.7735C24.2602 69.8778 24.2523 69.971 24.2365 70.0531C24.2207 70.1352 24.1957 70.2046 24.1617 70.2615C24.1278 70.3183 24.0838 70.3617 24.0299 70.3916C23.9759 70.4209 23.9112 70.4356 23.8356 70.4356C23.74 70.4356 23.6609 70.4095 23.5982 70.3573C23.536 70.3051 23.4894 70.2298 23.4584 70.1313C23.4279 70.0323 23.4127 69.913 23.4127 69.7735C23.4127 69.6363 23.4264 69.5185 23.454 69.4201C23.4821 69.321 23.5272 69.2451 23.5894 69.1923C23.6515 69.139 23.7336 69.1123 23.8356 69.1123C23.9323 69.1123 24.012 69.1387 24.0747 69.1915C24.1374 69.2436 24.184 69.3192 24.2145 69.4183C24.245 69.5168 24.2602 69.6352 24.2602 69.7735ZM23.5595 69.7735C23.5595 69.8931 23.5686 69.9927 23.5867 70.0724C23.6049 70.1522 23.6342 70.2119 23.6747 70.2518C23.7157 70.2911 23.7693 70.3107 23.8356 70.3107C23.9018 70.3107 23.9551 70.2911 23.9956 70.2518C24.0366 70.2125 24.0662 70.153 24.0844 70.0733C24.1031 69.9936 24.1125 69.8937 24.1125 69.7735C24.1125 69.6557 24.1034 69.5572 24.0853 69.4781C24.0671 69.3984 24.0378 69.3386 23.9973 69.2987C23.9569 69.2583 23.903 69.2381 23.8356 69.2381C23.7682 69.2381 23.7142 69.2583 23.6738 69.2987C23.6333 69.3386 23.604 69.3984 23.5859 69.4781C23.5683 69.5572 23.5595 69.6557 23.5595 69.7735Z" fill="#212121"/>
<path d="M41.8098 70.418H40.9675V70.2958L41.3113 69.9467C41.3752 69.8822 41.4288 69.8248 41.4722 69.7744C41.5162 69.724 41.5496 69.6744 41.5724 69.6258C41.5953 69.5766 41.6067 69.5226 41.6067 69.464C41.6067 69.3913 41.585 69.3359 41.5417 69.2978C41.4989 69.2592 41.4423 69.2398 41.372 69.2398C41.3104 69.2398 41.2559 69.2504 41.2084 69.2715C41.161 69.2926 41.1123 69.3225 41.0625 69.3611L40.9842 69.2627C41.0182 69.234 41.0552 69.2085 41.095 69.1862C41.1355 69.1639 41.1785 69.1463 41.2243 69.1334C41.2706 69.1205 41.3198 69.1141 41.372 69.1141C41.4511 69.1141 41.5194 69.1279 41.5768 69.1554C41.6343 69.183 41.6785 69.2222 41.7096 69.2732C41.7412 69.3242 41.7571 69.3849 41.7571 69.4552C41.7571 69.5232 41.7436 69.5865 41.7166 69.6451C41.6897 69.7032 41.6519 69.7609 41.6032 69.8183C41.5546 69.8752 41.4977 69.9356 41.4326 69.9995L41.153 70.2782V70.2843H41.8098V70.418Z" fill="#212121"/>
<path d="M50.5407 69.4324C50.5407 69.4898 50.5295 69.5396 50.5073 69.5818C50.485 69.624 50.4539 69.6586 50.4141 69.6856C50.3742 69.712 50.3273 69.7304 50.2734 69.741V69.748C50.3754 69.7609 50.4519 69.7937 50.5029 69.8465C50.5544 69.8992 50.5802 69.9684 50.5802 70.054C50.5802 70.1284 50.5627 70.1944 50.5275 70.2518C50.4929 70.3092 50.4396 70.3544 50.3675 70.3872C50.296 70.4194 50.2042 70.4356 50.0923 70.4356C50.0243 70.4356 49.9613 70.43 49.9032 70.4188C49.8458 70.4083 49.7907 70.3904 49.7379 70.3652V70.2281C49.7913 70.2544 49.8493 70.2752 49.912 70.2905C49.9747 70.3051 50.0354 70.3125 50.094 70.3125C50.2113 70.3125 50.296 70.2893 50.3481 70.243C50.4003 70.1961 50.4264 70.1322 50.4264 70.0513C50.4264 69.9956 50.4117 69.9508 50.3824 69.9168C50.3537 69.8822 50.3121 69.857 50.2576 69.8412C50.2036 69.8248 50.1386 69.8166 50.0624 69.8166H49.934V69.6917H50.0633C50.133 69.6917 50.1922 69.6815 50.2409 69.661C50.2895 69.6404 50.3264 69.6117 50.3516 69.5748C50.3774 69.5373 50.3903 69.493 50.3903 69.442C50.3903 69.377 50.3686 69.3269 50.3253 69.2917C50.2819 69.2559 50.223 69.2381 50.1485 69.2381C50.1028 69.2381 50.0612 69.2427 50.0237 69.2521C49.9862 69.2615 49.951 69.2744 49.9182 69.2908C49.8854 69.3072 49.8525 69.3263 49.8197 69.348L49.7459 69.2477C49.7927 69.2114 49.8499 69.18 49.9173 69.1536C49.9847 69.1273 50.0612 69.1141 50.1468 69.1141C50.2781 69.1141 50.3765 69.144 50.4422 69.2038C50.5078 69.2636 50.5407 69.3398 50.5407 69.4324Z" fill="#212121"/>
<path d="M59.4297 70.1199H59.2371V70.418H59.0947V70.1199H58.4731V69.9968L59.085 69.1255H59.2371V69.988H59.4297V70.1199ZM59.0947 69.988V69.5678C59.0947 69.5355 59.095 69.5065 59.0956 69.4807C59.0962 69.4543 59.097 69.43 59.0982 69.4077C59.0994 69.3849 59.1003 69.3632 59.1008 69.3427C59.102 69.3222 59.1029 69.3019 59.1035 69.282H59.0965C59.0853 69.3055 59.0724 69.3304 59.0578 69.3567C59.0437 69.3825 59.0293 69.4057 59.0147 69.4262L58.6182 69.988H59.0947Z" fill="#212121"/>
<path d="M67.7077 69.6319C67.7951 69.6319 67.871 69.6469 67.9354 69.6768C67.9999 69.7061 68.0497 69.7489 68.0849 69.8052C68.1207 69.8614 68.1385 69.9297 68.1385 70.01C68.1385 70.0979 68.1195 70.1738 68.0814 70.2377C68.0433 70.301 67.9885 70.35 67.917 70.3846C67.8455 70.4186 67.7599 70.4356 67.6602 70.4356C67.5934 70.4356 67.5313 70.4297 67.4738 70.418C67.4164 70.4062 67.368 70.3887 67.3288 70.3652V70.2263C67.3716 70.2521 67.4234 70.2726 67.4844 70.2878C67.5454 70.3031 67.6046 70.3107 67.662 70.3107C67.7271 70.3107 67.7839 70.3004 67.8326 70.2799C67.8818 70.2588 67.9199 70.2272 67.9469 70.185C67.9744 70.1422 67.9882 70.0886 67.9882 70.0241C67.9882 69.9385 67.9618 69.8726 67.9091 69.8263C67.8569 69.7794 67.7742 69.7559 67.6611 69.7559C67.6248 69.7559 67.5849 69.7588 67.5415 69.7647C67.4982 69.7706 67.4624 69.777 67.4343 69.7841L67.3604 69.7357L67.4097 69.1325H68.0489V69.2662H67.5345L67.502 69.6539C67.5243 69.6492 67.553 69.6445 67.5881 69.6399C67.6233 69.6346 67.6632 69.6319 67.7077 69.6319Z" fill="#212121"/>
<path d="M75.8674 69.8685C75.8674 69.7911 75.8727 69.7155 75.8833 69.6416C75.8944 69.5678 75.9129 69.4992 75.9387 69.4359C75.9644 69.372 75.9996 69.316 76.0442 69.2679C76.0887 69.2199 76.1441 69.1824 76.2103 69.1554C76.2772 69.1279 76.3572 69.1141 76.4504 69.1141C76.4767 69.1141 76.5052 69.1155 76.5356 69.1185C76.5661 69.1208 76.5913 69.1249 76.6113 69.1308V69.2565C76.5896 69.2489 76.5647 69.2433 76.5365 69.2398C76.509 69.2363 76.4811 69.2345 76.453 69.2345C76.344 69.2345 76.2581 69.2583 76.1954 69.3058C76.1333 69.3532 76.0884 69.4177 76.0609 69.4992C76.0333 69.5801 76.0175 69.6712 76.0134 69.7726H76.0231C76.0412 69.7433 76.0644 69.7169 76.0925 69.6935C76.1207 69.6695 76.1547 69.6504 76.1945 69.6363C76.235 69.6223 76.2818 69.6152 76.3352 69.6152C76.4102 69.6152 76.4756 69.6305 76.5313 69.661C76.5875 69.6914 76.6309 69.7357 76.6614 69.7937C76.6924 69.8518 76.708 69.9221 76.708 70.0047C76.708 70.0932 76.6916 70.1697 76.6587 70.2342C76.6259 70.2987 76.579 70.3485 76.5181 70.3837C76.4577 70.4183 76.3856 70.4356 76.3018 70.4356C76.2391 70.4356 76.1813 70.4235 76.1286 70.3995C76.0758 70.3755 76.0298 70.3397 75.9905 70.2922C75.9518 70.2448 75.9217 70.1859 75.9 70.1155C75.8783 70.0446 75.8674 69.9622 75.8674 69.8685ZM76.3 70.3125C76.3797 70.3125 76.4436 70.287 76.4917 70.236C76.5398 70.185 76.5638 70.1079 76.5638 70.0047C76.5638 69.9203 76.5424 69.8535 76.4996 69.8043C76.4568 69.755 76.3923 69.7304 76.3062 69.7304C76.2476 69.7304 76.1966 69.7427 76.1532 69.7673C76.1098 69.7914 76.0761 69.8219 76.0521 69.8588C76.028 69.8957 76.016 69.9332 76.016 69.9713C76.016 70.01 76.0216 70.0493 76.0327 70.0891C76.0445 70.129 76.062 70.1659 76.0855 70.1999C76.1089 70.2339 76.1385 70.2612 76.1743 70.2817C76.21 70.3022 76.252 70.3125 76.3 70.3125Z" fill="#212121"/>
<path d="M18.8857 25.1087C18.8857 24.1275 19.6812 23.332 20.6624 23.332H23.7715C24.7527 23.332 25.5481 24.1275 25.5481 25.1087V67.0817H18.8857V25.1087Z" fill="#ECF0FF"/>
<path d="M18.8857 62.1946C18.8857 61.2134 19.6812 60.418 20.6624 60.418H23.7715C24.7527 60.418 25.5481 61.2134 25.5481 62.1946V67.0804H18.8857V62.1946Z" fill="#2C4CF5"/>
<path d="M27.9912 25.1087C27.9912 24.1275 28.7866 23.332 29.7678 23.332H32.877C33.8582 23.332 34.6536 24.1275 34.6536 25.1087V67.0817H27.9912V25.1087Z" fill="#ECF0FF"/>
<path d="M27.9912 57.7532C27.9912 56.772 28.7866 55.9766 29.7678 55.9766H32.877C33.8582 55.9766 34.6536 56.772 34.6536 57.7532V67.0805H27.9912V57.7532Z" fill="#2C4CF5"/>
<path d="M37.0957 25.1087C37.0957 24.1275 37.8911 23.332 38.8723 23.332H41.9815C42.9627 23.332 43.7581 24.1275 43.7581 25.1087V67.0817H37.0957V25.1087Z" fill="#ECF0FF"/>
<path d="M37.0957 46.6516C37.0957 45.6704 37.8911 44.875 38.8723 44.875H41.9815C42.9627 44.875 43.7581 45.6704 43.7581 46.6516V67.0829H37.0957V46.6516Z" fill="#2C4CF5"/>
<path d="M46.2012 25.1087C46.2012 24.1275 46.9966 23.332 47.9778 23.332H51.0869C52.0681 23.332 52.8636 24.1275 52.8636 25.1087V67.0817H46.2012V25.1087Z" fill="#ECF0FF"/>
<path d="M46.2012 39.9876C46.2012 39.0064 46.9966 38.2109 47.9778 38.2109H51.0869C52.0681 38.2109 52.8636 39.0064 52.8636 39.9876V67.0813H46.2012V39.9876Z" fill="#2C4CF5"/>
<path d="M55.3066 25.1087C55.3066 24.1275 56.1021 23.332 57.0833 23.332H60.1924C61.1736 23.332 61.969 24.1275 61.969 25.1087V67.0817H55.3066V25.1087Z" fill="#ECF0FF"/>
<path d="M55.3066 57.7532C55.3066 56.772 56.1021 55.9766 57.0833 55.9766H60.1924C61.1736 55.9766 61.969 56.772 61.969 57.7532V67.0805H55.3066V57.7532Z" fill="#2C4CF5"/>
<path d="M64.4121 25.1087C64.4121 24.1275 65.2075 23.332 66.1887 23.332H69.2979C70.2791 23.332 71.0745 24.1275 71.0745 25.1087V67.0817H64.4121V25.1087Z" fill="#ECF0FF"/>
<path d="M64.4121 62.1946C64.4121 61.2134 65.2075 60.418 66.1887 60.418H69.2979C70.2791 60.418 71.0745 61.2134 71.0745 62.1946V67.0804H64.4121V62.1946Z" fill="#2C4CF5"/>
<path d="M73.5166 25.1087C73.5166 24.1275 74.312 23.332 75.2932 23.332H78.4024C79.3836 23.332 80.179 24.1275 80.179 25.1087V67.0817H73.5166V25.1087Z" fill="#ECF0FF"/>
<path d="M73.5166 62.1946C73.5166 61.2134 74.312 60.418 75.2932 60.418H78.4024C79.3836 60.418 80.179 61.2134 80.179 62.1946V67.0804H73.5166V62.1946Z" fill="#2C4CF5"/>
<rect x="19.8836" y="56.3093" width="4.72669" height="3.37621" rx="1.6881" fill="white"/>
<rect x="19.8836" y="56.3093" width="4.72669" height="3.37621" rx="1.6881" stroke="#ECF1FF" stroke-width="0.225081"/>
<path d="M21.2605 57.1922C21.335 57.1922 21.4009 57.2039 21.4584 57.2274C21.5158 57.2508 21.5606 57.2854 21.5929 57.3311C21.6257 57.3763 21.6421 57.4319 21.6421 57.4982C21.6421 57.5503 21.6307 57.5961 21.6078 57.6353C21.5856 57.674 21.5554 57.708 21.5173 57.7373C21.4792 57.766 21.437 57.7918 21.3907 57.8147C21.4458 57.8399 21.4953 57.8683 21.5392 57.9C21.5838 57.9316 21.619 57.9689 21.6448 58.0116C21.6705 58.0544 21.6834 58.1051 21.6834 58.1637C21.6834 58.2358 21.6659 58.2983 21.6307 58.351C21.5961 58.4032 21.5475 58.4433 21.4847 58.4715C21.422 58.4996 21.3485 58.5137 21.2641 58.5137C21.1732 58.5137 21.0958 58.5002 21.0319 58.4732C20.9686 58.4457 20.9203 58.4064 20.8869 58.3554C20.854 58.3038 20.8376 58.242 20.8376 58.1699C20.8376 58.1107 20.8502 58.0594 20.8754 58.016C20.9006 57.9721 20.9341 57.9343 20.9757 57.9026C21.0173 57.871 21.0627 57.8443 21.1119 57.8226C21.0692 57.7992 21.0299 57.7725 20.9941 57.7426C20.959 57.7127 20.9308 57.6778 20.9097 57.638C20.8892 57.5975 20.879 57.5506 20.879 57.4973C20.879 57.4322 20.8954 57.3771 20.9282 57.332C20.9616 57.2863 21.007 57.2517 21.0645 57.2283C21.1225 57.2042 21.1879 57.1922 21.2605 57.1922ZM20.9809 58.1708C20.9809 58.2364 21.0041 58.2906 21.0504 58.3334C21.0967 58.3756 21.1668 58.3967 21.2605 58.3967C21.3496 58.3967 21.4185 58.3756 21.4672 58.3334C21.5158 58.2906 21.5401 58.2347 21.5401 58.1655C21.5401 58.1227 21.529 58.0852 21.5067 58.053C21.4844 58.0201 21.4528 57.9908 21.4118 57.965C21.3707 57.9393 21.3224 57.9158 21.2667 57.8947L21.235 57.8833C21.1811 57.9056 21.1351 57.9305 21.097 57.958C21.0595 57.985 21.0308 58.0157 21.0108 58.0503C20.9909 58.0849 20.9809 58.1251 20.9809 58.1708ZM21.2588 57.3118C21.1896 57.3118 21.133 57.3285 21.0891 57.3619C21.0451 57.3947 21.0231 57.4422 21.0231 57.5043C21.0231 57.5489 21.0337 57.5867 21.0548 57.6178C21.0765 57.6482 21.1058 57.6746 21.1427 57.6969C21.1796 57.7186 21.221 57.7388 21.2667 57.7575C21.3112 57.7388 21.3508 57.7183 21.3854 57.696C21.42 57.6731 21.4472 57.6462 21.4672 57.6151C21.4871 57.584 21.497 57.5468 21.497 57.5035C21.497 57.4413 21.4751 57.3938 21.4311 57.361C21.3877 57.3282 21.3303 57.3118 21.2588 57.3118ZM22.7156 57.8516C22.7156 57.956 22.7077 58.0492 22.6919 58.1312C22.6761 58.2133 22.6512 58.2827 22.6172 58.3396C22.5832 58.3964 22.5392 58.4398 22.4853 58.4697C22.4314 58.499 22.3666 58.5137 22.291 58.5137C22.1954 58.5137 22.1163 58.4876 22.0536 58.4354C21.9915 58.3833 21.9449 58.3079 21.9138 58.2095C21.8833 58.1104 21.8681 57.9911 21.8681 57.8516C21.8681 57.7145 21.8819 57.5967 21.9094 57.4982C21.9375 57.3991 21.9827 57.3232 22.0448 57.2705C22.1069 57.2171 22.189 57.1905 22.291 57.1905C22.3877 57.1905 22.4674 57.2168 22.5301 57.2696C22.5928 57.3217 22.6394 57.3974 22.6699 57.4964C22.7004 57.5949 22.7156 57.7133 22.7156 57.8516ZM22.0149 57.8516C22.0149 57.9712 22.024 58.0708 22.0422 58.1506C22.0603 58.2303 22.0896 58.2901 22.1301 58.3299C22.1711 58.3692 22.2247 58.3888 22.291 58.3888C22.3572 58.3888 22.4106 58.3692 22.451 58.3299C22.492 58.2906 22.5216 58.2312 22.5398 58.1514C22.5586 58.0717 22.5679 57.9718 22.5679 57.8516C22.5679 57.7338 22.5589 57.6353 22.5407 57.5562C22.5225 57.4765 22.4932 57.4167 22.4528 57.3768C22.4123 57.3364 22.3584 57.3162 22.291 57.3162C22.2236 57.3162 22.1696 57.3364 22.1292 57.3768C22.0888 57.4167 22.0595 57.4765 22.0413 57.5562C22.0237 57.6353 22.0149 57.7338 22.0149 57.8516Z" fill="#212121"/>
<rect x="28.7664" y="51.2" width="4.72669" height="3.37621" rx="1.6881" fill="white"/>
<rect x="28.7664" y="51.2" width="4.72669" height="3.37621" rx="1.6881" stroke="#ECF1FF" stroke-width="0.225081"/>
<path d="M30.061 53.3867H29.2187V53.2645L29.5625 52.9155C29.6263 52.851 29.68 52.7935 29.7234 52.7431C29.7673 52.6927 29.8007 52.6432 29.8236 52.5945C29.8464 52.5453 29.8579 52.4914 29.8579 52.4328C29.8579 52.3601 29.8362 52.3047 29.7928 52.2666C29.75 52.2279 29.6935 52.2086 29.6231 52.2086C29.5616 52.2086 29.5071 52.2191 29.4596 52.2402C29.4121 52.2613 29.3635 52.2912 29.3136 52.3299L29.2354 52.2314C29.2694 52.2027 29.3063 52.1772 29.3462 52.1549C29.3866 52.1327 29.4297 52.1151 29.4754 52.1022C29.5217 52.0893 29.571 52.0828 29.6231 52.0828C29.7023 52.0828 29.7705 52.0966 29.828 52.1242C29.8854 52.1517 29.9297 52.191 29.9607 52.242C29.9924 52.293 30.0082 52.3536 30.0082 52.424C30.0082 52.492 29.9947 52.5553 29.9678 52.6139C29.9408 52.6719 29.903 52.7296 29.8544 52.7871C29.8057 52.8439 29.7489 52.9043 29.6838 52.9682L29.4042 53.2469V53.2531H30.061V53.3867ZM31.0985 52.7422C31.0985 52.8466 31.0905 52.9398 31.0747 53.0218C31.0589 53.1039 31.034 53.1734 31 53.2302C30.966 53.2871 30.922 53.3304 30.8681 53.3603C30.8142 53.3896 30.7494 53.4043 30.6738 53.4043C30.5783 53.4043 30.4991 53.3782 30.4364 53.3261C30.3743 53.2739 30.3277 53.1986 30.2966 53.1001C30.2661 53.001 30.2509 52.8818 30.2509 52.7422C30.2509 52.6051 30.2647 52.4873 30.2922 52.3888C30.3203 52.2897 30.3655 52.2138 30.4276 52.1611C30.4897 52.1077 30.5718 52.0811 30.6738 52.0811C30.7705 52.0811 30.8502 52.1075 30.9129 52.1602C30.9757 52.2124 31.0223 52.288 31.0527 52.387C31.0832 52.4855 31.0985 52.6039 31.0985 52.7422ZM30.3977 52.7422C30.3977 52.8618 30.4068 52.9615 30.425 53.0412C30.4431 53.1209 30.4725 53.1807 30.5129 53.2205C30.5539 53.2598 30.6076 53.2795 30.6738 53.2795C30.74 53.2795 30.7934 53.2598 30.8338 53.2205C30.8748 53.1813 30.9044 53.1218 30.9226 53.0421C30.9414 52.9623 30.9507 52.8624 30.9507 52.7422C30.9507 52.6244 30.9417 52.526 30.9235 52.4468C30.9053 52.3671 30.876 52.3073 30.8356 52.2675C30.7951 52.227 30.7412 52.2068 30.6738 52.2068C30.6064 52.2068 30.5525 52.227 30.512 52.2675C30.4716 52.3073 30.4423 52.3671 30.4241 52.4468C30.4065 52.526 30.3977 52.6244 30.3977 52.7422ZM32.1219 53.3867H31.2796V53.2645L31.6234 52.9155C31.6872 52.851 31.7409 52.7935 31.7843 52.7431C31.8282 52.6927 31.8616 52.6432 31.8845 52.5945C31.9073 52.5453 31.9188 52.4914 31.9188 52.4328C31.9188 52.3601 31.8971 52.3047 31.8537 52.2666C31.8109 52.2279 31.7544 52.2086 31.684 52.2086C31.6225 52.2086 31.568 52.2191 31.5205 52.2402C31.473 52.2613 31.4244 52.2912 31.3745 52.3299L31.2963 52.2314C31.3303 52.2027 31.3672 52.1772 31.4071 52.1549C31.4475 52.1327 31.4906 52.1151 31.5363 52.1022C31.5826 52.0893 31.6319 52.0828 31.684 52.0828C31.7631 52.0828 31.8314 52.0966 31.8889 52.1242C31.9463 52.1517 31.9906 52.191 32.0216 52.242C32.0533 52.293 32.0691 52.3536 32.0691 52.424C32.0691 52.492 32.0556 52.5553 32.0287 52.6139C32.0017 52.6719 31.9639 52.7296 31.9153 52.7871C31.8666 52.8439 31.8097 52.9043 31.7447 52.9682L31.4651 53.2469V53.2531H32.1219V53.3867Z" fill="#212121"/>
<rect x="38.0935" y="40.7625" width="4.72669" height="3.37621" rx="1.6881" fill="white"/>
<rect x="38.0935" y="40.7625" width="4.72669" height="3.37621" rx="1.6881" stroke="#ECF1FF" stroke-width="0.225081"/>
<path d="M38.9705 41.6453C39.0449 41.6453 39.1109 41.6571 39.1683 41.6805C39.2258 41.7039 39.2706 41.7385 39.3028 41.7843C39.3357 41.8294 39.3521 41.8851 39.3521 41.9513C39.3521 42.0035 39.3406 42.0492 39.3178 42.0885C39.2955 42.1271 39.2653 42.1611 39.2272 42.1905C39.1891 42.2192 39.1469 42.245 39.1006 42.2678C39.1557 42.293 39.2052 42.3215 39.2492 42.3531C39.2938 42.3848 39.3289 42.422 39.3547 42.4648C39.3805 42.5076 39.3934 42.5583 39.3934 42.6169C39.3934 42.689 39.3758 42.7514 39.3406 42.8041C39.3061 42.8563 39.2574 42.8965 39.1947 42.9246C39.132 42.9527 39.0584 42.9668 38.974 42.9668C38.8832 42.9668 38.8058 42.9533 38.7419 42.9264C38.6786 42.8988 38.6302 42.8595 38.5968 42.8085C38.564 42.757 38.5476 42.6951 38.5476 42.623C38.5476 42.5638 38.5602 42.5125 38.5854 42.4692C38.6106 42.4252 38.644 42.3874 38.6856 42.3557C38.7272 42.3241 38.7727 42.2974 38.8219 42.2757C38.7791 42.2523 38.7398 42.2256 38.7041 42.1957C38.6689 42.1658 38.6408 42.131 38.6197 42.0911C38.5992 42.0507 38.5889 42.0038 38.5889 41.9504C38.5889 41.8854 38.6053 41.8303 38.6382 41.7851C38.6716 41.7394 38.717 41.7048 38.7744 41.6814C38.8325 41.6574 38.8978 41.6453 38.9705 41.6453ZM38.6909 42.6239C38.6909 42.6896 38.7141 42.7438 38.7604 42.7866C38.8067 42.8288 38.8767 42.8499 38.9705 42.8499C39.0596 42.8499 39.1285 42.8288 39.1771 42.7866C39.2258 42.7438 39.2501 42.6878 39.2501 42.6186C39.2501 42.5758 39.239 42.5383 39.2167 42.5061C39.1944 42.4733 39.1628 42.444 39.1217 42.4182C39.0807 42.3924 39.0323 42.3689 38.9767 42.3478L38.945 42.3364C38.8911 42.3587 38.8451 42.3836 38.807 42.4111C38.7694 42.4381 38.7407 42.4689 38.7208 42.5035C38.7009 42.538 38.6909 42.5782 38.6909 42.6239ZM38.9687 41.7649C38.8996 41.7649 38.843 41.7816 38.799 41.815C38.7551 41.8478 38.7331 41.8953 38.7331 41.9575C38.7331 42.002 38.7437 42.0398 38.7648 42.0709C38.7864 42.1014 38.8158 42.1277 38.8527 42.15C38.8896 42.1717 38.9309 42.1919 38.9767 42.2107C39.0212 42.1919 39.0608 42.1714 39.0953 42.1491C39.1299 42.1263 39.1572 42.0993 39.1771 42.0682C39.197 42.0372 39.207 42 39.207 41.9566C39.207 41.8944 39.185 41.847 39.1411 41.8141C39.0977 41.7813 39.0402 41.7649 38.9687 41.7649ZM39.5895 42.3997C39.5895 42.3223 39.5947 42.2467 39.6053 42.1729C39.6164 42.099 39.6349 42.0304 39.6607 41.9671C39.6865 41.9032 39.7216 41.8473 39.7662 41.7992C39.8107 41.7511 39.8661 41.7136 39.9324 41.6867C39.9992 41.6591 40.0792 41.6453 40.1724 41.6453C40.1988 41.6453 40.2272 41.6468 40.2577 41.6497C40.2882 41.6521 40.3134 41.6562 40.3333 41.662V41.7878C40.3116 41.7801 40.2867 41.7746 40.2586 41.7711C40.231 41.7675 40.2032 41.7658 40.175 41.7658C40.066 41.7658 39.9801 41.7895 39.9174 41.837C39.8553 41.8845 39.8104 41.949 39.7829 42.0304C39.7553 42.1113 39.7395 42.2025 39.7354 42.3039H39.7451C39.7633 42.2746 39.7864 42.2482 39.8145 42.2247C39.8427 42.2007 39.8767 42.1817 39.9165 42.1676C39.957 42.1535 40.0039 42.1465 40.0572 42.1465C40.1322 42.1465 40.1976 42.1617 40.2533 42.1922C40.3095 42.2227 40.3529 42.2669 40.3834 42.325C40.4145 42.383 40.43 42.4533 40.43 42.536C40.43 42.6245 40.4136 42.701 40.3808 42.7655C40.3479 42.8299 40.3011 42.8798 40.2401 42.9149C40.1797 42.9495 40.1076 42.9668 40.0238 42.9668C39.9611 42.9668 39.9033 42.9548 39.8506 42.9308C39.7978 42.9067 39.7518 42.871 39.7126 42.8235C39.6739 42.776 39.6437 42.7171 39.622 42.6468C39.6003 42.5758 39.5895 42.4935 39.5895 42.3997ZM40.022 42.8437C40.1018 42.8437 40.1657 42.8182 40.2137 42.7672C40.2618 42.7162 40.2858 42.6391 40.2858 42.536C40.2858 42.4516 40.2644 42.3848 40.2216 42.3355C40.1788 42.2863 40.1144 42.2617 40.0282 42.2617C39.9696 42.2617 39.9186 42.274 39.8752 42.2986C39.8318 42.3226 39.7981 42.3531 39.7741 42.39C39.7501 42.427 39.7381 42.4645 39.7381 42.5026C39.7381 42.5413 39.7436 42.5805 39.7548 42.6204C39.7665 42.6602 39.7841 42.6972 39.8075 42.7312C39.831 42.7652 39.8606 42.7924 39.8963 42.8129C39.9321 42.8335 39.974 42.8437 40.022 42.8437ZM41.4561 42.3047C41.4561 42.4091 41.4481 42.5023 41.4323 42.5843C41.4165 42.6664 41.3916 42.7359 41.3576 42.7927C41.3236 42.8496 41.2796 42.8929 41.2257 42.9228C41.1718 42.9521 41.107 42.9668 41.0314 42.9668C40.9358 42.9668 40.8567 42.9407 40.794 42.8886C40.7319 42.8364 40.6853 42.7611 40.6542 42.6626C40.6237 42.5635 40.6085 42.4443 40.6085 42.3047C40.6085 42.1676 40.6223 42.0498 40.6498 41.9513C40.6779 41.8522 40.7231 41.7763 40.7852 41.7236C40.8473 41.6702 40.9294 41.6436 41.0314 41.6436C41.1281 41.6436 41.2078 41.67 41.2705 41.7227C41.3333 41.7749 41.3799 41.8505 41.4103 41.9495C41.4408 42.048 41.4561 42.1664 41.4561 42.3047ZM40.7553 42.3047C40.7553 42.4243 40.7644 42.524 40.7826 42.6037C40.8007 42.6834 40.83 42.7432 40.8705 42.783C40.9115 42.8223 40.9652 42.842 41.0314 42.842C41.0976 42.842 41.151 42.8223 41.1914 42.783C41.2324 42.7438 41.262 42.6843 41.2802 42.6046C41.299 42.5248 41.3083 42.4249 41.3083 42.3047C41.3083 42.1869 41.2993 42.0885 41.2811 42.0093C41.2629 41.9296 41.2336 41.8698 41.1932 41.83C41.1527 41.7895 41.0988 41.7693 41.0314 41.7693C40.964 41.7693 40.9101 41.7895 40.8696 41.83C40.8292 41.8698 40.7999 41.9296 40.7817 42.0093C40.7641 42.0885 40.7553 42.1869 40.7553 42.3047Z" fill="#212121"/>
<rect x="46.7546" y="33.657" width="5.55499" height="3.33419" rx="1.6671" fill="white"/>
<rect x="46.7546" y="33.657" width="5.55499" height="3.33419" rx="1.6671" stroke="#ECF1FF" stroke-width="0.225081"/>
<path d="M47.6644 35.8242H47.522V34.9133C47.522 34.8788 47.522 34.8492 47.522 34.8245C47.5225 34.7993 47.5231 34.7765 47.5237 34.756C47.5249 34.7349 47.5263 34.7135 47.5281 34.6918C47.5099 34.7105 47.4929 34.7267 47.4771 34.7401C47.4613 34.753 47.4417 34.7692 47.4182 34.7885L47.2714 34.9063L47.1949 34.807L47.5431 34.5388H47.6644V35.8242ZM48.9463 34.8386C48.9463 34.8961 48.9352 34.9459 48.9129 34.9881C48.8906 35.0303 48.8595 35.0649 48.8197 35.0918C48.7798 35.1182 48.7329 35.1367 48.679 35.1472V35.1543C48.781 35.1671 48.8575 35.2 48.9085 35.2527C48.9601 35.3055 48.9859 35.3746 48.9859 35.4602C48.9859 35.5347 48.9683 35.6006 48.9331 35.658C48.8985 35.7155 48.8452 35.7606 48.7731 35.7934C48.7016 35.8257 48.6098 35.8418 48.4979 35.8418C48.4299 35.8418 48.3669 35.8362 48.3089 35.8251C48.2514 35.8145 48.1963 35.7967 48.1436 35.7715V35.6343C48.1969 35.6607 48.2549 35.6815 48.3176 35.6967C48.3804 35.7114 48.441 35.7187 48.4996 35.7187C48.6169 35.7187 48.7016 35.6956 48.7537 35.6493C48.8059 35.6024 48.832 35.5385 48.832 35.4576C48.832 35.4019 48.8173 35.3571 48.788 35.3231C48.7593 35.2885 48.7177 35.2633 48.6632 35.2474C48.6093 35.231 48.5442 35.2228 48.468 35.2228H48.3396V35.098H48.4689C48.5386 35.098 48.5978 35.0877 48.6465 35.0672C48.6951 35.0467 48.7321 35.018 48.7573 34.981C48.783 34.9435 48.7959 34.8993 48.7959 34.8483C48.7959 34.7832 48.7743 34.7331 48.7309 34.6979C48.6875 34.6622 48.6286 34.6443 48.5542 34.6443C48.5084 34.6443 48.4668 34.649 48.4293 34.6584C48.3918 34.6678 48.3566 34.6806 48.3238 34.6971C48.291 34.7135 48.2582 34.7325 48.2253 34.7542L48.1515 34.654C48.1984 34.6176 48.2555 34.5863 48.3229 34.5599C48.3903 34.5335 48.4668 34.5203 48.5524 34.5203C48.6837 34.5203 48.7822 34.5502 48.8478 34.61C48.9135 34.6698 48.9463 34.746 48.9463 34.8386ZM49.1951 35.2747C49.1951 35.1973 49.2004 35.1217 49.2109 35.0479C49.2221 34.974 49.2405 34.9054 49.2663 34.8421C49.2921 34.7782 49.3273 34.7223 49.3718 34.6742C49.4164 34.6261 49.4718 34.5886 49.538 34.5617C49.6048 34.5341 49.6848 34.5203 49.778 34.5203C49.8044 34.5203 49.8328 34.5218 49.8633 34.5247C49.8938 34.5271 49.919 34.5312 49.9389 34.537V34.6628C49.9172 34.6551 49.8923 34.6496 49.8642 34.6461C49.8366 34.6425 49.8088 34.6408 49.7807 34.6408C49.6716 34.6408 49.5858 34.6645 49.5231 34.712C49.4609 34.7595 49.4161 34.824 49.3885 34.9054C49.361 34.9863 49.3452 35.0775 49.3411 35.1789H49.3507C49.3689 35.1496 49.3921 35.1232 49.4202 35.0997C49.4483 35.0757 49.4823 35.0567 49.5222 35.0426C49.5626 35.0285 49.6095 35.0215 49.6629 35.0215C49.7379 35.0215 49.8032 35.0367 49.8589 35.0672C49.9152 35.0977 49.9586 35.1419 49.989 35.2C50.0201 35.258 50.0356 35.3283 50.0356 35.411C50.0356 35.4995 50.0192 35.576 49.9864 35.6405C49.9536 35.7049 49.9067 35.7548 49.8457 35.7899C49.7854 35.8245 49.7133 35.8418 49.6294 35.8418C49.5667 35.8418 49.509 35.8298 49.4562 35.8058C49.4035 35.7817 49.3575 35.746 49.3182 35.6985C49.2795 35.651 49.2493 35.5921 49.2276 35.5218C49.206 35.4508 49.1951 35.3685 49.1951 35.2747ZM49.6277 35.7187C49.7074 35.7187 49.7713 35.6932 49.8194 35.6422C49.8674 35.5912 49.8915 35.5141 49.8915 35.411C49.8915 35.3266 49.8701 35.2598 49.8273 35.2105C49.7845 35.1613 49.72 35.1367 49.6338 35.1367C49.5752 35.1367 49.5242 35.149 49.4809 35.1736C49.4375 35.1976 49.4038 35.2281 49.3797 35.265C49.3557 35.302 49.3437 35.3395 49.3437 35.3776C49.3437 35.4163 49.3493 35.4555 49.3604 35.4954C49.3721 35.5352 49.3897 35.5722 49.4132 35.6062C49.4366 35.6402 49.4662 35.6674 49.502 35.6879C49.5377 35.7085 49.5796 35.7187 49.6277 35.7187ZM50.637 34.5203C50.7115 34.5203 50.7774 34.5321 50.8349 34.5555C50.8923 34.5789 50.9371 34.6135 50.9694 34.6593C51.0022 34.7044 51.0186 34.7601 51.0186 34.8263C51.0186 34.8785 51.0072 34.9242 50.9843 34.9635C50.9621 35.0021 50.9319 35.0361 50.8938 35.0655C50.8557 35.0942 50.8135 35.12 50.7672 35.1428C50.8223 35.168 50.8718 35.1965 50.9157 35.2281C50.9603 35.2598 50.9955 35.297 51.0213 35.3398C51.047 35.3826 51.0599 35.4333 51.0599 35.4919C51.0599 35.564 51.0424 35.6264 51.0072 35.6791C50.9726 35.7313 50.924 35.7715 50.8612 35.7996C50.7985 35.8277 50.725 35.8418 50.6405 35.8418C50.5497 35.8418 50.4723 35.8283 50.4084 35.8014C50.3451 35.7738 50.2968 35.7345 50.2634 35.6835C50.2305 35.632 50.2141 35.5701 50.2141 35.498C50.2141 35.4388 50.2267 35.3875 50.2519 35.3442C50.2771 35.3002 50.3105 35.2624 50.3522 35.2307C50.3938 35.1991 50.4392 35.1724 50.4884 35.1507C50.4457 35.1273 50.4064 35.1006 50.3706 35.0707C50.3355 35.0408 50.3073 35.006 50.2862 34.9661C50.2657 34.9257 50.2555 34.8788 50.2555 34.8254C50.2555 34.7604 50.2719 34.7053 50.3047 34.6601C50.3381 34.6144 50.3835 34.5798 50.441 34.5564C50.499 34.5324 50.5644 34.5203 50.637 34.5203ZM50.3574 35.4989C50.3574 35.5646 50.3806 35.6188 50.4269 35.6616C50.4732 35.7038 50.5432 35.7249 50.637 35.7249C50.7261 35.7249 50.795 35.7038 50.8436 35.6616C50.8923 35.6188 50.9166 35.5628 50.9166 35.4936C50.9166 35.4508 50.9055 35.4133 50.8832 35.3811C50.8609 35.3483 50.8293 35.319 50.7883 35.2932C50.7472 35.2674 50.6989 35.2439 50.6432 35.2228L50.6115 35.2114C50.5576 35.2337 50.5116 35.2586 50.4735 35.2861C50.436 35.3131 50.4073 35.3439 50.3873 35.3785C50.3674 35.413 50.3574 35.4532 50.3574 35.4989ZM50.6353 34.6399C50.5661 34.6399 50.5095 34.6566 50.4656 34.69C50.4216 34.7228 50.3996 34.7703 50.3996 34.8325C50.3996 34.877 50.4102 34.9148 50.4313 34.9459C50.453 34.9764 50.4823 35.0027 50.5192 35.025C50.5561 35.0467 50.5975 35.0669 50.6432 35.0857C50.6877 35.0669 50.7273 35.0464 50.7619 35.0241C50.7965 35.0013 50.8237 34.9743 50.8436 34.9432C50.8636 34.9122 50.8735 34.875 50.8735 34.8316C50.8735 34.7694 50.8516 34.722 50.8076 34.6891C50.7642 34.6563 50.7068 34.6399 50.6353 34.6399Z" fill="#212121"/>
<rect x="56.3045" y="51.8679" width="4.72669" height="3.37621" rx="1.6881" fill="white"/>
<rect x="56.3045" y="51.8679" width="4.72669" height="3.37621" rx="1.6881" stroke="#ECF1FF" stroke-width="0.225081"/>
<path d="M57.5991 54.0547H56.7568V53.9325L57.1005 53.5834C57.1644 53.5189 57.2181 53.4615 57.2614 53.4111C57.3054 53.3607 57.3388 53.3112 57.3617 53.2625C57.3845 53.2133 57.396 53.1593 57.396 53.1007C57.396 53.0281 57.3743 52.9727 57.3309 52.9346C57.2881 52.8959 57.2315 52.8765 57.1612 52.8765C57.0997 52.8765 57.0452 52.8871 56.9977 52.9082C56.9502 52.9293 56.9015 52.9592 56.8517 52.9979L56.7735 52.8994C56.8075 52.8707 56.8444 52.8452 56.8843 52.8229C56.9247 52.8006 56.9678 52.783 57.0135 52.7701C57.0598 52.7573 57.109 52.7508 57.1612 52.7508C57.2403 52.7508 57.3086 52.7646 57.3661 52.7921C57.4235 52.8197 57.4678 52.8589 57.4988 52.9099C57.5305 52.9609 57.5463 53.0216 57.5463 53.0919C57.5463 53.1599 57.5328 53.2232 57.5059 53.2819C57.4789 53.3399 57.4411 53.3976 57.3924 53.4551C57.3438 53.5119 57.2869 53.5723 57.2219 53.6362L56.9423 53.9149V53.921H57.5991V54.0547ZM58.582 53.0691C58.582 53.1265 58.5709 53.1763 58.5486 53.2185C58.5263 53.2608 58.4953 53.2953 58.4554 53.3223C58.4156 53.3487 58.3687 53.3671 58.3147 53.3777V53.3847C58.4167 53.3976 58.4932 53.4304 58.5442 53.4832C58.5958 53.5359 58.6216 53.6051 58.6216 53.6907C58.6216 53.7651 58.604 53.8311 58.5688 53.8885C58.5343 53.946 58.4809 53.9911 58.4088 54.0239C58.3373 54.0562 58.2456 54.0723 58.1336 54.0723C58.0656 54.0723 58.0026 54.0667 57.9446 54.0556C57.8872 54.045 57.8321 54.0271 57.7793 54.0019V53.8648C57.8326 53.8912 57.8907 53.912 57.9534 53.9272C58.0161 53.9419 58.0768 53.9492 58.1354 53.9492C58.2526 53.9492 58.3373 53.926 58.3895 53.8797C58.4417 53.8328 58.4677 53.7689 58.4677 53.6881C58.4677 53.6324 58.4531 53.5875 58.4238 53.5535C58.3951 53.5189 58.3534 53.4937 58.2989 53.4779C58.245 53.4615 58.1799 53.4533 58.1037 53.4533H57.9754V53.3285H58.1046C58.1744 53.3285 58.2336 53.3182 58.2822 53.2977C58.3309 53.2772 58.3678 53.2484 58.393 53.2115C58.4188 53.174 58.4317 53.1297 58.4317 53.0788C58.4317 53.0137 58.41 52.9636 58.3666 52.9284C58.3232 52.8927 58.2643 52.8748 58.1899 52.8748C58.1442 52.8748 58.1026 52.8795 58.0651 52.8888C58.0275 52.8982 57.9924 52.9111 57.9595 52.9275C57.9267 52.9439 57.8939 52.963 57.8611 52.9847L57.7872 52.8844C57.8341 52.8481 57.8913 52.8167 57.9587 52.7904C58.0261 52.764 58.1026 52.7508 58.1881 52.7508C58.3194 52.7508 58.4179 52.7807 58.4836 52.8405C58.5492 52.9003 58.582 52.9765 58.582 53.0691ZM59.667 53.4102C59.667 53.5146 59.6591 53.6078 59.6433 53.6898C59.6274 53.7719 59.6025 53.8413 59.5685 53.8982C59.5345 53.955 59.4906 53.9984 59.4366 54.0283C59.3827 54.0576 59.3179 54.0723 59.2423 54.0723C59.1468 54.0723 59.0677 54.0462 59.0049 53.994C58.9428 53.9419 58.8962 53.8665 58.8651 53.7681C58.8347 53.669 58.8194 53.5497 58.8194 53.4102C58.8194 53.2731 58.8332 53.1552 58.8607 53.0568C58.8889 52.9577 58.934 52.8818 58.9961 52.8291C59.0583 52.7757 59.1403 52.749 59.2423 52.749C59.339 52.749 59.4188 52.7754 59.4815 52.8282C59.5442 52.8803 59.5908 52.956 59.6213 53.055C59.6518 53.1535 59.667 53.2719 59.667 53.4102ZM58.9663 53.4102C58.9663 53.5298 58.9753 53.6294 58.9935 53.7092C59.0117 53.7889 59.041 53.8487 59.0814 53.8885C59.1225 53.9278 59.1761 53.9474 59.2423 53.9474C59.3086 53.9474 59.3619 53.9278 59.4023 53.8885C59.4434 53.8492 59.473 53.7897 59.4911 53.71C59.5099 53.6303 59.5193 53.5304 59.5193 53.4102C59.5193 53.2924 59.5102 53.1939 59.492 53.1148C59.4739 53.0351 59.4445 52.9753 59.4041 52.9354C59.3637 52.895 59.3097 52.8748 59.2423 52.8748C59.1749 52.8748 59.121 52.895 59.0806 52.9354C59.0401 52.9753 59.0108 53.0351 58.9926 53.1148C58.975 53.1939 58.9663 53.2924 58.9663 53.4102Z" fill="#212121"/>
<rect x="65.4099" y="56.3093" width="4.72669" height="3.37621" rx="1.6881" fill="white"/>
<rect x="65.4099" y="56.3093" width="4.72669" height="3.37621" rx="1.6881" stroke="#ECF1FF" stroke-width="0.225081"/>
<path d="M66.7869 57.1922C66.8613 57.1922 66.9273 57.2039 66.9847 57.2274C67.0422 57.2508 67.087 57.2854 67.1192 57.3311C67.1521 57.3763 67.1685 57.4319 67.1685 57.4982C67.1685 57.5503 67.1571 57.5961 67.1342 57.6353C67.1119 57.674 67.0817 57.708 67.0436 57.7373C67.0055 57.766 66.9633 57.7918 66.917 57.8147C66.9721 57.8399 67.0217 57.8683 67.0656 57.9C67.1102 57.9316 67.1453 57.9689 67.1711 58.0116C67.1969 58.0544 67.2098 58.1051 67.2098 58.1637C67.2098 58.2358 67.1922 58.2983 67.1571 58.351C67.1225 58.4032 67.0738 58.4433 67.0111 58.4715C66.9484 58.4996 66.8748 58.5137 66.7904 58.5137C66.6996 58.5137 66.6222 58.5002 66.5583 58.4732C66.495 58.4457 66.4466 58.4064 66.4132 58.3554C66.3804 58.3038 66.364 58.242 66.364 58.1699C66.364 58.1107 66.3766 58.0594 66.4018 58.016C66.427 57.9721 66.4604 57.9343 66.502 57.9026C66.5437 57.871 66.5891 57.8443 66.6383 57.8226C66.5955 57.7992 66.5563 57.7725 66.5205 57.7426C66.4853 57.7127 66.4572 57.6778 66.4361 57.638C66.4156 57.5975 66.4053 57.5506 66.4053 57.4973C66.4053 57.4322 66.4217 57.3771 66.4546 57.332C66.488 57.2863 66.5334 57.2517 66.5908 57.2283C66.6489 57.2042 66.7142 57.1922 66.7869 57.1922ZM66.5073 58.1708C66.5073 58.2364 66.5305 58.2906 66.5768 58.3334C66.6231 58.3756 66.6931 58.3967 66.7869 58.3967C66.876 58.3967 66.9449 58.3756 66.9935 58.3334C67.0422 58.2906 67.0665 58.2347 67.0665 58.1655C67.0665 58.1227 67.0554 58.0852 67.0331 58.053C67.0108 58.0201 66.9792 57.9908 66.9381 57.965C66.8971 57.9393 66.8487 57.9158 66.7931 57.8947L66.7614 57.8833C66.7075 57.9056 66.6615 57.9305 66.6234 57.958C66.5859 57.985 66.5571 58.0157 66.5372 58.0503C66.5173 58.0849 66.5073 58.1251 66.5073 58.1708ZM66.7851 57.3118C66.716 57.3118 66.6594 57.3285 66.6155 57.3619C66.5715 57.3947 66.5495 57.4422 66.5495 57.5043C66.5495 57.5489 66.5601 57.5867 66.5812 57.6178C66.6029 57.6482 66.6322 57.6746 66.6691 57.6969C66.706 57.7186 66.7473 57.7388 66.7931 57.7575C66.8376 57.7388 66.8772 57.7183 66.9118 57.696C66.9463 57.6731 66.9736 57.6462 66.9935 57.6151C67.0134 57.584 67.0234 57.5468 67.0234 57.5035C67.0234 57.4413 67.0014 57.3938 66.9575 57.361C66.9141 57.3282 66.8567 57.3118 66.7851 57.3118ZM68.242 57.8516C68.242 57.956 68.2341 58.0492 68.2183 58.1312C68.2024 58.2133 68.1775 58.2827 68.1435 58.3396C68.1095 58.3964 68.0656 58.4398 68.0117 58.4697C67.9577 58.499 67.893 58.5137 67.8173 58.5137C67.7218 58.5137 67.6427 58.4876 67.58 58.4354C67.5178 58.3833 67.4712 58.3079 67.4402 58.2095C67.4097 58.1104 67.3944 57.9911 67.3944 57.8516C67.3944 57.7145 67.4082 57.5967 67.4358 57.4982C67.4639 57.3991 67.509 57.3232 67.5712 57.2705C67.6333 57.2171 67.7154 57.1905 67.8173 57.1905C67.9141 57.1905 67.9938 57.2168 68.0565 57.2696C68.1192 57.3217 68.1658 57.3974 68.1963 57.4964C68.2268 57.5949 68.242 57.7133 68.242 57.8516ZM67.5413 57.8516C67.5413 57.9712 67.5504 58.0708 67.5685 58.1506C67.5867 58.2303 67.616 58.2901 67.6565 58.3299C67.6975 58.3692 67.7511 58.3888 67.8173 58.3888C67.8836 58.3888 67.9369 58.3692 67.9774 58.3299C68.0184 58.2906 68.048 58.2312 68.0662 58.1514C68.0849 58.0717 68.0943 57.9718 68.0943 57.8516C68.0943 57.7338 68.0852 57.6353 68.067 57.5562C68.0489 57.4765 68.0196 57.4167 67.9791 57.3768C67.9387 57.3364 67.8848 57.3162 67.8173 57.3162C67.7499 57.3162 67.696 57.3364 67.6556 57.3768C67.6151 57.4167 67.5858 57.4765 67.5677 57.5562C67.5501 57.6353 67.5413 57.7338 67.5413 57.8516Z" fill="#212121"/>
<rect x="74.7371" y="56.3093" width="4.72669" height="3.37621" rx="1.6881" fill="white"/>
<rect x="74.7371" y="56.3093" width="4.72669" height="3.37621" rx="1.6881" stroke="#ECF1FF" stroke-width="0.225081"/>
<path d="M76.1141 57.1922C76.1885 57.1922 76.2544 57.2039 76.3119 57.2274C76.3693 57.2508 76.4142 57.2854 76.4464 57.3311C76.4792 57.3763 76.4956 57.4319 76.4956 57.4982C76.4956 57.5503 76.4842 57.5961 76.4613 57.6353C76.4391 57.674 76.4089 57.708 76.3708 57.7373C76.3327 57.766 76.2905 57.7918 76.2442 57.8147C76.2993 57.8399 76.3488 57.8683 76.3928 57.9C76.4373 57.9316 76.4725 57.9689 76.4983 58.0116C76.5241 58.0544 76.537 58.1051 76.537 58.1637C76.537 58.2358 76.5194 58.2983 76.4842 58.351C76.4496 58.4032 76.401 58.4433 76.3383 58.4715C76.2755 58.4996 76.202 58.5137 76.1176 58.5137C76.0267 58.5137 75.9493 58.5002 75.8855 58.4732C75.8221 58.4457 75.7738 58.4064 75.7404 58.3554C75.7076 58.3038 75.6911 58.242 75.6911 58.1699C75.6911 58.1107 75.7037 58.0594 75.729 58.016C75.7542 57.9721 75.7876 57.9343 75.8292 57.9026C75.8708 57.871 75.9162 57.8443 75.9655 57.8226C75.9227 57.7992 75.8834 57.7725 75.8476 57.7426C75.8125 57.7127 75.7843 57.6778 75.7632 57.638C75.7427 57.5975 75.7325 57.5506 75.7325 57.4973C75.7325 57.4322 75.7489 57.3771 75.7817 57.332C75.8151 57.2863 75.8605 57.2517 75.918 57.2283C75.976 57.2042 76.0414 57.1922 76.1141 57.1922ZM75.8345 58.1708C75.8345 58.2364 75.8576 58.2906 75.9039 58.3334C75.9502 58.3756 76.0203 58.3967 76.1141 58.3967C76.2031 58.3967 76.272 58.3756 76.3207 58.3334C76.3693 58.2906 76.3936 58.2347 76.3936 58.1655C76.3936 58.1227 76.3825 58.0852 76.3602 58.053C76.338 58.0201 76.3063 57.9908 76.2653 57.965C76.2242 57.9393 76.1759 57.9158 76.1202 57.8947L76.0886 57.8833C76.0346 57.9056 75.9886 57.9305 75.9505 57.958C75.913 57.985 75.8843 58.0157 75.8644 58.0503C75.8444 58.0849 75.8345 58.1251 75.8345 58.1708ZM76.1123 57.3118C76.0431 57.3118 75.9866 57.3285 75.9426 57.3619C75.8986 57.3947 75.8767 57.4422 75.8767 57.5043C75.8767 57.5489 75.8872 57.5867 75.9083 57.6178C75.93 57.6482 75.9593 57.6746 75.9962 57.6969C76.0332 57.7186 76.0745 57.7388 76.1202 57.7575C76.1648 57.7388 76.2043 57.7183 76.2389 57.696C76.2735 57.6731 76.3007 57.6462 76.3207 57.6151C76.3406 57.584 76.3506 57.5468 76.3506 57.5035C76.3506 57.4413 76.3286 57.3938 76.2846 57.361C76.2412 57.3282 76.1838 57.3118 76.1123 57.3118ZM76.733 57.9466C76.733 57.8692 76.7383 57.7936 76.7488 57.7197C76.76 57.6459 76.7784 57.5773 76.8042 57.514C76.83 57.4501 76.8652 57.3941 76.9097 57.3461C76.9543 57.298 77.0097 57.2605 77.0759 57.2335C77.1427 57.206 77.2227 57.1922 77.3159 57.1922C77.3423 57.1922 77.3708 57.1937 77.4012 57.1966C77.4317 57.1989 77.4569 57.2031 77.4768 57.2089V57.3346C77.4552 57.327 77.4302 57.3215 77.4021 57.3179C77.3746 57.3144 77.3467 57.3127 77.3186 57.3127C77.2096 57.3127 77.1237 57.3364 77.061 57.3839C76.9988 57.4314 76.954 57.4958 76.9265 57.5773C76.8989 57.6582 76.8831 57.7493 76.879 57.8507H76.8886C76.9068 57.8214 76.93 57.7951 76.9581 57.7716C76.9862 57.7476 77.0202 57.7285 77.0601 57.7145C77.1005 57.7004 77.1474 57.6934 77.2008 57.6934C77.2758 57.6934 77.3412 57.7086 77.3968 57.7391C77.4531 57.7696 77.4965 57.8138 77.527 57.8718C77.558 57.9299 77.5736 58.0002 77.5736 58.0829C77.5736 58.1714 77.5571 58.2479 77.5243 58.3123C77.4915 58.3768 77.4446 58.4266 77.3836 58.4618C77.3233 58.4964 77.2512 58.5137 77.1674 58.5137C77.1046 58.5137 77.0469 58.5017 76.9942 58.4776C76.9414 58.4536 76.8954 58.4178 76.8561 58.3704C76.8174 58.3229 76.7872 58.264 76.7656 58.1936C76.7439 58.1227 76.733 58.0404 76.733 57.9466ZM77.1656 58.3906C77.2453 58.3906 77.3092 58.3651 77.3573 58.3141C77.4053 58.2631 77.4294 58.186 77.4294 58.0829C77.4294 57.9985 77.408 57.9316 77.3652 57.8824C77.3224 57.8332 77.2579 57.8085 77.1718 57.8085C77.1131 57.8085 77.0621 57.8209 77.0188 57.8455C76.9754 57.8695 76.9417 57.9 76.9177 57.9369C76.8936 57.9738 76.8816 58.0113 76.8816 58.0494C76.8816 58.0881 76.8872 58.1274 76.8983 58.1673C76.91 58.2071 76.9276 58.2441 76.9511 58.278C76.9745 58.312 77.0041 58.3393 77.0399 58.3598C77.0756 58.3803 77.1175 58.3906 77.1656 58.3906Z" fill="#212121"/>
</svg>
