<svg width="93" height="92" viewBox="0 0 93 92" fill="none" xmlns="http://www.w3.org/2000/svg">
<rect x="1.26092" y="0.389831" width="91.079" height="91.2203" rx="17.5424" stroke="#BEBEBE" stroke-width="0.779661"/>
<rect width="70" height="60.7317" transform="translate(12 14)" fill="white"/>
<path d="M21.7559 19.8535V66.9267" stroke="#E0E0E0" stroke-width="0.243902"/>
<path d="M29.6827 66.9267C29.6827 66.994 29.7373 67.0486 29.8047 67.0486C29.872 67.0486 29.9266 66.994 29.9266 66.9267H29.6827ZM29.8047 19.8535H29.6827V66.9267H29.8047H29.9266V19.8535H29.8047Z" fill="#E0E0E0"/>
<path d="M37.7316 66.9267C37.7316 66.994 37.7862 67.0486 37.8535 67.0486C37.9209 67.0486 37.9755 66.994 37.9755 66.9267H37.7316ZM37.8535 19.8535H37.7316V66.9267H37.8535H37.9755V19.8535H37.8535Z" fill="#E0E0E0"/>
<path d="M45.7804 66.9267C45.7804 66.994 45.835 67.0486 45.9023 67.0486C45.9697 67.0486 46.0243 66.994 46.0243 66.9267H45.7804ZM45.9023 19.8535H45.7804V66.9267H45.9023H46.0243V19.8535H45.9023Z" fill="#E0E0E0"/>
<path d="M53.8292 66.9267C53.8292 66.994 53.8838 67.0486 53.9512 67.0486C54.0185 67.0486 54.0731 66.994 54.0731 66.9267H53.8292ZM53.9512 19.8535H53.8292V66.9267H53.9512H54.0731V19.8535H53.9512Z" fill="#E0E0E0"/>
<path d="M61.878 66.9267C61.878 66.994 61.9326 67.0486 62 67.0486C62.0674 67.0486 62.122 66.994 62.122 66.9267H61.878ZM62 19.8535H61.878V66.9267H62H62.122V19.8535H62Z" fill="#E0E0E0"/>
<path d="M69.9269 66.9267C69.9269 66.994 69.9815 67.0486 70.0488 67.0486C70.1162 67.0486 70.1708 66.994 70.1708 66.9267H69.9269ZM70.0488 19.8535H69.9269V66.9267H70.0488H70.1708V19.8535H70.0488Z" fill="#E0E0E0"/>
<path d="M77.9757 66.9267C77.9757 66.994 78.0303 67.0486 78.0977 67.0486C78.165 67.0486 78.2196 66.994 78.2196 66.9267H77.9757ZM78.0977 19.8535H77.9757V66.9267H78.0977H78.2196V19.8535H78.0977Z" fill="#E0E0E0"/>
<path d="M15.8589 21.8535H14.9462V21.7211L15.3187 21.3428C15.3879 21.273 15.446 21.2107 15.493 21.1561C15.5407 21.1015 15.5769 21.0478 15.6017 20.9951C15.6264 20.9417 15.6388 20.8833 15.6388 20.8198C15.6388 20.741 15.6153 20.681 15.5683 20.6397C15.5219 20.5978 15.4607 20.5768 15.3844 20.5768C15.3177 20.5768 15.2587 20.5883 15.2072 20.6111C15.1558 20.634 15.1031 20.6664 15.0491 20.7083L14.9643 20.6016C15.0011 20.5705 15.0411 20.5429 15.0843 20.5187C15.1281 20.4946 15.1748 20.4755 15.2244 20.4616C15.2745 20.4476 15.3279 20.4406 15.3844 20.4406C15.4702 20.4406 15.5442 20.4555 15.6064 20.4854C15.6687 20.5152 15.7166 20.5578 15.7503 20.613C15.7846 20.6683 15.8017 20.734 15.8017 20.8103C15.8017 20.8839 15.7871 20.9525 15.7579 21.0161C15.7287 21.0789 15.6877 21.1415 15.635 21.2037C15.5823 21.2654 15.5207 21.3308 15.4502 21.4L15.1472 21.702V21.7087H15.8589V21.8535ZM16.503 21.0018C16.5976 21.0018 16.6798 21.018 16.7497 21.0504C16.8196 21.0821 16.8736 21.1285 16.9117 21.1895C16.9504 21.2504 16.9698 21.3244 16.9698 21.4114C16.9698 21.5067 16.9492 21.589 16.9079 21.6582C16.8666 21.7268 16.8072 21.7798 16.7297 21.8173C16.6522 21.8542 16.5595 21.8726 16.4515 21.8726C16.3791 21.8726 16.3118 21.8662 16.2495 21.8535C16.1873 21.8408 16.1349 21.8218 16.0923 21.7964V21.6458C16.1387 21.6738 16.1949 21.696 16.261 21.7125C16.327 21.729 16.3912 21.7373 16.4534 21.7373C16.5239 21.7373 16.5855 21.7262 16.6382 21.7039C16.6916 21.6811 16.7329 21.6468 16.7621 21.601C16.792 21.5547 16.8069 21.4966 16.8069 21.4267C16.8069 21.334 16.7783 21.2625 16.7211 21.2123C16.6646 21.1615 16.575 21.1361 16.4525 21.1361C16.4131 21.1361 16.3699 21.1393 16.3229 21.1456C16.2759 21.152 16.2371 21.159 16.2067 21.1666L16.1266 21.1142L16.18 20.4606H16.8726V20.6054H16.3153L16.28 21.0256C16.3041 21.0205 16.3353 21.0154 16.3734 21.0103C16.4115 21.0046 16.4547 21.0018 16.503 21.0018ZM18.0998 21.1552C18.0998 21.2682 18.0912 21.3692 18.074 21.4581C18.0569 21.547 18.0299 21.6223 17.993 21.6839C17.9562 21.7455 17.9086 21.7925 17.8501 21.8249C17.7917 21.8567 17.7215 21.8726 17.6396 21.8726C17.536 21.8726 17.4503 21.8443 17.3823 21.7878C17.315 21.7312 17.2645 21.6496 17.2308 21.5429C17.1978 21.4356 17.1813 21.3063 17.1813 21.1552C17.1813 21.0065 17.1962 20.8789 17.2261 20.7722C17.2566 20.6648 17.3055 20.5826 17.3728 20.5254C17.4401 20.4676 17.5291 20.4387 17.6396 20.4387C17.7444 20.4387 17.8308 20.4673 17.8987 20.5244C17.9667 20.581 18.0172 20.6629 18.0502 20.7702C18.0832 20.877 18.0998 21.0053 18.0998 21.1552ZM17.3404 21.1552C17.3404 21.2847 17.3503 21.3927 17.37 21.4791C17.3896 21.5655 17.4214 21.6303 17.4652 21.6734C17.5097 21.716 17.5678 21.7373 17.6396 21.7373C17.7114 21.7373 17.7692 21.716 17.813 21.6734C17.8574 21.6309 17.8895 21.5664 17.9092 21.48C17.9295 21.3937 17.9397 21.2854 17.9397 21.1552C17.9397 21.0275 17.9298 20.9208 17.9102 20.835C17.8905 20.7487 17.8587 20.6839 17.8149 20.6407C17.7711 20.5968 17.7126 20.5749 17.6396 20.5749C17.5665 20.5749 17.5081 20.5968 17.4643 20.6407C17.4204 20.6839 17.3887 20.7487 17.369 20.835C17.3499 20.9208 17.3404 21.0275 17.3404 21.1552ZM19.2164 21.1552C19.2164 21.2682 19.2078 21.3692 19.1906 21.4581C19.1735 21.547 19.1465 21.6223 19.1097 21.6839C19.0728 21.7455 19.0252 21.7925 18.9667 21.8249C18.9083 21.8567 18.8381 21.8726 18.7562 21.8726C18.6527 21.8726 18.5669 21.8443 18.499 21.7878C18.4316 21.7312 18.3811 21.6496 18.3475 21.5429C18.3144 21.4356 18.2979 21.3063 18.2979 21.1552C18.2979 21.0065 18.3128 20.8789 18.3427 20.7722C18.3732 20.6648 18.4221 20.5826 18.4894 20.5254C18.5568 20.4676 18.6457 20.4387 18.7562 20.4387C18.861 20.4387 18.9474 20.4673 19.0153 20.5244C19.0833 20.581 19.1338 20.6629 19.1668 20.7702C19.1999 20.877 19.2164 21.0053 19.2164 21.1552ZM18.457 21.1552C18.457 21.2847 18.4669 21.3927 18.4866 21.4791C18.5063 21.5655 18.538 21.6303 18.5818 21.6734C18.6263 21.716 18.6844 21.7373 18.7562 21.7373C18.828 21.7373 18.8858 21.716 18.9296 21.6734C18.9741 21.6309 19.0061 21.5664 19.0258 21.48C19.0461 21.3937 19.0563 21.2854 19.0563 21.1552C19.0563 21.0275 19.0465 20.9208 19.0268 20.835C19.0071 20.7487 18.9753 20.6839 18.9315 20.6407C18.8877 20.5968 18.8292 20.5749 18.7562 20.5749C18.6831 20.5749 18.6247 20.5968 18.5809 20.6407C18.5371 20.6839 18.5053 20.7487 18.4856 20.835C18.4666 20.9208 18.457 21.0275 18.457 21.1552Z" fill="#212121"/>
<path d="M15.8589 29.2441H14.9462V29.1117L15.3187 28.7335C15.3879 28.6636 15.446 28.6014 15.493 28.5467C15.5407 28.4921 15.5769 28.4384 15.6017 28.3857C15.6264 28.3324 15.6388 28.2739 15.6388 28.2104C15.6388 28.1317 15.6153 28.0716 15.5683 28.0303C15.5219 27.9884 15.4607 27.9675 15.3844 27.9675C15.3177 27.9675 15.2587 27.9789 15.2072 28.0018C15.1558 28.0246 15.1031 28.057 15.0491 28.0989L14.9643 27.9922C15.0011 27.9611 15.0411 27.9335 15.0843 27.9093C15.1281 27.8852 15.1748 27.8662 15.2244 27.8522C15.2745 27.8382 15.3279 27.8312 15.3844 27.8312C15.4702 27.8312 15.5442 27.8461 15.6064 27.876C15.6687 27.9059 15.7166 27.9484 15.7503 28.0037C15.7846 28.0589 15.8017 28.1247 15.8017 28.2009C15.8017 28.2746 15.7871 28.3432 15.7579 28.4067C15.7287 28.4696 15.6877 28.5321 15.635 28.5944C15.5823 28.656 15.5207 28.7214 15.4502 28.7906L15.1472 29.0927V29.0993H15.8589V29.2441ZM16.9831 28.5458C16.9831 28.6588 16.9746 28.7598 16.9574 28.8488C16.9403 28.9377 16.9133 29.0129 16.8764 29.0746C16.8396 29.1362 16.792 29.1832 16.7335 29.2156C16.6751 29.2473 16.6049 29.2632 16.523 29.2632C16.4194 29.2632 16.3337 29.2349 16.2657 29.1784C16.1984 29.1219 16.1479 29.0403 16.1142 28.9335C16.0812 28.8262 16.0647 28.6969 16.0647 28.5458C16.0647 28.3972 16.0796 28.2695 16.1095 28.1628C16.14 28.0554 16.1889 27.9732 16.2562 27.916C16.3235 27.8582 16.4124 27.8293 16.523 27.8293C16.6278 27.8293 16.7141 27.8579 16.7821 27.9151C16.8501 27.9716 16.9006 28.0535 16.9336 28.1609C16.9666 28.2676 16.9831 28.3959 16.9831 28.5458ZM16.2238 28.5458C16.2238 28.6754 16.2336 28.7833 16.2533 28.8697C16.273 28.9561 16.3048 29.0209 16.3486 29.0641C16.3931 29.1066 16.4512 29.1279 16.523 29.1279C16.5947 29.1279 16.6525 29.1066 16.6964 29.0641C16.7408 29.0215 16.7729 28.957 16.7926 28.8707C16.8129 28.7843 16.8231 28.676 16.8231 28.5458C16.8231 28.4181 16.8132 28.3114 16.7935 28.2257C16.7739 28.1393 16.7421 28.0745 16.6983 28.0313C16.6544 27.9875 16.596 27.9656 16.523 27.9656C16.4499 27.9656 16.3915 27.9875 16.3477 28.0313C16.3038 28.0745 16.2721 28.1393 16.2524 28.2257C16.2333 28.3114 16.2238 28.4181 16.2238 28.5458ZM18.0998 28.5458C18.0998 28.6588 18.0912 28.7598 18.074 28.8488C18.0569 28.9377 18.0299 29.0129 17.993 29.0746C17.9562 29.1362 17.9086 29.1832 17.8501 29.2156C17.7917 29.2473 17.7215 29.2632 17.6396 29.2632C17.536 29.2632 17.4503 29.2349 17.3823 29.1784C17.315 29.1219 17.2645 29.0403 17.2308 28.9335C17.1978 28.8262 17.1813 28.6969 17.1813 28.5458C17.1813 28.3972 17.1962 28.2695 17.2261 28.1628C17.2566 28.0554 17.3055 27.9732 17.3728 27.916C17.4401 27.8582 17.5291 27.8293 17.6396 27.8293C17.7444 27.8293 17.8308 27.8579 17.8987 27.9151C17.9667 27.9716 18.0172 28.0535 18.0502 28.1609C18.0832 28.2676 18.0998 28.3959 18.0998 28.5458ZM17.3404 28.5458C17.3404 28.6754 17.3503 28.7833 17.37 28.8697C17.3896 28.9561 17.4214 29.0209 17.4652 29.0641C17.5097 29.1066 17.5678 29.1279 17.6396 29.1279C17.7114 29.1279 17.7692 29.1066 17.813 29.0641C17.8574 29.0215 17.8895 28.957 17.9092 28.8707C17.9295 28.7843 17.9397 28.676 17.9397 28.5458C17.9397 28.4181 17.9298 28.3114 17.9102 28.2257C17.8905 28.1393 17.8587 28.0745 17.8149 28.0313C17.7711 27.9875 17.7126 27.9656 17.6396 27.9656C17.5665 27.9656 17.5081 27.9875 17.4643 28.0313C17.4204 28.0745 17.3887 28.1393 17.369 28.2257C17.3499 28.3114 17.3404 28.4181 17.3404 28.5458ZM19.2164 28.5458C19.2164 28.6588 19.2078 28.7598 19.1906 28.8488C19.1735 28.9377 19.1465 29.0129 19.1097 29.0746C19.0728 29.1362 19.0252 29.1832 18.9667 29.2156C18.9083 29.2473 18.8381 29.2632 18.7562 29.2632C18.6527 29.2632 18.5669 29.2349 18.499 29.1784C18.4316 29.1219 18.3811 29.0403 18.3475 28.9335C18.3144 28.8262 18.2979 28.6969 18.2979 28.5458C18.2979 28.3972 18.3128 28.2695 18.3427 28.1628C18.3732 28.0554 18.4221 27.9732 18.4894 27.916C18.5568 27.8582 18.6457 27.8293 18.7562 27.8293C18.861 27.8293 18.9474 27.8579 19.0153 27.9151C19.0833 27.9716 19.1338 28.0535 19.1668 28.1609C19.1999 28.2676 19.2164 28.3959 19.2164 28.5458ZM18.457 28.5458C18.457 28.6754 18.4669 28.7833 18.4866 28.8697C18.5063 28.9561 18.538 29.0209 18.5818 29.0641C18.6263 29.1066 18.6844 29.1279 18.7562 29.1279C18.828 29.1279 18.8858 29.1066 18.9296 29.0641C18.9741 29.0215 19.0061 28.957 19.0258 28.8707C19.0461 28.7843 19.0563 28.676 19.0563 28.5458C19.0563 28.4181 19.0465 28.3114 19.0268 28.2257C19.0071 28.1393 18.9753 28.0745 18.9315 28.0313C18.8877 27.9875 18.8292 27.9656 18.7562 27.9656C18.6831 27.9656 18.6247 27.9875 18.5809 28.0313C18.5371 28.0745 18.5053 28.1393 18.4856 28.2257C18.4666 28.3114 18.457 28.4181 18.457 28.5458Z" fill="#212121"/>
<path d="M15.535 36.6348H15.3806V35.6477C15.3806 35.6102 15.3806 35.5782 15.3806 35.5515C15.3813 35.5242 15.3819 35.4994 15.3825 35.4772C15.3838 35.4543 15.3854 35.4311 15.3873 35.4076C15.3676 35.428 15.3492 35.4454 15.332 35.46C15.3149 35.474 15.2936 35.4915 15.2682 35.5124L15.1091 35.6401L15.0262 35.5324L15.4035 35.2419H15.535V36.6348ZM16.503 35.783C16.5976 35.783 16.6798 35.7992 16.7497 35.8316C16.8196 35.8634 16.8736 35.9097 16.9117 35.9707C16.9504 36.0317 16.9698 36.1057 16.9698 36.1927C16.9698 36.288 16.9492 36.3702 16.9079 36.4395C16.8666 36.5081 16.8072 36.5611 16.7297 36.5986C16.6522 36.6354 16.5595 36.6538 16.4515 36.6538C16.3791 36.6538 16.3118 36.6475 16.2495 36.6348C16.1873 36.6221 16.1349 36.603 16.0923 36.5776V36.4271C16.1387 36.455 16.1949 36.4772 16.261 36.4938C16.327 36.5103 16.3912 36.5185 16.4534 36.5185C16.5239 36.5185 16.5855 36.5074 16.6382 36.4852C16.6916 36.4623 16.7329 36.428 16.7621 36.3823C16.792 36.3359 16.8069 36.2778 16.8069 36.2079C16.8069 36.1152 16.7783 36.0437 16.7211 35.9936C16.6646 35.9428 16.575 35.9173 16.4525 35.9173C16.4131 35.9173 16.3699 35.9205 16.3229 35.9269C16.2759 35.9332 16.2371 35.9402 16.2067 35.9478L16.1266 35.8954L16.18 35.2419H16.8726V35.3867H16.3153L16.28 35.8068C16.3041 35.8017 16.3353 35.7967 16.3734 35.7916C16.4115 35.7859 16.4547 35.783 16.503 35.783ZM18.0998 35.9364C18.0998 36.0495 18.0912 36.1505 18.074 36.2394C18.0569 36.3283 18.0299 36.4036 17.993 36.4652C17.9562 36.5268 17.9086 36.5738 17.8501 36.6062C17.7917 36.6379 17.7215 36.6538 17.6396 36.6538C17.536 36.6538 17.4503 36.6256 17.3823 36.569C17.315 36.5125 17.2645 36.4309 17.2308 36.3242C17.1978 36.2168 17.1813 36.0876 17.1813 35.9364C17.1813 35.7878 17.1962 35.6601 17.2261 35.5534C17.2566 35.4461 17.3055 35.3638 17.3728 35.3066C17.4401 35.2488 17.5291 35.2199 17.6396 35.2199C17.7444 35.2199 17.8308 35.2485 17.8987 35.3057C17.9667 35.3622 18.0172 35.4442 18.0502 35.5515C18.0832 35.6582 18.0998 35.7865 18.0998 35.9364ZM17.3404 35.9364C17.3404 36.066 17.3503 36.174 17.37 36.2603C17.3896 36.3467 17.4214 36.4115 17.4652 36.4547C17.5097 36.4973 17.5678 36.5185 17.6396 36.5185C17.7114 36.5185 17.7692 36.4973 17.813 36.4547C17.8574 36.4121 17.8895 36.3477 17.9092 36.2613C17.9295 36.1749 17.9397 36.0666 17.9397 35.9364C17.9397 35.8087 17.9298 35.702 17.9102 35.6163C17.8905 35.5299 17.8587 35.4651 17.8149 35.4219C17.7711 35.3781 17.7126 35.3562 17.6396 35.3562C17.5665 35.3562 17.5081 35.3781 17.4643 35.4219C17.4204 35.4651 17.3887 35.5299 17.369 35.6163C17.3499 35.702 17.3404 35.8087 17.3404 35.9364ZM19.2164 35.9364C19.2164 36.0495 19.2078 36.1505 19.1906 36.2394C19.1735 36.3283 19.1465 36.4036 19.1097 36.4652C19.0728 36.5268 19.0252 36.5738 18.9667 36.6062C18.9083 36.6379 18.8381 36.6538 18.7562 36.6538C18.6527 36.6538 18.5669 36.6256 18.499 36.569C18.4316 36.5125 18.3811 36.4309 18.3475 36.3242C18.3144 36.2168 18.2979 36.0876 18.2979 35.9364C18.2979 35.7878 18.3128 35.6601 18.3427 35.5534C18.3732 35.4461 18.4221 35.3638 18.4894 35.3066C18.5568 35.2488 18.6457 35.2199 18.7562 35.2199C18.861 35.2199 18.9474 35.2485 19.0153 35.3057C19.0833 35.3622 19.1338 35.4442 19.1668 35.5515C19.1999 35.6582 19.2164 35.7865 19.2164 35.9364ZM18.457 35.9364C18.457 36.066 18.4669 36.174 18.4866 36.2603C18.5063 36.3467 18.538 36.4115 18.5818 36.4547C18.6263 36.4973 18.6844 36.5185 18.7562 36.5185C18.828 36.5185 18.8858 36.4973 18.9296 36.4547C18.9741 36.4121 19.0061 36.3477 19.0258 36.2613C19.0461 36.1749 19.0563 36.0666 19.0563 35.9364C19.0563 35.8087 19.0465 35.702 19.0268 35.6163C19.0071 35.5299 18.9753 35.4651 18.9315 35.4219C18.8877 35.3781 18.8292 35.3562 18.7562 35.3562C18.6831 35.3562 18.6247 35.3781 18.5809 35.4219C18.5371 35.4651 18.5053 35.5299 18.4856 35.6163C18.4666 35.702 18.457 35.8087 18.457 35.9364Z" fill="#212121"/>
<path d="M15.535 44.0234H15.3806V43.0364C15.3806 42.9989 15.3806 42.9668 15.3806 42.9402C15.3813 42.9129 15.3819 42.8881 15.3825 42.8659C15.3838 42.843 15.3854 42.8198 15.3873 42.7963C15.3676 42.8166 15.3492 42.8341 15.332 42.8487C15.3149 42.8627 15.2936 42.8801 15.2682 42.9011L15.1091 43.0288L15.0262 42.9211L15.4035 42.6305H15.535V44.0234ZM16.9831 43.3251C16.9831 43.4381 16.9746 43.5391 16.9574 43.628C16.9403 43.717 16.9133 43.7922 16.8764 43.8538C16.8396 43.9155 16.792 43.9625 16.7335 43.9949C16.6751 44.0266 16.6049 44.0425 16.523 44.0425C16.4194 44.0425 16.3337 44.0142 16.2657 43.9577C16.1984 43.9012 16.1479 43.8196 16.1142 43.7128C16.0812 43.6055 16.0647 43.4762 16.0647 43.3251C16.0647 43.1764 16.0796 43.0488 16.1095 42.9421C16.14 42.8347 16.1889 42.7525 16.2562 42.6953C16.3235 42.6375 16.4124 42.6086 16.523 42.6086C16.6278 42.6086 16.7141 42.6372 16.7821 42.6944C16.8501 42.7509 16.9006 42.8328 16.9336 42.9402C16.9666 43.0469 16.9831 43.1752 16.9831 43.3251ZM16.2238 43.3251C16.2238 43.4546 16.2336 43.5626 16.2533 43.649C16.273 43.7354 16.3048 43.8002 16.3486 43.8434C16.3931 43.8859 16.4512 43.9072 16.523 43.9072C16.5947 43.9072 16.6525 43.8859 16.6964 43.8434C16.7408 43.8008 16.7729 43.7363 16.7926 43.65C16.8129 43.5636 16.8231 43.4553 16.8231 43.3251C16.8231 43.1974 16.8132 43.0907 16.7935 43.005C16.7739 42.9186 16.7421 42.8538 16.6983 42.8106C16.6544 42.7668 16.596 42.7449 16.523 42.7449C16.4499 42.7449 16.3915 42.7668 16.3477 42.8106C16.3038 42.8538 16.2721 42.9186 16.2524 43.005C16.2333 43.0907 16.2238 43.1974 16.2238 43.3251ZM18.0998 43.3251C18.0998 43.4381 18.0912 43.5391 18.074 43.628C18.0569 43.717 18.0299 43.7922 17.993 43.8538C17.9562 43.9155 17.9086 43.9625 17.8501 43.9949C17.7917 44.0266 17.7215 44.0425 17.6396 44.0425C17.536 44.0425 17.4503 44.0142 17.3823 43.9577C17.315 43.9012 17.2645 43.8196 17.2308 43.7128C17.1978 43.6055 17.1813 43.4762 17.1813 43.3251C17.1813 43.1764 17.1962 43.0488 17.2261 42.9421C17.2566 42.8347 17.3055 42.7525 17.3728 42.6953C17.4401 42.6375 17.5291 42.6086 17.6396 42.6086C17.7444 42.6086 17.8308 42.6372 17.8987 42.6944C17.9667 42.7509 18.0172 42.8328 18.0502 42.9402C18.0832 43.0469 18.0998 43.1752 18.0998 43.3251ZM17.3404 43.3251C17.3404 43.4546 17.3503 43.5626 17.37 43.649C17.3896 43.7354 17.4214 43.8002 17.4652 43.8434C17.5097 43.8859 17.5678 43.9072 17.6396 43.9072C17.7114 43.9072 17.7692 43.8859 17.813 43.8434C17.8574 43.8008 17.8895 43.7363 17.9092 43.65C17.9295 43.5636 17.9397 43.4553 17.9397 43.3251C17.9397 43.1974 17.9298 43.0907 17.9102 43.005C17.8905 42.9186 17.8587 42.8538 17.8149 42.8106C17.7711 42.7668 17.7126 42.7449 17.6396 42.7449C17.5665 42.7449 17.5081 42.7668 17.4643 42.8106C17.4204 42.8538 17.3887 42.9186 17.369 43.005C17.3499 43.0907 17.3404 43.1974 17.3404 43.3251ZM19.2164 43.3251C19.2164 43.4381 19.2078 43.5391 19.1906 43.628C19.1735 43.717 19.1465 43.7922 19.1097 43.8538C19.0728 43.9155 19.0252 43.9625 18.9667 43.9949C18.9083 44.0266 18.8381 44.0425 18.7562 44.0425C18.6527 44.0425 18.5669 44.0142 18.499 43.9577C18.4316 43.9012 18.3811 43.8196 18.3475 43.7128C18.3144 43.6055 18.2979 43.4762 18.2979 43.3251C18.2979 43.1764 18.3128 43.0488 18.3427 42.9421C18.3732 42.8347 18.4221 42.7525 18.4894 42.6953C18.5568 42.6375 18.6457 42.6086 18.7562 42.6086C18.861 42.6086 18.9474 42.6372 19.0153 42.6944C19.0833 42.7509 19.1338 42.8328 19.1668 42.9402C19.1999 43.0469 19.2164 43.1752 19.2164 43.3251ZM18.457 43.3251C18.457 43.4546 18.4669 43.5626 18.4866 43.649C18.5063 43.7354 18.538 43.8002 18.5818 43.8434C18.6263 43.8859 18.6844 43.9072 18.7562 43.9072C18.828 43.9072 18.8858 43.8859 18.9296 43.8434C18.9741 43.8008 19.0061 43.7363 19.0258 43.65C19.0461 43.5636 19.0563 43.4553 19.0563 43.3251C19.0563 43.1974 19.0465 43.0907 19.0268 43.005C19.0071 42.9186 18.9753 42.8538 18.9315 42.8106C18.8877 42.7668 18.8292 42.7449 18.7562 42.7449C18.6831 42.7449 18.6247 42.7668 18.5809 42.8106C18.5371 42.8538 18.5053 42.9186 18.4856 43.005C18.4666 43.0907 18.457 43.1974 18.457 43.3251Z" fill="#212121"/>
<path d="M16.5035 50.5623C16.5982 50.5623 16.6804 50.5785 16.7503 50.6109C16.8202 50.6427 16.8741 50.689 16.9123 50.75C16.951 50.811 16.9704 50.885 16.9704 50.972C16.9704 51.0673 16.9497 51.1495 16.9084 51.2187C16.8672 51.2873 16.8078 51.3404 16.7303 51.3779C16.6528 51.4147 16.5601 51.4331 16.4521 51.4331C16.3797 51.4331 16.3123 51.4268 16.2501 51.4141C16.1878 51.4014 16.1354 51.3823 16.0929 51.3569V51.2064C16.1393 51.2343 16.1955 51.2565 16.2615 51.2731C16.3276 51.2896 16.3917 51.2978 16.454 51.2978C16.5245 51.2978 16.5861 51.2867 16.6388 51.2645C16.6922 51.2416 16.7335 51.2073 16.7627 51.1616C16.7925 51.1152 16.8075 51.0571 16.8075 50.9872C16.8075 50.8945 16.7789 50.823 16.7217 50.7729C16.6652 50.7221 16.5756 50.6966 16.453 50.6966C16.4136 50.6966 16.3705 50.6998 16.3235 50.7062C16.2765 50.7125 16.2377 50.7195 16.2072 50.7271L16.1272 50.6747L16.1805 50.0212H16.8732V50.166H16.3158L16.2806 50.5861C16.3047 50.581 16.3358 50.576 16.374 50.5709C16.4121 50.5652 16.4553 50.5623 16.5035 50.5623ZM18.1003 50.7157C18.1003 50.8288 18.0917 50.9298 18.0746 51.0187C18.0575 51.1076 18.0305 51.1829 17.9936 51.2445C17.9568 51.3061 17.9091 51.3531 17.8507 51.3855C17.7923 51.4172 17.7221 51.4331 17.6401 51.4331C17.5366 51.4331 17.4509 51.4049 17.3829 51.3483C17.3156 51.2918 17.2651 51.2102 17.2314 51.1035C17.1984 50.9961 17.1819 50.8669 17.1819 50.7157C17.1819 50.5671 17.1968 50.4394 17.2267 50.3327C17.2571 50.2254 17.3061 50.1431 17.3734 50.0859C17.4407 50.0281 17.5296 49.9992 17.6401 49.9992C17.745 49.9992 17.8313 50.0278 17.8993 50.085C17.9673 50.1415 18.0178 50.2235 18.0508 50.3308C18.0838 50.4375 18.1003 50.5658 18.1003 50.7157ZM17.341 50.7157C17.341 50.8453 17.3508 50.9533 17.3705 51.0396C17.3902 51.126 17.422 51.1908 17.4658 51.234C17.5103 51.2765 17.5684 51.2978 17.6401 51.2978C17.7119 51.2978 17.7697 51.2765 17.8135 51.234C17.858 51.1914 17.8901 51.127 17.9098 51.0406C17.9301 50.9542 17.9403 50.8459 17.9403 50.7157C17.9403 50.588 17.9304 50.4813 17.9107 50.3956C17.891 50.3092 17.8593 50.2444 17.8155 50.2012C17.7716 50.1574 17.7132 50.1355 17.6401 50.1355C17.5671 50.1355 17.5087 50.1574 17.4648 50.2012C17.421 50.2444 17.3893 50.3092 17.3696 50.3956C17.3505 50.4813 17.341 50.588 17.341 50.7157ZM19.2169 50.7157C19.2169 50.8288 19.2084 50.9298 19.1912 51.0187C19.1741 51.1076 19.1471 51.1829 19.1102 51.2445C19.0734 51.3061 19.0258 51.3531 18.9673 51.3855C18.9089 51.4172 18.8387 51.4331 18.7568 51.4331C18.6532 51.4331 18.5675 51.4049 18.4995 51.3483C18.4322 51.2918 18.3817 51.2102 18.348 51.1035C18.315 50.9961 18.2985 50.8669 18.2985 50.7157C18.2985 50.5671 18.3134 50.4394 18.3433 50.3327C18.3738 50.2254 18.4227 50.1431 18.49 50.0859C18.5573 50.0281 18.6462 49.9992 18.7568 49.9992C18.8616 49.9992 18.9479 50.0278 19.0159 50.085C19.0839 50.1415 19.1344 50.2235 19.1674 50.3308C19.2004 50.4375 19.2169 50.5658 19.2169 50.7157ZM18.4576 50.7157C18.4576 50.8453 18.4674 50.9533 18.4871 51.0396C18.5068 51.126 18.5386 51.1908 18.5824 51.234C18.6269 51.2765 18.685 51.2978 18.7568 51.2978C18.8285 51.2978 18.8863 51.2765 18.9302 51.234C18.9746 51.1914 19.0067 51.127 19.0264 51.0406C19.0467 50.9542 19.0569 50.8459 19.0569 50.7157C19.0569 50.588 19.047 50.4813 19.0273 50.3956C19.0077 50.3092 18.9759 50.2444 18.9321 50.2012C18.8882 50.1574 18.8298 50.1355 18.7568 50.1355C18.6837 50.1355 18.6253 50.1574 18.5815 50.2012C18.5376 50.2444 18.5059 50.3092 18.4862 50.3956C18.4671 50.4813 18.4576 50.588 18.4576 50.7157Z" fill="#212121"/>
<path d="M16.6522 58.8047H16.4978V57.8176C16.4978 57.7802 16.4978 57.7481 16.4978 57.7214C16.4984 57.6941 16.4991 57.6693 16.4997 57.6471C16.501 57.6242 16.5026 57.6011 16.5045 57.5776C16.4848 57.5979 16.4664 57.6153 16.4492 57.63C16.4321 57.6439 16.4108 57.6614 16.3854 57.6824L16.2263 57.81L16.1434 57.7024L16.5207 57.4118H16.6522V58.8047ZM18.1003 58.1063C18.1003 58.2194 18.0917 58.3204 18.0746 58.4093C18.0575 58.4982 18.0305 58.5735 17.9936 58.6351C17.9568 58.6967 17.9091 58.7437 17.8507 58.7761C17.7923 58.8079 17.7221 58.8237 17.6401 58.8237C17.5366 58.8237 17.4509 58.7955 17.3829 58.7389C17.3156 58.6824 17.2651 58.6008 17.2314 58.4941C17.1984 58.3868 17.1819 58.2575 17.1819 58.1063C17.1819 57.9577 17.1968 57.83 17.2267 57.7233C17.2571 57.616 17.3061 57.5337 17.3734 57.4766C17.4407 57.4188 17.5296 57.3899 17.6401 57.3899C17.745 57.3899 17.8313 57.4184 17.8993 57.4756C17.9673 57.5321 18.0178 57.6141 18.0508 57.7214C18.0838 57.8281 18.1003 57.9564 18.1003 58.1063ZM17.341 58.1063C17.341 58.2359 17.3508 58.3439 17.3705 58.4303C17.3902 58.5166 17.422 58.5814 17.4658 58.6246C17.5103 58.6672 17.5684 58.6885 17.6401 58.6885C17.7119 58.6885 17.7697 58.6672 17.8135 58.6246C17.858 58.5821 17.8901 58.5176 17.9098 58.4312C17.9301 58.3448 17.9403 58.2365 17.9403 58.1063C17.9403 57.9787 17.9304 57.872 17.9107 57.7862C17.891 57.6998 17.8593 57.635 17.8155 57.5918C17.7716 57.548 17.7132 57.5261 17.6401 57.5261C17.5671 57.5261 17.5087 57.548 17.4648 57.5918C17.421 57.635 17.3893 57.6998 17.3696 57.7862C17.3505 57.872 17.341 57.9787 17.341 58.1063ZM19.2169 58.1063C19.2169 58.2194 19.2084 58.3204 19.1912 58.4093C19.1741 58.4982 19.1471 58.5735 19.1102 58.6351C19.0734 58.6967 19.0258 58.7437 18.9673 58.7761C18.9089 58.8079 18.8387 58.8237 18.7568 58.8237C18.6532 58.8237 18.5675 58.7955 18.4995 58.7389C18.4322 58.6824 18.3817 58.6008 18.348 58.4941C18.315 58.3868 18.2985 58.2575 18.2985 58.1063C18.2985 57.9577 18.3134 57.83 18.3433 57.7233C18.3738 57.616 18.4227 57.5337 18.49 57.4766C18.5573 57.4188 18.6462 57.3899 18.7568 57.3899C18.8616 57.3899 18.9479 57.4184 19.0159 57.4756C19.0839 57.5321 19.1344 57.6141 19.1674 57.7214C19.2004 57.8281 19.2169 57.9564 19.2169 58.1063ZM18.4576 58.1063C18.4576 58.2359 18.4674 58.3439 18.4871 58.4303C18.5068 58.5166 18.5386 58.5814 18.5824 58.6246C18.6269 58.6672 18.685 58.6885 18.7568 58.6885C18.8285 58.6885 18.8863 58.6672 18.9302 58.6246C18.9746 58.5821 19.0067 58.5176 19.0264 58.4312C19.0467 58.3448 19.0569 58.2365 19.0569 58.1063C19.0569 57.9787 19.047 57.872 19.0273 57.7862C19.0077 57.6998 18.9759 57.635 18.9321 57.5918C18.8882 57.548 18.8298 57.5261 18.7568 57.5261C18.6837 57.5261 18.6253 57.548 18.5815 57.5918C18.5376 57.635 18.5059 57.6998 18.4862 57.7862C18.4671 57.872 18.4576 57.9787 18.4576 58.1063Z" fill="#212121"/>
<path d="M19.2169 65.497C19.2169 65.61 19.2084 65.711 19.1912 65.7999C19.1741 65.8888 19.1471 65.9641 19.1102 66.0257C19.0734 66.0873 19.0258 66.1343 18.9673 66.1667C18.9089 66.1985 18.8387 66.2144 18.7568 66.2144C18.6532 66.2144 18.5675 66.1861 18.4995 66.1296C18.4322 66.073 18.3817 65.9914 18.348 65.8847C18.315 65.7774 18.2985 65.6481 18.2985 65.497C18.2985 65.3483 18.3134 65.2207 18.3433 65.1139C18.3738 65.0066 18.4227 64.9244 18.49 64.8672C18.5573 64.8094 18.6462 64.7805 18.7568 64.7805C18.8616 64.7805 18.9479 64.8091 19.0159 64.8662C19.0839 64.9228 19.1344 65.0047 19.1674 65.112C19.2004 65.2187 19.2169 65.3471 19.2169 65.497ZM18.4576 65.497C18.4576 65.6265 18.4674 65.7345 18.4871 65.8209C18.5068 65.9073 18.5386 65.9721 18.5824 66.0152C18.6269 66.0578 18.685 66.0791 18.7568 66.0791C18.8285 66.0791 18.8863 66.0578 18.9302 66.0152C18.9746 65.9727 19.0067 65.9082 19.0264 65.8218C19.0467 65.7355 19.0569 65.6272 19.0569 65.497C19.0569 65.3693 19.047 65.2626 19.0273 65.1768C19.0077 65.0904 18.9759 65.0257 18.9321 64.9825C18.8882 64.9386 18.8298 64.9167 18.7568 64.9167C18.6837 64.9167 18.6253 64.9386 18.5815 64.9825C18.5376 65.0257 18.5059 65.0904 18.4862 65.1768C18.4671 65.2626 18.4576 65.3693 18.4576 65.497Z" fill="#212121"/>
<path d="M30.6407 69.4141H30.4863V68.427C30.4863 68.3895 30.4863 68.3575 30.4863 68.3308C30.487 68.3035 30.4876 68.2787 30.4882 68.2565C30.4895 68.2336 30.4911 68.2104 30.493 68.1869C30.4733 68.2073 30.4549 68.2247 30.4377 68.2393C30.4206 68.2533 30.3993 68.2708 30.3739 68.2917L30.2148 68.4194L30.1319 68.3117L30.5092 68.0212H30.6407V69.4141Z" fill="#212121"/>
<path d="M22.9234 68.7157C22.9234 68.8288 22.9148 68.9298 22.8977 69.0187C22.8805 69.1076 22.8535 69.1829 22.8167 69.2445C22.7799 69.3061 22.7322 69.3531 22.6738 69.3855C22.6153 69.4172 22.5452 69.4331 22.4632 69.4331C22.3597 69.4331 22.2739 69.4049 22.206 69.3483C22.1387 69.2918 22.0882 69.2102 22.0545 69.1035C22.0215 68.9961 22.005 68.8669 22.005 68.7157C22.005 68.5671 22.0199 68.4394 22.0497 68.3327C22.0802 68.2254 22.1291 68.1431 22.1965 68.0859C22.2638 68.0281 22.3527 67.9992 22.4632 67.9992C22.568 67.9992 22.6544 68.0278 22.7224 68.085C22.7903 68.1415 22.8408 68.2235 22.8739 68.3308C22.9069 68.4375 22.9234 68.5658 22.9234 68.7157ZM22.1641 68.7157C22.1641 68.8453 22.1739 68.9533 22.1936 69.0396C22.2133 69.126 22.245 69.1908 22.2889 69.234C22.3333 69.2765 22.3915 69.2978 22.4632 69.2978C22.535 69.2978 22.5928 69.2765 22.6366 69.234C22.6811 69.1914 22.7132 69.127 22.7329 69.0406C22.7532 68.9542 22.7633 68.8459 22.7633 68.7157C22.7633 68.588 22.7535 68.4813 22.7338 68.3956C22.7141 68.3092 22.6824 68.2444 22.6385 68.2012C22.5947 68.1574 22.5363 68.1355 22.4632 68.1355C22.3902 68.1355 22.3317 68.1574 22.2879 68.2012C22.2441 68.2444 22.2123 68.3092 22.1926 68.3956C22.1736 68.4813 22.1641 68.588 22.1641 68.7157Z" fill="#212121"/>
<path d="M39.0134 69.4141H38.1007V69.2816L38.4732 68.9034C38.5425 68.8335 38.6006 68.7713 38.6476 68.7167C38.6952 68.662 38.7314 68.6084 38.7562 68.5556C38.781 68.5023 38.7933 68.4439 38.7933 68.3803C38.7933 68.3016 38.7698 68.2416 38.7228 68.2003C38.6765 68.1583 38.6152 68.1374 38.539 68.1374C38.4723 68.1374 38.4132 68.1488 38.3618 68.1717C38.3103 68.1946 38.2576 68.2269 38.2036 68.2689L38.1188 68.1622C38.1556 68.131 38.1957 68.1034 38.2389 68.0793C38.2827 68.0551 38.3294 68.0361 38.3789 68.0221C38.4291 68.0081 38.4824 68.0011 38.539 68.0011C38.6247 68.0011 38.6987 68.0161 38.761 68.0459C38.8232 68.0758 38.8712 68.1183 38.9048 68.1736C38.9391 68.2288 38.9563 68.2946 38.9563 68.3708C38.9563 68.4445 38.9417 68.5131 38.9124 68.5766C38.8832 68.6395 38.8423 68.702 38.7895 68.7643C38.7368 68.8259 38.6752 68.8913 38.6047 68.9606L38.3017 69.2626V69.2692H39.0134V69.4141Z" fill="#212121"/>
<path d="M47.255 68.346C47.255 68.4083 47.2429 68.4623 47.2187 68.508C47.1946 68.5537 47.161 68.5912 47.1178 68.6204C47.0746 68.649 47.0238 68.669 46.9653 68.6804V68.6881C47.0758 68.702 47.1587 68.7376 47.214 68.7948C47.2699 68.8519 47.2978 68.9269 47.2978 69.0196C47.2978 69.1003 47.2788 69.1717 47.2407 69.234C47.2032 69.2962 47.1454 69.3451 47.0673 69.3807C46.9898 69.4157 46.8904 69.4331 46.7691 69.4331C46.6954 69.4331 46.6271 69.4271 46.5642 69.415C46.502 69.4036 46.4423 69.3842 46.3851 69.3569V69.2083C46.4429 69.2369 46.5058 69.2594 46.5737 69.2759C46.6417 69.2918 46.7074 69.2997 46.771 69.2997C46.898 69.2997 46.9898 69.2746 47.0463 69.2245C47.1028 69.1737 47.1311 69.1044 47.1311 69.0168C47.1311 68.9564 47.1152 68.9078 47.0835 68.871C47.0523 68.8335 47.0072 68.8062 46.9482 68.7891C46.8897 68.7713 46.8192 68.7624 46.7367 68.7624H46.5976V68.6271H46.7376C46.8132 68.6271 46.8774 68.616 46.9301 68.5937C46.9828 68.5715 47.0228 68.5404 47.0501 68.5004C47.0781 68.4597 47.092 68.4118 47.092 68.3565C47.092 68.286 47.0685 68.2317 47.0215 68.1936C46.9745 68.1549 46.9107 68.1355 46.83 68.1355C46.7805 68.1355 46.7354 68.1406 46.6947 68.1507C46.6541 68.1609 46.616 68.1749 46.5804 68.1926C46.5448 68.2104 46.5093 68.2311 46.4737 68.2546L46.3937 68.146C46.4445 68.1066 46.5064 68.0726 46.5795 68.044C46.6525 68.0154 46.7354 68.0011 46.8281 68.0011C46.9704 68.0011 47.0771 68.0335 47.1482 68.0983C47.2194 68.1631 47.255 68.2457 47.255 68.346Z" fill="#212121"/>
<path d="M55.4248 69.0911H55.2161V69.4141H55.0618V69.0911H54.3882V68.9577L55.0513 68.0135H55.2161V68.9482H55.4248V69.0911ZM55.0618 68.9482V68.4928C55.0618 68.4578 55.0621 68.4264 55.0627 68.3984C55.0634 68.3699 55.0643 68.3435 55.0656 68.3194C55.0669 68.2946 55.0678 68.2711 55.0685 68.2489C55.0697 68.2266 55.0707 68.2047 55.0713 68.1831H55.0637C55.0516 68.2085 55.0376 68.2355 55.0218 68.2641C55.0065 68.292 54.991 68.3171 54.9751 68.3394L54.5454 68.9482H55.0618Z" fill="#212121"/>
<path d="M62.9315 68.5623C63.0261 68.5623 63.1084 68.5785 63.1783 68.6109C63.2481 68.6427 63.3021 68.689 63.3402 68.75C63.379 68.811 63.3983 68.885 63.3983 68.972C63.3983 69.0673 63.3777 69.1495 63.3364 69.2187C63.2951 69.2873 63.2357 69.3404 63.1583 69.3779C63.0808 69.4147 62.988 69.4331 62.88 69.4331C62.8076 69.4331 62.7403 69.4268 62.6781 69.4141C62.6158 69.4014 62.5634 69.3823 62.5209 69.3569V69.2064C62.5672 69.2343 62.6234 69.2565 62.6895 69.2731C62.7556 69.2896 62.8197 69.2978 62.882 69.2978C62.9525 69.2978 63.0141 69.2867 63.0668 69.2645C63.1201 69.2416 63.1614 69.2073 63.1906 69.1616C63.2205 69.1152 63.2354 69.0571 63.2354 68.9872C63.2354 68.8945 63.2068 68.823 63.1497 68.7729C63.0931 68.7221 63.0036 68.6966 62.881 68.6966C62.8416 68.6966 62.7984 68.6998 62.7514 68.7062C62.7044 68.7125 62.6657 68.7195 62.6352 68.7271L62.5552 68.6747L62.6085 68.0212H63.3012V68.166H62.7438L62.7086 68.5861C62.7327 68.581 62.7638 68.576 62.8019 68.5709C62.84 68.5652 62.8832 68.5623 62.9315 68.5623Z" fill="#212121"/>
<path d="M70.5544 68.8186C70.5544 68.7348 70.5602 68.6528 70.5716 68.5728C70.5837 68.4928 70.6037 68.4184 70.6316 68.3498C70.6596 68.2806 70.6977 68.22 70.746 68.1679C70.7942 68.1158 70.8542 68.0751 70.926 68.0459C70.9984 68.0161 71.0851 68.0011 71.1861 68.0011C71.2147 68.0011 71.2455 68.0027 71.2785 68.0059C71.3116 68.0084 71.3389 68.0129 71.3605 68.0192V68.1555C71.337 68.1472 71.31 68.1412 71.2795 68.1374C71.2496 68.1336 71.2195 68.1317 71.189 68.1317C71.0708 68.1317 70.9778 68.1574 70.9098 68.2088C70.8425 68.2603 70.7939 68.3302 70.7641 68.4184C70.7342 68.5061 70.7171 68.6049 70.7126 68.7147H70.7231C70.7428 68.683 70.7679 68.6544 70.7984 68.629C70.8288 68.603 70.8657 68.5823 70.9089 68.5671C70.9527 68.5518 71.0035 68.5442 71.0613 68.5442C71.1426 68.5442 71.2134 68.5607 71.2738 68.5937C71.3347 68.6268 71.3817 68.6747 71.4148 68.7376C71.4484 68.8005 71.4653 68.8767 71.4653 68.9663C71.4653 69.0622 71.4475 69.1451 71.4119 69.2149C71.3763 69.2848 71.3255 69.3388 71.2595 69.3769C71.1941 69.4144 71.1159 69.4331 71.0251 69.4331C70.9571 69.4331 70.8946 69.4201 70.8374 69.3941C70.7802 69.368 70.7304 69.3293 70.6878 69.2778C70.6459 69.2264 70.6132 69.1625 70.5897 69.0863C70.5662 69.0095 70.5544 68.9202 70.5544 68.8186ZM71.0232 69.2997C71.1096 69.2997 71.1788 69.2721 71.2309 69.2168C71.283 69.1616 71.309 69.0781 71.309 68.9663C71.309 68.8748 71.2858 68.8024 71.2395 68.749C71.1931 68.6957 71.1232 68.669 71.0299 68.669C70.9664 68.669 70.9111 68.6824 70.8641 68.709C70.8171 68.7351 70.7806 68.7681 70.7545 68.8081C70.7285 68.8481 70.7155 68.8888 70.7155 68.9301C70.7155 68.972 70.7215 69.0145 70.7336 69.0577C70.7463 69.1009 70.7653 69.1409 70.7907 69.1778C70.8161 69.2146 70.8482 69.2442 70.887 69.2664C70.9257 69.2886 70.9711 69.2997 71.0232 69.2997Z" fill="#212121"/>
<path d="M78.5249 69.4141L79.0966 68.166H78.3372V68.0212H79.2661V68.1431L78.6983 69.4141H78.5249Z" fill="#212121"/>
<path d="M21.6339 66.9267C21.6339 66.994 21.6885 67.0486 21.7559 67.0486C21.8232 67.0486 21.8778 66.994 21.8778 66.9267H21.6339ZM21.7559 19.8535H21.6339V66.9267H21.7559H21.8778V19.8535H21.7559Z" fill="#D4D4D4"/>
<path d="M21.7559 66.9258H78.0973" stroke="#D4D4D4" stroke-width="0.243902"/>
<path fill-rule="evenodd" clip-rule="evenodd" d="M21.7559 48.8386C21.7559 48.8386 25.072 52.6489 27.4855 51.7322C29.2841 51.0491 31.3629 41.7354 33.4195 42.4845C35.9814 43.4176 34.8137 51.2426 37.302 54.4626C39.8552 57.7665 47.2993 48.3844 51.6781 49.2308C57.0562 50.2703 57.4808 58.623 61.6512 56.5155C66.2055 54.214 65.9493 47.6917 73.2179 42.4845C75.41 40.914 78.0973 40.5859 78.0973 40.5859L78.0972 66.9274H21.7559V48.8386Z" fill="url(#paint0_linear_6276_94254)"/>
<g filter="url(#filter0_d_6276_94254)">
<path d="M34.7969 39.0059C35.3503 39.0621 35.7821 39.5295 35.7822 40.0977V41.0732C35.7822 41.6794 35.2907 42.1709 34.6846 42.1709H33.4238L33.2217 42.373L33.0195 42.1709H31.7578C31.1518 42.1708 30.6602 41.6793 30.6602 41.0732V40.0977C30.6603 39.4917 31.1518 39.0001 31.7578 39H34.6846L34.7969 39.0059Z" fill="white"/>
</g>
<path d="M32.2052 41.3672H32.0366V40.6948C32.0366 40.6724 32.0368 40.65 32.0373 40.6276C32.0378 40.6052 32.0383 40.5833 32.0387 40.5619C32.0397 40.5404 32.0409 40.52 32.0423 40.5004C32.0323 40.5114 32.0199 40.5233 32.0051 40.5362C31.9909 40.549 31.9756 40.5624 31.9594 40.5762L31.8394 40.6719L31.755 40.5655L32.0652 40.3225H32.2052V41.3672ZM33.1037 41.3672H32.935V40.6948C32.935 40.6724 32.9353 40.65 32.9357 40.6276C32.9362 40.6052 32.9367 40.5833 32.9372 40.5619C32.9381 40.5404 32.9393 40.52 32.9407 40.5004C32.9307 40.5114 32.9183 40.5233 32.9036 40.5362C32.8893 40.549 32.874 40.5624 32.8579 40.5762L32.7378 40.6719L32.6535 40.5655L32.9636 40.3225H33.1037V41.3672ZM34.2157 40.8441C34.2157 40.9284 34.2091 41.004 34.1957 41.0706C34.1829 41.1369 34.1624 41.1931 34.1343 41.2393C34.1062 41.2855 34.0695 41.3207 34.0242 41.345C33.979 41.3693 33.9242 41.3815 33.8599 41.3815C33.7794 41.3815 33.7129 41.3603 33.6605 41.3179C33.6081 41.275 33.5693 41.2136 33.5441 41.1335C33.5188 41.053 33.5062 40.9566 33.5062 40.8441C33.5062 40.7317 33.5176 40.6355 33.5405 40.5554C33.5638 40.4749 33.6015 40.4133 33.6534 40.3704C33.7053 40.3275 33.7742 40.3061 33.8599 40.3061C33.9409 40.3061 34.0076 40.3275 34.06 40.3704C34.1129 40.4128 34.1519 40.4742 34.1772 40.5547C34.2029 40.6348 34.2157 40.7312 34.2157 40.8441ZM33.6755 40.8441C33.6755 40.9323 33.6813 41.0059 33.6927 41.0649C33.7046 41.124 33.7241 41.1683 33.7513 41.1978C33.7784 41.2269 33.8146 41.2414 33.8599 41.2414C33.9052 41.2414 33.9414 41.2269 33.9685 41.1978C33.9957 41.1688 34.0152 41.1247 34.0271 41.0656C34.0395 41.0066 34.0457 40.9327 34.0457 40.8441C34.0457 40.7565 34.0397 40.6831 34.0278 40.624C34.0159 40.565 33.9964 40.5207 33.9692 40.4911C33.9421 40.4611 33.9056 40.4461 33.8599 40.4461C33.8142 40.4461 33.7777 40.4611 33.7506 40.4911C33.7239 40.5207 33.7046 40.565 33.6927 40.624C33.6813 40.6831 33.6755 40.7565 33.6755 40.8441ZM35.1142 40.8441C35.1142 40.9284 35.1075 41.004 35.0942 41.0706C35.0813 41.1369 35.0608 41.1931 35.0327 41.2393C35.0046 41.2855 34.9679 41.3207 34.9227 41.345C34.8774 41.3693 34.8226 41.3815 34.7583 41.3815C34.6778 41.3815 34.6114 41.3603 34.559 41.3179C34.5066 41.275 34.4677 41.2136 34.4425 41.1335C34.4173 41.053 34.4046 40.9566 34.4046 40.8441C34.4046 40.7317 34.4161 40.6355 34.4389 40.5554C34.4623 40.4749 34.4999 40.4133 34.5518 40.3704C34.6038 40.3275 34.6726 40.3061 34.7583 40.3061C34.8393 40.3061 34.906 40.3275 34.9584 40.3704C35.0113 40.4128 35.0504 40.4742 35.0756 40.5547C35.1013 40.6348 35.1142 40.7312 35.1142 40.8441ZM34.574 40.8441C34.574 40.9323 34.5797 41.0059 34.5911 41.0649C34.603 41.124 34.6226 41.1683 34.6497 41.1978C34.6769 41.2269 34.7131 41.2414 34.7583 41.2414C34.8036 41.2414 34.8398 41.2269 34.8669 41.1978C34.8941 41.1688 34.9136 41.1247 34.9255 41.0656C34.9379 41.0066 34.9441 40.9327 34.9441 40.8441C34.9441 40.7565 34.9382 40.6831 34.9263 40.624C34.9143 40.565 34.8948 40.5207 34.8677 40.4911C34.8405 40.4611 34.8041 40.4461 34.7583 40.4461C34.7126 40.4461 34.6762 40.4611 34.649 40.4911C34.6223 40.5207 34.603 40.565 34.5911 40.624C34.5797 40.6831 34.574 40.7565 34.574 40.8441Z" fill="#212121"/>
<g filter="url(#filter1_d_6276_94254)">
<path d="M52 45.832C52.6059 45.8322 53.0975 46.3238 53.0977 46.9297V47.6611C53.0977 48.2672 52.606 48.7586 52 48.7588H51.4707L51.1465 49.083L50.8223 48.7588H50.293C49.6868 48.7588 49.1953 48.2673 49.1953 47.6611V46.9297C49.1955 46.3237 49.6869 45.832 50.293 45.832H52Z" fill="white"/>
</g>
<path d="M49.8971 47.631C49.8971 47.5696 49.9014 47.5091 49.9099 47.4495C49.919 47.39 49.9342 47.3342 49.9557 47.2823C49.9771 47.2304 50.0066 47.1846 50.0443 47.1451C50.0824 47.1056 50.1303 47.0746 50.1879 47.0522C50.2455 47.0293 50.3149 47.0179 50.3958 47.0179C50.4168 47.0179 50.4404 47.0189 50.4666 47.0208C50.4928 47.0227 50.5144 47.0258 50.5316 47.0301V47.1694C50.513 47.1642 50.4925 47.1601 50.4701 47.1573C50.4482 47.1544 50.4263 47.153 50.4044 47.153C50.3168 47.153 50.2484 47.1696 50.1993 47.203C50.1503 47.2359 50.1153 47.2811 50.0943 47.3387C50.0733 47.3959 50.0612 47.4614 50.0578 47.5353H50.0664C50.0807 47.5114 50.0986 47.4902 50.12 47.4717C50.1415 47.4531 50.1677 47.4383 50.1986 47.4274C50.2296 47.4159 50.2655 47.4102 50.3065 47.4102C50.3675 47.4102 50.4206 47.4231 50.4659 47.4488C50.5111 47.474 50.5459 47.5107 50.5702 47.5588C50.595 47.6069 50.6073 47.6653 50.6073 47.7339C50.6073 47.8077 50.5933 47.8713 50.5652 47.9247C50.5376 47.978 50.498 48.019 50.4466 48.0476C50.3956 48.0762 50.3349 48.0905 50.2644 48.0905C50.2124 48.0905 50.1641 48.0809 50.1193 48.0619C50.075 48.0428 50.0362 48.0142 50.0028 47.9761C49.9695 47.938 49.9435 47.8904 49.9249 47.8332C49.9064 47.7756 49.8971 47.7082 49.8971 47.631ZM50.2615 47.9518C50.3158 47.9518 50.3594 47.9342 50.3923 47.899C50.4256 47.8632 50.4423 47.8087 50.4423 47.7353C50.4423 47.6758 50.4275 47.6286 50.398 47.5938C50.3689 47.5591 50.3251 47.5417 50.2665 47.5417C50.2265 47.5417 50.1915 47.5503 50.1615 47.5674C50.1314 47.5846 50.1081 47.6062 50.0914 47.6324C50.0752 47.6586 50.0671 47.6853 50.0671 47.7125C50.0671 47.7401 50.0712 47.768 50.0793 47.7961C50.0874 47.8242 50.0995 47.8501 50.1157 47.874C50.1319 47.8973 50.1522 47.9161 50.1765 47.9304C50.2008 47.9447 50.2291 47.9518 50.2615 47.9518ZM51.5015 47.5531C51.5015 47.6374 51.4948 47.7129 51.4815 47.7796C51.4686 47.8458 51.4481 47.9021 51.42 47.9483C51.3919 47.9945 51.3552 48.0297 51.31 48.054C51.2647 48.0783 51.21 48.0905 51.1456 48.0905C51.0651 48.0905 50.9987 48.0693 50.9463 48.0269C50.8939 47.984 50.8551 47.9225 50.8298 47.8425C50.8046 47.762 50.7919 47.6655 50.7919 47.5531C50.7919 47.4407 50.8034 47.3445 50.8262 47.2644C50.8496 47.1839 50.8872 47.1222 50.9391 47.0794C50.9911 47.0365 51.0599 47.0151 51.1456 47.0151C51.2266 47.0151 51.2933 47.0365 51.3457 47.0794C51.3986 47.1218 51.4377 47.1832 51.4629 47.2637C51.4886 47.3437 51.5015 47.4402 51.5015 47.5531ZM50.9613 47.5531C50.9613 47.6412 50.967 47.7148 50.9784 47.7739C50.9903 47.833 51.0099 47.8773 51.037 47.9068C51.0642 47.9359 51.1004 47.9504 51.1456 47.9504C51.1909 47.9504 51.2271 47.9359 51.2543 47.9068C51.2814 47.8778 51.3009 47.8337 51.3128 47.7746C51.3252 47.7156 51.3314 47.6417 51.3314 47.5531C51.3314 47.4655 51.3255 47.3921 51.3136 47.333C51.3017 47.274 51.2821 47.2297 51.255 47.2001C51.2278 47.1701 51.1914 47.1551 51.1456 47.1551C51.0999 47.1551 51.0635 47.1701 51.0363 47.2001C51.0096 47.2297 50.9903 47.274 50.9784 47.333C50.967 47.3921 50.9613 47.4655 50.9613 47.5531ZM52.3999 47.5531C52.3999 47.6374 52.3933 47.7129 52.3799 47.7796C52.3671 47.8458 52.3466 47.9021 52.3185 47.9483C52.2904 47.9945 52.2537 48.0297 52.2084 48.054C52.1632 48.0783 52.1084 48.0905 52.0441 48.0905C51.9636 48.0905 51.8971 48.0693 51.8447 48.0269C51.7923 47.984 51.7535 47.9225 51.7282 47.8425C51.703 47.762 51.6904 47.6655 51.6904 47.5531C51.6904 47.4407 51.7018 47.3445 51.7247 47.2644C51.748 47.1839 51.7856 47.1222 51.8376 47.0794C51.8895 47.0365 51.9583 47.0151 52.0441 47.0151C52.1251 47.0151 52.1918 47.0365 52.2442 47.0794C52.297 47.1218 52.3361 47.1832 52.3613 47.2637C52.3871 47.3437 52.3999 47.4402 52.3999 47.5531ZM51.8597 47.5531C51.8597 47.6412 51.8654 47.7148 51.8769 47.7739C51.8888 47.833 51.9083 47.8773 51.9355 47.9068C51.9626 47.9359 51.9988 47.9504 52.0441 47.9504C52.0893 47.9504 52.1255 47.9359 52.1527 47.9068C52.1798 47.8778 52.1994 47.8337 52.2113 47.7746C52.2237 47.7156 52.2299 47.6417 52.2299 47.5531C52.2299 47.4655 52.2239 47.3921 52.212 47.333C52.2001 47.274 52.1806 47.2297 52.1534 47.2001C52.1263 47.1701 52.0898 47.1551 52.0441 47.1551C51.9983 47.1551 51.9619 47.1701 51.9348 47.2001C51.9081 47.2297 51.8888 47.274 51.8769 47.333C51.8654 47.3921 51.8597 47.4655 51.8597 47.5531Z" fill="#212121"/>
<g filter="url(#filter2_d_6276_94254)">
<path d="M62.9766 52.6602C63.5826 52.6602 64.0742 53.1517 64.0742 53.7578V54.4893C64.074 55.0952 63.5825 55.5868 62.9766 55.5869H62.2031L61.8789 55.9111L61.5547 55.5869H60.7812C60.1753 55.5868 59.6838 55.0951 59.6836 54.4893V53.7578C59.6836 53.1517 60.1752 52.6603 60.7812 52.6602H62.9766Z" fill="white"/>
</g>
<path d="M61.1218 54.9043H60.9532V54.2319C60.9532 54.2095 60.9534 54.1871 60.9539 54.1647C60.9544 54.1423 60.9549 54.1204 60.9553 54.099C60.9563 54.0776 60.9575 54.0571 60.9589 54.0375C60.9489 54.0485 60.9365 54.0604 60.9217 54.0733C60.9075 54.0861 60.8922 54.0995 60.876 54.1133L60.756 54.209L60.6717 54.1026L60.9818 53.8596H61.1218V54.9043ZM61.8816 54.2512C61.9488 54.2512 62.0079 54.2633 62.0588 54.2876C62.1103 54.3115 62.1503 54.3467 62.1789 54.3934C62.2075 54.4396 62.2218 54.4963 62.2218 54.5635C62.2218 54.6368 62.2063 54.7002 62.1753 54.7535C62.1444 54.8064 62.0989 54.8471 62.0388 54.8757C61.9788 54.9043 61.9057 54.9186 61.8195 54.9186C61.7647 54.9186 61.7135 54.9138 61.6658 54.9043C61.6187 54.8948 61.578 54.8805 61.5437 54.8614V54.7099C61.5794 54.7299 61.6223 54.7464 61.6723 54.7592C61.7223 54.7716 61.7702 54.7778 61.8159 54.7778C61.8645 54.7778 61.9062 54.7707 61.9409 54.7564C61.9757 54.7421 62.0024 54.7202 62.021 54.6906C62.04 54.6611 62.0496 54.6237 62.0496 54.5785C62.0496 54.5184 62.0303 54.4722 61.9917 54.4398C61.9536 54.407 61.8938 54.3905 61.8123 54.3905C61.7837 54.3905 61.7533 54.3931 61.7209 54.3984C61.6889 54.4032 61.6623 54.4084 61.6408 54.4141L61.5672 54.3705L61.6065 53.8596H62.1496V54.0075H61.7544L61.7316 54.2676C61.7487 54.2638 61.7692 54.2602 61.793 54.2569C61.8169 54.2531 61.8464 54.2512 61.8816 54.2512ZM63.1324 54.3812C63.1324 54.4656 63.1257 54.5411 63.1123 54.6078C63.0995 54.674 63.079 54.7302 63.0509 54.7764C63.0228 54.8226 62.9861 54.8579 62.9409 54.8821C62.8956 54.9064 62.8408 54.9186 62.7765 54.9186C62.696 54.9186 62.6295 54.8974 62.5771 54.855C62.5247 54.8121 62.4859 54.7507 62.4607 54.6706C62.4354 54.5901 62.4228 54.4937 62.4228 54.3812C62.4228 54.2688 62.4342 54.1726 62.4571 54.0926C62.4804 54.0121 62.5181 53.9504 62.57 53.9075C62.6219 53.8646 62.6908 53.8432 62.7765 53.8432C62.8575 53.8432 62.9242 53.8646 62.9766 53.9075C63.0295 53.9499 63.0685 54.0113 63.0938 54.0918C63.1195 54.1719 63.1324 54.2683 63.1324 54.3812ZM62.5921 54.3812C62.5921 54.4694 62.5979 54.543 62.6093 54.602C62.6212 54.6611 62.6407 54.7054 62.6679 54.7349C62.695 54.764 62.7312 54.7785 62.7765 54.7785C62.8218 54.7785 62.858 54.764 62.8851 54.7349C62.9123 54.7059 62.9318 54.6618 62.9437 54.6028C62.9561 54.5437 62.9623 54.4698 62.9623 54.3812C62.9623 54.2936 62.9563 54.2202 62.9444 54.1612C62.9325 54.1021 62.913 54.0578 62.8858 54.0282C62.8587 53.9982 62.8222 53.9832 62.7765 53.9832C62.7308 53.9832 62.6943 53.9982 62.6672 54.0282C62.6405 54.0578 62.6212 54.1021 62.6093 54.1612C62.5979 54.2202 62.5921 54.2936 62.5921 54.3812Z" fill="#212121"/>
<defs>
<filter id="filter0_d_6276_94254" x="28.7089" y="37.2927" width="9.02353" height="7.27549" filterUnits="userSpaceOnUse" color-interpolation-filters="sRGB">
<feFlood flood-opacity="0" result="BackgroundImageFix"/>
<feColorMatrix in="SourceAlpha" type="matrix" values="0 0 0 0 0 0 0 0 0 0 0 0 0 0 0 0 0 0 127 0" result="hardAlpha"/>
<feOffset dy="0.243902"/>
<feGaussianBlur stdDeviation="0.97561"/>
<feColorMatrix type="matrix" values="0 0 0 0 0.293333 0 0 0 0 0.333211 0 0 0 0 0.431373 0 0 0 0.2 0"/>
<feBlend mode="normal" in2="BackgroundImageFix" result="effect1_dropShadow_6276_94254"/>
<feBlend mode="normal" in="SourceGraphic" in2="effect1_dropShadow_6276_94254" result="shape"/>
</filter>
<filter id="filter1_d_6276_94254" x="47.2441" y="44.1247" width="7.80478" height="7.15244" filterUnits="userSpaceOnUse" color-interpolation-filters="sRGB">
<feFlood flood-opacity="0" result="BackgroundImageFix"/>
<feColorMatrix in="SourceAlpha" type="matrix" values="0 0 0 0 0 0 0 0 0 0 0 0 0 0 0 0 0 0 127 0" result="hardAlpha"/>
<feOffset dy="0.243902"/>
<feGaussianBlur stdDeviation="0.97561"/>
<feColorMatrix type="matrix" values="0 0 0 0 0.293333 0 0 0 0 0.333211 0 0 0 0 0.431373 0 0 0 0.2 0"/>
<feBlend mode="normal" in2="BackgroundImageFix" result="effect1_dropShadow_6276_94254"/>
<feBlend mode="normal" in="SourceGraphic" in2="effect1_dropShadow_6276_94254" result="shape"/>
</filter>
<filter id="filter2_d_6276_94254" x="57.7324" y="50.9528" width="8.29306" height="7.15244" filterUnits="userSpaceOnUse" color-interpolation-filters="sRGB">
<feFlood flood-opacity="0" result="BackgroundImageFix"/>
<feColorMatrix in="SourceAlpha" type="matrix" values="0 0 0 0 0 0 0 0 0 0 0 0 0 0 0 0 0 0 127 0" result="hardAlpha"/>
<feOffset dy="0.243902"/>
<feGaussianBlur stdDeviation="0.97561"/>
<feColorMatrix type="matrix" values="0 0 0 0 0.293333 0 0 0 0 0.333211 0 0 0 0 0.431373 0 0 0 0.2 0"/>
<feBlend mode="normal" in2="BackgroundImageFix" result="effect1_dropShadow_6276_94254"/>
<feBlend mode="normal" in="SourceGraphic" in2="effect1_dropShadow_6276_94254" result="shape"/>
</filter>
<linearGradient id="paint0_linear_6276_94254" x1="50.2924" y1="46.8054" x2="49.9266" y2="66.9274" gradientUnits="userSpaceOnUse">
<stop offset="0.0209593" stop-color="#FFF876"/>
<stop offset="0.986856" stop-color="#FFCD60"/>
</linearGradient>
</defs>
</svg>
