<svg width="92" height="92" viewBox="0 0 92 92" fill="none" xmlns="http://www.w3.org/2000/svg">
<rect x="0.389831" y="0.389831" width="91.079" height="91.2203" rx="17.5424" stroke="#BEBEBE" stroke-width="0.779661"/>
<g clip-path="url(#clip0_7679_46194)">
<rect width="74.9641" height="65.0386" transform="translate(8 13)" fill="white"/>
<path d="M18.4482 19.2695V69.6809" stroke="#E0E0E0" stroke-width="0.261199"/>
<path d="M26.9368 69.6809C26.9368 69.7531 26.9953 69.8115 27.0674 69.8115C27.1395 69.8115 27.198 69.7531 27.198 69.6809H26.9368ZM27.0674 19.2695H26.9368V69.6809H27.0674H27.198V19.2695H27.0674Z" fill="#E0E0E0"/>
<path d="M35.5569 69.6809C35.5569 69.7531 35.6154 69.8115 35.6875 69.8115C35.7596 69.8115 35.8181 69.7531 35.8181 69.6809H35.5569ZM35.6875 19.2695H35.5569V69.6809H35.6875H35.8181V19.2695H35.6875Z" fill="#E0E0E0"/>
<path d="M44.176 69.6809C44.176 69.7531 44.2345 69.8115 44.3066 69.8115C44.3788 69.8115 44.4372 69.7531 44.4372 69.6809H44.176ZM44.3066 19.2695H44.176V69.6809H44.3066H44.4372V19.2695H44.3066Z" fill="#E0E0E0"/>
<path d="M52.7962 69.6809C52.7962 69.7531 52.8546 69.8115 52.9268 69.8115C52.9989 69.8115 53.0574 69.7531 53.0574 69.6809H52.7962ZM52.9268 19.2695H52.7962V69.6809H52.9268H53.0574V19.2695H52.9268Z" fill="#E0E0E0"/>
<path d="M61.4153 69.6809C61.4153 69.7531 61.4738 69.8115 61.5459 69.8115C61.618 69.8115 61.6765 69.7531 61.6765 69.6809H61.4153ZM61.5459 19.2695H61.4153V69.6809H61.5459H61.6765V19.2695H61.5459Z" fill="#E0E0E0"/>
<path d="M70.0354 69.6809C70.0354 69.7531 70.0939 69.8115 70.166 69.8115C70.2381 69.8115 70.2966 69.7531 70.2966 69.6809H70.0354ZM70.166 19.2695H70.0354V69.6809H70.166H70.2966V19.2695H70.166Z" fill="#E0E0E0"/>
<path d="M78.6546 69.6809C78.6546 69.7531 78.713 69.8115 78.7852 69.8115C78.8573 69.8115 78.9158 69.7531 78.9158 69.6809H78.6546ZM78.7852 19.2695H78.6546V69.6809H78.7852H78.9158V19.2695H78.7852Z" fill="#E0E0E0"/>
<path d="M18.5801 66.023L27.069 36.3582L35.7604 46.1622L44.3082 31.2602L52.9278 39.4955L61.6192 56.6198L70.2387 37.1426L78.7865 25.5371" stroke="#FFBA00" stroke-width="0.522398"/>
<path d="M27.0664 35.0723C27.7154 35.0723 28.242 35.5981 28.2422 36.2471C28.2422 36.8962 27.7156 37.4229 27.0664 37.4229C26.4174 37.4227 25.8916 36.8961 25.8916 36.2471C25.8918 35.5982 26.4175 35.0724 27.0664 35.0723Z" fill="white" stroke="#FFBA00" stroke-width="0.261199"/>
<path d="M27.0668 37.032C27.4996 37.032 27.8504 36.6812 27.8504 36.2484C27.8504 35.8157 27.4996 35.4648 27.0668 35.4648C26.634 35.4648 26.2832 35.8157 26.2832 36.2484C26.2832 36.6812 26.634 37.032 27.0668 37.032Z" fill="#FFBA00"/>
<path d="M70.1654 37.8133C70.5982 37.8133 70.949 37.4625 70.949 37.0297C70.949 36.5969 70.5982 36.2461 70.1654 36.2461C69.7327 36.2461 69.3818 36.5969 69.3818 37.0297C69.3818 37.4625 69.7327 37.8133 70.1654 37.8133Z" fill="#FFBA00"/>
<path d="M78.7846 26.3524C79.2173 26.3524 79.5682 26.0015 79.5682 25.5688C79.5682 25.136 79.2173 24.7852 78.7846 24.7852C78.3518 24.7852 78.001 25.136 78.001 25.5688C78.001 26.0015 78.3518 26.3524 78.7846 26.3524Z" fill="#FFBA00"/>
<path d="M12.1342 21.2695H11.1568V21.1277L11.5557 20.7226C11.6298 20.6478 11.6921 20.5812 11.7424 20.5227C11.7934 20.4642 11.8322 20.4067 11.8587 20.3502C11.8853 20.2931 11.8985 20.2305 11.8985 20.1625C11.8985 20.0782 11.8734 20.0139 11.823 19.9697C11.7734 19.9248 11.7077 19.9023 11.6261 19.9023C11.5547 19.9023 11.4914 19.9146 11.4363 19.939C11.3812 19.9635 11.3248 19.9982 11.267 20.0431L11.1761 19.9288C11.2156 19.8955 11.2584 19.8659 11.3047 19.8401C11.3516 19.8142 11.4016 19.7938 11.4547 19.7789C11.5084 19.7639 11.5656 19.7564 11.6261 19.7564C11.7179 19.7564 11.7972 19.7724 11.8638 19.8044C11.9305 19.8363 11.9818 19.8819 12.0179 19.9411C12.0546 20.0003 12.073 20.0707 12.073 20.1523C12.073 20.2312 12.0574 20.3047 12.0261 20.3727C11.9948 20.44 11.9509 20.507 11.8944 20.5737C11.838 20.6397 11.772 20.7097 11.6965 20.7839L11.372 21.1073V21.1144H12.1342V21.2695ZM12.8239 20.3574C12.9253 20.3574 13.0134 20.3747 13.0882 20.4094C13.163 20.4434 13.2208 20.4931 13.2617 20.5584C13.3031 20.6237 13.3239 20.7029 13.3239 20.7961C13.3239 20.8981 13.3018 20.9862 13.2576 21.0604C13.2134 21.1338 13.1498 21.1906 13.0668 21.2308C12.9838 21.2702 12.8845 21.2899 12.7688 21.2899C12.6913 21.2899 12.6192 21.2831 12.5525 21.2695C12.4859 21.2559 12.4298 21.2355 12.3842 21.2083V21.0471C12.4338 21.077 12.494 21.1008 12.5648 21.1185C12.6355 21.1362 12.7042 21.1451 12.7709 21.1451C12.8464 21.1451 12.9124 21.1331 12.9688 21.1093C13.026 21.0849 13.0702 21.0481 13.1015 20.9991C13.1334 20.9495 13.1494 20.8873 13.1494 20.8124C13.1494 20.7131 13.1188 20.6366 13.0576 20.5829C12.9971 20.5284 12.9011 20.5012 12.7699 20.5012C12.7277 20.5012 12.6814 20.5046 12.6311 20.5114C12.5808 20.5182 12.5393 20.5257 12.5066 20.5339L12.4209 20.4778L12.4781 19.7778H13.2198V19.9329H12.6229L12.5852 20.3829C12.611 20.3774 12.6444 20.372 12.6852 20.3666C12.726 20.3604 12.7722 20.3574 12.8239 20.3574ZM14.534 20.5216C14.534 20.6427 14.5248 20.7509 14.5064 20.8461C14.4881 20.9413 14.4592 21.0219 14.4197 21.0879C14.3803 21.1539 14.3292 21.2042 14.2667 21.2389C14.2041 21.2729 14.1289 21.2899 14.0412 21.2899C13.9303 21.2899 13.8385 21.2597 13.7657 21.1991C13.6936 21.1386 13.6395 21.0512 13.6035 20.9369C13.5681 20.822 13.5504 20.6835 13.5504 20.5216C13.5504 20.3625 13.5664 20.2258 13.5984 20.1115C13.631 19.9965 13.6834 19.9084 13.7555 19.8472C13.8276 19.7853 13.9228 19.7544 14.0412 19.7544C14.1534 19.7544 14.2459 19.785 14.3187 19.8462C14.3915 19.9067 14.4456 19.9945 14.4809 20.1094C14.5163 20.2237 14.534 20.3611 14.534 20.5216ZM13.7208 20.5216C13.7208 20.6604 13.7313 20.776 13.7524 20.8685C13.7735 20.9611 13.8075 21.0304 13.8545 21.0767C13.9021 21.1223 13.9643 21.1451 14.0412 21.1451C14.118 21.1451 14.1799 21.1223 14.2269 21.0767C14.2745 21.0311 14.3088 20.9621 14.3299 20.8696C14.3517 20.7771 14.3626 20.6611 14.3626 20.5216C14.3626 20.3849 14.352 20.2706 14.3309 20.1788C14.3099 20.0863 14.2758 20.0169 14.2289 19.9707C14.182 19.9237 14.1194 19.9003 14.0412 19.9003C13.9629 19.9003 13.9004 19.9237 13.8534 19.9707C13.8065 20.0169 13.7725 20.0863 13.7514 20.1788C13.731 20.2706 13.7208 20.3849 13.7208 20.5216ZM15.7298 20.5216C15.7298 20.6427 15.7206 20.7509 15.7022 20.8461C15.6839 20.9413 15.655 21.0219 15.6155 21.0879C15.5761 21.1539 15.525 21.2042 15.4625 21.2389C15.3999 21.2729 15.3247 21.2899 15.237 21.2899C15.1261 21.2899 15.0343 21.2597 14.9615 21.1991C14.8894 21.1386 14.8353 21.0512 14.7993 20.9369C14.7639 20.822 14.7462 20.6835 14.7462 20.5216C14.7462 20.3625 14.7622 20.2258 14.7942 20.1115C14.8268 19.9965 14.8792 19.9084 14.9513 19.8472C15.0234 19.7853 15.1186 19.7544 15.237 19.7544C15.3492 19.7544 15.4417 19.785 15.5145 19.8462C15.5873 19.9067 15.6414 19.9945 15.6767 20.1094C15.7121 20.2237 15.7298 20.3611 15.7298 20.5216ZM14.9166 20.5216C14.9166 20.6604 14.9271 20.776 14.9482 20.8685C14.9693 20.9611 15.0033 21.0304 15.0503 21.0767C15.0979 21.1223 15.1601 21.1451 15.237 21.1451C15.3138 21.1451 15.3757 21.1223 15.4227 21.0767C15.4703 21.0311 15.5046 20.9621 15.5257 20.8696C15.5475 20.7771 15.5584 20.6611 15.5584 20.5216C15.5584 20.3849 15.5478 20.2706 15.5267 20.1788C15.5057 20.0863 15.4716 20.0169 15.4247 19.9707C15.3778 19.9237 15.3152 19.9003 15.237 19.9003C15.1587 19.9003 15.0962 19.9237 15.0492 19.9707C15.0023 20.0169 14.9683 20.0863 14.9472 20.1788C14.9268 20.2706 14.9166 20.3849 14.9166 20.5216Z" fill="#212121"/>
<path d="M12.1342 28.9707H11.1568V28.8289L11.5557 28.4238C11.6298 28.349 11.6921 28.2823 11.7424 28.2238C11.7934 28.1653 11.8322 28.1079 11.8587 28.0514C11.8853 27.9943 11.8985 27.9317 11.8985 27.8637C11.8985 27.7793 11.8734 27.715 11.823 27.6708C11.7734 27.6259 11.7077 27.6035 11.6261 27.6035C11.5547 27.6035 11.4914 27.6157 11.4363 27.6402C11.3812 27.6647 11.3248 27.6994 11.267 27.7443L11.1761 27.63C11.2156 27.5967 11.2584 27.5671 11.3047 27.5413C11.3516 27.5154 11.4016 27.495 11.4547 27.48C11.5084 27.4651 11.5656 27.4576 11.6261 27.4576C11.7179 27.4576 11.7972 27.4736 11.8638 27.5055C11.9305 27.5375 11.9818 27.5831 12.0179 27.6423C12.0546 27.7014 12.073 27.7718 12.073 27.8535C12.073 27.9324 12.0574 28.0058 12.0261 28.0739C11.9948 28.1412 11.9509 28.2082 11.8944 28.2749C11.838 28.3408 11.772 28.4109 11.6965 28.485L11.372 28.8085V28.8156H12.1342V28.9707ZM13.3382 28.2228C13.3382 28.3439 13.329 28.452 13.3106 28.5473C13.2923 28.6425 13.2634 28.7231 13.2239 28.7891C13.1845 28.8551 13.1334 28.9054 13.0709 28.9401C13.0083 28.9741 12.9331 28.9911 12.8454 28.9911C12.7345 28.9911 12.6427 28.9608 12.5699 28.9003C12.4978 28.8398 12.4437 28.7524 12.4077 28.6381C12.3723 28.5231 12.3546 28.3847 12.3546 28.2228C12.3546 28.0636 12.3706 27.9269 12.4026 27.8127C12.4352 27.6977 12.4876 27.6096 12.5597 27.5484C12.6318 27.4865 12.727 27.4555 12.8454 27.4555C12.9576 27.4555 13.0501 27.4862 13.1229 27.5474C13.1957 27.6079 13.2498 27.6957 13.2851 27.8106C13.3205 27.9249 13.3382 28.0623 13.3382 28.2228ZM12.525 28.2228C12.525 28.3616 12.5355 28.4772 12.5566 28.5697C12.5777 28.6622 12.6117 28.7316 12.6587 28.7779C12.7063 28.8234 12.7685 28.8462 12.8454 28.8462C12.9222 28.8462 12.9841 28.8234 13.0311 28.7779C13.0787 28.7323 13.113 28.6633 13.1341 28.5707C13.1559 28.4782 13.1668 28.3623 13.1668 28.2228C13.1668 28.0861 13.1562 27.9718 13.1351 27.88C13.1141 27.7875 13.08 27.7181 13.0331 27.6719C12.9862 27.6249 12.9236 27.6014 12.8454 27.6014C12.7671 27.6014 12.7046 27.6249 12.6576 27.6719C12.6107 27.7181 12.5767 27.7875 12.5556 27.88C12.5352 27.9718 12.525 28.0861 12.525 28.2228ZM14.534 28.2228C14.534 28.3439 14.5248 28.452 14.5064 28.5473C14.4881 28.6425 14.4592 28.7231 14.4197 28.7891C14.3803 28.8551 14.3292 28.9054 14.2667 28.9401C14.2041 28.9741 14.1289 28.9911 14.0412 28.9911C13.9303 28.9911 13.8385 28.9608 13.7657 28.9003C13.6936 28.8398 13.6395 28.7524 13.6035 28.6381C13.5681 28.5231 13.5504 28.3847 13.5504 28.2228C13.5504 28.0636 13.5664 27.9269 13.5984 27.8127C13.631 27.6977 13.6834 27.6096 13.7555 27.5484C13.8276 27.4865 13.9228 27.4555 14.0412 27.4555C14.1534 27.4555 14.2459 27.4862 14.3187 27.5474C14.3915 27.6079 14.4456 27.6957 14.4809 27.8106C14.5163 27.9249 14.534 28.0623 14.534 28.2228ZM13.7208 28.2228C13.7208 28.3616 13.7313 28.4772 13.7524 28.5697C13.7735 28.6622 13.8075 28.7316 13.8545 28.7779C13.9021 28.8234 13.9643 28.8462 14.0412 28.8462C14.118 28.8462 14.1799 28.8234 14.2269 28.7779C14.2745 28.7323 14.3088 28.6633 14.3299 28.5707C14.3517 28.4782 14.3626 28.3623 14.3626 28.2228C14.3626 28.0861 14.352 27.9718 14.3309 27.88C14.3099 27.7875 14.2758 27.7181 14.2289 27.6719C14.182 27.6249 14.1194 27.6014 14.0412 27.6014C13.9629 27.6014 13.9004 27.6249 13.8534 27.6719C13.8065 27.7181 13.7725 27.7875 13.7514 27.88C13.731 27.9718 13.7208 28.0861 13.7208 28.2228ZM15.7298 28.2228C15.7298 28.3439 15.7206 28.452 15.7022 28.5473C15.6839 28.6425 15.655 28.7231 15.6155 28.7891C15.5761 28.8551 15.525 28.9054 15.4625 28.9401C15.3999 28.9741 15.3247 28.9911 15.237 28.9911C15.1261 28.9911 15.0343 28.9608 14.9615 28.9003C14.8894 28.8398 14.8353 28.7524 14.7993 28.6381C14.7639 28.5231 14.7462 28.3847 14.7462 28.2228C14.7462 28.0636 14.7622 27.9269 14.7942 27.8127C14.8268 27.6977 14.8792 27.6096 14.9513 27.5484C15.0234 27.4865 15.1186 27.4555 15.237 27.4555C15.3492 27.4555 15.4417 27.4862 15.5145 27.5474C15.5873 27.6079 15.6414 27.6957 15.6767 27.8106C15.7121 27.9249 15.7298 28.0623 15.7298 28.2228ZM14.9166 28.2228C14.9166 28.3616 14.9271 28.4772 14.9482 28.5697C14.9693 28.6622 15.0033 28.7316 15.0503 28.7779C15.0979 28.8234 15.1601 28.8462 15.237 28.8462C15.3138 28.8462 15.3757 28.8234 15.4227 28.7779C15.4703 28.7323 15.5046 28.6633 15.5257 28.5707C15.5475 28.4782 15.5584 28.3623 15.5584 28.2228C15.5584 28.0861 15.5478 27.9718 15.5267 27.88C15.5057 27.7875 15.4716 27.7181 15.4247 27.6719C15.3778 27.6249 15.3152 27.6014 15.237 27.6014C15.1587 27.6014 15.0962 27.6249 15.0492 27.6719C15.0023 27.7181 14.9683 27.7875 14.9472 27.88C14.9268 27.9718 14.9166 28.0861 14.9166 28.2228Z" fill="#212121"/>
<path d="M11.7873 36.6719H11.622V35.6148C11.622 35.5747 11.622 35.5404 11.622 35.5118C11.6227 35.4825 11.6234 35.456 11.6241 35.4322C11.6254 35.4077 11.6271 35.3829 11.6292 35.3577C11.6081 35.3795 11.5883 35.3982 11.57 35.4138C11.5516 35.4288 11.5288 35.4475 11.5016 35.47L11.3312 35.6067L11.2425 35.4914L11.6465 35.1802H11.7873V36.6719ZM12.8239 35.7597C12.9253 35.7597 13.0134 35.7771 13.0882 35.8118C13.163 35.8458 13.2208 35.8954 13.2617 35.9607C13.3031 36.026 13.3239 36.1053 13.3239 36.1985C13.3239 36.3005 13.3018 36.3886 13.2576 36.4627C13.2134 36.5362 13.1498 36.593 13.0668 36.6331C12.9838 36.6726 12.8845 36.6923 12.7688 36.6923C12.6913 36.6923 12.6192 36.6855 12.5525 36.6719C12.4859 36.6583 12.4298 36.6379 12.3842 36.6107V36.4494C12.4338 36.4794 12.494 36.5032 12.5648 36.5209C12.6355 36.5386 12.7042 36.5474 12.7709 36.5474C12.8464 36.5474 12.9124 36.5355 12.9688 36.5117C13.026 36.4872 13.0702 36.4505 13.1015 36.4015C13.1334 36.3518 13.1494 36.2896 13.1494 36.2148C13.1494 36.1155 13.1188 36.0389 13.0576 35.9852C12.9971 35.9308 12.9011 35.9036 12.7699 35.9036C12.7277 35.9036 12.6814 35.907 12.6311 35.9138C12.5808 35.9206 12.5393 35.9281 12.5066 35.9362L12.4209 35.8801L12.4781 35.1802H13.2198V35.3353H12.6229L12.5852 35.7852C12.611 35.7798 12.6444 35.7743 12.6852 35.7689C12.726 35.7628 12.7722 35.7597 12.8239 35.7597ZM14.534 35.924C14.534 36.0451 14.5248 36.1532 14.5064 36.2484C14.4881 36.3437 14.4592 36.4243 14.4197 36.4903C14.3803 36.5562 14.3292 36.6066 14.2667 36.6413C14.2041 36.6753 14.1289 36.6923 14.0412 36.6923C13.9303 36.6923 13.8385 36.662 13.7657 36.6015C13.6936 36.5409 13.6395 36.4535 13.6035 36.3393C13.5681 36.2243 13.5504 36.0859 13.5504 35.924C13.5504 35.7648 13.5664 35.6281 13.5984 35.5138C13.631 35.3989 13.6834 35.3108 13.7555 35.2496C13.8276 35.1877 13.9228 35.1567 14.0412 35.1567C14.1534 35.1567 14.2459 35.1873 14.3187 35.2485C14.3915 35.3091 14.4456 35.3968 14.4809 35.5118C14.5163 35.6261 14.534 35.7635 14.534 35.924ZM13.7208 35.924C13.7208 36.0628 13.7313 36.1784 13.7524 36.2709C13.7735 36.3634 13.8075 36.4328 13.8545 36.479C13.9021 36.5246 13.9643 36.5474 14.0412 36.5474C14.118 36.5474 14.1799 36.5246 14.2269 36.479C14.2745 36.4335 14.3088 36.3644 14.3299 36.2719C14.3517 36.1794 14.3626 36.0634 14.3626 35.924C14.3626 35.7873 14.352 35.673 14.3309 35.5812C14.3099 35.4887 14.2758 35.4193 14.2289 35.373C14.182 35.3261 14.1194 35.3026 14.0412 35.3026C13.9629 35.3026 13.9004 35.3261 13.8534 35.373C13.8065 35.4193 13.7725 35.4887 13.7514 35.5812C13.731 35.673 13.7208 35.7873 13.7208 35.924ZM15.7298 35.924C15.7298 36.0451 15.7206 36.1532 15.7022 36.2484C15.6839 36.3437 15.655 36.4243 15.6155 36.4903C15.5761 36.5562 15.525 36.6066 15.4625 36.6413C15.3999 36.6753 15.3247 36.6923 15.237 36.6923C15.1261 36.6923 15.0343 36.662 14.9615 36.6015C14.8894 36.5409 14.8353 36.4535 14.7993 36.3393C14.7639 36.2243 14.7462 36.0859 14.7462 35.924C14.7462 35.7648 14.7622 35.6281 14.7942 35.5138C14.8268 35.3989 14.8792 35.3108 14.9513 35.2496C15.0234 35.1877 15.1186 35.1567 15.237 35.1567C15.3492 35.1567 15.4417 35.1873 15.5145 35.2485C15.5873 35.3091 15.6414 35.3968 15.6767 35.5118C15.7121 35.6261 15.7298 35.7635 15.7298 35.924ZM14.9166 35.924C14.9166 36.0628 14.9271 36.1784 14.9482 36.2709C14.9693 36.3634 15.0033 36.4328 15.0503 36.479C15.0979 36.5246 15.1601 36.5474 15.237 36.5474C15.3138 36.5474 15.3757 36.5246 15.4227 36.479C15.4703 36.4335 15.5046 36.3644 15.5257 36.2719C15.5475 36.1794 15.5584 36.0634 15.5584 35.924C15.5584 35.7873 15.5478 35.673 15.5267 35.5812C15.5057 35.4887 15.4716 35.4193 15.4247 35.373C15.3778 35.3261 15.3152 35.3026 15.237 35.3026C15.1587 35.3026 15.0962 35.3261 15.0492 35.373C15.0023 35.4193 14.9683 35.4887 14.9472 35.5812C14.9268 35.673 14.9166 35.7873 14.9166 35.924Z" fill="#212121"/>
<path d="M11.7873 44.375H11.622V43.318C11.622 43.2778 11.622 43.2435 11.622 43.2149C11.6227 43.1857 11.6234 43.1591 11.6241 43.1353C11.6254 43.1108 11.6271 43.086 11.6292 43.0608C11.6081 43.0826 11.5883 43.1013 11.57 43.117C11.5516 43.1319 11.5288 43.1506 11.5016 43.1731L11.3312 43.3098L11.2425 43.1945L11.6465 42.8833H11.7873V44.375ZM13.3382 43.6271C13.3382 43.7482 13.329 43.8563 13.3106 43.9516C13.2923 44.0468 13.2634 44.1274 13.2239 44.1934C13.1845 44.2594 13.1334 44.3097 13.0709 44.3444C13.0083 44.3784 12.9331 44.3954 12.8454 44.3954C12.7345 44.3954 12.6427 44.3651 12.5699 44.3046C12.4978 44.2441 12.4437 44.1567 12.4077 44.0424C12.3723 43.9274 12.3546 43.789 12.3546 43.6271C12.3546 43.4679 12.3706 43.3312 12.4026 43.2169C12.4352 43.102 12.4876 43.0139 12.5597 42.9527C12.6318 42.8908 12.727 42.8598 12.8454 42.8598C12.9576 42.8598 13.0501 42.8905 13.1229 42.9517C13.1957 43.0122 13.2498 43.1 13.2851 43.2149C13.3205 43.3292 13.3382 43.4666 13.3382 43.6271ZM12.525 43.6271C12.525 43.7659 12.5355 43.8815 12.5566 43.974C12.5777 44.0665 12.6117 44.1359 12.6587 44.1822C12.7063 44.2277 12.7685 44.2505 12.8454 44.2505C12.9222 44.2505 12.9841 44.2277 13.0311 44.1822C13.0787 44.1366 13.113 44.0675 13.1341 43.975C13.1559 43.8825 13.1668 43.7666 13.1668 43.6271C13.1668 43.4904 13.1562 43.3761 13.1351 43.2843C13.1141 43.1918 13.08 43.1224 13.0331 43.0761C12.9862 43.0292 12.9236 43.0057 12.8454 43.0057C12.7671 43.0057 12.7046 43.0292 12.6576 43.0761C12.6107 43.1224 12.5767 43.1918 12.5556 43.2843C12.5352 43.3761 12.525 43.4904 12.525 43.6271ZM14.534 43.6271C14.534 43.7482 14.5248 43.8563 14.5064 43.9516C14.4881 44.0468 14.4592 44.1274 14.4197 44.1934C14.3803 44.2594 14.3292 44.3097 14.2667 44.3444C14.2041 44.3784 14.1289 44.3954 14.0412 44.3954C13.9303 44.3954 13.8385 44.3651 13.7657 44.3046C13.6936 44.2441 13.6395 44.1567 13.6035 44.0424C13.5681 43.9274 13.5504 43.789 13.5504 43.6271C13.5504 43.4679 13.5664 43.3312 13.5984 43.2169C13.631 43.102 13.6834 43.0139 13.7555 42.9527C13.8276 42.8908 13.9228 42.8598 14.0412 42.8598C14.1534 42.8598 14.2459 42.8905 14.3187 42.9517C14.3915 43.0122 14.4456 43.1 14.4809 43.2149C14.5163 43.3292 14.534 43.4666 14.534 43.6271ZM13.7208 43.6271C13.7208 43.7659 13.7313 43.8815 13.7524 43.974C13.7735 44.0665 13.8075 44.1359 13.8545 44.1822C13.9021 44.2277 13.9643 44.2505 14.0412 44.2505C14.118 44.2505 14.1799 44.2277 14.2269 44.1822C14.2745 44.1366 14.3088 44.0675 14.3299 43.975C14.3517 43.8825 14.3626 43.7666 14.3626 43.6271C14.3626 43.4904 14.352 43.3761 14.3309 43.2843C14.3099 43.1918 14.2758 43.1224 14.2289 43.0761C14.182 43.0292 14.1194 43.0057 14.0412 43.0057C13.9629 43.0057 13.9004 43.0292 13.8534 43.0761C13.8065 43.1224 13.7725 43.1918 13.7514 43.2843C13.731 43.3761 13.7208 43.4904 13.7208 43.6271ZM15.7298 43.6271C15.7298 43.7482 15.7206 43.8563 15.7022 43.9516C15.6839 44.0468 15.655 44.1274 15.6155 44.1934C15.5761 44.2594 15.525 44.3097 15.4625 44.3444C15.3999 44.3784 15.3247 44.3954 15.237 44.3954C15.1261 44.3954 15.0343 44.3651 14.9615 44.3046C14.8894 44.2441 14.8353 44.1567 14.7993 44.0424C14.7639 43.9274 14.7462 43.789 14.7462 43.6271C14.7462 43.4679 14.7622 43.3312 14.7942 43.2169C14.8268 43.102 14.8792 43.0139 14.9513 42.9527C15.0234 42.8908 15.1186 42.8598 15.237 42.8598C15.3492 42.8598 15.4417 42.8905 15.5145 42.9517C15.5873 43.0122 15.6414 43.1 15.6767 43.2149C15.7121 43.3292 15.7298 43.4666 15.7298 43.6271ZM14.9166 43.6271C14.9166 43.7659 14.9271 43.8815 14.9482 43.974C14.9693 44.0665 15.0033 44.1359 15.0503 44.1822C15.0979 44.2277 15.1601 44.2505 15.237 44.2505C15.3138 44.2505 15.3757 44.2277 15.4227 44.1822C15.4703 44.1366 15.5046 44.0675 15.5257 43.975C15.5475 43.8825 15.5584 43.7666 15.5584 43.6271C15.5584 43.4904 15.5478 43.3761 15.5267 43.2843C15.5057 43.1918 15.4716 43.1224 15.4247 43.0761C15.3778 43.0292 15.3152 43.0057 15.237 43.0057C15.1587 43.0057 15.0962 43.0292 15.0492 43.0761C15.0023 43.1224 14.9683 43.1918 14.9472 43.2843C14.9268 43.3761 14.9166 43.4904 14.9166 43.6271Z" fill="#212121"/>
<path d="M12.8235 51.164C12.9249 51.164 13.0129 51.1814 13.0878 51.2161C13.1626 51.2501 13.2204 51.2997 13.2612 51.365C13.3027 51.4303 13.3235 51.5096 13.3235 51.6027C13.3235 51.7048 13.3013 51.7929 13.2571 51.867C13.2129 51.9405 13.1493 51.9973 13.0663 52.0374C12.9834 52.0769 12.884 52.0966 12.7684 52.0966C12.6909 52.0966 12.6188 52.0898 12.5521 52.0762C12.4854 52.0626 12.4293 52.0422 12.3837 52.015V51.8537C12.4334 51.8837 12.4936 51.9075 12.5643 51.9252C12.6351 51.9429 12.7038 51.9517 12.7704 51.9517C12.8459 51.9517 12.9119 51.9398 12.9684 51.916C13.0255 51.8915 13.0697 51.8548 13.101 51.8058C13.133 51.7561 13.149 51.6939 13.149 51.6191C13.149 51.5198 13.1184 51.4432 13.0572 51.3895C12.9966 51.3351 12.9007 51.3079 12.7694 51.3079C12.7273 51.3079 12.681 51.3113 12.6307 51.3181C12.5803 51.3249 12.5388 51.3324 12.5062 51.3405L12.4205 51.2844L12.4776 50.5845H13.2194V50.7396H12.6225L12.5847 51.1895C12.6106 51.1841 12.6439 51.1786 12.6847 51.1732C12.7256 51.1671 12.7718 51.164 12.8235 51.164ZM14.5335 51.3283C14.5335 51.4494 14.5244 51.5575 14.506 51.6527C14.4876 51.748 14.4587 51.8286 14.4193 51.8946C14.3798 51.9605 14.3288 52.0109 14.2662 52.0456C14.2036 52.0796 14.1285 52.0966 14.0407 52.0966C13.9299 52.0966 13.838 52.0663 13.7652 52.0058C13.6931 51.9452 13.6391 51.8578 13.603 51.7436C13.5676 51.6286 13.55 51.4902 13.55 51.3283C13.55 51.1691 13.5659 51.0324 13.5979 50.9181C13.6306 50.8032 13.6829 50.7151 13.755 50.6539C13.8271 50.592 13.9224 50.561 14.0407 50.561C14.153 50.561 14.2455 50.5916 14.3183 50.6528C14.391 50.7134 14.4451 50.8011 14.4805 50.9161C14.5159 51.0304 14.5335 51.1678 14.5335 51.3283ZM13.7204 51.3283C13.7204 51.467 13.7309 51.5827 13.752 51.6752C13.7731 51.7677 13.8071 51.8371 13.854 51.8833C13.9016 51.9289 13.9639 51.9517 14.0407 51.9517C14.1176 51.9517 14.1795 51.9289 14.2264 51.8833C14.274 51.8378 14.3084 51.7687 14.3295 51.6762C14.3512 51.5837 14.3621 51.4677 14.3621 51.3283C14.3621 51.1916 14.3516 51.0773 14.3305 50.9855C14.3094 50.893 14.2754 50.8236 14.2285 50.7773C14.1815 50.7304 14.119 50.7069 14.0407 50.7069C13.9625 50.7069 13.8999 50.7304 13.853 50.7773C13.8061 50.8236 13.772 50.893 13.751 50.9855C13.7306 51.0773 13.7204 51.1916 13.7204 51.3283ZM15.7293 51.3283C15.7293 51.4494 15.7202 51.5575 15.7018 51.6527C15.6834 51.748 15.6545 51.8286 15.6151 51.8946C15.5756 51.9605 15.5246 52.0109 15.462 52.0456C15.3994 52.0796 15.3243 52.0966 15.2365 52.0966C15.1257 52.0966 15.0338 52.0663 14.961 52.0058C14.8889 51.9452 14.8349 51.8578 14.7988 51.7436C14.7634 51.6286 14.7458 51.4902 14.7458 51.3283C14.7458 51.1691 14.7617 51.0324 14.7937 50.9181C14.8264 50.8032 14.8787 50.7151 14.9508 50.6539C15.0229 50.592 15.1182 50.561 15.2365 50.561C15.3488 50.561 15.4413 50.5916 15.5141 50.6528C15.5868 50.7134 15.6409 50.8011 15.6763 50.9161C15.7117 51.0304 15.7293 51.1678 15.7293 51.3283ZM14.9162 51.3283C14.9162 51.467 14.9267 51.5827 14.9478 51.6752C14.9689 51.7677 15.0029 51.8371 15.0498 51.8833C15.0974 51.9289 15.1597 51.9517 15.2365 51.9517C15.3134 51.9517 15.3753 51.9289 15.4222 51.8833C15.4698 51.8378 15.5042 51.7687 15.5253 51.6762C15.547 51.5837 15.5579 51.4677 15.5579 51.3283C15.5579 51.1916 15.5474 51.0773 15.5263 50.9855C15.5052 50.893 15.4712 50.8236 15.4243 50.7773C15.3773 50.7304 15.3148 50.7069 15.2365 50.7069C15.1583 50.7069 15.0957 50.7304 15.0488 50.7773C15.0019 50.8236 14.9679 50.893 14.9468 50.9855C14.9264 51.0773 14.9162 51.1916 14.9162 51.3283Z" fill="#212121"/>
<path d="M12.9827 59.7773H12.8174V58.7203C12.8174 58.6802 12.8174 58.6458 12.8174 58.6173C12.8181 58.588 12.8187 58.5615 12.8194 58.5377C12.8208 58.5132 12.8225 58.4884 12.8245 58.4632C12.8034 58.485 12.7837 58.5037 12.7653 58.5193C12.747 58.5343 12.7242 58.553 12.697 58.5754L12.5266 58.7121L12.4378 58.5968L12.8419 58.2857H12.9827V59.7773ZM14.5335 59.0295C14.5335 59.1505 14.5244 59.2587 14.506 59.3539C14.4876 59.4491 14.4587 59.5297 14.4193 59.5957C14.3798 59.6617 14.3288 59.712 14.2662 59.7467C14.2036 59.7807 14.1285 59.7977 14.0407 59.7977C13.9299 59.7977 13.838 59.7675 13.7652 59.7069C13.6931 59.6464 13.6391 59.559 13.603 59.4447C13.5676 59.3298 13.55 59.1913 13.55 59.0295C13.55 58.8703 13.5659 58.7336 13.5979 58.6193C13.6306 58.5043 13.6829 58.4163 13.755 58.355C13.8271 58.2931 13.9224 58.2622 14.0407 58.2622C14.153 58.2622 14.2455 58.2928 14.3183 58.354C14.391 58.4146 14.4451 58.5023 14.4805 58.6173C14.5159 58.7315 14.5335 58.8689 14.5335 59.0295ZM13.7204 59.0295C13.7204 59.1682 13.7309 59.2839 13.752 59.3764C13.7731 59.4689 13.8071 59.5383 13.854 59.5845C13.9016 59.6301 13.9639 59.6529 14.0407 59.6529C14.1176 59.6529 14.1795 59.6301 14.2264 59.5845C14.274 59.5389 14.3084 59.4699 14.3295 59.3774C14.3512 59.2849 14.3621 59.1689 14.3621 59.0295C14.3621 58.8927 14.3516 58.7785 14.3305 58.6866C14.3094 58.5941 14.2754 58.5247 14.2285 58.4785C14.1815 58.4316 14.119 58.4081 14.0407 58.4081C13.9625 58.4081 13.8999 58.4316 13.853 58.4785C13.8061 58.5247 13.772 58.5941 13.751 58.6866C13.7306 58.7785 13.7204 58.8927 13.7204 59.0295ZM15.7293 59.0295C15.7293 59.1505 15.7202 59.2587 15.7018 59.3539C15.6834 59.4491 15.6545 59.5297 15.6151 59.5957C15.5756 59.6617 15.5246 59.712 15.462 59.7467C15.3994 59.7807 15.3243 59.7977 15.2365 59.7977C15.1257 59.7977 15.0338 59.7675 14.961 59.7069C14.8889 59.6464 14.8349 59.559 14.7988 59.4447C14.7634 59.3298 14.7458 59.1913 14.7458 59.0295C14.7458 58.8703 14.7617 58.7336 14.7937 58.6193C14.8264 58.5043 14.8787 58.4163 14.9508 58.355C15.0229 58.2931 15.1182 58.2622 15.2365 58.2622C15.3488 58.2622 15.4413 58.2928 15.5141 58.354C15.5868 58.4146 15.6409 58.5023 15.6763 58.6173C15.7117 58.7315 15.7293 58.8689 15.7293 59.0295ZM14.9162 59.0295C14.9162 59.1682 14.9267 59.2839 14.9478 59.3764C14.9689 59.4689 15.0029 59.5383 15.0498 59.5845C15.0974 59.6301 15.1597 59.6529 15.2365 59.6529C15.3134 59.6529 15.3753 59.6301 15.4222 59.5845C15.4698 59.5389 15.5042 59.4699 15.5253 59.3774C15.547 59.2849 15.5579 59.1689 15.5579 59.0295C15.5579 58.8927 15.5474 58.7785 15.5263 58.6866C15.5052 58.5941 15.4712 58.5247 15.4243 58.4785C15.3773 58.4316 15.3148 58.4081 15.2365 58.4081C15.1583 58.4081 15.0957 58.4316 15.0488 58.4785C15.0019 58.5247 14.9679 58.5941 14.9468 58.6866C14.9264 58.7785 14.9162 58.8927 14.9162 59.0295Z" fill="#212121"/>
<path d="M15.7293 66.7306C15.7293 66.8517 15.7202 66.9599 15.7018 67.0551C15.6834 67.1503 15.6545 67.2309 15.6151 67.2969C15.5756 67.3629 15.5246 67.4132 15.462 67.4479C15.3994 67.4819 15.3243 67.4989 15.2365 67.4989C15.1257 67.4989 15.0338 67.4687 14.961 67.4081C14.8889 67.3476 14.8349 67.2602 14.7988 67.1459C14.7634 67.0309 14.7458 66.8925 14.7458 66.7306C14.7458 66.5715 14.7617 66.4347 14.7937 66.3205C14.8264 66.2055 14.8787 66.1174 14.9508 66.0562C15.0229 65.9943 15.1182 65.9634 15.2365 65.9634C15.3488 65.9634 15.4413 65.994 15.5141 66.0552C15.5868 66.1157 15.6409 66.2035 15.6763 66.3184C15.7117 66.4327 15.7293 66.5701 15.7293 66.7306ZM14.9162 66.7306C14.9162 66.8694 14.9267 66.985 14.9478 67.0775C14.9689 67.17 15.0029 67.2394 15.0498 67.2857C15.0974 67.3313 15.1597 67.354 15.2365 67.354C15.3134 67.354 15.3753 67.3313 15.4222 67.2857C15.4698 67.2401 15.5042 67.1711 15.5253 67.0786C15.547 66.986 15.5579 66.8701 15.5579 66.7306C15.5579 66.5939 15.5474 66.4796 15.5263 66.3878C15.5052 66.2953 15.4712 66.2259 15.4243 66.1797C15.3773 66.1327 15.3148 66.1093 15.2365 66.1093C15.1583 66.1093 15.0957 66.1327 15.0488 66.1797C15.0019 66.2259 14.9679 66.2953 14.9468 66.3878C14.9264 66.4796 14.9162 66.5939 14.9162 66.7306Z" fill="#212121"/>
<path d="M27.821 72.2051H27.6557V71.148C27.6557 71.1079 27.6557 71.0736 27.6557 71.045C27.6564 71.0157 27.6571 70.9892 27.6578 70.9654C27.6591 70.9409 27.6608 70.9161 27.6629 70.8909C27.6418 70.9127 27.622 70.9314 27.6037 70.947C27.5853 70.962 27.5625 70.9807 27.5353 71.0032L27.3649 71.1399L27.2762 71.0246L27.6802 70.7134H27.821V72.2051Z" fill="#212121"/>
<path d="M19.5569 71.4572C19.5569 71.5783 19.5477 71.6864 19.5294 71.7817C19.511 71.8769 19.4821 71.9575 19.4427 72.0235C19.4032 72.0894 19.3522 72.1398 19.2896 72.1745C19.227 72.2085 19.1519 72.2255 19.0641 72.2255C18.9532 72.2255 18.8614 72.1952 18.7886 72.1347C18.7165 72.0741 18.6625 71.9867 18.6264 71.8725C18.591 71.7575 18.5734 71.6191 18.5734 71.4572C18.5734 71.298 18.5893 71.1613 18.6213 71.047C18.654 70.9321 18.7063 70.844 18.7784 70.7828C18.8505 70.7209 18.9458 70.6899 19.0641 70.6899C19.1764 70.6899 19.2689 70.7205 19.3416 70.7817C19.4144 70.8423 19.4685 70.93 19.5039 71.045C19.5392 71.1593 19.5569 71.2967 19.5569 71.4572ZM18.7437 71.4572C18.7437 71.596 18.7543 71.7116 18.7754 71.8041C18.7965 71.8966 18.8305 71.966 18.8774 72.0122C18.925 72.0578 18.9873 72.0806 19.0641 72.0806C19.141 72.0806 19.2029 72.0578 19.2498 72.0122C19.2974 71.9667 19.3318 71.8976 19.3529 71.8051C19.3746 71.7126 19.3855 71.5966 19.3855 71.4572C19.3855 71.3205 19.375 71.2062 19.3539 71.1144C19.3328 71.0219 19.2988 70.9525 19.2519 70.9062C19.2049 70.8593 19.1423 70.8358 19.0641 70.8358C18.9859 70.8358 18.9233 70.8593 18.8764 70.9062C18.8294 70.9525 18.7954 71.0219 18.7744 71.1144C18.7539 71.2062 18.7437 71.3205 18.7437 71.4572Z" fill="#212121"/>
<path d="M36.788 72.2051H35.8106V72.0633L36.2095 71.6582C36.2837 71.5834 36.3459 71.5167 36.3962 71.4582C36.4472 71.3997 36.486 71.3422 36.5125 71.2858C36.5391 71.2286 36.5523 71.1661 36.5523 71.098C36.5523 71.0137 36.5272 70.9494 36.4768 70.9052C36.4272 70.8603 36.3615 70.8379 36.2799 70.8379C36.2085 70.8379 36.1452 70.8501 36.0901 70.8746C36.035 70.8991 35.9786 70.9338 35.9208 70.9787L35.83 70.8644C35.8694 70.8311 35.9123 70.8015 35.9585 70.7756C36.0054 70.7498 36.0554 70.7294 36.1085 70.7144C36.1622 70.6994 36.2194 70.692 36.2799 70.692C36.3717 70.692 36.451 70.7079 36.5176 70.7399C36.5843 70.7719 36.6357 70.8175 36.6717 70.8766C36.7084 70.9358 36.7268 71.0062 36.7268 71.0878C36.7268 71.1667 36.7112 71.2402 36.6799 71.3082C36.6486 71.3756 36.6047 71.4426 36.5483 71.5092C36.4918 71.5752 36.4258 71.6453 36.3503 71.7194L36.0259 72.0428V72.05H36.788V72.2051Z" fill="#212121"/>
<path d="M45.6138 71.0613C45.6138 71.128 45.6009 71.1858 45.575 71.2348C45.5492 71.2837 45.5131 71.3239 45.4669 71.3552C45.4206 71.3858 45.3662 71.4072 45.3036 71.4194V71.4276C45.422 71.4426 45.5107 71.4807 45.5699 71.5419C45.6298 71.6031 45.6597 71.6834 45.6597 71.7827C45.6597 71.8691 45.6393 71.9456 45.5985 72.0122C45.5584 72.0789 45.4965 72.1313 45.4128 72.1694C45.3298 72.2068 45.2233 72.2255 45.0934 72.2255C45.0145 72.2255 44.9414 72.219 44.8741 72.2061C44.8074 72.1939 44.7435 72.1731 44.6822 72.1439V71.9847C44.7441 72.0153 44.8115 72.0394 44.8843 72.0571C44.957 72.0741 45.0275 72.0826 45.0955 72.0826C45.2315 72.0826 45.3298 72.0558 45.3903 72.002C45.4509 71.9476 45.4811 71.8735 45.4811 71.7796C45.4811 71.715 45.4641 71.663 45.4301 71.6235C45.3968 71.5834 45.3485 71.5541 45.2852 71.5358C45.2227 71.5167 45.1472 71.5072 45.0587 71.5072H44.9098V71.3623H45.0598C45.1407 71.3623 45.2094 71.3504 45.2659 71.3266C45.3223 71.3028 45.3652 71.2695 45.3944 71.2266C45.4244 71.1831 45.4393 71.1317 45.4393 71.0725C45.4393 70.997 45.4141 70.9389 45.3638 70.8981C45.3135 70.8566 45.2451 70.8358 45.1587 70.8358C45.1057 70.8358 45.0574 70.8413 45.0138 70.8521C44.9703 70.863 44.9295 70.878 44.8914 70.897C44.8533 70.9161 44.8152 70.9382 44.7771 70.9634L44.6914 70.847C44.7458 70.8049 44.8122 70.7685 44.8904 70.7379C44.9686 70.7073 45.0574 70.692 45.1567 70.692C45.3091 70.692 45.4233 70.7267 45.4995 70.796C45.5757 70.8654 45.6138 70.9538 45.6138 71.0613Z" fill="#212121"/>
<path d="M54.3625 71.8592H54.1391V72.2051H53.9738V71.8592H53.2524V71.7164L53.9625 70.7052H54.1391V71.7061H54.3625V71.8592ZM53.9738 71.7061V71.2184C53.9738 71.181 53.9741 71.1474 53.9748 71.1174C53.9755 71.0868 53.9765 71.0586 53.9779 71.0327C53.9792 71.0062 53.9802 70.981 53.9809 70.9572C53.9823 70.9334 53.9833 70.91 53.984 70.8868H53.9758C53.9629 70.914 53.9479 70.943 53.9309 70.9736C53.9146 71.0035 53.8979 71.0304 53.8809 71.0542L53.4208 71.7061H53.9738Z" fill="#212121"/>
<path d="M62.4021 71.2929C62.5034 71.2929 62.5915 71.3103 62.6663 71.345C62.7412 71.379 62.799 71.4286 62.8398 71.4939C62.8813 71.5592 62.902 71.6385 62.902 71.7317C62.902 71.8337 62.8799 71.9218 62.8357 71.9959C62.7915 72.0694 62.7279 72.1262 62.6449 72.1663C62.5619 72.2058 62.4626 72.2255 62.347 72.2255C62.2694 72.2255 62.1973 72.2187 62.1307 72.2051C62.064 72.1915 62.0079 72.1711 61.9623 72.1439V71.9827C62.012 72.0126 62.0722 72.0364 62.1429 72.0541C62.2137 72.0718 62.2824 72.0806 62.349 72.0806C62.4245 72.0806 62.4905 72.0687 62.547 72.0449C62.6041 72.0204 62.6483 71.9837 62.6796 71.9347C62.7116 71.885 62.7275 71.8228 62.7275 71.748C62.7275 71.6487 62.6969 71.5721 62.6357 71.5184C62.5752 71.464 62.4793 71.4368 62.348 71.4368C62.3058 71.4368 62.2596 71.4402 62.2092 71.447C62.1589 71.4538 62.1174 71.4613 62.0848 71.4694L61.999 71.4133L62.0562 70.7134H62.7979V70.8685H62.2011L62.1633 71.3184C62.1892 71.313 62.2225 71.3075 62.2633 71.3021C62.3041 71.296 62.3504 71.2929 62.4021 71.2929Z" fill="#212121"/>
<path d="M70.5651 71.5674C70.5651 71.4776 70.5713 71.3899 70.5835 71.3041C70.5964 71.2184 70.6178 71.1389 70.6478 71.0654C70.6777 70.9913 70.7185 70.9263 70.7702 70.8705C70.8219 70.8147 70.8862 70.7712 70.9631 70.7399C71.0406 70.7079 71.1334 70.692 71.2416 70.692C71.2722 70.692 71.3052 70.6937 71.3406 70.6971C71.3759 70.6998 71.4052 70.7045 71.4283 70.7113V70.8573C71.4031 70.8484 71.3742 70.8419 71.3416 70.8379C71.3096 70.8338 71.2773 70.8317 71.2447 70.8317C71.1181 70.8317 71.0185 70.8593 70.9457 70.9144C70.8736 70.9695 70.8216 71.0443 70.7896 71.1389C70.7576 71.2327 70.7393 71.3385 70.7345 71.4562H70.7457C70.7668 71.4222 70.7937 71.3916 70.8263 71.3643C70.859 71.3365 70.8984 71.3143 70.9447 71.298C70.9916 71.2817 71.046 71.2735 71.1079 71.2735C71.195 71.2735 71.2708 71.2912 71.3355 71.3266C71.4008 71.362 71.4511 71.4133 71.4865 71.4807C71.5225 71.548 71.5405 71.6296 71.5405 71.7255C71.5405 71.8282 71.5215 71.917 71.4834 71.9918C71.4453 72.0667 71.3909 72.1245 71.3202 72.1653C71.2501 72.2054 71.1664 72.2255 71.0692 72.2255C70.9964 72.2255 70.9294 72.2115 70.8682 72.1837C70.8069 72.1558 70.7535 72.1143 70.708 72.0592C70.6631 72.0041 70.6281 71.9357 70.6029 71.8541C70.5777 71.7718 70.5651 71.6762 70.5651 71.5674ZM71.0671 72.0826C71.1596 72.0826 71.2338 72.0531 71.2896 71.9939C71.3453 71.9347 71.3732 71.8452 71.3732 71.7255C71.3732 71.6276 71.3484 71.55 71.2987 71.4929C71.2491 71.4358 71.1743 71.4072 71.0743 71.4072C71.0062 71.4072 70.9471 71.4215 70.8967 71.45C70.8464 71.4779 70.8073 71.5133 70.7794 71.5562C70.7515 71.599 70.7376 71.6425 70.7376 71.6868C70.7376 71.7317 70.744 71.7772 70.757 71.8235C70.7706 71.8697 70.791 71.9126 70.8182 71.952C70.8454 71.9915 70.8797 72.0231 70.9212 72.0469C70.9627 72.0707 71.0113 72.0826 71.0671 72.0826Z" fill="#212121"/>
<path d="M79.1011 72.2051L79.7132 70.8685H78.9001V70.7134H79.8949V70.844L79.2868 72.2051H79.1011Z" fill="#212121"/>
<path d="M18.3176 69.6809C18.3176 69.7531 18.3761 69.8115 18.4482 69.8115C18.5204 69.8115 18.5788 69.7531 18.5788 69.6809H18.3176ZM18.4482 19.2695H18.3176V69.6809H18.4482H18.5788V19.2695H18.4482Z" fill="#D4D4D4"/>
<path d="M18.4482 69.6816H78.7852" stroke="#D4D4D4" stroke-width="0.261199"/>
<path d="M35.6869 46.6961C36.1197 46.6961 36.4705 46.3453 36.4705 45.9125C36.4705 45.4797 36.1197 45.1289 35.6869 45.1289C35.2541 45.1289 34.9033 45.4797 34.9033 45.9125C34.9033 46.3453 35.2541 46.6961 35.6869 46.6961Z" fill="#FFBA00"/>
<path d="M44.3061 32.3309C44.7388 32.3309 45.0897 31.98 45.0897 31.5473C45.0897 31.1145 44.7388 30.7637 44.3061 30.7637C43.8733 30.7637 43.5225 31.1145 43.5225 31.5473C43.5225 31.98 43.8733 32.3309 44.3061 32.3309Z" fill="#FFBA00"/>
<path d="M52.9262 40.1649C53.3589 40.1649 53.7098 39.814 53.7098 39.3813C53.7098 38.9485 53.3589 38.5977 52.9262 38.5977C52.4934 38.5977 52.1426 38.9485 52.1426 39.3813C52.1426 39.814 52.4934 40.1649 52.9262 40.1649Z" fill="#FFBA00"/>
<path d="M61.5453 57.4051C61.9781 57.4051 62.3289 57.0543 62.3289 56.6215C62.3289 56.1887 61.9781 55.8379 61.5453 55.8379C61.1125 55.8379 60.7617 56.1887 60.7617 56.6215C60.7617 57.0543 61.1125 57.4051 61.5453 57.4051Z" fill="#FFBA00"/>
<path d="M35.6846 45C36.3336 45 36.8602 45.5258 36.8604 46.1748C36.8604 46.824 36.3337 47.3506 35.6846 47.3506C35.0356 47.3504 34.5098 46.8238 34.5098 46.1748C34.5099 45.5259 35.0357 45.0002 35.6846 45Z" fill="white" stroke="#FFBA00" stroke-width="0.261199"/>
<path d="M35.685 46.9598C36.1177 46.9598 36.4686 46.6089 36.4686 46.1762C36.4686 45.7434 36.1177 45.3926 35.685 45.3926C35.2522 45.3926 34.9014 45.7434 34.9014 46.1762C34.9014 46.6089 35.2522 46.9598 35.685 46.9598Z" fill="#FFBA00"/>
<path d="M44.3047 30.373C44.9537 30.373 45.4803 30.8989 45.4805 31.5479C45.4805 32.197 44.9538 32.7236 44.3047 32.7236C43.6557 32.7235 43.1299 32.1969 43.1299 31.5479C43.1301 30.899 43.6558 30.3732 44.3047 30.373Z" fill="white" stroke="#FFBA00" stroke-width="0.261199"/>
<path d="M44.3051 32.3328C44.7379 32.3328 45.0887 31.982 45.0887 31.5492C45.0887 31.1165 44.7379 30.7656 44.3051 30.7656C43.8723 30.7656 43.5215 31.1165 43.5215 31.5492C43.5215 31.982 43.8723 32.3328 44.3051 32.3328Z" fill="#FFBA00"/>
<path d="M52.9248 38.207C53.5738 38.207 54.1004 38.7328 54.1006 39.3818C54.1006 40.031 53.574 40.5576 52.9248 40.5576C52.2758 40.5574 51.75 40.0309 51.75 39.3818C51.7502 38.7329 52.2759 38.2072 52.9248 38.207Z" fill="white" stroke="#FFBA00" stroke-width="0.261199"/>
<path d="M52.9252 40.1668C53.358 40.1668 53.7088 39.816 53.7088 39.3832C53.7088 38.9504 53.358 38.5996 52.9252 38.5996C52.4924 38.5996 52.1416 38.9504 52.1416 39.3832C52.1416 39.816 52.4924 40.1668 52.9252 40.1668Z" fill="#FFBA00"/>
<path d="M61.5449 55.4453C62.194 55.4453 62.7205 55.9711 62.7207 56.6201C62.7207 57.2693 62.1941 57.7959 61.5449 57.7959C60.8959 57.7957 60.3701 57.2692 60.3701 56.6201C60.3703 55.9712 60.896 55.4455 61.5449 55.4453Z" fill="white" stroke="#FFBA00" stroke-width="0.261199"/>
<path d="M61.5453 57.4051C61.9781 57.4051 62.3289 57.0543 62.3289 56.6215C62.3289 56.1887 61.9781 55.8379 61.5453 55.8379C61.1125 55.8379 60.7617 56.1887 60.7617 56.6215C60.7617 57.0543 61.1125 57.4051 61.5453 57.4051Z" fill="#FFBA00"/>
<path d="M70.1631 36.1152C70.8121 36.1152 71.3387 36.641 71.3389 37.29C71.3389 37.9392 70.8122 38.4658 70.1631 38.4658C69.5141 38.4656 68.9883 37.9391 68.9883 37.29C68.9885 36.6411 69.5142 36.1154 70.1631 36.1152Z" fill="white" stroke="#FFBA00" stroke-width="0.261199"/>
<path d="M70.1635 38.075C70.5962 38.075 70.9471 37.7242 70.9471 37.2914C70.9471 36.8586 70.5962 36.5078 70.1635 36.5078C69.7307 36.5078 69.3799 36.8586 69.3799 37.2914C69.3799 37.7242 69.7307 38.075 70.1635 38.075Z" fill="#FFBA00"/>
<path d="M78.7832 24.8867C79.4322 24.8867 79.9588 25.4125 79.959 26.0615C79.959 26.7107 79.4324 27.2373 78.7832 27.2373C78.1342 27.2371 77.6084 26.7106 77.6084 26.0615C77.6086 25.4126 78.1343 24.8869 78.7832 24.8867Z" fill="white" stroke="#FFBA00" stroke-width="0.261199"/>
<path d="M78.7836 26.8465C79.2164 26.8465 79.5672 26.4957 79.5672 26.0629C79.5672 25.6301 79.2164 25.2793 78.7836 25.2793C78.3508 25.2793 78 25.6301 78 26.0629C78 26.4957 78.3508 26.8465 78.7836 26.8465Z" fill="#FFBA00"/>
<path d="M78.7832 24.8867C79.4322 24.8867 79.9588 25.4125 79.959 26.0615C79.959 26.7107 79.4324 27.2373 78.7832 27.2373C78.1342 27.2371 77.6084 26.7106 77.6084 26.0615C77.6086 25.4126 78.1343 24.8869 78.7832 24.8867Z" fill="white" stroke="#FFBA00" stroke-width="0.261199"/>
<path d="M78.7836 26.8465C79.2164 26.8465 79.5672 26.4957 79.5672 26.0629C79.5672 25.6301 79.2164 25.2793 78.7836 25.2793C78.3508 25.2793 78 25.6301 78 26.0629C78 26.4957 78.3508 26.8465 78.7836 26.8465Z" fill="#FFBA00"/>
<rect x="23.0198" y="30.1096" width="7.87319" height="3.91799" rx="1.95899" fill="white"/>
<rect x="23.0198" y="30.1096" width="7.87319" height="3.91799" rx="1.95899" stroke="#D6D6D6" stroke-width="0.261199"/>
<path d="M25.1897 32.5684H25.0244V31.5113C25.0244 31.4712 25.0244 31.4368 25.0244 31.4083C25.025 31.379 25.0257 31.3525 25.0264 31.3287C25.0278 31.3042 25.0295 31.2794 25.0315 31.2542C25.0104 31.276 24.9907 31.2947 24.9723 31.3103C24.954 31.3253 24.9312 31.344 24.904 31.3664L24.7336 31.5032L24.6448 31.3879L25.0489 31.0767H25.1897V32.5684ZM26.2263 31.6562C26.3276 31.6562 26.4157 31.6735 26.4906 31.7082C26.5654 31.7422 26.6232 31.7919 26.664 31.8572C26.7055 31.9225 26.7262 32.0017 26.7262 32.0949C26.7262 32.197 26.7041 32.2851 26.6599 32.3592C26.6157 32.4327 26.5521 32.4895 26.4691 32.5296C26.3861 32.569 26.2868 32.5888 26.1712 32.5888C26.0937 32.5888 26.0215 32.582 25.9549 32.5684C25.8882 32.5548 25.8321 32.5343 25.7865 32.5071V32.3459C25.8362 32.3759 25.8964 32.3997 25.9671 32.4174C26.0379 32.435 26.1066 32.4439 26.1732 32.4439C26.2487 32.4439 26.3147 32.432 26.3712 32.4082C26.4283 32.3837 26.4725 32.347 26.5038 32.298C26.5358 32.2483 26.5518 32.1861 26.5518 32.1113C26.5518 32.012 26.5212 31.9354 26.4599 31.8817C26.3994 31.8273 26.3035 31.8001 26.1722 31.8001C26.13 31.8001 26.0838 31.8035 26.0335 31.8103C25.9831 31.8171 25.9416 31.8246 25.909 31.8327L25.8233 31.7766L25.8804 31.0767H26.6222V31.2318H26.0253L25.9875 31.6817C26.0134 31.6763 26.0467 31.6708 26.0875 31.6654C26.1283 31.6593 26.1746 31.6562 26.2263 31.6562ZM27.4435 31.0552C27.5299 31.0552 27.6064 31.0688 27.6731 31.0961C27.7397 31.1233 27.7918 31.1634 27.8292 31.2165C27.8673 31.2688 27.8863 31.3334 27.8863 31.4103C27.8863 31.4708 27.8731 31.5239 27.8465 31.5695C27.8207 31.6144 27.7857 31.6538 27.7414 31.6878C27.6972 31.7212 27.6483 31.7511 27.5945 31.7776C27.6585 31.8069 27.7159 31.8399 27.767 31.8766C27.8187 31.9133 27.8595 31.9565 27.8894 32.0062C27.9193 32.0558 27.9343 32.1147 27.9343 32.1827C27.9343 32.2663 27.9139 32.3388 27.8731 32.4C27.8329 32.4605 27.7765 32.5071 27.7037 32.5398C27.6309 32.5724 27.5455 32.5888 27.4476 32.5888C27.3422 32.5888 27.2524 32.5731 27.1782 32.5418C27.1048 32.5099 27.0487 32.4643 27.0099 32.4051C26.9718 32.3453 26.9528 32.2735 26.9528 32.1898C26.9528 32.1211 26.9674 32.0616 26.9966 32.0113C27.0259 31.9603 27.0646 31.9164 27.1129 31.8797C27.1612 31.8429 27.2139 31.812 27.2711 31.7868C27.2214 31.7596 27.1759 31.7286 27.1344 31.694C27.0936 31.6593 27.0609 31.6188 27.0364 31.5725C27.0126 31.5256 27.0007 31.4712 27.0007 31.4093C27.0007 31.3338 27.0198 31.2698 27.0578 31.2175C27.0966 31.1644 27.1493 31.1243 27.216 31.0971C27.2833 31.0692 27.3592 31.0552 27.4435 31.0552ZM27.1191 32.1908C27.1191 32.267 27.1459 32.3299 27.1997 32.3796C27.2534 32.4286 27.3347 32.4531 27.4435 32.4531C27.5469 32.4531 27.6268 32.4286 27.6833 32.3796C27.7397 32.3299 27.768 32.265 27.768 32.1847C27.768 32.1351 27.7551 32.0915 27.7292 32.0541C27.7034 32.016 27.6666 31.982 27.619 31.9521C27.5714 31.9222 27.5153 31.895 27.4507 31.8705L27.4139 31.8572C27.3514 31.8831 27.298 31.912 27.2537 31.9439C27.2102 31.9752 27.1769 32.0109 27.1538 32.0511C27.1306 32.0912 27.1191 32.1378 27.1191 32.1908ZM27.4415 31.194C27.3612 31.194 27.2956 31.2134 27.2446 31.2522C27.1935 31.2903 27.168 31.3453 27.168 31.4175C27.168 31.4691 27.1803 31.513 27.2048 31.5491C27.2299 31.5844 27.2639 31.6151 27.3068 31.6409C27.3497 31.6661 27.3976 31.6895 27.4507 31.7113C27.5024 31.6895 27.5483 31.6657 27.5884 31.6399C27.6285 31.6134 27.6602 31.5821 27.6833 31.546C27.7064 31.51 27.718 31.4668 27.718 31.4164C27.718 31.3443 27.6925 31.2892 27.6415 31.2511C27.5911 31.213 27.5245 31.194 27.4415 31.194ZM29.1321 31.8205C29.1321 31.9415 29.1229 32.0497 29.1046 32.1449C29.0862 32.2402 29.0573 32.3208 29.0179 32.3867C28.9784 32.4527 28.9274 32.5031 28.8648 32.5378C28.8022 32.5718 28.7271 32.5888 28.6393 32.5888C28.5284 32.5888 28.4366 32.5585 28.3638 32.498C28.2917 32.4374 28.2377 32.35 28.2016 32.2357C28.1662 32.1208 28.1486 31.9824 28.1486 31.8205C28.1486 31.6613 28.1645 31.5246 28.1965 31.4103C28.2292 31.2954 28.2815 31.2073 28.3536 31.146C28.4257 31.0842 28.521 31.0532 28.6393 31.0532C28.7516 31.0532 28.8441 31.0838 28.9168 31.145C28.9896 31.2056 29.0437 31.2933 29.0791 31.4083C29.1144 31.5225 29.1321 31.6599 29.1321 31.8205ZM28.3189 31.8205C28.3189 31.9592 28.3295 32.0749 28.3506 32.1674C28.3717 32.2599 28.4057 32.3293 28.4526 32.3755C28.5002 32.4211 28.5625 32.4439 28.6393 32.4439C28.7162 32.4439 28.7781 32.4211 28.825 32.3755C28.8726 32.3299 28.907 32.2609 28.9281 32.1684C28.9498 32.0759 28.9607 31.9599 28.9607 31.8205C28.9607 31.6838 28.9502 31.5695 28.9291 31.4776C28.908 31.3851 28.874 31.3158 28.8271 31.2695C28.7801 31.2226 28.7175 31.1991 28.6393 31.1991C28.5611 31.1991 28.4985 31.2226 28.4516 31.2695C28.4046 31.3158 28.3706 31.3851 28.3496 31.4776C28.3291 31.5695 28.3189 31.6838 28.3189 31.8205Z" fill="#212121"/>
<rect x="31.6389" y="40.0354" width="7.87319" height="3.91799" rx="1.95899" fill="white"/>
<rect x="31.6389" y="40.0354" width="7.87319" height="3.91799" rx="1.95899" stroke="#D6D6D6" stroke-width="0.261199"/>
<path d="M33.8088 42.4941H33.6435V41.4371C33.6435 41.397 33.6435 41.3626 33.6435 41.334C33.6442 41.3048 33.6449 41.2783 33.6455 41.2545C33.6469 41.23 33.6486 41.2052 33.6506 41.18C33.6296 41.2017 33.6098 41.2205 33.5915 41.2361C33.5731 41.2511 33.5503 41.2698 33.5231 41.2922L33.3527 41.4289L33.264 41.3136L33.668 41.0024H33.8088V42.4941ZM34.3894 41.8564C34.3894 41.7667 34.3955 41.6789 34.4077 41.5932C34.4206 41.5075 34.4421 41.4279 34.472 41.3545C34.5019 41.2803 34.5427 41.2154 34.5944 41.1596C34.6461 41.1038 34.7104 41.0603 34.7873 41.029C34.8648 40.997 34.9577 40.981 35.0658 40.981C35.0964 40.981 35.1294 40.9827 35.1648 40.9861C35.2002 40.9888 35.2294 40.9936 35.2525 41.0004V41.1463C35.2274 41.1375 35.1985 41.131 35.1658 41.1269C35.1338 41.1228 35.1015 41.1208 35.0689 41.1208C34.9424 41.1208 34.8427 41.1484 34.7699 41.2035C34.6978 41.2585 34.6458 41.3334 34.6138 41.4279C34.5819 41.5218 34.5635 41.6276 34.5587 41.7452H34.5699C34.591 41.7112 34.6179 41.6806 34.6506 41.6534C34.6832 41.6255 34.7227 41.6034 34.7689 41.5871C34.8158 41.5708 34.8703 41.5626 34.9322 41.5626C35.0192 41.5626 35.0951 41.5803 35.1597 41.6157C35.225 41.651 35.2753 41.7024 35.3107 41.7697C35.3467 41.8371 35.3648 41.9187 35.3648 42.0146C35.3648 42.1173 35.3457 42.2061 35.3076 42.2809C35.2695 42.3557 35.2151 42.4135 35.1444 42.4543C35.0743 42.4945 34.9907 42.5145 34.8934 42.5145C34.8206 42.5145 34.7536 42.5006 34.6924 42.4727C34.6312 42.4448 34.5778 42.4033 34.5322 42.3482C34.4873 42.2931 34.4523 42.2248 34.4271 42.1432C34.4019 42.0608 34.3894 41.9653 34.3894 41.8564ZM34.8913 42.3717C34.9839 42.3717 35.058 42.3421 35.1138 42.2829C35.1695 42.2238 35.1974 42.1343 35.1974 42.0146C35.1974 41.9166 35.1726 41.8391 35.123 41.782C35.0733 41.7248 34.9985 41.6963 34.8985 41.6963C34.8305 41.6963 34.7713 41.7105 34.721 41.7391C34.6706 41.767 34.6315 41.8024 34.6036 41.8452C34.5757 41.8881 34.5618 41.9316 34.5618 41.9758C34.5618 42.0207 34.5682 42.0663 34.5812 42.1125C34.5948 42.1588 34.6152 42.2017 34.6424 42.2411C34.6696 42.2806 34.7039 42.3122 34.7454 42.336C34.7869 42.3598 34.8356 42.3717 34.8913 42.3717ZM36.5493 41.6381C36.5493 41.7286 36.5429 41.8167 36.53 41.9024C36.5177 41.9881 36.4963 42.068 36.4657 42.1421C36.4358 42.2163 36.3949 42.2812 36.3432 42.337C36.2915 42.3928 36.2266 42.4367 36.1484 42.4686C36.0708 42.4999 35.978 42.5156 35.8698 42.5156C35.8406 42.5156 35.8072 42.5135 35.7698 42.5094C35.7324 42.506 35.7018 42.5009 35.678 42.4941V42.3472C35.7032 42.3561 35.7328 42.3632 35.7668 42.3686C35.8008 42.3734 35.8341 42.3758 35.8668 42.3758C35.994 42.3758 36.0939 42.3486 36.1667 42.2942C36.2395 42.2391 36.2919 42.1646 36.3239 42.0707C36.3558 41.9762 36.3739 41.8701 36.3779 41.7524H36.3657C36.3453 41.785 36.3184 41.8153 36.2851 41.8432C36.2524 41.8704 36.2126 41.8925 36.1657 41.9095C36.1188 41.9258 36.064 41.934 36.0014 41.934C35.9151 41.934 35.8396 41.9163 35.7749 41.8809C35.711 41.8456 35.661 41.7942 35.6249 41.7269C35.5896 41.6595 35.5719 41.5782 35.5719 41.483C35.5719 41.3803 35.5913 41.2915 35.63 41.2167C35.6695 41.1412 35.7246 41.0831 35.7953 41.0422C35.8661 41.0014 35.9494 40.981 36.0453 40.981C36.1188 40.981 36.1861 40.995 36.2473 41.0229C36.3086 41.0507 36.3616 41.0926 36.4065 41.1484C36.4521 41.2035 36.4871 41.2718 36.5116 41.3534C36.5368 41.4351 36.5493 41.5299 36.5493 41.6381ZM36.0453 41.1249C35.9548 41.1249 35.8814 41.1545 35.8249 41.2137C35.7692 41.2728 35.7413 41.3619 35.7413 41.481C35.7413 41.5796 35.7654 41.6575 35.8137 41.7146C35.862 41.7718 35.9365 41.8003 36.0372 41.8003C36.1065 41.8003 36.1664 41.7864 36.2167 41.7585C36.2677 41.7306 36.3069 41.6952 36.3341 41.6524C36.3619 41.6095 36.3759 41.5657 36.3759 41.5208C36.3759 41.4759 36.3691 41.4303 36.3555 41.384C36.3426 41.3378 36.3225 41.2953 36.2953 41.2565C36.2681 41.2171 36.2337 41.1854 36.1922 41.1616C36.1507 41.1371 36.1018 41.1249 36.0453 41.1249ZM37.2585 40.981C37.3448 40.981 37.4214 40.9946 37.488 41.0218C37.5547 41.049 37.6067 41.0892 37.6441 41.1422C37.6822 41.1946 37.7013 41.2592 37.7013 41.3361C37.7013 41.3966 37.688 41.4497 37.6615 41.4953C37.6356 41.5402 37.6006 41.5796 37.5564 41.6136C37.5122 41.6469 37.4632 41.6769 37.4095 41.7034C37.4734 41.7327 37.5309 41.7656 37.5819 41.8024C37.6336 41.8391 37.6744 41.8823 37.7043 41.932C37.7343 41.9816 37.7492 42.0404 37.7492 42.1085C37.7492 42.1921 37.7288 42.2646 37.688 42.3258C37.6479 42.3863 37.5914 42.4329 37.5186 42.4656C37.4459 42.4982 37.3605 42.5145 37.2625 42.5145C37.1571 42.5145 37.0673 42.4989 36.9932 42.4676C36.9197 42.4356 36.8636 42.3901 36.8248 42.3309C36.7867 42.271 36.7677 42.1993 36.7677 42.1156C36.7677 42.0469 36.7823 41.9874 36.8116 41.9371C36.8408 41.886 36.8796 41.8422 36.9279 41.8054C36.9762 41.7687 37.0289 41.7378 37.086 41.7126C37.0364 41.6854 36.9908 41.6544 36.9493 41.6197C36.9085 41.585 36.8758 41.5446 36.8514 41.4983C36.8276 41.4514 36.8156 41.397 36.8156 41.3351C36.8156 41.2596 36.8347 41.1956 36.8728 41.1433C36.9116 41.0902 36.9643 41.0501 37.0309 41.0229C37.0983 40.995 37.1741 40.981 37.2585 40.981ZM36.934 42.1166C36.934 42.1928 36.9609 42.2557 37.0146 42.3054C37.0683 42.3544 37.1496 42.3788 37.2585 42.3788C37.3619 42.3788 37.4418 42.3544 37.4982 42.3054C37.5547 42.2557 37.5829 42.1908 37.5829 42.1105C37.5829 42.0608 37.57 42.0173 37.5441 41.9799C37.5183 41.9418 37.4816 41.9078 37.434 41.8779C37.3863 41.8479 37.3302 41.8207 37.2656 41.7962L37.2289 41.783C37.1663 41.8088 37.1129 41.8377 37.0687 41.8697C37.0252 41.901 36.9918 41.9367 36.9687 41.9768C36.9456 42.017 36.934 42.0636 36.934 42.1166ZM37.2564 41.1198C37.1762 41.1198 37.1105 41.1392 37.0595 41.1779C37.0085 41.216 36.983 41.2711 36.983 41.3432C36.983 41.3949 36.9952 41.4388 37.0197 41.4749C37.0449 41.5102 37.0789 41.5408 37.1217 41.5667C37.1646 41.5918 37.2125 41.6153 37.2656 41.6371C37.3173 41.6153 37.3632 41.5915 37.4033 41.5657C37.4435 41.5391 37.4751 41.5078 37.4982 41.4718C37.5214 41.4357 37.5329 41.3925 37.5329 41.3422C37.5329 41.2701 37.5074 41.215 37.4564 41.1769C37.4061 41.1388 37.3394 41.1198 37.2564 41.1198Z" fill="#212121"/>
<rect x="48.8782" y="33.2444" width="7.87319" height="3.91799" rx="1.95899" fill="white"/>
<rect x="48.8782" y="33.2444" width="7.87319" height="3.91799" rx="1.95899" stroke="#D6D6D6" stroke-width="0.261199"/>
<path d="M51.0481 35.7031H50.8828V34.6461C50.8828 34.606 50.8828 34.5716 50.8828 34.543C50.8834 34.5138 50.8841 34.4873 50.8848 34.4634C50.8862 34.439 50.8879 34.4141 50.8899 34.389C50.8688 34.4107 50.8491 34.4294 50.8307 34.4451C50.8124 34.46 50.7896 34.4788 50.7624 34.5012L50.592 34.6379L50.5032 34.5226L50.9073 34.2114H51.0481V35.7031ZM52.5357 34.5594C52.5357 34.626 52.5227 34.6838 52.4969 34.7328C52.471 34.7818 52.435 34.8219 52.3887 34.8532C52.3425 34.8838 52.2881 34.9052 52.2255 34.9175V34.9256C52.3438 34.9406 52.4326 34.9787 52.4918 35.0399C52.5517 35.1011 52.5816 35.1814 52.5816 35.2807C52.5816 35.3671 52.5612 35.4436 52.5204 35.5103C52.4802 35.5769 52.4183 35.6293 52.3347 35.6674C52.2517 35.7048 52.1452 35.7235 52.0153 35.7235C51.9364 35.7235 51.8633 35.7171 51.7959 35.7041C51.7293 35.6919 51.6653 35.6712 51.6041 35.6419V35.4827C51.666 35.5133 51.7334 35.5375 51.8061 35.5552C51.8789 35.5722 51.9493 35.5807 52.0173 35.5807C52.1534 35.5807 52.2517 35.5538 52.3122 35.5001C52.3728 35.4457 52.403 35.3715 52.403 35.2777C52.403 35.213 52.386 35.161 52.352 35.1215C52.3187 35.0814 52.2704 35.0522 52.2071 35.0338C52.1445 35.0148 52.069 35.0052 51.9806 35.0052H51.8317V34.8604H51.9816C52.0626 34.8604 52.1313 34.8484 52.1877 34.8246C52.2442 34.8008 52.2871 34.7675 52.3163 34.7246C52.3462 34.6811 52.3612 34.6298 52.3612 34.5706C52.3612 34.4951 52.336 34.4369 52.2857 34.3961C52.2354 34.3546 52.167 34.3339 52.0806 34.3339C52.0276 34.3339 51.9793 34.3393 51.9357 34.3502C51.8922 34.3611 51.8514 34.376 51.8133 34.3951C51.7752 34.4141 51.7371 34.4362 51.699 34.4614L51.6133 34.3451C51.6677 34.3029 51.734 34.2665 51.8123 34.2359C51.8905 34.2053 51.9793 34.19 52.0786 34.19C52.2309 34.19 52.3452 34.2247 52.4214 34.2941C52.4976 34.3635 52.5357 34.4519 52.5357 34.5594ZM52.8244 35.0654C52.8244 34.9756 52.8305 34.8879 52.8428 34.8022C52.8557 34.7165 52.8771 34.6369 52.9071 34.5634C52.937 34.4893 52.9778 34.4243 53.0295 34.3686C53.0812 34.3128 53.1455 34.2693 53.2223 34.238C53.2999 34.206 53.3927 34.19 53.5009 34.19C53.5315 34.19 53.5645 34.1917 53.5998 34.1951C53.6352 34.1978 53.6645 34.2026 53.6876 34.2094V34.3553C53.6624 34.3465 53.6335 34.34 53.6009 34.3359C53.5689 34.3318 53.5366 34.3298 53.5039 34.3298C53.3774 34.3298 53.2778 34.3573 53.205 34.4124C53.1329 34.4675 53.0809 34.5424 53.0489 34.6369C53.0169 34.7308 52.9985 34.8365 52.9938 34.9542H53.005C53.0261 34.9202 53.053 34.8896 53.0856 34.8624C53.1183 34.8345 53.1577 34.8124 53.204 34.7961C53.2509 34.7797 53.3053 34.7716 53.3672 34.7716C53.4543 34.7716 53.5301 34.7893 53.5947 34.8246C53.66 34.86 53.7104 34.9114 53.7458 34.9787C53.7818 35.046 53.7998 35.1277 53.7998 35.2236C53.7998 35.3263 53.7808 35.4151 53.7427 35.4899C53.7046 35.5647 53.6502 35.6225 53.5794 35.6633C53.5094 35.7035 53.4257 35.7235 53.3284 35.7235C53.2557 35.7235 53.1887 35.7096 53.1274 35.6817C53.0662 35.6538 53.0128 35.6123 52.9673 35.5572C52.9224 35.5021 52.8873 35.4338 52.8622 35.3521C52.837 35.2698 52.8244 35.1743 52.8244 35.0654ZM53.3264 35.5807C53.4189 35.5807 53.4931 35.5511 53.5488 35.4919C53.6046 35.4327 53.6325 35.3433 53.6325 35.2236C53.6325 35.1256 53.6077 35.0481 53.558 34.9909C53.5084 34.9338 53.4335 34.9052 53.3335 34.9052C53.2655 34.9052 53.2063 34.9195 53.156 34.9481C53.1057 34.976 53.0666 35.0114 53.0387 35.0542C53.0108 35.0971 52.9968 35.1406 52.9968 35.1848C52.9968 35.2297 53.0033 35.2753 53.0162 35.3215C53.0298 35.3678 53.0502 35.4106 53.0774 35.4501C53.1047 35.4895 53.139 35.5212 53.1805 35.545C53.222 35.5688 53.2706 35.5807 53.3264 35.5807ZM54.9824 35.7031H54.0049V35.5613L54.4039 35.1562C54.478 35.0814 54.5402 35.0148 54.5906 34.9563C54.6416 34.8978 54.6804 34.8403 54.7069 34.7838C54.7334 34.7267 54.7467 34.6641 54.7467 34.5961C54.7467 34.5117 54.7215 34.4475 54.6712 34.4033C54.6215 34.3584 54.5559 34.3359 54.4743 34.3359C54.4028 34.3359 54.3396 34.3482 54.2845 34.3726C54.2294 34.3971 54.1729 34.4318 54.1151 34.4767L54.0243 34.3624C54.0637 34.3291 54.1066 34.2995 54.1529 34.2737C54.1998 34.2478 54.2498 34.2274 54.3028 34.2125C54.3566 34.1975 54.4137 34.19 54.4743 34.19C54.5661 34.19 54.6453 34.206 54.712 34.238C54.7786 34.2699 54.83 34.3155 54.8661 34.3747C54.9028 34.4339 54.9211 34.5043 54.9211 34.5859C54.9211 34.6648 54.9055 34.7383 54.8742 34.8063C54.8429 34.8736 54.7991 34.9406 54.7426 35.0073C54.6861 35.0733 54.6202 35.1433 54.5447 35.2175L54.2202 35.5409V35.548H54.9824V35.7031Z" fill="#212121"/>
<rect x="57.4983" y="50.4846" width="6.87319" height="3.91799" rx="1.95899" fill="white"/>
<rect x="57.4983" y="50.4846" width="6.87319" height="3.91799" rx="1.95899" stroke="#D6D6D6" stroke-width="0.261199"/>
<path d="M59.0529 52.3057C59.0529 52.2159 59.059 52.1281 59.0713 52.0424C59.0842 51.9567 59.1056 51.8771 59.1356 51.8037C59.1655 51.7295 59.2063 51.6646 59.258 51.6088C59.3097 51.553 59.374 51.5095 59.4508 51.4782C59.5284 51.4462 59.6212 51.4302 59.7294 51.4302C59.76 51.4302 59.793 51.4319 59.8284 51.4353C59.8637 51.4381 59.893 51.4428 59.9161 51.4496V51.5955C59.8909 51.5867 59.862 51.5802 59.8294 51.5761C59.7974 51.5721 59.7651 51.57 59.7325 51.57C59.6059 51.57 59.5063 51.5976 59.4335 51.6527C59.3614 51.7078 59.3094 51.7826 59.2774 51.8771C59.2454 51.971 59.2271 52.0768 59.2223 52.1945H59.2335C59.2546 52.1604 59.2815 52.1298 59.3141 52.1026C59.3468 52.0747 59.3862 52.0526 59.4325 52.0363C59.4794 52.02 59.5338 52.0118 59.5957 52.0118C59.6828 52.0118 59.7586 52.0295 59.8233 52.0649C59.8886 52.1002 59.9389 52.1516 59.9743 52.2189C60.0103 52.2863 60.0283 52.3679 60.0283 52.4638C60.0283 52.5665 60.0093 52.6553 59.9712 52.7301C59.9331 52.8049 59.8787 52.8628 59.808 52.9036C59.7379 52.9437 59.6542 52.9638 59.557 52.9638C59.4842 52.9638 59.4172 52.9498 59.356 52.9219C59.2947 52.894 59.2413 52.8526 59.1958 52.7975C59.1509 52.7424 59.1158 52.674 59.0907 52.5924C59.0655 52.5101 59.0529 52.4145 59.0529 52.3057ZM59.5549 52.8209C59.6474 52.8209 59.7216 52.7913 59.7773 52.7322C59.8331 52.673 59.861 52.5835 59.861 52.4638C59.861 52.3659 59.8362 52.2883 59.7865 52.2312C59.7369 52.174 59.6621 52.1455 59.5621 52.1455C59.494 52.1455 59.4349 52.1598 59.3845 52.1883C59.3342 52.2162 59.2951 52.2516 59.2672 52.2944C59.2393 52.3373 59.2254 52.3808 59.2254 52.425C59.2254 52.4699 59.2318 52.5155 59.2447 52.5618C59.2583 52.608 59.2788 52.6509 59.306 52.6903C59.3332 52.7298 59.3675 52.7614 59.409 52.7852C59.4505 52.809 59.4991 52.8209 59.5549 52.8209ZM61.2109 52.9434H60.2334V52.8015L60.6324 52.3965C60.7065 52.3217 60.7687 52.255 60.8191 52.1965C60.8701 52.138 60.9089 52.0805 60.9354 52.0241C60.9619 51.9669 60.9752 51.9043 60.9752 51.8363C60.9752 51.752 60.95 51.6877 60.8997 51.6435C60.85 51.5986 60.7844 51.5761 60.7028 51.5761C60.6313 51.5761 60.5681 51.5884 60.513 51.6129C60.4579 51.6374 60.4014 51.6721 60.3436 51.7169L60.2528 51.6027C60.2923 51.5693 60.3351 51.5398 60.3814 51.5139C60.4283 51.4881 60.4783 51.4677 60.5314 51.4527C60.5851 51.4377 60.6422 51.4302 60.7028 51.4302C60.7946 51.4302 60.8738 51.4462 60.9405 51.4782C61.0072 51.5102 61.0585 51.5557 61.0946 51.6149C61.1313 51.6741 61.1497 51.7445 61.1497 51.8261C61.1497 51.905 61.134 51.9785 61.1027 52.0465C61.0714 52.1138 61.0276 52.1808 60.9711 52.2475C60.9146 52.3135 60.8487 52.3836 60.7732 52.4577L60.4487 52.7811V52.7883H61.2109V52.9434ZM62.4148 52.1955C62.4148 52.3165 62.4057 52.4247 62.3873 52.5199C62.3689 52.6152 62.34 52.6958 62.3006 52.7617C62.2611 52.8277 62.2101 52.8781 62.1475 52.9128C62.0849 52.9468 62.0098 52.9638 61.922 52.9638C61.8112 52.9638 61.7193 52.9335 61.6466 52.873C61.5744 52.8124 61.5204 52.725 61.4843 52.6107C61.449 52.4958 61.4313 52.3574 61.4313 52.1955C61.4313 52.0363 61.4473 51.8996 61.4792 51.7853C61.5119 51.6704 61.5642 51.5823 61.6363 51.521C61.7084 51.4592 61.8037 51.4282 61.922 51.4282C62.0343 51.4282 62.1268 51.4588 62.1996 51.52C62.2723 51.5806 62.3264 51.6683 62.3618 51.7833C62.3972 51.8975 62.4148 52.0349 62.4148 52.1955ZM61.6017 52.1955C61.6017 52.3342 61.6122 52.4499 61.6333 52.5424C61.6544 52.6349 61.6884 52.7043 61.7353 52.7505C61.7829 52.7961 61.8452 52.8189 61.922 52.8189C61.9989 52.8189 62.0608 52.7961 62.1077 52.7505C62.1553 52.7049 62.1897 52.6359 62.2108 52.5434C62.2325 52.4509 62.2434 52.3349 62.2434 52.1955C62.2434 52.0588 62.2329 51.9445 62.2118 51.8526C62.1907 51.7601 62.1567 51.6908 62.1098 51.6445C62.0628 51.5976 62.0003 51.5741 61.922 51.5741C61.8438 51.5741 61.7812 51.5976 61.7343 51.6445C61.6874 51.6908 61.6534 51.7601 61.6323 51.8526C61.6119 51.9445 61.6017 52.0588 61.6017 52.1955Z" fill="#212121"/>
<rect x="66.1174" y="31.1546" width="7.87319" height="3.91799" rx="1.95899" fill="white"/>
<rect x="66.1174" y="31.1546" width="7.87319" height="3.91799" rx="1.95899" stroke="#D6D6D6" stroke-width="0.261199"/>
<path d="M68.2873 33.6133H68.122V32.5562C68.122 32.5161 68.122 32.4818 68.122 32.4532C68.1227 32.4239 68.1234 32.3974 68.1241 32.3736C68.1254 32.3491 68.1271 32.3243 68.1292 32.2991C68.1081 32.3209 68.0884 32.3396 68.07 32.3552C68.0516 32.3702 68.0288 32.3889 68.0016 32.4114L67.8312 32.5481L67.7425 32.4328L68.1465 32.1216H68.2873V33.6133ZM69.9045 33.2674H69.6811V33.6133H69.5158V33.2674H68.7944V33.1246L69.5045 32.1134H69.6811V33.1144H69.9045V33.2674ZM69.5158 33.1144V32.6266C69.5158 32.5892 69.5161 32.5556 69.5168 32.5256C69.5175 32.495 69.5185 32.4668 69.5198 32.4409C69.5212 32.4144 69.5222 32.3893 69.5229 32.3654C69.5243 32.3416 69.5253 32.3182 69.526 32.295H69.5178C69.5049 32.3223 69.4899 32.3512 69.4729 32.3818C69.4566 32.4117 69.4399 32.4386 69.4229 32.4624L68.9628 33.1144H69.5158ZM70.0637 32.9756C70.0637 32.8858 70.0698 32.7981 70.082 32.7123C70.095 32.6266 70.1164 32.5471 70.1463 32.4736C70.1762 32.3995 70.2171 32.3345 70.2688 32.2787C70.3204 32.2229 70.3847 32.1794 70.4616 32.1481C70.5391 32.1161 70.632 32.1002 70.7401 32.1002C70.7707 32.1002 70.8037 32.1019 70.8391 32.1053C70.8745 32.108 70.9037 32.1127 70.9269 32.1195V32.2655C70.9017 32.2566 70.8728 32.2501 70.8401 32.2461C70.8082 32.242 70.7758 32.2399 70.7432 32.2399C70.6167 32.2399 70.517 32.2675 70.4442 32.3226C70.3721 32.3777 70.3201 32.4525 70.2881 32.5471C70.2562 32.6409 70.2378 32.7467 70.233 32.8644H70.2443C70.2654 32.8304 70.2922 32.7998 70.3249 32.7725C70.3575 32.7447 70.397 32.7226 70.4432 32.7062C70.4902 32.6899 70.5446 32.6817 70.6065 32.6817C70.6935 32.6817 70.7694 32.6994 70.834 32.7348C70.8993 32.7702 70.9496 32.8215 70.985 32.8889C71.0211 32.9562 71.0391 33.0378 71.0391 33.1337C71.0391 33.2364 71.02 33.3252 70.9819 33.4C70.9439 33.4749 70.8894 33.5327 70.8187 33.5735C70.7486 33.6136 70.665 33.6337 70.5677 33.6337C70.4949 33.6337 70.4279 33.6197 70.3667 33.5919C70.3055 33.564 70.2521 33.5225 70.2065 33.4674C70.1616 33.4123 70.1266 33.3439 70.1014 33.2623C70.0763 33.18 70.0637 33.0844 70.0637 32.9756ZM70.5657 33.4908C70.6582 33.4908 70.7323 33.4613 70.7881 33.4021C70.8439 33.3429 70.8718 33.2535 70.8718 33.1337C70.8718 33.0358 70.8469 32.9582 70.7973 32.9011C70.7476 32.844 70.6728 32.8154 70.5728 32.8154C70.5048 32.8154 70.4456 32.8297 70.3953 32.8583C70.3449 32.8861 70.3058 32.9215 70.2779 32.9644C70.25 33.0072 70.2361 33.0508 70.2361 33.095C70.2361 33.1399 70.2426 33.1854 70.2555 33.2317C70.2691 33.2779 70.2895 33.3208 70.3167 33.3602C70.3439 33.3997 70.3783 33.4313 70.4198 33.4551C70.4613 33.4789 70.5099 33.4908 70.5657 33.4908ZM71.7156 32.7011C71.8169 32.7011 71.905 32.7185 71.9798 32.7532C72.0546 32.7872 72.1125 32.8368 72.1533 32.9021C72.1948 32.9674 72.2155 33.0467 72.2155 33.1399C72.2155 33.2419 72.1934 33.33 72.1492 33.4041C72.105 33.4776 72.0414 33.5344 71.9584 33.5745C71.8754 33.614 71.7761 33.6337 71.6605 33.6337C71.5829 33.6337 71.5108 33.6269 71.4441 33.6133C71.3775 33.5997 71.3214 33.5793 71.2758 33.5521V33.3909C71.3255 33.4208 71.3857 33.4446 71.4564 33.4623C71.5271 33.48 71.5958 33.4888 71.6625 33.4888C71.738 33.4888 71.804 33.4769 71.8604 33.4531C71.9176 33.4286 71.9618 33.3919 71.9931 33.3429C72.025 33.2932 72.041 33.231 72.041 33.1562C72.041 33.0569 72.0104 32.9803 71.9492 32.9266C71.8887 32.8722 71.7928 32.845 71.6615 32.845C71.6193 32.845 71.573 32.8484 71.5227 32.8552C71.4724 32.862 71.4309 32.8695 71.3982 32.8776L71.3125 32.8215L71.3697 32.1216H72.1114V32.2767H71.5145L71.4768 32.7266C71.5026 32.7212 71.536 32.7157 71.5768 32.7103C71.6176 32.7042 71.6639 32.7011 71.7156 32.7011Z" fill="#212121"/>
<rect x="74.7376" y="19.9221" width="7.87319" height="3.91799" rx="1.95899" fill="white"/>
<rect x="74.7376" y="19.9221" width="7.87319" height="3.91799" rx="1.95899" stroke="#D6D6D6" stroke-width="0.261199"/>
<path d="M77.2543 22.3809H76.2769V22.239L76.6758 21.834C76.75 21.7592 76.8122 21.6925 76.8625 21.634C76.9136 21.5755 76.9523 21.518 76.9789 21.4616C77.0054 21.4044 77.0186 21.3418 77.0186 21.2738C77.0186 21.1895 76.9935 21.1252 76.9431 21.081C76.8935 21.0361 76.8278 21.0136 76.7462 21.0136C76.6748 21.0136 76.6115 21.0259 76.5564 21.0504C76.5013 21.0749 76.4449 21.1096 76.3871 21.1544L76.2963 21.0402C76.3357 21.0068 76.3786 20.9773 76.4248 20.9514C76.4718 20.9256 76.5218 20.9052 76.5748 20.8902C76.6285 20.8752 76.6857 20.8677 76.7462 20.8677C76.838 20.8677 76.9173 20.8837 76.984 20.9157C77.0506 20.9477 77.102 20.9932 77.138 21.0524C77.1748 21.1116 77.1931 21.182 77.1931 21.2636C77.1931 21.3425 77.1775 21.416 77.1462 21.484C77.1149 21.5513 77.071 21.6183 77.0146 21.685C76.9581 21.751 76.8921 21.8211 76.8166 21.8952L76.4922 22.2186V22.2258H77.2543V22.3809ZM78.4501 22.3809H77.4727V22.239L77.8716 21.834C77.9458 21.7592 78.008 21.6925 78.0583 21.634C78.1094 21.5755 78.1481 21.518 78.1747 21.4616C78.2012 21.4044 78.2144 21.3418 78.2144 21.2738C78.2144 21.1895 78.1893 21.1252 78.1389 21.081C78.0893 21.0361 78.0236 21.0136 77.942 21.0136C77.8706 21.0136 77.8073 21.0259 77.7522 21.0504C77.6971 21.0749 77.6407 21.1096 77.5829 21.1544L77.4921 21.0402C77.5315 21.0068 77.5744 20.9773 77.6206 20.9514C77.6676 20.9256 77.7176 20.9052 77.7706 20.8902C77.8243 20.8752 77.8815 20.8677 77.942 20.8677C78.0339 20.8677 78.1131 20.8837 78.1798 20.9157C78.2464 20.9477 78.2978 20.9932 78.3338 21.0524C78.3706 21.1116 78.3889 21.182 78.3889 21.2636C78.3889 21.3425 78.3733 21.416 78.342 21.484C78.3107 21.5513 78.2668 21.6183 78.2104 21.685C78.1539 21.751 78.0879 21.8211 78.0124 21.8952L77.688 22.2186V22.2258H78.4501V22.3809ZM79.648 21.5248C79.648 21.6153 79.6415 21.7034 79.6286 21.7891C79.6163 21.8748 79.5949 21.9547 79.5643 22.0289C79.5344 22.103 79.4936 22.168 79.4419 22.2237C79.3902 22.2795 79.3252 22.3234 79.247 22.3554C79.1695 22.3866 79.0766 22.4023 78.9685 22.4023C78.9392 22.4023 78.9059 22.4002 78.8685 22.3962C78.8311 22.3928 78.8004 22.3877 78.7766 22.3809V22.2339C78.8018 22.2428 78.8314 22.2499 78.8654 22.2554C78.8994 22.2601 78.9327 22.2625 78.9654 22.2625C79.0926 22.2625 79.1926 22.2353 79.2654 22.1809C79.3381 22.1258 79.3905 22.0513 79.4225 21.9574C79.4545 21.8629 79.4725 21.7568 79.4766 21.6391H79.4643C79.4439 21.6717 79.417 21.702 79.3837 21.7299C79.3511 21.7571 79.3113 21.7792 79.2643 21.7962C79.2174 21.8125 79.1627 21.8207 79.1001 21.8207C79.0137 21.8207 78.9382 21.803 78.8736 21.7677C78.8096 21.7323 78.7596 21.6809 78.7236 21.6136C78.6882 21.5462 78.6705 21.465 78.6705 21.3697C78.6705 21.267 78.6899 21.1783 78.7287 21.1034C78.7681 21.0279 78.8232 20.9698 78.894 20.929C78.9647 20.8881 79.048 20.8677 79.1439 20.8677C79.2174 20.8677 79.2847 20.8817 79.346 20.9096C79.4072 20.9375 79.4602 20.9793 79.5051 21.0351C79.5507 21.0902 79.5857 21.1585 79.6102 21.2402C79.6354 21.3218 79.648 21.4167 79.648 21.5248ZM79.1439 21.0116C79.0535 21.0116 78.98 21.0412 78.9236 21.1004C78.8678 21.1595 78.8399 21.2487 78.8399 21.3677C78.8399 21.4663 78.864 21.5442 78.9123 21.6013C78.9606 21.6585 79.0351 21.687 79.1358 21.687C79.2052 21.687 79.265 21.6731 79.3154 21.6452C79.3664 21.6173 79.4055 21.582 79.4327 21.5391C79.4606 21.4963 79.4745 21.4524 79.4745 21.4075C79.4745 21.3626 79.4677 21.317 79.4541 21.2708C79.4412 21.2245 79.4211 21.182 79.3939 21.1432C79.3667 21.1038 79.3324 21.0721 79.2909 21.0483C79.2494 21.0238 79.2004 21.0116 79.1439 21.0116ZM80.3571 20.8677C80.4435 20.8677 80.52 20.8813 80.5867 20.9086C80.6533 20.9358 80.7054 20.9759 80.7428 21.029C80.7809 21.0813 80.7999 21.1459 80.7999 21.2228C80.7999 21.2833 80.7866 21.3364 80.7601 21.382C80.7343 21.4269 80.6992 21.4663 80.655 21.5003C80.6108 21.5337 80.5618 21.5636 80.5081 21.5901C80.572 21.6194 80.6295 21.6524 80.6805 21.6891C80.7322 21.7258 80.773 21.769 80.803 21.8187C80.8329 21.8683 80.8479 21.9272 80.8479 21.9952C80.8479 22.0788 80.8275 22.1513 80.7866 22.2125C80.7465 22.273 80.6901 22.3196 80.6173 22.3523C80.5445 22.3849 80.4591 22.4013 80.3612 22.4013C80.2557 22.4013 80.166 22.3856 80.0918 22.3543C80.0184 22.3224 79.9622 22.2768 79.9235 22.2176C79.8854 22.1578 79.8663 22.086 79.8663 22.0023C79.8663 21.9336 79.881 21.8741 79.9102 21.8238C79.9394 21.7728 79.9782 21.7289 80.0265 21.6922C80.0748 21.6554 80.1275 21.6245 80.1847 21.5993C80.135 21.5721 80.0894 21.5411 80.0479 21.5065C80.0071 21.4718 79.9745 21.4313 79.95 21.385C79.9262 21.3381 79.9143 21.2837 79.9143 21.2218C79.9143 21.1463 79.9333 21.0823 79.9714 21.03C80.0102 20.9769 80.0629 20.9368 80.1296 20.9096C80.1969 20.8817 80.2727 20.8677 80.3571 20.8677ZM80.0326 22.0033C80.0326 22.0795 80.0595 22.1424 80.1132 22.1921C80.167 22.2411 80.2483 22.2656 80.3571 22.2656C80.4605 22.2656 80.5404 22.2411 80.5969 22.1921C80.6533 22.1424 80.6816 22.0775 80.6816 21.9972C80.6816 21.9476 80.6686 21.904 80.6428 21.8666C80.6169 21.8285 80.5802 21.7945 80.5326 21.7646C80.485 21.7347 80.4289 21.7075 80.3642 21.683L80.3275 21.6697C80.2649 21.6956 80.2115 21.7245 80.1673 21.7564C80.1238 21.7877 80.0905 21.8234 80.0673 21.8636C80.0442 21.9037 80.0326 21.9503 80.0326 22.0033ZM80.3551 21.0065C80.2748 21.0065 80.2091 21.0259 80.1581 21.0647C80.1071 21.1028 80.0816 21.1578 80.0816 21.23C80.0816 21.2816 80.0939 21.3255 80.1183 21.3616C80.1435 21.3969 80.1775 21.4276 80.2204 21.4534C80.2632 21.4786 80.3112 21.502 80.3642 21.5238C80.4159 21.502 80.4618 21.4782 80.502 21.4524C80.5421 21.4259 80.5737 21.3946 80.5969 21.3585C80.62 21.3225 80.6316 21.2793 80.6316 21.2289C80.6316 21.1568 80.606 21.1017 80.555 21.0636C80.5047 21.0255 80.438 21.0065 80.3551 21.0065Z" fill="#212121"/>
<rect x="40.259" y="25.4065" width="7.87319" height="3.91799" rx="1.95899" fill="white"/>
<rect x="40.259" y="25.4065" width="7.87319" height="3.91799" rx="1.95899" stroke="#D6D6D6" stroke-width="0.261199"/>
<path d="M42.4289 27.8652H42.2636V26.8082C42.2636 26.7681 42.2636 26.7337 42.2636 26.7051C42.2643 26.6759 42.265 26.6494 42.2657 26.6256C42.267 26.6011 42.2687 26.5762 42.2708 26.5511C42.2497 26.5728 42.23 26.5915 42.2116 26.6072C42.1932 26.6222 42.1704 26.6409 42.1432 26.6633L41.9728 26.8L41.8841 26.6847L42.2881 26.3735H42.4289V27.8652ZM43.9737 27.0092C43.9737 27.0997 43.9672 27.1877 43.9543 27.2735C43.942 27.3592 43.9206 27.4391 43.89 27.5132C43.8601 27.5874 43.8193 27.6523 43.7676 27.7081C43.7159 27.7639 43.6509 27.8078 43.5727 27.8397C43.4951 27.871 43.4023 27.8867 43.2941 27.8867C43.2649 27.8867 43.2316 27.8846 43.1941 27.8805C43.1567 27.8771 43.1261 27.872 43.1023 27.8652V27.7183C43.1275 27.7272 43.1571 27.7343 43.1911 27.7397C43.2251 27.7445 43.2584 27.7469 43.2911 27.7469C43.4183 27.7469 43.5183 27.7197 43.591 27.6653C43.6638 27.6102 43.7162 27.5357 43.7482 27.4418C43.7801 27.3473 43.7982 27.2411 43.8023 27.1235H43.79C43.7696 27.1561 43.7427 27.1864 43.7094 27.2143C43.6768 27.2415 43.637 27.2636 43.59 27.2806C43.5431 27.2969 43.4883 27.3051 43.4258 27.3051C43.3394 27.3051 43.2639 27.2874 43.1992 27.252C43.1353 27.2167 43.0853 27.1653 43.0493 27.098C43.0139 27.0306 42.9962 26.9493 42.9962 26.8541C42.9962 26.7514 43.0156 26.6626 43.0544 26.5878C43.0938 26.5123 43.1489 26.4541 43.2197 26.4133C43.2904 26.3725 43.3737 26.3521 43.4696 26.3521C43.5431 26.3521 43.6104 26.3661 43.6717 26.3939C43.7329 26.4218 43.7859 26.4637 43.8308 26.5194C43.8764 26.5745 43.9114 26.6429 43.9359 26.7245C43.9611 26.8062 43.9737 26.901 43.9737 27.0092ZM43.4696 26.496C43.3792 26.496 43.3057 26.5256 43.2492 26.5847C43.1935 26.6439 43.1656 26.733 43.1656 26.8521C43.1656 26.9507 43.1897 27.0286 43.238 27.0857C43.2863 27.1429 43.3608 27.1714 43.4615 27.1714C43.5308 27.1714 43.5907 27.1575 43.641 27.1296C43.6921 27.1017 43.7312 27.0663 43.7584 27.0235C43.7863 26.9806 43.8002 26.9368 43.8002 26.8919C43.8002 26.847 43.7934 26.8014 43.7798 26.7551C43.7669 26.7089 43.7468 26.6664 43.7196 26.6276C43.6924 26.5881 43.658 26.5565 43.6166 26.5327C43.5751 26.5082 43.5261 26.496 43.4696 26.496ZM44.6614 26.9531C44.7627 26.9531 44.8508 26.9704 44.9256 27.0051C45.0004 27.0391 45.0583 27.0888 45.0991 27.1541C45.1406 27.2194 45.1613 27.2986 45.1613 27.3918C45.1613 27.4938 45.1392 27.5819 45.095 27.6561C45.0508 27.7295 44.9872 27.7863 44.9042 27.8265C44.8212 27.8659 44.7219 27.8856 44.6063 27.8856C44.5287 27.8856 44.4566 27.8788 44.3899 27.8652C44.3233 27.8516 44.2672 27.8312 44.2216 27.804V27.6428C44.2713 27.6727 44.3315 27.6965 44.4022 27.7142C44.4729 27.7319 44.5416 27.7408 44.6083 27.7408C44.6838 27.7408 44.7498 27.7289 44.8062 27.705C44.8634 27.6806 44.9076 27.6438 44.9389 27.5949C44.9708 27.5452 44.9868 27.483 44.9868 27.4081C44.9868 27.3088 44.9562 27.2323 44.895 27.1786C44.8345 27.1242 44.7386 27.0969 44.6073 27.0969C44.5651 27.0969 44.5188 27.1003 44.4685 27.1071C44.4182 27.1139 44.3767 27.1214 44.344 27.1296L44.2583 27.0735L44.3155 26.3735H45.0572V26.5286H44.4603L44.4226 26.9786C44.4484 26.9731 44.4818 26.9677 44.5226 26.9623C44.5634 26.9561 44.6097 26.9531 44.6614 26.9531ZM46.3081 26.7215C46.3081 26.7881 46.2952 26.8459 46.2694 26.8949C46.2435 26.9439 46.2075 26.984 46.1612 27.0153C46.1149 27.0459 46.0605 27.0674 45.998 27.0796V27.0878C46.1163 27.1027 46.2051 27.1408 46.2643 27.202C46.3241 27.2633 46.354 27.3435 46.354 27.4428C46.354 27.5292 46.3336 27.6057 46.2928 27.6724C46.2527 27.7391 46.1908 27.7914 46.1071 27.8295C46.0241 27.8669 45.9177 27.8856 45.7878 27.8856C45.7089 27.8856 45.6357 27.8792 45.5684 27.8663C45.5017 27.854 45.4378 27.8333 45.3766 27.804V27.6448C45.4385 27.6755 45.5058 27.6996 45.5786 27.7173C45.6514 27.7343 45.7218 27.7428 45.7898 27.7428C45.9259 27.7428 46.0241 27.7159 46.0847 27.6622C46.1452 27.6078 46.1755 27.5336 46.1755 27.4398C46.1755 27.3751 46.1585 27.3231 46.1245 27.2837C46.0911 27.2435 46.0428 27.2143 45.9796 27.1959C45.917 27.1769 45.8415 27.1673 45.7531 27.1673H45.6041V27.0225H45.7541C45.835 27.0225 45.9037 27.0106 45.9602 26.9867C46.0167 26.9629 46.0595 26.9296 46.0888 26.8868C46.1187 26.8432 46.1337 26.7919 46.1337 26.7327C46.1337 26.6572 46.1085 26.599 46.0582 26.5582C46.0078 26.5167 45.9395 26.496 45.8531 26.496C45.8 26.496 45.7517 26.5014 45.7082 26.5123C45.6647 26.5232 45.6238 26.5382 45.5857 26.5572C45.5477 26.5762 45.5096 26.5984 45.4715 26.6235L45.3858 26.5072C45.4402 26.465 45.5065 26.4286 45.5847 26.398C45.663 26.3674 45.7517 26.3521 45.851 26.3521C46.0034 26.3521 46.1177 26.3868 46.1939 26.4562C46.27 26.5256 46.3081 26.614 46.3081 26.7215Z" fill="#212121"/>
<path d="M18.7084 66.8094C19.1412 66.8094 19.492 66.4586 19.492 66.0258C19.492 65.593 19.1412 65.2422 18.7084 65.2422C18.2756 65.2422 17.9248 65.593 17.9248 66.0258C17.9248 66.4586 18.2756 66.8094 18.7084 66.8094Z" fill="#FFBA00"/>
</g>
<defs>
<clipPath id="clip0_7679_46194">
<rect width="74.9641" height="65.0386" fill="white" transform="translate(8 13)"/>
</clipPath>
</defs>
</svg>
