<svg width="93" height="92" viewBox="0 0 93 92" fill="none" xmlns="http://www.w3.org/2000/svg">
<rect x="1.26092" y="0.389831" width="91.079" height="91.2203" rx="17.5424" stroke="#BEBEBE" stroke-width="0.779661"/>
<line x1="20.9277" y1="24.7956" x2="81.5001" y2="24.7956" stroke="black" stroke-opacity="0.25" stroke-width="0.166704" stroke-dasharray="0.33"/>
<line x1="20.9277" y1="32.3385" x2="81.5001" y2="32.3385" stroke="black" stroke-opacity="0.25" stroke-width="0.166704" stroke-dasharray="0.33"/>
<line x1="20.9277" y1="39.8815" x2="81.5001" y2="39.8815" stroke="black" stroke-opacity="0.25" stroke-width="0.166704" stroke-dasharray="0.33"/>
<line x1="20.9277" y1="47.4206" x2="81.5001" y2="47.4206" stroke="black" stroke-opacity="0.25" stroke-width="0.166704" stroke-dasharray="0.33"/>
<line x1="20.9277" y1="54.9635" x2="81.5001" y2="54.9635" stroke="black" stroke-opacity="0.25" stroke-width="0.166704" stroke-dasharray="0.33"/>
<line x1="20.9277" y1="62.5065" x2="81.5001" y2="62.5065" stroke="black" stroke-opacity="0.25" stroke-width="0.166704" stroke-dasharray="0.33"/>
<g clip-path="url(#clip0_7997_48539)">
<path d="M20.9277 23.6992V69.1874" stroke="black" stroke-opacity="0.25" stroke-width="0.166704" stroke-dasharray="0.33"/>
<path d="M15.2292 25.6992H14.3472V25.5712L14.7072 25.2057C14.7741 25.1382 14.8303 25.0781 14.8757 25.0253C14.9217 24.9725 14.9567 24.9206 14.9806 24.8697C15.0046 24.8181 15.0165 24.7617 15.0165 24.7003C15.0165 24.6242 14.9938 24.5662 14.9484 24.5263C14.9036 24.4858 14.8444 24.4655 14.7707 24.4655C14.7063 24.4655 14.6492 24.4766 14.5995 24.4987C14.5498 24.5208 14.4988 24.5521 14.4467 24.5926L14.3647 24.4895C14.4003 24.4594 14.439 24.4327 14.4807 24.4094C14.5231 24.386 14.5682 24.3676 14.6161 24.3541C14.6645 24.3406 14.7161 24.3339 14.7707 24.3339C14.8536 24.3339 14.9251 24.3483 14.9852 24.3771C15.0454 24.406 15.0917 24.4471 15.1243 24.5005C15.1574 24.5539 15.174 24.6174 15.174 24.6911C15.174 24.7623 15.1599 24.8286 15.1316 24.89C15.1034 24.9507 15.0638 25.0112 15.0129 25.0713C14.9619 25.1309 14.9024 25.1941 14.8343 25.261L14.5415 25.5528V25.5593H15.2292V25.6992ZM15.8516 24.8761C15.943 24.8761 16.0225 24.8918 16.09 24.9231C16.1576 24.9538 16.2097 24.9986 16.2466 25.0575C16.284 25.1164 16.3027 25.1879 16.3027 25.272C16.3027 25.3641 16.2828 25.4436 16.2429 25.5105C16.203 25.5768 16.1456 25.628 16.0707 25.6642C15.9958 25.6998 15.9062 25.7176 15.8019 25.7176C15.7319 25.7176 15.6668 25.7115 15.6067 25.6992C15.5465 25.6869 15.4959 25.6685 15.4548 25.644V25.4985C15.4996 25.5255 15.5539 25.547 15.6177 25.563C15.6816 25.5789 15.7436 25.5869 15.8037 25.5869C15.8718 25.5869 15.9314 25.5762 15.9823 25.5547C16.0339 25.5326 16.0738 25.4994 16.102 25.4552C16.1309 25.4104 16.1453 25.3543 16.1453 25.2868C16.1453 25.1971 16.1177 25.1281 16.0624 25.0796C16.0078 25.0305 15.9213 25.006 15.8028 25.006C15.7647 25.006 15.723 25.009 15.6776 25.0152C15.6322 25.0213 15.5947 25.0281 15.5653 25.0354L15.4879 24.9848L15.5395 24.3532H16.2088V24.4931H15.6702L15.6362 24.8992C15.6595 24.8943 15.6896 24.8893 15.7264 24.8844C15.7632 24.8789 15.8049 24.8761 15.8516 24.8761ZM17.3946 25.0244C17.3946 25.1336 17.3863 25.2312 17.3698 25.3171C17.3532 25.4031 17.3271 25.4758 17.2915 25.5353C17.2559 25.5949 17.2099 25.6403 17.1534 25.6716C17.0969 25.7023 17.0291 25.7176 16.9499 25.7176C16.8499 25.7176 16.767 25.6903 16.7014 25.6357C16.6363 25.5811 16.5875 25.5022 16.555 25.3991C16.5231 25.2954 16.5071 25.1705 16.5071 25.0244C16.5071 24.8807 16.5215 24.7574 16.5504 24.6543C16.5798 24.5505 16.6271 24.4711 16.6922 24.4158C16.7572 24.36 16.8431 24.332 16.9499 24.332C17.0512 24.332 17.1347 24.3597 17.2004 24.4149C17.266 24.4695 17.3148 24.5487 17.3467 24.6524C17.3787 24.7555 17.3946 24.8795 17.3946 25.0244ZM16.6609 25.0244C16.6609 25.1496 16.6704 25.2539 16.6894 25.3374C16.7084 25.4209 16.7391 25.4835 16.7815 25.5252C16.8244 25.5663 16.8806 25.5869 16.9499 25.5869C17.0193 25.5869 17.0752 25.5663 17.1175 25.5252C17.1605 25.4841 17.1915 25.4218 17.2105 25.3383C17.2301 25.2548 17.24 25.1502 17.24 25.0244C17.24 24.901 17.2304 24.7979 17.2114 24.715C17.1924 24.6316 17.1617 24.5689 17.1193 24.5272C17.077 24.4849 17.0205 24.4637 16.9499 24.4637C16.8794 24.4637 16.8229 24.4849 16.7805 24.5272C16.7382 24.5689 16.7075 24.6316 16.6885 24.715C16.6701 24.7979 16.6609 24.901 16.6609 25.0244ZM18.4736 25.0244C18.4736 25.1336 18.4654 25.2312 18.4488 25.3171C18.4322 25.4031 18.4061 25.4758 18.3705 25.5353C18.3349 25.5949 18.2889 25.6403 18.2324 25.6716C18.176 25.7023 18.1081 25.7176 18.029 25.7176C17.9289 25.7176 17.8461 25.6903 17.7804 25.6357C17.7153 25.5811 17.6665 25.5022 17.634 25.3991C17.6021 25.2954 17.5861 25.1705 17.5861 25.0244C17.5861 24.8807 17.6005 24.7574 17.6294 24.6543C17.6589 24.5505 17.7061 24.4711 17.7712 24.4158C17.8362 24.36 17.9222 24.332 18.029 24.332C18.1302 24.332 18.2137 24.3597 18.2794 24.4149C18.3451 24.4695 18.3939 24.5487 18.4258 24.6524C18.4577 24.7555 18.4736 24.8795 18.4736 25.0244ZM17.7399 25.0244C17.7399 25.1496 17.7494 25.2539 17.7684 25.3374C17.7874 25.4209 17.8181 25.4835 17.8605 25.5252C17.9034 25.5663 17.9596 25.5869 18.029 25.5869C18.0983 25.5869 18.1542 25.5663 18.1965 25.5252C18.2395 25.4841 18.2705 25.4218 18.2895 25.3383C18.3092 25.2548 18.319 25.1502 18.319 25.0244C18.319 24.901 18.3095 24.7979 18.2904 24.715C18.2714 24.6316 18.2407 24.5689 18.1984 24.5272C18.156 24.4849 18.0995 24.4637 18.029 24.4637C17.9584 24.4637 17.9019 24.4849 17.8596 24.5272C17.8172 24.5689 17.7865 24.6316 17.7675 24.715C17.7491 24.7979 17.7399 24.901 17.7399 25.0244Z" fill="#212121"/>
<path d="M15.2292 32.9414H14.3472V32.8134L14.7072 32.4479C14.7741 32.3804 14.8303 32.3203 14.8757 32.2675C14.9217 32.2147 14.9567 32.1628 14.9806 32.1119C15.0046 32.0603 15.0165 32.0039 15.0165 31.9425C15.0165 31.8664 14.9938 31.8084 14.9484 31.7685C14.9036 31.728 14.8444 31.7077 14.7707 31.7077C14.7063 31.7077 14.6492 31.7188 14.5995 31.7409C14.5498 31.763 14.4988 31.7943 14.4467 31.8348L14.3647 31.7317C14.4003 31.7016 14.439 31.6749 14.4807 31.6516C14.5231 31.6282 14.5682 31.6098 14.6161 31.5963C14.6645 31.5828 14.7161 31.5761 14.7707 31.5761C14.8536 31.5761 14.9251 31.5905 14.9852 31.6193C15.0454 31.6482 15.0917 31.6893 15.1243 31.7427C15.1574 31.7961 15.174 31.8596 15.174 31.9333C15.174 32.0045 15.1599 32.0708 15.1316 32.1321C15.1034 32.1929 15.0638 32.2534 15.0129 32.3135C14.9619 32.373 14.9024 32.4363 14.8343 32.5032L14.5415 32.795V32.8015H15.2292V32.9414ZM16.3156 32.2666C16.3156 32.3758 16.3073 32.4734 16.2907 32.5593C16.2742 32.6453 16.2481 32.718 16.2125 32.7775C16.1769 32.8371 16.1309 32.8825 16.0744 32.9138C16.0179 32.9445 15.9501 32.9598 15.8709 32.9598C15.7709 32.9598 15.688 32.9325 15.6223 32.8779C15.5573 32.8233 15.5085 32.7444 15.476 32.6413C15.444 32.5375 15.4281 32.4126 15.4281 32.2666C15.4281 32.1229 15.4425 31.9996 15.4714 31.8965C15.5008 31.7927 15.5481 31.7132 15.6131 31.658C15.6782 31.6021 15.7641 31.5742 15.8709 31.5742C15.9722 31.5742 16.0557 31.6018 16.1213 31.6571C16.187 31.7117 16.2358 31.7909 16.2677 31.8946C16.2996 31.9977 16.3156 32.1217 16.3156 32.2666ZM15.5818 32.2666C15.5818 32.3918 15.5913 32.4961 15.6104 32.5796C15.6294 32.6631 15.6601 32.7257 15.7024 32.7674C15.7454 32.8085 15.8016 32.8291 15.8709 32.8291C15.9403 32.8291 15.9961 32.8085 16.0385 32.7674C16.0814 32.7263 16.1124 32.664 16.1315 32.5805C16.1511 32.497 16.1609 32.3924 16.1609 32.2666C16.1609 32.1432 16.1514 32.0401 16.1324 31.9572C16.1134 31.8737 16.0827 31.8111 16.0403 31.7694C15.998 31.727 15.9415 31.7059 15.8709 31.7059C15.8003 31.7059 15.7439 31.727 15.7015 31.7694C15.6592 31.8111 15.6285 31.8737 15.6095 31.9572C15.591 32.0401 15.5818 32.1432 15.5818 32.2666ZM17.3946 32.2666C17.3946 32.3758 17.3863 32.4734 17.3698 32.5593C17.3532 32.6453 17.3271 32.718 17.2915 32.7775C17.2559 32.8371 17.2099 32.8825 17.1534 32.9138C17.0969 32.9445 17.0291 32.9598 16.9499 32.9598C16.8499 32.9598 16.767 32.9325 16.7014 32.8779C16.6363 32.8233 16.5875 32.7444 16.555 32.6413C16.5231 32.5375 16.5071 32.4126 16.5071 32.2666C16.5071 32.1229 16.5215 31.9996 16.5504 31.8965C16.5798 31.7927 16.6271 31.7132 16.6922 31.658C16.7572 31.6021 16.8431 31.5742 16.9499 31.5742C17.0512 31.5742 17.1347 31.6018 17.2004 31.6571C17.266 31.7117 17.3148 31.7909 17.3467 31.8946C17.3787 31.9977 17.3946 32.1217 17.3946 32.2666ZM16.6609 32.2666C16.6609 32.3918 16.6704 32.4961 16.6894 32.5796C16.7084 32.6631 16.7391 32.7257 16.7815 32.7674C16.8244 32.8085 16.8806 32.8291 16.9499 32.8291C17.0193 32.8291 17.0752 32.8085 17.1175 32.7674C17.1605 32.7263 17.1915 32.664 17.2105 32.5805C17.2301 32.497 17.24 32.3924 17.24 32.2666C17.24 32.1432 17.2304 32.0401 17.2114 31.9572C17.1924 31.8737 17.1617 31.8111 17.1193 31.7694C17.077 31.727 17.0205 31.7059 16.9499 31.7059C16.8794 31.7059 16.8229 31.727 16.7805 31.7694C16.7382 31.8111 16.7075 31.8737 16.6885 31.9572C16.6701 32.0401 16.6609 32.1432 16.6609 32.2666ZM18.4736 32.2666C18.4736 32.3758 18.4654 32.4734 18.4488 32.5593C18.4322 32.6453 18.4061 32.718 18.3705 32.7775C18.3349 32.8371 18.2889 32.8825 18.2324 32.9138C18.176 32.9445 18.1081 32.9598 18.029 32.9598C17.9289 32.9598 17.8461 32.9325 17.7804 32.8779C17.7153 32.8233 17.6665 32.7444 17.634 32.6413C17.6021 32.5375 17.5861 32.4126 17.5861 32.2666C17.5861 32.1229 17.6005 31.9996 17.6294 31.8965C17.6589 31.7927 17.7061 31.7132 17.7712 31.658C17.8362 31.6021 17.9222 31.5742 18.029 31.5742C18.1302 31.5742 18.2137 31.6018 18.2794 31.6571C18.3451 31.7117 18.3939 31.7909 18.4258 31.8946C18.4577 31.9977 18.4736 32.1217 18.4736 32.2666ZM17.7399 32.2666C17.7399 32.3918 17.7494 32.4961 17.7684 32.5796C17.7874 32.6631 17.8181 32.7257 17.8605 32.7674C17.9034 32.8085 17.9596 32.8291 18.029 32.8291C18.0983 32.8291 18.1542 32.8085 18.1965 32.7674C18.2395 32.7263 18.2705 32.664 18.2895 32.5805C18.3092 32.497 18.319 32.3924 18.319 32.2666C18.319 32.1432 18.3095 32.0401 18.2904 31.9572C18.2714 31.8737 18.2407 31.8111 18.1984 31.7694C18.156 31.727 18.0995 31.7059 18.029 31.7059C17.9584 31.7059 17.9019 31.727 17.8596 31.7694C17.8172 31.8111 17.7865 31.8737 17.7675 31.9572C17.7491 32.0401 17.7399 32.1432 17.7399 32.2666Z" fill="#212121"/>
<path d="M14.9162 40.1836H14.767V39.2298C14.767 39.1936 14.767 39.1626 14.767 39.1368C14.7677 39.1104 14.7683 39.0865 14.7689 39.065C14.7701 39.0429 14.7716 39.0205 14.7735 38.9978C14.7545 39.0174 14.7367 39.0343 14.7201 39.0484C14.7035 39.0619 14.683 39.0788 14.6584 39.0991L14.5047 39.2224L14.4246 39.1184L14.7891 38.8376H14.9162V40.1836ZM15.8516 39.3605C15.943 39.3605 16.0225 39.3762 16.09 39.4075C16.1576 39.4382 16.2097 39.483 16.2466 39.5419C16.284 39.6008 16.3027 39.6723 16.3027 39.7564C16.3027 39.8485 16.2828 39.928 16.2429 39.9949C16.203 40.0611 16.1456 40.1124 16.0707 40.1486C15.9958 40.1842 15.9062 40.202 15.8019 40.202C15.7319 40.202 15.6668 40.1959 15.6067 40.1836C15.5465 40.1713 15.4959 40.1529 15.4548 40.1284V39.9829C15.4996 40.0099 15.5539 40.0314 15.6177 40.0473C15.6816 40.0633 15.7436 40.0713 15.8037 40.0713C15.8718 40.0713 15.9314 40.0605 15.9823 40.039C16.0339 40.017 16.0738 39.9838 16.102 39.9396C16.1309 39.8948 16.1453 39.8387 16.1453 39.7711C16.1453 39.6815 16.1177 39.6125 16.0624 39.564C16.0078 39.5149 15.9213 39.4903 15.8028 39.4903C15.7647 39.4903 15.723 39.4934 15.6776 39.4995C15.6322 39.5057 15.5947 39.5124 15.5653 39.5198L15.4879 39.4692L15.5395 38.8376H16.2088V38.9775H15.6702L15.6362 39.3835C15.6595 39.3786 15.6896 39.3737 15.7264 39.3688C15.7632 39.3633 15.8049 39.3605 15.8516 39.3605ZM17.3946 39.5087C17.3946 39.618 17.3863 39.7156 17.3698 39.8015C17.3532 39.8874 17.3271 39.9602 17.2915 40.0197C17.2559 40.0793 17.2099 40.1247 17.1534 40.156C17.0969 40.1867 17.0291 40.202 16.9499 40.202C16.8499 40.202 16.767 40.1747 16.7014 40.1201C16.6363 40.0654 16.5875 39.9866 16.555 39.8835C16.5231 39.7797 16.5071 39.6548 16.5071 39.5087C16.5071 39.3651 16.5215 39.2418 16.5504 39.1386C16.5798 39.0349 16.6271 38.9554 16.6922 38.9002C16.7572 38.8443 16.8431 38.8164 16.9499 38.8164C17.0512 38.8164 17.1347 38.844 17.2004 38.8993C17.266 38.9539 17.3148 39.0331 17.3467 39.1368C17.3787 39.2399 17.3946 39.3639 17.3946 39.5087ZM16.6609 39.5087C16.6609 39.634 16.6704 39.7383 16.6894 39.8218C16.7084 39.9052 16.7391 39.9679 16.7815 40.0096C16.8244 40.0507 16.8806 40.0713 16.9499 40.0713C17.0193 40.0713 17.0752 40.0507 17.1175 40.0096C17.1605 39.9685 17.1915 39.9062 17.2105 39.8227C17.2301 39.7392 17.24 39.6346 17.24 39.5087C17.24 39.3854 17.2304 39.2823 17.2114 39.1994C17.1924 39.1159 17.1617 39.0533 17.1193 39.0116C17.077 38.9692 17.0205 38.9481 16.9499 38.9481C16.8794 38.9481 16.8229 38.9692 16.7805 39.0116C16.7382 39.0533 16.7075 39.1159 16.6885 39.1994C16.6701 39.2823 16.6609 39.3854 16.6609 39.5087ZM18.4736 39.5087C18.4736 39.618 18.4654 39.7156 18.4488 39.8015C18.4322 39.8874 18.4061 39.9602 18.3705 40.0197C18.3349 40.0793 18.2889 40.1247 18.2324 40.156C18.176 40.1867 18.1081 40.202 18.029 40.202C17.9289 40.202 17.8461 40.1747 17.7804 40.1201C17.7153 40.0654 17.6665 39.9866 17.634 39.8835C17.6021 39.7797 17.5861 39.6548 17.5861 39.5087C17.5861 39.3651 17.6005 39.2418 17.6294 39.1386C17.6589 39.0349 17.7061 38.9554 17.7712 38.9002C17.8362 38.8443 17.9222 38.8164 18.029 38.8164C18.1302 38.8164 18.2137 38.844 18.2794 38.8993C18.3451 38.9539 18.3939 39.0331 18.4258 39.1368C18.4577 39.2399 18.4736 39.3639 18.4736 39.5087ZM17.7399 39.5087C17.7399 39.634 17.7494 39.7383 17.7684 39.8218C17.7874 39.9052 17.8181 39.9679 17.8605 40.0096C17.9034 40.0507 17.9596 40.0713 18.029 40.0713C18.0983 40.0713 18.1542 40.0507 18.1965 40.0096C18.2395 39.9685 18.2705 39.9062 18.2895 39.8227C18.3092 39.7392 18.319 39.6346 18.319 39.5087C18.319 39.3854 18.3095 39.2823 18.2904 39.1994C18.2714 39.1159 18.2407 39.0533 18.1984 39.0116C18.156 38.9692 18.0995 38.9481 18.029 38.9481C17.9584 38.9481 17.9019 38.9692 17.8596 39.0116C17.8172 39.0533 17.7865 39.1159 17.7675 39.1994C17.7491 39.2823 17.7399 39.3854 17.7399 39.5087Z" fill="#212121"/>
<path d="M14.9162 47.4258H14.767V46.472C14.767 46.4358 14.767 46.4048 14.767 46.379C14.7677 46.3526 14.7683 46.3287 14.7689 46.3072C14.7701 46.2851 14.7716 46.2627 14.7735 46.24C14.7545 46.2596 14.7367 46.2765 14.7201 46.2906C14.7035 46.3041 14.683 46.321 14.6584 46.3412L14.5047 46.4646L14.4246 46.3606L14.7891 46.0798H14.9162V47.4258ZM16.3156 46.7509C16.3156 46.8602 16.3073 46.9578 16.2907 47.0437C16.2742 47.1296 16.2481 47.2024 16.2125 47.2619C16.1769 47.3214 16.1309 47.3669 16.0744 47.3982C16.0179 47.4289 15.9501 47.4442 15.8709 47.4442C15.7709 47.4442 15.688 47.4169 15.6223 47.3623C15.5573 47.3076 15.5085 47.2288 15.476 47.1256C15.444 47.0219 15.4281 46.897 15.4281 46.7509C15.4281 46.6073 15.4425 46.4839 15.4714 46.3808C15.5008 46.2771 15.5481 46.1976 15.6131 46.1424C15.6782 46.0865 15.7641 46.0586 15.8709 46.0586C15.9722 46.0586 16.0557 46.0862 16.1213 46.1415C16.187 46.1961 16.2358 46.2753 16.2677 46.379C16.2996 46.4821 16.3156 46.6061 16.3156 46.7509ZM15.5818 46.7509C15.5818 46.8761 15.5913 46.9805 15.6104 47.064C15.6294 47.1474 15.6601 47.21 15.7024 47.2518C15.7454 47.2929 15.8016 47.3135 15.8709 47.3135C15.9403 47.3135 15.9961 47.2929 16.0385 47.2518C16.0814 47.2107 16.1124 47.1484 16.1315 47.0649C16.1511 46.9814 16.1609 46.8768 16.1609 46.7509C16.1609 46.6276 16.1514 46.5245 16.1324 46.4416C16.1134 46.3581 16.0827 46.2955 16.0403 46.2538C15.998 46.2114 15.9415 46.1902 15.8709 46.1902C15.8003 46.1902 15.7439 46.2114 15.7015 46.2538C15.6592 46.2955 15.6285 46.3581 15.6095 46.4416C15.591 46.5245 15.5818 46.6276 15.5818 46.7509ZM17.3946 46.7509C17.3946 46.8602 17.3863 46.9578 17.3698 47.0437C17.3532 47.1296 17.3271 47.2024 17.2915 47.2619C17.2559 47.3214 17.2099 47.3669 17.1534 47.3982C17.0969 47.4289 17.0291 47.4442 16.9499 47.4442C16.8499 47.4442 16.767 47.4169 16.7014 47.3623C16.6363 47.3076 16.5875 47.2288 16.555 47.1256C16.5231 47.0219 16.5071 46.897 16.5071 46.7509C16.5071 46.6073 16.5215 46.4839 16.5504 46.3808C16.5798 46.2771 16.6271 46.1976 16.6922 46.1424C16.7572 46.0865 16.8431 46.0586 16.9499 46.0586C17.0512 46.0586 17.1347 46.0862 17.2004 46.1415C17.266 46.1961 17.3148 46.2753 17.3467 46.379C17.3787 46.4821 17.3946 46.6061 17.3946 46.7509ZM16.6609 46.7509C16.6609 46.8761 16.6704 46.9805 16.6894 47.064C16.7084 47.1474 16.7391 47.21 16.7815 47.2518C16.8244 47.2929 16.8806 47.3135 16.9499 47.3135C17.0193 47.3135 17.0752 47.2929 17.1175 47.2518C17.1605 47.2107 17.1915 47.1484 17.2105 47.0649C17.2301 46.9814 17.24 46.8768 17.24 46.7509C17.24 46.6276 17.2304 46.5245 17.2114 46.4416C17.1924 46.3581 17.1617 46.2955 17.1193 46.2538C17.077 46.2114 17.0205 46.1902 16.9499 46.1902C16.8794 46.1902 16.8229 46.2114 16.7805 46.2538C16.7382 46.2955 16.7075 46.3581 16.6885 46.4416C16.6701 46.5245 16.6609 46.6276 16.6609 46.7509ZM18.4736 46.7509C18.4736 46.8602 18.4654 46.9578 18.4488 47.0437C18.4322 47.1296 18.4061 47.2024 18.3705 47.2619C18.3349 47.3214 18.2889 47.3669 18.2324 47.3982C18.176 47.4289 18.1081 47.4442 18.029 47.4442C17.9289 47.4442 17.8461 47.4169 17.7804 47.3623C17.7153 47.3076 17.6665 47.2288 17.634 47.1256C17.6021 47.0219 17.5861 46.897 17.5861 46.7509C17.5861 46.6073 17.6005 46.4839 17.6294 46.3808C17.6589 46.2771 17.7061 46.1976 17.7712 46.1424C17.8362 46.0865 17.9222 46.0586 18.029 46.0586C18.1302 46.0586 18.2137 46.0862 18.2794 46.1415C18.3451 46.1961 18.3939 46.2753 18.4258 46.379C18.4577 46.4821 18.4736 46.6061 18.4736 46.7509ZM17.7399 46.7509C17.7399 46.8761 17.7494 46.9805 17.7684 47.064C17.7874 47.1474 17.8181 47.21 17.8605 47.2518C17.9034 47.2929 17.9596 47.3135 18.029 47.3135C18.0983 47.3135 18.1542 47.2929 18.1965 47.2518C18.2395 47.2107 18.2705 47.1484 18.2895 47.0649C18.3092 46.9814 18.319 46.8768 18.319 46.7509C18.319 46.6276 18.3095 46.5245 18.2904 46.4416C18.2714 46.3581 18.2407 46.2955 18.1984 46.2538C18.156 46.2114 18.0995 46.1902 18.029 46.1902C17.9584 46.1902 17.9019 46.2114 17.8596 46.2538C17.8172 46.2955 17.7865 46.3581 17.7675 46.4416C17.7491 46.5245 17.7399 46.6276 17.7399 46.7509Z" fill="#212121"/>
<path d="M14.6971 53.8449C14.7885 53.8449 14.868 53.8605 14.9355 53.8918C15.003 53.9225 15.0552 53.9673 15.092 54.0263C15.1295 54.0852 15.1482 54.1567 15.1482 54.2408C15.1482 54.3328 15.1283 54.4123 15.0884 54.4792C15.0485 54.5455 14.9911 54.5968 14.9162 54.633C14.8413 54.6686 14.7517 54.6864 14.6474 54.6864C14.5774 54.6864 14.5123 54.6802 14.4522 54.668C14.392 54.6557 14.3414 54.6373 14.3003 54.6127V54.4673C14.3451 54.4943 14.3994 54.5158 14.4632 54.5317C14.5271 54.5477 14.5891 54.5556 14.6492 54.5556C14.7173 54.5556 14.7769 54.5449 14.8278 54.5234C14.8794 54.5013 14.9193 54.4682 14.9475 54.424C14.9763 54.3792 14.9908 54.323 14.9908 54.2555C14.9908 54.1659 14.9631 54.0968 14.9079 54.0484C14.8533 53.9993 14.7667 53.9747 14.6483 53.9747C14.6102 53.9747 14.5685 53.9778 14.5231 53.9839C14.4776 53.9901 14.4402 53.9968 14.4107 54.0042L14.3334 53.9535L14.385 53.322H15.0543V53.4619H14.5157L14.4816 53.8679C14.505 53.863 14.535 53.8581 14.5719 53.8532C14.6087 53.8477 14.6504 53.8449 14.6971 53.8449ZM16.2401 53.9931C16.2401 54.1024 16.2318 54.2 16.2153 54.2859C16.1987 54.3718 16.1726 54.4446 16.137 54.5041C16.1014 54.5636 16.0554 54.609 15.9989 54.6403C15.9424 54.671 15.8746 54.6864 15.7954 54.6864C15.6954 54.6864 15.6125 54.6591 15.5468 54.6044C15.4818 54.5498 15.433 54.4709 15.4005 54.3678C15.3685 54.2641 15.3526 54.1392 15.3526 53.9931C15.3526 53.8495 15.367 53.7261 15.3959 53.623C15.4253 53.5193 15.4726 53.4398 15.5376 53.3846C15.6027 53.3287 15.6886 53.3008 15.7954 53.3008C15.8967 53.3008 15.9802 53.3284 16.0458 53.3836C16.1115 53.4383 16.1603 53.5174 16.1922 53.6212C16.2242 53.7243 16.2401 53.8483 16.2401 53.9931ZM15.5063 53.9931C15.5063 54.1183 15.5159 54.2227 15.5349 54.3061C15.5539 54.3896 15.5846 54.4522 15.6269 54.494C15.6699 54.5351 15.7261 54.5556 15.7954 54.5556C15.8648 54.5556 15.9206 54.5351 15.963 54.494C16.006 54.4528 16.0369 54.3905 16.056 54.3071C16.0756 54.2236 16.0854 54.1189 16.0854 53.9931C16.0854 53.8698 16.0759 53.7666 16.0569 53.6838C16.0379 53.6003 16.0072 53.5377 15.9648 53.496C15.9225 53.4536 15.866 53.4324 15.7954 53.4324C15.7248 53.4324 15.6684 53.4536 15.626 53.496C15.5837 53.5377 15.553 53.6003 15.534 53.6838C15.5155 53.7666 15.5063 53.8698 15.5063 53.9931ZM17.3191 53.9931C17.3191 54.1024 17.3108 54.2 17.2943 54.2859C17.2777 54.3718 17.2516 54.4446 17.216 54.5041C17.1804 54.5636 17.1344 54.609 17.0779 54.6403C17.0214 54.671 16.9536 54.6864 16.8744 54.6864C16.7744 54.6864 16.6915 54.6591 16.6259 54.6044C16.5608 54.5498 16.512 54.4709 16.4795 54.3678C16.4476 54.2641 16.4316 54.1392 16.4316 53.9931C16.4316 53.8495 16.446 53.7261 16.4749 53.623C16.5043 53.5193 16.5516 53.4398 16.6167 53.3846C16.6817 53.3287 16.7677 53.3008 16.8744 53.3008C16.9757 53.3008 17.0592 53.3284 17.1249 53.3836C17.1905 53.4383 17.2393 53.5174 17.2713 53.6212C17.3032 53.7243 17.3191 53.8483 17.3191 53.9931ZM16.5854 53.9931C16.5854 54.1183 16.5949 54.2227 16.6139 54.3061C16.6329 54.3896 16.6636 54.4522 16.706 54.494C16.7489 54.5351 16.8051 54.5556 16.8744 54.5556C16.9438 54.5556 16.9997 54.5351 17.042 54.494C17.085 54.4528 17.116 54.3905 17.135 54.3071C17.1546 54.2236 17.1645 54.1189 17.1645 53.9931C17.1645 53.8698 17.1549 53.7666 17.1359 53.6838C17.1169 53.6003 17.0862 53.5377 17.0438 53.496C17.0015 53.4536 16.945 53.4324 16.8744 53.4324C16.8039 53.4324 16.7474 53.4536 16.705 53.496C16.6627 53.5377 16.632 53.6003 16.613 53.6838C16.5946 53.7666 16.5854 53.8698 16.5854 53.9931ZM18.5703 54.668H18.3853L17.9001 54.0134L17.7564 54.1423V54.668H17.5999V53.322H17.7564V53.9931C17.7914 53.9532 17.8273 53.9136 17.8642 53.8744C17.901 53.8345 17.9375 53.7943 17.9737 53.7537L18.3668 53.322H18.5501L18.0142 53.9057L18.5703 54.668Z" fill="#212121"/>
<path d="M14.8407 61.9102H14.6916V60.9563C14.6916 60.9201 14.6916 60.8891 14.6916 60.8634C14.6922 60.837 14.6928 60.813 14.6934 60.7915C14.6946 60.7695 14.6962 60.747 14.698 60.7243C14.679 60.744 14.6612 60.7609 14.6446 60.775C14.628 60.7885 14.6075 60.8054 14.5829 60.8256L14.4292 60.949L14.3491 60.8449L14.7136 60.5641H14.8407V61.9102ZM16.2401 61.2353C16.2401 61.3446 16.2318 61.4422 16.2153 61.5281C16.1987 61.614 16.1726 61.6867 16.137 61.7463C16.1014 61.8058 16.0554 61.8512 15.9989 61.8825C15.9424 61.9132 15.8746 61.9286 15.7954 61.9286C15.6954 61.9286 15.6125 61.9013 15.5468 61.8466C15.4818 61.792 15.433 61.7131 15.4005 61.61C15.3685 61.5063 15.3526 61.3814 15.3526 61.2353C15.3526 61.0917 15.367 60.9683 15.3959 60.8652C15.4253 60.7615 15.4726 60.682 15.5376 60.6267C15.6027 60.5709 15.6886 60.543 15.7954 60.543C15.8967 60.543 15.9802 60.5706 16.0458 60.6258C16.1115 60.6805 16.1603 60.7596 16.1922 60.8634C16.2242 60.9665 16.2401 61.0905 16.2401 61.2353ZM15.5063 61.2353C15.5063 61.3605 15.5159 61.4649 15.5349 61.5483C15.5539 61.6318 15.5846 61.6944 15.6269 61.7362C15.6699 61.7773 15.7261 61.7978 15.7954 61.7978C15.8648 61.7978 15.9206 61.7773 15.963 61.7362C16.006 61.695 16.0369 61.6327 16.056 61.5493C16.0756 61.4658 16.0854 61.3611 16.0854 61.2353C16.0854 61.1119 16.0759 61.0088 16.0569 60.926C16.0379 60.8425 16.0072 60.7799 15.9648 60.7381C15.9225 60.6958 15.866 60.6746 15.7954 60.6746C15.7248 60.6746 15.6684 60.6958 15.626 60.7381C15.5837 60.7799 15.553 60.8425 15.534 60.926C15.5155 61.0088 15.5063 61.1119 15.5063 61.2353ZM17.3191 61.2353C17.3191 61.3446 17.3108 61.4422 17.2943 61.5281C17.2777 61.614 17.2516 61.6867 17.216 61.7463C17.1804 61.8058 17.1344 61.8512 17.0779 61.8825C17.0214 61.9132 16.9536 61.9286 16.8744 61.9286C16.7744 61.9286 16.6915 61.9013 16.6259 61.8466C16.5608 61.792 16.512 61.7131 16.4795 61.61C16.4476 61.5063 16.4316 61.3814 16.4316 61.2353C16.4316 61.0917 16.446 60.9683 16.4749 60.8652C16.5043 60.7615 16.5516 60.682 16.6167 60.6267C16.6817 60.5709 16.7677 60.543 16.8744 60.543C16.9757 60.543 17.0592 60.5706 17.1249 60.6258C17.1905 60.6805 17.2393 60.7596 17.2713 60.8634C17.3032 60.9665 17.3191 61.0905 17.3191 61.2353ZM16.5854 61.2353C16.5854 61.3605 16.5949 61.4649 16.6139 61.5483C16.6329 61.6318 16.6636 61.6944 16.706 61.7362C16.7489 61.7773 16.8051 61.7978 16.8744 61.7978C16.9438 61.7978 16.9997 61.7773 17.042 61.7362C17.085 61.695 17.116 61.6327 17.135 61.5493C17.1546 61.4658 17.1645 61.3611 17.1645 61.2353C17.1645 61.1119 17.1549 61.0088 17.1359 60.926C17.1169 60.8425 17.0862 60.7799 17.0438 60.7381C17.0015 60.6958 16.945 60.6746 16.8744 60.6746C16.8039 60.6746 16.7474 60.6958 16.705 60.7381C16.6627 60.7799 16.632 60.8425 16.613 60.926C16.5946 61.0088 16.5854 61.1119 16.5854 61.2353ZM18.5703 61.9102H18.3853L17.9001 61.2556L17.7564 61.3845V61.9102H17.5999V60.5641H17.7564V61.2353C17.7914 61.1954 17.8273 61.1558 17.8642 61.1165C17.901 61.0766 17.9375 61.0364 17.9737 60.9959L18.3668 60.5641H18.5501L18.0142 61.1478L18.5703 61.9102Z" fill="#212121"/>
<path d="M18.4745 68.4775C18.4745 68.5867 18.4662 68.6843 18.4496 68.7703C18.433 68.8562 18.407 68.9289 18.3714 68.9885C18.3358 69.048 18.2897 69.0934 18.2333 69.1247C18.1768 69.1554 18.109 69.1708 18.0298 69.1708C17.9298 69.1708 17.8469 69.1434 17.7812 69.0888C17.7162 69.0342 17.6674 68.9553 17.6348 68.8522C17.6029 68.7485 17.587 68.6236 17.587 68.4775C17.587 68.3339 17.6014 68.2105 17.6302 68.1074C17.6597 68.0037 17.707 67.9242 17.772 67.8689C17.8371 67.8131 17.923 67.7852 18.0298 67.7852C18.1311 67.7852 18.2145 67.8128 18.2802 67.868C18.3459 67.9226 18.3947 68.0018 18.4266 68.1055C18.4585 68.2087 18.4745 68.3326 18.4745 68.4775ZM17.7407 68.4775C17.7407 68.6027 17.7502 68.707 17.7692 68.7905C17.7883 68.874 17.819 68.9366 17.8613 68.9783C17.9043 69.0195 17.9604 69.04 18.0298 69.04C18.0992 69.04 18.155 69.0195 18.1974 68.9783C18.2403 68.9372 18.2713 68.8749 18.2903 68.7914C18.31 68.708 18.3198 68.6033 18.3198 68.4775C18.3198 68.3541 18.3103 68.251 18.2913 68.1682C18.2722 68.0847 18.2415 68.0221 18.1992 67.9803C18.1568 67.938 18.1004 67.9168 18.0298 67.9168C17.9592 67.9168 17.9027 67.938 17.8604 67.9803C17.818 68.0221 17.7874 68.0847 17.7683 68.1682C17.7499 68.251 17.7407 68.3541 17.7407 68.4775Z" fill="#212121"/>
<path d="M29.581 71.6602H29.4318V70.7063C29.4318 70.6701 29.4318 70.6391 29.4318 70.6134C29.4325 70.587 29.4331 70.563 29.4337 70.5415C29.4349 70.5195 29.4364 70.497 29.4383 70.4743C29.4193 70.494 29.4015 70.5109 29.3849 70.525C29.3683 70.5385 29.3478 70.5554 29.3232 70.5756L29.1694 70.699L29.0894 70.5949L29.4539 70.3141H29.581V71.6602Z" fill="#212121"/>
<path d="M22.124 70.9853C22.124 71.0946 22.1157 71.1922 22.0992 71.2781C22.0826 71.364 22.0565 71.4367 22.0209 71.4963C21.9853 71.5558 21.9393 71.6012 21.8828 71.6325C21.8264 71.6632 21.7585 71.6786 21.6794 71.6786C21.5793 71.6786 21.4964 71.6513 21.4308 71.5966C21.3657 71.542 21.3169 71.4631 21.2844 71.36C21.2525 71.2563 21.2365 71.1314 21.2365 70.9853C21.2365 70.8417 21.2509 70.7183 21.2798 70.6152C21.3092 70.5115 21.3565 70.432 21.4216 70.3767C21.4866 70.3209 21.5726 70.293 21.6794 70.293C21.7806 70.293 21.8641 70.3206 21.9298 70.3758C21.9954 70.4305 22.0442 70.5096 22.0762 70.6134C22.1081 70.7165 22.124 70.8405 22.124 70.9853ZM21.3903 70.9853C21.3903 71.1105 21.3998 71.2149 21.4188 71.2983C21.4378 71.3818 21.4685 71.4444 21.5109 71.4862C21.5538 71.5273 21.61 71.5478 21.6794 71.5478C21.7487 71.5478 21.8046 71.5273 21.8469 71.4862C21.8899 71.445 21.9209 71.3827 21.9399 71.2993C21.9595 71.2158 21.9694 71.1111 21.9694 70.9853C21.9694 70.8619 21.9598 70.7588 21.9408 70.676C21.9218 70.5925 21.8911 70.5299 21.8488 70.4881C21.8064 70.4458 21.7499 70.4246 21.6794 70.4246C21.6088 70.4246 21.5523 70.4458 21.5099 70.4881C21.4676 70.5299 21.4369 70.5925 21.4179 70.676C21.3995 70.7588 21.3903 70.8619 21.3903 70.9853Z" fill="#212121"/>
<path d="M37.6714 71.6602H36.7894V71.5322L37.1493 71.1667C37.2162 71.0992 37.2724 71.039 37.3178 70.9862C37.3639 70.9334 37.3988 70.8816 37.4228 70.8306C37.4467 70.7791 37.4587 70.7226 37.4587 70.6612C37.4587 70.5851 37.436 70.5271 37.3906 70.4872C37.3457 70.4467 37.2865 70.4265 37.2129 70.4265C37.1484 70.4265 37.0913 70.4375 37.0416 70.4596C36.9919 70.4817 36.941 70.513 36.8888 70.5535L36.8069 70.4504C36.8425 70.4203 36.8811 70.3936 36.9229 70.3703C36.9652 70.347 37.0103 70.3286 37.0582 70.3151C37.1067 70.3016 37.1582 70.2948 37.2129 70.2948C37.2957 70.2948 37.3672 70.3092 37.4274 70.3381C37.4875 70.3669 37.5339 70.4081 37.5664 70.4615C37.5995 70.5148 37.6161 70.5784 37.6161 70.652C37.6161 70.7232 37.602 70.7895 37.5738 70.8509C37.5455 70.9117 37.5059 70.9721 37.455 71.0323C37.4041 71.0918 37.3445 71.155 37.2764 71.2219L36.9836 71.5138V71.5202H37.6714V71.6602Z" fill="#212121"/>
<path d="M45.6353 70.6281C45.6353 70.6882 45.6236 70.7404 45.6003 70.7846C45.577 70.8288 45.5445 70.865 45.5027 70.8932C45.461 70.9209 45.4119 70.9402 45.3554 70.9512V70.9586C45.4622 70.9721 45.5423 71.0065 45.5957 71.0617C45.6497 71.117 45.6767 71.1894 45.6767 71.279C45.6767 71.357 45.6583 71.426 45.6215 71.4862C45.5853 71.5463 45.5294 71.5936 45.4539 71.6279C45.3791 71.6617 45.283 71.6786 45.1658 71.6786C45.0946 71.6786 45.0286 71.6727 44.9678 71.6611C44.9077 71.65 44.85 71.6313 44.7947 71.6049V71.4613C44.8506 71.4889 44.9114 71.5107 44.977 71.5267C45.0427 71.542 45.1062 71.5497 45.1676 71.5497C45.2904 71.5497 45.3791 71.5254 45.4337 71.4769C45.4883 71.4278 45.5156 71.3609 45.5156 71.2762C45.5156 71.2179 45.5003 71.171 45.4696 71.1354C45.4395 71.0992 45.3959 71.0728 45.3389 71.0562C45.2824 71.039 45.2143 71.0304 45.1345 71.0304H45.0001V70.8997H45.1354C45.2084 70.8997 45.2704 70.8889 45.3214 70.8675C45.3723 70.846 45.411 70.8159 45.4374 70.7772C45.4644 70.738 45.4779 70.6916 45.4779 70.6382C45.4779 70.5701 45.4552 70.5176 45.4097 70.4808C45.3643 70.4433 45.3026 70.4246 45.2247 70.4246C45.1768 70.4246 45.1332 70.4295 45.094 70.4394C45.0547 70.4492 45.0179 70.4627 44.9835 70.4799C44.9491 70.497 44.9147 70.517 44.8804 70.5397L44.803 70.4348C44.8521 70.3967 44.912 70.3639 44.9826 70.3362C45.0531 70.3086 45.1332 70.2948 45.2229 70.2948C45.3603 70.2948 45.4635 70.3261 45.5322 70.3887C45.6009 70.4513 45.6353 70.5311 45.6353 70.6281Z" fill="#212121"/>
<path d="M53.5296 71.3481H53.328V71.6602H53.1788V71.3481H52.5279V71.2192L53.1687 70.3068H53.328V71.21H53.5296V71.3481ZM53.1788 71.21V70.7699C53.1788 70.7361 53.1791 70.7057 53.1797 70.6787C53.1803 70.6511 53.1813 70.6256 53.1825 70.6023C53.1837 70.5784 53.1846 70.5557 53.1853 70.5342C53.1865 70.5127 53.1874 70.4915 53.188 70.4707H53.1806C53.169 70.4952 53.1555 70.5213 53.1401 70.5489C53.1254 70.5759 53.1104 70.6002 53.095 70.6216L52.6798 71.21H53.1788Z" fill="#212121"/>
<path d="M60.785 70.8371C60.8765 70.8371 60.956 70.8527 61.0235 70.884C61.091 70.9147 61.1432 70.9595 61.18 71.0185C61.2174 71.0774 61.2361 71.1489 61.2361 71.233C61.2361 71.325 61.2162 71.4045 61.1763 71.4714C61.1364 71.5377 61.079 71.589 61.0041 71.6252C60.9293 71.6608 60.8396 71.6786 60.7353 71.6786C60.6653 71.6786 60.6003 71.6724 60.5401 71.6602C60.48 71.6479 60.4293 71.6295 60.3882 71.6049V71.4595C60.433 71.4865 60.4873 71.5079 60.5512 71.5239C60.615 71.5399 60.677 71.5478 60.7371 71.5478C60.8053 71.5478 60.8648 71.5371 60.9158 71.5156C60.9673 71.4935 61.0072 71.4604 61.0354 71.4162C61.0643 71.3714 61.0787 71.3152 61.0787 71.2477C61.0787 71.1581 61.0511 71.089 60.9959 71.0405C60.9412 70.9914 60.8547 70.9669 60.7362 70.9669C60.6982 70.9669 60.6564 70.97 60.611 70.9761C60.5656 70.9822 60.5282 70.989 60.4987 70.9964L60.4214 70.9457L60.4729 70.3141H61.1422V70.4541H60.6036L60.5696 70.8601C60.5929 70.8552 60.623 70.8503 60.6598 70.8454C60.6966 70.8398 60.7384 70.8371 60.785 70.8371Z" fill="#212121"/>
<path d="M68.1508 71.0847C68.1508 71.0037 68.1563 70.9245 68.1674 70.8472C68.1791 70.7699 68.1984 70.6981 68.2254 70.6318C68.2524 70.5649 68.2892 70.5063 68.3359 70.4559C68.3825 70.4056 68.4405 70.3663 68.5099 70.3381C68.5799 70.3092 68.6636 70.2948 68.7612 70.2948C68.7888 70.2948 68.8186 70.2963 68.8505 70.2994C68.8824 70.3019 68.9088 70.3062 68.9297 70.3123V70.444C68.907 70.436 68.8809 70.4301 68.8515 70.4265C68.8226 70.4228 68.7934 70.4209 68.764 70.4209C68.6498 70.4209 68.5599 70.4458 68.4942 70.4955C68.4292 70.5452 68.3822 70.6127 68.3534 70.6981C68.3245 70.7828 68.308 70.8782 68.3037 70.9844H68.3138C68.3328 70.9537 68.3571 70.9261 68.3865 70.9015C68.416 70.8764 68.4516 70.8564 68.4933 70.8417C68.5357 70.827 68.5848 70.8196 68.6406 70.8196C68.7192 70.8196 68.7876 70.8355 68.8459 70.8675C68.9048 70.8994 68.9503 70.9457 68.9822 71.0065C69.0147 71.0672 69.031 71.1409 69.031 71.2274C69.031 71.3201 69.0138 71.4002 68.9794 71.4677C68.9451 71.5353 68.8959 71.5874 68.8321 71.6243C68.7689 71.6605 68.6934 71.6786 68.6056 71.6786C68.54 71.6786 68.4795 71.666 68.4243 71.6408C68.369 71.6157 68.3208 71.5782 68.2797 71.5285C68.2392 71.4788 68.2076 71.4171 68.1849 71.3434C68.1622 71.2692 68.1508 71.1829 68.1508 71.0847ZM68.6038 71.5497C68.6873 71.5497 68.7542 71.523 68.8045 71.4696C68.8548 71.4162 68.88 71.3355 68.88 71.2274C68.88 71.1391 68.8576 71.0691 68.8128 71.0175C68.768 70.966 68.7005 70.9402 68.6102 70.9402C68.5489 70.9402 68.4955 70.9531 68.45 70.9789C68.4046 71.004 68.3693 71.0359 68.3442 71.0746C68.319 71.1133 68.3064 71.1526 68.3064 71.1925C68.3064 71.233 68.3122 71.2741 68.3239 71.3158C68.3362 71.3576 68.3546 71.3962 68.3791 71.4318C68.4037 71.4674 68.4347 71.496 68.4721 71.5175C68.5096 71.5389 68.5535 71.5497 68.6038 71.5497Z" fill="#212121"/>
<path d="M75.852 71.6602L76.4044 70.4541H75.6707V70.3141H76.5683V70.432L76.0196 71.6602H75.852Z" fill="#212121"/>
<path d="M20.9277 69.1875H81.5001" stroke="#D4D4D4" stroke-width="0.23569"/>
<rect x="26.8184" y="44.4414" width="1.88552" height="24.7475" fill="#55AA2F"/>
<rect x="29.1758" y="58.3477" width="1.88552" height="10.8418" fill="#FFFB20"/>
<rect x="34.5977" y="28.6484" width="1.88552" height="40.5387" fill="#55AA2F"/>
<rect x="36.9551" y="38.5469" width="1.88552" height="30.6397" fill="#FFFB20"/>
<rect x="42.377" y="44.4414" width="1.88552" height="24.7475" fill="#55AA2F"/>
<rect x="44.7344" y="58.3477" width="1.88552" height="10.8418" fill="#FFFB20"/>
<rect x="50.1523" y="35.4805" width="1.88552" height="33.7037" fill="#55AA2F"/>
<rect x="52.5098" y="46.793" width="1.88552" height="22.3906" fill="#FFFB20"/>
<rect x="57.9316" y="44.4414" width="1.88552" height="24.7475" fill="#55AA2F"/>
<rect x="60.2891" y="58.3477" width="1.88552" height="10.8418" fill="#FFFB20"/>
<rect x="65.709" y="59.2852" width="1.88552" height="9.89899" fill="#55AA2F"/>
<rect x="68.0664" y="64.707" width="1.88552" height="4.47811" fill="#FFFB20"/>
<rect x="73.4863" y="41.6133" width="1.88552" height="27.5758" fill="#55AA2F"/>
<rect x="75.8438" y="49.625" width="1.88552" height="19.5623" fill="#FFFB20"/>
<g filter="url(#filter0_d_7997_48539)">
<path d="M36.8369 24.6406C37.4222 24.6409 37.897 25.116 37.8975 25.7012V26.1729C37.8975 26.7585 37.4225 27.2332 36.8369 27.2334H35.8535L35.4229 27.665L34.9912 27.2334H34.0078C33.4223 27.2331 32.9473 26.7584 32.9473 26.1729V25.7012C32.9477 25.116 33.4226 24.641 34.0078 24.6406H36.8369Z" fill="white"/>
</g>
<g filter="url(#filter1_d_7997_48539)">
<path d="M39.1943 35.4805C39.7795 35.4809 40.2544 35.9559 40.2549 36.541V37.0127C40.2549 37.5982 39.7798 38.0728 39.1943 38.0732H38.2109L37.7793 38.5049L37.3486 38.0732H36.3652C35.7797 38.073 35.3047 37.5983 35.3047 37.0127V36.541C35.3051 35.9558 35.7799 35.4807 36.3652 35.4805H39.1943Z" fill="white"/>
</g>
<g filter="url(#filter2_d_7997_48539)">
<path d="M29.2959 41.375C29.8813 41.3752 30.3562 41.8502 30.3564 42.4355V42.9072C30.3564 43.4928 29.8815 43.9675 29.2959 43.9678H28.3125L27.8818 44.3994L27.4502 43.9678H26.4668C25.8813 43.9675 25.4062 43.4928 25.4062 42.9072V42.4355C25.4065 41.8502 25.8814 41.3753 26.4668 41.375H29.2959Z" fill="white"/>
</g>
<g filter="url(#filter3_d_7997_48539)">
<path d="M31.415 55.2812C32.0005 55.2815 32.4754 55.7564 32.4756 56.3418V56.8135C32.4754 57.3989 32.0005 57.8738 31.415 57.874H30.4307L30.001 58.3047L29.5703 57.874H28.5859C28.0006 57.8737 27.5256 57.3988 27.5254 56.8135V56.3418C27.5256 55.7564 28.0006 55.2816 28.5859 55.2812H31.415Z" fill="white"/>
</g>
<g filter="url(#filter4_d_7997_48539)">
<path d="M44.8506 41.6133C45.4359 41.6135 45.9107 42.0886 45.9111 42.6738V43.1455C45.9111 43.7311 45.4361 44.2058 44.8506 44.2061H43.8672L43.4365 44.6377L43.0049 44.2061H42.0215C41.4359 44.2058 40.9609 43.7311 40.9609 43.1455V42.6738C40.9614 42.0886 41.4362 41.6135 42.0215 41.6133H44.8506Z" fill="white"/>
</g>
<g filter="url(#filter5_d_7997_48539)">
<path d="M47.2061 55.2812C47.7915 55.2815 48.2664 55.7564 48.2666 56.3418V56.8135C48.2664 57.3989 47.7915 57.8738 47.2061 57.874H46.2227L45.792 58.3047L45.3613 57.874H44.377C43.7917 57.8736 43.3166 57.3988 43.3164 56.8135V56.3418C43.3166 55.7565 43.7917 55.2817 44.377 55.2812H47.2061Z" fill="white"/>
</g>
<g filter="url(#filter6_d_7997_48539)">
<path d="M52.6279 32.4219C53.2134 32.4221 53.6883 32.897 53.6885 33.4824V33.9541C53.6884 34.5397 53.2135 35.0144 52.6279 35.0146H51.6455L51.2139 35.4453L50.7822 35.0146H49.7988C49.2135 35.0142 48.7383 34.5395 48.7383 33.9541V33.4824C48.7385 32.8971 49.2136 32.4223 49.7988 32.4219H52.6279Z" fill="white"/>
</g>
<g filter="url(#filter7_d_7997_48539)">
<path d="M54.9854 43.7344C55.5708 43.7346 56.0457 44.2095 56.0459 44.7949V45.2666C56.0457 45.852 55.5707 46.3269 54.9854 46.3271H54.001L53.5703 46.7578L53.1406 46.3271H52.1562C51.5708 46.3269 51.0959 45.852 51.0957 45.2666V44.7949C51.0959 44.2095 51.5708 43.7346 52.1562 43.7344H54.9854Z" fill="white"/>
</g>
<g filter="url(#filter8_d_7997_48539)">
<path d="M60.1709 41.375C60.7561 41.3755 61.2312 41.8503 61.2314 42.4355V42.9072C61.2314 43.4927 60.7563 43.9673 60.1709 43.9678H59.1875L58.7559 44.3994L58.3242 43.9678H57.3418C56.7562 43.9676 56.2812 43.4929 56.2812 42.9072V42.4355C56.2815 41.8501 56.7564 41.3752 57.3418 41.375H60.1709Z" fill="white"/>
</g>
<g filter="url(#filter9_d_7997_48539)">
<path d="M62.5283 55.2812C63.1137 55.2815 63.5887 55.7564 63.5889 56.3418V56.8135C63.5886 57.3989 63.1137 57.8738 62.5283 57.874H61.5439L61.1143 58.3047L60.6836 57.874H59.6992C59.1138 57.8738 58.6389 57.3989 58.6387 56.8135V56.3418C58.6389 55.7564 59.1138 55.2815 59.6992 55.2812H62.5283Z" fill="white"/>
</g>
<g filter="url(#filter10_d_7997_48539)">
<path d="M68.1826 56.2266C68.768 56.2268 69.243 56.7017 69.2432 57.2871V57.7588C69.2431 58.3444 68.7682 58.8191 68.1826 58.8193H67.2002L66.7686 59.25L66.3369 58.8193H65.3535C64.7681 58.8189 64.293 58.3443 64.293 57.7588V57.2871C64.2932 56.7018 64.7682 56.227 65.3535 56.2266H68.1826Z" fill="white"/>
</g>
<g filter="url(#filter11_d_7997_48539)">
<path d="M70.3037 61.6445C70.8891 61.6448 71.3641 62.1196 71.3643 62.7051V63.1768C71.3642 63.7623 70.8892 64.2371 70.3037 64.2373H69.3213L68.8896 64.668L68.458 64.2373H67.4746C66.8893 64.2368 66.4141 63.7622 66.4141 63.1768V62.7051C66.4143 62.1198 66.8894 61.645 67.4746 61.6445H70.3037Z" fill="white"/>
</g>
<g filter="url(#filter12_d_7997_48539)">
<path d="M75.7256 38.5469C76.311 38.5471 76.7859 39.022 76.7861 39.6074V40.0791C76.7861 40.6647 76.3111 41.1394 75.7256 41.1396H74.7432L74.3115 41.5703L73.8799 41.1396H72.8965C72.3111 41.1392 71.836 40.6646 71.8359 40.0791V39.6074C71.8361 39.0221 72.3112 38.5473 72.8965 38.5469H75.7256Z" fill="white"/>
</g>
<g filter="url(#filter13_d_7997_48539)">
<path d="M78.083 46.5586C78.6684 46.5589 79.1434 47.0337 79.1436 47.6191V48.0908C79.1434 48.6763 78.6684 49.1511 78.083 49.1514H77.0996L76.668 49.582L76.2373 49.1514H75.2539C74.6684 49.1512 74.1935 48.6763 74.1934 48.0908V47.6191C74.1936 47.0337 74.6684 46.5588 75.2539 46.5586H78.083Z" fill="white"/>
</g>
<path d="M34.714 26.7578H34.0304V26.6356L34.2921 26.3704C34.3428 26.3189 34.3844 26.2745 34.4171 26.2372C34.4498 26.1994 34.474 26.1638 34.4896 26.1301C34.5057 26.0965 34.5138 26.0599 34.5138 26.0204C34.5138 25.9716 34.4998 25.9347 34.4717 25.9099C34.4436 25.8846 34.4065 25.8719 34.3605 25.8719C34.3168 25.8719 34.2763 25.8806 34.239 25.8981C34.2021 25.9152 34.1639 25.9396 34.1243 25.9713L34.0353 25.8643C34.0634 25.8404 34.0933 25.8185 34.125 25.7987C34.1573 25.7789 34.1932 25.7633 34.2328 25.7518C34.2723 25.7398 34.3175 25.7338 34.3681 25.7338C34.4321 25.7338 34.4873 25.7453 34.5338 25.7683C34.5803 25.7909 34.616 25.8224 34.6408 25.8629C34.6662 25.9034 34.6788 25.9506 34.6788 26.0045C34.6788 26.0588 34.668 26.109 34.6464 26.155C34.6247 26.201 34.5939 26.2466 34.5538 26.2917C34.5138 26.3364 34.4661 26.3849 34.4109 26.4374L34.2362 26.608V26.6156H34.714V26.7578ZM35.5822 26.7578H34.8986V26.6356L35.1603 26.3704C35.211 26.3189 35.2526 26.2745 35.2853 26.2372C35.318 26.1994 35.3422 26.1638 35.3578 26.1301C35.3739 26.0965 35.382 26.0599 35.382 26.0204C35.382 25.9716 35.3679 25.9347 35.3399 25.9099C35.3118 25.8846 35.2747 25.8719 35.2287 25.8719C35.185 25.8719 35.1444 25.8806 35.1072 25.8981C35.0703 25.9152 35.0321 25.9396 34.9925 25.9713L34.9035 25.8643C34.9315 25.8404 34.9615 25.8185 34.9932 25.7987C35.0254 25.7789 35.0614 25.7633 35.1009 25.7518C35.1405 25.7398 35.1856 25.7338 35.2363 25.7338C35.3003 25.7338 35.3555 25.7453 35.402 25.7683C35.4485 25.7909 35.4842 25.8224 35.509 25.8629C35.5343 25.9034 35.547 25.9506 35.547 26.0045C35.547 26.0588 35.5362 26.109 35.5146 26.155C35.4929 26.201 35.4621 26.2466 35.422 26.2917C35.382 26.3364 35.3343 26.3849 35.2791 26.4374L35.1044 26.608V26.6156H35.5822V26.7578ZM36.244 26.7578H36.081V26.1081C36.081 26.0864 36.0812 26.0648 36.0817 26.0431C36.0821 26.0215 36.0826 26.0003 36.0831 25.9796C36.084 25.9589 36.0851 25.9391 36.0865 25.9202C36.0768 25.9308 36.0649 25.9423 36.0506 25.9548C36.0368 25.9672 36.0221 25.9801 36.0064 25.9934L35.8904 26.086L35.8089 25.9831L36.1086 25.7483H36.244V26.7578ZM37.3186 26.7578H36.635V26.6356L36.8967 26.3704C36.9473 26.3189 36.989 26.2745 37.0217 26.2372C37.0544 26.1994 37.0785 26.1638 37.0942 26.1301C37.1103 26.0965 37.1184 26.0599 37.1184 26.0204C37.1184 25.9716 37.1043 25.9347 37.0762 25.9099C37.0482 25.8846 37.0111 25.8719 36.9651 25.8719C36.9213 25.8719 36.8808 25.8806 36.8435 25.8981C36.8067 25.9152 36.7685 25.9396 36.7289 25.9713L36.6398 25.8643C36.6679 25.8404 36.6978 25.8185 36.7296 25.7987C36.7618 25.7789 36.7977 25.7633 36.8373 25.7518C36.8769 25.7398 36.922 25.7338 36.9727 25.7338C37.0366 25.7338 37.0919 25.7453 37.1384 25.7683C37.1849 25.7909 37.2205 25.8224 37.2454 25.8629C37.2707 25.9034 37.2834 25.9506 37.2834 26.0045C37.2834 26.0588 37.2726 26.109 37.2509 26.155C37.2293 26.201 37.1984 26.2466 37.1584 26.2917C37.1184 26.3364 37.0707 26.3849 37.0155 26.4374L36.8408 26.608V26.6156H37.3186V26.7578Z" fill="#212121"/>
<path d="M36.865 37.6016H36.702V36.9518C36.702 36.9302 36.7023 36.9085 36.7027 36.8869C36.7032 36.8653 36.7037 36.8441 36.7041 36.8234C36.705 36.8027 36.7062 36.7829 36.7076 36.764C36.6979 36.7746 36.6859 36.7861 36.6717 36.7985C36.6578 36.8109 36.6431 36.8238 36.6275 36.8372L36.5115 36.9297L36.43 36.8268L36.7297 36.5921H36.865V37.6016ZM37.9762 37.3799H37.8395V37.6016H37.6793V37.3799H37.2201V37.257L37.6814 36.5893H37.8395V37.2453H37.9762V37.3799ZM37.6793 37.2453V36.9946C37.6793 36.9739 37.6796 36.953 37.68 36.9318C37.6809 36.9101 37.6819 36.8894 37.6828 36.8696C37.6837 36.8498 37.6846 36.8317 37.6855 36.8151C37.6865 36.7981 37.6872 36.784 37.6876 36.773H37.6821C37.6733 36.7914 37.6637 36.8103 37.6531 36.8296C37.6425 36.8485 37.6312 36.8669 37.6193 36.8848L37.3707 37.2453H37.6793ZM38.4674 36.9704C38.5323 36.9704 38.5894 36.9822 38.6387 37.0057C38.6884 37.0287 38.727 37.0627 38.7547 37.1079C38.7823 37.1525 38.7961 37.2073 38.7961 37.2722C38.7961 37.3431 38.7811 37.4043 38.7512 37.4559C38.7213 37.507 38.6773 37.5463 38.6193 37.5739C38.5613 37.6016 38.4907 37.6154 38.4073 37.6154C38.3544 37.6154 38.3049 37.6108 38.2589 37.6016C38.2133 37.5924 38.174 37.5785 38.1408 37.5601V37.4137C38.1753 37.4331 38.2168 37.449 38.2651 37.4614C38.3134 37.4734 38.3597 37.4793 38.4039 37.4793C38.4508 37.4793 38.4911 37.4724 38.5247 37.4586C38.5583 37.4448 38.5841 37.4236 38.6021 37.3951C38.6205 37.3666 38.6297 37.3304 38.6297 37.2867C38.6297 37.2287 38.611 37.184 38.5738 37.1527C38.5369 37.121 38.4792 37.1051 38.4004 37.1051C38.3728 37.1051 38.3434 37.1076 38.3121 37.1127C38.2812 37.1173 38.2554 37.1224 38.2347 37.1279L38.1636 37.0858L38.2016 36.5921H38.7264V36.735H38.3445L38.3224 36.9863C38.339 36.9826 38.3588 36.9792 38.3818 36.976C38.4048 36.9723 38.4334 36.9704 38.4674 36.9704ZM39.676 37.0961C39.676 37.1776 39.6696 37.2506 39.6567 37.315C39.6443 37.379 39.6245 37.4333 39.5973 37.478C39.5701 37.5226 39.5347 37.5567 39.491 37.5802C39.4472 37.6036 39.3943 37.6154 39.3321 37.6154C39.2544 37.6154 39.1901 37.5949 39.1395 37.5539C39.0889 37.5125 39.0513 37.4531 39.0269 37.3758C39.0026 37.298 38.9904 37.2048 38.9904 37.0961C38.9904 36.9875 39.0014 36.8945 39.0235 36.8172C39.0461 36.7394 39.0824 36.6797 39.1326 36.6383C39.1828 36.5969 39.2493 36.5762 39.3321 36.5762C39.4104 36.5762 39.4749 36.5969 39.5255 36.6383C39.5766 36.6793 39.6143 36.7387 39.6387 36.8165C39.6636 36.8938 39.676 36.987 39.676 37.0961ZM39.154 37.0961C39.154 37.1813 39.1595 37.2524 39.1706 37.3095C39.1821 37.3666 39.201 37.4094 39.2272 37.4379C39.2534 37.466 39.2884 37.48 39.3321 37.48C39.3759 37.48 39.4109 37.466 39.4371 37.4379C39.4633 37.4098 39.4822 37.3673 39.4937 37.3102C39.5057 37.2531 39.5117 37.1817 39.5117 37.0961C39.5117 37.0114 39.5059 36.9405 39.4944 36.8834C39.4829 36.8264 39.464 36.7836 39.4378 36.755C39.4116 36.726 39.3763 36.7115 39.3321 36.7115C39.288 36.7115 39.2527 36.726 39.2265 36.755C39.2007 36.7836 39.1821 36.8264 39.1706 36.8834C39.1595 36.9405 39.154 37.0114 39.154 37.0961Z" fill="#212121"/>
<path d="M26.9666 43.4922H26.8036V42.8424C26.8036 42.8208 26.8038 42.7992 26.8043 42.7775C26.8048 42.7559 26.8052 42.7347 26.8057 42.714C26.8066 42.6933 26.8077 42.6735 26.8091 42.6546C26.7995 42.6652 26.7875 42.6767 26.7732 42.6891C26.7594 42.7016 26.7447 42.7145 26.729 42.7278L26.613 42.8203L26.5315 42.7174L26.8312 42.4827H26.9666V43.4922ZM28.0412 43.4922H27.3576V43.37L27.6193 43.1048C27.6699 43.0533 27.7116 43.0088 27.7443 42.9716C27.777 42.9338 27.8011 42.8981 27.8168 42.8645C27.8329 42.8309 27.841 42.7943 27.841 42.7547C27.841 42.7059 27.8269 42.6691 27.7988 42.6443C27.7708 42.6189 27.7337 42.6063 27.6877 42.6063C27.6439 42.6063 27.6034 42.615 27.5661 42.6325C27.5293 42.6495 27.4911 42.6739 27.4515 42.7057L27.3624 42.5987C27.3905 42.5747 27.4204 42.5529 27.4522 42.5331C27.4844 42.5133 27.5203 42.4976 27.5599 42.4861C27.5995 42.4742 27.6446 42.4682 27.6953 42.4682C27.7593 42.4682 27.8145 42.4797 27.861 42.5027C27.9075 42.5253 27.9432 42.5568 27.968 42.5973C27.9933 42.6378 28.006 42.685 28.006 42.7389C28.006 42.7932 27.9952 42.8433 27.9735 42.8894C27.9519 42.9354 27.9211 42.981 27.881 43.0261C27.841 43.0708 27.7933 43.1193 27.7381 43.1718L27.5634 43.3423V43.3499H28.0412V43.4922ZM28.9094 42.9867C28.9094 43.0682 28.9029 43.1412 28.8901 43.2056C28.8776 43.2696 28.8578 43.3239 28.8307 43.3686C28.8035 43.4132 28.7681 43.4473 28.7243 43.4708C28.6806 43.4943 28.6277 43.506 28.5655 43.506C28.4877 43.506 28.4235 43.4855 28.3729 43.4445C28.3222 43.4031 28.2847 43.3437 28.2603 43.2664C28.2359 43.1886 28.2237 43.0954 28.2237 42.9867C28.2237 42.8781 28.2348 42.7851 28.2569 42.7078C28.2794 42.63 28.3158 42.5704 28.366 42.5289C28.4161 42.4875 28.4827 42.4668 28.5655 42.4668C28.6438 42.4668 28.7082 42.4875 28.7589 42.5289C28.81 42.5699 28.8477 42.6293 28.8721 42.7071C28.897 42.7844 28.9094 42.8776 28.9094 42.9867ZM28.3874 42.9867C28.3874 43.0719 28.3929 43.143 28.4039 43.2001C28.4155 43.2572 28.4343 43.3 28.4606 43.3285C28.4868 43.3566 28.5218 43.3707 28.5655 43.3707C28.6093 43.3707 28.6442 43.3566 28.6705 43.3285C28.6967 43.3005 28.7156 43.2579 28.7271 43.2008C28.7391 43.1437 28.7451 43.0724 28.7451 42.9867C28.7451 42.902 28.7393 42.8312 28.7278 42.7741C28.7163 42.717 28.6974 42.6742 28.6712 42.6456C28.6449 42.6166 28.6097 42.6021 28.5655 42.6021C28.5213 42.6021 28.4861 42.6166 28.4599 42.6456C28.4341 42.6742 28.4155 42.717 28.4039 42.7741C28.3929 42.8312 28.3874 42.902 28.3874 42.9867ZM29.7776 42.9867C29.7776 43.0682 29.7711 43.1412 29.7582 43.2056C29.7458 43.2696 29.726 43.3239 29.6989 43.3686C29.6717 43.4132 29.6363 43.4473 29.5925 43.4708C29.5488 43.4943 29.4959 43.506 29.4337 43.506C29.3559 43.506 29.2917 43.4855 29.2411 43.4445C29.1904 43.4031 29.1529 43.3437 29.1285 43.2664C29.1041 43.1886 29.0919 43.0954 29.0919 42.9867C29.0919 42.8781 29.103 42.7851 29.1251 42.7078C29.1476 42.63 29.184 42.5704 29.2342 42.5289C29.2843 42.4875 29.3509 42.4668 29.4337 42.4668C29.512 42.4668 29.5764 42.4875 29.6271 42.5289C29.6781 42.5699 29.7159 42.6293 29.7403 42.7071C29.7652 42.7844 29.7776 42.8776 29.7776 42.9867ZM29.2556 42.9867C29.2556 43.0719 29.2611 43.143 29.2721 43.2001C29.2836 43.2572 29.3025 43.3 29.3288 43.3285C29.355 43.3566 29.39 43.3707 29.4337 43.3707C29.4774 43.3707 29.5124 43.3566 29.5387 43.3285C29.5649 43.3005 29.5838 43.2579 29.5953 43.2008C29.6073 43.1437 29.6132 43.0724 29.6132 42.9867C29.6132 42.902 29.6075 42.8312 29.596 42.7741C29.5845 42.717 29.5656 42.6742 29.5394 42.6456C29.5131 42.6166 29.4779 42.6021 29.4337 42.6021C29.3895 42.6021 29.3543 42.6166 29.3281 42.6456C29.3023 42.6742 29.2836 42.717 29.2721 42.7741C29.2611 42.8312 29.2556 42.902 29.2556 42.9867Z" fill="#212121"/>
<path d="M29.4925 57.3984H29.3295V56.7487C29.3295 56.727 29.3297 56.7054 29.3302 56.6838C29.3306 56.6621 29.3311 56.641 29.3316 56.6202C29.3325 56.5995 29.3336 56.5797 29.335 56.5609C29.3253 56.5715 29.3134 56.583 29.2991 56.5954C29.2853 56.6078 29.2706 56.6207 29.2549 56.6341L29.1389 56.7266L29.0574 56.6237L29.3571 56.3889H29.4925V57.3984ZM30.5671 56.893C30.5671 56.9745 30.5607 57.0474 30.5478 57.1119C30.5353 57.1759 30.5155 57.2302 30.4884 57.2748C30.4612 57.3195 30.4258 57.3536 30.382 57.377C30.3383 57.4005 30.2854 57.4122 30.2232 57.4122C30.1454 57.4122 30.0812 57.3918 30.0306 57.3508C29.9799 57.3094 29.9424 57.25 29.918 57.1726C29.8936 57.0948 29.8814 57.0016 29.8814 56.893C29.8814 56.7844 29.8925 56.6914 29.9146 56.614C29.9371 56.5362 29.9735 56.4766 30.0237 56.4352C30.0739 56.3938 30.1404 56.373 30.2232 56.373C30.3015 56.373 30.3659 56.3938 30.4166 56.4352C30.4677 56.4762 30.5054 56.5355 30.5298 56.6133C30.5547 56.6907 30.5671 56.7839 30.5671 56.893ZM30.0451 56.893C30.0451 56.9782 30.0506 57.0493 30.0617 57.1064C30.0732 57.1634 30.092 57.2062 30.1183 57.2348C30.1445 57.2629 30.1795 57.2769 30.2232 57.2769C30.267 57.2769 30.3019 57.2629 30.3282 57.2348C30.3544 57.2067 30.3733 57.1641 30.3848 57.107C30.3968 57.05 30.4028 56.9786 30.4028 56.893C30.4028 56.8083 30.397 56.7374 30.3855 56.6803C30.374 56.6232 30.3551 56.5804 30.3289 56.5519C30.3026 56.5229 30.2674 56.5084 30.2232 56.5084C30.179 56.5084 30.1438 56.5229 30.1176 56.5519C30.0918 56.5804 30.0732 56.6232 30.0617 56.6803C30.0506 56.7374 30.0451 56.8083 30.0451 56.893ZM31.4353 56.893C31.4353 56.9745 31.4288 57.0474 31.4159 57.1119C31.4035 57.1759 31.3837 57.2302 31.3566 57.2748C31.3294 57.3195 31.294 57.3536 31.2502 57.377C31.2065 57.4005 31.1536 57.4122 31.0914 57.4122C31.0136 57.4122 30.9494 57.3918 30.8988 57.3508C30.8481 57.3094 30.8106 57.25 30.7862 57.1726C30.7618 57.0948 30.7496 57.0016 30.7496 56.893C30.7496 56.7844 30.7607 56.6914 30.7828 56.614C30.8053 56.5362 30.8417 56.4766 30.8919 56.4352C30.942 56.3938 31.0086 56.373 31.0914 56.373C31.1697 56.373 31.2341 56.3938 31.2848 56.4352C31.3359 56.4762 31.3736 56.5355 31.398 56.6133C31.4229 56.6907 31.4353 56.7839 31.4353 56.893ZM30.9133 56.893C30.9133 56.9782 30.9188 57.0493 30.9298 57.1064C30.9413 57.1634 30.9602 57.2062 30.9865 57.2348C31.0127 57.2629 31.0477 57.2769 31.0914 57.2769C31.1351 57.2769 31.1701 57.2629 31.1964 57.2348C31.2226 57.2067 31.2415 57.1641 31.253 57.107C31.265 57.05 31.2709 56.9786 31.2709 56.893C31.2709 56.8083 31.2652 56.7374 31.2537 56.6803C31.2422 56.6232 31.2233 56.5804 31.1971 56.5519C31.1708 56.5229 31.1356 56.5084 31.0914 56.5084C31.0472 56.5084 31.012 56.5229 30.9858 56.5519C30.96 56.5804 30.9413 56.6232 30.9298 56.6803C30.9188 56.7374 30.9133 56.8083 30.9133 56.893Z" fill="#212121"/>
<path d="M42.5212 43.7305H42.3583V43.0807C42.3583 43.0591 42.3585 43.0374 42.359 43.0158C42.3594 42.9942 42.3599 42.973 42.3604 42.9523C42.3613 42.9316 42.3624 42.9118 42.3638 42.8929C42.3541 42.9035 42.3422 42.915 42.3279 42.9274C42.3141 42.9398 42.2994 42.9527 42.2837 42.9661L42.1677 43.0586L42.0862 42.9557L42.3859 42.721H42.5212V43.7305ZM43.5959 43.225C43.5959 43.3065 43.5894 43.3795 43.5766 43.4439C43.5641 43.5079 43.5443 43.5622 43.5172 43.6069C43.49 43.6515 43.4546 43.6856 43.4108 43.7091C43.3671 43.7325 43.3142 43.7443 43.252 43.7443C43.1742 43.7443 43.11 43.7238 43.0594 43.6828C43.0087 43.6414 42.9712 43.582 42.9468 43.5047C42.9224 43.4269 42.9102 43.3337 42.9102 43.225C42.9102 43.1164 42.9213 43.0234 42.9434 42.9461C42.9659 42.8683 43.0023 42.8087 43.0525 42.7672C43.1026 42.7258 43.1692 42.7051 43.252 42.7051C43.3303 42.7051 43.3947 42.7258 43.4454 42.7672C43.4965 42.8082 43.5342 42.8676 43.5586 42.9454C43.5835 43.0227 43.5959 43.1159 43.5959 43.225ZM43.0739 43.225C43.0739 43.3102 43.0794 43.3813 43.0904 43.4384C43.102 43.4955 43.1208 43.5383 43.1471 43.5668C43.1733 43.5949 43.2083 43.6089 43.252 43.6089C43.2958 43.6089 43.3307 43.5949 43.357 43.5668C43.3832 43.5387 43.4021 43.4962 43.4136 43.4391C43.4256 43.382 43.4316 43.3106 43.4316 43.225C43.4316 43.1403 43.4258 43.0694 43.4143 43.0124C43.4028 42.9553 43.3839 42.9125 43.3577 42.8839C43.3314 42.8549 43.2962 42.8404 43.252 42.8404C43.2078 42.8404 43.1726 42.8549 43.1464 42.8839C43.1206 42.9125 43.102 42.9553 43.0904 43.0124C43.0794 43.0694 43.0739 43.1403 43.0739 43.225ZM44.4641 43.7305H43.7805V43.6083L44.0422 43.3431C44.0928 43.2915 44.1345 43.2471 44.1672 43.2098C44.1999 43.1721 44.224 43.1364 44.2397 43.1028C44.2558 43.0692 44.2638 43.0326 44.2638 42.993C44.2638 42.9442 44.2498 42.9074 44.2217 42.8825C44.1936 42.8572 44.1566 42.8446 44.1105 42.8446C44.0668 42.8446 44.0263 42.8533 43.989 42.8708C43.9522 42.8878 43.914 42.9122 43.8744 42.944L43.7853 42.837C43.8134 42.813 43.8433 42.7912 43.8751 42.7714C43.9073 42.7516 43.9432 42.7359 43.9828 42.7244C44.0224 42.7124 44.0675 42.7065 44.1181 42.7065C44.1821 42.7065 44.2374 42.718 44.2839 42.741C44.3304 42.7635 44.366 42.7951 44.3909 42.8356C44.4162 42.8761 44.4289 42.9233 44.4289 42.9771C44.4289 43.0315 44.418 43.0816 44.3964 43.1277C44.3748 43.1737 44.3439 43.2193 44.3039 43.2644C44.2638 43.309 44.2162 43.3576 44.161 43.4101L43.9863 43.5806V43.5882H44.4641V43.7305ZM44.6501 43.3003C44.6501 43.2409 44.6542 43.1824 44.6625 43.1249C44.6712 43.0674 44.686 43.0135 44.7067 42.9633C44.7274 42.9131 44.7559 42.869 44.7923 42.8307C44.8291 42.7925 44.8754 42.7626 44.9311 42.741C44.9868 42.7189 45.0538 42.7078 45.132 42.7078C45.1523 42.7078 45.1751 42.7088 45.2004 42.7106C45.2257 42.7124 45.2466 42.7154 45.2632 42.7196V42.8542C45.2453 42.8492 45.2255 42.8452 45.2038 42.8425C45.1827 42.8397 45.1615 42.8383 45.1403 42.8383C45.0556 42.8383 44.9896 42.8545 44.9421 42.8867C44.8947 42.9184 44.8609 42.9622 44.8406 43.0179C44.8204 43.0731 44.8086 43.1364 44.8054 43.2078H44.8137C44.8275 43.1847 44.8448 43.1643 44.8655 43.1463C44.8862 43.1284 44.9115 43.1141 44.9414 43.1035C44.9714 43.0924 45.0061 43.0869 45.0457 43.0869C45.1046 43.0869 45.156 43.0994 45.1997 43.1242C45.2434 43.1486 45.277 43.1841 45.3005 43.2305C45.3244 43.277 45.3364 43.3334 45.3364 43.3997C45.3364 43.4711 45.3228 43.5325 45.2957 43.5841C45.269 43.6356 45.2308 43.6752 45.181 43.7028C45.1318 43.7305 45.0731 43.7443 45.005 43.7443C44.9548 43.7443 44.9081 43.7351 44.8648 43.7167C44.822 43.6982 44.7845 43.6706 44.7522 43.6338C44.72 43.597 44.6949 43.5509 44.677 43.4957C44.659 43.44 44.6501 43.3749 44.6501 43.3003ZM45.0022 43.6103C45.0547 43.6103 45.0968 43.5933 45.1286 43.5592C45.1608 43.5247 45.1769 43.472 45.1769 43.4011C45.1769 43.3436 45.1626 43.298 45.1341 43.2644C45.106 43.2308 45.0637 43.214 45.007 43.214C44.9684 43.214 44.9345 43.2223 44.9055 43.2388C44.8765 43.2554 44.854 43.2764 44.8379 43.3017C44.8222 43.327 44.8144 43.3528 44.8144 43.379C44.8144 43.4057 44.8183 43.4326 44.8261 43.4598C44.834 43.487 44.8457 43.512 44.8613 43.5351C44.877 43.5576 44.8966 43.5758 44.92 43.5896C44.9435 43.6034 44.9709 43.6103 45.0022 43.6103Z" fill="#212121"/>
<path d="M50.3005 34.5352H50.1376V33.8854C50.1376 33.8638 50.1378 33.8421 50.1383 33.8205C50.1387 33.7989 50.1392 33.7777 50.1397 33.757C50.1406 33.7362 50.1417 33.7165 50.1431 33.6976C50.1334 33.7082 50.1215 33.7197 50.1072 33.7321C50.0934 33.7445 50.0787 33.7574 50.063 33.7708L49.947 33.8633L49.8655 33.7604L50.1652 33.5256H50.3005V34.5352ZM50.693 34.105C50.693 34.0456 50.6971 33.9871 50.7054 33.9296C50.7142 33.872 50.7289 33.8182 50.7496 33.768C50.7703 33.7178 50.7989 33.6736 50.8352 33.6354C50.872 33.5972 50.9183 33.5673 50.974 33.5457C51.0297 33.5236 51.0967 33.5125 51.1749 33.5125C51.1952 33.5125 51.218 33.5134 51.2433 33.5153C51.2686 33.5171 51.2896 33.5201 51.3061 33.5243V33.6589C51.2882 33.6538 51.2684 33.6499 51.2468 33.6472C51.2256 33.6444 51.2044 33.643 51.1832 33.643C51.0985 33.643 51.0325 33.6591 50.9851 33.6914C50.9376 33.7231 50.9038 33.7669 50.8836 33.8226C50.8633 33.8778 50.8516 33.9411 50.8483 34.0124H50.8566C50.8704 33.9894 50.8877 33.9689 50.9084 33.951C50.9291 33.933 50.9544 33.9188 50.9844 33.9082C51.0143 33.8971 51.049 33.8916 51.0886 33.8916C51.1476 33.8916 51.1989 33.904 51.2426 33.9289C51.2863 33.9533 51.32 33.9887 51.3434 34.0352C51.3674 34.0817 51.3793 34.1381 51.3793 34.2044C51.3793 34.2758 51.3658 34.3372 51.3386 34.3888C51.3119 34.4403 51.2737 34.4799 51.224 34.5075C51.1747 34.5352 51.116 34.549 51.0479 34.549C50.9977 34.549 50.951 34.5398 50.9077 34.5213C50.8649 34.5029 50.8274 34.4753 50.7952 34.4385C50.7629 34.4017 50.7379 34.3556 50.7199 34.3004C50.702 34.2447 50.693 34.1795 50.693 34.105ZM51.0451 34.415C51.0976 34.415 51.1397 34.398 51.1715 34.3639C51.2037 34.3294 51.2198 34.2767 51.2198 34.2058C51.2198 34.1482 51.2056 34.1027 51.177 34.0691C51.1489 34.0355 51.1066 34.0187 51.05 34.0187C51.0113 34.0187 50.9775 34.0269 50.9485 34.0435C50.9195 34.0601 50.8969 34.081 50.8808 34.1064C50.8651 34.1317 50.8573 34.1575 50.8573 34.1837C50.8573 34.2104 50.8612 34.2373 50.8691 34.2645C50.8769 34.2916 50.8886 34.3167 50.9043 34.3397C50.9199 34.3623 50.9395 34.3805 50.963 34.3943C50.9864 34.4081 51.0138 34.415 51.0451 34.415ZM52.2434 34.0297C52.2434 34.1112 52.2369 34.1842 52.224 34.2486C52.2116 34.3126 52.1918 34.3669 52.1647 34.4116C52.1375 34.4562 52.1021 34.4903 52.0583 34.5138C52.0146 34.5372 51.9617 34.549 51.8995 34.549C51.8217 34.549 51.7575 34.5285 51.7069 34.4875C51.6562 34.4461 51.6187 34.3867 51.5943 34.3094C51.5699 34.2316 51.5577 34.1383 51.5577 34.0297C51.5577 33.9211 51.5688 33.8281 51.5909 33.7507C51.6134 33.673 51.6498 33.6133 51.7 33.5719C51.7501 33.5305 51.8166 33.5098 51.8995 33.5098C51.9778 33.5098 52.0422 33.5305 52.0928 33.5719C52.1439 33.6129 52.1817 33.6723 52.2061 33.7501C52.2309 33.8274 52.2434 33.9206 52.2434 34.0297ZM51.7214 34.0297C51.7214 34.1149 51.7269 34.186 51.7379 34.2431C51.7494 34.3002 51.7683 34.343 51.7946 34.3715C51.8208 34.3996 51.8558 34.4136 51.8995 34.4136C51.9432 34.4136 51.9782 34.3996 52.0045 34.3715C52.0307 34.3434 52.0496 34.3008 52.0611 34.2438C52.0731 34.1867 52.079 34.1153 52.079 34.0297C52.079 33.945 52.0733 33.8741 52.0618 33.817C52.0503 33.76 52.0314 33.7171 52.0052 33.6886C51.9789 33.6596 51.9437 33.6451 51.8995 33.6451C51.8553 33.6451 51.8201 33.6596 51.7939 33.6886C51.7681 33.7171 51.7494 33.76 51.7379 33.817C51.7269 33.8741 51.7214 33.945 51.7214 34.0297ZM53.1482 34.3135H53.0114V34.5352H52.8512V34.3135H52.3921V34.1906L52.8533 33.5229H53.0114V34.1789H53.1482V34.3135ZM52.8512 34.1789V33.9282C52.8512 33.9075 52.8515 33.8865 52.8519 33.8654C52.8529 33.8437 52.8538 33.823 52.8547 33.8032C52.8556 33.7834 52.8565 33.7653 52.8575 33.7487C52.8584 33.7316 52.8591 33.7176 52.8595 33.7066H52.854C52.8453 33.725 52.8356 33.7438 52.825 33.7632C52.8144 33.7821 52.8031 33.8005 52.7912 33.8184L52.5426 34.1789H52.8512Z" fill="#212121"/>
<path d="M45.2835 57.3984H45.1205V56.7487C45.1205 56.727 45.1207 56.7054 45.1212 56.6838C45.1217 56.6621 45.1221 56.641 45.1226 56.6202C45.1235 56.5995 45.1247 56.5797 45.126 56.5609C45.1164 56.5715 45.1044 56.583 45.0901 56.5954C45.0763 56.6078 45.0616 56.6207 45.0459 56.6341L44.9299 56.7266L44.8485 56.6237L45.1481 56.3889H45.2835V57.3984ZM46.3581 56.893C46.3581 56.9745 46.3517 57.0474 46.3388 57.1119C46.3263 57.1759 46.3066 57.2302 46.2794 57.2748C46.2522 57.3195 46.2168 57.3536 46.1731 57.377C46.1293 57.4005 46.0764 57.4122 46.0142 57.4122C45.9364 57.4122 45.8722 57.3918 45.8216 57.3508C45.771 57.3094 45.7334 57.25 45.709 57.1726C45.6846 57.0948 45.6724 57.0016 45.6724 56.893C45.6724 56.7844 45.6835 56.6914 45.7056 56.614C45.7281 56.5362 45.7645 56.4766 45.8147 56.4352C45.8649 56.3938 45.9314 56.373 46.0142 56.373C46.0925 56.373 46.1569 56.3938 46.2076 56.4352C46.2587 56.4762 46.2964 56.5355 46.3208 56.6133C46.3457 56.6907 46.3581 56.7839 46.3581 56.893ZM45.8361 56.893C45.8361 56.9782 45.8416 57.0493 45.8527 57.1064C45.8642 57.1634 45.883 57.2062 45.9093 57.2348C45.9355 57.2629 45.9705 57.2769 46.0142 57.2769C46.058 57.2769 46.093 57.2629 46.1192 57.2348C46.1454 57.2067 46.1643 57.1641 46.1758 57.107C46.1878 57.05 46.1938 56.9786 46.1938 56.893C46.1938 56.8083 46.188 56.7374 46.1765 56.6803C46.165 56.6232 46.1461 56.5804 46.1199 56.5519C46.0937 56.5229 46.0584 56.5084 46.0142 56.5084C45.9701 56.5084 45.9348 56.5229 45.9086 56.5519C45.8828 56.5804 45.8642 56.6232 45.8527 56.6803C45.8416 56.7374 45.8361 56.8083 45.8361 56.893ZM47.2263 56.893C47.2263 56.9745 47.2199 57.0474 47.207 57.1119C47.1945 57.1759 47.1747 57.2302 47.1476 57.2748C47.1204 57.3195 47.085 57.3536 47.0412 57.377C46.9975 57.4005 46.9446 57.4122 46.8824 57.4122C46.8046 57.4122 46.7404 57.3918 46.6898 57.3508C46.6391 57.3094 46.6016 57.25 46.5772 57.1726C46.5528 57.0948 46.5406 57.0016 46.5406 56.893C46.5406 56.7844 46.5517 56.6914 46.5738 56.614C46.5963 56.5362 46.6327 56.4766 46.6829 56.4352C46.7331 56.3938 46.7996 56.373 46.8824 56.373C46.9607 56.373 47.0251 56.3938 47.0758 56.4352C47.1269 56.4762 47.1646 56.5355 47.189 56.6133C47.2139 56.6907 47.2263 56.7839 47.2263 56.893ZM46.7043 56.893C46.7043 56.9782 46.7098 57.0493 46.7209 57.1064C46.7324 57.1634 46.7512 57.2062 46.7775 57.2348C46.8037 57.2629 46.8387 57.2769 46.8824 57.2769C46.9262 57.2769 46.9611 57.2629 46.9874 57.2348C47.0136 57.2067 47.0325 57.1641 47.044 57.107C47.056 57.05 47.062 56.9786 47.062 56.893C47.062 56.8083 47.0562 56.7374 47.0447 56.6803C47.0332 56.6232 47.0143 56.5804 46.9881 56.5519C46.9618 56.5229 46.9266 56.5084 46.8824 56.5084C46.8382 56.5084 46.803 56.5229 46.7768 56.5519C46.751 56.5804 46.7324 56.6232 46.7209 56.6803C46.7098 56.7374 46.7043 56.8083 46.7043 56.893Z" fill="#212121"/>
<path d="M53.2678 45.2722C53.2678 45.3321 53.2635 45.3908 53.2547 45.4483C53.2464 45.5059 53.2317 45.5597 53.2105 45.6099C53.1898 45.6601 53.161 45.7045 53.1242 45.7432C53.0879 45.7814 53.0418 45.8113 52.9861 45.8329C52.9304 45.8546 52.8632 45.8654 52.7845 45.8654C52.7647 45.8654 52.7417 45.8642 52.7154 45.8619C52.6897 45.8601 52.6685 45.8573 52.6519 45.8536V45.7183C52.6694 45.7234 52.689 45.7275 52.7106 45.7307C52.7327 45.7335 52.7546 45.7349 52.7762 45.7349C52.8614 45.7349 52.9277 45.719 52.9751 45.6872C53.0229 45.6555 53.0568 45.6117 53.0766 45.556C53.0968 45.5003 53.1083 45.437 53.1111 45.3661H53.1028C53.0895 45.3882 53.0727 45.4085 53.0524 45.4269C53.0322 45.4449 53.0071 45.4594 52.9771 45.4704C52.9472 45.481 52.9109 45.4863 52.868 45.4863C52.81 45.4863 52.7594 45.4741 52.7161 45.4497C52.6733 45.4253 52.6399 45.3898 52.616 45.3434C52.5925 45.2964 52.5808 45.24 52.5808 45.1742C52.5808 45.1028 52.5944 45.0414 52.6215 44.9898C52.6487 44.9383 52.6871 44.8987 52.7368 44.8711C52.7866 44.843 52.845 44.8289 52.9122 44.8289C52.9629 44.8289 53.0096 44.8381 53.0524 44.8566C53.0957 44.8745 53.1334 44.9021 53.1656 44.9394C53.1979 44.9762 53.223 45.0225 53.2409 45.0782C53.2589 45.1334 53.2678 45.1981 53.2678 45.2722ZM52.9143 44.9629C52.8632 44.9629 52.8215 44.9802 52.7893 45.0147C52.7571 45.0487 52.741 45.1012 52.741 45.1721C52.741 45.2297 52.7548 45.2752 52.7824 45.3088C52.81 45.3424 52.8524 45.3592 52.9095 45.3592C52.9491 45.3592 52.9831 45.3512 53.0117 45.3351C53.0407 45.3185 53.063 45.2976 53.0786 45.2722C53.0948 45.2469 53.1028 45.2211 53.1028 45.1949C53.1028 45.1677 53.0989 45.1406 53.0911 45.1134C53.0837 45.0863 53.0722 45.0614 53.0565 45.0388C53.0409 45.0163 53.0211 44.9981 52.9972 44.9843C52.9737 44.97 52.9461 44.9629 52.9143 44.9629ZM53.7942 44.8282C53.8527 44.8282 53.9054 44.8375 53.9524 44.8559C53.9993 44.8738 54.0366 44.9007 54.0642 44.9367C54.0918 44.9726 54.1056 45.017 54.1056 45.0699C54.1056 45.1109 54.0971 45.1466 54.0801 45.1769C54.0635 45.2073 54.041 45.234 54.0124 45.257C53.9839 45.2796 53.9519 45.2996 53.9164 45.3171C53.956 45.3365 53.9924 45.3588 54.0255 45.3841C54.0592 45.409 54.0861 45.4382 54.1063 45.4718C54.1271 45.5054 54.1374 45.5448 54.1374 45.5899C54.1374 45.6465 54.1229 45.6955 54.0939 45.7369C54.0654 45.7779 54.0255 45.8097 53.9745 45.8322C53.9234 45.8543 53.8637 45.8654 53.7956 45.8654C53.7224 45.8654 53.66 45.8546 53.6085 45.8329C53.5569 45.8113 53.5178 45.7804 53.4911 45.7404C53.4644 45.6999 53.4511 45.6515 53.4511 45.5954C53.4511 45.5489 53.4603 45.5086 53.4787 45.4746C53.4971 45.4405 53.5217 45.411 53.5526 45.3862C53.5839 45.3613 53.6182 45.3404 53.6554 45.3233C53.6237 45.3045 53.5947 45.2833 53.5684 45.2598C53.5422 45.2359 53.5213 45.2085 53.5056 45.1776C53.4904 45.1463 53.4828 45.1102 53.4828 45.0692C53.4828 45.0167 53.4969 44.9728 53.5249 44.9373C53.553 44.9014 53.5905 44.8743 53.6375 44.8559C53.6849 44.8375 53.7372 44.8282 53.7942 44.8282ZM53.6057 45.5892C53.6057 45.6334 53.6214 45.6697 53.6527 45.6983C53.684 45.7268 53.7307 45.7411 53.7929 45.7411C53.8545 45.7411 53.9015 45.727 53.9337 45.699C53.9659 45.6709 53.982 45.6338 53.982 45.5878C53.982 45.5583 53.9738 45.5323 53.9572 45.5098C53.9411 45.4872 53.9192 45.4672 53.8916 45.4497C53.8644 45.4317 53.8343 45.4152 53.8011 45.4L53.779 45.391C53.7431 45.4062 53.7123 45.4235 53.6865 45.4428C53.6607 45.4617 53.6407 45.4831 53.6264 45.507C53.6126 45.5309 53.6057 45.5583 53.6057 45.5892ZM53.7929 44.9532C53.7482 44.9532 53.7114 44.9643 53.6824 44.9864C53.6538 45.008 53.6396 45.0393 53.6396 45.0803C53.6396 45.1093 53.6465 45.1341 53.6603 45.1548C53.6745 45.1756 53.6936 45.1935 53.7176 45.2087C53.7415 45.2234 53.768 45.2372 53.797 45.2501C53.8251 45.2377 53.8504 45.2241 53.8729 45.2094C53.896 45.1942 53.9141 45.1763 53.9275 45.1555C53.9413 45.1344 53.9482 45.109 53.9482 45.0796C53.9482 45.0391 53.9337 45.008 53.9047 44.9864C53.8762 44.9643 53.8389 44.9532 53.7929 44.9532ZM55.0056 45.8516H54.322V45.7293L54.5837 45.4642C54.6343 45.4126 54.676 45.3682 54.7087 45.3309C54.7414 45.2932 54.7655 45.2575 54.7812 45.2239C54.7973 45.1903 54.8054 45.1537 54.8054 45.1141C54.8054 45.0653 54.7913 45.0285 54.7632 45.0036C54.7352 44.9783 54.6981 44.9657 54.6521 44.9657C54.6083 44.9657 54.5678 44.9744 54.5305 44.9919C54.4937 45.0089 54.4555 45.0333 54.4159 45.0651L54.3268 44.9581C54.3549 44.9341 54.3848 44.9123 54.4166 44.8925C54.4488 44.8727 54.4847 44.857 54.5243 44.8455C54.5639 44.8335 54.609 44.8276 54.6597 44.8276C54.7236 44.8276 54.7789 44.8391 54.8254 44.8621C54.8719 44.8846 54.9075 44.9162 54.9324 44.9567C54.9577 44.9972 54.9704 45.0444 54.9704 45.0982C54.9704 45.1525 54.9596 45.2027 54.9379 45.2488C54.9163 45.2948 54.8854 45.3404 54.8454 45.3855C54.8054 45.4301 54.7577 45.4787 54.7025 45.5312L54.5278 45.7017V45.7093H55.0056V45.8516Z" fill="#212121"/>
<path d="M57.8416 43.4922H57.6786V42.8424C57.6786 42.8208 57.6788 42.7992 57.6793 42.7775C57.6798 42.7559 57.6802 42.7347 57.6807 42.714C57.6816 42.6933 57.6827 42.6735 57.6841 42.6546C57.6745 42.6652 57.6625 42.6767 57.6482 42.6891C57.6344 42.7016 57.6197 42.7145 57.604 42.7278L57.488 42.8203L57.4065 42.7174L57.7062 42.4827H57.8416V43.4922ZM58.9162 42.9867C58.9162 43.0682 58.9098 43.1412 58.8969 43.2056C58.8844 43.2696 58.8646 43.3239 58.8375 43.3686C58.8103 43.4132 58.7749 43.4473 58.7312 43.4708C58.6874 43.4943 58.6345 43.506 58.5723 43.506C58.4945 43.506 58.4303 43.4855 58.3797 43.4445C58.3291 43.4031 58.2915 43.3437 58.2671 43.2664C58.2427 43.1886 58.2305 43.0954 58.2305 42.9867C58.2305 42.8781 58.2416 42.7851 58.2637 42.7078C58.2862 42.63 58.3226 42.5704 58.3728 42.5289C58.423 42.4875 58.4895 42.4668 58.5723 42.4668C58.6506 42.4668 58.715 42.4875 58.7657 42.5289C58.8168 42.5699 58.8545 42.6293 58.8789 42.7071C58.9038 42.7844 58.9162 42.8776 58.9162 42.9867ZM58.3942 42.9867C58.3942 43.0719 58.3997 43.143 58.4108 43.2001C58.4223 43.2572 58.4411 43.3 58.4674 43.3285C58.4936 43.3566 58.5286 43.3707 58.5723 43.3707C58.6161 43.3707 58.6511 43.3566 58.6773 43.3285C58.7035 43.3005 58.7224 43.2579 58.7339 43.2008C58.7459 43.1437 58.7519 43.0724 58.7519 42.9867C58.7519 42.902 58.7461 42.8312 58.7346 42.7741C58.7231 42.717 58.7042 42.6742 58.678 42.6456C58.6517 42.6166 58.6165 42.6021 58.5723 42.6021C58.5281 42.6021 58.4929 42.6166 58.4667 42.6456C58.4409 42.6742 58.4223 42.717 58.4108 42.7741C58.3997 42.8312 58.3942 42.902 58.3942 42.9867ZM59.7844 42.9867C59.7844 43.0682 59.7779 43.1412 59.7651 43.2056C59.7526 43.2696 59.7328 43.3239 59.7057 43.3686C59.6785 43.4132 59.6431 43.4473 59.5993 43.4708C59.5556 43.4943 59.5027 43.506 59.4405 43.506C59.3627 43.506 59.2985 43.4855 59.2479 43.4445C59.1972 43.4031 59.1597 43.3437 59.1353 43.2664C59.1109 43.1886 59.0987 43.0954 59.0987 42.9867C59.0987 42.8781 59.1098 42.7851 59.1319 42.7078C59.1544 42.63 59.1908 42.5704 59.241 42.5289C59.2911 42.4875 59.3577 42.4668 59.4405 42.4668C59.5188 42.4668 59.5832 42.4875 59.6339 42.5289C59.685 42.5699 59.7227 42.6293 59.7471 42.7071C59.772 42.7844 59.7844 42.8776 59.7844 42.9867ZM59.2624 42.9867C59.2624 43.0719 59.2679 43.143 59.2789 43.2001C59.2905 43.2572 59.3093 43.3 59.3356 43.3285C59.3618 43.3566 59.3968 43.3707 59.4405 43.3707C59.4843 43.3707 59.5192 43.3566 59.5455 43.3285C59.5717 43.3005 59.5906 43.2579 59.6021 43.2008C59.6141 43.1437 59.6201 43.0724 59.6201 42.9867C59.6201 42.902 59.6143 42.8312 59.6028 42.7741C59.5913 42.717 59.5724 42.6742 59.5462 42.6456C59.5199 42.6166 59.4847 42.6021 59.4405 42.6021C59.3963 42.6021 59.3611 42.6166 59.3349 42.6456C59.3091 42.6742 59.2905 42.717 59.2789 42.7741C59.2679 42.8312 59.2624 42.902 59.2624 42.9867ZM60.6526 42.9867C60.6526 43.0682 60.6461 43.1412 60.6332 43.2056C60.6208 43.2696 60.601 43.3239 60.5739 43.3686C60.5467 43.4132 60.5113 43.4473 60.4675 43.4708C60.4238 43.4943 60.3709 43.506 60.3087 43.506C60.2309 43.506 60.1667 43.4855 60.1161 43.4445C60.0654 43.4031 60.0279 43.3437 60.0035 43.2664C59.9791 43.1886 59.9669 43.0954 59.9669 42.9867C59.9669 42.8781 59.978 42.7851 60.0001 42.7078C60.0226 42.63 60.059 42.5704 60.1092 42.5289C60.1593 42.4875 60.2259 42.4668 60.3087 42.4668C60.387 42.4668 60.4514 42.4875 60.5021 42.5289C60.5531 42.5699 60.5909 42.6293 60.6153 42.7071C60.6402 42.7844 60.6526 42.8776 60.6526 42.9867ZM60.1306 42.9867C60.1306 43.0719 60.1361 43.143 60.1471 43.2001C60.1586 43.2572 60.1775 43.3 60.2038 43.3285C60.23 43.3566 60.265 43.3707 60.3087 43.3707C60.3524 43.3707 60.3874 43.3566 60.4137 43.3285C60.4399 43.3005 60.4588 43.2579 60.4703 43.2008C60.4823 43.1437 60.4882 43.0724 60.4882 42.9867C60.4882 42.902 60.4825 42.8312 60.471 42.7741C60.4595 42.717 60.4406 42.6742 60.4144 42.6456C60.3881 42.6166 60.3529 42.6021 60.3087 42.6021C60.2645 42.6021 60.2293 42.6166 60.2031 42.6456C60.1773 42.6742 60.1586 42.717 60.1471 42.7741C60.1361 42.8312 60.1306 42.902 60.1306 42.9867Z" fill="#212121"/>
<path d="M60.6038 57.3984H60.4408V56.7487C60.4408 56.727 60.4411 56.7054 60.4415 56.6838C60.442 56.6621 60.4424 56.641 60.4429 56.6202C60.4438 56.5995 60.445 56.5797 60.4463 56.5609C60.4367 56.5715 60.4247 56.583 60.4104 56.5954C60.3966 56.6078 60.3819 56.6207 60.3662 56.6341L60.2502 56.7266L60.1688 56.6237L60.4684 56.3889H60.6038V57.3984ZM61.6784 56.893C61.6784 56.9745 61.672 57.0474 61.6591 57.1119C61.6467 57.1759 61.6269 57.2302 61.5997 57.2748C61.5725 57.3195 61.5371 57.3536 61.4934 57.377C61.4496 57.4005 61.3967 57.4122 61.3346 57.4122C61.2568 57.4122 61.1925 57.3918 61.1419 57.3508C61.0913 57.3094 61.0538 57.25 61.0294 57.1726C61.005 57.0948 60.9928 57.0016 60.9928 56.893C60.9928 56.7844 61.0038 56.6914 61.0259 56.614C61.0485 56.5362 61.0848 56.4766 61.135 56.4352C61.1852 56.3938 61.2517 56.373 61.3346 56.373C61.4128 56.373 61.4773 56.3938 61.5279 56.4352C61.579 56.4762 61.6167 56.5355 61.6411 56.6133C61.666 56.6907 61.6784 56.7839 61.6784 56.893ZM61.1564 56.893C61.1564 56.9782 61.1619 57.0493 61.173 57.1064C61.1845 57.1634 61.2034 57.2062 61.2296 57.2348C61.2558 57.2629 61.2908 57.2769 61.3346 57.2769C61.3783 57.2769 61.4133 57.2629 61.4395 57.2348C61.4658 57.2067 61.4846 57.1641 61.4961 57.107C61.5081 57.05 61.5141 56.9786 61.5141 56.893C61.5141 56.8083 61.5083 56.7374 61.4968 56.6803C61.4853 56.6232 61.4664 56.5804 61.4402 56.5519C61.414 56.5229 61.3787 56.5084 61.3346 56.5084C61.2904 56.5084 61.2551 56.5229 61.2289 56.5519C61.2031 56.5804 61.1845 56.6232 61.173 56.6803C61.1619 56.7374 61.1564 56.8083 61.1564 56.893ZM62.5079 56.6196C62.5079 56.6651 62.4987 56.7047 62.4803 56.7383C62.4619 56.7719 62.4366 56.7995 62.4044 56.8212C62.3726 56.8424 62.3358 56.8575 62.2939 56.8668V56.8716C62.3744 56.8817 62.4352 56.907 62.4762 56.9475C62.5176 56.9881 62.5383 57.0417 62.5383 57.1084C62.5383 57.1669 62.5243 57.2191 62.4962 57.2652C62.4681 57.3107 62.4251 57.3467 62.3671 57.3729C62.3091 57.3991 62.2345 57.4122 62.1434 57.4122C62.0886 57.4122 62.0377 57.4079 61.9908 57.3991C61.9443 57.3904 61.9001 57.3763 61.8582 57.357V57.2127C61.901 57.2339 61.9466 57.2502 61.9949 57.2617C62.0432 57.2732 62.089 57.279 62.1323 57.279C62.2166 57.279 62.2766 57.2633 62.3125 57.232C62.3484 57.2003 62.3664 57.1565 62.3664 57.1008C62.3664 57.0649 62.357 57.0355 62.3381 57.0124C62.3197 56.9894 62.2909 56.9722 62.2518 56.9607C62.2131 56.9492 62.1632 56.9434 62.1019 56.9434H62.0129V56.8129H62.1026C62.1611 56.8129 62.208 56.806 62.2435 56.7922C62.2789 56.7779 62.3045 56.7583 62.3201 56.7335C62.3362 56.7086 62.3443 56.6796 62.3443 56.6465C62.3443 56.6032 62.3303 56.5696 62.3022 56.5457C62.2741 56.5213 62.2324 56.5091 62.1772 56.5091C62.1431 56.5091 62.1121 56.513 62.084 56.5208C62.0564 56.5286 62.0308 56.5385 62.0073 56.5505C61.9839 56.5625 61.9615 56.5754 61.9404 56.5892L61.8623 56.4766C61.9005 56.4481 61.9461 56.4239 61.999 56.4041C62.052 56.3843 62.1137 56.3744 62.1841 56.3744C62.2877 56.3744 62.3675 56.3968 62.4237 56.4414C62.4799 56.4856 62.5079 56.545 62.5079 56.6196Z" fill="#212121"/>
<path d="M66.6355 57.7605C66.6355 57.8204 66.6312 57.8791 66.6224 57.9366C66.6141 57.9941 66.5994 58.048 66.5782 58.0982C66.5575 58.1483 66.5287 58.1928 66.4919 58.2314C66.4555 58.2696 66.4095 58.2996 66.3538 58.3212C66.2981 58.3428 66.2309 58.3537 66.1522 58.3537C66.1324 58.3537 66.1094 58.3525 66.0831 58.3502C66.0574 58.3484 66.0362 58.3456 66.0196 58.3419V58.2066C66.0371 58.2116 66.0567 58.2158 66.0783 58.219C66.1004 58.2218 66.1223 58.2231 66.1439 58.2231C66.2291 58.2231 66.2953 58.2073 66.3428 58.1755C66.3906 58.1437 66.4245 58.1 66.4443 58.0443C66.4645 57.9886 66.476 57.9253 66.4788 57.8544H66.4705C66.4571 57.8765 66.4403 57.8968 66.4201 57.9152C66.3998 57.9331 66.3748 57.9476 66.3448 57.9587C66.3149 57.9693 66.2785 57.9746 66.2357 57.9746C66.1777 57.9746 66.1271 57.9624 66.0838 57.938C66.041 57.9136 66.0076 57.8781 65.9837 57.8316C65.9602 57.7847 65.9485 57.7283 65.9485 57.6625C65.9485 57.5911 65.9621 57.5297 65.9892 57.4781C66.0164 57.4265 66.0548 57.387 66.1045 57.3593C66.1543 57.3313 66.2127 57.3172 66.2799 57.3172C66.3306 57.3172 66.3773 57.3264 66.4201 57.3448C66.4634 57.3628 66.5011 57.3904 66.5333 57.4277C66.5656 57.4645 66.5906 57.5108 66.6086 57.5665C66.6266 57.6217 66.6355 57.6864 66.6355 57.7605ZM66.282 57.4512C66.2309 57.4512 66.1892 57.4684 66.157 57.503C66.1248 57.537 66.1087 57.5895 66.1087 57.6604C66.1087 57.7179 66.1225 57.7635 66.1501 57.7971C66.1777 57.8307 66.2201 57.8475 66.2772 57.8475C66.3167 57.8475 66.3508 57.8395 66.3794 57.8234C66.4084 57.8068 66.4307 57.7858 66.4463 57.7605C66.4624 57.7352 66.4705 57.7094 66.4705 57.6832C66.4705 57.656 66.4666 57.6289 66.4588 57.6017C66.4514 57.5745 66.4399 57.5497 66.4242 57.5271C66.4086 57.5046 66.3888 57.4864 66.3649 57.4726C66.3414 57.4583 66.3138 57.4512 66.282 57.4512ZM67.1619 57.3165C67.2204 57.3165 67.2731 57.3257 67.32 57.3441C67.367 57.3621 67.4043 57.389 67.4319 57.4249C67.4595 57.4608 67.4733 57.5053 67.4733 57.5582C67.4733 57.5992 67.4648 57.6348 67.4478 57.6652C67.4312 57.6956 67.4087 57.7223 67.3801 57.7453C67.3516 57.7679 67.3196 57.7879 67.2841 57.8054C67.3237 57.8247 67.3601 57.8471 67.3932 57.8724C67.4268 57.8972 67.4538 57.9265 67.474 57.9601C67.4947 57.9937 67.5051 58.033 67.5051 58.0781C67.5051 58.1348 67.4906 58.1838 67.4616 58.2252C67.4331 58.2662 67.3932 58.298 67.3421 58.3205C67.291 58.3426 67.2314 58.3537 67.1633 58.3537C67.0901 58.3537 67.0277 58.3428 66.9762 58.3212C66.9246 58.2996 66.8855 58.2687 66.8588 58.2287C66.8321 58.1882 66.8187 58.1398 66.8187 58.0837C66.8187 58.0372 66.8279 57.9969 66.8464 57.9628C66.8648 57.9288 66.8894 57.8993 66.9202 57.8744C66.9515 57.8496 66.9858 57.8286 67.0231 57.8116C66.9914 57.7927 66.9624 57.7716 66.9361 57.7481C66.9099 57.7241 66.8889 57.6968 66.8733 57.6659C66.8581 57.6346 66.8505 57.5985 66.8505 57.5575C66.8505 57.505 66.8645 57.4611 66.8926 57.4256C66.9207 57.3897 66.9582 57.3626 67.0052 57.3441C67.0526 57.3257 67.1048 57.3165 67.1619 57.3165ZM66.9734 58.0775C66.9734 58.1216 66.9891 58.158 67.0204 58.1866C67.0517 58.2151 67.0984 58.2294 67.1605 58.2294C67.2222 58.2294 67.2692 58.2153 67.3014 58.1872C67.3336 58.1592 67.3497 58.1221 67.3497 58.0761C67.3497 58.0466 67.3414 58.0206 67.3249 57.998C67.3088 57.9755 67.2869 57.9555 67.2593 57.938C67.2321 57.92 67.202 57.9034 67.1688 57.8883L67.1467 57.8793C67.1108 57.8945 67.08 57.9117 67.0542 57.9311C67.0284 57.9499 67.0084 57.9713 66.9941 57.9953C66.9803 58.0192 66.9734 58.0466 66.9734 58.0775ZM67.1605 57.4415C67.1159 57.4415 67.0791 57.4526 67.0501 57.4746C67.0215 57.4963 67.0072 57.5276 67.0072 57.5686C67.0072 57.5976 67.0142 57.6224 67.028 57.6431C67.0422 57.6638 67.0613 57.6818 67.0853 57.697C67.1092 57.7117 67.1357 57.7255 67.1647 57.7384C67.1928 57.726 67.2181 57.7124 67.2406 57.6977C67.2637 57.6825 67.2818 57.6645 67.2952 57.6438C67.309 57.6226 67.3159 57.5973 67.3159 57.5679C67.3159 57.5274 67.3014 57.4963 67.2724 57.4746C67.2439 57.4526 67.2066 57.4415 67.1605 57.4415Z" fill="#212121"/>
<path d="M68.758 63.7617H68.0744V63.6395L68.3361 63.3743C68.3867 63.3228 68.4284 63.2784 68.4611 63.2411C68.4938 63.2033 68.5179 63.1677 68.5336 63.1341C68.5497 63.1005 68.5578 63.0639 68.5578 63.0243C68.5578 62.9755 68.5437 62.9386 68.5156 62.9138C68.4876 62.8885 68.4505 62.8758 68.4045 62.8758C68.3607 62.8758 68.3202 62.8846 68.2829 62.902C68.2461 62.9191 68.2079 62.9435 68.1683 62.9752L68.0792 62.8682C68.1073 62.8443 68.1372 62.8224 68.169 62.8026C68.2012 62.7828 68.2371 62.7672 68.2767 62.7557C68.3163 62.7437 68.3614 62.7377 68.4121 62.7377C68.476 62.7377 68.5313 62.7492 68.5778 62.7722C68.6243 62.7948 68.66 62.8263 68.6848 62.8668C68.7101 62.9073 68.7228 62.9545 68.7228 63.0084C68.7228 63.0627 68.712 63.1129 68.6903 63.1589C68.6687 63.2049 68.6379 63.2505 68.5978 63.2956C68.5578 63.3403 68.5101 63.3888 68.4549 63.4413L68.2802 63.6119V63.6195H68.758V63.7617ZM69.6262 63.2563C69.6262 63.3378 69.6197 63.4107 69.6069 63.4752C69.5944 63.5391 69.5746 63.5935 69.5475 63.6381C69.5203 63.6828 69.4849 63.7168 69.4411 63.7403C69.3974 63.7638 69.3445 63.7755 69.2823 63.7755C69.2045 63.7755 69.1403 63.755 69.0897 63.7141C69.039 63.6726 69.0015 63.6133 68.9771 63.5359C68.9527 63.4581 68.9405 63.3649 68.9405 63.2563C68.9405 63.1476 68.9516 63.0546 68.9737 62.9773C68.9962 62.8995 69.0326 62.8399 69.0828 62.7985C69.1329 62.757 69.1995 62.7363 69.2823 62.7363C69.3606 62.7363 69.425 62.757 69.4757 62.7985C69.5268 62.8394 69.5645 62.8988 69.5889 62.9766C69.6138 63.054 69.6262 63.1472 69.6262 63.2563ZM69.1042 63.2563C69.1042 63.3414 69.1097 63.4126 69.1207 63.4696C69.1323 63.5267 69.1511 63.5695 69.1774 63.5981C69.2036 63.6262 69.2386 63.6402 69.2823 63.6402C69.3261 63.6402 69.361 63.6262 69.3873 63.5981C69.4135 63.57 69.4324 63.5274 69.4439 63.4703C69.4559 63.4132 69.4619 63.3419 69.4619 63.2563C69.4619 63.1716 69.4561 63.1007 69.4446 63.0436C69.4331 62.9865 69.4142 62.9437 69.388 62.9152C69.3617 62.8862 69.3265 62.8717 69.2823 62.8717C69.2381 62.8717 69.2029 62.8862 69.1767 62.9152C69.1509 62.9437 69.1323 62.9865 69.1207 63.0436C69.1097 63.1007 69.1042 63.1716 69.1042 63.2563Z" fill="#212121"/>
<path d="M73.3982 40.6641H73.2352V40.0143C73.2352 39.9927 73.2355 39.971 73.2359 39.9494C73.2364 39.9278 73.2369 39.9066 73.2373 39.8859C73.2382 39.8652 73.2394 39.8454 73.2408 39.8265C73.2311 39.8371 73.2191 39.8486 73.2049 39.861C73.1911 39.8734 73.1763 39.8863 73.1607 39.8997L73.0447 39.9922L72.9632 39.8893L73.2629 39.6546H73.3982V40.6641ZM74.4728 40.6641H73.7893V40.5418L74.051 40.2767C74.1016 40.2251 74.1432 40.1807 74.1759 40.1434C74.2086 40.1057 74.2328 40.07 74.2484 40.0364C74.2645 40.0028 74.2726 39.9662 74.2726 39.9266C74.2726 39.8778 74.2586 39.841 74.2305 39.8161C74.2024 39.7908 74.1653 39.7782 74.1193 39.7782C74.0756 39.7782 74.0351 39.7869 73.9978 39.8044C73.961 39.8214 73.9227 39.8458 73.8832 39.8776L73.7941 39.7706C73.8222 39.7466 73.8521 39.7248 73.8839 39.705C73.9161 39.6852 73.952 39.6695 73.9916 39.658C74.0312 39.646 74.0763 39.6401 74.1269 39.6401C74.1909 39.6401 74.2461 39.6516 74.2926 39.6746C74.3391 39.6971 74.3748 39.7287 74.3997 39.7692C74.425 39.8097 74.4376 39.8569 74.4376 39.9107C74.4376 39.965 74.4268 40.0152 74.4052 40.0613C74.3835 40.1073 74.3527 40.1529 74.3127 40.198C74.2726 40.2426 74.225 40.2912 74.1697 40.3437L73.995 40.5142V40.5218H74.4728V40.6641ZM75.341 40.1586C75.341 40.2401 75.3346 40.3131 75.3217 40.3775C75.3093 40.4415 75.2895 40.4958 75.2623 40.5405C75.2352 40.5851 75.1997 40.6192 75.156 40.6427C75.1122 40.6661 75.0593 40.6779 74.9972 40.6779C74.9194 40.6779 74.8552 40.6574 74.8045 40.6164C74.7539 40.575 74.7164 40.5156 74.692 40.4383C74.6676 40.3605 74.6554 40.2673 74.6554 40.1586C74.6554 40.05 74.6664 39.957 74.6885 39.8797C74.7111 39.8019 74.7474 39.7422 74.7976 39.7008C74.8478 39.6594 74.9143 39.6387 74.9972 39.6387C75.0754 39.6387 75.1399 39.6594 75.1905 39.7008C75.2416 39.7418 75.2793 39.8012 75.3037 39.879C75.3286 39.9563 75.341 40.0495 75.341 40.1586ZM74.819 40.1586C74.819 40.2438 74.8245 40.3149 74.8356 40.372C74.8471 40.4291 74.866 40.4719 74.8922 40.5004C74.9184 40.5285 74.9534 40.5425 74.9972 40.5425C75.0409 40.5425 75.0759 40.5285 75.1021 40.5004C75.1284 40.4723 75.1472 40.4298 75.1587 40.3727C75.1707 40.3156 75.1767 40.2442 75.1767 40.1586C75.1767 40.0739 75.1709 40.003 75.1594 39.9459C75.1479 39.8889 75.1291 39.8461 75.1028 39.8175C75.0766 39.7885 75.0414 39.774 74.9972 39.774C74.953 39.774 74.9178 39.7885 74.8915 39.8175C74.8657 39.8461 74.8471 39.8889 74.8356 39.9459C74.8245 40.003 74.819 40.0739 74.819 40.1586ZM75.8688 40.0329C75.9337 40.0329 75.9908 40.0447 76.04 40.0682C76.0898 40.0912 76.1284 40.1252 76.1561 40.1704C76.1837 40.215 76.1975 40.2698 76.1975 40.3347C76.1975 40.4056 76.1825 40.4668 76.1526 40.5184C76.1227 40.5695 76.0787 40.6088 76.0207 40.6364C75.9627 40.6641 75.8921 40.6779 75.8087 40.6779C75.7558 40.6779 75.7063 40.6733 75.6603 40.6641C75.6147 40.6549 75.5753 40.641 75.5422 40.6226V40.4762C75.5767 40.4956 75.6182 40.5115 75.6665 40.5239C75.7148 40.5359 75.7611 40.5418 75.8053 40.5418C75.8522 40.5418 75.8925 40.5349 75.9261 40.5211C75.9597 40.5073 75.9855 40.4861 76.0035 40.4576C76.0219 40.4291 76.0311 40.3929 76.0311 40.3492C76.0311 40.2912 76.0124 40.2465 75.9751 40.2152C75.9383 40.1835 75.8805 40.1676 75.8018 40.1676C75.7742 40.1676 75.7447 40.1701 75.7134 40.1752C75.6826 40.1798 75.6568 40.1849 75.6361 40.1904L75.565 40.1483L75.603 39.6546H76.1277V39.7975H75.7459L75.7238 40.0488C75.7404 40.0451 75.7602 40.0417 75.7832 40.0385C75.8062 40.0348 75.8347 40.0329 75.8688 40.0329Z" fill="#212121"/>
<path d="M76.0237 47.6564C76.0822 47.6564 76.1349 47.6656 76.1818 47.684C76.2288 47.7019 76.2661 47.7289 76.2937 47.7648C76.3213 47.8007 76.3351 47.8451 76.3351 47.898C76.3351 47.939 76.3266 47.9747 76.3096 48.0051C76.293 48.0355 76.2704 48.0622 76.2419 48.0852C76.2134 48.1077 76.1814 48.1277 76.1459 48.1452C76.1855 48.1646 76.2219 48.1869 76.255 48.2122C76.2886 48.2371 76.3156 48.2663 76.3358 48.2999C76.3565 48.3335 76.3669 48.3729 76.3669 48.418C76.3669 48.4746 76.3524 48.5236 76.3234 48.5651C76.2948 48.606 76.255 48.6378 76.2039 48.6604C76.1528 48.6824 76.0932 48.6935 76.0251 48.6935C75.9519 48.6935 75.8895 48.6827 75.838 48.661C75.7864 48.6394 75.7473 48.6086 75.7206 48.5685C75.6939 48.528 75.6805 48.4797 75.6805 48.4235C75.6805 48.377 75.6897 48.3367 75.7081 48.3027C75.7266 48.2686 75.7512 48.2391 75.782 48.2143C75.8133 48.1894 75.8476 48.1685 75.8849 48.1515C75.8531 48.1326 75.8241 48.1114 75.7979 48.0879C75.7717 48.064 75.7507 48.0366 75.7351 48.0058C75.7199 47.9745 75.7123 47.9383 75.7123 47.8974C75.7123 47.8449 75.7263 47.8009 75.7544 47.7655C75.7825 47.7296 75.82 47.7024 75.867 47.684C75.9144 47.6656 75.9666 47.6564 76.0237 47.6564ZM75.8352 48.4173C75.8352 48.4615 75.8508 48.4979 75.8821 48.5264C75.9135 48.5549 75.9602 48.5692 76.0223 48.5692C76.084 48.5692 76.131 48.5552 76.1632 48.5271C76.1954 48.499 76.2115 48.462 76.2115 48.4159C76.2115 48.3865 76.2032 48.3604 76.1867 48.3379C76.1705 48.3153 76.1487 48.2953 76.1211 48.2778C76.0939 48.2599 76.0637 48.2433 76.0306 48.2281L76.0085 48.2191C75.9726 48.2343 75.9418 48.2516 75.916 48.2709C75.8902 48.2898 75.8702 48.3112 75.8559 48.3351C75.8421 48.3591 75.8352 48.3865 75.8352 48.4173ZM76.0223 47.7813C75.9777 47.7813 75.9408 47.7924 75.9118 47.8145C75.8833 47.8361 75.869 47.8674 75.869 47.9084C75.869 47.9374 75.8759 47.9623 75.8897 47.983C75.904 48.0037 75.9231 48.0216 75.9471 48.0368C75.971 48.0516 75.9975 48.0654 76.0265 48.0783C76.0545 48.0658 76.0799 48.0523 76.1024 48.0375C76.1254 48.0223 76.1436 48.0044 76.157 47.9837C76.1708 47.9625 76.1777 47.9372 76.1777 47.9077C76.1777 47.8672 76.1632 47.8361 76.1342 47.8145C76.1056 47.7924 76.0684 47.7813 76.0223 47.7813ZM77.2351 48.1742C77.2351 48.2557 77.2286 48.3287 77.2157 48.3931C77.2033 48.4571 77.1835 48.5114 77.1563 48.5561C77.1292 48.6007 77.0937 48.6348 77.05 48.6583C77.0063 48.6818 76.9533 48.6935 76.8912 48.6935C76.8134 48.6935 76.7492 48.673 76.6985 48.632C76.6479 48.5906 76.6104 48.5312 76.586 48.4539C76.5616 48.3761 76.5494 48.2829 76.5494 48.1742C76.5494 48.0656 76.5604 47.9726 76.5825 47.8953C76.6051 47.8175 76.6415 47.7579 76.6916 47.7164C76.7418 47.675 76.8083 47.6543 76.8912 47.6543C76.9695 47.6543 77.0339 47.675 77.0845 47.7164C77.1356 47.7574 77.1734 47.8168 77.1978 47.8946C77.2226 47.9719 77.2351 48.0651 77.2351 48.1742ZM76.713 48.1742C76.713 48.2594 76.7186 48.3305 76.7296 48.3876C76.7411 48.4447 76.76 48.4875 76.7862 48.516C76.8125 48.5441 76.8475 48.5582 76.8912 48.5582C76.9349 48.5582 76.9699 48.5441 76.9962 48.516C77.0224 48.488 77.0413 48.4454 77.0528 48.3883C77.0647 48.3312 77.0707 48.2599 77.0707 48.1742C77.0707 48.0895 77.065 48.0187 77.0535 47.9616C77.042 47.9045 77.0231 47.8617 76.9968 47.8331C76.9706 47.8041 76.9354 47.7896 76.8912 47.7896C76.847 47.7896 76.8118 47.8041 76.7856 47.8331C76.7598 47.8617 76.7411 47.9045 76.7296 47.9616C76.7186 48.0187 76.713 48.0895 76.713 48.1742ZM78.1033 48.1742C78.1033 48.2557 78.0968 48.3287 78.0839 48.3931C78.0715 48.4571 78.0517 48.5114 78.0245 48.5561C77.9974 48.6007 77.9619 48.6348 77.9182 48.6583C77.8745 48.6818 77.8215 48.6935 77.7594 48.6935C77.6816 48.6935 77.6174 48.673 77.5667 48.632C77.5161 48.5906 77.4786 48.5312 77.4542 48.4539C77.4298 48.3761 77.4176 48.2829 77.4176 48.1742C77.4176 48.0656 77.4286 47.9726 77.4507 47.8953C77.4733 47.8175 77.5097 47.7579 77.5598 47.7164C77.61 47.675 77.6765 47.6543 77.7594 47.6543C77.8376 47.6543 77.9021 47.675 77.9527 47.7164C78.0038 47.7574 78.0416 47.8168 78.066 47.8946C78.0908 47.9719 78.1033 48.0651 78.1033 48.1742ZM77.5812 48.1742C77.5812 48.2594 77.5868 48.3305 77.5978 48.3876C77.6093 48.4447 77.6282 48.4875 77.6544 48.516C77.6807 48.5441 77.7157 48.5582 77.7594 48.5582C77.8031 48.5582 77.8381 48.5441 77.8643 48.516C77.8906 48.488 77.9095 48.4454 77.921 48.3883C77.9329 48.3312 77.9389 48.2599 77.9389 48.1742C77.9389 48.0895 77.9332 48.0187 77.9217 47.9616C77.9101 47.9045 77.8913 47.8617 77.865 47.8331C77.8388 47.8041 77.8036 47.7896 77.7594 47.7896C77.7152 47.7896 77.68 47.8041 77.6537 47.8331C77.628 47.8617 77.6093 47.9045 77.5978 47.9616C77.5868 48.0187 77.5812 48.0895 77.5812 48.1742Z" fill="#212121"/>
</g>
<defs>
<filter id="filter0_d_7997_48539" x="31.0617" y="22.9908" width="8.72222" height="6.79448" filterUnits="userSpaceOnUse" color-interpolation-filters="sRGB">
<feFlood flood-opacity="0" result="BackgroundImageFix"/>
<feColorMatrix in="SourceAlpha" type="matrix" values="0 0 0 0 0 0 0 0 0 0 0 0 0 0 0 0 0 0 127 0" result="hardAlpha"/>
<feOffset dy="0.23569"/>
<feGaussianBlur stdDeviation="0.942761"/>
<feColorMatrix type="matrix" values="0 0 0 0 0.293333 0 0 0 0 0.333211 0 0 0 0 0.431373 0 0 0 0.2 0"/>
<feBlend mode="normal" in2="BackgroundImageFix" result="effect1_dropShadow_7997_48539"/>
<feBlend mode="normal" in="SourceGraphic" in2="effect1_dropShadow_7997_48539" result="shape"/>
</filter>
<filter id="filter1_d_7997_48539" x="33.4192" y="33.8306" width="8.72026" height="6.79448" filterUnits="userSpaceOnUse" color-interpolation-filters="sRGB">
<feFlood flood-opacity="0" result="BackgroundImageFix"/>
<feColorMatrix in="SourceAlpha" type="matrix" values="0 0 0 0 0 0 0 0 0 0 0 0 0 0 0 0 0 0 127 0" result="hardAlpha"/>
<feOffset dy="0.23569"/>
<feGaussianBlur stdDeviation="0.942761"/>
<feColorMatrix type="matrix" values="0 0 0 0 0.293333 0 0 0 0 0.333211 0 0 0 0 0.431373 0 0 0 0.2 0"/>
<feBlend mode="normal" in2="BackgroundImageFix" result="effect1_dropShadow_7997_48539"/>
<feBlend mode="normal" in="SourceGraphic" in2="effect1_dropShadow_7997_48539" result="shape"/>
</filter>
<filter id="filter2_d_7997_48539" x="23.5207" y="39.7252" width="8.72026" height="6.79448" filterUnits="userSpaceOnUse" color-interpolation-filters="sRGB">
<feFlood flood-opacity="0" result="BackgroundImageFix"/>
<feColorMatrix in="SourceAlpha" type="matrix" values="0 0 0 0 0 0 0 0 0 0 0 0 0 0 0 0 0 0 127 0" result="hardAlpha"/>
<feOffset dy="0.23569"/>
<feGaussianBlur stdDeviation="0.942761"/>
<feColorMatrix type="matrix" values="0 0 0 0 0.293333 0 0 0 0 0.333211 0 0 0 0 0.431373 0 0 0 0.2 0"/>
<feBlend mode="normal" in2="BackgroundImageFix" result="effect1_dropShadow_7997_48539"/>
<feBlend mode="normal" in="SourceGraphic" in2="effect1_dropShadow_7997_48539" result="shape"/>
</filter>
<filter id="filter3_d_7997_48539" x="25.6399" y="53.6314" width="8.72222" height="6.79448" filterUnits="userSpaceOnUse" color-interpolation-filters="sRGB">
<feFlood flood-opacity="0" result="BackgroundImageFix"/>
<feColorMatrix in="SourceAlpha" type="matrix" values="0 0 0 0 0 0 0 0 0 0 0 0 0 0 0 0 0 0 127 0" result="hardAlpha"/>
<feOffset dy="0.23569"/>
<feGaussianBlur stdDeviation="0.942761"/>
<feColorMatrix type="matrix" values="0 0 0 0 0.293333 0 0 0 0 0.333211 0 0 0 0 0.431373 0 0 0 0.2 0"/>
<feBlend mode="normal" in2="BackgroundImageFix" result="effect1_dropShadow_7997_48539"/>
<feBlend mode="normal" in="SourceGraphic" in2="effect1_dropShadow_7997_48539" result="shape"/>
</filter>
<filter id="filter4_d_7997_48539" x="39.0754" y="39.9634" width="8.72026" height="6.79448" filterUnits="userSpaceOnUse" color-interpolation-filters="sRGB">
<feFlood flood-opacity="0" result="BackgroundImageFix"/>
<feColorMatrix in="SourceAlpha" type="matrix" values="0 0 0 0 0 0 0 0 0 0 0 0 0 0 0 0 0 0 127 0" result="hardAlpha"/>
<feOffset dy="0.23569"/>
<feGaussianBlur stdDeviation="0.942761"/>
<feColorMatrix type="matrix" values="0 0 0 0 0.293333 0 0 0 0 0.333211 0 0 0 0 0.431373 0 0 0 0.2 0"/>
<feBlend mode="normal" in2="BackgroundImageFix" result="effect1_dropShadow_7997_48539"/>
<feBlend mode="normal" in="SourceGraphic" in2="effect1_dropShadow_7997_48539" result="shape"/>
</filter>
<filter id="filter5_d_7997_48539" x="41.4309" y="53.6314" width="8.72026" height="6.79448" filterUnits="userSpaceOnUse" color-interpolation-filters="sRGB">
<feFlood flood-opacity="0" result="BackgroundImageFix"/>
<feColorMatrix in="SourceAlpha" type="matrix" values="0 0 0 0 0 0 0 0 0 0 0 0 0 0 0 0 0 0 127 0" result="hardAlpha"/>
<feOffset dy="0.23569"/>
<feGaussianBlur stdDeviation="0.942761"/>
<feColorMatrix type="matrix" values="0 0 0 0 0.293333 0 0 0 0 0.333211 0 0 0 0 0.431373 0 0 0 0.2 0"/>
<feBlend mode="normal" in2="BackgroundImageFix" result="effect1_dropShadow_7997_48539"/>
<feBlend mode="normal" in="SourceGraphic" in2="effect1_dropShadow_7997_48539" result="shape"/>
</filter>
<filter id="filter6_d_7997_48539" x="46.8528" y="30.772" width="8.72026" height="6.79448" filterUnits="userSpaceOnUse" color-interpolation-filters="sRGB">
<feFlood flood-opacity="0" result="BackgroundImageFix"/>
<feColorMatrix in="SourceAlpha" type="matrix" values="0 0 0 0 0 0 0 0 0 0 0 0 0 0 0 0 0 0 127 0" result="hardAlpha"/>
<feOffset dy="0.23569"/>
<feGaussianBlur stdDeviation="0.942761"/>
<feColorMatrix type="matrix" values="0 0 0 0 0.293333 0 0 0 0 0.333211 0 0 0 0 0.431373 0 0 0 0.2 0"/>
<feBlend mode="normal" in2="BackgroundImageFix" result="effect1_dropShadow_7997_48539"/>
<feBlend mode="normal" in="SourceGraphic" in2="effect1_dropShadow_7997_48539" result="shape"/>
</filter>
<filter id="filter7_d_7997_48539" x="49.2102" y="42.0845" width="8.72222" height="6.79448" filterUnits="userSpaceOnUse" color-interpolation-filters="sRGB">
<feFlood flood-opacity="0" result="BackgroundImageFix"/>
<feColorMatrix in="SourceAlpha" type="matrix" values="0 0 0 0 0 0 0 0 0 0 0 0 0 0 0 0 0 0 127 0" result="hardAlpha"/>
<feOffset dy="0.23569"/>
<feGaussianBlur stdDeviation="0.942761"/>
<feColorMatrix type="matrix" values="0 0 0 0 0.293333 0 0 0 0 0.333211 0 0 0 0 0.431373 0 0 0 0.2 0"/>
<feBlend mode="normal" in2="BackgroundImageFix" result="effect1_dropShadow_7997_48539"/>
<feBlend mode="normal" in="SourceGraphic" in2="effect1_dropShadow_7997_48539" result="shape"/>
</filter>
<filter id="filter8_d_7997_48539" x="54.3957" y="39.7252" width="8.72026" height="6.79448" filterUnits="userSpaceOnUse" color-interpolation-filters="sRGB">
<feFlood flood-opacity="0" result="BackgroundImageFix"/>
<feColorMatrix in="SourceAlpha" type="matrix" values="0 0 0 0 0 0 0 0 0 0 0 0 0 0 0 0 0 0 127 0" result="hardAlpha"/>
<feOffset dy="0.23569"/>
<feGaussianBlur stdDeviation="0.942761"/>
<feColorMatrix type="matrix" values="0 0 0 0 0.293333 0 0 0 0 0.333211 0 0 0 0 0.431373 0 0 0 0.2 0"/>
<feBlend mode="normal" in2="BackgroundImageFix" result="effect1_dropShadow_7997_48539"/>
<feBlend mode="normal" in="SourceGraphic" in2="effect1_dropShadow_7997_48539" result="shape"/>
</filter>
<filter id="filter9_d_7997_48539" x="56.7531" y="53.6314" width="8.72222" height="6.79448" filterUnits="userSpaceOnUse" color-interpolation-filters="sRGB">
<feFlood flood-opacity="0" result="BackgroundImageFix"/>
<feColorMatrix in="SourceAlpha" type="matrix" values="0 0 0 0 0 0 0 0 0 0 0 0 0 0 0 0 0 0 127 0" result="hardAlpha"/>
<feOffset dy="0.23569"/>
<feGaussianBlur stdDeviation="0.942761"/>
<feColorMatrix type="matrix" values="0 0 0 0 0.293333 0 0 0 0 0.333211 0 0 0 0 0.431373 0 0 0 0.2 0"/>
<feBlend mode="normal" in2="BackgroundImageFix" result="effect1_dropShadow_7997_48539"/>
<feBlend mode="normal" in="SourceGraphic" in2="effect1_dropShadow_7997_48539" result="shape"/>
</filter>
<filter id="filter10_d_7997_48539" x="62.4074" y="54.5767" width="8.72026" height="6.79448" filterUnits="userSpaceOnUse" color-interpolation-filters="sRGB">
<feFlood flood-opacity="0" result="BackgroundImageFix"/>
<feColorMatrix in="SourceAlpha" type="matrix" values="0 0 0 0 0 0 0 0 0 0 0 0 0 0 0 0 0 0 127 0" result="hardAlpha"/>
<feOffset dy="0.23569"/>
<feGaussianBlur stdDeviation="0.942761"/>
<feColorMatrix type="matrix" values="0 0 0 0 0.293333 0 0 0 0 0.333211 0 0 0 0 0.431373 0 0 0 0.2 0"/>
<feBlend mode="normal" in2="BackgroundImageFix" result="effect1_dropShadow_7997_48539"/>
<feBlend mode="normal" in="SourceGraphic" in2="effect1_dropShadow_7997_48539" result="shape"/>
</filter>
<filter id="filter11_d_7997_48539" x="64.5285" y="59.9947" width="8.72026" height="6.79448" filterUnits="userSpaceOnUse" color-interpolation-filters="sRGB">
<feFlood flood-opacity="0" result="BackgroundImageFix"/>
<feColorMatrix in="SourceAlpha" type="matrix" values="0 0 0 0 0 0 0 0 0 0 0 0 0 0 0 0 0 0 127 0" result="hardAlpha"/>
<feOffset dy="0.23569"/>
<feGaussianBlur stdDeviation="0.942761"/>
<feColorMatrix type="matrix" values="0 0 0 0 0.293333 0 0 0 0 0.333211 0 0 0 0 0.431373 0 0 0 0.2 0"/>
<feBlend mode="normal" in2="BackgroundImageFix" result="effect1_dropShadow_7997_48539"/>
<feBlend mode="normal" in="SourceGraphic" in2="effect1_dropShadow_7997_48539" result="shape"/>
</filter>
<filter id="filter12_d_7997_48539" x="69.9504" y="36.897" width="8.72026" height="6.79448" filterUnits="userSpaceOnUse" color-interpolation-filters="sRGB">
<feFlood flood-opacity="0" result="BackgroundImageFix"/>
<feColorMatrix in="SourceAlpha" type="matrix" values="0 0 0 0 0 0 0 0 0 0 0 0 0 0 0 0 0 0 127 0" result="hardAlpha"/>
<feOffset dy="0.23569"/>
<feGaussianBlur stdDeviation="0.942761"/>
<feColorMatrix type="matrix" values="0 0 0 0 0.293333 0 0 0 0 0.333211 0 0 0 0 0.431373 0 0 0 0.2 0"/>
<feBlend mode="normal" in2="BackgroundImageFix" result="effect1_dropShadow_7997_48539"/>
<feBlend mode="normal" in="SourceGraphic" in2="effect1_dropShadow_7997_48539" result="shape"/>
</filter>
<filter id="filter13_d_7997_48539" x="72.3078" y="44.9088" width="8.72222" height="6.79448" filterUnits="userSpaceOnUse" color-interpolation-filters="sRGB">
<feFlood flood-opacity="0" result="BackgroundImageFix"/>
<feColorMatrix in="SourceAlpha" type="matrix" values="0 0 0 0 0 0 0 0 0 0 0 0 0 0 0 0 0 0 127 0" result="hardAlpha"/>
<feOffset dy="0.23569"/>
<feGaussianBlur stdDeviation="0.942761"/>
<feColorMatrix type="matrix" values="0 0 0 0 0.293333 0 0 0 0 0.333211 0 0 0 0 0.431373 0 0 0 0.2 0"/>
<feBlend mode="normal" in2="BackgroundImageFix" result="effect1_dropShadow_7997_48539"/>
<feBlend mode="normal" in="SourceGraphic" in2="effect1_dropShadow_7997_48539" result="shape"/>
</filter>
<clipPath id="clip0_7997_48539">
<rect width="70" height="54.9158" fill="white" transform="translate(11.5 18.043)"/>
</clipPath>
</defs>
</svg>
