<svg width="92" height="92" viewBox="0 0 92 92" fill="none" xmlns="http://www.w3.org/2000/svg">
<rect x="0.389831" y="0.389831" width="91.079" height="91.2203" rx="17.5424" stroke="#BEBEBE" stroke-width="0.779661"/>
<circle opacity="0.1" cx="45.1053" cy="45.825" r="18.0047" fill="#93D200"/>
<circle opacity="0.2" cx="45.107" cy="45.8219" r="31.9709" stroke="#93D200" stroke-width="3.7019" stroke-dasharray="0.89 0.89"/>
<mask id="path-4-inside-1_7997_48654" fill="white">
<path d="M33.4118 69.8046C32.661 71.3439 33.2963 73.217 34.9053 73.8037C38.8996 75.2602 43.1716 75.8489 47.4341 75.515C52.7303 75.1003 57.8191 73.2765 62.1731 70.2327C66.5271 67.189 69.9877 63.0361 72.1963 58.2045C74.4048 53.373 75.2809 48.0386 74.7337 42.7545C74.1864 37.4704 72.2358 32.4288 69.084 28.1523C65.9322 23.8759 61.694 20.5203 56.8087 18.4334C51.9234 16.3465 46.5688 15.6042 41.3 16.2836C37.0595 16.8303 32.9988 18.2819 29.3877 20.5261C27.9332 21.4301 27.6952 23.3936 28.7455 24.7464C29.7957 26.0991 31.7355 26.3241 33.2143 25.4603C35.9324 23.8726 38.9504 22.8397 42.0931 22.4345C46.2647 21.8966 50.5043 22.4843 54.3724 24.1367C58.2404 25.789 61.5961 28.4459 64.0916 31.8318C66.5871 35.2178 68.1315 39.2095 68.5648 43.3934C68.9981 47.5772 68.3045 51.8007 66.5558 55.6262C64.8071 59.4517 62.0671 62.7398 58.6198 65.1498C55.1724 67.5597 51.1432 69.0037 46.9499 69.3321C43.7908 69.5796 40.6252 69.187 37.6395 68.19C36.0151 67.6476 34.1625 68.2654 33.4118 69.8046Z"/>
</mask>
<path d="M33.4118 69.8046C32.661 71.3439 33.2963 73.217 34.9053 73.8037C38.8996 75.2602 43.1716 75.8489 47.4341 75.515C52.7303 75.1003 57.8191 73.2765 62.1731 70.2327C66.5271 67.189 69.9877 63.0361 72.1963 58.2045C74.4048 53.373 75.2809 48.0386 74.7337 42.7545C74.1864 37.4704 72.2358 32.4288 69.084 28.1523C65.9322 23.8759 61.694 20.5203 56.8087 18.4334C51.9234 16.3465 46.5688 15.6042 41.3 16.2836C37.0595 16.8303 32.9988 18.2819 29.3877 20.5261C27.9332 21.4301 27.6952 23.3936 28.7455 24.7464C29.7957 26.0991 31.7355 26.3241 33.2143 25.4603C35.9324 23.8726 38.9504 22.8397 42.0931 22.4345C46.2647 21.8966 50.5043 22.4843 54.3724 24.1367C58.2404 25.789 61.5961 28.4459 64.0916 31.8318C66.5871 35.2178 68.1315 39.2095 68.5648 43.3934C68.9981 47.5772 68.3045 51.8007 66.5558 55.6262C64.8071 59.4517 62.0671 62.7398 58.6198 65.1498C55.1724 67.5597 51.1432 69.0037 46.9499 69.3321C43.7908 69.5796 40.6252 69.187 37.6395 68.19C36.0151 67.6476 34.1625 68.2654 33.4118 69.8046Z" stroke="#93D200" stroke-width="13.392" stroke-linejoin="round" mask="url(#path-4-inside-1_7997_48654)"/>
<mask id="path-5-inside-2_7997_48654" fill="white">
<path d="M37.258 20.3211C36.7541 18.6843 35.0102 17.751 33.4347 18.4223C30.4241 19.705 27.6387 21.478 25.1948 23.6755C21.9804 26.5658 19.4336 30.1211 17.7315 34.0946C16.0293 38.0681 15.2125 42.3645 15.3377 46.6855C15.4629 51.0064 16.5273 55.2483 18.4567 59.1165C20.3862 62.9847 23.1346 66.3866 26.511 69.0858C29.8874 71.7851 33.811 73.717 38.0091 74.7474C42.2072 75.7778 46.5794 75.8821 50.8218 75.0529C54.0474 74.4224 57.1393 73.2639 59.9749 71.6304C61.4589 70.7756 61.7624 68.8211 60.7579 67.434C59.7535 66.0469 57.8223 65.7571 56.3155 66.571C54.2265 67.6993 51.9739 68.5085 49.6322 68.9662C46.2731 69.6227 42.8114 69.5402 39.4874 68.7244C36.1635 67.9085 33.057 66.3789 30.3836 64.2417C27.7103 62.1045 25.5342 59.411 24.0065 56.3483C22.4788 53.2855 21.6361 49.9269 21.5369 46.5058C21.4378 43.0846 22.0845 39.6828 23.4322 36.5367C24.78 33.3906 26.7964 30.5756 29.3414 28.2872C31.1157 26.6918 33.1172 25.3791 35.2751 24.389C36.8317 23.6749 37.7618 21.9578 37.258 20.3211Z"/>
</mask>
<path d="M37.258 20.3211C36.7541 18.6843 35.0102 17.751 33.4347 18.4223C30.4241 19.705 27.6387 21.478 25.1948 23.6755C21.9804 26.5658 19.4336 30.1211 17.7315 34.0946C16.0293 38.0681 15.2125 42.3645 15.3377 46.6855C15.4629 51.0064 16.5273 55.2483 18.4567 59.1165C20.3862 62.9847 23.1346 66.3866 26.511 69.0858C29.8874 71.7851 33.811 73.717 38.0091 74.7474C42.2072 75.7778 46.5794 75.8821 50.8218 75.0529C54.0474 74.4224 57.1393 73.2639 59.9749 71.6304C61.4589 70.7756 61.7624 68.8211 60.7579 67.434C59.7535 66.0469 57.8223 65.7571 56.3155 66.571C54.2265 67.6993 51.9739 68.5085 49.6322 68.9662C46.2731 69.6227 42.8114 69.5402 39.4874 68.7244C36.1635 67.9085 33.057 66.3789 30.3836 64.2417C27.7103 62.1045 25.5342 59.411 24.0065 56.3483C22.4788 53.2855 21.6361 49.9269 21.5369 46.5058C21.4378 43.0846 22.0845 39.6828 23.4322 36.5367C24.78 33.3906 26.7964 30.5756 29.3414 28.2872C31.1157 26.6918 33.1172 25.3791 35.2751 24.389C36.8317 23.6749 37.7618 21.9578 37.258 20.3211Z" stroke="#3A7F1E" stroke-width="13.392" stroke-linejoin="round" mask="url(#path-5-inside-2_7997_48654)"/>
<path d="M43.3917 47.2185H42.7409V48.2734H41.9785V47.2185H39.793V46.6335L41.9883 43.4554H42.7409V46.5776H43.3917V47.2185ZM41.9785 46.5776V45.3846C41.9785 45.286 41.9796 45.1863 41.9818 45.0855C41.9862 44.9826 41.9905 44.884 41.9949 44.7898C41.9993 44.6955 42.0037 44.609 42.0081 44.5301C42.0124 44.4491 42.0157 44.3822 42.0179 44.3297H41.9916C41.95 44.4173 41.904 44.5071 41.8536 44.5991C41.8032 44.689 41.7495 44.7766 41.6926 44.8621L40.5094 46.5776H41.9785ZM44.3645 48.2734L46.2509 44.1456H43.7565V43.4686H47.0824V43.9977L45.196 48.2734H44.3645ZM50.921 45.8677C50.921 46.2555 50.8903 46.6028 50.829 46.9095C50.7698 47.2141 50.6756 47.4726 50.5464 47.6852C50.4171 47.8977 50.2484 48.0598 50.0402 48.1716C49.8321 48.2833 49.5801 48.3392 49.2843 48.3392C48.9141 48.3392 48.6084 48.2417 48.3674 48.0467C48.1264 47.8495 47.9478 47.5668 47.8317 47.1988C47.7156 46.8285 47.6575 46.3848 47.6575 45.8677C47.6575 45.3507 47.7101 44.9081 47.8153 44.54C47.9226 44.1697 48.0957 43.886 48.3345 43.6888C48.5734 43.4916 48.89 43.393 49.2843 43.393C49.6568 43.393 49.9635 43.4916 50.2046 43.6888C50.4478 43.8838 50.6274 44.1664 50.7435 44.5367C50.8619 44.9048 50.921 45.3485 50.921 45.8677ZM48.4364 45.8677C48.4364 46.2731 48.4627 46.6116 48.5153 46.8833C48.5701 47.1549 48.6599 47.3587 48.7848 47.4945C48.9097 47.6282 49.0762 47.695 49.2843 47.695C49.4925 47.695 49.659 47.6282 49.7839 47.4945C49.9088 47.3609 49.9986 47.1582 50.0534 46.8865C50.1103 46.6149 50.1388 46.2753 50.1388 45.8677C50.1388 45.4646 50.1114 45.1272 50.0567 44.8555C50.0019 44.5838 49.9121 44.38 49.7872 44.2442C49.6623 44.1062 49.4947 44.0372 49.2843 44.0372C49.074 44.0372 48.9064 44.1062 48.7815 44.2442C48.6588 44.38 48.5701 44.5838 48.5153 44.8555C48.4627 45.1272 48.4364 45.4646 48.4364 45.8677Z" fill="#3A7F1E"/>
<rect x="12.1267" y="19.238" width="15.1441" height="8.74994" rx="4.37497" fill="white" fill-opacity="0.3"/>
<rect x="12.1267" y="19.238" width="15.1441" height="8.74994" rx="4.37497" stroke="#93D200" stroke-width="0.336536"/>
<path d="M18.2882 22.889C18.2882 23.0191 18.2619 23.1322 18.2094 23.2282C18.1568 23.3241 18.0845 23.403 17.9924 23.4648C17.9017 23.5253 17.7966 23.5686 17.6769 23.5949V23.6087C17.907 23.6376 18.0805 23.71 18.1975 23.8256C18.3158 23.9413 18.375 24.0945 18.375 24.2851C18.375 24.452 18.3349 24.6012 18.2547 24.7327C18.1745 24.8629 18.0516 24.9654 17.886 25.0403C17.7203 25.1153 17.5074 25.1527 17.2471 25.1527C17.0906 25.1527 16.9454 25.1402 16.8113 25.1153C16.6785 25.0903 16.5523 25.0502 16.4327 24.995V24.5828C16.5549 24.6433 16.6851 24.69 16.8231 24.7228C16.9611 24.7557 17.0919 24.7721 17.2155 24.7721C17.4561 24.7721 17.6276 24.7274 17.7302 24.6381C17.8327 24.5473 17.884 24.4225 17.884 24.2634C17.884 24.1609 17.857 24.0767 17.8031 24.011C17.7506 23.9453 17.6684 23.896 17.5567 23.8631C17.4462 23.8302 17.3036 23.8138 17.1288 23.8138H16.8744V23.4411H17.1307C17.2977 23.4411 17.4318 23.4214 17.533 23.382C17.6342 23.3412 17.7072 23.2853 17.7519 23.2143C17.7979 23.1434 17.8209 23.0605 17.8209 22.9659C17.8209 22.8423 17.7808 22.7464 17.7006 22.678C17.6204 22.6083 17.5014 22.5735 17.3437 22.5735C17.2464 22.5735 17.1577 22.5847 17.0775 22.607C16.9986 22.6294 16.9257 22.6576 16.8586 22.6918C16.7916 22.726 16.7278 22.7628 16.6673 22.8022L16.4445 22.4808C16.5536 22.3993 16.6838 22.3303 16.8349 22.2738C16.9861 22.2172 17.1623 22.189 17.3634 22.189C17.6592 22.189 17.8873 22.2527 18.0477 22.3802C18.208 22.5064 18.2882 22.676 18.2882 22.889ZM20.8142 24.4803H20.4238V25.1133H19.9663V24.4803H18.655V24.1293L19.9722 22.2225H20.4238V24.0958H20.8142V24.4803ZM19.9663 24.0958V23.38C19.9663 23.3208 19.967 23.261 19.9683 23.2005C19.9709 23.1388 19.9735 23.0796 19.9762 23.0231C19.9788 22.9665 19.9814 22.9146 19.9841 22.8673C19.9867 22.8187 19.9887 22.7786 19.99 22.747H19.9742C19.9492 22.7996 19.9216 22.8535 19.8914 22.9087C19.8611 22.9626 19.8289 23.0152 19.7948 23.0665L19.0849 24.0958H19.9663ZM22.0486 23.311C22.234 23.311 22.397 23.3445 22.5377 23.4115C22.6796 23.4773 22.7901 23.5745 22.8689 23.7034C22.9478 23.8309 22.9872 23.9873 22.9872 24.1727C22.9872 24.3751 22.9445 24.55 22.8591 24.6972C22.7736 24.8431 22.6481 24.9555 22.4824 25.0344C22.3168 25.1133 22.115 25.1527 21.8771 25.1527C21.7259 25.1527 21.5846 25.1396 21.4531 25.1133C21.323 25.087 21.2106 25.0476 21.1159 24.995V24.5769C21.2145 24.6321 21.3328 24.6775 21.4709 24.713C21.6089 24.7472 21.741 24.7643 21.8672 24.7643C22.0013 24.7643 22.1163 24.7445 22.2123 24.7051C22.3083 24.6657 22.3819 24.6052 22.4331 24.5237C22.4857 24.4422 22.512 24.339 22.512 24.2141C22.512 24.0485 22.4588 23.9209 22.3523 23.8316C22.2471 23.7408 22.0822 23.6955 21.8574 23.6955C21.7785 23.6955 21.6943 23.7027 21.605 23.7172C21.5169 23.7303 21.4433 23.7448 21.3841 23.7606L21.181 23.6403L21.2895 22.2304H22.7881V22.6386H21.6976L21.6345 23.3563C21.6819 23.3458 21.7384 23.3359 21.8041 23.3267C21.8698 23.3162 21.9513 23.311 22.0486 23.311Z" fill="black"/>
<rect x="66.3093" y="58.2731" width="15.1441" height="8.74994" rx="4.37497" fill="white" fill-opacity="0.3"/>
<rect x="66.3093" y="58.2731" width="15.1441" height="8.74994" rx="4.37497" stroke="#93D200" stroke-width="0.336536"/>
<path d="M71.9917 64.1484H71.5263V62.2929C71.5263 62.2311 71.527 62.1693 71.5283 62.1075C71.5296 62.0457 71.5309 61.9853 71.5322 61.9261C71.5349 61.867 71.5381 61.8104 71.5421 61.7565C71.5145 61.7868 71.4803 61.8196 71.4395 61.8551C71.4001 61.8906 71.358 61.9274 71.3133 61.9656L70.9821 62.2298L70.7494 61.936L71.6052 61.2655H71.9917V64.1484ZM74.8923 64.1484H72.9402V63.7994L73.6875 63.0422C73.8321 62.895 73.9511 62.7681 74.0444 62.6616C74.1378 62.5538 74.2068 62.452 74.2515 62.356C74.2975 62.26 74.3205 62.1555 74.3205 62.0425C74.3205 61.9031 74.2804 61.7979 74.2002 61.727C74.12 61.6547 74.0142 61.6185 73.8827 61.6185C73.7578 61.6185 73.6422 61.6435 73.5357 61.6934C73.4305 61.7421 73.3214 61.8117 73.2083 61.9025L72.954 61.5968C73.0342 61.5285 73.1196 61.466 73.2103 61.4095C73.3023 61.353 73.4049 61.3083 73.5179 61.2754C73.631 61.2412 73.7598 61.2241 73.9044 61.2241C74.0871 61.2241 74.2449 61.257 74.3777 61.3227C74.5104 61.3871 74.6123 61.4772 74.6833 61.5929C74.7556 61.7085 74.7918 61.8433 74.7918 61.9971C74.7918 62.1522 74.7609 62.2955 74.6991 62.427C74.6373 62.5584 74.5492 62.6886 74.4349 62.8174C74.3205 62.9449 74.1844 63.0836 74.0267 63.2335L73.5278 63.7205V63.7422H74.8923V64.1484ZM76.2312 62.3461C76.4166 62.3461 76.5796 62.3797 76.7203 62.4467C76.8623 62.5124 76.9727 62.6097 77.0516 62.7385C77.1304 62.8661 77.1699 63.0225 77.1699 63.2078C77.1699 63.4103 77.1271 63.5851 77.0417 63.7324C76.9562 63.8783 76.8307 63.9907 76.6651 64.0696C76.4994 64.1484 76.2976 64.1879 76.0597 64.1879C75.9085 64.1879 75.7672 64.1747 75.6357 64.1484C75.5056 64.1221 75.3932 64.0827 75.2985 64.0301V63.6121C75.3971 63.6673 75.5154 63.7126 75.6535 63.7481C75.7915 63.7823 75.9236 63.7994 76.0498 63.7994C76.1839 63.7994 76.2989 63.7797 76.3949 63.7403C76.4909 63.7008 76.5645 63.6403 76.6158 63.5588C76.6683 63.4773 76.6946 63.3741 76.6946 63.2493C76.6946 63.0836 76.6414 62.9561 76.5349 62.8667C76.4297 62.776 76.2648 62.7306 76.04 62.7306C75.9611 62.7306 75.877 62.7379 75.7876 62.7523C75.6995 62.7655 75.6259 62.7799 75.5667 62.7957L75.3636 62.6754L75.4721 61.2655H76.9707V61.6737H75.8802L75.8171 62.3915C75.8645 62.381 75.921 62.3711 75.9867 62.3619C76.0525 62.3514 76.134 62.3461 76.2312 62.3461Z" fill="black"/>
</svg>
