<svg width="93" height="92" viewBox="0 0 93 92" fill="none" xmlns="http://www.w3.org/2000/svg">
<rect x="1.13104" y="0.389831" width="91.079" height="91.2203" rx="17.5424" stroke="#BEBEBE" stroke-width="0.779661"/>
<line x1="18.1908" y1="22.125" x2="18.1908" y2="66.4065" stroke="#3347E6" stroke-width="0.1258"/>
<line x1="27.2484" y1="22.1879" x2="27.2484" y2="66.3436" stroke="#D3D6DF" stroke-width="0.1258" stroke-linecap="square" stroke-dasharray="0.25 0.25"/>
<line x1="36.3061" y1="22.1879" x2="36.3061" y2="66.3436" stroke="#D3D6DF" stroke-width="0.1258" stroke-linecap="square" stroke-dasharray="0.25 0.25"/>
<line x1="45.3637" y1="22.1879" x2="45.3637" y2="66.3436" stroke="#D3D6DF" stroke-width="0.1258" stroke-linecap="square" stroke-dasharray="0.25 0.25"/>
<line x1="54.4213" y1="22.1879" x2="54.4213" y2="66.3436" stroke="#D3D6DF" stroke-width="0.1258" stroke-linecap="square" stroke-dasharray="0.25 0.25"/>
<line x1="63.4789" y1="22.1879" x2="63.4789" y2="66.3436" stroke="#D3D6DF" stroke-width="0.1258" stroke-linecap="square" stroke-dasharray="0.25 0.25"/>
<line x1="72.5365" y1="22.1879" x2="72.5365" y2="66.3436" stroke="#D3D6DF" stroke-width="0.1258" stroke-linecap="square" stroke-dasharray="0.25 0.25"/>
<line x1="81.5941" y1="22.1879" x2="81.5941" y2="66.3436" stroke="#D3D6DF" stroke-width="0.1258" stroke-linecap="square" stroke-dasharray="0.25 0.25"/>
<line x1="18.4428" y1="23.3199" x2="81.4684" y2="23.3199" stroke="#D3D6DF" stroke-width="0.1258" stroke-linecap="square" stroke-dasharray="0.25 0.25"/>
<line x1="18.4428" y1="26.0894" x2="81.4684" y2="26.0894" stroke="#D3D6DF" stroke-width="0.1258" stroke-linecap="square" stroke-dasharray="0.25 0.25"/>
<line x1="18.4428" y1="28.8551" x2="81.4684" y2="28.8551" stroke="#D3D6DF" stroke-width="0.1258" stroke-linecap="square" stroke-dasharray="0.25 0.25"/>
<line x1="18.4428" y1="31.6246" x2="81.4684" y2="31.6246" stroke="#D3D6DF" stroke-width="0.1258" stroke-linecap="square" stroke-dasharray="0.25 0.25"/>
<line x1="18.4428" y1="34.3902" x2="81.4684" y2="34.3902" stroke="#D3D6DF" stroke-width="0.1258" stroke-linecap="square" stroke-dasharray="0.25 0.25"/>
<line x1="18.4428" y1="37.1598" x2="81.4684" y2="37.1598" stroke="#D3D6DF" stroke-width="0.1258" stroke-linecap="square" stroke-dasharray="0.25 0.25"/>
<line x1="18.4428" y1="39.9254" x2="81.4684" y2="39.9254" stroke="#D3D6DF" stroke-width="0.1258" stroke-linecap="square" stroke-dasharray="0.25 0.25"/>
<line x1="18.4428" y1="42.6949" x2="81.4684" y2="42.6949" stroke="#D3D6DF" stroke-width="0.1258" stroke-linecap="square" stroke-dasharray="0.25 0.25"/>
<line x1="18.4428" y1="45.4605" x2="81.4684" y2="45.4605" stroke="#D3D6DF" stroke-width="0.1258" stroke-linecap="square" stroke-dasharray="0.25 0.25"/>
<line x1="18.4428" y1="48.2301" x2="81.4684" y2="48.2301" stroke="#D3D6DF" stroke-width="0.1258" stroke-linecap="square" stroke-dasharray="0.25 0.25"/>
<line x1="18.4428" y1="50.9957" x2="81.4684" y2="50.9957" stroke="#D3D6DF" stroke-width="0.1258" stroke-linecap="square" stroke-dasharray="0.25 0.25"/>
<line x1="18.4428" y1="53.7652" x2="81.4684" y2="53.7652" stroke="#D3D6DF" stroke-width="0.1258" stroke-linecap="square" stroke-dasharray="0.25 0.25"/>
<line x1="18.4428" y1="56.5309" x2="81.4684" y2="56.5308" stroke="#D3D6DF" stroke-width="0.1258" stroke-linecap="square" stroke-dasharray="0.25 0.25"/>
<line x1="18.4428" y1="59.3004" x2="81.4684" y2="59.3004" stroke="#D3D6DF" stroke-width="0.1258" stroke-linecap="square" stroke-dasharray="0.25 0.25"/>
<line x1="18.4428" y1="62.066" x2="81.4684" y2="62.066" stroke="#D3D6DF" stroke-width="0.1258" stroke-linecap="square" stroke-dasharray="0.25 0.25"/>
<line x1="18.4428" y1="64.8355" x2="81.4684" y2="64.8355" stroke="#D3D6DF" stroke-width="0.1258" stroke-linecap="square" stroke-dasharray="0.25 0.25"/>
<rect x="20.2928" y="57.7313" width="4.30539" height="3.0391" fill="white" fill-opacity="0.6"/>
<rect x="20.2928" y="57.7313" width="4.30539" height="3.0391" stroke="#6359E8" stroke-width="0.126629"/>
<path d="M22.5463 60.25H22.3517V59.4742C22.3517 59.4484 22.352 59.4226 22.3526 59.3967C22.3531 59.3709 22.3537 59.3456 22.3542 59.3209C22.3553 59.2962 22.3567 59.2725 22.3583 59.25C22.3468 59.2626 22.3325 59.2764 22.3155 59.2912C22.299 59.3061 22.2814 59.3214 22.2627 59.3374L22.1242 59.4479L22.0269 59.325L22.3847 59.0447H22.5463V60.25ZM23.9445 60.25H23.717L23.3418 59.7026L23.2231 59.799V60.25H23.0253V59.0447H23.2231V59.621C23.2473 59.5913 23.2718 59.5616 23.2965 59.5319C23.3212 59.5023 23.346 59.4726 23.3707 59.4429L23.7104 59.0447H23.9338L23.4836 59.5723L23.9445 60.25Z" fill="#212121"/>
<rect x="29.5789" y="41.0555" width="4.30539" height="3.0391" fill="white" fill-opacity="0.6"/>
<rect x="29.5789" y="41.0555" width="4.30539" height="3.0391" stroke="#6359E8" stroke-width="0.126629"/>
<path d="M30.8151 42.3524C30.8849 42.3524 30.9478 42.3634 31.0039 42.3854C31.06 42.4069 31.1045 42.439 31.1374 42.4819C31.1704 42.5247 31.1869 42.5778 31.1869 42.641C31.1869 42.6899 31.1767 42.7325 31.1564 42.7688C31.1366 42.805 31.1097 42.8369 31.0756 42.8644C31.0415 42.8913 31.0033 42.9152 30.961 42.9361C31.0083 42.9592 31.0517 42.9859 31.0913 43.0161C31.1314 43.0458 31.1636 43.0807 31.1877 43.1208C31.2125 43.1609 31.2248 43.2079 31.2248 43.2618C31.2248 43.3294 31.2075 43.3879 31.1729 43.4374C31.1388 43.4863 31.0913 43.5242 31.0303 43.5511C30.9693 43.5775 30.8981 43.5907 30.8168 43.5907C30.7294 43.5907 30.6549 43.5778 30.5933 43.552C30.5318 43.5261 30.4851 43.4893 30.4532 43.4415C30.4213 43.3931 30.4054 43.3354 30.4054 43.2684C30.4054 43.2129 30.4164 43.1648 30.4384 43.1241C30.4603 43.0834 30.4897 43.0482 30.5266 43.0186C30.5639 42.9889 30.6049 42.9639 30.6494 42.9435C30.6115 42.921 30.5769 42.8957 30.5455 42.8677C30.5142 42.8391 30.4892 42.8064 30.4705 42.7696C30.4524 42.7322 30.4433 42.6891 30.4433 42.6402C30.4433 42.5775 30.4601 42.525 30.4936 42.4827C30.5271 42.4398 30.5719 42.4074 30.628 42.3854C30.6846 42.3634 30.747 42.3524 30.8151 42.3524ZM30.59 43.2609C30.59 43.3137 30.6087 43.3571 30.6461 43.3912C30.6835 43.4253 30.7393 43.4423 30.8135 43.4423C30.8871 43.4423 30.9432 43.4256 30.9816 43.392C31.0201 43.3585 31.0393 43.3143 31.0393 43.2593C31.0393 43.2241 31.0295 43.1931 31.0097 43.1661C30.9904 43.1392 30.9643 43.1153 30.9313 43.0944C30.8989 43.073 30.8629 43.0532 30.8234 43.0351L30.797 43.0243C30.7541 43.0425 30.7173 43.0631 30.6865 43.0862C30.6557 43.1087 30.6318 43.1343 30.6148 43.1628C30.5983 43.1914 30.59 43.2241 30.59 43.2609ZM30.8135 42.5017C30.7601 42.5017 30.7162 42.5149 30.6816 42.5412C30.6475 42.5671 30.6304 42.6044 30.6304 42.6534C30.6304 42.688 30.6387 42.7177 30.6552 42.7424C30.6722 42.7671 30.695 42.7886 30.7236 42.8067C30.7522 42.8243 30.7838 42.8408 30.8184 42.8562C30.8519 42.8413 30.8822 42.8251 30.9091 42.8075C30.9366 42.7894 30.9583 42.7679 30.9742 42.7432C30.9907 42.7179 30.9989 42.6877 30.9989 42.6525C30.9989 42.6042 30.9816 42.5671 30.947 42.5412C30.9129 42.5149 30.8684 42.5017 30.8135 42.5017ZM32.191 42.9708C32.191 43.068 32.1833 43.1551 32.168 43.2321C32.1531 43.3085 32.1295 43.3733 32.0971 43.4266C32.0646 43.48 32.0223 43.5206 31.9701 43.5487C31.9179 43.5767 31.8547 43.5907 31.7805 43.5907C31.6876 43.5907 31.6109 43.5662 31.5505 43.5173C31.49 43.4679 31.4452 43.397 31.4161 43.3046C31.387 43.2118 31.3724 43.1005 31.3724 42.9708C31.3724 42.841 31.3856 42.73 31.412 42.6377C31.4389 42.5448 31.4823 42.4736 31.5422 42.4242C31.6021 42.3747 31.6816 42.35 31.7805 42.35C31.8739 42.35 31.9509 42.3747 32.0113 42.4242C32.0723 42.4731 32.1174 42.544 32.1465 42.6369C32.1762 42.7292 32.191 42.8405 32.191 42.9708ZM31.5678 42.9708C31.5678 43.0724 31.5744 43.1573 31.5876 43.2255C31.6013 43.2936 31.6239 43.3448 31.6552 43.3788C31.6865 43.4124 31.7283 43.4291 31.7805 43.4291C31.8327 43.4291 31.8745 43.4124 31.9058 43.3788C31.9371 43.3453 31.9597 43.2945 31.9734 43.2263C31.9877 43.1582 31.9948 43.073 31.9948 42.9708C31.9948 42.8696 31.988 42.785 31.9742 42.7168C31.9605 42.6487 31.9379 42.5976 31.9066 42.5635C31.8753 42.5289 31.8333 42.5116 31.7805 42.5116C31.7277 42.5116 31.6857 42.5289 31.6544 42.5635C31.6236 42.5976 31.6013 42.6487 31.5876 42.7168C31.5744 42.785 31.5678 42.8696 31.5678 42.9708ZM33.1572 42.9708C33.1572 43.068 33.1496 43.1551 33.1342 43.2321C33.1193 43.3085 33.0957 43.3733 33.0633 43.4266C33.0308 43.48 32.9885 43.5206 32.9363 43.5487C32.8841 43.5767 32.8209 43.5907 32.7467 43.5907C32.6538 43.5907 32.5771 43.5662 32.5167 43.5173C32.4562 43.4679 32.4114 43.397 32.3823 43.3046C32.3532 43.2118 32.3386 43.1005 32.3386 42.9708C32.3386 42.841 32.3518 42.73 32.3782 42.6377C32.4051 42.5448 32.4485 42.4736 32.5084 42.4242C32.5683 42.3747 32.6478 42.35 32.7467 42.35C32.8401 42.35 32.9171 42.3747 32.9775 42.4242C33.0385 42.4731 33.0836 42.544 33.1127 42.6369C33.1424 42.7292 33.1572 42.8405 33.1572 42.9708ZM32.534 42.9708C32.534 43.0724 32.5406 43.1573 32.5538 43.2255C32.5675 43.2936 32.5901 43.3448 32.6214 43.3788C32.6527 43.4124 32.6945 43.4291 32.7467 43.4291C32.7989 43.4291 32.8407 43.4124 32.872 43.3788C32.9033 43.3453 32.9259 43.2945 32.9396 43.2263C32.9539 43.1582 32.961 43.073 32.961 42.9708C32.961 42.8696 32.9542 42.785 32.9404 42.7168C32.9267 42.6487 32.9042 42.5976 32.8728 42.5635C32.8415 42.5289 32.7995 42.5116 32.7467 42.5116C32.6939 42.5116 32.6519 42.5289 32.6206 42.5635C32.5898 42.5976 32.5675 42.6487 32.5538 42.7168C32.5406 42.785 32.534 42.8696 32.534 42.9708Z" fill="#212121"/>
<rect x="38.8651" y="54.9852" width="4.30539" height="3.0391" fill="white" fill-opacity="0.6"/>
<rect x="38.8651" y="54.9852" width="4.30539" height="3.0391" stroke="#6359E8" stroke-width="0.126629"/>
<path d="M39.6965 56.9903C39.6965 56.9194 39.7014 56.8496 39.7113 56.7809C39.7217 56.7122 39.7393 56.6479 39.7641 56.588C39.7888 56.5281 39.8229 56.4753 39.8663 56.4297C39.9103 56.3841 39.9655 56.3484 40.032 56.3225C40.0985 56.2961 40.1785 56.283 40.2719 56.283C40.2961 56.283 40.3233 56.2841 40.3535 56.2863C40.3837 56.2885 40.4087 56.292 40.4285 56.297V56.4577C40.4071 56.4517 40.3835 56.447 40.3576 56.4437C40.3323 56.4404 40.3071 56.4388 40.2818 56.4388C40.1807 56.4388 40.1018 56.458 40.0452 56.4965C39.9886 56.5344 39.9482 56.5866 39.924 56.6531C39.8998 56.7191 39.8858 56.7946 39.8819 56.8798H39.8918C39.9083 56.8523 39.9289 56.8279 39.9537 56.8065C39.9784 56.785 40.0086 56.768 40.0444 56.7553C40.0801 56.7422 40.1216 56.7356 40.1688 56.7356C40.2392 56.7356 40.3005 56.7504 40.3527 56.7801C40.4049 56.8092 40.445 56.8515 40.473 56.907C40.5016 56.9625 40.5159 57.0299 40.5159 57.109C40.5159 57.1942 40.4997 57.2676 40.4673 57.3291C40.4354 57.3907 40.3898 57.438 40.3304 57.4709C40.2716 57.5039 40.2015 57.5204 40.1202 57.5204C40.0603 57.5204 40.0045 57.5094 39.9528 57.4874C39.9017 57.4654 39.8569 57.4325 39.8185 57.3885C39.78 57.3445 39.75 57.2896 39.7286 57.2236C39.7072 57.1571 39.6965 57.0793 39.6965 56.9903ZM40.1169 57.3605C40.1796 57.3605 40.2298 57.3401 40.2678 57.2995C40.3062 57.2582 40.3255 57.1953 40.3255 57.1107C40.3255 57.042 40.3084 56.9876 40.2744 56.9474C40.2408 56.9073 40.1903 56.8872 40.1227 56.8872C40.0765 56.8872 40.0361 56.8971 40.0015 56.9169C39.9669 56.9367 39.9399 56.9617 39.9207 56.9919C39.902 57.0222 39.8927 57.053 39.8927 57.0843C39.8927 57.1162 39.8973 57.1483 39.9067 57.1807C39.916 57.2132 39.93 57.2431 39.9487 57.2706C39.9674 57.2975 39.9908 57.3192 40.0188 57.3357C40.0468 57.3522 40.0795 57.3605 40.1169 57.3605ZM41.4772 56.9004C41.4772 56.9977 41.4695 57.0848 41.4541 57.1618C41.4393 57.2382 41.4156 57.303 41.3832 57.3563C41.3508 57.4096 41.3084 57.4503 41.2562 57.4783C41.204 57.5064 41.1408 57.5204 41.0666 57.5204C40.9737 57.5204 40.8971 57.4959 40.8366 57.447C40.7762 57.3976 40.7314 57.3267 40.7022 57.2343C40.6731 57.1414 40.6585 57.0301 40.6585 56.9004C40.6585 56.7707 40.6717 56.6597 40.6981 56.5674C40.725 56.4745 40.7685 56.4033 40.8284 56.3539C40.8883 56.3044 40.9677 56.2797 41.0666 56.2797C41.1601 56.2797 41.237 56.3044 41.2975 56.3539C41.3585 56.4028 41.4035 56.4737 41.4327 56.5666C41.4623 56.6589 41.4772 56.7702 41.4772 56.9004ZM40.8539 56.9004C40.8539 57.0021 40.8605 57.087 40.8737 57.1552C40.8874 57.2233 40.91 57.2744 40.9413 57.3085C40.9726 57.342 41.0144 57.3588 41.0666 57.3588C41.1188 57.3588 41.1606 57.342 41.1919 57.3085C41.2233 57.275 41.2458 57.2242 41.2595 57.156C41.2738 57.0879 41.281 57.0027 41.281 56.9004C41.281 56.7993 41.2741 56.7147 41.2604 56.6465C41.2466 56.5784 41.2241 56.5273 41.1928 56.4932C41.1614 56.4586 41.1194 56.4412 41.0666 56.4412C41.0139 56.4412 40.9718 56.4586 40.9405 56.4932C40.9097 56.5273 40.8874 56.5784 40.8737 56.6465C40.8605 56.7147 40.8539 56.7993 40.8539 56.9004ZM42.4434 56.9004C42.4434 56.9977 42.4357 57.0848 42.4203 57.1618C42.4055 57.2382 42.3818 57.303 42.3494 57.3563C42.317 57.4096 42.2747 57.4503 42.2224 57.4783C42.1702 57.5064 42.107 57.5204 42.0328 57.5204C41.9399 57.5204 41.8633 57.4959 41.8028 57.447C41.7424 57.3976 41.6976 57.3267 41.6684 57.2343C41.6393 57.1414 41.6247 57.0301 41.6247 56.9004C41.6247 56.7707 41.6379 56.6597 41.6643 56.5674C41.6912 56.4745 41.7347 56.4033 41.7946 56.3539C41.8545 56.3044 41.9339 56.2797 42.0328 56.2797C42.1263 56.2797 42.2032 56.3044 42.2637 56.3539C42.3247 56.4028 42.3697 56.4737 42.3989 56.5666C42.4285 56.6589 42.4434 56.7702 42.4434 56.9004ZM41.8201 56.9004C41.8201 57.0021 41.8267 57.087 41.8399 57.1552C41.8537 57.2233 41.8762 57.2744 41.9075 57.3085C41.9388 57.342 41.9806 57.3588 42.0328 57.3588C42.085 57.3588 42.1268 57.342 42.1581 57.3085C42.1895 57.275 42.212 57.2242 42.2257 57.156C42.24 57.0879 42.2472 57.0027 42.2472 56.9004C42.2472 56.7993 42.2403 56.7147 42.2266 56.6465C42.2128 56.5784 42.1903 56.5273 42.159 56.4932C42.1276 56.4586 42.0856 56.4412 42.0328 56.4412C41.9801 56.4412 41.938 56.4586 41.9067 56.4932C41.8759 56.5273 41.8537 56.5784 41.8399 56.6465C41.8267 56.7147 41.8201 56.7993 41.8201 56.9004Z" fill="#212121"/>
<rect x="47.5184" y="46.5438" width="4.30539" height="3.0391" fill="white" fill-opacity="0.6"/>
<rect x="47.5184" y="46.5438" width="4.30539" height="3.0391" stroke="#6359E8" stroke-width="0.126629"/>
<path d="M49.1626 48.3708C49.1626 48.4423 49.1574 48.5123 49.147 48.581C49.1371 48.6497 49.1195 48.7141 49.0942 48.774C49.0695 48.8339 49.0351 48.8869 48.9912 48.9331C48.9477 48.9787 48.8928 49.0144 48.8263 49.0402C48.7598 49.0661 48.6795 49.079 48.5856 49.079C48.5619 49.079 48.5344 49.0776 48.5031 49.0749C48.4723 49.0727 48.4471 49.0694 48.4273 49.065V48.9034C48.4482 48.9094 48.4715 48.9144 48.4973 48.9182C48.5237 48.9215 48.5498 48.9232 48.5757 48.9232C48.6773 48.9232 48.7565 48.9042 48.8131 48.8663C48.8703 48.8284 48.9106 48.7762 48.9343 48.7097C48.9585 48.6432 48.9722 48.5676 48.9755 48.4829H48.9656C48.9497 48.5093 48.9296 48.5335 48.9054 48.5555C48.8812 48.5769 48.8513 48.5942 48.8156 48.6074C48.7798 48.6201 48.7364 48.6264 48.6853 48.6264C48.6161 48.6264 48.5556 48.6118 48.5039 48.5827C48.4528 48.5536 48.413 48.5112 48.3844 48.4557C48.3564 48.3997 48.3424 48.3323 48.3424 48.2538C48.3424 48.1686 48.3586 48.0952 48.391 48.0336C48.4234 47.9721 48.4693 47.9248 48.5287 47.8918C48.588 47.8583 48.6578 47.8416 48.7381 47.8416C48.7985 47.8416 48.8543 47.8525 48.9054 47.8745C48.9571 47.896 49.0022 47.9289 49.0406 47.9735C49.0791 48.0174 49.1091 48.0727 49.1305 48.1392C49.1519 48.2051 49.1626 48.2823 49.1626 48.3708ZM48.7405 48.0015C48.6795 48.0015 48.6298 48.0221 48.5913 48.0633C48.5529 48.104 48.5336 48.1666 48.5336 48.2513C48.5336 48.32 48.5501 48.3744 48.5831 48.4145C48.6161 48.4546 48.6666 48.4747 48.7348 48.4747C48.782 48.4747 48.8227 48.4651 48.8568 48.4458C48.8914 48.4261 48.9181 48.4011 48.9368 48.3708C48.956 48.3406 48.9656 48.3098 48.9656 48.2785C48.9656 48.2461 48.9609 48.2136 48.9516 48.1812C48.9428 48.1488 48.9291 48.1191 48.9104 48.0922C48.8917 48.0652 48.8681 48.0435 48.8395 48.027C48.8114 48.01 48.7785 48.0015 48.7405 48.0015ZM50.1305 48.459C50.1305 48.5563 50.1228 48.6434 50.1074 48.7204C50.0926 48.7968 50.0689 48.8616 50.0365 48.9149C50.0041 48.9682 49.9618 49.0089 49.9096 49.0369C49.8573 49.065 49.7941 49.079 49.7199 49.079C49.6271 49.079 49.5504 49.0545 49.4899 49.0056C49.4295 48.9562 49.3847 48.8853 49.3556 48.7929C49.3264 48.7 49.3119 48.5887 49.3119 48.459C49.3119 48.3293 49.325 48.2183 49.3514 48.126C49.3784 48.0331 49.4218 47.9619 49.4817 47.9125C49.5416 47.863 49.621 47.8383 49.7199 47.8383C49.8134 47.8383 49.8903 47.863 49.9508 47.9125C50.0118 47.9614 50.0568 48.0323 50.086 48.1251C50.1157 48.2175 50.1305 48.3288 50.1305 48.459ZM49.5072 48.459C49.5072 48.5607 49.5138 48.6456 49.527 48.7138C49.5408 48.7819 49.5633 48.833 49.5946 48.8671C49.626 48.9006 49.6677 48.9174 49.7199 48.9174C49.7722 48.9174 49.8139 48.9006 49.8453 48.8671C49.8766 48.8336 49.8991 48.7828 49.9129 48.7146C49.9271 48.6464 49.9343 48.5613 49.9343 48.459C49.9343 48.3579 49.9274 48.2733 49.9137 48.2051C49.8999 48.137 49.8774 48.0859 49.8461 48.0518C49.8147 48.0172 49.7727 47.9998 49.7199 47.9998C49.6672 47.9998 49.6251 48.0172 49.5938 48.0518C49.563 48.0859 49.5408 48.137 49.527 48.2051C49.5138 48.2733 49.5072 48.3579 49.5072 48.459ZM51.0967 48.459C51.0967 48.5563 51.089 48.6434 51.0736 48.7204C51.0588 48.7968 51.0351 48.8616 51.0027 48.9149C50.9703 48.9682 50.928 49.0089 50.8758 49.0369C50.8235 49.065 50.7603 49.079 50.6861 49.079C50.5933 49.079 50.5166 49.0545 50.4561 49.0056C50.3957 48.9562 50.3509 48.8853 50.3218 48.7929C50.2926 48.7 50.2781 48.5887 50.2781 48.459C50.2781 48.3293 50.2913 48.2183 50.3176 48.126C50.3446 48.0331 50.388 47.9619 50.4479 47.9125C50.5078 47.863 50.5872 47.8383 50.6861 47.8383C50.7796 47.8383 50.8565 47.863 50.917 47.9125C50.978 47.9614 51.0231 48.0323 51.0522 48.1251C51.0819 48.2175 51.0967 48.3288 51.0967 48.459ZM50.4734 48.459C50.4734 48.5607 50.48 48.6456 50.4932 48.7138C50.507 48.7819 50.5295 48.833 50.5608 48.8671C50.5922 48.9006 50.6339 48.9174 50.6861 48.9174C50.7384 48.9174 50.7801 48.9006 50.8115 48.8671C50.8428 48.8336 50.8653 48.7828 50.8791 48.7146C50.8933 48.6464 50.9005 48.5613 50.9005 48.459C50.9005 48.3579 50.8936 48.2733 50.8799 48.2051C50.8661 48.137 50.8436 48.0859 50.8123 48.0518C50.781 48.0172 50.7389 47.9998 50.6861 47.9998C50.6334 47.9998 50.5913 48.0172 50.56 48.0518C50.5292 48.0859 50.507 48.137 50.4932 48.2051C50.48 48.2733 50.4734 48.3579 50.4734 48.459Z" fill="#212121"/>
<rect x="56.5936" y="57.7313" width="4.30539" height="3.0391" fill="white" fill-opacity="0.6"/>
<rect x="56.5936" y="57.7313" width="4.30539" height="3.0391" stroke="#6359E8" stroke-width="0.126629"/>
<path d="M58.2378 59.5583C58.2378 59.6298 58.2326 59.6998 58.2222 59.7685C58.2123 59.8372 58.1947 59.9016 58.1694 59.9615C58.1447 60.0214 58.1103 60.0744 58.0664 60.1206C58.0229 60.1662 57.968 60.2019 57.9015 60.2277C57.835 60.2536 57.7547 60.2665 57.6608 60.2665C57.6371 60.2665 57.6096 60.2651 57.5783 60.2624C57.5475 60.2602 57.5223 60.2569 57.5025 60.2525V60.0909C57.5234 60.0969 57.5467 60.1019 57.5725 60.1057C57.5989 60.109 57.625 60.1107 57.6509 60.1107C57.7525 60.1107 57.8317 60.0917 57.8883 60.0538C57.9454 60.0159 57.9858 59.9637 58.0095 59.8972C58.0337 59.8307 58.0474 59.7551 58.0507 59.6704H58.0408C58.0249 59.6968 58.0048 59.721 57.9806 59.743C57.9564 59.7644 57.9265 59.7817 57.8908 59.7949C57.855 59.8076 57.8116 59.8139 57.7605 59.8139C57.6913 59.8139 57.6308 59.7993 57.5791 59.7702C57.528 59.7411 57.4882 59.6987 57.4596 59.6432C57.4316 59.5872 57.4176 59.5198 57.4176 59.4413C57.4176 59.3561 57.4338 59.2827 57.4662 59.2211C57.4986 59.1596 57.5445 59.1123 57.6039 59.0793C57.6632 59.0458 57.733 59.0291 57.8133 59.0291C57.8737 59.0291 57.9295 59.04 57.9806 59.062C58.0323 59.0835 58.0774 59.1164 58.1158 59.161C58.1543 59.2049 58.1843 59.2602 58.2057 59.3267C58.2271 59.3926 58.2378 59.4698 58.2378 59.5583ZM57.8157 59.189C57.7547 59.189 57.705 59.2096 57.6665 59.2508C57.628 59.2915 57.6088 59.3541 57.6088 59.4388C57.6088 59.5075 57.6253 59.5619 57.6583 59.602C57.6913 59.6421 57.7418 59.6622 57.81 59.6622C57.8572 59.6622 57.8979 59.6526 57.932 59.6333C57.9666 59.6136 57.9933 59.5886 58.0119 59.5583C58.0312 59.5281 58.0408 59.4973 58.0408 59.466C58.0408 59.4336 58.0361 59.4011 58.0268 59.3687C58.018 59.3363 58.0043 59.3066 57.9856 59.2797C57.9669 59.2527 57.9432 59.231 57.9147 59.2145C57.8866 59.1975 57.8537 59.189 57.8157 59.189ZM58.7993 59.4965C58.8768 59.4965 58.9449 59.5105 59.0037 59.5385C59.0631 59.566 59.1092 59.6067 59.1422 59.6605C59.1752 59.7139 59.1917 59.7793 59.1917 59.8568C59.1917 59.9414 59.1738 60.0145 59.1381 60.076C59.1024 60.1371 59.0499 60.184 58.9806 60.217C58.9114 60.25 58.827 60.2665 58.7275 60.2665C58.6643 60.2665 58.6052 60.261 58.5503 60.25C58.4959 60.239 58.4489 60.2225 58.4093 60.2005V60.0258C58.4505 60.0488 58.5 60.0678 58.5577 60.0826C58.6154 60.0969 58.6707 60.1041 58.7234 60.1041C58.7795 60.1041 58.8276 60.0958 58.8677 60.0793C58.9078 60.0629 58.9386 60.0376 58.96 60.0035C58.982 59.9694 58.993 59.9263 58.993 59.8741C58.993 59.8048 58.9707 59.7515 58.9262 59.7141C58.8822 59.6762 58.8133 59.6573 58.7193 59.6573C58.6863 59.6573 58.6511 59.6603 58.6138 59.6663C58.5769 59.6718 58.5462 59.6779 58.5214 59.6845L58.4365 59.6342L58.4819 59.0447H59.1084V59.2154H58.6525L58.6261 59.5155C58.6459 59.5111 58.6696 59.5069 58.697 59.5031C58.7245 59.4987 58.7586 59.4965 58.7993 59.4965ZM60.1719 59.6465C60.1719 59.7438 60.1642 59.8309 60.1488 59.9079C60.134 59.9843 60.1103 60.0491 60.0779 60.1024C60.0455 60.1557 60.0032 60.1964 59.951 60.2244C59.8987 60.2525 59.8355 60.2665 59.7613 60.2665C59.6685 60.2665 59.5918 60.242 59.5313 60.1931C59.4709 60.1437 59.4261 60.0728 59.397 59.9804C59.3678 59.8875 59.3533 59.7762 59.3533 59.6465C59.3533 59.5168 59.3665 59.4058 59.3928 59.3135C59.4198 59.2206 59.4632 59.1494 59.5231 59.1C59.583 59.0505 59.6624 59.0258 59.7613 59.0258C59.8548 59.0258 59.9317 59.0505 59.9922 59.1C60.0532 59.1489 60.0983 59.2198 60.1274 59.3126C60.1571 59.405 60.1719 59.5163 60.1719 59.6465ZM59.5486 59.6465C59.5486 59.7482 59.5552 59.8331 59.5684 59.9013C59.5822 59.9694 59.6047 60.0205 59.636 60.0546C59.6674 60.0881 59.7091 60.1049 59.7613 60.1049C59.8136 60.1049 59.8553 60.0881 59.8867 60.0546C59.918 60.0211 59.9405 59.9703 59.9543 59.9021C59.9685 59.8339 59.9757 59.7488 59.9757 59.6465C59.9757 59.5454 59.9688 59.4608 59.9551 59.3926C59.9413 59.3245 59.9188 59.2734 59.8875 59.2393C59.8561 59.2047 59.8141 59.1873 59.7613 59.1873C59.7086 59.1873 59.6665 59.2047 59.6352 59.2393C59.6044 59.2734 59.5822 59.3245 59.5684 59.3926C59.5552 59.4608 59.5486 59.5454 59.5486 59.6465Z" fill="#212121"/>
<rect x="65.4578" y="32.825" width="4.72748" height="3.0391" fill="white" fill-opacity="0.6"/>
<rect x="65.4578" y="32.825" width="4.72748" height="3.0391" stroke="#6359E8" stroke-width="0.126629"/>
<path d="M66.9927 35.3438H66.7982V34.568C66.7982 34.5422 66.7985 34.5163 66.799 34.4905C66.7996 34.4647 66.8001 34.4394 66.8007 34.4146C66.8018 34.3899 66.8031 34.3663 66.8048 34.3437C66.7932 34.3564 66.779 34.3701 66.7619 34.385C66.7454 34.3998 66.7278 34.4152 66.7092 34.4311L66.5706 34.5416L66.4734 34.4188L66.8312 34.1385H66.9927V35.3438ZM67.4239 35.2415C67.4239 35.1965 67.4355 35.1649 67.4585 35.1467C67.4822 35.128 67.5107 35.1187 67.5443 35.1187C67.5778 35.1187 67.6064 35.128 67.63 35.1467C67.6542 35.1649 67.6663 35.1965 67.6663 35.2415C67.6663 35.2855 67.6542 35.3174 67.63 35.3372C67.6064 35.3564 67.5778 35.366 67.5443 35.366C67.5107 35.366 67.4822 35.3564 67.4585 35.3372C67.4355 35.3174 67.4239 35.2855 67.4239 35.2415ZM68.7125 35.0791H68.5492V35.3438H68.358V35.0791H67.8097V34.9324L68.3604 34.1352H68.5492V34.9184H68.7125V35.0791ZM68.358 34.9184V34.6191C68.358 34.5944 68.3582 34.5694 68.3588 34.5441C68.3599 34.5182 68.361 34.4935 68.3621 34.4699C68.3632 34.4462 68.3643 34.4245 68.3654 34.4047C68.3665 34.3844 68.3673 34.3677 68.3679 34.3545H68.3613C68.3508 34.3764 68.3393 34.399 68.3266 34.4221C68.314 34.4446 68.3005 34.4666 68.2862 34.488L67.9895 34.9184H68.358ZM69.8205 35.3438H69.5929L69.2178 34.7963L69.0991 34.8928V35.3438H68.9013V34.1385H69.0991V34.7147C69.1233 34.685 69.1477 34.6554 69.1725 34.6257C69.1972 34.596 69.2219 34.5663 69.2467 34.5367L69.5863 34.1385H69.8097L69.3596 34.6661L69.8205 35.3438Z" fill="#212121"/>
<rect x="74.744" y="49.5008" width="4.72748" height="3.0391" fill="white" fill-opacity="0.6"/>
<rect x="74.744" y="49.5008" width="4.72748" height="3.0391" stroke="#6359E8" stroke-width="0.126629"/>
<path d="M76.1911 50.7978C76.2609 50.7978 76.3238 50.8088 76.3799 50.8307C76.4359 50.8522 76.4805 50.8843 76.5134 50.9272C76.5464 50.9701 76.5629 51.0231 76.5629 51.0863C76.5629 51.1352 76.5527 51.1778 76.5324 51.2141C76.5126 51.2504 76.4857 51.2822 76.4516 51.3097C76.4175 51.3366 76.3793 51.3606 76.337 51.3814C76.3843 51.4045 76.4277 51.4312 76.4673 51.4614C76.5074 51.4911 76.5395 51.526 76.5637 51.5661C76.5884 51.6062 76.6008 51.6532 76.6008 51.7071C76.6008 51.7747 76.5835 51.8332 76.5489 51.8827C76.5148 51.9316 76.4673 51.9695 76.4063 51.9964C76.3452 52.0228 76.2741 52.036 76.1927 52.036C76.1053 52.036 76.0309 52.0231 75.9693 51.9973C75.9078 51.9714 75.861 51.9346 75.8292 51.8868C75.7973 51.8384 75.7814 51.7807 75.7814 51.7137C75.7814 51.6582 75.7923 51.6101 75.8143 51.5694C75.8363 51.5287 75.8657 51.4936 75.9025 51.4639C75.9399 51.4342 75.9809 51.4092 76.0254 51.3889C75.9875 51.3663 75.9528 51.341 75.9215 51.313C75.8902 51.2844 75.8652 51.2517 75.8465 51.2149C75.8283 51.1775 75.8193 51.1344 75.8193 51.0855C75.8193 51.0228 75.836 50.9703 75.8696 50.928C75.9031 50.8851 75.9479 50.8527 76.0039 50.8307C76.0606 50.8088 76.1229 50.7978 76.1911 50.7978ZM75.966 51.7063C75.966 51.759 75.9847 51.8024 76.0221 51.8365C76.0595 51.8706 76.1152 51.8876 76.1894 51.8876C76.2631 51.8876 76.3191 51.8709 76.3576 51.8373C76.3961 51.8038 76.4153 51.7596 76.4153 51.7046C76.4153 51.6694 76.4054 51.6384 76.3856 51.6114C76.3664 51.5845 76.3403 51.5606 76.3073 51.5397C76.2749 51.5183 76.2389 51.4985 76.1993 51.4804L76.1729 51.4697C76.1301 51.4878 76.0933 51.5084 76.0625 51.5315C76.0317 51.554 76.0078 51.5796 75.9908 51.6082C75.9743 51.6367 75.966 51.6694 75.966 51.7063ZM76.1894 50.947C76.1361 50.947 76.0922 50.9602 76.0575 50.9865C76.0235 51.0124 76.0064 51.0498 76.0064 51.0987C76.0064 51.1333 76.0147 51.163 76.0311 51.1877C76.0482 51.2124 76.071 51.2339 76.0996 51.252C76.1282 51.2696 76.1598 51.2861 76.1944 51.3015C76.2279 51.2866 76.2581 51.2704 76.2851 51.2528C76.3125 51.2347 76.3343 51.2133 76.3502 51.1885C76.3667 51.1632 76.3749 51.133 76.3749 51.0978C76.3749 51.0495 76.3576 51.0124 76.323 50.9865C76.2889 50.9602 76.2444 50.947 76.1894 50.947ZM77.567 51.4161C77.567 51.5133 77.5593 51.6005 77.5439 51.6774C77.5291 51.7538 77.5055 51.8187 77.473 51.872C77.4406 51.9253 77.3983 51.9659 77.3461 51.994C77.2939 52.022 77.2307 52.036 77.1565 52.036C77.0636 52.036 76.9869 52.0116 76.9265 51.9626C76.866 51.9132 76.8212 51.8423 76.7921 51.7499C76.7629 51.6571 76.7484 51.5458 76.7484 51.4161C76.7484 51.2864 76.7616 51.1753 76.788 51.083C76.8149 50.9901 76.8583 50.9189 76.9182 50.8695C76.9781 50.82 77.0575 50.7953 77.1565 50.7953C77.2499 50.7953 77.3268 50.82 77.3873 50.8695C77.4483 50.9184 77.4934 50.9893 77.5225 51.0822C77.5522 51.1745 77.567 51.2858 77.567 51.4161ZM76.9438 51.4161C76.9438 51.5177 76.9504 51.6027 76.9636 51.6708C76.9773 51.739 76.9998 51.7901 77.0312 51.8241C77.0625 51.8577 77.1043 51.8744 77.1565 51.8744C77.2087 51.8744 77.2504 51.8577 77.2818 51.8241C77.3131 51.7906 77.3356 51.7398 77.3494 51.6716C77.3637 51.6035 77.3708 51.5183 77.3708 51.4161C77.3708 51.3149 77.3639 51.2303 77.3502 51.1621C77.3365 51.094 77.3139 51.0429 77.2826 51.0088C77.2513 50.9742 77.2092 50.9569 77.1565 50.9569C77.1037 50.9569 77.0617 50.9742 77.0303 51.0088C76.9996 51.0429 76.9773 51.094 76.9636 51.1621C76.9504 51.2303 76.9438 51.3149 76.9438 51.4161ZM78.5332 51.4161C78.5332 51.5133 78.5255 51.6005 78.5101 51.6774C78.4953 51.7538 78.4717 51.8187 78.4392 51.872C78.4068 51.9253 78.3645 51.9659 78.3123 51.994C78.2601 52.022 78.1969 52.036 78.1227 52.036C78.0298 52.036 77.9531 52.0116 77.8927 51.9626C77.8322 51.9132 77.7874 51.8423 77.7583 51.7499C77.7292 51.6571 77.7146 51.5458 77.7146 51.4161C77.7146 51.2864 77.7278 51.1753 77.7542 51.083C77.7811 50.9901 77.8245 50.9189 77.8844 50.8695C77.9443 50.82 78.0237 50.7953 78.1227 50.7953C78.2161 50.7953 78.293 50.82 78.3535 50.8695C78.4145 50.9184 78.4596 50.9893 78.4887 51.0822C78.5184 51.1745 78.5332 51.2858 78.5332 51.4161ZM77.91 51.4161C77.91 51.5177 77.9166 51.6027 77.9298 51.6708C77.9435 51.739 77.966 51.7901 77.9974 51.8241C78.0287 51.8577 78.0705 51.8744 78.1227 51.8744C78.1749 51.8744 78.2167 51.8577 78.248 51.8241C78.2793 51.7906 78.3018 51.7398 78.3156 51.6716C78.3299 51.6035 78.337 51.5183 78.337 51.4161C78.337 51.3149 78.3301 51.2303 78.3164 51.1621C78.3027 51.094 78.2801 51.0429 78.2488 51.0088C78.2175 50.9742 78.1754 50.9569 78.1227 50.9569C78.0699 50.9569 78.0279 50.9742 77.9965 51.0088C77.9658 51.0429 77.9435 51.094 77.9298 51.1621C77.9166 51.2303 77.91 51.3149 77.91 51.4161Z" fill="#212121"/>
<circle cx="27.3" cy="45.5314" r="0.316573" fill="#6359E8"/>
<circle cx="27.3" cy="61.9924" r="0.316573" fill="#6359E8"/>
<circle cx="18.2248" cy="61.9924" r="0.316573" fill="#6359E8"/>
<circle cx="36.3752" cy="59.2502" r="0.316573" fill="#6359E8"/>
<circle cx="45.4504" cy="59.2502" r="0.316573" fill="#6359E8"/>
<circle cx="45.4504" cy="51.0197" r="0.316573" fill="#6359E8"/>
<circle cx="54.3136" cy="51.0197" r="0.316573" fill="#6359E8"/>
<circle cx="54.3634" cy="61.8986" r="0.316573" fill="#6359E8"/>
<circle cx="63.4386" cy="61.8986" r="0.316573" fill="#6359E8"/>
<circle cx="63.5998" cy="37.09" r="0.316573" fill="#6359E8"/>
<circle cx="72.464" cy="37.09" r="0.316573" fill="#6359E8"/>
<circle cx="72.5138" cy="53.6681" r="0.316573" fill="#6359E8"/>
<circle cx="81.5392" cy="53.7619" r="0.316573" fill="#6359E8"/>
<circle cx="36.3752" cy="45.5314" r="0.316573" fill="#6359E8"/>
<path d="M18.5358 68.7934C18.5358 68.8939 18.5281 68.9836 18.5129 69.0626C18.4977 69.1417 18.4737 69.2086 18.4409 69.2633C18.4082 69.3181 18.3658 69.3599 18.3139 69.3887C18.262 69.4169 18.1996 69.431 18.1268 69.431C18.0348 69.431 17.9585 69.4059 17.8981 69.3556C17.8383 69.3054 17.7934 69.2329 17.7635 69.138C17.7342 69.0426 17.7195 68.9277 17.7195 68.7934C17.7195 68.6613 17.7327 68.5478 17.7593 68.453C17.7864 68.3576 17.8298 68.2845 17.8897 68.2337C17.9495 68.1823 18.0285 68.1566 18.1268 68.1566C18.2199 68.1566 18.2967 68.182 18.3571 68.2328C18.4175 68.283 18.4624 68.3559 18.4917 68.4513C18.5211 68.5461 18.5358 68.6601 18.5358 68.7934ZM17.8609 68.7934C17.8609 68.9085 17.8696 69.0045 17.8871 69.0813C17.9046 69.1581 17.9329 69.2156 17.9718 69.254C18.0113 69.2918 18.063 69.3108 18.1268 69.3108C18.1906 69.3108 18.2419 69.2918 18.2809 69.254C18.3204 69.2162 18.3489 69.1589 18.3664 69.0821C18.3845 69.0054 18.3935 68.9091 18.3935 68.7934C18.3935 68.6799 18.3848 68.5851 18.3673 68.5089C18.3498 68.4321 18.3215 68.3745 18.2826 68.3361C18.2436 68.2972 18.1917 68.2777 18.1268 68.2777C18.0619 68.2777 18.0099 68.2972 17.971 68.3361C17.932 68.3745 17.9038 68.4321 17.8863 68.5089C17.8694 68.5851 17.8609 68.6799 17.8609 68.7934Z" fill="#222539"/>
<path d="M27.6694 69.4141H27.5322V68.5368C27.5322 68.5035 27.5322 68.475 27.5322 68.4513C27.5328 68.427 27.5333 68.405 27.5339 68.3852C27.535 68.3649 27.5364 68.3443 27.5381 68.3234C27.5206 68.3415 27.5043 68.357 27.489 68.37C27.4738 68.3824 27.4549 68.3979 27.4323 68.4166L27.2909 68.53L27.2172 68.4343L27.5525 68.1761H27.6694V69.4141Z" fill="#222539"/>
<path d="M36.8821 69.4141H36.0709V69.2964L36.402 68.9602C36.4635 68.8981 36.5152 68.8428 36.5569 68.7942C36.5993 68.7457 36.6314 68.698 36.6535 68.6511C36.6755 68.6037 36.6865 68.5518 36.6865 68.4953C36.6865 68.4253 36.6656 68.372 36.6238 68.3353C36.5826 68.298 36.5281 68.2794 36.4604 68.2794C36.4011 68.2794 36.3486 68.2895 36.3029 68.3099C36.2572 68.3302 36.2103 68.359 36.1623 68.3962L36.087 68.3014C36.1197 68.2737 36.1553 68.2492 36.1937 68.2277C36.2326 68.2063 36.2741 68.1893 36.3181 68.1769C36.3627 68.1645 36.4102 68.1583 36.4604 68.1583C36.5366 68.1583 36.6024 68.1716 36.6577 68.1981C36.713 68.2246 36.7556 68.2624 36.7856 68.3116C36.816 68.3607 36.8313 68.4191 36.8313 68.4868C36.8313 68.5523 36.8183 68.6133 36.7923 68.6697C36.7664 68.7256 36.73 68.7812 36.6831 68.8366C36.6362 68.8913 36.5815 68.9495 36.5188 69.011L36.2495 69.2794V69.2854H36.8821V69.4141Z" fill="#222539"/>
<path d="M45.7621 68.4648C45.7621 68.5201 45.7514 68.5681 45.73 68.6088C45.7085 68.6494 45.6786 68.6827 45.6402 68.7087C45.6018 68.7341 45.5567 68.7519 45.5047 68.762V68.7688C45.603 68.7812 45.6766 68.8128 45.7257 68.8637C45.7754 68.9145 45.8003 68.9811 45.8003 69.0635C45.8003 69.1352 45.7833 69.1987 45.7494 69.254C45.7161 69.3093 45.6648 69.3528 45.5953 69.3844C45.5265 69.4155 45.4381 69.431 45.3303 69.431C45.2648 69.431 45.2041 69.4256 45.1482 69.4149C45.0929 69.4047 45.0398 69.3875 44.989 69.3633V69.2312C45.0404 69.2566 45.0963 69.2766 45.1567 69.2913C45.2171 69.3054 45.2755 69.3124 45.332 69.3124C45.4449 69.3124 45.5265 69.2902 45.5767 69.2456C45.6269 69.2004 45.6521 69.1389 45.6521 69.061C45.6521 69.0073 45.638 68.9641 45.6097 68.9314C45.5821 68.8981 45.542 68.8738 45.4895 68.8586C45.4375 68.8428 45.3749 68.8349 45.3015 68.8349H45.1779V68.7146H45.3023C45.3695 68.7146 45.4265 68.7047 45.4734 68.685C45.5202 68.6652 45.5558 68.6376 45.5801 68.602C45.6049 68.5659 45.6173 68.5233 45.6173 68.4741C45.6173 68.4115 45.5965 68.3632 45.5547 68.3293C45.5129 68.2949 45.4562 68.2777 45.3845 68.2777C45.3405 68.2777 45.3004 68.2822 45.2642 68.2912C45.2281 68.3003 45.1942 68.3127 45.1626 68.3285C45.131 68.3443 45.0994 68.3626 45.0678 68.3835L44.9967 68.287C45.0418 68.252 45.0969 68.2218 45.1618 68.1964C45.2267 68.171 45.3004 68.1583 45.3828 68.1583C45.5092 68.1583 45.6041 68.1871 45.6673 68.2447C45.7305 68.3022 45.7621 68.3756 45.7621 68.4648Z" fill="#222539"/>
<path d="M54.7945 69.127H54.609V69.4141H54.4719V69.127H53.8732V69.0085L54.4626 68.1693H54.609V69H54.7945V69.127ZM54.4719 69V68.5952C54.4719 68.5642 54.4722 68.5362 54.4727 68.5114C54.4733 68.486 54.4741 68.4626 54.4753 68.4411C54.4764 68.4191 54.4772 68.3982 54.4778 68.3785C54.4789 68.3587 54.4798 68.3392 54.4803 68.32H54.4736C54.4628 68.3426 54.4504 68.3666 54.4363 68.392C54.4228 68.4168 54.4089 68.4391 54.3948 68.4589L54.0129 69H54.4719Z" fill="#222539"/>
<path d="M63.2385 68.657C63.3226 68.657 63.3957 68.6714 63.4578 68.7002C63.5199 68.7285 63.5679 68.7697 63.6017 68.8239C63.6362 68.8781 63.6534 68.9438 63.6534 69.0212C63.6534 69.1058 63.635 69.1789 63.5983 69.2405C63.5616 69.3014 63.5089 69.3486 63.44 69.3819C63.3711 69.4146 63.2887 69.431 63.1927 69.431C63.1284 69.431 63.0685 69.4254 63.0132 69.4141C62.9579 69.4028 62.9113 69.3858 62.8735 69.3633V69.2295C62.9147 69.2543 62.9647 69.2741 63.0234 69.2887C63.0821 69.3034 63.1391 69.3108 63.1944 69.3108C63.2571 69.3108 63.3118 69.3009 63.3587 69.2811C63.4061 69.2608 63.4428 69.2303 63.4688 69.1897C63.4953 69.1485 63.5086 69.0968 63.5086 69.0347C63.5086 68.9523 63.4832 68.8888 63.4324 68.8442C63.3821 68.799 63.3025 68.7764 63.1936 68.7764C63.1586 68.7764 63.1202 68.7793 63.0784 68.7849C63.0366 68.7906 63.0022 68.7968 62.9751 68.8035L62.904 68.757L62.9514 68.1761H63.567V68.3048H63.0716L63.0403 68.6782C63.0618 68.6737 63.0894 68.6692 63.1233 68.6647C63.1572 68.6596 63.1956 68.657 63.2385 68.657Z" fill="#222539"/>
<path d="M71.7857 68.8848C71.7857 68.8103 71.7908 68.7375 71.801 68.6664C71.8117 68.5952 71.8295 68.5292 71.8543 68.4682C71.8792 68.4067 71.913 68.3528 71.9559 68.3065C71.9988 68.2602 72.0522 68.2241 72.116 68.1981C72.1803 68.1716 72.2574 68.1583 72.3471 68.1583C72.3725 68.1583 72.3999 68.1597 72.4293 68.1625C72.4586 68.1648 72.4829 68.1687 72.5021 68.1744V68.2955C72.4812 68.2881 72.4572 68.2828 72.4301 68.2794C72.4036 68.276 72.3768 68.2743 72.3497 68.2743C72.2447 68.2743 72.162 68.2972 72.1016 68.3429C72.0417 68.3886 71.9986 68.4507 71.972 68.5292C71.9455 68.6071 71.9302 68.6949 71.9263 68.7925H71.9356C71.9531 68.7643 71.9754 68.7389 72.0025 68.7163C72.0296 68.6932 72.0623 68.6748 72.1007 68.6613C72.1397 68.6477 72.1848 68.641 72.2362 68.641C72.3085 68.641 72.3714 68.6556 72.425 68.685C72.4792 68.7143 72.521 68.757 72.5504 68.8128C72.5803 68.8687 72.5952 68.9365 72.5952 69.0161C72.5952 69.1013 72.5794 69.175 72.5478 69.2371C72.5162 69.2992 72.4711 69.3472 72.4123 69.381C72.3542 69.4143 72.2848 69.431 72.204 69.431C72.1436 69.431 72.088 69.4194 72.0372 69.3963C71.9864 69.3731 71.9421 69.3387 71.9043 69.293C71.867 69.2472 71.8379 69.1905 71.8171 69.1228C71.7962 69.0545 71.7857 68.9751 71.7857 68.8848ZM72.2023 69.3124C72.2791 69.3124 72.3406 69.2879 72.3869 69.2388C72.4332 69.1897 72.4564 69.1154 72.4564 69.0161C72.4564 68.9348 72.4358 68.8704 72.3946 68.823C72.3534 68.7756 72.2913 68.7519 72.2083 68.7519C72.1518 68.7519 72.1027 68.7637 72.0609 68.7874C72.0192 68.8106 71.9867 68.8399 71.9636 68.8755C71.9404 68.9111 71.9288 68.9472 71.9288 68.9839C71.9288 69.0212 71.9342 69.059 71.9449 69.0974C71.9562 69.1358 71.9731 69.1713 71.9957 69.2041C72.0183 69.2368 72.0468 69.2631 72.0813 69.2828C72.1157 69.3026 72.1561 69.3124 72.2023 69.3124Z" fill="#222539"/>
<path d="M80.8579 69.4141L81.3659 68.3048H80.6911V68.1761H81.5167V68.2845L81.012 69.4141H80.8579Z" fill="#222539"/>
<path d="M12.6382 24H12.501V23.1227C12.501 23.0894 12.501 23.0609 12.501 23.0372C12.5015 23.0129 12.5021 22.9909 12.5027 22.9712C12.5038 22.9508 12.5052 22.9302 12.5069 22.9093C12.4894 22.9274 12.473 22.9429 12.4578 22.9559C12.4425 22.9683 12.4236 22.9839 12.4011 23.0025L12.2596 23.116L12.186 23.0203L12.5213 22.762H12.6382V24ZM13.4985 23.243C13.5826 23.243 13.6557 23.2574 13.7178 23.2862C13.7799 23.3144 13.8279 23.3556 13.8618 23.4098C13.8962 23.464 13.9134 23.5298 13.9134 23.6071C13.9134 23.6918 13.8951 23.7649 13.8584 23.8264C13.8217 23.8874 13.7689 23.9345 13.7 23.9678C13.6311 24.0006 13.5487 24.0169 13.4528 24.0169C13.3884 24.0169 13.3286 24.0113 13.2732 24C13.2179 23.9887 13.1713 23.9718 13.1335 23.9492V23.8154C13.1747 23.8402 13.2247 23.86 13.2834 23.8747C13.3421 23.8894 13.3991 23.8967 13.4545 23.8967C13.5171 23.8967 13.5719 23.8868 13.6187 23.8671C13.6661 23.8467 13.7028 23.8162 13.7288 23.7756C13.7553 23.7344 13.7686 23.6827 13.7686 23.6206C13.7686 23.5382 13.7432 23.4747 13.6924 23.4301C13.6422 23.385 13.5626 23.3624 13.4536 23.3624C13.4186 23.3624 13.3802 23.3652 13.3384 23.3708C13.2967 23.3765 13.2622 23.3827 13.2351 23.3895L13.164 23.3429L13.2114 22.762H13.827V22.8907H13.3317L13.3003 23.2641C13.3218 23.2596 13.3494 23.2551 13.3833 23.2506C13.4172 23.2455 13.4556 23.243 13.4985 23.243ZM14.9177 23.3793C14.9177 23.4798 14.9101 23.5696 14.8948 23.6486C14.8796 23.7276 14.8556 23.7945 14.8228 23.8493C14.7901 23.904 14.7478 23.9458 14.6958 23.9746C14.6439 24.0028 14.5815 24.0169 14.5087 24.0169C14.4167 24.0169 14.3405 23.9918 14.2801 23.9416C14.2202 23.8913 14.1753 23.8188 14.1454 23.7239C14.1161 23.6285 14.1014 23.5137 14.1014 23.3793C14.1014 23.2472 14.1147 23.1337 14.1412 23.0389C14.1683 22.9435 14.2118 22.8704 14.2716 22.8196C14.3314 22.7682 14.4105 22.7425 14.5087 22.7425C14.6018 22.7425 14.6786 22.7679 14.739 22.8187C14.7994 22.869 14.8443 22.9418 14.8737 23.0372C14.903 23.1321 14.9177 23.2461 14.9177 23.3793ZM14.2428 23.3793C14.2428 23.4945 14.2516 23.5904 14.2691 23.6672C14.2866 23.744 14.3148 23.8016 14.3537 23.84C14.3932 23.8778 14.4449 23.8967 14.5087 23.8967C14.5725 23.8967 14.6239 23.8778 14.6628 23.84C14.7023 23.8021 14.7308 23.7448 14.7483 23.6681C14.7664 23.5913 14.7754 23.495 14.7754 23.3793C14.7754 23.2658 14.7667 23.171 14.7492 23.0948C14.7317 23.018 14.7035 22.9604 14.6645 22.922C14.6255 22.8831 14.5736 22.8636 14.5087 22.8636C14.4438 22.8636 14.3918 22.8831 14.3529 22.922C14.3139 22.9604 14.2857 23.018 14.2682 23.0948C14.2513 23.171 14.2428 23.2658 14.2428 23.3793ZM15.9101 23.3793C15.9101 23.4798 15.9025 23.5696 15.8872 23.6486C15.872 23.7276 15.848 23.7945 15.8153 23.8493C15.7825 23.904 15.7402 23.9458 15.6883 23.9746C15.6363 24.0028 15.5739 24.0169 15.5011 24.0169C15.4091 24.0169 15.3329 23.9918 15.2725 23.9416C15.2126 23.8913 15.1678 23.8188 15.1378 23.7239C15.1085 23.6285 15.0938 23.5137 15.0938 23.3793C15.0938 23.2472 15.1071 23.1337 15.1336 23.0389C15.1607 22.9435 15.2042 22.8704 15.264 22.8196C15.3239 22.7682 15.4029 22.7425 15.5011 22.7425C15.5943 22.7425 15.671 22.7679 15.7314 22.8187C15.7918 22.869 15.8367 22.9418 15.8661 23.0372C15.8954 23.1321 15.9101 23.2461 15.9101 23.3793ZM15.2352 23.3793C15.2352 23.4945 15.244 23.5904 15.2615 23.6672C15.279 23.744 15.3072 23.8016 15.3462 23.84C15.3857 23.8778 15.4373 23.8967 15.5011 23.8967C15.5649 23.8967 15.6163 23.8778 15.6552 23.84C15.6947 23.8021 15.7233 23.7448 15.7408 23.6681C15.7588 23.5913 15.7679 23.495 15.7679 23.3793C15.7679 23.2658 15.7591 23.171 15.7416 23.0948C15.7241 23.018 15.6959 22.9604 15.6569 22.922C15.618 22.8831 15.566 22.8636 15.5011 22.8636C15.4362 22.8636 15.3843 22.8831 15.3453 22.922C15.3064 22.9604 15.2781 23.018 15.2606 23.0948C15.2437 23.171 15.2352 23.2658 15.2352 23.3793ZM12.6382 27H12.501V26.1227C12.501 26.0894 12.501 26.0609 12.501 26.0372C12.5015 26.0129 12.5021 25.9909 12.5027 25.9712C12.5038 25.9508 12.5052 25.9302 12.5069 25.9093C12.4894 25.9274 12.473 25.9429 12.4578 25.9559C12.4425 25.9683 12.4236 25.9839 12.4011 26.0025L12.2596 26.116L12.186 26.0203L12.5213 25.762H12.6382V27ZM13.9803 26.7129H13.7949V27H13.6577V26.7129H13.059V26.5944L13.6484 25.7552H13.7949V26.5859H13.9803V26.7129ZM13.6577 26.5859V26.1812C13.6577 26.1501 13.658 26.1222 13.6585 26.0973C13.6591 26.0719 13.6599 26.0485 13.6611 26.0271C13.6622 26.005 13.663 25.9841 13.6636 25.9644C13.6647 25.9446 13.6656 25.9252 13.6661 25.906H13.6594C13.6486 25.9285 13.6362 25.9525 13.6221 25.9779C13.6086 26.0028 13.5947 26.0251 13.5806 26.0448L13.1987 26.5859H13.6577ZM14.9177 26.3793C14.9177 26.4798 14.9101 26.5696 14.8948 26.6486C14.8796 26.7276 14.8556 26.7945 14.8228 26.8493C14.7901 26.904 14.7478 26.9458 14.6958 26.9746C14.6439 27.0028 14.5815 27.0169 14.5087 27.0169C14.4167 27.0169 14.3405 26.9918 14.2801 26.9416C14.2202 26.8913 14.1753 26.8188 14.1454 26.7239C14.1161 26.6285 14.1014 26.5137 14.1014 26.3793C14.1014 26.2472 14.1147 26.1337 14.1412 26.0389C14.1683 25.9435 14.2118 25.8704 14.2716 25.8196C14.3314 25.7682 14.4105 25.7425 14.5087 25.7425C14.6018 25.7425 14.6786 25.7679 14.739 25.8187C14.7994 25.869 14.8443 25.9418 14.8737 26.0372C14.903 26.1321 14.9177 26.2461 14.9177 26.3793ZM14.2428 26.3793C14.2428 26.4945 14.2516 26.5904 14.2691 26.6672C14.2866 26.744 14.3148 26.8016 14.3537 26.84C14.3932 26.8778 14.4449 26.8967 14.5087 26.8967C14.5725 26.8967 14.6239 26.8778 14.6628 26.84C14.7023 26.8021 14.7308 26.7448 14.7483 26.6681C14.7664 26.5913 14.7754 26.495 14.7754 26.3793C14.7754 26.2658 14.7667 26.171 14.7492 26.0948C14.7317 26.018 14.7035 25.9604 14.6645 25.922C14.6255 25.8831 14.5736 25.8636 14.5087 25.8636C14.4438 25.8636 14.3918 25.8831 14.3529 25.922C14.3139 25.9604 14.2857 26.018 14.2682 26.0948C14.2513 26.171 14.2428 26.2658 14.2428 26.3793ZM15.9101 26.3793C15.9101 26.4798 15.9025 26.5696 15.8872 26.6486C15.872 26.7276 15.848 26.7945 15.8153 26.8493C15.7825 26.904 15.7402 26.9458 15.6883 26.9746C15.6363 27.0028 15.5739 27.0169 15.5011 27.0169C15.4091 27.0169 15.3329 26.9918 15.2725 26.9416C15.2126 26.8913 15.1678 26.8188 15.1378 26.7239C15.1085 26.6285 15.0938 26.5137 15.0938 26.3793C15.0938 26.2472 15.1071 26.1337 15.1336 26.0389C15.1607 25.9435 15.2042 25.8704 15.264 25.8196C15.3239 25.7682 15.4029 25.7425 15.5011 25.7425C15.5943 25.7425 15.671 25.7679 15.7314 25.8187C15.7918 25.869 15.8367 25.9418 15.8661 26.0372C15.8954 26.1321 15.9101 26.2461 15.9101 26.3793ZM15.2352 26.3793C15.2352 26.4945 15.244 26.5904 15.2615 26.6672C15.279 26.744 15.3072 26.8016 15.3462 26.84C15.3857 26.8778 15.4373 26.8967 15.5011 26.8967C15.5649 26.8967 15.6163 26.8778 15.6552 26.84C15.6947 26.8021 15.7233 26.7448 15.7408 26.6681C15.7588 26.5913 15.7679 26.495 15.7679 26.3793C15.7679 26.2658 15.7591 26.171 15.7416 26.0948C15.7241 26.018 15.6959 25.9604 15.6569 25.922C15.618 25.8831 15.566 25.8636 15.5011 25.8636C15.4362 25.8636 15.3843 25.8831 15.3453 25.922C15.3064 25.9604 15.2781 26.018 15.2606 26.0948C15.2437 26.171 15.2352 26.2658 15.2352 26.3793ZM12.6382 30H12.501V29.1227C12.501 29.0894 12.501 29.0609 12.501 29.0372C12.5015 29.0129 12.5021 28.9909 12.5027 28.9712C12.5038 28.9508 12.5052 28.9302 12.5069 28.9093C12.4894 28.9274 12.473 28.9429 12.4578 28.9559C12.4425 28.9683 12.4236 28.9839 12.4011 29.0025L12.2596 29.116L12.186 29.0203L12.5213 28.762H12.6382V30ZM13.8728 29.0508C13.8728 29.1061 13.862 29.1541 13.8406 29.1947C13.8191 29.2354 13.7892 29.2687 13.7508 29.2946C13.7124 29.32 13.6673 29.3378 13.6153 29.348V29.3548C13.7136 29.3672 13.7872 29.3988 13.8363 29.4496C13.886 29.5004 13.9109 29.567 13.9109 29.6494C13.9109 29.7211 13.8939 29.7846 13.8601 29.84C13.8268 29.8953 13.7754 29.9387 13.7059 29.9704C13.6371 30.0014 13.5487 30.0169 13.4409 30.0169C13.3754 30.0169 13.3147 30.0116 13.2588 30.0008C13.2035 29.9907 13.1505 29.9735 13.0996 29.9492V29.8171C13.151 29.8425 13.2069 29.8625 13.2673 29.8772C13.3277 29.8913 13.3861 29.8984 13.4426 29.8984C13.5555 29.8984 13.6371 29.8761 13.6873 29.8315C13.7376 29.7863 13.7627 29.7248 13.7627 29.6469C13.7627 29.5933 13.7486 29.5501 13.7203 29.5173C13.6927 29.484 13.6526 29.4598 13.6001 29.4445C13.5482 29.4287 13.4855 29.4208 13.4121 29.4208H13.2885V29.3006H13.413C13.4801 29.3006 13.5372 29.2907 13.584 29.2709C13.6309 29.2512 13.6664 29.2235 13.6907 29.1879C13.7155 29.1518 13.728 29.1092 13.728 29.0601C13.728 28.9974 13.7071 28.9491 13.6653 28.9153C13.6235 28.8808 13.5668 28.8636 13.4951 28.8636C13.4511 28.8636 13.411 28.8681 13.3749 28.8772C13.3387 28.8862 13.3049 28.8986 13.2732 28.9144C13.2416 28.9302 13.21 28.9486 13.1784 28.9695L13.1073 28.8729C13.1524 28.8379 13.2075 28.8077 13.2724 28.7823C13.3373 28.7569 13.411 28.7442 13.4934 28.7442C13.6199 28.7442 13.7147 28.773 13.7779 28.8306C13.8411 28.8882 13.8728 28.9616 13.8728 29.0508ZM14.9177 29.3793C14.9177 29.4798 14.9101 29.5696 14.8948 29.6486C14.8796 29.7276 14.8556 29.7945 14.8228 29.8493C14.7901 29.904 14.7478 29.9458 14.6958 29.9746C14.6439 30.0028 14.5815 30.0169 14.5087 30.0169C14.4167 30.0169 14.3405 29.9918 14.2801 29.9416C14.2202 29.8913 14.1753 29.8188 14.1454 29.7239C14.1161 29.6285 14.1014 29.5137 14.1014 29.3793C14.1014 29.2472 14.1147 29.1337 14.1412 29.0389C14.1683 28.9435 14.2118 28.8704 14.2716 28.8196C14.3314 28.7682 14.4105 28.7425 14.5087 28.7425C14.6018 28.7425 14.6786 28.7679 14.739 28.8187C14.7994 28.869 14.8443 28.9418 14.8737 29.0372C14.903 29.1321 14.9177 29.2461 14.9177 29.3793ZM14.2428 29.3793C14.2428 29.4945 14.2516 29.5904 14.2691 29.6672C14.2866 29.744 14.3148 29.8016 14.3537 29.84C14.3932 29.8778 14.4449 29.8967 14.5087 29.8967C14.5725 29.8967 14.6239 29.8778 14.6628 29.84C14.7023 29.8021 14.7308 29.7448 14.7483 29.6681C14.7664 29.5913 14.7754 29.495 14.7754 29.3793C14.7754 29.2658 14.7667 29.171 14.7492 29.0948C14.7317 29.018 14.7035 28.9604 14.6645 28.922C14.6255 28.8831 14.5736 28.8636 14.5087 28.8636C14.4438 28.8636 14.3918 28.8831 14.3529 28.922C14.3139 28.9604 14.2857 29.018 14.2682 29.0948C14.2513 29.171 14.2428 29.2658 14.2428 29.3793ZM15.9101 29.3793C15.9101 29.4798 15.9025 29.5696 15.8872 29.6486C15.872 29.7276 15.848 29.7945 15.8153 29.8493C15.7825 29.904 15.7402 29.9458 15.6883 29.9746C15.6363 30.0028 15.5739 30.0169 15.5011 30.0169C15.4091 30.0169 15.3329 29.9918 15.2725 29.9416C15.2126 29.8913 15.1678 29.8188 15.1378 29.7239C15.1085 29.6285 15.0938 29.5137 15.0938 29.3793C15.0938 29.2472 15.1071 29.1337 15.1336 29.0389C15.1607 28.9435 15.2042 28.8704 15.264 28.8196C15.3239 28.7682 15.4029 28.7425 15.5011 28.7425C15.5943 28.7425 15.671 28.7679 15.7314 28.8187C15.7918 28.869 15.8367 28.9418 15.8661 29.0372C15.8954 29.1321 15.9101 29.2461 15.9101 29.3793ZM15.2352 29.3793C15.2352 29.4945 15.244 29.5904 15.2615 29.6672C15.279 29.744 15.3072 29.8016 15.3462 29.84C15.3857 29.8778 15.4373 29.8967 15.5011 29.8967C15.5649 29.8967 15.6163 29.8778 15.6552 29.84C15.6947 29.8021 15.7233 29.7448 15.7408 29.6681C15.7588 29.5913 15.7679 29.495 15.7679 29.3793C15.7679 29.2658 15.7591 29.171 15.7416 29.0948C15.7241 29.018 15.6959 28.9604 15.6569 28.922C15.618 28.8831 15.566 28.8636 15.5011 28.8636C15.4362 28.8636 15.3843 28.8831 15.3453 28.922C15.3064 28.9604 15.2781 29.018 15.2606 29.0948C15.2437 29.171 15.2352 29.2658 15.2352 29.3793ZM12.6382 32H12.501V31.1227C12.501 31.0894 12.501 31.0609 12.501 31.0372C12.5015 31.0129 12.5021 30.9909 12.5027 30.9712C12.5038 30.9508 12.5052 30.9302 12.5069 30.9093C12.4894 30.9274 12.473 30.9429 12.4578 30.9559C12.4425 30.9683 12.4236 30.9839 12.4011 31.0025L12.2596 31.116L12.186 31.0203L12.5213 30.762H12.6382V32ZM13.9185 32H13.1073V31.8823L13.4384 31.5461C13.4999 31.484 13.5515 31.4287 13.5933 31.3802C13.6357 31.3316 13.6678 31.2839 13.6899 31.2371C13.7119 31.1896 13.7229 31.1377 13.7229 31.0812C13.7229 31.0112 13.702 30.9579 13.6602 30.9212C13.619 30.8839 13.5645 30.8653 13.4968 30.8653C13.4375 30.8653 13.385 30.8755 13.3393 30.8958C13.2936 30.9161 13.2467 30.9449 13.1987 30.9822L13.1234 30.8873C13.1561 30.8597 13.1917 30.8351 13.2301 30.8137C13.269 30.7922 13.3105 30.7753 13.3545 30.7629C13.3991 30.7504 13.4465 30.7442 13.4968 30.7442C13.573 30.7442 13.6388 30.7575 13.6941 30.784C13.7494 30.8106 13.792 30.8484 13.822 30.8975C13.8524 30.9466 13.8677 31.005 13.8677 31.0728C13.8677 31.1383 13.8547 31.1992 13.8287 31.2557C13.8028 31.3116 13.7663 31.3672 13.7195 31.4225C13.6726 31.4773 13.6179 31.5354 13.5552 31.5969L13.2859 31.8654V31.8713H13.9185V32ZM14.9177 31.3793C14.9177 31.4798 14.9101 31.5696 14.8948 31.6486C14.8796 31.7276 14.8556 31.7945 14.8228 31.8493C14.7901 31.904 14.7478 31.9458 14.6958 31.9746C14.6439 32.0028 14.5815 32.0169 14.5087 32.0169C14.4167 32.0169 14.3405 31.9918 14.2801 31.9416C14.2202 31.8913 14.1753 31.8188 14.1454 31.7239C14.1161 31.6285 14.1014 31.5137 14.1014 31.3793C14.1014 31.2472 14.1147 31.1337 14.1412 31.0389C14.1683 30.9435 14.2118 30.8704 14.2716 30.8196C14.3314 30.7682 14.4105 30.7425 14.5087 30.7425C14.6018 30.7425 14.6786 30.7679 14.739 30.8187C14.7994 30.869 14.8443 30.9418 14.8737 31.0372C14.903 31.1321 14.9177 31.2461 14.9177 31.3793ZM14.2428 31.3793C14.2428 31.4945 14.2516 31.5904 14.2691 31.6672C14.2866 31.744 14.3148 31.8016 14.3537 31.84C14.3932 31.8778 14.4449 31.8967 14.5087 31.8967C14.5725 31.8967 14.6239 31.8778 14.6628 31.84C14.7023 31.8021 14.7308 31.7448 14.7483 31.6681C14.7664 31.5913 14.7754 31.495 14.7754 31.3793C14.7754 31.2658 14.7667 31.171 14.7492 31.0948C14.7317 31.018 14.7035 30.9604 14.6645 30.922C14.6255 30.8831 14.5736 30.8636 14.5087 30.8636C14.4438 30.8636 14.3918 30.8831 14.3529 30.922C14.3139 30.9604 14.2857 31.018 14.2682 31.0948C14.2513 31.171 14.2428 31.2658 14.2428 31.3793ZM15.9101 31.3793C15.9101 31.4798 15.9025 31.5696 15.8872 31.6486C15.872 31.7276 15.848 31.7945 15.8153 31.8493C15.7825 31.904 15.7402 31.9458 15.6883 31.9746C15.6363 32.0028 15.5739 32.0169 15.5011 32.0169C15.4091 32.0169 15.3329 31.9918 15.2725 31.9416C15.2126 31.8913 15.1678 31.8188 15.1378 31.7239C15.1085 31.6285 15.0938 31.5137 15.0938 31.3793C15.0938 31.2472 15.1071 31.1337 15.1336 31.0389C15.1607 30.9435 15.2042 30.8704 15.264 30.8196C15.3239 30.7682 15.4029 30.7425 15.5011 30.7425C15.5943 30.7425 15.671 30.7679 15.7314 30.8187C15.7918 30.869 15.8367 30.9418 15.8661 31.0372C15.8954 31.1321 15.9101 31.2461 15.9101 31.3793ZM15.2352 31.3793C15.2352 31.4945 15.244 31.5904 15.2615 31.6672C15.279 31.744 15.3072 31.8016 15.3462 31.84C15.3857 31.8778 15.4373 31.8967 15.5011 31.8967C15.5649 31.8967 15.6163 31.8778 15.6552 31.84C15.6947 31.8021 15.7233 31.7448 15.7408 31.6681C15.7588 31.5913 15.7679 31.495 15.7679 31.3793C15.7679 31.2658 15.7591 31.171 15.7416 31.0948C15.7241 31.018 15.6959 30.9604 15.6569 30.922C15.618 30.8831 15.566 30.8636 15.5011 30.8636C15.4362 30.8636 15.3843 30.8831 15.3453 30.922C15.3064 30.9604 15.2781 31.018 15.2606 31.0948C15.2437 31.171 15.2352 31.2658 15.2352 31.3793ZM12.6382 35H12.501V34.1227C12.501 34.0894 12.501 34.0609 12.501 34.0372C12.5015 34.0129 12.5021 33.9909 12.5027 33.9712C12.5038 33.9508 12.5052 33.9302 12.5069 33.9093C12.4894 33.9274 12.473 33.9429 12.4578 33.9559C12.4425 33.9683 12.4236 33.9839 12.4011 34.0025L12.2596 34.116L12.186 34.0203L12.5213 33.762H12.6382V35ZM13.6306 35H13.4934V34.1227C13.4934 34.0894 13.4934 34.0609 13.4934 34.0372C13.494 34.0129 13.4945 33.9909 13.4951 33.9712C13.4962 33.9508 13.4976 33.9302 13.4993 33.9093C13.4818 33.9274 13.4655 33.9429 13.4502 33.9559C13.435 33.9683 13.4161 33.9839 13.3935 34.0025L13.2521 34.116L13.1784 34.0203L13.5137 33.762H13.6306V35ZM14.9177 34.3793C14.9177 34.4798 14.9101 34.5696 14.8948 34.6486C14.8796 34.7276 14.8556 34.7945 14.8228 34.8493C14.7901 34.904 14.7478 34.9458 14.6958 34.9746C14.6439 35.0028 14.5815 35.0169 14.5087 35.0169C14.4167 35.0169 14.3405 34.9918 14.2801 34.9416C14.2202 34.8913 14.1753 34.8188 14.1454 34.7239C14.1161 34.6285 14.1014 34.5137 14.1014 34.3793C14.1014 34.2472 14.1147 34.1337 14.1412 34.0389C14.1683 33.9435 14.2118 33.8704 14.2716 33.8196C14.3314 33.7682 14.4105 33.7425 14.5087 33.7425C14.6018 33.7425 14.6786 33.7679 14.739 33.8187C14.7994 33.869 14.8443 33.9418 14.8737 34.0372C14.903 34.1321 14.9177 34.2461 14.9177 34.3793ZM14.2428 34.3793C14.2428 34.4945 14.2516 34.5904 14.2691 34.6672C14.2866 34.744 14.3148 34.8016 14.3537 34.84C14.3932 34.8778 14.4449 34.8967 14.5087 34.8967C14.5725 34.8967 14.6239 34.8778 14.6628 34.84C14.7023 34.8021 14.7308 34.7448 14.7483 34.6681C14.7664 34.5913 14.7754 34.495 14.7754 34.3793C14.7754 34.2658 14.7667 34.171 14.7492 34.0948C14.7317 34.018 14.7035 33.9604 14.6645 33.922C14.6255 33.8831 14.5736 33.8636 14.5087 33.8636C14.4438 33.8636 14.3918 33.8831 14.3529 33.922C14.3139 33.9604 14.2857 34.018 14.2682 34.0948C14.2513 34.171 14.2428 34.2658 14.2428 34.3793ZM15.9101 34.3793C15.9101 34.4798 15.9025 34.5696 15.8872 34.6486C15.872 34.7276 15.848 34.7945 15.8153 34.8493C15.7825 34.904 15.7402 34.9458 15.6883 34.9746C15.6363 35.0028 15.5739 35.0169 15.5011 35.0169C15.4091 35.0169 15.3329 34.9918 15.2725 34.9416C15.2126 34.8913 15.1678 34.8188 15.1378 34.7239C15.1085 34.6285 15.0938 34.5137 15.0938 34.3793C15.0938 34.2472 15.1071 34.1337 15.1336 34.0389C15.1607 33.9435 15.2042 33.8704 15.264 33.8196C15.3239 33.7682 15.4029 33.7425 15.5011 33.7425C15.5943 33.7425 15.671 33.7679 15.7314 33.8187C15.7918 33.869 15.8367 33.9418 15.8661 34.0372C15.8954 34.1321 15.9101 34.2461 15.9101 34.3793ZM15.2352 34.3793C15.2352 34.4945 15.244 34.5904 15.2615 34.6672C15.279 34.744 15.3072 34.8016 15.3462 34.84C15.3857 34.8778 15.4373 34.8967 15.5011 34.8967C15.5649 34.8967 15.6163 34.8778 15.6552 34.84C15.6947 34.8021 15.7233 34.7448 15.7408 34.6681C15.7588 34.5913 15.7679 34.495 15.7679 34.3793C15.7679 34.2658 15.7591 34.171 15.7416 34.0948C15.7241 34.018 15.6959 33.9604 15.6569 33.922C15.618 33.8831 15.566 33.8636 15.5011 33.8636C15.4362 33.8636 15.3843 33.8831 15.3453 33.922C15.3064 33.9604 15.2781 34.018 15.2606 34.0948C15.2437 34.171 15.2352 34.2658 15.2352 34.3793ZM12.6382 38H12.501V37.1227C12.501 37.0894 12.501 37.0609 12.501 37.0372C12.5015 37.0129 12.5021 36.9909 12.5027 36.9712C12.5038 36.9508 12.5052 36.9302 12.5069 36.9093C12.4894 36.9274 12.473 36.9429 12.4578 36.9559C12.4425 36.9683 12.4236 36.9839 12.4011 37.0025L12.2596 37.116L12.186 37.0203L12.5213 36.762H12.6382V38ZM13.9253 37.3793C13.9253 37.4798 13.9176 37.5696 13.9024 37.6486C13.8872 37.7276 13.8632 37.7945 13.8304 37.8493C13.7977 37.904 13.7553 37.9458 13.7034 37.9746C13.6515 38.0028 13.5891 38.0169 13.5163 38.0169C13.4242 38.0169 13.348 37.9918 13.2876 37.9416C13.2278 37.8913 13.1829 37.8188 13.153 37.7239C13.1236 37.6285 13.109 37.5137 13.109 37.3793C13.109 37.2472 13.1222 37.1337 13.1488 37.0389C13.1759 36.9435 13.2193 36.8704 13.2792 36.8196C13.339 36.7682 13.418 36.7425 13.5163 36.7425C13.6094 36.7425 13.6862 36.7679 13.7466 36.8187C13.807 36.869 13.8519 36.9418 13.8812 37.0372C13.9106 37.1321 13.9253 37.2461 13.9253 37.3793ZM13.2504 37.3793C13.2504 37.4945 13.2591 37.5904 13.2766 37.6672C13.2941 37.744 13.3224 37.8016 13.3613 37.84C13.4008 37.8778 13.4525 37.8967 13.5163 37.8967C13.5801 37.8967 13.6314 37.8778 13.6704 37.84C13.7099 37.8021 13.7384 37.7448 13.7559 37.6681C13.774 37.5913 13.783 37.495 13.783 37.3793C13.783 37.2658 13.7743 37.171 13.7568 37.0948C13.7393 37.018 13.711 36.9604 13.6721 36.922C13.6331 36.8831 13.5812 36.8636 13.5163 36.8636C13.4513 36.8636 13.3994 36.8831 13.3605 36.922C13.3215 36.9604 13.2933 37.018 13.2758 37.0948C13.2588 37.171 13.2504 37.2658 13.2504 37.3793ZM14.9177 37.3793C14.9177 37.4798 14.9101 37.5696 14.8948 37.6486C14.8796 37.7276 14.8556 37.7945 14.8228 37.8493C14.7901 37.904 14.7478 37.9458 14.6958 37.9746C14.6439 38.0028 14.5815 38.0169 14.5087 38.0169C14.4167 38.0169 14.3405 37.9918 14.2801 37.9416C14.2202 37.8913 14.1753 37.8188 14.1454 37.7239C14.1161 37.6285 14.1014 37.5137 14.1014 37.3793C14.1014 37.2472 14.1147 37.1337 14.1412 37.0389C14.1683 36.9435 14.2118 36.8704 14.2716 36.8196C14.3314 36.7682 14.4105 36.7425 14.5087 36.7425C14.6018 36.7425 14.6786 36.7679 14.739 36.8187C14.7994 36.869 14.8443 36.9418 14.8737 37.0372C14.903 37.1321 14.9177 37.2461 14.9177 37.3793ZM14.2428 37.3793C14.2428 37.4945 14.2516 37.5904 14.2691 37.6672C14.2866 37.744 14.3148 37.8016 14.3537 37.84C14.3932 37.8778 14.4449 37.8967 14.5087 37.8967C14.5725 37.8967 14.6239 37.8778 14.6628 37.84C14.7023 37.8021 14.7308 37.7448 14.7483 37.6681C14.7664 37.5913 14.7754 37.495 14.7754 37.3793C14.7754 37.2658 14.7667 37.171 14.7492 37.0948C14.7317 37.018 14.7035 36.9604 14.6645 36.922C14.6255 36.8831 14.5736 36.8636 14.5087 36.8636C14.4438 36.8636 14.3918 36.8831 14.3529 36.922C14.3139 36.9604 14.2857 37.018 14.2682 37.0948C14.2513 37.171 14.2428 37.2658 14.2428 37.3793ZM15.9101 37.3793C15.9101 37.4798 15.9025 37.5696 15.8872 37.6486C15.872 37.7276 15.848 37.7945 15.8153 37.8493C15.7825 37.904 15.7402 37.9458 15.6883 37.9746C15.6363 38.0028 15.5739 38.0169 15.5011 38.0169C15.4091 38.0169 15.3329 37.9918 15.2725 37.9416C15.2126 37.8913 15.1678 37.8188 15.1378 37.7239C15.1085 37.6285 15.0938 37.5137 15.0938 37.3793C15.0938 37.2472 15.1071 37.1337 15.1336 37.0389C15.1607 36.9435 15.2042 36.8704 15.264 36.8196C15.3239 36.7682 15.4029 36.7425 15.5011 36.7425C15.5943 36.7425 15.671 36.7679 15.7314 36.8187C15.7918 36.869 15.8367 36.9418 15.8661 37.0372C15.8954 37.1321 15.9101 37.2461 15.9101 37.3793ZM15.2352 37.3793C15.2352 37.4945 15.244 37.5904 15.2615 37.6672C15.279 37.744 15.3072 37.8016 15.3462 37.84C15.3857 37.8778 15.4373 37.8967 15.5011 37.8967C15.5649 37.8967 15.6163 37.8778 15.6552 37.84C15.6947 37.8021 15.7233 37.7448 15.7408 37.6681C15.7588 37.5913 15.7679 37.495 15.7679 37.3793C15.7679 37.2658 15.7591 37.171 15.7416 37.0948C15.7241 37.018 15.6959 36.9604 15.6569 36.922C15.618 36.8831 15.566 36.8636 15.5011 36.8636C15.4362 36.8636 15.3843 36.8831 15.3453 36.922C15.3064 36.9604 15.2781 37.018 15.2606 37.0948C15.2437 37.171 15.2352 37.2658 15.2352 37.3793ZM13.9202 40.2896C13.9202 40.3646 13.9148 40.4377 13.9041 40.5089C13.8939 40.58 13.8761 40.6463 13.8507 40.7079C13.8259 40.7694 13.792 40.8233 13.7491 40.8696C13.7062 40.9159 13.6523 40.9523 13.5874 40.9788C13.523 41.0048 13.446 41.0178 13.3562 41.0178C13.3319 41.0178 13.3043 41.0161 13.2732 41.0127C13.2422 41.0099 13.2168 41.0056 13.197 41V40.8781C13.2179 40.8854 13.2425 40.8913 13.2707 40.8958C13.2989 40.8998 13.3266 40.9018 13.3537 40.9018C13.4592 40.9018 13.5422 40.8792 13.6026 40.834C13.663 40.7883 13.7065 40.7265 13.733 40.6486C13.7596 40.5701 13.7745 40.4821 13.7779 40.3844H13.7678C13.7508 40.4115 13.7285 40.4366 13.7009 40.4598C13.6738 40.4823 13.6407 40.5007 13.6018 40.5148C13.5628 40.5283 13.5174 40.5351 13.4655 40.5351C13.3938 40.5351 13.3311 40.5204 13.2775 40.4911C13.2244 40.4617 13.1829 40.4191 13.153 40.3632C13.1236 40.3073 13.109 40.2399 13.109 40.1608C13.109 40.0756 13.1251 40.0019 13.1572 39.9398C13.19 39.8772 13.2357 39.8289 13.2944 39.795C13.3531 39.7612 13.4223 39.7442 13.5019 39.7442C13.5628 39.7442 13.6187 39.7558 13.6695 39.7789C13.7203 39.8021 13.7644 39.8368 13.8016 39.8831C13.8395 39.9288 13.8685 39.9856 13.8888 40.0533C13.9097 40.121 13.9202 40.1998 13.9202 40.2896ZM13.5019 39.8636C13.4268 39.8636 13.3658 39.8882 13.319 39.9373C13.2727 39.9864 13.2495 40.0604 13.2495 40.1591C13.2495 40.241 13.2696 40.3056 13.3097 40.3531C13.3497 40.4005 13.4115 40.4242 13.4951 40.4242C13.5527 40.4242 13.6024 40.4126 13.6441 40.3895C13.6865 40.3663 13.7189 40.337 13.7415 40.3014C13.7647 40.2658 13.7762 40.2294 13.7762 40.1922C13.7762 40.1549 13.7706 40.1171 13.7593 40.0787C13.7486 40.0403 13.7319 40.005 13.7093 39.9729C13.6868 39.9401 13.6582 39.9139 13.6238 39.8941C13.5894 39.8738 13.5487 39.8636 13.5019 39.8636ZM14.9177 40.3793C14.9177 40.4798 14.9101 40.5696 14.8948 40.6486C14.8796 40.7276 14.8556 40.7945 14.8228 40.8493C14.7901 40.904 14.7478 40.9458 14.6958 40.9746C14.6439 41.0028 14.5815 41.0169 14.5087 41.0169C14.4167 41.0169 14.3405 40.9918 14.2801 40.9416C14.2202 40.8913 14.1753 40.8188 14.1454 40.7239C14.1161 40.6285 14.1014 40.5137 14.1014 40.3793C14.1014 40.2472 14.1147 40.1337 14.1412 40.0389C14.1683 39.9435 14.2118 39.8704 14.2716 39.8196C14.3314 39.7682 14.4105 39.7425 14.5087 39.7425C14.6018 39.7425 14.6786 39.7679 14.739 39.8187C14.7994 39.869 14.8443 39.9418 14.8737 40.0372C14.903 40.1321 14.9177 40.2461 14.9177 40.3793ZM14.2428 40.3793C14.2428 40.4945 14.2516 40.5904 14.2691 40.6672C14.2866 40.744 14.3148 40.8016 14.3537 40.84C14.3932 40.8778 14.4449 40.8967 14.5087 40.8967C14.5725 40.8967 14.6239 40.8778 14.6628 40.84C14.7023 40.8021 14.7308 40.7448 14.7483 40.6681C14.7664 40.5913 14.7754 40.495 14.7754 40.3793C14.7754 40.2658 14.7667 40.171 14.7492 40.0948C14.7317 40.018 14.7035 39.9604 14.6645 39.922C14.6255 39.8831 14.5736 39.8636 14.5087 39.8636C14.4438 39.8636 14.3918 39.8831 14.3529 39.922C14.3139 39.9604 14.2857 40.018 14.2682 40.0948C14.2513 40.171 14.2428 40.2658 14.2428 40.3793ZM15.9101 40.3793C15.9101 40.4798 15.9025 40.5696 15.8872 40.6486C15.872 40.7276 15.848 40.7945 15.8153 40.8493C15.7825 40.904 15.7402 40.9458 15.6883 40.9746C15.6363 41.0028 15.5739 41.0169 15.5011 41.0169C15.4091 41.0169 15.3329 40.9918 15.2725 40.9416C15.2126 40.8913 15.1678 40.8188 15.1378 40.7239C15.1085 40.6285 15.0938 40.5137 15.0938 40.3793C15.0938 40.2472 15.1071 40.1337 15.1336 40.0389C15.1607 39.9435 15.2042 39.8704 15.264 39.8196C15.3239 39.7682 15.4029 39.7425 15.5011 39.7425C15.5943 39.7425 15.671 39.7679 15.7314 39.8187C15.7918 39.869 15.8367 39.9418 15.8661 40.0372C15.8954 40.1321 15.9101 40.2461 15.9101 40.3793ZM15.2352 40.3793C15.2352 40.4945 15.244 40.5904 15.2615 40.6672C15.279 40.744 15.3072 40.8016 15.3462 40.84C15.3857 40.8778 15.4373 40.8967 15.5011 40.8967C15.5649 40.8967 15.6163 40.8778 15.6552 40.84C15.6947 40.8021 15.7233 40.7448 15.7408 40.6681C15.7588 40.5913 15.7679 40.495 15.7679 40.3793C15.7679 40.2658 15.7591 40.171 15.7416 40.0948C15.7241 40.018 15.6959 39.9604 15.6569 39.922C15.618 39.8831 15.566 39.8636 15.5011 39.8636C15.4362 39.8636 15.3843 39.8831 15.3453 39.922C15.3064 39.9604 15.2781 40.018 15.2606 40.0948C15.2437 40.171 15.2352 40.2658 15.2352 40.3793ZM13.5163 41.7442C13.588 41.7442 13.6515 41.7555 13.7068 41.7781C13.7621 41.8007 13.8053 41.834 13.8363 41.878C13.868 41.9215 13.8838 41.9751 13.8838 42.0389C13.8838 42.0891 13.8728 42.1332 13.8507 42.171C13.8293 42.2083 13.8002 42.241 13.7635 42.2692C13.7268 42.2969 13.6862 42.3217 13.6416 42.3437C13.6947 42.368 13.7424 42.3954 13.7847 42.4259C13.8276 42.4564 13.8615 42.4922 13.8863 42.5334C13.9111 42.5746 13.9236 42.6235 13.9236 42.6799C13.9236 42.7494 13.9066 42.8095 13.8728 42.8603C13.8395 42.9105 13.7926 42.9492 13.7322 42.9763C13.6718 43.0034 13.6009 43.0169 13.5197 43.0169C13.4322 43.0169 13.3576 43.004 13.2961 42.978C13.2351 42.9515 13.1886 42.9136 13.1564 42.8645C13.1248 42.8148 13.109 42.7553 13.109 42.6858C13.109 42.6288 13.1211 42.5794 13.1454 42.5377C13.1697 42.4953 13.2018 42.4589 13.2419 42.4284C13.282 42.3979 13.3257 42.3723 13.3732 42.3514C13.3319 42.3288 13.2941 42.3031 13.2597 42.2743C13.2258 42.2455 13.1987 42.2119 13.1784 42.1735C13.1586 42.1346 13.1488 42.0894 13.1488 42.0381C13.1488 41.9754 13.1646 41.9223 13.1962 41.8789C13.2284 41.8348 13.2721 41.8015 13.3274 41.7789C13.3833 41.7558 13.4463 41.7442 13.5163 41.7442ZM13.247 42.6867C13.247 42.7499 13.2693 42.8021 13.3139 42.8433C13.3585 42.884 13.4259 42.9043 13.5163 42.9043C13.6021 42.9043 13.6684 42.884 13.7153 42.8433C13.7621 42.8021 13.7855 42.7482 13.7855 42.6816C13.7855 42.6404 13.7748 42.6043 13.7534 42.5732C13.7319 42.5416 13.7014 42.5134 13.6619 42.4885C13.6224 42.4637 13.5758 42.4411 13.5222 42.4208L13.4917 42.4098C13.4398 42.4312 13.3955 42.4552 13.3588 42.4818C13.3226 42.5077 13.295 42.5374 13.2758 42.5707C13.2566 42.604 13.247 42.6427 13.247 42.6867ZM13.5146 41.8594C13.448 41.8594 13.3935 41.8755 13.3511 41.9077C13.3088 41.9393 13.2876 41.985 13.2876 42.0448C13.2876 42.0877 13.2978 42.1241 13.3181 42.1541C13.339 42.1834 13.3672 42.2088 13.4028 42.2303C13.4384 42.2512 13.4782 42.2706 13.5222 42.2887C13.5651 42.2706 13.6032 42.2509 13.6365 42.2294C13.6698 42.2074 13.6961 42.1814 13.7153 42.1515C13.7345 42.1216 13.744 42.0858 13.744 42.044C13.744 41.9841 13.7229 41.9384 13.6805 41.9068C13.6388 41.8752 13.5834 41.8594 13.5146 41.8594ZM14.9177 42.3793C14.9177 42.4798 14.9101 42.5696 14.8948 42.6486C14.8796 42.7276 14.8556 42.7945 14.8228 42.8493C14.7901 42.904 14.7478 42.9458 14.6958 42.9746C14.6439 43.0028 14.5815 43.0169 14.5087 43.0169C14.4167 43.0169 14.3405 42.9918 14.2801 42.9416C14.2202 42.8913 14.1753 42.8188 14.1454 42.7239C14.1161 42.6285 14.1014 42.5137 14.1014 42.3793C14.1014 42.2472 14.1147 42.1337 14.1412 42.0389C14.1683 41.9435 14.2118 41.8704 14.2716 41.8196C14.3314 41.7682 14.4105 41.7425 14.5087 41.7425C14.6018 41.7425 14.6786 41.7679 14.739 41.8187C14.7994 41.869 14.8443 41.9418 14.8737 42.0372C14.903 42.1321 14.9177 42.2461 14.9177 42.3793ZM14.2428 42.3793C14.2428 42.4945 14.2516 42.5904 14.2691 42.6672C14.2866 42.744 14.3148 42.8016 14.3537 42.84C14.3932 42.8778 14.4449 42.8967 14.5087 42.8967C14.5725 42.8967 14.6239 42.8778 14.6628 42.84C14.7023 42.8021 14.7308 42.7448 14.7483 42.6681C14.7664 42.5913 14.7754 42.495 14.7754 42.3793C14.7754 42.2658 14.7667 42.171 14.7492 42.0948C14.7317 42.018 14.7035 41.9604 14.6645 41.922C14.6255 41.8831 14.5736 41.8636 14.5087 41.8636C14.4438 41.8636 14.3918 41.8831 14.3529 41.922C14.3139 41.9604 14.2857 42.018 14.2682 42.0948C14.2513 42.171 14.2428 42.2658 14.2428 42.3793ZM15.9101 42.3793C15.9101 42.4798 15.9025 42.5696 15.8872 42.6486C15.872 42.7276 15.848 42.7945 15.8153 42.8493C15.7825 42.904 15.7402 42.9458 15.6883 42.9746C15.6363 43.0028 15.5739 43.0169 15.5011 43.0169C15.4091 43.0169 15.3329 42.9918 15.2725 42.9416C15.2126 42.8913 15.1678 42.8188 15.1378 42.7239C15.1085 42.6285 15.0938 42.5137 15.0938 42.3793C15.0938 42.2472 15.1071 42.1337 15.1336 42.0389C15.1607 41.9435 15.2042 41.8704 15.264 41.8196C15.3239 41.7682 15.4029 41.7425 15.5011 41.7425C15.5943 41.7425 15.671 41.7679 15.7314 41.8187C15.7918 41.869 15.8367 41.9418 15.8661 42.0372C15.8954 42.1321 15.9101 42.2461 15.9101 42.3793ZM15.2352 42.3793C15.2352 42.4945 15.244 42.5904 15.2615 42.6672C15.279 42.744 15.3072 42.8016 15.3462 42.84C15.3857 42.8778 15.4373 42.8967 15.5011 42.8967C15.5649 42.8967 15.6163 42.8778 15.6552 42.84C15.6947 42.8021 15.7233 42.7448 15.7408 42.6681C15.7588 42.5913 15.7679 42.495 15.7679 42.3793C15.7679 42.2658 15.7591 42.171 15.7416 42.0948C15.7241 42.018 15.6959 41.9604 15.6569 41.922C15.618 41.8831 15.566 41.8636 15.5011 41.8636C15.4362 41.8636 15.3843 41.8831 15.3453 41.922C15.3064 41.9604 15.2781 42.018 15.2606 42.0948C15.2437 42.171 15.2352 42.2658 15.2352 42.3793ZM13.2673 46L13.7754 44.8907H13.1005V44.762H13.9261V44.8704L13.4214 46H13.2673ZM14.9177 45.3793C14.9177 45.4798 14.9101 45.5696 14.8948 45.6486C14.8796 45.7276 14.8556 45.7945 14.8228 45.8493C14.7901 45.904 14.7478 45.9458 14.6958 45.9746C14.6439 46.0028 14.5815 46.0169 14.5087 46.0169C14.4167 46.0169 14.3405 45.9918 14.2801 45.9416C14.2202 45.8913 14.1753 45.8188 14.1454 45.7239C14.1161 45.6285 14.1014 45.5137 14.1014 45.3793C14.1014 45.2472 14.1147 45.1337 14.1412 45.0389C14.1683 44.9435 14.2118 44.8704 14.2716 44.8196C14.3314 44.7682 14.4105 44.7425 14.5087 44.7425C14.6018 44.7425 14.6786 44.7679 14.739 44.8187C14.7994 44.869 14.8443 44.9418 14.8737 45.0372C14.903 45.1321 14.9177 45.2461 14.9177 45.3793ZM14.2428 45.3793C14.2428 45.4945 14.2516 45.5904 14.2691 45.6672C14.2866 45.744 14.3148 45.8016 14.3537 45.84C14.3932 45.8778 14.4449 45.8967 14.5087 45.8967C14.5725 45.8967 14.6239 45.8778 14.6628 45.84C14.7023 45.8021 14.7308 45.7448 14.7483 45.6681C14.7664 45.5913 14.7754 45.495 14.7754 45.3793C14.7754 45.2658 14.7667 45.171 14.7492 45.0948C14.7317 45.018 14.7035 44.9604 14.6645 44.922C14.6255 44.8831 14.5736 44.8636 14.5087 44.8636C14.4438 44.8636 14.3918 44.8831 14.3529 44.922C14.3139 44.9604 14.2857 45.018 14.2682 45.0948C14.2513 45.171 14.2428 45.2658 14.2428 45.3793ZM15.9101 45.3793C15.9101 45.4798 15.9025 45.5696 15.8872 45.6486C15.872 45.7276 15.848 45.7945 15.8153 45.8493C15.7825 45.904 15.7402 45.9458 15.6883 45.9746C15.6363 46.0028 15.5739 46.0169 15.5011 46.0169C15.4091 46.0169 15.3329 45.9918 15.2725 45.9416C15.2126 45.8913 15.1678 45.8188 15.1378 45.7239C15.1085 45.6285 15.0938 45.5137 15.0938 45.3793C15.0938 45.2472 15.1071 45.1337 15.1336 45.0389C15.1607 44.9435 15.2042 44.8704 15.264 44.8196C15.3239 44.7682 15.4029 44.7425 15.5011 44.7425C15.5943 44.7425 15.671 44.7679 15.7314 44.8187C15.7918 44.869 15.8367 44.9418 15.8661 45.0372C15.8954 45.1321 15.9101 45.2461 15.9101 45.3793ZM15.2352 45.3793C15.2352 45.4945 15.244 45.5904 15.2615 45.6672C15.279 45.744 15.3072 45.8016 15.3462 45.84C15.3857 45.8778 15.4373 45.8967 15.5011 45.8967C15.5649 45.8967 15.6163 45.8778 15.6552 45.84C15.6947 45.8021 15.7233 45.7448 15.7408 45.6681C15.7588 45.5913 15.7679 45.495 15.7679 45.3793C15.7679 45.2658 15.7591 45.171 15.7416 45.0948C15.7241 45.018 15.6959 44.9604 15.6569 44.922C15.618 44.8831 15.566 44.8636 15.5011 44.8636C15.4362 44.8636 15.3843 44.8831 15.3453 44.922C15.3064 44.9604 15.2781 45.018 15.2606 45.0948C15.2437 45.171 15.2352 45.2658 15.2352 45.3793ZM13.12 48.4708C13.12 48.3962 13.1251 48.3234 13.1352 48.2523C13.1459 48.1812 13.1637 48.1151 13.1886 48.0541C13.2134 47.9926 13.2473 47.9387 13.2902 47.8924C13.3331 47.8461 13.3864 47.81 13.4502 47.784C13.5146 47.7575 13.5916 47.7442 13.6814 47.7442C13.7068 47.7442 13.7342 47.7456 13.7635 47.7485C13.7929 47.7507 13.8172 47.7547 13.8363 47.7603V47.8814C13.8155 47.8741 13.7915 47.8687 13.7644 47.8653C13.7378 47.8619 13.711 47.8602 13.6839 47.8602C13.5789 47.8602 13.4962 47.8831 13.4358 47.9288C13.376 47.9745 13.3328 48.0366 13.3063 48.1151C13.2797 48.193 13.2645 48.2808 13.2605 48.3785H13.2699C13.2874 48.3502 13.3097 48.3248 13.3367 48.3023C13.3638 48.2791 13.3966 48.2608 13.435 48.2472C13.4739 48.2337 13.5191 48.2269 13.5705 48.2269C13.6427 48.2269 13.7057 48.2416 13.7593 48.2709C13.8135 48.3003 13.8553 48.3429 13.8846 48.3988C13.9145 48.4547 13.9295 48.5224 13.9295 48.602C13.9295 48.6873 13.9137 48.7609 13.8821 48.823C13.8505 48.8851 13.8053 48.9331 13.7466 48.967C13.6884 49.0003 13.619 49.0169 13.5383 49.0169C13.4779 49.0169 13.4223 49.0054 13.3715 48.9822C13.3207 48.9591 13.2763 48.9246 13.2385 48.8789C13.2013 48.8332 13.1722 48.7765 13.1513 48.7087C13.1304 48.6404 13.12 48.5611 13.12 48.4708ZM13.5366 48.8984C13.6134 48.8984 13.6749 48.8738 13.7212 48.8247C13.7675 48.7756 13.7906 48.7014 13.7906 48.602C13.7906 48.5207 13.77 48.4564 13.7288 48.4089C13.6876 48.3615 13.6255 48.3378 13.5425 48.3378C13.4861 48.3378 13.437 48.3497 13.3952 48.3734C13.3534 48.3965 13.3209 48.4259 13.2978 48.4614C13.2747 48.497 13.2631 48.5331 13.2631 48.5698C13.2631 48.6071 13.2684 48.6449 13.2792 48.6833C13.2905 48.7217 13.3074 48.7573 13.33 48.79C13.3526 48.8227 13.3811 48.849 13.4155 48.8687C13.4499 48.8885 13.4903 48.8984 13.5366 48.8984ZM14.9177 48.3793C14.9177 48.4798 14.9101 48.5696 14.8948 48.6486C14.8796 48.7276 14.8556 48.7945 14.8228 48.8493C14.7901 48.904 14.7478 48.9458 14.6958 48.9746C14.6439 49.0028 14.5815 49.0169 14.5087 49.0169C14.4167 49.0169 14.3405 48.9918 14.2801 48.9416C14.2202 48.8913 14.1753 48.8188 14.1454 48.7239C14.1161 48.6285 14.1014 48.5137 14.1014 48.3793C14.1014 48.2472 14.1147 48.1337 14.1412 48.0389C14.1683 47.9435 14.2118 47.8704 14.2716 47.8196C14.3314 47.7682 14.4105 47.7425 14.5087 47.7425C14.6018 47.7425 14.6786 47.7679 14.739 47.8187C14.7994 47.869 14.8443 47.9418 14.8737 48.0372C14.903 48.1321 14.9177 48.2461 14.9177 48.3793ZM14.2428 48.3793C14.2428 48.4945 14.2516 48.5904 14.2691 48.6672C14.2866 48.744 14.3148 48.8016 14.3537 48.84C14.3932 48.8778 14.4449 48.8967 14.5087 48.8967C14.5725 48.8967 14.6239 48.8778 14.6628 48.84C14.7023 48.8021 14.7308 48.7448 14.7483 48.6681C14.7664 48.5913 14.7754 48.495 14.7754 48.3793C14.7754 48.2658 14.7667 48.171 14.7492 48.0948C14.7317 48.018 14.7035 47.9604 14.6645 47.922C14.6255 47.8831 14.5736 47.8636 14.5087 47.8636C14.4438 47.8636 14.3918 47.8831 14.3529 47.922C14.3139 47.9604 14.2857 48.018 14.2682 48.0948C14.2513 48.171 14.2428 48.2658 14.2428 48.3793ZM15.9101 48.3793C15.9101 48.4798 15.9025 48.5696 15.8872 48.6486C15.872 48.7276 15.848 48.7945 15.8153 48.8493C15.7825 48.904 15.7402 48.9458 15.6883 48.9746C15.6363 49.0028 15.5739 49.0169 15.5011 49.0169C15.4091 49.0169 15.3329 48.9918 15.2725 48.9416C15.2126 48.8913 15.1678 48.8188 15.1378 48.7239C15.1085 48.6285 15.0938 48.5137 15.0938 48.3793C15.0938 48.2472 15.1071 48.1337 15.1336 48.0389C15.1607 47.9435 15.2042 47.8704 15.264 47.8196C15.3239 47.7682 15.4029 47.7425 15.5011 47.7425C15.5943 47.7425 15.671 47.7679 15.7314 47.8187C15.7918 47.869 15.8367 47.9418 15.8661 48.0372C15.8954 48.1321 15.9101 48.2461 15.9101 48.3793ZM15.2352 48.3793C15.2352 48.4945 15.244 48.5904 15.2615 48.6672C15.279 48.744 15.3072 48.8016 15.3462 48.84C15.3857 48.8778 15.4373 48.8967 15.5011 48.8967C15.5649 48.8967 15.6163 48.8778 15.6552 48.84C15.6947 48.8021 15.7233 48.7448 15.7408 48.6681C15.7588 48.5913 15.7679 48.495 15.7679 48.3793C15.7679 48.2658 15.7591 48.171 15.7416 48.0948C15.7241 48.018 15.6959 47.9604 15.6569 47.922C15.618 47.8831 15.566 47.8636 15.5011 47.8636C15.4362 47.8636 15.3843 47.8831 15.3453 47.922C15.3064 47.9604 15.2781 48.018 15.2606 48.0948C15.2437 48.171 15.2352 48.2658 15.2352 48.3793ZM13.4985 51.243C13.5826 51.243 13.6557 51.2574 13.7178 51.2862C13.7799 51.3144 13.8279 51.3556 13.8618 51.4098C13.8962 51.464 13.9134 51.5298 13.9134 51.6071C13.9134 51.6918 13.8951 51.7649 13.8584 51.8264C13.8217 51.8874 13.7689 51.9345 13.7 51.9678C13.6311 52.0006 13.5487 52.0169 13.4528 52.0169C13.3884 52.0169 13.3286 52.0113 13.2732 52C13.2179 51.9887 13.1713 51.9718 13.1335 51.9492V51.8154C13.1747 51.8402 13.2247 51.86 13.2834 51.8747C13.3421 51.8894 13.3991 51.8967 13.4545 51.8967C13.5171 51.8967 13.5719 51.8868 13.6187 51.8671C13.6661 51.8467 13.7028 51.8162 13.7288 51.7756C13.7553 51.7344 13.7686 51.6827 13.7686 51.6206C13.7686 51.5382 13.7432 51.4747 13.6924 51.4301C13.6422 51.385 13.5626 51.3624 13.4536 51.3624C13.4186 51.3624 13.3802 51.3652 13.3384 51.3708C13.2967 51.3765 13.2622 51.3827 13.2351 51.3895L13.164 51.3429L13.2114 50.762H13.827V50.8907H13.3317L13.3003 51.2641C13.3218 51.2596 13.3494 51.2551 13.3833 51.2506C13.4172 51.2455 13.4556 51.243 13.4985 51.243ZM14.9177 51.3793C14.9177 51.4798 14.9101 51.5696 14.8948 51.6486C14.8796 51.7276 14.8556 51.7945 14.8228 51.8493C14.7901 51.904 14.7478 51.9458 14.6958 51.9746C14.6439 52.0028 14.5815 52.0169 14.5087 52.0169C14.4167 52.0169 14.3405 51.9918 14.2801 51.9416C14.2202 51.8913 14.1753 51.8188 14.1454 51.7239C14.1161 51.6285 14.1014 51.5137 14.1014 51.3793C14.1014 51.2472 14.1147 51.1337 14.1412 51.0389C14.1683 50.9435 14.2118 50.8704 14.2716 50.8196C14.3314 50.7682 14.4105 50.7425 14.5087 50.7425C14.6018 50.7425 14.6786 50.7679 14.739 50.8187C14.7994 50.869 14.8443 50.9418 14.8737 51.0372C14.903 51.1321 14.9177 51.2461 14.9177 51.3793ZM14.2428 51.3793C14.2428 51.4945 14.2516 51.5904 14.2691 51.6672C14.2866 51.744 14.3148 51.8016 14.3537 51.84C14.3932 51.8778 14.4449 51.8967 14.5087 51.8967C14.5725 51.8967 14.6239 51.8778 14.6628 51.84C14.7023 51.8021 14.7308 51.7448 14.7483 51.6681C14.7664 51.5913 14.7754 51.495 14.7754 51.3793C14.7754 51.2658 14.7667 51.171 14.7492 51.0948C14.7317 51.018 14.7035 50.9604 14.6645 50.922C14.6255 50.8831 14.5736 50.8636 14.5087 50.8636C14.4438 50.8636 14.3918 50.8831 14.3529 50.922C14.3139 50.9604 14.2857 51.018 14.2682 51.0948C14.2513 51.171 14.2428 51.2658 14.2428 51.3793ZM15.9101 51.3793C15.9101 51.4798 15.9025 51.5696 15.8872 51.6486C15.872 51.7276 15.848 51.7945 15.8153 51.8493C15.7825 51.904 15.7402 51.9458 15.6883 51.9746C15.6363 52.0028 15.5739 52.0169 15.5011 52.0169C15.4091 52.0169 15.3329 51.9918 15.2725 51.9416C15.2126 51.8913 15.1678 51.8188 15.1378 51.7239C15.1085 51.6285 15.0938 51.5137 15.0938 51.3793C15.0938 51.2472 15.1071 51.1337 15.1336 51.0389C15.1607 50.9435 15.2042 50.8704 15.264 50.8196C15.3239 50.7682 15.4029 50.7425 15.5011 50.7425C15.5943 50.7425 15.671 50.7679 15.7314 50.8187C15.7918 50.869 15.8367 50.9418 15.8661 51.0372C15.8954 51.1321 15.9101 51.2461 15.9101 51.3793ZM15.2352 51.3793C15.2352 51.4945 15.244 51.5904 15.2615 51.6672C15.279 51.744 15.3072 51.8016 15.3462 51.84C15.3857 51.8778 15.4373 51.8967 15.5011 51.8967C15.5649 51.8967 15.6163 51.8778 15.6552 51.84C15.6947 51.8021 15.7233 51.7448 15.7408 51.6681C15.7588 51.5913 15.7679 51.495 15.7679 51.3793C15.7679 51.2658 15.7591 51.171 15.7416 51.0948C15.7241 51.018 15.6959 50.9604 15.6569 50.922C15.618 50.8831 15.566 50.8636 15.5011 50.8636C15.4362 50.8636 15.3843 50.8831 15.3453 50.922C15.3064 50.9604 15.2781 51.018 15.2606 51.0948C15.2437 51.171 15.2352 51.2658 15.2352 51.3793ZM13.9803 54.7129H13.7949V55H13.6577V54.7129H13.059V54.5944L13.6484 53.7552H13.7949V54.5859H13.9803V54.7129ZM13.6577 54.5859V54.1812C13.6577 54.1501 13.658 54.1222 13.6585 54.0973C13.6591 54.0719 13.6599 54.0485 13.6611 54.0271C13.6622 54.005 13.663 53.9841 13.6636 53.9644C13.6647 53.9446 13.6656 53.9252 13.6661 53.906H13.6594C13.6486 53.9285 13.6362 53.9525 13.6221 53.9779C13.6086 54.0028 13.5947 54.0251 13.5806 54.0448L13.1987 54.5859H13.6577ZM14.9177 54.3793C14.9177 54.4798 14.9101 54.5696 14.8948 54.6486C14.8796 54.7276 14.8556 54.7945 14.8228 54.8493C14.7901 54.904 14.7478 54.9458 14.6958 54.9746C14.6439 55.0028 14.5815 55.0169 14.5087 55.0169C14.4167 55.0169 14.3405 54.9918 14.2801 54.9416C14.2202 54.8913 14.1753 54.8188 14.1454 54.7239C14.1161 54.6285 14.1014 54.5137 14.1014 54.3793C14.1014 54.2472 14.1147 54.1337 14.1412 54.0389C14.1683 53.9435 14.2118 53.8704 14.2716 53.8196C14.3314 53.7682 14.4105 53.7425 14.5087 53.7425C14.6018 53.7425 14.6786 53.7679 14.739 53.8187C14.7994 53.869 14.8443 53.9418 14.8737 54.0372C14.903 54.1321 14.9177 54.2461 14.9177 54.3793ZM14.2428 54.3793C14.2428 54.4945 14.2516 54.5904 14.2691 54.6672C14.2866 54.744 14.3148 54.8016 14.3537 54.84C14.3932 54.8778 14.4449 54.8967 14.5087 54.8967C14.5725 54.8967 14.6239 54.8778 14.6628 54.84C14.7023 54.8021 14.7308 54.7448 14.7483 54.6681C14.7664 54.5913 14.7754 54.495 14.7754 54.3793C14.7754 54.2658 14.7667 54.171 14.7492 54.0948C14.7317 54.018 14.7035 53.9604 14.6645 53.922C14.6255 53.8831 14.5736 53.8636 14.5087 53.8636C14.4438 53.8636 14.3918 53.8831 14.3529 53.922C14.3139 53.9604 14.2857 54.018 14.2682 54.0948C14.2513 54.171 14.2428 54.2658 14.2428 54.3793ZM15.9101 54.3793C15.9101 54.4798 15.9025 54.5696 15.8872 54.6486C15.872 54.7276 15.848 54.7945 15.8153 54.8493C15.7825 54.904 15.7402 54.9458 15.6883 54.9746C15.6363 55.0028 15.5739 55.0169 15.5011 55.0169C15.4091 55.0169 15.3329 54.9918 15.2725 54.9416C15.2126 54.8913 15.1678 54.8188 15.1378 54.7239C15.1085 54.6285 15.0938 54.5137 15.0938 54.3793C15.0938 54.2472 15.1071 54.1337 15.1336 54.0389C15.1607 53.9435 15.2042 53.8704 15.264 53.8196C15.3239 53.7682 15.4029 53.7425 15.5011 53.7425C15.5943 53.7425 15.671 53.7679 15.7314 53.8187C15.7918 53.869 15.8367 53.9418 15.8661 54.0372C15.8954 54.1321 15.9101 54.2461 15.9101 54.3793ZM15.2352 54.3793C15.2352 54.4945 15.244 54.5904 15.2615 54.6672C15.279 54.744 15.3072 54.8016 15.3462 54.84C15.3857 54.8778 15.4373 54.8967 15.5011 54.8967C15.5649 54.8967 15.6163 54.8778 15.6552 54.84C15.6947 54.8021 15.7233 54.7448 15.7408 54.6681C15.7588 54.5913 15.7679 54.495 15.7679 54.3793C15.7679 54.2658 15.7591 54.171 15.7416 54.0948C15.7241 54.018 15.6959 53.9604 15.6569 53.922C15.618 53.8831 15.566 53.8636 15.5011 53.8636C15.4362 53.8636 15.3843 53.8831 15.3453 53.922C15.3064 53.9604 15.2781 54.018 15.2606 54.0948C15.2437 54.171 15.2352 54.2658 15.2352 54.3793ZM13.8728 56.0508C13.8728 56.1061 13.862 56.1541 13.8406 56.1947C13.8191 56.2354 13.7892 56.2687 13.7508 56.2946C13.7124 56.32 13.6673 56.3378 13.6153 56.348V56.3548C13.7136 56.3672 13.7872 56.3988 13.8363 56.4496C13.886 56.5004 13.9109 56.567 13.9109 56.6494C13.9109 56.7211 13.8939 56.7846 13.8601 56.84C13.8268 56.8953 13.7754 56.9387 13.7059 56.9704C13.6371 57.0014 13.5487 57.0169 13.4409 57.0169C13.3754 57.0169 13.3147 57.0116 13.2588 57.0008C13.2035 56.9907 13.1505 56.9735 13.0996 56.9492V56.8171C13.151 56.8425 13.2069 56.8625 13.2673 56.8772C13.3277 56.8913 13.3861 56.8984 13.4426 56.8984C13.5555 56.8984 13.6371 56.8761 13.6873 56.8315C13.7376 56.7863 13.7627 56.7248 13.7627 56.6469C13.7627 56.5933 13.7486 56.5501 13.7203 56.5173C13.6927 56.484 13.6526 56.4598 13.6001 56.4445C13.5482 56.4287 13.4855 56.4208 13.4121 56.4208H13.2885V56.3006H13.413C13.4801 56.3006 13.5372 56.2907 13.584 56.2709C13.6309 56.2512 13.6664 56.2235 13.6907 56.1879C13.7155 56.1518 13.728 56.1092 13.728 56.0601C13.728 55.9974 13.7071 55.9491 13.6653 55.9153C13.6235 55.8808 13.5668 55.8636 13.4951 55.8636C13.4511 55.8636 13.411 55.8681 13.3749 55.8772C13.3387 55.8862 13.3049 55.8986 13.2732 55.9144C13.2416 55.9302 13.21 55.9486 13.1784 55.9695L13.1073 55.8729C13.1524 55.8379 13.2075 55.8077 13.2724 55.7823C13.3373 55.7569 13.411 55.7442 13.4934 55.7442C13.6199 55.7442 13.7147 55.773 13.7779 55.8306C13.8411 55.8882 13.8728 55.9616 13.8728 56.0508ZM14.9177 56.3793C14.9177 56.4798 14.9101 56.5696 14.8948 56.6486C14.8796 56.7276 14.8556 56.7945 14.8228 56.8493C14.7901 56.904 14.7478 56.9458 14.6958 56.9746C14.6439 57.0028 14.5815 57.0169 14.5087 57.0169C14.4167 57.0169 14.3405 56.9918 14.2801 56.9416C14.2202 56.8913 14.1753 56.8188 14.1454 56.7239C14.1161 56.6285 14.1014 56.5137 14.1014 56.3793C14.1014 56.2472 14.1147 56.1337 14.1412 56.0389C14.1683 55.9435 14.2118 55.8704 14.2716 55.8196C14.3314 55.7682 14.4105 55.7425 14.5087 55.7425C14.6018 55.7425 14.6786 55.7679 14.739 55.8187C14.7994 55.869 14.8443 55.9418 14.8737 56.0372C14.903 56.1321 14.9177 56.2461 14.9177 56.3793ZM14.2428 56.3793C14.2428 56.4945 14.2516 56.5904 14.2691 56.6672C14.2866 56.744 14.3148 56.8016 14.3537 56.84C14.3932 56.8778 14.4449 56.8967 14.5087 56.8967C14.5725 56.8967 14.6239 56.8778 14.6628 56.84C14.7023 56.8021 14.7308 56.7448 14.7483 56.6681C14.7664 56.5913 14.7754 56.495 14.7754 56.3793C14.7754 56.2658 14.7667 56.171 14.7492 56.0948C14.7317 56.018 14.7035 55.9604 14.6645 55.922C14.6255 55.8831 14.5736 55.8636 14.5087 55.8636C14.4438 55.8636 14.3918 55.8831 14.3529 55.922C14.3139 55.9604 14.2857 56.018 14.2682 56.0948C14.2513 56.171 14.2428 56.2658 14.2428 56.3793ZM15.9101 56.3793C15.9101 56.4798 15.9025 56.5696 15.8872 56.6486C15.872 56.7276 15.848 56.7945 15.8153 56.8493C15.7825 56.904 15.7402 56.9458 15.6883 56.9746C15.6363 57.0028 15.5739 57.0169 15.5011 57.0169C15.4091 57.0169 15.3329 56.9918 15.2725 56.9416C15.2126 56.8913 15.1678 56.8188 15.1378 56.7239C15.1085 56.6285 15.0938 56.5137 15.0938 56.3793C15.0938 56.2472 15.1071 56.1337 15.1336 56.0389C15.1607 55.9435 15.2042 55.8704 15.264 55.8196C15.3239 55.7682 15.4029 55.7425 15.5011 55.7425C15.5943 55.7425 15.671 55.7679 15.7314 55.8187C15.7918 55.869 15.8367 55.9418 15.8661 56.0372C15.8954 56.1321 15.9101 56.2461 15.9101 56.3793ZM15.2352 56.3793C15.2352 56.4945 15.244 56.5904 15.2615 56.6672C15.279 56.744 15.3072 56.8016 15.3462 56.84C15.3857 56.8778 15.4373 56.8967 15.5011 56.8967C15.5649 56.8967 15.6163 56.8778 15.6552 56.84C15.6947 56.8021 15.7233 56.7448 15.7408 56.6681C15.7588 56.5913 15.7679 56.495 15.7679 56.3793C15.7679 56.2658 15.7591 56.171 15.7416 56.0948C15.7241 56.018 15.6959 55.9604 15.6569 55.922C15.618 55.8831 15.566 55.8636 15.5011 55.8636C15.4362 55.8636 15.3843 55.8831 15.3453 55.922C15.3064 55.9604 15.2781 56.018 15.2606 56.0948C15.2437 56.171 15.2352 56.2658 15.2352 56.3793ZM13.9185 60H13.1073V59.8823L13.4384 59.5461C13.4999 59.484 13.5515 59.4287 13.5933 59.3802C13.6357 59.3316 13.6678 59.2839 13.6899 59.2371C13.7119 59.1896 13.7229 59.1377 13.7229 59.0812C13.7229 59.0112 13.702 58.9579 13.6602 58.9212C13.619 58.8839 13.5645 58.8653 13.4968 58.8653C13.4375 58.8653 13.385 58.8755 13.3393 58.8958C13.2936 58.9161 13.2467 58.9449 13.1987 58.9822L13.1234 58.8873C13.1561 58.8597 13.1917 58.8351 13.2301 58.8137C13.269 58.7922 13.3105 58.7753 13.3545 58.7629C13.3991 58.7504 13.4465 58.7442 13.4968 58.7442C13.573 58.7442 13.6388 58.7575 13.6941 58.784C13.7494 58.8106 13.792 58.8484 13.822 58.8975C13.8524 58.9466 13.8677 59.005 13.8677 59.0728C13.8677 59.1383 13.8547 59.1992 13.8287 59.2557C13.8028 59.3116 13.7663 59.3672 13.7195 59.4225C13.6726 59.4773 13.6179 59.5354 13.5552 59.5969L13.2859 59.8654V59.8713H13.9185V60ZM14.9177 59.3793C14.9177 59.4798 14.9101 59.5696 14.8948 59.6486C14.8796 59.7276 14.8556 59.7945 14.8228 59.8493C14.7901 59.904 14.7478 59.9458 14.6958 59.9746C14.6439 60.0028 14.5815 60.0169 14.5087 60.0169C14.4167 60.0169 14.3405 59.9918 14.2801 59.9416C14.2202 59.8913 14.1753 59.8188 14.1454 59.7239C14.1161 59.6285 14.1014 59.5137 14.1014 59.3793C14.1014 59.2472 14.1147 59.1337 14.1412 59.0389C14.1683 58.9435 14.2118 58.8704 14.2716 58.8196C14.3314 58.7682 14.4105 58.7425 14.5087 58.7425C14.6018 58.7425 14.6786 58.7679 14.739 58.8187C14.7994 58.869 14.8443 58.9418 14.8737 59.0372C14.903 59.1321 14.9177 59.2461 14.9177 59.3793ZM14.2428 59.3793C14.2428 59.4945 14.2516 59.5904 14.2691 59.6672C14.2866 59.744 14.3148 59.8016 14.3537 59.84C14.3932 59.8778 14.4449 59.8967 14.5087 59.8967C14.5725 59.8967 14.6239 59.8778 14.6628 59.84C14.7023 59.8021 14.7308 59.7448 14.7483 59.6681C14.7664 59.5913 14.7754 59.495 14.7754 59.3793C14.7754 59.2658 14.7667 59.171 14.7492 59.0948C14.7317 59.018 14.7035 58.9604 14.6645 58.922C14.6255 58.8831 14.5736 58.8636 14.5087 58.8636C14.4438 58.8636 14.3918 58.8831 14.3529 58.922C14.3139 58.9604 14.2857 59.018 14.2682 59.0948C14.2513 59.171 14.2428 59.2658 14.2428 59.3793ZM15.9101 59.3793C15.9101 59.4798 15.9025 59.5696 15.8872 59.6486C15.872 59.7276 15.848 59.7945 15.8153 59.8493C15.7825 59.904 15.7402 59.9458 15.6883 59.9746C15.6363 60.0028 15.5739 60.0169 15.5011 60.0169C15.4091 60.0169 15.3329 59.9918 15.2725 59.9416C15.2126 59.8913 15.1678 59.8188 15.1378 59.7239C15.1085 59.6285 15.0938 59.5137 15.0938 59.3793C15.0938 59.2472 15.1071 59.1337 15.1336 59.0389C15.1607 58.9435 15.2042 58.8704 15.264 58.8196C15.3239 58.7682 15.4029 58.7425 15.5011 58.7425C15.5943 58.7425 15.671 58.7679 15.7314 58.8187C15.7918 58.869 15.8367 58.9418 15.8661 59.0372C15.8954 59.1321 15.9101 59.2461 15.9101 59.3793ZM15.2352 59.3793C15.2352 59.4945 15.244 59.5904 15.2615 59.6672C15.279 59.744 15.3072 59.8016 15.3462 59.84C15.3857 59.8778 15.4373 59.8967 15.5011 59.8967C15.5649 59.8967 15.6163 59.8778 15.6552 59.84C15.6947 59.8021 15.7233 59.7448 15.7408 59.6681C15.7588 59.5913 15.7679 59.495 15.7679 59.3793C15.7679 59.2658 15.7591 59.171 15.7416 59.0948C15.7241 59.018 15.6959 58.9604 15.6569 58.922C15.618 58.8831 15.566 58.8636 15.5011 58.8636C15.4362 58.8636 15.3843 58.8831 15.3453 58.922C15.3064 58.9604 15.2781 59.018 15.2606 59.0948C15.2437 59.171 15.2352 59.2658 15.2352 59.3793ZM13.6306 63H13.4934V62.1227C13.4934 62.0894 13.4934 62.0609 13.4934 62.0372C13.494 62.0129 13.4945 61.9909 13.4951 61.9712C13.4962 61.9508 13.4976 61.9302 13.4993 61.9093C13.4818 61.9274 13.4655 61.9429 13.4502 61.9559C13.435 61.9683 13.4161 61.9839 13.3935 62.0025L13.2521 62.116L13.1784 62.0203L13.5137 61.762H13.6306V63ZM14.9177 62.3793C14.9177 62.4798 14.9101 62.5696 14.8948 62.6486C14.8796 62.7276 14.8556 62.7945 14.8228 62.8493C14.7901 62.904 14.7478 62.9458 14.6958 62.9746C14.6439 63.0028 14.5815 63.0169 14.5087 63.0169C14.4167 63.0169 14.3405 62.9918 14.2801 62.9416C14.2202 62.8913 14.1753 62.8188 14.1454 62.7239C14.1161 62.6285 14.1014 62.5137 14.1014 62.3793C14.1014 62.2472 14.1147 62.1337 14.1412 62.0389C14.1683 61.9435 14.2118 61.8704 14.2716 61.8196C14.3314 61.7682 14.4105 61.7425 14.5087 61.7425C14.6018 61.7425 14.6786 61.7679 14.739 61.8187C14.7994 61.869 14.8443 61.9418 14.8737 62.0372C14.903 62.1321 14.9177 62.2461 14.9177 62.3793ZM14.2428 62.3793C14.2428 62.4945 14.2516 62.5904 14.2691 62.6672C14.2866 62.744 14.3148 62.8016 14.3537 62.84C14.3932 62.8778 14.4449 62.8967 14.5087 62.8967C14.5725 62.8967 14.6239 62.8778 14.6628 62.84C14.7023 62.8021 14.7308 62.7448 14.7483 62.6681C14.7664 62.5913 14.7754 62.495 14.7754 62.3793C14.7754 62.2658 14.7667 62.171 14.7492 62.0948C14.7317 62.018 14.7035 61.9604 14.6645 61.922C14.6255 61.8831 14.5736 61.8636 14.5087 61.8636C14.4438 61.8636 14.3918 61.8831 14.3529 61.922C14.3139 61.9604 14.2857 62.018 14.2682 62.0948C14.2513 62.171 14.2428 62.2658 14.2428 62.3793ZM15.9101 62.3793C15.9101 62.4798 15.9025 62.5696 15.8872 62.6486C15.872 62.7276 15.848 62.7945 15.8153 62.8493C15.7825 62.904 15.7402 62.9458 15.6883 62.9746C15.6363 63.0028 15.5739 63.0169 15.5011 63.0169C15.4091 63.0169 15.3329 62.9918 15.2725 62.9416C15.2126 62.8913 15.1678 62.8188 15.1378 62.7239C15.1085 62.6285 15.0938 62.5137 15.0938 62.3793C15.0938 62.2472 15.1071 62.1337 15.1336 62.0389C15.1607 61.9435 15.2042 61.8704 15.264 61.8196C15.3239 61.7682 15.4029 61.7425 15.5011 61.7425C15.5943 61.7425 15.671 61.7679 15.7314 61.8187C15.7918 61.869 15.8367 61.9418 15.8661 62.0372C15.8954 62.1321 15.9101 62.2461 15.9101 62.3793ZM15.2352 62.3793C15.2352 62.4945 15.244 62.5904 15.2615 62.6672C15.279 62.744 15.3072 62.8016 15.3462 62.84C15.3857 62.8778 15.4373 62.8967 15.5011 62.8967C15.5649 62.8967 15.6163 62.8778 15.6552 62.84C15.6947 62.8021 15.7233 62.7448 15.7408 62.6681C15.7588 62.5913 15.7679 62.495 15.7679 62.3793C15.7679 62.2658 15.7591 62.171 15.7416 62.0948C15.7241 62.018 15.6959 61.9604 15.6569 61.922C15.618 61.8831 15.566 61.8636 15.5011 61.8636C15.4362 61.8636 15.3843 61.8831 15.3453 61.922C15.3064 61.9604 15.2781 62.018 15.2606 62.0948C15.2437 62.171 15.2352 62.2658 15.2352 62.3793ZM15.9101 65.3793C15.9101 65.4798 15.9025 65.5696 15.8872 65.6486C15.872 65.7276 15.848 65.7945 15.8153 65.8493C15.7825 65.904 15.7402 65.9458 15.6883 65.9746C15.6363 66.0028 15.5739 66.0169 15.5011 66.0169C15.4091 66.0169 15.3329 65.9918 15.2725 65.9416C15.2126 65.8913 15.1678 65.8188 15.1378 65.7239C15.1085 65.6285 15.0938 65.5137 15.0938 65.3793C15.0938 65.2472 15.1071 65.1337 15.1336 65.0389C15.1607 64.9435 15.2042 64.8704 15.264 64.8196C15.3239 64.7682 15.4029 64.7425 15.5011 64.7425C15.5943 64.7425 15.671 64.7679 15.7314 64.8187C15.7918 64.869 15.8367 64.9418 15.8661 65.0372C15.8954 65.1321 15.9101 65.2461 15.9101 65.3793ZM15.2352 65.3793C15.2352 65.4945 15.244 65.5904 15.2615 65.6672C15.279 65.744 15.3072 65.8016 15.3462 65.84C15.3857 65.8778 15.4373 65.8967 15.5011 65.8967C15.5649 65.8967 15.6163 65.8778 15.6552 65.84C15.6947 65.8021 15.7233 65.7448 15.7408 65.6681C15.7588 65.5913 15.7679 65.495 15.7679 65.3793C15.7679 65.2658 15.7591 65.171 15.7416 65.0948C15.7241 65.018 15.6959 64.9604 15.6569 64.922C15.618 64.8831 15.566 64.8636 15.5011 64.8636C15.4362 64.8636 15.3843 64.8831 15.3453 64.922C15.3064 64.9604 15.2781 65.018 15.2606 65.0948C15.2437 65.171 15.2352 65.2658 15.2352 65.3793Z" fill="#222539"/>
<path d="M18.2246 61.9936H27.2997V45.5318H36.3748V59.3554H45.4498V50.9135H54.3878V61.9936H63.4945V37.0898H72.5696V53.7627H81.5391" stroke="#6359E8" stroke-width="0.211048"/>
</svg>
