<svg width="92" height="92" viewBox="0 0 92 92" fill="none" xmlns="http://www.w3.org/2000/svg">
<rect x="0.389831" y="0.389831" width="91.079" height="91.2203" rx="17.5424" stroke="#BEBEBE" stroke-width="0.779661"/>
<path d="M80.3468 70.618C80.4163 70.618 80.4726 70.5617 80.4726 70.4922C80.4726 70.4227 80.4163 70.3664 80.3468 70.3664L80.3468 70.618ZM14.7744 70.4922L14.7744 70.618L80.3468 70.618L80.3468 70.4922L80.3468 70.3664L14.7744 70.3664L14.7744 70.4922Z" fill="#C4AFED"/>
<path d="M16.6834 74.755C16.6834 74.8579 16.6756 74.9498 16.6599 75.0307C16.6443 75.1117 16.6198 75.1802 16.5862 75.2363C16.5527 75.2923 16.5093 75.3351 16.4561 75.3646C16.403 75.3935 16.3391 75.408 16.2645 75.408C16.1703 75.408 16.0922 75.3822 16.0304 75.3308C15.9691 75.2793 15.9231 75.205 15.8925 75.1079C15.8624 75.0102 15.8474 74.8926 15.8474 74.755C15.8474 74.6197 15.861 74.5035 15.8881 74.4063C15.9159 74.3086 15.9604 74.2338 16.0217 74.1817C16.083 74.1291 16.1639 74.1028 16.2645 74.1028C16.3599 74.1028 16.4385 74.1288 16.5004 74.1809C16.5622 74.2323 16.6082 74.3069 16.6383 74.4046C16.6683 74.5017 16.6834 74.6185 16.6834 74.755ZM15.9922 74.755C15.9922 74.8729 16.0012 74.9712 16.0191 75.0498C16.037 75.1284 16.0659 75.1874 16.1058 75.2267C16.1463 75.2655 16.1992 75.2848 16.2645 75.2848C16.3298 75.2848 16.3824 75.2655 16.4223 75.2267C16.4628 75.188 16.492 75.1293 16.5099 75.0507C16.5284 74.9721 16.5377 74.8735 16.5377 74.755C16.5377 74.6388 16.5287 74.5416 16.5108 74.4636C16.4929 74.385 16.464 74.326 16.4241 74.2867C16.3842 74.2468 16.331 74.2268 16.2645 74.2268C16.198 74.2268 16.1448 74.2468 16.1049 74.2867C16.065 74.326 16.0361 74.385 16.0182 74.4636C16.0009 74.5416 15.9922 74.6388 15.9922 74.755Z" fill="#212121"/>
<path d="M26.3574 75.3906H26.2169V74.4922C26.2169 74.4581 26.2169 74.4289 26.2169 74.4046C26.2175 74.3798 26.2181 74.3572 26.2186 74.337C26.2198 74.3162 26.2212 74.2951 26.223 74.2737C26.2051 74.2922 26.1883 74.3081 26.1727 74.3214C26.1571 74.3341 26.1377 74.35 26.1146 74.3691L25.9698 74.4853L25.8943 74.3873L26.2377 74.1228H26.3574V75.3906ZM27.6755 74.755C27.6755 74.8579 27.6677 74.9498 27.6521 75.0307C27.6365 75.1117 27.612 75.1802 27.5784 75.2363C27.5449 75.2923 27.5015 75.3351 27.4483 75.3646C27.3951 75.3935 27.3313 75.408 27.2567 75.408C27.1624 75.408 27.0844 75.3822 27.0225 75.3308C26.9613 75.2793 26.9153 75.205 26.8847 75.1079C26.8546 75.0102 26.8396 74.8926 26.8396 74.755C26.8396 74.6197 26.8531 74.5035 26.8803 74.4063C26.9081 74.3086 26.9526 74.2338 27.0139 74.1817C27.0752 74.1291 27.1561 74.1028 27.2567 74.1028C27.3521 74.1028 27.4307 74.1288 27.4926 74.1809C27.5544 74.2323 27.6004 74.3069 27.6305 74.4046C27.6605 74.5017 27.6755 74.6185 27.6755 74.755ZM26.9844 74.755C26.9844 74.8729 26.9933 74.9712 27.0113 75.0498C27.0292 75.1284 27.0581 75.1874 27.098 75.2267C27.1385 75.2655 27.1914 75.2848 27.2567 75.2848C27.322 75.2848 27.3746 75.2655 27.4145 75.2267C27.455 75.188 27.4842 75.1293 27.5021 75.0507C27.5206 74.9721 27.5299 74.8735 27.5299 74.755C27.5299 74.6388 27.5209 74.5416 27.503 74.4636C27.485 74.385 27.4561 74.326 27.4163 74.2867C27.3764 74.2468 27.3232 74.2268 27.2567 74.2268C27.1902 74.2268 27.137 74.2468 27.0971 74.2867C27.0572 74.326 27.0283 74.385 27.0104 74.4636C26.9931 74.5416 26.9844 74.6388 26.9844 74.755Z" fill="#212121"/>
<path d="M37.6444 75.3906H36.8136V75.2701L37.1527 74.9258C37.2157 74.8622 37.2686 74.8056 37.3114 74.7558C37.3548 74.7061 37.3877 74.6573 37.4103 74.6093C37.4328 74.5607 37.4441 74.5075 37.4441 74.4497C37.4441 74.378 37.4227 74.3234 37.3799 74.2858C37.3377 74.2476 37.2819 74.2286 37.2126 74.2286C37.1519 74.2286 37.0981 74.239 37.0513 74.2598C37.0044 74.2806 36.9564 74.3101 36.9073 74.3482L36.8301 74.2511C36.8637 74.2228 36.9001 74.1976 36.9394 74.1757C36.9793 74.1537 37.0218 74.1364 37.0669 74.1236C37.1125 74.1109 37.1611 74.1046 37.2126 74.1046C37.2906 74.1046 37.358 74.1181 37.4146 74.1453C37.4713 74.1725 37.5149 74.2112 37.5456 74.2615C37.5768 74.3118 37.5924 74.3717 37.5924 74.441C37.5924 74.5081 37.5791 74.5705 37.5525 74.6284C37.5259 74.6856 37.4886 74.7425 37.4406 74.7992C37.3927 74.8553 37.3366 74.9148 37.2724 74.9778L36.9966 75.2527V75.2588H37.6444V75.3906ZM38.6677 74.755C38.6677 74.8579 38.6599 74.9498 38.6443 75.0307C38.6287 75.1117 38.6041 75.1802 38.5706 75.2363C38.5371 75.2923 38.4937 75.3351 38.4405 75.3646C38.3873 75.3935 38.3235 75.408 38.2489 75.408C38.1546 75.408 38.0766 75.3822 38.0147 75.3308C37.9534 75.2793 37.9075 75.205 37.8768 75.1079C37.8468 75.0102 37.8317 74.8926 37.8317 74.755C37.8317 74.6197 37.8453 74.5035 37.8725 74.4063C37.9003 74.3086 37.9448 74.2338 38.0061 74.1817C38.0673 74.1291 38.1483 74.1028 38.2489 74.1028C38.3443 74.1028 38.4229 74.1288 38.4848 74.1809C38.5466 74.2323 38.5926 74.3069 38.6226 74.4046C38.6527 74.5017 38.6677 74.6185 38.6677 74.755ZM37.9766 74.755C37.9766 74.8729 37.9855 74.9712 38.0035 75.0498C38.0214 75.1284 38.0503 75.1874 38.0902 75.2267C38.1306 75.2655 38.1835 75.2848 38.2489 75.2848C38.3142 75.2848 38.3668 75.2655 38.4067 75.2267C38.4472 75.188 38.4764 75.1293 38.4943 75.0507C38.5128 74.9721 38.522 74.8735 38.522 74.755C38.522 74.6388 38.5131 74.5416 38.4952 74.4636C38.4772 74.385 38.4483 74.326 38.4084 74.2867C38.3685 74.2468 38.3154 74.2268 38.2489 74.2268C38.1824 74.2268 38.1292 74.2468 38.0893 74.2867C38.0494 74.326 38.0205 74.385 38.0026 74.4636C37.9852 74.5416 37.9766 74.6388 37.9766 74.755Z" fill="#212121"/>
<path d="M48.5898 74.4185C48.5898 74.4751 48.5788 74.5243 48.5568 74.5659C48.5349 74.6075 48.5042 74.6416 48.4649 74.6682C48.4256 74.6943 48.3793 74.7125 48.3262 74.7229V74.7298C48.4268 74.7425 48.5022 74.7749 48.5525 74.8269C48.6034 74.879 48.6288 74.9472 48.6288 75.0316C48.6288 75.105 48.6115 75.1701 48.5768 75.2267C48.5427 75.2834 48.4901 75.3279 48.419 75.3603C48.3484 75.3921 48.2579 75.408 48.1475 75.408C48.0805 75.408 48.0183 75.4025 47.9611 75.3915C47.9044 75.3811 47.8501 75.3635 47.798 75.3386V75.2033C47.8506 75.2293 47.9079 75.2498 47.9697 75.2649C48.0316 75.2793 48.0914 75.2866 48.1492 75.2866C48.2649 75.2866 48.3484 75.2637 48.3999 75.2181C48.4513 75.1718 48.4771 75.1088 48.4771 75.029C48.4771 74.9741 48.4626 74.9299 48.4337 74.8963C48.4054 74.8622 48.3643 74.8373 48.3105 74.8217C48.2574 74.8056 48.1932 74.7975 48.118 74.7975H47.9914V74.6743H48.1189C48.1877 74.6743 48.2461 74.6642 48.2941 74.644C48.3421 74.6237 48.3785 74.5954 48.4033 74.559C48.4288 74.522 48.4415 74.4783 48.4415 74.428C48.4415 74.3639 48.4201 74.3144 48.3773 74.2797C48.3345 74.2445 48.2764 74.2268 48.203 74.2268C48.1579 74.2268 48.1169 74.2315 48.0799 74.2407C48.0429 74.25 48.0082 74.2627 47.9758 74.2789C47.9434 74.2951 47.9111 74.3138 47.8787 74.3352L47.8058 74.2364C47.8521 74.2005 47.9085 74.1696 47.9749 74.1436C48.0414 74.1176 48.1169 74.1046 48.2013 74.1046C48.3308 74.1046 48.4279 74.134 48.4927 74.193C48.5574 74.252 48.5898 74.3271 48.5898 74.4185ZM49.6599 74.755C49.6599 74.8579 49.6521 74.9498 49.6365 75.0307C49.6209 75.1117 49.5963 75.1802 49.5628 75.2363C49.5293 75.2923 49.4859 75.3351 49.4327 75.3646C49.3795 75.3935 49.3156 75.408 49.2411 75.408C49.1468 75.408 49.0688 75.3822 49.0069 75.3308C48.9456 75.2793 48.8997 75.205 48.869 75.1079C48.839 75.0102 48.8239 74.8926 48.8239 74.755C48.8239 74.6197 48.8375 74.5035 48.8647 74.4063C48.8924 74.3086 48.937 74.2338 48.9982 74.1817C49.0595 74.1291 49.1405 74.1028 49.2411 74.1028C49.3365 74.1028 49.4151 74.1288 49.4769 74.1809C49.5388 74.2323 49.5848 74.3069 49.6148 74.4046C49.6449 74.5017 49.6599 74.6185 49.6599 74.755ZM48.9688 74.755C48.9688 74.8729 48.9777 74.9712 48.9956 75.0498C49.0136 75.1284 49.0425 75.1874 49.0824 75.2267C49.1228 75.2655 49.1757 75.2848 49.2411 75.2848C49.3064 75.2848 49.359 75.2655 49.3989 75.2267C49.4394 75.188 49.4686 75.1293 49.4865 75.0507C49.505 74.9721 49.5142 74.8735 49.5142 74.755C49.5142 74.6388 49.5053 74.5416 49.4873 74.4636C49.4694 74.385 49.4405 74.326 49.4006 74.2867C49.3607 74.2468 49.3075 74.2268 49.2411 74.2268C49.1746 74.2268 49.1214 74.2468 49.0815 74.2867C49.0416 74.326 49.0127 74.385 48.9948 74.4636C48.9774 74.5416 48.9688 74.6388 48.9688 74.755Z" fill="#212121"/>
<path d="M59.6921 75.0966H59.5022V75.3906H59.3617V75.0966H58.7486V74.9752L59.3522 74.1158H59.5022V74.9666H59.6921V75.0966ZM59.3617 74.9666V74.552C59.3617 74.5202 59.362 74.4916 59.3626 74.4662C59.3632 74.4402 59.364 74.4162 59.3652 74.3942C59.3663 74.3717 59.3672 74.3503 59.3678 74.33C59.3689 74.3098 59.3698 74.2899 59.3704 74.2702H59.3634C59.3525 74.2933 59.3397 74.3179 59.3253 74.3439C59.3114 74.3693 59.2972 74.3922 59.2828 74.4124L58.8917 74.9666H59.3617ZM60.6521 74.755C60.6521 74.8579 60.6443 74.9498 60.6287 75.0307C60.6131 75.1117 60.5885 75.1802 60.555 75.2363C60.5214 75.2923 60.4781 75.3351 60.4249 75.3646C60.3717 75.3935 60.3078 75.408 60.2332 75.408C60.139 75.408 60.061 75.3822 59.9991 75.3308C59.9378 75.2793 59.8919 75.205 59.8612 75.1079C59.8312 75.0102 59.8161 74.8926 59.8161 74.755C59.8161 74.6197 59.8297 74.5035 59.8569 74.4063C59.8846 74.3086 59.9291 74.2338 59.9904 74.1817C60.0517 74.1291 60.1327 74.1028 60.2332 74.1028C60.3286 74.1028 60.4073 74.1288 60.4691 74.1809C60.531 74.2323 60.5769 74.3069 60.607 74.4046C60.6371 74.5017 60.6521 74.6185 60.6521 74.755ZM59.9609 74.755C59.9609 74.8729 59.9699 74.9712 59.9878 75.0498C60.0058 75.1284 60.0347 75.1874 60.0745 75.2267C60.115 75.2655 60.1679 75.2848 60.2332 75.2848C60.2986 75.2848 60.3512 75.2655 60.3911 75.2267C60.4315 75.188 60.4607 75.1293 60.4787 75.0507C60.4972 74.9721 60.5064 74.8735 60.5064 74.755C60.5064 74.6388 60.4975 74.5416 60.4795 74.4636C60.4616 74.385 60.4327 74.326 60.3928 74.2867C60.3529 74.2468 60.2997 74.2268 60.2332 74.2268C60.1668 74.2268 60.1136 74.2468 60.0737 74.2867C60.0338 74.326 60.0049 74.385 59.987 74.4636C59.9696 74.5416 59.9609 74.6388 59.9609 74.755Z" fill="#212121"/>
<path d="M70.1909 74.6153C70.277 74.6153 70.3519 74.6301 70.4155 74.6596C70.4791 74.6885 70.5282 74.7307 70.5629 74.7862C70.5982 74.8417 70.6158 74.909 70.6158 74.9882C70.6158 75.075 70.597 75.1498 70.5594 75.2128C70.5218 75.2753 70.4678 75.3236 70.3973 75.3577C70.3267 75.3912 70.2423 75.408 70.144 75.408C70.0781 75.408 70.0168 75.4022 69.9602 75.3906C69.9035 75.3791 69.8558 75.3617 69.8171 75.3386V75.2016C69.8593 75.227 69.9105 75.2472 69.9706 75.2623C70.0307 75.2773 70.0891 75.2848 70.1458 75.2848C70.2099 75.2848 70.266 75.2747 70.314 75.2545C70.3626 75.2337 70.4001 75.2024 70.4267 75.1608C70.4539 75.1186 70.4675 75.0657 70.4675 75.0021C70.4675 74.9177 70.4415 74.8527 70.3894 74.807C70.338 74.7607 70.2565 74.7376 70.1449 74.7376C70.1091 74.7376 70.0697 74.7405 70.027 74.7463C69.9842 74.7521 69.9489 74.7584 69.9212 74.7654L69.8483 74.7177L69.8969 74.1228H70.5273V74.2546H70.02L69.9879 74.637C70.0099 74.6324 70.0382 74.6278 70.0729 74.6231C70.1076 74.6179 70.1469 74.6153 70.1909 74.6153ZM71.6443 74.755C71.6443 74.8579 71.6365 74.9498 71.6209 75.0307C71.6053 75.1117 71.5807 75.1802 71.5472 75.2363C71.5136 75.2923 71.4703 75.3351 71.4171 75.3646C71.3639 75.3935 71.3 75.408 71.2254 75.408C71.1312 75.408 71.0532 75.3822 70.9913 75.3308C70.93 75.2793 70.884 75.205 70.8534 75.1079C70.8233 75.0102 70.8083 74.8926 70.8083 74.755C70.8083 74.6197 70.8219 74.5035 70.8491 74.4063C70.8768 74.3086 70.9213 74.2338 70.9826 74.1817C71.0439 74.1291 71.1248 74.1028 71.2254 74.1028C71.3208 74.1028 71.3995 74.1288 71.4613 74.1809C71.5232 74.2323 71.5691 74.3069 71.5992 74.4046C71.6293 74.5017 71.6443 74.6185 71.6443 74.755ZM70.9531 74.755C70.9531 74.8729 70.9621 74.9712 70.98 75.0498C70.9979 75.1284 71.0268 75.1874 71.0667 75.2267C71.1072 75.2655 71.1601 75.2848 71.2254 75.2848C71.2908 75.2848 71.3434 75.2655 71.3833 75.2267C71.4237 75.188 71.4529 75.1293 71.4709 75.0507C71.4894 74.9721 71.4986 74.8735 71.4986 74.755C71.4986 74.6388 71.4896 74.5416 71.4717 74.4636C71.4538 74.385 71.4249 74.326 71.385 74.2867C71.3451 74.2468 71.2919 74.2268 71.2254 74.2268C71.1589 74.2268 71.1058 74.2468 71.0659 74.2867C71.026 74.326 70.9971 74.385 70.9791 74.4636C70.9618 74.5416 70.9531 74.6388 70.9531 74.755Z" fill="#212121"/>
<rect x="14.8854" y="17.111" width="29.1261" height="7.58838" fill="url(#paint0_linear_7961_40189)" stroke="#C4AFED" stroke-width="0.222004"/>
<rect x="14.8854" y="24.6852" width="6.87835" height="7.82506" fill="url(#paint1_linear_7961_40189)" stroke="#C4AFED" stroke-width="0.222004"/>
<rect x="14.8854" y="32.4938" width="50.1905" height="7.58838" fill="url(#paint2_linear_7961_40189)" stroke="#C4AFED" stroke-width="0.222004"/>
<rect x="14.8854" y="40.068" width="25.3393" height="7.58838" fill="url(#paint3_linear_7961_40189)" stroke="#C4AFED" stroke-width="0.222004"/>
<rect x="14.8854" y="47.6423" width="42.6168" height="7.82506" fill="url(#paint4_linear_7961_40189)" stroke="#C4AFED" stroke-width="0.222004"/>
<rect x="14.8854" y="55.4548" width="16.8188" height="7.58838" fill="url(#paint5_linear_7961_40189)" stroke="#C4AFED" stroke-width="0.222004"/>
<rect x="14.8854" y="63.0251" width="65.3379" height="7.58838" fill="url(#paint6_linear_7961_40189)" stroke="#C4AFED" stroke-width="0.222004"/>
<path d="M12.6072 21.2227H12.4667V20.3242C12.4667 20.2901 12.4667 20.2609 12.4667 20.2366C12.4672 20.2118 12.4678 20.1892 12.4684 20.169C12.4696 20.1482 12.471 20.1271 12.4727 20.1057C12.4548 20.1242 12.4381 20.1401 12.4224 20.1534C12.4068 20.1661 12.3875 20.182 12.3643 20.2011L12.2195 20.3173L12.1441 20.2193L12.4875 19.9548H12.6072V21.2227Z" fill="#212121"/>
<path d="M12.902 28.9922H12.0712V28.8716L12.4103 28.5274C12.4733 28.4638 12.5262 28.4071 12.569 28.3574C12.6124 28.3077 12.6453 28.2588 12.6679 28.2108C12.6904 28.1623 12.7017 28.1091 12.7017 28.0513C12.7017 27.9796 12.6803 27.9249 12.6375 27.8874C12.5953 27.8492 12.5395 27.8301 12.4701 27.8301C12.4094 27.8301 12.3557 27.8405 12.3088 27.8614C12.262 27.8822 12.214 27.9117 12.1649 27.9498L12.0877 27.8527C12.1212 27.8244 12.1577 27.7992 12.197 27.7772C12.2369 27.7553 12.2794 27.7379 12.3244 27.7252C12.3701 27.7125 12.4187 27.7061 12.4701 27.7061C12.5482 27.7061 12.6155 27.7197 12.6722 27.7469C12.7289 27.7741 12.7725 27.8128 12.8031 27.8631C12.8344 27.9134 12.85 27.9732 12.85 28.0426C12.85 28.1097 12.8367 28.1721 12.8101 28.2299C12.7835 28.2872 12.7462 28.3441 12.6982 28.4008C12.6502 28.4568 12.5941 28.5164 12.53 28.5794L12.2542 28.8543V28.8604H12.902V28.9922Z" fill="#212121"/>
<path d="M12.8552 35.5708C12.8552 35.6275 12.8442 35.6766 12.8222 35.7183C12.8003 35.7599 12.7696 35.794 12.7303 35.8206C12.691 35.8466 12.6447 35.8648 12.5915 35.8752V35.8822C12.6921 35.8949 12.7676 35.9273 12.8179 35.9793C12.8688 36.0313 12.8942 36.0995 12.8942 36.1839C12.8942 36.2574 12.8769 36.3224 12.8422 36.3791C12.8081 36.4357 12.7554 36.4802 12.6843 36.5126C12.6138 36.5444 12.5233 36.5603 12.4129 36.5603C12.3458 36.5603 12.2837 36.5548 12.2265 36.5438C12.1698 36.5334 12.1155 36.5158 12.0634 36.4909V36.3557C12.116 36.3817 12.1733 36.4022 12.2351 36.4172C12.297 36.4317 12.3568 36.4389 12.4146 36.4389C12.5303 36.4389 12.6138 36.4161 12.6653 36.3704C12.7167 36.3241 12.7424 36.2611 12.7424 36.1813C12.7424 36.1264 12.728 36.0822 12.6991 36.0487C12.6708 36.0146 12.6297 35.9897 12.5759 35.9741C12.5227 35.9579 12.4586 35.9498 12.3834 35.9498H12.2568V35.8267H12.3843C12.4531 35.8267 12.5115 35.8165 12.5595 35.7963C12.6074 35.7761 12.6439 35.7477 12.6687 35.7113C12.6942 35.6743 12.7069 35.6307 12.7069 35.5804C12.7069 35.5162 12.6855 35.4668 12.6427 35.4321C12.5999 35.3968 12.5418 35.3792 12.4684 35.3792C12.4233 35.3792 12.3823 35.3838 12.3453 35.3931C12.3083 35.4023 12.2736 35.415 12.2412 35.4312C12.2088 35.4474 12.1764 35.4662 12.1441 35.4876L12.0712 35.3887C12.1175 35.3529 12.1738 35.3219 12.2403 35.2959C12.3068 35.2699 12.3823 35.2569 12.4667 35.2569C12.5962 35.2569 12.6933 35.2864 12.758 35.3454C12.8228 35.4043 12.8552 35.4795 12.8552 35.5708Z" fill="#212121"/>
<path d="M12.9653 44.0185H12.7754V44.3125H12.6349V44.0185H12.0218V43.8971L12.6254 43.0377H12.7754V43.8884H12.9653V44.0185ZM12.6349 43.8884V43.4739C12.6349 43.4421 12.6352 43.4135 12.6358 43.3881C12.6364 43.362 12.6372 43.3381 12.6384 43.3161C12.6395 43.2935 12.6404 43.2721 12.641 43.2519C12.6421 43.2317 12.643 43.2117 12.6436 43.1921H12.6366C12.6257 43.2152 12.6129 43.2398 12.5985 43.2658C12.5846 43.2912 12.5704 43.3141 12.556 43.3343L12.1649 43.8884H12.6349Z" fill="#212121"/>
<path d="M12.4719 51.3068C12.558 51.3068 12.6329 51.3215 12.6965 51.351C12.7601 51.3799 12.8092 51.4221 12.8439 51.4776C12.8792 51.5331 12.8968 51.6004 12.8968 51.6796C12.8968 51.7664 12.878 51.8412 12.8404 51.9043C12.8029 51.9667 12.7488 52.015 12.6783 52.0491C12.6077 52.0826 12.5233 52.0994 12.425 52.0994C12.3591 52.0994 12.2979 52.0936 12.2412 52.082C12.1845 52.0705 12.1368 52.0531 12.0981 52.03V51.893C12.1403 51.9184 12.1915 51.9387 12.2516 51.9537C12.3117 51.9687 12.3701 51.9762 12.4268 51.9762C12.491 51.9762 12.547 51.9661 12.595 51.9459C12.6436 51.9251 12.6812 51.8938 12.7078 51.8522C12.7349 51.81 12.7485 51.7571 12.7485 51.6935C12.7485 51.6091 12.7225 51.5441 12.6705 51.4984C12.619 51.4522 12.5375 51.429 12.4259 51.429C12.3901 51.429 12.3508 51.4319 12.308 51.4377C12.2652 51.4435 12.2299 51.4498 12.2022 51.4568L12.1293 51.4091L12.1779 50.8142H12.8083V50.946H12.301L12.2689 51.3284C12.2909 51.3238 12.3192 51.3192 12.3539 51.3146C12.3886 51.3094 12.4279 51.3068 12.4719 51.3068Z" fill="#212121"/>
<path d="M12.0842 59.0869C12.0842 59.0106 12.0894 58.936 12.0998 58.8632C12.1108 58.7903 12.129 58.7227 12.1545 58.6602C12.1799 58.5972 12.2146 58.542 12.2585 58.4946C12.3025 58.4472 12.3571 58.4102 12.4224 58.3836C12.4883 58.3564 12.5673 58.3428 12.6592 58.3428C12.6852 58.3428 12.7132 58.3443 12.7433 58.3472C12.7734 58.3495 12.7982 58.3535 12.8179 58.3593V58.4833C12.7965 58.4758 12.7719 58.4703 12.7442 58.4669C12.717 58.4634 12.6895 58.4616 12.6618 58.4616C12.5543 58.4616 12.4696 58.4851 12.4077 58.5319C12.3464 58.5787 12.3022 58.6423 12.275 58.7227C12.2478 58.8025 12.2322 58.8924 12.2282 58.9924H12.2377C12.2556 58.9635 12.2785 58.9375 12.3062 58.9143C12.334 58.8906 12.3675 58.8718 12.4068 58.858C12.4467 58.8441 12.493 58.8371 12.5456 58.8371C12.6196 58.8371 12.684 58.8522 12.739 58.8822C12.7945 58.9123 12.8373 58.956 12.8673 59.0132C12.898 59.0704 12.9133 59.1398 12.9133 59.2213C12.9133 59.3086 12.8971 59.3841 12.8647 59.4477C12.8323 59.5113 12.7861 59.5604 12.726 59.5951C12.6664 59.6292 12.5953 59.6463 12.5126 59.6463C12.4508 59.6463 12.3938 59.6344 12.3418 59.6107C12.2898 59.587 12.2444 59.5517 12.2056 59.5049C12.1675 59.4581 12.1377 59.4 12.1163 59.3306C12.0949 59.2606 12.0842 59.1794 12.0842 59.0869ZM12.5109 59.5248C12.5895 59.5248 12.6525 59.4997 12.6999 59.4494C12.7474 59.3991 12.7711 59.3231 12.7711 59.2213C12.7711 59.1381 12.75 59.0722 12.7078 59.0236C12.6655 58.975 12.602 58.9508 12.517 58.9508C12.4592 58.9508 12.4089 58.9629 12.3661 58.9872C12.3233 59.0109 12.29 59.0409 12.2663 59.0774C12.2426 59.1138 12.2308 59.1508 12.2308 59.1884C12.2308 59.2265 12.2363 59.2653 12.2473 59.3046C12.2588 59.3439 12.2762 59.3803 12.2993 59.4138C12.3224 59.4474 12.3516 59.4743 12.3869 59.4945C12.4222 59.5147 12.4635 59.5248 12.5109 59.5248Z" fill="#212121"/>
<path d="M12.2351 67.1758L12.7554 66.0397H12.0643V65.9079H12.9098V66.0189L12.393 67.1758H12.2351Z" fill="#212121"/>
<rect x="42.3522" y="18.0016" width="8.21808" height="5.77211" rx="2.88606" fill="white" fill-opacity="0.6"/>
<rect x="42.3522" y="18.0016" width="8.21808" height="5.77211" rx="2.88606" stroke="#C4AFED" stroke-width="0.222004"/>
<path d="M46.5457 21.8867H45.0433V21.6181L45.6185 21.0353C45.7297 20.922 45.8213 20.8244 45.8931 20.7424C45.965 20.6595 46.0181 20.5811 46.0525 20.5072C46.0879 20.4334 46.1056 20.3529 46.1056 20.2659C46.1056 20.1587 46.0748 20.0777 46.013 20.0231C45.9513 19.9675 45.8699 19.9396 45.7687 19.9396C45.6726 19.9396 45.5836 19.9589 45.5016 19.9973C45.4207 20.0347 45.3367 20.0884 45.2497 20.1582L45.0539 19.9229C45.1156 19.8703 45.1814 19.8223 45.2512 19.7788C45.322 19.7353 45.4009 19.7009 45.4879 19.6756C45.575 19.6493 45.6741 19.6361 45.7854 19.6361C45.926 19.6361 46.0474 19.6614 46.1496 19.712C46.2518 19.7616 46.3302 19.8309 46.3848 19.9199C46.4405 20.0089 46.4683 20.1126 46.4683 20.231C46.4683 20.3504 46.4445 20.4607 46.397 20.5618C46.3494 20.663 46.2817 20.7632 46.1936 20.8623C46.1056 20.9605 46.0009 21.0672 45.8795 21.1825L45.4955 21.5574V21.5741H46.5457V21.8867ZM48.3244 20.7758C48.3244 20.9549 48.3102 21.1153 48.2819 21.2569C48.2545 21.3975 48.211 21.5169 48.1513 21.6151C48.0917 21.7132 48.0137 21.7881 47.9176 21.8397C47.8215 21.8913 47.7052 21.9171 47.5686 21.9171C47.3976 21.9171 47.2565 21.872 47.1452 21.782C47.0339 21.6909 46.9514 21.5604 46.8978 21.3905C46.8442 21.2195 46.8174 21.0146 46.8174 20.7758C46.8174 20.5371 46.8416 20.3327 46.8902 20.1627C46.9398 19.9917 47.0197 19.8607 47.13 19.7697C47.2403 19.6786 47.3865 19.6331 47.5686 19.6331C47.7406 19.6331 47.8822 19.6786 47.9935 19.7697C48.1058 19.8597 48.1888 19.9902 48.2424 20.1612C48.297 20.3312 48.3244 20.536 48.3244 20.7758ZM47.177 20.7758C47.177 20.963 47.1892 21.1193 47.2135 21.2448C47.2388 21.3702 47.2802 21.4643 47.3379 21.527C47.3956 21.5888 47.4725 21.6196 47.5686 21.6196C47.6647 21.6196 47.7416 21.5888 47.7993 21.527C47.8569 21.4653 47.8984 21.3717 47.9237 21.2463C47.95 21.1208 47.9632 20.964 47.9632 20.7758C47.9632 20.5897 47.9505 20.4339 47.9252 20.3084C47.8999 20.183 47.8584 20.0889 47.8008 20.0261C47.7431 19.9624 47.6657 19.9305 47.5686 19.9305C47.4715 19.9305 47.3941 19.9624 47.3364 20.0261C47.2797 20.0889 47.2388 20.183 47.2135 20.3084C47.1892 20.4339 47.177 20.5897 47.177 20.7758Z" fill="#212121"/>
<rect x="19.8678" y="25.5485" width="6.21808" height="5.77211" rx="2.88606" fill="white" fill-opacity="0.6"/>
<rect x="19.8678" y="25.5485" width="6.21808" height="5.77211" rx="2.88606" stroke="#C4AFED" stroke-width="0.222004"/>
<path d="M23.0918 28.0465C23.2345 28.0465 23.3599 28.0723 23.4682 28.1239C23.5774 28.1745 23.6624 28.2494 23.7231 28.3485C23.7838 28.4466 23.8142 28.567 23.8142 28.7097C23.8142 28.8655 23.7813 29.0001 23.7155 29.1134C23.6498 29.2257 23.5531 29.3122 23.4257 29.3729C23.2982 29.4336 23.1429 29.4639 22.9598 29.4639C22.8434 29.4639 22.7347 29.4538 22.6335 29.4336C22.5333 29.4134 22.4468 29.383 22.374 29.3425V29.0208C22.4498 29.0633 22.5409 29.0982 22.6471 29.1255C22.7534 29.1518 22.8551 29.165 22.9522 29.165C23.0554 29.165 23.1439 29.1498 23.2178 29.1194C23.2916 29.0891 23.3483 29.0426 23.3877 28.9798C23.4282 28.9171 23.4484 28.8377 23.4484 28.7416C23.4484 28.6141 23.4075 28.5159 23.3255 28.4471C23.2446 28.3773 23.1176 28.3424 22.9446 28.3424C22.8839 28.3424 22.8191 28.348 22.7503 28.3591C22.6825 28.3692 22.6259 28.3804 22.5804 28.3925L22.424 28.2999L22.5075 27.2149H23.6609V27.529H22.8217L22.7731 28.0814C22.8095 28.0733 22.853 28.0657 22.9036 28.0586C22.9542 28.0505 23.0169 28.0465 23.0918 28.0465Z" fill="#212121"/>
<rect x="63.4167" y="33.318" width="8.21808" height="5.77211" rx="2.88606" fill="white" fill-opacity="0.6"/>
<rect x="63.4167" y="33.318" width="8.21808" height="5.77211" rx="2.88606" stroke="#C4AFED" stroke-width="0.222004"/>
<path d="M67.5252 35.4913C67.5252 35.5914 67.5049 35.6784 67.4645 35.7523C67.424 35.8261 67.3684 35.8869 67.2975 35.9344C67.2277 35.9809 67.1468 36.0143 67.0547 36.0346V36.0452C67.2318 36.0674 67.3653 36.1231 67.4554 36.2121C67.5464 36.3012 67.592 36.419 67.592 36.5657C67.592 36.6942 67.5611 36.8091 67.4994 36.9102C67.4377 37.0104 67.3431 37.0893 67.2156 37.147C67.0881 37.2046 66.9242 37.2335 66.7239 37.2335C66.6035 37.2335 66.4917 37.2239 66.3885 37.2046C66.2863 37.1854 66.1892 37.1546 66.0971 37.1121V36.7949C66.1912 36.8414 66.2914 36.8773 66.3976 36.9026C66.5038 36.9279 66.6045 36.9406 66.6996 36.9406C66.8848 36.9406 67.0168 36.9062 67.0957 36.8374C67.1746 36.7676 67.2141 36.6715 67.2141 36.549C67.2141 36.4701 67.1933 36.4054 67.1519 36.3548C67.1114 36.3042 67.0481 36.2663 66.9622 36.241C66.8772 36.2157 66.7674 36.203 66.6328 36.203H66.4371V35.9162H66.6343C66.7628 35.9162 66.866 35.901 66.9439 35.8707C67.0218 35.8393 67.078 35.7963 67.1124 35.7417C67.1478 35.687 67.1655 35.6233 67.1655 35.5504C67.1655 35.4553 67.1347 35.3815 67.0729 35.3289C67.0112 35.2753 66.9197 35.2484 66.7982 35.2484C66.7234 35.2484 66.6551 35.257 66.5934 35.2742C66.5327 35.2914 66.4765 35.3132 66.4249 35.3395C66.3733 35.3658 66.3242 35.3941 66.2777 35.4245L66.1062 35.1771C66.1902 35.1144 66.2904 35.0613 66.4067 35.0178C66.5231 34.9743 66.6586 34.9525 66.8134 34.9525C67.0411 34.9525 67.2166 35.0016 67.34 35.0997C67.4635 35.1968 67.5252 35.3274 67.5252 35.4913ZM69.4692 36.716H69.1688V37.2031H68.8167V36.716H67.8075V36.4458L68.8212 34.9783H69.1688V36.42H69.4692V36.716ZM68.8167 36.42V35.8691C68.8167 35.8236 68.8172 35.7776 68.8182 35.731C68.8202 35.6835 68.8222 35.638 68.8243 35.5945C68.8263 35.551 68.8283 35.511 68.8303 35.4746C68.8323 35.4371 68.8339 35.4063 68.8349 35.382H68.8227C68.8035 35.4225 68.7823 35.4639 68.759 35.5064C68.7357 35.5479 68.7109 35.5884 68.6846 35.6278L68.1383 36.42H68.8167Z" fill="#212121"/>
<rect x="38.3288" y="41.0876" width="8.21808" height="5.77211" rx="2.88606" fill="white" fill-opacity="0.6"/>
<rect x="38.3288" y="41.0876" width="8.21808" height="5.77211" rx="2.88606" stroke="#C4AFED" stroke-width="0.222004"/>
<path d="M42.0685 44.9727H41.7104V43.5446C41.7104 43.497 41.7109 43.4495 41.7119 43.4019C41.7129 43.3544 41.7139 43.3078 41.7149 43.2623C41.7169 43.2168 41.7195 43.1733 41.7225 43.1318C41.7013 43.1551 41.6749 43.1804 41.6436 43.2077C41.6132 43.235 41.5809 43.2633 41.5465 43.2927L41.2915 43.496L41.1124 43.2699L41.7711 42.7539H42.0685V44.9727ZM44.2979 43.6994C44.2979 43.8309 44.2883 43.9599 44.269 44.0864C44.2508 44.2128 44.2185 44.3312 44.1719 44.4415C44.1264 44.5518 44.0632 44.6494 43.9822 44.7344C43.9023 44.8184 43.8011 44.8841 43.6787 44.9317C43.5563 44.9792 43.4086 45.003 43.2356 45.003C43.192 45.003 43.1415 45.0005 43.0838 44.9954C43.0271 44.9914 42.9806 44.9853 42.9442 44.9772V44.6798C42.9826 44.6909 43.0256 44.7 43.0732 44.7071C43.1217 44.7131 43.1698 44.7162 43.2173 44.7162C43.4045 44.7162 43.5502 44.6813 43.6544 44.6115C43.7596 44.5417 43.834 44.4455 43.8775 44.3231C43.922 44.2007 43.9473 44.0616 43.9534 43.9058H43.9352C43.9058 43.9543 43.8689 43.9989 43.8244 44.0393C43.7799 44.0788 43.7247 44.1107 43.659 44.1349C43.5932 44.1582 43.5133 44.1698 43.4192 44.1698C43.2917 44.1698 43.1804 44.143 43.0853 44.0894C42.9912 44.0358 42.9179 43.9579 42.8653 43.8557C42.8137 43.7525 42.7879 43.6286 42.7879 43.4839C42.7879 43.3271 42.8177 43.192 42.8774 43.0787C42.9371 42.9654 43.0216 42.8784 43.1308 42.8177C43.2401 42.7559 43.3686 42.7251 43.5163 42.7251C43.6276 42.7251 43.7303 42.7453 43.8244 42.7858C43.9195 42.8252 44.0025 42.8859 44.0733 42.9679C44.1441 43.0488 44.1992 43.1505 44.2387 43.2729C44.2782 43.3943 44.2979 43.5365 44.2979 43.6994ZM43.5209 43.0195C43.4086 43.0195 43.317 43.0574 43.2462 43.1333C43.1754 43.2082 43.1399 43.3235 43.1399 43.4793C43.1399 43.6058 43.1703 43.706 43.231 43.7798C43.2917 43.8537 43.3848 43.8906 43.5102 43.8906C43.5973 43.8906 43.6721 43.8729 43.7348 43.8375C43.7986 43.8011 43.8477 43.755 43.8821 43.6994C43.9175 43.6437 43.9352 43.5871 43.9352 43.5294C43.9352 43.4697 43.9266 43.41 43.9094 43.3503C43.8932 43.2906 43.8679 43.236 43.8335 43.1864C43.7991 43.1369 43.7556 43.0969 43.703 43.0665C43.6514 43.0352 43.5907 43.0195 43.5209 43.0195Z" fill="#212121"/>
<rect x="55.8434" y="48.6383" width="8.21808" height="5.77211" rx="2.88606" fill="white" fill-opacity="0.6"/>
<rect x="55.8434" y="48.6383" width="8.21808" height="5.77211" rx="2.88606" stroke="#C4AFED" stroke-width="0.222004"/>
<path d="M60.0369 52.5234H58.5345V52.2548L59.1097 51.6721C59.221 51.5587 59.3125 51.4611 59.3844 51.3792C59.4562 51.2962 59.5093 51.2178 59.5437 51.1439C59.5791 51.0701 59.5968 50.9896 59.5968 50.9026C59.5968 50.7954 59.566 50.7144 59.5042 50.6598C59.4425 50.6042 59.3611 50.5763 59.2599 50.5763C59.1638 50.5763 59.0748 50.5956 58.9928 50.634C58.9119 50.6714 58.8279 50.7251 58.7409 50.7949L58.5451 50.5597C58.6068 50.507 58.6726 50.459 58.7424 50.4155C58.8132 50.372 58.8921 50.3376 58.9792 50.3123C59.0662 50.286 59.1653 50.2728 59.2766 50.2728C59.4172 50.2728 59.5386 50.2981 59.6408 50.3487C59.743 50.3983 59.8214 50.4676 59.8761 50.5566C59.9317 50.6457 59.9595 50.7494 59.9595 50.8677C59.9595 50.9871 59.9358 51.0974 59.8882 51.1986C59.8406 51.2997 59.7729 51.3999 59.6848 51.4991C59.5968 51.5972 59.4921 51.7039 59.3707 51.8193L58.9867 52.1941V52.2108H60.0369V52.5234ZM61.8125 51.2502C61.8125 51.3817 61.8029 51.5107 61.7837 51.6372C61.7655 51.7636 61.7331 51.882 61.6866 51.9923C61.641 52.1026 61.5778 52.2002 61.4969 52.2852C61.4169 52.3691 61.3158 52.4349 61.1933 52.4825C61.0709 52.53 60.9232 52.5538 60.7502 52.5538C60.7067 52.5538 60.6561 52.5513 60.5984 52.5462C60.5418 52.5422 60.4952 52.5361 60.4588 52.528V52.2305C60.4973 52.2417 60.5403 52.2508 60.5878 52.2579C60.6364 52.2639 60.6844 52.267 60.732 52.267C60.9192 52.267 61.0649 52.2321 61.1691 52.1622C61.2743 52.0924 61.3486 51.9963 61.3922 51.8739C61.4367 51.7515 61.462 51.6124 61.468 51.4566H61.4498C61.4205 51.5051 61.3836 51.5496 61.339 51.5901C61.2945 51.6296 61.2394 51.6614 61.1736 51.6857C61.1079 51.709 61.0279 51.7206 60.9338 51.7206C60.8064 51.7206 60.6951 51.6938 60.6 51.6402C60.5059 51.5866 60.4325 51.5087 60.3799 51.4065C60.3283 51.3033 60.3025 51.1793 60.3025 51.0347C60.3025 50.8778 60.3324 50.7428 60.392 50.6295C60.4517 50.5161 60.5362 50.4291 60.6455 50.3684C60.7548 50.3067 60.8832 50.2759 61.031 50.2759C61.1423 50.2759 61.2449 50.2961 61.339 50.3366C61.4341 50.376 61.5171 50.4367 61.5879 50.5187C61.6587 50.5996 61.7139 50.7013 61.7533 50.8237C61.7928 50.9451 61.8125 51.0873 61.8125 51.2502ZM61.0355 50.5703C60.9232 50.5703 60.8316 50.6082 60.7608 50.6841C60.69 50.759 60.6546 50.8743 60.6546 51.0301C60.6546 51.1566 60.6849 51.2567 60.7456 51.3306C60.8064 51.4045 60.8994 51.4414 61.0249 51.4414C61.1119 51.4414 61.1868 51.4237 61.2495 51.3883C61.3132 51.3518 61.3623 51.3058 61.3967 51.2502C61.4321 51.1945 61.4498 51.1379 61.4498 51.0802C61.4498 51.0205 61.4412 50.9608 61.424 50.9011C61.4078 50.8414 61.3825 50.7868 61.3481 50.7372C61.3137 50.6876 61.2702 50.6477 61.2176 50.6173C61.166 50.586 61.1053 50.5703 61.0355 50.5703Z" fill="#212121"/>
<rect x="30.0456" y="56.4079" width="8.21808" height="5.77211" rx="2.88606" fill="white" fill-opacity="0.6"/>
<rect x="30.0456" y="56.4079" width="8.21808" height="5.77211" rx="2.88606" stroke="#C4AFED" stroke-width="0.222004"/>
<path d="M33.7853 60.293H33.4272V58.8649C33.4272 58.8173 33.4277 58.7698 33.4287 58.7222C33.4297 58.6747 33.4307 58.6282 33.4317 58.5826C33.4337 58.5371 33.4363 58.4936 33.4393 58.4521C33.418 58.4754 33.3917 58.5007 33.3604 58.528C33.33 58.5553 33.2977 58.5836 33.2633 58.613L33.0083 58.8163L32.8292 58.5902L33.4879 58.0742H33.7853V60.293ZM35.5639 60.293H35.2058V58.8649C35.2058 58.8173 35.2063 58.7698 35.2073 58.7222C35.2083 58.6747 35.2093 58.6282 35.2103 58.5826C35.2124 58.5371 35.2149 58.4936 35.2179 58.4521C35.1967 58.4754 35.1704 58.5007 35.139 58.528C35.1087 58.5553 35.0763 58.5836 35.0419 58.613L34.7869 58.8163L34.6079 58.5902L35.2665 58.0742H35.5639V60.293Z" fill="#212121"/>
<rect x="72.8844" y="63.9548" width="8.21808" height="5.77211" rx="2.88606" fill="white" fill-opacity="0.6"/>
<rect x="72.8844" y="63.9548" width="8.21808" height="5.77211" rx="2.88606" stroke="#C4AFED" stroke-width="0.222004"/>
<path d="M77.1584 67.3527H76.8579V67.8398H76.5058V67.3527H75.4966V67.0826L76.5104 65.615H76.8579V67.0568H77.1584V67.3527ZM76.5058 67.0568V66.5059C76.5058 66.4603 76.5063 66.4143 76.5073 66.3678C76.5093 66.3202 76.5114 66.2747 76.5134 66.2312C76.5154 66.1877 76.5174 66.1477 76.5195 66.1113C76.5215 66.0739 76.523 66.043 76.524 66.0187H76.5119C76.4927 66.0592 76.4714 66.1007 76.4481 66.1432C76.4249 66.1846 76.4001 66.2251 76.3738 66.2646L75.8274 67.0568H76.5058ZM78.1084 66.4527C78.2511 66.4527 78.3765 66.4785 78.4848 66.5301C78.594 66.5807 78.679 66.6556 78.7397 66.7548C78.8004 66.8529 78.8308 66.9733 78.8308 67.1159C78.8308 67.2718 78.7979 67.4063 78.7321 67.5196C78.6664 67.6319 78.5698 67.7184 78.4423 67.7791C78.3148 67.8398 78.1595 67.8702 77.9764 67.8702C77.86 67.8702 77.7513 67.8601 77.6501 67.8398C77.5499 67.8196 77.4634 67.7893 77.3906 67.7488V67.4271C77.4665 67.4695 77.5575 67.5045 77.6637 67.5318C77.77 67.5581 77.8717 67.5712 77.9688 67.5712C78.072 67.5712 78.1605 67.5561 78.2344 67.5257C78.3082 67.4953 78.3649 67.4488 78.4043 67.3861C78.4448 67.3234 78.465 67.2439 78.465 67.1478C78.465 67.0203 78.4241 66.9222 78.3421 66.8534C78.2612 66.7836 78.1342 66.7487 77.9612 66.7487C77.9005 66.7487 77.8357 66.7542 77.7669 66.7654C77.6992 66.7755 77.6425 66.7866 77.597 66.7988L77.4407 66.7062L77.5241 65.6211H78.6775V65.9352H77.8383L77.7897 66.4877C77.8261 66.4796 77.8696 66.472 77.9202 66.4649C77.9708 66.4568 78.0335 66.4527 78.1084 66.4527Z" fill="#212121"/>
<defs>
<linearGradient id="paint0_linear_7961_40189" x1="44.1225" y1="20.9052" x2="14.7744" y2="20.9052" gradientUnits="userSpaceOnUse">
<stop stop-color="#9080D6"/>
<stop offset="1" stop-color="#F5F0FF"/>
</linearGradient>
<linearGradient id="paint1_linear_7961_40189" x1="21.8748" y1="28.5977" x2="14.7744" y2="28.5977" gradientUnits="userSpaceOnUse">
<stop stop-color="#9080D6"/>
<stop offset="1" stop-color="#F5F0FF"/>
</linearGradient>
<linearGradient id="paint2_linear_7961_40189" x1="65.1869" y1="36.288" x2="14.7744" y2="36.288" gradientUnits="userSpaceOnUse">
<stop stop-color="#9080D6"/>
<stop offset="1" stop-color="#F5F0FF"/>
</linearGradient>
<linearGradient id="paint3_linear_7961_40189" x1="40.3357" y1="43.8622" x2="14.7744" y2="43.8622" gradientUnits="userSpaceOnUse">
<stop stop-color="#9080D6"/>
<stop offset="1" stop-color="#F5F0FF"/>
</linearGradient>
<linearGradient id="paint4_linear_7961_40189" x1="57.6132" y1="51.5548" x2="14.7744" y2="51.5548" gradientUnits="userSpaceOnUse">
<stop stop-color="#9080D6"/>
<stop offset="1" stop-color="#F5F0FF"/>
</linearGradient>
<linearGradient id="paint5_linear_7961_40189" x1="31.8153" y1="59.2489" x2="14.7744" y2="59.2489" gradientUnits="userSpaceOnUse">
<stop stop-color="#9080D6"/>
<stop offset="1" stop-color="#F5F0FF"/>
</linearGradient>
<linearGradient id="paint6_linear_7961_40189" x1="80.3343" y1="66.8193" x2="14.7744" y2="66.8193" gradientUnits="userSpaceOnUse">
<stop stop-color="#9080D6"/>
<stop offset="1" stop-color="#F5F0FF"/>
</linearGradient>
</defs>
</svg>
