<svg width="92" height="92" viewBox="0 0 92 92" fill="none" xmlns="http://www.w3.org/2000/svg">
<rect x="0.389831" y="0.389831" width="91.079" height="91.2203" rx="17.5424" stroke="#BEBEBE" stroke-width="0.779661"/>
<g clip-path="url(#clip0_7601_118969)">
<rect x="10.7227" y="16.2461" width="69.652" height="4.56735" rx="2.28367" fill="#F4F4F4"/>
<path d="M11.6426 22.0117C11.5526 22.0117 11.4716 22.0273 11.3995 22.0585C11.3281 22.089 11.2672 22.1336 11.2166 22.1923C11.1668 22.2503 11.1285 22.3205 11.1018 22.403C11.075 22.4856 11.0616 22.5785 11.0616 22.6818C11.0616 22.8186 11.0828 22.9375 11.1252 23.0386C11.1683 23.139 11.2322 23.2167 11.317 23.2717C11.4025 23.3267 11.5092 23.3542 11.637 23.3542C11.7099 23.3542 11.7783 23.3483 11.8422 23.3364C11.9069 23.3237 11.9697 23.3081 12.0306 23.2895V23.4546C11.9712 23.4769 11.9087 23.4932 11.8433 23.5036C11.7779 23.5148 11.7002 23.5203 11.6103 23.5203C11.4445 23.5203 11.3058 23.4862 11.1943 23.4178C11.0836 23.3486 11.0003 23.2512 10.9446 23.1256C10.8895 23 10.862 22.8517 10.862 22.6807C10.862 22.5573 10.8791 22.4447 10.9133 22.3428C10.9483 22.2402 10.9988 22.1518 11.065 22.0774C11.1319 22.0031 11.2137 21.9459 11.3103 21.9057C11.4077 21.8648 11.5192 21.8444 11.6448 21.8444C11.7273 21.8444 11.8069 21.8526 11.8834 21.8689C11.96 21.8853 12.0292 21.9087 12.0909 21.9392L12.015 22.0997C11.963 22.076 11.9058 22.0555 11.8433 22.0384C11.7816 22.0206 11.7147 22.0117 11.6426 22.0117ZM12.9115 22.2536C12.9361 22.2536 12.9617 22.2551 12.9885 22.2581C13.0152 22.2603 13.039 22.2637 13.0599 22.2681L13.0364 22.4398C13.0164 22.4346 12.9941 22.4305 12.9695 22.4276C12.945 22.4246 12.922 22.4231 12.9004 22.4231C12.8513 22.4231 12.8049 22.4332 12.761 22.4532C12.7179 22.4726 12.68 22.5008 12.6473 22.538C12.6146 22.5744 12.5889 22.6186 12.5703 22.6707C12.5518 22.722 12.5425 22.7792 12.5425 22.8424V23.498H12.3562V22.2759H12.5101L12.5302 22.5012H12.538C12.5633 22.4558 12.5938 22.4146 12.6294 22.3774C12.6651 22.3395 12.7064 22.3094 12.7532 22.2871C12.8008 22.2648 12.8536 22.2536 12.9115 22.2536ZM14.3444 22.8848C14.3444 22.9851 14.3314 23.0747 14.3054 23.1535C14.2794 23.2323 14.2418 23.2988 14.1928 23.3531C14.1437 23.4074 14.0842 23.449 14.0144 23.478C13.9452 23.5062 13.8668 23.5203 13.7791 23.5203C13.6973 23.5203 13.6222 23.5062 13.5538 23.478C13.4862 23.449 13.4275 23.4074 13.3776 23.3531C13.3286 23.2988 13.2903 23.2323 13.2628 23.1535C13.236 23.0747 13.2227 22.9851 13.2227 22.8848C13.2227 22.7509 13.2453 22.6372 13.2907 22.5435C13.336 22.4491 13.4007 22.3774 13.4847 22.3283C13.5694 22.2785 13.6702 22.2536 13.7869 22.2536C13.8984 22.2536 13.9958 22.2785 14.079 22.3283C14.163 22.3781 14.2281 22.4502 14.2742 22.5447C14.321 22.6383 14.3444 22.7517 14.3444 22.8848ZM13.4144 22.8848C13.4144 22.9829 13.4275 23.068 13.4535 23.1401C13.4795 23.2122 13.5196 23.268 13.5739 23.3074C13.6282 23.3468 13.698 23.3665 13.7835 23.3665C13.8683 23.3665 13.9378 23.3468 13.9921 23.3074C14.0471 23.268 14.0876 23.2122 14.1136 23.1401C14.1396 23.068 14.1526 22.9829 14.1526 22.8848C14.1526 22.7874 14.1396 22.7034 14.1136 22.6327C14.0876 22.5614 14.0474 22.5064 13.9932 22.4677C13.9389 22.4291 13.8687 22.4097 13.7824 22.4097C13.6553 22.4097 13.562 22.4517 13.5025 22.5357C13.4438 22.6197 13.4144 22.7361 13.4144 22.8848ZM15.6591 23.4958L15.4417 22.7844C15.432 22.7539 15.4227 22.7242 15.4138 22.6952C15.4056 22.6655 15.3978 22.6372 15.3904 22.6104C15.3837 22.5829 15.3773 22.5577 15.3714 22.5346C15.3662 22.5108 15.3617 22.4904 15.358 22.4733H15.3502C15.3472 22.4904 15.3432 22.5108 15.3379 22.5346C15.3327 22.5577 15.3264 22.5829 15.319 22.6104C15.3123 22.638 15.3049 22.6669 15.2967 22.6974C15.2885 22.7272 15.2792 22.7573 15.2688 22.7877L15.0413 23.4958H14.8328L14.4961 22.2737H14.6879L14.864 22.9483C14.8759 22.9929 14.8871 23.0371 14.8975 23.081C14.9086 23.1241 14.9179 23.165 14.9254 23.2037C14.9335 23.2416 14.9395 23.2747 14.9432 23.3029H14.9521C14.9566 23.2843 14.9614 23.262 14.9666 23.236C14.9726 23.21 14.9789 23.1825 14.9856 23.1535C14.993 23.1238 15.0008 23.0944 15.009 23.0654C15.0172 23.0357 15.0254 23.0078 15.0335 22.9818L15.2588 22.2737H15.4584L15.6758 22.9807C15.687 23.0163 15.6977 23.0535 15.7082 23.0922C15.7193 23.1308 15.7293 23.1684 15.7383 23.2048C15.7472 23.2405 15.7535 23.2724 15.7572 23.3007H15.7661C15.7691 23.2754 15.7747 23.2442 15.7829 23.207C15.791 23.1698 15.8003 23.129 15.8107 23.0844C15.8219 23.0398 15.8334 22.9944 15.8453 22.9483L16.0237 22.2737H16.2122L15.8743 23.4958H15.6591ZM16.8701 23.5203C16.7154 23.5203 16.5928 23.4676 16.5021 23.362C16.4121 23.2564 16.3672 23.0996 16.3672 22.8914C16.3672 22.6811 16.4133 22.5224 16.5054 22.4153C16.5976 22.3075 16.7203 22.2536 16.8734 22.2536C16.9381 22.2536 16.9946 22.2622 17.0429 22.2793C17.0912 22.2964 17.1328 22.3194 17.1678 22.3484C17.2027 22.3767 17.2321 22.409 17.2559 22.4454H17.2693C17.2663 22.4224 17.2633 22.3908 17.2603 22.3506C17.2574 22.3105 17.2559 22.2778 17.2559 22.2525V21.763H17.441V23.498H17.2916L17.2637 23.3241H17.2559C17.2328 23.3605 17.2035 23.3936 17.1678 23.4233C17.1328 23.4531 17.0908 23.4769 17.0418 23.4947C16.9935 23.5118 16.9362 23.5203 16.8701 23.5203ZM16.8991 23.3665C17.0299 23.3665 17.1224 23.3293 17.1767 23.255C17.231 23.1806 17.2581 23.0702 17.2581 22.9238V22.8903C17.2581 22.735 17.2321 22.6157 17.1801 22.5324C17.1288 22.4491 17.0351 22.4075 16.8991 22.4075C16.7853 22.4075 16.7002 22.4514 16.6437 22.5391C16.5872 22.6261 16.559 22.745 16.559 22.8959C16.559 23.0461 16.5868 23.162 16.6426 23.2438C16.6991 23.3256 16.7846 23.3665 16.8991 23.3665ZM19.1515 22.0117C19.0616 22.0117 18.9805 22.0273 18.9084 22.0585C18.8371 22.089 18.7761 22.1336 18.7255 22.1923C18.6757 22.2503 18.6375 22.3205 18.6107 22.403C18.5839 22.4856 18.5706 22.5785 18.5706 22.6818C18.5706 22.8186 18.5917 22.9375 18.6341 23.0386C18.6772 23.139 18.7412 23.2167 18.8259 23.2717C18.9114 23.3267 19.0181 23.3542 19.1459 23.3542C19.2188 23.3542 19.2872 23.3483 19.3511 23.3364C19.4158 23.3237 19.4786 23.3081 19.5396 23.2895V23.4546C19.4801 23.4769 19.4176 23.4932 19.3522 23.5036C19.2868 23.5148 19.2091 23.5203 19.1192 23.5203C18.9534 23.5203 18.8148 23.4862 18.7032 23.4178C18.5925 23.3486 18.5092 23.2512 18.4535 23.1256C18.3985 23 18.371 22.8517 18.371 22.6807C18.371 22.5573 18.388 22.4447 18.4222 22.3428C18.4572 22.2402 18.5077 22.1518 18.5739 22.0774C18.6408 22.0031 18.7226 21.9459 18.8192 21.9057C18.9166 21.8648 19.0281 21.8444 19.1537 21.8444C19.2362 21.8444 19.3158 21.8526 19.3924 21.8689C19.4689 21.8853 19.5381 21.9087 19.5998 21.9392L19.5239 22.0997C19.4719 22.076 19.4147 22.0555 19.3522 22.0384C19.2905 22.0206 19.2236 22.0117 19.1515 22.0117ZM20.9189 22.8848C20.9189 22.9851 20.9059 23.0747 20.8799 23.1535C20.8539 23.2323 20.8163 23.2988 20.7672 23.3531C20.7182 23.4074 20.6587 23.449 20.5888 23.478C20.5197 23.5062 20.4413 23.5203 20.3536 23.5203C20.2718 23.5203 20.1967 23.5062 20.1283 23.478C20.0607 23.449 20.0019 23.4074 19.9521 23.3531C19.9031 23.2988 19.8648 23.2323 19.8373 23.1535C19.8105 23.0747 19.7971 22.9851 19.7971 22.8848C19.7971 22.7509 19.8198 22.6372 19.8652 22.5435C19.9105 22.4491 19.9752 22.3774 20.0592 22.3283C20.1439 22.2785 20.2446 22.2536 20.3614 22.2536C20.4729 22.2536 20.5703 22.2785 20.6535 22.3283C20.7375 22.3781 20.8026 22.4502 20.8486 22.5447C20.8955 22.6383 20.9189 22.7517 20.9189 22.8848ZM19.9889 22.8848C19.9889 22.9829 20.0019 23.068 20.028 23.1401C20.054 23.2122 20.0941 23.268 20.1484 23.3074C20.2026 23.3468 20.2725 23.3665 20.358 23.3665C20.4428 23.3665 20.5123 23.3468 20.5665 23.3074C20.6215 23.268 20.6621 23.2122 20.6881 23.1401C20.7141 23.068 20.7271 22.9829 20.7271 22.8848C20.7271 22.7874 20.7141 22.7034 20.6881 22.6327C20.6621 22.5614 20.6219 22.5064 20.5676 22.4677C20.5134 22.4291 20.4431 22.4097 20.3569 22.4097C20.2298 22.4097 20.1365 22.4517 20.077 22.5357C20.0183 22.6197 19.9889 22.7361 19.9889 22.8848ZM22.2481 22.2759V23.498H22.0964L22.0697 23.3263H22.0596C22.0343 23.3687 22.0016 23.4044 21.9615 23.4334C21.9213 23.4624 21.876 23.4839 21.8255 23.498C21.7756 23.5129 21.7225 23.5203 21.666 23.5203C21.5694 23.5203 21.4883 23.5047 21.4229 23.4735C21.3575 23.4423 21.3081 23.394 21.2746 23.3286C21.2419 23.2631 21.2255 23.1791 21.2255 23.0765V22.2759H21.4129V23.0632C21.4129 23.165 21.4359 23.2412 21.482 23.2918C21.5281 23.3416 21.5983 23.3665 21.6928 23.3665C21.7835 23.3665 21.8556 23.3494 21.9091 23.3152C21.9634 23.281 22.0024 23.2308 22.0262 23.1646C22.05 23.0977 22.0618 23.016 22.0618 22.9193V22.2759H22.2481ZM23.2182 22.2536C23.3631 22.2536 23.4728 22.2893 23.5471 22.3607C23.6215 22.4313 23.6586 22.545 23.6586 22.7019V23.498H23.4758V22.7141C23.4758 22.6123 23.4523 22.5361 23.4055 22.4856C23.3594 22.435 23.2884 22.4097 23.1925 22.4097C23.0572 22.4097 22.9621 22.448 22.9071 22.5246C22.8521 22.6012 22.8246 22.7123 22.8246 22.858V23.498H22.6395V22.2759H22.7889L22.8168 22.4521H22.8268C22.8528 22.409 22.8859 22.3729 22.926 22.3439C22.9662 22.3142 23.0111 22.2919 23.061 22.277C23.1108 22.2614 23.1632 22.2536 23.2182 22.2536ZM24.4347 23.3687C24.4652 23.3687 24.4964 23.3661 24.5284 23.3609C24.5604 23.3557 24.5864 23.3494 24.6064 23.3419V23.4858C24.5849 23.4954 24.5548 23.5036 24.5161 23.5103C24.4782 23.517 24.441 23.5203 24.4046 23.5203C24.3399 23.5203 24.2812 23.5092 24.2284 23.4869C24.1757 23.4639 24.1333 23.4252 24.1013 23.3709C24.0701 23.3167 24.0545 23.2416 24.0545 23.1457V22.4209H23.8805V22.3306L24.0556 22.2581L24.1292 21.9927H24.2407V22.2759H24.5986V22.4209H24.2407V23.1401C24.2407 23.2167 24.2582 23.2739 24.2931 23.3118C24.3288 23.3497 24.376 23.3687 24.4347 23.3687ZM25.0391 22.2759V23.498H24.854V22.2759H25.0391ZM24.9488 21.8187C24.9793 21.8187 25.0053 21.8288 25.0268 21.8489C25.0491 21.8682 25.0603 21.8987 25.0603 21.9403C25.0603 21.9812 25.0491 22.0117 25.0268 22.0317C25.0053 22.0518 24.9793 22.0618 24.9488 22.0618C24.9168 22.0618 24.89 22.0518 24.8685 22.0317C24.8477 22.0117 24.8373 21.9812 24.8373 21.9403C24.8373 21.8987 24.8477 21.8682 24.8685 21.8489C24.89 21.8288 24.9168 21.8187 24.9488 21.8187ZM26.0103 22.2536C26.1553 22.2536 26.2649 22.2893 26.3393 22.3607C26.4136 22.4313 26.4508 22.545 26.4508 22.7019V23.498H26.2679V22.7141C26.2679 22.6123 26.2445 22.5361 26.1977 22.4856C26.1516 22.435 26.0806 22.4097 25.9847 22.4097C25.8494 22.4097 25.7542 22.448 25.6992 22.5246C25.6442 22.6012 25.6167 22.7123 25.6167 22.858V23.498H25.4316V22.2759H25.581L25.6089 22.4521H25.6189C25.645 22.409 25.678 22.3729 25.7182 22.3439C25.7583 22.3142 25.8033 22.2919 25.8531 22.277C25.9029 22.2614 25.9553 22.2536 26.0103 22.2536ZM27.1733 24.0467C27.0128 24.0467 26.889 24.0166 26.802 23.9563C26.7151 23.8969 26.6716 23.8132 26.6716 23.7055C26.6716 23.6289 26.6957 23.5635 26.744 23.5092C26.7931 23.4549 26.8608 23.4189 26.947 23.401C26.915 23.3862 26.8875 23.3639 26.8645 23.3341C26.8422 23.3044 26.831 23.2702 26.831 23.2315C26.831 23.1869 26.8433 23.1479 26.8678 23.1145C26.8931 23.0803 26.9314 23.0476 26.9827 23.0163C26.9187 22.9903 26.8667 22.9465 26.8266 22.8848C26.7872 22.8223 26.7675 22.7498 26.7675 22.6673C26.7675 22.5796 26.7857 22.5049 26.8221 22.4432C26.8585 22.3807 26.9113 22.3332 26.9804 22.3005C27.0496 22.2677 27.1332 22.2514 27.2313 22.2514C27.2529 22.2514 27.2745 22.2525 27.296 22.2547C27.3183 22.2562 27.3395 22.2588 27.3596 22.2625C27.3796 22.2655 27.3971 22.2692 27.412 22.2737H27.8312V22.393L27.606 22.4209C27.6283 22.4499 27.6469 22.4848 27.6618 22.5257C27.6766 22.5666 27.6841 22.6119 27.6841 22.6617C27.6841 22.7837 27.6428 22.8807 27.5603 22.9528C27.4778 23.0241 27.3644 23.0598 27.2202 23.0598C27.186 23.0598 27.151 23.0568 27.1154 23.0509C27.0789 23.071 27.0511 23.0933 27.0317 23.1178C27.0132 23.1423 27.0039 23.1706 27.0039 23.2026C27.0039 23.2263 27.0109 23.2453 27.025 23.2594C27.0399 23.2735 27.0611 23.284 27.0886 23.2906C27.1161 23.2966 27.1492 23.2996 27.1878 23.2996H27.4031C27.5361 23.2996 27.638 23.3274 27.7086 23.3832C27.78 23.4389 27.8156 23.5203 27.8156 23.6274C27.8156 23.7627 27.7606 23.8664 27.6506 23.9385C27.5406 24.0106 27.3815 24.0467 27.1733 24.0467ZM27.1789 23.9017C27.28 23.9017 27.3637 23.8913 27.4298 23.8705C27.4967 23.8504 27.5465 23.821 27.5792 23.7824C27.6127 23.7445 27.6294 23.6991 27.6294 23.6464C27.6294 23.5973 27.6183 23.5601 27.596 23.5348C27.5737 23.5103 27.541 23.494 27.4978 23.4858C27.4547 23.4769 27.4019 23.4724 27.3395 23.4724H27.1276C27.0726 23.4724 27.0247 23.4809 26.9838 23.498C26.9429 23.5151 26.9113 23.5404 26.889 23.5739C26.8674 23.6073 26.8567 23.649 26.8567 23.6988C26.8567 23.7649 26.8845 23.8151 26.9403 23.8493C26.9961 23.8842 27.0756 23.9017 27.1789 23.9017ZM27.2269 22.9249C27.3153 22.9249 27.3819 22.9026 27.4265 22.858C27.4711 22.8134 27.4934 22.7483 27.4934 22.6629C27.4934 22.5714 27.4707 22.503 27.4254 22.4577C27.38 22.4116 27.3131 22.3885 27.2246 22.3885C27.1399 22.3885 27.0745 22.4123 27.0284 22.4599C26.983 22.5067 26.9604 22.5755 26.9604 22.6662C26.9604 22.7495 26.9834 22.8134 27.0295 22.858C27.0756 22.9026 27.1414 22.9249 27.2269 22.9249Z" fill="#212121"/>
<rect x="10.7797" y="16.3032" width="17.0134" height="4.45316" rx="2.22658" fill="url(#paint0_linear_7601_118969)" stroke="#F4F4F4" stroke-width="0.114184"/>
<rect x="10.7227" y="26.7539" width="69.652" height="4.56735" rx="2.28367" fill="#F4F4F4"/>
<path d="M11.1352 34.0059H10.9457V32.3756H11.8533V32.5429H11.1352V33.1406H11.8099V33.3067H11.1352V34.0059ZM12.5547 32.7637C12.7004 32.7637 12.8086 32.7964 12.8792 32.8618C12.9498 32.9272 12.9851 33.0317 12.9851 33.1751V34.0059H12.8502L12.8145 33.8252H12.8056C12.7714 33.8698 12.7357 33.9074 12.6986 33.9378C12.6614 33.9676 12.6183 33.9902 12.5692 34.0059C12.5209 34.0207 12.4614 34.0282 12.3908 34.0282C12.3165 34.0282 12.2503 34.0152 12.1923 33.9891C12.1351 33.9631 12.0897 33.9237 12.0563 33.8709C12.0236 33.8182 12.0072 33.7513 12.0072 33.6702C12.0072 33.5483 12.0555 33.4546 12.1522 33.3892C12.2488 33.3238 12.396 33.2881 12.5938 33.2822L12.8045 33.2733V33.1985C12.8045 33.093 12.7818 33.019 12.7365 32.9766C12.6911 32.9343 12.6272 32.9131 12.5447 32.9131C12.4808 32.9131 12.4198 32.9224 12.3618 32.941C12.3038 32.9595 12.2488 32.9815 12.1968 33.0068L12.1399 32.8663C12.1949 32.838 12.2581 32.8138 12.3295 32.7938C12.4008 32.7737 12.4759 32.7637 12.5547 32.7637ZM12.8023 33.4037L12.6161 33.4115C12.4637 33.4175 12.3562 33.4424 12.2938 33.4862C12.2314 33.5301 12.2001 33.5922 12.2001 33.6725C12.2001 33.7423 12.2213 33.794 12.2637 33.8274C12.3061 33.8609 12.3622 33.8776 12.4321 33.8776C12.5406 33.8776 12.6294 33.8475 12.6986 33.7873C12.7677 33.7271 12.8023 33.6368 12.8023 33.5163V33.4037ZM13.856 34.0282C13.746 34.0282 13.649 34.0055 13.565 33.9601C13.481 33.9148 13.4156 33.8457 13.3687 33.7527C13.3219 33.6598 13.2985 33.5427 13.2985 33.4015C13.2985 33.2536 13.323 33.1328 13.3721 33.0391C13.4219 32.9447 13.4903 32.8748 13.5772 32.8295C13.6642 32.7841 13.7631 32.7614 13.8739 32.7614C13.9348 32.7614 13.9935 32.7678 14.05 32.7804C14.1073 32.7923 14.1541 32.8075 14.1905 32.8261L14.1348 32.9811C14.0976 32.9662 14.0545 32.9529 14.0054 32.941C13.9571 32.9291 13.9118 32.9231 13.8694 32.9231C13.7847 32.9231 13.714 32.9413 13.6575 32.9778C13.6018 33.0142 13.5598 33.0677 13.5315 33.1383C13.504 33.209 13.4903 33.2959 13.4903 33.3993C13.4903 33.4981 13.5037 33.5825 13.5304 33.6524C13.5579 33.7223 13.5984 33.7758 13.652 33.813C13.7062 33.8494 13.7739 33.8676 13.8549 33.8676C13.9196 33.8676 13.9779 33.8609 14.03 33.8475C14.082 33.8334 14.1292 33.817 14.1716 33.7985V33.9635C14.1307 33.9843 14.085 34.0003 14.0344 34.0114C13.9846 34.0226 13.9252 34.0282 13.856 34.0282ZM14.9321 32.7614C15.0361 32.7614 15.1253 32.7845 15.1997 32.8306C15.274 32.8767 15.3309 32.9413 15.3703 33.0246C15.4097 33.1071 15.4294 33.2037 15.4294 33.3145V33.4294H14.5853C14.5875 33.5728 14.6232 33.6821 14.6923 33.7572C14.7615 33.8323 14.8588 33.8698 14.9845 33.8698C15.0618 33.8698 15.1302 33.8628 15.1896 33.8486C15.2491 33.8345 15.3108 33.8137 15.3747 33.7862V33.949C15.313 33.9765 15.2517 33.9966 15.1908 34.0092C15.1305 34.0218 15.0592 34.0282 14.9767 34.0282C14.8592 34.0282 14.7566 34.0044 14.6689 33.9568C14.5819 33.9085 14.5143 33.8379 14.466 33.7449C14.4176 33.652 14.3935 33.5383 14.3935 33.4037C14.3935 33.2721 14.4154 33.1584 14.4593 33.0625C14.5039 32.9659 14.5663 32.8915 14.6466 32.8395C14.7276 32.7875 14.8228 32.7614 14.9321 32.7614ZM14.9298 32.9131C14.831 32.9131 14.7522 32.9454 14.6934 33.0101C14.6347 33.0748 14.5998 33.1651 14.5886 33.2811H15.2354C15.2346 33.2082 15.2231 33.1443 15.2008 33.0893C15.1792 33.0335 15.1462 32.9904 15.1016 32.9599C15.057 32.9287 14.9997 32.9131 14.9298 32.9131ZM17.0819 34.0059L16.5344 32.563H16.5255C16.5285 32.5934 16.5311 32.6306 16.5333 32.6745C16.5355 32.7183 16.5374 32.7663 16.5389 32.8183C16.5404 32.8696 16.5411 32.922 16.5411 32.9755V34.0059H16.3649V32.3756H16.6459L17.1622 33.7316H17.17L17.6941 32.3756H17.9729V34.0059H17.7855V32.9621C17.7855 32.9138 17.7863 32.8655 17.7878 32.8172C17.7893 32.7681 17.7911 32.722 17.7933 32.6789C17.7956 32.6351 17.7978 32.5971 17.8 32.5652H17.7911L17.2369 34.0059H17.0819ZM18.8482 32.7637C18.9939 32.7637 19.1021 32.7964 19.1727 32.8618C19.2433 32.9272 19.2786 33.0317 19.2786 33.1751V34.0059H19.1437L19.108 33.8252H19.0991C19.0649 33.8698 19.0292 33.9074 18.992 33.9378C18.9549 33.9676 18.9118 33.9902 18.8627 34.0059C18.8144 34.0207 18.7549 34.0282 18.6843 34.0282C18.6099 34.0282 18.5438 34.0152 18.4858 33.9891C18.4286 33.9631 18.3832 33.9237 18.3498 33.8709C18.3171 33.8182 18.3007 33.7513 18.3007 33.6702C18.3007 33.5483 18.349 33.4546 18.4457 33.3892C18.5423 33.3238 18.6895 33.2881 18.8872 33.2822L19.098 33.2733V33.1985C19.098 33.093 19.0753 33.019 19.03 32.9766C18.9846 32.9343 18.9207 32.9131 18.8382 32.9131C18.7742 32.9131 18.7133 32.9224 18.6553 32.941C18.5973 32.9595 18.5423 32.9815 18.4903 33.0068L18.4334 32.8663C18.4884 32.838 18.5516 32.8138 18.623 32.7938C18.6943 32.7737 18.7694 32.7637 18.8482 32.7637ZM19.0958 33.4037L18.9095 33.4115C18.7571 33.4175 18.6497 33.4424 18.5873 33.4862C18.5248 33.5301 18.4936 33.5922 18.4936 33.6725C18.4936 33.7423 18.5148 33.794 18.5572 33.8274C18.5995 33.8609 18.6557 33.8776 18.7255 33.8776C18.8341 33.8776 18.9229 33.8475 18.992 33.7873C19.0612 33.7271 19.0958 33.6368 19.0958 33.5163V33.4037ZM20.4506 33.6713C20.4506 33.7494 20.4309 33.8152 20.3915 33.8687C20.3528 33.9215 20.2971 33.9613 20.2242 33.988C20.1521 34.0148 20.0659 34.0282 19.9655 34.0282C19.88 34.0282 19.8061 34.0215 19.7436 34.0081C19.6812 33.9947 19.6265 33.9758 19.5797 33.9512V33.7806C19.6295 33.8051 19.689 33.8274 19.7581 33.8475C19.8272 33.8676 19.8979 33.8776 19.97 33.8776C20.0755 33.8776 20.1521 33.8605 20.1997 33.8263C20.2473 33.7921 20.271 33.7457 20.271 33.6869C20.271 33.6535 20.2614 33.6241 20.242 33.5989C20.2235 33.5728 20.1919 33.5479 20.1473 33.5241C20.1027 33.4996 20.041 33.4729 19.9622 33.4439C19.8841 33.4141 19.8165 33.3848 19.7592 33.3558C19.7027 33.326 19.6589 33.29 19.6276 33.2476C19.5972 33.2052 19.5819 33.1502 19.5819 33.0826C19.5819 32.9792 19.6236 32.9001 19.7068 32.8451C19.7908 32.7893 19.9008 32.7614 20.0369 32.7614C20.1105 32.7614 20.1792 32.7689 20.2432 32.7837C20.3078 32.7979 20.3681 32.8172 20.4238 32.8417L20.3614 32.99C20.3108 32.9685 20.2569 32.9503 20.1997 32.9354C20.1424 32.9205 20.0841 32.9131 20.0246 32.9131C19.9391 32.9131 19.8733 32.9272 19.8272 32.9555C19.7819 32.9837 19.7592 33.0224 19.7592 33.0714C19.7592 33.1093 19.7696 33.1406 19.7904 33.1651C19.812 33.1896 19.8462 33.2127 19.893 33.2342C19.9399 33.2558 20.0016 33.2811 20.0781 33.3101C20.1547 33.3383 20.2209 33.3677 20.2766 33.3981C20.3324 33.4279 20.3751 33.4643 20.4048 33.5074C20.4353 33.5498 20.4506 33.6044 20.4506 33.6713ZM20.9323 32.2708V33.1718C20.9323 33.2015 20.9312 33.2379 20.9289 33.2811C20.9267 33.3234 20.9248 33.361 20.9234 33.3937H20.9312C20.9468 33.3744 20.9694 33.3457 20.9992 33.3078C21.0297 33.2699 21.0553 33.2394 21.0761 33.2164L21.482 32.7837H21.6994L21.2077 33.3056L21.7351 34.0059H21.5121L21.0806 33.4271L20.9323 33.5632V34.0059H20.7483V32.2708H20.9323ZM23.8638 33.1751C23.8638 33.3587 23.8304 33.5123 23.7635 33.6357C23.6965 33.7583 23.5995 33.8509 23.4724 33.9133C23.346 33.975 23.1925 34.0059 23.0119 34.0059H22.5692V32.3756H23.061C23.2267 32.3756 23.3695 32.4061 23.4891 32.4671C23.6088 32.5273 23.701 32.6168 23.7657 32.7358C23.8311 32.854 23.8638 33.0004 23.8638 33.1751ZM23.6642 33.1818C23.6642 33.0354 23.6397 32.9146 23.5906 32.8194C23.5423 32.7243 23.4709 32.6536 23.3765 32.6076C23.2829 32.5607 23.168 32.5373 23.032 32.5373H22.7588V33.8431H22.9896C23.2141 33.8431 23.3825 33.7877 23.4947 33.6769C23.6077 33.5661 23.6642 33.4011 23.6642 33.1818ZM24.6689 32.7614C24.773 32.7614 24.8622 32.7845 24.9365 32.8306C25.0108 32.8767 25.0677 32.9413 25.1071 33.0246C25.1465 33.1071 25.1662 33.2037 25.1662 33.3145V33.4294H24.3221C24.3243 33.5728 24.36 33.6821 24.4292 33.7572C24.4983 33.8323 24.5957 33.8698 24.7213 33.8698C24.7986 33.8698 24.867 33.8628 24.9265 33.8486C24.9859 33.8345 25.0476 33.8137 25.1116 33.7862V33.949C25.0499 33.9765 24.9885 33.9966 24.9276 34.0092C24.8674 34.0218 24.796 34.0282 24.7135 34.0282C24.596 34.0282 24.4935 34.0044 24.4057 33.9568C24.3188 33.9085 24.2511 33.8379 24.2028 33.7449C24.1545 33.652 24.1303 33.5383 24.1303 33.4037C24.1303 33.2721 24.1522 33.1584 24.1961 33.0625C24.2407 32.9659 24.3031 32.8915 24.3834 32.8395C24.4645 32.7875 24.5596 32.7614 24.6689 32.7614ZM24.6667 32.9131C24.5678 32.9131 24.489 32.9454 24.4303 33.0101C24.3715 33.0748 24.3366 33.1651 24.3254 33.2811H24.9722C24.9714 33.2082 24.9599 33.1443 24.9376 33.0893C24.9161 33.0335 24.883 32.9904 24.8384 32.9599C24.7938 32.9287 24.7365 32.9131 24.6667 32.9131ZM25.8754 33.8765C25.9059 33.8765 25.9371 33.8739 25.9691 33.8687C26.001 33.8635 26.0271 33.8572 26.0471 33.8497V33.9936C26.0256 34.0033 25.9955 34.0114 25.9568 34.0181C25.9189 34.0248 25.8817 34.0282 25.8453 34.0282C25.7806 34.0282 25.7219 34.017 25.6691 33.9947C25.6163 33.9717 25.574 33.933 25.542 33.8787C25.5108 33.8245 25.4952 33.7494 25.4952 33.6535V32.9287H25.3212V32.8384L25.4963 32.7659L25.5699 32.5005H25.6814V32.7837H26.0393V32.9287H25.6814V33.6479C25.6814 33.7245 25.6989 33.7817 25.7338 33.8196C25.7695 33.8576 25.8167 33.8765 25.8754 33.8765ZM26.7652 32.7614C26.8693 32.7614 26.9585 32.7845 27.0329 32.8306C27.1072 32.8767 27.1641 32.9413 27.2035 33.0246C27.2429 33.1071 27.2626 33.2037 27.2626 33.3145V33.4294H26.4184C26.4207 33.5728 26.4564 33.6821 26.5255 33.7572C26.5946 33.8323 26.692 33.8698 26.8176 33.8698C26.895 33.8698 26.9633 33.8628 27.0228 33.8486C27.0823 33.8345 27.144 33.8137 27.2079 33.7862V33.949C27.1462 33.9765 27.0849 33.9966 27.0239 34.0092C26.9637 34.0218 26.8924 34.0282 26.8098 34.0282C26.6924 34.0282 26.5898 34.0044 26.5021 33.9568C26.4151 33.9085 26.3475 33.8379 26.2991 33.7449C26.2508 33.652 26.2267 33.5383 26.2267 33.4037C26.2267 33.2721 26.2486 33.1584 26.2924 33.0625C26.337 32.9659 26.3995 32.8915 26.4798 32.8395C26.5608 32.7875 26.656 32.7614 26.7652 32.7614ZM26.763 32.9131C26.6641 32.9131 26.5853 32.9454 26.5266 33.0101C26.4679 33.0748 26.4329 33.1651 26.4218 33.2811H27.0685C27.0678 33.2082 27.0563 33.1443 27.034 33.0893C27.0124 33.0335 26.9793 32.9904 26.9347 32.9599C26.8901 32.9287 26.8329 32.9131 26.763 32.9131ZM28.0665 34.0282C27.9565 34.0282 27.8595 34.0055 27.7755 33.9601C27.6915 33.9148 27.6261 33.8457 27.5792 33.7527C27.5324 33.6598 27.509 33.5427 27.509 33.4015C27.509 33.2536 27.5335 33.1328 27.5826 33.0391C27.6324 32.9447 27.7008 32.8748 27.7878 32.8295C27.8747 32.7841 27.9736 32.7614 28.0844 32.7614C28.1453 32.7614 28.204 32.7678 28.2605 32.7804C28.3178 32.7923 28.3646 32.8075 28.401 32.8261L28.3453 32.9811C28.3081 32.9662 28.265 32.9529 28.2159 32.941C28.1676 32.9291 28.1223 32.9231 28.0799 32.9231C27.9952 32.9231 27.9245 32.9413 27.868 32.9778C27.8123 33.0142 27.7703 33.0677 27.742 33.1383C27.7145 33.209 27.7008 33.2959 27.7008 33.3993C27.7008 33.4981 27.7142 33.5825 27.7409 33.6524C27.7684 33.7223 27.8089 33.7758 27.8625 33.813C27.9167 33.8494 27.9844 33.8676 28.0654 33.8676C28.1301 33.8676 28.1884 33.8609 28.2405 33.8475C28.2925 33.8334 28.3397 33.817 28.3821 33.7985V33.9635C28.3412 33.9843 28.2955 34.0003 28.2449 34.0114C28.1951 34.0226 28.1357 34.0282 28.0665 34.0282ZM29.0667 33.8765C29.0972 33.8765 29.1284 33.8739 29.1604 33.8687C29.1924 33.8635 29.2184 33.8572 29.2385 33.8497V33.9936C29.2169 34.0033 29.1868 34.0114 29.1481 34.0181C29.1102 34.0248 29.0731 34.0282 29.0366 34.0282C28.972 34.0282 28.9132 34.017 28.8605 33.9947C28.8077 33.9717 28.7653 33.933 28.7333 33.8787C28.7021 33.8245 28.6865 33.7494 28.6865 33.6535V32.9287H28.5126V32.8384L28.6876 32.7659L28.7612 32.5005H28.8727V32.7837H29.2307V32.9287H28.8727V33.6479C28.8727 33.7245 28.8902 33.7817 28.9251 33.8196C28.9608 33.8576 29.008 33.8765 29.0667 33.8765ZM29.6711 32.7837V34.0059H29.486V32.7837H29.6711ZM29.5808 32.3266C29.6113 32.3266 29.6373 32.3366 29.6589 32.3567C29.6812 32.376 29.6923 32.4065 29.6923 32.4481C29.6923 32.489 29.6812 32.5195 29.6589 32.5395C29.6373 32.5596 29.6113 32.5696 29.5808 32.5696C29.5488 32.5696 29.5221 32.5596 29.5005 32.5395C29.4797 32.5195 29.4693 32.489 29.4693 32.4481C29.4693 32.4065 29.4797 32.376 29.5005 32.3567C29.5221 32.3366 29.5488 32.3266 29.5808 32.3266ZM31.1174 33.3926C31.1174 33.4929 31.1044 33.5825 31.0783 33.6613C31.0523 33.7401 31.0148 33.8066 30.9657 33.8609C30.9167 33.9152 30.8572 33.9568 30.7873 33.9858C30.7182 34.014 30.6397 34.0282 30.552 34.0282C30.4703 34.0282 30.3952 34.014 30.3268 33.9858C30.2591 33.9568 30.2004 33.9152 30.1506 33.8609C30.1015 33.8066 30.0633 33.7401 30.0357 33.6613C30.009 33.5825 29.9956 33.4929 29.9956 33.3926C29.9956 33.2588 30.0183 33.145 30.0636 33.0514C30.109 32.9569 30.1736 32.8852 30.2576 32.8361C30.3424 32.7863 30.4431 32.7614 30.5598 32.7614C30.6713 32.7614 30.7687 32.7863 30.852 32.8361C30.936 32.886 31.001 32.9581 31.0471 33.0525C31.094 33.1461 31.1174 33.2595 31.1174 33.3926ZM30.1874 33.3926C30.1874 33.4907 30.2004 33.5758 30.2264 33.6479C30.2524 33.72 30.2926 33.7758 30.3469 33.8152C30.4011 33.8546 30.471 33.8743 30.5565 33.8743C30.6412 33.8743 30.7107 33.8546 30.765 33.8152C30.82 33.7758 30.8605 33.72 30.8865 33.6479C30.9126 33.5758 30.9256 33.4907 30.9256 33.3926C30.9256 33.2952 30.9126 33.2112 30.8865 33.1406C30.8605 33.0692 30.8204 33.0142 30.7661 32.9755C30.7119 32.9369 30.6416 32.9175 30.5554 32.9175C30.4283 32.9175 30.335 32.9595 30.2755 33.0436C30.2168 33.1276 30.1874 33.2439 30.1874 33.3926ZM32.0161 32.7614C32.1611 32.7614 32.2707 32.7971 32.3451 32.8685C32.4194 32.9391 32.4566 33.0528 32.4566 33.2097V34.0059H32.2737V33.222C32.2737 33.1201 32.2503 33.0439 32.2035 32.9934C32.1574 32.9428 32.0864 32.9175 31.9905 32.9175C31.8552 32.9175 31.76 32.9558 31.705 33.0324C31.65 33.109 31.6225 33.2201 31.6225 33.3658V34.0059H31.4374V32.7837H31.5868L31.6147 32.9599H31.6247C31.6507 32.9168 31.6838 32.8807 31.724 32.8518C31.7641 32.822 31.8091 32.7997 31.8589 32.7849C31.9087 32.7692 31.9611 32.7614 32.0161 32.7614Z" fill="#212121"/>
<rect x="10.7797" y="26.811" width="25.4629" height="4.45316" rx="2.22658" fill="url(#paint1_linear_7601_118969)" stroke="#F4F4F4" stroke-width="0.114184"/>
<rect x="10.7227" y="37.2598" width="69.652" height="4.56735" rx="2.28367" fill="#F4F4F4"/>
<path d="M12.1812 44.5117H11.9916V43.7434H11.1352V44.5117H10.9457V42.8815H11.1352V43.5762H11.9916V42.8815H12.1812V44.5117ZM13.0721 43.2673C13.1762 43.2673 13.2654 43.2903 13.3397 43.3364C13.4141 43.3825 13.4709 43.4472 13.5103 43.5305C13.5497 43.613 13.5694 43.7096 13.5694 43.8204V43.9352H12.7253C12.7276 44.0787 12.7632 44.188 12.8324 44.2631C12.9015 44.3381 12.9989 44.3757 13.1245 44.3757C13.2018 44.3757 13.2702 44.3686 13.3297 44.3545C13.3892 44.3404 13.4509 44.3196 13.5148 44.292V44.4548C13.4531 44.4824 13.3918 44.5024 13.3308 44.5151C13.2706 44.5277 13.1992 44.534 13.1167 44.534C12.9993 44.534 12.8967 44.5102 12.809 44.4627C12.722 44.4143 12.6543 44.3437 12.606 44.2508C12.5577 44.1579 12.5335 44.0441 12.5335 43.9096C12.5335 43.778 12.5555 43.6643 12.5993 43.5684C12.6439 43.4717 12.7064 43.3974 12.7867 43.3454C12.8677 43.2933 12.9628 43.2673 13.0721 43.2673ZM13.0699 43.4189C12.971 43.4189 12.8922 43.4513 12.8335 43.516C12.7748 43.5806 12.7398 43.671 12.7287 43.7869H13.3754C13.3747 43.7141 13.3632 43.6501 13.3409 43.5951C13.3193 43.5394 13.2862 43.4963 13.2416 43.4658C13.197 43.4346 13.1398 43.4189 13.0699 43.4189ZM14.3411 43.2695C14.4868 43.2695 14.5949 43.3022 14.6656 43.3677C14.7362 43.4331 14.7715 43.5375 14.7715 43.681V44.5117H14.6366L14.6009 44.3311H14.592C14.5578 44.3757 14.5221 44.4132 14.4849 44.4437C14.4477 44.4734 14.4046 44.4961 14.3556 44.5117C14.3072 44.5266 14.2478 44.534 14.1772 44.534C14.1028 44.534 14.0367 44.521 13.9787 44.495C13.9214 44.469 13.8761 44.4296 13.8426 44.3768C13.8099 44.324 13.7936 44.2571 13.7936 44.1761C13.7936 44.0542 13.8419 43.9605 13.9385 43.8951C14.0352 43.8297 14.1824 43.794 14.3801 43.788L14.5908 43.7791V43.7044C14.5908 43.5988 14.5682 43.5249 14.5228 43.4825C14.4775 43.4401 14.4136 43.4189 14.331 43.4189C14.2671 43.4189 14.2061 43.4282 14.1482 43.4468C14.0902 43.4654 14.0352 43.4873 13.9831 43.5126L13.9263 43.3721C13.9813 43.3439 14.0445 43.3197 14.1158 43.2996C14.1872 43.2796 14.2623 43.2695 14.3411 43.2695ZM14.5886 43.9096L14.4024 43.9174C14.25 43.9233 14.1426 43.9482 14.0801 43.9921C14.0177 44.036 13.9865 44.098 13.9865 44.1783C13.9865 44.2482 14.0077 44.2999 14.05 44.3333C14.0924 44.3668 14.1485 44.3835 14.2184 44.3835C14.3269 44.3835 14.4158 44.3534 14.4849 44.2932C14.5541 44.233 14.5886 44.1426 14.5886 44.0222V43.9096ZM15.5476 44.3824C15.5781 44.3824 15.6093 44.3798 15.6412 44.3746C15.6732 44.3694 15.6992 44.363 15.7193 44.3556V44.4995C15.6977 44.5091 15.6676 44.5173 15.629 44.524C15.5911 44.5307 15.5539 44.534 15.5175 44.534C15.4528 44.534 15.3941 44.5229 15.3413 44.5006C15.2885 44.4775 15.2461 44.4389 15.2142 44.3846C15.183 44.3303 15.1673 44.2553 15.1673 44.1594V43.4346H14.9934V43.3442L15.1685 43.2718L15.2421 43.0064H15.3536V43.2896H15.7115V43.4346H15.3536V44.1538C15.3536 44.2303 15.371 44.2876 15.406 44.3255C15.4417 44.3634 15.4889 44.3824 15.5476 44.3824ZM17.2938 43.2673C17.4283 43.2673 17.5298 43.3026 17.5982 43.3732C17.6666 43.4431 17.7008 43.5557 17.7008 43.7111V44.5117H17.5179V43.72C17.5179 43.6211 17.4964 43.5472 17.4532 43.4981C17.4109 43.4483 17.3477 43.4234 17.2637 43.4234C17.1455 43.4234 17.0596 43.4576 17.0061 43.526C16.9526 43.5944 16.9258 43.6951 16.9258 43.8282V44.5117H16.7418V43.72C16.7418 43.6539 16.7322 43.5988 16.7128 43.555C16.6943 43.5111 16.666 43.4784 16.6281 43.4569C16.5909 43.4346 16.5437 43.4234 16.4865 43.4234C16.4054 43.4234 16.3404 43.4401 16.2913 43.4736C16.2423 43.507 16.2066 43.5568 16.1843 43.623C16.1627 43.6884 16.152 43.7691 16.152 43.865V44.5117H15.9669V43.2896H16.1163L16.1441 43.4624H16.1542C16.1787 43.4201 16.2096 43.3844 16.2467 43.3554C16.2839 43.3264 16.3255 43.3045 16.3716 43.2896C16.4177 43.2747 16.4668 43.2673 16.5188 43.2673C16.6117 43.2673 16.6894 43.2848 16.7519 43.3197C16.8151 43.3539 16.8608 43.4063 16.889 43.4769H16.8991C16.9392 43.4063 16.9942 43.3539 17.0641 43.3197C17.134 43.2848 17.2105 43.2673 17.2938 43.2673ZM18.5382 43.2695C18.6839 43.2695 18.7921 43.3022 18.8627 43.3677C18.9333 43.4331 18.9686 43.5375 18.9686 43.681V44.5117H18.8337L18.798 44.3311H18.7891C18.7549 44.3757 18.7192 44.4132 18.6821 44.4437C18.6449 44.4734 18.6018 44.4961 18.5527 44.5117C18.5044 44.5266 18.4449 44.534 18.3743 44.534C18.3 44.534 18.2338 44.521 18.1758 44.495C18.1186 44.469 18.0732 44.4296 18.0398 44.3768C18.0071 44.324 17.9907 44.2571 17.9907 44.1761C17.9907 44.0542 18.039 43.9605 18.1357 43.8951C18.2323 43.8297 18.3795 43.794 18.5772 43.788L18.788 43.7791V43.7044C18.788 43.5988 18.7653 43.5249 18.72 43.4825C18.6746 43.4401 18.6107 43.4189 18.5282 43.4189C18.4642 43.4189 18.4033 43.4282 18.3453 43.4468C18.2873 43.4654 18.2323 43.4873 18.1803 43.5126L18.1234 43.3721C18.1784 43.3439 18.2416 43.3197 18.313 43.2996C18.3843 43.2796 18.4594 43.2695 18.5382 43.2695ZM18.7858 43.9096L18.5995 43.9174C18.4471 43.9233 18.3397 43.9482 18.2773 43.9921C18.2148 44.036 18.1836 44.098 18.1836 44.1783C18.1836 44.2482 18.2048 44.2999 18.2472 44.3333C18.2896 44.3668 18.3457 44.3835 18.4156 44.3835C18.5241 44.3835 18.6129 44.3534 18.6821 44.2932C18.7512 44.233 18.7858 44.1426 18.7858 44.0222V43.9096ZM19.9243 43.2673C20.0766 43.2673 20.1982 43.3197 20.2889 43.4245C20.3796 43.5293 20.4249 43.6869 20.4249 43.8973C20.4249 44.0363 20.4041 44.153 20.3625 44.2474C20.3208 44.3419 20.2621 44.4132 20.1863 44.4615C20.1112 44.5099 20.0224 44.534 19.9198 44.534C19.8551 44.534 19.7982 44.5255 19.7492 44.5084C19.7001 44.4913 19.6581 44.4682 19.6232 44.4392C19.5882 44.4102 19.5593 44.3787 19.5362 44.3445H19.5228C19.5251 44.3734 19.5277 44.4084 19.5306 44.4493C19.5343 44.4902 19.5362 44.5258 19.5362 44.5563V45.0581H19.35V43.2896H19.5028L19.5273 43.4702H19.5362C19.56 43.4331 19.589 43.3992 19.6232 43.3688C19.6574 43.3375 19.699 43.313 19.7481 43.2952C19.7979 43.2766 19.8566 43.2673 19.9243 43.2673ZM19.8919 43.4234C19.8072 43.4234 19.7388 43.4398 19.6867 43.4725C19.6354 43.5052 19.5979 43.5542 19.5741 43.6197C19.5503 43.6843 19.5377 43.7657 19.5362 43.8639V43.8995C19.5362 44.0029 19.5474 44.0902 19.5697 44.1616C19.5927 44.233 19.6302 44.2872 19.6823 44.3244C19.7351 44.3616 19.8057 44.3801 19.8941 44.3801C19.97 44.3801 20.0332 44.3597 20.0837 44.3188C20.1343 44.2779 20.1718 44.2211 20.1963 44.1482C20.2216 44.0746 20.2342 43.9902 20.2342 43.8951C20.2342 43.7509 20.206 43.6364 20.1495 43.5516C20.0937 43.4662 20.0079 43.4234 19.8919 43.4234Z" fill="#212121"/>
<rect x="10.7797" y="37.3169" width="62.2301" height="4.45316" rx="2.22658" fill="url(#paint2_linear_7601_118969)" stroke="#F4F4F4" stroke-width="0.114184"/>
<rect x="10.7227" y="47.7598" width="69.652" height="4.56735" rx="2.28367" fill="#F4F4F4"/>
<path d="M11.6627 55.0117L11.1152 53.5688H11.1062C11.1092 53.5993 11.1118 53.6365 11.114 53.6803C11.1163 53.7242 11.1181 53.7721 11.1196 53.8242C11.1211 53.8755 11.1219 53.9279 11.1219 53.9814V55.0117H10.9457V53.3815H11.2267L11.7429 54.7374H11.7508L12.2748 53.3815H12.5536V55.0117H12.3663V53.968C12.3663 53.9197 12.367 53.8714 12.3685 53.823C12.37 53.774 12.3719 53.7279 12.3741 53.6848C12.3763 53.6409 12.3785 53.603 12.3808 53.571H12.3719L11.8177 55.0117H11.6627ZM13.9809 53.7896V55.0117H13.8293L13.8025 54.84H13.7925C13.7672 54.8824 13.7345 54.9181 13.6943 54.947C13.6542 54.976 13.6088 54.9976 13.5583 55.0117C13.5085 55.0266 13.4553 55.034 13.3988 55.034C13.3022 55.034 13.2212 55.0184 13.1557 54.9872C13.0903 54.956 13.0409 54.9076 13.0074 54.8422C12.9747 54.7768 12.9584 54.6928 12.9584 54.5902V53.7896H13.1457V54.5768C13.1457 54.6787 13.1688 54.7549 13.2148 54.8054C13.2609 54.8552 13.3312 54.8801 13.4256 54.8801C13.5163 54.8801 13.5884 54.863 13.6419 54.8288C13.6962 54.7947 13.7352 54.7445 13.759 54.6783C13.7828 54.6114 13.7947 54.5296 13.7947 54.433V53.7896H13.9809ZM14.5585 55.0117H14.3723V53.2767H14.5585V55.0117ZM15.3446 54.8824C15.3751 54.8824 15.4063 54.8798 15.4383 54.8746C15.4703 54.8694 15.4963 54.863 15.5164 54.8556V54.9995C15.4948 55.0091 15.4647 55.0173 15.426 55.024C15.3881 55.0307 15.351 55.034 15.3145 55.034C15.2499 55.034 15.1911 55.0229 15.1384 55.0006C15.0856 54.9775 15.0432 54.9389 15.0112 54.8846C14.98 54.8303 14.9644 54.7553 14.9644 54.6594V53.9346H14.7904V53.8442L14.9655 53.7718L15.0391 53.5064H15.1506V53.7896H15.5086V53.9346H15.1506V54.6538C15.1506 54.7303 15.1681 54.7876 15.203 54.8255C15.2387 54.8634 15.2859 54.8824 15.3446 54.8824ZM15.949 53.7896V55.0117H15.7639V53.7896H15.949ZM15.8587 53.3324C15.8892 53.3324 15.9152 53.3425 15.9367 53.3625C15.959 53.3819 15.9702 53.4123 15.9702 53.454C15.9702 53.4948 15.959 53.5253 15.9367 53.5454C15.9152 53.5655 15.8892 53.5755 15.8587 53.5755C15.8267 53.5755 15.8 53.5655 15.7784 53.5454C15.7576 53.5253 15.7472 53.4948 15.7472 53.454C15.7472 53.4123 15.7576 53.3819 15.7784 53.3625C15.8 53.3425 15.8267 53.3324 15.8587 53.3324ZM16.5277 55.0117H16.3415V53.2767H16.5277V55.0117ZM17.3763 53.7695C17.522 53.7695 17.6302 53.8022 17.7008 53.8677C17.7714 53.9331 17.8067 54.0375 17.8067 54.181V55.0117H17.6718L17.6361 54.8311H17.6272C17.593 54.8757 17.5573 54.9132 17.5202 54.9437C17.483 54.9734 17.4399 54.9961 17.3908 55.0117C17.3425 55.0266 17.283 55.034 17.2124 55.034C17.1381 55.034 17.0719 55.021 17.0139 54.995C16.9567 54.969 16.9113 54.9296 16.8779 54.8768C16.8452 54.824 16.8288 54.7571 16.8288 54.6761C16.8288 54.5542 16.8771 54.4605 16.9738 54.3951C17.0704 54.3297 17.2176 54.294 17.4153 54.288L17.6261 54.2791V54.2044C17.6261 54.0988 17.6034 54.0249 17.5581 53.9825C17.5127 53.9401 17.4488 53.9189 17.3663 53.9189C17.3023 53.9189 17.2414 53.9282 17.1834 53.9468C17.1254 53.9654 17.0704 53.9873 17.0184 54.0126L16.9615 53.8721C17.0165 53.8439 17.0797 53.8197 17.1511 53.7996C17.2224 53.7796 17.2975 53.7695 17.3763 53.7695ZM17.6239 54.4096L17.4376 54.4174C17.2852 54.4233 17.1778 54.4482 17.1154 54.4921C17.0529 54.536 17.0217 54.598 17.0217 54.6783C17.0217 54.7482 17.0429 54.7999 17.0853 54.8333C17.1276 54.8668 17.1838 54.8835 17.2536 54.8835C17.3622 54.8835 17.451 54.8534 17.5202 54.7932C17.5893 54.733 17.6239 54.6426 17.6239 54.5222V54.4096ZM18.7668 53.7673C18.9118 53.7673 19.0214 53.803 19.0958 53.8743C19.1701 53.945 19.2073 54.0587 19.2073 54.2156V55.0117H19.0244V54.2278C19.0244 54.126 19.001 54.0498 18.9541 53.9992C18.908 53.9487 18.8371 53.9234 18.7412 53.9234C18.6059 53.9234 18.5107 53.9617 18.4557 54.0383C18.4007 54.1148 18.3732 54.226 18.3732 54.3717V55.0117H18.1881V53.7896H18.3375L18.3654 53.9658H18.3754C18.4014 53.9227 18.4345 53.8866 18.4747 53.8576C18.5148 53.8279 18.5598 53.8056 18.6096 53.7907C18.6594 53.7751 18.7118 53.7673 18.7668 53.7673ZM20.0592 53.7673C20.1632 53.7673 20.2525 53.7903 20.3268 53.8364C20.4011 53.8825 20.458 53.9472 20.4974 54.0305C20.5368 54.113 20.5565 54.2096 20.5565 54.3204V54.4352H19.7124C19.7146 54.5787 19.7503 54.688 19.8194 54.7631C19.8886 54.8381 19.986 54.8757 20.1116 54.8757C20.1889 54.8757 20.2573 54.8686 20.3168 54.8545C20.3762 54.8404 20.4379 54.8196 20.5019 54.792V54.9548C20.4402 54.9824 20.3788 55.0024 20.3179 55.0151C20.2577 55.0277 20.1863 55.034 20.1038 55.034C19.9863 55.034 19.8837 55.0102 19.796 54.9627C19.709 54.9143 19.6414 54.8437 19.5931 54.7508C19.5448 54.6579 19.5206 54.5441 19.5206 54.4096C19.5206 54.278 19.5425 54.1643 19.5864 54.0684C19.631 53.9717 19.6934 53.8974 19.7737 53.8454C19.8547 53.7933 19.9499 53.7673 20.0592 53.7673ZM20.0569 53.9189C19.9581 53.9189 19.8793 53.9513 19.8205 54.016C19.7618 54.0806 19.7269 54.171 19.7157 54.2869H20.3625C20.3617 54.2141 20.3502 54.1501 20.3279 54.0951C20.3063 54.0394 20.2733 53.9963 20.2287 53.9658C20.1841 53.9346 20.1268 53.9189 20.0569 53.9189ZM22.6305 53.3815L22.0451 55.0117H21.8544L21.269 53.3815H21.4675L21.8489 54.4553C21.8645 54.4984 21.8782 54.5397 21.8901 54.5791C21.9028 54.6185 21.9139 54.6564 21.9236 54.6928C21.9332 54.7292 21.9418 54.7645 21.9492 54.7987C21.9567 54.7645 21.9652 54.7292 21.9749 54.6928C21.9845 54.6556 21.9957 54.6174 22.0083 54.578C22.021 54.5378 22.0351 54.4958 22.0507 54.452L22.4298 53.3815H22.6305ZM23.2974 53.7673C23.4014 53.7673 23.4906 53.7903 23.565 53.8364C23.6393 53.8825 23.6962 53.9472 23.7356 54.0305C23.775 54.113 23.7947 54.2096 23.7947 54.3204V54.4352H22.9506C22.9528 54.5787 22.9885 54.688 23.0576 54.7631C23.1267 54.8381 23.2241 54.8757 23.3498 54.8757C23.4271 54.8757 23.4955 54.8686 23.5549 54.8545C23.6144 54.8404 23.6761 54.8196 23.74 54.792V54.9548C23.6783 54.9824 23.617 55.0024 23.556 55.0151C23.4958 55.0277 23.4245 55.034 23.342 55.034C23.2245 55.034 23.1219 55.0102 23.0342 54.9627C22.9472 54.9143 22.8796 54.8437 22.8313 54.7508C22.7829 54.6579 22.7588 54.5441 22.7588 54.4096C22.7588 54.278 22.7807 54.1643 22.8246 54.0684C22.8692 53.9717 22.9316 53.8974 23.0119 53.8454C23.0929 53.7933 23.1881 53.7673 23.2974 53.7673ZM23.2951 53.9189C23.1963 53.9189 23.1175 53.9513 23.0587 54.016C23 54.0806 22.9651 54.171 22.9539 54.2869H23.6007C23.5999 54.2141 23.5884 54.1501 23.5661 54.0951C23.5445 54.0394 23.5114 53.9963 23.4668 53.9658C23.4222 53.9346 23.365 53.9189 23.2951 53.9189ZM24.2942 53.2767V53.7952C24.2942 53.8249 24.2935 53.855 24.292 53.8855C24.2905 53.9152 24.2879 53.9427 24.2842 53.968H24.2965C24.3217 53.9249 24.3537 53.8888 24.3924 53.8598C24.4318 53.8301 24.4764 53.8078 24.5262 53.7929C24.576 53.7773 24.6287 53.7695 24.6845 53.7695C24.7826 53.7695 24.8644 53.7851 24.9298 53.8164C24.996 53.8476 25.0454 53.8959 25.0781 53.9613C25.1116 54.0267 25.1283 54.1115 25.1283 54.2156V55.0117H24.9454V54.2278C24.9454 54.126 24.922 54.0498 24.8752 53.9992C24.8291 53.9487 24.7581 53.9234 24.6622 53.9234C24.5715 53.9234 24.499 53.9409 24.4448 53.9758C24.3912 54.01 24.3526 54.0606 24.3288 54.1275C24.3057 54.1944 24.2942 54.2761 24.2942 54.3728V55.0117H24.1091V53.2767H24.2942ZM25.6948 53.7896V55.0117H25.5097V53.7896H25.6948ZM25.6044 53.3324C25.6349 53.3324 25.6609 53.3425 25.6825 53.3625C25.7048 53.3819 25.7159 53.4123 25.7159 53.454C25.7159 53.4948 25.7048 53.5253 25.6825 53.5454C25.6609 53.5655 25.6349 53.5755 25.6044 53.5755C25.5725 53.5755 25.5457 53.5655 25.5242 53.5454C25.5033 53.5253 25.4929 53.4948 25.4929 53.454C25.4929 53.4123 25.5033 53.3819 25.5242 53.3625C25.5457 53.3425 25.5725 53.3324 25.6044 53.3324ZM26.5768 55.034C26.4668 55.034 26.3698 55.0113 26.2858 54.966C26.2017 54.9207 26.1363 54.8515 26.0895 54.7586C26.0427 54.6657 26.0192 54.5486 26.0192 54.4073C26.0192 54.2594 26.0438 54.1386 26.0928 54.0449C26.1426 53.9505 26.211 53.8807 26.298 53.8353C26.385 53.79 26.4839 53.7673 26.5946 53.7673C26.6556 53.7673 26.7143 53.7736 26.7708 53.7863C26.828 53.7981 26.8749 53.8134 26.9113 53.832L26.8556 53.987C26.8184 53.9721 26.7753 53.9587 26.7262 53.9468C26.6779 53.9349 26.6325 53.929 26.5902 53.929C26.5054 53.929 26.4348 53.9472 26.3783 53.9836C26.3225 54.02 26.2805 54.0736 26.2523 54.1442C26.2248 54.2148 26.211 54.3018 26.211 54.4051C26.211 54.504 26.2244 54.5884 26.2512 54.6582C26.2787 54.7281 26.3192 54.7816 26.3727 54.8188C26.427 54.8552 26.4946 54.8734 26.5757 54.8734C26.6403 54.8734 26.6987 54.8668 26.7507 54.8534C26.8028 54.8393 26.85 54.8229 26.8924 54.8043V54.9693C26.8515 54.9902 26.8057 55.0061 26.7552 55.0173C26.7054 55.0284 26.6459 55.034 26.5768 55.034ZM27.3685 55.0117H27.1823V53.2767H27.3685V55.0117ZM28.2304 53.7673C28.3345 53.7673 28.4237 53.7903 28.4981 53.8364C28.5724 53.8825 28.6293 53.9472 28.6687 54.0305C28.7081 54.113 28.7278 54.2096 28.7278 54.3204V54.4352H27.8837C27.8859 54.5787 27.9216 54.688 27.9907 54.7631C28.0598 54.8381 28.1572 54.8757 28.2828 54.8757C28.3602 54.8757 28.4286 54.8686 28.488 54.8545C28.5475 54.8404 28.6092 54.8196 28.6731 54.792V54.9548C28.6114 54.9824 28.5501 55.0024 28.4891 55.0151C28.4289 55.0277 28.3576 55.034 28.275 55.034C28.1576 55.034 28.055 55.0102 27.9673 54.9627C27.8803 54.9143 27.8127 54.8437 27.7643 54.7508C27.716 54.6579 27.6919 54.5441 27.6919 54.4096C27.6919 54.278 27.7138 54.1643 27.7576 54.0684C27.8023 53.9717 27.8647 53.8974 27.945 53.8454C28.026 53.7933 28.1212 53.7673 28.2304 53.7673ZM28.2282 53.9189C28.1293 53.9189 28.0505 53.9513 27.9918 54.016C27.9331 54.0806 27.8981 54.171 27.887 54.2869H28.5337C28.533 54.2141 28.5215 54.1501 28.4992 54.0951C28.4776 54.0394 28.4445 53.9963 28.3999 53.9658C28.3553 53.9346 28.2981 53.9189 28.2282 53.9189ZM30.3602 53.5253C30.2703 53.5253 30.1893 53.5409 30.1171 53.5722C30.0458 53.6026 29.9848 53.6472 29.9343 53.706C29.8845 53.764 29.8462 53.8342 29.8194 53.9167C29.7927 53.9992 29.7793 54.0922 29.7793 54.1955C29.7793 54.3323 29.8005 54.4512 29.8428 54.5523C29.886 54.6527 29.9499 54.7303 30.0346 54.7854C30.1201 54.8404 30.2268 54.8679 30.3547 54.8679C30.4275 54.8679 30.4959 54.8619 30.5598 54.85C30.6245 54.8374 30.6873 54.8218 30.7483 54.8032V54.9682C30.6888 54.9905 30.6264 55.0069 30.5609 55.0173C30.4955 55.0284 30.4178 55.034 30.3279 55.034C30.1621 55.034 30.0235 54.9998 29.912 54.9314C29.8012 54.8623 29.7179 54.7649 29.6622 54.6393C29.6072 54.5137 29.5797 54.3653 29.5797 54.1944C29.5797 54.071 29.5968 53.9583 29.631 53.8565C29.6659 53.7539 29.7165 53.6655 29.7826 53.5911C29.8495 53.5168 29.9313 53.4595 30.0279 53.4194C30.1253 53.3785 30.2368 53.3581 30.3625 53.3581C30.445 53.3581 30.5245 53.3662 30.6011 53.3826C30.6777 53.3989 30.7468 53.4224 30.8085 53.4528L30.7327 53.6134C30.6806 53.5896 30.6234 53.5692 30.5609 53.5521C30.4992 53.5342 30.4323 53.5253 30.3602 53.5253ZM32.1276 54.3984C32.1276 54.4988 32.1146 54.5884 32.0886 54.6672C32.0626 54.746 32.025 54.8125 31.976 54.8668C31.9269 54.921 31.8674 54.9627 31.7976 54.9916C31.7284 55.0199 31.65 55.034 31.5623 55.034C31.4805 55.034 31.4054 55.0199 31.337 54.9916C31.2694 54.9627 31.2107 54.921 31.1609 54.8668C31.1118 54.8125 31.0735 54.746 31.046 54.6672C31.0192 54.5884 31.0059 54.4988 31.0059 54.3984C31.0059 54.2646 31.0285 54.1509 31.0739 54.0572C31.1192 53.9628 31.1839 53.8911 31.2679 53.842C31.3526 53.7922 31.4534 53.7673 31.5701 53.7673C31.6816 53.7673 31.779 53.7922 31.8622 53.842C31.9462 53.8918 32.0113 53.9639 32.0574 54.0583C32.1042 54.152 32.1276 54.2654 32.1276 54.3984ZM31.1977 54.3984C31.1977 54.4966 31.2107 54.5817 31.2367 54.6538C31.2627 54.7259 31.3028 54.7816 31.3571 54.821C31.4114 54.8604 31.4813 54.8801 31.5667 54.8801C31.6515 54.8801 31.721 54.8604 31.7753 54.821C31.8303 54.7816 31.8708 54.7259 31.8968 54.6538C31.9228 54.5817 31.9358 54.4966 31.9358 54.3984C31.9358 54.301 31.9228 54.217 31.8968 54.1464C31.8708 54.0751 31.8306 54.02 31.7764 53.9814C31.7221 53.9427 31.6519 53.9234 31.5656 53.9234C31.4385 53.9234 31.3452 53.9654 31.2857 54.0494C31.227 54.1334 31.1977 54.2498 31.1977 54.3984ZM33.4568 53.7896V55.0117H33.3051L33.2784 54.84H33.2683C33.2431 54.8824 33.2104 54.9181 33.1702 54.947C33.1301 54.976 33.0847 54.9976 33.0342 55.0117C32.9844 55.0266 32.9312 55.034 32.8747 55.034C32.7781 55.034 32.6971 55.0184 32.6316 54.9872C32.5662 54.956 32.5168 54.9076 32.4833 54.8422C32.4506 54.7768 32.4343 54.6928 32.4343 54.5902V53.7896H32.6216V54.5768C32.6216 54.6787 32.6446 54.7549 32.6907 54.8054C32.7368 54.8552 32.8071 54.8801 32.9015 54.8801C32.9922 54.8801 33.0643 54.863 33.1178 54.8288C33.1721 54.7947 33.2111 54.7445 33.2349 54.6783C33.2587 54.6114 33.2706 54.5296 33.2706 54.433V53.7896H33.4568ZM34.4269 53.7673C34.5719 53.7673 34.6815 53.803 34.7559 53.8743C34.8302 53.945 34.8674 54.0587 34.8674 54.2156V55.0117H34.6845V54.2278C34.6845 54.126 34.6611 54.0498 34.6142 53.9992C34.5682 53.9487 34.4972 53.9234 34.4013 53.9234C34.266 53.9234 34.1708 53.9617 34.1158 54.0383C34.0608 54.1148 34.0333 54.226 34.0333 54.3717V55.0117H33.8482V53.7896H33.9976L34.0255 53.9658H34.0355C34.0615 53.9227 34.0946 53.8866 34.1348 53.8576C34.1749 53.8279 34.2199 53.8056 34.2697 53.7907C34.3195 53.7751 34.3719 53.7673 34.4269 53.7673ZM35.6435 54.8824C35.6739 54.8824 35.7052 54.8798 35.7371 54.8746C35.7691 54.8694 35.7951 54.863 35.8152 54.8556V54.9995C35.7936 55.0091 35.7635 55.0173 35.7249 55.024C35.6869 55.0307 35.6498 55.034 35.6133 55.034C35.5487 55.034 35.4899 55.0229 35.4372 55.0006C35.3844 54.9775 35.342 54.9389 35.31 54.8846C35.2788 54.8303 35.2632 54.7553 35.2632 54.6594V53.9346H35.0893V53.8442L35.2643 53.7718L35.3379 53.5064H35.4494V53.7896H35.8074V53.9346H35.4494V54.6538C35.4494 54.7303 35.4669 54.7876 35.5018 54.8255C35.5375 54.8634 35.5847 54.8824 35.6435 54.8824ZM36.2478 53.7896V55.0117H36.0627V53.7896H36.2478ZM36.1575 53.3324C36.188 53.3324 36.214 53.3425 36.2356 53.3625C36.2579 53.3819 36.269 53.4123 36.269 53.454C36.269 53.4948 36.2579 53.5253 36.2356 53.5454C36.214 53.5655 36.188 53.5755 36.1575 53.5755C36.1255 53.5755 36.0988 53.5655 36.0772 53.5454C36.0564 53.5253 36.046 53.4948 36.046 53.454C36.046 53.4123 36.0564 53.3819 36.0772 53.3625C36.0988 53.3425 36.1255 53.3324 36.1575 53.3324ZM37.2191 53.7673C37.364 53.7673 37.4737 53.803 37.548 53.8743C37.6223 53.945 37.6595 54.0587 37.6595 54.2156V55.0117H37.4766V54.2278C37.4766 54.126 37.4532 54.0498 37.4064 53.9992C37.3603 53.9487 37.2893 53.9234 37.1934 53.9234C37.0581 53.9234 36.963 53.9617 36.908 54.0383C36.8529 54.1148 36.8254 54.226 36.8254 54.3717V55.0117H36.6403V53.7896H36.7898L36.8176 53.9658H36.8277C36.8537 53.9227 36.8868 53.8866 36.9269 53.8576C36.967 53.8279 37.012 53.8056 37.0618 53.7907C37.1116 53.7751 37.164 53.7673 37.2191 53.7673ZM38.3821 55.5603C38.2215 55.5603 38.0977 55.5302 38.0108 55.47C37.9238 55.4105 37.8803 55.3269 37.8803 55.2191C37.8803 55.1426 37.9045 55.0771 37.9528 55.0229C38.0018 54.9686 38.0695 54.9325 38.1557 54.9147C38.1238 54.8998 38.0962 54.8775 38.0732 54.8478C38.0509 54.8181 38.0398 54.7839 38.0398 54.7452C38.0398 54.7006 38.052 54.6616 38.0765 54.6281C38.1018 54.5939 38.1401 54.5612 38.1914 54.53C38.1275 54.504 38.0754 54.4601 38.0353 54.3984C37.9959 54.336 37.9762 54.2635 37.9762 54.181C37.9762 54.0933 37.9944 54.0186 38.0308 53.9569C38.0673 53.8944 38.12 53.8468 38.1892 53.8141C38.2583 53.7814 38.3419 53.7651 38.4401 53.7651C38.4616 53.7651 38.4832 53.7662 38.5047 53.7684C38.527 53.7699 38.5482 53.7725 38.5683 53.7762C38.5884 53.7792 38.6058 53.7829 38.6207 53.7874H39.04V53.9067L38.8147 53.9346C38.837 53.9635 38.8556 53.9985 38.8705 54.0394C38.8853 54.0803 38.8928 54.1256 38.8928 54.1754C38.8928 54.2973 38.8515 54.3943 38.769 54.4664C38.6865 54.5378 38.5731 54.5735 38.4289 54.5735C38.3947 54.5735 38.3598 54.5705 38.3241 54.5646C38.2877 54.5846 38.2598 54.6069 38.2405 54.6315C38.2219 54.656 38.2126 54.6843 38.2126 54.7162C38.2126 54.74 38.2196 54.759 38.2338 54.7731C38.2486 54.7872 38.2698 54.7976 38.2973 54.8043C38.3248 54.8103 38.3579 54.8132 38.3966 54.8132H38.6118C38.7448 54.8132 38.8467 54.8411 38.9173 54.8969C38.9887 54.9526 39.0244 55.034 39.0244 55.1411C39.0244 55.2764 38.9694 55.3801 38.8593 55.4522C38.7493 55.5243 38.5902 55.5603 38.3821 55.5603ZM38.3877 55.4154C38.4888 55.4154 38.5724 55.405 38.6385 55.3842C38.7055 55.3641 38.7553 55.3347 38.788 55.2961C38.8214 55.2582 38.8381 55.2128 38.8381 55.16C38.8381 55.111 38.827 55.0738 38.8047 55.0485C38.7824 55.024 38.7497 55.0076 38.7066 54.9995C38.6634 54.9905 38.6107 54.9861 38.5482 54.9861H38.3364C38.2814 54.9861 38.2334 54.9946 38.1925 55.0117C38.1516 55.0288 38.12 55.0541 38.0977 55.0875C38.0762 55.121 38.0654 55.1626 38.0654 55.2124C38.0654 55.2786 38.0933 55.3288 38.149 55.363C38.2048 55.3979 38.2843 55.4154 38.3877 55.4154ZM38.4356 54.4386C38.5241 54.4386 38.5906 54.4163 38.6352 54.3717C38.6798 54.3271 38.7021 54.262 38.7021 54.1765C38.7021 54.0851 38.6794 54.0167 38.6341 53.9714C38.5887 53.9253 38.5218 53.9022 38.4334 53.9022C38.3486 53.9022 38.2832 53.926 38.2371 53.9736C38.1918 54.0204 38.1691 54.0892 38.1691 54.1799C38.1691 54.2631 38.1921 54.3271 38.2382 54.3717C38.2843 54.4163 38.3501 54.4386 38.4356 54.4386Z" fill="#212121"/>
<rect x="10.7797" y="47.8169" width="11.7609" height="4.45316" rx="2.22658" fill="url(#paint3_linear_7601_118969)" stroke="#F4F4F4" stroke-width="0.114184"/>
<rect x="10.7227" y="58.2676" width="69.652" height="4.56735" rx="2.28367" fill="#F4F4F4"/>
<path d="M12.3596 64.7022C12.3596 64.8278 12.3436 64.9423 12.3116 65.0456C12.2797 65.1482 12.2321 65.2367 12.1689 65.311C12.1065 65.3846 12.0288 65.4415 11.9359 65.4816C11.8429 65.5218 11.7351 65.5418 11.6125 65.5418C11.4861 65.5418 11.3757 65.5218 11.2813 65.4816C11.1876 65.4415 11.1096 65.3842 11.0471 65.3099C10.9854 65.2356 10.939 65.1467 10.9078 65.0434C10.8773 64.9401 10.862 64.8256 10.862 64.7C10.862 64.5334 10.8895 64.3874 10.9446 64.2617C10.9996 64.1361 11.0828 64.0383 11.1943 63.9685C11.3066 63.8986 11.4471 63.8636 11.6158 63.8636C11.7771 63.8636 11.9128 63.8982 12.0228 63.9673C12.1336 64.0365 12.2172 64.1339 12.2737 64.2595C12.331 64.3844 12.3596 64.5319 12.3596 64.7022ZM11.0616 64.7022C11.0616 64.8405 11.0813 64.9601 11.1207 65.0612C11.1601 65.1623 11.2204 65.2404 11.3014 65.2954C11.3832 65.3504 11.4869 65.3779 11.6125 65.3779C11.7389 65.3779 11.8422 65.3504 11.9225 65.2954C12.0035 65.2404 12.0633 65.1623 12.102 65.0612C12.1407 64.9601 12.16 64.8405 12.16 64.7022C12.16 64.4918 12.1158 64.3275 12.0273 64.2093C11.9396 64.0904 11.8024 64.0309 11.6158 64.0309C11.4895 64.0309 11.3854 64.058 11.3036 64.1123C11.2218 64.1666 11.1609 64.2439 11.1207 64.3442C11.0813 64.4439 11.0616 64.5632 11.0616 64.7022ZM12.8803 63.7845V64.2182C12.8803 64.268 12.8788 64.3164 12.8759 64.3632C12.8736 64.41 12.8718 64.4465 12.8703 64.4725H12.8803C12.9138 64.4175 12.9621 64.371 13.0253 64.3331C13.0885 64.2952 13.1691 64.2762 13.2673 64.2762C13.4204 64.2762 13.5423 64.3294 13.633 64.4357C13.7244 64.5412 13.7702 64.6985 13.7702 64.9074C13.7702 65.0449 13.7493 65.1608 13.7077 65.2553C13.6661 65.3497 13.6074 65.421 13.5315 65.4694C13.4557 65.5177 13.3661 65.5418 13.2628 65.5418C13.1662 65.5418 13.0866 65.524 13.0242 65.4883C12.9625 65.4519 12.9149 65.4077 12.8814 65.3556H12.8669L12.829 65.5195H12.6952V63.7845H12.8803ZM13.2371 64.4312C13.1487 64.4312 13.0784 64.4487 13.0264 64.4836C12.9744 64.5178 12.9368 64.5699 12.9138 64.6397C12.8915 64.7089 12.8803 64.7966 12.8803 64.9029V64.9129C12.8803 65.0668 12.906 65.1846 12.9573 65.2664C13.0086 65.3474 13.1019 65.388 13.2371 65.388C13.3509 65.388 13.436 65.3463 13.4925 65.2631C13.5497 65.1798 13.5784 65.0609 13.5784 64.9062C13.5784 64.7486 13.5501 64.6301 13.4936 64.5505C13.4379 64.471 13.3524 64.4312 13.2371 64.4312ZM13.9463 66.0681C13.9084 66.0681 13.8753 66.0652 13.8471 66.0592C13.8188 66.054 13.7943 66.0477 13.7735 66.0403V65.8897C13.7965 65.8972 13.82 65.9027 13.8437 65.9065C13.8675 65.9109 13.8943 65.9132 13.924 65.9132C13.9746 65.9132 14.0155 65.899 14.0467 65.8708C14.0779 65.8425 14.0935 65.7912 14.0935 65.7169V64.2974H14.2786V65.7124C14.2786 65.7868 14.2667 65.8503 14.2429 65.9031C14.2192 65.9566 14.1827 65.9975 14.1337 66.0258C14.0846 66.054 14.0222 66.0681 13.9463 66.0681ZM14.0768 63.9618C14.0768 63.9201 14.0872 63.8897 14.108 63.8703C14.1296 63.8503 14.1563 63.8402 14.1883 63.8402C14.2188 63.8402 14.2448 63.8503 14.2664 63.8703C14.2887 63.8897 14.2998 63.9201 14.2998 63.9618C14.2998 64.0027 14.2887 64.0331 14.2664 64.0532C14.2448 64.0733 14.2188 64.0833 14.1883 64.0833C14.1563 64.0833 14.1296 64.0733 14.108 64.0532C14.0872 64.0331 14.0768 64.0027 14.0768 63.9618ZM15.1417 64.2751C15.2458 64.2751 15.335 64.2982 15.4093 64.3442C15.4837 64.3903 15.5405 64.455 15.5799 64.5383C15.6193 64.6208 15.639 64.7174 15.639 64.8282V64.943H14.7949C14.7971 65.0865 14.8328 65.1958 14.902 65.2709C14.9711 65.346 15.0685 65.3835 15.1941 65.3835C15.2714 65.3835 15.3398 65.3764 15.3993 65.3623C15.4587 65.3482 15.5205 65.3274 15.5844 65.2999V65.4627C15.5227 65.4902 15.4614 65.5102 15.4004 65.5229C15.3402 65.5355 15.2688 65.5418 15.1863 65.5418C15.0688 65.5418 14.9663 65.518 14.8785 65.4705C14.7916 65.4221 14.7239 65.3515 14.6756 65.2586C14.6273 65.1657 14.6031 65.0519 14.6031 64.9174C14.6031 64.7858 14.625 64.6721 14.6689 64.5762C14.7135 64.4795 14.776 64.4052 14.8562 64.3532C14.9373 64.3011 15.0324 64.2751 15.1417 64.2751ZM15.1395 64.4268C15.0406 64.4268 14.9618 64.4591 14.9031 64.5238C14.8443 64.5884 14.8094 64.6788 14.7983 64.7947H15.445C15.4443 64.7219 15.4327 64.658 15.4104 64.6029C15.3889 64.5472 15.3558 64.5041 15.3112 64.4736C15.2666 64.4424 15.2093 64.4268 15.1395 64.4268ZM16.443 65.5418C16.333 65.5418 16.236 65.5192 16.152 65.4738C16.068 65.4285 16.0025 65.3593 15.9557 65.2664C15.9089 65.1735 15.8855 65.0564 15.8855 64.9152C15.8855 64.7672 15.91 64.6464 15.959 64.5528C16.0089 64.4584 16.0772 64.3885 16.1642 64.3431C16.2512 64.2978 16.3501 64.2751 16.4608 64.2751C16.5218 64.2751 16.5805 64.2814 16.637 64.2941C16.6943 64.306 16.7411 64.3212 16.7775 64.3398L16.7218 64.4948C16.6846 64.4799 16.6415 64.4665 16.5924 64.4546C16.5441 64.4427 16.4987 64.4368 16.4564 64.4368C16.3716 64.4368 16.301 64.455 16.2445 64.4914C16.1888 64.5279 16.1468 64.5814 16.1185 64.652C16.091 64.7226 16.0772 64.8096 16.0772 64.9129C16.0772 65.0118 16.0906 65.0962 16.1174 65.1661C16.1449 65.2359 16.1854 65.2895 16.2389 65.3266C16.2932 65.363 16.3608 65.3813 16.4419 65.3813C16.5065 65.3813 16.5649 65.3746 16.6169 65.3612C16.669 65.3471 16.7162 65.3307 16.7586 65.3121V65.4772C16.7177 65.498 16.672 65.514 16.6214 65.5251C16.5716 65.5363 16.5121 65.5418 16.443 65.5418ZM17.4432 65.3902C17.4737 65.3902 17.5049 65.3876 17.5369 65.3824C17.5688 65.3772 17.5949 65.3709 17.6149 65.3634V65.5073C17.5934 65.5169 17.5633 65.5251 17.5246 65.5318C17.4867 65.5385 17.4495 65.5418 17.4131 65.5418C17.3484 65.5418 17.2897 65.5307 17.2369 65.5084C17.1841 65.4853 17.1418 65.4467 17.1098 65.3924C17.0786 65.3381 17.063 65.2631 17.063 65.1672V64.4424H16.889V64.352L17.0641 64.2796L17.1377 64.0142H17.2492V64.2974H17.6071V64.4424H17.2492V65.1616C17.2492 65.2382 17.2667 65.2954 17.3016 65.3333C17.3373 65.3712 17.3845 65.3902 17.4432 65.3902ZM19.1805 64.0331C19.0905 64.0331 19.0095 64.0487 18.9374 64.08C18.866 64.1104 18.8051 64.1551 18.7545 64.2138C18.7047 64.2718 18.6664 64.342 18.6397 64.4245C18.6129 64.507 18.5995 64.6 18.5995 64.7033C18.5995 64.8401 18.6207 64.959 18.6631 65.0601C18.7062 65.1605 18.7701 65.2382 18.8549 65.2932C18.9404 65.3482 19.0471 65.3757 19.1749 65.3757C19.2478 65.3757 19.3162 65.3697 19.3801 65.3578C19.4448 65.3452 19.5076 65.3296 19.5685 65.311V65.476C19.5091 65.4983 19.4466 65.5147 19.3812 65.5251C19.3158 65.5363 19.2381 65.5418 19.1482 65.5418C18.9824 65.5418 18.8437 65.5076 18.7322 65.4392C18.6215 65.3701 18.5382 65.2727 18.4825 65.1471C18.4274 65.0215 18.3999 64.8732 18.3999 64.7022C18.3999 64.5788 18.417 64.4662 18.4512 64.3643C18.4862 64.2617 18.5367 64.1733 18.6029 64.0989C18.6698 64.0246 18.7516 63.9673 18.8482 63.9272C18.9456 63.8863 19.0571 63.8659 19.1827 63.8659C19.2652 63.8659 19.3448 63.8741 19.4214 63.8904C19.4979 63.9068 19.5671 63.9302 19.6288 63.9607L19.5529 64.1212C19.5009 64.0974 19.4437 64.077 19.3812 64.0599C19.3195 64.0421 19.2526 64.0331 19.1805 64.0331ZM20.9479 64.9062C20.9479 65.0066 20.9349 65.0962 20.9089 65.175C20.8828 65.2538 20.8453 65.3203 20.7962 65.3746C20.7472 65.4288 20.6877 65.4705 20.6178 65.4995C20.5487 65.5277 20.4703 65.5418 20.3825 65.5418C20.3008 65.5418 20.2257 65.5277 20.1573 65.4995C20.0897 65.4705 20.0309 65.4288 19.9811 65.3746C19.9321 65.3203 19.8938 65.2538 19.8663 65.175C19.8395 65.0962 19.8261 65.0066 19.8261 64.9062C19.8261 64.7724 19.8488 64.6587 19.8941 64.565C19.9395 64.4706 20.0042 64.3989 20.0882 64.3498C20.1729 64.3 20.2736 64.2751 20.3904 64.2751C20.5019 64.2751 20.5992 64.3 20.6825 64.3498C20.7665 64.3996 20.8316 64.4717 20.8776 64.5661C20.9245 64.6598 20.9479 64.7732 20.9479 64.9062ZM20.0179 64.9062C20.0179 65.0044 20.0309 65.0895 20.0569 65.1616C20.083 65.2337 20.1231 65.2895 20.1774 65.3289C20.2316 65.3683 20.3015 65.388 20.387 65.388C20.4718 65.388 20.5413 65.3683 20.5955 65.3289C20.6505 65.2895 20.6911 65.2337 20.7171 65.1616C20.7431 65.0895 20.7561 65.0044 20.7561 64.9062C20.7561 64.8089 20.7431 64.7249 20.7171 64.6542C20.6911 64.5829 20.6509 64.5279 20.5966 64.4892C20.5424 64.4505 20.4721 64.4312 20.3859 64.4312C20.2588 64.4312 20.1655 64.4732 20.106 64.5572C20.0473 64.6412 20.0179 64.7576 20.0179 64.9062ZM22.2771 64.2974V65.5195H22.1254L22.0986 65.3478H22.0886C22.0633 65.3902 22.0306 65.4259 21.9905 65.4549C21.9503 65.4838 21.905 65.5054 21.8544 65.5195C21.8046 65.5344 21.7515 65.5418 21.695 65.5418C21.5983 65.5418 21.5173 65.5262 21.4519 65.495C21.3865 65.4638 21.3371 65.4155 21.3036 65.35C21.2709 65.2846 21.2545 65.2006 21.2545 65.098V64.2974H21.4419V65.0847C21.4419 65.1865 21.4649 65.2627 21.511 65.3132C21.5571 65.363 21.6273 65.388 21.7218 65.388C21.8124 65.388 21.8846 65.3709 21.9381 65.3367C21.9923 65.3025 22.0314 65.2523 22.0552 65.1861C22.0789 65.1192 22.0908 65.0374 22.0908 64.9408V64.2974H22.2771ZM23.2472 64.2751C23.3921 64.2751 23.5018 64.3108 23.5761 64.3822C23.6505 64.4528 23.6876 64.5665 23.6876 64.7234V65.5195H23.5048V64.7356C23.5048 64.6338 23.4813 64.5576 23.4345 64.507C23.3884 64.4565 23.3174 64.4312 23.2215 64.4312C23.0862 64.4312 22.9911 64.4695 22.9361 64.5461C22.8811 64.6226 22.8536 64.7338 22.8536 64.8795V65.5195H22.6684V64.2974H22.8179L22.8457 64.4736H22.8558C22.8818 64.4305 22.9149 64.3944 22.955 64.3654C22.9952 64.3357 23.0401 64.3134 23.0899 64.2985C23.1398 64.2829 23.1922 64.2751 23.2472 64.2751ZM24.4637 65.3902C24.4942 65.3902 24.5254 65.3876 24.5574 65.3824C24.5894 65.3772 24.6154 65.3709 24.6354 65.3634V65.5073C24.6139 65.5169 24.5838 65.5251 24.5451 65.5318C24.5072 65.5385 24.47 65.5418 24.4336 65.5418C24.3689 65.5418 24.3102 65.5307 24.2574 65.5084C24.2047 65.4853 24.1623 65.4467 24.1303 65.3924C24.0991 65.3381 24.0835 65.2631 24.0835 65.1672V64.4424H23.9095V64.352L24.0846 64.2796L24.1582 64.0142H24.2697V64.2974H24.6276V64.4424H24.2697V65.1616C24.2697 65.2382 24.2872 65.2954 24.3221 65.3333C24.3578 65.3712 24.405 65.3902 24.4637 65.3902ZM25.0681 64.2974V65.5195H24.883V64.2974H25.0681ZM24.9778 63.8402C25.0082 63.8402 25.0343 63.8503 25.0558 63.8703C25.0781 63.8897 25.0893 63.9201 25.0893 63.9618C25.0893 64.0027 25.0781 64.0331 25.0558 64.0532C25.0343 64.0733 25.0082 64.0833 24.9778 64.0833C24.9458 64.0833 24.919 64.0733 24.8975 64.0532C24.8767 64.0331 24.8663 64.0027 24.8663 63.9618C24.8663 63.9201 24.8767 63.8897 24.8975 63.8703C24.919 63.8503 24.9458 63.8402 24.9778 63.8402ZM26.0393 64.2751C26.1843 64.2751 26.2939 64.3108 26.3683 64.3822C26.4426 64.4528 26.4798 64.5665 26.4798 64.7234V65.5195H26.2969V64.7356C26.2969 64.6338 26.2735 64.5576 26.2267 64.507C26.1806 64.4565 26.1096 64.4312 26.0137 64.4312C25.8784 64.4312 25.7832 64.4695 25.7282 64.5461C25.6732 64.6226 25.6457 64.7338 25.6457 64.8795V65.5195H25.4606V64.2974H25.61L25.6379 64.4736H25.6479C25.6739 64.4305 25.707 64.3944 25.7472 64.3654C25.7873 64.3357 25.8323 64.3134 25.8821 64.2985C25.9319 64.2829 25.9843 64.2751 26.0393 64.2751ZM27.2023 66.0681C27.0418 66.0681 26.918 66.038 26.831 65.9778C26.744 65.9184 26.7006 65.8347 26.7006 65.7269C26.7006 65.6504 26.7247 65.5849 26.773 65.5307C26.8221 65.4764 26.8897 65.4404 26.976 65.4225C26.944 65.4077 26.9165 65.3854 26.8935 65.3556C26.8712 65.3259 26.86 65.2917 26.86 65.253C26.86 65.2084 26.8723 65.1694 26.8968 65.1359C26.9221 65.1018 26.9604 65.069 27.0117 65.0378C26.9477 65.0118 26.8957 64.9679 26.8556 64.9062C26.8162 64.8438 26.7965 64.7713 26.7965 64.6888C26.7965 64.6011 26.8147 64.5264 26.8511 64.4647C26.8875 64.4022 26.9403 64.3547 27.0094 64.3219C27.0786 64.2892 27.1622 64.2729 27.2603 64.2729C27.2819 64.2729 27.3034 64.274 27.325 64.2762C27.3473 64.2777 27.3685 64.2803 27.3886 64.284C27.4086 64.287 27.4261 64.2907 27.441 64.2952H27.8602V64.4145L27.635 64.4424C27.6573 64.4714 27.6759 64.5063 27.6907 64.5472C27.7056 64.5881 27.713 64.6334 27.713 64.6832C27.713 64.8051 27.6718 64.9022 27.5893 64.9743C27.5068 65.0456 27.3934 65.0813 27.2492 65.0813C27.215 65.0813 27.18 65.0783 27.1444 65.0724C27.1079 65.0925 27.0801 65.1148 27.0607 65.1393C27.0421 65.1638 27.0329 65.1921 27.0329 65.224C27.0329 65.2478 27.0399 65.2668 27.054 65.2809C27.0689 65.295 27.0901 65.3054 27.1176 65.3121C27.1451 65.3181 27.1782 65.321 27.2168 65.321H27.432C27.5651 65.321 27.667 65.3489 27.7376 65.4047C27.8089 65.4604 27.8446 65.5418 27.8446 65.6489C27.8446 65.7842 27.7896 65.8879 27.6796 65.96C27.5696 66.0321 27.4105 66.0681 27.2023 66.0681ZM27.2079 65.9232C27.309 65.9232 27.3926 65.9128 27.4588 65.892C27.5257 65.8719 27.5755 65.8425 27.6082 65.8039C27.6417 65.766 27.6584 65.7206 27.6584 65.6678C27.6584 65.6188 27.6473 65.5816 27.625 65.5563C27.6027 65.5318 27.5699 65.5154 27.5268 65.5073C27.4837 65.4983 27.4309 65.4939 27.3685 65.4939H27.1566C27.1016 65.4939 27.0537 65.5024 27.0128 65.5195C26.9719 65.5366 26.9403 65.5619 26.918 65.5954C26.8964 65.6288 26.8857 65.6704 26.8857 65.7202C26.8857 65.7864 26.9135 65.8366 26.9693 65.8708C27.025 65.9057 27.1046 65.9232 27.2079 65.9232ZM27.2559 64.9464C27.3443 64.9464 27.4109 64.9241 27.4555 64.8795C27.5001 64.8349 27.5224 64.7698 27.5224 64.6843C27.5224 64.5929 27.4997 64.5245 27.4543 64.4792C27.409 64.4331 27.3421 64.41 27.2536 64.41C27.1689 64.41 27.1035 64.4338 27.0574 64.4814C27.012 64.5282 26.9894 64.597 26.9894 64.6877C26.9894 64.7709 27.0124 64.8349 27.0585 64.8795C27.1046 64.9241 27.1704 64.9464 27.2559 64.9464Z" fill="#212121"/>
<rect x="10.7797" y="58.3247" width="22.4942" height="4.45316" rx="2.22658" fill="url(#paint4_linear_7601_118969)" stroke="#F4F4F4" stroke-width="0.114184"/>
<rect x="10.7227" y="68.7734" width="69.652" height="4.56735" rx="2.28367" fill="#F4F4F4"/>
<path d="M12.3596 75.208C12.3596 75.3337 12.3436 75.4482 12.3116 75.5515C12.2797 75.6541 12.2321 75.7425 12.1689 75.8169C12.1065 75.8905 12.0288 75.9473 11.9359 75.9875C11.8429 76.0276 11.7351 76.0477 11.6125 76.0477C11.4861 76.0477 11.3757 76.0276 11.2813 75.9875C11.1876 75.9473 11.1096 75.8901 11.0471 75.8158C10.9854 75.7414 10.939 75.6526 10.9078 75.5493C10.8773 75.4459 10.862 75.3314 10.862 75.2058C10.862 75.0393 10.8895 74.8932 10.9446 74.7676C10.9996 74.642 11.0828 74.5442 11.1943 74.4743C11.3066 74.4044 11.4471 74.3695 11.6158 74.3695C11.7771 74.3695 11.9128 74.4041 12.0228 74.4732C12.1336 74.5423 12.2172 74.6397 12.2737 74.7654C12.331 74.8902 12.3596 75.0378 12.3596 75.208ZM11.0616 75.208C11.0616 75.3463 11.0813 75.466 11.1207 75.5671C11.1601 75.6682 11.2204 75.7463 11.3014 75.8013C11.3832 75.8563 11.4869 75.8838 11.6125 75.8838C11.7389 75.8838 11.8422 75.8563 11.9225 75.8013C12.0035 75.7463 12.0633 75.6682 12.102 75.5671C12.1407 75.466 12.16 75.3463 12.16 75.208C12.16 74.9977 12.1158 74.8334 12.0273 74.7152C11.9396 74.5962 11.8024 74.5368 11.6158 74.5368C11.4895 74.5368 11.3854 74.5639 11.3036 74.6182C11.2218 74.6724 11.1609 74.7497 11.1207 74.8501C11.0813 74.9497 11.0616 75.069 11.0616 75.208ZM12.8803 74.2903V74.7241C12.8803 74.7739 12.8788 74.8222 12.8759 74.8691C12.8736 74.9159 12.8718 74.9523 12.8703 74.9783H12.8803C12.9138 74.9233 12.9621 74.8769 13.0253 74.839C13.0885 74.801 13.1691 74.7821 13.2673 74.7821C13.4204 74.7821 13.5423 74.8352 13.633 74.9415C13.7244 75.0471 13.7702 75.2043 13.7702 75.4132C13.7702 75.5507 13.7493 75.6667 13.7077 75.7611C13.6661 75.8555 13.6074 75.9269 13.5315 75.9752C13.4557 76.0235 13.3661 76.0477 13.2628 76.0477C13.1662 76.0477 13.0866 76.0299 13.0242 75.9942C12.9625 75.9577 12.9149 75.9135 12.8814 75.8615H12.8669L12.829 76.0254H12.6952V74.2903H12.8803ZM13.2371 74.9371C13.1487 74.9371 13.0784 74.9545 13.0264 74.9895C12.9744 75.0237 12.9368 75.0757 12.9138 75.1456C12.8915 75.2147 12.8803 75.3025 12.8803 75.4088V75.4188C12.8803 75.5727 12.906 75.6905 12.9573 75.7723C13.0086 75.8533 13.1019 75.8938 13.2371 75.8938C13.3509 75.8938 13.436 75.8522 13.4925 75.7689C13.5497 75.6857 13.5784 75.5667 13.5784 75.4121C13.5784 75.2545 13.5501 75.1359 13.4936 75.0564C13.4379 74.9768 13.3524 74.9371 13.2371 74.9371ZM13.9463 76.574C13.9084 76.574 13.8753 76.571 13.8471 76.5651C13.8188 76.5599 13.7943 76.5536 13.7735 76.5461V76.3956C13.7965 76.403 13.82 76.4086 13.8437 76.4123C13.8675 76.4168 13.8943 76.419 13.924 76.419C13.9746 76.419 14.0155 76.4049 14.0467 76.3766C14.0779 76.3484 14.0935 76.2971 14.0935 76.2228V74.8033H14.2786V76.2183C14.2786 76.2926 14.2667 76.3562 14.2429 76.409C14.2192 76.4625 14.1827 76.5034 14.1337 76.5316C14.0846 76.5599 14.0222 76.574 13.9463 76.574ZM14.0768 74.4676C14.0768 74.426 14.0872 74.3955 14.108 74.3762C14.1296 74.3561 14.1563 74.3461 14.1883 74.3461C14.2188 74.3461 14.2448 74.3561 14.2664 74.3762C14.2887 74.3955 14.2998 74.426 14.2998 74.4676C14.2998 74.5085 14.2887 74.539 14.2664 74.5591C14.2448 74.5791 14.2188 74.5892 14.1883 74.5892C14.1563 74.5892 14.1296 74.5791 14.108 74.5591C14.0872 74.539 14.0768 74.5085 14.0768 74.4676ZM15.1417 74.781C15.2458 74.781 15.335 74.804 15.4093 74.8501C15.4837 74.8962 15.5405 74.9609 15.5799 75.0441C15.6193 75.1266 15.639 75.2233 15.639 75.334V75.4489H14.7949C14.7971 75.5924 14.8328 75.7016 14.902 75.7767C14.9711 75.8518 15.0685 75.8894 15.1941 75.8894C15.2714 75.8894 15.3398 75.8823 15.3993 75.8682C15.4587 75.854 15.5205 75.8332 15.5844 75.8057V75.9685C15.5227 75.996 15.4614 76.0161 15.4004 76.0287C15.3402 76.0414 15.2688 76.0477 15.1863 76.0477C15.0688 76.0477 14.9663 76.0239 14.8785 75.9763C14.7916 75.928 14.7239 75.8574 14.6756 75.7645C14.6273 75.6715 14.6031 75.5578 14.6031 75.4233C14.6031 75.2917 14.625 75.1779 14.6689 75.082C14.7135 74.9854 14.776 74.9111 14.8562 74.859C14.9373 74.807 15.0324 74.781 15.1417 74.781ZM15.1395 74.9326C15.0406 74.9326 14.9618 74.965 14.9031 75.0296C14.8443 75.0943 14.8094 75.1846 14.7983 75.3006H15.445C15.4443 75.2277 15.4327 75.1638 15.4104 75.1088C15.3889 75.053 15.3558 75.0099 15.3112 74.9795C15.2666 74.9482 15.2093 74.9326 15.1395 74.9326ZM16.443 76.0477C16.333 76.0477 16.236 76.025 16.152 75.9797C16.068 75.9343 16.0025 75.8652 15.9557 75.7723C15.9089 75.6793 15.8855 75.5623 15.8855 75.421C15.8855 75.2731 15.91 75.1523 15.959 75.0586C16.0089 74.9642 16.0772 74.8943 16.1642 74.849C16.2512 74.8036 16.3501 74.781 16.4608 74.781C16.5218 74.781 16.5805 74.7873 16.637 74.7999C16.6943 74.8118 16.7411 74.8271 16.7775 74.8456L16.7218 75.0006C16.6846 74.9858 16.6415 74.9724 16.5924 74.9605C16.5441 74.9486 16.4987 74.9427 16.4564 74.9427C16.3716 74.9427 16.301 74.9609 16.2445 74.9973C16.1888 75.0337 16.1468 75.0872 16.1185 75.1579C16.091 75.2285 16.0772 75.3155 16.0772 75.4188C16.0772 75.5177 16.0906 75.602 16.1174 75.6719C16.1449 75.7418 16.1854 75.7953 16.2389 75.8325C16.2932 75.8689 16.3608 75.8871 16.4419 75.8871C16.5065 75.8871 16.5649 75.8804 16.6169 75.8671C16.669 75.8529 16.7162 75.8366 16.7586 75.818V75.983C16.7177 76.0038 16.672 76.0198 16.6214 76.031C16.5716 76.0421 16.5121 76.0477 16.443 76.0477ZM17.4432 75.896C17.4737 75.896 17.5049 75.8934 17.5369 75.8882C17.5688 75.883 17.5949 75.8767 17.6149 75.8693V76.0131C17.5934 76.0228 17.5633 76.031 17.5246 76.0377C17.4867 76.0443 17.4495 76.0477 17.4131 76.0477C17.3484 76.0477 17.2897 76.0365 17.2369 76.0142C17.1841 75.9912 17.1418 75.9525 17.1098 75.8983C17.0786 75.844 17.063 75.7689 17.063 75.673V74.9482H16.889V74.8579L17.0641 74.7854L17.1377 74.52H17.2492V74.8033H17.6071V74.9482H17.2492V75.6675C17.2492 75.744 17.2667 75.8013 17.3016 75.8392C17.3373 75.8771 17.3845 75.896 17.4432 75.896ZM19.1805 74.539C19.0905 74.539 19.0095 74.5546 18.9374 74.5858C18.866 74.6163 18.8051 74.6609 18.7545 74.7196C18.7047 74.7776 18.6664 74.8479 18.6397 74.9304C18.6129 75.0129 18.5995 75.1058 18.5995 75.2092C18.5995 75.3459 18.6207 75.4649 18.6631 75.566C18.7062 75.6663 18.7701 75.744 18.8549 75.799C18.9404 75.854 19.0471 75.8815 19.1749 75.8815C19.2478 75.8815 19.3162 75.8756 19.3801 75.8637C19.4448 75.8511 19.5076 75.8355 19.5685 75.8169V75.9819C19.5091 76.0042 19.4466 76.0206 19.3812 76.031C19.3158 76.0421 19.2381 76.0477 19.1482 76.0477C18.9824 76.0477 18.8437 76.0135 18.7322 75.9451C18.6215 75.876 18.5382 75.7786 18.4825 75.653C18.4274 75.5273 18.3999 75.379 18.3999 75.208C18.3999 75.0846 18.417 74.972 18.4512 74.8702C18.4862 74.7676 18.5367 74.6791 18.6029 74.6048C18.6698 74.5304 18.7516 74.4732 18.8482 74.4331C18.9456 74.3922 19.0571 74.3717 19.1827 74.3717C19.2652 74.3717 19.3448 74.3799 19.4214 74.3963C19.4979 74.4126 19.5671 74.436 19.6288 74.4665L19.5529 74.6271C19.5009 74.6033 19.4437 74.5829 19.3812 74.5658C19.3195 74.5479 19.2526 74.539 19.1805 74.539ZM20.9479 75.4121C20.9479 75.5125 20.9349 75.602 20.9089 75.6808C20.8828 75.7596 20.8453 75.8262 20.7962 75.8804C20.7472 75.9347 20.6877 75.9763 20.6178 76.0053C20.5487 76.0336 20.4703 76.0477 20.3825 76.0477C20.3008 76.0477 20.2257 76.0336 20.1573 76.0053C20.0897 75.9763 20.0309 75.9347 19.9811 75.8804C19.9321 75.8262 19.8938 75.7596 19.8663 75.6808C19.8395 75.602 19.8261 75.5125 19.8261 75.4121C19.8261 75.2783 19.8488 75.1646 19.8941 75.0709C19.9395 74.9765 20.0042 74.9047 20.0882 74.8557C20.1729 74.8059 20.2736 74.781 20.3904 74.781C20.5019 74.781 20.5992 74.8059 20.6825 74.8557C20.7665 74.9055 20.8316 74.9776 20.8776 75.072C20.9245 75.1657 20.9479 75.279 20.9479 75.4121ZM20.0179 75.4121C20.0179 75.5102 20.0309 75.5953 20.0569 75.6675C20.083 75.7396 20.1231 75.7953 20.1774 75.8347C20.2316 75.8741 20.3015 75.8938 20.387 75.8938C20.4718 75.8938 20.5413 75.8741 20.5955 75.8347C20.6505 75.7953 20.6911 75.7396 20.7171 75.6675C20.7431 75.5953 20.7561 75.5102 20.7561 75.4121C20.7561 75.3147 20.7431 75.2307 20.7171 75.1601C20.6911 75.0887 20.6509 75.0337 20.5966 74.9951C20.5424 74.9564 20.4721 74.9371 20.3859 74.9371C20.2588 74.9371 20.1655 74.9791 20.106 75.0631C20.0473 75.1471 20.0179 75.2634 20.0179 75.4121ZM22.2771 74.8033V76.0254H22.1254L22.0986 75.8537H22.0886C22.0633 75.896 22.0306 75.9317 21.9905 75.9607C21.9503 75.9897 21.905 76.0113 21.8544 76.0254C21.8046 76.0403 21.7515 76.0477 21.695 76.0477C21.5983 76.0477 21.5173 76.0321 21.4519 76.0009C21.3865 75.9696 21.3371 75.9213 21.3036 75.8559C21.2709 75.7905 21.2545 75.7065 21.2545 75.6039V74.8033H21.4419V75.5905C21.4419 75.6924 21.4649 75.7686 21.511 75.8191C21.5571 75.8689 21.6273 75.8938 21.7218 75.8938C21.8124 75.8938 21.8846 75.8767 21.9381 75.8425C21.9923 75.8083 22.0314 75.7581 22.0552 75.692C22.0789 75.6251 22.0908 75.5433 22.0908 75.4467V74.8033H22.2771ZM23.2472 74.781C23.3921 74.781 23.5018 74.8166 23.5761 74.888C23.6505 74.9586 23.6876 75.0724 23.6876 75.2292V76.0254H23.5048V75.2415C23.5048 75.1396 23.4813 75.0635 23.4345 75.0129C23.3884 74.9624 23.3174 74.9371 23.2215 74.9371C23.0862 74.9371 22.9911 74.9754 22.9361 75.0519C22.8811 75.1285 22.8536 75.2396 22.8536 75.3853V76.0254H22.6684V74.8033H22.8179L22.8457 74.9795H22.8558C22.8818 74.9363 22.9149 74.9003 22.955 74.8713C22.9952 74.8416 23.0401 74.8193 23.0899 74.8044C23.1398 74.7888 23.1922 74.781 23.2472 74.781ZM24.4637 75.896C24.4942 75.896 24.5254 75.8934 24.5574 75.8882C24.5894 75.883 24.6154 75.8767 24.6354 75.8693V76.0131C24.6139 76.0228 24.5838 76.031 24.5451 76.0377C24.5072 76.0443 24.47 76.0477 24.4336 76.0477C24.3689 76.0477 24.3102 76.0365 24.2574 76.0142C24.2047 75.9912 24.1623 75.9525 24.1303 75.8983C24.0991 75.844 24.0835 75.7689 24.0835 75.673V74.9482H23.9095V74.8579L24.0846 74.7854L24.1582 74.52H24.2697V74.8033H24.6276V74.9482H24.2697V75.6675C24.2697 75.744 24.2872 75.8013 24.3221 75.8392C24.3578 75.8771 24.405 75.896 24.4637 75.896ZM25.0681 74.8033V76.0254H24.883V74.8033H25.0681ZM24.9778 74.3461C25.0082 74.3461 25.0343 74.3561 25.0558 74.3762C25.0781 74.3955 25.0893 74.426 25.0893 74.4676C25.0893 74.5085 25.0781 74.539 25.0558 74.5591C25.0343 74.5791 25.0082 74.5892 24.9778 74.5892C24.9458 74.5892 24.919 74.5791 24.8975 74.5591C24.8767 74.539 24.8663 74.5085 24.8663 74.4676C24.8663 74.426 24.8767 74.3955 24.8975 74.3762C24.919 74.3561 24.9458 74.3461 24.9778 74.3461ZM26.0393 74.781C26.1843 74.781 26.2939 74.8166 26.3683 74.888C26.4426 74.9586 26.4798 75.0724 26.4798 75.2292V76.0254H26.2969V75.2415C26.2969 75.1396 26.2735 75.0635 26.2267 75.0129C26.1806 74.9624 26.1096 74.9371 26.0137 74.9371C25.8784 74.9371 25.7832 74.9754 25.7282 75.0519C25.6732 75.1285 25.6457 75.2396 25.6457 75.3853V76.0254H25.4606V74.8033H25.61L25.6379 74.9795H25.6479C25.6739 74.9363 25.707 74.9003 25.7472 74.8713C25.7873 74.8416 25.8323 74.8193 25.8821 74.8044C25.9319 74.7888 25.9843 74.781 26.0393 74.781ZM27.2023 76.574C27.0418 76.574 26.918 76.5439 26.831 76.4837C26.744 76.4242 26.7006 76.3406 26.7006 76.2328C26.7006 76.1562 26.7247 76.0908 26.773 76.0365C26.8221 75.9823 26.8897 75.9462 26.976 75.9284C26.944 75.9135 26.9165 75.8912 26.8935 75.8615C26.8712 75.8317 26.86 75.7975 26.86 75.7589C26.86 75.7143 26.8723 75.6753 26.8968 75.6418C26.9221 75.6076 26.9604 75.5749 27.0117 75.5437C26.9477 75.5177 26.8957 75.4738 26.8556 75.4121C26.8162 75.3497 26.7965 75.2772 26.7965 75.1947C26.7965 75.1069 26.8147 75.0322 26.8511 74.9705C26.8875 74.9081 26.9403 74.8605 27.0094 74.8278C27.0786 74.7951 27.1622 74.7787 27.2603 74.7787C27.2819 74.7787 27.3034 74.7799 27.325 74.7821C27.3473 74.7836 27.3685 74.7862 27.3886 74.7899C27.4086 74.7929 27.4261 74.7966 27.441 74.801H27.8602V74.9204L27.635 74.9482C27.6573 74.9772 27.6759 75.0122 27.6907 75.053C27.7056 75.0939 27.713 75.1393 27.713 75.1891C27.713 75.311 27.6718 75.408 27.5893 75.4801C27.5068 75.5515 27.3934 75.5872 27.2492 75.5872C27.215 75.5872 27.18 75.5842 27.1444 75.5782C27.1079 75.5983 27.0801 75.6206 27.0607 75.6452C27.0421 75.6697 27.0329 75.6979 27.0329 75.7299C27.0329 75.7537 27.0399 75.7726 27.054 75.7868C27.0689 75.8009 27.0901 75.8113 27.1176 75.818C27.1451 75.8239 27.1782 75.8269 27.2168 75.8269H27.432C27.5651 75.8269 27.667 75.8548 27.7376 75.9105C27.8089 75.9663 27.8446 76.0477 27.8446 76.1547C27.8446 76.29 27.7896 76.3937 27.6796 76.4658C27.5696 76.538 27.4105 76.574 27.2023 76.574ZM27.2079 76.429C27.309 76.429 27.3926 76.4186 27.4588 76.3978C27.5257 76.3778 27.5755 76.3484 27.6082 76.3097C27.6417 76.2718 27.6584 76.2265 27.6584 76.1737C27.6584 76.1246 27.6473 76.0875 27.625 76.0622C27.6027 76.0377 27.5699 76.0213 27.5268 76.0131C27.4837 76.0042 27.4309 75.9997 27.3685 75.9997H27.1566C27.1016 75.9997 27.0537 76.0083 27.0128 76.0254C26.9719 76.0425 26.9403 76.0678 26.918 76.1012C26.8964 76.1347 26.8857 76.1763 26.8857 76.2261C26.8857 76.2923 26.9135 76.3424 26.9693 76.3766C27.025 76.4116 27.1046 76.429 27.2079 76.429ZM27.2559 75.4522C27.3443 75.4522 27.4109 75.4299 27.4555 75.3853C27.5001 75.3407 27.5224 75.2757 27.5224 75.1902C27.5224 75.0988 27.4997 75.0304 27.4543 74.985C27.409 74.9389 27.3421 74.9159 27.2536 74.9159C27.1689 74.9159 27.1035 74.9397 27.0574 74.9873C27.012 75.0341 26.9894 75.1029 26.9894 75.1935C26.9894 75.2768 27.0124 75.3407 27.0585 75.3853C27.1046 75.4299 27.1704 75.4522 27.2559 75.4522ZM29.2229 76.0254H29.0322V74.5624H28.5192V74.3952H29.7336V74.5624H29.2229V76.0254ZM29.7592 74.8033H29.9577L30.2275 75.5125C30.2431 75.5541 30.2576 75.5942 30.271 75.6329C30.2844 75.6708 30.2963 75.7072 30.3067 75.7422C30.3171 75.7771 30.3253 75.8109 30.3312 75.8436H30.339C30.3495 75.8065 30.3643 75.7578 30.3836 75.6976C30.403 75.6366 30.4238 75.5745 30.4461 75.5113L30.7014 74.8033H30.901L30.3692 76.2049C30.3409 76.28 30.3078 76.3454 30.2699 76.4012C30.2327 76.4569 30.1874 76.4997 30.1339 76.5294C30.0803 76.5599 30.0157 76.5751 29.9398 76.5751C29.9049 76.5751 29.8741 76.5729 29.8473 76.5684C29.8205 76.5647 29.7975 76.5603 29.7782 76.5551V76.4067C29.7945 76.4105 29.8142 76.4138 29.8373 76.4168C29.8611 76.4198 29.8856 76.4212 29.9109 76.4212C29.9569 76.4212 29.9967 76.4123 30.0302 76.3945C30.0644 76.3774 30.0937 76.3521 30.1183 76.3187C30.1428 76.2852 30.164 76.2454 30.1818 76.1993L30.2487 76.0276L29.7592 74.8033ZM31.6704 74.781C31.8228 74.781 31.9444 74.8334 32.0351 74.9382C32.1258 75.043 32.1711 75.2006 32.1711 75.411C32.1711 75.55 32.1503 75.6667 32.1087 75.7611C32.067 75.8555 32.0083 75.9269 31.9325 75.9752C31.8574 76.0235 31.7686 76.0477 31.666 76.0477C31.6013 76.0477 31.5444 76.0391 31.4954 76.022C31.4463 76.0049 31.4043 75.9819 31.3694 75.9529C31.3344 75.9239 31.3054 75.8923 31.2824 75.8581H31.269C31.2712 75.8871 31.2739 75.9221 31.2768 75.9629C31.2805 76.0038 31.2824 76.0395 31.2824 76.07V76.5718H31.0962V74.8033H31.2489L31.2735 74.9839H31.2824C31.3062 74.9467 31.3352 74.9129 31.3694 74.8824C31.4036 74.8512 31.4452 74.8267 31.4943 74.8088C31.5441 74.7903 31.6028 74.781 31.6704 74.781ZM31.6381 74.9371C31.5534 74.9371 31.485 74.9534 31.4329 74.9861C31.3816 75.0189 31.3441 75.0679 31.3203 75.1333C31.2965 75.198 31.2839 75.2794 31.2824 75.3775V75.4132C31.2824 75.5165 31.2936 75.6039 31.3159 75.6753C31.3389 75.7466 31.3764 75.8009 31.4285 75.8381C31.4813 75.8752 31.5519 75.8938 31.6403 75.8938C31.7162 75.8938 31.7794 75.8734 31.8299 75.8325C31.8805 75.7916 31.918 75.7347 31.9425 75.6619C31.9678 75.5883 31.9804 75.5039 31.9804 75.4088C31.9804 75.2645 31.9522 75.1501 31.8957 75.0653C31.8399 74.9798 31.7541 74.9371 31.6381 74.9371ZM32.965 74.781C33.0691 74.781 33.1583 74.804 33.2327 74.8501C33.307 74.8962 33.3639 74.9609 33.4033 75.0441C33.4427 75.1266 33.4624 75.2233 33.4624 75.334V75.4489H32.6183C32.6205 75.5924 32.6562 75.7016 32.7253 75.7767C32.7944 75.8518 32.8918 75.8894 33.0175 75.8894C33.0948 75.8894 33.1632 75.8823 33.2226 75.8682C33.2821 75.854 33.3438 75.8332 33.4077 75.8057V75.9685C33.346 75.996 33.2847 76.0161 33.2237 76.0287C33.1635 76.0414 33.0922 76.0477 33.0096 76.0477C32.8922 76.0477 32.7896 76.0239 32.7019 75.9763C32.6149 75.928 32.5473 75.8574 32.4989 75.7645C32.4506 75.6715 32.4265 75.5578 32.4265 75.4233C32.4265 75.2917 32.4484 75.1779 32.4923 75.082C32.5369 74.9854 32.5993 74.9111 32.6796 74.859C32.7606 74.807 32.8558 74.781 32.965 74.781ZM32.9628 74.9326C32.8639 74.9326 32.7851 74.965 32.7264 75.0296C32.6677 75.0943 32.6328 75.1846 32.6216 75.3006H33.2683C33.2676 75.2277 33.2561 75.1638 33.2338 75.1088C33.2122 75.053 33.1791 75.0099 33.1345 74.9795C33.0899 74.9482 33.0327 74.9326 32.9628 74.9326ZM34.5674 75.6909C34.5674 75.7689 34.5477 75.8347 34.5083 75.8882C34.4697 75.941 34.4139 75.9808 34.341 76.0075C34.2689 76.0343 34.1827 76.0477 34.0824 76.0477C33.9969 76.0477 33.9229 76.041 33.8605 76.0276C33.798 76.0142 33.7434 75.9953 33.6965 75.9708V75.8001C33.7463 75.8247 33.8058 75.847 33.8749 75.8671C33.9441 75.8871 34.0147 75.8972 34.0868 75.8972C34.1924 75.8972 34.2689 75.8801 34.3165 75.8459C34.3641 75.8117 34.3879 75.7652 34.3879 75.7065C34.3879 75.673 34.3782 75.6437 34.3589 75.6184C34.3403 75.5924 34.3087 75.5675 34.2641 75.5437C34.2195 75.5191 34.1578 75.4924 34.079 75.4634C34.001 75.4337 33.9333 75.4043 33.8761 75.3753C33.8196 75.3456 33.7757 75.3095 33.7445 75.2671C33.714 75.2248 33.6988 75.1698 33.6988 75.1021C33.6988 74.9988 33.7404 74.9196 33.8237 74.8646C33.9077 74.8088 34.0177 74.781 34.1537 74.781C34.2273 74.781 34.2961 74.7884 34.36 74.8033C34.4247 74.8174 34.4849 74.8367 34.5406 74.8613L34.4782 75.0096C34.4277 74.988 34.3738 74.9698 34.3165 74.9549C34.2593 74.9401 34.2009 74.9326 34.1415 74.9326C34.056 74.9326 33.9902 74.9467 33.9441 74.975C33.8987 75.0032 33.8761 75.0419 33.8761 75.091C33.8761 75.1289 33.8865 75.1601 33.9073 75.1846C33.9288 75.2092 33.963 75.2322 34.0099 75.2538C34.0567 75.2753 34.1184 75.3006 34.195 75.3296C34.2715 75.3578 34.3377 75.3872 34.3935 75.4177C34.4492 75.4474 34.492 75.4838 34.5217 75.527C34.5522 75.5693 34.5674 75.624 34.5674 75.6909Z" fill="#212121"/>
<rect x="10.7797" y="68.8305" width="37.1097" height="4.45316" rx="2.22658" fill="url(#paint5_linear_7601_118969)" stroke="#F4F4F4" stroke-width="0.114184"/>
</g>
<defs>
<linearGradient id="paint0_linear_7601_118969" x1="19.2864" y1="16.2461" x2="19.2864" y2="20.8134" gradientUnits="userSpaceOnUse">
<stop stop-color="#7AD3FF"/>
<stop offset="1" stop-color="#4FBAF0"/>
</linearGradient>
<linearGradient id="paint1_linear_7601_118969" x1="23.5112" y1="26.7539" x2="23.5112" y2="31.3213" gradientUnits="userSpaceOnUse">
<stop stop-color="#7AD3FF"/>
<stop offset="1" stop-color="#4FBAF0"/>
</linearGradient>
<linearGradient id="paint2_linear_7601_118969" x1="41.8948" y1="37.2598" x2="41.8948" y2="41.8271" gradientUnits="userSpaceOnUse">
<stop stop-color="#7AD3FF"/>
<stop offset="1" stop-color="#4FBAF0"/>
</linearGradient>
<linearGradient id="paint3_linear_7601_118969" x1="16.6602" y1="47.7598" x2="16.6602" y2="52.3271" gradientUnits="userSpaceOnUse">
<stop stop-color="#7AD3FF"/>
<stop offset="1" stop-color="#4FBAF0"/>
</linearGradient>
<linearGradient id="paint4_linear_7601_118969" x1="22.0268" y1="58.2676" x2="22.0268" y2="62.8349" gradientUnits="userSpaceOnUse">
<stop stop-color="#7AD3FF"/>
<stop offset="1" stop-color="#4FBAF0"/>
</linearGradient>
<linearGradient id="paint5_linear_7601_118969" x1="29.3346" y1="68.7734" x2="29.3346" y2="73.3408" gradientUnits="userSpaceOnUse">
<stop stop-color="#7AD3FF"/>
<stop offset="1" stop-color="#4FBAF0"/>
</linearGradient>
<clipPath id="clip0_7601_118969">
<rect width="69" height="61" fill="white" transform="translate(11 16)"/>
</clipPath>
</defs>
</svg>
