<svg width="93" height="92" viewBox="0 0 93 92" fill="none" xmlns="http://www.w3.org/2000/svg">
<rect x="1.25995" y="0.389831" width="91.079" height="91.2203" rx="17.5424" stroke="#BEBEBE" stroke-width="0.779661"/>
<rect width="70" height="60.7317" transform="translate(11.999 16)" fill="white"/>
<path d="M21.7549 21.8516V68.9247" stroke="#E0E0E0" stroke-width="0.243902" stroke-dasharray="0.49 0.49"/>
<path d="M29.6818 68.9247C29.6818 68.9921 29.7364 69.0467 29.8037 69.0467C29.8711 69.0467 29.9257 68.9921 29.9257 68.9247H29.6818ZM29.8037 21.8516H29.6818V22.0967H29.8037H29.9257V21.8516H29.8037ZM29.8037 22.5871H29.6818V23.0774H29.8037H29.9257V22.5871H29.8037ZM29.8037 23.5678H29.6818V24.0581H29.8037H29.9257V23.5678H29.8037ZM29.8037 24.5485H29.6818V25.0388H29.8037H29.9257V24.5485H29.8037ZM29.8037 25.5292H29.6818V26.0195H29.8037H29.9257V25.5292H29.8037ZM29.8037 26.5098H29.6818V27.0002H29.8037H29.9257V26.5098H29.8037ZM29.8037 27.4905H29.6818V27.9809H29.8037H29.9257V27.4905H29.8037ZM29.8037 28.4712H29.6818V28.9616H29.8037H29.9257V28.4712H29.8037ZM29.8037 29.4519H29.6818V29.9423H29.8037H29.9257V29.4519H29.8037ZM29.8037 30.4326H29.6818V30.923H29.8037H29.9257V30.4326H29.8037ZM29.8037 31.4133H29.6818V31.9036H29.8037H29.9257V31.4133H29.8037ZM29.8037 32.394H29.6818V32.8843H29.8037H29.9257V32.394H29.8037ZM29.8037 33.3747H29.6818V33.865H29.8037H29.9257V33.3747H29.8037ZM29.8037 34.3554H29.6818V34.8457H29.8037H29.9257V34.3554H29.8037ZM29.8037 35.3361H29.6818V35.8264H29.8037H29.9257V35.3361H29.8037ZM29.8037 36.3168H29.6818V36.8071H29.8037H29.9257V36.3168H29.8037ZM29.8037 37.2975H29.6818V37.7878H29.8037H29.9257V37.2975H29.8037ZM29.8037 38.2781H29.6818V38.7685H29.8037H29.9257V38.2781H29.8037ZM29.8037 39.2588H29.6818V39.7492H29.8037H29.9257V39.2588H29.8037ZM29.8037 40.2395H29.6818V40.7299H29.8037H29.9257V40.2395H29.8037ZM29.8037 41.2202H29.6818V41.7106H29.8037H29.9257V41.2202H29.8037ZM29.8037 42.2009H29.6818V42.6912H29.8037H29.9257V42.2009H29.8037ZM29.8037 43.1816H29.6818V43.6719H29.8037H29.9257V43.1816H29.8037ZM29.8037 44.1623H29.6818V44.6526H29.8037H29.9257V44.1623H29.8037ZM29.8037 45.143H29.6818V45.6333H29.8037H29.9257V45.143H29.8037ZM29.8037 46.1237H29.6818V46.614H29.8037H29.9257V46.1237H29.8037ZM29.8037 47.1044H29.6818V47.5947H29.8037H29.9257V47.1044H29.8037ZM29.8037 48.085H29.6818V48.5754H29.8037H29.9257V48.085H29.8037ZM29.8037 49.0657H29.6818V49.5561H29.8037H29.9257V49.0657H29.8037ZM29.8037 50.0464H29.6818V50.5368H29.8037H29.9257V50.0464H29.8037ZM29.8037 51.0271H29.6818V51.5175H29.8037H29.9257V51.0271H29.8037ZM29.8037 52.0078H29.6818V52.4981H29.8037H29.9257V52.0078H29.8037ZM29.8037 52.9885H29.6818V53.4788H29.8037H29.9257V52.9885H29.8037ZM29.8037 53.9692H29.6818V54.4595H29.8037H29.9257V53.9692H29.8037ZM29.8037 54.9499H29.6818V55.4402H29.8037H29.9257V54.9499H29.8037ZM29.8037 55.9306H29.6818V56.4209H29.8037H29.9257V55.9306H29.8037ZM29.8037 56.9113H29.6818V57.4016H29.8037H29.9257V56.9113H29.8037ZM29.8037 57.8919H29.6818V58.3823H29.8037H29.9257V57.8919H29.8037ZM29.8037 58.8726H29.6818V59.363H29.8037H29.9257V58.8726H29.8037ZM29.8037 59.8533H29.6818V60.3437H29.8037H29.9257V59.8533H29.8037ZM29.8037 60.834H29.6818V61.3244H29.8037H29.9257V60.834H29.8037ZM29.8037 61.8147H29.6818V62.305H29.8037H29.9257V61.8147H29.8037ZM29.8037 62.7954H29.6818V63.2857H29.8037H29.9257V62.7954H29.8037ZM29.8037 63.7761H29.6818V64.2664H29.8037H29.9257V63.7761H29.8037ZM29.8037 64.7568H29.6818V65.2471H29.8037H29.9257V64.7568H29.8037ZM29.8037 65.7375H29.6818V66.2278H29.8037H29.9257V65.7375H29.8037ZM29.8037 66.7182H29.6818V67.2085H29.8037H29.9257V66.7182H29.8037ZM29.8037 67.6988H29.6818V68.1892H29.8037H29.9257V67.6988H29.8037ZM29.8037 68.6795H29.6818V68.9247H29.8037H29.9257V68.6795H29.8037Z" fill="#E0E0E0"/>
<path d="M37.7306 68.9247C37.7306 68.9921 37.7852 69.0467 37.8525 69.0467C37.9199 69.0467 37.9745 68.9921 37.9745 68.9247H37.7306ZM37.8525 21.8516H37.7306V22.0967H37.8525H37.9745V21.8516H37.8525ZM37.8525 22.5871H37.7306V23.0774H37.8525H37.9745V22.5871H37.8525ZM37.8525 23.5678H37.7306V24.0581H37.8525H37.9745V23.5678H37.8525ZM37.8525 24.5485H37.7306V25.0388H37.8525H37.9745V24.5485H37.8525ZM37.8525 25.5292H37.7306V26.0195H37.8525H37.9745V25.5292H37.8525ZM37.8525 26.5098H37.7306V27.0002H37.8525H37.9745V26.5098H37.8525ZM37.8525 27.4905H37.7306V27.9809H37.8525H37.9745V27.4905H37.8525ZM37.8525 28.4712H37.7306V28.9616H37.8525H37.9745V28.4712H37.8525ZM37.8525 29.4519H37.7306V29.9423H37.8525H37.9745V29.4519H37.8525ZM37.8525 30.4326H37.7306V30.923H37.8525H37.9745V30.4326H37.8525ZM37.8525 31.4133H37.7306V31.9036H37.8525H37.9745V31.4133H37.8525ZM37.8525 32.394H37.7306V32.8843H37.8525H37.9745V32.394H37.8525ZM37.8525 33.3747H37.7306V33.865H37.8525H37.9745V33.3747H37.8525ZM37.8525 34.3554H37.7306V34.8457H37.8525H37.9745V34.3554H37.8525ZM37.8525 35.3361H37.7306V35.8264H37.8525H37.9745V35.3361H37.8525ZM37.8525 36.3168H37.7306V36.8071H37.8525H37.9745V36.3168H37.8525ZM37.8525 37.2975H37.7306V37.7878H37.8525H37.9745V37.2975H37.8525ZM37.8525 38.2781H37.7306V38.7685H37.8525H37.9745V38.2781H37.8525ZM37.8525 39.2588H37.7306V39.7492H37.8525H37.9745V39.2588H37.8525ZM37.8525 40.2395H37.7306V40.7299H37.8525H37.9745V40.2395H37.8525ZM37.8525 41.2202H37.7306V41.7106H37.8525H37.9745V41.2202H37.8525ZM37.8525 42.2009H37.7306V42.6912H37.8525H37.9745V42.2009H37.8525ZM37.8525 43.1816H37.7306V43.6719H37.8525H37.9745V43.1816H37.8525ZM37.8525 44.1623H37.7306V44.6526H37.8525H37.9745V44.1623H37.8525ZM37.8525 45.143H37.7306V45.6333H37.8525H37.9745V45.143H37.8525ZM37.8525 46.1237H37.7306V46.614H37.8525H37.9745V46.1237H37.8525ZM37.8525 47.1044H37.7306V47.5947H37.8525H37.9745V47.1044H37.8525ZM37.8525 48.085H37.7306V48.5754H37.8525H37.9745V48.085H37.8525ZM37.8525 49.0657H37.7306V49.5561H37.8525H37.9745V49.0657H37.8525ZM37.8525 50.0464H37.7306V50.5368H37.8525H37.9745V50.0464H37.8525ZM37.8525 51.0271H37.7306V51.5175H37.8525H37.9745V51.0271H37.8525ZM37.8525 52.0078H37.7306V52.4981H37.8525H37.9745V52.0078H37.8525ZM37.8525 52.9885H37.7306V53.4788H37.8525H37.9745V52.9885H37.8525ZM37.8525 53.9692H37.7306V54.4595H37.8525H37.9745V53.9692H37.8525ZM37.8525 54.9499H37.7306V55.4402H37.8525H37.9745V54.9499H37.8525ZM37.8525 55.9306H37.7306V56.4209H37.8525H37.9745V55.9306H37.8525ZM37.8525 56.9113H37.7306V57.4016H37.8525H37.9745V56.9113H37.8525ZM37.8525 57.8919H37.7306V58.3823H37.8525H37.9745V57.8919H37.8525ZM37.8525 58.8726H37.7306V59.363H37.8525H37.9745V58.8726H37.8525ZM37.8525 59.8533H37.7306V60.3437H37.8525H37.9745V59.8533H37.8525ZM37.8525 60.834H37.7306V61.3244H37.8525H37.9745V60.834H37.8525ZM37.8525 61.8147H37.7306V62.305H37.8525H37.9745V61.8147H37.8525ZM37.8525 62.7954H37.7306V63.2857H37.8525H37.9745V62.7954H37.8525ZM37.8525 63.7761H37.7306V64.2664H37.8525H37.9745V63.7761H37.8525ZM37.8525 64.7568H37.7306V65.2471H37.8525H37.9745V64.7568H37.8525ZM37.8525 65.7375H37.7306V66.2278H37.8525H37.9745V65.7375H37.8525ZM37.8525 66.7182H37.7306V67.2085H37.8525H37.9745V66.7182H37.8525ZM37.8525 67.6988H37.7306V68.1892H37.8525H37.9745V67.6988H37.8525ZM37.8525 68.6795H37.7306V68.9247H37.8525H37.9745V68.6795H37.8525Z" fill="#E0E0E0"/>
<path d="M45.7794 68.9247C45.7794 68.9921 45.834 69.0467 45.9014 69.0467C45.9687 69.0467 46.0233 68.9921 46.0233 68.9247H45.7794ZM45.9014 21.8516H45.7794V22.0967H45.9014H46.0233V21.8516H45.9014ZM45.9014 22.5871H45.7794V23.0774H45.9014H46.0233V22.5871H45.9014ZM45.9014 23.5678H45.7794V24.0581H45.9014H46.0233V23.5678H45.9014ZM45.9014 24.5485H45.7794V25.0388H45.9014H46.0233V24.5485H45.9014ZM45.9014 25.5292H45.7794V26.0195H45.9014H46.0233V25.5292H45.9014ZM45.9014 26.5098H45.7794V27.0002H45.9014H46.0233V26.5098H45.9014ZM45.9014 27.4905H45.7794V27.9809H45.9014H46.0233V27.4905H45.9014ZM45.9014 28.4712H45.7794V28.9616H45.9014H46.0233V28.4712H45.9014ZM45.9014 29.4519H45.7794V29.9423H45.9014H46.0233V29.4519H45.9014ZM45.9014 30.4326H45.7794V30.923H45.9014H46.0233V30.4326H45.9014ZM45.9014 31.4133H45.7794V31.9036H45.9014H46.0233V31.4133H45.9014ZM45.9014 32.394H45.7794V32.8843H45.9014H46.0233V32.394H45.9014ZM45.9014 33.3747H45.7794V33.865H45.9014H46.0233V33.3747H45.9014ZM45.9014 34.3554H45.7794V34.8457H45.9014H46.0233V34.3554H45.9014ZM45.9014 35.3361H45.7794V35.8264H45.9014H46.0233V35.3361H45.9014ZM45.9014 36.3168H45.7794V36.8071H45.9014H46.0233V36.3168H45.9014ZM45.9014 37.2975H45.7794V37.7878H45.9014H46.0233V37.2975H45.9014ZM45.9014 38.2781H45.7794V38.7685H45.9014H46.0233V38.2781H45.9014ZM45.9014 39.2588H45.7794V39.7492H45.9014H46.0233V39.2588H45.9014ZM45.9014 40.2395H45.7794V40.7299H45.9014H46.0233V40.2395H45.9014ZM45.9014 41.2202H45.7794V41.7106H45.9014H46.0233V41.2202H45.9014ZM45.9014 42.2009H45.7794V42.6912H45.9014H46.0233V42.2009H45.9014ZM45.9014 43.1816H45.7794V43.6719H45.9014H46.0233V43.1816H45.9014ZM45.9014 44.1623H45.7794V44.6526H45.9014H46.0233V44.1623H45.9014ZM45.9014 45.143H45.7794V45.6333H45.9014H46.0233V45.143H45.9014ZM45.9014 46.1237H45.7794V46.614H45.9014H46.0233V46.1237H45.9014ZM45.9014 47.1044H45.7794V47.5947H45.9014H46.0233V47.1044H45.9014ZM45.9014 48.085H45.7794V48.5754H45.9014H46.0233V48.085H45.9014ZM45.9014 49.0657H45.7794V49.5561H45.9014H46.0233V49.0657H45.9014ZM45.9014 50.0464H45.7794V50.5368H45.9014H46.0233V50.0464H45.9014ZM45.9014 51.0271H45.7794V51.5175H45.9014H46.0233V51.0271H45.9014ZM45.9014 52.0078H45.7794V52.4981H45.9014H46.0233V52.0078H45.9014ZM45.9014 52.9885H45.7794V53.4788H45.9014H46.0233V52.9885H45.9014ZM45.9014 53.9692H45.7794V54.4595H45.9014H46.0233V53.9692H45.9014ZM45.9014 54.9499H45.7794V55.4402H45.9014H46.0233V54.9499H45.9014ZM45.9014 55.9306H45.7794V56.4209H45.9014H46.0233V55.9306H45.9014ZM45.9014 56.9113H45.7794V57.4016H45.9014H46.0233V56.9113H45.9014ZM45.9014 57.8919H45.7794V58.3823H45.9014H46.0233V57.8919H45.9014ZM45.9014 58.8726H45.7794V59.363H45.9014H46.0233V58.8726H45.9014ZM45.9014 59.8533H45.7794V60.3437H45.9014H46.0233V59.8533H45.9014ZM45.9014 60.834H45.7794V61.3244H45.9014H46.0233V60.834H45.9014ZM45.9014 61.8147H45.7794V62.305H45.9014H46.0233V61.8147H45.9014ZM45.9014 62.7954H45.7794V63.2857H45.9014H46.0233V62.7954H45.9014ZM45.9014 63.7761H45.7794V64.2664H45.9014H46.0233V63.7761H45.9014ZM45.9014 64.7568H45.7794V65.2471H45.9014H46.0233V64.7568H45.9014ZM45.9014 65.7375H45.7794V66.2278H45.9014H46.0233V65.7375H45.9014ZM45.9014 66.7182H45.7794V67.2085H45.9014H46.0233V66.7182H45.9014ZM45.9014 67.6988H45.7794V68.1892H45.9014H46.0233V67.6988H45.9014ZM45.9014 68.6795H45.7794V68.9247H45.9014H46.0233V68.6795H45.9014Z" fill="#E0E0E0"/>
<path d="M53.8282 68.9247C53.8282 68.9921 53.8828 69.0467 53.9502 69.0467C54.0175 69.0467 54.0721 68.9921 54.0721 68.9247H53.8282ZM53.9502 21.8516H53.8282V22.0967H53.9502H54.0721V21.8516H53.9502ZM53.9502 22.5871H53.8282V23.0774H53.9502H54.0721V22.5871H53.9502ZM53.9502 23.5678H53.8282V24.0581H53.9502H54.0721V23.5678H53.9502ZM53.9502 24.5485H53.8282V25.0388H53.9502H54.0721V24.5485H53.9502ZM53.9502 25.5292H53.8282V26.0195H53.9502H54.0721V25.5292H53.9502ZM53.9502 26.5098H53.8282V27.0002H53.9502H54.0721V26.5098H53.9502ZM53.9502 27.4905H53.8282V27.9809H53.9502H54.0721V27.4905H53.9502ZM53.9502 28.4712H53.8282V28.9616H53.9502H54.0721V28.4712H53.9502ZM53.9502 29.4519H53.8282V29.9423H53.9502H54.0721V29.4519H53.9502ZM53.9502 30.4326H53.8282V30.923H53.9502H54.0721V30.4326H53.9502ZM53.9502 31.4133H53.8282V31.9036H53.9502H54.0721V31.4133H53.9502ZM53.9502 32.394H53.8282V32.8843H53.9502H54.0721V32.394H53.9502ZM53.9502 33.3747H53.8282V33.865H53.9502H54.0721V33.3747H53.9502ZM53.9502 34.3554H53.8282V34.8457H53.9502H54.0721V34.3554H53.9502ZM53.9502 35.3361H53.8282V35.8264H53.9502H54.0721V35.3361H53.9502ZM53.9502 36.3168H53.8282V36.8071H53.9502H54.0721V36.3168H53.9502ZM53.9502 37.2975H53.8282V37.7878H53.9502H54.0721V37.2975H53.9502ZM53.9502 38.2781H53.8282V38.7685H53.9502H54.0721V38.2781H53.9502ZM53.9502 39.2588H53.8282V39.7492H53.9502H54.0721V39.2588H53.9502ZM53.9502 40.2395H53.8282V40.7299H53.9502H54.0721V40.2395H53.9502ZM53.9502 41.2202H53.8282V41.7106H53.9502H54.0721V41.2202H53.9502ZM53.9502 42.2009H53.8282V42.6912H53.9502H54.0721V42.2009H53.9502ZM53.9502 43.1816H53.8282V43.6719H53.9502H54.0721V43.1816H53.9502ZM53.9502 44.1623H53.8282V44.6526H53.9502H54.0721V44.1623H53.9502ZM53.9502 45.143H53.8282V45.6333H53.9502H54.0721V45.143H53.9502ZM53.9502 46.1237H53.8282V46.614H53.9502H54.0721V46.1237H53.9502ZM53.9502 47.1044H53.8282V47.5947H53.9502H54.0721V47.1044H53.9502ZM53.9502 48.085H53.8282V48.5754H53.9502H54.0721V48.085H53.9502ZM53.9502 49.0657H53.8282V49.5561H53.9502H54.0721V49.0657H53.9502ZM53.9502 50.0464H53.8282V50.5368H53.9502H54.0721V50.0464H53.9502ZM53.9502 51.0271H53.8282V51.5175H53.9502H54.0721V51.0271H53.9502ZM53.9502 52.0078H53.8282V52.4981H53.9502H54.0721V52.0078H53.9502ZM53.9502 52.9885H53.8282V53.4788H53.9502H54.0721V52.9885H53.9502ZM53.9502 53.9692H53.8282V54.4595H53.9502H54.0721V53.9692H53.9502ZM53.9502 54.9499H53.8282V55.4402H53.9502H54.0721V54.9499H53.9502ZM53.9502 55.9306H53.8282V56.4209H53.9502H54.0721V55.9306H53.9502ZM53.9502 56.9113H53.8282V57.4016H53.9502H54.0721V56.9113H53.9502ZM53.9502 57.8919H53.8282V58.3823H53.9502H54.0721V57.8919H53.9502ZM53.9502 58.8726H53.8282V59.363H53.9502H54.0721V58.8726H53.9502ZM53.9502 59.8533H53.8282V60.3437H53.9502H54.0721V59.8533H53.9502ZM53.9502 60.834H53.8282V61.3244H53.9502H54.0721V60.834H53.9502ZM53.9502 61.8147H53.8282V62.305H53.9502H54.0721V61.8147H53.9502ZM53.9502 62.7954H53.8282V63.2857H53.9502H54.0721V62.7954H53.9502ZM53.9502 63.7761H53.8282V64.2664H53.9502H54.0721V63.7761H53.9502ZM53.9502 64.7568H53.8282V65.2471H53.9502H54.0721V64.7568H53.9502ZM53.9502 65.7375H53.8282V66.2278H53.9502H54.0721V65.7375H53.9502ZM53.9502 66.7182H53.8282V67.2085H53.9502H54.0721V66.7182H53.9502ZM53.9502 67.6988H53.8282V68.1892H53.9502H54.0721V67.6988H53.9502ZM53.9502 68.6795H53.8282V68.9247H53.9502H54.0721V68.6795H53.9502Z" fill="#E0E0E0"/>
<path d="M61.8771 68.9247C61.8771 68.9921 61.9317 69.0467 61.999 69.0467C62.0664 69.0467 62.121 68.9921 62.121 68.9247H61.8771ZM61.999 21.8516H61.8771V22.0967H61.999H62.121V21.8516H61.999ZM61.999 22.5871H61.8771V23.0774H61.999H62.121V22.5871H61.999ZM61.999 23.5678H61.8771V24.0581H61.999H62.121V23.5678H61.999ZM61.999 24.5485H61.8771V25.0388H61.999H62.121V24.5485H61.999ZM61.999 25.5292H61.8771V26.0195H61.999H62.121V25.5292H61.999ZM61.999 26.5098H61.8771V27.0002H61.999H62.121V26.5098H61.999ZM61.999 27.4905H61.8771V27.9809H61.999H62.121V27.4905H61.999ZM61.999 28.4712H61.8771V28.9616H61.999H62.121V28.4712H61.999ZM61.999 29.4519H61.8771V29.9423H61.999H62.121V29.4519H61.999ZM61.999 30.4326H61.8771V30.923H61.999H62.121V30.4326H61.999ZM61.999 31.4133H61.8771V31.9036H61.999H62.121V31.4133H61.999ZM61.999 32.394H61.8771V32.8843H61.999H62.121V32.394H61.999ZM61.999 33.3747H61.8771V33.865H61.999H62.121V33.3747H61.999ZM61.999 34.3554H61.8771V34.8457H61.999H62.121V34.3554H61.999ZM61.999 35.3361H61.8771V35.8264H61.999H62.121V35.3361H61.999ZM61.999 36.3168H61.8771V36.8071H61.999H62.121V36.3168H61.999ZM61.999 37.2975H61.8771V37.7878H61.999H62.121V37.2975H61.999ZM61.999 38.2781H61.8771V38.7685H61.999H62.121V38.2781H61.999ZM61.999 39.2588H61.8771V39.7492H61.999H62.121V39.2588H61.999ZM61.999 40.2395H61.8771V40.7299H61.999H62.121V40.2395H61.999ZM61.999 41.2202H61.8771V41.7106H61.999H62.121V41.2202H61.999ZM61.999 42.2009H61.8771V42.6912H61.999H62.121V42.2009H61.999ZM61.999 43.1816H61.8771V43.6719H61.999H62.121V43.1816H61.999ZM61.999 44.1623H61.8771V44.6526H61.999H62.121V44.1623H61.999ZM61.999 45.143H61.8771V45.6333H61.999H62.121V45.143H61.999ZM61.999 46.1237H61.8771V46.614H61.999H62.121V46.1237H61.999ZM61.999 47.1044H61.8771V47.5947H61.999H62.121V47.1044H61.999ZM61.999 48.085H61.8771V48.5754H61.999H62.121V48.085H61.999ZM61.999 49.0657H61.8771V49.5561H61.999H62.121V49.0657H61.999ZM61.999 50.0464H61.8771V50.5368H61.999H62.121V50.0464H61.999ZM61.999 51.0271H61.8771V51.5175H61.999H62.121V51.0271H61.999ZM61.999 52.0078H61.8771V52.4981H61.999H62.121V52.0078H61.999ZM61.999 52.9885H61.8771V53.4788H61.999H62.121V52.9885H61.999ZM61.999 53.9692H61.8771V54.4595H61.999H62.121V53.9692H61.999ZM61.999 54.9499H61.8771V55.4402H61.999H62.121V54.9499H61.999ZM61.999 55.9306H61.8771V56.4209H61.999H62.121V55.9306H61.999ZM61.999 56.9113H61.8771V57.4016H61.999H62.121V56.9113H61.999ZM61.999 57.8919H61.8771V58.3823H61.999H62.121V57.8919H61.999ZM61.999 58.8726H61.8771V59.363H61.999H62.121V58.8726H61.999ZM61.999 59.8533H61.8771V60.3437H61.999H62.121V59.8533H61.999ZM61.999 60.834H61.8771V61.3244H61.999H62.121V60.834H61.999ZM61.999 61.8147H61.8771V62.305H61.999H62.121V61.8147H61.999ZM61.999 62.7954H61.8771V63.2857H61.999H62.121V62.7954H61.999ZM61.999 63.7761H61.8771V64.2664H61.999H62.121V63.7761H61.999ZM61.999 64.7568H61.8771V65.2471H61.999H62.121V64.7568H61.999ZM61.999 65.7375H61.8771V66.2278H61.999H62.121V65.7375H61.999ZM61.999 66.7182H61.8771V67.2085H61.999H62.121V66.7182H61.999ZM61.999 67.6988H61.8771V68.1892H61.999H62.121V67.6988H61.999ZM61.999 68.6795H61.8771V68.9247H61.999H62.121V68.6795H61.999Z" fill="#E0E0E0"/>
<path d="M69.9259 68.9247C69.9259 68.9921 69.9805 69.0467 70.0479 69.0467C70.1152 69.0467 70.1698 68.9921 70.1698 68.9247H69.9259ZM70.0479 21.8516H69.9259V22.0967H70.0479H70.1698V21.8516H70.0479ZM70.0479 22.5871H69.9259V23.0774H70.0479H70.1698V22.5871H70.0479ZM70.0479 23.5678H69.9259V24.0581H70.0479H70.1698V23.5678H70.0479ZM70.0479 24.5485H69.9259V25.0388H70.0479H70.1698V24.5485H70.0479ZM70.0479 25.5292H69.9259V26.0195H70.0479H70.1698V25.5292H70.0479ZM70.0479 26.5098H69.9259V27.0002H70.0479H70.1698V26.5098H70.0479ZM70.0479 27.4905H69.9259V27.9809H70.0479H70.1698V27.4905H70.0479ZM70.0479 28.4712H69.9259V28.9616H70.0479H70.1698V28.4712H70.0479ZM70.0479 29.4519H69.9259V29.9423H70.0479H70.1698V29.4519H70.0479ZM70.0479 30.4326H69.9259V30.923H70.0479H70.1698V30.4326H70.0479ZM70.0479 31.4133H69.9259V31.9036H70.0479H70.1698V31.4133H70.0479ZM70.0479 32.394H69.9259V32.8843H70.0479H70.1698V32.394H70.0479ZM70.0479 33.3747H69.9259V33.865H70.0479H70.1698V33.3747H70.0479ZM70.0479 34.3554H69.9259V34.8457H70.0479H70.1698V34.3554H70.0479ZM70.0479 35.3361H69.9259V35.8264H70.0479H70.1698V35.3361H70.0479ZM70.0479 36.3168H69.9259V36.8071H70.0479H70.1698V36.3168H70.0479ZM70.0479 37.2975H69.9259V37.7878H70.0479H70.1698V37.2975H70.0479ZM70.0479 38.2781H69.9259V38.7685H70.0479H70.1698V38.2781H70.0479ZM70.0479 39.2588H69.9259V39.7492H70.0479H70.1698V39.2588H70.0479ZM70.0479 40.2395H69.9259V40.7299H70.0479H70.1698V40.2395H70.0479ZM70.0479 41.2202H69.9259V41.7106H70.0479H70.1698V41.2202H70.0479ZM70.0479 42.2009H69.9259V42.6912H70.0479H70.1698V42.2009H70.0479ZM70.0479 43.1816H69.9259V43.6719H70.0479H70.1698V43.1816H70.0479ZM70.0479 44.1623H69.9259V44.6526H70.0479H70.1698V44.1623H70.0479ZM70.0479 45.143H69.9259V45.6333H70.0479H70.1698V45.143H70.0479ZM70.0479 46.1237H69.9259V46.614H70.0479H70.1698V46.1237H70.0479ZM70.0479 47.1044H69.9259V47.5947H70.0479H70.1698V47.1044H70.0479ZM70.0479 48.085H69.9259V48.5754H70.0479H70.1698V48.085H70.0479ZM70.0479 49.0657H69.9259V49.5561H70.0479H70.1698V49.0657H70.0479ZM70.0479 50.0464H69.9259V50.5368H70.0479H70.1698V50.0464H70.0479ZM70.0479 51.0271H69.9259V51.5175H70.0479H70.1698V51.0271H70.0479ZM70.0479 52.0078H69.9259V52.4981H70.0479H70.1698V52.0078H70.0479ZM70.0479 52.9885H69.9259V53.4788H70.0479H70.1698V52.9885H70.0479ZM70.0479 53.9692H69.9259V54.4595H70.0479H70.1698V53.9692H70.0479ZM70.0479 54.9499H69.9259V55.4402H70.0479H70.1698V54.9499H70.0479ZM70.0479 55.9306H69.9259V56.4209H70.0479H70.1698V55.9306H70.0479ZM70.0479 56.9113H69.9259V57.4016H70.0479H70.1698V56.9113H70.0479ZM70.0479 57.8919H69.9259V58.3823H70.0479H70.1698V57.8919H70.0479ZM70.0479 58.8726H69.9259V59.363H70.0479H70.1698V58.8726H70.0479ZM70.0479 59.8533H69.9259V60.3437H70.0479H70.1698V59.8533H70.0479ZM70.0479 60.834H69.9259V61.3244H70.0479H70.1698V60.834H70.0479ZM70.0479 61.8147H69.9259V62.305H70.0479H70.1698V61.8147H70.0479ZM70.0479 62.7954H69.9259V63.2857H70.0479H70.1698V62.7954H70.0479ZM70.0479 63.7761H69.9259V64.2664H70.0479H70.1698V63.7761H70.0479ZM70.0479 64.7568H69.9259V65.2471H70.0479H70.1698V64.7568H70.0479ZM70.0479 65.7375H69.9259V66.2278H70.0479H70.1698V65.7375H70.0479ZM70.0479 66.7182H69.9259V67.2085H70.0479H70.1698V66.7182H70.0479ZM70.0479 67.6988H69.9259V68.1892H70.0479H70.1698V67.6988H70.0479ZM70.0479 68.6795H69.9259V68.9247H70.0479H70.1698V68.6795H70.0479Z" fill="#E0E0E0"/>
<path d="M77.9747 68.9247C77.9747 68.9921 78.0293 69.0467 78.0967 69.0467C78.164 69.0467 78.2186 68.9921 78.2186 68.9247H77.9747ZM78.0967 21.8516H77.9747V22.0967H78.0967H78.2186V21.8516H78.0967ZM78.0967 22.5871H77.9747V23.0774H78.0967H78.2186V22.5871H78.0967ZM78.0967 23.5678H77.9747V24.0581H78.0967H78.2186V23.5678H78.0967ZM78.0967 24.5485H77.9747V25.0388H78.0967H78.2186V24.5485H78.0967ZM78.0967 25.5292H77.9747V26.0195H78.0967H78.2186V25.5292H78.0967ZM78.0967 26.5098H77.9747V27.0002H78.0967H78.2186V26.5098H78.0967ZM78.0967 27.4905H77.9747V27.9809H78.0967H78.2186V27.4905H78.0967ZM78.0967 28.4712H77.9747V28.9616H78.0967H78.2186V28.4712H78.0967ZM78.0967 29.4519H77.9747V29.9423H78.0967H78.2186V29.4519H78.0967ZM78.0967 30.4326H77.9747V30.923H78.0967H78.2186V30.4326H78.0967ZM78.0967 31.4133H77.9747V31.9036H78.0967H78.2186V31.4133H78.0967ZM78.0967 32.394H77.9747V32.8843H78.0967H78.2186V32.394H78.0967ZM78.0967 33.3747H77.9747V33.865H78.0967H78.2186V33.3747H78.0967ZM78.0967 34.3554H77.9747V34.8457H78.0967H78.2186V34.3554H78.0967ZM78.0967 35.3361H77.9747V35.8264H78.0967H78.2186V35.3361H78.0967ZM78.0967 36.3168H77.9747V36.8071H78.0967H78.2186V36.3168H78.0967ZM78.0967 37.2975H77.9747V37.7878H78.0967H78.2186V37.2975H78.0967ZM78.0967 38.2781H77.9747V38.7685H78.0967H78.2186V38.2781H78.0967ZM78.0967 39.2588H77.9747V39.7492H78.0967H78.2186V39.2588H78.0967ZM78.0967 40.2395H77.9747V40.7299H78.0967H78.2186V40.2395H78.0967ZM78.0967 41.2202H77.9747V41.7106H78.0967H78.2186V41.2202H78.0967ZM78.0967 42.2009H77.9747V42.6912H78.0967H78.2186V42.2009H78.0967ZM78.0967 43.1816H77.9747V43.6719H78.0967H78.2186V43.1816H78.0967ZM78.0967 44.1623H77.9747V44.6526H78.0967H78.2186V44.1623H78.0967ZM78.0967 45.143H77.9747V45.6333H78.0967H78.2186V45.143H78.0967ZM78.0967 46.1237H77.9747V46.614H78.0967H78.2186V46.1237H78.0967ZM78.0967 47.1044H77.9747V47.5947H78.0967H78.2186V47.1044H78.0967ZM78.0967 48.085H77.9747V48.5754H78.0967H78.2186V48.085H78.0967ZM78.0967 49.0657H77.9747V49.5561H78.0967H78.2186V49.0657H78.0967ZM78.0967 50.0464H77.9747V50.5368H78.0967H78.2186V50.0464H78.0967ZM78.0967 51.0271H77.9747V51.5175H78.0967H78.2186V51.0271H78.0967ZM78.0967 52.0078H77.9747V52.4981H78.0967H78.2186V52.0078H78.0967ZM78.0967 52.9885H77.9747V53.4788H78.0967H78.2186V52.9885H78.0967ZM78.0967 53.9692H77.9747V54.4595H78.0967H78.2186V53.9692H78.0967ZM78.0967 54.9499H77.9747V55.4402H78.0967H78.2186V54.9499H78.0967ZM78.0967 55.9306H77.9747V56.4209H78.0967H78.2186V55.9306H78.0967ZM78.0967 56.9113H77.9747V57.4016H78.0967H78.2186V56.9113H78.0967ZM78.0967 57.8919H77.9747V58.3823H78.0967H78.2186V57.8919H78.0967ZM78.0967 58.8726H77.9747V59.363H78.0967H78.2186V58.8726H78.0967ZM78.0967 59.8533H77.9747V60.3437H78.0967H78.2186V59.8533H78.0967ZM78.0967 60.834H77.9747V61.3244H78.0967H78.2186V60.834H78.0967ZM78.0967 61.8147H77.9747V62.305H78.0967H78.2186V61.8147H78.0967ZM78.0967 62.7954H77.9747V63.2857H78.0967H78.2186V62.7954H78.0967ZM78.0967 63.7761H77.9747V64.2664H78.0967H78.2186V63.7761H78.0967ZM78.0967 64.7568H77.9747V65.2471H78.0967H78.2186V64.7568H78.0967ZM78.0967 65.7375H77.9747V66.2278H78.0967H78.2186V65.7375H78.0967ZM78.0967 66.7182H77.9747V67.2085H78.0967H78.2186V66.7182H78.0967ZM78.0967 67.6988H77.9747V68.1892H78.0967H78.2186V67.6988H78.0967ZM78.0967 68.6795H77.9747V68.9247H78.0967H78.2186V68.6795H78.0967Z" fill="#E0E0E0"/>
<path d="M15.8584 23.8516H14.9457V23.7191L15.3182 23.3409C15.3874 23.271 15.4456 23.2088 15.4926 23.1542C15.5402 23.0995 15.5764 23.0459 15.6012 22.9931C15.6259 22.9398 15.6383 22.8814 15.6383 22.8178C15.6383 22.7391 15.6148 22.6791 15.5678 22.6378C15.5215 22.5958 15.4602 22.5749 15.3839 22.5749C15.3173 22.5749 15.2582 22.5863 15.2067 22.6092C15.1553 22.6321 15.1026 22.6644 15.0486 22.7064L14.9638 22.5997C15.0006 22.5685 15.0406 22.5409 15.0838 22.5168C15.1277 22.4926 15.1743 22.4736 15.2239 22.4596C15.2741 22.4456 15.3274 22.4386 15.3839 22.4386C15.4697 22.4386 15.5437 22.4536 15.6059 22.4834C15.6682 22.5133 15.7161 22.5558 15.7498 22.6111C15.7841 22.6663 15.8012 22.7321 15.8012 22.8083C15.8012 22.882 15.7866 22.9506 15.7574 23.0141C15.7282 23.077 15.6872 23.1395 15.6345 23.2018C15.5818 23.2634 15.5202 23.3288 15.4497 23.3981L15.1467 23.7001V23.7067H15.8584V23.8516ZM16.5025 22.9998C16.5971 22.9998 16.6794 23.016 16.7492 23.0484C16.8191 23.0802 16.8731 23.1265 16.9112 23.1875C16.9499 23.2485 16.9693 23.3225 16.9693 23.4095C16.9693 23.5048 16.9487 23.587 16.9074 23.6563C16.8661 23.7248 16.8067 23.7779 16.7292 23.8154C16.6517 23.8522 16.559 23.8706 16.451 23.8706C16.3786 23.8706 16.3113 23.8643 16.249 23.8516C16.1868 23.8389 16.1344 23.8198 16.0918 23.7944V23.6439C16.1382 23.6718 16.1944 23.694 16.2605 23.7106C16.3265 23.7271 16.3907 23.7353 16.4529 23.7353C16.5234 23.7353 16.585 23.7242 16.6378 23.702C16.6911 23.6791 16.7324 23.6448 16.7616 23.5991C16.7915 23.5527 16.8064 23.4946 16.8064 23.4247C16.8064 23.332 16.7778 23.2605 16.7206 23.2104C16.6641 23.1596 16.5746 23.1341 16.452 23.1341C16.4126 23.1341 16.3694 23.1373 16.3224 23.1437C16.2754 23.15 16.2366 23.157 16.2062 23.1646L16.1261 23.1122L16.1795 22.4587H16.8721V22.6035H16.3148L16.2795 23.0236C16.3037 23.0185 16.3348 23.0135 16.3729 23.0084C16.411 23.0027 16.4542 22.9998 16.5025 22.9998ZM18.0993 23.1532C18.0993 23.2663 18.0907 23.3673 18.0735 23.4562C18.0564 23.5451 18.0294 23.6204 17.9926 23.682C17.9557 23.7436 17.9081 23.7906 17.8496 23.823C17.7912 23.8547 17.721 23.8706 17.6391 23.8706C17.5356 23.8706 17.4498 23.8424 17.3818 23.7858C17.3145 23.7293 17.264 23.6477 17.2304 23.541C17.1973 23.4336 17.1808 23.3044 17.1808 23.1532C17.1808 23.0046 17.1957 22.8769 17.2256 22.7702C17.2561 22.6629 17.305 22.5806 17.3723 22.5234C17.4396 22.4656 17.5286 22.4367 17.6391 22.4367C17.7439 22.4367 17.8303 22.4653 17.8982 22.5225C17.9662 22.579 18.0167 22.661 18.0497 22.7683C18.0827 22.875 18.0993 23.0033 18.0993 23.1532ZM17.3399 23.1532C17.3399 23.2828 17.3498 23.3908 17.3695 23.4771C17.3892 23.5635 17.4209 23.6283 17.4647 23.6715C17.5092 23.714 17.5673 23.7353 17.6391 23.7353C17.7109 23.7353 17.7687 23.714 17.8125 23.6715C17.8569 23.6289 17.889 23.5645 17.9087 23.4781C17.929 23.3917 17.9392 23.2834 17.9392 23.1532C17.9392 23.0255 17.9294 22.9188 17.9097 22.8331C17.89 22.7467 17.8582 22.6819 17.8144 22.6387C17.7706 22.5949 17.7121 22.573 17.6391 22.573C17.566 22.573 17.5076 22.5949 17.4638 22.6387C17.42 22.6819 17.3882 22.7467 17.3685 22.8331C17.3495 22.9188 17.3399 23.0255 17.3399 23.1532ZM19.2159 23.1532C19.2159 23.2663 19.2073 23.3673 19.1902 23.4562C19.173 23.5451 19.146 23.6204 19.1092 23.682C19.0723 23.7436 19.0247 23.7906 18.9663 23.823C18.9078 23.8547 18.8376 23.8706 18.7557 23.8706C18.6522 23.8706 18.5664 23.8424 18.4985 23.7858C18.4311 23.7293 18.3806 23.6477 18.347 23.541C18.3139 23.4336 18.2974 23.3044 18.2974 23.1532C18.2974 23.0046 18.3124 22.8769 18.3422 22.7702C18.3727 22.6629 18.4216 22.5806 18.4889 22.5234C18.5563 22.4656 18.6452 22.4367 18.7557 22.4367C18.8605 22.4367 18.9469 22.4653 19.0149 22.5225C19.0828 22.579 19.1333 22.661 19.1663 22.7683C19.1994 22.875 19.2159 23.0033 19.2159 23.1532ZM18.4565 23.1532C18.4565 23.2828 18.4664 23.3908 18.4861 23.4771C18.5058 23.5635 18.5375 23.6283 18.5814 23.6715C18.6258 23.714 18.6839 23.7353 18.7557 23.7353C18.8275 23.7353 18.8853 23.714 18.9291 23.6715C18.9736 23.6289 19.0056 23.5645 19.0253 23.4781C19.0457 23.3917 19.0558 23.2834 19.0558 23.1532C19.0558 23.0255 19.046 22.9188 19.0263 22.8331C19.0066 22.7467 18.9748 22.6819 18.931 22.6387C18.8872 22.5949 18.8287 22.573 18.7557 22.573C18.6827 22.573 18.6242 22.5949 18.5804 22.6387C18.5366 22.6819 18.5048 22.7467 18.4851 22.8331C18.4661 22.9188 18.4565 23.0255 18.4565 23.1532Z" fill="#212121"/>
<path d="M15.8584 31.2422H14.9457V31.1098L15.3182 30.7315C15.3874 30.6616 15.4456 30.5994 15.4926 30.5448C15.5402 30.4902 15.5764 30.4365 15.6012 30.3838C15.6259 30.3304 15.6383 30.272 15.6383 30.2085C15.6383 30.1297 15.6148 30.0697 15.5678 30.0284C15.5215 29.9865 15.4602 29.9655 15.3839 29.9655C15.3173 29.9655 15.2582 29.9769 15.2067 29.9998C15.1553 30.0227 15.1026 30.0551 15.0486 30.097L14.9638 29.9903C15.0006 29.9592 15.0406 29.9315 15.0838 29.9074C15.1277 29.8833 15.1743 29.8642 15.2239 29.8502C15.2741 29.8363 15.3274 29.8293 15.3839 29.8293C15.4697 29.8293 15.5437 29.8442 15.6059 29.874C15.6682 29.9039 15.7161 29.9465 15.7498 30.0017C15.7841 30.057 15.8012 30.1227 15.8012 30.1989C15.8012 30.2726 15.7866 30.3412 15.7574 30.4047C15.7282 30.4676 15.6872 30.5302 15.6345 30.5924C15.5818 30.654 15.5202 30.7194 15.4497 30.7887L15.1467 31.0907V31.0974H15.8584V31.2422ZM16.9826 30.5438C16.9826 30.6569 16.9741 30.7579 16.9569 30.8468C16.9398 30.9357 16.9128 31.011 16.8759 31.0726C16.8391 31.1342 16.7915 31.1812 16.733 31.2136C16.6746 31.2454 16.6044 31.2612 16.5225 31.2612C16.4189 31.2612 16.3332 31.233 16.2652 31.1764C16.1979 31.1199 16.1474 31.0383 16.1137 30.9316C16.0807 30.8243 16.0642 30.695 16.0642 30.5438C16.0642 30.3952 16.0791 30.2675 16.109 30.1608C16.1395 30.0535 16.1884 29.9712 16.2557 29.9141C16.323 29.8563 16.412 29.8274 16.5225 29.8274C16.6273 29.8274 16.7137 29.8559 16.7816 29.9131C16.8496 29.9696 16.9001 30.0516 16.9331 30.1589C16.9661 30.2656 16.9826 30.3939 16.9826 30.5438ZM16.2233 30.5438C16.2233 30.6734 16.2332 30.7814 16.2528 30.8678C16.2725 30.9541 16.3043 31.0189 16.3481 31.0621C16.3926 31.1047 16.4507 31.126 16.5225 31.126C16.5942 31.126 16.652 31.1047 16.6959 31.0621C16.7403 31.0196 16.7724 30.9551 16.7921 30.8687C16.8124 30.7823 16.8226 30.674 16.8226 30.5438C16.8226 30.4162 16.8127 30.3095 16.7931 30.2237C16.7734 30.1373 16.7416 30.0725 16.6978 30.0293C16.654 29.9855 16.5955 29.9636 16.5225 29.9636C16.4494 29.9636 16.391 29.9855 16.3472 30.0293C16.3033 30.0725 16.2716 30.1373 16.2519 30.2237C16.2328 30.3095 16.2233 30.4162 16.2233 30.5438ZM18.0993 30.5438C18.0993 30.6569 18.0907 30.7579 18.0735 30.8468C18.0564 30.9357 18.0294 31.011 17.9926 31.0726C17.9557 31.1342 17.9081 31.1812 17.8496 31.2136C17.7912 31.2454 17.721 31.2612 17.6391 31.2612C17.5356 31.2612 17.4498 31.233 17.3818 31.1764C17.3145 31.1199 17.264 31.0383 17.2304 30.9316C17.1973 30.8243 17.1808 30.695 17.1808 30.5438C17.1808 30.3952 17.1957 30.2675 17.2256 30.1608C17.2561 30.0535 17.305 29.9712 17.3723 29.9141C17.4396 29.8563 17.5286 29.8274 17.6391 29.8274C17.7439 29.8274 17.8303 29.8559 17.8982 29.9131C17.9662 29.9696 18.0167 30.0516 18.0497 30.1589C18.0827 30.2656 18.0993 30.3939 18.0993 30.5438ZM17.3399 30.5438C17.3399 30.6734 17.3498 30.7814 17.3695 30.8678C17.3892 30.9541 17.4209 31.0189 17.4647 31.0621C17.5092 31.1047 17.5673 31.126 17.6391 31.126C17.7109 31.126 17.7687 31.1047 17.8125 31.0621C17.8569 31.0196 17.889 30.9551 17.9087 30.8687C17.929 30.7823 17.9392 30.674 17.9392 30.5438C17.9392 30.4162 17.9294 30.3095 17.9097 30.2237C17.89 30.1373 17.8582 30.0725 17.8144 30.0293C17.7706 29.9855 17.7121 29.9636 17.6391 29.9636C17.566 29.9636 17.5076 29.9855 17.4638 30.0293C17.42 30.0725 17.3882 30.1373 17.3685 30.2237C17.3495 30.3095 17.3399 30.4162 17.3399 30.5438ZM19.2159 30.5438C19.2159 30.6569 19.2073 30.7579 19.1902 30.8468C19.173 30.9357 19.146 31.011 19.1092 31.0726C19.0723 31.1342 19.0247 31.1812 18.9663 31.2136C18.9078 31.2454 18.8376 31.2612 18.7557 31.2612C18.6522 31.2612 18.5664 31.233 18.4985 31.1764C18.4311 31.1199 18.3806 31.0383 18.347 30.9316C18.3139 30.8243 18.2974 30.695 18.2974 30.5438C18.2974 30.3952 18.3124 30.2675 18.3422 30.1608C18.3727 30.0535 18.4216 29.9712 18.4889 29.9141C18.5563 29.8563 18.6452 29.8274 18.7557 29.8274C18.8605 29.8274 18.9469 29.8559 19.0149 29.9131C19.0828 29.9696 19.1333 30.0516 19.1663 30.1589C19.1994 30.2656 19.2159 30.3939 19.2159 30.5438ZM18.4565 30.5438C18.4565 30.6734 18.4664 30.7814 18.4861 30.8678C18.5058 30.9541 18.5375 31.0189 18.5814 31.0621C18.6258 31.1047 18.6839 31.126 18.7557 31.126C18.8275 31.126 18.8853 31.1047 18.9291 31.0621C18.9736 31.0196 19.0056 30.9551 19.0253 30.8687C19.0457 30.7823 19.0558 30.674 19.0558 30.5438C19.0558 30.4162 19.046 30.3095 19.0263 30.2237C19.0066 30.1373 18.9748 30.0725 18.931 30.0293C18.8872 29.9855 18.8287 29.9636 18.7557 29.9636C18.6827 29.9636 18.6242 29.9855 18.5804 30.0293C18.5366 30.0725 18.5048 30.1373 18.4851 30.2237C18.4661 30.3095 18.4565 30.4162 18.4565 30.5438Z" fill="#212121"/>
<path d="M15.5345 38.6328H15.3801V37.6458C15.3801 37.6083 15.3801 37.5762 15.3801 37.5495C15.3808 37.5222 15.3814 37.4975 15.382 37.4752C15.3833 37.4524 15.3849 37.4292 15.3868 37.4057C15.3671 37.426 15.3487 37.4435 15.3315 37.4581C15.3144 37.4721 15.2931 37.4895 15.2677 37.5105L15.1086 37.6381L15.0257 37.5305L15.403 37.2399H15.5345V38.6328ZM16.5025 37.7811C16.5971 37.7811 16.6794 37.7973 16.7492 37.8296C16.8191 37.8614 16.8731 37.9078 16.9112 37.9688C16.9499 38.0297 16.9693 38.1037 16.9693 38.1907C16.9693 38.286 16.9487 38.3683 16.9074 38.4375C16.8661 38.5061 16.8067 38.5591 16.7292 38.5966C16.6517 38.6334 16.559 38.6519 16.451 38.6519C16.3786 38.6519 16.3113 38.6455 16.249 38.6328C16.1868 38.6201 16.1344 38.6011 16.0918 38.5756V38.4251C16.1382 38.4531 16.1944 38.4753 16.2605 38.4918C16.3265 38.5083 16.3907 38.5166 16.4529 38.5166C16.5234 38.5166 16.585 38.5055 16.6378 38.4832C16.6911 38.4604 16.7324 38.4261 16.7616 38.3803C16.7915 38.334 16.8064 38.2759 16.8064 38.206C16.8064 38.1132 16.7778 38.0418 16.7206 37.9916C16.6641 37.9408 16.5746 37.9154 16.452 37.9154C16.4126 37.9154 16.3694 37.9186 16.3224 37.9249C16.2754 37.9313 16.2366 37.9383 16.2062 37.9459L16.1261 37.8935L16.1795 37.2399H16.8721V37.3847H16.3148L16.2795 37.8049C16.3037 37.7998 16.3348 37.7947 16.3729 37.7896C16.411 37.7839 16.4542 37.7811 16.5025 37.7811ZM18.0993 37.9345C18.0993 38.0475 18.0907 38.1485 18.0735 38.2374C18.0564 38.3263 18.0294 38.4016 17.9926 38.4632C17.9557 38.5248 17.9081 38.5718 17.8496 38.6042C17.7912 38.636 17.721 38.6519 17.6391 38.6519C17.5356 38.6519 17.4498 38.6236 17.3818 38.5671C17.3145 38.5105 17.264 38.4289 17.2304 38.3222C17.1973 38.2149 17.1808 38.0856 17.1808 37.9345C17.1808 37.7858 17.1957 37.6582 17.2256 37.5514C17.2561 37.4441 17.305 37.3619 17.3723 37.3047C17.4396 37.2469 17.5286 37.218 17.6391 37.218C17.7439 37.218 17.8303 37.2466 17.8982 37.3037C17.9662 37.3603 18.0167 37.4422 18.0497 37.5495C18.0827 37.6563 18.0993 37.7846 18.0993 37.9345ZM17.3399 37.9345C17.3399 38.064 17.3498 38.172 17.3695 38.2584C17.3892 38.3448 17.4209 38.4096 17.4647 38.4527C17.5092 38.4953 17.5673 38.5166 17.6391 38.5166C17.7109 38.5166 17.7687 38.4953 17.8125 38.4527C17.8569 38.4102 17.889 38.3457 17.9087 38.2593C17.929 38.173 17.9392 38.0647 17.9392 37.9345C17.9392 37.8068 17.9294 37.7001 17.9097 37.6143C17.89 37.5279 17.8582 37.4632 17.8144 37.42C17.7706 37.3761 17.7121 37.3542 17.6391 37.3542C17.566 37.3542 17.5076 37.3761 17.4638 37.42C17.42 37.4632 17.3882 37.5279 17.3685 37.6143C17.3495 37.7001 17.3399 37.8068 17.3399 37.9345ZM19.2159 37.9345C19.2159 38.0475 19.2073 38.1485 19.1902 38.2374C19.173 38.3263 19.146 38.4016 19.1092 38.4632C19.0723 38.5248 19.0247 38.5718 18.9663 38.6042C18.9078 38.636 18.8376 38.6519 18.7557 38.6519C18.6522 38.6519 18.5664 38.6236 18.4985 38.5671C18.4311 38.5105 18.3806 38.4289 18.347 38.3222C18.3139 38.2149 18.2974 38.0856 18.2974 37.9345C18.2974 37.7858 18.3124 37.6582 18.3422 37.5514C18.3727 37.4441 18.4216 37.3619 18.4889 37.3047C18.5563 37.2469 18.6452 37.218 18.7557 37.218C18.8605 37.218 18.9469 37.2466 19.0149 37.3037C19.0828 37.3603 19.1333 37.4422 19.1663 37.5495C19.1994 37.6563 19.2159 37.7846 19.2159 37.9345ZM18.4565 37.9345C18.4565 38.064 18.4664 38.172 18.4861 38.2584C18.5058 38.3448 18.5375 38.4096 18.5814 38.4527C18.6258 38.4953 18.6839 38.5166 18.7557 38.5166C18.8275 38.5166 18.8853 38.4953 18.9291 38.4527C18.9736 38.4102 19.0056 38.3457 19.0253 38.2593C19.0457 38.173 19.0558 38.0647 19.0558 37.9345C19.0558 37.8068 19.046 37.7001 19.0263 37.6143C19.0066 37.5279 18.9748 37.4632 18.931 37.42C18.8872 37.3761 18.8287 37.3542 18.7557 37.3542C18.6827 37.3542 18.6242 37.3761 18.5804 37.42C18.5366 37.4632 18.5048 37.5279 18.4851 37.6143C18.4661 37.7001 18.4565 37.8068 18.4565 37.9345Z" fill="#212121"/>
<path d="M15.5345 46.0234H15.3801V45.0364C15.3801 44.9989 15.3801 44.9668 15.3801 44.9402C15.3808 44.9129 15.3814 44.8881 15.382 44.8659C15.3833 44.843 15.3849 44.8198 15.3868 44.7963C15.3671 44.8166 15.3487 44.8341 15.3315 44.8487C15.3144 44.8627 15.2931 44.8801 15.2677 44.9011L15.1086 45.0288L15.0257 44.9211L15.403 44.6305H15.5345V46.0234ZM16.9826 45.3251C16.9826 45.4381 16.9741 45.5391 16.9569 45.628C16.9398 45.717 16.9128 45.7922 16.8759 45.8538C16.8391 45.9155 16.7915 45.9625 16.733 45.9949C16.6746 46.0266 16.6044 46.0425 16.5225 46.0425C16.4189 46.0425 16.3332 46.0142 16.2652 45.9577C16.1979 45.9012 16.1474 45.8196 16.1137 45.7128C16.0807 45.6055 16.0642 45.4762 16.0642 45.3251C16.0642 45.1764 16.0791 45.0488 16.109 44.9421C16.1395 44.8347 16.1884 44.7525 16.2557 44.6953C16.323 44.6375 16.412 44.6086 16.5225 44.6086C16.6273 44.6086 16.7137 44.6372 16.7816 44.6944C16.8496 44.7509 16.9001 44.8328 16.9331 44.9402C16.9661 45.0469 16.9826 45.1752 16.9826 45.3251ZM16.2233 45.3251C16.2233 45.4546 16.2332 45.5626 16.2528 45.649C16.2725 45.7354 16.3043 45.8002 16.3481 45.8434C16.3926 45.8859 16.4507 45.9072 16.5225 45.9072C16.5942 45.9072 16.652 45.8859 16.6959 45.8434C16.7403 45.8008 16.7724 45.7363 16.7921 45.65C16.8124 45.5636 16.8226 45.4553 16.8226 45.3251C16.8226 45.1974 16.8127 45.0907 16.7931 45.005C16.7734 44.9186 16.7416 44.8538 16.6978 44.8106C16.654 44.7668 16.5955 44.7449 16.5225 44.7449C16.4494 44.7449 16.391 44.7668 16.3472 44.8106C16.3033 44.8538 16.2716 44.9186 16.2519 45.005C16.2328 45.0907 16.2233 45.1974 16.2233 45.3251ZM18.0993 45.3251C18.0993 45.4381 18.0907 45.5391 18.0735 45.628C18.0564 45.717 18.0294 45.7922 17.9926 45.8538C17.9557 45.9155 17.9081 45.9625 17.8496 45.9949C17.7912 46.0266 17.721 46.0425 17.6391 46.0425C17.5356 46.0425 17.4498 46.0142 17.3818 45.9577C17.3145 45.9012 17.264 45.8196 17.2304 45.7128C17.1973 45.6055 17.1808 45.4762 17.1808 45.3251C17.1808 45.1764 17.1957 45.0488 17.2256 44.9421C17.2561 44.8347 17.305 44.7525 17.3723 44.6953C17.4396 44.6375 17.5286 44.6086 17.6391 44.6086C17.7439 44.6086 17.8303 44.6372 17.8982 44.6944C17.9662 44.7509 18.0167 44.8328 18.0497 44.9402C18.0827 45.0469 18.0993 45.1752 18.0993 45.3251ZM17.3399 45.3251C17.3399 45.4546 17.3498 45.5626 17.3695 45.649C17.3892 45.7354 17.4209 45.8002 17.4647 45.8434C17.5092 45.8859 17.5673 45.9072 17.6391 45.9072C17.7109 45.9072 17.7687 45.8859 17.8125 45.8434C17.8569 45.8008 17.889 45.7363 17.9087 45.65C17.929 45.5636 17.9392 45.4553 17.9392 45.3251C17.9392 45.1974 17.9294 45.0907 17.9097 45.005C17.89 44.9186 17.8582 44.8538 17.8144 44.8106C17.7706 44.7668 17.7121 44.7449 17.6391 44.7449C17.566 44.7449 17.5076 44.7668 17.4638 44.8106C17.42 44.8538 17.3882 44.9186 17.3685 45.005C17.3495 45.0907 17.3399 45.1974 17.3399 45.3251ZM19.2159 45.3251C19.2159 45.4381 19.2073 45.5391 19.1902 45.628C19.173 45.717 19.146 45.7922 19.1092 45.8538C19.0723 45.9155 19.0247 45.9625 18.9663 45.9949C18.9078 46.0266 18.8376 46.0425 18.7557 46.0425C18.6522 46.0425 18.5664 46.0142 18.4985 45.9577C18.4311 45.9012 18.3806 45.8196 18.347 45.7128C18.3139 45.6055 18.2974 45.4762 18.2974 45.3251C18.2974 45.1764 18.3124 45.0488 18.3422 44.9421C18.3727 44.8347 18.4216 44.7525 18.4889 44.6953C18.5563 44.6375 18.6452 44.6086 18.7557 44.6086C18.8605 44.6086 18.9469 44.6372 19.0149 44.6944C19.0828 44.7509 19.1333 44.8328 19.1663 44.9402C19.1994 45.0469 19.2159 45.1752 19.2159 45.3251ZM18.4565 45.3251C18.4565 45.4546 18.4664 45.5626 18.4861 45.649C18.5058 45.7354 18.5375 45.8002 18.5814 45.8434C18.6258 45.8859 18.6839 45.9072 18.7557 45.9072C18.8275 45.9072 18.8853 45.8859 18.9291 45.8434C18.9736 45.8008 19.0056 45.7363 19.0253 45.65C19.0457 45.5636 19.0558 45.4553 19.0558 45.3251C19.0558 45.1974 19.046 45.0907 19.0263 45.005C19.0066 44.9186 18.9748 44.8538 18.931 44.8106C18.8872 44.7668 18.8287 44.7449 18.7557 44.7449C18.6827 44.7449 18.6242 44.7668 18.5804 44.8106C18.5366 44.8538 18.5048 44.9186 18.4851 45.005C18.4661 45.0907 18.4565 45.1974 18.4565 45.3251Z" fill="#212121"/>
<path d="M16.5024 52.5623C16.597 52.5623 16.6793 52.5785 16.7491 52.6109C16.819 52.6427 16.873 52.689 16.9111 52.75C16.9499 52.811 16.9692 52.885 16.9692 52.972C16.9692 53.0673 16.9486 53.1495 16.9073 53.2188C16.866 53.2873 16.8066 53.3404 16.7291 53.3779C16.6516 53.4147 16.5589 53.4331 16.4509 53.4331C16.3785 53.4331 16.3112 53.4268 16.249 53.4141C16.1867 53.4014 16.1343 53.3823 16.0917 53.3569V53.2064C16.1381 53.2343 16.1943 53.2565 16.2604 53.2731C16.3264 53.2896 16.3906 53.2978 16.4528 53.2978C16.5233 53.2978 16.585 53.2867 16.6377 53.2645C16.691 53.2416 16.7323 53.2073 16.7615 53.1616C16.7914 53.1152 16.8063 53.0571 16.8063 52.9872C16.8063 52.8945 16.7777 52.823 16.7206 52.7729C16.664 52.7221 16.5745 52.6966 16.4519 52.6966C16.4125 52.6966 16.3693 52.6998 16.3223 52.7062C16.2753 52.7125 16.2366 52.7195 16.2061 52.7271L16.126 52.6747L16.1794 52.0212H16.872V52.166H16.3147L16.2794 52.5861C16.3036 52.581 16.3347 52.576 16.3728 52.5709C16.4109 52.5652 16.4541 52.5623 16.5024 52.5623ZM18.0992 52.7157C18.0992 52.8288 18.0906 52.9298 18.0735 53.0187C18.0563 53.1076 18.0293 53.1829 17.9925 53.2445C17.9556 53.3061 17.908 53.3531 17.8496 53.3855C17.7911 53.4172 17.7209 53.4331 17.639 53.4331C17.5355 53.4331 17.4497 53.4049 17.3818 53.3483C17.3144 53.2918 17.2639 53.2102 17.2303 53.1035C17.1972 52.9961 17.1807 52.8669 17.1807 52.7157C17.1807 52.5671 17.1957 52.4394 17.2255 52.3327C17.256 52.2254 17.3049 52.1431 17.3722 52.0859C17.4396 52.0281 17.5285 51.9992 17.639 51.9992C17.7438 51.9992 17.8302 52.0278 17.8982 52.085C17.9661 52.1415 18.0166 52.2235 18.0496 52.3308C18.0827 52.4375 18.0992 52.5658 18.0992 52.7157ZM17.3398 52.7157C17.3398 52.8453 17.3497 52.9533 17.3694 53.0396C17.3891 53.126 17.4208 53.1908 17.4647 53.234C17.5091 53.2765 17.5672 53.2978 17.639 53.2978C17.7108 53.2978 17.7686 53.2765 17.8124 53.234C17.8569 53.1914 17.8889 53.127 17.9086 53.0406C17.929 52.9542 17.9391 52.8459 17.9391 52.7157C17.9391 52.588 17.9293 52.4813 17.9096 52.3956C17.8899 52.3092 17.8581 52.2444 17.8143 52.2012C17.7705 52.1574 17.712 52.1355 17.639 52.1355C17.566 52.1355 17.5075 52.1574 17.4637 52.2012C17.4199 52.2444 17.3881 52.3092 17.3684 52.3956C17.3494 52.4813 17.3398 52.588 17.3398 52.7157ZM19.2158 52.7157C19.2158 52.8288 19.2072 52.9298 19.1901 53.0187C19.1729 53.1076 19.1459 53.1829 19.1091 53.2445C19.0722 53.3061 19.0246 53.3531 18.9662 53.3855C18.9077 53.4172 18.8376 53.4331 18.7556 53.4331C18.6521 53.4331 18.5663 53.4049 18.4984 53.3483C18.4311 53.2918 18.3806 53.2102 18.3469 53.1035C18.3139 52.9961 18.2974 52.8669 18.2974 52.7157C18.2974 52.5671 18.3123 52.4394 18.3421 52.3327C18.3726 52.2254 18.4215 52.1431 18.4889 52.0859C18.5562 52.0281 18.6451 51.9992 18.7556 51.9992C18.8604 51.9992 18.9468 52.0278 19.0148 52.085C19.0827 52.1415 19.1332 52.2235 19.1663 52.3308C19.1993 52.4375 19.2158 52.5658 19.2158 52.7157ZM18.4565 52.7157C18.4565 52.8453 18.4663 52.9533 18.486 53.0396C18.5057 53.126 18.5374 53.1908 18.5813 53.234C18.6257 53.2765 18.6838 53.2978 18.7556 53.2978C18.8274 53.2978 18.8852 53.2765 18.929 53.234C18.9735 53.1914 19.0056 53.127 19.0252 53.0406C19.0456 52.9542 19.0557 52.8459 19.0557 52.7157C19.0557 52.588 19.0459 52.4813 19.0262 52.3956C19.0065 52.3092 18.9748 52.2444 18.9309 52.2012C18.8871 52.1574 18.8287 52.1355 18.7556 52.1355C18.6826 52.1355 18.6241 52.1574 18.5803 52.2012C18.5365 52.2444 18.5047 52.3092 18.485 52.3956C18.466 52.4813 18.4565 52.588 18.4565 52.7157Z" fill="#212121"/>
<path d="M16.651 60.8047H16.4967V59.8176C16.4967 59.7802 16.4967 59.7481 16.4967 59.7214C16.4973 59.6941 16.4979 59.6693 16.4986 59.6471C16.4998 59.6242 16.5014 59.6011 16.5033 59.5776C16.4836 59.5979 16.4652 59.6153 16.4481 59.63C16.4309 59.6439 16.4096 59.6614 16.3842 59.6824L16.2251 59.81L16.1422 59.7024L16.5195 59.4118H16.651V60.8047ZM18.0992 60.1063C18.0992 60.2194 18.0906 60.3204 18.0735 60.4093C18.0563 60.4982 18.0293 60.5735 17.9925 60.6351C17.9556 60.6967 17.908 60.7437 17.8496 60.7761C17.7911 60.8079 17.7209 60.8237 17.639 60.8237C17.5355 60.8237 17.4497 60.7955 17.3818 60.7389C17.3144 60.6824 17.2639 60.6008 17.2303 60.4941C17.1972 60.3868 17.1807 60.2575 17.1807 60.1063C17.1807 59.9577 17.1957 59.83 17.2255 59.7233C17.256 59.616 17.3049 59.5337 17.3722 59.4766C17.4396 59.4188 17.5285 59.3899 17.639 59.3899C17.7438 59.3899 17.8302 59.4184 17.8982 59.4756C17.9661 59.5321 18.0166 59.6141 18.0496 59.7214C18.0827 59.8281 18.0992 59.9564 18.0992 60.1063ZM17.3398 60.1063C17.3398 60.2359 17.3497 60.3439 17.3694 60.4303C17.3891 60.5166 17.4208 60.5814 17.4647 60.6246C17.5091 60.6672 17.5672 60.6885 17.639 60.6885C17.7108 60.6885 17.7686 60.6672 17.8124 60.6246C17.8569 60.5821 17.8889 60.5176 17.9086 60.4312C17.929 60.3448 17.9391 60.2365 17.9391 60.1063C17.9391 59.9787 17.9293 59.872 17.9096 59.7862C17.8899 59.6998 17.8581 59.635 17.8143 59.5918C17.7705 59.548 17.712 59.5261 17.639 59.5261C17.566 59.5261 17.5075 59.548 17.4637 59.5918C17.4199 59.635 17.3881 59.6998 17.3684 59.7862C17.3494 59.872 17.3398 59.9787 17.3398 60.1063ZM19.2158 60.1063C19.2158 60.2194 19.2072 60.3204 19.1901 60.4093C19.1729 60.4982 19.1459 60.5735 19.1091 60.6351C19.0722 60.6967 19.0246 60.7437 18.9662 60.7761C18.9077 60.8079 18.8376 60.8237 18.7556 60.8237C18.6521 60.8237 18.5663 60.7955 18.4984 60.7389C18.4311 60.6824 18.3806 60.6008 18.3469 60.4941C18.3139 60.3868 18.2974 60.2575 18.2974 60.1063C18.2974 59.9577 18.3123 59.83 18.3421 59.7233C18.3726 59.616 18.4215 59.5337 18.4889 59.4766C18.5562 59.4188 18.6451 59.3899 18.7556 59.3899C18.8604 59.3899 18.9468 59.4184 19.0148 59.4756C19.0827 59.5321 19.1332 59.6141 19.1663 59.7214C19.1993 59.8281 19.2158 59.9564 19.2158 60.1063ZM18.4565 60.1063C18.4565 60.2359 18.4663 60.3439 18.486 60.4303C18.5057 60.5166 18.5374 60.5814 18.5813 60.6246C18.6257 60.6672 18.6838 60.6885 18.7556 60.6885C18.8274 60.6885 18.8852 60.6672 18.929 60.6246C18.9735 60.5821 19.0056 60.5176 19.0252 60.4312C19.0456 60.3448 19.0557 60.2365 19.0557 60.1063C19.0557 59.9787 19.0459 59.872 19.0262 59.7862C19.0065 59.6998 18.9748 59.635 18.9309 59.5918C18.8871 59.548 18.8287 59.5261 18.7556 59.5261C18.6826 59.5261 18.6241 59.548 18.5803 59.5918C18.5365 59.635 18.5047 59.6998 18.485 59.7862C18.466 59.872 18.4565 59.9787 18.4565 60.1063Z" fill="#212121"/>
<path d="M19.2158 67.493C19.2158 67.6061 19.2072 67.7071 19.1901 67.796C19.1729 67.8849 19.1459 67.9602 19.1091 68.0218C19.0722 68.0834 19.0246 68.1304 18.9662 68.1628C18.9077 68.1946 18.8376 68.2105 18.7556 68.2105C18.6521 68.2105 18.5663 68.1822 18.4984 68.1257C18.4311 68.0691 18.3806 67.9875 18.3469 67.8808C18.3139 67.7735 18.2974 67.6442 18.2974 67.493C18.2974 67.3444 18.3123 67.2167 18.3421 67.11C18.3726 67.0027 18.4215 66.9204 18.4889 66.8633C18.5562 66.8055 18.6451 66.7766 18.7556 66.7766C18.8604 66.7766 18.9468 66.8052 19.0148 66.8623C19.0827 66.9189 19.1332 67.0008 19.1663 67.1081C19.1993 67.2148 19.2158 67.3431 19.2158 67.493ZM18.4565 67.493C18.4565 67.6226 18.4663 67.7306 18.486 67.817C18.5057 67.9034 18.5374 67.9681 18.5813 68.0113C18.6257 68.0539 18.6838 68.0752 18.7556 68.0752C18.8274 68.0752 18.8852 68.0539 18.929 68.0113C18.9735 67.9688 19.0056 67.9043 19.0252 67.8179C19.0456 67.7315 19.0557 67.6233 19.0557 67.493C19.0557 67.3654 19.0459 67.2587 19.0262 67.1729C19.0065 67.0865 18.9748 67.0218 18.9309 66.9786C18.8871 66.9347 18.8287 66.9128 18.7556 66.9128C18.6826 66.9128 18.6241 66.9347 18.5803 66.9786C18.5365 67.0218 18.5047 67.0865 18.485 67.1729C18.466 67.2587 18.4565 67.3654 18.4565 67.493Z" fill="#212121"/>
<path d="M30.6416 71.4141H30.4873V70.427C30.4873 70.3895 30.4873 70.3575 30.4873 70.3308C30.4879 70.3035 30.4886 70.2787 30.4892 70.2565C30.4905 70.2336 30.4921 70.2104 30.494 70.1869C30.4743 70.2073 30.4559 70.2247 30.4387 70.2393C30.4216 70.2533 30.4003 70.2708 30.3749 70.2917L30.2158 70.4194L30.1329 70.3117L30.5102 70.0212H30.6416V71.4141Z" fill="#212121"/>
<path d="M22.9224 70.7157C22.9224 70.8288 22.9138 70.9298 22.8967 71.0187C22.8795 71.1076 22.8526 71.1829 22.8157 71.2445C22.7789 71.3061 22.7312 71.3531 22.6728 71.3855C22.6144 71.4172 22.5442 71.4331 22.4622 71.4331C22.3587 71.4331 22.273 71.4049 22.205 71.3483C22.1377 71.2918 22.0872 71.2102 22.0535 71.1035C22.0205 70.9961 22.004 70.8669 22.004 70.7157C22.004 70.5671 22.0189 70.4394 22.0488 70.3327C22.0792 70.2254 22.1282 70.1431 22.1955 70.0859C22.2628 70.0281 22.3517 69.9992 22.4622 69.9992C22.567 69.9992 22.6534 70.0278 22.7214 70.085C22.7894 70.1415 22.8399 70.2235 22.8729 70.3308C22.9059 70.4375 22.9224 70.5658 22.9224 70.7157ZM22.1631 70.7157C22.1631 70.8453 22.1729 70.9533 22.1926 71.0396C22.2123 71.126 22.2441 71.1908 22.2879 71.234C22.3324 71.2765 22.3905 71.2978 22.4622 71.2978C22.534 71.2978 22.5918 71.2765 22.6356 71.234C22.6801 71.1914 22.7122 71.127 22.7319 71.0406C22.7522 70.9542 22.7624 70.8459 22.7624 70.7157C22.7624 70.588 22.7525 70.4813 22.7328 70.3956C22.7131 70.3092 22.6814 70.2444 22.6376 70.2012C22.5937 70.1574 22.5353 70.1355 22.4622 70.1355C22.3892 70.1355 22.3308 70.1574 22.2869 70.2012C22.2431 70.2444 22.2114 70.3092 22.1917 70.3956C22.1726 70.4813 22.1631 70.588 22.1631 70.7157Z" fill="#212121"/>
<path d="M39.0125 71.4141H38.0997V71.2816L38.4723 70.9034C38.5415 70.8335 38.5996 70.7713 38.6466 70.7167C38.6942 70.662 38.7304 70.6084 38.7552 70.5556C38.78 70.5023 38.7924 70.4439 38.7924 70.3803C38.7924 70.3016 38.7689 70.2416 38.7219 70.2003C38.6755 70.1583 38.6142 70.1374 38.538 70.1374C38.4713 70.1374 38.4122 70.1488 38.3608 70.1717C38.3093 70.1946 38.2566 70.2269 38.2026 70.2689L38.1178 70.1622C38.1547 70.131 38.1947 70.1034 38.2379 70.0793C38.2817 70.0551 38.3284 70.0361 38.3779 70.0221C38.4281 70.0081 38.4815 70.0011 38.538 70.0011C38.6237 70.0011 38.6977 70.0161 38.76 70.0459C38.8222 70.0758 38.8702 70.1183 38.9038 70.1736C38.9381 70.2288 38.9553 70.2946 38.9553 70.3708C38.9553 70.4445 38.9407 70.5131 38.9115 70.5766C38.8822 70.6395 38.8413 70.702 38.7886 70.7643C38.7358 70.8259 38.6742 70.8913 38.6037 70.9606L38.3008 71.2626V71.2692H39.0125V71.4141Z" fill="#212121"/>
<path d="M47.254 70.346C47.254 70.4083 47.2419 70.4623 47.2178 70.508C47.1936 70.5537 47.16 70.5912 47.1168 70.6204C47.0736 70.649 47.0228 70.669 46.9643 70.6804V70.6881C47.0749 70.702 47.1578 70.7376 47.213 70.7948C47.2689 70.8519 47.2969 70.9269 47.2969 71.0196C47.2969 71.1003 47.2778 71.1717 47.2397 71.234C47.2022 71.2962 47.1444 71.3451 47.0663 71.3807C46.9888 71.4157 46.8894 71.4331 46.7681 71.4331C46.6944 71.4331 46.6261 71.4271 46.5632 71.415C46.501 71.4036 46.4413 71.3842 46.3841 71.3569V71.2083C46.4419 71.2369 46.5048 71.2594 46.5728 71.2759C46.6407 71.2918 46.7065 71.2997 46.77 71.2997C46.897 71.2997 46.9888 71.2746 47.0453 71.2245C47.1019 71.1737 47.1301 71.1044 47.1301 71.0168C47.1301 70.9564 47.1142 70.9078 47.0825 70.871C47.0514 70.8335 47.0063 70.8062 46.9472 70.7891C46.8888 70.7713 46.8183 70.7624 46.7357 70.7624H46.5966V70.6271H46.7366C46.8122 70.6271 46.8764 70.616 46.9291 70.5938C46.9818 70.5715 47.0218 70.5404 47.0491 70.5004C47.0771 70.4597 47.0911 70.4118 47.0911 70.3565C47.0911 70.286 47.0676 70.2317 47.0206 70.1936C46.9736 70.1549 46.9097 70.1355 46.8291 70.1355C46.7795 70.1355 46.7344 70.1406 46.6938 70.1507C46.6531 70.1609 46.615 70.1749 46.5794 70.1926C46.5439 70.2104 46.5083 70.2311 46.4727 70.2546L46.3927 70.146C46.4435 70.1066 46.5054 70.0726 46.5785 70.044C46.6515 70.0154 46.7344 70.0011 46.8271 70.0011C46.9694 70.0011 47.0761 70.0335 47.1473 70.0983C47.2184 70.1631 47.254 70.2457 47.254 70.346Z" fill="#212121"/>
<path d="M55.4238 71.0911H55.2152V71.4141H55.0608V71.0911H54.3872V70.9577L55.0503 70.0135H55.2152V70.9482H55.4238V71.0911ZM55.0608 70.9482V70.4928C55.0608 70.4578 55.0611 70.4264 55.0618 70.3984C55.0624 70.3699 55.0633 70.3435 55.0646 70.3194C55.0659 70.2946 55.0668 70.2711 55.0675 70.2489C55.0687 70.2266 55.0697 70.2047 55.0703 70.1831H55.0627C55.0506 70.2085 55.0367 70.2355 55.0208 70.2641C55.0055 70.292 54.99 70.3171 54.9741 70.3394L54.5444 70.9482H55.0608Z" fill="#212121"/>
<path d="M62.9305 70.5623C63.0252 70.5623 63.1074 70.5785 63.1773 70.6109C63.2471 70.6427 63.3011 70.689 63.3392 70.75C63.378 70.811 63.3974 70.885 63.3974 70.972C63.3974 71.0673 63.3767 71.1495 63.3354 71.2188C63.2942 71.2873 63.2348 71.3404 63.1573 71.3779C63.0798 71.4147 62.9871 71.4331 62.8791 71.4331C62.8067 71.4331 62.7393 71.4268 62.6771 71.4141C62.6148 71.4014 62.5624 71.3823 62.5199 71.3569V71.2064C62.5663 71.2343 62.6225 71.2565 62.6885 71.2731C62.7546 71.2896 62.8187 71.2978 62.881 71.2978C62.9515 71.2978 63.0131 71.2867 63.0658 71.2645C63.1192 71.2416 63.1605 71.2073 63.1897 71.1616C63.2195 71.1152 63.2344 71.0571 63.2344 70.9872C63.2344 70.8945 63.2059 70.823 63.1487 70.7729C63.0922 70.7221 63.0026 70.6966 62.88 70.6966C62.8406 70.6966 62.7975 70.6998 62.7505 70.7062C62.7035 70.7125 62.6647 70.7195 62.6342 70.7271L62.5542 70.6747L62.6075 70.0212H63.3002V70.166H62.7428L62.7076 70.5861C62.7317 70.581 62.7628 70.576 62.8009 70.5709C62.8391 70.5652 62.8822 70.5623 62.9305 70.5623Z" fill="#212121"/>
<path d="M70.5535 70.8186C70.5535 70.7348 70.5592 70.6528 70.5706 70.5728C70.5827 70.4928 70.6027 70.4184 70.6306 70.3498C70.6586 70.2806 70.6967 70.22 70.745 70.1679C70.7932 70.1158 70.8533 70.0751 70.925 70.0459C70.9975 70.0161 71.0842 70.0011 71.1851 70.0011C71.2137 70.0011 71.2445 70.0027 71.2776 70.0059C71.3106 70.0084 71.3379 70.0129 71.3595 70.0192V70.1555C71.336 70.1472 71.309 70.1412 71.2785 70.1374C71.2487 70.1336 71.2185 70.1317 71.188 70.1317C71.0699 70.1317 70.9768 70.1574 70.9088 70.2088C70.8415 70.2603 70.7929 70.3302 70.7631 70.4184C70.7332 70.5061 70.7161 70.6049 70.7116 70.7147H70.7221C70.7418 70.683 70.7669 70.6544 70.7974 70.629C70.8279 70.603 70.8647 70.5823 70.9079 70.5671C70.9517 70.5518 71.0025 70.5442 71.0603 70.5442C71.1416 70.5442 71.2125 70.5607 71.2728 70.5938C71.3338 70.6268 71.3808 70.6747 71.4138 70.7376C71.4475 70.8005 71.4643 70.8767 71.4643 70.9663C71.4643 71.0622 71.4465 71.1451 71.4109 71.2149C71.3754 71.2848 71.3246 71.3388 71.2585 71.3769C71.1931 71.4144 71.115 71.4331 71.0241 71.4331C70.9562 71.4331 70.8936 71.4201 70.8364 71.3941C70.7793 71.368 70.7294 71.3293 70.6869 71.2778C70.6449 71.2264 70.6122 71.1625 70.5887 71.0863C70.5652 71.0095 70.5535 70.9202 70.5535 70.8186ZM71.0222 71.2997C71.1086 71.2997 71.1778 71.2721 71.2299 71.2168C71.282 71.1616 71.308 71.0781 71.308 70.9663C71.308 70.8748 71.2849 70.8024 71.2385 70.749C71.1921 70.6957 71.1223 70.669 71.0289 70.669C70.9654 70.669 70.9101 70.6824 70.8631 70.709C70.8161 70.7351 70.7796 70.7681 70.7535 70.8081C70.7275 70.8481 70.7145 70.8888 70.7145 70.9301C70.7145 70.972 70.7205 71.0145 70.7326 71.0577C70.7453 71.1009 70.7643 71.1409 70.7898 71.1778C70.8152 71.2146 70.8472 71.2442 70.886 71.2664C70.9247 71.2886 70.9701 71.2997 71.0222 71.2997Z" fill="#212121"/>
<path d="M78.5239 71.4141L79.0956 70.166H78.3362V70.0212H79.2652V70.1431L78.6973 71.4141H78.5239Z" fill="#212121"/>
<path d="M21.7551 68.9258H78.0966" stroke="#D4D4D4" stroke-width="0.243902"/>
<path d="M35.7697 64.2212C28.774 64.2212 28.774 63.0562 21.7158 63.0562V68.8813H35.7697H49.8236H63.94H77.9939V58.0633C70.9357 58.0633 70.9357 62.5569 63.94 62.5569C56.8818 62.5569 56.8818 54.9844 49.8236 54.9844C42.8279 54.9844 42.8279 64.2212 35.7697 64.2212Z" fill="#FF009D"/>
<rect x="51.6122" y="52.6932" width="4.90629" height="3.46326" rx="1.73163" fill="white" fill-opacity="0.6"/>
<rect x="51.6122" y="52.6932" width="4.90629" height="3.46326" rx="1.73163" stroke="#FF009D" stroke-width="0.144303"/>
<path d="M53.4979 54.9258H53.2761V54.0417C53.2761 54.0123 53.2765 53.9829 53.2771 53.9534C53.2777 53.924 53.2783 53.8952 53.279 53.867C53.2802 53.8388 53.2818 53.8119 53.2837 53.7862C53.2705 53.8006 53.2542 53.8163 53.2348 53.8332C53.216 53.8501 53.196 53.8676 53.1747 53.8858L53.0168 54.0117L52.906 53.8717L53.3137 53.5523H53.4979V54.9258ZM54.8798 54.2381C54.8798 54.3489 54.871 54.4482 54.8535 54.5359C54.8366 54.623 54.8097 54.6969 54.7727 54.7576C54.7358 54.8184 54.6875 54.8647 54.628 54.8967C54.5685 54.9286 54.4965 54.9446 54.412 54.9446C54.3061 54.9446 54.2187 54.9167 54.1498 54.861C54.081 54.8046 54.0299 54.7238 53.9967 54.6186C53.9635 54.5127 53.9469 54.3859 53.9469 54.2381C53.9469 54.0903 53.962 53.9638 53.992 53.8585C54.0227 53.7527 54.0722 53.6716 54.1405 53.6152C54.2087 53.5589 54.2992 53.5307 54.412 53.5307C54.5184 53.5307 54.6061 53.5589 54.675 53.6152C54.7445 53.671 54.7959 53.7518 54.8291 53.8576C54.8629 53.9628 54.8798 54.0897 54.8798 54.2381ZM54.1696 54.2381C54.1696 54.354 54.1771 54.4507 54.1921 54.5284C54.2078 54.606 54.2335 54.6643 54.2692 54.7031C54.3049 54.7413 54.3525 54.7604 54.412 54.7604C54.4715 54.7604 54.5191 54.7413 54.5548 54.7031C54.5905 54.6649 54.6161 54.607 54.6318 54.5293C54.6481 54.4517 54.6562 54.3546 54.6562 54.2381C54.6562 54.1228 54.6484 54.0264 54.6327 53.9487C54.6171 53.8711 54.5914 53.8128 54.5557 53.774C54.52 53.7345 54.4721 53.7148 54.412 53.7148C54.3518 53.7148 54.3039 53.7345 54.2682 53.774C54.2331 53.8128 54.2078 53.8711 54.1921 53.9487C54.1771 54.0264 54.1696 54.1228 54.1696 54.2381ZM55.5177 54.0671C55.606 54.0671 55.6837 54.0831 55.7507 54.115C55.8183 54.1463 55.871 54.1927 55.9085 54.2541C55.9461 54.3148 55.9649 54.3893 55.9649 54.4777C55.9649 54.5741 55.9446 54.6574 55.9038 54.7276C55.8631 54.7971 55.8033 54.8506 55.7244 54.8882C55.6455 54.9258 55.5493 54.9446 55.436 54.9446C55.364 54.9446 55.2966 54.9383 55.234 54.9258C55.172 54.9133 55.1184 54.8945 55.0733 54.8694V54.6702C55.1203 54.6966 55.1767 54.7182 55.2425 54.7351C55.3082 54.7514 55.3712 54.7595 55.4313 54.7595C55.4952 54.7595 55.55 54.7501 55.5957 54.7313C55.6414 54.7125 55.6765 54.6837 55.7009 54.6449C55.726 54.606 55.7385 54.5569 55.7385 54.4974C55.7385 54.4185 55.7131 54.3577 55.6624 54.3151C55.6123 54.2719 55.5337 54.2503 55.4266 54.2503C55.389 54.2503 55.3489 54.2537 55.3063 54.2606C55.2644 54.2669 55.2293 54.2738 55.2011 54.2813L55.1044 54.224L55.156 53.5523H55.87V53.7467H55.3505L55.3204 54.0887C55.343 54.0837 55.3699 54.079 55.4012 54.0746C55.4325 54.0696 55.4714 54.0671 55.5177 54.0671Z" fill="#212121"/>
</svg>
