<svg width="92" height="92" viewBox="0 0 92 92" fill="none" xmlns="http://www.w3.org/2000/svg">
<rect x="0.389831" y="0.389831" width="91.079" height="91.2203" rx="17.5424" fill="white" stroke="#FF8A01" stroke-width="0.779661"/>
<rect x="48.7179" y="26.1866" width="31.6211" height="45.2204" rx="5.8454" fill="url(#paint0_linear_6333_32875)" stroke="#F0F0F0" stroke-width="0.377122"/>
<path d="M62.6101 23L61.9523 21.0923H61.9382C61.9414 21.135 61.945 21.1933 61.9492 21.2673C61.9534 21.3412 61.957 21.4204 61.9601 21.5048C61.9632 21.5891 61.9648 21.6699 61.9648 21.7469V23H61.6242V20.7157H62.1507L62.7835 22.5391H62.7929L63.4475 20.7157H63.9725V23H63.6147V21.7282C63.6147 21.6584 63.6158 21.5829 63.6178 21.5016C63.621 21.4204 63.6241 21.3433 63.6272 21.2704C63.6314 21.1975 63.6345 21.1392 63.6366 21.0954H63.6241L62.9413 23H62.6101ZM65.2146 21.2376C65.4334 21.2376 65.5985 21.286 65.7099 21.3829C65.8224 21.4798 65.8787 21.6308 65.8787 21.836V23H65.6177L65.5474 22.7547H65.5349C65.486 22.8172 65.4355 22.8688 65.3834 22.9094C65.3313 22.95 65.2709 22.9802 65.2021 23C65.1344 23.0208 65.0516 23.0312 64.9537 23.0312C64.8506 23.0312 64.7584 23.0125 64.6772 22.975C64.5959 22.9365 64.5319 22.8781 64.485 22.8C64.4381 22.7219 64.4147 22.6229 64.4147 22.5032C64.4147 22.325 64.4808 22.1912 64.6131 22.1016C64.7464 22.012 64.9475 21.9626 65.2162 21.9532L65.5162 21.9422V21.8516C65.5162 21.7318 65.4881 21.6464 65.4318 21.5954C65.3766 21.5444 65.2985 21.5188 65.1974 21.5188C65.111 21.5188 65.0271 21.5313 64.9459 21.5563C64.8647 21.5813 64.7855 21.6121 64.7084 21.6485L64.5897 21.3892C64.674 21.3444 64.7699 21.3079 64.8771 21.2798C64.9855 21.2517 65.098 21.2376 65.2146 21.2376ZM65.5146 22.1735L65.2912 22.1813C65.1079 22.1875 64.9792 22.2188 64.9053 22.275C64.8313 22.3313 64.7943 22.4084 64.7943 22.5063C64.7943 22.5917 64.8199 22.6542 64.8709 22.6938C64.9219 22.7323 64.9891 22.7516 65.0725 22.7516C65.1995 22.7516 65.3047 22.7156 65.3881 22.6438C65.4724 22.5709 65.5146 22.4641 65.5146 22.3235V22.1735ZM66.7755 22.1157L66.1974 21.2704H66.6161L67.0114 21.8782L67.4083 21.2704H67.8254L67.2442 22.1157L67.8551 23H67.4348L67.0114 22.3516L66.5864 23H66.1693L66.7755 22.1157Z" fill="#212121"/>
<path d="M56.127 26L72.926 26" stroke="#212121" stroke-width="0.539917" stroke-linecap="round"/>
<path d="M58.8044 41.5721C58.8044 41.7344 58.7921 41.8793 58.7675 42.0069C58.7429 42.1345 58.7042 42.2425 58.6513 42.3309C58.5984 42.4193 58.5301 42.4867 58.4462 42.5332C58.3624 42.5788 58.2617 42.6016 58.1441 42.6016C57.9955 42.6016 57.8725 42.561 57.775 42.4799C57.6784 42.3988 57.6059 42.2817 57.5576 42.1285C57.5102 41.9745 57.4865 41.789 57.4865 41.5721C57.4865 41.3589 57.5079 41.1757 57.5508 41.0225C57.5945 40.8685 57.6647 40.7505 57.7613 40.6685C57.8579 40.5855 57.9855 40.5441 58.1441 40.5441C58.2945 40.5441 58.4184 40.5851 58.516 40.6671C58.6135 40.7482 58.6859 40.8658 58.7333 41.0198C58.7807 41.1729 58.8044 41.357 58.8044 41.5721ZM57.7148 41.5721C57.7148 41.7581 57.729 41.913 57.7572 42.0369C57.7855 42.1609 57.831 42.2539 57.8939 42.3158C57.9577 42.3769 58.0411 42.4074 58.1441 42.4074C58.2471 42.4074 58.33 42.3769 58.3929 42.3158C58.4567 42.2548 58.5027 42.1623 58.531 42.0383C58.5602 41.9144 58.5747 41.759 58.5747 41.5721C58.5747 41.3889 58.5606 41.2358 58.5324 41.1128C58.5041 40.9888 58.4585 40.8959 58.3956 40.8339C58.3328 40.771 58.2489 40.7396 58.1441 40.7396C58.0393 40.7396 57.9554 40.771 57.8925 40.8339C57.8297 40.8959 57.7841 40.9888 57.7558 41.1128C57.7285 41.2358 57.7148 41.3889 57.7148 41.5721ZM59.3444 42.5742L60.1647 40.7833H59.0751V40.5755H60.408V40.7505L59.5932 42.5742H59.3444ZM60.6623 41.9235V41.7211H61.3404V41.9235H60.6623ZM62.9112 41.5721C62.9112 41.7344 62.8989 41.8793 62.8743 42.0069C62.8497 42.1345 62.811 42.2425 62.7581 42.3309C62.7052 42.4193 62.6369 42.4867 62.553 42.5332C62.4692 42.5788 62.3685 42.6016 62.2509 42.6016C62.1023 42.6016 61.9793 42.561 61.8818 42.4799C61.7852 42.3988 61.7127 42.2817 61.6644 42.1285C61.617 41.9745 61.5933 41.789 61.5933 41.5721C61.5933 41.3589 61.6147 41.1757 61.6576 41.0225C61.7013 40.8685 61.7715 40.7505 61.8681 40.6685C61.9647 40.5855 62.0923 40.5441 62.2509 40.5441C62.4013 40.5441 62.5252 40.5851 62.6228 40.6671C62.7203 40.7482 62.7927 40.8658 62.8401 41.0198C62.8875 41.1729 62.9112 41.357 62.9112 41.5721ZM61.8216 41.5721C61.8216 41.7581 61.8358 41.913 61.864 42.0369C61.8923 42.1609 61.9378 42.2539 62.0007 42.3158C62.0645 42.3769 62.1479 42.4074 62.2509 42.4074C62.3539 42.4074 62.4368 42.3769 62.4997 42.3158C62.5635 42.2548 62.6095 42.1623 62.6378 42.0383C62.667 41.9144 62.6815 41.759 62.6815 41.5721C62.6815 41.3889 62.6674 41.2358 62.6392 41.1128C62.6109 40.9888 62.5653 40.8959 62.5025 40.8339C62.4396 40.771 62.3557 40.7396 62.2509 40.7396C62.1461 40.7396 62.0622 40.771 61.9994 40.8339C61.9365 40.8959 61.8909 40.9888 61.8626 41.1128C61.8353 41.2358 61.8216 41.3889 61.8216 41.5721ZM64.4287 41.0417C64.4287 41.131 64.4114 41.2085 64.3768 41.2741C64.3421 41.3397 64.2938 41.3935 64.2319 41.4354C64.1699 41.4764 64.097 41.5051 64.0131 41.5215V41.5325C64.1717 41.5525 64.2906 41.6036 64.3699 41.6856C64.4501 41.7676 64.4902 41.8752 64.4902 42.0082C64.4902 42.124 64.4629 42.2265 64.4082 42.3158C64.3544 42.4052 64.2715 42.4753 64.1594 42.5264C64.0482 42.5765 63.9056 42.6016 63.7315 42.6016C63.6258 42.6016 63.5278 42.5929 63.4376 42.5756C63.3482 42.5592 63.2626 42.5314 63.1805 42.4922V42.2789C63.2635 42.3199 63.3537 42.3523 63.4512 42.376C63.5487 42.3988 63.6431 42.4102 63.7342 42.4102C63.9165 42.4102 64.0482 42.3742 64.1293 42.3022C64.2104 42.2293 64.251 42.1299 64.251 42.0041C64.251 41.9175 64.2282 41.8478 64.1826 41.795C64.138 41.7412 64.0733 41.702 63.9885 41.6774C63.9047 41.6519 63.8035 41.6391 63.685 41.6391H63.4854V41.445H63.6864C63.7948 41.445 63.8869 41.429 63.9625 41.3971C64.0382 41.3652 64.0956 41.3206 64.1348 41.2632C64.1749 41.2048 64.1949 41.136 64.1949 41.0567C64.1949 40.9556 64.1612 40.8776 64.0938 40.8229C64.0263 40.7674 63.9347 40.7396 63.819 40.7396C63.7479 40.7396 63.6832 40.7468 63.6249 40.7614C63.5665 40.776 63.5118 40.7961 63.4608 40.8216C63.4098 40.8471 63.3587 40.8767 63.3077 40.9104L63.1928 40.7546C63.2658 40.6981 63.3546 40.6493 63.4594 40.6083C63.5642 40.5673 63.6832 40.5468 63.8162 40.5468C64.0204 40.5468 64.1735 40.5933 64.2756 40.6862C64.3777 40.7792 64.4287 40.8977 64.4287 41.0417ZM64.7691 41.9235V41.7211H65.4472V41.9235H64.7691ZM67.0071 42.5742H65.6974V42.3842L66.2319 41.8414C66.3313 41.7412 66.4147 41.6519 66.4821 41.5735C66.5505 41.4951 66.6024 41.4181 66.638 41.3425C66.6735 41.2659 66.6913 41.182 66.6913 41.0909C66.6913 40.9779 66.6576 40.8918 66.5901 40.8325C66.5236 40.7724 66.4356 40.7423 66.3263 40.7423C66.2306 40.7423 66.1458 40.7587 66.072 40.7915C65.9982 40.8243 65.9225 40.8708 65.845 40.9309L65.7234 40.7778C65.7762 40.7332 65.8337 40.6935 65.8956 40.6589C65.9585 40.6243 66.0255 40.5969 66.0966 40.5769C66.1686 40.5568 66.2452 40.5468 66.3263 40.5468C66.4493 40.5468 66.5555 40.5682 66.6448 40.611C66.7341 40.6539 66.8029 40.7149 66.8512 40.7942C66.9005 40.8735 66.9251 40.9679 66.9251 41.0772C66.9251 41.183 66.9041 41.2814 66.8622 41.3725C66.8203 41.4628 66.7615 41.5525 66.6858 41.6418C66.6102 41.7303 66.5218 41.8241 66.4206 41.9235L65.9859 42.3568V42.3664H67.0071V42.5742ZM68.6203 41.5721C68.6203 41.7344 68.608 41.8793 68.5834 42.0069C68.5588 42.1345 68.52 42.2425 68.4672 42.3309C68.4143 42.4193 68.3459 42.4867 68.2621 42.5332C68.1782 42.5788 68.0775 42.6016 67.96 42.6016C67.8114 42.6016 67.6884 42.561 67.5908 42.4799C67.4942 42.3988 67.4218 42.2817 67.3735 42.1285C67.3261 41.9745 67.3024 41.789 67.3024 41.5721C67.3024 41.3589 67.3238 41.1757 67.3666 41.0225C67.4104 40.8685 67.4806 40.7505 67.5772 40.6685C67.6738 40.5855 67.8014 40.5441 67.96 40.5441C68.1103 40.5441 68.2343 40.5851 68.3318 40.6671C68.4293 40.7482 68.5018 40.8658 68.5492 41.0198C68.5966 41.1729 68.6203 41.357 68.6203 41.5721ZM67.5307 41.5721C67.5307 41.7581 67.5448 41.913 67.5731 42.0369C67.6013 42.1609 67.6469 42.2539 67.7098 42.3158C67.7736 42.3769 67.857 42.4074 67.96 42.4074C68.063 42.4074 68.1459 42.3769 68.2088 42.3158C68.2726 42.2548 68.3186 42.1623 68.3469 42.0383C68.376 41.9144 68.3906 41.759 68.3906 41.5721C68.3906 41.3889 68.3765 41.2358 68.3482 41.1128C68.32 40.9888 68.2744 40.8959 68.2115 40.8339C68.1486 40.771 68.0648 40.7396 67.96 40.7396C67.8552 40.7396 67.7713 40.771 67.7084 40.8339C67.6455 40.8959 67.6 40.9888 67.5717 41.1128C67.5444 41.2358 67.5307 41.3889 67.5307 41.5721ZM70.2116 42.5742H68.9019V42.3842L69.4364 41.8414C69.5358 41.7412 69.6192 41.6519 69.6866 41.5735C69.755 41.4951 69.8069 41.4181 69.8425 41.3425C69.878 41.2659 69.8958 41.182 69.8958 41.0909C69.8958 40.9779 69.8621 40.8918 69.7946 40.8325C69.7281 40.7724 69.6401 40.7423 69.5308 40.7423C69.4351 40.7423 69.3503 40.7587 69.2765 40.7915C69.2027 40.8243 69.127 40.8708 69.0496 40.9309L68.9279 40.7778C68.9807 40.7332 69.0382 40.6935 69.1001 40.6589C69.163 40.6243 69.23 40.5969 69.3011 40.5769C69.3731 40.5568 69.4497 40.5468 69.5308 40.5468C69.6538 40.5468 69.76 40.5682 69.8493 40.611C69.9386 40.6539 70.0074 40.7149 70.0558 40.7942C70.105 40.8735 70.1296 40.9679 70.1296 41.0772C70.1296 41.183 70.1086 41.2814 70.0667 41.3725C70.0248 41.4628 69.966 41.5525 69.8903 41.6418C69.8147 41.7303 69.7263 41.8241 69.6251 41.9235L69.1904 42.3568V42.3664H70.2116V42.5742ZM71.1358 41.352C71.2716 41.352 71.3896 41.3753 71.4899 41.4217C71.5901 41.4673 71.6676 41.5338 71.7223 41.6213C71.7779 41.7088 71.8057 41.815 71.8057 41.9399C71.8057 42.0766 71.776 42.1946 71.7168 42.294C71.6576 42.3924 71.5723 42.4685 71.4611 42.5223C71.35 42.5751 71.2169 42.6016 71.0619 42.6016C70.958 42.6016 70.8614 42.5924 70.7721 42.5742C70.6828 42.556 70.6076 42.5286 70.5465 42.4922V42.2762C70.6131 42.3163 70.6937 42.3482 70.7885 42.3719C70.8833 42.3956 70.9754 42.4074 71.0647 42.4074C71.1658 42.4074 71.2543 42.3915 71.3299 42.3596C71.4065 42.3268 71.4657 42.2776 71.5076 42.2119C71.5505 42.1454 71.5719 42.062 71.5719 41.9618C71.5719 41.8287 71.5309 41.7262 71.4488 41.6542C71.3677 41.5812 71.2392 41.5448 71.0633 41.5448C71.0068 41.5448 70.9448 41.5493 70.8774 41.5585C70.8099 41.5676 70.7543 41.5776 70.7106 41.5885L70.5958 41.5133L70.6723 40.5755H71.6662V40.7833H70.8664L70.8159 41.3862C70.8505 41.3789 70.8952 41.3716 70.9498 41.3643C71.0045 41.3561 71.0665 41.352 71.1358 41.352Z" fill="black"/>
<rect x="54.5312" y="30.8008" width="19.9989" height="6.39965" rx="3.19982" fill="white"/>
<path d="M59.5812 34.4863H58.0344V34.2098L58.6265 33.6098C58.7411 33.4932 58.8354 33.3926 58.9093 33.3083C58.9833 33.2229 59.038 33.1421 59.0734 33.0661C59.1098 32.9901 59.1281 32.9072 59.1281 32.8177C59.1281 32.7073 59.0963 32.6239 59.0328 32.5677C58.9692 32.5104 58.8854 32.4818 58.7812 32.4818C58.6822 32.4818 58.5906 32.5015 58.5062 32.5411C58.4229 32.5797 58.3364 32.6349 58.2469 32.7067L58.0453 32.4646C58.1088 32.4104 58.1765 32.3609 58.2484 32.3161C58.3213 32.2713 58.4026 32.2359 58.4922 32.2099C58.5817 32.1828 58.6838 32.1693 58.7984 32.1693C58.9432 32.1693 59.0682 32.1953 59.1734 32.2474C59.2786 32.2984 59.3593 32.3698 59.4155 32.4614C59.4728 32.5531 59.5015 32.6599 59.5015 32.7817C59.5015 32.9046 59.477 33.0182 59.428 33.1223C59.3791 33.2265 59.3093 33.3296 59.2187 33.4317C59.1281 33.5327 59.0203 33.6426 58.8953 33.7614L58.5 34.1473V34.1645H59.5812V34.4863ZM61.4123 33.3426C61.4123 33.527 61.3977 33.6921 61.3686 33.8379C61.3404 33.9827 61.2956 34.1056 61.2342 34.2067C61.1727 34.3077 61.0925 34.3848 60.9936 34.4379C60.8946 34.491 60.7748 34.5176 60.6342 34.5176C60.4582 34.5176 60.3129 34.4712 60.1983 34.3785C60.0837 34.2848 59.9988 34.1504 59.9436 33.9754C59.8884 33.7994 59.8608 33.5885 59.8608 33.3426C59.8608 33.0968 59.8858 32.8864 59.9358 32.7114C59.9869 32.5354 60.0692 32.4005 60.1827 32.3068C60.2962 32.213 60.4467 32.1661 60.6342 32.1661C60.8113 32.1661 60.9571 32.213 61.0717 32.3068C61.1873 32.3995 61.2727 32.5338 61.3279 32.7099C61.3842 32.8849 61.4123 33.0958 61.4123 33.3426ZM60.2311 33.3426C60.2311 33.5353 60.2436 33.6963 60.2686 33.8254C60.2947 33.9546 60.3374 34.0515 60.3967 34.116C60.4561 34.1796 60.5353 34.2113 60.6342 34.2113C60.7332 34.2113 60.8123 34.1796 60.8717 34.116C60.9311 34.0525 60.9738 33.9561 60.9998 33.827C61.0269 33.6978 61.0405 33.5364 61.0405 33.3426C61.0405 33.151 61.0274 32.9906 61.0014 32.8614C60.9754 32.7323 60.9326 32.6354 60.8733 32.5708C60.8139 32.5052 60.7342 32.4724 60.6342 32.4724C60.5342 32.4724 60.4545 32.5052 60.3952 32.5708C60.3368 32.6354 60.2947 32.7323 60.2686 32.8614C60.2436 32.9906 60.2311 33.151 60.2311 33.3426ZM63.2435 33.3426C63.2435 33.527 63.2289 33.6921 63.1997 33.8379C63.1716 33.9827 63.1268 34.1056 63.0653 34.2067C63.0039 34.3077 62.9237 34.3848 62.8247 34.4379C62.7258 34.491 62.606 34.5176 62.4654 34.5176C62.2893 34.5176 62.144 34.4712 62.0295 34.3785C61.9149 34.2848 61.83 34.1504 61.7748 33.9754C61.7196 33.7994 61.692 33.5885 61.692 33.3426C61.692 33.0968 61.717 32.8864 61.767 32.7114C61.818 32.5354 61.9003 32.4005 62.0138 32.3068C62.1274 32.213 62.2779 32.1661 62.4654 32.1661C62.6424 32.1661 62.7883 32.213 62.9029 32.3068C63.0185 32.3995 63.1039 32.5338 63.1591 32.7099C63.2153 32.8849 63.2435 33.0958 63.2435 33.3426ZM62.0623 33.3426C62.0623 33.5353 62.0748 33.6963 62.0998 33.8254C62.1258 33.9546 62.1685 34.0515 62.2279 34.116C62.2873 34.1796 62.3664 34.2113 62.4654 34.2113C62.5643 34.2113 62.6435 34.1796 62.7029 34.116C62.7622 34.0525 62.8049 33.9561 62.831 33.827C62.8581 33.6978 62.8716 33.5364 62.8716 33.3426C62.8716 33.151 62.8586 32.9906 62.8325 32.8614C62.8065 32.7323 62.7638 32.6354 62.7044 32.5708C62.6451 32.5052 62.5654 32.4724 62.4654 32.4724C62.3654 32.4724 62.2857 32.5052 62.2263 32.5708C62.168 32.6354 62.1258 32.7323 62.0998 32.8614C62.0748 32.9906 62.0623 33.151 62.0623 33.3426ZM63.5309 33.5129C63.5309 33.3786 63.5403 33.2463 63.5591 33.1161C63.5789 32.9859 63.6122 32.864 63.6591 32.7505C63.7059 32.6369 63.7705 32.537 63.8528 32.4505C63.9361 32.364 64.0408 32.2963 64.1668 32.2474C64.2929 32.1974 64.4444 32.1724 64.6215 32.1724C64.6673 32.1724 64.7189 32.1745 64.7762 32.1786C64.8335 32.1828 64.8809 32.1896 64.9184 32.199V32.5036C64.8777 32.4922 64.833 32.4833 64.784 32.4771C64.7361 32.4708 64.6882 32.4677 64.6403 32.4677C64.4486 32.4677 64.2991 32.5041 64.1918 32.5771C64.0846 32.6489 64.008 32.7479 63.9622 32.8739C63.9163 32.9989 63.8898 33.1421 63.8825 33.3036H63.9012C63.9325 33.2515 63.9715 33.2051 64.0184 33.1645C64.0653 33.1239 64.1226 33.0916 64.1903 33.0677C64.258 33.0427 64.3366 33.0302 64.4262 33.0302C64.5595 33.0302 64.6757 33.0583 64.7746 33.1145C64.8736 33.1697 64.9496 33.2499 65.0027 33.3551C65.0569 33.4603 65.084 33.5879 65.084 33.7379C65.084 33.8994 65.0533 34.0384 64.9918 34.1551C64.9314 34.2718 64.8449 34.3613 64.7324 34.4238C64.621 34.4863 64.4882 34.5176 64.334 34.5176C64.2205 34.5176 64.1148 34.4967 64.0169 34.4551C63.92 34.4134 63.8351 34.3509 63.7622 34.2676C63.6893 34.1843 63.6325 34.0801 63.5919 33.9551C63.5513 33.8291 63.5309 33.6817 63.5309 33.5129ZM64.3278 34.2145C64.4465 34.2145 64.5418 34.1759 64.6137 34.0988C64.6866 34.0207 64.7231 33.9015 64.7231 33.7411C64.7231 33.6109 64.6908 33.5077 64.6262 33.4317C64.5627 33.3557 64.4668 33.3176 64.3387 33.3176C64.2512 33.3176 64.1747 33.3364 64.109 33.3739C64.0434 33.4114 63.9924 33.4588 63.9559 33.5161C63.9205 33.5734 63.9028 33.6317 63.9028 33.6911C63.9028 33.7515 63.9117 33.8124 63.9294 33.8739C63.9471 33.9353 63.9736 33.9921 64.009 34.0442C64.0445 34.0952 64.0887 34.1363 64.1418 34.1676C64.195 34.1988 64.2569 34.2145 64.3278 34.2145ZM66.8183 32.7239C66.8183 32.827 66.7974 32.9166 66.7558 32.9927C66.7141 33.0687 66.6568 33.1312 66.5839 33.1801C66.512 33.2281 66.4287 33.2624 66.3339 33.2833V33.2942C66.5162 33.3171 66.6537 33.3744 66.7464 33.4661C66.8401 33.5577 66.887 33.6791 66.887 33.8301C66.887 33.9624 66.8552 34.0806 66.7917 34.1848C66.7282 34.2879 66.6308 34.3691 66.4995 34.4285C66.3683 34.4879 66.1995 34.5176 65.9933 34.5176C65.8694 34.5176 65.7543 34.5077 65.648 34.4879C65.5428 34.4681 65.4428 34.4363 65.348 34.3926V34.066C65.4449 34.114 65.548 34.1509 65.6574 34.177C65.7668 34.203 65.8704 34.216 65.9683 34.216C66.1589 34.216 66.2949 34.1806 66.3761 34.1098C66.4573 34.0379 66.498 33.939 66.498 33.8129C66.498 33.7317 66.4766 33.665 66.4339 33.6129C66.3922 33.5609 66.3271 33.5218 66.2386 33.4958C66.1511 33.4697 66.0381 33.4567 65.8996 33.4567H65.698V33.1614H65.9011C66.0334 33.1614 66.1397 33.1458 66.2199 33.1145C66.3001 33.0822 66.3579 33.038 66.3933 32.9817C66.4297 32.9255 66.448 32.8599 66.448 32.7849C66.448 32.6869 66.4162 32.6109 66.3527 32.5567C66.2891 32.5015 66.1949 32.4739 66.0699 32.4739C65.9928 32.4739 65.9225 32.4828 65.8589 32.5005C65.7964 32.5182 65.7386 32.5406 65.6855 32.5677C65.6324 32.5948 65.5819 32.6239 65.534 32.6552L65.3574 32.4005C65.4439 32.3359 65.547 32.2812 65.6668 32.2365C65.7865 32.1917 65.9261 32.1693 66.0855 32.1693C66.3199 32.1693 66.5006 32.2198 66.6276 32.3208C66.7547 32.4208 66.8183 32.5552 66.8183 32.7239ZM68.7369 34.4863H67.1901V34.2098L67.7823 33.6098C67.8968 33.4932 67.9911 33.3926 68.0651 33.3083C68.139 33.2229 68.1937 33.1421 68.2291 33.0661C68.2656 32.9901 68.2838 32.9072 68.2838 32.8177C68.2838 32.7073 68.252 32.6239 68.1885 32.5677C68.125 32.5104 68.0411 32.4818 67.937 32.4818C67.838 32.4818 67.7463 32.5015 67.662 32.5411C67.5786 32.5797 67.4922 32.6349 67.4026 32.7067L67.2011 32.4646C67.2646 32.4104 67.3323 32.3609 67.4042 32.3161C67.4771 32.2713 67.5583 32.2359 67.6479 32.2099C67.7375 32.1828 67.8396 32.1693 67.9541 32.1693C68.0989 32.1693 68.2239 32.1953 68.3291 32.2474C68.4343 32.2984 68.515 32.3698 68.5713 32.4614C68.6286 32.5531 68.6572 32.6599 68.6572 32.7817C68.6572 32.9046 68.6327 33.0182 68.5838 33.1223C68.5348 33.2265 68.465 33.3296 68.3744 33.4317C68.2838 33.5327 68.176 33.6426 68.051 33.7614L67.6557 34.1473V34.1645H68.7369V34.4863ZM69.7978 33.0583C69.9447 33.0583 70.0738 33.0848 70.1853 33.138C70.2978 33.19 70.3853 33.2671 70.4478 33.3692C70.5102 33.4702 70.5415 33.5942 70.5415 33.7411C70.5415 33.9015 70.5076 34.04 70.4399 34.1567C70.3722 34.2723 70.2728 34.3613 70.1415 34.4238C70.0103 34.4863 69.8504 34.5176 69.6619 34.5176C69.5421 34.5176 69.4301 34.5072 69.3259 34.4863C69.2228 34.4655 69.1338 34.4342 69.0588 34.3926V34.0614C69.1369 34.1051 69.2306 34.141 69.34 34.1692C69.4494 34.1962 69.5541 34.2098 69.654 34.2098C69.7603 34.2098 69.8514 34.1942 69.9275 34.1629C70.0035 34.1317 70.0618 34.0837 70.1025 34.0192C70.1441 33.9546 70.165 33.8728 70.165 33.7739C70.165 33.6426 70.1228 33.5416 70.0384 33.4708C69.9551 33.3989 69.8243 33.363 69.6462 33.363C69.5837 33.363 69.5171 33.3687 69.4462 33.3801C69.3765 33.3906 69.3181 33.402 69.2713 33.4145L69.1103 33.3192L69.1963 32.2021H70.3837V32.5255H69.5197L69.4697 33.0942C69.5072 33.0859 69.552 33.0781 69.604 33.0708C69.6561 33.0624 69.7207 33.0583 69.7978 33.0583Z" fill="#212121"/>
<rect x="10.5254" y="49.1953" width="31.9982" height="22.3988" rx="5.93909" fill="#FFE503"/>
<path d="M25.0105 46.1953L24.3527 44.2876H24.3386C24.3418 44.3303 24.3454 44.3886 24.3496 44.4626C24.3537 44.5365 24.3574 44.6157 24.3605 44.7001C24.3636 44.7845 24.3652 44.8652 24.3652 44.9423V46.1953H24.0246V43.9111H24.5511L25.1839 45.7344H25.1933L25.8479 43.9111H26.3729V46.1953H26.0151V44.9235C26.0151 44.8537 26.0162 44.7782 26.0182 44.697C26.0214 44.6157 26.0245 44.5386 26.0276 44.4657C26.0318 44.3928 26.0349 44.3345 26.037 44.2907H26.0245L25.3417 46.1953H25.0105ZM27.3041 44.4657V46.1953H26.9369V44.4657H27.3041ZM27.1229 43.8033C27.1791 43.8033 27.2275 43.8184 27.2682 43.8486C27.3098 43.8788 27.3307 43.9309 27.3307 44.0048C27.3307 44.0777 27.3098 44.1298 27.2682 44.161C27.2275 44.1913 27.1791 44.2064 27.1229 44.2064C27.0645 44.2064 27.0151 44.1913 26.9744 44.161C26.9349 44.1298 26.9151 44.0777 26.9151 44.0048C26.9151 43.9309 26.9349 43.8788 26.9744 43.8486C27.0151 43.8184 27.0645 43.8033 27.1229 43.8033ZM28.7321 44.4329C28.9269 44.4329 29.0785 44.4834 29.1868 44.5845C29.2962 44.6845 29.3509 44.8454 29.3509 45.0672V46.1953H28.9837V45.136C28.9837 45.0016 28.9561 44.9011 28.9009 44.8344C28.8457 44.7667 28.7603 44.7329 28.6447 44.7329C28.477 44.7329 28.3603 44.7845 28.2947 44.8876C28.2301 44.9907 28.1978 45.1402 28.1978 45.336V46.1953H27.8306V44.4657H28.1166L28.1681 44.7001H28.1884C28.2259 44.6397 28.2723 44.5902 28.3275 44.5517C28.3837 44.5121 28.4462 44.4824 28.515 44.4626C28.5848 44.4428 28.6572 44.4329 28.7321 44.4329Z" fill="#212121"/>
<path d="M18.127 49.1953L34.926 49.1953" stroke="#4A98FF" stroke-width="0.539917" stroke-linecap="round"/>
<path d="M20.8025 64.7674C20.8025 64.9297 20.7902 65.0746 20.7655 65.2022C20.7409 65.3298 20.7022 65.4378 20.6493 65.5262C20.5965 65.6146 20.5281 65.682 20.4443 65.7285C20.3604 65.7741 20.2597 65.7969 20.1421 65.7969C19.9936 65.7969 19.8705 65.7563 19.773 65.6752C19.6764 65.5941 19.604 65.477 19.5557 65.3239C19.5083 65.1698 19.4846 64.9844 19.4846 64.7674C19.4846 64.5542 19.506 64.371 19.5488 64.2179C19.5926 64.0638 19.6627 63.9458 19.7594 63.8638C19.856 63.7808 19.9836 63.7394 20.1421 63.7394C20.2925 63.7394 20.4165 63.7804 20.514 63.8624C20.6115 63.9435 20.684 64.0611 20.7314 64.2151C20.7788 64.3682 20.8025 64.5523 20.8025 64.7674ZM19.7129 64.7674C19.7129 64.9534 19.727 65.1083 19.7553 65.2323C19.7835 65.3562 19.8291 65.4492 19.892 65.5111C19.9558 65.5722 20.0392 65.6027 20.1421 65.6027C20.2451 65.6027 20.3281 65.5722 20.391 65.5111C20.4548 65.4501 20.5008 65.3576 20.529 65.2336C20.5582 65.1097 20.5728 64.9543 20.5728 64.7674C20.5728 64.5842 20.5587 64.4311 20.5304 64.3081C20.5022 64.1841 20.4566 64.0912 20.3937 64.0292C20.3308 63.9663 20.247 63.9349 20.1421 63.9349C20.0373 63.9349 19.9535 63.9663 19.8906 64.0292C19.8277 64.0912 19.7821 64.1841 19.7539 64.3081C19.7265 64.4311 19.7129 64.5842 19.7129 64.7674ZM21.3425 65.7695L22.1627 63.9786H21.0731V63.7708H22.4061V63.9458L21.5913 65.7695H21.3425ZM22.6604 65.1188V64.9165H23.3385V65.1188H22.6604ZM24.9093 64.7674C24.9093 64.9297 24.897 65.0746 24.8724 65.2022C24.8477 65.3298 24.809 65.4378 24.7561 65.5262C24.7033 65.6146 24.6349 65.682 24.5511 65.7285C24.4672 65.7741 24.3665 65.7969 24.249 65.7969C24.1004 65.7969 23.9774 65.7563 23.8798 65.6752C23.7832 65.5941 23.7108 65.477 23.6625 65.3239C23.6151 65.1698 23.5914 64.9844 23.5914 64.7674C23.5914 64.5542 23.6128 64.371 23.6556 64.2179C23.6994 64.0638 23.7695 63.9458 23.8662 63.8638C23.9628 63.7808 24.0904 63.7394 24.249 63.7394C24.3993 63.7394 24.5233 63.7804 24.6208 63.8624C24.7183 63.9435 24.7908 64.0611 24.8382 64.2151C24.8856 64.3682 24.9093 64.5523 24.9093 64.7674ZM23.8197 64.7674C23.8197 64.9534 23.8338 65.1083 23.8621 65.2323C23.8903 65.3562 23.9359 65.4492 23.9988 65.5111C24.0626 65.5722 24.146 65.6027 24.249 65.6027C24.3519 65.6027 24.4349 65.5722 24.4978 65.5111C24.5616 65.4501 24.6076 65.3576 24.6358 65.2336C24.665 65.1097 24.6796 64.9543 24.6796 64.7674C24.6796 64.5842 24.6655 64.4311 24.6372 64.3081C24.609 64.1841 24.5634 64.0912 24.5005 64.0292C24.4376 63.9663 24.3538 63.9349 24.249 63.9349C24.1441 63.9349 24.0603 63.9663 23.9974 64.0292C23.9345 64.0912 23.8889 64.1841 23.8607 64.3081C23.8333 64.4311 23.8197 64.5842 23.8197 64.7674ZM26.4268 64.237C26.4268 64.3263 26.4094 64.4038 26.3748 64.4694C26.3402 64.535 26.2919 64.5888 26.2299 64.6307C26.1679 64.6717 26.095 64.7004 26.0112 64.7169V64.7278C26.1697 64.7478 26.2887 64.7989 26.368 64.8809C26.4482 64.9629 26.4883 65.0705 26.4883 65.2035C26.4883 65.3193 26.4609 65.4218 26.4063 65.5111C26.3525 65.6005 26.2695 65.6706 26.1574 65.7217C26.0462 65.7718 25.9036 65.7969 25.7295 65.7969C25.6238 65.7969 25.5258 65.7882 25.4356 65.7709C25.3463 65.7545 25.2606 65.7267 25.1786 65.6875V65.4742C25.2615 65.5152 25.3518 65.5476 25.4493 65.5713C25.5468 65.5941 25.6411 65.6055 25.7323 65.6055C25.9145 65.6055 26.0462 65.5695 26.1274 65.4975C26.2085 65.4246 26.249 65.3252 26.249 65.1994C26.249 65.1129 26.2263 65.0431 26.1807 64.9903C26.136 64.9365 26.0713 64.8973 25.9866 64.8727C25.9027 64.8472 25.8015 64.8344 25.6831 64.8344H25.4835V64.6403H25.6844C25.7929 64.6403 25.8849 64.6243 25.9606 64.5924C26.0362 64.5605 26.0936 64.5159 26.1328 64.4585C26.1729 64.4001 26.193 64.3313 26.193 64.252C26.193 64.1509 26.1593 64.0729 26.0918 64.0183C26.0244 63.9627 25.9328 63.9349 25.817 63.9349C25.7459 63.9349 25.6812 63.9422 25.6229 63.9567C25.5646 63.9713 25.5099 63.9914 25.4588 64.0169C25.4078 64.0424 25.3568 64.072 25.3057 64.1058L25.1909 63.9499C25.2638 63.8934 25.3527 63.8446 25.4575 63.8036C25.5623 63.7626 25.6812 63.7421 25.8143 63.7421C26.0185 63.7421 26.1716 63.7886 26.2736 63.8815C26.3757 63.9745 26.4268 64.093 26.4268 64.237ZM26.7672 65.1188V64.9165H27.4453V65.1188H26.7672ZM29.0051 65.7695H27.6954V65.5795L28.23 65.0368C28.3293 64.9365 28.4127 64.8472 28.4802 64.7688C28.5485 64.6904 28.6005 64.6134 28.636 64.5378C28.6716 64.4612 28.6893 64.3774 28.6893 64.2862C28.6893 64.1732 28.6556 64.0871 28.5882 64.0278C28.5216 63.9677 28.4337 63.9376 28.3243 63.9376C28.2286 63.9376 28.1439 63.954 28.07 63.9868C27.9962 64.0196 27.9206 64.0661 27.8431 64.1263L27.7214 63.9731C27.7743 63.9285 27.8317 63.8888 27.8937 63.8542C27.9566 63.8196 28.0235 63.7922 28.0946 63.7722C28.1666 63.7521 28.2432 63.7421 28.3243 63.7421C28.4474 63.7421 28.5535 63.7635 28.6429 63.8064C28.7322 63.8492 28.801 63.9103 28.8493 63.9896C28.8985 64.0688 28.9231 64.1632 28.9231 64.2725C28.9231 64.3783 28.9021 64.4767 28.8602 64.5678C28.8183 64.6581 28.7595 64.7478 28.6839 64.8372C28.6082 64.9256 28.5198 65.0194 28.4186 65.1188L27.9839 65.5522V65.5617H29.0051V65.7695ZM30.6183 64.7674C30.6183 64.9297 30.606 65.0746 30.5814 65.2022C30.5568 65.3298 30.5181 65.4378 30.4652 65.5262C30.4124 65.6146 30.344 65.682 30.2601 65.7285C30.1763 65.7741 30.0756 65.7969 29.958 65.7969C29.8095 65.7969 29.6864 65.7563 29.5889 65.6752C29.4923 65.5941 29.4198 65.477 29.3715 65.3239C29.3241 65.1698 29.3004 64.9844 29.3004 64.7674C29.3004 64.5542 29.3219 64.371 29.3647 64.2179C29.4084 64.0638 29.4786 63.9458 29.5752 63.8638C29.6718 63.7808 29.7994 63.7394 29.958 63.7394C30.1084 63.7394 30.2323 63.7804 30.3299 63.8624C30.4274 63.9435 30.4998 64.0611 30.5472 64.2151C30.5946 64.3682 30.6183 64.5523 30.6183 64.7674ZM29.5287 64.7674C29.5287 64.9534 29.5429 65.1083 29.5711 65.2323C29.5994 65.3562 29.6449 65.4492 29.7078 65.5111C29.7716 65.5722 29.855 65.6027 29.958 65.6027C30.061 65.6027 30.1439 65.5722 30.2068 65.5111C30.2706 65.4501 30.3167 65.3576 30.3449 65.2336C30.3741 65.1097 30.3887 64.9543 30.3887 64.7674C30.3887 64.5842 30.3745 64.4311 30.3463 64.3081C30.318 64.1841 30.2724 64.0912 30.2096 64.0292C30.1467 63.9663 30.0628 63.9349 29.958 63.9349C29.8532 63.9349 29.7694 63.9663 29.7065 64.0292C29.6436 64.0912 29.598 64.1841 29.5698 64.3081C29.5424 64.4311 29.5287 64.5842 29.5287 64.7674ZM32.2096 65.7695H30.9V65.5795L31.4345 65.0368C31.5338 64.9365 31.6172 64.8472 31.6847 64.7688C31.753 64.6904 31.805 64.6134 31.8405 64.5378C31.8761 64.4612 31.8938 64.3774 31.8938 64.2862C31.8938 64.1732 31.8601 64.0871 31.7927 64.0278C31.7261 63.9677 31.6382 63.9376 31.5288 63.9376C31.4331 63.9376 31.3484 63.954 31.2745 63.9868C31.2007 64.0196 31.1251 64.0661 31.0476 64.1263L30.9259 63.9731C30.9788 63.9285 31.0362 63.8888 31.0982 63.8542C31.1611 63.8196 31.2281 63.7922 31.2992 63.7722C31.3712 63.7521 31.4477 63.7421 31.5288 63.7421C31.6519 63.7421 31.758 63.7635 31.8474 63.8064C31.9367 63.8492 32.0055 63.9103 32.0538 63.9896C32.103 64.0688 32.1276 64.1632 32.1276 64.2725C32.1276 64.3783 32.1067 64.4767 32.0647 64.5678C32.0228 64.6581 31.964 64.7478 31.8884 64.8372C31.8127 64.9256 31.7243 65.0194 31.6232 65.1188L31.1884 65.5522V65.5617H32.2096V65.7695ZM33.1338 64.5473C33.2696 64.5473 33.3876 64.5706 33.4879 64.6171C33.5882 64.6626 33.6656 64.7292 33.7203 64.8167C33.7759 64.9041 33.8037 65.0103 33.8037 65.1352C33.8037 65.2719 33.7741 65.3899 33.7148 65.4893C33.6556 65.5877 33.5704 65.6638 33.4592 65.7176C33.348 65.7704 33.2149 65.7969 33.06 65.7969C32.9561 65.7969 32.8595 65.7878 32.7702 65.7695C32.6808 65.7513 32.6057 65.724 32.5446 65.6875V65.4715C32.6111 65.5116 32.6918 65.5435 32.7866 65.5672C32.8814 65.5909 32.9734 65.6027 33.0627 65.6027C33.1639 65.6027 33.2523 65.5868 33.3279 65.5549C33.4045 65.5221 33.4637 65.4729 33.5057 65.4072C33.5485 65.3407 33.5699 65.2573 33.5699 65.1571C33.5699 65.024 33.5289 64.9215 33.4469 64.8495C33.3658 64.7766 33.2373 64.7401 33.0614 64.7401C33.0049 64.7401 32.9429 64.7447 32.8754 64.7538C32.808 64.7629 32.7524 64.7729 32.7086 64.7838L32.5938 64.7087L32.6704 63.7708H33.6643V63.9786H32.8645L32.8139 64.5815C32.8485 64.5742 32.8932 64.5669 32.9479 64.5596C33.0026 64.5514 33.0645 64.5473 33.1338 64.5473Z" fill="black"/>
<rect x="16.5234" y="53.9961" width="19.9989" height="6.39965" rx="3.19982" fill="#4A98FF"/>
<path d="M21.5733 57.6816H20.0266V57.4051L20.6187 56.8051C20.7333 56.6885 20.8276 56.588 20.9015 56.5036C20.9755 56.4182 21.0301 56.3374 21.0656 56.2614C21.102 56.1854 21.1202 56.1026 21.1202 56.013C21.1202 55.9026 21.0885 55.8192 21.0249 55.763C20.9614 55.7057 20.8775 55.6771 20.7734 55.6771C20.6744 55.6771 20.5828 55.6969 20.4984 55.7364C20.4151 55.775 20.3286 55.8302 20.239 55.9021L20.0375 55.6599C20.101 55.6057 20.1687 55.5562 20.2406 55.5114C20.3135 55.4667 20.3948 55.4312 20.4843 55.4052C20.5739 55.3781 20.676 55.3646 20.7906 55.3646C20.9354 55.3646 21.0604 55.3906 21.1656 55.4427C21.2708 55.4937 21.3515 55.5651 21.4077 55.6568C21.465 55.7484 21.4937 55.8552 21.4937 55.977C21.4937 56.1 21.4692 56.2135 21.4202 56.3177C21.3713 56.4218 21.3015 56.5249 21.2109 56.627C21.1202 56.728 21.0124 56.8379 20.8874 56.9567L20.4922 57.3426V57.3598H21.5733V57.6816ZM23.4045 56.538C23.4045 56.7223 23.3899 56.8874 23.3607 57.0332C23.3326 57.178 23.2878 57.3009 23.2264 57.402C23.1649 57.503 23.0847 57.5801 22.9858 57.6332C22.8868 57.6863 22.767 57.7129 22.6264 57.7129C22.4504 57.7129 22.3051 57.6665 22.1905 57.5738C22.0759 57.4801 21.991 57.3457 21.9358 57.1707C21.8806 56.9947 21.853 56.7838 21.853 56.538C21.853 56.2921 21.878 56.0817 21.928 55.9067C21.9791 55.7307 22.0613 55.5958 22.1749 55.5021C22.2884 55.4083 22.4389 55.3615 22.6264 55.3615C22.8035 55.3615 22.9493 55.4083 23.0639 55.5021C23.1795 55.5948 23.2649 55.7291 23.3201 55.9052C23.3764 56.0802 23.4045 56.2911 23.4045 56.538ZM22.2233 56.538C22.2233 56.7307 22.2358 56.8916 22.2608 57.0207C22.2868 57.1499 22.3296 57.2468 22.3889 57.3113C22.4483 57.3749 22.5275 57.4067 22.6264 57.4067C22.7254 57.4067 22.8045 57.3749 22.8639 57.3113C22.9233 57.2478 22.966 57.1515 22.992 57.0223C23.0191 56.8931 23.0326 56.7317 23.0326 56.538C23.0326 56.3463 23.0196 56.1859 22.9936 56.0567C22.9675 55.9276 22.9248 55.8307 22.8655 55.7661C22.8061 55.7005 22.7264 55.6677 22.6264 55.6677C22.5264 55.6677 22.4467 55.7005 22.3874 55.7661C22.329 55.8307 22.2868 55.9276 22.2608 56.0567C22.2358 56.1859 22.2233 56.3463 22.2233 56.538ZM25.2356 56.538C25.2356 56.7223 25.2211 56.8874 25.1919 57.0332C25.1638 57.178 25.119 57.3009 25.0575 57.402C24.9961 57.503 24.9159 57.5801 24.8169 57.6332C24.718 57.6863 24.5982 57.7129 24.4576 57.7129C24.2815 57.7129 24.1362 57.6665 24.0216 57.5738C23.9071 57.4801 23.8222 57.3457 23.767 57.1707C23.7118 56.9947 23.6842 56.7838 23.6842 56.538C23.6842 56.2921 23.7092 56.0817 23.7592 55.9067C23.8102 55.7307 23.8925 55.5958 24.006 55.5021C24.1196 55.4083 24.2701 55.3615 24.4576 55.3615C24.6346 55.3615 24.7805 55.4083 24.895 55.5021C25.0107 55.5948 25.0961 55.7291 25.1513 55.9052C25.2075 56.0802 25.2356 56.2911 25.2356 56.538ZM24.0545 56.538C24.0545 56.7307 24.067 56.8916 24.092 57.0207C24.118 57.1499 24.1607 57.2468 24.2201 57.3113C24.2794 57.3749 24.3586 57.4067 24.4576 57.4067C24.5565 57.4067 24.6357 57.3749 24.695 57.3113C24.7544 57.2478 24.7971 57.1515 24.8232 57.0223C24.8502 56.8931 24.8638 56.7317 24.8638 56.538C24.8638 56.3463 24.8508 56.1859 24.8247 56.0567C24.7987 55.9276 24.756 55.8307 24.6966 55.7661C24.6372 55.7005 24.5576 55.6677 24.4576 55.6677C24.3576 55.6677 24.2779 55.7005 24.2185 55.7661C24.1602 55.8307 24.118 55.9276 24.092 56.0567C24.067 56.1859 24.0545 56.3463 24.0545 56.538ZM25.5231 56.7083C25.5231 56.5739 25.5325 56.4416 25.5513 56.3114C25.571 56.1812 25.6044 56.0593 25.6512 55.9458C25.6981 55.8323 25.7627 55.7323 25.845 55.6458C25.9283 55.5594 26.033 55.4917 26.159 55.4427C26.2851 55.3927 26.4366 55.3677 26.6137 55.3677C26.6595 55.3677 26.7111 55.3698 26.7684 55.374C26.8257 55.3781 26.8731 55.3849 26.9106 55.3943V55.6989C26.8699 55.6875 26.8251 55.6786 26.7762 55.6724C26.7283 55.6661 26.6804 55.663 26.6324 55.663C26.4408 55.663 26.2913 55.6995 26.184 55.7724C26.0767 55.8442 26.0002 55.9432 25.9544 56.0692C25.9085 56.1942 25.882 56.3374 25.8747 56.4989H25.8934C25.9247 56.4468 25.9637 56.4005 26.0106 56.3598C26.0575 56.3192 26.1148 56.2869 26.1825 56.263C26.2502 56.238 26.3288 56.2255 26.4184 56.2255C26.5517 56.2255 26.6679 56.2536 26.7668 56.3098C26.8658 56.365 26.9418 56.4452 26.9949 56.5505C27.0491 56.6557 27.0762 56.7833 27.0762 56.9332C27.0762 57.0947 27.0454 57.2337 26.984 57.3504C26.9236 57.4671 26.8371 57.5566 26.7246 57.6191C26.6132 57.6816 26.4804 57.7129 26.3262 57.7129C26.2127 57.7129 26.107 57.6921 26.009 57.6504C25.9122 57.6087 25.8273 57.5462 25.7544 57.4629C25.6815 57.3796 25.6247 57.2754 25.5841 57.1504C25.5434 57.0244 25.5231 56.877 25.5231 56.7083ZM26.32 57.4098C26.4387 57.4098 26.534 57.3712 26.6059 57.2942C26.6788 57.216 26.7153 57.0968 26.7153 56.9364C26.7153 56.8062 26.683 56.703 26.6184 56.627C26.5548 56.551 26.459 56.513 26.3309 56.513C26.2434 56.513 26.1668 56.5317 26.1012 56.5692C26.0356 56.6067 25.9846 56.6541 25.9481 56.7114C25.9127 56.7687 25.895 56.827 25.895 56.8864C25.895 56.9468 25.9038 57.0077 25.9215 57.0692C25.9393 57.1306 25.9658 57.1874 26.0012 57.2395C26.0366 57.2905 26.0809 57.3317 26.134 57.3629C26.1872 57.3942 26.2491 57.4098 26.32 57.4098ZM28.8105 55.9192C28.8105 56.0224 28.7896 56.1119 28.748 56.188C28.7063 56.264 28.649 56.3265 28.5761 56.3755C28.5042 56.4234 28.4209 56.4577 28.3261 56.4786V56.4895C28.5084 56.5124 28.6459 56.5697 28.7386 56.6614C28.8323 56.753 28.8792 56.8744 28.8792 57.0254C28.8792 57.1577 28.8474 57.2759 28.7839 57.3801C28.7204 57.4832 28.623 57.5645 28.4917 57.6238C28.3605 57.6832 28.1917 57.7129 27.9855 57.7129C27.8615 57.7129 27.7464 57.703 27.6402 57.6832C27.535 57.6634 27.435 57.6316 27.3402 57.5879V57.2614C27.4371 57.3093 27.5402 57.3462 27.6496 57.3723C27.7589 57.3983 27.8626 57.4113 27.9605 57.4113C28.1511 57.4113 28.287 57.3759 28.3683 57.3051C28.4495 57.2332 28.4902 57.1343 28.4902 57.0082C28.4902 56.927 28.4688 56.8603 28.4261 56.8083C28.3844 56.7562 28.3193 56.7171 28.2308 56.6911C28.1433 56.665 28.0303 56.652 27.8918 56.652H27.6902V56.3567H27.8933C28.0256 56.3567 28.1318 56.3411 28.212 56.3098C28.2922 56.2776 28.3501 56.2333 28.3855 56.177C28.4219 56.1208 28.4402 56.0552 28.4402 55.9802C28.4402 55.8823 28.4084 55.8062 28.3449 55.7521C28.2813 55.6969 28.187 55.6693 28.0621 55.6693C27.985 55.6693 27.9147 55.6781 27.8511 55.6958C27.7886 55.7135 27.7308 55.7359 27.6777 55.763C27.6246 55.7901 27.5741 55.8192 27.5261 55.8505L27.3496 55.5958C27.436 55.5312 27.5392 55.4766 27.659 55.4318C27.7787 55.387 27.9183 55.3646 28.0777 55.3646C28.312 55.3646 28.4928 55.4151 28.6198 55.5161C28.7469 55.6161 28.8105 55.7505 28.8105 55.9192ZM30.7291 57.6816H29.1823V57.4051L29.7745 56.8051C29.889 56.6885 29.9833 56.588 30.0573 56.5036C30.1312 56.4182 30.1859 56.3374 30.2213 56.2614C30.2578 56.1854 30.276 56.1026 30.276 56.013C30.276 55.9026 30.2442 55.8192 30.1807 55.763C30.1171 55.7057 30.0333 55.6771 29.9291 55.6771C29.8302 55.6771 29.7385 55.6969 29.6542 55.7364C29.5708 55.775 29.4844 55.8302 29.3948 55.9021L29.1932 55.6599C29.2568 55.6057 29.3245 55.5562 29.3964 55.5114C29.4693 55.4667 29.5505 55.4312 29.6401 55.4052C29.7297 55.3781 29.8317 55.3646 29.9463 55.3646C30.0911 55.3646 30.2161 55.3906 30.3213 55.4427C30.4265 55.4937 30.5072 55.5651 30.5635 55.6568C30.6208 55.7484 30.6494 55.8552 30.6494 55.977C30.6494 56.1 30.6249 56.2135 30.576 56.3177C30.527 56.4218 30.4572 56.5249 30.3666 56.627C30.276 56.728 30.1682 56.8379 30.0432 56.9567L29.6479 57.3426V57.3598H30.7291V57.6816ZM31.79 56.2536C31.9368 56.2536 32.066 56.2802 32.1775 56.3333C32.2899 56.3854 32.3774 56.4624 32.4399 56.5645C32.5024 56.6656 32.5337 56.7895 32.5337 56.9364C32.5337 57.0968 32.4998 57.2353 32.4321 57.352C32.3644 57.4676 32.2649 57.5566 32.1337 57.6191C32.0025 57.6816 31.8426 57.7129 31.654 57.7129C31.5343 57.7129 31.4223 57.7025 31.3181 57.6816C31.215 57.6608 31.1259 57.6296 31.051 57.5879V57.2567C31.1291 57.3004 31.2228 57.3363 31.3322 57.3645C31.4416 57.3916 31.5462 57.4051 31.6462 57.4051C31.7525 57.4051 31.8436 57.3895 31.9197 57.3582C31.9957 57.327 32.054 57.2791 32.0946 57.2145C32.1363 57.1499 32.1571 57.0681 32.1571 56.9692C32.1571 56.8379 32.115 56.7369 32.0306 56.6661C31.9473 56.5942 31.8165 56.5583 31.6384 56.5583C31.5759 56.5583 31.5093 56.564 31.4384 56.5755C31.3686 56.5859 31.3103 56.5973 31.2634 56.6098L31.1025 56.5145L31.1884 55.3974H32.3759V55.7208H31.5119L31.4619 56.2895C31.4994 56.2812 31.5442 56.2734 31.5962 56.2661C31.6483 56.2578 31.7129 56.2536 31.79 56.2536Z" fill="white"/>
<defs>
<linearGradient id="paint0_linear_6333_32875" x1="48.5293" y1="48.7968" x2="80.5275" y2="48.7968" gradientUnits="userSpaceOnUse">
<stop offset="0.9999" stop-color="#D7D7D7"/>
<stop offset="1" stop-color="#ECECEC" stop-opacity="0"/>
</linearGradient>
</defs>
</svg>
