<svg width="92" height="92" viewBox="0 0 92 92" fill="none" xmlns="http://www.w3.org/2000/svg">
<rect x="0.389831" y="0.389831" width="91.079" height="91.2203" rx="17.5424" stroke="#BEBEBE" stroke-width="0.779661"/>
<rect x="11.1591" y="11.1591" width="69.6818" height="69.6818" rx="34.8409" stroke="#D4D4D4" stroke-width="0.318182"/>
<rect x="19.1591" y="19.1591" width="53.6818" height="53.6818" rx="26.8409" stroke="#F5F5F5" stroke-width="0.318182"/>
<rect x="27.1591" y="27.1591" width="37.6819" height="37.6819" rx="18.8409" stroke="#F5F5F5" stroke-width="0.318182"/>
<rect x="35.1591" y="35.1591" width="21.6818" height="21.6818" rx="10.8409" stroke="#F5F5F5" stroke-width="0.318182"/>
<rect x="43.1591" y="43.1591" width="5.68182" height="5.68182" rx="2.84091" stroke="#F5F5F5" stroke-width="0.318182"/>
<path d="M46 11L46 81" stroke="#D4D4D4" stroke-width="0.318182"/>
<path d="M46 46L11 46" stroke="#D4D4D4" stroke-width="0.318182"/>
<path d="M45.9996 18.9551C49.8493 18.9551 53.6548 19.777 57.1614 21.3658C60.668 22.9546 63.7951 25.2738 66.3334 28.1682C68.8717 31.0626 70.7629 34.4656 71.8804 38.1496C72.998 41.8337 73.3161 45.7138 72.8136 49.5307C72.3111 53.3475 70.9996 57.0131 68.9666 60.2824C66.9337 63.5516 64.2262 66.3492 61.0252 68.488C57.8242 70.6268 54.2035 72.0576 50.4051 72.6847C46.6068 73.3119 42.7183 73.1208 38.9997 72.1244L45.9996 46.0005V18.9551Z" fill="#FFE503"/>
<path d="M46.1798 73.0454C42.6282 73.0691 39.1067 72.393 35.8164 71.0557C32.5262 69.7184 29.5315 67.7462 27.0034 65.2516C24.4753 62.757 22.4633 59.7888 21.0823 56.5167C19.7013 53.2445 18.9784 49.7323 18.9547 46.1808L45.9996 46.0005L46.1798 73.0454Z" fill="#B5D5FF"/>
<path d="M18.9541 46.0005C18.9541 38.8276 21.8035 31.9485 26.8755 26.8765C31.9475 21.8045 38.8267 18.9551 45.9996 18.9551V46.0005L18.9541 46.0005Z" fill="#DBDADA"/>
</svg>
