<svg width="36" height="55" viewBox="0 0 36 55" fill="none" xmlns="http://www.w3.org/2000/svg">
<path d="M18.0392 54.0781C25.645 54.0781 31.8108 52.3686 31.8108 50.2597C31.8108 48.1509 25.645 46.4414 18.0392 46.4414C10.4333 46.4414 4.26758 48.1509 4.26758 50.2597C4.26758 52.3686 10.4333 54.0781 18.0392 54.0781Z" fill="#CFD8DC"/>
<path fill-rule="evenodd" clip-rule="evenodd" d="M0.509766 17.6586C0.509766 7.9772 8.35806 0.128906 18.0394 0.128906C27.7208 0.128906 35.5691 7.9772 35.5691 17.6586C35.5691 20.904 34.6386 24.0813 32.888 26.814L18.0394 49.9921L3.19089 26.814C1.44021 24.0812 0.509766 20.9038 0.509766 17.6586Z" fill="#F44336"/>
<path d="M19.54 24.9263C23.5463 24.1046 26.1278 20.1908 25.3062 16.1846C24.4845 12.1784 20.5707 9.59677 16.5645 10.4185C12.5582 11.2401 9.97665 15.1539 10.7983 19.1602C11.62 23.1664 15.5338 25.748 19.54 24.9263Z" fill="#C62828"/>
</svg>
