<svg width="92" height="92" viewBox="0 0 92 92" fill="none" xmlns="http://www.w3.org/2000/svg">
<rect x="0.389831" y="0.389831" width="91.079" height="91.2203" rx="17.5424" fill="white" stroke="#BEBEBE" stroke-width="0.779661"/>
<rect width="70" height="60.7317" transform="translate(10.5586 16)" fill="white"/>
<path d="M20.3145 21.8535V68.9267" stroke="#E0E0E0" stroke-width="0.243902"/>
<path d="M14.4175 23.8535H13.5048V23.7211L13.8773 23.3428C13.9465 23.273 14.0046 23.2107 14.0516 23.1561C14.0993 23.1015 14.1355 23.0478 14.1603 22.9951C14.185 22.9417 14.1974 22.8833 14.1974 22.8198C14.1974 22.741 14.1739 22.681 14.1269 22.6397C14.0805 22.5978 14.0192 22.5768 13.943 22.5768C13.8763 22.5768 13.8173 22.5883 13.7658 22.6111C13.7144 22.634 13.6616 22.6664 13.6077 22.7083L13.5229 22.6016C13.5597 22.5705 13.5997 22.5429 13.6429 22.5187C13.6867 22.4946 13.7334 22.4755 13.783 22.4616C13.8331 22.4476 13.8865 22.4406 13.943 22.4406C14.0288 22.4406 14.1028 22.4555 14.165 22.4854C14.2273 22.5152 14.2752 22.5578 14.3089 22.613C14.3432 22.6683 14.3603 22.734 14.3603 22.8103C14.3603 22.8839 14.3457 22.9525 14.3165 23.0161C14.2873 23.0789 14.2463 23.1415 14.1936 23.2037C14.1409 23.2654 14.0793 23.3308 14.0088 23.4L13.7058 23.702V23.7087H14.4175V23.8535ZM15.0615 23.0018C15.1562 23.0018 15.2384 23.018 15.3083 23.0504C15.3782 23.0821 15.4322 23.1285 15.4703 23.1895C15.509 23.2504 15.5284 23.3244 15.5284 23.4114C15.5284 23.5067 15.5077 23.589 15.4665 23.6582C15.4252 23.7268 15.3658 23.7798 15.2883 23.8173C15.2108 23.8542 15.1181 23.8726 15.0101 23.8726C14.9377 23.8726 14.8704 23.8662 14.8081 23.8535C14.7459 23.8408 14.6935 23.8218 14.6509 23.7964V23.6458C14.6973 23.6738 14.7535 23.696 14.8196 23.7125C14.8856 23.729 14.9498 23.7373 15.012 23.7373C15.0825 23.7373 15.1441 23.7262 15.1968 23.7039C15.2502 23.6811 15.2915 23.6468 15.3207 23.601C15.3505 23.5547 15.3655 23.4966 15.3655 23.4267C15.3655 23.334 15.3369 23.2625 15.2797 23.2123C15.2232 23.1615 15.1336 23.1361 15.0111 23.1361C14.9717 23.1361 14.9285 23.1393 14.8815 23.1456C14.8345 23.152 14.7957 23.159 14.7652 23.1666L14.6852 23.1142L14.7386 22.4606H15.4312V22.6054H14.8739L14.8386 23.0256C14.8627 23.0205 14.8939 23.0154 14.932 23.0103C14.9701 23.0046 15.0133 23.0018 15.0615 23.0018ZM16.6583 23.1552C16.6583 23.2682 16.6498 23.3692 16.6326 23.4581C16.6155 23.547 16.5885 23.6223 16.5516 23.6839C16.5148 23.7455 16.4672 23.7925 16.4087 23.8249C16.3503 23.8567 16.2801 23.8726 16.1982 23.8726C16.0946 23.8726 16.0089 23.8443 15.9409 23.7878C15.8736 23.7312 15.8231 23.6496 15.7894 23.5429C15.7564 23.4356 15.7399 23.3063 15.7399 23.1552C15.7399 23.0065 15.7548 22.8789 15.7847 22.7722C15.8152 22.6648 15.8641 22.5826 15.9314 22.5254C15.9987 22.4676 16.0877 22.4387 16.1982 22.4387C16.303 22.4387 16.3894 22.4673 16.4573 22.5244C16.5253 22.581 16.5758 22.6629 16.6088 22.7702C16.6418 22.877 16.6583 23.0053 16.6583 23.1552ZM15.899 23.1552C15.899 23.2847 15.9089 23.3927 15.9285 23.4791C15.9482 23.5655 15.98 23.6303 16.0238 23.6734C16.0683 23.716 16.1264 23.7373 16.1982 23.7373C16.2699 23.7373 16.3277 23.716 16.3716 23.6734C16.416 23.6309 16.4481 23.5664 16.4678 23.48C16.4881 23.3937 16.4983 23.2854 16.4983 23.1552C16.4983 23.0275 16.4884 22.9208 16.4687 22.835C16.4491 22.7487 16.4173 22.6839 16.3735 22.6407C16.3296 22.5968 16.2712 22.5749 16.1982 22.5749C16.1251 22.5749 16.0667 22.5968 16.0229 22.6407C15.979 22.6839 15.9473 22.7487 15.9276 22.835C15.9085 22.9208 15.899 23.0275 15.899 23.1552ZM17.775 23.1552C17.775 23.2682 17.7664 23.3692 17.7492 23.4581C17.7321 23.547 17.7051 23.6223 17.6683 23.6839C17.6314 23.7455 17.5838 23.7925 17.5253 23.8249C17.4669 23.8567 17.3967 23.8726 17.3148 23.8726C17.2113 23.8726 17.1255 23.8443 17.0575 23.7878C16.9902 23.7312 16.9397 23.6496 16.9061 23.5429C16.873 23.4356 16.8565 23.3063 16.8565 23.1552C16.8565 23.0065 16.8714 22.8789 16.9013 22.7722C16.9318 22.6648 16.9807 22.5826 17.048 22.5254C17.1153 22.4676 17.2043 22.4387 17.3148 22.4387C17.4196 22.4387 17.506 22.4673 17.5739 22.5244C17.6419 22.581 17.6924 22.6629 17.7254 22.7702C17.7584 22.877 17.775 23.0053 17.775 23.1552ZM17.0156 23.1552C17.0156 23.2847 17.0255 23.3927 17.0452 23.4791C17.0649 23.5655 17.0966 23.6303 17.1404 23.6734C17.1849 23.716 17.243 23.7373 17.3148 23.7373C17.3866 23.7373 17.4444 23.716 17.4882 23.6734C17.5326 23.6309 17.5647 23.5664 17.5844 23.48C17.6047 23.3937 17.6149 23.2854 17.6149 23.1552C17.6149 23.0275 17.6051 22.9208 17.5854 22.835C17.5657 22.7487 17.5339 22.6839 17.4901 22.6407C17.4463 22.5968 17.3878 22.5749 17.3148 22.5749C17.2417 22.5749 17.1833 22.5968 17.1395 22.6407C17.0957 22.6839 17.0639 22.7487 17.0442 22.835C17.0252 22.9208 17.0156 23.0275 17.0156 23.1552Z" fill="#212121"/>
<path d="M14.4175 31.2441H13.5048V31.1117L13.8773 30.7335C13.9465 30.6636 14.0046 30.6014 14.0516 30.5467C14.0993 30.4921 14.1355 30.4384 14.1603 30.3857C14.185 30.3324 14.1974 30.2739 14.1974 30.2104C14.1974 30.1317 14.1739 30.0716 14.1269 30.0303C14.0805 29.9884 14.0192 29.9675 13.943 29.9675C13.8763 29.9675 13.8173 29.9789 13.7658 30.0018C13.7144 30.0246 13.6616 30.057 13.6077 30.0989L13.5229 29.9922C13.5597 29.9611 13.5997 29.9335 13.6429 29.9093C13.6867 29.8852 13.7334 29.8662 13.783 29.8522C13.8331 29.8382 13.8865 29.8312 13.943 29.8312C14.0288 29.8312 14.1028 29.8461 14.165 29.876C14.2273 29.9059 14.2752 29.9484 14.3089 30.0037C14.3432 30.0589 14.3603 30.1247 14.3603 30.2009C14.3603 30.2746 14.3457 30.3432 14.3165 30.4067C14.2873 30.4696 14.2463 30.5321 14.1936 30.5944C14.1409 30.656 14.0793 30.7214 14.0088 30.7906L13.7058 31.0927V31.0993H14.4175V31.2441ZM15.5417 30.5458C15.5417 30.6588 15.5332 30.7598 15.516 30.8488C15.4989 30.9377 15.4719 31.0129 15.435 31.0746C15.3982 31.1362 15.3505 31.1832 15.2921 31.2156C15.2337 31.2473 15.1635 31.2632 15.0816 31.2632C14.978 31.2632 14.8923 31.2349 14.8243 31.1784C14.757 31.1219 14.7065 31.0403 14.6728 30.9335C14.6398 30.8262 14.6233 30.6969 14.6233 30.5458C14.6233 30.3972 14.6382 30.2695 14.6681 30.1628C14.6986 30.0554 14.7475 29.9732 14.8148 29.916C14.8821 29.8582 14.971 29.8293 15.0816 29.8293C15.1864 29.8293 15.2727 29.8579 15.3407 29.9151C15.4087 29.9716 15.4592 30.0535 15.4922 30.1609C15.5252 30.2676 15.5417 30.3959 15.5417 30.5458ZM14.7824 30.5458C14.7824 30.6754 14.7922 30.7833 14.8119 30.8697C14.8316 30.9561 14.8634 31.0209 14.9072 31.0641C14.9517 31.1066 15.0098 31.1279 15.0816 31.1279C15.1533 31.1279 15.2111 31.1066 15.255 31.0641C15.2994 31.0215 15.3315 30.957 15.3512 30.8707C15.3715 30.7843 15.3817 30.676 15.3817 30.5458C15.3817 30.4181 15.3718 30.3114 15.3521 30.2257C15.3324 30.1393 15.3007 30.0745 15.2569 30.0313C15.213 29.9875 15.1546 29.9656 15.0816 29.9656C15.0085 29.9656 14.9501 29.9875 14.9062 30.0313C14.8624 30.0745 14.8307 30.1393 14.811 30.2257C14.7919 30.3114 14.7824 30.4181 14.7824 30.5458ZM16.6583 30.5458C16.6583 30.6588 16.6498 30.7598 16.6326 30.8488C16.6155 30.9377 16.5885 31.0129 16.5516 31.0746C16.5148 31.1362 16.4672 31.1832 16.4087 31.2156C16.3503 31.2473 16.2801 31.2632 16.1982 31.2632C16.0946 31.2632 16.0089 31.2349 15.9409 31.1784C15.8736 31.1219 15.8231 31.0403 15.7894 30.9335C15.7564 30.8262 15.7399 30.6969 15.7399 30.5458C15.7399 30.3972 15.7548 30.2695 15.7847 30.1628C15.8152 30.0554 15.8641 29.9732 15.9314 29.916C15.9987 29.8582 16.0877 29.8293 16.1982 29.8293C16.303 29.8293 16.3894 29.8579 16.4573 29.9151C16.5253 29.9716 16.5758 30.0535 16.6088 30.1609C16.6418 30.2676 16.6583 30.3959 16.6583 30.5458ZM15.899 30.5458C15.899 30.6754 15.9089 30.7833 15.9285 30.8697C15.9482 30.9561 15.98 31.0209 16.0238 31.0641C16.0683 31.1066 16.1264 31.1279 16.1982 31.1279C16.2699 31.1279 16.3277 31.1066 16.3716 31.0641C16.416 31.0215 16.4481 30.957 16.4678 30.8707C16.4881 30.7843 16.4983 30.676 16.4983 30.5458C16.4983 30.4181 16.4884 30.3114 16.4687 30.2257C16.4491 30.1393 16.4173 30.0745 16.3735 30.0313C16.3296 29.9875 16.2712 29.9656 16.1982 29.9656C16.1251 29.9656 16.0667 29.9875 16.0229 30.0313C15.979 30.0745 15.9473 30.1393 15.9276 30.2257C15.9085 30.3114 15.899 30.4181 15.899 30.5458ZM17.775 30.5458C17.775 30.6588 17.7664 30.7598 17.7492 30.8488C17.7321 30.9377 17.7051 31.0129 17.6683 31.0746C17.6314 31.1362 17.5838 31.1832 17.5253 31.2156C17.4669 31.2473 17.3967 31.2632 17.3148 31.2632C17.2113 31.2632 17.1255 31.2349 17.0575 31.1784C16.9902 31.1219 16.9397 31.0403 16.9061 30.9335C16.873 30.8262 16.8565 30.6969 16.8565 30.5458C16.8565 30.3972 16.8714 30.2695 16.9013 30.1628C16.9318 30.0554 16.9807 29.9732 17.048 29.916C17.1153 29.8582 17.2043 29.8293 17.3148 29.8293C17.4196 29.8293 17.506 29.8579 17.5739 29.9151C17.6419 29.9716 17.6924 30.0535 17.7254 30.1609C17.7584 30.2676 17.775 30.3959 17.775 30.5458ZM17.0156 30.5458C17.0156 30.6754 17.0255 30.7833 17.0452 30.8697C17.0649 30.9561 17.0966 31.0209 17.1404 31.0641C17.1849 31.1066 17.243 31.1279 17.3148 31.1279C17.3866 31.1279 17.4444 31.1066 17.4882 31.0641C17.5326 31.0215 17.5647 30.957 17.5844 30.8707C17.6047 30.7843 17.6149 30.676 17.6149 30.5458C17.6149 30.4181 17.6051 30.3114 17.5854 30.2257C17.5657 30.1393 17.5339 30.0745 17.4901 30.0313C17.4463 29.9875 17.3878 29.9656 17.3148 29.9656C17.2417 29.9656 17.1833 29.9875 17.1395 30.0313C17.0957 30.0745 17.0639 30.1393 17.0442 30.2257C17.0252 30.3114 17.0156 30.4181 17.0156 30.5458Z" fill="#212121"/>
<path d="M14.0936 38.6348H13.9392V37.6477C13.9392 37.6102 13.9392 37.5782 13.9392 37.5515C13.9398 37.5242 13.9405 37.4994 13.9411 37.4772C13.9424 37.4543 13.944 37.4311 13.9459 37.4076C13.9262 37.428 13.9078 37.4454 13.8906 37.46C13.8735 37.474 13.8522 37.4915 13.8268 37.5124L13.6677 37.6401L13.5848 37.5324L13.9621 37.2419H14.0936V38.6348ZM15.0615 37.783C15.1562 37.783 15.2384 37.7992 15.3083 37.8316C15.3782 37.8634 15.4322 37.9097 15.4703 37.9707C15.509 38.0317 15.5284 38.1057 15.5284 38.1927C15.5284 38.288 15.5077 38.3702 15.4665 38.4395C15.4252 38.5081 15.3658 38.5611 15.2883 38.5986C15.2108 38.6354 15.1181 38.6538 15.0101 38.6538C14.9377 38.6538 14.8704 38.6475 14.8081 38.6348C14.7459 38.6221 14.6935 38.603 14.6509 38.5776V38.4271C14.6973 38.455 14.7535 38.4772 14.8196 38.4938C14.8856 38.5103 14.9498 38.5185 15.012 38.5185C15.0825 38.5185 15.1441 38.5074 15.1968 38.4852C15.2502 38.4623 15.2915 38.428 15.3207 38.3823C15.3505 38.3359 15.3655 38.2778 15.3655 38.2079C15.3655 38.1152 15.3369 38.0437 15.2797 37.9936C15.2232 37.9428 15.1336 37.9173 15.0111 37.9173C14.9717 37.9173 14.9285 37.9205 14.8815 37.9269C14.8345 37.9332 14.7957 37.9402 14.7652 37.9478L14.6852 37.8954L14.7386 37.2419H15.4312V37.3867H14.8739L14.8386 37.8068C14.8627 37.8017 14.8939 37.7967 14.932 37.7916C14.9701 37.7859 15.0133 37.783 15.0615 37.783ZM16.6583 37.9364C16.6583 38.0495 16.6498 38.1505 16.6326 38.2394C16.6155 38.3283 16.5885 38.4036 16.5516 38.4652C16.5148 38.5268 16.4672 38.5738 16.4087 38.6062C16.3503 38.6379 16.2801 38.6538 16.1982 38.6538C16.0946 38.6538 16.0089 38.6256 15.9409 38.569C15.8736 38.5125 15.8231 38.4309 15.7894 38.3242C15.7564 38.2168 15.7399 38.0876 15.7399 37.9364C15.7399 37.7878 15.7548 37.6601 15.7847 37.5534C15.8152 37.4461 15.8641 37.3638 15.9314 37.3066C15.9987 37.2488 16.0877 37.2199 16.1982 37.2199C16.303 37.2199 16.3894 37.2485 16.4573 37.3057C16.5253 37.3622 16.5758 37.4442 16.6088 37.5515C16.6418 37.6582 16.6583 37.7865 16.6583 37.9364ZM15.899 37.9364C15.899 38.066 15.9089 38.174 15.9285 38.2603C15.9482 38.3467 15.98 38.4115 16.0238 38.4547C16.0683 38.4973 16.1264 38.5185 16.1982 38.5185C16.2699 38.5185 16.3277 38.4973 16.3716 38.4547C16.416 38.4121 16.4481 38.3477 16.4678 38.2613C16.4881 38.1749 16.4983 38.0666 16.4983 37.9364C16.4983 37.8087 16.4884 37.702 16.4687 37.6163C16.4491 37.5299 16.4173 37.4651 16.3735 37.4219C16.3296 37.3781 16.2712 37.3562 16.1982 37.3562C16.1251 37.3562 16.0667 37.3781 16.0229 37.4219C15.979 37.4651 15.9473 37.5299 15.9276 37.6163C15.9085 37.702 15.899 37.8087 15.899 37.9364ZM17.775 37.9364C17.775 38.0495 17.7664 38.1505 17.7492 38.2394C17.7321 38.3283 17.7051 38.4036 17.6683 38.4652C17.6314 38.5268 17.5838 38.5738 17.5253 38.6062C17.4669 38.6379 17.3967 38.6538 17.3148 38.6538C17.2113 38.6538 17.1255 38.6256 17.0575 38.569C16.9902 38.5125 16.9397 38.4309 16.9061 38.3242C16.873 38.2168 16.8565 38.0876 16.8565 37.9364C16.8565 37.7878 16.8714 37.6601 16.9013 37.5534C16.9318 37.4461 16.9807 37.3638 17.048 37.3066C17.1153 37.2488 17.2043 37.2199 17.3148 37.2199C17.4196 37.2199 17.506 37.2485 17.5739 37.3057C17.6419 37.3622 17.6924 37.4442 17.7254 37.5515C17.7584 37.6582 17.775 37.7865 17.775 37.9364ZM17.0156 37.9364C17.0156 38.066 17.0255 38.174 17.0452 38.2603C17.0649 38.3467 17.0966 38.4115 17.1404 38.4547C17.1849 38.4973 17.243 38.5185 17.3148 38.5185C17.3866 38.5185 17.4444 38.4973 17.4882 38.4547C17.5326 38.4121 17.5647 38.3477 17.5844 38.2613C17.6047 38.1749 17.6149 38.0666 17.6149 37.9364C17.6149 37.8087 17.6051 37.702 17.5854 37.6163C17.5657 37.5299 17.5339 37.4651 17.4901 37.4219C17.4463 37.3781 17.3878 37.3562 17.3148 37.3562C17.2417 37.3562 17.1833 37.3781 17.1395 37.4219C17.0957 37.4651 17.0639 37.5299 17.0442 37.6163C17.0252 37.702 17.0156 37.8087 17.0156 37.9364Z" fill="#212121"/>
<path d="M14.0936 46.0234H13.9392V45.0364C13.9392 44.9989 13.9392 44.9668 13.9392 44.9402C13.9398 44.9129 13.9405 44.8881 13.9411 44.8659C13.9424 44.843 13.944 44.8198 13.9459 44.7963C13.9262 44.8166 13.9078 44.8341 13.8906 44.8487C13.8735 44.8627 13.8522 44.8801 13.8268 44.9011L13.6677 45.0288L13.5848 44.9211L13.9621 44.6305H14.0936V46.0234ZM15.5417 45.3251C15.5417 45.4381 15.5332 45.5391 15.516 45.628C15.4989 45.717 15.4719 45.7922 15.435 45.8538C15.3982 45.9155 15.3505 45.9625 15.2921 45.9949C15.2337 46.0266 15.1635 46.0425 15.0816 46.0425C14.978 46.0425 14.8923 46.0142 14.8243 45.9577C14.757 45.9012 14.7065 45.8196 14.6728 45.7128C14.6398 45.6055 14.6233 45.4762 14.6233 45.3251C14.6233 45.1764 14.6382 45.0488 14.6681 44.9421C14.6986 44.8347 14.7475 44.7525 14.8148 44.6953C14.8821 44.6375 14.971 44.6086 15.0816 44.6086C15.1864 44.6086 15.2727 44.6372 15.3407 44.6944C15.4087 44.7509 15.4592 44.8328 15.4922 44.9402C15.5252 45.0469 15.5417 45.1752 15.5417 45.3251ZM14.7824 45.3251C14.7824 45.4546 14.7922 45.5626 14.8119 45.649C14.8316 45.7354 14.8634 45.8002 14.9072 45.8434C14.9517 45.8859 15.0098 45.9072 15.0816 45.9072C15.1533 45.9072 15.2111 45.8859 15.255 45.8434C15.2994 45.8008 15.3315 45.7363 15.3512 45.65C15.3715 45.5636 15.3817 45.4553 15.3817 45.3251C15.3817 45.1974 15.3718 45.0907 15.3521 45.005C15.3324 44.9186 15.3007 44.8538 15.2569 44.8106C15.213 44.7668 15.1546 44.7449 15.0816 44.7449C15.0085 44.7449 14.9501 44.7668 14.9062 44.8106C14.8624 44.8538 14.8307 44.9186 14.811 45.005C14.7919 45.0907 14.7824 45.1974 14.7824 45.3251ZM16.6583 45.3251C16.6583 45.4381 16.6498 45.5391 16.6326 45.628C16.6155 45.717 16.5885 45.7922 16.5516 45.8538C16.5148 45.9155 16.4672 45.9625 16.4087 45.9949C16.3503 46.0266 16.2801 46.0425 16.1982 46.0425C16.0946 46.0425 16.0089 46.0142 15.9409 45.9577C15.8736 45.9012 15.8231 45.8196 15.7894 45.7128C15.7564 45.6055 15.7399 45.4762 15.7399 45.3251C15.7399 45.1764 15.7548 45.0488 15.7847 44.9421C15.8152 44.8347 15.8641 44.7525 15.9314 44.6953C15.9987 44.6375 16.0877 44.6086 16.1982 44.6086C16.303 44.6086 16.3894 44.6372 16.4573 44.6944C16.5253 44.7509 16.5758 44.8328 16.6088 44.9402C16.6418 45.0469 16.6583 45.1752 16.6583 45.3251ZM15.899 45.3251C15.899 45.4546 15.9089 45.5626 15.9285 45.649C15.9482 45.7354 15.98 45.8002 16.0238 45.8434C16.0683 45.8859 16.1264 45.9072 16.1982 45.9072C16.2699 45.9072 16.3277 45.8859 16.3716 45.8434C16.416 45.8008 16.4481 45.7363 16.4678 45.65C16.4881 45.5636 16.4983 45.4553 16.4983 45.3251C16.4983 45.1974 16.4884 45.0907 16.4687 45.005C16.4491 44.9186 16.4173 44.8538 16.3735 44.8106C16.3296 44.7668 16.2712 44.7449 16.1982 44.7449C16.1251 44.7449 16.0667 44.7668 16.0229 44.8106C15.979 44.8538 15.9473 44.9186 15.9276 45.005C15.9085 45.0907 15.899 45.1974 15.899 45.3251ZM17.775 45.3251C17.775 45.4381 17.7664 45.5391 17.7492 45.628C17.7321 45.717 17.7051 45.7922 17.6683 45.8538C17.6314 45.9155 17.5838 45.9625 17.5253 45.9949C17.4669 46.0266 17.3967 46.0425 17.3148 46.0425C17.2113 46.0425 17.1255 46.0142 17.0575 45.9577C16.9902 45.9012 16.9397 45.8196 16.9061 45.7128C16.873 45.6055 16.8565 45.4762 16.8565 45.3251C16.8565 45.1764 16.8714 45.0488 16.9013 44.9421C16.9318 44.8347 16.9807 44.7525 17.048 44.6953C17.1153 44.6375 17.2043 44.6086 17.3148 44.6086C17.4196 44.6086 17.506 44.6372 17.5739 44.6944C17.6419 44.7509 17.6924 44.8328 17.7254 44.9402C17.7584 45.0469 17.775 45.1752 17.775 45.3251ZM17.0156 45.3251C17.0156 45.4546 17.0255 45.5626 17.0452 45.649C17.0649 45.7354 17.0966 45.8002 17.1404 45.8434C17.1849 45.8859 17.243 45.9072 17.3148 45.9072C17.3866 45.9072 17.4444 45.8859 17.4882 45.8434C17.5326 45.8008 17.5647 45.7363 17.5844 45.65C17.6047 45.5636 17.6149 45.4553 17.6149 45.3251C17.6149 45.1974 17.6051 45.0907 17.5854 45.005C17.5657 44.9186 17.5339 44.8538 17.4901 44.8106C17.4463 44.7668 17.3878 44.7449 17.3148 44.7449C17.2417 44.7449 17.1833 44.7668 17.1395 44.8106C17.0957 44.8538 17.0639 44.9186 17.0442 45.005C17.0252 45.0907 17.0156 45.1974 17.0156 45.3251Z" fill="#212121"/>
<path d="M15.0621 52.5623C15.1568 52.5623 15.239 52.5785 15.3089 52.6109C15.3787 52.6427 15.4327 52.689 15.4708 52.75C15.5096 52.811 15.529 52.885 15.529 52.972C15.529 53.0673 15.5083 53.1495 15.467 53.2187C15.4257 53.2873 15.3664 53.3404 15.2889 53.3779C15.2114 53.4147 15.1186 53.4331 15.0107 53.4331C14.9383 53.4331 14.8709 53.4268 14.8087 53.4141C14.7464 53.4014 14.694 53.3823 14.6515 53.3569V53.2064C14.6979 53.2343 14.7541 53.2565 14.8201 53.2731C14.8862 53.2896 14.9503 53.2978 15.0126 53.2978C15.0831 53.2978 15.1447 53.2867 15.1974 53.2645C15.2508 53.2416 15.292 53.2073 15.3213 53.1616C15.3511 53.1152 15.366 53.0571 15.366 52.9872C15.366 52.8945 15.3375 52.823 15.2803 52.7729C15.2238 52.7221 15.1342 52.6966 15.0116 52.6966C14.9722 52.6966 14.9291 52.6998 14.8821 52.7062C14.835 52.7125 14.7963 52.7195 14.7658 52.7271L14.6858 52.6747L14.7391 52.0212H15.4318V52.166H14.8744L14.8392 52.5861C14.8633 52.581 14.8944 52.576 14.9325 52.5709C14.9707 52.5652 15.0138 52.5623 15.0621 52.5623ZM16.6589 52.7157C16.6589 52.8288 16.6503 52.9298 16.6332 53.0187C16.616 53.1076 16.589 53.1829 16.5522 53.2445C16.5154 53.3061 16.4677 53.3531 16.4093 53.3855C16.3509 53.4172 16.2807 53.4331 16.1987 53.4331C16.0952 53.4331 16.0095 53.4049 15.9415 53.3483C15.8742 53.2918 15.8237 53.2102 15.79 53.1035C15.757 52.9961 15.7405 52.8669 15.7405 52.7157C15.7405 52.5671 15.7554 52.4394 15.7853 52.3327C15.8157 52.2254 15.8646 52.1431 15.932 52.0859C15.9993 52.0281 16.0882 51.9992 16.1987 51.9992C16.3035 51.9992 16.3899 52.0278 16.4579 52.085C16.5259 52.1415 16.5763 52.2235 16.6094 52.3308C16.6424 52.4375 16.6589 52.5658 16.6589 52.7157ZM15.8996 52.7157C15.8996 52.8453 15.9094 52.9533 15.9291 53.0396C15.9488 53.126 15.9806 53.1908 16.0244 53.234C16.0689 53.2765 16.127 53.2978 16.1987 53.2978C16.2705 53.2978 16.3283 53.2765 16.3721 53.234C16.4166 53.1914 16.4487 53.127 16.4684 53.0406C16.4887 52.9542 16.4989 52.8459 16.4989 52.7157C16.4989 52.588 16.489 52.4813 16.4693 52.3956C16.4496 52.3092 16.4179 52.2444 16.374 52.2012C16.3302 52.1574 16.2718 52.1355 16.1987 52.1355C16.1257 52.1355 16.0673 52.1574 16.0234 52.2012C15.9796 52.2444 15.9479 52.3092 15.9282 52.3956C15.9091 52.4813 15.8996 52.588 15.8996 52.7157ZM17.7755 52.7157C17.7755 52.8288 17.767 52.9298 17.7498 53.0187C17.7327 53.1076 17.7057 53.1829 17.6688 53.2445C17.632 53.3061 17.5843 53.3531 17.5259 53.3855C17.4675 53.4172 17.3973 53.4331 17.3154 53.4331C17.2118 53.4331 17.1261 53.4049 17.0581 53.3483C16.9908 53.2918 16.9403 53.2102 16.9066 53.1035C16.8736 52.9961 16.8571 52.8669 16.8571 52.7157C16.8571 52.5671 16.872 52.4394 16.9019 52.3327C16.9324 52.2254 16.9813 52.1431 17.0486 52.0859C17.1159 52.0281 17.2048 51.9992 17.3154 51.9992C17.4202 51.9992 17.5065 52.0278 17.5745 52.085C17.6425 52.1415 17.693 52.2235 17.726 52.3308C17.759 52.4375 17.7755 52.5658 17.7755 52.7157ZM17.0162 52.7157C17.0162 52.8453 17.026 52.9533 17.0457 53.0396C17.0654 53.126 17.0972 53.1908 17.141 53.234C17.1855 53.2765 17.2436 53.2978 17.3154 53.2978C17.3871 53.2978 17.4449 53.2765 17.4888 53.234C17.5332 53.1914 17.5653 53.127 17.585 53.0406C17.6053 52.9542 17.6155 52.8459 17.6155 52.7157C17.6155 52.588 17.6056 52.4813 17.5859 52.3956C17.5662 52.3092 17.5345 52.2444 17.4907 52.2012C17.4468 52.1574 17.3884 52.1355 17.3154 52.1355C17.2423 52.1355 17.1839 52.1574 17.1401 52.2012C17.0962 52.2444 17.0645 52.3092 17.0448 52.3956C17.0257 52.4813 17.0162 52.588 17.0162 52.7157Z" fill="#212121"/>
<path d="M15.2107 60.8047H15.0564V59.8176C15.0564 59.7802 15.0564 59.7481 15.0564 59.7214C15.057 59.6941 15.0577 59.6693 15.0583 59.6471C15.0596 59.6242 15.0612 59.6011 15.0631 59.5776C15.0434 59.5979 15.025 59.6153 15.0078 59.63C14.9907 59.6439 14.9694 59.6614 14.944 59.6824L14.7849 59.81L14.702 59.7024L15.0793 59.4118H15.2107V60.8047ZM16.6589 60.1063C16.6589 60.2194 16.6503 60.3204 16.6332 60.4093C16.616 60.4982 16.589 60.5735 16.5522 60.6351C16.5154 60.6967 16.4677 60.7437 16.4093 60.7761C16.3509 60.8079 16.2807 60.8237 16.1987 60.8237C16.0952 60.8237 16.0095 60.7955 15.9415 60.7389C15.8742 60.6824 15.8237 60.6008 15.79 60.4941C15.757 60.3868 15.7405 60.2575 15.7405 60.1063C15.7405 59.9577 15.7554 59.83 15.7853 59.7233C15.8157 59.616 15.8646 59.5337 15.932 59.4766C15.9993 59.4188 16.0882 59.3899 16.1987 59.3899C16.3035 59.3899 16.3899 59.4184 16.4579 59.4756C16.5259 59.5321 16.5763 59.6141 16.6094 59.7214C16.6424 59.8281 16.6589 59.9564 16.6589 60.1063ZM15.8996 60.1063C15.8996 60.2359 15.9094 60.3439 15.9291 60.4303C15.9488 60.5166 15.9806 60.5814 16.0244 60.6246C16.0689 60.6672 16.127 60.6885 16.1987 60.6885C16.2705 60.6885 16.3283 60.6672 16.3721 60.6246C16.4166 60.5821 16.4487 60.5176 16.4684 60.4312C16.4887 60.3448 16.4989 60.2365 16.4989 60.1063C16.4989 59.9787 16.489 59.872 16.4693 59.7862C16.4496 59.6998 16.4179 59.635 16.374 59.5918C16.3302 59.548 16.2718 59.5261 16.1987 59.5261C16.1257 59.5261 16.0673 59.548 16.0234 59.5918C15.9796 59.635 15.9479 59.6998 15.9282 59.7862C15.9091 59.872 15.8996 59.9787 15.8996 60.1063ZM17.7755 60.1063C17.7755 60.2194 17.767 60.3204 17.7498 60.4093C17.7327 60.4982 17.7057 60.5735 17.6688 60.6351C17.632 60.6967 17.5843 60.7437 17.5259 60.7761C17.4675 60.8079 17.3973 60.8237 17.3154 60.8237C17.2118 60.8237 17.1261 60.7955 17.0581 60.7389C16.9908 60.6824 16.9403 60.6008 16.9066 60.4941C16.8736 60.3868 16.8571 60.2575 16.8571 60.1063C16.8571 59.9577 16.872 59.83 16.9019 59.7233C16.9324 59.616 16.9813 59.5337 17.0486 59.4766C17.1159 59.4188 17.2048 59.3899 17.3154 59.3899C17.4202 59.3899 17.5065 59.4184 17.5745 59.4756C17.6425 59.5321 17.693 59.6141 17.726 59.7214C17.759 59.8281 17.7755 59.9564 17.7755 60.1063ZM17.0162 60.1063C17.0162 60.2359 17.026 60.3439 17.0457 60.4303C17.0654 60.5166 17.0972 60.5814 17.141 60.6246C17.1855 60.6672 17.2436 60.6885 17.3154 60.6885C17.3871 60.6885 17.4449 60.6672 17.4888 60.6246C17.5332 60.5821 17.5653 60.5176 17.585 60.4312C17.6053 60.3448 17.6155 60.2365 17.6155 60.1063C17.6155 59.9787 17.6056 59.872 17.5859 59.7862C17.5662 59.6998 17.5345 59.635 17.4907 59.5918C17.4468 59.548 17.3884 59.5261 17.3154 59.5261C17.2423 59.5261 17.1839 59.548 17.1401 59.5918C17.0962 59.635 17.0645 59.6998 17.0448 59.7862C17.0257 59.872 17.0162 59.9787 17.0162 60.1063Z" fill="#212121"/>
<path d="M17.7755 67.497C17.7755 67.61 17.767 67.711 17.7498 67.7999C17.7327 67.8888 17.7057 67.9641 17.6688 68.0257C17.632 68.0873 17.5843 68.1343 17.5259 68.1667C17.4675 68.1985 17.3973 68.2144 17.3154 68.2144C17.2118 68.2144 17.1261 68.1861 17.0581 68.1296C16.9908 68.073 16.9403 67.9914 16.9066 67.8847C16.8736 67.7774 16.8571 67.6481 16.8571 67.497C16.8571 67.3483 16.872 67.2207 16.9019 67.1139C16.9324 67.0066 16.9813 66.9244 17.0486 66.8672C17.1159 66.8094 17.2048 66.7805 17.3154 66.7805C17.4202 66.7805 17.5065 66.8091 17.5745 66.8662C17.6425 66.9228 17.693 67.0047 17.726 67.112C17.759 67.2187 17.7755 67.3471 17.7755 67.497ZM17.0162 67.497C17.0162 67.6265 17.026 67.7345 17.0457 67.8209C17.0654 67.9073 17.0972 67.9721 17.141 68.0152C17.1855 68.0578 17.2436 68.0791 17.3154 68.0791C17.3871 68.0791 17.4449 68.0578 17.4888 68.0152C17.5332 67.9727 17.5653 67.9082 17.585 67.8218C17.6053 67.7355 17.6155 67.6272 17.6155 67.497C17.6155 67.3693 17.6056 67.2626 17.5859 67.1768C17.5662 67.0904 17.5345 67.0257 17.4907 66.9825C17.4468 66.9386 17.3884 66.9167 17.3154 66.9167C17.2423 66.9167 17.1839 66.9386 17.1401 66.9825C17.0962 67.0257 17.0645 67.0904 17.0448 67.1768C17.0257 67.2626 17.0162 67.3693 17.0162 67.497Z" fill="#212121"/>
<path d="M23.5994 73.806C23.7305 73.6998 23.8471 73.648 23.949 73.6506C24.051 73.6525 24.1406 73.7011 24.2179 73.7966C24.2528 73.8397 24.2789 73.8865 24.296 73.9371C24.3133 73.9868 24.3181 74.0393 24.3106 74.0944C24.3028 74.1492 24.2801 74.2059 24.2425 74.2647C24.205 74.3227 24.1492 74.3817 24.0751 74.4417L23.9513 74.5419L24.275 74.9417L24.1568 75.0374L23.3338 74.021L23.5994 73.806ZM23.6699 73.9158L23.5336 74.0261L23.8691 74.4404L23.9797 74.3509C24.0446 74.2984 24.0929 74.2477 24.1248 74.1989C24.1571 74.1497 24.1715 74.1008 24.1682 74.0521C24.1644 74.003 24.1416 73.9524 24.0995 73.9005C24.0447 73.8329 23.9825 73.8 23.9127 73.802C23.8426 73.8036 23.7616 73.8415 23.6699 73.9158ZM25.7377 73.3095C25.7865 73.3697 25.8131 73.4334 25.8175 73.5004C25.8219 73.5666 25.8063 73.6326 25.7706 73.6984C25.7348 73.7641 25.6806 73.8265 25.6078 73.8854C25.5693 73.9166 25.5315 73.9442 25.4942 73.9682C25.4569 73.9923 25.421 74.0125 25.3867 74.0288C25.3523 74.0451 25.3201 74.057 25.2901 74.0644L25.1983 73.9511C25.2447 73.9374 25.298 73.9165 25.3582 73.8884C25.418 73.86 25.4752 73.8236 25.5299 73.7793C25.5809 73.738 25.6186 73.6964 25.6429 73.6544C25.6669 73.612 25.6776 73.5707 25.675 73.5306C25.6725 73.4896 25.6566 73.4511 25.6274 73.4149C25.5992 73.3802 25.5681 73.3574 25.5341 73.3466C25.4996 73.3353 25.4569 73.3347 25.4058 73.3446C25.3548 73.3536 25.2899 73.372 25.2111 73.3998C25.1556 73.4194 25.1041 73.4335 25.0566 73.4421C25.0086 73.4502 24.9642 73.4516 24.9232 73.4465C24.8822 73.4413 24.8435 73.4281 24.8071 73.4069C24.7712 73.3854 24.7373 73.3549 24.7054 73.3155C24.6615 73.2613 24.6377 73.2038 24.6339 73.1432C24.6301 73.0818 24.6444 73.0212 24.6765 72.9614C24.7087 72.9007 24.7566 72.8447 24.8201 72.7933C24.8743 72.7494 24.9285 72.7139 24.9826 72.687C25.0372 72.6596 25.0907 72.639 25.1431 72.625L25.1884 72.7563C25.1394 72.7707 25.0902 72.7894 25.0407 72.8126C24.9916 72.8355 24.9453 72.8645 24.9018 72.8998C24.8582 72.9351 24.8266 72.9714 24.807 73.0088C24.7875 73.0453 24.7792 73.0815 24.7822 73.1175C24.7852 73.1534 24.7997 73.1874 24.8256 73.2193C24.8545 73.255 24.8859 73.2787 24.9199 73.2903C24.9543 73.3016 24.9955 73.3031 25.0434 73.295C25.0914 73.2861 25.1508 73.2694 25.2216 73.2451C25.2991 73.2184 25.3686 73.2005 25.4302 73.1913C25.4914 73.1816 25.5472 73.1856 25.5975 73.2032C25.6474 73.2203 25.6941 73.2557 25.7377 73.3095ZM25.8123 72.4123C25.8771 72.3597 25.9444 72.3291 26.014 72.3203C26.0836 72.3115 26.1517 72.3231 26.2183 72.3551C26.2845 72.3867 26.3456 72.437 26.4015 72.506L26.4595 72.5776L25.9333 73.0038C26.0071 73.0921 26.0845 73.1422 26.1655 73.1541C26.2465 73.166 26.3262 73.1403 26.4045 73.0768C26.4527 73.0378 26.4918 72.9989 26.5217 72.96C26.5517 72.9212 26.5796 72.8771 26.6056 72.8277L26.6878 72.9292C26.6632 72.9775 26.6351 73.0209 26.6035 73.0596C26.5723 73.0979 26.531 73.1378 26.4796 73.1795C26.4063 73.2388 26.3304 73.2757 26.2517 73.2904C26.173 73.3042 26.0952 73.2943 26.0182 73.2607C25.9412 73.2272 25.8687 73.1685 25.8007 73.0846C25.7343 73.0026 25.6906 72.9206 25.6695 72.8387C25.6485 72.7559 25.6499 72.678 25.6737 72.6051C25.6979 72.5317 25.7441 72.4675 25.8123 72.4123ZM25.8874 72.508C25.8258 72.5579 25.793 72.6178 25.789 72.6878C25.7851 72.7577 25.8089 72.8317 25.8605 72.9096L26.2637 72.5831C26.2264 72.5381 26.187 72.504 26.1453 72.481C26.1037 72.4571 26.0613 72.4469 26.0181 72.4505C25.9746 72.4535 25.931 72.4727 25.8874 72.508ZM26.6645 71.7221C26.6798 71.7097 26.6966 71.6977 26.7148 71.6861C26.7326 71.6739 26.7491 71.664 26.7643 71.6563L26.8364 71.7752C26.8213 71.7821 26.8053 71.7908 26.7885 71.8013C26.7717 71.8118 26.7566 71.8225 26.7432 71.8334C26.7126 71.8582 26.6887 71.8879 26.6715 71.9226C26.6543 71.9564 26.645 71.9931 26.6433 72.0328C26.6413 72.072 26.6477 72.1126 26.6624 72.1544C26.6767 72.1957 26.6998 72.2361 26.7317 72.2755L27.0627 72.6843L26.9466 72.7783L26.3296 72.0164L26.4255 71.9387L26.5518 72.069L26.5566 72.065C26.5495 72.024 26.5477 71.9829 26.5511 71.9417C26.5543 71.9001 26.5648 71.8605 26.5827 71.8229C26.6011 71.785 26.6284 71.7514 26.6645 71.7221ZM27.0276 71.4512L27.6445 72.2131L27.5291 72.3065L26.9122 71.5446L27.0276 71.4512ZM26.7404 71.2117C26.7594 71.1964 26.7807 71.1895 26.8043 71.1911C26.828 71.1919 26.8503 71.2053 26.8713 71.2312C26.892 71.2567 26.9004 71.2813 26.8966 71.3051C26.8933 71.3285 26.8822 71.3479 26.8632 71.3633C26.8432 71.3794 26.8215 71.3867 26.7979 71.3851C26.7748 71.3831 26.7529 71.3693 26.7323 71.3438C26.7113 71.3179 26.7024 71.2936 26.7056 71.271C26.7089 71.2477 26.7205 71.2279 26.7404 71.2117ZM27.5544 71.0016C27.6193 70.949 27.6865 70.9183 27.7561 70.9095C27.8257 70.9007 27.8938 70.9124 27.9604 70.9444C28.0266 70.9759 28.0877 71.0262 28.1436 71.0953L28.2016 71.1669L27.6754 71.593C27.7492 71.6814 27.8266 71.7315 27.9076 71.7434C27.9886 71.7553 28.0683 71.7295 28.1466 71.6661C28.1948 71.6271 28.2339 71.5881 28.2638 71.5493C28.2938 71.5105 28.3217 71.4664 28.3477 71.4169L28.4299 71.5184C28.4053 71.5667 28.3772 71.6102 28.3456 71.6489C28.3144 71.6871 28.2731 71.7271 28.2217 71.7688C28.1485 71.828 28.0725 71.865 27.9938 71.8796C27.9152 71.8934 27.8373 71.8835 27.7603 71.85C27.6833 71.8165 27.6108 71.7578 27.5429 71.6739C27.4764 71.5918 27.4327 71.5099 27.4116 71.4279C27.3906 71.3452 27.392 71.2673 27.4158 71.1943C27.4401 71.121 27.4862 71.0567 27.5544 71.0016ZM27.6295 71.0972C27.5679 71.1471 27.5351 71.2071 27.5311 71.277C27.5272 71.347 27.551 71.421 27.6026 71.4989L28.0058 71.1724C27.9685 71.1273 27.9291 71.0933 27.8874 71.0703C27.8458 71.0464 27.8034 71.0362 27.7602 71.0397C27.7167 71.0428 27.6731 71.0619 27.6295 71.0972ZM29.0127 70.7599C29.0521 70.8085 29.073 70.8595 29.0755 70.9127C29.078 70.9652 29.0634 71.0181 29.0315 71.0716C29 71.1247 28.953 71.1765 28.8904 71.2272C28.8371 71.2704 28.7876 71.3035 28.742 71.3267C28.6963 71.3499 28.6526 71.3657 28.6111 71.374L28.5249 71.2677C28.5684 71.2578 28.6167 71.2417 28.6699 71.2193C28.7232 71.1969 28.7723 71.1675 28.8172 71.1311C28.883 71.0778 28.9221 71.0285 28.9345 70.9832C28.9469 70.9378 28.9383 70.8968 28.9087 70.8602C28.8918 70.8394 28.8709 70.8259 28.8461 70.8199C28.8214 70.8131 28.7891 70.8135 28.7493 70.8212C28.7091 70.8284 28.6571 70.8429 28.5934 70.8646C28.5297 70.8855 28.4727 70.9013 28.4224 70.9122C28.3721 70.9221 28.3266 70.9218 28.2857 70.9112C28.2453 70.9001 28.2081 70.8735 28.1739 70.8313C28.1218 70.7669 28.1077 70.6966 28.1319 70.6202C28.1561 70.5431 28.2106 70.4701 28.2954 70.4015C28.3413 70.3643 28.3879 70.3342 28.4353 70.3112C28.4827 70.2874 28.53 70.269 28.5772 70.2562L28.6131 70.3801C28.5707 70.3922 28.5279 70.4081 28.4847 70.4277C28.4415 70.4473 28.4014 70.4722 28.3643 70.5022C28.311 70.5453 28.2772 70.5874 28.2627 70.6282C28.2487 70.6688 28.2541 70.7043 28.2788 70.7349C28.298 70.7585 28.3202 70.7727 28.3456 70.7775C28.3714 70.7819 28.4044 70.779 28.4444 70.7688C28.4845 70.7586 28.5357 70.7432 28.5981 70.7227C28.6601 70.7016 28.7162 70.6865 28.7663 70.6774C28.8161 70.6678 28.8611 70.6689 28.9014 70.6808C28.9418 70.6918 28.9789 70.7182 29.0127 70.7599Z" fill="#626262"/>
<path d="M33.5875 74.4609L33.4533 74.5696L32.8162 74.3442L32.8999 75.0177L32.7741 75.1196L32.6837 74.3157L31.9747 74.0841L32.1061 73.9777L32.688 74.1775L32.615 73.5656L32.7401 73.4643L32.8183 74.2033L33.5875 74.4609ZM34.4564 73.3095C34.5052 73.3697 34.5318 73.4334 34.5362 73.5004C34.5407 73.5666 34.5251 73.6326 34.4893 73.6984C34.4536 73.7641 34.3993 73.8265 34.3266 73.8854C34.2881 73.9166 34.2502 73.9442 34.2129 73.9682C34.1756 73.9923 34.1398 74.0125 34.1054 74.0288C34.0711 74.0451 34.0389 74.057 34.0088 74.0644L33.9171 73.9511C33.9635 73.9374 34.0167 73.9165 34.0769 73.8884C34.1367 73.86 34.194 73.8236 34.2487 73.7793C34.2997 73.738 34.3373 73.6964 34.3617 73.6544C34.3856 73.612 34.3963 73.5707 34.3937 73.5306C34.3913 73.4896 34.3754 73.4511 34.3461 73.4149C34.318 73.3802 34.2869 73.3574 34.2528 73.3466C34.2184 73.3353 34.1756 73.3347 34.1246 73.3446C34.0736 73.3536 34.0087 73.372 33.9299 73.3998C33.8744 73.4194 33.8229 73.4335 33.7753 73.4421C33.7274 73.4502 33.6829 73.4516 33.6419 73.4465C33.6009 73.4413 33.5622 73.4281 33.5259 73.4069C33.49 73.3854 33.4561 73.3549 33.4242 73.3155C33.3803 73.2613 33.3564 73.2038 33.3526 73.1432C33.3489 73.0818 33.3631 73.0212 33.3953 72.9614C33.4275 72.9007 33.4754 72.8447 33.5389 72.7933C33.5931 72.7494 33.6473 72.7139 33.7014 72.687C33.756 72.6596 33.8095 72.639 33.8618 72.625L33.9072 72.7563C33.8582 72.7707 33.8089 72.7894 33.7594 72.8126C33.7104 72.8355 33.6641 72.8645 33.6205 72.8998C33.577 72.9351 33.5454 72.9714 33.5257 73.0088C33.5062 73.0453 33.498 73.0815 33.501 73.1175C33.504 73.1534 33.5184 73.1874 33.5443 73.2193C33.5732 73.255 33.6047 73.2787 33.6386 73.2903C33.6731 73.3016 33.7142 73.3031 33.7621 73.295C33.8102 73.2861 33.8696 73.2694 33.9404 73.2451C34.0178 73.2184 34.0873 73.2005 34.1489 73.1913C34.2102 73.1816 34.2659 73.1856 34.3162 73.2032C34.3662 73.2203 34.4129 73.2557 34.4564 73.3095ZM34.531 72.4123C34.5959 72.3597 34.6631 72.3291 34.7327 72.3203C34.8024 72.3115 34.8705 72.3231 34.9371 72.3551C35.0033 72.3867 35.0644 72.437 35.1203 72.506L35.1783 72.5776L34.652 73.0038C34.7258 73.0921 34.8032 73.1422 34.8842 73.1541C34.9653 73.166 35.0449 73.1403 35.1232 73.0768C35.1714 73.0378 35.2105 72.9989 35.2405 72.96C35.2704 72.9212 35.2984 72.8771 35.3243 72.8277L35.4065 72.9292C35.3819 72.9775 35.3538 73.0209 35.3222 73.0596C35.2911 73.0979 35.2498 73.1378 35.1983 73.1795C35.1251 73.2388 35.0491 73.2757 34.9704 73.2904C34.8918 73.3042 34.814 73.2943 34.7369 73.2607C34.6599 73.2272 34.5874 73.1685 34.5195 73.0846C34.4531 73.0026 34.4093 72.9206 34.3882 72.8387C34.3673 72.7559 34.3687 72.678 34.3924 72.6051C34.4167 72.5317 34.4629 72.4675 34.531 72.4123ZM34.6062 72.508C34.5445 72.5579 34.5117 72.6178 34.5078 72.6878C34.5038 72.7577 34.5276 72.8317 34.5792 72.9096L34.9824 72.5831C34.9452 72.5381 34.9057 72.504 34.864 72.481C34.8225 72.4571 34.7801 72.4469 34.7369 72.4505C34.6933 72.4535 34.6497 72.4727 34.6062 72.508ZM35.3833 71.7221C35.3986 71.7097 35.4153 71.6977 35.4335 71.6861C35.4513 71.6739 35.4678 71.664 35.4831 71.6563L35.5552 71.7752C35.54 71.7821 35.5241 71.7908 35.5073 71.8013C35.4905 71.8118 35.4753 71.8225 35.4619 71.8334C35.4313 71.8582 35.4074 71.8879 35.3902 71.9226C35.3731 71.9564 35.3637 71.9931 35.3621 72.0328C35.3601 72.072 35.3664 72.1125 35.3811 72.1544C35.3954 72.1957 35.4185 72.2361 35.4504 72.2755L35.7814 72.6843L35.6653 72.7783L35.0484 72.0164L35.1443 71.9387L35.2705 72.069L35.2754 72.065C35.2682 72.024 35.2664 71.9829 35.2699 71.9417C35.273 71.9001 35.2835 71.8605 35.3015 71.8229C35.3199 71.785 35.3471 71.7514 35.3833 71.7221ZM35.7463 71.4512L36.3633 72.2131L36.2479 72.3065L35.6309 71.5446L35.7463 71.4512ZM35.4592 71.2117C35.4782 71.1964 35.4995 71.1895 35.5231 71.1911C35.5467 71.1919 35.5691 71.2053 35.5901 71.2312C35.6107 71.2567 35.6191 71.2813 35.6154 71.3051C35.6121 71.3285 35.6009 71.3479 35.5819 71.3633C35.562 71.3794 35.5402 71.3867 35.5167 71.3851C35.4936 71.3831 35.4717 71.3693 35.451 71.3438C35.43 71.3179 35.4211 71.2936 35.4243 71.271C35.4276 71.2477 35.4393 71.2279 35.4592 71.2117ZM36.2731 71.0016C36.338 70.949 36.4052 70.9183 36.4749 70.9095C36.5445 70.9007 36.6126 70.9124 36.6792 70.9444C36.7454 70.9759 36.8065 71.0262 36.8624 71.0953L36.9204 71.1669L36.3941 71.593C36.4679 71.6814 36.5454 71.7315 36.6264 71.7434C36.7074 71.7553 36.787 71.7295 36.8654 71.6661C36.9136 71.6271 36.9526 71.5881 36.9826 71.5493C37.0125 71.5105 37.0405 71.4664 37.0664 71.4169L37.1486 71.5184C37.1241 71.5667 37.096 71.6102 37.0643 71.6489C37.0332 71.6871 36.9919 71.7271 36.9404 71.7688C36.8672 71.828 36.7912 71.865 36.7125 71.8796C36.6339 71.8934 36.5561 71.8835 36.479 71.85C36.402 71.8165 36.3295 71.7578 36.2616 71.6739C36.1952 71.5918 36.1514 71.5099 36.1304 71.4279C36.1094 71.3452 36.1108 71.2673 36.1346 71.1943C36.1588 71.121 36.205 71.0567 36.2731 71.0016ZM36.3483 71.0972C36.2866 71.1471 36.2538 71.2071 36.2499 71.277C36.2459 71.347 36.2697 71.421 36.3213 71.4989L36.7245 71.1724C36.6873 71.1273 36.6478 71.0933 36.6062 71.0703C36.5646 71.0464 36.5222 71.0362 36.479 71.0397C36.4354 71.0428 36.3919 71.0619 36.3483 71.0972ZM37.7314 70.7599C37.7709 70.8085 37.7918 70.8595 37.7942 70.9127C37.7968 70.9652 37.7821 71.0181 37.7502 71.0716C37.7188 71.1247 37.6718 71.1765 37.6092 71.2272C37.5559 71.2704 37.5064 71.3035 37.4607 71.3267C37.415 71.3499 37.3714 71.3657 37.3298 71.374L37.2437 71.2677C37.2871 71.2578 37.3355 71.2417 37.3887 71.2193C37.4419 71.1969 37.491 71.1675 37.536 71.1311C37.6018 71.0778 37.6409 71.0285 37.6533 70.9832C37.6657 70.9378 37.6571 70.8968 37.6274 70.8602C37.6105 70.8394 37.5897 70.8259 37.5649 70.8199C37.5401 70.8131 37.5079 70.8135 37.4681 70.8212C37.4279 70.8284 37.3759 70.8429 37.3121 70.8646C37.2484 70.8855 37.1914 70.9013 37.1411 70.9122C37.0909 70.9221 37.0453 70.9218 37.0045 70.9112C36.9641 70.9001 36.9268 70.8735 36.8927 70.8313C36.8405 70.7669 36.8265 70.6966 36.8506 70.6202C36.8748 70.5431 36.9294 70.4701 37.0142 70.4015C37.0601 70.3643 37.1067 70.3342 37.154 70.3112C37.2015 70.2874 37.2488 70.269 37.2959 70.2562L37.3319 70.3801C37.2895 70.3922 37.2467 70.4081 37.2035 70.4277C37.1603 70.4473 37.1202 70.4722 37.0831 70.5022C37.0298 70.5453 36.9959 70.5874 36.9814 70.6282C36.9674 70.6688 36.9728 70.7043 36.9976 70.7349C37.0167 70.7585 37.039 70.7727 37.0643 70.7775C37.0902 70.7819 37.1231 70.779 37.1632 70.7688C37.2033 70.7586 37.2545 70.7432 37.3169 70.7227C37.3789 70.7016 37.4349 70.6865 37.4851 70.6774C37.5348 70.6678 37.5799 70.6689 37.6202 70.6808C37.6606 70.6918 37.6977 70.7182 37.7314 70.7599Z" fill="#626262"/>
<path d="M43.5106 73.6072C43.5781 73.6906 43.6279 73.7754 43.66 73.8614C43.6921 73.9475 43.7046 74.0321 43.6976 74.1153C43.691 74.1982 43.6629 74.2773 43.6135 74.3526L44.0558 74.4099L43.8869 74.5467L43.5044 74.4766C43.4984 74.4815 43.4923 74.4868 43.4862 74.4925C43.4805 74.4979 43.4747 74.503 43.4687 74.5078C43.3899 74.5716 43.3109 74.6149 43.2318 74.6375C43.1532 74.6598 43.0756 74.6635 42.9991 74.6487C42.9231 74.6335 42.8493 74.6015 42.7777 74.5529C42.7065 74.5039 42.6392 74.4402 42.5758 74.3619C42.4917 74.258 42.4351 74.1531 42.406 74.047C42.3769 73.9409 42.3794 73.8379 42.4137 73.7381C42.4484 73.6378 42.5183 73.5451 42.6235 73.4599C42.7241 73.3785 42.8261 73.3315 42.9296 73.3191C43.0336 73.3063 43.1349 73.3248 43.2335 73.3746C43.3323 73.4235 43.4246 73.5011 43.5106 73.6072ZM42.7014 74.2625C42.7712 74.3487 42.8439 74.4133 42.9195 74.4565C42.9951 74.4996 43.072 74.5179 43.1503 74.5113C43.2291 74.5043 43.3076 74.4691 43.3859 74.4057C43.4647 74.3419 43.5153 74.2725 43.5375 74.1977C43.5603 74.1225 43.5582 74.0436 43.5312 73.9611C43.5043 73.8786 43.4559 73.7942 43.3861 73.708C43.2799 73.5768 43.1694 73.4967 43.0546 73.4677C42.9398 73.4378 42.8243 73.47 42.708 73.5642C42.6292 73.628 42.578 73.6975 42.5544 73.7726C42.5308 73.8477 42.5319 73.9267 42.5575 74.0095C42.5832 74.0915 42.6312 74.1758 42.7014 74.2625ZM44.8742 72.8989C44.923 72.9592 44.9496 73.0228 44.954 73.0898C44.9585 73.156 44.9428 73.222 44.9071 73.2878C44.8714 73.3536 44.8171 73.4159 44.7443 73.4748C44.7059 73.506 44.668 73.5336 44.6307 73.5577C44.5934 73.5817 44.5576 73.6019 44.5232 73.6182C44.4888 73.6346 44.4566 73.6464 44.4266 73.6539L44.3348 73.5406C44.3812 73.5268 44.4345 73.5059 44.4947 73.4779C44.5545 73.4494 44.6118 73.413 44.6664 73.3687C44.7174 73.3274 44.7551 73.2858 44.7794 73.2438C44.8034 73.2014 44.8141 73.1601 44.8115 73.12C44.809 73.0791 44.7932 73.0405 44.7639 73.0043C44.7357 72.9696 44.7046 72.9468 44.6706 72.936C44.6362 72.9248 44.5934 72.9241 44.5423 72.934C44.4913 72.9431 44.4264 72.9615 44.3476 72.9892C44.2921 73.0088 44.2406 73.0229 44.1931 73.0315C44.1452 73.0396 44.1007 73.0411 44.0597 73.0359C44.0187 73.0308 43.98 73.0176 43.9436 72.9964C43.9078 72.9748 43.8739 72.9443 43.842 72.9049C43.798 72.8507 43.7742 72.7933 43.7704 72.7327C43.7667 72.6712 43.7809 72.6106 43.813 72.5508C43.8453 72.4902 43.8931 72.4341 43.9566 72.3827C44.0108 72.3388 44.065 72.3034 44.1192 72.2764C44.1738 72.2491 44.2272 72.2284 44.2796 72.2144L44.3249 72.3457C44.2759 72.3601 44.2267 72.3789 44.1772 72.4021C44.1282 72.4249 44.0819 72.454 44.0383 72.4892C43.9947 72.5245 43.9631 72.5608 43.9435 72.5982C43.924 72.6347 43.9157 72.671 43.9187 72.7069C43.9217 72.7428 43.9362 72.7768 43.9621 72.8088C43.991 72.8445 44.0224 72.8681 44.0564 72.8797C44.0908 72.891 44.132 72.8926 44.1799 72.8845C44.2279 72.8755 44.2873 72.8589 44.3582 72.8345C44.4356 72.8079 44.5051 72.79 44.5667 72.7807C44.6279 72.7711 44.6837 72.775 44.734 72.7926C44.7839 72.8097 44.8307 72.8452 44.8742 72.8989ZM44.9488 72.0017C45.0137 71.9492 45.0809 71.9185 45.1505 71.9097C45.2201 71.9009 45.2882 71.9125 45.3548 71.9445C45.4211 71.9761 45.4821 72.0264 45.538 72.0954L45.596 72.1671L45.0698 72.5932C45.1436 72.6815 45.221 72.7316 45.302 72.7435C45.383 72.7554 45.4627 72.7297 45.541 72.6663C45.5892 72.6272 45.6283 72.5883 45.6582 72.5495C45.6882 72.5106 45.7161 72.4665 45.7421 72.4171L45.8243 72.5186C45.7997 72.5669 45.7716 72.6104 45.74 72.649C45.7088 72.6873 45.6675 72.7273 45.6161 72.7689C45.5429 72.8282 45.4669 72.8652 45.3882 72.8798C45.3096 72.8936 45.2317 72.8837 45.1547 72.8502C45.0777 72.8166 45.0052 72.7579 44.9373 72.674C44.8708 72.592 44.8271 72.51 44.806 72.4281C44.785 72.3453 44.7864 72.2675 44.8102 72.1945C44.8345 72.1211 44.8806 72.0569 44.9488 72.0017ZM45.0239 72.0974C44.9623 72.1473 44.9295 72.2072 44.9255 72.2772C44.9216 72.3472 44.9454 72.4211 44.997 72.4991L45.4002 72.1725C45.363 72.1275 45.3235 72.0935 45.2818 72.0704C45.2402 72.0466 45.1978 72.0364 45.1546 72.0399C45.1111 72.0429 45.0675 72.0621 45.0239 72.0974ZM45.8011 71.3115C45.8164 71.2992 45.8331 71.2871 45.8513 71.2755C45.8691 71.2634 45.8856 71.2534 45.9008 71.2457L45.9729 71.3646C45.9578 71.3715 45.9418 71.3802 45.925 71.3907C45.9082 71.4013 45.8931 71.412 45.8797 71.4228C45.8491 71.4476 45.8252 71.4773 45.808 71.512C45.7909 71.5458 45.7815 71.5825 45.7799 71.6222C45.7779 71.6615 45.7842 71.702 45.7989 71.7438C45.8132 71.7852 45.8363 71.8255 45.8682 71.8649L46.1992 72.2737L46.0831 72.3677L45.4661 71.6058L45.5621 71.5281L45.6883 71.6584L45.6932 71.6545C45.686 71.6134 45.6842 71.5723 45.6877 71.5311C45.6908 71.4895 45.7013 71.4499 45.7192 71.4123C45.7376 71.3744 45.7649 71.3408 45.8011 71.3115ZM46.1641 71.0406L46.7811 71.8025L46.6657 71.896L46.0487 71.134L46.1641 71.0406ZM45.877 70.8012C45.896 70.7858 45.9173 70.7789 45.9408 70.7805C45.9645 70.7813 45.9868 70.7947 46.0078 70.8207C46.0285 70.8461 46.0369 70.8708 46.0331 70.8945C46.0298 70.9179 46.0187 70.9373 45.9997 70.9527C45.9798 70.9689 45.958 70.9761 45.9344 70.9745C45.9113 70.9725 45.8894 70.9587 45.8688 70.9332C45.8478 70.9073 45.8389 70.883 45.8421 70.8605C45.8454 70.8371 45.857 70.8173 45.877 70.8012ZM46.6909 70.591C46.7558 70.5384 46.823 70.5078 46.8926 70.499C46.9622 70.4902 47.0304 70.5018 47.0969 70.5338C47.1632 70.5654 47.2242 70.6157 47.2802 70.6847L47.3381 70.7563L46.8119 71.1825C46.8857 71.2708 46.9631 71.3209 47.0441 71.3328C47.1251 71.3447 47.2048 71.319 47.2831 71.2555C47.3313 71.2165 47.3704 71.1776 47.4003 71.1387C47.4303 71.0999 47.4582 71.0558 47.4842 71.0064L47.5664 71.1079C47.5418 71.1562 47.5137 71.1996 47.4821 71.2383C47.4509 71.2766 47.4096 71.3165 47.3582 71.3582C47.285 71.4175 47.209 71.4544 47.1303 71.4691C47.0517 71.4828 46.9739 71.473 46.8968 71.4394C46.8198 71.4059 46.7473 71.3472 46.6794 71.2633C46.6129 71.1813 46.5692 71.0993 46.5481 71.0174C46.5271 70.9346 46.5285 70.8567 46.5523 70.7838C46.5766 70.7104 46.6228 70.6461 46.6909 70.591ZM46.7661 70.6866C46.7044 70.7366 46.6716 70.7965 46.6677 70.8665C46.6637 70.9364 46.6875 71.0104 46.7391 71.0883L47.1423 70.7618C47.1051 70.7168 47.0656 70.6827 47.0239 70.6597C46.9823 70.6358 46.94 70.6256 46.8968 70.6292C46.8532 70.6322 46.8096 70.6514 46.7661 70.6866ZM48.1492 70.3493C48.1886 70.398 48.2096 70.4489 48.212 70.5022C48.2146 70.5546 48.1999 70.6075 48.168 70.661C48.1365 70.7141 48.0895 70.766 48.027 70.8166C47.9737 70.8598 47.9242 70.893 47.8785 70.9161C47.8328 70.9393 47.7892 70.9551 47.7476 70.9634L47.6615 70.8571C47.7049 70.8472 47.7532 70.8311 47.8065 70.8087C47.8597 70.7863 47.9088 70.7569 47.9537 70.7205C48.0196 70.6672 48.0587 70.6179 48.0711 70.5726C48.0835 70.5272 48.0748 70.4863 48.0452 70.4497C48.0283 70.4288 48.0074 70.4154 47.9826 70.4094C47.9579 70.4025 47.9256 70.403 47.8858 70.4107C47.8456 70.4179 47.7937 70.4323 47.7299 70.454C47.6662 70.4749 47.6092 70.4908 47.5589 70.5016C47.5087 70.5116 47.4631 70.5112 47.4223 70.5006C47.3819 70.4895 47.3446 70.4629 47.3104 70.4208C47.2583 70.3564 47.2443 70.286 47.2684 70.2097C47.2926 70.1325 47.3471 70.0596 47.4319 69.9909C47.4778 69.9537 47.5245 69.9236 47.5718 69.9006C47.6193 69.8768 47.6666 69.8584 47.7137 69.8456L47.7496 69.9696C47.7072 69.9817 47.6645 69.9975 47.6213 70.0171C47.5781 70.0368 47.5379 70.0616 47.5009 70.0916C47.4476 70.1348 47.4137 70.1768 47.3992 70.2177C47.3852 70.2582 47.3906 70.2937 47.4153 70.3243C47.4345 70.348 47.4567 70.3622 47.4821 70.3669C47.5079 70.3714 47.5409 70.3685 47.581 70.3583C47.621 70.3481 47.6723 70.3327 47.7346 70.3121C47.7966 70.291 47.8527 70.2759 47.9029 70.2668C47.9526 70.2572 47.9977 70.2583 48.038 70.2702C48.0784 70.2812 48.1154 70.3076 48.1492 70.3493Z" fill="#626262"/>
<path d="M52.8792 74.7261L52.7603 74.8223L52.0217 73.9103L51.7019 74.1692L51.6175 74.0649L52.3745 73.4519L52.459 73.5562L52.1406 73.814L52.8792 74.7261ZM54.0756 73.3095C54.1243 73.3697 54.1509 73.4334 54.1553 73.5004C54.1598 73.5666 54.1442 73.6326 54.1085 73.6984C54.0727 73.7641 54.0185 73.8265 53.9457 73.8854C53.9072 73.9166 53.8694 73.9442 53.8321 73.9682C53.7948 73.9923 53.7589 74.0125 53.7246 74.0288C53.6902 74.0451 53.658 74.057 53.628 74.0644L53.5362 73.9511C53.5826 73.9374 53.6359 73.9165 53.6961 73.8884C53.7559 73.86 53.8131 73.8236 53.8678 73.7793C53.9188 73.738 53.9565 73.6964 53.9808 73.6544C54.0048 73.612 54.0155 73.5707 54.0129 73.5306C54.0104 73.4896 53.9945 73.4511 53.9653 73.4149C53.9371 73.3802 53.906 73.3574 53.872 73.3466C53.8375 73.3353 53.7948 73.3347 53.7437 73.3446C53.6927 73.3536 53.6278 73.372 53.549 73.3998C53.4935 73.4194 53.442 73.4335 53.3945 73.4421C53.3465 73.4502 53.3021 73.4516 53.2611 73.4465C53.2201 73.4413 53.1814 73.4281 53.145 73.4069C53.1091 73.3854 53.0752 73.3549 53.0433 73.3155C52.9994 73.2613 52.9756 73.2038 52.9718 73.1432C52.968 73.0818 52.9823 73.0212 53.0144 72.9614C53.0466 72.9007 53.0945 72.8447 53.158 72.7933C53.2122 72.7494 53.2664 72.7139 53.3205 72.687C53.3751 72.6596 53.4286 72.639 53.481 72.625L53.5263 72.7563C53.4773 72.7707 53.4281 72.7894 53.3786 72.8126C53.3295 72.8355 53.2832 72.8645 53.2397 72.8998C53.1961 72.9351 53.1645 72.9714 53.1449 73.0088C53.1254 73.0453 53.1171 73.0815 53.1201 73.1175C53.1231 73.1534 53.1376 73.1874 53.1635 73.2193C53.1924 73.255 53.2238 73.2787 53.2578 73.2903C53.2922 73.3016 53.3334 73.3031 53.3813 73.295C53.4293 73.2861 53.4887 73.2694 53.5595 73.2451C53.637 73.2184 53.7065 73.2005 53.7681 73.1913C53.8293 73.1816 53.8851 73.1856 53.9354 73.2032C53.9853 73.2203 54.032 73.2557 54.0756 73.3095ZM54.1501 72.4123C54.215 72.3597 54.2823 72.3291 54.3519 72.3203C54.4215 72.3115 54.4896 72.3231 54.5562 72.3551C54.6224 72.3867 54.6835 72.437 54.7394 72.506L54.7974 72.5776L54.2711 73.0038C54.345 73.0921 54.4224 73.1422 54.5034 73.1541C54.5844 73.166 54.6641 73.1403 54.7424 73.0768C54.7906 73.0378 54.8297 72.9989 54.8596 72.96C54.8895 72.9212 54.9175 72.8771 54.9435 72.8277L55.0257 72.9292C55.0011 72.9775 54.973 73.0209 54.9414 73.0596C54.9102 73.0979 54.8689 73.1378 54.8175 73.1795C54.7442 73.2388 54.6683 73.2757 54.5896 73.2904C54.5109 73.3042 54.4331 73.2943 54.3561 73.2607C54.279 73.2272 54.2066 73.1685 54.1386 73.0846C54.0722 73.0026 54.0285 72.9206 54.0074 72.8387C53.9864 72.7559 53.9878 72.678 54.0116 72.6051C54.0358 72.5317 54.082 72.4675 54.1501 72.4123ZM54.2253 72.508C54.1637 72.5579 54.1309 72.6178 54.1269 72.6878C54.123 72.7577 54.1468 72.8317 54.1984 72.9096L54.6016 72.5831C54.5643 72.5381 54.5249 72.504 54.4832 72.481C54.4416 72.4571 54.3992 72.4469 54.356 72.4505C54.3124 72.4535 54.2689 72.4727 54.2253 72.508ZM55.0024 71.7221C55.0177 71.7097 55.0345 71.6977 55.0527 71.6861C55.0705 71.6739 55.087 71.664 55.1022 71.6563L55.1743 71.7752C55.1592 71.7821 55.1432 71.7908 55.1264 71.8013C55.1096 71.8118 55.0945 71.8225 55.081 71.8334C55.0505 71.8582 55.0266 71.8879 55.0093 71.9226C54.9922 71.9564 54.9829 71.9931 54.9812 72.0328C54.9792 72.072 54.9856 72.1126 55.0002 72.1544C55.0146 72.1957 55.0377 72.2361 55.0696 72.2755L55.4006 72.6843L55.2845 72.7783L54.6675 72.0164L54.7634 71.9387L54.8897 72.069L54.8945 72.065C54.8874 72.024 54.8856 71.9829 54.889 71.9417C54.8921 71.9001 54.9027 71.8605 54.9206 71.8229C54.939 71.785 54.9663 71.7514 55.0024 71.7221ZM55.3654 71.4512L55.9824 72.2131L55.867 72.3065L55.2501 71.5446L55.3654 71.4512ZM55.0783 71.2117C55.0973 71.1964 55.1186 71.1895 55.1422 71.1911C55.1659 71.1919 55.1882 71.2053 55.2092 71.2312C55.2299 71.2567 55.2383 71.2813 55.2345 71.3051C55.2312 71.3285 55.2201 71.3479 55.2011 71.3633C55.1811 71.3794 55.1594 71.3867 55.1358 71.3851C55.1127 71.3831 55.0908 71.3693 55.0702 71.3438C55.0492 71.3179 55.0403 71.2936 55.0435 71.271C55.0468 71.2477 55.0584 71.2279 55.0783 71.2117ZM55.8923 71.0016C55.9571 70.949 56.0244 70.9183 56.094 70.9095C56.1636 70.9007 56.2317 70.9124 56.2983 70.9444C56.3645 70.9759 56.4256 71.0262 56.4815 71.0953L56.5395 71.1669L56.0133 71.593C56.0871 71.6814 56.1645 71.7315 56.2455 71.7434C56.3265 71.7553 56.4062 71.7295 56.4845 71.6661C56.5327 71.6271 56.5718 71.5881 56.6017 71.5493C56.6317 71.5105 56.6596 71.4664 56.6856 71.4169L56.7678 71.5184C56.7432 71.5667 56.7151 71.6102 56.6835 71.6489C56.6523 71.6871 56.611 71.7271 56.5596 71.7688C56.4863 71.8281 56.4104 71.865 56.3317 71.8796C56.2531 71.8934 56.1752 71.8835 56.0982 71.85C56.0212 71.8165 55.9487 71.7578 55.8807 71.6739C55.8143 71.5918 55.7706 71.5099 55.7495 71.4279C55.7285 71.3452 55.7299 71.2673 55.7537 71.1943C55.7779 71.121 55.8241 71.0567 55.8923 71.0016ZM55.9674 71.0972C55.9058 71.1471 55.873 71.2071 55.869 71.277C55.8651 71.347 55.8889 71.421 55.9405 71.4989L56.3437 71.1724C56.3064 71.1273 56.267 71.0933 56.2253 71.0703C56.1837 71.0464 56.1413 71.0362 56.0981 71.0397C56.0546 71.0428 56.011 71.0619 55.9674 71.0972ZM57.3506 70.7599C57.39 70.8085 57.4109 70.8595 57.4134 70.9127C57.4159 70.9652 57.4012 71.0181 57.3693 71.0716C57.3379 71.1247 57.2909 71.1765 57.2283 71.2272C57.175 71.2704 57.1255 71.3035 57.0799 71.3267C57.0342 71.3499 56.9905 71.3657 56.949 71.374L56.8628 71.2677C56.9063 71.2578 56.9546 71.2417 57.0078 71.2193C57.0611 71.1969 57.1102 71.1675 57.1551 71.1311C57.2209 71.0778 57.26 71.0285 57.2724 70.9832C57.2848 70.9378 57.2762 70.8968 57.2465 70.8602C57.2297 70.8394 57.2088 70.8259 57.184 70.8199C57.1593 70.8131 57.127 70.8135 57.0872 70.8212C57.047 70.8284 56.995 70.8429 56.9313 70.8646C56.8676 70.8855 56.8106 70.9013 56.7603 70.9122C56.71 70.9221 56.6645 70.9218 56.6236 70.9112C56.5832 70.9001 56.546 70.8735 56.5118 70.8313C56.4596 70.7669 56.4456 70.6966 56.4698 70.6202C56.494 70.5431 56.5485 70.4701 56.6333 70.4015C56.6792 70.3643 56.7258 70.3342 56.7732 70.3112C56.8206 70.2874 56.8679 70.269 56.9151 70.2562L56.951 70.3801C56.9086 70.3922 56.8658 70.4081 56.8226 70.4277C56.7794 70.4473 56.7393 70.4722 56.7022 70.5022C56.6489 70.5453 56.615 70.5874 56.6006 70.6282C56.5866 70.6688 56.5919 70.7043 56.6167 70.7349C56.6359 70.7585 56.6581 70.7727 56.6835 70.7775C56.7093 70.7819 56.7422 70.779 56.7823 70.7688C56.8224 70.7586 56.8736 70.7432 56.936 70.7227C56.998 70.7016 57.0541 70.6865 57.1042 70.6774C57.154 70.6678 57.199 70.6689 57.2393 70.6808C57.2797 70.6918 57.3168 70.7182 57.3506 70.7599Z" fill="#626262"/>
<path d="M63.2751 73.4395L62.8887 73.2182L62.4814 73.5481L62.6181 73.9714L62.4986 74.0683L62.0698 72.7258L62.1762 72.6396L63.3974 73.3404L63.2751 73.4395ZM62.7683 73.142L62.3899 72.9178C62.3804 72.9117 62.3647 72.9018 62.3428 72.888C62.3214 72.8739 62.2992 72.8593 62.2762 72.8441C62.2532 72.829 62.2345 72.8168 62.2202 72.8077C62.231 72.8305 62.2412 72.8536 62.2511 72.8771C62.261 72.8998 62.27 72.9213 62.278 72.9416C62.2857 72.9615 62.2921 72.9785 62.2974 72.9926L62.436 73.4111L62.7683 73.142ZM63.5386 73.2261L62.7155 72.2098L62.8337 72.1141L63.6567 73.1304L63.5386 73.2261ZM63.483 71.5883L63.7708 71.3552C63.8978 71.2524 64.0087 71.1941 64.1034 71.1803C64.1981 71.1665 64.2824 71.2053 64.3564 71.2966C64.3883 71.3359 64.4093 71.3776 64.4196 71.4215C64.4299 71.4646 64.4289 71.5079 64.4167 71.5516C64.4045 71.5952 64.3805 71.6381 64.3447 71.6801L64.3503 71.6871C64.4004 71.658 64.4502 71.6388 64.4995 71.6296C64.5488 71.6204 64.5967 71.6246 64.6431 71.6422C64.6896 71.6598 64.7337 71.6943 64.7754 71.7457C64.826 71.8083 64.8542 71.873 64.8599 71.9397C64.8661 72.0061 64.8518 72.0718 64.8169 72.1368C64.7817 72.2014 64.728 72.2629 64.6557 72.3215L64.306 72.6046L63.483 71.5883ZM63.9542 71.9284L64.1488 71.7708C64.2373 71.6991 64.2867 71.635 64.2969 71.5784C64.3075 71.5214 64.2901 71.4649 64.2447 71.4088C64.1978 71.3509 64.1436 71.3257 64.0822 71.3332C64.0213 71.3404 63.9465 71.3798 63.858 71.4515L63.6828 71.5934L63.9542 71.9284ZM64.0347 72.0279L64.3426 72.4081L64.5539 72.237C64.6443 72.1638 64.694 72.0944 64.703 72.0288C64.7116 71.9627 64.6916 71.8995 64.6428 71.8393C64.6116 71.8008 64.5764 71.7749 64.5371 71.7614C64.4983 71.7476 64.4541 71.7488 64.4044 71.7653C64.3549 71.7808 64.2986 71.8141 64.2356 71.8652L64.0347 72.0279ZM65.5564 70.959C65.6071 71.0216 65.6442 71.084 65.6677 71.1463C65.6913 71.2085 65.7015 71.269 65.6983 71.3276C65.6951 71.3862 65.679 71.4421 65.6501 71.4955C65.6213 71.548 65.5795 71.5964 65.5248 71.6407C65.4738 71.682 65.4199 71.7111 65.363 71.728C65.3062 71.7441 65.2486 71.7478 65.1901 71.7391C65.1321 71.73 65.0747 71.7079 65.0177 71.6726C64.9613 71.637 64.9077 71.5879 64.857 71.5254C64.7895 71.4419 64.7462 71.3596 64.7272 71.2783C64.7078 71.1965 64.7119 71.1192 64.7395 71.0462C64.7672 70.9723 64.8174 70.906 64.8902 70.847C64.9597 70.7907 65.033 70.7571 65.11 70.7461C65.1875 70.7348 65.2645 70.7469 65.3409 70.7825C65.4174 70.8172 65.4892 70.8761 65.5564 70.959ZM64.9766 71.4285C65.0261 71.4897 65.0772 71.5362 65.1299 71.568C65.1825 71.5998 65.2357 71.6143 65.2894 71.6115C65.3431 71.6087 65.3966 71.5857 65.4499 71.5425C65.5027 71.4997 65.5361 71.4524 65.5501 71.4004C65.5645 71.3481 65.5616 71.2928 65.5414 71.2348C65.5212 71.1767 65.4864 71.117 65.4368 71.0559C65.3877 70.9951 65.3371 70.9493 65.2853 70.9185C65.233 70.8871 65.1802 70.8731 65.1269 70.8764C65.0735 70.8797 65.02 70.9031 64.9662 70.9466C64.887 71.0108 64.85 71.0841 64.8553 71.1665C64.8611 71.2485 64.9016 71.3358 64.9766 71.4285ZM65.9312 70.6429L65.3665 70.4843L65.4986 70.3774L65.9371 70.508L65.8997 70.0526L66.0304 69.9467L66.0681 70.532L66.662 70.6968L66.5299 70.8038L66.0648 70.6658L66.1017 71.1505L65.971 71.2564L65.9312 70.6429Z" fill="#626262"/>
<path d="M71.9509 73.2396C72.0143 73.3179 72.0621 73.3973 72.0944 73.4779C72.1262 73.558 72.1412 73.6372 72.1394 73.7154C72.1376 73.7928 72.1179 73.8675 72.0802 73.9394C72.0425 74.0114 71.9855 74.0783 71.909 74.1402C71.8302 74.204 71.7513 74.2472 71.6721 74.2699C71.5935 74.2921 71.5159 74.2959 71.4394 74.281C71.3635 74.2658 71.2896 74.2339 71.218 74.1853C71.1468 74.1362 71.0795 74.0726 71.0161 73.9942C70.9321 73.8904 70.8755 73.7855 70.8463 73.6794C70.8172 73.5733 70.8197 73.4703 70.854 73.3704C70.8887 73.2702 70.9586 73.1775 71.0638 73.0923C71.1644 73.0109 71.2664 72.9639 71.3699 72.9515C71.4739 72.9387 71.5752 72.9571 71.6738 73.0069C71.7726 73.0559 71.8649 73.1335 71.9509 73.2396ZM71.1417 73.8949C71.2115 73.9811 71.2842 74.0457 71.3598 74.0889C71.4354 74.132 71.5123 74.1503 71.5906 74.1437C71.6694 74.1367 71.7479 74.1015 71.8262 74.038C71.905 73.9742 71.9556 73.9049 71.9778 73.8301C72.0006 73.7549 71.9985 73.676 71.9715 73.5935C71.9446 73.5109 71.8962 73.4266 71.8264 73.3404C71.7202 73.2092 71.6097 73.1291 71.4949 73.1001C71.3801 73.0702 71.2646 73.1024 71.1483 73.1966C71.0695 73.2604 71.0183 73.3298 70.9947 73.4049C70.9712 73.4801 70.9722 73.559 70.9978 73.6419C71.0235 73.7239 71.0715 73.8082 71.1417 73.8949ZM72.7535 73.2998C72.7725 73.2844 72.7907 73.267 72.808 73.2476C72.8253 73.2282 72.8383 73.2112 72.8471 73.1964L72.9197 73.2861C72.9111 73.303 72.8965 73.3233 72.8758 73.347C72.8555 73.3703 72.834 73.3911 72.8113 73.4095C72.771 73.4422 72.7288 73.4649 72.6846 73.4776C72.6401 73.4899 72.5941 73.4872 72.5468 73.4695C72.4999 73.4514 72.4523 73.4125 72.4039 73.3527L72.038 72.9008L71.9295 72.9887L71.8839 72.9324L71.9565 72.7988L71.8684 72.5962L71.9379 72.5399L72.0809 72.7165L72.304 72.5358L72.3772 72.6261L72.1541 72.8068L72.5172 73.2552C72.5558 73.303 72.5956 73.3298 72.6365 73.3358C72.6779 73.3414 72.7169 73.3294 72.7535 73.2998ZM72.3197 71.9936L72.5815 72.3169C72.5965 72.3354 72.6112 72.3546 72.6257 72.3743C72.6398 72.3936 72.652 72.4121 72.6625 72.4297L72.6701 72.4235C72.6641 72.3839 72.6658 72.3452 72.6753 72.3077C72.6848 72.2692 72.7014 72.2328 72.7249 72.1984C72.7481 72.1635 72.7771 72.132 72.8118 72.1038C72.873 72.0543 72.9319 72.0228 72.9884 72.0092C73.0454 71.9953 73.1006 72.0004 73.154 72.0247C73.2079 72.0486 73.2611 72.093 73.3137 72.1579L73.7156 72.6542L73.6016 72.7465L73.2059 72.2578C73.1544 72.1943 73.1014 72.1587 73.0467 72.1508C72.9924 72.1425 72.9354 72.1626 72.8756 72.211C72.8191 72.2568 72.7827 72.3043 72.7665 72.3535C72.7504 72.4018 72.7518 72.4529 72.7708 72.5066C72.7902 72.5599 72.8243 72.6167 72.8731 72.677L73.1956 73.0753L73.0802 73.1688L72.2043 72.0871L72.3197 71.9936ZM73.6185 71.4483C73.6834 71.3958 73.7506 71.3651 73.8202 71.3563C73.8899 71.3475 73.958 71.3591 74.0246 71.3911C74.0908 71.4227 74.1518 71.473 74.2078 71.5421L74.2657 71.6137L73.7395 72.0398C73.8133 72.1281 73.8907 72.1782 73.9717 72.1901C74.0527 72.2021 74.1324 72.1763 74.2107 72.1129C74.2589 72.0738 74.298 72.0349 74.3279 71.9961C74.3579 71.9572 74.3859 71.9131 74.4118 71.8637L74.494 71.9652C74.4694 72.0135 74.4413 72.057 74.4097 72.0956C74.3785 72.1339 74.3372 72.1739 74.2858 72.2155C74.2126 72.2748 74.1366 72.3118 74.0579 72.3264C73.9793 72.3402 73.9015 72.3303 73.8244 72.2968C73.7474 72.2632 73.6749 72.2045 73.607 72.1206C73.5405 72.0386 73.4968 71.9566 73.4757 71.8747C73.4548 71.7919 73.4562 71.7141 73.4799 71.6411C73.5042 71.5677 73.5504 71.5035 73.6185 71.4483ZM73.6937 71.544C73.632 71.5939 73.5992 71.6538 73.5953 71.7238C73.5913 71.7938 73.6151 71.8677 73.6667 71.9457L74.0699 71.6192C74.0327 71.5741 73.9932 71.5401 73.9515 71.517C73.9099 71.4932 73.8676 71.483 73.8244 71.4865C73.7808 71.4895 73.7372 71.5087 73.6937 71.544ZM74.4708 70.7582C74.4861 70.7458 74.5028 70.7337 74.521 70.7221C74.5388 70.71 74.5553 70.7 74.5706 70.6923L74.6426 70.8112C74.6275 70.8181 74.6115 70.8268 74.5947 70.8373C74.578 70.8479 74.5628 70.8586 74.5494 70.8694C74.5188 70.8942 74.4949 70.9239 74.4777 70.9586C74.4606 70.9924 74.4512 71.0292 74.4496 71.0688C74.4476 71.1081 74.4539 71.1486 74.4686 71.1904C74.4829 71.2318 74.506 71.2721 74.5379 71.3115L74.8689 71.7203L74.7528 71.8143L74.1358 71.0524L74.2318 70.9747L74.358 71.105L74.3629 71.1011C74.3557 71.06 74.3539 71.0189 74.3574 70.9777C74.3605 70.9361 74.371 70.8965 74.389 70.8589C74.4074 70.821 74.4346 70.7874 74.4708 70.7582ZM75.6594 70.7349C75.6988 70.7836 75.7197 70.8345 75.7222 70.8878C75.7247 70.9402 75.71 70.9931 75.6781 71.0466C75.6467 71.0997 75.5997 71.1516 75.5371 71.2022C75.4838 71.2454 75.4343 71.2786 75.3886 71.3017C75.343 71.3249 75.2993 71.3407 75.2577 71.349L75.1716 71.2427C75.2151 71.2328 75.2634 71.2167 75.3166 71.1943C75.3699 71.1719 75.4189 71.1425 75.4639 71.1061C75.5297 71.0528 75.5688 71.0035 75.5812 70.9582C75.5936 70.9128 75.585 70.8719 75.5553 70.8353C75.5384 70.8144 75.5176 70.801 75.4928 70.795C75.4681 70.7881 75.4358 70.7886 75.396 70.7962C75.3558 70.8035 75.3038 70.8179 75.2401 70.8396C75.1764 70.8605 75.1194 70.8764 75.0691 70.8872C75.0188 70.8972 74.9733 70.8968 74.9324 70.8862C74.892 70.8751 74.8548 70.8485 74.8206 70.8064C74.7684 70.7419 74.7544 70.6716 74.7786 70.5952C74.8028 70.5181 74.8573 70.4452 74.9421 70.3765C74.988 70.3393 75.0346 70.3092 75.082 70.2862C75.1294 70.2624 75.1767 70.244 75.2239 70.2312L75.2598 70.3552C75.2174 70.3673 75.1746 70.3831 75.1314 70.4027C75.0882 70.4224 75.0481 70.4472 75.011 70.4772C74.9577 70.5204 74.9238 70.5624 74.9094 70.6033C74.8954 70.6438 74.9007 70.6793 74.9255 70.7099C74.9446 70.7335 74.9669 70.7478 74.9923 70.7525C75.0181 70.757 75.051 70.7541 75.0911 70.7439C75.1312 70.7336 75.1824 70.7183 75.2448 70.6977C75.3068 70.6766 75.3629 70.6615 75.413 70.6524C75.4628 70.6428 75.5078 70.6439 75.5481 70.6558C75.5885 70.6668 75.6256 70.6932 75.6594 70.7349Z" fill="#626262"/>
<path d="M20.1925 68.9267C20.1925 68.994 20.2471 69.0486 20.3145 69.0486C20.3818 69.0486 20.4364 68.994 20.4364 68.9267H20.1925ZM20.3145 21.8535H20.1925V68.9267H20.3145H20.4364V21.8535H20.3145Z" fill="#D4D4D4"/>
<path d="M20.3145 68.9277H76.6559" stroke="#D4D4D4" stroke-width="0.243902"/>
<path d="M22.9844 25.2103C22.9844 24.0284 23.9425 23.0703 25.1244 23.0703H26.698C27.8799 23.0703 28.838 24.0284 28.838 25.2103V32.0947H22.9844V27.5825V25.2103Z" fill="#FC90FF"/>
<rect x="22.9844" y="32.0938" width="5.85366" height="9.02439" fill="#FC90FF"/>
<rect x="22.9844" y="41.1191" width="5.85366" height="7.07317" fill="#FC90FF"/>
<rect x="22.9844" y="48.1914" width="5.85366" height="6.82927" fill="#FC90FF"/>
<rect x="22.9844" y="55.0215" width="5.85366" height="7.07317" fill="#FC90FF"/>
<rect x="22.9844" y="62.0938" width="5.85366" height="6.82927" fill="#FC90FF"/>
<path d="M31.9785 31.4408C31.9785 30.2589 32.9366 29.3008 34.1185 29.3008H35.7242C36.9061 29.3008 37.8642 30.2589 37.8642 31.4408V34.3145H31.9785V31.8077V31.4408Z" fill="#FFE501"/>
<rect x="31.9238" y="34.2969" width="5.85366" height="8.04878" fill="#FFE501"/>
<rect x="31.9238" y="42.3457" width="5.85366" height="4.63415" fill="#FFE501"/>
<rect x="31.9238" y="46.9785" width="5.85366" height="5.12195" fill="#FFE501"/>
<rect x="31.9238" y="52.1016" width="5.85366" height="12.1951" fill="#FFE501"/>
<rect x="31.9238" y="64.2969" width="5.85366" height="4.63415" fill="#FFE501"/>
<path d="M41.2949 25.1146C41.2949 23.9327 42.253 22.9746 43.4349 22.9746H45.0086C46.1905 22.9746 47.1486 23.9327 47.1486 25.1146V31.999H41.2949V27.4868V25.1146Z" fill="#DEFF67"/>
<rect x="41.2949" y="30.0469" width="5.85366" height="5.12195" fill="#DEFF67"/>
<rect x="41.2949" y="35.1699" width="5.85366" height="15.122" fill="#DEFF67"/>
<rect x="41.2949" y="50.291" width="5.85366" height="6.82927" fill="#DEFF67"/>
<rect x="41.2949" y="57.1211" width="5.85366" height="8.29268" fill="#DEFF67"/>
<rect x="41.2949" y="65.4141" width="5.85366" height="3.41463" fill="#DEFF67"/>
<path d="M50.8848 33.183C50.8848 32.0011 51.8429 31.043 53.0248 31.043H54.5978C55.7797 31.043 56.7378 32.0011 56.7378 33.183V35.4028H50.8848V33.2229V33.183Z" fill="#65B2FF"/>
<rect x="50.8848" y="35.2695" width="5.85366" height="5.85366" fill="#65B2FF"/>
<rect x="50.8848" y="41.123" width="5.85366" height="3.17073" fill="#65B2FF"/>
<rect x="50.8848" y="44.2949" width="5.85366" height="3.41463" fill="#65B2FF"/>
<rect x="50.8848" y="47.709" width="5.85366" height="6.09756" fill="#65B2FF"/>
<rect x="50.8848" y="53.8066" width="5.85366" height="15.122" fill="#65B2FF"/>
<path d="M60.4785 25.2103C60.4785 24.0284 61.4366 23.0703 62.6185 23.0703H64.1922C65.3741 23.0703 66.3322 24.0284 66.3322 25.2103V32.0947H60.4785V27.5825V25.2103Z" fill="#A079FF"/>
<rect x="60.4785" y="32.0938" width="5.85366" height="9.02439" fill="#A079FF"/>
<rect x="60.4785" y="41.1191" width="5.85366" height="7.07317" fill="#A079FF"/>
<rect x="60.4785" y="48.1914" width="5.85366" height="6.82927" fill="#A079FF"/>
<rect x="60.4785" y="55.0215" width="5.85366" height="7.07317" fill="#A079FF"/>
<rect x="60.4785" y="62.0938" width="5.85366" height="6.82927" fill="#A079FF"/>
<path d="M70.0703 25.2103C70.0703 24.0284 71.0284 23.0703 72.2103 23.0703H73.784C74.9659 23.0703 75.924 24.0284 75.924 25.2103V34.2898H70.0703V28.6801V25.2103Z" fill="#CECECE"/>
<rect x="70.0703" y="34.2891" width="5.85366" height="8.04878" fill="#CECECE"/>
<rect x="70.0703" y="42.3379" width="5.85366" height="4.63415" fill="#CECECE"/>
<rect x="70.0703" y="46.9727" width="5.85366" height="5.12195" fill="#CECECE"/>
<rect x="70.0703" y="52.0957" width="5.85366" height="12.1951" fill="#CECECE"/>
<rect x="70.0703" y="64.2891" width="5.85366" height="4.63415" fill="#CECECE"/>
</svg>
