<svg width="408" height="392" viewBox="0 0 408 392" fill="none" xmlns="http://www.w3.org/2000/svg">
<rect x="0.552113" y="0.552113" width="406.355" height="390.896" rx="15.4479" fill="white" stroke="#EFEFEF" stroke-width="1.10423"/>
<rect x="237.4" y="336.4" width="43.2" height="35.2" rx="17.6" stroke="#EFEFEF" stroke-width="0.8"/>
<g clip-path="url(#clip0_6620_35022)">
<path d="M264.25 363H263.5C263.301 363 263.11 362.921 262.97 362.78C262.829 362.64 262.75 362.449 262.75 362.25C262.75 362.051 262.829 361.86 262.97 361.72C263.11 361.579 263.301 361.5 263.5 361.5H264.25C264.847 361.5 265.419 361.263 265.841 360.841C266.263 360.419 266.5 359.847 266.5 359.25V358.5C266.5 358.301 266.579 358.11 266.72 357.97C266.86 357.829 267.051 357.75 267.25 357.75C267.449 357.75 267.64 357.829 267.78 357.97C267.921 358.11 268 358.301 268 358.5V359.25C267.999 360.244 267.603 361.197 266.9 361.9C266.197 362.603 265.244 362.999 264.25 363ZM268 349.5V348.75C267.999 347.756 267.603 346.803 266.9 346.1C266.197 345.397 265.244 345.001 264.25 345H263.5C263.301 345 263.11 345.079 262.97 345.22C262.829 345.36 262.75 345.551 262.75 345.75C262.75 345.949 262.829 346.14 262.97 346.28C263.11 346.421 263.301 346.5 263.5 346.5H264.25C264.847 346.5 265.419 346.737 265.841 347.159C266.263 347.581 266.5 348.153 266.5 348.75V349.5C266.5 349.699 266.579 349.89 266.72 350.03C266.86 350.171 267.051 350.25 267.25 350.25C267.449 350.25 267.64 350.171 267.78 350.03C267.921 349.89 268 349.699 268 349.5ZM255.25 362.25C255.25 362.051 255.171 361.86 255.03 361.72C254.89 361.579 254.699 361.5 254.5 361.5H253.75C253.153 361.5 252.581 361.263 252.159 360.841C251.737 360.419 251.5 359.847 251.5 359.25V358.5C251.5 358.301 251.421 358.11 251.28 357.97C251.14 357.829 250.949 357.75 250.75 357.75C250.551 357.75 250.36 357.829 250.22 357.97C250.079 358.11 250 358.301 250 358.5V359.25C250.001 360.244 250.397 361.197 251.1 361.9C251.803 362.603 252.756 362.999 253.75 363H254.5C254.699 363 254.89 362.921 255.03 362.78C255.171 362.64 255.25 362.449 255.25 362.25ZM251.5 349.5V348.75C251.5 348.153 251.737 347.581 252.159 347.159C252.581 346.737 253.153 346.5 253.75 346.5H254.5C254.699 346.5 254.89 346.421 255.03 346.28C255.171 346.14 255.25 345.949 255.25 345.75C255.25 345.551 255.171 345.36 255.03 345.22C254.89 345.079 254.699 345 254.5 345H253.75C252.756 345.001 251.803 345.397 251.1 346.1C250.397 346.803 250.001 347.756 250 348.75V349.5C250 349.699 250.079 349.89 250.22 350.03C250.36 350.171 250.551 350.25 250.75 350.25C250.949 350.25 251.14 350.171 251.28 350.03C251.421 349.89 251.5 349.699 251.5 349.5Z" fill="black"/>
</g>
<rect x="20.4" y="336.4" width="206.2" height="35.2" rx="17.6" stroke="#EFEFEF" stroke-width="0.8"/>
<path d="M40.4365 359.5H39.2676V350.531H36.123V349.506H43.5674V350.531H40.4365V359.5ZM51.3672 355.74C51.3672 356.355 51.2874 356.905 51.1279 357.388C50.9684 357.871 50.7383 358.279 50.4375 358.611C50.1367 358.944 49.7721 359.199 49.3438 359.377C48.9199 359.55 48.4391 359.637 47.9014 359.637C47.4001 359.637 46.9398 359.55 46.5205 359.377C46.1058 359.199 45.7458 358.944 45.4404 358.611C45.1396 358.279 44.9049 357.871 44.7363 357.388C44.5723 356.905 44.4902 356.355 44.4902 355.74C44.4902 354.92 44.6292 354.223 44.9072 353.648C45.1852 353.07 45.5817 352.63 46.0967 352.329C46.6162 352.024 47.2337 351.871 47.9492 351.871C48.6328 351.871 49.2298 352.024 49.7402 352.329C50.2552 352.634 50.654 353.076 50.9365 353.655C51.2236 354.229 51.3672 354.924 51.3672 355.74ZM45.666 355.74C45.666 356.342 45.7458 356.864 45.9053 357.306C46.0648 357.748 46.3109 358.09 46.6436 358.331C46.9762 358.573 47.4046 358.693 47.9287 358.693C48.4482 358.693 48.8743 358.573 49.207 358.331C49.5443 358.09 49.7926 357.748 49.9521 357.306C50.1117 356.864 50.1914 356.342 50.1914 355.74C50.1914 355.143 50.1117 354.628 49.9521 354.195C49.7926 353.758 49.5465 353.421 49.2139 353.184C48.8812 352.947 48.4505 352.828 47.9219 352.828C47.1426 352.828 46.5706 353.086 46.2061 353.601C45.846 354.116 45.666 354.829 45.666 355.74ZM55.749 358.707C55.9359 358.707 56.1273 358.691 56.3232 358.659C56.5192 358.627 56.6787 358.589 56.8018 358.543V359.425C56.6696 359.484 56.485 359.534 56.248 359.575C56.0156 359.616 55.7878 359.637 55.5645 359.637C55.168 359.637 54.8079 359.568 54.4844 359.432C54.1608 359.29 53.901 359.053 53.7051 358.721C53.5137 358.388 53.418 357.928 53.418 357.34V352.896H52.3516V352.343L53.4248 351.898L53.876 350.271H54.5596V352.008H56.7539V352.896H54.5596V357.306C54.5596 357.775 54.6667 358.126 54.8809 358.358C55.0996 358.591 55.389 358.707 55.749 358.707ZM61.1221 351.885C62.0153 351.885 62.6784 352.085 63.1113 352.486C63.5443 352.887 63.7607 353.528 63.7607 354.407V359.5H62.9336L62.7148 358.393H62.6602C62.4505 358.666 62.2318 358.896 62.0039 359.083C61.776 359.265 61.5117 359.404 61.2109 359.5C60.9147 359.591 60.5501 359.637 60.1172 359.637C59.6615 359.637 59.2559 359.557 58.9004 359.397C58.5495 359.238 58.2715 358.996 58.0664 358.673C57.8659 358.349 57.7656 357.939 57.7656 357.442C57.7656 356.695 58.0618 356.121 58.6543 355.72C59.2467 355.319 60.1491 355.1 61.3613 355.063L62.6533 355.009V354.551C62.6533 353.904 62.5143 353.45 62.2363 353.19C61.9583 352.931 61.5664 352.801 61.0605 352.801C60.6686 352.801 60.2949 352.858 59.9395 352.972C59.584 353.086 59.2467 353.22 58.9277 353.375L58.5791 352.514C58.9163 352.34 59.3037 352.192 59.7412 352.069C60.1787 351.946 60.639 351.885 61.1221 351.885ZM62.6396 355.809L61.498 355.856C60.5638 355.893 59.9053 356.046 59.5225 356.314C59.1396 356.583 58.9482 356.964 58.9482 357.456C58.9482 357.884 59.0781 358.201 59.3379 358.406C59.5977 358.611 59.9417 358.714 60.3701 358.714C61.0355 358.714 61.5801 358.529 62.0039 358.16C62.4277 357.791 62.6396 357.237 62.6396 356.499V355.809ZM67.2402 359.5H66.0986V348.863H67.2402V359.5ZM76.8242 351.871C77.7129 351.871 78.3851 352.09 78.8408 352.527C79.2965 352.96 79.5244 353.658 79.5244 354.619V359.5H78.4033V354.694C78.4033 354.07 78.2598 353.603 77.9727 353.293C77.6901 352.983 77.2549 352.828 76.667 352.828C75.8376 352.828 75.2542 353.063 74.917 353.532C74.5798 354.002 74.4111 354.683 74.4111 355.576V359.5H73.2764V352.008H74.1924L74.3633 353.088H74.4248C74.5843 352.824 74.7871 352.603 75.0332 352.425C75.2793 352.243 75.555 352.106 75.8604 352.015C76.1657 351.919 76.487 351.871 76.8242 351.871ZM88.3223 355.74C88.3223 356.355 88.2425 356.905 88.083 357.388C87.9235 357.871 87.6934 358.279 87.3926 358.611C87.0918 358.944 86.7272 359.199 86.2988 359.377C85.875 359.55 85.3942 359.637 84.8564 359.637C84.3551 359.637 83.8949 359.55 83.4756 359.377C83.0609 359.199 82.7008 358.944 82.3955 358.611C82.0947 358.279 81.86 357.871 81.6914 357.388C81.5273 356.905 81.4453 356.355 81.4453 355.74C81.4453 354.92 81.5843 354.223 81.8623 353.648C82.1403 353.07 82.5368 352.63 83.0518 352.329C83.5713 352.024 84.1888 351.871 84.9043 351.871C85.5879 351.871 86.1849 352.024 86.6953 352.329C87.2103 352.634 87.609 353.076 87.8916 353.655C88.1787 354.229 88.3223 354.924 88.3223 355.74ZM82.6211 355.74C82.6211 356.342 82.7008 356.864 82.8604 357.306C83.0199 357.748 83.266 358.09 83.5986 358.331C83.9313 358.573 84.3597 358.693 84.8838 358.693C85.4033 358.693 85.8294 358.573 86.1621 358.331C86.4993 358.09 86.7477 357.748 86.9072 357.306C87.0667 356.864 87.1465 356.342 87.1465 355.74C87.1465 355.143 87.0667 354.628 86.9072 354.195C86.7477 353.758 86.5016 353.421 86.1689 353.184C85.8363 352.947 85.4056 352.828 84.877 352.828C84.0977 352.828 83.5257 353.086 83.1611 353.601C82.8011 354.116 82.6211 354.829 82.6211 355.74ZM100.381 355.74C100.381 356.355 100.301 356.905 100.142 357.388C99.9821 357.871 99.752 358.279 99.4512 358.611C99.1504 358.944 98.7858 359.199 98.3574 359.377C97.9336 359.55 97.4528 359.637 96.915 359.637C96.4137 359.637 95.9535 359.55 95.5342 359.377C95.1195 359.199 94.7594 358.944 94.4541 358.611C94.1533 358.279 93.9186 357.871 93.75 357.388C93.5859 356.905 93.5039 356.355 93.5039 355.74C93.5039 354.92 93.6429 354.223 93.9209 353.648C94.1989 353.07 94.5954 352.63 95.1104 352.329C95.6299 352.024 96.2474 351.871 96.9629 351.871C97.6465 351.871 98.2435 352.024 98.7539 352.329C99.2689 352.634 99.6676 353.076 99.9502 353.655C100.237 354.229 100.381 354.924 100.381 355.74ZM94.6797 355.74C94.6797 356.342 94.7594 356.864 94.9189 357.306C95.0785 357.748 95.3245 358.09 95.6572 358.331C95.9899 358.573 96.4183 358.693 96.9424 358.693C97.4619 358.693 97.888 358.573 98.2207 358.331C98.5579 358.09 98.8063 357.748 98.9658 357.306C99.1253 356.864 99.2051 356.342 99.2051 355.74C99.2051 355.143 99.1253 354.628 98.9658 354.195C98.8063 353.758 98.5602 353.421 98.2275 353.184C97.8949 352.947 97.4642 352.828 96.9355 352.828C96.1562 352.828 95.5843 353.086 95.2197 353.601C94.8597 354.116 94.6797 354.829 94.6797 355.74ZM105.679 352.896H103.812V359.5H102.678V352.896H101.352V352.35L102.678 351.974V351.475C102.678 350.846 102.771 350.335 102.958 349.943C103.145 349.547 103.416 349.255 103.771 349.068C104.127 348.882 104.56 348.788 105.07 348.788C105.357 348.788 105.619 348.813 105.856 348.863C106.098 348.913 106.31 348.97 106.492 349.034L106.198 349.93C106.043 349.88 105.868 349.834 105.672 349.793C105.48 349.747 105.285 349.725 105.084 349.725C104.651 349.725 104.33 349.866 104.12 350.148C103.915 350.426 103.812 350.864 103.812 351.461V352.008H105.679V352.896ZM118.831 351.871C119.656 351.871 120.278 352.088 120.697 352.521C121.117 352.949 121.326 353.639 121.326 354.592V359.5H120.205V354.646C120.205 354.04 120.073 353.587 119.809 353.286C119.549 352.981 119.161 352.828 118.646 352.828C117.922 352.828 117.396 353.038 117.067 353.457C116.739 353.876 116.575 354.494 116.575 355.31V359.5H115.447V354.646C115.447 354.241 115.388 353.904 115.27 353.635C115.156 353.366 114.982 353.165 114.75 353.033C114.522 352.896 114.233 352.828 113.882 352.828C113.385 352.828 112.986 352.931 112.686 353.136C112.385 353.341 112.166 353.646 112.029 354.052C111.897 354.453 111.831 354.947 111.831 355.535V359.5H110.696V352.008H111.612L111.783 353.067H111.845C111.995 352.808 112.184 352.589 112.412 352.411C112.64 352.233 112.895 352.099 113.178 352.008C113.46 351.917 113.761 351.871 114.08 351.871C114.65 351.871 115.126 351.978 115.509 352.192C115.896 352.402 116.176 352.723 116.35 353.156H116.411C116.657 352.723 116.994 352.402 117.423 352.192C117.851 351.978 118.321 351.871 118.831 351.871ZM130.117 355.74C130.117 356.355 130.037 356.905 129.878 357.388C129.718 357.871 129.488 358.279 129.188 358.611C128.887 358.944 128.522 359.199 128.094 359.377C127.67 359.55 127.189 359.637 126.651 359.637C126.15 359.637 125.69 359.55 125.271 359.377C124.856 359.199 124.496 358.944 124.19 358.611C123.89 358.279 123.655 357.871 123.486 357.388C123.322 356.905 123.24 356.355 123.24 355.74C123.24 354.92 123.379 354.223 123.657 353.648C123.935 353.07 124.332 352.63 124.847 352.329C125.366 352.024 125.984 351.871 126.699 351.871C127.383 351.871 127.98 352.024 128.49 352.329C129.005 352.634 129.404 353.076 129.687 353.655C129.974 354.229 130.117 354.924 130.117 355.74ZM124.416 355.74C124.416 356.342 124.496 356.864 124.655 357.306C124.815 357.748 125.061 358.09 125.394 358.331C125.726 358.573 126.155 358.693 126.679 358.693C127.198 358.693 127.624 358.573 127.957 358.331C128.294 358.09 128.543 357.748 128.702 357.306C128.862 356.864 128.941 356.342 128.941 355.74C128.941 355.143 128.862 354.628 128.702 354.195C128.543 353.758 128.297 353.421 127.964 353.184C127.631 352.947 127.201 352.828 126.672 352.828C125.893 352.828 125.321 353.086 124.956 353.601C124.596 354.116 124.416 354.829 124.416 355.74ZM134.745 359.637C133.797 359.637 133.045 359.313 132.489 358.666C131.938 358.019 131.662 357.057 131.662 355.781C131.662 354.492 131.945 353.519 132.51 352.862C133.075 352.201 133.827 351.871 134.766 351.871C135.162 351.871 135.508 351.924 135.805 352.028C136.101 352.133 136.356 352.274 136.57 352.452C136.785 352.625 136.965 352.824 137.11 353.047H137.192C137.174 352.906 137.156 352.712 137.138 352.466C137.119 352.22 137.11 352.019 137.11 351.864V348.863H138.245V359.5H137.329L137.158 358.434H137.11C136.969 358.657 136.789 358.86 136.57 359.042C136.356 359.224 136.099 359.37 135.798 359.479C135.502 359.584 135.151 359.637 134.745 359.637ZM134.923 358.693C135.725 358.693 136.292 358.465 136.625 358.01C136.958 357.554 137.124 356.877 137.124 355.979V355.774C137.124 354.822 136.965 354.09 136.646 353.58C136.331 353.07 135.757 352.814 134.923 352.814C134.226 352.814 133.704 353.083 133.357 353.621C133.011 354.154 132.838 354.883 132.838 355.809C132.838 356.729 133.009 357.44 133.351 357.941C133.697 358.443 134.221 358.693 134.923 358.693ZM143.536 351.871C144.174 351.871 144.721 352.012 145.177 352.295C145.632 352.577 145.981 352.974 146.223 353.484C146.464 353.99 146.585 354.583 146.585 355.262V355.966H141.41C141.424 356.845 141.643 357.515 142.066 357.976C142.49 358.436 143.087 358.666 143.857 358.666C144.331 358.666 144.751 358.623 145.115 358.536C145.48 358.45 145.858 358.322 146.25 358.153V359.151C145.872 359.32 145.496 359.443 145.122 359.521C144.753 359.598 144.315 359.637 143.81 359.637C143.09 359.637 142.461 359.491 141.923 359.199C141.39 358.903 140.975 358.47 140.679 357.9C140.382 357.331 140.234 356.633 140.234 355.809C140.234 355.002 140.369 354.305 140.638 353.717C140.911 353.124 141.294 352.669 141.786 352.35C142.283 352.031 142.866 351.871 143.536 351.871ZM143.522 352.801C142.916 352.801 142.433 352.999 142.073 353.396C141.713 353.792 141.499 354.346 141.431 355.057H145.396C145.391 354.61 145.32 354.218 145.184 353.881C145.051 353.539 144.849 353.275 144.575 353.088C144.302 352.896 143.951 352.801 143.522 352.801ZM149.654 359.5H148.513V348.863H149.654V359.5ZM158.11 358.707C158.297 358.707 158.489 358.691 158.685 358.659C158.881 358.627 159.04 358.589 159.163 358.543V359.425C159.031 359.484 158.846 359.534 158.609 359.575C158.377 359.616 158.149 359.637 157.926 359.637C157.529 359.637 157.169 359.568 156.846 359.432C156.522 359.29 156.262 359.053 156.066 358.721C155.875 358.388 155.779 357.928 155.779 357.34V352.896H154.713V352.343L155.786 351.898L156.237 350.271H156.921V352.008H159.115V352.896H156.921V357.306C156.921 357.775 157.028 358.126 157.242 358.358C157.461 358.591 157.75 358.707 158.11 358.707ZM159.498 352.008H160.715L162.369 356.355C162.465 356.611 162.554 356.857 162.636 357.094C162.718 357.326 162.791 357.549 162.854 357.764C162.918 357.978 162.968 358.185 163.005 358.386H163.053C163.117 358.158 163.208 357.859 163.326 357.49C163.445 357.117 163.572 356.736 163.709 356.349L165.274 352.008H166.498L163.237 360.601C163.064 361.061 162.861 361.462 162.629 361.804C162.401 362.146 162.123 362.408 161.795 362.59C161.467 362.777 161.07 362.87 160.605 362.87C160.391 362.87 160.202 362.856 160.038 362.829C159.874 362.806 159.733 362.779 159.614 362.747V361.838C159.715 361.861 159.835 361.881 159.977 361.899C160.122 361.918 160.273 361.927 160.428 361.927C160.71 361.927 160.954 361.872 161.159 361.763C161.369 361.658 161.549 361.503 161.699 361.298C161.85 361.093 161.979 360.849 162.089 360.566L162.499 359.514L159.498 352.008ZM171.215 351.871C172.149 351.871 172.894 352.192 173.45 352.835C174.006 353.478 174.284 354.444 174.284 355.733C174.284 356.586 174.157 357.301 173.901 357.88C173.646 358.459 173.286 358.896 172.821 359.192C172.361 359.489 171.816 359.637 171.188 359.637C170.791 359.637 170.442 359.584 170.142 359.479C169.841 359.375 169.583 359.233 169.369 359.056C169.155 358.878 168.977 358.684 168.836 358.475H168.754C168.768 358.652 168.784 358.867 168.802 359.117C168.825 359.368 168.836 359.587 168.836 359.773V362.85H167.694V352.008H168.631L168.781 353.115H168.836C168.982 352.887 169.16 352.68 169.369 352.493C169.579 352.302 169.834 352.151 170.135 352.042C170.44 351.928 170.8 351.871 171.215 351.871ZM171.017 352.828C170.497 352.828 170.078 352.928 169.759 353.129C169.444 353.329 169.214 353.63 169.068 354.031C168.923 354.428 168.845 354.927 168.836 355.528V355.747C168.836 356.381 168.904 356.916 169.041 357.354C169.182 357.791 169.412 358.124 169.731 358.352C170.055 358.579 170.488 358.693 171.03 358.693C171.495 358.693 171.882 358.568 172.192 358.317C172.502 358.067 172.732 357.718 172.883 357.271C173.038 356.82 173.115 356.303 173.115 355.72C173.115 354.836 172.942 354.134 172.596 353.614C172.254 353.09 171.728 352.828 171.017 352.828ZM179.151 351.871C179.789 351.871 180.336 352.012 180.792 352.295C181.248 352.577 181.596 352.974 181.838 353.484C182.079 353.99 182.2 354.583 182.2 355.262V355.966H177.025C177.039 356.845 177.258 357.515 177.682 357.976C178.105 358.436 178.702 358.666 179.473 358.666C179.947 358.666 180.366 358.623 180.73 358.536C181.095 358.45 181.473 358.322 181.865 358.153V359.151C181.487 359.32 181.111 359.443 180.737 359.521C180.368 359.598 179.931 359.637 179.425 359.637C178.705 359.637 178.076 359.491 177.538 359.199C177.005 358.903 176.59 358.47 176.294 357.9C175.998 357.331 175.85 356.633 175.85 355.809C175.85 355.002 175.984 354.305 176.253 353.717C176.526 353.124 176.909 352.669 177.401 352.35C177.898 352.031 178.481 351.871 179.151 351.871ZM179.138 352.801C178.532 352.801 178.049 352.999 177.688 353.396C177.328 353.792 177.114 354.346 177.046 355.057H181.011C181.006 354.61 180.936 354.218 180.799 353.881C180.667 353.539 180.464 353.275 180.19 353.088C179.917 352.896 179.566 352.801 179.138 352.801ZM188.975 357.449C188.975 357.928 188.854 358.331 188.612 358.659C188.375 358.983 188.034 359.227 187.587 359.391C187.145 359.555 186.616 359.637 186.001 359.637C185.477 359.637 185.023 359.596 184.641 359.514C184.258 359.432 183.923 359.315 183.636 359.165V358.119C183.941 358.27 184.306 358.406 184.729 358.529C185.153 358.652 185.586 358.714 186.028 358.714C186.675 358.714 187.145 358.609 187.437 358.399C187.728 358.19 187.874 357.905 187.874 357.545C187.874 357.34 187.815 357.16 187.696 357.005C187.582 356.845 187.389 356.693 187.115 356.547C186.842 356.396 186.464 356.232 185.98 356.055C185.502 355.872 185.087 355.692 184.736 355.515C184.39 355.332 184.121 355.111 183.93 354.852C183.743 354.592 183.649 354.255 183.649 353.84C183.649 353.206 183.905 352.721 184.415 352.384C184.93 352.042 185.604 351.871 186.438 351.871C186.89 351.871 187.311 351.917 187.703 352.008C188.1 352.094 188.469 352.213 188.811 352.363L188.428 353.272C188.118 353.14 187.787 353.029 187.437 352.938C187.086 352.846 186.728 352.801 186.363 352.801C185.839 352.801 185.436 352.887 185.153 353.061C184.875 353.234 184.736 353.471 184.736 353.771C184.736 354.004 184.8 354.195 184.928 354.346C185.06 354.496 185.27 354.637 185.557 354.77C185.844 354.902 186.222 355.057 186.691 355.234C187.161 355.408 187.566 355.588 187.908 355.774C188.25 355.957 188.512 356.18 188.694 356.444C188.881 356.704 188.975 357.039 188.975 357.449ZM190.629 358.789C190.629 358.47 190.706 358.244 190.861 358.112C191.016 357.976 191.205 357.907 191.429 357.907C191.661 357.907 191.857 357.976 192.017 358.112C192.176 358.244 192.256 358.47 192.256 358.789C192.256 359.104 192.176 359.334 192.017 359.479C191.857 359.621 191.661 359.691 191.429 359.691C191.205 359.691 191.016 359.621 190.861 359.479C190.706 359.334 190.629 359.104 190.629 358.789ZM190.629 352.726C190.629 352.397 190.706 352.167 190.861 352.035C191.016 351.898 191.205 351.83 191.429 351.83C191.661 351.83 191.857 351.898 192.017 352.035C192.176 352.167 192.256 352.397 192.256 352.726C192.256 353.035 192.176 353.261 192.017 353.402C191.857 353.544 191.661 353.614 191.429 353.614C191.205 353.614 191.016 353.544 190.861 353.402C190.706 353.261 190.629 353.035 190.629 352.726Z" fill="#212121"/>
<path d="M204.987 349.369C205.566 349.369 206.088 349.46 206.553 349.643C207.018 349.82 207.387 350.087 207.66 350.442C207.934 350.798 208.07 351.238 208.07 351.762C208.07 352.167 207.986 352.521 207.817 352.821C207.653 353.122 207.43 353.386 207.147 353.614C206.865 353.838 206.548 354.036 206.197 354.209C206.589 354.4 206.949 354.621 207.277 354.872C207.61 355.118 207.877 355.408 208.077 355.74C208.282 356.073 208.385 356.463 208.385 356.909C208.385 357.47 208.241 357.955 207.954 358.365C207.672 358.771 207.277 359.085 206.771 359.309C206.266 359.527 205.675 359.637 205.001 359.637C204.276 359.637 203.659 359.53 203.148 359.315C202.638 359.101 202.251 358.796 201.986 358.399C201.722 357.998 201.59 357.52 201.59 356.964C201.59 356.504 201.681 356.105 201.863 355.768C202.046 355.43 202.289 355.139 202.595 354.893C202.905 354.646 203.244 354.439 203.613 354.271C203.299 354.084 203.012 353.874 202.752 353.642C202.492 353.405 202.285 353.133 202.13 352.828C201.979 352.518 201.904 352.16 201.904 351.755C201.904 351.235 202.043 350.8 202.321 350.449C202.599 350.094 202.971 349.825 203.436 349.643C203.905 349.46 204.422 349.369 204.987 349.369ZM203.121 356.902C203.121 357.34 203.276 357.7 203.586 357.982C203.896 358.265 204.358 358.406 204.974 358.406C205.584 358.406 206.049 358.267 206.368 357.989C206.687 357.711 206.847 357.344 206.847 356.889C206.847 356.597 206.765 356.34 206.601 356.116C206.441 355.893 206.225 355.695 205.951 355.521C205.682 355.344 205.384 355.18 205.056 355.029L204.837 354.94C204.481 355.091 204.176 355.262 203.921 355.453C203.666 355.64 203.467 355.852 203.326 356.089C203.189 356.326 203.121 356.597 203.121 356.902ZM204.974 350.606C204.532 350.606 204.167 350.716 203.88 350.935C203.597 351.149 203.456 351.459 203.456 351.864C203.456 352.151 203.524 352.397 203.661 352.603C203.802 352.808 203.992 352.985 204.229 353.136C204.465 353.282 204.728 353.418 205.015 353.546C205.293 353.423 205.543 353.288 205.767 353.143C205.994 352.992 206.174 352.814 206.307 352.609C206.443 352.4 206.512 352.149 206.512 351.857C206.512 351.456 206.368 351.149 206.081 350.935C205.799 350.716 205.429 350.606 204.974 350.606Z" fill="#F900FF"/>
<path d="M30.0713 43.084L25.9854 31.2341H25.8981C25.9175 31.4993 25.9401 31.8616 25.966 32.321C25.9919 32.7804 26.0146 33.2721 26.034 33.7962C26.0534 34.3203 26.0631 34.8217 26.0631 35.3005V43.084H23.9474V28.8951H27.218L31.1486 40.221H31.2068L35.2732 28.8951H38.5341V43.084H36.3117V35.184C36.3117 34.7505 36.3181 34.2815 36.3311 33.7768C36.3505 33.2721 36.3699 32.7933 36.3893 32.3404C36.4152 31.8875 36.4346 31.5252 36.4475 31.2535H36.3699L32.1288 43.084H30.0713ZM51.5487 37.6879C51.5487 38.5808 51.4322 39.3734 51.1993 40.0657C50.9664 40.758 50.6267 41.3435 50.1803 41.8223C49.7338 42.2946 49.1968 42.657 48.5692 42.9093C47.9416 43.1552 47.2331 43.2781 46.4438 43.2781C45.7062 43.2781 45.0301 43.1552 44.4154 42.9093C43.8008 42.657 43.267 42.2946 42.8141 41.8223C42.3677 41.3435 42.0215 40.758 41.7756 40.0657C41.5298 39.3734 41.4069 38.5808 41.4069 37.6879C41.4069 36.5039 41.6107 35.5011 42.0183 34.6794C42.4324 33.8512 43.0211 33.2204 43.7846 32.7869C44.5481 32.3534 45.4571 32.1366 46.5117 32.1366C47.5017 32.1366 48.3751 32.3534 49.1321 32.7869C49.8891 33.2204 50.4811 33.8512 50.9081 34.6794C51.3352 35.5075 51.5487 36.5104 51.5487 37.6879ZM43.7555 37.6879C43.7555 38.4708 43.8493 39.1405 44.0369 39.6969C44.231 40.2533 44.5287 40.6804 44.9298 40.978C45.3309 41.2691 45.8486 41.4147 46.4826 41.4147C47.1167 41.4147 47.6343 41.2691 48.0354 40.978C48.4366 40.6804 48.731 40.2533 48.9186 39.6969C49.1062 39.1405 49.2001 38.4708 49.2001 37.6879C49.2001 36.9051 49.1062 36.2419 48.9186 35.6984C48.731 35.1484 48.4366 34.7311 48.0354 34.4464C47.6343 34.1553 47.1135 34.0097 46.4729 34.0097C45.5283 34.0097 44.8392 34.3267 44.4057 34.9608C43.9722 35.5949 43.7555 36.5039 43.7555 37.6879ZM57.7794 43.2781C56.4983 43.2781 55.4695 42.8122 54.6931 41.8806C53.9232 40.9424 53.5382 39.561 53.5382 37.7365C53.5382 35.8925 53.9297 34.4982 54.7126 33.5536C55.5019 32.6089 56.5403 32.1366 57.8279 32.1366C58.3714 32.1366 58.8469 32.211 59.2545 32.3598C59.6622 32.5022 60.0115 32.6963 60.3027 32.9421C60.6003 33.188 60.8526 33.463 61.0597 33.7671H61.1664C61.1341 33.5665 61.0953 33.2786 61.05 32.9033C61.0112 32.5216 60.9918 32.169 60.9918 31.8455V27.9828H63.2822V43.084H61.4964L61.0888 41.6185H60.9918C60.7977 41.9291 60.5518 42.2105 60.2542 42.4629C59.963 42.7087 59.6136 42.9061 59.206 43.0549C58.8049 43.2037 58.3293 43.2781 57.7794 43.2781ZM58.4199 41.4244C59.3969 41.4244 60.0859 41.143 60.4871 40.5801C60.8882 40.0172 61.0953 39.1728 61.1082 38.047V37.7462C61.1082 36.5427 60.9141 35.6208 60.5259 34.9802C60.1377 34.3332 59.4292 34.0097 58.4005 34.0097C57.5788 34.0097 56.9512 34.3429 56.5177 35.0093C56.0907 35.6693 55.8772 36.5913 55.8772 37.7753C55.8772 38.9593 56.0907 39.8651 56.5177 40.4927C56.9512 41.1138 57.5853 41.4244 58.4199 41.4244ZM70.8327 32.1366C71.7903 32.1366 72.612 32.334 73.2978 32.7286C73.9837 33.1233 74.511 33.683 74.8798 34.4076C75.2486 35.1323 75.433 35.9993 75.433 37.0086V38.2314H68.2609C68.2868 39.2731 68.565 40.0754 69.0955 40.6383C69.6325 41.2012 70.3831 41.4826 71.3471 41.4826C72.0329 41.4826 72.6476 41.4179 73.1911 41.2885C73.741 41.1527 74.3072 40.9553 74.8895 40.6965V42.5502C74.3524 42.8025 73.8057 42.9869 73.2493 43.1034C72.6929 43.2199 72.0265 43.2781 71.2501 43.2781C70.1954 43.2781 69.267 43.0743 68.4647 42.6667C67.6689 42.2526 67.0445 41.6379 66.5916 40.8227C66.1452 40.0075 65.9219 38.9949 65.9219 37.785C65.9219 36.5816 66.1258 35.5593 66.5334 34.7182C66.941 33.8771 67.5136 33.2365 68.2512 32.7966C68.9888 32.3566 69.8493 32.1366 70.8327 32.1366ZM70.8327 33.8544C70.1146 33.8544 69.5322 34.0874 69.0858 34.5532C68.6458 35.019 68.387 35.7016 68.3094 36.601H73.2008C73.1943 36.064 73.1037 35.5884 72.929 35.1743C72.7608 34.7602 72.502 34.4367 72.1526 34.2038C71.8097 33.9709 71.3697 33.8544 70.8327 33.8544ZM80.2952 43.084H78.0048V27.9828H80.2952V43.084ZM93.8727 43.084H91.5337V30.875H87.3799V28.8951H98.0167V30.875H93.8727V43.084ZM98.337 32.3404H100.822L103.025 38.4741C103.122 38.7523 103.209 39.0273 103.287 39.299C103.371 39.5643 103.442 39.8263 103.5 40.0851C103.565 40.3439 103.617 40.6027 103.655 40.8615H103.714C103.778 40.5251 103.869 40.1498 103.985 39.7357C104.108 39.3152 104.244 38.8946 104.393 38.4741L106.509 32.3404H108.964L104.354 44.5592C104.089 45.2579 103.762 45.8532 103.374 46.3449C102.992 46.8431 102.539 47.2184 102.015 47.4707C101.491 47.7295 100.893 47.8589 100.22 47.8589C99.8963 47.8589 99.6148 47.8395 99.3754 47.8007C99.1361 47.7683 98.9322 47.7327 98.764 47.6939V45.8693C98.8999 45.9017 99.0714 45.9308 99.2784 45.9567C99.4854 45.9826 99.6989 45.9955 99.9189 45.9955C100.327 45.9955 100.679 45.9146 100.977 45.7529C101.274 45.5911 101.527 45.3614 101.734 45.0638C101.941 44.7727 102.112 44.4395 102.248 44.0642L102.627 43.0549L98.337 32.3404ZM116.107 32.1366C117.382 32.1366 118.404 32.6025 119.174 33.5342C119.95 34.4659 120.338 35.8504 120.338 37.6879C120.338 38.9043 120.157 39.9298 119.795 40.7645C119.439 41.5926 118.938 42.2202 118.291 42.6473C117.65 43.0678 116.903 43.2781 116.049 43.2781C115.505 43.2781 115.033 43.2069 114.632 43.0646C114.231 42.9222 113.888 42.7378 113.603 42.5114C113.318 42.2785 113.079 42.0261 112.885 41.7544H112.749C112.781 42.0132 112.811 42.3011 112.836 42.6181C112.869 42.9287 112.885 43.2134 112.885 43.4722V47.8492H110.595V32.3404H112.458L112.778 33.8253H112.885C113.086 33.5212 113.328 33.2398 113.613 32.981C113.904 32.7222 114.253 32.5184 114.661 32.3695C115.075 32.2143 115.557 32.1366 116.107 32.1366ZM115.496 34C114.868 34 114.363 34.1262 113.982 34.3785C113.606 34.6244 113.331 34.9964 113.157 35.4946C112.988 35.9928 112.898 36.6171 112.885 37.3677V37.6879C112.885 38.4838 112.966 39.1599 113.128 39.7163C113.296 40.2663 113.571 40.6868 113.953 40.978C114.341 41.2627 114.865 41.405 115.525 41.405C116.081 41.405 116.541 41.253 116.903 40.9489C117.272 40.6448 117.547 40.2113 117.728 39.6484C117.909 39.0855 118 38.4223 118 37.6588C118 36.5007 117.792 35.6013 117.378 34.9608C116.971 34.3203 116.343 34 115.496 34ZM127.258 32.1366C128.216 32.1366 129.037 32.334 129.723 32.7286C130.409 33.1233 130.936 33.683 131.305 34.4076C131.674 35.1323 131.858 35.9993 131.858 37.0086V38.2314H124.686C124.712 39.2731 124.99 40.0754 125.521 40.6383C126.058 41.2012 126.809 41.4826 127.773 41.4826C128.458 41.4826 129.073 41.4179 129.617 41.2885C130.167 41.1527 130.733 40.9553 131.315 40.6965V42.5502C130.778 42.8025 130.231 42.9869 129.675 43.1034C129.118 43.2199 128.452 43.2781 127.676 43.2781C126.621 43.2781 125.692 43.0743 124.89 42.6667C124.094 42.2526 123.47 41.6379 123.017 40.8227C122.571 40.0075 122.347 38.9949 122.347 37.785C122.347 36.5816 122.551 35.5593 122.959 34.7182C123.366 33.8771 123.939 33.2365 124.677 32.7966C125.414 32.3566 126.275 32.1366 127.258 32.1366ZM127.258 33.8544C126.54 33.8544 125.958 34.0874 125.511 34.5532C125.071 35.019 124.813 35.7016 124.735 36.601H129.626C129.62 36.064 129.529 35.5884 129.355 35.1743C129.186 34.7602 128.927 34.4367 128.578 34.2038C128.235 33.9709 127.795 33.8544 127.258 33.8544ZM141.651 40.0172C141.651 40.7224 141.479 41.3177 141.137 41.8029C140.794 42.2882 140.292 42.657 139.632 42.9093C138.979 43.1552 138.176 43.2781 137.225 43.2781C136.475 43.2781 135.828 43.2231 135.284 43.1131C134.747 43.0096 134.239 42.8478 133.761 42.6278V40.6577C134.272 40.8971 134.844 41.1041 135.478 41.2788C136.119 41.4535 136.724 41.5409 137.293 41.5409C138.044 41.5409 138.584 41.4244 138.914 41.1915C139.244 40.9521 139.409 40.6351 139.409 40.2404C139.409 40.0075 139.341 39.8004 139.205 39.6193C139.076 39.4316 138.83 39.2408 138.468 39.0467C138.112 38.8461 137.588 38.6067 136.895 38.3285C136.216 38.0567 135.643 37.785 135.178 37.5133C134.712 37.2415 134.359 36.9148 134.12 36.533C133.88 36.1448 133.761 35.6499 133.761 35.0482C133.761 34.0971 134.136 33.3756 134.886 32.8839C135.643 32.3857 136.643 32.1366 137.885 32.1366C138.545 32.1366 139.166 32.2046 139.749 32.3404C140.337 32.4698 140.913 32.6607 141.476 32.913L140.758 34.6308C140.273 34.4173 139.784 34.2426 139.293 34.1068C138.807 33.9644 138.312 33.8932 137.808 33.8932C137.219 33.8932 136.769 33.9838 136.459 34.165C136.155 34.3462 136.003 34.605 136.003 34.9414C136.003 35.1937 136.077 35.4072 136.226 35.5819C136.375 35.7566 136.63 35.9313 136.992 36.106C137.361 36.2807 137.872 36.4975 138.526 36.7563C139.166 37.0021 139.72 37.2609 140.185 37.5327C140.658 37.7979 141.02 38.1247 141.272 38.5129C141.525 38.9011 141.651 39.4025 141.651 40.0172ZM143.786 41.8806C143.786 41.35 143.922 40.978 144.194 40.7645C144.472 40.5445 144.808 40.4345 145.203 40.4345C145.598 40.4345 145.934 40.5445 146.212 40.7645C146.497 40.978 146.639 41.35 146.639 41.8806C146.639 42.3982 146.497 42.7734 146.212 43.0063C145.934 43.2328 145.598 43.346 145.203 43.346C144.808 43.346 144.472 43.2328 144.194 43.0063C143.922 42.7734 143.786 42.3982 143.786 41.8806Z" fill="#090909"/>
<rect x="22.6361" y="77.848" width="167.842" height="60.7324" rx="30.3662" stroke="#DFDFDF" stroke-width="1.10423" stroke-dasharray="2.21 2.21"/>
<rect x="32.0215" y="86.1299" width="150.175" height="44.169" rx="22.0845" fill="url(#paint0_radial_6620_35022)"/>
<path d="M50.0603 114.381V103.204H53.8401C54.6388 103.204 55.3499 103.338 55.9735 103.606C56.597 103.874 57.0865 104.271 57.4421 104.796C57.8028 105.322 57.9832 105.969 57.9832 106.736C57.9832 107.478 57.8157 108.112 57.4807 108.638C57.1509 109.163 56.6897 109.563 56.0971 109.836C55.5045 110.109 54.8166 110.246 54.0333 110.246H51.529V114.381H50.0603ZM51.5212 109.04H54.0024C54.7702 109.04 55.3937 108.826 55.873 108.398C56.3522 107.97 56.5918 107.388 56.5918 106.651C56.5918 105.909 56.3445 105.348 55.8498 104.966C55.3551 104.585 54.7161 104.394 53.9329 104.394H51.5212V109.04ZM67.4501 114.535C66.9039 114.535 66.386 114.471 65.8964 114.342C65.4069 114.208 64.9611 114.01 64.5592 113.747C64.1624 113.484 63.8326 113.16 63.5698 112.773C63.3122 112.381 63.1499 111.928 63.0829 111.413H64.5824C64.6752 111.835 64.8581 112.191 65.1312 112.479C65.4095 112.768 65.7521 112.984 66.1592 113.129C66.5715 113.273 67.0224 113.345 67.5119 113.345C67.986 113.345 68.4214 113.27 68.8182 113.121C69.2201 112.971 69.5422 112.755 69.7844 112.472C70.0266 112.183 70.1477 111.838 70.1477 111.436C70.1477 110.993 70.0034 110.637 69.7148 110.369C69.4263 110.096 68.9805 109.877 68.3776 109.712L66.0742 109.117C65.5538 108.988 65.0926 108.808 64.6906 108.576C64.2938 108.339 63.9821 108.03 63.7553 107.648C63.5286 107.262 63.4152 106.783 63.4152 106.211C63.4152 105.577 63.5904 105.025 63.9408 104.557C64.2913 104.082 64.7653 103.717 65.3631 103.459C65.966 103.196 66.6462 103.065 67.4037 103.065C68.2797 103.065 69.0166 103.217 69.6144 103.521C70.2173 103.825 70.6733 104.224 70.9825 104.719C71.2917 105.214 71.4463 105.742 71.4463 106.303H69.9776C69.9313 105.793 69.7818 105.391 69.5293 105.098C69.2768 104.799 68.9625 104.585 68.5863 104.456C68.2101 104.322 67.8005 104.255 67.3573 104.255C66.5586 104.255 65.9531 104.438 65.5409 104.804C65.1338 105.165 64.9302 105.595 64.9302 106.095C64.9302 106.553 65.0771 106.914 65.3708 107.177C65.6645 107.44 66.0974 107.643 66.6694 107.788L68.911 108.367C69.5757 108.522 70.1039 108.746 70.4955 109.04C70.8923 109.333 71.1757 109.676 71.3458 110.068C71.521 110.454 71.6086 110.874 71.6086 111.328C71.6086 111.946 71.436 112.497 71.0907 112.982C70.7455 113.466 70.2611 113.848 69.6375 114.126C69.0192 114.399 68.29 114.535 67.4501 114.535ZM77.1031 114.535C76.3611 114.535 75.7066 114.373 75.1398 114.048C74.573 113.724 74.1298 113.257 73.8103 112.649C73.4908 112.041 73.3311 111.312 73.3311 110.462C73.3311 109.622 73.4754 108.885 73.7639 108.251C74.0525 107.617 74.4699 107.123 75.0161 106.767C75.5675 106.412 76.2297 106.234 77.0026 106.234C77.755 106.234 78.3914 106.396 78.9118 106.721C79.4323 107.045 79.8265 107.504 80.0945 108.097C80.3676 108.684 80.5041 109.382 80.5041 110.191V110.717H74.7765C74.7765 111.222 74.859 111.681 75.0239 112.093C75.1939 112.5 75.449 112.825 75.7891 113.067C76.1292 113.309 76.5595 113.43 77.0799 113.43C77.5901 113.43 78.0281 113.312 78.3939 113.075C78.765 112.838 79.002 112.495 79.1051 112.047H80.45C80.3573 112.588 80.1408 113.044 79.8007 113.415C79.4658 113.786 79.0613 114.067 78.5872 114.257C78.1183 114.443 77.6236 114.535 77.1031 114.535ZM74.7842 109.751H79.1283C79.1283 109.292 79.051 108.88 78.8964 108.514C78.7418 108.143 78.5047 107.852 78.1852 107.641C77.8709 107.424 77.4741 107.316 76.9949 107.316C76.495 107.316 76.0802 107.437 75.7504 107.679C75.4206 107.916 75.1759 108.223 75.0161 108.599C74.8564 108.97 74.7791 109.354 74.7842 109.751ZM82.4814 114.381V106.388H83.8419V107.927C83.9758 107.545 84.1639 107.231 84.4061 106.984C84.6483 106.731 84.924 106.543 85.2332 106.419C85.5475 106.296 85.8722 106.234 86.2071 106.234C86.3256 106.234 86.4416 106.242 86.5549 106.257C86.6683 106.273 86.7559 106.298 86.8177 106.334V107.718C86.7404 107.682 86.64 107.659 86.5163 107.648C86.3978 107.633 86.2973 107.625 86.2148 107.625C85.8953 107.605 85.5965 107.625 85.3182 107.687C85.0399 107.744 84.7952 107.844 84.5839 107.988C84.3726 108.133 84.2051 108.323 84.0815 108.56C83.9629 108.792 83.9037 109.076 83.9037 109.411V114.381H82.4814ZM88.5588 114.381V106.388H89.9424V114.381H88.5588ZM88.5202 104.696V103.212H89.9811V104.696H88.5202ZM95.7175 114.535C94.9755 114.535 94.321 114.373 93.7542 114.048C93.1874 113.724 92.7442 113.257 92.4247 112.649C92.1052 112.041 91.9455 111.312 91.9455 110.462C91.9455 109.622 92.0898 108.885 92.3783 108.251C92.6669 107.617 93.0843 107.123 93.6305 106.767C94.1819 106.412 94.8441 106.234 95.617 106.234C96.3694 106.234 97.0058 106.396 97.5262 106.721C98.0467 107.045 98.4409 107.504 98.7088 108.097C98.982 108.684 99.1185 109.382 99.1185 110.191V110.717H93.3909C93.3909 111.222 93.4733 111.681 93.6382 112.093C93.8083 112.5 94.0634 112.825 94.4035 113.067C94.7436 113.309 95.1739 113.43 95.6943 113.43C96.2045 113.43 96.6425 113.312 97.0083 113.075C97.3794 112.838 97.6164 112.495 97.7195 112.047H99.0644C98.9717 112.588 98.7552 113.044 98.4151 113.415C98.0802 113.786 97.6757 114.067 97.2016 114.257C96.7327 114.443 96.238 114.535 95.7175 114.535ZM93.3986 109.751H97.7427C97.7427 109.292 97.6654 108.88 97.5108 108.514C97.3562 108.143 97.1191 107.852 96.7996 107.641C96.4853 107.424 96.0885 107.316 95.6093 107.316C95.1094 107.316 94.6946 107.437 94.3648 107.679C94.035 107.916 93.7903 108.223 93.6305 108.599C93.4708 108.97 93.3935 109.354 93.3986 109.751ZM103.926 114.535C103.369 114.535 102.852 114.45 102.372 114.28C101.898 114.105 101.504 113.835 101.19 113.469C100.875 113.098 100.68 112.626 100.602 112.054H101.901C101.968 112.369 102.097 112.631 102.287 112.843C102.478 113.049 102.712 113.206 102.991 113.314C103.274 113.417 103.583 113.469 103.918 113.469C104.459 113.469 104.895 113.368 105.225 113.167C105.554 112.966 105.719 112.657 105.719 112.24C105.719 111.946 105.632 111.712 105.456 111.536C105.286 111.356 105.018 111.225 104.653 111.142L102.998 110.732C102.354 110.578 101.839 110.336 101.452 110.006C101.071 109.676 100.878 109.215 100.873 108.622C100.873 108.153 100.986 107.741 101.213 107.386C101.44 107.03 101.777 106.749 102.225 106.543C102.679 106.337 103.243 106.234 103.918 106.234C104.789 106.234 105.49 106.43 106.021 106.821C106.551 107.208 106.83 107.777 106.855 108.53H105.588C105.536 108.148 105.366 107.847 105.078 107.625C104.789 107.398 104.397 107.285 103.903 107.285C103.398 107.285 102.983 107.388 102.658 107.594C102.339 107.795 102.179 108.11 102.179 108.537C102.179 108.821 102.292 109.045 102.519 109.21C102.751 109.37 103.086 109.503 103.524 109.612L105.132 110.014C105.498 110.112 105.802 110.24 106.044 110.4C106.286 110.56 106.477 110.738 106.616 110.933C106.755 111.129 106.853 111.335 106.91 111.552C106.971 111.763 107.002 111.967 107.002 112.162C107.002 112.652 106.881 113.075 106.639 113.43C106.397 113.781 106.046 114.054 105.588 114.249C105.129 114.44 104.575 114.535 103.926 114.535Z" fill="#444444"/>
<rect opacity="0.7" x="133.609" y="90.5469" width="44.169" height="35.3352" rx="17.6676" fill="white"/>
<path d="M148.463 106.884C149.071 106.884 149.606 106.994 150.068 107.214C150.534 107.43 150.896 107.749 151.155 108.172C151.414 108.59 151.543 109.103 151.543 109.712C151.543 110.376 151.403 110.95 151.122 111.433C150.842 111.911 150.43 112.28 149.887 112.539C149.343 112.798 148.681 112.927 147.9 112.927C147.404 112.927 146.941 112.884 146.509 112.798C146.082 112.712 145.713 112.582 145.403 112.41V111.038C145.726 111.219 146.115 111.368 146.567 111.484C147.02 111.597 147.454 111.653 147.868 111.653C148.308 111.653 148.685 111.588 149 111.459C149.315 111.329 149.557 111.131 149.725 110.863C149.897 110.596 149.984 110.257 149.984 109.847C149.984 109.304 149.809 108.886 149.46 108.592C149.115 108.295 148.573 108.146 147.836 108.146C147.577 108.146 147.301 108.17 147.007 108.217C146.718 108.26 146.477 108.308 146.283 108.359L145.616 107.965L145.972 103.339H150.889V104.678H147.312L147.105 107.033C147.26 106.999 147.445 106.966 147.661 106.936C147.877 106.901 148.144 106.884 148.463 106.884ZM159.236 108.062C159.236 108.825 159.175 109.509 159.055 110.113C158.938 110.712 158.753 111.221 158.498 111.64C158.244 112.058 157.912 112.377 157.502 112.597C157.092 112.817 156.596 112.927 156.014 112.927C155.285 112.927 154.683 112.735 154.209 112.351C153.734 111.963 153.383 111.407 153.154 110.682C152.925 109.953 152.811 109.08 152.811 108.062C152.811 107.044 152.915 106.172 153.122 105.448C153.333 104.719 153.674 104.16 154.144 103.772C154.614 103.384 155.237 103.19 156.014 103.19C156.747 103.19 157.351 103.384 157.825 103.772C158.304 104.156 158.658 104.712 158.886 105.441C159.119 106.166 159.236 107.039 159.236 108.062ZM154.345 108.062C154.345 108.86 154.396 109.526 154.5 110.061C154.608 110.596 154.784 110.997 155.03 111.264C155.276 111.528 155.604 111.659 156.014 111.659C156.424 111.659 156.751 111.528 156.997 111.264C157.243 111.001 157.42 110.602 157.528 110.067C157.64 109.533 157.696 108.864 157.696 108.062C157.696 107.268 157.642 106.604 157.534 106.069C157.426 105.534 157.25 105.133 157.004 104.866C156.758 104.594 156.428 104.458 156.014 104.458C155.6 104.458 155.27 104.594 155.024 104.866C154.782 105.133 154.608 105.534 154.5 106.069C154.396 106.604 154.345 107.268 154.345 108.062ZM163.629 106.884C164.237 106.884 164.772 106.994 165.234 107.214C165.699 107.43 166.062 107.749 166.321 108.172C166.579 108.59 166.709 109.103 166.709 109.712C166.709 110.376 166.569 110.95 166.288 111.433C166.008 111.911 165.596 112.28 165.052 112.539C164.509 112.798 163.847 112.927 163.066 112.927C162.57 112.927 162.106 112.884 161.675 112.798C161.248 112.712 160.879 112.582 160.569 112.41V111.038C160.892 111.219 161.28 111.368 161.733 111.484C162.186 111.597 162.62 111.653 163.034 111.653C163.474 111.653 163.851 111.588 164.166 111.459C164.481 111.329 164.723 111.131 164.891 110.863C165.063 110.596 165.15 110.257 165.15 109.847C165.15 109.304 164.975 108.886 164.625 108.592C164.28 108.295 163.739 108.146 163.001 108.146C162.743 108.146 162.467 108.17 162.173 108.217C161.884 108.26 161.643 108.308 161.449 108.359L160.782 107.965L161.138 103.339H166.055V104.678H162.477L162.27 107.033C162.426 106.999 162.611 106.966 162.827 106.936C163.042 106.901 163.31 106.884 163.629 106.884Z" fill="#212121"/>
<rect x="22.6361" y="159.561" width="167.842" height="60.7324" rx="30.3662" stroke="#DFDFDF" stroke-width="1.10423" stroke-dasharray="2.21 2.21"/>
<rect x="32.0215" y="167.843" width="150.175" height="44.169" rx="22.0845" fill="url(#paint1_radial_6620_35022)"/>
<path d="M59.0112 197.964C58.6453 197.964 58.2588 197.918 57.8517 197.825C57.4447 197.738 57.0453 197.56 56.6537 197.292C56.2672 197.029 55.9116 196.635 55.587 196.109C55.3293 196.156 55.0974 196.189 54.8913 196.21C54.6852 196.235 54.4765 196.248 54.2652 196.248C53.281 196.248 52.4256 196.029 51.699 195.591C50.9724 195.148 50.4107 194.501 50.014 193.651C49.6172 192.801 49.4188 191.76 49.4188 190.528C49.4188 189.302 49.6146 188.259 50.0062 187.398C50.403 186.537 50.9647 185.883 51.6913 185.435C52.4179 184.986 53.2758 184.762 54.2652 184.762C55.2598 184.762 56.1177 184.986 56.8392 185.435C57.5658 185.883 58.1223 186.537 58.5088 187.398C58.9004 188.259 59.0962 189.302 59.0962 190.528C59.0962 191.683 58.9236 192.675 58.5783 193.504C58.2382 194.329 57.6843 194.988 56.9165 195.483C57.1071 195.906 57.388 196.217 57.759 196.418C58.1352 196.625 58.5526 196.735 59.0112 196.751V197.964ZM54.2652 195.004C55.3061 195.004 56.11 194.646 56.6769 193.929C57.2488 193.213 57.5348 192.082 57.5348 190.536C57.5348 189.006 57.2514 187.869 56.6846 187.127C56.1229 186.38 55.3164 186.007 54.2652 186.007C53.2192 186.007 52.4127 186.38 51.8459 187.127C51.2842 187.875 51.0033 189.019 51.0033 190.559C51.0033 192.095 51.2868 193.221 51.8536 193.937C52.4256 194.648 53.2295 195.004 54.2652 195.004ZM69.156 196.248C68.6098 196.248 68.0919 196.184 67.6024 196.055C67.1128 195.921 66.6671 195.723 66.2652 195.46C65.8684 195.197 65.5386 194.872 65.2758 194.486C65.0181 194.094 64.8558 193.641 64.7888 193.126H66.2883C66.3811 193.548 66.564 193.904 66.8371 194.192C67.1154 194.481 67.4581 194.697 67.8652 194.842C68.2774 194.986 68.7283 195.058 69.2179 195.058C69.6919 195.058 70.1274 194.983 70.5242 194.834C70.9261 194.684 71.2482 194.468 71.4903 194.185C71.7325 193.896 71.8536 193.551 71.8536 193.149C71.8536 192.706 71.7094 192.35 71.4208 192.082C71.1322 191.809 70.6865 191.59 70.0836 191.425L67.7801 190.83C67.2597 190.701 66.7985 190.521 66.3966 190.289C65.9998 190.052 65.688 189.743 65.4613 189.361C65.2345 188.975 65.1212 188.496 65.1212 187.924C65.1212 187.29 65.2964 186.738 65.6468 186.269C65.9972 185.795 66.4713 185.43 67.069 185.172C67.6719 184.909 68.3521 184.778 69.1096 184.778C69.9857 184.778 70.7225 184.93 71.3203 185.234C71.9232 185.538 72.3792 185.937 72.6884 186.432C72.9976 186.926 73.1522 187.455 73.1522 188.016H71.6836C71.6372 187.506 71.4878 187.104 71.2353 186.811C70.9828 186.512 70.6684 186.298 70.2923 186.169C69.9161 186.035 69.5064 185.968 69.0633 185.968C68.2645 185.968 67.6591 186.151 67.2468 186.517C66.8397 186.878 66.6362 187.308 66.6362 187.808C66.6362 188.266 66.783 188.627 67.0768 188.89C67.3705 189.153 67.8033 189.356 68.3753 189.5L70.6169 190.08C71.2816 190.235 71.8098 190.459 72.2015 190.753C72.5983 191.046 72.8817 191.389 73.0517 191.781C73.2269 192.167 73.3145 192.587 73.3145 193.041C73.3145 193.659 73.1419 194.21 72.7966 194.695C72.4514 195.179 71.967 195.56 71.3435 195.839C70.7251 196.112 69.996 196.248 69.156 196.248ZM78.809 196.248C78.067 196.248 77.4126 196.086 76.8457 195.761C76.2789 195.437 75.8357 194.97 75.5162 194.362C75.1968 193.754 75.037 193.025 75.037 192.175C75.037 191.335 75.1813 190.598 75.4699 189.964C75.7584 189.33 76.1758 188.836 76.7221 188.48C77.2734 188.125 77.9356 187.947 78.7086 187.947C79.4609 187.947 80.0973 188.109 80.6178 188.434C81.1382 188.758 81.5324 189.217 81.8004 189.81C82.0735 190.397 82.2101 191.095 82.2101 191.904V192.43H76.4824C76.4824 192.935 76.5649 193.394 76.7298 193.806C76.8998 194.213 77.1549 194.538 77.495 194.78C77.8351 195.022 78.2654 195.143 78.7859 195.143C79.296 195.143 79.734 195.024 80.0999 194.787C80.4709 194.55 80.7079 194.208 80.811 193.759H82.156C82.0632 194.3 81.8468 194.757 81.5067 195.128C81.1717 195.499 80.7672 195.779 80.2931 195.97C79.8242 196.156 79.3295 196.248 78.809 196.248ZM76.4902 191.464H80.8342C80.8342 191.005 80.7569 190.593 80.6023 190.227C80.4477 189.856 80.2107 189.565 79.8912 189.354C79.5769 189.137 79.1801 189.029 78.7008 189.029C78.201 189.029 77.7862 189.15 77.4564 189.392C77.1266 189.629 76.8818 189.936 76.7221 190.312C76.5623 190.683 76.485 191.067 76.4902 191.464ZM84.1874 196.094V188.101H85.5478V189.64C85.6818 189.258 85.8699 188.944 86.1121 188.697C86.3542 188.444 86.6299 188.256 86.9391 188.132C87.2535 188.009 87.5781 187.947 87.913 187.947C88.0316 187.947 88.1475 187.955 88.2609 187.97C88.3742 187.985 88.4618 188.011 88.5237 188.047V189.431C88.4464 189.395 88.3459 189.372 88.2222 189.361C88.1037 189.346 88.0032 189.338 87.9208 189.338C87.6013 189.317 87.3024 189.338 87.0241 189.4C86.7459 189.457 86.5011 189.557 86.2898 189.701C86.0786 189.846 85.9111 190.036 85.7874 190.273C85.6689 190.505 85.6096 190.789 85.6096 191.124V196.094H84.1874ZM90.2648 196.094V188.101H91.6484V196.094H90.2648ZM90.2261 186.409V184.925H91.687V186.409H90.2261ZM97.4234 196.248C96.6814 196.248 96.027 196.086 95.4601 195.761C94.8933 195.437 94.4501 194.97 94.1306 194.362C93.8112 193.754 93.6514 193.025 93.6514 192.175C93.6514 191.335 93.7957 190.598 94.0843 189.964C94.3728 189.33 94.7902 188.836 95.3365 188.48C95.8878 188.125 96.55 187.947 97.323 187.947C98.0753 187.947 98.7117 188.109 99.2322 188.434C99.7526 188.758 100.147 189.217 100.415 189.81C100.688 190.397 100.824 191.095 100.824 191.904V192.43H95.0968C95.0968 192.935 95.1793 193.394 95.3442 193.806C95.5142 194.213 95.7693 194.538 96.1094 194.78C96.4495 195.022 96.8798 195.143 97.4003 195.143C97.9104 195.143 98.3484 195.024 98.7143 194.787C99.0853 194.55 99.3223 194.208 99.4254 193.759H100.77C100.678 194.3 100.461 194.757 100.121 195.128C99.7861 195.499 99.3816 195.779 98.9075 195.97C98.4386 196.156 97.9439 196.248 97.4234 196.248ZM95.1046 191.464H99.4486C99.4486 191.005 99.3713 190.593 99.2167 190.227C99.0621 189.856 98.8251 189.565 98.5056 189.354C98.1912 189.137 97.7945 189.029 97.3152 189.029C96.8154 189.029 96.4006 189.15 96.0708 189.392C95.741 189.629 95.4962 189.936 95.3365 190.312C95.1767 190.683 95.0994 191.067 95.1046 191.464ZM105.632 196.248C105.075 196.248 104.557 196.163 104.078 195.993C103.604 195.818 103.21 195.548 102.896 195.182C102.581 194.811 102.385 194.339 102.308 193.767H103.607C103.674 194.081 103.803 194.344 103.993 194.556C104.184 194.762 104.418 194.919 104.697 195.027C104.98 195.13 105.289 195.182 105.624 195.182C106.165 195.182 106.601 195.081 106.93 194.88C107.26 194.679 107.425 194.37 107.425 193.953C107.425 193.659 107.338 193.424 107.162 193.249C106.992 193.069 106.724 192.938 106.358 192.855L104.704 192.445C104.06 192.291 103.545 192.049 103.158 191.719C102.777 191.389 102.584 190.928 102.579 190.335C102.579 189.866 102.692 189.454 102.919 189.098C103.146 188.743 103.483 188.462 103.931 188.256C104.385 188.05 104.949 187.947 105.624 187.947C106.495 187.947 107.196 188.143 107.727 188.534C108.257 188.921 108.536 189.49 108.561 190.242H107.294C107.242 189.861 107.072 189.56 106.784 189.338C106.495 189.111 106.103 188.998 105.609 188.998C105.104 188.998 104.689 189.101 104.364 189.307C104.045 189.508 103.885 189.822 103.885 190.25C103.885 190.534 103.998 190.758 104.225 190.923C104.457 191.082 104.792 191.216 105.23 191.325L106.838 191.727C107.204 191.824 107.508 191.953 107.75 192.113C107.992 192.273 108.183 192.451 108.322 192.646C108.461 192.842 108.559 193.048 108.616 193.265C108.677 193.476 108.708 193.68 108.708 193.875C108.708 194.365 108.587 194.787 108.345 195.143C108.103 195.493 107.752 195.767 107.294 195.962C106.835 196.153 106.281 196.248 105.632 196.248Z" fill="#444444"/>
<rect opacity="0.7" x="133.609" y="172.26" width="44.169" height="35.3352" rx="17.6676" fill="white"/>
<path d="M151.291 187.213C151.291 187.64 151.204 188.01 151.032 188.325C150.859 188.64 150.622 188.899 150.32 189.102C150.023 189.3 149.677 189.443 149.285 189.529V189.574C150.04 189.669 150.609 189.906 150.993 190.286C151.381 190.665 151.575 191.168 151.575 191.793C151.575 192.341 151.444 192.831 151.181 193.262C150.918 193.689 150.514 194.025 149.971 194.271C149.427 194.517 148.728 194.64 147.874 194.64C147.361 194.64 146.885 194.599 146.445 194.517C146.009 194.435 145.595 194.304 145.202 194.123V192.77C145.603 192.969 146.03 193.122 146.483 193.23C146.936 193.338 147.365 193.391 147.771 193.391C148.56 193.391 149.123 193.245 149.46 192.951C149.796 192.654 149.964 192.244 149.964 191.722C149.964 191.386 149.876 191.11 149.699 190.894C149.526 190.678 149.257 190.517 148.89 190.409C148.528 190.301 148.06 190.247 147.486 190.247H146.652V189.024H147.493C148.041 189.024 148.48 188.959 148.813 188.83C149.145 188.696 149.384 188.513 149.531 188.28C149.682 188.047 149.757 187.775 149.757 187.465C149.757 187.059 149.626 186.745 149.363 186.52C149.099 186.292 148.709 186.177 148.191 186.177C147.872 186.177 147.581 186.214 147.318 186.287C147.059 186.361 146.82 186.453 146.6 186.565C146.38 186.678 146.171 186.798 145.972 186.928L145.241 185.873C145.599 185.606 146.026 185.379 146.522 185.194C147.018 185.008 147.596 184.916 148.256 184.916C149.227 184.916 149.975 185.125 150.501 185.543C151.028 185.957 151.291 186.514 151.291 187.213ZM159.236 189.775C159.236 190.538 159.175 191.222 159.055 191.826C158.938 192.425 158.753 192.934 158.498 193.353C158.244 193.771 157.912 194.09 157.502 194.31C157.092 194.53 156.596 194.64 156.014 194.64C155.285 194.64 154.683 194.448 154.209 194.064C153.734 193.676 153.383 193.12 153.154 192.395C152.925 191.666 152.811 190.793 152.811 189.775C152.811 188.757 152.915 187.885 153.122 187.161C153.333 186.432 153.674 185.873 154.144 185.485C154.614 185.097 155.237 184.903 156.014 184.903C156.747 184.903 157.351 185.097 157.825 185.485C158.304 185.869 158.658 186.425 158.886 187.154C159.119 187.879 159.236 188.752 159.236 189.775ZM154.345 189.775C154.345 190.573 154.396 191.239 154.5 191.774C154.608 192.309 154.784 192.71 155.03 192.977C155.276 193.24 155.604 193.372 156.014 193.372C156.424 193.372 156.751 193.24 156.997 192.977C157.243 192.714 157.42 192.315 157.528 191.78C157.64 191.246 157.696 190.577 157.696 189.775C157.696 188.981 157.642 188.317 157.534 187.782C157.426 187.247 157.25 186.846 157.004 186.578C156.758 186.307 156.428 186.171 156.014 186.171C155.6 186.171 155.27 186.307 155.024 186.578C154.782 186.846 154.608 187.247 154.5 187.782C154.396 188.317 154.345 188.981 154.345 189.775ZM166.819 189.775C166.819 190.538 166.758 191.222 166.638 191.826C166.521 192.425 166.336 192.934 166.081 193.353C165.827 193.771 165.495 194.09 165.085 194.31C164.675 194.53 164.179 194.64 163.597 194.64C162.868 194.64 162.266 194.448 161.792 194.064C161.317 193.676 160.966 193.12 160.737 192.395C160.508 191.666 160.394 190.793 160.394 189.775C160.394 188.757 160.498 187.885 160.705 187.161C160.916 186.432 161.257 185.873 161.727 185.485C162.197 185.097 162.82 184.903 163.597 184.903C164.33 184.903 164.934 185.097 165.408 185.485C165.887 185.869 166.241 186.425 166.469 187.154C166.702 187.879 166.819 188.752 166.819 189.775ZM161.927 189.775C161.927 190.573 161.979 191.239 162.083 191.774C162.191 192.309 162.367 192.71 162.613 192.977C162.859 193.24 163.187 193.372 163.597 193.372C164.006 193.372 164.334 193.24 164.58 192.977C164.826 192.714 165.003 192.315 165.111 191.78C165.223 191.246 165.279 190.577 165.279 189.775C165.279 188.981 165.225 188.317 165.117 187.782C165.009 187.247 164.832 186.846 164.587 186.578C164.341 186.307 164.011 186.171 163.597 186.171C163.183 186.171 162.853 186.307 162.607 186.578C162.365 186.846 162.191 187.247 162.083 187.782C161.979 188.317 161.927 188.981 161.927 189.775Z" fill="#212121"/>
<rect x="22.6361" y="241.274" width="167.842" height="60.7324" rx="30.3662" stroke="#DFDFDF" stroke-width="1.10423" stroke-dasharray="2.21 2.21"/>
<rect x="32.0215" y="249.556" width="150.175" height="44.169" rx="22.0845" fill="url(#paint2_radial_6620_35022)"/>
<path d="M49.2255 277.807L53.2681 266.63H54.8836L58.9262 277.807H57.4653L56.3677 274.746H51.784L50.6787 277.807H49.2255ZM52.1628 273.432H55.9735L54.072 268.029L52.1628 273.432ZM61.0357 277.807V266.63H62.4657V277.807H61.0357ZM69.1729 277.807V266.63H72.7672C74.1276 266.63 75.1556 266.88 75.8513 267.379C76.5521 267.879 76.9025 268.601 76.9025 269.544C76.9025 270.136 76.7479 270.644 76.4387 271.066C76.1347 271.489 75.5988 271.837 74.831 272.11C75.269 272.203 75.6374 272.337 75.9363 272.512C76.2403 272.687 76.4825 272.893 76.6629 273.13C76.8484 273.362 76.9798 273.62 77.0571 273.903C77.1395 274.187 77.1808 274.485 77.1808 274.8C77.1808 275.81 76.8201 276.565 76.0986 277.065C75.3824 277.559 74.3105 277.807 72.8831 277.807H69.1729ZM70.6029 276.616H72.8677C73.8004 276.616 74.5089 276.464 74.9933 276.16C75.4828 275.851 75.7276 275.377 75.7276 274.738C75.7276 274.269 75.6065 273.89 75.3643 273.602C75.1273 273.308 74.8052 273.094 74.3981 272.96C73.991 272.826 73.5376 272.759 73.0377 272.759H70.6029V276.616ZM70.6029 271.546H73.0377C73.3314 271.546 73.6226 271.517 73.9112 271.461C74.1997 271.404 74.4651 271.306 74.7073 271.167C74.9495 271.028 75.1453 270.842 75.2947 270.61C75.4442 270.373 75.5189 270.077 75.5189 269.722C75.5189 269.072 75.269 268.593 74.7691 268.284C74.2744 267.969 73.6303 267.812 72.8367 267.812H70.6029V271.546ZM82.5112 277.961C81.7743 277.961 81.1301 277.804 80.5788 277.49C80.0325 277.17 79.6074 276.704 79.3034 276.091C78.9994 275.477 78.8473 274.728 78.8473 273.841C78.8473 273.007 78.989 272.275 79.2725 271.646C79.5559 271.017 79.9707 270.531 80.5169 270.185C81.0631 269.835 81.7305 269.66 82.5189 269.66C83.2558 269.66 83.8948 269.822 84.4358 270.147C84.9769 270.466 85.3969 270.938 85.6957 271.561C85.9998 272.185 86.1518 272.945 86.1518 273.841C86.1518 274.656 86.0127 275.372 85.7344 275.99C85.4561 276.609 85.0465 277.093 84.5054 277.443C83.9695 277.789 83.3047 277.961 82.5112 277.961ZM82.5189 276.833C82.993 276.833 83.3949 276.712 83.7247 276.469C84.0545 276.227 84.3044 275.879 84.4745 275.426C84.6497 274.972 84.7373 274.434 84.7373 273.81C84.7373 273.238 84.66 272.726 84.5054 272.272C84.3559 271.814 84.1189 271.45 83.7943 271.182C83.4696 270.914 83.0445 270.78 82.5189 270.78C82.0345 270.78 81.6248 270.902 81.2899 271.144C80.9549 271.381 80.6999 271.726 80.5247 272.18C80.3546 272.633 80.2696 273.177 80.2696 273.81C80.2696 274.372 80.3443 274.882 80.4937 275.341C80.6483 275.8 80.8905 276.163 81.2203 276.431C81.5553 276.699 81.9881 276.833 82.5189 276.833ZM86.813 277.807L89.8894 273.656L87.0604 269.814H88.614L90.6933 272.62L92.7725 269.814H94.3339L91.4894 273.656L94.5658 277.807H93.0122L90.6855 274.676L88.3744 277.807H86.813Z" fill="#444444"/>
<rect opacity="0.7" x="133.609" y="253.972" width="44.169" height="35.3352" rx="17.6676" fill="white"/>
<path d="M149.718 276.223H148.191V270.134C148.191 269.932 148.194 269.729 148.198 269.526C148.202 269.323 148.207 269.125 148.211 268.931C148.22 268.737 148.23 268.551 148.243 268.374C148.153 268.474 148.041 268.582 147.907 268.698C147.777 268.814 147.639 268.935 147.493 269.06L146.406 269.927L145.642 268.963L148.45 266.763H149.718V276.223ZM156.046 270.309C156.654 270.309 157.189 270.419 157.651 270.639C158.117 270.855 158.479 271.174 158.738 271.597C158.996 272.015 159.126 272.528 159.126 273.136C159.126 273.801 158.986 274.374 158.705 274.857C158.425 275.336 158.013 275.705 157.47 275.964C156.926 276.223 156.264 276.352 155.483 276.352C154.987 276.352 154.524 276.309 154.092 276.223C153.665 276.136 153.296 276.007 152.986 275.834V274.463C153.309 274.644 153.698 274.793 154.15 274.909C154.603 275.021 155.037 275.077 155.451 275.077C155.891 275.077 156.268 275.013 156.583 274.883C156.898 274.754 157.14 274.556 157.308 274.288C157.48 274.021 157.567 273.682 157.567 273.272C157.567 272.729 157.392 272.31 157.043 272.017C156.697 271.719 156.156 271.571 155.419 271.571C155.16 271.571 154.884 271.594 154.59 271.642C154.301 271.685 154.06 271.732 153.866 271.784L153.199 271.39L153.555 266.763H158.472V268.103H154.894L154.687 270.458C154.843 270.423 155.028 270.391 155.244 270.361C155.46 270.326 155.727 270.309 156.046 270.309ZM166.819 271.487C166.819 272.25 166.758 272.934 166.638 273.538C166.521 274.137 166.336 274.646 166.081 275.065C165.827 275.483 165.495 275.802 165.085 276.022C164.675 276.242 164.179 276.352 163.597 276.352C162.868 276.352 162.266 276.16 161.792 275.776C161.317 275.388 160.966 274.832 160.737 274.107C160.508 273.378 160.394 272.505 160.394 271.487C160.394 270.469 160.498 269.597 160.705 268.873C160.916 268.144 161.257 267.585 161.727 267.197C162.197 266.809 162.82 266.615 163.597 266.615C164.33 266.615 164.934 266.809 165.408 267.197C165.887 267.581 166.241 268.137 166.469 268.866C166.702 269.591 166.819 270.464 166.819 271.487ZM161.927 271.487C161.927 272.285 161.979 272.951 162.083 273.486C162.191 274.021 162.367 274.422 162.613 274.689C162.859 274.952 163.187 275.084 163.597 275.084C164.006 275.084 164.334 274.952 164.58 274.689C164.826 274.426 165.003 274.027 165.111 273.492C165.223 272.957 165.279 272.289 165.279 271.487C165.279 270.693 165.225 270.029 165.117 269.494C165.009 268.959 164.832 268.558 164.587 268.29C164.341 268.019 164.011 267.883 163.597 267.883C163.183 267.883 162.853 268.019 162.607 268.29C162.365 268.558 162.191 268.959 162.083 269.494C161.979 270.029 161.927 270.693 161.927 271.487Z" fill="#212121"/>
<rect x="216.98" y="77.848" width="167.842" height="60.7324" rx="30.3662" stroke="#DFDFDF" stroke-width="1.10423" stroke-dasharray="2.21 2.21"/>
<rect x="226.365" y="86.1299" width="150.175" height="44.169" rx="22.0845" fill="url(#paint3_radial_6620_35022)"/>
<path d="M243.569 114.381L247.357 108.676L243.701 103.204H245.463L248.246 107.463L251.005 103.204H252.582L249.011 108.53L252.93 114.381H251.16L248.13 109.774L245.146 114.381H243.569ZM262.594 114.535C262.048 114.535 261.53 114.471 261.04 114.342C260.551 114.208 260.105 114.01 259.703 113.747C259.306 113.484 258.977 113.16 258.714 112.773C258.456 112.381 258.294 111.928 258.227 111.413H259.726C259.819 111.835 260.002 112.191 260.275 112.479C260.553 112.768 260.896 112.984 261.303 113.129C261.715 113.273 262.166 113.345 262.656 113.345C263.13 113.345 263.565 113.27 263.962 113.121C264.364 112.971 264.686 112.755 264.928 112.472C265.17 112.183 265.292 111.838 265.292 111.436C265.292 110.993 265.147 110.637 264.859 110.369C264.57 110.096 264.124 109.877 263.522 109.712L261.218 109.117C260.698 108.988 260.236 108.808 259.834 108.576C259.438 108.339 259.126 108.03 258.899 107.648C258.672 107.262 258.559 106.783 258.559 106.211C258.559 105.577 258.734 105.025 259.085 104.557C259.435 104.082 259.909 103.717 260.507 103.459C261.11 103.196 261.79 103.065 262.548 103.065C263.424 103.065 264.16 103.217 264.758 103.521C265.361 103.825 265.817 104.224 266.126 104.719C266.436 105.214 266.59 105.742 266.59 106.303H265.122C265.075 105.793 264.926 105.391 264.673 105.098C264.421 104.799 264.106 104.585 263.73 104.456C263.354 104.322 262.944 104.255 262.501 104.255C261.702 104.255 261.097 104.438 260.685 104.804C260.278 105.165 260.074 105.595 260.074 106.095C260.074 106.553 260.221 106.914 260.515 107.177C260.808 107.44 261.241 107.643 261.813 107.788L264.055 108.367C264.72 108.522 265.248 108.746 265.639 109.04C266.036 109.333 266.32 109.676 266.49 110.068C266.665 110.454 266.752 110.874 266.752 111.328C266.752 111.946 266.58 112.497 266.235 112.982C265.889 113.466 265.405 113.848 264.781 114.126C264.163 114.399 263.434 114.535 262.594 114.535ZM272.247 114.535C271.505 114.535 270.851 114.373 270.284 114.048C269.717 113.724 269.274 113.257 268.954 112.649C268.635 112.041 268.475 111.312 268.475 110.462C268.475 109.622 268.619 108.885 268.908 108.251C269.196 107.617 269.614 107.123 270.16 106.767C270.711 106.412 271.374 106.234 272.147 106.234C272.899 106.234 273.535 106.396 274.056 106.721C274.576 107.045 274.97 107.504 275.238 108.097C275.511 108.684 275.648 109.382 275.648 110.191V110.717H269.92C269.92 111.222 270.003 111.681 270.168 112.093C270.338 112.5 270.593 112.825 270.933 113.067C271.273 113.309 271.703 113.43 272.224 113.43C272.734 113.43 273.172 113.312 273.538 113.075C273.909 112.838 274.146 112.495 274.249 112.047H275.594C275.501 112.588 275.285 113.044 274.945 113.415C274.61 113.786 274.205 114.067 273.731 114.257C273.262 114.443 272.767 114.535 272.247 114.535ZM269.928 109.751H274.272C274.272 109.292 274.195 108.88 274.04 108.514C273.886 108.143 273.649 107.852 273.329 107.641C273.015 107.424 272.618 107.316 272.139 107.316C271.639 107.316 271.224 107.437 270.894 107.679C270.565 107.916 270.32 108.223 270.16 108.599C270 108.97 269.923 109.354 269.928 109.751ZM277.625 114.381V106.388H278.986V107.927C279.12 107.545 279.308 107.231 279.55 106.984C279.792 106.731 280.068 106.543 280.377 106.419C280.691 106.296 281.016 106.234 281.351 106.234C281.47 106.234 281.585 106.242 281.699 106.257C281.812 106.273 281.9 106.298 281.962 106.334V107.718C281.884 107.682 281.784 107.659 281.66 107.648C281.542 107.633 281.441 107.625 281.359 107.625C281.039 107.605 280.74 107.625 280.462 107.687C280.184 107.744 279.939 107.844 279.728 107.988C279.516 108.133 279.349 108.323 279.225 108.56C279.107 108.792 279.048 109.076 279.048 109.411V114.381H277.625ZM283.703 114.381V106.388H285.086V114.381H283.703ZM283.664 104.696V103.212H285.125V104.696H283.664ZM290.861 114.535C290.119 114.535 289.465 114.373 288.898 114.048C288.331 113.724 287.888 113.257 287.569 112.649C287.249 112.041 287.089 111.312 287.089 110.462C287.089 109.622 287.234 108.885 287.522 108.251C287.811 107.617 288.228 107.123 288.774 106.767C289.326 106.412 289.988 106.234 290.761 106.234C291.513 106.234 292.15 106.396 292.67 106.721C293.191 107.045 293.585 107.504 293.853 108.097C294.126 108.684 294.262 109.382 294.262 110.191V110.717H288.535C288.535 111.222 288.617 111.681 288.782 112.093C288.952 112.5 289.207 112.825 289.547 113.067C289.887 113.309 290.318 113.43 290.838 113.43C291.348 113.43 291.786 113.312 292.152 113.075C292.523 112.838 292.76 112.495 292.863 112.047H294.208C294.116 112.588 293.899 113.044 293.559 113.415C293.224 113.786 292.82 114.067 292.345 114.257C291.877 114.443 291.382 114.535 290.861 114.535ZM288.543 109.751H292.887C292.887 109.292 292.809 108.88 292.655 108.514C292.5 108.143 292.263 107.852 291.944 107.641C291.629 107.424 291.232 107.316 290.753 107.316C290.253 107.316 289.839 107.437 289.509 107.679C289.179 107.916 288.934 108.223 288.774 108.599C288.615 108.97 288.537 109.354 288.543 109.751ZM299.07 114.535C298.513 114.535 297.995 114.45 297.516 114.28C297.042 114.105 296.648 113.835 296.334 113.469C296.019 113.098 295.823 112.626 295.746 112.054H297.045C297.112 112.369 297.241 112.631 297.431 112.843C297.622 113.049 297.856 113.206 298.135 113.314C298.418 113.417 298.727 113.469 299.062 113.469C299.603 113.469 300.039 113.368 300.368 113.167C300.698 112.966 300.863 112.657 300.863 112.24C300.863 111.946 300.775 111.712 300.6 111.536C300.43 111.356 300.162 111.225 299.796 111.142L298.142 110.732C297.498 110.578 296.983 110.336 296.596 110.006C296.215 109.676 296.022 109.215 296.017 108.622C296.017 108.153 296.13 107.741 296.357 107.386C296.583 107.03 296.921 106.749 297.369 106.543C297.823 106.337 298.387 106.234 299.062 106.234C299.933 106.234 300.634 106.43 301.165 106.821C301.695 107.208 301.974 107.777 301.999 108.53H300.732C300.68 108.148 300.51 107.847 300.222 107.625C299.933 107.398 299.541 107.285 299.047 107.285C298.542 107.285 298.127 107.388 297.802 107.594C297.483 107.795 297.323 108.11 297.323 108.537C297.323 108.821 297.436 109.045 297.663 109.21C297.895 109.37 298.23 109.503 298.668 109.612L300.276 110.014C300.642 110.112 300.946 110.24 301.188 110.4C301.43 110.56 301.621 110.738 301.76 110.933C301.899 111.129 301.997 111.335 302.053 111.552C302.115 111.763 302.146 111.967 302.146 112.162C302.146 112.652 302.025 113.075 301.783 113.43C301.541 113.781 301.19 114.054 300.732 114.249C300.273 114.44 299.719 114.535 299.07 114.535Z" fill="#444444"/>
<rect opacity="0.7" x="327.953" y="90.5469" width="44.169" height="35.3352" rx="17.6676" fill="white"/>
<path d="M342.807 106.884C343.415 106.884 343.95 106.994 344.412 107.214C344.877 107.43 345.24 107.749 345.499 108.172C345.757 108.59 345.887 109.103 345.887 109.712C345.887 110.376 345.747 110.95 345.466 111.433C345.186 111.911 344.774 112.28 344.23 112.539C343.687 112.798 343.025 112.927 342.244 112.927C341.748 112.927 341.284 112.884 340.853 112.798C340.426 112.712 340.057 112.582 339.747 112.41V111.038C340.07 111.219 340.458 111.368 340.911 111.484C341.364 111.597 341.798 111.653 342.212 111.653C342.652 111.653 343.029 111.588 343.344 111.459C343.659 111.329 343.9 111.131 344.069 110.863C344.241 110.596 344.327 110.257 344.327 109.847C344.327 109.304 344.153 108.886 343.803 108.592C343.458 108.295 342.917 108.146 342.179 108.146C341.921 108.146 341.645 108.17 341.351 108.217C341.062 108.26 340.821 108.308 340.627 108.359L339.96 107.965L340.316 103.339H345.233V104.678H341.655L341.448 107.033C341.604 106.999 341.789 106.966 342.005 106.936C342.22 106.901 342.488 106.884 342.807 106.884ZM353.58 108.062C353.58 108.825 353.519 109.509 353.398 110.113C353.282 110.712 353.097 111.221 352.842 111.64C352.588 112.058 352.255 112.377 351.846 112.597C351.436 112.817 350.94 112.927 350.358 112.927C349.629 112.927 349.027 112.735 348.552 112.351C348.078 111.963 347.726 111.407 347.498 110.682C347.269 109.953 347.155 109.08 347.155 108.062C347.155 107.044 347.258 106.172 347.465 105.448C347.677 104.719 348.018 104.16 348.488 103.772C348.958 103.384 349.581 103.19 350.358 103.19C351.091 103.19 351.695 103.384 352.169 103.772C352.648 104.156 353.002 104.712 353.23 105.441C353.463 106.166 353.58 107.039 353.58 108.062ZM348.688 108.062C348.688 108.86 348.74 109.526 348.844 110.061C348.951 110.596 349.128 110.997 349.374 111.264C349.62 111.528 349.948 111.659 350.358 111.659C350.767 111.659 351.095 111.528 351.341 111.264C351.587 111.001 351.764 110.602 351.872 110.067C351.984 109.533 352.04 108.864 352.04 108.062C352.04 107.268 351.986 106.604 351.878 106.069C351.77 105.534 351.593 105.133 351.347 104.866C351.102 104.594 350.772 104.458 350.358 104.458C349.943 104.458 349.613 104.594 349.368 104.866C349.126 105.133 348.951 105.534 348.844 106.069C348.74 106.604 348.688 107.268 348.688 108.062ZM361.163 108.062C361.163 108.825 361.102 109.509 360.981 110.113C360.865 110.712 360.679 111.221 360.425 111.64C360.17 112.058 359.838 112.377 359.429 112.597C359.019 112.817 358.523 112.927 357.94 112.927C357.211 112.927 356.61 112.735 356.135 112.351C355.661 111.963 355.309 111.407 355.081 110.682C354.852 109.953 354.738 109.08 354.738 108.062C354.738 107.044 354.841 106.172 355.048 105.448C355.26 104.719 355.6 104.16 356.071 103.772C356.541 103.384 357.164 103.19 357.94 103.19C358.674 103.19 359.278 103.384 359.752 103.772C360.231 104.156 360.585 104.712 360.813 105.441C361.046 106.166 361.163 107.039 361.163 108.062ZM356.271 108.062C356.271 108.86 356.323 109.526 356.426 110.061C356.534 110.596 356.711 110.997 356.957 111.264C357.203 111.528 357.531 111.659 357.94 111.659C358.35 111.659 358.678 111.528 358.924 111.264C359.17 111.001 359.347 110.602 359.454 110.067C359.567 109.533 359.623 108.864 359.623 108.062C359.623 107.268 359.569 106.604 359.461 106.069C359.353 105.534 359.176 105.133 358.93 104.866C358.685 104.594 358.355 104.458 357.94 104.458C357.526 104.458 357.196 104.594 356.951 104.866C356.709 105.133 356.534 105.534 356.426 106.069C356.323 106.604 356.271 107.268 356.271 108.062Z" fill="#212121"/>
<rect x="216.98" y="159.561" width="167.842" height="60.7324" rx="30.3662" stroke="#DFDFDF" stroke-width="1.10423" stroke-dasharray="2.21 2.21"/>
<rect x="226.365" y="167.843" width="150.175" height="44.169" rx="22.0845" fill="url(#paint4_radial_6620_35022)"/>
<path d="M246.893 196.094V186.231H243.283V184.917H251.739V186.231H248.331V196.094H246.893ZM261.13 196.248C260.583 196.248 260.065 196.184 259.576 196.055C259.086 195.921 258.641 195.723 258.239 195.46C257.842 195.197 257.512 194.872 257.249 194.486C256.992 194.094 256.829 193.641 256.762 193.126H258.262C258.355 193.548 258.538 193.904 258.811 194.192C259.089 194.481 259.432 194.697 259.839 194.842C260.251 194.986 260.702 195.058 261.191 195.058C261.665 195.058 262.101 194.983 262.498 194.834C262.9 194.684 263.222 194.468 263.464 194.185C263.706 193.896 263.827 193.551 263.827 193.149C263.827 192.706 263.683 192.35 263.394 192.082C263.106 191.809 262.66 191.59 262.057 191.425L259.754 190.83C259.233 190.701 258.772 190.521 258.37 190.289C257.973 190.052 257.662 189.743 257.435 189.361C257.208 188.975 257.095 188.496 257.095 187.924C257.095 187.29 257.27 186.738 257.62 186.269C257.971 185.795 258.445 185.43 259.043 185.172C259.645 184.909 260.326 184.778 261.083 184.778C261.959 184.778 262.696 184.93 263.294 185.234C263.897 185.538 264.353 185.937 264.662 186.432C264.971 186.926 265.126 187.455 265.126 188.016H263.657C263.611 187.506 263.461 187.104 263.209 186.811C262.956 186.512 262.642 186.298 262.266 186.169C261.89 186.035 261.48 185.968 261.037 185.968C260.238 185.968 259.633 186.151 259.22 186.517C258.813 186.878 258.61 187.308 258.61 187.808C258.61 188.266 258.757 188.627 259.05 188.89C259.344 189.153 259.777 189.356 260.349 189.5L262.59 190.08C263.255 190.235 263.783 190.459 264.175 190.753C264.572 191.046 264.855 191.389 265.025 191.781C265.2 192.167 265.288 192.587 265.288 193.041C265.288 193.659 265.115 194.21 264.77 194.695C264.425 195.179 263.941 195.56 263.317 195.839C262.699 196.112 261.97 196.248 261.13 196.248ZM270.783 196.248C270.041 196.248 269.386 196.086 268.819 195.761C268.252 195.437 267.809 194.97 267.49 194.362C267.17 193.754 267.011 193.025 267.011 192.175C267.011 191.335 267.155 190.598 267.443 189.964C267.732 189.33 268.149 188.836 268.696 188.48C269.247 188.125 269.909 187.947 270.682 187.947C271.434 187.947 272.071 188.109 272.591 188.434C273.112 188.758 273.506 189.217 273.774 189.81C274.047 190.397 274.184 191.095 274.184 191.904V192.43H268.456C268.456 192.935 268.538 193.394 268.703 193.806C268.873 194.213 269.128 194.538 269.469 194.78C269.809 195.022 270.239 195.143 270.759 195.143C271.27 195.143 271.708 195.024 272.073 194.787C272.444 194.55 272.681 194.208 272.785 193.759H274.13C274.037 194.3 273.82 194.757 273.48 195.128C273.145 195.499 272.741 195.779 272.267 195.97C271.798 196.156 271.303 196.248 270.783 196.248ZM268.464 191.464H272.808C272.808 191.005 272.73 190.593 272.576 190.227C272.421 189.856 272.184 189.565 271.865 189.354C271.55 189.137 271.154 189.029 270.674 189.029C270.175 189.029 269.76 189.15 269.43 189.392C269.1 189.629 268.855 189.936 268.696 190.312C268.536 190.683 268.459 191.067 268.464 191.464ZM276.161 196.094V188.101H277.521V189.64C277.655 189.258 277.843 188.944 278.086 188.697C278.328 188.444 278.603 188.256 278.913 188.132C279.227 188.009 279.552 187.947 279.887 187.947C280.005 187.947 280.121 187.955 280.234 187.97C280.348 187.985 280.435 188.011 280.497 188.047V189.431C280.42 189.395 280.319 189.372 280.196 189.361C280.077 189.346 279.977 189.338 279.894 189.338C279.575 189.317 279.276 189.338 278.998 189.4C278.719 189.457 278.475 189.557 278.263 189.701C278.052 189.846 277.885 190.036 277.761 190.273C277.642 190.505 277.583 190.789 277.583 191.124V196.094H276.161ZM282.238 196.094V188.101H283.622V196.094H282.238ZM282.2 186.409V184.925H283.661V186.409H282.2ZM289.397 196.248C288.655 196.248 288.001 196.086 287.434 195.761C286.867 195.437 286.424 194.97 286.104 194.362C285.785 193.754 285.625 193.025 285.625 192.175C285.625 191.335 285.769 190.598 286.058 189.964C286.346 189.33 286.764 188.836 287.31 188.48C287.861 188.125 288.524 187.947 289.297 187.947C290.049 187.947 290.685 188.109 291.206 188.434C291.726 188.758 292.12 189.217 292.388 189.81C292.661 190.397 292.798 191.095 292.798 191.904V192.43H287.07C287.07 192.935 287.153 193.394 287.318 193.806C287.488 194.213 287.743 194.538 288.083 194.78C288.423 195.022 288.853 195.143 289.374 195.143C289.884 195.143 290.322 195.024 290.688 194.787C291.059 194.55 291.296 194.208 291.399 193.759H292.744C292.651 194.3 292.435 194.757 292.095 195.128C291.76 195.499 291.355 195.779 290.881 195.97C290.412 196.156 289.917 196.248 289.397 196.248ZM287.078 191.464H291.422C291.422 191.005 291.345 190.593 291.19 190.227C291.036 189.856 290.799 189.565 290.479 189.354C290.165 189.137 289.768 189.029 289.289 189.029C288.789 189.029 288.374 189.15 288.044 189.392C287.715 189.629 287.47 189.936 287.31 190.312C287.15 190.683 287.073 191.067 287.078 191.464ZM297.605 196.248C297.049 196.248 296.531 196.163 296.052 195.993C295.578 195.818 295.184 195.548 294.869 195.182C294.555 194.811 294.359 194.339 294.282 193.767H295.58C295.647 194.081 295.776 194.344 295.967 194.556C296.157 194.762 296.392 194.919 296.67 195.027C296.954 195.13 297.263 195.182 297.598 195.182C298.139 195.182 298.574 195.081 298.904 194.88C299.234 194.679 299.399 194.37 299.399 193.953C299.399 193.659 299.311 193.424 299.136 193.249C298.966 193.069 298.698 192.938 298.332 192.855L296.678 192.445C296.034 192.291 295.518 192.049 295.132 191.719C294.751 191.389 294.557 190.928 294.552 190.335C294.552 189.866 294.666 189.454 294.892 189.098C295.119 188.743 295.457 188.462 295.905 188.256C296.358 188.05 296.923 187.947 297.598 187.947C298.469 187.947 299.169 188.143 299.7 188.534C300.231 188.921 300.509 189.49 300.535 190.242H299.267C299.216 189.861 299.046 189.56 298.757 189.338C298.469 189.111 298.077 188.998 297.582 188.998C297.077 188.998 296.662 189.101 296.338 189.307C296.018 189.508 295.859 189.822 295.859 190.25C295.859 190.534 295.972 190.758 296.199 190.923C296.431 191.082 296.765 191.216 297.204 191.325L298.811 191.727C299.177 191.824 299.481 191.953 299.723 192.113C299.966 192.273 300.156 192.451 300.295 192.646C300.434 192.842 300.532 193.048 300.589 193.265C300.651 193.476 300.682 193.68 300.682 193.875C300.682 194.365 300.561 194.787 300.319 195.143C300.076 195.493 299.726 195.767 299.267 195.962C298.809 196.153 298.255 196.248 297.605 196.248Z" fill="#444444"/>
<rect opacity="0.7" x="327.953" y="172.26" width="44.169" height="35.3352" rx="17.6676" fill="white"/>
<path d="M345.997 194.511H339.591V193.366L342.043 190.881C342.518 190.398 342.908 189.982 343.215 189.632C343.521 189.279 343.747 188.944 343.894 188.629C344.045 188.315 344.12 187.972 344.12 187.601C344.12 187.143 343.989 186.798 343.726 186.565C343.463 186.328 343.115 186.21 342.684 186.21C342.274 186.21 341.895 186.292 341.545 186.456C341.2 186.615 340.842 186.844 340.471 187.141L339.637 186.138C339.9 185.914 340.18 185.709 340.478 185.524C340.78 185.338 341.116 185.192 341.487 185.084C341.858 184.972 342.281 184.916 342.755 184.916C343.355 184.916 343.872 185.023 344.308 185.239C344.744 185.45 345.078 185.746 345.311 186.126C345.548 186.505 345.667 186.947 345.667 187.452C345.667 187.961 345.565 188.431 345.363 188.862C345.16 189.294 344.871 189.721 344.496 190.143C344.12 190.562 343.674 191.017 343.156 191.509L341.519 193.107V193.178H345.997V194.511ZM353.58 189.775C353.58 190.538 353.519 191.222 353.398 191.826C353.282 192.425 353.097 192.934 352.842 193.353C352.588 193.771 352.255 194.09 351.846 194.31C351.436 194.53 350.94 194.64 350.358 194.64C349.629 194.64 349.027 194.448 348.552 194.064C348.078 193.676 347.726 193.12 347.498 192.395C347.269 191.666 347.155 190.793 347.155 189.775C347.155 188.757 347.258 187.885 347.465 187.161C347.677 186.432 348.018 185.873 348.488 185.485C348.958 185.097 349.581 184.903 350.358 184.903C351.091 184.903 351.695 185.097 352.169 185.485C352.648 185.869 353.002 186.425 353.23 187.154C353.463 187.879 353.58 188.752 353.58 189.775ZM348.688 189.775C348.688 190.573 348.74 191.239 348.844 191.774C348.951 192.309 349.128 192.71 349.374 192.977C349.62 193.24 349.948 193.372 350.358 193.372C350.767 193.372 351.095 193.24 351.341 192.977C351.587 192.714 351.764 192.315 351.872 191.78C351.984 191.246 352.04 190.577 352.04 189.775C352.04 188.981 351.986 188.317 351.878 187.782C351.77 187.247 351.593 186.846 351.347 186.578C351.102 186.307 350.772 186.171 350.358 186.171C349.943 186.171 349.613 186.307 349.368 186.578C349.126 186.846 348.951 187.247 348.844 187.782C348.74 188.317 348.688 188.981 348.688 189.775ZM361.163 189.775C361.163 190.538 361.102 191.222 360.981 191.826C360.865 192.425 360.679 192.934 360.425 193.353C360.17 193.771 359.838 194.09 359.429 194.31C359.019 194.53 358.523 194.64 357.94 194.64C357.211 194.64 356.61 194.448 356.135 194.064C355.661 193.676 355.309 193.12 355.081 192.395C354.852 191.666 354.738 190.793 354.738 189.775C354.738 188.757 354.841 187.885 355.048 187.161C355.26 186.432 355.6 185.873 356.071 185.485C356.541 185.097 357.164 184.903 357.94 184.903C358.674 184.903 359.278 185.097 359.752 185.485C360.231 185.869 360.585 186.425 360.813 187.154C361.046 187.879 361.163 188.752 361.163 189.775ZM356.271 189.775C356.271 190.573 356.323 191.239 356.426 191.774C356.534 192.309 356.711 192.71 356.957 192.977C357.203 193.24 357.531 193.372 357.94 193.372C358.35 193.372 358.678 193.24 358.924 192.977C359.17 192.714 359.347 192.315 359.454 191.78C359.567 191.246 359.623 190.577 359.623 189.775C359.623 188.981 359.569 188.317 359.461 187.782C359.353 187.247 359.176 186.846 358.93 186.578C358.685 186.307 358.355 186.171 357.94 186.171C357.526 186.171 357.196 186.307 356.951 186.578C356.709 186.846 356.534 187.247 356.426 187.782C356.323 188.317 356.271 188.981 356.271 189.775Z" fill="#212121"/>
<rect x="216.98" y="241.274" width="167.842" height="60.7324" rx="30.3662" stroke="#DFDFDF" stroke-width="1.10423" stroke-dasharray="2.21 2.21"/>
<rect x="226.365" y="249.556" width="150.175" height="44.169" rx="22.0845" fill="url(#paint5_radial_6620_35022)"/>
<path d="M248.617 277.961C247.622 277.961 246.762 277.737 246.035 277.289C245.308 276.84 244.747 276.191 244.35 275.341C243.958 274.485 243.763 273.452 243.763 272.241C243.763 271.02 243.961 269.982 244.358 269.126C244.754 268.266 245.316 267.609 246.043 267.155C246.774 266.702 247.632 266.475 248.617 266.475C249.606 266.475 250.461 266.702 251.183 267.155C251.904 267.604 252.461 268.258 252.853 269.119C253.244 269.974 253.44 271.015 253.44 272.241C253.44 273.452 253.244 274.485 252.853 275.341C252.466 276.191 251.912 276.84 251.191 277.289C250.469 277.737 249.611 277.961 248.617 277.961ZM248.617 276.717C249.307 276.717 249.895 276.56 250.379 276.245C250.863 275.931 251.232 275.444 251.484 274.784C251.742 274.125 251.871 273.282 251.871 272.257C251.871 271.216 251.742 270.36 251.484 269.691C251.227 269.021 250.856 268.526 250.371 268.207C249.887 267.882 249.302 267.72 248.617 267.72C247.937 267.72 247.352 267.882 246.862 268.207C246.373 268.531 245.996 269.028 245.734 269.698C245.471 270.368 245.339 271.221 245.339 272.257C245.339 273.282 245.471 274.125 245.734 274.784C245.996 275.444 246.373 275.931 246.862 276.245C247.352 276.56 247.937 276.717 248.617 276.717ZM258.287 277.845C257.736 277.845 257.308 277.771 257.004 277.621C256.7 277.472 256.486 277.25 256.362 276.956C256.244 276.663 256.185 276.302 256.185 275.874V270.858H254.886V269.814H256.223L256.571 267.488H257.622V269.807H259.423V270.858H257.622V275.828C257.622 276.111 257.651 276.32 257.707 276.454C257.769 276.583 257.87 276.665 258.009 276.701C258.148 276.737 258.344 276.755 258.596 276.755H259.47V277.714C259.372 277.75 259.222 277.781 259.021 277.807C258.826 277.832 258.581 277.845 258.287 277.845ZM261.366 277.807V266.32H262.757V270.989C262.891 270.768 263.072 270.561 263.298 270.371C263.525 270.175 263.801 270.018 264.125 269.899C264.45 269.776 264.826 269.714 265.254 269.714C265.774 269.714 266.246 269.812 266.669 270.007C267.091 270.198 267.426 270.471 267.673 270.827C267.921 271.182 268.044 271.605 268.044 272.094V277.807H266.614V272.38C266.614 271.901 266.45 271.533 266.12 271.275C265.795 271.012 265.37 270.881 264.844 270.881C264.489 270.881 264.154 270.94 263.84 271.059C263.525 271.172 263.27 271.347 263.074 271.584C262.884 271.816 262.788 272.113 262.788 272.473V277.807H261.366ZM273.651 277.961C272.909 277.961 272.255 277.799 271.688 277.474C271.121 277.15 270.678 276.683 270.358 276.075C270.039 275.467 269.879 274.738 269.879 273.888C269.879 273.048 270.023 272.311 270.312 271.677C270.6 271.043 271.018 270.549 271.564 270.193C272.115 269.837 272.778 269.66 273.551 269.66C274.303 269.66 274.939 269.822 275.46 270.147C275.98 270.471 276.374 270.93 276.642 271.522C276.915 272.11 277.052 272.808 277.052 273.617V274.143H271.324C271.324 274.648 271.407 275.106 271.572 275.519C271.742 275.926 271.997 276.25 272.337 276.493C272.677 276.735 273.107 276.856 273.628 276.856C274.138 276.856 274.576 276.737 274.942 276.5C275.313 276.263 275.55 275.921 275.653 275.472H276.998C276.905 276.013 276.689 276.469 276.349 276.84C276.014 277.211 275.609 277.492 275.135 277.683C274.666 277.868 274.171 277.961 273.651 277.961ZM271.332 273.177H275.676C275.676 272.718 275.599 272.306 275.444 271.94C275.29 271.569 275.053 271.278 274.733 271.066C274.419 270.85 274.022 270.742 273.543 270.742C273.043 270.742 272.628 270.863 272.298 271.105C271.969 271.342 271.724 271.649 271.564 272.025C271.404 272.396 271.327 272.78 271.332 273.177ZM279.029 277.807V269.814H280.39V271.352C280.524 270.971 280.712 270.657 280.954 270.409C281.196 270.157 281.472 269.969 281.781 269.845C282.095 269.722 282.42 269.66 282.755 269.66C282.874 269.66 282.989 269.667 283.103 269.683C283.216 269.698 283.304 269.724 283.366 269.76V271.144C283.288 271.108 283.188 271.084 283.064 271.074C282.946 271.059 282.845 271.051 282.763 271.051C282.443 271.03 282.144 271.051 281.866 271.113C281.588 271.17 281.343 271.27 281.132 271.414C280.921 271.559 280.753 271.749 280.629 271.986C280.511 272.218 280.452 272.502 280.452 272.837V277.807H279.029ZM287.898 277.961C287.342 277.961 286.824 277.876 286.345 277.706C285.87 277.531 285.476 277.26 285.162 276.895C284.848 276.524 284.652 276.052 284.574 275.48H285.873C285.94 275.794 286.069 276.057 286.26 276.268C286.45 276.475 286.685 276.632 286.963 276.74C287.246 276.843 287.555 276.895 287.89 276.895C288.432 276.895 288.867 276.794 289.197 276.593C289.527 276.392 289.691 276.083 289.691 275.666C289.691 275.372 289.604 275.137 289.429 274.962C289.259 274.782 288.991 274.65 288.625 274.568L286.971 274.158C286.326 274.004 285.811 273.761 285.425 273.432C285.043 273.102 284.85 272.641 284.845 272.048C284.845 271.579 284.958 271.167 285.185 270.811C285.412 270.456 285.749 270.175 286.198 269.969C286.651 269.763 287.215 269.66 287.89 269.66C288.761 269.66 289.462 269.855 289.993 270.247C290.524 270.634 290.802 271.203 290.828 271.955H289.56C289.509 271.574 289.338 271.273 289.05 271.051C288.761 270.824 288.37 270.711 287.875 270.711C287.37 270.711 286.955 270.814 286.631 271.02C286.311 271.221 286.151 271.535 286.151 271.963C286.151 272.246 286.265 272.471 286.491 272.636C286.723 272.795 287.058 272.929 287.496 273.037L289.104 273.439C289.47 273.537 289.774 273.666 290.016 273.826C290.258 273.986 290.449 274.163 290.588 274.359C290.727 274.555 290.825 274.761 290.882 274.978C290.944 275.189 290.975 275.392 290.975 275.588C290.975 276.078 290.853 276.5 290.611 276.856C290.369 277.206 290.019 277.479 289.56 277.675C289.101 277.866 288.547 277.961 287.898 277.961Z" fill="#444444"/>
<rect opacity="0.7" x="327.953" y="253.972" width="44.169" height="35.3352" rx="17.6676" fill="white"/>
<path d="M345.997 276.223H339.591V275.077L342.043 272.593C342.518 272.11 342.908 271.694 343.215 271.344C343.521 270.991 343.747 270.656 343.894 270.341C344.045 270.026 344.12 269.684 344.12 269.313C344.12 268.855 343.989 268.51 343.726 268.277C343.463 268.04 343.115 267.922 342.684 267.922C342.274 267.922 341.895 268.004 341.545 268.167C341.2 268.327 340.842 268.556 340.471 268.853L339.637 267.85C339.9 267.626 340.18 267.421 340.478 267.236C340.78 267.05 341.116 266.904 341.487 266.796C341.858 266.684 342.281 266.628 342.755 266.628C343.355 266.628 343.872 266.735 344.308 266.951C344.744 267.162 345.078 267.458 345.311 267.837C345.548 268.217 345.667 268.659 345.667 269.164C345.667 269.673 345.565 270.143 345.363 270.574C345.16 271.006 344.871 271.433 344.496 271.855C344.12 272.274 343.674 272.729 343.156 273.221L341.519 274.819V274.89H345.997V276.223ZM353.58 271.487C353.58 272.25 353.519 272.934 353.398 273.538C353.282 274.137 353.097 274.646 352.842 275.065C352.588 275.483 352.255 275.802 351.846 276.022C351.436 276.242 350.94 276.352 350.358 276.352C349.629 276.352 349.027 276.16 348.552 275.776C348.078 275.388 347.726 274.832 347.498 274.107C347.269 273.378 347.155 272.505 347.155 271.487C347.155 270.469 347.258 269.597 347.465 268.873C347.677 268.144 348.018 267.585 348.488 267.197C348.958 266.809 349.581 266.615 350.358 266.615C351.091 266.615 351.695 266.809 352.169 267.197C352.648 267.581 353.002 268.137 353.23 268.866C353.463 269.591 353.58 270.464 353.58 271.487ZM348.688 271.487C348.688 272.285 348.74 272.951 348.844 273.486C348.951 274.021 349.128 274.422 349.374 274.689C349.62 274.952 349.948 275.084 350.358 275.084C350.767 275.084 351.095 274.952 351.341 274.689C351.587 274.426 351.764 274.027 351.872 273.492C351.984 272.957 352.04 272.289 352.04 271.487C352.04 270.693 351.986 270.029 351.878 269.494C351.77 268.959 351.593 268.558 351.347 268.29C351.102 268.019 350.772 267.883 350.358 267.883C349.943 267.883 349.613 268.019 349.368 268.29C349.126 268.558 348.951 268.959 348.844 269.494C348.74 270.029 348.688 270.693 348.688 271.487ZM361.163 271.487C361.163 272.25 361.102 272.934 360.981 273.538C360.865 274.137 360.679 274.646 360.425 275.065C360.17 275.483 359.838 275.802 359.429 276.022C359.019 276.242 358.523 276.352 357.94 276.352C357.211 276.352 356.61 276.16 356.135 275.776C355.661 275.388 355.309 274.832 355.081 274.107C354.852 273.378 354.738 272.505 354.738 271.487C354.738 270.469 354.841 269.597 355.048 268.873C355.26 268.144 355.6 267.585 356.071 267.197C356.541 266.809 357.164 266.615 357.94 266.615C358.674 266.615 359.278 266.809 359.752 267.197C360.231 267.581 360.585 268.137 360.813 268.866C361.046 269.591 361.163 270.464 361.163 271.487ZM356.271 271.487C356.271 272.285 356.323 272.951 356.426 273.486C356.534 274.021 356.711 274.422 356.957 274.689C357.203 274.952 357.531 275.084 357.94 275.084C358.35 275.084 358.678 274.952 358.924 274.689C359.17 274.426 359.347 274.027 359.454 273.492C359.567 272.957 359.623 272.289 359.623 271.487C359.623 270.693 359.569 270.029 359.461 269.494C359.353 268.959 359.176 268.558 358.93 268.29C358.685 268.019 358.355 267.883 357.94 267.883C357.526 267.883 357.196 268.019 356.951 268.29C356.709 268.558 356.534 268.959 356.426 269.494C356.323 270.029 356.271 270.693 356.271 271.487Z" fill="#212121"/>
<defs>
<radialGradient id="paint0_radial_6620_35022" cx="0" cy="0" r="1" gradientUnits="userSpaceOnUse" gradientTransform="translate(32.0215 130.299) rotate(-16.3895) scale(156.535 59.5306)">
<stop stop-color="#FC90FF"/>
<stop offset="1" stop-color="white"/>
</radialGradient>
<radialGradient id="paint1_radial_6620_35022" cx="0" cy="0" r="1" gradientUnits="userSpaceOnUse" gradientTransform="translate(32.0215 212.012) rotate(-16.3895) scale(156.535 59.5306)">
<stop stop-color="#DEFF67"/>
<stop offset="1" stop-color="white"/>
</radialGradient>
<radialGradient id="paint2_radial_6620_35022" cx="0" cy="0" r="1" gradientUnits="userSpaceOnUse" gradientTransform="translate(36.9905 287.651) rotate(-14.7007) scale(150.12 57.0908)">
<stop stop-color="#A079FF"/>
<stop offset="1" stop-color="white"/>
</radialGradient>
<radialGradient id="paint3_radial_6620_35022" cx="0" cy="0" r="1" gradientUnits="userSpaceOnUse" gradientTransform="translate(231.334 124.226) rotate(-14.7007) scale(150.12 57.0908)">
<stop stop-color="#FFE501"/>
<stop offset="1" stop-color="white"/>
</radialGradient>
<radialGradient id="paint4_radial_6620_35022" cx="0" cy="0" r="1" gradientUnits="userSpaceOnUse" gradientTransform="translate(231.334 205.939) rotate(-14.7007) scale(150.12 57.0908)">
<stop stop-color="#65B2FF"/>
<stop offset="1" stop-color="white"/>
</radialGradient>
<radialGradient id="paint5_radial_6620_35022" cx="0" cy="0" r="1" gradientUnits="userSpaceOnUse" gradientTransform="translate(226.365 293.725) rotate(-16.3895) scale(156.535 59.5306)">
<stop stop-color="#CECECE"/>
<stop offset="1" stop-color="white"/>
</radialGradient>
<clipPath id="clip0_6620_35022">
<rect width="18" height="18" fill="white" transform="translate(250 345)"/>
</clipPath>
</defs>
</svg>
