<svg width="369" height="355" viewBox="0 0 369 355" fill="none" xmlns="http://www.w3.org/2000/svg">
<rect width="369" height="355" rx="16" fill="white"/>
<rect x="20.4" y="299.4" width="206.2" height="35.2" rx="17.6" stroke="#EFEFEF" stroke-width="0.8"/>
<path d="M40.4365 322.5H39.2676V313.531H36.123V312.506H43.5674V313.531H40.4365V322.5ZM51.3672 318.74C51.3672 319.355 51.2874 319.905 51.1279 320.388C50.9684 320.871 50.7383 321.279 50.4375 321.611C50.1367 321.944 49.7721 322.199 49.3438 322.377C48.9199 322.55 48.4391 322.637 47.9014 322.637C47.4001 322.637 46.9398 322.55 46.5205 322.377C46.1058 322.199 45.7458 321.944 45.4404 321.611C45.1396 321.279 44.9049 320.871 44.7363 320.388C44.5723 319.905 44.4902 319.355 44.4902 318.74C44.4902 317.92 44.6292 317.223 44.9072 316.648C45.1852 316.07 45.5817 315.63 46.0967 315.329C46.6162 315.024 47.2337 314.871 47.9492 314.871C48.6328 314.871 49.2298 315.024 49.7402 315.329C50.2552 315.634 50.654 316.076 50.9365 316.655C51.2236 317.229 51.3672 317.924 51.3672 318.74ZM45.666 318.74C45.666 319.342 45.7458 319.864 45.9053 320.306C46.0648 320.748 46.3109 321.09 46.6436 321.331C46.9762 321.573 47.4046 321.693 47.9287 321.693C48.4482 321.693 48.8743 321.573 49.207 321.331C49.5443 321.09 49.7926 320.748 49.9521 320.306C50.1117 319.864 50.1914 319.342 50.1914 318.74C50.1914 318.143 50.1117 317.628 49.9521 317.195C49.7926 316.758 49.5465 316.421 49.2139 316.184C48.8812 315.947 48.4505 315.828 47.9219 315.828C47.1426 315.828 46.5706 316.086 46.2061 316.601C45.846 317.116 45.666 317.829 45.666 318.74ZM55.749 321.707C55.9359 321.707 56.1273 321.691 56.3232 321.659C56.5192 321.627 56.6787 321.589 56.8018 321.543V322.425C56.6696 322.484 56.485 322.534 56.248 322.575C56.0156 322.616 55.7878 322.637 55.5645 322.637C55.168 322.637 54.8079 322.568 54.4844 322.432C54.1608 322.29 53.901 322.053 53.7051 321.721C53.5137 321.388 53.418 320.928 53.418 320.34V315.896H52.3516V315.343L53.4248 314.898L53.876 313.271H54.5596V315.008H56.7539V315.896H54.5596V320.306C54.5596 320.775 54.6667 321.126 54.8809 321.358C55.0996 321.591 55.389 321.707 55.749 321.707ZM61.1221 314.885C62.0153 314.885 62.6784 315.085 63.1113 315.486C63.5443 315.887 63.7607 316.528 63.7607 317.407V322.5H62.9336L62.7148 321.393H62.6602C62.4505 321.666 62.2318 321.896 62.0039 322.083C61.776 322.265 61.5117 322.404 61.2109 322.5C60.9147 322.591 60.5501 322.637 60.1172 322.637C59.6615 322.637 59.2559 322.557 58.9004 322.397C58.5495 322.238 58.2715 321.996 58.0664 321.673C57.8659 321.349 57.7656 320.939 57.7656 320.442C57.7656 319.695 58.0618 319.121 58.6543 318.72C59.2467 318.319 60.1491 318.1 61.3613 318.063L62.6533 318.009V317.551C62.6533 316.904 62.5143 316.45 62.2363 316.19C61.9583 315.931 61.5664 315.801 61.0605 315.801C60.6686 315.801 60.2949 315.858 59.9395 315.972C59.584 316.086 59.2467 316.22 58.9277 316.375L58.5791 315.514C58.9163 315.34 59.3037 315.192 59.7412 315.069C60.1787 314.946 60.639 314.885 61.1221 314.885ZM62.6396 318.809L61.498 318.856C60.5638 318.893 59.9053 319.046 59.5225 319.314C59.1396 319.583 58.9482 319.964 58.9482 320.456C58.9482 320.884 59.0781 321.201 59.3379 321.406C59.5977 321.611 59.9417 321.714 60.3701 321.714C61.0355 321.714 61.5801 321.529 62.0039 321.16C62.4277 320.791 62.6396 320.237 62.6396 319.499V318.809ZM67.2402 322.5H66.0986V311.863H67.2402V322.5ZM76.8242 314.871C77.7129 314.871 78.3851 315.09 78.8408 315.527C79.2965 315.96 79.5244 316.658 79.5244 317.619V322.5H78.4033V317.694C78.4033 317.07 78.2598 316.603 77.9727 316.293C77.6901 315.983 77.2549 315.828 76.667 315.828C75.8376 315.828 75.2542 316.063 74.917 316.532C74.5798 317.002 74.4111 317.683 74.4111 318.576V322.5H73.2764V315.008H74.1924L74.3633 316.088H74.4248C74.5843 315.824 74.7871 315.603 75.0332 315.425C75.2793 315.243 75.555 315.106 75.8604 315.015C76.1657 314.919 76.487 314.871 76.8242 314.871ZM88.3223 318.74C88.3223 319.355 88.2425 319.905 88.083 320.388C87.9235 320.871 87.6934 321.279 87.3926 321.611C87.0918 321.944 86.7272 322.199 86.2988 322.377C85.875 322.55 85.3942 322.637 84.8564 322.637C84.3551 322.637 83.8949 322.55 83.4756 322.377C83.0609 322.199 82.7008 321.944 82.3955 321.611C82.0947 321.279 81.86 320.871 81.6914 320.388C81.5273 319.905 81.4453 319.355 81.4453 318.74C81.4453 317.92 81.5843 317.223 81.8623 316.648C82.1403 316.07 82.5368 315.63 83.0518 315.329C83.5713 315.024 84.1888 314.871 84.9043 314.871C85.5879 314.871 86.1849 315.024 86.6953 315.329C87.2103 315.634 87.609 316.076 87.8916 316.655C88.1787 317.229 88.3223 317.924 88.3223 318.74ZM82.6211 318.74C82.6211 319.342 82.7008 319.864 82.8604 320.306C83.0199 320.748 83.266 321.09 83.5986 321.331C83.9313 321.573 84.3597 321.693 84.8838 321.693C85.4033 321.693 85.8294 321.573 86.1621 321.331C86.4993 321.09 86.7477 320.748 86.9072 320.306C87.0667 319.864 87.1465 319.342 87.1465 318.74C87.1465 318.143 87.0667 317.628 86.9072 317.195C86.7477 316.758 86.5016 316.421 86.1689 316.184C85.8363 315.947 85.4056 315.828 84.877 315.828C84.0977 315.828 83.5257 316.086 83.1611 316.601C82.8011 317.116 82.6211 317.829 82.6211 318.74ZM100.381 318.74C100.381 319.355 100.301 319.905 100.142 320.388C99.9821 320.871 99.752 321.279 99.4512 321.611C99.1504 321.944 98.7858 322.199 98.3574 322.377C97.9336 322.55 97.4528 322.637 96.915 322.637C96.4137 322.637 95.9535 322.55 95.5342 322.377C95.1195 322.199 94.7594 321.944 94.4541 321.611C94.1533 321.279 93.9186 320.871 93.75 320.388C93.5859 319.905 93.5039 319.355 93.5039 318.74C93.5039 317.92 93.6429 317.223 93.9209 316.648C94.1989 316.07 94.5954 315.63 95.1104 315.329C95.6299 315.024 96.2474 314.871 96.9629 314.871C97.6465 314.871 98.2435 315.024 98.7539 315.329C99.2689 315.634 99.6676 316.076 99.9502 316.655C100.237 317.229 100.381 317.924 100.381 318.74ZM94.6797 318.74C94.6797 319.342 94.7594 319.864 94.9189 320.306C95.0785 320.748 95.3245 321.09 95.6572 321.331C95.9899 321.573 96.4183 321.693 96.9424 321.693C97.4619 321.693 97.888 321.573 98.2207 321.331C98.5579 321.09 98.8063 320.748 98.9658 320.306C99.1253 319.864 99.2051 319.342 99.2051 318.74C99.2051 318.143 99.1253 317.628 98.9658 317.195C98.8063 316.758 98.5602 316.421 98.2275 316.184C97.8949 315.947 97.4642 315.828 96.9355 315.828C96.1562 315.828 95.5843 316.086 95.2197 316.601C94.8597 317.116 94.6797 317.829 94.6797 318.74ZM105.679 315.896H103.812V322.5H102.678V315.896H101.352V315.35L102.678 314.974V314.475C102.678 313.846 102.771 313.335 102.958 312.943C103.145 312.547 103.416 312.255 103.771 312.068C104.127 311.882 104.56 311.788 105.07 311.788C105.357 311.788 105.619 311.813 105.856 311.863C106.098 311.913 106.31 311.97 106.492 312.034L106.198 312.93C106.043 312.88 105.868 312.834 105.672 312.793C105.48 312.747 105.285 312.725 105.084 312.725C104.651 312.725 104.33 312.866 104.12 313.148C103.915 313.426 103.812 313.864 103.812 314.461V315.008H105.679V315.896ZM118.831 314.871C119.656 314.871 120.278 315.088 120.697 315.521C121.117 315.949 121.326 316.639 121.326 317.592V322.5H120.205V317.646C120.205 317.04 120.073 316.587 119.809 316.286C119.549 315.981 119.161 315.828 118.646 315.828C117.922 315.828 117.396 316.038 117.067 316.457C116.739 316.876 116.575 317.494 116.575 318.31V322.5H115.447V317.646C115.447 317.241 115.388 316.904 115.27 316.635C115.156 316.366 114.982 316.165 114.75 316.033C114.522 315.896 114.233 315.828 113.882 315.828C113.385 315.828 112.986 315.931 112.686 316.136C112.385 316.341 112.166 316.646 112.029 317.052C111.897 317.453 111.831 317.947 111.831 318.535V322.5H110.696V315.008H111.612L111.783 316.067H111.845C111.995 315.808 112.184 315.589 112.412 315.411C112.64 315.233 112.895 315.099 113.178 315.008C113.46 314.917 113.761 314.871 114.08 314.871C114.65 314.871 115.126 314.978 115.509 315.192C115.896 315.402 116.176 315.723 116.35 316.156H116.411C116.657 315.723 116.994 315.402 117.423 315.192C117.851 314.978 118.321 314.871 118.831 314.871ZM130.117 318.74C130.117 319.355 130.037 319.905 129.878 320.388C129.718 320.871 129.488 321.279 129.188 321.611C128.887 321.944 128.522 322.199 128.094 322.377C127.67 322.55 127.189 322.637 126.651 322.637C126.15 322.637 125.69 322.55 125.271 322.377C124.856 322.199 124.496 321.944 124.19 321.611C123.89 321.279 123.655 320.871 123.486 320.388C123.322 319.905 123.24 319.355 123.24 318.74C123.24 317.92 123.379 317.223 123.657 316.648C123.935 316.07 124.332 315.63 124.847 315.329C125.366 315.024 125.984 314.871 126.699 314.871C127.383 314.871 127.98 315.024 128.49 315.329C129.005 315.634 129.404 316.076 129.687 316.655C129.974 317.229 130.117 317.924 130.117 318.74ZM124.416 318.74C124.416 319.342 124.496 319.864 124.655 320.306C124.815 320.748 125.061 321.09 125.394 321.331C125.726 321.573 126.155 321.693 126.679 321.693C127.198 321.693 127.624 321.573 127.957 321.331C128.294 321.09 128.543 320.748 128.702 320.306C128.862 319.864 128.941 319.342 128.941 318.74C128.941 318.143 128.862 317.628 128.702 317.195C128.543 316.758 128.297 316.421 127.964 316.184C127.631 315.947 127.201 315.828 126.672 315.828C125.893 315.828 125.321 316.086 124.956 316.601C124.596 317.116 124.416 317.829 124.416 318.74ZM134.745 322.637C133.797 322.637 133.045 322.313 132.489 321.666C131.938 321.019 131.662 320.057 131.662 318.781C131.662 317.492 131.945 316.519 132.51 315.862C133.075 315.201 133.827 314.871 134.766 314.871C135.162 314.871 135.508 314.924 135.805 315.028C136.101 315.133 136.356 315.274 136.57 315.452C136.785 315.625 136.965 315.824 137.11 316.047H137.192C137.174 315.906 137.156 315.712 137.138 315.466C137.119 315.22 137.11 315.019 137.11 314.864V311.863H138.245V322.5H137.329L137.158 321.434H137.11C136.969 321.657 136.789 321.86 136.57 322.042C136.356 322.224 136.099 322.37 135.798 322.479C135.502 322.584 135.151 322.637 134.745 322.637ZM134.923 321.693C135.725 321.693 136.292 321.465 136.625 321.01C136.958 320.554 137.124 319.877 137.124 318.979V318.774C137.124 317.822 136.965 317.09 136.646 316.58C136.331 316.07 135.757 315.814 134.923 315.814C134.226 315.814 133.704 316.083 133.357 316.621C133.011 317.154 132.838 317.883 132.838 318.809C132.838 319.729 133.009 320.44 133.351 320.941C133.697 321.443 134.221 321.693 134.923 321.693ZM143.536 314.871C144.174 314.871 144.721 315.012 145.177 315.295C145.632 315.577 145.981 315.974 146.223 316.484C146.464 316.99 146.585 317.583 146.585 318.262V318.966H141.41C141.424 319.845 141.643 320.515 142.066 320.976C142.49 321.436 143.087 321.666 143.857 321.666C144.331 321.666 144.751 321.623 145.115 321.536C145.48 321.45 145.858 321.322 146.25 321.153V322.151C145.872 322.32 145.496 322.443 145.122 322.521C144.753 322.598 144.315 322.637 143.81 322.637C143.09 322.637 142.461 322.491 141.923 322.199C141.39 321.903 140.975 321.47 140.679 320.9C140.382 320.331 140.234 319.633 140.234 318.809C140.234 318.002 140.369 317.305 140.638 316.717C140.911 316.124 141.294 315.669 141.786 315.35C142.283 315.031 142.866 314.871 143.536 314.871ZM143.522 315.801C142.916 315.801 142.433 315.999 142.073 316.396C141.713 316.792 141.499 317.346 141.431 318.057H145.396C145.391 317.61 145.32 317.218 145.184 316.881C145.051 316.539 144.849 316.275 144.575 316.088C144.302 315.896 143.951 315.801 143.522 315.801ZM149.654 322.5H148.513V311.863H149.654V322.5ZM158.11 321.707C158.297 321.707 158.489 321.691 158.685 321.659C158.881 321.627 159.04 321.589 159.163 321.543V322.425C159.031 322.484 158.846 322.534 158.609 322.575C158.377 322.616 158.149 322.637 157.926 322.637C157.529 322.637 157.169 322.568 156.846 322.432C156.522 322.29 156.262 322.053 156.066 321.721C155.875 321.388 155.779 320.928 155.779 320.34V315.896H154.713V315.343L155.786 314.898L156.237 313.271H156.921V315.008H159.115V315.896H156.921V320.306C156.921 320.775 157.028 321.126 157.242 321.358C157.461 321.591 157.75 321.707 158.11 321.707ZM159.498 315.008H160.715L162.369 319.355C162.465 319.611 162.554 319.857 162.636 320.094C162.718 320.326 162.791 320.549 162.854 320.764C162.918 320.978 162.968 321.185 163.005 321.386H163.053C163.117 321.158 163.208 320.859 163.326 320.49C163.445 320.117 163.572 319.736 163.709 319.349L165.274 315.008H166.498L163.237 323.601C163.064 324.061 162.861 324.462 162.629 324.804C162.401 325.146 162.123 325.408 161.795 325.59C161.467 325.777 161.07 325.87 160.605 325.87C160.391 325.87 160.202 325.856 160.038 325.829C159.874 325.806 159.733 325.779 159.614 325.747V324.838C159.715 324.861 159.835 324.881 159.977 324.899C160.122 324.918 160.273 324.927 160.428 324.927C160.71 324.927 160.954 324.872 161.159 324.763C161.369 324.658 161.549 324.503 161.699 324.298C161.85 324.093 161.979 323.849 162.089 323.566L162.499 322.514L159.498 315.008ZM171.215 314.871C172.149 314.871 172.894 315.192 173.45 315.835C174.006 316.478 174.284 317.444 174.284 318.733C174.284 319.586 174.157 320.301 173.901 320.88C173.646 321.459 173.286 321.896 172.821 322.192C172.361 322.489 171.816 322.637 171.188 322.637C170.791 322.637 170.442 322.584 170.142 322.479C169.841 322.375 169.583 322.233 169.369 322.056C169.155 321.878 168.977 321.684 168.836 321.475H168.754C168.768 321.652 168.784 321.867 168.802 322.117C168.825 322.368 168.836 322.587 168.836 322.773V325.85H167.694V315.008H168.631L168.781 316.115H168.836C168.982 315.887 169.16 315.68 169.369 315.493C169.579 315.302 169.834 315.151 170.135 315.042C170.44 314.928 170.8 314.871 171.215 314.871ZM171.017 315.828C170.497 315.828 170.078 315.928 169.759 316.129C169.444 316.329 169.214 316.63 169.068 317.031C168.923 317.428 168.845 317.927 168.836 318.528V318.747C168.836 319.381 168.904 319.916 169.041 320.354C169.182 320.791 169.412 321.124 169.731 321.352C170.055 321.579 170.488 321.693 171.03 321.693C171.495 321.693 171.882 321.568 172.192 321.317C172.502 321.067 172.732 320.718 172.883 320.271C173.038 319.82 173.115 319.303 173.115 318.72C173.115 317.836 172.942 317.134 172.596 316.614C172.254 316.09 171.728 315.828 171.017 315.828ZM179.151 314.871C179.789 314.871 180.336 315.012 180.792 315.295C181.248 315.577 181.596 315.974 181.838 316.484C182.079 316.99 182.2 317.583 182.2 318.262V318.966H177.025C177.039 319.845 177.258 320.515 177.682 320.976C178.105 321.436 178.702 321.666 179.473 321.666C179.947 321.666 180.366 321.623 180.73 321.536C181.095 321.45 181.473 321.322 181.865 321.153V322.151C181.487 322.32 181.111 322.443 180.737 322.521C180.368 322.598 179.931 322.637 179.425 322.637C178.705 322.637 178.076 322.491 177.538 322.199C177.005 321.903 176.59 321.47 176.294 320.9C175.998 320.331 175.85 319.633 175.85 318.809C175.85 318.002 175.984 317.305 176.253 316.717C176.526 316.124 176.909 315.669 177.401 315.35C177.898 315.031 178.481 314.871 179.151 314.871ZM179.138 315.801C178.532 315.801 178.049 315.999 177.688 316.396C177.328 316.792 177.114 317.346 177.046 318.057H181.011C181.006 317.61 180.936 317.218 180.799 316.881C180.667 316.539 180.464 316.275 180.19 316.088C179.917 315.896 179.566 315.801 179.138 315.801ZM188.975 320.449C188.975 320.928 188.854 321.331 188.612 321.659C188.375 321.983 188.034 322.227 187.587 322.391C187.145 322.555 186.616 322.637 186.001 322.637C185.477 322.637 185.023 322.596 184.641 322.514C184.258 322.432 183.923 322.315 183.636 322.165V321.119C183.941 321.27 184.306 321.406 184.729 321.529C185.153 321.652 185.586 321.714 186.028 321.714C186.675 321.714 187.145 321.609 187.437 321.399C187.728 321.19 187.874 320.905 187.874 320.545C187.874 320.34 187.815 320.16 187.696 320.005C187.582 319.845 187.389 319.693 187.115 319.547C186.842 319.396 186.464 319.232 185.98 319.055C185.502 318.872 185.087 318.692 184.736 318.515C184.39 318.332 184.121 318.111 183.93 317.852C183.743 317.592 183.649 317.255 183.649 316.84C183.649 316.206 183.905 315.721 184.415 315.384C184.93 315.042 185.604 314.871 186.438 314.871C186.89 314.871 187.311 314.917 187.703 315.008C188.1 315.094 188.469 315.213 188.811 315.363L188.428 316.272C188.118 316.14 187.787 316.029 187.437 315.938C187.086 315.846 186.728 315.801 186.363 315.801C185.839 315.801 185.436 315.887 185.153 316.061C184.875 316.234 184.736 316.471 184.736 316.771C184.736 317.004 184.8 317.195 184.928 317.346C185.06 317.496 185.27 317.637 185.557 317.77C185.844 317.902 186.222 318.057 186.691 318.234C187.161 318.408 187.566 318.588 187.908 318.774C188.25 318.957 188.512 319.18 188.694 319.444C188.881 319.704 188.975 320.039 188.975 320.449ZM190.629 321.789C190.629 321.47 190.706 321.244 190.861 321.112C191.016 320.976 191.205 320.907 191.429 320.907C191.661 320.907 191.857 320.976 192.017 321.112C192.176 321.244 192.256 321.47 192.256 321.789C192.256 322.104 192.176 322.334 192.017 322.479C191.857 322.621 191.661 322.691 191.429 322.691C191.205 322.691 191.016 322.621 190.861 322.479C190.706 322.334 190.629 322.104 190.629 321.789ZM190.629 315.726C190.629 315.397 190.706 315.167 190.861 315.035C191.016 314.898 191.205 314.83 191.429 314.83C191.661 314.83 191.857 314.898 192.017 315.035C192.176 315.167 192.256 315.397 192.256 315.726C192.256 316.035 192.176 316.261 192.017 316.402C191.857 316.544 191.661 316.614 191.429 316.614C191.205 316.614 191.016 316.544 190.861 316.402C190.706 316.261 190.629 316.035 190.629 315.726Z" fill="#212121"/>
<path d="M204.987 312.369C205.566 312.369 206.088 312.46 206.553 312.643C207.018 312.82 207.387 313.087 207.66 313.442C207.934 313.798 208.07 314.238 208.07 314.762C208.07 315.167 207.986 315.521 207.817 315.821C207.653 316.122 207.43 316.386 207.147 316.614C206.865 316.838 206.548 317.036 206.197 317.209C206.589 317.4 206.949 317.621 207.277 317.872C207.61 318.118 207.877 318.408 208.077 318.74C208.282 319.073 208.385 319.463 208.385 319.909C208.385 320.47 208.241 320.955 207.954 321.365C207.672 321.771 207.277 322.085 206.771 322.309C206.266 322.527 205.675 322.637 205.001 322.637C204.276 322.637 203.659 322.53 203.148 322.315C202.638 322.101 202.251 321.796 201.986 321.399C201.722 320.998 201.59 320.52 201.59 319.964C201.59 319.504 201.681 319.105 201.863 318.768C202.046 318.43 202.289 318.139 202.595 317.893C202.905 317.646 203.244 317.439 203.613 317.271C203.299 317.084 203.012 316.874 202.752 316.642C202.492 316.405 202.285 316.133 202.13 315.828C201.979 315.518 201.904 315.16 201.904 314.755C201.904 314.235 202.043 313.8 202.321 313.449C202.599 313.094 202.971 312.825 203.436 312.643C203.905 312.46 204.422 312.369 204.987 312.369ZM203.121 319.902C203.121 320.34 203.276 320.7 203.586 320.982C203.896 321.265 204.358 321.406 204.974 321.406C205.584 321.406 206.049 321.267 206.368 320.989C206.687 320.711 206.847 320.344 206.847 319.889C206.847 319.597 206.765 319.34 206.601 319.116C206.441 318.893 206.225 318.695 205.951 318.521C205.682 318.344 205.384 318.18 205.056 318.029L204.837 317.94C204.481 318.091 204.176 318.262 203.921 318.453C203.666 318.64 203.467 318.852 203.326 319.089C203.189 319.326 203.121 319.597 203.121 319.902ZM204.974 313.606C204.532 313.606 204.167 313.716 203.88 313.935C203.597 314.149 203.456 314.459 203.456 314.864C203.456 315.151 203.524 315.397 203.661 315.603C203.802 315.808 203.992 315.985 204.229 316.136C204.465 316.282 204.728 316.418 205.015 316.546C205.293 316.423 205.543 316.288 205.767 316.143C205.994 315.992 206.174 315.814 206.307 315.609C206.443 315.4 206.512 315.149 206.512 314.857C206.512 314.456 206.368 314.149 206.081 313.935C205.799 313.716 205.429 313.606 204.974 313.606Z" fill="#F900FF"/>
<path d="M27.2334 39L23.5332 28.2686H23.4541C23.4717 28.5088 23.4922 28.8369 23.5156 29.2529C23.5391 29.6689 23.5596 30.1143 23.5771 30.5889C23.5947 31.0635 23.6035 31.5176 23.6035 31.9512V39H21.6875V26.1504H24.6494L28.209 36.4072H28.2617L31.9443 26.1504H34.8975V39H32.8848V31.8457C32.8848 31.4531 32.8906 31.0283 32.9023 30.5713C32.9199 30.1143 32.9375 29.6807 32.9551 29.2705C32.9785 28.8604 32.9961 28.5322 33.0078 28.2861H32.9375L29.0967 39H27.2334ZM46.6836 34.1133C46.6836 34.9219 46.5781 35.6396 46.3672 36.2666C46.1562 36.8936 45.8486 37.4238 45.4443 37.8574C45.04 38.2852 44.5537 38.6133 43.9854 38.8418C43.417 39.0645 42.7754 39.1758 42.0605 39.1758C41.3926 39.1758 40.7803 39.0645 40.2236 38.8418C39.667 38.6133 39.1836 38.2852 38.7734 37.8574C38.3691 37.4238 38.0557 36.8936 37.833 36.2666C37.6104 35.6396 37.499 34.9219 37.499 34.1133C37.499 33.041 37.6836 32.1328 38.0527 31.3887C38.4277 30.6387 38.9609 30.0674 39.6523 29.6748C40.3438 29.2822 41.167 29.0859 42.1221 29.0859C43.0186 29.0859 43.8096 29.2822 44.4951 29.6748C45.1807 30.0674 45.7168 30.6387 46.1035 31.3887C46.4902 32.1387 46.6836 33.0469 46.6836 34.1133ZM39.626 34.1133C39.626 34.8223 39.7109 35.4287 39.8809 35.9326C40.0566 36.4365 40.3262 36.8232 40.6895 37.0928C41.0527 37.3564 41.5215 37.4883 42.0957 37.4883C42.6699 37.4883 43.1387 37.3564 43.502 37.0928C43.8652 36.8232 44.1318 36.4365 44.3018 35.9326C44.4717 35.4287 44.5566 34.8223 44.5566 34.1133C44.5566 33.4043 44.4717 32.8037 44.3018 32.3115C44.1318 31.8135 43.8652 31.4355 43.502 31.1777C43.1387 30.9141 42.667 30.7822 42.0869 30.7822C41.2314 30.7822 40.6074 31.0693 40.2148 31.6436C39.8223 32.2178 39.626 33.041 39.626 34.1133ZM52.3262 39.1758C51.166 39.1758 50.2344 38.7539 49.5312 37.9102C48.834 37.0605 48.4854 35.8096 48.4854 34.1572C48.4854 32.4873 48.8398 31.2246 49.5488 30.3691C50.2637 29.5137 51.2041 29.0859 52.3701 29.0859C52.8623 29.0859 53.293 29.1533 53.6621 29.2881C54.0312 29.417 54.3477 29.5928 54.6113 29.8154C54.8809 30.0381 55.1094 30.2871 55.2969 30.5625H55.3936C55.3643 30.3809 55.3291 30.1201 55.2881 29.7803C55.2529 29.4346 55.2354 29.1152 55.2354 28.8223V25.3242H57.3096V39H55.6924L55.3232 37.6729H55.2354C55.0596 37.9541 54.8369 38.209 54.5674 38.4375C54.3037 38.6602 53.9873 38.8389 53.6182 38.9736C53.2549 39.1084 52.8242 39.1758 52.3262 39.1758ZM52.9062 37.4971C53.791 37.4971 54.415 37.2422 54.7783 36.7324C55.1416 36.2227 55.3291 35.458 55.3408 34.4385V34.166C55.3408 33.0762 55.165 32.2412 54.8135 31.6611C54.4619 31.0752 53.8203 30.7822 52.8887 30.7822C52.1445 30.7822 51.5762 31.084 51.1836 31.6875C50.7969 32.2852 50.6035 33.1201 50.6035 34.1924C50.6035 35.2646 50.7969 36.085 51.1836 36.6533C51.5762 37.2158 52.1504 37.4971 52.9062 37.4971ZM64.1475 29.0859C65.0146 29.0859 65.7588 29.2646 66.3799 29.6221C67.001 29.9795 67.4785 30.4863 67.8125 31.1426C68.1465 31.7988 68.3135 32.584 68.3135 33.498V34.6055H61.8184C61.8418 35.5488 62.0938 36.2754 62.5742 36.7852C63.0605 37.2949 63.7402 37.5498 64.6133 37.5498C65.2344 37.5498 65.791 37.4912 66.2832 37.374C66.7812 37.251 67.2939 37.0723 67.8213 36.8379V38.5166C67.335 38.7451 66.8398 38.9121 66.3359 39.0176C65.832 39.123 65.2285 39.1758 64.5254 39.1758C63.5703 39.1758 62.7295 38.9912 62.0029 38.6221C61.2822 38.2471 60.7168 37.6904 60.3066 36.9521C59.9023 36.2139 59.7002 35.2969 59.7002 34.2012C59.7002 33.1113 59.8848 32.1855 60.2539 31.4238C60.623 30.6621 61.1416 30.082 61.8096 29.6836C62.4775 29.2852 63.2568 29.0859 64.1475 29.0859ZM64.1475 30.6416C63.4971 30.6416 62.9697 30.8525 62.5654 31.2744C62.167 31.6963 61.9326 32.3145 61.8623 33.1289H66.292C66.2861 32.6426 66.2041 32.2119 66.0459 31.8369C65.8936 31.4619 65.6592 31.1689 65.3428 30.958C65.0322 30.7471 64.6338 30.6416 64.1475 30.6416ZM72.7168 39H70.6426V25.3242H72.7168V39ZM85.0127 39H82.8945V27.9434H79.1328V26.1504H88.7656V27.9434H85.0127V39ZM89.0557 29.2705H91.3057L93.3008 34.8252C93.3887 35.0771 93.4678 35.3262 93.5381 35.5723C93.6143 35.8125 93.6787 36.0498 93.7314 36.2842C93.79 36.5186 93.8369 36.7529 93.8721 36.9873H93.9248C93.9834 36.6826 94.0654 36.3428 94.1709 35.9678C94.2822 35.5869 94.4053 35.2061 94.54 34.8252L96.4561 29.2705H98.6797L94.5049 40.3359C94.2646 40.9688 93.9688 41.5078 93.6172 41.9531C93.2715 42.4043 92.8613 42.7441 92.3867 42.9727C91.9121 43.207 91.3701 43.3242 90.7607 43.3242C90.4678 43.3242 90.2129 43.3066 89.9961 43.2715C89.7793 43.2422 89.5947 43.21 89.4424 43.1748V41.5225C89.5654 41.5518 89.7207 41.5781 89.9082 41.6016C90.0957 41.625 90.2891 41.6367 90.4883 41.6367C90.8574 41.6367 91.1768 41.5635 91.4463 41.417C91.7158 41.2705 91.9443 41.0625 92.1318 40.793C92.3193 40.5293 92.4746 40.2275 92.5977 39.8877L92.9404 38.9736L89.0557 29.2705ZM105.148 29.0859C106.303 29.0859 107.229 29.5078 107.926 30.3516C108.629 31.1953 108.98 32.4492 108.98 34.1133C108.98 35.2148 108.816 36.1436 108.488 36.8994C108.166 37.6494 107.712 38.2178 107.126 38.6045C106.546 38.9854 105.869 39.1758 105.096 39.1758C104.604 39.1758 104.176 39.1113 103.812 38.9824C103.449 38.8535 103.139 38.6865 102.881 38.4814C102.623 38.2705 102.406 38.042 102.23 37.7959H102.107C102.137 38.0303 102.163 38.291 102.187 38.5781C102.216 38.8594 102.23 39.1172 102.23 39.3516V43.3154H100.156V29.2705H101.844L102.134 30.6152H102.23C102.412 30.3398 102.632 30.085 102.89 29.8506C103.153 29.6162 103.47 29.4316 103.839 29.2969C104.214 29.1562 104.65 29.0859 105.148 29.0859ZM104.595 30.7734C104.026 30.7734 103.569 30.8877 103.224 31.1162C102.884 31.3389 102.635 31.6758 102.477 32.127C102.324 32.5781 102.242 33.1436 102.23 33.8232V34.1133C102.23 34.834 102.304 35.4463 102.45 35.9502C102.603 36.4482 102.852 36.8291 103.197 37.0928C103.549 37.3506 104.023 37.4795 104.621 37.4795C105.125 37.4795 105.541 37.3418 105.869 37.0664C106.203 36.791 106.452 36.3984 106.616 35.8887C106.78 35.3789 106.862 34.7783 106.862 34.0869C106.862 33.0381 106.675 32.2236 106.3 31.6436C105.931 31.0635 105.362 30.7734 104.595 30.7734ZM115.247 29.0859C116.114 29.0859 116.858 29.2646 117.479 29.6221C118.101 29.9795 118.578 30.4863 118.912 31.1426C119.246 31.7988 119.413 32.584 119.413 33.498V34.6055H112.918C112.941 35.5488 113.193 36.2754 113.674 36.7852C114.16 37.2949 114.84 37.5498 115.713 37.5498C116.334 37.5498 116.891 37.4912 117.383 37.374C117.881 37.251 118.394 37.0723 118.921 36.8379V38.5166C118.435 38.7451 117.939 38.9121 117.436 39.0176C116.932 39.123 116.328 39.1758 115.625 39.1758C114.67 39.1758 113.829 38.9912 113.103 38.6221C112.382 38.2471 111.816 37.6904 111.406 36.9521C111.002 36.2139 110.8 35.2969 110.8 34.2012C110.8 33.1113 110.984 32.1855 111.354 31.4238C111.723 30.6621 112.241 30.082 112.909 29.6836C113.577 29.2852 114.356 29.0859 115.247 29.0859ZM115.247 30.6416C114.597 30.6416 114.069 30.8525 113.665 31.2744C113.267 31.6963 113.032 32.3145 112.962 33.1289H117.392C117.386 32.6426 117.304 32.2119 117.146 31.8369C116.993 31.4619 116.759 31.1689 116.442 30.958C116.132 30.7471 115.733 30.6416 115.247 30.6416ZM128.281 36.2227C128.281 36.8613 128.126 37.4004 127.815 37.8398C127.505 38.2793 127.051 38.6133 126.453 38.8418C125.861 39.0645 125.135 39.1758 124.273 39.1758C123.594 39.1758 123.008 39.126 122.516 39.0264C122.029 38.9326 121.569 38.7861 121.136 38.5869V36.8027C121.599 37.0195 122.117 37.207 122.691 37.3652C123.271 37.5234 123.819 37.6025 124.335 37.6025C125.015 37.6025 125.504 37.4971 125.803 37.2861C126.102 37.0693 126.251 36.7822 126.251 36.4248C126.251 36.2139 126.189 36.0264 126.066 35.8623C125.949 35.6924 125.727 35.5195 125.398 35.3438C125.076 35.1621 124.602 34.9453 123.975 34.6934C123.359 34.4473 122.841 34.2012 122.419 33.9551C121.997 33.709 121.678 33.4131 121.461 33.0674C121.244 32.7158 121.136 32.2676 121.136 31.7227C121.136 30.8613 121.476 30.208 122.155 29.7627C122.841 29.3115 123.746 29.0859 124.871 29.0859C125.469 29.0859 126.031 29.1475 126.559 29.2705C127.092 29.3877 127.613 29.5605 128.123 29.7891L127.473 31.3447C127.033 31.1514 126.591 30.9932 126.146 30.8701C125.706 30.7412 125.258 30.6768 124.801 30.6768C124.268 30.6768 123.86 30.7588 123.579 30.9229C123.304 31.0869 123.166 31.3213 123.166 31.626C123.166 31.8545 123.233 32.0479 123.368 32.2061C123.503 32.3643 123.734 32.5225 124.062 32.6807C124.396 32.8389 124.859 33.0352 125.451 33.2695C126.031 33.4922 126.532 33.7266 126.954 33.9727C127.382 34.2129 127.71 34.5088 127.938 34.8604C128.167 35.2119 128.281 35.666 128.281 36.2227ZM130.215 37.9102C130.215 37.4297 130.338 37.0928 130.584 36.8994C130.836 36.7002 131.141 36.6006 131.498 36.6006C131.855 36.6006 132.16 36.7002 132.412 36.8994C132.67 37.0928 132.799 37.4297 132.799 37.9102C132.799 38.3789 132.67 38.7188 132.412 38.9297C132.16 39.1348 131.855 39.2373 131.498 39.2373C131.141 39.2373 130.836 39.1348 130.584 38.9297C130.338 38.7188 130.215 38.3789 130.215 37.9102Z" fill="#212121"/>
<rect x="20.5" y="70.5" width="152" height="55" rx="27.5" stroke="#DFDFDF" stroke-dasharray="2 2"/>
<rect x="29" y="78" width="136" height="40" rx="20" fill="url(#paint0_radial_11696_49040)"/>
<path d="M45.337 103V92.878H48.76C49.4833 92.878 50.1273 92.9993 50.692 93.242C51.2567 93.4847 51.7 93.844 52.022 94.32C52.3487 94.796 52.512 95.3817 52.512 96.077C52.512 96.749 52.3603 97.323 52.057 97.799C51.7583 98.275 51.3407 98.6367 50.804 98.884C50.2673 99.1313 49.6443 99.255 48.935 99.255H46.667V103H45.337ZM46.66 98.163H48.907C49.6023 98.163 50.167 97.9693 50.601 97.582C51.035 97.1947 51.252 96.6673 51.252 96C51.252 95.328 51.028 94.8193 50.58 94.474C50.132 94.1287 49.5533 93.956 48.844 93.956H46.66V98.163ZM61.0854 103.14C60.5907 103.14 60.1217 103.082 59.6784 102.965C59.235 102.844 58.8314 102.664 58.4674 102.426C58.108 102.188 57.8094 101.894 57.5714 101.544C57.338 101.189 57.191 100.779 57.1304 100.312H58.4884C58.5724 100.695 58.738 101.017 58.9854 101.278C59.2374 101.539 59.5477 101.735 59.9164 101.866C60.2897 101.997 60.698 102.062 61.1414 102.062C61.5707 102.062 61.965 101.994 62.3244 101.859C62.6884 101.724 62.98 101.528 63.1994 101.271C63.4187 101.01 63.5284 100.697 63.5284 100.333C63.5284 99.9317 63.3977 99.6097 63.1364 99.367C62.875 99.1197 62.4714 98.9213 61.9254 98.772L59.8394 98.233C59.368 98.1163 58.9504 97.953 58.5864 97.743C58.227 97.5283 57.9447 97.2483 57.7394 96.903C57.534 96.553 57.4314 96.119 57.4314 95.601C57.4314 95.027 57.59 94.5277 57.9074 94.103C58.2247 93.6737 58.654 93.3423 59.1954 93.109C59.7414 92.871 60.3574 92.752 61.0434 92.752C61.8367 92.752 62.504 92.8897 63.0454 93.165C63.5914 93.4403 64.0044 93.802 64.2844 94.25C64.5644 94.698 64.7044 95.1763 64.7044 95.685H63.3744C63.3324 95.223 63.197 94.859 62.9684 94.593C62.7397 94.3223 62.455 94.1287 62.1144 94.012C61.7737 93.8907 61.4027 93.83 61.0014 93.83C60.278 93.83 59.7297 93.9957 59.3564 94.327C58.9877 94.6537 58.8034 95.0433 58.8034 95.496C58.8034 95.9113 58.9364 96.238 59.2024 96.476C59.4684 96.714 59.8604 96.8983 60.3784 97.029L62.4084 97.554C63.0104 97.694 63.4887 97.897 63.8434 98.163C64.2027 98.429 64.4594 98.7393 64.6134 99.094C64.772 99.444 64.8514 99.8243 64.8514 100.235C64.8514 100.795 64.695 101.294 64.3824 101.733C64.0697 102.172 63.631 102.517 63.0664 102.769C62.5064 103.016 61.846 103.14 61.0854 103.14ZM69.8273 103.14C69.1553 103.14 68.5626 102.993 68.0493 102.699C67.5359 102.405 67.1346 101.983 66.8453 101.432C66.5559 100.881 66.4113 100.221 66.4113 99.451C66.4113 98.6903 66.5419 98.023 66.8033 97.449C67.0646 96.875 67.4426 96.427 67.9373 96.105C68.4366 95.783 69.0363 95.622 69.7363 95.622C70.4176 95.622 70.9939 95.769 71.4653 96.063C71.9366 96.357 72.2936 96.7723 72.5363 97.309C72.7836 97.841 72.9073 98.4733 72.9073 99.206V99.682H67.7203C67.7203 100.139 67.7949 100.555 67.9443 100.928C68.0983 101.297 68.3293 101.591 68.6373 101.81C68.9453 102.029 69.3349 102.139 69.8063 102.139C70.2683 102.139 70.6649 102.032 70.9963 101.817C71.3323 101.602 71.5469 101.292 71.6403 100.886H72.8583C72.7743 101.376 72.5783 101.789 72.2703 102.125C71.9669 102.461 71.6006 102.715 71.1713 102.888C70.7466 103.056 70.2986 103.14 69.8273 103.14ZM67.7273 98.807H71.6613C71.6613 98.3917 71.5913 98.0183 71.4513 97.687C71.3113 97.351 71.0966 97.0873 70.8073 96.896C70.5226 96.7 70.1633 96.602 69.7293 96.602C69.2766 96.602 68.9009 96.7117 68.6023 96.931C68.3036 97.1457 68.0819 97.4233 67.9373 97.764C67.7926 98.1 67.7226 98.4477 67.7273 98.807ZM74.698 103V95.762H75.93V97.155C76.0513 96.8097 76.2216 96.525 76.441 96.301C76.6603 96.0723 76.91 95.902 77.19 95.79C77.4746 95.678 77.7686 95.622 78.072 95.622C78.1793 95.622 78.2843 95.629 78.387 95.643C78.4896 95.657 78.569 95.6803 78.625 95.713V96.966C78.555 96.9333 78.464 96.9123 78.352 96.903C78.2446 96.889 78.1536 96.882 78.079 96.882C77.7896 96.8633 77.519 96.882 77.267 96.938C77.015 96.9893 76.7933 97.0803 76.602 97.211C76.4106 97.3417 76.259 97.5143 76.147 97.729C76.0396 97.939 75.986 98.1957 75.986 98.499V103H74.698ZM80.2017 103V95.762H81.4547V103H80.2017ZM80.1667 94.229V92.885H81.4897V94.229H80.1667ZM86.6847 103.14C86.0127 103.14 85.42 102.993 84.9067 102.699C84.3934 102.405 83.992 101.983 83.7027 101.432C83.4134 100.881 83.2687 100.221 83.2687 99.451C83.2687 98.6903 83.3994 98.023 83.6607 97.449C83.922 96.875 84.3 96.427 84.7947 96.105C85.294 95.783 85.8937 95.622 86.5937 95.622C87.275 95.622 87.8514 95.769 88.3227 96.063C88.794 96.357 89.151 96.7723 89.3937 97.309C89.641 97.841 89.7647 98.4733 89.7647 99.206V99.682H84.5777C84.5777 100.139 84.6524 100.555 84.8017 100.928C84.9557 101.297 85.1867 101.591 85.4947 101.81C85.8027 102.029 86.1924 102.139 86.6637 102.139C87.1257 102.139 87.5224 102.032 87.8537 101.817C88.1897 101.602 88.4044 101.292 88.4977 100.886H89.7157C89.6317 101.376 89.4357 101.789 89.1277 102.125C88.8244 102.461 88.458 102.715 88.0287 102.888C87.604 103.056 87.156 103.14 86.6847 103.14ZM84.5847 98.807H88.5187C88.5187 98.3917 88.4487 98.0183 88.3087 97.687C88.1687 97.351 87.954 97.0873 87.6647 96.896C87.38 96.7 87.0207 96.602 86.5867 96.602C86.134 96.602 85.7584 96.7117 85.4597 96.931C85.161 97.1457 84.9394 97.4233 84.7947 97.764C84.65 98.1 84.58 98.4477 84.5847 98.807ZM94.1184 103.14C93.6144 103.14 93.1454 103.063 92.7114 102.909C92.282 102.75 91.925 102.505 91.6404 102.174C91.3557 101.838 91.1784 101.411 91.1084 100.893H92.2844C92.345 101.178 92.4617 101.416 92.6344 101.607C92.807 101.794 93.0194 101.936 93.2714 102.034C93.528 102.127 93.808 102.174 94.1114 102.174C94.6014 102.174 94.9957 102.083 95.2944 101.901C95.593 101.719 95.7424 101.439 95.7424 101.061C95.7424 100.795 95.663 100.583 95.5044 100.424C95.3504 100.261 95.1077 100.142 94.7764 100.067L93.2784 99.696C92.695 99.556 92.2284 99.3367 91.8784 99.038C91.533 98.7393 91.358 98.3217 91.3534 97.785C91.3534 97.3603 91.456 96.987 91.6614 96.665C91.8667 96.343 92.1724 96.0887 92.5784 95.902C92.989 95.7153 93.5 95.622 94.1114 95.622C94.9 95.622 95.5347 95.7993 96.0154 96.154C96.496 96.504 96.748 97.0197 96.7714 97.701H95.6234C95.5767 97.3557 95.4227 97.0827 95.1614 96.882C94.9 96.6767 94.5454 96.574 94.0974 96.574C93.64 96.574 93.2644 96.6673 92.9704 96.854C92.681 97.036 92.5364 97.3207 92.5364 97.708C92.5364 97.9647 92.639 98.1677 92.8444 98.317C93.0544 98.4617 93.3577 98.583 93.7544 98.681L95.2104 99.045C95.5417 99.1337 95.817 99.2503 96.0364 99.395C96.2557 99.5397 96.4284 99.7007 96.5544 99.878C96.6804 100.055 96.769 100.242 96.8204 100.438C96.8764 100.629 96.9044 100.814 96.9044 100.991C96.9044 101.434 96.7947 101.817 96.5754 102.139C96.356 102.456 96.0387 102.704 95.6234 102.881C95.208 103.054 94.7064 103.14 94.1184 103.14Z" fill="#212121"/>
<rect opacity="0.7" x="121" y="82" width="40" height="32" rx="16" fill="white"/>
<path d="M134.451 97.6445C135.002 97.6445 135.486 97.7441 135.904 97.9434C136.326 98.1387 136.654 98.4277 136.889 98.8105C137.123 99.1895 137.24 99.6543 137.24 100.205C137.24 100.807 137.113 101.326 136.859 101.764C136.605 102.197 136.232 102.531 135.74 102.766C135.248 103 134.648 103.117 133.941 103.117C133.492 103.117 133.072 103.078 132.682 103C132.295 102.922 131.961 102.805 131.68 102.648V101.406C131.973 101.57 132.324 101.705 132.734 101.811C133.145 101.912 133.537 101.963 133.912 101.963C134.311 101.963 134.652 101.904 134.938 101.787C135.223 101.67 135.441 101.49 135.594 101.248C135.75 101.006 135.828 100.699 135.828 100.328C135.828 99.8359 135.67 99.457 135.354 99.1914C135.041 98.9219 134.551 98.7871 133.883 98.7871C133.648 98.7871 133.398 98.8086 133.133 98.8516C132.871 98.8906 132.652 98.9336 132.477 98.9805L131.873 98.623L132.195 94.4336H136.648V95.6465H133.408L133.221 97.7793C133.361 97.748 133.529 97.7188 133.725 97.6914C133.92 97.6602 134.162 97.6445 134.451 97.6445ZM144.207 98.7109C144.207 99.4023 144.152 100.021 144.043 100.568C143.938 101.111 143.77 101.572 143.539 101.951C143.309 102.33 143.008 102.619 142.637 102.818C142.266 103.018 141.816 103.117 141.289 103.117C140.629 103.117 140.084 102.943 139.654 102.596C139.225 102.244 138.906 101.74 138.699 101.084C138.492 100.424 138.389 99.6328 138.389 98.7109C138.389 97.7891 138.482 97 138.67 96.3438C138.861 95.6836 139.17 95.1777 139.596 94.8262C140.021 94.4746 140.586 94.2988 141.289 94.2988C141.953 94.2988 142.5 94.4746 142.93 94.8262C143.363 95.1738 143.684 95.6777 143.891 96.3379C144.102 96.9941 144.207 97.7852 144.207 98.7109ZM139.777 98.7109C139.777 99.4336 139.824 100.037 139.918 100.521C140.016 101.006 140.176 101.369 140.398 101.611C140.621 101.85 140.918 101.969 141.289 101.969C141.66 101.969 141.957 101.85 142.18 101.611C142.402 101.373 142.562 101.012 142.66 100.527C142.762 100.043 142.812 99.4375 142.812 98.7109C142.812 97.9922 142.764 97.3906 142.666 96.9062C142.568 96.4219 142.408 96.0586 142.186 95.8164C141.963 95.5703 141.664 95.4473 141.289 95.4473C140.914 95.4473 140.615 95.5703 140.393 95.8164C140.174 96.0586 140.016 96.4219 139.918 96.9062C139.824 97.3906 139.777 97.9922 139.777 98.7109ZM148.186 97.6445C148.736 97.6445 149.221 97.7441 149.639 97.9434C150.061 98.1387 150.389 98.4277 150.623 98.8105C150.857 99.1895 150.975 99.6543 150.975 100.205C150.975 100.807 150.848 101.326 150.594 101.764C150.34 102.197 149.967 102.531 149.475 102.766C148.982 103 148.383 103.117 147.676 103.117C147.227 103.117 146.807 103.078 146.416 103C146.029 102.922 145.695 102.805 145.414 102.648V101.406C145.707 101.57 146.059 101.705 146.469 101.811C146.879 101.912 147.271 101.963 147.646 101.963C148.045 101.963 148.387 101.904 148.672 101.787C148.957 101.67 149.176 101.49 149.328 101.248C149.484 101.006 149.562 100.699 149.562 100.328C149.562 99.8359 149.404 99.457 149.088 99.1914C148.775 98.9219 148.285 98.7871 147.617 98.7871C147.383 98.7871 147.133 98.8086 146.867 98.8516C146.605 98.8906 146.387 98.9336 146.211 98.9805L145.607 98.623L145.93 94.4336H150.383V95.6465H147.143L146.955 97.7793C147.096 97.748 147.264 97.7188 147.459 97.6914C147.654 97.6602 147.896 97.6445 148.186 97.6445Z" fill="#212121"/>
<rect x="20.5" y="144.5" width="152" height="55" rx="27.5" stroke="#DFDFDF" stroke-dasharray="2 2"/>
<rect x="29" y="152" width="136" height="40" rx="20" fill="url(#paint1_radial_11696_49040)"/>
<path d="M53.443 178.694C53.1117 178.694 52.7617 178.652 52.393 178.568C52.0243 178.489 51.6627 178.328 51.308 178.085C50.958 177.847 50.636 177.49 50.342 177.014C50.1087 177.056 49.8987 177.086 49.712 177.105C49.5253 177.128 49.3363 177.14 49.145 177.14C48.2537 177.14 47.479 176.942 46.821 176.545C46.163 176.144 45.6543 175.558 45.295 174.788C44.9357 174.018 44.756 173.075 44.756 171.96C44.756 170.849 44.9333 169.904 45.288 169.125C45.6473 168.346 46.156 167.753 46.814 167.347C47.472 166.941 48.249 166.738 49.145 166.738C50.0457 166.738 50.8227 166.941 51.476 167.347C52.134 167.753 52.638 168.346 52.988 169.125C53.3427 169.904 53.52 170.849 53.52 171.96C53.52 173.005 53.3637 173.904 53.051 174.655C52.743 175.402 52.2413 175.999 51.546 176.447C51.7187 176.83 51.973 177.112 52.309 177.294C52.6497 177.481 53.0277 177.581 53.443 177.595V178.694ZM49.145 176.013C50.0877 176.013 50.8157 175.689 51.329 175.04C51.847 174.391 52.106 173.367 52.106 171.967C52.106 170.581 51.8493 169.552 51.336 168.88C50.8273 168.203 50.097 167.865 49.145 167.865C48.1977 167.865 47.4673 168.203 46.954 168.88C46.4453 169.557 46.191 170.593 46.191 171.988C46.191 173.379 46.4477 174.398 46.961 175.047C47.479 175.691 48.207 176.013 49.145 176.013ZM62.6303 177.14C62.1356 177.14 61.6666 177.082 61.2233 176.965C60.7799 176.844 60.3763 176.664 60.0123 176.426C59.6529 176.188 59.3543 175.894 59.1163 175.544C58.8829 175.189 58.7359 174.779 58.6753 174.312H60.0333C60.1173 174.695 60.2829 175.017 60.5303 175.278C60.7823 175.539 61.0926 175.735 61.4613 175.866C61.8346 175.997 62.2429 176.062 62.6863 176.062C63.1156 176.062 63.5099 175.994 63.8693 175.859C64.2333 175.724 64.5249 175.528 64.7443 175.271C64.9636 175.01 65.0733 174.697 65.0733 174.333C65.0733 173.932 64.9426 173.61 64.6813 173.367C64.4199 173.12 64.0163 172.921 63.4703 172.772L61.3843 172.233C60.9129 172.116 60.4953 171.953 60.1313 171.743C59.7719 171.528 59.4896 171.248 59.2843 170.903C59.0789 170.553 58.9763 170.119 58.9763 169.601C58.9763 169.027 59.1349 168.528 59.4523 168.103C59.7696 167.674 60.1989 167.342 60.7403 167.109C61.2863 166.871 61.9023 166.752 62.5883 166.752C63.3816 166.752 64.0489 166.89 64.5903 167.165C65.1363 167.44 65.5493 167.802 65.8293 168.25C66.1093 168.698 66.2493 169.176 66.2493 169.685H64.9193C64.8773 169.223 64.7419 168.859 64.5133 168.593C64.2846 168.322 63.9999 168.129 63.6593 168.012C63.3186 167.891 62.9476 167.83 62.5463 167.83C61.8229 167.83 61.2746 167.996 60.9013 168.327C60.5326 168.654 60.3483 169.043 60.3483 169.496C60.3483 169.911 60.4813 170.238 60.7473 170.476C61.0133 170.714 61.4053 170.898 61.9233 171.029L63.9533 171.554C64.5553 171.694 65.0336 171.897 65.3883 172.163C65.7476 172.429 66.0043 172.739 66.1583 173.094C66.3169 173.444 66.3963 173.824 66.3963 174.235C66.3963 174.795 66.2399 175.294 65.9273 175.733C65.6146 176.172 65.1759 176.517 64.6113 176.769C64.0513 177.016 63.3909 177.14 62.6303 177.14ZM71.3722 177.14C70.7002 177.14 70.1075 176.993 69.5942 176.699C69.0809 176.405 68.6795 175.983 68.3902 175.432C68.1009 174.881 67.9562 174.221 67.9562 173.451C67.9562 172.69 68.0869 172.023 68.3482 171.449C68.6095 170.875 68.9875 170.427 69.4822 170.105C69.9815 169.783 70.5812 169.622 71.2812 169.622C71.9625 169.622 72.5389 169.769 73.0102 170.063C73.4815 170.357 73.8385 170.772 74.0812 171.309C74.3285 171.841 74.4522 172.473 74.4522 173.206V173.682H69.2652C69.2652 174.139 69.3399 174.555 69.4892 174.928C69.6432 175.297 69.8742 175.591 70.1822 175.81C70.4902 176.029 70.8799 176.139 71.3512 176.139C71.8132 176.139 72.2099 176.032 72.5412 175.817C72.8772 175.602 73.0919 175.292 73.1852 174.886H74.4032C74.3192 175.376 74.1232 175.789 73.8152 176.125C73.5119 176.461 73.1455 176.715 72.7162 176.888C72.2915 177.056 71.8435 177.14 71.3722 177.14ZM69.2722 172.807H73.2062C73.2062 172.392 73.1362 172.018 72.9962 171.687C72.8562 171.351 72.6415 171.087 72.3522 170.896C72.0675 170.7 71.7082 170.602 71.2742 170.602C70.8215 170.602 70.4459 170.712 70.1472 170.931C69.8485 171.146 69.6269 171.423 69.4822 171.764C69.3375 172.1 69.2675 172.448 69.2722 172.807ZM76.2429 177V169.762H77.4749V171.155C77.5962 170.81 77.7665 170.525 77.9859 170.301C78.2052 170.072 78.4549 169.902 78.7349 169.79C79.0195 169.678 79.3135 169.622 79.6169 169.622C79.7242 169.622 79.8292 169.629 79.9319 169.643C80.0345 169.657 80.1139 169.68 80.1699 169.713V170.966C80.0999 170.933 80.0089 170.912 79.8969 170.903C79.7895 170.889 79.6985 170.882 79.6239 170.882C79.3345 170.863 79.0639 170.882 78.8119 170.938C78.5599 170.989 78.3382 171.08 78.1469 171.211C77.9555 171.342 77.8039 171.514 77.6919 171.729C77.5845 171.939 77.5309 172.196 77.5309 172.499V177H76.2429ZM81.7466 177V169.762H82.9996V177H81.7466ZM81.7116 168.229V166.885H83.0346V168.229H81.7116ZM88.2296 177.14C87.5576 177.14 86.9649 176.993 86.4516 176.699C85.9383 176.405 85.5369 175.983 85.2476 175.432C84.9583 174.881 84.8136 174.221 84.8136 173.451C84.8136 172.69 84.9443 172.023 85.2056 171.449C85.4669 170.875 85.8449 170.427 86.3396 170.105C86.8389 169.783 87.4386 169.622 88.1386 169.622C88.8199 169.622 89.3963 169.769 89.8676 170.063C90.3389 170.357 90.6959 170.772 90.9386 171.309C91.1859 171.841 91.3096 172.473 91.3096 173.206V173.682H86.1226C86.1226 174.139 86.1973 174.555 86.3466 174.928C86.5006 175.297 86.7316 175.591 87.0396 175.81C87.3476 176.029 87.7373 176.139 88.2086 176.139C88.6706 176.139 89.0673 176.032 89.3986 175.817C89.7346 175.602 89.9493 175.292 90.0426 174.886H91.2606C91.1766 175.376 90.9806 175.789 90.6726 176.125C90.3693 176.461 90.0029 176.715 89.5736 176.888C89.1489 177.056 88.7009 177.14 88.2296 177.14ZM86.1296 172.807H90.0636C90.0636 172.392 89.9936 172.018 89.8536 171.687C89.7136 171.351 89.4989 171.087 89.2096 170.896C88.9249 170.7 88.5656 170.602 88.1316 170.602C87.6789 170.602 87.3033 170.712 87.0046 170.931C86.7059 171.146 86.4843 171.423 86.3396 171.764C86.1949 172.1 86.1249 172.448 86.1296 172.807ZM95.6633 177.14C95.1593 177.14 94.6903 177.063 94.2563 176.909C93.8269 176.75 93.4699 176.505 93.1853 176.174C92.9006 175.838 92.7233 175.411 92.6533 174.893H93.8293C93.8899 175.178 94.0066 175.416 94.1793 175.607C94.3519 175.794 94.5643 175.936 94.8163 176.034C95.0729 176.127 95.3529 176.174 95.6563 176.174C96.1463 176.174 96.5406 176.083 96.8393 175.901C97.1379 175.719 97.2873 175.439 97.2873 175.061C97.2873 174.795 97.2079 174.583 97.0493 174.424C96.8953 174.261 96.6526 174.142 96.3213 174.067L94.8233 173.696C94.2399 173.556 93.7733 173.337 93.4233 173.038C93.0779 172.739 92.9029 172.322 92.8983 171.785C92.8983 171.36 93.0009 170.987 93.2063 170.665C93.4116 170.343 93.7173 170.089 94.1233 169.902C94.5339 169.715 95.0449 169.622 95.6563 169.622C96.4449 169.622 97.0796 169.799 97.5603 170.154C98.0409 170.504 98.2929 171.02 98.3163 171.701H97.1683C97.1216 171.356 96.9676 171.083 96.7063 170.882C96.4449 170.677 96.0903 170.574 95.6423 170.574C95.1849 170.574 94.8093 170.667 94.5153 170.854C94.2259 171.036 94.0813 171.321 94.0813 171.708C94.0813 171.965 94.1839 172.168 94.3893 172.317C94.5993 172.462 94.9026 172.583 95.2993 172.681L96.7553 173.045C97.0866 173.134 97.3619 173.25 97.5813 173.395C97.8006 173.54 97.9733 173.701 98.0993 173.878C98.2253 174.055 98.3139 174.242 98.3653 174.438C98.4213 174.629 98.4493 174.814 98.4493 174.991C98.4493 175.434 98.3396 175.817 98.1203 176.139C97.9009 176.456 97.5836 176.704 97.1683 176.881C96.7529 177.054 96.2513 177.14 95.6633 177.14Z" fill="#212121"/>
<rect opacity="0.7" x="121" y="156" width="40" height="32" rx="16" fill="white"/>
<path d="M137.012 170.391C137.012 170.777 136.934 171.113 136.777 171.398C136.621 171.684 136.406 171.918 136.133 172.102C135.863 172.281 135.551 172.41 135.195 172.488V172.529C135.879 172.615 136.395 172.83 136.742 173.174C137.094 173.518 137.27 173.973 137.27 174.539C137.27 175.035 137.15 175.479 136.912 175.869C136.674 176.256 136.309 176.561 135.816 176.783C135.324 177.006 134.691 177.117 133.918 177.117C133.453 177.117 133.021 177.08 132.623 177.006C132.229 176.932 131.854 176.812 131.498 176.648V175.424C131.861 175.604 132.248 175.742 132.658 175.84C133.068 175.938 133.457 175.986 133.824 175.986C134.539 175.986 135.049 175.854 135.354 175.588C135.658 175.318 135.811 174.947 135.811 174.475C135.811 174.17 135.73 173.92 135.57 173.725C135.414 173.529 135.17 173.383 134.838 173.285C134.51 173.188 134.086 173.139 133.566 173.139H132.811V172.031H133.572C134.068 172.031 134.467 171.973 134.768 171.855C135.068 171.734 135.285 171.568 135.418 171.357C135.555 171.146 135.623 170.9 135.623 170.619C135.623 170.252 135.504 169.967 135.266 169.764C135.027 169.557 134.674 169.453 134.205 169.453C133.916 169.453 133.652 169.486 133.414 169.553C133.18 169.619 132.963 169.703 132.764 169.805C132.564 169.906 132.375 170.016 132.195 170.133L131.533 169.178C131.857 168.936 132.244 168.73 132.693 168.562C133.143 168.395 133.666 168.311 134.264 168.311C135.143 168.311 135.82 168.5 136.297 168.879C136.773 169.254 137.012 169.758 137.012 170.391ZM144.207 172.711C144.207 173.402 144.152 174.021 144.043 174.568C143.938 175.111 143.77 175.572 143.539 175.951C143.309 176.33 143.008 176.619 142.637 176.818C142.266 177.018 141.816 177.117 141.289 177.117C140.629 177.117 140.084 176.943 139.654 176.596C139.225 176.244 138.906 175.74 138.699 175.084C138.492 174.424 138.389 173.633 138.389 172.711C138.389 171.789 138.482 171 138.67 170.344C138.861 169.684 139.17 169.178 139.596 168.826C140.021 168.475 140.586 168.299 141.289 168.299C141.953 168.299 142.5 168.475 142.93 168.826C143.363 169.174 143.684 169.678 143.891 170.338C144.102 170.994 144.207 171.785 144.207 172.711ZM139.777 172.711C139.777 173.434 139.824 174.037 139.918 174.521C140.016 175.006 140.176 175.369 140.398 175.611C140.621 175.85 140.918 175.969 141.289 175.969C141.66 175.969 141.957 175.85 142.18 175.611C142.402 175.373 142.562 175.012 142.66 174.527C142.762 174.043 142.812 173.438 142.812 172.711C142.812 171.992 142.764 171.391 142.666 170.906C142.568 170.422 142.408 170.059 142.186 169.816C141.963 169.57 141.664 169.447 141.289 169.447C140.914 169.447 140.615 169.57 140.393 169.816C140.174 170.059 140.016 170.422 139.918 170.906C139.824 171.391 139.777 171.992 139.777 172.711ZM151.074 172.711C151.074 173.402 151.02 174.021 150.91 174.568C150.805 175.111 150.637 175.572 150.406 175.951C150.176 176.33 149.875 176.619 149.504 176.818C149.133 177.018 148.684 177.117 148.156 177.117C147.496 177.117 146.951 176.943 146.521 176.596C146.092 176.244 145.773 175.74 145.566 175.084C145.359 174.424 145.256 173.633 145.256 172.711C145.256 171.789 145.35 171 145.537 170.344C145.729 169.684 146.037 169.178 146.463 168.826C146.889 168.475 147.453 168.299 148.156 168.299C148.82 168.299 149.367 168.475 149.797 168.826C150.23 169.174 150.551 169.678 150.758 170.338C150.969 170.994 151.074 171.785 151.074 172.711ZM146.645 172.711C146.645 173.434 146.691 174.037 146.785 174.521C146.883 175.006 147.043 175.369 147.266 175.611C147.488 175.85 147.785 175.969 148.156 175.969C148.527 175.969 148.824 175.85 149.047 175.611C149.27 175.373 149.43 175.012 149.527 174.527C149.629 174.043 149.68 173.438 149.68 172.711C149.68 171.992 149.631 171.391 149.533 170.906C149.436 170.422 149.275 170.059 149.053 169.816C148.83 169.57 148.531 169.447 148.156 169.447C147.781 169.447 147.482 169.57 147.26 169.816C147.041 170.059 146.883 170.422 146.785 170.906C146.691 171.391 146.645 171.992 146.645 172.711Z" fill="#212121"/>
<rect x="20.5" y="218.5" width="152" height="55" rx="27.5" stroke="#DFDFDF" stroke-dasharray="2 2"/>
<rect x="29" y="226" width="136" height="40" rx="20" fill="url(#paint2_radial_11696_49040)"/>
<path d="M44.581 251L48.242 240.878H49.705L53.366 251H52.043L51.049 248.228H46.898L45.897 251H44.581ZM47.241 247.038H50.692L48.97 242.145L47.241 247.038ZM55.2765 251V240.878H56.5715V251H55.2765ZM62.6456 251V240.878H65.9006C67.1326 240.878 68.0636 241.104 68.6936 241.557C69.3283 242.01 69.6456 242.663 69.6456 243.517C69.6456 244.054 69.5056 244.513 69.2256 244.896C68.9503 245.279 68.4649 245.594 67.7696 245.841C68.1663 245.925 68.4999 246.046 68.7706 246.205C69.0459 246.364 69.2653 246.55 69.4286 246.765C69.5966 246.975 69.7156 247.208 69.7856 247.465C69.8603 247.722 69.8976 247.992 69.8976 248.277C69.8976 249.192 69.5709 249.875 68.9176 250.328C68.2689 250.776 67.2983 251 66.0056 251H62.6456ZM63.9406 249.922H65.9916C66.8363 249.922 67.4779 249.784 67.9166 249.509C68.3599 249.229 68.5816 248.8 68.5816 248.221C68.5816 247.796 68.4719 247.453 68.2526 247.192C68.0379 246.926 67.7463 246.732 67.3776 246.611C67.0089 246.49 66.5983 246.429 66.1456 246.429H63.9406V249.922ZM63.9406 245.33H66.1456C66.4116 245.33 66.6753 245.304 66.9366 245.253C67.1979 245.202 67.4383 245.113 67.6576 244.987C67.8769 244.861 68.0543 244.693 68.1896 244.483C68.3249 244.268 68.3926 244 68.3926 243.678C68.3926 243.09 68.1663 242.656 67.7136 242.376C67.2656 242.091 66.6823 241.949 65.9636 241.949H63.9406V245.33ZM74.7249 251.14C74.0575 251.14 73.4742 250.998 72.9749 250.713C72.4802 250.424 72.0952 250.001 71.8199 249.446C71.5445 248.891 71.4069 248.212 71.4069 247.409C71.4069 246.653 71.5352 245.99 71.7919 245.421C72.0485 244.852 72.4242 244.411 72.9189 244.098C73.4135 243.781 74.0179 243.622 74.7319 243.622C75.3992 243.622 75.9779 243.769 76.4679 244.063C76.9579 244.352 77.3382 244.779 77.6089 245.344C77.8842 245.909 78.0219 246.597 78.0219 247.409C78.0219 248.146 77.8959 248.795 77.6439 249.355C77.3919 249.915 77.0209 250.354 76.5309 250.671C76.0455 250.984 75.4435 251.14 74.7249 251.14ZM74.7319 250.118C75.1612 250.118 75.5252 250.008 75.8239 249.789C76.1225 249.57 76.3489 249.255 76.5029 248.844C76.6615 248.433 76.7409 247.946 76.7409 247.381C76.7409 246.863 76.6709 246.399 76.5309 245.988C76.3955 245.573 76.1809 245.244 75.8869 245.001C75.5929 244.758 75.2079 244.637 74.7319 244.637C74.2932 244.637 73.9222 244.747 73.6189 244.966C73.3155 245.181 73.0845 245.493 72.9259 245.904C72.7719 246.315 72.6949 246.807 72.6949 247.381C72.6949 247.89 72.7625 248.352 72.8979 248.767C73.0379 249.182 73.2572 249.511 73.5559 249.754C73.8592 249.997 74.2512 250.118 74.7319 250.118ZM78.6207 251L81.4067 247.241L78.8447 243.762H80.2517L82.1347 246.303L84.0177 243.762H85.4317L82.8557 247.241L85.6417 251H84.2347L82.1277 248.165L80.0347 251H78.6207Z" fill="#212121"/>
<rect opacity="0.7" x="121" y="230" width="40" height="32" rx="16" fill="white"/>
<path d="M135.588 251H134.205V245.486C134.205 245.303 134.207 245.119 134.211 244.936C134.215 244.752 134.219 244.572 134.223 244.396C134.23 244.221 134.24 244.053 134.252 243.893C134.17 243.982 134.068 244.08 133.947 244.186C133.83 244.291 133.705 244.4 133.572 244.514L132.588 245.299L131.896 244.426L134.439 242.434H135.588V251ZM141.318 245.645C141.869 245.645 142.354 245.744 142.771 245.943C143.193 246.139 143.521 246.428 143.756 246.811C143.99 247.189 144.107 247.654 144.107 248.205C144.107 248.807 143.98 249.326 143.727 249.764C143.473 250.197 143.1 250.531 142.607 250.766C142.115 251 141.516 251.117 140.809 251.117C140.359 251.117 139.939 251.078 139.549 251C139.162 250.922 138.828 250.805 138.547 250.648V249.406C138.84 249.57 139.191 249.705 139.602 249.811C140.012 249.912 140.404 249.963 140.779 249.963C141.178 249.963 141.52 249.904 141.805 249.787C142.09 249.67 142.309 249.49 142.461 249.248C142.617 249.006 142.695 248.699 142.695 248.328C142.695 247.836 142.537 247.457 142.221 247.191C141.908 246.922 141.418 246.787 140.75 246.787C140.516 246.787 140.266 246.809 140 246.852C139.738 246.891 139.52 246.934 139.344 246.98L138.74 246.623L139.062 242.434H143.516V243.646H140.275L140.088 245.779C140.229 245.748 140.396 245.719 140.592 245.691C140.787 245.66 141.029 245.645 141.318 245.645ZM151.074 246.711C151.074 247.402 151.02 248.021 150.91 248.568C150.805 249.111 150.637 249.572 150.406 249.951C150.176 250.33 149.875 250.619 149.504 250.818C149.133 251.018 148.684 251.117 148.156 251.117C147.496 251.117 146.951 250.943 146.521 250.596C146.092 250.244 145.773 249.74 145.566 249.084C145.359 248.424 145.256 247.633 145.256 246.711C145.256 245.789 145.35 245 145.537 244.344C145.729 243.684 146.037 243.178 146.463 242.826C146.889 242.475 147.453 242.299 148.156 242.299C148.82 242.299 149.367 242.475 149.797 242.826C150.23 243.174 150.551 243.678 150.758 244.338C150.969 244.994 151.074 245.785 151.074 246.711ZM146.645 246.711C146.645 247.434 146.691 248.037 146.785 248.521C146.883 249.006 147.043 249.369 147.266 249.611C147.488 249.85 147.785 249.969 148.156 249.969C148.527 249.969 148.824 249.85 149.047 249.611C149.27 249.373 149.43 249.012 149.527 248.527C149.629 248.043 149.68 247.438 149.68 246.711C149.68 245.992 149.631 245.391 149.533 244.906C149.436 244.422 149.275 244.059 149.053 243.816C148.83 243.57 148.531 243.447 148.156 243.447C147.781 243.447 147.482 243.57 147.26 243.816C147.041 244.059 146.883 244.422 146.785 244.906C146.691 245.391 146.645 245.992 146.645 246.711Z" fill="#212121"/>
<rect x="196.5" y="70.5" width="152" height="55" rx="27.5" stroke="#DFDFDF" stroke-dasharray="2 2"/>
<rect x="205" y="78" width="136" height="40" rx="20" fill="url(#paint3_radial_11696_49040)"/>
<path d="M220.581 103L224.011 97.834L220.7 92.878H222.296L224.816 96.735L227.315 92.878H228.743L225.509 97.701L229.058 103H227.455L224.711 98.828L222.009 103H220.581ZM237.81 103.14C237.315 103.14 236.846 103.082 236.403 102.965C235.96 102.844 235.556 102.664 235.192 102.426C234.833 102.188 234.534 101.894 234.296 101.544C234.063 101.189 233.916 100.779 233.855 100.312H235.213C235.297 100.695 235.463 101.017 235.71 101.278C235.962 101.539 236.272 101.735 236.641 101.866C237.014 101.997 237.423 102.062 237.866 102.062C238.295 102.062 238.69 101.994 239.049 101.859C239.413 101.724 239.705 101.528 239.924 101.271C240.143 101.01 240.253 100.697 240.253 100.333C240.253 99.9317 240.122 99.6097 239.861 99.367C239.6 99.1197 239.196 98.9213 238.65 98.772L236.564 98.233C236.093 98.1163 235.675 97.953 235.311 97.743C234.952 97.5283 234.669 97.2483 234.464 96.903C234.259 96.553 234.156 96.119 234.156 95.601C234.156 95.027 234.315 94.5277 234.632 94.103C234.949 93.6737 235.379 93.3423 235.92 93.109C236.466 92.871 237.082 92.752 237.768 92.752C238.561 92.752 239.229 92.8897 239.77 93.165C240.316 93.4403 240.729 93.802 241.009 94.25C241.289 94.698 241.429 95.1763 241.429 95.685H240.099C240.057 95.223 239.922 94.859 239.693 94.593C239.464 94.3223 239.18 94.1287 238.839 94.012C238.498 93.8907 238.127 93.83 237.726 93.83C237.003 93.83 236.454 93.9957 236.081 94.327C235.712 94.6537 235.528 95.0433 235.528 95.496C235.528 95.9113 235.661 96.238 235.927 96.476C236.193 96.714 236.585 96.8983 237.103 97.029L239.133 97.554C239.735 97.694 240.213 97.897 240.568 98.163C240.927 98.429 241.184 98.7393 241.338 99.094C241.497 99.444 241.576 99.8243 241.576 100.235C241.576 100.795 241.42 101.294 241.107 101.733C240.794 102.172 240.356 102.517 239.791 102.769C239.231 103.016 238.571 103.14 237.81 103.14ZM246.552 103.14C245.88 103.14 245.287 102.993 244.774 102.699C244.261 102.405 243.859 101.983 243.57 101.432C243.281 100.881 243.136 100.221 243.136 99.451C243.136 98.6903 243.267 98.023 243.528 97.449C243.789 96.875 244.167 96.427 244.662 96.105C245.161 95.783 245.761 95.622 246.461 95.622C247.142 95.622 247.719 95.769 248.19 96.063C248.661 96.357 249.018 96.7723 249.261 97.309C249.508 97.841 249.632 98.4733 249.632 99.206V99.682H244.445C244.445 100.139 244.52 100.555 244.669 100.928C244.823 101.297 245.054 101.591 245.362 101.81C245.67 102.029 246.06 102.139 246.531 102.139C246.993 102.139 247.39 102.032 247.721 101.817C248.057 101.602 248.272 101.292 248.365 100.886H249.583C249.499 101.376 249.303 101.789 248.995 102.125C248.692 102.461 248.325 102.715 247.896 102.888C247.471 103.056 247.023 103.14 246.552 103.14ZM244.452 98.807H248.386C248.386 98.3917 248.316 98.0183 248.176 97.687C248.036 97.351 247.821 97.0873 247.532 96.896C247.247 96.7 246.888 96.602 246.454 96.602C246.001 96.602 245.626 96.7117 245.327 96.931C245.028 97.1457 244.807 97.4233 244.662 97.764C244.517 98.1 244.447 98.4477 244.452 98.807ZM251.423 103V95.762H252.655V97.155C252.776 96.8097 252.946 96.525 253.166 96.301C253.385 96.0723 253.635 95.902 253.915 95.79C254.199 95.678 254.493 95.622 254.797 95.622C254.904 95.622 255.009 95.629 255.112 95.643C255.214 95.657 255.294 95.6803 255.35 95.713V96.966C255.28 96.9333 255.189 96.9123 255.077 96.903C254.969 96.889 254.878 96.882 254.804 96.882C254.514 96.8633 254.244 96.882 253.992 96.938C253.74 96.9893 253.518 97.0803 253.327 97.211C253.135 97.3417 252.984 97.5143 252.872 97.729C252.764 97.939 252.711 98.1957 252.711 98.499V103H251.423ZM256.926 103V95.762H258.179V103H256.926ZM256.891 94.229V92.885H258.214V94.229H256.891ZM263.409 103.14C262.737 103.14 262.145 102.993 261.631 102.699C261.118 102.405 260.717 101.983 260.427 101.432C260.138 100.881 259.993 100.221 259.993 99.451C259.993 98.6903 260.124 98.023 260.385 97.449C260.647 96.875 261.025 96.427 261.519 96.105C262.019 95.783 262.618 95.622 263.318 95.622C264 95.622 264.576 95.769 265.047 96.063C265.519 96.357 265.876 96.7723 266.118 97.309C266.366 97.841 266.489 98.4733 266.489 99.206V99.682H261.302C261.302 100.139 261.377 100.555 261.526 100.928C261.68 101.297 261.911 101.591 262.219 101.81C262.527 102.029 262.917 102.139 263.388 102.139C263.85 102.139 264.247 102.032 264.578 101.817C264.914 101.602 265.129 101.292 265.222 100.886H266.44C266.356 101.376 266.16 101.789 265.852 102.125C265.549 102.461 265.183 102.715 264.753 102.888C264.329 103.056 263.881 103.14 263.409 103.14ZM261.309 98.807H265.243C265.243 98.3917 265.173 98.0183 265.033 97.687C264.893 97.351 264.679 97.0873 264.389 96.896C264.105 96.7 263.745 96.602 263.311 96.602C262.859 96.602 262.483 96.7117 262.184 96.931C261.886 97.1457 261.664 97.4233 261.519 97.764C261.375 98.1 261.305 98.4477 261.309 98.807ZM270.843 103.14C270.339 103.14 269.87 103.063 269.436 102.909C269.007 102.75 268.65 102.505 268.365 102.174C268.08 101.838 267.903 101.411 267.833 100.893H269.009C269.07 101.178 269.186 101.416 269.359 101.607C269.532 101.794 269.744 101.936 269.996 102.034C270.253 102.127 270.533 102.174 270.836 102.174C271.326 102.174 271.72 102.083 272.019 101.901C272.318 101.719 272.467 101.439 272.467 101.061C272.467 100.795 272.388 100.583 272.229 100.424C272.075 100.261 271.832 100.142 271.501 100.067L270.003 99.696C269.42 99.556 268.953 99.3367 268.603 99.038C268.258 98.7393 268.083 98.3217 268.078 97.785C268.078 97.3603 268.181 96.987 268.386 96.665C268.591 96.343 268.897 96.0887 269.303 95.902C269.714 95.7153 270.225 95.622 270.836 95.622C271.625 95.622 272.259 95.7993 272.74 96.154C273.221 96.504 273.473 97.0197 273.496 97.701H272.348C272.301 97.3557 272.147 97.0827 271.886 96.882C271.625 96.6767 271.27 96.574 270.822 96.574C270.365 96.574 269.989 96.6673 269.695 96.854C269.406 97.036 269.261 97.3207 269.261 97.708C269.261 97.9647 269.364 98.1677 269.569 98.317C269.779 98.4617 270.082 98.583 270.479 98.681L271.935 99.045C272.266 99.1337 272.542 99.2503 272.761 99.395C272.98 99.5397 273.153 99.7007 273.279 99.878C273.405 100.055 273.494 100.242 273.545 100.438C273.601 100.629 273.629 100.814 273.629 100.991C273.629 101.434 273.519 101.817 273.3 102.139C273.081 102.456 272.763 102.704 272.348 102.881C271.933 103.054 271.431 103.14 270.843 103.14Z" fill="#212121"/>
<rect opacity="0.7" x="297" y="82" width="40" height="32" rx="16" fill="white"/>
<path d="M310.451 97.6445C311.002 97.6445 311.486 97.7441 311.904 97.9434C312.326 98.1387 312.654 98.4277 312.889 98.8105C313.123 99.1895 313.24 99.6543 313.24 100.205C313.24 100.807 313.113 101.326 312.859 101.764C312.605 102.197 312.232 102.531 311.74 102.766C311.248 103 310.648 103.117 309.941 103.117C309.492 103.117 309.072 103.078 308.682 103C308.295 102.922 307.961 102.805 307.68 102.648V101.406C307.973 101.57 308.324 101.705 308.734 101.811C309.145 101.912 309.537 101.963 309.912 101.963C310.311 101.963 310.652 101.904 310.938 101.787C311.223 101.67 311.441 101.49 311.594 101.248C311.75 101.006 311.828 100.699 311.828 100.328C311.828 99.8359 311.67 99.457 311.354 99.1914C311.041 98.9219 310.551 98.7871 309.883 98.7871C309.648 98.7871 309.398 98.8086 309.133 98.8516C308.871 98.8906 308.652 98.9336 308.477 98.9805L307.873 98.623L308.195 94.4336H312.648V95.6465H309.408L309.221 97.7793C309.361 97.748 309.529 97.7188 309.725 97.6914C309.92 97.6602 310.162 97.6445 310.451 97.6445ZM320.207 98.7109C320.207 99.4023 320.152 100.021 320.043 100.568C319.938 101.111 319.77 101.572 319.539 101.951C319.309 102.33 319.008 102.619 318.637 102.818C318.266 103.018 317.816 103.117 317.289 103.117C316.629 103.117 316.084 102.943 315.654 102.596C315.225 102.244 314.906 101.74 314.699 101.084C314.492 100.424 314.389 99.6328 314.389 98.7109C314.389 97.7891 314.482 97 314.67 96.3438C314.861 95.6836 315.17 95.1777 315.596 94.8262C316.021 94.4746 316.586 94.2988 317.289 94.2988C317.953 94.2988 318.5 94.4746 318.93 94.8262C319.363 95.1738 319.684 95.6777 319.891 96.3379C320.102 96.9941 320.207 97.7852 320.207 98.7109ZM315.777 98.7109C315.777 99.4336 315.824 100.037 315.918 100.521C316.016 101.006 316.176 101.369 316.398 101.611C316.621 101.85 316.918 101.969 317.289 101.969C317.66 101.969 317.957 101.85 318.18 101.611C318.402 101.373 318.562 101.012 318.66 100.527C318.762 100.043 318.812 99.4375 318.812 98.7109C318.812 97.9922 318.764 97.3906 318.666 96.9062C318.568 96.4219 318.408 96.0586 318.186 95.8164C317.963 95.5703 317.664 95.4473 317.289 95.4473C316.914 95.4473 316.615 95.5703 316.393 95.8164C316.174 96.0586 316.016 96.4219 315.918 96.9062C315.824 97.3906 315.777 97.9922 315.777 98.7109ZM327.074 98.7109C327.074 99.4023 327.02 100.021 326.91 100.568C326.805 101.111 326.637 101.572 326.406 101.951C326.176 102.33 325.875 102.619 325.504 102.818C325.133 103.018 324.684 103.117 324.156 103.117C323.496 103.117 322.951 102.943 322.521 102.596C322.092 102.244 321.773 101.74 321.566 101.084C321.359 100.424 321.256 99.6328 321.256 98.7109C321.256 97.7891 321.35 97 321.537 96.3438C321.729 95.6836 322.037 95.1777 322.463 94.8262C322.889 94.4746 323.453 94.2988 324.156 94.2988C324.82 94.2988 325.367 94.4746 325.797 94.8262C326.23 95.1738 326.551 95.6777 326.758 96.3379C326.969 96.9941 327.074 97.7852 327.074 98.7109ZM322.645 98.7109C322.645 99.4336 322.691 100.037 322.785 100.521C322.883 101.006 323.043 101.369 323.266 101.611C323.488 101.85 323.785 101.969 324.156 101.969C324.527 101.969 324.824 101.85 325.047 101.611C325.27 101.373 325.43 101.012 325.527 100.527C325.629 100.043 325.68 99.4375 325.68 98.7109C325.68 97.9922 325.631 97.3906 325.533 96.9062C325.436 96.4219 325.275 96.0586 325.053 95.8164C324.83 95.5703 324.531 95.4473 324.156 95.4473C323.781 95.4473 323.482 95.5703 323.26 95.8164C323.041 96.0586 322.883 96.4219 322.785 96.9062C322.691 97.3906 322.645 97.9922 322.645 98.7109Z" fill="#212121"/>
<rect x="196.5" y="144.5" width="152" height="55" rx="27.5" stroke="#DFDFDF" stroke-dasharray="2 2"/>
<rect x="205" y="152" width="136" height="40" rx="20" fill="url(#paint4_radial_11696_49040)"/>
<path d="M223.591 177V168.068H220.322V166.878H227.98V168.068H224.893V177H223.591ZM236.484 177.14C235.989 177.14 235.52 177.082 235.077 176.965C234.633 176.844 234.23 176.664 233.866 176.426C233.506 176.188 233.208 175.894 232.97 175.544C232.736 175.189 232.589 174.779 232.529 174.312H233.887C233.971 174.695 234.136 175.017 234.384 175.278C234.636 175.539 234.946 175.735 235.315 175.866C235.688 175.997 236.096 176.062 236.54 176.062C236.969 176.062 237.363 175.994 237.723 175.859C238.087 175.724 238.378 175.528 238.598 175.271C238.817 175.01 238.927 174.697 238.927 174.333C238.927 173.932 238.796 173.61 238.535 173.367C238.273 173.12 237.87 172.921 237.324 172.772L235.238 172.233C234.766 172.116 234.349 171.953 233.985 171.743C233.625 171.528 233.343 171.248 233.138 170.903C232.932 170.553 232.83 170.119 232.83 169.601C232.83 169.027 232.988 168.528 233.306 168.103C233.623 167.674 234.052 167.342 234.594 167.109C235.14 166.871 235.756 166.752 236.442 166.752C237.235 166.752 237.902 166.89 238.444 167.165C238.99 167.44 239.403 167.802 239.683 168.25C239.963 168.698 240.103 169.176 240.103 169.685H238.773C238.731 169.223 238.595 168.859 238.367 168.593C238.138 168.322 237.853 168.129 237.513 168.012C237.172 167.891 236.801 167.83 236.4 167.83C235.676 167.83 235.128 167.996 234.755 168.327C234.386 168.654 234.202 169.043 234.202 169.496C234.202 169.911 234.335 170.238 234.601 170.476C234.867 170.714 235.259 170.898 235.777 171.029L237.807 171.554C238.409 171.694 238.887 171.897 239.242 172.163C239.601 172.429 239.858 172.739 240.012 173.094C240.17 173.444 240.25 173.824 240.25 174.235C240.25 174.795 240.093 175.294 239.781 175.733C239.468 176.172 239.029 176.517 238.465 176.769C237.905 177.016 237.244 177.14 236.484 177.14ZM245.226 177.14C244.554 177.14 243.961 176.993 243.448 176.699C242.934 176.405 242.533 175.983 242.244 175.432C241.954 174.881 241.81 174.221 241.81 173.451C241.81 172.69 241.94 172.023 242.202 171.449C242.463 170.875 242.841 170.427 243.336 170.105C243.835 169.783 244.435 169.622 245.135 169.622C245.816 169.622 246.392 169.769 246.864 170.063C247.335 170.357 247.692 170.772 247.935 171.309C248.182 171.841 248.306 172.473 248.306 173.206V173.682H243.119C243.119 174.139 243.193 174.555 243.343 174.928C243.497 175.297 243.728 175.591 244.036 175.81C244.344 176.029 244.733 176.139 245.205 176.139C245.667 176.139 246.063 176.032 246.395 175.817C246.731 175.602 246.945 175.292 247.039 174.886H248.257C248.173 175.376 247.977 175.789 247.669 176.125C247.365 176.461 246.999 176.715 246.57 176.888C246.145 177.056 245.697 177.14 245.226 177.14ZM243.126 172.807H247.06C247.06 172.392 246.99 172.018 246.85 171.687C246.71 171.351 246.495 171.087 246.206 170.896C245.921 170.7 245.562 170.602 245.128 170.602C244.675 170.602 244.299 170.712 244.001 170.931C243.702 171.146 243.48 171.423 243.336 171.764C243.191 172.1 243.121 172.448 243.126 172.807ZM250.096 177V169.762H251.328V171.155C251.45 170.81 251.62 170.525 251.839 170.301C252.059 170.072 252.308 169.902 252.588 169.79C252.873 169.678 253.167 169.622 253.47 169.622C253.578 169.622 253.683 169.629 253.785 169.643C253.888 169.657 253.967 169.68 254.023 169.713V170.966C253.953 170.933 253.862 170.912 253.75 170.903C253.643 170.889 253.552 170.882 253.477 170.882C253.188 170.863 252.917 170.882 252.665 170.938C252.413 170.989 252.192 171.08 252 171.211C251.809 171.342 251.657 171.514 251.545 171.729C251.438 171.939 251.384 172.196 251.384 172.499V177H250.096ZM255.6 177V169.762H256.853V177H255.6ZM255.565 168.229V166.885H256.888V168.229H255.565ZM262.083 177.14C261.411 177.14 260.818 176.993 260.305 176.699C259.792 176.405 259.39 175.983 259.101 175.432C258.812 174.881 258.667 174.221 258.667 173.451C258.667 172.69 258.798 172.023 259.059 171.449C259.32 170.875 259.698 170.427 260.193 170.105C260.692 169.783 261.292 169.622 261.992 169.622C262.673 169.622 263.25 169.769 263.721 170.063C264.192 170.357 264.549 170.772 264.792 171.309C265.039 171.841 265.163 172.473 265.163 173.206V173.682H259.976C259.976 174.139 260.051 174.555 260.2 174.928C260.354 175.297 260.585 175.591 260.893 175.81C261.201 176.029 261.591 176.139 262.062 176.139C262.524 176.139 262.921 176.032 263.252 175.817C263.588 175.602 263.803 175.292 263.896 174.886H265.114C265.03 175.376 264.834 175.789 264.526 176.125C264.223 176.461 263.856 176.715 263.427 176.888C263.002 177.056 262.554 177.14 262.083 177.14ZM259.983 172.807H263.917C263.917 172.392 263.847 172.018 263.707 171.687C263.567 171.351 263.352 171.087 263.063 170.896C262.778 170.7 262.419 170.602 261.985 170.602C261.532 170.602 261.157 170.712 260.858 170.931C260.559 171.146 260.338 171.423 260.193 171.764C260.048 172.1 259.978 172.448 259.983 172.807ZM269.517 177.14C269.013 177.14 268.544 177.063 268.11 176.909C267.68 176.75 267.323 176.505 267.039 176.174C266.754 175.838 266.577 175.411 266.507 174.893H267.683C267.743 175.178 267.86 175.416 268.033 175.607C268.205 175.794 268.418 175.936 268.67 176.034C268.926 176.127 269.206 176.174 269.51 176.174C270 176.174 270.394 176.083 270.693 175.901C270.991 175.719 271.141 175.439 271.141 175.061C271.141 174.795 271.061 174.583 270.903 174.424C270.749 174.261 270.506 174.142 270.175 174.067L268.677 173.696C268.093 173.556 267.627 173.337 267.277 173.038C266.931 172.739 266.756 172.322 266.752 171.785C266.752 171.36 266.854 170.987 267.06 170.665C267.265 170.343 267.571 170.089 267.977 169.902C268.387 169.715 268.898 169.622 269.51 169.622C270.298 169.622 270.933 169.799 271.414 170.154C271.894 170.504 272.146 171.02 272.17 171.701H271.022C270.975 171.356 270.821 171.083 270.56 170.882C270.298 170.677 269.944 170.574 269.496 170.574C269.038 170.574 268.663 170.667 268.369 170.854C268.079 171.036 267.935 171.321 267.935 171.708C267.935 171.965 268.037 172.168 268.243 172.317C268.453 172.462 268.756 172.583 269.153 172.681L270.609 173.045C270.94 173.134 271.215 173.25 271.435 173.395C271.654 173.54 271.827 173.701 271.953 173.878C272.079 174.055 272.167 174.242 272.219 174.438C272.275 174.629 272.303 174.814 272.303 174.991C272.303 175.434 272.193 175.817 271.974 176.139C271.754 176.456 271.437 176.704 271.022 176.881C270.606 177.054 270.105 177.14 269.517 177.14Z" fill="#212121"/>
<rect opacity="0.7" x="297" y="156" width="40" height="32" rx="16" fill="white"/>
<path d="M313.34 177H307.539V175.963L309.76 173.713C310.189 173.275 310.543 172.898 310.82 172.582C311.098 172.262 311.303 171.959 311.436 171.674C311.572 171.389 311.641 171.078 311.641 170.742C311.641 170.328 311.521 170.016 311.283 169.805C311.045 169.59 310.73 169.482 310.34 169.482C309.969 169.482 309.625 169.557 309.309 169.705C308.996 169.85 308.672 170.057 308.336 170.326L307.58 169.418C307.818 169.215 308.072 169.029 308.342 168.861C308.615 168.693 308.92 168.561 309.256 168.463C309.592 168.361 309.975 168.311 310.404 168.311C310.947 168.311 311.416 168.408 311.811 168.604C312.205 168.795 312.508 169.062 312.719 169.406C312.934 169.75 313.041 170.15 313.041 170.607C313.041 171.068 312.949 171.494 312.766 171.885C312.582 172.275 312.32 172.662 311.98 173.045C311.641 173.424 311.236 173.836 310.768 174.281L309.285 175.729V175.793H313.34V177ZM320.207 172.711C320.207 173.402 320.152 174.021 320.043 174.568C319.938 175.111 319.77 175.572 319.539 175.951C319.309 176.33 319.008 176.619 318.637 176.818C318.266 177.018 317.816 177.117 317.289 177.117C316.629 177.117 316.084 176.943 315.654 176.596C315.225 176.244 314.906 175.74 314.699 175.084C314.492 174.424 314.389 173.633 314.389 172.711C314.389 171.789 314.482 171 314.67 170.344C314.861 169.684 315.17 169.178 315.596 168.826C316.021 168.475 316.586 168.299 317.289 168.299C317.953 168.299 318.5 168.475 318.93 168.826C319.363 169.174 319.684 169.678 319.891 170.338C320.102 170.994 320.207 171.785 320.207 172.711ZM315.777 172.711C315.777 173.434 315.824 174.037 315.918 174.521C316.016 175.006 316.176 175.369 316.398 175.611C316.621 175.85 316.918 175.969 317.289 175.969C317.66 175.969 317.957 175.85 318.18 175.611C318.402 175.373 318.562 175.012 318.66 174.527C318.762 174.043 318.812 173.438 318.812 172.711C318.812 171.992 318.764 171.391 318.666 170.906C318.568 170.422 318.408 170.059 318.186 169.816C317.963 169.57 317.664 169.447 317.289 169.447C316.914 169.447 316.615 169.57 316.393 169.816C316.174 170.059 316.016 170.422 315.918 170.906C315.824 171.391 315.777 171.992 315.777 172.711ZM327.074 172.711C327.074 173.402 327.02 174.021 326.91 174.568C326.805 175.111 326.637 175.572 326.406 175.951C326.176 176.33 325.875 176.619 325.504 176.818C325.133 177.018 324.684 177.117 324.156 177.117C323.496 177.117 322.951 176.943 322.521 176.596C322.092 176.244 321.773 175.74 321.566 175.084C321.359 174.424 321.256 173.633 321.256 172.711C321.256 171.789 321.35 171 321.537 170.344C321.729 169.684 322.037 169.178 322.463 168.826C322.889 168.475 323.453 168.299 324.156 168.299C324.82 168.299 325.367 168.475 325.797 168.826C326.23 169.174 326.551 169.678 326.758 170.338C326.969 170.994 327.074 171.785 327.074 172.711ZM322.645 172.711C322.645 173.434 322.691 174.037 322.785 174.521C322.883 175.006 323.043 175.369 323.266 175.611C323.488 175.85 323.785 175.969 324.156 175.969C324.527 175.969 324.824 175.85 325.047 175.611C325.27 175.373 325.43 175.012 325.527 174.527C325.629 174.043 325.68 173.438 325.68 172.711C325.68 171.992 325.631 171.391 325.533 170.906C325.436 170.422 325.275 170.059 325.053 169.816C324.83 169.57 324.531 169.447 324.156 169.447C323.781 169.447 323.482 169.57 323.26 169.816C323.041 170.059 322.883 170.422 322.785 170.906C322.691 171.391 322.645 171.992 322.645 172.711Z" fill="#212121"/>
<rect x="196.5" y="218.5" width="152" height="55" rx="27.5" stroke="#DFDFDF" stroke-dasharray="2 2"/>
<rect x="205" y="226" width="136" height="40" rx="20" fill="url(#paint5_radial_11696_49040)"/>
<path d="M225.152 251.14C224.251 251.14 223.472 250.937 222.814 250.531C222.156 250.125 221.647 249.537 221.288 248.767C220.933 247.992 220.756 247.057 220.756 245.96C220.756 244.854 220.936 243.914 221.295 243.139C221.654 242.36 222.163 241.765 222.821 241.354C223.484 240.943 224.261 240.738 225.152 240.738C226.048 240.738 226.823 240.943 227.476 241.354C228.129 241.76 228.633 242.353 228.988 243.132C229.343 243.907 229.52 244.849 229.52 245.96C229.52 247.057 229.343 247.992 228.988 248.767C228.638 249.537 228.136 250.125 227.483 250.531C226.83 250.937 226.053 251.14 225.152 251.14ZM225.152 250.013C225.777 250.013 226.309 249.871 226.748 249.586C227.187 249.301 227.52 248.86 227.749 248.263C227.982 247.666 228.099 246.903 228.099 245.974C228.099 245.031 227.982 244.257 227.749 243.65C227.516 243.043 227.18 242.595 226.741 242.306C226.302 242.012 225.773 241.865 225.152 241.865C224.536 241.865 224.006 242.012 223.563 242.306C223.12 242.6 222.779 243.05 222.541 243.657C222.303 244.264 222.184 245.036 222.184 245.974C222.184 246.903 222.303 247.666 222.541 248.263C222.779 248.86 223.12 249.301 223.563 249.586C224.006 249.871 224.536 250.013 225.152 250.013ZM233.91 251.035C233.41 251.035 233.023 250.967 232.748 250.832C232.472 250.697 232.279 250.496 232.167 250.23C232.059 249.964 232.006 249.637 232.006 249.25V244.707H230.83V243.762H232.041L232.356 241.655H233.308V243.755H234.939V244.707H233.308V249.208C233.308 249.465 233.333 249.654 233.385 249.775C233.441 249.892 233.532 249.966 233.658 249.999C233.784 250.032 233.961 250.048 234.19 250.048H234.981V250.916C234.892 250.949 234.757 250.977 234.575 251C234.397 251.023 234.176 251.035 233.91 251.035ZM236.698 251V240.598H237.958V244.826C238.079 244.625 238.243 244.439 238.448 244.266C238.653 244.089 238.903 243.946 239.197 243.839C239.491 243.727 239.832 243.671 240.219 243.671C240.69 243.671 241.117 243.76 241.5 243.937C241.883 244.11 242.186 244.357 242.41 244.679C242.634 245.001 242.746 245.384 242.746 245.827V251H241.451V246.086C241.451 245.652 241.302 245.318 241.003 245.085C240.709 244.847 240.324 244.728 239.848 244.728C239.526 244.728 239.223 244.782 238.938 244.889C238.653 244.992 238.422 245.15 238.245 245.365C238.072 245.575 237.986 245.843 237.986 246.17V251H236.698ZM247.823 251.14C247.151 251.14 246.559 250.993 246.045 250.699C245.532 250.405 245.131 249.983 244.841 249.432C244.552 248.881 244.407 248.221 244.407 247.451C244.407 246.69 244.538 246.023 244.799 245.449C245.061 244.875 245.439 244.427 245.933 244.105C246.433 243.783 247.032 243.622 247.732 243.622C248.414 243.622 248.99 243.769 249.461 244.063C249.933 244.357 250.29 244.772 250.532 245.309C250.78 245.841 250.903 246.473 250.903 247.206V247.682H245.716C245.716 248.139 245.791 248.555 245.94 248.928C246.094 249.297 246.325 249.591 246.633 249.81C246.941 250.029 247.331 250.139 247.802 250.139C248.264 250.139 248.661 250.032 248.992 249.817C249.328 249.602 249.543 249.292 249.636 248.886H250.854C250.77 249.376 250.574 249.789 250.266 250.125C249.963 250.461 249.597 250.715 249.167 250.888C248.743 251.056 248.295 251.14 247.823 251.14ZM245.723 246.807H249.657C249.657 246.392 249.587 246.018 249.447 245.687C249.307 245.351 249.093 245.087 248.803 244.896C248.519 244.7 248.159 244.602 247.725 244.602C247.273 244.602 246.897 244.712 246.598 244.931C246.3 245.146 246.078 245.423 245.933 245.764C245.789 246.1 245.719 246.448 245.723 246.807ZM252.694 251V243.762H253.926V245.155C254.047 244.81 254.218 244.525 254.437 244.301C254.656 244.072 254.906 243.902 255.186 243.79C255.471 243.678 255.765 243.622 256.068 243.622C256.175 243.622 256.28 243.629 256.383 243.643C256.486 243.657 256.565 243.68 256.621 243.713V244.966C256.551 244.933 256.46 244.912 256.348 244.903C256.241 244.889 256.15 244.882 256.075 244.882C255.786 244.863 255.515 244.882 255.263 244.938C255.011 244.989 254.789 245.08 254.598 245.211C254.407 245.342 254.255 245.514 254.143 245.729C254.036 245.939 253.982 246.196 253.982 246.499V251H252.694ZM260.726 251.14C260.222 251.14 259.753 251.063 259.319 250.909C258.889 250.75 258.532 250.505 258.248 250.174C257.963 249.838 257.786 249.411 257.716 248.893H258.892C258.952 249.178 259.069 249.416 259.242 249.607C259.414 249.794 259.627 249.936 259.879 250.034C260.135 250.127 260.415 250.174 260.719 250.174C261.209 250.174 261.603 250.083 261.902 249.901C262.2 249.719 262.35 249.439 262.35 249.061C262.35 248.795 262.27 248.583 262.112 248.424C261.958 248.261 261.715 248.142 261.384 248.067L259.886 247.696C259.302 247.556 258.836 247.337 258.486 247.038C258.14 246.739 257.965 246.322 257.961 245.785C257.961 245.36 258.063 244.987 258.269 244.665C258.474 244.343 258.78 244.089 259.186 243.902C259.596 243.715 260.107 243.622 260.719 243.622C261.507 243.622 262.142 243.799 262.623 244.154C263.103 244.504 263.355 245.02 263.379 245.701H262.231C262.184 245.356 262.03 245.083 261.769 244.882C261.507 244.677 261.153 244.574 260.705 244.574C260.247 244.574 259.872 244.667 259.578 244.854C259.288 245.036 259.144 245.321 259.144 245.708C259.144 245.965 259.246 246.168 259.452 246.317C259.662 246.462 259.965 246.583 260.362 246.681L261.818 247.045C262.149 247.134 262.424 247.25 262.644 247.395C262.863 247.54 263.036 247.701 263.162 247.878C263.288 248.055 263.376 248.242 263.428 248.438C263.484 248.629 263.512 248.814 263.512 248.991C263.512 249.434 263.402 249.817 263.183 250.139C262.963 250.456 262.646 250.704 262.231 250.881C261.815 251.054 261.314 251.14 260.726 251.14Z" fill="#212121"/>
<rect opacity="0.7" x="297" y="230" width="40" height="32" rx="16" fill="white"/>
<path d="M313.34 251H307.539V249.963L309.76 247.713C310.189 247.275 310.543 246.898 310.82 246.582C311.098 246.262 311.303 245.959 311.436 245.674C311.572 245.389 311.641 245.078 311.641 244.742C311.641 244.328 311.521 244.016 311.283 243.805C311.045 243.59 310.73 243.482 310.34 243.482C309.969 243.482 309.625 243.557 309.309 243.705C308.996 243.85 308.672 244.057 308.336 244.326L307.58 243.418C307.818 243.215 308.072 243.029 308.342 242.861C308.615 242.693 308.92 242.561 309.256 242.463C309.592 242.361 309.975 242.311 310.404 242.311C310.947 242.311 311.416 242.408 311.811 242.604C312.205 242.795 312.508 243.062 312.719 243.406C312.934 243.75 313.041 244.15 313.041 244.607C313.041 245.068 312.949 245.494 312.766 245.885C312.582 246.275 312.32 246.662 311.98 247.045C311.641 247.424 311.236 247.836 310.768 248.281L309.285 249.729V249.793H313.34V251ZM320.207 246.711C320.207 247.402 320.152 248.021 320.043 248.568C319.938 249.111 319.77 249.572 319.539 249.951C319.309 250.33 319.008 250.619 318.637 250.818C318.266 251.018 317.816 251.117 317.289 251.117C316.629 251.117 316.084 250.943 315.654 250.596C315.225 250.244 314.906 249.74 314.699 249.084C314.492 248.424 314.389 247.633 314.389 246.711C314.389 245.789 314.482 245 314.67 244.344C314.861 243.684 315.17 243.178 315.596 242.826C316.021 242.475 316.586 242.299 317.289 242.299C317.953 242.299 318.5 242.475 318.93 242.826C319.363 243.174 319.684 243.678 319.891 244.338C320.102 244.994 320.207 245.785 320.207 246.711ZM315.777 246.711C315.777 247.434 315.824 248.037 315.918 248.521C316.016 249.006 316.176 249.369 316.398 249.611C316.621 249.85 316.918 249.969 317.289 249.969C317.66 249.969 317.957 249.85 318.18 249.611C318.402 249.373 318.562 249.012 318.66 248.527C318.762 248.043 318.812 247.438 318.812 246.711C318.812 245.992 318.764 245.391 318.666 244.906C318.568 244.422 318.408 244.059 318.186 243.816C317.963 243.57 317.664 243.447 317.289 243.447C316.914 243.447 316.615 243.57 316.393 243.816C316.174 244.059 316.016 244.422 315.918 244.906C315.824 245.391 315.777 245.992 315.777 246.711ZM327.074 246.711C327.074 247.402 327.02 248.021 326.91 248.568C326.805 249.111 326.637 249.572 326.406 249.951C326.176 250.33 325.875 250.619 325.504 250.818C325.133 251.018 324.684 251.117 324.156 251.117C323.496 251.117 322.951 250.943 322.521 250.596C322.092 250.244 321.773 249.74 321.566 249.084C321.359 248.424 321.256 247.633 321.256 246.711C321.256 245.789 321.35 245 321.537 244.344C321.729 243.684 322.037 243.178 322.463 242.826C322.889 242.475 323.453 242.299 324.156 242.299C324.82 242.299 325.367 242.475 325.797 242.826C326.23 243.174 326.551 243.678 326.758 244.338C326.969 244.994 327.074 245.785 327.074 246.711ZM322.645 246.711C322.645 247.434 322.691 248.037 322.785 248.521C322.883 249.006 323.043 249.369 323.266 249.611C323.488 249.85 323.785 249.969 324.156 249.969C324.527 249.969 324.824 249.85 325.047 249.611C325.27 249.373 325.43 249.012 325.527 248.527C325.629 248.043 325.68 247.438 325.68 246.711C325.68 245.992 325.631 245.391 325.533 244.906C325.436 244.422 325.275 244.059 325.053 243.816C324.83 243.57 324.531 243.447 324.156 243.447C323.781 243.447 323.482 243.57 323.26 243.816C323.041 244.059 322.883 244.422 322.785 244.906C322.691 245.391 322.645 245.992 322.645 246.711Z" fill="#212121"/>
<defs>
<radialGradient id="paint0_radial_11696_49040" cx="0" cy="0" r="1" gradientUnits="userSpaceOnUse" gradientTransform="translate(29 118) rotate(-16.3895) scale(141.76 53.9117)">
<stop stop-color="#FC90FF"/>
<stop offset="1" stop-color="white"/>
</radialGradient>
<radialGradient id="paint1_radial_11696_49040" cx="0" cy="0" r="1" gradientUnits="userSpaceOnUse" gradientTransform="translate(29 192) rotate(-16.3895) scale(141.76 53.9117)">
<stop stop-color="#DEFF67"/>
<stop offset="1" stop-color="white"/>
</radialGradient>
<radialGradient id="paint2_radial_11696_49040" cx="0" cy="0" r="1" gradientUnits="userSpaceOnUse" gradientTransform="translate(33.5 260.5) rotate(-14.7007) scale(135.95 51.7021)">
<stop stop-color="#A079FF"/>
<stop offset="1" stop-color="white"/>
</radialGradient>
<radialGradient id="paint3_radial_11696_49040" cx="0" cy="0" r="1" gradientUnits="userSpaceOnUse" gradientTransform="translate(209.5 112.5) rotate(-14.7007) scale(135.95 51.7021)">
<stop stop-color="#FFE501"/>
<stop offset="1" stop-color="white"/>
</radialGradient>
<radialGradient id="paint4_radial_11696_49040" cx="0" cy="0" r="1" gradientUnits="userSpaceOnUse" gradientTransform="translate(209.5 186.5) rotate(-14.7007) scale(135.95 51.7021)">
<stop stop-color="#65B2FF"/>
<stop offset="1" stop-color="white"/>
</radialGradient>
<radialGradient id="paint5_radial_11696_49040" cx="0" cy="0" r="1" gradientUnits="userSpaceOnUse" gradientTransform="translate(205 266) rotate(-16.3895) scale(141.76 53.9117)">
<stop stop-color="#CECECE"/>
<stop offset="1" stop-color="white"/>
</radialGradient>
</defs>
</svg>
