<svg width="92" height="92" viewBox="0 0 92 92" fill="none" xmlns="http://www.w3.org/2000/svg">
<rect x="0.389831" y="0.389831" width="91.079" height="91.2203" rx="17.5424" stroke="#BEBEBE" stroke-width="0.779661"/>
<path d="M46.3545 11.6953C65.3497 11.6953 80.7471 27.0229 80.7471 45.9287C80.747 64.8345 65.3496 80.1621 46.3545 80.1621C27.3593 80.1621 11.9619 64.8345 11.9619 45.9287C11.9619 27.0229 27.3593 11.6953 46.3545 11.6953Z" stroke="#EFEFEF" stroke-width="0.318452"/>
<path d="M23.9131 27.7516C20.581 31.863 18.4432 36.8114 17.7336 42.0557C17.0239 47.3 17.7696 52.6386 19.8892 57.4877" stroke="#CECECE" stroke-width="5.65007" stroke-linecap="round" stroke-linejoin="round"/>
<path d="M46.3535 22.8379C59.1933 22.838 69.5996 33.176 69.5996 45.9258C69.5995 58.6755 59.1932 69.0126 46.3535 69.0127C33.5137 69.0127 23.1066 58.6755 23.1064 45.9258C23.1064 33.1759 33.5136 22.8379 46.3535 22.8379Z" stroke="#EFEFEF" stroke-width="0.318452"/>
<g filter="url(#filter0_f_7590_115412)">
<ellipse cx="46.3554" cy="45.9296" rx="13.8535" ry="13.6942" fill="#F7F7F7"/>
</g>
<path d="M18.9756 55.1079C20.7175 60.3005 23.9007 64.8904 28.1536 68.3415" stroke="#A079FF" stroke-width="5.65007" stroke-linecap="round" stroke-linejoin="round"/>
<path d="M27.8973 68.1317C33.1608 72.5039 39.8064 74.8642 46.6486 74.7915" stroke="#65B2FF" stroke-width="5.65007" stroke-linecap="round" stroke-linejoin="round"/>
<path d="M47.6447 74.8759C53.9974 74.5894 60.0775 72.1982 64.9378 68.0748C69.798 63.9514 73.1656 58.3275 74.5158 52.079" stroke="#DEFF67" stroke-width="5.65007" stroke-linecap="round" stroke-linejoin="round"/>
<path d="M61.3511 21.2707C55.556 17.7427 48.7034 16.3687 41.9961 17.3899C35.2888 18.4111 29.1556 21.7622 24.673 26.855" stroke="#FC90FF" stroke-width="5.65007" stroke-linecap="round" stroke-linejoin="round"/>
<path d="M73.7456 54.9894C75.745 48.9422 75.6881 42.4034 73.5839 36.3917C71.4797 30.3801 67.4463 25.2332 62.112 21.7529" stroke="#FFE501" stroke-width="5.65007" stroke-linecap="round" stroke-linejoin="round"/>
<path opacity="0.3" d="M41.3122 45.1953L40.6613 42.903H40.6418C40.6476 42.9625 40.6534 43.0431 40.6592 43.1447C40.6664 43.2462 40.673 43.3558 40.6788 43.4734C40.6846 43.5909 40.6875 43.7041 40.6875 43.813V45.1953H39.9256V42.0127H41.0706L41.7346 44.2723H41.752L42.4029 42.0127H43.5501V45.1953H42.7599V43.7999C42.7599 43.6998 42.7613 43.5924 42.7642 43.4777C42.7686 43.3616 42.773 43.2528 42.7773 43.1512C42.7831 43.0481 42.7882 42.9669 42.7925 42.9074H42.773L42.1308 45.1953H41.3122ZM46.5412 43.9566C46.5412 44.1627 46.5129 44.3456 46.4563 44.5052C46.3997 44.6649 46.3177 44.7991 46.2103 44.908C46.1029 45.0168 45.973 45.0995 45.8206 45.1561C45.6683 45.2113 45.4963 45.2389 45.3047 45.2389C45.1262 45.2389 44.9622 45.2113 44.8127 45.1561C44.6647 45.0995 44.5355 45.0168 44.4252 44.908C44.3149 44.7991 44.2293 44.6649 44.1684 44.5052C44.1089 44.3456 44.0791 44.1627 44.0791 43.9566C44.0791 43.6838 44.1285 43.4531 44.2271 43.2644C44.3273 43.0757 44.4695 42.932 44.6538 42.8334C44.8396 42.7347 45.0609 42.6853 45.3178 42.6853C45.5543 42.6853 45.7648 42.7347 45.9491 42.8334C46.1334 42.932 46.2778 43.0757 46.3823 43.2644C46.4882 43.4531 46.5412 43.6838 46.5412 43.9566ZM44.9433 43.9566C44.9433 44.0974 44.9557 44.2164 44.9804 44.3137C45.005 44.4094 45.0442 44.4827 45.0979 44.5335C45.1531 44.5829 45.2249 44.6075 45.3134 44.6075C45.4019 44.6075 45.4723 44.5829 45.5246 44.5335C45.5768 44.4827 45.6146 44.4094 45.6378 44.3137C45.6625 44.2164 45.6748 44.0974 45.6748 43.9566C45.6748 43.8159 45.6625 43.6983 45.6378 43.604C45.6146 43.5097 45.5761 43.4385 45.5224 43.3906C45.4702 43.3428 45.399 43.3188 45.3091 43.3188C45.1799 43.3188 45.0863 43.3725 45.0282 43.4799C44.9716 43.5873 44.9433 43.7462 44.9433 43.9566ZM47.7951 45.2389C47.5411 45.2389 47.3321 45.1307 47.1682 44.9145C47.0042 44.6982 46.9222 44.3819 46.9222 43.9654C46.9222 43.5445 47.0063 43.2259 47.1747 43.0097C47.343 42.7934 47.5607 42.6853 47.8278 42.6853C47.9381 42.6853 48.0331 42.7013 48.1129 42.7332C48.1928 42.7651 48.2617 42.8087 48.3197 42.8638C48.3792 42.9175 48.4308 42.9785 48.4743 43.0467H48.4917C48.4816 42.9843 48.4721 42.8987 48.4634 42.7898C48.4547 42.6795 48.4504 42.5721 48.4504 42.4676V41.808H49.3081V45.1953H48.6659L48.483 44.884H48.4504C48.4112 44.9493 48.3618 45.0088 48.3023 45.0625C48.2443 45.1162 48.1732 45.159 48.089 45.191C48.0063 45.2229 47.9083 45.2389 47.7951 45.2389ZM48.1434 44.5662C48.2798 44.5662 48.3756 44.5234 48.4308 44.4377C48.4874 44.3507 48.5178 44.2186 48.5222 44.0415V43.9741C48.5222 43.7796 48.4946 43.6308 48.4395 43.5278C48.3858 43.4233 48.2842 43.3711 48.1347 43.3711C48.0331 43.3711 47.9489 43.4204 47.8822 43.5191C47.8154 43.6178 47.782 43.7709 47.782 43.9784C47.782 44.183 47.8154 44.3325 47.8822 44.4269C47.9504 44.5197 48.0375 44.5662 48.1434 44.5662ZM51.0082 42.6853C51.2477 42.6853 51.4545 42.7274 51.6287 42.8116C51.8028 42.8943 51.937 43.0191 52.0314 43.186C52.1257 43.3529 52.1729 43.5619 52.1729 43.813V44.1918H50.6512C50.6585 44.3209 50.7064 44.4269 50.7949 44.5096C50.8849 44.5923 51.0169 44.6337 51.1911 44.6337C51.3449 44.6337 51.4857 44.6184 51.6134 44.588C51.7426 44.5575 51.8754 44.5103 52.0118 44.4465V45.0582C51.8928 45.1206 51.7629 45.1663 51.6221 45.1953C51.4813 45.2243 51.3036 45.2389 51.0888 45.2389C50.8406 45.2389 50.6186 45.1946 50.4226 45.1061C50.2267 45.0175 50.0722 44.8804 49.959 44.6946C49.8472 44.5089 49.7913 44.2701 49.7913 43.9784C49.7913 43.6824 49.8421 43.4393 49.9437 43.2491C50.0453 43.0576 50.1875 42.9161 50.3704 42.8247C50.5533 42.7318 50.7659 42.6853 51.0082 42.6853ZM51.0387 43.2644C50.9386 43.2644 50.8544 43.2963 50.7862 43.3602C50.7194 43.4226 50.6802 43.5213 50.6686 43.6562H51.4001C51.3986 43.5837 51.3841 43.5176 51.3565 43.4581C51.329 43.3986 51.2883 43.3515 51.2346 43.3166C51.1824 43.2818 51.1171 43.2644 51.0387 43.2644ZM53.5052 45.1953H52.654V41.808H53.5052V45.1953ZM41.7955 51.1953H40.9356V48.7158H40.1585V48.0127H42.5705V48.7158H41.7955V51.1953ZM42.6772 48.7289H43.5741L43.992 50.1439C43.9978 50.1642 44.0036 50.1896 44.0094 50.2201C44.0153 50.2491 44.0203 50.2803 44.0247 50.3137C44.029 50.347 44.0319 50.3797 44.0334 50.4116H44.0508C44.0581 50.3521 44.066 50.3006 44.0748 50.2571C44.0849 50.2121 44.0943 50.1758 44.1031 50.1482L44.5319 48.7289H45.4005L44.4252 51.3521C44.3498 51.5523 44.262 51.7199 44.1618 51.8549C44.0631 51.9913 43.9405 52.0937 43.7939 52.1619C43.6488 52.2315 43.4681 52.2664 43.2519 52.2664C43.1735 52.2664 43.106 52.262 43.0494 52.2533C42.9943 52.246 42.9457 52.2381 42.9036 52.2293V51.561C42.9355 51.5668 42.9747 51.5726 43.0211 51.5784C43.0676 51.5843 43.1162 51.5872 43.167 51.5872C43.2613 51.5872 43.3375 51.5683 43.3956 51.5306C43.4551 51.4928 43.5037 51.4428 43.5414 51.3804C43.5791 51.3194 43.6118 51.2534 43.6394 51.1823L43.6481 51.1605L42.6772 48.7289ZM47.203 48.6853C47.4758 48.6853 47.6899 48.7949 47.8452 49.014C48.0005 49.2317 48.0781 49.5459 48.0781 49.9566C48.0781 50.2367 48.0389 50.4726 47.9605 50.6641C47.8822 50.8543 47.7748 50.9979 47.6384 51.0952C47.5034 51.191 47.3496 51.2389 47.1769 51.2389C47.0608 51.2389 46.9621 51.2243 46.8808 51.1953C46.801 51.1663 46.7342 51.13 46.6805 51.0865C46.6283 51.0429 46.584 50.9987 46.5477 50.9537H46.5216C46.5289 51.0103 46.5347 51.0712 46.539 51.1365C46.5448 51.2018 46.5477 51.278 46.5477 51.3651V52.2664H45.6966V48.7289H46.3888L46.5085 49.0423H46.5477C46.5884 48.9785 46.6377 48.9197 46.6958 48.866C46.7538 48.8109 46.8242 48.7673 46.9069 48.7354C46.9911 48.702 47.0898 48.6853 47.203 48.6853ZM46.883 49.3536C46.8003 49.3536 46.7349 49.3732 46.6871 49.4124C46.6392 49.4516 46.6043 49.5111 46.5826 49.5909C46.5622 49.6693 46.5506 49.7673 46.5477 49.8848V49.9523C46.5477 50.0829 46.5579 50.1932 46.5782 50.2832C46.5985 50.3717 46.6334 50.4392 46.6827 50.4856C46.732 50.5306 46.8003 50.5531 46.8873 50.5531C46.9584 50.5531 47.0179 50.5328 47.0658 50.4922C47.1137 50.4515 47.15 50.387 47.1747 50.2984C47.1994 50.2099 47.2117 50.0931 47.2117 49.9479C47.2117 49.7317 47.1834 49.5786 47.1268 49.4886C47.0716 49.3986 46.9904 49.3536 46.883 49.3536ZM49.676 48.6853C49.9154 48.6853 50.1222 48.7274 50.2964 48.8116C50.4705 48.8943 50.6048 49.0191 50.6991 49.186C50.7934 49.3529 50.8406 49.5619 50.8406 49.813V50.1918H49.3189C49.3262 50.3209 49.3741 50.4269 49.4626 50.5096C49.5526 50.5923 49.6847 50.6337 49.8588 50.6337C50.0127 50.6337 50.1534 50.6184 50.2811 50.588C50.4103 50.5575 50.5431 50.5103 50.6795 50.4465V51.0582C50.5605 51.1206 50.4306 51.1663 50.2898 51.1953C50.1491 51.2243 49.9713 51.2389 49.7565 51.2389C49.5083 51.2389 49.2863 51.1946 49.0904 51.1061C48.8944 51.0175 48.7399 50.8804 48.6267 50.6946C48.5149 50.5089 48.4591 50.2701 48.4591 49.9784C48.4591 49.6824 48.5099 49.4393 48.6114 49.2491C48.713 49.0576 48.8553 48.9161 49.0381 48.8247C49.221 48.7318 49.4336 48.6853 49.676 48.6853ZM49.7064 49.2644C49.6063 49.2644 49.5221 49.2963 49.4539 49.3602C49.3872 49.4226 49.348 49.5213 49.3364 49.6562H50.0678C50.0664 49.5837 50.0518 49.5176 50.0243 49.4581C49.9967 49.3986 49.9561 49.3515 49.9024 49.3166C49.8501 49.2818 49.7848 49.2644 49.7064 49.2644ZM53.1547 50.4377C53.1547 50.5945 53.1198 50.7331 53.0502 50.8535C52.9805 50.974 52.8688 51.0683 52.7149 51.1365C52.5625 51.2047 52.3615 51.2389 52.1119 51.2389C51.9363 51.2389 51.7789 51.2294 51.6395 51.2106C51.5017 51.1917 51.3616 51.1554 51.2194 51.1017V50.4203C51.3747 50.4914 51.5329 50.543 51.694 50.5749C51.8551 50.6054 51.982 50.6206 52.0749 50.6206C52.1707 50.6206 52.2404 50.6104 52.2839 50.5901C52.3289 50.5684 52.3514 50.5364 52.3514 50.4943C52.3514 50.4581 52.3362 50.4276 52.3057 50.4029C52.2766 50.3768 52.2237 50.347 52.1468 50.3137C52.0713 50.2803 51.9646 50.2353 51.8268 50.1787C51.6903 50.1221 51.5764 50.0604 51.485 49.9937C51.395 49.9269 51.3275 49.8471 51.2825 49.7542C51.2375 49.6613 51.215 49.5474 51.215 49.4124C51.215 49.1715 51.3079 48.9901 51.4937 48.8682C51.6794 48.7463 51.9254 48.6853 52.2317 48.6853C52.3942 48.6853 52.5473 48.7035 52.691 48.7398C52.8347 48.7746 52.9834 48.8261 53.1373 48.8943L52.9043 49.4429C52.7824 49.3877 52.6591 49.3435 52.5342 49.3101C52.4094 49.2767 52.31 49.26 52.236 49.26C52.1693 49.26 52.1177 49.2687 52.0815 49.2862C52.0452 49.3036 52.027 49.329 52.027 49.3623C52.027 49.3928 52.0394 49.4197 52.064 49.4429C52.0902 49.4661 52.1388 49.493 52.2099 49.5234C52.281 49.5539 52.3848 49.5967 52.5212 49.6519C52.6649 49.7099 52.7831 49.7723 52.876 49.8391C52.9704 49.9044 53.04 49.9842 53.085 50.0786C53.1315 50.1729 53.1547 50.2926 53.1547 50.4377Z" fill="#090909"/>
<defs>
<filter id="filter0_f_7590_115412" x="29.4448" y="29.1782" width="33.8213" height="33.5029" filterUnits="userSpaceOnUse" color-interpolation-filters="sRGB">
<feFlood flood-opacity="0" result="BackgroundImageFix"/>
<feBlend mode="normal" in="SourceGraphic" in2="BackgroundImageFix" result="shape"/>
<feGaussianBlur stdDeviation="1.52857" result="effect1_foregroundBlur_7590_115412"/>
</filter>
</defs>
</svg>
