<svg width="92" height="92" viewBox="0 0 92 92" fill="none" xmlns="http://www.w3.org/2000/svg">
<rect x="0.389831" y="0.389831" width="91.079" height="91.2203" rx="17.5424" stroke="#BEBEBE" stroke-width="0.779661"/>
<line x1="11.0001" y1="66.2711" x2="81.0001" y2="65.7849" stroke="url(#paint0_linear_7712_53105)" stroke-width="0.243056"/>
<circle cx="59.8559" cy="65.9086" r="1.21528" fill="#ACACAC"/>
<line x1="59.8569" y1="61.7773" x2="59.8569" y2="66.3954" stroke="#ACACAC" stroke-width="0.243056"/>
<g clip-path="url(#clip0_7712_53105)">
<mask id="mask0_7712_53105" style="mask-type:alpha" maskUnits="userSpaceOnUse" x="50" y="10" width="20" height="57">
<path d="M54.3864 66.0723C52.1758 66.0723 50.3838 64.2802 50.3838 62.0697L50.3838 12.7401C50.3838 11.4769 51.4078 10.4529 52.671 10.4529L67.2925 10.4529C68.5557 10.4529 69.5797 11.4769 69.5797 12.7401L69.5797 62.0697C69.5797 64.2802 67.7877 66.0723 65.5771 66.0723L54.3864 66.0723Z" fill="#EDEDED"/>
</mask>
<g mask="url(#mask0_7712_53105)">
<line y1="-0.261188" x2="26.7419" y2="-0.261188" transform="matrix(-0.911714 -0.410825 -0.911714 0.410825 72.1719 72.5586)" stroke="#ACACAC" stroke-width="0.522375"/>
<line y1="-0.261188" x2="26.7419" y2="-0.261188" transform="matrix(-0.911714 -0.410825 -0.911714 0.410825 72.1719 71.1348)" stroke="#ACACAC" stroke-width="0.522375"/>
<line y1="-0.261188" x2="26.7419" y2="-0.261188" transform="matrix(-0.911714 -0.410825 -0.911714 0.410825 72.1719 69.7148)" stroke="#ACACAC" stroke-width="0.522375"/>
<line y1="-0.261188" x2="26.7419" y2="-0.261188" transform="matrix(-0.911714 -0.410825 -0.911714 0.410825 72.1719 68.293)" stroke="#ACACAC" stroke-width="0.522375"/>
<line y1="-0.261188" x2="26.7419" y2="-0.261188" transform="matrix(-0.911714 -0.410825 -0.911714 0.410825 72.1719 66.873)" stroke="#ACACAC" stroke-width="0.522375"/>
<line y1="-0.261188" x2="26.7419" y2="-0.261188" transform="matrix(-0.911714 -0.410825 -0.911714 0.410825 72.1719 65.4492)" stroke="#ACACAC" stroke-width="0.522375"/>
<line y1="-0.261188" x2="26.7419" y2="-0.261188" transform="matrix(-0.911714 -0.410825 -0.911714 0.410825 72.1719 64.0293)" stroke="#ACACAC" stroke-width="0.522375"/>
<line y1="-0.261188" x2="26.7419" y2="-0.261188" transform="matrix(-0.911714 -0.410825 -0.911714 0.410825 72.1719 62.6074)" stroke="#ACACAC" stroke-width="0.522375"/>
<line y1="-0.261188" x2="26.7419" y2="-0.261188" transform="matrix(-0.911714 -0.410825 -0.911714 0.410825 72.1719 61.1875)" stroke="#ACACAC" stroke-width="0.522375"/>
<line y1="-0.261188" x2="26.7419" y2="-0.261188" transform="matrix(-0.911714 -0.410825 -0.911714 0.410825 72.1719 59.7637)" stroke="#ACACAC" stroke-width="0.522375"/>
<line y1="-0.261188" x2="26.7419" y2="-0.261188" transform="matrix(-0.911714 -0.410825 -0.911714 0.410825 72.1719 58.3438)" stroke="#ACACAC" stroke-width="0.522375"/>
<line y1="-0.261188" x2="26.7419" y2="-0.261188" transform="matrix(-0.911714 -0.410825 -0.911714 0.410825 72.1719 56.9238)" stroke="#ACACAC" stroke-width="0.522375"/>
<line y1="-0.261188" x2="26.7419" y2="-0.261188" transform="matrix(-0.911714 -0.410825 -0.911714 0.410825 72.1719 55.5)" stroke="#ACACAC" stroke-width="0.522375"/>
<line y1="-0.261188" x2="26.7419" y2="-0.261188" transform="matrix(-0.911714 -0.410825 -0.911714 0.410825 72.1719 54.0801)" stroke="#ACACAC" stroke-width="0.522375"/>
<line y1="-0.261188" x2="26.7419" y2="-0.261188" transform="matrix(-0.911714 -0.410825 -0.911714 0.410825 72.1719 52.6582)" stroke="#ACACAC" stroke-width="0.522375"/>
<line y1="-0.261188" x2="26.7419" y2="-0.261188" transform="matrix(-0.911714 -0.410825 -0.911714 0.410825 72.1719 51.2363)" stroke="#ACACAC" stroke-width="0.522375"/>
<line y1="-0.261188" x2="26.7419" y2="-0.261188" transform="matrix(-0.911714 -0.410825 -0.911714 0.410825 72.1719 49.8145)" stroke="#ACACAC" stroke-width="0.522375"/>
<line y1="-0.261188" x2="26.7419" y2="-0.261188" transform="matrix(-0.911714 -0.410825 -0.911714 0.410825 72.1719 48.3945)" stroke="#ACACAC" stroke-width="0.522375"/>
<line y1="-0.261188" x2="26.7419" y2="-0.261188" transform="matrix(-0.911714 -0.410825 -0.911714 0.410825 72.1719 46.9746)" stroke="#ACACAC" stroke-width="0.522375"/>
<line y1="-0.261188" x2="26.7419" y2="-0.261188" transform="matrix(-0.911714 -0.410825 -0.911714 0.410825 72.1719 45.5508)" stroke="#ACACAC" stroke-width="0.522375"/>
<line y1="-0.261188" x2="26.7419" y2="-0.261188" transform="matrix(-0.911714 -0.410825 -0.911714 0.410825 72.1719 44.1309)" stroke="#ACACAC" stroke-width="0.522375"/>
<line y1="-0.261188" x2="26.7419" y2="-0.261188" transform="matrix(-0.911714 -0.410825 -0.911714 0.410825 72.1719 42.709)" stroke="#ACACAC" stroke-width="0.522375"/>
<line y1="-0.261188" x2="26.7419" y2="-0.261188" transform="matrix(-0.911714 -0.410825 -0.911714 0.410825 72.1719 41.2871)" stroke="#ACACAC" stroke-width="0.522375"/>
<line y1="-0.261188" x2="26.7419" y2="-0.261188" transform="matrix(-0.911714 -0.410825 -0.911714 0.410825 72.1719 39.8652)" stroke="#ACACAC" stroke-width="0.522375"/>
<line y1="-0.261188" x2="26.7419" y2="-0.261188" transform="matrix(-0.911714 -0.410825 -0.911714 0.410825 72.1719 38.4453)" stroke="#ACACAC" stroke-width="0.522375"/>
<line y1="-0.261188" x2="26.7419" y2="-0.261188" transform="matrix(-0.911714 -0.410825 -0.911714 0.410825 72.1719 37.0234)" stroke="#ACACAC" stroke-width="0.522375"/>
<line y1="-0.261188" x2="26.7419" y2="-0.261188" transform="matrix(-0.911714 -0.410825 -0.911714 0.410825 72.1719 35.6035)" stroke="#ACACAC" stroke-width="0.522375"/>
<line y1="-0.261188" x2="26.7419" y2="-0.261188" transform="matrix(-0.911714 -0.410825 -0.911714 0.410825 72.1719 34.1797)" stroke="#ACACAC" stroke-width="0.522375"/>
<line y1="-0.261188" x2="26.7419" y2="-0.261188" transform="matrix(-0.911714 -0.410825 -0.911714 0.410825 72.1719 32.7598)" stroke="#ACACAC" stroke-width="0.522375"/>
<line y1="-0.261188" x2="26.7419" y2="-0.261188" transform="matrix(-0.911714 -0.410825 -0.911714 0.410825 72.1719 31.3398)" stroke="#ACACAC" stroke-width="0.522375"/>
<line y1="-0.261188" x2="26.7419" y2="-0.261188" transform="matrix(-0.911714 -0.410825 -0.911714 0.410825 72.1719 29.916)" stroke="#ACACAC" stroke-width="0.522375"/>
<line y1="-0.261188" x2="26.7419" y2="-0.261188" transform="matrix(-0.911714 -0.410825 -0.911714 0.410825 72.1719 28.4961)" stroke="#ACACAC" stroke-width="0.522375"/>
<line y1="-0.261188" x2="26.7419" y2="-0.261188" transform="matrix(-0.911714 -0.410825 -0.911714 0.410825 72.1719 27.0742)" stroke="#ACACAC" stroke-width="0.522375"/>
<line y1="-0.261188" x2="26.7419" y2="-0.261188" transform="matrix(-0.911714 -0.410825 -0.911714 0.410825 72.1719 25.6523)" stroke="#ACACAC" stroke-width="0.522375"/>
<line y1="-0.261188" x2="26.7419" y2="-0.261188" transform="matrix(-0.911714 -0.410825 -0.911714 0.410825 72.1719 24.2305)" stroke="#ACACAC" stroke-width="0.522375"/>
<line y1="-0.261188" x2="26.7419" y2="-0.261188" transform="matrix(-0.911714 -0.410825 -0.911714 0.410825 72.1719 22.8105)" stroke="#ACACAC" stroke-width="0.522375"/>
<line y1="-0.261188" x2="26.7419" y2="-0.261188" transform="matrix(-0.911714 -0.410825 -0.911714 0.410825 72.1719 21.3887)" stroke="#ACACAC" stroke-width="0.522375"/>
<line y1="-0.261188" x2="26.7419" y2="-0.261188" transform="matrix(-0.911714 -0.410825 -0.911714 0.410825 72.1719 19.9688)" stroke="#ACACAC" stroke-width="0.522375"/>
</g>
</g>
<path d="M50.499 57.8887L50.499 22.8887C50.499 20.8081 52.186 19.1212 54.2666 19.1211L65.6904 19.1211C67.7711 19.1211 69.458 20.808 69.458 22.8887L69.458 57.8887C69.4579 59.9692 67.771 61.6562 65.6904 61.6562L54.2666 61.6562C52.1861 61.6561 50.4991 59.9692 50.499 57.8887Z" stroke="#ACACAC" stroke-width="0.243056"/>
<rect x="52.8086" y="49.623" width="14.3403" height="9.72222" rx="2.43056" fill="#ACACAC"/>
<path d="M58.633 56.2695H56.7531V55.9334L57.4728 55.2043C57.6121 55.0625 57.7266 54.9403 57.8165 54.8378C57.9064 54.734 57.9729 54.6359 58.0159 54.5435C58.0602 54.451 58.0824 54.3504 58.0824 54.2415C58.0824 54.1073 58.0437 54.0061 57.9665 53.9377C57.8893 53.8681 57.7874 53.8333 57.6608 53.8333C57.5405 53.8333 57.4291 53.8573 57.3266 53.9054C57.2253 53.9523 57.1203 54.0194 57.0114 54.1067L56.7664 53.8124C56.8437 53.7466 56.9259 53.6864 57.0133 53.632C57.1019 53.5776 57.2006 53.5345 57.3095 53.5029C57.4184 53.47 57.5424 53.4535 57.6817 53.4535C57.8577 53.4535 58.0096 53.4852 58.1374 53.5484C58.2653 53.6105 58.3634 53.6972 58.4317 53.8086C58.5014 53.92 58.5362 54.0498 58.5362 54.1979C58.5362 54.3472 58.5064 54.4852 58.4469 54.6118C58.3874 54.7384 58.3026 54.8637 58.1925 54.9878C58.0824 55.1106 57.9513 55.2441 57.7994 55.3885L57.319 55.8575V55.8784H58.633V56.2695ZM59.0584 56.0341C59.0584 55.9303 59.085 55.8575 59.1381 55.8157C59.1926 55.7727 59.2584 55.7511 59.3356 55.7511C59.4128 55.7511 59.4787 55.7727 59.5331 55.8157C59.5888 55.8575 59.6166 55.9303 59.6166 56.0341C59.6166 56.1353 59.5888 56.2088 59.5331 56.2543C59.4787 56.2986 59.4128 56.3208 59.3356 56.3208C59.2584 56.3208 59.1926 56.2986 59.1381 56.2543C59.085 56.2088 59.0584 56.1353 59.0584 56.0341ZM60.9895 54.534C61.168 54.534 61.325 54.5662 61.4604 54.6308C61.5972 54.6941 61.7035 54.7878 61.7795 54.9118C61.8554 55.0346 61.8934 55.1853 61.8934 55.3638C61.8934 55.5587 61.8522 55.7271 61.77 55.8689C61.6877 56.0094 61.5668 56.1176 61.4073 56.1936C61.2478 56.2695 61.0535 56.3075 60.8243 56.3075C60.6787 56.3075 60.5427 56.2948 60.4161 56.2695C60.2907 56.2442 60.1825 56.2062 60.0914 56.1556V55.753C60.1863 55.8062 60.3002 55.8499 60.4332 55.8841C60.5661 55.917 60.6933 55.9334 60.8148 55.9334C60.944 55.9334 61.0547 55.9144 61.1471 55.8765C61.2395 55.8385 61.3104 55.7803 61.3598 55.7018C61.4104 55.6233 61.4358 55.5239 61.4358 55.4036C61.4358 55.2441 61.3845 55.1213 61.282 55.0353C61.1807 54.9479 61.0218 54.9042 60.8053 54.9042C60.7294 54.9042 60.6484 54.9112 60.5623 54.9251C60.4775 54.9378 60.4066 54.9517 60.3496 54.9669L60.154 54.8511L60.2585 53.4934H61.7016V53.8864H60.6515L60.5908 54.5776C60.6363 54.5675 60.6908 54.558 60.7541 54.5492C60.8174 54.539 60.8959 54.534 60.9895 54.534ZM62.4612 56.2695V53.4934H62.9169V55.8822H64.0961V56.2695H62.4612Z" fill="white"/>
<circle cx="31.9028" cy="65.9047" r="1.21528" fill="#B984FF"/>
<line x1="31.9038" y1="61.7734" x2="31.9038" y2="66.3915" stroke="#B984FF" stroke-width="0.243056"/>
<g clip-path="url(#clip1_7712_53105)">
<mask id="mask1_7712_53105" style="mask-type:alpha" maskUnits="userSpaceOnUse" x="22" y="10" width="20" height="57">
<path d="M26.4303 66.0664C24.2198 66.0664 22.4277 64.2744 22.4277 62.0638L22.4277 12.7342C22.4277 11.4711 23.4517 10.447 24.7149 10.447L39.3365 10.447C40.5997 10.447 41.6237 11.4711 41.6237 12.7342L41.6237 62.0638C41.6237 64.2744 39.8317 66.0664 37.6211 66.0664L26.4303 66.0664Z" fill="#EDEDED"/>
</mask>
<g mask="url(#mask1_7712_53105)">
<line y1="-0.261188" x2="26.7419" y2="-0.261188" transform="matrix(-0.911714 -0.410825 -0.911714 0.410825 44.2168 72.5625)" stroke="#C9B3FF" stroke-width="0.522375"/>
<line y1="-0.261188" x2="26.7419" y2="-0.261188" transform="matrix(-0.911714 -0.410825 -0.911714 0.410825 44.2168 71.1387)" stroke="#C9B3FF" stroke-width="0.522375"/>
<line y1="-0.261188" x2="26.7419" y2="-0.261188" transform="matrix(-0.911714 -0.410825 -0.911714 0.410825 44.2168 69.7188)" stroke="#C9B3FF" stroke-width="0.522375"/>
<line y1="-0.261188" x2="26.7419" y2="-0.261188" transform="matrix(-0.911714 -0.410825 -0.911714 0.410825 44.2168 68.2969)" stroke="#C9B3FF" stroke-width="0.522375"/>
<line y1="-0.261188" x2="26.7419" y2="-0.261188" transform="matrix(-0.911714 -0.410825 -0.911714 0.410825 44.2168 66.877)" stroke="#C9B3FF" stroke-width="0.522375"/>
<line y1="-0.261188" x2="26.7419" y2="-0.261188" transform="matrix(-0.911714 -0.410825 -0.911714 0.410825 44.2168 65.4531)" stroke="#C9B3FF" stroke-width="0.522375"/>
<line y1="-0.261188" x2="26.7419" y2="-0.261188" transform="matrix(-0.911714 -0.410825 -0.911714 0.410825 44.2168 64.0332)" stroke="#C9B3FF" stroke-width="0.522375"/>
<line y1="-0.261188" x2="26.7419" y2="-0.261188" transform="matrix(-0.911714 -0.410825 -0.911714 0.410825 44.2168 62.6113)" stroke="#C9B3FF" stroke-width="0.522375"/>
<line y1="-0.261188" x2="26.7419" y2="-0.261188" transform="matrix(-0.911714 -0.410825 -0.911714 0.410825 44.2168 61.1914)" stroke="#C9B3FF" stroke-width="0.522375"/>
<line y1="-0.261188" x2="26.7419" y2="-0.261188" transform="matrix(-0.911714 -0.410825 -0.911714 0.410825 44.2168 59.7676)" stroke="#C9B3FF" stroke-width="0.522375"/>
<line y1="-0.261188" x2="26.7419" y2="-0.261188" transform="matrix(-0.911714 -0.410825 -0.911714 0.410825 44.2168 58.3477)" stroke="#C9B3FF" stroke-width="0.522375"/>
<line y1="-0.261188" x2="26.7419" y2="-0.261188" transform="matrix(-0.911714 -0.410825 -0.911714 0.410825 44.2168 56.9277)" stroke="#C9B3FF" stroke-width="0.522375"/>
<line y1="-0.261188" x2="26.7419" y2="-0.261188" transform="matrix(-0.911714 -0.410825 -0.911714 0.410825 44.2168 55.5039)" stroke="#C9B3FF" stroke-width="0.522375"/>
<line y1="-0.261188" x2="26.7419" y2="-0.261188" transform="matrix(-0.911714 -0.410825 -0.911714 0.410825 44.2168 54.084)" stroke="#C9B3FF" stroke-width="0.522375"/>
<line y1="-0.261188" x2="26.7419" y2="-0.261188" transform="matrix(-0.911714 -0.410825 -0.911714 0.410825 44.2168 52.6621)" stroke="#C9B3FF" stroke-width="0.522375"/>
<line y1="-0.261188" x2="26.7419" y2="-0.261188" transform="matrix(-0.911714 -0.410825 -0.911714 0.410825 44.2168 51.2402)" stroke="#C9B3FF" stroke-width="0.522375"/>
<line y1="-0.261188" x2="26.7419" y2="-0.261188" transform="matrix(-0.911714 -0.410825 -0.911714 0.410825 44.2168 49.8184)" stroke="#C9B3FF" stroke-width="0.522375"/>
<line y1="-0.261188" x2="26.7419" y2="-0.261188" transform="matrix(-0.911714 -0.410825 -0.911714 0.410825 44.2168 48.3984)" stroke="#C9B3FF" stroke-width="0.522375"/>
<line y1="-0.261188" x2="26.7419" y2="-0.261188" transform="matrix(-0.911714 -0.410825 -0.911714 0.410825 44.2168 46.9785)" stroke="#C9B3FF" stroke-width="0.522375"/>
<line y1="-0.261188" x2="26.7419" y2="-0.261188" transform="matrix(-0.911714 -0.410825 -0.911714 0.410825 44.2168 45.5547)" stroke="#C9B3FF" stroke-width="0.522375"/>
<line y1="-0.261188" x2="26.7419" y2="-0.261188" transform="matrix(-0.911714 -0.410825 -0.911714 0.410825 44.2168 44.1348)" stroke="#C9B3FF" stroke-width="0.522375"/>
<line y1="-0.261188" x2="26.7419" y2="-0.261188" transform="matrix(-0.911714 -0.410825 -0.911714 0.410825 44.2168 42.7129)" stroke="#C9B3FF" stroke-width="0.522375"/>
<line y1="-0.261188" x2="26.7419" y2="-0.261188" transform="matrix(-0.911714 -0.410825 -0.911714 0.410825 44.2168 41.291)" stroke="#C9B3FF" stroke-width="0.522375"/>
<line y1="-0.261188" x2="26.7419" y2="-0.261188" transform="matrix(-0.911714 -0.410825 -0.911714 0.410825 44.2168 39.8691)" stroke="#C9B3FF" stroke-width="0.522375"/>
<line y1="-0.261188" x2="26.7419" y2="-0.261188" transform="matrix(-0.911714 -0.410825 -0.911714 0.410825 44.2168 38.4492)" stroke="#C9B3FF" stroke-width="0.522375"/>
</g>
</g>
<path d="M22.5449 57.8848L22.5449 41.3564C22.5451 39.276 24.2321 37.59 26.3125 37.5898L37.7363 37.5898C39.8169 37.5898 41.5037 39.2759 41.5039 41.3564L41.5039 57.8848C41.5038 59.9653 39.8169 61.6523 37.7363 61.6523L26.3125 61.6523C24.232 61.6522 22.545 59.9653 22.5449 57.8848Z" stroke="#C9B3FF" stroke-width="0.243056"/>
<rect x="24.8555" y="49.6191" width="14.3403" height="9.72222" rx="2.43056" fill="#B984FF"/>
<path d="M30.677 56.2676H28.7971V55.9315L29.5168 55.2023C29.656 55.0605 29.7706 54.9384 29.8605 54.8358C29.9503 54.732 30.0168 54.6339 30.0598 54.5415C30.1041 54.4491 30.1263 54.3485 30.1263 54.2396C30.1263 54.1054 30.0877 54.0041 30.0105 53.9358C29.9333 53.8661 29.8313 53.8313 29.7048 53.8313C29.5845 53.8313 29.4731 53.8554 29.3706 53.9035C29.2693 53.9503 29.1642 54.0174 29.0553 54.1048L28.8104 53.8104C28.8876 53.7446 28.9699 53.6845 29.0572 53.63C29.1459 53.5756 29.2446 53.5326 29.3535 53.5009C29.4623 53.468 29.5864 53.4516 29.7256 53.4516C29.9016 53.4516 30.0535 53.4832 30.1814 53.5465C30.3092 53.6085 30.4073 53.6952 30.4757 53.8066C30.5453 53.918 30.5801 54.0478 30.5801 54.1959C30.5801 54.3453 30.5504 54.4833 30.4909 54.6099C30.4314 54.7365 30.3466 54.8618 30.2364 54.9858C30.1263 55.1086 29.9953 55.2422 29.8434 55.3865L29.363 55.8555V55.8764H30.677V56.2676ZM31.1023 56.0321C31.1023 55.9283 31.1289 55.8555 31.1821 55.8137C31.2365 55.7707 31.3023 55.7492 31.3796 55.7492C31.4568 55.7492 31.5226 55.7707 31.577 55.8137C31.6327 55.8555 31.6606 55.9283 31.6606 56.0321C31.6606 56.1334 31.6327 56.2068 31.577 56.2524C31.5226 56.2967 31.4568 56.3188 31.3796 56.3188C31.3023 56.3188 31.2365 56.2967 31.1821 56.2524C31.1289 56.2068 31.1023 56.1334 31.1023 56.0321ZM33.0335 54.532C33.212 54.532 33.3689 54.5643 33.5044 54.6289C33.6411 54.6921 33.7475 54.7858 33.8234 54.9099C33.8994 55.0327 33.9373 55.1833 33.9373 55.3618C33.9373 55.5568 33.8962 55.7251 33.8139 55.8669C33.7316 56.0074 33.6107 56.1157 33.4512 56.1916C33.2917 56.2676 33.0974 56.3056 32.8683 56.3056C32.7227 56.3056 32.5866 56.2929 32.46 56.2676C32.3347 56.2423 32.2265 56.2043 32.1353 56.1536V55.7511C32.2303 55.8043 32.3442 55.8479 32.4771 55.8821C32.61 55.915 32.7373 55.9315 32.8588 55.9315C32.9879 55.9315 33.0987 55.9125 33.1911 55.8745C33.2835 55.8365 33.3544 55.7783 33.4038 55.6998C33.4544 55.6213 33.4797 55.522 33.4797 55.4017C33.4797 55.2422 33.4284 55.1194 33.3259 55.0333C33.2246 54.946 33.0658 54.9023 32.8493 54.9023C32.7733 54.9023 32.6923 54.9093 32.6062 54.9232C32.5214 54.9358 32.4505 54.9498 32.3936 54.965L32.198 54.8491L32.3024 53.4914H33.7456V53.8845H32.6955L32.6347 54.5757C32.6803 54.5656 32.7347 54.5561 32.798 54.5472C32.8613 54.5371 32.9398 54.532 33.0335 54.532ZM34.5051 56.2676V53.4914H34.9608V55.8802H36.14V56.2676H34.5051Z" fill="white"/>
<path d="M25.1652 72.5488H24.7451L23.7254 70.8868H23.7126C23.7164 70.9429 23.7197 71.0022 23.7225 71.0649C23.7263 71.1275 23.7292 71.1921 23.7311 71.2585C23.7339 71.325 23.7363 71.3924 23.7382 71.4608V72.5488H23.4277V70.4667H23.845L24.8633 72.1173H24.8733C24.8714 72.0689 24.869 72.0133 24.8661 71.9507C24.8633 71.888 24.8604 71.8235 24.8576 71.757C24.8557 71.6896 24.8543 71.6246 24.8533 71.5619V70.4667H25.1652V72.5488ZM26.3059 70.9424C26.4465 70.9424 26.567 70.9713 26.6677 71.0293C26.7683 71.0872 26.8457 71.1693 26.8998 71.2756C26.9539 71.382 26.981 71.5092 26.981 71.6573V71.8368H25.9285C25.9323 71.9896 25.9732 72.1073 26.051 72.1899C26.1298 72.2725 26.24 72.3138 26.3814 72.3138C26.4821 72.3138 26.5723 72.3043 26.652 72.2854C26.7327 72.2654 26.8158 72.2365 26.9012 72.1985V72.4705C26.8224 72.5075 26.7422 72.5346 26.6606 72.5517C26.5789 72.5688 26.4811 72.5773 26.3672 72.5773C26.2124 72.5773 26.0762 72.5474 25.9585 72.4876C25.8417 72.4268 25.7501 72.3366 25.6836 72.217C25.6181 72.0974 25.5853 71.9488 25.5853 71.7712C25.5853 71.5946 25.6152 71.4446 25.675 71.3212C25.7349 71.1978 25.8189 71.1038 25.9271 71.0392C26.0354 70.9747 26.1616 70.9424 26.3059 70.9424ZM26.3059 71.1945C26.2006 71.1945 26.1151 71.2286 26.0496 71.297C25.985 71.3654 25.9471 71.4655 25.9357 71.5975H26.6534C26.6525 71.5187 26.6392 71.4489 26.6136 71.3881C26.5889 71.3274 26.5509 71.2799 26.4996 71.2457C26.4493 71.2115 26.3848 71.1945 26.3059 71.1945ZM28.6473 72.5474L28.4479 71.814C28.4384 71.7779 28.427 71.7342 28.4137 71.6829C28.4004 71.6317 28.3871 71.579 28.3738 71.5249C28.3605 71.4698 28.3482 71.419 28.3368 71.3725C28.3263 71.326 28.3183 71.2899 28.3126 71.2642H28.3012C28.2964 71.2899 28.2888 71.326 28.2784 71.3725C28.268 71.419 28.2561 71.4698 28.2428 71.5249C28.2295 71.5799 28.2162 71.6336 28.2029 71.6858C28.1906 71.738 28.1792 71.7826 28.1687 71.8197L27.9594 72.5474H27.592L27.1505 70.9709H27.4894L27.6945 71.7542C27.7078 71.8073 27.7206 71.8648 27.733 71.9265C27.7462 71.9882 27.7576 72.0471 27.7671 72.1031C27.7766 72.1591 27.7837 72.2051 27.7885 72.2412H27.7999C27.8037 72.2156 27.8089 72.1833 27.8156 72.1444C27.8222 72.1045 27.8298 72.0632 27.8383 72.0205C27.8469 71.9768 27.8554 71.936 27.864 71.898C27.8725 71.8591 27.8806 71.8277 27.8882 71.804L28.1303 70.9709H28.4963L28.7284 71.804C28.7389 71.8401 28.7503 71.8856 28.7626 71.9407C28.775 71.9948 28.7859 72.0494 28.7954 72.1045C28.8058 72.1586 28.8125 72.2037 28.8153 72.2398H28.8267C28.8305 72.2075 28.8371 72.1638 28.8466 72.1088C28.8571 72.0527 28.869 71.9934 28.8822 71.9307C28.8955 71.8671 28.9093 71.8083 28.9235 71.7542L29.1329 70.9709H29.4661L29.0218 72.5474H28.6473ZM32.0723 70.4667L31.3446 72.5488H30.9829L30.2551 70.4667H30.6055L31.0441 71.7712C31.0574 71.8092 31.0716 71.8553 31.0868 71.9094C31.103 71.9635 31.1177 72.0181 31.131 72.0732C31.1452 72.1282 31.1561 72.1771 31.1637 72.2198C31.1713 72.1771 31.1818 72.1282 31.1951 72.0732C31.2093 72.0181 31.224 71.9635 31.2392 71.9094C31.2544 71.8553 31.2686 71.8087 31.2819 71.7698L31.722 70.4667H32.0723ZM32.6463 70.9723V72.5488H32.3116V70.9723H32.6463ZM32.4811 70.3684C32.5323 70.3684 32.5765 70.3822 32.6135 70.4097C32.6515 70.4373 32.6705 70.4848 32.6705 70.5522C32.6705 70.6186 32.6515 70.6661 32.6135 70.6946C32.5765 70.7221 32.5323 70.7359 32.4811 70.7359C32.4279 70.7359 32.3828 70.7221 32.3458 70.6946C32.3097 70.6661 32.2917 70.6186 32.2917 70.5522C32.2917 70.4848 32.3097 70.4373 32.3458 70.4097C32.3828 70.3822 32.4279 70.3684 32.4811 70.3684ZM34.1858 72.0988C34.1858 72.2023 34.1606 72.2896 34.1103 72.3608C34.06 72.432 33.9864 72.4862 33.8896 72.5232C33.7937 72.5593 33.6759 72.5773 33.5364 72.5773C33.4262 72.5773 33.3313 72.5692 33.2515 72.5531C33.1727 72.5379 33.0982 72.5142 33.028 72.4819V72.1928C33.103 72.2279 33.187 72.2583 33.28 72.2839C33.374 72.3096 33.4628 72.3224 33.5463 72.3224C33.6565 72.3224 33.7358 72.3053 33.7842 72.2711C33.8326 72.236 33.8568 72.1895 33.8568 72.1316C33.8568 72.0974 33.8468 72.067 33.8269 72.0404C33.8079 72.0129 33.7718 71.9849 33.7187 71.9564C33.6664 71.9269 33.5895 71.8918 33.488 71.851C33.3883 71.8111 33.3042 71.7712 33.2359 71.7314C33.1675 71.6915 33.1158 71.6435 33.0806 71.5875C33.0455 71.5306 33.028 71.4579 33.028 71.3696C33.028 71.2301 33.083 71.1242 33.1932 71.052C33.3042 70.9789 33.4509 70.9424 33.6332 70.9424C33.7301 70.9424 33.8212 70.9524 33.9067 70.9723C33.9931 70.9913 34.0776 71.0193 34.1602 71.0563L34.0548 71.3084C33.9836 71.2771 33.9119 71.2514 33.8397 71.2315C33.7685 71.2106 33.6959 71.2002 33.6218 71.2002C33.5354 71.2002 33.4694 71.2134 33.4239 71.24C33.3792 71.2666 33.3569 71.3046 33.3569 71.354C33.3569 71.391 33.3679 71.4223 33.3897 71.448C33.4115 71.4736 33.449 71.4992 33.5022 71.5249C33.5563 71.5505 33.6313 71.5823 33.7272 71.6203C33.8212 71.6564 33.9024 71.6943 33.9707 71.7342C34.0401 71.7731 34.0932 71.8211 34.1302 71.8781C34.1673 71.935 34.1858 72.0086 34.1858 72.0988ZM34.8822 70.9723V72.5488H34.5475V70.9723H34.8822ZM34.717 70.3684C34.7683 70.3684 34.8124 70.3822 34.8494 70.4097C34.8874 70.4373 34.9064 70.4848 34.9064 70.5522C34.9064 70.6186 34.8874 70.6661 34.8494 70.6946C34.8124 70.7221 34.7683 70.7359 34.717 70.7359C34.6638 70.7359 34.6187 70.7221 34.5817 70.6946C34.5456 70.6661 34.5276 70.6186 34.5276 70.5522C34.5276 70.4848 34.5456 70.4373 34.5817 70.4097C34.6187 70.3822 34.6638 70.3684 34.717 70.3684ZM35.9489 72.3067C35.9926 72.3067 36.0358 72.3029 36.0785 72.2953C36.1212 72.2868 36.1601 72.2768 36.1953 72.2654V72.5189C36.1582 72.5351 36.1103 72.5488 36.0514 72.5602C35.9926 72.5716 35.9313 72.5773 35.8677 72.5773C35.7785 72.5773 35.6982 72.5626 35.627 72.5332C35.5558 72.5028 35.4993 72.451 35.4576 72.3779C35.4158 72.3048 35.3949 72.2037 35.3949 72.0746V71.2272H35.1798V71.0777L35.4106 70.9595L35.5202 70.6219H35.731V70.9723H36.1825V71.2272H35.731V72.0703C35.731 72.1501 35.7509 72.2094 35.7908 72.2483C35.8307 72.2873 35.8834 72.3067 35.9489 72.3067ZM37.9114 71.757C37.9114 71.888 37.8943 72.0043 37.8601 72.1059C37.8259 72.2075 37.7761 72.2934 37.7106 72.3637C37.6451 72.433 37.5663 72.4862 37.4742 72.5232C37.3821 72.5593 37.2781 72.5773 37.1623 72.5773C37.054 72.5773 36.9548 72.5593 36.8646 72.5232C36.7744 72.4862 36.6961 72.433 36.6296 72.3637C36.5641 72.2934 36.5133 72.2075 36.4773 72.1059C36.4412 72.0043 36.4231 71.888 36.4231 71.757C36.4231 71.5833 36.453 71.4361 36.5129 71.3155C36.5736 71.194 36.66 71.1014 36.7721 71.0378C36.8841 70.9742 37.0175 70.9424 37.1722 70.9424C37.3175 70.9424 37.4457 70.9742 37.5568 71.0378C37.6678 71.1014 37.7547 71.194 37.8174 71.3155C37.88 71.437 37.9114 71.5842 37.9114 71.757ZM36.7678 71.757C36.7678 71.8719 36.7815 71.9701 36.8091 72.0518C36.8376 72.1335 36.8812 72.1961 36.9401 72.2398C36.999 72.2825 37.0749 72.3039 37.168 72.3039C37.261 72.3039 37.337 72.2825 37.3958 72.2398C37.4547 72.1961 37.4979 72.1335 37.5254 72.0518C37.553 71.9701 37.5667 71.8719 37.5667 71.757C37.5667 71.6421 37.553 71.5448 37.5254 71.465C37.4979 71.3843 37.4547 71.3231 37.3958 71.2813C37.337 71.2386 37.2605 71.2172 37.1665 71.2172C37.0279 71.2172 36.9268 71.2638 36.8632 71.3568C36.7996 71.4499 36.7678 71.5833 36.7678 71.757ZM39.0948 70.9424C39.1214 70.9424 39.1504 70.9438 39.1817 70.9467C39.2131 70.9495 39.2401 70.9533 39.2629 70.958L39.2316 71.2714C39.2116 71.2657 39.1869 71.2614 39.1575 71.2585C39.129 71.2557 39.1034 71.2543 39.0806 71.2543C39.0208 71.2543 38.9638 71.2642 38.9097 71.2842C38.8556 71.3032 38.8076 71.3326 38.7659 71.3725C38.7241 71.4114 38.6913 71.4603 38.6676 71.5192C38.6439 71.578 38.632 71.6464 38.632 71.7242V72.5488H38.2959V70.9723H38.5579L38.6035 71.25H38.6192C38.6505 71.194 38.6894 71.1427 38.736 71.0962C38.7825 71.0497 38.8357 71.0126 38.8955 70.9851C38.9562 70.9566 39.0227 70.9424 39.0948 70.9424ZM40.6144 72.0988C40.6144 72.2023 40.5893 72.2896 40.5389 72.3608C40.4886 72.432 40.415 72.4862 40.3182 72.5232C40.2223 72.5593 40.1046 72.5773 39.965 72.5773C39.8549 72.5773 39.7599 72.5692 39.6802 72.5531C39.6014 72.5379 39.5268 72.5142 39.4566 72.4819V72.1928C39.5316 72.2279 39.6156 72.2583 39.7087 72.2839C39.8027 72.3096 39.8914 72.3224 39.975 72.3224C40.0851 72.3224 40.1644 72.3053 40.2128 72.2711C40.2612 72.236 40.2854 72.1895 40.2854 72.1316C40.2854 72.0974 40.2755 72.067 40.2555 72.0404C40.2365 72.0129 40.2005 71.9849 40.1473 71.9564C40.0951 71.9269 40.0182 71.8918 39.9166 71.851C39.8169 71.8111 39.7329 71.7712 39.6645 71.7314C39.5962 71.6915 39.5444 71.6435 39.5093 71.5875C39.4741 71.5306 39.4566 71.4579 39.4566 71.3696C39.4566 71.2301 39.5117 71.1242 39.6218 71.052C39.7329 70.9789 39.8796 70.9424 40.0618 70.9424C40.1587 70.9424 40.2498 70.9524 40.3353 70.9723C40.4217 70.9913 40.5062 71.0193 40.5888 71.0563L40.4834 71.3084C40.4122 71.2771 40.3405 71.2514 40.2684 71.2315C40.1971 71.2106 40.1245 71.2002 40.0505 71.2002C39.9641 71.2002 39.8981 71.2134 39.8525 71.24C39.8079 71.2666 39.7856 71.3046 39.7856 71.354C39.7856 71.391 39.7965 71.4223 39.8183 71.448C39.8402 71.4736 39.8777 71.4992 39.9308 71.5249C39.9849 71.5505 40.0599 71.5823 40.1558 71.6203C40.2498 71.6564 40.331 71.6943 40.3994 71.7342C40.4687 71.7731 40.5218 71.8211 40.5589 71.8781C40.5959 71.935 40.6144 72.0086 40.6144 72.0988Z" fill="#212121"/>
<path d="M51.8597 72.793H51.5165V71.0014H50.907V70.7109H52.4679V71.0014H51.8597V72.793ZM54.1484 72.0011C54.1484 72.1322 54.1313 72.2485 54.0971 72.3501C54.0629 72.4516 54.0131 72.5376 53.9476 72.6078C53.882 72.6771 53.8032 72.7303 53.7111 72.7673C53.619 72.8034 53.5151 72.8215 53.3993 72.8215C53.291 72.8215 53.1918 72.8034 53.1016 72.7673C53.0114 72.7303 52.9331 72.6771 52.8666 72.6078C52.8011 72.5376 52.7503 72.4516 52.7142 72.3501C52.6782 72.2485 52.6601 72.1322 52.6601 72.0011C52.6601 71.8274 52.69 71.6802 52.7498 71.5597C52.8106 71.4381 52.897 71.3456 53.009 71.2819C53.1211 71.2183 53.2545 71.1865 53.4092 71.1865C53.5545 71.1865 53.6827 71.2183 53.7937 71.2819C53.9048 71.3456 53.9917 71.4381 54.0544 71.5597C54.117 71.6812 54.1484 71.8283 54.1484 72.0011ZM53.0048 72.0011C53.0048 72.116 53.0185 72.2143 53.0461 72.2959C53.0745 72.3776 53.1182 72.4403 53.1771 72.4839C53.2359 72.5267 53.3119 72.548 53.4049 72.548C53.498 72.548 53.5739 72.5267 53.6328 72.4839C53.6917 72.4403 53.7349 72.3776 53.7624 72.2959C53.7899 72.2143 53.8037 72.116 53.8037 72.0011C53.8037 71.8863 53.7899 71.7889 53.7624 71.7092C53.7349 71.6285 53.6917 71.5672 53.6328 71.5255C53.5739 71.4827 53.4975 71.4614 53.4035 71.4614C53.2649 71.4614 53.1638 71.5079 53.1002 71.601C53.0366 71.694 53.0048 71.8274 53.0048 72.0011ZM55.1196 72.5509C55.1633 72.5509 55.2065 72.5471 55.2492 72.5395C55.292 72.5309 55.3309 72.521 55.366 72.5096V72.7631C55.329 72.7792 55.281 72.793 55.2222 72.8044C55.1633 72.8158 55.1021 72.8215 55.0385 72.8215C54.9492 72.8215 54.869 72.8067 54.7978 72.7773C54.7266 72.7469 54.6701 72.6952 54.6283 72.6221C54.5865 72.549 54.5656 72.4478 54.5656 72.3187V71.4714H54.3506V71.3218L54.5813 71.2036L54.691 70.8661H54.9017V71.2164H55.3532V71.4714H54.9017V72.3145C54.9017 72.3942 54.9217 72.4535 54.9615 72.4925C55.0014 72.5314 55.0541 72.5509 55.1196 72.5509ZM56.3045 71.1865C56.5039 71.1865 56.6544 71.2307 56.756 71.319C56.8585 71.4073 56.9098 71.5449 56.9098 71.732V72.793H56.672L56.6079 72.5694H56.5965C56.5519 72.6263 56.5058 72.6733 56.4583 72.7104C56.4109 72.7474 56.3558 72.7749 56.2931 72.793C56.2314 72.812 56.1559 72.8215 56.0667 72.8215C55.9727 72.8215 55.8887 72.8044 55.8146 72.7702C55.7406 72.7351 55.6822 72.6819 55.6394 72.6107C55.5967 72.5395 55.5754 72.4493 55.5754 72.3401C55.5754 72.1777 55.6356 72.0557 55.7562 71.9741C55.8778 71.8924 56.061 71.8473 56.3059 71.8388L56.5794 71.8288V71.7462C56.5794 71.637 56.5538 71.5592 56.5025 71.5127C56.4522 71.4661 56.381 71.4429 56.2889 71.4429C56.2101 71.4429 56.1336 71.4543 56.0596 71.4771C55.9855 71.4998 55.9134 71.5278 55.8431 71.5611L55.7349 71.3247C55.8118 71.2838 55.8991 71.2506 55.9969 71.225C56.0956 71.1993 56.1982 71.1865 56.3045 71.1865ZM56.578 72.0396L56.3743 72.0467C56.2072 72.0524 56.09 72.0809 56.0225 72.1322C55.9551 72.1834 55.9214 72.2537 55.9214 72.3429C55.9214 72.4208 55.9447 72.4778 55.9912 72.5138C56.0377 72.549 56.099 72.5665 56.1749 72.5665C56.2908 72.5665 56.3867 72.5338 56.4626 72.4683C56.5395 72.4018 56.578 72.3045 56.578 72.1763V72.0396ZM57.7144 72.793H57.3783V70.577H57.7144V72.793ZM60.5286 70.7109L59.8008 72.793H59.4391L58.7113 70.7109H59.0617L59.5003 72.0154C59.5136 72.0534 59.5279 72.0994 59.543 72.1535C59.5592 72.2076 59.5739 72.2622 59.5872 72.3173C59.6014 72.3724 59.6124 72.4213 59.62 72.464C59.6275 72.4213 59.638 72.3724 59.6513 72.3173C59.6655 72.2622 59.6802 72.2076 59.6954 72.1535C59.7106 72.0994 59.7249 72.0529 59.7382 72.014L60.1782 70.7109H60.5286ZM61.1025 71.2164V72.793H60.7678V71.2164H61.1025ZM60.9373 70.6126C60.9886 70.6126 61.0327 70.6264 61.0697 70.6539C61.1077 70.6814 61.1267 70.7289 61.1267 70.7963C61.1267 70.8628 61.1077 70.9102 61.0697 70.9387C61.0327 70.9663 60.9886 70.98 60.9373 70.98C60.8841 70.98 60.839 70.9663 60.802 70.9387C60.7659 70.9102 60.7479 70.8628 60.7479 70.7963C60.7479 70.7289 60.7659 70.6814 60.802 70.6539C60.839 70.6264 60.8841 70.6126 60.9373 70.6126ZM62.642 72.3429C62.642 72.4464 62.6168 72.5338 62.5665 72.605C62.5162 72.6762 62.4426 72.7303 62.3458 72.7673C62.2499 72.8034 62.1322 72.8215 61.9926 72.8215C61.8825 72.8215 61.7875 72.8134 61.7078 72.7972C61.629 72.7821 61.5544 72.7583 61.4842 72.726V72.4369C61.5592 72.4721 61.6432 72.5024 61.7362 72.5281C61.8302 72.5537 61.919 72.5665 62.0026 72.5665C62.1127 72.5665 62.192 72.5494 62.2404 72.5153C62.2888 72.4801 62.313 72.4336 62.313 72.3757C62.313 72.3415 62.3031 72.3111 62.2831 72.2845C62.2641 72.257 62.2281 72.229 62.1749 72.2005C62.1227 72.1711 62.0458 72.136 61.9442 72.0951C61.8445 72.0553 61.7605 72.0154 61.6921 71.9755C61.6237 71.9356 61.572 71.8877 61.5369 71.8317C61.5017 71.7747 61.4842 71.7021 61.4842 71.6138C61.4842 71.4742 61.5392 71.3683 61.6494 71.2962C61.7605 71.2231 61.9071 71.1865 62.0894 71.1865C62.1863 71.1865 62.2774 71.1965 62.3629 71.2164C62.4493 71.2354 62.5338 71.2634 62.6164 71.3005L62.511 71.5525C62.4398 71.5212 62.3681 71.4956 62.2959 71.4756C62.2247 71.4547 62.1521 71.4443 62.078 71.4443C61.9916 71.4443 61.9257 71.4576 61.8801 71.4842C61.8355 71.5108 61.8132 71.5487 61.8132 71.5981C61.8132 71.6351 61.8241 71.6665 61.8459 71.6921C61.8677 71.7177 61.9052 71.7434 61.9584 71.769C62.0125 71.7946 62.0875 71.8264 62.1834 71.8644C62.2774 71.9005 62.3586 71.9385 62.427 71.9784C62.4963 72.0173 62.5494 72.0652 62.5865 72.1222C62.6235 72.1792 62.642 72.2527 62.642 72.3429ZM63.3384 71.2164V72.793H63.0037V71.2164H63.3384ZM63.1732 70.6126C63.2245 70.6126 63.2686 70.6264 63.3057 70.6539C63.3436 70.6814 63.3626 70.7289 63.3626 70.7963C63.3626 70.8628 63.3436 70.9102 63.3057 70.9387C63.2686 70.9663 63.2245 70.98 63.1732 70.98C63.12 70.98 63.075 70.9663 63.0379 70.9387C63.0018 70.9102 62.9838 70.8628 62.9838 70.7963C62.9838 70.7289 63.0018 70.6814 63.0379 70.6539C63.075 70.6264 63.12 70.6126 63.1732 70.6126ZM64.4051 72.5509C64.4488 72.5509 64.492 72.5471 64.5347 72.5395C64.5774 72.5309 64.6164 72.521 64.6515 72.5096V72.7631C64.6145 72.7792 64.5665 72.793 64.5076 72.8044C64.4488 72.8158 64.3875 72.8215 64.3239 72.8215C64.2347 72.8215 64.1545 72.8067 64.0833 72.7773C64.012 72.7469 63.9556 72.6952 63.9138 72.6221C63.872 72.549 63.8511 72.4478 63.8511 72.3187V71.4714H63.6361V71.3218L63.8668 71.2036L63.9764 70.8661H64.1872V71.2164H64.6387V71.4714H64.1872V72.3145C64.1872 72.3942 64.2072 72.4535 64.247 72.4925C64.2869 72.5314 64.3396 72.5509 64.4051 72.5509ZM66.3676 72.0011C66.3676 72.1322 66.3505 72.2485 66.3163 72.3501C66.2821 72.4516 66.2323 72.5376 66.1668 72.6078C66.1013 72.6771 66.0225 72.7303 65.9304 72.7673C65.8383 72.8034 65.7343 72.8215 65.6185 72.8215C65.5103 72.8215 65.411 72.8034 65.3208 72.7673C65.2306 72.7303 65.1523 72.6771 65.0859 72.6078C65.0203 72.5376 64.9695 72.4516 64.9335 72.3501C64.8974 72.2485 64.8794 72.1322 64.8794 72.0011C64.8794 71.8274 64.9093 71.6802 64.9691 71.5597C65.0298 71.4381 65.1162 71.3456 65.2283 71.2819C65.3403 71.2183 65.4737 71.1865 65.6285 71.1865C65.7737 71.1865 65.9019 71.2183 66.013 71.2819C66.1241 71.3456 66.2109 71.4381 66.2736 71.5597C66.3363 71.6812 66.3676 71.8283 66.3676 72.0011ZM65.224 72.0011C65.224 72.116 65.2378 72.2143 65.2653 72.2959C65.2938 72.3776 65.3375 72.4403 65.3963 72.4839C65.4552 72.5267 65.5311 72.548 65.6242 72.548C65.7172 72.548 65.7932 72.5267 65.852 72.4839C65.9109 72.4403 65.9541 72.3776 65.9816 72.2959C66.0092 72.2143 66.0229 72.116 66.0229 72.0011C66.0229 71.8863 66.0092 71.7889 65.9816 71.7092C65.9541 71.6285 65.9109 71.5672 65.852 71.5255C65.7932 71.4827 65.7168 71.4614 65.6228 71.4614C65.4841 71.4614 65.383 71.5079 65.3194 71.601C65.2558 71.694 65.224 71.8274 65.224 72.0011ZM67.5511 71.1865C67.5776 71.1865 67.6066 71.1879 67.6379 71.1908C67.6693 71.1936 67.6963 71.1974 67.7191 71.2022L67.6878 71.5155C67.6678 71.5098 67.6432 71.5055 67.6137 71.5027C67.5852 71.4998 67.5596 71.4984 67.5368 71.4984C67.477 71.4984 67.42 71.5084 67.3659 71.5283C67.3118 71.5473 67.2639 71.5767 67.2221 71.6166C67.1803 71.6555 67.1476 71.7044 67.1238 71.7633C67.1001 71.8222 67.0882 71.8905 67.0882 71.9684V72.793H66.7521V71.2164H67.0142L67.0597 71.4941H67.0754C67.1067 71.4381 67.1457 71.3869 67.1922 71.3403C67.2387 71.2938 67.2919 71.2568 67.3517 71.2292C67.4124 71.2008 67.4789 71.1865 67.5511 71.1865ZM69.0706 72.3429C69.0706 72.4464 69.0455 72.5338 68.9952 72.605C68.9448 72.6762 68.8713 72.7303 68.7744 72.7673C68.6785 72.8034 68.5608 72.8215 68.4212 72.8215C68.3111 72.8215 68.2161 72.8134 68.1364 72.7972C68.0576 72.7821 67.9831 72.7583 67.9128 72.726V72.4369C67.9878 72.4721 68.0718 72.5024 68.1649 72.5281C68.2589 72.5537 68.3476 72.5665 68.4312 72.5665C68.5413 72.5665 68.6206 72.5494 68.669 72.5153C68.7174 72.4801 68.7417 72.4336 68.7417 72.3757C68.7417 72.3415 68.7317 72.3111 68.7117 72.2845C68.6928 72.257 68.6567 72.229 68.6035 72.2005C68.5513 72.1711 68.4744 72.136 68.3728 72.0951C68.2731 72.0553 68.1891 72.0154 68.1207 71.9755C68.0524 71.9356 68.0006 71.8877 67.9655 71.8317C67.9304 71.7747 67.9128 71.7021 67.9128 71.6138C67.9128 71.4742 67.9679 71.3683 68.078 71.2962C68.1891 71.2231 68.3358 71.1865 68.5181 71.1865C68.6149 71.1865 68.7061 71.1965 68.7915 71.2164C68.8779 71.2354 68.9624 71.2634 69.045 71.3005L68.9396 71.5525C68.8684 71.5212 68.7967 71.4956 68.7246 71.4756C68.6534 71.4547 68.5807 71.4443 68.5067 71.4443C68.4203 71.4443 68.3543 71.4576 68.3087 71.4842C68.2641 71.5108 68.2418 71.5487 68.2418 71.5981C68.2418 71.6351 68.2527 71.6665 68.2745 71.6921C68.2964 71.7177 68.3339 71.7434 68.387 71.769C68.4412 71.7946 68.5162 71.8264 68.6121 71.8644C68.7061 71.9005 68.7872 71.9385 68.8556 71.9784C68.9249 72.0173 68.9781 72.0652 69.0151 72.1222C69.0521 72.1792 69.0706 72.2527 69.0706 72.3429Z" fill="#212121"/>
<defs>
<linearGradient id="paint0_linear_7712_53105" x1="11.0044" y1="66.8926" x2="81.0045" y2="66.4065" gradientUnits="userSpaceOnUse">
<stop stop-color="#EFEFEF" stop-opacity="0"/>
<stop offset="0.215" stop-color="#EFEFEF"/>
<stop offset="0.765" stop-color="#EFEFEF"/>
<stop offset="1" stop-color="#EFEFEF" stop-opacity="0"/>
</linearGradient>
<clipPath id="clip0_7712_53105">
<path d="M54.2668 61.7773C52.119 61.7773 50.3779 60.0362 50.3779 57.8885L50.3779 22.8885C50.3779 20.7407 52.119 18.9996 54.2668 18.9996L65.6904 18.9996C67.8382 18.9996 69.5793 20.7407 69.5793 22.8885L69.5793 57.8885C69.5793 60.0362 67.8382 61.7773 65.6904 61.7773L54.2668 61.7773Z" fill="white"/>
</clipPath>
<clipPath id="clip1_7712_53105">
<path d="M26.3127 61.7734C24.1649 61.7734 22.4238 60.0323 22.4238 57.8845L22.4238 41.3568C22.4238 39.209 24.1649 37.4679 26.3127 37.4679L37.7363 37.4679C39.8841 37.4679 41.6252 39.209 41.6252 41.3568L41.6252 57.8845C41.6252 60.0323 39.8841 61.7734 37.7363 61.7734L26.3127 61.7734Z" fill="white"/>
</clipPath>
</defs>
</svg>
