<svg width="93" height="92" viewBox="0 0 93 92" fill="none" xmlns="http://www.w3.org/2000/svg">
<rect x="1.26092" y="0.389831" width="91.079" height="91.2203" rx="17.5424" stroke="#BEBEBE" stroke-width="0.779661"/>
<rect width="70" height="60.7317" transform="translate(12 16)" fill="white"/>
<path d="M21.7559 21.8535V68.9267" stroke="#E0E0E0" stroke-width="0.243902"/>
<path d="M29.6827 68.9267C29.6827 68.994 29.7373 69.0486 29.8047 69.0486C29.872 69.0486 29.9266 68.994 29.9266 68.9267H29.6827ZM29.8047 21.8535H29.6827V68.9267H29.8047H29.9266V21.8535H29.8047Z" fill="#E0E0E0"/>
<path d="M37.7316 68.9267C37.7316 68.994 37.7862 69.0486 37.8535 69.0486C37.9209 69.0486 37.9755 68.994 37.9755 68.9267H37.7316ZM37.8535 21.8535H37.7316V68.9267H37.8535H37.9755V21.8535H37.8535Z" fill="#E0E0E0"/>
<path d="M45.7804 68.9267C45.7804 68.994 45.835 69.0486 45.9023 69.0486C45.9697 69.0486 46.0243 68.994 46.0243 68.9267H45.7804ZM45.9023 21.8535H45.7804V68.9267H45.9023H46.0243V21.8535H45.9023Z" fill="#E0E0E0"/>
<path d="M53.8292 68.9267C53.8292 68.994 53.8838 69.0486 53.9512 69.0486C54.0185 69.0486 54.0731 68.994 54.0731 68.9267H53.8292ZM53.9512 21.8535H53.8292V68.9267H53.9512H54.0731V21.8535H53.9512Z" fill="#E0E0E0"/>
<path d="M61.878 68.9267C61.878 68.994 61.9326 69.0486 62 69.0486C62.0674 69.0486 62.122 68.994 62.122 68.9267H61.878ZM62 21.8535H61.878V68.9267H62H62.122V21.8535H62Z" fill="#E0E0E0"/>
<path d="M69.9269 68.9267C69.9269 68.994 69.9815 69.0486 70.0488 69.0486C70.1162 69.0486 70.1708 68.994 70.1708 68.9267H69.9269ZM70.0488 21.8535H69.9269V68.9267H70.0488H70.1708V21.8535H70.0488Z" fill="#E0E0E0"/>
<path d="M77.9757 68.9267C77.9757 68.994 78.0303 69.0486 78.0977 69.0486C78.165 69.0486 78.2196 68.994 78.2196 68.9267H77.9757ZM78.0977 21.8535H77.9757V68.9267H78.0977H78.2196V21.8535H78.0977Z" fill="#E0E0E0"/>
<path d="M15.8589 23.8535H14.9462V23.7211L15.3187 23.3428C15.3879 23.273 15.446 23.2107 15.493 23.1561C15.5407 23.1015 15.5769 23.0478 15.6017 22.9951C15.6264 22.9417 15.6388 22.8833 15.6388 22.8198C15.6388 22.741 15.6153 22.681 15.5683 22.6397C15.5219 22.5978 15.4607 22.5768 15.3844 22.5768C15.3177 22.5768 15.2587 22.5883 15.2072 22.6111C15.1558 22.634 15.1031 22.6664 15.0491 22.7083L14.9643 22.6016C15.0011 22.5705 15.0411 22.5429 15.0843 22.5187C15.1281 22.4946 15.1748 22.4755 15.2244 22.4616C15.2745 22.4476 15.3279 22.4406 15.3844 22.4406C15.4702 22.4406 15.5442 22.4555 15.6064 22.4854C15.6687 22.5152 15.7166 22.5578 15.7503 22.613C15.7846 22.6683 15.8017 22.734 15.8017 22.8103C15.8017 22.8839 15.7871 22.9525 15.7579 23.0161C15.7287 23.0789 15.6877 23.1415 15.635 23.2037C15.5823 23.2654 15.5207 23.3308 15.4502 23.4L15.1472 23.702V23.7087H15.8589V23.8535ZM16.503 23.0018C16.5976 23.0018 16.6798 23.018 16.7497 23.0504C16.8196 23.0821 16.8736 23.1285 16.9117 23.1895C16.9504 23.2504 16.9698 23.3244 16.9698 23.4114C16.9698 23.5067 16.9492 23.589 16.9079 23.6582C16.8666 23.7268 16.8072 23.7798 16.7297 23.8173C16.6522 23.8542 16.5595 23.8726 16.4515 23.8726C16.3791 23.8726 16.3118 23.8662 16.2495 23.8535C16.1873 23.8408 16.1349 23.8218 16.0923 23.7964V23.6458C16.1387 23.6738 16.1949 23.696 16.261 23.7125C16.327 23.729 16.3912 23.7373 16.4534 23.7373C16.5239 23.7373 16.5855 23.7262 16.6382 23.7039C16.6916 23.6811 16.7329 23.6468 16.7621 23.601C16.792 23.5547 16.8069 23.4966 16.8069 23.4267C16.8069 23.334 16.7783 23.2625 16.7211 23.2123C16.6646 23.1615 16.575 23.1361 16.4525 23.1361C16.4131 23.1361 16.3699 23.1393 16.3229 23.1456C16.2759 23.152 16.2371 23.159 16.2067 23.1666L16.1266 23.1142L16.18 22.4606H16.8726V22.6054H16.3153L16.28 23.0256C16.3041 23.0205 16.3353 23.0154 16.3734 23.0103C16.4115 23.0046 16.4547 23.0018 16.503 23.0018ZM18.0998 23.1552C18.0998 23.2682 18.0912 23.3692 18.074 23.4581C18.0569 23.547 18.0299 23.6223 17.993 23.6839C17.9562 23.7455 17.9086 23.7925 17.8501 23.8249C17.7917 23.8567 17.7215 23.8726 17.6396 23.8726C17.536 23.8726 17.4503 23.8443 17.3823 23.7878C17.315 23.7312 17.2645 23.6496 17.2308 23.5429C17.1978 23.4356 17.1813 23.3063 17.1813 23.1552C17.1813 23.0065 17.1962 22.8789 17.2261 22.7722C17.2566 22.6648 17.3055 22.5826 17.3728 22.5254C17.4401 22.4676 17.5291 22.4387 17.6396 22.4387C17.7444 22.4387 17.8308 22.4673 17.8987 22.5244C17.9667 22.581 18.0172 22.6629 18.0502 22.7702C18.0832 22.877 18.0998 23.0053 18.0998 23.1552ZM17.3404 23.1552C17.3404 23.2847 17.3503 23.3927 17.37 23.4791C17.3896 23.5655 17.4214 23.6303 17.4652 23.6734C17.5097 23.716 17.5678 23.7373 17.6396 23.7373C17.7114 23.7373 17.7692 23.716 17.813 23.6734C17.8574 23.6309 17.8895 23.5664 17.9092 23.48C17.9295 23.3937 17.9397 23.2854 17.9397 23.1552C17.9397 23.0275 17.9298 22.9208 17.9102 22.835C17.8905 22.7487 17.8587 22.6839 17.8149 22.6407C17.7711 22.5968 17.7126 22.5749 17.6396 22.5749C17.5665 22.5749 17.5081 22.5968 17.4643 22.6407C17.4204 22.6839 17.3887 22.7487 17.369 22.835C17.3499 22.9208 17.3404 23.0275 17.3404 23.1552ZM19.2164 23.1552C19.2164 23.2682 19.2078 23.3692 19.1906 23.4581C19.1735 23.547 19.1465 23.6223 19.1097 23.6839C19.0728 23.7455 19.0252 23.7925 18.9667 23.8249C18.9083 23.8567 18.8381 23.8726 18.7562 23.8726C18.6527 23.8726 18.5669 23.8443 18.499 23.7878C18.4316 23.7312 18.3811 23.6496 18.3475 23.5429C18.3144 23.4356 18.2979 23.3063 18.2979 23.1552C18.2979 23.0065 18.3128 22.8789 18.3427 22.7722C18.3732 22.6648 18.4221 22.5826 18.4894 22.5254C18.5568 22.4676 18.6457 22.4387 18.7562 22.4387C18.861 22.4387 18.9474 22.4673 19.0153 22.5244C19.0833 22.581 19.1338 22.6629 19.1668 22.7702C19.1999 22.877 19.2164 23.0053 19.2164 23.1552ZM18.457 23.1552C18.457 23.2847 18.4669 23.3927 18.4866 23.4791C18.5063 23.5655 18.538 23.6303 18.5818 23.6734C18.6263 23.716 18.6844 23.7373 18.7562 23.7373C18.828 23.7373 18.8858 23.716 18.9296 23.6734C18.9741 23.6309 19.0061 23.5664 19.0258 23.48C19.0461 23.3937 19.0563 23.2854 19.0563 23.1552C19.0563 23.0275 19.0465 22.9208 19.0268 22.835C19.0071 22.7487 18.9753 22.6839 18.9315 22.6407C18.8877 22.5968 18.8292 22.5749 18.7562 22.5749C18.6831 22.5749 18.6247 22.5968 18.5809 22.6407C18.5371 22.6839 18.5053 22.7487 18.4856 22.835C18.4666 22.9208 18.457 23.0275 18.457 23.1552Z" fill="#212121"/>
<path d="M15.8589 31.2441H14.9462V31.1117L15.3187 30.7335C15.3879 30.6636 15.446 30.6014 15.493 30.5467C15.5407 30.4921 15.5769 30.4384 15.6017 30.3857C15.6264 30.3324 15.6388 30.2739 15.6388 30.2104C15.6388 30.1317 15.6153 30.0716 15.5683 30.0303C15.5219 29.9884 15.4607 29.9675 15.3844 29.9675C15.3177 29.9675 15.2587 29.9789 15.2072 30.0018C15.1558 30.0246 15.1031 30.057 15.0491 30.0989L14.9643 29.9922C15.0011 29.9611 15.0411 29.9335 15.0843 29.9093C15.1281 29.8852 15.1748 29.8662 15.2244 29.8522C15.2745 29.8382 15.3279 29.8312 15.3844 29.8312C15.4702 29.8312 15.5442 29.8461 15.6064 29.876C15.6687 29.9059 15.7166 29.9484 15.7503 30.0037C15.7846 30.0589 15.8017 30.1247 15.8017 30.2009C15.8017 30.2746 15.7871 30.3432 15.7579 30.4067C15.7287 30.4696 15.6877 30.5321 15.635 30.5944C15.5823 30.656 15.5207 30.7214 15.4502 30.7906L15.1472 31.0927V31.0993H15.8589V31.2441ZM16.9831 30.5458C16.9831 30.6588 16.9746 30.7598 16.9574 30.8488C16.9403 30.9377 16.9133 31.0129 16.8764 31.0746C16.8396 31.1362 16.792 31.1832 16.7335 31.2156C16.6751 31.2473 16.6049 31.2632 16.523 31.2632C16.4194 31.2632 16.3337 31.2349 16.2657 31.1784C16.1984 31.1219 16.1479 31.0403 16.1142 30.9335C16.0812 30.8262 16.0647 30.6969 16.0647 30.5458C16.0647 30.3972 16.0796 30.2695 16.1095 30.1628C16.14 30.0554 16.1889 29.9732 16.2562 29.916C16.3235 29.8582 16.4124 29.8293 16.523 29.8293C16.6278 29.8293 16.7141 29.8579 16.7821 29.9151C16.8501 29.9716 16.9006 30.0535 16.9336 30.1609C16.9666 30.2676 16.9831 30.3959 16.9831 30.5458ZM16.2238 30.5458C16.2238 30.6754 16.2336 30.7833 16.2533 30.8697C16.273 30.9561 16.3048 31.0209 16.3486 31.0641C16.3931 31.1066 16.4512 31.1279 16.523 31.1279C16.5947 31.1279 16.6525 31.1066 16.6964 31.0641C16.7408 31.0215 16.7729 30.957 16.7926 30.8707C16.8129 30.7843 16.8231 30.676 16.8231 30.5458C16.8231 30.4181 16.8132 30.3114 16.7935 30.2257C16.7739 30.1393 16.7421 30.0745 16.6983 30.0313C16.6544 29.9875 16.596 29.9656 16.523 29.9656C16.4499 29.9656 16.3915 29.9875 16.3477 30.0313C16.3038 30.0745 16.2721 30.1393 16.2524 30.2257C16.2333 30.3114 16.2238 30.4181 16.2238 30.5458ZM18.0998 30.5458C18.0998 30.6588 18.0912 30.7598 18.074 30.8488C18.0569 30.9377 18.0299 31.0129 17.993 31.0746C17.9562 31.1362 17.9086 31.1832 17.8501 31.2156C17.7917 31.2473 17.7215 31.2632 17.6396 31.2632C17.536 31.2632 17.4503 31.2349 17.3823 31.1784C17.315 31.1219 17.2645 31.0403 17.2308 30.9335C17.1978 30.8262 17.1813 30.6969 17.1813 30.5458C17.1813 30.3972 17.1962 30.2695 17.2261 30.1628C17.2566 30.0554 17.3055 29.9732 17.3728 29.916C17.4401 29.8582 17.5291 29.8293 17.6396 29.8293C17.7444 29.8293 17.8308 29.8579 17.8987 29.9151C17.9667 29.9716 18.0172 30.0535 18.0502 30.1609C18.0832 30.2676 18.0998 30.3959 18.0998 30.5458ZM17.3404 30.5458C17.3404 30.6754 17.3503 30.7833 17.37 30.8697C17.3896 30.9561 17.4214 31.0209 17.4652 31.0641C17.5097 31.1066 17.5678 31.1279 17.6396 31.1279C17.7114 31.1279 17.7692 31.1066 17.813 31.0641C17.8574 31.0215 17.8895 30.957 17.9092 30.8707C17.9295 30.7843 17.9397 30.676 17.9397 30.5458C17.9397 30.4181 17.9298 30.3114 17.9102 30.2257C17.8905 30.1393 17.8587 30.0745 17.8149 30.0313C17.7711 29.9875 17.7126 29.9656 17.6396 29.9656C17.5665 29.9656 17.5081 29.9875 17.4643 30.0313C17.4204 30.0745 17.3887 30.1393 17.369 30.2257C17.3499 30.3114 17.3404 30.4181 17.3404 30.5458ZM19.2164 30.5458C19.2164 30.6588 19.2078 30.7598 19.1906 30.8488C19.1735 30.9377 19.1465 31.0129 19.1097 31.0746C19.0728 31.1362 19.0252 31.1832 18.9667 31.2156C18.9083 31.2473 18.8381 31.2632 18.7562 31.2632C18.6527 31.2632 18.5669 31.2349 18.499 31.1784C18.4316 31.1219 18.3811 31.0403 18.3475 30.9335C18.3144 30.8262 18.2979 30.6969 18.2979 30.5458C18.2979 30.3972 18.3128 30.2695 18.3427 30.1628C18.3732 30.0554 18.4221 29.9732 18.4894 29.916C18.5568 29.8582 18.6457 29.8293 18.7562 29.8293C18.861 29.8293 18.9474 29.8579 19.0153 29.9151C19.0833 29.9716 19.1338 30.0535 19.1668 30.1609C19.1999 30.2676 19.2164 30.3959 19.2164 30.5458ZM18.457 30.5458C18.457 30.6754 18.4669 30.7833 18.4866 30.8697C18.5063 30.9561 18.538 31.0209 18.5818 31.0641C18.6263 31.1066 18.6844 31.1279 18.7562 31.1279C18.828 31.1279 18.8858 31.1066 18.9296 31.0641C18.9741 31.0215 19.0061 30.957 19.0258 30.8707C19.0461 30.7843 19.0563 30.676 19.0563 30.5458C19.0563 30.4181 19.0465 30.3114 19.0268 30.2257C19.0071 30.1393 18.9753 30.0745 18.9315 30.0313C18.8877 29.9875 18.8292 29.9656 18.7562 29.9656C18.6831 29.9656 18.6247 29.9875 18.5809 30.0313C18.5371 30.0745 18.5053 30.1393 18.4856 30.2257C18.4666 30.3114 18.457 30.4181 18.457 30.5458Z" fill="#212121"/>
<path d="M15.535 38.6348H15.3806V37.6477C15.3806 37.6102 15.3806 37.5782 15.3806 37.5515C15.3813 37.5242 15.3819 37.4994 15.3825 37.4772C15.3838 37.4543 15.3854 37.4311 15.3873 37.4076C15.3676 37.428 15.3492 37.4454 15.332 37.46C15.3149 37.474 15.2936 37.4915 15.2682 37.5124L15.1091 37.6401L15.0262 37.5324L15.4035 37.2419H15.535V38.6348ZM16.503 37.783C16.5976 37.783 16.6798 37.7992 16.7497 37.8316C16.8196 37.8634 16.8736 37.9097 16.9117 37.9707C16.9504 38.0317 16.9698 38.1057 16.9698 38.1927C16.9698 38.288 16.9492 38.3702 16.9079 38.4395C16.8666 38.5081 16.8072 38.5611 16.7297 38.5986C16.6522 38.6354 16.5595 38.6538 16.4515 38.6538C16.3791 38.6538 16.3118 38.6475 16.2495 38.6348C16.1873 38.6221 16.1349 38.603 16.0923 38.5776V38.4271C16.1387 38.455 16.1949 38.4772 16.261 38.4938C16.327 38.5103 16.3912 38.5185 16.4534 38.5185C16.5239 38.5185 16.5855 38.5074 16.6382 38.4852C16.6916 38.4623 16.7329 38.428 16.7621 38.3823C16.792 38.3359 16.8069 38.2778 16.8069 38.2079C16.8069 38.1152 16.7783 38.0437 16.7211 37.9936C16.6646 37.9428 16.575 37.9173 16.4525 37.9173C16.4131 37.9173 16.3699 37.9205 16.3229 37.9269C16.2759 37.9332 16.2371 37.9402 16.2067 37.9478L16.1266 37.8954L16.18 37.2419H16.8726V37.3867H16.3153L16.28 37.8068C16.3041 37.8017 16.3353 37.7967 16.3734 37.7916C16.4115 37.7859 16.4547 37.783 16.503 37.783ZM18.0998 37.9364C18.0998 38.0495 18.0912 38.1505 18.074 38.2394C18.0569 38.3283 18.0299 38.4036 17.993 38.4652C17.9562 38.5268 17.9086 38.5738 17.8501 38.6062C17.7917 38.6379 17.7215 38.6538 17.6396 38.6538C17.536 38.6538 17.4503 38.6256 17.3823 38.569C17.315 38.5125 17.2645 38.4309 17.2308 38.3242C17.1978 38.2168 17.1813 38.0876 17.1813 37.9364C17.1813 37.7878 17.1962 37.6601 17.2261 37.5534C17.2566 37.4461 17.3055 37.3638 17.3728 37.3066C17.4401 37.2488 17.5291 37.2199 17.6396 37.2199C17.7444 37.2199 17.8308 37.2485 17.8987 37.3057C17.9667 37.3622 18.0172 37.4442 18.0502 37.5515C18.0832 37.6582 18.0998 37.7865 18.0998 37.9364ZM17.3404 37.9364C17.3404 38.066 17.3503 38.174 17.37 38.2603C17.3896 38.3467 17.4214 38.4115 17.4652 38.4547C17.5097 38.4973 17.5678 38.5185 17.6396 38.5185C17.7114 38.5185 17.7692 38.4973 17.813 38.4547C17.8574 38.4121 17.8895 38.3477 17.9092 38.2613C17.9295 38.1749 17.9397 38.0666 17.9397 37.9364C17.9397 37.8087 17.9298 37.702 17.9102 37.6163C17.8905 37.5299 17.8587 37.4651 17.8149 37.4219C17.7711 37.3781 17.7126 37.3562 17.6396 37.3562C17.5665 37.3562 17.5081 37.3781 17.4643 37.4219C17.4204 37.4651 17.3887 37.5299 17.369 37.6163C17.3499 37.702 17.3404 37.8087 17.3404 37.9364ZM19.2164 37.9364C19.2164 38.0495 19.2078 38.1505 19.1906 38.2394C19.1735 38.3283 19.1465 38.4036 19.1097 38.4652C19.0728 38.5268 19.0252 38.5738 18.9667 38.6062C18.9083 38.6379 18.8381 38.6538 18.7562 38.6538C18.6527 38.6538 18.5669 38.6256 18.499 38.569C18.4316 38.5125 18.3811 38.4309 18.3475 38.3242C18.3144 38.2168 18.2979 38.0876 18.2979 37.9364C18.2979 37.7878 18.3128 37.6601 18.3427 37.5534C18.3732 37.4461 18.4221 37.3638 18.4894 37.3066C18.5568 37.2488 18.6457 37.2199 18.7562 37.2199C18.861 37.2199 18.9474 37.2485 19.0153 37.3057C19.0833 37.3622 19.1338 37.4442 19.1668 37.5515C19.1999 37.6582 19.2164 37.7865 19.2164 37.9364ZM18.457 37.9364C18.457 38.066 18.4669 38.174 18.4866 38.2603C18.5063 38.3467 18.538 38.4115 18.5818 38.4547C18.6263 38.4973 18.6844 38.5185 18.7562 38.5185C18.828 38.5185 18.8858 38.4973 18.9296 38.4547C18.9741 38.4121 19.0061 38.3477 19.0258 38.2613C19.0461 38.1749 19.0563 38.0666 19.0563 37.9364C19.0563 37.8087 19.0465 37.702 19.0268 37.6163C19.0071 37.5299 18.9753 37.4651 18.9315 37.4219C18.8877 37.3781 18.8292 37.3562 18.7562 37.3562C18.6831 37.3562 18.6247 37.3781 18.5809 37.4219C18.5371 37.4651 18.5053 37.5299 18.4856 37.6163C18.4666 37.702 18.457 37.8087 18.457 37.9364Z" fill="#212121"/>
<path d="M15.535 46.0234H15.3806V45.0364C15.3806 44.9989 15.3806 44.9668 15.3806 44.9402C15.3813 44.9129 15.3819 44.8881 15.3825 44.8659C15.3838 44.843 15.3854 44.8198 15.3873 44.7963C15.3676 44.8166 15.3492 44.8341 15.332 44.8487C15.3149 44.8627 15.2936 44.8801 15.2682 44.9011L15.1091 45.0288L15.0262 44.9211L15.4035 44.6305H15.535V46.0234ZM16.9831 45.3251C16.9831 45.4381 16.9746 45.5391 16.9574 45.628C16.9403 45.717 16.9133 45.7922 16.8764 45.8538C16.8396 45.9155 16.792 45.9625 16.7335 45.9949C16.6751 46.0266 16.6049 46.0425 16.523 46.0425C16.4194 46.0425 16.3337 46.0142 16.2657 45.9577C16.1984 45.9012 16.1479 45.8196 16.1142 45.7128C16.0812 45.6055 16.0647 45.4762 16.0647 45.3251C16.0647 45.1764 16.0796 45.0488 16.1095 44.9421C16.14 44.8347 16.1889 44.7525 16.2562 44.6953C16.3235 44.6375 16.4124 44.6086 16.523 44.6086C16.6278 44.6086 16.7141 44.6372 16.7821 44.6944C16.8501 44.7509 16.9006 44.8328 16.9336 44.9402C16.9666 45.0469 16.9831 45.1752 16.9831 45.3251ZM16.2238 45.3251C16.2238 45.4546 16.2336 45.5626 16.2533 45.649C16.273 45.7354 16.3048 45.8002 16.3486 45.8434C16.3931 45.8859 16.4512 45.9072 16.523 45.9072C16.5947 45.9072 16.6525 45.8859 16.6964 45.8434C16.7408 45.8008 16.7729 45.7363 16.7926 45.65C16.8129 45.5636 16.8231 45.4553 16.8231 45.3251C16.8231 45.1974 16.8132 45.0907 16.7935 45.005C16.7739 44.9186 16.7421 44.8538 16.6983 44.8106C16.6544 44.7668 16.596 44.7449 16.523 44.7449C16.4499 44.7449 16.3915 44.7668 16.3477 44.8106C16.3038 44.8538 16.2721 44.9186 16.2524 45.005C16.2333 45.0907 16.2238 45.1974 16.2238 45.3251ZM18.0998 45.3251C18.0998 45.4381 18.0912 45.5391 18.074 45.628C18.0569 45.717 18.0299 45.7922 17.993 45.8538C17.9562 45.9155 17.9086 45.9625 17.8501 45.9949C17.7917 46.0266 17.7215 46.0425 17.6396 46.0425C17.536 46.0425 17.4503 46.0142 17.3823 45.9577C17.315 45.9012 17.2645 45.8196 17.2308 45.7128C17.1978 45.6055 17.1813 45.4762 17.1813 45.3251C17.1813 45.1764 17.1962 45.0488 17.2261 44.9421C17.2566 44.8347 17.3055 44.7525 17.3728 44.6953C17.4401 44.6375 17.5291 44.6086 17.6396 44.6086C17.7444 44.6086 17.8308 44.6372 17.8987 44.6944C17.9667 44.7509 18.0172 44.8328 18.0502 44.9402C18.0832 45.0469 18.0998 45.1752 18.0998 45.3251ZM17.3404 45.3251C17.3404 45.4546 17.3503 45.5626 17.37 45.649C17.3896 45.7354 17.4214 45.8002 17.4652 45.8434C17.5097 45.8859 17.5678 45.9072 17.6396 45.9072C17.7114 45.9072 17.7692 45.8859 17.813 45.8434C17.8574 45.8008 17.8895 45.7363 17.9092 45.65C17.9295 45.5636 17.9397 45.4553 17.9397 45.3251C17.9397 45.1974 17.9298 45.0907 17.9102 45.005C17.8905 44.9186 17.8587 44.8538 17.8149 44.8106C17.7711 44.7668 17.7126 44.7449 17.6396 44.7449C17.5665 44.7449 17.5081 44.7668 17.4643 44.8106C17.4204 44.8538 17.3887 44.9186 17.369 45.005C17.3499 45.0907 17.3404 45.1974 17.3404 45.3251ZM19.2164 45.3251C19.2164 45.4381 19.2078 45.5391 19.1906 45.628C19.1735 45.717 19.1465 45.7922 19.1097 45.8538C19.0728 45.9155 19.0252 45.9625 18.9667 45.9949C18.9083 46.0266 18.8381 46.0425 18.7562 46.0425C18.6527 46.0425 18.5669 46.0142 18.499 45.9577C18.4316 45.9012 18.3811 45.8196 18.3475 45.7128C18.3144 45.6055 18.2979 45.4762 18.2979 45.3251C18.2979 45.1764 18.3128 45.0488 18.3427 44.9421C18.3732 44.8347 18.4221 44.7525 18.4894 44.6953C18.5568 44.6375 18.6457 44.6086 18.7562 44.6086C18.861 44.6086 18.9474 44.6372 19.0153 44.6944C19.0833 44.7509 19.1338 44.8328 19.1668 44.9402C19.1999 45.0469 19.2164 45.1752 19.2164 45.3251ZM18.457 45.3251C18.457 45.4546 18.4669 45.5626 18.4866 45.649C18.5063 45.7354 18.538 45.8002 18.5818 45.8434C18.6263 45.8859 18.6844 45.9072 18.7562 45.9072C18.828 45.9072 18.8858 45.8859 18.9296 45.8434C18.9741 45.8008 19.0061 45.7363 19.0258 45.65C19.0461 45.5636 19.0563 45.4553 19.0563 45.3251C19.0563 45.1974 19.0465 45.0907 19.0268 45.005C19.0071 44.9186 18.9753 44.8538 18.9315 44.8106C18.8877 44.7668 18.8292 44.7449 18.7562 44.7449C18.6831 44.7449 18.6247 44.7668 18.5809 44.8106C18.5371 44.8538 18.5053 44.9186 18.4856 45.005C18.4666 45.0907 18.457 45.1974 18.457 45.3251Z" fill="#212121"/>
<path d="M16.5035 52.5623C16.5982 52.5623 16.6804 52.5785 16.7503 52.6109C16.8202 52.6427 16.8741 52.689 16.9123 52.75C16.951 52.811 16.9704 52.885 16.9704 52.972C16.9704 53.0673 16.9497 53.1495 16.9084 53.2187C16.8672 53.2873 16.8078 53.3404 16.7303 53.3779C16.6528 53.4147 16.5601 53.4331 16.4521 53.4331C16.3797 53.4331 16.3123 53.4268 16.2501 53.4141C16.1878 53.4014 16.1354 53.3823 16.0929 53.3569V53.2064C16.1393 53.2343 16.1955 53.2565 16.2615 53.2731C16.3276 53.2896 16.3917 53.2978 16.454 53.2978C16.5245 53.2978 16.5861 53.2867 16.6388 53.2645C16.6922 53.2416 16.7335 53.2073 16.7627 53.1616C16.7925 53.1152 16.8075 53.0571 16.8075 52.9872C16.8075 52.8945 16.7789 52.823 16.7217 52.7729C16.6652 52.7221 16.5756 52.6966 16.453 52.6966C16.4136 52.6966 16.3705 52.6998 16.3235 52.7062C16.2765 52.7125 16.2377 52.7195 16.2072 52.7271L16.1272 52.6747L16.1805 52.0212H16.8732V52.166H16.3158L16.2806 52.5861C16.3047 52.581 16.3358 52.576 16.374 52.5709C16.4121 52.5652 16.4553 52.5623 16.5035 52.5623ZM18.1003 52.7157C18.1003 52.8288 18.0917 52.9298 18.0746 53.0187C18.0575 53.1076 18.0305 53.1829 17.9936 53.2445C17.9568 53.3061 17.9091 53.3531 17.8507 53.3855C17.7923 53.4172 17.7221 53.4331 17.6401 53.4331C17.5366 53.4331 17.4509 53.4049 17.3829 53.3483C17.3156 53.2918 17.2651 53.2102 17.2314 53.1035C17.1984 52.9961 17.1819 52.8669 17.1819 52.7157C17.1819 52.5671 17.1968 52.4394 17.2267 52.3327C17.2571 52.2254 17.3061 52.1431 17.3734 52.0859C17.4407 52.0281 17.5296 51.9992 17.6401 51.9992C17.745 51.9992 17.8313 52.0278 17.8993 52.085C17.9673 52.1415 18.0178 52.2235 18.0508 52.3308C18.0838 52.4375 18.1003 52.5658 18.1003 52.7157ZM17.341 52.7157C17.341 52.8453 17.3508 52.9533 17.3705 53.0396C17.3902 53.126 17.422 53.1908 17.4658 53.234C17.5103 53.2765 17.5684 53.2978 17.6401 53.2978C17.7119 53.2978 17.7697 53.2765 17.8135 53.234C17.858 53.1914 17.8901 53.127 17.9098 53.0406C17.9301 52.9542 17.9403 52.8459 17.9403 52.7157C17.9403 52.588 17.9304 52.4813 17.9107 52.3956C17.891 52.3092 17.8593 52.2444 17.8155 52.2012C17.7716 52.1574 17.7132 52.1355 17.6401 52.1355C17.5671 52.1355 17.5087 52.1574 17.4648 52.2012C17.421 52.2444 17.3893 52.3092 17.3696 52.3956C17.3505 52.4813 17.341 52.588 17.341 52.7157ZM19.2169 52.7157C19.2169 52.8288 19.2084 52.9298 19.1912 53.0187C19.1741 53.1076 19.1471 53.1829 19.1102 53.2445C19.0734 53.3061 19.0258 53.3531 18.9673 53.3855C18.9089 53.4172 18.8387 53.4331 18.7568 53.4331C18.6532 53.4331 18.5675 53.4049 18.4995 53.3483C18.4322 53.2918 18.3817 53.2102 18.348 53.1035C18.315 52.9961 18.2985 52.8669 18.2985 52.7157C18.2985 52.5671 18.3134 52.4394 18.3433 52.3327C18.3738 52.2254 18.4227 52.1431 18.49 52.0859C18.5573 52.0281 18.6462 51.9992 18.7568 51.9992C18.8616 51.9992 18.9479 52.0278 19.0159 52.085C19.0839 52.1415 19.1344 52.2235 19.1674 52.3308C19.2004 52.4375 19.2169 52.5658 19.2169 52.7157ZM18.4576 52.7157C18.4576 52.8453 18.4674 52.9533 18.4871 53.0396C18.5068 53.126 18.5386 53.1908 18.5824 53.234C18.6269 53.2765 18.685 53.2978 18.7568 53.2978C18.8285 53.2978 18.8863 53.2765 18.9302 53.234C18.9746 53.1914 19.0067 53.127 19.0264 53.0406C19.0467 52.9542 19.0569 52.8459 19.0569 52.7157C19.0569 52.588 19.047 52.4813 19.0273 52.3956C19.0077 52.3092 18.9759 52.2444 18.9321 52.2012C18.8882 52.1574 18.8298 52.1355 18.7568 52.1355C18.6837 52.1355 18.6253 52.1574 18.5815 52.2012C18.5376 52.2444 18.5059 52.3092 18.4862 52.3956C18.4671 52.4813 18.4576 52.588 18.4576 52.7157Z" fill="#212121"/>
<path d="M16.6522 60.8047H16.4978V59.8176C16.4978 59.7802 16.4978 59.7481 16.4978 59.7214C16.4984 59.6941 16.4991 59.6693 16.4997 59.6471C16.501 59.6242 16.5026 59.6011 16.5045 59.5776C16.4848 59.5979 16.4664 59.6153 16.4492 59.63C16.4321 59.6439 16.4108 59.6614 16.3854 59.6824L16.2263 59.81L16.1434 59.7024L16.5207 59.4118H16.6522V60.8047ZM18.1003 60.1063C18.1003 60.2194 18.0917 60.3204 18.0746 60.4093C18.0575 60.4982 18.0305 60.5735 17.9936 60.6351C17.9568 60.6967 17.9091 60.7437 17.8507 60.7761C17.7923 60.8079 17.7221 60.8237 17.6401 60.8237C17.5366 60.8237 17.4509 60.7955 17.3829 60.7389C17.3156 60.6824 17.2651 60.6008 17.2314 60.4941C17.1984 60.3868 17.1819 60.2575 17.1819 60.1063C17.1819 59.9577 17.1968 59.83 17.2267 59.7233C17.2571 59.616 17.3061 59.5337 17.3734 59.4766C17.4407 59.4188 17.5296 59.3899 17.6401 59.3899C17.745 59.3899 17.8313 59.4184 17.8993 59.4756C17.9673 59.5321 18.0178 59.6141 18.0508 59.7214C18.0838 59.8281 18.1003 59.9564 18.1003 60.1063ZM17.341 60.1063C17.341 60.2359 17.3508 60.3439 17.3705 60.4303C17.3902 60.5166 17.422 60.5814 17.4658 60.6246C17.5103 60.6672 17.5684 60.6885 17.6401 60.6885C17.7119 60.6885 17.7697 60.6672 17.8135 60.6246C17.858 60.5821 17.8901 60.5176 17.9098 60.4312C17.9301 60.3448 17.9403 60.2365 17.9403 60.1063C17.9403 59.9787 17.9304 59.872 17.9107 59.7862C17.891 59.6998 17.8593 59.635 17.8155 59.5918C17.7716 59.548 17.7132 59.5261 17.6401 59.5261C17.5671 59.5261 17.5087 59.548 17.4648 59.5918C17.421 59.635 17.3893 59.6998 17.3696 59.7862C17.3505 59.872 17.341 59.9787 17.341 60.1063ZM19.2169 60.1063C19.2169 60.2194 19.2084 60.3204 19.1912 60.4093C19.1741 60.4982 19.1471 60.5735 19.1102 60.6351C19.0734 60.6967 19.0258 60.7437 18.9673 60.7761C18.9089 60.8079 18.8387 60.8237 18.7568 60.8237C18.6532 60.8237 18.5675 60.7955 18.4995 60.7389C18.4322 60.6824 18.3817 60.6008 18.348 60.4941C18.315 60.3868 18.2985 60.2575 18.2985 60.1063C18.2985 59.9577 18.3134 59.83 18.3433 59.7233C18.3738 59.616 18.4227 59.5337 18.49 59.4766C18.5573 59.4188 18.6462 59.3899 18.7568 59.3899C18.8616 59.3899 18.9479 59.4184 19.0159 59.4756C19.0839 59.5321 19.1344 59.6141 19.1674 59.7214C19.2004 59.8281 19.2169 59.9564 19.2169 60.1063ZM18.4576 60.1063C18.4576 60.2359 18.4674 60.3439 18.4871 60.4303C18.5068 60.5166 18.5386 60.5814 18.5824 60.6246C18.6269 60.6672 18.685 60.6885 18.7568 60.6885C18.8285 60.6885 18.8863 60.6672 18.9302 60.6246C18.9746 60.5821 19.0067 60.5176 19.0264 60.4312C19.0467 60.3448 19.0569 60.2365 19.0569 60.1063C19.0569 59.9787 19.047 59.872 19.0273 59.7862C19.0077 59.6998 18.9759 59.635 18.9321 59.5918C18.8882 59.548 18.8298 59.5261 18.7568 59.5261C18.6837 59.5261 18.6253 59.548 18.5815 59.5918C18.5376 59.635 18.5059 59.6998 18.4862 59.7862C18.4671 59.872 18.4576 59.9787 18.4576 60.1063Z" fill="#212121"/>
<path d="M19.2169 67.497C19.2169 67.61 19.2084 67.711 19.1912 67.7999C19.1741 67.8888 19.1471 67.9641 19.1102 68.0257C19.0734 68.0873 19.0258 68.1343 18.9673 68.1667C18.9089 68.1985 18.8387 68.2144 18.7568 68.2144C18.6532 68.2144 18.5675 68.1861 18.4995 68.1296C18.4322 68.073 18.3817 67.9914 18.348 67.8847C18.315 67.7774 18.2985 67.6481 18.2985 67.497C18.2985 67.3483 18.3134 67.2207 18.3433 67.1139C18.3738 67.0066 18.4227 66.9244 18.49 66.8672C18.5573 66.8094 18.6462 66.7805 18.7568 66.7805C18.8616 66.7805 18.9479 66.8091 19.0159 66.8662C19.0839 66.9228 19.1344 67.0047 19.1674 67.112C19.2004 67.2187 19.2169 67.3471 19.2169 67.497ZM18.4576 67.497C18.4576 67.6265 18.4674 67.7345 18.4871 67.8209C18.5068 67.9073 18.5386 67.9721 18.5824 68.0152C18.6269 68.0578 18.685 68.0791 18.7568 68.0791C18.8285 68.0791 18.8863 68.0578 18.9302 68.0152C18.9746 67.9727 19.0067 67.9082 19.0264 67.8218C19.0467 67.7355 19.0569 67.6272 19.0569 67.497C19.0569 67.3693 19.047 67.2626 19.0273 67.1768C19.0077 67.0904 18.9759 67.0257 18.9321 66.9825C18.8882 66.9386 18.8298 66.9167 18.7568 66.9167C18.6837 66.9167 18.6253 66.9386 18.5815 66.9825C18.5376 67.0257 18.5059 67.0904 18.4862 67.1768C18.4671 67.2626 18.4576 67.3693 18.4576 67.497Z" fill="#212121"/>
<path d="M30.6407 71.4141H30.4863V70.427C30.4863 70.3895 30.4863 70.3575 30.4863 70.3308C30.487 70.3035 30.4876 70.2787 30.4882 70.2565C30.4895 70.2336 30.4911 70.2104 30.493 70.1869C30.4733 70.2073 30.4549 70.2247 30.4377 70.2393C30.4206 70.2533 30.3993 70.2708 30.3739 70.2917L30.2148 70.4194L30.1319 70.3117L30.5092 70.0212H30.6407V71.4141Z" fill="#212121"/>
<path d="M22.9234 70.7157C22.9234 70.8288 22.9148 70.9298 22.8977 71.0187C22.8805 71.1076 22.8535 71.1829 22.8167 71.2445C22.7799 71.3061 22.7322 71.3531 22.6738 71.3855C22.6153 71.4172 22.5452 71.4331 22.4632 71.4331C22.3597 71.4331 22.2739 71.4049 22.206 71.3483C22.1387 71.2918 22.0882 71.2102 22.0545 71.1035C22.0215 70.9961 22.005 70.8669 22.005 70.7157C22.005 70.5671 22.0199 70.4394 22.0497 70.3327C22.0802 70.2254 22.1291 70.1431 22.1965 70.0859C22.2638 70.0281 22.3527 69.9992 22.4632 69.9992C22.568 69.9992 22.6544 70.0278 22.7224 70.085C22.7903 70.1415 22.8408 70.2235 22.8739 70.3308C22.9069 70.4375 22.9234 70.5658 22.9234 70.7157ZM22.1641 70.7157C22.1641 70.8453 22.1739 70.9533 22.1936 71.0396C22.2133 71.126 22.245 71.1908 22.2889 71.234C22.3333 71.2765 22.3915 71.2978 22.4632 71.2978C22.535 71.2978 22.5928 71.2765 22.6366 71.234C22.6811 71.1914 22.7132 71.127 22.7329 71.0406C22.7532 70.9542 22.7633 70.8459 22.7633 70.7157C22.7633 70.588 22.7535 70.4813 22.7338 70.3956C22.7141 70.3092 22.6824 70.2444 22.6385 70.2012C22.5947 70.1574 22.5363 70.1355 22.4632 70.1355C22.3902 70.1355 22.3317 70.1574 22.2879 70.2012C22.2441 70.2444 22.2123 70.3092 22.1926 70.3956C22.1736 70.4813 22.1641 70.588 22.1641 70.7157Z" fill="#212121"/>
<path d="M39.0134 71.4141H38.1007V71.2816L38.4732 70.9034C38.5425 70.8335 38.6006 70.7713 38.6476 70.7167C38.6952 70.662 38.7314 70.6084 38.7562 70.5556C38.781 70.5023 38.7933 70.4439 38.7933 70.3803C38.7933 70.3016 38.7698 70.2416 38.7228 70.2003C38.6765 70.1583 38.6152 70.1374 38.539 70.1374C38.4723 70.1374 38.4132 70.1488 38.3618 70.1717C38.3103 70.1946 38.2576 70.2269 38.2036 70.2689L38.1188 70.1622C38.1556 70.131 38.1957 70.1034 38.2389 70.0793C38.2827 70.0551 38.3294 70.0361 38.3789 70.0221C38.4291 70.0081 38.4824 70.0011 38.539 70.0011C38.6247 70.0011 38.6987 70.0161 38.761 70.0459C38.8232 70.0758 38.8712 70.1183 38.9048 70.1736C38.9391 70.2288 38.9563 70.2946 38.9563 70.3708C38.9563 70.4445 38.9417 70.5131 38.9124 70.5766C38.8832 70.6395 38.8423 70.702 38.7895 70.7643C38.7368 70.8259 38.6752 70.8913 38.6047 70.9606L38.3017 71.2626V71.2692H39.0134V71.4141Z" fill="#212121"/>
<path d="M47.255 70.346C47.255 70.4083 47.2429 70.4623 47.2187 70.508C47.1946 70.5537 47.161 70.5912 47.1178 70.6204C47.0746 70.649 47.0238 70.669 46.9653 70.6804V70.6881C47.0758 70.702 47.1587 70.7376 47.214 70.7948C47.2699 70.8519 47.2978 70.9269 47.2978 71.0196C47.2978 71.1003 47.2788 71.1717 47.2407 71.234C47.2032 71.2962 47.1454 71.3451 47.0673 71.3807C46.9898 71.4157 46.8904 71.4331 46.7691 71.4331C46.6954 71.4331 46.6271 71.4271 46.5642 71.415C46.502 71.4036 46.4423 71.3842 46.3851 71.3569V71.2083C46.4429 71.2369 46.5058 71.2594 46.5737 71.2759C46.6417 71.2918 46.7074 71.2997 46.771 71.2997C46.898 71.2997 46.9898 71.2746 47.0463 71.2245C47.1028 71.1737 47.1311 71.1044 47.1311 71.0168C47.1311 70.9564 47.1152 70.9078 47.0835 70.871C47.0523 70.8335 47.0072 70.8062 46.9482 70.7891C46.8897 70.7713 46.8192 70.7624 46.7367 70.7624H46.5976V70.6271H46.7376C46.8132 70.6271 46.8774 70.616 46.9301 70.5937C46.9828 70.5715 47.0228 70.5404 47.0501 70.5004C47.0781 70.4597 47.092 70.4118 47.092 70.3565C47.092 70.286 47.0685 70.2317 47.0215 70.1936C46.9745 70.1549 46.9107 70.1355 46.83 70.1355C46.7805 70.1355 46.7354 70.1406 46.6947 70.1507C46.6541 70.1609 46.616 70.1749 46.5804 70.1926C46.5448 70.2104 46.5093 70.2311 46.4737 70.2546L46.3937 70.146C46.4445 70.1066 46.5064 70.0726 46.5795 70.044C46.6525 70.0154 46.7354 70.0011 46.8281 70.0011C46.9704 70.0011 47.0771 70.0335 47.1482 70.0983C47.2194 70.1631 47.255 70.2457 47.255 70.346Z" fill="#212121"/>
<path d="M55.4248 71.0911H55.2161V71.4141H55.0618V71.0911H54.3882V70.9577L55.0513 70.0135H55.2161V70.9482H55.4248V71.0911ZM55.0618 70.9482V70.4928C55.0618 70.4578 55.0621 70.4264 55.0627 70.3984C55.0634 70.3699 55.0643 70.3435 55.0656 70.3194C55.0669 70.2946 55.0678 70.2711 55.0685 70.2489C55.0697 70.2266 55.0707 70.2047 55.0713 70.1831H55.0637C55.0516 70.2085 55.0376 70.2355 55.0218 70.2641C55.0065 70.292 54.991 70.3171 54.9751 70.3394L54.5454 70.9482H55.0618Z" fill="#212121"/>
<path d="M62.9315 70.5623C63.0261 70.5623 63.1084 70.5785 63.1783 70.6109C63.2481 70.6427 63.3021 70.689 63.3402 70.75C63.379 70.811 63.3983 70.885 63.3983 70.972C63.3983 71.0673 63.3777 71.1495 63.3364 71.2187C63.2951 71.2873 63.2357 71.3404 63.1583 71.3779C63.0808 71.4147 62.988 71.4331 62.88 71.4331C62.8076 71.4331 62.7403 71.4268 62.6781 71.4141C62.6158 71.4014 62.5634 71.3823 62.5209 71.3569V71.2064C62.5672 71.2343 62.6234 71.2565 62.6895 71.2731C62.7556 71.2896 62.8197 71.2978 62.882 71.2978C62.9525 71.2978 63.0141 71.2867 63.0668 71.2645C63.1201 71.2416 63.1614 71.2073 63.1906 71.1616C63.2205 71.1152 63.2354 71.0571 63.2354 70.9872C63.2354 70.8945 63.2068 70.823 63.1497 70.7729C63.0931 70.7221 63.0036 70.6966 62.881 70.6966C62.8416 70.6966 62.7984 70.6998 62.7514 70.7062C62.7044 70.7125 62.6657 70.7195 62.6352 70.7271L62.5552 70.6747L62.6085 70.0212H63.3012V70.166H62.7438L62.7086 70.5861C62.7327 70.581 62.7638 70.576 62.8019 70.5709C62.84 70.5652 62.8832 70.5623 62.9315 70.5623Z" fill="#212121"/>
<path d="M70.5544 70.8186C70.5544 70.7348 70.5602 70.6528 70.5716 70.5728C70.5837 70.4928 70.6037 70.4184 70.6316 70.3498C70.6596 70.2806 70.6977 70.22 70.746 70.1679C70.7942 70.1158 70.8542 70.0751 70.926 70.0459C70.9984 70.0161 71.0851 70.0011 71.1861 70.0011C71.2147 70.0011 71.2455 70.0027 71.2785 70.0059C71.3116 70.0084 71.3389 70.0129 71.3605 70.0192V70.1555C71.337 70.1472 71.31 70.1412 71.2795 70.1374C71.2496 70.1336 71.2195 70.1317 71.189 70.1317C71.0708 70.1317 70.9778 70.1574 70.9098 70.2088C70.8425 70.2603 70.7939 70.3302 70.7641 70.4184C70.7342 70.5061 70.7171 70.6049 70.7126 70.7147H70.7231C70.7428 70.683 70.7679 70.6544 70.7984 70.629C70.8288 70.603 70.8657 70.5823 70.9089 70.5671C70.9527 70.5518 71.0035 70.5442 71.0613 70.5442C71.1426 70.5442 71.2134 70.5607 71.2738 70.5937C71.3347 70.6268 71.3817 70.6747 71.4148 70.7376C71.4484 70.8005 71.4653 70.8767 71.4653 70.9663C71.4653 71.0622 71.4475 71.1451 71.4119 71.2149C71.3763 71.2848 71.3255 71.3388 71.2595 71.3769C71.1941 71.4144 71.1159 71.4331 71.0251 71.4331C70.9571 71.4331 70.8946 71.4201 70.8374 71.3941C70.7802 71.368 70.7304 71.3293 70.6878 71.2778C70.6459 71.2264 70.6132 71.1625 70.5897 71.0863C70.5662 71.0095 70.5544 70.9202 70.5544 70.8186ZM71.0232 71.2997C71.1096 71.2997 71.1788 71.2721 71.2309 71.2168C71.283 71.1616 71.309 71.0781 71.309 70.9663C71.309 70.8748 71.2858 70.8024 71.2395 70.749C71.1931 70.6957 71.1232 70.669 71.0299 70.669C70.9664 70.669 70.9111 70.6824 70.8641 70.709C70.8171 70.7351 70.7806 70.7681 70.7545 70.8081C70.7285 70.8481 70.7155 70.8888 70.7155 70.9301C70.7155 70.972 70.7215 71.0145 70.7336 71.0577C70.7463 71.1009 70.7653 71.1409 70.7907 71.1778C70.8161 71.2146 70.8482 71.2442 70.887 71.2664C70.9257 71.2886 70.9711 71.2997 71.0232 71.2997Z" fill="#212121"/>
<path d="M78.5249 71.4141L79.0966 70.166H78.3372V70.0212H79.2661V70.1431L78.6983 71.4141H78.5249Z" fill="#212121"/>
<path d="M21.6339 68.9267C21.6339 68.994 21.6885 69.0486 21.7559 69.0486C21.8232 69.0486 21.8778 68.994 21.8778 68.9267H21.6339ZM21.7559 21.8535H21.6339V68.9267H21.7559H21.8778V21.8535H21.7559Z" fill="#D4D4D4"/>
<path d="M21.7559 68.9258H78.0973" stroke="#D4D4D4" stroke-width="0.243902"/>
<path d="M29.8258 42.8517C27.451 47.0205 23.524 47.8553 21.8574 47.7516V67.1947H78.0966V53.8355C76.2387 53.9598 72.0737 53.8438 70.2769 52.3861C68.48 50.9285 65.3687 50.923 64.0377 51.1024C60.3108 51.9969 57.9649 49.9567 57.2578 48.8248C55.6356 46.0917 52.2665 45.4292 50.6027 46.8785C49.728 47.727 48.779 48.3472 48.0792 48.7291C47.5582 49.0133 46.9784 49.1632 46.3849 49.169C46.0179 49.1726 45.5594 49.16 45.029 49.1147C42.8628 49.0662 38.5912 45.4402 35.2486 42.1781C33.6424 40.6106 30.9487 40.9084 29.8258 42.8517Z" fill="url(#paint0_linear_6358_53461)"/>
<path d="M21.8574 47.7516C23.5167 47.8553 27.4263 47.0205 29.7906 42.8517V42.8517C30.9066 40.9118 33.5946 40.6149 35.1928 42.1814C38.5201 45.4426 42.7707 49.0663 44.9266 49.1147C45.4512 49.1597 45.9051 49.1724 46.2692 49.1691C46.8649 49.1636 47.4468 49.0126 47.9691 48.7259C48.6653 48.3438 49.6073 47.7247 50.4757 46.8785C52.1321 45.4292 55.4863 46.0917 57.1014 48.8248C57.8053 49.9567 60.1409 51.9969 63.8513 51.1024C65.1764 50.923 68.2739 50.9285 70.0629 52.3861C71.8518 53.8438 76.2413 53.9463 78.091 53.822" stroke="#B984FF" stroke-width="0.352629" stroke-linecap="round"/>
<path d="M24.4758 58.0305L21.7559 60.5444V68.9031H78.0973V54.9264L73.1683 48.9251C72.5918 48.2231 71.6315 47.9675 70.7823 48.2899L68.043 49.3299C67.1931 49.6526 66.232 49.3962 65.6557 48.6931L63.0684 45.5362C61.3636 43.4561 59.3427 43.4205 58.0677 45.7886C57.8825 46.1325 57.5791 46.7698 57.4432 47.136C55.844 51.4453 51.1931 55.1254 48.0972 57.0269C47.2485 57.5481 46.1911 57.5319 45.3149 57.0584L41.2745 54.8751C40.1315 54.2574 38.7206 54.4465 37.7806 55.3434L34.7786 58.2074C33.3007 59.6173 30.9665 59.5863 29.5266 58.1376C28.1461 56.7486 25.914 56.7013 24.4758 58.0305Z" fill="url(#paint1_linear_6358_53461)"/>
<path d="M21.7559 60.6308L24.8481 57.7729C26.085 56.6296 27.9997 56.6518 29.2098 57.8235L29.9654 58.5551C31.1701 59.7216 33.0745 59.7495 34.3129 58.6187L37.8072 55.4283C38.8143 54.5088 40.2963 54.3354 41.4884 54.9977L45.2211 57.0715C46.1544 57.59 47.2898 57.6141 48.1972 57.0516C51.1278 55.235 55.3793 51.8687 57.1661 47.8974C57.5254 47.0986 57.8436 46.2772 58.2968 45.5277C58.4402 45.2906 58.5788 45.0667 58.7116 44.8566C59.5471 43.5351 61.0613 43.5373 62.0848 44.7191L65.1295 48.2349C66.0205 49.2639 67.4685 49.6101 68.7286 49.0954L70.0978 48.5361C71.4118 47.9994 72.9224 48.4004 73.7972 49.5182L78.0973 55.0128" stroke="#9C9C9C" stroke-width="0.352629" stroke-linecap="round"/>
<g filter="url(#filter0_d_6358_53461)">
<path d="M31.5039 38.6914C32.0571 38.7478 32.4892 39.2151 32.4893 39.7832V40.2715C32.4888 40.8771 31.9973 41.3679 31.3916 41.3682H30.374L29.9277 41.8145L29.4824 41.3682H28.4648C27.859 41.3682 27.3677 40.8772 27.3672 40.2715V39.7832C27.3672 39.1771 27.8587 38.6856 28.4648 38.6855H31.3916L31.5039 38.6914Z" fill="white"/>
</g>
<g filter="url(#filter1_d_6358_53461)">
<path d="M31.5039 55.0312C32.0571 55.0877 32.4891 55.555 32.4893 56.123V56.6113C32.489 57.2171 31.9974 57.7078 31.3916 57.708H30.375L29.9277 58.1543L29.4814 57.708H28.4648C27.8588 57.708 27.3674 57.2173 27.3672 56.6113V56.123C27.3673 55.517 27.8588 55.0254 28.4648 55.0254H31.3916L31.5039 55.0312Z" fill="white"/>
</g>
<g filter="url(#filter2_d_6358_53461)">
<path d="M39.5508 52.5938C40.1042 52.65 40.5361 53.1173 40.5361 53.6855V54.1738C40.5357 54.7796 40.0444 55.2705 39.4385 55.2705H38.4219L37.9756 55.7168L37.5303 55.2705H36.5117C35.906 55.2703 35.4145 54.7795 35.4141 54.1738V53.6855C35.4141 53.0796 35.9058 52.5881 36.5117 52.5879H39.4385L39.5508 52.5938Z" fill="white"/>
</g>
<g filter="url(#filter3_d_6358_53461)">
<path d="M47.5996 54.2988C48.1531 54.355 48.5849 54.8224 48.585 55.3906V55.8789C48.5847 56.4848 48.0933 56.9756 47.4873 56.9756H46.4707L46.0244 57.4219L45.5781 56.9756H44.5605C43.9547 56.9754 43.4632 56.4847 43.4629 55.8789V55.3906C43.4629 54.7846 43.9546 54.2932 44.5605 54.293H47.4873L47.5996 54.2988Z" fill="white"/>
</g>
<g filter="url(#filter4_d_6358_53461)">
<path d="M39.5508 41.373C40.1042 41.4293 40.5361 41.8966 40.5361 42.4648V42.9531C40.5358 43.559 40.0445 44.0498 39.4385 44.0498H38.4229L37.9756 44.4961L37.5293 44.0498H36.5117C35.906 44.0495 35.4144 43.5589 35.4141 42.9531V42.4648C35.4141 41.8588 35.9058 41.3674 36.5117 41.3672H39.4385L39.5508 41.373Z" fill="white"/>
</g>
<g filter="url(#filter5_d_6358_53461)">
<path d="M47.5996 46.0059C48.153 46.0621 48.5848 46.5295 48.585 47.0977V47.5859C48.5847 48.1919 48.0933 48.6826 47.4873 48.6826H46.4707L46.0244 49.1289L45.5781 48.6826H44.5605C43.9547 48.6824 43.4631 48.1918 43.4629 47.5859V47.0977C43.463 46.4918 43.9547 46.0002 44.5605 46H47.4873L47.5996 46.0059Z" fill="white"/>
</g>
<g filter="url(#filter6_d_6358_53461)">
<path d="M55.6484 43.3242C56.2019 43.3804 56.6338 43.8477 56.6338 44.416V44.9043C56.6335 45.5102 56.1421 46.001 55.5361 46.001H54.5195L54.0732 46.4473L53.627 46.001H52.6094C52.0036 46.0008 51.512 45.5101 51.5117 44.9043V44.416C51.5117 43.81 52.0034 43.3186 52.6094 43.3184H55.5361L55.6484 43.3242Z" fill="white"/>
</g>
<g filter="url(#filter7_d_6358_53461)">
<path d="M63.6973 40.8848C64.2506 40.941 64.6824 41.4085 64.6826 41.9766V42.4648C64.6824 43.0708 64.191 43.5615 63.585 43.5615H62.5684L62.1221 44.0078L61.6758 43.5615H60.6582C60.0523 43.5613 59.5608 43.0707 59.5605 42.4648V41.9766C59.5608 41.3707 60.0523 40.8791 60.6582 40.8789H63.585L63.6973 40.8848Z" fill="white"/>
</g>
<g filter="url(#filter8_d_6358_53461)">
<path d="M71.7461 45.5195C72.2995 45.5757 72.7314 46.0431 72.7314 46.6113V47.0996C72.7311 47.7054 72.2397 48.1963 71.6338 48.1963H70.6162L70.1709 48.6426L69.7246 48.1963H68.707C68.1012 48.1961 67.6098 47.7054 67.6094 47.0996V46.6113C67.6094 46.0053 68.101 45.5138 68.707 45.5137H71.6338L71.7461 45.5195Z" fill="white"/>
</g>
<g filter="url(#filter9_d_6358_53461)">
<path d="M79.7949 50.8848C80.3483 50.941 80.7801 51.4085 80.7803 51.9766V52.4648C80.78 53.0708 80.2886 53.5615 79.6826 53.5615H78.666L78.2197 54.0078L77.7725 53.5615H76.7559C76.15 53.5614 75.6584 53.0707 75.6582 52.4648V51.9766C75.6584 51.3707 76.1499 50.879 76.7559 50.8789H79.6826L79.7949 50.8848Z" fill="white"/>
</g>
<path d="M28.9123 40.8066H28.7436V40.1342C28.7436 40.1119 28.7439 40.0895 28.7443 40.0671C28.7448 40.0447 28.7453 40.0228 28.7458 40.0013C28.7467 39.9799 28.7479 39.9594 28.7493 39.9399C28.7393 39.9508 28.7269 39.9627 28.7122 39.9756C28.6979 39.9885 28.6826 40.0018 28.6664 40.0156L28.5464 40.1114L28.4621 40.0049L28.7722 39.762H28.9123V40.8066ZM29.8107 40.8066H29.6421V40.1342C29.6421 40.1119 29.6423 40.0895 29.6428 40.0671C29.6432 40.0447 29.6437 40.0228 29.6442 40.0013C29.6452 39.9799 29.6463 39.9594 29.6478 39.9399C29.6378 39.9508 29.6254 39.9627 29.6106 39.9756C29.5963 39.9885 29.5811 40.0018 29.5649 40.0156L29.4448 40.1114L29.3605 40.0049L29.6706 39.762H29.8107V40.8066ZM30.9228 40.2836C30.9228 40.3679 30.9161 40.4434 30.9028 40.5101C30.8899 40.5763 30.8694 40.6325 30.8413 40.6787C30.8132 40.7249 30.7765 40.7602 30.7313 40.7845C30.686 40.8088 30.6312 40.8209 30.5669 40.8209C30.4864 40.8209 30.42 40.7997 30.3676 40.7573C30.3152 40.7145 30.2763 40.653 30.2511 40.573C30.2258 40.4925 30.2132 40.396 30.2132 40.2836C30.2132 40.1712 30.2247 40.0749 30.2475 39.9949C30.2709 39.9144 30.3085 39.8527 30.3604 39.8098C30.4123 39.767 30.4812 39.7455 30.5669 39.7455C30.6479 39.7455 30.7146 39.767 30.767 39.8098C30.8199 39.8522 30.8589 39.9137 30.8842 39.9942C30.9099 40.0742 30.9228 40.1707 30.9228 40.2836ZM30.3826 40.2836C30.3826 40.3717 30.3883 40.4453 30.3997 40.5044C30.4116 40.5635 30.4312 40.6078 30.4583 40.6373C30.4855 40.6663 30.5217 40.6809 30.5669 40.6809C30.6122 40.6809 30.6484 40.6663 30.6755 40.6373C30.7027 40.6082 30.7222 40.5642 30.7341 40.5051C30.7465 40.446 30.7527 40.3722 30.7527 40.2836C30.7527 40.1959 30.7468 40.1226 30.7349 40.0635C30.7229 40.0044 30.7034 39.9601 30.6763 39.9306C30.6491 39.9006 30.6127 39.8856 30.5669 39.8856C30.5212 39.8856 30.4848 39.9006 30.4576 39.9306C30.4309 39.9601 30.4116 40.0044 30.3997 40.0635C30.3883 40.1226 30.3826 40.1959 30.3826 40.2836ZM31.8212 40.2836C31.8212 40.3679 31.8145 40.4434 31.8012 40.5101C31.7883 40.5763 31.7679 40.6325 31.7398 40.6787C31.7117 40.7249 31.675 40.7602 31.6297 40.7845C31.5845 40.8088 31.5297 40.8209 31.4654 40.8209C31.3849 40.8209 31.3184 40.7997 31.266 40.7573C31.2136 40.7145 31.1748 40.653 31.1495 40.573C31.1243 40.4925 31.1117 40.396 31.1117 40.2836C31.1117 40.1712 31.1231 40.0749 31.146 39.9949C31.1693 39.9144 31.2069 39.8527 31.2589 39.8098C31.3108 39.767 31.3796 39.7455 31.4654 39.7455C31.5464 39.7455 31.613 39.767 31.6654 39.8098C31.7183 39.8522 31.7574 39.9137 31.7826 39.9942C31.8084 40.0742 31.8212 40.1707 31.8212 40.2836ZM31.281 40.2836C31.281 40.3717 31.2867 40.4453 31.2982 40.5044C31.3101 40.5635 31.3296 40.6078 31.3568 40.6373C31.3839 40.6663 31.4201 40.6809 31.4654 40.6809C31.5106 40.6809 31.5468 40.6663 31.574 40.6373C31.6011 40.6082 31.6207 40.5642 31.6326 40.5051C31.645 40.446 31.6512 40.3722 31.6512 40.2836C31.6512 40.1959 31.6452 40.1226 31.6333 40.0635C31.6214 40.0044 31.6018 39.9601 31.5747 39.9306C31.5475 39.9006 31.5111 39.8856 31.4654 39.8856C31.4196 39.8856 31.3832 39.9006 31.356 39.9306C31.3294 39.9601 31.3101 40.0044 31.2982 40.0635C31.2867 40.1226 31.281 40.1959 31.281 40.2836Z" fill="#212121"/>
<path d="M29.3478 57.1484H29.1792V56.476C29.1792 56.4536 29.1794 56.4313 29.1799 56.4089C29.1804 56.3865 29.1808 56.3646 29.1813 56.3431C29.1823 56.3217 29.1835 56.3012 29.1849 56.2817C29.1749 56.2926 29.1625 56.3045 29.1477 56.3174C29.1334 56.3303 29.1182 56.3436 29.102 56.3574L28.9819 56.4532L28.8976 56.3467L29.2077 56.1038H29.3478V57.1484ZM30.4599 56.6254C30.4599 56.7097 30.4532 56.7852 30.4399 56.8519C30.427 56.9181 30.4065 56.9743 30.3784 57.0205C30.3503 57.0667 30.3136 57.102 30.2684 57.1263C30.2231 57.1506 30.1683 57.1627 30.104 57.1627C30.0235 57.1627 29.9571 57.1415 29.9047 57.0991C29.8523 57.0563 29.8135 56.9948 29.7882 56.9148C29.763 56.8343 29.7503 56.7378 29.7503 56.6254C29.7503 56.513 29.7618 56.4167 29.7846 56.3367C29.808 56.2562 29.8456 56.1945 29.8975 56.1516C29.9495 56.1088 30.0183 56.0873 30.104 56.0873C30.185 56.0873 30.2517 56.1088 30.3041 56.1516C30.357 56.194 30.3961 56.2555 30.4213 56.336C30.447 56.416 30.4599 56.5125 30.4599 56.6254ZM29.9197 56.6254C29.9197 56.7135 29.9254 56.7871 29.9368 56.8462C29.9487 56.9052 29.9683 56.9496 29.9954 56.9791C30.0226 57.0081 30.0588 57.0227 30.104 57.0227C30.1493 57.0227 30.1855 57.0081 30.2127 56.9791C30.2398 56.95 30.2593 56.906 30.2712 56.8469C30.2836 56.7878 30.2898 56.714 30.2898 56.6254C30.2898 56.5377 30.2839 56.4644 30.272 56.4053C30.2601 56.3462 30.2405 56.3019 30.2134 56.2724C30.1862 56.2424 30.1498 56.2274 30.104 56.2274C30.0583 56.2274 30.0219 56.2424 29.9947 56.2724C29.968 56.3019 29.9487 56.3462 29.9368 56.4053C29.9254 56.4644 29.9197 56.5377 29.9197 56.6254ZM31.3583 56.6254C31.3583 56.7097 31.3517 56.7852 31.3383 56.8519C31.3255 56.9181 31.305 56.9743 31.2769 57.0205C31.2488 57.0667 31.2121 57.102 31.1668 57.1263C31.1216 57.1506 31.0668 57.1627 31.0025 57.1627C30.922 57.1627 30.8555 57.1415 30.8031 57.0991C30.7507 57.0563 30.7119 56.9948 30.6866 56.9148C30.6614 56.8343 30.6488 56.7378 30.6488 56.6254C30.6488 56.513 30.6602 56.4167 30.6831 56.3367C30.7064 56.2562 30.744 56.1945 30.796 56.1516C30.8479 56.1088 30.9167 56.0873 31.0025 56.0873C31.0835 56.0873 31.1502 56.1088 31.2026 56.1516C31.2554 56.194 31.2945 56.2555 31.3197 56.336C31.3455 56.416 31.3583 56.5125 31.3583 56.6254ZM30.8181 56.6254C30.8181 56.7135 30.8238 56.7871 30.8353 56.8462C30.8472 56.9052 30.8667 56.9496 30.8939 56.9791C30.921 57.0081 30.9572 57.0227 31.0025 57.0227C31.0477 57.0227 31.0839 57.0081 31.1111 56.9791C31.1382 56.95 31.1578 56.906 31.1697 56.8469C31.1821 56.7878 31.1883 56.714 31.1883 56.6254C31.1883 56.5377 31.1823 56.4644 31.1704 56.4053C31.1585 56.3462 31.139 56.3019 31.1118 56.2724C31.0847 56.2424 31.0482 56.2274 31.0025 56.2274C30.9567 56.2274 30.9203 56.2424 30.8931 56.2724C30.8665 56.3019 30.8472 56.3462 30.8353 56.4053C30.8238 56.4644 30.8181 56.5377 30.8181 56.6254Z" fill="#212121"/>
<path d="M37.6103 54.709H36.9029V54.5825L37.1737 54.3081C37.2261 54.2548 37.2692 54.2088 37.303 54.1702C37.3368 54.1311 37.3619 54.0942 37.378 54.0595C37.3947 54.0247 37.4031 53.9868 37.4031 53.9458C37.4031 53.8953 37.3885 53.8572 37.3595 53.8315C37.3304 53.8053 37.2921 53.7922 37.2444 53.7922C37.1992 53.7922 37.1573 53.8013 37.1187 53.8194C37.0806 53.837 37.041 53.8622 37 53.8951L36.9079 53.7843C36.9369 53.7596 36.9679 53.7369 37.0008 53.7165C37.0341 53.696 37.0713 53.6798 37.1122 53.6679C37.1532 53.6555 37.1999 53.6493 37.2523 53.6493C37.3185 53.6493 37.3757 53.6612 37.4238 53.685C37.4719 53.7084 37.5088 53.741 37.5345 53.7829C37.5607 53.8248 37.5738 53.8737 37.5738 53.9294C37.5738 53.9856 37.5626 54.0375 37.5403 54.0852C37.5179 54.1328 37.4859 54.18 37.4445 54.2267C37.4031 54.2729 37.3538 54.3231 37.2966 54.3774L37.1158 54.5539V54.5618H37.6103V54.709ZM38.5087 54.1859C38.5087 54.2702 38.502 54.3458 38.4887 54.4124C38.4758 54.4787 38.4554 54.5349 38.4273 54.5811C38.3992 54.6273 38.3625 54.6625 38.3172 54.6868C38.272 54.7111 38.2172 54.7233 38.1529 54.7233C38.0724 54.7233 38.0059 54.7021 37.9535 54.6597C37.9011 54.6168 37.8623 54.5554 37.837 54.4753C37.8118 54.3948 37.7992 54.2984 37.7992 54.1859C37.7992 54.0735 37.8106 53.9773 37.8335 53.8972C37.8568 53.8167 37.8944 53.755 37.9464 53.7122C37.9983 53.6693 38.0671 53.6479 38.1529 53.6479C38.2339 53.6479 38.3005 53.6693 38.3529 53.7122C38.4058 53.7546 38.4449 53.816 38.4701 53.8965C38.4959 53.9766 38.5087 54.073 38.5087 54.1859ZM37.9685 54.1859C37.9685 54.2741 37.9742 54.3477 37.9857 54.4067C37.9976 54.4658 38.0171 54.5101 38.0443 54.5396C38.0714 54.5687 38.1076 54.5832 38.1529 54.5832C38.1981 54.5832 38.2343 54.5687 38.2615 54.5396C38.2886 54.5106 38.3082 54.4665 38.3201 54.4074C38.3325 54.3484 38.3387 54.2745 38.3387 54.1859C38.3387 54.0983 38.3327 54.0249 38.3208 53.9658C38.3089 53.9068 38.2893 53.8625 38.2622 53.8329C38.235 53.8029 38.1986 53.7879 38.1529 53.7879C38.1071 53.7879 38.0707 53.8029 38.0435 53.8329C38.0169 53.8625 37.9976 53.9068 37.9857 53.9658C37.9742 54.0249 37.9685 54.0983 37.9685 54.1859ZM39.4072 54.1859C39.4072 54.2702 39.4005 54.3458 39.3871 54.4124C39.3743 54.4787 39.3538 54.5349 39.3257 54.5811C39.2976 54.6273 39.2609 54.6625 39.2157 54.6868C39.1704 54.7111 39.1156 54.7233 39.0513 54.7233C38.9708 54.7233 38.9043 54.7021 38.8519 54.6597C38.7995 54.6168 38.7607 54.5554 38.7355 54.4753C38.7102 54.3948 38.6976 54.2984 38.6976 54.1859C38.6976 54.0735 38.709 53.9773 38.7319 53.8972C38.7552 53.8167 38.7929 53.755 38.8448 53.7122C38.8967 53.6693 38.9656 53.6479 39.0513 53.6479C39.1323 53.6479 39.199 53.6693 39.2514 53.7122C39.3043 53.7546 39.3433 53.816 39.3686 53.8965C39.3943 53.9766 39.4072 54.073 39.4072 54.1859ZM38.8669 54.1859C38.8669 54.2741 38.8727 54.3477 38.8841 54.4067C38.896 54.4658 38.9155 54.5101 38.9427 54.5396C38.9698 54.5687 39.006 54.5832 39.0513 54.5832C39.0966 54.5832 39.1328 54.5687 39.1599 54.5396C39.1871 54.5106 39.2066 54.4665 39.2185 54.4074C39.2309 54.3484 39.2371 54.2745 39.2371 54.1859C39.2371 54.0983 39.2311 54.0249 39.2192 53.9658C39.2073 53.9068 39.1878 53.8625 39.1606 53.8329C39.1335 53.8029 39.097 53.7879 39.0513 53.7879C39.0056 53.7879 38.9691 53.8029 38.942 53.8329C38.9153 53.8625 38.896 53.9068 38.8841 53.9658C38.8727 54.0249 38.8669 54.0983 38.8669 54.1859Z" fill="#212121"/>
<path d="M45.4455 56.416H45.2768V55.7436C45.2768 55.7212 45.2771 55.6988 45.2775 55.6764C45.278 55.6541 45.2785 55.6321 45.279 55.6107C45.2799 55.5893 45.2811 55.5688 45.2825 55.5493C45.2725 55.5602 45.2601 55.5721 45.2454 55.585C45.2311 55.5978 45.2158 55.6112 45.1996 55.625L45.0796 55.7208L44.9953 55.6143L45.3054 55.3713H45.4455V56.416ZM46.5575 56.416H45.8501V56.2895L46.121 56.0151C46.1734 55.9618 46.2165 55.9158 46.2503 55.8772C46.2841 55.8382 46.3091 55.8013 46.3253 55.7665C46.342 55.7317 46.3503 55.6938 46.3503 55.6529C46.3503 55.6024 46.3358 55.5643 46.3067 55.5385C46.2777 55.5123 46.2393 55.4992 46.1917 55.4992C46.1464 55.4992 46.1045 55.5083 46.0659 55.5264C46.0278 55.544 45.9883 55.5693 45.9473 55.6021L45.8551 55.4914C45.8842 55.4666 45.9152 55.444 45.948 55.4235C45.9814 55.403 46.0185 55.3868 46.0595 55.3749C46.1005 55.3625 46.1472 55.3563 46.1996 55.3563C46.2658 55.3563 46.3229 55.3682 46.371 55.3921C46.4192 55.4154 46.4561 55.448 46.4818 55.4899C46.508 55.5319 46.5211 55.5807 46.5211 55.6364C46.5211 55.6926 46.5099 55.7446 46.4875 55.7922C46.4651 55.8398 46.4332 55.887 46.3918 55.9337C46.3503 55.9799 46.301 56.0302 46.2439 56.0845L46.0631 56.261V56.2688H46.5575V56.416ZM47.1037 55.7629C47.1709 55.7629 47.2299 55.7751 47.2809 55.7994C47.3324 55.8232 47.3724 55.8584 47.401 55.9051C47.4295 55.9513 47.4438 56.008 47.4438 56.0752C47.4438 56.1485 47.4284 56.2119 47.3974 56.2652C47.3664 56.3181 47.3209 56.3589 47.2609 56.3874C47.2009 56.416 47.1278 56.4303 47.0415 56.4303C46.9868 56.4303 46.9355 56.4255 46.8879 56.416C46.8407 56.4065 46.8 56.3922 46.7657 56.3731V56.2217C46.8014 56.2417 46.8443 56.2581 46.8943 56.271C46.9444 56.2833 46.9922 56.2895 47.038 56.2895C47.0866 56.2895 47.1282 56.2824 47.163 56.2681C47.1978 56.2538 47.2245 56.2319 47.243 56.2024C47.2621 56.1728 47.2716 56.1354 47.2716 56.0902C47.2716 56.0302 47.2523 55.9839 47.2137 55.9516C47.1756 55.9187 47.1159 55.9022 47.0344 55.9022C47.0058 55.9022 46.9753 55.9049 46.9429 55.9101C46.911 55.9149 46.8843 55.9201 46.8629 55.9258L46.7893 55.8822L46.8286 55.3713H47.3717V55.5192H46.9765L46.9536 55.7793C46.9708 55.7755 46.9913 55.772 47.0151 55.7686C47.0389 55.7648 47.0685 55.7629 47.1037 55.7629Z" fill="#212121"/>
<path d="M36.9611 43.4902H36.7924V42.8178C36.7924 42.7954 36.7927 42.7731 36.7932 42.7507C36.7936 42.7283 36.7941 42.7064 36.7946 42.6849C36.7955 42.6635 36.7967 42.643 36.7982 42.6235C36.7882 42.6344 36.7758 42.6463 36.761 42.6592C36.7467 42.6721 36.7315 42.6854 36.7153 42.6992L36.5952 42.795L36.5109 42.6885L36.821 42.4456H36.9611V43.4902ZM38.0732 42.9672C38.0732 43.0515 38.0665 43.127 38.0532 43.1937C38.0403 43.2599 38.0198 43.3161 37.9917 43.3623C37.9636 43.4085 37.9269 43.4438 37.8817 43.4681C37.8364 43.4924 37.7816 43.5045 37.7173 43.5045C37.6368 43.5045 37.5704 43.4833 37.518 43.4409C37.4656 43.3981 37.4267 43.3366 37.4015 43.2566C37.3762 43.1761 37.3636 43.0796 37.3636 42.9672C37.3636 42.8548 37.375 42.7585 37.3979 42.6785C37.4213 42.598 37.4589 42.5363 37.5108 42.4934C37.5627 42.4506 37.6316 42.4291 37.7173 42.4291C37.7983 42.4291 37.865 42.4506 37.9174 42.4934C37.9703 42.5358 38.0093 42.5973 38.0346 42.6778C38.0603 42.7578 38.0732 42.8543 38.0732 42.9672ZM37.533 42.9672C37.533 43.0553 37.5387 43.1289 37.5501 43.188C37.562 43.247 37.5816 43.2913 37.6087 43.3209C37.6359 43.3499 37.6721 43.3645 37.7173 43.3645C37.7626 43.3645 37.7988 43.3499 37.8259 43.3209C37.8531 43.2918 37.8726 43.2478 37.8845 43.1887C37.8969 43.1296 37.9031 43.0558 37.9031 42.9672C37.9031 42.8795 37.8972 42.8062 37.8852 42.7471C37.8733 42.688 37.8538 42.6437 37.8266 42.6142C37.7995 42.5842 37.7631 42.5692 37.7173 42.5692C37.6716 42.5692 37.6351 42.5842 37.608 42.6142C37.5813 42.6437 37.562 42.688 37.5501 42.7471C37.5387 42.8062 37.533 42.8795 37.533 42.9672ZM38.9716 42.9672C38.9716 43.0515 38.9649 43.127 38.9516 43.1937C38.9387 43.2599 38.9183 43.3161 38.8901 43.3623C38.862 43.4085 38.8254 43.4438 38.7801 43.4681C38.7349 43.4924 38.6801 43.5045 38.6158 43.5045C38.5353 43.5045 38.4688 43.4833 38.4164 43.4409C38.364 43.3981 38.3252 43.3366 38.2999 43.2566C38.2747 43.1761 38.2621 43.0796 38.2621 42.9672C38.2621 42.8548 38.2735 42.7585 38.2964 42.6785C38.3197 42.598 38.3573 42.5363 38.4093 42.4934C38.4612 42.4506 38.53 42.4291 38.6158 42.4291C38.6967 42.4291 38.7634 42.4506 38.8158 42.4934C38.8687 42.5358 38.9078 42.5973 38.933 42.6778C38.9587 42.7578 38.9716 42.8543 38.9716 42.9672ZM38.4314 42.9672C38.4314 43.0553 38.4371 43.1289 38.4486 43.188C38.4605 43.247 38.48 43.2913 38.5071 43.3209C38.5343 43.3499 38.5705 43.3645 38.6158 43.3645C38.661 43.3645 38.6972 43.3499 38.7244 43.3209C38.7515 43.2918 38.7711 43.2478 38.783 43.1887C38.7954 43.1296 38.8015 43.0558 38.8015 42.9672C38.8015 42.8795 38.7956 42.8062 38.7837 42.7471C38.7718 42.688 38.7522 42.6437 38.7251 42.6142C38.6979 42.5842 38.6615 42.5692 38.6158 42.5692C38.57 42.5692 38.5336 42.5842 38.5064 42.6142C38.4798 42.6437 38.4605 42.688 38.4486 42.7471C38.4371 42.8062 38.4314 42.8795 38.4314 42.9672ZM39.87 42.9672C39.87 43.0515 39.8634 43.127 39.85 43.1937C39.8372 43.2599 39.8167 43.3161 39.7886 43.3623C39.7605 43.4085 39.7238 43.4438 39.6785 43.4681C39.6333 43.4924 39.5785 43.5045 39.5142 43.5045C39.4337 43.5045 39.3672 43.4833 39.3148 43.4409C39.2624 43.3981 39.2236 43.3366 39.1984 43.2566C39.1731 43.1761 39.1605 43.0796 39.1605 42.9672C39.1605 42.8548 39.1719 42.7585 39.1948 42.6785C39.2181 42.598 39.2558 42.5363 39.3077 42.4934C39.3596 42.4506 39.4284 42.4291 39.5142 42.4291C39.5952 42.4291 39.6619 42.4506 39.7143 42.4934C39.7671 42.5358 39.8062 42.5973 39.8315 42.6778C39.8572 42.7578 39.87 42.8543 39.87 42.9672ZM39.3298 42.9672C39.3298 43.0553 39.3356 43.1289 39.347 43.188C39.3589 43.247 39.3784 43.2913 39.4056 43.3209C39.4327 43.3499 39.4689 43.3645 39.5142 43.3645C39.5595 43.3645 39.5957 43.3499 39.6228 43.3209C39.65 43.2918 39.6695 43.2478 39.6814 43.1887C39.6938 43.1296 39.7 43.0558 39.7 42.9672C39.7 42.8795 39.694 42.8062 39.6821 42.7471C39.6702 42.688 39.6507 42.6437 39.6235 42.6142C39.5964 42.5842 39.5599 42.5692 39.5142 42.5692C39.4685 42.5692 39.432 42.5842 39.4049 42.6142C39.3782 42.6437 39.3589 42.688 39.347 42.7471C39.3356 42.8062 39.3298 42.8795 39.3298 42.9672Z" fill="#212121"/>
<path d="M44.9531 47.6779C44.9531 47.6164 44.9574 47.5559 44.966 47.4964C44.975 47.4368 44.9903 47.3811 45.0117 47.3292C45.0332 47.2772 45.0627 47.2315 45.1003 47.192C45.1384 47.1524 45.1863 47.1215 45.244 47.0991C45.3016 47.0762 45.3709 47.0648 45.4519 47.0648C45.4728 47.0648 45.4964 47.0657 45.5226 47.0676C45.5488 47.0696 45.5705 47.0726 45.5877 47.0769V47.2163C45.5691 47.211 45.5486 47.207 45.5262 47.2041C45.5043 47.2013 45.4824 47.1998 45.4605 47.1998C45.3728 47.1998 45.3044 47.2165 45.2554 47.2499C45.2063 47.2827 45.1713 47.328 45.1503 47.3856C45.1294 47.4428 45.1172 47.5083 45.1139 47.5821H45.1225C45.1368 47.5583 45.1546 47.5371 45.1761 47.5185C45.1975 47.5 45.2237 47.4852 45.2547 47.4742C45.2856 47.4628 45.3216 47.4571 45.3626 47.4571C45.4235 47.4571 45.4767 47.4699 45.5219 47.4957C45.5672 47.5209 45.6019 47.5576 45.6262 47.6057C45.651 47.6538 45.6634 47.7122 45.6634 47.7808C45.6634 47.8546 45.6493 47.9182 45.6212 47.9716C45.5936 48.0249 45.5541 48.0659 45.5026 48.0945C45.4516 48.123 45.3909 48.1373 45.3204 48.1373C45.2685 48.1373 45.2201 48.1278 45.1754 48.1088C45.131 48.0897 45.0922 48.0611 45.0589 48.023C45.0255 47.9849 44.9996 47.9373 44.981 47.8801C44.9624 47.8225 44.9531 47.755 44.9531 47.6779ZM45.3175 47.9987C45.3719 47.9987 45.4154 47.9811 45.4483 47.9458C45.4817 47.9101 45.4983 47.8556 45.4983 47.7822C45.4983 47.7227 45.4836 47.6755 45.454 47.6407C45.425 47.6059 45.3811 47.5886 45.3226 47.5886C45.2825 47.5886 45.2475 47.5971 45.2175 47.6143C45.1875 47.6314 45.1642 47.6531 45.1475 47.6793C45.1313 47.7055 45.1232 47.7322 45.1232 47.7593C45.1232 47.787 45.1272 47.8148 45.1353 47.8429C45.1434 47.871 45.1556 47.897 45.1718 47.9208C45.188 47.9442 45.2082 47.963 45.2325 47.9773C45.2568 47.9916 45.2852 47.9987 45.3175 47.9987ZM46.2053 47.4699C46.2724 47.4699 46.3315 47.4821 46.3825 47.5064C46.4339 47.5302 46.4739 47.5655 46.5025 47.6121C46.5311 47.6583 46.5454 47.715 46.5454 47.7822C46.5454 47.8556 46.5299 47.9189 46.499 47.9723C46.468 48.0252 46.4225 48.0659 46.3625 48.0945C46.3024 48.123 46.2293 48.1373 46.1431 48.1373C46.0883 48.1373 46.0371 48.1326 45.9895 48.123C45.9423 48.1135 45.9016 48.0992 45.8673 48.0802V47.9287C45.903 47.9487 45.9459 47.9651 45.9959 47.978C46.0459 47.9904 46.0938 47.9966 46.1395 47.9966C46.1881 47.9966 46.2298 47.9894 46.2646 47.9751C46.2994 47.9608 46.326 47.9389 46.3446 47.9094C46.3637 47.8799 46.3732 47.8425 46.3732 47.7972C46.3732 47.7372 46.3539 47.691 46.3153 47.6586C46.2772 47.6257 46.2174 47.6093 46.136 47.6093C46.1074 47.6093 46.0769 47.6119 46.0445 47.6171C46.0126 47.6219 45.9859 47.6271 45.9645 47.6329L45.8909 47.5893L45.9302 47.0784H46.4732V47.2263H46.0781L46.0552 47.4864C46.0724 47.4826 46.0928 47.479 46.1167 47.4757C46.1405 47.4718 46.17 47.4699 46.2053 47.4699ZM47.456 47.6C47.456 47.6843 47.4493 47.7598 47.436 47.8265C47.4231 47.8927 47.4026 47.9489 47.3745 47.9951C47.3464 48.0413 47.3097 48.0766 47.2645 48.1009C47.2192 48.1252 47.1644 48.1373 47.1001 48.1373C47.0196 48.1373 46.9532 48.1161 46.9008 48.0737C46.8484 48.0309 46.8095 47.9694 46.7843 47.8894C46.7591 47.8089 46.7464 47.7124 46.7464 47.6C46.7464 47.4876 46.7579 47.3913 46.7807 47.3113C46.8041 47.2308 46.8417 47.1691 46.8936 47.1262C46.9456 47.0834 47.0144 47.0619 47.1001 47.0619C47.1811 47.0619 47.2478 47.0834 47.3002 47.1262C47.3531 47.1686 47.3921 47.2301 47.4174 47.3106C47.4431 47.3906 47.456 47.4871 47.456 47.6ZM46.9158 47.6C46.9158 47.6881 46.9215 47.7617 46.9329 47.8208C46.9448 47.8799 46.9644 47.9242 46.9915 47.9537C47.0187 47.9828 47.0549 47.9973 47.1001 47.9973C47.1454 47.9973 47.1816 47.9828 47.2087 47.9537C47.2359 47.9246 47.2554 47.8806 47.2673 47.8215C47.2797 47.7624 47.2859 47.6886 47.2859 47.6C47.2859 47.5123 47.28 47.439 47.2681 47.3799C47.2561 47.3208 47.2366 47.2765 47.2095 47.247C47.1823 47.217 47.1459 47.202 47.1001 47.202C47.0544 47.202 47.018 47.217 46.9908 47.247C46.9641 47.2765 46.9448 47.3208 46.9329 47.3799C46.9215 47.439 46.9158 47.5123 46.9158 47.6Z" fill="#212121"/>
<path d="M53.1199 45.4414L53.53 44.5439H52.9877V44.3967H53.7108V44.5118L53.3006 45.4414H53.1199ZM54.2541 44.7883C54.3213 44.7883 54.3803 44.8004 54.4313 44.8247C54.4828 44.8486 54.5228 44.8838 54.5514 44.9305C54.5799 44.9767 54.5942 45.0334 54.5942 45.1006C54.5942 45.1739 54.5787 45.2373 54.5478 45.2906C54.5168 45.3435 54.4713 45.3842 54.4113 45.4128C54.3513 45.4414 54.2782 45.4557 54.1919 45.4557C54.1371 45.4557 54.0859 45.4509 54.0383 45.4414C53.9911 45.4319 53.9504 45.4176 53.9161 45.3985V45.247C53.9518 45.2671 53.9947 45.2835 54.0447 45.2964C54.0948 45.3087 54.1426 45.3149 54.1884 45.3149C54.2369 45.3149 54.2786 45.3078 54.3134 45.2935C54.3482 45.2792 54.3749 45.2573 54.3934 45.2278C54.4125 45.1982 54.422 45.1608 54.422 45.1156C54.422 45.0555 54.4027 45.0093 54.3641 44.9769C54.326 44.9441 54.2662 44.9276 54.1848 44.9276C54.1562 44.9276 54.1257 44.9303 54.0933 44.9355C54.0614 44.9403 54.0347 44.9455 54.0133 44.9512L53.9397 44.9076L53.979 44.3967H54.5221V44.5446H54.1269L54.104 44.8047C54.1212 44.8009 54.1417 44.7974 54.1655 44.794C54.1893 44.7902 54.2188 44.7883 54.2541 44.7883ZM55.5048 44.9183C55.5048 45.0027 55.4981 45.0782 55.4848 45.1449C55.4719 45.2111 55.4515 45.2673 55.4234 45.3135C55.3952 45.3597 55.3586 45.395 55.3133 45.4193C55.2681 45.4435 55.2133 45.4557 55.149 45.4557C55.0685 45.4557 55.002 45.4345 54.9496 45.3921C54.8972 45.3492 54.8584 45.2878 54.8331 45.2077C54.8079 45.1272 54.7953 45.0308 54.7953 44.9183C54.7953 44.8059 54.8067 44.7097 54.8296 44.6297C54.8529 44.5492 54.8905 44.4875 54.9425 44.4446C54.9944 44.4017 55.0632 44.3803 55.149 44.3803C55.2299 44.3803 55.2966 44.4017 55.349 44.4446C55.4019 44.487 55.441 44.5484 55.4662 44.629C55.4919 44.709 55.5048 44.8054 55.5048 44.9183ZM54.9646 44.9183C54.9646 45.0065 54.9703 45.0801 54.9818 45.1391C54.9937 45.1982 55.0132 45.2425 55.0403 45.2721C55.0675 45.3011 55.1037 45.3156 55.149 45.3156C55.1942 45.3156 55.2304 45.3011 55.2576 45.2721C55.2847 45.243 55.3043 45.1989 55.3162 45.1399C55.3286 45.0808 55.3347 45.007 55.3347 44.9183C55.3347 44.8307 55.3288 44.7573 55.3169 44.6983C55.305 44.6392 55.2854 44.5949 55.2583 44.5654C55.2311 44.5353 55.1947 44.5203 55.149 44.5203C55.1032 44.5203 55.0668 44.5353 55.0396 44.5654C55.013 44.5949 54.9937 44.6392 54.9818 44.6983C54.9703 44.7573 54.9646 44.8307 54.9646 44.9183Z" fill="#212121"/>
<path d="M61.7553 42.4024C61.7553 42.4644 61.7508 42.5251 61.7418 42.5847C61.7332 42.6442 61.7179 42.6999 61.696 42.7519C61.6746 42.8038 61.6448 42.8498 61.6067 42.8898C61.5691 42.9293 61.5214 42.9603 61.4638 42.9827C61.4062 43.005 61.3366 43.0162 61.2551 43.0162C61.2347 43.0162 61.2108 43.0151 61.1837 43.0127C61.157 43.0108 61.1351 43.0079 61.1179 43.0041V42.864C61.1361 42.8693 61.1563 42.8736 61.1787 42.8769C61.2016 42.8798 61.2242 42.8812 61.2466 42.8812C61.3347 42.8812 61.4033 42.8648 61.4524 42.8319C61.5019 42.799 61.5369 42.7538 61.5574 42.6961C61.5784 42.6385 61.5903 42.573 61.5931 42.4996H61.5846C61.5707 42.5225 61.5534 42.5434 61.5324 42.5625C61.5114 42.5811 61.4855 42.5961 61.4545 42.6075C61.4235 42.6185 61.3859 42.624 61.3416 42.624C61.2816 42.624 61.2292 42.6113 61.1844 42.5861C61.1401 42.5608 61.1056 42.5242 61.0808 42.476C61.0565 42.4274 61.0444 42.3691 61.0444 42.301C61.0444 42.2271 61.0584 42.1635 61.0865 42.1102C61.1146 42.0568 61.1544 42.0159 61.2058 41.9873C61.2573 41.9582 61.3178 41.9437 61.3873 41.9437C61.4397 41.9437 61.4881 41.9532 61.5324 41.9723C61.5772 41.9909 61.6162 42.0194 61.6496 42.058C61.6829 42.0961 61.7089 42.144 61.7275 42.2016C61.746 42.2588 61.7553 42.3257 61.7553 42.4024ZM61.3895 42.0823C61.3366 42.0823 61.2935 42.1002 61.2601 42.1359C61.2268 42.1712 61.2101 42.2255 61.2101 42.2988C61.2101 42.3584 61.2244 42.4055 61.253 42.4403C61.2816 42.4751 61.3254 42.4925 61.3845 42.4925C61.4254 42.4925 61.4607 42.4841 61.4902 42.4675C61.5202 42.4503 61.5433 42.4286 61.5595 42.4024C61.5762 42.3762 61.5846 42.3496 61.5846 42.3224C61.5846 42.2943 61.5805 42.2662 61.5724 42.2381C61.5648 42.21 61.5529 42.1843 61.5367 42.1609C61.5205 42.1376 61.5 42.1188 61.4752 42.1045C61.4509 42.0897 61.4224 42.0823 61.3895 42.0823ZM62.6552 42.4789C62.6552 42.5632 62.6485 42.6387 62.6352 42.7054C62.6223 42.7716 62.6018 42.8278 62.5737 42.874C62.5456 42.9203 62.509 42.9555 62.4637 42.9798C62.4184 43.0041 62.3637 43.0162 62.2994 43.0162C62.2188 43.0162 62.1524 42.995 62.1 42.9526C62.0476 42.9098 62.0088 42.8483 61.9835 42.7683C61.9583 42.6878 61.9456 42.5913 61.9456 42.4789C61.9456 42.3665 61.9571 42.2702 61.9799 42.1902C62.0033 42.1097 62.0409 42.048 62.0928 42.0051C62.1448 41.9623 62.2136 41.9408 62.2994 41.9408C62.3803 41.9408 62.447 41.9623 62.4994 42.0051C62.5523 42.0475 62.5914 42.109 62.6166 42.1895C62.6423 42.2695 62.6552 42.366 62.6552 42.4789ZM62.115 42.4789C62.115 42.567 62.1207 42.6406 62.1321 42.6997C62.1441 42.7588 62.1636 42.8031 62.1907 42.8326C62.2179 42.8617 62.2541 42.8762 62.2994 42.8762C62.3446 42.8762 62.3808 42.8617 62.408 42.8326C62.4351 42.8035 62.4546 42.7595 62.4666 42.7004C62.4789 42.6413 62.4851 42.5675 62.4851 42.4789C62.4851 42.3912 62.4792 42.3179 62.4673 42.2588C62.4554 42.1997 62.4358 42.1554 62.4087 42.1259C62.3815 42.0959 62.3451 42.0809 62.2994 42.0809C62.2536 42.0809 62.2172 42.0959 62.19 42.1259C62.1633 42.1554 62.1441 42.1997 62.1321 42.2588C62.1207 42.3179 62.115 42.3912 62.115 42.4789ZM63.5536 42.4789C63.5536 42.5632 63.547 42.6387 63.5336 42.7054C63.5208 42.7716 63.5003 42.8278 63.4722 42.874C63.4441 42.9203 63.4074 42.9555 63.3621 42.9798C63.3169 43.0041 63.2621 43.0162 63.1978 43.0162C63.1173 43.0162 63.0508 42.995 62.9984 42.9526C62.946 42.9098 62.9072 42.8483 62.882 42.7683C62.8567 42.6878 62.8441 42.5913 62.8441 42.4789C62.8441 42.3665 62.8555 42.2702 62.8784 42.1902C62.9017 42.1097 62.9394 42.048 62.9913 42.0051C63.0432 41.9623 63.112 41.9408 63.1978 41.9408C63.2788 41.9408 63.3455 41.9623 63.3979 42.0051C63.4507 42.0475 63.4898 42.109 63.5151 42.1895C63.5408 42.2695 63.5536 42.366 63.5536 42.4789ZM63.0134 42.4789C63.0134 42.567 63.0192 42.6406 63.0306 42.6997C63.0425 42.7588 63.062 42.8031 63.0892 42.8326C63.1163 42.8617 63.1525 42.8762 63.1978 42.8762C63.243 42.8762 63.2792 42.8617 63.3064 42.8326C63.3336 42.8035 63.3531 42.7595 63.365 42.7004C63.3774 42.6413 63.3836 42.5675 63.3836 42.4789C63.3836 42.3912 63.3776 42.3179 63.3657 42.2588C63.3538 42.1997 63.3343 42.1554 63.3071 42.1259C63.28 42.0959 63.2435 42.0809 63.1978 42.0809C63.1521 42.0809 63.1156 42.0959 63.0885 42.1259C63.0618 42.1554 63.0425 42.1997 63.0306 42.2588C63.0192 42.3179 63.0134 42.3912 63.0134 42.4789Z" fill="#212121"/>
<path d="M69.0996 47.1915C69.0996 47.1301 69.1039 47.0696 69.1125 47.0101C69.1215 46.9505 69.1368 46.8948 69.1582 46.8428C69.1796 46.7909 69.2092 46.7452 69.2468 46.7056C69.2849 46.6661 69.3328 46.6351 69.3904 46.6128C69.4481 46.5899 69.5174 46.5785 69.5984 46.5785C69.6193 46.5785 69.6429 46.5794 69.6691 46.5813C69.6953 46.5832 69.717 46.5863 69.7341 46.5906V46.7299C69.7156 46.7247 69.6951 46.7207 69.6727 46.7178C69.6508 46.7149 69.6289 46.7135 69.6069 46.7135C69.5193 46.7135 69.4509 46.7302 69.4019 46.7635C69.3528 46.7964 69.3178 46.8417 69.2968 46.8993C69.2759 46.9565 69.2637 47.022 69.2604 47.0958H69.269C69.2833 47.072 69.3011 47.0508 69.3226 47.0322C69.344 47.0136 69.3702 46.9989 69.4012 46.9879C69.4321 46.9765 69.4681 46.9708 69.5091 46.9708C69.57 46.9708 69.6231 46.9836 69.6684 47.0093C69.7137 47.0346 69.7484 47.0713 69.7727 47.1194C69.7975 47.1675 69.8099 47.2258 69.8099 47.2944C69.8099 47.3683 69.7958 47.4319 69.7677 47.4852C69.7401 47.5386 69.7006 47.5796 69.6491 47.6081C69.5981 47.6367 69.5374 47.651 69.4669 47.651C69.415 47.651 69.3666 47.6415 69.3218 47.6224C69.2775 47.6034 69.2387 47.5748 69.2054 47.5367C69.172 47.4986 69.1461 47.4509 69.1275 47.3938C69.1089 47.3361 69.0996 47.2687 69.0996 47.1915ZM69.464 47.5124C69.5183 47.5124 69.5619 47.4948 69.5948 47.4595C69.6281 47.4238 69.6448 47.3692 69.6448 47.2959C69.6448 47.2363 69.63 47.1892 69.6005 47.1544C69.5715 47.1196 69.5276 47.1022 69.469 47.1022C69.429 47.1022 69.394 47.1108 69.364 47.128C69.334 47.1451 69.3106 47.1668 69.294 47.193C69.2778 47.2192 69.2697 47.2459 69.2697 47.273C69.2697 47.3006 69.2737 47.3285 69.2818 47.3566C69.2899 47.3847 69.3021 47.4107 69.3183 47.4345C69.3345 47.4578 69.3547 47.4767 69.379 47.4909C69.4033 47.5052 69.4316 47.5124 69.464 47.5124ZM70.704 47.1137C70.704 47.198 70.6974 47.2735 70.684 47.3402C70.6712 47.4064 70.6507 47.4626 70.6226 47.5088C70.5945 47.555 70.5578 47.5903 70.5125 47.6146C70.4673 47.6389 70.4125 47.651 70.3482 47.651C70.2677 47.651 70.2012 47.6298 70.1488 47.5874C70.0964 47.5445 70.0576 47.4831 70.0323 47.4031C70.0071 47.3226 69.9945 47.2261 69.9945 47.1137C69.9945 47.0012 70.0059 46.905 70.0288 46.825C70.0521 46.7445 70.0897 46.6828 70.1417 46.6399C70.1936 46.597 70.2624 46.5756 70.3482 46.5756C70.4292 46.5756 70.4959 46.597 70.5483 46.6399C70.6011 46.6823 70.6402 46.7438 70.6654 46.8243C70.6912 46.9043 70.704 47.0008 70.704 47.1137ZM70.1638 47.1137C70.1638 47.2018 70.1695 47.2754 70.181 47.3345C70.1929 47.3935 70.2124 47.4378 70.2396 47.4674C70.2667 47.4964 70.3029 47.511 70.3482 47.511C70.3934 47.511 70.4296 47.4964 70.4568 47.4674C70.4839 47.4383 70.5035 47.3942 70.5154 47.3352C70.5278 47.2761 70.534 47.2023 70.534 47.1137C70.534 47.026 70.528 46.9526 70.5161 46.8936C70.5042 46.8345 70.4847 46.7902 70.4575 46.7607C70.4304 46.7307 70.3939 46.7157 70.3482 46.7157C70.3024 46.7157 70.266 46.7307 70.2389 46.7607C70.2122 46.7902 70.1929 46.8345 70.181 46.8936C70.1695 46.9526 70.1638 47.026 70.1638 47.1137ZM71.6025 47.1137C71.6025 47.198 71.5958 47.2735 71.5825 47.3402C71.5696 47.4064 71.5491 47.4626 71.521 47.5088C71.4929 47.555 71.4562 47.5903 71.411 47.6146C71.3657 47.6389 71.3109 47.651 71.2466 47.651C71.1661 47.651 71.0997 47.6298 71.0473 47.5874C70.9949 47.5445 70.956 47.4831 70.9308 47.4031C70.9055 47.3226 70.8929 47.2261 70.8929 47.1137C70.8929 47.0012 70.9043 46.905 70.9272 46.825C70.9506 46.7445 70.9882 46.6828 71.0401 46.6399C71.092 46.597 71.1609 46.5756 71.2466 46.5756C71.3276 46.5756 71.3943 46.597 71.4467 46.6399C71.4996 46.6823 71.5386 46.7438 71.5639 46.8243C71.5896 46.9043 71.6025 47.0008 71.6025 47.1137ZM71.0623 47.1137C71.0623 47.2018 71.068 47.2754 71.0794 47.3345C71.0913 47.3935 71.1109 47.4378 71.138 47.4674C71.1652 47.4964 71.2014 47.511 71.2466 47.511C71.2919 47.511 71.3281 47.4964 71.3552 47.4674C71.3824 47.4383 71.4019 47.3942 71.4138 47.3352C71.4262 47.2761 71.4324 47.2023 71.4324 47.1137C71.4324 47.026 71.4264 46.9526 71.4145 46.8936C71.4026 46.8345 71.3831 46.7902 71.3559 46.7607C71.3288 46.7307 71.2923 46.7157 71.2466 46.7157C71.2009 46.7157 71.1644 46.7307 71.1373 46.7607C71.1106 46.7902 71.0913 46.8345 71.0794 46.8936C71.068 46.9526 71.0623 47.026 71.0623 47.1137Z" fill="#212121"/>
<path d="M77.5021 52.3488C77.5693 52.3488 77.6284 52.361 77.6794 52.3853C77.7308 52.4091 77.7708 52.4444 77.7994 52.491C77.828 52.5373 77.8423 52.5939 77.8423 52.6611C77.8423 52.7345 77.8268 52.7978 77.7958 52.8512C77.7649 52.9041 77.7194 52.9448 77.6593 52.9734C77.5993 53.002 77.5262 53.0162 77.44 53.0162C77.3852 53.0162 77.334 53.0115 77.2863 53.002C77.2392 52.9924 77.1985 52.9781 77.1642 52.9591V52.8076C77.1999 52.8276 77.2428 52.844 77.2928 52.8569C77.3428 52.8693 77.3907 52.8755 77.4364 52.8755C77.485 52.8755 77.5267 52.8683 77.5615 52.854C77.5962 52.8397 77.6229 52.8178 77.6415 52.7883C77.6605 52.7588 77.6701 52.7214 77.6701 52.6761C77.6701 52.6161 77.6508 52.5699 77.6122 52.5375C77.5741 52.5046 77.5143 52.4882 77.4328 52.4882C77.4042 52.4882 77.3738 52.4908 77.3414 52.496C77.3095 52.5008 77.2828 52.506 77.2613 52.5118L77.1877 52.4682L77.227 51.9573H77.7701V52.1052H77.375L77.3521 52.3653C77.3692 52.3615 77.3897 52.3579 77.4135 52.3546C77.4374 52.3508 77.4669 52.3488 77.5021 52.3488ZM78.7529 52.4789C78.7529 52.5632 78.7462 52.6387 78.7329 52.7054C78.72 52.7716 78.6995 52.8278 78.6714 52.874C78.6433 52.9203 78.6066 52.9555 78.5614 52.9798C78.5161 53.0041 78.4613 53.0162 78.397 53.0162C78.3165 53.0162 78.25 52.995 78.1976 52.9526C78.1452 52.9098 78.1064 52.8483 78.0812 52.7683C78.0559 52.6878 78.0433 52.5913 78.0433 52.4789C78.0433 52.3665 78.0547 52.2702 78.0776 52.1902C78.1009 52.1097 78.1386 52.048 78.1905 52.0051C78.2424 51.9623 78.3113 51.9408 78.397 51.9408C78.478 51.9408 78.5447 51.9623 78.5971 52.0051C78.65 52.0475 78.689 52.109 78.7143 52.1895C78.74 52.2695 78.7529 52.366 78.7529 52.4789ZM78.2127 52.4789C78.2127 52.567 78.2184 52.6406 78.2298 52.6997C78.2417 52.7588 78.2612 52.8031 78.2884 52.8326C78.3155 52.8617 78.3518 52.8762 78.397 52.8762C78.4423 52.8762 78.4785 52.8617 78.5056 52.8326C78.5328 52.8035 78.5523 52.7595 78.5642 52.7004C78.5766 52.6413 78.5828 52.5675 78.5828 52.4789C78.5828 52.3912 78.5768 52.3179 78.5649 52.2588C78.553 52.1997 78.5335 52.1554 78.5063 52.1259C78.4792 52.0959 78.4427 52.0809 78.397 52.0809C78.3513 52.0809 78.3148 52.0959 78.2877 52.1259C78.261 52.1554 78.2417 52.1997 78.2298 52.2588C78.2184 52.3179 78.2127 52.3912 78.2127 52.4789ZM79.6513 52.4789C79.6513 52.5632 79.6446 52.6387 79.6313 52.7054C79.6184 52.7716 79.5979 52.8278 79.5698 52.874C79.5417 52.9203 79.505 52.9555 79.4598 52.9798C79.4145 53.0041 79.3598 53.0162 79.2954 53.0162C79.2149 53.0162 79.1485 52.995 79.0961 52.9526C79.0437 52.9098 79.0049 52.8483 78.9796 52.7683C78.9544 52.6878 78.9417 52.5913 78.9417 52.4789C78.9417 52.3665 78.9532 52.2702 78.976 52.1902C78.9994 52.1097 79.037 52.048 79.0889 52.0051C79.1409 51.9623 79.2097 51.9408 79.2954 51.9408C79.3764 51.9408 79.4431 51.9623 79.4955 52.0051C79.5484 52.0475 79.5875 52.109 79.6127 52.1895C79.6384 52.2695 79.6513 52.366 79.6513 52.4789ZM79.1111 52.4789C79.1111 52.567 79.1168 52.6406 79.1282 52.6997C79.1401 52.7588 79.1597 52.8031 79.1868 52.8326C79.214 52.8617 79.2502 52.8762 79.2954 52.8762C79.3407 52.8762 79.3769 52.8617 79.4041 52.8326C79.4312 52.8035 79.4507 52.7595 79.4627 52.7004C79.475 52.6413 79.4812 52.5675 79.4812 52.4789C79.4812 52.3912 79.4753 52.3179 79.4634 52.2588C79.4515 52.1997 79.4319 52.1554 79.4048 52.1259C79.3776 52.0959 79.3412 52.0809 79.2954 52.0809C79.2497 52.0809 79.2133 52.0959 79.1861 52.1259C79.1594 52.1554 79.1401 52.1997 79.1282 52.2588C79.1168 52.3179 79.1111 52.3912 79.1111 52.4789Z" fill="#212121"/>
<defs>
<filter id="filter0_d_6358_53461" x="25.416" y="36.9782" width="9.02353" height="7.03135" filterUnits="userSpaceOnUse" color-interpolation-filters="sRGB">
<feFlood flood-opacity="0" result="BackgroundImageFix"/>
<feColorMatrix in="SourceAlpha" type="matrix" values="0 0 0 0 0 0 0 0 0 0 0 0 0 0 0 0 0 0 127 0" result="hardAlpha"/>
<feOffset dy="0.243902"/>
<feGaussianBlur stdDeviation="0.97561"/>
<feColorMatrix type="matrix" values="0 0 0 0 0.293333 0 0 0 0 0.333211 0 0 0 0 0.431373 0 0 0 0.2 0"/>
<feBlend mode="normal" in2="BackgroundImageFix" result="effect1_dropShadow_6358_53461"/>
<feBlend mode="normal" in="SourceGraphic" in2="effect1_dropShadow_6358_53461" result="shape"/>
</filter>
<filter id="filter1_d_6358_53461" x="25.416" y="53.3181" width="9.02353" height="7.03135" filterUnits="userSpaceOnUse" color-interpolation-filters="sRGB">
<feFlood flood-opacity="0" result="BackgroundImageFix"/>
<feColorMatrix in="SourceAlpha" type="matrix" values="0 0 0 0 0 0 0 0 0 0 0 0 0 0 0 0 0 0 127 0" result="hardAlpha"/>
<feOffset dy="0.243902"/>
<feGaussianBlur stdDeviation="0.97561"/>
<feColorMatrix type="matrix" values="0 0 0 0 0.293333 0 0 0 0 0.333211 0 0 0 0 0.431373 0 0 0 0.2 0"/>
<feBlend mode="normal" in2="BackgroundImageFix" result="effect1_dropShadow_6358_53461"/>
<feBlend mode="normal" in="SourceGraphic" in2="effect1_dropShadow_6358_53461" result="shape"/>
</filter>
<filter id="filter2_d_6358_53461" x="33.4628" y="50.8806" width="9.02353" height="7.03135" filterUnits="userSpaceOnUse" color-interpolation-filters="sRGB">
<feFlood flood-opacity="0" result="BackgroundImageFix"/>
<feColorMatrix in="SourceAlpha" type="matrix" values="0 0 0 0 0 0 0 0 0 0 0 0 0 0 0 0 0 0 127 0" result="hardAlpha"/>
<feOffset dy="0.243902"/>
<feGaussianBlur stdDeviation="0.97561"/>
<feColorMatrix type="matrix" values="0 0 0 0 0.293333 0 0 0 0 0.333211 0 0 0 0 0.431373 0 0 0 0.2 0"/>
<feBlend mode="normal" in2="BackgroundImageFix" result="effect1_dropShadow_6358_53461"/>
<feBlend mode="normal" in="SourceGraphic" in2="effect1_dropShadow_6358_53461" result="shape"/>
</filter>
<filter id="filter3_d_6358_53461" x="41.5117" y="52.5857" width="9.02549" height="7.03135" filterUnits="userSpaceOnUse" color-interpolation-filters="sRGB">
<feFlood flood-opacity="0" result="BackgroundImageFix"/>
<feColorMatrix in="SourceAlpha" type="matrix" values="0 0 0 0 0 0 0 0 0 0 0 0 0 0 0 0 0 0 127 0" result="hardAlpha"/>
<feOffset dy="0.243902"/>
<feGaussianBlur stdDeviation="0.97561"/>
<feColorMatrix type="matrix" values="0 0 0 0 0.293333 0 0 0 0 0.333211 0 0 0 0 0.431373 0 0 0 0.2 0"/>
<feBlend mode="normal" in2="BackgroundImageFix" result="effect1_dropShadow_6358_53461"/>
<feBlend mode="normal" in="SourceGraphic" in2="effect1_dropShadow_6358_53461" result="shape"/>
</filter>
<filter id="filter4_d_6358_53461" x="33.4628" y="39.6599" width="9.02353" height="7.03135" filterUnits="userSpaceOnUse" color-interpolation-filters="sRGB">
<feFlood flood-opacity="0" result="BackgroundImageFix"/>
<feColorMatrix in="SourceAlpha" type="matrix" values="0 0 0 0 0 0 0 0 0 0 0 0 0 0 0 0 0 0 127 0" result="hardAlpha"/>
<feOffset dy="0.243902"/>
<feGaussianBlur stdDeviation="0.97561"/>
<feColorMatrix type="matrix" values="0 0 0 0 0.293333 0 0 0 0 0.333211 0 0 0 0 0.431373 0 0 0 0.2 0"/>
<feBlend mode="normal" in2="BackgroundImageFix" result="effect1_dropShadow_6358_53461"/>
<feBlend mode="normal" in="SourceGraphic" in2="effect1_dropShadow_6358_53461" result="shape"/>
</filter>
<filter id="filter5_d_6358_53461" x="41.5117" y="44.2927" width="9.02549" height="7.03135" filterUnits="userSpaceOnUse" color-interpolation-filters="sRGB">
<feFlood flood-opacity="0" result="BackgroundImageFix"/>
<feColorMatrix in="SourceAlpha" type="matrix" values="0 0 0 0 0 0 0 0 0 0 0 0 0 0 0 0 0 0 127 0" result="hardAlpha"/>
<feOffset dy="0.243902"/>
<feGaussianBlur stdDeviation="0.97561"/>
<feColorMatrix type="matrix" values="0 0 0 0 0.293333 0 0 0 0 0.333211 0 0 0 0 0.431373 0 0 0 0.2 0"/>
<feBlend mode="normal" in2="BackgroundImageFix" result="effect1_dropShadow_6358_53461"/>
<feBlend mode="normal" in="SourceGraphic" in2="effect1_dropShadow_6358_53461" result="shape"/>
</filter>
<filter id="filter6_d_6358_53461" x="49.5605" y="41.611" width="9.02353" height="7.03135" filterUnits="userSpaceOnUse" color-interpolation-filters="sRGB">
<feFlood flood-opacity="0" result="BackgroundImageFix"/>
<feColorMatrix in="SourceAlpha" type="matrix" values="0 0 0 0 0 0 0 0 0 0 0 0 0 0 0 0 0 0 127 0" result="hardAlpha"/>
<feOffset dy="0.243902"/>
<feGaussianBlur stdDeviation="0.97561"/>
<feColorMatrix type="matrix" values="0 0 0 0 0.293333 0 0 0 0 0.333211 0 0 0 0 0.431373 0 0 0 0.2 0"/>
<feBlend mode="normal" in2="BackgroundImageFix" result="effect1_dropShadow_6358_53461"/>
<feBlend mode="normal" in="SourceGraphic" in2="effect1_dropShadow_6358_53461" result="shape"/>
</filter>
<filter id="filter7_d_6358_53461" x="57.6093" y="39.1716" width="9.02549" height="7.03135" filterUnits="userSpaceOnUse" color-interpolation-filters="sRGB">
<feFlood flood-opacity="0" result="BackgroundImageFix"/>
<feColorMatrix in="SourceAlpha" type="matrix" values="0 0 0 0 0 0 0 0 0 0 0 0 0 0 0 0 0 0 127 0" result="hardAlpha"/>
<feOffset dy="0.243902"/>
<feGaussianBlur stdDeviation="0.97561"/>
<feColorMatrix type="matrix" values="0 0 0 0 0.293333 0 0 0 0 0.333211 0 0 0 0 0.431373 0 0 0 0.2 0"/>
<feBlend mode="normal" in2="BackgroundImageFix" result="effect1_dropShadow_6358_53461"/>
<feBlend mode="normal" in="SourceGraphic" in2="effect1_dropShadow_6358_53461" result="shape"/>
</filter>
<filter id="filter8_d_6358_53461" x="65.6582" y="43.8064" width="9.02353" height="7.03135" filterUnits="userSpaceOnUse" color-interpolation-filters="sRGB">
<feFlood flood-opacity="0" result="BackgroundImageFix"/>
<feColorMatrix in="SourceAlpha" type="matrix" values="0 0 0 0 0 0 0 0 0 0 0 0 0 0 0 0 0 0 127 0" result="hardAlpha"/>
<feOffset dy="0.243902"/>
<feGaussianBlur stdDeviation="0.97561"/>
<feColorMatrix type="matrix" values="0 0 0 0 0.293333 0 0 0 0 0.333211 0 0 0 0 0.431373 0 0 0 0.2 0"/>
<feBlend mode="normal" in2="BackgroundImageFix" result="effect1_dropShadow_6358_53461"/>
<feBlend mode="normal" in="SourceGraphic" in2="effect1_dropShadow_6358_53461" result="shape"/>
</filter>
<filter id="filter9_d_6358_53461" x="73.707" y="49.1716" width="9.02549" height="7.03135" filterUnits="userSpaceOnUse" color-interpolation-filters="sRGB">
<feFlood flood-opacity="0" result="BackgroundImageFix"/>
<feColorMatrix in="SourceAlpha" type="matrix" values="0 0 0 0 0 0 0 0 0 0 0 0 0 0 0 0 0 0 127 0" result="hardAlpha"/>
<feOffset dy="0.243902"/>
<feGaussianBlur stdDeviation="0.97561"/>
<feColorMatrix type="matrix" values="0 0 0 0 0.293333 0 0 0 0 0.333211 0 0 0 0 0.431373 0 0 0 0.2 0"/>
<feBlend mode="normal" in2="BackgroundImageFix" result="effect1_dropShadow_6358_53461"/>
<feBlend mode="normal" in="SourceGraphic" in2="effect1_dropShadow_6358_53461" result="shape"/>
</filter>
<linearGradient id="paint0_linear_6358_53461" x1="49.977" y1="38.9277" x2="49.977" y2="67.1947" gradientUnits="userSpaceOnUse">
<stop stop-color="#E9D8FF"/>
<stop offset="1" stop-color="white" stop-opacity="0"/>
</linearGradient>
<linearGradient id="paint1_linear_6358_53461" x1="49.9266" y1="42.5783" x2="49.9266" y2="68.9018" gradientUnits="userSpaceOnUse">
<stop stop-color="#D2D2D2"/>
<stop offset="1" stop-color="#D9D9D9" stop-opacity="0"/>
</linearGradient>
</defs>
</svg>
