<svg width="93" height="92" viewBox="0 0 93 92" fill="none" xmlns="http://www.w3.org/2000/svg">
<rect x="1.13202" y="0.389831" width="91.079" height="91.2203" rx="17.5424" stroke="#BEBEBE" stroke-width="0.779661"/>
<rect width="70" height="54.9158" transform="translate(12 19)" fill="white"/>
<path d="M21.4277 24.6562V70.1445" stroke="#E0E0E0" stroke-width="0.23569"/>
<path d="M15.7292 26.6562H14.8472V26.5283L15.2072 26.1628C15.2741 26.0953 15.3303 26.0351 15.3757 25.9823C15.4217 25.9295 15.4567 25.8777 15.4806 25.8267C15.5046 25.7752 15.5165 25.7187 15.5165 25.6573C15.5165 25.5812 15.4938 25.5232 15.4484 25.4833C15.4036 25.4428 15.3444 25.4226 15.2707 25.4226C15.2063 25.4226 15.1492 25.4336 15.0995 25.4557C15.0498 25.4778 14.9988 25.5091 14.9467 25.5496L14.8647 25.4465C14.9003 25.4164 14.939 25.3897 14.9807 25.3664C15.0231 25.3431 15.0682 25.3247 15.1161 25.3112C15.1645 25.2977 15.2161 25.2909 15.2707 25.2909C15.3536 25.2909 15.4251 25.3053 15.4852 25.3342C15.5454 25.363 15.5917 25.4041 15.6243 25.4575C15.6574 25.5109 15.674 25.5745 15.674 25.6481C15.674 25.7193 15.6599 25.7856 15.6316 25.847C15.6034 25.9077 15.5638 25.9682 15.5129 26.0284C15.4619 26.0879 15.4024 26.1511 15.3343 26.218L15.0415 26.5099V26.5163H15.7292V26.6562ZM16.3516 25.8332C16.443 25.8332 16.5225 25.8488 16.59 25.8801C16.6576 25.9108 16.7097 25.9556 16.7466 26.0145C16.784 26.0735 16.8027 26.145 16.8027 26.2291C16.8027 26.3211 16.7828 26.4006 16.7429 26.4675C16.703 26.5338 16.6456 26.5851 16.5707 26.6213C16.4958 26.6569 16.4062 26.6747 16.3019 26.6747C16.2319 26.6747 16.1668 26.6685 16.1067 26.6562C16.0465 26.644 15.9959 26.6256 15.9548 26.601V26.4555C15.9996 26.4826 16.0539 26.504 16.1177 26.52C16.1816 26.5359 16.2436 26.5439 16.3037 26.5439C16.3718 26.5439 16.4314 26.5332 16.4823 26.5117C16.5339 26.4896 16.5738 26.4565 16.602 26.4123C16.6309 26.3675 16.6453 26.3113 16.6453 26.2438C16.6453 26.1542 16.6177 26.0851 16.5624 26.0366C16.5078 25.9875 16.4213 25.963 16.3028 25.963C16.2647 25.963 16.223 25.9661 16.1776 25.9722C16.1322 25.9783 16.0947 25.9851 16.0653 25.9925L15.9879 25.9418L16.0395 25.3102H16.7088V25.4502H16.1702L16.1362 25.8562C16.1595 25.8513 16.1896 25.8464 16.2264 25.8415C16.2632 25.8359 16.3049 25.8332 16.3516 25.8332ZM17.8946 25.9814C17.8946 26.0907 17.8863 26.1882 17.8698 26.2742C17.8532 26.3601 17.8271 26.4328 17.7915 26.4924C17.7559 26.5519 17.7099 26.5973 17.6534 26.6286C17.5969 26.6593 17.5291 26.6747 17.4499 26.6747C17.3499 26.6747 17.267 26.6474 17.2014 26.5927C17.1363 26.5381 17.0875 26.4592 17.055 26.3561C17.0231 26.2524 17.0071 26.1275 17.0071 25.9814C17.0071 25.8378 17.0215 25.7144 17.0504 25.6113C17.0798 25.5076 17.1271 25.4281 17.1922 25.3728C17.2572 25.317 17.3431 25.2891 17.4499 25.2891C17.5512 25.2891 17.6347 25.3167 17.7004 25.3719C17.766 25.4265 17.8148 25.5057 17.8467 25.6095C17.8787 25.7126 17.8946 25.8366 17.8946 25.9814ZM17.1609 25.9814C17.1609 26.1066 17.1704 26.211 17.1894 26.2944C17.2084 26.3779 17.2391 26.4405 17.2815 26.4822C17.3244 26.5234 17.3806 26.5439 17.4499 26.5439C17.5193 26.5439 17.5752 26.5234 17.6175 26.4822C17.6605 26.4411 17.6915 26.3788 17.7105 26.2953C17.7301 26.2119 17.74 26.1072 17.74 25.9814C17.74 25.858 17.7304 25.7549 17.7114 25.6721C17.6924 25.5886 17.6617 25.526 17.6193 25.4842C17.577 25.4419 17.5205 25.4207 17.4499 25.4207C17.3794 25.4207 17.3229 25.4419 17.2805 25.4842C17.2382 25.526 17.2075 25.5886 17.1885 25.6721C17.1701 25.7549 17.1609 25.858 17.1609 25.9814ZM18.9736 25.9814C18.9736 26.0907 18.9654 26.1882 18.9488 26.2742C18.9322 26.3601 18.9061 26.4328 18.8705 26.4924C18.8349 26.5519 18.7889 26.5973 18.7324 26.6286C18.676 26.6593 18.6081 26.6747 18.529 26.6747C18.4289 26.6747 18.3461 26.6474 18.2804 26.5927C18.2153 26.5381 18.1665 26.4592 18.134 26.3561C18.1021 26.2524 18.0861 26.1275 18.0861 25.9814C18.0861 25.8378 18.1005 25.7144 18.1294 25.6113C18.1589 25.5076 18.2061 25.4281 18.2712 25.3728C18.3362 25.317 18.4222 25.2891 18.529 25.2891C18.6302 25.2891 18.7137 25.3167 18.7794 25.3719C18.8451 25.4265 18.8939 25.5057 18.9258 25.6095C18.9577 25.7126 18.9736 25.8366 18.9736 25.9814ZM18.2399 25.9814C18.2399 26.1066 18.2494 26.211 18.2684 26.2944C18.2874 26.3779 18.3181 26.4405 18.3605 26.4822C18.4034 26.5234 18.4596 26.5439 18.529 26.5439C18.5983 26.5439 18.6542 26.5234 18.6965 26.4822C18.7395 26.4411 18.7705 26.3788 18.7895 26.2953C18.8092 26.2119 18.819 26.1072 18.819 25.9814C18.819 25.858 18.8095 25.7549 18.7904 25.6721C18.7714 25.5886 18.7407 25.526 18.6984 25.4842C18.656 25.4419 18.5995 25.4207 18.529 25.4207C18.4584 25.4207 18.4019 25.4419 18.3596 25.4842C18.3172 25.526 18.2865 25.5886 18.2675 25.6721C18.2491 25.7549 18.2399 25.858 18.2399 25.9814Z" fill="#212121"/>
<path d="M15.7292 33.8984H14.8472V33.7705L15.2072 33.405C15.2741 33.3374 15.3303 33.2773 15.3757 33.2245C15.4217 33.1717 15.4567 33.1199 15.4806 33.0689C15.5046 33.0174 15.5165 32.9609 15.5165 32.8995C15.5165 32.8234 15.4938 32.7654 15.4484 32.7255C15.4036 32.685 15.3444 32.6647 15.2707 32.6647C15.2063 32.6647 15.1492 32.6758 15.0995 32.6979C15.0498 32.72 14.9988 32.7513 14.9467 32.7918L14.8647 32.6887C14.9003 32.6586 14.939 32.6319 14.9807 32.6086C15.0231 32.5853 15.0682 32.5668 15.1161 32.5533C15.1645 32.5398 15.2161 32.5331 15.2707 32.5331C15.3536 32.5331 15.4251 32.5475 15.4852 32.5764C15.5454 32.6052 15.5917 32.6463 15.6243 32.6997C15.6574 32.7531 15.674 32.8167 15.674 32.8903C15.674 32.9615 15.6599 33.0278 15.6316 33.0892C15.6034 33.1499 15.5638 33.2104 15.5129 33.2705C15.4619 33.3301 15.4024 33.3933 15.3343 33.4602L15.0415 33.7521V33.7585H15.7292V33.8984ZM16.8156 33.2236C16.8156 33.3328 16.8073 33.4304 16.7907 33.5164C16.7742 33.6023 16.7481 33.675 16.7125 33.7346C16.6769 33.7941 16.6309 33.8395 16.5744 33.8708C16.5179 33.9015 16.4501 33.9169 16.3709 33.9169C16.2709 33.9169 16.188 33.8895 16.1223 33.8349C16.0573 33.7803 16.0085 33.7014 15.976 33.5983C15.944 33.4946 15.9281 33.3697 15.9281 33.2236C15.9281 33.08 15.9425 32.9566 15.9714 32.8535C16.0008 32.7498 16.0481 32.6703 16.1131 32.615C16.1782 32.5592 16.2641 32.5312 16.3709 32.5312C16.4722 32.5312 16.5557 32.5589 16.6213 32.6141C16.687 32.6687 16.7358 32.7479 16.7677 32.8516C16.7996 32.9548 16.8156 33.0787 16.8156 33.2236ZM16.0818 33.2236C16.0818 33.3488 16.0913 33.4531 16.1104 33.5366C16.1294 33.6201 16.1601 33.6827 16.2024 33.7244C16.2454 33.7656 16.3016 33.7861 16.3709 33.7861C16.4403 33.7861 16.4961 33.7656 16.5385 33.7244C16.5814 33.6833 16.6124 33.621 16.6315 33.5375C16.6511 33.4541 16.6609 33.3494 16.6609 33.2236C16.6609 33.1002 16.6514 32.9971 16.6324 32.9142C16.6134 32.8308 16.5827 32.7682 16.5403 32.7264C16.498 32.6841 16.4415 32.6629 16.3709 32.6629C16.3003 32.6629 16.2439 32.6841 16.2015 32.7264C16.1592 32.7682 16.1285 32.8308 16.1095 32.9142C16.091 32.9971 16.0818 33.1002 16.0818 33.2236ZM17.8946 33.2236C17.8946 33.3328 17.8863 33.4304 17.8698 33.5164C17.8532 33.6023 17.8271 33.675 17.7915 33.7346C17.7559 33.7941 17.7099 33.8395 17.6534 33.8708C17.5969 33.9015 17.5291 33.9169 17.4499 33.9169C17.3499 33.9169 17.267 33.8895 17.2014 33.8349C17.1363 33.7803 17.0875 33.7014 17.055 33.5983C17.0231 33.4946 17.0071 33.3697 17.0071 33.2236C17.0071 33.08 17.0215 32.9566 17.0504 32.8535C17.0798 32.7498 17.1271 32.6703 17.1922 32.615C17.2572 32.5592 17.3431 32.5312 17.4499 32.5312C17.5512 32.5312 17.6347 32.5589 17.7004 32.6141C17.766 32.6687 17.8148 32.7479 17.8467 32.8516C17.8787 32.9548 17.8946 33.0787 17.8946 33.2236ZM17.1609 33.2236C17.1609 33.3488 17.1704 33.4531 17.1894 33.5366C17.2084 33.6201 17.2391 33.6827 17.2815 33.7244C17.3244 33.7656 17.3806 33.7861 17.4499 33.7861C17.5193 33.7861 17.5752 33.7656 17.6175 33.7244C17.6605 33.6833 17.6915 33.621 17.7105 33.5375C17.7301 33.4541 17.74 33.3494 17.74 33.2236C17.74 33.1002 17.7304 32.9971 17.7114 32.9142C17.6924 32.8308 17.6617 32.7682 17.6193 32.7264C17.577 32.6841 17.5205 32.6629 17.4499 32.6629C17.3794 32.6629 17.3229 32.6841 17.2805 32.7264C17.2382 32.7682 17.2075 32.8308 17.1885 32.9142C17.1701 32.9971 17.1609 33.1002 17.1609 33.2236ZM18.9736 33.2236C18.9736 33.3328 18.9654 33.4304 18.9488 33.5164C18.9322 33.6023 18.9061 33.675 18.8705 33.7346C18.8349 33.7941 18.7889 33.8395 18.7324 33.8708C18.676 33.9015 18.6081 33.9169 18.529 33.9169C18.4289 33.9169 18.3461 33.8895 18.2804 33.8349C18.2153 33.7803 18.1665 33.7014 18.134 33.5983C18.1021 33.4946 18.0861 33.3697 18.0861 33.2236C18.0861 33.08 18.1005 32.9566 18.1294 32.8535C18.1589 32.7498 18.2061 32.6703 18.2712 32.615C18.3362 32.5592 18.4222 32.5312 18.529 32.5312C18.6302 32.5312 18.7137 32.5589 18.7794 32.6141C18.8451 32.6687 18.8939 32.7479 18.9258 32.8516C18.9577 32.9548 18.9736 33.0787 18.9736 33.2236ZM18.2399 33.2236C18.2399 33.3488 18.2494 33.4531 18.2684 33.5366C18.2874 33.6201 18.3181 33.6827 18.3605 33.7244C18.4034 33.7656 18.4596 33.7861 18.529 33.7861C18.5983 33.7861 18.6542 33.7656 18.6965 33.7244C18.7395 33.6833 18.7705 33.621 18.7895 33.5375C18.8092 33.4541 18.819 33.3494 18.819 33.2236C18.819 33.1002 18.8095 32.9971 18.7904 32.9142C18.7714 32.8308 18.7407 32.7682 18.6984 32.7264C18.656 32.6841 18.5995 32.6629 18.529 32.6629C18.4584 32.6629 18.4019 32.6841 18.3596 32.7264C18.3172 32.7682 18.2865 32.8308 18.2675 32.9142C18.2491 32.9971 18.2399 33.1002 18.2399 33.2236Z" fill="#212121"/>
<path d="M15.4162 41.1406H15.267V40.1868C15.267 40.1506 15.267 40.1196 15.267 40.0938C15.2677 40.0674 15.2683 40.0435 15.2689 40.022C15.2701 39.9999 15.2716 39.9775 15.2735 39.9548C15.2545 39.9744 15.2367 39.9913 15.2201 40.0054C15.2035 40.0189 15.183 40.0358 15.1584 40.0561L15.0047 40.1795L14.9246 40.0754L15.2891 39.7946H15.4162V41.1406ZM16.3516 40.3176C16.443 40.3176 16.5225 40.3332 16.59 40.3645C16.6576 40.3952 16.7097 40.44 16.7466 40.4989C16.784 40.5578 16.8027 40.6293 16.8027 40.7134C16.8027 40.8055 16.7828 40.885 16.7429 40.9519C16.703 41.0182 16.6456 41.0694 16.5707 41.1056C16.4958 41.1412 16.4062 41.159 16.3019 41.159C16.2319 41.159 16.1668 41.1529 16.1067 41.1406C16.0465 41.1283 15.9959 41.1099 15.9548 41.0854V40.9399C15.9996 40.9669 16.0539 40.9884 16.1177 41.0044C16.1816 41.0203 16.2436 41.0283 16.3037 41.0283C16.3718 41.0283 16.4314 41.0176 16.4823 40.9961C16.5339 40.974 16.5738 40.9408 16.602 40.8966C16.6309 40.8518 16.6453 40.7957 16.6453 40.7282C16.6453 40.6386 16.6177 40.5695 16.5624 40.521C16.5078 40.4719 16.4213 40.4474 16.3028 40.4474C16.2647 40.4474 16.223 40.4504 16.1776 40.4566C16.1322 40.4627 16.0947 40.4695 16.0653 40.4768L15.9879 40.4262L16.0395 39.7946H16.7088V39.9346H16.1702L16.1362 40.3406C16.1595 40.3357 16.1896 40.3307 16.2264 40.3258C16.2632 40.3203 16.3049 40.3176 16.3516 40.3176ZM17.8946 40.4658C17.8946 40.575 17.8863 40.6726 17.8698 40.7585C17.8532 40.8445 17.8271 40.9172 17.7915 40.9767C17.7559 41.0363 17.7099 41.0817 17.6534 41.113C17.5969 41.1437 17.5291 41.159 17.4499 41.159C17.3499 41.159 17.267 41.1317 17.2014 41.0771C17.1363 41.0225 17.0875 40.9436 17.055 40.8405C17.0231 40.7368 17.0071 40.6119 17.0071 40.4658C17.0071 40.3222 17.0215 40.1988 17.0504 40.0957C17.0798 39.9919 17.1271 39.9125 17.1922 39.8572C17.2572 39.8014 17.3431 39.7734 17.4499 39.7734C17.5512 39.7734 17.6347 39.8011 17.7004 39.8563C17.766 39.9109 17.8148 39.9901 17.8467 40.0938C17.8787 40.1969 17.8946 40.3209 17.8946 40.4658ZM17.1609 40.4658C17.1609 40.591 17.1704 40.6953 17.1894 40.7788C17.2084 40.8623 17.2391 40.9249 17.2815 40.9666C17.3244 41.0077 17.3806 41.0283 17.4499 41.0283C17.5193 41.0283 17.5752 41.0077 17.6175 40.9666C17.6605 40.9255 17.6915 40.8632 17.7105 40.7797C17.7301 40.6963 17.74 40.5916 17.74 40.4658C17.74 40.3424 17.7304 40.2393 17.7114 40.1564C17.6924 40.073 17.6617 40.0104 17.6193 39.9686C17.577 39.9263 17.5205 39.9051 17.4499 39.9051C17.3794 39.9051 17.3229 39.9263 17.2805 39.9686C17.2382 40.0104 17.2075 40.073 17.1885 40.1564C17.1701 40.2393 17.1609 40.3424 17.1609 40.4658ZM18.9736 40.4658C18.9736 40.575 18.9654 40.6726 18.9488 40.7585C18.9322 40.8445 18.9061 40.9172 18.8705 40.9767C18.8349 41.0363 18.7889 41.0817 18.7324 41.113C18.676 41.1437 18.6081 41.159 18.529 41.159C18.4289 41.159 18.3461 41.1317 18.2804 41.0771C18.2153 41.0225 18.1665 40.9436 18.134 40.8405C18.1021 40.7368 18.0861 40.6119 18.0861 40.4658C18.0861 40.3222 18.1005 40.1988 18.1294 40.0957C18.1589 39.9919 18.2061 39.9125 18.2712 39.8572C18.3362 39.8014 18.4222 39.7734 18.529 39.7734C18.6302 39.7734 18.7137 39.8011 18.7794 39.8563C18.8451 39.9109 18.8939 39.9901 18.9258 40.0938C18.9577 40.1969 18.9736 40.3209 18.9736 40.4658ZM18.2399 40.4658C18.2399 40.591 18.2494 40.6953 18.2684 40.7788C18.2874 40.8623 18.3181 40.9249 18.3605 40.9666C18.4034 41.0077 18.4596 41.0283 18.529 41.0283C18.5983 41.0283 18.6542 41.0077 18.6965 40.9666C18.7395 40.9255 18.7705 40.8632 18.7895 40.7797C18.8092 40.6963 18.819 40.5916 18.819 40.4658C18.819 40.3424 18.8095 40.2393 18.7904 40.1564C18.7714 40.073 18.7407 40.0104 18.6984 39.9686C18.656 39.9263 18.5995 39.9051 18.529 39.9051C18.4584 39.9051 18.4019 39.9263 18.3596 39.9686C18.3172 40.0104 18.2865 40.073 18.2675 40.1564C18.2491 40.2393 18.2399 40.3424 18.2399 40.4658Z" fill="#212121"/>
<path d="M15.4162 48.3828H15.267V47.429C15.267 47.3928 15.267 47.3618 15.267 47.336C15.2677 47.3096 15.2683 47.2857 15.2689 47.2642C15.2701 47.2421 15.2716 47.2197 15.2735 47.197C15.2545 47.2166 15.2367 47.2335 15.2201 47.2476C15.2035 47.2611 15.183 47.278 15.1584 47.2983L15.0047 47.4216L14.9246 47.3176L15.2891 47.0368H15.4162V48.3828ZM16.8156 47.708C16.8156 47.8172 16.8073 47.9148 16.7907 48.0007C16.7742 48.0867 16.7481 48.1594 16.7125 48.2189C16.6769 48.2785 16.6309 48.3239 16.5744 48.3552C16.5179 48.3859 16.4501 48.4012 16.3709 48.4012C16.2709 48.4012 16.188 48.3739 16.1223 48.3193C16.0573 48.2647 16.0085 48.1858 15.976 48.0827C15.944 47.9789 15.9281 47.854 15.9281 47.708C15.9281 47.5643 15.9425 47.441 15.9714 47.3379C16.0008 47.2341 16.0481 47.1546 16.1131 47.0994C16.1782 47.0436 16.2641 47.0156 16.3709 47.0156C16.4722 47.0156 16.5557 47.0432 16.6213 47.0985C16.687 47.1531 16.7358 47.2323 16.7677 47.336C16.7996 47.4391 16.8156 47.5631 16.8156 47.708ZM16.0818 47.708C16.0818 47.8332 16.0913 47.9375 16.1104 48.021C16.1294 48.1045 16.1601 48.1671 16.2024 48.2088C16.2454 48.2499 16.3016 48.2705 16.3709 48.2705C16.4403 48.2705 16.4961 48.2499 16.5385 48.2088C16.5814 48.1677 16.6124 48.1054 16.6315 48.0219C16.6511 47.9384 16.6609 47.8338 16.6609 47.708C16.6609 47.5846 16.6514 47.4815 16.6324 47.3986C16.6134 47.3151 16.5827 47.2525 16.5403 47.2108C16.498 47.1685 16.4415 47.1473 16.3709 47.1473C16.3003 47.1473 16.2439 47.1685 16.2015 47.2108C16.1592 47.2525 16.1285 47.3151 16.1095 47.3986C16.091 47.4815 16.0818 47.5846 16.0818 47.708ZM17.8946 47.708C17.8946 47.8172 17.8863 47.9148 17.8698 48.0007C17.8532 48.0867 17.8271 48.1594 17.7915 48.2189C17.7559 48.2785 17.7099 48.3239 17.6534 48.3552C17.5969 48.3859 17.5291 48.4012 17.4499 48.4012C17.3499 48.4012 17.267 48.3739 17.2014 48.3193C17.1363 48.2647 17.0875 48.1858 17.055 48.0827C17.0231 47.9789 17.0071 47.854 17.0071 47.708C17.0071 47.5643 17.0215 47.441 17.0504 47.3379C17.0798 47.2341 17.1271 47.1546 17.1922 47.0994C17.2572 47.0436 17.3431 47.0156 17.4499 47.0156C17.5512 47.0156 17.6347 47.0432 17.7004 47.0985C17.766 47.1531 17.8148 47.2323 17.8467 47.336C17.8787 47.4391 17.8946 47.5631 17.8946 47.708ZM17.1609 47.708C17.1609 47.8332 17.1704 47.9375 17.1894 48.021C17.2084 48.1045 17.2391 48.1671 17.2815 48.2088C17.3244 48.2499 17.3806 48.2705 17.4499 48.2705C17.5193 48.2705 17.5752 48.2499 17.6175 48.2088C17.6605 48.1677 17.6915 48.1054 17.7105 48.0219C17.7301 47.9384 17.74 47.8338 17.74 47.708C17.74 47.5846 17.7304 47.4815 17.7114 47.3986C17.6924 47.3151 17.6617 47.2525 17.6193 47.2108C17.577 47.1685 17.5205 47.1473 17.4499 47.1473C17.3794 47.1473 17.3229 47.1685 17.2805 47.2108C17.2382 47.2525 17.2075 47.3151 17.1885 47.3986C17.1701 47.4815 17.1609 47.5846 17.1609 47.708ZM18.9736 47.708C18.9736 47.8172 18.9654 47.9148 18.9488 48.0007C18.9322 48.0867 18.9061 48.1594 18.8705 48.2189C18.8349 48.2785 18.7889 48.3239 18.7324 48.3552C18.676 48.3859 18.6081 48.4012 18.529 48.4012C18.4289 48.4012 18.3461 48.3739 18.2804 48.3193C18.2153 48.2647 18.1665 48.1858 18.134 48.0827C18.1021 47.9789 18.0861 47.854 18.0861 47.708C18.0861 47.5643 18.1005 47.441 18.1294 47.3379C18.1589 47.2341 18.2061 47.1546 18.2712 47.0994C18.3362 47.0436 18.4222 47.0156 18.529 47.0156C18.6302 47.0156 18.7137 47.0432 18.7794 47.0985C18.8451 47.1531 18.8939 47.2323 18.9258 47.336C18.9577 47.4391 18.9736 47.5631 18.9736 47.708ZM18.2399 47.708C18.2399 47.8332 18.2494 47.9375 18.2684 48.021C18.2874 48.1045 18.3181 48.1671 18.3605 48.2088C18.4034 48.2499 18.4596 48.2705 18.529 48.2705C18.5983 48.2705 18.6542 48.2499 18.6965 48.2088C18.7395 48.1677 18.7705 48.1054 18.7895 48.0219C18.8092 47.9384 18.819 47.8338 18.819 47.708C18.819 47.5846 18.8095 47.4815 18.7904 47.3986C18.7714 47.3151 18.7407 47.2525 18.6984 47.2108C18.656 47.1685 18.5995 47.1473 18.529 47.1473C18.4584 47.1473 18.4019 47.1685 18.3596 47.2108C18.3172 47.2525 18.2865 47.3151 18.2675 47.3986C18.2491 47.4815 18.2399 47.5846 18.2399 47.708Z" fill="#212121"/>
<path d="M16.3524 54.8019C16.4439 54.8019 16.5234 54.8176 16.5909 54.8489C16.6584 54.8796 16.7106 54.9244 16.7474 54.9833C16.7848 55.0422 16.8035 55.1137 16.8035 55.1978C16.8035 55.2899 16.7836 55.3694 16.7437 55.4363C16.7038 55.5026 16.6464 55.5538 16.5715 55.59C16.4967 55.6256 16.4071 55.6434 16.3027 55.6434C16.2327 55.6434 16.1677 55.6373 16.1075 55.625C16.0474 55.6127 15.9967 55.5943 15.9556 55.5698V55.4243C16.0004 55.4513 16.0547 55.4728 16.1186 55.4887C16.1824 55.5047 16.2444 55.5127 16.3045 55.5127C16.3727 55.5127 16.4322 55.5019 16.4832 55.4805C16.5347 55.4584 16.5746 55.4252 16.6028 55.381C16.6317 55.3362 16.6461 55.2801 16.6461 55.2125C16.6461 55.1229 16.6185 55.0539 16.5633 55.0054C16.5086 54.9563 16.4221 54.9317 16.3036 54.9317C16.2656 54.9317 16.2238 54.9348 16.1784 54.9409C16.133 54.9471 16.0956 54.9538 16.0661 54.9612L15.9888 54.9106L16.0403 54.279H16.7096V54.4189H16.1711L16.137 54.8249C16.1603 54.82 16.1904 54.8151 16.2272 54.8102C16.264 54.8047 16.3058 54.8019 16.3524 54.8019ZM17.8955 54.9502C17.8955 55.0594 17.8872 55.157 17.8706 55.2429C17.854 55.3289 17.8279 55.4016 17.7923 55.4611C17.7567 55.5207 17.7107 55.5661 17.6542 55.5974C17.5978 55.6281 17.53 55.6434 17.4508 55.6434C17.3507 55.6434 17.2679 55.6161 17.2022 55.5615C17.1371 55.5068 17.0883 55.428 17.0558 55.3249C17.0239 55.2211 17.0079 55.0962 17.0079 54.9502C17.0079 54.8065 17.0224 54.6832 17.0512 54.58C17.0807 54.4763 17.1279 54.3968 17.193 54.3416C17.2581 54.2857 17.344 54.2578 17.4508 54.2578C17.5521 54.2578 17.6355 54.2854 17.7012 54.3407C17.7669 54.3953 17.8157 54.4745 17.8476 54.5782C17.8795 54.6813 17.8955 54.8053 17.8955 54.9502ZM17.1617 54.9502C17.1617 55.0754 17.1712 55.1797 17.1902 55.2632C17.2093 55.3467 17.2399 55.4093 17.2823 55.451C17.3253 55.4921 17.3814 55.5127 17.4508 55.5127C17.5201 55.5127 17.576 55.4921 17.6183 55.451C17.6613 55.4099 17.6923 55.3476 17.7113 55.2641C17.731 55.1806 17.7408 55.076 17.7408 54.9502C17.7408 54.8268 17.7313 54.7237 17.7122 54.6408C17.6932 54.5573 17.6625 54.4947 17.6202 54.453C17.5778 54.4106 17.5214 54.3895 17.4508 54.3895C17.3802 54.3895 17.3237 54.4106 17.2814 54.453C17.239 54.4947 17.2083 54.5573 17.1893 54.6408C17.1709 54.7237 17.1617 54.8268 17.1617 54.9502ZM18.9745 54.9502C18.9745 55.0594 18.9662 55.157 18.9496 55.2429C18.933 55.3289 18.907 55.4016 18.8714 55.4611C18.8358 55.5207 18.7897 55.5661 18.7333 55.5974C18.6768 55.6281 18.609 55.6434 18.5298 55.6434C18.4298 55.6434 18.3469 55.6161 18.2812 55.5615C18.2162 55.5068 18.1674 55.428 18.1348 55.3249C18.1029 55.2211 18.087 55.0962 18.087 54.9502C18.087 54.8065 18.1014 54.6832 18.1302 54.58C18.1597 54.4763 18.207 54.3968 18.272 54.3416C18.3371 54.2857 18.423 54.2578 18.5298 54.2578C18.6311 54.2578 18.7145 54.2854 18.7802 54.3407C18.8459 54.3953 18.8947 54.4745 18.9266 54.5782C18.9585 54.6813 18.9745 54.8053 18.9745 54.9502ZM18.2407 54.9502C18.2407 55.0754 18.2502 55.1797 18.2692 55.2632C18.2883 55.3467 18.319 55.4093 18.3613 55.451C18.4043 55.4921 18.4604 55.5127 18.5298 55.5127C18.5992 55.5127 18.655 55.4921 18.6974 55.451C18.7403 55.4099 18.7713 55.3476 18.7903 55.2641C18.81 55.1806 18.8198 55.076 18.8198 54.9502C18.8198 54.8268 18.8103 54.7237 18.7913 54.6408C18.7722 54.5573 18.7415 54.4947 18.6992 54.453C18.6568 54.4106 18.6004 54.3895 18.5298 54.3895C18.4592 54.3895 18.4027 54.4106 18.3604 54.453C18.318 54.4947 18.2874 54.5573 18.2683 54.6408C18.2499 54.7237 18.2407 54.8268 18.2407 54.9502Z" fill="#212121"/>
<path d="M16.496 62.8691H16.3469V61.9153C16.3469 61.8791 16.3469 61.8481 16.3469 61.8223C16.3475 61.796 16.3481 61.772 16.3487 61.7505C16.35 61.7284 16.3515 61.706 16.3533 61.6833C16.3343 61.703 16.3165 61.7198 16.2999 61.734C16.2834 61.7475 16.2628 61.7643 16.2383 61.7846L16.0845 61.908L16.0044 61.8039L16.369 61.5231H16.496V62.8691ZM17.8955 62.1943C17.8955 62.3035 17.8872 62.4011 17.8706 62.4871C17.854 62.573 17.8279 62.6457 17.7923 62.7053C17.7567 62.7648 17.7107 62.8102 17.6542 62.8415C17.5978 62.8722 17.53 62.8876 17.4508 62.8876C17.3507 62.8876 17.2679 62.8602 17.2022 62.8056C17.1371 62.751 17.0883 62.6721 17.0558 62.569C17.0239 62.4653 17.0079 62.3404 17.0079 62.1943C17.0079 62.0507 17.0224 61.9273 17.0512 61.8242C17.0807 61.7205 17.1279 61.641 17.193 61.5857C17.2581 61.5299 17.344 61.502 17.4508 61.502C17.5521 61.502 17.6355 61.5296 17.7012 61.5848C17.7669 61.6394 17.8157 61.7186 17.8476 61.8223C17.8795 61.9255 17.8955 62.0494 17.8955 62.1943ZM17.1617 62.1943C17.1617 62.3195 17.1712 62.4238 17.1902 62.5073C17.2093 62.5908 17.2399 62.6534 17.2823 62.6951C17.3253 62.7363 17.3814 62.7568 17.4508 62.7568C17.5201 62.7568 17.576 62.7363 17.6183 62.6951C17.6613 62.654 17.6923 62.5917 17.7113 62.5082C17.731 62.4248 17.7408 62.3201 17.7408 62.1943C17.7408 62.0709 17.7313 61.9678 17.7122 61.8849C17.6932 61.8015 17.6625 61.7389 17.6202 61.6971C17.5778 61.6548 17.5214 61.6336 17.4508 61.6336C17.3802 61.6336 17.3237 61.6548 17.2814 61.6971C17.239 61.7389 17.2083 61.8015 17.1893 61.8849C17.1709 61.9678 17.1617 62.0709 17.1617 62.1943ZM18.9745 62.1943C18.9745 62.3035 18.9662 62.4011 18.9496 62.4871C18.933 62.573 18.907 62.6457 18.8714 62.7053C18.8358 62.7648 18.7897 62.8102 18.7333 62.8415C18.6768 62.8722 18.609 62.8876 18.5298 62.8876C18.4298 62.8876 18.3469 62.8602 18.2812 62.8056C18.2162 62.751 18.1674 62.6721 18.1348 62.569C18.1029 62.4653 18.087 62.3404 18.087 62.1943C18.087 62.0507 18.1014 61.9273 18.1302 61.8242C18.1597 61.7205 18.207 61.641 18.272 61.5857C18.3371 61.5299 18.423 61.502 18.5298 61.502C18.6311 61.502 18.7145 61.5296 18.7802 61.5848C18.8459 61.6394 18.8947 61.7186 18.9266 61.8223C18.9585 61.9255 18.9745 62.0494 18.9745 62.1943ZM18.2407 62.1943C18.2407 62.3195 18.2502 62.4238 18.2692 62.5073C18.2883 62.5908 18.319 62.6534 18.3613 62.6951C18.4043 62.7363 18.4604 62.7568 18.5298 62.7568C18.5992 62.7568 18.655 62.7363 18.6974 62.6951C18.7403 62.654 18.7713 62.5917 18.7903 62.5082C18.81 62.4248 18.8198 62.3201 18.8198 62.1943C18.8198 62.0709 18.8103 61.9678 18.7913 61.8849C18.7722 61.8015 18.7415 61.7389 18.6992 61.6971C18.6568 61.6548 18.6004 61.6336 18.5298 61.6336C18.4592 61.6336 18.4027 61.6548 18.3604 61.6971C18.318 61.7389 18.2874 61.8015 18.2683 61.8849C18.2499 61.9678 18.2407 62.0709 18.2407 62.1943Z" fill="#212121"/>
<path d="M18.9745 69.4365C18.9745 69.5457 18.9662 69.6433 18.9496 69.7293C18.933 69.8152 18.907 69.8879 18.8714 69.9474C18.8358 70.007 18.7897 70.0524 18.7333 70.0837C18.6768 70.1144 18.609 70.1297 18.5298 70.1297C18.4298 70.1297 18.3469 70.1024 18.2812 70.0478C18.2162 69.9932 18.1674 69.9143 18.1348 69.8112C18.1029 69.7075 18.087 69.5826 18.087 69.4365C18.087 69.2929 18.1014 69.1695 18.1302 69.0664C18.1597 68.9626 18.207 68.8832 18.272 68.8279C18.3371 68.7721 18.423 68.7441 18.5298 68.7441C18.6311 68.7441 18.7145 68.7718 18.7802 68.827C18.8459 68.8816 18.8947 68.9608 18.9266 69.0645C18.9585 69.1676 18.9745 69.2916 18.9745 69.4365ZM18.2407 69.4365C18.2407 69.5617 18.2502 69.666 18.2692 69.7495C18.2883 69.833 18.319 69.8956 18.3613 69.9373C18.4043 69.9784 18.4604 69.999 18.5298 69.999C18.5992 69.999 18.655 69.9784 18.6974 69.9373C18.7403 69.8962 18.7713 69.8339 18.7903 69.7504C18.81 69.667 18.8198 69.5623 18.8198 69.4365C18.8198 69.3131 18.8103 69.21 18.7913 69.1271C18.7722 69.0437 18.7415 68.9811 18.6992 68.9393C18.6568 68.897 18.6004 68.8758 18.5298 68.8758C18.4592 68.8758 18.4027 68.897 18.3604 68.9393C18.318 68.9811 18.2874 69.0437 18.2683 69.1271C18.2499 69.21 18.2407 69.3131 18.2407 69.4365Z" fill="#212121"/>
<path d="M30.081 72.6152H29.9318V71.6614C29.9318 71.6252 29.9318 71.5942 29.9318 71.5684C29.9325 71.542 29.9331 71.5181 29.9337 71.4966C29.9349 71.4745 29.9364 71.4521 29.9383 71.4294C29.9193 71.4491 29.9015 71.4659 29.8849 71.4801C29.8683 71.4936 29.8478 71.5104 29.8232 71.5307L29.6694 71.6541L29.5894 71.55L29.9539 71.2692H30.081V72.6152Z" fill="#212121"/>
<path d="M22.624 71.9404C22.624 72.0496 22.6157 72.1472 22.5992 72.2332C22.5826 72.3191 22.5565 72.3918 22.5209 72.4514C22.4853 72.5109 22.4393 72.5563 22.3828 72.5876C22.3264 72.6183 22.2585 72.6336 22.1794 72.6336C22.0793 72.6336 21.9964 72.6063 21.9308 72.5517C21.8657 72.4971 21.8169 72.4182 21.7844 72.3151C21.7525 72.2114 21.7365 72.0865 21.7365 71.9404C21.7365 71.7968 21.7509 71.6734 21.7798 71.5703C21.8092 71.4666 21.8565 71.3871 21.9216 71.3318C21.9866 71.276 22.0726 71.248 22.1794 71.248C22.2806 71.248 22.3641 71.2757 22.4298 71.3309C22.4954 71.3855 22.5442 71.4647 22.5762 71.5684C22.6081 71.6716 22.624 71.7955 22.624 71.9404ZM21.8903 71.9404C21.8903 72.0656 21.8998 72.1699 21.9188 72.2534C21.9378 72.3369 21.9685 72.3995 22.0109 72.4412C22.0538 72.4824 22.11 72.5029 22.1794 72.5029C22.2487 72.5029 22.3046 72.4824 22.3469 72.4412C22.3899 72.4001 22.4209 72.3378 22.4399 72.2543C22.4595 72.1709 22.4694 72.0662 22.4694 71.9404C22.4694 71.817 22.4598 71.7139 22.4408 71.631C22.4218 71.5476 22.3911 71.485 22.3488 71.4432C22.3064 71.4009 22.2499 71.3797 22.1794 71.3797C22.1088 71.3797 22.0523 71.4009 22.0099 71.4432C21.9676 71.485 21.9369 71.5476 21.9179 71.631C21.8995 71.7139 21.8903 71.817 21.8903 71.9404Z" fill="#212121"/>
<path d="M38.1714 72.6152H37.2894V72.4873L37.6493 72.1218C37.7162 72.0542 37.7724 71.9941 37.8178 71.9413C37.8639 71.8885 37.8988 71.8367 37.9228 71.7857C37.9467 71.7342 37.9587 71.6777 37.9587 71.6163C37.9587 71.5402 37.936 71.4822 37.8906 71.4423C37.8457 71.4018 37.7865 71.3815 37.7129 71.3815C37.6484 71.3815 37.5913 71.3926 37.5416 71.4147C37.4919 71.4368 37.441 71.4681 37.3888 71.5086L37.3069 71.4055C37.3425 71.3754 37.3811 71.3487 37.4229 71.3254C37.4652 71.3021 37.5103 71.2836 37.5582 71.2701C37.6067 71.2566 37.6582 71.2499 37.7129 71.2499C37.7957 71.2499 37.8672 71.2643 37.9274 71.2932C37.9875 71.322 38.0339 71.3631 38.0664 71.4165C38.0995 71.4699 38.1161 71.5335 38.1161 71.6071C38.1161 71.6783 38.102 71.7446 38.0738 71.806C38.0455 71.8667 38.0059 71.9272 37.955 71.9873C37.9041 72.0469 37.8445 72.1101 37.7764 72.177L37.4836 72.4688V72.4753H38.1714V72.6152Z" fill="#212121"/>
<path d="M46.1353 71.5832C46.1353 71.6433 46.1236 71.6955 46.1003 71.7397C46.077 71.7839 46.0445 71.8201 46.0027 71.8483C45.961 71.8759 45.9119 71.8953 45.8554 71.9063V71.9137C45.9622 71.9272 46.0423 71.9616 46.0957 72.0168C46.1497 72.072 46.1767 72.1445 46.1767 72.2341C46.1767 72.312 46.1583 72.3811 46.1215 72.4412C46.0853 72.5014 46.0294 72.5486 45.9539 72.583C45.8791 72.6168 45.783 72.6336 45.6658 72.6336C45.5946 72.6336 45.5286 72.6278 45.4678 72.6162C45.4077 72.6051 45.35 72.5864 45.2947 72.56V72.4164C45.3506 72.444 45.4114 72.4658 45.477 72.4817C45.5427 72.4971 45.6062 72.5048 45.6676 72.5048C45.7904 72.5048 45.8791 72.4805 45.9337 72.432C45.9883 72.3829 46.0156 72.316 46.0156 72.2313C46.0156 72.173 46.0003 72.1261 45.9696 72.0905C45.9395 72.0542 45.8959 72.0279 45.8389 72.0113C45.7824 71.9941 45.7143 71.9855 45.6345 71.9855H45.5001V71.8548H45.6354C45.7084 71.8548 45.7704 71.844 45.8214 71.8225C45.8723 71.8011 45.911 71.771 45.9374 71.7323C45.9644 71.693 45.9779 71.6467 45.9779 71.5933C45.9779 71.5252 45.9552 71.4727 45.9097 71.4359C45.8643 71.3984 45.8026 71.3797 45.7247 71.3797C45.6768 71.3797 45.6332 71.3846 45.594 71.3944C45.5547 71.4043 45.5179 71.4178 45.4835 71.4349C45.4491 71.4521 45.4147 71.4721 45.3804 71.4948L45.303 71.3898C45.3521 71.3518 45.412 71.3189 45.4826 71.2913C45.5531 71.2637 45.6332 71.2499 45.7229 71.2499C45.8603 71.2499 45.9635 71.2812 46.0322 71.3438C46.1009 71.4064 46.1353 71.4862 46.1353 71.5832Z" fill="#212121"/>
<path d="M54.0296 72.3031H53.828V72.6152H53.6788V72.3031H53.0279V72.1742L53.6687 71.2619H53.828V72.165H54.0296V72.3031ZM53.6788 72.165V71.725C53.6788 71.6912 53.6791 71.6608 53.6797 71.6338C53.6803 71.6062 53.6813 71.5807 53.6825 71.5574C53.6837 71.5335 53.6846 71.5107 53.6853 71.4893C53.6865 71.4678 53.6874 71.4466 53.688 71.4257H53.6806C53.669 71.4503 53.6555 71.4764 53.6401 71.504C53.6254 71.531 53.6104 71.5552 53.595 71.5767L53.1798 72.165H53.6788Z" fill="#212121"/>
<path d="M61.285 71.7922C61.3765 71.7922 61.456 71.8078 61.5235 71.8391C61.591 71.8698 61.6432 71.9146 61.68 71.9735C61.7174 72.0325 61.7361 72.104 61.7361 72.188C61.7361 72.2801 61.7162 72.3596 61.6763 72.4265C61.6364 72.4928 61.579 72.544 61.5041 72.5802C61.4293 72.6158 61.3396 72.6336 61.2353 72.6336C61.1653 72.6336 61.1003 72.6275 61.0401 72.6152C60.98 72.603 60.9293 72.5845 60.8882 72.56V72.4145C60.933 72.4415 60.9873 72.463 61.0512 72.479C61.115 72.4949 61.177 72.5029 61.2371 72.5029C61.3053 72.5029 61.3648 72.4922 61.4158 72.4707C61.4673 72.4486 61.5072 72.4155 61.5354 72.3713C61.5643 72.3265 61.5787 72.2703 61.5787 72.2028C61.5787 72.1132 61.5511 72.0441 61.4959 71.9956C61.4412 71.9465 61.3547 71.922 61.2362 71.922C61.1982 71.922 61.1564 71.925 61.111 71.9312C61.0656 71.9373 61.0282 71.9441 60.9987 71.9514L60.9214 71.9008L60.9729 71.2692H61.6422V71.4092H61.1036L61.0696 71.8152C61.0929 71.8103 61.123 71.8054 61.1598 71.8004C61.1966 71.7949 61.2384 71.7922 61.285 71.7922Z" fill="#212121"/>
<path d="M68.6508 72.0398C68.6508 71.9588 68.6563 71.8796 68.6674 71.8023C68.6791 71.725 68.6984 71.6531 68.7254 71.5869C68.7524 71.5199 68.7892 71.4613 68.8359 71.411C68.8825 71.3607 68.9405 71.3214 69.0099 71.2932C69.0799 71.2643 69.1636 71.2499 69.2612 71.2499C69.2888 71.2499 69.3186 71.2514 69.3505 71.2545C69.3824 71.2569 69.4088 71.2612 69.4297 71.2674V71.399C69.407 71.3911 69.3809 71.3852 69.3515 71.3815C69.3226 71.3779 69.2934 71.376 69.264 71.376C69.1498 71.376 69.0599 71.4009 68.9942 71.4506C68.9292 71.5003 68.8822 71.5678 68.8534 71.6531C68.8245 71.7378 68.808 71.8333 68.8037 71.9395H68.8138C68.8328 71.9088 68.8571 71.8812 68.8865 71.8566C68.916 71.8314 68.9516 71.8115 68.9933 71.7968C69.0357 71.782 69.0848 71.7747 69.1406 71.7747C69.2192 71.7747 69.2876 71.7906 69.3459 71.8225C69.4048 71.8545 69.4503 71.9008 69.4822 71.9616C69.5147 72.0223 69.531 72.096 69.531 72.1825C69.531 72.2752 69.5138 72.3553 69.4794 72.4228C69.4451 72.4903 69.3959 72.5425 69.3321 72.5793C69.2689 72.6155 69.1934 72.6336 69.1056 72.6336C69.04 72.6336 68.9795 72.6211 68.9243 72.5959C68.869 72.5707 68.8208 72.5333 68.7797 72.4836C68.7392 72.4339 68.7076 72.3722 68.6849 72.2985C68.6622 72.2243 68.6508 72.138 68.6508 72.0398ZM69.1038 72.5048C69.1873 72.5048 69.2542 72.4781 69.3045 72.4247C69.3548 72.3713 69.38 72.2905 69.38 72.1825C69.38 72.0941 69.3576 72.0242 69.3128 71.9726C69.268 71.9211 69.2005 71.8953 69.1102 71.8953C69.0489 71.8953 68.9955 71.9082 68.95 71.9339C68.9046 71.9591 68.8693 71.991 68.8442 72.0297C68.819 72.0684 68.8064 72.1076 68.8064 72.1475C68.8064 72.188 68.8122 72.2292 68.8239 72.2709C68.8362 72.3126 68.8546 72.3513 68.8791 72.3869C68.9037 72.4225 68.9347 72.451 68.9721 72.4725C69.0096 72.494 69.0535 72.5048 69.1038 72.5048Z" fill="#212121"/>
<path d="M76.352 72.6152L76.9044 71.4092H76.1707V71.2692H77.0683V71.3871L76.5196 72.6152H76.352Z" fill="#212121"/>
<path d="M21.3099 70.1445C21.3099 70.2095 21.3627 70.2623 21.4277 70.2623C21.4928 70.2623 21.5456 70.2095 21.5456 70.1445H21.3099ZM21.4277 24.6562H21.3099V70.1445H21.4277H21.5456V24.6562H21.4277Z" fill="#D4D4D4"/>
<path d="M21.4277 70.1445H77.7577" stroke="#D4D4D4" stroke-width="0.23569"/>
<rect x="27.3184" y="45.3965" width="1.88552" height="24.7475" rx="0.942761" fill="#B984FF"/>
<rect x="29.6758" y="59.3027" width="1.88552" height="10.8418" rx="0.942761" fill="#9C9C9C"/>
<rect x="35.0977" y="29.6055" width="1.88552" height="40.5387" rx="0.942761" fill="#B984FF"/>
<rect x="37.4551" y="39.5039" width="1.88552" height="30.6397" rx="0.942761" fill="#9C9C9C"/>
<rect x="42.877" y="45.3965" width="1.88552" height="24.7475" rx="0.942761" fill="#B984FF"/>
<rect x="45.2344" y="59.3027" width="1.88552" height="10.8418" rx="0.942761" fill="#9C9C9C"/>
<rect x="50.6523" y="36.4414" width="1.88552" height="33.7037" rx="0.942761" fill="#B984FF"/>
<rect x="53.0098" y="47.7539" width="1.88552" height="22.3906" rx="0.942761" fill="#9C9C9C"/>
<rect x="58.4316" y="45.3965" width="1.88552" height="24.7475" rx="0.942761" fill="#B984FF"/>
<rect x="60.7891" y="59.3027" width="1.88552" height="10.8418" rx="0.942761" fill="#9C9C9C"/>
<rect x="66.209" y="60.2461" width="1.88552" height="9.89899" rx="0.942761" fill="#B984FF"/>
<rect x="68.5664" y="65.666" width="1.88552" height="4.47811" rx="0.942761" fill="#9C9C9C"/>
<rect x="73.9863" y="42.5684" width="1.88552" height="27.5758" rx="0.942761" fill="#B984FF"/>
<rect x="76.3438" y="50.582" width="1.88552" height="19.5623" rx="0.942761" fill="#9C9C9C"/>
<g filter="url(#filter0_d_6358_53459)">
<path d="M37.3369 25.5977C37.9222 25.5979 38.397 26.073 38.3975 26.6582V27.1299C38.3975 27.7155 37.9225 28.1902 37.3369 28.1904H36.3535L35.9229 28.6221L35.4912 28.1904H34.5078C33.9223 28.1901 33.4473 27.7154 33.4473 27.1299V26.6582C33.4477 26.073 33.9226 25.598 34.5078 25.5977H37.3369Z" fill="white"/>
</g>
<g filter="url(#filter1_d_6358_53459)">
<path d="M39.6943 36.4395C40.2795 36.4398 40.7544 36.9149 40.7549 37.5V37.9717C40.7549 38.5572 40.2798 39.0318 39.6943 39.0322H38.7109L38.2793 39.4639L37.8486 39.0322H36.8652C36.2797 39.032 35.8047 38.5573 35.8047 37.9717V37.5C35.8051 36.9147 36.2799 36.4397 36.8652 36.4395H39.6943Z" fill="white"/>
</g>
<g filter="url(#filter2_d_6358_53459)">
<path d="M29.7959 42.332C30.3813 42.3323 30.8562 42.8072 30.8564 43.3926V43.8643C30.8564 44.4499 30.3815 44.9246 29.7959 44.9248H28.8125L28.3818 45.3564L27.9502 44.9248H26.9668C26.3813 44.9245 25.9062 44.4498 25.9062 43.8643V43.3926C25.9065 42.8072 26.3814 42.3323 26.9668 42.332H29.7959Z" fill="white"/>
</g>
<g filter="url(#filter3_d_6358_53459)">
<path d="M31.915 56.2383C32.5005 56.2385 32.9754 56.7134 32.9756 57.2988V57.7705C32.9754 58.3559 32.5005 58.8308 31.915 58.8311H30.9307L30.501 59.2617L30.0703 58.8311H29.0859C28.5006 58.8307 28.0256 58.3559 28.0254 57.7705V57.2988C28.0256 56.7135 28.5006 56.2386 29.0859 56.2383H31.915Z" fill="white"/>
</g>
<g filter="url(#filter4_d_6358_53459)">
<path d="M45.3506 42.5664C45.9359 42.5666 46.4107 43.0417 46.4111 43.627V44.0986C46.4111 44.6842 45.9361 45.1589 45.3506 45.1592H44.3672L43.9365 45.5908L43.5049 45.1592H42.5215C41.9359 45.159 41.4609 44.6843 41.4609 44.0986V43.627C41.4614 43.0417 41.9362 42.5666 42.5215 42.5664H45.3506Z" fill="white"/>
</g>
<g filter="url(#filter5_d_6358_53459)">
<path d="M47.7061 56.2383C48.2915 56.2385 48.7664 56.7134 48.7666 57.2988V57.7705C48.7664 58.3559 48.2915 58.8308 47.7061 58.8311H46.7227L46.292 59.2617L45.8613 58.8311H44.877C44.2917 58.8306 43.8166 58.3558 43.8164 57.7705V57.2988C43.8166 56.7135 44.2917 56.2387 44.877 56.2383H47.7061Z" fill="white"/>
</g>
<g filter="url(#filter6_d_6358_53459)">
<path d="M53.1279 33.375C53.7134 33.3752 54.1883 33.8501 54.1885 34.4355V34.9072C54.1884 35.4928 53.7135 35.9675 53.1279 35.9678H52.1455L51.7139 36.3984L51.2822 35.9678H50.2988C49.7135 35.9673 49.2383 35.4927 49.2383 34.9072V34.4355C49.2385 33.8502 49.7136 33.3755 50.2988 33.375H53.1279Z" fill="white"/>
</g>
<g filter="url(#filter7_d_6358_53459)">
<path d="M55.4854 44.6895C56.0708 44.6897 56.5457 45.1646 56.5459 45.75V46.2217C56.5457 46.8071 56.0707 47.282 55.4854 47.2822H54.501L54.0703 47.7129L53.6406 47.2822H52.6562C52.0708 47.282 51.5959 46.8071 51.5957 46.2217V45.75C51.5959 45.1645 52.0708 44.6897 52.6562 44.6895H55.4854Z" fill="white"/>
</g>
<g filter="url(#filter8_d_6358_53459)">
<path d="M60.6709 42.332C61.2561 42.3325 61.7312 42.8073 61.7314 43.3926V43.8643C61.7314 44.4497 61.2563 44.9243 60.6709 44.9248H59.6875L59.2559 45.3564L58.8242 44.9248H57.8418C57.2562 44.9246 56.7812 44.4499 56.7812 43.8643V43.3926C56.7815 42.8072 57.2564 42.3322 57.8418 42.332H60.6709Z" fill="white"/>
</g>
<g filter="url(#filter9_d_6358_53459)">
<path d="M63.0283 56.2383C63.6137 56.2385 64.0887 56.7134 64.0889 57.2988V57.7705C64.0886 58.3559 63.6137 58.8308 63.0283 58.8311H62.0439L61.6143 59.2617L61.1836 58.8311H60.1992C59.6138 58.8308 59.1389 58.3559 59.1387 57.7705V57.2988C59.1389 56.7134 59.6138 56.2385 60.1992 56.2383H63.0283Z" fill="white"/>
</g>
<g filter="url(#filter10_d_6358_53459)">
<path d="M68.6826 57.1797C69.268 57.1799 69.743 57.6548 69.7432 58.2402V58.7119C69.7431 59.2975 69.2682 59.7722 68.6826 59.7725H67.7002L67.2686 60.2031L66.8369 59.7725H65.8535C65.2681 59.7721 64.793 59.2974 64.793 58.7119V58.2402C64.7932 57.6549 65.2682 57.1801 65.8535 57.1797H68.6826Z" fill="white"/>
</g>
<g filter="url(#filter11_d_6358_53459)">
<path d="M70.8037 62.6016C71.3891 62.6018 71.8641 63.0767 71.8643 63.6621V64.1338C71.8642 64.7194 71.3892 65.1941 70.8037 65.1943H69.8213L69.3896 65.625L68.958 65.1943H67.9746C67.3893 65.1939 66.9141 64.7192 66.9141 64.1338V63.6621C66.9143 63.0768 67.3894 62.602 67.9746 62.6016H70.8037Z" fill="white"/>
</g>
<g filter="url(#filter12_d_6358_53459)">
<path d="M76.2256 39.5039C76.811 39.5041 77.2859 39.979 77.2861 40.5645V41.0361C77.2861 41.6217 76.8111 42.0964 76.2256 42.0967H75.2432L74.8115 42.5273L74.3799 42.0967H73.3965C72.8111 42.0962 72.336 41.6216 72.3359 41.0361V40.5645C72.3361 39.9791 72.8112 39.5044 73.3965 39.5039H76.2256Z" fill="white"/>
</g>
<g filter="url(#filter13_d_6358_53459)">
<path d="M78.583 47.5176C79.1684 47.5179 79.6434 47.9927 79.6436 48.5781V49.0498C79.6434 49.6353 79.1684 50.1101 78.583 50.1104H77.5996L77.168 50.541L76.7373 50.1104H75.7539C75.1684 50.1101 74.6935 49.6353 74.6934 49.0498V48.5781C74.6936 47.9927 75.1684 47.5178 75.7539 47.5176H78.583Z" fill="white"/>
</g>
<path d="M35.214 27.7168H34.5304V27.5946L34.7921 27.3294C34.8428 27.2779 34.8844 27.2334 34.9171 27.1962C34.9498 27.1584 34.974 27.1227 34.9896 27.0891C35.0057 27.0555 35.0138 27.0189 35.0138 26.9793C35.0138 26.9305 34.9998 26.8937 34.9717 26.8689C34.9436 26.8435 34.9065 26.8309 34.8605 26.8309C34.8168 26.8309 34.7763 26.8396 34.739 26.8571C34.7021 26.8742 34.6639 26.8986 34.6243 26.9303L34.5353 26.8233C34.5634 26.7994 34.5933 26.7775 34.625 26.7577C34.6573 26.7379 34.6932 26.7222 34.7328 26.7107C34.7723 26.6988 34.8175 26.6928 34.8681 26.6928C34.9321 26.6928 34.9873 26.7043 35.0338 26.7273C35.0803 26.7499 35.116 26.7814 35.1408 26.8219C35.1662 26.8624 35.1788 26.9096 35.1788 26.9635C35.1788 27.0178 35.168 27.068 35.1464 27.114C35.1247 27.16 35.0939 27.2056 35.0538 27.2507C35.0138 27.2954 34.9661 27.3439 34.9109 27.3964L34.7362 27.567V27.5746H35.214V27.7168ZM36.0822 27.7168H35.3986V27.5946L35.6603 27.3294C35.711 27.2779 35.7526 27.2334 35.7853 27.1962C35.818 27.1584 35.8422 27.1227 35.8578 27.0891C35.8739 27.0555 35.882 27.0189 35.882 26.9793C35.882 26.9305 35.8679 26.8937 35.8399 26.8689C35.8118 26.8435 35.7747 26.8309 35.7287 26.8309C35.685 26.8309 35.6444 26.8396 35.6072 26.8571C35.5703 26.8742 35.5321 26.8986 35.4925 26.9303L35.4035 26.8233C35.4315 26.7994 35.4615 26.7775 35.4932 26.7577C35.5254 26.7379 35.5614 26.7222 35.6009 26.7107C35.6405 26.6988 35.6856 26.6928 35.7363 26.6928C35.8003 26.6928 35.8555 26.7043 35.902 26.7273C35.9485 26.7499 35.9842 26.7814 36.009 26.8219C36.0343 26.8624 36.047 26.9096 36.047 26.9635C36.047 27.0178 36.0362 27.068 36.0146 27.114C35.9929 27.16 35.9621 27.2056 35.922 27.2507C35.882 27.2954 35.8343 27.3439 35.7791 27.3964L35.6044 27.567V27.5746H36.0822V27.7168ZM36.744 27.7168H36.581V27.067C36.581 27.0454 36.5812 27.0238 36.5817 27.0021C36.5821 26.9805 36.5826 26.9593 36.5831 26.9386C36.584 26.9179 36.5851 26.8981 36.5865 26.8792C36.5768 26.8898 36.5649 26.9013 36.5506 26.9137C36.5368 26.9262 36.5221 26.9391 36.5064 26.9524L36.3904 27.0449L36.3089 26.9421L36.6086 26.7073H36.744V27.7168ZM37.8186 27.7168H37.135V27.5946L37.3967 27.3294C37.4473 27.2779 37.489 27.2334 37.5217 27.1962C37.5544 27.1584 37.5785 27.1227 37.5942 27.0891C37.6103 27.0555 37.6184 27.0189 37.6184 26.9793C37.6184 26.9305 37.6043 26.8937 37.5762 26.8689C37.5482 26.8435 37.5111 26.8309 37.4651 26.8309C37.4213 26.8309 37.3808 26.8396 37.3435 26.8571C37.3067 26.8742 37.2685 26.8986 37.2289 26.9303L37.1398 26.8233C37.1679 26.7994 37.1978 26.7775 37.2296 26.7577C37.2618 26.7379 37.2977 26.7222 37.3373 26.7107C37.3769 26.6988 37.422 26.6928 37.4727 26.6928C37.5366 26.6928 37.5919 26.7043 37.6384 26.7273C37.6849 26.7499 37.7205 26.7814 37.7454 26.8219C37.7707 26.8624 37.7834 26.9096 37.7834 26.9635C37.7834 27.0178 37.7726 27.068 37.7509 27.114C37.7293 27.16 37.6984 27.2056 37.6584 27.2507C37.6184 27.2954 37.5707 27.3439 37.5155 27.3964L37.3408 27.567V27.5746H37.8186V27.7168Z" fill="#212121"/>
<path d="M37.365 38.5586H37.202V37.9088C37.202 37.8872 37.2023 37.8656 37.2027 37.8439C37.2032 37.8223 37.2037 37.8011 37.2041 37.7804C37.205 37.7597 37.2062 37.7399 37.2076 37.721C37.1979 37.7316 37.1859 37.7431 37.1717 37.7555C37.1578 37.768 37.1431 37.7809 37.1275 37.7942L37.0115 37.8867L36.93 37.7839L37.2297 37.5491H37.365V38.5586ZM38.4762 38.3369H38.3395V38.5586H38.1793V38.3369H37.7201V38.214L38.1814 37.5463H38.3395V38.2023H38.4762V38.3369ZM38.1793 38.2023V37.9516C38.1793 37.9309 38.1796 37.91 38.18 37.8888C38.1809 37.8672 38.1819 37.8465 38.1828 37.8267C38.1837 37.8069 38.1846 37.7887 38.1855 37.7721C38.1865 37.7551 38.1872 37.741 38.1876 37.73H38.1821C38.1733 37.7484 38.1637 37.7673 38.1531 37.7866C38.1425 37.8055 38.1312 37.8239 38.1193 37.8419L37.8707 38.2023H38.1793ZM38.9674 37.9275C39.0323 37.9275 39.0894 37.9392 39.1387 37.9627C39.1884 37.9857 39.227 38.0198 39.2547 38.0649C39.2823 38.1095 39.2961 38.1643 39.2961 38.2292C39.2961 38.3001 39.2811 38.3613 39.2512 38.4129C39.2213 38.464 39.1773 38.5034 39.1193 38.531C39.0613 38.5586 38.9907 38.5724 38.9073 38.5724C38.8544 38.5724 38.8049 38.5678 38.7589 38.5586C38.7133 38.5494 38.674 38.5356 38.6408 38.5172V38.3708C38.6753 38.3901 38.7168 38.406 38.7651 38.4184C38.8134 38.4304 38.8597 38.4364 38.9039 38.4364C38.9508 38.4364 38.9911 38.4295 39.0247 38.4157C39.0583 38.4019 39.0841 38.3807 39.1021 38.3521C39.1205 38.3236 39.1297 38.2875 39.1297 38.2437C39.1297 38.1857 39.111 38.1411 39.0738 38.1098C39.0369 38.078 38.9792 38.0621 38.9004 38.0621C38.8728 38.0621 38.8434 38.0647 38.8121 38.0697C38.7812 38.0743 38.7554 38.0794 38.7347 38.0849L38.6636 38.0428L38.7016 37.5491H39.2264V37.692H38.8445L38.8224 37.9434C38.839 37.9397 38.8588 37.9362 38.8818 37.933C38.9048 37.9293 38.9334 37.9275 38.9674 37.9275ZM40.176 38.0531C40.176 38.1346 40.1696 38.2076 40.1567 38.272C40.1443 38.336 40.1245 38.3903 40.0973 38.435C40.0701 38.4796 40.0347 38.5137 39.991 38.5372C39.9472 38.5607 39.8943 38.5724 39.8321 38.5724C39.7544 38.5724 39.6901 38.5519 39.6395 38.5109C39.5889 38.4695 39.5513 38.4101 39.5269 38.3328C39.5026 38.255 39.4904 38.1618 39.4904 38.0531C39.4904 37.9445 39.5014 37.8515 39.5235 37.7742C39.5461 37.6964 39.5824 37.6368 39.6326 37.5953C39.6828 37.5539 39.7493 37.5332 39.8321 37.5332C39.9104 37.5332 39.9749 37.5539 40.0255 37.5953C40.0766 37.6363 40.1143 37.6957 40.1387 37.7735C40.1636 37.8508 40.176 37.944 40.176 38.0531ZM39.654 38.0531C39.654 38.1383 39.6595 38.2094 39.6706 38.2665C39.6821 38.3236 39.701 38.3664 39.7272 38.3949C39.7534 38.423 39.7884 38.4371 39.8321 38.4371C39.8759 38.4371 39.9109 38.423 39.9371 38.3949C39.9633 38.3669 39.9822 38.3243 39.9937 38.2672C40.0057 38.2101 40.0117 38.1388 40.0117 38.0531C40.0117 37.9684 40.0059 37.8976 39.9944 37.8405C39.9829 37.7834 39.964 37.7406 39.9378 37.712C39.9116 37.683 39.8763 37.6685 39.8321 37.6685C39.788 37.6685 39.7527 37.683 39.7265 37.712C39.7007 37.7406 39.6821 37.7834 39.6706 37.8405C39.6595 37.8976 39.654 37.9684 39.654 38.0531Z" fill="#212121"/>
<path d="M27.4666 44.4512H27.3036V43.8014C27.3036 43.7798 27.3038 43.7581 27.3043 43.7365C27.3048 43.7149 27.3052 43.6937 27.3057 43.673C27.3066 43.6523 27.3077 43.6325 27.3091 43.6136C27.2995 43.6242 27.2875 43.6357 27.2732 43.6481C27.2594 43.6606 27.2447 43.6734 27.229 43.6868L27.113 43.7793L27.0315 43.6764L27.3312 43.4417H27.4666V44.4512ZM28.5412 44.4512H27.8576V44.329L28.1193 44.0638C28.1699 44.0122 28.2116 43.9678 28.2443 43.9305C28.277 43.8928 28.3011 43.8571 28.3168 43.8235C28.3329 43.7899 28.341 43.7533 28.341 43.7137C28.341 43.6649 28.3269 43.6281 28.2988 43.6032C28.2708 43.5779 28.2337 43.5653 28.1877 43.5653C28.1439 43.5653 28.1034 43.574 28.0661 43.5915C28.0293 43.6085 27.9911 43.6329 27.9515 43.6647L27.8624 43.5577C27.8905 43.5337 27.9204 43.5119 27.9522 43.4921C27.9844 43.4723 28.0203 43.4566 28.0599 43.4451C28.0995 43.4331 28.1446 43.4272 28.1953 43.4272C28.2593 43.4272 28.3145 43.4387 28.361 43.4617C28.4075 43.4842 28.4432 43.5158 28.468 43.5563C28.4933 43.5968 28.506 43.644 28.506 43.6978C28.506 43.7522 28.4952 43.8023 28.4735 43.8484C28.4519 43.8944 28.4211 43.94 28.381 43.9851C28.341 44.0297 28.2933 44.0783 28.2381 44.1308L28.0634 44.3013V44.3089H28.5412V44.4512ZM29.4094 43.9457C29.4094 44.0272 29.4029 44.1002 29.3901 44.1646C29.3776 44.2286 29.3578 44.2829 29.3307 44.3276C29.3035 44.3722 29.2681 44.4063 29.2243 44.4298C29.1806 44.4532 29.1277 44.465 29.0655 44.465C28.9877 44.465 28.9235 44.4445 28.8729 44.4035C28.8222 44.3621 28.7847 44.3027 28.7603 44.2254C28.7359 44.1476 28.7237 44.0544 28.7237 43.9457C28.7237 43.8371 28.7348 43.7441 28.7569 43.6668C28.7794 43.589 28.8158 43.5294 28.866 43.4879C28.9161 43.4465 28.9827 43.4258 29.0655 43.4258C29.1438 43.4258 29.2082 43.4465 29.2589 43.4879C29.31 43.5289 29.3477 43.5883 29.3721 43.6661C29.397 43.7434 29.4094 43.8366 29.4094 43.9457ZM28.8874 43.9457C28.8874 44.0309 28.8929 44.102 28.9039 44.1591C28.9155 44.2162 28.9343 44.259 28.9606 44.2875C28.9868 44.3156 29.0218 44.3296 29.0655 44.3296C29.1093 44.3296 29.1442 44.3156 29.1705 44.2875C29.1967 44.2594 29.2156 44.2169 29.2271 44.1598C29.2391 44.1027 29.2451 44.0313 29.2451 43.9457C29.2451 43.861 29.2393 43.7901 29.2278 43.7331C29.2163 43.676 29.1974 43.6332 29.1712 43.6046C29.1449 43.5756 29.1097 43.5611 29.0655 43.5611C29.0213 43.5611 28.9861 43.5756 28.9599 43.6046C28.9341 43.6332 28.9155 43.676 28.9039 43.7331C28.8929 43.7901 28.8874 43.861 28.8874 43.9457ZM30.2776 43.9457C30.2776 44.0272 30.2711 44.1002 30.2582 44.1646C30.2458 44.2286 30.226 44.2829 30.1989 44.3276C30.1717 44.3722 30.1363 44.4063 30.0925 44.4298C30.0488 44.4532 29.9959 44.465 29.9337 44.465C29.8559 44.465 29.7917 44.4445 29.7411 44.4035C29.6904 44.3621 29.6529 44.3027 29.6285 44.2254C29.6041 44.1476 29.5919 44.0544 29.5919 43.9457C29.5919 43.8371 29.603 43.7441 29.6251 43.6668C29.6476 43.589 29.684 43.5294 29.7342 43.4879C29.7843 43.4465 29.8509 43.4258 29.9337 43.4258C30.012 43.4258 30.0764 43.4465 30.1271 43.4879C30.1781 43.5289 30.2159 43.5883 30.2403 43.6661C30.2652 43.7434 30.2776 43.8366 30.2776 43.9457ZM29.7556 43.9457C29.7556 44.0309 29.7611 44.102 29.7721 44.1591C29.7836 44.2162 29.8025 44.259 29.8288 44.2875C29.855 44.3156 29.89 44.3296 29.9337 44.3296C29.9774 44.3296 30.0124 44.3156 30.0387 44.2875C30.0649 44.2594 30.0838 44.2169 30.0953 44.1598C30.1073 44.1027 30.1132 44.0313 30.1132 43.9457C30.1132 43.861 30.1075 43.7901 30.096 43.7331C30.0845 43.676 30.0656 43.6332 30.0394 43.6046C30.0131 43.5756 29.9779 43.5611 29.9337 43.5611C29.8895 43.5611 29.8543 43.5756 29.8281 43.6046C29.8023 43.6332 29.7836 43.676 29.7721 43.7331C29.7611 43.7901 29.7556 43.861 29.7556 43.9457Z" fill="#212121"/>
<path d="M29.9925 58.3555H29.8295V57.7057C29.8295 57.6841 29.8297 57.6624 29.8302 57.6408C29.8306 57.6192 29.8311 57.598 29.8316 57.5773C29.8325 57.5566 29.8336 57.5368 29.835 57.5179C29.8253 57.5285 29.8134 57.54 29.7991 57.5524C29.7853 57.5648 29.7706 57.5777 29.7549 57.5911L29.6389 57.6836L29.5574 57.5807L29.8571 57.346H29.9925V58.3555ZM31.0671 57.85C31.0671 57.9315 31.0607 58.0045 31.0478 58.0689C31.0353 58.1329 31.0155 58.1872 30.9884 58.2319C30.9612 58.2765 30.9258 58.3106 30.882 58.3341C30.8383 58.3575 30.7854 58.3693 30.7232 58.3693C30.6454 58.3693 30.5812 58.3488 30.5306 58.3078C30.4799 58.2664 30.4424 58.207 30.418 58.1297C30.3936 58.0519 30.3814 57.9587 30.3814 57.85C30.3814 57.7414 30.3925 57.6484 30.4146 57.5711C30.4371 57.4933 30.4735 57.4337 30.5237 57.3922C30.5739 57.3508 30.6404 57.3301 30.7232 57.3301C30.8015 57.3301 30.8659 57.3508 30.9166 57.3922C30.9677 57.4332 31.0054 57.4926 31.0298 57.5704C31.0547 57.6477 31.0671 57.7409 31.0671 57.85ZM30.5451 57.85C30.5451 57.9352 30.5506 58.0063 30.5617 58.0634C30.5732 58.1205 30.592 58.1633 30.6183 58.1918C30.6445 58.2199 30.6795 58.2339 30.7232 58.2339C30.767 58.2339 30.8019 58.2199 30.8282 58.1918C30.8544 58.1637 30.8733 58.1212 30.8848 58.0641C30.8968 58.007 30.9028 57.9356 30.9028 57.85C30.9028 57.7653 30.897 57.6944 30.8855 57.6374C30.874 57.5803 30.8551 57.5375 30.8289 57.5089C30.8026 57.4799 30.7674 57.4654 30.7232 57.4654C30.679 57.4654 30.6438 57.4799 30.6176 57.5089C30.5918 57.5375 30.5732 57.5803 30.5617 57.6374C30.5506 57.6944 30.5451 57.7653 30.5451 57.85ZM31.9353 57.85C31.9353 57.9315 31.9288 58.0045 31.9159 58.0689C31.9035 58.1329 31.8837 58.1872 31.8566 58.2319C31.8294 58.2765 31.794 58.3106 31.7502 58.3341C31.7065 58.3575 31.6536 58.3693 31.5914 58.3693C31.5136 58.3693 31.4494 58.3488 31.3988 58.3078C31.3481 58.2664 31.3106 58.207 31.2862 58.1297C31.2618 58.0519 31.2496 57.9587 31.2496 57.85C31.2496 57.7414 31.2607 57.6484 31.2828 57.5711C31.3053 57.4933 31.3417 57.4337 31.3919 57.3922C31.442 57.3508 31.5086 57.3301 31.5914 57.3301C31.6697 57.3301 31.7341 57.3508 31.7848 57.3922C31.8359 57.4332 31.8736 57.4926 31.898 57.5704C31.9229 57.6477 31.9353 57.7409 31.9353 57.85ZM31.4133 57.85C31.4133 57.9352 31.4188 58.0063 31.4298 58.0634C31.4413 58.1205 31.4602 58.1633 31.4865 58.1918C31.5127 58.2199 31.5477 58.2339 31.5914 58.2339C31.6351 58.2339 31.6701 58.2199 31.6964 58.1918C31.7226 58.1637 31.7415 58.1212 31.753 58.0641C31.765 58.007 31.7709 57.9356 31.7709 57.85C31.7709 57.7653 31.7652 57.6944 31.7537 57.6374C31.7422 57.5803 31.7233 57.5375 31.6971 57.5089C31.6708 57.4799 31.6356 57.4654 31.5914 57.4654C31.5472 57.4654 31.512 57.4799 31.4858 57.5089C31.46 57.5375 31.4413 57.5803 31.4298 57.6374C31.4188 57.6944 31.4133 57.7653 31.4133 57.85Z" fill="#212121"/>
<path d="M43.0212 44.6855H42.8583V44.0358C42.8583 44.0142 42.8585 43.9925 42.859 43.9709C42.8594 43.9492 42.8599 43.9281 42.8604 43.9074C42.8613 43.8866 42.8624 43.8668 42.8638 43.848C42.8541 43.8586 42.8422 43.8701 42.8279 43.8825C42.8141 43.8949 42.7994 43.9078 42.7837 43.9212L42.6677 44.0137L42.5862 43.9108L42.8859 43.676H43.0212V44.6855ZM44.0959 44.1801C44.0959 44.2616 44.0894 44.3345 44.0766 44.399C44.0641 44.463 44.0443 44.5173 44.0172 44.5619C43.99 44.6066 43.9546 44.6407 43.9108 44.6641C43.8671 44.6876 43.8142 44.6994 43.752 44.6994C43.6742 44.6994 43.61 44.6789 43.5594 44.6379C43.5087 44.5965 43.4712 44.5371 43.4468 44.4598C43.4224 44.382 43.4102 44.2887 43.4102 44.1801C43.4102 44.0715 43.4213 43.9785 43.4434 43.9011C43.4659 43.8233 43.5023 43.7637 43.5525 43.7223C43.6026 43.6809 43.6692 43.6602 43.752 43.6602C43.8303 43.6602 43.8947 43.6809 43.9454 43.7223C43.9965 43.7633 44.0342 43.8227 44.0586 43.9004C44.0835 43.9778 44.0959 44.071 44.0959 44.1801ZM43.5739 44.1801C43.5739 44.2653 43.5794 44.3364 43.5904 44.3935C43.602 44.4505 43.6208 44.4934 43.6471 44.5219C43.6733 44.55 43.7083 44.564 43.752 44.564C43.7958 44.564 43.8307 44.55 43.857 44.5219C43.8832 44.4938 43.9021 44.4512 43.9136 44.3942C43.9256 44.3371 43.9316 44.2657 43.9316 44.1801C43.9316 44.0954 43.9258 44.0245 43.9143 43.9674C43.9028 43.9103 43.8839 43.8675 43.8577 43.839C43.8314 43.81 43.7962 43.7955 43.752 43.7955C43.7078 43.7955 43.6726 43.81 43.6464 43.839C43.6206 43.8675 43.602 43.9103 43.5904 43.9674C43.5794 44.0245 43.5739 44.0954 43.5739 44.1801ZM44.9641 44.6855H44.2805V44.5633L44.5422 44.2982C44.5928 44.2466 44.6345 44.2022 44.6672 44.1649C44.6999 44.1272 44.724 44.0915 44.7397 44.0579C44.7558 44.0243 44.7638 43.9877 44.7638 43.9481C44.7638 43.8993 44.7498 43.8625 44.7217 43.8376C44.6936 43.8123 44.6566 43.7996 44.6105 43.7996C44.5668 43.7996 44.5263 43.8084 44.489 43.8259C44.4522 43.8429 44.414 43.8673 44.3744 43.8991L44.2853 43.792C44.3134 43.7681 44.3433 43.7462 44.3751 43.7264C44.4073 43.7066 44.4432 43.691 44.4828 43.6795C44.5224 43.6675 44.5675 43.6615 44.6181 43.6615C44.6821 43.6615 44.7374 43.673 44.7839 43.6961C44.8304 43.7186 44.866 43.7502 44.8909 43.7907C44.9162 43.8312 44.9289 43.8784 44.9289 43.9322C44.9289 43.9865 44.918 44.0367 44.8964 44.0827C44.8748 44.1288 44.8439 44.1743 44.8039 44.2195C44.7638 44.2641 44.7162 44.3127 44.661 44.3652L44.4863 44.5357V44.5433H44.9641V44.6855ZM45.1501 44.2554C45.1501 44.196 45.1542 44.1375 45.1625 44.08C45.1712 44.0224 45.186 43.9686 45.2067 43.9184C45.2274 43.8682 45.2559 43.824 45.2923 43.7858C45.3291 43.7476 45.3754 43.7177 45.4311 43.6961C45.4868 43.674 45.5538 43.6629 45.632 43.6629C45.6523 43.6629 45.6751 43.6638 45.7004 43.6657C45.7257 43.6675 45.7466 43.6705 45.7632 43.6747V43.8093C45.7453 43.8042 45.7255 43.8003 45.7038 43.7976C45.6827 43.7948 45.6615 43.7934 45.6403 43.7934C45.5556 43.7934 45.4896 43.8095 45.4421 43.8418C45.3947 43.8735 45.3609 43.9173 45.3406 43.973C45.3204 44.0282 45.3086 44.0915 45.3054 44.1628H45.3137C45.3275 44.1398 45.3448 44.1193 45.3655 44.1014C45.3862 44.0834 45.4115 44.0692 45.4414 44.0586C45.4714 44.0475 45.5061 44.042 45.5457 44.042C45.6046 44.042 45.656 44.0544 45.6997 44.0793C45.7434 44.1037 45.777 44.1391 45.8005 44.1856C45.8244 44.2321 45.8364 44.2885 45.8364 44.3548C45.8364 44.4261 45.8228 44.4876 45.7957 44.5392C45.769 44.5907 45.7308 44.6303 45.681 44.6579C45.6318 44.6855 45.5731 44.6994 45.505 44.6994C45.4548 44.6994 45.4081 44.6902 45.3648 44.6717C45.322 44.6533 45.2845 44.6257 45.2522 44.5889C45.22 44.5521 45.1949 44.506 45.177 44.4508C45.159 44.3951 45.1501 44.3299 45.1501 44.2554ZM45.5022 44.5654C45.5547 44.5654 45.5968 44.5484 45.6286 44.5143C45.6608 44.4798 45.6769 44.4271 45.6769 44.3562C45.6769 44.2986 45.6626 44.2531 45.6341 44.2195C45.606 44.1859 45.5637 44.1691 45.507 44.1691C45.4684 44.1691 45.4345 44.1773 45.4055 44.1939C45.3765 44.2105 45.354 44.2314 45.3379 44.2567C45.3222 44.2821 45.3144 44.3078 45.3144 44.3341C45.3144 44.3608 45.3183 44.3877 45.3261 44.4149C45.334 44.442 45.3457 44.4671 45.3613 44.4901C45.377 44.5127 45.3966 44.5309 45.42 44.5447C45.4435 44.5585 45.4709 44.5654 45.5022 44.5654Z" fill="#212121"/>
<path d="M50.8005 35.4941H50.6376V34.8444C50.6376 34.8227 50.6378 34.8011 50.6383 34.7795C50.6387 34.7578 50.6392 34.7367 50.6397 34.7159C50.6406 34.6952 50.6417 34.6754 50.6431 34.6566C50.6334 34.6672 50.6215 34.6787 50.6072 34.6911C50.5934 34.7035 50.5787 34.7164 50.563 34.7298L50.447 34.8223L50.3655 34.7194L50.6652 34.4846H50.8005V35.4941ZM51.193 35.064C51.193 35.0046 51.1971 34.9461 51.2054 34.8886C51.2142 34.831 51.2289 34.7772 51.2496 34.727C51.2703 34.6768 51.2989 34.6326 51.3352 34.5944C51.372 34.5562 51.4183 34.5263 51.474 34.5047C51.5297 34.4826 51.5967 34.4715 51.6749 34.4715C51.6952 34.4715 51.718 34.4724 51.7433 34.4743C51.7686 34.4761 51.7896 34.4791 51.8061 34.4833V34.6179C51.7882 34.6128 51.7684 34.6089 51.7468 34.6062C51.7256 34.6034 51.7044 34.602 51.6832 34.602C51.5985 34.602 51.5325 34.6181 51.4851 34.6504C51.4376 34.6821 51.4038 34.7258 51.3836 34.7815C51.3633 34.8368 51.3516 34.9001 51.3483 34.9714H51.3566C51.3704 34.9484 51.3877 34.9279 51.4084 34.91C51.4291 34.892 51.4544 34.8778 51.4844 34.8672C51.5143 34.8561 51.549 34.8506 51.5886 34.8506C51.6476 34.8506 51.6989 34.863 51.7426 34.8879C51.7863 34.9123 51.82 34.9477 51.8434 34.9942C51.8674 35.0407 51.8793 35.0971 51.8793 35.1634C51.8793 35.2347 51.8658 35.2962 51.8386 35.3478C51.8119 35.3993 51.7737 35.4389 51.724 35.4665C51.6747 35.4941 51.616 35.508 51.5479 35.508C51.4977 35.508 51.451 35.4987 51.4077 35.4803C51.3649 35.4619 51.3274 35.4343 51.2952 35.3975C51.2629 35.3606 51.2379 35.3146 51.2199 35.2594C51.202 35.2037 51.193 35.1385 51.193 35.064ZM51.5451 35.374C51.5976 35.374 51.6397 35.357 51.6715 35.3229C51.7037 35.2884 51.7198 35.2357 51.7198 35.1648C51.7198 35.1072 51.7056 35.0617 51.677 35.0281C51.6489 34.9944 51.6066 34.9776 51.55 34.9776C51.5113 34.9776 51.4775 34.9859 51.4485 35.0025C51.4195 35.0191 51.3969 35.04 51.3808 35.0653C51.3651 35.0907 51.3573 35.1164 51.3573 35.1427C51.3573 35.1694 51.3612 35.1963 51.3691 35.2235C51.3769 35.2506 51.3886 35.2757 51.4043 35.2987C51.4199 35.3213 51.4395 35.3395 51.463 35.3533C51.4864 35.3671 51.5138 35.374 51.5451 35.374ZM52.7434 34.9887C52.7434 35.0702 52.7369 35.1431 52.724 35.2076C52.7116 35.2716 52.6918 35.3259 52.6647 35.3705C52.6375 35.4152 52.6021 35.4493 52.5583 35.4727C52.5146 35.4962 52.4617 35.508 52.3995 35.508C52.3217 35.508 52.2575 35.4875 52.2069 35.4465C52.1562 35.4051 52.1187 35.3457 52.0943 35.2683C52.0699 35.1906 52.0577 35.0973 52.0577 34.9887C52.0577 34.8801 52.0688 34.7871 52.0909 34.7097C52.1134 34.6319 52.1498 34.5723 52.2 34.5309C52.2501 34.4895 52.3166 34.4687 52.3995 34.4687C52.4778 34.4687 52.5422 34.4895 52.5928 34.5309C52.6439 34.5719 52.6817 34.6312 52.7061 34.709C52.7309 34.7864 52.7434 34.8796 52.7434 34.9887ZM52.2214 34.9887C52.2214 35.0739 52.2269 35.145 52.2379 35.2021C52.2494 35.2591 52.2683 35.302 52.2946 35.3305C52.3208 35.3586 52.3558 35.3726 52.3995 35.3726C52.4432 35.3726 52.4782 35.3586 52.5045 35.3305C52.5307 35.3024 52.5496 35.2598 52.5611 35.2028C52.5731 35.1457 52.579 35.0743 52.579 34.9887C52.579 34.904 52.5733 34.8331 52.5618 34.776C52.5503 34.7189 52.5314 34.6761 52.5052 34.6476C52.4789 34.6186 52.4437 34.6041 52.3995 34.6041C52.3553 34.6041 52.3201 34.6186 52.2939 34.6476C52.2681 34.6761 52.2494 34.7189 52.2379 34.776C52.2269 34.8331 52.2214 34.904 52.2214 34.9887ZM53.6482 35.2725H53.5114V35.4941H53.3512V35.2725H52.8921V35.1496L53.3533 34.4819H53.5114V35.1378H53.6482V35.2725ZM53.3512 35.1378V34.8872C53.3512 34.8665 53.3515 34.8455 53.3519 34.8244C53.3529 34.8027 53.3538 34.782 53.3547 34.7622C53.3556 34.7424 53.3565 34.7242 53.3575 34.7077C53.3584 34.6906 53.3591 34.6766 53.3595 34.6655H53.354C53.3453 34.684 53.3356 34.7028 53.325 34.7222C53.3144 34.741 53.3031 34.7594 53.2912 34.7774L53.0426 35.1378H53.3512Z" fill="#212121"/>
<path d="M45.7835 58.3555H45.6205V57.7057C45.6205 57.6841 45.6207 57.6624 45.6212 57.6408C45.6217 57.6192 45.6221 57.598 45.6226 57.5773C45.6235 57.5566 45.6247 57.5368 45.626 57.5179C45.6164 57.5285 45.6044 57.54 45.5901 57.5524C45.5763 57.5648 45.5616 57.5777 45.5459 57.5911L45.4299 57.6836L45.3485 57.5807L45.6481 57.346H45.7835V58.3555ZM46.8581 57.85C46.8581 57.9315 46.8517 58.0045 46.8388 58.0689C46.8263 58.1329 46.8066 58.1872 46.7794 58.2319C46.7522 58.2765 46.7168 58.3106 46.6731 58.3341C46.6293 58.3575 46.5764 58.3693 46.5142 58.3693C46.4364 58.3693 46.3722 58.3488 46.3216 58.3078C46.271 58.2664 46.2334 58.207 46.209 58.1297C46.1846 58.0519 46.1724 57.9587 46.1724 57.85C46.1724 57.7414 46.1835 57.6484 46.2056 57.5711C46.2281 57.4933 46.2645 57.4337 46.3147 57.3922C46.3649 57.3508 46.4314 57.3301 46.5142 57.3301C46.5925 57.3301 46.6569 57.3508 46.7076 57.3922C46.7587 57.4332 46.7964 57.4926 46.8208 57.5704C46.8457 57.6477 46.8581 57.7409 46.8581 57.85ZM46.3361 57.85C46.3361 57.9352 46.3416 58.0063 46.3527 58.0634C46.3642 58.1205 46.383 58.1633 46.4093 58.1918C46.4355 58.2199 46.4705 58.2339 46.5142 58.2339C46.558 58.2339 46.593 58.2199 46.6192 58.1918C46.6454 58.1637 46.6643 58.1212 46.6758 58.0641C46.6878 58.007 46.6938 57.9356 46.6938 57.85C46.6938 57.7653 46.688 57.6944 46.6765 57.6374C46.665 57.5803 46.6461 57.5375 46.6199 57.5089C46.5937 57.4799 46.5584 57.4654 46.5142 57.4654C46.4701 57.4654 46.4348 57.4799 46.4086 57.5089C46.3828 57.5375 46.3642 57.5803 46.3527 57.6374C46.3416 57.6944 46.3361 57.7653 46.3361 57.85ZM47.7263 57.85C47.7263 57.9315 47.7199 58.0045 47.707 58.0689C47.6945 58.1329 47.6747 58.1872 47.6476 58.2319C47.6204 58.2765 47.585 58.3106 47.5412 58.3341C47.4975 58.3575 47.4446 58.3693 47.3824 58.3693C47.3046 58.3693 47.2404 58.3488 47.1898 58.3078C47.1391 58.2664 47.1016 58.207 47.0772 58.1297C47.0528 58.0519 47.0406 57.9587 47.0406 57.85C47.0406 57.7414 47.0517 57.6484 47.0738 57.5711C47.0963 57.4933 47.1327 57.4337 47.1829 57.3922C47.2331 57.3508 47.2996 57.3301 47.3824 57.3301C47.4607 57.3301 47.5251 57.3508 47.5758 57.3922C47.6269 57.4332 47.6646 57.4926 47.689 57.5704C47.7139 57.6477 47.7263 57.7409 47.7263 57.85ZM47.2043 57.85C47.2043 57.9352 47.2098 58.0063 47.2209 58.0634C47.2324 58.1205 47.2512 58.1633 47.2775 58.1918C47.3037 58.2199 47.3387 58.2339 47.3824 58.2339C47.4262 58.2339 47.4611 58.2199 47.4874 58.1918C47.5136 58.1637 47.5325 58.1212 47.544 58.0641C47.556 58.007 47.562 57.9356 47.562 57.85C47.562 57.7653 47.5562 57.6944 47.5447 57.6374C47.5332 57.5803 47.5143 57.5375 47.4881 57.5089C47.4618 57.4799 47.4266 57.4654 47.3824 57.4654C47.3382 57.4654 47.303 57.4799 47.2768 57.5089C47.251 57.5375 47.2324 57.5803 47.2209 57.6374C47.2098 57.6944 47.2043 57.7653 47.2043 57.85Z" fill="#212121"/>
<path d="M53.7678 46.2273C53.7678 46.2872 53.7635 46.3458 53.7547 46.4034C53.7464 46.4609 53.7317 46.5148 53.7105 46.565C53.6898 46.6151 53.661 46.6596 53.6242 46.6982C53.5879 46.7364 53.5418 46.7664 53.4861 46.788C53.4304 46.8096 53.3632 46.8205 53.2845 46.8205C53.2647 46.8205 53.2417 46.8193 53.2154 46.817C53.1897 46.8152 53.1685 46.8124 53.1519 46.8087V46.6734C53.1694 46.6784 53.189 46.6826 53.2106 46.6858C53.2327 46.6886 53.2546 46.6899 53.2762 46.6899C53.3614 46.6899 53.4277 46.6741 53.4751 46.6423C53.5229 46.6105 53.5568 46.5668 53.5766 46.5111C53.5968 46.4554 53.6083 46.3921 53.6111 46.3212H53.6028C53.5895 46.3433 53.5727 46.3636 53.5524 46.382C53.5322 46.3999 53.5071 46.4144 53.4771 46.4255C53.4472 46.4361 53.4109 46.4414 53.368 46.4414C53.31 46.4414 53.2594 46.4292 53.2161 46.4048C53.1733 46.3804 53.1399 46.3449 53.116 46.2984C53.0925 46.2515 53.0808 46.1951 53.0808 46.1293C53.0808 46.0579 53.0944 45.9965 53.1215 45.9449C53.1487 45.8933 53.1871 45.8538 53.2368 45.8261C53.2866 45.7981 53.345 45.784 53.4122 45.784C53.4629 45.784 53.5096 45.7932 53.5524 45.8116C53.5957 45.8296 53.6334 45.8572 53.6656 45.8945C53.6979 45.9313 53.723 45.9776 53.7409 46.0333C53.7589 46.0885 53.7678 46.1532 53.7678 46.2273ZM53.4143 45.918C53.3632 45.918 53.3215 45.9352 53.2893 45.9698C53.2571 46.0038 53.241 46.0563 53.241 46.1272C53.241 46.1847 53.2548 46.2303 53.2824 46.2639C53.31 46.2975 53.3524 46.3143 53.4095 46.3143C53.4491 46.3143 53.4831 46.3063 53.5117 46.2901C53.5407 46.2736 53.563 46.2526 53.5786 46.2273C53.5948 46.202 53.6028 46.1762 53.6028 46.15C53.6028 46.1228 53.5989 46.0957 53.5911 46.0685C53.5837 46.0413 53.5722 46.0165 53.5565 45.9939C53.5409 45.9714 53.5211 45.9532 53.4972 45.9394C53.4737 45.9251 53.4461 45.918 53.4143 45.918ZM54.2942 45.7833C54.3527 45.7833 54.4054 45.7925 54.4524 45.8109C54.4993 45.8289 54.5366 45.8558 54.5642 45.8917C54.5918 45.9276 54.6056 45.9721 54.6056 46.025C54.6056 46.066 54.5971 46.1016 54.5801 46.132C54.5635 46.1624 54.541 46.1891 54.5124 46.2121C54.4839 46.2347 54.4519 46.2547 54.4164 46.2722C54.456 46.2915 54.4924 46.3139 54.5255 46.3392C54.5592 46.364 54.5861 46.3933 54.6063 46.4269C54.6271 46.4605 54.6374 46.4998 54.6374 46.5449C54.6374 46.6016 54.6229 46.6506 54.5939 46.692C54.5654 46.733 54.5255 46.7648 54.4745 46.7873C54.4234 46.8094 54.3637 46.8205 54.2956 46.8205C54.2224 46.8205 54.16 46.8096 54.1085 46.788C54.0569 46.7664 54.0178 46.7355 53.9911 46.6955C53.9644 46.655 53.9511 46.6066 53.9511 46.5505C53.9511 46.504 53.9603 46.4637 53.9787 46.4296C53.9971 46.3956 54.0217 46.3661 54.0526 46.3412C54.0839 46.3164 54.1182 46.2954 54.1554 46.2784C54.1237 46.2595 54.0947 46.2384 54.0684 46.2149C54.0422 46.1909 54.0213 46.1636 54.0056 46.1327C53.9904 46.1014 53.9828 46.0653 53.9828 46.0243C53.9828 45.9718 53.9969 45.9279 54.0249 45.8924C54.053 45.8565 54.0905 45.8294 54.1375 45.8109C54.1849 45.7925 54.2372 45.7833 54.2942 45.7833ZM54.1057 46.5443C54.1057 46.5884 54.1214 46.6248 54.1527 46.6533C54.184 46.6819 54.2307 46.6962 54.2929 46.6962C54.3545 46.6962 54.4015 46.6821 54.4337 46.654C54.4659 46.626 54.482 46.5889 54.482 46.5429C54.482 46.5134 54.4738 46.4874 54.4572 46.4648C54.4411 46.4423 54.4192 46.4223 54.3916 46.4048C54.3644 46.3868 54.3343 46.3702 54.3011 46.3551L54.279 46.3461C54.2431 46.3613 54.2123 46.3785 54.1865 46.3979C54.1607 46.4167 54.1407 46.4381 54.1264 46.4621C54.1126 46.486 54.1057 46.5134 54.1057 46.5443ZM54.2929 45.9083C54.2482 45.9083 54.2114 45.9193 54.1824 45.9414C54.1538 45.9631 54.1396 45.9944 54.1396 46.0354C54.1396 46.0644 54.1465 46.0892 54.1603 46.1099C54.1745 46.1306 54.1936 46.1486 54.2176 46.1638C54.2415 46.1785 54.268 46.1923 54.297 46.2052C54.3251 46.1928 54.3504 46.1792 54.3729 46.1645C54.396 46.1493 54.4141 46.1313 54.4275 46.1106C54.4413 46.0894 54.4482 46.0641 54.4482 46.0347C54.4482 45.9942 54.4337 45.9631 54.4047 45.9414C54.3762 45.9193 54.3389 45.9083 54.2929 45.9083ZM55.5056 46.8066H54.822V46.6844L55.0837 46.4193C55.1343 46.3677 55.176 46.3233 55.2087 46.286C55.2414 46.2483 55.2655 46.2126 55.2812 46.179C55.2973 46.1454 55.3054 46.1088 55.3054 46.0692C55.3054 46.0204 55.2913 45.9836 55.2632 45.9587C55.2352 45.9334 55.1981 45.9207 55.1521 45.9207C55.1083 45.9207 55.0678 45.9295 55.0305 45.947C54.9937 45.964 54.9555 45.9884 54.9159 46.0202L54.8268 45.9131C54.8549 45.8892 54.8848 45.8673 54.9166 45.8475C54.9488 45.8277 54.9847 45.8121 55.0243 45.8006C55.0639 45.7886 55.109 45.7826 55.1597 45.7826C55.2236 45.7826 55.2789 45.7941 55.3254 45.8172C55.3719 45.8397 55.4075 45.8712 55.4324 45.9118C55.4577 45.9523 55.4704 45.9994 55.4704 46.0533C55.4704 46.1076 55.4596 46.1578 55.4379 46.2038C55.4163 46.2499 55.3854 46.2954 55.3454 46.3406C55.3054 46.3852 55.2577 46.4338 55.2025 46.4862L55.0278 46.6568V46.6644H55.5056V46.8066Z" fill="#212121"/>
<path d="M58.3416 44.4512H58.1786V43.8014C58.1786 43.7798 58.1788 43.7581 58.1793 43.7365C58.1798 43.7149 58.1802 43.6937 58.1807 43.673C58.1816 43.6523 58.1827 43.6325 58.1841 43.6136C58.1745 43.6242 58.1625 43.6357 58.1482 43.6481C58.1344 43.6606 58.1197 43.6734 58.104 43.6868L57.988 43.7793L57.9065 43.6764L58.2062 43.4417H58.3416V44.4512ZM59.4162 43.9457C59.4162 44.0272 59.4098 44.1002 59.3969 44.1646C59.3844 44.2286 59.3646 44.2829 59.3375 44.3276C59.3103 44.3722 59.2749 44.4063 59.2312 44.4298C59.1874 44.4532 59.1345 44.465 59.0723 44.465C58.9945 44.465 58.9303 44.4445 58.8797 44.4035C58.8291 44.3621 58.7915 44.3027 58.7671 44.2254C58.7427 44.1476 58.7305 44.0544 58.7305 43.9457C58.7305 43.8371 58.7416 43.7441 58.7637 43.6668C58.7862 43.589 58.8226 43.5294 58.8728 43.4879C58.923 43.4465 58.9895 43.4258 59.0723 43.4258C59.1506 43.4258 59.215 43.4465 59.2657 43.4879C59.3168 43.5289 59.3545 43.5883 59.3789 43.6661C59.4038 43.7434 59.4162 43.8366 59.4162 43.9457ZM58.8942 43.9457C58.8942 44.0309 58.8997 44.102 58.9108 44.1591C58.9223 44.2162 58.9411 44.259 58.9674 44.2875C58.9936 44.3156 59.0286 44.3296 59.0723 44.3296C59.1161 44.3296 59.1511 44.3156 59.1773 44.2875C59.2035 44.2594 59.2224 44.2169 59.2339 44.1598C59.2459 44.1027 59.2519 44.0313 59.2519 43.9457C59.2519 43.861 59.2461 43.7901 59.2346 43.7331C59.2231 43.676 59.2042 43.6332 59.178 43.6046C59.1517 43.5756 59.1165 43.5611 59.0723 43.5611C59.0281 43.5611 58.9929 43.5756 58.9667 43.6046C58.9409 43.6332 58.9223 43.676 58.9108 43.7331C58.8997 43.7901 58.8942 43.861 58.8942 43.9457ZM60.2844 43.9457C60.2844 44.0272 60.2779 44.1002 60.2651 44.1646C60.2526 44.2286 60.2328 44.2829 60.2057 44.3276C60.1785 44.3722 60.1431 44.4063 60.0993 44.4298C60.0556 44.4532 60.0027 44.465 59.9405 44.465C59.8627 44.465 59.7985 44.4445 59.7479 44.4035C59.6972 44.3621 59.6597 44.3027 59.6353 44.2254C59.6109 44.1476 59.5987 44.0544 59.5987 43.9457C59.5987 43.8371 59.6098 43.7441 59.6319 43.6668C59.6544 43.589 59.6908 43.5294 59.741 43.4879C59.7911 43.4465 59.8577 43.4258 59.9405 43.4258C60.0188 43.4258 60.0832 43.4465 60.1339 43.4879C60.185 43.5289 60.2227 43.5883 60.2471 43.6661C60.272 43.7434 60.2844 43.8366 60.2844 43.9457ZM59.7624 43.9457C59.7624 44.0309 59.7679 44.102 59.7789 44.1591C59.7905 44.2162 59.8093 44.259 59.8356 44.2875C59.8618 44.3156 59.8968 44.3296 59.9405 44.3296C59.9843 44.3296 60.0192 44.3156 60.0455 44.2875C60.0717 44.2594 60.0906 44.2169 60.1021 44.1598C60.1141 44.1027 60.1201 44.0313 60.1201 43.9457C60.1201 43.861 60.1143 43.7901 60.1028 43.7331C60.0913 43.676 60.0724 43.6332 60.0462 43.6046C60.0199 43.5756 59.9847 43.5611 59.9405 43.5611C59.8963 43.5611 59.8611 43.5756 59.8349 43.6046C59.8091 43.6332 59.7905 43.676 59.7789 43.7331C59.7679 43.7901 59.7624 43.861 59.7624 43.9457ZM61.1526 43.9457C61.1526 44.0272 61.1461 44.1002 61.1332 44.1646C61.1208 44.2286 61.101 44.2829 61.0739 44.3276C61.0467 44.3722 61.0113 44.4063 60.9675 44.4298C60.9238 44.4532 60.8709 44.465 60.8087 44.465C60.7309 44.465 60.6667 44.4445 60.6161 44.4035C60.5654 44.3621 60.5279 44.3027 60.5035 44.2254C60.4791 44.1476 60.4669 44.0544 60.4669 43.9457C60.4669 43.8371 60.478 43.7441 60.5001 43.6668C60.5226 43.589 60.559 43.5294 60.6092 43.4879C60.6593 43.4465 60.7259 43.4258 60.8087 43.4258C60.887 43.4258 60.9514 43.4465 61.0021 43.4879C61.0531 43.5289 61.0909 43.5883 61.1153 43.6661C61.1402 43.7434 61.1526 43.8366 61.1526 43.9457ZM60.6306 43.9457C60.6306 44.0309 60.6361 44.102 60.6471 44.1591C60.6586 44.2162 60.6775 44.259 60.7038 44.2875C60.73 44.3156 60.765 44.3296 60.8087 44.3296C60.8524 44.3296 60.8874 44.3156 60.9137 44.2875C60.9399 44.2594 60.9588 44.2169 60.9703 44.1598C60.9823 44.1027 60.9882 44.0313 60.9882 43.9457C60.9882 43.861 60.9825 43.7901 60.971 43.7331C60.9595 43.676 60.9406 43.6332 60.9144 43.6046C60.8881 43.5756 60.8529 43.5611 60.8087 43.5611C60.7645 43.5611 60.7293 43.5756 60.7031 43.6046C60.6773 43.6332 60.6586 43.676 60.6471 43.7331C60.6361 43.7901 60.6306 43.861 60.6306 43.9457Z" fill="#212121"/>
<path d="M61.1038 58.3555H60.9408V57.7057C60.9408 57.6841 60.9411 57.6624 60.9415 57.6408C60.942 57.6192 60.9424 57.598 60.9429 57.5773C60.9438 57.5566 60.945 57.5368 60.9463 57.5179C60.9367 57.5285 60.9247 57.54 60.9104 57.5524C60.8966 57.5648 60.8819 57.5777 60.8662 57.5911L60.7502 57.6836L60.6688 57.5807L60.9684 57.346H61.1038V58.3555ZM62.1784 57.85C62.1784 57.9315 62.172 58.0045 62.1591 58.0689C62.1467 58.1329 62.1269 58.1872 62.0997 58.2319C62.0725 58.2765 62.0371 58.3106 61.9934 58.3341C61.9496 58.3575 61.8967 58.3693 61.8346 58.3693C61.7568 58.3693 61.6925 58.3488 61.6419 58.3078C61.5913 58.2664 61.5538 58.207 61.5294 58.1297C61.505 58.0519 61.4928 57.9587 61.4928 57.85C61.4928 57.7414 61.5038 57.6484 61.5259 57.5711C61.5485 57.4933 61.5848 57.4337 61.635 57.3922C61.6852 57.3508 61.7517 57.3301 61.8346 57.3301C61.9128 57.3301 61.9773 57.3508 62.0279 57.3922C62.079 57.4332 62.1167 57.4926 62.1411 57.5704C62.166 57.6477 62.1784 57.7409 62.1784 57.85ZM61.6564 57.85C61.6564 57.9352 61.6619 58.0063 61.673 58.0634C61.6845 58.1205 61.7034 58.1633 61.7296 58.1918C61.7558 58.2199 61.7908 58.2339 61.8346 58.2339C61.8783 58.2339 61.9133 58.2199 61.9395 58.1918C61.9658 58.1637 61.9846 58.1212 61.9961 58.0641C62.0081 58.007 62.0141 57.9356 62.0141 57.85C62.0141 57.7653 62.0083 57.6944 61.9968 57.6374C61.9853 57.5803 61.9664 57.5375 61.9402 57.5089C61.914 57.4799 61.8787 57.4654 61.8346 57.4654C61.7904 57.4654 61.7551 57.4799 61.7289 57.5089C61.7031 57.5375 61.6845 57.5803 61.673 57.6374C61.6619 57.6944 61.6564 57.7653 61.6564 57.85ZM63.0079 57.5766C63.0079 57.6222 62.9987 57.6617 62.9803 57.6954C62.9619 57.729 62.9366 57.7566 62.9044 57.7782C62.8726 57.7994 62.8358 57.8146 62.7939 57.8238V57.8286C62.8744 57.8387 62.9352 57.8641 62.9762 57.9046C63.0176 57.9451 63.0383 57.9987 63.0383 58.0655C63.0383 58.1239 63.0243 58.1762 62.9962 58.2222C62.9681 58.2678 62.9251 58.3037 62.8671 58.3299C62.8091 58.3562 62.7345 58.3693 62.6434 58.3693C62.5886 58.3693 62.5377 58.3649 62.4908 58.3562C62.4443 58.3474 62.4001 58.3334 62.3582 58.314V58.1697C62.401 58.1909 62.4466 58.2072 62.4949 58.2187C62.5432 58.2303 62.589 58.236 62.6323 58.236C62.7166 58.236 62.7766 58.2204 62.8125 58.1891C62.8484 58.1573 62.8664 58.1136 62.8664 58.0579C62.8664 58.022 62.857 57.9925 62.8381 57.9695C62.8197 57.9465 62.7909 57.9292 62.7518 57.9177C62.7131 57.9062 62.6632 57.9004 62.6019 57.9004H62.5129V57.7699H62.6026C62.6611 57.7699 62.708 57.763 62.7435 57.7492C62.7789 57.7349 62.8045 57.7154 62.8201 57.6905C62.8362 57.6657 62.8443 57.6367 62.8443 57.6035C62.8443 57.5602 62.8303 57.5266 62.8022 57.5027C62.7741 57.4783 62.7324 57.4661 62.6772 57.4661C62.6431 57.4661 62.6121 57.47 62.584 57.4778C62.5564 57.4857 62.5308 57.4956 62.5073 57.5075C62.4839 57.5195 62.4615 57.5324 62.4404 57.5462L62.3623 57.4337C62.4005 57.4051 62.4461 57.3809 62.499 57.3612C62.552 57.3414 62.6137 57.3315 62.6841 57.3315C62.7877 57.3315 62.8675 57.3538 62.9237 57.3984C62.9799 57.4426 63.0079 57.502 63.0079 57.5766Z" fill="#212121"/>
<path d="M67.1355 58.7195C67.1355 58.7793 67.1312 58.838 67.1224 58.8956C67.1141 58.9531 67.0994 59.007 67.0782 59.0572C67.0575 59.1073 67.0287 59.1518 66.9919 59.1904C66.9555 59.2286 66.9095 59.2585 66.8538 59.2802C66.7981 59.3018 66.7309 59.3126 66.6522 59.3126C66.6324 59.3126 66.6094 59.3115 66.5831 59.3092C66.5574 59.3073 66.5362 59.3046 66.5196 59.3009V59.1656C66.5371 59.1706 66.5567 59.1748 66.5783 59.178C66.6004 59.1808 66.6223 59.1821 66.6439 59.1821C66.7291 59.1821 66.7953 59.1663 66.8428 59.1345C66.8906 59.1027 66.9245 59.059 66.9443 59.0033C66.9645 58.9476 66.976 58.8843 66.9788 58.8134H66.9705C66.9571 58.8355 66.9403 58.8558 66.9201 58.8742C66.8998 58.8921 66.8748 58.9066 66.8448 58.9177C66.8149 58.9283 66.7785 58.9336 66.7357 58.9336C66.6777 58.9336 66.6271 58.9214 66.5838 58.897C66.541 58.8726 66.5076 58.8371 66.4837 58.7906C66.4602 58.7437 66.4485 58.6873 66.4485 58.6214C66.4485 58.5501 66.4621 58.4886 66.4892 58.4371C66.5164 58.3855 66.5548 58.3459 66.6045 58.3183C66.6543 58.2902 66.7127 58.2762 66.7799 58.2762C66.8306 58.2762 66.8773 58.2854 66.9201 58.3038C66.9634 58.3218 67.0011 58.3494 67.0333 58.3867C67.0656 58.4235 67.0906 58.4698 67.1086 58.5255C67.1266 58.5807 67.1355 58.6454 67.1355 58.7195ZM66.782 58.4102C66.7309 58.4102 66.6892 58.4274 66.657 58.4619C66.6248 58.496 66.6087 58.5485 66.6087 58.6194C66.6087 58.6769 66.6225 58.7225 66.6501 58.7561C66.6777 58.7897 66.7201 58.8065 66.7772 58.8065C66.8167 58.8065 66.8508 58.7984 66.8794 58.7823C66.9084 58.7658 66.9307 58.7448 66.9463 58.7195C66.9624 58.6942 66.9705 58.6684 66.9705 58.6422C66.9705 58.615 66.9666 58.5878 66.9588 58.5607C66.9514 58.5335 66.9399 58.5087 66.9242 58.4861C66.9086 58.4636 66.8888 58.4454 66.8649 58.4316C66.8414 58.4173 66.8138 58.4102 66.782 58.4102ZM67.6619 58.2755C67.7204 58.2755 67.7731 58.2847 67.82 58.3031C67.867 58.3211 67.9043 58.348 67.9319 58.3839C67.9595 58.4198 67.9733 58.4642 67.9733 58.5172C67.9733 58.5582 67.9648 58.5938 67.9478 58.6242C67.9312 58.6546 67.9087 58.6813 67.8801 58.7043C67.8516 58.7269 67.8196 58.7469 67.7841 58.7644C67.8237 58.7837 67.8601 58.806 67.8932 58.8314C67.9268 58.8562 67.9538 58.8854 67.974 58.9191C67.9947 58.9527 68.0051 58.992 68.0051 59.0371C68.0051 59.0937 67.9906 59.1428 67.9616 59.1842C67.9331 59.2252 67.8932 59.2569 67.8421 59.2795C67.791 59.3016 67.7314 59.3126 67.6633 59.3126C67.5901 59.3126 67.5277 59.3018 67.4762 59.2802C67.4246 59.2585 67.3855 59.2277 67.3588 59.1877C67.3321 59.1471 67.3187 59.0988 67.3187 59.0427C67.3187 58.9962 67.3279 58.9559 67.3464 58.9218C67.3648 58.8878 67.3894 58.8583 67.4202 58.8334C67.4515 58.8086 67.4858 58.7876 67.5231 58.7706C67.4914 58.7517 67.4624 58.7305 67.4361 58.7071C67.4099 58.6831 67.3889 58.6557 67.3733 58.6249C67.3581 58.5936 67.3505 58.5575 67.3505 58.5165C67.3505 58.464 67.3645 58.4201 67.3926 58.3846C67.4207 58.3487 67.4582 58.3215 67.5052 58.3031C67.5526 58.2847 67.6048 58.2755 67.6619 58.2755ZM67.4734 59.0364C67.4734 59.0806 67.4891 59.117 67.5204 59.1455C67.5517 59.1741 67.5984 59.1883 67.6605 59.1883C67.7222 59.1883 67.7692 59.1743 67.8014 59.1462C67.8336 59.1181 67.8497 59.0811 67.8497 59.0351C67.8497 59.0056 67.8414 58.9796 67.8249 58.957C67.8088 58.9345 67.7869 58.9145 67.7593 58.897C67.7321 58.879 67.702 58.8624 67.6688 58.8472L67.6467 58.8383C67.6108 58.8535 67.58 58.8707 67.5542 58.8901C67.5284 58.9089 67.5084 58.9303 67.4941 58.9543C67.4803 58.9782 67.4734 59.0056 67.4734 59.0364ZM67.6605 58.4005C67.6159 58.4005 67.5791 58.4115 67.5501 58.4336C67.5215 58.4553 67.5072 58.4866 67.5072 58.5275C67.5072 58.5565 67.5142 58.5814 67.528 58.6021C67.5422 58.6228 67.5613 58.6408 67.5853 58.656C67.6092 58.6707 67.6357 58.6845 67.6647 58.6974C67.6928 58.685 67.7181 58.6714 67.7406 58.6567C67.7637 58.6415 67.7818 58.6235 67.7952 58.6028C67.809 58.5816 67.8159 58.5563 67.8159 58.5269C67.8159 58.4863 67.8014 58.4553 67.7724 58.4336C67.7439 58.4115 67.7066 58.4005 67.6605 58.4005Z" fill="#212121"/>
<path d="M69.258 64.7188H68.5744V64.5965L68.8361 64.3314C68.8867 64.2798 68.9284 64.2354 68.9611 64.1981C68.9938 64.1604 69.0179 64.1247 69.0336 64.0911C69.0497 64.0575 69.0578 64.0209 69.0578 63.9813C69.0578 63.9325 69.0437 63.8957 69.0156 63.8708C68.9876 63.8455 68.9505 63.8328 68.9045 63.8328C68.8607 63.8328 68.8202 63.8416 68.7829 63.8591C68.7461 63.8761 68.7079 63.9005 68.6683 63.9323L68.5792 63.8252C68.6073 63.8013 68.6372 63.7794 68.669 63.7596C68.7012 63.7399 68.7371 63.7242 68.7767 63.7127C68.8163 63.7007 68.8614 63.6947 68.9121 63.6947C68.976 63.6947 69.0313 63.7062 69.0778 63.7293C69.1243 63.7518 69.16 63.7834 69.1848 63.8239C69.2101 63.8644 69.2228 63.9116 69.2228 63.9654C69.2228 64.0197 69.212 64.0699 69.1903 64.1159C69.1687 64.162 69.1379 64.2076 69.0978 64.2527C69.0578 64.2973 69.0101 64.3459 68.9549 64.3984L68.7802 64.5689V64.5765H69.258V64.7188ZM70.1262 64.2133C70.1262 64.2948 70.1197 64.3677 70.1069 64.4322C70.0944 64.4962 70.0746 64.5505 70.0475 64.5952C70.0203 64.6398 69.9849 64.6739 69.9411 64.6973C69.8974 64.7208 69.8445 64.7326 69.7823 64.7326C69.7045 64.7326 69.6403 64.7121 69.5897 64.6711C69.539 64.6297 69.5015 64.5703 69.4771 64.493C69.4527 64.4152 69.4405 64.3219 69.4405 64.2133C69.4405 64.1047 69.4516 64.0117 69.4737 63.9343C69.4962 63.8565 69.5326 63.7969 69.5828 63.7555C69.6329 63.7141 69.6995 63.6934 69.7823 63.6934C69.8606 63.6934 69.925 63.7141 69.9757 63.7555C70.0268 63.7965 70.0645 63.8559 70.0889 63.9337C70.1138 64.011 70.1262 64.1042 70.1262 64.2133ZM69.6042 64.2133C69.6042 64.2985 69.6097 64.3696 69.6207 64.4267C69.6323 64.4838 69.6511 64.5266 69.6774 64.5551C69.7036 64.5832 69.7386 64.5972 69.7823 64.5972C69.8261 64.5972 69.861 64.5832 69.8873 64.5551C69.9135 64.527 69.9324 64.4844 69.9439 64.4274C69.9559 64.3703 69.9619 64.2989 69.9619 64.2133C69.9619 64.1286 69.9561 64.0577 69.9446 64.0006C69.9331 63.9436 69.9142 63.9007 69.888 63.8722C69.8617 63.8432 69.8265 63.8287 69.7823 63.8287C69.7381 63.8287 69.7029 63.8432 69.6767 63.8722C69.6509 63.9007 69.6323 63.9436 69.6207 64.0006C69.6097 64.0577 69.6042 64.1286 69.6042 64.2133Z" fill="#212121"/>
<path d="M73.8982 41.6211H73.7352V40.9713C73.7352 40.9497 73.7355 40.9281 73.7359 40.9064C73.7364 40.8848 73.7369 40.8636 73.7373 40.8429C73.7382 40.8222 73.7394 40.8024 73.7408 40.7835C73.7311 40.7941 73.7191 40.8056 73.7049 40.818C73.6911 40.8305 73.6763 40.8434 73.6607 40.8567L73.5447 40.9492L73.4632 40.8464L73.7629 40.6116H73.8982V41.6211ZM74.9728 41.6211H74.2893V41.4989L74.551 41.2337C74.6016 41.1822 74.6432 41.1377 74.6759 41.1005C74.7086 41.0627 74.7328 41.027 74.7484 40.9934C74.7645 40.9598 74.7726 40.9232 74.7726 40.8836C74.7726 40.8348 74.7586 40.798 74.7305 40.7732C74.7024 40.7478 74.6653 40.7352 74.6193 40.7352C74.5756 40.7352 74.5351 40.7439 74.4978 40.7614C74.461 40.7785 74.4227 40.8029 74.3832 40.8346L74.2941 40.7276C74.3222 40.7037 74.3521 40.6818 74.3839 40.662C74.4161 40.6422 74.452 40.6265 74.4916 40.615C74.5312 40.6031 74.5763 40.5971 74.6269 40.5971C74.6909 40.5971 74.7461 40.6086 74.7926 40.6316C74.8391 40.6542 74.8748 40.6857 74.8997 40.7262C74.925 40.7667 74.9376 40.8139 74.9376 40.8678C74.9376 40.9221 74.9268 40.9723 74.9052 41.0183C74.8835 41.0643 74.8527 41.1099 74.8127 41.155C74.7726 41.1997 74.725 41.2482 74.6697 41.3007L74.495 41.4713V41.4789H74.9728V41.6211ZM75.841 41.1156C75.841 41.1971 75.8346 41.2701 75.8217 41.3345C75.8093 41.3985 75.7895 41.4528 75.7623 41.4975C75.7352 41.5421 75.6997 41.5762 75.656 41.5997C75.6122 41.6232 75.5593 41.6349 75.4972 41.6349C75.4194 41.6349 75.3552 41.6144 75.3045 41.5734C75.2539 41.532 75.2164 41.4726 75.192 41.3953C75.1676 41.3175 75.1554 41.2243 75.1554 41.1156C75.1554 41.007 75.1664 40.914 75.1885 40.8367C75.2111 40.7589 75.2474 40.6993 75.2976 40.6578C75.3478 40.6164 75.4143 40.5957 75.4972 40.5957C75.5754 40.5957 75.6399 40.6164 75.6905 40.6578C75.7416 40.6988 75.7793 40.7582 75.8037 40.836C75.8286 40.9133 75.841 41.0065 75.841 41.1156ZM75.319 41.1156C75.319 41.2008 75.3245 41.2719 75.3356 41.329C75.3471 41.3861 75.366 41.4289 75.3922 41.4574C75.4184 41.4855 75.4534 41.4996 75.4972 41.4996C75.5409 41.4996 75.5759 41.4855 75.6021 41.4574C75.6284 41.4294 75.6472 41.3868 75.6587 41.3297C75.6707 41.2726 75.6767 41.2013 75.6767 41.1156C75.6767 41.0309 75.6709 40.9601 75.6594 40.903C75.6479 40.8459 75.6291 40.8031 75.6028 40.7745C75.5766 40.7455 75.5414 40.731 75.4972 40.731C75.453 40.731 75.4178 40.7455 75.3915 40.7745C75.3657 40.8031 75.3471 40.8459 75.3356 40.903C75.3245 40.9601 75.319 41.0309 75.319 41.1156ZM76.3688 40.99C76.4337 40.99 76.4908 41.0017 76.54 41.0252C76.5898 41.0482 76.6284 41.0823 76.6561 41.1274C76.6837 41.172 76.6975 41.2268 76.6975 41.2917C76.6975 41.3626 76.6825 41.4238 76.6526 41.4754C76.6227 41.5265 76.5787 41.5659 76.5207 41.5935C76.4627 41.6211 76.3921 41.6349 76.3087 41.6349C76.2558 41.6349 76.2063 41.6303 76.1603 41.6211C76.1147 41.6119 76.0753 41.5981 76.0422 41.5797V41.4333C76.0767 41.4526 76.1182 41.4685 76.1665 41.4809C76.2148 41.4929 76.2611 41.4989 76.3053 41.4989C76.3522 41.4989 76.3925 41.492 76.4261 41.4782C76.4597 41.4644 76.4855 41.4432 76.5035 41.4146C76.5219 41.3861 76.5311 41.35 76.5311 41.3062C76.5311 41.2482 76.5124 41.2036 76.4751 41.1723C76.4383 41.1405 76.3805 41.1246 76.3018 41.1246C76.2742 41.1246 76.2447 41.1272 76.2134 41.1322C76.1826 41.1368 76.1568 41.1419 76.1361 41.1474L76.065 41.1053L76.103 40.6116H76.6277V40.7545H76.2459L76.2238 41.0059C76.2404 41.0022 76.2602 40.9987 76.2832 40.9955C76.3062 40.9918 76.3347 40.99 76.3688 40.99Z" fill="#212121"/>
<path d="M76.5237 48.6114C76.5822 48.6114 76.6349 48.6207 76.6818 48.6391C76.7288 48.657 76.7661 48.6839 76.7937 48.7199C76.8213 48.7558 76.8351 48.8002 76.8351 48.8531C76.8351 48.8941 76.8266 48.9298 76.8096 48.9601C76.793 48.9905 76.7704 49.0172 76.7419 49.0402C76.7134 49.0628 76.6814 49.0828 76.6459 49.1003C76.6855 49.1197 76.7219 49.142 76.755 49.1673C76.7886 49.1922 76.8156 49.2214 76.8358 49.255C76.8565 49.2886 76.8669 49.328 76.8669 49.3731C76.8669 49.4297 76.8524 49.4787 76.8234 49.5201C76.7948 49.5611 76.755 49.5929 76.7039 49.6154C76.6528 49.6375 76.5932 49.6486 76.5251 49.6486C76.4519 49.6486 76.3895 49.6378 76.338 49.6161C76.2864 49.5945 76.2473 49.5636 76.2206 49.5236C76.1939 49.4831 76.1805 49.4348 76.1805 49.3786C76.1805 49.3321 76.1897 49.2918 76.2081 49.2578C76.2266 49.2237 76.2512 49.1942 76.282 49.1694C76.3133 49.1445 76.3476 49.1236 76.3849 49.1065C76.3531 49.0877 76.3241 49.0665 76.2979 49.043C76.2717 49.0191 76.2507 48.9917 76.2351 48.9608C76.2199 48.9295 76.2123 48.8934 76.2123 48.8524C76.2123 48.8 76.2263 48.756 76.2544 48.7205C76.2825 48.6846 76.32 48.6575 76.367 48.6391C76.4144 48.6207 76.4666 48.6114 76.5237 48.6114ZM76.3352 49.3724C76.3352 49.4166 76.3508 49.4529 76.3821 49.4815C76.4135 49.51 76.4602 49.5243 76.5223 49.5243C76.584 49.5243 76.631 49.5102 76.6632 49.4822C76.6954 49.4541 76.7115 49.417 76.7115 49.371C76.7115 49.3415 76.7032 49.3155 76.6867 49.293C76.6705 49.2704 76.6487 49.2504 76.6211 49.2329C76.5939 49.2149 76.5637 49.1984 76.5306 49.1832L76.5085 49.1742C76.4726 49.1894 76.4418 49.2067 76.416 49.226C76.3902 49.2449 76.3702 49.2663 76.3559 49.2902C76.3421 49.3141 76.3352 49.3415 76.3352 49.3724ZM76.5223 48.7364C76.4777 48.7364 76.4408 48.7475 76.4118 48.7696C76.3833 48.7912 76.369 48.8225 76.369 48.8635C76.369 48.8925 76.3759 48.9173 76.3897 48.9381C76.404 48.9588 76.4231 48.9767 76.4471 48.9919C76.471 49.0066 76.4975 49.0205 76.5265 49.0333C76.5545 49.0209 76.5799 49.0073 76.6024 48.9926C76.6254 48.9774 76.6436 48.9595 76.657 48.9387C76.6708 48.9176 76.6777 48.8922 76.6777 48.8628C76.6777 48.8223 76.6632 48.7912 76.6342 48.7696C76.6056 48.7475 76.5684 48.7364 76.5223 48.7364ZM77.7351 49.1293C77.7351 49.2108 77.7286 49.2838 77.7157 49.3482C77.7033 49.4122 77.6835 49.4665 77.6563 49.5112C77.6292 49.5558 77.5937 49.5899 77.55 49.6134C77.5063 49.6368 77.4533 49.6486 77.3912 49.6486C77.3134 49.6486 77.2492 49.6281 77.1985 49.5871C77.1479 49.5457 77.1104 49.4863 77.086 49.409C77.0616 49.3312 77.0494 49.238 77.0494 49.1293C77.0494 49.0207 77.0604 48.9277 77.0825 48.8504C77.1051 48.7726 77.1415 48.7129 77.1916 48.6715C77.2418 48.6301 77.3083 48.6094 77.3912 48.6094C77.4695 48.6094 77.5339 48.6301 77.5845 48.6715C77.6356 48.7125 77.6734 48.7719 77.6978 48.8497C77.7226 48.927 77.7351 49.0202 77.7351 49.1293ZM77.213 49.1293C77.213 49.2145 77.2186 49.2856 77.2296 49.3427C77.2411 49.3998 77.26 49.4426 77.2862 49.4711C77.3125 49.4992 77.3475 49.5132 77.3912 49.5132C77.4349 49.5132 77.4699 49.4992 77.4962 49.4711C77.5224 49.443 77.5413 49.4005 77.5528 49.3434C77.5647 49.2863 77.5707 49.2149 77.5707 49.1293C77.5707 49.0446 77.565 48.9737 77.5535 48.9166C77.542 48.8596 77.5231 48.8168 77.4968 48.7882C77.4706 48.7592 77.4354 48.7447 77.3912 48.7447C77.347 48.7447 77.3118 48.7592 77.2856 48.7882C77.2598 48.8168 77.2411 48.8596 77.2296 48.9166C77.2186 48.9737 77.213 49.0446 77.213 49.1293ZM78.6033 49.1293C78.6033 49.2108 78.5968 49.2838 78.5839 49.3482C78.5715 49.4122 78.5517 49.4665 78.5245 49.5112C78.4974 49.5558 78.4619 49.5899 78.4182 49.6134C78.3745 49.6368 78.3215 49.6486 78.2594 49.6486C78.1816 49.6486 78.1174 49.6281 78.0667 49.5871C78.0161 49.5457 77.9786 49.4863 77.9542 49.409C77.9298 49.3312 77.9176 49.238 77.9176 49.1293C77.9176 49.0207 77.9286 48.9277 77.9507 48.8504C77.9733 48.7726 78.0097 48.7129 78.0598 48.6715C78.11 48.6301 78.1765 48.6094 78.2594 48.6094C78.3376 48.6094 78.4021 48.6301 78.4527 48.6715C78.5038 48.7125 78.5416 48.7719 78.566 48.8497C78.5908 48.927 78.6033 49.0202 78.6033 49.1293ZM78.0812 49.1293C78.0812 49.2145 78.0868 49.2856 78.0978 49.3427C78.1093 49.3998 78.1282 49.4426 78.1544 49.4711C78.1807 49.4992 78.2157 49.5132 78.2594 49.5132C78.3031 49.5132 78.3381 49.4992 78.3643 49.4711C78.3906 49.443 78.4095 49.4005 78.421 49.3434C78.4329 49.2863 78.4389 49.2149 78.4389 49.1293C78.4389 49.0446 78.4332 48.9737 78.4217 48.9166C78.4101 48.8596 78.3913 48.8168 78.365 48.7882C78.3388 48.7592 78.3036 48.7447 78.2594 48.7447C78.2152 48.7447 78.18 48.7592 78.1537 48.7882C78.128 48.8168 78.1093 48.8596 78.0978 48.9166C78.0868 48.9737 78.0812 49.0446 78.0812 49.1293Z" fill="#212121"/>
<defs>
<filter id="filter0_d_6358_53459" x="31.5617" y="23.9478" width="8.72222" height="6.79448" filterUnits="userSpaceOnUse" color-interpolation-filters="sRGB">
<feFlood flood-opacity="0" result="BackgroundImageFix"/>
<feColorMatrix in="SourceAlpha" type="matrix" values="0 0 0 0 0 0 0 0 0 0 0 0 0 0 0 0 0 0 127 0" result="hardAlpha"/>
<feOffset dy="0.23569"/>
<feGaussianBlur stdDeviation="0.942761"/>
<feColorMatrix type="matrix" values="0 0 0 0 0.293333 0 0 0 0 0.333211 0 0 0 0 0.431373 0 0 0 0.2 0"/>
<feBlend mode="normal" in2="BackgroundImageFix" result="effect1_dropShadow_6358_53459"/>
<feBlend mode="normal" in="SourceGraphic" in2="effect1_dropShadow_6358_53459" result="shape"/>
</filter>
<filter id="filter1_d_6358_53459" x="33.9192" y="34.7896" width="8.72026" height="6.79643" filterUnits="userSpaceOnUse" color-interpolation-filters="sRGB">
<feFlood flood-opacity="0" result="BackgroundImageFix"/>
<feColorMatrix in="SourceAlpha" type="matrix" values="0 0 0 0 0 0 0 0 0 0 0 0 0 0 0 0 0 0 127 0" result="hardAlpha"/>
<feOffset dy="0.23569"/>
<feGaussianBlur stdDeviation="0.942761"/>
<feColorMatrix type="matrix" values="0 0 0 0 0.293333 0 0 0 0 0.333211 0 0 0 0 0.431373 0 0 0 0.2 0"/>
<feBlend mode="normal" in2="BackgroundImageFix" result="effect1_dropShadow_6358_53459"/>
<feBlend mode="normal" in="SourceGraphic" in2="effect1_dropShadow_6358_53459" result="shape"/>
</filter>
<filter id="filter2_d_6358_53459" x="24.0207" y="40.6822" width="8.72026" height="6.79448" filterUnits="userSpaceOnUse" color-interpolation-filters="sRGB">
<feFlood flood-opacity="0" result="BackgroundImageFix"/>
<feColorMatrix in="SourceAlpha" type="matrix" values="0 0 0 0 0 0 0 0 0 0 0 0 0 0 0 0 0 0 127 0" result="hardAlpha"/>
<feOffset dy="0.23569"/>
<feGaussianBlur stdDeviation="0.942761"/>
<feColorMatrix type="matrix" values="0 0 0 0 0.293333 0 0 0 0 0.333211 0 0 0 0 0.431373 0 0 0 0.2 0"/>
<feBlend mode="normal" in2="BackgroundImageFix" result="effect1_dropShadow_6358_53459"/>
<feBlend mode="normal" in="SourceGraphic" in2="effect1_dropShadow_6358_53459" result="shape"/>
</filter>
<filter id="filter3_d_6358_53459" x="26.1399" y="54.5884" width="8.72222" height="6.79448" filterUnits="userSpaceOnUse" color-interpolation-filters="sRGB">
<feFlood flood-opacity="0" result="BackgroundImageFix"/>
<feColorMatrix in="SourceAlpha" type="matrix" values="0 0 0 0 0 0 0 0 0 0 0 0 0 0 0 0 0 0 127 0" result="hardAlpha"/>
<feOffset dy="0.23569"/>
<feGaussianBlur stdDeviation="0.942761"/>
<feColorMatrix type="matrix" values="0 0 0 0 0.293333 0 0 0 0 0.333211 0 0 0 0 0.431373 0 0 0 0.2 0"/>
<feBlend mode="normal" in2="BackgroundImageFix" result="effect1_dropShadow_6358_53459"/>
<feBlend mode="normal" in="SourceGraphic" in2="effect1_dropShadow_6358_53459" result="shape"/>
</filter>
<filter id="filter4_d_6358_53459" x="39.5754" y="40.9166" width="8.72026" height="6.79448" filterUnits="userSpaceOnUse" color-interpolation-filters="sRGB">
<feFlood flood-opacity="0" result="BackgroundImageFix"/>
<feColorMatrix in="SourceAlpha" type="matrix" values="0 0 0 0 0 0 0 0 0 0 0 0 0 0 0 0 0 0 127 0" result="hardAlpha"/>
<feOffset dy="0.23569"/>
<feGaussianBlur stdDeviation="0.942761"/>
<feColorMatrix type="matrix" values="0 0 0 0 0.293333 0 0 0 0 0.333211 0 0 0 0 0.431373 0 0 0 0.2 0"/>
<feBlend mode="normal" in2="BackgroundImageFix" result="effect1_dropShadow_6358_53459"/>
<feBlend mode="normal" in="SourceGraphic" in2="effect1_dropShadow_6358_53459" result="shape"/>
</filter>
<filter id="filter5_d_6358_53459" x="41.9309" y="54.5884" width="8.72026" height="6.79448" filterUnits="userSpaceOnUse" color-interpolation-filters="sRGB">
<feFlood flood-opacity="0" result="BackgroundImageFix"/>
<feColorMatrix in="SourceAlpha" type="matrix" values="0 0 0 0 0 0 0 0 0 0 0 0 0 0 0 0 0 0 127 0" result="hardAlpha"/>
<feOffset dy="0.23569"/>
<feGaussianBlur stdDeviation="0.942761"/>
<feColorMatrix type="matrix" values="0 0 0 0 0.293333 0 0 0 0 0.333211 0 0 0 0 0.431373 0 0 0 0.2 0"/>
<feBlend mode="normal" in2="BackgroundImageFix" result="effect1_dropShadow_6358_53459"/>
<feBlend mode="normal" in="SourceGraphic" in2="effect1_dropShadow_6358_53459" result="shape"/>
</filter>
<filter id="filter6_d_6358_53459" x="47.3528" y="31.7252" width="8.72026" height="6.79448" filterUnits="userSpaceOnUse" color-interpolation-filters="sRGB">
<feFlood flood-opacity="0" result="BackgroundImageFix"/>
<feColorMatrix in="SourceAlpha" type="matrix" values="0 0 0 0 0 0 0 0 0 0 0 0 0 0 0 0 0 0 127 0" result="hardAlpha"/>
<feOffset dy="0.23569"/>
<feGaussianBlur stdDeviation="0.942761"/>
<feColorMatrix type="matrix" values="0 0 0 0 0.293333 0 0 0 0 0.333211 0 0 0 0 0.431373 0 0 0 0.2 0"/>
<feBlend mode="normal" in2="BackgroundImageFix" result="effect1_dropShadow_6358_53459"/>
<feBlend mode="normal" in="SourceGraphic" in2="effect1_dropShadow_6358_53459" result="shape"/>
</filter>
<filter id="filter7_d_6358_53459" x="49.7102" y="43.0396" width="8.72222" height="6.79448" filterUnits="userSpaceOnUse" color-interpolation-filters="sRGB">
<feFlood flood-opacity="0" result="BackgroundImageFix"/>
<feColorMatrix in="SourceAlpha" type="matrix" values="0 0 0 0 0 0 0 0 0 0 0 0 0 0 0 0 0 0 127 0" result="hardAlpha"/>
<feOffset dy="0.23569"/>
<feGaussianBlur stdDeviation="0.942761"/>
<feColorMatrix type="matrix" values="0 0 0 0 0.293333 0 0 0 0 0.333211 0 0 0 0 0.431373 0 0 0 0.2 0"/>
<feBlend mode="normal" in2="BackgroundImageFix" result="effect1_dropShadow_6358_53459"/>
<feBlend mode="normal" in="SourceGraphic" in2="effect1_dropShadow_6358_53459" result="shape"/>
</filter>
<filter id="filter8_d_6358_53459" x="54.8957" y="40.6822" width="8.72026" height="6.79448" filterUnits="userSpaceOnUse" color-interpolation-filters="sRGB">
<feFlood flood-opacity="0" result="BackgroundImageFix"/>
<feColorMatrix in="SourceAlpha" type="matrix" values="0 0 0 0 0 0 0 0 0 0 0 0 0 0 0 0 0 0 127 0" result="hardAlpha"/>
<feOffset dy="0.23569"/>
<feGaussianBlur stdDeviation="0.942761"/>
<feColorMatrix type="matrix" values="0 0 0 0 0.293333 0 0 0 0 0.333211 0 0 0 0 0.431373 0 0 0 0.2 0"/>
<feBlend mode="normal" in2="BackgroundImageFix" result="effect1_dropShadow_6358_53459"/>
<feBlend mode="normal" in="SourceGraphic" in2="effect1_dropShadow_6358_53459" result="shape"/>
</filter>
<filter id="filter9_d_6358_53459" x="57.2531" y="54.5884" width="8.72222" height="6.79448" filterUnits="userSpaceOnUse" color-interpolation-filters="sRGB">
<feFlood flood-opacity="0" result="BackgroundImageFix"/>
<feColorMatrix in="SourceAlpha" type="matrix" values="0 0 0 0 0 0 0 0 0 0 0 0 0 0 0 0 0 0 127 0" result="hardAlpha"/>
<feOffset dy="0.23569"/>
<feGaussianBlur stdDeviation="0.942761"/>
<feColorMatrix type="matrix" values="0 0 0 0 0.293333 0 0 0 0 0.333211 0 0 0 0 0.431373 0 0 0 0.2 0"/>
<feBlend mode="normal" in2="BackgroundImageFix" result="effect1_dropShadow_6358_53459"/>
<feBlend mode="normal" in="SourceGraphic" in2="effect1_dropShadow_6358_53459" result="shape"/>
</filter>
<filter id="filter10_d_6358_53459" x="62.9074" y="55.5299" width="8.72026" height="6.79448" filterUnits="userSpaceOnUse" color-interpolation-filters="sRGB">
<feFlood flood-opacity="0" result="BackgroundImageFix"/>
<feColorMatrix in="SourceAlpha" type="matrix" values="0 0 0 0 0 0 0 0 0 0 0 0 0 0 0 0 0 0 127 0" result="hardAlpha"/>
<feOffset dy="0.23569"/>
<feGaussianBlur stdDeviation="0.942761"/>
<feColorMatrix type="matrix" values="0 0 0 0 0.293333 0 0 0 0 0.333211 0 0 0 0 0.431373 0 0 0 0.2 0"/>
<feBlend mode="normal" in2="BackgroundImageFix" result="effect1_dropShadow_6358_53459"/>
<feBlend mode="normal" in="SourceGraphic" in2="effect1_dropShadow_6358_53459" result="shape"/>
</filter>
<filter id="filter11_d_6358_53459" x="65.0285" y="60.9517" width="8.72026" height="6.79448" filterUnits="userSpaceOnUse" color-interpolation-filters="sRGB">
<feFlood flood-opacity="0" result="BackgroundImageFix"/>
<feColorMatrix in="SourceAlpha" type="matrix" values="0 0 0 0 0 0 0 0 0 0 0 0 0 0 0 0 0 0 127 0" result="hardAlpha"/>
<feOffset dy="0.23569"/>
<feGaussianBlur stdDeviation="0.942761"/>
<feColorMatrix type="matrix" values="0 0 0 0 0.293333 0 0 0 0 0.333211 0 0 0 0 0.431373 0 0 0 0.2 0"/>
<feBlend mode="normal" in2="BackgroundImageFix" result="effect1_dropShadow_6358_53459"/>
<feBlend mode="normal" in="SourceGraphic" in2="effect1_dropShadow_6358_53459" result="shape"/>
</filter>
<filter id="filter12_d_6358_53459" x="70.4504" y="37.8541" width="8.72026" height="6.79448" filterUnits="userSpaceOnUse" color-interpolation-filters="sRGB">
<feFlood flood-opacity="0" result="BackgroundImageFix"/>
<feColorMatrix in="SourceAlpha" type="matrix" values="0 0 0 0 0 0 0 0 0 0 0 0 0 0 0 0 0 0 127 0" result="hardAlpha"/>
<feOffset dy="0.23569"/>
<feGaussianBlur stdDeviation="0.942761"/>
<feColorMatrix type="matrix" values="0 0 0 0 0.293333 0 0 0 0 0.333211 0 0 0 0 0.431373 0 0 0 0.2 0"/>
<feBlend mode="normal" in2="BackgroundImageFix" result="effect1_dropShadow_6358_53459"/>
<feBlend mode="normal" in="SourceGraphic" in2="effect1_dropShadow_6358_53459" result="shape"/>
</filter>
<filter id="filter13_d_6358_53459" x="72.8078" y="45.8677" width="8.72222" height="6.79448" filterUnits="userSpaceOnUse" color-interpolation-filters="sRGB">
<feFlood flood-opacity="0" result="BackgroundImageFix"/>
<feColorMatrix in="SourceAlpha" type="matrix" values="0 0 0 0 0 0 0 0 0 0 0 0 0 0 0 0 0 0 127 0" result="hardAlpha"/>
<feOffset dy="0.23569"/>
<feGaussianBlur stdDeviation="0.942761"/>
<feColorMatrix type="matrix" values="0 0 0 0 0.293333 0 0 0 0 0.333211 0 0 0 0 0.431373 0 0 0 0.2 0"/>
<feBlend mode="normal" in2="BackgroundImageFix" result="effect1_dropShadow_6358_53459"/>
<feBlend mode="normal" in="SourceGraphic" in2="effect1_dropShadow_6358_53459" result="shape"/>
</filter>
</defs>
</svg>
