<svg width="92" height="92" viewBox="0 0 92 92" fill="none" xmlns="http://www.w3.org/2000/svg">
<rect x="0.389831" y="0.389831" width="91.079" height="91.2203" rx="17.5424" stroke="#BEBEBE" stroke-width="0.779661"/>
<line x1="17.1898" y1="22.125" x2="17.1898" y2="66.3819" stroke="#3347E6" stroke-width="0.12573"/>
<line x1="26.2426" y1="22.1879" x2="26.2426" y2="66.319" stroke="#D3D6DF" stroke-width="0.12573" stroke-linecap="square" stroke-dasharray="0.25 0.25"/>
<line x1="35.2953" y1="22.1879" x2="35.2953" y2="66.319" stroke="#D3D6DF" stroke-width="0.12573" stroke-linecap="square" stroke-dasharray="0.25 0.25"/>
<line x1="44.347" y1="22.1879" x2="44.347" y2="66.319" stroke="#D3D6DF" stroke-width="0.12573" stroke-linecap="square" stroke-dasharray="0.25 0.25"/>
<line x1="53.3998" y1="22.1879" x2="53.3998" y2="66.319" stroke="#D3D6DF" stroke-width="0.12573" stroke-linecap="square" stroke-dasharray="0.25 0.25"/>
<line x1="62.4525" y1="22.1879" x2="62.4525" y2="66.319" stroke="#D3D6DF" stroke-width="0.12573" stroke-linecap="square" stroke-dasharray="0.25 0.25"/>
<line x1="71.5052" y1="22.1879" x2="71.5052" y2="66.319" stroke="#D3D6DF" stroke-width="0.12573" stroke-linecap="square" stroke-dasharray="0.25 0.25"/>
<line x1="80.558" y1="22.1879" x2="80.558" y2="66.319" stroke="#D3D6DF" stroke-width="0.12573" stroke-linecap="square" stroke-dasharray="0.25 0.25"/>
<line x1="17.4408" y1="23.3199" x2="80.4314" y2="23.3199" stroke="#D3D6DF" stroke-width="0.12573" stroke-linecap="square" stroke-dasharray="0.25 0.25"/>
<line x1="17.4408" y1="26.0856" x2="80.4314" y2="26.0856" stroke="#D3D6DF" stroke-width="0.12573" stroke-linecap="square" stroke-dasharray="0.25 0.25"/>
<line x1="17.4408" y1="28.8551" x2="80.4314" y2="28.8551" stroke="#D3D6DF" stroke-width="0.12573" stroke-linecap="square" stroke-dasharray="0.25 0.25"/>
<line x1="17.4408" y1="31.6207" x2="80.4314" y2="31.6207" stroke="#D3D6DF" stroke-width="0.12573" stroke-linecap="square" stroke-dasharray="0.25 0.25"/>
<line x1="17.4408" y1="34.3824" x2="80.4314" y2="34.3824" stroke="#D3D6DF" stroke-width="0.12573" stroke-linecap="square" stroke-dasharray="0.25 0.25"/>
<line x1="17.4408" y1="37.1481" x2="80.4314" y2="37.1481" stroke="#D3D6DF" stroke-width="0.12573" stroke-linecap="square" stroke-dasharray="0.25 0.25"/>
<line x1="17.4408" y1="39.9137" x2="80.4314" y2="39.9137" stroke="#D3D6DF" stroke-width="0.12573" stroke-linecap="square" stroke-dasharray="0.25 0.25"/>
<line x1="17.4408" y1="42.6832" x2="80.4314" y2="42.6832" stroke="#D3D6DF" stroke-width="0.12573" stroke-linecap="square" stroke-dasharray="0.25 0.25"/>
<line x1="17.4408" y1="45.4489" x2="80.4314" y2="45.4489" stroke="#D3D6DF" stroke-width="0.12573" stroke-linecap="square" stroke-dasharray="0.25 0.25"/>
<line x1="17.4408" y1="48.2145" x2="80.4314" y2="48.2145" stroke="#D3D6DF" stroke-width="0.12573" stroke-linecap="square" stroke-dasharray="0.25 0.25"/>
<line x1="17.4408" y1="50.9801" x2="80.4314" y2="50.9801" stroke="#D3D6DF" stroke-width="0.12573" stroke-linecap="square" stroke-dasharray="0.25 0.25"/>
<line x1="17.4408" y1="53.7457" x2="80.4314" y2="53.7457" stroke="#D3D6DF" stroke-width="0.12573" stroke-linecap="square" stroke-dasharray="0.25 0.25"/>
<line x1="17.4408" y1="56.5153" x2="80.4314" y2="56.5153" stroke="#D3D6DF" stroke-width="0.12573" stroke-linecap="square" stroke-dasharray="0.25 0.25"/>
<line x1="17.4408" y1="59.2809" x2="80.4314" y2="59.2809" stroke="#D3D6DF" stroke-width="0.12573" stroke-linecap="square" stroke-dasharray="0.25 0.25"/>
<line x1="17.4408" y1="62.0465" x2="80.4314" y2="62.0465" stroke="#D3D6DF" stroke-width="0.12573" stroke-linecap="square" stroke-dasharray="0.25 0.25"/>
<line x1="17.4408" y1="64.8121" x2="80.4314" y2="64.8121" stroke="#D3D6DF" stroke-width="0.12573" stroke-linecap="square" stroke-dasharray="0.25 0.25"/>
<path d="M17.5585 68.772C17.5585 68.8718 17.5507 68.961 17.5349 69.0394C17.5196 69.1178 17.4948 69.1844 17.4604 69.2391C17.4265 69.2939 17.382 69.3356 17.3267 69.3644C17.2714 69.3932 17.2042 69.4076 17.1252 69.4076C17.0259 69.4076 16.9444 69.3824 16.8807 69.3322C16.8169 69.2815 16.7698 69.2087 16.7393 69.1139C16.7089 69.0185 16.6936 68.9046 16.6936 68.772C16.6936 68.6383 16.7074 68.524 16.7351 68.4292C16.7633 68.3339 16.809 68.2608 16.8722 68.21C16.9354 68.1592 17.0197 68.1339 17.1252 68.1339C17.224 68.1339 17.3052 68.1592 17.369 68.21C17.4333 68.2602 17.481 68.333 17.512 68.4284C17.543 68.5232 17.5585 68.6377 17.5585 68.772ZM16.9534 68.772C16.9534 68.8662 16.9585 68.9449 16.9687 69.0081C16.9794 69.0707 16.9972 69.1178 17.022 69.1494C17.0468 69.181 17.0812 69.1968 17.1252 69.1968C17.1687 69.1968 17.2028 69.1813 17.2276 69.1503C17.253 69.1187 17.2711 69.0716 17.2818 69.0089C17.2925 68.9457 17.2979 68.8668 17.2979 68.772C17.2979 68.6778 17.2925 68.599 17.2818 68.5359C17.2711 68.4727 17.253 68.4253 17.2276 68.3937C17.2028 68.3615 17.1687 68.3454 17.1252 68.3454C17.0812 68.3454 17.0468 68.3615 17.022 68.3937C16.9972 68.4253 16.9794 68.4727 16.9687 68.5359C16.9585 68.599 16.9534 68.6778 16.9534 68.772Z" fill="#222539"/>
<path d="M26.7697 69.3906H26.5082V68.6746C26.5082 68.6549 26.5085 68.6306 26.509 68.6019C26.5096 68.5725 26.5104 68.5426 26.5116 68.5122C26.5127 68.4811 26.5138 68.4532 26.5149 68.4284C26.5087 68.4357 26.496 68.4484 26.4769 68.4665C26.4582 68.4839 26.4408 68.4997 26.4244 68.5138L26.2822 68.6281L26.1561 68.4707L26.5547 68.1533H26.7697V69.3906Z" fill="#222539"/>
<path d="M35.9089 69.3906H35.044V69.2087L35.3546 68.8947C35.4172 68.8304 35.4674 68.7768 35.5052 68.7339C35.5436 68.6904 35.5713 68.651 35.5882 68.6154C35.6057 68.5799 35.6144 68.5418 35.6144 68.5012C35.6144 68.4521 35.6006 68.4154 35.5729 68.3911C35.5459 68.3663 35.5095 68.3539 35.4638 68.3539C35.4158 68.3539 35.3693 68.3649 35.3241 68.3869C35.279 68.4089 35.2319 68.4402 35.1828 68.4808L35.0406 68.3124C35.0762 68.282 35.1137 68.2532 35.1532 68.2261C35.1932 68.199 35.2395 68.1773 35.292 68.1609C35.345 68.144 35.4085 68.1355 35.4824 68.1355C35.5636 68.1355 35.6333 68.1502 35.6914 68.1796C35.7501 68.2089 35.7952 68.249 35.8268 68.2997C35.8584 68.3499 35.8742 68.4069 35.8742 68.4707C35.8742 68.539 35.8607 68.6013 35.8336 68.6577C35.8065 68.7141 35.767 68.77 35.7151 68.8253C35.6638 68.8806 35.6017 68.9418 35.5289 69.0089L35.3698 69.1587V69.1706H35.9089V69.3906Z" fill="#222539"/>
<path d="M44.7816 68.4301C44.7816 68.487 44.7697 68.5364 44.746 68.5782C44.7224 68.6199 44.6902 68.6541 44.6496 68.6806C44.6095 68.7071 44.5644 68.7266 44.5142 68.739V68.744C44.6135 68.7565 44.6888 68.7869 44.7401 68.8354C44.792 68.884 44.818 68.9489 44.818 69.0301C44.818 69.1023 44.8002 69.1669 44.7647 69.2239C44.7297 69.2809 44.6755 69.3257 44.6022 69.3585C44.5288 69.3912 44.4343 69.4076 44.3187 69.4076C44.2504 69.4076 44.1866 69.4019 44.1274 69.3906C44.0687 69.3799 44.0134 69.3633 43.9615 69.3407V69.1181C44.0146 69.1452 44.0701 69.1658 44.1282 69.1799C44.1864 69.1934 44.2405 69.2002 44.2907 69.2002C44.3844 69.2002 44.4498 69.1841 44.4871 69.152C44.5249 69.1192 44.5438 69.0735 44.5438 69.0149C44.5438 68.9804 44.535 68.9514 44.5175 68.9277C44.5001 68.904 44.4696 68.8859 44.4261 68.8735C44.3833 68.8611 44.3232 68.8549 44.2459 68.8549H44.1519V68.6543H44.2476C44.3237 68.6543 44.3816 68.6473 44.4211 68.6332C44.4611 68.6185 44.4882 68.5988 44.5023 68.5739C44.517 68.5485 44.5243 68.5198 44.5243 68.4876C44.5243 68.4436 44.5108 68.4092 44.4837 68.3844C44.4566 68.3595 44.4115 68.3471 44.3483 68.3471C44.3088 68.3471 44.2727 68.3522 44.24 68.3624C44.2078 68.372 44.1787 68.3838 44.1528 68.3979C44.1268 68.4114 44.104 68.4247 44.0842 68.4377L43.9632 68.2574C44.0117 68.2224 44.0684 68.1934 44.1333 68.1702C44.1988 68.1471 44.2766 68.1355 44.3669 68.1355C44.4944 68.1355 44.5954 68.1612 44.6699 68.2126C44.7444 68.2639 44.7816 68.3364 44.7816 68.4301Z" fill="#222539"/>
<path d="M53.7787 69.1342H53.6297V69.3906H53.3741V69.1342H52.846V68.9522L53.3885 68.1533H53.6297V68.9311H53.7787V69.1342ZM53.3741 68.9311V68.7212C53.3741 68.7014 53.3744 68.678 53.375 68.651C53.3761 68.6239 53.3772 68.5968 53.3784 68.5697C53.3795 68.5426 53.3806 68.5186 53.3817 68.4978C53.3834 68.4763 53.3846 68.4614 53.3851 68.4529H53.3784C53.3676 68.476 53.3564 68.4986 53.3445 68.5206C53.3327 68.5421 53.3188 68.5646 53.303 68.5883L53.0762 68.9311H53.3741Z" fill="#222539"/>
<path d="M62.2569 68.6002C62.3325 68.6002 62.3997 68.6146 62.4584 68.6433C62.5176 68.6721 62.5641 68.7144 62.598 68.7703C62.6319 68.8261 62.6488 68.895 62.6488 68.9768C62.6488 69.0659 62.6302 69.1429 62.5929 69.2078C62.5562 69.2721 62.5012 69.3215 62.4279 69.3559C62.3551 69.3903 62.2643 69.4076 62.1554 69.4076C62.0905 69.4076 62.0293 69.4019 61.9717 69.3906C61.9147 69.3799 61.8648 69.3633 61.8219 69.3407V69.1147C61.8648 69.1373 61.9162 69.1565 61.976 69.1723C62.0363 69.1875 62.093 69.1951 62.1461 69.1951C62.198 69.1951 62.2417 69.1884 62.2772 69.1748C62.3128 69.1607 62.3396 69.1393 62.3576 69.1105C62.3763 69.0812 62.3856 69.0439 62.3856 68.9988C62.3856 68.9384 62.3653 68.8921 62.3246 68.86C62.284 68.8278 62.2217 68.8117 62.1376 68.8117C62.1054 68.8117 62.0719 68.8149 62.0369 68.8211C62.0025 68.8273 61.9737 68.8335 61.9506 68.8397L61.8465 68.7838L61.893 68.1533H62.5641V68.3751H62.1224L62.0995 68.6179C62.1187 68.614 62.1396 68.61 62.1622 68.6061C62.1847 68.6021 62.2163 68.6002 62.2569 68.6002Z" fill="#222539"/>
<path d="M70.7191 68.8651C70.7191 68.794 70.7242 68.7237 70.7344 68.6543C70.7451 68.5844 70.7634 68.5186 70.7894 68.4571C70.8153 68.3951 70.8517 68.3404 70.8986 68.293C70.9454 68.245 71.0049 68.2075 71.0771 68.1804C71.1493 68.1528 71.2368 68.1389 71.3395 68.1389C71.3637 68.1389 71.392 68.1401 71.4241 68.1423C71.4568 68.144 71.4839 68.1471 71.5054 68.1516V68.3607C71.4828 68.3556 71.4585 68.3516 71.4326 68.3488C71.4072 68.3454 71.3818 68.3437 71.3564 68.3437C71.2537 68.3437 71.1742 68.3601 71.1177 68.3928C71.0619 68.4256 71.0224 68.471 70.9993 68.5291C70.9767 68.5866 70.9634 68.6538 70.9595 68.7305H70.9705C70.9863 68.7029 71.006 68.6783 71.0297 68.6569C71.054 68.6354 71.0833 68.6185 71.1177 68.6061C71.1522 68.5931 71.1925 68.5866 71.2388 68.5866C71.311 68.5866 71.3736 68.6021 71.4267 68.6332C71.4797 68.6636 71.5206 68.7079 71.5494 68.766C71.5781 68.8242 71.5925 68.895 71.5925 68.9785C71.5925 69.0676 71.5753 69.1443 71.5409 69.2087C71.5065 69.273 71.4577 69.3224 71.3945 69.3568C71.3319 69.3906 71.2574 69.4076 71.1711 69.4076C71.1079 69.4076 71.0489 69.3968 70.9942 69.3754C70.9395 69.3534 70.8915 69.3201 70.8503 69.2755C70.8091 69.231 70.777 69.1748 70.7538 69.1071C70.7307 69.0388 70.7191 68.9582 70.7191 68.8651ZM71.166 69.1985C71.2173 69.1985 71.2591 69.181 71.2912 69.146C71.3234 69.1111 71.3395 69.0563 71.3395 68.9819C71.3395 68.9215 71.3254 68.8741 71.2972 68.8397C71.2695 68.8047 71.2275 68.7872 71.1711 68.7872C71.1327 68.7872 71.0988 68.796 71.0695 68.8134C71.0407 68.8304 71.0184 68.8521 71.0027 68.8786C70.9869 68.9046 70.979 68.9314 70.979 68.959C70.979 68.9878 70.9829 69.0163 70.9908 69.0445C70.9987 69.0727 71.0105 69.0984 71.0263 69.1215C71.0421 69.1446 71.0616 69.1632 71.0847 69.1774C71.1084 69.1915 71.1355 69.1985 71.166 69.1985Z" fill="#222539"/>
<path d="M79.7712 69.3906L80.2358 68.3734H79.6256V68.1533H80.5134V68.3175L80.0454 69.3906H79.7712Z" fill="#222539"/>
<path d="M11.7485 24H11.487V23.284C11.487 23.2643 11.4873 23.24 11.4878 23.2112C11.4884 23.1819 11.4892 23.152 11.4904 23.1215C11.4915 23.0905 11.4926 23.0626 11.4937 23.0377C11.4875 23.0451 11.4748 23.0578 11.4557 23.0758C11.437 23.0933 11.4195 23.1091 11.4032 23.1232L11.261 23.2375L11.1349 23.0801L11.5335 22.7627H11.7485V24ZM12.544 23.2095C12.6196 23.2095 12.6868 23.2239 12.7454 23.2527C12.8047 23.2815 12.8512 23.3238 12.8851 23.3797C12.9189 23.4355 12.9359 23.5043 12.9359 23.5862C12.9359 23.6753 12.9172 23.7523 12.88 23.8172C12.8433 23.8815 12.7883 23.9309 12.715 23.9653C12.6422 23.9997 12.5513 24.0169 12.4425 24.0169C12.3776 24.0169 12.3164 24.0113 12.2588 24C12.2018 23.9893 12.1519 23.9726 12.109 23.9501V23.7241C12.1519 23.7467 12.2032 23.7659 12.263 23.7817C12.3234 23.7969 12.3801 23.8045 12.4331 23.8045C12.4851 23.8045 12.5288 23.7977 12.5643 23.7842C12.5999 23.7701 12.6267 23.7486 12.6447 23.7199C12.6633 23.6905 12.6727 23.6533 12.6727 23.6082C12.6727 23.5478 12.6523 23.5015 12.6117 23.4694C12.5711 23.4372 12.5087 23.4211 12.4247 23.4211C12.3925 23.4211 12.359 23.4242 12.324 23.4304C12.2896 23.4366 12.2608 23.4428 12.2376 23.4491L12.1336 23.3932L12.1801 22.7627H12.8512V22.9844H12.4094L12.3866 23.2273C12.4058 23.2234 12.4267 23.2194 12.4492 23.2155C12.4718 23.2115 12.5034 23.2095 12.544 23.2095ZM13.9438 23.3813C13.9438 23.4812 13.9359 23.5704 13.9201 23.6488C13.9049 23.7272 13.8801 23.7938 13.8456 23.8485C13.8118 23.9032 13.7672 23.945 13.7119 23.9738C13.6566 24.0025 13.5895 24.0169 13.5105 24.0169C13.4112 24.0169 13.3297 23.9918 13.2659 23.9416C13.2022 23.8908 13.155 23.818 13.1246 23.7233C13.0941 23.6279 13.0789 23.5139 13.0789 23.3813C13.0789 23.2476 13.0927 23.1334 13.1203 23.0386C13.1486 22.9432 13.1943 22.8702 13.2574 22.8194C13.3206 22.7686 13.405 22.7432 13.5105 22.7432C13.6092 22.7432 13.6905 22.7686 13.7542 22.8194C13.8186 22.8696 13.8662 22.9424 13.8973 23.0377C13.9283 23.1325 13.9438 23.2471 13.9438 23.3813ZM13.3387 23.3813C13.3387 23.4756 13.3438 23.5543 13.3539 23.6175C13.3646 23.6801 13.3824 23.7272 13.4072 23.7588C13.4321 23.7904 13.4665 23.8062 13.5105 23.8062C13.5539 23.8062 13.5881 23.7907 13.6129 23.7596C13.6383 23.7281 13.6563 23.6809 13.6671 23.6183C13.6778 23.5551 13.6831 23.4761 13.6831 23.3813C13.6831 23.2871 13.6778 23.2084 13.6671 23.1452C13.6563 23.082 13.6383 23.0346 13.6129 23.003C13.5881 22.9709 13.5539 22.9548 13.5105 22.9548C13.4665 22.9548 13.4321 22.9709 13.4072 23.003C13.3824 23.0346 13.3646 23.082 13.3539 23.1452C13.3438 23.2084 13.3387 23.2871 13.3387 23.3813ZM14.9357 23.3813C14.9357 23.4812 14.9278 23.5704 14.912 23.6488C14.8968 23.7272 14.8719 23.7938 14.8375 23.8485C14.8037 23.9032 14.7591 23.945 14.7038 23.9738C14.6485 24.0025 14.5814 24.0169 14.5024 24.0169C14.4031 24.0169 14.3215 23.9918 14.2578 23.9416C14.194 23.8908 14.1469 23.818 14.1165 23.7233C14.086 23.6279 14.0708 23.5139 14.0708 23.3813C14.0708 23.2476 14.0846 23.1334 14.1122 23.0386C14.1404 22.9432 14.1861 22.8702 14.2493 22.8194C14.3125 22.7686 14.3969 22.7432 14.5024 22.7432C14.6011 22.7432 14.6824 22.7686 14.7461 22.8194C14.8104 22.8696 14.8581 22.9424 14.8891 23.0377C14.9202 23.1325 14.9357 23.2471 14.9357 23.3813ZM14.3306 23.3813C14.3306 23.4756 14.3356 23.5543 14.3458 23.6175C14.3565 23.6801 14.3743 23.7272 14.3991 23.7588C14.4239 23.7904 14.4584 23.8062 14.5024 23.8062C14.5458 23.8062 14.5799 23.7907 14.6048 23.7596C14.6302 23.7281 14.6482 23.6809 14.6589 23.6183C14.6697 23.5551 14.675 23.4761 14.675 23.3813C14.675 23.2871 14.6697 23.2084 14.6589 23.1452C14.6482 23.082 14.6302 23.0346 14.6048 23.003C14.5799 22.9709 14.5458 22.9548 14.5024 22.9548C14.4584 22.9548 14.4239 22.9709 14.3991 23.003C14.3743 23.0346 14.3565 23.082 14.3458 23.1452C14.3356 23.2084 14.3306 23.2871 14.3306 23.3813ZM11.7485 27H11.487V26.284C11.487 26.2643 11.4873 26.24 11.4878 26.2112C11.4884 26.1819 11.4892 26.152 11.4904 26.1215C11.4915 26.0905 11.4926 26.0626 11.4937 26.0377C11.4875 26.0451 11.4748 26.0578 11.4557 26.0758C11.437 26.0933 11.4195 26.1091 11.4032 26.1232L11.261 26.2375L11.1349 26.0801L11.5335 25.7627H11.7485V27ZM12.9866 26.7436H12.8377V27H12.5821V26.7436H12.054V26.5616L12.5965 25.7627H12.8377V26.5405H12.9866V26.7436ZM12.5821 26.5405V26.3306C12.5821 26.3108 12.5824 26.2874 12.5829 26.2603C12.5841 26.2332 12.5852 26.2062 12.5863 26.1791C12.5875 26.152 12.5886 26.128 12.5897 26.1071C12.5914 26.0857 12.5925 26.0708 12.5931 26.0623H12.5863C12.5756 26.0854 12.5643 26.108 12.5525 26.13C12.5406 26.1514 12.5268 26.174 12.511 26.1977L12.2842 26.5405H12.5821ZM13.9438 26.3813C13.9438 26.4812 13.9359 26.5704 13.9201 26.6488C13.9049 26.7272 13.8801 26.7938 13.8456 26.8485C13.8118 26.9032 13.7672 26.945 13.7119 26.9738C13.6566 27.0025 13.5895 27.0169 13.5105 27.0169C13.4112 27.0169 13.3297 26.9918 13.2659 26.9416C13.2022 26.8908 13.155 26.818 13.1246 26.7233C13.0941 26.6279 13.0789 26.5139 13.0789 26.3813C13.0789 26.2476 13.0927 26.1334 13.1203 26.0386C13.1486 25.9432 13.1943 25.8702 13.2574 25.8194C13.3206 25.7686 13.405 25.7432 13.5105 25.7432C13.6092 25.7432 13.6905 25.7686 13.7542 25.8194C13.8186 25.8696 13.8662 25.9424 13.8973 26.0377C13.9283 26.1325 13.9438 26.2471 13.9438 26.3813ZM13.3387 26.3813C13.3387 26.4756 13.3438 26.5543 13.3539 26.6175C13.3646 26.6801 13.3824 26.7272 13.4072 26.7588C13.4321 26.7904 13.4665 26.8062 13.5105 26.8062C13.5539 26.8062 13.5881 26.7907 13.6129 26.7596C13.6383 26.7281 13.6563 26.6809 13.6671 26.6183C13.6778 26.5551 13.6831 26.4761 13.6831 26.3813C13.6831 26.2871 13.6778 26.2084 13.6671 26.1452C13.6563 26.082 13.6383 26.0346 13.6129 26.003C13.5881 25.9709 13.5539 25.9548 13.5105 25.9548C13.4665 25.9548 13.4321 25.9709 13.4072 26.003C13.3824 26.0346 13.3646 26.082 13.3539 26.1452C13.3438 26.2084 13.3387 26.2871 13.3387 26.3813ZM14.9357 26.3813C14.9357 26.4812 14.9278 26.5704 14.912 26.6488C14.8968 26.7272 14.8719 26.7938 14.8375 26.8485C14.8037 26.9032 14.7591 26.945 14.7038 26.9738C14.6485 27.0025 14.5814 27.0169 14.5024 27.0169C14.4031 27.0169 14.3215 26.9918 14.2578 26.9416C14.194 26.8908 14.1469 26.818 14.1165 26.7233C14.086 26.6279 14.0708 26.5139 14.0708 26.3813C14.0708 26.2476 14.0846 26.1334 14.1122 26.0386C14.1404 25.9432 14.1861 25.8702 14.2493 25.8194C14.3125 25.7686 14.3969 25.7432 14.5024 25.7432C14.6011 25.7432 14.6824 25.7686 14.7461 25.8194C14.8104 25.8696 14.8581 25.9424 14.8891 26.0377C14.9202 26.1325 14.9357 26.2471 14.9357 26.3813ZM14.3306 26.3813C14.3306 26.4756 14.3356 26.5543 14.3458 26.6175C14.3565 26.6801 14.3743 26.7272 14.3991 26.7588C14.4239 26.7904 14.4584 26.8062 14.5024 26.8062C14.5458 26.8062 14.5799 26.7907 14.6048 26.7596C14.6302 26.7281 14.6482 26.6809 14.6589 26.6183C14.6697 26.5551 14.675 26.4761 14.675 26.3813C14.675 26.2871 14.6697 26.2084 14.6589 26.1452C14.6482 26.082 14.6302 26.0346 14.6048 26.003C14.5799 25.9709 14.5458 25.9548 14.5024 25.9548C14.4584 25.9548 14.4239 25.9709 14.3991 26.003C14.3743 26.0346 14.3565 26.082 14.3458 26.1452C14.3356 26.2084 14.3306 26.2871 14.3306 26.3813ZM11.7485 30H11.487V29.284C11.487 29.2643 11.4873 29.24 11.4878 29.2112C11.4884 29.1819 11.4892 29.152 11.4904 29.1215C11.4915 29.0905 11.4926 29.0626 11.4937 29.0377C11.4875 29.0451 11.4748 29.0578 11.4557 29.0758C11.437 29.0933 11.4195 29.1091 11.4032 29.1232L11.261 29.2375L11.1349 29.0801L11.5335 28.7627H11.7485V30ZM12.9105 29.0394C12.9105 29.0964 12.8986 29.1458 12.8749 29.1875C12.8512 29.2293 12.8191 29.2634 12.7784 29.2899C12.7384 29.3165 12.6932 29.3359 12.643 29.3483V29.3534C12.7423 29.3658 12.8177 29.3963 12.869 29.4448C12.9209 29.4933 12.9469 29.5582 12.9469 29.6395C12.9469 29.7117 12.9291 29.7763 12.8935 29.8333C12.8586 29.8903 12.8044 29.9351 12.731 29.9678C12.6577 30.0006 12.5632 30.0169 12.4475 30.0169C12.3793 30.0169 12.3155 30.0113 12.2563 30C12.1976 29.9893 12.1423 29.9726 12.0904 29.9501V29.7275C12.1434 29.7546 12.199 29.7752 12.2571 29.7893C12.3152 29.8028 12.3694 29.8096 12.4196 29.8096C12.5133 29.8096 12.5787 29.7935 12.6159 29.7613C12.6537 29.7286 12.6727 29.6829 12.6727 29.6242C12.6727 29.5898 12.6639 29.5608 12.6464 29.5371C12.6289 29.5134 12.5985 29.4953 12.555 29.4829C12.5121 29.4705 12.452 29.4643 12.3747 29.4643H12.2808V29.2637H12.3764C12.4526 29.2637 12.5104 29.2567 12.5499 29.2426C12.59 29.2279 12.6171 29.2081 12.6312 29.1833C12.6459 29.1579 12.6532 29.1291 12.6532 29.097C12.6532 29.053 12.6396 29.0186 12.6126 28.9937C12.5855 28.9689 12.5403 28.9565 12.4772 28.9565C12.4377 28.9565 12.4015 28.9616 12.3688 28.9717C12.3367 28.9813 12.3076 28.9932 12.2817 29.0073C12.2557 29.0208 12.2329 29.0341 12.2131 29.0471L12.0921 28.8668C12.1406 28.8318 12.1973 28.8028 12.2622 28.7796C12.3276 28.7565 12.4055 28.7449 12.4958 28.7449C12.6233 28.7449 12.7243 28.7706 12.7988 28.8219C12.8732 28.8733 12.9105 28.9458 12.9105 29.0394ZM13.9438 29.3813C13.9438 29.4812 13.9359 29.5704 13.9201 29.6488C13.9049 29.7272 13.8801 29.7938 13.8456 29.8485C13.8118 29.9032 13.7672 29.945 13.7119 29.9738C13.6566 30.0025 13.5895 30.0169 13.5105 30.0169C13.4112 30.0169 13.3297 29.9918 13.2659 29.9416C13.2022 29.8908 13.155 29.818 13.1246 29.7233C13.0941 29.6279 13.0789 29.5139 13.0789 29.3813C13.0789 29.2476 13.0927 29.1334 13.1203 29.0386C13.1486 28.9432 13.1943 28.8702 13.2574 28.8194C13.3206 28.7686 13.405 28.7432 13.5105 28.7432C13.6092 28.7432 13.6905 28.7686 13.7542 28.8194C13.8186 28.8696 13.8662 28.9424 13.8973 29.0377C13.9283 29.1325 13.9438 29.2471 13.9438 29.3813ZM13.3387 29.3813C13.3387 29.4756 13.3438 29.5543 13.3539 29.6175C13.3646 29.6801 13.3824 29.7272 13.4072 29.7588C13.4321 29.7904 13.4665 29.8062 13.5105 29.8062C13.5539 29.8062 13.5881 29.7907 13.6129 29.7596C13.6383 29.7281 13.6563 29.6809 13.6671 29.6183C13.6778 29.5551 13.6831 29.4761 13.6831 29.3813C13.6831 29.2871 13.6778 29.2084 13.6671 29.1452C13.6563 29.082 13.6383 29.0346 13.6129 29.003C13.5881 28.9709 13.5539 28.9548 13.5105 28.9548C13.4665 28.9548 13.4321 28.9709 13.4072 29.003C13.3824 29.0346 13.3646 29.082 13.3539 29.1452C13.3438 29.2084 13.3387 29.2871 13.3387 29.3813ZM14.9357 29.3813C14.9357 29.4812 14.9278 29.5704 14.912 29.6488C14.8968 29.7272 14.8719 29.7938 14.8375 29.8485C14.8037 29.9032 14.7591 29.945 14.7038 29.9738C14.6485 30.0025 14.5814 30.0169 14.5024 30.0169C14.4031 30.0169 14.3215 29.9918 14.2578 29.9416C14.194 29.8908 14.1469 29.818 14.1165 29.7233C14.086 29.6279 14.0708 29.5139 14.0708 29.3813C14.0708 29.2476 14.0846 29.1334 14.1122 29.0386C14.1404 28.9432 14.1861 28.8702 14.2493 28.8194C14.3125 28.7686 14.3969 28.7432 14.5024 28.7432C14.6011 28.7432 14.6824 28.7686 14.7461 28.8194C14.8104 28.8696 14.8581 28.9424 14.8891 29.0377C14.9202 29.1325 14.9357 29.2471 14.9357 29.3813ZM14.3306 29.3813C14.3306 29.4756 14.3356 29.5543 14.3458 29.6175C14.3565 29.6801 14.3743 29.7272 14.3991 29.7588C14.4239 29.7904 14.4584 29.8062 14.5024 29.8062C14.5458 29.8062 14.5799 29.7907 14.6048 29.7596C14.6302 29.7281 14.6482 29.6809 14.6589 29.6183C14.6697 29.5551 14.675 29.4761 14.675 29.3813C14.675 29.2871 14.6697 29.2084 14.6589 29.1452C14.6482 29.082 14.6302 29.0346 14.6048 29.003C14.5799 28.9709 14.5458 28.9548 14.5024 28.9548C14.4584 28.9548 14.4239 28.9709 14.3991 29.003C14.3743 29.0346 14.3565 29.082 14.3458 29.1452C14.3356 29.2084 14.3306 29.2871 14.3306 29.3813ZM11.7485 32H11.487V31.284C11.487 31.2643 11.4873 31.24 11.4878 31.2112C11.4884 31.1819 11.4892 31.152 11.4904 31.1215C11.4915 31.0905 11.4926 31.0626 11.4937 31.0377C11.4875 31.0451 11.4748 31.0578 11.4557 31.0758C11.437 31.0933 11.4195 31.1091 11.4032 31.1232L11.261 31.2375L11.1349 31.0801L11.5335 30.7627H11.7485V32ZM12.9587 32H12.0938V31.818L12.4044 31.5041C12.467 31.4397 12.5172 31.3861 12.555 31.3433C12.5934 31.2998 12.621 31.2603 12.638 31.2248C12.6554 31.1892 12.6642 31.1512 12.6642 31.1105C12.6642 31.0614 12.6504 31.0248 12.6227 31.0005C12.5956 30.9757 12.5592 30.9633 12.5135 30.9633C12.4656 30.9633 12.419 30.9743 12.3739 30.9963C12.3288 31.0183 12.2817 31.0496 12.2326 31.0902L12.0904 30.9218C12.1259 30.8913 12.1635 30.8626 12.2029 30.8355C12.243 30.8084 12.2893 30.7867 12.3417 30.7703C12.3948 30.7534 12.4583 30.7449 12.5322 30.7449C12.6134 30.7449 12.6831 30.7596 12.7412 30.7889C12.7999 30.8183 12.845 30.8583 12.8766 30.9091C12.9082 30.9593 12.924 31.0163 12.924 31.0801C12.924 31.1483 12.9105 31.2107 12.8834 31.2671C12.8563 31.3235 12.8168 31.3794 12.7649 31.4347C12.7136 31.49 12.6515 31.5512 12.5787 31.6183L12.4196 31.7681V31.78H12.9587V32ZM13.9438 31.3813C13.9438 31.4812 13.9359 31.5704 13.9201 31.6488C13.9049 31.7272 13.8801 31.7938 13.8456 31.8485C13.8118 31.9032 13.7672 31.945 13.7119 31.9738C13.6566 32.0025 13.5895 32.0169 13.5105 32.0169C13.4112 32.0169 13.3297 31.9918 13.2659 31.9416C13.2022 31.8908 13.155 31.818 13.1246 31.7233C13.0941 31.6279 13.0789 31.5139 13.0789 31.3813C13.0789 31.2476 13.0927 31.1334 13.1203 31.0386C13.1486 30.9432 13.1943 30.8702 13.2574 30.8194C13.3206 30.7686 13.405 30.7432 13.5105 30.7432C13.6092 30.7432 13.6905 30.7686 13.7542 30.8194C13.8186 30.8696 13.8662 30.9424 13.8973 31.0377C13.9283 31.1325 13.9438 31.2471 13.9438 31.3813ZM13.3387 31.3813C13.3387 31.4756 13.3438 31.5543 13.3539 31.6175C13.3646 31.6801 13.3824 31.7272 13.4072 31.7588C13.4321 31.7904 13.4665 31.8062 13.5105 31.8062C13.5539 31.8062 13.5881 31.7907 13.6129 31.7596C13.6383 31.7281 13.6563 31.6809 13.6671 31.6183C13.6778 31.5551 13.6831 31.4761 13.6831 31.3813C13.6831 31.2871 13.6778 31.2084 13.6671 31.1452C13.6563 31.082 13.6383 31.0346 13.6129 31.003C13.5881 30.9709 13.5539 30.9548 13.5105 30.9548C13.4665 30.9548 13.4321 30.9709 13.4072 31.003C13.3824 31.0346 13.3646 31.082 13.3539 31.1452C13.3438 31.2084 13.3387 31.2871 13.3387 31.3813ZM14.9357 31.3813C14.9357 31.4812 14.9278 31.5704 14.912 31.6488C14.8968 31.7272 14.8719 31.7938 14.8375 31.8485C14.8037 31.9032 14.7591 31.945 14.7038 31.9738C14.6485 32.0025 14.5814 32.0169 14.5024 32.0169C14.4031 32.0169 14.3215 31.9918 14.2578 31.9416C14.194 31.8908 14.1469 31.818 14.1165 31.7233C14.086 31.6279 14.0708 31.5139 14.0708 31.3813C14.0708 31.2476 14.0846 31.1334 14.1122 31.0386C14.1404 30.9432 14.1861 30.8702 14.2493 30.8194C14.3125 30.7686 14.3969 30.7432 14.5024 30.7432C14.6011 30.7432 14.6824 30.7686 14.7461 30.8194C14.8104 30.8696 14.8581 30.9424 14.8891 31.0377C14.9202 31.1325 14.9357 31.2471 14.9357 31.3813ZM14.3306 31.3813C14.3306 31.4756 14.3356 31.5543 14.3458 31.6175C14.3565 31.6801 14.3743 31.7272 14.3991 31.7588C14.4239 31.7904 14.4584 31.8062 14.5024 31.8062C14.5458 31.8062 14.5799 31.7907 14.6048 31.7596C14.6302 31.7281 14.6482 31.6809 14.6589 31.6183C14.6697 31.5551 14.675 31.4761 14.675 31.3813C14.675 31.2871 14.6697 31.2084 14.6589 31.1452C14.6482 31.082 14.6302 31.0346 14.6048 31.003C14.5799 30.9709 14.5458 30.9548 14.5024 30.9548C14.4584 30.9548 14.4239 30.9709 14.3991 31.003C14.3743 31.0346 14.3565 31.082 14.3458 31.1452C14.3356 31.2084 14.3306 31.2871 14.3306 31.3813ZM11.7485 35H11.487V34.284C11.487 34.2643 11.4873 34.24 11.4878 34.2112C11.4884 34.1819 11.4892 34.152 11.4904 34.1215C11.4915 34.0905 11.4926 34.0626 11.4937 34.0377C11.4875 34.0451 11.4748 34.0578 11.4557 34.0758C11.437 34.0933 11.4195 34.1091 11.4032 34.1232L11.261 34.2375L11.1349 34.0801L11.5335 33.7627H11.7485V35ZM12.7404 35H12.4788V34.284C12.4788 34.2643 12.4791 34.24 12.4797 34.2112C12.4803 34.1819 12.4811 34.152 12.4822 34.1215C12.4834 34.0905 12.4845 34.0626 12.4856 34.0377C12.4794 34.0451 12.4667 34.0578 12.4475 34.0758C12.4289 34.0933 12.4114 34.1091 12.3951 34.1232L12.2529 34.2375L12.1268 34.0801L12.5254 33.7627H12.7404V35ZM13.9438 34.3813C13.9438 34.4812 13.9359 34.5704 13.9201 34.6488C13.9049 34.7272 13.8801 34.7938 13.8456 34.8485C13.8118 34.9032 13.7672 34.945 13.7119 34.9738C13.6566 35.0025 13.5895 35.0169 13.5105 35.0169C13.4112 35.0169 13.3297 34.9918 13.2659 34.9416C13.2022 34.8908 13.155 34.818 13.1246 34.7233C13.0941 34.6279 13.0789 34.5139 13.0789 34.3813C13.0789 34.2476 13.0927 34.1334 13.1203 34.0386C13.1486 33.9432 13.1943 33.8702 13.2574 33.8194C13.3206 33.7686 13.405 33.7432 13.5105 33.7432C13.6092 33.7432 13.6905 33.7686 13.7542 33.8194C13.8186 33.8696 13.8662 33.9424 13.8973 34.0377C13.9283 34.1325 13.9438 34.2471 13.9438 34.3813ZM13.3387 34.3813C13.3387 34.4756 13.3438 34.5543 13.3539 34.6175C13.3646 34.6801 13.3824 34.7272 13.4072 34.7588C13.4321 34.7904 13.4665 34.8062 13.5105 34.8062C13.5539 34.8062 13.5881 34.7907 13.6129 34.7596C13.6383 34.7281 13.6563 34.6809 13.6671 34.6183C13.6778 34.5551 13.6831 34.4761 13.6831 34.3813C13.6831 34.2871 13.6778 34.2084 13.6671 34.1452C13.6563 34.082 13.6383 34.0346 13.6129 34.003C13.5881 33.9709 13.5539 33.9548 13.5105 33.9548C13.4665 33.9548 13.4321 33.9709 13.4072 34.003C13.3824 34.0346 13.3646 34.082 13.3539 34.1452C13.3438 34.2084 13.3387 34.2871 13.3387 34.3813ZM14.9357 34.3813C14.9357 34.4812 14.9278 34.5704 14.912 34.6488C14.8968 34.7272 14.8719 34.7938 14.8375 34.8485C14.8037 34.9032 14.7591 34.945 14.7038 34.9738C14.6485 35.0025 14.5814 35.0169 14.5024 35.0169C14.4031 35.0169 14.3215 34.9918 14.2578 34.9416C14.194 34.8908 14.1469 34.818 14.1165 34.7233C14.086 34.6279 14.0708 34.5139 14.0708 34.3813C14.0708 34.2476 14.0846 34.1334 14.1122 34.0386C14.1404 33.9432 14.1861 33.8702 14.2493 33.8194C14.3125 33.7686 14.3969 33.7432 14.5024 33.7432C14.6011 33.7432 14.6824 33.7686 14.7461 33.8194C14.8104 33.8696 14.8581 33.9424 14.8891 34.0377C14.9202 34.1325 14.9357 34.2471 14.9357 34.3813ZM14.3306 34.3813C14.3306 34.4756 14.3356 34.5543 14.3458 34.6175C14.3565 34.6801 14.3743 34.7272 14.3991 34.7588C14.4239 34.7904 14.4584 34.8062 14.5024 34.8062C14.5458 34.8062 14.5799 34.7907 14.6048 34.7596C14.6302 34.7281 14.6482 34.6809 14.6589 34.6183C14.6697 34.5551 14.675 34.4761 14.675 34.3813C14.675 34.2871 14.6697 34.2084 14.6589 34.1452C14.6482 34.082 14.6302 34.0346 14.6048 34.003C14.5799 33.9709 14.5458 33.9548 14.5024 33.9548C14.4584 33.9548 14.4239 33.9709 14.3991 34.003C14.3743 34.0346 14.3565 34.082 14.3458 34.1452C14.3356 34.2084 14.3306 34.2871 14.3306 34.3813ZM11.7485 38H11.487V37.284C11.487 37.2643 11.4873 37.24 11.4878 37.2112C11.4884 37.1819 11.4892 37.152 11.4904 37.1215C11.4915 37.0905 11.4926 37.0626 11.4937 37.0377C11.4875 37.0451 11.4748 37.0578 11.4557 37.0758C11.437 37.0933 11.4195 37.1091 11.4032 37.1232L11.261 37.2375L11.1349 37.0801L11.5335 36.7627H11.7485V38ZM12.9519 37.3813C12.9519 37.4812 12.944 37.5704 12.9282 37.6488C12.913 37.7272 12.8882 37.7938 12.8538 37.8485C12.8199 37.9032 12.7753 37.945 12.72 37.9738C12.6648 38.0025 12.5976 38.0169 12.5186 38.0169C12.4193 38.0169 12.3378 37.9918 12.274 37.9416C12.2103 37.8908 12.1632 37.818 12.1327 37.7233C12.1022 37.6279 12.087 37.5139 12.087 37.3813C12.087 37.2476 12.1008 37.1334 12.1285 37.0386C12.1567 36.9432 12.2024 36.8702 12.2656 36.8194C12.3288 36.7686 12.4131 36.7432 12.5186 36.7432C12.6174 36.7432 12.6986 36.7686 12.7624 36.8194C12.8267 36.8696 12.8744 36.9424 12.9054 37.0377C12.9364 37.1325 12.9519 37.2471 12.9519 37.3813ZM12.3468 37.3813C12.3468 37.4756 12.3519 37.5543 12.3621 37.6175C12.3728 37.6801 12.3905 37.7272 12.4154 37.7588C12.4402 37.7904 12.4746 37.8062 12.5186 37.8062C12.5621 37.8062 12.5962 37.7907 12.621 37.7596C12.6464 37.7281 12.6645 37.6809 12.6752 37.6183C12.6859 37.5551 12.6913 37.4761 12.6913 37.3813C12.6913 37.2871 12.6859 37.2084 12.6752 37.1452C12.6645 37.082 12.6464 37.0346 12.621 37.003C12.5962 36.9709 12.5621 36.9548 12.5186 36.9548C12.4746 36.9548 12.4402 36.9709 12.4154 37.003C12.3905 37.0346 12.3728 37.082 12.3621 37.1452C12.3519 37.2084 12.3468 37.2871 12.3468 37.3813ZM13.9438 37.3813C13.9438 37.4812 13.9359 37.5704 13.9201 37.6488C13.9049 37.7272 13.8801 37.7938 13.8456 37.8485C13.8118 37.9032 13.7672 37.945 13.7119 37.9738C13.6566 38.0025 13.5895 38.0169 13.5105 38.0169C13.4112 38.0169 13.3297 37.9918 13.2659 37.9416C13.2022 37.8908 13.155 37.818 13.1246 37.7233C13.0941 37.6279 13.0789 37.5139 13.0789 37.3813C13.0789 37.2476 13.0927 37.1334 13.1203 37.0386C13.1486 36.9432 13.1943 36.8702 13.2574 36.8194C13.3206 36.7686 13.405 36.7432 13.5105 36.7432C13.6092 36.7432 13.6905 36.7686 13.7542 36.8194C13.8186 36.8696 13.8662 36.9424 13.8973 37.0377C13.9283 37.1325 13.9438 37.2471 13.9438 37.3813ZM13.3387 37.3813C13.3387 37.4756 13.3438 37.5543 13.3539 37.6175C13.3646 37.6801 13.3824 37.7272 13.4072 37.7588C13.4321 37.7904 13.4665 37.8062 13.5105 37.8062C13.5539 37.8062 13.5881 37.7907 13.6129 37.7596C13.6383 37.7281 13.6563 37.6809 13.6671 37.6183C13.6778 37.5551 13.6831 37.4761 13.6831 37.3813C13.6831 37.2871 13.6778 37.2084 13.6671 37.1452C13.6563 37.082 13.6383 37.0346 13.6129 37.003C13.5881 36.9709 13.5539 36.9548 13.5105 36.9548C13.4665 36.9548 13.4321 36.9709 13.4072 37.003C13.3824 37.0346 13.3646 37.082 13.3539 37.1452C13.3438 37.2084 13.3387 37.2871 13.3387 37.3813ZM14.9357 37.3813C14.9357 37.4812 14.9278 37.5704 14.912 37.6488C14.8968 37.7272 14.8719 37.7938 14.8375 37.8485C14.8037 37.9032 14.7591 37.945 14.7038 37.9738C14.6485 38.0025 14.5814 38.0169 14.5024 38.0169C14.4031 38.0169 14.3215 37.9918 14.2578 37.9416C14.194 37.8908 14.1469 37.818 14.1165 37.7233C14.086 37.6279 14.0708 37.5139 14.0708 37.3813C14.0708 37.2476 14.0846 37.1334 14.1122 37.0386C14.1404 36.9432 14.1861 36.8702 14.2493 36.8194C14.3125 36.7686 14.3969 36.7432 14.5024 36.7432C14.6011 36.7432 14.6824 36.7686 14.7461 36.8194C14.8104 36.8696 14.8581 36.9424 14.8891 37.0377C14.9202 37.1325 14.9357 37.2471 14.9357 37.3813ZM14.3306 37.3813C14.3306 37.4756 14.3356 37.5543 14.3458 37.6175C14.3565 37.6801 14.3743 37.7272 14.3991 37.7588C14.4239 37.7904 14.4584 37.8062 14.5024 37.8062C14.5458 37.8062 14.5799 37.7907 14.6048 37.7596C14.6302 37.7281 14.6482 37.6809 14.6589 37.6183C14.6697 37.5551 14.675 37.4761 14.675 37.3813C14.675 37.2871 14.6697 37.2084 14.6589 37.1452C14.6482 37.082 14.6302 37.0346 14.6048 37.003C14.5799 36.9709 14.5458 36.9548 14.5024 36.9548C14.4584 36.9548 14.4239 36.9709 14.3991 37.003C14.3743 37.0346 14.3565 37.082 14.3458 37.1452C14.3356 37.2084 14.3306 37.2871 14.3306 37.3813ZM12.9536 40.2908C12.9536 40.3619 12.9483 40.4324 12.9375 40.5024C12.9274 40.5723 12.9093 40.6383 12.8834 40.7004C12.8574 40.7619 12.821 40.8166 12.7742 40.8646C12.7274 40.912 12.6679 40.9492 12.5956 40.9763C12.5234 41.0034 12.436 41.0169 12.3333 41.0169C12.309 41.0169 12.2805 41.0158 12.2478 41.0135C12.2151 41.0118 12.188 41.009 12.1666 41.0051V40.7952C12.1891 40.8008 12.2131 40.8053 12.2385 40.8087C12.2639 40.8116 12.2896 40.813 12.3155 40.813C12.4188 40.813 12.4983 40.7966 12.5542 40.7639C12.6106 40.7312 12.6501 40.6857 12.6727 40.6276C12.6958 40.5695 12.709 40.5024 12.7124 40.4262H12.7023C12.6859 40.4533 12.6664 40.4778 12.6439 40.4998C12.6219 40.5213 12.5937 40.5385 12.5592 40.5515C12.5248 40.5639 12.4811 40.5701 12.4281 40.5701C12.3575 40.5701 12.296 40.5548 12.2436 40.5244C12.1917 40.4933 12.1513 40.4488 12.1225 40.3907C12.0943 40.332 12.0802 40.2612 12.0802 40.1782C12.0802 40.0885 12.0972 40.0118 12.131 39.948C12.1654 39.8837 12.2142 39.8344 12.2774 39.7999C12.3406 39.7655 12.4151 39.7483 12.5008 39.7483C12.564 39.7483 12.623 39.7593 12.6777 39.7813C12.7325 39.8028 12.7804 39.8358 12.8216 39.8803C12.8634 39.9249 12.8958 39.9813 12.9189 40.0496C12.9421 40.1179 12.9536 40.1983 12.9536 40.2908ZM12.5059 39.9582C12.4551 39.9582 12.4137 39.9757 12.3815 40.0107C12.3494 40.0456 12.3333 40.1004 12.3333 40.1748C12.3333 40.2347 12.3471 40.282 12.3747 40.317C12.4024 40.352 12.4444 40.3695 12.5008 40.3695C12.5398 40.3695 12.5736 40.361 12.6024 40.3441C12.6312 40.3266 12.6535 40.3049 12.6693 40.2789C12.6856 40.2524 12.6938 40.2253 12.6938 40.1977C12.6938 40.1689 12.6899 40.1404 12.682 40.1122C12.6741 40.084 12.6622 40.0583 12.6464 40.0352C12.6306 40.0121 12.6109 39.9935 12.5872 39.9794C12.564 39.9652 12.537 39.9582 12.5059 39.9582ZM13.9438 40.3813C13.9438 40.4812 13.9359 40.5704 13.9201 40.6488C13.9049 40.7272 13.8801 40.7938 13.8456 40.8485C13.8118 40.9032 13.7672 40.945 13.7119 40.9738C13.6566 41.0025 13.5895 41.0169 13.5105 41.0169C13.4112 41.0169 13.3297 40.9918 13.2659 40.9416C13.2022 40.8908 13.155 40.818 13.1246 40.7233C13.0941 40.6279 13.0789 40.5139 13.0789 40.3813C13.0789 40.2476 13.0927 40.1334 13.1203 40.0386C13.1486 39.9432 13.1943 39.8702 13.2574 39.8194C13.3206 39.7686 13.405 39.7432 13.5105 39.7432C13.6092 39.7432 13.6905 39.7686 13.7542 39.8194C13.8186 39.8696 13.8662 39.9424 13.8973 40.0377C13.9283 40.1325 13.9438 40.2471 13.9438 40.3813ZM13.3387 40.3813C13.3387 40.4756 13.3438 40.5543 13.3539 40.6175C13.3646 40.6801 13.3824 40.7272 13.4072 40.7588C13.4321 40.7904 13.4665 40.8062 13.5105 40.8062C13.5539 40.8062 13.5881 40.7907 13.6129 40.7596C13.6383 40.7281 13.6563 40.6809 13.6671 40.6183C13.6778 40.5551 13.6831 40.4761 13.6831 40.3813C13.6831 40.2871 13.6778 40.2084 13.6671 40.1452C13.6563 40.082 13.6383 40.0346 13.6129 40.003C13.5881 39.9709 13.5539 39.9548 13.5105 39.9548C13.4665 39.9548 13.4321 39.9709 13.4072 40.003C13.3824 40.0346 13.3646 40.082 13.3539 40.1452C13.3438 40.2084 13.3387 40.2871 13.3387 40.3813ZM14.9357 40.3813C14.9357 40.4812 14.9278 40.5704 14.912 40.6488C14.8968 40.7272 14.8719 40.7938 14.8375 40.8485C14.8037 40.9032 14.7591 40.945 14.7038 40.9738C14.6485 41.0025 14.5814 41.0169 14.5024 41.0169C14.4031 41.0169 14.3215 40.9918 14.2578 40.9416C14.194 40.8908 14.1469 40.818 14.1165 40.7233C14.086 40.6279 14.0708 40.5139 14.0708 40.3813C14.0708 40.2476 14.0846 40.1334 14.1122 40.0386C14.1404 39.9432 14.1861 39.8702 14.2493 39.8194C14.3125 39.7686 14.3969 39.7432 14.5024 39.7432C14.6011 39.7432 14.6824 39.7686 14.7461 39.8194C14.8104 39.8696 14.8581 39.9424 14.8891 40.0377C14.9202 40.1325 14.9357 40.2471 14.9357 40.3813ZM14.3306 40.3813C14.3306 40.4756 14.3356 40.5543 14.3458 40.6175C14.3565 40.6801 14.3743 40.7272 14.3991 40.7588C14.4239 40.7904 14.4584 40.8062 14.5024 40.8062C14.5458 40.8062 14.5799 40.7907 14.6048 40.7596C14.6302 40.7281 14.6482 40.6809 14.6589 40.6183C14.6697 40.5551 14.675 40.4761 14.675 40.3813C14.675 40.2871 14.6697 40.2084 14.6589 40.1452C14.6482 40.082 14.6302 40.0346 14.6048 40.003C14.5799 39.9709 14.5458 39.9548 14.5024 39.9548C14.4584 39.9548 14.4239 39.9709 14.3991 40.003C14.3743 40.0346 14.3565 40.082 14.3458 40.1452C14.3356 40.2084 14.3306 40.2871 14.3306 40.3813ZM12.5203 41.7466C12.5914 41.7466 12.6569 41.7576 12.7167 41.7796C12.777 41.8016 12.8253 41.8349 12.8614 41.8795C12.8975 41.9235 12.9155 41.9788 12.9155 42.0454C12.9155 42.095 12.9057 42.1385 12.8859 42.1757C12.8667 42.2129 12.8405 42.2457 12.8072 42.2739C12.7739 42.3015 12.7361 42.3258 12.6938 42.3466C12.7378 42.3698 12.7796 42.3969 12.8191 42.4279C12.8586 42.4584 12.8907 42.4942 12.9155 42.5354C12.9409 42.5766 12.9536 42.6245 12.9536 42.6792C12.9536 42.7481 12.9353 42.8079 12.8986 42.8587C12.8619 42.9089 12.8112 42.9478 12.7463 42.9755C12.6814 43.0031 12.6061 43.0169 12.5203 43.0169C12.4278 43.0169 12.3491 43.0037 12.2842 42.9771C12.2193 42.9506 12.1699 42.9128 12.1361 42.8637C12.1022 42.8141 12.0853 42.7549 12.0853 42.686C12.0853 42.6296 12.0957 42.5805 12.1166 42.5388C12.1381 42.497 12.1668 42.4612 12.2029 42.4313C12.2391 42.4008 12.2788 42.3749 12.3223 42.3534C12.2856 42.3303 12.252 42.3041 12.2216 42.2747C12.1917 42.2454 12.1677 42.2118 12.1496 42.174C12.1321 42.1362 12.1234 42.0928 12.1234 42.0437C12.1234 41.9782 12.1417 41.9235 12.1784 41.8795C12.2156 41.8355 12.2644 41.8025 12.3248 41.7805C12.3852 41.7579 12.4504 41.7466 12.5203 41.7466ZM12.3274 42.6708C12.3274 42.7154 12.3432 42.7523 12.3747 42.7817C12.4069 42.8104 12.4543 42.8248 12.5169 42.8248C12.5818 42.8248 12.6303 42.811 12.6625 42.7833C12.6947 42.7551 12.7107 42.7182 12.7107 42.6725C12.7107 42.6409 12.7014 42.6132 12.6828 42.5895C12.6648 42.5658 12.6419 42.5447 12.6143 42.5261C12.5866 42.5069 12.5587 42.4891 12.5305 42.4727L12.5076 42.4609C12.4715 42.4773 12.4399 42.4956 12.4128 42.5159C12.3863 42.5362 12.3654 42.5591 12.3502 42.5845C12.335 42.6099 12.3274 42.6386 12.3274 42.6708ZM12.5186 41.9379C12.4757 41.9379 12.4402 41.9489 12.412 41.9709C12.3838 41.9929 12.3697 42.0239 12.3697 42.064C12.3697 42.0922 12.3764 42.117 12.39 42.1385C12.4041 42.1593 12.4224 42.1777 12.445 42.1935C12.4681 42.2093 12.4932 42.2239 12.5203 42.2375C12.5463 42.2251 12.5705 42.2112 12.5931 42.196C12.6157 42.1808 12.634 42.1624 12.6481 42.141C12.6622 42.1196 12.6693 42.0939 12.6693 42.064C12.6693 42.0239 12.6549 41.9929 12.6261 41.9709C12.5979 41.9489 12.5621 41.9379 12.5186 41.9379ZM13.9438 42.3813C13.9438 42.4812 13.9359 42.5704 13.9201 42.6488C13.9049 42.7272 13.8801 42.7938 13.8456 42.8485C13.8118 42.9032 13.7672 42.945 13.7119 42.9738C13.6566 43.0025 13.5895 43.0169 13.5105 43.0169C13.4112 43.0169 13.3297 42.9918 13.2659 42.9416C13.2022 42.8908 13.155 42.818 13.1246 42.7233C13.0941 42.6279 13.0789 42.5139 13.0789 42.3813C13.0789 42.2476 13.0927 42.1334 13.1203 42.0386C13.1486 41.9432 13.1943 41.8702 13.2574 41.8194C13.3206 41.7686 13.405 41.7432 13.5105 41.7432C13.6092 41.7432 13.6905 41.7686 13.7542 41.8194C13.8186 41.8696 13.8662 41.9424 13.8973 42.0377C13.9283 42.1325 13.9438 42.2471 13.9438 42.3813ZM13.3387 42.3813C13.3387 42.4756 13.3438 42.5543 13.3539 42.6175C13.3646 42.6801 13.3824 42.7272 13.4072 42.7588C13.4321 42.7904 13.4665 42.8062 13.5105 42.8062C13.5539 42.8062 13.5881 42.7907 13.6129 42.7596C13.6383 42.7281 13.6563 42.6809 13.6671 42.6183C13.6778 42.5551 13.6831 42.4761 13.6831 42.3813C13.6831 42.2871 13.6778 42.2084 13.6671 42.1452C13.6563 42.082 13.6383 42.0346 13.6129 42.003C13.5881 41.9709 13.5539 41.9548 13.5105 41.9548C13.4665 41.9548 13.4321 41.9709 13.4072 42.003C13.3824 42.0346 13.3646 42.082 13.3539 42.1452C13.3438 42.2084 13.3387 42.2871 13.3387 42.3813ZM14.9357 42.3813C14.9357 42.4812 14.9278 42.5704 14.912 42.6488C14.8968 42.7272 14.8719 42.7938 14.8375 42.8485C14.8037 42.9032 14.7591 42.945 14.7038 42.9738C14.6485 43.0025 14.5814 43.0169 14.5024 43.0169C14.4031 43.0169 14.3215 42.9918 14.2578 42.9416C14.194 42.8908 14.1469 42.818 14.1165 42.7233C14.086 42.6279 14.0708 42.5139 14.0708 42.3813C14.0708 42.2476 14.0846 42.1334 14.1122 42.0386C14.1404 41.9432 14.1861 41.8702 14.2493 41.8194C14.3125 41.7686 14.3969 41.7432 14.5024 41.7432C14.6011 41.7432 14.6824 41.7686 14.7461 41.8194C14.8104 41.8696 14.8581 41.9424 14.8891 42.0377C14.9202 42.1325 14.9357 42.2471 14.9357 42.3813ZM14.3306 42.3813C14.3306 42.4756 14.3356 42.5543 14.3458 42.6175C14.3565 42.6801 14.3743 42.7272 14.3991 42.7588C14.4239 42.7904 14.4584 42.8062 14.5024 42.8062C14.5458 42.8062 14.5799 42.7907 14.6048 42.7596C14.6302 42.7281 14.6482 42.6809 14.6589 42.6183C14.6697 42.5551 14.675 42.4761 14.675 42.3813C14.675 42.2871 14.6697 42.2084 14.6589 42.1452C14.6482 42.082 14.6302 42.0346 14.6048 42.003C14.5799 41.9709 14.5458 41.9548 14.5024 41.9548C14.4584 41.9548 14.4239 41.9709 14.3991 42.003C14.3743 42.0346 14.3565 42.082 14.3458 42.1452C14.3356 42.2084 14.3306 42.2871 14.3306 42.3813ZM12.2165 46L12.6811 44.9827H12.0709V44.7627H12.9587V44.9269L12.4907 46H12.2165ZM13.9438 45.3813C13.9438 45.4812 13.9359 45.5704 13.9201 45.6488C13.9049 45.7272 13.8801 45.7938 13.8456 45.8485C13.8118 45.9032 13.7672 45.945 13.7119 45.9738C13.6566 46.0025 13.5895 46.0169 13.5105 46.0169C13.4112 46.0169 13.3297 45.9918 13.2659 45.9416C13.2022 45.8908 13.155 45.818 13.1246 45.7233C13.0941 45.6279 13.0789 45.5139 13.0789 45.3813C13.0789 45.2476 13.0927 45.1334 13.1203 45.0386C13.1486 44.9432 13.1943 44.8702 13.2574 44.8194C13.3206 44.7686 13.405 44.7432 13.5105 44.7432C13.6092 44.7432 13.6905 44.7686 13.7542 44.8194C13.8186 44.8696 13.8662 44.9424 13.8973 45.0377C13.9283 45.1325 13.9438 45.2471 13.9438 45.3813ZM13.3387 45.3813C13.3387 45.4756 13.3438 45.5543 13.3539 45.6175C13.3646 45.6801 13.3824 45.7272 13.4072 45.7588C13.4321 45.7904 13.4665 45.8062 13.5105 45.8062C13.5539 45.8062 13.5881 45.7907 13.6129 45.7596C13.6383 45.7281 13.6563 45.6809 13.6671 45.6183C13.6778 45.5551 13.6831 45.4761 13.6831 45.3813C13.6831 45.2871 13.6778 45.2084 13.6671 45.1452C13.6563 45.082 13.6383 45.0346 13.6129 45.003C13.5881 44.9709 13.5539 44.9548 13.5105 44.9548C13.4665 44.9548 13.4321 44.9709 13.4072 45.003C13.3824 45.0346 13.3646 45.082 13.3539 45.1452C13.3438 45.2084 13.3387 45.2871 13.3387 45.3813ZM14.9357 45.3813C14.9357 45.4812 14.9278 45.5704 14.912 45.6488C14.8968 45.7272 14.8719 45.7938 14.8375 45.8485C14.8037 45.9032 14.7591 45.945 14.7038 45.9738C14.6485 46.0025 14.5814 46.0169 14.5024 46.0169C14.4031 46.0169 14.3215 45.9918 14.2578 45.9416C14.194 45.8908 14.1469 45.818 14.1165 45.7233C14.086 45.6279 14.0708 45.5139 14.0708 45.3813C14.0708 45.2476 14.0846 45.1334 14.1122 45.0386C14.1404 44.9432 14.1861 44.8702 14.2493 44.8194C14.3125 44.7686 14.3969 44.7432 14.5024 44.7432C14.6011 44.7432 14.6824 44.7686 14.7461 44.8194C14.8104 44.8696 14.8581 44.9424 14.8891 45.0377C14.9202 45.1325 14.9357 45.2471 14.9357 45.3813ZM14.3306 45.3813C14.3306 45.4756 14.3356 45.5543 14.3458 45.6175C14.3565 45.6801 14.3743 45.7272 14.3991 45.7588C14.4239 45.7904 14.4584 45.8062 14.5024 45.8062C14.5458 45.8062 14.5799 45.7907 14.6048 45.7596C14.6302 45.7281 14.6482 45.6809 14.6589 45.6183C14.6697 45.5551 14.675 45.4761 14.675 45.3813C14.675 45.2871 14.6697 45.2084 14.6589 45.1452C14.6482 45.082 14.6302 45.0346 14.6048 45.003C14.5799 44.9709 14.5458 44.9548 14.5024 44.9548C14.4584 44.9548 14.4239 44.9709 14.3991 45.003C14.3743 45.0346 14.3565 45.082 14.3458 45.1452C14.3356 45.2084 14.3306 45.2871 14.3306 45.3813ZM12.0853 48.4744C12.0853 48.4034 12.0904 48.3331 12.1005 48.2637C12.1113 48.1937 12.1296 48.128 12.1556 48.0665C12.1815 48.0045 12.2179 47.9497 12.2647 47.9023C12.3116 47.8544 12.3711 47.8169 12.4433 47.7898C12.5155 47.7621 12.603 47.7483 12.7057 47.7483C12.7299 47.7483 12.7581 47.7494 12.7903 47.7517C12.823 47.7534 12.8501 47.7565 12.8715 47.761V47.97C12.849 47.965 12.8247 47.961 12.7988 47.9582C12.7734 47.9548 12.748 47.9531 12.7226 47.9531C12.6199 47.9531 12.5403 47.9695 12.4839 48.0022C12.4281 48.0349 12.3886 48.0803 12.3654 48.1385C12.3429 48.196 12.3296 48.2631 12.3257 48.3399H12.3367C12.3525 48.3122 12.3722 48.2877 12.3959 48.2663C12.4202 48.2448 12.4495 48.2279 12.4839 48.2155C12.5183 48.2025 12.5587 48.196 12.6049 48.196C12.6772 48.196 12.7398 48.2115 12.7928 48.2426C12.8459 48.273 12.8868 48.3173 12.9155 48.3754C12.9443 48.4335 12.9587 48.5043 12.9587 48.5878C12.9587 48.677 12.9415 48.7537 12.9071 48.818C12.8727 48.8824 12.8239 48.9317 12.7607 48.9661C12.698 49 12.6236 49.0169 12.5372 49.0169C12.474 49.0169 12.4151 49.0062 12.3604 48.9848C12.3056 48.9628 12.2577 48.9295 12.2165 48.8849C12.1753 48.8403 12.1431 48.7842 12.12 48.7165C12.0969 48.6482 12.0853 48.5675 12.0853 48.4744ZM12.5322 48.8079C12.5835 48.8079 12.6253 48.7904 12.6574 48.7554C12.6896 48.7204 12.7057 48.6657 12.7057 48.5912C12.7057 48.5309 12.6916 48.4835 12.6633 48.4491C12.6357 48.4141 12.5937 48.3966 12.5372 48.3966C12.4989 48.3966 12.465 48.4053 12.4357 48.4228C12.4069 48.4397 12.3846 48.4615 12.3688 48.488C12.353 48.5139 12.3451 48.5407 12.3451 48.5684C12.3451 48.5972 12.3491 48.6256 12.357 48.6539C12.3649 48.6821 12.3767 48.7077 12.3925 48.7309C12.4083 48.754 12.4278 48.7726 12.4509 48.7867C12.4746 48.8008 12.5017 48.8079 12.5322 48.8079ZM13.9438 48.3813C13.9438 48.4812 13.9359 48.5704 13.9201 48.6488C13.9049 48.7272 13.8801 48.7938 13.8456 48.8485C13.8118 48.9032 13.7672 48.945 13.7119 48.9738C13.6566 49.0025 13.5895 49.0169 13.5105 49.0169C13.4112 49.0169 13.3297 48.9918 13.2659 48.9416C13.2022 48.8908 13.155 48.818 13.1246 48.7233C13.0941 48.6279 13.0789 48.5139 13.0789 48.3813C13.0789 48.2476 13.0927 48.1334 13.1203 48.0386C13.1486 47.9432 13.1943 47.8702 13.2574 47.8194C13.3206 47.7686 13.405 47.7432 13.5105 47.7432C13.6092 47.7432 13.6905 47.7686 13.7542 47.8194C13.8186 47.8696 13.8662 47.9424 13.8973 48.0377C13.9283 48.1325 13.9438 48.2471 13.9438 48.3813ZM13.3387 48.3813C13.3387 48.4756 13.3438 48.5543 13.3539 48.6175C13.3646 48.6801 13.3824 48.7272 13.4072 48.7588C13.4321 48.7904 13.4665 48.8062 13.5105 48.8062C13.5539 48.8062 13.5881 48.7907 13.6129 48.7596C13.6383 48.7281 13.6563 48.6809 13.6671 48.6183C13.6778 48.5551 13.6831 48.4761 13.6831 48.3813C13.6831 48.2871 13.6778 48.2084 13.6671 48.1452C13.6563 48.082 13.6383 48.0346 13.6129 48.003C13.5881 47.9709 13.5539 47.9548 13.5105 47.9548C13.4665 47.9548 13.4321 47.9709 13.4072 48.003C13.3824 48.0346 13.3646 48.082 13.3539 48.1452C13.3438 48.2084 13.3387 48.2871 13.3387 48.3813ZM14.9357 48.3813C14.9357 48.4812 14.9278 48.5704 14.912 48.6488C14.8968 48.7272 14.8719 48.7938 14.8375 48.8485C14.8037 48.9032 14.7591 48.945 14.7038 48.9738C14.6485 49.0025 14.5814 49.0169 14.5024 49.0169C14.4031 49.0169 14.3215 48.9918 14.2578 48.9416C14.194 48.8908 14.1469 48.818 14.1165 48.7233C14.086 48.6279 14.0708 48.5139 14.0708 48.3813C14.0708 48.2476 14.0846 48.1334 14.1122 48.0386C14.1404 47.9432 14.1861 47.8702 14.2493 47.8194C14.3125 47.7686 14.3969 47.7432 14.5024 47.7432C14.6011 47.7432 14.6824 47.7686 14.7461 47.8194C14.8104 47.8696 14.8581 47.9424 14.8891 48.0377C14.9202 48.1325 14.9357 48.2471 14.9357 48.3813ZM14.3306 48.3813C14.3306 48.4756 14.3356 48.5543 14.3458 48.6175C14.3565 48.6801 14.3743 48.7272 14.3991 48.7588C14.4239 48.7904 14.4584 48.8062 14.5024 48.8062C14.5458 48.8062 14.5799 48.7907 14.6048 48.7596C14.6302 48.7281 14.6482 48.6809 14.6589 48.6183C14.6697 48.5551 14.675 48.4761 14.675 48.3813C14.675 48.2871 14.6697 48.2084 14.6589 48.1452C14.6482 48.082 14.6302 48.0346 14.6048 48.003C14.5799 47.9709 14.5458 47.9548 14.5024 47.9548C14.4584 47.9548 14.4239 47.9709 14.3991 48.003C14.3743 48.0346 14.3565 48.082 14.3458 48.1452C14.3356 48.2084 14.3306 48.2871 14.3306 48.3813ZM12.544 51.2095C12.6196 51.2095 12.6868 51.2239 12.7454 51.2527C12.8047 51.2815 12.8512 51.3238 12.8851 51.3797C12.9189 51.4355 12.9359 51.5043 12.9359 51.5862C12.9359 51.6753 12.9172 51.7523 12.88 51.8172C12.8433 51.8815 12.7883 51.9309 12.715 51.9653C12.6422 51.9997 12.5513 52.0169 12.4425 52.0169C12.3776 52.0169 12.3164 52.0113 12.2588 52C12.2018 51.9893 12.1519 51.9726 12.109 51.9501V51.7241C12.1519 51.7467 12.2032 51.7659 12.263 51.7817C12.3234 51.7969 12.3801 51.8045 12.4331 51.8045C12.4851 51.8045 12.5288 51.7977 12.5643 51.7842C12.5999 51.7701 12.6267 51.7486 12.6447 51.7199C12.6633 51.6905 12.6727 51.6533 12.6727 51.6082C12.6727 51.5478 12.6523 51.5015 12.6117 51.4694C12.5711 51.4372 12.5087 51.4211 12.4247 51.4211C12.3925 51.4211 12.359 51.4242 12.324 51.4304C12.2896 51.4366 12.2608 51.4428 12.2376 51.4491L12.1336 51.3932L12.1801 50.7627H12.8512V50.9844H12.4094L12.3866 51.2273C12.4058 51.2234 12.4267 51.2194 12.4492 51.2155C12.4718 51.2115 12.5034 51.2095 12.544 51.2095ZM13.9438 51.3813C13.9438 51.4812 13.9359 51.5704 13.9201 51.6488C13.9049 51.7272 13.8801 51.7938 13.8456 51.8485C13.8118 51.9032 13.7672 51.945 13.7119 51.9738C13.6566 52.0025 13.5895 52.0169 13.5105 52.0169C13.4112 52.0169 13.3297 51.9918 13.2659 51.9416C13.2022 51.8908 13.155 51.818 13.1246 51.7233C13.0941 51.6279 13.0789 51.5139 13.0789 51.3813C13.0789 51.2476 13.0927 51.1334 13.1203 51.0386C13.1486 50.9432 13.1943 50.8702 13.2574 50.8194C13.3206 50.7686 13.405 50.7432 13.5105 50.7432C13.6092 50.7432 13.6905 50.7686 13.7542 50.8194C13.8186 50.8696 13.8662 50.9424 13.8973 51.0377C13.9283 51.1325 13.9438 51.2471 13.9438 51.3813ZM13.3387 51.3813C13.3387 51.4756 13.3438 51.5543 13.3539 51.6175C13.3646 51.6801 13.3824 51.7272 13.4072 51.7588C13.4321 51.7904 13.4665 51.8062 13.5105 51.8062C13.5539 51.8062 13.5881 51.7907 13.6129 51.7596C13.6383 51.7281 13.6563 51.6809 13.6671 51.6183C13.6778 51.5551 13.6831 51.4761 13.6831 51.3813C13.6831 51.2871 13.6778 51.2084 13.6671 51.1452C13.6563 51.082 13.6383 51.0346 13.6129 51.003C13.5881 50.9709 13.5539 50.9548 13.5105 50.9548C13.4665 50.9548 13.4321 50.9709 13.4072 51.003C13.3824 51.0346 13.3646 51.082 13.3539 51.1452C13.3438 51.2084 13.3387 51.2871 13.3387 51.3813ZM14.9357 51.3813C14.9357 51.4812 14.9278 51.5704 14.912 51.6488C14.8968 51.7272 14.8719 51.7938 14.8375 51.8485C14.8037 51.9032 14.7591 51.945 14.7038 51.9738C14.6485 52.0025 14.5814 52.0169 14.5024 52.0169C14.4031 52.0169 14.3215 51.9918 14.2578 51.9416C14.194 51.8908 14.1469 51.818 14.1165 51.7233C14.086 51.6279 14.0708 51.5139 14.0708 51.3813C14.0708 51.2476 14.0846 51.1334 14.1122 51.0386C14.1404 50.9432 14.1861 50.8702 14.2493 50.8194C14.3125 50.7686 14.3969 50.7432 14.5024 50.7432C14.6011 50.7432 14.6824 50.7686 14.7461 50.8194C14.8104 50.8696 14.8581 50.9424 14.8891 51.0377C14.9202 51.1325 14.9357 51.2471 14.9357 51.3813ZM14.3306 51.3813C14.3306 51.4756 14.3356 51.5543 14.3458 51.6175C14.3565 51.6801 14.3743 51.7272 14.3991 51.7588C14.4239 51.7904 14.4584 51.8062 14.5024 51.8062C14.5458 51.8062 14.5799 51.7907 14.6048 51.7596C14.6302 51.7281 14.6482 51.6809 14.6589 51.6183C14.6697 51.5551 14.675 51.4761 14.675 51.3813C14.675 51.2871 14.6697 51.2084 14.6589 51.1452C14.6482 51.082 14.6302 51.0346 14.6048 51.003C14.5799 50.9709 14.5458 50.9548 14.5024 50.9548C14.4584 50.9548 14.4239 50.9709 14.3991 51.003C14.3743 51.0346 14.3565 51.082 14.3458 51.1452C14.3356 51.2084 14.3306 51.2871 14.3306 51.3813ZM12.9866 53.7436H12.8377V54H12.5821V53.7436H12.054V53.5616L12.5965 52.7627H12.8377V53.5405H12.9866V53.7436ZM12.5821 53.5405V53.3306C12.5821 53.3108 12.5824 53.2874 12.5829 53.2603C12.5841 53.2332 12.5852 53.2062 12.5863 53.1791C12.5875 53.152 12.5886 53.128 12.5897 53.1071C12.5914 53.0857 12.5925 53.0708 12.5931 53.0623H12.5863C12.5756 53.0854 12.5643 53.108 12.5525 53.13C12.5406 53.1514 12.5268 53.174 12.511 53.1977L12.2842 53.5405H12.5821ZM13.9438 53.3813C13.9438 53.4812 13.9359 53.5704 13.9201 53.6488C13.9049 53.7272 13.8801 53.7938 13.8456 53.8485C13.8118 53.9032 13.7672 53.945 13.7119 53.9738C13.6566 54.0025 13.5895 54.0169 13.5105 54.0169C13.4112 54.0169 13.3297 53.9918 13.2659 53.9416C13.2022 53.8908 13.155 53.818 13.1246 53.7233C13.0941 53.6279 13.0789 53.5139 13.0789 53.3813C13.0789 53.2476 13.0927 53.1334 13.1203 53.0386C13.1486 52.9432 13.1943 52.8702 13.2574 52.8194C13.3206 52.7686 13.405 52.7432 13.5105 52.7432C13.6092 52.7432 13.6905 52.7686 13.7542 52.8194C13.8186 52.8696 13.8662 52.9424 13.8973 53.0377C13.9283 53.1325 13.9438 53.2471 13.9438 53.3813ZM13.3387 53.3813C13.3387 53.4756 13.3438 53.5543 13.3539 53.6175C13.3646 53.6801 13.3824 53.7272 13.4072 53.7588C13.4321 53.7904 13.4665 53.8062 13.5105 53.8062C13.5539 53.8062 13.5881 53.7907 13.6129 53.7596C13.6383 53.7281 13.6563 53.6809 13.6671 53.6183C13.6778 53.5551 13.6831 53.4761 13.6831 53.3813C13.6831 53.2871 13.6778 53.2084 13.6671 53.1452C13.6563 53.082 13.6383 53.0346 13.6129 53.003C13.5881 52.9709 13.5539 52.9548 13.5105 52.9548C13.4665 52.9548 13.4321 52.9709 13.4072 53.003C13.3824 53.0346 13.3646 53.082 13.3539 53.1452C13.3438 53.2084 13.3387 53.2871 13.3387 53.3813ZM14.9357 53.3813C14.9357 53.4812 14.9278 53.5704 14.912 53.6488C14.8968 53.7272 14.8719 53.7938 14.8375 53.8485C14.8037 53.9032 14.7591 53.945 14.7038 53.9738C14.6485 54.0025 14.5814 54.0169 14.5024 54.0169C14.4031 54.0169 14.3215 53.9918 14.2578 53.9416C14.194 53.8908 14.1469 53.818 14.1165 53.7233C14.086 53.6279 14.0708 53.5139 14.0708 53.3813C14.0708 53.2476 14.0846 53.1334 14.1122 53.0386C14.1404 52.9432 14.1861 52.8702 14.2493 52.8194C14.3125 52.7686 14.3969 52.7432 14.5024 52.7432C14.6011 52.7432 14.6824 52.7686 14.7461 52.8194C14.8104 52.8696 14.8581 52.9424 14.8891 53.0377C14.9202 53.1325 14.9357 53.2471 14.9357 53.3813ZM14.3306 53.3813C14.3306 53.4756 14.3356 53.5543 14.3458 53.6175C14.3565 53.6801 14.3743 53.7272 14.3991 53.7588C14.4239 53.7904 14.4584 53.8062 14.5024 53.8062C14.5458 53.8062 14.5799 53.7907 14.6048 53.7596C14.6302 53.7281 14.6482 53.6809 14.6589 53.6183C14.6697 53.5551 14.675 53.4761 14.675 53.3813C14.675 53.2871 14.6697 53.2084 14.6589 53.1452C14.6482 53.082 14.6302 53.0346 14.6048 53.003C14.5799 52.9709 14.5458 52.9548 14.5024 52.9548C14.4584 52.9548 14.4239 52.9709 14.3991 53.003C14.3743 53.0346 14.3565 53.082 14.3458 53.1452C14.3356 53.2084 14.3306 53.2871 14.3306 53.3813ZM12.9105 56.0394C12.9105 56.0964 12.8986 56.1458 12.8749 56.1875C12.8512 56.2293 12.8191 56.2634 12.7784 56.2899C12.7384 56.3165 12.6932 56.3359 12.643 56.3483V56.3534C12.7423 56.3658 12.8177 56.3963 12.869 56.4448C12.9209 56.4933 12.9469 56.5582 12.9469 56.6395C12.9469 56.7117 12.9291 56.7763 12.8935 56.8333C12.8586 56.8903 12.8044 56.9351 12.731 56.9678C12.6577 57.0006 12.5632 57.0169 12.4475 57.0169C12.3793 57.0169 12.3155 57.0113 12.2563 57C12.1976 56.9893 12.1423 56.9726 12.0904 56.9501V56.7275C12.1434 56.7546 12.199 56.7752 12.2571 56.7893C12.3152 56.8028 12.3694 56.8096 12.4196 56.8096C12.5133 56.8096 12.5787 56.7935 12.6159 56.7613C12.6537 56.7286 12.6727 56.6829 12.6727 56.6242C12.6727 56.5898 12.6639 56.5608 12.6464 56.5371C12.6289 56.5134 12.5985 56.4953 12.555 56.4829C12.5121 56.4705 12.452 56.4643 12.3747 56.4643H12.2808V56.2637H12.3764C12.4526 56.2637 12.5104 56.2567 12.5499 56.2426C12.59 56.2279 12.6171 56.2081 12.6312 56.1833C12.6459 56.1579 12.6532 56.1291 12.6532 56.097C12.6532 56.053 12.6396 56.0186 12.6126 55.9937C12.5855 55.9689 12.5403 55.9565 12.4772 55.9565C12.4377 55.9565 12.4015 55.9616 12.3688 55.9717C12.3367 55.9813 12.3076 55.9932 12.2817 56.0073C12.2557 56.0208 12.2329 56.0341 12.2131 56.0471L12.0921 55.8668C12.1406 55.8318 12.1973 55.8028 12.2622 55.7796C12.3276 55.7565 12.4055 55.7449 12.4958 55.7449C12.6233 55.7449 12.7243 55.7706 12.7988 55.8219C12.8732 55.8733 12.9105 55.9458 12.9105 56.0394ZM13.9438 56.3813C13.9438 56.4812 13.9359 56.5704 13.9201 56.6488C13.9049 56.7272 13.8801 56.7938 13.8456 56.8485C13.8118 56.9032 13.7672 56.945 13.7119 56.9738C13.6566 57.0025 13.5895 57.0169 13.5105 57.0169C13.4112 57.0169 13.3297 56.9918 13.2659 56.9416C13.2022 56.8908 13.155 56.818 13.1246 56.7233C13.0941 56.6279 13.0789 56.5139 13.0789 56.3813C13.0789 56.2476 13.0927 56.1334 13.1203 56.0386C13.1486 55.9432 13.1943 55.8702 13.2574 55.8194C13.3206 55.7686 13.405 55.7432 13.5105 55.7432C13.6092 55.7432 13.6905 55.7686 13.7542 55.8194C13.8186 55.8696 13.8662 55.9424 13.8973 56.0377C13.9283 56.1325 13.9438 56.2471 13.9438 56.3813ZM13.3387 56.3813C13.3387 56.4756 13.3438 56.5543 13.3539 56.6175C13.3646 56.6801 13.3824 56.7272 13.4072 56.7588C13.4321 56.7904 13.4665 56.8062 13.5105 56.8062C13.5539 56.8062 13.5881 56.7907 13.6129 56.7596C13.6383 56.7281 13.6563 56.6809 13.6671 56.6183C13.6778 56.5551 13.6831 56.4761 13.6831 56.3813C13.6831 56.2871 13.6778 56.2084 13.6671 56.1452C13.6563 56.082 13.6383 56.0346 13.6129 56.003C13.5881 55.9709 13.5539 55.9548 13.5105 55.9548C13.4665 55.9548 13.4321 55.9709 13.4072 56.003C13.3824 56.0346 13.3646 56.082 13.3539 56.1452C13.3438 56.2084 13.3387 56.2871 13.3387 56.3813ZM14.9357 56.3813C14.9357 56.4812 14.9278 56.5704 14.912 56.6488C14.8968 56.7272 14.8719 56.7938 14.8375 56.8485C14.8037 56.9032 14.7591 56.945 14.7038 56.9738C14.6485 57.0025 14.5814 57.0169 14.5024 57.0169C14.4031 57.0169 14.3215 56.9918 14.2578 56.9416C14.194 56.8908 14.1469 56.818 14.1165 56.7233C14.086 56.6279 14.0708 56.5139 14.0708 56.3813C14.0708 56.2476 14.0846 56.1334 14.1122 56.0386C14.1404 55.9432 14.1861 55.8702 14.2493 55.8194C14.3125 55.7686 14.3969 55.7432 14.5024 55.7432C14.6011 55.7432 14.6824 55.7686 14.7461 55.8194C14.8104 55.8696 14.8581 55.9424 14.8891 56.0377C14.9202 56.1325 14.9357 56.2471 14.9357 56.3813ZM14.3306 56.3813C14.3306 56.4756 14.3356 56.5543 14.3458 56.6175C14.3565 56.6801 14.3743 56.7272 14.3991 56.7588C14.4239 56.7904 14.4584 56.8062 14.5024 56.8062C14.5458 56.8062 14.5799 56.7907 14.6048 56.7596C14.6302 56.7281 14.6482 56.6809 14.6589 56.6183C14.6697 56.5551 14.675 56.4761 14.675 56.3813C14.675 56.2871 14.6697 56.2084 14.6589 56.1452C14.6482 56.082 14.6302 56.0346 14.6048 56.003C14.5799 55.9709 14.5458 55.9548 14.5024 55.9548C14.4584 55.9548 14.4239 55.9709 14.3991 56.003C14.3743 56.0346 14.3565 56.082 14.3458 56.1452C14.3356 56.2084 14.3306 56.2871 14.3306 56.3813ZM12.9587 60H12.0938V59.818L12.4044 59.5041C12.467 59.4397 12.5172 59.3861 12.555 59.3433C12.5934 59.2998 12.621 59.2603 12.638 59.2248C12.6554 59.1892 12.6642 59.1512 12.6642 59.1105C12.6642 59.0614 12.6504 59.0248 12.6227 59.0005C12.5956 58.9757 12.5592 58.9633 12.5135 58.9633C12.4656 58.9633 12.419 58.9743 12.3739 58.9963C12.3288 59.0183 12.2817 59.0496 12.2326 59.0902L12.0904 58.9218C12.1259 58.8913 12.1635 58.8626 12.2029 58.8355C12.243 58.8084 12.2893 58.7867 12.3417 58.7703C12.3948 58.7534 12.4583 58.7449 12.5322 58.7449C12.6134 58.7449 12.6831 58.7596 12.7412 58.7889C12.7999 58.8183 12.845 58.8583 12.8766 58.9091C12.9082 58.9593 12.924 59.0163 12.924 59.0801C12.924 59.1483 12.9105 59.2107 12.8834 59.2671C12.8563 59.3235 12.8168 59.3794 12.7649 59.4347C12.7136 59.49 12.6515 59.5512 12.5787 59.6183L12.4196 59.7681V59.78H12.9587V60ZM13.9438 59.3813C13.9438 59.4812 13.9359 59.5704 13.9201 59.6488C13.9049 59.7272 13.8801 59.7938 13.8456 59.8485C13.8118 59.9032 13.7672 59.945 13.7119 59.9738C13.6566 60.0025 13.5895 60.0169 13.5105 60.0169C13.4112 60.0169 13.3297 59.9918 13.2659 59.9416C13.2022 59.8908 13.155 59.818 13.1246 59.7233C13.0941 59.6279 13.0789 59.5139 13.0789 59.3813C13.0789 59.2476 13.0927 59.1334 13.1203 59.0386C13.1486 58.9432 13.1943 58.8702 13.2574 58.8194C13.3206 58.7686 13.405 58.7432 13.5105 58.7432C13.6092 58.7432 13.6905 58.7686 13.7542 58.8194C13.8186 58.8696 13.8662 58.9424 13.8973 59.0377C13.9283 59.1325 13.9438 59.2471 13.9438 59.3813ZM13.3387 59.3813C13.3387 59.4756 13.3438 59.5543 13.3539 59.6175C13.3646 59.6801 13.3824 59.7272 13.4072 59.7588C13.4321 59.7904 13.4665 59.8062 13.5105 59.8062C13.5539 59.8062 13.5881 59.7907 13.6129 59.7596C13.6383 59.7281 13.6563 59.6809 13.6671 59.6183C13.6778 59.5551 13.6831 59.4761 13.6831 59.3813C13.6831 59.2871 13.6778 59.2084 13.6671 59.1452C13.6563 59.082 13.6383 59.0346 13.6129 59.003C13.5881 58.9709 13.5539 58.9548 13.5105 58.9548C13.4665 58.9548 13.4321 58.9709 13.4072 59.003C13.3824 59.0346 13.3646 59.082 13.3539 59.1452C13.3438 59.2084 13.3387 59.2871 13.3387 59.3813ZM14.9357 59.3813C14.9357 59.4812 14.9278 59.5704 14.912 59.6488C14.8968 59.7272 14.8719 59.7938 14.8375 59.8485C14.8037 59.9032 14.7591 59.945 14.7038 59.9738C14.6485 60.0025 14.5814 60.0169 14.5024 60.0169C14.4031 60.0169 14.3215 59.9918 14.2578 59.9416C14.194 59.8908 14.1469 59.818 14.1165 59.7233C14.086 59.6279 14.0708 59.5139 14.0708 59.3813C14.0708 59.2476 14.0846 59.1334 14.1122 59.0386C14.1404 58.9432 14.1861 58.8702 14.2493 58.8194C14.3125 58.7686 14.3969 58.7432 14.5024 58.7432C14.6011 58.7432 14.6824 58.7686 14.7461 58.8194C14.8104 58.8696 14.8581 58.9424 14.8891 59.0377C14.9202 59.1325 14.9357 59.2471 14.9357 59.3813ZM14.3306 59.3813C14.3306 59.4756 14.3356 59.5543 14.3458 59.6175C14.3565 59.6801 14.3743 59.7272 14.3991 59.7588C14.4239 59.7904 14.4584 59.8062 14.5024 59.8062C14.5458 59.8062 14.5799 59.7907 14.6048 59.7596C14.6302 59.7281 14.6482 59.6809 14.6589 59.6183C14.6697 59.5551 14.675 59.4761 14.675 59.3813C14.675 59.2871 14.6697 59.2084 14.6589 59.1452C14.6482 59.082 14.6302 59.0346 14.6048 59.003C14.5799 58.9709 14.5458 58.9548 14.5024 58.9548C14.4584 58.9548 14.4239 58.9709 14.3991 59.003C14.3743 59.0346 14.3565 59.082 14.3458 59.1452C14.3356 59.2084 14.3306 59.2871 14.3306 59.3813ZM12.7404 63H12.4788V62.284C12.4788 62.2643 12.4791 62.24 12.4797 62.2112C12.4803 62.1819 12.4811 62.152 12.4822 62.1215C12.4834 62.0905 12.4845 62.0626 12.4856 62.0377C12.4794 62.0451 12.4667 62.0578 12.4475 62.0758C12.4289 62.0933 12.4114 62.1091 12.3951 62.1232L12.2529 62.2375L12.1268 62.0801L12.5254 61.7627H12.7404V63ZM13.9438 62.3813C13.9438 62.4812 13.9359 62.5704 13.9201 62.6488C13.9049 62.7272 13.8801 62.7938 13.8456 62.8485C13.8118 62.9032 13.7672 62.945 13.7119 62.9738C13.6566 63.0025 13.5895 63.0169 13.5105 63.0169C13.4112 63.0169 13.3297 62.9918 13.2659 62.9416C13.2022 62.8908 13.155 62.818 13.1246 62.7233C13.0941 62.6279 13.0789 62.5139 13.0789 62.3813C13.0789 62.2476 13.0927 62.1334 13.1203 62.0386C13.1486 61.9432 13.1943 61.8702 13.2574 61.8194C13.3206 61.7686 13.405 61.7432 13.5105 61.7432C13.6092 61.7432 13.6905 61.7686 13.7542 61.8194C13.8186 61.8696 13.8662 61.9424 13.8973 62.0377C13.9283 62.1325 13.9438 62.2471 13.9438 62.3813ZM13.3387 62.3813C13.3387 62.4756 13.3438 62.5543 13.3539 62.6175C13.3646 62.6801 13.3824 62.7272 13.4072 62.7588C13.4321 62.7904 13.4665 62.8062 13.5105 62.8062C13.5539 62.8062 13.5881 62.7907 13.6129 62.7596C13.6383 62.7281 13.6563 62.6809 13.6671 62.6183C13.6778 62.5551 13.6831 62.4761 13.6831 62.3813C13.6831 62.2871 13.6778 62.2084 13.6671 62.1452C13.6563 62.082 13.6383 62.0346 13.6129 62.003C13.5881 61.9709 13.5539 61.9548 13.5105 61.9548C13.4665 61.9548 13.4321 61.9709 13.4072 62.003C13.3824 62.0346 13.3646 62.082 13.3539 62.1452C13.3438 62.2084 13.3387 62.2871 13.3387 62.3813ZM14.9357 62.3813C14.9357 62.4812 14.9278 62.5704 14.912 62.6488C14.8968 62.7272 14.8719 62.7938 14.8375 62.8485C14.8037 62.9032 14.7591 62.945 14.7038 62.9738C14.6485 63.0025 14.5814 63.0169 14.5024 63.0169C14.4031 63.0169 14.3215 62.9918 14.2578 62.9416C14.194 62.8908 14.1469 62.818 14.1165 62.7233C14.086 62.6279 14.0708 62.5139 14.0708 62.3813C14.0708 62.2476 14.0846 62.1334 14.1122 62.0386C14.1404 61.9432 14.1861 61.8702 14.2493 61.8194C14.3125 61.7686 14.3969 61.7432 14.5024 61.7432C14.6011 61.7432 14.6824 61.7686 14.7461 61.8194C14.8104 61.8696 14.8581 61.9424 14.8891 62.0377C14.9202 62.1325 14.9357 62.2471 14.9357 62.3813ZM14.3306 62.3813C14.3306 62.4756 14.3356 62.5543 14.3458 62.6175C14.3565 62.6801 14.3743 62.7272 14.3991 62.7588C14.4239 62.7904 14.4584 62.8062 14.5024 62.8062C14.5458 62.8062 14.5799 62.7907 14.6048 62.7596C14.6302 62.7281 14.6482 62.6809 14.6589 62.6183C14.6697 62.5551 14.675 62.4761 14.675 62.3813C14.675 62.2871 14.6697 62.2084 14.6589 62.1452C14.6482 62.082 14.6302 62.0346 14.6048 62.003C14.5799 61.9709 14.5458 61.9548 14.5024 61.9548C14.4584 61.9548 14.4239 61.9709 14.3991 62.003C14.3743 62.0346 14.3565 62.082 14.3458 62.1452C14.3356 62.2084 14.3306 62.2871 14.3306 62.3813ZM14.9357 65.3813C14.9357 65.4812 14.9278 65.5704 14.912 65.6488C14.8968 65.7272 14.8719 65.7938 14.8375 65.8485C14.8037 65.9032 14.7591 65.945 14.7038 65.9738C14.6485 66.0025 14.5814 66.0169 14.5024 66.0169C14.4031 66.0169 14.3215 65.9918 14.2578 65.9416C14.194 65.8908 14.1469 65.818 14.1165 65.7233C14.086 65.6279 14.0708 65.5139 14.0708 65.3813C14.0708 65.2476 14.0846 65.1334 14.1122 65.0386C14.1404 64.9432 14.1861 64.8702 14.2493 64.8194C14.3125 64.7686 14.3969 64.7432 14.5024 64.7432C14.6011 64.7432 14.6824 64.7686 14.7461 64.8194C14.8104 64.8696 14.8581 64.9424 14.8891 65.0377C14.9202 65.1325 14.9357 65.2471 14.9357 65.3813ZM14.3306 65.3813C14.3306 65.4756 14.3356 65.5543 14.3458 65.6175C14.3565 65.6801 14.3743 65.7272 14.3991 65.7588C14.4239 65.7904 14.4584 65.8062 14.5024 65.8062C14.5458 65.8062 14.5799 65.7907 14.6048 65.7596C14.6302 65.7281 14.6482 65.6809 14.6589 65.6183C14.6697 65.5551 14.675 65.4761 14.675 65.3813C14.675 65.2871 14.6697 65.2084 14.6589 65.1452C14.6482 65.082 14.6302 65.0346 14.6048 65.003C14.5799 64.9709 14.5458 64.9548 14.5024 64.9548C14.4584 64.9548 14.4239 64.9709 14.3991 65.003C14.3743 65.0346 14.3565 65.082 14.3458 65.1452C14.3356 65.2084 14.3306 65.2871 14.3306 65.3813Z" fill="#222539"/>
<circle cx="76.8491" cy="24.9028" r="0.754379" fill="#4953AC"/>
<circle cx="69.8091" cy="27.6684" r="0.754379" fill="#4953AC"/>
<circle cx="65.9097" cy="30.4341" r="0.754379" fill="#4953AC"/>
<circle cx="64.2759" cy="33.2036" r="0.754379" fill="#4953AC"/>
<circle cx="62.7671" cy="35.9692" r="0.754379" fill="#4953AC"/>
<circle cx="57.6128" cy="38.7348" r="0.754379" fill="#4953AC"/>
<circle cx="52.8354" cy="41.4966" r="0.754379" fill="#4953AC"/>
<g filter="url(#filter0_d_7800_45229)">
<circle cx="50.9502" cy="44.2627" r="1.50876" fill="#4953AC"/>
<circle cx="50.9502" cy="44.2627" r="1.69735" stroke="white" stroke-width="0.377189"/>
</g>
<circle cx="46.5493" cy="47.0317" r="0.754379" fill="#4953AC"/>
<circle cx="42.9028" cy="49.7973" r="0.754379" fill="#4953AC"/>
<circle cx="40.7661" cy="52.563" r="0.754379" fill="#4953AC"/>
<circle cx="39.6333" cy="55.3286" r="0.754379" fill="#4953AC"/>
<circle cx="32.3403" cy="58.0942" r="0.754379" fill="#4953AC"/>
<circle cx="30.3296" cy="60.8638" r="0.754379" fill="#4953AC"/>
<circle cx="27.8159" cy="63.6294" r="0.754379" fill="#4953AC"/>
<circle cx="21.7798" cy="66.395" r="0.754379" fill="#4953AC"/>
<g filter="url(#filter1_d_7800_45229)">
<rect x="48.2646" y="46.6992" width="5.84969" height="3.24983" rx="0.502919" fill="#212121" shape-rendering="crispEdges"/>
<path d="M49.9486 47.2564C50.0381 47.2564 50.1189 47.2705 50.1908 47.2987C50.2627 47.3263 50.3199 47.3675 50.3622 47.4225C50.4045 47.4775 50.4257 47.5456 50.4257 47.6267C50.4257 47.6895 50.4126 47.7441 50.3865 47.7907C50.3611 47.8372 50.3266 47.8781 50.2828 47.9134C50.2391 47.9479 50.1901 47.9786 50.1358 48.0054C50.1965 48.035 50.2522 48.0692 50.3029 48.108C50.3544 48.1461 50.3957 48.1909 50.4267 48.2424C50.4585 48.2939 50.4743 48.3542 50.4743 48.4233C50.4743 48.51 50.4521 48.5851 50.4077 48.6486C50.3639 48.7114 50.3029 48.76 50.2247 48.7946C50.1464 48.8285 50.055 48.8454 49.9507 48.8454C49.8385 48.8454 49.743 48.8288 49.664 48.7957C49.585 48.7625 49.525 48.7153 49.4841 48.6539C49.4432 48.5918 49.4228 48.5178 49.4228 48.4317C49.4228 48.3605 49.4369 48.2988 49.4651 48.2466C49.4933 48.1944 49.531 48.1493 49.5783 48.1112C49.6262 48.0731 49.6788 48.041 49.7359 48.0149C49.6873 47.986 49.6428 47.9536 49.6026 47.9176C49.5624 47.8809 49.5303 47.839 49.5064 47.7917C49.4831 47.7438 49.4714 47.6884 49.4714 47.6256C49.4714 47.5452 49.493 47.4779 49.536 47.4236C49.579 47.3686 49.6365 47.327 49.7084 47.2987C49.7811 47.2705 49.8611 47.2564 49.9486 47.2564ZM49.6597 48.4222C49.6597 48.4899 49.6837 48.5456 49.7317 48.5894C49.7796 48.6331 49.8512 48.655 49.9464 48.655C50.0409 48.655 50.1129 48.6334 50.1622 48.5904C50.2116 48.5474 50.2363 48.4906 50.2363 48.4201C50.2363 48.375 50.2236 48.3351 50.1982 48.3006C50.1735 48.266 50.14 48.2353 50.0977 48.2085C50.0561 48.181 50.0099 48.1556 49.9591 48.1324L49.9253 48.1186C49.8703 48.1419 49.823 48.1683 49.7835 48.198C49.744 48.2269 49.7133 48.2597 49.6915 48.2963C49.6703 48.333 49.6597 48.375 49.6597 48.4222ZM49.9464 47.4479C49.878 47.4479 49.8216 47.4648 49.7772 47.4987C49.7334 47.5318 49.7116 47.5798 49.7116 47.6426C49.7116 47.687 49.7222 47.7251 49.7433 47.7568C49.7652 47.7885 49.7945 47.8161 49.8311 47.8393C49.8678 47.8619 49.9084 47.8831 49.9528 47.9028C49.9958 47.8838 50.0346 47.863 50.0692 47.8404C50.1044 47.8171 50.1323 47.7896 50.1527 47.7579C50.1739 47.7254 50.1845 47.6866 50.1845 47.6415C50.1845 47.5794 50.1622 47.5318 50.1178 47.4987C50.0741 47.4648 50.017 47.4479 49.9464 47.4479ZM51.7142 48.0498C51.7142 48.1747 51.7043 48.2865 51.6845 48.3852C51.6655 48.4832 51.6352 48.5664 51.5936 48.6349C51.552 48.7033 51.4977 48.7555 51.4307 48.7914C51.3637 48.8274 51.2825 48.8454 51.1873 48.8454C51.0681 48.8454 50.9698 48.814 50.8922 48.7512C50.8146 48.6878 50.7571 48.5968 50.7198 48.4783C50.6824 48.3591 50.6637 48.2163 50.6637 48.0498C50.6637 47.8834 50.6806 47.7409 50.7145 47.6225C50.749 47.5033 50.8047 47.4119 50.8816 47.3485C50.9585 47.285 51.0604 47.2533 51.1873 47.2533C51.3072 47.2533 51.406 47.285 51.4835 47.3485C51.5618 47.4112 51.6197 47.5022 51.657 47.6214C51.6951 47.7399 51.7142 47.8827 51.7142 48.0498ZM50.9144 48.0498C50.9144 48.1803 50.9229 48.2893 50.9398 48.3767C50.9574 48.4642 50.9863 48.5298 51.0265 48.5735C51.0667 48.6165 51.1203 48.638 51.1873 48.638C51.2543 48.638 51.3079 48.6165 51.3481 48.5735C51.3883 48.5305 51.4173 48.4652 51.4349 48.3778C51.4532 48.2903 51.4624 48.181 51.4624 48.0498C51.4624 47.9201 51.4536 47.8115 51.4359 47.724C51.4183 47.6366 51.3894 47.571 51.3492 47.5273C51.309 47.4828 51.255 47.4606 51.1873 47.4606C51.1196 47.4606 51.0657 47.4828 51.0255 47.5273C50.986 47.571 50.9574 47.6366 50.9398 47.724C50.9229 47.8115 50.9144 47.9201 50.9144 48.0498ZM52.954 48.0498C52.954 48.1747 52.9441 48.2865 52.9244 48.3852C52.9053 48.4832 52.875 48.5664 52.8334 48.6349C52.7918 48.7033 52.7375 48.7555 52.6705 48.7914C52.6035 48.8274 52.5224 48.8454 52.4272 48.8454C52.308 48.8454 52.2096 48.814 52.132 48.7512C52.0545 48.6878 51.997 48.5968 51.9596 48.4783C51.9222 48.3591 51.9035 48.2163 51.9035 48.0498C51.9035 47.8834 51.9205 47.7409 51.9543 47.6225C51.9889 47.5033 52.0446 47.4119 52.1215 47.3485C52.1983 47.285 52.3002 47.2533 52.4272 47.2533C52.5471 47.2533 52.6458 47.285 52.7234 47.3485C52.8017 47.4112 52.8595 47.5022 52.8969 47.6214C52.935 47.7399 52.954 47.8827 52.954 48.0498ZM52.1542 48.0498C52.1542 48.1803 52.1627 48.2893 52.1796 48.3767C52.1973 48.4642 52.2262 48.5298 52.2664 48.5735C52.3066 48.6165 52.3602 48.638 52.4272 48.638C52.4942 48.638 52.5478 48.6165 52.588 48.5735C52.6282 48.5305 52.6571 48.4652 52.6747 48.3778C52.6931 48.2903 52.7022 48.181 52.7022 48.0498C52.7022 47.9201 52.6934 47.8115 52.6758 47.724C52.6582 47.6366 52.6292 47.571 52.589 47.5273C52.5488 47.4828 52.4949 47.4606 52.4272 47.4606C52.3595 47.4606 52.3055 47.4828 52.2653 47.5273C52.2258 47.571 52.1973 47.6366 52.1796 47.724C52.1627 47.8115 52.1542 47.9201 52.1542 48.0498Z" fill="white"/>
</g>
<defs>
<filter id="filter0_d_7800_45229" x="48.5615" y="41.9978" width="4.77732" height="4.77928" filterUnits="userSpaceOnUse" color-interpolation-filters="sRGB">
<feFlood flood-opacity="0" result="BackgroundImageFix"/>
<feColorMatrix in="SourceAlpha" type="matrix" values="0 0 0 0 0 0 0 0 0 0 0 0 0 0 0 0 0 0 127 0" result="hardAlpha"/>
<feOffset dy="0.12573"/>
<feGaussianBlur stdDeviation="0.251459"/>
<feComposite in2="hardAlpha" operator="out"/>
<feColorMatrix type="matrix" values="0 0 0 0 0 0 0 0 0 0 0 0 0 0 0 0 0 0 0.25 0"/>
<feBlend mode="normal" in2="BackgroundImageFix" result="effect1_dropShadow_7800_45229"/>
<feBlend mode="normal" in="SourceGraphic" in2="effect1_dropShadow_7800_45229" result="shape"/>
</filter>
<filter id="filter1_d_7800_45229" x="44.2646" y="43.6992" width="13.8496" height="11.25" filterUnits="userSpaceOnUse" color-interpolation-filters="sRGB">
<feFlood flood-opacity="0" result="BackgroundImageFix"/>
<feColorMatrix in="SourceAlpha" type="matrix" values="0 0 0 0 0 0 0 0 0 0 0 0 0 0 0 0 0 0 127 0" result="hardAlpha"/>
<feOffset dy="1"/>
<feGaussianBlur stdDeviation="2"/>
<feComposite in2="hardAlpha" operator="out"/>
<feColorMatrix type="matrix" values="0 0 0 0 0 0 0 0 0 0 0 0 0 0 0 0 0 0 0.25 0"/>
<feBlend mode="normal" in2="BackgroundImageFix" result="effect1_dropShadow_7800_45229"/>
<feBlend mode="normal" in="SourceGraphic" in2="effect1_dropShadow_7800_45229" result="shape"/>
</filter>
</defs>
</svg>
