<svg width="92" height="92" viewBox="0 0 92 92" fill="none" xmlns="http://www.w3.org/2000/svg">
<rect x="0.389831" y="0.389831" width="91.079" height="91.2203" rx="17.5424" stroke="#BEBEBE" stroke-width="0.779661"/>
<g clip-path="url(#clip0_7813_60661)">
<rect width="70" height="62.9242" transform="translate(11.5 11.0371)" fill="white"/>
<path d="M19.0811 17.1035V65.8761" stroke="#E0E0E0" stroke-width="0.252708"/>
<path d="M27.2945 65.8761C27.2945 65.9459 27.3511 66.0024 27.4209 66.0024C27.4907 66.0024 27.5473 65.9459 27.5473 65.8761H27.2945ZM27.4209 17.1035H27.2945V65.8761H27.4209H27.5473V17.1035H27.4209Z" fill="#E0E0E0"/>
<path d="M35.6334 65.8761C35.6334 65.9459 35.69 66.0024 35.7598 66.0024C35.8295 66.0024 35.8861 65.9459 35.8861 65.8761H35.6334ZM35.7598 17.1035H35.6334V65.8761H35.7598H35.8861V17.1035H35.7598Z" fill="#E0E0E0"/>
<path d="M43.9733 65.8761C43.9733 65.9459 44.0298 66.0024 44.0996 66.0024C44.1694 66.0024 44.226 65.9459 44.226 65.8761H43.9733ZM44.0996 17.1035H43.9733V65.8761H44.0996H44.226V17.1035H44.0996Z" fill="#E0E0E0"/>
<path d="M52.3121 65.8761C52.3121 65.9459 52.3687 66.0024 52.4385 66.0024C52.5083 66.0024 52.5648 65.9459 52.5648 65.8761H52.3121ZM52.4385 17.1035H52.3121V65.8761H52.4385H52.5648V17.1035H52.4385Z" fill="#E0E0E0"/>
<path d="M60.652 65.8761C60.652 65.9459 60.7085 66.0024 60.7783 66.0024C60.8481 66.0024 60.9047 65.9459 60.9047 65.8761H60.652ZM60.7783 17.1035H60.652V65.8761H60.7783H60.9047V17.1035H60.7783Z" fill="#E0E0E0"/>
<path d="M68.9908 65.8761C68.9908 65.9459 69.0474 66.0024 69.1172 66.0024C69.187 66.0024 69.2435 65.9459 69.2435 65.8761H68.9908ZM69.1172 17.1035H68.9908V65.8761H69.1172H69.2435V17.1035H69.1172Z" fill="#E0E0E0"/>
<path d="M77.3307 65.8761C77.3307 65.9459 77.3872 66.0024 77.457 66.0024C77.5268 66.0024 77.5834 65.9459 77.5834 65.8761H77.3307ZM77.457 17.1035H77.3307V65.8761H77.457H77.5834V17.1035H77.457Z" fill="#E0E0E0"/>
<path d="M19.208 62.3376L27.421 33.6373L35.8298 43.1226L44.0997 28.705L52.4391 36.6726L60.8479 53.2402L69.1872 34.3961L77.4571 23.168" stroke="#6C5BFF" stroke-width="0.505415"/>
<path d="M27.4209 32.3916C28.0489 32.3917 28.5576 32.9013 28.5576 33.5293C28.5575 34.1572 28.0488 34.6659 27.4209 34.666C26.7929 34.666 26.2833 34.1573 26.2832 33.5293C26.2832 32.9012 26.7928 32.3916 27.4209 32.3916Z" fill="white" stroke="#6C5BFF" stroke-width="0.252708"/>
<path d="M27.4212 34.2877C27.8399 34.2877 28.1793 33.9483 28.1793 33.5296C28.1793 33.1109 27.8399 32.7715 27.4212 32.7715C27.0025 32.7715 26.6631 33.1109 26.6631 33.5296C26.6631 33.9483 27.0025 34.2877 27.4212 34.2877Z" fill="#6C5BFF"/>
<path d="M69.1175 35.0455C69.5362 35.0455 69.8756 34.7061 69.8756 34.2874C69.8756 33.8687 69.5362 33.5293 69.1175 33.5293C68.6988 33.5293 68.3594 33.8687 68.3594 34.2874C68.3594 34.7061 68.6988 35.0455 69.1175 35.0455Z" fill="#6C5BFF"/>
<path d="M77.4564 23.9537C77.8751 23.9537 78.2145 23.6143 78.2145 23.1956C78.2145 22.7769 77.8751 22.4375 77.4564 22.4375C77.0377 22.4375 76.6982 22.7769 76.6982 23.1956C76.6982 23.6143 77.0377 23.9537 77.4564 23.9537Z" fill="#6C5BFF"/>
<path d="M12.9724 19.1035H12.0267V18.9663L12.4127 18.5744C12.4844 18.502 12.5446 18.4375 12.5933 18.3809C12.6427 18.3243 12.6802 18.2687 12.7058 18.2141C12.7315 18.1588 12.7443 18.0983 12.7443 18.0325C12.7443 17.9509 12.72 17.8887 12.6713 17.8459C12.6232 17.8025 12.5597 17.7807 12.4808 17.7807C12.4117 17.7807 12.3505 17.7926 12.2972 17.8163C12.2439 17.84 12.1892 17.8735 12.1333 17.917L12.0454 17.8064C12.0836 17.7742 12.1251 17.7455 12.1698 17.7205C12.2152 17.6955 12.2636 17.6758 12.3149 17.6613C12.3669 17.6468 12.4222 17.6396 12.4808 17.6396C12.5696 17.6396 12.6463 17.6551 12.7108 17.686C12.7753 17.7169 12.8249 17.761 12.8598 17.8183C12.8954 17.8755 12.9131 17.9436 12.9131 18.0226C12.9131 18.0989 12.898 18.17 12.8677 18.2358C12.8375 18.301 12.795 18.3658 12.7404 18.4303C12.6858 18.4941 12.6219 18.5619 12.5489 18.6336L12.235 18.9466V18.9535H12.9724V19.1035ZM13.6397 18.221C13.7377 18.221 13.8229 18.2378 13.8953 18.2714C13.9677 18.3043 14.0237 18.3523 14.0631 18.4155C14.1033 18.4787 14.1234 18.5553 14.1234 18.6455C14.1234 18.7442 14.102 18.8294 14.0592 18.9012C14.0164 18.9722 13.9549 19.0272 13.8746 19.066C13.7943 19.1042 13.6982 19.1233 13.5864 19.1233C13.5113 19.1233 13.4416 19.1167 13.3771 19.1035C13.3126 19.0904 13.2583 19.0706 13.2142 19.0443V18.8883C13.2622 18.9173 13.3205 18.9403 13.3889 18.9574C13.4574 18.9745 13.5238 18.9831 13.5883 18.9831C13.6614 18.9831 13.7252 18.9716 13.7798 18.9485C13.8351 18.9248 13.8779 18.8893 13.9082 18.8419C13.9391 18.7939 13.9546 18.7337 13.9546 18.6613C13.9546 18.5652 13.9249 18.4912 13.8657 18.4392C13.8072 18.3865 13.7144 18.3602 13.5873 18.3602C13.5465 18.3602 13.5018 18.3635 13.4531 18.3701C13.4044 18.3767 13.3643 18.3839 13.3327 18.3918L13.2497 18.3375L13.305 17.6603H14.0227V17.8104H13.4452L13.4087 18.2457C13.4337 18.2404 13.4659 18.2352 13.5054 18.2299C13.5449 18.224 13.5897 18.221 13.6397 18.221ZM15.2941 18.3799C15.2941 18.4971 15.2852 18.6017 15.2675 18.6939C15.2497 18.786 15.2217 18.864 15.1836 18.9278C15.1454 18.9916 15.096 19.0403 15.0355 19.0739C14.9749 19.1068 14.9022 19.1233 14.8173 19.1233C14.7101 19.1233 14.6212 19.094 14.5508 19.0354C14.481 18.9768 14.4287 18.8923 14.3938 18.7817C14.3596 18.6705 14.3425 18.5366 14.3425 18.3799C14.3425 18.2259 14.358 18.0937 14.3889 17.9831C14.4205 17.8719 14.4712 17.7867 14.5409 17.7274C14.6107 17.6676 14.7028 17.6376 14.8173 17.6376C14.9259 17.6376 15.0154 17.6672 15.0858 17.7265C15.1562 17.785 15.2086 17.8699 15.2428 17.9811C15.277 18.0917 15.2941 18.2246 15.2941 18.3799ZM14.5074 18.3799C14.5074 18.5142 14.5176 18.6261 14.538 18.7156C14.5584 18.8051 14.5913 18.8722 14.6367 18.9169C14.6827 18.961 14.743 18.9831 14.8173 18.9831C14.8917 18.9831 14.9516 18.961 14.997 18.9169C15.043 18.8729 15.0763 18.8061 15.0967 18.7166C15.1177 18.6271 15.1283 18.5149 15.1283 18.3799C15.1283 18.2477 15.1181 18.1371 15.0977 18.0483C15.0773 17.9588 15.0444 17.8916 14.999 17.8469C14.9535 17.8015 14.893 17.7788 14.8173 17.7788C14.7416 17.7788 14.6811 17.8015 14.6357 17.8469C14.5903 17.8916 14.5574 17.9588 14.537 18.0483C14.5172 18.1371 14.5074 18.2477 14.5074 18.3799ZM16.451 18.3799C16.451 18.4971 16.4422 18.6017 16.4244 18.6939C16.4066 18.786 16.3786 18.864 16.3405 18.9278C16.3023 18.9916 16.253 19.0403 16.1924 19.0739C16.1319 19.1068 16.0591 19.1233 15.9742 19.1233C15.867 19.1233 15.7781 19.094 15.7077 19.0354C15.638 18.9768 15.5856 18.8923 15.5508 18.7817C15.5165 18.6705 15.4994 18.5366 15.4994 18.3799C15.4994 18.2259 15.5149 18.0937 15.5458 17.9831C15.5774 17.8719 15.6281 17.7867 15.6979 17.7274C15.7676 17.6676 15.8597 17.6376 15.9742 17.6376C16.0828 17.6376 16.1723 17.6672 16.2428 17.7265C16.3132 17.785 16.3655 17.8699 16.3997 17.9811C16.4339 18.0917 16.451 18.2246 16.451 18.3799ZM15.6643 18.3799C15.6643 18.5142 15.6745 18.6261 15.6949 18.7156C15.7153 18.8051 15.7482 18.8722 15.7936 18.9169C15.8397 18.961 15.8999 18.9831 15.9742 18.9831C16.0486 18.9831 16.1085 18.961 16.1539 18.9169C16.2 18.8729 16.2332 18.8061 16.2536 18.7166C16.2747 18.6271 16.2852 18.5149 16.2852 18.3799C16.2852 18.2477 16.275 18.1371 16.2546 18.0483C16.2342 17.9588 16.2013 17.8916 16.1559 17.8469C16.1105 17.8015 16.0499 17.7788 15.9742 17.7788C15.8986 17.7788 15.838 17.8015 15.7926 17.8469C15.7472 17.8916 15.7143 17.9588 15.6939 18.0483C15.6742 18.1371 15.6643 18.2477 15.6643 18.3799Z" fill="#212121"/>
<path d="M12.9724 26.6523H12.0267V26.5151L12.4127 26.1232C12.4844 26.0508 12.5446 25.9864 12.5933 25.9298C12.6427 25.8732 12.6802 25.8176 12.7058 25.7629C12.7315 25.7077 12.7443 25.6471 12.7443 25.5813C12.7443 25.4997 12.72 25.4375 12.6713 25.3947C12.6232 25.3513 12.5597 25.3296 12.4808 25.3296C12.4117 25.3296 12.3505 25.3414 12.2972 25.3651C12.2439 25.3888 12.1892 25.4224 12.1333 25.4658L12.0454 25.3552C12.0836 25.323 12.1251 25.2944 12.1698 25.2694C12.2152 25.2444 12.2636 25.2246 12.3149 25.2101C12.3669 25.1957 12.4222 25.1884 12.4808 25.1884C12.5696 25.1884 12.6463 25.2039 12.7108 25.2348C12.7753 25.2657 12.8249 25.3098 12.8598 25.3671C12.8954 25.4243 12.9131 25.4925 12.9131 25.5714C12.9131 25.6478 12.898 25.7188 12.8677 25.7846C12.8375 25.8498 12.795 25.9146 12.7404 25.9791C12.6858 26.0429 12.6219 26.1107 12.5489 26.1825L12.235 26.4954V26.5023H12.9724V26.6523ZM14.1372 25.9288C14.1372 26.0459 14.1283 26.1505 14.1105 26.2427C14.0928 26.3348 14.0648 26.4128 14.0266 26.4766C13.9885 26.5405 13.9391 26.5892 13.8786 26.6227C13.818 26.6556 13.7453 26.6721 13.6604 26.6721C13.5531 26.6721 13.4643 26.6428 13.3939 26.5842C13.3241 26.5257 13.2718 26.4411 13.2369 26.3305C13.2027 26.2193 13.1856 26.0854 13.1856 25.9288C13.1856 25.7748 13.201 25.6425 13.232 25.5319C13.2636 25.4207 13.3142 25.3355 13.384 25.2763C13.4538 25.2164 13.5459 25.1864 13.6604 25.1864C13.769 25.1864 13.8585 25.2161 13.9289 25.2753C13.9993 25.3339 14.0516 25.4187 14.0859 25.53C14.1201 25.6405 14.1372 25.7735 14.1372 25.9288ZM13.3504 25.9288C13.3504 26.063 13.3606 26.1749 13.381 26.2644C13.4014 26.3539 13.4343 26.421 13.4797 26.4658C13.5258 26.5099 13.586 26.5319 13.6604 26.5319C13.7348 26.5319 13.7946 26.5099 13.8401 26.4658C13.8861 26.4217 13.9194 26.3549 13.9398 26.2654C13.9608 26.1759 13.9713 26.0637 13.9713 25.9288C13.9713 25.7965 13.9611 25.6859 13.9407 25.5971C13.9203 25.5076 13.8874 25.4405 13.842 25.3957C13.7966 25.3503 13.7361 25.3276 13.6604 25.3276C13.5847 25.3276 13.5242 25.3503 13.4788 25.3957C13.4334 25.4405 13.4004 25.5076 13.38 25.5971C13.3603 25.6859 13.3504 25.7965 13.3504 25.9288ZM15.2941 25.9288C15.2941 26.0459 15.2852 26.1505 15.2675 26.2427C15.2497 26.3348 15.2217 26.4128 15.1836 26.4766C15.1454 26.5405 15.096 26.5892 15.0355 26.6227C14.9749 26.6556 14.9022 26.6721 14.8173 26.6721C14.7101 26.6721 14.6212 26.6428 14.5508 26.5842C14.481 26.5257 14.4287 26.4411 14.3938 26.3305C14.3596 26.2193 14.3425 26.0854 14.3425 25.9288C14.3425 25.7748 14.358 25.6425 14.3889 25.5319C14.4205 25.4207 14.4712 25.3355 14.5409 25.2763C14.6107 25.2164 14.7028 25.1864 14.8173 25.1864C14.9259 25.1864 15.0154 25.2161 15.0858 25.2753C15.1562 25.3339 15.2086 25.4187 15.2428 25.53C15.277 25.6405 15.2941 25.7735 15.2941 25.9288ZM14.5074 25.9288C14.5074 26.063 14.5176 26.1749 14.538 26.2644C14.5584 26.3539 14.5913 26.421 14.6367 26.4658C14.6827 26.5099 14.743 26.5319 14.8173 26.5319C14.8917 26.5319 14.9516 26.5099 14.997 26.4658C15.043 26.4217 15.0763 26.3549 15.0967 26.2654C15.1177 26.1759 15.1283 26.0637 15.1283 25.9288C15.1283 25.7965 15.1181 25.6859 15.0977 25.5971C15.0773 25.5076 15.0444 25.4405 14.999 25.3957C14.9535 25.3503 14.893 25.3276 14.8173 25.3276C14.7416 25.3276 14.6811 25.3503 14.6357 25.3957C14.5903 25.4405 14.5574 25.5076 14.537 25.5971C14.5172 25.6859 14.5074 25.7965 14.5074 25.9288ZM16.451 25.9288C16.451 26.0459 16.4422 26.1505 16.4244 26.2427C16.4066 26.3348 16.3786 26.4128 16.3405 26.4766C16.3023 26.5405 16.253 26.5892 16.1924 26.6227C16.1319 26.6556 16.0591 26.6721 15.9742 26.6721C15.867 26.6721 15.7781 26.6428 15.7077 26.5842C15.638 26.5257 15.5856 26.4411 15.5508 26.3305C15.5165 26.2193 15.4994 26.0854 15.4994 25.9288C15.4994 25.7748 15.5149 25.6425 15.5458 25.5319C15.5774 25.4207 15.6281 25.3355 15.6979 25.2763C15.7676 25.2164 15.8597 25.1864 15.9742 25.1864C16.0828 25.1864 16.1723 25.2161 16.2428 25.2753C16.3132 25.3339 16.3655 25.4187 16.3997 25.53C16.4339 25.6405 16.451 25.7735 16.451 25.9288ZM15.6643 25.9288C15.6643 26.063 15.6745 26.1749 15.6949 26.2644C15.7153 26.3539 15.7482 26.421 15.7936 26.4658C15.8397 26.5099 15.8999 26.5319 15.9742 26.5319C16.0486 26.5319 16.1085 26.5099 16.1539 26.4658C16.2 26.4217 16.2332 26.3549 16.2536 26.2654C16.2747 26.1759 16.2852 26.0637 16.2852 25.9288C16.2852 25.7965 16.275 25.6859 16.2546 25.5971C16.2342 25.5076 16.2013 25.4405 16.1559 25.3957C16.1105 25.3503 16.0499 25.3276 15.9742 25.3276C15.8986 25.3276 15.838 25.3503 15.7926 25.3957C15.7472 25.4405 15.7143 25.5076 15.6939 25.5971C15.6742 25.6859 15.6643 25.7965 15.6643 25.9288Z" fill="#212121"/>
<path d="M12.6367 34.2012H12.4768V33.1785C12.4768 33.1397 12.4768 33.1064 12.4768 33.0788C12.4775 33.0505 12.4781 33.0248 12.4788 33.0018C12.4801 32.9781 12.4818 32.9541 12.4837 32.9297C12.4633 32.9508 12.4442 32.9689 12.4265 32.984C12.4087 32.9985 12.3867 33.0166 12.3603 33.0383L12.1955 33.1706L12.1096 33.0591L12.5005 32.758H12.6367V34.2012ZM13.6397 33.3187C13.7377 33.3187 13.8229 33.3355 13.8953 33.369C13.9677 33.4019 14.0237 33.45 14.0631 33.5131C14.1033 33.5763 14.1234 33.653 14.1234 33.7431C14.1234 33.8419 14.102 33.9271 14.0592 33.9988C14.0164 34.0699 13.9549 34.1248 13.8746 34.1637C13.7943 34.2018 13.6982 34.2209 13.5864 34.2209C13.5113 34.2209 13.4416 34.2143 13.3771 34.2012C13.3126 34.188 13.2583 34.1683 13.2142 34.1419V33.986C13.2622 34.0149 13.3205 34.038 13.3889 34.0551C13.4574 34.0722 13.5238 34.0807 13.5883 34.0807C13.6614 34.0807 13.7252 34.0692 13.7798 34.0462C13.8351 34.0225 13.8779 33.987 13.9082 33.9396C13.9391 33.8915 13.9546 33.8313 13.9546 33.7589C13.9546 33.6629 13.9249 33.5888 13.8657 33.5368C13.8072 33.4842 13.7144 33.4579 13.5873 33.4579C13.5465 33.4579 13.5018 33.4611 13.4531 33.4677C13.4044 33.4743 13.3643 33.4815 13.3327 33.4894L13.2497 33.4352L13.305 32.758H14.0227V32.908H13.4452L13.4087 33.3433C13.4337 33.3381 13.4659 33.3328 13.5054 33.3276C13.5449 33.3216 13.5897 33.3187 13.6397 33.3187ZM15.2941 33.4776C15.2941 33.5947 15.2852 33.6994 15.2675 33.7915C15.2497 33.8836 15.2217 33.9616 15.1836 34.0255C15.1454 34.0893 15.096 34.138 15.0355 34.1716C14.9749 34.2045 14.9022 34.2209 14.8173 34.2209C14.7101 34.2209 14.6212 34.1916 14.5508 34.1331C14.481 34.0745 14.4287 33.9899 14.3938 33.8794C14.3596 33.7681 14.3425 33.6342 14.3425 33.4776C14.3425 33.3236 14.358 33.1913 14.3889 33.0808C14.4205 32.9696 14.4712 32.8843 14.5409 32.8251C14.6107 32.7652 14.7028 32.7353 14.8173 32.7353C14.9259 32.7353 15.0154 32.7649 15.0858 32.8241C15.1562 32.8827 15.2086 32.9676 15.2428 33.0788C15.277 33.1894 15.2941 33.3223 15.2941 33.4776ZM14.5074 33.4776C14.5074 33.6118 14.5176 33.7237 14.538 33.8132C14.5584 33.9027 14.5913 33.9699 14.6367 34.0146C14.6827 34.0587 14.743 34.0807 14.8173 34.0807C14.8917 34.0807 14.9516 34.0587 14.997 34.0146C15.043 33.9705 15.0763 33.9037 15.0967 33.8142C15.1177 33.7247 15.1283 33.6125 15.1283 33.4776C15.1283 33.3453 15.1181 33.2348 15.0977 33.1459C15.0773 33.0564 15.0444 32.9893 14.999 32.9445C14.9535 32.8991 14.893 32.8764 14.8173 32.8764C14.7416 32.8764 14.6811 32.8991 14.6357 32.9445C14.5903 32.9893 14.5574 33.0564 14.537 33.1459C14.5172 33.2348 14.5074 33.3453 14.5074 33.4776ZM16.451 33.4776C16.451 33.5947 16.4422 33.6994 16.4244 33.7915C16.4066 33.8836 16.3786 33.9616 16.3405 34.0255C16.3023 34.0893 16.253 34.138 16.1924 34.1716C16.1319 34.2045 16.0591 34.2209 15.9742 34.2209C15.867 34.2209 15.7781 34.1916 15.7077 34.1331C15.638 34.0745 15.5856 33.9899 15.5508 33.8794C15.5165 33.7681 15.4994 33.6342 15.4994 33.4776C15.4994 33.3236 15.5149 33.1913 15.5458 33.0808C15.5774 32.9696 15.6281 32.8843 15.6979 32.8251C15.7676 32.7652 15.8597 32.7353 15.9742 32.7353C16.0828 32.7353 16.1723 32.7649 16.2428 32.8241C16.3132 32.8827 16.3655 32.9676 16.3997 33.0788C16.4339 33.1894 16.451 33.3223 16.451 33.4776ZM15.6643 33.4776C15.6643 33.6118 15.6745 33.7237 15.6949 33.8132C15.7153 33.9027 15.7482 33.9699 15.7936 34.0146C15.8397 34.0587 15.8999 34.0807 15.9742 34.0807C16.0486 34.0807 16.1085 34.0587 16.1539 34.0146C16.2 33.9705 16.2332 33.9037 16.2536 33.8142C16.2747 33.7247 16.2852 33.6125 16.2852 33.4776C16.2852 33.3453 16.275 33.2348 16.2546 33.1459C16.2342 33.0564 16.2013 32.9893 16.1559 32.9445C16.1105 32.8991 16.0499 32.8764 15.9742 32.8764C15.8986 32.8764 15.838 32.8991 15.7926 32.9445C15.7472 32.9893 15.7143 33.0564 15.6939 33.1459C15.6742 33.2348 15.6643 33.3453 15.6643 33.4776Z" fill="#212121"/>
<path d="M12.6367 41.75H12.4768V40.7273C12.4768 40.6885 12.4768 40.6553 12.4768 40.6276C12.4775 40.5993 12.4781 40.5737 12.4788 40.5506C12.4801 40.5269 12.4818 40.5029 12.4837 40.4786C12.4633 40.4996 12.4442 40.5177 12.4265 40.5329C12.4087 40.5473 12.3867 40.5654 12.3603 40.5872L12.1955 40.7194L12.1096 40.6079L12.5005 40.3068H12.6367V41.75ZM14.1372 41.0264C14.1372 41.1436 14.1283 41.2482 14.1105 41.3403C14.0928 41.4325 14.0648 41.5105 14.0266 41.5743C13.9885 41.6381 13.9391 41.6868 13.8786 41.7204C13.818 41.7533 13.7453 41.7697 13.6604 41.7697C13.5531 41.7697 13.4643 41.7405 13.3939 41.6819C13.3241 41.6233 13.2718 41.5388 13.2369 41.4282C13.2027 41.317 13.1856 41.1831 13.1856 41.0264C13.1856 40.8724 13.201 40.7402 13.232 40.6296C13.2636 40.5184 13.3142 40.4332 13.384 40.3739C13.4538 40.314 13.5459 40.2841 13.6604 40.2841C13.769 40.2841 13.8585 40.3137 13.9289 40.3729C13.9993 40.4315 14.0516 40.5164 14.0859 40.6276C14.1201 40.7382 14.1372 40.8711 14.1372 41.0264ZM13.3504 41.0264C13.3504 41.1607 13.3606 41.2726 13.381 41.3621C13.4014 41.4516 13.4343 41.5187 13.4797 41.5634C13.5258 41.6075 13.586 41.6296 13.6604 41.6296C13.7348 41.6296 13.7946 41.6075 13.8401 41.5634C13.8861 41.5193 13.9194 41.4525 13.9398 41.363C13.9608 41.2735 13.9713 41.1613 13.9713 41.0264C13.9713 40.8942 13.9611 40.7836 13.9407 40.6947C13.9203 40.6052 13.8874 40.5381 13.842 40.4934C13.7966 40.448 13.7361 40.4253 13.6604 40.4253C13.5847 40.4253 13.5242 40.448 13.4788 40.4934C13.4334 40.5381 13.4004 40.6052 13.38 40.6947C13.3603 40.7836 13.3504 40.8942 13.3504 41.0264ZM15.2941 41.0264C15.2941 41.1436 15.2852 41.2482 15.2675 41.3403C15.2497 41.4325 15.2217 41.5105 15.1836 41.5743C15.1454 41.6381 15.096 41.6868 15.0355 41.7204C14.9749 41.7533 14.9022 41.7697 14.8173 41.7697C14.7101 41.7697 14.6212 41.7405 14.5508 41.6819C14.481 41.6233 14.4287 41.5388 14.3938 41.4282C14.3596 41.317 14.3425 41.1831 14.3425 41.0264C14.3425 40.8724 14.358 40.7402 14.3889 40.6296C14.4205 40.5184 14.4712 40.4332 14.5409 40.3739C14.6107 40.314 14.7028 40.2841 14.8173 40.2841C14.9259 40.2841 15.0154 40.3137 15.0858 40.3729C15.1562 40.4315 15.2086 40.5164 15.2428 40.6276C15.277 40.7382 15.2941 40.8711 15.2941 41.0264ZM14.5074 41.0264C14.5074 41.1607 14.5176 41.2726 14.538 41.3621C14.5584 41.4516 14.5913 41.5187 14.6367 41.5634C14.6827 41.6075 14.743 41.6296 14.8173 41.6296C14.8917 41.6296 14.9516 41.6075 14.997 41.5634C15.043 41.5193 15.0763 41.4525 15.0967 41.363C15.1177 41.2735 15.1283 41.1613 15.1283 41.0264C15.1283 40.8942 15.1181 40.7836 15.0977 40.6947C15.0773 40.6052 15.0444 40.5381 14.999 40.4934C14.9535 40.448 14.893 40.4253 14.8173 40.4253C14.7416 40.4253 14.6811 40.448 14.6357 40.4934C14.5903 40.5381 14.5574 40.6052 14.537 40.6947C14.5172 40.7836 14.5074 40.8942 14.5074 41.0264ZM16.451 41.0264C16.451 41.1436 16.4422 41.2482 16.4244 41.3403C16.4066 41.4325 16.3786 41.5105 16.3405 41.5743C16.3023 41.6381 16.253 41.6868 16.1924 41.7204C16.1319 41.7533 16.0591 41.7697 15.9742 41.7697C15.867 41.7697 15.7781 41.7405 15.7077 41.6819C15.638 41.6233 15.5856 41.5388 15.5508 41.4282C15.5165 41.317 15.4994 41.1831 15.4994 41.0264C15.4994 40.8724 15.5149 40.7402 15.5458 40.6296C15.5774 40.5184 15.6281 40.4332 15.6979 40.3739C15.7676 40.314 15.8597 40.2841 15.9742 40.2841C16.0828 40.2841 16.1723 40.3137 16.2428 40.3729C16.3132 40.4315 16.3655 40.5164 16.3997 40.6276C16.4339 40.7382 16.451 40.8711 16.451 41.0264ZM15.6643 41.0264C15.6643 41.1607 15.6745 41.2726 15.6949 41.3621C15.7153 41.4516 15.7482 41.5187 15.7936 41.5634C15.8397 41.6075 15.8999 41.6296 15.9742 41.6296C16.0486 41.6296 16.1085 41.6075 16.1539 41.5634C16.2 41.5193 16.2332 41.4525 16.2536 41.363C16.2747 41.2735 16.2852 41.1613 16.2852 41.0264C16.2852 40.8942 16.275 40.7836 16.2546 40.6947C16.2342 40.6052 16.2013 40.5381 16.1559 40.4934C16.1105 40.448 16.0499 40.4253 15.9742 40.4253C15.8986 40.4253 15.838 40.448 15.7926 40.4934C15.7472 40.5381 15.7143 40.6052 15.6939 40.6947C15.6742 40.7836 15.6643 40.8942 15.6643 41.0264Z" fill="#212121"/>
<path d="M13.6395 48.4163C13.7375 48.4163 13.8228 48.4331 13.8952 48.4667C13.9675 48.4996 14.0235 48.5476 14.063 48.6108C14.1031 48.674 14.1232 48.7506 14.1232 48.8408C14.1232 48.9395 14.1018 49.0247 14.059 49.0965C14.0162 49.1675 13.9547 49.2225 13.8744 49.2613C13.7941 49.2995 13.6981 49.3186 13.5862 49.3186C13.5112 49.3186 13.4414 49.312 13.3769 49.2988C13.3124 49.2857 13.2581 49.2659 13.214 49.2396V49.0836C13.2621 49.1126 13.3203 49.1356 13.3888 49.1527C13.4572 49.1698 13.5237 49.1784 13.5882 49.1784C13.6612 49.1784 13.725 49.1669 13.7797 49.1438C13.8349 49.1202 13.8777 49.0846 13.908 49.0372C13.9389 48.9892 13.9544 48.929 13.9544 48.8566C13.9544 48.7605 13.9248 48.6865 13.8655 48.6345C13.807 48.5818 13.7142 48.5555 13.5872 48.5555C13.5464 48.5555 13.5016 48.5588 13.4529 48.5654C13.4042 48.572 13.3641 48.5792 13.3325 48.5871L13.2496 48.5328L13.3048 47.8556H14.0225V48.0057H13.445L13.4085 48.441C13.4335 48.4357 13.4657 48.4305 13.5052 48.4252C13.5447 48.4193 13.5895 48.4163 13.6395 48.4163ZM15.2939 48.5753C15.2939 48.6924 15.285 48.797 15.2673 48.8892C15.2495 48.9813 15.2215 49.0593 15.1834 49.1231C15.1452 49.187 15.0958 49.2357 15.0353 49.2692C14.9748 49.3021 14.902 49.3186 14.8171 49.3186C14.7099 49.3186 14.621 49.2893 14.5506 49.2307C14.4809 49.1721 14.4285 49.0876 14.3937 48.977C14.3594 48.8658 14.3423 48.7319 14.3423 48.5753C14.3423 48.4213 14.3578 48.289 14.3887 48.1784C14.4203 48.0672 14.471 47.982 14.5407 47.9228C14.6105 47.8629 14.7026 47.8329 14.8171 47.8329C14.9257 47.8329 15.0152 47.8625 15.0856 47.9218C15.1561 47.9803 15.2084 48.0652 15.2426 48.1765C15.2768 48.287 15.2939 48.4199 15.2939 48.5753ZM14.5072 48.5753C14.5072 48.7095 14.5174 48.8214 14.5378 48.9109C14.5582 49.0004 14.5911 49.0675 14.6365 49.1123C14.6826 49.1564 14.7428 49.1784 14.8171 49.1784C14.8915 49.1784 14.9514 49.1564 14.9968 49.1123C15.0429 49.0682 15.0761 49.0014 15.0965 48.9119C15.1176 48.8224 15.1281 48.7102 15.1281 48.5753C15.1281 48.443 15.1179 48.3324 15.0975 48.2436C15.0771 48.1541 15.0442 48.087 14.9988 48.0422C14.9534 47.9968 14.8928 47.9741 14.8171 47.9741C14.7415 47.9741 14.6809 47.9968 14.6355 48.0422C14.5901 48.087 14.5572 48.1541 14.5368 48.2436C14.5171 48.3324 14.5072 48.443 14.5072 48.5753ZM16.4509 48.5753C16.4509 48.6924 16.442 48.797 16.4242 48.8892C16.4064 48.9813 16.3785 49.0593 16.3403 49.1231C16.3021 49.187 16.2528 49.2357 16.1922 49.2692C16.1317 49.3021 16.059 49.3186 15.9741 49.3186C15.8668 49.3186 15.778 49.2893 15.7075 49.2307C15.6378 49.1721 15.5855 49.0876 15.5506 48.977C15.5164 48.8658 15.4993 48.7319 15.4993 48.5753C15.4993 48.4213 15.5147 48.289 15.5457 48.1784C15.5772 48.0672 15.6279 47.982 15.6977 47.9228C15.7674 47.8629 15.8596 47.8329 15.9741 47.8329C16.0827 47.8329 16.1722 47.8625 16.2426 47.9218C16.313 47.9803 16.3653 48.0652 16.3995 48.1765C16.4337 48.287 16.4509 48.4199 16.4509 48.5753ZM15.6641 48.5753C15.6641 48.7095 15.6743 48.8214 15.6947 48.9109C15.7151 49.0004 15.748 49.0675 15.7934 49.1123C15.8395 49.1564 15.8997 49.1784 15.9741 49.1784C16.0484 49.1784 16.1083 49.1564 16.1537 49.1123C16.1998 49.0682 16.233 49.0014 16.2534 48.9119C16.2745 48.8224 16.285 48.7102 16.285 48.5753C16.285 48.443 16.2748 48.3324 16.2544 48.2436C16.234 48.1541 16.2011 48.087 16.1557 48.0422C16.1103 47.9968 16.0498 47.9741 15.9741 47.9741C15.8984 47.9741 15.8378 47.9968 15.7924 48.0422C15.747 48.087 15.7141 48.1541 15.6937 48.2436C15.674 48.3324 15.6641 48.443 15.6641 48.5753Z" fill="#212121"/>
<path d="M13.7935 56.8477H13.6336V55.825C13.6336 55.7862 13.6336 55.7529 13.6336 55.7253C13.6342 55.697 13.6349 55.6713 13.6355 55.6483C13.6369 55.6246 13.6385 55.6006 13.6405 55.5762C13.6201 55.5973 13.601 55.6154 13.5832 55.6305C13.5655 55.645 13.5434 55.6631 13.5171 55.6848L13.3522 55.8171L13.2663 55.7055L13.6573 55.4045H13.7935V56.8477ZM15.2939 56.1241C15.2939 56.2412 15.285 56.3459 15.2673 56.438C15.2495 56.5301 15.2215 56.6081 15.1834 56.6719C15.1452 56.7358 15.0958 56.7845 15.0353 56.818C14.9748 56.8509 14.902 56.8674 14.8171 56.8674C14.7099 56.8674 14.621 56.8381 14.5506 56.7795C14.4809 56.721 14.4285 56.6364 14.3937 56.5258C14.3594 56.4146 14.3423 56.2807 14.3423 56.1241C14.3423 55.9701 14.3578 55.8378 14.3887 55.7273C14.4203 55.616 14.471 55.5308 14.5407 55.4716C14.6105 55.4117 14.7026 55.3818 14.8171 55.3818C14.9257 55.3818 15.0152 55.4114 15.0856 55.4706C15.1561 55.5292 15.2084 55.6141 15.2426 55.7253C15.2768 55.8358 15.2939 55.9688 15.2939 56.1241ZM14.5072 56.1241C14.5072 56.2583 14.5174 56.3702 14.5378 56.4597C14.5582 56.5492 14.5911 56.6163 14.6365 56.6611C14.6826 56.7052 14.7428 56.7272 14.8171 56.7272C14.8915 56.7272 14.9514 56.7052 14.9968 56.6611C15.0429 56.617 15.0761 56.5502 15.0965 56.4607C15.1176 56.3712 15.1281 56.259 15.1281 56.1241C15.1281 55.9918 15.1179 55.8812 15.0975 55.7924C15.0771 55.7029 15.0442 55.6358 14.9988 55.591C14.9534 55.5456 14.8928 55.5229 14.8171 55.5229C14.7415 55.5229 14.6809 55.5456 14.6355 55.591C14.5901 55.6358 14.5572 55.7029 14.5368 55.7924C14.5171 55.8812 14.5072 55.9918 14.5072 56.1241ZM16.4509 56.1241C16.4509 56.2412 16.442 56.3459 16.4242 56.438C16.4064 56.5301 16.3785 56.6081 16.3403 56.6719C16.3021 56.7358 16.2528 56.7845 16.1922 56.818C16.1317 56.8509 16.059 56.8674 15.9741 56.8674C15.8668 56.8674 15.778 56.8381 15.7075 56.7795C15.6378 56.721 15.5855 56.6364 15.5506 56.5258C15.5164 56.4146 15.4993 56.2807 15.4993 56.1241C15.4993 55.9701 15.5147 55.8378 15.5457 55.7273C15.5772 55.616 15.6279 55.5308 15.6977 55.4716C15.7674 55.4117 15.8596 55.3818 15.9741 55.3818C16.0827 55.3818 16.1722 55.4114 16.2426 55.4706C16.313 55.5292 16.3653 55.6141 16.3995 55.7253C16.4337 55.8358 16.4509 55.9688 16.4509 56.1241ZM15.6641 56.1241C15.6641 56.2583 15.6743 56.3702 15.6947 56.4597C15.7151 56.5492 15.748 56.6163 15.7934 56.6611C15.8395 56.7052 15.8997 56.7272 15.9741 56.7272C16.0484 56.7272 16.1083 56.7052 16.1537 56.6611C16.1998 56.617 16.233 56.5502 16.2534 56.4607C16.2745 56.3712 16.285 56.259 16.285 56.1241C16.285 55.9918 16.2748 55.8812 16.2544 55.7924C16.234 55.7029 16.2011 55.6358 16.1557 55.591C16.1103 55.5456 16.0498 55.5229 15.9741 55.5229C15.8984 55.5229 15.8378 55.5456 15.7924 55.591C15.747 55.6358 15.7141 55.7029 15.6937 55.7924C15.674 55.8812 15.6641 55.9918 15.6641 56.1241Z" fill="#212121"/>
<path d="M16.4509 63.6729C16.4509 63.7901 16.442 63.8947 16.4242 63.9868C16.4064 64.079 16.3785 64.1569 16.3403 64.2208C16.3021 64.2846 16.2528 64.3333 16.1922 64.3669C16.1317 64.3998 16.059 64.4162 15.9741 64.4162C15.8668 64.4162 15.778 64.3869 15.7075 64.3284C15.6378 64.2698 15.5855 64.1852 15.5506 64.0747C15.5164 63.9635 15.4993 63.8295 15.4993 63.6729C15.4993 63.5189 15.5147 63.3866 15.5457 63.2761C15.5772 63.1649 15.6279 63.0796 15.6977 63.0204C15.7674 62.9605 15.8596 62.9306 15.9741 62.9306C16.0827 62.9306 16.1722 62.9602 16.2426 63.0194C16.313 63.078 16.3653 63.1629 16.3995 63.2741C16.4337 63.3847 16.4509 63.5176 16.4509 63.6729ZM15.6641 63.6729C15.6641 63.8072 15.6743 63.919 15.6947 64.0085C15.7151 64.098 15.748 64.1652 15.7934 64.2099C15.8395 64.254 15.8997 64.2761 15.9741 64.2761C16.0484 64.2761 16.1083 64.254 16.1537 64.2099C16.1998 64.1658 16.233 64.099 16.2534 64.0095C16.2745 63.92 16.285 63.8078 16.285 63.6729C16.285 63.5406 16.2748 63.4301 16.2544 63.3412C16.234 63.2517 16.2011 63.1846 16.1557 63.1399C16.1103 63.0944 16.0498 63.0717 15.9741 63.0717C15.8984 63.0717 15.8378 63.0944 15.7924 63.1399C15.747 63.1846 15.7141 63.2517 15.6937 63.3412C15.674 63.4301 15.6641 63.5406 15.6641 63.6729Z" fill="#212121"/>
<path d="M28.2149 68.3809H28.055V67.3582C28.055 67.3194 28.055 67.2861 28.055 67.2585C28.0557 67.2302 28.0563 67.2045 28.057 67.1815C28.0583 67.1578 28.06 67.1338 28.0619 67.1094C28.0415 67.1305 28.0224 67.1486 28.0047 67.1637C27.9869 67.1782 27.9649 67.1963 27.9385 67.218L27.7737 67.3503L27.6878 67.2387L28.0787 66.9377H28.2149V68.3809Z" fill="#212121"/>
<path d="M20.2196 67.6573C20.2196 67.7744 20.2107 67.8791 20.1929 67.9712C20.1752 68.0633 20.1472 68.1413 20.109 68.2051C20.0709 68.269 20.0215 68.3177 19.961 68.3512C19.9004 68.3841 19.8277 68.4006 19.7428 68.4006C19.6355 68.4006 19.5467 68.3713 19.4763 68.3127C19.4065 68.2542 19.3542 68.1696 19.3193 68.0591C19.2851 67.9478 19.268 67.8139 19.268 67.6573C19.268 67.5033 19.2835 67.371 19.3144 67.2605C19.346 67.1492 19.3966 67.064 19.4664 67.0048C19.5362 66.9449 19.6283 66.915 19.7428 66.915C19.8514 66.915 19.9409 66.9446 20.0113 67.0038C20.0817 67.0624 20.134 67.1473 20.1683 67.2585C20.2025 67.369 20.2196 67.502 20.2196 67.6573ZM19.4328 67.6573C19.4328 67.7915 19.443 67.9034 19.4634 67.9929C19.4838 68.0824 19.5167 68.1495 19.5622 68.1943C19.6082 68.2384 19.6684 68.2604 19.7428 68.2604C19.8172 68.2604 19.8771 68.2384 19.9225 68.1943C19.9685 68.1502 20.0018 68.0834 20.0222 67.9939C20.0432 67.9044 20.0538 67.7922 20.0538 67.6573C20.0538 67.525 20.0436 67.4145 20.0232 67.3256C20.0028 67.2361 19.9698 67.169 19.9244 67.1242C19.879 67.0788 19.8185 67.0561 19.7428 67.0561C19.6671 67.0561 19.6066 67.0788 19.5612 67.1242C19.5158 67.169 19.4829 67.2361 19.4625 67.3256C19.4427 67.4145 19.4328 67.525 19.4328 67.6573Z" fill="#212121"/>
<path d="M36.8904 68.3809H35.9447V68.2436L36.3307 67.8518C36.4024 67.7794 36.4626 67.7149 36.5113 67.6583C36.5607 67.6017 36.5982 67.5461 36.6239 67.4914C36.6495 67.4362 36.6624 67.3756 36.6624 67.3098C36.6624 67.2282 36.638 67.166 36.5893 67.1232C36.5413 67.0798 36.4778 67.0581 36.3988 67.0581C36.3297 67.0581 36.2685 67.0699 36.2152 67.0936C36.1619 67.1173 36.1073 67.1509 36.0513 67.1943L35.9635 67.0838C36.0017 67.0515 36.0431 67.0229 36.0879 66.9979C36.1333 66.9729 36.1816 66.9531 36.233 66.9386C36.285 66.9242 36.3402 66.9169 36.3988 66.9169C36.4877 66.9169 36.5643 66.9324 36.6288 66.9633C36.6933 66.9943 36.743 67.0384 36.7779 67.0956C36.8134 67.1529 36.8312 67.221 36.8312 67.2999C36.8312 67.3763 36.816 67.4474 36.7858 67.5132C36.7555 67.5783 36.7131 67.6431 36.6584 67.7076C36.6038 67.7715 36.54 67.8392 36.4669 67.911L36.153 68.2239V68.2308H36.8904V68.3809Z" fill="#212121"/>
<path d="M45.4289 67.2743C45.4289 67.3388 45.4164 67.3947 45.3914 67.4421C45.3664 67.4895 45.3315 67.5283 45.2867 67.5586C45.242 67.5882 45.1894 67.6089 45.1288 67.6208V67.6287C45.2433 67.6431 45.3292 67.68 45.3865 67.7392C45.4444 67.7984 45.4733 67.8761 45.4733 67.9722C45.4733 68.0558 45.4536 68.1298 45.4141 68.1943C45.3753 68.2588 45.3154 68.3095 45.2344 68.3463C45.1541 68.3825 45.0512 68.4006 44.9255 68.4006C44.8491 68.4006 44.7784 68.3944 44.7132 68.3818C44.6487 68.37 44.5869 68.3499 44.5276 68.3216V68.1676C44.5875 68.1973 44.6527 68.2206 44.7231 68.2377C44.7935 68.2542 44.8616 68.2624 44.9274 68.2624C45.059 68.2624 45.1541 68.2364 45.2127 68.1844C45.2713 68.1318 45.3006 68.06 45.3006 67.9692C45.3006 67.9067 45.2841 67.8564 45.2512 67.8182C45.219 67.7794 45.1722 67.7511 45.111 67.7333C45.0505 67.7149 44.9774 67.7057 44.8919 67.7057H44.7478V67.5655H44.8929C44.9712 67.5655 45.0377 67.554 45.0923 67.5309C45.1469 67.5079 45.1884 67.4757 45.2167 67.4342C45.2456 67.3921 45.2601 67.3424 45.2601 67.2851C45.2601 67.2121 45.2357 67.1558 45.187 67.1163C45.1383 67.0762 45.0722 67.0561 44.9886 67.0561C44.9373 67.0561 44.8906 67.0614 44.8485 67.0719C44.8063 67.0824 44.7669 67.0969 44.73 67.1153C44.6932 67.1338 44.6563 67.1552 44.6194 67.1795L44.5365 67.067C44.5892 67.0262 44.6533 66.991 44.729 66.9614C44.8047 66.9317 44.8906 66.9169 44.9867 66.9169C45.1341 66.9169 45.2446 66.9505 45.3183 67.0176C45.392 67.0847 45.4289 67.1703 45.4289 67.2743Z" fill="#212121"/>
<path d="M53.8941 68.0462H53.6779V68.3809H53.518V68.0462H52.8201V67.908L53.5071 66.9298H53.6779V67.8981H53.8941V68.0462ZM53.518 67.8981V67.4263C53.518 67.3901 53.5183 67.3575 53.519 67.3286C53.5197 67.299 53.5206 67.2716 53.522 67.2466C53.5233 67.221 53.5243 67.1966 53.5249 67.1736C53.5262 67.1506 53.5272 67.1279 53.5279 67.1055H53.52C53.5075 67.1318 53.493 67.1598 53.4765 67.1894C53.4608 67.2183 53.4446 67.2443 53.4282 67.2674L52.983 67.8981H53.518Z" fill="#212121"/>
<path d="M61.6713 67.4984C61.7693 67.4984 61.8546 67.5151 61.927 67.5487C61.9994 67.5816 62.0553 67.6296 62.0948 67.6928C62.1349 67.756 62.155 67.8327 62.155 67.9228C62.155 68.0215 62.1336 68.1068 62.0908 68.1785C62.0481 68.2496 61.9865 68.3045 61.9062 68.3433C61.8259 68.3815 61.7299 68.4006 61.618 68.4006C61.543 68.4006 61.4732 68.394 61.4087 68.3809C61.3442 68.3677 61.2899 68.348 61.2458 68.3216V68.1657C61.2939 68.1946 61.3521 68.2177 61.4206 68.2348C61.489 68.2519 61.5555 68.2604 61.62 68.2604C61.693 68.2604 61.7568 68.2489 61.8115 68.2259C61.8667 68.2022 61.9095 68.1667 61.9398 68.1193C61.9707 68.0712 61.9862 68.011 61.9862 67.9386C61.9862 67.8425 61.9566 67.7685 61.8973 67.7165C61.8388 67.6639 61.746 67.6375 61.619 67.6375C61.5782 67.6375 61.5334 67.6408 61.4847 67.6474C61.436 67.654 61.3959 67.6612 61.3643 67.6691L61.2814 67.6148L61.3367 66.9377H62.0543V67.0877H61.4768L61.4403 67.523C61.4653 67.5178 61.4976 67.5125 61.537 67.5072C61.5765 67.5013 61.6213 67.4984 61.6713 67.4984Z" fill="#212121"/>
<path d="M69.5699 67.7639C69.5699 67.677 69.5758 67.5921 69.5877 67.5092C69.6002 67.4263 69.6209 67.3493 69.6498 67.2782C69.6788 67.2065 69.7183 67.1436 69.7683 67.0897C69.8183 67.0357 69.8805 66.9936 69.9549 66.9633C70.0299 66.9324 70.1197 66.9169 70.2244 66.9169C70.254 66.9169 70.2859 66.9186 70.3201 66.9219C70.3543 66.9245 70.3826 66.9291 70.405 66.9357V67.0768C70.3807 67.0683 70.3527 67.062 70.3211 67.0581C70.2902 67.0541 70.2589 67.0522 70.2273 67.0522C70.1049 67.0522 70.0085 67.0788 69.9381 67.1321C69.8683 67.1854 69.818 67.2578 69.7871 67.3493C69.7561 67.4401 69.7384 67.5424 69.7338 67.6563H69.7446C69.765 67.6234 69.791 67.5938 69.8226 67.5675C69.8542 67.5405 69.8924 67.5191 69.9371 67.5033C69.9825 67.4875 70.0352 67.4796 70.095 67.4796C70.1793 67.4796 70.2527 67.4967 70.3152 67.5309C70.3784 67.5652 70.4271 67.6148 70.4613 67.68C70.4962 67.7451 70.5136 67.8241 70.5136 67.9169C70.5136 68.0163 70.4952 68.1022 70.4583 68.1745C70.4215 68.2469 70.3688 68.3029 70.3004 68.3424C70.2326 68.3812 70.1516 68.4006 70.0575 68.4006C69.9871 68.4006 69.9223 68.3871 69.8631 68.3601C69.8038 68.3331 69.7522 68.293 69.7081 68.2397C69.6647 68.1864 69.6308 68.1203 69.6064 68.0413C69.5821 67.9617 69.5699 67.8692 69.5699 67.7639ZM70.0556 68.2624C70.1451 68.2624 70.2168 68.2338 70.2708 68.1765C70.3247 68.1193 70.3517 68.0327 70.3517 67.9169C70.3517 67.8221 70.3277 67.7471 70.2796 67.6918C70.2316 67.6366 70.1592 67.6089 70.0625 67.6089C69.9967 67.6089 69.9394 67.6227 69.8907 67.6504C69.842 67.6774 69.8042 67.7116 69.7772 67.753C69.7502 67.7945 69.7367 67.8366 69.7367 67.8794C69.7367 67.9228 69.743 67.9669 69.7555 68.0117C69.7686 68.0564 69.7884 68.0979 69.8147 68.136C69.841 68.1742 69.8743 68.2048 69.9144 68.2279C69.9545 68.2509 70.0016 68.2624 70.0556 68.2624Z" fill="#212121"/>
<path d="M77.8276 68.3809L78.4199 67.0877H77.6331V66.9377H78.5956V67.064L78.0072 68.3809H77.8276Z" fill="#212121"/>
<path d="M18.9547 65.8761C18.9547 65.9459 19.0113 66.0024 19.0811 66.0024C19.1508 66.0024 19.2074 65.9459 19.2074 65.8761H18.9547ZM19.0811 17.1035H18.9547V65.8761H19.0811H19.2074V17.1035H19.0811Z" fill="#D4D4D4"/>
<path d="M19.0811 65.875H77.4565" stroke="#D4D4D4" stroke-width="0.252708"/>
<path d="M35.7601 43.6373C36.1788 43.6373 36.5182 43.2979 36.5182 42.8792C36.5182 42.4605 36.1788 42.1211 35.7601 42.1211C35.3414 42.1211 35.002 42.4605 35.002 42.8792C35.002 43.2979 35.3414 43.6373 35.7601 43.6373Z" fill="#6C5BFF"/>
<path d="M44.0989 29.7389C44.5176 29.7389 44.8571 29.3995 44.8571 28.9808C44.8571 28.5621 44.5176 28.2227 44.0989 28.2227C43.6802 28.2227 43.3408 28.5621 43.3408 28.9808C43.3408 29.3995 43.6802 29.7389 44.0989 29.7389Z" fill="#6C5BFF"/>
<path d="M52.4388 37.319C52.8575 37.319 53.1969 36.9796 53.1969 36.5609C53.1969 36.1422 52.8575 35.8027 52.4388 35.8027C52.0201 35.8027 51.6807 36.1422 51.6807 36.5609C51.6807 36.9796 52.0201 37.319 52.4388 37.319Z" fill="#6C5BFF"/>
<path d="M60.7777 53.9987C61.1964 53.9987 61.5358 53.6592 61.5358 53.2405C61.5358 52.8218 61.1964 52.4824 60.7777 52.4824C60.359 52.4824 60.0195 52.8218 60.0195 53.2405C60.0195 53.6592 60.359 53.9987 60.7777 53.9987Z" fill="#6C5BFF"/>
<path d="M35.7607 41.9932C36.3887 41.9932 36.8975 42.5029 36.8975 43.1309C36.8974 43.7588 36.3887 44.2675 35.7607 44.2676C35.1327 44.2676 34.6231 43.7588 34.623 43.1309C34.623 42.5028 35.1327 41.9932 35.7607 41.9932Z" fill="white" stroke="#6C5BFF" stroke-width="0.252708"/>
<path d="M35.7611 43.8893C36.1798 43.8893 36.5192 43.5499 36.5192 43.1312C36.5192 42.7125 36.1798 42.373 35.7611 42.373C35.3424 42.373 35.0029 42.7125 35.0029 43.1312C35.0029 43.5499 35.3424 43.8893 35.7611 43.8893Z" fill="#6C5BFF"/>
<path d="M44.0996 27.8428C44.7276 27.8428 45.2363 28.3525 45.2363 28.9805C45.2363 29.6084 44.7276 30.1171 44.0996 30.1172C43.4716 30.1172 42.962 29.6085 42.9619 28.9805C42.9619 28.3524 43.4716 27.8428 44.0996 27.8428Z" fill="white" stroke="#6C5BFF" stroke-width="0.252708"/>
<path d="M44.0989 29.7389C44.5176 29.7389 44.8571 29.3995 44.8571 28.9808C44.8571 28.5621 44.5176 28.2227 44.0989 28.2227C43.6802 28.2227 43.3408 28.5621 43.3408 28.9808C43.3408 29.3995 43.6802 29.7389 44.0989 29.7389Z" fill="#6C5BFF"/>
<path d="M52.4395 35.4248C53.0674 35.4249 53.5762 35.9345 53.5762 36.5625C53.5761 37.1904 53.0674 37.6991 52.4395 37.6992C51.8114 37.6992 51.3018 37.1905 51.3018 36.5625C51.3018 35.9345 51.8114 35.4248 52.4395 35.4248Z" fill="white" stroke="#6C5BFF" stroke-width="0.252708"/>
<path d="M52.4398 37.3209C52.8585 37.3209 53.1979 36.9815 53.1979 36.5628C53.1979 36.1441 52.8585 35.8047 52.4398 35.8047C52.0211 35.8047 51.6816 36.1441 51.6816 36.5628C51.6816 36.9815 52.0211 37.3209 52.4398 37.3209Z" fill="#6C5BFF"/>
<path d="M60.7783 52.1025C61.4063 52.1026 61.915 52.6122 61.915 53.2402C61.915 53.8682 61.4063 54.3769 60.7783 54.377C60.1503 54.377 59.6407 53.8682 59.6406 53.2402C59.6406 52.6122 60.1503 52.1025 60.7783 52.1025Z" fill="white" stroke="#6C5BFF" stroke-width="0.252708"/>
<path d="M60.7777 53.9987C61.1964 53.9987 61.5358 53.6592 61.5358 53.2405C61.5358 52.8218 61.1964 52.4824 60.7777 52.4824C60.359 52.4824 60.0195 52.8218 60.0195 53.2405C60.0195 53.6592 60.359 53.9987 60.7777 53.9987Z" fill="#6C5BFF"/>
<path d="M69.1182 33.4033C69.7462 33.4034 70.2549 33.913 70.2549 34.541C70.2548 35.169 69.7461 35.6777 69.1182 35.6777C68.4902 35.6777 67.9805 35.169 67.9805 34.541C67.9805 33.913 68.4901 33.4033 69.1182 33.4033Z" fill="white" stroke="#6C5BFF" stroke-width="0.252708"/>
<path d="M69.1185 35.2994C69.5372 35.2994 69.8766 34.96 69.8766 34.5413C69.8766 34.1226 69.5372 33.7832 69.1185 33.7832C68.6998 33.7832 68.3604 34.1226 68.3604 34.5413C68.3604 34.96 68.6998 35.2994 69.1185 35.2994Z" fill="#6C5BFF"/>
<path d="M77.457 22.5361C78.085 22.5362 78.5938 23.0458 78.5938 23.6738C78.5937 24.3018 78.085 24.8105 77.457 24.8105C76.829 24.8105 76.3194 24.3018 76.3193 23.6738C76.3193 23.0458 76.829 22.5361 77.457 22.5361Z" fill="white" stroke="#6C5BFF" stroke-width="0.252708"/>
<path d="M77.4573 24.4323C77.876 24.4323 78.2155 24.0928 78.2155 23.6741C78.2155 23.2554 77.876 22.916 77.4573 22.916C77.0386 22.916 76.6992 23.2554 76.6992 23.6741C76.6992 24.0928 77.0386 24.4323 77.4573 24.4323Z" fill="#6C5BFF"/>
<path d="M77.457 22.5361C78.085 22.5362 78.5938 23.0458 78.5938 23.6738C78.5937 24.3018 78.085 24.8105 77.457 24.8105C76.829 24.8105 76.3194 24.3018 76.3193 23.6738C76.3193 23.0458 76.829 22.5361 77.457 22.5361Z" fill="white" stroke="#6C5BFF" stroke-width="0.252708"/>
<path d="M77.4573 24.4323C77.876 24.4323 78.2155 24.0928 78.2155 23.6741C78.2155 23.2554 77.876 22.916 77.4573 22.916C77.0386 22.916 76.6992 23.2554 76.6992 23.6741C76.6992 24.0928 77.0386 24.4323 77.4573 24.4323Z" fill="#6C5BFF"/>
<rect x="23.5035" y="27.5904" width="7.77978" height="3.79061" rx="1.89531" fill="white"/>
<rect x="23.5035" y="27.5904" width="7.77978" height="3.79061" rx="1.89531" stroke="#D6D6D6" stroke-width="0.252708"/>
<path d="M25.6033 29.9863H25.4434V28.9637C25.4434 28.9248 25.4434 28.8916 25.4434 28.864C25.444 28.8357 25.4447 28.81 25.4454 28.787C25.4467 28.7633 25.4483 28.7392 25.4503 28.7149C25.4299 28.736 25.4108 28.754 25.393 28.7692C25.3753 28.7837 25.3532 28.8018 25.3269 28.8235L25.1621 28.9558L25.0762 28.8442L25.4671 28.5431H25.6033V29.9863ZM26.6062 29.1038C26.7043 29.1038 26.7895 29.1206 26.8619 29.1542C26.9343 29.1871 26.9902 29.2351 27.0297 29.2983C27.0699 29.3615 27.0899 29.4381 27.0899 29.5283C27.0899 29.627 27.0686 29.7122 27.0258 29.784C26.983 29.855 26.9215 29.91 26.8412 29.9488C26.7609 29.987 26.6648 30.0061 26.5529 30.0061C26.4779 30.0061 26.4082 29.9995 26.3437 29.9863C26.2792 29.9732 26.2249 29.9534 26.1808 29.9271V29.7711C26.2288 29.8001 26.2871 29.8231 26.3555 29.8402C26.4239 29.8573 26.4904 29.8659 26.5549 29.8659C26.628 29.8659 26.6918 29.8544 26.7464 29.8313C26.8017 29.8077 26.8445 29.7721 26.8747 29.7247C26.9057 29.6767 26.9211 29.6165 26.9211 29.5441C26.9211 29.448 26.8915 29.374 26.8323 29.322C26.7737 29.2693 26.6809 29.243 26.5539 29.243C26.5131 29.243 26.4684 29.2463 26.4197 29.2529C26.371 29.2595 26.3308 29.2667 26.2992 29.2746L26.2163 29.2203L26.2716 28.5431H26.9893V28.6932H26.4118L26.3753 29.1285C26.4003 29.1232 26.4325 29.118 26.472 29.1127C26.5115 29.1068 26.5562 29.1038 26.6062 29.1038ZM27.7839 28.5224C27.8675 28.5224 27.9415 28.5356 28.006 28.5619C28.0705 28.5882 28.1208 28.627 28.157 28.6784C28.1939 28.729 28.2123 28.7916 28.2123 28.8659C28.2123 28.9245 28.1995 28.9758 28.1738 29.0199C28.1488 29.0634 28.1149 29.1015 28.0721 29.1344C28.0294 29.1667 27.982 29.1956 27.93 29.2213C27.9919 29.2496 28.0475 29.2815 28.0968 29.317C28.1468 29.3526 28.1863 29.3944 28.2153 29.4424C28.2442 29.4905 28.2587 29.5474 28.2587 29.6132C28.2587 29.6941 28.239 29.7642 28.1995 29.8235C28.1607 29.882 28.106 29.9271 28.0356 29.9587C27.9652 29.9903 27.8826 30.0061 27.7878 30.0061C27.6858 30.0061 27.599 29.9909 27.5272 29.9607C27.4562 29.9297 27.4019 29.8856 27.3644 29.8284C27.3275 29.7705 27.3091 29.701 27.3091 29.6201C27.3091 29.5536 27.3232 29.496 27.3515 29.4474C27.3798 29.398 27.4173 29.3555 27.4641 29.32C27.5108 29.2845 27.5618 29.2545 27.6171 29.2302C27.569 29.2039 27.5249 29.1739 27.4848 29.1403C27.4453 29.1068 27.4137 29.0676 27.39 29.0229C27.367 28.9775 27.3555 28.9248 27.3555 28.8649C27.3555 28.7919 27.3739 28.73 27.4108 28.6794C27.4483 28.628 27.4993 28.5892 27.5638 28.5629C27.6289 28.5359 27.7023 28.5224 27.7839 28.5224ZM27.47 29.6211C27.47 29.6948 27.496 29.7557 27.548 29.8037C27.6 29.8511 27.6786 29.8748 27.7839 29.8748C27.8839 29.8748 27.9613 29.8511 28.0159 29.8037C28.0705 29.7557 28.0978 29.6928 28.0978 29.6152C28.0978 29.5671 28.0853 29.525 28.0603 29.4888C28.0353 29.452 27.9998 29.4191 27.9537 29.3901C27.9076 29.3611 27.8533 29.3348 27.7908 29.3111L27.7553 29.2983C27.6947 29.3233 27.6431 29.3513 27.6003 29.3822C27.5582 29.4125 27.5259 29.447 27.5036 29.4858C27.4812 29.5247 27.47 29.5698 27.47 29.6211ZM27.7819 28.6567C27.7043 28.6567 27.6408 28.6754 27.5914 28.7129C27.542 28.7498 27.5174 28.8031 27.5174 28.8728C27.5174 28.9229 27.5292 28.9653 27.5529 29.0002C27.5773 29.0344 27.6102 29.064 27.6516 29.089C27.6931 29.1134 27.7395 29.1361 27.7908 29.1571C27.8408 29.1361 27.8852 29.113 27.9241 29.088C27.9629 29.0624 27.9935 29.0321 28.0159 28.9972C28.0383 28.9623 28.0494 28.9205 28.0494 28.8718C28.0494 28.8021 28.0248 28.7488 27.9754 28.7119C27.9267 28.6751 27.8622 28.6567 27.7819 28.6567ZM29.4176 29.2628C29.4176 29.3799 29.4087 29.4845 29.391 29.5767C29.3732 29.6688 29.3452 29.7468 29.3071 29.8106C29.2689 29.8745 29.2195 29.9232 29.159 29.9567C29.0984 29.9896 29.0257 30.0061 28.9408 30.0061C28.8336 30.0061 28.7447 29.9768 28.6743 29.9182C28.6045 29.8596 28.5522 29.7751 28.5173 29.6645C28.4831 29.5533 28.466 29.4194 28.466 29.2628C28.466 29.1088 28.4815 28.9765 28.5124 28.8659C28.544 28.7547 28.5947 28.6695 28.6644 28.6103C28.7342 28.5504 28.8263 28.5204 28.9408 28.5204C29.0494 28.5204 29.1389 28.55 29.2093 28.6093C29.2797 28.6678 29.3321 28.7527 29.3663 28.864C29.4005 28.9745 29.4176 29.1074 29.4176 29.2628ZM28.6309 29.2628C28.6309 29.397 28.6411 29.5089 28.6615 29.5984C28.6819 29.6879 28.7148 29.755 28.7602 29.7998C28.8062 29.8439 28.8665 29.8659 28.9408 29.8659C29.0152 29.8659 29.0751 29.8439 29.1205 29.7998C29.1666 29.7557 29.1998 29.6889 29.2202 29.5994C29.2412 29.5099 29.2518 29.3977 29.2518 29.2628C29.2518 29.1305 29.2416 29.0199 29.2212 28.9311C29.2008 28.8416 29.1679 28.7745 29.1225 28.7297C29.077 28.6843 29.0165 28.6616 28.9408 28.6616C28.8651 28.6616 28.8046 28.6843 28.7592 28.7297C28.7138 28.7745 28.6809 28.8416 28.6605 28.9311C28.6407 29.0199 28.6309 29.1305 28.6309 29.2628Z" fill="#212121"/>
<rect x="31.8434" y="37.194" width="7.77978" height="3.79061" rx="1.89531" fill="white"/>
<rect x="31.8434" y="37.194" width="7.77978" height="3.79061" rx="1.89531" stroke="#D6D6D6" stroke-width="0.252708"/>
<path d="M33.9432 39.5898H33.7832V38.5672C33.7832 38.5283 33.7832 38.4951 33.7832 38.4675C33.7839 38.4392 33.7846 38.4135 33.7852 38.3905C33.7865 38.3668 33.7882 38.3428 33.7901 38.3184C33.7697 38.3395 33.7507 38.3576 33.7329 38.3727C33.7151 38.3872 33.6931 38.4053 33.6668 38.427L33.5019 38.5593L33.416 38.4477L33.8069 38.1466H33.9432V39.5898ZM34.5048 38.9729C34.5048 38.886 34.5108 38.8011 34.5226 38.7182C34.5351 38.6353 34.5558 38.5583 34.5848 38.4872C34.6137 38.4155 34.6532 38.3526 34.7032 38.2987C34.7533 38.2447 34.8155 38.2026 34.8898 38.1723C34.9648 38.1414 35.0547 38.1259 35.1593 38.1259C35.1889 38.1259 35.2208 38.1276 35.2551 38.1309C35.2893 38.1335 35.3176 38.1381 35.34 38.1447V38.2858C35.3156 38.2773 35.2876 38.271 35.256 38.2671C35.2251 38.2631 35.1939 38.2612 35.1623 38.2612C35.0399 38.2612 34.9435 38.2878 34.873 38.3411C34.8033 38.3944 34.7529 38.4668 34.722 38.5583C34.6911 38.6491 34.6733 38.7514 34.6687 38.8653H34.6796C34.7 38.8324 34.726 38.8028 34.7575 38.7764C34.7891 38.7495 34.8273 38.7281 34.872 38.7123C34.9175 38.6965 34.9701 38.6886 35.03 38.6886C35.1142 38.6886 35.1876 38.7057 35.2501 38.7399C35.3133 38.7741 35.362 38.8238 35.3962 38.889C35.4311 38.9541 35.4485 39.0331 35.4485 39.1259C35.4485 39.2253 35.4301 39.3111 35.3933 39.3835C35.3564 39.4559 35.3038 39.5119 35.2353 39.5513C35.1675 39.5902 35.0866 39.6096 34.9925 39.6096C34.9221 39.6096 34.8572 39.5961 34.798 39.5691C34.7388 39.5421 34.6871 39.502 34.643 39.4487C34.5996 39.3954 34.5657 39.3292 34.5414 39.2503C34.517 39.1706 34.5048 39.0782 34.5048 38.9729ZM34.9905 39.4714C35.08 39.4714 35.1517 39.4428 35.2057 39.3855C35.2597 39.3283 35.2866 39.2417 35.2866 39.1259C35.2866 39.0311 35.2626 38.9561 35.2146 38.9008C35.1665 38.8455 35.0942 38.8179 34.9974 38.8179C34.9316 38.8179 34.8744 38.8317 34.8257 38.8594C34.777 38.8863 34.7391 38.9206 34.7121 38.962C34.6852 39.0035 34.6717 39.0456 34.6717 39.0884C34.6717 39.1318 34.6779 39.1759 34.6904 39.2207C34.7036 39.2654 34.7233 39.3069 34.7496 39.345C34.776 39.3832 34.8092 39.4138 34.8493 39.4368C34.8895 39.4599 34.9365 39.4714 34.9905 39.4714ZM36.5946 38.7616C36.5946 38.8492 36.5884 38.9344 36.5759 39.0173C36.564 39.1002 36.5433 39.1775 36.5137 39.2493C36.4847 39.321 36.4452 39.3839 36.3952 39.4378C36.3452 39.4918 36.2823 39.5342 36.2067 39.5652C36.1316 39.5954 36.0418 39.6106 35.9372 39.6106C35.9089 39.6106 35.8766 39.6086 35.8404 39.6047C35.8042 39.6014 35.7746 39.5964 35.7516 39.5898V39.4477C35.7759 39.4563 35.8046 39.4632 35.8375 39.4684C35.8704 39.473 35.9026 39.4753 35.9342 39.4753C36.0573 39.4753 36.154 39.449 36.2244 39.3964C36.2948 39.3431 36.3455 39.271 36.3764 39.1802C36.4074 39.0887 36.4248 38.986 36.4288 38.8722H36.4169C36.3972 38.9038 36.3712 38.9331 36.3389 38.96C36.3073 38.9864 36.2689 39.0078 36.2234 39.0242C36.178 39.04 36.1251 39.0479 36.0645 39.0479C35.9809 39.0479 35.9079 39.0308 35.8454 38.9966C35.7835 38.9624 35.7351 38.9127 35.7003 38.8475C35.666 38.7824 35.6489 38.7037 35.6489 38.6116C35.6489 38.5122 35.6677 38.4263 35.7052 38.3539C35.7434 38.2809 35.7967 38.2246 35.8651 38.1851C35.9336 38.1457 36.0142 38.1259 36.107 38.1259C36.178 38.1259 36.2432 38.1394 36.3024 38.1664C36.3616 38.1934 36.413 38.2338 36.4564 38.2878C36.5005 38.3411 36.5344 38.4073 36.5581 38.4862C36.5824 38.5652 36.5946 38.657 36.5946 38.7616ZM36.107 38.2651C36.0194 38.2651 35.9484 38.2937 35.8937 38.351C35.8398 38.4082 35.8128 38.4944 35.8128 38.6096C35.8128 38.705 35.8362 38.7804 35.8829 38.8357C35.9296 38.8909 36.0017 38.9186 36.0991 38.9186C36.1662 38.9186 36.2241 38.9051 36.2728 38.8781C36.3222 38.8511 36.36 38.8169 36.3863 38.7755C36.4133 38.734 36.4268 38.6915 36.4268 38.6481C36.4268 38.6047 36.4202 38.5606 36.4071 38.5158C36.3945 38.4711 36.3751 38.43 36.3488 38.3924C36.3225 38.3543 36.2893 38.3237 36.2491 38.3006C36.209 38.2769 36.1616 38.2651 36.107 38.2651ZM37.2807 38.1259C37.3642 38.1259 37.4383 38.1391 37.5028 38.1654C37.5673 38.1917 37.6176 38.2306 37.6538 38.2819C37.6907 38.3326 37.7091 38.3951 37.7091 38.4694C37.7091 38.528 37.6963 38.5793 37.6706 38.6234C37.6456 38.6669 37.6117 38.705 37.5689 38.7379C37.5261 38.7702 37.4788 38.7991 37.4268 38.8248C37.4886 38.8531 37.5442 38.885 37.5936 38.9206C37.6436 38.9561 37.6831 38.9979 37.712 39.0459C37.741 39.094 37.7555 39.1509 37.7555 39.2167C37.7555 39.2977 37.7357 39.3677 37.6963 39.427C37.6574 39.4855 37.6028 39.5306 37.5324 39.5622C37.462 39.5938 37.3794 39.6096 37.2846 39.6096C37.1826 39.6096 37.0957 39.5945 37.024 39.5642C36.9529 39.5332 36.8986 39.4892 36.8611 39.4319C36.8243 39.374 36.8059 39.3046 36.8059 39.2236C36.8059 39.1571 36.82 39.0996 36.8483 39.0509C36.8766 39.0015 36.9141 38.9591 36.9608 38.9235C37.0076 38.888 37.0586 38.858 37.1138 38.8337C37.0658 38.8074 37.0217 38.7774 36.9816 38.7439C36.9421 38.7103 36.9105 38.6711 36.8868 38.6264C36.8638 38.581 36.8523 38.5283 36.8523 38.4685C36.8523 38.3954 36.8707 38.3335 36.9075 38.2829C36.945 38.2315 36.996 38.1927 37.0605 38.1664C37.1257 38.1394 37.1991 38.1259 37.2807 38.1259ZM36.9668 39.2246C36.9668 39.2983 36.9928 39.3592 37.0447 39.4072C37.0967 39.4546 37.1754 39.4783 37.2807 39.4783C37.3807 39.4783 37.458 39.4546 37.5126 39.4072C37.5673 39.3592 37.5946 39.2963 37.5946 39.2187C37.5946 39.1706 37.5821 39.1285 37.5571 39.0923C37.5321 39.0555 37.4965 39.0226 37.4505 38.9936C37.4044 38.9647 37.3501 38.9383 37.2876 38.9146L37.252 38.9018C37.1915 38.9268 37.1398 38.9548 37.0971 38.9857C37.0549 39.016 37.0227 39.0505 37.0003 39.0894C36.9779 39.1282 36.9668 39.1733 36.9668 39.2246ZM37.2787 38.2602C37.201 38.2602 37.1375 38.2789 37.0882 38.3164C37.0388 38.3533 37.0141 38.4066 37.0141 38.4764C37.0141 38.5264 37.026 38.5688 37.0497 38.6037C37.074 38.6379 37.1069 38.6675 37.1484 38.6925C37.1899 38.7169 37.2362 38.7396 37.2876 38.7606C37.3376 38.7396 37.382 38.7166 37.4208 38.6915C37.4597 38.6659 37.4903 38.6356 37.5126 38.6007C37.535 38.5659 37.5462 38.5241 37.5462 38.4754C37.5462 38.4056 37.5215 38.3523 37.4722 38.3154C37.4235 38.2786 37.359 38.2602 37.2787 38.2602Z" fill="#212121"/>
<rect x="48.5221" y="30.6236" width="7.77978" height="3.79061" rx="1.89531" fill="white"/>
<rect x="48.5221" y="30.6236" width="7.77978" height="3.79061" rx="1.89531" stroke="#D6D6D6" stroke-width="0.252708"/>
<path d="M50.6219 33.0195H50.4619V31.9969C50.4619 31.958 50.4619 31.9248 50.4619 31.8972C50.4626 31.8689 50.4633 31.8432 50.4639 31.8202C50.4652 31.7965 50.4669 31.7724 50.4689 31.7481C50.4485 31.7692 50.4294 31.7873 50.4116 31.8024C50.3938 31.8169 50.3718 31.835 50.3455 31.8567L50.1806 31.989L50.0947 31.8774L50.4856 31.5763H50.6219V33.0195ZM52.0611 31.9129C52.0611 31.9774 52.0486 32.0334 52.0236 32.0808C51.9986 32.1281 51.9637 32.167 51.919 32.1972C51.8742 32.2269 51.8216 32.2476 51.761 32.2594V32.2673C51.8755 32.2818 51.9614 32.3187 52.0187 32.3779C52.0766 32.4371 52.1055 32.5148 52.1055 32.6109C52.1055 32.6944 52.0858 32.7685 52.0463 32.833C52.0075 32.8975 51.9476 32.9481 51.8666 32.985C51.7864 33.0212 51.6834 33.0393 51.5577 33.0393C51.4813 33.0393 51.4106 33.033 51.3454 33.0205C51.2809 33.0087 51.2191 32.9886 51.1599 32.9603V32.8063C51.2197 32.8359 51.2849 32.8593 51.3553 32.8764C51.4257 32.8928 51.4938 32.9011 51.5596 32.9011C51.6913 32.9011 51.7864 32.8751 51.8449 32.8231C51.9035 32.7704 51.9328 32.6987 51.9328 32.6079C51.9328 32.5454 51.9163 32.495 51.8834 32.4569C51.8512 32.418 51.8045 32.3897 51.7433 32.372C51.6827 32.3535 51.6097 32.3443 51.5241 32.3443H51.38V32.2042H51.5251C51.6034 32.2042 51.6699 32.1926 51.7245 32.1696C51.7791 32.1466 51.8206 32.1143 51.8489 32.0729C51.8778 32.0307 51.8923 31.9811 51.8923 31.9238C51.8923 31.8508 51.868 31.7945 51.8193 31.755C51.7706 31.7149 51.7044 31.6948 51.6208 31.6948C51.5695 31.6948 51.5228 31.7001 51.4807 31.7106C51.4386 31.7211 51.3991 31.7356 51.3622 31.754C51.3254 31.7724 51.2885 31.7938 51.2517 31.8182L51.1687 31.7056C51.2214 31.6648 51.2855 31.6296 51.3612 31.6C51.4369 31.5704 51.5228 31.5556 51.6189 31.5556C51.7663 31.5556 51.8768 31.5892 51.9506 31.6563C52.0243 31.7234 52.0611 31.809 52.0611 31.9129ZM52.3405 32.4026C52.3405 32.3157 52.3464 32.2308 52.3582 32.1479C52.3707 32.065 52.3915 31.988 52.4204 31.9169C52.4494 31.8452 52.4889 31.7823 52.5389 31.7284C52.5889 31.6744 52.6511 31.6323 52.7255 31.602C52.8005 31.5711 52.8903 31.5556 52.9949 31.5556C53.0246 31.5556 53.0565 31.5572 53.0907 31.5605C53.1249 31.5632 53.1532 31.5678 53.1756 31.5744V31.7155C53.1512 31.707 53.1233 31.7007 53.0917 31.6968C53.0608 31.6928 53.0295 31.6908 52.9979 31.6908C52.8755 31.6908 52.7791 31.7175 52.7087 31.7708C52.6389 31.8241 52.5886 31.8965 52.5576 31.988C52.5267 32.0788 52.5089 32.1811 52.5043 32.295H52.5152C52.5356 32.2621 52.5616 32.2325 52.5932 32.2061C52.6248 32.1791 52.6629 32.1578 52.7077 32.142C52.7531 32.1262 52.8057 32.1183 52.8656 32.1183C52.9499 32.1183 53.0232 32.1354 53.0858 32.1696C53.1489 32.2038 53.1976 32.2535 53.2319 32.3187C53.2667 32.3838 53.2842 32.4628 53.2842 32.5556C53.2842 32.6549 53.2657 32.7408 53.2289 32.8132C53.192 32.8856 53.1394 32.9415 53.071 32.981C53.0032 33.0199 52.9222 33.0393 52.8281 33.0393C52.7577 33.0393 52.6929 33.0258 52.6337 32.9988C52.5744 32.9718 52.5228 32.9317 52.4787 32.8784C52.4352 32.8251 52.4013 32.7589 52.377 32.68C52.3526 32.6003 52.3405 32.5079 52.3405 32.4026ZM52.8261 32.9011C52.9156 32.9011 52.9874 32.8724 53.0413 32.8152C53.0953 32.7579 53.1223 32.6714 53.1223 32.5556C53.1223 32.4608 53.0983 32.3858 53.0502 32.3305C53.0022 32.2752 52.9298 32.2476 52.8331 32.2476C52.7672 32.2476 52.71 32.2614 52.6613 32.289C52.6126 32.316 52.5748 32.3503 52.5478 32.3917C52.5208 32.4332 52.5073 32.4753 52.5073 32.5181C52.5073 32.5615 52.5135 32.6056 52.5261 32.6503C52.5392 32.6951 52.559 32.7366 52.5853 32.7747C52.6116 32.8129 52.6448 32.8435 52.685 32.8665C52.7251 32.8896 52.7722 32.9011 52.8261 32.9011ZM54.4283 33.0195H53.4826V32.8823L53.8686 32.4904C53.9403 32.418 54.0005 32.3535 54.0492 32.2969C54.0986 32.2403 54.1361 32.1847 54.1617 32.1301C54.1874 32.0748 54.2002 32.0143 54.2002 31.9485C54.2002 31.8669 54.1759 31.8047 54.1272 31.7619C54.0792 31.7185 54.0156 31.6968 53.9367 31.6968C53.8676 31.6968 53.8064 31.7086 53.7531 31.7323C53.6998 31.756 53.6451 31.7896 53.5892 31.833L53.5013 31.7224C53.5395 31.6902 53.581 31.6616 53.6257 31.6365C53.6711 31.6115 53.7195 31.5918 53.7708 31.5773C53.8228 31.5628 53.8781 31.5556 53.9367 31.5556C54.0255 31.5556 54.1022 31.5711 54.1667 31.602C54.2312 31.6329 54.2809 31.677 54.3157 31.7343C54.3513 31.7915 54.369 31.8596 54.369 31.9386C54.369 32.015 54.3539 32.086 54.3236 32.1518C54.2934 32.217 54.2509 32.2818 54.1963 32.3463C54.1417 32.4101 54.0778 32.4779 54.0048 32.5497L53.6909 32.8626V32.8695H54.4283V33.0195Z" fill="#212121"/>
<rect x="56.861" y="47.3014" width="6.77978" height="3.79061" rx="1.89531" fill="white"/>
<rect x="56.861" y="47.3014" width="6.77978" height="3.79061" rx="1.89531" stroke="#D6D6D6" stroke-width="0.252708"/>
<path d="M58.3655 49.0803C58.3655 48.9934 58.3714 48.9085 58.3833 48.8256C58.3958 48.7427 58.4165 48.6657 58.4454 48.5946C58.4744 48.5229 58.5139 48.4601 58.5639 48.4061C58.6139 48.3521 58.6761 48.31 58.7505 48.2797C58.8255 48.2488 58.9153 48.2333 59.02 48.2333C59.0496 48.2333 59.0815 48.235 59.1157 48.2383C59.1499 48.2409 59.1782 48.2455 59.2006 48.2521V48.3933C59.1763 48.3847 59.1483 48.3784 59.1167 48.3745C59.0858 48.3706 59.0545 48.3686 59.0229 48.3686C58.9005 48.3686 58.8041 48.3952 58.7337 48.4485C58.6639 48.5018 58.6136 48.5742 58.5827 48.6657C58.5517 48.7565 58.534 48.8589 58.5293 48.9727H58.5402C58.5606 48.9398 58.5866 48.9102 58.6182 48.8839C58.6498 48.8569 58.688 48.8355 58.7327 48.8197C58.7781 48.8039 58.8308 48.796 58.8906 48.796C58.9749 48.796 59.0483 48.8131 59.1108 48.8473C59.174 48.8816 59.2227 48.9312 59.2569 48.9964C59.2918 49.0615 59.3092 49.1405 59.3092 49.2333C59.3092 49.3327 59.2908 49.4186 59.2539 49.491C59.2171 49.5633 59.1644 49.6193 59.096 49.6588C59.0282 49.6976 58.9472 49.717 58.8531 49.717C58.7827 49.717 58.7179 49.7035 58.6587 49.6765C58.5994 49.6496 58.5478 49.6094 58.5037 49.5561C58.4603 49.5028 58.4264 49.4367 58.402 49.3577C58.3777 49.2781 58.3655 49.1856 58.3655 49.0803ZM58.8512 49.5788C58.9407 49.5788 59.0124 49.5502 59.0664 49.4929C59.1203 49.4357 59.1473 49.3491 59.1473 49.2333C59.1473 49.1385 59.1233 49.0635 59.0752 49.0082C59.0272 48.953 58.9548 48.9253 58.8581 48.9253C58.7923 48.9253 58.735 48.9391 58.6863 48.9668C58.6376 48.9938 58.5998 49.028 58.5728 49.0694C58.5458 49.1109 58.5323 49.153 58.5323 49.1958C58.5323 49.2392 58.5386 49.2833 58.5511 49.3281C58.5642 49.3728 58.584 49.4143 58.6103 49.4525C58.6366 49.4906 58.6699 49.5212 58.71 49.5443C58.7501 49.5673 58.7972 49.5788 58.8512 49.5788ZM60.4533 49.6973H59.5076V49.5601L59.8936 49.1682C59.9653 49.0958 60.0255 49.0313 60.0742 48.9747C60.1236 48.9181 60.1611 48.8625 60.1868 48.8079C60.2124 48.7526 60.2253 48.692 60.2253 48.6262C60.2253 48.5446 60.2009 48.4824 60.1522 48.4397C60.1042 48.3962 60.0407 48.3745 59.9617 48.3745C59.8926 48.3745 59.8314 48.3863 59.7781 48.41C59.7248 48.4337 59.6702 48.4673 59.6142 48.5107L59.5264 48.4002C59.5645 48.3679 59.606 48.3393 59.6507 48.3143C59.6961 48.2893 59.7445 48.2695 59.7958 48.2551C59.8478 48.2406 59.9031 48.2333 59.9617 48.2333C60.0505 48.2333 60.1272 48.2488 60.1917 48.2797C60.2562 48.3107 60.3059 48.3548 60.3407 48.412C60.3763 48.4693 60.3941 48.5374 60.3941 48.6163C60.3941 48.6927 60.3789 48.7638 60.3486 48.8296C60.3184 48.8947 60.2759 48.9595 60.2213 49.024C60.1667 49.0879 60.1028 49.1557 60.0298 49.2274L59.7159 49.5403V49.5472H60.4533V49.6973ZM61.6181 48.9737C61.6181 49.0908 61.6092 49.1955 61.5915 49.2876C61.5737 49.3797 61.5457 49.4577 61.5075 49.5216C61.4694 49.5854 61.42 49.6341 61.3595 49.6677C61.2989 49.7006 61.2262 49.717 61.1413 49.717C61.0341 49.717 60.9452 49.6877 60.8748 49.6292C60.805 49.5706 60.7527 49.486 60.7178 49.3755C60.6836 49.2642 60.6665 49.1303 60.6665 48.9737C60.6665 48.8197 60.682 48.6874 60.7129 48.5769C60.7445 48.4656 60.7952 48.3804 60.8649 48.3212C60.9347 48.2613 61.0268 48.2314 61.1413 48.2314C61.2499 48.2314 61.3394 48.261 61.4098 48.3202C61.4802 48.3788 61.5326 48.4637 61.5668 48.5749C61.601 48.6854 61.6181 48.8184 61.6181 48.9737ZM60.8314 48.9737C60.8314 49.1079 60.8416 49.2198 60.862 49.3093C60.8824 49.3988 60.9153 49.4659 60.9607 49.5107C61.0067 49.5548 61.067 49.5768 61.1413 49.5768C61.2157 49.5768 61.2756 49.5548 61.321 49.5107C61.367 49.4666 61.4003 49.3998 61.4207 49.3103C61.4417 49.2208 61.4523 49.1086 61.4523 48.9737C61.4523 48.8414 61.4421 48.7309 61.4217 48.642C61.4013 48.5525 61.3684 48.4854 61.323 48.4406C61.2775 48.3952 61.217 48.3725 61.1413 48.3725C61.0656 48.3725 61.0051 48.3952 60.9597 48.4406C60.9143 48.4854 60.8814 48.5525 60.861 48.642C60.8412 48.7309 60.8314 48.8414 60.8314 48.9737Z" fill="#212121"/>
<rect x="65.2008" y="28.6002" width="7.77978" height="3.79061" rx="1.89531" fill="white"/>
<rect x="65.2008" y="28.6002" width="7.77978" height="3.79061" rx="1.89531" stroke="#D6D6D6" stroke-width="0.252708"/>
<path d="M67.3006 30.9961H67.1407V29.9734C67.1407 29.9346 67.1407 29.9014 67.1407 29.8737C67.1413 29.8454 67.142 29.8198 67.1426 29.7967C67.1439 29.773 67.1456 29.749 67.1476 29.7247C67.1272 29.7457 67.1081 29.7638 67.0903 29.779C67.0725 29.7934 67.0505 29.8115 67.0242 29.8332L66.8593 29.9655L66.7734 29.854L67.1643 29.5529H67.3006V30.9961ZM68.8652 30.6615H68.649V30.9961H68.4891V30.6615H67.7912V30.5233L68.4782 29.545H68.649V30.5134H68.8652V30.6615ZM68.4891 30.5134V30.0415C68.4891 30.0053 68.4894 29.9728 68.4901 29.9438C68.4907 29.9142 68.4917 29.8869 68.493 29.8619C68.4944 29.8362 68.4953 29.8119 68.496 29.7888C68.4973 29.7658 68.4983 29.7431 68.499 29.7207H68.4911C68.4786 29.747 68.4641 29.775 68.4476 29.8046C68.4318 29.8336 68.4157 29.8596 68.3993 29.8826L67.9541 30.5134H68.4891ZM69.0192 30.3791C69.0192 30.2923 69.0251 30.2074 69.037 30.1244C69.0495 30.0415 69.0702 29.9645 69.0991 29.8935C69.1281 29.8217 69.1676 29.7589 69.2176 29.7049C69.2676 29.651 69.3298 29.6088 69.4042 29.5786C69.4792 29.5476 69.569 29.5322 69.6737 29.5322C69.7033 29.5322 69.7352 29.5338 69.7694 29.5371C69.8036 29.5397 69.8319 29.5443 69.8543 29.5509V29.6921C69.83 29.6835 69.802 29.6773 69.7704 29.6733C69.7395 29.6694 69.7082 29.6674 69.6766 29.6674C69.5542 29.6674 69.4578 29.6941 69.3874 29.7474C69.3176 29.8007 69.2673 29.8731 69.2364 29.9645C69.2054 30.0554 69.1877 30.1577 69.183 30.2715H69.1939C69.2143 30.2386 69.2403 30.209 69.2719 30.1827C69.3035 30.1557 69.3416 30.1343 69.3864 30.1185C69.4318 30.1027 69.4845 30.0948 69.5443 30.0948C69.6286 30.0948 69.702 30.1119 69.7645 30.1462C69.8276 30.1804 69.8763 30.2301 69.9106 30.2952C69.9454 30.3604 69.9629 30.4393 69.9629 30.5321C69.9629 30.6315 69.9445 30.7174 69.9076 30.7898C69.8708 30.8622 69.8181 30.9181 69.7497 30.9576C69.6819 30.9964 69.6009 31.0158 69.5068 31.0158C69.4364 31.0158 69.3716 31.0023 69.3124 30.9754C69.2531 30.9484 69.2015 30.9082 69.1574 30.8549C69.1139 30.8016 69.0801 30.7355 69.0557 30.6565C69.0314 30.5769 69.0192 30.4844 69.0192 30.3791ZM69.5049 30.8776C69.5944 30.8776 69.6661 30.849 69.7201 30.7918C69.774 30.7345 69.801 30.648 69.801 30.5321C69.801 30.4374 69.777 30.3624 69.7289 30.3071C69.6809 30.2518 69.6085 30.2242 69.5118 30.2242C69.446 30.2242 69.3887 30.238 69.34 30.2656C69.2913 30.2926 69.2535 30.3268 69.2265 30.3683C69.1995 30.4097 69.186 30.4519 69.186 30.4946C69.186 30.5381 69.1923 30.5822 69.2048 30.6269C69.2179 30.6717 69.2377 30.7131 69.264 30.7513C69.2903 30.7895 69.3236 30.8201 69.3637 30.8431C69.4038 30.8661 69.4509 30.8776 69.5049 30.8776ZM70.6174 30.1136C70.7154 30.1136 70.8006 30.1304 70.873 30.1639C70.9454 30.1968 71.0014 30.2449 71.0408 30.3081C71.081 30.3712 71.1011 30.4479 71.1011 30.5381C71.1011 30.6368 71.0797 30.722 71.0369 30.7937C70.9941 30.8648 70.9326 30.9198 70.8523 30.9586C70.772 30.9968 70.6759 31.0158 70.5641 31.0158C70.489 31.0158 70.4193 31.0093 70.3548 30.9961C70.2903 30.9829 70.236 30.9632 70.1919 30.9369V30.7809C70.2399 30.8099 70.2982 30.8329 70.3666 30.85C70.4351 30.8671 70.5015 30.8757 70.566 30.8757C70.6391 30.8757 70.7029 30.8641 70.7575 30.8411C70.8128 30.8174 70.8556 30.7819 70.8859 30.7345C70.9168 30.6865 70.9323 30.6262 70.9323 30.5539C70.9323 30.4578 70.9026 30.3837 70.8434 30.3317C70.7848 30.2791 70.6921 30.2528 70.565 30.2528C70.5242 30.2528 70.4795 30.2561 70.4308 30.2626C70.3821 30.2692 70.3419 30.2765 70.3104 30.2844L70.2274 30.2301L70.2827 29.5529H71.0004V29.7029H70.4229L70.3864 30.1383C70.4114 30.133 70.4436 30.1277 70.4831 30.1225C70.5226 30.1166 70.5673 30.1136 70.6174 30.1136Z" fill="#212121"/>
<rect x="73.5397" y="17.735" width="7.77978" height="3.79061" rx="1.89531" fill="white"/>
<rect x="73.5397" y="17.735" width="7.77978" height="3.79061" rx="1.89531" stroke="#D6D6D6" stroke-width="0.252708"/>
<path d="M75.9751 20.1309H75.0294V19.9936L75.4154 19.6018C75.4871 19.5294 75.5473 19.4649 75.596 19.4083C75.6454 19.3517 75.6829 19.2961 75.7085 19.2414C75.7342 19.1862 75.747 19.1256 75.747 19.0598C75.747 18.9782 75.7227 18.916 75.674 18.8732C75.6259 18.8298 75.5624 18.8081 75.4835 18.8081C75.4144 18.8081 75.3532 18.8199 75.2999 18.8436C75.2466 18.8673 75.1919 18.9009 75.136 18.9443L75.0481 18.8338C75.0863 18.8015 75.1278 18.7729 75.1725 18.7479C75.2179 18.7229 75.2663 18.7031 75.3176 18.6886C75.3696 18.6742 75.4249 18.6669 75.4835 18.6669C75.5723 18.6669 75.649 18.6824 75.7135 18.7133C75.778 18.7443 75.8277 18.7884 75.8625 18.8456C75.8981 18.9029 75.9158 18.971 75.9158 19.0499C75.9158 19.1263 75.9007 19.1974 75.8704 19.2632C75.8402 19.3283 75.7977 19.3931 75.7431 19.4576C75.6885 19.5215 75.6246 19.5892 75.5516 19.661L75.2377 19.9739V19.9808H75.9751V20.1309ZM77.132 20.1309H76.1863V19.9936L76.5723 19.6018C76.644 19.5294 76.7042 19.4649 76.7529 19.4083C76.8023 19.3517 76.8398 19.2961 76.8655 19.2414C76.8911 19.1862 76.904 19.1256 76.904 19.0598C76.904 18.9782 76.8796 18.916 76.8309 18.8732C76.7829 18.8298 76.7194 18.8081 76.6404 18.8081C76.5713 18.8081 76.5101 18.8199 76.4568 18.8436C76.4035 18.8673 76.3489 18.9009 76.2929 18.9443L76.2051 18.8338C76.2432 18.8015 76.2847 18.7729 76.3295 18.7479C76.3749 18.7229 76.4232 18.7031 76.4746 18.6886C76.5265 18.6742 76.5818 18.6669 76.6404 18.6669C76.7292 18.6669 76.8059 18.6824 76.8704 18.7133C76.9349 18.7443 76.9846 18.7884 77.0195 18.8456C77.055 18.9029 77.0728 18.971 77.0728 19.0499C77.0728 19.1263 77.0576 19.1974 77.0274 19.2632C76.9971 19.3283 76.9546 19.3931 76.9 19.4576C76.8454 19.5215 76.7816 19.5892 76.7085 19.661L76.3946 19.9739V19.9808H77.132V20.1309ZM78.2909 19.3026C78.2909 19.3902 78.2846 19.4754 78.2721 19.5583C78.2603 19.6412 78.2396 19.7186 78.21 19.7903C78.181 19.862 78.1415 19.9249 78.0915 19.9788C78.0415 20.0328 77.9786 20.0753 77.903 20.1062C77.8279 20.1365 77.7381 20.1516 77.6335 20.1516C77.6052 20.1516 77.5729 20.1496 77.5367 20.1457C77.5005 20.1424 77.4709 20.1374 77.4479 20.1309V19.9887C77.4722 19.9973 77.5009 20.0042 77.5338 20.0094C77.5667 20.014 77.5989 20.0164 77.6305 20.0164C77.7536 20.0164 77.8503 19.99 77.9207 19.9374C77.9911 19.8841 78.0418 19.812 78.0727 19.7212C78.1037 19.6297 78.1211 19.5271 78.1251 19.4132H78.1132C78.0935 19.4448 78.0675 19.4741 78.0352 19.5011C78.0036 19.5274 77.9651 19.5488 77.9197 19.5652C77.8743 19.581 77.8213 19.5889 77.7608 19.5889C77.6772 19.5889 77.6042 19.5718 77.5417 19.5376C77.4798 19.5034 77.4314 19.4537 77.3965 19.3885C77.3623 19.3234 77.3452 19.2447 77.3452 19.1526C77.3452 19.0532 77.364 18.9674 77.4015 18.895C77.4397 18.8219 77.493 18.7656 77.5614 18.7262C77.6298 18.6867 77.7105 18.6669 77.8032 18.6669C77.8743 18.6669 77.9395 18.6804 77.9987 18.7074C78.0579 18.7344 78.1093 18.7749 78.1527 18.8288C78.1968 18.8821 78.2307 18.9483 78.2544 19.0272C78.2787 19.1062 78.2909 19.198 78.2909 19.3026ZM77.8032 18.8061C77.7157 18.8061 77.6446 18.8347 77.59 18.892C77.5361 18.9493 77.5091 19.0355 77.5091 19.1506C77.5091 19.2461 77.5324 19.3214 77.5792 19.3767C77.6259 19.432 77.698 19.4596 77.7954 19.4596C77.8625 19.4596 77.9204 19.4461 77.9691 19.4191C78.0184 19.3922 78.0563 19.3579 78.0826 19.3165C78.1096 19.275 78.1231 19.2326 78.1231 19.1891C78.1231 19.1457 78.1165 19.1016 78.1033 19.0569C78.0908 19.0121 78.0714 18.971 78.0451 18.9335C78.0188 18.8953 77.9855 18.8647 77.9454 18.8417C77.9053 18.818 77.8579 18.8061 77.8032 18.8061ZM78.977 18.6669C79.0605 18.6669 79.1346 18.6801 79.1991 18.7064C79.2636 18.7327 79.3139 18.7716 79.3501 18.8229C79.3869 18.8736 79.4054 18.9361 79.4054 19.0105C79.4054 19.069 79.3925 19.1204 79.3669 19.1645C79.3419 19.2079 79.308 19.2461 79.2652 19.279C79.2224 19.3112 79.175 19.3402 79.1231 19.3658C79.1849 19.3941 79.2405 19.426 79.2899 19.4616C79.3399 19.4971 79.3794 19.5389 79.4083 19.5869C79.4373 19.635 79.4518 19.6919 79.4518 19.7577C79.4518 19.8387 79.432 19.9088 79.3925 19.968C79.3537 20.0266 79.2991 20.0716 79.2287 20.1032C79.1583 20.1348 79.0757 20.1506 78.9809 20.1506C78.8789 20.1506 78.792 20.1355 78.7203 20.1052C78.6492 20.0743 78.5949 20.0302 78.5574 19.9729C78.5206 19.915 78.5021 19.8456 78.5021 19.7646C78.5021 19.6982 78.5163 19.6406 78.5446 19.5919C78.5729 19.5425 78.6104 19.5001 78.6571 19.4645C78.7038 19.429 78.7549 19.3991 78.8101 19.3747C78.7621 19.3484 78.718 19.3184 78.6779 19.2849C78.6384 19.2513 78.6068 19.2122 78.5831 19.1674C78.5601 19.122 78.5485 19.0694 78.5485 19.0095C78.5485 18.9364 78.567 18.8746 78.6038 18.8239C78.6413 18.7726 78.6923 18.7337 78.7568 18.7074C78.822 18.6804 78.8954 18.6669 78.977 18.6669ZM78.663 19.7656C78.663 19.8393 78.689 19.9002 78.741 19.9482C78.793 19.9956 78.8717 20.0193 78.977 20.0193C79.077 20.0193 79.1543 19.9956 79.2089 19.9482C79.2636 19.9002 79.2909 19.8374 79.2909 19.7597C79.2909 19.7117 79.2784 19.6695 79.2534 19.6333C79.2283 19.5965 79.1928 19.5636 79.1467 19.5346C79.1007 19.5057 79.0464 19.4793 78.9839 19.4557L78.9483 19.4428C78.8878 19.4678 78.8361 19.4958 78.7933 19.5267C78.7512 19.557 78.719 19.5916 78.6966 19.6304C78.6742 19.6692 78.663 19.7143 78.663 19.7656ZM78.975 18.8012C78.8973 18.8012 78.8338 18.8199 78.7845 18.8574C78.7351 18.8943 78.7104 18.9476 78.7104 19.0174C78.7104 19.0674 78.7223 19.1098 78.746 19.1447C78.7703 19.1789 78.8032 19.2085 78.8447 19.2335C78.8861 19.2579 78.9325 19.2806 78.9839 19.3017C79.0339 19.2806 79.0783 19.2576 79.1171 19.2326C79.156 19.2069 79.1866 19.1766 79.2089 19.1417C79.2313 19.1069 79.2425 19.0651 79.2425 19.0164C79.2425 18.9466 79.2178 18.8933 79.1685 18.8565C79.1198 18.8196 79.0553 18.8012 78.975 18.8012Z" fill="#212121"/>
<rect x="40.1822" y="23.0416" width="7.77978" height="3.79061" rx="1.89531" fill="white"/>
<rect x="40.1822" y="23.0416" width="7.77978" height="3.79061" rx="1.89531" stroke="#D6D6D6" stroke-width="0.252708"/>
<path d="M42.282 25.4375H42.1221V24.4148C42.1221 24.376 42.1221 24.3428 42.1221 24.3151C42.1228 24.2868 42.1234 24.2612 42.1241 24.2381C42.1254 24.2144 42.127 24.1904 42.129 24.1661C42.1086 24.1871 42.0895 24.2052 42.0718 24.2204C42.054 24.2348 42.0319 24.2529 42.0056 24.2747L41.8408 24.4069L41.7549 24.2954L42.1458 23.9943H42.282V25.4375ZM43.7765 24.6093C43.7765 24.6968 43.7703 24.782 43.7578 24.865C43.7459 24.9479 43.7252 25.0252 43.6956 25.0969C43.6666 25.1687 43.6272 25.2315 43.5771 25.2855C43.5271 25.3394 43.4643 25.3819 43.3886 25.4128C43.3136 25.4431 43.2237 25.4582 43.1191 25.4582C43.0908 25.4582 43.0586 25.4563 43.0224 25.4523C42.9862 25.449 42.9566 25.4441 42.9335 25.4375V25.2954C42.9579 25.3039 42.9865 25.3108 43.0194 25.3161C43.0523 25.3207 43.0846 25.323 43.1162 25.323C43.2392 25.323 43.336 25.2967 43.4064 25.244C43.4768 25.1907 43.5275 25.1187 43.5584 25.0278C43.5893 24.9364 43.6068 24.8337 43.6107 24.7198H43.5989C43.5791 24.7514 43.5531 24.7807 43.5209 24.8077C43.4893 24.834 43.4508 24.8554 43.4054 24.8719C43.36 24.8877 43.307 24.8956 43.2465 24.8956C43.1629 24.8956 43.0898 24.8785 43.0273 24.8442C42.9654 24.81 42.9171 24.7603 42.8822 24.6952C42.848 24.63 42.8309 24.5514 42.8309 24.4592C42.8309 24.3599 42.8496 24.274 42.8871 24.2016C42.9253 24.1286 42.9786 24.0723 43.0471 24.0328C43.1155 23.9933 43.1961 23.9736 43.2889 23.9736C43.36 23.9736 43.4251 23.9871 43.4844 24.014C43.5436 24.041 43.5949 24.0815 43.6383 24.1355C43.6824 24.1888 43.7163 24.2549 43.74 24.3339C43.7644 24.4128 43.7765 24.5047 43.7765 24.6093ZM43.2889 24.1128C43.2014 24.1128 43.1303 24.1414 43.0757 24.1986C43.0217 24.2559 42.9947 24.3421 42.9947 24.4573C42.9947 24.5527 43.0181 24.628 43.0648 24.6833C43.1115 24.7386 43.1836 24.7662 43.281 24.7662C43.3481 24.7662 43.406 24.7528 43.4547 24.7258C43.5041 24.6988 43.5419 24.6646 43.5683 24.6231C43.5952 24.5817 43.6087 24.5392 43.6087 24.4958C43.6087 24.4523 43.6022 24.4082 43.589 24.3635C43.5765 24.3187 43.5571 24.2776 43.5307 24.2401C43.5044 24.2019 43.4712 24.1713 43.431 24.1483C43.3909 24.1246 43.3435 24.1128 43.2889 24.1128ZM44.4419 24.555C44.5399 24.555 44.6252 24.5718 44.6975 24.6053C44.7699 24.6382 44.8259 24.6863 44.8654 24.7495C44.9055 24.8126 44.9256 24.8893 44.9256 24.9795C44.9256 25.0782 44.9042 25.1634 44.8614 25.2351C44.8186 25.3062 44.7571 25.3612 44.6768 25.4C44.5965 25.4382 44.5004 25.4572 44.3886 25.4572C44.3136 25.4572 44.2438 25.4507 44.1793 25.4375C44.1148 25.4243 44.0605 25.4046 44.0164 25.3783V25.2223C44.0645 25.2513 44.1227 25.2743 44.1911 25.2914C44.2596 25.3085 44.3261 25.3171 44.3905 25.3171C44.4636 25.3171 44.5274 25.3056 44.5821 25.2825C44.6373 25.2588 44.6801 25.2233 44.7104 25.1759C44.7413 25.1279 44.7568 25.0677 44.7568 24.9953C44.7568 24.8992 44.7272 24.8251 44.6679 24.7732C44.6094 24.7205 44.5166 24.6942 44.3896 24.6942C44.3488 24.6942 44.304 24.6975 44.2553 24.7041C44.2066 24.7106 44.1665 24.7179 44.1349 24.7258L44.052 24.6715L44.1072 23.9943H44.8249V24.1443H44.2474L44.2109 24.5797C44.2359 24.5744 44.2681 24.5691 44.3076 24.5639C44.3471 24.558 44.3919 24.555 44.4419 24.555ZM46.0351 24.3309C46.0351 24.3954 46.0226 24.4513 45.9976 24.4987C45.9726 24.5461 45.9377 24.5849 45.893 24.6152C45.8482 24.6448 45.7956 24.6656 45.735 24.6774V24.6853C45.8495 24.6998 45.9354 24.7366 45.9927 24.7959C46.0506 24.8551 46.0795 24.9327 46.0795 25.0288C46.0795 25.1124 46.0598 25.1864 46.0203 25.2509C45.9815 25.3154 45.9216 25.3661 45.8407 25.403C45.7604 25.4391 45.6574 25.4572 45.5317 25.4572C45.4553 25.4572 45.3846 25.451 45.3194 25.4385C45.255 25.4266 45.1931 25.4066 45.1339 25.3783V25.2243C45.1937 25.2539 45.2589 25.2773 45.3293 25.2944C45.3997 25.3108 45.4678 25.319 45.5337 25.319C45.6653 25.319 45.7604 25.293 45.8189 25.2411C45.8775 25.1884 45.9068 25.1167 45.9068 25.0259C45.9068 24.9633 45.8903 24.913 45.8574 24.8748C45.8252 24.836 45.7785 24.8077 45.7173 24.7899C45.6567 24.7715 45.5837 24.7623 45.4981 24.7623H45.354V24.6221H45.4991C45.5774 24.6221 45.6439 24.6106 45.6985 24.5876C45.7531 24.5645 45.7946 24.5323 45.8229 24.4908C45.8518 24.4487 45.8663 24.399 45.8663 24.3418C45.8663 24.2687 45.842 24.2125 45.7933 24.173C45.7446 24.1328 45.6784 24.1128 45.5949 24.1128C45.5435 24.1128 45.4968 24.118 45.4547 24.1286C45.4126 24.1391 45.3731 24.1536 45.3362 24.172C45.2994 24.1904 45.2625 24.2118 45.2257 24.2362L45.1427 24.1236C45.1954 24.0828 45.2596 24.0476 45.3352 24.018C45.4109 23.9884 45.4968 23.9736 45.5929 23.9736C45.7403 23.9736 45.8509 24.0071 45.9246 24.0743C45.9983 24.1414 46.0351 24.2269 46.0351 24.3309Z" fill="#212121"/>
<path d="M19.334 62.5901L27.547 45.9114L35.76 50.5865L44.2257 39.4673L52.565 51.471L60.9044 33.276L69.2437 49.4493L77.5831 31.7598" stroke="#FBB33E" stroke-width="0.505415"/>
<path d="M19.3343 63.0963C19.753 63.0963 20.0924 62.7569 20.0924 62.3382C20.0924 61.9195 19.753 61.5801 19.3343 61.5801C18.9156 61.5801 18.5762 61.9195 18.5762 62.3382C18.5762 62.7569 18.9156 63.0963 19.3343 63.0963Z" fill="#6C5BFF"/>
<path d="M27.4199 45.2783C28.0479 45.2784 28.5566 45.788 28.5566 46.416C28.5566 47.044 28.0479 47.5527 27.4199 47.5527C26.7919 47.5527 26.2823 47.044 26.2822 46.416C26.2822 45.788 26.7919 45.2783 27.4199 45.2783Z" fill="white" stroke="#FBB33E" stroke-width="0.252708"/>
<path d="M27.4202 47.1744C27.8389 47.1744 28.1784 46.835 28.1784 46.4163C28.1784 45.9976 27.8389 45.6582 27.4202 45.6582C27.0015 45.6582 26.6621 45.9976 26.6621 46.4163C26.6621 46.835 27.0015 47.1744 27.4202 47.1744Z" fill="#FBB33E"/>
<path d="M35.7598 49.8271C36.3878 49.8272 36.8965 50.3368 36.8965 50.9648C36.8964 51.5928 36.3877 52.1015 35.7598 52.1016C35.1318 52.1016 34.6221 51.5928 34.6221 50.9648C34.6221 50.3368 35.1317 49.8271 35.7598 49.8271Z" fill="white" stroke="#FBB33E" stroke-width="0.252708"/>
<path d="M35.7601 51.7233C36.1788 51.7233 36.5182 51.3839 36.5182 50.9652C36.5182 50.5465 36.1788 50.207 35.7601 50.207C35.3414 50.207 35.002 50.5465 35.002 50.9652C35.002 51.3839 35.3414 51.7233 35.7601 51.7233Z" fill="#FBB33E"/>
<path d="M44.0986 38.708C44.7266 38.7081 45.2354 39.2177 45.2354 39.8457C45.2353 40.4736 44.7266 40.9823 44.0986 40.9824C43.4706 40.9824 42.961 40.4737 42.9609 39.8457C42.9609 39.2177 43.4706 38.708 44.0986 38.708Z" fill="white" stroke="#FBB33E" stroke-width="0.252708"/>
<path d="M44.0989 40.6041C44.5176 40.6041 44.8571 40.2647 44.8571 39.846C44.8571 39.4273 44.5176 39.0879 44.0989 39.0879C43.6802 39.0879 43.3408 39.4273 43.3408 39.846C43.3408 40.2647 43.6802 40.6041 44.0989 40.6041Z" fill="#FBB33E"/>
<path d="M52.4385 51.0908C53.0665 51.0909 53.5752 51.6005 53.5752 52.2285C53.5751 52.8565 53.0664 53.3652 52.4385 53.3652C51.8105 53.3652 51.3009 52.8565 51.3008 52.2285C51.3008 51.6005 51.8104 51.0908 52.4385 51.0908Z" fill="white" stroke="#FBB33E" stroke-width="0.252708"/>
<path d="M52.4388 52.9869C52.8575 52.9869 53.1969 52.6475 53.1969 52.2288C53.1969 51.8101 52.8575 51.4707 52.4388 51.4707C52.0201 51.4707 51.6807 51.8101 51.6807 52.2288C51.6807 52.6475 52.0201 52.9869 52.4388 52.9869Z" fill="#FBB33E"/>
<path d="M60.7773 32.6436C61.4053 32.6436 61.9141 33.1532 61.9141 33.7812C61.914 34.4092 61.4053 34.9179 60.7773 34.918C60.1493 34.918 59.6397 34.4092 59.6396 33.7812C59.6396 33.1532 60.1493 32.6436 60.7773 32.6436Z" fill="white" stroke="#FBB33E" stroke-width="0.252708"/>
<path d="M60.7777 34.5397C61.1964 34.5397 61.5358 34.2003 61.5358 33.7816C61.5358 33.3629 61.1964 33.0234 60.7777 33.0234C60.359 33.0234 60.0195 33.3629 60.0195 33.7816C60.0195 34.2003 60.359 34.5397 60.7777 34.5397Z" fill="#FBB33E"/>
<path d="M69.1172 48.8174C69.7452 48.8175 70.2539 49.3271 70.2539 49.9551C70.2538 50.583 69.7451 51.0917 69.1172 51.0918C68.4892 51.0918 67.9796 50.5831 67.9795 49.9551C67.9795 49.327 68.4891 48.8174 69.1172 48.8174Z" fill="white" stroke="#FBB33E" stroke-width="0.252708"/>
<path d="M69.1175 50.7135C69.5362 50.7135 69.8756 50.3741 69.8756 49.9554C69.8756 49.5367 69.5362 49.1973 69.1175 49.1973C68.6988 49.1973 68.3594 49.5367 68.3594 49.9554C68.3594 50.3741 68.6988 50.7135 69.1175 50.7135Z" fill="#FBB33E"/>
<path d="M77.4561 31.6318C78.084 31.6319 78.5928 32.1415 78.5928 32.7695C78.5927 33.3975 78.084 33.9062 77.4561 33.9062C76.828 33.9062 76.3184 33.3975 76.3184 32.7695C76.3184 32.1415 76.828 31.6318 77.4561 31.6318Z" fill="white" stroke="#FBB33E" stroke-width="0.252708"/>
<path d="M77.4564 33.528C77.8751 33.528 78.2145 33.1885 78.2145 32.7698C78.2145 32.3511 77.8751 32.0117 77.4564 32.0117C77.0377 32.0117 76.6982 32.3511 76.6982 32.7698C76.6982 33.1885 77.0377 33.528 77.4564 33.528Z" fill="#FBB33E"/>
</g>
<defs>
<clipPath id="clip0_7813_60661">
<rect width="70" height="62.9242" fill="white" transform="translate(11.5 11.0371)"/>
</clipPath>
</defs>
</svg>
