<svg width="92" height="92" viewBox="0 0 92 92" fill="none" xmlns="http://www.w3.org/2000/svg">
<rect x="0.389831" y="0.389831" width="91.079" height="91.2203" rx="17.5424" stroke="#BEBEBE" stroke-width="0.779661"/>
<g clip-path="url(#clip0_7813_60525)">
<rect width="70" height="56.0481" transform="translate(14.5 14.4766)" fill="white"/>
<path d="M22.6787 20.25V66.6761" stroke="#E0E0E0" stroke-width="0.24055"/>
<path d="M16.8635 22.25H15.9633V22.1194L16.3307 21.7463C16.399 21.6774 16.4563 21.6161 16.5026 21.5622C16.5496 21.5083 16.5853 21.4554 16.6098 21.4034C16.6342 21.3508 16.6464 21.2931 16.6464 21.2305C16.6464 21.1528 16.6232 21.0936 16.5769 21.0529C16.5311 21.0115 16.4707 20.9909 16.3955 20.9909C16.3297 20.9909 16.2715 21.0021 16.2207 21.0247C16.17 21.0473 16.118 21.0792 16.0648 21.1205L15.9811 21.0153C16.0175 20.9846 16.0569 20.9574 16.0995 20.9336C16.1427 20.9097 16.1888 20.891 16.2377 20.8772C16.2871 20.8634 16.3398 20.8565 16.3955 20.8565C16.4801 20.8565 16.5531 20.8712 16.6144 20.9007C16.6758 20.9301 16.7231 20.9721 16.7563 21.0266C16.7902 21.0811 16.8071 21.1459 16.8071 21.2211C16.8071 21.2938 16.7927 21.3614 16.7639 21.424C16.735 21.4861 16.6946 21.5478 16.6426 21.6092C16.5906 21.6699 16.5299 21.7344 16.4603 21.8027L16.1615 22.1006V22.1072H16.8635V22.25ZM17.4987 21.41C17.592 21.41 17.6731 21.4259 17.742 21.4579C17.8109 21.4892 17.8642 21.5349 17.9018 21.5951C17.94 21.6552 17.9591 21.7282 17.9591 21.814C17.9591 21.908 17.9387 21.9891 17.898 22.0574C17.8573 22.125 17.7987 22.1773 17.7223 22.2143C17.6459 22.2506 17.5544 22.2688 17.4479 22.2688C17.3765 22.2688 17.3101 22.2625 17.2487 22.25C17.1873 22.2375 17.1356 22.2187 17.0937 22.1936V22.0452C17.1394 22.0727 17.1948 22.0946 17.26 22.1109C17.3251 22.1272 17.3884 22.1354 17.4498 22.1354C17.5193 22.1354 17.5801 22.1244 17.6321 22.1025C17.6847 22.0799 17.7254 22.0461 17.7542 22.001C17.7837 21.9553 17.7984 21.8979 17.7984 21.829C17.7984 21.7376 17.7702 21.6671 17.7138 21.6176C17.6581 21.5675 17.5698 21.5424 17.4489 21.5424C17.41 21.5424 17.3674 21.5456 17.3211 21.5518C17.2747 21.5581 17.2365 21.565 17.2064 21.5725L17.1275 21.5208L17.1801 20.8762H17.8632V21.0191H17.3135L17.2788 21.4334C17.3026 21.4284 17.3333 21.4234 17.3709 21.4184C17.4085 21.4128 17.451 21.41 17.4987 21.41ZM19.0735 21.5612C19.0735 21.6727 19.0651 21.7723 19.0481 21.86C19.0312 21.9477 19.0046 22.022 18.9683 22.0827C18.9319 22.1435 18.885 22.1899 18.8273 22.2218C18.7697 22.2531 18.7005 22.2688 18.6197 22.2688C18.5175 22.2688 18.433 22.2409 18.366 22.1852C18.2996 22.1294 18.2497 22.0489 18.2165 21.9437C18.184 21.8378 18.1677 21.7103 18.1677 21.5612C18.1677 21.4147 18.1824 21.2887 18.2119 21.1835C18.2419 21.0776 18.2902 20.9965 18.3566 20.9401C18.423 20.8831 18.5107 20.8546 18.6197 20.8546C18.723 20.8546 18.8082 20.8828 18.8752 20.9392C18.9423 20.9949 18.9921 21.0758 19.0246 21.1816C19.0572 21.2869 19.0735 21.4134 19.0735 21.5612ZM18.3246 21.5612C18.3246 21.689 18.3343 21.7955 18.3537 21.8807C18.3732 21.9659 18.4045 22.0298 18.4477 22.0724C18.4916 22.1144 18.5489 22.1354 18.6197 22.1354C18.6904 22.1354 18.7474 22.1144 18.7907 22.0724C18.8345 22.0304 18.8662 21.9669 18.8856 21.8817C18.9056 21.7965 18.9156 21.6897 18.9156 21.5612C18.9156 21.4353 18.9059 21.3301 18.8865 21.2455C18.8671 21.1603 18.8358 21.0964 18.7926 21.0538C18.7493 21.0106 18.6917 20.989 18.6197 20.989C18.5476 20.989 18.49 21.0106 18.4468 21.0538C18.4035 21.0964 18.3722 21.1603 18.3528 21.2455C18.334 21.3301 18.3246 21.4353 18.3246 21.5612ZM20.1748 21.5612C20.1748 21.6727 20.1663 21.7723 20.1494 21.86C20.1325 21.9477 20.1059 22.022 20.0695 22.0827C20.0332 22.1435 19.9862 22.1899 19.9286 22.2218C19.871 22.2531 19.8017 22.2688 19.7209 22.2688C19.6188 22.2688 19.5342 22.2409 19.4672 22.1852C19.4008 22.1294 19.351 22.0489 19.3178 21.9437C19.2852 21.8378 19.269 21.7103 19.269 21.5612C19.269 21.4147 19.2837 21.2887 19.3131 21.1835C19.3432 21.0776 19.3914 20.9965 19.4578 20.9401C19.5242 20.8831 19.6119 20.8546 19.7209 20.8546C19.8243 20.8546 19.9095 20.8828 19.9765 20.9392C20.0435 20.9949 20.0933 21.0758 20.1259 21.1816C20.1585 21.2869 20.1748 21.4134 20.1748 21.5612ZM19.4259 21.5612C19.4259 21.689 19.4356 21.7955 19.455 21.8807C19.4744 21.9659 19.5057 22.0298 19.549 22.0724C19.5928 22.1144 19.6501 22.1354 19.7209 22.1354C19.7917 22.1354 19.8487 22.1144 19.8919 22.0724C19.9358 22.0304 19.9674 21.9669 19.9868 21.8817C20.0069 21.7965 20.0169 21.6897 20.0169 21.5612C20.0169 21.4353 20.0072 21.3301 19.9878 21.2455C19.9684 21.1603 19.937 21.0964 19.8938 21.0538C19.8506 21.0106 19.793 20.989 19.7209 20.989C19.6489 20.989 19.5913 21.0106 19.548 21.0538C19.5048 21.0964 19.4735 21.1603 19.4541 21.2455C19.4353 21.3301 19.4259 21.4353 19.4259 21.5612Z" fill="#212121"/>
<path d="M16.8635 29.5801H15.9633V29.4495L16.3307 29.0764C16.399 29.0075 16.4563 28.9461 16.5026 28.8923C16.5496 28.8384 16.5853 28.7854 16.6098 28.7335C16.6342 28.6808 16.6464 28.6232 16.6464 28.5606C16.6464 28.4829 16.6232 28.4237 16.5769 28.383C16.5311 28.3416 16.4707 28.321 16.3955 28.321C16.3297 28.321 16.2715 28.3322 16.2207 28.3548C16.17 28.3773 16.118 28.4093 16.0648 28.4506L15.9811 28.3454C16.0175 28.3147 16.0569 28.2874 16.0995 28.2636C16.1427 28.2398 16.1888 28.221 16.2377 28.2073C16.2871 28.1935 16.3398 28.1866 16.3955 28.1866C16.4801 28.1866 16.5531 28.2013 16.6144 28.2307C16.6758 28.2602 16.7231 28.3022 16.7563 28.3567C16.7902 28.4112 16.8071 28.476 16.8071 28.5512C16.8071 28.6238 16.7927 28.6915 16.7639 28.7541C16.735 28.8161 16.6946 28.8778 16.6426 28.9392C16.5906 29 16.5299 29.0645 16.4603 29.1328L16.1615 29.4307V29.4373H16.8635V29.5801ZM17.9722 28.8913C17.9722 29.0028 17.9638 29.1024 17.9469 29.1901C17.93 29.2778 17.9033 29.3521 17.867 29.4128C17.8307 29.4736 17.7837 29.5199 17.7261 29.5519C17.6684 29.5832 17.5992 29.5989 17.5184 29.5989C17.4163 29.5989 17.3317 29.571 17.2647 29.5152C17.1983 29.4595 17.1485 29.379 17.1153 29.2738C17.0827 29.1679 17.0664 29.0404 17.0664 28.8913C17.0664 28.7447 17.0811 28.6188 17.1106 28.5136C17.1407 28.4077 17.1889 28.3266 17.2553 28.2702C17.3217 28.2132 17.4094 28.1847 17.5184 28.1847C17.6218 28.1847 17.7069 28.2129 17.774 28.2693C17.841 28.325 17.8908 28.4058 17.9234 28.5117C17.956 28.6169 17.9722 28.7435 17.9722 28.8913ZM17.2233 28.8913C17.2233 29.0191 17.2331 29.1256 17.2525 29.2108C17.2719 29.296 17.3032 29.3599 17.3464 29.4025C17.3903 29.4445 17.4476 29.4654 17.5184 29.4654C17.5892 29.4654 17.6462 29.4445 17.6894 29.4025C17.7333 29.3605 17.7649 29.2969 17.7843 29.2117C17.8044 29.1265 17.8144 29.0197 17.8144 28.8913C17.8144 28.7654 17.8047 28.6602 17.7853 28.5756C17.7658 28.4904 17.7345 28.4265 17.6913 28.3839C17.6481 28.3407 17.5904 28.3191 17.5184 28.3191C17.4464 28.3191 17.3887 28.3407 17.3455 28.3839C17.3023 28.4265 17.2709 28.4904 17.2515 28.5756C17.2327 28.6602 17.2233 28.7654 17.2233 28.8913ZM19.0735 28.8913C19.0735 29.0028 19.0651 29.1024 19.0481 29.1901C19.0312 29.2778 19.0046 29.3521 18.9683 29.4128C18.9319 29.4736 18.885 29.5199 18.8273 29.5519C18.7697 29.5832 18.7005 29.5989 18.6197 29.5989C18.5175 29.5989 18.433 29.571 18.366 29.5152C18.2996 29.4595 18.2497 29.379 18.2165 29.2738C18.184 29.1679 18.1677 29.0404 18.1677 28.8913C18.1677 28.7447 18.1824 28.6188 18.2119 28.5136C18.2419 28.4077 18.2902 28.3266 18.3566 28.2702C18.423 28.2132 18.5107 28.1847 18.6197 28.1847C18.723 28.1847 18.8082 28.2129 18.8752 28.2693C18.9423 28.325 18.9921 28.4058 19.0246 28.5117C19.0572 28.6169 19.0735 28.7435 19.0735 28.8913ZM18.3246 28.8913C18.3246 29.0191 18.3343 29.1256 18.3537 29.2108C18.3732 29.296 18.4045 29.3599 18.4477 29.4025C18.4916 29.4445 18.5489 29.4654 18.6197 29.4654C18.6904 29.4654 18.7474 29.4445 18.7907 29.4025C18.8345 29.3605 18.8662 29.2969 18.8856 29.2117C18.9056 29.1265 18.9156 29.0197 18.9156 28.8913C18.9156 28.7654 18.9059 28.6602 18.8865 28.5756C18.8671 28.4904 18.8358 28.4265 18.7926 28.3839C18.7493 28.3407 18.6917 28.3191 18.6197 28.3191C18.5476 28.3191 18.49 28.3407 18.4468 28.3839C18.4035 28.4265 18.3722 28.4904 18.3528 28.5756C18.334 28.6602 18.3246 28.7654 18.3246 28.8913ZM20.1748 28.8913C20.1748 29.0028 20.1663 29.1024 20.1494 29.1901C20.1325 29.2778 20.1059 29.3521 20.0695 29.4128C20.0332 29.4736 19.9862 29.5199 19.9286 29.5519C19.871 29.5832 19.8017 29.5989 19.7209 29.5989C19.6188 29.5989 19.5342 29.571 19.4672 29.5152C19.4008 29.4595 19.351 29.379 19.3178 29.2738C19.2852 29.1679 19.269 29.0404 19.269 28.8913C19.269 28.7447 19.2837 28.6188 19.3131 28.5136C19.3432 28.4077 19.3914 28.3266 19.4578 28.2702C19.5242 28.2132 19.6119 28.1847 19.7209 28.1847C19.8243 28.1847 19.9095 28.2129 19.9765 28.2693C20.0435 28.325 20.0933 28.4058 20.1259 28.5117C20.1585 28.6169 20.1748 28.7435 20.1748 28.8913ZM19.4259 28.8913C19.4259 29.0191 19.4356 29.1256 19.455 29.2108C19.4744 29.296 19.5057 29.3599 19.549 29.4025C19.5928 29.4445 19.6501 29.4654 19.7209 29.4654C19.7917 29.4654 19.8487 29.4445 19.8919 29.4025C19.9358 29.3605 19.9674 29.2969 19.9868 29.2117C20.0069 29.1265 20.0169 29.0197 20.0169 28.8913C20.0169 28.7654 20.0072 28.6602 19.9878 28.5756C19.9684 28.4904 19.937 28.4265 19.8938 28.3839C19.8506 28.3407 19.793 28.3191 19.7209 28.3191C19.6489 28.3191 19.5913 28.3407 19.548 28.3839C19.5048 28.4265 19.4735 28.4904 19.4541 28.5756C19.4353 28.6602 19.4259 28.7654 19.4259 28.8913Z" fill="#212121"/>
<path d="M16.544 36.9102H16.3918V35.9367C16.3918 35.8997 16.3918 35.8681 16.3918 35.8418C16.3924 35.8148 16.393 35.7904 16.3936 35.7685C16.3949 35.7459 16.3965 35.7231 16.3983 35.6999C16.3789 35.7199 16.3607 35.7372 16.3438 35.7516C16.3269 35.7654 16.3059 35.7826 16.2809 35.8033L16.124 35.9292L16.0422 35.823L16.4143 35.5364H16.544V36.9102ZM17.4987 36.0701C17.592 36.0701 17.6731 36.0861 17.742 36.118C17.8109 36.1494 17.8642 36.1951 17.9018 36.2552C17.94 36.3154 17.9591 36.3883 17.9591 36.4742C17.9591 36.5681 17.9387 36.6492 17.898 36.7175C17.8573 36.7852 17.7987 36.8375 17.7223 36.8744C17.6459 36.9108 17.5544 36.9289 17.4479 36.9289C17.3765 36.9289 17.3101 36.9227 17.2487 36.9102C17.1873 36.8976 17.1356 36.8788 17.0937 36.8538V36.7053C17.1394 36.7329 17.1948 36.7548 17.26 36.7711C17.3251 36.7874 17.3884 36.7955 17.4498 36.7955C17.5193 36.7955 17.5801 36.7846 17.6321 36.7626C17.6847 36.7401 17.7254 36.7063 17.7542 36.6611C17.7837 36.6154 17.7984 36.5581 17.7984 36.4892C17.7984 36.3977 17.7702 36.3273 17.7138 36.2778C17.6581 36.2277 17.5698 36.2026 17.4489 36.2026C17.41 36.2026 17.3674 36.2057 17.3211 36.212C17.2747 36.2183 17.2365 36.2252 17.2064 36.2327L17.1275 36.181L17.1801 35.5364H17.8632V35.6792H17.3135L17.2788 36.0936C17.3026 36.0886 17.3333 36.0836 17.3709 36.0786C17.4085 36.0729 17.451 36.0701 17.4987 36.0701ZM19.0735 36.2214C19.0735 36.3329 19.0651 36.4325 19.0481 36.5202C19.0312 36.6079 19.0046 36.6821 18.9683 36.7429C18.9319 36.8037 18.885 36.85 18.8273 36.882C18.7697 36.9133 18.7005 36.9289 18.6197 36.9289C18.5175 36.9289 18.433 36.9011 18.366 36.8453C18.2996 36.7896 18.2497 36.7091 18.2165 36.6038C18.184 36.498 18.1677 36.3705 18.1677 36.2214C18.1677 36.0748 18.1824 35.9489 18.2119 35.8437C18.2419 35.7378 18.2902 35.6567 18.3566 35.6003C18.423 35.5433 18.5107 35.5148 18.6197 35.5148C18.723 35.5148 18.8082 35.543 18.8752 35.5993C18.9423 35.6551 18.9921 35.7359 19.0246 35.8418C19.0572 35.947 19.0735 36.0736 19.0735 36.2214ZM18.3246 36.2214C18.3246 36.3492 18.3343 36.4557 18.3537 36.5409C18.3732 36.6261 18.4045 36.69 18.4477 36.7326C18.4916 36.7745 18.5489 36.7955 18.6197 36.7955C18.6904 36.7955 18.7474 36.7745 18.7907 36.7326C18.8345 36.6906 18.8662 36.627 18.8856 36.5418C18.9056 36.4566 18.9156 36.3498 18.9156 36.2214C18.9156 36.0955 18.9059 35.9902 18.8865 35.9057C18.8671 35.8205 18.8358 35.7566 18.7926 35.714C18.7493 35.6708 18.6917 35.6491 18.6197 35.6491C18.5476 35.6491 18.49 35.6708 18.4468 35.714C18.4035 35.7566 18.3722 35.8205 18.3528 35.9057C18.334 35.9902 18.3246 36.0955 18.3246 36.2214ZM20.1748 36.2214C20.1748 36.3329 20.1663 36.4325 20.1494 36.5202C20.1325 36.6079 20.1059 36.6821 20.0695 36.7429C20.0332 36.8037 19.9862 36.85 19.9286 36.882C19.871 36.9133 19.8017 36.9289 19.7209 36.9289C19.6188 36.9289 19.5342 36.9011 19.4672 36.8453C19.4008 36.7896 19.351 36.7091 19.3178 36.6038C19.2852 36.498 19.269 36.3705 19.269 36.2214C19.269 36.0748 19.2837 35.9489 19.3131 35.8437C19.3432 35.7378 19.3914 35.6567 19.4578 35.6003C19.5242 35.5433 19.6119 35.5148 19.7209 35.5148C19.8243 35.5148 19.9095 35.543 19.9765 35.5993C20.0435 35.6551 20.0933 35.7359 20.1259 35.8418C20.1585 35.947 20.1748 36.0736 20.1748 36.2214ZM19.4259 36.2214C19.4259 36.3492 19.4356 36.4557 19.455 36.5409C19.4744 36.6261 19.5057 36.69 19.549 36.7326C19.5928 36.7745 19.6501 36.7955 19.7209 36.7955C19.7917 36.7955 19.8487 36.7745 19.8919 36.7326C19.9358 36.6906 19.9674 36.627 19.9868 36.5418C20.0069 36.4566 20.0169 36.3498 20.0169 36.2214C20.0169 36.0955 20.0072 35.9902 19.9878 35.9057C19.9684 35.8205 19.937 35.7566 19.8938 35.714C19.8506 35.6708 19.793 35.6491 19.7209 35.6491C19.6489 35.6491 19.5913 35.6708 19.548 35.714C19.5048 35.7566 19.4735 35.8205 19.4541 35.9057C19.4353 35.9902 19.4259 36.0955 19.4259 36.2214Z" fill="#212121"/>
<path d="M16.544 44.2402H16.3918V43.2668C16.3918 43.2298 16.3918 43.1982 16.3918 43.1719C16.3924 43.1449 16.393 43.1205 16.3936 43.0986C16.3949 43.076 16.3965 43.0531 16.3983 43.03C16.3789 43.05 16.3607 43.0672 16.3438 43.0816C16.3269 43.0954 16.3059 43.1127 16.2809 43.1333L16.124 43.2592L16.0422 43.1531L16.4143 42.8665H16.544V44.2402ZM17.9722 43.5515C17.9722 43.663 17.9638 43.7626 17.9469 43.8503C17.93 43.938 17.9033 44.0122 17.867 44.073C17.8307 44.1337 17.7837 44.1801 17.7261 44.212C17.6684 44.2434 17.5992 44.259 17.5184 44.259C17.4163 44.259 17.3317 44.2312 17.2647 44.1754C17.1983 44.1196 17.1485 44.0391 17.1153 43.9339C17.0827 43.828 17.0664 43.7006 17.0664 43.5515C17.0664 43.4049 17.0811 43.279 17.1106 43.1737C17.1407 43.0679 17.1889 42.9867 17.2553 42.9304C17.3217 42.8734 17.4094 42.8449 17.5184 42.8449C17.6218 42.8449 17.7069 42.873 17.774 42.9294C17.841 42.9852 17.8908 43.066 17.9234 43.1719C17.956 43.2771 17.9722 43.4036 17.9722 43.5515ZM17.2233 43.5515C17.2233 43.6793 17.2331 43.7858 17.2525 43.871C17.2719 43.9561 17.3032 44.02 17.3464 44.0626C17.3903 44.1046 17.4476 44.1256 17.5184 44.1256C17.5892 44.1256 17.6462 44.1046 17.6894 44.0626C17.7333 44.0207 17.7649 43.9571 17.7843 43.8719C17.8044 43.7867 17.8144 43.6799 17.8144 43.5515C17.8144 43.4256 17.8047 43.3203 17.7853 43.2358C17.7658 43.1506 17.7345 43.0867 17.6913 43.0441C17.6481 43.0008 17.5904 42.9792 17.5184 42.9792C17.4464 42.9792 17.3887 43.0008 17.3455 43.0441C17.3023 43.0867 17.2709 43.1506 17.2515 43.2358C17.2327 43.3203 17.2233 43.4256 17.2233 43.5515ZM19.0735 43.5515C19.0735 43.663 19.0651 43.7626 19.0481 43.8503C19.0312 43.938 19.0046 44.0122 18.9683 44.073C18.9319 44.1337 18.885 44.1801 18.8273 44.212C18.7697 44.2434 18.7005 44.259 18.6197 44.259C18.5175 44.259 18.433 44.2312 18.366 44.1754C18.2996 44.1196 18.2497 44.0391 18.2165 43.9339C18.184 43.828 18.1677 43.7006 18.1677 43.5515C18.1677 43.4049 18.1824 43.279 18.2119 43.1737C18.2419 43.0679 18.2902 42.9867 18.3566 42.9304C18.423 42.8734 18.5107 42.8449 18.6197 42.8449C18.723 42.8449 18.8082 42.873 18.8752 42.9294C18.9423 42.9852 18.9921 43.066 19.0246 43.1719C19.0572 43.2771 19.0735 43.4036 19.0735 43.5515ZM18.3246 43.5515C18.3246 43.6793 18.3343 43.7858 18.3537 43.871C18.3732 43.9561 18.4045 44.02 18.4477 44.0626C18.4916 44.1046 18.5489 44.1256 18.6197 44.1256C18.6904 44.1256 18.7474 44.1046 18.7907 44.0626C18.8345 44.0207 18.8662 43.9571 18.8856 43.8719C18.9056 43.7867 18.9156 43.6799 18.9156 43.5515C18.9156 43.4256 18.9059 43.3203 18.8865 43.2358C18.8671 43.1506 18.8358 43.0867 18.7926 43.0441C18.7493 43.0008 18.6917 42.9792 18.6197 42.9792C18.5476 42.9792 18.49 43.0008 18.4468 43.0441C18.4035 43.0867 18.3722 43.1506 18.3528 43.2358C18.334 43.3203 18.3246 43.4256 18.3246 43.5515ZM20.1748 43.5515C20.1748 43.663 20.1663 43.7626 20.1494 43.8503C20.1325 43.938 20.1059 44.0122 20.0695 44.073C20.0332 44.1337 19.9862 44.1801 19.9286 44.212C19.871 44.2434 19.8017 44.259 19.7209 44.259C19.6188 44.259 19.5342 44.2312 19.4672 44.1754C19.4008 44.1196 19.351 44.0391 19.3178 43.9339C19.2852 43.828 19.269 43.7006 19.269 43.5515C19.269 43.4049 19.2837 43.279 19.3131 43.1737C19.3432 43.0679 19.3914 42.9867 19.4578 42.9304C19.5242 42.8734 19.6119 42.8449 19.7209 42.8449C19.8243 42.8449 19.9095 42.873 19.9765 42.9294C20.0435 42.9852 20.0933 43.066 20.1259 43.1719C20.1585 43.2771 20.1748 43.4036 20.1748 43.5515ZM19.4259 43.5515C19.4259 43.6793 19.4356 43.7858 19.455 43.871C19.4744 43.9561 19.5057 44.02 19.549 44.0626C19.5928 44.1046 19.6501 44.1256 19.7209 44.1256C19.7917 44.1256 19.8487 44.1046 19.8919 44.0626C19.9358 44.0207 19.9674 43.9571 19.9868 43.8719C20.0069 43.7867 20.0169 43.6799 20.0169 43.5515C20.0169 43.4256 20.0072 43.3203 19.9878 43.2358C19.9684 43.1506 19.937 43.0867 19.8938 43.0441C19.8506 43.0008 19.793 42.9792 19.7209 42.9792C19.6489 42.9792 19.5913 43.0008 19.548 43.0441C19.5048 43.0867 19.4735 43.1506 19.4541 43.2358C19.4353 43.3203 19.4259 43.4256 19.4259 43.5515Z" fill="#212121"/>
<path d="M16.3203 50.7303C16.4137 50.7303 16.4948 50.7462 16.5637 50.7782C16.6326 50.8095 16.6859 50.8552 16.7234 50.9154C16.7617 50.9755 16.7808 51.0485 16.7808 51.1343C16.7808 51.2283 16.7604 51.3094 16.7197 51.3777C16.679 51.4453 16.6204 51.4976 16.544 51.5346C16.4676 51.5709 16.3761 51.5891 16.2696 51.5891C16.1982 51.5891 16.1318 51.5828 16.0704 51.5703C16.009 51.5578 15.9573 51.539 15.9154 51.5139V51.3655C15.9611 51.393 16.0165 51.415 16.0817 51.4312C16.1468 51.4475 16.2101 51.4557 16.2715 51.4557C16.341 51.4557 16.4018 51.4447 16.4538 51.4228C16.5064 51.4002 16.5471 51.3664 16.5759 51.3213C16.6054 51.2756 16.6201 51.2183 16.6201 51.1494C16.6201 51.0579 16.5919 50.9874 16.5355 50.9379C16.4798 50.8878 16.3914 50.8628 16.2705 50.8628C16.2317 50.8628 16.1891 50.8659 16.1427 50.8722C16.0964 50.8784 16.0582 50.8853 16.0281 50.8928L15.9492 50.8411L16.0018 50.1965H16.6849V50.3394H16.1352L16.1005 50.7538C16.1243 50.7487 16.155 50.7437 16.1925 50.7387C16.2301 50.7331 16.2727 50.7303 16.3203 50.7303ZM17.8952 50.8816C17.8952 50.9931 17.8867 51.0927 17.8698 51.1804C17.8529 51.2681 17.8263 51.3423 17.7899 51.4031C17.7536 51.4638 17.7066 51.5102 17.649 51.5421C17.5914 51.5734 17.5221 51.5891 17.4413 51.5891C17.3392 51.5891 17.2547 51.5612 17.1876 51.5055C17.1212 51.4497 17.0714 51.3692 17.0382 51.264C17.0057 51.1581 16.9894 51.0306 16.9894 50.8816C16.9894 50.735 17.0041 50.6091 17.0335 50.5038C17.0636 50.3979 17.1118 50.3168 17.1782 50.2604C17.2446 50.2034 17.3323 50.1749 17.4413 50.1749C17.5447 50.1749 17.6299 50.2031 17.6969 50.2595C17.764 50.3153 17.8138 50.3961 17.8463 50.5019C17.8789 50.6072 17.8952 50.7337 17.8952 50.8816ZM17.1463 50.8816C17.1463 51.0093 17.156 51.1158 17.1754 51.201C17.1948 51.2862 17.2262 51.3501 17.2694 51.3927C17.3132 51.4347 17.3706 51.4557 17.4413 51.4557C17.5121 51.4557 17.5691 51.4347 17.6124 51.3927C17.6562 51.3507 17.6878 51.2872 17.7073 51.202C17.7273 51.1168 17.7373 51.01 17.7373 50.8816C17.7373 50.7556 17.7276 50.6504 17.7082 50.5658C17.6888 50.4806 17.6575 50.4167 17.6142 50.3741C17.571 50.3309 17.5134 50.3093 17.4413 50.3093C17.3693 50.3093 17.3117 50.3309 17.2684 50.3741C17.2252 50.4167 17.1939 50.4806 17.1745 50.5658C17.1557 50.6504 17.1463 50.7556 17.1463 50.8816ZM18.9965 50.8816C18.9965 50.9931 18.988 51.0927 18.9711 51.1804C18.9542 51.2681 18.9275 51.3423 18.8912 51.4031C18.8549 51.4638 18.8079 51.5102 18.7503 51.5421C18.6926 51.5734 18.6234 51.5891 18.5426 51.5891C18.4405 51.5891 18.3559 51.5612 18.2889 51.5055C18.2225 51.4497 18.1727 51.3692 18.1395 51.264C18.1069 51.1581 18.0906 51.0306 18.0906 50.8816C18.0906 50.735 18.1054 50.6091 18.1348 50.5038C18.1649 50.3979 18.2131 50.3168 18.2795 50.2604C18.3459 50.2034 18.4336 50.1749 18.5426 50.1749C18.646 50.1749 18.7312 50.2031 18.7982 50.2595C18.8652 50.3153 18.915 50.3961 18.9476 50.5019C18.9802 50.6072 18.9965 50.7337 18.9965 50.8816ZM18.2476 50.8816C18.2476 51.0093 18.2573 51.1158 18.2767 51.201C18.2961 51.2862 18.3274 51.3501 18.3707 51.3927C18.4145 51.4347 18.4718 51.4557 18.5426 51.4557C18.6134 51.4557 18.6704 51.4347 18.7136 51.3927C18.7575 51.3507 18.7891 51.2872 18.8085 51.202C18.8286 51.1168 18.8386 51.01 18.8386 50.8816C18.8386 50.7556 18.8289 50.6504 18.8095 50.5658C18.79 50.4806 18.7587 50.4167 18.7155 50.3741C18.6723 50.3309 18.6146 50.3093 18.5426 50.3093C18.4706 50.3093 18.4129 50.3309 18.3697 50.3741C18.3265 50.4167 18.2952 50.4806 18.2757 50.5658C18.257 50.6504 18.2476 50.7556 18.2476 50.8816ZM20.2734 51.5703H20.0846L19.5894 50.9022L19.4428 51.0338V51.5703H19.283V50.1965H19.4428V50.8816C19.4785 50.8408 19.5151 50.8004 19.5527 50.7603C19.5903 50.7196 19.6276 50.6786 19.6645 50.6372L20.0658 50.1965H20.2528L19.7059 50.7923L20.2734 51.5703Z" fill="#212121"/>
<path d="M16.4669 58.9004H16.3147V57.9269C16.3147 57.89 16.3147 57.8583 16.3147 57.832C16.3153 57.8051 16.316 57.7806 16.3166 57.7587C16.3178 57.7362 16.3194 57.7133 16.3213 57.6901C16.3019 57.7102 16.2837 57.7274 16.2668 57.7418C16.2499 57.7556 16.2289 57.7728 16.2038 57.7935L16.0469 57.9194L15.9652 57.8132L16.3373 57.5266H16.4669V58.9004ZM17.8952 58.2116C17.8952 58.3231 17.8867 58.4227 17.8698 58.5104C17.8529 58.5981 17.8263 58.6724 17.7899 58.7331C17.7536 58.7939 17.7066 58.8403 17.649 58.8722C17.5914 58.9035 17.5221 58.9192 17.4413 58.9192C17.3392 58.9192 17.2547 58.8913 17.1876 58.8356C17.1212 58.7798 17.0714 58.6993 17.0382 58.5941C17.0057 58.4882 16.9894 58.3607 16.9894 58.2116C16.9894 58.065 17.0041 57.9391 17.0335 57.8339C17.0636 57.728 17.1118 57.6469 17.1782 57.5905C17.2446 57.5335 17.3323 57.505 17.4413 57.505C17.5447 57.505 17.6299 57.5332 17.6969 57.5896C17.764 57.6453 17.8138 57.7261 17.8463 57.832C17.8789 57.9373 17.8952 58.0638 17.8952 58.2116ZM17.1463 58.2116C17.1463 58.3394 17.156 58.4459 17.1754 58.5311C17.1948 58.6163 17.2262 58.6802 17.2694 58.7228C17.3132 58.7648 17.3706 58.7858 17.4413 58.7858C17.5121 58.7858 17.5691 58.7648 17.6124 58.7228C17.6562 58.6808 17.6878 58.6172 17.7073 58.532C17.7273 58.4469 17.7373 58.34 17.7373 58.2116C17.7373 58.0857 17.7276 57.9805 17.7082 57.8959C17.6888 57.8107 17.6575 57.7468 17.6142 57.7042C17.571 57.661 17.5134 57.6394 17.4413 57.6394C17.3693 57.6394 17.3117 57.661 17.2684 57.7042C17.2252 57.7468 17.1939 57.8107 17.1745 57.8959C17.1557 57.9805 17.1463 58.0857 17.1463 58.2116ZM18.9965 58.2116C18.9965 58.3231 18.988 58.4227 18.9711 58.5104C18.9542 58.5981 18.9275 58.6724 18.8912 58.7331C18.8549 58.7939 18.8079 58.8403 18.7503 58.8722C18.6926 58.9035 18.6234 58.9192 18.5426 58.9192C18.4405 58.9192 18.3559 58.8913 18.2889 58.8356C18.2225 58.7798 18.1727 58.6993 18.1395 58.5941C18.1069 58.4882 18.0906 58.3607 18.0906 58.2116C18.0906 58.065 18.1054 57.9391 18.1348 57.8339C18.1649 57.728 18.2131 57.6469 18.2795 57.5905C18.3459 57.5335 18.4336 57.505 18.5426 57.505C18.646 57.505 18.7312 57.5332 18.7982 57.5896C18.8652 57.6453 18.915 57.7261 18.9476 57.832C18.9802 57.9373 18.9965 58.0638 18.9965 58.2116ZM18.2476 58.2116C18.2476 58.3394 18.2573 58.4459 18.2767 58.5311C18.2961 58.6163 18.3274 58.6802 18.3707 58.7228C18.4145 58.7648 18.4718 58.7858 18.5426 58.7858C18.6134 58.7858 18.6704 58.7648 18.7136 58.7228C18.7575 58.6808 18.7891 58.6172 18.8085 58.532C18.8286 58.4469 18.8386 58.34 18.8386 58.2116C18.8386 58.0857 18.8289 57.9805 18.8095 57.8959C18.79 57.8107 18.7587 57.7468 18.7155 57.7042C18.6723 57.661 18.6146 57.6394 18.5426 57.6394C18.4706 57.6394 18.4129 57.661 18.3697 57.7042C18.3265 57.7468 18.2952 57.8107 18.2757 57.8959C18.257 57.9805 18.2476 58.0857 18.2476 58.2116ZM20.2734 58.9004H20.0846L19.5894 58.2323L19.4428 58.3639V58.9004H19.283V57.5266H19.4428V58.2116C19.4785 58.1709 19.5151 58.1305 19.5527 58.0904C19.5903 58.0497 19.6276 58.0087 19.6645 57.9673L20.0658 57.5266H20.2528L19.7059 58.1224L20.2734 58.9004Z" fill="#212121"/>
<path d="M20.1743 65.5398C20.1743 65.6513 20.1659 65.7509 20.1489 65.8386C20.132 65.9263 20.1054 66.0005 20.0691 66.0613C20.0327 66.122 19.9858 66.1684 19.9281 66.2003C19.8705 66.2316 19.8013 66.2473 19.7205 66.2473C19.6183 66.2473 19.5338 66.2194 19.4668 66.1637C19.4004 66.1079 19.3506 66.0274 19.3173 65.9222C19.2848 65.8163 19.2685 65.6888 19.2685 65.5398C19.2685 65.3932 19.2832 65.2673 19.3127 65.162C19.3427 65.0561 19.391 64.975 19.4574 64.9186C19.5238 64.8616 19.6115 64.8331 19.7205 64.8331C19.8238 64.8331 19.909 64.8613 19.976 64.9177C20.0431 64.9735 20.0929 65.0543 20.1254 65.1601C20.158 65.2654 20.1743 65.3919 20.1743 65.5398ZM19.4254 65.5398C19.4254 65.6675 19.4351 65.774 19.4545 65.8592C19.474 65.9444 19.5053 66.0083 19.5485 66.0509C19.5924 66.0929 19.6497 66.1139 19.7205 66.1139C19.7912 66.1139 19.8483 66.0929 19.8915 66.0509C19.9353 66.009 19.967 65.9454 19.9864 65.8602C20.0064 65.775 20.0164 65.6682 20.0164 65.5398C20.0164 65.4138 20.0067 65.3086 19.9873 65.224C19.9679 65.1388 19.9366 65.0749 19.8934 65.0323C19.8501 64.9891 19.7925 64.9675 19.7205 64.9675C19.6484 64.9675 19.5908 64.9891 19.5476 65.0323C19.5043 65.0749 19.473 65.1388 19.4536 65.224C19.4348 65.3086 19.4254 65.4138 19.4254 65.5398Z" fill="#212121"/>
<path d="M31.4698 69.1562H31.3176V68.1828C31.3176 68.1458 31.3176 68.1142 31.3176 68.0879C31.3183 68.0609 31.3189 68.0365 31.3195 68.0146C31.3208 67.992 31.3223 67.9692 31.3242 67.946C31.3048 67.966 31.2866 67.9833 31.2697 67.9977C31.2528 68.0114 31.2318 68.0287 31.2067 68.0493L31.0498 68.1753L30.9681 68.0691L31.3402 67.7825H31.4698V69.1562Z" fill="#212121"/>
<path d="M23.8584 68.4675C23.8584 68.579 23.8499 68.6786 23.833 68.7663C23.8161 68.854 23.7895 68.9282 23.7531 68.989C23.7168 69.0498 23.6698 69.0961 23.6122 69.1281C23.5545 69.1594 23.4853 69.175 23.4045 69.175C23.3024 69.175 23.2178 69.1472 23.1508 69.0914C23.0844 69.0357 23.0346 68.9552 23.0014 68.8499C22.9688 68.7441 22.9525 68.6166 22.9525 68.4675C22.9525 68.3209 22.9673 68.195 22.9967 68.0897C23.0268 67.9839 23.075 67.9028 23.1414 67.8464C23.2078 67.7894 23.2955 67.7609 23.4045 67.7609C23.5079 67.7609 23.5931 67.7891 23.6601 67.8454C23.7271 67.9012 23.7769 67.982 23.8095 68.0879C23.8421 68.1931 23.8584 68.3197 23.8584 68.4675ZM23.1095 68.4675C23.1095 68.5953 23.1192 68.7018 23.1386 68.787C23.158 68.8722 23.1893 68.9361 23.2326 68.9787C23.2764 69.0206 23.3337 69.0416 23.4045 69.0416C23.4753 69.0416 23.5323 69.0206 23.5755 68.9787C23.6194 68.9367 23.651 68.8731 23.6704 68.7879C23.6905 68.7027 23.7005 68.5959 23.7005 68.4675C23.7005 68.3416 23.6908 68.2363 23.6714 68.1518C23.652 68.0666 23.6206 68.0027 23.5774 67.9601C23.5342 67.9169 23.4766 67.8952 23.4045 67.8952C23.3325 67.8952 23.2748 67.9169 23.2316 67.9601C23.1884 68.0027 23.1571 68.0666 23.1377 68.1518C23.1189 68.2363 23.1095 68.3416 23.1095 68.4675Z" fill="#212121"/>
<path d="M39.7268 69.1562H38.8266V69.0256L39.194 68.6526C39.2623 68.5837 39.3196 68.5223 39.366 68.4684C39.413 68.4146 39.4487 68.3616 39.4731 68.3096C39.4976 68.257 39.5098 68.1994 39.5098 68.1367C39.5098 68.0591 39.4866 67.9999 39.4402 67.9591C39.3945 67.9178 39.3341 67.8971 39.2589 67.8971C39.1931 67.8971 39.1348 67.9084 39.0841 67.9309C39.0334 67.9535 38.9814 67.9854 38.9281 68.0268L38.8445 67.9216C38.8808 67.8909 38.9203 67.8636 38.9629 67.8398C39.0061 67.816 39.0522 67.7972 39.101 67.7834C39.1505 67.7696 39.2031 67.7628 39.2589 67.7628C39.3435 67.7628 39.4164 67.7775 39.4778 67.8069C39.5392 67.8364 39.5865 67.8783 39.6197 67.9328C39.6535 67.9873 39.6704 68.0522 39.6704 68.1273C39.6704 68.2 39.656 68.2677 39.6272 68.3303C39.5984 68.3923 39.558 68.454 39.506 68.5154C39.454 68.5762 39.3933 68.6407 39.3237 68.709L39.0249 69.0068V69.0134H39.7268V69.1562Z" fill="#212121"/>
<path d="M47.8548 68.1029C47.8548 68.1643 47.8429 68.2175 47.8191 68.2626C47.7953 68.3077 47.7621 68.3447 47.7195 68.3735C47.6769 68.4017 47.6268 68.4214 47.5691 68.4327V68.4402C47.6781 68.454 47.7599 68.4891 47.8144 68.5455C47.8695 68.6019 47.8971 68.6758 47.8971 68.7672C47.8971 68.8468 47.8783 68.9173 47.8407 68.9787C47.8037 69.04 47.7467 69.0883 47.6697 69.1234C47.5933 69.1578 47.4952 69.175 47.3756 69.175C47.3029 69.175 47.2356 69.1691 47.1736 69.1572C47.1122 69.1459 47.0533 69.1268 46.9969 69.0999V68.9533C47.0539 68.9815 47.1159 69.0037 47.1829 69.02C47.25 69.0357 47.3148 69.0435 47.3775 69.0435C47.5027 69.0435 47.5933 69.0187 47.649 68.9693C47.7048 68.9191 47.7326 68.8509 47.7326 68.7644C47.7326 68.7049 47.717 68.657 47.6857 68.6207C47.655 68.5837 47.6105 68.5568 47.5522 68.5398C47.4946 68.5223 47.4251 68.5135 47.3436 68.5135H47.2064V68.3801H47.3446C47.4191 68.3801 47.4824 68.3691 47.5344 68.3472C47.5864 68.3253 47.6258 68.2946 47.6528 68.2551C47.6803 68.215 47.6941 68.1677 47.6941 68.1132C47.6941 68.0437 47.6709 67.9901 47.6246 67.9526C47.5782 67.9143 47.5153 67.8952 47.4357 67.8952C47.3869 67.8952 47.3424 67.9003 47.3023 67.9103C47.2622 67.9203 47.2246 67.9341 47.1895 67.9516C47.1544 67.9692 47.1194 67.9895 47.0843 68.0127L47.0054 67.9056C47.0555 67.8667 47.1165 67.8332 47.1886 67.805C47.2606 67.7768 47.3424 67.7628 47.4338 67.7628C47.5742 67.7628 47.6794 67.7947 47.7496 67.8586C47.8197 67.9225 47.8548 68.0039 47.8548 68.1029Z" fill="#212121"/>
<path d="M55.9126 68.8377H55.7068V69.1562H55.5546V68.8377H54.8903V68.7062L55.5443 67.775H55.7068V68.6968H55.9126V68.8377ZM55.5546 68.6968V68.2476C55.5546 68.2132 55.5549 68.1821 55.5555 68.1546C55.5562 68.1264 55.5571 68.1004 55.5584 68.0766C55.5596 68.0522 55.5606 68.029 55.5612 68.0071C55.5624 67.9851 55.5634 67.9635 55.564 67.9422H55.5565C55.5446 67.9673 55.5308 67.9939 55.5151 68.0221C55.5001 68.0497 55.4848 68.0744 55.4691 68.0963L55.0453 68.6968H55.5546Z" fill="#212121"/>
<path d="M63.3164 68.3162C63.4098 68.3162 63.4909 68.3322 63.5598 68.3641C63.6287 68.3954 63.6819 68.4412 63.7195 68.5013C63.7577 68.5615 63.7769 68.6344 63.7769 68.7203C63.7769 68.8142 63.7565 68.8953 63.7158 68.9636C63.6751 69.0313 63.6165 69.0836 63.5401 69.1205C63.4636 69.1569 63.3722 69.175 63.2657 69.175C63.1943 69.175 63.1279 69.1688 63.0665 69.1562C63.0051 69.1437 62.9534 69.1249 62.9114 69.0999V68.9514C62.9572 68.979 63.0126 69.0009 63.0778 69.0172C63.1429 69.0335 63.2062 69.0416 63.2676 69.0416C63.3371 69.0416 63.3979 69.0307 63.4499 69.0087C63.5025 68.9862 63.5432 68.9523 63.572 68.9072C63.6015 68.8615 63.6162 68.8042 63.6162 68.7353C63.6162 68.6438 63.588 68.5734 63.5316 68.5239C63.4759 68.4738 63.3875 68.4487 63.2666 68.4487C63.2278 68.4487 63.1852 68.4518 63.1388 68.4581C63.0925 68.4644 63.0543 68.4712 63.0242 68.4788L62.9453 68.4271L62.9979 67.7825H63.681V67.9253H63.1313L63.0965 68.3397C63.1204 68.3347 63.151 68.3297 63.1886 68.3247C63.2262 68.319 63.2688 68.3162 63.3164 68.3162Z" fill="#212121"/>
<path d="M70.8339 68.569C70.8339 68.4863 70.8395 68.4055 70.8508 68.3265C70.8627 68.2476 70.8825 68.1743 70.91 68.1067C70.9376 68.0384 70.9752 67.9786 71.0228 67.9272C71.0704 67.8758 71.1296 67.8357 71.2004 67.8069C71.2718 67.7775 71.3573 67.7628 71.4569 67.7628C71.4851 67.7628 71.5155 67.7643 71.548 67.7675C71.5806 67.77 71.6075 67.7743 71.6288 67.7806V67.915C71.6057 67.9068 71.579 67.9009 71.549 67.8971C71.5195 67.8934 71.4898 67.8915 71.4597 67.8915C71.3432 67.8915 71.2514 67.9169 71.1844 67.9676C71.118 68.0183 71.0701 68.0872 71.0406 68.1743C71.0112 68.2608 70.9943 68.3582 70.9899 68.4665H71.0002C71.0196 68.4352 71.0444 68.407 71.0745 68.382C71.1045 68.3563 71.1409 68.3359 71.1835 68.3209C71.2267 68.3059 71.2768 68.2984 71.3338 68.2984C71.414 68.2984 71.4838 68.3146 71.5433 68.3472C71.6035 68.3798 71.6498 68.4271 71.6824 68.4891C71.7156 68.5511 71.7322 68.6263 71.7322 68.7146C71.7322 68.8092 71.7147 68.891 71.6796 68.9599C71.6445 69.0288 71.5944 69.082 71.5292 69.1196C71.4647 69.1566 71.3877 69.175 71.2981 69.175C71.2311 69.175 71.1694 69.1622 71.113 69.1365C71.0566 69.1108 71.0074 69.0726 70.9655 69.0219C70.9241 68.9711 70.8918 68.9082 70.8687 68.833C70.8455 68.7572 70.8339 68.6692 70.8339 68.569ZM71.2962 69.0435C71.3814 69.0435 71.4497 69.0162 71.5011 68.9617C71.5524 68.9072 71.5781 68.8249 71.5781 68.7146C71.5781 68.6244 71.5552 68.553 71.5095 68.5004C71.4638 68.4478 71.3949 68.4214 71.3028 68.4214C71.2401 68.4214 71.1856 68.4346 71.1393 68.4609C71.0929 68.4866 71.0569 68.5192 71.0312 68.5586C71.0055 68.5981 70.9927 68.6382 70.9927 68.6789C70.9927 68.7203 70.9987 68.7622 71.0106 68.8048C71.0231 68.8474 71.0419 68.8869 71.0669 68.9232C71.092 68.9596 71.1236 68.9887 71.1618 69.0106C71.2001 69.0325 71.2448 69.0435 71.2962 69.0435Z" fill="#212121"/>
<path d="M78.6956 69.1562L79.2594 67.9253H78.5105V67.7825H79.4267V67.9028L78.8667 69.1562H78.6956Z" fill="#212121"/>
<path d="M22.5584 66.6761C22.5584 66.7425 22.6123 66.7964 22.6787 66.7964C22.7451 66.7964 22.799 66.7425 22.799 66.6761H22.5584ZM22.6787 20.25H22.5584V66.6761H22.6787H22.799V20.25H22.6787Z" fill="#D4D4D4"/>
<path d="M22.6787 66.6758H80.1701" stroke="#D4D4D4" stroke-width="0.24055"/>
<rect x="28.6924" y="41.416" width="1.9244" height="25.2577" rx="0.962199" fill="#6C5BFF"/>
<rect x="31.0977" y="55.6094" width="1.9244" height="11.0653" rx="0.962199" fill="#FBB33E"/>
<rect x="36.6299" y="25.3008" width="1.9244" height="41.3746" rx="0.962199" fill="#6C5BFF"/>
<rect x="39.0352" y="35.4043" width="1.9244" height="31.2715" rx="0.962199" fill="#FBB33E"/>
<rect x="44.5693" y="41.416" width="1.9244" height="25.2577" rx="0.962199" fill="#6C5BFF"/>
<rect x="46.9746" y="55.6094" width="1.9244" height="11.0653" rx="0.962199" fill="#FBB33E"/>
<rect x="52.5068" y="32.2754" width="1.9244" height="34.3986" rx="0.962199" fill="#6C5BFF"/>
<rect x="54.9121" y="43.8223" width="1.9244" height="22.8522" rx="0.962199" fill="#FBB33E"/>
<rect x="60.4443" y="41.416" width="1.9244" height="25.2577" rx="0.962199" fill="#6C5BFF"/>
<rect x="62.8496" y="55.6094" width="1.9244" height="11.0653" rx="0.962199" fill="#FBB33E"/>
<rect x="68.3838" y="56.5723" width="1.9244" height="10.1031" rx="0.962199" fill="#6C5BFF"/>
<rect x="70.7891" y="62.1055" width="1.9244" height="4.57045" rx="0.962199" fill="#FBB33E"/>
<rect x="76.3213" y="38.5312" width="1.9244" height="28.1443" rx="0.962199" fill="#6C5BFF"/>
<rect x="78.7266" y="46.709" width="1.9244" height="19.9656" rx="0.962199" fill="#FBB33E"/>
<g filter="url(#filter0_d_7813_60525)">
<path d="M38.916 21.2129C39.5136 21.2131 39.9989 21.6973 39.999 22.2949V22.7764C39.9988 23.3739 39.5135 23.8582 38.916 23.8584H37.9131L37.4727 24.2979L37.0322 23.8584H36.0293C35.469 23.8583 35.0087 23.4324 34.9531 22.8867L34.9473 22.7764V22.2949C34.9474 21.6973 35.4317 21.213 36.0293 21.2129H38.916Z" fill="white"/>
</g>
<g filter="url(#filter1_d_7813_60525)">
<path d="M41.3213 32.2754C41.9188 32.2755 42.4039 32.76 42.4043 33.3574V33.8389C42.4043 34.4366 41.919 34.9208 41.3213 34.9209H40.3193L39.8779 35.3613L39.4365 34.9209H38.4346C37.8742 34.9208 37.4137 34.4951 37.3584 33.9492L37.3525 33.8389V33.3574C37.3529 32.76 37.8371 32.2755 38.4346 32.2754H41.3213Z" fill="white"/>
</g>
<g filter="url(#filter2_d_7813_60525)">
<path d="M31.2178 38.291C31.8155 38.291 32.3006 38.7753 32.3008 39.373V39.8545C32.3005 40.4521 31.8154 40.9365 31.2178 40.9365H30.2148L29.7754 41.376L29.335 40.9365H28.3311C27.7709 40.9362 27.3104 40.5104 27.2549 39.9648L27.249 39.8545V39.373C27.2492 38.7755 27.7336 38.2913 28.3311 38.291H31.2178Z" fill="white"/>
</g>
<g filter="url(#filter3_d_7813_60525)">
<path d="M33.3828 52.4844C33.9806 52.4844 34.4657 52.9687 34.4658 53.5664V54.0479C34.4656 54.6455 33.9805 55.1299 33.3828 55.1299H32.3799L31.9395 55.5693L31.5 55.1299H30.4961C29.9359 55.1296 29.4754 54.7038 29.4199 54.1582L29.4141 54.0479V53.5664C29.4142 52.9689 29.8986 52.4846 30.4961 52.4844H33.3828Z" fill="white"/>
</g>
<g filter="url(#filter4_d_7813_60525)">
<path d="M47.0947 38.5312C47.6923 38.5315 48.1776 39.0157 48.1777 39.6133V40.0947C48.1776 40.6923 47.6923 41.1765 47.0947 41.1768H46.0918L45.6514 41.6172L45.2109 41.1768H44.208C43.6477 41.1766 43.1873 40.7508 43.1318 40.2051L43.126 40.0947V39.6133C43.1261 39.0157 43.6104 38.5314 44.208 38.5312H47.0947Z" fill="white"/>
</g>
<g filter="url(#filter5_d_7813_60525)">
<path d="M49.5 52.4844C50.0977 52.4845 50.5829 52.9688 50.583 53.5664V54.0479C50.5827 54.6454 50.0976 55.1298 49.5 55.1299H48.4971L48.0566 55.5693L47.6162 55.1299H46.6133C46.053 55.1297 45.5926 54.7039 45.5371 54.1582L45.5312 54.0479V53.5664C45.5314 52.9688 46.0157 52.4845 46.6133 52.4844H49.5Z" fill="white"/>
</g>
<g filter="url(#filter6_d_7813_60525)">
<path d="M55.0322 29.1484C55.6299 29.1484 56.115 29.6329 56.1152 30.2305V30.7119C56.1152 31.3097 55.63 31.7939 55.0322 31.7939H54.0293L53.5898 32.2344L53.1494 31.7939H52.1455C51.5852 31.7937 51.1247 31.368 51.0693 30.8223L51.0635 30.7119V30.2305C51.0638 29.6331 51.5481 29.1487 52.1455 29.1484H55.0322Z" fill="white"/>
</g>
<g filter="url(#filter7_d_7813_60525)">
<path d="M57.4375 40.6973C58.0352 40.6973 58.5204 41.1816 58.5205 41.7793V42.2607C58.5203 42.8584 58.0352 43.3428 57.4375 43.3428H56.4355L55.9951 43.7832L55.5547 43.3428H54.5508C53.9907 43.3424 53.53 42.9167 53.4746 42.3711L53.4688 42.2607V41.7793C53.4689 41.1818 53.9534 40.6977 54.5508 40.6973H57.4375Z" fill="white"/>
</g>
<g filter="url(#filter8_d_7813_60525)">
<path d="M62.7305 38.291C63.328 38.2912 63.8133 38.7755 63.8135 39.373V39.8545C63.8132 40.4519 63.3279 40.9363 62.7305 40.9365H61.7275L61.2871 41.376L60.8467 40.9365H59.8438C59.2835 40.9364 58.8231 40.5105 58.7676 39.9648L58.7617 39.8545V39.373C58.7619 38.7754 59.2461 38.2912 59.8438 38.291H62.7305Z" fill="white"/>
</g>
<g filter="url(#filter9_d_7813_60525)">
<path d="M65.1357 52.4844C65.7334 52.4845 66.2186 52.9688 66.2188 53.5664V54.0479C66.2185 54.6454 65.7333 55.1298 65.1357 55.1299H64.1328L63.6924 55.5693L63.252 55.1299H62.249C61.6888 55.1297 61.2284 54.7039 61.1729 54.1582L61.167 54.0479V53.5664C61.1671 52.9688 61.6514 52.4845 62.249 52.4844H65.1357Z" fill="white"/>
</g>
<g filter="url(#filter10_d_7813_60525)">
<path d="M70.9092 53.4453C71.5067 53.4455 71.992 53.9298 71.9922 54.5273V55.0088C71.9921 55.6064 71.5068 56.0906 70.9092 56.0908H69.9062L69.4658 56.5312L69.0254 56.0908H68.0225C67.4621 56.0907 67.0017 55.6649 66.9463 55.1191L66.9404 55.0088V54.5273C66.9406 53.9297 67.4249 53.4455 68.0225 53.4453H70.9092Z" fill="white"/>
</g>
<g filter="url(#filter11_d_7813_60525)">
<path d="M73.0732 58.9766C73.6709 58.9766 74.1559 59.461 74.1562 60.0586V60.54C74.1562 61.1378 73.6711 61.6221 73.0732 61.6221H72.0703L71.6309 62.0625L71.1904 61.6221H70.1865C69.6263 61.6217 69.1657 61.1961 69.1104 60.6504L69.1045 60.54V60.0586C69.1048 59.4613 69.5892 58.977 70.1865 58.9766H73.0732Z" fill="white"/>
</g>
<g filter="url(#filter12_d_7813_60525)">
<path d="M78.6064 35.4043C79.2041 35.4043 79.6893 35.8887 79.6895 36.4863V36.9678C79.6892 37.5654 79.2041 38.0498 78.6064 38.0498H77.6035L77.1631 38.4893L76.7236 38.0498H75.7197C75.1594 38.0497 74.699 37.6238 74.6436 37.0781L74.6377 36.9678V36.4863C74.6378 35.8887 75.1221 35.4045 75.7197 35.4043H78.6064Z" fill="white"/>
</g>
<g filter="url(#filter13_d_7813_60525)">
<path d="M81.0117 43.584C81.6095 43.584 82.0946 44.0683 82.0947 44.666V45.1475C82.0945 45.7451 81.6094 46.2295 81.0117 46.2295H80.0088L79.5684 46.6689L79.1289 46.2295H78.125C77.5648 46.2293 77.1043 45.8035 77.0488 45.2578L77.043 45.1475V44.666C77.0431 44.0685 77.5275 43.5842 78.125 43.584H81.0117Z" fill="white"/>
</g>
<path d="M36.7089 23.332H36.0112V23.2073L36.2783 22.9367C36.33 22.8841 36.3725 22.8387 36.4059 22.8007C36.4392 22.7621 36.4639 22.7257 36.4799 22.6914C36.4963 22.6571 36.5045 22.6198 36.5045 22.5794C36.5045 22.5296 36.4902 22.492 36.4615 22.4666C36.4329 22.4408 36.3951 22.4279 36.3481 22.4279C36.3034 22.4279 36.2621 22.4368 36.224 22.4546C36.1864 22.472 36.1475 22.4969 36.107 22.5293L36.0161 22.4201C36.0448 22.3957 36.0753 22.3734 36.1078 22.3532C36.1406 22.333 36.1773 22.317 36.2177 22.3052C36.2581 22.293 36.3041 22.2869 36.3558 22.2869C36.4211 22.2869 36.4775 22.2987 36.525 22.3221C36.5724 22.3452 36.6088 22.3773 36.6342 22.4187C36.66 22.46 36.673 22.5082 36.673 22.5632C36.673 22.6186 36.6619 22.6698 36.6398 22.7168C36.6177 22.7638 36.5863 22.8103 36.5454 22.8563C36.5045 22.9019 36.4559 22.9515 36.3995 23.005L36.2212 23.1791V23.1869H36.7089V23.332ZM37.595 23.332H36.8973V23.2073L37.1644 22.9367C37.2161 22.8841 37.2586 22.8387 37.2919 22.8007C37.3253 22.7621 37.35 22.7257 37.3659 22.6914C37.3824 22.6571 37.3906 22.6198 37.3906 22.5794C37.3906 22.5296 37.3763 22.492 37.3476 22.4666C37.319 22.4408 37.2811 22.4279 37.2342 22.4279C37.1895 22.4279 37.1482 22.4368 37.1101 22.4546C37.0725 22.472 37.0335 22.4969 36.9931 22.5293L36.9022 22.4201C36.9309 22.3957 36.9614 22.3734 36.9938 22.3532C37.0267 22.333 37.0634 22.317 37.1038 22.3052C37.1442 22.293 37.1902 22.2869 37.2419 22.2869C37.3072 22.2869 37.3636 22.2987 37.411 22.3221C37.4585 22.3452 37.4949 22.3773 37.5203 22.4187C37.5461 22.46 37.559 22.5082 37.559 22.5632C37.559 22.6186 37.548 22.6698 37.5259 22.7168C37.5038 22.7638 37.4724 22.8103 37.4315 22.8563C37.3906 22.9019 37.342 22.9515 37.2856 23.005L37.1073 23.1791V23.1869H37.595V23.332ZM38.2704 23.332H38.104V22.6689C38.104 22.6468 38.1043 22.6247 38.1047 22.6026C38.1052 22.5805 38.1057 22.5589 38.1062 22.5378C38.1071 22.5167 38.1083 22.4964 38.1097 22.4772C38.0998 22.488 38.0876 22.4997 38.073 22.5124C38.0589 22.5251 38.0439 22.5383 38.0279 22.5519L37.9095 22.6463L37.8264 22.5413L38.1322 22.3017H38.2704V23.332ZM39.3672 23.332H38.6695V23.2073L38.9366 22.9367C38.9882 22.8841 39.0308 22.8387 39.0641 22.8007C39.0975 22.7621 39.1221 22.7257 39.1381 22.6914C39.1546 22.6571 39.1628 22.6198 39.1628 22.5794C39.1628 22.5296 39.1485 22.492 39.1198 22.4666C39.0911 22.4408 39.0533 22.4279 39.0063 22.4279C38.9617 22.4279 38.9204 22.4368 38.8823 22.4546C38.8447 22.472 38.8057 22.4969 38.7653 22.5293L38.6744 22.4201C38.7031 22.3957 38.7336 22.3734 38.766 22.3532C38.7989 22.333 38.8356 22.317 38.876 22.3052C38.9164 22.293 38.9624 22.2869 39.0141 22.2869C39.0794 22.2869 39.1358 22.2987 39.1832 22.3221C39.2307 22.3452 39.2671 22.3773 39.2925 22.4187C39.3183 22.46 39.3312 22.5082 39.3312 22.5632C39.3312 22.6186 39.3202 22.6698 39.2981 22.7168C39.276 22.7638 39.2445 22.8103 39.2037 22.8563C39.1628 22.9019 39.1142 22.9515 39.0578 23.005L38.8795 23.1791V23.1869H39.3672V23.332Z" fill="#212121"/>
<path d="M38.9035 34.3965H38.7371V33.7333C38.7371 33.7112 38.7374 33.6892 38.7378 33.6671C38.7383 33.645 38.7388 33.6234 38.7392 33.6022C38.7402 33.5811 38.7414 33.5609 38.7428 33.5416C38.7329 33.5524 38.7207 33.5642 38.7061 33.5769C38.692 33.5896 38.677 33.6027 38.661 33.6163L38.5426 33.7108L38.4595 33.6058L38.7653 33.3662H38.9035V34.3965ZM40.0376 34.1703H39.8981V34.3965H39.7346V34.1703H39.2659V34.0448L39.7367 33.3633H39.8981V34.0328H40.0376V34.1703ZM39.7346 34.0328V33.777C39.7346 33.7559 39.7348 33.7345 39.7353 33.7129C39.7362 33.6908 39.7372 33.6697 39.7381 33.6495C39.739 33.6293 39.74 33.6107 39.7409 33.5938C39.7419 33.5764 39.7426 33.5621 39.743 33.5508H39.7374C39.7285 33.5696 39.7186 33.5889 39.7078 33.6086C39.697 33.6279 39.6855 33.6466 39.6733 33.665L39.4196 34.0328H39.7346ZM40.5389 33.7524C40.6052 33.7524 40.6634 33.7643 40.7137 33.7883C40.7644 33.8118 40.8039 33.8466 40.8321 33.8926C40.8603 33.9382 40.8744 33.9941 40.8744 34.0603C40.8744 34.1327 40.8591 34.1952 40.8286 34.2478C40.798 34.2999 40.7531 34.3401 40.694 34.3683C40.6348 34.3965 40.5626 34.4106 40.4776 34.4106C40.4236 34.4106 40.3731 34.4059 40.3261 34.3965C40.2796 34.3871 40.2394 34.373 40.2056 34.3542V34.2048C40.2408 34.2245 40.2831 34.2407 40.3324 34.2534C40.3818 34.2656 40.429 34.2717 40.4741 34.2717C40.522 34.2717 40.5631 34.2647 40.5974 34.2506C40.6317 34.2365 40.658 34.2149 40.6763 34.1858C40.6951 34.1566 40.7045 34.1198 40.7045 34.0751C40.7045 34.0159 40.6855 33.9704 40.6474 33.9384C40.6099 33.906 40.5509 33.8898 40.4705 33.8898C40.4424 33.8898 40.4123 33.8924 40.3803 33.8975C40.3489 33.9022 40.3226 33.9074 40.3014 33.913L40.2288 33.87L40.2676 33.3662H40.8032V33.512H40.4135L40.3909 33.7686C40.4078 33.7648 40.428 33.7613 40.4515 33.758C40.475 33.7542 40.5041 33.7524 40.5389 33.7524ZM41.7724 33.8806C41.7724 33.9638 41.7659 34.0382 41.7527 34.104C41.74 34.1693 41.7198 34.2248 41.6921 34.2703C41.6644 34.3159 41.6282 34.3507 41.5836 34.3746C41.5389 34.3986 41.4849 34.4106 41.4215 34.4106C41.3421 34.4106 41.2765 34.3897 41.2249 34.3479C41.1732 34.3056 41.1349 34.245 41.11 34.166C41.0851 34.0866 41.0726 33.9915 41.0726 33.8806C41.0726 33.7697 41.0839 33.6748 41.1065 33.5959C41.1295 33.5165 41.1666 33.4557 41.2178 33.4134C41.269 33.3711 41.3369 33.35 41.4215 33.35C41.5013 33.35 41.5671 33.3711 41.6188 33.4134C41.6709 33.4552 41.7095 33.5158 41.7344 33.5952C41.7597 33.6741 41.7724 33.7693 41.7724 33.8806ZM41.2397 33.8806C41.2397 33.9675 41.2453 34.0401 41.2566 34.0984C41.2683 34.1566 41.2876 34.2003 41.3144 34.2295C41.3411 34.2581 41.3768 34.2725 41.4215 34.2725C41.4661 34.2725 41.5018 34.2581 41.5286 34.2295C41.5554 34.2008 41.5746 34.1573 41.5864 34.0991C41.5986 34.0408 41.6047 33.968 41.6047 33.8806C41.6047 33.7942 41.5988 33.7218 41.5871 33.6636C41.5753 33.6053 41.5561 33.5616 41.5293 33.5325C41.5025 33.5029 41.4666 33.4881 41.4215 33.4881C41.3764 33.4881 41.3404 33.5029 41.3136 33.5325C41.2873 33.5616 41.2683 33.6053 41.2566 33.6636C41.2453 33.7218 41.2397 33.7942 41.2397 33.8806Z" fill="#212121"/>
<path d="M28.8009 40.4102H28.6346V39.747C28.6346 39.7249 28.6348 39.7028 28.6353 39.6808C28.6358 39.6587 28.6362 39.6371 28.6367 39.6159C28.6376 39.5948 28.6388 39.5746 28.6402 39.5553C28.6304 39.5661 28.6182 39.5779 28.6036 39.5905C28.5895 39.6032 28.5745 39.6164 28.5585 39.63L28.4401 39.7244L28.3569 39.6194L28.6628 39.3798H28.8009V40.4102ZM29.8977 40.4102H29.2V40.2854L29.4671 40.0148C29.5188 39.9622 29.5613 39.9168 29.5947 39.8788C29.628 39.8403 29.6527 39.8038 29.6687 39.7696C29.6851 39.7353 29.6933 39.6979 29.6933 39.6575C29.6933 39.6077 29.679 39.5701 29.6504 39.5447C29.6217 39.5189 29.5839 39.506 29.5369 39.506C29.4923 39.506 29.4509 39.5149 29.4129 39.5328C29.3753 39.5501 29.3363 39.575 29.2959 39.6075L29.205 39.4982C29.2336 39.4738 29.2642 39.4515 29.2966 39.4313C29.3295 39.4111 29.3661 39.3951 29.4065 39.3834C29.4469 39.3711 29.493 39.365 29.5446 39.365C29.6099 39.365 29.6663 39.3768 29.7138 39.4003C29.7612 39.4233 29.7976 39.4555 29.823 39.4968C29.8489 39.5382 29.8618 39.5863 29.8618 39.6413C29.8618 39.6967 29.8507 39.7479 29.8287 39.7949C29.8066 39.8419 29.7751 39.8884 29.7342 39.9345C29.6933 39.98 29.6447 40.0296 29.5883 40.0832L29.41 40.2572V40.265H29.8977V40.4102ZM30.7838 39.8943C30.7838 39.9774 30.7772 40.0519 30.7641 40.1177C30.7514 40.183 30.7312 40.2384 30.7035 40.284C30.6757 40.3296 30.6396 40.3643 30.5949 40.3883C30.5503 40.4123 30.4963 40.4243 30.4328 40.4243C30.3534 40.4243 30.2879 40.4033 30.2362 40.3615C30.1845 40.3192 30.1463 40.2586 30.1214 40.1797C30.0965 40.1003 30.084 40.0052 30.084 39.8943C30.084 39.7834 30.0953 39.6885 30.1178 39.6096C30.1408 39.5302 30.178 39.4693 30.2292 39.427C30.2804 39.3848 30.3483 39.3636 30.4328 39.3636C30.5127 39.3636 30.5785 39.3848 30.6302 39.427C30.6823 39.4689 30.7208 39.5295 30.7457 39.6089C30.7711 39.6878 30.7838 39.7829 30.7838 39.8943ZM30.251 39.8943C30.251 39.9812 30.2567 40.0538 30.2679 40.1121C30.2797 40.1703 30.2989 40.214 30.3257 40.2431C30.3525 40.2718 30.3882 40.2861 30.4328 40.2861C30.4775 40.2861 30.5132 40.2718 30.54 40.2431C30.5667 40.2145 30.586 40.171 30.5978 40.1128C30.61 40.0545 30.6161 39.9817 30.6161 39.8943C30.6161 39.8078 30.6102 39.7355 30.5985 39.6772C30.5867 39.619 30.5675 39.5753 30.5407 39.5462C30.5139 39.5166 30.4779 39.5018 30.4328 39.5018C30.3877 39.5018 30.3518 39.5166 30.325 39.5462C30.2987 39.5753 30.2797 39.619 30.2679 39.6772C30.2567 39.7355 30.251 39.8078 30.251 39.8943ZM31.6699 39.8943C31.6699 39.9774 31.6633 40.0519 31.6502 40.1177C31.6375 40.183 31.6173 40.2384 31.5896 40.284C31.5618 40.3296 31.5257 40.3643 31.481 40.3883C31.4364 40.4123 31.3824 40.4243 31.3189 40.4243C31.2395 40.4243 31.174 40.4033 31.1223 40.3615C31.0706 40.3192 31.0323 40.2586 31.0074 40.1797C30.9825 40.1003 30.9701 40.0052 30.9701 39.8943C30.9701 39.7834 30.9814 39.6885 31.0039 39.6096C31.0269 39.5302 31.0641 39.4693 31.1153 39.427C31.1665 39.3848 31.2344 39.3636 31.3189 39.3636C31.3988 39.3636 31.4646 39.3848 31.5163 39.427C31.5684 39.4689 31.6069 39.5295 31.6318 39.6089C31.6572 39.6878 31.6699 39.7829 31.6699 39.8943ZM31.1371 39.8943C31.1371 39.9812 31.1427 40.0538 31.154 40.1121C31.1658 40.1703 31.185 40.214 31.2118 40.2431C31.2386 40.2718 31.2743 40.2861 31.3189 40.2861C31.3636 40.2861 31.3993 40.2718 31.4261 40.2431C31.4528 40.2145 31.4721 40.171 31.4838 40.1128C31.4961 40.0545 31.5022 39.9817 31.5022 39.8943C31.5022 39.8078 31.4963 39.7355 31.4845 39.6772C31.4728 39.619 31.4535 39.5753 31.4268 39.5462C31.4 39.5166 31.364 39.5018 31.3189 39.5018C31.2738 39.5018 31.2379 39.5166 31.2111 39.5462C31.1848 39.5753 31.1658 39.619 31.154 39.6772C31.1427 39.7355 31.1371 39.8078 31.1371 39.8943Z" fill="#212121"/>
<path d="M31.3895 54.6035H31.2231V53.9404C31.2231 53.9183 31.2234 53.8962 31.2239 53.8741C31.2243 53.852 31.2248 53.8304 31.2253 53.8093C31.2262 53.7881 31.2274 53.7679 31.2288 53.7487C31.2189 53.7595 31.2067 53.7712 31.1921 53.7839C31.178 53.7966 31.163 53.8097 31.147 53.8234L31.0286 53.9178L30.9455 53.8128L31.2513 53.5732H31.3895V54.6035ZM32.4863 54.0876C32.4863 54.1708 32.4797 54.2453 32.4665 54.3111C32.4538 54.3764 32.4336 54.4318 32.4059 54.4774C32.3782 54.5229 32.342 54.5577 32.2974 54.5817C32.2528 54.6056 32.1987 54.6176 32.1353 54.6176C32.0559 54.6176 31.9904 54.5967 31.9387 54.5549C31.887 54.5126 31.8487 54.452 31.8238 54.3731C31.7989 54.2937 31.7865 54.1985 31.7865 54.0876C31.7865 53.9768 31.7977 53.8819 31.8203 53.8029C31.8433 53.7235 31.8804 53.6627 31.9316 53.6204C31.9829 53.5781 32.0507 53.557 32.1353 53.557C32.2152 53.557 32.281 53.5781 32.3326 53.6204C32.3848 53.6622 32.4233 53.7228 32.4482 53.8022C32.4736 53.8812 32.4863 53.9763 32.4863 54.0876ZM31.9535 54.0876C31.9535 54.1746 31.9591 54.2472 31.9704 54.3054C31.9821 54.3637 32.0014 54.4074 32.0282 54.4365C32.055 54.4652 32.0907 54.4795 32.1353 54.4795C32.1799 54.4795 32.2156 54.4652 32.2424 54.4365C32.2692 54.4078 32.2885 54.3644 32.3002 54.3061C32.3124 54.2479 32.3185 54.175 32.3185 54.0876C32.3185 54.0012 32.3127 53.9288 32.3009 53.8706C32.2892 53.8123 32.2699 53.7686 32.2431 53.7395C32.2164 53.7099 32.1804 53.6951 32.1353 53.6951C32.0902 53.6951 32.0543 53.7099 32.0275 53.7395C32.0012 53.7686 31.9821 53.8123 31.9704 53.8706C31.9591 53.9288 31.9535 54.0012 31.9535 54.0876ZM33.3724 54.0876C33.3724 54.1708 33.3658 54.2453 33.3526 54.3111C33.3399 54.3764 33.3197 54.4318 33.292 54.4774C33.2643 54.5229 33.2281 54.5577 33.1835 54.5817C33.1389 54.6056 33.0848 54.6176 33.0214 54.6176C32.942 54.6176 32.8765 54.5967 32.8248 54.5549C32.7731 54.5126 32.7348 54.452 32.7099 54.3731C32.685 54.2937 32.6726 54.1985 32.6726 54.0876C32.6726 53.9768 32.6838 53.8819 32.7064 53.8029C32.7294 53.7235 32.7665 53.6627 32.8177 53.6204C32.8689 53.5781 32.9368 53.557 33.0214 53.557C33.1013 53.557 33.167 53.5781 33.2187 53.6204C33.2709 53.6622 33.3094 53.7228 33.3343 53.8022C33.3597 53.8812 33.3724 53.9763 33.3724 54.0876ZM32.8396 54.0876C32.8396 54.1746 32.8452 54.2472 32.8565 54.3054C32.8682 54.3637 32.8875 54.4074 32.9143 54.4365C32.9411 54.4652 32.9768 54.4795 33.0214 54.4795C33.066 54.4795 33.1017 54.4652 33.1285 54.4365C33.1553 54.4078 33.1746 54.3644 33.1863 54.3061C33.1985 54.2479 33.2046 54.175 33.2046 54.0876C33.2046 54.0012 33.1988 53.9288 33.187 53.8706C33.1753 53.8123 33.156 53.7686 33.1292 53.7395C33.1024 53.7099 33.0665 53.6951 33.0214 53.6951C32.9763 53.6951 32.9404 53.7099 32.9136 53.7395C32.8873 53.7686 32.8682 53.8123 32.8565 53.8706C32.8452 53.9288 32.8396 54.0012 32.8396 54.0876Z" fill="#212121"/>
<path d="M44.6769 40.6504H44.5106V39.9872C44.5106 39.9652 44.5108 39.9431 44.5113 39.921C44.5117 39.8989 44.5122 39.8773 44.5127 39.8562C44.5136 39.835 44.5148 39.8148 44.5162 39.7955C44.5063 39.8064 44.4941 39.8181 44.4796 39.8308C44.4655 39.8435 44.4504 39.8566 44.4345 39.8702L44.3161 39.9647L44.2329 39.8597L44.5388 39.6201H44.6769V40.6504ZM45.7737 40.1345C45.7737 40.2177 45.7671 40.2921 45.754 40.3579C45.7413 40.4232 45.7211 40.4787 45.6934 40.5242C45.6656 40.5698 45.6295 40.6046 45.5848 40.6285C45.5402 40.6525 45.4862 40.6645 45.4227 40.6645C45.3433 40.6645 45.2778 40.6436 45.2261 40.6018C45.1744 40.5595 45.1361 40.4989 45.1112 40.4199C45.0863 40.3405 45.0739 40.2454 45.0739 40.1345C45.0739 40.0236 45.0852 39.9287 45.1077 39.8498C45.1307 39.7704 45.1679 39.7096 45.2191 39.6673C45.2703 39.625 45.3382 39.6039 45.4227 39.6039C45.5026 39.6039 45.5684 39.625 45.6201 39.6673C45.6722 39.7091 45.7107 39.7697 45.7356 39.8491C45.761 39.928 45.7737 40.0232 45.7737 40.1345ZM45.2409 40.1345C45.2409 40.2214 45.2466 40.294 45.2578 40.3523C45.2696 40.4105 45.2888 40.4542 45.3156 40.4834C45.3424 40.512 45.3781 40.5264 45.4227 40.5264C45.4674 40.5264 45.5031 40.512 45.5299 40.4834C45.5566 40.4547 45.5759 40.4113 45.5876 40.353C45.5999 40.2947 45.606 40.2219 45.606 40.1345C45.606 40.0481 45.6001 39.9757 45.5883 39.9175C45.5766 39.8592 45.5573 39.8155 45.5306 39.7864C45.5038 39.7568 45.4678 39.742 45.4227 39.742C45.3776 39.742 45.3417 39.7568 45.3149 39.7864C45.2886 39.8155 45.2696 39.8592 45.2578 39.9175C45.2466 39.9757 45.2409 40.0481 45.2409 40.1345ZM46.6598 40.6504H45.9621V40.5257L46.2292 40.255C46.2809 40.2024 46.3234 40.1571 46.3567 40.119C46.3901 40.0805 46.4148 40.0441 46.4307 40.0098C46.4472 39.9755 46.4554 39.9381 46.4554 39.8977C46.4554 39.8479 46.4411 39.8103 46.4124 39.785C46.3838 39.7591 46.3459 39.7462 46.299 39.7462C46.2543 39.7462 46.213 39.7551 46.1749 39.773C46.1373 39.7904 46.0983 39.8153 46.0579 39.8477L45.967 39.7385C45.9957 39.714 46.0262 39.6917 46.0586 39.6715C46.0915 39.6513 46.1282 39.6353 46.1686 39.6236C46.209 39.6114 46.255 39.6053 46.3067 39.6053C46.372 39.6053 46.4284 39.617 46.4758 39.6405C46.5233 39.6635 46.5597 39.6957 46.5851 39.7371C46.6109 39.7784 46.6238 39.8266 46.6238 39.8815C46.6238 39.937 46.6128 39.9882 46.5907 40.0352C46.5686 40.0821 46.5372 40.1287 46.4963 40.1747C46.4554 40.2203 46.4068 40.2698 46.3504 40.3234L46.1721 40.4975V40.5052H46.6598V40.6504ZM46.8496 40.2113C46.8496 40.1507 46.8538 40.0911 46.8623 40.0323C46.8712 39.9736 46.8862 39.9186 46.9074 39.8674C46.9285 39.8162 46.9576 39.7711 46.9948 39.7321C47.0324 39.6931 47.0796 39.6626 47.1364 39.6405C47.1933 39.618 47.2616 39.6067 47.3415 39.6067C47.3622 39.6067 47.3854 39.6076 47.4113 39.6095C47.4371 39.6114 47.4585 39.6144 47.4754 39.6187V39.7561C47.4571 39.7509 47.4369 39.7469 47.4148 39.7441C47.3932 39.7413 47.3716 39.7399 47.35 39.7399C47.2635 39.7399 47.1961 39.7563 47.1477 39.7892C47.0993 39.8216 47.0648 39.8663 47.0441 39.9231C47.0234 39.9795 47.0114 40.0441 47.0082 40.1169H47.0166C47.0307 40.0934 47.0483 40.0725 47.0695 40.0542C47.0906 40.0359 47.1164 40.0213 47.147 40.0105C47.1775 39.9992 47.213 39.9936 47.2534 39.9936C47.3135 39.9936 47.3659 40.0063 47.4106 40.0316C47.4552 40.0565 47.4895 40.0927 47.5135 40.1402C47.5379 40.1876 47.5501 40.2452 47.5501 40.3128C47.5501 40.3856 47.5362 40.4484 47.5085 40.501C47.4813 40.5536 47.4423 40.594 47.3915 40.6222C47.3413 40.6504 47.2814 40.6645 47.2118 40.6645C47.1606 40.6645 47.1129 40.6551 47.0688 40.6363C47.0251 40.6175 46.9868 40.5893 46.9539 40.5517C46.921 40.5141 46.8954 40.4672 46.8771 40.4108C46.8588 40.3539 46.8496 40.2875 46.8496 40.2113ZM47.209 40.5278C47.2626 40.5278 47.3056 40.5104 47.338 40.4756C47.3709 40.4404 47.3873 40.3866 47.3873 40.3142C47.3873 40.2555 47.3727 40.209 47.3436 40.1747C47.315 40.1404 47.2717 40.1232 47.2139 40.1232C47.1745 40.1232 47.1399 40.1317 47.1103 40.1486C47.0807 40.1655 47.0577 40.1869 47.0413 40.2127C47.0253 40.2386 47.0173 40.2649 47.0173 40.2917C47.0173 40.3189 47.0213 40.3464 47.0293 40.3741C47.0373 40.4019 47.0493 40.4275 47.0652 40.451C47.0812 40.474 47.1012 40.4925 47.1251 40.5066C47.1491 40.5207 47.1771 40.5278 47.209 40.5278Z" fill="#212121"/>
<path d="M52.6154 31.2695H52.449V30.6064C52.449 30.5843 52.4493 30.5622 52.4498 30.5401C52.4502 30.518 52.4507 30.4964 52.4512 30.4753C52.4521 30.4542 52.4533 30.4339 52.4547 30.4147C52.4448 30.4255 52.4326 30.4372 52.418 30.4499C52.4039 30.4626 52.3889 30.4758 52.3729 30.4894L52.2545 30.5838L52.1714 30.4788L52.4772 30.2392H52.6154V31.2695ZM53.0159 30.8305C53.0159 30.7699 53.0201 30.7102 53.0286 30.6515C53.0375 30.5927 53.0525 30.5378 53.0737 30.4866C53.0948 30.4354 53.1239 30.3903 53.1611 30.3513C53.1987 30.3123 53.2459 30.2817 53.3027 30.2596C53.3596 30.2371 53.4279 30.2258 53.5078 30.2258C53.5285 30.2258 53.5517 30.2268 53.5776 30.2286C53.6034 30.2305 53.6248 30.2336 53.6417 30.2378V30.3752C53.6234 30.3701 53.6032 30.3661 53.5811 30.3632C53.5595 30.3604 53.5379 30.359 53.5163 30.359C53.4298 30.359 53.3624 30.3755 53.314 30.4083C53.2656 30.4408 53.2311 30.4854 53.2104 30.5422C53.1897 30.5986 53.1777 30.6632 53.1745 30.736H53.1829C53.197 30.7126 53.2146 30.6916 53.2358 30.6733C53.2569 30.655 53.2828 30.6404 53.3133 30.6296C53.3438 30.6184 53.3793 30.6127 53.4197 30.6127C53.4798 30.6127 53.5322 30.6254 53.5769 30.6508C53.6215 30.6757 53.6558 30.7119 53.6798 30.7593C53.7042 30.8068 53.7164 30.8643 53.7164 30.932C53.7164 31.0048 53.7025 31.0675 53.6748 31.1201C53.6476 31.1727 53.6086 31.2132 53.5578 31.2413C53.5076 31.2695 53.4477 31.2836 53.3781 31.2836C53.3269 31.2836 53.2792 31.2742 53.2351 31.2554C53.1914 31.2366 53.1531 31.2085 53.1202 31.1709C53.0873 31.1333 53.0617 31.0863 53.0434 31.0299C53.0251 30.9731 53.0159 30.9066 53.0159 30.8305ZM53.3753 31.1469C53.4289 31.1469 53.4719 31.1295 53.5043 31.0948C53.5372 31.0595 53.5536 31.0057 53.5536 30.9334C53.5536 30.8746 53.539 30.8281 53.5099 30.7938C53.4813 30.7595 53.438 30.7424 53.3802 30.7424C53.3408 30.7424 53.3062 30.7508 53.2766 30.7678C53.247 30.7847 53.224 30.806 53.2076 30.8319C53.1916 30.8577 53.1836 30.884 53.1836 30.9108C53.1836 30.9381 53.1876 30.9656 53.1956 30.9933C53.2036 31.021 53.2156 31.0466 53.2315 31.0701C53.2475 31.0931 53.2675 31.1117 53.2914 31.1258C53.3154 31.1399 53.3434 31.1469 53.3753 31.1469ZM54.5983 30.7537C54.5983 30.8368 54.5917 30.9113 54.5785 30.9771C54.5658 31.0424 54.5456 31.0978 54.5179 31.1434C54.4902 31.189 54.454 31.2237 54.4094 31.2477C54.3648 31.2716 54.3107 31.2836 54.2473 31.2836C54.1679 31.2836 54.1024 31.2627 54.0507 31.2209C53.999 31.1786 53.9607 31.118 53.9358 31.0391C53.9109 30.9597 53.8985 30.8645 53.8985 30.7537C53.8985 30.6428 53.9097 30.5479 53.9323 30.469C53.9553 30.3896 53.9924 30.3287 54.0436 30.2864C54.0948 30.2441 54.1627 30.223 54.2473 30.223C54.3272 30.223 54.3929 30.2441 54.4446 30.2864C54.4968 30.3282 54.5353 30.3888 54.5602 30.4682C54.5856 30.5472 54.5983 30.6423 54.5983 30.7537ZM54.0655 30.7537C54.0655 30.8406 54.0711 30.9132 54.0824 30.9714C54.0941 31.0297 54.1134 31.0734 54.1402 31.1025C54.167 31.1312 54.2027 31.1455 54.2473 31.1455C54.2919 31.1455 54.3276 31.1312 54.3544 31.1025C54.3812 31.0738 54.4005 31.0304 54.4122 30.9721C54.4244 30.9139 54.4305 30.8411 54.4305 30.7537C54.4305 30.6672 54.4247 30.5949 54.4129 30.5366C54.4012 30.4783 54.3819 30.4347 54.3551 30.4055C54.3283 30.3759 54.2924 30.3611 54.2473 30.3611C54.2022 30.3611 54.1663 30.3759 54.1395 30.4055C54.1132 30.4347 54.0941 30.4783 54.0824 30.5366C54.0711 30.5949 54.0655 30.6672 54.0655 30.7537ZM55.5217 31.0433H55.3822V31.2695H55.2187V31.0433H54.75V30.9179L55.2208 30.2364H55.3822V30.9059H55.5217V31.0433ZM55.2187 30.9059V30.6501C55.2187 30.6289 55.2189 30.6075 55.2194 30.5859C55.2203 30.5639 55.2212 30.5427 55.2222 30.5225C55.2231 30.5023 55.2241 30.4838 55.225 30.4668C55.2259 30.4495 55.2266 30.4351 55.2271 30.4238H55.2215C55.2126 30.4426 55.2027 30.4619 55.1919 30.4816C55.1811 30.5009 55.1696 30.5197 55.1573 30.538L54.9036 30.9059H55.2187Z" fill="#212121"/>
<path d="M47.5067 54.6035H47.3403V53.9404C47.3403 53.9183 47.3406 53.8962 47.341 53.8741C47.3415 53.852 47.342 53.8304 47.3424 53.8093C47.3434 53.7881 47.3446 53.7679 47.346 53.7487C47.3361 53.7595 47.3239 53.7712 47.3093 53.7839C47.2952 53.7966 47.2802 53.8097 47.2642 53.8234L47.1458 53.9178L47.0627 53.8128L47.3685 53.5732H47.5067V54.6035ZM48.6035 54.0876C48.6035 54.1708 48.5969 54.2453 48.5837 54.3111C48.571 54.3764 48.5508 54.4318 48.5231 54.4774C48.4954 54.5229 48.4592 54.5577 48.4146 54.5817C48.37 54.6056 48.3159 54.6176 48.2525 54.6176C48.1731 54.6176 48.1076 54.5967 48.0559 54.5549C48.0042 54.5126 47.9659 54.452 47.941 54.3731C47.9161 54.2937 47.9037 54.1985 47.9037 54.0876C47.9037 53.9768 47.9149 53.8819 47.9375 53.8029C47.9605 53.7235 47.9976 53.6627 48.0488 53.6204C48.1 53.5781 48.1679 53.557 48.2525 53.557C48.3324 53.557 48.3981 53.5781 48.4498 53.6204C48.502 53.6622 48.5405 53.7228 48.5654 53.8022C48.5908 53.8812 48.6035 53.9763 48.6035 54.0876ZM48.0707 54.0876C48.0707 54.1746 48.0763 54.2472 48.0876 54.3054C48.0993 54.3637 48.1186 54.4074 48.1454 54.4365C48.1722 54.4652 48.2079 54.4795 48.2525 54.4795C48.2971 54.4795 48.3328 54.4652 48.3596 54.4365C48.3864 54.4078 48.4057 54.3644 48.4174 54.3061C48.4296 54.2479 48.4357 54.175 48.4357 54.0876C48.4357 54.0012 48.4299 53.9288 48.4181 53.8706C48.4064 53.8123 48.3871 53.7686 48.3603 53.7395C48.3335 53.7099 48.2976 53.6951 48.2525 53.6951C48.2074 53.6951 48.1715 53.7099 48.1447 53.7395C48.1184 53.7686 48.0993 53.8123 48.0876 53.8706C48.0763 53.9288 48.0707 54.0012 48.0707 54.0876ZM49.4895 54.0876C49.4895 54.1708 49.483 54.2453 49.4698 54.3111C49.4571 54.3764 49.4369 54.4318 49.4092 54.4774C49.3815 54.5229 49.3453 54.5577 49.3007 54.5817C49.256 54.6056 49.202 54.6176 49.1386 54.6176C49.0592 54.6176 48.9936 54.5967 48.942 54.5549C48.8903 54.5126 48.852 54.452 48.8271 54.3731C48.8022 54.2937 48.7897 54.1985 48.7897 54.0876C48.7897 53.9768 48.801 53.8819 48.8236 53.8029C48.8466 53.7235 48.8837 53.6627 48.9349 53.6204C48.9861 53.5781 49.054 53.557 49.1386 53.557C49.2185 53.557 49.2842 53.5781 49.3359 53.6204C49.3881 53.6622 49.4266 53.7228 49.4515 53.8022C49.4769 53.8812 49.4895 53.9763 49.4895 54.0876ZM48.9568 54.0876C48.9568 54.1746 48.9624 54.2472 48.9737 54.3054C48.9854 54.3637 49.0047 54.4074 49.0315 54.4365C49.0582 54.4652 49.094 54.4795 49.1386 54.4795C49.1832 54.4795 49.2189 54.4652 49.2457 54.4365C49.2725 54.4078 49.2917 54.3644 49.3035 54.3061C49.3157 54.2479 49.3218 54.175 49.3218 54.0876C49.3218 54.0012 49.3159 53.9288 49.3042 53.8706C49.2925 53.8123 49.2732 53.7686 49.2464 53.7395C49.2196 53.7099 49.1837 53.6951 49.1386 53.6951C49.0935 53.6951 49.0575 53.7099 49.0308 53.7395C49.0044 53.7686 48.9854 53.8123 48.9737 53.8706C48.9624 53.9288 48.9568 54.0012 48.9568 54.0876Z" fill="#212121"/>
<path d="M55.6544 42.2251C55.6544 42.2862 55.65 42.3461 55.641 42.4048C55.6326 42.4636 55.6176 42.5185 55.5959 42.5697C55.5748 42.621 55.5454 42.6663 55.5078 42.7058C55.4707 42.7448 55.4238 42.7753 55.3669 42.7974C55.3101 42.8195 55.2415 42.8305 55.1611 42.8305C55.1409 42.8305 55.1174 42.8293 55.0906 42.827C55.0643 42.8251 55.0427 42.8223 55.0258 42.8185V42.6804C55.0437 42.6856 55.0636 42.6898 55.0857 42.6931C55.1083 42.6959 55.1306 42.6973 55.1527 42.6973C55.2396 42.6973 55.3072 42.6811 55.3556 42.6487C55.4045 42.6163 55.439 42.5716 55.4592 42.5148C55.4799 42.4579 55.4916 42.3933 55.4945 42.321H55.486C55.4724 42.3435 55.4552 42.3642 55.4346 42.383C55.4139 42.4013 55.3883 42.4161 55.3577 42.4274C55.3272 42.4382 55.2901 42.4436 55.2464 42.4436C55.1872 42.4436 55.1355 42.4312 55.0914 42.4062C55.0477 42.3813 55.0136 42.3452 54.9892 42.2977C54.9652 42.2498 54.9532 42.1922 54.9532 42.1251C54.9532 42.0522 54.9671 41.9895 54.9948 41.9369C55.0225 41.8843 55.0618 41.8439 55.1125 41.8157C55.1632 41.787 55.2229 41.7727 55.2915 41.7727C55.3432 41.7727 55.3909 41.7821 55.4346 41.8009C55.4787 41.8192 55.5172 41.8474 55.5501 41.8855C55.583 41.923 55.6086 41.9703 55.6269 42.0271C55.6453 42.0835 55.6544 42.1495 55.6544 42.2251ZM55.2936 41.9094C55.2415 41.9094 55.1989 41.927 55.1661 41.9623C55.1332 41.997 55.1167 42.0506 55.1167 42.1229C55.1167 42.1817 55.1308 42.2282 55.159 42.2625C55.1872 42.2968 55.2304 42.3139 55.2887 42.3139C55.3291 42.3139 55.3638 42.3057 55.393 42.2893C55.4226 42.2724 55.4454 42.251 55.4613 42.2251C55.4778 42.1993 55.486 42.173 55.486 42.1462C55.486 42.1185 55.482 42.0908 55.474 42.063C55.4665 42.0353 55.4548 42.01 55.4388 41.9869C55.4228 41.9639 55.4026 41.9454 55.3782 41.9313C55.3542 41.9167 55.326 41.9094 55.2936 41.9094ZM56.1917 41.772C56.2513 41.772 56.3051 41.7814 56.3531 41.8002C56.401 41.8185 56.439 41.846 56.4672 41.8826C56.4954 41.9193 56.5095 41.9646 56.5095 42.0186C56.5095 42.0605 56.5008 42.0969 56.4834 42.1279C56.4665 42.1589 56.4435 42.1861 56.4144 42.2096C56.3852 42.2327 56.3526 42.2531 56.3164 42.2709C56.3568 42.2907 56.3939 42.3135 56.4278 42.3393C56.4621 42.3647 56.4895 42.3945 56.5102 42.4288C56.5314 42.4631 56.5419 42.5033 56.5419 42.5493C56.5419 42.6071 56.5271 42.6571 56.4975 42.6994C56.4684 42.7412 56.4278 42.7737 56.3756 42.7967C56.3235 42.8192 56.2626 42.8305 56.1931 42.8305C56.1184 42.8305 56.0547 42.8195 56.0021 42.7974C55.9495 42.7753 55.9095 42.7438 55.8823 42.7029C55.855 42.6616 55.8414 42.6123 55.8414 42.5549C55.8414 42.5075 55.8508 42.4664 55.8696 42.4316C55.8884 42.3969 55.9135 42.3668 55.945 42.3414C55.977 42.316 56.012 42.2947 56.05 42.2773C56.0176 42.258 55.988 42.2364 55.9612 42.2124C55.9344 42.188 55.9131 42.1601 55.8971 42.1286C55.8816 42.0966 55.8738 42.0598 55.8738 42.0179C55.8738 41.9644 55.8882 41.9195 55.9168 41.8833C55.9455 41.8467 55.9838 41.819 56.0317 41.8002C56.0801 41.7814 56.1334 41.772 56.1917 41.772ZM55.9993 42.5486C55.9993 42.5937 56.0153 42.6308 56.0472 42.66C56.0792 42.6891 56.1268 42.7036 56.1903 42.7036C56.2532 42.7036 56.3011 42.6893 56.334 42.6607C56.3669 42.632 56.3834 42.5942 56.3834 42.5472C56.3834 42.5171 56.3749 42.4906 56.358 42.4676C56.3416 42.4445 56.3192 42.4241 56.291 42.4062C56.2633 42.3879 56.2326 42.371 56.1987 42.3555L56.1762 42.3463C56.1395 42.3619 56.108 42.3795 56.0817 42.3992C56.0554 42.4185 56.035 42.4403 56.0204 42.4647C56.0063 42.4892 55.9993 42.5171 55.9993 42.5486ZM56.1903 41.8995C56.1447 41.8995 56.1071 41.9108 56.0775 41.9334C56.0484 41.9555 56.0338 41.9874 56.0338 42.0292C56.0338 42.0588 56.0409 42.0842 56.055 42.1053C56.0695 42.1265 56.089 42.1448 56.1135 42.1603C56.1379 42.1753 56.1649 42.1894 56.1945 42.2026C56.2232 42.1899 56.249 42.176 56.272 42.161C56.2955 42.1455 56.3141 42.1272 56.3277 42.106C56.3418 42.0844 56.3488 42.0586 56.3488 42.0285C56.3488 41.9872 56.334 41.9555 56.3044 41.9334C56.2753 41.9108 56.2373 41.8995 56.1903 41.8995ZM57.428 42.8164H56.7303V42.6917L56.9974 42.421C57.0491 42.3684 57.0916 42.3231 57.125 42.285C57.1583 42.2465 57.183 42.2101 57.199 42.1758C57.2154 42.1415 57.2236 42.1042 57.2236 42.0637C57.2236 42.0139 57.2093 41.9764 57.1807 41.951C57.152 41.9252 57.1142 41.9122 57.0672 41.9122C57.0226 41.9122 56.9812 41.9212 56.9432 41.939C56.9056 41.9564 56.8666 41.9813 56.8262 42.0137L56.7353 41.9045C56.7639 41.88 56.7945 41.8577 56.8269 41.8375C56.8598 41.8173 56.8964 41.8014 56.9368 41.7896C56.9772 41.7774 57.0233 41.7713 57.0749 41.7713C57.1403 41.7713 57.1966 41.783 57.2441 41.8065C57.2915 41.8295 57.3279 41.8617 57.3533 41.9031C57.3792 41.9444 57.3921 41.9926 57.3921 42.0475C57.3921 42.103 57.381 42.1542 57.359 42.2012C57.3369 42.2482 57.3054 42.2947 57.2645 42.3407C57.2236 42.3863 57.175 42.4358 57.1186 42.4894L56.9403 42.6635V42.6712H57.428V42.8164Z" fill="#212121"/>
<path d="M60.3126 40.4102H60.1463V39.747C60.1463 39.7249 60.1465 39.7028 60.147 39.6808C60.1475 39.6587 60.148 39.6371 60.1484 39.6159C60.1494 39.5948 60.1505 39.5746 60.152 39.5553C60.1421 39.5661 60.1299 39.5779 60.1153 39.5905C60.1012 39.6032 60.0862 39.6164 60.0702 39.63L59.9518 39.7244L59.8686 39.6194L60.1745 39.3798H60.3126V40.4102ZM61.4094 39.8943C61.4094 39.9774 61.4029 40.0519 61.3897 40.1177C61.377 40.183 61.3568 40.2384 61.3291 40.284C61.3014 40.3296 61.2652 40.3643 61.2206 40.3883C61.1759 40.4123 61.1219 40.4243 61.0585 40.4243C60.9791 40.4243 60.9135 40.4033 60.8619 40.3615C60.8102 40.3192 60.7719 40.2586 60.747 40.1797C60.7221 40.1003 60.7096 40.0052 60.7096 39.8943C60.7096 39.7834 60.7209 39.6885 60.7435 39.6096C60.7665 39.5302 60.8036 39.4693 60.8548 39.427C60.906 39.3848 60.9739 39.3636 61.0585 39.3636C61.1383 39.3636 61.2041 39.3848 61.2558 39.427C61.308 39.4689 61.3465 39.5295 61.3714 39.6089C61.3967 39.6878 61.4094 39.7829 61.4094 39.8943ZM60.8767 39.8943C60.8767 39.9812 60.8823 40.0538 60.8936 40.1121C60.9053 40.1703 60.9246 40.214 60.9514 40.2431C60.9781 40.2718 61.0138 40.2861 61.0585 40.2861C61.1031 40.2861 61.1388 40.2718 61.1656 40.2431C61.1924 40.2145 61.2116 40.171 61.2234 40.1128C61.2356 40.0545 61.2417 39.9817 61.2417 39.8943C61.2417 39.8078 61.2358 39.7355 61.2241 39.6772C61.2123 39.619 61.1931 39.5753 61.1663 39.5462C61.1395 39.5166 61.1036 39.5018 61.0585 39.5018C61.0134 39.5018 60.9774 39.5166 60.9507 39.5462C60.9243 39.5753 60.9053 39.619 60.8936 39.6772C60.8823 39.7355 60.8767 39.8078 60.8767 39.8943ZM62.2955 39.8943C62.2955 39.9774 62.2889 40.0519 62.2758 40.1177C62.2631 40.183 62.2429 40.2384 62.2152 40.284C62.1875 40.3296 62.1513 40.3643 62.1067 40.3883C62.062 40.4123 62.008 40.4243 61.9446 40.4243C61.8652 40.4243 61.7996 40.4033 61.7479 40.3615C61.6963 40.3192 61.658 40.2586 61.6331 40.1797C61.6082 40.1003 61.5957 40.0052 61.5957 39.8943C61.5957 39.7834 61.607 39.6885 61.6295 39.6096C61.6526 39.5302 61.6897 39.4693 61.7409 39.427C61.7921 39.3848 61.86 39.3636 61.9446 39.3636C62.0244 39.3636 62.0902 39.3848 62.1419 39.427C62.194 39.4689 62.2326 39.5295 62.2575 39.6089C62.2828 39.6878 62.2955 39.7829 62.2955 39.8943ZM61.7627 39.8943C61.7627 39.9812 61.7684 40.0538 61.7797 40.1121C61.7914 40.1703 61.8107 40.214 61.8374 40.2431C61.8642 40.2718 61.8999 40.2861 61.9446 40.2861C61.9892 40.2861 62.0249 40.2718 62.0517 40.2431C62.0785 40.2145 62.0977 40.171 62.1095 40.1128C62.1217 40.0545 62.1278 39.9817 62.1278 39.8943C62.1278 39.8078 62.1219 39.7355 62.1102 39.6772C62.0984 39.619 62.0792 39.5753 62.0524 39.5462C62.0256 39.5166 61.9897 39.5018 61.9446 39.5018C61.8995 39.5018 61.8635 39.5166 61.8367 39.5462C61.8104 39.5753 61.7914 39.619 61.7797 39.6772C61.7684 39.7355 61.7627 39.8078 61.7627 39.8943ZM63.1816 39.8943C63.1816 39.9774 63.175 40.0519 63.1619 40.1177C63.1492 40.183 63.129 40.2384 63.1013 40.284C63.0736 40.3296 63.0374 40.3643 62.9927 40.3883C62.9481 40.4123 62.8941 40.4243 62.8307 40.4243C62.7513 40.4243 62.6857 40.4033 62.634 40.3615C62.5824 40.3192 62.5441 40.2586 62.5192 40.1797C62.4943 40.1003 62.4818 40.0052 62.4818 39.8943C62.4818 39.7834 62.4931 39.6885 62.5156 39.6096C62.5387 39.5302 62.5758 39.4693 62.627 39.427C62.6782 39.3848 62.7461 39.3636 62.8307 39.3636C62.9105 39.3636 62.9763 39.3848 63.028 39.427C63.0801 39.4689 63.1187 39.5295 63.1436 39.6089C63.1689 39.6878 63.1816 39.7829 63.1816 39.8943ZM62.6488 39.8943C62.6488 39.9812 62.6545 40.0538 62.6657 40.1121C62.6775 40.1703 62.6968 40.214 62.7235 40.2431C62.7503 40.2718 62.786 40.2861 62.8307 40.2861C62.8753 40.2861 62.911 40.2718 62.9378 40.2431C62.9646 40.2145 62.9838 40.171 62.9956 40.1128C63.0078 40.0545 63.0139 39.9817 63.0139 39.8943C63.0139 39.8078 63.008 39.7355 62.9963 39.6772C62.9845 39.619 62.9653 39.5753 62.9385 39.5462C62.9117 39.5166 62.8758 39.5018 62.8307 39.5018C62.7855 39.5018 62.7496 39.5166 62.7228 39.5462C62.6965 39.5753 62.6775 39.619 62.6657 39.6772C62.6545 39.7355 62.6488 39.8078 62.6488 39.8943Z" fill="#212121"/>
<path d="M63.1424 54.6035H62.9761V53.9404C62.9761 53.9183 62.9763 53.8962 62.9768 53.8741C62.9773 53.852 62.9777 53.8304 62.9782 53.8093C62.9791 53.7881 62.9803 53.7679 62.9817 53.7487C62.9718 53.7595 62.9596 53.7712 62.9451 53.7839C62.931 53.7966 62.9159 53.8097 62.9 53.8234L62.7816 53.9178L62.6984 53.8128L63.0043 53.5732H63.1424V54.6035ZM64.2392 54.0876C64.2392 54.1708 64.2326 54.2453 64.2195 54.3111C64.2068 54.3764 64.1866 54.4318 64.1589 54.4774C64.1311 54.5229 64.095 54.5577 64.0503 54.5817C64.0057 54.6056 63.9517 54.6176 63.8882 54.6176C63.8088 54.6176 63.7433 54.5967 63.6916 54.5549C63.6399 54.5126 63.6016 54.452 63.5767 54.3731C63.5518 54.2937 63.5394 54.1985 63.5394 54.0876C63.5394 53.9768 63.5507 53.8819 63.5732 53.8029C63.5962 53.7235 63.6334 53.6627 63.6846 53.6204C63.7358 53.5781 63.8037 53.557 63.8882 53.557C63.9681 53.557 64.0339 53.5781 64.0856 53.6204C64.1377 53.6622 64.1762 53.7228 64.2011 53.8022C64.2265 53.8812 64.2392 53.9763 64.2392 54.0876ZM63.7064 54.0876C63.7064 54.1746 63.7121 54.2472 63.7233 54.3054C63.7351 54.3637 63.7543 54.4074 63.7811 54.4365C63.8079 54.4652 63.8436 54.4795 63.8882 54.4795C63.9329 54.4795 63.9686 54.4652 63.9954 54.4365C64.0221 54.4078 64.0414 54.3644 64.0531 54.3061C64.0654 54.2479 64.0715 54.175 64.0715 54.0876C64.0715 54.0012 64.0656 53.9288 64.0539 53.8706C64.0421 53.8123 64.0228 53.7686 63.9961 53.7395C63.9693 53.7099 63.9333 53.6951 63.8882 53.6951C63.8431 53.6951 63.8072 53.7099 63.7804 53.7395C63.7541 53.7686 63.7351 53.8123 63.7233 53.8706C63.7121 53.9288 63.7064 54.0012 63.7064 54.0876ZM65.0858 53.8086C65.0858 53.8551 65.0764 53.8955 65.0576 53.9298C65.0388 53.9641 65.013 53.9923 64.9801 54.0144C64.9477 54.036 64.9101 54.0515 64.8674 54.0609V54.0658C64.9496 54.0761 65.0116 54.102 65.0534 54.1433C65.0957 54.1847 65.1168 54.2394 65.1168 54.3075C65.1168 54.3672 65.1025 54.4205 65.0738 54.4675C65.0452 54.514 65.0013 54.5507 64.9421 54.5774C64.8829 54.6042 64.8067 54.6176 64.7137 54.6176C64.6578 54.6176 64.6059 54.6131 64.558 54.6042C64.5105 54.5953 64.4654 54.581 64.4227 54.5612V54.4139C64.4664 54.4356 64.5129 54.4522 64.5622 54.464C64.6115 54.4757 64.6583 54.4816 64.7024 54.4816C64.7884 54.4816 64.8497 54.4656 64.8864 54.4337C64.923 54.4013 64.9413 54.3566 64.9413 54.2998C64.9413 54.2631 64.9317 54.2331 64.9125 54.2096C64.8937 54.1861 64.8643 54.1685 64.8244 54.1567C64.7849 54.145 64.7339 54.1391 64.6714 54.1391H64.5805V54.0059H64.6721C64.7318 54.0059 64.7797 53.9989 64.8159 53.9848C64.8521 53.9702 64.8782 53.9502 64.8941 53.9249C64.9106 53.8995 64.9188 53.8699 64.9188 53.8361C64.9188 53.7919 64.9045 53.7576 64.8758 53.7332C64.8471 53.7083 64.8046 53.6958 64.7483 53.6958C64.7135 53.6958 64.6818 53.6998 64.6531 53.7078C64.6249 53.7158 64.5988 53.7259 64.5749 53.7381C64.5509 53.7503 64.5281 53.7635 64.5065 53.7776L64.4269 53.6627C64.4659 53.6336 64.5124 53.6089 64.5664 53.5887C64.6205 53.5685 64.6834 53.5584 64.7553 53.5584C64.861 53.5584 64.9425 53.5812 64.9998 53.6268C65.0572 53.6719 65.0858 53.7325 65.0858 53.8086Z" fill="#212121"/>
<path d="M69.3084 54.9732C69.3084 55.0343 69.304 55.0942 69.295 55.1529C69.2866 55.2116 69.2715 55.2666 69.2499 55.3178C69.2288 55.369 69.1994 55.4143 69.1618 55.4538C69.1247 55.4928 69.0777 55.5233 69.0209 55.5454C68.964 55.5675 68.8954 55.5785 68.8151 55.5785C68.7949 55.5785 68.7714 55.5774 68.7446 55.575C68.7183 55.5731 68.6967 55.5703 68.6798 55.5666V55.4284C68.6976 55.4336 68.7176 55.4378 68.7397 55.4411C68.7622 55.4439 68.7846 55.4454 68.8066 55.4454C68.8936 55.4454 68.9612 55.4291 69.0096 55.3967C69.0585 55.3643 69.093 55.3197 69.1132 55.2628C69.1339 55.206 69.1456 55.1414 69.1484 55.069H69.14C69.1264 55.0916 69.1092 55.1122 69.0885 55.131C69.0679 55.1494 69.0423 55.1642 69.0117 55.1754C68.9812 55.1862 68.9441 55.1916 68.9004 55.1916C68.8412 55.1916 68.7895 55.1792 68.7453 55.1543C68.7016 55.1294 68.6676 55.0932 68.6431 55.0458C68.6192 54.9978 68.6072 54.9403 68.6072 54.8731C68.6072 54.8003 68.6211 54.7376 68.6488 54.6849C68.6765 54.6323 68.7157 54.5919 68.7665 54.5637C68.8172 54.5351 68.8769 54.5207 68.9455 54.5207C68.9972 54.5207 69.0448 54.5301 69.0885 54.5489C69.1327 54.5673 69.1712 54.5954 69.2041 54.6335C69.237 54.6711 69.2626 54.7183 69.2809 54.7751C69.2993 54.8315 69.3084 54.8975 69.3084 54.9732ZM68.9476 54.6575C68.8954 54.6575 68.8529 54.6751 68.82 54.7103C68.7871 54.7451 68.7707 54.7986 68.7707 54.871C68.7707 54.9297 68.7848 54.9762 68.813 55.0105C68.8412 55.0448 68.8844 55.062 68.9427 55.062C68.9831 55.062 69.0178 55.0538 69.047 55.0373C69.0766 55.0204 69.0993 54.999 69.1153 54.9732C69.1318 54.9473 69.14 54.921 69.14 54.8942C69.14 54.8665 69.136 54.8388 69.128 54.8111C69.1205 54.7834 69.1087 54.758 69.0928 54.735C69.0768 54.712 69.0566 54.6934 69.0322 54.6793C69.0082 54.6647 68.98 54.6575 68.9476 54.6575ZM69.8457 54.52C69.9053 54.52 69.9591 54.5294 70.007 54.5482C70.055 54.5665 70.093 54.594 70.1212 54.6307C70.1494 54.6673 70.1635 54.7127 70.1635 54.7667C70.1635 54.8085 70.1548 54.8449 70.1374 54.8759C70.1205 54.9069 70.0975 54.9342 70.0684 54.9577C70.0392 54.9807 70.0066 55.0011 69.9704 55.019C70.0108 55.0387 70.0479 55.0615 70.0817 55.0873C70.116 55.1127 70.1435 55.1426 70.1642 55.1768C70.1853 55.2111 70.1959 55.2513 70.1959 55.2974C70.1959 55.3551 70.1811 55.4052 70.1515 55.4475C70.1224 55.4893 70.0817 55.5217 70.0296 55.5447C69.9774 55.5673 69.9166 55.5785 69.8471 55.5785C69.7724 55.5785 69.7087 55.5675 69.6561 55.5454C69.6035 55.5233 69.5635 55.4919 69.5363 55.451C69.509 55.4096 69.4954 55.3603 69.4954 55.303C69.4954 55.2555 69.5048 55.2144 69.5236 55.1797C69.5424 55.1449 69.5675 55.1148 69.599 55.0895C69.6309 55.0641 69.666 55.0427 69.704 55.0253C69.6716 55.0061 69.642 54.9845 69.6152 54.9605C69.5884 54.9361 69.5671 54.9081 69.5511 54.8766C69.5356 54.8447 69.5278 54.8078 69.5278 54.766C69.5278 54.7124 69.5422 54.6676 69.5708 54.6314C69.5995 54.5947 69.6378 54.567 69.6857 54.5482C69.7341 54.5294 69.7874 54.52 69.8457 54.52ZM69.6533 55.2967C69.6533 55.3418 69.6692 55.3789 69.7012 55.408C69.7331 55.4371 69.7808 55.4517 69.8442 55.4517C69.9072 55.4517 69.9551 55.4374 69.988 55.4087C70.0209 55.38 70.0373 55.3422 70.0373 55.2952C70.0373 55.2652 70.0289 55.2386 70.012 55.2156C69.9955 55.1926 69.9732 55.1722 69.945 55.1543C69.9173 55.136 69.8865 55.1191 69.8527 55.1036L69.8302 55.0944C69.7935 55.1099 69.762 55.1275 69.7357 55.1472C69.7094 55.1665 69.689 55.1884 69.6744 55.2128C69.6603 55.2372 69.6533 55.2652 69.6533 55.2967ZM69.8442 54.6476C69.7987 54.6476 69.7611 54.6589 69.7315 54.6814C69.7024 54.7035 69.6878 54.7354 69.6878 54.7773C69.6878 54.8069 69.6948 54.8322 69.7089 54.8534C69.7235 54.8745 69.743 54.8928 69.7674 54.9083C69.7919 54.9234 69.8189 54.9375 69.8485 54.9506C69.8771 54.9379 69.903 54.9241 69.926 54.909C69.9495 54.8935 69.968 54.8752 69.9817 54.8541C69.9958 54.8325 70.0028 54.8066 70.0028 54.7766C70.0028 54.7352 69.988 54.7035 69.9584 54.6814C69.9293 54.6589 69.8912 54.6476 69.8442 54.6476Z" fill="#212121"/>
<path d="M71.4749 61.0977H70.7772V60.9729L71.0443 60.7023C71.096 60.6497 71.1385 60.6043 71.1718 60.5663C71.2052 60.5278 71.2299 60.4913 71.2458 60.4571C71.2623 60.4228 71.2705 60.3854 71.2705 60.345C71.2705 60.2952 71.2562 60.2576 71.2275 60.2322C71.1988 60.2064 71.161 60.1935 71.114 60.1935C71.0694 60.1935 71.0281 60.2024 70.99 60.2203C70.9524 60.2376 70.9134 60.2625 70.873 60.295L70.7821 60.1857C70.8108 60.1613 70.8413 60.139 70.8737 60.1188C70.9066 60.0986 70.9433 60.0826 70.9837 60.0709C71.0241 60.0586 71.0701 60.0525 71.1218 60.0525C71.1871 60.0525 71.2435 60.0643 71.2909 60.0878C71.3384 60.1108 71.3748 60.143 71.4002 60.1843C71.426 60.2257 71.4389 60.2738 71.4389 60.3288C71.4389 60.3842 71.4279 60.4354 71.4058 60.4824C71.3837 60.5294 71.3522 60.5759 71.3114 60.622C71.2705 60.6675 71.2219 60.7171 71.1655 60.7707L70.9872 60.9447V60.9525H71.4749V61.0977ZM72.361 60.5818C72.361 60.6649 72.3544 60.7394 72.3412 60.8052C72.3285 60.8705 72.3083 60.9259 72.2806 60.9715C72.2529 61.0171 72.2167 61.0518 72.1721 61.0758C72.1274 61.0998 72.0734 61.1118 72.01 61.1118C71.9306 61.1118 71.8651 61.0908 71.8134 61.049C71.7617 61.0067 71.7234 60.9461 71.6985 60.8672C71.6736 60.7878 71.6611 60.6927 71.6611 60.5818C71.6611 60.4709 71.6724 60.376 71.695 60.2971C71.718 60.2177 71.7551 60.1568 71.8063 60.1145C71.8575 60.0723 71.9254 60.0511 72.01 60.0511C72.0899 60.0511 72.1556 60.0723 72.2073 60.1145C72.2595 60.1564 72.298 60.217 72.3229 60.2964C72.3483 60.3753 72.361 60.4704 72.361 60.5818ZM71.8282 60.5818C71.8282 60.6687 71.8338 60.7413 71.8451 60.7996C71.8568 60.8578 71.8761 60.9015 71.9029 60.9306C71.9297 60.9593 71.9654 60.9736 72.01 60.9736C72.0546 60.9736 72.0903 60.9593 72.1171 60.9306C72.1439 60.902 72.1632 60.8585 72.1749 60.8003C72.1871 60.742 72.1932 60.6692 72.1932 60.5818C72.1932 60.4953 72.1874 60.423 72.1756 60.3647C72.1639 60.3065 72.1446 60.2628 72.1178 60.2337C72.091 60.2041 72.0551 60.1893 72.01 60.1893C71.9649 60.1893 71.9289 60.2041 71.9022 60.2337C71.8759 60.2628 71.8568 60.3065 71.8451 60.3647C71.8338 60.423 71.8282 60.4953 71.8282 60.5818Z" fill="#212121"/>
<path d="M76.1886 37.5234H76.0223V36.8603C76.0223 36.8382 76.0225 36.8161 76.023 36.794C76.0235 36.772 76.0239 36.7503 76.0244 36.7292C76.0253 36.7081 76.0265 36.6879 76.0279 36.6686C76.0181 36.6794 76.0058 36.6911 75.9913 36.7038C75.9772 36.7165 75.9622 36.7297 75.9462 36.7433L75.8278 36.8377L75.7446 36.7327L76.0505 36.4931H76.1886V37.5234ZM77.2854 37.5234H76.5877V37.3987L76.8548 37.1281C76.9065 37.0755 76.949 37.0301 76.9824 36.9921C77.0157 36.9535 77.0404 36.9171 77.0564 36.8828C77.0728 36.8485 77.081 36.8112 77.081 36.7708C77.081 36.721 77.0667 36.6834 77.038 36.658C77.0094 36.6322 76.9716 36.6193 76.9246 36.6193C76.88 36.6193 76.8386 36.6282 76.8006 36.646C76.763 36.6634 76.724 36.6883 76.6836 36.7207L76.5927 36.6115C76.6213 36.5871 76.6519 36.5648 76.6843 36.5446C76.7172 36.5244 76.7538 36.5084 76.7942 36.4966C76.8346 36.4844 76.8807 36.4783 76.9323 36.4783C76.9976 36.4783 77.054 36.4901 77.1015 36.5136C77.1489 36.5366 77.1853 36.5688 77.2107 36.6101C77.2365 36.6514 77.2495 36.6996 77.2495 36.7546C77.2495 36.81 77.2384 36.8612 77.2163 36.9082C77.1943 36.9552 77.1628 37.0017 77.1219 37.0477C77.081 37.0933 77.0324 37.1429 76.976 37.1964L76.7977 37.3705V37.3783H77.2854V37.5234ZM78.1715 37.0076C78.1715 37.0907 78.1649 37.1652 78.1518 37.231C78.1391 37.2963 78.1189 37.3517 78.0912 37.3973C78.0634 37.4429 78.0273 37.4776 77.9826 37.5016C77.938 37.5256 77.884 37.5375 77.8205 37.5375C77.7411 37.5375 77.6756 37.5166 77.6239 37.4748C77.5722 37.4325 77.5339 37.3719 77.509 37.293C77.4841 37.2136 77.4717 37.1184 77.4717 37.0076C77.4717 36.8967 77.483 36.8018 77.5055 36.7229C77.5285 36.6435 77.5657 36.5826 77.6169 36.5403C77.6681 36.498 77.736 36.4769 77.8205 36.4769C77.9004 36.4769 77.9662 36.498 78.0179 36.5403C78.07 36.5821 78.1085 36.6428 78.1334 36.7222C78.1588 36.8011 78.1715 36.8962 78.1715 37.0076ZM77.6387 37.0076C77.6387 37.0945 77.6444 37.1671 77.6556 37.2253C77.6674 37.2836 77.6866 37.3273 77.7134 37.3564C77.7402 37.3851 77.7759 37.3994 77.8205 37.3994C77.8652 37.3994 77.9009 37.3851 77.9277 37.3564C77.9544 37.3278 77.9737 37.2843 77.9854 37.226C77.9977 37.1678 78.0038 37.095 78.0038 37.0076C78.0038 36.9211 77.9979 36.8488 77.9862 36.7905C77.9744 36.7323 77.9551 36.6886 77.9284 36.6594C77.9016 36.6298 77.8656 36.615 77.8205 36.615C77.7754 36.615 77.7395 36.6298 77.7127 36.6594C77.6864 36.6886 77.6674 36.7323 77.6556 36.7905C77.6444 36.8488 77.6387 36.9211 77.6387 37.0076ZM78.7102 36.8793C78.7764 36.8793 78.8347 36.8913 78.8849 36.9153C78.9357 36.9387 78.9751 36.9735 79.0033 37.0196C79.0315 37.0651 79.0456 37.121 79.0456 37.1873C79.0456 37.2596 79.0303 37.3221 78.9998 37.3747C78.9693 37.4269 78.9244 37.4671 78.8652 37.4952C78.806 37.5234 78.7339 37.5375 78.6488 37.5375C78.5948 37.5375 78.5443 37.5328 78.4973 37.5234C78.4508 37.514 78.4106 37.4999 78.3768 37.4812V37.3317C78.412 37.3515 78.4543 37.3677 78.5037 37.3804C78.553 37.3926 78.6002 37.3987 78.6453 37.3987C78.6932 37.3987 78.7343 37.3917 78.7686 37.3776C78.8029 37.3635 78.8293 37.3419 78.8476 37.3127C78.8664 37.2836 78.8758 37.2467 78.8758 37.2021C78.8758 37.1429 78.8567 37.0973 78.8187 37.0654C78.7811 37.0329 78.7221 37.0167 78.6418 37.0167C78.6136 37.0167 78.5835 37.0193 78.5516 37.0245C78.5201 37.0292 78.4938 37.0344 78.4727 37.04L78.4001 36.997L78.4388 36.4931H78.9744V36.639H78.5847L78.5622 36.8955C78.5791 36.8918 78.5993 36.8882 78.6228 36.8849C78.6463 36.8812 78.6754 36.8793 78.7102 36.8793Z" fill="#212121"/>
<path d="M78.8788 44.6587C78.9385 44.6587 78.9923 44.6681 79.0402 44.6869C79.0881 44.7052 79.1262 44.7327 79.1544 44.7693C79.1826 44.806 79.1967 44.8513 79.1967 44.9054C79.1967 44.9472 79.188 44.9836 79.1706 45.0146C79.1537 45.0456 79.1307 45.0729 79.1015 45.0963C79.0724 45.1194 79.0397 45.1398 79.0036 45.1577C79.044 45.1774 79.0811 45.2002 79.1149 45.226C79.1492 45.2514 79.1767 45.2812 79.1974 45.3155C79.2185 45.3498 79.2291 45.39 79.2291 45.436C79.2291 45.4938 79.2143 45.5439 79.1847 45.5861C79.1556 45.628 79.1149 45.6604 79.0628 45.6834C79.0106 45.7059 78.9498 45.7172 78.8802 45.7172C78.8055 45.7172 78.7419 45.7062 78.6893 45.6841C78.6366 45.662 78.5967 45.6305 78.5695 45.5897C78.5422 45.5483 78.5286 45.499 78.5286 45.4417C78.5286 45.3942 78.538 45.3531 78.5568 45.3183C78.5756 45.2836 78.6007 45.2535 78.6322 45.2281C78.6641 45.2028 78.6991 45.1814 78.7372 45.164C78.7048 45.1447 78.6752 45.1231 78.6484 45.0992C78.6216 45.0747 78.6002 45.0468 78.5843 45.0153C78.5687 44.9834 78.561 44.9465 78.561 44.9047C78.561 44.8511 78.5753 44.8062 78.604 44.7701C78.6326 44.7334 78.6709 44.7057 78.7189 44.6869C78.7672 44.6681 78.8206 44.6587 78.8788 44.6587ZM78.6864 45.4353C78.6864 45.4804 78.7024 45.5175 78.7344 45.5467C78.7663 45.5758 78.814 45.5904 78.8774 45.5904C78.9404 45.5904 78.9883 45.576 79.0212 45.5474C79.0541 45.5187 79.0705 45.4809 79.0705 45.4339C79.0705 45.4038 79.0621 45.3773 79.0452 45.3543C79.0287 45.3313 79.0064 45.3108 78.9782 45.293C78.9505 45.2746 78.9197 45.2577 78.8859 45.2422L78.8633 45.2331C78.8267 45.2486 78.7952 45.2662 78.7689 45.2859C78.7426 45.3052 78.7221 45.327 78.7076 45.3515C78.6935 45.3759 78.6864 45.4038 78.6864 45.4353ZM78.8774 44.7863C78.8319 44.7863 78.7943 44.7975 78.7647 44.8201C78.7355 44.8422 78.721 44.8741 78.721 44.9159C78.721 44.9455 78.728 44.9709 78.7421 44.992C78.7567 45.0132 78.7762 45.0315 78.8006 45.047C78.825 45.0621 78.8521 45.0761 78.8817 45.0893C78.9103 45.0766 78.9362 45.0628 78.9592 45.0477C78.9827 45.0322 79.0012 45.0139 79.0148 44.9928C79.0289 44.9711 79.036 44.9453 79.036 44.9152C79.036 44.8739 79.0212 44.8422 78.9916 44.8201C78.9625 44.7975 78.9244 44.7863 78.8774 44.7863ZM80.1152 45.1873C80.1152 45.2704 80.1086 45.3449 80.0954 45.4107C80.0828 45.476 80.0626 45.5314 80.0348 45.577C80.0071 45.6226 79.9709 45.6573 79.9263 45.6813C79.8817 45.7052 79.8276 45.7172 79.7642 45.7172C79.6848 45.7172 79.6193 45.6963 79.5676 45.6545C79.5159 45.6122 79.4776 45.5516 79.4527 45.4727C79.4278 45.3933 79.4154 45.2981 79.4154 45.1873C79.4154 45.0764 79.4266 44.9815 79.4492 44.9025C79.4722 44.8231 79.5093 44.7623 79.5605 44.72C79.6118 44.6777 79.6796 44.6566 79.7642 44.6566C79.8441 44.6566 79.9099 44.6777 79.9615 44.72C80.0137 44.7618 80.0522 44.8224 80.0771 44.9018C80.1025 44.9808 80.1152 45.0759 80.1152 45.1873ZM79.5824 45.1873C79.5824 45.2742 79.588 45.3468 79.5993 45.405C79.6111 45.4633 79.6303 45.507 79.6571 45.5361C79.6839 45.5648 79.7196 45.5791 79.7642 45.5791C79.8088 45.5791 79.8446 45.5648 79.8713 45.5361C79.8981 45.5074 79.9174 45.464 79.9291 45.4057C79.9413 45.3475 79.9474 45.2746 79.9474 45.1873C79.9474 45.1008 79.9416 45.0285 79.9298 44.9702C79.9181 44.9119 79.8988 44.8682 79.872 44.8391C79.8453 44.8095 79.8093 44.7947 79.7642 44.7947C79.7191 44.7947 79.6832 44.8095 79.6564 44.8391C79.6301 44.8682 79.6111 44.9119 79.5993 44.9702C79.588 45.0285 79.5824 45.1008 79.5824 45.1873ZM81.0013 45.1873C81.0013 45.2704 80.9947 45.3449 80.9815 45.4107C80.9688 45.476 80.9486 45.5314 80.9209 45.577C80.8932 45.6226 80.857 45.6573 80.8124 45.6813C80.7678 45.7052 80.7137 45.7172 80.6503 45.7172C80.5709 45.7172 80.5054 45.6963 80.4537 45.6545C80.402 45.6122 80.3637 45.5516 80.3388 45.4727C80.3139 45.3933 80.3015 45.2981 80.3015 45.1873C80.3015 45.0764 80.3127 44.9815 80.3353 44.9025C80.3583 44.8231 80.3954 44.7623 80.4466 44.72C80.4978 44.6777 80.5657 44.6566 80.6503 44.6566C80.7302 44.6566 80.7959 44.6777 80.8476 44.72C80.8998 44.7618 80.9383 44.8224 80.9632 44.9018C80.9886 44.9808 81.0013 45.0759 81.0013 45.1873ZM80.4685 45.1873C80.4685 45.2742 80.4741 45.3468 80.4854 45.405C80.4971 45.4633 80.5164 45.507 80.5432 45.5361C80.57 45.5648 80.6057 45.5791 80.6503 45.5791C80.6949 45.5791 80.7306 45.5648 80.7574 45.5361C80.7842 45.5074 80.8035 45.464 80.8152 45.4057C80.8274 45.3475 80.8335 45.2746 80.8335 45.1873C80.8335 45.1008 80.8277 45.0285 80.8159 44.9702C80.8042 44.9119 80.7849 44.8682 80.7581 44.8391C80.7313 44.8095 80.6954 44.7947 80.6503 44.7947C80.6052 44.7947 80.5693 44.8095 80.5425 44.8391C80.5162 44.8682 80.4971 44.9119 80.4854 44.9702C80.4741 45.0285 80.4685 45.1008 80.4685 45.1873Z" fill="#212121"/>
</g>
<defs>
<filter id="filter0_d_7813_60525" x="33.0229" y="19.529" width="8.90056" height="6.93278" filterUnits="userSpaceOnUse" color-interpolation-filters="sRGB">
<feFlood flood-opacity="0" result="BackgroundImageFix"/>
<feColorMatrix in="SourceAlpha" type="matrix" values="0 0 0 0 0 0 0 0 0 0 0 0 0 0 0 0 0 0 127 0" result="hardAlpha"/>
<feOffset dy="0.24055"/>
<feGaussianBlur stdDeviation="0.962199"/>
<feColorMatrix type="matrix" values="0 0 0 0 0.293333 0 0 0 0 0.333211 0 0 0 0 0.431373 0 0 0 0.2 0"/>
<feBlend mode="normal" in2="BackgroundImageFix" result="effect1_dropShadow_7813_60525"/>
<feBlend mode="normal" in="SourceGraphic" in2="effect1_dropShadow_7813_60525" result="shape"/>
</filter>
<filter id="filter1_d_7813_60525" x="35.4281" y="30.5915" width="8.90056" height="6.93473" filterUnits="userSpaceOnUse" color-interpolation-filters="sRGB">
<feFlood flood-opacity="0" result="BackgroundImageFix"/>
<feColorMatrix in="SourceAlpha" type="matrix" values="0 0 0 0 0 0 0 0 0 0 0 0 0 0 0 0 0 0 127 0" result="hardAlpha"/>
<feOffset dy="0.24055"/>
<feGaussianBlur stdDeviation="0.962199"/>
<feColorMatrix type="matrix" values="0 0 0 0 0.293333 0 0 0 0 0.333211 0 0 0 0 0.431373 0 0 0 0.2 0"/>
<feBlend mode="normal" in2="BackgroundImageFix" result="effect1_dropShadow_7813_60525"/>
<feBlend mode="normal" in="SourceGraphic" in2="effect1_dropShadow_7813_60525" result="shape"/>
</filter>
<filter id="filter2_d_7813_60525" x="25.3246" y="36.6072" width="8.90056" height="6.93278" filterUnits="userSpaceOnUse" color-interpolation-filters="sRGB">
<feFlood flood-opacity="0" result="BackgroundImageFix"/>
<feColorMatrix in="SourceAlpha" type="matrix" values="0 0 0 0 0 0 0 0 0 0 0 0 0 0 0 0 0 0 127 0" result="hardAlpha"/>
<feOffset dy="0.24055"/>
<feGaussianBlur stdDeviation="0.962199"/>
<feColorMatrix type="matrix" values="0 0 0 0 0.293333 0 0 0 0 0.333211 0 0 0 0 0.431373 0 0 0 0.2 0"/>
<feBlend mode="normal" in2="BackgroundImageFix" result="effect1_dropShadow_7813_60525"/>
<feBlend mode="normal" in="SourceGraphic" in2="effect1_dropShadow_7813_60525" result="shape"/>
</filter>
<filter id="filter3_d_7813_60525" x="27.4897" y="50.8005" width="8.90056" height="6.93473" filterUnits="userSpaceOnUse" color-interpolation-filters="sRGB">
<feFlood flood-opacity="0" result="BackgroundImageFix"/>
<feColorMatrix in="SourceAlpha" type="matrix" values="0 0 0 0 0 0 0 0 0 0 0 0 0 0 0 0 0 0 127 0" result="hardAlpha"/>
<feOffset dy="0.24055"/>
<feGaussianBlur stdDeviation="0.962199"/>
<feColorMatrix type="matrix" values="0 0 0 0 0.293333 0 0 0 0 0.333211 0 0 0 0 0.431373 0 0 0 0.2 0"/>
<feBlend mode="normal" in2="BackgroundImageFix" result="effect1_dropShadow_7813_60525"/>
<feBlend mode="normal" in="SourceGraphic" in2="effect1_dropShadow_7813_60525" result="shape"/>
</filter>
<filter id="filter4_d_7813_60525" x="41.2016" y="36.8474" width="8.90056" height="6.93473" filterUnits="userSpaceOnUse" color-interpolation-filters="sRGB">
<feFlood flood-opacity="0" result="BackgroundImageFix"/>
<feColorMatrix in="SourceAlpha" type="matrix" values="0 0 0 0 0 0 0 0 0 0 0 0 0 0 0 0 0 0 127 0" result="hardAlpha"/>
<feOffset dy="0.24055"/>
<feGaussianBlur stdDeviation="0.962199"/>
<feColorMatrix type="matrix" values="0 0 0 0 0.293333 0 0 0 0 0.333211 0 0 0 0 0.431373 0 0 0 0.2 0"/>
<feBlend mode="normal" in2="BackgroundImageFix" result="effect1_dropShadow_7813_60525"/>
<feBlend mode="normal" in="SourceGraphic" in2="effect1_dropShadow_7813_60525" result="shape"/>
</filter>
<filter id="filter5_d_7813_60525" x="43.6069" y="50.8005" width="8.90056" height="6.93473" filterUnits="userSpaceOnUse" color-interpolation-filters="sRGB">
<feFlood flood-opacity="0" result="BackgroundImageFix"/>
<feColorMatrix in="SourceAlpha" type="matrix" values="0 0 0 0 0 0 0 0 0 0 0 0 0 0 0 0 0 0 127 0" result="hardAlpha"/>
<feOffset dy="0.24055"/>
<feGaussianBlur stdDeviation="0.962199"/>
<feColorMatrix type="matrix" values="0 0 0 0 0.293333 0 0 0 0 0.333211 0 0 0 0 0.431373 0 0 0 0.2 0"/>
<feBlend mode="normal" in2="BackgroundImageFix" result="effect1_dropShadow_7813_60525"/>
<feBlend mode="normal" in="SourceGraphic" in2="effect1_dropShadow_7813_60525" result="shape"/>
</filter>
<filter id="filter6_d_7813_60525" x="49.1391" y="27.4646" width="8.90056" height="6.93473" filterUnits="userSpaceOnUse" color-interpolation-filters="sRGB">
<feFlood flood-opacity="0" result="BackgroundImageFix"/>
<feColorMatrix in="SourceAlpha" type="matrix" values="0 0 0 0 0 0 0 0 0 0 0 0 0 0 0 0 0 0 127 0" result="hardAlpha"/>
<feOffset dy="0.24055"/>
<feGaussianBlur stdDeviation="0.962199"/>
<feColorMatrix type="matrix" values="0 0 0 0 0.293333 0 0 0 0 0.333211 0 0 0 0 0.431373 0 0 0 0.2 0"/>
<feBlend mode="normal" in2="BackgroundImageFix" result="effect1_dropShadow_7813_60525"/>
<feBlend mode="normal" in="SourceGraphic" in2="effect1_dropShadow_7813_60525" result="shape"/>
</filter>
<filter id="filter7_d_7813_60525" x="51.5444" y="39.0134" width="8.90056" height="6.93473" filterUnits="userSpaceOnUse" color-interpolation-filters="sRGB">
<feFlood flood-opacity="0" result="BackgroundImageFix"/>
<feColorMatrix in="SourceAlpha" type="matrix" values="0 0 0 0 0 0 0 0 0 0 0 0 0 0 0 0 0 0 127 0" result="hardAlpha"/>
<feOffset dy="0.24055"/>
<feGaussianBlur stdDeviation="0.962199"/>
<feColorMatrix type="matrix" values="0 0 0 0 0.293333 0 0 0 0 0.333211 0 0 0 0 0.431373 0 0 0 0.2 0"/>
<feBlend mode="normal" in2="BackgroundImageFix" result="effect1_dropShadow_7813_60525"/>
<feBlend mode="normal" in="SourceGraphic" in2="effect1_dropShadow_7813_60525" result="shape"/>
</filter>
<filter id="filter8_d_7813_60525" x="56.8373" y="36.6072" width="8.90056" height="6.93278" filterUnits="userSpaceOnUse" color-interpolation-filters="sRGB">
<feFlood flood-opacity="0" result="BackgroundImageFix"/>
<feColorMatrix in="SourceAlpha" type="matrix" values="0 0 0 0 0 0 0 0 0 0 0 0 0 0 0 0 0 0 127 0" result="hardAlpha"/>
<feOffset dy="0.24055"/>
<feGaussianBlur stdDeviation="0.962199"/>
<feColorMatrix type="matrix" values="0 0 0 0 0.293333 0 0 0 0 0.333211 0 0 0 0 0.431373 0 0 0 0.2 0"/>
<feBlend mode="normal" in2="BackgroundImageFix" result="effect1_dropShadow_7813_60525"/>
<feBlend mode="normal" in="SourceGraphic" in2="effect1_dropShadow_7813_60525" result="shape"/>
</filter>
<filter id="filter9_d_7813_60525" x="59.2426" y="50.8005" width="8.90056" height="6.93473" filterUnits="userSpaceOnUse" color-interpolation-filters="sRGB">
<feFlood flood-opacity="0" result="BackgroundImageFix"/>
<feColorMatrix in="SourceAlpha" type="matrix" values="0 0 0 0 0 0 0 0 0 0 0 0 0 0 0 0 0 0 127 0" result="hardAlpha"/>
<feOffset dy="0.24055"/>
<feGaussianBlur stdDeviation="0.962199"/>
<feColorMatrix type="matrix" values="0 0 0 0 0.293333 0 0 0 0 0.333211 0 0 0 0 0.431373 0 0 0 0.2 0"/>
<feBlend mode="normal" in2="BackgroundImageFix" result="effect1_dropShadow_7813_60525"/>
<feBlend mode="normal" in="SourceGraphic" in2="effect1_dropShadow_7813_60525" result="shape"/>
</filter>
<filter id="filter10_d_7813_60525" x="65.016" y="51.7615" width="8.90056" height="6.93473" filterUnits="userSpaceOnUse" color-interpolation-filters="sRGB">
<feFlood flood-opacity="0" result="BackgroundImageFix"/>
<feColorMatrix in="SourceAlpha" type="matrix" values="0 0 0 0 0 0 0 0 0 0 0 0 0 0 0 0 0 0 127 0" result="hardAlpha"/>
<feOffset dy="0.24055"/>
<feGaussianBlur stdDeviation="0.962199"/>
<feColorMatrix type="matrix" values="0 0 0 0 0.293333 0 0 0 0 0.333211 0 0 0 0 0.431373 0 0 0 0.2 0"/>
<feBlend mode="normal" in2="BackgroundImageFix" result="effect1_dropShadow_7813_60525"/>
<feBlend mode="normal" in="SourceGraphic" in2="effect1_dropShadow_7813_60525" result="shape"/>
</filter>
<filter id="filter11_d_7813_60525" x="67.1801" y="57.2927" width="8.90056" height="6.93473" filterUnits="userSpaceOnUse" color-interpolation-filters="sRGB">
<feFlood flood-opacity="0" result="BackgroundImageFix"/>
<feColorMatrix in="SourceAlpha" type="matrix" values="0 0 0 0 0 0 0 0 0 0 0 0 0 0 0 0 0 0 127 0" result="hardAlpha"/>
<feOffset dy="0.24055"/>
<feGaussianBlur stdDeviation="0.962199"/>
<feColorMatrix type="matrix" values="0 0 0 0 0.293333 0 0 0 0 0.333211 0 0 0 0 0.431373 0 0 0 0.2 0"/>
<feBlend mode="normal" in2="BackgroundImageFix" result="effect1_dropShadow_7813_60525"/>
<feBlend mode="normal" in="SourceGraphic" in2="effect1_dropShadow_7813_60525" result="shape"/>
</filter>
<filter id="filter12_d_7813_60525" x="72.7133" y="33.7204" width="8.90056" height="6.93278" filterUnits="userSpaceOnUse" color-interpolation-filters="sRGB">
<feFlood flood-opacity="0" result="BackgroundImageFix"/>
<feColorMatrix in="SourceAlpha" type="matrix" values="0 0 0 0 0 0 0 0 0 0 0 0 0 0 0 0 0 0 127 0" result="hardAlpha"/>
<feOffset dy="0.24055"/>
<feGaussianBlur stdDeviation="0.962199"/>
<feColorMatrix type="matrix" values="0 0 0 0 0.293333 0 0 0 0 0.333211 0 0 0 0 0.431373 0 0 0 0.2 0"/>
<feBlend mode="normal" in2="BackgroundImageFix" result="effect1_dropShadow_7813_60525"/>
<feBlend mode="normal" in="SourceGraphic" in2="effect1_dropShadow_7813_60525" result="shape"/>
</filter>
<filter id="filter13_d_7813_60525" x="75.1186" y="41.9001" width="8.90056" height="6.93278" filterUnits="userSpaceOnUse" color-interpolation-filters="sRGB">
<feFlood flood-opacity="0" result="BackgroundImageFix"/>
<feColorMatrix in="SourceAlpha" type="matrix" values="0 0 0 0 0 0 0 0 0 0 0 0 0 0 0 0 0 0 127 0" result="hardAlpha"/>
<feOffset dy="0.24055"/>
<feGaussianBlur stdDeviation="0.962199"/>
<feColorMatrix type="matrix" values="0 0 0 0 0.293333 0 0 0 0 0.333211 0 0 0 0 0.431373 0 0 0 0.2 0"/>
<feBlend mode="normal" in2="BackgroundImageFix" result="effect1_dropShadow_7813_60525"/>
<feBlend mode="normal" in="SourceGraphic" in2="effect1_dropShadow_7813_60525" result="shape"/>
</filter>
<clipPath id="clip0_7813_60525">
<rect width="70" height="56.0481" fill="white" transform="translate(14.5 14.4766)"/>
</clipPath>
</defs>
</svg>
