<svg width="92" height="92" viewBox="0 0 92 92" fill="none" xmlns="http://www.w3.org/2000/svg">
<rect x="0.389831" y="0.389831" width="91.079" height="91.2203" rx="17.5424" stroke="#BEBEBE" stroke-width="0.779661"/>
<rect x="72.1521" y="43.3679" width="4.72671" height="3.37622" rx="1.68811" fill="white"/>
<rect x="72.1521" y="43.3679" width="4.72671" height="3.37622" rx="1.68811" stroke="#ECF1FF" stroke-width="0.225081"/>
<path d="M73.1478 45.5547H73.0054V44.6438C73.0054 44.6092 73.0054 44.5796 73.0054 44.555C73.0059 44.5298 73.0065 44.5069 73.0071 44.4864C73.0083 44.4653 73.0097 44.4439 73.0115 44.4222C72.9933 44.441 72.9763 44.4571 72.9605 44.4706C72.9447 44.4835 72.9251 44.4996 72.9016 44.519L72.7548 44.6368L72.6783 44.5374L73.0265 44.2693H73.1478V45.5547ZM73.678 45.4632C73.678 45.4222 73.6879 45.3932 73.7079 45.3762C73.7278 45.3586 73.7521 45.3498 73.7808 45.3498C73.8107 45.3498 73.8359 45.3586 73.8564 45.3762C73.877 45.3932 73.8872 45.4222 73.8872 45.4632C73.8872 45.5037 73.877 45.5333 73.8564 45.552C73.8359 45.5702 73.8107 45.5793 73.7808 45.5793C73.7521 45.5793 73.7278 45.5702 73.7079 45.552C73.6879 45.5333 73.678 45.5037 73.678 45.4632ZM74.6513 45.5547H74.5088V44.6438C74.5088 44.6092 74.5088 44.5796 74.5088 44.555C74.5094 44.5298 74.51 44.5069 74.5106 44.4864C74.5118 44.4653 74.5132 44.4439 74.515 44.4222C74.4968 44.441 74.4798 44.4571 74.464 44.4706C74.4482 44.4835 74.4285 44.4996 74.4051 44.519L74.2582 44.6368L74.1818 44.5374L74.5299 44.2693H74.6513V45.5547ZM75.3485 44.1866V44.897C75.3485 44.9205 75.3476 44.9492 75.3458 44.9832C75.3441 45.0166 75.3426 45.0462 75.3415 45.072H75.3476C75.3599 45.0568 75.3778 45.0342 75.4012 45.0043C75.4253 44.9744 75.4455 44.9504 75.4619 44.9322L75.7819 44.5911H75.9534L75.5657 45.0025L75.9815 45.5547H75.8057L75.4654 45.0984L75.3485 45.2056V45.5547H75.2034V44.1866H75.3485Z" fill="#212121"/>
<rect x="19.5967" y="34.4766" width="4.95179" height="30.386" rx="2.4759" fill="#ECF1FF"/>
<rect x="28.376" y="45.2812" width="4.95179" height="19.5821" rx="2.4759" fill="#ECF1FF"/>
<rect x="37.1523" y="47.5312" width="4.95179" height="17.3313" rx="2.4759" fill="#ECF1FF"/>
<rect x="45.9316" y="34.9258" width="4.95179" height="29.9358" rx="2.4759" fill="#ECF1FF"/>
<rect x="54.709" y="41.0078" width="4.95179" height="23.8586" rx="2.4759" fill="#ECF1FF"/>
<rect x="63.4873" y="27.0508" width="4.95179" height="37.8137" rx="2.4759" fill="#ECF1FF"/>
<rect x="72.04" y="47.3086" width="4.95179" height="17.5563" rx="2.4759" fill="#D8E1FF"/>
<path d="M21.8379 37.1894L30.7994 48.0562L39.5493 50.2437L48.408 37.1894L57.1196 46.0804L65.9644 29.5234L74.831 50.2437" stroke="#2C4CF5" stroke-width="0.450163" stroke-linecap="round"/>
<circle cx="22.0717" cy="36.9535" r="0.800726" fill="white" stroke="#2C4CF5" stroke-width="0.649362"/>
<circle cx="30.851" cy="47.7582" r="0.800726" fill="white" stroke="#2C4CF5" stroke-width="0.649362"/>
<circle cx="39.6293" cy="50.0082" r="0.800726" fill="white" stroke="#2C4CF5" stroke-width="0.649362"/>
<circle cx="48.4067" cy="37.4028" r="0.800726" fill="white" stroke="#2C4CF5" stroke-width="0.649362"/>
<circle cx="57.186" cy="45.7348" r="0.800726" fill="white" stroke="#2C4CF5" stroke-width="0.649362"/>
<circle cx="65.9623" cy="29.5278" r="0.800726" fill="white" stroke="#2C4CF5" stroke-width="0.649362"/>
<circle cx="74.517" cy="49.7856" r="0.800726" fill="white" stroke="#2C4CF5" stroke-width="0.649362"/>
<path d="M16.4473 70.2383L81.2707 70.2383" stroke="#D4D4D4" stroke-width="0.225081"/>
<path d="M16.3382 70.2352C16.3382 70.2955 16.387 70.3444 16.4473 70.3444C16.5075 70.3444 16.5564 70.2955 16.5564 70.2352H16.3382ZM16.4473 26.3672H16.3382V70.2352H16.4473H16.5564V26.3672H16.4473Z" fill="#D4D4D4"/>
<path d="M11.2302 27.0234H10.3879V26.9012L10.7317 26.5522C10.7956 26.4877 10.8492 26.4303 10.8926 26.3798C10.9365 26.3294 10.9699 26.2799 10.9928 26.2313C11.0157 26.182 11.0271 26.1281 11.0271 26.0695C11.0271 25.9968 11.0054 25.9414 10.962 25.9033C10.9192 25.8646 10.8627 25.8453 10.7923 25.8453C10.7308 25.8453 10.6763 25.8558 10.6288 25.8769C10.5813 25.898 10.5327 25.9279 10.4829 25.9666L10.4046 25.8681C10.4386 25.8394 10.4755 25.8139 10.5154 25.7916C10.5558 25.7694 10.5989 25.7518 10.6446 25.7389C10.6909 25.726 10.7402 25.7195 10.7923 25.7195C10.8715 25.7195 10.9398 25.7333 10.9972 25.7609C11.0546 25.7884 11.0989 25.8277 11.13 25.8787C11.1616 25.9297 11.1774 25.9903 11.1774 26.0607C11.1774 26.1287 11.164 26.192 11.137 26.2506C11.11 26.3086 11.0722 26.3664 11.0236 26.4238C10.9749 26.4807 10.9181 26.541 10.853 26.6049L10.5734 26.8836V26.8898H11.2302V27.0234ZM11.8245 26.2374C11.9119 26.2374 11.9878 26.2524 12.0523 26.2823C12.1167 26.3116 12.1666 26.3543 12.2017 26.4106C12.2375 26.4669 12.2554 26.5352 12.2554 26.6155C12.2554 26.7034 12.2363 26.7793 12.1982 26.8432C12.1601 26.9065 12.1053 26.9554 12.0338 26.99C11.9623 27.024 11.8767 27.041 11.7771 27.041C11.7103 27.041 11.6481 27.0352 11.5907 27.0234C11.5332 27.0117 11.4849 26.9941 11.4456 26.9707V26.8318C11.4884 26.8576 11.5403 26.8781 11.6012 26.8933C11.6622 26.9086 11.7214 26.9162 11.7788 26.9162C11.8439 26.9162 11.9007 26.9059 11.9494 26.8854C11.9986 26.8643 12.0367 26.8326 12.0637 26.7904C12.0912 26.7477 12.105 26.694 12.105 26.6295C12.105 26.544 12.0786 26.478 12.0259 26.4317C11.9737 26.3848 11.8911 26.3614 11.778 26.3614C11.7416 26.3614 11.7018 26.3643 11.6584 26.3702C11.615 26.376 11.5792 26.3825 11.5511 26.3895L11.4773 26.3412L11.5265 25.738H12.1657V25.8717H11.6513L11.6188 26.2594C11.6411 26.2547 11.6698 26.25 11.705 26.2453C11.7401 26.24 11.78 26.2374 11.8245 26.2374ZM13.2981 26.379C13.2981 26.4833 13.2902 26.5765 13.2744 26.6586C13.2586 26.7406 13.2337 26.8101 13.1997 26.8669C13.1657 26.9238 13.1217 26.9672 13.0678 26.9971C13.0138 27.0264 12.9491 27.041 12.8735 27.041C12.7779 27.041 12.6988 27.0149 12.6361 26.9628C12.5739 26.9106 12.5273 26.8353 12.4963 26.7368C12.4658 26.6378 12.4506 26.5185 12.4506 26.379C12.4506 26.2418 12.4643 26.124 12.4919 26.0255C12.52 25.9265 12.5651 25.8506 12.6273 25.7978C12.6894 25.7445 12.7715 25.7178 12.8735 25.7178C12.9702 25.7178 13.0499 25.7442 13.1126 25.7969C13.1753 25.8491 13.2219 25.9247 13.2524 26.0238C13.2829 26.1222 13.2981 26.2406 13.2981 26.379ZM12.5974 26.379C12.5974 26.4985 12.6065 26.5982 12.6246 26.6779C12.6428 26.7576 12.6721 26.8174 12.7126 26.8573C12.7536 26.8965 12.8072 26.9162 12.8735 26.9162C12.9397 26.9162 12.993 26.8965 13.0335 26.8573C13.0745 26.818 13.1041 26.7585 13.1223 26.6788C13.141 26.5991 13.1504 26.4991 13.1504 26.379C13.1504 26.2612 13.1413 26.1627 13.1232 26.0835C13.105 26.0038 13.0757 25.944 13.0352 25.9042C12.9948 25.8637 12.9409 25.8435 12.8735 25.8435C12.8061 25.8435 12.7521 25.8637 12.7117 25.9042C12.6712 25.944 12.6419 26.0038 12.6238 26.0835C12.6062 26.1627 12.5974 26.2612 12.5974 26.379ZM14.3286 26.379C14.3286 26.4833 14.3207 26.5765 14.3048 26.6586C14.289 26.7406 14.2641 26.8101 14.2301 26.8669C14.1961 26.9238 14.1521 26.9672 14.0982 26.9971C14.0443 27.0264 13.9795 27.041 13.9039 27.041C13.8084 27.041 13.7292 27.0149 13.6665 26.9628C13.6044 26.9106 13.5578 26.8353 13.5267 26.7368C13.4962 26.6378 13.481 26.5185 13.481 26.379C13.481 26.2418 13.4948 26.124 13.5223 26.0255C13.5505 25.9265 13.5956 25.8506 13.6577 25.7978C13.7199 25.7445 13.8019 25.7178 13.9039 25.7178C14.0006 25.7178 14.0803 25.7442 14.1431 25.7969C14.2058 25.8491 14.2524 25.9247 14.2829 26.0238C14.3133 26.1222 14.3286 26.2406 14.3286 26.379ZM13.6278 26.379C13.6278 26.4985 13.6369 26.5982 13.6551 26.6779C13.6733 26.7576 13.7026 26.8174 13.743 26.8573C13.784 26.8965 13.8377 26.9162 13.9039 26.9162C13.9701 26.9162 14.0235 26.8965 14.0639 26.8573C14.105 26.818 14.1346 26.7585 14.1527 26.6788C14.1715 26.5991 14.1809 26.4991 14.1809 26.379C14.1809 26.2612 14.1718 26.1627 14.1536 26.0835C14.1354 26.0038 14.1061 25.944 14.0657 25.9042C14.0252 25.8637 13.9713 25.8435 13.9039 25.8435C13.8365 25.8435 13.7826 25.8637 13.7421 25.9042C13.7017 25.944 13.6724 26.0038 13.6542 26.0835C13.6366 26.1627 13.6278 26.2612 13.6278 26.379Z" fill="#212121"/>
<path d="M11.2302 33.0742H10.3879V32.952L10.7317 32.603C10.7956 32.5385 10.8492 32.481 10.8926 32.4306C10.9365 32.3802 10.9699 32.3307 10.9928 32.282C11.0157 32.2328 11.0271 32.1789 11.0271 32.1203C11.0271 32.0476 11.0054 31.9922 10.962 31.9541C10.9192 31.9154 10.8627 31.8961 10.7923 31.8961C10.7308 31.8961 10.6763 31.9066 10.6288 31.9277C10.5813 31.9488 10.5327 31.9787 10.4829 32.0174L10.4046 31.9189C10.4386 31.8902 10.4755 31.8647 10.5154 31.8424C10.5558 31.8202 10.5989 31.8026 10.6446 31.7897C10.6909 31.7768 10.7402 31.7703 10.7923 31.7703C10.8715 31.7703 10.9398 31.7841 10.9972 31.8117C11.0546 31.8392 11.0989 31.8785 11.13 31.9295C11.1616 31.9805 11.1774 32.0411 11.1774 32.1115C11.1774 32.1795 11.164 32.2428 11.137 32.3014C11.11 32.3594 11.0722 32.4171 11.0236 32.4746C10.9749 32.5314 10.9181 32.5918 10.853 32.6557L10.5734 32.9344V32.9406H11.2302V33.0742ZM12.2677 32.4297C12.2677 32.5341 12.2598 32.6273 12.2439 32.7093C12.2281 32.7914 12.2032 32.8609 12.1692 32.9177C12.1352 32.9746 12.0912 33.0179 12.0373 33.0478C11.9834 33.0771 11.9186 33.0918 11.843 33.0918C11.7475 33.0918 11.6683 33.0657 11.6056 33.0136C11.5435 32.9614 11.4969 32.8861 11.4658 32.7876C11.4353 32.6885 11.4201 32.5693 11.4201 32.4297C11.4201 32.2926 11.4339 32.1748 11.4614 32.0763C11.4896 31.9772 11.5347 31.9013 11.5968 31.8486C11.659 31.7952 11.741 31.7686 11.843 31.7686C11.9397 31.7686 12.0194 31.7949 12.0822 31.8477C12.1449 31.8999 12.1915 31.9755 12.222 32.0745C12.2524 32.173 12.2677 32.2914 12.2677 32.4297ZM11.5669 32.4297C11.5669 32.5493 11.576 32.649 11.5942 32.7287C11.6124 32.8084 11.6417 32.8682 11.6821 32.908C11.7231 32.9473 11.7768 32.967 11.843 32.967C11.9092 32.967 11.9626 32.9473 12.003 32.908C12.0441 32.8688 12.0737 32.8093 12.0918 32.7296C12.1106 32.6498 12.12 32.5499 12.12 32.4297C12.12 32.3119 12.1109 32.2135 12.0927 32.1343C12.0745 32.0546 12.0452 31.9948 12.0048 31.955C11.9643 31.9145 11.9104 31.8943 11.843 31.8943C11.7756 31.8943 11.7217 31.9145 11.6812 31.955C11.6408 31.9948 11.6115 32.0546 11.5933 32.1343C11.5757 32.2135 11.5669 32.3119 11.5669 32.4297ZM13.2981 32.4297C13.2981 32.5341 13.2902 32.6273 13.2744 32.7093C13.2586 32.7914 13.2337 32.8609 13.1997 32.9177C13.1657 32.9746 13.1217 33.0179 13.0678 33.0478C13.0138 33.0771 12.9491 33.0918 12.8735 33.0918C12.7779 33.0918 12.6988 33.0657 12.6361 33.0136C12.5739 32.9614 12.5273 32.8861 12.4963 32.7876C12.4658 32.6885 12.4506 32.5693 12.4506 32.4297C12.4506 32.2926 12.4643 32.1748 12.4919 32.0763C12.52 31.9772 12.5651 31.9013 12.6273 31.8486C12.6894 31.7952 12.7715 31.7686 12.8735 31.7686C12.9702 31.7686 13.0499 31.7949 13.1126 31.8477C13.1753 31.8999 13.2219 31.9755 13.2524 32.0745C13.2829 32.173 13.2981 32.2914 13.2981 32.4297ZM12.5974 32.4297C12.5974 32.5493 12.6065 32.649 12.6246 32.7287C12.6428 32.8084 12.6721 32.8682 12.7126 32.908C12.7536 32.9473 12.8072 32.967 12.8735 32.967C12.9397 32.967 12.993 32.9473 13.0335 32.908C13.0745 32.8688 13.1041 32.8093 13.1223 32.7296C13.141 32.6498 13.1504 32.5499 13.1504 32.4297C13.1504 32.3119 13.1413 32.2135 13.1232 32.1343C13.105 32.0546 13.0757 31.9948 13.0352 31.955C12.9948 31.9145 12.9409 31.8943 12.8735 31.8943C12.8061 31.8943 12.7521 31.9145 12.7117 31.955C12.6712 31.9948 12.6419 32.0546 12.6238 32.1343C12.6062 32.2135 12.5974 32.3119 12.5974 32.4297ZM14.3286 32.4297C14.3286 32.5341 14.3207 32.6273 14.3048 32.7093C14.289 32.7914 14.2641 32.8609 14.2301 32.9177C14.1961 32.9746 14.1521 33.0179 14.0982 33.0478C14.0443 33.0771 13.9795 33.0918 13.9039 33.0918C13.8084 33.0918 13.7292 33.0657 13.6665 33.0136C13.6044 32.9614 13.5578 32.8861 13.5267 32.7876C13.4962 32.6885 13.481 32.5693 13.481 32.4297C13.481 32.2926 13.4948 32.1748 13.5223 32.0763C13.5505 31.9772 13.5956 31.9013 13.6577 31.8486C13.7199 31.7952 13.8019 31.7686 13.9039 31.7686C14.0006 31.7686 14.0803 31.7949 14.1431 31.8477C14.2058 31.8999 14.2524 31.9755 14.2829 32.0745C14.3133 32.173 14.3286 32.2914 14.3286 32.4297ZM13.6278 32.4297C13.6278 32.5493 13.6369 32.649 13.6551 32.7287C13.6733 32.8084 13.7026 32.8682 13.743 32.908C13.784 32.9473 13.8377 32.967 13.9039 32.967C13.9701 32.967 14.0235 32.9473 14.0639 32.908C14.105 32.8688 14.1346 32.8093 14.1527 32.7296C14.1715 32.6498 14.1809 32.5499 14.1809 32.4297C14.1809 32.3119 14.1718 32.2135 14.1536 32.1343C14.1354 32.0546 14.1061 31.9948 14.0657 31.955C14.0252 31.9145 13.9713 31.8943 13.9039 31.8943C13.8365 31.8943 13.7826 31.9145 13.7421 31.955C13.7017 31.9948 13.6724 32.0546 13.6542 32.1343C13.6366 32.2135 13.6278 32.3119 13.6278 32.4297Z" fill="#212121"/>
<path d="M10.9313 39.125H10.7888V38.2141C10.7888 38.1795 10.7888 38.1499 10.7888 38.1253C10.7894 38.1001 10.79 38.0773 10.7906 38.0567C10.7918 38.0356 10.7932 38.0142 10.795 37.9926C10.7768 38.0113 10.7598 38.0274 10.744 38.0409C10.7282 38.0538 10.7085 38.0699 10.6851 38.0893L10.5382 38.2071L10.4618 38.1077L10.8099 37.8396H10.9313V39.125ZM11.8245 38.339C11.9119 38.339 11.9878 38.3539 12.0523 38.3838C12.1167 38.4131 12.1666 38.4559 12.2017 38.5122C12.2375 38.5685 12.2554 38.6367 12.2554 38.717C12.2554 38.805 12.2363 38.8809 12.1982 38.9448C12.1601 39.0081 12.1053 39.057 12.0338 39.0916C11.9623 39.1256 11.8767 39.1426 11.7771 39.1426C11.7103 39.1426 11.6481 39.1367 11.5907 39.125C11.5332 39.1133 11.4849 39.0957 11.4456 39.0722V38.9333C11.4884 38.9591 11.5403 38.9796 11.6012 38.9949C11.6622 39.0101 11.7214 39.0177 11.7788 39.0177C11.8439 39.0177 11.9007 39.0075 11.9494 38.987C11.9986 38.9659 12.0367 38.9342 12.0637 38.892C12.0912 38.8492 12.105 38.7956 12.105 38.7311C12.105 38.6455 12.0786 38.5796 12.0259 38.5333C11.9737 38.4864 11.8911 38.4629 11.778 38.4629C11.7416 38.4629 11.7018 38.4659 11.6584 38.4717C11.615 38.4776 11.5792 38.484 11.5511 38.4911L11.4773 38.4427L11.5265 37.8396H12.1657V37.9732H11.6513L11.6188 38.361C11.6411 38.3563 11.6698 38.3516 11.705 38.3469C11.7401 38.3416 11.78 38.339 11.8245 38.339ZM13.2981 38.4805C13.2981 38.5849 13.2902 38.6781 13.2744 38.7601C13.2586 38.8422 13.2337 38.9116 13.1997 38.9685C13.1657 39.0254 13.1217 39.0687 13.0678 39.0986C13.0138 39.1279 12.9491 39.1426 12.8735 39.1426C12.7779 39.1426 12.6988 39.1165 12.6361 39.0643C12.5739 39.0122 12.5273 38.9368 12.4963 38.8384C12.4658 38.7393 12.4506 38.62 12.4506 38.4805C12.4506 38.3434 12.4643 38.2256 12.4919 38.1271C12.52 38.028 12.5651 37.9521 12.6273 37.8994C12.6894 37.846 12.7715 37.8194 12.8735 37.8194C12.9702 37.8194 13.0499 37.8457 13.1126 37.8985C13.1753 37.9506 13.2219 38.0263 13.2524 38.1253C13.2829 38.2238 13.2981 38.3422 13.2981 38.4805ZM12.5974 38.4805C12.5974 38.6001 12.6065 38.6997 12.6246 38.7795C12.6428 38.8592 12.6721 38.919 12.7126 38.9588C12.7536 38.9981 12.8072 39.0177 12.8735 39.0177C12.9397 39.0177 12.993 38.9981 13.0335 38.9588C13.0745 38.9196 13.1041 38.8601 13.1223 38.7803C13.141 38.7006 13.1504 38.6007 13.1504 38.4805C13.1504 38.3627 13.1413 38.2642 13.1232 38.1851C13.105 38.1054 13.0757 38.0456 13.0352 38.0057C12.9948 37.9653 12.9409 37.9451 12.8735 37.9451C12.8061 37.9451 12.7521 37.9653 12.7117 38.0057C12.6712 38.0456 12.6419 38.1054 12.6238 38.1851C12.6062 38.2642 12.5974 38.3627 12.5974 38.4805ZM14.3286 38.4805C14.3286 38.5849 14.3207 38.6781 14.3048 38.7601C14.289 38.8422 14.2641 38.9116 14.2301 38.9685C14.1961 39.0254 14.1521 39.0687 14.0982 39.0986C14.0443 39.1279 13.9795 39.1426 13.9039 39.1426C13.8084 39.1426 13.7292 39.1165 13.6665 39.0643C13.6044 39.0122 13.5578 38.9368 13.5267 38.8384C13.4962 38.7393 13.481 38.62 13.481 38.4805C13.481 38.3434 13.4948 38.2256 13.5223 38.1271C13.5505 38.028 13.5956 37.9521 13.6577 37.8994C13.7199 37.846 13.8019 37.8194 13.9039 37.8194C14.0006 37.8194 14.0803 37.8457 14.1431 37.8985C14.2058 37.9506 14.2524 38.0263 14.2829 38.1253C14.3133 38.2238 14.3286 38.3422 14.3286 38.4805ZM13.6278 38.4805C13.6278 38.6001 13.6369 38.6997 13.6551 38.7795C13.6733 38.8592 13.7026 38.919 13.743 38.9588C13.784 38.9981 13.8377 39.0177 13.9039 39.0177C13.9701 39.0177 14.0235 38.9981 14.0639 38.9588C14.105 38.9196 14.1346 38.8601 14.1527 38.7803C14.1715 38.7006 14.1809 38.6007 14.1809 38.4805C14.1809 38.3627 14.1718 38.2642 14.1536 38.1851C14.1354 38.1054 14.1061 38.0456 14.0657 38.0057C14.0252 37.9653 13.9713 37.9451 13.9039 37.9451C13.8365 37.9451 13.7826 37.9653 13.7421 38.0057C13.7017 38.0456 13.6724 38.1054 13.6542 38.1851C13.6366 38.2642 13.6278 38.3627 13.6278 38.4805Z" fill="#212121"/>
<path d="M10.9313 45.1797H10.7888V44.2688C10.7888 44.2342 10.7888 44.2046 10.7888 44.18C10.7894 44.1548 10.79 44.1319 10.7906 44.1114C10.7918 44.0903 10.7932 44.0689 10.795 44.0472C10.7768 44.066 10.7598 44.0821 10.744 44.0956C10.7282 44.1085 10.7085 44.1246 10.6851 44.144L10.5382 44.2618L10.4618 44.1624L10.8099 43.8943H10.9313V45.1797ZM12.2677 44.5352C12.2677 44.6396 12.2598 44.7327 12.2439 44.8148C12.2281 44.8969 12.2032 44.9663 12.1692 45.0232C12.1352 45.08 12.0912 45.1234 12.0373 45.1533C11.9834 45.1826 11.9186 45.1973 11.843 45.1973C11.7475 45.1973 11.6683 45.1712 11.6056 45.119C11.5435 45.0669 11.4969 44.9915 11.4658 44.8931C11.4353 44.794 11.4201 44.6747 11.4201 44.5352C11.4201 44.3981 11.4339 44.2802 11.4614 44.1818C11.4896 44.0827 11.5347 44.0068 11.5968 43.954C11.659 43.9007 11.741 43.874 11.843 43.874C11.9397 43.874 12.0194 43.9004 12.0822 43.9532C12.1449 44.0053 12.1915 44.081 12.222 44.18C12.2524 44.2785 12.2677 44.3969 12.2677 44.5352ZM11.5669 44.5352C11.5669 44.6548 11.576 44.7544 11.5942 44.8342C11.6124 44.9139 11.6417 44.9737 11.6821 45.0135C11.7231 45.0528 11.7768 45.0724 11.843 45.0724C11.9092 45.0724 11.9626 45.0528 12.003 45.0135C12.0441 44.9742 12.0737 44.9147 12.0918 44.835C12.1106 44.7553 12.12 44.6554 12.12 44.5352C12.12 44.4174 12.1109 44.3189 12.0927 44.2398C12.0745 44.1601 12.0452 44.1003 12.0048 44.0604C11.9643 44.02 11.9104 43.9998 11.843 43.9998C11.7756 43.9998 11.7217 44.02 11.6812 44.0604C11.6408 44.1003 11.6115 44.1601 11.5933 44.2398C11.5757 44.3189 11.5669 44.4174 11.5669 44.5352ZM13.2981 44.5352C13.2981 44.6396 13.2902 44.7327 13.2744 44.8148C13.2586 44.8969 13.2337 44.9663 13.1997 45.0232C13.1657 45.08 13.1217 45.1234 13.0678 45.1533C13.0138 45.1826 12.9491 45.1973 12.8735 45.1973C12.7779 45.1973 12.6988 45.1712 12.6361 45.119C12.5739 45.0669 12.5273 44.9915 12.4963 44.8931C12.4658 44.794 12.4506 44.6747 12.4506 44.5352C12.4506 44.3981 12.4643 44.2802 12.4919 44.1818C12.52 44.0827 12.5651 44.0068 12.6273 43.954C12.6894 43.9007 12.7715 43.874 12.8735 43.874C12.9702 43.874 13.0499 43.9004 13.1126 43.9532C13.1753 44.0053 13.2219 44.081 13.2524 44.18C13.2829 44.2785 13.2981 44.3969 13.2981 44.5352ZM12.5974 44.5352C12.5974 44.6548 12.6065 44.7544 12.6246 44.8342C12.6428 44.9139 12.6721 44.9737 12.7126 45.0135C12.7536 45.0528 12.8072 45.0724 12.8735 45.0724C12.9397 45.0724 12.993 45.0528 13.0335 45.0135C13.0745 44.9742 13.1041 44.9147 13.1223 44.835C13.141 44.7553 13.1504 44.6554 13.1504 44.5352C13.1504 44.4174 13.1413 44.3189 13.1232 44.2398C13.105 44.1601 13.0757 44.1003 13.0352 44.0604C12.9948 44.02 12.9409 43.9998 12.8735 43.9998C12.8061 43.9998 12.7521 44.02 12.7117 44.0604C12.6712 44.1003 12.6419 44.1601 12.6238 44.2398C12.6062 44.3189 12.5974 44.4174 12.5974 44.5352ZM14.3286 44.5352C14.3286 44.6396 14.3207 44.7327 14.3048 44.8148C14.289 44.8969 14.2641 44.9663 14.2301 45.0232C14.1961 45.08 14.1521 45.1234 14.0982 45.1533C14.0443 45.1826 13.9795 45.1973 13.9039 45.1973C13.8084 45.1973 13.7292 45.1712 13.6665 45.119C13.6044 45.0669 13.5578 44.9915 13.5267 44.8931C13.4962 44.794 13.481 44.6747 13.481 44.5352C13.481 44.3981 13.4948 44.2802 13.5223 44.1818C13.5505 44.0827 13.5956 44.0068 13.6577 43.954C13.7199 43.9007 13.8019 43.874 13.9039 43.874C14.0006 43.874 14.0803 43.9004 14.1431 43.9532C14.2058 44.0053 14.2524 44.081 14.2829 44.18C14.3133 44.2785 14.3286 44.3969 14.3286 44.5352ZM13.6278 44.5352C13.6278 44.6548 13.6369 44.7544 13.6551 44.8342C13.6733 44.9139 13.7026 44.9737 13.743 45.0135C13.784 45.0528 13.8377 45.0724 13.9039 45.0724C13.9701 45.0724 14.0235 45.0528 14.0639 45.0135C14.105 44.9742 14.1346 44.9147 14.1527 44.835C14.1715 44.7553 14.1809 44.6554 14.1809 44.5352C14.1809 44.4174 14.1718 44.3189 14.1536 44.2398C14.1354 44.1601 14.1061 44.1003 14.0657 44.0604C14.0252 44.02 13.9713 43.9998 13.9039 43.9998C13.8365 43.9998 13.7826 44.02 13.7421 44.0604C13.7017 44.1003 13.6724 44.1601 13.6542 44.2398C13.6366 44.3189 13.6278 44.4174 13.6278 44.5352Z" fill="#212121"/>
<path d="M11.8243 50.4444C11.9117 50.4444 11.9876 50.4594 12.052 50.4893C12.1165 50.5186 12.1663 50.5614 12.2015 50.6176C12.2373 50.6739 12.2551 50.7422 12.2551 50.8225C12.2551 50.9104 12.2361 50.9863 12.198 51.0502C12.1599 51.1135 12.1051 51.1625 12.0336 51.1971C11.9621 51.2311 11.8765 51.2481 11.7768 51.2481C11.71 51.2481 11.6479 51.2422 11.5904 51.2305C11.533 51.2187 11.4846 51.2012 11.4454 51.1777V51.0388C11.4882 51.0646 11.54 51.0851 11.601 51.1003C11.662 51.1156 11.7212 51.1232 11.7786 51.1232C11.8437 51.1232 11.9005 51.1129 11.9492 51.0924C11.9984 51.0713 12.0365 51.0397 12.0635 50.9975C12.091 50.9547 12.1048 50.9011 12.1048 50.8366C12.1048 50.751 12.0784 50.6851 12.0257 50.6388C11.9735 50.5919 11.8908 50.5684 11.7777 50.5684C11.7414 50.5684 11.7015 50.5713 11.6581 50.5772C11.6148 50.5831 11.579 50.5895 11.5509 50.5965L11.477 50.5482L11.5263 49.945H12.1655V50.0787H11.6511L11.6186 50.4664C11.6409 50.4617 11.6696 50.457 11.7047 50.4524C11.7399 50.4471 11.7798 50.4444 11.8243 50.4444ZM13.2979 50.586C13.2979 50.6903 13.29 50.7835 13.2742 50.8656C13.2583 50.9477 13.2334 51.0171 13.1994 51.074C13.1654 51.1308 13.1215 51.1742 13.0675 51.2041C13.0136 51.2334 12.9488 51.2481 12.8732 51.2481C12.7777 51.2481 12.6986 51.222 12.6358 51.1698C12.5737 51.1176 12.5271 51.0423 12.496 50.9438C12.4656 50.8448 12.4503 50.7255 12.4503 50.586C12.4503 50.4488 12.4641 50.331 12.4917 50.2325C12.5198 50.1335 12.5649 50.0576 12.6271 50.0048C12.6892 49.9515 12.7712 49.9248 12.8732 49.9248C12.97 49.9248 13.0497 49.9512 13.1124 50.004C13.1751 50.0561 13.2217 50.1317 13.2522 50.2308C13.2827 50.3293 13.2979 50.4477 13.2979 50.586ZM12.5972 50.586C12.5972 50.7056 12.6062 50.8052 12.6244 50.8849C12.6426 50.9646 12.6719 51.0244 12.7123 51.0643C12.7534 51.1036 12.807 51.1232 12.8732 51.1232C12.9395 51.1232 12.9928 51.1036 13.0333 51.0643C13.0743 51.025 13.1039 50.9655 13.1221 50.8858C13.1408 50.8061 13.1502 50.7062 13.1502 50.586C13.1502 50.4682 13.1411 50.3697 13.1229 50.2906C13.1048 50.2109 13.0755 50.1511 13.035 50.1112C12.9946 50.0708 12.9406 50.0505 12.8732 50.0505C12.8058 50.0505 12.7519 50.0708 12.7115 50.1112C12.671 50.1511 12.6417 50.2109 12.6235 50.2906C12.606 50.3697 12.5972 50.4682 12.5972 50.586ZM14.3284 50.586C14.3284 50.6903 14.3204 50.7835 14.3046 50.8656C14.2888 50.9477 14.2639 51.0171 14.2299 51.074C14.1959 51.1308 14.1519 51.1742 14.098 51.2041C14.0441 51.2334 13.9793 51.2481 13.9037 51.2481C13.8081 51.2481 13.729 51.222 13.6663 51.1698C13.6042 51.1176 13.5576 51.0423 13.5265 50.9438C13.496 50.8448 13.4808 50.7255 13.4808 50.586C13.4808 50.4488 13.4946 50.331 13.5221 50.2325C13.5502 50.1335 13.5954 50.0576 13.6575 50.0048C13.7196 49.9515 13.8017 49.9248 13.9037 49.9248C14.0004 49.9248 14.0801 49.9512 14.1428 50.004C14.2056 50.0561 14.2522 50.1317 14.2826 50.2308C14.3131 50.3293 14.3284 50.4477 14.3284 50.586ZM13.6276 50.586C13.6276 50.7056 13.6367 50.8052 13.6549 50.8849C13.673 50.9646 13.7023 51.0244 13.7428 51.0643C13.7838 51.1036 13.8375 51.1232 13.9037 51.1232C13.9699 51.1232 14.0233 51.1036 14.0637 51.0643C14.1047 51.025 14.1343 50.9655 14.1525 50.8858C14.1713 50.8061 14.1806 50.7062 14.1806 50.586C14.1806 50.4682 14.1716 50.3697 14.1534 50.2906C14.1352 50.2109 14.1059 50.1511 14.0655 50.1112C14.025 50.0708 13.9711 50.0505 13.9037 50.0505C13.8363 50.0505 13.7824 50.0708 13.7419 50.1112C13.7015 50.1511 13.6722 50.2109 13.654 50.2906C13.6364 50.3697 13.6276 50.4682 13.6276 50.586Z" fill="#212121"/>
<path d="M11.9615 57.2812H11.819V56.3704C11.819 56.3358 11.819 56.3062 11.819 56.2816C11.8196 56.2564 11.8202 56.2335 11.8208 56.213C11.822 56.1919 11.8234 56.1705 11.8252 56.1488C11.807 56.1676 11.79 56.1837 11.7742 56.1972C11.7584 56.2101 11.7387 56.2262 11.7153 56.2455L11.5685 56.3633L11.492 56.264L11.8401 55.9958H11.9615V57.2812ZM13.2979 56.6368C13.2979 56.7411 13.29 56.8343 13.2742 56.9164C13.2583 56.9984 13.2334 57.0679 13.1994 57.1247C13.1654 57.1816 13.1215 57.225 13.0675 57.2549C13.0136 57.2842 12.9488 57.2988 12.8732 57.2988C12.7777 57.2988 12.6986 57.2728 12.6358 57.2206C12.5737 57.1684 12.5271 57.0931 12.496 56.9946C12.4656 56.8956 12.4503 56.7763 12.4503 56.6368C12.4503 56.4996 12.4641 56.3818 12.4917 56.2833C12.5198 56.1843 12.5649 56.1084 12.6271 56.0556C12.6892 56.0023 12.7712 55.9756 12.8732 55.9756C12.97 55.9756 13.0497 56.002 13.1124 56.0547C13.1751 56.1069 13.2217 56.1825 13.2522 56.2816C13.2827 56.38 13.2979 56.4984 13.2979 56.6368ZM12.5972 56.6368C12.5972 56.7564 12.6062 56.856 12.6244 56.9357C12.6426 57.0154 12.6719 57.0752 12.7123 57.1151C12.7534 57.1543 12.807 57.174 12.8732 57.174C12.9395 57.174 12.9928 57.1543 13.0333 57.1151C13.0743 57.0758 13.1039 57.0163 13.1221 56.9366C13.1408 56.8569 13.1502 56.7569 13.1502 56.6368C13.1502 56.519 13.1411 56.4205 13.1229 56.3414C13.1048 56.2616 13.0755 56.2019 13.035 56.162C12.9946 56.1216 12.9406 56.1013 12.8732 56.1013C12.8058 56.1013 12.7519 56.1216 12.7115 56.162C12.671 56.2019 12.6417 56.2616 12.6235 56.3414C12.606 56.4205 12.5972 56.519 12.5972 56.6368ZM14.3284 56.6368C14.3284 56.7411 14.3204 56.8343 14.3046 56.9164C14.2888 56.9984 14.2639 57.0679 14.2299 57.1247C14.1959 57.1816 14.1519 57.225 14.098 57.2549C14.0441 57.2842 13.9793 57.2988 13.9037 57.2988C13.8081 57.2988 13.729 57.2728 13.6663 57.2206C13.6042 57.1684 13.5576 57.0931 13.5265 56.9946C13.496 56.8956 13.4808 56.7763 13.4808 56.6368C13.4808 56.4996 13.4946 56.3818 13.5221 56.2833C13.5502 56.1843 13.5954 56.1084 13.6575 56.0556C13.7196 56.0023 13.8017 55.9756 13.9037 55.9756C14.0004 55.9756 14.0801 56.002 14.1428 56.0547C14.2056 56.1069 14.2522 56.1825 14.2826 56.2816C14.3131 56.38 14.3284 56.4984 14.3284 56.6368ZM13.6276 56.6368C13.6276 56.7564 13.6367 56.856 13.6549 56.9357C13.673 57.0154 13.7023 57.0752 13.7428 57.1151C13.7838 57.1543 13.8375 57.174 13.9037 57.174C13.9699 57.174 14.0233 57.1543 14.0637 57.1151C14.1047 57.0758 14.1343 57.0163 14.1525 56.9366C14.1713 56.8569 14.1806 56.7569 14.1806 56.6368C14.1806 56.519 14.1716 56.4205 14.1534 56.3414C14.1352 56.2616 14.1059 56.2019 14.0655 56.162C14.025 56.1216 13.9711 56.1013 13.9037 56.1013C13.8363 56.1013 13.7824 56.1216 13.7419 56.162C13.7015 56.2019 13.6722 56.2616 13.654 56.3414C13.6364 56.4205 13.6276 56.519 13.6276 56.6368Z" fill="#212121"/>
<path d="M14.3284 62.6876C14.3284 62.7919 14.3204 62.8851 14.3046 62.9672C14.2888 63.0492 14.2639 63.1187 14.2299 63.1755C14.1959 63.2324 14.1519 63.2758 14.098 63.3057C14.0441 63.335 13.9793 63.3496 13.9037 63.3496C13.8081 63.3496 13.729 63.3235 13.6663 63.2714C13.6042 63.2192 13.5576 63.1439 13.5265 63.0454C13.496 62.9463 13.4808 62.8271 13.4808 62.6876C13.4808 62.5504 13.4946 62.4326 13.5221 62.3341C13.5502 62.2351 13.5954 62.1591 13.6575 62.1064C13.7196 62.0531 13.8017 62.0264 13.9037 62.0264C14.0004 62.0264 14.0801 62.0528 14.1428 62.1055C14.2056 62.1577 14.2522 62.2333 14.2826 62.3324C14.3131 62.4308 14.3284 62.5492 14.3284 62.6876ZM13.6276 62.6876C13.6276 62.8071 13.6367 62.9068 13.6549 62.9865C13.673 63.0662 13.7023 63.126 13.7428 63.1659C13.7838 63.2051 13.8375 63.2248 13.9037 63.2248C13.9699 63.2248 14.0233 63.2051 14.0637 63.1659C14.1047 63.1266 14.1343 63.0671 14.1525 62.9874C14.1713 62.9077 14.1806 62.8077 14.1806 62.6876C14.1806 62.5697 14.1716 62.4713 14.1534 62.3921C14.1352 62.3124 14.1059 62.2526 14.0655 62.2128C14.025 62.1723 13.9711 62.1521 13.9037 62.1521C13.8363 62.1521 13.7824 62.1723 13.7419 62.2128C13.7015 62.2526 13.6722 62.3124 13.654 62.3921C13.6364 62.4713 13.6276 62.5697 13.6276 62.6876Z" fill="#212121"/>
<path d="M32.006 73.5352H31.8636V72.6243C31.8636 72.5897 31.8636 72.5601 31.8636 72.5355C31.8642 72.5103 31.8647 72.4874 31.8653 72.4669C31.8665 72.4458 31.868 72.4244 31.8697 72.4027C31.8516 72.4215 31.8346 72.4376 31.8187 72.4511C31.8029 72.464 31.7833 72.4801 31.7598 72.4994L31.613 72.6172L31.5365 72.5179L31.8847 72.2497H32.006V73.5352Z" fill="#212121"/>
<path d="M23.5327 72.8907C23.5327 72.995 23.5248 73.0882 23.5089 73.1703C23.4931 73.2523 23.4682 73.3218 23.4342 73.3787C23.4002 73.4355 23.3563 73.4789 23.3023 73.5088C23.2484 73.5381 23.1836 73.5527 23.108 73.5527C23.0125 73.5527 22.9333 73.5267 22.8706 73.4745C22.8085 73.4223 22.7619 73.347 22.7308 73.2485C22.7003 73.1495 22.6851 73.0302 22.6851 72.8907C22.6851 72.7535 22.6989 72.6357 22.7264 72.5372C22.7546 72.4382 22.7997 72.3623 22.8618 72.3095C22.924 72.2562 23.006 72.2295 23.108 72.2295C23.2047 72.2295 23.2844 72.2559 23.3472 72.3086C23.4099 72.3608 23.4565 72.4364 23.487 72.5355C23.5174 72.634 23.5327 72.7524 23.5327 72.8907ZM22.8319 72.8907C22.8319 73.0103 22.841 73.1099 22.8592 73.1896C22.8774 73.2693 22.9067 73.3291 22.9471 73.369C22.9881 73.4083 23.0418 73.4279 23.108 73.4279C23.1743 73.4279 23.2276 73.4083 23.268 73.369C23.3091 73.3297 23.3387 73.2702 23.3568 73.1905C23.3756 73.1108 23.385 73.0108 23.385 72.8907C23.385 72.7729 23.3759 72.6744 23.3577 72.5953C23.3395 72.5155 23.3102 72.4558 23.2698 72.4159C23.2293 72.3755 23.1754 72.3552 23.108 72.3552C23.0406 72.3552 22.9867 72.3755 22.9462 72.4159C22.9058 72.4558 22.8765 72.5155 22.8583 72.5953C22.8407 72.6744 22.8319 72.7729 22.8319 72.8907Z" fill="#212121"/>
<path d="M41.0813 73.5352H40.239V73.4129L40.5828 73.0639C40.6467 72.9994 40.7003 72.942 40.7437 72.8916C40.7877 72.8412 40.8211 72.7916 40.8439 72.743C40.8668 72.6937 40.8782 72.6398 40.8782 72.5812C40.8782 72.5085 40.8565 72.4531 40.8131 72.415C40.7704 72.3763 40.7138 72.357 40.6435 72.357C40.5819 72.357 40.5274 72.3675 40.4799 72.3886C40.4324 72.4097 40.3838 72.4396 40.334 72.4783L40.2557 72.3799C40.2897 72.3511 40.3266 72.3256 40.3665 72.3034C40.4069 72.2811 40.45 72.2635 40.4957 72.2506C40.5421 72.2377 40.5913 72.2313 40.6435 72.2313C40.7226 72.2313 40.7909 72.245 40.8483 72.2726C40.9058 72.3001 40.95 72.3394 40.9811 72.3904C41.0127 72.4414 41.0286 72.5021 41.0286 72.5724C41.0286 72.6404 41.0151 72.7037 40.9881 72.7623C40.9612 72.8203 40.9233 72.8781 40.8747 72.9355C40.826 72.9924 40.7692 73.0528 40.7041 73.1166L40.4245 73.3954V73.4015H41.0813V73.5352Z" fill="#212121"/>
<path d="M49.8131 72.5495C49.8131 72.607 49.802 72.6568 49.7797 72.699C49.7574 72.7412 49.7264 72.7758 49.6865 72.8028C49.6467 72.8291 49.5998 72.8476 49.5458 72.8582V72.8652C49.6478 72.8781 49.7243 72.9109 49.7753 72.9637C49.8269 73.0164 49.8527 73.0856 49.8527 73.1712C49.8527 73.2456 49.8351 73.3115 49.7999 73.369C49.7654 73.4264 49.712 73.4716 49.6399 73.5044C49.5684 73.5366 49.4767 73.5527 49.3647 73.5527C49.2967 73.5527 49.2337 73.5472 49.1757 73.536C49.1183 73.5255 49.0632 73.5076 49.0104 73.4824V73.3452C49.0637 73.3716 49.1218 73.3924 49.1845 73.4077C49.2472 73.4223 49.3079 73.4296 49.3665 73.4296C49.4837 73.4296 49.5684 73.4065 49.6206 73.3602C49.6727 73.3133 49.6988 73.2494 49.6988 73.1685C49.6988 73.1128 49.6842 73.068 49.6549 73.034C49.6261 72.9994 49.5845 72.9742 49.53 72.9584C49.4761 72.942 49.411 72.9338 49.3348 72.9338H49.2065V72.8089H49.3357C49.4055 72.8089 49.4647 72.7987 49.5133 72.7781C49.562 72.7576 49.5989 72.7289 49.6241 72.692C49.6499 72.6545 49.6628 72.6102 49.6628 72.5592C49.6628 72.4942 49.6411 72.444 49.5977 72.4089C49.5543 72.3731 49.4954 72.3552 49.421 72.3552C49.3753 72.3552 49.3337 72.3599 49.2961 72.3693C49.2586 72.3787 49.2235 72.3916 49.1906 72.408C49.1578 72.4244 49.125 72.4435 49.0922 72.4651L49.0183 72.3649C49.0652 72.3286 49.1224 72.2972 49.1898 72.2708C49.2572 72.2445 49.3337 72.2313 49.4192 72.2313C49.5505 72.2313 49.649 72.2612 49.7147 72.3209C49.7803 72.3807 49.8131 72.4569 49.8131 72.5495Z" fill="#212121"/>
<path d="M58.7021 73.2371H58.5096V73.5352H58.3672V73.2371H57.7455V73.114L58.3575 72.2427H58.5096V73.1052H58.7021V73.2371ZM58.3672 73.1052V72.6849C58.3672 72.6527 58.3674 72.6237 58.368 72.5979C58.3686 72.5715 58.3695 72.5472 58.3707 72.5249C58.3718 72.5021 58.3727 72.4804 58.3733 72.4599C58.3745 72.4393 58.3754 72.4191 58.3759 72.3992H58.3689C58.3578 72.4226 58.3449 72.4476 58.3302 72.4739C58.3162 72.4997 58.3018 72.5229 58.2871 72.5434L57.8906 73.1052H58.3672Z" fill="#212121"/>
<path d="M66.9802 72.7491C67.0675 72.7491 67.1434 72.7641 67.2079 72.794C67.2724 72.8233 67.3222 72.8661 67.3574 72.9223C67.3931 72.9786 67.411 73.0469 67.411 73.1272C67.411 73.2151 67.3919 73.291 67.3538 73.3549C67.3157 73.4182 67.2609 73.4672 67.1894 73.5017C67.1179 73.5357 67.0323 73.5527 66.9327 73.5527C66.8659 73.5527 66.8037 73.5469 66.7463 73.5352C66.6889 73.5234 66.6405 73.5058 66.6012 73.4824V73.3435C66.644 73.3693 66.6959 73.3898 66.7569 73.405C66.8178 73.4203 66.877 73.4279 66.9345 73.4279C66.9995 73.4279 67.0564 73.4176 67.105 73.3971C67.1543 73.376 67.1924 73.3444 67.2193 73.3022C67.2469 73.2594 67.2607 73.2057 67.2607 73.1413C67.2607 73.0557 67.2343 72.9897 67.1815 72.9434C67.1294 72.8965 67.0467 72.8731 66.9336 72.8731C66.8972 72.8731 66.8574 72.876 66.814 72.8819C66.7706 72.8878 66.7349 72.8942 66.7067 72.9012L66.6329 72.8529L66.6821 72.2497H67.3213V72.3834H66.807L66.7744 72.7711C66.7967 72.7664 66.8254 72.7617 66.8606 72.757C66.8958 72.7518 66.9356 72.7491 66.9802 72.7491Z" fill="#212121"/>
<path d="M75.1399 72.9856C75.1399 72.9083 75.1452 72.8327 75.1557 72.7588C75.1669 72.6849 75.1853 72.6164 75.2111 72.5531C75.2369 72.4892 75.2721 72.4332 75.3166 72.3851C75.3612 72.3371 75.4166 72.2996 75.4828 72.2726C75.5496 72.245 75.6296 72.2313 75.7228 72.2313C75.7492 72.2313 75.7776 72.2327 75.8081 72.2357C75.8386 72.238 75.8638 72.2421 75.8837 72.248V72.3737C75.862 72.3661 75.8371 72.3605 75.809 72.357C75.7814 72.3535 75.7536 72.3517 75.7255 72.3517C75.6164 72.3517 75.5306 72.3755 75.4678 72.4229C75.4057 72.4704 75.3609 72.5349 75.3333 72.6164C75.3058 72.6973 75.29 72.7884 75.2858 72.8898H75.2955C75.3137 72.8605 75.3368 72.8341 75.365 72.8107C75.3931 72.7866 75.4271 72.7676 75.467 72.7535C75.5074 72.7395 75.5543 72.7324 75.6076 72.7324C75.6827 72.7324 75.748 72.7477 75.8037 72.7781C75.86 72.8086 75.9034 72.8529 75.9338 72.9109C75.9649 72.9689 75.9804 73.0393 75.9804 73.1219C75.9804 73.2104 75.964 73.2869 75.9312 73.3514C75.8984 73.4159 75.8515 73.4657 75.7905 73.5009C75.7302 73.5354 75.6581 73.5527 75.5742 73.5527C75.5115 73.5527 75.4538 73.5407 75.401 73.5167C75.3483 73.4927 75.3023 73.4569 75.263 73.4094C75.2243 73.3619 75.1941 73.303 75.1724 73.2327C75.1507 73.1618 75.1399 73.0794 75.1399 72.9856ZM75.5725 73.4296C75.6522 73.4296 75.7161 73.4042 75.7641 73.3532C75.8122 73.3022 75.8362 73.2251 75.8362 73.1219C75.8362 73.0375 75.8148 72.9707 75.7721 72.9215C75.7293 72.8722 75.6648 72.8476 75.5786 72.8476C75.52 72.8476 75.469 72.8599 75.4256 72.8845C75.3823 72.9086 75.3486 72.939 75.3245 72.976C75.3005 73.0129 75.2885 73.0504 75.2885 73.0885C75.2885 73.1272 75.2941 73.1665 75.3052 73.2063C75.3169 73.2462 75.3345 73.2831 75.3579 73.3171C75.3814 73.3511 75.411 73.3784 75.4467 73.3989C75.4825 73.4194 75.5244 73.4296 75.5725 73.4296Z" fill="#212121"/>
<rect x="19.7087" y="30.3132" width="4.72671" height="3.37622" rx="1.68811" fill="white"/>
<rect x="19.7087" y="30.3132" width="4.72671" height="3.37622" rx="1.68811" stroke="#ECF1FF" stroke-width="0.225081"/>
<path d="M20.7044 32.5H20.562V31.5891C20.562 31.5545 20.562 31.5249 20.562 31.5003C20.5626 31.4751 20.5632 31.4523 20.5638 31.4317C20.5649 31.4106 20.5664 31.3892 20.5681 31.3676C20.55 31.3863 20.533 31.4024 20.5172 31.4159C20.5013 31.4288 20.4817 31.4449 20.4582 31.4643L20.3114 31.5821L20.2349 31.4827L20.5831 31.2146H20.7044V32.5ZM21.2346 32.4086C21.2346 32.3675 21.2446 32.3385 21.2645 32.3215C21.2844 32.3039 21.3087 32.2951 21.3375 32.2951C21.3674 32.2951 21.3926 32.3039 21.4131 32.3215C21.4336 32.3385 21.4439 32.3675 21.4439 32.4086C21.4439 32.449 21.4336 32.4786 21.4131 32.4974C21.3926 32.5155 21.3674 32.5246 21.3375 32.5246C21.3087 32.5246 21.2844 32.5155 21.2645 32.4974C21.2446 32.4786 21.2346 32.449 21.2346 32.4086ZM22.5086 31.7623C22.5086 31.8403 22.503 31.9162 22.4919 31.99C22.4813 32.0639 22.4629 32.1328 22.4365 32.1967C22.4107 32.2606 22.3755 32.3165 22.331 32.3646C22.2864 32.4127 22.2305 32.4505 22.1631 32.478C22.0962 32.505 22.0162 32.5185 21.923 32.5185C21.8978 32.5185 21.8691 32.5167 21.8369 32.5132C21.8046 32.5103 21.7783 32.5059 21.7577 32.5V32.3734C21.7794 32.381 21.8049 32.3872 21.8342 32.3919C21.8635 32.396 21.8923 32.398 21.9204 32.398C22.03 32.398 22.1162 32.3746 22.1789 32.3277C22.2416 32.2802 22.2867 32.216 22.3143 32.1351C22.3418 32.0536 22.3574 31.9622 22.3609 31.8608H22.3503C22.3328 31.8889 22.3096 31.915 22.2809 31.9391C22.2527 31.9625 22.2185 31.9816 22.178 31.9962C22.1376 32.0103 22.0904 32.0173 22.0365 32.0173C21.962 32.0173 21.8969 32.0021 21.8413 31.9716C21.7862 31.9411 21.7431 31.8969 21.712 31.8388C21.6815 31.7808 21.6663 31.7107 21.6663 31.6287C21.6663 31.5402 21.683 31.4637 21.7164 31.3992C21.7504 31.3341 21.7979 31.284 21.8588 31.2489C21.9198 31.2137 21.9916 31.1961 22.0743 31.1961C22.1376 31.1961 22.1956 31.2081 22.2483 31.2322C22.3011 31.2562 22.3468 31.2922 22.3855 31.3403C22.4248 31.3878 22.455 31.4467 22.4761 31.517C22.4978 31.5874 22.5086 31.6691 22.5086 31.7623ZM22.0743 31.3201C21.9963 31.3201 21.933 31.3456 21.8843 31.3966C21.8363 31.4476 21.8123 31.5244 21.8123 31.6269C21.8123 31.7119 21.8331 31.779 21.8747 31.8283C21.9163 31.8775 21.9805 31.9021 22.0672 31.9021C22.127 31.9021 22.1786 31.8901 22.222 31.8661C22.2659 31.842 22.2996 31.8116 22.3231 31.7746C22.3471 31.7377 22.3591 31.6999 22.3591 31.6612C22.3591 31.6225 22.3533 31.5833 22.3415 31.5434C22.3304 31.5035 22.3131 31.4669 22.2897 31.4335C22.2662 31.3995 22.2366 31.3722 22.2009 31.3517C22.1651 31.3306 22.1229 31.3201 22.0743 31.3201ZM22.9051 31.1319V31.8423C22.9051 31.8658 22.9042 31.8945 22.9025 31.9285C22.9007 31.9619 22.8993 31.9915 22.8981 32.0173H22.9042C22.9166 32.0021 22.9344 31.9795 22.9579 31.9496C22.9819 31.9197 23.0021 31.8957 23.0185 31.8775L23.3386 31.5364H23.51L23.1223 31.9478L23.5382 32.5H23.3623L23.0221 32.0437L22.9051 32.1509V32.5H22.7601V31.1319H22.9051Z" fill="#212121"/>
<rect x="28.4871" y="41.1179" width="4.72671" height="3.37622" rx="1.68811" fill="white"/>
<rect x="28.4871" y="41.1179" width="4.72671" height="3.37622" rx="1.68811" stroke="#ECF1FF" stroke-width="0.225081"/>
<path d="M29.7834 42.567C29.7834 42.645 29.7779 42.7209 29.7667 42.7947C29.7562 42.8686 29.7377 42.9375 29.7113 43.0014C29.6856 43.0652 29.6504 43.1212 29.6058 43.1693C29.5613 43.2174 29.5053 43.2552 29.4379 43.2827C29.3711 43.3097 29.2911 43.3232 29.1979 43.3232C29.1727 43.3232 29.144 43.3214 29.1117 43.3179C29.0795 43.3149 29.0531 43.3105 29.0326 43.3047V43.1781C29.0543 43.1857 29.0798 43.1919 29.1091 43.1965C29.1384 43.2006 29.1671 43.2027 29.1952 43.2027C29.3049 43.2027 29.391 43.1793 29.4537 43.1324C29.5165 43.0849 29.5616 43.0207 29.5891 42.9398C29.6167 42.8583 29.6322 42.7669 29.6357 42.6655H29.6252C29.6076 42.6936 29.5844 42.7197 29.5557 42.7437C29.5276 42.7672 29.4933 42.7862 29.4529 42.8009C29.4124 42.815 29.3652 42.822 29.3113 42.822C29.2369 42.822 29.1718 42.8068 29.1161 42.7763C29.061 42.7458 29.0179 42.7015 28.9869 42.6435C28.9564 42.5855 28.9411 42.5154 28.9411 42.4334C28.9411 42.3449 28.9579 42.2684 28.9913 42.2039C29.0253 42.1388 29.0727 42.0887 29.1337 42.0536C29.1947 42.0184 29.2665 42.0008 29.3491 42.0008C29.4124 42.0008 29.4704 42.0128 29.5232 42.0368C29.5759 42.0609 29.6217 42.0969 29.6604 42.145C29.6996 42.1925 29.7298 42.2514 29.7509 42.3217C29.7726 42.3921 29.7834 42.4738 29.7834 42.567ZM29.3491 42.1248C29.2711 42.1248 29.2078 42.1503 29.1592 42.2013C29.1111 42.2523 29.0871 42.329 29.0871 42.4316C29.0871 42.5166 29.1079 42.5837 29.1495 42.633C29.1911 42.6822 29.2553 42.7068 29.3421 42.7068C29.4019 42.7068 29.4534 42.6948 29.4968 42.6708C29.5408 42.6467 29.5745 42.6163 29.5979 42.5793C29.622 42.5424 29.634 42.5046 29.634 42.4659C29.634 42.4272 29.6281 42.3879 29.6164 42.3481C29.6053 42.3082 29.588 42.2716 29.5645 42.2382C29.5411 42.2042 29.5115 42.1769 29.4757 42.1564C29.44 42.1353 29.3978 42.1248 29.3491 42.1248ZM30.8192 42.6602C30.8192 42.7646 30.8113 42.8577 30.7954 42.9398C30.7796 43.0219 30.7547 43.0913 30.7207 43.1482C30.6867 43.205 30.6427 43.2484 30.5888 43.2783C30.5349 43.3076 30.4701 43.3223 30.3945 43.3223C30.299 43.3223 30.2198 43.2962 30.1571 43.244C30.095 43.1919 30.0484 43.1165 30.0173 43.0181C29.9868 42.919 29.9716 42.7997 29.9716 42.6602C29.9716 42.5231 29.9854 42.4052 30.0129 42.3068C30.0411 42.2077 30.0862 42.1318 30.1483 42.079C30.2105 42.0257 30.2925 41.999 30.3945 41.999C30.4912 41.999 30.5709 42.0254 30.6337 42.0782C30.6964 42.1303 30.743 42.206 30.7734 42.305C30.8039 42.4035 30.8192 42.5219 30.8192 42.6602ZM30.1184 42.6602C30.1184 42.7798 30.1275 42.8794 30.1457 42.9592C30.1639 43.0389 30.1932 43.0987 30.2336 43.1385C30.2746 43.1778 30.3283 43.1974 30.3945 43.1974C30.4607 43.1974 30.5141 43.1778 30.5545 43.1385C30.5956 43.0992 30.6252 43.0397 30.6433 42.96C30.6621 42.8803 30.6715 42.7804 30.6715 42.6602C30.6715 42.5424 30.6624 42.4439 30.6442 42.3648C30.626 42.2851 30.5967 42.2253 30.5563 42.1854C30.5158 42.145 30.4619 42.1248 30.3945 42.1248C30.3271 42.1248 30.2732 42.145 30.2327 42.1854C30.1923 42.2253 30.163 42.2851 30.1448 42.3648C30.1272 42.4439 30.1184 42.5424 30.1184 42.6602ZM31.8496 42.6602C31.8496 42.7646 31.8417 42.8577 31.8259 42.9398C31.8101 43.0219 31.7851 43.0913 31.7511 43.1482C31.7171 43.205 31.6732 43.2484 31.6193 43.2783C31.5653 43.3076 31.5006 43.3223 31.425 43.3223C31.3294 43.3223 31.2503 43.2962 31.1876 43.244C31.1254 43.1919 31.0788 43.1165 31.0478 43.0181C31.0173 42.919 31.002 42.7997 31.002 42.6602C31.002 42.5231 31.0158 42.4052 31.0434 42.3068C31.0715 42.2077 31.1166 42.1318 31.1788 42.079C31.2409 42.0257 31.323 41.999 31.425 41.999C31.5217 41.999 31.6014 42.0254 31.6641 42.0782C31.7268 42.1303 31.7734 42.206 31.8039 42.305C31.8344 42.4035 31.8496 42.5219 31.8496 42.6602ZM31.1489 42.6602C31.1489 42.7798 31.158 42.8794 31.1761 42.9592C31.1943 43.0389 31.2236 43.0987 31.2641 43.1385C31.3051 43.1778 31.3587 43.1974 31.425 43.1974C31.4912 43.1974 31.5445 43.1778 31.585 43.1385C31.626 43.0992 31.6556 43.0397 31.6738 42.96C31.6925 42.8803 31.7019 42.7804 31.7019 42.6602C31.7019 42.5424 31.6928 42.4439 31.6747 42.3648C31.6565 42.2851 31.6272 42.2253 31.5867 42.1854C31.5463 42.145 31.4924 42.1248 31.425 42.1248C31.3575 42.1248 31.3036 42.145 31.2632 42.1854C31.2227 42.2253 31.1934 42.2851 31.1753 42.3648C31.1577 42.4439 31.1489 42.5424 31.1489 42.6602Z" fill="#212121"/>
<rect x="37.2644" y="43.3679" width="4.72671" height="3.37622" rx="1.68811" fill="white"/>
<rect x="37.2644" y="43.3679" width="4.72671" height="3.37622" rx="1.68811" stroke="#ECF1FF" stroke-width="0.225081"/>
<path d="M38.1414 44.2508C38.2158 44.2508 38.2818 44.2625 38.3392 44.286C38.3967 44.3094 38.4415 44.344 38.4737 44.3897C38.5066 44.4348 38.523 44.4905 38.523 44.5568C38.523 44.6089 38.5115 44.6547 38.4887 44.6939C38.4664 44.7326 38.4362 44.7666 38.3981 44.7959C38.36 44.8246 38.3178 44.8504 38.2715 44.8733C38.3266 44.8985 38.3761 44.9269 38.4201 44.9586C38.4647 44.9902 38.4998 45.0274 38.5256 45.0702C38.5514 45.113 38.5643 45.1637 38.5643 45.2223C38.5643 45.2944 38.5467 45.3569 38.5115 45.4096C38.477 45.4618 38.4283 45.5019 38.3656 45.5301C38.3029 45.5582 38.2293 45.5723 38.1449 45.5723C38.0541 45.5723 37.9767 45.5588 37.9128 45.5318C37.8495 45.5043 37.8011 45.465 37.7677 45.414C37.7349 45.3624 37.7185 45.3006 37.7185 45.2285C37.7185 45.1693 37.7311 45.118 37.7563 45.0746C37.7815 45.0307 37.8149 44.9929 37.8565 44.9612C37.8981 44.9296 37.9436 44.9029 37.9928 44.8812C37.95 44.8578 37.9107 44.8311 37.875 44.8012C37.8398 44.7713 37.8117 44.7364 37.7906 44.6966C37.7701 44.6561 37.7598 44.6092 37.7598 44.5559C37.7598 44.4908 37.7762 44.4357 37.809 44.3906C37.8425 44.3449 37.8879 44.3103 37.9453 44.2868C38.0034 44.2628 38.0687 44.2508 38.1414 44.2508ZM37.8618 45.2294C37.8618 45.295 37.885 45.3492 37.9313 45.392C37.9776 45.4342 38.0476 45.4553 38.1414 45.4553C38.2305 45.4553 38.2994 45.4342 38.348 45.392C38.3967 45.3492 38.421 45.2933 38.421 45.2241C38.421 45.1813 38.4099 45.1438 38.3876 45.1116C38.3653 45.0787 38.3337 45.0494 38.2926 45.0236C38.2516 44.9978 38.2032 44.9744 38.1476 44.9533L38.1159 44.9419C38.062 44.9641 38.016 44.9891 37.9779 45.0166C37.9403 45.0436 37.9116 45.0743 37.8917 45.1089C37.8718 45.1435 37.8618 45.1837 37.8618 45.2294ZM38.1396 44.3704C38.0705 44.3704 38.0139 44.3871 37.9699 44.4205C37.926 44.4533 37.904 44.5008 37.904 44.5629C37.904 44.6075 37.9146 44.6453 37.9357 44.6763C37.9573 44.7068 37.9867 44.7332 38.0236 44.7555C38.0605 44.7772 38.1018 44.7974 38.1476 44.8161C38.1921 44.7974 38.2317 44.7769 38.2662 44.7546C38.3008 44.7317 38.3281 44.7048 38.348 44.6737C38.3679 44.6426 38.3779 44.6054 38.3779 44.562C38.3779 44.4999 38.3559 44.4524 38.312 44.4196C38.2686 44.3868 38.2111 44.3704 38.1396 44.3704ZM39.5965 44.9102C39.5965 45.0146 39.5886 45.1077 39.5728 45.1898C39.5569 45.2719 39.532 45.3413 39.498 45.3982C39.464 45.455 39.4201 45.4984 39.3662 45.5283C39.3122 45.5576 39.2475 45.5723 39.1718 45.5723C39.0763 45.5723 38.9972 45.5462 38.9345 45.494C38.8723 45.4419 38.8257 45.3665 38.7947 45.2681C38.7642 45.169 38.7489 45.0497 38.7489 44.9102C38.7489 44.7731 38.7627 44.6552 38.7903 44.5568C38.8184 44.4577 38.8635 44.3818 38.9257 44.329C38.9878 44.2757 39.0699 44.249 39.1718 44.249C39.2686 44.249 39.3483 44.2754 39.411 44.3282C39.4737 44.3803 39.5203 44.456 39.5508 44.555C39.5813 44.6535 39.5965 44.7719 39.5965 44.9102ZM38.8958 44.9102C38.8958 45.0298 38.9049 45.1294 38.923 45.2092C38.9412 45.2889 38.9705 45.3487 39.0109 45.3885C39.052 45.4278 39.1056 45.4474 39.1718 45.4474C39.2381 45.4474 39.2914 45.4278 39.3319 45.3885C39.3729 45.3492 39.4025 45.2897 39.4207 45.21C39.4394 45.1303 39.4488 45.0304 39.4488 44.9102C39.4488 44.7924 39.4397 44.6939 39.4215 44.6148C39.4034 44.5351 39.3741 44.4753 39.3336 44.4354C39.2932 44.395 39.2393 44.3748 39.1718 44.3748C39.1044 44.3748 39.0505 44.395 39.0101 44.4354C38.9696 44.4753 38.9403 44.5351 38.9221 44.6148C38.9046 44.6939 38.8958 44.7924 38.8958 44.9102ZM40.627 44.9102C40.627 45.0146 40.6191 45.1077 40.6032 45.1898C40.5874 45.2719 40.5625 45.3413 40.5285 45.3982C40.4945 45.455 40.4505 45.4984 40.3966 45.5283C40.3427 45.5576 40.2779 45.5723 40.2023 45.5723C40.1068 45.5723 40.0276 45.5462 39.9649 45.494C39.9028 45.4419 39.8562 45.3665 39.8251 45.2681C39.7946 45.169 39.7794 45.0497 39.7794 44.9102C39.7794 44.7731 39.7932 44.6552 39.8207 44.5568C39.8488 44.4577 39.894 44.3818 39.9561 44.329C40.0182 44.2757 40.1003 44.249 40.2023 44.249C40.299 44.249 40.3787 44.2754 40.4414 44.3282C40.5042 44.3803 40.5508 44.456 40.5812 44.555C40.6117 44.6535 40.627 44.7719 40.627 44.9102ZM39.9262 44.9102C39.9262 45.0298 39.9353 45.1294 39.9535 45.2092C39.9716 45.2889 40.001 45.3487 40.0414 45.3885C40.0824 45.4278 40.1361 45.4474 40.2023 45.4474C40.2685 45.4474 40.3219 45.4278 40.3623 45.3885C40.4033 45.3492 40.4329 45.2897 40.4511 45.21C40.4699 45.1303 40.4793 45.0304 40.4793 44.9102C40.4793 44.7924 40.4702 44.6939 40.452 44.6148C40.4338 44.5351 40.4045 44.4753 40.3641 44.4354C40.3236 44.395 40.2697 44.3748 40.2023 44.3748C40.1349 44.3748 40.081 44.395 40.0405 44.4354C40.0001 44.4753 39.9708 44.5351 39.9526 44.6148C39.935 44.6939 39.9262 44.7924 39.9262 44.9102Z" fill="#212121"/>
<rect x="46.0437" y="30.7625" width="4.72671" height="3.37622" rx="1.68811" fill="white"/>
<rect x="46.0437" y="30.7625" width="4.72671" height="3.37622" rx="1.68811" stroke="#ECF1FF" stroke-width="0.225081"/>
<path d="M47.0394 32.9492H46.897V32.0383C46.897 32.0038 46.897 31.9742 46.897 31.9495C46.8975 31.9243 46.8981 31.9015 46.8987 31.881C46.8999 31.8599 46.9014 31.8385 46.9031 31.8168C46.8849 31.8355 46.8679 31.8517 46.8521 31.8651C46.8363 31.878 46.8167 31.8941 46.7932 31.9135L46.6464 32.0313L46.5699 31.932L46.9181 31.6638H47.0394V32.9492ZM47.5696 32.8578C47.5696 32.8167 47.5795 32.7877 47.5995 32.7707C47.6194 32.7532 47.6437 32.7444 47.6724 32.7444C47.7023 32.7444 47.7275 32.7532 47.748 32.7707C47.7686 32.7877 47.7788 32.8167 47.7788 32.8578C47.7788 32.8982 47.7686 32.9278 47.748 32.9466C47.7275 32.9648 47.7023 32.9738 47.6724 32.9738C47.6437 32.9738 47.6194 32.9648 47.5995 32.9466C47.5795 32.9278 47.5696 32.8982 47.5696 32.8578ZM48.0127 32.3997C48.0127 32.3223 48.018 32.2467 48.0285 32.1729C48.0397 32.099 48.0581 32.0304 48.0839 31.9671C48.1097 31.9032 48.1449 31.8473 48.1894 31.7992C48.234 31.7511 48.2894 31.7136 48.3556 31.6867C48.4224 31.6591 48.5024 31.6453 48.5956 31.6453C48.622 31.6453 48.6504 31.6468 48.6809 31.6497C48.7114 31.6521 48.7366 31.6562 48.7565 31.662V31.7878C48.7348 31.7801 48.7099 31.7746 48.6818 31.7711C48.6542 31.7675 48.6264 31.7658 48.5983 31.7658C48.4892 31.7658 48.4034 31.7895 48.3406 31.837C48.2785 31.8845 48.2337 31.949 48.2061 32.0304C48.1786 32.1113 48.1627 32.2025 48.1586 32.3039H48.1683C48.1865 32.2746 48.2096 32.2482 48.2378 32.2247C48.2659 32.2007 48.2999 32.1817 48.3398 32.1676C48.3802 32.1535 48.4271 32.1465 48.4804 32.1465C48.5555 32.1465 48.6208 32.1617 48.6765 32.1922C48.7328 32.2227 48.7761 32.2669 48.8066 32.325C48.8377 32.383 48.8532 32.4533 48.8532 32.536C48.8532 32.6245 48.8368 32.701 48.804 32.7655C48.7712 32.8299 48.7243 32.8798 48.6633 32.9149C48.6029 32.9495 48.5308 32.9668 48.447 32.9668C48.3843 32.9668 48.3266 32.9548 48.2738 32.9308C48.2211 32.9067 48.1751 32.871 48.1358 32.8235C48.0971 32.776 48.0669 32.7171 48.0452 32.6468C48.0235 32.5758 48.0127 32.4935 48.0127 32.3997ZM48.4453 32.8437C48.525 32.8437 48.5889 32.8182 48.6369 32.7672C48.685 32.7162 48.709 32.6391 48.709 32.536C48.709 32.4516 48.6876 32.3848 48.6449 32.3355C48.6021 32.2863 48.5376 32.2617 48.4514 32.2617C48.3928 32.2617 48.3418 32.274 48.2984 32.2986C48.2551 32.3226 48.2214 32.3531 48.1973 32.39C48.1733 32.427 48.1613 32.4645 48.1613 32.5026C48.1613 32.5413 48.1668 32.5805 48.178 32.6204C48.1897 32.6602 48.2073 32.6972 48.2307 32.7312C48.2542 32.7652 48.2838 32.7924 48.3195 32.8129C48.3553 32.8335 48.3972 32.8437 48.4453 32.8437ZM49.2401 31.5811V32.2916C49.2401 32.315 49.2392 32.3437 49.2374 32.3777C49.2357 32.4111 49.2342 32.4407 49.2331 32.4665H49.2392C49.2515 32.4513 49.2694 32.4287 49.2928 32.3988C49.3169 32.3689 49.3371 32.3449 49.3535 32.3267L49.6735 31.9856H49.845L49.4573 32.3971L49.8731 32.9492H49.6973L49.357 32.4929L49.2401 32.6002V32.9492H49.095V31.5811H49.2401Z" fill="#212121"/>
<rect x="54.8201" y="36.8445" width="4.72671" height="3.37622" rx="1.68811" fill="white"/>
<rect x="54.8201" y="36.8445" width="4.72671" height="3.37622" rx="1.68811" stroke="#ECF1FF" stroke-width="0.225081"/>
<path d="M55.8158 39.0312H55.6733V38.1204C55.6733 38.0858 55.6733 38.0562 55.6733 38.0316C55.6739 38.0064 55.6745 37.9835 55.6751 37.963C55.6763 37.9419 55.6777 37.9205 55.6795 37.8988C55.6613 37.9176 55.6443 37.9337 55.6285 37.9472C55.6127 37.9601 55.593 37.9762 55.5696 37.9955L55.4227 38.1133L55.3463 38.014L55.6944 37.7458H55.8158V39.0312ZM56.3459 38.9398C56.3459 38.8988 56.3559 38.8698 56.3758 38.8528C56.3958 38.8352 56.4201 38.8264 56.4488 38.8264C56.4787 38.8264 56.5039 38.8352 56.5244 38.8528C56.5449 38.8698 56.5552 38.8988 56.5552 38.9398C56.5552 38.9803 56.5449 39.0099 56.5244 39.0286C56.5039 39.0468 56.4787 39.0559 56.4488 39.0559C56.4201 39.0559 56.3958 39.0468 56.3758 39.0286C56.3559 39.0099 56.3459 38.9803 56.3459 38.9398ZM57.6823 38.7332H57.4898V39.0312H57.3474V38.7332H56.7258V38.6101L57.3377 37.7388H57.4898V38.6013H57.6823V38.7332ZM57.3474 38.6013V38.181C57.3474 38.1488 57.3477 38.1198 57.3482 38.094C57.3488 38.0676 57.3497 38.0433 57.3509 38.021C57.3521 37.9982 57.3529 37.9765 57.3535 37.956C57.3547 37.9354 57.3556 37.9152 57.3562 37.8953H57.3491C57.338 37.9187 57.3251 37.9436 57.3104 37.97C57.2964 37.9958 57.282 38.019 57.2674 38.0395L56.8708 38.6013H57.3474ZM58.0165 37.6632V38.3736C58.0165 38.397 58.0156 38.4258 58.0138 38.4598C58.0121 38.4932 58.0106 38.5228 58.0094 38.5486H58.0156C58.0279 38.5333 58.0458 38.5107 58.0692 38.4809C58.0932 38.451 58.1135 38.4269 58.1299 38.4088L58.4499 38.0676H58.6214L58.2336 38.4791L58.6495 39.0312H58.4737L58.1334 38.5749L58.0165 38.6822V39.0312H57.8714V37.6632H58.0165Z" fill="#212121"/>
<rect x="63.5994" y="22.8875" width="4.72671" height="3.37622" rx="1.68811" fill="white"/>
<rect x="63.5994" y="22.8875" width="4.72671" height="3.37622" rx="1.68811" stroke="#ECF1FF" stroke-width="0.225081"/>
<path d="M64.894 25.0742H64.0517V24.952L64.3955 24.603C64.4594 24.5385 64.513 24.481 64.5564 24.4306C64.6003 24.3802 64.6337 24.3307 64.6566 24.282C64.6795 24.2328 64.6909 24.1789 64.6909 24.1203C64.6909 24.0476 64.6692 23.9922 64.6258 23.9541C64.583 23.9154 64.5265 23.8961 64.4561 23.8961C64.3946 23.8961 64.3401 23.9066 64.2926 23.9277C64.2451 23.9488 64.1965 23.9787 64.1466 24.0174L64.0684 23.9189C64.1024 23.8902 64.1393 23.8647 64.1792 23.8424C64.2196 23.8202 64.2627 23.8026 64.3084 23.7897C64.3547 23.7768 64.404 23.7703 64.4561 23.7703C64.5353 23.7703 64.6036 23.7841 64.661 23.8117C64.7184 23.8392 64.7627 23.8785 64.7938 23.9295C64.8254 23.9805 64.8412 24.0411 64.8412 24.1115C64.8412 24.1795 64.8278 24.2428 64.8008 24.3014C64.7738 24.3594 64.736 24.4171 64.6874 24.4746C64.6387 24.5314 64.5819 24.5918 64.5168 24.6557L64.2372 24.9344V24.9406H64.894V25.0742ZM65.1252 24.9828C65.1252 24.9417 65.1352 24.9127 65.1551 24.8957C65.175 24.8782 65.1994 24.8694 65.2281 24.8694C65.258 24.8694 65.2832 24.8782 65.3037 24.8957C65.3242 24.9127 65.3345 24.9417 65.3345 24.9828C65.3345 25.0232 65.3242 25.0528 65.3037 25.0716C65.2832 25.0898 65.258 25.0988 65.2281 25.0988C65.1994 25.0988 65.175 25.0898 65.1551 25.0716C65.1352 25.0528 65.1252 25.0232 65.1252 24.9828ZM66.3975 25.0742H65.5552V24.952L65.8989 24.603C65.9628 24.5385 66.0165 24.481 66.0598 24.4306C66.1038 24.3802 66.1372 24.3307 66.1601 24.282C66.1829 24.2328 66.1944 24.1789 66.1944 24.1203C66.1944 24.0476 66.1727 23.9922 66.1293 23.9541C66.0865 23.9154 66.0299 23.8961 65.9596 23.8961C65.8981 23.8961 65.8436 23.9066 65.7961 23.9277C65.7486 23.9488 65.6999 23.9787 65.6501 24.0174L65.5719 23.9189C65.6059 23.8902 65.6428 23.8647 65.6827 23.8424C65.7231 23.8202 65.7662 23.8026 65.8119 23.7897C65.8582 23.7768 65.9074 23.7703 65.9596 23.7703C66.0387 23.7703 66.107 23.7841 66.1645 23.8117C66.2219 23.8392 66.2662 23.8785 66.2972 23.9295C66.3289 23.9805 66.3447 24.0411 66.3447 24.1115C66.3447 24.1795 66.3312 24.2428 66.3043 24.3014C66.2773 24.3594 66.2395 24.4171 66.1908 24.4746C66.1422 24.5314 66.0853 24.5918 66.0203 24.6557L65.7407 24.9344V24.9406H66.3975V25.0742ZM66.7958 23.7061V24.4166C66.7958 24.44 66.7949 24.4687 66.7931 24.5027C66.7914 24.5361 66.7899 24.5657 66.7887 24.5915H66.7949C66.8072 24.5763 66.8251 24.5537 66.8485 24.5238C66.8725 24.4939 66.8928 24.4699 66.9092 24.4517L67.2292 24.1106H67.4007L67.0129 24.5221L67.4288 25.0742H67.2529L66.9127 24.6179L66.7958 24.7252V25.0742H66.6507V23.7061H66.7958Z" fill="#212121"/>
</svg>
