<svg width="92" height="92" viewBox="0 0 92 92" fill="none" xmlns="http://www.w3.org/2000/svg">
<rect x="0.389831" y="0.389831" width="91.079" height="91.2203" rx="17.5424" stroke="#BEBEBE" stroke-width="0.779661"/>
<rect width="70" height="60.7317" transform="translate(11 16)" fill="white"/>
<path d="M20.7559 21.8516V68.9247" stroke="#E0E0E0" stroke-width="0.243902"/>
<path d="M28.6827 68.9247C28.6827 68.9921 28.7373 69.0467 28.8047 69.0467C28.872 69.0467 28.9266 68.9921 28.9266 68.9247H28.6827ZM28.8047 21.8516H28.6827V68.9247H28.8047H28.9266V21.8516H28.8047Z" fill="#E0E0E0"/>
<path d="M36.7306 68.9247C36.7306 68.9921 36.7852 69.0467 36.8525 69.0467C36.9199 69.0467 36.9745 68.9921 36.9745 68.9247H36.7306ZM36.8525 21.8516H36.7306V68.9247H36.8525H36.9745V21.8516H36.8525Z" fill="#E0E0E0"/>
<path d="M44.7804 68.9247C44.7804 68.9921 44.835 69.0467 44.9023 69.0467C44.9697 69.0467 45.0243 68.9921 45.0243 68.9247H44.7804ZM44.9023 21.8516H44.7804V68.9247H44.9023H45.0243V21.8516H44.9023Z" fill="#E0E0E0"/>
<path d="M52.8292 68.9247C52.8292 68.9921 52.8838 69.0467 52.9512 69.0467C53.0185 69.0467 53.0731 68.9921 53.0731 68.9247H52.8292ZM52.9512 21.8516H52.8292V68.9247H52.9512H53.0731V21.8516H52.9512Z" fill="#E0E0E0"/>
<path d="M60.878 68.9247C60.878 68.9921 60.9326 69.0467 61 69.0467C61.0674 69.0467 61.122 68.9921 61.122 68.9247H60.878ZM61 21.8516H60.878V68.9247H61H61.122V21.8516H61Z" fill="#E0E0E0"/>
<path d="M68.9269 68.9247C68.9269 68.9921 68.9815 69.0467 69.0488 69.0467C69.1162 69.0467 69.1708 68.9921 69.1708 68.9247H68.9269ZM69.0488 21.8516H68.9269V68.9247H69.0488H69.1708V21.8516H69.0488Z" fill="#E0E0E0"/>
<path d="M76.9757 68.9247C76.9757 68.9921 77.0303 69.0467 77.0977 69.0467C77.165 69.0467 77.2196 68.9921 77.2196 68.9247H76.9757ZM77.0977 21.8516H76.9757V68.9247H77.0977H77.2196V21.8516H77.0977Z" fill="#E0E0E0"/>
<path d="M14.8599 23.8516H13.9471V23.7191L14.3197 23.3409C14.3889 23.271 14.447 23.2088 14.494 23.1542C14.5417 23.0995 14.5779 23.0459 14.6026 22.9931C14.6274 22.9398 14.6398 22.8814 14.6398 22.8178C14.6398 22.7391 14.6163 22.6791 14.5693 22.6378C14.5229 22.5958 14.4616 22.5749 14.3854 22.5749C14.3187 22.5749 14.2596 22.5863 14.2082 22.6092C14.1568 22.6321 14.104 22.6644 14.05 22.7064L13.9652 22.5997C14.0021 22.5685 14.0421 22.5409 14.0853 22.5168C14.1291 22.4926 14.1758 22.4736 14.2253 22.4596C14.2755 22.4456 14.3289 22.4386 14.3854 22.4386C14.4712 22.4386 14.5452 22.4536 14.6074 22.4834C14.6696 22.5133 14.7176 22.5558 14.7513 22.6111C14.7856 22.6663 14.8027 22.7321 14.8027 22.8083C14.8027 22.882 14.7881 22.9506 14.7589 23.0141C14.7297 23.077 14.6887 23.1395 14.636 23.2018C14.5833 23.2634 14.5217 23.3288 14.4511 23.3981L14.1482 23.7001V23.7067H14.8599V23.8516ZM15.5039 22.9998C15.5986 22.9998 15.6808 23.016 15.7507 23.0484C15.8206 23.0802 15.8745 23.1265 15.9127 23.1875C15.9514 23.2485 15.9708 23.3225 15.9708 23.4095C15.9708 23.5048 15.9501 23.587 15.9088 23.6562C15.8676 23.7248 15.8082 23.7779 15.7307 23.8154C15.6532 23.8522 15.5605 23.8706 15.4525 23.8706C15.3801 23.8706 15.3127 23.8643 15.2505 23.8516C15.1883 23.8389 15.1359 23.8198 15.0933 23.7944V23.6439C15.1397 23.6718 15.1959 23.694 15.2619 23.7106C15.328 23.7271 15.3921 23.7353 15.4544 23.7353C15.5249 23.7353 15.5865 23.7242 15.6392 23.702C15.6926 23.6791 15.7339 23.6448 15.7631 23.5991C15.7929 23.5527 15.8079 23.4946 15.8079 23.4247C15.8079 23.332 15.7793 23.2605 15.7221 23.2104C15.6656 23.1596 15.576 23.1341 15.4534 23.1341C15.4141 23.1341 15.3709 23.1373 15.3239 23.1437C15.2769 23.15 15.2381 23.157 15.2076 23.1646L15.1276 23.1122L15.1809 22.4587H15.8736V22.6035H15.3162L15.281 23.0236C15.3051 23.0185 15.3362 23.0135 15.3744 23.0084C15.4125 23.0027 15.4557 22.9998 15.5039 22.9998ZM17.1007 23.1532C17.1007 23.2663 17.0922 23.3673 17.075 23.4562C17.0579 23.5451 17.0309 23.6204 16.994 23.682C16.9572 23.7436 16.9095 23.7906 16.8511 23.823C16.7927 23.8547 16.7225 23.8706 16.6406 23.8706C16.537 23.8706 16.4513 23.8424 16.3833 23.7858C16.316 23.7293 16.2655 23.6477 16.2318 23.541C16.1988 23.4336 16.1823 23.3044 16.1823 23.1532C16.1823 23.0046 16.1972 22.8769 16.2271 22.7702C16.2576 22.6629 16.3065 22.5806 16.3738 22.5234C16.4411 22.4656 16.53 22.4367 16.6406 22.4367C16.7454 22.4367 16.8317 22.4653 16.8997 22.5225C16.9677 22.579 17.0182 22.661 17.0512 22.7683C17.0842 22.875 17.1007 23.0033 17.1007 23.1532ZM16.3414 23.1532C16.3414 23.2828 16.3512 23.3908 16.3709 23.4771C16.3906 23.5635 16.4224 23.6283 16.4662 23.6715C16.5107 23.714 16.5688 23.7353 16.6406 23.7353C16.7123 23.7353 16.7701 23.714 16.814 23.6715C16.8584 23.6289 16.8905 23.5645 16.9102 23.4781C16.9305 23.3917 16.9407 23.2834 16.9407 23.1532C16.9407 23.0255 16.9308 22.9188 16.9111 22.8331C16.8914 22.7467 16.8597 22.6819 16.8159 22.6387C16.772 22.5949 16.7136 22.573 16.6406 22.573C16.5675 22.573 16.5091 22.5949 16.4652 22.6387C16.4214 22.6819 16.3897 22.7467 16.37 22.8331C16.3509 22.9188 16.3414 23.0255 16.3414 23.1532ZM18.2173 23.1532C18.2173 23.2663 18.2088 23.3673 18.1916 23.4562C18.1745 23.5451 18.1475 23.6204 18.1106 23.682C18.0738 23.7436 18.0262 23.7906 17.9677 23.823C17.9093 23.8547 17.8391 23.8706 17.7572 23.8706C17.6536 23.8706 17.5679 23.8424 17.4999 23.7858C17.4326 23.7293 17.3821 23.6477 17.3484 23.541C17.3154 23.4336 17.2989 23.3044 17.2989 23.1532C17.2989 23.0046 17.3138 22.8769 17.3437 22.7702C17.3742 22.6629 17.4231 22.5806 17.4904 22.5234C17.5577 22.4656 17.6467 22.4367 17.7572 22.4367C17.862 22.4367 17.9484 22.4653 18.0163 22.5225C18.0843 22.579 18.1348 22.661 18.1678 22.7683C18.2008 22.875 18.2173 23.0033 18.2173 23.1532ZM17.458 23.1532C17.458 23.2828 17.4679 23.3908 17.4875 23.4771C17.5072 23.5635 17.539 23.6283 17.5828 23.6715C17.6273 23.714 17.6854 23.7353 17.7572 23.7353C17.8289 23.7353 17.8867 23.714 17.9306 23.6715C17.975 23.6289 18.0071 23.5645 18.0268 23.4781C18.0471 23.3917 18.0573 23.2834 18.0573 23.1532C18.0573 23.0255 18.0474 22.9188 18.0277 22.8331C18.0081 22.7467 17.9763 22.6819 17.9325 22.6387C17.8886 22.5949 17.8302 22.573 17.7572 22.573C17.6841 22.573 17.6257 22.5949 17.5819 22.6387C17.538 22.6819 17.5063 22.7467 17.4866 22.8331C17.4675 22.9188 17.458 23.0255 17.458 23.1532Z" fill="#212121"/>
<path d="M14.8599 31.2422H13.9471V31.1098L14.3197 30.7315C14.3889 30.6616 14.447 30.5994 14.494 30.5448C14.5417 30.4902 14.5779 30.4365 14.6026 30.3838C14.6274 30.3304 14.6398 30.272 14.6398 30.2085C14.6398 30.1297 14.6163 30.0697 14.5693 30.0284C14.5229 29.9865 14.4616 29.9655 14.3854 29.9655C14.3187 29.9655 14.2596 29.9769 14.2082 29.9998C14.1568 30.0227 14.104 30.0551 14.05 30.097L13.9652 29.9903C14.0021 29.9592 14.0421 29.9315 14.0853 29.9074C14.1291 29.8833 14.1758 29.8642 14.2253 29.8502C14.2755 29.8363 14.3289 29.8293 14.3854 29.8293C14.4712 29.8293 14.5452 29.8442 14.6074 29.874C14.6696 29.9039 14.7176 29.9465 14.7513 30.0017C14.7856 30.057 14.8027 30.1227 14.8027 30.1989C14.8027 30.2726 14.7881 30.3412 14.7589 30.4047C14.7297 30.4676 14.6887 30.5302 14.636 30.5924C14.5833 30.654 14.5217 30.7194 14.4511 30.7887L14.1482 31.0907V31.0974H14.8599V31.2422ZM15.9841 30.5438C15.9841 30.6569 15.9755 30.7579 15.9584 30.8468C15.9412 30.9357 15.9142 31.011 15.8774 31.0726C15.8406 31.1342 15.7929 31.1812 15.7345 31.2136C15.6761 31.2454 15.6059 31.2612 15.5239 31.2612C15.4204 31.2612 15.3347 31.233 15.2667 31.1764C15.1994 31.1199 15.1489 31.0383 15.1152 30.9316C15.0822 30.8243 15.0657 30.695 15.0657 30.5438C15.0657 30.3952 15.0806 30.2675 15.1104 30.1608C15.1409 30.0535 15.1898 29.9712 15.2572 29.9141C15.3245 29.8563 15.4134 29.8274 15.5239 29.8274C15.6287 29.8274 15.7151 29.8559 15.7831 29.9131C15.851 29.9696 15.9015 30.0516 15.9346 30.1589C15.9676 30.2656 15.9841 30.3939 15.9841 30.5438ZM15.2248 30.5438C15.2248 30.6734 15.2346 30.7814 15.2543 30.8678C15.274 30.9541 15.3058 31.0189 15.3496 31.0621C15.394 31.1047 15.4522 31.126 15.5239 31.126C15.5957 31.126 15.6535 31.1047 15.6973 31.0621C15.7418 31.0196 15.7739 30.9551 15.7936 30.8687C15.8139 30.7823 15.8241 30.674 15.8241 30.5438C15.8241 30.4162 15.8142 30.3095 15.7945 30.2237C15.7748 30.1373 15.7431 30.0725 15.6992 30.0293C15.6554 29.9855 15.597 29.9636 15.5239 29.9636C15.4509 29.9636 15.3925 29.9855 15.3486 30.0293C15.3048 30.0725 15.273 30.1373 15.2534 30.2237C15.2343 30.3095 15.2248 30.4162 15.2248 30.5438ZM17.1007 30.5438C17.1007 30.6569 17.0922 30.7579 17.075 30.8468C17.0579 30.9357 17.0309 31.011 16.994 31.0726C16.9572 31.1342 16.9095 31.1812 16.8511 31.2136C16.7927 31.2454 16.7225 31.2612 16.6406 31.2612C16.537 31.2612 16.4513 31.233 16.3833 31.1764C16.316 31.1199 16.2655 31.0383 16.2318 30.9316C16.1988 30.8243 16.1823 30.695 16.1823 30.5438C16.1823 30.3952 16.1972 30.2675 16.2271 30.1608C16.2576 30.0535 16.3065 29.9712 16.3738 29.9141C16.4411 29.8563 16.53 29.8274 16.6406 29.8274C16.7454 29.8274 16.8317 29.8559 16.8997 29.9131C16.9677 29.9696 17.0182 30.0516 17.0512 30.1589C17.0842 30.2656 17.1007 30.3939 17.1007 30.5438ZM16.3414 30.5438C16.3414 30.6734 16.3512 30.7814 16.3709 30.8678C16.3906 30.9541 16.4224 31.0189 16.4662 31.0621C16.5107 31.1047 16.5688 31.126 16.6406 31.126C16.7123 31.126 16.7701 31.1047 16.814 31.0621C16.8584 31.0196 16.8905 30.9551 16.9102 30.8687C16.9305 30.7823 16.9407 30.674 16.9407 30.5438C16.9407 30.4162 16.9308 30.3095 16.9111 30.2237C16.8914 30.1373 16.8597 30.0725 16.8159 30.0293C16.772 29.9855 16.7136 29.9636 16.6406 29.9636C16.5675 29.9636 16.5091 29.9855 16.4652 30.0293C16.4214 30.0725 16.3897 30.1373 16.37 30.2237C16.3509 30.3095 16.3414 30.4162 16.3414 30.5438ZM18.2173 30.5438C18.2173 30.6569 18.2088 30.7579 18.1916 30.8468C18.1745 30.9357 18.1475 31.011 18.1106 31.0726C18.0738 31.1342 18.0262 31.1812 17.9677 31.2136C17.9093 31.2454 17.8391 31.2612 17.7572 31.2612C17.6536 31.2612 17.5679 31.233 17.4999 31.1764C17.4326 31.1199 17.3821 31.0383 17.3484 30.9316C17.3154 30.8243 17.2989 30.695 17.2989 30.5438C17.2989 30.3952 17.3138 30.2675 17.3437 30.1608C17.3742 30.0535 17.4231 29.9712 17.4904 29.9141C17.5577 29.8563 17.6467 29.8274 17.7572 29.8274C17.862 29.8274 17.9484 29.8559 18.0163 29.9131C18.0843 29.9696 18.1348 30.0516 18.1678 30.1589C18.2008 30.2656 18.2173 30.3939 18.2173 30.5438ZM17.458 30.5438C17.458 30.6734 17.4679 30.7814 17.4875 30.8678C17.5072 30.9541 17.539 31.0189 17.5828 31.0621C17.6273 31.1047 17.6854 31.126 17.7572 31.126C17.8289 31.126 17.8867 31.1047 17.9306 31.0621C17.975 31.0196 18.0071 30.9551 18.0268 30.8687C18.0471 30.7823 18.0573 30.674 18.0573 30.5438C18.0573 30.4162 18.0474 30.3095 18.0277 30.2237C18.0081 30.1373 17.9763 30.0725 17.9325 30.0293C17.8886 29.9855 17.8302 29.9636 17.7572 29.9636C17.6841 29.9636 17.6257 29.9855 17.5819 30.0293C17.538 30.0725 17.5063 30.1373 17.4866 30.2237C17.4675 30.3095 17.458 30.4162 17.458 30.5438Z" fill="#212121"/>
<path d="M14.5359 38.6328H14.3816V37.6458C14.3816 37.6083 14.3816 37.5762 14.3816 37.5495C14.3822 37.5222 14.3829 37.4975 14.3835 37.4752C14.3848 37.4524 14.3864 37.4292 14.3883 37.4057C14.3686 37.426 14.3502 37.4435 14.333 37.4581C14.3159 37.4721 14.2946 37.4895 14.2692 37.5105L14.1101 37.6381L14.0272 37.5305L14.4045 37.2399H14.5359V38.6328ZM15.5039 37.7811C15.5986 37.7811 15.6808 37.7973 15.7507 37.8296C15.8206 37.8614 15.8745 37.9078 15.9127 37.9687C15.9514 38.0297 15.9708 38.1037 15.9708 38.1907C15.9708 38.286 15.9501 38.3683 15.9088 38.4375C15.8676 38.5061 15.8082 38.5591 15.7307 38.5966C15.6532 38.6334 15.5605 38.6519 15.4525 38.6519C15.3801 38.6519 15.3127 38.6455 15.2505 38.6328C15.1883 38.6201 15.1359 38.6011 15.0933 38.5756V38.4251C15.1397 38.4531 15.1959 38.4753 15.2619 38.4918C15.328 38.5083 15.3921 38.5166 15.4544 38.5166C15.5249 38.5166 15.5865 38.5055 15.6392 38.4832C15.6926 38.4604 15.7339 38.4261 15.7631 38.3803C15.7929 38.334 15.8079 38.2759 15.8079 38.206C15.8079 38.1132 15.7793 38.0418 15.7221 37.9916C15.6656 37.9408 15.576 37.9154 15.4534 37.9154C15.4141 37.9154 15.3709 37.9186 15.3239 37.9249C15.2769 37.9313 15.2381 37.9383 15.2076 37.9459L15.1276 37.8935L15.1809 37.2399H15.8736V37.3847H15.3162L15.281 37.8049C15.3051 37.7998 15.3362 37.7947 15.3744 37.7896C15.4125 37.7839 15.4557 37.7811 15.5039 37.7811ZM17.1007 37.9345C17.1007 38.0475 17.0922 38.1485 17.075 38.2374C17.0579 38.3263 17.0309 38.4016 16.994 38.4632C16.9572 38.5248 16.9095 38.5718 16.8511 38.6042C16.7927 38.636 16.7225 38.6519 16.6406 38.6519C16.537 38.6519 16.4513 38.6236 16.3833 38.5671C16.316 38.5105 16.2655 38.4289 16.2318 38.3222C16.1988 38.2149 16.1823 38.0856 16.1823 37.9345C16.1823 37.7858 16.1972 37.6582 16.2271 37.5514C16.2576 37.4441 16.3065 37.3619 16.3738 37.3047C16.4411 37.2469 16.53 37.218 16.6406 37.218C16.7454 37.218 16.8317 37.2466 16.8997 37.3037C16.9677 37.3603 17.0182 37.4422 17.0512 37.5495C17.0842 37.6562 17.1007 37.7846 17.1007 37.9345ZM16.3414 37.9345C16.3414 38.064 16.3512 38.172 16.3709 38.2584C16.3906 38.3448 16.4224 38.4096 16.4662 38.4527C16.5107 38.4953 16.5688 38.5166 16.6406 38.5166C16.7123 38.5166 16.7701 38.4953 16.814 38.4527C16.8584 38.4102 16.8905 38.3457 16.9102 38.2593C16.9305 38.173 16.9407 38.0647 16.9407 37.9345C16.9407 37.8068 16.9308 37.7001 16.9111 37.6143C16.8914 37.5279 16.8597 37.4632 16.8159 37.42C16.772 37.3761 16.7136 37.3542 16.6406 37.3542C16.5675 37.3542 16.5091 37.3761 16.4652 37.42C16.4214 37.4632 16.3897 37.5279 16.37 37.6143C16.3509 37.7001 16.3414 37.8068 16.3414 37.9345ZM18.2173 37.9345C18.2173 38.0475 18.2088 38.1485 18.1916 38.2374C18.1745 38.3263 18.1475 38.4016 18.1106 38.4632C18.0738 38.5248 18.0262 38.5718 17.9677 38.6042C17.9093 38.636 17.8391 38.6519 17.7572 38.6519C17.6536 38.6519 17.5679 38.6236 17.4999 38.5671C17.4326 38.5105 17.3821 38.4289 17.3484 38.3222C17.3154 38.2149 17.2989 38.0856 17.2989 37.9345C17.2989 37.7858 17.3138 37.6582 17.3437 37.5514C17.3742 37.4441 17.4231 37.3619 17.4904 37.3047C17.5577 37.2469 17.6467 37.218 17.7572 37.218C17.862 37.218 17.9484 37.2466 18.0163 37.3037C18.0843 37.3603 18.1348 37.4422 18.1678 37.5495C18.2008 37.6562 18.2173 37.7846 18.2173 37.9345ZM17.458 37.9345C17.458 38.064 17.4679 38.172 17.4875 38.2584C17.5072 38.3448 17.539 38.4096 17.5828 38.4527C17.6273 38.4953 17.6854 38.5166 17.7572 38.5166C17.8289 38.5166 17.8867 38.4953 17.9306 38.4527C17.975 38.4102 18.0071 38.3457 18.0268 38.2593C18.0471 38.173 18.0573 38.0647 18.0573 37.9345C18.0573 37.8068 18.0474 37.7001 18.0277 37.6143C18.0081 37.5279 17.9763 37.4632 17.9325 37.42C17.8886 37.3761 17.8302 37.3542 17.7572 37.3542C17.6841 37.3542 17.6257 37.3761 17.5819 37.42C17.538 37.4632 17.5063 37.5279 17.4866 37.6143C17.4675 37.7001 17.458 37.8068 17.458 37.9345Z" fill="#212121"/>
<path d="M14.5359 46.0234H14.3816V45.0364C14.3816 44.9989 14.3816 44.9668 14.3816 44.9402C14.3822 44.9129 14.3829 44.8881 14.3835 44.8659C14.3848 44.843 14.3864 44.8198 14.3883 44.7963C14.3686 44.8166 14.3502 44.8341 14.333 44.8487C14.3159 44.8627 14.2946 44.8801 14.2692 44.9011L14.1101 45.0288L14.0272 44.9211L14.4045 44.6305H14.5359V46.0234ZM15.9841 45.3251C15.9841 45.4381 15.9755 45.5391 15.9584 45.628C15.9412 45.717 15.9142 45.7922 15.8774 45.8538C15.8406 45.9155 15.7929 45.9625 15.7345 45.9949C15.6761 46.0266 15.6059 46.0425 15.5239 46.0425C15.4204 46.0425 15.3347 46.0142 15.2667 45.9577C15.1994 45.9012 15.1489 45.8196 15.1152 45.7128C15.0822 45.6055 15.0657 45.4762 15.0657 45.3251C15.0657 45.1764 15.0806 45.0488 15.1104 44.9421C15.1409 44.8347 15.1898 44.7525 15.2572 44.6953C15.3245 44.6375 15.4134 44.6086 15.5239 44.6086C15.6287 44.6086 15.7151 44.6372 15.7831 44.6944C15.851 44.7509 15.9015 44.8328 15.9346 44.9402C15.9676 45.0469 15.9841 45.1752 15.9841 45.3251ZM15.2248 45.3251C15.2248 45.4546 15.2346 45.5626 15.2543 45.649C15.274 45.7354 15.3058 45.8002 15.3496 45.8434C15.394 45.8859 15.4522 45.9072 15.5239 45.9072C15.5957 45.9072 15.6535 45.8859 15.6973 45.8434C15.7418 45.8008 15.7739 45.7363 15.7936 45.65C15.8139 45.5636 15.8241 45.4553 15.8241 45.3251C15.8241 45.1974 15.8142 45.0907 15.7945 45.005C15.7748 44.9186 15.7431 44.8538 15.6992 44.8106C15.6554 44.7668 15.597 44.7449 15.5239 44.7449C15.4509 44.7449 15.3925 44.7668 15.3486 44.8106C15.3048 44.8538 15.273 44.9186 15.2534 45.005C15.2343 45.0907 15.2248 45.1974 15.2248 45.3251ZM17.1007 45.3251C17.1007 45.4381 17.0922 45.5391 17.075 45.628C17.0579 45.717 17.0309 45.7922 16.994 45.8538C16.9572 45.9155 16.9095 45.9625 16.8511 45.9949C16.7927 46.0266 16.7225 46.0425 16.6406 46.0425C16.537 46.0425 16.4513 46.0142 16.3833 45.9577C16.316 45.9012 16.2655 45.8196 16.2318 45.7128C16.1988 45.6055 16.1823 45.4762 16.1823 45.3251C16.1823 45.1764 16.1972 45.0488 16.2271 44.9421C16.2576 44.8347 16.3065 44.7525 16.3738 44.6953C16.4411 44.6375 16.53 44.6086 16.6406 44.6086C16.7454 44.6086 16.8317 44.6372 16.8997 44.6944C16.9677 44.7509 17.0182 44.8328 17.0512 44.9402C17.0842 45.0469 17.1007 45.1752 17.1007 45.3251ZM16.3414 45.3251C16.3414 45.4546 16.3512 45.5626 16.3709 45.649C16.3906 45.7354 16.4224 45.8002 16.4662 45.8434C16.5107 45.8859 16.5688 45.9072 16.6406 45.9072C16.7123 45.9072 16.7701 45.8859 16.814 45.8434C16.8584 45.8008 16.8905 45.7363 16.9102 45.65C16.9305 45.5636 16.9407 45.4553 16.9407 45.3251C16.9407 45.1974 16.9308 45.0907 16.9111 45.005C16.8914 44.9186 16.8597 44.8538 16.8159 44.8106C16.772 44.7668 16.7136 44.7449 16.6406 44.7449C16.5675 44.7449 16.5091 44.7668 16.4652 44.8106C16.4214 44.8538 16.3897 44.9186 16.37 45.005C16.3509 45.0907 16.3414 45.1974 16.3414 45.3251ZM18.2173 45.3251C18.2173 45.4381 18.2088 45.5391 18.1916 45.628C18.1745 45.717 18.1475 45.7922 18.1106 45.8538C18.0738 45.9155 18.0262 45.9625 17.9677 45.9949C17.9093 46.0266 17.8391 46.0425 17.7572 46.0425C17.6536 46.0425 17.5679 46.0142 17.4999 45.9577C17.4326 45.9012 17.3821 45.8196 17.3484 45.7128C17.3154 45.6055 17.2989 45.4762 17.2989 45.3251C17.2989 45.1764 17.3138 45.0488 17.3437 44.9421C17.3742 44.8347 17.4231 44.7525 17.4904 44.6953C17.5577 44.6375 17.6467 44.6086 17.7572 44.6086C17.862 44.6086 17.9484 44.6372 18.0163 44.6944C18.0843 44.7509 18.1348 44.8328 18.1678 44.9402C18.2008 45.0469 18.2173 45.1752 18.2173 45.3251ZM17.458 45.3251C17.458 45.4546 17.4679 45.5626 17.4875 45.649C17.5072 45.7354 17.539 45.8002 17.5828 45.8434C17.6273 45.8859 17.6854 45.9072 17.7572 45.9072C17.8289 45.9072 17.8867 45.8859 17.9306 45.8434C17.975 45.8008 18.0071 45.7363 18.0268 45.65C18.0471 45.5636 18.0573 45.4553 18.0573 45.3251C18.0573 45.1974 18.0474 45.0907 18.0277 45.005C18.0081 44.9186 17.9763 44.8538 17.9325 44.8106C17.8886 44.7668 17.8302 44.7449 17.7572 44.7449C17.6841 44.7449 17.6257 44.7668 17.5819 44.8106C17.538 44.8538 17.5063 44.9186 17.4866 45.005C17.4675 45.0907 17.458 45.1974 17.458 45.3251Z" fill="#212121"/>
<path d="M15.5035 52.5623C15.5982 52.5623 15.6804 52.5785 15.7503 52.6109C15.8202 52.6427 15.8741 52.689 15.9123 52.75C15.951 52.811 15.9704 52.885 15.9704 52.972C15.9704 53.0673 15.9497 53.1495 15.9084 53.2187C15.8672 53.2873 15.8078 53.3404 15.7303 53.3779C15.6528 53.4147 15.5601 53.4331 15.4521 53.4331C15.3797 53.4331 15.3123 53.4268 15.2501 53.4141C15.1878 53.4014 15.1354 53.3823 15.0929 53.3569V53.2064C15.1393 53.2343 15.1955 53.2565 15.2615 53.2731C15.3276 53.2896 15.3917 53.2978 15.454 53.2978C15.5245 53.2978 15.5861 53.2867 15.6388 53.2645C15.6922 53.2416 15.7335 53.2073 15.7627 53.1616C15.7925 53.1152 15.8075 53.0571 15.8075 52.9872C15.8075 52.8945 15.7789 52.823 15.7217 52.7729C15.6652 52.7221 15.5756 52.6966 15.453 52.6966C15.4136 52.6966 15.3705 52.6998 15.3235 52.7062C15.2765 52.7125 15.2377 52.7195 15.2072 52.7271L15.1272 52.6747L15.1805 52.0212H15.8732V52.166H15.3158L15.2806 52.5861C15.3047 52.581 15.3358 52.576 15.374 52.5709C15.4121 52.5652 15.4553 52.5623 15.5035 52.5623ZM17.1003 52.7157C17.1003 52.8288 17.0917 52.9298 17.0746 53.0187C17.0575 53.1076 17.0305 53.1829 16.9936 53.2445C16.9568 53.3061 16.9091 53.3531 16.8507 53.3855C16.7923 53.4172 16.7221 53.4331 16.6401 53.4331C16.5366 53.4331 16.4509 53.4049 16.3829 53.3483C16.3156 53.2918 16.2651 53.2102 16.2314 53.1035C16.1984 52.9961 16.1819 52.8669 16.1819 52.7157C16.1819 52.5671 16.1968 52.4394 16.2267 52.3327C16.2571 52.2254 16.3061 52.1431 16.3734 52.0859C16.4407 52.0281 16.5296 51.9992 16.6401 51.9992C16.745 51.9992 16.8313 52.0278 16.8993 52.085C16.9673 52.1415 17.0178 52.2235 17.0508 52.3308C17.0838 52.4375 17.1003 52.5658 17.1003 52.7157ZM16.341 52.7157C16.341 52.8453 16.3508 52.9533 16.3705 53.0396C16.3902 53.126 16.422 53.1908 16.4658 53.234C16.5103 53.2765 16.5684 53.2978 16.6401 53.2978C16.7119 53.2978 16.7697 53.2765 16.8135 53.234C16.858 53.1914 16.8901 53.127 16.9098 53.0406C16.9301 52.9542 16.9403 52.8459 16.9403 52.7157C16.9403 52.588 16.9304 52.4813 16.9107 52.3956C16.891 52.3092 16.8593 52.2444 16.8155 52.2012C16.7716 52.1574 16.7132 52.1355 16.6401 52.1355C16.5671 52.1355 16.5087 52.1574 16.4648 52.2012C16.421 52.2444 16.3893 52.3092 16.3696 52.3956C16.3505 52.4813 16.341 52.588 16.341 52.7157ZM18.2169 52.7157C18.2169 52.8288 18.2084 52.9298 18.1912 53.0187C18.1741 53.1076 18.1471 53.1829 18.1102 53.2445C18.0734 53.3061 18.0258 53.3531 17.9673 53.3855C17.9089 53.4172 17.8387 53.4331 17.7568 53.4331C17.6532 53.4331 17.5675 53.4049 17.4995 53.3483C17.4322 53.2918 17.3817 53.2102 17.348 53.1035C17.315 52.9961 17.2985 52.8669 17.2985 52.7157C17.2985 52.5671 17.3134 52.4394 17.3433 52.3327C17.3738 52.2254 17.4227 52.1431 17.49 52.0859C17.5573 52.0281 17.6462 51.9992 17.7568 51.9992C17.8616 51.9992 17.9479 52.0278 18.0159 52.085C18.0839 52.1415 18.1344 52.2235 18.1674 52.3308C18.2004 52.4375 18.2169 52.5658 18.2169 52.7157ZM17.4576 52.7157C17.4576 52.8453 17.4674 52.9533 17.4871 53.0396C17.5068 53.126 17.5386 53.1908 17.5824 53.234C17.6269 53.2765 17.685 53.2978 17.7568 53.2978C17.8285 53.2978 17.8863 53.2765 17.9302 53.234C17.9746 53.1914 18.0067 53.127 18.0264 53.0406C18.0467 52.9542 18.0569 52.8459 18.0569 52.7157C18.0569 52.588 18.047 52.4813 18.0273 52.3956C18.0077 52.3092 17.9759 52.2444 17.9321 52.2012C17.8882 52.1574 17.8298 52.1355 17.7568 52.1355C17.6837 52.1355 17.6253 52.1574 17.5815 52.2012C17.5376 52.2444 17.5059 52.3092 17.4862 52.3956C17.4671 52.4813 17.4576 52.588 17.4576 52.7157Z" fill="#212121"/>
<path d="M15.6522 60.8047H15.4978V59.8176C15.4978 59.7802 15.4978 59.7481 15.4978 59.7214C15.4984 59.6941 15.4991 59.6693 15.4997 59.6471C15.501 59.6242 15.5026 59.6011 15.5045 59.5776C15.4848 59.5979 15.4664 59.6153 15.4492 59.63C15.4321 59.6439 15.4108 59.6614 15.3854 59.6824L15.2263 59.81L15.1434 59.7024L15.5207 59.4118H15.6522V60.8047ZM17.1003 60.1063C17.1003 60.2194 17.0917 60.3204 17.0746 60.4093C17.0575 60.4982 17.0305 60.5735 16.9936 60.6351C16.9568 60.6967 16.9091 60.7437 16.8507 60.7761C16.7923 60.8079 16.7221 60.8237 16.6401 60.8237C16.5366 60.8237 16.4509 60.7955 16.3829 60.7389C16.3156 60.6824 16.2651 60.6008 16.2314 60.4941C16.1984 60.3868 16.1819 60.2575 16.1819 60.1063C16.1819 59.9577 16.1968 59.83 16.2267 59.7233C16.2571 59.616 16.3061 59.5337 16.3734 59.4766C16.4407 59.4188 16.5296 59.3899 16.6401 59.3899C16.745 59.3899 16.8313 59.4184 16.8993 59.4756C16.9673 59.5321 17.0178 59.6141 17.0508 59.7214C17.0838 59.8281 17.1003 59.9564 17.1003 60.1063ZM16.341 60.1063C16.341 60.2359 16.3508 60.3439 16.3705 60.4303C16.3902 60.5166 16.422 60.5814 16.4658 60.6246C16.5103 60.6672 16.5684 60.6885 16.6401 60.6885C16.7119 60.6885 16.7697 60.6672 16.8135 60.6246C16.858 60.5821 16.8901 60.5176 16.9098 60.4312C16.9301 60.3448 16.9403 60.2365 16.9403 60.1063C16.9403 59.9787 16.9304 59.872 16.9107 59.7862C16.891 59.6998 16.8593 59.635 16.8155 59.5918C16.7716 59.548 16.7132 59.5261 16.6401 59.5261C16.5671 59.5261 16.5087 59.548 16.4648 59.5918C16.421 59.635 16.3893 59.6998 16.3696 59.7862C16.3505 59.872 16.341 59.9787 16.341 60.1063ZM18.2169 60.1063C18.2169 60.2194 18.2084 60.3204 18.1912 60.4093C18.1741 60.4982 18.1471 60.5735 18.1102 60.6351C18.0734 60.6967 18.0258 60.7437 17.9673 60.7761C17.9089 60.8079 17.8387 60.8237 17.7568 60.8237C17.6532 60.8237 17.5675 60.7955 17.4995 60.7389C17.4322 60.6824 17.3817 60.6008 17.348 60.4941C17.315 60.3868 17.2985 60.2575 17.2985 60.1063C17.2985 59.9577 17.3134 59.83 17.3433 59.7233C17.3738 59.616 17.4227 59.5337 17.49 59.4766C17.5573 59.4188 17.6462 59.3899 17.7568 59.3899C17.8616 59.3899 17.9479 59.4184 18.0159 59.4756C18.0839 59.5321 18.1344 59.6141 18.1674 59.7214C18.2004 59.8281 18.2169 59.9564 18.2169 60.1063ZM17.4576 60.1063C17.4576 60.2359 17.4674 60.3439 17.4871 60.4303C17.5068 60.5166 17.5386 60.5814 17.5824 60.6246C17.6269 60.6672 17.685 60.6885 17.7568 60.6885C17.8285 60.6885 17.8863 60.6672 17.9302 60.6246C17.9746 60.5821 18.0067 60.5176 18.0264 60.4312C18.0467 60.3448 18.0569 60.2365 18.0569 60.1063C18.0569 59.9787 18.047 59.872 18.0273 59.7862C18.0077 59.6998 17.9759 59.635 17.9321 59.5918C17.8882 59.548 17.8298 59.5261 17.7568 59.5261C17.6837 59.5261 17.6253 59.548 17.5815 59.5918C17.5376 59.635 17.5059 59.6998 17.4862 59.7862C17.4671 59.872 17.4576 59.9787 17.4576 60.1063Z" fill="#212121"/>
<path d="M18.2169 67.493C18.2169 67.6061 18.2084 67.7071 18.1912 67.796C18.1741 67.8849 18.1471 67.9602 18.1102 68.0218C18.0734 68.0834 18.0258 68.1304 17.9673 68.1628C17.9089 68.1946 17.8387 68.2105 17.7568 68.2105C17.6532 68.2105 17.5675 68.1822 17.4995 68.1257C17.4322 68.0691 17.3817 67.9875 17.348 67.8808C17.315 67.7735 17.2985 67.6442 17.2985 67.493C17.2985 67.3444 17.3134 67.2167 17.3433 67.11C17.3738 67.0027 17.4227 66.9204 17.49 66.8633C17.5573 66.8055 17.6462 66.7766 17.7568 66.7766C17.8616 66.7766 17.9479 66.8052 18.0159 66.8623C18.0839 66.9189 18.1344 67.0008 18.1674 67.1081C18.2004 67.2148 18.2169 67.3431 18.2169 67.493ZM17.4576 67.493C17.4576 67.6226 17.4674 67.7306 17.4871 67.817C17.5068 67.9034 17.5386 67.9681 17.5824 68.0113C17.6269 68.0539 17.685 68.0752 17.7568 68.0752C17.8285 68.0752 17.8863 68.0539 17.9302 68.0113C17.9746 67.9688 18.0067 67.9043 18.0264 67.8179C18.0467 67.7315 18.0569 67.6233 18.0569 67.493C18.0569 67.3654 18.047 67.2587 18.0273 67.1729C18.0077 67.0865 17.9759 67.0218 17.9321 66.9786C17.8882 66.9347 17.8298 66.9128 17.7568 66.9128C17.6837 66.9128 17.6253 66.9347 17.5815 66.9786C17.5376 67.0218 17.5059 67.0865 17.4862 67.1729C17.4671 67.2587 17.4576 67.3654 17.4576 67.493Z" fill="#212121"/>
<path d="M29.6416 71.4141H29.4873V70.427C29.4873 70.3895 29.4873 70.3575 29.4873 70.3308C29.4879 70.3035 29.4886 70.2787 29.4892 70.2565C29.4905 70.2336 29.4921 70.2104 29.494 70.1869C29.4743 70.2073 29.4559 70.2247 29.4387 70.2393C29.4216 70.2533 29.4003 70.2708 29.3749 70.2917L29.2158 70.4194L29.1329 70.3117L29.5102 70.0212H29.6416V71.4141Z" fill="#212121"/>
<path d="M21.9244 70.7157C21.9244 70.8288 21.9158 70.9298 21.8987 71.0187C21.8815 71.1076 21.8545 71.1829 21.8177 71.2445C21.7808 71.3061 21.7332 71.3531 21.6748 71.3855C21.6163 71.4172 21.5461 71.4331 21.4642 71.4331C21.3607 71.4331 21.2749 71.4049 21.207 71.3483C21.1396 71.2918 21.0891 71.2102 21.0555 71.1035C21.0224 70.9961 21.0059 70.8669 21.0059 70.7157C21.0059 70.5671 21.0209 70.4394 21.0507 70.3327C21.0812 70.2254 21.1301 70.1431 21.1974 70.0859C21.2648 70.0281 21.3537 69.9992 21.4642 69.9992C21.569 69.9992 21.6554 70.0278 21.7233 70.085C21.7913 70.1415 21.8418 70.2235 21.8748 70.3308C21.9079 70.4375 21.9244 70.5658 21.9244 70.7157ZM21.165 70.7157C21.165 70.8453 21.1749 70.9533 21.1946 71.0396C21.2143 71.126 21.246 71.1908 21.2898 71.234C21.3343 71.2765 21.3924 71.2978 21.4642 71.2978C21.536 71.2978 21.5938 71.2765 21.6376 71.234C21.6821 71.1914 21.7141 71.127 21.7338 71.0406C21.7542 70.9542 21.7643 70.8459 21.7643 70.7157C21.7643 70.588 21.7545 70.4813 21.7348 70.3956C21.7151 70.3092 21.6833 70.2444 21.6395 70.2012C21.5957 70.1574 21.5372 70.1355 21.4642 70.1355C21.3912 70.1355 21.3327 70.1574 21.2889 70.2012C21.2451 70.2444 21.2133 70.3092 21.1936 70.3956C21.1746 70.4813 21.165 70.588 21.165 70.7157Z" fill="#212121"/>
<path d="M38.0144 71.4141H37.1017V71.2816L37.4742 70.9034C37.5434 70.8335 37.6016 70.7713 37.6486 70.7167C37.6962 70.662 37.7324 70.6084 37.7572 70.5556C37.7819 70.5023 37.7943 70.4439 37.7943 70.3803C37.7943 70.3016 37.7708 70.2416 37.7238 70.2003C37.6775 70.1583 37.6162 70.1374 37.5399 70.1374C37.4733 70.1374 37.4142 70.1488 37.3627 70.1717C37.3113 70.1946 37.2586 70.2269 37.2046 70.2689L37.1198 70.1622C37.1566 70.131 37.1966 70.1034 37.2398 70.0793C37.2837 70.0551 37.3303 70.0361 37.3799 70.0221C37.4301 70.0081 37.4834 70.0011 37.5399 70.0011C37.6257 70.0011 37.6997 70.0161 37.7619 70.0459C37.8242 70.0758 37.8721 70.1183 37.9058 70.1736C37.9401 70.2288 37.9572 70.2946 37.9572 70.3708C37.9572 70.4445 37.9426 70.5131 37.9134 70.5766C37.8842 70.6395 37.8432 70.702 37.7905 70.7643C37.7378 70.8259 37.6762 70.8913 37.6057 70.9606L37.3027 71.2626V71.2692H38.0144V71.4141Z" fill="#212121"/>
<path d="M46.255 70.346C46.255 70.4083 46.2429 70.4623 46.2187 70.508C46.1946 70.5537 46.161 70.5912 46.1178 70.6204C46.0746 70.649 46.0238 70.669 45.9653 70.6804V70.6881C46.0758 70.702 46.1587 70.7376 46.214 70.7948C46.2699 70.8519 46.2978 70.9269 46.2978 71.0196C46.2978 71.1003 46.2788 71.1717 46.2407 71.234C46.2032 71.2962 46.1454 71.3451 46.0673 71.3807C45.9898 71.4157 45.8904 71.4331 45.7691 71.4331C45.6954 71.4331 45.6271 71.4271 45.5642 71.415C45.502 71.4036 45.4423 71.3842 45.3851 71.3569V71.2083C45.4429 71.2369 45.5058 71.2594 45.5737 71.2759C45.6417 71.2918 45.7074 71.2997 45.771 71.2997C45.898 71.2997 45.9898 71.2746 46.0463 71.2245C46.1028 71.1737 46.1311 71.1044 46.1311 71.0168C46.1311 70.9564 46.1152 70.9078 46.0835 70.871C46.0523 70.8335 46.0072 70.8062 45.9482 70.7891C45.8897 70.7713 45.8192 70.7624 45.7367 70.7624H45.5976V70.6271H45.7376C45.8132 70.6271 45.8774 70.616 45.9301 70.5937C45.9828 70.5715 46.0228 70.5404 46.0501 70.5004C46.0781 70.4597 46.092 70.4118 46.092 70.3565C46.092 70.286 46.0685 70.2317 46.0215 70.1936C45.9745 70.1549 45.9107 70.1355 45.83 70.1355C45.7805 70.1355 45.7354 70.1406 45.6947 70.1507C45.6541 70.1609 45.616 70.1749 45.5804 70.1926C45.5448 70.2104 45.5093 70.2311 45.4737 70.2546L45.3937 70.146C45.4445 70.1066 45.5064 70.0726 45.5795 70.044C45.6525 70.0154 45.7354 70.0011 45.8281 70.0011C45.9704 70.0011 46.0771 70.0335 46.1482 70.0983C46.2194 70.1631 46.255 70.2457 46.255 70.346Z" fill="#212121"/>
<path d="M54.4248 71.0911H54.2161V71.4141H54.0618V71.0911H53.3882V70.9577L54.0513 70.0135H54.2161V70.9482H54.4248V71.0911ZM54.0618 70.9482V70.4928C54.0618 70.4578 54.0621 70.4264 54.0627 70.3984C54.0634 70.3699 54.0643 70.3435 54.0656 70.3194C54.0669 70.2946 54.0678 70.2711 54.0685 70.2489C54.0697 70.2266 54.0707 70.2047 54.0713 70.1831H54.0637C54.0516 70.2085 54.0376 70.2355 54.0218 70.2641C54.0065 70.292 53.991 70.3171 53.9751 70.3394L53.5454 70.9482H54.0618Z" fill="#212121"/>
<path d="M61.9315 70.5623C62.0261 70.5623 62.1084 70.5785 62.1783 70.6109C62.2481 70.6427 62.3021 70.689 62.3402 70.75C62.379 70.811 62.3983 70.885 62.3983 70.972C62.3983 71.0673 62.3777 71.1495 62.3364 71.2187C62.2951 71.2873 62.2357 71.3404 62.1583 71.3779C62.0808 71.4147 61.988 71.4331 61.88 71.4331C61.8076 71.4331 61.7403 71.4268 61.6781 71.4141C61.6158 71.4014 61.5634 71.3823 61.5209 71.3569V71.2064C61.5672 71.2343 61.6234 71.2565 61.6895 71.2731C61.7556 71.2896 61.8197 71.2978 61.882 71.2978C61.9525 71.2978 62.0141 71.2867 62.0668 71.2645C62.1201 71.2416 62.1614 71.2073 62.1906 71.1616C62.2205 71.1152 62.2354 71.0571 62.2354 70.9872C62.2354 70.8945 62.2068 70.823 62.1497 70.7729C62.0931 70.7221 62.0036 70.6966 61.881 70.6966C61.8416 70.6966 61.7984 70.6998 61.7514 70.7062C61.7044 70.7125 61.6657 70.7195 61.6352 70.7271L61.5552 70.6747L61.6085 70.0212H62.3012V70.166H61.7438L61.7086 70.5861C61.7327 70.581 61.7638 70.576 61.8019 70.5709C61.84 70.5652 61.8832 70.5623 61.9315 70.5623Z" fill="#212121"/>
<path d="M69.5544 70.8186C69.5544 70.7348 69.5602 70.6528 69.5716 70.5728C69.5837 70.4928 69.6037 70.4184 69.6316 70.3498C69.6596 70.2806 69.6977 70.22 69.746 70.1679C69.7942 70.1158 69.8542 70.0751 69.926 70.0459C69.9984 70.0161 70.0851 70.0011 70.1861 70.0011C70.2147 70.0011 70.2455 70.0027 70.2785 70.0059C70.3116 70.0084 70.3389 70.0129 70.3605 70.0192V70.1555C70.337 70.1472 70.31 70.1412 70.2795 70.1374C70.2496 70.1336 70.2195 70.1317 70.189 70.1317C70.0708 70.1317 69.9778 70.1574 69.9098 70.2088C69.8425 70.2603 69.7939 70.3302 69.7641 70.4184C69.7342 70.5061 69.7171 70.6049 69.7126 70.7147H69.7231C69.7428 70.683 69.7679 70.6544 69.7984 70.629C69.8288 70.603 69.8657 70.5823 69.9089 70.5671C69.9527 70.5518 70.0035 70.5442 70.0613 70.5442C70.1426 70.5442 70.2134 70.5607 70.2738 70.5937C70.3347 70.6268 70.3817 70.6747 70.4148 70.7376C70.4484 70.8005 70.4653 70.8767 70.4653 70.9663C70.4653 71.0622 70.4475 71.1451 70.4119 71.2149C70.3763 71.2848 70.3255 71.3388 70.2595 71.3769C70.1941 71.4144 70.1159 71.4331 70.0251 71.4331C69.9571 71.4331 69.8946 71.4201 69.8374 71.3941C69.7802 71.368 69.7304 71.3293 69.6878 71.2778C69.6459 71.2264 69.6132 71.1625 69.5897 71.0863C69.5662 71.0095 69.5544 70.9202 69.5544 70.8186ZM70.0232 71.2997C70.1096 71.2997 70.1788 71.2721 70.2309 71.2168C70.283 71.1616 70.309 71.0781 70.309 70.9663C70.309 70.8748 70.2858 70.8024 70.2395 70.749C70.1931 70.6957 70.1232 70.669 70.0299 70.669C69.9664 70.669 69.9111 70.6824 69.8641 70.709C69.8171 70.7351 69.7806 70.7681 69.7545 70.8081C69.7285 70.8481 69.7155 70.8888 69.7155 70.9301C69.7155 70.972 69.7215 71.0145 69.7336 71.0577C69.7463 71.1009 69.7653 71.1409 69.7907 71.1778C69.8161 71.2146 69.8482 71.2442 69.887 71.2664C69.9257 71.2886 69.9711 71.2997 70.0232 71.2997Z" fill="#212121"/>
<path d="M77.5259 71.4141L78.0975 70.166H77.3382V70.0212H78.2671V70.1431L77.6993 71.4141H77.5259Z" fill="#212121"/>
<path d="M20.6339 68.9247C20.6339 68.9921 20.6885 69.0467 20.7559 69.0467C20.8232 69.0467 20.8778 68.9921 20.8778 68.9247H20.6339ZM20.7559 21.8516H20.6339V68.9247H20.7559H20.8778V21.8516H20.7559Z" fill="#D4D4D4"/>
<path d="M20.7559 68.9258H77.0973" stroke="#D4D4D4" stroke-width="0.243902"/>
<path d="M21.0003 66.2408C21.4044 66.2408 21.732 65.9132 21.732 65.5091C21.732 65.1049 21.4044 64.7773 21.0003 64.7773C20.5962 64.7773 20.2686 65.1049 20.2686 65.5091C20.2686 65.9132 20.5962 66.2408 21.0003 66.2408Z" fill="#B49600"/>
<path d="M23.1034 59.2287C21.4363 59.4836 21.7888 59.6894 20.7559 60.1962V68.9092H77.0973V49.5077C77.0973 49.5077 75.5444 52.8271 74.3272 52.6866C72.4428 52.4691 73.2623 50.8106 71.3693 50.9359C69.9617 51.029 69.726 55.4243 67.7071 55.3126C65.1567 55.1716 66.1584 52.9865 63.6223 52.6866C61.8413 52.476 61.8943 49.2769 60.101 49.2312C57.3306 49.1607 56.9408 46.5452 54.5607 46.3287C48.9437 45.818 54.0876 37.6057 48.4571 37.9437C42.9626 38.2736 49.096 51.498 43.6211 50.9359C42.2423 50.7943 41.6609 49.5519 40.2876 49.738C38.5915 49.9678 38.7315 52.193 37.0949 52.6866C34.9555 53.3317 33.8359 50.4708 31.6485 50.9359C29.5532 51.3813 29.6608 54.4775 27.5168 54.4834C24.6295 54.4912 25.9563 58.7925 23.1034 59.2287Z" fill="url(#paint0_linear_7927_93590)"/>
<path d="M20.7559 60.1287C21.7888 59.6235 21.4363 59.4183 23.1034 59.1641C25.9563 58.7293 24.6295 54.441 27.5168 54.4332C29.6608 54.4274 29.5532 51.3406 31.6485 50.8964C33.8359 50.4328 34.9555 53.2851 37.0949 52.6419C38.7315 52.1498 38.5915 49.9313 40.2876 49.7022C41.6609 49.5167 42.2423 50.7553 43.6211 50.8964C49.096 51.4569 42.9626 38.2725 48.4571 37.9437C54.0876 37.6067 48.9437 45.7941 54.5607 46.3033C56.9408 46.5191 57.3306 49.1267 60.101 49.197C61.8943 49.2425 61.8413 52.4319 63.6223 52.6419C66.1584 52.9408 65.1567 55.1194 67.7071 55.26C69.726 55.3712 69.9617 50.9893 71.3693 50.8964C73.2623 50.7715 72.4428 52.425 74.3272 52.6419C75.5444 52.7819 77.0973 49.4726 77.0973 49.4726" stroke="#FFD710" stroke-width="0.487805" stroke-linecap="round"/>
<rect x="49.6105" y="39.9562" width="6.25909" height="3.65854" rx="1.82927" fill="white"/>
<rect x="49.6105" y="39.9562" width="6.25909" height="3.65854" rx="1.82927" stroke="#D6D6D6" stroke-width="0.243902"/>
<path d="M51.7511 41.4858C51.7511 41.5703 51.7451 41.6525 51.733 41.7326C51.7216 41.8126 51.7016 41.8872 51.673 41.9565C51.645 42.0257 51.6069 42.0864 51.5586 42.1384C51.5104 42.1905 51.4497 42.2315 51.3767 42.2613C51.3043 42.2906 51.2176 42.3052 51.1166 42.3052C51.0893 42.3052 51.0581 42.3033 51.0232 42.2994C50.9883 42.2963 50.9597 42.2915 50.9375 42.2852V42.148C50.961 42.1562 50.9886 42.1629 51.0203 42.168C51.0521 42.1724 51.0832 42.1746 51.1137 42.1746C51.2325 42.1746 51.3259 42.1492 51.3938 42.0984C51.4618 42.047 51.5107 41.9774 51.5405 41.8898C51.5704 41.8015 51.5872 41.7024 51.591 41.5925H51.5796C51.5605 41.623 51.5355 41.6513 51.5043 41.6773C51.4738 41.7027 51.4367 41.7234 51.3929 41.7392C51.349 41.7545 51.2979 41.7621 51.2395 41.7621C51.1588 41.7621 51.0883 41.7456 51.028 41.7126C50.9683 41.6795 50.9216 41.6316 50.8879 41.5687C50.8549 41.5058 50.8384 41.4299 50.8384 41.341C50.8384 41.2451 50.8565 41.1622 50.8927 41.0923C50.9295 41.0218 50.981 40.9675 51.047 40.9294C51.1131 40.8913 51.1909 40.8722 51.2804 40.8722C51.349 40.8722 51.4119 40.8853 51.4691 40.9113C51.5262 40.9373 51.5758 40.9764 51.6177 41.0285C51.6603 41.0799 51.693 41.1438 51.7158 41.22C51.7393 41.2962 51.7511 41.3848 51.7511 41.4858ZM51.2804 41.0066C51.196 41.0066 51.1274 41.0342 51.0746 41.0895C51.0226 41.1447 50.9965 41.2279 50.9965 41.3391C50.9965 41.4312 51.0191 41.5039 51.0642 41.5573C51.1093 41.6106 51.1788 41.6373 51.2728 41.6373C51.3376 41.6373 51.3935 41.6243 51.4405 41.5982C51.4881 41.5722 51.5247 41.5392 51.5501 41.4991C51.5761 41.4591 51.5891 41.4182 51.5891 41.3762C51.5891 41.3343 51.5828 41.2918 51.5701 41.2486C51.558 41.2054 51.5393 41.1657 51.5139 41.1295C51.4885 41.0926 51.4564 41.0631 51.4176 41.0409C51.3789 41.018 51.3332 41.0066 51.2804 41.0066ZM52.8734 41.5868C52.8734 41.6999 52.8649 41.8008 52.8477 41.8898C52.8306 41.9787 52.8036 42.054 52.7667 42.1156C52.7299 42.1772 52.6822 42.2242 52.6238 42.2566C52.5654 42.2883 52.4952 42.3042 52.4133 42.3042C52.3097 42.3042 52.224 42.2759 52.156 42.2194C52.0887 42.1629 52.0382 42.0813 52.0045 41.9746C51.9715 41.8672 51.955 41.738 51.955 41.5868C51.955 41.4382 51.9699 41.3105 51.9998 41.2038C52.0302 41.0964 52.0792 41.0142 52.1465 40.957C52.2138 40.8992 52.3027 40.8703 52.4133 40.8703C52.5181 40.8703 52.6044 40.8989 52.6724 40.9561C52.7404 41.0126 52.7909 41.0945 52.8239 41.2019C52.8569 41.3086 52.8734 41.4369 52.8734 41.5868ZM52.1141 41.5868C52.1141 41.7164 52.1239 41.8243 52.1436 41.9107C52.1633 41.9971 52.1951 42.0619 52.2389 42.1051C52.2834 42.1476 52.3415 42.1689 52.4133 42.1689C52.485 42.1689 52.5428 42.1476 52.5867 42.1051C52.6311 42.0625 52.6632 41.9981 52.6829 41.9117C52.7032 41.8253 52.7134 41.717 52.7134 41.5868C52.7134 41.4591 52.7035 41.3524 52.6838 41.2667C52.6641 41.1803 52.6324 41.1155 52.5886 41.0723C52.5447 41.0285 52.4863 41.0066 52.4133 41.0066C52.3402 41.0066 52.2818 41.0285 52.2379 41.0723C52.1941 41.1155 52.1624 41.1803 52.1427 41.2667C52.1236 41.3524 52.1141 41.4591 52.1141 41.5868ZM53.99 41.5868C53.99 41.6999 53.9815 41.8008 53.9643 41.8898C53.9472 41.9787 53.9202 42.054 53.8833 42.1156C53.8465 42.1772 53.7989 42.2242 53.7404 42.2566C53.682 42.2883 53.6118 42.3042 53.5299 42.3042C53.4263 42.3042 53.3406 42.2759 53.2726 42.2194C53.2053 42.1629 53.1548 42.0813 53.1211 41.9746C53.0881 41.8672 53.0716 41.738 53.0716 41.5868C53.0716 41.4382 53.0865 41.3105 53.1164 41.2038C53.1469 41.0964 53.1958 41.0142 53.2631 40.957C53.3304 40.8992 53.4194 40.8703 53.5299 40.8703C53.6347 40.8703 53.7211 40.8989 53.789 40.9561C53.857 41.0126 53.9075 41.0945 53.9405 41.2019C53.9735 41.3086 53.99 41.4369 53.99 41.5868ZM53.2307 41.5868C53.2307 41.7164 53.2406 41.8243 53.2602 41.9107C53.2799 41.9971 53.3117 42.0619 53.3555 42.1051C53.4 42.1476 53.4581 42.1689 53.5299 42.1689C53.6016 42.1689 53.6594 42.1476 53.7033 42.1051C53.7477 42.0625 53.7798 41.9981 53.7995 41.9117C53.8198 41.8253 53.83 41.717 53.83 41.5868C53.83 41.4591 53.8201 41.3524 53.8004 41.2667C53.7808 41.1803 53.749 41.1155 53.7052 41.0723C53.6613 41.0285 53.6029 41.0066 53.5299 41.0066C53.4568 41.0066 53.3984 41.0285 53.3546 41.0723C53.3107 41.1155 53.279 41.1803 53.2593 41.2667C53.2402 41.3524 53.2307 41.4591 53.2307 41.5868Z" fill="#212121"/>
<rect x="41.7433" y="44.2491" width="6.25909" height="3.65854" rx="1.82927" fill="white"/>
<rect x="41.7433" y="44.2491" width="6.25909" height="3.65854" rx="1.82927" stroke="#D6D6D6" stroke-width="0.243902"/>
<path d="M43.882 46.5781H42.9693V46.4457L43.3418 46.0675C43.411 45.9976 43.4691 45.9353 43.5161 45.8807C43.5638 45.8261 43.6 45.7724 43.6248 45.7197C43.6495 45.6663 43.6619 45.6079 43.6619 45.5444C43.6619 45.4656 43.6384 45.4056 43.5914 45.3643C43.545 45.3224 43.4838 45.3014 43.4075 45.3014C43.3408 45.3014 43.2818 45.3129 43.2303 45.3357C43.1789 45.3586 43.1262 45.391 43.0722 45.4329L42.9874 45.3262C43.0242 45.2951 43.0642 45.2675 43.1074 45.2433C43.1512 45.2192 43.1979 45.2001 43.2475 45.1862C43.2977 45.1722 43.351 45.1652 43.4075 45.1652C43.4933 45.1652 43.5673 45.1801 43.6295 45.21C43.6918 45.2398 43.7397 45.2824 43.7734 45.3377C43.8077 45.3929 43.8248 45.4587 43.8248 45.5349C43.8248 45.6085 43.8102 45.6771 43.781 45.7407C43.7518 45.8035 43.7108 45.8661 43.6581 45.9284C43.6054 45.99 43.5438 46.0554 43.4733 46.1246L43.1703 46.4266V46.4333H43.882V46.5781ZM45.0062 45.8798C45.0062 45.9928 44.9977 46.0938 44.9805 46.1827C44.9634 46.2717 44.9364 46.3469 44.8995 46.4085C44.8627 46.4701 44.8151 46.5171 44.7566 46.5495C44.6982 46.5813 44.628 46.5972 44.5461 46.5972C44.4425 46.5972 44.3568 46.5689 44.2888 46.5124C44.2215 46.4559 44.171 46.3742 44.1373 46.2675C44.1043 46.1602 44.0878 46.0309 44.0878 45.8798C44.0878 45.7311 44.1027 45.6035 44.1326 45.4968C44.1631 45.3894 44.212 45.3072 44.2793 45.25C44.3466 45.1922 44.4355 45.1633 44.5461 45.1633C44.6509 45.1633 44.7372 45.1919 44.8052 45.249C44.8732 45.3056 44.9237 45.3875 44.9567 45.4949C44.9897 45.6016 45.0062 45.7299 45.0062 45.8798ZM44.2469 45.8798C44.2469 46.0093 44.2567 46.1173 44.2764 46.2037C44.2961 46.2901 44.3279 46.3549 44.3717 46.3981C44.4162 46.4406 44.4743 46.4619 44.5461 46.4619C44.6178 46.4619 44.6756 46.4406 44.7195 46.3981C44.7639 46.3555 44.796 46.291 44.8157 46.2046C44.836 46.1183 44.8462 46.01 44.8462 45.8798C44.8462 45.7521 44.8363 45.6454 44.8166 45.5596C44.797 45.4733 44.7652 45.4085 44.7214 45.3653C44.6775 45.3215 44.6191 45.2995 44.5461 45.2995C44.473 45.2995 44.4146 45.3215 44.3708 45.3653C44.3269 45.4085 44.2952 45.4733 44.2755 45.5596C44.2564 45.6454 44.2469 45.7521 44.2469 45.8798ZM46.1229 45.8798C46.1229 45.9928 46.1143 46.0938 46.0971 46.1827C46.08 46.2717 46.053 46.3469 46.0161 46.4085C45.9793 46.4701 45.9317 46.5171 45.8732 46.5495C45.8148 46.5813 45.7446 46.5972 45.6627 46.5972C45.5591 46.5972 45.4734 46.5689 45.4054 46.5124C45.3381 46.4559 45.2876 46.3742 45.254 46.2675C45.2209 46.1602 45.2044 46.0309 45.2044 45.8798C45.2044 45.7311 45.2193 45.6035 45.2492 45.4968C45.2797 45.3894 45.3286 45.3072 45.3959 45.25C45.4632 45.1922 45.5522 45.1633 45.6627 45.1633C45.7675 45.1633 45.8539 45.1919 45.9218 45.249C45.9898 45.3056 46.0403 45.3875 46.0733 45.4949C46.1063 45.6016 46.1229 45.7299 46.1229 45.8798ZM45.3635 45.8798C45.3635 46.0093 45.3734 46.1173 45.3931 46.2037C45.4127 46.2901 45.4445 46.3549 45.4883 46.3981C45.5328 46.4406 45.5909 46.4619 45.6627 46.4619C45.7345 46.4619 45.7923 46.4406 45.8361 46.3981C45.8805 46.3555 45.9126 46.291 45.9323 46.2046C45.9526 46.1183 45.9628 46.01 45.9628 45.8798C45.9628 45.7521 45.953 45.6454 45.9333 45.5596C45.9136 45.4733 45.8818 45.4085 45.838 45.3653C45.7942 45.3215 45.7357 45.2995 45.6627 45.2995C45.5896 45.2995 45.5312 45.3215 45.4874 45.3653C45.4436 45.4085 45.4118 45.4733 45.3921 45.5596C45.373 45.6454 45.3635 45.7521 45.3635 45.8798Z" fill="#212121"/>
<rect x="33.6378" y="46.8702" width="6.25909" height="3.65854" rx="1.82927" fill="white"/>
<rect x="33.6378" y="46.8702" width="6.25909" height="3.65854" rx="1.82927" stroke="#D6D6D6" stroke-width="0.243902"/>
<path d="M35.4526 49.1992H35.2983V48.2122C35.2983 48.1747 35.2983 48.1426 35.2983 48.1159C35.2989 48.0886 35.2995 48.0639 35.3002 48.0416C35.3014 48.0188 35.303 47.9956 35.3049 47.9721C35.2852 47.9924 35.2668 48.0099 35.2497 48.0245C35.2325 48.0385 35.2112 48.0559 35.1858 48.0769L35.0267 48.2046L34.9438 48.0969L35.3211 47.8063H35.4526V49.1992ZM36.4206 48.3475C36.5152 48.3475 36.5975 48.3637 36.6673 48.3961C36.7372 48.4278 36.7912 48.4742 36.8293 48.5352C36.8681 48.5961 36.8874 48.6701 36.8874 48.7571C36.8874 48.8524 36.8668 48.9347 36.8255 49.0039C36.7842 49.0725 36.7248 49.1255 36.6473 49.163C36.5699 49.1999 36.4771 49.2183 36.3691 49.2183C36.2967 49.2183 36.2294 49.2119 36.1672 49.1992C36.1049 49.1865 36.0525 49.1675 36.01 49.1421V48.9915C36.0563 49.0195 36.1125 49.0417 36.1786 49.0582C36.2446 49.0747 36.3088 49.083 36.371 49.083C36.4415 49.083 36.5032 49.0719 36.5559 49.0496C36.6092 49.0268 36.6505 48.9925 36.6797 48.9467C36.7096 48.9004 36.7245 48.8423 36.7245 48.7724C36.7245 48.6797 36.6959 48.6082 36.6388 48.558C36.5822 48.5072 36.4927 48.4818 36.3701 48.4818C36.3307 48.4818 36.2875 48.485 36.2405 48.4913C36.1935 48.4977 36.1548 48.5047 36.1243 48.5123L36.0443 48.4599L36.0976 47.8063H36.7903V47.9511H36.2329L36.1976 48.3713C36.2218 48.3662 36.2529 48.3611 36.291 48.356C36.3291 48.3503 36.3723 48.3475 36.4206 48.3475ZM38.0174 48.5009C38.0174 48.6139 38.0088 48.7149 37.9917 48.8038C37.9745 48.8928 37.9475 48.968 37.9107 49.0296C37.8738 49.0912 37.8262 49.1382 37.7678 49.1706C37.7093 49.2024 37.6391 49.2183 37.5572 49.2183C37.4537 49.2183 37.3679 49.19 37.3 49.1335C37.2326 49.0769 37.1821 48.9953 37.1485 48.8886C37.1155 48.7813 37.0989 48.652 37.0989 48.5009C37.0989 48.3522 37.1139 48.2246 37.1437 48.1179C37.1742 48.0105 37.2231 47.9283 37.2904 47.8711C37.3578 47.8133 37.4467 47.7844 37.5572 47.7844C37.662 47.7844 37.7484 47.813 37.8164 47.8701C37.8843 47.9267 37.9348 48.0086 37.9678 48.1159C38.0009 48.2227 38.0174 48.351 38.0174 48.5009ZM37.2581 48.5009C37.2581 48.6304 37.2679 48.7384 37.2876 48.8248C37.3073 48.9112 37.339 48.976 37.3829 49.0192C37.4273 49.0617 37.4854 49.083 37.5572 49.083C37.629 49.083 37.6868 49.0617 37.7306 49.0192C37.7751 48.9766 37.8071 48.9121 37.8268 48.8257C37.8472 48.7394 37.8573 48.6311 37.8573 48.5009C37.8573 48.3732 37.8475 48.2665 37.8278 48.1807C37.8081 48.0944 37.7763 48.0296 37.7325 47.9864C37.6887 47.9425 37.6303 47.9206 37.5572 47.9206C37.4842 47.9206 37.4257 47.9425 37.3819 47.9864C37.3381 48.0296 37.3063 48.0944 37.2866 48.1807C37.2676 48.2665 37.2581 48.3732 37.2581 48.5009Z" fill="#212121"/>
<rect x="25.2677" y="48.1866" width="6.25909" height="3.65854" rx="1.82927" fill="white"/>
<rect x="25.2677" y="48.1866" width="6.25909" height="3.65854" rx="1.82927" stroke="#D6D6D6" stroke-width="0.243902"/>
<path d="M27.476 50.1926H27.2673V50.5156H27.113V50.1926H26.4394V50.0593L27.1025 49.1151H27.2673V50.0497H27.476V50.1926ZM27.113 50.0497V49.5943C27.113 49.5594 27.1133 49.5279 27.1139 49.5C27.1146 49.4714 27.1155 49.4451 27.1168 49.4209C27.1181 49.3962 27.119 49.3726 27.1196 49.3504C27.1209 49.3282 27.1219 49.3063 27.1225 49.2847H27.1149C27.1028 49.3101 27.0888 49.3371 27.073 49.3657C27.0577 49.3936 27.0422 49.4187 27.0263 49.4409L26.5966 50.0497H27.113ZM28.5307 49.8173C28.5307 49.9303 28.5221 50.0313 28.5049 50.1202C28.4878 50.2092 28.4608 50.2844 28.4239 50.346C28.3871 50.4076 28.3395 50.4546 28.281 50.487C28.2226 50.5188 28.1524 50.5347 28.0705 50.5347C27.9669 50.5347 27.8812 50.5064 27.8132 50.4499C27.7459 50.3934 27.6954 50.3117 27.6618 50.205C27.6287 50.0977 27.6122 49.9684 27.6122 49.8173C27.6122 49.6686 27.6271 49.541 27.657 49.4343C27.6875 49.3269 27.7364 49.2447 27.8037 49.1875C27.871 49.1297 27.96 49.1008 28.0705 49.1008C28.1753 49.1008 28.2617 49.1294 28.3296 49.1865C28.3976 49.2431 28.4481 49.325 28.4811 49.4324C28.5141 49.5391 28.5307 49.6674 28.5307 49.8173ZM27.7713 49.8173C27.7713 49.9468 27.7812 50.0548 27.8009 50.1412C27.8205 50.2276 27.8523 50.2924 27.8961 50.3356C27.9406 50.3781 27.9987 50.3994 28.0705 50.3994C28.1423 50.3994 28.2001 50.3781 28.2439 50.3356C28.2883 50.293 28.3204 50.2285 28.3401 50.1421C28.3604 50.0558 28.3706 49.9475 28.3706 49.8173C28.3706 49.6896 28.3607 49.5829 28.3411 49.4971C28.3214 49.4108 28.2896 49.346 28.2458 49.3028C28.202 49.259 28.1435 49.237 28.0705 49.237C27.9974 49.237 27.939 49.259 27.8952 49.3028C27.8513 49.346 27.8196 49.4108 27.7999 49.4971C27.7808 49.5829 27.7713 49.6896 27.7713 49.8173ZM29.6473 49.8173C29.6473 49.9303 29.6387 50.0313 29.6215 50.1202C29.6044 50.2092 29.5774 50.2844 29.5406 50.346C29.5037 50.4076 29.4561 50.4546 29.3977 50.487C29.3392 50.5188 29.269 50.5347 29.1871 50.5347C29.0836 50.5347 28.9978 50.5064 28.9299 50.4499C28.8625 50.3934 28.812 50.3117 28.7784 50.205C28.7453 50.0977 28.7288 49.9684 28.7288 49.8173C28.7288 49.6686 28.7438 49.541 28.7736 49.4343C28.8041 49.3269 28.853 49.2447 28.9203 49.1875C28.9877 49.1297 29.0766 49.1008 29.1871 49.1008C29.2919 49.1008 29.3783 49.1294 29.4462 49.1865C29.5142 49.2431 29.5647 49.325 29.5977 49.4324C29.6308 49.5391 29.6473 49.6674 29.6473 49.8173ZM28.8879 49.8173C28.8879 49.9468 28.8978 50.0548 28.9175 50.1412C28.9372 50.2276 28.9689 50.2924 29.0127 50.3356C29.0572 50.3781 29.1153 50.3994 29.1871 50.3994C29.2589 50.3994 29.3167 50.3781 29.3605 50.3356C29.405 50.293 29.437 50.2285 29.4567 50.1421C29.477 50.0558 29.4872 49.9475 29.4872 49.8173C29.4872 49.6896 29.4774 49.5829 29.4577 49.4971C29.438 49.4108 29.4062 49.346 29.3624 49.3028C29.3186 49.259 29.2601 49.237 29.1871 49.237C29.1141 49.237 29.0556 49.259 29.0118 49.3028C28.968 49.346 28.9362 49.4108 28.9165 49.4971C28.8975 49.5829 28.8879 49.6896 28.8879 49.8173Z" fill="#212121"/>
<path d="M44.9023 48.6729C45.3738 48.6729 45.7558 49.0549 45.7559 49.5264C45.7559 49.9978 45.3738 50.3799 44.9023 50.3799C44.4309 50.3799 44.0488 49.9978 44.0488 49.5264C44.0488 49.0549 44.4309 48.6729 44.9023 48.6729Z" fill="white" stroke="#B49600" stroke-width="0.243902"/>
<path d="M44.9019 50.0147C45.1713 50.0147 45.3897 49.7963 45.3897 49.5269C45.3897 49.2575 45.1713 49.0391 44.9019 49.0391C44.6325 49.0391 44.4141 49.2575 44.4141 49.5269C44.4141 49.7963 44.6325 50.0147 44.9019 50.0147Z" fill="#B49600"/>
<path d="M52.9512 44.2744C53.4226 44.2744 53.8047 44.6565 53.8047 45.1279C53.8047 45.5994 53.4226 45.9814 52.9512 45.9814C52.4797 45.9814 52.0977 45.5994 52.0977 45.1279C52.0977 44.6565 52.4797 44.2744 52.9512 44.2744Z" fill="white" stroke="#B49600" stroke-width="0.243902"/>
<path d="M52.9517 45.6162C53.2211 45.6162 53.4395 45.3978 53.4395 45.1284C53.4395 44.859 53.2211 44.6406 52.9517 44.6406C52.6823 44.6406 52.4639 44.859 52.4639 45.1284C52.4639 45.3978 52.6823 45.6162 52.9517 45.6162Z" fill="#B49600"/>
<path d="M60.999 48.1768C61.4705 48.1768 61.8525 48.5588 61.8525 49.0303C61.8525 49.5017 61.4705 49.8838 60.999 49.8838C60.5276 49.8838 60.1455 49.5017 60.1455 49.0303C60.1455 48.5588 60.5276 48.1768 60.999 48.1768Z" fill="white" stroke="#B49600" stroke-width="0.243902"/>
<path d="M60.9985 49.5186C61.268 49.5186 61.4864 49.3002 61.4864 49.0308C61.4864 48.7614 61.268 48.543 60.9985 48.543C60.7291 48.543 60.5107 48.7614 60.5107 49.0308C60.5107 49.3002 60.7291 49.5186 60.9985 49.5186Z" fill="#B49600"/>
<path d="M69.0488 53.0518C69.5203 53.0518 69.9023 53.4338 69.9023 53.9053C69.9023 54.3767 69.5203 54.7588 69.0488 54.7588C68.5774 54.7588 68.1953 54.3767 68.1953 53.9053C68.1953 53.4338 68.5774 53.0518 69.0488 53.0518Z" fill="white" stroke="#B49600" stroke-width="0.243902"/>
<path d="M69.0493 54.3936C69.3187 54.3936 69.5371 54.1752 69.5371 53.9058C69.5371 53.6364 69.3187 53.418 69.0493 53.418C68.7799 53.418 68.5615 53.6364 68.5615 53.9058C68.5615 54.1752 68.7799 54.3936 69.0493 54.3936Z" fill="#B49600"/>
<path d="M77.0977 47.9307C77.5691 47.9307 77.9512 48.3127 77.9512 48.7842C77.9512 49.2556 77.5691 49.6377 77.0977 49.6377C76.6262 49.6377 76.2441 49.2556 76.2441 48.7842C76.2442 48.3127 76.6262 47.9307 77.0977 47.9307Z" fill="white" stroke="#B49600" stroke-width="0.243902"/>
<path d="M77.0982 49.2725C77.3676 49.2725 77.586 49.0541 77.586 48.7847C77.586 48.5153 77.3676 48.2969 77.0982 48.2969C76.8287 48.2969 76.6104 48.5153 76.6104 48.7847C76.6104 49.0541 76.8287 49.2725 77.0982 49.2725Z" fill="#B49600"/>
<path d="M36.8535 51.3447C37.325 51.3447 37.707 51.7268 37.707 52.1982C37.707 52.6697 37.325 53.0518 36.8535 53.0518C36.3821 53.0517 36 52.6697 36 52.1982C36 51.7268 36.3821 51.3447 36.8535 51.3447Z" fill="white" stroke="#B49600" stroke-width="0.243902"/>
<path d="M36.854 52.6865C37.1234 52.6865 37.3418 52.4681 37.3418 52.1987C37.3418 51.9293 37.1234 51.7109 36.854 51.7109C36.5846 51.7109 36.3662 51.9293 36.3662 52.1987C36.3662 52.4681 36.5846 52.6865 36.854 52.6865Z" fill="#B49600"/>
<path d="M28.8037 52.8096C29.2752 52.8096 29.6572 53.1916 29.6572 53.6631C29.6572 54.1345 29.2752 54.5166 28.8037 54.5166C28.3323 54.5166 27.9502 54.1345 27.9502 53.6631C27.9502 53.1916 28.3323 52.8096 28.8037 52.8096Z" fill="white" stroke="#B49600" stroke-width="0.243902"/>
<path d="M28.8042 54.1514C29.0736 54.1514 29.292 53.933 29.292 53.6636C29.292 53.3942 29.0736 53.1758 28.8042 53.1758C28.5348 53.1758 28.3164 53.3942 28.3164 53.6636C28.3164 53.933 28.5348 54.1514 28.8042 54.1514Z" fill="#B49600"/>
<rect x="57.7169" y="43.7726" width="6.25909" height="3.65854" rx="1.82927" fill="white"/>
<rect x="57.7169" y="43.7726" width="6.25909" height="3.65854" rx="1.82927" stroke="#D6D6D6" stroke-width="0.243902"/>
<path d="M58.9572 45.5061C58.9572 45.4223 58.9629 45.3403 58.9743 45.2603C58.9864 45.1803 59.0064 45.1059 59.0344 45.0373C59.0623 44.9681 59.1004 44.9075 59.1487 44.8554C59.197 44.8033 59.257 44.7626 59.3288 44.7334C59.4012 44.7036 59.4879 44.6886 59.5889 44.6886C59.6174 44.6886 59.6483 44.6902 59.6813 44.6934C59.7143 44.6959 59.7416 44.7004 59.7632 44.7067V44.843C59.7397 44.8347 59.7127 44.8287 59.6822 44.8249C59.6524 44.8211 59.6222 44.8192 59.5917 44.8192C59.4736 44.8192 59.3805 44.8449 59.3126 44.8963C59.2452 44.9478 59.1967 45.0177 59.1668 45.1059C59.1369 45.1936 59.1198 45.2924 59.1154 45.4022H59.1258C59.1455 45.3705 59.1706 45.3419 59.2011 45.3165C59.2316 45.2905 59.2684 45.2698 59.3116 45.2546C59.3554 45.2393 59.4063 45.2317 59.4641 45.2317C59.5454 45.2317 59.6162 45.2482 59.6765 45.2812C59.7375 45.3143 59.7845 45.3622 59.8175 45.4251C59.8512 45.488 59.868 45.5642 59.868 45.6538C59.868 45.7497 59.8502 45.8326 59.8147 45.9024C59.7791 45.9723 59.7283 46.0263 59.6622 46.0644C59.5968 46.1019 59.5187 46.1206 59.4279 46.1206C59.3599 46.1206 59.2973 46.1076 59.2402 46.0816C59.183 46.0555 59.1331 46.0168 59.0906 45.9653C59.0487 45.9139 59.016 45.85 58.9924 45.7738C58.9689 45.697 58.9572 45.6077 58.9572 45.5061ZM59.4259 45.9872C59.5123 45.9872 59.5816 45.9596 59.6336 45.9043C59.6857 45.8491 59.7118 45.7656 59.7118 45.6538C59.7118 45.5623 59.6886 45.4899 59.6422 45.4365C59.5959 45.3832 59.526 45.3565 59.4326 45.3565C59.3691 45.3565 59.3138 45.3699 59.2668 45.3965C59.2198 45.4226 59.1833 45.4556 59.1573 45.4956C59.1312 45.5356 59.1182 45.5763 59.1182 45.6176C59.1182 45.6595 59.1242 45.702 59.1363 45.7452C59.149 45.7884 59.1681 45.8284 59.1935 45.8653C59.2189 45.9021 59.251 45.9317 59.2897 45.9539C59.3285 45.9761 59.3739 45.9872 59.4259 45.9872ZM60.9799 45.4032C60.9799 45.5163 60.9713 45.6173 60.9541 45.7062C60.937 45.7951 60.91 45.8704 60.8732 45.932C60.8363 45.9936 60.7887 46.0406 60.7303 46.073C60.6718 46.1047 60.6016 46.1206 60.5197 46.1206C60.4162 46.1206 60.3304 46.0924 60.2625 46.0358C60.1951 45.9793 60.1446 45.8977 60.111 45.791C60.0779 45.6836 60.0614 45.5544 60.0614 45.4032C60.0614 45.2546 60.0764 45.1269 60.1062 45.0202C60.1367 44.9129 60.1856 44.8306 60.2529 44.7734C60.3203 44.7156 60.4092 44.6867 60.5197 44.6867C60.6245 44.6867 60.7109 44.7153 60.7788 44.7725C60.8468 44.829 60.8973 44.911 60.9303 45.0183C60.9634 45.125 60.9799 45.2533 60.9799 45.4032ZM60.2205 45.4032C60.2205 45.5328 60.2304 45.6408 60.2501 45.7271C60.2698 45.8135 60.3015 45.8783 60.3453 45.9215C60.3898 45.964 60.4479 45.9853 60.5197 45.9853C60.5915 45.9853 60.6493 45.964 60.6931 45.9215C60.7376 45.8789 60.7696 45.8145 60.7893 45.7281C60.8096 45.6417 60.8198 45.5334 60.8198 45.4032C60.8198 45.2755 60.81 45.1688 60.7903 45.0831C60.7706 44.9967 60.7388 44.9319 60.695 44.8887C60.6512 44.8449 60.5927 44.823 60.5197 44.823C60.4467 44.823 60.3882 44.8449 60.3444 44.8887C60.3006 44.9319 60.2688 44.9967 60.2491 45.0831C60.2301 45.1688 60.2205 45.2755 60.2205 45.4032ZM62.0965 45.4032C62.0965 45.5163 62.0879 45.6173 62.0708 45.7062C62.0536 45.7951 62.0266 45.8704 61.9898 45.932C61.9529 45.9936 61.9053 46.0406 61.8469 46.073C61.7884 46.1047 61.7182 46.1206 61.6363 46.1206C61.5328 46.1206 61.447 46.0924 61.3791 46.0358C61.3117 45.9793 61.2613 45.8977 61.2276 45.791C61.1946 45.6836 61.178 45.5544 61.178 45.4032C61.178 45.2546 61.193 45.1269 61.2228 45.0202C61.2533 44.9129 61.3022 44.8306 61.3695 44.7734C61.4369 44.7156 61.5258 44.6867 61.6363 44.6867C61.7411 44.6867 61.8275 44.7153 61.8955 44.7725C61.9634 44.829 62.0139 44.911 62.0469 45.0183C62.08 45.125 62.0965 45.2533 62.0965 45.4032ZM61.3372 45.4032C61.3372 45.5328 61.347 45.6408 61.3667 45.7271C61.3864 45.8135 61.4181 45.8783 61.462 45.9215C61.5064 45.964 61.5645 45.9853 61.6363 45.9853C61.7081 45.9853 61.7659 45.964 61.8097 45.9215C61.8542 45.8789 61.8863 45.8145 61.9059 45.7281C61.9263 45.6417 61.9364 45.5334 61.9364 45.4032C61.9364 45.2755 61.9266 45.1688 61.9069 45.0831C61.8872 44.9967 61.8554 44.9319 61.8116 44.8887C61.7678 44.8449 61.7094 44.823 61.6363 44.823C61.5633 44.823 61.5048 44.8449 61.461 44.8887C61.4172 44.9319 61.3854 44.9967 61.3657 45.0831C61.3467 45.1688 61.3372 45.2755 61.3372 45.4032Z" fill="#212121"/>
<rect x="65.8224" y="48.7804" width="6.25909" height="3.65854" rx="1.82927" fill="white"/>
<rect x="65.8224" y="48.7804" width="6.25909" height="3.65854" rx="1.82927" stroke="#D6D6D6" stroke-width="0.243902"/>
<path d="M68.0307 50.7864H67.822V51.1094H67.6677V50.7864H66.9941V50.653L67.6572 49.7088H67.822V50.6435H68.0307V50.7864ZM67.6677 50.6435V50.1881C67.6677 50.1531 67.668 50.1217 67.6686 50.0937C67.6692 50.0652 67.6702 50.0388 67.6715 50.0147C67.6727 49.9899 67.6737 49.9664 67.6743 49.9442C67.6756 49.9219 67.6766 49.9 67.6772 49.8784H67.6696C67.6575 49.9038 67.6435 49.9308 67.6276 49.9594C67.6124 49.9874 67.5968 50.0124 67.581 50.0347L67.1513 50.6435H67.6677ZM69.0853 50.411C69.0853 50.5241 69.0768 50.6251 69.0596 50.714C69.0425 50.8029 69.0155 50.8782 68.9786 50.9398C68.9418 51.0014 68.8942 51.0484 68.8357 51.0808C68.7773 51.1126 68.7071 51.1284 68.6252 51.1284C68.5216 51.1284 68.4359 51.1002 68.3679 51.0436C68.3006 50.9871 68.2501 50.9055 68.2164 50.7988C68.1834 50.6914 68.1669 50.5622 68.1669 50.411C68.1669 50.2624 68.1818 50.1347 68.2117 50.028C68.2422 49.9207 68.2911 49.8384 68.3584 49.7812C68.4257 49.7235 68.5146 49.6946 68.6252 49.6946C68.73 49.6946 68.8164 49.7231 68.8843 49.7803C68.9523 49.8368 69.0028 49.9188 69.0358 50.0261C69.0688 50.1328 69.0853 50.2611 69.0853 50.411ZM68.326 50.411C68.326 50.5406 68.3359 50.6486 68.3555 50.7349C68.3752 50.8213 68.407 50.8861 68.4508 50.9293C68.4953 50.9719 68.5534 50.9931 68.6252 50.9931C68.6969 50.9931 68.7547 50.9719 68.7986 50.9293C68.843 50.8868 68.8751 50.8223 68.8948 50.7359C68.9151 50.6495 68.9253 50.5412 68.9253 50.411C68.9253 50.2833 68.9154 50.1766 68.8957 50.0909C68.8761 50.0045 68.8443 49.9397 68.8005 49.8965C68.7566 49.8527 68.6982 49.8308 68.6252 49.8308C68.5521 49.8308 68.4937 49.8527 68.4499 49.8965C68.406 49.9397 68.3743 50.0045 68.3546 50.0909C68.3355 50.1766 68.326 50.2833 68.326 50.411ZM70.202 50.411C70.202 50.5241 70.1934 50.6251 70.1762 50.714C70.1591 50.8029 70.1321 50.8782 70.0953 50.9398C70.0584 51.0014 70.0108 51.0484 69.9523 51.0808C69.8939 51.1126 69.8237 51.1284 69.7418 51.1284C69.6383 51.1284 69.5525 51.1002 69.4845 51.0436C69.4172 50.9871 69.3667 50.9055 69.3331 50.7988C69.3 50.6914 69.2835 50.5622 69.2835 50.411C69.2835 50.2624 69.2984 50.1347 69.3283 50.028C69.3588 49.9207 69.4077 49.8384 69.475 49.7812C69.5423 49.7235 69.6313 49.6946 69.7418 49.6946C69.8466 49.6946 69.933 49.7231 70.0009 49.7803C70.0689 49.8368 70.1194 49.9188 70.1524 50.0261C70.1854 50.1328 70.202 50.2611 70.202 50.411ZM69.4426 50.411C69.4426 50.5406 69.4525 50.6486 69.4722 50.7349C69.4918 50.8213 69.5236 50.8861 69.5674 50.9293C69.6119 50.9719 69.67 50.9931 69.7418 50.9931C69.8136 50.9931 69.8714 50.9719 69.9152 50.9293C69.9596 50.8868 69.9917 50.8223 70.0114 50.7359C70.0317 50.6495 70.0419 50.5412 70.0419 50.411C70.0419 50.2833 70.0321 50.1766 70.0124 50.0909C69.9927 50.0045 69.9609 49.9397 69.9171 49.8965C69.8733 49.8527 69.8148 49.8308 69.7418 49.8308C69.6687 49.8308 69.6103 49.8527 69.5665 49.8965C69.5227 49.9397 69.4909 50.0045 69.4712 50.0909C69.4521 50.1766 69.4426 50.2833 69.4426 50.411Z" fill="#212121"/>
<rect x="74.0489" y="42.8195" width="6.25909" height="3.65854" rx="1.82927" fill="white"/>
<rect x="74.0489" y="42.8195" width="6.25909" height="3.65854" rx="1.82927" stroke="#D6D6D6" stroke-width="0.243902"/>
<path d="M75.2892 44.553C75.2892 44.4691 75.2949 44.3872 75.3064 44.3072C75.3184 44.2271 75.3385 44.1528 75.3664 44.0842C75.3943 44.015 75.4325 43.9543 75.4807 43.9022C75.529 43.8502 75.589 43.8095 75.6608 43.7803C75.7332 43.7504 75.8199 43.7355 75.9209 43.7355C75.9495 43.7355 75.9803 43.7371 76.0133 43.7403C76.0463 43.7428 76.0737 43.7473 76.0953 43.7536V43.8899C76.0717 43.8816 76.0448 43.8756 76.0143 43.8718C75.9844 43.8679 75.9542 43.866 75.9238 43.866C75.8056 43.866 75.7126 43.8918 75.6446 43.9432C75.5773 43.9947 75.5287 44.0645 75.4988 44.1528C75.469 44.2405 75.4518 44.3392 75.4474 44.4491H75.4579C75.4776 44.4174 75.5026 44.3888 75.5331 44.3634C75.5636 44.3373 75.6005 44.3167 75.6436 44.3014C75.6875 44.2862 75.7383 44.2786 75.7961 44.2786C75.8774 44.2786 75.9482 44.2951 76.0086 44.3281C76.0695 44.3612 76.1165 44.4091 76.1496 44.472C76.1832 44.5349 76.2001 44.6111 76.2001 44.7006C76.2001 44.7966 76.1823 44.8794 76.1467 44.9493C76.1111 45.0192 76.0603 45.0732 75.9943 45.1113C75.9288 45.1488 75.8507 45.1675 75.7599 45.1675C75.6919 45.1675 75.6294 45.1545 75.5722 45.1284C75.515 45.1024 75.4652 45.0636 75.4226 45.0122C75.3807 44.9607 75.348 44.8969 75.3245 44.8207C75.301 44.7438 75.2892 44.6546 75.2892 44.553ZM75.758 45.0341C75.8444 45.0341 75.9136 45.0065 75.9657 44.9512C76.0178 44.896 76.0438 44.8124 76.0438 44.7006C76.0438 44.6092 76.0206 44.5368 75.9743 44.4834C75.9279 44.4301 75.858 44.4034 75.7646 44.4034C75.7011 44.4034 75.6459 44.4167 75.5989 44.4434C75.5519 44.4694 75.5153 44.5025 75.4893 44.5425C75.4633 44.5825 75.4502 44.6232 75.4502 44.6644C75.4502 44.7064 75.4563 44.7489 75.4683 44.7921C75.481 44.8353 75.5001 44.8753 75.5255 44.9122C75.5509 44.949 75.583 44.9785 75.6217 45.0008C75.6605 45.023 75.7059 45.0341 75.758 45.0341ZM76.8317 44.2967C76.9264 44.2967 77.0086 44.3129 77.0785 44.3453C77.1484 44.377 77.2023 44.4234 77.2404 44.4844C77.2792 44.5454 77.2986 44.6193 77.2986 44.7064C77.2986 44.8016 77.2779 44.8839 77.2366 44.9531C77.1954 45.0217 77.136 45.0748 77.0585 45.1122C76.981 45.1491 76.8883 45.1675 76.7803 45.1675C76.7079 45.1675 76.6405 45.1611 76.5783 45.1484C76.516 45.1357 76.4636 45.1167 76.4211 45.0913V44.9407C76.4675 44.9687 76.5237 44.9909 76.5897 45.0074C76.6558 45.0239 76.7199 45.0322 76.7822 45.0322C76.8527 45.0322 76.9143 45.0211 76.967 44.9989C77.0204 44.976 77.0617 44.9417 77.0909 44.896C77.1207 44.8496 77.1356 44.7915 77.1356 44.7216C77.1356 44.6289 77.1071 44.5574 77.0499 44.5072C76.9934 44.4564 76.9038 44.431 76.7812 44.431C76.7418 44.431 76.6987 44.4342 76.6517 44.4405C76.6047 44.4469 76.5659 44.4539 76.5354 44.4615L76.4554 44.4091L76.5087 43.7555H77.2014V43.9003H76.644L76.6088 44.3205C76.6329 44.3154 76.664 44.3103 76.7021 44.3053C76.7403 44.2995 76.7834 44.2967 76.8317 44.2967ZM78.4285 44.4501C78.4285 44.5631 78.4199 44.6641 78.4028 44.753C78.3856 44.842 78.3587 44.9172 78.3218 44.9788C78.285 45.0405 78.2373 45.0875 78.1789 45.1199C78.1205 45.1516 78.0503 45.1675 77.9683 45.1675C77.8648 45.1675 77.7791 45.1392 77.7111 45.0827C77.6438 45.0262 77.5933 44.9446 77.5596 44.8378C77.5266 44.7305 77.5101 44.6012 77.5101 44.4501C77.5101 44.3014 77.525 44.1738 77.5549 44.0671C77.5853 43.9597 77.6342 43.8775 77.7016 43.8203C77.7689 43.7625 77.8578 43.7336 77.9683 43.7336C78.0731 43.7336 78.1595 43.7622 78.2275 43.8194C78.2955 43.8759 78.3459 43.9578 78.379 44.0652C78.412 44.1719 78.4285 44.3002 78.4285 44.4501ZM77.6692 44.4501C77.6692 44.5796 77.679 44.6876 77.6987 44.774C77.7184 44.8604 77.7502 44.9252 77.794 44.9684C77.8385 45.0109 77.8966 45.0322 77.9683 45.0322C78.0401 45.0322 78.0979 45.0109 78.1417 44.9684C78.1862 44.9258 78.2183 44.8613 78.238 44.775C78.2583 44.6886 78.2685 44.5803 78.2685 44.4501C78.2685 44.3224 78.2586 44.2157 78.2389 44.13C78.2192 44.0436 78.1875 43.9788 78.1437 43.9356C78.0998 43.8918 78.0414 43.8699 77.9683 43.8699C77.8953 43.8699 77.8369 43.8918 77.793 43.9356C77.7492 43.9788 77.7175 44.0436 77.6978 44.13C77.6787 44.2157 77.6692 44.3224 77.6692 44.4501Z" fill="#212121"/>
<defs>
<linearGradient id="paint0_linear_7927_93590" x1="48.9266" y1="37.9336" x2="48.9266" y2="73.7873" gradientUnits="userSpaceOnUse">
<stop stop-color="#FFEB10"/>
<stop offset="1" stop-color="#FFEB10" stop-opacity="0"/>
</linearGradient>
</defs>
</svg>
