<svg width="93" height="92" viewBox="0 0 93 92" fill="none" xmlns="http://www.w3.org/2000/svg">
<rect x="1.25995" y="0.389831" width="91.079" height="91.2203" rx="17.5424" stroke="#BEBEBE" stroke-width="0.779661"/>
<rect width="70" height="66.0227" transform="translate(11.999 13)" fill="white"/>
<path d="M16.5068 19.3633V70.5375" stroke="#E0E0E0" stroke-width="0.265151"/>
<path d="M25.1243 70.5375C25.1243 70.6107 25.1836 70.6701 25.2568 70.6701C25.3301 70.6701 25.3894 70.6107 25.3894 70.5375H25.1243ZM25.2568 19.3633H25.1243V70.5375H25.2568H25.3894V19.3633H25.2568Z" fill="#E0E0E0"/>
<path d="M33.8743 70.5375C33.8743 70.6107 33.9336 70.6701 34.0068 70.6701C34.0801 70.6701 34.1394 70.6107 34.1394 70.5375H33.8743ZM34.0068 19.3633H33.8743V70.5375H34.0068H34.1394V19.3633H34.0068Z" fill="#E0E0E0"/>
<path d="M42.6243 70.5375C42.6243 70.6107 42.6836 70.6701 42.7568 70.6701C42.8301 70.6701 42.8894 70.6107 42.8894 70.5375H42.6243ZM42.7568 19.3633H42.6243V70.5375H42.7568H42.8894V19.3633H42.7568Z" fill="#E0E0E0"/>
<path d="M51.3733 70.5375C51.3733 70.6107 51.4326 70.6701 51.5059 70.6701C51.5791 70.6701 51.6384 70.6107 51.6384 70.5375H51.3733ZM51.5059 19.3633H51.3733V70.5375H51.5059H51.6384V19.3633H51.5059Z" fill="#E0E0E0"/>
<path d="M60.1233 70.5375C60.1233 70.6107 60.1826 70.6701 60.2559 70.6701C60.3291 70.6701 60.3884 70.6107 60.3884 70.5375H60.1233ZM60.2559 19.3633H60.1233V70.5375H60.2559H60.3884V19.3633H60.2559Z" fill="#E0E0E0"/>
<path d="M68.8733 70.5375C68.8733 70.6107 68.9326 70.6701 69.0059 70.6701C69.0791 70.6701 69.1384 70.6107 69.1384 70.5375H68.8733ZM69.0059 19.3633H68.8733V70.5375H69.0059H69.1384V19.3633H69.0059Z" fill="#E0E0E0"/>
<path d="M77.6233 70.5375C77.6233 70.6107 77.6826 70.6701 77.7559 70.6701C77.8291 70.6701 77.8884 70.6107 77.8884 70.5375H77.6233ZM77.7559 19.3633H77.6233V70.5375H77.7559H77.8884V19.3633H77.7559Z" fill="#E0E0E0"/>
<path d="M25.9917 73.0703H25.824V71.9973C25.824 71.9565 25.824 71.9217 25.824 71.8927C25.8246 71.863 25.8253 71.836 25.826 71.8119C25.8274 71.787 25.8291 71.7618 25.8312 71.7363C25.8098 71.7584 25.7898 71.7774 25.7711 71.7932C25.7525 71.8084 25.7294 71.8274 25.7017 71.8502L25.5288 71.989L25.4387 71.872L25.8488 71.556H25.9917V73.0703Z" fill="#212121"/>
<path d="M17.6022 72.3111C17.6022 72.434 17.5929 72.5438 17.5742 72.6405C17.5556 72.7371 17.5262 72.819 17.4862 72.8859C17.4461 72.9529 17.3943 73.004 17.3308 73.0392C17.2673 73.0738 17.191 73.091 17.1019 73.091C16.9894 73.091 16.8961 73.0603 16.8223 72.9988C16.7491 72.9374 16.6942 72.8487 16.6576 72.7327C16.6217 72.616 16.6037 72.4754 16.6037 72.3111C16.6037 72.1495 16.6199 72.0107 16.6524 71.8947C16.6855 71.778 16.7387 71.6886 16.8119 71.6265C16.8851 71.5636 16.9818 71.5322 17.1019 71.5322C17.2158 71.5322 17.3098 71.5633 17.3836 71.6254C17.4575 71.6869 17.5124 71.776 17.5483 71.8927C17.5842 72.0087 17.6022 72.1482 17.6022 72.3111ZM16.7767 72.3111C16.7767 72.452 16.7874 72.5694 16.8088 72.6633C16.8302 72.7572 16.8647 72.8276 16.9124 72.8746C16.9607 72.9208 17.0239 72.944 17.1019 72.944C17.1799 72.944 17.2428 72.9208 17.2904 72.8746C17.3388 72.8283 17.3736 72.7582 17.395 72.6643C17.4171 72.5704 17.4282 72.4527 17.4282 72.3111C17.4282 72.1723 17.4175 72.0563 17.3961 71.9631C17.3747 71.8692 17.3401 71.7988 17.2925 71.7518C17.2449 71.7042 17.1813 71.6803 17.1019 71.6803C17.0225 71.6803 16.959 71.7042 16.9113 71.7518C16.8637 71.7988 16.8292 71.8692 16.8078 71.9631C16.7871 72.0563 16.7767 72.1723 16.7767 72.3111Z" fill="#212121"/>
<path d="M35.0939 73.0703H34.1017V72.9263L34.5066 72.5152C34.5819 72.4392 34.6451 72.3715 34.6962 72.3121C34.748 72.2528 34.7873 72.1944 34.8142 72.1371C34.8412 72.0791 34.8546 72.0156 34.8546 71.9465C34.8546 71.8609 34.8291 71.7957 34.778 71.7508C34.7276 71.7052 34.661 71.6824 34.5781 71.6824C34.5056 71.6824 34.4414 71.6948 34.3854 71.7197C34.3295 71.7446 34.2722 71.7798 34.2135 71.8253L34.1213 71.7093C34.1614 71.6755 34.2049 71.6455 34.2518 71.6192C34.2995 71.593 34.3502 71.5723 34.4041 71.5571C34.4586 71.5419 34.5166 71.5343 34.5781 71.5343C34.6713 71.5343 34.7518 71.5505 34.8194 71.583C34.8871 71.6154 34.9392 71.6617 34.9758 71.7218C35.0131 71.7818 35.0318 71.8533 35.0318 71.9362C35.0318 72.0163 35.0159 72.0908 34.9841 72.1599C34.9523 72.2282 34.9078 72.2963 34.8505 72.3639C34.7932 72.4309 34.7262 72.502 34.6496 72.5773L34.3202 72.9056V72.9129H35.0939V73.0703Z" fill="#212121"/>
<path d="M44.0526 71.9092C44.0526 71.9769 44.0395 72.0356 44.0133 72.0853C43.987 72.135 43.9504 72.1758 43.9035 72.2075C43.8565 72.2386 43.8013 72.2604 43.7377 72.2728V72.2811C43.8579 72.2963 43.948 72.3349 44.0081 72.3971C44.0688 72.4592 44.0992 72.5407 44.0992 72.6415C44.0992 72.7292 44.0785 72.8069 44.0371 72.8746C43.9963 72.9422 43.9335 72.9954 43.8486 73.0341C43.7643 73.072 43.6563 73.091 43.5244 73.091C43.4443 73.091 43.3701 73.0845 43.3017 73.0713C43.234 73.0589 43.1691 73.0379 43.107 73.0082V72.8466C43.1698 72.8777 43.2382 72.9022 43.3121 72.9201C43.3859 72.9374 43.4574 72.946 43.5265 72.946C43.6646 72.946 43.7643 72.9187 43.8258 72.8642C43.8872 72.809 43.918 72.7337 43.918 72.6384C43.918 72.5728 43.9007 72.52 43.8662 72.4799C43.8323 72.4392 43.7833 72.4095 43.7191 72.3909C43.6556 72.3715 43.5789 72.3619 43.4892 72.3619H43.3379V72.2148H43.4902C43.5724 72.2148 43.6421 72.2027 43.6994 72.1785C43.7567 72.1544 43.8002 72.1205 43.8299 72.077C43.8603 72.0328 43.8755 71.9807 43.8755 71.9206C43.8755 71.844 43.85 71.7849 43.7989 71.7435C43.7478 71.7014 43.6784 71.6803 43.5907 71.6803C43.5368 71.6803 43.4878 71.6859 43.4436 71.6969C43.3994 71.708 43.358 71.7231 43.3193 71.7425C43.2806 71.7618 43.242 71.7843 43.2033 71.8098L43.1163 71.6917C43.1715 71.6489 43.2389 71.612 43.3183 71.5809C43.3977 71.5498 43.4878 71.5343 43.5886 71.5343C43.7433 71.5343 43.8593 71.5695 43.9366 71.6399C44.0139 71.7104 44.0526 71.8001 44.0526 71.9092Z" fill="#212121"/>
<path d="M52.9342 72.7192H52.7073V73.0703H52.5395V72.7192H51.8073V72.5742L52.5281 71.5478H52.7073V72.5638H52.9342V72.7192ZM52.5395 72.5638V72.0687C52.5395 72.0308 52.5399 71.9966 52.5406 71.9662C52.5413 71.9351 52.5423 71.9065 52.5437 71.8802C52.5451 71.8533 52.5461 71.8278 52.5468 71.8036C52.5482 71.7794 52.5492 71.7556 52.5499 71.7321H52.5416C52.5285 71.7597 52.5133 71.7891 52.496 71.8202C52.4795 71.8505 52.4625 71.8778 52.4453 71.902L51.9782 72.5638H52.5395Z" fill="#212121"/>
<path d="M61.0948 72.1444C61.1977 72.1444 61.2871 72.162 61.3631 72.1972C61.439 72.2317 61.4977 72.2821 61.5392 72.3484C61.5813 72.4147 61.6023 72.4951 61.6023 72.5897C61.6023 72.6933 61.5799 72.7827 61.535 72.858C61.4901 72.9326 61.4256 72.9902 61.3413 73.031C61.2571 73.071 61.1563 73.091 61.0389 73.091C60.9602 73.091 60.887 73.0841 60.8193 73.0703C60.7516 73.0565 60.6947 73.0358 60.6484 73.0082V72.8445C60.6988 72.8749 60.7599 72.8991 60.8317 72.917C60.9035 72.935 60.9733 72.944 61.041 72.944C61.1176 72.944 61.1846 72.9319 61.2419 72.9077C61.2999 72.8828 61.3448 72.8456 61.3765 72.7958C61.409 72.7454 61.4252 72.6823 61.4252 72.6063C61.4252 72.5055 61.3941 72.4278 61.332 72.3733C61.2705 72.318 61.1732 72.2904 61.0399 72.2904C60.9971 72.2904 60.9502 72.2938 60.8991 72.3008C60.848 72.3077 60.8058 72.3153 60.7727 72.3235L60.6857 72.2666L60.7437 71.556H61.4967V71.7135H60.8908L60.8525 72.1702C60.8787 72.1647 60.9125 72.1592 60.954 72.1537C60.9954 72.1475 61.0423 72.1444 61.0948 72.1444Z" fill="#212121"/>
<path d="M69.3828 72.423C69.3828 72.3318 69.389 72.2427 69.4015 72.1557C69.4146 72.0687 69.4363 71.988 69.4667 71.9134C69.4971 71.8381 69.5385 71.7722 69.591 71.7156C69.6435 71.6589 69.7087 71.6147 69.7868 71.583C69.8655 71.5505 69.9597 71.5343 70.0695 71.5343C70.1006 71.5343 70.1341 71.536 70.17 71.5395C70.2059 71.5422 70.2356 71.5471 70.2591 71.554V71.7021C70.2335 71.6931 70.2042 71.6866 70.171 71.6824C70.1386 71.6783 70.1058 71.6762 70.0726 71.6762C69.9442 71.6762 69.843 71.7042 69.7691 71.7601C69.696 71.816 69.6431 71.892 69.6107 71.988C69.5782 72.0832 69.5596 72.1906 69.5547 72.3101H69.5661C69.5875 72.2755 69.6148 72.2445 69.648 72.2169C69.6811 72.1885 69.7212 72.1661 69.7681 72.1495C69.8158 72.133 69.871 72.1247 69.9338 72.1247C70.0222 72.1247 70.0992 72.1426 70.1648 72.1785C70.2311 72.2144 70.2822 72.2666 70.3181 72.3349C70.3547 72.4033 70.373 72.4862 70.373 72.5835C70.373 72.6878 70.3537 72.7779 70.315 72.8538C70.2763 72.9298 70.2211 72.9885 70.1493 73.0299C70.0781 73.0707 69.9932 73.091 69.8945 73.091C69.8206 73.091 69.7526 73.0769 69.6904 73.0486C69.6283 73.0203 69.5741 72.9781 69.5278 72.9222C69.4822 72.8663 69.4467 72.7969 69.4211 72.714C69.3956 72.6305 69.3828 72.5334 69.3828 72.423ZM69.8924 72.946C69.9863 72.946 70.0616 72.916 70.1182 72.8559C70.1748 72.7958 70.2031 72.705 70.2031 72.5835C70.2031 72.4841 70.1779 72.4054 70.1275 72.3474C70.0771 72.2894 70.0012 72.2604 69.8997 72.2604C69.8306 72.2604 69.7705 72.2749 69.7194 72.3039C69.6683 72.3322 69.6286 72.3681 69.6003 72.4116C69.572 72.4551 69.5579 72.4993 69.5579 72.5442C69.5579 72.5897 69.5644 72.636 69.5775 72.6829C69.5913 72.7299 69.6121 72.7734 69.6397 72.8134C69.6673 72.8535 69.7022 72.8856 69.7443 72.9098C69.7864 72.9339 69.8358 72.946 69.8924 72.946Z" fill="#212121"/>
<path d="M78.0474 73.0703L78.6689 71.7135H77.8434V71.556H78.8532V71.6886L78.2359 73.0703H78.0474Z" fill="#212121"/>
<path d="M16.5068 70.5391H77.7568" stroke="#D4D4D4" stroke-width="0.265151"/>
<path d="M30.8547 56.786C24.2128 56.573 18.522 60.4236 16.5068 62.3755V44.9415H76.9614V46.1393C71.6951 45.8731 59.3731 46.4054 52.2153 50.6641C43.268 55.9875 39.1571 57.0521 30.8547 56.786Z" fill="#FFEB10"/>
<path d="M30.8547 33.2301C24.2128 33.4431 18.522 29.5925 16.5068 27.6406L16.5068 45.0746L76.9614 45.0746V43.8768C71.6951 44.143 59.3731 43.6107 52.2153 39.352C43.268 34.0286 39.1571 32.964 30.8547 33.2301Z" fill="#FFEB10"/>
<rect x="21.9416" y="42.676" width="6.91667" height="4.32576" rx="2.16288" fill="white"/>
<rect x="21.9416" y="42.676" width="6.91667" height="4.32576" rx="2.16288" stroke="#D6D6D6" stroke-width="0.265151"/>
<path d="M24.5729 44.9887H24.346V45.3398H24.1782V44.9887H23.446V44.8437L24.1668 43.8173H24.346V44.8334H24.5729V44.9887ZM24.1782 44.8334V44.3383C24.1782 44.3003 24.1786 44.2661 24.1793 44.2357C24.18 44.2047 24.181 44.176 24.1824 44.1498C24.1838 44.1228 24.1848 44.0973 24.1855 44.0731C24.1869 44.049 24.1879 44.0251 24.1886 44.0017H24.1803C24.1672 44.0293 24.152 44.0586 24.1347 44.0897C24.1182 44.1201 24.1012 44.1474 24.084 44.1715L23.6169 44.8334H24.1782ZM25.7194 44.5806C25.7194 44.7035 25.7101 44.8133 25.6915 44.91C25.6728 45.0067 25.6435 45.0885 25.6034 45.1555C25.5634 45.2225 25.5116 45.2736 25.4481 45.3088C25.3845 45.3433 25.3082 45.3606 25.2192 45.3606C25.1066 45.3606 25.0134 45.3298 24.9395 45.2684C24.8663 45.2069 24.8114 45.1182 24.7748 45.0022C24.7389 44.8855 24.721 44.745 24.721 44.5806C24.721 44.4191 24.7372 44.2803 24.7696 44.1643C24.8028 44.0476 24.856 43.9582 24.9292 43.896C25.0023 43.8332 25.099 43.8018 25.2192 43.8018C25.3331 43.8018 25.427 43.8328 25.5009 43.895C25.5748 43.9564 25.6297 44.0455 25.6656 44.1622C25.7015 44.2782 25.7194 44.4177 25.7194 44.5806ZM24.8939 44.5806C24.8939 44.7215 24.9046 44.8389 24.926 44.9328C24.9475 45.0267 24.982 45.0971 25.0296 45.1441C25.078 45.1904 25.1411 45.2135 25.2192 45.2135C25.2972 45.2135 25.36 45.1904 25.4077 45.1441C25.456 45.0978 25.4909 45.0277 25.5123 44.9338C25.5344 44.8399 25.5454 44.7222 25.5454 44.5806C25.5454 44.4419 25.5347 44.3258 25.5133 44.2326C25.4919 44.1387 25.4574 44.0683 25.4097 44.0213C25.3621 43.9737 25.2986 43.9499 25.2192 43.9499C25.1398 43.9499 25.0762 43.9737 25.0286 44.0213C24.9809 44.0683 24.9464 44.1387 24.925 44.2326C24.9043 44.3258 24.8939 44.4419 24.8939 44.5806ZM26.9333 44.5806C26.9333 44.7035 26.924 44.8133 26.9054 44.91C26.8867 45.0067 26.8574 45.0885 26.8173 45.1555C26.7773 45.2225 26.7255 45.2736 26.662 45.3088C26.5984 45.3433 26.5221 45.3606 26.4331 45.3606C26.3205 45.3606 26.2273 45.3298 26.1534 45.2684C26.0802 45.2069 26.0253 45.1182 25.9887 45.0022C25.9528 44.8855 25.9349 44.745 25.9349 44.5806C25.9349 44.4191 25.9511 44.2803 25.9835 44.1643C26.0167 44.0476 26.0699 43.9582 26.1431 43.896C26.2162 43.8332 26.3129 43.8018 26.4331 43.8018C26.547 43.8018 26.6409 43.8328 26.7148 43.895C26.7887 43.9564 26.8436 44.0455 26.8795 44.1622C26.9154 44.2782 26.9333 44.4177 26.9333 44.5806ZM26.1078 44.5806C26.1078 44.7215 26.1185 44.8389 26.1399 44.9328C26.1613 45.0267 26.1959 45.0971 26.2435 45.1441C26.2919 45.1904 26.355 45.2135 26.4331 45.2135C26.5111 45.2135 26.5739 45.1904 26.6216 45.1441C26.6699 45.0978 26.7048 45.0277 26.7262 44.9338C26.7483 44.8399 26.7593 44.7222 26.7593 44.5806C26.7593 44.4419 26.7486 44.3258 26.7272 44.2326C26.7058 44.1387 26.6713 44.0683 26.6236 44.0213C26.576 43.9737 26.5125 43.9499 26.4331 43.9499C26.3537 43.9499 26.2901 43.9737 26.2425 44.0213C26.1948 44.0683 26.1603 44.1387 26.1389 44.2326C26.1182 44.3258 26.1078 44.4419 26.1078 44.5806Z" fill="#212121"/>
<rect x="30.6916" y="42.9377" width="6.91667" height="3.97727" rx="1.98864" fill="white"/>
<rect x="30.6916" y="42.9377" width="6.91667" height="3.97727" rx="1.98864" stroke="#D6D6D6" stroke-width="0.265151"/>
<path d="M33.3229 45.0747H33.096V45.4258H32.9282V45.0747H32.196V44.9297L32.9168 43.9032H33.096V44.9193H33.3229V45.0747ZM32.9282 44.9193V44.4242C32.9282 44.3862 32.9286 44.3521 32.9293 44.3217C32.93 44.2906 32.931 44.2619 32.9324 44.2357C32.9338 44.2088 32.9348 44.1832 32.9355 44.1591C32.9369 44.1349 32.9379 44.1111 32.9386 44.0876H32.9303C32.9172 44.1152 32.902 44.1446 32.8847 44.1756C32.8682 44.206 32.8512 44.2333 32.834 44.2575L32.3669 44.9193H32.9282ZM34.4694 44.6666C34.4694 44.7895 34.4601 44.8993 34.4415 44.9959C34.4228 45.0926 34.3935 45.1744 34.3534 45.2414C34.3134 45.3084 34.2616 45.3595 34.1981 45.3947C34.1345 45.4292 34.0582 45.4465 33.9692 45.4465C33.8566 45.4465 33.7634 45.4158 33.6895 45.3543C33.6163 45.2929 33.5614 45.2041 33.5248 45.0881C33.4889 44.9714 33.471 44.8309 33.471 44.6666C33.471 44.505 33.4872 44.3662 33.5196 44.2502C33.5528 44.1335 33.606 44.0441 33.6792 43.9819C33.7523 43.9191 33.849 43.8877 33.9692 43.8877C34.0831 43.8877 34.177 43.9188 34.2509 43.9809C34.3248 44.0424 34.3797 44.1314 34.4156 44.2481C34.4515 44.3641 34.4694 44.5036 34.4694 44.6666ZM33.6439 44.6666C33.6439 44.8074 33.6546 44.9248 33.676 45.0187C33.6975 45.1126 33.732 45.1831 33.7796 45.23C33.828 45.2763 33.8911 45.2994 33.9692 45.2994C34.0472 45.2994 34.11 45.2763 34.1577 45.23C34.206 45.1838 34.2409 45.1137 34.2623 45.0198C34.2844 44.9259 34.2954 44.8081 34.2954 44.6666C34.2954 44.5278 34.2847 44.4118 34.2633 44.3186C34.2419 44.2247 34.2074 44.1542 34.1597 44.1073C34.1121 44.0596 34.0486 44.0358 33.9692 44.0358C33.8898 44.0358 33.8262 44.0596 33.7786 44.1073C33.7309 44.1542 33.6964 44.2247 33.675 44.3186C33.6543 44.4118 33.6439 44.5278 33.6439 44.6666ZM35.6833 44.6666C35.6833 44.7895 35.674 44.8993 35.6554 44.9959C35.6367 45.0926 35.6074 45.1744 35.5673 45.2414C35.5273 45.3084 35.4755 45.3595 35.412 45.3947C35.3484 45.4292 35.2721 45.4465 35.1831 45.4465C35.0705 45.4465 34.9773 45.4158 34.9034 45.3543C34.8302 45.2929 34.7753 45.2041 34.7387 45.0881C34.7028 44.9714 34.6849 44.8309 34.6849 44.6666C34.6849 44.505 34.7011 44.3662 34.7335 44.2502C34.7667 44.1335 34.8199 44.0441 34.8931 43.9819C34.9662 43.9191 35.0629 43.8877 35.1831 43.8877C35.297 43.8877 35.3909 43.9188 35.4648 43.9809C35.5387 44.0424 35.5936 44.1314 35.6295 44.2481C35.6654 44.3641 35.6833 44.5036 35.6833 44.6666ZM34.8578 44.6666C34.8578 44.8074 34.8685 44.9248 34.8899 45.0187C34.9113 45.1126 34.9459 45.1831 34.9935 45.23C35.0419 45.2763 35.105 45.2994 35.1831 45.2994C35.2611 45.2994 35.3239 45.2763 35.3716 45.23C35.4199 45.1838 35.4548 45.1137 35.4762 45.0198C35.4983 44.9259 35.5093 44.8081 35.5093 44.6666C35.5093 44.5278 35.4986 44.4118 35.4772 44.3186C35.4558 44.2247 35.4213 44.1542 35.3736 44.1073C35.326 44.0596 35.2625 44.0358 35.1831 44.0358C35.1037 44.0358 35.0401 44.0596 34.9925 44.1073C34.9448 44.1542 34.9103 44.2247 34.8889 44.3186C34.8682 44.4118 34.8578 44.5278 34.8578 44.6666Z" fill="#212121"/>
<rect x="39.4416" y="42.9377" width="6.91667" height="3.97727" rx="1.98864" fill="white"/>
<rect x="39.4416" y="42.9377" width="6.91667" height="3.97727" rx="1.98864" stroke="#D6D6D6" stroke-width="0.265151"/>
<path d="M42.0729 45.0747H41.846V45.4258H41.6782V45.0747H40.946V44.9297L41.6668 43.9032H41.846V44.9193H42.0729V45.0747ZM41.6782 44.9193V44.4242C41.6782 44.3862 41.6786 44.3521 41.6793 44.3217C41.68 44.2906 41.681 44.2619 41.6824 44.2357C41.6838 44.2088 41.6848 44.1832 41.6855 44.1591C41.6869 44.1349 41.6879 44.1111 41.6886 44.0876H41.6803C41.6672 44.1152 41.652 44.1446 41.6347 44.1756C41.6182 44.206 41.6012 44.2333 41.584 44.2575L41.1169 44.9193H41.6782ZM43.2194 44.6666C43.2194 44.7895 43.2101 44.8993 43.1915 44.9959C43.1728 45.0926 43.1435 45.1744 43.1034 45.2414C43.0634 45.3084 43.0116 45.3595 42.9481 45.3947C42.8845 45.4292 42.8082 45.4465 42.7192 45.4465C42.6066 45.4465 42.5134 45.4158 42.4395 45.3543C42.3663 45.2929 42.3114 45.2041 42.2748 45.0881C42.2389 44.9714 42.221 44.8309 42.221 44.6666C42.221 44.505 42.2372 44.3662 42.2696 44.2502C42.3028 44.1335 42.356 44.0441 42.4292 43.9819C42.5023 43.9191 42.599 43.8877 42.7192 43.8877C42.8331 43.8877 42.927 43.9188 43.0009 43.9809C43.0748 44.0424 43.1297 44.1314 43.1656 44.2481C43.2015 44.3641 43.2194 44.5036 43.2194 44.6666ZM42.3939 44.6666C42.3939 44.8074 42.4046 44.9248 42.426 45.0187C42.4475 45.1126 42.482 45.1831 42.5296 45.23C42.578 45.2763 42.6411 45.2994 42.7192 45.2994C42.7972 45.2994 42.86 45.2763 42.9077 45.23C42.956 45.1838 42.9909 45.1137 43.0123 45.0198C43.0344 44.9259 43.0454 44.8081 43.0454 44.6666C43.0454 44.5278 43.0347 44.4118 43.0133 44.3186C42.9919 44.2247 42.9574 44.1542 42.9097 44.1073C42.8621 44.0596 42.7986 44.0358 42.7192 44.0358C42.6398 44.0358 42.5762 44.0596 42.5286 44.1073C42.4809 44.1542 42.4464 44.2247 42.425 44.3186C42.4043 44.4118 42.3939 44.5278 42.3939 44.6666ZM44.4333 44.6666C44.4333 44.7895 44.424 44.8993 44.4054 44.9959C44.3867 45.0926 44.3574 45.1744 44.3173 45.2414C44.2773 45.3084 44.2255 45.3595 44.162 45.3947C44.0984 45.4292 44.0221 45.4465 43.9331 45.4465C43.8205 45.4465 43.7273 45.4158 43.6534 45.3543C43.5802 45.2929 43.5253 45.2041 43.4887 45.0881C43.4528 44.9714 43.4349 44.8309 43.4349 44.6666C43.4349 44.505 43.4511 44.3662 43.4835 44.2502C43.5167 44.1335 43.5699 44.0441 43.6431 43.9819C43.7162 43.9191 43.8129 43.8877 43.9331 43.8877C44.047 43.8877 44.1409 43.9188 44.2148 43.9809C44.2887 44.0424 44.3436 44.1314 44.3795 44.2481C44.4154 44.3641 44.4333 44.5036 44.4333 44.6666ZM43.6078 44.6666C43.6078 44.8074 43.6185 44.9248 43.6399 45.0187C43.6613 45.1126 43.6959 45.1831 43.7435 45.23C43.7919 45.2763 43.855 45.2994 43.9331 45.2994C44.0111 45.2994 44.0739 45.2763 44.1216 45.23C44.1699 45.1838 44.2048 45.1137 44.2262 45.0198C44.2483 44.9259 44.2593 44.8081 44.2593 44.6666C44.2593 44.5278 44.2486 44.4118 44.2272 44.3186C44.2058 44.2247 44.1713 44.1542 44.1236 44.1073C44.076 44.0596 44.0125 44.0358 43.9331 44.0358C43.8537 44.0358 43.7901 44.0596 43.7425 44.1073C43.6948 44.1542 43.6603 44.2247 43.6389 44.3186C43.6182 44.4118 43.6078 44.5278 43.6078 44.6666Z" fill="#212121"/>
<rect x="48.1916" y="42.9377" width="6.91667" height="3.97727" rx="1.98864" fill="white"/>
<rect x="48.1916" y="42.9377" width="6.91667" height="3.97727" rx="1.98864" stroke="#D6D6D6" stroke-width="0.265151"/>
<path d="M50.8229 45.0747H50.596V45.4258H50.4282V45.0747H49.696V44.9297L50.4168 43.9032H50.596V44.9193H50.8229V45.0747ZM50.4282 44.9193V44.4242C50.4282 44.3862 50.4286 44.3521 50.4293 44.3217C50.43 44.2906 50.431 44.2619 50.4324 44.2357C50.4338 44.2088 50.4348 44.1832 50.4355 44.1591C50.4369 44.1349 50.4379 44.1111 50.4386 44.0876H50.4303C50.4172 44.1152 50.402 44.1446 50.3847 44.1756C50.3682 44.206 50.3512 44.2333 50.334 44.2575L49.8669 44.9193H50.4282ZM51.9694 44.6666C51.9694 44.7895 51.9601 44.8993 51.9415 44.9959C51.9228 45.0926 51.8935 45.1744 51.8534 45.2414C51.8134 45.3084 51.7616 45.3595 51.6981 45.3947C51.6345 45.4292 51.5582 45.4465 51.4692 45.4465C51.3566 45.4465 51.2634 45.4158 51.1895 45.3543C51.1163 45.2929 51.0614 45.2041 51.0248 45.0881C50.9889 44.9714 50.971 44.8309 50.971 44.6666C50.971 44.505 50.9872 44.3662 51.0196 44.2502C51.0528 44.1335 51.106 44.0441 51.1792 43.9819C51.2523 43.9191 51.349 43.8877 51.4692 43.8877C51.5831 43.8877 51.677 43.9188 51.7509 43.9809C51.8248 44.0424 51.8797 44.1314 51.9156 44.2481C51.9515 44.3641 51.9694 44.5036 51.9694 44.6666ZM51.1439 44.6666C51.1439 44.8074 51.1546 44.9248 51.176 45.0187C51.1975 45.1126 51.232 45.1831 51.2796 45.23C51.328 45.2763 51.3911 45.2994 51.4692 45.2994C51.5472 45.2994 51.61 45.2763 51.6577 45.23C51.706 45.1838 51.7409 45.1137 51.7623 45.0198C51.7844 44.9259 51.7954 44.8081 51.7954 44.6666C51.7954 44.5278 51.7847 44.4118 51.7633 44.3186C51.7419 44.2247 51.7074 44.1542 51.6597 44.1073C51.6121 44.0596 51.5486 44.0358 51.4692 44.0358C51.3898 44.0358 51.3262 44.0596 51.2786 44.1073C51.2309 44.1542 51.1964 44.2247 51.175 44.3186C51.1543 44.4118 51.1439 44.5278 51.1439 44.6666ZM53.1833 44.6666C53.1833 44.7895 53.174 44.8993 53.1554 44.9959C53.1367 45.0926 53.1074 45.1744 53.0673 45.2414C53.0273 45.3084 52.9755 45.3595 52.912 45.3947C52.8484 45.4292 52.7721 45.4465 52.6831 45.4465C52.5705 45.4465 52.4773 45.4158 52.4034 45.3543C52.3302 45.2929 52.2753 45.2041 52.2387 45.0881C52.2028 44.9714 52.1849 44.8309 52.1849 44.6666C52.1849 44.505 52.2011 44.3662 52.2335 44.2502C52.2667 44.1335 52.3199 44.0441 52.3931 43.9819C52.4662 43.9191 52.5629 43.8877 52.6831 43.8877C52.797 43.8877 52.8909 43.9188 52.9648 43.9809C53.0387 44.0424 53.0936 44.1314 53.1295 44.2481C53.1654 44.3641 53.1833 44.5036 53.1833 44.6666ZM52.3578 44.6666C52.3578 44.8074 52.3685 44.9248 52.3899 45.0187C52.4113 45.1126 52.4459 45.1831 52.4935 45.23C52.5419 45.2763 52.605 45.2994 52.6831 45.2994C52.7611 45.2994 52.8239 45.2763 52.8716 45.23C52.9199 45.1838 52.9548 45.1137 52.9762 45.0198C52.9983 44.9259 53.0093 44.8081 53.0093 44.6666C53.0093 44.5278 52.9986 44.4118 52.9772 44.3186C52.9558 44.2247 52.9213 44.1542 52.8736 44.1073C52.826 44.0596 52.7625 44.0358 52.6831 44.0358C52.6037 44.0358 52.5401 44.0596 52.4925 44.1073C52.4448 44.1542 52.4103 44.2247 52.3889 44.3186C52.3682 44.4118 52.3578 44.5278 52.3578 44.6666Z" fill="#212121"/>
<rect x="56.9416" y="42.9377" width="6.91667" height="3.97727" rx="1.98864" fill="white"/>
<rect x="56.9416" y="42.9377" width="6.91667" height="3.97727" rx="1.98864" stroke="#D6D6D6" stroke-width="0.265151"/>
<path d="M59.5729 45.0747H59.346V45.4258H59.1782V45.0747H58.446V44.9297L59.1668 43.9032H59.346V44.9193H59.5729V45.0747ZM59.1782 44.9193V44.4242C59.1782 44.3862 59.1786 44.3521 59.1793 44.3217C59.18 44.2906 59.181 44.2619 59.1824 44.2357C59.1838 44.2088 59.1848 44.1832 59.1855 44.1591C59.1869 44.1349 59.1879 44.1111 59.1886 44.0876H59.1803C59.1672 44.1152 59.152 44.1446 59.1347 44.1756C59.1182 44.206 59.1012 44.2333 59.084 44.2575L58.6169 44.9193H59.1782ZM60.7194 44.6666C60.7194 44.7895 60.7101 44.8993 60.6915 44.9959C60.6728 45.0926 60.6435 45.1744 60.6034 45.2414C60.5634 45.3084 60.5116 45.3595 60.4481 45.3947C60.3845 45.4292 60.3082 45.4465 60.2192 45.4465C60.1066 45.4465 60.0134 45.4158 59.9395 45.3543C59.8663 45.2929 59.8114 45.2041 59.7748 45.0881C59.7389 44.9714 59.721 44.8309 59.721 44.6666C59.721 44.505 59.7372 44.3662 59.7696 44.2502C59.8028 44.1335 59.856 44.0441 59.9292 43.9819C60.0023 43.9191 60.099 43.8877 60.2192 43.8877C60.3331 43.8877 60.427 43.9188 60.5009 43.9809C60.5748 44.0424 60.6297 44.1314 60.6656 44.2481C60.7015 44.3641 60.7194 44.5036 60.7194 44.6666ZM59.8939 44.6666C59.8939 44.8074 59.9046 44.9248 59.926 45.0187C59.9475 45.1126 59.982 45.1831 60.0296 45.23C60.078 45.2763 60.1411 45.2994 60.2192 45.2994C60.2972 45.2994 60.36 45.2763 60.4077 45.23C60.456 45.1838 60.4909 45.1137 60.5123 45.0198C60.5344 44.9259 60.5454 44.8081 60.5454 44.6666C60.5454 44.5278 60.5347 44.4118 60.5133 44.3186C60.4919 44.2247 60.4574 44.1542 60.4097 44.1073C60.3621 44.0596 60.2986 44.0358 60.2192 44.0358C60.1398 44.0358 60.0762 44.0596 60.0286 44.1073C59.9809 44.1542 59.9464 44.2247 59.925 44.3186C59.9043 44.4118 59.8939 44.5278 59.8939 44.6666ZM61.9333 44.6666C61.9333 44.7895 61.924 44.8993 61.9054 44.9959C61.8867 45.0926 61.8574 45.1744 61.8173 45.2414C61.7773 45.3084 61.7255 45.3595 61.662 45.3947C61.5984 45.4292 61.5221 45.4465 61.4331 45.4465C61.3205 45.4465 61.2273 45.4158 61.1534 45.3543C61.0802 45.2929 61.0253 45.2041 60.9887 45.0881C60.9528 44.9714 60.9349 44.8309 60.9349 44.6666C60.9349 44.505 60.9511 44.3662 60.9835 44.2502C61.0167 44.1335 61.0699 44.0441 61.1431 43.9819C61.2162 43.9191 61.3129 43.8877 61.4331 43.8877C61.547 43.8877 61.6409 43.9188 61.7148 43.9809C61.7887 44.0424 61.8436 44.1314 61.8795 44.2481C61.9154 44.3641 61.9333 44.5036 61.9333 44.6666ZM61.1078 44.6666C61.1078 44.8074 61.1185 44.9248 61.1399 45.0187C61.1613 45.1126 61.1959 45.1831 61.2435 45.23C61.2919 45.2763 61.355 45.2994 61.4331 45.2994C61.5111 45.2994 61.5739 45.2763 61.6216 45.23C61.6699 45.1838 61.7048 45.1137 61.7262 45.0198C61.7483 44.9259 61.7593 44.8081 61.7593 44.6666C61.7593 44.5278 61.7486 44.4118 61.7272 44.3186C61.7058 44.2247 61.6713 44.1542 61.6236 44.1073C61.576 44.0596 61.5125 44.0358 61.4331 44.0358C61.3537 44.0358 61.2901 44.0596 61.2425 44.1073C61.1948 44.1542 61.1603 44.2247 61.1389 44.3186C61.1182 44.4118 61.1078 44.5278 61.1078 44.6666Z" fill="#212121"/>
<rect x="65.6916" y="42.9377" width="6.91667" height="3.97727" rx="1.98864" fill="white"/>
<rect x="65.6916" y="42.9377" width="6.91667" height="3.97727" rx="1.98864" stroke="#D6D6D6" stroke-width="0.265151"/>
<path d="M68.3229 45.0747H68.096V45.4258H67.9282V45.0747H67.196V44.9297L67.9168 43.9032H68.096V44.9193H68.3229V45.0747ZM67.9282 44.9193V44.4242C67.9282 44.3862 67.9286 44.3521 67.9293 44.3217C67.93 44.2906 67.931 44.2619 67.9324 44.2357C67.9338 44.2088 67.9348 44.1832 67.9355 44.1591C67.9369 44.1349 67.9379 44.1111 67.9386 44.0876H67.9303C67.9172 44.1152 67.902 44.1446 67.8847 44.1756C67.8682 44.206 67.8512 44.2333 67.834 44.2575L67.3669 44.9193H67.9282ZM69.4694 44.6666C69.4694 44.7895 69.4601 44.8993 69.4415 44.9959C69.4228 45.0926 69.3935 45.1744 69.3534 45.2414C69.3134 45.3084 69.2616 45.3595 69.1981 45.3947C69.1345 45.4292 69.0582 45.4465 68.9692 45.4465C68.8566 45.4465 68.7634 45.4158 68.6895 45.3543C68.6163 45.2929 68.5614 45.2041 68.5248 45.0881C68.4889 44.9714 68.471 44.8309 68.471 44.6666C68.471 44.505 68.4872 44.3662 68.5196 44.2502C68.5528 44.1335 68.606 44.0441 68.6792 43.9819C68.7523 43.9191 68.849 43.8877 68.9692 43.8877C69.0831 43.8877 69.177 43.9188 69.2509 43.9809C69.3248 44.0424 69.3797 44.1314 69.4156 44.2481C69.4515 44.3641 69.4694 44.5036 69.4694 44.6666ZM68.6439 44.6666C68.6439 44.8074 68.6546 44.9248 68.676 45.0187C68.6975 45.1126 68.732 45.1831 68.7796 45.23C68.828 45.2763 68.8911 45.2994 68.9692 45.2994C69.0472 45.2994 69.11 45.2763 69.1577 45.23C69.206 45.1838 69.2409 45.1137 69.2623 45.0198C69.2844 44.9259 69.2954 44.8081 69.2954 44.6666C69.2954 44.5278 69.2847 44.4118 69.2633 44.3186C69.2419 44.2247 69.2074 44.1542 69.1597 44.1073C69.1121 44.0596 69.0486 44.0358 68.9692 44.0358C68.8898 44.0358 68.8262 44.0596 68.7786 44.1073C68.7309 44.1542 68.6964 44.2247 68.675 44.3186C68.6543 44.4118 68.6439 44.5278 68.6439 44.6666ZM70.6833 44.6666C70.6833 44.7895 70.674 44.8993 70.6554 44.9959C70.6367 45.0926 70.6074 45.1744 70.5673 45.2414C70.5273 45.3084 70.4755 45.3595 70.412 45.3947C70.3484 45.4292 70.2721 45.4465 70.1831 45.4465C70.0705 45.4465 69.9773 45.4158 69.9034 45.3543C69.8302 45.2929 69.7753 45.2041 69.7387 45.0881C69.7028 44.9714 69.6849 44.8309 69.6849 44.6666C69.6849 44.505 69.7011 44.3662 69.7335 44.2502C69.7667 44.1335 69.8199 44.0441 69.8931 43.9819C69.9662 43.9191 70.0629 43.8877 70.1831 43.8877C70.297 43.8877 70.3909 43.9188 70.4648 43.9809C70.5387 44.0424 70.5936 44.1314 70.6295 44.2481C70.6654 44.3641 70.6833 44.5036 70.6833 44.6666ZM69.8578 44.6666C69.8578 44.8074 69.8685 44.9248 69.8899 45.0187C69.9113 45.1126 69.9459 45.1831 69.9935 45.23C70.0419 45.2763 70.105 45.2994 70.1831 45.2994C70.2611 45.2994 70.3239 45.2763 70.3716 45.23C70.4199 45.1838 70.4548 45.1137 70.4762 45.0198C70.4983 44.9259 70.5093 44.8081 70.5093 44.6666C70.5093 44.5278 70.4986 44.4118 70.4772 44.3186C70.4558 44.2247 70.4213 44.1542 70.3736 44.1073C70.326 44.0596 70.2625 44.0358 70.1831 44.0358C70.1037 44.0358 70.0401 44.0596 69.9925 44.1073C69.9448 44.1542 69.9103 44.2247 69.8889 44.3186C69.8682 44.4118 69.8578 44.5278 69.8578 44.6666Z" fill="#212121"/>
</svg>
