<svg width="369" height="355" viewBox="0 0 369 355" fill="none" xmlns="http://www.w3.org/2000/svg">
<g clip-path="url(#clip0_11650_120413)">
<path d="M0 16C0 7.16344 7.16344 0 16 0H353C361.837 0 369 7.16344 369 16V339C369 347.837 361.837 355 353 355H16C7.16344 355 0 347.837 0 339V16Z" fill="white"/>
<path d="M33.0957 32.5576C33.0957 33.5596 32.9668 34.4736 32.709 35.2998C32.4512 36.126 32.0645 36.832 31.5488 37.418C31.0332 38.0039 30.3828 38.4463 29.5977 38.7451L32.6562 42.0586H29.8438L27.4268 39.167C27.3682 39.167 27.3096 39.167 27.251 39.167C27.1982 39.1729 27.1455 39.1758 27.0928 39.1758C26.0674 39.1758 25.1768 39.0176 24.4209 38.7012C23.6709 38.3848 23.0469 37.9336 22.5488 37.3477C22.0566 36.7617 21.6875 36.0615 21.4414 35.2471C21.1953 34.4326 21.0723 33.5303 21.0723 32.54C21.0723 31.2158 21.2891 30.0615 21.7227 29.0771C22.1621 28.0869 22.8271 27.3193 23.7178 26.7744C24.6143 26.2236 25.7451 25.9482 27.1104 25.9482C28.4463 25.9482 29.5566 26.2207 30.4414 26.7656C31.3262 27.3105 31.9883 28.0781 32.4277 29.0684C32.873 30.0527 33.0957 31.2158 33.0957 32.5576ZM23.2871 32.5576C23.2871 33.5479 23.4219 34.4062 23.6914 35.1328C23.9609 35.8535 24.374 36.4102 24.9307 36.8027C25.4932 37.1895 26.2139 37.3828 27.0928 37.3828C27.9775 37.3828 28.6982 37.1895 29.2549 36.8027C29.8115 36.4102 30.2217 35.8535 30.4854 35.1328C30.749 34.4062 30.8809 33.5479 30.8809 32.5576C30.8809 31.0518 30.5791 29.874 29.9756 29.0244C29.3779 28.1689 28.4229 27.7412 27.1104 27.7412C26.2314 27.7412 25.5078 27.9346 24.9395 28.3213C24.377 28.708 23.9609 29.2617 23.6914 29.9824C23.4219 30.6973 23.2871 31.5557 23.2871 32.5576ZM44.126 29.2705V39H42.5L42.2188 37.6904H42.1045C41.8994 38.0244 41.6387 38.3027 41.3223 38.5254C41.0059 38.7422 40.6543 38.9033 40.2676 39.0088C39.8809 39.1201 39.4736 39.1758 39.0459 39.1758C38.3135 39.1758 37.6865 39.0527 37.165 38.8066C36.6494 38.5547 36.2539 38.168 35.9785 37.6465C35.7031 37.125 35.5654 36.4512 35.5654 35.625V29.2705H37.6396V35.2383C37.6396 35.9941 37.792 36.5596 38.0967 36.9346C38.4072 37.3096 38.8877 37.4971 39.5381 37.4971C40.165 37.4971 40.6631 37.3682 41.0322 37.1104C41.4014 36.8525 41.6621 36.4717 41.8145 35.9678C41.9727 35.4639 42.0518 34.8457 42.0518 34.1133V29.2705H44.126ZM50.9639 29.0859C51.8311 29.0859 52.5752 29.2646 53.1963 29.6221C53.8174 29.9795 54.2949 30.4863 54.6289 31.1426C54.9629 31.7988 55.1299 32.584 55.1299 33.498V34.6055H48.6348C48.6582 35.5488 48.9102 36.2754 49.3906 36.7852C49.877 37.2949 50.5566 37.5498 51.4297 37.5498C52.0508 37.5498 52.6074 37.4912 53.0996 37.374C53.5977 37.251 54.1104 37.0723 54.6377 36.8379V38.5166C54.1514 38.7451 53.6562 38.9121 53.1523 39.0176C52.6484 39.123 52.0449 39.1758 51.3418 39.1758C50.3867 39.1758 49.5459 38.9912 48.8193 38.6221C48.0986 38.2471 47.5332 37.6904 47.123 36.9521C46.7188 36.2139 46.5166 35.2969 46.5166 34.2012C46.5166 33.1113 46.7012 32.1855 47.0703 31.4238C47.4395 30.6621 47.958 30.082 48.626 29.6836C49.2939 29.2852 50.0732 29.0859 50.9639 29.0859ZM50.9639 30.6416C50.3135 30.6416 49.7861 30.8525 49.3818 31.2744C48.9834 31.6963 48.749 32.3145 48.6787 33.1289H53.1084C53.1025 32.6426 53.0205 32.2119 52.8623 31.8369C52.71 31.4619 52.4756 31.1689 52.1592 30.958C51.8486 30.7471 51.4502 30.6416 50.9639 30.6416ZM65.9404 29.2705V39H64.3145L64.0332 37.6904H63.9189C63.7139 38.0244 63.4531 38.3027 63.1367 38.5254C62.8203 38.7422 62.4688 38.9033 62.082 39.0088C61.6953 39.1201 61.2881 39.1758 60.8604 39.1758C60.1279 39.1758 59.501 39.0527 58.9795 38.8066C58.4639 38.5547 58.0684 38.168 57.793 37.6465C57.5176 37.125 57.3799 36.4512 57.3799 35.625V29.2705H59.4541V35.2383C59.4541 35.9941 59.6064 36.5596 59.9111 36.9346C60.2217 37.3096 60.7021 37.4971 61.3525 37.4971C61.9795 37.4971 62.4775 37.3682 62.8467 37.1104C63.2158 36.8525 63.4766 36.4717 63.6289 35.9678C63.7871 35.4639 63.8662 34.8457 63.8662 34.1133V29.2705H65.9404ZM72.7783 29.0859C73.6455 29.0859 74.3896 29.2646 75.0107 29.6221C75.6318 29.9795 76.1094 30.4863 76.4434 31.1426C76.7773 31.7988 76.9443 32.584 76.9443 33.498V34.6055H70.4492C70.4727 35.5488 70.7246 36.2754 71.2051 36.7852C71.6914 37.2949 72.3711 37.5498 73.2441 37.5498C73.8652 37.5498 74.4219 37.4912 74.9141 37.374C75.4121 37.251 75.9248 37.0723 76.4521 36.8379V38.5166C75.9658 38.7451 75.4707 38.9121 74.9668 39.0176C74.4629 39.123 73.8594 39.1758 73.1562 39.1758C72.2012 39.1758 71.3604 38.9912 70.6338 38.6221C69.9131 38.2471 69.3477 37.6904 68.9375 36.9521C68.5332 36.2139 68.3311 35.2969 68.3311 34.2012C68.3311 33.1113 68.5156 32.1855 68.8848 31.4238C69.2539 30.6621 69.7725 30.082 70.4404 29.6836C71.1084 29.2852 71.8877 29.0859 72.7783 29.0859ZM72.7783 30.6416C72.1279 30.6416 71.6006 30.8525 71.1963 31.2744C70.7979 31.6963 70.5635 32.3145 70.4932 33.1289H74.9229C74.917 32.6426 74.835 32.2119 74.6768 31.8369C74.5244 31.4619 74.29 31.1689 73.9736 30.958C73.6631 30.7471 73.2646 30.6416 72.7783 30.6416ZM87.8252 29.0859C88.6924 29.0859 89.4365 29.2646 90.0576 29.6221C90.6787 29.9795 91.1562 30.4863 91.4902 31.1426C91.8242 31.7988 91.9912 32.584 91.9912 33.498V34.6055H85.4961C85.5195 35.5488 85.7715 36.2754 86.252 36.7852C86.7383 37.2949 87.418 37.5498 88.291 37.5498C88.9121 37.5498 89.4688 37.4912 89.9609 37.374C90.459 37.251 90.9717 37.0723 91.499 36.8379V38.5166C91.0127 38.7451 90.5176 38.9121 90.0137 39.0176C89.5098 39.123 88.9062 39.1758 88.2031 39.1758C87.248 39.1758 86.4072 38.9912 85.6807 38.6221C84.96 38.2471 84.3945 37.6904 83.9844 36.9521C83.5801 36.2139 83.3779 35.2969 83.3779 34.2012C83.3779 33.1113 83.5625 32.1855 83.9316 31.4238C84.3008 30.6621 84.8193 30.082 85.4873 29.6836C86.1553 29.2852 86.9346 29.0859 87.8252 29.0859ZM87.8252 30.6416C87.1748 30.6416 86.6475 30.8525 86.2432 31.2744C85.8447 31.6963 85.6104 32.3145 85.54 33.1289H89.9697C89.9639 32.6426 89.8818 32.2119 89.7236 31.8369C89.5713 31.4619 89.3369 31.1689 89.0205 30.958C88.71 30.7471 88.3115 30.6416 87.8252 30.6416ZM96.5439 39L92.8438 29.2705H95.0322L97.0361 34.9834C97.165 35.3467 97.2822 35.7393 97.3877 36.1611C97.4932 36.583 97.5664 36.9375 97.6074 37.2246H97.6777C97.7188 36.9258 97.7979 36.5684 97.915 36.1523C98.0322 35.7305 98.1523 35.3408 98.2754 34.9834L100.279 29.2705H102.459L98.7588 39H96.5439ZM107.812 29.0859C108.679 29.0859 109.423 29.2646 110.044 29.6221C110.665 29.9795 111.143 30.4863 111.477 31.1426C111.811 31.7988 111.978 32.584 111.978 33.498V34.6055H105.482C105.506 35.5488 105.758 36.2754 106.238 36.7852C106.725 37.2949 107.404 37.5498 108.277 37.5498C108.898 37.5498 109.455 37.4912 109.947 37.374C110.445 37.251 110.958 37.0723 111.485 36.8379V38.5166C110.999 38.7451 110.504 38.9121 110 39.0176C109.496 39.123 108.893 39.1758 108.189 39.1758C107.234 39.1758 106.394 38.9912 105.667 38.6221C104.946 38.2471 104.381 37.6904 103.971 36.9521C103.566 36.2139 103.364 35.2969 103.364 34.2012C103.364 33.1113 103.549 32.1855 103.918 31.4238C104.287 30.6621 104.806 30.082 105.474 29.6836C106.142 29.2852 106.921 29.0859 107.812 29.0859ZM107.812 30.6416C107.161 30.6416 106.634 30.8525 106.229 31.2744C105.831 31.6963 105.597 32.3145 105.526 33.1289H109.956C109.95 32.6426 109.868 32.2119 109.71 31.8369C109.558 31.4619 109.323 31.1689 109.007 30.958C108.696 30.7471 108.298 30.6416 107.812 30.6416ZM119.378 29.0859C120.474 29.0859 121.326 29.3701 121.936 29.9385C122.551 30.501 122.858 31.4062 122.858 32.6543V39H120.793V33.041C120.793 32.2852 120.638 31.7197 120.327 31.3447C120.017 30.9639 119.536 30.7734 118.886 30.7734C117.942 30.7734 117.286 31.0635 116.917 31.6436C116.554 32.2236 116.372 33.0645 116.372 34.166V39H114.307V29.2705H115.915L116.205 30.5889H116.319C116.53 30.249 116.791 29.9707 117.102 29.7539C117.418 29.5312 117.77 29.3643 118.156 29.2529C118.549 29.1416 118.956 29.0859 119.378 29.0859ZM129.371 37.5059C129.641 37.5059 129.907 37.4824 130.171 37.4355C130.435 37.3828 130.675 37.3213 130.892 37.251V38.8154C130.663 38.915 130.367 39 130.004 39.0703C129.641 39.1406 129.263 39.1758 128.87 39.1758C128.319 39.1758 127.824 39.085 127.385 38.9033C126.945 38.7158 126.597 38.3965 126.339 37.9453C126.081 37.4941 125.952 36.8701 125.952 36.0732V30.8438H124.625V29.9209L126.049 29.1914L126.726 27.1084H128.026V29.2705H130.812V30.8438H128.026V36.0469C128.026 36.5391 128.149 36.9053 128.396 37.1455C128.642 37.3857 128.967 37.5059 129.371 37.5059ZM139.408 36.2227C139.408 36.8613 139.253 37.4004 138.942 37.8398C138.632 38.2793 138.178 38.6133 137.58 38.8418C136.988 39.0645 136.262 39.1758 135.4 39.1758C134.721 39.1758 134.135 39.126 133.643 39.0264C133.156 38.9326 132.696 38.7861 132.263 38.5869V36.8027C132.726 37.0195 133.244 37.207 133.818 37.3652C134.398 37.5234 134.946 37.6025 135.462 37.6025C136.142 37.6025 136.631 37.4971 136.93 37.2861C137.229 37.0693 137.378 36.7822 137.378 36.4248C137.378 36.2139 137.316 36.0264 137.193 35.8623C137.076 35.6924 136.854 35.5195 136.525 35.3438C136.203 35.1621 135.729 34.9453 135.102 34.6934C134.486 34.4473 133.968 34.2012 133.546 33.9551C133.124 33.709 132.805 33.4131 132.588 33.0674C132.371 32.7158 132.263 32.2676 132.263 31.7227C132.263 30.8613 132.603 30.208 133.282 29.7627C133.968 29.3115 134.873 29.0859 135.998 29.0859C136.596 29.0859 137.158 29.1475 137.686 29.2705C138.219 29.3877 138.74 29.5605 139.25 29.7891L138.6 31.3447C138.16 31.1514 137.718 30.9932 137.272 30.8701C136.833 30.7412 136.385 30.6768 135.928 30.6768C135.395 30.6768 134.987 30.7588 134.706 30.9229C134.431 31.0869 134.293 31.3213 134.293 31.626C134.293 31.8545 134.36 32.0479 134.495 32.2061C134.63 32.3643 134.861 32.5225 135.189 32.6807C135.523 32.8389 135.986 33.0352 136.578 33.2695C137.158 33.4922 137.659 33.7266 138.081 33.9727C138.509 34.2129 138.837 34.5088 139.065 34.8604C139.294 35.2119 139.408 35.666 139.408 36.2227ZM151.177 30.8438H148.812V39H146.747V30.8438H145.156V29.8506L146.747 29.2441V28.5674C146.747 27.7412 146.876 27.085 147.134 26.5986C147.397 26.1123 147.772 25.7637 148.259 25.5527C148.751 25.3359 149.337 25.2275 150.017 25.2275C150.462 25.2275 150.869 25.2656 151.238 25.3418C151.607 25.4121 151.918 25.4941 152.17 25.5879L151.634 27.1523C151.435 27.0879 151.212 27.0293 150.966 26.9766C150.72 26.918 150.456 26.8887 150.175 26.8887C149.706 26.8887 149.36 27.0352 149.138 27.3281C148.921 27.6211 148.812 28.0488 148.812 28.6113V29.2705H151.177V30.8438ZM161.451 34.1133C161.451 34.9219 161.346 35.6396 161.135 36.2666C160.924 36.8936 160.616 37.4238 160.212 37.8574C159.808 38.2852 159.321 38.6133 158.753 38.8418C158.185 39.0645 157.543 39.1758 156.828 39.1758C156.16 39.1758 155.548 39.0645 154.991 38.8418C154.435 38.6133 153.951 38.2852 153.541 37.8574C153.137 37.4238 152.823 36.8936 152.601 36.2666C152.378 35.6396 152.267 34.9219 152.267 34.1133C152.267 33.041 152.451 32.1328 152.82 31.3887C153.195 30.6387 153.729 30.0674 154.42 29.6748C155.111 29.2822 155.935 29.0859 156.89 29.0859C157.786 29.0859 158.577 29.2822 159.263 29.6748C159.948 30.0674 160.484 30.6387 160.871 31.3887C161.258 32.1387 161.451 33.0469 161.451 34.1133ZM154.394 34.1133C154.394 34.8223 154.479 35.4287 154.648 35.9326C154.824 36.4365 155.094 36.8232 155.457 37.0928C155.82 37.3564 156.289 37.4883 156.863 37.4883C157.438 37.4883 157.906 37.3564 158.27 37.0928C158.633 36.8232 158.899 36.4365 159.069 35.9326C159.239 35.4287 159.324 34.8223 159.324 34.1133C159.324 33.4043 159.239 32.8037 159.069 32.3115C158.899 31.8135 158.633 31.4355 158.27 31.1777C157.906 30.9141 157.435 30.7822 156.854 30.7822C155.999 30.7822 155.375 31.0693 154.982 31.6436C154.59 32.2178 154.394 33.041 154.394 34.1133ZM168.755 29.0859C168.919 29.0859 169.098 29.0947 169.291 29.1123C169.484 29.1299 169.651 29.1533 169.792 29.1826L169.599 31.1162C169.476 31.0811 169.323 31.0547 169.142 31.0371C168.966 31.0195 168.808 31.0107 168.667 31.0107C168.298 31.0107 167.946 31.0723 167.612 31.1953C167.278 31.3125 166.982 31.4941 166.725 31.7402C166.467 31.9805 166.265 32.2822 166.118 32.6455C165.972 33.0088 165.898 33.4307 165.898 33.9111V39H163.824V29.2705H165.441L165.723 30.9844H165.819C166.013 30.6387 166.253 30.3223 166.54 30.0352C166.827 29.748 167.155 29.5195 167.524 29.3496C167.899 29.1738 168.31 29.0859 168.755 29.0859ZM181.13 30.8438H178.766V39H176.7V30.8438H175.109V29.8506L176.7 29.2441V28.5674C176.7 27.7412 176.829 27.085 177.087 26.5986C177.351 26.1123 177.726 25.7637 178.212 25.5527C178.704 25.3359 179.29 25.2275 179.97 25.2275C180.415 25.2275 180.822 25.2656 181.191 25.3418C181.561 25.4121 181.871 25.4941 182.123 25.5879L181.587 27.1523C181.388 27.0879 181.165 27.0293 180.919 26.9766C180.673 26.918 180.409 26.8887 180.128 26.8887C179.659 26.8887 179.313 27.0352 179.091 27.3281C178.874 27.6211 178.766 28.0488 178.766 28.6113V29.2705H181.13V30.8438ZM191.404 34.1133C191.404 34.9219 191.299 35.6396 191.088 36.2666C190.877 36.8936 190.569 37.4238 190.165 37.8574C189.761 38.2852 189.274 38.6133 188.706 38.8418C188.138 39.0645 187.496 39.1758 186.781 39.1758C186.113 39.1758 185.501 39.0645 184.944 38.8418C184.388 38.6133 183.904 38.2852 183.494 37.8574C183.09 37.4238 182.776 36.8936 182.554 36.2666C182.331 35.6396 182.22 34.9219 182.22 34.1133C182.22 33.041 182.404 32.1328 182.773 31.3887C183.148 30.6387 183.682 30.0674 184.373 29.6748C185.064 29.2822 185.888 29.0859 186.843 29.0859C187.739 29.0859 188.53 29.2822 189.216 29.6748C189.901 30.0674 190.438 30.6387 190.824 31.3887C191.211 32.1387 191.404 33.0469 191.404 34.1133ZM184.347 34.1133C184.347 34.8223 184.432 35.4287 184.602 35.9326C184.777 36.4365 185.047 36.8232 185.41 37.0928C185.773 37.3564 186.242 37.4883 186.816 37.4883C187.391 37.4883 187.859 37.3564 188.223 37.0928C188.586 36.8232 188.853 36.4365 189.022 35.9326C189.192 35.4287 189.277 34.8223 189.277 34.1133C189.277 33.4043 189.192 32.8037 189.022 32.3115C188.853 31.8135 188.586 31.4355 188.223 31.1777C187.859 30.9141 187.388 30.7822 186.808 30.7822C185.952 30.7822 185.328 31.0693 184.936 31.6436C184.543 32.2178 184.347 33.041 184.347 34.1133ZM198.708 29.0859C198.872 29.0859 199.051 29.0947 199.244 29.1123C199.438 29.1299 199.604 29.1533 199.745 29.1826L199.552 31.1162C199.429 31.0811 199.276 31.0547 199.095 31.0371C198.919 31.0195 198.761 31.0107 198.62 31.0107C198.251 31.0107 197.899 31.0723 197.565 31.1953C197.231 31.3125 196.936 31.4941 196.678 31.7402C196.42 31.9805 196.218 32.2822 196.071 32.6455C195.925 33.0088 195.852 33.4307 195.852 33.9111V39H193.777V29.2705H195.395L195.676 30.9844H195.772C195.966 30.6387 196.206 30.3223 196.493 30.0352C196.78 29.748 197.108 29.5195 197.478 29.3496C197.853 29.1738 198.263 29.0859 198.708 29.0859ZM203.612 25.3242V31.9336C203.612 32.2324 203.601 32.5605 203.577 32.918C203.554 33.2695 203.53 33.6006 203.507 33.9111H203.551C203.703 33.7061 203.885 33.4658 204.096 33.1904C204.312 32.915 204.518 32.6748 204.711 32.4697L207.682 29.2705H210.055L206.161 33.4541L210.31 39H207.884L204.772 34.7285L203.612 35.7217V39H201.547V25.3242H203.612ZM213.939 39H211.865V25.3242H213.939V39ZM218.958 29.2705V39H216.893V29.2705H218.958ZM217.938 25.5439C218.255 25.5439 218.527 25.6289 218.756 25.7988C218.99 25.9688 219.107 26.2617 219.107 26.6777C219.107 27.0879 218.99 27.3809 218.756 27.5566C218.527 27.7266 218.255 27.8115 217.938 27.8115C217.61 27.8115 217.332 27.7266 217.104 27.5566C216.881 27.3809 216.77 27.0879 216.77 26.6777C216.77 26.2617 216.881 25.9688 217.104 25.7988C217.332 25.6289 217.61 25.5439 217.938 25.5439ZM226.78 30.8438H224.416V39H222.351V30.8438H220.76V29.8506L222.351 29.2441V28.5674C222.351 27.7412 222.479 27.085 222.737 26.5986C223.001 26.1123 223.376 25.7637 223.862 25.5527C224.354 25.3359 224.94 25.2275 225.62 25.2275C226.065 25.2275 226.473 25.2656 226.842 25.3418C227.211 25.4121 227.521 25.4941 227.773 25.5879L227.237 27.1523C227.038 27.0879 226.815 27.0293 226.569 26.9766C226.323 26.918 226.06 26.8887 225.778 26.8887C225.31 26.8887 224.964 27.0352 224.741 27.3281C224.524 27.6211 224.416 28.0488 224.416 28.6113V29.2705H226.78V30.8438ZM232.062 37.5059C232.332 37.5059 232.599 37.4824 232.862 37.4355C233.126 37.3828 233.366 37.3213 233.583 37.251V38.8154C233.354 38.915 233.059 39 232.695 39.0703C232.332 39.1406 231.954 39.1758 231.562 39.1758C231.011 39.1758 230.516 39.085 230.076 38.9033C229.637 38.7158 229.288 38.3965 229.03 37.9453C228.772 37.4941 228.644 36.8701 228.644 36.0732V30.8438H227.316V29.9209L228.74 29.1914L229.417 27.1084H230.718V29.2705H233.504V30.8438H230.718V36.0469C230.718 36.5391 230.841 36.9053 231.087 37.1455C231.333 37.3857 231.658 37.5059 232.062 37.5059Z" fill="#212121"/>
<rect x="20.4" y="297.4" width="253.2" height="35.2" rx="17.6" fill="white"/>
<rect x="20.4" y="297.4" width="253.2" height="35.2" rx="17.6" stroke="#EFEFEF" stroke-width="0.8"/>
<path d="M37.4365 320.5H36.2676V311.531H33.123V310.506H40.5674V311.531H37.4365V320.5ZM48.3672 316.74C48.3672 317.355 48.2874 317.905 48.1279 318.388C47.9684 318.871 47.7383 319.279 47.4375 319.611C47.1367 319.944 46.7721 320.199 46.3438 320.377C45.9199 320.55 45.4391 320.637 44.9014 320.637C44.4001 320.637 43.9398 320.55 43.5205 320.377C43.1058 320.199 42.7458 319.944 42.4404 319.611C42.1396 319.279 41.9049 318.871 41.7363 318.388C41.5723 317.905 41.4902 317.355 41.4902 316.74C41.4902 315.92 41.6292 315.223 41.9072 314.648C42.1852 314.07 42.5817 313.63 43.0967 313.329C43.6162 313.024 44.2337 312.871 44.9492 312.871C45.6328 312.871 46.2298 313.024 46.7402 313.329C47.2552 313.634 47.654 314.076 47.9365 314.655C48.2236 315.229 48.3672 315.924 48.3672 316.74ZM42.666 316.74C42.666 317.342 42.7458 317.864 42.9053 318.306C43.0648 318.748 43.3109 319.09 43.6436 319.331C43.9762 319.573 44.4046 319.693 44.9287 319.693C45.4482 319.693 45.8743 319.573 46.207 319.331C46.5443 319.09 46.7926 318.748 46.9521 318.306C47.1117 317.864 47.1914 317.342 47.1914 316.74C47.1914 316.143 47.1117 315.628 46.9521 315.195C46.7926 314.758 46.5465 314.421 46.2139 314.184C45.8812 313.947 45.4505 313.828 44.9219 313.828C44.1426 313.828 43.5706 314.086 43.2061 314.601C42.846 315.116 42.666 315.829 42.666 316.74ZM52.749 319.707C52.9359 319.707 53.1273 319.691 53.3232 319.659C53.5192 319.627 53.6787 319.589 53.8018 319.543V320.425C53.6696 320.484 53.485 320.534 53.248 320.575C53.0156 320.616 52.7878 320.637 52.5645 320.637C52.168 320.637 51.8079 320.568 51.4844 320.432C51.1608 320.29 50.901 320.053 50.7051 319.721C50.5137 319.388 50.418 318.928 50.418 318.34V313.896H49.3516V313.343L50.4248 312.898L50.876 311.271H51.5596V313.008H53.7539V313.896H51.5596V318.306C51.5596 318.775 51.6667 319.126 51.8809 319.358C52.0996 319.591 52.389 319.707 52.749 319.707ZM58.1221 312.885C59.0153 312.885 59.6784 313.085 60.1113 313.486C60.5443 313.887 60.7607 314.528 60.7607 315.407V320.5H59.9336L59.7148 319.393H59.6602C59.4505 319.666 59.2318 319.896 59.0039 320.083C58.776 320.265 58.5117 320.404 58.2109 320.5C57.9147 320.591 57.5501 320.637 57.1172 320.637C56.6615 320.637 56.2559 320.557 55.9004 320.397C55.5495 320.238 55.2715 319.996 55.0664 319.673C54.8659 319.349 54.7656 318.939 54.7656 318.442C54.7656 317.695 55.0618 317.121 55.6543 316.72C56.2467 316.319 57.1491 316.1 58.3613 316.063L59.6533 316.009V315.551C59.6533 314.904 59.5143 314.45 59.2363 314.19C58.9583 313.931 58.5664 313.801 58.0605 313.801C57.6686 313.801 57.2949 313.858 56.9395 313.972C56.584 314.086 56.2467 314.22 55.9277 314.375L55.5791 313.514C55.9163 313.34 56.3037 313.192 56.7412 313.069C57.1787 312.946 57.639 312.885 58.1221 312.885ZM59.6396 316.809L58.498 316.856C57.5638 316.893 56.9053 317.046 56.5225 317.314C56.1396 317.583 55.9482 317.964 55.9482 318.456C55.9482 318.884 56.0781 319.201 56.3379 319.406C56.5977 319.611 56.9417 319.714 57.3701 319.714C58.0355 319.714 58.5801 319.529 59.0039 319.16C59.4277 318.791 59.6396 318.237 59.6396 317.499V316.809ZM64.2402 320.5H63.0986V309.863H64.2402V320.5ZM75.3008 323.85V320.637C75.3008 320.459 75.3053 320.254 75.3145 320.021C75.3236 319.789 75.3395 319.589 75.3623 319.42H75.2871C75.0775 319.766 74.779 320.056 74.3916 320.288C74.0042 320.521 73.5052 320.637 72.8945 320.637C71.9785 320.637 71.2425 320.313 70.6865 319.666C70.1305 319.019 69.8525 318.053 69.8525 316.768C69.8525 315.924 69.9801 315.214 70.2354 314.635C70.4906 314.056 70.8506 313.618 71.3154 313.322C71.7848 313.021 72.3317 312.871 72.9561 312.871C73.5531 312.871 74.0407 312.99 74.4189 313.227C74.7972 313.459 75.0934 313.744 75.3076 314.081H75.3623L75.5332 313.008H76.4355V323.85H75.3008ZM73.1064 319.693C73.6351 319.693 74.0589 319.595 74.3779 319.399C74.6969 319.199 74.9294 318.898 75.0752 318.497C75.2256 318.096 75.3053 317.597 75.3145 317V316.761C75.3145 315.795 75.1504 315.063 74.8223 314.566C74.4941 314.065 73.9222 313.814 73.1064 313.814C72.4046 313.814 71.8828 314.083 71.541 314.621C71.1992 315.154 71.0283 315.879 71.0283 316.795C71.0283 317.711 71.1992 318.424 71.541 318.935C71.8828 319.44 72.4046 319.693 73.1064 319.693ZM85.0352 313.008V320.5H84.1055L83.9414 319.447H83.8799C83.7249 319.707 83.5244 319.926 83.2783 320.104C83.0322 320.281 82.7542 320.413 82.4443 320.5C82.139 320.591 81.8132 320.637 81.4668 320.637C80.8743 320.637 80.3776 320.541 79.9766 320.35C79.5755 320.158 79.2725 319.862 79.0674 319.461C78.8669 319.06 78.7666 318.545 78.7666 317.916V313.008H79.915V317.834C79.915 318.458 80.0563 318.925 80.3389 319.235C80.6214 319.541 81.0521 319.693 81.6309 319.693C82.1868 319.693 82.6289 319.589 82.957 319.379C83.2897 319.169 83.529 318.862 83.6748 318.456C83.8206 318.046 83.8936 317.545 83.8936 316.952V313.008H85.0352ZM90.3193 312.871C90.9574 312.871 91.5042 313.012 91.96 313.295C92.4157 313.577 92.7643 313.974 93.0059 314.484C93.2474 314.99 93.3682 315.583 93.3682 316.262V316.966H88.1934C88.207 317.845 88.4258 318.515 88.8496 318.976C89.2734 319.436 89.8704 319.666 90.6406 319.666C91.1146 319.666 91.5339 319.623 91.8984 319.536C92.263 319.45 92.6413 319.322 93.0332 319.153V320.151C92.6549 320.32 92.279 320.443 91.9053 320.521C91.5361 320.598 91.0986 320.637 90.5928 320.637C89.8727 320.637 89.2438 320.491 88.7061 320.199C88.1729 319.903 87.7581 319.47 87.4619 318.9C87.1657 318.331 87.0176 317.633 87.0176 316.809C87.0176 316.002 87.152 315.305 87.4209 314.717C87.6943 314.124 88.0771 313.669 88.5693 313.35C89.0661 313.031 89.6494 312.871 90.3193 312.871ZM90.3057 313.801C89.6995 313.801 89.2165 313.999 88.8564 314.396C88.4964 314.792 88.2822 315.346 88.2139 316.057H92.1787C92.1742 315.61 92.1035 315.218 91.9668 314.881C91.8346 314.539 91.6318 314.275 91.3584 314.088C91.085 313.896 90.734 313.801 90.3057 313.801ZM101.482 313.008V320.5H100.553L100.389 319.447H100.327C100.172 319.707 99.9717 319.926 99.7256 320.104C99.4795 320.281 99.2015 320.413 98.8916 320.5C98.5863 320.591 98.2604 320.637 97.9141 320.637C97.3216 320.637 96.8249 320.541 96.4238 320.35C96.0228 320.158 95.7197 319.862 95.5146 319.461C95.3141 319.06 95.2139 318.545 95.2139 317.916V313.008H96.3623V317.834C96.3623 318.458 96.5036 318.925 96.7861 319.235C97.0687 319.541 97.4993 319.693 98.0781 319.693C98.6341 319.693 99.0762 319.589 99.4043 319.379C99.737 319.169 99.9762 318.862 100.122 318.456C100.268 318.046 100.341 317.545 100.341 316.952V313.008H101.482ZM106.767 312.871C107.405 312.871 107.951 313.012 108.407 313.295C108.863 313.577 109.212 313.974 109.453 314.484C109.695 314.99 109.815 315.583 109.815 316.262V316.966H104.641C104.654 317.845 104.873 318.515 105.297 318.976C105.721 319.436 106.318 319.666 107.088 319.666C107.562 319.666 107.981 319.623 108.346 319.536C108.71 319.45 109.089 319.322 109.48 319.153V320.151C109.102 320.32 108.726 320.443 108.353 320.521C107.983 320.598 107.546 320.637 107.04 320.637C106.32 320.637 105.691 320.491 105.153 320.199C104.62 319.903 104.205 319.47 103.909 318.9C103.613 318.331 103.465 317.633 103.465 316.809C103.465 316.002 103.599 315.305 103.868 314.717C104.142 314.124 104.524 313.669 105.017 313.35C105.513 313.031 106.097 312.871 106.767 312.871ZM106.753 313.801C106.147 313.801 105.664 313.999 105.304 314.396C104.944 314.792 104.729 315.346 104.661 316.057H108.626C108.621 315.61 108.551 315.218 108.414 314.881C108.282 314.539 108.079 314.275 107.806 314.088C107.532 313.896 107.181 313.801 106.753 313.801ZM118.265 312.871C118.903 312.871 119.45 313.012 119.905 313.295C120.361 313.577 120.71 313.974 120.951 314.484C121.193 314.99 121.313 315.583 121.313 316.262V316.966H116.139C116.152 317.845 116.371 318.515 116.795 318.976C117.219 319.436 117.816 319.666 118.586 319.666C119.06 319.666 119.479 319.623 119.844 319.536C120.208 319.45 120.587 319.322 120.979 319.153V320.151C120.6 320.32 120.224 320.443 119.851 320.521C119.481 320.598 119.044 320.637 118.538 320.637C117.818 320.637 117.189 320.491 116.651 320.199C116.118 319.903 115.703 319.47 115.407 318.9C115.111 318.331 114.963 317.633 114.963 316.809C114.963 316.002 115.097 315.305 115.366 314.717C115.64 314.124 116.022 313.669 116.515 313.35C117.011 313.031 117.595 312.871 118.265 312.871ZM118.251 313.801C117.645 313.801 117.162 313.999 116.802 314.396C116.442 314.792 116.228 315.346 116.159 316.057H120.124C120.119 315.61 120.049 315.218 119.912 314.881C119.78 314.539 119.577 314.275 119.304 314.088C119.03 313.896 118.679 313.801 118.251 313.801ZM124.889 320.5L122.045 313.008H123.262L124.909 317.54C125.023 317.85 125.139 318.192 125.258 318.565C125.376 318.939 125.458 319.24 125.504 319.468H125.552C125.606 319.24 125.698 318.939 125.825 318.565C125.953 318.187 126.069 317.845 126.174 317.54L127.821 313.008H129.038L126.188 320.5H124.889ZM133.126 312.871C133.764 312.871 134.311 313.012 134.767 313.295C135.222 313.577 135.571 313.974 135.812 314.484C136.054 314.99 136.175 315.583 136.175 316.262V316.966H131C131.014 317.845 131.232 318.515 131.656 318.976C132.08 319.436 132.677 319.666 133.447 319.666C133.921 319.666 134.34 319.623 134.705 319.536C135.07 319.45 135.448 319.322 135.84 319.153V320.151C135.462 320.32 135.086 320.443 134.712 320.521C134.343 320.598 133.905 320.637 133.399 320.637C132.679 320.637 132.05 320.491 131.513 320.199C130.979 319.903 130.565 319.47 130.269 318.9C129.972 318.331 129.824 317.633 129.824 316.809C129.824 316.002 129.959 315.305 130.228 314.717C130.501 314.124 130.884 313.669 131.376 313.35C131.873 313.031 132.456 312.871 133.126 312.871ZM133.112 313.801C132.506 313.801 132.023 313.999 131.663 314.396C131.303 314.792 131.089 315.346 131.021 316.057H134.985C134.981 315.61 134.91 315.218 134.773 314.881C134.641 314.539 134.438 314.275 134.165 314.088C133.892 313.896 133.541 313.801 133.112 313.801ZM141.65 312.871C142.539 312.871 143.211 313.09 143.667 313.527C144.123 313.96 144.351 314.658 144.351 315.619V320.5H143.229V315.694C143.229 315.07 143.086 314.603 142.799 314.293C142.516 313.983 142.081 313.828 141.493 313.828C140.664 313.828 140.08 314.063 139.743 314.532C139.406 315.002 139.237 315.683 139.237 316.576V320.5H138.103V313.008H139.019L139.189 314.088H139.251C139.41 313.824 139.613 313.603 139.859 313.425C140.105 313.243 140.381 313.106 140.687 313.015C140.992 312.919 141.313 312.871 141.65 312.871ZM149.108 319.707C149.295 319.707 149.487 319.691 149.683 319.659C149.879 319.627 150.038 319.589 150.161 319.543V320.425C150.029 320.484 149.844 320.534 149.607 320.575C149.375 320.616 149.147 320.637 148.924 320.637C148.527 320.637 148.167 320.568 147.844 320.432C147.52 320.29 147.26 320.053 147.064 319.721C146.873 319.388 146.777 318.928 146.777 318.34V313.896H145.711V313.343L146.784 312.898L147.235 311.271H147.919V313.008H150.113V313.896H147.919V318.306C147.919 318.775 148.026 319.126 148.24 319.358C148.459 319.591 148.748 319.707 149.108 319.707ZM156.525 318.449C156.525 318.928 156.405 319.331 156.163 319.659C155.926 319.983 155.584 320.227 155.138 320.391C154.696 320.555 154.167 320.637 153.552 320.637C153.028 320.637 152.574 320.596 152.191 320.514C151.809 320.432 151.474 320.315 151.187 320.165V319.119C151.492 319.27 151.856 319.406 152.28 319.529C152.704 319.652 153.137 319.714 153.579 319.714C154.226 319.714 154.696 319.609 154.987 319.399C155.279 319.19 155.425 318.905 155.425 318.545C155.425 318.34 155.366 318.16 155.247 318.005C155.133 317.845 154.939 317.693 154.666 317.547C154.393 317.396 154.014 317.232 153.531 317.055C153.053 316.872 152.638 316.692 152.287 316.515C151.941 316.332 151.672 316.111 151.48 315.852C151.294 315.592 151.2 315.255 151.2 314.84C151.2 314.206 151.455 313.721 151.966 313.384C152.481 313.042 153.155 312.871 153.989 312.871C154.44 312.871 154.862 312.917 155.254 313.008C155.65 313.094 156.02 313.213 156.361 313.363L155.979 314.272C155.669 314.14 155.338 314.029 154.987 313.938C154.636 313.846 154.279 313.801 153.914 313.801C153.39 313.801 152.987 313.887 152.704 314.061C152.426 314.234 152.287 314.471 152.287 314.771C152.287 315.004 152.351 315.195 152.479 315.346C152.611 315.496 152.82 315.637 153.107 315.77C153.395 315.902 153.773 316.057 154.242 316.234C154.712 316.408 155.117 316.588 155.459 316.774C155.801 316.957 156.063 317.18 156.245 317.444C156.432 317.704 156.525 318.039 156.525 318.449ZM165.323 313.896H163.457V320.5H162.322V313.896H160.996V313.35L162.322 312.974V312.475C162.322 311.846 162.416 311.335 162.603 310.943C162.789 310.547 163.061 310.255 163.416 310.068C163.771 309.882 164.204 309.788 164.715 309.788C165.002 309.788 165.264 309.813 165.501 309.863C165.743 309.913 165.954 309.97 166.137 310.034L165.843 310.93C165.688 310.88 165.512 310.834 165.316 310.793C165.125 310.747 164.929 310.725 164.729 310.725C164.296 310.725 163.974 310.866 163.765 311.148C163.56 311.426 163.457 311.864 163.457 312.461V313.008H165.323V313.896ZM173.164 316.74C173.164 317.355 173.084 317.905 172.925 318.388C172.765 318.871 172.535 319.279 172.234 319.611C171.934 319.944 171.569 320.199 171.141 320.377C170.717 320.55 170.236 320.637 169.698 320.637C169.197 320.637 168.737 320.55 168.317 320.377C167.903 320.199 167.543 319.944 167.237 319.611C166.937 319.279 166.702 318.871 166.533 318.388C166.369 317.905 166.287 317.355 166.287 316.74C166.287 315.92 166.426 315.223 166.704 314.648C166.982 314.07 167.379 313.63 167.894 313.329C168.413 313.024 169.031 312.871 169.746 312.871C170.43 312.871 171.027 313.024 171.537 313.329C172.052 313.634 172.451 314.076 172.733 314.655C173.021 315.229 173.164 315.924 173.164 316.74ZM167.463 316.74C167.463 317.342 167.543 317.864 167.702 318.306C167.862 318.748 168.108 319.09 168.44 319.331C168.773 319.573 169.201 319.693 169.726 319.693C170.245 319.693 170.671 319.573 171.004 319.331C171.341 319.09 171.59 318.748 171.749 318.306C171.909 317.864 171.988 317.342 171.988 316.74C171.988 316.143 171.909 315.628 171.749 315.195C171.59 314.758 171.343 314.421 171.011 314.184C170.678 313.947 170.247 313.828 169.719 313.828C168.939 313.828 168.368 314.086 168.003 314.601C167.643 315.116 167.463 315.829 167.463 316.74ZM178.53 312.871C178.681 312.871 178.838 312.88 179.002 312.898C179.166 312.912 179.312 312.933 179.439 312.96L179.296 314.013C179.173 313.981 179.036 313.956 178.886 313.938C178.735 313.919 178.594 313.91 178.462 313.91C178.161 313.91 177.876 313.972 177.607 314.095C177.343 314.213 177.111 314.386 176.91 314.614C176.71 314.838 176.552 315.109 176.438 315.428C176.325 315.742 176.268 316.093 176.268 316.48V320.5H175.126V313.008H176.069L176.192 314.389H176.24C176.395 314.111 176.582 313.858 176.801 313.63C177.02 313.397 177.272 313.213 177.56 313.076C177.851 312.939 178.175 312.871 178.53 312.871ZM187.827 313.896H185.961V320.5H184.826V313.896H183.5V313.35L184.826 312.974V312.475C184.826 311.846 184.92 311.335 185.106 310.943C185.293 310.547 185.564 310.255 185.92 310.068C186.275 309.882 186.708 309.788 187.219 309.788C187.506 309.788 187.768 309.813 188.005 309.863C188.246 309.913 188.458 309.97 188.641 310.034L188.347 310.93C188.192 310.88 188.016 310.834 187.82 310.793C187.629 310.747 187.433 310.725 187.232 310.725C186.799 310.725 186.478 310.866 186.269 311.148C186.063 311.426 185.961 311.864 185.961 312.461V313.008H187.827V313.896ZM195.668 316.74C195.668 317.355 195.588 317.905 195.429 318.388C195.269 318.871 195.039 319.279 194.738 319.611C194.438 319.944 194.073 320.199 193.645 320.377C193.221 320.55 192.74 320.637 192.202 320.637C191.701 320.637 191.241 320.55 190.821 320.377C190.407 320.199 190.047 319.944 189.741 319.611C189.44 319.279 189.206 318.871 189.037 318.388C188.873 317.905 188.791 317.355 188.791 316.74C188.791 315.92 188.93 315.223 189.208 314.648C189.486 314.07 189.882 313.63 190.397 313.329C190.917 313.024 191.535 312.871 192.25 312.871C192.934 312.871 193.531 313.024 194.041 313.329C194.556 313.634 194.955 314.076 195.237 314.655C195.524 315.229 195.668 315.924 195.668 316.74ZM189.967 316.74C189.967 317.342 190.047 317.864 190.206 318.306C190.366 318.748 190.612 319.09 190.944 319.331C191.277 319.573 191.705 319.693 192.229 319.693C192.749 319.693 193.175 319.573 193.508 319.331C193.845 319.09 194.093 318.748 194.253 318.306C194.412 317.864 194.492 317.342 194.492 316.74C194.492 316.143 194.412 315.628 194.253 315.195C194.093 314.758 193.847 314.421 193.515 314.184C193.182 313.947 192.751 313.828 192.223 313.828C191.443 313.828 190.871 314.086 190.507 314.601C190.147 315.116 189.967 315.829 189.967 316.74ZM201.034 312.871C201.185 312.871 201.342 312.88 201.506 312.898C201.67 312.912 201.816 312.933 201.943 312.96L201.8 314.013C201.677 313.981 201.54 313.956 201.39 313.938C201.239 313.919 201.098 313.91 200.966 313.91C200.665 313.91 200.38 313.972 200.111 314.095C199.847 314.213 199.615 314.386 199.414 314.614C199.214 314.838 199.056 315.109 198.942 315.428C198.828 315.742 198.771 316.093 198.771 316.48V320.5H197.63V313.008H198.573L198.696 314.389H198.744C198.899 314.111 199.086 313.858 199.305 313.63C199.523 313.397 199.776 313.213 200.063 313.076C200.355 312.939 200.679 312.871 201.034 312.871ZM204.486 309.863V315.387C204.486 315.569 204.479 315.792 204.466 316.057C204.452 316.316 204.441 316.547 204.432 316.747H204.479C204.575 316.629 204.714 316.453 204.896 316.221C205.083 315.988 205.241 315.801 205.368 315.66L207.856 313.008H209.189L206.175 316.207L209.408 320.5H208.041L205.396 316.952L204.486 317.786V320.5H203.358V309.863H204.486ZM211.855 320.5H210.714V309.863H211.855V320.5ZM215.39 313.008V320.5H214.255V313.008H215.39ZM214.836 310.205C215.023 310.205 215.182 310.267 215.314 310.39C215.451 310.508 215.52 310.695 215.52 310.95C215.52 311.201 215.451 311.388 215.314 311.511C215.182 311.634 215.023 311.695 214.836 311.695C214.64 311.695 214.476 311.634 214.344 311.511C214.216 311.388 214.152 311.201 214.152 310.95C214.152 310.695 214.216 310.508 214.344 310.39C214.476 310.267 214.64 310.205 214.836 310.205ZM221.132 313.896H219.266V320.5H218.131V313.896H216.805V313.35L218.131 312.974V312.475C218.131 311.846 218.224 311.335 218.411 310.943C218.598 310.547 218.869 310.255 219.225 310.068C219.58 309.882 220.013 309.788 220.523 309.788C220.811 309.788 221.073 309.813 221.31 309.863C221.551 309.913 221.763 309.97 221.945 310.034L221.651 310.93C221.496 310.88 221.321 310.834 221.125 310.793C220.934 310.747 220.738 310.725 220.537 310.725C220.104 310.725 219.783 310.866 219.573 311.148C219.368 311.426 219.266 311.864 219.266 312.461V313.008H221.132V313.896ZM224.933 319.707C225.119 319.707 225.311 319.691 225.507 319.659C225.703 319.627 225.862 319.589 225.985 319.543V320.425C225.853 320.484 225.669 320.534 225.432 320.575C225.199 320.616 224.971 320.637 224.748 320.637C224.352 320.637 223.992 320.568 223.668 320.432C223.344 320.29 223.085 320.053 222.889 319.721C222.697 319.388 222.602 318.928 222.602 318.34V313.896H221.535V313.343L222.608 312.898L223.06 311.271H223.743V313.008H225.938V313.896H223.743V318.306C223.743 318.775 223.85 319.126 224.064 319.358C224.283 319.591 224.573 319.707 224.933 319.707ZM227.332 319.789C227.332 319.47 227.41 319.244 227.564 319.112C227.719 318.976 227.909 318.907 228.132 318.907C228.364 318.907 228.56 318.976 228.72 319.112C228.879 319.244 228.959 319.47 228.959 319.789C228.959 320.104 228.879 320.334 228.72 320.479C228.56 320.621 228.364 320.691 228.132 320.691C227.909 320.691 227.719 320.621 227.564 320.479C227.41 320.334 227.332 320.104 227.332 319.789ZM227.332 313.726C227.332 313.397 227.41 313.167 227.564 313.035C227.719 312.898 227.909 312.83 228.132 312.83C228.364 312.83 228.56 312.898 228.72 313.035C228.879 313.167 228.959 313.397 228.959 313.726C228.959 314.035 228.879 314.261 228.72 314.402C228.56 314.544 228.364 314.614 228.132 314.614C227.909 314.614 227.719 314.544 227.564 314.402C227.41 314.261 227.332 314.035 227.332 313.726Z" fill="#212121"/>
<path d="M243.979 312.789C243.979 313.24 243.887 313.632 243.705 313.965C243.523 314.298 243.272 314.571 242.953 314.785C242.639 314.995 242.274 315.145 241.859 315.236V315.284C242.657 315.384 243.258 315.635 243.664 316.036C244.074 316.437 244.279 316.968 244.279 317.629C244.279 318.208 244.14 318.725 243.862 319.181C243.584 319.632 243.158 319.987 242.584 320.247C242.01 320.507 241.271 320.637 240.369 320.637C239.827 320.637 239.323 320.593 238.858 320.507C238.398 320.42 237.961 320.281 237.546 320.09V318.661C237.97 318.871 238.421 319.033 238.899 319.146C239.378 319.26 239.831 319.317 240.26 319.317C241.094 319.317 241.688 319.162 242.044 318.853C242.399 318.538 242.577 318.105 242.577 317.554C242.577 317.198 242.484 316.907 242.297 316.679C242.115 316.451 241.83 316.28 241.442 316.166C241.06 316.052 240.565 315.995 239.959 315.995H239.077V314.703H239.966C240.545 314.703 241.009 314.635 241.36 314.498C241.711 314.357 241.964 314.163 242.119 313.917C242.279 313.671 242.358 313.384 242.358 313.056C242.358 312.627 242.219 312.295 241.941 312.058C241.663 311.816 241.251 311.695 240.704 311.695C240.367 311.695 240.059 311.734 239.781 311.812C239.508 311.889 239.255 311.987 239.022 312.105C238.79 312.224 238.569 312.352 238.359 312.488L237.587 311.374C237.965 311.091 238.416 310.852 238.94 310.656C239.465 310.46 240.075 310.362 240.772 310.362C241.798 310.362 242.589 310.583 243.145 311.025C243.701 311.463 243.979 312.051 243.979 312.789ZM249.003 314.252C249.646 314.252 250.211 314.368 250.698 314.601C251.19 314.828 251.573 315.166 251.847 315.612C252.12 316.054 252.257 316.597 252.257 317.239C252.257 317.941 252.109 318.547 251.812 319.058C251.516 319.563 251.081 319.953 250.507 320.227C249.933 320.5 249.233 320.637 248.408 320.637C247.884 320.637 247.394 320.591 246.938 320.5C246.487 320.409 246.098 320.272 245.77 320.09V318.641C246.111 318.832 246.521 318.989 247 319.112C247.479 319.231 247.937 319.29 248.374 319.29C248.839 319.29 249.238 319.222 249.57 319.085C249.903 318.948 250.158 318.739 250.336 318.456C250.518 318.174 250.609 317.816 250.609 317.383C250.609 316.809 250.425 316.367 250.056 316.057C249.691 315.742 249.119 315.585 248.34 315.585C248.066 315.585 247.775 315.61 247.465 315.66C247.16 315.706 246.904 315.756 246.699 315.811L245.995 315.394L246.371 310.506H251.566V311.921H247.786L247.567 314.409C247.731 314.373 247.927 314.339 248.155 314.307C248.383 314.27 248.666 314.252 249.003 314.252ZM260.385 315.496C260.385 316.303 260.321 317.025 260.193 317.663C260.07 318.297 259.874 318.834 259.605 319.276C259.337 319.718 258.986 320.056 258.553 320.288C258.12 320.521 257.596 320.637 256.98 320.637C256.21 320.637 255.575 320.434 255.073 320.028C254.572 319.618 254.201 319.03 253.959 318.265C253.717 317.494 253.597 316.572 253.597 315.496C253.597 314.421 253.706 313.5 253.925 312.734C254.148 311.964 254.508 311.374 255.005 310.964C255.502 310.554 256.16 310.349 256.98 310.349C257.755 310.349 258.393 310.554 258.895 310.964C259.4 311.369 259.774 311.957 260.016 312.728C260.262 313.493 260.385 314.416 260.385 315.496ZM255.217 315.496C255.217 316.339 255.271 317.043 255.381 317.608C255.495 318.174 255.682 318.597 255.941 318.88C256.201 319.158 256.548 319.297 256.98 319.297C257.413 319.297 257.76 319.158 258.02 318.88C258.279 318.602 258.466 318.18 258.58 317.615C258.699 317.05 258.758 316.344 258.758 315.496C258.758 314.658 258.701 313.956 258.587 313.391C258.473 312.826 258.286 312.402 258.026 312.119C257.767 311.832 257.418 311.688 256.98 311.688C256.543 311.688 256.194 311.832 255.935 312.119C255.679 312.402 255.495 312.826 255.381 313.391C255.271 313.956 255.217 314.658 255.217 315.496Z" fill="black"/>
<rect x="20.5" y="70.5" width="328" height="108" rx="36.5" stroke="#D2DCFD"/>
<rect x="20" y="190" width="154" height="94" rx="21" fill="#8087FF"/>
<rect x="195" y="190" width="154" height="94" rx="21" fill="#E1FF49"/>
<path d="M89.4766 231H77.875V228.926L82.3164 224.426C83.1758 223.551 83.8828 222.797 84.4375 222.164C84.9922 221.523 85.4023 220.918 85.668 220.348C85.9414 219.777 86.0781 219.156 86.0781 218.484C86.0781 217.656 85.8398 217.031 85.3633 216.609C84.8867 216.18 84.2578 215.965 83.4766 215.965C82.7344 215.965 82.0469 216.113 81.4141 216.41C80.7891 216.699 80.1406 217.113 79.4688 217.652L77.957 215.836C78.4336 215.43 78.9414 215.059 79.4805 214.723C80.0273 214.387 80.6367 214.121 81.3086 213.926C81.9805 213.723 82.7461 213.621 83.6055 213.621C84.6914 213.621 85.6289 213.816 86.418 214.207C87.207 214.59 87.8125 215.125 88.2344 215.812C88.6641 216.5 88.8789 217.301 88.8789 218.215C88.8789 219.137 88.6953 219.988 88.3281 220.77C87.9609 221.551 87.4375 222.324 86.7578 223.09C86.0781 223.848 85.2695 224.672 84.332 225.562L81.3672 228.457V228.586H89.4766V231ZM103.211 222.422C103.211 223.805 103.102 225.043 102.883 226.137C102.672 227.223 102.336 228.145 101.875 228.902C101.414 229.66 100.812 230.238 100.07 230.637C99.3281 231.035 98.4297 231.234 97.375 231.234C96.0547 231.234 94.9648 230.887 94.1055 230.191C93.2461 229.488 92.6094 228.48 92.1953 227.168C91.7812 225.848 91.5742 224.266 91.5742 222.422C91.5742 220.578 91.7617 219 92.1367 217.688C92.5195 216.367 93.1367 215.355 93.9883 214.652C94.8398 213.949 95.9688 213.598 97.375 213.598C98.7031 213.598 99.7969 213.949 100.656 214.652C101.523 215.348 102.164 216.355 102.578 217.676C103 218.988 103.211 220.57 103.211 222.422ZM94.3516 222.422C94.3516 223.867 94.4453 225.074 94.6328 226.043C94.8281 227.012 95.1484 227.738 95.5938 228.223C96.0391 228.699 96.6328 228.938 97.375 228.938C98.1172 228.938 98.7109 228.699 99.1562 228.223C99.6016 227.746 99.9219 227.023 100.117 226.055C100.32 225.086 100.422 223.875 100.422 222.422C100.422 220.984 100.324 219.781 100.129 218.812C99.9336 217.844 99.6133 217.117 99.168 216.633C98.7227 216.141 98.125 215.895 97.375 215.895C96.625 215.895 96.0273 216.141 95.582 216.633C95.1445 217.117 94.8281 217.844 94.6328 218.812C94.4453 219.781 94.3516 220.984 94.3516 222.422ZM116.945 222.422C116.945 223.805 116.836 225.043 116.617 226.137C116.406 227.223 116.07 228.145 115.609 228.902C115.148 229.66 114.547 230.238 113.805 230.637C113.062 231.035 112.164 231.234 111.109 231.234C109.789 231.234 108.699 230.887 107.84 230.191C106.98 229.488 106.344 228.48 105.93 227.168C105.516 225.848 105.309 224.266 105.309 222.422C105.309 220.578 105.496 219 105.871 217.688C106.254 216.367 106.871 215.355 107.723 214.652C108.574 213.949 109.703 213.598 111.109 213.598C112.438 213.598 113.531 213.949 114.391 214.652C115.258 215.348 115.898 216.355 116.312 217.676C116.734 218.988 116.945 220.57 116.945 222.422ZM108.086 222.422C108.086 223.867 108.18 225.074 108.367 226.043C108.562 227.012 108.883 227.738 109.328 228.223C109.773 228.699 110.367 228.938 111.109 228.938C111.852 228.938 112.445 228.699 112.891 228.223C113.336 227.746 113.656 227.023 113.852 226.055C114.055 225.086 114.156 223.875 114.156 222.422C114.156 220.984 114.059 219.781 113.863 218.812C113.668 217.844 113.348 217.117 112.902 216.633C112.457 216.141 111.859 215.895 111.109 215.895C110.359 215.895 109.762 216.141 109.316 216.633C108.879 217.117 108.562 217.844 108.367 218.812C108.18 219.781 108.086 220.984 108.086 222.422Z" fill="white"/>
<path d="M256.232 264V251.15H258.342V262.207H263.8V264H256.232ZM274.426 259.113C274.426 259.922 274.32 260.64 274.109 261.267C273.898 261.894 273.591 262.424 273.187 262.857C272.782 263.285 272.296 263.613 271.728 263.842C271.159 264.064 270.518 264.176 269.803 264.176C269.135 264.176 268.522 264.064 267.966 263.842C267.409 263.613 266.926 263.285 266.516 262.857C266.111 262.424 265.798 261.894 265.575 261.267C265.353 260.64 265.241 259.922 265.241 259.113C265.241 258.041 265.426 257.133 265.795 256.389C266.17 255.639 266.703 255.067 267.395 254.675C268.086 254.282 268.909 254.086 269.864 254.086C270.761 254.086 271.552 254.282 272.237 254.675C272.923 255.067 273.459 255.639 273.846 256.389C274.232 257.139 274.426 258.047 274.426 259.113ZM267.368 259.113C267.368 259.822 267.453 260.429 267.623 260.933C267.799 261.437 268.068 261.823 268.432 262.093C268.795 262.356 269.264 262.488 269.838 262.488C270.412 262.488 270.881 262.356 271.244 262.093C271.607 261.823 271.874 261.437 272.044 260.933C272.214 260.429 272.299 259.822 272.299 259.113C272.299 258.404 272.214 257.804 272.044 257.312C271.874 256.813 271.607 256.436 271.244 256.178C270.881 255.914 270.409 255.782 269.829 255.782C268.974 255.782 268.35 256.069 267.957 256.644C267.564 257.218 267.368 258.041 267.368 259.113ZM284.753 263.991L283.522 259.465C283.464 259.242 283.394 258.973 283.312 258.656C283.229 258.34 283.147 258.015 283.065 257.681C282.983 257.341 282.907 257.027 282.837 256.74C282.772 256.453 282.723 256.23 282.688 256.072H282.617C282.588 256.23 282.541 256.453 282.477 256.74C282.412 257.027 282.339 257.341 282.257 257.681C282.175 258.021 282.093 258.352 282.011 258.674C281.935 258.996 281.864 259.271 281.8 259.5L280.508 263.991H278.24L275.516 254.262H277.607L278.873 259.096C278.955 259.424 279.034 259.778 279.11 260.159C279.192 260.54 279.263 260.903 279.321 261.249C279.38 261.595 279.424 261.879 279.453 262.102H279.523C279.547 261.943 279.579 261.744 279.62 261.504C279.661 261.258 279.708 261.003 279.761 260.739C279.813 260.47 279.866 260.218 279.919 259.983C279.972 259.743 280.021 259.55 280.068 259.403L281.562 254.262H283.821L285.254 259.403C285.318 259.626 285.389 259.907 285.465 260.247C285.541 260.581 285.608 260.918 285.667 261.258C285.731 261.592 285.772 261.87 285.79 262.093H285.86C285.884 261.894 285.925 261.624 285.983 261.284C286.048 260.938 286.121 260.572 286.203 260.186C286.285 259.793 286.37 259.43 286.458 259.096L287.75 254.262H289.807L287.064 263.991H284.753Z" fill="#606060"/>
<path d="M70.4121 264H68.3203V251.15H75.5801V252.926H70.4121V256.934H75.2461V258.7H70.4121V264ZM86.3203 259.113C86.3203 259.922 86.2148 260.64 86.0039 261.267C85.793 261.894 85.4854 262.424 85.0811 262.857C84.6768 263.285 84.1904 263.613 83.6221 263.842C83.0537 264.064 82.4121 264.176 81.6973 264.176C81.0293 264.176 80.417 264.064 79.8604 263.842C79.3037 263.613 78.8203 263.285 78.4102 262.857C78.0059 262.424 77.6924 261.894 77.4697 261.267C77.2471 260.64 77.1357 259.922 77.1357 259.113C77.1357 258.041 77.3203 257.133 77.6895 256.389C78.0645 255.639 78.5977 255.067 79.2891 254.675C79.9805 254.282 80.8037 254.086 81.7588 254.086C82.6553 254.086 83.4463 254.282 84.1318 254.675C84.8174 255.067 85.3535 255.639 85.7402 256.389C86.127 257.139 86.3203 258.047 86.3203 259.113ZM79.2627 259.113C79.2627 259.822 79.3477 260.429 79.5176 260.933C79.6934 261.437 79.9629 261.823 80.3262 262.093C80.6895 262.356 81.1582 262.488 81.7324 262.488C82.3066 262.488 82.7754 262.356 83.1387 262.093C83.502 261.823 83.7686 261.437 83.9385 260.933C84.1084 260.429 84.1934 259.822 84.1934 259.113C84.1934 258.404 84.1084 257.804 83.9385 257.312C83.7686 256.813 83.502 256.436 83.1387 256.178C82.7754 255.914 82.3037 255.782 81.7236 255.782C80.8682 255.782 80.2441 256.069 79.8516 256.644C79.459 257.218 79.2627 258.041 79.2627 259.113ZM93.624 254.086C93.7881 254.086 93.9668 254.095 94.1602 254.112C94.3535 254.13 94.5205 254.153 94.6611 254.183L94.4678 256.116C94.3447 256.081 94.1924 256.055 94.0107 256.037C93.835 256.02 93.6768 256.011 93.5361 256.011C93.167 256.011 92.8154 256.072 92.4814 256.195C92.1475 256.312 91.8516 256.494 91.5938 256.74C91.3359 256.98 91.1338 257.282 90.9873 257.646C90.8408 258.009 90.7676 258.431 90.7676 258.911V264H88.6934V254.271H90.3105L90.5918 255.984H90.6885C90.8818 255.639 91.1221 255.322 91.4092 255.035C91.6963 254.748 92.0244 254.52 92.3936 254.35C92.7686 254.174 93.1787 254.086 93.624 254.086ZM98.5283 250.324V256.934C98.5283 257.232 98.5166 257.561 98.4932 257.918C98.4697 258.27 98.4463 258.601 98.4229 258.911H98.4668C98.6191 258.706 98.8008 258.466 99.0117 258.19C99.2285 257.915 99.4336 257.675 99.627 257.47L102.598 254.271H104.971L101.077 258.454L105.226 264H102.8L99.6885 259.729L98.5283 260.722V264H96.4629V250.324H98.5283ZM108.855 264H106.781V250.324H108.855V264ZM113.874 254.271V264H111.809V254.271H113.874ZM112.854 250.544C113.171 250.544 113.443 250.629 113.672 250.799C113.906 250.969 114.023 251.262 114.023 251.678C114.023 252.088 113.906 252.381 113.672 252.557C113.443 252.727 113.171 252.812 112.854 252.812C112.526 252.812 112.248 252.727 112.02 252.557C111.797 252.381 111.686 252.088 111.686 251.678C111.686 251.262 111.797 250.969 112.02 250.799C112.248 250.629 112.526 250.544 112.854 250.544ZM121.696 255.844H119.332V264H117.267V255.844H115.676V254.851L117.267 254.244V253.567C117.267 252.741 117.396 252.085 117.653 251.599C117.917 251.112 118.292 250.764 118.778 250.553C119.271 250.336 119.856 250.228 120.536 250.228C120.981 250.228 121.389 250.266 121.758 250.342C122.127 250.412 122.438 250.494 122.689 250.588L122.153 252.152C121.954 252.088 121.731 252.029 121.485 251.977C121.239 251.918 120.976 251.889 120.694 251.889C120.226 251.889 119.88 252.035 119.657 252.328C119.44 252.621 119.332 253.049 119.332 253.611V254.271H121.696V255.844ZM126.979 262.506C127.248 262.506 127.515 262.482 127.778 262.436C128.042 262.383 128.282 262.321 128.499 262.251V263.815C128.271 263.915 127.975 264 127.611 264.07C127.248 264.141 126.87 264.176 126.478 264.176C125.927 264.176 125.432 264.085 124.992 263.903C124.553 263.716 124.204 263.396 123.946 262.945C123.688 262.494 123.56 261.87 123.56 261.073V255.844H122.232V254.921L123.656 254.191L124.333 252.108H125.634V254.271H128.42V255.844H125.634V261.047C125.634 261.539 125.757 261.905 126.003 262.146C126.249 262.386 126.574 262.506 126.979 262.506Z" fill="white"/>
<path d="M283.791 212H279.247C278.955 212 278.671 212.086 278.429 212.246C278.187 212.406 277.998 212.634 277.886 212.901C277.775 213.168 277.746 213.461 277.803 213.744C277.859 214.027 278 214.287 278.205 214.491L279.805 216.076L274.524 221.308C274.243 221.574 273.87 221.722 273.482 221.722C273.094 221.722 272.721 221.574 272.44 221.308L272.19 221.059C271.348 220.262 270.229 219.817 269.066 219.817C267.902 219.817 266.783 220.262 265.942 221.059L258.431 228.502C258.155 228.777 257.999 229.149 258 229.538C258.001 229.926 258.157 230.298 258.434 230.573C258.712 230.847 259.088 231.001 259.48 231C259.872 230.999 260.247 230.845 260.524 230.57L268.034 223.127C268.315 222.861 268.688 222.712 269.076 222.712C269.464 222.712 269.838 222.861 270.118 223.127L270.368 223.376C271.21 224.172 272.329 224.616 273.492 224.616C274.656 224.616 275.775 224.172 276.617 223.376L281.897 218.143L283.497 219.728C283.703 219.928 283.965 220.064 284.249 220.119C284.533 220.173 284.827 220.143 285.094 220.032C285.361 219.922 285.59 219.736 285.751 219.498C285.912 219.26 285.999 218.98 286 218.693V214.189C286 213.609 285.767 213.052 285.353 212.641C284.939 212.231 284.377 212 283.791 212Z" fill="url(#paint0_linear_11650_120413)"/>
</g>
<rect x="341.5" y="77.5" width="94" height="314" rx="32.5" transform="rotate(90 341.5 77.5)" stroke="#D2DCFD" stroke-dasharray="2 2"/>
<g clip-path="url(#clip1_11650_120413)">
<path d="M78.9815 127.901H86.1826V139.5H80.9148H74.1486H64.4828L55.6762 136.355H52.9805V117.559H60.9064L78.9815 127.901Z" fill="#E1FF49"/>
<path d="M86.1824 137.452V139.5H64.4824L55.6765 136.356H52.9805V117.559H60.9069L66.8285 120.947V120.95C66.8285 130.179 74.3099 137.66 83.5393 137.66C84.4383 137.66 85.3216 137.589 86.1824 137.452Z" fill="#8087FF"/>
<path d="M61.6797 110.215V121.357L68.5834 127.903H78.9816L73.9529 110.215H61.6797Z" fill="white"/>
<path d="M66.8282 120.952C66.8282 123.277 67.3027 125.49 68.1606 127.502L61.6792 121.357V110.215H70.7341C68.2968 113.118 66.8292 116.862 66.8282 120.949V120.952Z" fill="#D2DCFD"/>
<path d="M60.5542 141.236C63.2482 141.236 65.4322 139.052 65.4322 136.358C65.4322 133.664 63.2482 131.48 60.5542 131.48C57.8602 131.48 55.6763 133.664 55.6763 136.358C55.6763 139.052 57.8602 141.236 60.5542 141.236Z" fill="white"/>
<path d="M78.2908 141.137C80.2113 140.684 81.4005 138.759 80.947 136.839C80.4936 134.919 78.5691 133.729 76.6487 134.183C74.7282 134.636 73.539 136.561 73.9925 138.481C74.4459 140.402 76.3704 141.591 78.2908 141.137Z" fill="white"/>
<path d="M101.02 138.523H93.8807V108.766C93.8807 108.224 93.4418 107.785 92.9003 107.785C92.359 107.785 91.92 108.224 91.92 108.766V126.923H86.6176C86.0762 126.923 85.6372 127.362 85.6372 127.904C85.6372 128.445 86.0762 128.884 86.6176 128.884H91.92V135.623H86.6176C86.0762 135.623 85.6372 136.062 85.6372 136.603C85.6372 137.145 86.0762 137.583 86.6176 137.583H91.92V139.503C91.92 140.044 92.359 140.483 92.9003 140.483H101.02C101.561 140.483 102 140.044 102 139.503C102 138.962 101.561 138.523 101.02 138.523Z" fill="#8087FF"/>
<path d="M86.1825 126.923H79.722L74.8959 109.947C74.776 109.525 74.3911 109.234 73.9528 109.234H61.6796C61.1382 109.234 60.6992 109.673 60.6992 110.215V116.58H52.9804C52.4389 116.58 52 117.019 52 117.561V136.358C52 136.899 52.4389 137.338 52.9804 137.338H54.7793C55.2474 140.103 57.6579 142.216 60.5541 142.216C62.177 142.216 63.6475 141.552 64.7094 140.483H73.8983C74.733 141.537 76.023 142.216 77.4693 142.216C78.9157 142.216 80.2057 141.537 81.0403 140.483H86.1825C86.7239 140.483 87.1629 140.044 87.1629 139.502V127.903C87.1629 127.362 86.724 126.923 86.1825 126.923ZM62.66 111.195H73.2123L77.6835 126.923H68.9743L62.6601 120.935L62.66 111.195ZM60.5541 140.255C58.4049 140.255 56.6565 138.507 56.6565 136.358C56.6565 134.209 58.4049 132.46 60.5541 132.46C62.7032 132.46 64.4517 134.209 64.4517 136.358C64.4517 138.507 62.7032 140.255 60.5541 140.255ZM77.4693 140.255C76.0397 140.255 74.8767 139.092 74.8767 137.663C74.8767 136.233 76.0397 135.07 77.4693 135.07C78.8989 135.07 80.062 136.233 80.062 137.663C80.062 139.092 78.8989 140.255 77.4693 140.255ZM85.2022 138.522H81.9403C81.9937 138.243 82.0227 137.956 82.0227 137.663C82.0227 135.152 79.9801 133.109 77.4693 133.109C74.9585 133.109 72.9159 135.152 72.9159 137.663C72.9159 137.956 72.9449 138.243 72.9983 138.522H65.9964C66.2638 137.852 66.4125 137.122 66.4125 136.358C66.4125 133.127 63.7844 130.499 60.5541 130.499C57.6579 130.499 55.2474 132.612 54.7793 135.377H53.9608V118.541H60.6992V121.357C60.6992 121.626 60.8098 121.883 61.005 122.068L67.9087 128.615C68.0908 128.787 68.3323 128.884 68.5833 128.884H78.9815H85.2022V138.522Z" fill="#052A75"/>
</g>
<g clip-path="url(#clip2_11650_120413)">
<path d="M150.982 127.901H158.183V139.5H152.915H146.149H136.483L127.676 136.355H124.98V117.559H132.906L150.982 127.901Z" fill="#E1FF49"/>
<path d="M158.182 137.452V139.5H136.482L127.677 136.356H124.98V117.559H132.907L138.829 120.947V120.95C138.829 130.179 146.31 137.66 155.539 137.66C156.438 137.66 157.322 137.589 158.182 137.452Z" fill="#8087FF"/>
<path d="M133.68 110.215V121.357L140.583 127.903H150.982L145.953 110.215H133.68Z" fill="white"/>
<path d="M138.828 120.952C138.828 123.277 139.303 125.49 140.161 127.502L133.679 121.357V110.215H142.734C140.297 113.118 138.829 116.862 138.828 120.949V120.952Z" fill="#D2DCFD"/>
<path d="M132.554 141.236C135.248 141.236 137.432 139.052 137.432 136.358C137.432 133.664 135.248 131.48 132.554 131.48C129.86 131.48 127.676 133.664 127.676 136.358C127.676 139.052 129.86 141.236 132.554 141.236Z" fill="white"/>
<path d="M150.291 141.137C152.211 140.684 153.401 138.759 152.947 136.839C152.494 134.919 150.569 133.729 148.649 134.183C146.728 134.636 145.539 136.561 145.992 138.481C146.446 140.402 148.37 141.591 150.291 141.137Z" fill="white"/>
<path d="M173.02 138.523H165.881V108.766C165.881 108.224 165.442 107.785 164.9 107.785C164.359 107.785 163.92 108.224 163.92 108.766V126.923H158.618C158.076 126.923 157.637 127.362 157.637 127.904C157.637 128.445 158.076 128.884 158.618 128.884H163.92V135.623H158.618C158.076 135.623 157.637 136.062 157.637 136.603C157.637 137.145 158.076 137.583 158.618 137.583H163.92V139.503C163.92 140.044 164.359 140.483 164.9 140.483H173.02C173.561 140.483 174 140.044 174 139.503C174 138.962 173.561 138.523 173.02 138.523Z" fill="#8087FF"/>
<path d="M158.183 126.923H151.722L146.896 109.947C146.776 109.525 146.391 109.234 145.953 109.234H133.68C133.138 109.234 132.699 109.673 132.699 110.215V116.58H124.98C124.439 116.58 124 117.019 124 117.561V136.358C124 136.899 124.439 137.338 124.98 137.338H126.779C127.247 140.103 129.658 142.216 132.554 142.216C134.177 142.216 135.647 141.552 136.709 140.483H145.898C146.733 141.537 148.023 142.216 149.469 142.216C150.916 142.216 152.206 141.537 153.04 140.483H158.183C158.724 140.483 159.163 140.044 159.163 139.502V127.903C159.163 127.362 158.724 126.923 158.183 126.923ZM134.66 111.195H145.212L149.684 126.923H140.974L134.66 120.935L134.66 111.195ZM132.554 140.255C130.405 140.255 128.656 138.507 128.656 136.358C128.656 134.209 130.405 132.46 132.554 132.46C134.703 132.46 136.452 134.209 136.452 136.358C136.452 138.507 134.703 140.255 132.554 140.255ZM149.469 140.255C148.04 140.255 146.877 139.092 146.877 137.663C146.877 136.233 148.04 135.07 149.469 135.07C150.899 135.07 152.062 136.233 152.062 137.663C152.062 139.092 150.899 140.255 149.469 140.255ZM157.202 138.522H153.94C153.994 138.243 154.023 137.956 154.023 137.663C154.023 135.152 151.98 133.109 149.469 133.109C146.959 133.109 144.916 135.152 144.916 137.663C144.916 137.956 144.945 138.243 144.998 138.522H137.996C138.264 137.852 138.412 137.122 138.412 136.358C138.412 133.127 135.784 130.499 132.554 130.499C129.658 130.499 127.247 132.612 126.779 135.377H125.961V118.541H132.699V121.357C132.699 121.626 132.81 121.883 133.005 122.068L139.909 128.615C140.091 128.787 140.332 128.884 140.583 128.884H150.981H157.202V138.522Z" fill="#052A75"/>
</g>
<g clip-path="url(#clip3_11650_120413)">
<path d="M222.982 127.901H230.183V139.5H224.915H218.149H208.483L199.676 136.355H196.98V117.559H204.906L222.982 127.901Z" fill="#E1FF49"/>
<path d="M230.182 137.452V139.5H208.482L199.677 136.356H196.98V117.559H204.907L210.829 120.947V120.95C210.829 130.179 218.31 137.66 227.539 137.66C228.438 137.66 229.322 137.589 230.182 137.452Z" fill="#8087FF"/>
<path d="M205.68 110.215V121.357L212.583 127.903H222.982L217.953 110.215H205.68Z" fill="white"/>
<path d="M210.828 120.952C210.828 123.277 211.303 125.49 212.161 127.502L205.679 121.357V110.215H214.734C212.297 113.118 210.829 116.862 210.828 120.949V120.952Z" fill="#D2DCFD"/>
<path d="M204.554 141.236C207.248 141.236 209.432 139.052 209.432 136.358C209.432 133.664 207.248 131.48 204.554 131.48C201.86 131.48 199.676 133.664 199.676 136.358C199.676 139.052 201.86 141.236 204.554 141.236Z" fill="white"/>
<path d="M222.291 141.137C224.211 140.684 225.401 138.759 224.947 136.839C224.494 134.919 222.569 133.729 220.649 134.183C218.728 134.636 217.539 136.561 217.992 138.481C218.446 140.402 220.37 141.591 222.291 141.137Z" fill="white"/>
<path d="M245.02 138.523H237.881V108.766C237.881 108.224 237.442 107.785 236.9 107.785C236.359 107.785 235.92 108.224 235.92 108.766V126.923H230.618C230.076 126.923 229.637 127.362 229.637 127.904C229.637 128.445 230.076 128.884 230.618 128.884H235.92V135.623H230.618C230.076 135.623 229.637 136.062 229.637 136.603C229.637 137.145 230.076 137.583 230.618 137.583H235.92V139.503C235.92 140.044 236.359 140.483 236.9 140.483H245.02C245.561 140.483 246 140.044 246 139.503C246 138.962 245.561 138.523 245.02 138.523Z" fill="#8087FF"/>
<path d="M230.183 126.923H223.722L218.896 109.947C218.776 109.525 218.391 109.234 217.953 109.234H205.68C205.138 109.234 204.699 109.673 204.699 110.215V116.58H196.98C196.439 116.58 196 117.019 196 117.561V136.358C196 136.899 196.439 137.338 196.98 137.338H198.779C199.247 140.103 201.658 142.216 204.554 142.216C206.177 142.216 207.647 141.552 208.709 140.483H217.898C218.733 141.537 220.023 142.216 221.469 142.216C222.916 142.216 224.206 141.537 225.04 140.483H230.183C230.724 140.483 231.163 140.044 231.163 139.502V127.903C231.163 127.362 230.724 126.923 230.183 126.923ZM206.66 111.195H217.212L221.684 126.923H212.974L206.66 120.935L206.66 111.195ZM204.554 140.255C202.405 140.255 200.656 138.507 200.656 136.358C200.656 134.209 202.405 132.46 204.554 132.46C206.703 132.46 208.452 134.209 208.452 136.358C208.452 138.507 206.703 140.255 204.554 140.255ZM221.469 140.255C220.04 140.255 218.877 139.092 218.877 137.663C218.877 136.233 220.04 135.07 221.469 135.07C222.899 135.07 224.062 136.233 224.062 137.663C224.062 139.092 222.899 140.255 221.469 140.255ZM229.202 138.522H225.94C225.994 138.243 226.023 137.956 226.023 137.663C226.023 135.152 223.98 133.109 221.469 133.109C218.959 133.109 216.916 135.152 216.916 137.663C216.916 137.956 216.945 138.243 216.998 138.522H209.996C210.264 137.852 210.412 137.122 210.412 136.358C210.412 133.127 207.784 130.499 204.554 130.499C201.658 130.499 199.247 132.612 198.779 135.377H197.961V118.541H204.699V121.357C204.699 121.626 204.81 121.883 205.005 122.068L211.909 128.615C212.091 128.787 212.332 128.884 212.583 128.884H222.981H229.202V138.522Z" fill="#052A75"/>
</g>
<g clip-path="url(#clip4_11650_120413)">
<path d="M294.982 127.901H302.183V139.5H296.915H290.149H280.483L271.676 136.355H268.98V117.559H276.906L294.982 127.901Z" fill="#E1FF49"/>
<path d="M302.182 137.452V139.5H280.482L271.677 136.356H268.98V117.559H276.907L282.829 120.947V120.95C282.829 130.179 290.31 137.66 299.539 137.66C300.438 137.66 301.322 137.589 302.182 137.452Z" fill="#8087FF"/>
<path d="M277.68 110.215V121.357L284.583 127.903H294.982L289.953 110.215H277.68Z" fill="white"/>
<path d="M282.828 120.952C282.828 123.277 283.303 125.49 284.161 127.502L277.679 121.357V110.215H286.734C284.297 113.118 282.829 116.862 282.828 120.949V120.952Z" fill="#D2DCFD"/>
<path d="M276.554 141.236C279.248 141.236 281.432 139.052 281.432 136.358C281.432 133.664 279.248 131.48 276.554 131.48C273.86 131.48 271.676 133.664 271.676 136.358C271.676 139.052 273.86 141.236 276.554 141.236Z" fill="white"/>
<path d="M294.291 141.137C296.211 140.684 297.401 138.759 296.947 136.839C296.494 134.919 294.569 133.729 292.649 134.183C290.728 134.636 289.539 136.561 289.992 138.481C290.446 140.402 292.37 141.591 294.291 141.137Z" fill="white"/>
<path d="M317.02 138.523H309.881V108.766C309.881 108.224 309.442 107.785 308.9 107.785C308.359 107.785 307.92 108.224 307.92 108.766V126.923H302.618C302.076 126.923 301.637 127.362 301.637 127.904C301.637 128.445 302.076 128.884 302.618 128.884H307.92V135.623H302.618C302.076 135.623 301.637 136.062 301.637 136.603C301.637 137.145 302.076 137.583 302.618 137.583H307.92V139.503C307.92 140.044 308.359 140.483 308.9 140.483H317.02C317.561 140.483 318 140.044 318 139.503C318 138.962 317.561 138.523 317.02 138.523Z" fill="#8087FF"/>
<path d="M302.183 126.923H295.722L290.896 109.947C290.776 109.525 290.391 109.234 289.953 109.234H277.68C277.138 109.234 276.699 109.673 276.699 110.215V116.58H268.98C268.439 116.58 268 117.019 268 117.561V136.358C268 136.899 268.439 137.338 268.98 137.338H270.779C271.247 140.103 273.658 142.216 276.554 142.216C278.177 142.216 279.647 141.552 280.709 140.483H289.898C290.733 141.537 292.023 142.216 293.469 142.216C294.916 142.216 296.206 141.537 297.04 140.483H302.183C302.724 140.483 303.163 140.044 303.163 139.502V127.903C303.163 127.362 302.724 126.923 302.183 126.923ZM278.66 111.195H289.212L293.684 126.923H284.974L278.66 120.935L278.66 111.195ZM276.554 140.255C274.405 140.255 272.656 138.507 272.656 136.358C272.656 134.209 274.405 132.46 276.554 132.46C278.703 132.46 280.452 134.209 280.452 136.358C280.452 138.507 278.703 140.255 276.554 140.255ZM293.469 140.255C292.04 140.255 290.877 139.092 290.877 137.663C290.877 136.233 292.04 135.07 293.469 135.07C294.899 135.07 296.062 136.233 296.062 137.663C296.062 139.092 294.899 140.255 293.469 140.255ZM301.202 138.522H297.94C297.994 138.243 298.023 137.956 298.023 137.663C298.023 135.152 295.98 133.109 293.469 133.109C290.959 133.109 288.916 135.152 288.916 137.663C288.916 137.956 288.945 138.243 288.998 138.522H281.996C282.264 137.852 282.412 137.122 282.412 136.358C282.412 133.127 279.784 130.499 276.554 130.499C273.658 130.499 271.247 132.612 270.779 135.377H269.961V118.541H276.699V121.357C276.699 121.626 276.81 121.883 277.005 122.068L283.909 128.615C284.091 128.787 284.332 128.884 284.583 128.884H294.981H301.202V138.522Z" fill="#052A75"/>
</g>
<defs>
<linearGradient id="paint0_linear_11650_120413" x1="272" y1="212" x2="272" y2="231" gradientUnits="userSpaceOnUse">
<stop stop-color="#606060"/>
<stop offset="1" stop-color="white" stop-opacity="0"/>
</linearGradient>
<clipPath id="clip0_11650_120413">
<rect width="369" height="355" fill="white"/>
</clipPath>
<clipPath id="clip1_11650_120413">
<rect width="50" height="50" fill="white" transform="translate(52 100)"/>
</clipPath>
<clipPath id="clip2_11650_120413">
<rect width="50" height="50" fill="white" transform="translate(124 100)"/>
</clipPath>
<clipPath id="clip3_11650_120413">
<rect width="50" height="50" fill="white" transform="translate(196 100)"/>
</clipPath>
<clipPath id="clip4_11650_120413">
<rect width="50" height="50" fill="white" transform="translate(268 100)"/>
</clipPath>
</defs>
</svg>
