<svg width="93" height="92" viewBox="0 0 93 92" fill="none" xmlns="http://www.w3.org/2000/svg">
<rect x="1.25995" y="0.389831" width="91.079" height="91.2203" rx="17.5424" stroke="#BEBEBE" stroke-width="0.779661"/>
<line x1="18.0297" y1="22.3477" x2="18.0297" y2="66.6291" stroke="#3347E6" stroke-width="0.1258"/>
<line x1="27.0873" y1="22.4106" x2="27.0873" y2="66.5662" stroke="#D3D6DF" stroke-width="0.1258" stroke-linecap="square" stroke-dasharray="0.25 0.25"/>
<line x1="36.1449" y1="22.4106" x2="36.1449" y2="66.5662" stroke="#D3D6DF" stroke-width="0.1258" stroke-linecap="square" stroke-dasharray="0.25 0.25"/>
<line x1="45.2025" y1="22.4106" x2="45.2025" y2="66.5662" stroke="#D3D6DF" stroke-width="0.1258" stroke-linecap="square" stroke-dasharray="0.25 0.25"/>
<line x1="54.2602" y1="22.4106" x2="54.2602" y2="66.5662" stroke="#D3D6DF" stroke-width="0.1258" stroke-linecap="square" stroke-dasharray="0.25 0.25"/>
<line x1="63.3178" y1="22.4106" x2="63.3178" y2="66.5662" stroke="#D3D6DF" stroke-width="0.1258" stroke-linecap="square" stroke-dasharray="0.25 0.25"/>
<line x1="72.3754" y1="22.4106" x2="72.3754" y2="66.5662" stroke="#D3D6DF" stroke-width="0.1258" stroke-linecap="square" stroke-dasharray="0.25 0.25"/>
<line x1="81.433" y1="22.4106" x2="81.433" y2="66.5662" stroke="#D3D6DF" stroke-width="0.1258" stroke-linecap="square" stroke-dasharray="0.25 0.25"/>
<line x1="18.2816" y1="23.5426" x2="81.3073" y2="23.5426" stroke="#D3D6DF" stroke-width="0.1258" stroke-linecap="square" stroke-dasharray="0.25 0.25"/>
<line x1="18.2816" y1="26.3121" x2="81.3073" y2="26.3121" stroke="#D3D6DF" stroke-width="0.1258" stroke-linecap="square" stroke-dasharray="0.25 0.25"/>
<line x1="18.2816" y1="29.0777" x2="81.3073" y2="29.0777" stroke="#D3D6DF" stroke-width="0.1258" stroke-linecap="square" stroke-dasharray="0.25 0.25"/>
<line x1="18.2816" y1="31.8473" x2="81.3073" y2="31.8473" stroke="#D3D6DF" stroke-width="0.1258" stroke-linecap="square" stroke-dasharray="0.25 0.25"/>
<line x1="18.2816" y1="34.6129" x2="81.3073" y2="34.6129" stroke="#D3D6DF" stroke-width="0.1258" stroke-linecap="square" stroke-dasharray="0.25 0.25"/>
<line x1="18.2816" y1="37.3824" x2="81.3073" y2="37.3824" stroke="#D3D6DF" stroke-width="0.1258" stroke-linecap="square" stroke-dasharray="0.25 0.25"/>
<line x1="18.2816" y1="40.148" x2="81.3073" y2="40.148" stroke="#D3D6DF" stroke-width="0.1258" stroke-linecap="square" stroke-dasharray="0.25 0.25"/>
<line x1="18.2816" y1="42.9176" x2="81.3073" y2="42.9176" stroke="#D3D6DF" stroke-width="0.1258" stroke-linecap="square" stroke-dasharray="0.25 0.25"/>
<line x1="18.2816" y1="45.6832" x2="81.3073" y2="45.6832" stroke="#D3D6DF" stroke-width="0.1258" stroke-linecap="square" stroke-dasharray="0.25 0.25"/>
<line x1="18.2816" y1="48.4527" x2="81.3073" y2="48.4527" stroke="#D3D6DF" stroke-width="0.1258" stroke-linecap="square" stroke-dasharray="0.25 0.25"/>
<line x1="18.2816" y1="51.2184" x2="81.3073" y2="51.2183" stroke="#D3D6DF" stroke-width="0.1258" stroke-linecap="square" stroke-dasharray="0.25 0.25"/>
<line x1="18.2816" y1="53.9879" x2="81.3073" y2="53.9879" stroke="#D3D6DF" stroke-width="0.1258" stroke-linecap="square" stroke-dasharray="0.25 0.25"/>
<line x1="18.2816" y1="56.7535" x2="81.3073" y2="56.7535" stroke="#D3D6DF" stroke-width="0.1258" stroke-linecap="square" stroke-dasharray="0.25 0.25"/>
<line x1="18.2816" y1="59.523" x2="81.3073" y2="59.523" stroke="#D3D6DF" stroke-width="0.1258" stroke-linecap="square" stroke-dasharray="0.25 0.25"/>
<line x1="18.2816" y1="62.2887" x2="81.3073" y2="62.2887" stroke="#D3D6DF" stroke-width="0.1258" stroke-linecap="square" stroke-dasharray="0.25 0.25"/>
<line x1="18.2816" y1="65.0582" x2="81.3073" y2="65.0582" stroke="#D3D6DF" stroke-width="0.1258" stroke-linecap="square" stroke-dasharray="0.25 0.25"/>
<path d="M18.3746 69.016C18.3746 69.1165 18.367 69.2063 18.3518 69.2853C18.3365 69.3643 18.3125 69.4312 18.2798 69.486C18.2471 69.5408 18.2047 69.5825 18.1528 69.6113C18.1008 69.6395 18.0385 69.6537 17.9656 69.6537C17.8736 69.6537 17.7974 69.6285 17.737 69.5783C17.6772 69.528 17.6323 69.4555 17.6024 69.3607C17.573 69.2653 17.5583 69.1504 17.5583 69.016C17.5583 68.8839 17.5716 68.7705 17.5981 68.6756C17.6252 68.5802 17.6687 68.5071 17.7285 68.4563C17.7884 68.4049 17.8674 68.3793 17.9656 68.3793C18.0588 68.3793 18.1356 68.4047 18.196 68.4555C18.2564 68.5057 18.3012 68.5785 18.3306 68.6739C18.36 68.7688 18.3746 68.8828 18.3746 69.016ZM17.6998 69.016C17.6998 69.1312 17.7085 69.2272 17.726 69.3039C17.7435 69.3807 17.7717 69.4383 17.8107 69.4767C17.8502 69.5145 17.9019 69.5334 17.9656 69.5334C18.0294 69.5334 18.0808 69.5145 18.1198 69.4767C18.1593 69.4389 18.1878 69.3816 18.2053 69.3048C18.2233 69.228 18.2324 69.1318 18.2324 69.016C18.2324 68.9026 18.2236 68.8077 18.2061 68.7315C18.1886 68.6547 18.1604 68.5972 18.1214 68.5588C18.0825 68.5198 18.0306 68.5003 17.9656 68.5003C17.9007 68.5003 17.8488 68.5198 17.8098 68.5588C17.7709 68.5972 17.7427 68.6547 17.7252 68.7315C17.7082 68.8077 17.6998 68.9026 17.6998 69.016Z" fill="#222539"/>
<path d="M27.5082 69.6367H27.3711V68.7595C27.3711 68.7261 27.3711 68.6976 27.3711 68.6739C27.3716 68.6497 27.3722 68.6276 27.3728 68.6079C27.3739 68.5876 27.3753 68.567 27.377 68.5461C27.3595 68.5641 27.3431 68.5797 27.3279 68.5926C27.3126 68.6051 27.2937 68.6206 27.2712 68.6392L27.1297 68.7527L27.0561 68.657L27.3914 68.3987H27.5082V69.6367Z" fill="#222539"/>
<path d="M36.721 69.6367H35.9097V69.519L36.2408 69.1828C36.3024 69.1207 36.354 69.0654 36.3958 69.0169C36.4381 68.9683 36.4703 68.9206 36.4923 68.8738C36.5143 68.8264 36.5254 68.7744 36.5254 68.718C36.5254 68.648 36.5045 68.5946 36.4627 68.5579C36.4215 68.5207 36.367 68.502 36.2993 68.502C36.24 68.502 36.1875 68.5122 36.1418 68.5325C36.096 68.5528 36.0492 68.5816 36.0012 68.6189L35.9258 68.5241C35.9586 68.4964 35.9941 68.4718 36.0325 68.4504C36.0715 68.4289 36.113 68.412 36.157 68.3996C36.2016 68.3872 36.249 68.3809 36.2993 68.3809C36.3755 68.3809 36.4412 68.3942 36.4966 68.4207C36.5519 68.4473 36.5945 68.4851 36.6244 68.5342C36.6549 68.5833 36.6702 68.6418 36.6702 68.7095C36.6702 68.775 36.6572 68.8359 36.6312 68.8924C36.6052 68.9483 36.5688 69.0039 36.522 69.0592C36.4751 69.114 36.4204 69.1721 36.3577 69.2337L36.0884 69.5021V69.508H36.721V69.6367Z" fill="#222539"/>
<path d="M45.601 68.6875C45.601 68.7428 45.5903 68.7908 45.5688 68.8314C45.5474 68.8721 45.5175 68.9054 45.4791 68.9314C45.4407 68.9568 45.3955 68.9745 45.3436 68.9847V68.9915C45.4418 69.0039 45.5155 69.0355 45.5646 69.0863C45.6143 69.1371 45.6391 69.2037 45.6391 69.2862C45.6391 69.3578 45.6222 69.4214 45.5883 69.4767C45.555 69.532 45.5036 69.5755 45.4342 69.6071C45.3653 69.6381 45.277 69.6537 45.1692 69.6537C45.1037 69.6537 45.043 69.6483 44.9871 69.6376C44.9318 69.6274 44.8787 69.6102 44.8279 69.5859V69.4538C44.8793 69.4792 44.9352 69.4993 44.9956 69.5139C45.056 69.528 45.1144 69.5351 45.1708 69.5351C45.2838 69.5351 45.3653 69.5128 45.4156 69.4682C45.4658 69.423 45.4909 69.3615 45.4909 69.2836C45.4909 69.23 45.4768 69.1868 45.4486 69.1541C45.4209 69.1207 45.3809 69.0965 45.3284 69.0812C45.2764 69.0654 45.2138 69.0575 45.1404 69.0575H45.0167V68.9373H45.1412C45.2084 68.9373 45.2654 68.9274 45.3123 68.9076C45.3591 68.8879 45.3947 68.8602 45.419 68.8247C45.4438 68.7885 45.4562 68.7459 45.4562 68.6968C45.4562 68.6341 45.4353 68.5859 45.3936 68.552C45.3518 68.5176 45.295 68.5003 45.2233 68.5003C45.1793 68.5003 45.1392 68.5049 45.1031 68.5139C45.067 68.5229 45.0331 68.5353 45.0015 68.5511C44.9699 68.567 44.9383 68.5853 44.9067 68.6062L44.8355 68.5097C44.8807 68.4747 44.9357 68.4445 45.0006 68.419C45.0656 68.3936 45.1392 68.3809 45.2217 68.3809C45.3481 68.3809 45.4429 68.4097 45.5062 68.4673C45.5694 68.5249 45.601 68.5983 45.601 68.6875Z" fill="#222539"/>
<path d="M54.6334 69.3497H54.4479V69.6367H54.3107V69.3497H53.7121V69.2311L54.3014 68.392H54.4479V69.2226H54.6334V69.3497ZM54.3107 69.2226V68.8179C54.3107 68.7868 54.311 68.7589 54.3116 68.7341C54.3121 68.7086 54.313 68.6852 54.3141 68.6638C54.3153 68.6418 54.3161 68.6209 54.3167 68.6011C54.3178 68.5813 54.3186 68.5619 54.3192 68.5427H54.3124C54.3017 68.5653 54.2893 68.5893 54.2752 68.6147C54.2616 68.6395 54.2478 68.6618 54.2337 68.6816L53.8518 69.2226H54.3107Z" fill="#222539"/>
<path d="M63.0773 68.8797C63.1614 68.8797 63.2345 68.8941 63.2966 68.9229C63.3587 68.9511 63.4067 68.9923 63.4406 69.0465C63.475 69.1007 63.4922 69.1665 63.4922 69.2438C63.4922 69.3285 63.4739 69.4016 63.4372 69.4631C63.4005 69.5241 63.3477 69.5712 63.2789 69.6045C63.21 69.6373 63.1276 69.6537 63.0316 69.6537C62.9672 69.6537 62.9074 69.648 62.8521 69.6367C62.7968 69.6254 62.7502 69.6085 62.7124 69.5859V69.4521C62.7536 69.477 62.8035 69.4967 62.8622 69.5114C62.921 69.5261 62.978 69.5334 63.0333 69.5334C63.096 69.5334 63.1507 69.5235 63.1976 69.5038C63.245 69.4835 63.2817 69.453 63.3076 69.4123C63.3342 69.3711 63.3474 69.3195 63.3474 69.2574C63.3474 69.1749 63.322 69.1114 63.2712 69.0668C63.221 69.0217 63.1414 68.9991 63.0324 68.9991C62.9974 68.9991 62.9591 69.0019 62.9173 69.0076C62.8755 69.0132 62.8411 69.0194 62.814 69.0262L62.7428 68.9796L62.7903 68.3987H63.4059V68.5274H62.9105L62.8792 68.9009C62.9006 68.8964 62.9283 68.8918 62.9622 68.8873C62.996 68.8822 63.0344 68.8797 63.0773 68.8797Z" fill="#222539"/>
<path d="M71.6246 69.1075C71.6246 69.033 71.6297 68.9601 71.6398 68.889C71.6506 68.8179 71.6683 68.7518 71.6932 68.6909C71.718 68.6293 71.7519 68.5754 71.7948 68.5291C71.8377 68.4828 71.891 68.4467 71.9548 68.4207C72.0192 68.3942 72.0962 68.3809 72.186 68.3809C72.2114 68.3809 72.2388 68.3824 72.2681 68.3852C72.2975 68.3874 72.3218 68.3914 72.341 68.397V68.5181C72.3201 68.5108 72.2961 68.5054 72.269 68.502C72.2425 68.4986 72.2156 68.497 72.1885 68.497C72.0835 68.497 72.0008 68.5198 71.9404 68.5655C71.8806 68.6113 71.8374 68.6734 71.8109 68.7518C71.7844 68.8297 71.7691 68.9175 71.7652 69.0152H71.7745C71.792 68.987 71.8143 68.9616 71.8414 68.939C71.8685 68.9158 71.9012 68.8975 71.9396 68.8839C71.9785 68.8704 72.0237 68.8636 72.0751 68.8636C72.1473 68.8636 72.2103 68.8783 72.2639 68.9076C72.3181 68.937 72.3599 68.9796 72.3892 69.0355C72.4192 69.0914 72.4341 69.1591 72.4341 69.2387C72.4341 69.324 72.4183 69.3976 72.3867 69.4597C72.3551 69.5218 72.3099 69.5698 72.2512 69.6037C72.1931 69.637 72.1236 69.6537 72.0429 69.6537C71.9825 69.6537 71.9269 69.6421 71.8761 69.6189C71.8253 69.5958 71.781 69.5614 71.7431 69.5156C71.7059 69.4699 71.6768 69.4132 71.6559 69.3454C71.635 69.2771 71.6246 69.1978 71.6246 69.1075ZM72.0412 69.5351C72.118 69.5351 72.1795 69.5105 72.2258 69.4614C72.2721 69.4123 72.2952 69.3381 72.2952 69.2387C72.2952 69.1574 72.2746 69.0931 72.2334 69.0457C72.1922 68.9982 72.1301 68.9745 72.0471 68.9745C71.9907 68.9745 71.9416 68.9864 71.8998 69.0101C71.858 69.0332 71.8256 69.0626 71.8024 69.0982C71.7793 69.1337 71.7677 69.1699 71.7677 69.2066C71.7677 69.2438 71.7731 69.2816 71.7838 69.32C71.7951 69.3584 71.812 69.394 71.8346 69.4267C71.8572 69.4595 71.8857 69.4857 71.9201 69.5055C71.9546 69.5252 71.9949 69.5351 72.0412 69.5351Z" fill="#222539"/>
<path d="M80.6967 69.6367L81.2048 68.5274H80.5299V68.3987H81.3555V68.5071L80.8509 69.6367H80.6967Z" fill="#222539"/>
<path d="M12.477 24.2227H12.3398V23.3454C12.3398 23.3121 12.3398 23.2836 12.3398 23.2599C12.3404 23.2356 12.341 23.2136 12.3415 23.1938C12.3427 23.1735 12.3441 23.1529 12.3458 23.132C12.3283 23.1501 12.3119 23.1656 12.2967 23.1786C12.2814 23.191 12.2625 23.2065 12.2399 23.2251L12.0985 23.3386L12.0248 23.2429L12.3602 22.9847H12.477V24.2227ZM13.3374 23.4656C13.4215 23.4656 13.4946 23.48 13.5567 23.5088C13.6188 23.537 13.6667 23.5783 13.7006 23.6325C13.7351 23.6866 13.7523 23.7524 13.7523 23.8298C13.7523 23.9144 13.7339 23.9875 13.6972 24.0491C13.6605 24.11 13.6078 24.1572 13.5389 24.1905C13.47 24.2232 13.3876 24.2396 13.2916 24.2396C13.2273 24.2396 13.1674 24.2339 13.1121 24.2227C13.0568 24.2114 13.0102 24.1944 12.9724 24.1718V24.0381C13.0136 24.0629 13.0636 24.0827 13.1223 24.0973C13.181 24.112 13.238 24.1193 13.2933 24.1193C13.356 24.1193 13.4107 24.1095 13.4576 24.0897C13.505 24.0694 13.5417 24.0389 13.5677 23.9983C13.5942 23.957 13.6075 23.9054 13.6075 23.8433C13.6075 23.7609 13.5821 23.6974 13.5313 23.6528C13.481 23.6076 13.4014 23.585 13.2925 23.585C13.2575 23.585 13.2191 23.5879 13.1773 23.5935C13.1355 23.5991 13.1011 23.6054 13.074 23.6121L13.0029 23.5656L13.0503 22.9847H13.6659V23.1134H13.1705L13.1392 23.4868C13.1607 23.4823 13.1883 23.4778 13.2222 23.4733C13.2561 23.4682 13.2944 23.4656 13.3374 23.4656ZM14.7566 23.602C14.7566 23.7025 14.7489 23.7922 14.7337 23.8712C14.7184 23.9503 14.6945 24.0172 14.6617 24.0719C14.629 24.1267 14.5866 24.1685 14.5347 24.1973C14.4828 24.2255 14.4204 24.2396 14.3476 24.2396C14.2555 24.2396 14.1793 24.2145 14.1189 24.1642C14.0591 24.114 14.0142 24.0414 13.9843 23.9466C13.9549 23.8512 13.9403 23.7363 13.9403 23.602C13.9403 23.4699 13.9535 23.3564 13.9801 23.2616C14.0072 23.1662 14.0506 23.0931 14.1105 23.0422C14.1703 22.9909 14.2493 22.9652 14.3476 22.9652C14.4407 22.9652 14.5175 22.9906 14.5779 23.0414C14.6383 23.0916 14.6832 23.1645 14.7125 23.2599C14.7419 23.3547 14.7566 23.4687 14.7566 23.602ZM14.0817 23.602C14.0817 23.7171 14.0904 23.8131 14.1079 23.8899C14.1254 23.9666 14.1536 24.0242 14.1926 24.0626C14.2321 24.1004 14.2838 24.1193 14.3476 24.1193C14.4113 24.1193 14.4627 24.1004 14.5017 24.0626C14.5412 24.0248 14.5697 23.9675 14.5872 23.8907C14.6053 23.8139 14.6143 23.7177 14.6143 23.602C14.6143 23.4885 14.6055 23.3937 14.588 23.3174C14.5705 23.2407 14.5423 23.1831 14.5034 23.1447C14.4644 23.1058 14.4125 23.0863 14.3476 23.0863C14.2826 23.0863 14.2307 23.1058 14.1918 23.1447C14.1528 23.1831 14.1246 23.2407 14.1071 23.3174C14.0901 23.3937 14.0817 23.4885 14.0817 23.602ZM15.749 23.602C15.749 23.7025 15.7414 23.7922 15.7261 23.8712C15.7109 23.9503 15.6869 24.0172 15.6541 24.0719C15.6214 24.1267 15.5791 24.1685 15.5271 24.1973C15.4752 24.2255 15.4128 24.2396 15.34 24.2396C15.248 24.2396 15.1718 24.2145 15.1114 24.1642C15.0515 24.114 15.0066 24.0414 14.9767 23.9466C14.9474 23.8512 14.9327 23.7363 14.9327 23.602C14.9327 23.4699 14.9459 23.3564 14.9725 23.2616C14.9996 23.1662 15.043 23.0931 15.1029 23.0422C15.1627 22.9909 15.2418 22.9652 15.34 22.9652C15.4331 22.9652 15.5099 22.9906 15.5703 23.0414C15.6307 23.0916 15.6756 23.1645 15.7049 23.2599C15.7343 23.3547 15.749 23.4687 15.749 23.602ZM15.0741 23.602C15.0741 23.7171 15.0828 23.8131 15.1003 23.8899C15.1178 23.9666 15.1461 24.0242 15.185 24.0626C15.2245 24.1004 15.2762 24.1193 15.34 24.1193C15.4038 24.1193 15.4551 24.1004 15.4941 24.0626C15.5336 24.0248 15.5621 23.9675 15.5796 23.8907C15.5977 23.8139 15.6067 23.7177 15.6067 23.602C15.6067 23.4885 15.598 23.3937 15.5805 23.3174C15.563 23.2407 15.5347 23.1831 15.4958 23.1447C15.4568 23.1058 15.4049 23.0863 15.34 23.0863C15.2751 23.0863 15.2231 23.1058 15.1842 23.1447C15.1452 23.1831 15.117 23.2407 15.0995 23.3174C15.0826 23.3937 15.0741 23.4885 15.0741 23.602ZM12.477 27.2227H12.3398V26.3454C12.3398 26.3121 12.3398 26.2836 12.3398 26.2599C12.3404 26.2356 12.341 26.2136 12.3415 26.1938C12.3427 26.1735 12.3441 26.1529 12.3458 26.132C12.3283 26.1501 12.3119 26.1656 12.2967 26.1786C12.2814 26.191 12.2625 26.2065 12.2399 26.2251L12.0985 26.3386L12.0248 26.2429L12.3602 25.9847H12.477V27.2227ZM13.8192 26.9356H13.6337V27.2227H13.4965V26.9356H12.8979V26.817L13.4872 25.9779H13.6337V26.8086H13.8192V26.9356ZM13.4965 26.8086V26.4038C13.4965 26.3728 13.4968 26.3448 13.4974 26.32C13.498 26.2946 13.4988 26.2712 13.4999 26.2497C13.5011 26.2277 13.5019 26.2068 13.5025 26.187C13.5036 26.1673 13.5044 26.1478 13.505 26.1286H13.4982C13.4875 26.1512 13.4751 26.1752 13.461 26.2006C13.4474 26.2254 13.4336 26.2477 13.4195 26.2675L13.0376 26.8086H13.4965ZM14.7566 26.602C14.7566 26.7025 14.7489 26.7922 14.7337 26.8712C14.7184 26.9503 14.6945 27.0172 14.6617 27.0719C14.629 27.1267 14.5866 27.1685 14.5347 27.1973C14.4828 27.2255 14.4204 27.2396 14.3476 27.2396C14.2555 27.2396 14.1793 27.2145 14.1189 27.1642C14.0591 27.114 14.0142 27.0414 13.9843 26.9466C13.9549 26.8512 13.9403 26.7363 13.9403 26.602C13.9403 26.4699 13.9535 26.3564 13.9801 26.2616C14.0072 26.1662 14.0506 26.0931 14.1105 26.0422C14.1703 25.9909 14.2493 25.9652 14.3476 25.9652C14.4407 25.9652 14.5175 25.9906 14.5779 26.0414C14.6383 26.0916 14.6832 26.1645 14.7125 26.2599C14.7419 26.3547 14.7566 26.4687 14.7566 26.602ZM14.0817 26.602C14.0817 26.7171 14.0904 26.8131 14.1079 26.8899C14.1254 26.9666 14.1536 27.0242 14.1926 27.0626C14.2321 27.1004 14.2838 27.1193 14.3476 27.1193C14.4113 27.1193 14.4627 27.1004 14.5017 27.0626C14.5412 27.0248 14.5697 26.9675 14.5872 26.8907C14.6053 26.8139 14.6143 26.7177 14.6143 26.602C14.6143 26.4885 14.6055 26.3937 14.588 26.3174C14.5705 26.2407 14.5423 26.1831 14.5034 26.1447C14.4644 26.1058 14.4125 26.0863 14.3476 26.0863C14.2826 26.0863 14.2307 26.1058 14.1918 26.1447C14.1528 26.1831 14.1246 26.2407 14.1071 26.3174C14.0901 26.3937 14.0817 26.4885 14.0817 26.602ZM15.749 26.602C15.749 26.7025 15.7414 26.7922 15.7261 26.8712C15.7109 26.9503 15.6869 27.0172 15.6541 27.0719C15.6214 27.1267 15.5791 27.1685 15.5271 27.1973C15.4752 27.2255 15.4128 27.2396 15.34 27.2396C15.248 27.2396 15.1718 27.2145 15.1114 27.1642C15.0515 27.114 15.0066 27.0414 14.9767 26.9466C14.9474 26.8512 14.9327 26.7363 14.9327 26.602C14.9327 26.4699 14.9459 26.3564 14.9725 26.2616C14.9996 26.1662 15.043 26.0931 15.1029 26.0422C15.1627 25.9909 15.2418 25.9652 15.34 25.9652C15.4331 25.9652 15.5099 25.9906 15.5703 26.0414C15.6307 26.0916 15.6756 26.1645 15.7049 26.2599C15.7343 26.3547 15.749 26.4687 15.749 26.602ZM15.0741 26.602C15.0741 26.7171 15.0828 26.8131 15.1003 26.8899C15.1178 26.9666 15.1461 27.0242 15.185 27.0626C15.2245 27.1004 15.2762 27.1193 15.34 27.1193C15.4038 27.1193 15.4551 27.1004 15.4941 27.0626C15.5336 27.0248 15.5621 26.9675 15.5796 26.8907C15.5977 26.8139 15.6067 26.7177 15.6067 26.602C15.6067 26.4885 15.598 26.3937 15.5805 26.3174C15.563 26.2407 15.5347 26.1831 15.4958 26.1447C15.4568 26.1058 15.4049 26.0863 15.34 26.0863C15.2751 26.0863 15.2231 26.1058 15.1842 26.1447C15.1452 26.1831 15.117 26.2407 15.0995 26.3174C15.0826 26.3937 15.0741 26.4885 15.0741 26.602ZM12.477 30.2227H12.3398V29.3454C12.3398 29.3121 12.3398 29.2836 12.3398 29.2599C12.3404 29.2356 12.341 29.2136 12.3415 29.1938C12.3427 29.1735 12.3441 29.1529 12.3458 29.132C12.3283 29.1501 12.3119 29.1656 12.2967 29.1786C12.2814 29.191 12.2625 29.2065 12.2399 29.2251L12.0985 29.3386L12.0248 29.2429L12.3602 28.9847H12.477V30.2227ZM13.7116 29.2734C13.7116 29.3287 13.7009 29.3767 13.6794 29.4174C13.658 29.458 13.6281 29.4913 13.5897 29.5173C13.5513 29.5427 13.5061 29.5605 13.4542 29.5706V29.5774C13.5524 29.5898 13.6261 29.6214 13.6752 29.6722C13.7249 29.7231 13.7497 29.7897 13.7497 29.8721C13.7497 29.9438 13.7328 30.0073 13.6989 30.0626C13.6656 30.1179 13.6142 30.1614 13.5448 30.193C13.4759 30.2241 13.3876 30.2396 13.2798 30.2396C13.2143 30.2396 13.1536 30.2342 13.0977 30.2235C13.0424 30.2133 12.9893 30.1961 12.9385 30.1718V30.0398C12.9899 30.0652 13.0458 30.0852 13.1062 30.0999C13.1666 30.114 13.225 30.121 13.2815 30.121C13.3944 30.121 13.4759 30.0987 13.5262 30.0541C13.5764 30.009 13.6015 29.9475 13.6015 29.8695C13.6015 29.8159 13.5874 29.7727 13.5592 29.74C13.5315 29.7067 13.4915 29.6824 13.439 29.6672C13.387 29.6514 13.3244 29.6435 13.251 29.6435H13.1273V29.5232H13.2518C13.319 29.5232 13.376 29.5133 13.4229 29.4936C13.4697 29.4738 13.5053 29.4462 13.5296 29.4106C13.5544 29.3745 13.5668 29.3318 13.5668 29.2827C13.5668 29.2201 13.5459 29.1718 13.5042 29.1379C13.4624 29.1035 13.4057 29.0863 13.334 29.0863C13.2899 29.0863 13.2498 29.0908 13.2137 29.0998C13.1776 29.1089 13.1437 29.1213 13.1121 29.1371C13.0805 29.1529 13.0489 29.1712 13.0173 29.1921L12.9461 29.0956C12.9913 29.0606 13.0463 29.0304 13.1113 29.005C13.1762 28.9796 13.2498 28.9669 13.3323 28.9669C13.4587 28.9669 13.5536 28.9957 13.6168 29.0533C13.68 29.1108 13.7116 29.1842 13.7116 29.2734ZM14.7566 29.602C14.7566 29.7025 14.7489 29.7922 14.7337 29.8712C14.7184 29.9503 14.6945 30.0172 14.6617 30.0719C14.629 30.1267 14.5866 30.1685 14.5347 30.1973C14.4828 30.2255 14.4204 30.2396 14.3476 30.2396C14.2555 30.2396 14.1793 30.2145 14.1189 30.1642C14.0591 30.114 14.0142 30.0414 13.9843 29.9466C13.9549 29.8512 13.9403 29.7363 13.9403 29.602C13.9403 29.4699 13.9535 29.3564 13.9801 29.2616C14.0072 29.1662 14.0506 29.0931 14.1105 29.0422C14.1703 28.9909 14.2493 28.9652 14.3476 28.9652C14.4407 28.9652 14.5175 28.9906 14.5779 29.0414C14.6383 29.0916 14.6832 29.1645 14.7125 29.2599C14.7419 29.3547 14.7566 29.4687 14.7566 29.602ZM14.0817 29.602C14.0817 29.7171 14.0904 29.8131 14.1079 29.8899C14.1254 29.9666 14.1536 30.0242 14.1926 30.0626C14.2321 30.1004 14.2838 30.1193 14.3476 30.1193C14.4113 30.1193 14.4627 30.1004 14.5017 30.0626C14.5412 30.0248 14.5697 29.9675 14.5872 29.8907C14.6053 29.8139 14.6143 29.7177 14.6143 29.602C14.6143 29.4885 14.6055 29.3937 14.588 29.3174C14.5705 29.2407 14.5423 29.1831 14.5034 29.1447C14.4644 29.1058 14.4125 29.0863 14.3476 29.0863C14.2826 29.0863 14.2307 29.1058 14.1918 29.1447C14.1528 29.1831 14.1246 29.2407 14.1071 29.3174C14.0901 29.3937 14.0817 29.4885 14.0817 29.602ZM15.749 29.602C15.749 29.7025 15.7414 29.7922 15.7261 29.8712C15.7109 29.9503 15.6869 30.0172 15.6541 30.0719C15.6214 30.1267 15.5791 30.1685 15.5271 30.1973C15.4752 30.2255 15.4128 30.2396 15.34 30.2396C15.248 30.2396 15.1718 30.2145 15.1114 30.1642C15.0515 30.114 15.0066 30.0414 14.9767 29.9466C14.9474 29.8512 14.9327 29.7363 14.9327 29.602C14.9327 29.4699 14.9459 29.3564 14.9725 29.2616C14.9996 29.1662 15.043 29.0931 15.1029 29.0422C15.1627 28.9909 15.2418 28.9652 15.34 28.9652C15.4331 28.9652 15.5099 28.9906 15.5703 29.0414C15.6307 29.0916 15.6756 29.1645 15.7049 29.2599C15.7343 29.3547 15.749 29.4687 15.749 29.602ZM15.0741 29.602C15.0741 29.7171 15.0828 29.8131 15.1003 29.8899C15.1178 29.9666 15.1461 30.0242 15.185 30.0626C15.2245 30.1004 15.2762 30.1193 15.34 30.1193C15.4038 30.1193 15.4551 30.1004 15.4941 30.0626C15.5336 30.0248 15.5621 29.9675 15.5796 29.8907C15.5977 29.8139 15.6067 29.7177 15.6067 29.602C15.6067 29.4885 15.598 29.3937 15.5805 29.3174C15.563 29.2407 15.5347 29.1831 15.4958 29.1447C15.4568 29.1058 15.4049 29.0863 15.34 29.0863C15.2751 29.0863 15.2231 29.1058 15.1842 29.1447C15.1452 29.1831 15.117 29.2407 15.0995 29.3174C15.0826 29.3937 15.0741 29.4885 15.0741 29.602ZM12.477 32.2227H12.3398V31.3454C12.3398 31.3121 12.3398 31.2836 12.3398 31.2599C12.3404 31.2356 12.341 31.2136 12.3415 31.1938C12.3427 31.1735 12.3441 31.1529 12.3458 31.132C12.3283 31.1501 12.3119 31.1656 12.2967 31.1786C12.2814 31.191 12.2625 31.2065 12.2399 31.2251L12.0985 31.3386L12.0248 31.2429L12.3602 30.9847H12.477V32.2227ZM13.7574 32.2227H12.9461V32.105L13.2772 31.7688C13.3388 31.7067 13.3904 31.6514 13.4322 31.6028C13.4745 31.5543 13.5067 31.5066 13.5287 31.4597C13.5507 31.4123 13.5617 31.3604 13.5617 31.3039C13.5617 31.2339 13.5409 31.1806 13.4991 31.1439C13.4579 31.1066 13.4034 31.088 13.3357 31.088C13.2764 31.088 13.2239 31.0981 13.1782 31.1185C13.1324 31.1388 13.0856 31.1676 13.0376 31.2048L12.9622 31.11C12.995 31.0823 13.0305 31.0578 13.0689 31.0363C13.1079 31.0149 13.1494 30.9979 13.1934 30.9855C13.238 30.9731 13.2854 30.9669 13.3357 30.9669C13.4119 30.9669 13.4776 30.9801 13.533 31.0067C13.5883 31.0332 13.6309 31.071 13.6608 31.1201C13.6913 31.1693 13.7065 31.2277 13.7065 31.2954C13.7065 31.3609 13.6936 31.4219 13.6676 31.4783C13.6416 31.5342 13.6052 31.5898 13.5584 31.6452C13.5115 31.6999 13.4567 31.7581 13.3941 31.8196L13.1248 32.088V32.0939H13.7574V32.2227ZM14.7566 31.602C14.7566 31.7025 14.7489 31.7922 14.7337 31.8712C14.7184 31.9503 14.6945 32.0172 14.6617 32.0719C14.629 32.1267 14.5866 32.1685 14.5347 32.1973C14.4828 32.2255 14.4204 32.2396 14.3476 32.2396C14.2555 32.2396 14.1793 32.2145 14.1189 32.1642C14.0591 32.114 14.0142 32.0414 13.9843 31.9466C13.9549 31.8512 13.9403 31.7363 13.9403 31.602C13.9403 31.4699 13.9535 31.3564 13.9801 31.2616C14.0072 31.1662 14.0506 31.0931 14.1105 31.0422C14.1703 30.9909 14.2493 30.9652 14.3476 30.9652C14.4407 30.9652 14.5175 30.9906 14.5779 31.0414C14.6383 31.0916 14.6832 31.1645 14.7125 31.2599C14.7419 31.3547 14.7566 31.4687 14.7566 31.602ZM14.0817 31.602C14.0817 31.7171 14.0904 31.8131 14.1079 31.8899C14.1254 31.9666 14.1536 32.0242 14.1926 32.0626C14.2321 32.1004 14.2838 32.1193 14.3476 32.1193C14.4113 32.1193 14.4627 32.1004 14.5017 32.0626C14.5412 32.0248 14.5697 31.9675 14.5872 31.8907C14.6053 31.8139 14.6143 31.7177 14.6143 31.602C14.6143 31.4885 14.6055 31.3937 14.588 31.3174C14.5705 31.2407 14.5423 31.1831 14.5034 31.1447C14.4644 31.1058 14.4125 31.0863 14.3476 31.0863C14.2826 31.0863 14.2307 31.1058 14.1918 31.1447C14.1528 31.1831 14.1246 31.2407 14.1071 31.3174C14.0901 31.3937 14.0817 31.4885 14.0817 31.602ZM15.749 31.602C15.749 31.7025 15.7414 31.7922 15.7261 31.8712C15.7109 31.9503 15.6869 32.0172 15.6541 32.0719C15.6214 32.1267 15.5791 32.1685 15.5271 32.1973C15.4752 32.2255 15.4128 32.2396 15.34 32.2396C15.248 32.2396 15.1718 32.2145 15.1114 32.1642C15.0515 32.114 15.0066 32.0414 14.9767 31.9466C14.9474 31.8512 14.9327 31.7363 14.9327 31.602C14.9327 31.4699 14.9459 31.3564 14.9725 31.2616C14.9996 31.1662 15.043 31.0931 15.1029 31.0422C15.1627 30.9909 15.2418 30.9652 15.34 30.9652C15.4331 30.9652 15.5099 30.9906 15.5703 31.0414C15.6307 31.0916 15.6756 31.1645 15.7049 31.2599C15.7343 31.3547 15.749 31.4687 15.749 31.602ZM15.0741 31.602C15.0741 31.7171 15.0828 31.8131 15.1003 31.8899C15.1178 31.9666 15.1461 32.0242 15.185 32.0626C15.2245 32.1004 15.2762 32.1193 15.34 32.1193C15.4038 32.1193 15.4551 32.1004 15.4941 32.0626C15.5336 32.0248 15.5621 31.9675 15.5796 31.8907C15.5977 31.8139 15.6067 31.7177 15.6067 31.602C15.6067 31.4885 15.598 31.3937 15.5805 31.3174C15.563 31.2407 15.5347 31.1831 15.4958 31.1447C15.4568 31.1058 15.4049 31.0863 15.34 31.0863C15.2751 31.0863 15.2231 31.1058 15.1842 31.1447C15.1452 31.1831 15.117 31.2407 15.0995 31.3174C15.0826 31.3937 15.0741 31.4885 15.0741 31.602ZM12.477 35.2227H12.3398V34.3454C12.3398 34.3121 12.3398 34.2836 12.3398 34.2599C12.3404 34.2356 12.341 34.2136 12.3415 34.1938C12.3427 34.1735 12.3441 34.1529 12.3458 34.132C12.3283 34.1501 12.3119 34.1656 12.2967 34.1786C12.2814 34.191 12.2625 34.2065 12.2399 34.2251L12.0985 34.3386L12.0248 34.2429L12.3602 33.9847H12.477V35.2227ZM13.4694 35.2227H13.3323V34.3454C13.3323 34.3121 13.3323 34.2836 13.3323 34.2599C13.3328 34.2356 13.3334 34.2136 13.334 34.1938C13.3351 34.1735 13.3365 34.1529 13.3382 34.132C13.3207 34.1501 13.3043 34.1656 13.2891 34.1786C13.2738 34.191 13.2549 34.2065 13.2323 34.2251L13.0909 34.3386L13.0173 34.2429L13.3526 33.9847H13.4694V35.2227ZM14.7566 34.602C14.7566 34.7025 14.7489 34.7922 14.7337 34.8712C14.7184 34.9503 14.6945 35.0172 14.6617 35.0719C14.629 35.1267 14.5866 35.1685 14.5347 35.1973C14.4828 35.2255 14.4204 35.2396 14.3476 35.2396C14.2555 35.2396 14.1793 35.2145 14.1189 35.1642C14.0591 35.114 14.0142 35.0414 13.9843 34.9466C13.9549 34.8512 13.9403 34.7363 13.9403 34.602C13.9403 34.4699 13.9535 34.3564 13.9801 34.2616C14.0072 34.1662 14.0506 34.0931 14.1105 34.0422C14.1703 33.9909 14.2493 33.9652 14.3476 33.9652C14.4407 33.9652 14.5175 33.9906 14.5779 34.0414C14.6383 34.0916 14.6832 34.1645 14.7125 34.2599C14.7419 34.3547 14.7566 34.4687 14.7566 34.602ZM14.0817 34.602C14.0817 34.7171 14.0904 34.8131 14.1079 34.8899C14.1254 34.9666 14.1536 35.0242 14.1926 35.0626C14.2321 35.1004 14.2838 35.1193 14.3476 35.1193C14.4113 35.1193 14.4627 35.1004 14.5017 35.0626C14.5412 35.0248 14.5697 34.9675 14.5872 34.8907C14.6053 34.8139 14.6143 34.7177 14.6143 34.602C14.6143 34.4885 14.6055 34.3937 14.588 34.3174C14.5705 34.2407 14.5423 34.1831 14.5034 34.1447C14.4644 34.1058 14.4125 34.0863 14.3476 34.0863C14.2826 34.0863 14.2307 34.1058 14.1918 34.1447C14.1528 34.1831 14.1246 34.2407 14.1071 34.3174C14.0901 34.3937 14.0817 34.4885 14.0817 34.602ZM15.749 34.602C15.749 34.7025 15.7414 34.7922 15.7261 34.8712C15.7109 34.9503 15.6869 35.0172 15.6541 35.0719C15.6214 35.1267 15.5791 35.1685 15.5271 35.1973C15.4752 35.2255 15.4128 35.2396 15.34 35.2396C15.248 35.2396 15.1718 35.2145 15.1114 35.1642C15.0515 35.114 15.0066 35.0414 14.9767 34.9466C14.9474 34.8512 14.9327 34.7363 14.9327 34.602C14.9327 34.4699 14.9459 34.3564 14.9725 34.2616C14.9996 34.1662 15.043 34.0931 15.1029 34.0422C15.1627 33.9909 15.2418 33.9652 15.34 33.9652C15.4331 33.9652 15.5099 33.9906 15.5703 34.0414C15.6307 34.0916 15.6756 34.1645 15.7049 34.2599C15.7343 34.3547 15.749 34.4687 15.749 34.602ZM15.0741 34.602C15.0741 34.7171 15.0828 34.8131 15.1003 34.8899C15.1178 34.9666 15.1461 35.0242 15.185 35.0626C15.2245 35.1004 15.2762 35.1193 15.34 35.1193C15.4038 35.1193 15.4551 35.1004 15.4941 35.0626C15.5336 35.0248 15.5621 34.9675 15.5796 34.8907C15.5977 34.8139 15.6067 34.7177 15.6067 34.602C15.6067 34.4885 15.598 34.3937 15.5805 34.3174C15.563 34.2407 15.5347 34.1831 15.4958 34.1447C15.4568 34.1058 15.4049 34.0863 15.34 34.0863C15.2751 34.0863 15.2231 34.1058 15.1842 34.1447C15.1452 34.1831 15.117 34.2407 15.0995 34.3174C15.0826 34.3937 15.0741 34.4885 15.0741 34.602ZM12.477 38.2227H12.3398V37.3454C12.3398 37.3121 12.3398 37.2836 12.3398 37.2599C12.3404 37.2356 12.341 37.2136 12.3415 37.1938C12.3427 37.1735 12.3441 37.1529 12.3458 37.132C12.3283 37.1501 12.3119 37.1656 12.2967 37.1786C12.2814 37.191 12.2625 37.2065 12.2399 37.2251L12.0985 37.3386L12.0248 37.2429L12.3602 36.9847H12.477V38.2227ZM13.7641 37.602C13.7641 37.7025 13.7565 37.7922 13.7413 37.8712C13.726 37.9503 13.702 38.0172 13.6693 38.0719C13.6365 38.1267 13.5942 38.1685 13.5423 38.1973C13.4903 38.2255 13.428 38.2396 13.3551 38.2396C13.2631 38.2396 13.1869 38.2145 13.1265 38.1642C13.0667 38.114 13.0218 38.0414 12.9919 37.9466C12.9625 37.8512 12.9478 37.7363 12.9478 37.602C12.9478 37.4699 12.9611 37.3564 12.9876 37.2616C13.0147 37.1662 13.0582 37.0931 13.118 37.0422C13.1779 36.9909 13.2569 36.9652 13.3551 36.9652C13.4483 36.9652 13.5251 36.9906 13.5855 37.0414C13.6459 37.0916 13.6907 37.1645 13.7201 37.2599C13.7494 37.3547 13.7641 37.4687 13.7641 37.602ZM13.0892 37.602C13.0892 37.7171 13.098 37.8131 13.1155 37.8899C13.133 37.9666 13.1612 38.0242 13.2002 38.0626C13.2397 38.1004 13.2913 38.1193 13.3551 38.1193C13.4189 38.1193 13.4703 38.1004 13.5092 38.0626C13.5488 38.0248 13.5773 37.9675 13.5948 37.8907C13.6128 37.8139 13.6219 37.7177 13.6219 37.602C13.6219 37.4885 13.6131 37.3937 13.5956 37.3174C13.5781 37.2407 13.5499 37.1831 13.5109 37.1447C13.472 37.1058 13.4201 37.0863 13.3551 37.0863C13.2902 37.0863 13.2383 37.1058 13.1993 37.1447C13.1604 37.1831 13.1321 37.2407 13.1146 37.3174C13.0977 37.3937 13.0892 37.4885 13.0892 37.602ZM14.7566 37.602C14.7566 37.7025 14.7489 37.7922 14.7337 37.8712C14.7184 37.9503 14.6945 38.0172 14.6617 38.0719C14.629 38.1267 14.5866 38.1685 14.5347 38.1973C14.4828 38.2255 14.4204 38.2396 14.3476 38.2396C14.2555 38.2396 14.1793 38.2145 14.1189 38.1642C14.0591 38.114 14.0142 38.0414 13.9843 37.9466C13.9549 37.8512 13.9403 37.7363 13.9403 37.602C13.9403 37.4699 13.9535 37.3564 13.9801 37.2616C14.0072 37.1662 14.0506 37.0931 14.1105 37.0422C14.1703 36.9909 14.2493 36.9652 14.3476 36.9652C14.4407 36.9652 14.5175 36.9906 14.5779 37.0414C14.6383 37.0916 14.6832 37.1645 14.7125 37.2599C14.7419 37.3547 14.7566 37.4687 14.7566 37.602ZM14.0817 37.602C14.0817 37.7171 14.0904 37.8131 14.1079 37.8899C14.1254 37.9666 14.1536 38.0242 14.1926 38.0626C14.2321 38.1004 14.2838 38.1193 14.3476 38.1193C14.4113 38.1193 14.4627 38.1004 14.5017 38.0626C14.5412 38.0248 14.5697 37.9675 14.5872 37.8907C14.6053 37.8139 14.6143 37.7177 14.6143 37.602C14.6143 37.4885 14.6055 37.3937 14.588 37.3174C14.5705 37.2407 14.5423 37.1831 14.5034 37.1447C14.4644 37.1058 14.4125 37.0863 14.3476 37.0863C14.2826 37.0863 14.2307 37.1058 14.1918 37.1447C14.1528 37.1831 14.1246 37.2407 14.1071 37.3174C14.0901 37.3937 14.0817 37.4885 14.0817 37.602ZM15.749 37.602C15.749 37.7025 15.7414 37.7922 15.7261 37.8712C15.7109 37.9503 15.6869 38.0172 15.6541 38.0719C15.6214 38.1267 15.5791 38.1685 15.5271 38.1973C15.4752 38.2255 15.4128 38.2396 15.34 38.2396C15.248 38.2396 15.1718 38.2145 15.1114 38.1642C15.0515 38.114 15.0066 38.0414 14.9767 37.9466C14.9474 37.8512 14.9327 37.7363 14.9327 37.602C14.9327 37.4699 14.9459 37.3564 14.9725 37.2616C14.9996 37.1662 15.043 37.0931 15.1029 37.0422C15.1627 36.9909 15.2418 36.9652 15.34 36.9652C15.4331 36.9652 15.5099 36.9906 15.5703 37.0414C15.6307 37.0916 15.6756 37.1645 15.7049 37.2599C15.7343 37.3547 15.749 37.4687 15.749 37.602ZM15.0741 37.602C15.0741 37.7171 15.0828 37.8131 15.1003 37.8899C15.1178 37.9666 15.1461 38.0242 15.185 38.0626C15.2245 38.1004 15.2762 38.1193 15.34 38.1193C15.4038 38.1193 15.4551 38.1004 15.4941 38.0626C15.5336 38.0248 15.5621 37.9675 15.5796 37.8907C15.5977 37.8139 15.6067 37.7177 15.6067 37.602C15.6067 37.4885 15.598 37.3937 15.5805 37.3174C15.563 37.2407 15.5347 37.1831 15.4958 37.1447C15.4568 37.1058 15.4049 37.0863 15.34 37.0863C15.2751 37.0863 15.2231 37.1058 15.1842 37.1447C15.1452 37.1831 15.117 37.2407 15.0995 37.3174C15.0826 37.3937 15.0741 37.4885 15.0741 37.602ZM13.759 40.5122C13.759 40.5873 13.7537 40.6604 13.743 40.7315C13.7328 40.8027 13.715 40.869 13.6896 40.9305C13.6648 40.992 13.6309 41.046 13.588 41.0923C13.5451 41.1385 13.4912 41.175 13.4263 41.2015C13.3619 41.2275 13.2848 41.2404 13.1951 41.2404C13.1708 41.2404 13.1432 41.2387 13.1121 41.2354C13.0811 41.2325 13.0557 41.2283 13.0359 41.2227V41.1007C13.0568 41.1081 13.0813 41.114 13.1096 41.1185C13.1378 41.1225 13.1655 41.1244 13.1926 41.1244C13.2981 41.1244 13.3811 41.1018 13.4415 41.0567C13.5019 41.011 13.5454 40.9491 13.5719 40.8712C13.5984 40.7928 13.6134 40.7047 13.6168 40.607H13.6066C13.5897 40.6341 13.5674 40.6593 13.5397 40.6824C13.5126 40.705 13.4796 40.7233 13.4407 40.7375C13.4017 40.751 13.3563 40.7578 13.3043 40.7578C13.2326 40.7578 13.17 40.7431 13.1163 40.7137C13.0633 40.6844 13.0218 40.6418 12.9919 40.5859C12.9625 40.53 12.9478 40.4625 12.9478 40.3835C12.9478 40.2983 12.9639 40.2246 12.9961 40.1625C13.0288 40.0998 13.0746 40.0516 13.1333 40.0177C13.192 39.9838 13.2611 39.9669 13.3407 39.9669C13.4017 39.9669 13.4576 39.9785 13.5084 40.0016C13.5592 40.0247 13.6032 40.0595 13.6405 40.1058C13.6783 40.1515 13.7074 40.2082 13.7277 40.276C13.7486 40.3437 13.759 40.4224 13.759 40.5122ZM13.3407 40.0863C13.2657 40.0863 13.2047 40.1108 13.1578 40.1599C13.1115 40.2091 13.0884 40.283 13.0884 40.3818C13.0884 40.4637 13.1084 40.5283 13.1485 40.5757C13.1886 40.6231 13.2504 40.6468 13.334 40.6468C13.3915 40.6468 13.4412 40.6353 13.483 40.6121C13.5253 40.589 13.5578 40.5596 13.5804 40.5241C13.6035 40.4885 13.6151 40.4521 13.6151 40.4148C13.6151 40.3776 13.6094 40.3397 13.5982 40.3014C13.5874 40.263 13.5708 40.2277 13.5482 40.1955C13.5256 40.1628 13.4971 40.1365 13.4627 40.1168C13.4282 40.0964 13.3876 40.0863 13.3407 40.0863ZM14.7566 40.602C14.7566 40.7025 14.7489 40.7922 14.7337 40.8712C14.7184 40.9503 14.6945 41.0172 14.6617 41.0719C14.629 41.1267 14.5866 41.1685 14.5347 41.1973C14.4828 41.2255 14.4204 41.2396 14.3476 41.2396C14.2555 41.2396 14.1793 41.2145 14.1189 41.1642C14.0591 41.114 14.0142 41.0414 13.9843 40.9466C13.9549 40.8512 13.9403 40.7363 13.9403 40.602C13.9403 40.4699 13.9535 40.3564 13.9801 40.2616C14.0072 40.1662 14.0506 40.0931 14.1105 40.0422C14.1703 39.9909 14.2493 39.9652 14.3476 39.9652C14.4407 39.9652 14.5175 39.9906 14.5779 40.0414C14.6383 40.0916 14.6832 40.1645 14.7125 40.2599C14.7419 40.3547 14.7566 40.4687 14.7566 40.602ZM14.0817 40.602C14.0817 40.7171 14.0904 40.8131 14.1079 40.8899C14.1254 40.9666 14.1536 41.0242 14.1926 41.0626C14.2321 41.1004 14.2838 41.1193 14.3476 41.1193C14.4113 41.1193 14.4627 41.1004 14.5017 41.0626C14.5412 41.0248 14.5697 40.9675 14.5872 40.8907C14.6053 40.8139 14.6143 40.7177 14.6143 40.602C14.6143 40.4885 14.6055 40.3937 14.588 40.3174C14.5705 40.2407 14.5423 40.1831 14.5034 40.1447C14.4644 40.1058 14.4125 40.0863 14.3476 40.0863C14.2826 40.0863 14.2307 40.1058 14.1918 40.1447C14.1528 40.1831 14.1246 40.2407 14.1071 40.3174C14.0901 40.3937 14.0817 40.4885 14.0817 40.602ZM15.749 40.602C15.749 40.7025 15.7414 40.7922 15.7261 40.8712C15.7109 40.9503 15.6869 41.0172 15.6541 41.0719C15.6214 41.1267 15.5791 41.1685 15.5271 41.1973C15.4752 41.2255 15.4128 41.2396 15.34 41.2396C15.248 41.2396 15.1718 41.2145 15.1114 41.1642C15.0515 41.114 15.0066 41.0414 14.9767 40.9466C14.9474 40.8512 14.9327 40.7363 14.9327 40.602C14.9327 40.4699 14.9459 40.3564 14.9725 40.2616C14.9996 40.1662 15.043 40.0931 15.1029 40.0422C15.1627 39.9909 15.2418 39.9652 15.34 39.9652C15.4331 39.9652 15.5099 39.9906 15.5703 40.0414C15.6307 40.0916 15.6756 40.1645 15.7049 40.2599C15.7343 40.3547 15.749 40.4687 15.749 40.602ZM15.0741 40.602C15.0741 40.7171 15.0828 40.8131 15.1003 40.8899C15.1178 40.9666 15.1461 41.0242 15.185 41.0626C15.2245 41.1004 15.2762 41.1193 15.34 41.1193C15.4038 41.1193 15.4551 41.1004 15.4941 41.0626C15.5336 41.0248 15.5621 40.9675 15.5796 40.8907C15.5977 40.8139 15.6067 40.7177 15.6067 40.602C15.6067 40.4885 15.598 40.3937 15.5805 40.3174C15.563 40.2407 15.5347 40.1831 15.4958 40.1447C15.4568 40.1058 15.4049 40.0863 15.34 40.0863C15.2751 40.0863 15.2231 40.1058 15.1842 40.1447C15.1452 40.1831 15.117 40.2407 15.0995 40.3174C15.0826 40.3937 15.0741 40.4885 15.0741 40.602ZM13.3551 41.9669C13.4268 41.9669 13.4903 41.9782 13.5457 42.0008C13.601 42.0233 13.6442 42.0566 13.6752 42.1007C13.7068 42.1441 13.7226 42.1978 13.7226 42.2616C13.7226 42.3118 13.7116 42.3558 13.6896 42.3937C13.6682 42.4309 13.6391 42.4637 13.6024 42.4919C13.5657 42.5195 13.5251 42.5444 13.4805 42.5664C13.5335 42.5907 13.5812 42.6181 13.6236 42.6485C13.6665 42.679 13.7003 42.7149 13.7252 42.7561C13.75 42.7973 13.7624 42.8461 13.7624 42.9026C13.7624 42.972 13.7455 43.0321 13.7116 43.0829C13.6783 43.1332 13.6315 43.1718 13.5711 43.1989C13.5107 43.226 13.4398 43.2396 13.3585 43.2396C13.271 43.2396 13.1965 43.2266 13.135 43.2006C13.074 43.1741 13.0274 43.1363 12.9953 43.0872C12.9636 43.0375 12.9478 42.9779 12.9478 42.9085C12.9478 42.8515 12.96 42.8021 12.9842 42.7603C13.0085 42.718 13.0407 42.6816 13.0808 42.6511C13.1209 42.6206 13.1646 42.5949 13.212 42.574C13.1708 42.5514 13.133 42.5258 13.0986 42.497C13.0647 42.4682 13.0376 42.4346 13.0173 42.3962C12.9975 42.3572 12.9876 42.3121 12.9876 42.2607C12.9876 42.1981 13.0034 42.145 13.035 42.1015C13.0672 42.0575 13.111 42.0242 13.1663 42.0016C13.2222 41.9785 13.2851 41.9669 13.3551 41.9669ZM13.0859 42.9093C13.0859 42.9726 13.1082 43.0248 13.1528 43.066C13.1973 43.1066 13.2648 43.127 13.3551 43.127C13.4409 43.127 13.5073 43.1066 13.5541 43.066C13.601 43.0248 13.6244 42.9709 13.6244 42.9043C13.6244 42.8631 13.6137 42.8269 13.5922 42.7959C13.5708 42.7643 13.5403 42.736 13.5008 42.7112C13.4613 42.6864 13.4147 42.6638 13.3611 42.6435L13.3306 42.6325C13.2786 42.6539 13.2343 42.6779 13.1976 42.7044C13.1615 42.7304 13.1338 42.76 13.1146 42.7933C13.0955 42.8266 13.0859 42.8653 13.0859 42.9093ZM13.3534 42.082C13.2868 42.082 13.2323 42.0981 13.19 42.1303C13.1477 42.1619 13.1265 42.2076 13.1265 42.2675C13.1265 42.3104 13.1367 42.3468 13.157 42.3767C13.1779 42.4061 13.2061 42.4315 13.2417 42.4529C13.2772 42.4738 13.317 42.4933 13.3611 42.5114C13.404 42.4933 13.4421 42.4735 13.4754 42.4521C13.5087 42.4301 13.5349 42.4041 13.5541 42.3742C13.5733 42.3443 13.5829 42.3084 13.5829 42.2666C13.5829 42.2068 13.5617 42.1611 13.5194 42.1295C13.4776 42.0979 13.4223 42.082 13.3534 42.082ZM14.7566 42.602C14.7566 42.7025 14.7489 42.7922 14.7337 42.8712C14.7184 42.9503 14.6945 43.0172 14.6617 43.0719C14.629 43.1267 14.5866 43.1685 14.5347 43.1973C14.4828 43.2255 14.4204 43.2396 14.3476 43.2396C14.2555 43.2396 14.1793 43.2145 14.1189 43.1642C14.0591 43.114 14.0142 43.0414 13.9843 42.9466C13.9549 42.8512 13.9403 42.7363 13.9403 42.602C13.9403 42.4699 13.9535 42.3564 13.9801 42.2616C14.0072 42.1662 14.0506 42.0931 14.1105 42.0422C14.1703 41.9909 14.2493 41.9652 14.3476 41.9652C14.4407 41.9652 14.5175 41.9906 14.5779 42.0414C14.6383 42.0916 14.6832 42.1645 14.7125 42.2599C14.7419 42.3547 14.7566 42.4687 14.7566 42.602ZM14.0817 42.602C14.0817 42.7171 14.0904 42.8131 14.1079 42.8899C14.1254 42.9666 14.1536 43.0242 14.1926 43.0626C14.2321 43.1004 14.2838 43.1193 14.3476 43.1193C14.4113 43.1193 14.4627 43.1004 14.5017 43.0626C14.5412 43.0248 14.5697 42.9675 14.5872 42.8907C14.6053 42.8139 14.6143 42.7177 14.6143 42.602C14.6143 42.4885 14.6055 42.3937 14.588 42.3174C14.5705 42.2407 14.5423 42.1831 14.5034 42.1447C14.4644 42.1058 14.4125 42.0863 14.3476 42.0863C14.2826 42.0863 14.2307 42.1058 14.1918 42.1447C14.1528 42.1831 14.1246 42.2407 14.1071 42.3174C14.0901 42.3937 14.0817 42.4885 14.0817 42.602ZM15.749 42.602C15.749 42.7025 15.7414 42.7922 15.7261 42.8712C15.7109 42.9503 15.6869 43.0172 15.6541 43.0719C15.6214 43.1267 15.5791 43.1685 15.5271 43.1973C15.4752 43.2255 15.4128 43.2396 15.34 43.2396C15.248 43.2396 15.1718 43.2145 15.1114 43.1642C15.0515 43.114 15.0066 43.0414 14.9767 42.9466C14.9474 42.8512 14.9327 42.7363 14.9327 42.602C14.9327 42.4699 14.9459 42.3564 14.9725 42.2616C14.9996 42.1662 15.043 42.0931 15.1029 42.0422C15.1627 41.9909 15.2418 41.9652 15.34 41.9652C15.4331 41.9652 15.5099 41.9906 15.5703 42.0414C15.6307 42.0916 15.6756 42.1645 15.7049 42.2599C15.7343 42.3547 15.749 42.4687 15.749 42.602ZM15.0741 42.602C15.0741 42.7171 15.0828 42.8131 15.1003 42.8899C15.1178 42.9666 15.1461 43.0242 15.185 43.0626C15.2245 43.1004 15.2762 43.1193 15.34 43.1193C15.4038 43.1193 15.4551 43.1004 15.4941 43.0626C15.5336 43.0248 15.5621 42.9675 15.5796 42.8907C15.5977 42.8139 15.6067 42.7177 15.6067 42.602C15.6067 42.4885 15.598 42.3937 15.5805 42.3174C15.563 42.2407 15.5347 42.1831 15.4958 42.1447C15.4568 42.1058 15.4049 42.0863 15.34 42.0863C15.2751 42.0863 15.2231 42.1058 15.1842 42.1447C15.1452 42.1831 15.117 42.2407 15.0995 42.3174C15.0826 42.3937 15.0741 42.4885 15.0741 42.602ZM13.1062 46.2227L13.6142 45.1134H12.9394V44.9847H13.765V45.0931L13.2603 46.2227H13.1062ZM14.7566 45.602C14.7566 45.7025 14.7489 45.7922 14.7337 45.8712C14.7184 45.9503 14.6945 46.0172 14.6617 46.0719C14.629 46.1267 14.5866 46.1685 14.5347 46.1973C14.4828 46.2255 14.4204 46.2396 14.3476 46.2396C14.2555 46.2396 14.1793 46.2145 14.1189 46.1642C14.0591 46.114 14.0142 46.0414 13.9843 45.9466C13.9549 45.8512 13.9403 45.7363 13.9403 45.602C13.9403 45.4699 13.9535 45.3564 13.9801 45.2616C14.0072 45.1662 14.0506 45.0931 14.1105 45.0422C14.1703 44.9909 14.2493 44.9652 14.3476 44.9652C14.4407 44.9652 14.5175 44.9906 14.5779 45.0414C14.6383 45.0916 14.6832 45.1645 14.7125 45.2599C14.7419 45.3547 14.7566 45.4687 14.7566 45.602ZM14.0817 45.602C14.0817 45.7171 14.0904 45.8131 14.1079 45.8899C14.1254 45.9666 14.1536 46.0242 14.1926 46.0626C14.2321 46.1004 14.2838 46.1193 14.3476 46.1193C14.4113 46.1193 14.4627 46.1004 14.5017 46.0626C14.5412 46.0248 14.5697 45.9675 14.5872 45.8907C14.6053 45.8139 14.6143 45.7177 14.6143 45.602C14.6143 45.4885 14.6055 45.3937 14.588 45.3174C14.5705 45.2407 14.5423 45.1831 14.5034 45.1447C14.4644 45.1058 14.4125 45.0863 14.3476 45.0863C14.2826 45.0863 14.2307 45.1058 14.1918 45.1447C14.1528 45.1831 14.1246 45.2407 14.1071 45.3174C14.0901 45.3937 14.0817 45.4885 14.0817 45.602ZM15.749 45.602C15.749 45.7025 15.7414 45.7922 15.7261 45.8712C15.7109 45.9503 15.6869 46.0172 15.6541 46.0719C15.6214 46.1267 15.5791 46.1685 15.5271 46.1973C15.4752 46.2255 15.4128 46.2396 15.34 46.2396C15.248 46.2396 15.1718 46.2145 15.1114 46.1642C15.0515 46.114 15.0066 46.0414 14.9767 45.9466C14.9474 45.8512 14.9327 45.7363 14.9327 45.602C14.9327 45.4699 14.9459 45.3564 14.9725 45.2616C14.9996 45.1662 15.043 45.0931 15.1029 45.0422C15.1627 44.9909 15.2418 44.9652 15.34 44.9652C15.4331 44.9652 15.5099 44.9906 15.5703 45.0414C15.6307 45.0916 15.6756 45.1645 15.7049 45.2599C15.7343 45.3547 15.749 45.4687 15.749 45.602ZM15.0741 45.602C15.0741 45.7171 15.0828 45.8131 15.1003 45.8899C15.1178 45.9666 15.1461 46.0242 15.185 46.0626C15.2245 46.1004 15.2762 46.1193 15.34 46.1193C15.4038 46.1193 15.4551 46.1004 15.4941 46.0626C15.5336 46.0248 15.5621 45.9675 15.5796 45.8907C15.5977 45.8139 15.6067 45.7177 15.6067 45.602C15.6067 45.4885 15.598 45.3937 15.5805 45.3174C15.563 45.2407 15.5347 45.1831 15.4958 45.1447C15.4568 45.1058 15.4049 45.0863 15.34 45.0863C15.2751 45.0863 15.2231 45.1058 15.1842 45.1447C15.1452 45.1831 15.117 45.2407 15.0995 45.3174C15.0826 45.3937 15.0741 45.4885 15.0741 45.602ZM12.9588 48.6934C12.9588 48.6189 12.9639 48.5461 12.9741 48.4749C12.9848 48.4038 13.0026 48.3378 13.0274 48.2768C13.0523 48.2153 13.0861 48.1614 13.129 48.1151C13.1719 48.0688 13.2253 48.0326 13.2891 48.0067C13.3534 47.9801 13.4305 47.9669 13.5203 47.9669C13.5457 47.9669 13.573 47.9683 13.6024 47.9711C13.6317 47.9734 13.656 47.9773 13.6752 47.983V48.1041C13.6543 48.0967 13.6303 48.0914 13.6032 48.088C13.5767 48.0846 13.5499 48.0829 13.5228 48.0829C13.4178 48.0829 13.3351 48.1058 13.2747 48.1515C13.2148 48.1972 13.1717 48.2593 13.1451 48.3378C13.1186 48.4157 13.1034 48.5035 13.0994 48.6011H13.1087C13.1262 48.5729 13.1485 48.5475 13.1756 48.5249C13.2027 48.5018 13.2355 48.4834 13.2738 48.4699C13.3128 48.4563 13.358 48.4495 13.4093 48.4495C13.4816 48.4495 13.5445 48.4642 13.5982 48.4936C13.6524 48.5229 13.6941 48.5656 13.7235 48.6214C13.7534 48.6773 13.7684 48.7451 13.7684 48.8247C13.7684 48.9099 13.7526 48.9836 13.7209 49.0457C13.6893 49.1078 13.6442 49.1558 13.5855 49.1896C13.5273 49.2229 13.4579 49.2396 13.3771 49.2396C13.3167 49.2396 13.2611 49.228 13.2103 49.2049C13.1595 49.1817 13.1152 49.1473 13.0774 49.1016C13.0401 49.0558 13.0111 48.9991 12.9902 48.9314C12.9693 48.8631 12.9588 48.7837 12.9588 48.6934ZM13.3755 49.121C13.4522 49.121 13.5138 49.0965 13.5601 49.0474C13.6063 48.9983 13.6295 48.924 13.6295 48.8247C13.6295 48.7434 13.6089 48.679 13.5677 48.6316C13.5265 48.5842 13.4644 48.5605 13.3814 48.5605C13.3249 48.5605 13.2758 48.5723 13.234 48.596C13.1923 48.6192 13.1598 48.6485 13.1367 48.6841C13.1135 48.7197 13.1019 48.7558 13.1019 48.7925C13.1019 48.8298 13.1073 48.8676 13.118 48.906C13.1293 48.9443 13.1463 48.9799 13.1688 49.0127C13.1914 49.0454 13.2199 49.0716 13.2544 49.0914C13.2888 49.1112 13.3292 49.121 13.3755 49.121ZM14.7566 48.602C14.7566 48.7025 14.7489 48.7922 14.7337 48.8712C14.7184 48.9503 14.6945 49.0172 14.6617 49.0719C14.629 49.1267 14.5866 49.1685 14.5347 49.1973C14.4828 49.2255 14.4204 49.2396 14.3476 49.2396C14.2555 49.2396 14.1793 49.2145 14.1189 49.1642C14.0591 49.114 14.0142 49.0414 13.9843 48.9466C13.9549 48.8512 13.9403 48.7363 13.9403 48.602C13.9403 48.4699 13.9535 48.3564 13.9801 48.2616C14.0072 48.1662 14.0506 48.0931 14.1105 48.0422C14.1703 47.9909 14.2493 47.9652 14.3476 47.9652C14.4407 47.9652 14.5175 47.9906 14.5779 48.0414C14.6383 48.0916 14.6832 48.1645 14.7125 48.2599C14.7419 48.3547 14.7566 48.4687 14.7566 48.602ZM14.0817 48.602C14.0817 48.7171 14.0904 48.8131 14.1079 48.8899C14.1254 48.9666 14.1536 49.0242 14.1926 49.0626C14.2321 49.1004 14.2838 49.1193 14.3476 49.1193C14.4113 49.1193 14.4627 49.1004 14.5017 49.0626C14.5412 49.0248 14.5697 48.9675 14.5872 48.8907C14.6053 48.8139 14.6143 48.7177 14.6143 48.602C14.6143 48.4885 14.6055 48.3937 14.588 48.3174C14.5705 48.2407 14.5423 48.1831 14.5034 48.1447C14.4644 48.1058 14.4125 48.0863 14.3476 48.0863C14.2826 48.0863 14.2307 48.1058 14.1918 48.1447C14.1528 48.1831 14.1246 48.2407 14.1071 48.3174C14.0901 48.3937 14.0817 48.4885 14.0817 48.602ZM15.749 48.602C15.749 48.7025 15.7414 48.7922 15.7261 48.8712C15.7109 48.9503 15.6869 49.0172 15.6541 49.0719C15.6214 49.1267 15.5791 49.1685 15.5271 49.1973C15.4752 49.2255 15.4128 49.2396 15.34 49.2396C15.248 49.2396 15.1718 49.2145 15.1114 49.1642C15.0515 49.114 15.0066 49.0414 14.9767 48.9466C14.9474 48.8512 14.9327 48.7363 14.9327 48.602C14.9327 48.4699 14.9459 48.3564 14.9725 48.2616C14.9996 48.1662 15.043 48.0931 15.1029 48.0422C15.1627 47.9909 15.2418 47.9652 15.34 47.9652C15.4331 47.9652 15.5099 47.9906 15.5703 48.0414C15.6307 48.0916 15.6756 48.1645 15.7049 48.2599C15.7343 48.3547 15.749 48.4687 15.749 48.602ZM15.0741 48.602C15.0741 48.7171 15.0828 48.8131 15.1003 48.8899C15.1178 48.9666 15.1461 49.0242 15.185 49.0626C15.2245 49.1004 15.2762 49.1193 15.34 49.1193C15.4038 49.1193 15.4551 49.1004 15.4941 49.0626C15.5336 49.0248 15.5621 48.9675 15.5796 48.8907C15.5977 48.8139 15.6067 48.7177 15.6067 48.602C15.6067 48.4885 15.598 48.3937 15.5805 48.3174C15.563 48.2407 15.5347 48.1831 15.4958 48.1447C15.4568 48.1058 15.4049 48.0863 15.34 48.0863C15.2751 48.0863 15.2231 48.1058 15.1842 48.1447C15.1452 48.1831 15.117 48.2407 15.0995 48.3174C15.0826 48.3937 15.0741 48.4885 15.0741 48.602ZM13.3374 51.4656C13.4215 51.4656 13.4946 51.48 13.5567 51.5088C13.6188 51.537 13.6667 51.5783 13.7006 51.6325C13.7351 51.6866 13.7523 51.7524 13.7523 51.8298C13.7523 51.9144 13.7339 51.9875 13.6972 52.0491C13.6605 52.11 13.6078 52.1572 13.5389 52.1905C13.47 52.2232 13.3876 52.2396 13.2916 52.2396C13.2273 52.2396 13.1674 52.2339 13.1121 52.2227C13.0568 52.2114 13.0102 52.1944 12.9724 52.1718V52.0381C13.0136 52.0629 13.0636 52.0827 13.1223 52.0973C13.181 52.112 13.238 52.1193 13.2933 52.1193C13.356 52.1193 13.4107 52.1095 13.4576 52.0897C13.505 52.0694 13.5417 52.0389 13.5677 51.9983C13.5942 51.957 13.6075 51.9054 13.6075 51.8433C13.6075 51.7609 13.5821 51.6974 13.5313 51.6528C13.481 51.6076 13.4014 51.585 13.2925 51.585C13.2575 51.585 13.2191 51.5879 13.1773 51.5935C13.1355 51.5991 13.1011 51.6054 13.074 51.6121L13.0029 51.5656L13.0503 50.9847H13.6659V51.1134H13.1705L13.1392 51.4868C13.1607 51.4823 13.1883 51.4778 13.2222 51.4733C13.2561 51.4682 13.2944 51.4656 13.3374 51.4656ZM14.7566 51.602C14.7566 51.7025 14.7489 51.7922 14.7337 51.8712C14.7184 51.9503 14.6945 52.0172 14.6617 52.0719C14.629 52.1267 14.5866 52.1685 14.5347 52.1973C14.4828 52.2255 14.4204 52.2396 14.3476 52.2396C14.2555 52.2396 14.1793 52.2145 14.1189 52.1642C14.0591 52.114 14.0142 52.0414 13.9843 51.9466C13.9549 51.8512 13.9403 51.7363 13.9403 51.602C13.9403 51.4699 13.9535 51.3564 13.9801 51.2616C14.0072 51.1662 14.0506 51.0931 14.1105 51.0422C14.1703 50.9909 14.2493 50.9652 14.3476 50.9652C14.4407 50.9652 14.5175 50.9906 14.5779 51.0414C14.6383 51.0916 14.6832 51.1645 14.7125 51.2599C14.7419 51.3547 14.7566 51.4687 14.7566 51.602ZM14.0817 51.602C14.0817 51.7171 14.0904 51.8131 14.1079 51.8899C14.1254 51.9666 14.1536 52.0242 14.1926 52.0626C14.2321 52.1004 14.2838 52.1193 14.3476 52.1193C14.4113 52.1193 14.4627 52.1004 14.5017 52.0626C14.5412 52.0248 14.5697 51.9675 14.5872 51.8907C14.6053 51.8139 14.6143 51.7177 14.6143 51.602C14.6143 51.4885 14.6055 51.3937 14.588 51.3174C14.5705 51.2407 14.5423 51.1831 14.5034 51.1447C14.4644 51.1058 14.4125 51.0863 14.3476 51.0863C14.2826 51.0863 14.2307 51.1058 14.1918 51.1447C14.1528 51.1831 14.1246 51.2407 14.1071 51.3174C14.0901 51.3937 14.0817 51.4885 14.0817 51.602ZM15.749 51.602C15.749 51.7025 15.7414 51.7922 15.7261 51.8712C15.7109 51.9503 15.6869 52.0172 15.6541 52.0719C15.6214 52.1267 15.5791 52.1685 15.5271 52.1973C15.4752 52.2255 15.4128 52.2396 15.34 52.2396C15.248 52.2396 15.1718 52.2145 15.1114 52.1642C15.0515 52.114 15.0066 52.0414 14.9767 51.9466C14.9474 51.8512 14.9327 51.7363 14.9327 51.602C14.9327 51.4699 14.9459 51.3564 14.9725 51.2616C14.9996 51.1662 15.043 51.0931 15.1029 51.0422C15.1627 50.9909 15.2418 50.9652 15.34 50.9652C15.4331 50.9652 15.5099 50.9906 15.5703 51.0414C15.6307 51.0916 15.6756 51.1645 15.7049 51.2599C15.7343 51.3547 15.749 51.4687 15.749 51.602ZM15.0741 51.602C15.0741 51.7171 15.0828 51.8131 15.1003 51.8899C15.1178 51.9666 15.1461 52.0242 15.185 52.0626C15.2245 52.1004 15.2762 52.1193 15.34 52.1193C15.4038 52.1193 15.4551 52.1004 15.4941 52.0626C15.5336 52.0248 15.5621 51.9675 15.5796 51.8907C15.5977 51.8139 15.6067 51.7177 15.6067 51.602C15.6067 51.4885 15.598 51.3937 15.5805 51.3174C15.563 51.2407 15.5347 51.1831 15.4958 51.1447C15.4568 51.1058 15.4049 51.0863 15.34 51.0863C15.2751 51.0863 15.2231 51.1058 15.1842 51.1447C15.1452 51.1831 15.117 51.2407 15.0995 51.3174C15.0826 51.3937 15.0741 51.4885 15.0741 51.602ZM13.8192 54.9356H13.6337V55.2227H13.4965V54.9356H12.8979V54.817L13.4872 53.9779H13.6337V54.8086H13.8192V54.9356ZM13.4965 54.8086V54.4038C13.4965 54.3728 13.4968 54.3448 13.4974 54.32C13.498 54.2946 13.4988 54.2712 13.4999 54.2497C13.5011 54.2277 13.5019 54.2068 13.5025 54.187C13.5036 54.1673 13.5044 54.1478 13.505 54.1286H13.4982C13.4875 54.1512 13.4751 54.1752 13.461 54.2006C13.4474 54.2254 13.4336 54.2477 13.4195 54.2675L13.0376 54.8086H13.4965ZM14.7566 54.602C14.7566 54.7025 14.7489 54.7922 14.7337 54.8712C14.7184 54.9503 14.6945 55.0172 14.6617 55.0719C14.629 55.1267 14.5866 55.1685 14.5347 55.1973C14.4828 55.2255 14.4204 55.2396 14.3476 55.2396C14.2555 55.2396 14.1793 55.2145 14.1189 55.1642C14.0591 55.114 14.0142 55.0414 13.9843 54.9466C13.9549 54.8512 13.9403 54.7363 13.9403 54.602C13.9403 54.4699 13.9535 54.3564 13.9801 54.2616C14.0072 54.1662 14.0506 54.0931 14.1105 54.0422C14.1703 53.9909 14.2493 53.9652 14.3476 53.9652C14.4407 53.9652 14.5175 53.9906 14.5779 54.0414C14.6383 54.0916 14.6832 54.1645 14.7125 54.2599C14.7419 54.3547 14.7566 54.4687 14.7566 54.602ZM14.0817 54.602C14.0817 54.7171 14.0904 54.8131 14.1079 54.8899C14.1254 54.9666 14.1536 55.0242 14.1926 55.0626C14.2321 55.1004 14.2838 55.1193 14.3476 55.1193C14.4113 55.1193 14.4627 55.1004 14.5017 55.0626C14.5412 55.0248 14.5697 54.9675 14.5872 54.8907C14.6053 54.8139 14.6143 54.7177 14.6143 54.602C14.6143 54.4885 14.6055 54.3937 14.588 54.3174C14.5705 54.2407 14.5423 54.1831 14.5034 54.1447C14.4644 54.1058 14.4125 54.0863 14.3476 54.0863C14.2826 54.0863 14.2307 54.1058 14.1918 54.1447C14.1528 54.1831 14.1246 54.2407 14.1071 54.3174C14.0901 54.3937 14.0817 54.4885 14.0817 54.602ZM15.749 54.602C15.749 54.7025 15.7414 54.7922 15.7261 54.8712C15.7109 54.9503 15.6869 55.0172 15.6541 55.0719C15.6214 55.1267 15.5791 55.1685 15.5271 55.1973C15.4752 55.2255 15.4128 55.2396 15.34 55.2396C15.248 55.2396 15.1718 55.2145 15.1114 55.1642C15.0515 55.114 15.0066 55.0414 14.9767 54.9466C14.9474 54.8512 14.9327 54.7363 14.9327 54.602C14.9327 54.4699 14.9459 54.3564 14.9725 54.2616C14.9996 54.1662 15.043 54.0931 15.1029 54.0422C15.1627 53.9909 15.2418 53.9652 15.34 53.9652C15.4331 53.9652 15.5099 53.9906 15.5703 54.0414C15.6307 54.0916 15.6756 54.1645 15.7049 54.2599C15.7343 54.3547 15.749 54.4687 15.749 54.602ZM15.0741 54.602C15.0741 54.7171 15.0828 54.8131 15.1003 54.8899C15.1178 54.9666 15.1461 55.0242 15.185 55.0626C15.2245 55.1004 15.2762 55.1193 15.34 55.1193C15.4038 55.1193 15.4551 55.1004 15.4941 55.0626C15.5336 55.0248 15.5621 54.9675 15.5796 54.8907C15.5977 54.8139 15.6067 54.7177 15.6067 54.602C15.6067 54.4885 15.598 54.3937 15.5805 54.3174C15.563 54.2407 15.5347 54.1831 15.4958 54.1447C15.4568 54.1058 15.4049 54.0863 15.34 54.0863C15.2751 54.0863 15.2231 54.1058 15.1842 54.1447C15.1452 54.1831 15.117 54.2407 15.0995 54.3174C15.0826 54.3937 15.0741 54.4885 15.0741 54.602ZM13.7116 56.2734C13.7116 56.3287 13.7009 56.3767 13.6794 56.4174C13.658 56.458 13.6281 56.4913 13.5897 56.5173C13.5513 56.5427 13.5061 56.5605 13.4542 56.5706V56.5774C13.5524 56.5898 13.6261 56.6214 13.6752 56.6722C13.7249 56.7231 13.7497 56.7897 13.7497 56.8721C13.7497 56.9438 13.7328 57.0073 13.6989 57.0626C13.6656 57.1179 13.6142 57.1614 13.5448 57.193C13.4759 57.2241 13.3876 57.2396 13.2798 57.2396C13.2143 57.2396 13.1536 57.2342 13.0977 57.2235C13.0424 57.2133 12.9893 57.1961 12.9385 57.1718V57.0398C12.9899 57.0652 13.0458 57.0852 13.1062 57.0999C13.1666 57.114 13.225 57.121 13.2815 57.121C13.3944 57.121 13.4759 57.0987 13.5262 57.0541C13.5764 57.009 13.6015 56.9475 13.6015 56.8695C13.6015 56.8159 13.5874 56.7727 13.5592 56.74C13.5315 56.7067 13.4915 56.6824 13.439 56.6672C13.387 56.6514 13.3244 56.6435 13.251 56.6435H13.1273V56.5232H13.2518C13.319 56.5232 13.376 56.5133 13.4229 56.4936C13.4697 56.4738 13.5053 56.4462 13.5296 56.4106C13.5544 56.3745 13.5668 56.3318 13.5668 56.2827C13.5668 56.2201 13.5459 56.1718 13.5042 56.1379C13.4624 56.1035 13.4057 56.0863 13.334 56.0863C13.2899 56.0863 13.2498 56.0908 13.2137 56.0998C13.1776 56.1089 13.1437 56.1213 13.1121 56.1371C13.0805 56.1529 13.0489 56.1712 13.0173 56.1921L12.9461 56.0956C12.9913 56.0606 13.0463 56.0304 13.1113 56.005C13.1762 55.9796 13.2498 55.9669 13.3323 55.9669C13.4587 55.9669 13.5536 55.9957 13.6168 56.0533C13.68 56.1108 13.7116 56.1842 13.7116 56.2734ZM14.7566 56.602C14.7566 56.7025 14.7489 56.7922 14.7337 56.8712C14.7184 56.9503 14.6945 57.0172 14.6617 57.0719C14.629 57.1267 14.5866 57.1685 14.5347 57.1973C14.4828 57.2255 14.4204 57.2396 14.3476 57.2396C14.2555 57.2396 14.1793 57.2145 14.1189 57.1642C14.0591 57.114 14.0142 57.0414 13.9843 56.9466C13.9549 56.8512 13.9403 56.7363 13.9403 56.602C13.9403 56.4699 13.9535 56.3564 13.9801 56.2616C14.0072 56.1662 14.0506 56.0931 14.1105 56.0422C14.1703 55.9909 14.2493 55.9652 14.3476 55.9652C14.4407 55.9652 14.5175 55.9906 14.5779 56.0414C14.6383 56.0916 14.6832 56.1645 14.7125 56.2599C14.7419 56.3547 14.7566 56.4687 14.7566 56.602ZM14.0817 56.602C14.0817 56.7171 14.0904 56.8131 14.1079 56.8899C14.1254 56.9666 14.1536 57.0242 14.1926 57.0626C14.2321 57.1004 14.2838 57.1193 14.3476 57.1193C14.4113 57.1193 14.4627 57.1004 14.5017 57.0626C14.5412 57.0248 14.5697 56.9675 14.5872 56.8907C14.6053 56.8139 14.6143 56.7177 14.6143 56.602C14.6143 56.4885 14.6055 56.3937 14.588 56.3174C14.5705 56.2407 14.5423 56.1831 14.5034 56.1447C14.4644 56.1058 14.4125 56.0863 14.3476 56.0863C14.2826 56.0863 14.2307 56.1058 14.1918 56.1447C14.1528 56.1831 14.1246 56.2407 14.1071 56.3174C14.0901 56.3937 14.0817 56.4885 14.0817 56.602ZM15.749 56.602C15.749 56.7025 15.7414 56.7922 15.7261 56.8712C15.7109 56.9503 15.6869 57.0172 15.6541 57.0719C15.6214 57.1267 15.5791 57.1685 15.5271 57.1973C15.4752 57.2255 15.4128 57.2396 15.34 57.2396C15.248 57.2396 15.1718 57.2145 15.1114 57.1642C15.0515 57.114 15.0066 57.0414 14.9767 56.9466C14.9474 56.8512 14.9327 56.7363 14.9327 56.602C14.9327 56.4699 14.9459 56.3564 14.9725 56.2616C14.9996 56.1662 15.043 56.0931 15.1029 56.0422C15.1627 55.9909 15.2418 55.9652 15.34 55.9652C15.4331 55.9652 15.5099 55.9906 15.5703 56.0414C15.6307 56.0916 15.6756 56.1645 15.7049 56.2599C15.7343 56.3547 15.749 56.4687 15.749 56.602ZM15.0741 56.602C15.0741 56.7171 15.0828 56.8131 15.1003 56.8899C15.1178 56.9666 15.1461 57.0242 15.185 57.0626C15.2245 57.1004 15.2762 57.1193 15.34 57.1193C15.4038 57.1193 15.4551 57.1004 15.4941 57.0626C15.5336 57.0248 15.5621 56.9675 15.5796 56.8907C15.5977 56.8139 15.6067 56.7177 15.6067 56.602C15.6067 56.4885 15.598 56.3937 15.5805 56.3174C15.563 56.2407 15.5347 56.1831 15.4958 56.1447C15.4568 56.1058 15.4049 56.0863 15.34 56.0863C15.2751 56.0863 15.2231 56.1058 15.1842 56.1447C15.1452 56.1831 15.117 56.2407 15.0995 56.3174C15.0826 56.3937 15.0741 56.4885 15.0741 56.602ZM13.7574 60.2227H12.9461V60.105L13.2772 59.7688C13.3388 59.7067 13.3904 59.6514 13.4322 59.6028C13.4745 59.5543 13.5067 59.5066 13.5287 59.4597C13.5507 59.4123 13.5617 59.3604 13.5617 59.3039C13.5617 59.2339 13.5409 59.1806 13.4991 59.1439C13.4579 59.1066 13.4034 59.088 13.3357 59.088C13.2764 59.088 13.2239 59.0981 13.1782 59.1185C13.1324 59.1388 13.0856 59.1676 13.0376 59.2048L12.9622 59.11C12.995 59.0823 13.0305 59.0578 13.0689 59.0363C13.1079 59.0149 13.1494 58.9979 13.1934 58.9855C13.238 58.9731 13.2854 58.9669 13.3357 58.9669C13.4119 58.9669 13.4776 58.9801 13.533 59.0067C13.5883 59.0332 13.6309 59.071 13.6608 59.1201C13.6913 59.1693 13.7065 59.2277 13.7065 59.2954C13.7065 59.3609 13.6936 59.4219 13.6676 59.4783C13.6416 59.5342 13.6052 59.5898 13.5584 59.6452C13.5115 59.6999 13.4567 59.7581 13.3941 59.8196L13.1248 60.088V60.0939H13.7574V60.2227ZM14.7566 59.602C14.7566 59.7025 14.7489 59.7922 14.7337 59.8712C14.7184 59.9503 14.6945 60.0172 14.6617 60.0719C14.629 60.1267 14.5866 60.1685 14.5347 60.1973C14.4828 60.2255 14.4204 60.2396 14.3476 60.2396C14.2555 60.2396 14.1793 60.2145 14.1189 60.1642C14.0591 60.114 14.0142 60.0414 13.9843 59.9466C13.9549 59.8512 13.9403 59.7363 13.9403 59.602C13.9403 59.4699 13.9535 59.3564 13.9801 59.2616C14.0072 59.1662 14.0506 59.0931 14.1105 59.0422C14.1703 58.9909 14.2493 58.9652 14.3476 58.9652C14.4407 58.9652 14.5175 58.9906 14.5779 59.0414C14.6383 59.0916 14.6832 59.1645 14.7125 59.2599C14.7419 59.3547 14.7566 59.4687 14.7566 59.602ZM14.0817 59.602C14.0817 59.7171 14.0904 59.8131 14.1079 59.8899C14.1254 59.9666 14.1536 60.0242 14.1926 60.0626C14.2321 60.1004 14.2838 60.1193 14.3476 60.1193C14.4113 60.1193 14.4627 60.1004 14.5017 60.0626C14.5412 60.0248 14.5697 59.9675 14.5872 59.8907C14.6053 59.8139 14.6143 59.7177 14.6143 59.602C14.6143 59.4885 14.6055 59.3937 14.588 59.3174C14.5705 59.2407 14.5423 59.1831 14.5034 59.1447C14.4644 59.1058 14.4125 59.0863 14.3476 59.0863C14.2826 59.0863 14.2307 59.1058 14.1918 59.1447C14.1528 59.1831 14.1246 59.2407 14.1071 59.3174C14.0901 59.3937 14.0817 59.4885 14.0817 59.602ZM15.749 59.602C15.749 59.7025 15.7414 59.7922 15.7261 59.8712C15.7109 59.9503 15.6869 60.0172 15.6541 60.0719C15.6214 60.1267 15.5791 60.1685 15.5271 60.1973C15.4752 60.2255 15.4128 60.2396 15.34 60.2396C15.248 60.2396 15.1718 60.2145 15.1114 60.1642C15.0515 60.114 15.0066 60.0414 14.9767 59.9466C14.9474 59.8512 14.9327 59.7363 14.9327 59.602C14.9327 59.4699 14.9459 59.3564 14.9725 59.2616C14.9996 59.1662 15.043 59.0931 15.1029 59.0422C15.1627 58.9909 15.2418 58.9652 15.34 58.9652C15.4331 58.9652 15.5099 58.9906 15.5703 59.0414C15.6307 59.0916 15.6756 59.1645 15.7049 59.2599C15.7343 59.3547 15.749 59.4687 15.749 59.602ZM15.0741 59.602C15.0741 59.7171 15.0828 59.8131 15.1003 59.8899C15.1178 59.9666 15.1461 60.0242 15.185 60.0626C15.2245 60.1004 15.2762 60.1193 15.34 60.1193C15.4038 60.1193 15.4551 60.1004 15.4941 60.0626C15.5336 60.0248 15.5621 59.9675 15.5796 59.8907C15.5977 59.8139 15.6067 59.7177 15.6067 59.602C15.6067 59.4885 15.598 59.3937 15.5805 59.3174C15.563 59.2407 15.5347 59.1831 15.4958 59.1447C15.4568 59.1058 15.4049 59.0863 15.34 59.0863C15.2751 59.0863 15.2231 59.1058 15.1842 59.1447C15.1452 59.1831 15.117 59.2407 15.0995 59.3174C15.0826 59.3937 15.0741 59.4885 15.0741 59.602ZM13.4694 63.2227H13.3323V62.3454C13.3323 62.3121 13.3323 62.2836 13.3323 62.2599C13.3328 62.2356 13.3334 62.2136 13.334 62.1938C13.3351 62.1735 13.3365 62.1529 13.3382 62.132C13.3207 62.1501 13.3043 62.1656 13.2891 62.1786C13.2738 62.191 13.2549 62.2065 13.2323 62.2251L13.0909 62.3386L13.0173 62.2429L13.3526 61.9847H13.4694V63.2227ZM14.7566 62.602C14.7566 62.7025 14.7489 62.7922 14.7337 62.8712C14.7184 62.9503 14.6945 63.0172 14.6617 63.0719C14.629 63.1267 14.5866 63.1685 14.5347 63.1973C14.4828 63.2255 14.4204 63.2396 14.3476 63.2396C14.2555 63.2396 14.1793 63.2145 14.1189 63.1642C14.0591 63.114 14.0142 63.0414 13.9843 62.9466C13.9549 62.8512 13.9403 62.7363 13.9403 62.602C13.9403 62.4699 13.9535 62.3564 13.9801 62.2616C14.0072 62.1662 14.0506 62.0931 14.1105 62.0422C14.1703 61.9909 14.2493 61.9652 14.3476 61.9652C14.4407 61.9652 14.5175 61.9906 14.5779 62.0414C14.6383 62.0916 14.6832 62.1645 14.7125 62.2599C14.7419 62.3547 14.7566 62.4687 14.7566 62.602ZM14.0817 62.602C14.0817 62.7171 14.0904 62.8131 14.1079 62.8899C14.1254 62.9666 14.1536 63.0242 14.1926 63.0626C14.2321 63.1004 14.2838 63.1193 14.3476 63.1193C14.4113 63.1193 14.4627 63.1004 14.5017 63.0626C14.5412 63.0248 14.5697 62.9675 14.5872 62.8907C14.6053 62.8139 14.6143 62.7177 14.6143 62.602C14.6143 62.4885 14.6055 62.3937 14.588 62.3174C14.5705 62.2407 14.5423 62.1831 14.5034 62.1447C14.4644 62.1058 14.4125 62.0863 14.3476 62.0863C14.2826 62.0863 14.2307 62.1058 14.1918 62.1447C14.1528 62.1831 14.1246 62.2407 14.1071 62.3174C14.0901 62.3937 14.0817 62.4885 14.0817 62.602ZM15.749 62.602C15.749 62.7025 15.7414 62.7922 15.7261 62.8712C15.7109 62.9503 15.6869 63.0172 15.6541 63.0719C15.6214 63.1267 15.5791 63.1685 15.5271 63.1973C15.4752 63.2255 15.4128 63.2396 15.34 63.2396C15.248 63.2396 15.1718 63.2145 15.1114 63.1642C15.0515 63.114 15.0066 63.0414 14.9767 62.9466C14.9474 62.8512 14.9327 62.7363 14.9327 62.602C14.9327 62.4699 14.9459 62.3564 14.9725 62.2616C14.9996 62.1662 15.043 62.0931 15.1029 62.0422C15.1627 61.9909 15.2418 61.9652 15.34 61.9652C15.4331 61.9652 15.5099 61.9906 15.5703 62.0414C15.6307 62.0916 15.6756 62.1645 15.7049 62.2599C15.7343 62.3547 15.749 62.4687 15.749 62.602ZM15.0741 62.602C15.0741 62.7171 15.0828 62.8131 15.1003 62.8899C15.1178 62.9666 15.1461 63.0242 15.185 63.0626C15.2245 63.1004 15.2762 63.1193 15.34 63.1193C15.4038 63.1193 15.4551 63.1004 15.4941 63.0626C15.5336 63.0248 15.5621 62.9675 15.5796 62.8907C15.5977 62.8139 15.6067 62.7177 15.6067 62.602C15.6067 62.4885 15.598 62.3937 15.5805 62.3174C15.563 62.2407 15.5347 62.1831 15.4958 62.1447C15.4568 62.1058 15.4049 62.0863 15.34 62.0863C15.2751 62.0863 15.2231 62.1058 15.1842 62.1447C15.1452 62.1831 15.117 62.2407 15.0995 62.3174C15.0826 62.3937 15.0741 62.4885 15.0741 62.602ZM15.749 65.602C15.749 65.7025 15.7414 65.7922 15.7261 65.8712C15.7109 65.9503 15.6869 66.0172 15.6541 66.0719C15.6214 66.1267 15.5791 66.1685 15.5271 66.1973C15.4752 66.2255 15.4128 66.2396 15.34 66.2396C15.248 66.2396 15.1718 66.2145 15.1114 66.1642C15.0515 66.114 15.0066 66.0414 14.9767 65.9466C14.9474 65.8512 14.9327 65.7363 14.9327 65.602C14.9327 65.4699 14.9459 65.3564 14.9725 65.2616C14.9996 65.1662 15.043 65.0931 15.1029 65.0422C15.1627 64.9909 15.2418 64.9652 15.34 64.9652C15.4331 64.9652 15.5099 64.9906 15.5703 65.0414C15.6307 65.0916 15.6756 65.1645 15.7049 65.2599C15.7343 65.3547 15.749 65.4687 15.749 65.602ZM15.0741 65.602C15.0741 65.7171 15.0828 65.8131 15.1003 65.8899C15.1178 65.9666 15.1461 66.0242 15.185 66.0626C15.2245 66.1004 15.2762 66.1193 15.34 66.1193C15.4038 66.1193 15.4551 66.1004 15.4941 66.0626C15.5336 66.0248 15.5621 65.9675 15.5796 65.8907C15.5977 65.8139 15.6067 65.7177 15.6067 65.602C15.6067 65.4885 15.598 65.3937 15.5805 65.3174C15.563 65.2407 15.5347 65.1831 15.4958 65.1447C15.4568 65.1058 15.4049 65.0863 15.34 65.0863C15.2751 65.0863 15.2231 65.1058 15.1842 65.1447C15.1452 65.1831 15.117 65.2407 15.0995 65.3174C15.0826 65.3937 15.0741 65.4885 15.0741 65.602Z" fill="#222539"/>
<circle cx="77.7226" cy="25.122" r="0.754798" fill="#17D1DB"/>
<circle cx="70.6777" cy="27.8876" r="0.754798" fill="#17D1DB"/>
<circle cx="66.7773" cy="30.6571" r="0.754798" fill="#17D1DB"/>
<circle cx="65.1425" cy="33.4267" r="0.754798" fill="#17D1DB"/>
<circle cx="63.6327" cy="36.1923" r="0.754798" fill="#17D1DB"/>
<circle cx="58.4745" cy="38.9579" r="0.754798" fill="#17D1DB"/>
<circle cx="53.6943" cy="41.7275" r="0.754798" fill="#17D1DB"/>
<g filter="url(#filter0_d_7927_92456)">
<circle cx="51.8074" cy="44.494" r="1.5096" fill="#17D1DB"/>
<circle cx="51.8074" cy="44.494" r="1.6983" stroke="white" stroke-width="0.377399"/>
</g>
<circle cx="47.4042" cy="47.2626" r="0.754798" fill="#17D1DB"/>
<circle cx="43.7568" cy="50.0321" r="0.754798" fill="#17D1DB"/>
<circle cx="41.6181" cy="52.7978" r="0.754798" fill="#17D1DB"/>
<circle cx="40.4853" cy="55.5673" r="0.754798" fill="#17D1DB"/>
<circle cx="33.1894" cy="58.3329" r="0.754798" fill="#17D1DB"/>
<circle cx="31.1767" cy="61.1025" r="0.754798" fill="#17D1DB"/>
<circle cx="28.6601" cy="63.8681" r="0.754798" fill="#17D1DB"/>
<circle cx="22.622" cy="66.6376" r="0.754798" fill="#17D1DB"/>
<g filter="url(#filter1_d_7927_92456)">
<rect x="48.5605" y="46.7031" width="6.9646" height="3.79887" rx="1.89944" fill="#212121" shape-rendering="crispEdges"/>
<path d="M50.8014 47.5329C50.891 47.5329 50.9718 47.547 51.0438 47.5752C51.1157 47.6028 51.1729 47.644 51.2152 47.6991C51.2576 47.7541 51.2788 47.8222 51.2788 47.9034C51.2788 47.9662 51.2657 48.0209 51.2396 48.0674C51.2142 48.114 51.1796 48.1549 51.1359 48.1902C51.0921 48.2248 51.0431 48.2555 50.9887 48.2823C51.0494 48.3119 51.1052 48.3462 51.156 48.385C51.2075 48.4231 51.2488 48.4679 51.2798 48.5194C51.3116 48.5709 51.3274 48.6312 51.3274 48.7004C51.3274 48.7872 51.3052 48.8623 51.2608 48.9259C51.217 48.9887 51.156 49.0373 51.0776 49.0719C50.9993 49.1058 50.9079 49.1227 50.8035 49.1227C50.6913 49.1227 50.5957 49.1061 50.5166 49.073C50.4376 49.0398 50.3776 48.9925 50.3367 48.9311C50.2958 48.8691 50.2753 48.795 50.2753 48.7089C50.2753 48.6376 50.2894 48.5759 50.3177 48.5236C50.3459 48.4714 50.3836 48.4263 50.4309 48.3882C50.4789 48.35 50.5315 48.3179 50.5886 48.2918C50.5399 48.2629 50.4955 48.2304 50.4553 48.1944C50.415 48.1578 50.3829 48.1158 50.3589 48.0685C50.3356 48.0205 50.324 47.9651 50.324 47.9023C50.324 47.8219 50.3455 47.7545 50.3886 47.7001C50.4316 47.6451 50.4891 47.6035 50.5611 47.5752C50.6338 47.547 50.7139 47.5329 50.8014 47.5329ZM50.5124 48.6993C50.5124 48.7671 50.5364 48.8228 50.5844 48.8666C50.6324 48.9103 50.704 48.9322 50.7993 48.9322C50.8938 48.9322 50.9658 48.9107 51.0152 48.8676C51.0646 48.8246 51.0893 48.7678 51.0893 48.6972C51.0893 48.6521 51.0766 48.6122 51.0512 48.5776C51.0265 48.543 50.993 48.5123 50.9506 48.4855C50.909 48.458 50.8628 48.4326 50.812 48.4093L50.7781 48.3956C50.7231 48.4188 50.6758 48.4453 50.6363 48.4749C50.5967 48.5039 50.566 48.5367 50.5442 48.5734C50.523 48.6101 50.5124 48.6521 50.5124 48.6993ZM50.7993 47.7245C50.7308 47.7245 50.6744 47.7414 50.6299 47.7753C50.5862 47.8085 50.5643 47.8564 50.5643 47.9192C50.5643 47.9637 50.5749 48.0018 50.596 48.0336C50.6179 48.0653 50.6472 48.0928 50.6839 48.1161C50.7206 48.1387 50.7612 48.1599 50.8056 48.1796C50.8487 48.1606 50.8875 48.1398 50.922 48.1172C50.9573 48.0939 50.9852 48.0664 51.0057 48.0346C51.0268 48.0022 51.0374 47.9633 51.0374 47.9182C51.0374 47.8561 51.0152 47.8085 50.9707 47.7753C50.927 47.7414 50.8698 47.7245 50.7993 47.7245ZM52.568 48.3268C52.568 48.4517 52.5581 48.5635 52.5383 48.6623C52.5193 48.7604 52.4889 48.8436 52.4473 48.9121C52.4057 48.9805 52.3513 49.0328 52.2843 49.0687C52.2173 49.1047 52.1361 49.1227 52.0409 49.1227C51.9216 49.1227 51.8232 49.0913 51.7455 49.0285C51.6679 48.965 51.6104 48.874 51.573 48.7554C51.5356 48.6362 51.5169 48.4933 51.5169 48.3268C51.5169 48.1602 51.5338 48.0177 51.5677 47.8991C51.6023 47.7799 51.658 47.6885 51.735 47.625C51.8119 47.5615 51.9138 47.5297 52.0409 47.5297C52.1608 47.5297 52.2596 47.5615 52.3372 47.625C52.4156 47.6878 52.4734 47.7788 52.5108 47.8981C52.5489 48.0166 52.568 48.1595 52.568 48.3268ZM51.7678 48.3268C51.7678 48.4573 51.7762 48.5663 51.7932 48.6538C51.8108 48.7413 51.8397 48.807 51.88 48.8507C51.9202 48.8937 51.9738 48.9153 52.0409 48.9153C52.1079 48.9153 52.1615 48.8937 52.2017 48.8507C52.242 48.8077 52.2709 48.7424 52.2885 48.6549C52.3069 48.5674 52.3161 48.458 52.3161 48.3268C52.3161 48.1969 52.3072 48.0882 52.2896 48.0007C52.272 47.9132 52.243 47.8476 52.2028 47.8039C52.1626 47.7594 52.1086 47.7372 52.0409 47.7372C51.9731 47.7372 51.9191 47.7594 51.8789 47.8039C51.8394 47.8476 51.8108 47.9132 51.7932 48.0007C51.7762 48.0882 51.7678 48.1969 51.7678 48.3268ZM53.8085 48.3268C53.8085 48.4517 53.7986 48.5635 53.7789 48.6623C53.7598 48.7604 53.7295 48.8436 53.6878 48.9121C53.6462 48.9805 53.5919 49.0328 53.5248 49.0687C53.4578 49.1047 53.3766 49.1227 53.2814 49.1227C53.1621 49.1227 53.0637 49.0913 52.9861 49.0285C52.9084 48.965 52.8509 48.874 52.8135 48.7554C52.7761 48.6362 52.7574 48.4933 52.7574 48.3268C52.7574 48.1602 52.7744 48.0177 52.8082 47.8991C52.8428 47.7799 52.8986 47.6885 52.9755 47.625C53.0524 47.5615 53.1544 47.5297 53.2814 47.5297C53.4013 47.5297 53.5001 47.5615 53.5778 47.625C53.6561 47.6878 53.7139 47.7788 53.7513 47.8981C53.7895 48.0166 53.8085 48.1595 53.8085 48.3268ZM53.0083 48.3268C53.0083 48.4573 53.0168 48.5663 53.0337 48.6538C53.0513 48.7413 53.0803 48.807 53.1205 48.8507C53.1607 48.8937 53.2143 48.9153 53.2814 48.9153C53.3484 48.9153 53.402 48.8937 53.4423 48.8507C53.4825 48.8077 53.5114 48.7424 53.5291 48.6549C53.5474 48.5674 53.5566 48.458 53.5566 48.3268C53.5566 48.1969 53.5478 48.0882 53.5301 48.0007C53.5125 47.9132 53.4836 47.8476 53.4433 47.8039C53.4031 47.7594 53.3491 47.7372 53.2814 47.7372C53.2136 47.7372 53.1597 47.7594 53.1194 47.8039C53.0799 47.8476 53.0513 47.9132 53.0337 48.0007C53.0168 48.0882 53.0083 48.1969 53.0083 48.3268Z" fill="white"/>
</g>
<defs>
<filter id="filter0_d_7927_92456" x="49.4177" y="42.2281" width="4.77983" height="4.78374" filterUnits="userSpaceOnUse" color-interpolation-filters="sRGB">
<feFlood flood-opacity="0" result="BackgroundImageFix"/>
<feColorMatrix in="SourceAlpha" type="matrix" values="0 0 0 0 0 0 0 0 0 0 0 0 0 0 0 0 0 0 127 0" result="hardAlpha"/>
<feOffset dy="0.1258"/>
<feGaussianBlur stdDeviation="0.251599"/>
<feComposite in2="hardAlpha" operator="out"/>
<feColorMatrix type="matrix" values="0 0 0 0 0 0 0 0 0 0 0 0 0 0 0 0 0 0 0.25 0"/>
<feBlend mode="normal" in2="BackgroundImageFix" result="effect1_dropShadow_7927_92456"/>
<feBlend mode="normal" in="SourceGraphic" in2="effect1_dropShadow_7927_92456" result="shape"/>
</filter>
<filter id="filter1_d_7927_92456" x="44.5605" y="43.7031" width="14.9648" height="11.8008" filterUnits="userSpaceOnUse" color-interpolation-filters="sRGB">
<feFlood flood-opacity="0" result="BackgroundImageFix"/>
<feColorMatrix in="SourceAlpha" type="matrix" values="0 0 0 0 0 0 0 0 0 0 0 0 0 0 0 0 0 0 127 0" result="hardAlpha"/>
<feOffset dy="1"/>
<feGaussianBlur stdDeviation="2"/>
<feComposite in2="hardAlpha" operator="out"/>
<feColorMatrix type="matrix" values="0 0 0 0 0 0 0 0 0 0 0 0 0 0 0 0 0 0 0.25 0"/>
<feBlend mode="normal" in2="BackgroundImageFix" result="effect1_dropShadow_7927_92456"/>
<feBlend mode="normal" in="SourceGraphic" in2="effect1_dropShadow_7927_92456" result="shape"/>
</filter>
</defs>
</svg>
