<svg width="93" height="92" viewBox="0 0 93 92" fill="none" xmlns="http://www.w3.org/2000/svg">
<rect x="1.13104" y="0.389831" width="91.079" height="91.2203" rx="17.5424" stroke="#BEBEBE" stroke-width="0.779661"/>
<rect width="70" height="56.0481" transform="translate(11.5 16.4766)" fill="white"/>
<path d="M19.6787 22.25V68.6761" stroke="#E0E0E0" stroke-width="0.24055"/>
<path d="M13.8635 24.25H12.9633V24.1194L13.3307 23.7463C13.399 23.6774 13.4563 23.6161 13.5026 23.5622C13.5496 23.5083 13.5853 23.4554 13.6098 23.4034C13.6342 23.3508 13.6464 23.2931 13.6464 23.2305C13.6464 23.1528 13.6232 23.0936 13.5769 23.0529C13.5311 23.0115 13.4707 22.9909 13.3955 22.9909C13.3297 22.9909 13.2715 23.0021 13.2207 23.0247C13.17 23.0473 13.118 23.0792 13.0648 23.1205L12.9811 23.0153C13.0175 22.9846 13.0569 22.9574 13.0995 22.9336C13.1427 22.9097 13.1888 22.891 13.2377 22.8772C13.2871 22.8634 13.3398 22.8565 13.3955 22.8565C13.4801 22.8565 13.5531 22.8712 13.6144 22.9007C13.6758 22.9301 13.7231 22.9721 13.7563 23.0266C13.7902 23.0811 13.8071 23.1459 13.8071 23.2211C13.8071 23.2938 13.7927 23.3614 13.7639 23.424C13.735 23.4861 13.6946 23.5478 13.6426 23.6092C13.5906 23.6699 13.5299 23.7344 13.4603 23.8027L13.1615 24.1006V24.1072H13.8635V24.25ZM14.4987 23.41C14.592 23.41 14.6731 23.4259 14.742 23.4579C14.8109 23.4892 14.8642 23.5349 14.9018 23.5951C14.94 23.6552 14.9591 23.7282 14.9591 23.814C14.9591 23.908 14.9387 23.9891 14.898 24.0574C14.8573 24.125 14.7987 24.1773 14.7223 24.2143C14.6459 24.2506 14.5544 24.2688 14.4479 24.2688C14.3765 24.2688 14.3101 24.2625 14.2487 24.25C14.1873 24.2375 14.1356 24.2187 14.0937 24.1936V24.0452C14.1394 24.0727 14.1948 24.0946 14.26 24.1109C14.3251 24.1272 14.3884 24.1354 14.4498 24.1354C14.5193 24.1354 14.5801 24.1244 14.6321 24.1025C14.6847 24.0799 14.7254 24.0461 14.7542 24.001C14.7837 23.9553 14.7984 23.8979 14.7984 23.829C14.7984 23.7376 14.7702 23.6671 14.7138 23.6176C14.6581 23.5675 14.5698 23.5424 14.4489 23.5424C14.41 23.5424 14.3674 23.5456 14.3211 23.5518C14.2747 23.5581 14.2365 23.565 14.2064 23.5725L14.1275 23.5208L14.1801 22.8762H14.8632V23.0191H14.3135L14.2788 23.4334C14.3026 23.4284 14.3333 23.4234 14.3709 23.4184C14.4085 23.4128 14.451 23.41 14.4987 23.41ZM16.0735 23.5612C16.0735 23.6727 16.0651 23.7723 16.0481 23.86C16.0312 23.9477 16.0046 24.022 15.9683 24.0827C15.9319 24.1435 15.885 24.1899 15.8273 24.2218C15.7697 24.2531 15.7005 24.2688 15.6197 24.2688C15.5175 24.2688 15.433 24.2409 15.366 24.1852C15.2996 24.1294 15.2497 24.0489 15.2165 23.9437C15.184 23.8378 15.1677 23.7103 15.1677 23.5612C15.1677 23.4147 15.1824 23.2887 15.2119 23.1835C15.2419 23.0776 15.2902 22.9965 15.3566 22.9401C15.423 22.8831 15.5107 22.8546 15.6197 22.8546C15.723 22.8546 15.8082 22.8828 15.8752 22.9392C15.9423 22.9949 15.9921 23.0758 16.0246 23.1816C16.0572 23.2869 16.0735 23.4134 16.0735 23.5612ZM15.3246 23.5612C15.3246 23.689 15.3343 23.7955 15.3537 23.8807C15.3732 23.9659 15.4045 24.0298 15.4477 24.0724C15.4916 24.1144 15.5489 24.1354 15.6197 24.1354C15.6904 24.1354 15.7474 24.1144 15.7907 24.0724C15.8345 24.0304 15.8662 23.9669 15.8856 23.8817C15.9056 23.7965 15.9156 23.6897 15.9156 23.5612C15.9156 23.4353 15.9059 23.3301 15.8865 23.2455C15.8671 23.1603 15.8358 23.0964 15.7926 23.0538C15.7493 23.0106 15.6917 22.989 15.6197 22.989C15.5476 22.989 15.49 23.0106 15.4468 23.0538C15.4035 23.0964 15.3722 23.1603 15.3528 23.2455C15.334 23.3301 15.3246 23.4353 15.3246 23.5612ZM17.1748 23.5612C17.1748 23.6727 17.1663 23.7723 17.1494 23.86C17.1325 23.9477 17.1059 24.022 17.0695 24.0827C17.0332 24.1435 16.9862 24.1899 16.9286 24.2218C16.871 24.2531 16.8017 24.2688 16.7209 24.2688C16.6188 24.2688 16.5342 24.2409 16.4672 24.1852C16.4008 24.1294 16.351 24.0489 16.3178 23.9437C16.2852 23.8378 16.269 23.7103 16.269 23.5612C16.269 23.4147 16.2837 23.2887 16.3131 23.1835C16.3432 23.0776 16.3914 22.9965 16.4578 22.9401C16.5242 22.8831 16.6119 22.8546 16.7209 22.8546C16.8243 22.8546 16.9095 22.8828 16.9765 22.9392C17.0435 22.9949 17.0933 23.0758 17.1259 23.1816C17.1585 23.2869 17.1748 23.4134 17.1748 23.5612ZM16.4259 23.5612C16.4259 23.689 16.4356 23.7955 16.455 23.8807C16.4744 23.9659 16.5057 24.0298 16.549 24.0724C16.5928 24.1144 16.6501 24.1354 16.7209 24.1354C16.7917 24.1354 16.8487 24.1144 16.8919 24.0724C16.9358 24.0304 16.9674 23.9669 16.9868 23.8817C17.0069 23.7965 17.0169 23.6897 17.0169 23.5612C17.0169 23.4353 17.0072 23.3301 16.9878 23.2455C16.9684 23.1603 16.937 23.0964 16.8938 23.0538C16.8506 23.0106 16.793 22.989 16.7209 22.989C16.6489 22.989 16.5913 23.0106 16.548 23.0538C16.5048 23.0964 16.4735 23.1603 16.4541 23.2455C16.4353 23.3301 16.4259 23.4353 16.4259 23.5612Z" fill="#212121"/>
<path d="M13.8635 31.5781H12.9633V31.4475L13.3307 31.0745C13.399 31.0056 13.4563 30.9442 13.5026 30.8903C13.5496 30.8364 13.5853 30.7835 13.6098 30.7315C13.6342 30.6789 13.6464 30.6213 13.6464 30.5586C13.6464 30.4809 13.6232 30.4217 13.5769 30.381C13.5311 30.3397 13.4707 30.319 13.3955 30.319C13.3297 30.319 13.2715 30.3303 13.2207 30.3528C13.17 30.3754 13.118 30.4073 13.0648 30.4487L12.9811 30.3434C13.0175 30.3127 13.0569 30.2855 13.0995 30.2617C13.1427 30.2379 13.1888 30.2191 13.2377 30.2053C13.2871 30.1915 13.3398 30.1846 13.3955 30.1846C13.4801 30.1846 13.5531 30.1993 13.6144 30.2288C13.6758 30.2582 13.7231 30.3002 13.7563 30.3547C13.7902 30.4092 13.8071 30.474 13.8071 30.5492C13.8071 30.6219 13.7927 30.6895 13.7639 30.7522C13.735 30.8142 13.6946 30.8759 13.6426 30.9373C13.5906 30.998 13.5299 31.0626 13.4603 31.1309L13.1615 31.4287V31.4353H13.8635V31.5781ZM14.9722 30.8894C14.9722 31.0009 14.9638 31.1005 14.9469 31.1882C14.93 31.2759 14.9033 31.3501 14.867 31.4109C14.8307 31.4716 14.7837 31.518 14.7261 31.5499C14.6684 31.5813 14.5992 31.5969 14.5184 31.5969C14.4163 31.5969 14.3317 31.569 14.2647 31.5133C14.1983 31.4575 14.1485 31.377 14.1153 31.2718C14.0827 31.1659 14.0664 31.0385 14.0664 30.8894C14.0664 30.7428 14.0811 30.6169 14.1106 30.5116C14.1407 30.4058 14.1889 30.3246 14.2553 30.2683C14.3217 30.2113 14.4094 30.1827 14.5184 30.1827C14.6218 30.1827 14.7069 30.2109 14.774 30.2673C14.841 30.3231 14.8908 30.4039 14.9234 30.5097C14.956 30.615 14.9722 30.7415 14.9722 30.8894ZM14.2233 30.8894C14.2233 31.0172 14.2331 31.1236 14.2525 31.2088C14.2719 31.294 14.3032 31.3579 14.3464 31.4005C14.3903 31.4425 14.4476 31.4635 14.5184 31.4635C14.5892 31.4635 14.6462 31.4425 14.6894 31.4005C14.7333 31.3586 14.7649 31.295 14.7843 31.2098C14.8044 31.1246 14.8144 31.0178 14.8144 30.8894C14.8144 30.7635 14.8047 30.6582 14.7853 30.5736C14.7658 30.4884 14.7345 30.4246 14.6913 30.382C14.6481 30.3387 14.5904 30.3171 14.5184 30.3171C14.4464 30.3171 14.3887 30.3387 14.3455 30.382C14.3023 30.4246 14.2709 30.4884 14.2515 30.5736C14.2327 30.6582 14.2233 30.7635 14.2233 30.8894ZM16.0735 30.8894C16.0735 31.0009 16.0651 31.1005 16.0481 31.1882C16.0312 31.2759 16.0046 31.3501 15.9683 31.4109C15.9319 31.4716 15.885 31.518 15.8273 31.5499C15.7697 31.5813 15.7005 31.5969 15.6197 31.5969C15.5175 31.5969 15.433 31.569 15.366 31.5133C15.2996 31.4575 15.2497 31.377 15.2165 31.2718C15.184 31.1659 15.1677 31.0385 15.1677 30.8894C15.1677 30.7428 15.1824 30.6169 15.2119 30.5116C15.2419 30.4058 15.2902 30.3246 15.3566 30.2683C15.423 30.2113 15.5107 30.1827 15.6197 30.1827C15.723 30.1827 15.8082 30.2109 15.8752 30.2673C15.9423 30.3231 15.9921 30.4039 16.0246 30.5097C16.0572 30.615 16.0735 30.7415 16.0735 30.8894ZM15.3246 30.8894C15.3246 31.0172 15.3343 31.1236 15.3537 31.2088C15.3732 31.294 15.4045 31.3579 15.4477 31.4005C15.4916 31.4425 15.5489 31.4635 15.6197 31.4635C15.6904 31.4635 15.7474 31.4425 15.7907 31.4005C15.8345 31.3586 15.8662 31.295 15.8856 31.2098C15.9056 31.1246 15.9156 31.0178 15.9156 30.8894C15.9156 30.7635 15.9059 30.6582 15.8865 30.5736C15.8671 30.4884 15.8358 30.4246 15.7926 30.382C15.7493 30.3387 15.6917 30.3171 15.6197 30.3171C15.5476 30.3171 15.49 30.3387 15.4468 30.382C15.4035 30.4246 15.3722 30.4884 15.3528 30.5736C15.334 30.6582 15.3246 30.7635 15.3246 30.8894ZM17.1748 30.8894C17.1748 31.0009 17.1663 31.1005 17.1494 31.1882C17.1325 31.2759 17.1059 31.3501 17.0695 31.4109C17.0332 31.4716 16.9862 31.518 16.9286 31.5499C16.871 31.5813 16.8017 31.5969 16.7209 31.5969C16.6188 31.5969 16.5342 31.569 16.4672 31.5133C16.4008 31.4575 16.351 31.377 16.3178 31.2718C16.2852 31.1659 16.269 31.0385 16.269 30.8894C16.269 30.7428 16.2837 30.6169 16.3131 30.5116C16.3432 30.4058 16.3914 30.3246 16.4578 30.2683C16.5242 30.2113 16.6119 30.1827 16.7209 30.1827C16.8243 30.1827 16.9095 30.2109 16.9765 30.2673C17.0435 30.3231 17.0933 30.4039 17.1259 30.5097C17.1585 30.615 17.1748 30.7415 17.1748 30.8894ZM16.4259 30.8894C16.4259 31.0172 16.4356 31.1236 16.455 31.2088C16.4744 31.294 16.5057 31.3579 16.549 31.4005C16.5928 31.4425 16.6501 31.4635 16.7209 31.4635C16.7917 31.4635 16.8487 31.4425 16.8919 31.4005C16.9358 31.3586 16.9674 31.295 16.9868 31.2098C17.0069 31.1246 17.0169 31.0178 17.0169 30.8894C17.0169 30.7635 17.0072 30.6582 16.9878 30.5736C16.9684 30.4884 16.937 30.4246 16.8938 30.382C16.8506 30.3387 16.793 30.3171 16.7209 30.3171C16.6489 30.3171 16.5913 30.3387 16.548 30.382C16.5048 30.4246 16.4735 30.4884 16.4541 30.5736C16.4353 30.6582 16.4259 30.7635 16.4259 30.8894Z" fill="#212121"/>
<path d="M13.544 38.9102H13.3918V37.9367C13.3918 37.8997 13.3918 37.8681 13.3918 37.8418C13.3924 37.8148 13.393 37.7904 13.3936 37.7685C13.3949 37.7459 13.3965 37.7231 13.3983 37.6999C13.3789 37.7199 13.3607 37.7372 13.3438 37.7516C13.3269 37.7654 13.3059 37.7826 13.2809 37.8033L13.124 37.9292L13.0422 37.823L13.4143 37.5364H13.544V38.9102ZM14.4987 38.0701C14.592 38.0701 14.6731 38.0861 14.742 38.118C14.8109 38.1494 14.8642 38.1951 14.9018 38.2552C14.94 38.3154 14.9591 38.3883 14.9591 38.4742C14.9591 38.5681 14.9387 38.6492 14.898 38.7175C14.8573 38.7852 14.7987 38.8375 14.7223 38.8744C14.6459 38.9108 14.5544 38.9289 14.4479 38.9289C14.3765 38.9289 14.3101 38.9227 14.2487 38.9102C14.1873 38.8976 14.1356 38.8788 14.0937 38.8538V38.7053C14.1394 38.7329 14.1948 38.7548 14.26 38.7711C14.3251 38.7874 14.3884 38.7955 14.4498 38.7955C14.5193 38.7955 14.5801 38.7846 14.6321 38.7626C14.6847 38.7401 14.7254 38.7063 14.7542 38.6611C14.7837 38.6154 14.7984 38.5581 14.7984 38.4892C14.7984 38.3977 14.7702 38.3273 14.7138 38.2778C14.6581 38.2277 14.5698 38.2026 14.4489 38.2026C14.41 38.2026 14.3674 38.2057 14.3211 38.212C14.2747 38.2183 14.2365 38.2252 14.2064 38.2327L14.1275 38.181L14.1801 37.5364H14.8632V37.6792H14.3135L14.2788 38.0936C14.3026 38.0886 14.3333 38.0836 14.3709 38.0786C14.4085 38.0729 14.451 38.0701 14.4987 38.0701ZM16.0735 38.2214C16.0735 38.3329 16.0651 38.4325 16.0481 38.5202C16.0312 38.6079 16.0046 38.6821 15.9683 38.7429C15.9319 38.8037 15.885 38.85 15.8273 38.882C15.7697 38.9133 15.7005 38.9289 15.6197 38.9289C15.5175 38.9289 15.433 38.9011 15.366 38.8453C15.2996 38.7896 15.2497 38.7091 15.2165 38.6038C15.184 38.498 15.1677 38.3705 15.1677 38.2214C15.1677 38.0748 15.1824 37.9489 15.2119 37.8437C15.2419 37.7378 15.2902 37.6567 15.3566 37.6003C15.423 37.5433 15.5107 37.5148 15.6197 37.5148C15.723 37.5148 15.8082 37.543 15.8752 37.5993C15.9423 37.6551 15.9921 37.7359 16.0246 37.8418C16.0572 37.947 16.0735 38.0736 16.0735 38.2214ZM15.3246 38.2214C15.3246 38.3492 15.3343 38.4557 15.3537 38.5409C15.3732 38.6261 15.4045 38.69 15.4477 38.7326C15.4916 38.7745 15.5489 38.7955 15.6197 38.7955C15.6904 38.7955 15.7474 38.7745 15.7907 38.7326C15.8345 38.6906 15.8662 38.627 15.8856 38.5418C15.9056 38.4566 15.9156 38.3498 15.9156 38.2214C15.9156 38.0955 15.9059 37.9902 15.8865 37.9057C15.8671 37.8205 15.8358 37.7566 15.7926 37.714C15.7493 37.6708 15.6917 37.6491 15.6197 37.6491C15.5476 37.6491 15.49 37.6708 15.4468 37.714C15.4035 37.7566 15.3722 37.8205 15.3528 37.9057C15.334 37.9902 15.3246 38.0955 15.3246 38.2214ZM17.1748 38.2214C17.1748 38.3329 17.1663 38.4325 17.1494 38.5202C17.1325 38.6079 17.1059 38.6821 17.0695 38.7429C17.0332 38.8037 16.9862 38.85 16.9286 38.882C16.871 38.9133 16.8017 38.9289 16.7209 38.9289C16.6188 38.9289 16.5342 38.9011 16.4672 38.8453C16.4008 38.7896 16.351 38.7091 16.3178 38.6038C16.2852 38.498 16.269 38.3705 16.269 38.2214C16.269 38.0748 16.2837 37.9489 16.3131 37.8437C16.3432 37.7378 16.3914 37.6567 16.4578 37.6003C16.5242 37.5433 16.6119 37.5148 16.7209 37.5148C16.8243 37.5148 16.9095 37.543 16.9765 37.5993C17.0435 37.6551 17.0933 37.7359 17.1259 37.8418C17.1585 37.947 17.1748 38.0736 17.1748 38.2214ZM16.4259 38.2214C16.4259 38.3492 16.4356 38.4557 16.455 38.5409C16.4744 38.6261 16.5057 38.69 16.549 38.7326C16.5928 38.7745 16.6501 38.7955 16.7209 38.7955C16.7917 38.7955 16.8487 38.7745 16.8919 38.7326C16.9358 38.6906 16.9674 38.627 16.9868 38.5418C17.0069 38.4566 17.0169 38.3498 17.0169 38.2214C17.0169 38.0955 17.0072 37.9902 16.9878 37.9057C16.9684 37.8205 16.937 37.7566 16.8938 37.714C16.8506 37.6708 16.793 37.6491 16.7209 37.6491C16.6489 37.6491 16.5913 37.6708 16.548 37.714C16.5048 37.7566 16.4735 37.8205 16.4541 37.9057C16.4353 37.9902 16.4259 38.0955 16.4259 38.2214Z" fill="#212121"/>
<path d="M13.544 46.2383H13.3918V45.2648C13.3918 45.2278 13.3918 45.1962 13.3918 45.1699C13.3924 45.143 13.393 45.1185 13.3936 45.0966C13.3949 45.0741 13.3965 45.0512 13.3983 45.028C13.3789 45.0481 13.3607 45.0653 13.3438 45.0797C13.3269 45.0935 13.3059 45.1107 13.2809 45.1314L13.124 45.2573L13.0422 45.1511L13.4143 44.8645H13.544V46.2383ZM14.9722 45.5495C14.9722 45.661 14.9638 45.7606 14.9469 45.8483C14.93 45.936 14.9033 46.0103 14.867 46.071C14.8307 46.1318 14.7837 46.1781 14.7261 46.2101C14.6684 46.2414 14.5992 46.2571 14.5184 46.2571C14.4163 46.2571 14.3317 46.2292 14.2647 46.1734C14.1983 46.1177 14.1485 46.0372 14.1153 45.932C14.0827 45.8261 14.0664 45.6986 14.0664 45.5495C14.0664 45.4029 14.0811 45.277 14.1106 45.1718C14.1407 45.0659 14.1889 44.9848 14.2553 44.9284C14.3217 44.8714 14.4094 44.8429 14.5184 44.8429C14.6218 44.8429 14.7069 44.8711 14.774 44.9275C14.841 44.9832 14.8908 45.064 14.9234 45.1699C14.956 45.2751 14.9722 45.4017 14.9722 45.5495ZM14.2233 45.5495C14.2233 45.6773 14.2331 45.7838 14.2525 45.869C14.2719 45.9542 14.3032 46.0181 14.3464 46.0607C14.3903 46.1027 14.4476 46.1236 14.5184 46.1236C14.5892 46.1236 14.6462 46.1027 14.6894 46.0607C14.7333 46.0187 14.7649 45.9551 14.7843 45.8699C14.8044 45.7847 14.8144 45.6779 14.8144 45.5495C14.8144 45.4236 14.8047 45.3184 14.7853 45.2338C14.7658 45.1486 14.7345 45.0847 14.6913 45.0421C14.6481 44.9989 14.5904 44.9773 14.5184 44.9773C14.4464 44.9773 14.3887 44.9989 14.3455 45.0421C14.3023 45.0847 14.2709 45.1486 14.2515 45.2338C14.2327 45.3184 14.2233 45.4236 14.2233 45.5495ZM16.0735 45.5495C16.0735 45.661 16.0651 45.7606 16.0481 45.8483C16.0312 45.936 16.0046 46.0103 15.9683 46.071C15.9319 46.1318 15.885 46.1781 15.8273 46.2101C15.7697 46.2414 15.7005 46.2571 15.6197 46.2571C15.5175 46.2571 15.433 46.2292 15.366 46.1734C15.2996 46.1177 15.2497 46.0372 15.2165 45.932C15.184 45.8261 15.1677 45.6986 15.1677 45.5495C15.1677 45.4029 15.1824 45.277 15.2119 45.1718C15.2419 45.0659 15.2902 44.9848 15.3566 44.9284C15.423 44.8714 15.5107 44.8429 15.6197 44.8429C15.723 44.8429 15.8082 44.8711 15.8752 44.9275C15.9423 44.9832 15.9921 45.064 16.0246 45.1699C16.0572 45.2751 16.0735 45.4017 16.0735 45.5495ZM15.3246 45.5495C15.3246 45.6773 15.3343 45.7838 15.3537 45.869C15.3732 45.9542 15.4045 46.0181 15.4477 46.0607C15.4916 46.1027 15.5489 46.1236 15.6197 46.1236C15.6904 46.1236 15.7474 46.1027 15.7907 46.0607C15.8345 46.0187 15.8662 45.9551 15.8856 45.8699C15.9056 45.7847 15.9156 45.6779 15.9156 45.5495C15.9156 45.4236 15.9059 45.3184 15.8865 45.2338C15.8671 45.1486 15.8358 45.0847 15.7926 45.0421C15.7493 44.9989 15.6917 44.9773 15.6197 44.9773C15.5476 44.9773 15.49 44.9989 15.4468 45.0421C15.4035 45.0847 15.3722 45.1486 15.3528 45.2338C15.334 45.3184 15.3246 45.4236 15.3246 45.5495ZM17.1748 45.5495C17.1748 45.661 17.1663 45.7606 17.1494 45.8483C17.1325 45.936 17.1059 46.0103 17.0695 46.071C17.0332 46.1318 16.9862 46.1781 16.9286 46.2101C16.871 46.2414 16.8017 46.2571 16.7209 46.2571C16.6188 46.2571 16.5342 46.2292 16.4672 46.1734C16.4008 46.1177 16.351 46.0372 16.3178 45.932C16.2852 45.8261 16.269 45.6986 16.269 45.5495C16.269 45.4029 16.2837 45.277 16.3131 45.1718C16.3432 45.0659 16.3914 44.9848 16.4578 44.9284C16.5242 44.8714 16.6119 44.8429 16.7209 44.8429C16.8243 44.8429 16.9095 44.8711 16.9765 44.9275C17.0435 44.9832 17.0933 45.064 17.1259 45.1699C17.1585 45.2751 17.1748 45.4017 17.1748 45.5495ZM16.4259 45.5495C16.4259 45.6773 16.4356 45.7838 16.455 45.869C16.4744 45.9542 16.5057 46.0181 16.549 46.0607C16.5928 46.1027 16.6501 46.1236 16.7209 46.1236C16.7917 46.1236 16.8487 46.1027 16.8919 46.0607C16.9358 46.0187 16.9674 45.9551 16.9868 45.8699C17.0069 45.7847 17.0169 45.6779 17.0169 45.5495C17.0169 45.4236 17.0072 45.3184 16.9878 45.2338C16.9684 45.1486 16.937 45.0847 16.8938 45.0421C16.8506 44.9989 16.793 44.9773 16.7209 44.9773C16.6489 44.9773 16.5913 44.9989 16.548 45.0421C16.5048 45.0847 16.4735 45.1486 16.4541 45.2338C16.4353 45.3184 16.4259 45.4236 16.4259 45.5495Z" fill="#212121"/>
<path d="M13.3203 52.7303C13.4137 52.7303 13.4948 52.7462 13.5637 52.7782C13.6326 52.8095 13.6859 52.8552 13.7234 52.9154C13.7617 52.9755 13.7808 53.0485 13.7808 53.1343C13.7808 53.2283 13.7604 53.3094 13.7197 53.3777C13.679 53.4453 13.6204 53.4976 13.544 53.5346C13.4676 53.5709 13.3761 53.5891 13.2696 53.5891C13.1982 53.5891 13.1318 53.5828 13.0704 53.5703C13.009 53.5578 12.9573 53.539 12.9154 53.5139V53.3655C12.9611 53.393 13.0165 53.415 13.0817 53.4312C13.1468 53.4475 13.2101 53.4557 13.2715 53.4557C13.341 53.4557 13.4018 53.4447 13.4538 53.4228C13.5064 53.4002 13.5471 53.3664 13.5759 53.3213C13.6054 53.2756 13.6201 53.2183 13.6201 53.1494C13.6201 53.0579 13.5919 52.9874 13.5355 52.9379C13.4798 52.8878 13.3914 52.8628 13.2705 52.8628C13.2317 52.8628 13.1891 52.8659 13.1427 52.8722C13.0964 52.8784 13.0582 52.8853 13.0281 52.8928L12.9492 52.8411L13.0018 52.1965H13.6849V52.3394H13.1352L13.1005 52.7538C13.1243 52.7487 13.155 52.7437 13.1925 52.7387C13.2301 52.7331 13.2727 52.7303 13.3203 52.7303ZM14.8952 52.8816C14.8952 52.9931 14.8867 53.0927 14.8698 53.1804C14.8529 53.2681 14.8263 53.3423 14.7899 53.4031C14.7536 53.4638 14.7066 53.5102 14.649 53.5421C14.5914 53.5734 14.5221 53.5891 14.4413 53.5891C14.3392 53.5891 14.2547 53.5612 14.1876 53.5055C14.1212 53.4497 14.0714 53.3692 14.0382 53.264C14.0057 53.1581 13.9894 53.0306 13.9894 52.8816C13.9894 52.735 14.0041 52.6091 14.0335 52.5038C14.0636 52.3979 14.1118 52.3168 14.1782 52.2604C14.2446 52.2034 14.3323 52.1749 14.4413 52.1749C14.5447 52.1749 14.6299 52.2031 14.6969 52.2595C14.764 52.3153 14.8138 52.3961 14.8463 52.5019C14.8789 52.6072 14.8952 52.7337 14.8952 52.8816ZM14.1463 52.8816C14.1463 53.0093 14.156 53.1158 14.1754 53.201C14.1948 53.2862 14.2262 53.3501 14.2694 53.3927C14.3132 53.4347 14.3706 53.4557 14.4413 53.4557C14.5121 53.4557 14.5691 53.4347 14.6124 53.3927C14.6562 53.3507 14.6878 53.2872 14.7073 53.202C14.7273 53.1168 14.7373 53.01 14.7373 52.8816C14.7373 52.7556 14.7276 52.6504 14.7082 52.5658C14.6888 52.4806 14.6575 52.4167 14.6142 52.3741C14.571 52.3309 14.5134 52.3093 14.4413 52.3093C14.3693 52.3093 14.3117 52.3309 14.2684 52.3741C14.2252 52.4167 14.1939 52.4806 14.1745 52.5658C14.1557 52.6504 14.1463 52.7556 14.1463 52.8816ZM15.9965 52.8816C15.9965 52.9931 15.988 53.0927 15.9711 53.1804C15.9542 53.2681 15.9275 53.3423 15.8912 53.4031C15.8549 53.4638 15.8079 53.5102 15.7503 53.5421C15.6926 53.5734 15.6234 53.5891 15.5426 53.5891C15.4405 53.5891 15.3559 53.5612 15.2889 53.5055C15.2225 53.4497 15.1727 53.3692 15.1395 53.264C15.1069 53.1581 15.0906 53.0306 15.0906 52.8816C15.0906 52.735 15.1054 52.6091 15.1348 52.5038C15.1649 52.3979 15.2131 52.3168 15.2795 52.2604C15.3459 52.2034 15.4336 52.1749 15.5426 52.1749C15.646 52.1749 15.7312 52.2031 15.7982 52.2595C15.8652 52.3153 15.915 52.3961 15.9476 52.5019C15.9802 52.6072 15.9965 52.7337 15.9965 52.8816ZM15.2476 52.8816C15.2476 53.0093 15.2573 53.1158 15.2767 53.201C15.2961 53.2862 15.3274 53.3501 15.3707 53.3927C15.4145 53.4347 15.4718 53.4557 15.5426 53.4557C15.6134 53.4557 15.6704 53.4347 15.7136 53.3927C15.7575 53.3507 15.7891 53.2872 15.8085 53.202C15.8286 53.1168 15.8386 53.01 15.8386 52.8816C15.8386 52.7556 15.8289 52.6504 15.8095 52.5658C15.79 52.4806 15.7587 52.4167 15.7155 52.3741C15.6723 52.3309 15.6146 52.3093 15.5426 52.3093C15.4706 52.3093 15.4129 52.3309 15.3697 52.3741C15.3265 52.4167 15.2952 52.4806 15.2757 52.5658C15.257 52.6504 15.2476 52.7556 15.2476 52.8816ZM17.2734 53.5703H17.0846L16.5894 52.9022L16.4428 53.0338V53.5703H16.283V52.1965H16.4428V52.8816C16.4785 52.8408 16.5151 52.8004 16.5527 52.7603C16.5903 52.7196 16.6276 52.6786 16.6645 52.6372L17.0658 52.1965H17.2528L16.7059 52.7923L17.2734 53.5703Z" fill="#212121"/>
<path d="M13.4669 60.8984H13.3147V59.925C13.3147 59.888 13.3147 59.8564 13.3147 59.8301C13.3153 59.8031 13.316 59.7787 13.3166 59.7568C13.3178 59.7342 13.3194 59.7113 13.3213 59.6882C13.3019 59.7082 13.2837 59.7254 13.2668 59.7399C13.2499 59.7536 13.2289 59.7709 13.2038 59.7915L13.0469 59.9174L12.9652 59.8113L13.3373 59.5247H13.4669V60.8984ZM14.8952 60.2097C14.8952 60.3212 14.8867 60.4208 14.8698 60.5085C14.8529 60.5962 14.8263 60.6704 14.7899 60.7312C14.7536 60.7919 14.7066 60.8383 14.649 60.8702C14.5914 60.9016 14.5221 60.9172 14.4413 60.9172C14.3392 60.9172 14.2547 60.8894 14.1876 60.8336C14.1212 60.7778 14.0714 60.6974 14.0382 60.5921C14.0057 60.4862 13.9894 60.3588 13.9894 60.2097C13.9894 60.0631 14.0041 59.9372 14.0335 59.8319C14.0636 59.7261 14.1118 59.6449 14.1782 59.5886C14.2446 59.5316 14.3323 59.5031 14.4413 59.5031C14.5447 59.5031 14.6299 59.5312 14.6969 59.5876C14.764 59.6434 14.8138 59.7242 14.8463 59.8301C14.8789 59.9353 14.8952 60.0618 14.8952 60.2097ZM14.1463 60.2097C14.1463 60.3375 14.156 60.444 14.1754 60.5292C14.1948 60.6144 14.2262 60.6782 14.2694 60.7208C14.3132 60.7628 14.3706 60.7838 14.4413 60.7838C14.5121 60.7838 14.5691 60.7628 14.6124 60.7208C14.6562 60.6789 14.6878 60.6153 14.7073 60.5301C14.7273 60.4449 14.7373 60.3381 14.7373 60.2097C14.7373 60.0838 14.7276 59.9785 14.7082 59.894C14.6888 59.8088 14.6575 59.7449 14.6142 59.7023C14.571 59.659 14.5134 59.6374 14.4413 59.6374C14.3693 59.6374 14.3117 59.659 14.2684 59.7023C14.2252 59.7449 14.1939 59.8088 14.1745 59.894C14.1557 59.9785 14.1463 60.0838 14.1463 60.2097ZM15.9965 60.2097C15.9965 60.3212 15.988 60.4208 15.9711 60.5085C15.9542 60.5962 15.9275 60.6704 15.8912 60.7312C15.8549 60.7919 15.8079 60.8383 15.7503 60.8702C15.6926 60.9016 15.6234 60.9172 15.5426 60.9172C15.4405 60.9172 15.3559 60.8894 15.2889 60.8336C15.2225 60.7778 15.1727 60.6974 15.1395 60.5921C15.1069 60.4862 15.0906 60.3588 15.0906 60.2097C15.0906 60.0631 15.1054 59.9372 15.1348 59.8319C15.1649 59.7261 15.2131 59.6449 15.2795 59.5886C15.3459 59.5316 15.4336 59.5031 15.5426 59.5031C15.646 59.5031 15.7312 59.5312 15.7982 59.5876C15.8652 59.6434 15.915 59.7242 15.9476 59.8301C15.9802 59.9353 15.9965 60.0618 15.9965 60.2097ZM15.2476 60.2097C15.2476 60.3375 15.2573 60.444 15.2767 60.5292C15.2961 60.6144 15.3274 60.6782 15.3707 60.7208C15.4145 60.7628 15.4718 60.7838 15.5426 60.7838C15.6134 60.7838 15.6704 60.7628 15.7136 60.7208C15.7575 60.6789 15.7891 60.6153 15.8085 60.5301C15.8286 60.4449 15.8386 60.3381 15.8386 60.2097C15.8386 60.0838 15.8289 59.9785 15.8095 59.894C15.79 59.8088 15.7587 59.7449 15.7155 59.7023C15.6723 59.659 15.6146 59.6374 15.5426 59.6374C15.4706 59.6374 15.4129 59.659 15.3697 59.7023C15.3265 59.7449 15.2952 59.8088 15.2757 59.894C15.257 59.9785 15.2476 60.0838 15.2476 60.2097ZM17.2734 60.8984H17.0846L16.5894 60.2303L16.4428 60.3619V60.8984H16.283V59.5247H16.4428V60.2097C16.4785 60.169 16.5151 60.1286 16.5527 60.0885C16.5903 60.0477 16.6276 60.0067 16.6645 59.9654L17.0658 59.5247H17.2528L16.7059 60.1204L17.2734 60.8984Z" fill="#212121"/>
<path d="M17.1743 67.5417C17.1743 67.6532 17.1659 67.7528 17.1489 67.8405C17.132 67.9282 17.1054 68.0024 17.0691 68.0632C17.0327 68.124 16.9858 68.1703 16.9281 68.2023C16.8705 68.2336 16.8013 68.2493 16.7205 68.2493C16.6183 68.2493 16.5338 68.2214 16.4668 68.1656C16.4004 68.1099 16.3506 68.0294 16.3173 67.9241C16.2848 67.8183 16.2685 67.6908 16.2685 67.5417C16.2685 67.3951 16.2832 67.2692 16.3127 67.164C16.3427 67.0581 16.391 66.977 16.4574 66.9206C16.5238 66.8636 16.6115 66.8351 16.7205 66.8351C16.8238 66.8351 16.909 66.8633 16.976 66.9197C17.0431 66.9754 17.0929 67.0562 17.1254 67.1621C17.158 67.2673 17.1743 67.3939 17.1743 67.5417ZM16.4254 67.5417C16.4254 67.6695 16.4351 67.776 16.4545 67.8612C16.474 67.9464 16.5053 68.0103 16.5485 68.0529C16.5924 68.0948 16.6497 68.1158 16.7205 68.1158C16.7912 68.1158 16.8483 68.0948 16.8915 68.0529C16.9353 68.0109 16.967 67.9473 16.9864 67.8621C17.0064 67.7769 17.0164 67.6701 17.0164 67.5417C17.0164 67.4158 17.0067 67.3106 16.9873 67.226C16.9679 67.1408 16.9366 67.0769 16.8934 67.0343C16.8501 66.9911 16.7925 66.9695 16.7205 66.9695C16.6484 66.9695 16.5908 66.9911 16.5476 67.0343C16.5043 67.0769 16.473 67.1408 16.4536 67.226C16.4348 67.3106 16.4254 67.4158 16.4254 67.5417Z" fill="#212121"/>
<path d="M27.507 71.1562H27.3547V70.1828C27.3547 70.1458 27.3547 70.1142 27.3547 70.0879C27.3554 70.0609 27.356 70.0365 27.3566 70.0146C27.3579 69.992 27.3594 69.9692 27.3613 69.946C27.3419 69.966 27.3237 69.9833 27.3068 69.9977C27.2899 70.0114 27.2689 70.0287 27.2439 70.0493L27.0869 70.1753L27.0052 70.0691L27.3773 69.7825H27.507V71.1562Z" fill="#212121"/>
<path d="M20.8584 70.4675C20.8584 70.579 20.8499 70.6786 20.833 70.7663C20.8161 70.854 20.7895 70.9282 20.7531 70.989C20.7168 71.0498 20.6698 71.0961 20.6122 71.1281C20.5545 71.1594 20.4853 71.175 20.4045 71.175C20.3024 71.175 20.2178 71.1472 20.1508 71.0914C20.0844 71.0357 20.0346 70.9552 20.0014 70.8499C19.9688 70.7441 19.9525 70.6166 19.9525 70.4675C19.9525 70.3209 19.9673 70.195 19.9967 70.0897C20.0268 69.9839 20.075 69.9028 20.1414 69.8464C20.2078 69.7894 20.2955 69.7609 20.4045 69.7609C20.5079 69.7609 20.5931 69.7891 20.6601 69.8454C20.7271 69.9012 20.7769 69.982 20.8095 70.0879C20.8421 70.1931 20.8584 70.3197 20.8584 70.4675ZM20.1095 70.4675C20.1095 70.5953 20.1192 70.7018 20.1386 70.787C20.158 70.8722 20.1893 70.9361 20.2326 70.9787C20.2764 71.0206 20.3337 71.0416 20.4045 71.0416C20.4753 71.0416 20.5323 71.0206 20.5755 70.9787C20.6194 70.9367 20.651 70.8731 20.6704 70.7879C20.6905 70.7027 20.7005 70.5959 20.7005 70.4675C20.7005 70.3416 20.6908 70.2363 20.6714 70.1518C20.652 70.0666 20.6206 70.0027 20.5774 69.9601C20.5342 69.9169 20.4766 69.8952 20.4045 69.8952C20.3325 69.8952 20.2748 69.9169 20.2316 69.9601C20.1884 70.0027 20.1571 70.0666 20.1377 70.1518C20.1189 70.2363 20.1095 70.3416 20.1095 70.4675Z" fill="#212121"/>
<path d="M35.7649 71.1562H34.8647V71.0256L35.2321 70.6526C35.3004 70.5837 35.3577 70.5223 35.4041 70.4684C35.4511 70.4146 35.4868 70.3616 35.5112 70.3096C35.5356 70.257 35.5479 70.1994 35.5479 70.1367C35.5479 70.0591 35.5247 69.9999 35.4783 69.9591C35.4326 69.9178 35.3721 69.8971 35.297 69.8971C35.2312 69.8971 35.1729 69.9084 35.1222 69.9309C35.0715 69.9535 35.0195 69.9854 34.9662 70.0268L34.8826 69.9216C34.9189 69.8909 34.9584 69.8636 35.001 69.8398C35.0442 69.816 35.0902 69.7972 35.1391 69.7834C35.1886 69.7696 35.2412 69.7628 35.297 69.7628C35.3815 69.7628 35.4545 69.7775 35.5159 69.8069C35.5773 69.8364 35.6246 69.8783 35.6578 69.9328C35.6916 69.9873 35.7085 70.0522 35.7085 70.1273C35.7085 70.2 35.6941 70.2677 35.6653 70.3303C35.6365 70.3923 35.5961 70.454 35.5441 70.5154C35.4921 70.5762 35.4313 70.6407 35.3618 70.709L35.063 71.0068V71.0134H35.7649V71.1562Z" fill="#212121"/>
<path d="M43.8929 70.1029C43.8929 70.1643 43.881 70.2175 43.8572 70.2626C43.8334 70.3077 43.8002 70.3447 43.7576 70.3735C43.715 70.4017 43.6649 70.4214 43.6072 70.4327V70.4402C43.7162 70.454 43.798 70.4891 43.8525 70.5455C43.9076 70.6019 43.9352 70.6758 43.9352 70.7672C43.9352 70.8468 43.9164 70.9173 43.8788 70.9787C43.8418 71.04 43.7848 71.0883 43.7078 71.1234C43.6313 71.1578 43.5333 71.175 43.4137 71.175C43.341 71.175 43.2737 71.1691 43.2116 71.1572C43.1502 71.1459 43.0914 71.1268 43.035 71.0999V70.9533C43.092 70.9815 43.154 71.0037 43.221 71.02C43.2881 71.0357 43.3529 71.0435 43.4155 71.0435C43.5408 71.0435 43.6313 71.0187 43.6871 70.9693C43.7429 70.9191 43.7707 70.8509 43.7707 70.7644C43.7707 70.7049 43.7551 70.657 43.7237 70.6207C43.6931 70.5837 43.6486 70.5568 43.5903 70.5398C43.5327 70.5223 43.4632 70.5135 43.3817 70.5135H43.2445V70.3801H43.3827C43.4572 70.3801 43.5205 70.3691 43.5725 70.3472C43.6245 70.3253 43.6639 70.2946 43.6909 70.2551C43.7184 70.215 43.7322 70.1677 43.7322 70.1132C43.7322 70.0437 43.709 69.9901 43.6627 69.9526C43.6163 69.9143 43.5534 69.8952 43.4738 69.8952C43.4249 69.8952 43.3805 69.9003 43.3404 69.9103C43.3003 69.9203 43.2627 69.9341 43.2276 69.9516C43.1925 69.9692 43.1575 69.9895 43.1224 70.0127L43.0434 69.9056C43.0936 69.8667 43.1546 69.8332 43.2267 69.805C43.2987 69.7768 43.3805 69.7628 43.4719 69.7628C43.6122 69.7628 43.7175 69.7947 43.7876 69.8586C43.8578 69.9225 43.8929 70.0039 43.8929 70.1029Z" fill="#212121"/>
<path d="M51.9507 70.8377H51.7449V71.1562H51.5927V70.8377H50.9284V70.7062L51.5824 69.775H51.7449V70.6968H51.9507V70.8377ZM51.5927 70.6968V70.2476C51.5927 70.2132 51.593 70.1821 51.5936 70.1546C51.5943 70.1264 51.5952 70.1004 51.5964 70.0766C51.5977 70.0522 51.5986 70.029 51.5993 70.0071C51.6005 69.9851 51.6015 69.9635 51.6021 69.9422H51.5946C51.5827 69.9673 51.5689 69.9939 51.5532 70.0221C51.5382 70.0497 51.5228 70.0744 51.5072 70.0963L51.0834 70.6968H51.5927Z" fill="#212121"/>
<path d="M59.3535 70.3162C59.4469 70.3162 59.528 70.3322 59.5969 70.3641C59.6658 70.3954 59.7191 70.4412 59.7566 70.5013C59.7949 70.5615 59.814 70.6344 59.814 70.7203C59.814 70.8142 59.7936 70.8953 59.7529 70.9636C59.7122 71.0313 59.6536 71.0836 59.5772 71.1205C59.5007 71.1569 59.4093 71.175 59.3028 71.175C59.2314 71.175 59.165 71.1688 59.1036 71.1562C59.0422 71.1437 58.9905 71.1249 58.9485 71.0999V70.9514C58.9943 70.979 59.0497 71.0009 59.1149 71.0172C59.18 71.0335 59.2433 71.0416 59.3047 71.0416C59.3742 71.0416 59.435 71.0307 59.487 71.0087C59.5396 70.9862 59.5803 70.9523 59.6091 70.9072C59.6386 70.8615 59.6533 70.8042 59.6533 70.7353C59.6533 70.6438 59.6251 70.5734 59.5687 70.5239C59.513 70.4738 59.4246 70.4487 59.3037 70.4487C59.2649 70.4487 59.2223 70.4518 59.1759 70.4581C59.1296 70.4644 59.0914 70.4712 59.0613 70.4788L58.9824 70.4271L59.035 69.7825H59.7181V69.9253H59.1684L59.1337 70.3397C59.1575 70.3347 59.1882 70.3297 59.2257 70.3247C59.2633 70.319 59.3059 70.3162 59.3535 70.3162Z" fill="#212121"/>
<path d="M66.872 70.569C66.872 70.4863 66.8776 70.4055 66.8889 70.3265C66.9008 70.2476 66.9205 70.1743 66.9481 70.1067C66.9757 70.0384 67.0133 69.9786 67.0609 69.9272C67.1085 69.8758 67.1677 69.8357 67.2385 69.8069C67.3099 69.7775 67.3954 69.7628 67.495 69.7628C67.5232 69.7628 67.5535 69.7643 67.5861 69.7675C67.6187 69.77 67.6456 69.7743 67.6669 69.7806V69.915C67.6438 69.9068 67.6171 69.9009 67.5871 69.8971C67.5576 69.8934 67.5279 69.8915 67.4978 69.8915C67.3813 69.8915 67.2895 69.9169 67.2225 69.9676C67.1561 70.0183 67.1082 70.0872 67.0787 70.1743C67.0493 70.2608 67.0324 70.3582 67.028 70.4665H67.0383C67.0577 70.4352 67.0825 70.407 67.1125 70.382C67.1426 70.3563 67.1789 70.3359 67.2215 70.3209C67.2648 70.3059 67.3149 70.2984 67.3719 70.2984C67.4521 70.2984 67.5219 70.3146 67.5814 70.3472C67.6416 70.3798 67.6879 70.4271 67.7205 70.4891C67.7537 70.5511 67.7703 70.6263 67.7703 70.7146C67.7703 70.8092 67.7528 70.891 67.7177 70.9599C67.6826 71.0288 67.6325 71.082 67.5673 71.1196C67.5028 71.1566 67.4258 71.175 67.3362 71.175C67.2691 71.175 67.2074 71.1622 67.1511 71.1365C67.0947 71.1108 67.0455 71.0726 67.0035 71.0219C66.9622 70.9711 66.9299 70.9082 66.9068 70.833C66.8836 70.7572 66.872 70.6692 66.872 70.569ZM67.3343 71.0435C67.4195 71.0435 67.4878 71.0162 67.5391 70.9617C67.5905 70.9072 67.6162 70.8249 67.6162 70.7146C67.6162 70.6244 67.5933 70.553 67.5476 70.5004C67.5019 70.4478 67.433 70.4214 67.3409 70.4214C67.2782 70.4214 67.2237 70.4346 67.1774 70.4609C67.131 70.4866 67.095 70.5192 67.0693 70.5586C67.0436 70.5981 67.0308 70.6382 67.0308 70.6789C67.0308 70.7203 67.0367 70.7622 67.0486 70.8048C67.0612 70.8474 67.08 70.8869 67.105 70.9232C67.1301 70.9596 67.1617 70.9887 67.1999 71.0106C67.2381 71.0325 67.2829 71.0435 67.3343 71.0435Z" fill="#212121"/>
<path d="M74.7328 71.1562L75.2965 69.9253H74.5476V69.7825H75.4638V69.9028L74.9038 71.1562H74.7328Z" fill="#212121"/>
<path d="M19.5584 68.6761C19.5584 68.7425 19.6123 68.7964 19.6787 68.7964C19.7451 68.7964 19.799 68.7425 19.799 68.6761H19.5584ZM19.6787 22.25H19.5584V68.6761H19.6787H19.799V22.25H19.6787Z" fill="#D4D4D4"/>
<path d="M19.6787 68.6758H77.1701" stroke="#D4D4D4" stroke-width="0.24055"/>
<rect x="25.6924" y="43.418" width="1.9244" height="25.2577" rx="0.962199" fill="#8087FF"/>
<rect x="33.6309" y="27.3008" width="1.9244" height="41.3746" rx="0.962199" fill="#8087FF"/>
<rect x="41.5684" y="43.418" width="1.9244" height="25.2577" rx="0.962199" fill="#8087FF"/>
<rect x="49.5068" y="34.2773" width="1.9244" height="34.3986" rx="0.962199" fill="#8087FF"/>
<rect x="57.4453" y="43.418" width="1.9244" height="25.2577" rx="0.962199" fill="#8087FF"/>
<rect x="65.3828" y="58.5703" width="1.9244" height="10.1031" rx="0.962199" fill="#8087FF"/>
<rect x="73.3213" y="40.5312" width="1.9244" height="28.1443" rx="0.962199" fill="#8087FF"/>
<g filter="url(#filter0_d_7976_44125)">
<path d="M35.916 23.2109C36.5136 23.2111 36.9989 23.6954 36.999 24.293V24.7744C36.9988 25.3719 36.5135 25.8562 35.916 25.8564H34.9131L34.4727 26.2959L34.0322 25.8564H33.0293C32.469 25.8563 32.0087 25.4304 31.9531 24.8848L31.9473 24.7744V24.293C31.9474 23.6954 32.4317 23.2111 33.0293 23.2109H35.916Z" fill="white"/>
</g>
<g filter="url(#filter1_d_7976_44125)">
<path d="M28.5693 40.1738C29.115 40.2292 29.5407 40.6898 29.541 41.25V41.7314C29.541 42.3292 29.0567 42.8134 28.459 42.8135H27.3359L26.7754 43.374L26.2139 42.8135H25.0908C24.5304 42.8133 24.07 42.3877 24.0146 41.8418L24.0088 41.7314V41.25C24.0091 40.6525 24.4933 40.1681 25.0908 40.168H28.459L28.5693 40.1738Z" fill="white"/>
</g>
<g filter="url(#filter2_d_7976_44125)">
<path d="M44.4463 40.6543C44.9918 40.71 45.4178 41.1703 45.418 41.7305V42.2119C45.4179 42.8096 44.9326 43.2937 44.335 43.2939H42.9717L42.6514 43.6143L42.3311 43.2939H41.208C40.6476 43.2938 40.1872 42.8681 40.1318 42.3223L40.126 42.2119V41.7305C40.1261 41.1329 40.6104 40.6486 41.208 40.6484H44.335L44.4463 40.6543Z" fill="white"/>
</g>
<g filter="url(#filter3_d_7976_44125)">
<path d="M52.0322 31.1523C52.6299 31.1523 53.115 31.6368 53.1152 32.2344V32.7158C53.1152 33.3136 52.63 33.7979 52.0322 33.7979H51.0293L50.5898 34.2383L50.1494 33.7979H49.1455C48.5852 33.7976 48.1247 33.3719 48.0693 32.8262L48.0635 32.7158V32.2344C48.0638 31.637 48.5481 31.1526 49.1455 31.1523H52.0322Z" fill="white"/>
</g>
<g filter="url(#filter4_d_7976_44125)">
<path d="M59.7305 40.293C60.328 40.2932 60.8133 40.7774 60.8135 41.375V41.8564C60.8132 42.4539 60.3279 42.9383 59.7305 42.9385H58.7275L58.2871 43.3779L57.8467 42.9385H56.8438C56.2835 42.9383 55.8231 42.5124 55.7676 41.9668L55.7617 41.8564V41.375C55.7619 40.7774 56.2461 40.2931 56.8438 40.293H59.7305Z" fill="white"/>
</g>
<g filter="url(#filter5_d_7976_44125)">
<path d="M67.9092 55.4453C68.5067 55.4455 68.992 55.9298 68.9922 56.5273V57.0088C68.9921 57.6064 68.5068 58.0906 67.9092 58.0908H66.9062L66.4658 58.5312L66.0254 58.0908H65.0225C64.4621 58.0907 64.0017 57.6649 63.9463 57.1191L63.9404 57.0088V56.5273C63.9406 55.9297 64.4249 55.4455 65.0225 55.4453H67.9092Z" fill="white"/>
</g>
<g filter="url(#filter6_d_7976_44125)">
<path d="M75.6064 37.4062C76.2041 37.4063 76.6893 37.8906 76.6895 38.4883V38.9697C76.6892 39.5673 76.2041 40.0517 75.6064 40.0518H74.6035L74.1631 40.4912L73.7236 40.0518H72.7197C72.1594 40.0516 71.699 39.6258 71.6436 39.0801L71.6377 38.9697V38.4883C71.6378 37.8907 72.1221 37.4064 72.7197 37.4062H75.6064Z" fill="white"/>
</g>
<path d="M33.1908 25.332H32.2605V25.1657L32.6166 24.8049C32.6855 24.7347 32.7422 24.6743 32.7867 24.6235C32.8312 24.5722 32.8641 24.5236 32.8854 24.4779C32.9073 24.4322 32.9183 24.3824 32.9183 24.3285C32.9183 24.2621 32.8992 24.212 32.8609 24.1781C32.8227 24.1437 32.7723 24.1265 32.7097 24.1265C32.6501 24.1265 32.595 24.1384 32.5443 24.1622C32.4942 24.1853 32.4422 24.2185 32.3883 24.2618L32.2671 24.1161C32.3053 24.0836 32.346 24.0538 32.3892 24.0269C32.4331 23.9999 32.4819 23.9786 32.5358 23.963C32.5897 23.9467 32.6511 23.9385 32.72 23.9385C32.8071 23.9385 32.8822 23.9542 32.9455 23.9855C33.0088 24.0162 33.0573 24.0591 33.0912 24.1142C33.1256 24.1694 33.1428 24.2336 33.1428 24.3069C33.1428 24.3808 33.1281 24.4491 33.0987 24.5117C33.0692 24.5744 33.0273 24.6364 32.9728 24.6978C32.9183 24.7585 32.8534 24.8246 32.7782 24.896L32.5405 25.1281V25.1385H33.1908V25.332ZM34.3522 25.332H33.4219V25.1657L33.778 24.8049C33.8469 24.7347 33.9036 24.6743 33.9481 24.6235C33.9926 24.5722 34.0255 24.5236 34.0468 24.4779C34.0687 24.4322 34.0797 24.3824 34.0797 24.3285C34.0797 24.2621 34.0606 24.212 34.0223 24.1781C33.9841 24.1437 33.9337 24.1265 33.8711 24.1265C33.8115 24.1265 33.7564 24.1384 33.7057 24.1622C33.6556 24.1853 33.6036 24.2185 33.5497 24.2618L33.4285 24.1161C33.4667 24.0836 33.5074 24.0538 33.5506 24.0269C33.5945 23.9999 33.6434 23.9786 33.6972 23.963C33.7511 23.9467 33.8125 23.9385 33.8814 23.9385C33.9685 23.9385 34.0436 23.9542 34.1069 23.9855C34.1702 24.0162 34.2187 24.0591 34.2526 24.1142C34.287 24.1694 34.3042 24.2336 34.3042 24.3069C34.3042 24.3808 34.2895 24.4491 34.2601 24.5117C34.2306 24.5744 34.1887 24.6364 34.1342 24.6978C34.0797 24.7585 34.0148 24.8246 33.9397 24.896L33.7019 25.1281V25.1385H34.3522V25.332ZM35.2326 25.332H35.0109V24.4478C35.0109 24.4184 35.0112 24.3889 35.0118 24.3595C35.0124 24.3301 35.013 24.3012 35.0137 24.273C35.0149 24.2449 35.0165 24.2179 35.0184 24.1922C35.0052 24.2066 34.9889 24.2223 34.9695 24.2392C34.9507 24.2561 34.9307 24.2737 34.9094 24.2918L34.7515 24.4178L34.6406 24.2777L35.0484 23.9583H35.2326V25.332ZM36.675 25.332H35.7447V25.1657L36.1008 24.8049C36.1698 24.7347 36.2264 24.6743 36.2709 24.6235C36.3154 24.5722 36.3483 24.5236 36.3696 24.4779C36.3915 24.4322 36.4025 24.3824 36.4025 24.3285C36.4025 24.2621 36.3834 24.212 36.3452 24.1781C36.3069 24.1437 36.2565 24.1265 36.1939 24.1265C36.1344 24.1265 36.0792 24.1384 36.0285 24.1622C35.9784 24.1853 35.9264 24.2185 35.8725 24.2618L35.7513 24.1161C35.7895 24.0836 35.8302 24.0538 35.8734 24.0269C35.9173 23.9999 35.9662 23.9786 36.02 23.963C36.0739 23.9467 36.1353 23.9385 36.2042 23.9385C36.2913 23.9385 36.3665 23.9542 36.4297 23.9855C36.493 24.0162 36.5415 24.0591 36.5754 24.1142C36.6098 24.1694 36.627 24.2336 36.627 24.3069C36.627 24.3808 36.6123 24.4491 36.5829 24.5117C36.5534 24.5744 36.5115 24.6364 36.457 24.6978C36.4025 24.7585 36.3376 24.8246 36.2625 24.896L36.0247 25.1281V25.1385H36.675V25.332Z" fill="#212121"/>
<path d="M25.2125 42.4102H24.9908V41.5259C24.9908 41.4965 24.9911 41.4671 24.9917 41.4376C24.9923 41.4082 24.993 41.3794 24.9936 41.3512C24.9948 41.323 24.9964 41.296 24.9983 41.2704C24.9851 41.2848 24.9689 41.3004 24.9494 41.3173C24.9306 41.3343 24.9106 41.3518 24.8893 41.37L24.7314 41.4959L24.6206 41.3559L25.0284 41.0364H25.2125V42.4102ZM26.6549 42.4102H25.7246V42.2438L26.0808 41.883C26.1497 41.8129 26.2064 41.7524 26.2508 41.7017C26.2953 41.6503 26.3282 41.6017 26.3495 41.556C26.3714 41.5103 26.3824 41.4605 26.3824 41.4066C26.3824 41.3402 26.3633 41.2901 26.3251 41.2563C26.2869 41.2218 26.2364 41.2046 26.1738 41.2046C26.1143 41.2046 26.0592 41.2165 26.0084 41.2403C25.9583 41.2635 25.9063 41.2967 25.8524 41.3399L25.7312 41.1943C25.7694 41.1617 25.8102 41.1319 25.8534 41.105C25.8972 41.078 25.9461 41.0568 26 41.0411C26.0538 41.0248 26.1152 41.0167 26.1841 41.0167C26.2712 41.0167 26.3464 41.0323 26.4096 41.0636C26.4729 41.0943 26.5215 41.1372 26.5553 41.1924C26.5897 41.2475 26.607 41.3117 26.607 41.385C26.607 41.4589 26.5923 41.5272 26.5628 41.5898C26.5334 41.6525 26.4914 41.7145 26.4369 41.7759C26.3824 41.8367 26.3176 41.9027 26.2424 41.9742L26.0047 42.2063V42.2166H26.6549V42.4102ZM27.8163 41.7223C27.8163 41.8332 27.8075 41.9325 27.79 42.0202C27.7731 42.1073 27.7461 42.1812 27.7092 42.242C27.6722 42.3027 27.624 42.3491 27.5645 42.381C27.505 42.413 27.4329 42.4289 27.3484 42.4289C27.2425 42.4289 27.1551 42.4011 27.0862 42.3453C27.0173 42.2889 26.9662 42.2081 26.933 42.1029C26.8998 41.997 26.8832 41.8702 26.8832 41.7223C26.8832 41.5745 26.8983 41.448 26.9283 41.3427C26.959 41.2368 27.0085 41.1557 27.0768 41.0993C27.1451 41.043 27.2356 41.0148 27.3484 41.0148C27.4548 41.0148 27.5425 41.043 27.6115 41.0993C27.681 41.1551 27.7324 41.2359 27.7656 41.3418C27.7994 41.447 27.8163 41.5739 27.8163 41.7223ZM27.1059 41.7223C27.1059 41.8382 27.1134 41.935 27.1285 42.0127C27.1441 42.0904 27.1698 42.1486 27.2055 42.1875C27.2412 42.2257 27.2888 42.2448 27.3484 42.2448C27.4079 42.2448 27.4555 42.2257 27.4912 42.1875C27.5269 42.1492 27.5526 42.0913 27.5682 42.0136C27.5845 41.9359 27.5927 41.8389 27.5927 41.7223C27.5927 41.6071 27.5848 41.5106 27.5692 41.4329C27.5535 41.3552 27.5278 41.297 27.4921 41.2581C27.4564 41.2187 27.4085 41.199 27.3484 41.199C27.2882 41.199 27.2403 41.2187 27.2046 41.2581C27.1695 41.297 27.1441 41.3552 27.1285 41.4329C27.1134 41.5106 27.1059 41.6071 27.1059 41.7223ZM28.9777 41.7223C28.9777 41.8332 28.9689 41.9325 28.9514 42.0202C28.9345 42.1073 28.9075 42.1812 28.8706 42.242C28.8336 42.3027 28.7854 42.3491 28.7259 42.381C28.6664 42.413 28.5943 42.4289 28.5098 42.4289C28.4039 42.4289 28.3165 42.4011 28.2476 42.3453C28.1787 42.2889 28.1276 42.2081 28.0944 42.1029C28.0612 41.997 28.0446 41.8702 28.0446 41.7223C28.0446 41.5745 28.0597 41.448 28.0897 41.3427C28.1204 41.2368 28.1699 41.1557 28.2382 41.0993C28.3065 41.043 28.397 41.0148 28.5098 41.0148C28.6163 41.0148 28.704 41.043 28.7729 41.0993C28.8424 41.1551 28.8938 41.2359 28.927 41.3418C28.9608 41.447 28.9777 41.5739 28.9777 41.7223ZM28.2673 41.7223C28.2673 41.8382 28.2748 41.935 28.2899 42.0127C28.3055 42.0904 28.3312 42.1486 28.3669 42.1875C28.4026 42.2257 28.4502 42.2448 28.5098 42.2448C28.5693 42.2448 28.6169 42.2257 28.6526 42.1875C28.6883 42.1492 28.714 42.0913 28.7296 42.0136C28.7459 41.9359 28.7541 41.8389 28.7541 41.7223C28.7541 41.6071 28.7462 41.5106 28.7306 41.4329C28.7149 41.3552 28.6892 41.297 28.6535 41.2581C28.6178 41.2187 28.5699 41.199 28.5098 41.199C28.4496 41.199 28.4017 41.2187 28.366 41.2581C28.3309 41.297 28.3055 41.3552 28.2899 41.4329C28.2748 41.5106 28.2673 41.6071 28.2673 41.7223Z" fill="#212121"/>
<path d="M41.0885 42.6523H40.8668V41.7681C40.8668 41.7387 40.8671 41.7093 40.8677 41.6798C40.8683 41.6504 40.8689 41.6216 40.8696 41.5934C40.8708 41.5652 40.8724 41.5382 40.8743 41.5126C40.8611 41.527 40.8448 41.5426 40.8254 41.5595C40.8066 41.5764 40.7866 41.594 40.7653 41.6122L40.6074 41.7381L40.4965 41.5981L40.9043 41.2786H41.0885V42.6523ZM42.5309 41.9645C42.5309 42.0754 42.5221 42.1747 42.5046 42.2624C42.4876 42.3495 42.4607 42.4234 42.4238 42.4841C42.3868 42.5449 42.3386 42.5913 42.279 42.6232C42.2195 42.6552 42.1475 42.6711 42.0629 42.6711C41.9571 42.6711 41.8697 42.6433 41.8008 42.5875C41.7319 42.5311 41.6808 42.4503 41.6476 42.3451C41.6144 42.2392 41.5978 42.1124 41.5978 41.9645C41.5978 41.8167 41.6128 41.6901 41.6429 41.5849C41.6736 41.479 41.7231 41.3979 41.7914 41.3415C41.8596 41.2852 41.9502 41.257 42.0629 41.257C42.1694 41.257 42.2571 41.2852 42.326 41.3415C42.3956 41.3973 42.4469 41.4781 42.4801 41.584C42.514 41.6892 42.5309 41.8161 42.5309 41.9645ZM41.8205 41.9645C41.8205 42.0804 41.828 42.1772 41.843 42.2549C41.8587 42.3326 41.8844 42.3908 41.9201 42.4296C41.9558 42.4679 42.0034 42.487 42.0629 42.487C42.1224 42.487 42.17 42.4679 42.2058 42.4296C42.2415 42.3914 42.2671 42.3335 42.2828 42.2558C42.2991 42.1781 42.3072 42.081 42.3072 41.9645C42.3072 41.8493 42.2994 41.7528 42.2837 41.6751C42.2681 41.5974 42.2424 41.5392 42.2067 41.5003C42.171 41.4609 42.1231 41.4411 42.0629 41.4411C42.0028 41.4411 41.9549 41.4609 41.9192 41.5003C41.8841 41.5392 41.8587 41.5974 41.843 41.6751C41.828 41.7528 41.8205 41.8493 41.8205 41.9645ZM43.6923 42.6523H42.762V42.486L43.1182 42.1252C43.1871 42.055 43.2438 41.9946 43.2882 41.9438C43.3327 41.8925 43.3656 41.8439 43.3869 41.7982C43.4088 41.7525 43.4198 41.7027 43.4198 41.6488C43.4198 41.5824 43.4007 41.5323 43.3625 41.4985C43.3242 41.464 43.2738 41.4468 43.2112 41.4468C43.1517 41.4468 43.0965 41.4587 43.0458 41.4825C42.9957 41.5057 42.9437 41.5389 42.8898 41.5821L42.7686 41.4364C42.8068 41.4039 42.8475 41.3741 42.8908 41.3472C42.9346 41.3202 42.9835 41.2989 43.0373 41.2833C43.0912 41.267 43.1526 41.2588 43.2215 41.2588C43.3086 41.2588 43.3838 41.2745 43.447 41.3058C43.5103 41.3365 43.5588 41.3794 43.5927 41.4346C43.6271 41.4897 43.6444 41.5539 43.6444 41.6272C43.6444 41.7011 43.6296 41.7694 43.6002 41.832C43.5707 41.8947 43.5288 41.9567 43.4743 42.0181C43.4198 42.0788 43.3549 42.1449 43.2798 42.2163L43.042 42.4484V42.4588H43.6923V42.6523ZM43.9253 42.0669C43.9253 41.9861 43.9309 41.9066 43.9422 41.8283C43.9541 41.75 43.9742 41.6767 44.0024 41.6084C44.0305 41.5401 44.0694 41.48 44.1189 41.428C44.169 41.376 44.2319 41.3353 44.3077 41.3058C44.3835 41.2758 44.4747 41.2607 44.5812 41.2607C44.6087 41.2607 44.6398 41.262 44.6742 41.2645C44.7087 41.267 44.7372 41.2711 44.7597 41.2767V41.4599C44.7353 41.453 44.7083 41.4477 44.6789 41.444C44.6501 41.4402 44.6213 41.4383 44.5925 41.4383C44.4772 41.4383 44.3873 41.4602 44.3228 41.5041C44.2583 41.5473 44.2122 41.6068 44.1847 41.6826C44.1571 41.7578 44.1411 41.8439 44.1367 41.941H44.148C44.1668 41.9097 44.1903 41.8818 44.2185 41.8574C44.2467 41.833 44.2811 41.8136 44.3218 41.7991C44.3626 41.7841 44.4099 41.7766 44.4637 41.7766C44.5439 41.7766 44.6138 41.7935 44.6733 41.8273C44.7328 41.8605 44.7785 41.9088 44.8105 41.972C44.843 42.0353 44.8593 42.112 44.8593 42.2023C44.8593 42.2993 44.8408 42.383 44.8039 42.4531C44.7675 42.5233 44.7156 42.5772 44.6479 42.6148C44.5809 42.6523 44.501 42.6711 44.4083 42.6711C44.34 42.6711 44.2764 42.6586 44.2175 42.6336C44.1593 42.6085 44.1082 42.5709 44.0644 42.5208C44.0205 42.4707 43.9864 42.408 43.962 42.3329C43.9375 42.2571 43.9253 42.1684 43.9253 42.0669ZM44.4045 42.4888C44.4759 42.4888 44.5333 42.4657 44.5765 42.4193C44.6203 42.3723 44.6423 42.3006 44.6423 42.2041C44.6423 42.1258 44.6228 42.0638 44.584 42.0181C44.5458 41.9724 44.4882 41.9495 44.4111 41.9495C44.3585 41.9495 44.3124 41.9608 44.273 41.9833C44.2335 42.0059 44.2028 42.0344 44.1809 42.0688C44.1596 42.1033 44.1489 42.1384 44.1489 42.1741C44.1489 42.2104 44.1543 42.247 44.1649 42.284C44.1756 42.321 44.1915 42.3551 44.2128 42.3864C44.2341 42.4171 44.2608 42.4419 44.2927 42.4607C44.3247 42.4794 44.3619 42.4888 44.4045 42.4888Z" fill="#212121"/>
<path d="M49.027 33.2695H48.8052V32.3853C48.8052 32.3559 48.8055 32.3264 48.8062 32.297C48.8068 32.2676 48.8074 32.2387 48.8081 32.2105C48.8093 32.1824 48.8109 32.1554 48.8127 32.1297C48.7996 32.1441 48.7833 32.1598 48.7639 32.1767C48.7451 32.1936 48.725 32.2112 48.7037 32.2293L48.5459 32.3553L48.435 32.2152L48.8428 31.8958H49.027V33.2695ZM49.541 32.6841C49.541 32.6033 49.5466 32.5238 49.5579 32.4455C49.5698 32.3672 49.5898 32.2939 49.618 32.2256C49.6462 32.1573 49.6851 32.0972 49.7345 32.0452C49.7847 31.9932 49.8476 31.9525 49.9234 31.923C49.9992 31.8929 50.0904 31.8779 50.1968 31.8779C50.2244 31.8779 50.2554 31.8792 50.2899 31.8817C50.3243 31.8842 50.3528 31.8882 50.3754 31.8939V32.0771C50.351 32.0702 50.324 32.0649 50.2946 32.0611C50.2658 32.0574 50.2369 32.0555 50.2081 32.0555C50.0929 32.0555 50.003 32.0774 49.9384 32.1213C49.8739 32.1645 49.8279 32.224 49.8003 32.2998C49.7728 32.375 49.7568 32.4611 49.7524 32.5582H49.7637C49.7825 32.5269 49.806 32.499 49.8341 32.4746C49.8623 32.4502 49.8968 32.4307 49.9375 32.4163C49.9782 32.4013 50.0255 32.3938 50.0794 32.3938C50.1596 32.3938 50.2294 32.4107 50.2889 32.4445C50.3484 32.4777 50.3942 32.526 50.4261 32.5892C50.4587 32.6525 50.475 32.7292 50.475 32.8194C50.475 32.9165 50.4565 33.0002 50.4195 33.0703C50.3832 33.1405 50.3312 33.1944 50.2636 33.2319C50.1965 33.2695 50.1167 33.2883 50.024 33.2883C49.9557 33.2883 49.8921 33.2758 49.8332 33.2507C49.7749 33.2257 49.7239 33.1881 49.68 33.138C49.6362 33.0879 49.6021 33.0252 49.5776 32.9501C49.5532 32.8743 49.541 32.7856 49.541 32.6841ZM50.0202 33.106C50.0916 33.106 50.1489 33.0829 50.1922 33.0365C50.236 32.9895 50.2579 32.9178 50.2579 32.8213C50.2579 32.743 50.2385 32.681 50.1997 32.6353C50.1615 32.5895 50.1038 32.5667 50.0268 32.5667C49.9742 32.5667 49.9281 32.578 49.8886 32.6005C49.8492 32.6231 49.8185 32.6516 49.7966 32.686C49.7753 32.7205 49.7646 32.7555 49.7646 32.7913C49.7646 32.8276 49.7699 32.8642 49.7806 32.9012C49.7912 32.9381 49.8072 32.9723 49.8285 33.0036C49.8498 33.0343 49.8764 33.0591 49.9084 33.0778C49.9403 33.0966 49.9776 33.106 50.0202 33.106ZM51.6308 32.5817C51.6308 32.6926 51.622 32.7919 51.6044 32.8796C51.5875 32.9667 51.5606 33.0406 51.5236 33.1013C51.4867 33.1621 51.4384 33.2085 51.3789 33.2404C51.3194 33.2724 51.2474 33.2883 51.1628 33.2883C51.0569 33.2883 50.9696 33.2604 50.9006 33.2047C50.8317 33.1483 50.7807 33.0675 50.7475 32.9623C50.7143 32.8564 50.6977 32.7295 50.6977 32.5817C50.6977 32.4339 50.7127 32.3073 50.7428 32.2021C50.7735 32.0962 50.823 32.0151 50.8912 31.9587C50.9595 31.9023 51.05 31.8742 51.1628 31.8742C51.2693 31.8742 51.357 31.9023 51.4259 31.9587C51.4954 32.0145 51.5468 32.0953 51.58 32.2012C51.6138 32.3064 51.6308 32.4332 51.6308 32.5817ZM50.9204 32.5817C50.9204 32.6976 50.9279 32.7944 50.9429 32.8721C50.9586 32.9497 50.9843 33.008 51.02 33.0468C51.0557 33.085 51.1033 33.1042 51.1628 33.1042C51.2223 33.1042 51.2699 33.085 51.3056 33.0468C51.3413 33.0086 51.367 32.9507 51.3827 32.873C51.399 32.7953 51.4071 32.6982 51.4071 32.5817C51.4071 32.4664 51.3993 32.37 51.3836 32.2923C51.368 32.2146 51.3423 32.1564 51.3066 32.1175C51.2709 32.0781 51.2229 32.0583 51.1628 32.0583C51.1027 32.0583 51.0547 32.0781 51.019 32.1175C50.984 32.1564 50.9586 32.2146 50.9429 32.2923C50.9279 32.37 50.9204 32.4664 50.9204 32.5817ZM52.842 32.9679H52.6559V33.2695H52.4379V32.9679H51.813V32.8006L52.4407 31.892H52.6559V32.7847H52.842V32.9679ZM52.4379 32.7847V32.4436C52.4379 32.4154 52.4382 32.3869 52.4388 32.3581C52.4401 32.3286 52.4414 32.3004 52.4426 32.2735C52.4439 32.2466 52.4451 32.2218 52.4464 32.1993C52.4476 32.1761 52.4486 32.157 52.4492 32.142H52.4417C52.4298 32.167 52.4166 32.1927 52.4022 32.219C52.3878 32.2447 52.3724 32.2697 52.3562 32.2942L52.0179 32.7847H52.4379Z" fill="#212121"/>
<path d="M56.7243 42.4102H56.5025V41.5259C56.5025 41.4965 56.5028 41.4671 56.5034 41.4376C56.5041 41.4082 56.5047 41.3794 56.5053 41.3512C56.5066 41.323 56.5081 41.296 56.51 41.2704C56.4969 41.2848 56.4806 41.3004 56.4612 41.3173C56.4424 41.3343 56.4223 41.3518 56.401 41.37L56.2432 41.4959L56.1323 41.3559L56.5401 41.0364H56.7243V42.4102ZM58.1666 41.7223C58.1666 41.8332 58.1578 41.9325 58.1403 42.0202C58.1234 42.1073 58.0965 42.1812 58.0595 42.242C58.0225 42.3027 57.9743 42.3491 57.9148 42.381C57.8553 42.413 57.7832 42.4289 57.6987 42.4289C57.5928 42.4289 57.5054 42.4011 57.4365 42.3453C57.3676 42.2889 57.3165 42.2081 57.2833 42.1029C57.2501 41.997 57.2335 41.8702 57.2335 41.7223C57.2335 41.5745 57.2486 41.448 57.2786 41.3427C57.3093 41.2368 57.3588 41.1557 57.4271 41.0993C57.4954 41.043 57.5859 41.0148 57.6987 41.0148C57.8052 41.0148 57.8929 41.043 57.9618 41.0993C58.0313 41.1551 58.0827 41.2359 58.1159 41.3418C58.1497 41.447 58.1666 41.5739 58.1666 41.7223ZM57.4562 41.7223C57.4562 41.8382 57.4638 41.935 57.4788 42.0127C57.4945 42.0904 57.5201 42.1486 57.5558 42.1875C57.5915 42.2257 57.6392 42.2448 57.6987 42.2448C57.7582 42.2448 57.8058 42.2257 57.8415 42.1875C57.8772 42.1492 57.9029 42.0913 57.9185 42.0136C57.9348 41.9359 57.943 41.8389 57.943 41.7223C57.943 41.6071 57.9351 41.5106 57.9195 41.4329C57.9038 41.3552 57.8781 41.297 57.8424 41.2581C57.8067 41.2187 57.7588 41.199 57.6987 41.199C57.6385 41.199 57.5906 41.2187 57.5549 41.2581C57.5198 41.297 57.4945 41.3552 57.4788 41.4329C57.4638 41.5106 57.4562 41.6071 57.4562 41.7223ZM59.328 41.7223C59.328 41.8332 59.3192 41.9325 59.3017 42.0202C59.2848 42.1073 59.2579 42.1812 59.2209 42.242C59.1839 42.3027 59.1357 42.3491 59.0762 42.381C59.0167 42.413 58.9446 42.4289 58.8601 42.4289C58.7542 42.4289 58.6668 42.4011 58.5979 42.3453C58.529 42.2889 58.4779 42.2081 58.4447 42.1029C58.4115 41.997 58.3949 41.8702 58.3949 41.7223C58.3949 41.5745 58.41 41.448 58.4401 41.3427C58.4707 41.2368 58.5202 41.1557 58.5885 41.0993C58.6568 41.043 58.7473 41.0148 58.8601 41.0148C58.9666 41.0148 59.0543 41.043 59.1232 41.0993C59.1927 41.1551 59.2441 41.2359 59.2773 41.3418C59.3111 41.447 59.328 41.5739 59.328 41.7223ZM58.6176 41.7223C58.6176 41.8382 58.6252 41.935 58.6402 42.0127C58.6559 42.0904 58.6815 42.1486 58.7172 42.1875C58.753 42.2257 58.8006 42.2448 58.8601 42.2448C58.9196 42.2448 58.9672 42.2257 59.0029 42.1875C59.0386 42.1492 59.0643 42.0913 59.08 42.0136C59.0962 41.9359 59.1044 41.8389 59.1044 41.7223C59.1044 41.6071 59.0966 41.5106 59.0809 41.4329C59.0652 41.3552 59.0395 41.297 59.0038 41.2581C58.9681 41.2187 58.9202 41.199 58.8601 41.199C58.7999 41.199 58.752 41.2187 58.7163 41.2581C58.6812 41.297 58.6559 41.3552 58.6402 41.4329C58.6252 41.5106 58.6176 41.6071 58.6176 41.7223ZM60.4894 41.7223C60.4894 41.8332 60.4807 41.9325 60.4631 42.0202C60.4462 42.1073 60.4193 42.1812 60.3823 42.242C60.3453 42.3027 60.2971 42.3491 60.2376 42.381C60.1781 42.413 60.106 42.4289 60.0215 42.4289C59.9156 42.4289 59.8282 42.4011 59.7593 42.3453C59.6904 42.2889 59.6394 42.2081 59.6062 42.1029C59.573 41.997 59.5564 41.8702 59.5564 41.7223C59.5564 41.5745 59.5714 41.448 59.6015 41.3427C59.6322 41.2368 59.6816 41.1557 59.7499 41.0993C59.8182 41.043 59.9087 41.0148 60.0215 41.0148C60.128 41.0148 60.2157 41.043 60.2846 41.0993C60.3541 41.1551 60.4055 41.2359 60.4387 41.3418C60.4725 41.447 60.4894 41.5739 60.4894 41.7223ZM59.779 41.7223C59.779 41.8382 59.7866 41.935 59.8016 42.0127C59.8173 42.0904 59.8429 42.1486 59.8787 42.1875C59.9144 42.2257 59.962 42.2448 60.0215 42.2448C60.081 42.2448 60.1286 42.2257 60.1643 42.1875C60.2 42.1492 60.2257 42.0913 60.2414 42.0136C60.2576 41.9359 60.2658 41.8389 60.2658 41.7223C60.2658 41.6071 60.258 41.5106 60.2423 41.4329C60.2266 41.3552 60.201 41.297 60.1652 41.2581C60.1295 41.2187 60.0816 41.199 60.0215 41.199C59.9613 41.199 59.9134 41.2187 59.8777 41.2581C59.8426 41.297 59.8173 41.3552 59.8016 41.4329C59.7866 41.5106 59.779 41.6071 59.779 41.7223Z" fill="#212121"/>
<path d="M66.5466 56.778C66.5466 56.8595 66.5406 56.9393 66.5287 57.0177C66.5174 57.096 66.4974 57.1692 66.4686 57.2375C66.4404 57.3058 66.4012 57.3663 66.3511 57.4189C66.3016 57.4709 66.239 57.5116 66.1632 57.541C66.0874 57.5705 65.9959 57.5852 65.8888 57.5852C65.8619 57.5852 65.8306 57.5836 65.7949 57.5805C65.7598 57.578 65.731 57.5742 65.7084 57.5692V57.3851C65.7322 57.3919 65.7588 57.3976 65.7883 57.402C65.8183 57.4057 65.8481 57.4076 65.8775 57.4076C65.9934 57.4076 66.0836 57.386 66.1482 57.3428C66.2133 57.2995 66.2594 57.24 66.2863 57.1642C66.3139 57.0884 66.3295 57.0023 66.3333 56.9058H66.322C66.3038 56.9359 66.281 56.9635 66.2534 56.9885C66.2258 57.013 66.1917 57.0327 66.151 57.0477C66.1103 57.0621 66.0608 57.0693 66.0025 57.0693C65.9236 57.0693 65.8547 57.0527 65.7958 57.0195C65.7375 56.9863 65.6921 56.9381 65.6595 56.8748C65.6276 56.8109 65.6116 56.7342 65.6116 56.6446C65.6116 56.5475 65.6301 56.4639 65.6671 56.3937C65.704 56.3236 65.7563 56.2697 65.824 56.2321C65.8916 56.1939 65.9712 56.1748 66.0627 56.1748C66.1316 56.1748 66.1951 56.1873 66.2534 56.2124C66.3123 56.2368 66.3637 56.2744 66.4075 56.3251C66.4514 56.3752 66.4855 56.4382 66.5099 56.514C66.5344 56.5892 66.5466 56.6772 66.5466 56.778ZM66.0655 56.3571C65.9959 56.3571 65.9392 56.3806 65.8954 56.4276C65.8515 56.4739 65.8296 56.5453 65.8296 56.6418C65.8296 56.7201 65.8484 56.7821 65.886 56.8278C65.9236 56.8736 65.9812 56.8964 66.0589 56.8964C66.1128 56.8964 66.1591 56.8855 66.198 56.8635C66.2374 56.841 66.2678 56.8125 66.2891 56.778C66.311 56.7436 66.322 56.7085 66.322 56.6728C66.322 56.6358 66.3167 56.5989 66.306 56.5619C66.296 56.525 66.2803 56.4911 66.259 56.4604C66.2377 56.4297 66.2108 56.405 66.1782 56.3862C66.1463 56.3668 66.1087 56.3571 66.0655 56.3571ZM67.2428 56.1738C67.3224 56.1738 67.3941 56.1864 67.458 56.2114C67.5219 56.2359 67.5727 56.2725 67.6103 56.3214C67.6478 56.3702 67.6666 56.4307 67.6666 56.5027C67.6666 56.5585 67.655 56.607 67.6319 56.6484C67.6093 56.6897 67.5786 56.726 67.5398 56.7574C67.5009 56.7881 67.4574 56.8153 67.4092 56.8391C67.463 56.8654 67.5125 56.8958 67.5576 56.9303C67.6034 56.9641 67.64 57.0039 67.6676 57.0496C67.6958 57.0953 67.7099 57.1489 67.7099 57.2103C67.7099 57.2873 67.6901 57.354 67.6507 57.4104C67.6118 57.4662 67.5576 57.5094 67.4881 57.5401C67.4186 57.5702 67.3374 57.5852 67.2447 57.5852C67.1451 57.5852 67.0602 57.5705 66.9901 57.541C66.9199 57.5116 66.8667 57.4696 66.8303 57.4151C66.794 57.36 66.7758 57.2942 66.7758 57.2178C66.7758 57.1545 66.7884 57.0997 66.8134 57.0534C66.8385 57.007 66.872 56.9669 66.914 56.9331C66.9566 56.8993 67.0032 56.8708 67.054 56.8476C67.0108 56.8219 66.9713 56.7931 66.9356 56.7611C66.8999 56.7286 66.8714 56.6913 66.8501 56.6493C66.8294 56.6067 66.8191 56.5575 66.8191 56.5018C66.8191 56.4304 66.8382 56.3705 66.8764 56.3223C66.9146 56.2735 66.9657 56.2365 67.0295 56.2114C67.0941 56.1864 67.1652 56.1738 67.2428 56.1738ZM66.9863 57.2093C66.9863 57.2695 67.0076 57.319 67.0502 57.3578C67.0928 57.3966 67.1564 57.4161 67.241 57.4161C67.3249 57.4161 67.3888 57.397 67.4327 57.3587C67.4765 57.3205 67.4984 57.2701 67.4984 57.2075C67.4984 57.1674 67.4872 57.132 67.4646 57.1013C67.4427 57.0706 67.4129 57.0433 67.3753 57.0195C67.3384 56.9951 67.2973 56.9725 67.2522 56.9519L67.2222 56.9397C67.1733 56.9603 67.1313 56.9838 67.0963 57.0101C67.0612 57.0358 67.0339 57.0649 67.0145 57.0975C66.9957 57.1301 66.9863 57.1674 66.9863 57.2093ZM67.241 56.3439C67.1802 56.3439 67.1301 56.359 67.0906 56.389C67.0518 56.4185 67.0324 56.4611 67.0324 56.5168C67.0324 56.5563 67.0418 56.5901 67.0606 56.6183C67.08 56.6465 67.106 56.6709 67.1385 56.6916C67.1711 56.7116 67.2071 56.7304 67.2466 56.748C67.2848 56.7311 67.3193 56.7126 67.35 56.6925C67.3813 56.6719 67.406 56.6474 67.4242 56.6192C67.443 56.5904 67.4524 56.556 67.4524 56.5159C67.4524 56.4608 67.4327 56.4185 67.3932 56.389C67.3544 56.359 67.3036 56.3439 67.241 56.3439Z" fill="#212121"/>
<path d="M72.6002 39.5234H72.3785V38.6392C72.3785 38.6098 72.3788 38.5803 72.3794 38.5509C72.38 38.5215 72.3807 38.4926 72.3813 38.4645C72.3825 38.4363 72.3841 38.4093 72.386 38.3836C72.3728 38.3981 72.3565 38.4137 72.3371 38.4306C72.3183 38.4475 72.2983 38.4651 72.277 38.4832L72.1191 38.6092L72.0083 38.4692L72.4161 38.1497H72.6002V39.5234ZM74.0426 39.5234H73.1123V39.3571L73.4685 38.9963C73.5374 38.9261 73.5941 38.8657 73.6385 38.8149C73.683 38.7636 73.7159 38.715 73.7372 38.6693C73.7591 38.6236 73.7701 38.5738 73.7701 38.5199C73.7701 38.4535 73.751 38.4034 73.7128 38.3696C73.6746 38.3351 73.6241 38.3179 73.5615 38.3179C73.502 38.3179 73.4469 38.3298 73.3961 38.3536C73.346 38.3768 73.294 38.41 73.2401 38.4532L73.1189 38.3075C73.1571 38.275 73.1978 38.2452 73.2411 38.2183C73.2849 38.1913 73.3338 38.17 73.3877 38.1544C73.4415 38.1381 73.5029 38.1299 73.5718 38.1299C73.6589 38.1299 73.7341 38.1456 73.7973 38.1769C73.8606 38.2076 73.9092 38.2505 73.943 38.3057C73.9774 38.3608 73.9947 38.425 73.9947 38.4983C73.9947 38.5722 73.9799 38.6405 73.9505 38.7031C73.9211 38.7658 73.8791 38.8278 73.8246 38.8892C73.7701 38.9499 73.7053 39.016 73.6301 39.0874L73.3924 39.3195V39.3299H74.0426V39.5234ZM75.204 38.8356C75.204 38.9465 75.1952 39.0458 75.1777 39.1335C75.1608 39.2206 75.1338 39.2945 75.0969 39.3552C75.0599 39.416 75.0117 39.4624 74.9522 39.4943C74.8927 39.5263 74.8206 39.5422 74.736 39.5422C74.6302 39.5422 74.5428 39.5144 74.4739 39.4586C74.405 39.4022 74.3539 39.3214 74.3207 39.2162C74.2875 39.1103 74.2709 38.9835 74.2709 38.8356C74.2709 38.6878 74.286 38.5612 74.316 38.456C74.3467 38.3501 74.3962 38.269 74.4645 38.2126C74.5328 38.1562 74.6233 38.1281 74.736 38.1281C74.8425 38.1281 74.9302 38.1562 74.9992 38.2126C75.0687 38.2684 75.1201 38.3492 75.1533 38.4551C75.1871 38.5603 75.204 38.6872 75.204 38.8356ZM74.4936 38.8356C74.4936 38.9515 74.5011 39.0483 74.5162 39.126C74.5318 39.2036 74.5575 39.2619 74.5932 39.3007C74.6289 39.339 74.6765 39.3581 74.736 39.3581C74.7956 39.3581 74.8432 39.339 74.8789 39.3007C74.9146 39.2625 74.9403 39.2046 74.9559 39.1269C74.9722 39.0492 74.9804 38.9521 74.9804 38.8356C74.9804 38.7204 74.9725 38.6239 74.9569 38.5462C74.9412 38.4685 74.9155 38.4103 74.8798 38.3714C74.8441 38.332 74.7962 38.3122 74.736 38.3122C74.6759 38.3122 74.628 38.332 74.5923 38.3714C74.5572 38.4103 74.5318 38.4685 74.5162 38.5462C74.5011 38.6239 74.4936 38.7204 74.4936 38.8356ZM75.9022 38.6646C75.9905 38.6646 76.0682 38.6806 76.1352 38.7125C76.2028 38.7438 76.2555 38.7902 76.293 38.8516C76.3306 38.9124 76.3494 38.9869 76.3494 39.0752C76.3494 39.1717 76.3291 39.255 76.2883 39.3252C76.2476 39.3947 76.1878 39.4483 76.1089 39.4859C76.0299 39.5234 75.9338 39.5422 75.8204 39.5422C75.7484 39.5422 75.681 39.536 75.6184 39.5234C75.5564 39.5109 75.5028 39.4921 75.4577 39.4671V39.2679C75.5047 39.2942 75.5611 39.3158 75.6268 39.3327C75.6926 39.349 75.7556 39.3571 75.8157 39.3571C75.8796 39.3571 75.9344 39.3477 75.9801 39.3289C76.0259 39.3101 76.061 39.2813 76.0854 39.2425C76.1104 39.2036 76.123 39.1545 76.123 39.095C76.123 39.016 76.0976 38.9553 76.0469 38.9127C75.9967 38.8694 75.9181 38.8478 75.811 38.8478C75.7734 38.8478 75.7333 38.8513 75.6907 38.8582C75.6488 38.8644 75.6137 38.8713 75.5855 38.8788L75.4887 38.8215L75.5404 38.1497H76.2545V38.3442H75.7349L75.7048 38.6862C75.7274 38.6812 75.7543 38.6765 75.7856 38.6721C75.817 38.6671 75.8558 38.6646 75.9022 38.6646Z" fill="#212121"/>
<defs>
<filter id="filter0_d_7976_44125" x="30.0229" y="21.5271" width="8.90056" height="6.93473" filterUnits="userSpaceOnUse" color-interpolation-filters="sRGB">
<feFlood flood-opacity="0" result="BackgroundImageFix"/>
<feColorMatrix in="SourceAlpha" type="matrix" values="0 0 0 0 0 0 0 0 0 0 0 0 0 0 0 0 0 0 127 0" result="hardAlpha"/>
<feOffset dy="0.24055"/>
<feGaussianBlur stdDeviation="0.962199"/>
<feColorMatrix type="matrix" values="0 0 0 0 0.293333 0 0 0 0 0.333211 0 0 0 0 0.431373 0 0 0 0.2 0"/>
<feBlend mode="normal" in2="BackgroundImageFix" result="effect1_dropShadow_7976_44125"/>
<feBlend mode="normal" in="SourceGraphic" in2="effect1_dropShadow_7976_44125" result="shape"/>
</filter>
<filter id="filter1_d_7976_44125" x="22.0844" y="38.4841" width="9.38102" height="7.05583" filterUnits="userSpaceOnUse" color-interpolation-filters="sRGB">
<feFlood flood-opacity="0" result="BackgroundImageFix"/>
<feColorMatrix in="SourceAlpha" type="matrix" values="0 0 0 0 0 0 0 0 0 0 0 0 0 0 0 0 0 0 127 0" result="hardAlpha"/>
<feOffset dy="0.24055"/>
<feGaussianBlur stdDeviation="0.962199"/>
<feColorMatrix type="matrix" values="0 0 0 0 0.293333 0 0 0 0 0.333211 0 0 0 0 0.431373 0 0 0 0.2 0"/>
<feBlend mode="normal" in2="BackgroundImageFix" result="effect1_dropShadow_7976_44125"/>
<feBlend mode="normal" in="SourceGraphic" in2="effect1_dropShadow_7976_44125" result="shape"/>
</filter>
<filter id="filter2_d_7976_44125" x="38.2016" y="38.9646" width="9.14079" height="6.81364" filterUnits="userSpaceOnUse" color-interpolation-filters="sRGB">
<feFlood flood-opacity="0" result="BackgroundImageFix"/>
<feColorMatrix in="SourceAlpha" type="matrix" values="0 0 0 0 0 0 0 0 0 0 0 0 0 0 0 0 0 0 127 0" result="hardAlpha"/>
<feOffset dy="0.24055"/>
<feGaussianBlur stdDeviation="0.962199"/>
<feColorMatrix type="matrix" values="0 0 0 0 0.293333 0 0 0 0 0.333211 0 0 0 0 0.431373 0 0 0 0.2 0"/>
<feBlend mode="normal" in2="BackgroundImageFix" result="effect1_dropShadow_7976_44125"/>
<feBlend mode="normal" in="SourceGraphic" in2="effect1_dropShadow_7976_44125" result="shape"/>
</filter>
<filter id="filter3_d_7976_44125" x="46.1391" y="29.4685" width="8.90056" height="6.93473" filterUnits="userSpaceOnUse" color-interpolation-filters="sRGB">
<feFlood flood-opacity="0" result="BackgroundImageFix"/>
<feColorMatrix in="SourceAlpha" type="matrix" values="0 0 0 0 0 0 0 0 0 0 0 0 0 0 0 0 0 0 127 0" result="hardAlpha"/>
<feOffset dy="0.24055"/>
<feGaussianBlur stdDeviation="0.962199"/>
<feColorMatrix type="matrix" values="0 0 0 0 0.293333 0 0 0 0 0.333211 0 0 0 0 0.431373 0 0 0 0.2 0"/>
<feBlend mode="normal" in2="BackgroundImageFix" result="effect1_dropShadow_7976_44125"/>
<feBlend mode="normal" in="SourceGraphic" in2="effect1_dropShadow_7976_44125" result="shape"/>
</filter>
<filter id="filter4_d_7976_44125" x="53.8373" y="38.6091" width="8.90056" height="6.93473" filterUnits="userSpaceOnUse" color-interpolation-filters="sRGB">
<feFlood flood-opacity="0" result="BackgroundImageFix"/>
<feColorMatrix in="SourceAlpha" type="matrix" values="0 0 0 0 0 0 0 0 0 0 0 0 0 0 0 0 0 0 127 0" result="hardAlpha"/>
<feOffset dy="0.24055"/>
<feGaussianBlur stdDeviation="0.962199"/>
<feColorMatrix type="matrix" values="0 0 0 0 0.293333 0 0 0 0 0.333211 0 0 0 0 0.431373 0 0 0 0.2 0"/>
<feBlend mode="normal" in2="BackgroundImageFix" result="effect1_dropShadow_7976_44125"/>
<feBlend mode="normal" in="SourceGraphic" in2="effect1_dropShadow_7976_44125" result="shape"/>
</filter>
<filter id="filter5_d_7976_44125" x="62.016" y="53.7615" width="8.90056" height="6.93473" filterUnits="userSpaceOnUse" color-interpolation-filters="sRGB">
<feFlood flood-opacity="0" result="BackgroundImageFix"/>
<feColorMatrix in="SourceAlpha" type="matrix" values="0 0 0 0 0 0 0 0 0 0 0 0 0 0 0 0 0 0 127 0" result="hardAlpha"/>
<feOffset dy="0.24055"/>
<feGaussianBlur stdDeviation="0.962199"/>
<feColorMatrix type="matrix" values="0 0 0 0 0.293333 0 0 0 0 0.333211 0 0 0 0 0.431373 0 0 0 0.2 0"/>
<feBlend mode="normal" in2="BackgroundImageFix" result="effect1_dropShadow_7976_44125"/>
<feBlend mode="normal" in="SourceGraphic" in2="effect1_dropShadow_7976_44125" result="shape"/>
</filter>
<filter id="filter6_d_7976_44125" x="69.7133" y="35.7224" width="8.90056" height="6.93473" filterUnits="userSpaceOnUse" color-interpolation-filters="sRGB">
<feFlood flood-opacity="0" result="BackgroundImageFix"/>
<feColorMatrix in="SourceAlpha" type="matrix" values="0 0 0 0 0 0 0 0 0 0 0 0 0 0 0 0 0 0 127 0" result="hardAlpha"/>
<feOffset dy="0.24055"/>
<feGaussianBlur stdDeviation="0.962199"/>
<feColorMatrix type="matrix" values="0 0 0 0 0.293333 0 0 0 0 0.333211 0 0 0 0 0.431373 0 0 0 0.2 0"/>
<feBlend mode="normal" in2="BackgroundImageFix" result="effect1_dropShadow_7976_44125"/>
<feBlend mode="normal" in="SourceGraphic" in2="effect1_dropShadow_7976_44125" result="shape"/>
</filter>
</defs>
</svg>
