<svg width="93" height="92" viewBox="0 0 93 92" fill="none" xmlns="http://www.w3.org/2000/svg">
<rect x="1.13104" y="0.389831" width="91.079" height="91.2203" rx="17.5424" stroke="#BEBEBE" stroke-width="0.779661"/>
<rect width="70" height="56.0481" transform="translate(11.999 18)" fill="white"/>
<path d="M20.1777 23.7734V70.1996" stroke="#E0E0E0" stroke-width="0.24055"/>
<path d="M14.3625 25.7734H13.4623V25.6428L13.8297 25.2698C13.898 25.2009 13.9553 25.1395 14.0017 25.0856C14.0486 25.0317 14.0843 24.9788 14.1088 24.9268C14.1332 24.8742 14.1454 24.8166 14.1454 24.7539C14.1454 24.6762 14.1222 24.617 14.0759 24.5763C14.0302 24.535 13.9697 24.5143 13.8945 24.5143C13.8288 24.5143 13.7705 24.5256 13.7198 24.5481C13.669 24.5707 13.617 24.6026 13.5638 24.644L13.4801 24.5387C13.5165 24.508 13.5559 24.4808 13.5985 24.457C13.6418 24.4332 13.6878 24.4144 13.7367 24.4006C13.7862 24.3868 13.8388 24.3799 13.8945 24.3799C13.9791 24.3799 14.0521 24.3947 14.1135 24.4241C14.1749 24.4535 14.2222 24.4955 14.2554 24.55C14.2892 24.6045 14.3061 24.6694 14.3061 24.7445C14.3061 24.8172 14.2917 24.8848 14.2629 24.9475C14.2341 25.0095 14.1937 25.0712 14.1417 25.1326C14.0897 25.1934 14.0289 25.2579 13.9594 25.3262L13.6606 25.624V25.6306H14.3625V25.7734ZM14.9977 24.9334C15.091 24.9334 15.1721 24.9494 15.241 24.9813C15.31 25.0126 15.3632 25.0584 15.4008 25.1185C15.439 25.1786 15.4581 25.2516 15.4581 25.3374C15.4581 25.4314 15.4377 25.5125 15.397 25.5808C15.3563 25.6485 15.2977 25.7008 15.2213 25.7377C15.1449 25.7741 15.0534 25.7922 14.9469 25.7922C14.8755 25.7922 14.8091 25.786 14.7477 25.7734C14.6863 25.7609 14.6347 25.7421 14.5927 25.7171V25.5686C14.6384 25.5962 14.6939 25.6181 14.759 25.6344C14.8242 25.6507 14.8874 25.6588 14.9488 25.6588C15.0184 25.6588 15.0791 25.6478 15.1311 25.6259C15.1837 25.6034 15.2244 25.5695 15.2533 25.5244C15.2827 25.4787 15.2974 25.4214 15.2974 25.3525C15.2974 25.261 15.2692 25.1905 15.2129 25.1411C15.1571 25.0909 15.0688 25.0659 14.9479 25.0659C14.909 25.0659 14.8664 25.069 14.8201 25.0753C14.7737 25.0815 14.7355 25.0884 14.7055 25.096L14.6265 25.0443L14.6791 24.3997H15.3623V24.5425H14.8126L14.7778 24.9569C14.8016 24.9519 14.8323 24.9469 14.8699 24.9418C14.9075 24.9362 14.9501 24.9334 14.9977 24.9334ZM16.5725 25.0847C16.5725 25.1962 16.5641 25.2958 16.5472 25.3835C16.5302 25.4712 16.5036 25.5454 16.4673 25.6062C16.431 25.6669 16.384 25.7133 16.3263 25.7452C16.2687 25.7766 16.1995 25.7922 16.1187 25.7922C16.0166 25.7922 15.932 25.7644 15.865 25.7086C15.7986 25.6528 15.7488 25.5724 15.7156 25.4671C15.683 25.3612 15.6667 25.2338 15.6667 25.0847C15.6667 24.9381 15.6814 24.8122 15.7109 24.7069C15.7409 24.6011 15.7892 24.5199 15.8556 24.4636C15.922 24.4066 16.0097 24.3781 16.1187 24.3781C16.222 24.3781 16.3072 24.4062 16.3743 24.4626C16.4413 24.5184 16.4911 24.5992 16.5237 24.7051C16.5562 24.8103 16.5725 24.9368 16.5725 25.0847ZM15.8236 25.0847C15.8236 25.2125 15.8333 25.319 15.8528 25.4042C15.8722 25.4894 15.9035 25.5532 15.9467 25.5958C15.9906 25.6378 16.0479 25.6588 16.1187 25.6588C16.1895 25.6588 16.2465 25.6378 16.2897 25.5958C16.3335 25.5539 16.3652 25.4903 16.3846 25.4051C16.4046 25.3199 16.4147 25.2131 16.4147 25.0847C16.4147 24.9588 16.405 24.8535 16.3855 24.769C16.3661 24.6838 16.3348 24.6199 16.2916 24.5773C16.2484 24.534 16.1907 24.5124 16.1187 24.5124C16.0466 24.5124 15.989 24.534 15.9458 24.5773C15.9026 24.6199 15.8712 24.6838 15.8518 24.769C15.833 24.8535 15.8236 24.9588 15.8236 25.0847ZM17.6738 25.0847C17.6738 25.1962 17.6653 25.2958 17.6484 25.3835C17.6315 25.4712 17.6049 25.5454 17.5686 25.6062C17.5322 25.6669 17.4852 25.7133 17.4276 25.7452C17.37 25.7766 17.3008 25.7922 17.2199 25.7922C17.1178 25.7922 17.0333 25.7644 16.9662 25.7086C16.8998 25.6528 16.85 25.5724 16.8168 25.4671C16.7843 25.3612 16.768 25.2338 16.768 25.0847C16.768 24.9381 16.7827 24.8122 16.8121 24.7069C16.8422 24.6011 16.8904 24.5199 16.9568 24.4636C17.0232 24.4066 17.1109 24.3781 17.2199 24.3781C17.3233 24.3781 17.4085 24.4062 17.4755 24.4626C17.5426 24.5184 17.5924 24.5992 17.6249 24.7051C17.6575 24.8103 17.6738 24.9368 17.6738 25.0847ZM16.9249 25.0847C16.9249 25.2125 16.9346 25.319 16.954 25.4042C16.9734 25.4894 17.0048 25.5532 17.048 25.5958C17.0918 25.6378 17.1492 25.6588 17.2199 25.6588C17.2907 25.6588 17.3477 25.6378 17.391 25.5958C17.4348 25.5539 17.4664 25.4903 17.4859 25.4051C17.5059 25.3199 17.5159 25.2131 17.5159 25.0847C17.5159 24.9588 17.5062 24.8535 17.4868 24.769C17.4674 24.6838 17.4361 24.6199 17.3928 24.5773C17.3496 24.534 17.292 24.5124 17.2199 24.5124C17.1479 24.5124 17.0903 24.534 17.0471 24.5773C17.0038 24.6199 16.9725 24.6838 16.9531 24.769C16.9343 24.8535 16.9249 24.9588 16.9249 25.0847Z" fill="#212121"/>
<path d="M14.3625 33.1016H13.4623V32.971L13.8297 32.5979C13.898 32.529 13.9553 32.4676 14.0017 32.4137C14.0486 32.3599 14.0843 32.3069 14.1088 32.2549C14.1332 32.2023 14.1454 32.1447 14.1454 32.082C14.1454 32.0044 14.1222 31.9452 14.0759 31.9045C14.0302 31.8631 13.9697 31.8424 13.8945 31.8424C13.8288 31.8424 13.7705 31.8537 13.7198 31.8763C13.669 31.8988 13.617 31.9308 13.5638 31.9721L13.4801 31.8669C13.5165 31.8362 13.5559 31.8089 13.5985 31.7851C13.6418 31.7613 13.6878 31.7425 13.7367 31.7287C13.7862 31.715 13.8388 31.7081 13.8945 31.7081C13.9791 31.7081 14.0521 31.7228 14.1135 31.7522C14.1749 31.7817 14.2222 31.8236 14.2554 31.8781C14.2892 31.9326 14.3061 31.9975 14.3061 32.0726C14.3061 32.1453 14.2917 32.213 14.2629 32.2756C14.2341 32.3376 14.1937 32.3993 14.1417 32.4607C14.0897 32.5215 14.0289 32.586 13.9594 32.6543L13.6606 32.9522V32.9587H14.3625V33.1016ZM15.4713 32.4128C15.4713 32.5243 15.4628 32.6239 15.4459 32.7116C15.429 32.7993 15.4024 32.8735 15.366 32.9343C15.3297 32.9951 15.2827 33.0414 15.2251 33.0734C15.1674 33.1047 15.0982 33.1204 15.0174 33.1204C14.9153 33.1204 14.8307 33.0925 14.7637 33.0367C14.6973 32.981 14.6475 32.9005 14.6143 32.7952C14.5817 32.6894 14.5654 32.5619 14.5654 32.4128C14.5654 32.2662 14.5802 32.1403 14.6096 32.0351C14.6397 31.9292 14.6879 31.8481 14.7543 31.7917C14.8207 31.7347 14.9084 31.7062 15.0174 31.7062C15.1208 31.7062 15.206 31.7344 15.273 31.7908C15.34 31.8465 15.3898 31.9273 15.4224 32.0332C15.455 32.1384 15.4713 32.265 15.4713 32.4128ZM14.7224 32.4128C14.7224 32.5406 14.7321 32.6471 14.7515 32.7323C14.7709 32.8175 14.8022 32.8814 14.8455 32.924C14.8893 32.9659 14.9466 32.9869 15.0174 32.9869C15.0882 32.9869 15.1452 32.9659 15.1884 32.924C15.2323 32.882 15.2639 32.8184 15.2833 32.7332C15.3034 32.648 15.3134 32.5412 15.3134 32.4128C15.3134 32.2869 15.3037 32.1816 15.2843 32.0971C15.2649 32.0119 15.2335 31.948 15.1903 31.9054C15.1471 31.8622 15.0895 31.8406 15.0174 31.8406C14.9454 31.8406 14.8877 31.8622 14.8445 31.9054C14.8013 31.948 14.77 32.0119 14.7506 32.0971C14.7318 32.1816 14.7224 32.2869 14.7224 32.4128ZM16.5725 32.4128C16.5725 32.5243 16.5641 32.6239 16.5472 32.7116C16.5302 32.7993 16.5036 32.8735 16.4673 32.9343C16.431 32.9951 16.384 33.0414 16.3263 33.0734C16.2687 33.1047 16.1995 33.1204 16.1187 33.1204C16.0166 33.1204 15.932 33.0925 15.865 33.0367C15.7986 32.981 15.7488 32.9005 15.7156 32.7952C15.683 32.6894 15.6667 32.5619 15.6667 32.4128C15.6667 32.2662 15.6814 32.1403 15.7109 32.0351C15.7409 31.9292 15.7892 31.8481 15.8556 31.7917C15.922 31.7347 16.0097 31.7062 16.1187 31.7062C16.222 31.7062 16.3072 31.7344 16.3743 31.7908C16.4413 31.8465 16.4911 31.9273 16.5237 32.0332C16.5562 32.1384 16.5725 32.265 16.5725 32.4128ZM15.8236 32.4128C15.8236 32.5406 15.8333 32.6471 15.8528 32.7323C15.8722 32.8175 15.9035 32.8814 15.9467 32.924C15.9906 32.9659 16.0479 32.9869 16.1187 32.9869C16.1895 32.9869 16.2465 32.9659 16.2897 32.924C16.3335 32.882 16.3652 32.8184 16.3846 32.7332C16.4046 32.648 16.4147 32.5412 16.4147 32.4128C16.4147 32.2869 16.405 32.1816 16.3855 32.0971C16.3661 32.0119 16.3348 31.948 16.2916 31.9054C16.2484 31.8622 16.1907 31.8406 16.1187 31.8406C16.0466 31.8406 15.989 31.8622 15.9458 31.9054C15.9026 31.948 15.8712 32.0119 15.8518 32.0971C15.833 32.1816 15.8236 32.2869 15.8236 32.4128ZM17.6738 32.4128C17.6738 32.5243 17.6653 32.6239 17.6484 32.7116C17.6315 32.7993 17.6049 32.8735 17.5686 32.9343C17.5322 32.9951 17.4852 33.0414 17.4276 33.0734C17.37 33.1047 17.3008 33.1204 17.2199 33.1204C17.1178 33.1204 17.0333 33.0925 16.9662 33.0367C16.8998 32.981 16.85 32.9005 16.8168 32.7952C16.7843 32.6894 16.768 32.5619 16.768 32.4128C16.768 32.2662 16.7827 32.1403 16.8121 32.0351C16.8422 31.9292 16.8904 31.8481 16.9568 31.7917C17.0232 31.7347 17.1109 31.7062 17.2199 31.7062C17.3233 31.7062 17.4085 31.7344 17.4755 31.7908C17.5426 31.8465 17.5924 31.9273 17.6249 32.0332C17.6575 32.1384 17.6738 32.265 17.6738 32.4128ZM16.9249 32.4128C16.9249 32.5406 16.9346 32.6471 16.954 32.7323C16.9734 32.8175 17.0048 32.8814 17.048 32.924C17.0918 32.9659 17.1492 32.9869 17.2199 32.9869C17.2907 32.9869 17.3477 32.9659 17.391 32.924C17.4348 32.882 17.4664 32.8184 17.4859 32.7332C17.5059 32.648 17.5159 32.5412 17.5159 32.4128C17.5159 32.2869 17.5062 32.1816 17.4868 32.0971C17.4674 32.0119 17.4361 31.948 17.3928 31.9054C17.3496 31.8622 17.292 31.8406 17.2199 31.8406C17.1479 31.8406 17.0903 31.8622 17.0471 31.9054C17.0038 31.948 16.9725 32.0119 16.9531 32.0971C16.9343 32.1816 16.9249 32.2869 16.9249 32.4128Z" fill="#212121"/>
<path d="M14.043 40.4336H13.8908V39.4601C13.8908 39.4232 13.8908 39.3915 13.8908 39.3652C13.8914 39.3383 13.892 39.3138 13.8927 39.2919C13.8939 39.2694 13.8955 39.2465 13.8974 39.2233C13.8779 39.2434 13.8598 39.2606 13.8429 39.275C13.8259 39.2888 13.805 39.306 13.7799 39.3267L13.623 39.4526L13.5412 39.3464L13.9133 39.0598H14.043V40.4336ZM14.9977 39.5935C15.091 39.5935 15.1721 39.6095 15.241 39.6415C15.31 39.6728 15.3632 39.7185 15.4008 39.7787C15.439 39.8388 15.4581 39.9118 15.4581 39.9976C15.4581 40.0916 15.4377 40.1727 15.397 40.241C15.3563 40.3086 15.2977 40.3609 15.2213 40.3979C15.1449 40.4342 15.0534 40.4524 14.9469 40.4524C14.8755 40.4524 14.8091 40.4461 14.7477 40.4336C14.6863 40.4211 14.6347 40.4023 14.5927 40.3772V40.2288C14.6384 40.2563 14.6939 40.2782 14.759 40.2945C14.8242 40.3108 14.8874 40.319 14.9488 40.319C15.0184 40.319 15.0791 40.308 15.1311 40.2861C15.1837 40.2635 15.2244 40.2297 15.2533 40.1846C15.2827 40.1389 15.2974 40.0815 15.2974 40.0126C15.2974 39.9212 15.2692 39.8507 15.2129 39.8012C15.1571 39.7511 15.0688 39.726 14.9479 39.726C14.909 39.726 14.8664 39.7292 14.8201 39.7354C14.7737 39.7417 14.7355 39.7486 14.7055 39.7561L14.6265 39.7044L14.6791 39.0598H15.3623V39.2027H14.8126L14.7778 39.617C14.8016 39.612 14.8323 39.607 14.8699 39.602C14.9075 39.5964 14.9501 39.5935 14.9977 39.5935ZM16.5725 39.7448C16.5725 39.8563 16.5641 39.9559 16.5472 40.0436C16.5302 40.1313 16.5036 40.2056 16.4673 40.2663C16.431 40.3271 16.384 40.3735 16.3263 40.4054C16.2687 40.4367 16.1995 40.4524 16.1187 40.4524C16.0166 40.4524 15.932 40.4245 15.865 40.3688C15.7986 40.313 15.7488 40.2325 15.7156 40.1273C15.683 40.0214 15.6667 39.8939 15.6667 39.7448C15.6667 39.5982 15.6814 39.4723 15.7109 39.3671C15.7409 39.2612 15.7892 39.1801 15.8556 39.1237C15.922 39.0667 16.0097 39.0382 16.1187 39.0382C16.222 39.0382 16.3072 39.0664 16.3743 39.1228C16.4413 39.1785 16.4911 39.2593 16.5237 39.3652C16.5562 39.4705 16.5725 39.597 16.5725 39.7448ZM15.8236 39.7448C15.8236 39.8726 15.8333 39.9791 15.8528 40.0643C15.8722 40.1495 15.9035 40.2134 15.9467 40.256C15.9906 40.298 16.0479 40.319 16.1187 40.319C16.1895 40.319 16.2465 40.298 16.2897 40.256C16.3335 40.214 16.3652 40.1504 16.3846 40.0653C16.4046 39.9801 16.4147 39.8733 16.4147 39.7448C16.4147 39.6189 16.405 39.5137 16.3855 39.4291C16.3661 39.3439 16.3348 39.28 16.2916 39.2374C16.2484 39.1942 16.1907 39.1726 16.1187 39.1726C16.0466 39.1726 15.989 39.1942 15.9458 39.2374C15.9026 39.28 15.8712 39.3439 15.8518 39.4291C15.833 39.5137 15.8236 39.6189 15.8236 39.7448ZM17.6738 39.7448C17.6738 39.8563 17.6653 39.9559 17.6484 40.0436C17.6315 40.1313 17.6049 40.2056 17.5686 40.2663C17.5322 40.3271 17.4852 40.3735 17.4276 40.4054C17.37 40.4367 17.3008 40.4524 17.2199 40.4524C17.1178 40.4524 17.0333 40.4245 16.9662 40.3688C16.8998 40.313 16.85 40.2325 16.8168 40.1273C16.7843 40.0214 16.768 39.8939 16.768 39.7448C16.768 39.5982 16.7827 39.4723 16.8121 39.3671C16.8422 39.2612 16.8904 39.1801 16.9568 39.1237C17.0232 39.0667 17.1109 39.0382 17.2199 39.0382C17.3233 39.0382 17.4085 39.0664 17.4755 39.1228C17.5426 39.1785 17.5924 39.2593 17.6249 39.3652C17.6575 39.4705 17.6738 39.597 17.6738 39.7448ZM16.9249 39.7448C16.9249 39.8726 16.9346 39.9791 16.954 40.0643C16.9734 40.1495 17.0048 40.2134 17.048 40.256C17.0918 40.298 17.1492 40.319 17.2199 40.319C17.2907 40.319 17.3477 40.298 17.391 40.256C17.4348 40.214 17.4664 40.1504 17.4859 40.0653C17.5059 39.9801 17.5159 39.8733 17.5159 39.7448C17.5159 39.6189 17.5062 39.5137 17.4868 39.4291C17.4674 39.3439 17.4361 39.28 17.3928 39.2374C17.3496 39.1942 17.292 39.1726 17.2199 39.1726C17.1479 39.1726 17.0903 39.1942 17.0471 39.2374C17.0038 39.28 16.9725 39.3439 16.9531 39.4291C16.9343 39.5137 16.9249 39.6189 16.9249 39.7448Z" fill="#212121"/>
<path d="M14.043 47.7617H13.8908V46.7882C13.8908 46.7513 13.8908 46.7196 13.8908 46.6933C13.8914 46.6664 13.892 46.642 13.8927 46.62C13.8939 46.5975 13.8955 46.5746 13.8974 46.5515C13.8779 46.5715 13.8598 46.5887 13.8429 46.6031C13.8259 46.6169 13.805 46.6341 13.7799 46.6548L13.623 46.7807L13.5412 46.6745L13.9133 46.388H14.043V47.7617ZM15.4713 47.073C15.4713 47.1845 15.4628 47.2841 15.4459 47.3718C15.429 47.4595 15.4024 47.5337 15.366 47.5945C15.3297 47.6552 15.2827 47.7016 15.2251 47.7335C15.1674 47.7649 15.0982 47.7805 15.0174 47.7805C14.9153 47.7805 14.8307 47.7526 14.7637 47.6969C14.6973 47.6411 14.6475 47.5606 14.6143 47.4554C14.5817 47.3495 14.5654 47.222 14.5654 47.073C14.5654 46.9264 14.5802 46.8005 14.6096 46.6952C14.6397 46.5894 14.6879 46.5082 14.7543 46.4518C14.8207 46.3948 14.9084 46.3663 15.0174 46.3663C15.1208 46.3663 15.206 46.3945 15.273 46.4509C15.34 46.5067 15.3898 46.5875 15.4224 46.6933C15.455 46.7986 15.4713 46.9251 15.4713 47.073ZM14.7224 47.073C14.7224 47.2007 14.7321 47.3072 14.7515 47.3924C14.7709 47.4776 14.8022 47.5415 14.8455 47.5841C14.8893 47.6261 14.9466 47.6471 15.0174 47.6471C15.0882 47.6471 15.1452 47.6261 15.1884 47.5841C15.2323 47.5422 15.2639 47.4786 15.2833 47.3934C15.3034 47.3082 15.3134 47.2014 15.3134 47.073C15.3134 46.947 15.3037 46.8418 15.2843 46.7572C15.2649 46.672 15.2335 46.6081 15.1903 46.5655C15.1471 46.5223 15.0895 46.5007 15.0174 46.5007C14.9454 46.5007 14.8877 46.5223 14.8445 46.5655C14.8013 46.6081 14.77 46.672 14.7506 46.7572C14.7318 46.8418 14.7224 46.947 14.7224 47.073ZM16.5725 47.073C16.5725 47.1845 16.5641 47.2841 16.5472 47.3718C16.5302 47.4595 16.5036 47.5337 16.4673 47.5945C16.431 47.6552 16.384 47.7016 16.3263 47.7335C16.2687 47.7649 16.1995 47.7805 16.1187 47.7805C16.0166 47.7805 15.932 47.7526 15.865 47.6969C15.7986 47.6411 15.7488 47.5606 15.7156 47.4554C15.683 47.3495 15.6667 47.222 15.6667 47.073C15.6667 46.9264 15.6814 46.8005 15.7109 46.6952C15.7409 46.5894 15.7892 46.5082 15.8556 46.4518C15.922 46.3948 16.0097 46.3663 16.1187 46.3663C16.222 46.3663 16.3072 46.3945 16.3743 46.4509C16.4413 46.5067 16.4911 46.5875 16.5237 46.6933C16.5562 46.7986 16.5725 46.9251 16.5725 47.073ZM15.8236 47.073C15.8236 47.2007 15.8333 47.3072 15.8528 47.3924C15.8722 47.4776 15.9035 47.5415 15.9467 47.5841C15.9906 47.6261 16.0479 47.6471 16.1187 47.6471C16.1895 47.6471 16.2465 47.6261 16.2897 47.5841C16.3335 47.5422 16.3652 47.4786 16.3846 47.3934C16.4046 47.3082 16.4147 47.2014 16.4147 47.073C16.4147 46.947 16.405 46.8418 16.3855 46.7572C16.3661 46.672 16.3348 46.6081 16.2916 46.5655C16.2484 46.5223 16.1907 46.5007 16.1187 46.5007C16.0466 46.5007 15.989 46.5223 15.9458 46.5655C15.9026 46.6081 15.8712 46.672 15.8518 46.7572C15.833 46.8418 15.8236 46.947 15.8236 47.073ZM17.6738 47.073C17.6738 47.1845 17.6653 47.2841 17.6484 47.3718C17.6315 47.4595 17.6049 47.5337 17.5686 47.5945C17.5322 47.6552 17.4852 47.7016 17.4276 47.7335C17.37 47.7649 17.3008 47.7805 17.2199 47.7805C17.1178 47.7805 17.0333 47.7526 16.9662 47.6969C16.8998 47.6411 16.85 47.5606 16.8168 47.4554C16.7843 47.3495 16.768 47.222 16.768 47.073C16.768 46.9264 16.7827 46.8005 16.8121 46.6952C16.8422 46.5894 16.8904 46.5082 16.9568 46.4518C17.0232 46.3948 17.1109 46.3663 17.2199 46.3663C17.3233 46.3663 17.4085 46.3945 17.4755 46.4509C17.5426 46.5067 17.5924 46.5875 17.6249 46.6933C17.6575 46.7986 17.6738 46.9251 17.6738 47.073ZM16.9249 47.073C16.9249 47.2007 16.9346 47.3072 16.954 47.3924C16.9734 47.4776 17.0048 47.5415 17.048 47.5841C17.0918 47.6261 17.1492 47.6471 17.2199 47.6471C17.2907 47.6471 17.3477 47.6261 17.391 47.5841C17.4348 47.5422 17.4664 47.4786 17.4859 47.3934C17.5059 47.3082 17.5159 47.2014 17.5159 47.073C17.5159 46.947 17.5062 46.8418 17.4868 46.7572C17.4674 46.672 17.4361 46.6081 17.3928 46.5655C17.3496 46.5223 17.292 46.5007 17.2199 46.5007C17.1479 46.5007 17.0903 46.5223 17.0471 46.5655C17.0038 46.6081 16.9725 46.672 16.9531 46.7572C16.9343 46.8418 16.9249 46.947 16.9249 47.073Z" fill="#212121"/>
<path d="M13.8194 54.2537C13.9127 54.2537 13.9938 54.2697 14.0627 54.3016C14.1316 54.3329 14.1849 54.3787 14.2225 54.4388C14.2607 54.499 14.2798 54.5719 14.2798 54.6578C14.2798 54.7517 14.2594 54.8328 14.2187 54.9011C14.178 54.9688 14.1194 55.0211 14.043 55.058C13.9666 55.0944 13.8751 55.1125 13.7686 55.1125C13.6972 55.1125 13.6308 55.1063 13.5694 55.0938C13.508 55.0812 13.4563 55.0624 13.4144 55.0374V54.8889C13.4601 54.9165 13.5155 54.9384 13.5807 54.9547C13.6458 54.971 13.7091 54.9791 13.7705 54.9791C13.84 54.9791 13.9008 54.9682 13.9528 54.9462C14.0054 54.9237 14.0461 54.8898 14.0749 54.8447C14.1044 54.799 14.1191 54.7417 14.1191 54.6728C14.1191 54.5813 14.0909 54.5109 14.0345 54.4614C13.9788 54.4113 13.8905 54.3862 13.7696 54.3862C13.7307 54.3862 13.6881 54.3893 13.6418 54.3956C13.5954 54.4019 13.5572 54.4087 13.5271 54.4163L13.4482 54.3646L13.5008 53.72H14.1839V53.8628H13.6343L13.5995 54.2772C13.6233 54.2722 13.654 54.2672 13.6916 54.2622C13.7292 54.2565 13.7718 54.2537 13.8194 54.2537ZM15.3942 54.405C15.3942 54.5165 15.3858 54.6161 15.3688 54.7038C15.3519 54.7915 15.3253 54.8657 15.289 54.9265C15.2526 54.9873 15.2057 55.0336 15.148 55.0656C15.0904 55.0969 15.0212 55.1125 14.9404 55.1125C14.8383 55.1125 14.7537 55.0847 14.6867 55.0289C14.6203 54.9732 14.5705 54.8927 14.5373 54.7874C14.5047 54.6816 14.4884 54.5541 14.4884 54.405C14.4884 54.2584 14.5031 54.1325 14.5326 54.0272C14.5626 53.9214 14.6109 53.8403 14.6773 53.7839C14.7437 53.7269 14.8314 53.6984 14.9404 53.6984C15.0437 53.6984 15.1289 53.7266 15.1959 53.7829C15.263 53.8387 15.3128 53.9195 15.3454 54.0254C15.3779 54.1306 15.3942 54.2572 15.3942 54.405ZM14.6453 54.405C14.6453 54.5328 14.655 54.6393 14.6744 54.7245C14.6939 54.8097 14.7252 54.8736 14.7684 54.9162C14.8123 54.9581 14.8696 54.9791 14.9404 54.9791C15.0111 54.9791 15.0682 54.9581 15.1114 54.9162C15.1552 54.8742 15.1869 54.8106 15.2063 54.7254C15.2263 54.6402 15.2364 54.5334 15.2364 54.405C15.2364 54.2791 15.2266 54.1738 15.2072 54.0893C15.1878 54.0041 15.1565 53.9402 15.1133 53.8976C15.07 53.8544 15.0124 53.8327 14.9404 53.8327C14.8683 53.8327 14.8107 53.8544 14.7675 53.8976C14.7242 53.9402 14.6929 54.0041 14.6735 54.0893C14.6547 54.1738 14.6453 54.2791 14.6453 54.405ZM16.4955 54.405C16.4955 54.5165 16.487 54.6161 16.4701 54.7038C16.4532 54.7915 16.4266 54.8657 16.3902 54.9265C16.3539 54.9873 16.3069 55.0336 16.2493 55.0656C16.1917 55.0969 16.1224 55.1125 16.0416 55.1125C15.9395 55.1125 15.855 55.0847 15.7879 55.0289C15.7215 54.9732 15.6717 54.8927 15.6385 54.7874C15.6059 54.6816 15.5897 54.5541 15.5897 54.405C15.5897 54.2584 15.6044 54.1325 15.6338 54.0272C15.6639 53.9214 15.7121 53.8403 15.7785 53.7839C15.8449 53.7269 15.9326 53.6984 16.0416 53.6984C16.145 53.6984 16.2302 53.7266 16.2972 53.7829C16.3642 53.8387 16.414 53.9195 16.4466 54.0254C16.4792 54.1306 16.4955 54.2572 16.4955 54.405ZM15.7466 54.405C15.7466 54.5328 15.7563 54.6393 15.7757 54.7245C15.7951 54.8097 15.8265 54.8736 15.8697 54.9162C15.9135 54.9581 15.9708 54.9791 16.0416 54.9791C16.1124 54.9791 16.1694 54.9581 16.2126 54.9162C16.2565 54.8742 16.2881 54.8106 16.3075 54.7254C16.3276 54.6402 16.3376 54.5334 16.3376 54.405C16.3376 54.2791 16.3279 54.1738 16.3085 54.0893C16.2891 54.0041 16.2577 53.9402 16.2145 53.8976C16.1713 53.8544 16.1137 53.8327 16.0416 53.8327C15.9696 53.8327 15.912 53.8544 15.8687 53.8976C15.8255 53.9402 15.7942 54.0041 15.7748 54.0893C15.756 54.1738 15.7466 54.2791 15.7466 54.405ZM17.7725 55.0938H17.5836L17.0884 54.4257L16.9418 54.5572V55.0938H16.7821V53.72H16.9418V54.405C16.9775 54.3643 17.0142 54.3239 17.0518 54.2838C17.0893 54.2431 17.1266 54.202 17.1636 54.1607L17.5648 53.72H17.7518L17.2049 54.3157L17.7725 55.0938Z" fill="#212121"/>
<path d="M13.9659 62.4219H13.8137V61.4484C13.8137 61.4114 13.8137 61.3798 13.8137 61.3535C13.8144 61.3266 13.815 61.3021 13.8156 61.2802C13.8169 61.2577 13.8184 61.2348 13.8203 61.2116C13.8009 61.2317 13.7827 61.2489 13.7658 61.2633C13.7489 61.2771 13.7279 61.2943 13.7028 61.315L13.5459 61.4409L13.4642 61.3347L13.8363 61.0481H13.9659V62.4219ZM15.3942 61.7331C15.3942 61.8446 15.3858 61.9442 15.3688 62.0319C15.3519 62.1196 15.3253 62.1939 15.289 62.2546C15.2526 62.3154 15.2057 62.3617 15.148 62.3937C15.0904 62.425 15.0212 62.4407 14.9404 62.4407C14.8383 62.4407 14.7537 62.4128 14.6867 62.357C14.6203 62.3013 14.5705 62.2208 14.5373 62.1155C14.5047 62.0097 14.4884 61.8822 14.4884 61.7331C14.4884 61.5865 14.5031 61.4606 14.5326 61.3554C14.5626 61.2495 14.6109 61.1684 14.6773 61.112C14.7437 61.055 14.8314 61.0265 14.9404 61.0265C15.0437 61.0265 15.1289 61.0547 15.1959 61.1111C15.263 61.1668 15.3128 61.2476 15.3454 61.3535C15.3779 61.4587 15.3942 61.5853 15.3942 61.7331ZM14.6453 61.7331C14.6453 61.8609 14.655 61.9674 14.6744 62.0526C14.6939 62.1378 14.7252 62.2017 14.7684 62.2443C14.8123 62.2863 14.8696 62.3072 14.9404 62.3072C15.0111 62.3072 15.0682 62.2863 15.1114 62.2443C15.1552 62.2023 15.1869 62.1387 15.2063 62.0535C15.2263 61.9683 15.2364 61.8615 15.2364 61.7331C15.2364 61.6072 15.2266 61.502 15.2072 61.4174C15.1878 61.3322 15.1565 61.2683 15.1133 61.2257C15.07 61.1825 15.0124 61.1609 14.9404 61.1609C14.8683 61.1609 14.8107 61.1825 14.7675 61.2257C14.7242 61.2683 14.6929 61.3322 14.6735 61.4174C14.6547 61.502 14.6453 61.6072 14.6453 61.7331ZM16.4955 61.7331C16.4955 61.8446 16.487 61.9442 16.4701 62.0319C16.4532 62.1196 16.4266 62.1939 16.3902 62.2546C16.3539 62.3154 16.3069 62.3617 16.2493 62.3937C16.1917 62.425 16.1224 62.4407 16.0416 62.4407C15.9395 62.4407 15.855 62.4128 15.7879 62.357C15.7215 62.3013 15.6717 62.2208 15.6385 62.1155C15.6059 62.0097 15.5897 61.8822 15.5897 61.7331C15.5897 61.5865 15.6044 61.4606 15.6338 61.3554C15.6639 61.2495 15.7121 61.1684 15.7785 61.112C15.8449 61.055 15.9326 61.0265 16.0416 61.0265C16.145 61.0265 16.2302 61.0547 16.2972 61.1111C16.3642 61.1668 16.414 61.2476 16.4466 61.3535C16.4792 61.4587 16.4955 61.5853 16.4955 61.7331ZM15.7466 61.7331C15.7466 61.8609 15.7563 61.9674 15.7757 62.0526C15.7951 62.1378 15.8265 62.2017 15.8697 62.2443C15.9135 62.2863 15.9708 62.3072 16.0416 62.3072C16.1124 62.3072 16.1694 62.2863 16.2126 62.2443C16.2565 62.2023 16.2881 62.1387 16.3075 62.0535C16.3276 61.9683 16.3376 61.8615 16.3376 61.7331C16.3376 61.6072 16.3279 61.502 16.3085 61.4174C16.2891 61.3322 16.2577 61.2683 16.2145 61.2257C16.1713 61.1825 16.1137 61.1609 16.0416 61.1609C15.9696 61.1609 15.912 61.1825 15.8687 61.2257C15.8255 61.2683 15.7942 61.3322 15.7748 61.4174C15.756 61.502 15.7466 61.6072 15.7466 61.7331ZM17.7725 62.4219H17.5836L17.0884 61.7538L16.9418 61.8853V62.4219H16.7821V61.0481H16.9418V61.7331C16.9775 61.6924 17.0142 61.652 17.0518 61.6119C17.0893 61.5712 17.1266 61.5301 17.1636 61.4888L17.5648 61.0481H17.7518L17.2049 61.6438L17.7725 62.4219Z" fill="#212121"/>
<path d="M17.6733 69.0651C17.6733 69.1766 17.6649 69.2763 17.648 69.364C17.631 69.4517 17.6044 69.5259 17.5681 69.5866C17.5318 69.6474 17.4848 69.6938 17.4271 69.7257C17.3695 69.757 17.3003 69.7727 17.2195 69.7727C17.1174 69.7727 17.0328 69.7448 16.9658 69.6891C16.8994 69.6333 16.8496 69.5528 16.8164 69.4476C16.7838 69.3417 16.7675 69.2142 16.7675 69.0651C16.7675 68.9186 16.7822 68.7926 16.8117 68.6874C16.8417 68.5815 16.89 68.5004 16.9564 68.444C17.0228 68.387 17.1105 68.3585 17.2195 68.3585C17.3228 68.3585 17.408 68.3867 17.4751 68.4431C17.5421 68.4989 17.5919 68.5797 17.6245 68.6855C17.657 68.7908 17.6733 68.9173 17.6733 69.0651ZM16.9244 69.0651C16.9244 69.1929 16.9341 69.2994 16.9536 69.3846C16.973 69.4698 17.0043 69.5337 17.0475 69.5763C17.0914 69.6183 17.1487 69.6393 17.2195 69.6393C17.2903 69.6393 17.3473 69.6183 17.3905 69.5763C17.4343 69.5343 17.466 69.4708 17.4854 69.3856C17.5054 69.3004 17.5155 69.1936 17.5155 69.0651C17.5155 68.9392 17.5058 68.834 17.4863 68.7494C17.4669 68.6642 17.4356 68.6003 17.3924 68.5577C17.3492 68.5145 17.2915 68.4929 17.2195 68.4929C17.1474 68.4929 17.0898 68.5145 17.0466 68.5577C17.0034 68.6003 16.972 68.6642 16.9526 68.7494C16.9338 68.834 16.9244 68.9392 16.9244 69.0651Z" fill="#212121"/>
<path d="M28.006 72.6797H27.8538V71.7062C27.8538 71.6693 27.8538 71.6376 27.8538 71.6113C27.8544 71.5844 27.855 71.5599 27.8556 71.538C27.8569 71.5155 27.8585 71.4926 27.8603 71.4694C27.8409 71.4895 27.8227 71.5067 27.8058 71.5211C27.7889 71.5349 27.7679 71.5521 27.7429 71.5728L27.586 71.6987L27.5042 71.5925L27.8763 71.3059H28.006V72.6797Z" fill="#212121"/>
<path d="M21.3574 71.9909C21.3574 72.1024 21.3489 72.202 21.332 72.2897C21.3151 72.3774 21.2885 72.4517 21.2522 72.5124C21.2158 72.5732 21.1688 72.6196 21.1112 72.6515C21.0536 72.6828 20.9844 72.6985 20.9035 72.6985C20.8014 72.6985 20.7169 72.6706 20.6498 72.6149C20.5834 72.5591 20.5336 72.4786 20.5004 72.3734C20.4679 72.2675 20.4516 72.14 20.4516 71.9909C20.4516 71.8443 20.4663 71.7184 20.4957 71.6132C20.5258 71.5073 20.574 71.4262 20.6404 71.3698C20.7068 71.3128 20.7945 71.2843 20.9035 71.2843C21.0069 71.2843 21.0921 71.3125 21.1591 71.3689C21.2262 71.4246 21.276 71.5054 21.3085 71.6113C21.3411 71.7165 21.3574 71.8431 21.3574 71.9909ZM20.6085 71.9909C20.6085 72.1187 20.6182 72.2252 20.6376 72.3104C20.657 72.3956 20.6884 72.4595 20.7316 72.5021C20.7754 72.5441 20.8328 72.5651 20.9035 72.5651C20.9743 72.5651 21.0313 72.5441 21.0746 72.5021C21.1184 72.4601 21.15 72.3965 21.1695 72.3113C21.1895 72.2262 21.1995 72.1193 21.1995 71.9909C21.1995 71.865 21.1898 71.7598 21.1704 71.6752C21.151 71.59 21.1197 71.5261 21.0764 71.4835C21.0332 71.4403 20.9756 71.4187 20.9035 71.4187C20.8315 71.4187 20.7739 71.4403 20.7306 71.4835C20.6874 71.5261 20.6561 71.59 20.6367 71.6752C20.6179 71.7598 20.6085 71.865 20.6085 71.9909Z" fill="#212121"/>
<path d="M36.2639 72.6797H35.3638V72.5491L35.7312 72.176C35.7994 72.1071 35.8568 72.0457 35.9031 71.9919C35.9501 71.938 35.9858 71.8851 36.0102 71.8331C36.0347 71.7804 36.0469 71.7228 36.0469 71.6602C36.0469 71.5825 36.0237 71.5233 35.9773 71.4826C35.9316 71.4412 35.8712 71.4206 35.796 71.4206C35.7302 71.4206 35.672 71.4318 35.6212 71.4544C35.5705 71.4769 35.5185 71.5089 35.4652 71.5502L35.3816 71.445C35.4179 71.4143 35.4574 71.387 35.5 71.3632C35.5432 71.3394 35.5893 71.3206 35.6381 71.3069C35.6876 71.2931 35.7402 71.2862 35.796 71.2862C35.8806 71.2862 35.9535 71.3009 36.0149 71.3304C36.0763 71.3598 36.1236 71.4018 36.1568 71.4563C36.1906 71.5108 36.2076 71.5756 36.2076 71.6508C36.2076 71.7234 36.1932 71.7911 36.1643 71.8537C36.1355 71.9158 36.0951 71.9775 36.0431 72.0388C35.9911 72.0996 35.9304 72.1641 35.8608 72.2324L35.562 72.5303V72.5369H36.2639V72.6797Z" fill="#212121"/>
<path d="M44.3919 71.6263C44.3919 71.6877 44.38 71.741 44.3562 71.7861C44.3324 71.8312 44.2992 71.8681 44.2566 71.897C44.214 71.9252 44.1639 71.9449 44.1063 71.9562V71.9637C44.2153 71.9775 44.297 72.0125 44.3515 72.0689C44.4066 72.1253 44.4342 72.1992 44.4342 72.2907C44.4342 72.3702 44.4154 72.4407 44.3778 72.5021C44.3409 72.5635 44.2838 72.6117 44.2068 72.6468C44.1304 72.6813 44.0323 72.6985 43.9127 72.6985C43.84 72.6985 43.7727 72.6925 43.7107 72.6806C43.6493 72.6694 43.5904 72.6502 43.534 72.6233V72.4767C43.591 72.5049 43.653 72.5272 43.7201 72.5434C43.7871 72.5591 43.8519 72.5669 43.9146 72.5669C44.0399 72.5669 44.1304 72.5422 44.1861 72.4927C44.2419 72.4426 44.2698 72.3743 44.2698 72.2879C44.2698 72.2283 44.2541 72.1804 44.2228 72.1441C44.1921 72.1071 44.1476 72.0802 44.0893 72.0633C44.0317 72.0457 43.9622 72.037 43.8807 72.037H43.7435V71.9035H43.8817C43.9562 71.9035 44.0195 71.8926 44.0715 71.8707C44.1235 71.8487 44.1629 71.818 44.1899 71.7786C44.2174 71.7385 44.2312 71.6912 44.2312 71.6367C44.2312 71.5671 44.208 71.5136 44.1617 71.476C44.1153 71.4378 44.0524 71.4187 43.9728 71.4187C43.924 71.4187 43.8795 71.4237 43.8394 71.4337C43.7993 71.4437 43.7617 71.4575 43.7266 71.4751C43.6916 71.4926 43.6565 71.513 43.6214 71.5361L43.5425 71.429C43.5926 71.3902 43.6537 71.3567 43.7257 71.3285C43.7977 71.3003 43.8795 71.2862 43.9709 71.2862C44.1113 71.2862 44.2165 71.3181 44.2867 71.382C44.3568 71.4459 44.3919 71.5274 44.3919 71.6263Z" fill="#212121"/>
<path d="M52.4497 72.3611H52.2439V72.6797H52.0917V72.3611H51.4274V72.2296L52.0814 71.2984H52.2439V72.2202H52.4497V72.3611ZM52.0917 72.2202V71.771C52.0917 71.7366 52.092 71.7056 52.0927 71.678C52.0933 71.6498 52.0942 71.6238 52.0955 71.6C52.0967 71.5756 52.0977 71.5524 52.0983 71.5305C52.0995 71.5086 52.1005 71.487 52.1011 71.4657H52.0936C52.0817 71.4907 52.0679 71.5173 52.0522 71.5455C52.0372 71.5731 52.0219 71.5978 52.0062 71.6198L51.5824 72.2202H52.0917Z" fill="#212121"/>
<path d="M59.8526 71.8396C59.9459 71.8396 60.027 71.8556 60.0959 71.8876C60.1648 71.9189 60.2181 71.9646 60.2557 72.0248C60.2939 72.0849 60.313 72.1579 60.313 72.2437C60.313 72.3377 60.2926 72.4188 60.2519 72.4871C60.2112 72.5547 60.1526 72.607 60.0762 72.644C59.9998 72.6803 59.9083 72.6985 59.8018 72.6985C59.7304 72.6985 59.664 72.6922 59.6026 72.6797C59.5412 72.6672 59.4895 72.6484 59.4476 72.6233V72.4748C59.4933 72.5024 59.5487 72.5243 59.6139 72.5406C59.679 72.5569 59.7423 72.5651 59.8037 72.5651C59.8732 72.5651 59.934 72.5541 59.986 72.5322C60.0386 72.5096 60.0793 72.4758 60.1081 72.4307C60.1376 72.385 60.1523 72.3276 60.1523 72.2587C60.1523 72.1673 60.1241 72.0968 60.0677 72.0473C60.012 71.9972 59.9237 71.9721 59.8028 71.9721C59.7639 71.9721 59.7213 71.9753 59.675 71.9815C59.6286 71.9878 59.5904 71.9947 59.5603 72.0022L59.4814 71.9505L59.534 71.3059H60.2171V71.4487H59.6674L59.6327 71.8631C59.6565 71.8581 59.6872 71.8531 59.7248 71.8481C59.7624 71.8425 59.805 71.8396 59.8526 71.8396Z" fill="#212121"/>
<path d="M67.371 72.0924C67.371 72.0097 67.3767 71.9289 67.3879 71.85C67.3998 71.771 67.4196 71.6978 67.4471 71.6301C67.4747 71.5618 67.5123 71.502 67.5599 71.4506C67.6075 71.3993 67.6667 71.3592 67.7375 71.3304C67.8089 71.3009 67.8944 71.2862 67.994 71.2862C68.0222 71.2862 68.0526 71.2878 68.0851 71.2909C68.1177 71.2934 68.1447 71.2978 68.166 71.304V71.4384C68.1428 71.4303 68.1162 71.4243 68.0861 71.4206C68.0566 71.4168 68.0269 71.4149 67.9968 71.4149C67.8803 71.4149 67.7885 71.4403 67.7215 71.491C67.6551 71.5418 67.6072 71.6107 67.5777 71.6978C67.5483 71.7842 67.5314 71.8816 67.527 71.99H67.5373C67.5568 71.9587 67.5815 71.9305 67.6116 71.9054C67.6416 71.8797 67.678 71.8594 67.7206 71.8443C67.7638 71.8293 67.8139 71.8218 67.8709 71.8218C67.9511 71.8218 68.0209 71.8381 68.0804 71.8707C68.1406 71.9032 68.1869 71.9505 68.2195 72.0125C68.2527 72.0746 68.2693 72.1497 68.2693 72.2381C68.2693 72.3326 68.2518 72.4144 68.2167 72.4833C68.1816 72.5522 68.1315 72.6055 68.0664 72.643C68.0018 72.68 67.9248 72.6985 67.8352 72.6985C67.7682 72.6985 67.7065 72.6856 67.6501 72.66C67.5937 72.6343 67.5445 72.5961 67.5026 72.5453C67.4612 72.4946 67.429 72.4316 67.4058 72.3564C67.3826 72.2807 67.371 72.1926 67.371 72.0924ZM67.8333 72.5669C67.9185 72.5669 67.9868 72.5397 68.0382 72.4852C68.0895 72.4307 68.1152 72.3483 68.1152 72.2381C68.1152 72.1478 68.0923 72.0764 68.0466 72.0238C68.0009 71.9712 67.932 71.9449 67.8399 71.9449C67.7773 71.9449 67.7228 71.958 67.6764 71.9843C67.63 72.01 67.594 72.0426 67.5683 72.0821C67.5427 72.1215 67.5298 72.1616 67.5298 72.2023C67.5298 72.2437 67.5358 72.2857 67.5477 72.3283C67.5602 72.3709 67.579 72.4103 67.604 72.4467C67.6291 72.483 67.6607 72.5121 67.699 72.534C67.7372 72.556 67.782 72.5669 67.8333 72.5669Z" fill="#212121"/>
<path d="M75.2318 72.6797L75.7956 71.4487H75.0467V71.3059H75.9628V71.4262L75.4028 72.6797H75.2318Z" fill="#212121"/>
<path d="M20.0575 70.1996C20.0575 70.266 20.1113 70.3198 20.1777 70.3198C20.2442 70.3198 20.298 70.266 20.298 70.1996H20.0575ZM20.1777 23.7734H20.0575V70.1996H20.1777H20.298V23.7734H20.1777Z" fill="#D4D4D4"/>
<path d="M20.1777 70.1992H77.6691" stroke="#D4D4D4" stroke-width="0.24055"/>
<rect x="26.1914" y="44.9414" width="1.9244" height="25.2577" rx="0.962199" fill="#4CDEE6"/>
<rect x="34.1289" y="28.8242" width="1.9244" height="41.3746" rx="0.962199" fill="#4CDEE6"/>
<rect x="42.0684" y="44.9414" width="1.9244" height="25.2577" rx="0.962199" fill="#4CDEE6"/>
<rect x="50.0059" y="35.8008" width="1.9244" height="34.3986" rx="0.962199" fill="#4CDEE6"/>
<rect x="57.9434" y="44.9414" width="1.9244" height="25.2577" rx="0.962199" fill="#4CDEE6"/>
<rect x="65.8828" y="60.0977" width="1.9244" height="10.1031" rx="0.962199" fill="#4CDEE6"/>
<rect x="73.8203" y="42.0547" width="1.9244" height="28.1443" rx="0.962199" fill="#4CDEE6"/>
<g filter="url(#filter0_d_7927_92204)">
<path d="M36.415 24.7344C37.0126 24.7346 37.4979 25.2188 37.498 25.8164V26.2979C37.4978 26.8953 37.0125 27.3797 36.415 27.3799H35.4121L34.9717 27.8193L34.5312 27.3799H33.5283C32.9681 27.3797 32.5077 26.9538 32.4521 26.4082L32.4463 26.2979V25.8164C32.4464 25.2188 32.9307 24.7345 33.5283 24.7344H36.415Z" fill="white"/>
</g>
<g filter="url(#filter1_d_7927_92204)">
<path d="M28.7168 41.8164C29.3145 41.8164 29.7997 42.3007 29.7998 42.8984V43.3799C29.7995 43.9775 29.3145 44.4619 28.7168 44.4619H27.7139L27.2744 44.9014L26.834 44.4619H25.8301C25.2699 44.4616 24.8094 44.0358 24.7539 43.4902L24.748 43.3799V42.8984C24.7482 42.3009 25.2326 41.8167 25.8301 41.8164H28.7168Z" fill="white"/>
</g>
<g filter="url(#filter2_d_7927_92204)">
<path d="M44.5938 42.0547C45.1913 42.0549 45.6766 42.5391 45.6768 43.1367V43.6182C45.6766 44.2158 45.1913 44.7 44.5938 44.7002H43.5908L43.1504 45.1406L42.71 44.7002H41.707C41.1467 44.7001 40.6863 44.2743 40.6309 43.7285L40.625 43.6182V43.1367C40.6252 42.5391 41.1094 42.0548 41.707 42.0547H44.5938Z" fill="white"/>
</g>
<g filter="url(#filter3_d_7927_92204)">
<path d="M52.5312 32.6758C53.1289 32.6758 53.614 33.1602 53.6143 33.7578V34.2393C53.6142 34.8371 53.1291 35.3213 52.5312 35.3213H51.5283L51.0889 35.7617L50.6484 35.3213H49.6445C49.0842 35.321 48.6237 34.8954 48.5684 34.3496L48.5625 34.2393V33.7578C48.5628 33.1604 49.0471 32.6761 49.6445 32.6758H52.5312Z" fill="white"/>
</g>
<g filter="url(#filter4_d_7927_92204)">
<path d="M60.2295 41.8164C60.8271 41.8166 61.3123 42.3009 61.3125 42.8984V43.3799C61.3122 43.9773 60.827 44.4617 60.2295 44.4619H59.2266L58.7861 44.9014L58.3457 44.4619H57.3428C56.7825 44.4618 56.3222 44.0358 56.2666 43.4902L56.2607 43.3799V42.8984C56.2609 42.3008 56.7452 41.8166 57.3428 41.8164H60.2295Z" fill="white"/>
</g>
<g filter="url(#filter5_d_7927_92204)">
<path d="M68.4082 56.9688C69.0058 56.969 69.4911 57.4532 69.4912 58.0508V58.5322C69.4911 59.1298 69.0058 59.614 68.4082 59.6143H67.4053L66.9648 60.0547L66.5244 59.6143H65.5215C64.9611 59.6141 64.5007 59.1883 64.4453 58.6426L64.4395 58.5322V58.0508C64.4396 57.4532 64.9239 56.9689 65.5215 56.9688H68.4082Z" fill="white"/>
</g>
<g filter="url(#filter6_d_7927_92204)">
<path d="M76.1055 38.9297C76.7032 38.9297 77.1883 39.414 77.1885 40.0117V40.4932C77.1882 41.0908 76.7031 41.5752 76.1055 41.5752H75.1025L74.6621 42.0146L74.2227 41.5752H73.2188C72.6585 41.5751 72.1981 41.1492 72.1426 40.6035L72.1367 40.4932V40.0117C72.1369 39.4141 72.6211 38.9298 73.2188 38.9297H76.1055Z" fill="white"/>
</g>
<path d="M34.2079 26.8555H33.5102V26.7307L33.7773 26.4601C33.829 26.4075 33.8715 26.3622 33.9049 26.3241C33.9382 26.2856 33.9629 26.2492 33.9789 26.2149C33.9953 26.1806 34.0035 26.1432 34.0035 26.1028C34.0035 26.053 33.9892 26.0154 33.9606 25.9901C33.9319 25.9642 33.8941 25.9513 33.8471 25.9513C33.8025 25.9513 33.7611 25.9602 33.7231 25.9781C33.6855 25.9955 33.6465 26.0204 33.6061 26.0528L33.5152 25.9435C33.5438 25.9191 33.5744 25.8968 33.6068 25.8766C33.6397 25.8564 33.6763 25.8404 33.7167 25.8287C33.7571 25.8165 33.8032 25.8103 33.8548 25.8103C33.9202 25.8103 33.9765 25.8221 34.024 25.8456C34.0714 25.8686 34.1078 25.9008 34.1332 25.9421C34.1591 25.9835 34.172 26.0316 34.172 26.0866C34.172 26.142 34.1609 26.1933 34.1389 26.2402C34.1168 26.2872 34.0853 26.3337 34.0444 26.3798C34.0035 26.4253 33.9549 26.4749 33.8985 26.5285L33.7202 26.7025V26.7103H34.2079V26.8555ZM35.094 26.8555H34.3963V26.7307L34.6634 26.4601C34.7151 26.4075 34.7576 26.3622 34.791 26.3241C34.8243 26.2856 34.849 26.2492 34.865 26.2149C34.8814 26.1806 34.8896 26.1432 34.8896 26.1028C34.8896 26.053 34.8753 26.0154 34.8466 25.9901C34.818 25.9642 34.7802 25.9513 34.7332 25.9513C34.6885 25.9513 34.6472 25.9602 34.6091 25.9781C34.5716 25.9955 34.5326 26.0204 34.4922 26.0528L34.4012 25.9435C34.4299 25.9191 34.4604 25.8968 34.4929 25.8766C34.5258 25.8564 34.5624 25.8404 34.6028 25.8287C34.6432 25.8165 34.6893 25.8103 34.7409 25.8103C34.8062 25.8103 34.8626 25.8221 34.9101 25.8456C34.9575 25.8686 34.9939 25.9008 35.0193 25.9421C35.0451 25.9835 35.0581 26.0316 35.0581 26.0866C35.0581 26.142 35.047 26.1933 35.0249 26.2402C35.0029 26.2872 34.9714 26.3337 34.9305 26.3798C34.8896 26.4253 34.841 26.4749 34.7846 26.5285L34.6063 26.7025V26.7103H35.094V26.8555ZM35.7694 26.8555H35.6031V26.1923C35.6031 26.1702 35.6033 26.1481 35.6038 26.1261C35.6042 26.104 35.6047 26.0824 35.6052 26.0612C35.6061 26.0401 35.6073 26.0199 35.6087 26.0006C35.5988 26.0114 35.5866 26.0232 35.5721 26.0359C35.558 26.0485 35.5429 26.0617 35.5269 26.0753L35.4086 26.1698L35.3254 26.0648L35.6312 25.8251H35.7694V26.8555ZM36.8662 26.8555H36.1685V26.7307L36.4356 26.4601C36.4873 26.4075 36.5298 26.3622 36.5631 26.3241C36.5965 26.2856 36.6212 26.2492 36.6371 26.2149C36.6536 26.1806 36.6618 26.1432 36.6618 26.1028C36.6618 26.053 36.6475 26.0154 36.6188 25.9901C36.5902 25.9642 36.5523 25.9513 36.5054 25.9513C36.4607 25.9513 36.4194 25.9602 36.3813 25.9781C36.3437 25.9955 36.3047 26.0204 36.2643 26.0528L36.1734 25.9435C36.2021 25.9191 36.2326 25.8968 36.265 25.8766C36.2979 25.8564 36.3346 25.8404 36.375 25.8287C36.4154 25.8165 36.4614 25.8103 36.5131 25.8103C36.5784 25.8103 36.6348 25.8221 36.6822 25.8456C36.7297 25.8686 36.7661 25.9008 36.7915 25.9421C36.8173 25.9835 36.8302 26.0316 36.8302 26.0866C36.8302 26.142 36.8192 26.1933 36.7971 26.2402C36.775 26.2872 36.7436 26.3337 36.7027 26.3798C36.6618 26.4253 36.6132 26.4749 36.5568 26.5285L36.3785 26.7025V26.7103H36.8662V26.8555Z" fill="#212121"/>
<path d="M26.2999 43.9336H26.1336V43.2704C26.1336 43.2484 26.1339 43.2263 26.1343 43.2042C26.1348 43.1821 26.1353 43.1605 26.1357 43.1394C26.1367 43.1182 26.1378 43.098 26.1393 43.0787C26.1294 43.0896 26.1172 43.1013 26.1026 43.114C26.0885 43.1267 26.0735 43.1398 26.0575 43.1535L25.9391 43.2479L25.856 43.1429L26.1618 42.9033H26.2999V43.9336ZM27.3967 43.9336H26.6991V43.8089L26.9661 43.5382C27.0178 43.4856 27.0603 43.4403 27.0937 43.4022C27.1271 43.3637 27.1517 43.3273 27.1677 43.293C27.1841 43.2587 27.1924 43.2213 27.1924 43.1809C27.1924 43.1311 27.178 43.0935 27.1494 43.0682C27.1207 43.0423 27.0829 43.0294 27.0359 43.0294C26.9913 43.0294 26.9499 43.0383 26.9119 43.0562C26.8743 43.0736 26.8353 43.0985 26.7949 43.1309L26.704 43.0217C26.7326 42.9972 26.7632 42.9749 26.7956 42.9547C26.8285 42.9345 26.8651 42.9185 26.9055 42.9068C26.9459 42.8946 26.992 42.8885 27.0437 42.8885C27.109 42.8885 27.1654 42.9002 27.2128 42.9237C27.2603 42.9467 27.2967 42.9789 27.322 43.0203C27.3479 43.0616 27.3608 43.1098 27.3608 43.1647C27.3608 43.2202 27.3498 43.2714 27.3277 43.3184C27.3056 43.3653 27.2741 43.4119 27.2332 43.4579C27.1924 43.5035 27.1437 43.553 27.0874 43.6066L26.9091 43.7807V43.7884H27.3967V43.9336ZM28.2828 43.4177C28.2828 43.5009 28.2762 43.5754 28.2631 43.6411C28.2504 43.7064 28.2302 43.7619 28.2025 43.8074C28.1748 43.853 28.1386 43.8878 28.094 43.9117C28.0493 43.9357 27.9953 43.9477 27.9319 43.9477C27.8525 43.9477 27.7869 43.9268 27.7352 43.885C27.6836 43.8427 27.6453 43.7821 27.6204 43.7031C27.5955 43.6237 27.583 43.5286 27.583 43.4177C27.583 43.3068 27.5943 43.2119 27.6169 43.133C27.6399 43.0536 27.677 42.9928 27.7282 42.9505C27.7794 42.9082 27.8473 42.8871 27.9319 42.8871C28.0117 42.8871 28.0775 42.9082 28.1292 42.9505C28.1813 42.9923 28.2199 43.0529 28.2448 43.1323C28.2701 43.2112 28.2828 43.3064 28.2828 43.4177ZM27.75 43.4177C27.75 43.5046 27.7557 43.5772 27.767 43.6355C27.7787 43.6937 27.798 43.7374 27.8247 43.7666C27.8515 43.7952 27.8872 43.8096 27.9319 43.8096C27.9765 43.8096 28.0122 43.7952 28.039 43.7666C28.0658 43.7379 28.085 43.6945 28.0968 43.6362C28.109 43.5779 28.1151 43.5051 28.1151 43.4177C28.1151 43.3313 28.1092 43.2589 28.0975 43.2007C28.0857 43.1424 28.0665 43.0987 28.0397 43.0696C28.0129 43.04 27.977 43.0252 27.9319 43.0252C27.8868 43.0252 27.8508 43.04 27.824 43.0696C27.7977 43.0987 27.7787 43.1424 27.767 43.2007C27.7557 43.2589 27.75 43.3313 27.75 43.4177ZM29.1689 43.4177C29.1689 43.5009 29.1623 43.5754 29.1492 43.6411C29.1365 43.7064 29.1163 43.7619 29.0886 43.8074C29.0609 43.853 29.0247 43.8878 28.98 43.9117C28.9354 43.9357 28.8814 43.9477 28.818 43.9477C28.7386 43.9477 28.673 43.9268 28.6213 43.885C28.5697 43.8427 28.5314 43.7821 28.5065 43.7031C28.4816 43.6237 28.4691 43.5286 28.4691 43.4177C28.4691 43.3068 28.4804 43.2119 28.5029 43.133C28.526 43.0536 28.5631 42.9928 28.6143 42.9505C28.6655 42.9082 28.7334 42.8871 28.818 42.8871C28.8978 42.8871 28.9636 42.9082 29.0153 42.9505C29.0674 42.9923 29.106 43.0529 29.1309 43.1323C29.1562 43.2112 29.1689 43.3064 29.1689 43.4177ZM28.6361 43.4177C28.6361 43.5046 28.6418 43.5772 28.653 43.6355C28.6648 43.6937 28.6841 43.7374 28.7108 43.7666C28.7376 43.7952 28.7733 43.8096 28.818 43.8096C28.8626 43.8096 28.8983 43.7952 28.9251 43.7666C28.9519 43.7379 28.9711 43.6945 28.9829 43.6362C28.9951 43.5779 29.0012 43.5051 29.0012 43.4177C29.0012 43.3313 28.9953 43.2589 28.9836 43.2007C28.9718 43.1424 28.9526 43.0987 28.9258 43.0696C28.899 43.04 28.8631 43.0252 28.818 43.0252C28.7729 43.0252 28.7369 43.04 28.7101 43.0696C28.6838 43.0987 28.6648 43.1424 28.653 43.2007C28.6418 43.2589 28.6361 43.3313 28.6361 43.4177Z" fill="#212121"/>
<path d="M42.1759 44.1758H42.0096V43.5126C42.0096 43.4905 42.0098 43.4685 42.0103 43.4464C42.0108 43.4243 42.0112 43.4027 42.0117 43.3815C42.0126 43.3604 42.0138 43.3402 42.0152 43.3209C42.0054 43.3317 41.9932 43.3435 41.9786 43.3562C41.9645 43.3689 41.9495 43.382 41.9335 43.3956L41.8151 43.4901L41.7319 43.3851L42.0378 43.1455H42.1759V44.1758ZM43.2727 43.6599C43.2727 43.7431 43.2661 43.8175 43.253 43.8833C43.2403 43.9486 43.2201 44.0041 43.1924 44.0496C43.1647 44.0952 43.1285 44.13 43.0838 44.1539C43.0392 44.1779 42.9852 44.1899 42.9218 44.1899C42.8424 44.1899 42.7768 44.169 42.7251 44.1272C42.6735 44.0849 42.6352 44.0243 42.6103 43.9453C42.5854 43.8659 42.5729 43.7708 42.5729 43.6599C42.5729 43.549 42.5842 43.4541 42.6067 43.3752C42.6298 43.2958 42.6669 43.235 42.7181 43.1927C42.7693 43.1504 42.8372 43.1292 42.9218 43.1292C43.0016 43.1292 43.0674 43.1504 43.1191 43.1927C43.1712 43.2345 43.2098 43.2951 43.2347 43.3745C43.26 43.4534 43.2727 43.5486 43.2727 43.6599ZM42.7399 43.6599C42.7399 43.7468 42.7456 43.8194 42.7568 43.8777C42.7686 43.9359 42.7879 43.9796 42.8146 44.0088C42.8414 44.0374 42.8771 44.0517 42.9218 44.0517C42.9664 44.0517 43.0021 44.0374 43.0289 44.0088C43.0557 43.9801 43.0749 43.9366 43.0867 43.8784C43.0989 43.8201 43.105 43.7473 43.105 43.6599C43.105 43.5735 43.0991 43.5011 43.0874 43.4429C43.0756 43.3846 43.0564 43.3409 43.0296 43.3118C43.0028 43.2822 42.9669 43.2674 42.9218 43.2674C42.8767 43.2674 42.8407 43.2822 42.8139 43.3118C42.7876 43.3409 42.7686 43.3846 42.7568 43.4429C42.7456 43.5011 42.7399 43.5735 42.7399 43.6599ZM44.1588 44.1758H43.4611V44.051L43.7282 43.7804C43.7799 43.7278 43.8224 43.6825 43.8558 43.6444C43.8891 43.6059 43.9138 43.5695 43.9298 43.5352C43.9462 43.5009 43.9544 43.4635 43.9544 43.4231C43.9544 43.3733 43.9401 43.3357 43.9114 43.3104C43.8828 43.2845 43.845 43.2716 43.798 43.2716C43.7533 43.2716 43.712 43.2805 43.6739 43.2984C43.6364 43.3158 43.5974 43.3407 43.557 43.3731L43.466 43.2639C43.4947 43.2394 43.5252 43.2171 43.5577 43.1969C43.5906 43.1767 43.6272 43.1607 43.6676 43.149C43.708 43.1368 43.7541 43.1307 43.8057 43.1307C43.871 43.1307 43.9274 43.1424 43.9749 43.1659C44.0223 43.1889 44.0587 43.2211 44.0841 43.2624C44.1099 43.3038 44.1229 43.3519 44.1229 43.4069C44.1229 43.4624 44.1118 43.5136 44.0897 43.5605C44.0677 43.6075 44.0362 43.654 43.9953 43.7001C43.9544 43.7457 43.9058 43.7952 43.8494 43.8488L43.6711 44.0229V44.0306H44.1588V44.1758ZM44.3486 43.7367C44.3486 43.6761 44.3528 43.6165 44.3613 43.5577C44.3702 43.499 44.3853 43.444 44.4064 43.3928C44.4275 43.3416 44.4567 43.2965 44.4938 43.2575C44.5314 43.2185 44.5786 43.188 44.6354 43.1659C44.6923 43.1433 44.7606 43.1321 44.8405 43.1321C44.8612 43.1321 44.8844 43.133 44.9103 43.1349C44.9361 43.1368 44.9575 43.1398 44.9744 43.144V43.2815C44.9561 43.2763 44.9359 43.2723 44.9138 43.2695C44.8922 43.2667 44.8706 43.2653 44.849 43.2653C44.7625 43.2653 44.6951 43.2817 44.6467 43.3146C44.5983 43.347 44.5638 43.3916 44.5431 43.4485C44.5224 43.5049 44.5105 43.5695 44.5072 43.6423H44.5156C44.5297 43.6188 44.5473 43.5979 44.5685 43.5796C44.5896 43.5613 44.6155 43.5467 44.646 43.5359C44.6765 43.5246 44.712 43.519 44.7524 43.519C44.8126 43.519 44.8649 43.5317 44.9096 43.557C44.9542 43.5819 44.9885 43.6181 45.0125 43.6656C45.0369 43.713 45.0491 43.7706 45.0491 43.8382C45.0491 43.911 45.0353 43.9738 45.0075 44.0264C44.9803 44.079 44.9413 44.1194 44.8906 44.1476C44.8403 44.1758 44.7804 44.1899 44.7108 44.1899C44.6596 44.1899 44.6119 44.1805 44.5678 44.1617C44.5241 44.1429 44.4858 44.1147 44.4529 44.0771C44.42 44.0395 44.3944 43.9925 44.3761 43.9362C44.3578 43.8793 44.3486 43.8128 44.3486 43.7367ZM44.708 44.0532C44.7616 44.0532 44.8046 44.0358 44.837 44.001C44.8699 43.9658 44.8863 43.912 44.8863 43.8396C44.8863 43.7809 44.8718 43.7344 44.8426 43.7001C44.814 43.6658 44.7707 43.6486 44.713 43.6486C44.6735 43.6486 44.639 43.6571 44.6094 43.674C44.5798 43.6909 44.5567 43.7123 44.5403 43.7381C44.5243 43.764 44.5163 43.7903 44.5163 43.8171C44.5163 43.8443 44.5203 43.8718 44.5283 43.8995C44.5363 43.9272 44.5483 43.9528 44.5643 43.9763C44.5802 43.9994 44.6002 44.0179 44.6242 44.032C44.6481 44.0461 44.6761 44.0532 44.708 44.0532Z" fill="#212121"/>
<path d="M50.1144 34.793H49.9481V34.1298C49.9481 34.1077 49.9483 34.0856 49.9488 34.0636C49.9492 34.0415 49.9497 34.0199 49.9502 33.9987C49.9511 33.9776 49.9523 33.9574 49.9537 33.9381C49.9438 33.9489 49.9316 33.9607 49.9171 33.9734C49.903 33.986 49.8879 33.9992 49.872 34.0128L49.7536 34.1073L49.6704 34.0023L49.9763 33.7626H50.1144V34.793ZM50.5149 34.3539C50.5149 34.2933 50.5191 34.2336 50.5276 34.1749C50.5365 34.1162 50.5516 34.0612 50.5727 34.01C50.5938 33.9588 50.623 33.9137 50.6601 33.8747C50.6977 33.8357 50.7449 33.8052 50.8017 33.7831C50.8586 33.7605 50.9269 33.7493 51.0068 33.7493C51.0275 33.7493 51.0507 33.7502 51.0766 33.7521C51.1024 33.754 51.1238 33.757 51.1407 33.7612V33.8987C51.1224 33.8935 51.1022 33.8895 51.0801 33.8867C51.0585 33.8839 51.0369 33.8825 51.0153 33.8825C50.9288 33.8825 50.8614 33.8989 50.813 33.9318C50.7646 33.9642 50.7301 34.0088 50.7094 34.0657C50.6887 34.1221 50.6768 34.1867 50.6735 34.2595H50.6819C50.696 34.236 50.7136 34.2151 50.7348 34.1968C50.7559 34.1784 50.7818 34.1639 50.8123 34.1531C50.8429 34.1418 50.8783 34.1362 50.9187 34.1362C50.9789 34.1362 51.0313 34.1488 51.0759 34.1742C51.1205 34.1991 51.1548 34.2353 51.1788 34.2827C51.2032 34.3302 51.2154 34.3877 51.2154 34.4554C51.2154 34.5282 51.2016 34.5909 51.1738 34.6436C51.1466 34.6962 51.1076 34.7366 51.0569 34.7648C51.0066 34.793 50.9467 34.8071 50.8771 34.8071C50.8259 34.8071 50.7782 34.7977 50.7341 34.7789C50.6904 34.7601 50.6521 34.7319 50.6192 34.6943C50.5863 34.6567 50.5607 34.6097 50.5424 34.5534C50.5241 34.4965 50.5149 34.43 50.5149 34.3539ZM50.8743 34.6703C50.9279 34.6703 50.9709 34.653 51.0033 34.6182C51.0362 34.583 51.0526 34.5292 51.0526 34.4568C51.0526 34.3981 51.0381 34.3516 51.0089 34.3173C50.9803 34.283 50.9371 34.2658 50.8793 34.2658C50.8398 34.2658 50.8053 34.2743 50.7757 34.2912C50.7461 34.3081 50.723 34.3295 50.7066 34.3553C50.6906 34.3812 50.6826 34.4075 50.6826 34.4343C50.6826 34.4615 50.6866 34.489 50.6946 34.5167C50.7026 34.5444 50.7146 34.57 50.7306 34.5935C50.7465 34.6165 50.7665 34.6351 50.7905 34.6492C50.8144 34.6633 50.8424 34.6703 50.8743 34.6703ZM52.0973 34.2771C52.0973 34.3603 52.0907 34.4347 52.0775 34.5005C52.0649 34.5658 52.0447 34.6212 52.0169 34.6668C51.9892 34.7124 51.953 34.7472 51.9084 34.7711C51.8638 34.7951 51.8097 34.8071 51.7463 34.8071C51.6669 34.8071 51.6014 34.7862 51.5497 34.7443C51.498 34.7021 51.4597 34.6415 51.4348 34.5625C51.4099 34.4831 51.3975 34.388 51.3975 34.2771C51.3975 34.1662 51.4088 34.0713 51.4313 33.9924C51.4543 33.913 51.4914 33.8521 51.5427 33.8099C51.5939 33.7676 51.6618 33.7464 51.7463 33.7464C51.8262 33.7464 51.892 33.7676 51.9436 33.8099C51.9958 33.8517 52.0343 33.9123 52.0592 33.9917C52.0846 34.0706 52.0973 34.1658 52.0973 34.2771ZM51.5645 34.2771C51.5645 34.364 51.5701 34.4366 51.5814 34.4949C51.5932 34.5531 51.6124 34.5968 51.6392 34.6259C51.666 34.6546 51.7017 34.6689 51.7463 34.6689C51.791 34.6689 51.8267 34.6546 51.8534 34.6259C51.8802 34.5973 51.8995 34.5538 51.9112 34.4956C51.9234 34.4373 51.9296 34.3645 51.9296 34.2771C51.9296 34.1907 51.9237 34.1183 51.9119 34.06C51.9002 34.0018 51.8809 33.9581 51.8541 33.929C51.8274 33.8994 51.7914 33.8846 51.7463 33.8846C51.7012 33.8846 51.6653 33.8994 51.6385 33.929C51.6122 33.9581 51.5932 34.0018 51.5814 34.06C51.5701 34.1183 51.5645 34.1907 51.5645 34.2771ZM53.0207 34.5667H52.8812V34.793H52.7177V34.5667H52.249V34.4413L52.7198 33.7598H52.8812V34.4293H53.0207V34.5667ZM52.7177 34.4293V34.1735C52.7177 34.1524 52.7179 34.131 52.7184 34.1094C52.7193 34.0873 52.7203 34.0662 52.7212 34.0459C52.7221 34.0257 52.7231 34.0072 52.724 33.9903C52.725 33.9729 52.7257 33.9586 52.7261 33.9473H52.7205C52.7116 33.9661 52.7017 33.9853 52.6909 34.0051C52.6801 34.0243 52.6686 34.0431 52.6564 34.0615L52.4027 34.4293H52.7177Z" fill="#212121"/>
<path d="M57.8117 43.9336H57.6453V43.2704C57.6453 43.2484 57.6456 43.2263 57.646 43.2042C57.6465 43.1821 57.647 43.1605 57.6475 43.1394C57.6484 43.1182 57.6496 43.098 57.651 43.0787C57.6411 43.0896 57.6289 43.1013 57.6143 43.114C57.6002 43.1267 57.5852 43.1398 57.5692 43.1535L57.4508 43.2479L57.3677 43.1429L57.6735 42.9033H57.8117V43.9336ZM58.9085 43.4177C58.9085 43.5009 58.9019 43.5754 58.8887 43.6411C58.876 43.7064 58.8558 43.7619 58.8281 43.8074C58.8004 43.853 58.7642 43.8878 58.7196 43.9117C58.675 43.9357 58.6209 43.9477 58.5575 43.9477C58.4781 43.9477 58.4126 43.9268 58.3609 43.885C58.3092 43.8427 58.2709 43.7821 58.246 43.7031C58.2211 43.6237 58.2087 43.5286 58.2087 43.4177C58.2087 43.3068 58.2199 43.2119 58.2425 43.133C58.2655 43.0536 58.3026 42.9928 58.3538 42.9505C58.405 42.9082 58.4729 42.8871 58.5575 42.8871C58.6374 42.8871 58.7031 42.9082 58.7548 42.9505C58.807 42.9923 58.8455 43.0529 58.8704 43.1323C58.8958 43.2112 58.9085 43.3064 58.9085 43.4177ZM58.3757 43.4177C58.3757 43.5046 58.3813 43.5772 58.3926 43.6355C58.4043 43.6937 58.4236 43.7374 58.4504 43.7666C58.4772 43.7952 58.5129 43.8096 58.5575 43.8096C58.6021 43.8096 58.6378 43.7952 58.6646 43.7666C58.6914 43.7379 58.7107 43.6945 58.7224 43.6362C58.7346 43.5779 58.7407 43.5051 58.7407 43.4177C58.7407 43.3313 58.7349 43.2589 58.7231 43.2007C58.7114 43.1424 58.6921 43.0987 58.6653 43.0696C58.6385 43.04 58.6026 43.0252 58.5575 43.0252C58.5124 43.0252 58.4765 43.04 58.4497 43.0696C58.4234 43.0987 58.4043 43.1424 58.3926 43.2007C58.3813 43.2589 58.3757 43.3313 58.3757 43.4177ZM59.7945 43.4177C59.7945 43.5009 59.788 43.5754 59.7748 43.6411C59.7621 43.7064 59.7419 43.7619 59.7142 43.8074C59.6865 43.853 59.6503 43.8878 59.6057 43.9117C59.561 43.9357 59.507 43.9477 59.4436 43.9477C59.3642 43.9477 59.2986 43.9268 59.247 43.885C59.1953 43.8427 59.157 43.7821 59.1321 43.7031C59.1072 43.6237 59.0947 43.5286 59.0947 43.4177C59.0947 43.3068 59.106 43.2119 59.1286 43.133C59.1516 43.0536 59.1887 42.9928 59.2399 42.9505C59.2911 42.9082 59.359 42.8871 59.4436 42.8871C59.5235 42.8871 59.5892 42.9082 59.6409 42.9505C59.6931 42.9923 59.7316 43.0529 59.7565 43.1323C59.7819 43.2112 59.7945 43.3064 59.7945 43.4177ZM59.2618 43.4177C59.2618 43.5046 59.2674 43.5772 59.2787 43.6355C59.2904 43.6937 59.3097 43.7374 59.3365 43.7666C59.3632 43.7952 59.399 43.8096 59.4436 43.8096C59.4882 43.8096 59.5239 43.7952 59.5507 43.7666C59.5775 43.7379 59.5968 43.6945 59.6085 43.6362C59.6207 43.5779 59.6268 43.5051 59.6268 43.4177C59.6268 43.3313 59.6209 43.2589 59.6092 43.2007C59.5975 43.1424 59.5782 43.0987 59.5514 43.0696C59.5246 43.04 59.4887 43.0252 59.4436 43.0252C59.3985 43.0252 59.3625 43.04 59.3358 43.0696C59.3095 43.0987 59.2904 43.1424 59.2787 43.2007C59.2674 43.2589 59.2618 43.3313 59.2618 43.4177ZM60.6806 43.4177C60.6806 43.5009 60.6741 43.5754 60.6609 43.6411C60.6482 43.7064 60.628 43.7619 60.6003 43.8074C60.5726 43.853 60.5364 43.8878 60.4918 43.9117C60.4471 43.9357 60.3931 43.9477 60.3297 43.9477C60.2503 43.9477 60.1847 43.9268 60.1331 43.885C60.0814 43.8427 60.0431 43.7821 60.0182 43.7031C59.9933 43.6237 59.9808 43.5286 59.9808 43.4177C59.9808 43.3068 59.9921 43.2119 60.0147 43.133C60.0377 43.0536 60.0748 42.9928 60.126 42.9505C60.1772 42.9082 60.2451 42.8871 60.3297 42.8871C60.4095 42.8871 60.4753 42.9082 60.527 42.9505C60.5792 42.9923 60.6177 43.0529 60.6426 43.1323C60.6679 43.2112 60.6806 43.3064 60.6806 43.4177ZM60.1479 43.4177C60.1479 43.5046 60.1535 43.5772 60.1648 43.6355C60.1765 43.6937 60.1958 43.7374 60.2226 43.7666C60.2493 43.7952 60.285 43.8096 60.3297 43.8096C60.3743 43.8096 60.41 43.7952 60.4368 43.7666C60.4636 43.7379 60.4828 43.6945 60.4946 43.6362C60.5068 43.5779 60.5129 43.5051 60.5129 43.4177C60.5129 43.3313 60.507 43.2589 60.4953 43.2007C60.4835 43.1424 60.4643 43.0987 60.4375 43.0696C60.4107 43.04 60.3748 43.0252 60.3297 43.0252C60.2846 43.0252 60.2486 43.04 60.2219 43.0696C60.1955 43.0987 60.1765 43.1424 60.1648 43.2007C60.1535 43.2589 60.1479 43.3313 60.1479 43.4177Z" fill="#212121"/>
<path d="M66.8074 58.4986C66.8074 58.5596 66.803 58.6196 66.794 58.6783C66.7856 58.737 66.7706 58.792 66.7489 58.8432C66.7278 58.8944 66.6984 58.9397 66.6609 58.9792C66.6237 59.0182 66.5768 59.0487 66.5199 59.0708C66.4631 59.0929 66.3945 59.1039 66.3141 59.1039C66.2939 59.1039 66.2704 59.1028 66.2437 59.1004C66.2173 59.0985 66.1957 59.0957 66.1788 59.092V58.9538C66.1967 58.959 66.2166 58.9632 66.2387 58.9665C66.2613 58.9693 66.2836 58.9707 66.3057 58.9707C66.3926 58.9707 66.4602 58.9545 66.5086 58.9221C66.5575 58.8897 66.592 58.8451 66.6122 58.7882C66.6329 58.7314 66.6446 58.6668 66.6475 58.5944H66.639C66.6254 58.617 66.6082 58.6376 66.5876 58.6564C66.5669 58.6748 66.5413 58.6896 66.5107 58.7008C66.4802 58.7116 66.4431 58.717 66.3994 58.717C66.3402 58.717 66.2885 58.7046 66.2444 58.6797C66.2007 58.6548 66.1666 58.6186 66.1422 58.5712C66.1182 58.5232 66.1062 58.4657 66.1062 58.3985C66.1062 58.3257 66.1201 58.263 66.1478 58.2103C66.1755 58.1577 66.2148 58.1173 66.2655 58.0891C66.3162 58.0605 66.3759 58.0461 66.4445 58.0461C66.4962 58.0461 66.5439 58.0555 66.5876 58.0743C66.6317 58.0926 66.6703 58.1208 66.7031 58.1589C66.736 58.1965 66.7616 58.2437 66.78 58.3005C66.7983 58.3569 66.8074 58.4229 66.8074 58.4986ZM66.4466 58.1828C66.3945 58.1828 66.3519 58.2005 66.3191 58.2357C66.2862 58.2705 66.2697 58.324 66.2697 58.3964C66.2697 58.4551 66.2838 58.5016 66.312 58.5359C66.3402 58.5702 66.3834 58.5874 66.4417 58.5874C66.4821 58.5874 66.5169 58.5791 66.546 58.5627C66.5756 58.5458 66.5984 58.5244 66.6143 58.4986C66.6308 58.4727 66.639 58.4464 66.639 58.4196C66.639 58.3919 66.635 58.3642 66.627 58.3365C66.6195 58.3088 66.6078 58.2834 66.5918 58.2604C66.5758 58.2373 66.5556 58.2188 66.5312 58.2047C66.5072 58.1901 66.479 58.1828 66.4466 58.1828ZM67.3447 58.0454C67.4044 58.0454 67.4581 58.0548 67.5061 58.0736C67.554 58.0919 67.592 58.1194 67.6202 58.1561C67.6484 58.1927 67.6625 58.2381 67.6625 58.2921C67.6625 58.3339 67.6538 58.3703 67.6364 58.4013C67.6195 58.4323 67.5965 58.4596 67.5674 58.4831C67.5383 58.5061 67.5056 58.5265 67.4694 58.5444C67.5098 58.5641 67.5469 58.5869 67.5808 58.6127C67.6151 58.6381 67.6426 58.6679 67.6632 58.7022C67.6844 58.7365 67.6949 58.7767 67.6949 58.8227C67.6949 58.8805 67.6801 58.9306 67.6505 58.9729C67.6214 59.0147 67.5808 59.0471 67.5286 59.0701C67.4765 59.0927 67.4156 59.1039 67.3461 59.1039C67.2714 59.1039 67.2077 59.0929 67.1551 59.0708C67.1025 59.0487 67.0626 59.0173 67.0353 58.9764C67.0081 58.935 66.9944 58.8857 66.9944 58.8284C66.9944 58.7809 67.0038 58.7398 67.0226 58.7051C67.0414 58.6703 67.0665 58.6402 67.098 58.6149C67.13 58.5895 67.165 58.5681 67.203 58.5507C67.1706 58.5315 67.141 58.5098 67.1142 58.4859C67.0875 58.4615 67.0661 58.4335 67.0501 58.402C67.0346 58.3701 67.0268 58.3332 67.0268 58.2914C67.0268 58.2378 67.0412 58.1929 67.0698 58.1568C67.0985 58.1201 67.1368 58.0924 67.1847 58.0736C67.2331 58.0548 67.2864 58.0454 67.3447 58.0454ZM67.1523 58.822C67.1523 58.8671 67.1683 58.9043 67.2002 58.9334C67.2322 58.9625 67.2798 58.9771 67.3433 58.9771C67.4062 58.9771 67.4542 58.9628 67.487 58.9341C67.5199 58.9054 67.5364 58.8676 67.5364 58.8206C67.5364 58.7906 67.5279 58.764 67.511 58.741C67.4946 58.718 67.4722 58.6975 67.4441 58.6797C67.4163 58.6614 67.3856 58.6445 67.3517 58.6289L67.3292 58.6198C67.2925 58.6353 67.2611 58.6529 67.2347 58.6726C67.2084 58.6919 67.188 58.7137 67.1734 58.7382C67.1593 58.7626 67.1523 58.7906 67.1523 58.822ZM67.3433 58.173C67.2977 58.173 67.2601 58.1843 67.2305 58.2068C67.2014 58.2289 67.1868 58.2608 67.1868 58.3027C67.1868 58.3323 67.1939 58.3576 67.208 58.3788C67.2225 58.3999 67.242 58.4182 67.2665 58.4337C67.2909 58.4488 67.3179 58.4629 67.3475 58.476C67.3762 58.4633 67.402 58.4495 67.425 58.4344C67.4485 58.4189 67.4671 58.4006 67.4807 58.3795C67.4948 58.3579 67.5018 58.332 67.5018 58.3019C67.5018 58.2606 67.487 58.2289 67.4574 58.2068C67.4283 58.1843 67.3903 58.173 67.3433 58.173Z" fill="#212121"/>
<path d="M73.6876 41.0469H73.5213V40.3837C73.5213 40.3616 73.5215 40.3396 73.522 40.3175C73.5225 40.2954 73.523 40.2738 73.5234 40.2526C73.5244 40.2315 73.5255 40.2113 73.527 40.192C73.5171 40.2028 73.5049 40.2146 73.4903 40.2273C73.4762 40.24 73.4612 40.2531 73.4452 40.2667L73.3268 40.3612L73.2436 40.2562L73.5495 40.0166H73.6876V41.0469ZM74.7844 41.0469H74.0867V40.9221L74.3538 40.6515C74.4055 40.5989 74.448 40.5536 74.4814 40.5155C74.5148 40.477 74.5394 40.4406 74.5554 40.4063C74.5718 40.372 74.5801 40.3346 74.5801 40.2942C74.5801 40.2444 74.5657 40.2068 74.5371 40.1815C74.5084 40.1556 74.4706 40.1427 74.4236 40.1427C74.379 40.1427 74.3376 40.1516 74.2996 40.1695C74.262 40.1869 74.223 40.2118 74.1826 40.2442L74.0917 40.1349C74.1203 40.1105 74.1509 40.0882 74.1833 40.068C74.2162 40.0478 74.2528 40.0318 74.2932 40.0201C74.3336 40.0079 74.3797 40.0018 74.4314 40.0018C74.4967 40.0018 74.553 40.0135 74.6005 40.037C74.648 40.06 74.6844 40.0922 74.7097 40.1335C74.7356 40.1749 74.7485 40.223 74.7485 40.278C74.7485 40.3334 74.7375 40.3847 74.7154 40.4316C74.6933 40.4786 74.6618 40.5251 74.6209 40.5712C74.5801 40.6168 74.5314 40.6663 74.4751 40.7199L74.2968 40.8939V40.9017H74.7844V41.0469ZM75.6705 40.531C75.6705 40.6142 75.6639 40.6886 75.6508 40.7544C75.6381 40.8197 75.6179 40.8752 75.5902 40.9207C75.5625 40.9663 75.5263 41.0011 75.4817 41.025C75.437 41.049 75.383 41.061 75.3196 41.061C75.2402 41.061 75.1746 41.0401 75.1229 40.9982C75.0713 40.956 75.033 40.8954 75.0081 40.8164C74.9832 40.737 74.9707 40.6419 74.9707 40.531C74.9707 40.4201 74.982 40.3252 75.0045 40.2463C75.0276 40.1669 75.0647 40.1061 75.1159 40.0638C75.1671 40.0215 75.235 40.0003 75.3196 40.0003C75.3994 40.0003 75.4652 40.0215 75.5169 40.0638C75.569 40.1056 75.6076 40.1662 75.6325 40.2456C75.6578 40.3245 75.6705 40.4197 75.6705 40.531ZM75.1377 40.531C75.1377 40.6179 75.1434 40.6905 75.1547 40.7488C75.1664 40.807 75.1857 40.8507 75.2124 40.8799C75.2392 40.9085 75.2749 40.9228 75.3196 40.9228C75.3642 40.9228 75.3999 40.9085 75.4267 40.8799C75.4535 40.8512 75.4727 40.8077 75.4845 40.7495C75.4967 40.6912 75.5028 40.6184 75.5028 40.531C75.5028 40.4446 75.4969 40.3722 75.4852 40.3139C75.4734 40.2557 75.4542 40.212 75.4274 40.1829C75.4006 40.1533 75.3647 40.1385 75.3196 40.1385C75.2745 40.1385 75.2385 40.1533 75.2117 40.1829C75.1854 40.212 75.1664 40.2557 75.1547 40.3139C75.1434 40.3722 75.1377 40.4446 75.1377 40.531ZM76.2092 40.4027C76.2754 40.4027 76.3337 40.4147 76.384 40.4387C76.4347 40.4622 76.4742 40.4969 76.5023 40.543C76.5305 40.5886 76.5446 40.6445 76.5446 40.7107C76.5446 40.7831 76.5294 40.8456 76.4988 40.8982C76.4683 40.9503 76.4234 40.9905 76.3642 41.0187C76.305 41.0469 76.2329 41.061 76.1479 41.061C76.0938 41.061 76.0433 41.0563 75.9963 41.0469C75.9498 41.0375 75.9097 41.0234 75.8758 41.0046V40.8552C75.9111 40.8749 75.9534 40.8911 76.0027 40.9038C76.052 40.916 76.0992 40.9221 76.1443 40.9221C76.1923 40.9221 76.2334 40.9151 76.2677 40.901C76.302 40.8869 76.3283 40.8653 76.3466 40.8362C76.3654 40.807 76.3748 40.7701 76.3748 40.7255C76.3748 40.6663 76.3558 40.6207 76.3177 40.5888C76.2801 40.5564 76.2212 40.5402 76.1408 40.5402C76.1126 40.5402 76.0826 40.5428 76.0506 40.5479C76.0191 40.5526 75.9928 40.5578 75.9717 40.5634L75.8991 40.5204L75.9379 40.0166H76.4735V40.1624H76.0837L76.0612 40.419C76.0781 40.4152 76.0983 40.4117 76.1218 40.4084C76.1453 40.4046 76.1744 40.4027 76.2092 40.4027Z" fill="#212121"/>
<defs>
<filter id="filter0_d_7927_92204" x="30.5219" y="23.0505" width="8.90056" height="6.93473" filterUnits="userSpaceOnUse" color-interpolation-filters="sRGB">
<feFlood flood-opacity="0" result="BackgroundImageFix"/>
<feColorMatrix in="SourceAlpha" type="matrix" values="0 0 0 0 0 0 0 0 0 0 0 0 0 0 0 0 0 0 127 0" result="hardAlpha"/>
<feOffset dy="0.24055"/>
<feGaussianBlur stdDeviation="0.962199"/>
<feColorMatrix type="matrix" values="0 0 0 0 0.293333 0 0 0 0 0.333211 0 0 0 0 0.431373 0 0 0 0.2 0"/>
<feBlend mode="normal" in2="BackgroundImageFix" result="effect1_dropShadow_7927_92204"/>
<feBlend mode="normal" in="SourceGraphic" in2="effect1_dropShadow_7927_92204" result="shape"/>
</filter>
<filter id="filter1_d_7927_92204" x="22.8236" y="40.1326" width="8.90056" height="6.93473" filterUnits="userSpaceOnUse" color-interpolation-filters="sRGB">
<feFlood flood-opacity="0" result="BackgroundImageFix"/>
<feColorMatrix in="SourceAlpha" type="matrix" values="0 0 0 0 0 0 0 0 0 0 0 0 0 0 0 0 0 0 127 0" result="hardAlpha"/>
<feOffset dy="0.24055"/>
<feGaussianBlur stdDeviation="0.962199"/>
<feColorMatrix type="matrix" values="0 0 0 0 0.293333 0 0 0 0 0.333211 0 0 0 0 0.431373 0 0 0 0.2 0"/>
<feBlend mode="normal" in2="BackgroundImageFix" result="effect1_dropShadow_7927_92204"/>
<feBlend mode="normal" in="SourceGraphic" in2="effect1_dropShadow_7927_92204" result="shape"/>
</filter>
<filter id="filter2_d_7927_92204" x="38.7006" y="40.3708" width="8.90056" height="6.93473" filterUnits="userSpaceOnUse" color-interpolation-filters="sRGB">
<feFlood flood-opacity="0" result="BackgroundImageFix"/>
<feColorMatrix in="SourceAlpha" type="matrix" values="0 0 0 0 0 0 0 0 0 0 0 0 0 0 0 0 0 0 127 0" result="hardAlpha"/>
<feOffset dy="0.24055"/>
<feGaussianBlur stdDeviation="0.962199"/>
<feColorMatrix type="matrix" values="0 0 0 0 0.293333 0 0 0 0 0.333211 0 0 0 0 0.431373 0 0 0 0.2 0"/>
<feBlend mode="normal" in2="BackgroundImageFix" result="effect1_dropShadow_7927_92204"/>
<feBlend mode="normal" in="SourceGraphic" in2="effect1_dropShadow_7927_92204" result="shape"/>
</filter>
<filter id="filter3_d_7927_92204" x="46.6381" y="30.9919" width="8.90056" height="6.93473" filterUnits="userSpaceOnUse" color-interpolation-filters="sRGB">
<feFlood flood-opacity="0" result="BackgroundImageFix"/>
<feColorMatrix in="SourceAlpha" type="matrix" values="0 0 0 0 0 0 0 0 0 0 0 0 0 0 0 0 0 0 127 0" result="hardAlpha"/>
<feOffset dy="0.24055"/>
<feGaussianBlur stdDeviation="0.962199"/>
<feColorMatrix type="matrix" values="0 0 0 0 0.293333 0 0 0 0 0.333211 0 0 0 0 0.431373 0 0 0 0.2 0"/>
<feBlend mode="normal" in2="BackgroundImageFix" result="effect1_dropShadow_7927_92204"/>
<feBlend mode="normal" in="SourceGraphic" in2="effect1_dropShadow_7927_92204" result="shape"/>
</filter>
<filter id="filter4_d_7927_92204" x="54.3363" y="40.1326" width="8.90056" height="6.93473" filterUnits="userSpaceOnUse" color-interpolation-filters="sRGB">
<feFlood flood-opacity="0" result="BackgroundImageFix"/>
<feColorMatrix in="SourceAlpha" type="matrix" values="0 0 0 0 0 0 0 0 0 0 0 0 0 0 0 0 0 0 127 0" result="hardAlpha"/>
<feOffset dy="0.24055"/>
<feGaussianBlur stdDeviation="0.962199"/>
<feColorMatrix type="matrix" values="0 0 0 0 0.293333 0 0 0 0 0.333211 0 0 0 0 0.431373 0 0 0 0.2 0"/>
<feBlend mode="normal" in2="BackgroundImageFix" result="effect1_dropShadow_7927_92204"/>
<feBlend mode="normal" in="SourceGraphic" in2="effect1_dropShadow_7927_92204" result="shape"/>
</filter>
<filter id="filter5_d_7927_92204" x="62.5151" y="55.2849" width="8.90056" height="6.93473" filterUnits="userSpaceOnUse" color-interpolation-filters="sRGB">
<feFlood flood-opacity="0" result="BackgroundImageFix"/>
<feColorMatrix in="SourceAlpha" type="matrix" values="0 0 0 0 0 0 0 0 0 0 0 0 0 0 0 0 0 0 127 0" result="hardAlpha"/>
<feOffset dy="0.24055"/>
<feGaussianBlur stdDeviation="0.962199"/>
<feColorMatrix type="matrix" values="0 0 0 0 0.293333 0 0 0 0 0.333211 0 0 0 0 0.431373 0 0 0 0.2 0"/>
<feBlend mode="normal" in2="BackgroundImageFix" result="effect1_dropShadow_7927_92204"/>
<feBlend mode="normal" in="SourceGraphic" in2="effect1_dropShadow_7927_92204" result="shape"/>
</filter>
<filter id="filter6_d_7927_92204" x="70.2123" y="37.2458" width="8.90056" height="6.93473" filterUnits="userSpaceOnUse" color-interpolation-filters="sRGB">
<feFlood flood-opacity="0" result="BackgroundImageFix"/>
<feColorMatrix in="SourceAlpha" type="matrix" values="0 0 0 0 0 0 0 0 0 0 0 0 0 0 0 0 0 0 127 0" result="hardAlpha"/>
<feOffset dy="0.24055"/>
<feGaussianBlur stdDeviation="0.962199"/>
<feColorMatrix type="matrix" values="0 0 0 0 0.293333 0 0 0 0 0.333211 0 0 0 0 0.431373 0 0 0 0.2 0"/>
<feBlend mode="normal" in2="BackgroundImageFix" result="effect1_dropShadow_7927_92204"/>
<feBlend mode="normal" in="SourceGraphic" in2="effect1_dropShadow_7927_92204" result="shape"/>
</filter>
</defs>
</svg>
