<svg width="93" height="92" viewBox="0 0 93 92" fill="none" xmlns="http://www.w3.org/2000/svg">
<rect x="1.13104" y="0.389831" width="91.079" height="91.2203" rx="17.5424" stroke="#BEBEBE" stroke-width="0.779661"/>
<rect width="70" height="60.7317" transform="translate(11.999 16)" fill="white"/>
<path d="M29.6818 68.9247C29.6818 68.9921 29.7364 69.0467 29.8037 69.0467C29.8711 69.0467 29.9257 68.9921 29.9257 68.9247H29.6818ZM29.8037 21.8516H29.6818V22.0967H29.8037H29.9257V21.8516H29.8037ZM29.8037 22.5871H29.6818V23.0774H29.8037H29.9257V22.5871H29.8037ZM29.8037 23.5678H29.6818V24.0581H29.8037H29.9257V23.5678H29.8037ZM29.8037 24.5485H29.6818V25.0388H29.8037H29.9257V24.5485H29.8037ZM29.8037 25.5292H29.6818V26.0195H29.8037H29.9257V25.5292H29.8037ZM29.8037 26.5098H29.6818V27.0002H29.8037H29.9257V26.5098H29.8037ZM29.8037 27.4905H29.6818V27.9809H29.8037H29.9257V27.4905H29.8037ZM29.8037 28.4712H29.6818V28.9616H29.8037H29.9257V28.4712H29.8037ZM29.8037 29.4519H29.6818V29.9423H29.8037H29.9257V29.4519H29.8037ZM29.8037 30.4326H29.6818V30.923H29.8037H29.9257V30.4326H29.8037ZM29.8037 31.4133H29.6818V31.9036H29.8037H29.9257V31.4133H29.8037ZM29.8037 32.394H29.6818V32.8843H29.8037H29.9257V32.394H29.8037ZM29.8037 33.3747H29.6818V33.865H29.8037H29.9257V33.3747H29.8037ZM29.8037 34.3554H29.6818V34.8457H29.8037H29.9257V34.3554H29.8037ZM29.8037 35.3361H29.6818V35.8264H29.8037H29.9257V35.3361H29.8037ZM29.8037 36.3168H29.6818V36.8071H29.8037H29.9257V36.3168H29.8037ZM29.8037 37.2975H29.6818V37.7878H29.8037H29.9257V37.2975H29.8037ZM29.8037 38.2781H29.6818V38.7685H29.8037H29.9257V38.2781H29.8037ZM29.8037 39.2588H29.6818V39.7492H29.8037H29.9257V39.2588H29.8037ZM29.8037 40.2395H29.6818V40.7299H29.8037H29.9257V40.2395H29.8037ZM29.8037 41.2202H29.6818V41.7106H29.8037H29.9257V41.2202H29.8037ZM29.8037 42.2009H29.6818V42.6912H29.8037H29.9257V42.2009H29.8037ZM29.8037 43.1816H29.6818V43.6719H29.8037H29.9257V43.1816H29.8037ZM29.8037 44.1623H29.6818V44.6526H29.8037H29.9257V44.1623H29.8037ZM29.8037 45.143H29.6818V45.6333H29.8037H29.9257V45.143H29.8037ZM29.8037 46.1237H29.6818V46.614H29.8037H29.9257V46.1237H29.8037ZM29.8037 47.1044H29.6818V47.5947H29.8037H29.9257V47.1044H29.8037ZM29.8037 48.085H29.6818V48.5754H29.8037H29.9257V48.085H29.8037ZM29.8037 49.0657H29.6818V49.5561H29.8037H29.9257V49.0657H29.8037ZM29.8037 50.0464H29.6818V50.5368H29.8037H29.9257V50.0464H29.8037ZM29.8037 51.0271H29.6818V51.5175H29.8037H29.9257V51.0271H29.8037ZM29.8037 52.0078H29.6818V52.4981H29.8037H29.9257V52.0078H29.8037ZM29.8037 52.9885H29.6818V53.4788H29.8037H29.9257V52.9885H29.8037ZM29.8037 53.9692H29.6818V54.4595H29.8037H29.9257V53.9692H29.8037ZM29.8037 54.9499H29.6818V55.4402H29.8037H29.9257V54.9499H29.8037ZM29.8037 55.9306H29.6818V56.4209H29.8037H29.9257V55.9306H29.8037ZM29.8037 56.9113H29.6818V57.4016H29.8037H29.9257V56.9113H29.8037ZM29.8037 57.8919H29.6818V58.3823H29.8037H29.9257V57.8919H29.8037ZM29.8037 58.8726H29.6818V59.363H29.8037H29.9257V58.8726H29.8037ZM29.8037 59.8533H29.6818V60.3437H29.8037H29.9257V59.8533H29.8037ZM29.8037 60.834H29.6818V61.3244H29.8037H29.9257V60.834H29.8037ZM29.8037 61.8147H29.6818V62.305H29.8037H29.9257V61.8147H29.8037ZM29.8037 62.7954H29.6818V63.2857H29.8037H29.9257V62.7954H29.8037ZM29.8037 63.7761H29.6818V64.2664H29.8037H29.9257V63.7761H29.8037ZM29.8037 64.7568H29.6818V65.2471H29.8037H29.9257V64.7568H29.8037ZM29.8037 65.7375H29.6818V66.2278H29.8037H29.9257V65.7375H29.8037ZM29.8037 66.7182H29.6818V67.2085H29.8037H29.9257V66.7182H29.8037ZM29.8037 67.6988H29.6818V68.1892H29.8037H29.9257V67.6988H29.8037ZM29.8037 68.6795H29.6818V68.9247H29.8037H29.9257V68.6795H29.8037Z" fill="#E0E0E0"/>
<path d="M37.7306 68.9247C37.7306 68.9921 37.7852 69.0467 37.8525 69.0467C37.9199 69.0467 37.9745 68.9921 37.9745 68.9247H37.7306ZM37.8525 21.8516H37.7306V22.0967H37.8525H37.9745V21.8516H37.8525ZM37.8525 22.5871H37.7306V23.0774H37.8525H37.9745V22.5871H37.8525ZM37.8525 23.5678H37.7306V24.0581H37.8525H37.9745V23.5678H37.8525ZM37.8525 24.5485H37.7306V25.0388H37.8525H37.9745V24.5485H37.8525ZM37.8525 25.5292H37.7306V26.0195H37.8525H37.9745V25.5292H37.8525ZM37.8525 26.5098H37.7306V27.0002H37.8525H37.9745V26.5098H37.8525ZM37.8525 27.4905H37.7306V27.9809H37.8525H37.9745V27.4905H37.8525ZM37.8525 28.4712H37.7306V28.9616H37.8525H37.9745V28.4712H37.8525ZM37.8525 29.4519H37.7306V29.9423H37.8525H37.9745V29.4519H37.8525ZM37.8525 30.4326H37.7306V30.923H37.8525H37.9745V30.4326H37.8525ZM37.8525 31.4133H37.7306V31.9036H37.8525H37.9745V31.4133H37.8525ZM37.8525 32.394H37.7306V32.8843H37.8525H37.9745V32.394H37.8525ZM37.8525 33.3747H37.7306V33.865H37.8525H37.9745V33.3747H37.8525ZM37.8525 34.3554H37.7306V34.8457H37.8525H37.9745V34.3554H37.8525ZM37.8525 35.3361H37.7306V35.8264H37.8525H37.9745V35.3361H37.8525ZM37.8525 36.3168H37.7306V36.8071H37.8525H37.9745V36.3168H37.8525ZM37.8525 37.2975H37.7306V37.7878H37.8525H37.9745V37.2975H37.8525ZM37.8525 38.2781H37.7306V38.7685H37.8525H37.9745V38.2781H37.8525ZM37.8525 39.2588H37.7306V39.7492H37.8525H37.9745V39.2588H37.8525ZM37.8525 40.2395H37.7306V40.7299H37.8525H37.9745V40.2395H37.8525ZM37.8525 41.2202H37.7306V41.7106H37.8525H37.9745V41.2202H37.8525ZM37.8525 42.2009H37.7306V42.6912H37.8525H37.9745V42.2009H37.8525ZM37.8525 43.1816H37.7306V43.6719H37.8525H37.9745V43.1816H37.8525ZM37.8525 44.1623H37.7306V44.6526H37.8525H37.9745V44.1623H37.8525ZM37.8525 45.143H37.7306V45.6333H37.8525H37.9745V45.143H37.8525ZM37.8525 46.1237H37.7306V46.614H37.8525H37.9745V46.1237H37.8525ZM37.8525 47.1044H37.7306V47.5947H37.8525H37.9745V47.1044H37.8525ZM37.8525 48.085H37.7306V48.5754H37.8525H37.9745V48.085H37.8525ZM37.8525 49.0657H37.7306V49.5561H37.8525H37.9745V49.0657H37.8525ZM37.8525 50.0464H37.7306V50.5368H37.8525H37.9745V50.0464H37.8525ZM37.8525 51.0271H37.7306V51.5175H37.8525H37.9745V51.0271H37.8525ZM37.8525 52.0078H37.7306V52.4981H37.8525H37.9745V52.0078H37.8525ZM37.8525 52.9885H37.7306V53.4788H37.8525H37.9745V52.9885H37.8525ZM37.8525 53.9692H37.7306V54.4595H37.8525H37.9745V53.9692H37.8525ZM37.8525 54.9499H37.7306V55.4402H37.8525H37.9745V54.9499H37.8525ZM37.8525 55.9306H37.7306V56.4209H37.8525H37.9745V55.9306H37.8525ZM37.8525 56.9113H37.7306V57.4016H37.8525H37.9745V56.9113H37.8525ZM37.8525 57.8919H37.7306V58.3823H37.8525H37.9745V57.8919H37.8525ZM37.8525 58.8726H37.7306V59.363H37.8525H37.9745V58.8726H37.8525ZM37.8525 59.8533H37.7306V60.3437H37.8525H37.9745V59.8533H37.8525ZM37.8525 60.834H37.7306V61.3244H37.8525H37.9745V60.834H37.8525ZM37.8525 61.8147H37.7306V62.305H37.8525H37.9745V61.8147H37.8525ZM37.8525 62.7954H37.7306V63.2857H37.8525H37.9745V62.7954H37.8525ZM37.8525 63.7761H37.7306V64.2664H37.8525H37.9745V63.7761H37.8525ZM37.8525 64.7568H37.7306V65.2471H37.8525H37.9745V64.7568H37.8525ZM37.8525 65.7375H37.7306V66.2278H37.8525H37.9745V65.7375H37.8525ZM37.8525 66.7182H37.7306V67.2085H37.8525H37.9745V66.7182H37.8525ZM37.8525 67.6988H37.7306V68.1892H37.8525H37.9745V67.6988H37.8525ZM37.8525 68.6795H37.7306V68.9247H37.8525H37.9745V68.6795H37.8525Z" fill="#E0E0E0"/>
<path d="M45.7794 68.9247C45.7794 68.9921 45.834 69.0467 45.9014 69.0467C45.9687 69.0467 46.0233 68.9921 46.0233 68.9247H45.7794ZM45.9014 21.8516H45.7794V22.0967H45.9014H46.0233V21.8516H45.9014ZM45.9014 22.5871H45.7794V23.0774H45.9014H46.0233V22.5871H45.9014ZM45.9014 23.5678H45.7794V24.0581H45.9014H46.0233V23.5678H45.9014ZM45.9014 24.5485H45.7794V25.0388H45.9014H46.0233V24.5485H45.9014ZM45.9014 25.5292H45.7794V26.0195H45.9014H46.0233V25.5292H45.9014ZM45.9014 26.5098H45.7794V27.0002H45.9014H46.0233V26.5098H45.9014ZM45.9014 27.4905H45.7794V27.9809H45.9014H46.0233V27.4905H45.9014ZM45.9014 28.4712H45.7794V28.9616H45.9014H46.0233V28.4712H45.9014ZM45.9014 29.4519H45.7794V29.9423H45.9014H46.0233V29.4519H45.9014ZM45.9014 30.4326H45.7794V30.923H45.9014H46.0233V30.4326H45.9014ZM45.9014 31.4133H45.7794V31.9036H45.9014H46.0233V31.4133H45.9014ZM45.9014 32.394H45.7794V32.8843H45.9014H46.0233V32.394H45.9014ZM45.9014 33.3747H45.7794V33.865H45.9014H46.0233V33.3747H45.9014ZM45.9014 34.3554H45.7794V34.8457H45.9014H46.0233V34.3554H45.9014ZM45.9014 35.3361H45.7794V35.8264H45.9014H46.0233V35.3361H45.9014ZM45.9014 36.3168H45.7794V36.8071H45.9014H46.0233V36.3168H45.9014ZM45.9014 37.2975H45.7794V37.7878H45.9014H46.0233V37.2975H45.9014ZM45.9014 38.2781H45.7794V38.7685H45.9014H46.0233V38.2781H45.9014ZM45.9014 39.2588H45.7794V39.7492H45.9014H46.0233V39.2588H45.9014ZM45.9014 40.2395H45.7794V40.7299H45.9014H46.0233V40.2395H45.9014ZM45.9014 41.2202H45.7794V41.7106H45.9014H46.0233V41.2202H45.9014ZM45.9014 42.2009H45.7794V42.6912H45.9014H46.0233V42.2009H45.9014ZM45.9014 43.1816H45.7794V43.6719H45.9014H46.0233V43.1816H45.9014ZM45.9014 44.1623H45.7794V44.6526H45.9014H46.0233V44.1623H45.9014ZM45.9014 45.143H45.7794V45.6333H45.9014H46.0233V45.143H45.9014ZM45.9014 46.1237H45.7794V46.614H45.9014H46.0233V46.1237H45.9014ZM45.9014 47.1044H45.7794V47.5947H45.9014H46.0233V47.1044H45.9014ZM45.9014 48.085H45.7794V48.5754H45.9014H46.0233V48.085H45.9014ZM45.9014 49.0657H45.7794V49.5561H45.9014H46.0233V49.0657H45.9014ZM45.9014 50.0464H45.7794V50.5368H45.9014H46.0233V50.0464H45.9014ZM45.9014 51.0271H45.7794V51.5175H45.9014H46.0233V51.0271H45.9014ZM45.9014 52.0078H45.7794V52.4981H45.9014H46.0233V52.0078H45.9014ZM45.9014 52.9885H45.7794V53.4788H45.9014H46.0233V52.9885H45.9014ZM45.9014 53.9692H45.7794V54.4595H45.9014H46.0233V53.9692H45.9014ZM45.9014 54.9499H45.7794V55.4402H45.9014H46.0233V54.9499H45.9014ZM45.9014 55.9306H45.7794V56.4209H45.9014H46.0233V55.9306H45.9014ZM45.9014 56.9113H45.7794V57.4016H45.9014H46.0233V56.9113H45.9014ZM45.9014 57.8919H45.7794V58.3823H45.9014H46.0233V57.8919H45.9014ZM45.9014 58.8726H45.7794V59.363H45.9014H46.0233V58.8726H45.9014ZM45.9014 59.8533H45.7794V60.3437H45.9014H46.0233V59.8533H45.9014ZM45.9014 60.834H45.7794V61.3244H45.9014H46.0233V60.834H45.9014ZM45.9014 61.8147H45.7794V62.305H45.9014H46.0233V61.8147H45.9014ZM45.9014 62.7954H45.7794V63.2857H45.9014H46.0233V62.7954H45.9014ZM45.9014 63.7761H45.7794V64.2664H45.9014H46.0233V63.7761H45.9014ZM45.9014 64.7568H45.7794V65.2471H45.9014H46.0233V64.7568H45.9014ZM45.9014 65.7375H45.7794V66.2278H45.9014H46.0233V65.7375H45.9014ZM45.9014 66.7182H45.7794V67.2085H45.9014H46.0233V66.7182H45.9014ZM45.9014 67.6988H45.7794V68.1892H45.9014H46.0233V67.6988H45.9014ZM45.9014 68.6795H45.7794V68.9247H45.9014H46.0233V68.6795H45.9014Z" fill="#E0E0E0"/>
<path d="M53.8282 68.9247C53.8282 68.9921 53.8828 69.0467 53.9502 69.0467C54.0175 69.0467 54.0721 68.9921 54.0721 68.9247H53.8282ZM53.9502 21.8516H53.8282V22.0967H53.9502H54.0721V21.8516H53.9502ZM53.9502 22.5871H53.8282V23.0774H53.9502H54.0721V22.5871H53.9502ZM53.9502 23.5678H53.8282V24.0581H53.9502H54.0721V23.5678H53.9502ZM53.9502 24.5485H53.8282V25.0388H53.9502H54.0721V24.5485H53.9502ZM53.9502 25.5292H53.8282V26.0195H53.9502H54.0721V25.5292H53.9502ZM53.9502 26.5098H53.8282V27.0002H53.9502H54.0721V26.5098H53.9502ZM53.9502 27.4905H53.8282V27.9809H53.9502H54.0721V27.4905H53.9502ZM53.9502 28.4712H53.8282V28.9616H53.9502H54.0721V28.4712H53.9502ZM53.9502 29.4519H53.8282V29.9423H53.9502H54.0721V29.4519H53.9502ZM53.9502 30.4326H53.8282V30.923H53.9502H54.0721V30.4326H53.9502ZM53.9502 31.4133H53.8282V31.9036H53.9502H54.0721V31.4133H53.9502ZM53.9502 32.394H53.8282V32.8843H53.9502H54.0721V32.394H53.9502ZM53.9502 33.3747H53.8282V33.865H53.9502H54.0721V33.3747H53.9502ZM53.9502 34.3554H53.8282V34.8457H53.9502H54.0721V34.3554H53.9502ZM53.9502 35.3361H53.8282V35.8264H53.9502H54.0721V35.3361H53.9502ZM53.9502 36.3168H53.8282V36.8071H53.9502H54.0721V36.3168H53.9502ZM53.9502 37.2975H53.8282V37.7878H53.9502H54.0721V37.2975H53.9502ZM53.9502 38.2781H53.8282V38.7685H53.9502H54.0721V38.2781H53.9502ZM53.9502 39.2588H53.8282V39.7492H53.9502H54.0721V39.2588H53.9502ZM53.9502 40.2395H53.8282V40.7299H53.9502H54.0721V40.2395H53.9502ZM53.9502 41.2202H53.8282V41.7106H53.9502H54.0721V41.2202H53.9502ZM53.9502 42.2009H53.8282V42.6912H53.9502H54.0721V42.2009H53.9502ZM53.9502 43.1816H53.8282V43.6719H53.9502H54.0721V43.1816H53.9502ZM53.9502 44.1623H53.8282V44.6526H53.9502H54.0721V44.1623H53.9502ZM53.9502 45.143H53.8282V45.6333H53.9502H54.0721V45.143H53.9502ZM53.9502 46.1237H53.8282V46.614H53.9502H54.0721V46.1237H53.9502ZM53.9502 47.1044H53.8282V47.5947H53.9502H54.0721V47.1044H53.9502ZM53.9502 48.085H53.8282V48.5754H53.9502H54.0721V48.085H53.9502ZM53.9502 49.0657H53.8282V49.5561H53.9502H54.0721V49.0657H53.9502ZM53.9502 50.0464H53.8282V50.5368H53.9502H54.0721V50.0464H53.9502ZM53.9502 51.0271H53.8282V51.5175H53.9502H54.0721V51.0271H53.9502ZM53.9502 52.0078H53.8282V52.4981H53.9502H54.0721V52.0078H53.9502ZM53.9502 52.9885H53.8282V53.4788H53.9502H54.0721V52.9885H53.9502ZM53.9502 53.9692H53.8282V54.4595H53.9502H54.0721V53.9692H53.9502ZM53.9502 54.9499H53.8282V55.4402H53.9502H54.0721V54.9499H53.9502ZM53.9502 55.9306H53.8282V56.4209H53.9502H54.0721V55.9306H53.9502ZM53.9502 56.9113H53.8282V57.4016H53.9502H54.0721V56.9113H53.9502ZM53.9502 57.8919H53.8282V58.3823H53.9502H54.0721V57.8919H53.9502ZM53.9502 58.8726H53.8282V59.363H53.9502H54.0721V58.8726H53.9502ZM53.9502 59.8533H53.8282V60.3437H53.9502H54.0721V59.8533H53.9502ZM53.9502 60.834H53.8282V61.3244H53.9502H54.0721V60.834H53.9502ZM53.9502 61.8147H53.8282V62.305H53.9502H54.0721V61.8147H53.9502ZM53.9502 62.7954H53.8282V63.2857H53.9502H54.0721V62.7954H53.9502ZM53.9502 63.7761H53.8282V64.2664H53.9502H54.0721V63.7761H53.9502ZM53.9502 64.7568H53.8282V65.2471H53.9502H54.0721V64.7568H53.9502ZM53.9502 65.7375H53.8282V66.2278H53.9502H54.0721V65.7375H53.9502ZM53.9502 66.7182H53.8282V67.2085H53.9502H54.0721V66.7182H53.9502ZM53.9502 67.6988H53.8282V68.1892H53.9502H54.0721V67.6988H53.9502ZM53.9502 68.6795H53.8282V68.9247H53.9502H54.0721V68.6795H53.9502Z" fill="#E0E0E0"/>
<path d="M61.8771 68.9247C61.8771 68.9921 61.9317 69.0467 61.999 69.0467C62.0664 69.0467 62.121 68.9921 62.121 68.9247H61.8771ZM61.999 21.8516H61.8771V22.0967H61.999H62.121V21.8516H61.999ZM61.999 22.5871H61.8771V23.0774H61.999H62.121V22.5871H61.999ZM61.999 23.5678H61.8771V24.0581H61.999H62.121V23.5678H61.999ZM61.999 24.5485H61.8771V25.0388H61.999H62.121V24.5485H61.999ZM61.999 25.5292H61.8771V26.0195H61.999H62.121V25.5292H61.999ZM61.999 26.5098H61.8771V27.0002H61.999H62.121V26.5098H61.999ZM61.999 27.4905H61.8771V27.9809H61.999H62.121V27.4905H61.999ZM61.999 28.4712H61.8771V28.9616H61.999H62.121V28.4712H61.999ZM61.999 29.4519H61.8771V29.9423H61.999H62.121V29.4519H61.999ZM61.999 30.4326H61.8771V30.923H61.999H62.121V30.4326H61.999ZM61.999 31.4133H61.8771V31.9036H61.999H62.121V31.4133H61.999ZM61.999 32.394H61.8771V32.8843H61.999H62.121V32.394H61.999ZM61.999 33.3747H61.8771V33.865H61.999H62.121V33.3747H61.999ZM61.999 34.3554H61.8771V34.8457H61.999H62.121V34.3554H61.999ZM61.999 35.3361H61.8771V35.8264H61.999H62.121V35.3361H61.999ZM61.999 36.3168H61.8771V36.8071H61.999H62.121V36.3168H61.999ZM61.999 37.2975H61.8771V37.7878H61.999H62.121V37.2975H61.999ZM61.999 38.2781H61.8771V38.7685H61.999H62.121V38.2781H61.999ZM61.999 39.2588H61.8771V39.7492H61.999H62.121V39.2588H61.999ZM61.999 40.2395H61.8771V40.7299H61.999H62.121V40.2395H61.999ZM61.999 41.2202H61.8771V41.7106H61.999H62.121V41.2202H61.999ZM61.999 42.2009H61.8771V42.6912H61.999H62.121V42.2009H61.999ZM61.999 43.1816H61.8771V43.6719H61.999H62.121V43.1816H61.999ZM61.999 44.1623H61.8771V44.6526H61.999H62.121V44.1623H61.999ZM61.999 45.143H61.8771V45.6333H61.999H62.121V45.143H61.999ZM61.999 46.1237H61.8771V46.614H61.999H62.121V46.1237H61.999ZM61.999 47.1044H61.8771V47.5947H61.999H62.121V47.1044H61.999ZM61.999 48.085H61.8771V48.5754H61.999H62.121V48.085H61.999ZM61.999 49.0657H61.8771V49.5561H61.999H62.121V49.0657H61.999ZM61.999 50.0464H61.8771V50.5368H61.999H62.121V50.0464H61.999ZM61.999 51.0271H61.8771V51.5175H61.999H62.121V51.0271H61.999ZM61.999 52.0078H61.8771V52.4981H61.999H62.121V52.0078H61.999ZM61.999 52.9885H61.8771V53.4788H61.999H62.121V52.9885H61.999ZM61.999 53.9692H61.8771V54.4595H61.999H62.121V53.9692H61.999ZM61.999 54.9499H61.8771V55.4402H61.999H62.121V54.9499H61.999ZM61.999 55.9306H61.8771V56.4209H61.999H62.121V55.9306H61.999ZM61.999 56.9113H61.8771V57.4016H61.999H62.121V56.9113H61.999ZM61.999 57.8919H61.8771V58.3823H61.999H62.121V57.8919H61.999ZM61.999 58.8726H61.8771V59.363H61.999H62.121V58.8726H61.999ZM61.999 59.8533H61.8771V60.3437H61.999H62.121V59.8533H61.999ZM61.999 60.834H61.8771V61.3244H61.999H62.121V60.834H61.999ZM61.999 61.8147H61.8771V62.305H61.999H62.121V61.8147H61.999ZM61.999 62.7954H61.8771V63.2857H61.999H62.121V62.7954H61.999ZM61.999 63.7761H61.8771V64.2664H61.999H62.121V63.7761H61.999ZM61.999 64.7568H61.8771V65.2471H61.999H62.121V64.7568H61.999ZM61.999 65.7375H61.8771V66.2278H61.999H62.121V65.7375H61.999ZM61.999 66.7182H61.8771V67.2085H61.999H62.121V66.7182H61.999ZM61.999 67.6988H61.8771V68.1892H61.999H62.121V67.6988H61.999ZM61.999 68.6795H61.8771V68.9247H61.999H62.121V68.6795H61.999Z" fill="#E0E0E0"/>
<path d="M69.9259 68.9247C69.9259 68.9921 69.9805 69.0467 70.0479 69.0467C70.1152 69.0467 70.1698 68.9921 70.1698 68.9247H69.9259ZM70.0479 21.8516H69.9259V22.0967H70.0479H70.1698V21.8516H70.0479ZM70.0479 22.5871H69.9259V23.0774H70.0479H70.1698V22.5871H70.0479ZM70.0479 23.5678H69.9259V24.0581H70.0479H70.1698V23.5678H70.0479ZM70.0479 24.5485H69.9259V25.0388H70.0479H70.1698V24.5485H70.0479ZM70.0479 25.5292H69.9259V26.0195H70.0479H70.1698V25.5292H70.0479ZM70.0479 26.5098H69.9259V27.0002H70.0479H70.1698V26.5098H70.0479ZM70.0479 27.4905H69.9259V27.9809H70.0479H70.1698V27.4905H70.0479ZM70.0479 28.4712H69.9259V28.9616H70.0479H70.1698V28.4712H70.0479ZM70.0479 29.4519H69.9259V29.9423H70.0479H70.1698V29.4519H70.0479ZM70.0479 30.4326H69.9259V30.923H70.0479H70.1698V30.4326H70.0479ZM70.0479 31.4133H69.9259V31.9036H70.0479H70.1698V31.4133H70.0479ZM70.0479 32.394H69.9259V32.8843H70.0479H70.1698V32.394H70.0479ZM70.0479 33.3747H69.9259V33.865H70.0479H70.1698V33.3747H70.0479ZM70.0479 34.3554H69.9259V34.8457H70.0479H70.1698V34.3554H70.0479ZM70.0479 35.3361H69.9259V35.8264H70.0479H70.1698V35.3361H70.0479ZM70.0479 36.3168H69.9259V36.8071H70.0479H70.1698V36.3168H70.0479ZM70.0479 37.2975H69.9259V37.7878H70.0479H70.1698V37.2975H70.0479ZM70.0479 38.2781H69.9259V38.7685H70.0479H70.1698V38.2781H70.0479ZM70.0479 39.2588H69.9259V39.7492H70.0479H70.1698V39.2588H70.0479ZM70.0479 40.2395H69.9259V40.7299H70.0479H70.1698V40.2395H70.0479ZM70.0479 41.2202H69.9259V41.7106H70.0479H70.1698V41.2202H70.0479ZM70.0479 42.2009H69.9259V42.6912H70.0479H70.1698V42.2009H70.0479ZM70.0479 43.1816H69.9259V43.6719H70.0479H70.1698V43.1816H70.0479ZM70.0479 44.1623H69.9259V44.6526H70.0479H70.1698V44.1623H70.0479ZM70.0479 45.143H69.9259V45.6333H70.0479H70.1698V45.143H70.0479ZM70.0479 46.1237H69.9259V46.614H70.0479H70.1698V46.1237H70.0479ZM70.0479 47.1044H69.9259V47.5947H70.0479H70.1698V47.1044H70.0479ZM70.0479 48.085H69.9259V48.5754H70.0479H70.1698V48.085H70.0479ZM70.0479 49.0657H69.9259V49.5561H70.0479H70.1698V49.0657H70.0479ZM70.0479 50.0464H69.9259V50.5368H70.0479H70.1698V50.0464H70.0479ZM70.0479 51.0271H69.9259V51.5175H70.0479H70.1698V51.0271H70.0479ZM70.0479 52.0078H69.9259V52.4981H70.0479H70.1698V52.0078H70.0479ZM70.0479 52.9885H69.9259V53.4788H70.0479H70.1698V52.9885H70.0479ZM70.0479 53.9692H69.9259V54.4595H70.0479H70.1698V53.9692H70.0479ZM70.0479 54.9499H69.9259V55.4402H70.0479H70.1698V54.9499H70.0479ZM70.0479 55.9306H69.9259V56.4209H70.0479H70.1698V55.9306H70.0479ZM70.0479 56.9113H69.9259V57.4016H70.0479H70.1698V56.9113H70.0479ZM70.0479 57.8919H69.9259V58.3823H70.0479H70.1698V57.8919H70.0479ZM70.0479 58.8726H69.9259V59.363H70.0479H70.1698V58.8726H70.0479ZM70.0479 59.8533H69.9259V60.3437H70.0479H70.1698V59.8533H70.0479ZM70.0479 60.834H69.9259V61.3244H70.0479H70.1698V60.834H70.0479ZM70.0479 61.8147H69.9259V62.305H70.0479H70.1698V61.8147H70.0479ZM70.0479 62.7954H69.9259V63.2857H70.0479H70.1698V62.7954H70.0479ZM70.0479 63.7761H69.9259V64.2664H70.0479H70.1698V63.7761H70.0479ZM70.0479 64.7568H69.9259V65.2471H70.0479H70.1698V64.7568H70.0479ZM70.0479 65.7375H69.9259V66.2278H70.0479H70.1698V65.7375H70.0479ZM70.0479 66.7182H69.9259V67.2085H70.0479H70.1698V66.7182H70.0479ZM70.0479 67.6988H69.9259V68.1892H70.0479H70.1698V67.6988H70.0479ZM70.0479 68.6795H69.9259V68.9247H70.0479H70.1698V68.6795H70.0479Z" fill="#E0E0E0"/>
<path d="M77.9747 68.9247C77.9747 68.9921 78.0293 69.0467 78.0967 69.0467C78.164 69.0467 78.2186 68.9921 78.2186 68.9247H77.9747ZM78.0967 21.8516H77.9747V22.0967H78.0967H78.2186V21.8516H78.0967ZM78.0967 22.5871H77.9747V23.0774H78.0967H78.2186V22.5871H78.0967ZM78.0967 23.5678H77.9747V24.0581H78.0967H78.2186V23.5678H78.0967ZM78.0967 24.5485H77.9747V25.0388H78.0967H78.2186V24.5485H78.0967ZM78.0967 25.5292H77.9747V26.0195H78.0967H78.2186V25.5292H78.0967ZM78.0967 26.5098H77.9747V27.0002H78.0967H78.2186V26.5098H78.0967ZM78.0967 27.4905H77.9747V27.9809H78.0967H78.2186V27.4905H78.0967ZM78.0967 28.4712H77.9747V28.9616H78.0967H78.2186V28.4712H78.0967ZM78.0967 29.4519H77.9747V29.9423H78.0967H78.2186V29.4519H78.0967ZM78.0967 30.4326H77.9747V30.923H78.0967H78.2186V30.4326H78.0967ZM78.0967 31.4133H77.9747V31.9036H78.0967H78.2186V31.4133H78.0967ZM78.0967 32.394H77.9747V32.8843H78.0967H78.2186V32.394H78.0967ZM78.0967 33.3747H77.9747V33.865H78.0967H78.2186V33.3747H78.0967ZM78.0967 34.3554H77.9747V34.8457H78.0967H78.2186V34.3554H78.0967ZM78.0967 35.3361H77.9747V35.8264H78.0967H78.2186V35.3361H78.0967ZM78.0967 36.3168H77.9747V36.8071H78.0967H78.2186V36.3168H78.0967ZM78.0967 37.2975H77.9747V37.7878H78.0967H78.2186V37.2975H78.0967ZM78.0967 38.2781H77.9747V38.7685H78.0967H78.2186V38.2781H78.0967ZM78.0967 39.2588H77.9747V39.7492H78.0967H78.2186V39.2588H78.0967ZM78.0967 40.2395H77.9747V40.7299H78.0967H78.2186V40.2395H78.0967ZM78.0967 41.2202H77.9747V41.7106H78.0967H78.2186V41.2202H78.0967ZM78.0967 42.2009H77.9747V42.6912H78.0967H78.2186V42.2009H78.0967ZM78.0967 43.1816H77.9747V43.6719H78.0967H78.2186V43.1816H78.0967ZM78.0967 44.1623H77.9747V44.6526H78.0967H78.2186V44.1623H78.0967ZM78.0967 45.143H77.9747V45.6333H78.0967H78.2186V45.143H78.0967ZM78.0967 46.1237H77.9747V46.614H78.0967H78.2186V46.1237H78.0967ZM78.0967 47.1044H77.9747V47.5947H78.0967H78.2186V47.1044H78.0967ZM78.0967 48.085H77.9747V48.5754H78.0967H78.2186V48.085H78.0967ZM78.0967 49.0657H77.9747V49.5561H78.0967H78.2186V49.0657H78.0967ZM78.0967 50.0464H77.9747V50.5368H78.0967H78.2186V50.0464H78.0967ZM78.0967 51.0271H77.9747V51.5175H78.0967H78.2186V51.0271H78.0967ZM78.0967 52.0078H77.9747V52.4981H78.0967H78.2186V52.0078H78.0967ZM78.0967 52.9885H77.9747V53.4788H78.0967H78.2186V52.9885H78.0967ZM78.0967 53.9692H77.9747V54.4595H78.0967H78.2186V53.9692H78.0967ZM78.0967 54.9499H77.9747V55.4402H78.0967H78.2186V54.9499H78.0967ZM78.0967 55.9306H77.9747V56.4209H78.0967H78.2186V55.9306H78.0967ZM78.0967 56.9113H77.9747V57.4016H78.0967H78.2186V56.9113H78.0967ZM78.0967 57.8919H77.9747V58.3823H78.0967H78.2186V57.8919H78.0967ZM78.0967 58.8726H77.9747V59.363H78.0967H78.2186V58.8726H78.0967ZM78.0967 59.8533H77.9747V60.3437H78.0967H78.2186V59.8533H78.0967ZM78.0967 60.834H77.9747V61.3244H78.0967H78.2186V60.834H78.0967ZM78.0967 61.8147H77.9747V62.305H78.0967H78.2186V61.8147H78.0967ZM78.0967 62.7954H77.9747V63.2857H78.0967H78.2186V62.7954H78.0967ZM78.0967 63.7761H77.9747V64.2664H78.0967H78.2186V63.7761H78.0967ZM78.0967 64.7568H77.9747V65.2471H78.0967H78.2186V64.7568H78.0967ZM78.0967 65.7375H77.9747V66.2278H78.0967H78.2186V65.7375H78.0967ZM78.0967 66.7182H77.9747V67.2085H78.0967H78.2186V66.7182H78.0967ZM78.0967 67.6988H77.9747V68.1892H78.0967H78.2186V67.6988H78.0967ZM78.0967 68.6795H77.9747V68.9247H78.0967H78.2186V68.6795H78.0967Z" fill="#E0E0E0"/>
<path d="M15.9018 23.8516H14.9281V23.6467L15.2777 23.2933C15.3482 23.2208 15.4048 23.1605 15.4473 23.1122C15.4905 23.0633 15.5216 23.0189 15.5407 22.9788C15.5604 22.9388 15.5702 22.896 15.5702 22.8502C15.5702 22.795 15.5547 22.7537 15.5235 22.7264C15.493 22.6984 15.4521 22.6845 15.4006 22.6845C15.3466 22.6845 15.2942 22.6968 15.2434 22.7216C15.1926 22.7464 15.1396 22.7816 15.0843 22.8274L14.9243 22.6378C14.9643 22.6035 15.0065 22.5711 15.051 22.5406C15.0961 22.5101 15.1482 22.4856 15.2072 22.4672C15.2669 22.4482 15.3384 22.4386 15.4216 22.4386C15.5131 22.4386 15.5915 22.4552 15.6569 22.4882C15.723 22.5212 15.7738 22.5663 15.8094 22.6235C15.8449 22.68 15.8627 22.7442 15.8627 22.8159C15.8627 22.8928 15.8475 22.963 15.817 23.0265C15.7865 23.09 15.742 23.1529 15.6836 23.2151C15.6258 23.2774 15.5559 23.3463 15.474 23.4219L15.2949 23.5905V23.6038H15.9018V23.8516ZM16.5515 22.9617C16.6367 22.9617 16.7122 22.9779 16.7783 23.0103C16.845 23.0427 16.8974 23.0903 16.9355 23.1532C16.9736 23.2161 16.9927 23.2936 16.9927 23.3857C16.9927 23.486 16.9717 23.5727 16.9298 23.6458C16.8885 23.7182 16.8266 23.7738 16.744 23.8125C16.6621 23.8512 16.5598 23.8706 16.4372 23.8706C16.3642 23.8706 16.2953 23.8643 16.2305 23.8516C16.1663 23.8395 16.1101 23.8208 16.0618 23.7954V23.541C16.1101 23.5664 16.1679 23.588 16.2352 23.6058C16.3032 23.6229 16.367 23.6315 16.4267 23.6315C16.4852 23.6315 16.5344 23.6239 16.5744 23.6086C16.6144 23.5927 16.6446 23.5686 16.6649 23.5362C16.6859 23.5032 16.6964 23.4613 16.6964 23.4104C16.6964 23.3425 16.6735 23.2904 16.6278 23.2542C16.582 23.218 16.5118 23.1999 16.4172 23.1999C16.381 23.1999 16.3432 23.2034 16.3038 23.2104C16.2651 23.2174 16.2327 23.2243 16.2067 23.2313L16.0895 23.1684L16.1419 22.4587H16.8974V22.7083H16.4001L16.3743 22.9817C16.3959 22.9773 16.4194 22.9728 16.4448 22.9684C16.4702 22.9639 16.5058 22.9617 16.5515 22.9617ZM18.1274 23.1551C18.1274 23.2675 18.1185 23.3679 18.1007 23.4562C18.0836 23.5445 18.0556 23.6194 18.0169 23.681C17.9788 23.7426 17.9286 23.7896 17.8663 23.822C17.8041 23.8544 17.7285 23.8706 17.6396 23.8706C17.5278 23.8706 17.436 23.8424 17.3642 23.7858C17.2925 23.7287 17.2394 23.6467 17.2051 23.54C17.1708 23.4327 17.1537 23.3044 17.1537 23.1551C17.1537 23.0046 17.1692 22.876 17.2004 22.7692C17.2321 22.6619 17.2836 22.5796 17.3547 22.5225C17.4258 22.4653 17.5208 22.4367 17.6396 22.4367C17.7507 22.4367 17.8422 22.4653 17.914 22.5225C17.9864 22.579 18.04 22.661 18.075 22.7683C18.1099 22.875 18.1274 23.0039 18.1274 23.1551ZM17.4462 23.1551C17.4462 23.2612 17.4519 23.3498 17.4633 23.4209C17.4754 23.4914 17.4954 23.5445 17.5233 23.58C17.5513 23.6156 17.59 23.6334 17.6396 23.6334C17.6885 23.6334 17.7269 23.6159 17.7549 23.581C17.7834 23.5454 17.8038 23.4924 17.8158 23.4219C17.8279 23.3507 17.8339 23.2618 17.8339 23.1551C17.8339 23.049 17.8279 22.9604 17.8158 22.8893C17.8038 22.8182 17.7834 22.7648 17.7549 22.7292C17.7269 22.693 17.6885 22.6749 17.6396 22.6749C17.59 22.6749 17.5513 22.693 17.5233 22.7292C17.4954 22.7648 17.4754 22.8182 17.4633 22.8893C17.4519 22.9604 17.4462 23.049 17.4462 23.1551ZM19.244 23.1551C19.244 23.2675 19.2351 23.3679 19.2173 23.4562C19.2002 23.5445 19.1722 23.6194 19.1335 23.681C19.0954 23.7426 19.0452 23.7896 18.9829 23.822C18.9207 23.8544 18.8451 23.8706 18.7562 23.8706C18.6444 23.8706 18.5526 23.8424 18.4808 23.7858C18.4091 23.7287 18.356 23.6467 18.3217 23.54C18.2874 23.4327 18.2703 23.3044 18.2703 23.1551C18.2703 23.0046 18.2859 22.876 18.317 22.7692C18.3487 22.6619 18.4002 22.5796 18.4713 22.5225C18.5425 22.4653 18.6374 22.4367 18.7562 22.4367C18.8673 22.4367 18.9588 22.4653 19.0306 22.5225C19.103 22.579 19.1567 22.661 19.1916 22.7683C19.2265 22.875 19.244 23.0039 19.244 23.1551ZM18.5628 23.1551C18.5628 23.2612 18.5685 23.3498 18.5799 23.4209C18.592 23.4914 18.612 23.5445 18.64 23.58C18.6679 23.6156 18.7067 23.6334 18.7562 23.6334C18.8051 23.6334 18.8435 23.6159 18.8715 23.581C18.9001 23.5454 18.9204 23.4924 18.9325 23.4219C18.9445 23.3507 18.9506 23.2618 18.9506 23.1551C18.9506 23.049 18.9445 22.9604 18.9325 22.8893C18.9204 22.8182 18.9001 22.7648 18.8715 22.7292C18.8435 22.693 18.8051 22.6749 18.7562 22.6749C18.7067 22.6749 18.6679 22.693 18.64 22.7292C18.612 22.7648 18.592 22.8182 18.5799 22.8893C18.5685 22.9604 18.5628 23.049 18.5628 23.1551Z" fill="#212121"/>
<path d="M15.9018 31.2422H14.9281V31.0373L15.2777 30.6839C15.3482 30.6115 15.4048 30.5511 15.4473 30.5029C15.4905 30.454 15.5216 30.4095 15.5407 30.3695C15.5604 30.3295 15.5702 30.2866 15.5702 30.2409C15.5702 30.1856 15.5547 30.1443 15.5235 30.117C15.493 30.089 15.4521 30.0751 15.4006 30.0751C15.3466 30.0751 15.2942 30.0875 15.2434 30.1122C15.1926 30.137 15.1396 30.1723 15.0843 30.218L14.9243 30.0284C14.9643 29.9941 15.0065 29.9617 15.051 29.9312C15.0961 29.9007 15.1482 29.8763 15.2072 29.8579C15.2669 29.8388 15.3384 29.8293 15.4216 29.8293C15.5131 29.8293 15.5915 29.8458 15.6569 29.8788C15.723 29.9118 15.7738 29.9569 15.8094 30.0141C15.8449 30.0706 15.8627 30.1348 15.8627 30.2066C15.8627 30.2834 15.8475 30.3536 15.817 30.4171C15.7865 30.4806 15.742 30.5435 15.6836 30.6058C15.6258 30.668 15.5559 30.7369 15.474 30.8125L15.2949 30.9811V30.9945H15.9018V31.2422ZM17.0108 30.5457C17.0108 30.6582 17.0019 30.7585 16.9841 30.8468C16.9669 30.9351 16.939 31.01 16.9002 31.0716C16.8621 31.1333 16.812 31.1803 16.7497 31.2127C16.6875 31.245 16.6119 31.2612 16.523 31.2612C16.4112 31.2612 16.3194 31.233 16.2476 31.1764C16.1758 31.1193 16.1228 31.0373 16.0885 30.9306C16.0542 30.8233 16.0371 30.695 16.0371 30.5457C16.0371 30.3952 16.0526 30.2666 16.0837 30.1599C16.1155 30.0525 16.167 29.9703 16.2381 29.9131C16.3092 29.8559 16.4042 29.8274 16.523 29.8274C16.6341 29.8274 16.7256 29.8559 16.7974 29.9131C16.8698 29.9696 16.9234 30.0516 16.9584 30.1589C16.9933 30.2656 17.0108 30.3946 17.0108 30.5457ZM16.3296 30.5457C16.3296 30.6518 16.3353 30.7404 16.3467 30.8115C16.3588 30.8821 16.3788 30.9351 16.4067 30.9707C16.4347 31.0062 16.4734 31.024 16.523 31.024C16.5719 31.024 16.6103 31.0065 16.6382 30.9716C16.6668 30.936 16.6872 30.883 16.6992 30.8125C16.7113 30.7414 16.7173 30.6524 16.7173 30.5457C16.7173 30.4397 16.7113 30.3511 16.6992 30.2799C16.6872 30.2088 16.6668 30.1554 16.6382 30.1199C16.6103 30.0837 16.5719 30.0655 16.523 30.0655C16.4734 30.0655 16.4347 30.0837 16.4067 30.1199C16.3788 30.1554 16.3588 30.2088 16.3467 30.2799C16.3353 30.3511 16.3296 30.4397 16.3296 30.5457ZM18.1274 30.5457C18.1274 30.6582 18.1185 30.7585 18.1007 30.8468C18.0836 30.9351 18.0556 31.01 18.0169 31.0716C17.9788 31.1333 17.9286 31.1803 17.8663 31.2127C17.8041 31.245 17.7285 31.2612 17.6396 31.2612C17.5278 31.2612 17.436 31.233 17.3642 31.1764C17.2925 31.1193 17.2394 31.0373 17.2051 30.9306C17.1708 30.8233 17.1537 30.695 17.1537 30.5457C17.1537 30.3952 17.1692 30.2666 17.2004 30.1599C17.2321 30.0525 17.2836 29.9703 17.3547 29.9131C17.4258 29.8559 17.5208 29.8274 17.6396 29.8274C17.7507 29.8274 17.8422 29.8559 17.914 29.9131C17.9864 29.9696 18.04 30.0516 18.075 30.1589C18.1099 30.2656 18.1274 30.3946 18.1274 30.5457ZM17.4462 30.5457C17.4462 30.6518 17.4519 30.7404 17.4633 30.8115C17.4754 30.8821 17.4954 30.9351 17.5233 30.9707C17.5513 31.0062 17.59 31.024 17.6396 31.024C17.6885 31.024 17.7269 31.0065 17.7549 30.9716C17.7834 30.936 17.8038 30.883 17.8158 30.8125C17.8279 30.7414 17.8339 30.6524 17.8339 30.5457C17.8339 30.4397 17.8279 30.3511 17.8158 30.2799C17.8038 30.2088 17.7834 30.1554 17.7549 30.1199C17.7269 30.0837 17.6885 30.0655 17.6396 30.0655C17.59 30.0655 17.5513 30.0837 17.5233 30.1199C17.4954 30.1554 17.4754 30.2088 17.4633 30.2799C17.4519 30.3511 17.4462 30.4397 17.4462 30.5457ZM19.244 30.5457C19.244 30.6582 19.2351 30.7585 19.2173 30.8468C19.2002 30.9351 19.1722 31.01 19.1335 31.0716C19.0954 31.1333 19.0452 31.1803 18.9829 31.2127C18.9207 31.245 18.8451 31.2612 18.7562 31.2612C18.6444 31.2612 18.5526 31.233 18.4808 31.1764C18.4091 31.1193 18.356 31.0373 18.3217 30.9306C18.2874 30.8233 18.2703 30.695 18.2703 30.5457C18.2703 30.3952 18.2859 30.2666 18.317 30.1599C18.3487 30.0525 18.4002 29.9703 18.4713 29.9131C18.5425 29.8559 18.6374 29.8274 18.7562 29.8274C18.8673 29.8274 18.9588 29.8559 19.0306 29.9131C19.103 29.9696 19.1567 30.0516 19.1916 30.1589C19.2265 30.2656 19.244 30.3946 19.244 30.5457ZM18.5628 30.5457C18.5628 30.6518 18.5685 30.7404 18.5799 30.8115C18.592 30.8821 18.612 30.9351 18.64 30.9707C18.6679 31.0062 18.7067 31.024 18.7562 31.024C18.8051 31.024 18.8435 31.0065 18.8715 30.9716C18.9001 30.936 18.9204 30.883 18.9325 30.8125C18.9445 30.7414 18.9506 30.6524 18.9506 30.5457C18.9506 30.4397 18.9445 30.3511 18.9325 30.2799C18.9204 30.2088 18.9001 30.1554 18.8715 30.1199C18.8435 30.0837 18.8051 30.0655 18.7562 30.0655C18.7067 30.0655 18.6679 30.0837 18.64 30.1199C18.612 30.1554 18.592 30.2088 18.5799 30.2799C18.5685 30.3511 18.5628 30.4397 18.5628 30.5457Z" fill="#212121"/>
<path d="M15.656 38.6328H15.3616V37.8268C15.3616 37.8046 15.3619 37.7772 15.3625 37.7449C15.3632 37.7118 15.3641 37.6782 15.3654 37.6439C15.3666 37.6089 15.3679 37.5775 15.3692 37.5495C15.3622 37.5578 15.3479 37.5721 15.3263 37.5924C15.3054 37.6121 15.2857 37.6299 15.2672 37.6458L15.1072 37.7744L14.9652 37.5972L15.414 37.2399H15.656V38.6328ZM16.5515 37.7429C16.6367 37.7429 16.7122 37.7591 16.7783 37.7915C16.845 37.8239 16.8974 37.8716 16.9355 37.9345C16.9736 37.9973 16.9927 38.0748 16.9927 38.1669C16.9927 38.2673 16.9717 38.354 16.9298 38.427C16.8885 38.4994 16.8266 38.555 16.744 38.5937C16.6621 38.6325 16.5598 38.6519 16.4372 38.6519C16.3642 38.6519 16.2953 38.6455 16.2305 38.6328C16.1663 38.6207 16.1101 38.602 16.0618 38.5766V38.3222C16.1101 38.3476 16.1679 38.3692 16.2352 38.387C16.3032 38.4042 16.367 38.4127 16.4267 38.4127C16.4852 38.4127 16.5344 38.4051 16.5744 38.3899C16.6144 38.374 16.6446 38.3498 16.6649 38.3175C16.6859 38.2844 16.6964 38.2425 16.6964 38.1917C16.6964 38.1237 16.6735 38.0716 16.6278 38.0354C16.582 37.9992 16.5118 37.9811 16.4172 37.9811C16.381 37.9811 16.3432 37.9846 16.3038 37.9916C16.2651 37.9986 16.2327 38.0056 16.2067 38.0126L16.0895 37.9497L16.1419 37.2399H16.8974V37.4895H16.4001L16.3743 37.763C16.3959 37.7585 16.4194 37.7541 16.4448 37.7496C16.4702 37.7452 16.5058 37.7429 16.5515 37.7429ZM18.1274 37.9364C18.1274 38.0488 18.1185 38.1491 18.1007 38.2374C18.0836 38.3257 18.0556 38.4007 18.0169 38.4623C17.9788 38.5239 17.9286 38.5709 17.8663 38.6033C17.8041 38.6357 17.7285 38.6519 17.6396 38.6519C17.5278 38.6519 17.436 38.6236 17.3642 38.5671C17.2925 38.5099 17.2394 38.428 17.2051 38.3213C17.1708 38.2139 17.1537 38.0856 17.1537 37.9364C17.1537 37.7858 17.1692 37.6572 17.2004 37.5505C17.2321 37.4432 17.2836 37.3609 17.3547 37.3037C17.4258 37.2466 17.5208 37.218 17.6396 37.218C17.7507 37.218 17.8422 37.2466 17.914 37.3037C17.9864 37.3603 18.04 37.4422 18.075 37.5495C18.1099 37.6562 18.1274 37.7852 18.1274 37.9364ZM17.4462 37.9364C17.4462 38.0424 17.4519 38.131 17.4633 38.2022C17.4754 38.2727 17.4954 38.3257 17.5233 38.3613C17.5513 38.3968 17.59 38.4146 17.6396 38.4146C17.6885 38.4146 17.7269 38.3972 17.7549 38.3622C17.7834 38.3267 17.8038 38.2736 17.8158 38.2031C17.8279 38.132 17.8339 38.0431 17.8339 37.9364C17.8339 37.8303 17.8279 37.7417 17.8158 37.6705C17.8038 37.5994 17.7834 37.546 17.7549 37.5105C17.7269 37.4743 17.6885 37.4562 17.6396 37.4562C17.59 37.4562 17.5513 37.4743 17.5233 37.5105C17.4954 37.546 17.4754 37.5994 17.4633 37.6705C17.4519 37.7417 17.4462 37.8303 17.4462 37.9364ZM19.244 37.9364C19.244 38.0488 19.2351 38.1491 19.2173 38.2374C19.2002 38.3257 19.1722 38.4007 19.1335 38.4623C19.0954 38.5239 19.0452 38.5709 18.9829 38.6033C18.9207 38.6357 18.8451 38.6519 18.7562 38.6519C18.6444 38.6519 18.5526 38.6236 18.4808 38.5671C18.4091 38.5099 18.356 38.428 18.3217 38.3213C18.2874 38.2139 18.2703 38.0856 18.2703 37.9364C18.2703 37.7858 18.2859 37.6572 18.317 37.5505C18.3487 37.4432 18.4002 37.3609 18.4713 37.3037C18.5425 37.2466 18.6374 37.218 18.7562 37.218C18.8673 37.218 18.9588 37.2466 19.0306 37.3037C19.103 37.3603 19.1567 37.4422 19.1916 37.5495C19.2265 37.6562 19.244 37.7852 19.244 37.9364ZM18.5628 37.9364C18.5628 38.0424 18.5685 38.131 18.5799 38.2022C18.592 38.2727 18.612 38.3257 18.64 38.3613C18.6679 38.3968 18.7067 38.4146 18.7562 38.4146C18.8051 38.4146 18.8435 38.3972 18.8715 38.3622C18.9001 38.3267 18.9204 38.2736 18.9325 38.2031C18.9445 38.132 18.9506 38.0431 18.9506 37.9364C18.9506 37.8303 18.9445 37.7417 18.9325 37.6705C18.9204 37.5994 18.9001 37.546 18.8715 37.5105C18.8435 37.4743 18.8051 37.4562 18.7562 37.4562C18.7067 37.4562 18.6679 37.4743 18.64 37.5105C18.612 37.546 18.592 37.5994 18.5799 37.6705C18.5685 37.7417 18.5628 37.8303 18.5628 37.9364Z" fill="#212121"/>
<path d="M15.656 46.0234H15.3616V45.2174C15.3616 45.1952 15.3619 45.1679 15.3625 45.1355C15.3632 45.1025 15.3641 45.0688 15.3654 45.0345C15.3666 44.9996 15.3679 44.9681 15.3692 44.9402C15.3622 44.9484 15.3479 44.9627 15.3263 44.983C15.3054 45.0027 15.2857 45.0205 15.2672 45.0364L15.1072 45.165L14.9652 44.9878L15.414 44.6305H15.656V46.0234ZM17.0108 45.327C17.0108 45.4394 17.0019 45.5398 16.9841 45.628C16.9669 45.7163 16.939 45.7913 16.9002 45.8529C16.8621 45.9145 16.812 45.9615 16.7497 45.9939C16.6875 46.0263 16.6119 46.0425 16.523 46.0425C16.4112 46.0425 16.3194 46.0142 16.2476 45.9577C16.1758 45.9005 16.1228 45.8186 16.0885 45.7119C16.0542 45.6045 16.0371 45.4762 16.0371 45.327C16.0371 45.1764 16.0526 45.0478 16.0837 44.9411C16.1155 44.8338 16.167 44.7515 16.2381 44.6944C16.3092 44.6372 16.4042 44.6086 16.523 44.6086C16.6341 44.6086 16.7256 44.6372 16.7974 44.6944C16.8698 44.7509 16.9234 44.8328 16.9584 44.9402C16.9933 45.0469 17.0108 45.1758 17.0108 45.327ZM16.3296 45.327C16.3296 45.4331 16.3353 45.5217 16.3467 45.5928C16.3588 45.6633 16.3788 45.7163 16.4067 45.7519C16.4347 45.7875 16.4734 45.8053 16.523 45.8053C16.5719 45.8053 16.6103 45.7878 16.6382 45.7529C16.6668 45.7173 16.6872 45.6643 16.6992 45.5937C16.7113 45.5226 16.7173 45.4337 16.7173 45.327C16.7173 45.2209 16.7113 45.1323 16.6992 45.0612C16.6872 44.99 16.6668 44.9367 16.6382 44.9011C16.6103 44.8649 16.5719 44.8468 16.523 44.8468C16.4734 44.8468 16.4347 44.8649 16.4067 44.9011C16.3788 44.9367 16.3588 44.99 16.3467 45.0612C16.3353 45.1323 16.3296 45.2209 16.3296 45.327ZM18.1274 45.327C18.1274 45.4394 18.1185 45.5398 18.1007 45.628C18.0836 45.7163 18.0556 45.7913 18.0169 45.8529C17.9788 45.9145 17.9286 45.9615 17.8663 45.9939C17.8041 46.0263 17.7285 46.0425 17.6396 46.0425C17.5278 46.0425 17.436 46.0142 17.3642 45.9577C17.2925 45.9005 17.2394 45.8186 17.2051 45.7119C17.1708 45.6045 17.1537 45.4762 17.1537 45.327C17.1537 45.1764 17.1692 45.0478 17.2004 44.9411C17.2321 44.8338 17.2836 44.7515 17.3547 44.6944C17.4258 44.6372 17.5208 44.6086 17.6396 44.6086C17.7507 44.6086 17.8422 44.6372 17.914 44.6944C17.9864 44.7509 18.04 44.8328 18.075 44.9402C18.1099 45.0469 18.1274 45.1758 18.1274 45.327ZM17.4462 45.327C17.4462 45.4331 17.4519 45.5217 17.4633 45.5928C17.4754 45.6633 17.4954 45.7163 17.5233 45.7519C17.5513 45.7875 17.59 45.8053 17.6396 45.8053C17.6885 45.8053 17.7269 45.7878 17.7549 45.7529C17.7834 45.7173 17.8038 45.6643 17.8158 45.5937C17.8279 45.5226 17.8339 45.4337 17.8339 45.327C17.8339 45.2209 17.8279 45.1323 17.8158 45.0612C17.8038 44.99 17.7834 44.9367 17.7549 44.9011C17.7269 44.8649 17.6885 44.8468 17.6396 44.8468C17.59 44.8468 17.5513 44.8649 17.5233 44.9011C17.4954 44.9367 17.4754 44.99 17.4633 45.0612C17.4519 45.1323 17.4462 45.2209 17.4462 45.327ZM19.244 45.327C19.244 45.4394 19.2351 45.5398 19.2173 45.628C19.2002 45.7163 19.1722 45.7913 19.1335 45.8529C19.0954 45.9145 19.0452 45.9615 18.9829 45.9939C18.9207 46.0263 18.8451 46.0425 18.7562 46.0425C18.6444 46.0425 18.5526 46.0142 18.4808 45.9577C18.4091 45.9005 18.356 45.8186 18.3217 45.7119C18.2874 45.6045 18.2703 45.4762 18.2703 45.327C18.2703 45.1764 18.2859 45.0478 18.317 44.9411C18.3487 44.8338 18.4002 44.7515 18.4713 44.6944C18.5425 44.6372 18.6374 44.6086 18.7562 44.6086C18.8673 44.6086 18.9588 44.6372 19.0306 44.6944C19.103 44.7509 19.1567 44.8328 19.1916 44.9402C19.2265 45.0469 19.244 45.1758 19.244 45.327ZM18.5628 45.327C18.5628 45.4331 18.5685 45.5217 18.5799 45.5928C18.592 45.6633 18.612 45.7163 18.64 45.7519C18.6679 45.7875 18.7067 45.8053 18.7562 45.8053C18.8051 45.8053 18.8435 45.7878 18.8715 45.7529C18.9001 45.7173 18.9204 45.6643 18.9325 45.5937C18.9445 45.5226 18.9506 45.4337 18.9506 45.327C18.9506 45.2209 18.9445 45.1323 18.9325 45.0612C18.9204 44.99 18.9001 44.9367 18.8715 44.9011C18.8435 44.8649 18.8051 44.8468 18.7562 44.8468C18.7067 44.8468 18.6679 44.8649 18.64 44.9011C18.612 44.9367 18.592 44.99 18.5799 45.0612C18.5685 45.1323 18.5628 45.2209 18.5628 45.327Z" fill="#212121"/>
<path d="M16.5511 52.5242C16.6362 52.5242 16.7118 52.5404 16.7779 52.5728C16.8446 52.6052 16.897 52.6528 16.9351 52.7157C16.9732 52.7786 16.9923 52.8561 16.9923 52.9482C16.9923 53.0485 16.9713 53.1352 16.9294 53.2083C16.8881 53.2807 16.8262 53.3363 16.7436 53.375C16.6617 53.4137 16.5594 53.4331 16.4368 53.4331C16.3638 53.4331 16.2949 53.4268 16.2301 53.4141C16.1659 53.402 16.1097 53.3833 16.0614 53.3579V53.1035C16.1097 53.1289 16.1675 53.1505 16.2348 53.1683C16.3028 53.1854 16.3666 53.194 16.4263 53.194C16.4848 53.194 16.534 53.1864 16.574 53.1711C16.614 53.1552 16.6442 53.1311 16.6645 53.0987C16.6855 53.0657 16.696 53.0238 16.696 52.9729C16.696 52.905 16.6731 52.8529 16.6274 52.8167C16.5816 52.7805 16.5114 52.7624 16.4168 52.7624C16.3806 52.7624 16.3428 52.7659 16.3034 52.7729C16.2647 52.7799 16.2323 52.7868 16.2062 52.7938L16.0891 52.7309L16.1415 52.0212H16.897V52.2708H16.3997L16.3739 52.5442C16.3955 52.5398 16.419 52.5353 16.4444 52.5309C16.4698 52.5264 16.5054 52.5242 16.5511 52.5242ZM18.127 52.7176C18.127 52.83 18.1181 52.9304 18.1003 53.0187C18.0832 53.107 18.0552 53.1819 18.0165 53.2435C17.9783 53.3051 17.9282 53.3521 17.8659 53.3845C17.8037 53.4169 17.7281 53.4331 17.6392 53.4331C17.5274 53.4331 17.4356 53.4049 17.3638 53.3483C17.2921 53.2912 17.239 53.2092 17.2047 53.1025C17.1704 52.9952 17.1533 52.8669 17.1533 52.7176C17.1533 52.5671 17.1688 52.4385 17.2 52.3317C17.2317 52.2244 17.2832 52.1421 17.3543 52.085C17.4254 52.0278 17.5204 51.9992 17.6392 51.9992C17.7503 51.9992 17.8418 52.0278 17.9136 52.085C17.986 52.1415 18.0396 52.2235 18.0746 52.3308C18.1095 52.4375 18.127 52.5664 18.127 52.7176ZM17.4458 52.7176C17.4458 52.8237 17.4515 52.9123 17.4629 52.9834C17.475 53.0539 17.495 53.107 17.5229 53.1425C17.5509 53.1781 17.5896 53.1959 17.6392 53.1959C17.6881 53.1959 17.7265 53.1784 17.7545 53.1435C17.783 53.1079 17.8034 53.0549 17.8154 52.9844C17.8275 52.9132 17.8335 52.8243 17.8335 52.7176C17.8335 52.6115 17.8275 52.5229 17.8154 52.4518C17.8034 52.3807 17.783 52.3273 17.7545 52.2917C17.7265 52.2555 17.6881 52.2374 17.6392 52.2374C17.5896 52.2374 17.5509 52.2555 17.5229 52.2917C17.495 52.3273 17.475 52.3807 17.4629 52.4518C17.4515 52.5229 17.4458 52.6115 17.4458 52.7176ZM19.2436 52.7176C19.2436 52.83 19.2347 52.9304 19.2169 53.0187C19.1998 53.107 19.1718 53.1819 19.1331 53.2435C19.095 53.3051 19.0448 53.3521 18.9825 53.3845C18.9203 53.4169 18.8447 53.4331 18.7558 53.4331C18.644 53.4331 18.5522 53.4049 18.4804 53.3483C18.4087 53.2912 18.3556 53.2092 18.3213 53.1025C18.287 52.9952 18.2699 52.8669 18.2699 52.7176C18.2699 52.5671 18.2854 52.4385 18.3166 52.3317C18.3483 52.2244 18.3998 52.1421 18.4709 52.085C18.5421 52.0278 18.637 51.9992 18.7558 51.9992C18.8669 51.9992 18.9584 52.0278 19.0302 52.085C19.1026 52.1415 19.1563 52.2235 19.1912 52.3308C19.2261 52.4375 19.2436 52.5664 19.2436 52.7176ZM18.5624 52.7176C18.5624 52.8237 18.5681 52.9123 18.5795 52.9834C18.5916 53.0539 18.6116 53.107 18.6396 53.1425C18.6675 53.1781 18.7062 53.1959 18.7558 53.1959C18.8047 53.1959 18.8431 53.1784 18.8711 53.1435C18.8997 53.1079 18.92 53.0549 18.932 52.9844C18.9441 52.9132 18.9501 52.8243 18.9501 52.7176C18.9501 52.6115 18.9441 52.5229 18.932 52.4518C18.92 52.3807 18.8997 52.3273 18.8711 52.2917C18.8431 52.2555 18.8047 52.2374 18.7558 52.2374C18.7062 52.2374 18.6675 52.2555 18.6396 52.2917C18.6116 52.3273 18.5916 52.3807 18.5795 52.4518C18.5681 52.5229 18.5624 52.6115 18.5624 52.7176Z" fill="#212121"/>
<path d="M16.7722 60.8047H16.4778V59.9987C16.4778 59.9764 16.4781 59.9491 16.4787 59.9167C16.4794 59.8837 16.4803 59.85 16.4816 59.8157C16.4829 59.7808 16.4841 59.7494 16.4854 59.7214C16.4784 59.7297 16.4641 59.744 16.4425 59.7643C16.4216 59.784 16.4019 59.8018 16.3835 59.8176L16.2234 59.9463L16.0814 59.7691L16.5302 59.4118H16.7722V60.8047ZM18.127 60.1082C18.127 60.2207 18.1181 60.321 18.1003 60.4093C18.0832 60.4976 18.0552 60.5725 18.0165 60.6341C17.9783 60.6958 17.9282 60.7428 17.8659 60.7752C17.8037 60.8075 17.7281 60.8237 17.6392 60.8237C17.5274 60.8237 17.4356 60.7955 17.3638 60.7389C17.2921 60.6818 17.239 60.5998 17.2047 60.4931C17.1704 60.3858 17.1533 60.2575 17.1533 60.1082C17.1533 59.9577 17.1688 59.8291 17.2 59.7224C17.2317 59.615 17.2832 59.5328 17.3543 59.4756C17.4254 59.4184 17.5204 59.3899 17.6392 59.3899C17.7503 59.3899 17.8418 59.4184 17.9136 59.4756C17.986 59.5321 18.0396 59.6141 18.0746 59.7214C18.1095 59.8281 18.127 59.9571 18.127 60.1082ZM17.4458 60.1082C17.4458 60.2143 17.4515 60.3029 17.4629 60.374C17.475 60.4446 17.495 60.4976 17.5229 60.5332C17.5509 60.5687 17.5896 60.5865 17.6392 60.5865C17.6881 60.5865 17.7265 60.569 17.7545 60.5341C17.783 60.4985 17.8034 60.4455 17.8154 60.375C17.8275 60.3039 17.8335 60.2149 17.8335 60.1082C17.8335 60.0022 17.8275 59.9136 17.8154 59.8424C17.8034 59.7713 17.783 59.7179 17.7545 59.6824C17.7265 59.6462 17.6881 59.628 17.6392 59.628C17.5896 59.628 17.5509 59.6462 17.5229 59.6824C17.495 59.7179 17.475 59.7713 17.4629 59.8424C17.4515 59.9136 17.4458 60.0022 17.4458 60.1082ZM19.2436 60.1082C19.2436 60.2207 19.2347 60.321 19.2169 60.4093C19.1998 60.4976 19.1718 60.5725 19.1331 60.6341C19.095 60.6958 19.0448 60.7428 18.9825 60.7752C18.9203 60.8075 18.8447 60.8237 18.7558 60.8237C18.644 60.8237 18.5522 60.7955 18.4804 60.7389C18.4087 60.6818 18.3556 60.5998 18.3213 60.4931C18.287 60.3858 18.2699 60.2575 18.2699 60.1082C18.2699 59.9577 18.2854 59.8291 18.3166 59.7224C18.3483 59.615 18.3998 59.5328 18.4709 59.4756C18.5421 59.4184 18.637 59.3899 18.7558 59.3899C18.8669 59.3899 18.9584 59.4184 19.0302 59.4756C19.1026 59.5321 19.1563 59.6141 19.1912 59.7214C19.2261 59.8281 19.2436 59.9571 19.2436 60.1082ZM18.5624 60.1082C18.5624 60.2143 18.5681 60.3029 18.5795 60.374C18.5916 60.4446 18.6116 60.4976 18.6396 60.5332C18.6675 60.5687 18.7062 60.5865 18.7558 60.5865C18.8047 60.5865 18.8431 60.569 18.8711 60.5341C18.8997 60.4985 18.92 60.4455 18.932 60.375C18.9441 60.3039 18.9501 60.2149 18.9501 60.1082C18.9501 60.0022 18.9441 59.9136 18.932 59.8424C18.92 59.7713 18.8997 59.7179 18.8711 59.6824C18.8431 59.6462 18.8047 59.628 18.7558 59.628C18.7062 59.628 18.6675 59.6462 18.6396 59.6824C18.6116 59.7179 18.5916 59.7713 18.5795 59.8424C18.5681 59.9136 18.5624 60.0022 18.5624 60.1082Z" fill="#212121"/>
<path d="M19.2436 67.495C19.2436 67.6074 19.2347 67.7077 19.2169 67.796C19.1998 67.8843 19.1718 67.9593 19.1331 68.0209C19.095 68.0825 19.0448 68.1295 18.9825 68.1619C18.9203 68.1943 18.8447 68.2105 18.7558 68.2105C18.644 68.2105 18.5522 68.1822 18.4804 68.1257C18.4087 68.0685 18.3556 67.9866 18.3213 67.8799C18.287 67.7725 18.2699 67.6442 18.2699 67.495C18.2699 67.3444 18.2854 67.2158 18.3166 67.1091C18.3483 67.0017 18.3998 66.9195 18.4709 66.8623C18.5421 66.8052 18.637 66.7766 18.7558 66.7766C18.8669 66.7766 18.9584 66.8052 19.0302 66.8623C19.1026 66.9189 19.1563 67.0008 19.1912 67.1081C19.2261 67.2148 19.2436 67.3438 19.2436 67.495ZM18.5624 67.495C18.5624 67.601 18.5681 67.6896 18.5795 67.7608C18.5916 67.8313 18.6116 67.8843 18.6396 67.9199C18.6675 67.9554 18.7062 67.9732 18.7558 67.9732C18.8047 67.9732 18.8431 67.9558 18.8711 67.9208C18.8997 67.8853 18.92 67.8322 18.932 67.7617C18.9441 67.6906 18.9501 67.6017 18.9501 67.495C18.9501 67.3889 18.9441 67.3003 18.932 67.2291C18.92 67.158 18.8997 67.1046 18.8711 67.0691C18.8431 67.0329 18.8047 67.0148 18.7558 67.0148C18.7062 67.0148 18.6675 67.0329 18.6396 67.0691C18.6116 67.1046 18.5916 67.158 18.5795 67.2291C18.5681 67.3003 18.5624 67.3889 18.5624 67.495Z" fill="#212121"/>
<path d="M30.7617 71.4141H30.4673V70.608C30.4673 70.5858 30.4676 70.5585 30.4682 70.5261C30.4689 70.4931 30.4698 70.4594 30.4711 70.4251C30.4724 70.3902 30.4736 70.3587 30.4749 70.3308C30.4679 70.339 30.4536 70.3533 30.432 70.3737C30.4111 70.3934 30.3914 70.4111 30.373 70.427L30.2129 70.5556L30.0709 70.3784L30.5197 70.0212H30.7617V71.4141Z" fill="#212121"/>
<path d="M22.951 70.7176C22.951 70.83 22.9421 70.9304 22.9244 71.0187C22.9072 71.107 22.8793 71.1819 22.8405 71.2435C22.8024 71.3051 22.7522 71.3521 22.69 71.3845C22.6277 71.4169 22.5521 71.4331 22.4632 71.4331C22.3514 71.4331 22.2597 71.4049 22.1879 71.3483C22.1161 71.2912 22.0631 71.2092 22.0288 71.1025C21.9945 70.9952 21.9773 70.8669 21.9773 70.7176C21.9773 70.5671 21.9929 70.4385 22.024 70.3317C22.0558 70.2244 22.1072 70.1421 22.1784 70.085C22.2495 70.0278 22.3444 69.9992 22.4632 69.9992C22.5744 69.9992 22.6658 70.0278 22.7376 70.085C22.81 70.1415 22.8637 70.2235 22.8986 70.3308C22.9336 70.4375 22.951 70.5664 22.951 70.7176ZM22.2698 70.7176C22.2698 70.8237 22.2755 70.9123 22.287 70.9834C22.299 71.0539 22.319 71.107 22.347 71.1425C22.3749 71.1781 22.4137 71.1959 22.4632 71.1959C22.5121 71.1959 22.5506 71.1784 22.5785 71.1435C22.6071 71.1079 22.6274 71.0549 22.6395 70.9844C22.6515 70.9132 22.6576 70.8243 22.6576 70.7176C22.6576 70.6115 22.6515 70.5229 22.6395 70.4518C22.6274 70.3807 22.6071 70.3273 22.5785 70.2917C22.5506 70.2555 22.5121 70.2374 22.4632 70.2374C22.4137 70.2374 22.3749 70.2555 22.347 70.2917C22.319 70.3273 22.299 70.3807 22.287 70.4518C22.2755 70.5229 22.2698 70.6115 22.2698 70.7176Z" fill="#212121"/>
<path d="M39.0563 71.4141H38.0826V71.2092L38.4323 70.8558C38.5028 70.7833 38.5593 70.723 38.6018 70.6747C38.645 70.6258 38.6762 70.5814 38.6952 70.5413C38.7149 70.5013 38.7248 70.4585 38.7248 70.4127C38.7248 70.3575 38.7092 70.3162 38.6781 70.2889C38.6476 70.2609 38.6066 70.247 38.5552 70.247C38.5012 70.247 38.4488 70.2593 38.398 70.2841C38.3471 70.3089 38.2941 70.3441 38.2389 70.3899L38.0788 70.2003C38.1188 70.166 38.161 70.1336 38.2055 70.1031C38.2506 70.0726 38.3027 70.0481 38.3618 70.0297C38.4215 70.0107 38.4929 70.0011 38.5761 70.0011C38.6676 70.0011 38.746 70.0177 38.8115 70.0507C38.8775 70.0837 38.9283 70.1288 38.9639 70.186C38.9995 70.2425 39.0172 70.3067 39.0172 70.3784C39.0172 70.4553 39.002 70.5255 38.9715 70.589C38.941 70.6525 38.8966 70.7154 38.8381 70.7776C38.7803 70.8399 38.7105 70.9088 38.6285 70.9844L38.4494 71.153V71.1663H39.0563V71.4141Z" fill="#212121"/>
<path d="M47.294 70.3327C47.294 70.3968 47.2807 70.4524 47.254 70.4994C47.2273 70.5464 47.1911 70.5849 47.1454 70.6147C47.1003 70.6446 47.0495 70.6665 46.9929 70.6804V70.6862C47.1047 70.7001 47.1895 70.7344 47.2473 70.7891C47.3057 70.8437 47.335 70.9167 47.335 71.0082C47.335 71.0895 47.315 71.1622 47.2749 71.2264C47.2356 71.2905 47.1746 71.341 47.092 71.3779C47.0094 71.4147 46.9031 71.4331 46.7728 71.4331C46.696 71.4331 46.6242 71.4268 46.5575 71.4141C46.4915 71.402 46.4292 71.3833 46.3708 71.3579V71.1073C46.4305 71.1378 46.4931 71.161 46.5585 71.1768C46.6239 71.1921 46.6849 71.1997 46.7414 71.1997C46.8468 71.1997 46.9205 71.1816 46.9624 71.1454C47.005 71.1085 47.0263 71.0571 47.0263 70.991C47.0263 70.9523 47.0164 70.9196 46.9967 70.8929C46.977 70.8662 46.9427 70.8459 46.8938 70.8319C46.8456 70.818 46.7779 70.811 46.6909 70.811H46.5852V70.5852H46.6928C46.7786 70.5852 46.8437 70.5772 46.8881 70.5614C46.9332 70.5448 46.9637 70.5226 46.9796 70.4947C46.9961 70.4661 47.0044 70.4337 47.0044 70.3975C47.0044 70.3479 46.9891 70.3092 46.9586 70.2812C46.9281 70.2533 46.8773 70.2393 46.8062 70.2393C46.7617 70.2393 46.7211 70.245 46.6842 70.2565C46.648 70.2673 46.6153 70.2806 46.5861 70.2965C46.5569 70.3117 46.5312 70.3267 46.5089 70.3413L46.3727 70.1383C46.4273 70.099 46.4911 70.0662 46.5642 70.0402C46.6379 70.0142 46.7255 70.0011 46.8271 70.0011C46.9707 70.0011 47.0844 70.03 47.1682 70.0878C47.2521 70.1456 47.294 70.2273 47.294 70.3327Z" fill="#212121"/>
<path d="M55.4286 71.1254H55.2609V71.4141H54.9732V71.1254H54.3786V70.9205L54.9894 70.0212H55.2609V70.8967H55.4286V71.1254ZM54.9732 70.8967V70.6604C54.9732 70.6382 54.9735 70.6119 54.9741 70.5814C54.9754 70.5509 54.9766 70.5204 54.9779 70.4899C54.9792 70.4594 54.9805 70.4324 54.9817 70.4089C54.9836 70.3848 54.9849 70.3679 54.9855 70.3584H54.9779C54.9659 70.3845 54.9531 70.4099 54.9398 70.4346C54.9265 70.4588 54.9109 70.4842 54.8931 70.5109L54.6378 70.8967H54.9732Z" fill="#212121"/>
<path d="M62.9791 70.5242C63.0642 70.5242 63.1398 70.5404 63.2059 70.5728C63.2726 70.6052 63.325 70.6528 63.3631 70.7157C63.4012 70.7786 63.4202 70.8561 63.4202 70.9482C63.4202 71.0485 63.3993 71.1352 63.3574 71.2083C63.3161 71.2807 63.2541 71.3363 63.1716 71.375C63.0896 71.4137 62.9874 71.4331 62.8648 71.4331C62.7917 71.4331 62.7228 71.4268 62.658 71.4141C62.5939 71.402 62.5377 71.3833 62.4894 71.3579V71.1035C62.5377 71.1289 62.5955 71.1505 62.6628 71.1683C62.7308 71.1854 62.7946 71.194 62.8543 71.194C62.9127 71.194 62.962 71.1864 63.002 71.1711C63.042 71.1552 63.0722 71.1311 63.0925 71.0987C63.1134 71.0657 63.1239 71.0238 63.1239 70.9729C63.1239 70.905 63.1011 70.8529 63.0553 70.8167C63.0096 70.7805 62.9394 70.7624 62.8448 70.7624C62.8086 70.7624 62.7708 70.7659 62.7314 70.7729C62.6927 70.7799 62.6603 70.7868 62.6342 70.7938L62.517 70.7309L62.5694 70.0212H63.325V70.2708H62.8276L62.8019 70.5442C62.8235 70.5398 62.847 70.5353 62.8724 70.5309C62.8978 70.5264 62.9334 70.5242 62.9791 70.5242Z" fill="#212121"/>
<path d="M70.5116 70.8224C70.5116 70.7424 70.5173 70.6633 70.5287 70.5852C70.5408 70.5064 70.5614 70.4324 70.5906 70.3632C70.6198 70.2933 70.6608 70.2317 70.7135 70.1784C70.7663 70.1244 70.8333 70.0821 70.9146 70.0516C70.9959 70.0205 71.0943 70.005 71.2099 70.005C71.2372 70.005 71.269 70.0062 71.3052 70.0088C71.342 70.0107 71.3725 70.0142 71.3967 70.0192V70.2546C71.3712 70.2489 71.3439 70.2444 71.3147 70.2412C71.2861 70.2374 71.2576 70.2355 71.229 70.2355C71.1134 70.2355 71.0238 70.2539 70.9603 70.2908C70.8974 70.3276 70.853 70.3787 70.8269 70.4442C70.8015 70.509 70.7866 70.5845 70.7821 70.6709H70.7945C70.8123 70.6398 70.8345 70.6122 70.8612 70.588C70.8885 70.5639 70.9215 70.5448 70.9603 70.5309C70.999 70.5163 71.0445 70.509 71.0965 70.509C71.1778 70.509 71.2483 70.5264 71.308 70.5614C71.3678 70.5957 71.4138 70.6455 71.4462 70.7109C71.4786 70.7764 71.4948 70.8561 71.4948 70.9501C71.4948 71.0504 71.4754 71.1368 71.4367 71.2092C71.3979 71.2816 71.343 71.3372 71.2718 71.376C71.2013 71.4141 71.1175 71.4331 71.0203 71.4331C70.9492 71.4331 70.8828 71.421 70.8212 71.3969C70.7596 71.3721 70.7056 71.3347 70.6592 71.2845C70.6129 71.2343 70.5767 71.1711 70.5506 71.0949C70.5246 71.018 70.5116 70.9272 70.5116 70.8224ZM71.0146 71.1978C71.0724 71.1978 71.1194 71.1781 71.1556 71.1387C71.1918 71.0993 71.2099 71.0377 71.2099 70.9539C71.2099 70.8859 71.194 70.8326 71.1623 70.7938C71.1312 70.7544 71.0838 70.7348 71.0203 70.7348C70.9771 70.7348 70.939 70.7446 70.906 70.7643C70.8736 70.7833 70.8485 70.8078 70.8307 70.8377C70.8129 70.8669 70.804 70.897 70.804 70.9282C70.804 70.9606 70.8085 70.9926 70.8174 71.0244C70.8263 71.0561 70.8396 71.085 70.8574 71.1111C70.8752 71.1371 70.8971 71.1581 70.9231 71.174C70.9498 71.1899 70.9803 71.1978 71.0146 71.1978Z" fill="#212121"/>
<path d="M78.4649 71.4141L78.9879 70.2689H78.301V70.0212H79.3004V70.206L78.7736 71.4141H78.4649Z" fill="#212121"/>
<path d="M21.6329 68.9247C21.6329 68.9921 21.6875 69.0467 21.7549 69.0467C21.8222 69.0467 21.8768 68.9921 21.8768 68.9247H21.6329ZM21.7549 21.8516H21.6329V22.0967H21.7549H21.8768V21.8516H21.7549ZM21.7549 22.5871H21.6329V23.0774H21.7549H21.8768V22.5871H21.7549ZM21.7549 23.5678H21.6329V24.0581H21.7549H21.8768V23.5678H21.7549ZM21.7549 24.5485H21.6329V25.0388H21.7549H21.8768V24.5485H21.7549ZM21.7549 25.5292H21.6329V26.0195H21.7549H21.8768V25.5292H21.7549ZM21.7549 26.5098H21.6329V27.0002H21.7549H21.8768V26.5098H21.7549ZM21.7549 27.4905H21.6329V27.9809H21.7549H21.8768V27.4905H21.7549ZM21.7549 28.4712H21.6329V28.9616H21.7549H21.8768V28.4712H21.7549ZM21.7549 29.4519H21.6329V29.9423H21.7549H21.8768V29.4519H21.7549ZM21.7549 30.4326H21.6329V30.923H21.7549H21.8768V30.4326H21.7549ZM21.7549 31.4133H21.6329V31.9036H21.7549H21.8768V31.4133H21.7549ZM21.7549 32.394H21.6329V32.8843H21.7549H21.8768V32.394H21.7549ZM21.7549 33.3747H21.6329V33.865H21.7549H21.8768V33.3747H21.7549ZM21.7549 34.3554H21.6329V34.8457H21.7549H21.8768V34.3554H21.7549ZM21.7549 35.3361H21.6329V35.8264H21.7549H21.8768V35.3361H21.7549ZM21.7549 36.3168H21.6329V36.8071H21.7549H21.8768V36.3168H21.7549ZM21.7549 37.2975H21.6329V37.7878H21.7549H21.8768V37.2975H21.7549ZM21.7549 38.2781H21.6329V38.7685H21.7549H21.8768V38.2781H21.7549ZM21.7549 39.2588H21.6329V39.7492H21.7549H21.8768V39.2588H21.7549ZM21.7549 40.2395H21.6329V40.7299H21.7549H21.8768V40.2395H21.7549ZM21.7549 41.2202H21.6329V41.7106H21.7549H21.8768V41.2202H21.7549ZM21.7549 42.2009H21.6329V42.6912H21.7549H21.8768V42.2009H21.7549ZM21.7549 43.1816H21.6329V43.6719H21.7549H21.8768V43.1816H21.7549ZM21.7549 44.1623H21.6329V44.6526H21.7549H21.8768V44.1623H21.7549ZM21.7549 45.143H21.6329V45.6333H21.7549H21.8768V45.143H21.7549ZM21.7549 46.1237H21.6329V46.614H21.7549H21.8768V46.1237H21.7549ZM21.7549 47.1044H21.6329V47.5947H21.7549H21.8768V47.1044H21.7549ZM21.7549 48.085H21.6329V48.5754H21.7549H21.8768V48.085H21.7549ZM21.7549 49.0657H21.6329V49.5561H21.7549H21.8768V49.0657H21.7549ZM21.7549 50.0464H21.6329V50.5368H21.7549H21.8768V50.0464H21.7549ZM21.7549 51.0271H21.6329V51.5175H21.7549H21.8768V51.0271H21.7549ZM21.7549 52.0078H21.6329V52.4981H21.7549H21.8768V52.0078H21.7549ZM21.7549 52.9885H21.6329V53.4788H21.7549H21.8768V52.9885H21.7549ZM21.7549 53.9692H21.6329V54.4595H21.7549H21.8768V53.9692H21.7549ZM21.7549 54.9499H21.6329V55.4402H21.7549H21.8768V54.9499H21.7549ZM21.7549 55.9306H21.6329V56.4209H21.7549H21.8768V55.9306H21.7549ZM21.7549 56.9113H21.6329V57.4016H21.7549H21.8768V56.9113H21.7549ZM21.7549 57.8919H21.6329V58.3823H21.7549H21.8768V57.8919H21.7549ZM21.7549 58.8726H21.6329V59.363H21.7549H21.8768V58.8726H21.7549ZM21.7549 59.8533H21.6329V60.3437H21.7549H21.8768V59.8533H21.7549ZM21.7549 60.834H21.6329V61.3244H21.7549H21.8768V60.834H21.7549ZM21.7549 61.8147H21.6329V62.305H21.7549H21.8768V61.8147H21.7549ZM21.7549 62.7954H21.6329V63.2857H21.7549H21.8768V62.7954H21.7549ZM21.7549 63.7761H21.6329V64.2664H21.7549H21.8768V63.7761H21.7549ZM21.7549 64.7568H21.6329V65.2471H21.7549H21.8768V64.7568H21.7549ZM21.7549 65.7375H21.6329V66.2278H21.7549H21.8768V65.7375H21.7549ZM21.7549 66.7182H21.6329V67.2085H21.7549H21.8768V66.7182H21.7549ZM21.7549 67.6988H21.6329V68.1892H21.7549H21.8768V67.6988H21.7549ZM21.7549 68.6795H21.6329V68.9247H21.7549H21.8768V68.6795H21.7549Z" fill="#D4D4D4"/>
<path d="M21.7549 68.9258H78.0963" stroke="#D4D4D4" stroke-width="0.243902"/>
<path d="M21.9473 52.255V55.1198V68.7933H77.9053V59.6834C77.9053 58.276 75.7767 56.5231 74.8814 55.4372C74.2361 54.6544 73.6694 53.577 73.2245 52.5239C72.8081 51.5382 71.6254 51.0653 70.6973 51.598L68.1344 53.0693C67.3143 53.54 66.2673 53.2322 65.8325 52.3926L63.1048 47.1257C62.7184 46.3796 61.8356 46.0395 61.0485 46.3336L56.5276 48.0227C55.8917 48.2603 55.1751 48.087 54.7181 47.585L52.7213 45.3918C51.8671 44.4536 50.3189 44.7808 49.9174 45.9844L47.282 53.884C46.8663 55.1299 45.133 55.2064 44.6093 54.0019C44.3197 53.3359 43.5775 52.9919 42.8822 53.2015L41.7616 53.5392C41.0025 53.7679 40.1874 53.4283 39.8155 52.7281L37.9252 49.1699C37.4624 48.2987 36.3468 48.0205 35.5291 48.5724L29.9629 52.3289C29.4962 52.6439 28.9018 52.701 28.3837 52.4807L24.2583 50.7264C23.1627 50.2606 21.9473 51.0646 21.9473 52.255Z" fill="#FFEB10"/>
<g filter="url(#filter0_d_7927_93500)">
<circle cx="53.9924" cy="47.2375" r="1.17892" fill="#F3C600"/>
<circle cx="53.9924" cy="47.2375" r="1.42282" stroke="white" stroke-width="0.487805"/>
</g>
<g filter="url(#filter1_d_7927_93500)">
<circle cx="29.7893" cy="52.175" r="1.17892" fill="#F3C600"/>
<circle cx="29.7893" cy="52.175" r="1.42282" stroke="white" stroke-width="0.487805"/>
</g>
<g filter="url(#filter2_d_7927_93500)">
<path d="M55.5264 42.459C56.0797 42.5152 56.5115 42.9827 56.5117 43.5508V44.0391C56.5115 44.645 56.0201 45.1357 55.4141 45.1357H54.3975L53.9512 45.583L53.5039 45.1357H52.4873C51.8813 45.1357 51.3899 44.645 51.3896 44.0391V43.5508C51.3899 42.9448 51.8813 42.4531 52.4873 42.4531H55.4141L55.5264 42.459Z" fill="white"/>
</g>
<g filter="url(#filter3_d_7927_93500)">
<path d="M31.3223 47.4395C31.8756 47.4958 32.3076 47.9631 32.3076 48.5312V49.0195C32.3074 49.6254 31.8159 50.1161 31.21 50.1162H30.1934L29.7461 50.5625L29.2998 50.1162H28.2832C27.6772 50.1162 27.1858 49.6255 27.1855 49.0195V48.5312C27.1856 47.9251 27.6771 47.4336 28.2832 47.4336H31.21L31.3223 47.4395Z" fill="white"/>
</g>
<path d="M53.5835 43.9747C53.5835 44.0366 53.5789 44.0974 53.5699 44.1569C53.5613 44.2165 53.5461 44.2722 53.5242 44.3241C53.5027 44.376 53.4729 44.422 53.4348 44.462C53.3972 44.5016 53.3496 44.5325 53.2919 44.5549C53.2343 44.5773 53.1647 44.5885 53.0833 44.5885C53.0628 44.5885 53.039 44.5873 53.0118 44.5849C52.9851 44.583 52.9632 44.5802 52.9461 44.5764V44.4363C52.9642 44.4415 52.9844 44.4458 53.0068 44.4492C53.0297 44.452 53.0523 44.4535 53.0747 44.4535C53.1628 44.4535 53.2314 44.437 53.2805 44.4042C53.33 44.3713 53.365 44.326 53.3855 44.2684C53.4065 44.2107 53.4184 44.1452 53.4213 44.0719H53.4127C53.3989 44.0948 53.3815 44.1157 53.3605 44.1348C53.3396 44.1533 53.3136 44.1683 53.2826 44.1798C53.2517 44.1907 53.214 44.1962 53.1697 44.1962C53.1097 44.1962 53.0573 44.1836 53.0125 44.1583C52.9682 44.1331 52.9337 44.0964 52.9089 44.0483C52.8846 43.9997 52.8725 43.9414 52.8725 43.8732C52.8725 43.7994 52.8865 43.7358 52.9146 43.6825C52.9427 43.6291 52.9825 43.5881 53.034 43.5595C53.0854 43.5305 53.1459 43.516 53.2155 43.516C53.2679 43.516 53.3162 43.5255 53.3605 43.5445C53.4053 43.5631 53.4444 43.5917 53.4777 43.6303C53.5111 43.6684 53.537 43.7163 53.5556 43.7739C53.5742 43.8311 53.5835 43.898 53.5835 43.9747ZM53.2176 43.6546C53.1647 43.6546 53.1216 43.6724 53.0883 43.7082C53.0549 43.7434 53.0383 43.7977 53.0383 43.8711C53.0383 43.9306 53.0525 43.9778 53.0811 44.0126C53.1097 44.0474 53.1535 44.0647 53.2126 44.0647C53.2536 44.0647 53.2888 44.0564 53.3184 44.0397C53.3484 44.0226 53.3715 44.0009 53.3877 43.9747C53.4043 43.9485 53.4127 43.9218 53.4127 43.8947C53.4127 43.8666 53.4086 43.8385 53.4005 43.8104C53.3929 43.7823 53.381 43.7565 53.3648 43.7332C53.3486 43.7098 53.3281 43.691 53.3034 43.6767C53.2791 43.662 53.2505 43.6546 53.2176 43.6546ZM54.4833 44.0512C54.4833 44.1355 54.4767 44.211 54.4633 44.2777C54.4505 44.3439 54.43 44.4001 54.4019 44.4463C54.3738 44.4925 54.3371 44.5278 54.2918 44.5521C54.2466 44.5764 54.1918 44.5885 54.1275 44.5885C54.047 44.5885 53.9805 44.5673 53.9281 44.5249C53.8757 44.482 53.8369 44.4206 53.8116 44.3406C53.7864 44.2601 53.7738 44.1636 53.7738 44.0512C53.7738 43.9387 53.7852 43.8425 53.8081 43.7625C53.8314 43.682 53.869 43.6203 53.921 43.5774C53.9729 43.5345 54.0417 43.5131 54.1275 43.5131C54.2085 43.5131 54.2752 43.5345 54.3276 43.5774C54.3804 43.6198 54.4195 43.6813 54.4447 43.7618C54.4705 43.8418 54.4833 43.9383 54.4833 44.0512ZM53.9431 44.0512C53.9431 44.1393 53.9488 44.2129 53.9603 44.272C53.9722 44.331 53.9917 44.3753 54.0189 44.4049C54.046 44.4339 54.0822 44.4485 54.1275 44.4485C54.1727 44.4485 54.2089 44.4339 54.2361 44.4049C54.2632 44.3758 54.2828 44.3317 54.2947 44.2727C54.3071 44.2136 54.3133 44.1398 54.3133 44.0512C54.3133 43.9635 54.3073 43.8901 54.2954 43.8311C54.2835 43.772 54.264 43.7277 54.2368 43.6982C54.2097 43.6682 54.1732 43.6532 54.1275 43.6532C54.0817 43.6532 54.0453 43.6682 54.0181 43.6982C53.9915 43.7277 53.9722 43.772 53.9603 43.8311C53.9488 43.8901 53.9431 43.9635 53.9431 44.0512ZM55.3818 44.0512C55.3818 44.1355 55.3751 44.211 55.3618 44.2777C55.3489 44.3439 55.3284 44.4001 55.3003 44.4463C55.2722 44.4925 55.2355 44.5278 55.1903 44.5521C55.145 44.5764 55.0902 44.5885 55.0259 44.5885C54.9454 44.5885 54.879 44.5673 54.8266 44.5249C54.7742 44.482 54.7353 44.4206 54.7101 44.3406C54.6848 44.2601 54.6722 44.1636 54.6722 44.0512C54.6722 43.9387 54.6836 43.8425 54.7065 43.7625C54.7298 43.682 54.7675 43.6203 54.8194 43.5774C54.8713 43.5345 54.9402 43.5131 55.0259 43.5131C55.1069 43.5131 55.1736 43.5345 55.226 43.5774C55.2789 43.6198 55.3179 43.6813 55.3432 43.7618C55.3689 43.8418 55.3818 43.9383 55.3818 44.0512ZM54.8416 44.0512C54.8416 44.1393 54.8473 44.2129 54.8587 44.272C54.8706 44.331 54.8901 44.3753 54.9173 44.4049C54.9445 44.4339 54.9807 44.4485 55.0259 44.4485C55.0712 44.4485 55.1074 44.4339 55.1345 44.4049C55.1617 44.3758 55.1812 44.3317 55.1931 44.2727C55.2055 44.2136 55.2117 44.1398 55.2117 44.0512C55.2117 43.9635 55.2057 43.8901 55.1938 43.8311C55.1819 43.772 55.1624 43.7277 55.1352 43.6982C55.1081 43.6682 55.0716 43.6532 55.0259 43.6532C54.9802 43.6532 54.9437 43.6682 54.9166 43.6982C54.8899 43.7277 54.8706 43.772 54.8587 43.8311C54.8473 43.8901 54.8416 43.9635 54.8416 44.0512Z" fill="#212121"/>
<path d="M29.4196 49.3292H29.2782V49.5586H29.1124V49.3292H28.6372V49.202L29.1145 48.5111H29.2782V49.1899H29.4196V49.3292ZM29.1124 49.1899V48.9305C29.1124 48.9091 29.1126 48.8874 29.1131 48.8655C29.114 48.8431 29.115 48.8216 29.1159 48.8012C29.1169 48.7807 29.1179 48.7619 29.1188 48.7447C29.1198 48.7271 29.1205 48.7126 29.121 48.7011H29.1152C29.1062 48.7202 29.0962 48.7397 29.0852 48.7597C29.0743 48.7792 29.0626 48.7983 29.0502 48.8169L28.793 49.1899H29.1124ZM29.9251 48.4996C29.9856 48.4996 30.0401 48.5091 30.0887 48.5282C30.1373 48.5468 30.1759 48.5746 30.2045 48.6118C30.233 48.649 30.2473 48.6949 30.2473 48.7497C30.2473 48.7921 30.2385 48.829 30.2209 48.8605C30.2037 48.8919 30.1804 48.9195 30.1509 48.9434C30.1213 48.9667 30.0882 48.9874 30.0515 49.0055C30.0925 49.0255 30.1301 49.0486 30.1644 49.0748C30.1992 49.1006 30.2271 49.1308 30.248 49.1656C30.2695 49.2004 30.2802 49.2411 30.2802 49.2878C30.2802 49.3464 30.2652 49.3971 30.2352 49.44C30.2056 49.4824 30.1644 49.5152 30.1116 49.5386C30.0587 49.5615 29.997 49.5729 29.9265 49.5729C29.8508 49.5729 29.7862 49.5617 29.7329 49.5393C29.6795 49.5169 29.639 49.485 29.6114 49.4435C29.5837 49.4016 29.5699 49.3516 29.5699 49.2935C29.5699 49.2454 29.5795 49.2037 29.5985 49.1684C29.6176 49.1332 29.6431 49.1027 29.675 49.077C29.7074 49.0513 29.7429 49.0296 29.7814 49.012C29.7486 48.9924 29.7186 48.9705 29.6914 48.9462C29.6643 48.9214 29.6426 48.8931 29.6264 48.8612C29.6107 48.8288 29.6028 48.7914 29.6028 48.749C29.6028 48.6947 29.6173 48.6492 29.6464 48.6125C29.6754 48.5754 29.7143 48.5473 29.7629 48.5282C29.8119 48.5091 29.866 48.4996 29.9251 48.4996ZM29.73 49.2871C29.73 49.3328 29.7462 49.3704 29.7786 49.4C29.811 49.4295 29.8593 49.4443 29.9236 49.4443C29.9875 49.4443 30.0361 49.4297 30.0694 49.4007C30.1028 49.3716 30.1194 49.3333 30.1194 49.2856C30.1194 49.2551 30.1109 49.2282 30.0937 49.2049C30.077 49.1815 30.0544 49.1608 30.0258 49.1427C29.9977 49.1241 29.9665 49.107 29.9322 49.0913L29.9093 49.082C29.8722 49.0977 29.8403 49.1156 29.8136 49.1356C29.7869 49.1551 29.7662 49.1773 29.7514 49.202C29.7371 49.2268 29.73 49.2551 29.73 49.2871ZM29.9236 48.629C29.8774 48.629 29.8393 48.6404 29.8093 48.6633C29.7798 48.6856 29.765 48.718 29.765 48.7604C29.765 48.7904 29.7722 48.8162 29.7864 48.8376C29.8012 48.859 29.821 48.8776 29.8458 48.8933C29.8705 48.9086 29.8979 48.9229 29.9279 48.9362C29.957 48.9234 29.9832 48.9093 30.0065 48.8941C30.0303 48.8783 30.0492 48.8598 30.063 48.8383C30.0773 48.8164 30.0844 48.7902 30.0844 48.7597C30.0844 48.7178 30.0694 48.6856 30.0394 48.6633C30.0099 48.6404 29.9713 48.629 29.9236 48.629ZM31.1786 49.0355C31.1786 49.1199 31.172 49.1954 31.1586 49.2621C31.1458 49.3283 31.1253 49.3845 31.0972 49.4307C31.0691 49.4769 31.0324 49.5121 30.9871 49.5364C30.9419 49.5607 30.8871 49.5729 30.8228 49.5729C30.7423 49.5729 30.6758 49.5517 30.6234 49.5093C30.571 49.4664 30.5322 49.405 30.507 49.3249C30.4817 49.2444 30.4691 49.148 30.4691 49.0355C30.4691 48.9231 30.4805 48.8269 30.5034 48.7469C30.5267 48.6663 30.5644 48.6047 30.6163 48.5618C30.6682 48.5189 30.737 48.4975 30.8228 48.4975C30.9038 48.4975 30.9705 48.5189 31.0229 48.5618C31.0757 48.6042 31.1148 48.6656 31.1401 48.7461C31.1658 48.8262 31.1786 48.9226 31.1786 49.0355ZM30.6384 49.0355C30.6384 49.1237 30.6442 49.1973 30.6556 49.2563C30.6675 49.3154 30.687 49.3597 30.7142 49.3892C30.7413 49.4183 30.7775 49.4328 30.8228 49.4328C30.868 49.4328 30.9042 49.4183 30.9314 49.3892C30.9586 49.3602 30.9781 49.3161 30.99 49.2571C31.0024 49.198 31.0086 49.1241 31.0086 49.0355C31.0086 48.9479 31.0026 48.8745 30.9907 48.8155C30.9788 48.7564 30.9593 48.7121 30.9321 48.6825C30.905 48.6525 30.8685 48.6375 30.8228 48.6375C30.7771 48.6375 30.7406 48.6525 30.7135 48.6825C30.6868 48.7121 30.6675 48.7564 30.6556 48.8155C30.6442 48.8745 30.6384 48.9479 30.6384 49.0355Z" fill="#212121"/>
<defs>
<filter id="filter0_d_7927_93500" x="51.1789" y="44.1801" width="6.11447" height="6.11252" filterUnits="userSpaceOnUse" color-interpolation-filters="sRGB">
<feFlood flood-opacity="0" result="BackgroundImageFix"/>
<feColorMatrix in="SourceAlpha" type="matrix" values="0 0 0 0 0 0 0 0 0 0 0 0 0 0 0 0 0 0 127 0" result="hardAlpha"/>
<feMorphology radius="0.243902" operator="dilate" in="SourceAlpha" result="effect1_dropShadow_7927_93500"/>
<feOffset dx="0.243902"/>
<feGaussianBlur stdDeviation="0.573171"/>
<feComposite in2="hardAlpha" operator="out"/>
<feColorMatrix type="matrix" values="0 0 0 0 0.192157 0 0 0 0 0.298039 0 0 0 0 1 0 0 0 0.15 0"/>
<feBlend mode="normal" in2="BackgroundImageFix" result="effect1_dropShadow_7927_93500"/>
<feBlend mode="normal" in="SourceGraphic" in2="effect1_dropShadow_7927_93500" result="shape"/>
</filter>
<filter id="filter1_d_7927_93500" x="26.9757" y="49.1176" width="6.11447" height="6.11252" filterUnits="userSpaceOnUse" color-interpolation-filters="sRGB">
<feFlood flood-opacity="0" result="BackgroundImageFix"/>
<feColorMatrix in="SourceAlpha" type="matrix" values="0 0 0 0 0 0 0 0 0 0 0 0 0 0 0 0 0 0 127 0" result="hardAlpha"/>
<feMorphology radius="0.243902" operator="dilate" in="SourceAlpha" result="effect1_dropShadow_7927_93500"/>
<feOffset dx="0.243902"/>
<feGaussianBlur stdDeviation="0.573171"/>
<feComposite in2="hardAlpha" operator="out"/>
<feColorMatrix type="matrix" values="0 0 0 0 0.192157 0 0 0 0 0.298039 0 0 0 0 1 0 0 0 0.15 0"/>
<feBlend mode="normal" in2="BackgroundImageFix" result="effect1_dropShadow_7927_93500"/>
<feBlend mode="normal" in="SourceGraphic" in2="effect1_dropShadow_7927_93500" result="shape"/>
</filter>
<filter id="filter2_d_7927_93500" x="49.4384" y="40.7458" width="9.02451" height="7.03135" filterUnits="userSpaceOnUse" color-interpolation-filters="sRGB">
<feFlood flood-opacity="0" result="BackgroundImageFix"/>
<feColorMatrix in="SourceAlpha" type="matrix" values="0 0 0 0 0 0 0 0 0 0 0 0 0 0 0 0 0 0 127 0" result="hardAlpha"/>
<feOffset dy="0.243902"/>
<feGaussianBlur stdDeviation="0.97561"/>
<feColorMatrix type="matrix" values="0 0 0 0 0.293333 0 0 0 0 0.333211 0 0 0 0 0.431373 0 0 0 0.2 0"/>
<feBlend mode="normal" in2="BackgroundImageFix" result="effect1_dropShadow_7927_93500"/>
<feBlend mode="normal" in="SourceGraphic" in2="effect1_dropShadow_7927_93500" result="shape"/>
</filter>
<filter id="filter3_d_7927_93500" x="25.2343" y="45.7263" width="9.02451" height="7.03135" filterUnits="userSpaceOnUse" color-interpolation-filters="sRGB">
<feFlood flood-opacity="0" result="BackgroundImageFix"/>
<feColorMatrix in="SourceAlpha" type="matrix" values="0 0 0 0 0 0 0 0 0 0 0 0 0 0 0 0 0 0 127 0" result="hardAlpha"/>
<feOffset dy="0.243902"/>
<feGaussianBlur stdDeviation="0.97561"/>
<feColorMatrix type="matrix" values="0 0 0 0 0.293333 0 0 0 0 0.333211 0 0 0 0 0.431373 0 0 0 0.2 0"/>
<feBlend mode="normal" in2="BackgroundImageFix" result="effect1_dropShadow_7927_93500"/>
<feBlend mode="normal" in="SourceGraphic" in2="effect1_dropShadow_7927_93500" result="shape"/>
</filter>
</defs>
</svg>
