<svg width="271" height="52" viewBox="0 0 271 52" fill="none" xmlns="http://www.w3.org/2000/svg">
<g clip-path="url(#clip0_7390_198899)">
<path d="M28.0497 28.6307H35.3481V40.3864H30.0091H23.1515H13.3551L4.42938 37.1992H1.69727V18.1484H9.73035L28.0497 28.6307Z" fill="#E1FF49"/>
<path d="M35.3479 38.3104V40.3861H13.3547L4.42978 37.1995H1.69727V18.1484H9.73085L15.7324 21.5825V21.5854C15.7324 30.9396 23.3149 38.5211 32.6691 38.5211C33.5802 38.5211 34.4755 38.4495 35.3479 38.3104Z" fill="#8087FF"/>
<path d="M10.5137 10.707V21.9997L17.5107 28.6346H28.0493L22.9528 10.707H10.5137Z" fill="white"/>
<path d="M15.7323 21.5894C15.7323 23.9453 16.2132 26.1889 17.0826 28.2279L10.5137 21.9998V10.707H19.6909C17.2207 13.6492 15.7333 17.4439 15.7323 21.5864V21.5894Z" fill="#D2DCFD"/>
<path d="M9.37355 42.1455C12.104 42.1455 14.3174 39.9321 14.3174 37.2017C14.3174 34.4713 12.104 32.2578 9.37355 32.2578C6.64313 32.2578 4.42969 34.4713 4.42969 37.2017C4.42969 39.9321 6.64313 42.1455 9.37355 42.1455Z" fill="white"/>
<path d="M27.3488 42.0445C29.2952 41.5849 30.5005 39.6344 30.0409 37.688C29.5813 35.7416 27.6308 34.5363 25.6844 34.9959C23.738 35.4555 22.5327 37.406 22.9923 39.3524C23.4519 41.2988 25.4024 42.5041 27.3488 42.0445Z" fill="white"/>
<path d="M50.3833 39.395H43.1479V9.23583C43.1479 8.68704 42.703 8.24219 42.1543 8.24219C41.6056 8.24219 41.1606 8.68704 41.1606 9.23583V27.6391H35.7866C35.2379 27.6391 34.793 28.084 34.793 28.6328C34.793 29.1816 35.2379 29.6264 35.7866 29.6264H41.1606V36.4559H35.7866C35.2379 36.4559 34.793 36.9008 34.793 37.4496C34.793 37.9983 35.2379 38.4432 35.7866 38.4432H41.1606V40.3885C41.1606 40.9373 41.6056 41.3822 42.1543 41.3822H50.3833C50.932 41.3822 51.3769 40.9373 51.3769 40.3885C51.3769 39.8399 50.932 39.395 50.3833 39.395Z" fill="#8087FF"/>
<path d="M35.3476 27.6385H28.7997L23.9084 10.4329C23.7869 10.0058 23.3968 9.71094 22.9526 9.71094H10.5135C9.96485 9.71094 9.5199 10.1558 9.5199 10.7046V17.1562H1.69677C1.14798 17.1562 0.703125 17.601 0.703125 18.1498V37.2007C0.703125 37.7495 1.14798 38.1943 1.69677 38.1943H3.52C3.99436 40.9967 6.43752 43.1382 9.37284 43.1382C11.0176 43.1382 12.508 42.4656 13.5843 41.3814H22.8974C23.7434 42.4504 25.0508 43.1382 26.5166 43.1382C27.9825 43.1382 29.29 42.4504 30.1359 41.3814H35.3476C35.8963 41.3814 36.3412 40.9366 36.3412 40.3878V28.632C36.3412 28.0834 35.8964 27.6385 35.3476 27.6385ZM11.5072 11.6982H22.202L26.7337 27.6384H17.9068L11.5073 21.57L11.5072 11.6982ZM9.37284 41.151C7.19458 41.151 5.42252 39.379 5.42252 37.2008C5.42252 35.0226 7.19458 33.2506 9.37284 33.2506C11.551 33.2506 13.3231 35.0226 13.3231 37.2008C13.3231 39.379 11.551 41.151 9.37284 41.151ZM26.5166 41.151C25.0677 41.151 23.8889 39.9722 23.8889 38.5232C23.8889 37.0743 25.0677 35.8956 26.5166 35.8956C27.9655 35.8956 29.1443 37.0743 29.1443 38.5232C29.1443 39.9722 27.9655 41.151 26.5166 41.151ZM34.354 39.3943H31.048C31.1022 39.112 31.1316 38.821 31.1316 38.5232C31.1316 35.9785 29.0613 33.9083 26.5166 33.9083C23.9719 33.9083 21.9017 35.9785 21.9017 38.5232C21.9017 38.821 21.9311 39.112 21.9852 39.3943H14.8886C15.1597 38.7151 15.3103 37.9754 15.3103 37.2007C15.3103 33.9268 12.6468 31.2632 9.37284 31.2632C6.43752 31.2632 3.99436 33.4047 3.52 36.2071H2.69041V19.1436H9.5199V21.9972C9.5199 22.2699 9.63198 22.5306 9.82981 22.7182L16.8268 29.3531C17.0114 29.5282 17.2561 29.6258 17.5106 29.6258H28.0492H34.354V39.3943Z" fill="#052A75"/>
</g>
<g clip-path="url(#clip1_7390_198899)">
<path d="M101.024 28.6307H108.323V40.3864H102.984H96.1261H86.3297L77.404 37.1992H74.6719V18.1484H82.705L101.024 28.6307Z" fill="#E1FF49"/>
<path d="M108.323 38.3104V40.3861H86.3293L77.4044 37.1995H74.6719V18.1484H82.7055L88.7071 21.5825V21.5854C88.7071 30.9396 96.2895 38.5211 105.644 38.5211C106.555 38.5211 107.45 38.4495 108.323 38.3104Z" fill="#8087FF"/>
<path d="M83.4883 10.707V21.9997L90.4853 28.6346H101.024L95.9274 10.707H83.4883Z" fill="white"/>
<path d="M88.7069 21.5894C88.7069 23.9453 89.1878 26.1889 90.0572 28.2279L83.4883 21.9998V10.707H92.6655C90.1954 13.6492 88.7079 17.4439 88.7069 21.5864V21.5894Z" fill="#D2DCFD"/>
<path d="M82.3462 42.1455C85.0766 42.1455 87.2901 39.9321 87.2901 37.2017C87.2901 34.4713 85.0766 32.2578 82.3462 32.2578C79.6158 32.2578 77.4023 34.4713 77.4023 37.2017C77.4023 39.9321 79.6158 42.1455 82.3462 42.1455Z" fill="white"/>
<path d="M100.325 42.0445C102.272 41.5849 103.477 39.6344 103.017 37.688C102.558 35.7416 100.607 34.5363 98.661 34.9959C96.7146 35.4555 95.5093 37.406 95.9689 39.3524C96.4285 41.2988 98.3789 42.5041 100.325 42.0445Z" fill="white"/>
<path d="M123.356 39.395H116.121V9.23583C116.121 8.68704 115.676 8.24219 115.127 8.24219C114.578 8.24219 114.133 8.68704 114.133 9.23583V27.6391H108.759C108.211 27.6391 107.766 28.084 107.766 28.6328C107.766 29.1816 108.211 29.6264 108.759 29.6264H114.133V36.4559H108.759C108.211 36.4559 107.766 36.9008 107.766 37.4496C107.766 37.9983 108.211 38.4432 108.759 38.4432H114.133V40.3885C114.133 40.9373 114.578 41.3822 115.127 41.3822H123.356C123.905 41.3822 124.35 40.9373 124.35 40.3885C124.35 39.8399 123.905 39.395 123.356 39.395Z" fill="#8087FF"/>
<path d="M108.32 27.6385H101.772L96.8811 10.4329C96.7595 10.0058 96.3694 9.71094 95.9253 9.71094H83.4862C82.9375 9.71094 82.4926 10.1558 82.4926 10.7046V17.1562H74.6694C74.1206 17.1562 73.6758 17.601 73.6758 18.1498V37.2007C73.6758 37.7495 74.1206 38.1943 74.6694 38.1943H76.4927C76.967 40.9967 79.4102 43.1382 82.3455 43.1382C83.9903 43.1382 85.4806 42.4656 86.5569 41.3814H95.87C96.716 42.4504 98.0235 43.1382 99.4893 43.1382C100.955 43.1382 102.263 42.4504 103.109 41.3814H108.32C108.869 41.3814 109.314 40.9366 109.314 40.3878V28.632C109.314 28.0834 108.869 27.6385 108.32 27.6385ZM84.4798 11.6982H95.1747L99.7064 27.6384H90.8795L84.4799 21.57L84.4798 11.6982ZM82.3455 41.151C80.1672 41.151 78.3952 39.379 78.3952 37.2008C78.3952 35.0226 80.1672 33.2506 82.3455 33.2506C84.5237 33.2506 86.2957 35.0226 86.2957 37.2008C86.2957 39.379 84.5237 41.151 82.3455 41.151ZM99.4893 41.151C98.0403 41.151 96.8616 39.9722 96.8616 38.5232C96.8616 37.0743 98.0403 35.8956 99.4893 35.8956C100.938 35.8956 102.117 37.0743 102.117 38.5232C102.117 39.9722 100.938 41.151 99.4893 41.151ZM107.327 39.3943H104.021C104.075 39.112 104.104 38.821 104.104 38.5232C104.104 35.9785 102.034 33.9083 99.4893 33.9083C96.9446 33.9083 94.8743 35.9785 94.8743 38.5232C94.8743 38.821 94.9037 39.112 94.9579 39.3943H87.8613C88.1324 38.7151 88.283 37.9754 88.283 37.2007C88.283 33.9268 85.6194 31.2632 82.3455 31.2632C79.4102 31.2632 76.967 33.4047 76.4927 36.2071H75.6631V19.1436H82.4926V21.9972C82.4926 22.2699 82.6046 22.5306 82.8025 22.7182L89.7995 29.3531C89.984 29.5282 90.2287 29.6258 90.4832 29.6258H101.022H107.327V39.3943Z" fill="#052A75"/>
</g>
<g clip-path="url(#clip2_7390_198899)">
<path d="M173.994 28.6307H181.292V40.3864H175.953H169.096H159.299L150.374 37.1992H147.642V18.1484H155.675L173.994 28.6307Z" fill="#E1FF49"/>
<path d="M181.292 38.3104V40.3861H159.299L150.374 37.1995H147.642V18.1484H155.675L161.677 21.5825V21.5854C161.677 30.9396 169.259 38.5211 178.613 38.5211C179.525 38.5211 180.42 38.4495 181.292 38.3104Z" fill="#8087FF"/>
<path d="M156.458 10.707V21.9997L163.455 28.6346H173.994L168.897 10.707H156.458Z" fill="white"/>
<path d="M161.677 21.5894C161.677 23.9453 162.158 26.1889 163.027 28.2279L156.458 21.9998V10.707H165.635C163.165 13.6492 161.678 17.4439 161.677 21.5864V21.5894Z" fill="#D2DCFD"/>
<path d="M155.318 42.1455C158.048 42.1455 160.262 39.9321 160.262 37.2017C160.262 34.4713 158.048 32.2578 155.318 32.2578C152.587 32.2578 150.374 34.4713 150.374 37.2017C150.374 39.9321 152.587 42.1455 155.318 42.1455Z" fill="white"/>
<path d="M173.295 42.0445C175.241 41.5849 176.447 39.6344 175.987 37.688C175.528 35.7416 173.577 34.5363 171.631 34.9959C169.684 35.4555 168.479 37.406 168.939 39.3524C169.398 41.2988 171.349 42.5041 173.295 42.0445Z" fill="white"/>
<path d="M196.33 39.395H189.094V9.23583C189.094 8.68704 188.649 8.24219 188.101 8.24219C187.552 8.24219 187.107 8.68704 187.107 9.23583V27.6391H181.733C181.184 27.6391 180.739 28.084 180.739 28.6328C180.739 29.1816 181.184 29.6264 181.733 29.6264H187.107V36.4559H181.733C181.184 36.4559 180.739 36.9008 180.739 37.4496C180.739 37.9983 181.184 38.4432 181.733 38.4432H187.107V40.3885C187.107 40.9373 187.552 41.3822 188.101 41.3822H196.33C196.878 41.3822 197.323 40.9373 197.323 40.3885C197.323 39.8399 196.878 39.395 196.33 39.395Z" fill="#8087FF"/>
<path d="M181.294 27.6385H174.746L169.855 10.4329C169.733 10.0058 169.343 9.71094 168.899 9.71094H156.46C155.911 9.71094 155.466 10.1558 155.466 10.7046V17.1562H147.643C147.094 17.1562 146.649 17.601 146.649 18.1498V37.2007C146.649 37.7495 147.094 38.1943 147.643 38.1943H149.466C149.941 40.9967 152.384 43.1382 155.319 43.1382C156.964 43.1382 158.454 42.4656 159.531 41.3814H168.844C169.69 42.4504 170.997 43.1382 172.463 43.1382C173.929 43.1382 175.236 42.4504 176.082 41.3814H181.294C181.843 41.3814 182.288 40.9366 182.288 40.3878V28.632C182.288 28.0834 181.843 27.6385 181.294 27.6385ZM157.453 11.6982H168.148L172.68 27.6384H163.853L157.454 21.57L157.453 11.6982ZM155.319 41.151C153.141 41.151 151.369 39.379 151.369 37.2008C151.369 35.0226 153.141 33.2506 155.319 33.2506C157.497 33.2506 159.269 35.0226 159.269 37.2008C159.269 39.379 157.497 41.151 155.319 41.151ZM172.463 41.151C171.014 41.151 169.835 39.9722 169.835 38.5232C169.835 37.0743 171.014 35.8956 172.463 35.8956C173.912 35.8956 175.091 37.0743 175.091 38.5232C175.091 39.9722 173.912 41.151 172.463 41.151ZM180.3 39.3943H176.994C177.048 39.112 177.078 38.821 177.078 38.5232C177.078 35.9785 175.008 33.9083 172.463 33.9083C169.918 33.9083 167.848 35.9785 167.848 38.5232C167.848 38.821 167.877 39.112 167.932 39.3943H160.835C161.106 38.7151 161.257 37.9754 161.257 37.2007C161.257 33.9268 158.593 31.2632 155.319 31.2632C152.384 31.2632 149.941 33.4047 149.466 36.2071H148.637V19.1436H155.466V21.9972C155.466 22.2699 155.578 22.5306 155.776 22.7182L162.773 29.3531C162.958 29.5282 163.202 29.6258 163.457 29.6258H173.995H180.3V39.3943Z" fill="#052A75"/>
</g>
<g clip-path="url(#clip3_7390_198899)">
<path d="M246.969 28.6307H254.267V40.3864H248.928H242.07H232.274L223.348 37.1992H220.616V18.1484H228.649L246.969 28.6307Z" fill="#E1FF49"/>
<path d="M254.267 38.3104V40.3861H232.274L223.349 37.1995H220.616V18.1484H228.65L234.651 21.5825V21.5854C234.651 30.9396 242.234 38.5211 251.588 38.5211C252.499 38.5211 253.394 38.4495 254.267 38.3104Z" fill="#8087FF"/>
<path d="M229.433 10.707V21.9997L236.43 28.6346H246.968L241.872 10.707H229.433Z" fill="white"/>
<path d="M234.651 21.5894C234.651 23.9453 235.132 26.1889 236.002 28.2279L229.433 21.9998V10.707H238.61C236.14 13.6492 234.652 17.4439 234.651 21.5864V21.5894Z" fill="#D2DCFD"/>
<path d="M228.292 42.1455C231.023 42.1455 233.236 39.9321 233.236 37.2017C233.236 34.4713 231.023 32.2578 228.292 32.2578C225.562 32.2578 223.349 34.4713 223.349 37.2017C223.349 39.9321 225.562 42.1455 228.292 42.1455Z" fill="white"/>
<path d="M246.268 42.0445C248.214 41.5849 249.419 39.6344 248.96 37.688C248.5 35.7416 246.55 34.5363 244.603 34.9959C242.657 35.4555 241.452 37.406 241.911 39.3524C242.371 41.2988 244.321 42.5041 246.268 42.0445Z" fill="white"/>
<path d="M269.302 39.395H262.067V9.23583C262.067 8.68704 261.622 8.24219 261.073 8.24219C260.525 8.24219 260.08 8.68704 260.08 9.23583V27.6391H254.706C254.157 27.6391 253.712 28.084 253.712 28.6328C253.712 29.1816 254.157 29.6264 254.706 29.6264H260.08V36.4559H254.706C254.157 36.4559 253.712 36.9008 253.712 37.4496C253.712 37.9983 254.157 38.4432 254.706 38.4432H260.08V40.3885C260.08 40.9373 260.525 41.3822 261.073 41.3822H269.302C269.851 41.3822 270.296 40.9373 270.296 40.3885C270.296 39.8399 269.851 39.395 269.302 39.395Z" fill="#8087FF"/>
<path d="M254.267 27.6385H247.719L242.827 10.4329C242.706 10.0058 242.316 9.71094 241.872 9.71094H229.432C228.884 9.71094 228.439 10.1558 228.439 10.7046V17.1562H220.616C220.067 17.1562 219.622 17.601 219.622 18.1498V37.2007C219.622 37.7495 220.067 38.1943 220.616 38.1943H222.439C222.913 40.9967 225.356 43.1382 228.292 43.1382C229.937 43.1382 231.427 42.4656 232.503 41.3814H241.816C242.662 42.4504 243.97 43.1382 245.436 43.1382C246.901 43.1382 248.209 42.4504 249.055 41.3814H254.267C254.815 41.3814 255.26 40.9366 255.26 40.3878V28.632C255.26 28.0834 254.815 27.6385 254.267 27.6385ZM230.426 11.6982H241.121L245.653 27.6384H236.826L230.426 21.57L230.426 11.6982ZM228.292 41.151C226.114 41.151 224.341 39.379 224.341 37.2008C224.341 35.0226 226.114 33.2506 228.292 33.2506C230.47 33.2506 232.242 35.0226 232.242 37.2008C232.242 39.379 230.47 41.151 228.292 41.151ZM245.436 41.151C243.987 41.151 242.808 39.9722 242.808 38.5232C242.808 37.0743 243.987 35.8956 245.436 35.8956C246.884 35.8956 248.063 37.0743 248.063 38.5232C248.063 39.9722 246.884 41.151 245.436 41.151ZM253.273 39.3943H249.967C250.021 39.112 250.051 38.821 250.051 38.5232C250.051 35.9785 247.98 33.9083 245.436 33.9083C242.891 33.9083 240.821 35.9785 240.821 38.5232C240.821 38.821 240.85 39.112 240.904 39.3943H233.808C234.079 38.7151 234.229 37.9754 234.229 37.2007C234.229 33.9268 231.566 31.2632 228.292 31.2632C225.356 31.2632 222.913 33.4047 222.439 36.2071H221.609V19.1436H228.439V21.9972C228.439 22.2699 228.551 22.5306 228.749 22.7182L235.746 29.3531C235.93 29.5282 236.175 29.6258 236.43 29.6258H246.968H253.273V39.3943Z" fill="#052A75"/>
</g>
<defs>
<clipPath id="clip0_7390_198899">
<rect width="50.6757" height="50.6757" fill="white" transform="translate(0.703125 0.351562)"/>
</clipPath>
<clipPath id="clip1_7390_198899">
<rect width="50.6757" height="50.6757" fill="white" transform="translate(73.6758 0.351562)"/>
</clipPath>
<clipPath id="clip2_7390_198899">
<rect width="50.6757" height="50.6757" fill="white" transform="translate(146.649 0.351562)"/>
</clipPath>
<clipPath id="clip3_7390_198899">
<rect width="50.6757" height="50.6757" fill="white" transform="translate(219.622 0.351562)"/>
</clipPath>
</defs>
</svg>
