<svg width="93" height="92" viewBox="0 0 93 92" fill="none" xmlns="http://www.w3.org/2000/svg">
<rect x="1.25995" y="0.389831" width="91.079" height="91.2203" rx="17.5424" stroke="#BEBEBE" stroke-width="0.779661"/>
<line x1="17.77" y1="22.1211" x2="17.77" y2="65.066" stroke="#D3D6DF" stroke-width="0.122003"/>
<line x1="26.5542" y1="22.1821" x2="26.5542" y2="65.005" stroke="#D3D6DF" stroke-width="0.122003" stroke-linecap="square" stroke-dasharray="0.24 0.24"/>
<line x1="35.3383" y1="22.1821" x2="35.3383" y2="65.005" stroke="#D3D6DF" stroke-width="0.122003" stroke-linecap="square" stroke-dasharray="0.24 0.24"/>
<line x1="44.1225" y1="22.1821" x2="44.1225" y2="65.005" stroke="#D3D6DF" stroke-width="0.122003" stroke-linecap="square" stroke-dasharray="0.24 0.24"/>
<line x1="52.9067" y1="22.1821" x2="52.9067" y2="65.005" stroke="#D3D6DF" stroke-width="0.122003" stroke-linecap="square" stroke-dasharray="0.24 0.24"/>
<line x1="61.6909" y1="22.1821" x2="61.6909" y2="65.005" stroke="#D3D6DF" stroke-width="0.122003" stroke-linecap="square" stroke-dasharray="0.24 0.24"/>
<line x1="70.4751" y1="22.1821" x2="70.4751" y2="65.005" stroke="#D3D6DF" stroke-width="0.122003" stroke-linecap="square" stroke-dasharray="0.24 0.24"/>
<line x1="79.2592" y1="22.1821" x2="79.2592" y2="65.005" stroke="#D3D6DF" stroke-width="0.122003" stroke-linecap="square" stroke-dasharray="0.24 0.24"/>
<line x1="18.0141" y1="23.2788" x2="79.1375" y2="23.2788" stroke="#D3D6DF" stroke-width="0.122003" stroke-linecap="square" stroke-dasharray="0.24 0.24"/>
<line x1="18.0141" y1="25.9624" x2="79.1375" y2="25.9624" stroke="#D3D6DF" stroke-width="0.122003" stroke-linecap="square" stroke-dasharray="0.24 0.24"/>
<line x1="18.0141" y1="28.646" x2="79.1375" y2="28.646" stroke="#D3D6DF" stroke-width="0.122003" stroke-linecap="square" stroke-dasharray="0.24 0.24"/>
<line x1="18.0141" y1="31.3296" x2="79.1375" y2="31.3296" stroke="#D3D6DF" stroke-width="0.122003" stroke-linecap="square" stroke-dasharray="0.24 0.24"/>
<line x1="18.0141" y1="34.0132" x2="79.1375" y2="34.0132" stroke="#D3D6DF" stroke-width="0.122003" stroke-linecap="square" stroke-dasharray="0.24 0.24"/>
<line x1="18.0141" y1="36.6968" x2="79.1375" y2="36.6968" stroke="#D3D6DF" stroke-width="0.122003" stroke-linecap="square" stroke-dasharray="0.24 0.24"/>
<line x1="18.0141" y1="39.3804" x2="79.1375" y2="39.3804" stroke="#D3D6DF" stroke-width="0.122003" stroke-linecap="square" stroke-dasharray="0.24 0.24"/>
<line x1="18.0141" y1="42.0679" x2="79.1375" y2="42.0679" stroke="#D3D6DF" stroke-width="0.122003" stroke-linecap="square" stroke-dasharray="0.24 0.24"/>
<line x1="18.0141" y1="44.7515" x2="79.1375" y2="44.7515" stroke="#D3D6DF" stroke-width="0.122003" stroke-linecap="square" stroke-dasharray="0.24 0.24"/>
<line x1="18.0141" y1="47.4351" x2="79.1375" y2="47.4351" stroke="#D3D6DF" stroke-width="0.122003" stroke-linecap="square" stroke-dasharray="0.24 0.24"/>
<line x1="18.0141" y1="50.1187" x2="79.1375" y2="50.1187" stroke="#D3D6DF" stroke-width="0.122003" stroke-linecap="square" stroke-dasharray="0.24 0.24"/>
<line x1="18.0141" y1="52.8023" x2="79.1375" y2="52.8023" stroke="#D3D6DF" stroke-width="0.122003" stroke-linecap="square" stroke-dasharray="0.24 0.24"/>
<line x1="18.0141" y1="55.4859" x2="79.1375" y2="55.4859" stroke="#D3D6DF" stroke-width="0.122003" stroke-linecap="square" stroke-dasharray="0.24 0.24"/>
<line x1="18.0141" y1="58.1695" x2="79.1375" y2="58.1695" stroke="#D3D6DF" stroke-width="0.122003" stroke-linecap="square" stroke-dasharray="0.24 0.24"/>
<line x1="18.0141" y1="60.8531" x2="79.1375" y2="60.8531" stroke="#D3D6DF" stroke-width="0.122003" stroke-linecap="square" stroke-dasharray="0.24 0.24"/>
<line x1="18.0141" y1="63.5406" x2="79.1375" y2="63.5406" stroke="#D3D6DF" stroke-width="0.122003" stroke-linecap="square" stroke-dasharray="0.24 0.24"/>
<path d="M18.1035 67.441C18.1035 67.5385 18.0961 67.6255 18.0813 67.7022C18.0665 67.7788 18.0432 67.8437 18.0115 67.8968C17.9797 67.9499 17.9387 67.9904 17.8883 68.0183C17.8379 68.0457 17.7774 68.0594 17.7068 68.0594C17.6176 68.0594 17.5437 68.035 17.4851 67.9863C17.427 67.9376 17.3835 67.8672 17.3545 67.7753C17.326 67.6827 17.3118 67.5713 17.3118 67.441C17.3118 67.3129 17.3247 67.2029 17.3504 67.1109C17.3767 67.0184 17.4188 66.9475 17.4769 66.8982C17.5349 66.8484 17.6115 66.8235 17.7068 66.8235C17.7971 66.8235 17.8716 66.8481 17.9302 66.8974C17.9888 66.9461 18.0323 67.0167 18.0607 67.1092C18.0892 67.2012 18.1035 67.3118 18.1035 67.441ZM17.4489 67.441C17.4489 67.5527 17.4574 67.6458 17.4744 67.7202C17.4914 67.7947 17.5187 67.8505 17.5565 67.8878C17.5948 67.9244 17.6449 67.9428 17.7068 67.9428C17.7687 67.9428 17.8185 67.9244 17.8563 67.8878C17.8946 67.8511 17.9222 67.7955 17.9392 67.721C17.9567 67.6466 17.9655 67.5532 17.9655 67.441C17.9655 67.331 17.957 67.239 17.94 67.1651C17.9231 67.0906 17.8957 67.0348 17.8579 66.9976C17.8201 66.9598 17.7698 66.9409 17.7068 66.9409C17.6438 66.9409 17.5935 66.9598 17.5557 66.9976C17.5179 67.0348 17.4905 67.0906 17.4736 67.1651C17.4571 67.239 17.4489 67.331 17.4489 67.441Z" fill="#222539"/>
<path d="M26.9616 68.043H26.8285V67.1922C26.8285 67.1599 26.8285 67.1322 26.8285 67.1092C26.8291 67.0857 26.8296 67.0643 26.8302 67.0452C26.8313 67.0255 26.8326 67.0055 26.8343 66.9852C26.8173 67.0028 26.8014 67.0178 26.7866 67.0304C26.7718 67.0424 26.7535 67.0575 26.7316 67.0756L26.5945 67.1856L26.523 67.0928L26.8482 66.8423H26.9616V68.043Z" fill="#222539"/>
<path d="M35.9263 68.043H35.1396V67.9288L35.4607 67.6028C35.5204 67.5426 35.5705 67.4889 35.611 67.4418C35.652 67.3948 35.6832 67.3485 35.7046 67.303C35.7259 67.2571 35.7366 67.2067 35.7366 67.1519C35.7366 67.0841 35.7164 67.0323 35.6758 66.9967C35.6359 66.9606 35.583 66.9425 35.5173 66.9425C35.4599 66.9425 35.4089 66.9524 35.3646 66.9721C35.3203 66.9918 35.2748 67.0197 35.2283 67.0559L35.1552 66.9639C35.1869 66.9371 35.2214 66.9132 35.2587 66.8924C35.2964 66.8716 35.3367 66.8552 35.3794 66.8432C35.4226 66.8311 35.4686 66.8251 35.5173 66.8251C35.5913 66.8251 35.655 66.838 35.7087 66.8637C35.7623 66.8894 35.8037 66.9261 35.8327 66.9737C35.8623 67.0214 35.877 67.078 35.877 67.1437C35.877 67.2072 35.8644 67.2664 35.8393 67.3211C35.8141 67.3753 35.7788 67.4292 35.7333 67.4829C35.6879 67.536 35.6348 67.5924 35.574 67.6521L35.3129 67.9124V67.9181H35.9263V68.043Z" fill="#222539"/>
<path d="M44.5685 67.1224C44.5685 67.176 44.5581 67.2226 44.5373 67.262C44.5165 67.3014 44.4875 67.3337 44.4502 67.3589C44.413 67.3835 44.3692 67.4008 44.3188 67.4106V67.4172C44.4141 67.4292 44.4855 67.4599 44.5332 67.5092C44.5814 67.5584 44.6054 67.6231 44.6054 67.703C44.6054 67.7725 44.589 67.8341 44.5562 67.8878C44.5239 67.9414 44.4741 67.9836 44.4067 68.0142C44.3399 68.0443 44.2542 68.0594 44.1497 68.0594C44.0862 68.0594 44.0273 68.0542 43.9731 68.0438C43.9195 68.0339 43.868 68.0172 43.8187 67.9937V67.8656C43.8685 67.8902 43.9227 67.9097 43.9813 67.9239C44.0399 67.9376 44.0966 67.9444 44.1513 67.9444C44.2608 67.9444 44.3399 67.9228 44.3886 67.8795C44.4374 67.8357 44.4617 67.7761 44.4617 67.7005C44.4617 67.6485 44.448 67.6066 44.4207 67.5749C44.3938 67.5426 44.355 67.519 44.3041 67.5042C44.2537 67.4889 44.1929 67.4813 44.1217 67.4813H44.0018V67.3646H44.1226C44.1877 67.3646 44.243 67.3551 44.2885 67.3359C44.3339 67.3167 44.3684 67.2899 44.3919 67.2554C44.416 67.2204 44.4281 67.179 44.4281 67.1314C44.4281 67.0706 44.4078 67.0238 44.3673 66.991C44.3268 66.9576 44.2718 66.9409 44.2022 66.9409C44.1595 66.9409 44.1207 66.9453 44.0856 66.954C44.0506 66.9628 44.0177 66.9748 43.9871 66.9902C43.9564 67.0055 43.9257 67.0233 43.8951 67.0435L43.8261 66.9499C43.8699 66.916 43.9233 66.8867 43.9862 66.8621C44.0492 66.8374 44.1207 66.8251 44.2006 66.8251C44.3232 66.8251 44.4152 66.853 44.4765 66.9089C44.5378 66.9647 44.5685 67.0359 44.5685 67.1224Z" fill="#222539"/>
<path d="M53.3583 67.7646H53.1785V68.043H53.0454V67.7646H52.4648V67.6496L53.0364 66.8358H53.1785V67.6414H53.3583V67.7646ZM53.0454 67.6414V67.2488C53.0454 67.2187 53.0457 67.1916 53.0463 67.1675C53.0468 67.1429 53.0476 67.1202 53.0487 67.0994C53.0498 67.078 53.0506 67.0578 53.0512 67.0386C53.0523 67.0195 53.0531 67.0006 53.0537 66.982H53.0471C53.0367 67.0038 53.0246 67.0271 53.011 67.0518C52.9978 67.0758 52.9844 67.0975 52.9707 67.1166L52.6003 67.6414H53.0454Z" fill="#222539"/>
<path d="M61.5776 67.3088C61.6592 67.3088 61.7301 67.3228 61.7903 67.3507C61.8505 67.3781 61.897 67.418 61.9299 67.4706C61.9633 67.5231 61.98 67.5869 61.98 67.6619C61.98 67.744 61.9622 67.8149 61.9266 67.8746C61.891 67.9337 61.8398 67.9795 61.773 68.0118C61.7062 68.0435 61.6263 68.0594 61.5332 68.0594C61.4708 68.0594 61.4128 68.0539 61.3591 68.043C61.3055 68.032 61.2603 68.0156 61.2236 67.9937V67.8639C61.2636 67.888 61.3121 67.9072 61.369 67.9214C61.4259 67.9357 61.4812 67.9428 61.5349 67.9428C61.5956 67.9428 61.6488 67.9332 61.6942 67.914C61.7402 67.8943 61.7758 67.8648 61.801 67.8253C61.8267 67.7854 61.8396 67.7353 61.8396 67.6751C61.8396 67.5951 61.8149 67.5335 61.7656 67.4903C61.7169 67.4465 61.6397 67.4246 61.5341 67.4246C61.5001 67.4246 61.4629 67.4273 61.4224 67.4328C61.3819 67.4383 61.3485 67.4443 61.3222 67.4509L61.2532 67.4057L61.2992 66.8423H61.8962V66.9672H61.4158L61.3854 67.3293C61.4062 67.3249 61.433 67.3206 61.4659 67.3162C61.4987 67.3113 61.536 67.3088 61.5776 67.3088Z" fill="#222539"/>
<path d="M69.897 67.5297C69.897 67.4574 69.9019 67.3868 69.9118 67.3178C69.9222 67.2488 69.9394 67.1848 69.9635 67.1257C69.9876 67.066 70.0205 67.0137 70.0621 66.9688C70.1037 66.9239 70.1554 66.8889 70.2173 66.8637C70.2797 66.838 70.3544 66.8251 70.4415 66.8251C70.4661 66.8251 70.4927 66.8265 70.5211 66.8292C70.5496 66.8314 70.5732 66.8352 70.5918 66.8407V66.9581C70.5715 66.951 70.5482 66.9458 70.522 66.9425C70.4962 66.9392 70.4702 66.9376 70.444 66.9376C70.3421 66.9376 70.2619 66.9598 70.2033 67.0041C70.1453 67.0485 70.1034 67.1087 70.0777 67.1848C70.052 67.2603 70.0372 67.3455 70.0333 67.4402H70.0424C70.0593 67.4128 70.081 67.3882 70.1073 67.3663C70.1335 67.3438 70.1653 67.326 70.2025 67.3129C70.2403 67.2998 70.2841 67.2932 70.3339 67.2932C70.404 67.2932 70.465 67.3074 70.517 67.3359C70.5696 67.3644 70.6101 67.4057 70.6386 67.4599C70.6676 67.5141 70.6821 67.5798 70.6821 67.657C70.6821 67.7397 70.6668 67.8111 70.6361 67.8713C70.6055 67.9316 70.5617 67.9781 70.5047 68.0109C70.4483 68.0432 70.381 68.0594 70.3027 68.0594C70.2441 68.0594 70.1902 68.0482 70.1409 68.0257C70.0916 68.0033 70.0487 67.9699 70.012 67.9255C69.9759 67.8812 69.9477 67.8262 69.9274 67.7605C69.9071 67.6942 69.897 67.6173 69.897 67.5297ZM70.3011 67.9444C70.3755 67.9444 70.4352 67.9206 70.4801 67.873C70.525 67.8253 70.5474 67.7534 70.5474 67.657C70.5474 67.5782 70.5274 67.5157 70.4875 67.4698C70.4475 67.4238 70.3873 67.4008 70.3068 67.4008C70.2521 67.4008 70.2044 67.4123 70.1639 67.4353C70.1234 67.4577 70.0919 67.4862 70.0695 67.5207C70.047 67.5552 70.0358 67.5902 70.0358 67.6258C70.0358 67.6619 70.041 67.6986 70.0514 67.7358C70.0624 67.7731 70.0788 67.8076 70.1007 67.8393C70.1226 67.8711 70.1502 67.8965 70.1836 67.9157C70.217 67.9348 70.2562 67.9444 70.3011 67.9444Z" fill="#222539"/>
<path d="M78.7255 68.043L79.2182 66.9672H78.5637V66.8423H79.3644V66.9475L78.8749 68.043H78.7255Z" fill="#222539"/>
<path d="M12.5052 24H12.3722V23.1492C12.3722 23.1169 12.3722 23.0893 12.3722 23.0663C12.3727 23.0427 12.3733 23.0214 12.3738 23.0022C12.3749 22.9825 12.3763 22.9625 12.3779 22.9423C12.361 22.9598 12.3451 22.9748 12.3303 22.9874C12.3155 22.9995 12.2972 23.0145 12.2753 23.0326L12.1381 23.1426L12.0667 23.0498L12.3919 22.7994H12.5052V24ZM13.3396 23.2658C13.4212 23.2658 13.4921 23.2798 13.5523 23.3077C13.6125 23.3351 13.659 23.3751 13.6919 23.4276C13.7253 23.4802 13.742 23.5439 13.742 23.619C13.742 23.7011 13.7242 23.772 13.6886 23.8316C13.653 23.8908 13.6018 23.9365 13.535 23.9688C13.4682 24.0005 13.3883 24.0164 13.2952 24.0164C13.2328 24.0164 13.1748 24.0109 13.1211 24C13.0675 23.9891 13.0223 23.9726 12.9856 23.9507V23.821C13.0256 23.8451 13.0741 23.8642 13.131 23.8785C13.1879 23.8927 13.2432 23.8998 13.2969 23.8998C13.3576 23.8998 13.4108 23.8902 13.4562 23.8711C13.5022 23.8514 13.5378 23.8218 13.563 23.7824C13.5887 23.7424 13.6016 23.6923 13.6016 23.6321C13.6016 23.5522 13.5769 23.4906 13.5276 23.4473C13.4789 23.4035 13.4017 23.3816 13.2961 23.3816C13.2621 23.3816 13.2249 23.3844 13.1844 23.3898C13.1439 23.3953 13.1105 23.4013 13.0842 23.4079L13.0152 23.3627L13.0612 22.7994H13.6582V22.9242H13.1778L13.1474 23.2864C13.1682 23.282 13.195 23.2776 13.2279 23.2732C13.2607 23.2683 13.298 23.2658 13.3396 23.2658ZM14.7159 23.398C14.7159 23.4955 14.7086 23.5825 14.6938 23.6592C14.679 23.7358 14.6557 23.8007 14.624 23.8538C14.5922 23.9069 14.5512 23.9474 14.5008 23.9754C14.4504 24.0027 14.3899 24.0164 14.3193 24.0164C14.2301 24.0164 14.1561 23.9921 14.0976 23.9433C14.0395 23.8946 13.996 23.8243 13.967 23.7323C13.9385 23.6398 13.9243 23.5283 13.9243 23.398C13.9243 23.2699 13.9372 23.1599 13.9629 23.0679C13.9892 22.9754 14.0313 22.9045 14.0894 22.8552C14.1474 22.8054 14.224 22.7805 14.3193 22.7805C14.4096 22.7805 14.4841 22.8051 14.5427 22.8544C14.6013 22.9031 14.6448 22.9737 14.6732 23.0663C14.7017 23.1582 14.7159 23.2688 14.7159 23.398ZM14.0614 23.398C14.0614 23.5097 14.0699 23.6028 14.0869 23.6773C14.1039 23.7517 14.1312 23.8076 14.169 23.8448C14.2073 23.8815 14.2574 23.8998 14.3193 23.8998C14.3812 23.8998 14.431 23.8815 14.4688 23.8448C14.5071 23.8081 14.5347 23.7525 14.5517 23.6781C14.5692 23.6036 14.578 23.5103 14.578 23.398C14.578 23.288 14.5695 23.196 14.5525 23.1221C14.5356 23.0477 14.5082 22.9918 14.4704 22.9546C14.4326 22.9168 14.3823 22.8979 14.3193 22.8979C14.2563 22.8979 14.206 22.9168 14.1682 22.9546C14.1304 22.9918 14.103 23.0477 14.0861 23.1221C14.0696 23.196 14.0614 23.288 14.0614 23.398ZM15.6784 23.398C15.6784 23.4955 15.671 23.5825 15.6562 23.6592C15.6415 23.7358 15.6182 23.8007 15.5864 23.8538C15.5547 23.9069 15.5136 23.9474 15.4633 23.9754C15.4129 24.0027 15.3524 24.0164 15.2818 24.0164C15.1925 24.0164 15.1186 23.9921 15.06 23.9433C15.002 23.8946 14.9585 23.8243 14.9295 23.7323C14.901 23.6398 14.8868 23.5283 14.8868 23.398C14.8868 23.2699 14.8996 23.1599 14.9254 23.0679C14.9516 22.9754 14.9938 22.9045 15.0518 22.8552C15.1099 22.8054 15.1865 22.7805 15.2818 22.7805C15.3721 22.7805 15.4466 22.8051 15.5051 22.8544C15.5637 22.9031 15.6072 22.9737 15.6357 23.0663C15.6642 23.1582 15.6784 23.2688 15.6784 23.398ZM15.0239 23.398C15.0239 23.5097 15.0324 23.6028 15.0494 23.6773C15.0663 23.7517 15.0937 23.8076 15.1315 23.8448C15.1698 23.8815 15.2199 23.8998 15.2818 23.8998C15.3436 23.8998 15.3935 23.8815 15.4312 23.8448C15.4696 23.8081 15.4972 23.7525 15.5142 23.6781C15.5317 23.6036 15.5405 23.5103 15.5405 23.398C15.5405 23.288 15.532 23.196 15.515 23.1221C15.498 23.0477 15.4707 22.9918 15.4329 22.9546C15.3951 22.9168 15.3447 22.8979 15.2818 22.8979C15.2188 22.8979 15.1684 22.9168 15.1307 22.9546C15.0929 22.9918 15.0655 23.0477 15.0485 23.1221C15.0321 23.196 15.0239 23.288 15.0239 23.398ZM12.5052 27H12.3722V26.1492C12.3722 26.1169 12.3722 26.0893 12.3722 26.0663C12.3727 26.0427 12.3733 26.0214 12.3738 26.0022C12.3749 25.9825 12.3763 25.9625 12.3779 25.9423C12.361 25.9598 12.3451 25.9748 12.3303 25.9874C12.3155 25.9995 12.2972 26.0145 12.2753 26.0326L12.1381 26.1426L12.0667 26.0498L12.3919 25.7994H12.5052V27ZM13.8069 26.7216H13.627V27H13.494V26.7216H12.9134V26.6066L13.4849 25.7928H13.627V26.5984H13.8069V26.7216ZM13.494 26.5984V26.2059C13.494 26.1758 13.4942 26.1487 13.4948 26.1246C13.4953 26.0999 13.4962 26.0772 13.4973 26.0564C13.4984 26.0351 13.4992 26.0148 13.4997 25.9956C13.5008 25.9765 13.5016 25.9576 13.5022 25.939H13.4956C13.4852 25.9609 13.4732 25.9841 13.4595 26.0088C13.4463 26.0329 13.4329 26.0545 13.4192 26.0737L13.0489 26.5984H13.494ZM14.7159 26.398C14.7159 26.4955 14.7086 26.5825 14.6938 26.6592C14.679 26.7358 14.6557 26.8007 14.624 26.8538C14.5922 26.9069 14.5512 26.9474 14.5008 26.9754C14.4504 27.0027 14.3899 27.0164 14.3193 27.0164C14.2301 27.0164 14.1561 26.9921 14.0976 26.9433C14.0395 26.8946 13.996 26.8243 13.967 26.7323C13.9385 26.6398 13.9243 26.5283 13.9243 26.398C13.9243 26.2699 13.9372 26.1599 13.9629 26.0679C13.9892 25.9754 14.0313 25.9045 14.0894 25.8552C14.1474 25.8054 14.224 25.7805 14.3193 25.7805C14.4096 25.7805 14.4841 25.8051 14.5427 25.8544C14.6013 25.9031 14.6448 25.9737 14.6732 26.0663C14.7017 26.1582 14.7159 26.2688 14.7159 26.398ZM14.0614 26.398C14.0614 26.5097 14.0699 26.6028 14.0869 26.6773C14.1039 26.7517 14.1312 26.8076 14.169 26.8448C14.2073 26.8815 14.2574 26.8998 14.3193 26.8998C14.3812 26.8998 14.431 26.8815 14.4688 26.8448C14.5071 26.8081 14.5347 26.7525 14.5517 26.6781C14.5692 26.6036 14.578 26.5103 14.578 26.398C14.578 26.288 14.5695 26.196 14.5525 26.1221C14.5356 26.0477 14.5082 25.9918 14.4704 25.9546C14.4326 25.9168 14.3823 25.8979 14.3193 25.8979C14.2563 25.8979 14.206 25.9168 14.1682 25.9546C14.1304 25.9918 14.103 26.0477 14.0861 26.1221C14.0696 26.196 14.0614 26.288 14.0614 26.398ZM15.6784 26.398C15.6784 26.4955 15.671 26.5825 15.6562 26.6592C15.6415 26.7358 15.6182 26.8007 15.5864 26.8538C15.5547 26.9069 15.5136 26.9474 15.4633 26.9754C15.4129 27.0027 15.3524 27.0164 15.2818 27.0164C15.1925 27.0164 15.1186 26.9921 15.06 26.9433C15.002 26.8946 14.9585 26.8243 14.9295 26.7323C14.901 26.6398 14.8868 26.5283 14.8868 26.398C14.8868 26.2699 14.8996 26.1599 14.9254 26.0679C14.9516 25.9754 14.9938 25.9045 15.0518 25.8552C15.1099 25.8054 15.1865 25.7805 15.2818 25.7805C15.3721 25.7805 15.4466 25.8051 15.5051 25.8544C15.5637 25.9031 15.6072 25.9737 15.6357 26.0663C15.6642 26.1582 15.6784 26.2688 15.6784 26.398ZM15.0239 26.398C15.0239 26.5097 15.0324 26.6028 15.0494 26.6773C15.0663 26.7517 15.0937 26.8076 15.1315 26.8448C15.1698 26.8815 15.2199 26.8998 15.2818 26.8998C15.3436 26.8998 15.3935 26.8815 15.4312 26.8448C15.4696 26.8081 15.4972 26.7525 15.5142 26.6781C15.5317 26.6036 15.5405 26.5103 15.5405 26.398C15.5405 26.288 15.532 26.196 15.515 26.1221C15.498 26.0477 15.4707 25.9918 15.4329 25.9546C15.3951 25.9168 15.3447 25.8979 15.2818 25.8979C15.2188 25.8979 15.1684 25.9168 15.1307 25.9546C15.0929 25.9918 15.0655 26.0477 15.0485 26.1221C15.0321 26.196 15.0239 26.288 15.0239 26.398ZM12.5052 29H12.3722V28.1492C12.3722 28.1169 12.3722 28.0893 12.3722 28.0663C12.3727 28.0427 12.3733 28.0214 12.3738 28.0022C12.3749 27.9825 12.3763 27.9625 12.3779 27.9423C12.361 27.9598 12.3451 27.9748 12.3303 27.9874C12.3155 27.9995 12.2972 28.0145 12.2753 28.0326L12.1381 28.1426L12.0667 28.0498L12.3919 27.7994H12.5052V29ZM13.7026 28.0794C13.7026 28.1331 13.6922 28.1796 13.6714 28.219C13.6506 28.2584 13.6215 28.2907 13.5843 28.3159C13.5471 28.3406 13.5033 28.3578 13.4529 28.3677V28.3742C13.5482 28.3863 13.6196 28.4169 13.6672 28.4662C13.7154 28.5155 13.7395 28.5801 13.7395 28.66C13.7395 28.7295 13.7231 28.7911 13.6902 28.8448C13.6579 28.8984 13.6081 28.9406 13.5408 28.9713C13.474 29.0014 13.3883 29.0164 13.2837 29.0164C13.2202 29.0164 13.1614 29.0112 13.1072 29.0008C13.0535 28.991 13.0021 28.9743 12.9528 28.9507V28.8226C13.0026 28.8473 13.0568 28.8667 13.1154 28.8809C13.174 28.8946 13.2306 28.9015 13.2854 28.9015C13.3949 28.9015 13.474 28.8798 13.5227 28.8366C13.5714 28.7928 13.5958 28.7331 13.5958 28.6576C13.5958 28.6055 13.5821 28.5637 13.5547 28.5319C13.5279 28.4996 13.489 28.4761 13.4381 28.4613C13.3878 28.4459 13.327 28.4383 13.2558 28.4383H13.1359V28.3217H13.2566C13.3218 28.3217 13.3771 28.3121 13.4225 28.2929C13.468 28.2738 13.5025 28.2469 13.526 28.2124C13.5501 28.1774 13.5621 28.1361 13.5621 28.0884C13.5621 28.0277 13.5419 27.9809 13.5014 27.948C13.4608 27.9146 13.4058 27.8979 13.3363 27.8979C13.2936 27.8979 13.2547 27.9023 13.2197 27.9111C13.1846 27.9198 13.1518 27.9319 13.1211 27.9472C13.0905 27.9625 13.0598 27.9803 13.0292 28.0006L12.9602 27.907C13.004 27.873 13.0574 27.8437 13.1203 27.8191C13.1833 27.7944 13.2547 27.7821 13.3347 27.7821C13.4573 27.7821 13.5493 27.81 13.6106 27.8659C13.6719 27.9217 13.7026 27.9929 13.7026 28.0794ZM14.7159 28.398C14.7159 28.4955 14.7086 28.5825 14.6938 28.6592C14.679 28.7358 14.6557 28.8007 14.624 28.8538C14.5922 28.9069 14.5512 28.9474 14.5008 28.9754C14.4504 29.0027 14.3899 29.0164 14.3193 29.0164C14.2301 29.0164 14.1561 28.9921 14.0976 28.9433C14.0395 28.8946 13.996 28.8243 13.967 28.7323C13.9385 28.6398 13.9243 28.5283 13.9243 28.398C13.9243 28.2699 13.9372 28.1599 13.9629 28.0679C13.9892 27.9754 14.0313 27.9045 14.0894 27.8552C14.1474 27.8054 14.224 27.7805 14.3193 27.7805C14.4096 27.7805 14.4841 27.8051 14.5427 27.8544C14.6013 27.9031 14.6448 27.9737 14.6732 28.0663C14.7017 28.1582 14.7159 28.2688 14.7159 28.398ZM14.0614 28.398C14.0614 28.5097 14.0699 28.6028 14.0869 28.6773C14.1039 28.7517 14.1312 28.8076 14.169 28.8448C14.2073 28.8815 14.2574 28.8998 14.3193 28.8998C14.3812 28.8998 14.431 28.8815 14.4688 28.8448C14.5071 28.8081 14.5347 28.7525 14.5517 28.6781C14.5692 28.6036 14.578 28.5103 14.578 28.398C14.578 28.288 14.5695 28.196 14.5525 28.1221C14.5356 28.0477 14.5082 27.9918 14.4704 27.9546C14.4326 27.9168 14.3823 27.8979 14.3193 27.8979C14.2563 27.8979 14.206 27.9168 14.1682 27.9546C14.1304 27.9918 14.103 28.0477 14.0861 28.1221C14.0696 28.196 14.0614 28.288 14.0614 28.398ZM15.6784 28.398C15.6784 28.4955 15.671 28.5825 15.6562 28.6592C15.6415 28.7358 15.6182 28.8007 15.5864 28.8538C15.5547 28.9069 15.5136 28.9474 15.4633 28.9754C15.4129 29.0027 15.3524 29.0164 15.2818 29.0164C15.1925 29.0164 15.1186 28.9921 15.06 28.9433C15.002 28.8946 14.9585 28.8243 14.9295 28.7323C14.901 28.6398 14.8868 28.5283 14.8868 28.398C14.8868 28.2699 14.8996 28.1599 14.9254 28.0679C14.9516 27.9754 14.9938 27.9045 15.0518 27.8552C15.1099 27.8054 15.1865 27.7805 15.2818 27.7805C15.3721 27.7805 15.4466 27.8051 15.5051 27.8544C15.5637 27.9031 15.6072 27.9737 15.6357 28.0663C15.6642 28.1582 15.6784 28.2688 15.6784 28.398ZM15.0239 28.398C15.0239 28.5097 15.0324 28.6028 15.0494 28.6773C15.0663 28.7517 15.0937 28.8076 15.1315 28.8448C15.1698 28.8815 15.2199 28.8998 15.2818 28.8998C15.3436 28.8998 15.3935 28.8815 15.4312 28.8448C15.4696 28.8081 15.4972 28.7525 15.5142 28.6781C15.5317 28.6036 15.5405 28.5103 15.5405 28.398C15.5405 28.288 15.532 28.196 15.515 28.1221C15.498 28.0477 15.4707 27.9918 15.4329 27.9546C15.3951 27.9168 15.3447 27.8979 15.2818 27.8979C15.2188 27.8979 15.1684 27.9168 15.1307 27.9546C15.0929 27.9918 15.0655 28.0477 15.0485 28.1221C15.0321 28.196 15.0239 28.288 15.0239 28.398ZM12.5052 32H12.3722V31.1492C12.3722 31.1169 12.3722 31.0893 12.3722 31.0663C12.3727 31.0427 12.3733 31.0214 12.3738 31.0022C12.3749 30.9825 12.3763 30.9625 12.3779 30.9423C12.361 30.9598 12.3451 30.9748 12.3303 30.9874C12.3155 30.9995 12.2972 31.0145 12.2753 31.0326L12.1381 31.1426L12.0667 31.0498L12.3919 30.7994H12.5052V32ZM13.7469 32H12.9602V31.8859L13.2813 31.5598C13.3409 31.4996 13.391 31.4459 13.4316 31.3989C13.4726 31.3518 13.5038 31.3055 13.5252 31.2601C13.5465 31.2141 13.5572 31.1637 13.5572 31.109C13.5572 31.0411 13.5369 30.9893 13.4964 30.9538C13.4565 30.9176 13.4036 30.8996 13.3379 30.8996C13.2805 30.8996 13.2295 30.9094 13.1852 30.9291C13.1408 30.9488 13.0954 30.9768 13.0489 31.0129L12.9758 30.9209C13.0075 30.8941 13.042 30.8703 13.0793 30.8495C13.117 30.8287 13.1573 30.8122 13.2 30.8002C13.2432 30.7882 13.2892 30.7821 13.3379 30.7821C13.4118 30.7821 13.4756 30.795 13.5293 30.8207C13.5829 30.8465 13.6243 30.8831 13.6533 30.9308C13.6829 30.9784 13.6976 31.0351 13.6976 31.1008C13.6976 31.1643 13.685 31.2234 13.6599 31.2781C13.6347 31.3323 13.5994 31.3863 13.5539 31.4399C13.5085 31.493 13.4554 31.5494 13.3946 31.6091L13.1335 31.8694V31.8752H13.7469V32ZM14.7159 31.398C14.7159 31.4955 14.7086 31.5825 14.6938 31.6592C14.679 31.7358 14.6557 31.8007 14.624 31.8538C14.5922 31.9069 14.5512 31.9474 14.5008 31.9754C14.4504 32.0027 14.3899 32.0164 14.3193 32.0164C14.2301 32.0164 14.1561 31.9921 14.0976 31.9433C14.0395 31.8946 13.996 31.8243 13.967 31.7323C13.9385 31.6398 13.9243 31.5283 13.9243 31.398C13.9243 31.2699 13.9372 31.1599 13.9629 31.0679C13.9892 30.9754 14.0313 30.9045 14.0894 30.8552C14.1474 30.8054 14.224 30.7805 14.3193 30.7805C14.4096 30.7805 14.4841 30.8051 14.5427 30.8544C14.6013 30.9031 14.6448 30.9737 14.6732 31.0663C14.7017 31.1582 14.7159 31.2688 14.7159 31.398ZM14.0614 31.398C14.0614 31.5097 14.0699 31.6028 14.0869 31.6773C14.1039 31.7517 14.1312 31.8076 14.169 31.8448C14.2073 31.8815 14.2574 31.8998 14.3193 31.8998C14.3812 31.8998 14.431 31.8815 14.4688 31.8448C14.5071 31.8081 14.5347 31.7525 14.5517 31.6781C14.5692 31.6036 14.578 31.5103 14.578 31.398C14.578 31.288 14.5695 31.196 14.5525 31.1221C14.5356 31.0477 14.5082 30.9918 14.4704 30.9546C14.4326 30.9168 14.3823 30.8979 14.3193 30.8979C14.2563 30.8979 14.206 30.9168 14.1682 30.9546C14.1304 30.9918 14.103 31.0477 14.0861 31.1221C14.0696 31.196 14.0614 31.288 14.0614 31.398ZM15.6784 31.398C15.6784 31.4955 15.671 31.5825 15.6562 31.6592C15.6415 31.7358 15.6182 31.8007 15.5864 31.8538C15.5547 31.9069 15.5136 31.9474 15.4633 31.9754C15.4129 32.0027 15.3524 32.0164 15.2818 32.0164C15.1925 32.0164 15.1186 31.9921 15.06 31.9433C15.002 31.8946 14.9585 31.8243 14.9295 31.7323C14.901 31.6398 14.8868 31.5283 14.8868 31.398C14.8868 31.2699 14.8996 31.1599 14.9254 31.0679C14.9516 30.9754 14.9938 30.9045 15.0518 30.8552C15.1099 30.8054 15.1865 30.7805 15.2818 30.7805C15.3721 30.7805 15.4466 30.8051 15.5051 30.8544C15.5637 30.9031 15.6072 30.9737 15.6357 31.0663C15.6642 31.1582 15.6784 31.2688 15.6784 31.398ZM15.0239 31.398C15.0239 31.5097 15.0324 31.6028 15.0494 31.6773C15.0663 31.7517 15.0937 31.8076 15.1315 31.8448C15.1698 31.8815 15.2199 31.8998 15.2818 31.8998C15.3436 31.8998 15.3935 31.8815 15.4312 31.8448C15.4696 31.8081 15.4972 31.7525 15.5142 31.6781C15.5317 31.6036 15.5405 31.5103 15.5405 31.398C15.5405 31.288 15.532 31.196 15.515 31.1221C15.498 31.0477 15.4707 30.9918 15.4329 30.9546C15.3951 30.9168 15.3447 30.8979 15.2818 30.8979C15.2188 30.8979 15.1684 30.9168 15.1307 30.9546C15.0929 30.9918 15.0655 31.0477 15.0485 31.1221C15.0321 31.196 15.0239 31.288 15.0239 31.398ZM12.5052 35H12.3722V34.1492C12.3722 34.1169 12.3722 34.0893 12.3722 34.0663C12.3727 34.0427 12.3733 34.0214 12.3738 34.0022C12.3749 33.9825 12.3763 33.9625 12.3779 33.9423C12.361 33.9598 12.3451 33.9748 12.3303 33.9874C12.3155 33.9995 12.2972 34.0145 12.2753 34.0326L12.1381 34.1426L12.0667 34.0498L12.3919 33.7994H12.5052V35ZM13.4677 35H13.3347V34.1492C13.3347 34.1169 13.3347 34.0893 13.3347 34.0663C13.3352 34.0427 13.3357 34.0214 13.3363 34.0022C13.3374 33.9825 13.3388 33.9625 13.3404 33.9423C13.3234 33.9598 13.3076 33.9748 13.2928 33.9874C13.278 33.9995 13.2596 34.0145 13.2377 34.0326L13.1006 34.1426L13.0292 34.0498L13.3544 33.7994H13.4677V35ZM14.7159 34.398C14.7159 34.4955 14.7086 34.5825 14.6938 34.6592C14.679 34.7358 14.6557 34.8007 14.624 34.8538C14.5922 34.9069 14.5512 34.9474 14.5008 34.9754C14.4504 35.0027 14.3899 35.0164 14.3193 35.0164C14.2301 35.0164 14.1561 34.9921 14.0976 34.9433C14.0395 34.8946 13.996 34.8243 13.967 34.7323C13.9385 34.6398 13.9243 34.5283 13.9243 34.398C13.9243 34.2699 13.9372 34.1599 13.9629 34.0679C13.9892 33.9754 14.0313 33.9045 14.0894 33.8552C14.1474 33.8054 14.224 33.7805 14.3193 33.7805C14.4096 33.7805 14.4841 33.8051 14.5427 33.8544C14.6013 33.9031 14.6448 33.9737 14.6732 34.0663C14.7017 34.1582 14.7159 34.2688 14.7159 34.398ZM14.0614 34.398C14.0614 34.5097 14.0699 34.6028 14.0869 34.6773C14.1039 34.7517 14.1312 34.8076 14.169 34.8448C14.2073 34.8815 14.2574 34.8998 14.3193 34.8998C14.3812 34.8998 14.431 34.8815 14.4688 34.8448C14.5071 34.8081 14.5347 34.7525 14.5517 34.6781C14.5692 34.6036 14.578 34.5103 14.578 34.398C14.578 34.288 14.5695 34.196 14.5525 34.1221C14.5356 34.0477 14.5082 33.9918 14.4704 33.9546C14.4326 33.9168 14.3823 33.8979 14.3193 33.8979C14.2563 33.8979 14.206 33.9168 14.1682 33.9546C14.1304 33.9918 14.103 34.0477 14.0861 34.1221C14.0696 34.196 14.0614 34.288 14.0614 34.398ZM15.6784 34.398C15.6784 34.4955 15.671 34.5825 15.6562 34.6592C15.6415 34.7358 15.6182 34.8007 15.5864 34.8538C15.5547 34.9069 15.5136 34.9474 15.4633 34.9754C15.4129 35.0027 15.3524 35.0164 15.2818 35.0164C15.1925 35.0164 15.1186 34.9921 15.06 34.9433C15.002 34.8946 14.9585 34.8243 14.9295 34.7323C14.901 34.6398 14.8868 34.5283 14.8868 34.398C14.8868 34.2699 14.8996 34.1599 14.9254 34.0679C14.9516 33.9754 14.9938 33.9045 15.0518 33.8552C15.1099 33.8054 15.1865 33.7805 15.2818 33.7805C15.3721 33.7805 15.4466 33.8051 15.5051 33.8544C15.5637 33.9031 15.6072 33.9737 15.6357 34.0663C15.6642 34.1582 15.6784 34.2688 15.6784 34.398ZM15.0239 34.398C15.0239 34.5097 15.0324 34.6028 15.0494 34.6773C15.0663 34.7517 15.0937 34.8076 15.1315 34.8448C15.1698 34.8815 15.2199 34.8998 15.2818 34.8998C15.3436 34.8998 15.3935 34.8815 15.4312 34.8448C15.4696 34.8081 15.4972 34.7525 15.5142 34.6781C15.5317 34.6036 15.5405 34.5103 15.5405 34.398C15.5405 34.288 15.532 34.196 15.515 34.1221C15.498 34.0477 15.4707 33.9918 15.4329 33.9546C15.3951 33.9168 15.3447 33.8979 15.2818 33.8979C15.2188 33.8979 15.1684 33.9168 15.1307 33.9546C15.0929 33.9918 15.0655 34.0477 15.0485 34.1221C15.0321 34.196 15.0239 34.288 15.0239 34.398ZM12.5052 37H12.3722V36.1492C12.3722 36.1169 12.3722 36.0893 12.3722 36.0663C12.3727 36.0427 12.3733 36.0214 12.3738 36.0022C12.3749 35.9825 12.3763 35.9625 12.3779 35.9423C12.361 35.9598 12.3451 35.9748 12.3303 35.9874C12.3155 35.9995 12.2972 36.0145 12.2753 36.0326L12.1381 36.1426L12.0667 36.0498L12.3919 35.7994H12.5052V37ZM13.7535 36.398C13.7535 36.4955 13.7461 36.5825 13.7313 36.6592C13.7165 36.7358 13.6933 36.8007 13.6615 36.8538C13.6297 36.9069 13.5887 36.9474 13.5383 36.9754C13.4879 37.0027 13.4275 37.0164 13.3568 37.0164C13.2676 37.0164 13.1937 36.9921 13.1351 36.9433C13.0771 36.8946 13.0335 36.8243 13.0045 36.7323C12.9761 36.6398 12.9618 36.5283 12.9618 36.398C12.9618 36.2699 12.9747 36.1599 13.0004 36.0679C13.0267 35.9754 13.0689 35.9045 13.1269 35.8552C13.1849 35.8054 13.2616 35.7805 13.3568 35.7805C13.4472 35.7805 13.5216 35.8051 13.5802 35.8544C13.6388 35.9031 13.6823 35.9737 13.7108 36.0663C13.7392 36.1582 13.7535 36.2688 13.7535 36.398ZM13.099 36.398C13.099 36.5097 13.1074 36.6028 13.1244 36.6773C13.1414 36.7517 13.1688 36.8076 13.2065 36.8448C13.2449 36.8815 13.295 36.8998 13.3568 36.8998C13.4187 36.8998 13.4685 36.8815 13.5063 36.8448C13.5446 36.8081 13.5723 36.7525 13.5892 36.6781C13.6068 36.6036 13.6155 36.5103 13.6155 36.398C13.6155 36.288 13.607 36.196 13.5901 36.1221C13.5731 36.0477 13.5457 35.9918 13.5079 35.9546C13.4702 35.9168 13.4198 35.8979 13.3568 35.8979C13.2939 35.8979 13.2435 35.9168 13.2057 35.9546C13.1679 35.9918 13.1406 36.0477 13.1236 36.1221C13.1072 36.196 13.099 36.288 13.099 36.398ZM14.7159 36.398C14.7159 36.4955 14.7086 36.5825 14.6938 36.6592C14.679 36.7358 14.6557 36.8007 14.624 36.8538C14.5922 36.9069 14.5512 36.9474 14.5008 36.9754C14.4504 37.0027 14.3899 37.0164 14.3193 37.0164C14.2301 37.0164 14.1561 36.9921 14.0976 36.9433C14.0395 36.8946 13.996 36.8243 13.967 36.7323C13.9385 36.6398 13.9243 36.5283 13.9243 36.398C13.9243 36.2699 13.9372 36.1599 13.9629 36.0679C13.9892 35.9754 14.0313 35.9045 14.0894 35.8552C14.1474 35.8054 14.224 35.7805 14.3193 35.7805C14.4096 35.7805 14.4841 35.8051 14.5427 35.8544C14.6013 35.9031 14.6448 35.9737 14.6732 36.0663C14.7017 36.1582 14.7159 36.2688 14.7159 36.398ZM14.0614 36.398C14.0614 36.5097 14.0699 36.6028 14.0869 36.6773C14.1039 36.7517 14.1312 36.8076 14.169 36.8448C14.2073 36.8815 14.2574 36.8998 14.3193 36.8998C14.3812 36.8998 14.431 36.8815 14.4688 36.8448C14.5071 36.8081 14.5347 36.7525 14.5517 36.6781C14.5692 36.6036 14.578 36.5103 14.578 36.398C14.578 36.288 14.5695 36.196 14.5525 36.1221C14.5356 36.0477 14.5082 35.9918 14.4704 35.9546C14.4326 35.9168 14.3823 35.8979 14.3193 35.8979C14.2563 35.8979 14.206 35.9168 14.1682 35.9546C14.1304 35.9918 14.103 36.0477 14.0861 36.1221C14.0696 36.196 14.0614 36.288 14.0614 36.398ZM15.6784 36.398C15.6784 36.4955 15.671 36.5825 15.6562 36.6592C15.6415 36.7358 15.6182 36.8007 15.5864 36.8538C15.5547 36.9069 15.5136 36.9474 15.4633 36.9754C15.4129 37.0027 15.3524 37.0164 15.2818 37.0164C15.1925 37.0164 15.1186 36.9921 15.06 36.9433C15.002 36.8946 14.9585 36.8243 14.9295 36.7323C14.901 36.6398 14.8868 36.5283 14.8868 36.398C14.8868 36.2699 14.8996 36.1599 14.9254 36.0679C14.9516 35.9754 14.9938 35.9045 15.0518 35.8552C15.1099 35.8054 15.1865 35.7805 15.2818 35.7805C15.3721 35.7805 15.4466 35.8051 15.5051 35.8544C15.5637 35.9031 15.6072 35.9737 15.6357 36.0663C15.6642 36.1582 15.6784 36.2688 15.6784 36.398ZM15.0239 36.398C15.0239 36.5097 15.0324 36.6028 15.0494 36.6773C15.0663 36.7517 15.0937 36.8076 15.1315 36.8448C15.1698 36.8815 15.2199 36.8998 15.2818 36.8998C15.3436 36.8998 15.3935 36.8815 15.4312 36.8448C15.4696 36.8081 15.4972 36.7525 15.5142 36.6781C15.5317 36.6036 15.5405 36.5103 15.5405 36.398C15.5405 36.288 15.532 36.196 15.515 36.1221C15.498 36.0477 15.4707 35.9918 15.4329 35.9546C15.3951 35.9168 15.3447 35.8979 15.2818 35.8979C15.2188 35.8979 15.1684 35.9168 15.1307 35.9546C15.0929 35.9918 15.0655 36.0477 15.0485 36.1221C15.0321 36.196 15.0239 36.288 15.0239 36.398ZM13.7485 39.311C13.7485 39.3838 13.7433 39.4547 13.7329 39.5237C13.7231 39.5927 13.7058 39.657 13.6812 39.7167C13.6571 39.7764 13.6243 39.8286 13.5827 39.8735C13.5411 39.9184 13.4888 39.9537 13.4258 39.9795C13.3634 40.0047 13.2887 40.0172 13.2016 40.0172C13.1781 40.0172 13.1512 40.0156 13.1211 40.0123C13.091 40.0096 13.0664 40.0055 13.0472 40V39.8817C13.0675 39.8889 13.0913 39.8946 13.1187 39.899C13.146 39.9028 13.1729 39.9047 13.1992 39.9047C13.3015 39.9047 13.382 39.8828 13.4406 39.839C13.4992 39.7947 13.5413 39.7347 13.5671 39.6592C13.5928 39.5831 13.6073 39.4977 13.6106 39.403H13.6007C13.5843 39.4293 13.5627 39.4536 13.5359 39.4761C13.5096 39.498 13.4775 39.5158 13.4398 39.5294C13.402 39.5426 13.3579 39.5491 13.3076 39.5491C13.238 39.5491 13.1773 39.5349 13.1252 39.5064C13.0738 39.478 13.0335 39.4366 13.0045 39.3824C12.9761 39.3282 12.9618 39.2628 12.9618 39.1862C12.9618 39.1035 12.9774 39.0321 13.0086 38.9718C13.0404 38.9111 13.0847 38.8643 13.1417 38.8314C13.1986 38.7986 13.2657 38.7821 13.3429 38.7821C13.402 38.7821 13.4562 38.7934 13.5055 38.8158C13.5547 38.8382 13.5974 38.8719 13.6336 38.9168C13.6703 38.9612 13.6985 39.0162 13.7182 39.0819C13.7384 39.1476 13.7485 39.2239 13.7485 39.311ZM13.3429 38.8979C13.2701 38.8979 13.2109 38.9217 13.1655 38.9694C13.1206 39.017 13.0981 39.0887 13.0981 39.1845C13.0981 39.2639 13.1176 39.3266 13.1564 39.3726C13.1953 39.4186 13.2553 39.4416 13.3363 39.4416C13.3921 39.4416 13.4403 39.4303 13.4808 39.4079C13.5219 39.3855 13.5534 39.357 13.5753 39.3225C13.5977 39.288 13.6089 39.2527 13.6089 39.2166C13.6089 39.1804 13.6035 39.1437 13.5925 39.1065C13.5821 39.0693 13.566 39.0351 13.5441 39.0039C13.5222 38.9721 13.4945 38.9466 13.4611 38.9275C13.4277 38.9078 13.3883 38.8979 13.3429 38.8979ZM14.7159 39.398C14.7159 39.4955 14.7086 39.5825 14.6938 39.6592C14.679 39.7358 14.6557 39.8007 14.624 39.8538C14.5922 39.9069 14.5512 39.9474 14.5008 39.9754C14.4504 40.0027 14.3899 40.0164 14.3193 40.0164C14.2301 40.0164 14.1561 39.9921 14.0976 39.9433C14.0395 39.8946 13.996 39.8243 13.967 39.7323C13.9385 39.6398 13.9243 39.5283 13.9243 39.398C13.9243 39.2699 13.9372 39.1599 13.9629 39.0679C13.9892 38.9754 14.0313 38.9045 14.0894 38.8552C14.1474 38.8054 14.224 38.7805 14.3193 38.7805C14.4096 38.7805 14.4841 38.8051 14.5427 38.8544C14.6013 38.9031 14.6448 38.9737 14.6732 39.0663C14.7017 39.1582 14.7159 39.2688 14.7159 39.398ZM14.0614 39.398C14.0614 39.5097 14.0699 39.6028 14.0869 39.6773C14.1039 39.7517 14.1312 39.8076 14.169 39.8448C14.2073 39.8815 14.2574 39.8998 14.3193 39.8998C14.3812 39.8998 14.431 39.8815 14.4688 39.8448C14.5071 39.8081 14.5347 39.7525 14.5517 39.6781C14.5692 39.6036 14.578 39.5103 14.578 39.398C14.578 39.288 14.5695 39.196 14.5525 39.1221C14.5356 39.0477 14.5082 38.9918 14.4704 38.9546C14.4326 38.9168 14.3823 38.8979 14.3193 38.8979C14.2563 38.8979 14.206 38.9168 14.1682 38.9546C14.1304 38.9918 14.103 39.0477 14.0861 39.1221C14.0696 39.196 14.0614 39.288 14.0614 39.398ZM15.6784 39.398C15.6784 39.4955 15.671 39.5825 15.6562 39.6592C15.6415 39.7358 15.6182 39.8007 15.5864 39.8538C15.5547 39.9069 15.5136 39.9474 15.4633 39.9754C15.4129 40.0027 15.3524 40.0164 15.2818 40.0164C15.1925 40.0164 15.1186 39.9921 15.06 39.9433C15.002 39.8946 14.9585 39.8243 14.9295 39.7323C14.901 39.6398 14.8868 39.5283 14.8868 39.398C14.8868 39.2699 14.8996 39.1599 14.9254 39.0679C14.9516 38.9754 14.9938 38.9045 15.0518 38.8552C15.1099 38.8054 15.1865 38.7805 15.2818 38.7805C15.3721 38.7805 15.4466 38.8051 15.5051 38.8544C15.5637 38.9031 15.6072 38.9737 15.6357 39.0663C15.6642 39.1582 15.6784 39.2688 15.6784 39.398ZM15.0239 39.398C15.0239 39.5097 15.0324 39.6028 15.0494 39.6773C15.0663 39.7517 15.0937 39.8076 15.1315 39.8448C15.1698 39.8815 15.2199 39.8998 15.2818 39.8998C15.3436 39.8998 15.3935 39.8815 15.4312 39.8448C15.4696 39.8081 15.4972 39.7525 15.5142 39.6781C15.5317 39.6036 15.5405 39.5103 15.5405 39.398C15.5405 39.288 15.532 39.196 15.515 39.1221C15.498 39.0477 15.4707 38.9918 15.4329 38.9546C15.3951 38.9168 15.3447 38.8979 15.2818 38.8979C15.2188 38.8979 15.1684 38.9168 15.1307 38.9546C15.0929 38.9918 15.0655 39.0477 15.0485 39.1221C15.0321 39.196 15.0239 39.288 15.0239 39.398ZM13.3568 41.7821C13.4264 41.7821 13.4879 41.7931 13.5416 41.815C13.5953 41.8369 13.6371 41.8692 13.6672 41.9119C13.6979 41.954 13.7132 42.006 13.7132 42.0679C13.7132 42.1166 13.7026 42.1593 13.6812 42.196C13.6604 42.2322 13.6322 42.2639 13.5966 42.2913C13.561 42.3181 13.5216 42.3422 13.4784 42.3636C13.5298 42.3871 13.5761 42.4136 13.6172 42.4432C13.6588 42.4728 13.6916 42.5075 13.7157 42.5475C13.7398 42.5875 13.7518 42.6348 13.7518 42.6896C13.7518 42.7569 13.7354 42.8152 13.7026 42.8645C13.6703 42.9132 13.6248 42.9507 13.5662 42.977C13.5077 43.0033 13.4389 43.0164 13.3601 43.0164C13.2753 43.0164 13.203 43.0038 13.1433 42.9786C13.0842 42.9529 13.039 42.9162 13.0078 42.8686C12.9771 42.8204 12.9618 42.7627 12.9618 42.6953C12.9618 42.64 12.9736 42.5921 12.9971 42.5516C13.0207 42.5106 13.0519 42.4752 13.0908 42.4457C13.1296 42.4161 13.1721 42.3912 13.218 42.3709C13.1781 42.349 13.1414 42.3241 13.108 42.2962C13.0751 42.2683 13.0489 42.2357 13.0292 42.1985C13.01 42.1607 13.0004 42.1169 13.0004 42.0671C13.0004 42.0063 13.0157 41.9549 13.0464 41.9127C13.0776 41.87 13.12 41.8377 13.1737 41.8158C13.2279 41.7934 13.2889 41.7821 13.3568 41.7821ZM13.0957 42.6961C13.0957 42.7575 13.1173 42.8081 13.1606 42.8481C13.2038 42.8875 13.2692 42.9072 13.3568 42.9072C13.44 42.9072 13.5044 42.8875 13.5498 42.8481C13.5953 42.8081 13.618 42.7558 13.618 42.6912C13.618 42.6513 13.6076 42.6162 13.5868 42.5861C13.566 42.5554 13.5364 42.5281 13.4981 42.504C13.4598 42.4799 13.4146 42.458 13.3626 42.4383L13.333 42.4276C13.2826 42.4484 13.2397 42.4717 13.2041 42.4974C13.169 42.5226 13.1422 42.5513 13.1236 42.5836C13.105 42.6159 13.0957 42.6534 13.0957 42.6961ZM13.3552 41.8938C13.2906 41.8938 13.2377 41.9094 13.1967 41.9406C13.1556 41.9713 13.1351 42.0156 13.1351 42.0737C13.1351 42.1153 13.145 42.1506 13.1647 42.1796C13.1849 42.2081 13.2123 42.2327 13.2468 42.2535C13.2813 42.2738 13.3199 42.2927 13.3626 42.3102C13.4042 42.2927 13.4411 42.2735 13.4734 42.2527C13.5057 42.2313 13.5312 42.2062 13.5498 42.1771C13.5684 42.1481 13.5777 42.1134 13.5777 42.0728C13.5777 42.0148 13.5572 41.9705 13.5161 41.9398C13.4756 41.9091 13.422 41.8938 13.3552 41.8938ZM14.7159 42.398C14.7159 42.4955 14.7086 42.5825 14.6938 42.6592C14.679 42.7358 14.6557 42.8007 14.624 42.8538C14.5922 42.9069 14.5512 42.9474 14.5008 42.9754C14.4504 43.0027 14.3899 43.0164 14.3193 43.0164C14.2301 43.0164 14.1561 42.9921 14.0976 42.9433C14.0395 42.8946 13.996 42.8243 13.967 42.7323C13.9385 42.6398 13.9243 42.5283 13.9243 42.398C13.9243 42.2699 13.9372 42.1599 13.9629 42.0679C13.9892 41.9754 14.0313 41.9045 14.0894 41.8552C14.1474 41.8054 14.224 41.7805 14.3193 41.7805C14.4096 41.7805 14.4841 41.8051 14.5427 41.8544C14.6013 41.9031 14.6448 41.9737 14.6732 42.0663C14.7017 42.1582 14.7159 42.2688 14.7159 42.398ZM14.0614 42.398C14.0614 42.5097 14.0699 42.6028 14.0869 42.6773C14.1039 42.7517 14.1312 42.8076 14.169 42.8448C14.2073 42.8815 14.2574 42.8998 14.3193 42.8998C14.3812 42.8998 14.431 42.8815 14.4688 42.8448C14.5071 42.8081 14.5347 42.7525 14.5517 42.6781C14.5692 42.6036 14.578 42.5103 14.578 42.398C14.578 42.288 14.5695 42.196 14.5525 42.1221C14.5356 42.0477 14.5082 41.9918 14.4704 41.9546C14.4326 41.9168 14.3823 41.8979 14.3193 41.8979C14.2563 41.8979 14.206 41.9168 14.1682 41.9546C14.1304 41.9918 14.103 42.0477 14.0861 42.1221C14.0696 42.196 14.0614 42.288 14.0614 42.398ZM15.6784 42.398C15.6784 42.4955 15.671 42.5825 15.6562 42.6592C15.6415 42.7358 15.6182 42.8007 15.5864 42.8538C15.5547 42.9069 15.5136 42.9474 15.4633 42.9754C15.4129 43.0027 15.3524 43.0164 15.2818 43.0164C15.1925 43.0164 15.1186 42.9921 15.06 42.9433C15.002 42.8946 14.9585 42.8243 14.9295 42.7323C14.901 42.6398 14.8868 42.5283 14.8868 42.398C14.8868 42.2699 14.8996 42.1599 14.9254 42.0679C14.9516 41.9754 14.9938 41.9045 15.0518 41.8552C15.1099 41.8054 15.1865 41.7805 15.2818 41.7805C15.3721 41.7805 15.4466 41.8051 15.5051 41.8544C15.5637 41.9031 15.6072 41.9737 15.6357 42.0663C15.6642 42.1582 15.6784 42.2688 15.6784 42.398ZM15.0239 42.398C15.0239 42.5097 15.0324 42.6028 15.0494 42.6773C15.0663 42.7517 15.0937 42.8076 15.1315 42.8448C15.1698 42.8815 15.2199 42.8998 15.2818 42.8998C15.3436 42.8998 15.3935 42.8815 15.4312 42.8448C15.4696 42.8081 15.4972 42.7525 15.5142 42.6781C15.5317 42.6036 15.5405 42.5103 15.5405 42.398C15.5405 42.288 15.532 42.196 15.515 42.1221C15.498 42.0477 15.4707 41.9918 15.4329 41.9546C15.3951 41.9168 15.3447 41.8979 15.2818 41.8979C15.2188 41.8979 15.1684 41.9168 15.1307 41.9546C15.0929 41.9918 15.0655 42.0477 15.0485 42.1221C15.0321 42.196 15.0239 42.288 15.0239 42.398ZM13.1154 45L13.6081 43.9242H12.9536V43.7994H13.7543V43.9045L13.2649 45H13.1154ZM14.7159 44.398C14.7159 44.4955 14.7086 44.5825 14.6938 44.6592C14.679 44.7358 14.6557 44.8007 14.624 44.8538C14.5922 44.9069 14.5512 44.9474 14.5008 44.9754C14.4504 45.0027 14.3899 45.0164 14.3193 45.0164C14.2301 45.0164 14.1561 44.9921 14.0976 44.9433C14.0395 44.8946 13.996 44.8243 13.967 44.7323C13.9385 44.6398 13.9243 44.5283 13.9243 44.398C13.9243 44.2699 13.9372 44.1599 13.9629 44.0679C13.9892 43.9754 14.0313 43.9045 14.0894 43.8552C14.1474 43.8054 14.224 43.7805 14.3193 43.7805C14.4096 43.7805 14.4841 43.8051 14.5427 43.8544C14.6013 43.9031 14.6448 43.9737 14.6732 44.0663C14.7017 44.1582 14.7159 44.2688 14.7159 44.398ZM14.0614 44.398C14.0614 44.5097 14.0699 44.6028 14.0869 44.6773C14.1039 44.7517 14.1312 44.8076 14.169 44.8448C14.2073 44.8815 14.2574 44.8998 14.3193 44.8998C14.3812 44.8998 14.431 44.8815 14.4688 44.8448C14.5071 44.8081 14.5347 44.7525 14.5517 44.6781C14.5692 44.6036 14.578 44.5103 14.578 44.398C14.578 44.288 14.5695 44.196 14.5525 44.1221C14.5356 44.0477 14.5082 43.9918 14.4704 43.9546C14.4326 43.9168 14.3823 43.8979 14.3193 43.8979C14.2563 43.8979 14.206 43.9168 14.1682 43.9546C14.1304 43.9918 14.103 44.0477 14.0861 44.1221C14.0696 44.196 14.0614 44.288 14.0614 44.398ZM15.6784 44.398C15.6784 44.4955 15.671 44.5825 15.6562 44.6592C15.6415 44.7358 15.6182 44.8007 15.5864 44.8538C15.5547 44.9069 15.5136 44.9474 15.4633 44.9754C15.4129 45.0027 15.3524 45.0164 15.2818 45.0164C15.1925 45.0164 15.1186 44.9921 15.06 44.9433C15.002 44.8946 14.9585 44.8243 14.9295 44.7323C14.901 44.6398 14.8868 44.5283 14.8868 44.398C14.8868 44.2699 14.8996 44.1599 14.9254 44.0679C14.9516 43.9754 14.9938 43.9045 15.0518 43.8552C15.1099 43.8054 15.1865 43.7805 15.2818 43.7805C15.3721 43.7805 15.4466 43.8051 15.5051 43.8544C15.5637 43.9031 15.6072 43.9737 15.6357 44.0663C15.6642 44.1582 15.6784 44.2688 15.6784 44.398ZM15.0239 44.398C15.0239 44.5097 15.0324 44.6028 15.0494 44.6773C15.0663 44.7517 15.0937 44.8076 15.1315 44.8448C15.1698 44.8815 15.2199 44.8998 15.2818 44.8998C15.3436 44.8998 15.3935 44.8815 15.4312 44.8448C15.4696 44.8081 15.4972 44.7525 15.5142 44.6781C15.5317 44.6036 15.5405 44.5103 15.5405 44.398C15.5405 44.288 15.532 44.196 15.515 44.1221C15.498 44.0477 15.4707 43.9918 15.4329 43.9546C15.3951 43.9168 15.3447 43.8979 15.2818 43.8979C15.2188 43.8979 15.1684 43.9168 15.1307 43.9546C15.0929 43.9918 15.0655 44.0477 15.0485 44.1221C15.0321 44.196 15.0239 44.288 15.0239 44.398ZM12.9725 47.4867C12.9725 47.4145 12.9774 47.3438 12.9873 47.2749C12.9977 47.2059 13.0149 47.1418 13.039 47.0827C13.0631 47.023 13.096 46.9707 13.1376 46.9258C13.1792 46.8809 13.2309 46.8459 13.2928 46.8207C13.3552 46.795 13.4299 46.7821 13.517 46.7821C13.5416 46.7821 13.5682 46.7835 13.5966 46.7862C13.6251 46.7884 13.6486 46.7923 13.6672 46.7977V46.9152C13.647 46.908 13.6237 46.9028 13.5974 46.8996C13.5717 46.8963 13.5457 46.8946 13.5194 46.8946C13.4176 46.8946 13.3374 46.9168 13.2788 46.9612C13.2208 47.0055 13.1789 47.0657 13.1532 47.1418C13.1274 47.2174 13.1127 47.3025 13.1088 47.3972H13.1179C13.1348 47.3698 13.1564 47.3452 13.1827 47.3233C13.209 47.3009 13.2408 47.2831 13.278 47.2699C13.3158 47.2568 13.3596 47.2502 13.4094 47.2502C13.4795 47.2502 13.5405 47.2645 13.5925 47.2929C13.6451 47.3214 13.6856 47.3627 13.7141 47.4169C13.7431 47.4711 13.7576 47.5368 13.7576 47.614C13.7576 47.6967 13.7423 47.7681 13.7116 47.8284C13.6809 47.8886 13.6371 47.9351 13.5802 47.968C13.5238 48.0003 13.4565 48.0164 13.3782 48.0164C13.3196 48.0164 13.2657 48.0052 13.2164 47.9828C13.1671 47.9603 13.1241 47.9269 13.0875 47.8826C13.0513 47.8382 13.0231 47.7832 13.0029 47.7175C12.9826 47.6513 12.9725 47.5743 12.9725 47.4867ZM13.3765 47.9015C13.451 47.9015 13.5107 47.8776 13.5556 47.83C13.6005 47.7824 13.6229 47.7104 13.6229 47.614C13.6229 47.5352 13.6029 47.4728 13.563 47.4268C13.523 47.3808 13.4628 47.3578 13.3823 47.3578C13.3275 47.3578 13.2799 47.3693 13.2394 47.3923C13.1989 47.4147 13.1674 47.4432 13.145 47.4777C13.1225 47.5122 13.1113 47.5472 13.1113 47.5828C13.1113 47.619 13.1165 47.6556 13.1269 47.6929C13.1378 47.7301 13.1543 47.7646 13.1762 47.7963C13.1981 47.8281 13.2257 47.8535 13.2591 47.8727C13.2925 47.8919 13.3316 47.9015 13.3765 47.9015ZM14.7159 47.398C14.7159 47.4955 14.7086 47.5825 14.6938 47.6592C14.679 47.7358 14.6557 47.8007 14.624 47.8538C14.5922 47.9069 14.5512 47.9474 14.5008 47.9754C14.4504 48.0027 14.3899 48.0164 14.3193 48.0164C14.2301 48.0164 14.1561 47.9921 14.0976 47.9433C14.0395 47.8946 13.996 47.8243 13.967 47.7323C13.9385 47.6398 13.9243 47.5283 13.9243 47.398C13.9243 47.2699 13.9372 47.1599 13.9629 47.0679C13.9892 46.9754 14.0313 46.9045 14.0894 46.8552C14.1474 46.8054 14.224 46.7805 14.3193 46.7805C14.4096 46.7805 14.4841 46.8051 14.5427 46.8544C14.6013 46.9031 14.6448 46.9737 14.6732 47.0663C14.7017 47.1582 14.7159 47.2688 14.7159 47.398ZM14.0614 47.398C14.0614 47.5097 14.0699 47.6028 14.0869 47.6773C14.1039 47.7517 14.1312 47.8076 14.169 47.8448C14.2073 47.8815 14.2574 47.8998 14.3193 47.8998C14.3812 47.8998 14.431 47.8815 14.4688 47.8448C14.5071 47.8081 14.5347 47.7525 14.5517 47.6781C14.5692 47.6036 14.578 47.5103 14.578 47.398C14.578 47.288 14.5695 47.196 14.5525 47.1221C14.5356 47.0477 14.5082 46.9918 14.4704 46.9546C14.4326 46.9168 14.3823 46.8979 14.3193 46.8979C14.2563 46.8979 14.206 46.9168 14.1682 46.9546C14.1304 46.9918 14.103 47.0477 14.0861 47.1221C14.0696 47.196 14.0614 47.288 14.0614 47.398ZM15.6784 47.398C15.6784 47.4955 15.671 47.5825 15.6562 47.6592C15.6415 47.7358 15.6182 47.8007 15.5864 47.8538C15.5547 47.9069 15.5136 47.9474 15.4633 47.9754C15.4129 48.0027 15.3524 48.0164 15.2818 48.0164C15.1925 48.0164 15.1186 47.9921 15.06 47.9433C15.002 47.8946 14.9585 47.8243 14.9295 47.7323C14.901 47.6398 14.8868 47.5283 14.8868 47.398C14.8868 47.2699 14.8996 47.1599 14.9254 47.0679C14.9516 46.9754 14.9938 46.9045 15.0518 46.8552C15.1099 46.8054 15.1865 46.7805 15.2818 46.7805C15.3721 46.7805 15.4466 46.8051 15.5051 46.8544C15.5637 46.9031 15.6072 46.9737 15.6357 47.0663C15.6642 47.1582 15.6784 47.2688 15.6784 47.398ZM15.0239 47.398C15.0239 47.5097 15.0324 47.6028 15.0494 47.6773C15.0663 47.7517 15.0937 47.8076 15.1315 47.8448C15.1698 47.8815 15.2199 47.8998 15.2818 47.8998C15.3436 47.8998 15.3935 47.8815 15.4312 47.8448C15.4696 47.8081 15.4972 47.7525 15.5142 47.6781C15.5317 47.6036 15.5405 47.5103 15.5405 47.398C15.5405 47.288 15.532 47.196 15.515 47.1221C15.498 47.0477 15.4707 46.9918 15.4329 46.9546C15.3951 46.9168 15.3447 46.8979 15.2818 46.8979C15.2188 46.8979 15.1684 46.9168 15.1307 46.9546C15.0929 46.9918 15.0655 47.0477 15.0485 47.1221C15.0321 47.196 15.0239 47.288 15.0239 47.398ZM13.3396 50.2658C13.4212 50.2658 13.4921 50.2798 13.5523 50.3077C13.6125 50.3351 13.659 50.3751 13.6919 50.4276C13.7253 50.4802 13.742 50.5439 13.742 50.619C13.742 50.7011 13.7242 50.772 13.6886 50.8316C13.653 50.8908 13.6018 50.9365 13.535 50.9688C13.4682 51.0005 13.3883 51.0164 13.2952 51.0164C13.2328 51.0164 13.1748 51.0109 13.1211 51C13.0675 50.9891 13.0223 50.9726 12.9856 50.9507V50.821C13.0256 50.8451 13.0741 50.8642 13.131 50.8785C13.1879 50.8927 13.2432 50.8998 13.2969 50.8998C13.3576 50.8998 13.4108 50.8902 13.4562 50.8711C13.5022 50.8514 13.5378 50.8218 13.563 50.7824C13.5887 50.7424 13.6016 50.6923 13.6016 50.6321C13.6016 50.5522 13.5769 50.4906 13.5276 50.4473C13.4789 50.4035 13.4017 50.3816 13.2961 50.3816C13.2621 50.3816 13.2249 50.3844 13.1844 50.3898C13.1439 50.3953 13.1105 50.4013 13.0842 50.4079L13.0152 50.3627L13.0612 49.7994H13.6582V49.9242H13.1778L13.1474 50.2864C13.1682 50.282 13.195 50.2776 13.2279 50.2732C13.2607 50.2683 13.298 50.2658 13.3396 50.2658ZM14.7159 50.398C14.7159 50.4955 14.7086 50.5825 14.6938 50.6592C14.679 50.7358 14.6557 50.8007 14.624 50.8538C14.5922 50.9069 14.5512 50.9474 14.5008 50.9754C14.4504 51.0027 14.3899 51.0164 14.3193 51.0164C14.2301 51.0164 14.1561 50.9921 14.0976 50.9433C14.0395 50.8946 13.996 50.8243 13.967 50.7323C13.9385 50.6398 13.9243 50.5283 13.9243 50.398C13.9243 50.2699 13.9372 50.1599 13.9629 50.0679C13.9892 49.9754 14.0313 49.9045 14.0894 49.8552C14.1474 49.8054 14.224 49.7805 14.3193 49.7805C14.4096 49.7805 14.4841 49.8051 14.5427 49.8544C14.6013 49.9031 14.6448 49.9737 14.6732 50.0663C14.7017 50.1582 14.7159 50.2688 14.7159 50.398ZM14.0614 50.398C14.0614 50.5097 14.0699 50.6028 14.0869 50.6773C14.1039 50.7517 14.1312 50.8076 14.169 50.8448C14.2073 50.8815 14.2574 50.8998 14.3193 50.8998C14.3812 50.8998 14.431 50.8815 14.4688 50.8448C14.5071 50.8081 14.5347 50.7525 14.5517 50.6781C14.5692 50.6036 14.578 50.5103 14.578 50.398C14.578 50.288 14.5695 50.196 14.5525 50.1221C14.5356 50.0477 14.5082 49.9918 14.4704 49.9546C14.4326 49.9168 14.3823 49.8979 14.3193 49.8979C14.2563 49.8979 14.206 49.9168 14.1682 49.9546C14.1304 49.9918 14.103 50.0477 14.0861 50.1221C14.0696 50.196 14.0614 50.288 14.0614 50.398ZM15.6784 50.398C15.6784 50.4955 15.671 50.5825 15.6562 50.6592C15.6415 50.7358 15.6182 50.8007 15.5864 50.8538C15.5547 50.9069 15.5136 50.9474 15.4633 50.9754C15.4129 51.0027 15.3524 51.0164 15.2818 51.0164C15.1925 51.0164 15.1186 50.9921 15.06 50.9433C15.002 50.8946 14.9585 50.8243 14.9295 50.7323C14.901 50.6398 14.8868 50.5283 14.8868 50.398C14.8868 50.2699 14.8996 50.1599 14.9254 50.0679C14.9516 49.9754 14.9938 49.9045 15.0518 49.8552C15.1099 49.8054 15.1865 49.7805 15.2818 49.7805C15.3721 49.7805 15.4466 49.8051 15.5051 49.8544C15.5637 49.9031 15.6072 49.9737 15.6357 50.0663C15.6642 50.1582 15.6784 50.2688 15.6784 50.398ZM15.0239 50.398C15.0239 50.5097 15.0324 50.6028 15.0494 50.6773C15.0663 50.7517 15.0937 50.8076 15.1315 50.8448C15.1698 50.8815 15.2199 50.8998 15.2818 50.8998C15.3436 50.8998 15.3935 50.8815 15.4312 50.8448C15.4696 50.8081 15.4972 50.7525 15.5142 50.6781C15.5317 50.6036 15.5405 50.5103 15.5405 50.398C15.5405 50.288 15.532 50.196 15.515 50.1221C15.498 50.0477 15.4707 49.9918 15.4329 49.9546C15.3951 49.9168 15.3447 49.8979 15.2818 49.8979C15.2188 49.8979 15.1684 49.9168 15.1307 49.9546C15.0929 49.9918 15.0655 50.0477 15.0485 50.1221C15.0321 50.196 15.0239 50.288 15.0239 50.398ZM13.8069 53.7216H13.627V54H13.494V53.7216H12.9134V53.6066L13.4849 52.7928H13.627V53.5984H13.8069V53.7216ZM13.494 53.5984V53.2059C13.494 53.1758 13.4942 53.1487 13.4948 53.1246C13.4953 53.0999 13.4962 53.0772 13.4973 53.0564C13.4984 53.0351 13.4992 53.0148 13.4997 52.9956C13.5008 52.9765 13.5016 52.9576 13.5022 52.939H13.4956C13.4852 52.9609 13.4732 52.9841 13.4595 53.0088C13.4463 53.0329 13.4329 53.0545 13.4192 53.0737L13.0489 53.5984H13.494ZM14.7159 53.398C14.7159 53.4955 14.7086 53.5825 14.6938 53.6592C14.679 53.7358 14.6557 53.8007 14.624 53.8538C14.5922 53.9069 14.5512 53.9474 14.5008 53.9754C14.4504 54.0027 14.3899 54.0164 14.3193 54.0164C14.2301 54.0164 14.1561 53.9921 14.0976 53.9433C14.0395 53.8946 13.996 53.8243 13.967 53.7323C13.9385 53.6398 13.9243 53.5283 13.9243 53.398C13.9243 53.2699 13.9372 53.1599 13.9629 53.0679C13.9892 52.9754 14.0313 52.9045 14.0894 52.8552C14.1474 52.8054 14.224 52.7805 14.3193 52.7805C14.4096 52.7805 14.4841 52.8051 14.5427 52.8544C14.6013 52.9031 14.6448 52.9737 14.6732 53.0663C14.7017 53.1582 14.7159 53.2688 14.7159 53.398ZM14.0614 53.398C14.0614 53.5097 14.0699 53.6028 14.0869 53.6773C14.1039 53.7517 14.1312 53.8076 14.169 53.8448C14.2073 53.8815 14.2574 53.8998 14.3193 53.8998C14.3812 53.8998 14.431 53.8815 14.4688 53.8448C14.5071 53.8081 14.5347 53.7525 14.5517 53.6781C14.5692 53.6036 14.578 53.5103 14.578 53.398C14.578 53.288 14.5695 53.196 14.5525 53.1221C14.5356 53.0477 14.5082 52.9918 14.4704 52.9546C14.4326 52.9168 14.3823 52.8979 14.3193 52.8979C14.2563 52.8979 14.206 52.9168 14.1682 52.9546C14.1304 52.9918 14.103 53.0477 14.0861 53.1221C14.0696 53.196 14.0614 53.288 14.0614 53.398ZM15.6784 53.398C15.6784 53.4955 15.671 53.5825 15.6562 53.6592C15.6415 53.7358 15.6182 53.8007 15.5864 53.8538C15.5547 53.9069 15.5136 53.9474 15.4633 53.9754C15.4129 54.0027 15.3524 54.0164 15.2818 54.0164C15.1925 54.0164 15.1186 53.9921 15.06 53.9433C15.002 53.8946 14.9585 53.8243 14.9295 53.7323C14.901 53.6398 14.8868 53.5283 14.8868 53.398C14.8868 53.2699 14.8996 53.1599 14.9254 53.0679C14.9516 52.9754 14.9938 52.9045 15.0518 52.8552C15.1099 52.8054 15.1865 52.7805 15.2818 52.7805C15.3721 52.7805 15.4466 52.8051 15.5051 52.8544C15.5637 52.9031 15.6072 52.9737 15.6357 53.0663C15.6642 53.1582 15.6784 53.2688 15.6784 53.398ZM15.0239 53.398C15.0239 53.5097 15.0324 53.6028 15.0494 53.6773C15.0663 53.7517 15.0937 53.8076 15.1315 53.8448C15.1698 53.8815 15.2199 53.8998 15.2818 53.8998C15.3436 53.8998 15.3935 53.8815 15.4312 53.8448C15.4696 53.8081 15.4972 53.7525 15.5142 53.6781C15.5317 53.6036 15.5405 53.5103 15.5405 53.398C15.5405 53.288 15.532 53.196 15.515 53.1221C15.498 53.0477 15.4707 52.9918 15.4329 52.9546C15.3951 52.9168 15.3447 52.8979 15.2818 52.8979C15.2188 52.8979 15.1684 52.9168 15.1307 52.9546C15.0929 52.9918 15.0655 53.0477 15.0485 53.1221C15.0321 53.196 15.0239 53.288 15.0239 53.398ZM13.7026 55.0794C13.7026 55.1331 13.6922 55.1796 13.6714 55.219C13.6506 55.2584 13.6215 55.2907 13.5843 55.3159C13.5471 55.3406 13.5033 55.3578 13.4529 55.3677V55.3742C13.5482 55.3863 13.6196 55.4169 13.6672 55.4662C13.7154 55.5155 13.7395 55.5801 13.7395 55.66C13.7395 55.7295 13.7231 55.7911 13.6902 55.8448C13.6579 55.8984 13.6081 55.9406 13.5408 55.9713C13.474 56.0014 13.3883 56.0164 13.2837 56.0164C13.2202 56.0164 13.1614 56.0112 13.1072 56.0008C13.0535 55.991 13.0021 55.9743 12.9528 55.9507V55.8226C13.0026 55.8473 13.0568 55.8667 13.1154 55.8809C13.174 55.8946 13.2306 55.9015 13.2854 55.9015C13.3949 55.9015 13.474 55.8798 13.5227 55.8366C13.5714 55.7928 13.5958 55.7331 13.5958 55.6576C13.5958 55.6055 13.5821 55.5637 13.5547 55.5319C13.5279 55.4996 13.489 55.4761 13.4381 55.4613C13.3878 55.4459 13.327 55.4383 13.2558 55.4383H13.1359V55.3217H13.2566C13.3218 55.3217 13.3771 55.3121 13.4225 55.2929C13.468 55.2738 13.5025 55.2469 13.526 55.2124C13.5501 55.1774 13.5621 55.1361 13.5621 55.0884C13.5621 55.0277 13.5419 54.9809 13.5014 54.948C13.4608 54.9146 13.4058 54.8979 13.3363 54.8979C13.2936 54.8979 13.2547 54.9023 13.2197 54.9111C13.1846 54.9198 13.1518 54.9319 13.1211 54.9472C13.0905 54.9625 13.0598 54.9803 13.0292 55.0006L12.9602 54.907C13.004 54.873 13.0574 54.8437 13.1203 54.8191C13.1833 54.7944 13.2547 54.7821 13.3347 54.7821C13.4573 54.7821 13.5493 54.81 13.6106 54.8659C13.6719 54.9217 13.7026 54.9929 13.7026 55.0794ZM14.7159 55.398C14.7159 55.4955 14.7086 55.5825 14.6938 55.6592C14.679 55.7358 14.6557 55.8007 14.624 55.8538C14.5922 55.9069 14.5512 55.9474 14.5008 55.9754C14.4504 56.0027 14.3899 56.0164 14.3193 56.0164C14.2301 56.0164 14.1561 55.9921 14.0976 55.9433C14.0395 55.8946 13.996 55.8243 13.967 55.7323C13.9385 55.6398 13.9243 55.5283 13.9243 55.398C13.9243 55.2699 13.9372 55.1599 13.9629 55.0679C13.9892 54.9754 14.0313 54.9045 14.0894 54.8552C14.1474 54.8054 14.224 54.7805 14.3193 54.7805C14.4096 54.7805 14.4841 54.8051 14.5427 54.8544C14.6013 54.9031 14.6448 54.9737 14.6732 55.0663C14.7017 55.1582 14.7159 55.2688 14.7159 55.398ZM14.0614 55.398C14.0614 55.5097 14.0699 55.6028 14.0869 55.6773C14.1039 55.7517 14.1312 55.8076 14.169 55.8448C14.2073 55.8815 14.2574 55.8998 14.3193 55.8998C14.3812 55.8998 14.431 55.8815 14.4688 55.8448C14.5071 55.8081 14.5347 55.7525 14.5517 55.6781C14.5692 55.6036 14.578 55.5103 14.578 55.398C14.578 55.288 14.5695 55.196 14.5525 55.1221C14.5356 55.0477 14.5082 54.9918 14.4704 54.9546C14.4326 54.9168 14.3823 54.8979 14.3193 54.8979C14.2563 54.8979 14.206 54.9168 14.1682 54.9546C14.1304 54.9918 14.103 55.0477 14.0861 55.1221C14.0696 55.196 14.0614 55.288 14.0614 55.398ZM15.6784 55.398C15.6784 55.4955 15.671 55.5825 15.6562 55.6592C15.6415 55.7358 15.6182 55.8007 15.5864 55.8538C15.5547 55.9069 15.5136 55.9474 15.4633 55.9754C15.4129 56.0027 15.3524 56.0164 15.2818 56.0164C15.1925 56.0164 15.1186 55.9921 15.06 55.9433C15.002 55.8946 14.9585 55.8243 14.9295 55.7323C14.901 55.6398 14.8868 55.5283 14.8868 55.398C14.8868 55.2699 14.8996 55.1599 14.9254 55.0679C14.9516 54.9754 14.9938 54.9045 15.0518 54.8552C15.1099 54.8054 15.1865 54.7805 15.2818 54.7805C15.3721 54.7805 15.4466 54.8051 15.5051 54.8544C15.5637 54.9031 15.6072 54.9737 15.6357 55.0663C15.6642 55.1582 15.6784 55.2688 15.6784 55.398ZM15.0239 55.398C15.0239 55.5097 15.0324 55.6028 15.0494 55.6773C15.0663 55.7517 15.0937 55.8076 15.1315 55.8448C15.1698 55.8815 15.2199 55.8998 15.2818 55.8998C15.3436 55.8998 15.3935 55.8815 15.4312 55.8448C15.4696 55.8081 15.4972 55.7525 15.5142 55.6781C15.5317 55.6036 15.5405 55.5103 15.5405 55.398C15.5405 55.288 15.532 55.196 15.515 55.1221C15.498 55.0477 15.4707 54.9918 15.4329 54.9546C15.3951 54.9168 15.3447 54.8979 15.2818 54.8979C15.2188 54.8979 15.1684 54.9168 15.1307 54.9546C15.0929 54.9918 15.0655 55.0477 15.0485 55.1221C15.0321 55.196 15.0239 55.288 15.0239 55.398ZM13.7469 59H12.9602V58.8859L13.2813 58.5598C13.3409 58.4996 13.391 58.4459 13.4316 58.3989C13.4726 58.3518 13.5038 58.3055 13.5252 58.2601C13.5465 58.2141 13.5572 58.1637 13.5572 58.109C13.5572 58.0411 13.5369 57.9893 13.4964 57.9538C13.4565 57.9176 13.4036 57.8996 13.3379 57.8996C13.2805 57.8996 13.2295 57.9094 13.1852 57.9291C13.1408 57.9488 13.0954 57.9768 13.0489 58.0129L12.9758 57.9209C13.0075 57.8941 13.042 57.8703 13.0793 57.8495C13.117 57.8287 13.1573 57.8122 13.2 57.8002C13.2432 57.7882 13.2892 57.7821 13.3379 57.7821C13.4118 57.7821 13.4756 57.795 13.5293 57.8207C13.5829 57.8465 13.6243 57.8831 13.6533 57.9308C13.6829 57.9784 13.6976 58.0351 13.6976 58.1008C13.6976 58.1643 13.685 58.2234 13.6599 58.2781C13.6347 58.3323 13.5994 58.3863 13.5539 58.4399C13.5085 58.493 13.4554 58.5494 13.3946 58.6091L13.1335 58.8694V58.8752H13.7469V59ZM14.7159 58.398C14.7159 58.4955 14.7086 58.5825 14.6938 58.6592C14.679 58.7358 14.6557 58.8007 14.624 58.8538C14.5922 58.9069 14.5512 58.9474 14.5008 58.9754C14.4504 59.0027 14.3899 59.0164 14.3193 59.0164C14.2301 59.0164 14.1561 58.9921 14.0976 58.9433C14.0395 58.8946 13.996 58.8243 13.967 58.7323C13.9385 58.6398 13.9243 58.5283 13.9243 58.398C13.9243 58.2699 13.9372 58.1599 13.9629 58.0679C13.9892 57.9754 14.0313 57.9045 14.0894 57.8552C14.1474 57.8054 14.224 57.7805 14.3193 57.7805C14.4096 57.7805 14.4841 57.8051 14.5427 57.8544C14.6013 57.9031 14.6448 57.9737 14.6732 58.0663C14.7017 58.1582 14.7159 58.2688 14.7159 58.398ZM14.0614 58.398C14.0614 58.5097 14.0699 58.6028 14.0869 58.6773C14.1039 58.7517 14.1312 58.8076 14.169 58.8448C14.2073 58.8815 14.2574 58.8998 14.3193 58.8998C14.3812 58.8998 14.431 58.8815 14.4688 58.8448C14.5071 58.8081 14.5347 58.7525 14.5517 58.6781C14.5692 58.6036 14.578 58.5103 14.578 58.398C14.578 58.288 14.5695 58.196 14.5525 58.1221C14.5356 58.0477 14.5082 57.9918 14.4704 57.9546C14.4326 57.9168 14.3823 57.8979 14.3193 57.8979C14.2563 57.8979 14.206 57.9168 14.1682 57.9546C14.1304 57.9918 14.103 58.0477 14.0861 58.1221C14.0696 58.196 14.0614 58.288 14.0614 58.398ZM15.6784 58.398C15.6784 58.4955 15.671 58.5825 15.6562 58.6592C15.6415 58.7358 15.6182 58.8007 15.5864 58.8538C15.5547 58.9069 15.5136 58.9474 15.4633 58.9754C15.4129 59.0027 15.3524 59.0164 15.2818 59.0164C15.1925 59.0164 15.1186 58.9921 15.06 58.9433C15.002 58.8946 14.9585 58.8243 14.9295 58.7323C14.901 58.6398 14.8868 58.5283 14.8868 58.398C14.8868 58.2699 14.8996 58.1599 14.9254 58.0679C14.9516 57.9754 14.9938 57.9045 15.0518 57.8552C15.1099 57.8054 15.1865 57.7805 15.2818 57.7805C15.3721 57.7805 15.4466 57.8051 15.5051 57.8544C15.5637 57.9031 15.6072 57.9737 15.6357 58.0663C15.6642 58.1582 15.6784 58.2688 15.6784 58.398ZM15.0239 58.398C15.0239 58.5097 15.0324 58.6028 15.0494 58.6773C15.0663 58.7517 15.0937 58.8076 15.1315 58.8448C15.1698 58.8815 15.2199 58.8998 15.2818 58.8998C15.3436 58.8998 15.3935 58.8815 15.4312 58.8448C15.4696 58.8081 15.4972 58.7525 15.5142 58.6781C15.5317 58.6036 15.5405 58.5103 15.5405 58.398C15.5405 58.288 15.532 58.196 15.515 58.1221C15.498 58.0477 15.4707 57.9918 15.4329 57.9546C15.3951 57.9168 15.3447 57.8979 15.2818 57.8979C15.2188 57.8979 15.1684 57.9168 15.1307 57.9546C15.0929 57.9918 15.0655 58.0477 15.0485 58.1221C15.0321 58.196 15.0239 58.288 15.0239 58.398ZM13.4677 62H13.3347V61.1492C13.3347 61.1169 13.3347 61.0893 13.3347 61.0663C13.3352 61.0427 13.3357 61.0214 13.3363 61.0022C13.3374 60.9825 13.3388 60.9625 13.3404 60.9423C13.3234 60.9598 13.3076 60.9748 13.2928 60.9874C13.278 60.9995 13.2596 61.0145 13.2377 61.0326L13.1006 61.1426L13.0292 61.0498L13.3544 60.7994H13.4677V62ZM14.7159 61.398C14.7159 61.4955 14.7086 61.5825 14.6938 61.6592C14.679 61.7358 14.6557 61.8007 14.624 61.8538C14.5922 61.9069 14.5512 61.9474 14.5008 61.9754C14.4504 62.0027 14.3899 62.0164 14.3193 62.0164C14.2301 62.0164 14.1561 61.9921 14.0976 61.9433C14.0395 61.8946 13.996 61.8243 13.967 61.7323C13.9385 61.6398 13.9243 61.5283 13.9243 61.398C13.9243 61.2699 13.9372 61.1599 13.9629 61.0679C13.9892 60.9754 14.0313 60.9045 14.0894 60.8552C14.1474 60.8054 14.224 60.7805 14.3193 60.7805C14.4096 60.7805 14.4841 60.8051 14.5427 60.8544C14.6013 60.9031 14.6448 60.9737 14.6732 61.0663C14.7017 61.1582 14.7159 61.2688 14.7159 61.398ZM14.0614 61.398C14.0614 61.5097 14.0699 61.6028 14.0869 61.6773C14.1039 61.7517 14.1312 61.8076 14.169 61.8448C14.2073 61.8815 14.2574 61.8998 14.3193 61.8998C14.3812 61.8998 14.431 61.8815 14.4688 61.8448C14.5071 61.8081 14.5347 61.7525 14.5517 61.6781C14.5692 61.6036 14.578 61.5103 14.578 61.398C14.578 61.288 14.5695 61.196 14.5525 61.1221C14.5356 61.0477 14.5082 60.9918 14.4704 60.9546C14.4326 60.9168 14.3823 60.8979 14.3193 60.8979C14.2563 60.8979 14.206 60.9168 14.1682 60.9546C14.1304 60.9918 14.103 61.0477 14.0861 61.1221C14.0696 61.196 14.0614 61.288 14.0614 61.398ZM15.6784 61.398C15.6784 61.4955 15.671 61.5825 15.6562 61.6592C15.6415 61.7358 15.6182 61.8007 15.5864 61.8538C15.5547 61.9069 15.5136 61.9474 15.4633 61.9754C15.4129 62.0027 15.3524 62.0164 15.2818 62.0164C15.1925 62.0164 15.1186 61.9921 15.06 61.9433C15.002 61.8946 14.9585 61.8243 14.9295 61.7323C14.901 61.6398 14.8868 61.5283 14.8868 61.398C14.8868 61.2699 14.8996 61.1599 14.9254 61.0679C14.9516 60.9754 14.9938 60.9045 15.0518 60.8552C15.1099 60.8054 15.1865 60.7805 15.2818 60.7805C15.3721 60.7805 15.4466 60.8051 15.5051 60.8544C15.5637 60.9031 15.6072 60.9737 15.6357 61.0663C15.6642 61.1582 15.6784 61.2688 15.6784 61.398ZM15.0239 61.398C15.0239 61.5097 15.0324 61.6028 15.0494 61.6773C15.0663 61.7517 15.0937 61.8076 15.1315 61.8448C15.1698 61.8815 15.2199 61.8998 15.2818 61.8998C15.3436 61.8998 15.3935 61.8815 15.4312 61.8448C15.4696 61.8081 15.4972 61.7525 15.5142 61.6781C15.5317 61.6036 15.5405 61.5103 15.5405 61.398C15.5405 61.288 15.532 61.196 15.515 61.1221C15.498 61.0477 15.4707 60.9918 15.4329 60.9546C15.3951 60.9168 15.3447 60.8979 15.2818 60.8979C15.2188 60.8979 15.1684 60.9168 15.1307 60.9546C15.0929 60.9918 15.0655 61.0477 15.0485 61.1221C15.0321 61.196 15.0239 61.288 15.0239 61.398ZM15.6784 63.398C15.6784 63.4955 15.671 63.5825 15.6562 63.6592C15.6415 63.7358 15.6182 63.8007 15.5864 63.8538C15.5547 63.9069 15.5136 63.9474 15.4633 63.9754C15.4129 64.0027 15.3524 64.0164 15.2818 64.0164C15.1925 64.0164 15.1186 63.9921 15.06 63.9433C15.002 63.8946 14.9585 63.8243 14.9295 63.7323C14.901 63.6398 14.8868 63.5283 14.8868 63.398C14.8868 63.2699 14.8996 63.1599 14.9254 63.0679C14.9516 62.9754 14.9938 62.9045 15.0518 62.8552C15.1099 62.8054 15.1865 62.7805 15.2818 62.7805C15.3721 62.7805 15.4466 62.8051 15.5051 62.8544C15.5637 62.9031 15.6072 62.9737 15.6357 63.0663C15.6642 63.1582 15.6784 63.2688 15.6784 63.398ZM15.0239 63.398C15.0239 63.5097 15.0324 63.6028 15.0494 63.6773C15.0663 63.7517 15.0937 63.8076 15.1315 63.8448C15.1698 63.8815 15.2199 63.8998 15.2818 63.8998C15.3436 63.8998 15.3935 63.8815 15.4312 63.8448C15.4696 63.8081 15.4972 63.7525 15.5142 63.6781C15.5317 63.6036 15.5405 63.5103 15.5405 63.398C15.5405 63.288 15.532 63.196 15.515 63.1221C15.498 63.0477 15.4707 62.9918 15.4329 62.9546C15.3951 62.9168 15.3447 62.8979 15.2818 62.8979C15.2188 62.8979 15.1684 62.9168 15.1307 62.9546C15.0929 62.9918 15.0655 63.0477 15.0485 63.1221C15.0321 63.196 15.0239 63.288 15.0239 63.398Z" fill="#222539"/>
<g filter="url(#filter0_d_7976_44356)">
<rect x="76.6484" y="27.1133" width="5.11696" height="3.07018" rx="1.53509" fill="white"/>
</g>
<path d="M77.8887 29.5234H77.7V28.7711C77.7 28.746 77.7003 28.721 77.7008 28.6959C77.7014 28.6709 77.7019 28.6464 77.7024 28.6224C77.7035 28.5984 77.7048 28.5755 77.7064 28.5536C77.6952 28.5659 77.6814 28.5792 77.6649 28.5936C77.6489 28.608 77.6318 28.6229 77.6137 28.6384L77.4794 28.7455L77.385 28.6264L77.732 28.3545H77.8887V29.5234ZM79.0648 29.5234H78.2733V29.3819L78.5763 29.0749C78.6349 29.0152 78.6832 28.9638 78.721 28.9206C78.7589 28.8769 78.7869 28.8356 78.805 28.7967C78.8236 28.7578 78.833 28.7154 78.833 28.6695C78.833 28.613 78.8167 28.5704 78.7842 28.5416C78.7517 28.5123 78.7088 28.4976 78.6555 28.4976C78.6048 28.4976 78.5579 28.5078 78.5148 28.528C78.4721 28.5478 78.4279 28.576 78.382 28.6128L78.2789 28.4889C78.3114 28.4611 78.3461 28.4358 78.3828 28.4129C78.4201 28.39 78.4617 28.3719 78.5076 28.3585C78.5534 28.3447 78.6056 28.3377 78.6643 28.3377C78.7384 28.3377 78.8023 28.3511 78.8561 28.3777C78.91 28.4038 78.9513 28.4403 78.9801 28.4873C79.0094 28.5342 79.024 28.5888 79.024 28.6512C79.024 28.7141 79.0115 28.7722 78.9865 28.8255C78.9614 28.8788 78.9257 28.9315 78.8793 28.9838C78.833 29.0355 78.7778 29.0917 78.7138 29.1525L78.5116 29.3499V29.3587H79.0648V29.5234ZM80.0019 29.5234H79.2103V29.3819L79.5134 29.0749C79.572 29.0152 79.6202 28.9638 79.6581 28.9206C79.6959 28.8769 79.7239 28.8356 79.742 28.7967C79.7607 28.7578 79.77 28.7154 79.77 28.6695C79.77 28.613 79.7537 28.5704 79.7212 28.5416C79.6887 28.5123 79.6458 28.4976 79.5925 28.4976C79.5419 28.4976 79.495 28.5078 79.4518 28.528C79.4092 28.5478 79.3649 28.576 79.3191 28.6128L79.2159 28.4889C79.2484 28.4611 79.2831 28.4358 79.3199 28.4129C79.3572 28.39 79.3988 28.3719 79.4446 28.3585C79.4904 28.3447 79.5427 28.3377 79.6013 28.3377C79.6754 28.3377 79.7394 28.3511 79.7932 28.3777C79.847 28.4038 79.8883 28.4403 79.9171 28.4873C79.9464 28.5342 79.9611 28.5888 79.9611 28.6512C79.9611 28.7141 79.9486 28.7722 79.9235 28.8255C79.8985 28.8788 79.8628 28.9315 79.8164 28.9838C79.77 29.0355 79.7148 29.0917 79.6509 29.1525L79.4486 29.3499V29.3587H80.0019V29.5234ZM80.9389 28.9382C80.9389 29.0325 80.9314 29.117 80.9165 29.1916C80.9021 29.2657 80.8792 29.3286 80.8478 29.3803C80.8163 29.432 80.7753 29.4715 80.7246 29.4987C80.674 29.5258 80.6127 29.5394 80.5407 29.5394C80.4507 29.5394 80.3763 29.5157 80.3177 29.4683C80.259 29.4203 80.2156 29.3515 80.1874 29.262C80.1591 29.1719 80.145 29.064 80.145 28.9382C80.145 28.8124 80.1578 28.7047 80.1834 28.6152C80.2095 28.5251 80.2516 28.4561 80.3097 28.4081C80.3678 28.3601 80.4448 28.3361 80.5407 28.3361C80.6314 28.3361 80.706 28.3601 80.7646 28.4081C80.8238 28.4555 80.8675 28.5243 80.8957 28.6144C80.9245 28.7039 80.9389 28.8119 80.9389 28.9382ZM80.3345 28.9382C80.3345 29.0368 80.3409 29.1191 80.3537 29.1852C80.367 29.2513 80.3888 29.3009 80.4192 29.334C80.4496 29.3665 80.4901 29.3827 80.5407 29.3827C80.5914 29.3827 80.6319 29.3665 80.6623 29.334C80.6927 29.3014 80.7145 29.2521 80.7278 29.186C80.7417 29.1199 80.7486 29.0373 80.7486 28.9382C80.7486 28.8401 80.742 28.758 80.7286 28.6919C80.7153 28.6258 80.6935 28.5763 80.6631 28.5432C80.6327 28.5096 80.5919 28.4928 80.5407 28.4928C80.4896 28.4928 80.4488 28.5096 80.4184 28.5432C80.3886 28.5763 80.367 28.6258 80.3537 28.6919C80.3409 28.758 80.3345 28.8401 80.3345 28.9382Z" fill="#444444"/>
<path d="M17.7002 63.4399C23.6359 63.4399 20.7704 47.6229 27.8785 47.6229C32.2456 47.6229 31.1243 40.5545 35.5504 40.5545C39.9766 40.5545 35.7865 48.221 43.8716 48.221C51.9567 48.221 48.8879 38.1622 54.7894 38.1622C60.6909 38.1622 64.1728 38.1622 69.6613 38.1622C75.1497 38.1622 75.9445 30.6914 79.3084 30.6914" stroke="#8087FF" stroke-width="0.409357" stroke-linecap="round" stroke-dasharray="0.82 0.82"/>
<g filter="url(#filter1_d_7976_44356)">
<rect x="23.8398" y="44.2852" width="5.11696" height="3.07018" rx="1.53509" fill="white"/>
</g>
<path d="M25.1435 46.1972C25.1435 46.1284 25.1483 46.0608 25.1579 45.9941C25.168 45.9275 25.1851 45.8651 25.2091 45.807C25.2331 45.7489 25.2661 45.6978 25.3082 45.6535C25.3509 45.6093 25.4044 45.5746 25.4689 45.5496C25.5334 45.524 25.611 45.5112 25.7016 45.5112C25.725 45.5112 25.7514 45.5123 25.7807 45.5144C25.8101 45.5165 25.8343 45.52 25.8535 45.5248V45.6807C25.8327 45.6749 25.8098 45.6703 25.7847 45.6671C25.7602 45.6639 25.7357 45.6623 25.7112 45.6623C25.6131 45.6623 25.5366 45.681 25.4817 45.7183C25.4268 45.7551 25.3876 45.8057 25.3642 45.8702C25.3407 45.9342 25.3271 46.0075 25.3234 46.0901H25.333C25.349 46.0634 25.369 46.0397 25.393 46.0189C25.417 45.9981 25.4463 45.9816 25.4809 45.9693C25.5156 45.9566 25.5558 45.9502 25.6016 45.9502C25.6699 45.9502 25.7293 45.9645 25.7799 45.9933C25.8306 46.0216 25.8695 46.0626 25.8967 46.1165C25.9244 46.1703 25.9382 46.2356 25.9382 46.3123C25.9382 46.395 25.9225 46.4661 25.8911 46.5258C25.8602 46.5855 25.8159 46.6314 25.7583 46.6633C25.7013 46.6953 25.6334 46.7113 25.5545 46.7113C25.4964 46.7113 25.4423 46.7006 25.3922 46.6793C25.3426 46.658 25.2992 46.626 25.2618 46.5834C25.2245 46.5407 25.1955 46.4874 25.1747 46.4235C25.1539 46.359 25.1435 46.2836 25.1435 46.1972ZM25.5513 46.5562C25.612 46.5562 25.6608 46.5365 25.6976 46.497C25.7349 46.4571 25.7536 46.396 25.7536 46.3139C25.7536 46.2473 25.737 46.1945 25.704 46.1556C25.6715 46.1167 25.6224 46.0973 25.5569 46.0973C25.5121 46.0973 25.4729 46.1069 25.4393 46.1261C25.4058 46.1452 25.3796 46.1695 25.361 46.1988C25.3429 46.2281 25.3338 46.258 25.3338 46.2884C25.3338 46.3193 25.3383 46.3505 25.3474 46.3819C25.3565 46.4133 25.37 46.4424 25.3882 46.469C25.4063 46.4952 25.4289 46.5162 25.4561 46.5322C25.4833 46.5482 25.515 46.5562 25.5513 46.5562ZM26.8705 46.1101C26.8705 46.2044 26.863 46.2889 26.8481 46.3635C26.8337 46.4376 26.8108 46.5005 26.7793 46.5522C26.7479 46.6039 26.7069 46.6433 26.6562 46.6705C26.6056 46.6977 26.5443 46.7113 26.4723 46.7113C26.3822 46.7113 26.3079 46.6876 26.2493 46.6401C26.1906 46.5922 26.1472 46.5234 26.1189 46.4339C26.0907 46.3438 26.0766 46.2359 26.0766 46.1101C26.0766 45.9843 26.0894 45.8766 26.1149 45.7871C26.1411 45.697 26.1832 45.6279 26.2413 45.58C26.2994 45.532 26.3764 45.508 26.4723 45.508C26.5629 45.508 26.6376 45.532 26.6962 45.58C26.7554 45.6274 26.7991 45.6962 26.8273 45.7863C26.8561 45.8758 26.8705 45.9837 26.8705 46.1101ZM26.266 46.1101C26.266 46.2087 26.2724 46.291 26.2852 46.3571C26.2986 46.4232 26.3204 46.4728 26.3508 46.5058C26.3812 46.5383 26.4217 46.5546 26.4723 46.5546C26.523 46.5546 26.5635 46.5383 26.5939 46.5058C26.6242 46.4733 26.6461 46.424 26.6594 46.3579C26.6733 46.2918 26.6802 46.2092 26.6802 46.1101C26.6802 46.012 26.6735 45.9299 26.6602 45.8638C26.6469 45.7977 26.625 45.7481 26.5947 45.7151C26.5643 45.6815 26.5235 45.6647 26.4723 45.6647C26.4212 45.6647 26.3804 45.6815 26.35 45.7151C26.3201 45.7481 26.2986 45.7977 26.2852 45.8638C26.2724 45.9299 26.266 46.012 26.266 46.1101ZM27.8075 46.1101C27.8075 46.2044 27.8001 46.2889 27.7851 46.3635C27.7708 46.4376 27.7478 46.5005 27.7164 46.5522C27.6849 46.6039 27.6439 46.6433 27.5933 46.6705C27.5426 46.6977 27.4813 46.7113 27.4094 46.7113C27.3193 46.7113 27.2449 46.6876 27.1863 46.6401C27.1277 46.5922 27.0842 46.5234 27.056 46.4339C27.0277 46.3438 27.0136 46.2359 27.0136 46.1101C27.0136 45.9843 27.0264 45.8766 27.052 45.7871C27.0781 45.697 27.1202 45.6279 27.1783 45.58C27.2364 45.532 27.3134 45.508 27.4094 45.508C27.5 45.508 27.5746 45.532 27.6332 45.58C27.6924 45.6274 27.7361 45.6962 27.7644 45.7863C27.7931 45.8758 27.8075 45.9837 27.8075 46.1101ZM27.2031 46.1101C27.2031 46.2087 27.2095 46.291 27.2223 46.3571C27.2356 46.4232 27.2575 46.4728 27.2878 46.5058C27.3182 46.5383 27.3587 46.5546 27.4094 46.5546C27.46 46.5546 27.5005 46.5383 27.5309 46.5058C27.5613 46.4733 27.5831 46.424 27.5965 46.3579C27.6103 46.2918 27.6172 46.2092 27.6172 46.1101C27.6172 46.012 27.6106 45.9299 27.5973 45.8638C27.5839 45.7977 27.5621 45.7481 27.5317 45.7151C27.5013 45.6815 27.4605 45.6647 27.4094 45.6647C27.3582 45.6647 27.3174 45.6815 27.287 45.7151C27.2572 45.7481 27.2356 45.7977 27.2223 45.8638C27.2095 45.9299 27.2031 46.012 27.2031 46.1101Z" fill="#444444"/>
<g filter="url(#filter2_d_7976_44356)">
<rect x="32.8457" y="37.125" width="5.11696" height="3.07018" rx="1.53509" fill="white"/>
</g>
<path d="M34.5419 38.3503C34.6096 38.3503 34.6707 38.3609 34.725 38.3822C34.7794 38.403 34.8226 38.4342 34.8546 38.4758C34.8865 38.5174 34.9025 38.5688 34.9025 38.6301C34.9025 38.6775 34.8927 38.7188 34.8729 38.754C34.8538 38.7892 34.8276 38.8201 34.7946 38.8468C34.7615 38.8729 34.7245 38.8961 34.6835 38.9163C34.7293 38.9387 34.7714 38.9646 34.8098 38.9939C34.8487 39.0227 34.8799 39.0565 34.9033 39.0954C34.9273 39.1343 34.9393 39.1799 34.9393 39.2321C34.9393 39.2977 34.9225 39.3545 34.8889 39.4024C34.8559 39.4499 34.8098 39.4867 34.7506 39.5128C34.6915 39.5384 34.6224 39.5511 34.5435 39.5511C34.4588 39.5511 34.3866 39.5386 34.3269 39.5136C34.2672 39.4885 34.2219 39.4528 34.1909 39.4064C34.16 39.3595 34.1446 39.3036 34.1446 39.2385C34.1446 39.1847 34.1552 39.1381 34.1766 39.0986C34.1979 39.0592 34.2264 39.0251 34.2621 38.9963C34.2984 38.9675 34.3381 38.9432 34.3812 38.9235C34.3445 38.9017 34.3109 38.8771 34.2805 38.85C34.2501 38.8222 34.2259 38.7905 34.2077 38.7548C34.1901 38.7186 34.1814 38.6767 34.1814 38.6293C34.1814 38.5685 34.1976 38.5176 34.2301 38.4766C34.2626 38.435 34.3061 38.4036 34.3604 38.3822C34.4153 38.3609 34.4758 38.3503 34.5419 38.3503ZM34.3237 39.2313C34.3237 39.2825 34.3418 39.3246 34.378 39.3577C34.4143 39.3907 34.4684 39.4072 34.5403 39.4072C34.6118 39.4072 34.6661 39.391 34.7034 39.3585C34.7408 39.3259 34.7594 39.283 34.7594 39.2297C34.7594 39.1956 34.7498 39.1655 34.7306 39.1394C34.712 39.1133 34.6867 39.0901 34.6547 39.0698C34.6232 39.049 34.5883 39.0299 34.5499 39.0123L34.5244 39.0019C34.4828 39.0195 34.4471 39.0395 34.4172 39.0618C34.3874 39.0837 34.3642 39.1085 34.3477 39.1362C34.3317 39.1639 34.3237 39.1956 34.3237 39.2313ZM34.5403 38.495C34.4886 38.495 34.446 38.5078 34.4124 38.5334C34.3794 38.5584 34.3628 38.5946 34.3628 38.6421C34.3628 38.6757 34.3708 38.7044 34.3868 38.7284C34.4034 38.7524 34.4255 38.7732 34.4532 38.7908C34.4809 38.8079 34.5116 38.8238 34.5451 38.8388C34.5777 38.8244 34.607 38.8087 34.6331 38.7916C34.6597 38.774 34.6808 38.7532 34.6962 38.7292C34.7122 38.7047 34.7202 38.6754 34.7202 38.6413C34.7202 38.5944 34.7034 38.5584 34.6699 38.5334C34.6368 38.5078 34.5936 38.495 34.5403 38.495ZM35.9187 39.2785H35.7604V39.5352H35.5749V39.2785H35.0432V39.1362L35.5773 38.3631H35.7604V39.1226H35.9187V39.2785ZM35.5749 39.1226V38.8324C35.5749 38.8084 35.5752 38.7841 35.5757 38.7596C35.5768 38.7346 35.5779 38.7106 35.5789 38.6877C35.58 38.6647 35.5811 38.6437 35.5821 38.6245C35.5832 38.6048 35.584 38.5885 35.5845 38.5757H35.5781C35.568 38.597 35.5568 38.6189 35.5445 38.6413C35.5323 38.6631 35.5192 38.6845 35.5054 38.7052L35.2175 39.1226H35.5749ZM36.0235 39.0371C36.0235 38.9683 36.0283 38.9006 36.0379 38.834C36.048 38.7673 36.065 38.705 36.089 38.6469C36.113 38.5888 36.1461 38.5376 36.1882 38.4934C36.2308 38.4491 36.2844 38.4145 36.3489 38.3894C36.4134 38.3639 36.4909 38.3511 36.5815 38.3511C36.605 38.3511 36.6314 38.3521 36.6607 38.3543C36.69 38.3564 36.7142 38.3599 36.7334 38.3647V38.5206C36.7127 38.5147 36.6897 38.5102 36.6647 38.507C36.6402 38.5038 36.6156 38.5022 36.5911 38.5022C36.493 38.5022 36.4166 38.5208 36.3617 38.5581C36.3068 38.5949 36.2676 38.6456 36.2441 38.71C36.2207 38.774 36.2071 38.8473 36.2034 38.9299H36.2129C36.2289 38.9033 36.2489 38.8795 36.2729 38.8588C36.2969 38.838 36.3262 38.8214 36.3609 38.8092C36.3955 38.7964 36.4357 38.79 36.4816 38.79C36.5498 38.79 36.6092 38.8044 36.6599 38.8332C36.7105 38.8614 36.7494 38.9025 36.7766 38.9563C36.8043 39.0101 36.8182 39.0754 36.8182 39.1522C36.8182 39.2348 36.8025 39.306 36.771 39.3657C36.7401 39.4254 36.6959 39.4712 36.6383 39.5032C36.5813 39.5352 36.5133 39.5511 36.4344 39.5511C36.3763 39.5511 36.3222 39.5405 36.2721 39.5192C36.2225 39.4978 36.1791 39.4659 36.1418 39.4232C36.1045 39.3806 36.0754 39.3273 36.0546 39.2633C36.0339 39.1988 36.0235 39.1234 36.0235 39.0371ZM36.4312 39.396C36.492 39.396 36.5408 39.3763 36.5775 39.3369C36.6148 39.2969 36.6335 39.2359 36.6335 39.1538C36.6335 39.0872 36.617 39.0344 36.5839 38.9955C36.5514 38.9566 36.5024 38.9371 36.4368 38.9371C36.392 38.9371 36.3529 38.9467 36.3193 38.9659C36.2857 38.9851 36.2596 39.0093 36.2409 39.0387C36.2228 39.068 36.2137 39.0978 36.2137 39.1282C36.2137 39.1591 36.2183 39.1903 36.2273 39.2217C36.2364 39.2532 36.25 39.2822 36.2681 39.3089C36.2862 39.335 36.3089 39.3561 36.3361 39.3721C36.3633 39.388 36.395 39.396 36.4312 39.396Z" fill="#444444"/>
<g filter="url(#filter3_d_7976_44356)">
<rect x="41.6484" y="44.2852" width="5.11696" height="3.07018" rx="1.53509" fill="white"/>
</g>
<path d="M43.3479 45.9645C43.423 45.9645 43.4891 45.9781 43.5462 46.0053C43.6037 46.032 43.6485 46.0714 43.6805 46.1237C43.7125 46.1754 43.7284 46.2388 43.7284 46.3139C43.7284 46.396 43.7111 46.4669 43.6765 46.5266C43.6418 46.5858 43.5909 46.6314 43.5238 46.6633C43.4566 46.6953 43.3748 46.7113 43.2783 46.7113C43.217 46.7113 43.1597 46.706 43.1064 46.6953C43.0536 46.6847 43.0081 46.6687 42.9697 46.6473V46.4778C43.0097 46.5002 43.0576 46.5186 43.1136 46.533C43.1696 46.5469 43.2231 46.5538 43.2743 46.5538C43.3287 46.5538 43.3753 46.5458 43.4142 46.5298C43.4531 46.5138 43.483 46.4893 43.5038 46.4563C43.5251 46.4232 43.5358 46.3814 43.5358 46.3307C43.5358 46.2636 43.5142 46.2119 43.471 46.1756C43.4284 46.1388 43.3615 46.1205 43.2703 46.1205C43.2383 46.1205 43.2042 46.1234 43.168 46.1292C43.1323 46.1346 43.1024 46.1404 43.0784 46.1468L42.9961 46.0981L43.0401 45.5264H43.6477V45.6919H43.2056L43.18 45.9829C43.1992 45.9787 43.2221 45.9747 43.2487 45.9709C43.2754 45.9667 43.3084 45.9645 43.3479 45.9645ZM43.8892 46.1972C43.8892 46.1284 43.8939 46.0608 43.9035 45.9941C43.9137 45.9275 43.9307 45.8651 43.9547 45.807C43.9787 45.7489 44.0117 45.6978 44.0539 45.6535C44.0965 45.6093 44.1501 45.5746 44.2146 45.5496C44.2791 45.524 44.3566 45.5112 44.4472 45.5112C44.4707 45.5112 44.4971 45.5123 44.5264 45.5144C44.5557 45.5165 44.5799 45.52 44.5991 45.5248V45.6807C44.5783 45.6749 44.5554 45.6703 44.5304 45.6671C44.5059 45.6639 44.4813 45.6623 44.4568 45.6623C44.3587 45.6623 44.2823 45.681 44.2274 45.7183C44.1724 45.7551 44.1333 45.8057 44.1098 45.8702C44.0864 45.9342 44.0728 46.0075 44.069 46.0901H44.0786C44.0946 46.0634 44.1146 46.0397 44.1386 46.0189C44.1626 45.9981 44.1919 45.9816 44.2266 45.9693C44.2612 45.9566 44.3014 45.9502 44.3473 45.9502C44.4155 45.9502 44.4749 45.9645 44.5256 45.9933C44.5762 46.0216 44.6151 46.0626 44.6423 46.1165C44.67 46.1703 44.6839 46.2356 44.6839 46.3123C44.6839 46.395 44.6682 46.4661 44.6367 46.5258C44.6058 46.5855 44.5616 46.6314 44.504 46.6633C44.447 46.6953 44.379 46.7113 44.3001 46.7113C44.242 46.7113 44.1879 46.7006 44.1378 46.6793C44.0882 46.658 44.0448 46.626 44.0075 46.5834C43.9702 46.5407 43.9411 46.4874 43.9203 46.4235C43.8995 46.359 43.8892 46.2836 43.8892 46.1972ZM44.2969 46.5562C44.3577 46.5562 44.4064 46.5365 44.4432 46.497C44.4805 46.4571 44.4992 46.396 44.4992 46.3139C44.4992 46.2473 44.4827 46.1945 44.4496 46.1556C44.4171 46.1167 44.3681 46.0973 44.3025 46.0973C44.2577 46.0973 44.2186 46.1069 44.185 46.1261C44.1514 46.1452 44.1253 46.1695 44.1066 46.1988C44.0885 46.2281 44.0794 46.258 44.0794 46.2884C44.0794 46.3193 44.084 46.3505 44.093 46.3819C44.1021 46.4133 44.1157 46.4424 44.1338 46.469C44.1519 46.4952 44.1746 46.5162 44.2018 46.5322C44.2289 46.5482 44.2607 46.5562 44.2969 46.5562ZM44.9581 46.6953L45.417 45.6911H44.8102V45.5264H45.6193V45.6551L45.1604 46.6953H44.9581Z" fill="#444444"/>
<g filter="url(#filter4_d_7976_44356)">
<rect x="50.4482" y="34.4609" width="5.11696" height="3.07018" rx="1.53509" fill="white"/>
</g>
<path d="M52.5402 36.2003C52.5402 36.2696 52.5352 36.3375 52.5251 36.4042C52.5155 36.4708 52.4984 36.5332 52.4739 36.5913C52.4499 36.6494 52.4166 36.7008 52.3739 36.7456C52.3318 36.7898 52.2785 36.8245 52.214 36.8495C52.1495 36.8746 52.0717 36.8871 51.9806 36.8871C51.9577 36.8871 51.931 36.8858 51.9006 36.8831C51.8708 36.881 51.8463 36.8778 51.8271 36.8735V36.7168C51.8473 36.7226 51.87 36.7274 51.895 36.7312C51.9206 36.7344 51.9459 36.736 51.971 36.736C52.0696 36.736 52.1463 36.7176 52.2012 36.6808C52.2567 36.644 52.2959 36.5934 52.3188 36.5289C52.3422 36.4644 52.3556 36.3911 52.3588 36.309H52.3492C52.3337 36.3346 52.3142 36.3581 52.2908 36.3794C52.2673 36.4002 52.2383 36.417 52.2036 36.4298C52.169 36.442 52.1269 36.4481 52.0773 36.4481C52.0102 36.4481 51.9515 36.434 51.9014 36.4058C51.8519 36.3775 51.8132 36.3365 51.7855 36.2826C51.7583 36.2283 51.7447 36.163 51.7447 36.0868C51.7447 36.0041 51.7604 35.933 51.7919 35.8733C51.8233 35.8136 51.8678 35.7677 51.9254 35.7358C51.983 35.7033 52.0507 35.687 52.1285 35.687C52.1871 35.687 52.2412 35.6977 52.2908 35.719C52.3409 35.7398 52.3846 35.7717 52.4219 35.8149C52.4592 35.8576 52.4883 35.9111 52.5091 35.9756C52.5299 36.0396 52.5402 36.1145 52.5402 36.2003ZM52.1309 35.8421C52.0717 35.8421 52.0235 35.8621 51.9862 35.9021C51.9489 35.9415 51.9302 36.0023 51.9302 36.0844C51.9302 36.151 51.9462 36.2038 51.9782 36.2427C52.0102 36.2816 52.0592 36.301 52.1253 36.301C52.1711 36.301 52.2106 36.2917 52.2436 36.273C52.2772 36.2539 52.3031 36.2296 52.3212 36.2003C52.3398 36.171 52.3492 36.1411 52.3492 36.1107C52.3492 36.0793 52.3446 36.0478 52.3356 36.0164C52.327 35.985 52.3137 35.9562 52.2956 35.9301C52.2775 35.9039 52.2545 35.8829 52.2268 35.8669C52.1996 35.8504 52.1677 35.8421 52.1309 35.8421ZM53.5213 36.6144H53.363V36.8711H53.1775V36.6144H52.6458V36.4721L53.1799 35.699H53.363V36.4585H53.5213V36.6144ZM53.1775 36.4585V36.1683C53.1775 36.1443 53.1777 36.1201 53.1783 36.0956C53.1793 36.0705 53.1804 36.0465 53.1815 36.0236C53.1825 36.0007 53.1836 35.9796 53.1847 35.9604C53.1857 35.9407 53.1865 35.9245 53.1871 35.9117H53.1807C53.1705 35.933 53.1593 35.9548 53.1471 35.9772C53.1348 35.9991 53.1218 36.0204 53.1079 36.0412L52.8201 36.4585H53.1775ZM54.4159 36.2858C54.4159 36.3802 54.4085 36.4647 54.3935 36.5393C54.3792 36.6134 54.3562 36.6763 54.3248 36.728C54.2933 36.7797 54.2523 36.8191 54.2017 36.8463C54.151 36.8735 54.0897 36.8871 54.0178 36.8871C53.9277 36.8871 53.8533 36.8634 53.7947 36.8159C53.7361 36.768 53.6926 36.6992 53.6644 36.6096C53.6361 36.5196 53.622 36.4116 53.622 36.2858C53.622 36.16 53.6348 36.0524 53.6604 35.9628C53.6865 35.8728 53.7286 35.8037 53.7867 35.7558C53.8448 35.7078 53.9218 35.6838 54.0178 35.6838C54.1084 35.6838 54.183 35.7078 54.2416 35.7558C54.3008 35.8032 54.3445 35.872 54.3728 35.962C54.4015 36.0516 54.4159 36.1595 54.4159 36.2858ZM53.8115 36.2858C53.8115 36.3844 53.8179 36.4668 53.8307 36.5329C53.844 36.599 53.8659 36.6486 53.8962 36.6816C53.9266 36.7141 53.9671 36.7304 54.0178 36.7304C54.0684 36.7304 54.1089 36.7141 54.1393 36.6816C54.1697 36.6491 54.1915 36.5998 54.2049 36.5337C54.2187 36.4676 54.2256 36.385 54.2256 36.2858C54.2256 36.1878 54.219 36.1057 54.2057 36.0396C54.1923 35.9735 54.1705 35.9239 54.1401 35.8909C54.1097 35.8573 54.0689 35.8405 54.0178 35.8405C53.9666 35.8405 53.9258 35.8573 53.8954 35.8909C53.8656 35.9239 53.844 35.9735 53.8307 36.0396C53.8179 36.1057 53.8115 36.1878 53.8115 36.2858Z" fill="#444444"/>
<g filter="url(#filter5_d_7976_44356)">
<rect x="59.25" y="34.4609" width="5.11696" height="3.07018" rx="1.53509" fill="white"/>
</g>
<path d="M61.342 36.2003C61.342 36.2696 61.3369 36.3375 61.3268 36.4042C61.3172 36.4708 61.3002 36.5332 61.2756 36.5913C61.2517 36.6494 61.2183 36.7008 61.1757 36.7456C61.1336 36.7898 61.0803 36.8245 61.0158 36.8495C60.9513 36.8746 60.8735 36.8871 60.7823 36.8871C60.7594 36.8871 60.7328 36.8858 60.7024 36.8831C60.6725 36.881 60.648 36.8778 60.6288 36.8735V36.7168C60.6491 36.7226 60.6717 36.7274 60.6968 36.7312C60.7224 36.7344 60.7477 36.736 60.7727 36.736C60.8713 36.736 60.9481 36.7176 61.003 36.6808C61.0584 36.644 61.0976 36.5934 61.1205 36.5289C61.144 36.4644 61.1573 36.3911 61.1605 36.309H61.1509C61.1355 36.3346 61.116 36.3581 61.0926 36.3794C61.0691 36.4002 61.04 36.417 61.0054 36.4298C60.9708 36.442 60.9286 36.4481 60.8791 36.4481C60.8119 36.4481 60.7533 36.434 60.7032 36.4058C60.6536 36.3775 60.615 36.3365 60.5873 36.2826C60.5601 36.2283 60.5465 36.163 60.5465 36.0868C60.5465 36.0041 60.5622 35.933 60.5936 35.8733C60.6251 35.8136 60.6696 35.7677 60.7272 35.7358C60.7847 35.7033 60.8524 35.687 60.9302 35.687C60.9889 35.687 61.043 35.6977 61.0926 35.719C61.1427 35.7398 61.1864 35.7717 61.2237 35.8149C61.261 35.8576 61.29 35.9111 61.3108 35.9756C61.3316 36.0396 61.342 36.1145 61.342 36.2003ZM60.9326 35.8421C60.8735 35.8421 60.8252 35.8621 60.7879 35.9021C60.7506 35.9415 60.732 36.0023 60.732 36.0844C60.732 36.151 60.748 36.2038 60.7799 36.2427C60.8119 36.2816 60.861 36.301 60.927 36.301C60.9729 36.301 61.0123 36.2917 61.0454 36.273C61.079 36.2539 61.1048 36.2296 61.1229 36.2003C61.1416 36.171 61.1509 36.1411 61.1509 36.1107C61.1509 36.0793 61.1464 36.0478 61.1373 36.0164C61.1288 35.985 61.1155 35.9562 61.0973 35.9301C61.0792 35.9039 61.0563 35.8829 61.0286 35.8669C61.0014 35.8504 60.9694 35.8421 60.9326 35.8421ZM62.323 36.6144H62.1647V36.8711H61.9792V36.6144H61.4475V36.4721L61.9816 35.699H62.1647V36.4585H62.323V36.6144ZM61.9792 36.4585V36.1683C61.9792 36.1443 61.9795 36.1201 61.98 36.0956C61.9811 36.0705 61.9822 36.0465 61.9832 36.0236C61.9843 36.0007 61.9854 35.9796 61.9864 35.9604C61.9875 35.9407 61.9883 35.9245 61.9888 35.9117H61.9824C61.9723 35.933 61.9611 35.9548 61.9488 35.9772C61.9366 35.9991 61.9235 36.0204 61.9097 36.0412L61.6218 36.4585H61.9792ZM63.2177 36.2858C63.2177 36.3802 63.2102 36.4647 63.1953 36.5393C63.1809 36.6134 63.158 36.6763 63.1265 36.728C63.0951 36.7797 63.0541 36.8191 63.0034 36.8463C62.9528 36.8735 62.8915 36.8871 62.8195 36.8871C62.7294 36.8871 62.6551 36.8634 62.5965 36.8159C62.5378 36.768 62.4944 36.6992 62.4661 36.6096C62.4379 36.5196 62.4238 36.4116 62.4238 36.2858C62.4238 36.16 62.4366 36.0524 62.4621 35.9628C62.4883 35.8728 62.5304 35.8037 62.5885 35.7558C62.6466 35.7078 62.7236 35.6838 62.8195 35.6838C62.9101 35.6838 62.9848 35.7078 63.0434 35.7558C63.1026 35.8032 63.1463 35.872 63.1745 35.962C63.2033 36.0516 63.2177 36.1595 63.2177 36.2858ZM62.6132 36.2858C62.6132 36.3844 62.6196 36.4668 62.6324 36.5329C62.6458 36.599 62.6676 36.6486 62.698 36.6816C62.7284 36.7141 62.7689 36.7304 62.8195 36.7304C62.8702 36.7304 62.9107 36.7141 62.9411 36.6816C62.9714 36.6491 62.9933 36.5998 63.0066 36.5337C63.0205 36.4676 63.0274 36.385 63.0274 36.2858C63.0274 36.1878 63.0207 36.1057 63.0074 36.0396C62.9941 35.9735 62.9722 35.9239 62.9419 35.8909C62.9115 35.8573 62.8707 35.8405 62.8195 35.8405C62.7684 35.8405 62.7276 35.8573 62.6972 35.8909C62.6673 35.9239 62.6458 35.9735 62.6324 36.0396C62.6196 36.1057 62.6132 36.1878 62.6132 36.2858Z" fill="#444444"/>
<g filter="url(#filter6_d_7976_44356)">
<rect x="68.0518" y="34.4609" width="5.11696" height="3.07018" rx="1.53509" fill="white"/>
</g>
<path d="M70.1438 36.2003C70.1438 36.2696 70.1387 36.3375 70.1286 36.4042C70.119 36.4708 70.1019 36.5332 70.0774 36.5913C70.0534 36.6494 70.0201 36.7008 69.9775 36.7456C69.9354 36.7898 69.882 36.8245 69.8176 36.8495C69.7531 36.8746 69.6752 36.8871 69.5841 36.8871C69.5612 36.8871 69.5345 36.8858 69.5041 36.8831C69.4743 36.881 69.4498 36.8778 69.4306 36.8735V36.7168C69.4508 36.7226 69.4735 36.7274 69.4985 36.7312C69.5241 36.7344 69.5494 36.736 69.5745 36.736C69.6731 36.736 69.7499 36.7176 69.8048 36.6808C69.8602 36.644 69.8994 36.5934 69.9223 36.5289C69.9457 36.4644 69.9591 36.3911 69.9623 36.309H69.9527C69.9372 36.3346 69.9178 36.3581 69.8943 36.3794C69.8709 36.4002 69.8418 36.417 69.8072 36.4298C69.7725 36.442 69.7304 36.4481 69.6808 36.4481C69.6137 36.4481 69.555 36.434 69.5049 36.4058C69.4554 36.3775 69.4167 36.3365 69.389 36.2826C69.3618 36.2283 69.3482 36.163 69.3482 36.0868C69.3482 36.0041 69.364 35.933 69.3954 35.8733C69.4269 35.8136 69.4714 35.7677 69.5289 35.7358C69.5865 35.7033 69.6542 35.687 69.732 35.687C69.7906 35.687 69.8447 35.6977 69.8943 35.719C69.9444 35.7398 69.9881 35.7717 70.0254 35.8149C70.0627 35.8576 70.0918 35.9111 70.1126 35.9756C70.1334 36.0396 70.1438 36.1145 70.1438 36.2003ZM69.7344 35.8421C69.6752 35.8421 69.627 35.8621 69.5897 35.9021C69.5524 35.9415 69.5337 36.0023 69.5337 36.0844C69.5337 36.151 69.5497 36.2038 69.5817 36.2427C69.6137 36.2816 69.6627 36.301 69.7288 36.301C69.7746 36.301 69.8141 36.2917 69.8471 36.273C69.8807 36.2539 69.9066 36.2296 69.9247 36.2003C69.9433 36.171 69.9527 36.1411 69.9527 36.1107C69.9527 36.0793 69.9481 36.0478 69.9391 36.0164C69.9306 35.985 69.9172 35.9562 69.8991 35.9301C69.881 35.9039 69.8581 35.8829 69.8303 35.8669C69.8032 35.8504 69.7712 35.8421 69.7344 35.8421ZM70.6882 36.1403C70.7634 36.1403 70.8295 36.1539 70.8865 36.1811C70.9441 36.2078 70.9889 36.2472 71.0208 36.2994C71.0528 36.3511 71.0688 36.4146 71.0688 36.4897C71.0688 36.5718 71.0515 36.6427 71.0168 36.7024C70.9822 36.7616 70.9313 36.8071 70.8641 36.8391C70.797 36.8711 70.7152 36.8871 70.6187 36.8871C70.5574 36.8871 70.5001 36.8818 70.4468 36.8711C70.394 36.8604 70.3484 36.8444 70.3101 36.8231V36.6536C70.35 36.676 70.398 36.6944 70.454 36.7088C70.5099 36.7226 70.5635 36.7296 70.6147 36.7296C70.669 36.7296 70.7157 36.7216 70.7546 36.7056C70.7935 36.6896 70.8234 36.6651 70.8441 36.632C70.8655 36.599 70.8761 36.5571 70.8761 36.5065C70.8761 36.4394 70.8545 36.3876 70.8114 36.3514C70.7687 36.3146 70.7018 36.2962 70.6107 36.2962C70.5787 36.2962 70.5446 36.2992 70.5083 36.305C70.4726 36.3104 70.4428 36.3162 70.4188 36.3226L70.3364 36.2738L70.3804 35.7022H70.9881V35.8677H70.5459L70.5203 36.1587C70.5395 36.1545 70.5624 36.1505 70.5891 36.1467C70.6157 36.1425 70.6488 36.1403 70.6882 36.1403ZM72.0194 36.2858C72.0194 36.3802 72.012 36.4647 71.9971 36.5393C71.9827 36.6134 71.9597 36.6763 71.9283 36.728C71.8969 36.7797 71.8558 36.8191 71.8052 36.8463C71.7545 36.8735 71.6932 36.8871 71.6213 36.8871C71.5312 36.8871 71.4568 36.8634 71.3982 36.8159C71.3396 36.768 71.2961 36.6992 71.2679 36.6096C71.2396 36.5196 71.2255 36.4116 71.2255 36.2858C71.2255 36.16 71.2383 36.0524 71.2639 35.9628C71.29 35.8728 71.3321 35.8037 71.3902 35.7558C71.4483 35.7078 71.5253 35.6838 71.6213 35.6838C71.7119 35.6838 71.7865 35.7078 71.8451 35.7558C71.9043 35.8032 71.948 35.872 71.9763 35.962C72.0051 36.0516 72.0194 36.1595 72.0194 36.2858ZM71.415 36.2858C71.415 36.3844 71.4214 36.4668 71.4342 36.5329C71.4475 36.599 71.4694 36.6486 71.4998 36.6816C71.5301 36.7141 71.5706 36.7304 71.6213 36.7304C71.6719 36.7304 71.7124 36.7141 71.7428 36.6816C71.7732 36.6491 71.795 36.5998 71.8084 36.5337C71.8222 36.4676 71.8292 36.385 71.8292 36.2858C71.8292 36.1878 71.8225 36.1057 71.8092 36.0396C71.7958 35.9735 71.774 35.9239 71.7436 35.8909C71.7132 35.8573 71.6725 35.8405 71.6213 35.8405C71.5701 35.8405 71.5293 35.8573 71.499 35.8909C71.4691 35.9239 71.4475 35.9735 71.4342 36.0396C71.4214 36.1057 71.415 36.1878 71.415 36.2858Z" fill="#444444"/>
<defs>
<filter id="filter0_d_7976_44356" x="75.8862" y="27.1133" width="6.64161" height="4.59474" filterUnits="userSpaceOnUse" color-interpolation-filters="sRGB">
<feFlood flood-opacity="0" result="BackgroundImageFix"/>
<feColorMatrix in="SourceAlpha" type="matrix" values="0 0 0 0 0 0 0 0 0 0 0 0 0 0 0 0 0 0 127 0" result="hardAlpha"/>
<feOffset dy="0.762214"/>
<feGaussianBlur stdDeviation="0.381107"/>
<feComposite in2="hardAlpha" operator="out"/>
<feColorMatrix type="matrix" values="0 0 0 0 0 0 0 0 0 0 0 0 0 0 0 0 0 0 0.25 0"/>
<feBlend mode="normal" in2="BackgroundImageFix" result="effect1_dropShadow_7976_44356"/>
<feBlend mode="normal" in="SourceGraphic" in2="effect1_dropShadow_7976_44356" result="shape"/>
</filter>
<filter id="filter1_d_7976_44356" x="23.0776" y="44.2852" width="6.64161" height="4.59474" filterUnits="userSpaceOnUse" color-interpolation-filters="sRGB">
<feFlood flood-opacity="0" result="BackgroundImageFix"/>
<feColorMatrix in="SourceAlpha" type="matrix" values="0 0 0 0 0 0 0 0 0 0 0 0 0 0 0 0 0 0 127 0" result="hardAlpha"/>
<feOffset dy="0.762214"/>
<feGaussianBlur stdDeviation="0.381107"/>
<feComposite in2="hardAlpha" operator="out"/>
<feColorMatrix type="matrix" values="0 0 0 0 0 0 0 0 0 0 0 0 0 0 0 0 0 0 0.25 0"/>
<feBlend mode="normal" in2="BackgroundImageFix" result="effect1_dropShadow_7976_44356"/>
<feBlend mode="normal" in="SourceGraphic" in2="effect1_dropShadow_7976_44356" result="shape"/>
</filter>
<filter id="filter2_d_7976_44356" x="32.0835" y="37.125" width="6.64161" height="4.59474" filterUnits="userSpaceOnUse" color-interpolation-filters="sRGB">
<feFlood flood-opacity="0" result="BackgroundImageFix"/>
<feColorMatrix in="SourceAlpha" type="matrix" values="0 0 0 0 0 0 0 0 0 0 0 0 0 0 0 0 0 0 127 0" result="hardAlpha"/>
<feOffset dy="0.762214"/>
<feGaussianBlur stdDeviation="0.381107"/>
<feComposite in2="hardAlpha" operator="out"/>
<feColorMatrix type="matrix" values="0 0 0 0 0 0 0 0 0 0 0 0 0 0 0 0 0 0 0.25 0"/>
<feBlend mode="normal" in2="BackgroundImageFix" result="effect1_dropShadow_7976_44356"/>
<feBlend mode="normal" in="SourceGraphic" in2="effect1_dropShadow_7976_44356" result="shape"/>
</filter>
<filter id="filter3_d_7976_44356" x="40.8862" y="44.2852" width="6.64161" height="4.59474" filterUnits="userSpaceOnUse" color-interpolation-filters="sRGB">
<feFlood flood-opacity="0" result="BackgroundImageFix"/>
<feColorMatrix in="SourceAlpha" type="matrix" values="0 0 0 0 0 0 0 0 0 0 0 0 0 0 0 0 0 0 127 0" result="hardAlpha"/>
<feOffset dy="0.762214"/>
<feGaussianBlur stdDeviation="0.381107"/>
<feComposite in2="hardAlpha" operator="out"/>
<feColorMatrix type="matrix" values="0 0 0 0 0 0 0 0 0 0 0 0 0 0 0 0 0 0 0.25 0"/>
<feBlend mode="normal" in2="BackgroundImageFix" result="effect1_dropShadow_7976_44356"/>
<feBlend mode="normal" in="SourceGraphic" in2="effect1_dropShadow_7976_44356" result="shape"/>
</filter>
<filter id="filter4_d_7976_44356" x="49.686" y="34.4609" width="6.64161" height="4.59474" filterUnits="userSpaceOnUse" color-interpolation-filters="sRGB">
<feFlood flood-opacity="0" result="BackgroundImageFix"/>
<feColorMatrix in="SourceAlpha" type="matrix" values="0 0 0 0 0 0 0 0 0 0 0 0 0 0 0 0 0 0 127 0" result="hardAlpha"/>
<feOffset dy="0.762214"/>
<feGaussianBlur stdDeviation="0.381107"/>
<feComposite in2="hardAlpha" operator="out"/>
<feColorMatrix type="matrix" values="0 0 0 0 0 0 0 0 0 0 0 0 0 0 0 0 0 0 0.25 0"/>
<feBlend mode="normal" in2="BackgroundImageFix" result="effect1_dropShadow_7976_44356"/>
<feBlend mode="normal" in="SourceGraphic" in2="effect1_dropShadow_7976_44356" result="shape"/>
</filter>
<filter id="filter5_d_7976_44356" x="58.4878" y="34.4609" width="6.64161" height="4.59474" filterUnits="userSpaceOnUse" color-interpolation-filters="sRGB">
<feFlood flood-opacity="0" result="BackgroundImageFix"/>
<feColorMatrix in="SourceAlpha" type="matrix" values="0 0 0 0 0 0 0 0 0 0 0 0 0 0 0 0 0 0 127 0" result="hardAlpha"/>
<feOffset dy="0.762214"/>
<feGaussianBlur stdDeviation="0.381107"/>
<feComposite in2="hardAlpha" operator="out"/>
<feColorMatrix type="matrix" values="0 0 0 0 0 0 0 0 0 0 0 0 0 0 0 0 0 0 0.25 0"/>
<feBlend mode="normal" in2="BackgroundImageFix" result="effect1_dropShadow_7976_44356"/>
<feBlend mode="normal" in="SourceGraphic" in2="effect1_dropShadow_7976_44356" result="shape"/>
</filter>
<filter id="filter6_d_7976_44356" x="67.2895" y="34.4609" width="6.64161" height="4.59474" filterUnits="userSpaceOnUse" color-interpolation-filters="sRGB">
<feFlood flood-opacity="0" result="BackgroundImageFix"/>
<feColorMatrix in="SourceAlpha" type="matrix" values="0 0 0 0 0 0 0 0 0 0 0 0 0 0 0 0 0 0 127 0" result="hardAlpha"/>
<feOffset dy="0.762214"/>
<feGaussianBlur stdDeviation="0.381107"/>
<feComposite in2="hardAlpha" operator="out"/>
<feColorMatrix type="matrix" values="0 0 0 0 0 0 0 0 0 0 0 0 0 0 0 0 0 0 0.25 0"/>
<feBlend mode="normal" in2="BackgroundImageFix" result="effect1_dropShadow_7976_44356"/>
<feBlend mode="normal" in="SourceGraphic" in2="effect1_dropShadow_7976_44356" result="shape"/>
</filter>
</defs>
</svg>
