<svg width="409" height="392" viewBox="0 0 409 392" fill="none" xmlns="http://www.w3.org/2000/svg">
<g clip-path="url(#clip0_7390_198625)">
<path d="M18.4375 0.551758H390.562C400.014 0.552005 407.677 8.2155 407.677 17.668V374.332C407.677 383.785 400.014 391.448 390.562 391.448H18.4375C8.98487 391.448 1.32129 383.785 1.32129 374.332V17.668C1.32129 8.21534 8.98487 0.551758 18.4375 0.551758Z" fill="white" stroke="#EFEFEF" stroke-width="1.10423"/>
<circle cx="376.763" cy="36.9932" r="1.34084" fill="#090909"/>
<circle cx="376.763" cy="30.2901" r="1.34084" fill="#090909"/>
<circle cx="376.763" cy="43.7002" r="1.34084" fill="#090909"/>
<path d="M37.3141 35.9721C37.3141 37.0785 37.1718 38.0878 36.8871 39.0001C36.6024 39.9124 36.1754 40.692 35.606 41.339C35.0367 41.986 34.3185 42.4745 33.4515 42.8045L36.8289 46.4633H33.7232L31.0543 43.2703C30.9896 43.2703 30.9249 43.2703 30.8602 43.2703C30.802 43.2768 30.7438 43.28 30.6855 43.28C29.5533 43.28 28.5698 43.1053 27.7352 42.756C26.907 42.4066 26.218 41.9084 25.668 41.2614C25.1245 40.6144 24.7169 39.8412 24.4452 38.9419C24.1734 38.0425 24.0375 37.0461 24.0375 35.9527C24.0375 34.4904 24.2769 33.2158 24.7557 32.1289C25.241 31.0354 25.9753 30.1879 26.9588 29.5861C27.9487 28.9779 29.1974 28.6739 30.7049 28.6739C32.1801 28.6739 33.4062 28.9747 34.3832 29.5764C35.3602 30.1781 36.0913 31.0257 36.5765 32.1192C37.0683 33.2061 37.3141 34.4904 37.3141 35.9721ZM26.4832 35.9721C26.4832 37.0655 26.632 38.0134 26.9297 38.8157C27.2273 39.6115 27.6834 40.2262 28.2981 40.6597C28.9192 41.0867 29.715 41.3002 30.6855 41.3002C31.6625 41.3002 32.4583 41.0867 33.073 40.6597C33.6876 40.2262 34.1406 39.6115 34.4317 38.8157C34.7229 38.0134 34.8684 37.0655 34.8684 35.9721C34.8684 34.3093 34.5352 33.0088 33.8688 32.0706C33.2089 31.126 32.1542 30.6537 30.7049 30.6537C29.7344 30.6537 28.9354 30.8672 28.3078 31.2942C27.6867 31.7213 27.2273 32.3327 26.9297 33.1285C26.632 33.9178 26.4832 34.8657 26.4832 35.9721ZM49.494 32.3424V43.0859H47.6986L47.388 41.6399H47.2619C47.0354 42.0087 46.7475 42.316 46.3981 42.5619C46.0487 42.8013 45.6605 42.9792 45.2335 43.0956C44.8065 43.2186 44.3568 43.28 43.8845 43.28C43.0757 43.28 42.3834 43.1442 41.8076 42.8724C41.2382 42.5942 40.8015 42.1672 40.4974 41.5914C40.1933 41.0155 40.0413 40.2715 40.0413 39.3592V32.3424H42.3317V38.9322C42.3317 39.7668 42.4999 40.3912 42.8363 40.8052C43.1792 41.2193 43.7098 41.4264 44.428 41.4264C45.1203 41.4264 45.6702 41.284 46.0778 40.9993C46.4854 40.7147 46.7734 40.2941 46.9416 39.7377C47.1163 39.1812 47.2036 38.4987 47.2036 37.6899V32.3424H49.494ZM57.0446 32.1386C58.0022 32.1386 58.8239 32.3359 59.5097 32.7306C60.1955 33.1253 60.7228 33.6849 61.0916 34.4096C61.4604 35.1342 61.6448 36.0012 61.6448 37.0105V38.2334H54.4727C54.4986 39.2751 54.7768 40.0774 55.3074 40.6403C55.8444 41.2031 56.5949 41.4846 57.559 41.4846C58.2448 41.4846 58.8595 41.4199 59.4029 41.2905C59.9529 41.1546 60.519 40.9573 61.1013 40.6985V42.5522C60.5643 42.8045 60.0176 42.9889 59.4612 43.1053C58.9047 43.2218 58.2383 43.28 57.4619 43.28C56.4073 43.28 55.4788 43.0762 54.6766 42.6686C53.8807 42.2545 53.2564 41.6399 52.8035 40.8246C52.357 40.0094 52.1338 38.9969 52.1338 37.7869C52.1338 36.5835 52.3376 35.5612 52.7452 34.7201C53.1529 33.879 53.7255 33.2385 54.463 32.7985C55.2006 32.3586 56.0612 32.1386 57.0446 32.1386ZM57.0446 33.8564C56.3264 33.8564 55.7441 34.0893 55.2977 34.5551C54.8577 35.021 54.5989 35.7036 54.5213 36.6029H59.4126C59.4062 36.0659 59.3156 35.5904 59.1409 35.1763C58.9727 34.7622 58.7139 34.4387 58.3645 34.2058C58.0216 33.9728 57.5816 33.8564 57.0446 33.8564ZM73.5821 32.3424V43.0859H71.7867L71.4761 41.6399H71.3499C71.1235 42.0087 70.8356 42.316 70.4862 42.5619C70.1368 42.8013 69.7486 42.9792 69.3216 43.0956C68.8945 43.2186 68.4449 43.28 67.9726 43.28C67.1638 43.28 66.4715 43.1442 65.8957 42.8724C65.3263 42.5942 64.8896 42.1672 64.5855 41.5914C64.2814 41.0155 64.1293 40.2715 64.1293 39.3592V32.3424H66.4197V38.9322C66.4197 39.7668 66.588 40.3912 66.9244 40.8052C67.2673 41.2193 67.7979 41.4264 68.516 41.4264C69.2083 41.4264 69.7583 41.284 70.1659 40.9993C70.5735 40.7147 70.8614 40.2941 71.0297 39.7377C71.2044 39.1812 71.2917 38.4987 71.2917 37.6899V32.3424H73.5821ZM81.1327 32.1386C82.0902 32.1386 82.9119 32.3359 83.5978 32.7306C84.2836 33.1253 84.8109 33.6849 85.1797 34.4096C85.5485 35.1342 85.7329 36.0012 85.7329 37.0105V38.2334H78.5608C78.5867 39.2751 78.8649 40.0774 79.3955 40.6403C79.9325 41.2031 80.683 41.4846 81.647 41.4846C82.3329 41.4846 82.9475 41.4199 83.491 41.2905C84.041 41.1546 84.6071 40.9573 85.1894 40.6985V42.5522C84.6524 42.8045 84.1057 42.9889 83.5492 43.1053C82.9928 43.2218 82.3264 43.28 81.55 43.28C80.4954 43.28 79.5669 43.0762 78.7646 42.6686C77.9688 42.2545 77.3445 41.6399 76.8915 40.8246C76.4451 40.0094 76.2219 38.9969 76.2219 37.7869C76.2219 36.5835 76.4257 35.5612 76.8333 34.7201C77.2409 33.879 77.8135 33.2385 78.5511 32.7985C79.2887 32.3586 80.1492 32.1386 81.1327 32.1386ZM81.1327 33.8564C80.4145 33.8564 79.8322 34.0893 79.3858 34.5551C78.9458 35.021 78.687 35.7036 78.6093 36.6029H83.5007C83.4943 36.0659 83.4037 35.5904 83.229 35.1763C83.0608 34.7622 82.802 34.4387 82.4526 34.2058C82.1097 33.9728 81.6697 33.8564 81.1327 33.8564ZM97.7478 32.1386C98.7054 32.1386 99.5271 32.3359 100.213 32.7306C100.899 33.1253 101.426 33.6849 101.795 34.4096C102.164 35.1342 102.348 36.0012 102.348 37.0105V38.2334H95.176C95.2018 39.2751 95.4801 40.0774 96.0106 40.6403C96.5476 41.2031 97.2981 41.4846 98.2622 41.4846C98.948 41.4846 99.5627 41.4199 100.106 41.2905C100.656 41.1546 101.222 40.9573 101.805 40.6985V42.5522C101.268 42.8045 100.721 42.9889 100.164 43.1053C99.608 43.2218 98.9415 43.28 98.1651 43.28C97.1105 43.28 96.1821 43.0762 95.3798 42.6686C94.5839 42.2545 93.9596 41.6399 93.5067 40.8246C93.0602 40.0094 92.837 38.9969 92.837 37.7869C92.837 36.5835 93.0408 35.5612 93.4484 34.7201C93.8561 33.879 94.4287 33.2385 95.1663 32.7985C95.9038 32.3586 96.7644 32.1386 97.7478 32.1386ZM97.7478 33.8564C97.0296 33.8564 96.4473 34.0893 96.0009 34.5551C95.5609 35.021 95.3021 35.7036 95.2245 36.6029H100.116C100.109 36.0659 100.019 35.5904 99.8441 35.1763C99.6759 34.7622 99.4171 34.4387 99.0677 34.2058C98.7248 33.9728 98.2848 33.8564 97.7478 33.8564ZM107.375 43.0859L103.289 32.3424H105.706L107.919 38.6507C108.061 39.0518 108.191 39.4853 108.307 39.9512C108.423 40.417 108.504 40.8085 108.55 41.1255H108.627C108.673 40.7955 108.76 40.4009 108.889 39.9415C109.019 39.4756 109.151 39.0454 109.287 38.6507L111.5 32.3424H113.907L109.821 43.0859H107.375ZM119.817 32.1386C120.775 32.1386 121.596 32.3359 122.282 32.7306C122.968 33.1253 123.495 33.6849 123.864 34.4096C124.233 35.1342 124.417 36.0012 124.417 37.0105V38.2334H117.245C117.271 39.2751 117.549 40.0774 118.08 40.6403C118.617 41.2031 119.368 41.4846 120.332 41.4846C121.017 41.4846 121.632 41.4199 122.176 41.2905C122.726 41.1546 123.292 40.9573 123.874 40.6985V42.5522C123.337 42.8045 122.79 42.9889 122.234 43.1053C121.677 43.2218 121.011 43.28 120.235 43.28C119.18 43.28 118.251 43.0762 117.449 42.6686C116.653 42.2545 116.029 41.6399 115.576 40.8246C115.13 40.0094 114.906 38.9969 114.906 37.7869C114.906 36.5835 115.11 35.5612 115.518 34.7201C115.925 33.879 116.498 33.2385 117.236 32.7985C117.973 32.3586 118.834 32.1386 119.817 32.1386ZM119.817 33.8564C119.099 33.8564 118.517 34.0893 118.07 34.5551C117.63 35.021 117.372 35.7036 117.294 36.6029H122.185C122.179 36.0659 122.088 35.5904 121.914 35.1763C121.745 34.7622 121.487 34.4387 121.137 34.2058C120.794 33.9728 120.354 33.8564 119.817 33.8564ZM132.589 32.1386C133.799 32.1386 134.74 32.4524 135.413 33.08C136.093 33.7011 136.432 34.7007 136.432 36.0789V43.0859H134.152V36.5059C134.152 35.6712 133.98 35.0469 133.637 34.6328C133.294 34.2122 132.764 34.002 132.046 34.002C131.004 34.002 130.279 34.3222 129.872 34.9628C129.471 35.6033 129.27 36.5318 129.27 37.7481V43.0859H126.989V32.3424H128.765L129.086 33.7982H129.212C129.445 33.4229 129.733 33.1156 130.076 32.8762C130.425 32.6303 130.813 32.4459 131.24 32.323C131.674 32.2 132.123 32.1386 132.589 32.1386ZM143.624 41.4361C143.921 41.4361 144.216 41.4102 144.507 41.3584C144.798 41.3002 145.063 41.2323 145.303 41.1546V42.8821C145.051 42.9921 144.724 43.0859 144.323 43.1636C143.921 43.2412 143.504 43.28 143.071 43.28C142.462 43.28 141.916 43.1798 141.43 42.9792C140.945 42.7721 140.56 42.4195 140.276 41.9213C139.991 41.4231 139.849 40.7341 139.849 39.8541V34.0796H138.383V33.0606L139.955 32.255L140.703 29.9549H142.139V32.3424H145.215V34.0796H142.139V39.825C142.139 40.3685 142.275 40.7729 142.547 41.0382C142.818 41.3034 143.177 41.4361 143.624 41.4361ZM154.707 40.0191C154.707 40.7244 154.536 41.3196 154.193 41.8049C153.85 42.2901 153.348 42.6589 152.688 42.9112C152.035 43.1571 151.233 43.28 150.282 43.28C149.531 43.28 148.884 43.225 148.341 43.1151C147.804 43.0115 147.296 42.8498 146.817 42.6298V40.6597C147.328 40.8991 147.901 41.1061 148.535 41.2808C149.175 41.4555 149.78 41.5428 150.349 41.5428C151.1 41.5428 151.64 41.4264 151.97 41.1934C152.3 40.954 152.465 40.637 152.465 40.2423C152.465 40.0094 152.397 39.8024 152.261 39.6212C152.132 39.4336 151.886 39.2427 151.524 39.0486C151.168 38.848 150.644 38.6086 149.952 38.3304C149.272 38.0587 148.7 37.7869 148.234 37.5152C147.768 37.2435 147.415 36.9167 147.176 36.535C146.937 36.1468 146.817 35.6518 146.817 35.0501C146.817 34.099 147.192 33.3776 147.943 32.8859C148.7 32.3877 149.699 32.1386 150.942 32.1386C151.601 32.1386 152.223 32.2065 152.805 32.3424C153.394 32.4718 153.969 32.6627 154.532 32.915L153.814 34.6328C153.329 34.4193 152.84 34.2446 152.349 34.1087C151.863 33.9664 151.369 33.8952 150.864 33.8952C150.275 33.8952 149.825 33.9858 149.515 34.1669C149.211 34.3481 149.059 34.6069 149.059 34.9434C149.059 35.1957 149.133 35.4092 149.282 35.5839C149.431 35.7586 149.686 35.9333 150.049 36.108C150.417 36.2827 150.929 36.4994 151.582 36.7582C152.223 37.0041 152.776 37.2629 153.242 37.5346C153.714 37.7999 154.076 38.1266 154.329 38.5148C154.581 38.903 154.707 39.4045 154.707 40.0191ZM167.702 34.0796H165.092V43.0859H162.811V34.0796H161.054V32.9829L162.811 32.3133V31.566C162.811 30.6537 162.953 29.929 163.238 29.392C163.529 28.855 163.943 28.47 164.48 28.2371C165.024 27.9977 165.671 27.878 166.421 27.878C166.913 27.878 167.363 27.9201 167.77 28.0042C168.178 28.0818 168.521 28.1724 168.799 28.2759L168.207 30.0035C167.987 29.9323 167.741 29.8676 167.469 29.8094C167.198 29.7447 166.906 29.7123 166.596 29.7123C166.078 29.7123 165.696 29.8741 165.451 30.1976C165.211 30.5211 165.092 30.9934 165.092 31.6145V32.3424H167.702V34.0796ZM179.047 37.6899C179.047 38.5828 178.931 39.3754 178.698 40.0676C178.465 40.7599 178.125 41.3455 177.679 41.8243C177.233 42.2966 176.696 42.6589 176.068 42.9112C175.44 43.1571 174.732 43.28 173.943 43.28C173.205 43.28 172.529 43.1571 171.914 42.9112C171.3 42.6589 170.766 42.2966 170.313 41.8243C169.866 41.3455 169.52 40.7599 169.274 40.0676C169.029 39.3754 168.906 38.5828 168.906 37.6899C168.906 36.5059 169.109 35.503 169.517 34.6813C169.931 33.8531 170.52 33.2223 171.283 32.7888C172.047 32.3553 172.956 32.1386 174.011 32.1386C175 32.1386 175.874 32.3553 176.631 32.7888C177.388 33.2223 177.98 33.8531 178.407 34.6813C178.834 35.5095 179.047 36.5123 179.047 37.6899ZM171.254 37.6899C171.254 38.4728 171.348 39.1424 171.536 39.6989C171.73 40.2553 172.027 40.6823 172.429 40.9799C172.83 41.2711 173.347 41.4167 173.981 41.4167C174.615 41.4167 175.133 41.2711 175.534 40.9799C175.935 40.6823 176.23 40.2553 176.417 39.6989C176.605 39.1424 176.699 38.4728 176.699 37.6899C176.699 36.907 176.605 36.2438 176.417 35.7004C176.23 35.1504 175.935 34.7331 175.534 34.4484C175.133 34.1572 174.612 34.0117 173.972 34.0117C173.027 34.0117 172.338 34.3287 171.905 34.9628C171.471 35.5968 171.254 36.5059 171.254 37.6899ZM187.112 32.1386C187.294 32.1386 187.491 32.1483 187.704 32.1677C187.918 32.1871 188.102 32.213 188.258 32.2453L188.044 34.3805C187.908 34.3416 187.74 34.3125 187.539 34.2931C187.345 34.2737 187.171 34.264 187.015 34.264C186.608 34.264 186.22 34.3319 185.851 34.4678C185.482 34.5972 185.155 34.7978 184.871 35.0695C184.586 35.3348 184.363 35.668 184.201 36.0691C184.039 36.4703 183.958 36.9361 183.958 37.4667V43.0859H181.668V32.3424H183.454L183.764 34.2349H183.871C184.084 33.8531 184.35 33.5038 184.667 33.1867C184.984 32.8697 185.346 32.6174 185.754 32.4297C186.168 32.2356 186.621 32.1386 187.112 32.1386ZM200.777 34.0796H198.167V43.0859H195.886V34.0796H194.129V32.9829L195.886 32.3133V31.566C195.886 30.6537 196.028 29.929 196.313 29.392C196.604 28.855 197.018 28.47 197.555 28.2371C198.099 27.9977 198.746 27.878 199.496 27.878C199.988 27.878 200.438 27.9201 200.845 28.0042C201.253 28.0818 201.596 28.1724 201.874 28.2759L201.282 30.0035C201.062 29.9323 200.816 29.8676 200.544 29.8094C200.273 29.7447 199.981 29.7123 199.671 29.7123C199.153 29.7123 198.771 29.8741 198.526 30.1976C198.286 30.5211 198.167 30.9934 198.167 31.6145V32.3424H200.777V34.0796ZM212.122 37.6899C212.122 38.5828 212.006 39.3754 211.773 40.0676C211.54 40.7599 211.2 41.3455 210.754 41.8243C210.308 42.2966 209.771 42.6589 209.143 42.9112C208.515 43.1571 207.807 43.28 207.018 43.28C206.28 43.28 205.604 43.1571 204.989 42.9112C204.375 42.6589 203.841 42.2966 203.388 41.8243C202.941 41.3455 202.595 40.7599 202.349 40.0676C202.104 39.3754 201.981 38.5828 201.981 37.6899C201.981 36.5059 202.184 35.503 202.592 34.6813C203.006 33.8531 203.595 33.2223 204.358 32.7888C205.122 32.3553 206.031 32.1386 207.086 32.1386C208.075 32.1386 208.949 32.3553 209.706 32.7888C210.463 33.2223 211.055 33.8531 211.482 34.6813C211.909 35.5095 212.122 36.5123 212.122 37.6899ZM204.329 37.6899C204.329 38.4728 204.423 39.1424 204.611 39.6989C204.805 40.2553 205.102 40.6823 205.504 40.9799C205.905 41.2711 206.422 41.4167 207.056 41.4167C207.69 41.4167 208.208 41.2711 208.609 40.9799C209.01 40.6823 209.305 40.2553 209.492 39.6989C209.68 39.1424 209.774 38.4728 209.774 37.6899C209.774 36.907 209.68 36.2438 209.492 35.7004C209.305 35.1504 209.01 34.7331 208.609 34.4484C208.208 34.1572 207.687 34.0117 207.047 34.0117C206.102 34.0117 205.413 34.3287 204.98 34.9628C204.546 35.5968 204.329 36.5059 204.329 37.6899ZM220.187 32.1386C220.369 32.1386 220.566 32.1483 220.779 32.1677C220.993 32.1871 221.177 32.213 221.333 32.2453L221.119 34.3805C220.983 34.3416 220.815 34.3125 220.614 34.2931C220.42 34.2737 220.246 34.264 220.09 34.264C219.683 34.264 219.295 34.3319 218.926 34.4678C218.557 34.5972 218.23 34.7978 217.946 35.0695C217.661 35.3348 217.438 35.668 217.276 36.0691C217.114 36.4703 217.033 36.9361 217.033 37.4667V43.0859H214.743V32.3424H216.529L216.839 34.2349H216.946C217.159 33.8531 217.425 33.5038 217.742 33.1867C218.059 32.8697 218.421 32.6174 218.829 32.4297C219.243 32.2356 219.696 32.1386 220.187 32.1386ZM225.603 27.9848V35.283C225.603 35.613 225.59 35.9753 225.564 36.37C225.538 36.7582 225.512 37.1238 225.486 37.4667H225.535C225.703 37.2402 225.904 36.975 226.137 36.6709C226.376 36.3668 226.603 36.1015 226.816 35.875L230.096 32.3424H232.717L228.417 36.962L232.998 43.0859H230.32L226.884 38.3693L225.603 39.4659V43.0859H223.322V27.9848H225.603ZM237.006 43.0859H234.716V27.9848H237.006V43.0859ZM242.548 32.3424V43.0859H240.267V32.3424H242.548ZM241.422 28.2274C241.772 28.2274 242.072 28.3212 242.325 28.5089C242.584 28.6965 242.713 29.02 242.713 29.4794C242.713 29.9323 242.584 30.2558 242.325 30.4499C242.072 30.6375 241.772 30.7313 241.422 30.7313C241.06 30.7313 240.753 30.6375 240.5 30.4499C240.254 30.2558 240.131 29.9323 240.131 29.4794C240.131 29.02 240.254 28.6965 240.5 28.5089C240.753 28.3212 241.06 28.2274 241.422 28.2274ZM251.186 34.0796H248.575V43.0859H246.294V34.0796H244.538V32.9829L246.294 32.3133V31.566C246.294 30.6537 246.437 29.929 246.721 29.392C247.012 28.855 247.426 28.47 247.963 28.2371C248.507 27.9977 249.154 27.878 249.904 27.878C250.396 27.878 250.846 27.9201 251.253 28.0042C251.661 28.0818 252.004 28.1724 252.282 28.2759L251.69 30.0035C251.47 29.9323 251.224 29.8676 250.953 29.8094C250.681 29.7447 250.39 29.7123 250.079 29.7123C249.562 29.7123 249.18 29.8741 248.934 30.1976C248.695 30.5211 248.575 30.9934 248.575 31.6145V32.3424H251.186V34.0796ZM257.018 41.4361C257.316 41.4361 257.61 41.4102 257.901 41.3584C258.193 41.3002 258.458 41.2323 258.697 41.1546V42.8821C258.445 42.9921 258.118 43.0859 257.717 43.1636C257.316 43.2412 256.899 43.28 256.465 43.28C255.857 43.28 255.31 43.1798 254.825 42.9792C254.34 42.7721 253.955 42.4195 253.67 41.9213C253.385 41.4231 253.243 40.7341 253.243 39.8541V34.0796H251.778V33.0606L253.35 32.255L254.097 29.9549H255.533V32.3424H258.61V34.0796H255.533V39.825C255.533 40.3685 255.669 40.7729 255.941 41.0382C256.213 41.3034 256.572 41.4361 257.018 41.4361Z" fill="#212121"/>
<rect x="23.2952" y="328.399" width="279.59" height="38.8687" rx="19.4344" fill="white"/>
<rect x="23.2952" y="328.399" width="279.59" height="38.8687" rx="19.4344" stroke="#EFEFEF" stroke-width="0.88338"/>
<path d="M42.1079 353.332H40.8171V343.429H37.3449V342.296H45.5651V343.429H42.1079V353.332ZM54.1778 349.18C54.1778 349.86 54.0898 350.466 53.9136 351C53.7375 351.533 53.4834 351.983 53.1512 352.351C52.8191 352.718 52.4165 353 51.9435 353.196C51.4755 353.387 50.9446 353.483 50.3508 353.483C49.7972 353.483 49.289 353.387 48.826 353.196C48.3681 353 47.9705 352.718 47.6333 352.351C47.3012 351.983 47.0421 351.533 46.8559 351C46.6747 350.466 46.5841 349.86 46.5841 349.18C46.5841 348.275 46.7376 347.505 47.0446 346.871C47.3515 346.231 47.7893 345.746 48.358 345.414C48.9317 345.077 49.6135 344.908 50.4036 344.908C51.1585 344.908 51.8177 345.077 52.3813 345.414C52.9499 345.751 53.3903 346.239 53.7023 346.878C54.0193 347.512 54.1778 348.28 54.1778 349.18ZM47.8824 349.18C47.8824 349.845 47.9705 350.421 48.1466 350.909C48.3228 351.397 48.5945 351.775 48.9619 352.041C49.3292 352.308 49.8023 352.441 50.381 352.441C50.9546 352.441 51.4252 352.308 51.7925 352.041C52.1649 351.775 52.4392 351.397 52.6153 350.909C52.7914 350.421 52.8795 349.845 52.8795 349.18C52.8795 348.521 52.7914 347.953 52.6153 347.474C52.4392 346.991 52.1674 346.619 51.8001 346.357C51.4327 346.096 50.9572 345.965 50.3734 345.965C49.5129 345.965 48.8814 346.249 48.4788 346.818C48.0812 347.386 47.8824 348.174 47.8824 349.18ZM59.0164 352.456C59.2227 352.456 59.434 352.439 59.6504 352.404C59.8668 352.368 60.0429 352.326 60.1788 352.275V353.249C60.0329 353.314 59.8291 353.37 59.5674 353.415C59.3107 353.46 59.0591 353.483 58.8126 353.483C58.3747 353.483 57.9772 353.408 57.6199 353.257C57.2626 353.101 56.9758 352.839 56.7594 352.472C56.548 352.104 56.4423 351.596 56.4423 350.947V346.04H55.2648V345.429L56.4499 344.938L56.9481 343.142H57.7029V345.059H60.126V346.04H57.7029V350.909C57.7029 351.427 57.8212 351.815 58.0577 352.071C58.2993 352.328 58.6188 352.456 59.0164 352.456ZM64.9494 344.923C65.9357 344.923 66.6679 345.145 67.146 345.587C67.6241 346.03 67.8631 346.737 67.8631 347.708V353.332H66.9497L66.7082 352.109H66.6478C66.4163 352.411 66.1748 352.665 65.9232 352.872C65.6715 353.073 65.3797 353.226 65.0475 353.332C64.7204 353.433 64.3179 353.483 63.8398 353.483C63.3366 353.483 62.8887 353.395 62.4962 353.219C62.1087 353.043 61.8017 352.776 61.5753 352.419C61.3538 352.061 61.2431 351.608 61.2431 351.06C61.2431 350.235 61.5702 349.601 62.2244 349.158C62.8786 348.715 63.875 348.473 65.2136 348.433L66.6403 348.373V347.867C66.6403 347.152 66.4868 346.652 66.1798 346.365C65.8728 346.078 65.4401 345.935 64.8815 345.935C64.4487 345.935 64.0361 345.997 63.6435 346.123C63.251 346.249 62.8786 346.398 62.5264 346.569L62.1414 345.618C62.5138 345.426 62.9415 345.263 63.4246 345.127C63.9077 344.991 64.416 344.923 64.9494 344.923ZM66.6252 349.256L65.3646 349.309C64.333 349.349 63.6058 349.518 63.1831 349.814C62.7604 350.111 62.549 350.532 62.549 351.075C62.549 351.548 62.6924 351.898 62.9793 352.124C63.2661 352.351 63.6461 352.464 64.1191 352.464C64.8538 352.464 65.4552 352.26 65.9232 351.853C66.3912 351.445 66.6252 350.834 66.6252 350.018V349.256ZM71.7052 353.332H70.4447V341.587H71.7052V353.332ZM83.9186 357.031V353.483C83.9186 353.287 83.9236 353.06 83.9337 352.804C83.9437 352.547 83.9614 352.326 83.9865 352.139H83.9035C83.672 352.522 83.3424 352.841 82.9146 353.098C82.4869 353.355 81.9359 353.483 81.2615 353.483C80.2501 353.483 79.4373 353.126 78.8234 352.411C78.2095 351.697 77.9025 350.63 77.9025 349.211C77.9025 348.28 78.0434 347.495 78.3252 346.855C78.607 346.216 79.0046 345.733 79.5179 345.406C80.0362 345.074 80.6401 344.908 81.3295 344.908C81.9887 344.908 82.5272 345.039 82.9448 345.301C83.3625 345.557 83.6896 345.872 83.9261 346.244H83.9865L84.1752 345.059H85.1716V357.031H83.9186ZM81.4955 352.441C82.0793 352.441 82.5473 352.333 82.8995 352.117C83.2518 351.895 83.5085 351.563 83.6695 351.12C83.8355 350.678 83.9236 350.126 83.9337 349.467V349.203C83.9337 348.136 83.7525 347.329 83.3902 346.78C83.0279 346.226 82.3963 345.95 81.4955 345.95C80.7206 345.95 80.1444 346.247 79.767 346.84C79.3895 347.429 79.2008 348.229 79.2008 349.241C79.2008 350.252 79.3895 351.04 79.767 351.603C80.1444 352.162 80.7206 352.441 81.4955 352.441ZM94.6675 345.059V353.332H93.6409L93.4598 352.17H93.3918C93.2207 352.456 92.9993 352.698 92.7276 352.894C92.4558 353.09 92.1489 353.236 91.8067 353.332C91.4695 353.433 91.1097 353.483 90.7273 353.483C90.0731 353.483 89.5245 353.377 89.0817 353.166C88.6389 352.955 88.3042 352.628 88.0778 352.185C87.8563 351.742 87.7456 351.173 87.7456 350.479V345.059H89.0138V350.388C89.0138 351.078 89.1698 351.593 89.4818 351.936C89.7938 352.273 90.2693 352.441 90.9084 352.441C91.5224 352.441 92.0105 352.326 92.3728 352.094C92.7402 351.863 93.0044 351.523 93.1654 351.075C93.3264 350.622 93.4069 350.069 93.4069 349.414V345.059H94.6675ZM100.502 344.908C101.207 344.908 101.811 345.064 102.314 345.376C102.817 345.688 103.202 346.126 103.469 346.689C103.736 347.248 103.869 347.902 103.869 348.652V349.43H98.1549C98.17 350.401 98.4115 351.14 98.8795 351.649C99.3475 352.157 100.007 352.411 100.857 352.411C101.381 352.411 101.844 352.363 102.246 352.268C102.649 352.172 103.066 352.031 103.499 351.845V352.947C103.081 353.133 102.666 353.269 102.254 353.355C101.846 353.44 101.363 353.483 100.804 353.483C100.009 353.483 99.3148 353.322 98.721 353C98.1322 352.673 97.6743 352.195 97.3472 351.566C97.0201 350.937 96.8566 350.167 96.8566 349.256C96.8566 348.365 97.005 347.595 97.3019 346.946C97.6039 346.292 98.0266 345.789 98.5701 345.436C99.1186 345.084 99.7627 344.908 100.502 344.908ZM100.487 345.935C99.8181 345.935 99.2846 346.153 98.8871 346.591C98.4895 347.029 98.253 347.641 98.1775 348.426H102.556C102.551 347.932 102.473 347.5 102.322 347.127C102.176 346.75 101.952 346.458 101.65 346.252C101.348 346.04 100.96 345.935 100.487 345.935ZM112.829 345.059V353.332H111.802L111.621 352.17H111.553C111.382 352.456 111.161 352.698 110.889 352.894C110.617 353.09 110.31 353.236 109.968 353.332C109.631 353.433 109.271 353.483 108.889 353.483C108.235 353.483 107.686 353.377 107.243 353.166C106.8 352.955 106.466 352.628 106.239 352.185C106.018 351.742 105.907 351.173 105.907 350.479V345.059H107.175V350.388C107.175 351.078 107.331 351.593 107.643 351.936C107.955 352.273 108.431 352.441 109.07 352.441C109.684 352.441 110.172 352.326 110.534 352.094C110.902 351.863 111.166 351.523 111.327 351.075C111.488 350.622 111.568 350.069 111.568 349.414V345.059H112.829ZM118.664 344.908C119.368 344.908 119.972 345.064 120.476 345.376C120.979 345.688 121.364 346.126 121.63 346.689C121.897 347.248 122.031 347.902 122.031 348.652V349.43H116.316C116.331 350.401 116.573 351.14 117.041 351.649C117.509 352.157 118.168 352.411 119.019 352.411C119.542 352.411 120.005 352.363 120.408 352.268C120.81 352.172 121.228 352.031 121.661 351.845V352.947C121.243 353.133 120.828 353.269 120.415 353.355C120.008 353.44 119.524 353.483 118.966 353.483C118.171 353.483 117.476 353.322 116.883 353C116.294 352.673 115.836 352.195 115.509 351.566C115.182 350.937 115.018 350.167 115.018 349.256C115.018 348.365 115.167 347.595 115.463 346.946C115.765 346.292 116.188 345.789 116.732 345.436C117.28 345.084 117.924 344.908 118.664 344.908ZM118.649 345.935C117.98 345.935 117.446 346.153 117.049 346.591C116.651 347.029 116.415 347.641 116.339 348.426H120.717C120.712 347.932 120.634 347.5 120.483 347.127C120.337 346.75 120.113 346.458 119.811 346.252C119.509 346.04 119.122 345.935 118.649 345.935ZM131.36 344.908C132.065 344.908 132.669 345.064 133.172 345.376C133.675 345.688 134.06 346.126 134.327 346.689C134.594 347.248 134.727 347.902 134.727 348.652V349.43H129.013C129.028 350.401 129.269 351.14 129.737 351.649C130.205 352.157 130.865 352.411 131.715 352.411C132.239 352.411 132.701 352.363 133.104 352.268C133.507 352.172 133.924 352.031 134.357 351.845V352.947C133.939 353.133 133.524 353.269 133.112 353.355C132.704 353.44 132.221 353.483 131.662 353.483C130.867 353.483 130.173 353.322 129.579 353C128.99 352.673 128.532 352.195 128.205 351.566C127.878 350.937 127.714 350.167 127.714 349.256C127.714 348.365 127.863 347.595 128.16 346.946C128.462 346.292 128.884 345.789 129.428 345.436C129.977 345.084 130.621 344.908 131.36 344.908ZM131.345 345.935C130.676 345.935 130.143 346.153 129.745 346.591C129.347 347.029 129.111 347.641 129.035 348.426H133.414C133.409 347.932 133.331 347.5 133.18 347.127C133.034 346.75 132.81 346.458 132.508 346.252C132.206 346.04 131.818 345.935 131.345 345.935ZM138.675 353.332L135.535 345.059H136.878L138.697 350.064C138.823 350.406 138.952 350.783 139.082 351.196C139.213 351.608 139.304 351.941 139.354 352.192H139.407C139.467 351.941 139.568 351.608 139.709 351.196C139.85 350.778 139.978 350.401 140.094 350.064L141.913 345.059H143.257L140.109 353.332H138.675ZM147.771 344.908C148.475 344.908 149.079 345.064 149.582 345.376C150.085 345.688 150.47 346.126 150.737 346.689C151.004 347.248 151.137 347.902 151.137 348.652V349.43H145.423C145.438 350.401 145.68 351.14 146.148 351.649C146.616 352.157 147.275 352.411 148.125 352.411C148.649 352.411 149.112 352.363 149.514 352.268C149.917 352.172 150.335 352.031 150.767 351.845V352.947C150.35 353.133 149.935 353.269 149.522 353.355C149.114 353.44 148.631 353.483 148.073 353.483C147.277 353.483 146.583 353.322 145.989 353C145.4 352.673 144.942 352.195 144.615 351.566C144.288 350.937 144.125 350.167 144.125 349.256C144.125 348.365 144.273 347.595 144.57 346.946C144.872 346.292 145.295 345.789 145.838 345.436C146.387 345.084 147.031 344.908 147.771 344.908ZM147.756 345.935C147.086 345.935 146.553 346.153 146.155 346.591C145.758 347.029 145.521 347.641 145.446 348.426H149.824C149.819 347.932 149.741 347.5 149.59 347.127C149.444 346.75 149.22 346.458 148.918 346.252C148.616 346.04 148.229 345.935 147.756 345.935ZM157.184 344.908C158.165 344.908 158.907 345.15 159.41 345.633C159.914 346.111 160.165 346.881 160.165 347.942V353.332H158.927V348.025C158.927 347.336 158.769 346.82 158.452 346.478C158.14 346.136 157.659 345.965 157.01 345.965C156.094 345.965 155.45 346.224 155.078 346.742C154.705 347.261 154.519 348.013 154.519 348.999V353.332H153.266V345.059H154.277L154.466 346.252H154.534C154.71 345.96 154.934 345.716 155.206 345.519C155.478 345.318 155.782 345.167 156.119 345.067C156.456 344.961 156.811 344.908 157.184 344.908ZM165.419 352.456C165.625 352.456 165.837 352.439 166.053 352.404C166.269 352.368 166.445 352.326 166.581 352.275V353.249C166.435 353.314 166.232 353.37 165.97 353.415C165.713 353.46 165.462 353.483 165.215 353.483C164.777 353.483 164.38 353.408 164.022 353.257C163.665 353.101 163.378 352.839 163.162 352.472C162.951 352.104 162.845 351.596 162.845 350.947V346.04H161.667V345.429L162.852 344.938L163.351 343.142H164.105V345.059H166.528V346.04H164.105V350.909C164.105 351.427 164.224 351.815 164.46 352.071C164.702 352.328 165.021 352.456 165.419 352.456ZM173.609 351.068C173.609 351.596 173.476 352.041 173.209 352.404C172.947 352.761 172.57 353.03 172.077 353.211C171.588 353.392 171.005 353.483 170.325 353.483C169.747 353.483 169.246 353.438 168.823 353.347C168.4 353.257 168.031 353.128 167.714 352.962V351.807C168.051 351.973 168.453 352.124 168.921 352.26C169.389 352.396 169.867 352.464 170.355 352.464C171.07 352.464 171.588 352.348 171.91 352.117C172.233 351.885 172.394 351.571 172.394 351.173C172.394 350.947 172.328 350.748 172.197 350.577C172.072 350.401 171.858 350.232 171.556 350.071C171.254 349.905 170.836 349.724 170.303 349.528C169.774 349.326 169.316 349.128 168.929 348.931C168.546 348.73 168.249 348.486 168.038 348.199C167.832 347.912 167.729 347.54 167.729 347.082C167.729 346.382 168.01 345.847 168.574 345.474C169.143 345.097 169.887 344.908 170.808 344.908C171.307 344.908 171.772 344.958 172.205 345.059C172.643 345.155 173.05 345.285 173.428 345.451L173.005 346.455C172.663 346.309 172.298 346.186 171.91 346.086C171.523 345.985 171.128 345.935 170.725 345.935C170.147 345.935 169.701 346.03 169.389 346.221C169.082 346.413 168.929 346.674 168.929 347.006C168.929 347.263 168.999 347.474 169.14 347.641C169.286 347.807 169.518 347.963 169.835 348.109C170.152 348.254 170.569 348.426 171.088 348.622C171.606 348.813 172.054 349.012 172.431 349.218C172.809 349.419 173.098 349.666 173.299 349.958C173.506 350.245 173.609 350.615 173.609 351.068ZM183.324 346.04H181.263V353.332H180.01V346.04H178.546V345.436L180.01 345.021V344.47C180.01 343.776 180.113 343.212 180.319 342.779C180.526 342.342 180.825 342.019 181.218 341.813C181.61 341.607 182.088 341.504 182.652 341.504C182.969 341.504 183.258 341.531 183.52 341.587C183.787 341.642 184.021 341.705 184.222 341.775L183.897 342.764C183.726 342.709 183.533 342.659 183.316 342.613C183.105 342.563 182.888 342.538 182.667 342.538C182.189 342.538 181.834 342.694 181.603 343.006C181.376 343.313 181.263 343.796 181.263 344.455V345.059H183.324V346.04ZM191.982 349.18C191.982 349.86 191.894 350.466 191.718 351C191.541 351.533 191.287 351.983 190.955 352.351C190.623 352.718 190.22 353 189.747 353.196C189.279 353.387 188.748 353.483 188.155 353.483C187.601 353.483 187.093 353.387 186.63 353.196C186.172 353 185.774 352.718 185.437 352.351C185.105 351.983 184.846 351.533 184.66 351C184.479 350.466 184.388 349.86 184.388 349.18C184.388 348.275 184.541 347.505 184.848 346.871C185.155 346.231 185.593 345.746 186.162 345.414C186.736 345.077 187.417 344.908 188.207 344.908C188.962 344.908 189.622 345.077 190.185 345.414C190.754 345.751 191.194 346.239 191.506 346.878C191.823 347.512 191.982 348.28 191.982 349.18ZM185.686 349.18C185.686 349.845 185.774 350.421 185.951 350.909C186.127 351.397 186.398 351.775 186.766 352.041C187.133 352.308 187.606 352.441 188.185 352.441C188.759 352.441 189.229 352.308 189.596 352.041C189.969 351.775 190.243 351.397 190.419 350.909C190.595 350.421 190.683 349.845 190.683 349.18C190.683 348.521 190.595 347.953 190.419 347.474C190.243 346.991 189.971 346.619 189.604 346.357C189.237 346.096 188.761 345.965 188.177 345.965C187.317 345.965 186.685 346.249 186.283 346.818C185.885 347.386 185.686 348.174 185.686 349.18ZM197.907 344.908C198.073 344.908 198.247 344.918 198.428 344.938C198.609 344.953 198.77 344.976 198.911 345.006L198.753 346.169C198.617 346.133 198.466 346.106 198.3 346.086C198.134 346.065 197.978 346.055 197.832 346.055C197.5 346.055 197.185 346.123 196.888 346.259C196.596 346.39 196.34 346.581 196.118 346.833C195.897 347.079 195.723 347.379 195.597 347.731C195.472 348.078 195.409 348.466 195.409 348.894V353.332H194.148V345.059H195.19L195.326 346.584H195.378C195.55 346.277 195.756 345.997 195.997 345.746C196.239 345.489 196.518 345.285 196.835 345.134C197.157 344.983 197.515 344.908 197.907 344.908ZM208.173 346.04H206.112V353.332H204.859V346.04H203.395V345.436L204.859 345.021V344.47C204.859 343.776 204.962 343.212 205.169 342.779C205.375 342.342 205.675 342.019 206.067 341.813C206.46 341.607 206.938 341.504 207.501 341.504C207.818 341.504 208.108 341.531 208.369 341.587C208.636 341.642 208.87 341.705 209.071 341.775L208.747 342.764C208.576 342.709 208.382 342.659 208.166 342.613C207.954 342.563 207.738 342.538 207.516 342.538C207.038 342.538 206.684 342.694 206.452 343.006C206.226 343.313 206.112 343.796 206.112 344.455V345.059H208.173V346.04ZM216.831 349.18C216.831 349.86 216.743 350.466 216.567 351C216.391 351.533 216.137 351.983 215.805 352.351C215.472 352.718 215.07 353 214.597 353.196C214.129 353.387 213.598 353.483 213.004 353.483C212.45 353.483 211.942 353.387 211.479 353.196C211.021 353 210.624 352.718 210.287 352.351C209.954 351.983 209.695 351.533 209.509 351C209.328 350.466 209.237 349.86 209.237 349.18C209.237 348.275 209.391 347.505 209.698 346.871C210.005 346.231 210.443 345.746 211.011 345.414C211.585 345.077 212.267 344.908 213.057 344.908C213.812 344.908 214.471 345.077 215.035 345.414C215.603 345.751 216.044 346.239 216.356 346.878C216.673 347.512 216.831 348.28 216.831 349.18ZM210.536 349.18C210.536 349.845 210.624 350.421 210.8 350.909C210.976 351.397 211.248 351.775 211.615 352.041C211.982 352.308 212.456 352.441 213.034 352.441C213.608 352.441 214.078 352.308 214.446 352.041C214.818 351.775 215.092 351.397 215.269 350.909C215.445 350.421 215.533 349.845 215.533 349.18C215.533 348.521 215.445 347.953 215.269 347.474C215.092 346.991 214.821 346.619 214.453 346.357C214.086 346.096 213.61 345.965 213.027 345.965C212.166 345.965 211.535 346.249 211.132 346.818C210.734 347.386 210.536 348.174 210.536 349.18ZM222.757 344.908C222.923 344.908 223.096 344.918 223.277 344.938C223.459 344.953 223.62 344.976 223.761 345.006L223.602 346.169C223.466 346.133 223.315 346.106 223.149 346.086C222.983 346.065 222.827 346.055 222.681 346.055C222.349 346.055 222.034 346.123 221.738 346.259C221.446 346.39 221.189 346.581 220.968 346.833C220.746 347.079 220.573 347.379 220.447 347.731C220.321 348.078 220.258 348.466 220.258 348.894V353.332H218.997V345.059H220.039L220.175 346.584H220.228C220.399 346.277 220.605 345.997 220.847 345.746C221.088 345.489 221.368 345.285 221.685 345.134C222.007 344.983 222.364 344.908 222.757 344.908ZM226.569 341.587V347.686C226.569 347.887 226.561 348.134 226.546 348.426C226.531 348.712 226.518 348.967 226.508 349.188H226.561C226.667 349.057 226.82 348.863 227.021 348.607C227.228 348.35 227.401 348.144 227.542 347.988L230.29 345.059H231.762L228.433 348.592L232.003 353.332H230.494L227.572 349.414L226.569 350.335V353.332H225.323V341.587H226.569ZM234.706 353.332H233.445V341.587H234.706V353.332ZM238.608 345.059V353.332H237.355V345.059H238.608ZM237.997 341.964C238.203 341.964 238.379 342.032 238.525 342.168C238.676 342.299 238.752 342.505 238.752 342.787C238.752 343.064 238.676 343.27 238.525 343.406C238.379 343.542 238.203 343.61 237.997 343.61C237.78 343.61 237.599 343.542 237.453 343.406C237.312 343.27 237.242 343.064 237.242 342.787C237.242 342.505 237.312 342.299 237.453 342.168C237.599 342.032 237.78 341.964 237.997 341.964ZM244.949 346.04H242.888V353.332H241.635V346.04H240.171V345.436L241.635 345.021V344.47C241.635 343.776 241.738 343.212 241.945 342.779C242.151 342.342 242.45 342.019 242.843 341.813C243.235 341.607 243.714 341.504 244.277 341.504C244.594 341.504 244.884 341.531 245.145 341.587C245.412 341.642 245.646 341.705 245.847 341.775L245.523 342.764C245.352 342.709 245.158 342.659 244.941 342.613C244.73 342.563 244.514 342.538 244.292 342.538C243.814 342.538 243.459 342.694 243.228 343.006C243.001 343.313 242.888 343.796 242.888 344.455V345.059H244.949V346.04ZM249.146 352.456C249.352 352.456 249.564 352.439 249.78 352.404C249.996 352.368 250.172 352.326 250.308 352.275V353.249C250.162 353.314 249.959 353.37 249.697 353.415C249.44 353.46 249.189 353.483 248.942 353.483C248.504 353.483 248.107 353.408 247.749 353.257C247.392 353.101 247.105 352.839 246.889 352.472C246.678 352.104 246.572 351.596 246.572 350.947V346.04H245.394V345.429L246.579 344.938L247.078 343.142H247.832V345.059H250.255V346.04H247.832V350.909C247.832 351.427 247.951 351.815 248.187 352.071C248.429 352.328 248.748 352.456 249.146 352.456ZM251.795 352.547C251.795 352.195 251.881 351.946 252.052 351.8C252.223 351.649 252.432 351.573 252.679 351.573C252.935 351.573 253.152 351.649 253.328 351.8C253.504 351.946 253.592 352.195 253.592 352.547C253.592 352.894 253.504 353.148 253.328 353.309C253.152 353.465 252.935 353.543 252.679 353.543C252.432 353.543 252.223 353.465 252.052 353.309C251.881 353.148 251.795 352.894 251.795 352.547ZM251.795 345.852C251.795 345.489 251.881 345.235 252.052 345.089C252.223 344.938 252.432 344.863 252.679 344.863C252.935 344.863 253.152 344.938 253.328 345.089C253.504 345.235 253.592 345.489 253.592 345.852C253.592 346.194 253.504 346.443 253.328 346.599C253.152 346.755 252.935 346.833 252.679 346.833C252.432 346.833 252.223 346.755 252.052 346.599C251.881 346.443 251.795 346.194 251.795 345.852Z" fill="#212121"/>
<path d="M270.038 344.817C270.038 345.316 269.938 345.748 269.736 346.116C269.535 346.483 269.258 346.785 268.906 347.022C268.559 347.253 268.156 347.419 267.698 347.52V347.573C268.579 347.683 269.243 347.96 269.691 348.403C270.144 348.846 270.371 349.432 270.371 350.162C270.371 350.801 270.217 351.372 269.91 351.875C269.603 352.373 269.133 352.766 268.499 353.053C267.864 353.34 267.049 353.483 266.053 353.483C265.454 353.483 264.898 353.435 264.385 353.34C263.876 353.244 263.393 353.09 262.935 352.879V351.302C263.403 351.533 263.902 351.712 264.43 351.837C264.958 351.963 265.459 352.026 265.932 352.026C266.853 352.026 267.51 351.855 267.902 351.513C268.295 351.166 268.491 350.688 268.491 350.079C268.491 349.686 268.388 349.364 268.182 349.112C267.98 348.861 267.666 348.672 267.238 348.546C266.815 348.421 266.269 348.358 265.6 348.358H264.626V346.931H265.608C266.247 346.931 266.76 346.855 267.147 346.705C267.535 346.549 267.814 346.335 267.985 346.063C268.161 345.791 268.249 345.474 268.249 345.112C268.249 344.639 268.096 344.271 267.789 344.01C267.482 343.743 267.027 343.61 266.423 343.61C266.05 343.61 265.711 343.652 265.404 343.738C265.102 343.824 264.822 343.932 264.566 344.063C264.309 344.193 264.065 344.334 263.834 344.485L262.981 343.255C263.398 342.943 263.897 342.679 264.475 342.462C265.054 342.246 265.728 342.138 266.498 342.138C267.63 342.138 268.504 342.382 269.118 342.87C269.731 343.353 270.038 344.002 270.038 344.817ZM275.587 346.433C276.296 346.433 276.92 346.561 277.459 346.818C278.002 347.069 278.425 347.442 278.727 347.935C279.029 348.423 279.18 349.022 279.18 349.731C279.18 350.506 279.016 351.176 278.689 351.739C278.362 352.298 277.881 352.728 277.247 353.03C276.613 353.332 275.841 353.483 274.93 353.483C274.351 353.483 273.81 353.433 273.307 353.332C272.809 353.231 272.378 353.08 272.016 352.879V351.279C272.394 351.49 272.846 351.664 273.375 351.8C273.903 351.931 274.409 351.996 274.892 351.996C275.405 351.996 275.846 351.92 276.213 351.77C276.58 351.619 276.862 351.387 277.058 351.075C277.26 350.763 277.36 350.368 277.36 349.89C277.36 349.256 277.157 348.768 276.749 348.426C276.346 348.078 275.715 347.905 274.854 347.905C274.552 347.905 274.23 347.932 273.888 347.988C273.551 348.038 273.269 348.093 273.043 348.154L272.265 347.693L272.68 342.296H278.417V343.859H274.243L274.001 346.606C274.183 346.566 274.399 346.528 274.651 346.493C274.902 346.453 275.214 346.433 275.587 346.433ZM288.155 347.807C288.155 348.697 288.084 349.495 287.943 350.199C287.807 350.899 287.591 351.493 287.294 351.981C286.997 352.469 286.61 352.841 286.132 353.098C285.654 353.355 285.075 353.483 284.396 353.483C283.545 353.483 282.843 353.259 282.29 352.811C281.736 352.358 281.326 351.709 281.059 350.864C280.792 350.013 280.659 348.994 280.659 347.807C280.659 346.619 280.78 345.602 281.021 344.757C281.268 343.907 281.666 343.255 282.214 342.802C282.763 342.349 283.49 342.123 284.396 342.123C285.251 342.123 285.956 342.349 286.509 342.802C287.068 343.25 287.48 343.899 287.747 344.749C288.019 345.595 288.155 346.614 288.155 347.807ZM282.448 347.807C282.448 348.738 282.508 349.515 282.629 350.139C282.755 350.763 282.961 351.231 283.248 351.543C283.535 351.85 283.917 352.004 284.396 352.004C284.874 352.004 285.256 351.85 285.543 351.543C285.83 351.236 286.036 350.771 286.162 350.147C286.293 349.523 286.358 348.743 286.358 347.807C286.358 346.881 286.295 346.106 286.169 345.482C286.044 344.858 285.837 344.39 285.55 344.078C285.264 343.761 284.879 343.602 284.396 343.602C283.912 343.602 283.527 343.761 283.241 344.078C282.959 344.39 282.755 344.858 282.629 345.482C282.508 346.106 282.448 346.881 282.448 347.807Z" fill="black"/>
<rect x="314.811" y="328.399" width="47.7025" height="38.8687" rx="19.4344" fill="white" stroke="#EFEFEF" stroke-width="0.88338"/>
<g clip-path="url(#clip1_7390_198625)">
<path d="M344.46 357.771H343.632C343.412 357.771 343.201 357.683 343.046 357.528C342.891 357.373 342.803 357.162 342.803 356.942C342.803 356.723 342.891 356.512 343.046 356.357C343.201 356.202 343.412 356.114 343.632 356.114H344.46C345.119 356.114 345.751 355.852 346.217 355.387C346.683 354.921 346.944 354.289 346.944 353.63V352.802C346.944 352.582 347.032 352.371 347.187 352.216C347.342 352.061 347.553 351.973 347.772 351.973C347.992 351.973 348.203 352.061 348.358 352.216C348.513 352.371 348.601 352.582 348.601 352.802V353.63C348.599 354.728 348.163 355.78 347.386 356.556C346.61 357.333 345.558 357.769 344.46 357.771ZM348.601 342.864V342.035C348.599 340.938 348.163 339.885 347.386 339.109C346.61 338.333 345.558 337.896 344.46 337.895H343.632C343.412 337.895 343.201 337.982 343.046 338.137C342.891 338.292 342.803 338.503 342.803 338.723C342.803 338.942 342.891 339.153 343.046 339.308C343.201 339.464 343.412 339.551 343.632 339.551H344.46C345.119 339.551 345.751 339.813 346.217 340.279C346.683 340.745 346.944 341.376 346.944 342.035V342.864C346.944 343.083 347.032 343.294 347.187 343.449C347.342 343.604 347.553 343.692 347.772 343.692C347.992 343.692 348.203 343.604 348.358 343.449C348.513 343.294 348.601 343.083 348.601 342.864ZM334.522 356.942C334.522 356.723 334.435 356.512 334.279 356.357C334.124 356.202 333.913 356.114 333.694 356.114H332.865C332.207 356.114 331.575 355.852 331.109 355.387C330.643 354.921 330.381 354.289 330.381 353.63V352.802C330.381 352.582 330.294 352.371 330.138 352.216C329.983 352.061 329.772 351.973 329.553 351.973C329.333 351.973 329.122 352.061 328.967 352.216C328.812 352.371 328.725 352.582 328.725 352.802V353.63C328.726 354.728 329.163 355.78 329.939 356.556C330.715 357.333 331.768 357.769 332.865 357.771H333.694C333.913 357.771 334.124 357.683 334.279 357.528C334.435 357.373 334.522 357.162 334.522 356.942ZM330.381 342.864V342.035C330.381 341.376 330.643 340.745 331.109 340.279C331.575 339.813 332.207 339.551 332.865 339.551H333.694C333.913 339.551 334.124 339.464 334.279 339.308C334.435 339.153 334.522 338.942 334.522 338.723C334.522 338.503 334.435 338.292 334.279 338.137C334.124 337.982 333.913 337.895 333.694 337.895H332.865C331.768 337.896 330.715 338.333 329.939 339.109C329.163 339.885 328.726 340.938 328.725 342.035V342.864C328.725 343.083 328.812 343.294 328.967 343.449C329.122 343.604 329.333 343.692 329.553 343.692C329.772 343.692 329.983 343.604 330.138 343.449C330.294 343.294 330.381 343.083 330.381 342.864Z" fill="black"/>
</g>
<rect x="23.4056" y="77.849" width="362.186" height="119.256" rx="40.3042" stroke="#D2DCFD" stroke-width="1.10423"/>
<rect x="22.8535" y="209.805" width="170.051" height="103.797" rx="23.1887" fill="#8087FF"/>
<rect x="216.094" y="209.805" width="170.051" height="103.797" rx="23.1887" fill="#E1FF49"/>
<path d="M99.1951 254.367H86.3844V252.077L91.2887 247.108C92.2376 246.142 93.0183 245.309 93.6308 244.61C94.2433 243.903 94.6962 243.234 94.9896 242.605C95.2915 241.975 95.4425 241.289 95.4425 240.547C95.4425 239.633 95.1793 238.943 94.6531 238.477C94.1269 238.002 93.4324 237.765 92.5698 237.765C91.7502 237.765 90.9911 237.929 90.2923 238.257C89.6021 238.576 88.8861 239.033 88.1442 239.628L86.4749 237.623C87.0012 237.174 87.5619 236.764 88.1572 236.393C88.761 236.022 89.4339 235.729 90.1758 235.513C90.9177 235.289 91.7631 235.177 92.7121 235.177C93.9112 235.177 94.9464 235.393 95.8177 235.824C96.689 236.247 97.3576 236.838 97.8234 237.597C98.2979 238.356 98.5352 239.24 98.5352 240.249C98.5352 241.267 98.3324 242.208 97.927 243.07C97.5215 243.933 96.9435 244.787 96.193 245.633C95.4425 246.469 94.5496 247.38 93.5144 248.363L90.2405 251.559V251.702H99.1951V254.367ZM114.361 244.895C114.361 246.422 114.24 247.789 113.999 248.997C113.766 250.196 113.395 251.214 112.886 252.051C112.377 252.888 111.713 253.526 110.893 253.966C110.073 254.406 109.081 254.626 107.917 254.626C106.459 254.626 105.255 254.242 104.306 253.474C103.358 252.698 102.654 251.585 102.197 250.136C101.74 248.678 101.511 246.931 101.511 244.895C101.511 242.859 101.718 241.116 102.133 239.667C102.555 238.209 103.237 237.092 104.177 236.316C105.117 235.539 106.364 235.151 107.917 235.151C109.383 235.151 110.591 235.539 111.54 236.316C112.498 237.083 113.205 238.196 113.662 239.654C114.128 241.104 114.361 242.85 114.361 244.895ZM104.578 244.895C104.578 246.491 104.682 247.824 104.889 248.894C105.104 249.963 105.458 250.766 105.95 251.3C106.442 251.827 107.097 252.09 107.917 252.09C108.736 252.09 109.392 251.827 109.884 251.3C110.375 250.774 110.729 249.976 110.945 248.906C111.169 247.837 111.281 246.5 111.281 244.895C111.281 243.308 111.173 241.979 110.958 240.909C110.742 239.84 110.388 239.037 109.897 238.503C109.405 237.959 108.745 237.687 107.917 237.687C107.089 237.687 106.429 237.959 105.937 238.503C105.454 239.037 105.104 239.84 104.889 240.909C104.682 241.979 104.578 243.308 104.578 244.895ZM129.527 244.895C129.527 246.422 129.406 247.789 129.164 248.997C128.932 250.196 128.561 251.214 128.052 252.051C127.543 252.888 126.878 253.526 126.059 253.966C125.239 254.406 124.247 254.626 123.083 254.626C121.625 254.626 120.421 254.242 119.472 253.474C118.523 252.698 117.82 251.585 117.363 250.136C116.906 248.678 116.677 246.931 116.677 244.895C116.677 242.859 116.884 241.116 117.298 239.667C117.721 238.209 118.403 237.092 119.343 236.316C120.283 235.539 121.53 235.151 123.083 235.151C124.549 235.151 125.757 235.539 126.706 236.316C127.663 237.083 128.371 238.196 128.828 239.654C129.294 241.104 129.527 242.85 129.527 244.895ZM119.744 244.895C119.744 246.491 119.848 247.824 120.055 248.894C120.27 249.963 120.624 250.766 121.116 251.3C121.607 251.827 122.263 252.09 123.083 252.09C123.902 252.09 124.558 251.827 125.05 251.3C125.541 250.774 125.895 249.976 126.111 248.906C126.335 247.837 126.447 246.5 126.447 244.895C126.447 243.308 126.339 241.979 126.124 240.909C125.908 239.84 125.554 239.037 125.062 238.503C124.571 237.959 123.911 237.687 123.083 237.687C122.254 237.687 121.594 237.959 121.103 238.503C120.62 239.037 120.27 239.84 120.055 240.909C119.848 241.979 119.744 243.308 119.744 244.895Z" fill="white"/>
<path d="M282.955 291.535V277.346H285.284V289.555H291.311V291.535H282.955ZM303.045 286.139C303.045 287.032 302.928 287.825 302.695 288.517C302.462 289.209 302.123 289.795 301.676 290.273C301.23 290.746 300.693 291.108 300.065 291.36C299.438 291.606 298.729 291.729 297.94 291.729C297.202 291.729 296.526 291.606 295.911 291.36C295.297 291.108 294.763 290.746 294.31 290.273C293.864 289.795 293.518 289.209 293.272 288.517C293.026 287.825 292.903 287.032 292.903 286.139C292.903 284.955 293.107 283.952 293.514 283.131C293.928 282.302 294.517 281.672 295.281 281.238C296.044 280.805 296.953 280.588 298.008 280.588C298.998 280.588 299.871 280.805 300.628 281.238C301.385 281.672 301.977 282.302 302.404 283.131C302.831 283.959 303.045 284.962 303.045 286.139ZM295.252 286.139C295.252 286.922 295.345 287.592 295.533 288.148C295.727 288.705 296.025 289.132 296.426 289.429C296.827 289.72 297.345 289.866 297.979 289.866C298.613 289.866 299.13 289.72 299.531 289.429C299.933 289.132 300.227 288.705 300.415 288.148C300.602 287.592 300.696 286.922 300.696 286.139C300.696 285.356 300.602 284.693 300.415 284.15C300.227 283.6 299.933 283.182 299.531 282.898C299.13 282.606 298.61 282.461 297.969 282.461C297.024 282.461 296.335 282.778 295.902 283.412C295.468 284.046 295.252 284.955 295.252 286.139ZM314.448 291.525L313.09 286.527C313.025 286.281 312.947 285.984 312.857 285.634C312.766 285.285 312.675 284.926 312.585 284.557C312.494 284.182 312.41 283.836 312.333 283.519C312.261 283.202 312.206 282.956 312.168 282.781H312.09C312.058 282.956 312.006 283.202 311.935 283.519C311.863 283.836 311.783 284.182 311.692 284.557C311.601 284.932 311.511 285.298 311.42 285.654C311.336 286.01 311.258 286.314 311.187 286.566L309.761 291.525H307.257L304.248 280.782H306.558L307.956 286.12C308.046 286.482 308.133 286.873 308.218 287.294C308.308 287.715 308.386 288.116 308.45 288.497C308.515 288.879 308.564 289.193 308.596 289.439H308.674C308.7 289.264 308.735 289.044 308.78 288.779C308.826 288.507 308.878 288.226 308.936 287.935C308.994 287.637 309.052 287.359 309.11 287.1C309.169 286.835 309.224 286.621 309.275 286.459L310.925 280.782H313.419L315.001 286.459C315.073 286.705 315.15 287.016 315.234 287.391C315.318 287.76 315.393 288.132 315.458 288.507C315.529 288.876 315.574 289.183 315.593 289.429H315.671C315.697 289.209 315.742 288.912 315.807 288.536C315.878 288.155 315.959 287.75 316.05 287.323C316.14 286.89 316.234 286.489 316.331 286.12L317.758 280.782H320.029L317.001 291.525H314.448Z" fill="#606060"/>
<path d="M77.9542 291.535H75.6444V277.346H83.6608V279.307H77.9542V283.732H83.292V285.683H77.9542V291.535ZM95.5204 286.139C95.5204 287.032 95.404 287.825 95.1711 288.517C94.9381 289.209 94.5985 289.795 94.152 290.273C93.7056 290.746 93.1686 291.108 92.541 291.36C91.9134 291.606 91.2049 291.729 90.4156 291.729C89.678 291.729 89.0018 291.606 88.3872 291.36C87.7725 291.108 87.2388 290.746 86.7858 290.273C86.3394 289.795 85.9933 289.209 85.7474 288.517C85.5015 287.825 85.3786 287.032 85.3786 286.139C85.3786 284.955 85.5824 283.952 85.99 283.131C86.4041 282.302 86.9929 281.672 87.7564 281.238C88.5198 280.805 89.4289 280.588 90.4835 280.588C91.4734 280.588 92.3469 280.805 93.1039 281.238C93.8609 281.672 94.4529 282.302 94.8799 283.131C95.3069 283.959 95.5204 284.962 95.5204 286.139ZM87.7272 286.139C87.7272 286.922 87.8211 287.592 88.0087 288.148C88.2028 288.705 88.5004 289.132 88.9016 289.429C89.3027 289.72 89.8203 289.866 90.4544 289.866C91.0884 289.866 91.6061 289.72 92.0072 289.429C92.4083 289.132 92.7027 288.705 92.8904 288.148C93.078 287.592 93.1718 286.922 93.1718 286.139C93.1718 285.356 93.078 284.693 92.8904 284.15C92.7027 283.6 92.4083 283.182 92.0072 282.898C91.6061 282.606 91.0852 282.461 90.4447 282.461C89.5 282.461 88.811 282.778 88.3775 283.412C87.944 284.046 87.7272 284.955 87.7272 286.139ZM103.585 280.588C103.767 280.588 103.964 280.598 104.177 280.617C104.391 280.636 104.575 280.662 104.731 280.695L104.517 282.83C104.381 282.791 104.213 282.762 104.012 282.742C103.818 282.723 103.644 282.713 103.488 282.713C103.081 282.713 102.693 282.781 102.324 282.917C101.955 283.046 101.628 283.247 101.344 283.519C101.059 283.784 100.836 284.117 100.674 284.518C100.512 284.92 100.431 285.385 100.431 285.916V291.535H98.1408V280.792H99.9266L100.237 282.684H100.344C100.557 282.302 100.823 281.953 101.14 281.636C101.457 281.319 101.819 281.067 102.227 280.879C102.641 280.685 103.094 280.588 103.585 280.588ZM109.001 276.434V283.732C109.001 284.062 108.988 284.425 108.962 284.819C108.936 285.207 108.91 285.573 108.884 285.916H108.933C109.101 285.689 109.302 285.424 109.535 285.12C109.774 284.816 110 284.551 110.214 284.324L113.494 280.792H116.115L111.815 285.411L116.396 291.535H113.718L110.282 286.818L109.001 287.915V291.535H106.72V276.434H109.001ZM120.404 291.535H118.114V276.434H120.404V291.535ZM125.946 280.792V291.535H123.665V280.792H125.946ZM124.82 276.677C125.17 276.677 125.47 276.77 125.723 276.958C125.982 277.146 126.111 277.469 126.111 277.929C126.111 278.382 125.982 278.705 125.723 278.899C125.47 279.087 125.17 279.181 124.82 279.181C124.458 279.181 124.151 279.087 123.898 278.899C123.652 278.705 123.529 278.382 123.529 277.929C123.529 277.469 123.652 277.146 123.898 276.958C124.151 276.77 124.458 276.677 124.82 276.677ZM134.583 282.529H131.973V291.535H129.692V282.529H127.935V281.432L129.692 280.762V280.015C129.692 279.103 129.834 278.378 130.119 277.841C130.41 277.304 130.824 276.919 131.361 276.686C131.905 276.447 132.552 276.327 133.302 276.327C133.794 276.327 134.244 276.369 134.651 276.453C135.059 276.531 135.402 276.622 135.68 276.725L135.088 278.453C134.868 278.382 134.622 278.317 134.351 278.259C134.079 278.194 133.788 278.162 133.477 278.162C132.96 278.162 132.578 278.323 132.332 278.647C132.093 278.97 131.973 279.443 131.973 280.064V280.792H134.583V282.529ZM140.416 289.885C140.714 289.885 141.008 289.859 141.299 289.808C141.591 289.749 141.856 289.681 142.095 289.604V291.331C141.843 291.441 141.516 291.535 141.115 291.613C140.714 291.69 140.297 291.729 139.863 291.729C139.255 291.729 138.708 291.629 138.223 291.428C137.738 291.221 137.353 290.869 137.068 290.371C136.783 289.872 136.641 289.183 136.641 288.303V282.529H135.176V281.51L136.748 280.704L137.495 278.404H138.931V280.792H142.008V282.529H138.931V288.274C138.931 288.818 139.067 289.222 139.339 289.487C139.611 289.753 139.97 289.885 140.416 289.885Z" fill="white"/>
<path d="M314.139 234.098H309.121C308.8 234.098 308.485 234.192 308.218 234.369C307.951 234.546 307.742 234.798 307.619 235.093C307.496 235.387 307.464 235.711 307.527 236.023C307.589 236.336 307.744 236.623 307.972 236.849L309.738 238.599L303.906 244.376C303.597 244.669 303.184 244.833 302.756 244.833C302.327 244.833 301.915 244.669 301.605 244.376L301.329 244.1C300.4 243.221 299.164 242.73 297.879 242.73C296.594 242.73 295.359 243.221 294.429 244.1L286.136 252.319C285.831 252.623 285.66 253.034 285.66 253.463C285.661 253.892 285.833 254.303 286.14 254.606C286.446 254.909 286.861 255.079 287.294 255.078C287.727 255.077 288.142 254.906 288.447 254.603L296.74 246.384C297.05 246.09 297.462 245.926 297.891 245.926C298.319 245.926 298.731 246.09 299.041 246.384L299.318 246.66C300.247 247.539 301.482 248.029 302.767 248.029C304.052 248.029 305.288 247.539 306.217 246.66L312.048 240.881L313.814 242.631C314.042 242.852 314.331 243.002 314.645 243.062C314.959 243.122 315.283 243.089 315.578 242.967C315.873 242.845 316.125 242.64 316.303 242.377C316.481 242.114 316.577 241.805 316.578 241.488V236.515C316.578 235.874 316.321 235.259 315.864 234.806C315.407 234.352 314.786 234.098 314.139 234.098Z" fill="url(#paint0_linear_7390_198625)"/>
</g>
<rect x="377.581" y="85.5756" width="103.797" height="346.727" rx="35.8873" transform="rotate(90 377.581 85.5756)" stroke="#D2DCFD" stroke-width="1.10423" stroke-dasharray="2.21 2.21"/>
<g clip-path="url(#clip2_7390_198625)">
<path d="M87.9845 141.229H95.9361V154.037H90.1192H82.6478H71.9746L62.2501 150.564H59.2734V129.809H68.0255L87.9845 141.229Z" fill="#E1FF49"/>
<path d="M95.9359 151.775V154.037H71.9742L62.2505 150.565H59.2734V129.809H68.026L74.5648 133.55V133.553C74.5648 143.745 82.8259 152.005 93.0173 152.005C94.01 152.005 94.9854 151.927 95.9359 151.775Z" fill="#8087FF"/>
<path d="M68.8789 121.699V134.003L76.5022 141.231H87.9841L82.4313 121.699H68.8789Z" fill="white"/>
<path d="M74.5646 133.556C74.5646 136.122 75.0885 138.567 76.0358 140.788L68.8789 134.003V121.699H78.8776C76.1863 124.905 74.5657 129.039 74.5646 133.552V133.556Z" fill="#D2DCFD"/>
<path d="M67.6363 155.956C70.6111 155.956 73.0227 153.545 73.0227 150.57C73.0227 147.595 70.6111 145.184 67.6363 145.184C64.6615 145.184 62.25 147.595 62.25 150.57C62.25 153.545 64.6615 155.956 67.6363 155.956Z" fill="white"/>
<path d="M87.2214 155.847C89.342 155.346 90.6552 153.221 90.1544 151.101C89.6537 148.98 87.5287 147.667 85.4081 148.168C83.2875 148.668 81.9743 150.793 82.475 152.914C82.9758 155.035 85.1008 156.348 87.2214 155.847Z" fill="white"/>
<path d="M112.318 152.961H104.435V120.102C104.435 119.504 103.95 119.02 103.352 119.02C102.754 119.02 102.27 119.504 102.27 120.102V140.153H96.4146C95.8168 140.153 95.332 140.637 95.332 141.235C95.332 141.833 95.8168 142.318 96.4146 142.318H102.27V149.758H96.4146C95.8168 149.758 95.332 150.243 95.332 150.841C95.332 151.439 95.8168 151.924 96.4146 151.924H102.27V154.043C102.27 154.641 102.754 155.126 103.352 155.126H112.318C112.916 155.126 113.4 154.641 113.4 154.043C113.4 153.445 112.916 152.961 112.318 152.961Z" fill="#8087FF"/>
<path d="M95.9347 140.153H88.8007L83.4717 121.408C83.3393 120.942 82.9143 120.621 82.4303 120.621H68.8779C68.2801 120.621 67.7953 121.106 67.7953 121.704V128.733H59.272C58.6741 128.733 58.1895 129.217 58.1895 129.815V150.571C58.1895 151.169 58.6741 151.654 59.272 151.654H61.2584C61.7753 154.707 64.4371 157.04 67.6351 157.04C69.4271 157.04 71.0509 156.307 72.2235 155.126H82.3702C83.2919 156.291 84.7163 157.04 86.3133 157.04C87.9104 157.04 89.3349 156.291 90.2565 155.126H95.9347C96.5325 155.126 97.0173 154.642 97.0173 154.044V141.236C97.0173 140.638 96.5326 140.153 95.9347 140.153ZM69.9605 122.786H81.6126L86.5499 140.153H76.9329L69.9606 133.542L69.9605 122.786ZM67.6351 154.875C65.2619 154.875 63.3312 152.944 63.3312 150.571C63.3312 148.198 65.2619 146.268 67.6351 146.268C70.0082 146.268 71.9389 148.198 71.9389 150.571C71.9389 152.944 70.0082 154.875 67.6351 154.875ZM86.3133 154.875C84.7347 154.875 83.4505 153.591 83.4505 152.012C83.4505 150.434 84.7347 149.149 86.3133 149.149C87.8919 149.149 89.1762 150.434 89.1762 152.012C89.1762 153.591 87.8919 154.875 86.3133 154.875ZM94.8521 152.961H91.2503C91.3093 152.654 91.3413 152.337 91.3413 152.012C91.3413 149.24 89.0858 146.984 86.3133 146.984C83.5408 146.984 81.2853 149.24 81.2853 152.012C81.2853 152.337 81.3173 152.654 81.3763 152.961H73.6446C73.9399 152.221 74.104 151.415 74.104 150.571C74.104 147.004 71.2021 144.102 67.6351 144.102C64.4371 144.102 61.7753 146.435 61.2584 149.489H60.3546V130.898H67.7953V134.007C67.7953 134.304 67.9175 134.588 68.133 134.793L75.7563 142.021C75.9573 142.212 76.2239 142.318 76.5012 142.318H87.9831H94.8521V152.961Z" fill="#052A75"/>
</g>
<g clip-path="url(#clip3_7390_198625)">
<path d="M167.486 141.229H175.438V154.037H169.621H162.15H151.477L141.752 150.564H138.775V129.809H147.527L167.486 141.229Z" fill="#E1FF49"/>
<path d="M175.438 151.775V154.037H151.476L141.752 150.565H138.775V129.809H147.528L154.067 133.55V133.553C154.067 143.745 162.328 152.005 172.519 152.005C173.512 152.005 174.487 151.927 175.438 151.775Z" fill="#8087FF"/>
<path d="M148.381 121.699V134.003L156.004 141.231H167.486L161.933 121.699H148.381Z" fill="white"/>
<path d="M154.067 133.556C154.067 136.122 154.591 138.567 155.538 140.788L148.381 134.003V121.699H158.38C155.688 124.905 154.068 129.039 154.067 133.552V133.556Z" fill="#D2DCFD"/>
<path d="M147.138 155.956C150.113 155.956 152.525 153.545 152.525 150.57C152.525 147.595 150.113 145.184 147.138 145.184C144.164 145.184 141.752 147.595 141.752 150.57C141.752 153.545 144.164 155.956 147.138 155.956Z" fill="white"/>
<path d="M166.725 155.847C168.846 155.346 170.159 153.221 169.658 151.101C169.158 148.98 167.033 147.667 164.912 148.168C162.791 148.668 161.478 150.793 161.979 152.914C162.48 155.035 164.605 156.348 166.725 155.847Z" fill="white"/>
<path d="M191.822 152.961H183.939V120.102C183.939 119.504 183.454 119.02 182.856 119.02C182.258 119.02 181.774 119.504 181.774 120.102V140.153H175.919C175.321 140.153 174.836 140.637 174.836 141.235C174.836 141.833 175.321 142.318 175.919 142.318H181.774V149.758H175.919C175.321 149.758 174.836 150.243 174.836 150.841C174.836 151.439 175.321 151.924 175.919 151.924H181.774V154.043C181.774 154.641 182.258 155.126 182.856 155.126H191.822C192.419 155.126 192.904 154.641 192.904 154.043C192.904 153.445 192.419 152.961 191.822 152.961Z" fill="#8087FF"/>
<path d="M175.439 140.153H168.305L162.976 121.408C162.843 120.942 162.418 120.621 161.934 120.621H148.382C147.784 120.621 147.299 121.106 147.299 121.704V128.733H138.776C138.178 128.733 137.693 129.217 137.693 129.815V150.571C137.693 151.169 138.178 151.654 138.776 151.654H140.762C141.279 154.707 143.941 157.04 147.139 157.04C148.931 157.04 150.555 156.307 151.727 155.126H161.874C162.796 156.291 164.22 157.04 165.817 157.04C167.414 157.04 168.839 156.291 169.76 155.126H175.439C176.036 155.126 176.521 154.642 176.521 154.044V141.236C176.521 140.638 176.037 140.153 175.439 140.153ZM149.464 122.786H161.116L166.054 140.153H156.437L149.465 133.542L149.464 122.786ZM147.139 154.875C144.766 154.875 142.835 152.944 142.835 150.571C142.835 148.198 144.766 146.268 147.139 146.268C149.512 146.268 151.443 148.198 151.443 150.571C151.443 152.944 149.512 154.875 147.139 154.875ZM165.817 154.875C164.239 154.875 162.954 153.591 162.954 152.012C162.954 150.434 164.239 149.149 165.817 149.149C167.396 149.149 168.68 150.434 168.68 152.012C168.68 153.591 167.396 154.875 165.817 154.875ZM174.356 152.961H170.754C170.813 152.654 170.845 152.337 170.845 152.012C170.845 149.24 168.59 146.984 165.817 146.984C163.045 146.984 160.789 149.24 160.789 152.012C160.789 152.337 160.821 152.654 160.88 152.961H153.149C153.444 152.221 153.608 151.415 153.608 150.571C153.608 147.004 150.706 144.102 147.139 144.102C143.941 144.102 141.279 146.435 140.762 149.489H139.859V130.898H147.299V134.007C147.299 134.304 147.421 134.588 147.637 134.793L155.26 142.021C155.461 142.212 155.728 142.318 156.005 142.318H167.487H174.356V152.961Z" fill="#052A75"/>
</g>
<g clip-path="url(#clip4_7390_198625)">
<path d="M246.992 141.229H254.944V154.037H249.127H241.656H230.982L221.258 150.564H218.281V129.809H227.033L246.992 141.229Z" fill="#E1FF49"/>
<path d="M254.944 151.775V154.037H230.982L221.258 150.565H218.281V129.809H227.034L233.573 133.55V133.553C233.573 143.745 241.834 152.005 252.025 152.005C253.018 152.005 253.993 151.927 254.944 151.775Z" fill="#8087FF"/>
<path d="M227.887 121.699V134.003L235.51 141.231H246.992L241.439 121.699H227.887Z" fill="white"/>
<path d="M233.572 133.556C233.572 136.122 234.096 138.567 235.044 140.788L227.887 134.003V121.699H237.885C235.194 124.905 233.573 129.039 233.572 133.552V133.556Z" fill="#D2DCFD"/>
<path d="M226.644 155.956C229.619 155.956 232.031 153.545 232.031 150.57C232.031 147.595 229.619 145.184 226.644 145.184C223.669 145.184 221.258 147.595 221.258 150.57C221.258 153.545 223.669 155.956 226.644 155.956Z" fill="white"/>
<path d="M246.229 155.847C248.35 155.346 249.663 153.221 249.162 151.101C248.662 148.98 246.536 147.667 244.416 148.168C242.295 148.668 240.982 150.793 241.483 152.914C241.984 155.035 244.109 156.348 246.229 155.847Z" fill="white"/>
<path d="M271.327 152.961H263.445V120.102C263.445 119.504 262.96 119.02 262.362 119.02C261.764 119.02 261.279 119.504 261.279 120.102V140.153H255.424C254.827 140.153 254.342 140.637 254.342 141.235C254.342 141.833 254.827 142.318 255.424 142.318H261.279V149.758H255.424C254.827 149.758 254.342 150.243 254.342 150.841C254.342 151.439 254.827 151.924 255.424 151.924H261.279V154.043C261.279 154.641 261.764 155.126 262.362 155.126H271.327C271.925 155.126 272.41 154.641 272.41 154.043C272.41 153.445 271.925 152.961 271.327 152.961Z" fill="#8087FF"/>
<path d="M254.944 140.153H247.811L242.481 121.408C242.349 120.942 241.924 120.621 241.44 120.621H227.888C227.29 120.621 226.805 121.106 226.805 121.704V128.733H218.282C217.684 128.733 217.199 129.217 217.199 129.815V150.571C217.199 151.169 217.684 151.654 218.282 151.654H220.268C220.785 154.707 223.447 157.04 226.645 157.04C228.437 157.04 230.061 156.307 231.233 155.126H241.38C242.302 156.291 243.726 157.04 245.323 157.04C246.92 157.04 248.345 156.291 249.266 155.126H254.944C255.542 155.126 256.027 154.642 256.027 154.044V141.236C256.027 140.638 255.542 140.153 254.944 140.153ZM228.97 122.786H240.622L245.56 140.153H235.943L228.97 133.542L228.97 122.786ZM226.645 154.875C224.272 154.875 222.341 152.944 222.341 150.571C222.341 148.198 224.272 146.268 226.645 146.268C229.018 146.268 230.949 148.198 230.949 150.571C230.949 152.944 229.018 154.875 226.645 154.875ZM245.323 154.875C243.744 154.875 242.46 153.591 242.46 152.012C242.46 150.434 243.744 149.149 245.323 149.149C246.902 149.149 248.186 150.434 248.186 152.012C248.186 153.591 246.902 154.875 245.323 154.875ZM253.862 152.961H250.26C250.319 152.654 250.351 152.337 250.351 152.012C250.351 149.24 248.096 146.984 245.323 146.984C242.551 146.984 240.295 149.24 240.295 152.012C240.295 152.337 240.327 152.654 240.386 152.961H232.654C232.95 152.221 233.114 151.415 233.114 150.571C233.114 147.004 230.212 144.102 226.645 144.102C223.447 144.102 220.785 146.435 220.268 149.489H219.364V130.898H226.805V134.007C226.805 134.304 226.927 134.588 227.143 134.793L234.766 142.021C234.967 142.212 235.234 142.318 235.511 142.318H246.993H253.862V152.961Z" fill="#052A75"/>
</g>
<g clip-path="url(#clip5_7390_198625)">
<path d="M326.496 141.229H334.448V154.037H328.631H321.16H310.486L300.762 150.564H297.785V129.809H306.537L326.496 141.229Z" fill="#E1FF49"/>
<path d="M334.448 151.775V154.037H310.486L300.762 150.565H297.785V129.809H306.538L313.077 133.55V133.553C313.077 143.745 321.338 152.005 331.529 152.005C332.522 152.005 333.497 151.927 334.448 151.775Z" fill="#8087FF"/>
<path d="M307.391 121.699V134.003L315.014 141.231H326.496L320.943 121.699H307.391Z" fill="white"/>
<path d="M313.076 133.556C313.076 136.122 313.6 138.567 314.548 140.788L307.391 134.003V121.699H317.389C314.698 124.905 313.077 129.039 313.076 133.552V133.556Z" fill="#D2DCFD"/>
<path d="M306.148 155.956C309.123 155.956 311.534 153.545 311.534 150.57C311.534 147.595 309.123 145.184 306.148 145.184C303.173 145.184 300.762 147.595 300.762 150.57C300.762 153.545 303.173 155.956 306.148 155.956Z" fill="white"/>
<path d="M325.733 155.847C327.854 155.346 329.167 153.221 328.666 151.101C328.165 148.98 326.04 147.667 323.92 148.168C321.799 148.668 320.486 150.793 320.987 152.914C321.487 155.035 323.612 156.348 325.733 155.847Z" fill="white"/>
<path d="M350.829 152.961H342.946V120.102C342.946 119.504 342.462 119.02 341.864 119.02C341.266 119.02 340.781 119.504 340.781 120.102V140.153H334.926C334.329 140.153 333.844 140.637 333.844 141.235C333.844 141.833 334.329 142.318 334.926 142.318H340.781V149.758H334.926C334.329 149.758 333.844 150.243 333.844 150.841C333.844 151.439 334.329 151.924 334.926 151.924H340.781V154.043C340.781 154.641 341.266 155.126 341.864 155.126H350.829C351.427 155.126 351.912 154.641 351.912 154.043C351.912 153.445 351.427 152.961 350.829 152.961Z" fill="#8087FF"/>
<path d="M334.446 140.153H327.312L321.983 121.408C321.851 120.942 321.426 120.621 320.942 120.621H307.39C306.792 120.621 306.307 121.106 306.307 121.704V128.733H297.784C297.186 128.733 296.701 129.217 296.701 129.815V150.571C296.701 151.169 297.186 151.654 297.784 151.654H299.77C300.287 154.707 302.949 157.04 306.147 157.04C307.939 157.04 309.563 156.307 310.735 155.126H320.882C321.804 156.291 323.228 157.04 324.825 157.04C326.422 157.04 327.847 156.291 328.768 155.126H334.446C335.044 155.126 335.529 154.642 335.529 154.044V141.236C335.529 140.638 335.044 140.153 334.446 140.153ZM308.472 122.786H320.124L325.062 140.153H315.445L308.472 133.542L308.472 122.786ZM306.147 154.875C303.774 154.875 301.843 152.944 301.843 150.571C301.843 148.198 303.774 146.268 306.147 146.268C308.52 146.268 310.451 148.198 310.451 150.571C310.451 152.944 308.52 154.875 306.147 154.875ZM324.825 154.875C323.246 154.875 321.962 153.591 321.962 152.012C321.962 150.434 323.246 149.149 324.825 149.149C326.404 149.149 327.688 150.434 327.688 152.012C327.688 153.591 326.404 154.875 324.825 154.875ZM333.364 152.961H329.762C329.821 152.654 329.853 152.337 329.853 152.012C329.853 149.24 327.598 146.984 324.825 146.984C322.053 146.984 319.797 149.24 319.797 152.012C319.797 152.337 319.829 152.654 319.888 152.961H312.156C312.452 152.221 312.616 151.415 312.616 150.571C312.616 147.004 309.714 144.102 306.147 144.102C302.949 144.102 300.287 146.435 299.77 149.489H298.866V130.898H306.307V134.007C306.307 134.304 306.429 134.588 306.645 134.793L314.268 142.021C314.469 142.212 314.736 142.318 315.013 142.318H326.495H333.364V152.961Z" fill="#052A75"/>
</g>
<defs>
<linearGradient id="paint0_linear_7390_198625" x1="301.119" y1="234.098" x2="301.119" y2="255.078" gradientUnits="userSpaceOnUse">
<stop stop-color="#606060"/>
<stop offset="1" stop-color="white" stop-opacity="0"/>
</linearGradient>
<clipPath id="clip0_7390_198625">
<rect width="407.459" height="392" fill="white" transform="translate(0.769531)"/>
</clipPath>
<clipPath id="clip1_7390_198625">
<rect width="19.8761" height="19.8761" fill="white" transform="translate(328.725 337.895)"/>
</clipPath>
<clipPath id="clip2_7390_198625">
<rect width="55.2113" height="55.2113" fill="white" transform="translate(58.1895 110.422)"/>
</clipPath>
<clipPath id="clip3_7390_198625">
<rect width="55.2113" height="55.2113" fill="white" transform="translate(137.693 110.422)"/>
</clipPath>
<clipPath id="clip4_7390_198625">
<rect width="55.2113" height="55.2113" fill="white" transform="translate(217.197 110.422)"/>
</clipPath>
<clipPath id="clip5_7390_198625">
<rect width="55.2113" height="55.2113" fill="white" transform="translate(296.701 110.422)"/>
</clipPath>
</defs>
</svg>
