<svg width="92" height="92" viewBox="0 0 92 92" fill="none" xmlns="http://www.w3.org/2000/svg">
<rect x="0.389831" y="0.389831" width="91.079" height="91.2203" rx="17.5424" stroke="#BEBEBE" stroke-width="0.779661"/>
<rect width="70" height="60.7317" transform="translate(10.5 16.1348)" fill="white"/>
<path d="M20.2559 21.9883V69.0614" stroke="#E0E0E0" stroke-width="0.243902"/>
<path d="M28.1827 69.0615C28.1827 69.1288 28.2373 69.1834 28.3047 69.1834C28.372 69.1834 28.4266 69.1288 28.4266 69.0615H28.1827ZM28.3047 21.9883H28.1827V69.0615H28.3047H28.4266V21.9883H28.3047Z" fill="#E0E0E0"/>
<path d="M36.2316 69.0615C36.2316 69.1288 36.2862 69.1834 36.3535 69.1834C36.4209 69.1834 36.4755 69.1288 36.4755 69.0615H36.2316ZM36.3535 21.9883H36.2316V69.0615H36.3535H36.4755V21.9883H36.3535Z" fill="#E0E0E0"/>
<path d="M44.2804 69.0615C44.2804 69.1288 44.335 69.1834 44.4023 69.1834C44.4697 69.1834 44.5243 69.1288 44.5243 69.0615H44.2804ZM44.4023 21.9883H44.2804V69.0615H44.4023H44.5243V21.9883H44.4023Z" fill="#E0E0E0"/>
<path d="M52.3292 69.0615C52.3292 69.1288 52.3838 69.1834 52.4512 69.1834C52.5185 69.1834 52.5731 69.1288 52.5731 69.0615H52.3292ZM52.4512 21.9883H52.3292V69.0615H52.4512H52.5731V21.9883H52.4512Z" fill="#E0E0E0"/>
<path d="M60.378 69.0615C60.378 69.1288 60.4326 69.1834 60.5 69.1834C60.5674 69.1834 60.622 69.1288 60.622 69.0615H60.378ZM60.5 21.9883H60.378V69.0615H60.5H60.622V21.9883H60.5Z" fill="#E0E0E0"/>
<path d="M68.4269 69.0615C68.4269 69.1288 68.4815 69.1834 68.5488 69.1834C68.6162 69.1834 68.6708 69.1288 68.6708 69.0615H68.4269ZM68.5488 21.9883H68.4269V69.0615H68.5488H68.6708V21.9883H68.5488Z" fill="#E0E0E0"/>
<path d="M76.4757 69.0615C76.4757 69.1288 76.5303 69.1834 76.5977 69.1834C76.665 69.1834 76.7196 69.1288 76.7196 69.0615H76.4757ZM76.5977 21.9883H76.4757V69.0615H76.5977H76.7196V21.9883H76.5977Z" fill="#E0E0E0"/>
<path d="M14.3599 23.9883H13.4471V23.8558L13.8197 23.4776C13.8889 23.4077 13.947 23.3455 13.994 23.2909C14.0417 23.2362 14.0779 23.1826 14.1026 23.1299C14.1274 23.0765 14.1398 23.0181 14.1398 22.9546C14.1398 22.8758 14.1163 22.8158 14.0693 22.7745C14.0229 22.7326 13.9616 22.7116 13.8854 22.7116C13.8187 22.7116 13.7596 22.723 13.7082 22.7459C13.6568 22.7688 13.604 22.8012 13.55 22.8431L13.4652 22.7364C13.5021 22.7053 13.5421 22.6776 13.5853 22.6535C13.6291 22.6294 13.6758 22.6103 13.7253 22.5963C13.7755 22.5823 13.8289 22.5754 13.8854 22.5754C13.9712 22.5754 14.0452 22.5903 14.1074 22.6201C14.1696 22.65 14.2176 22.6925 14.2513 22.7478C14.2856 22.8031 14.3027 22.8688 14.3027 22.945C14.3027 23.0187 14.2881 23.0873 14.2589 23.1508C14.2297 23.2137 14.1887 23.2763 14.136 23.3385C14.0833 23.4001 14.0217 23.4655 13.9511 23.5348L13.6482 23.8368V23.8435H14.3599V23.9883ZM15.0039 23.1365C15.0986 23.1365 15.1808 23.1527 15.2507 23.1851C15.3206 23.2169 15.3745 23.2632 15.4127 23.3242C15.4514 23.3852 15.4708 23.4592 15.4708 23.5462C15.4708 23.6415 15.4501 23.7237 15.4088 23.793C15.3676 23.8616 15.3082 23.9146 15.2307 23.9521C15.1532 23.9889 15.0605 24.0073 14.9525 24.0073C14.8801 24.0073 14.8127 24.001 14.7505 23.9883C14.6883 23.9756 14.6359 23.9565 14.5933 23.9311V23.7806C14.6397 23.8085 14.6959 23.8308 14.7619 23.8473C14.828 23.8638 14.8921 23.872 14.9544 23.872C15.0249 23.872 15.0865 23.8609 15.1392 23.8387C15.1926 23.8158 15.2339 23.7815 15.2631 23.7358C15.2929 23.6894 15.3079 23.6313 15.3079 23.5615C15.3079 23.4687 15.2793 23.3973 15.2221 23.3471C15.1656 23.2963 15.076 23.2709 14.9534 23.2709C14.9141 23.2709 14.8709 23.274 14.8239 23.2804C14.7769 23.2867 14.7381 23.2937 14.7076 23.3014L14.6276 23.249L14.6809 22.5954H15.3736V22.7402H14.8162L14.781 23.1603C14.8051 23.1553 14.8362 23.1502 14.8744 23.1451C14.9125 23.1394 14.9557 23.1365 15.0039 23.1365ZM16.6007 23.2899C16.6007 23.403 16.5922 23.504 16.575 23.5929C16.5579 23.6818 16.5309 23.7571 16.494 23.8187C16.4572 23.8803 16.4095 23.9273 16.3511 23.9597C16.2927 23.9915 16.2225 24.0073 16.1406 24.0073C16.037 24.0073 15.9513 23.9791 15.8833 23.9225C15.816 23.866 15.7655 23.7844 15.7318 23.6777C15.6988 23.5703 15.6823 23.4411 15.6823 23.2899C15.6823 23.1413 15.6972 23.0136 15.7271 22.9069C15.7576 22.7996 15.8065 22.7173 15.8738 22.6602C15.9411 22.6024 16.03 22.5735 16.1406 22.5735C16.2454 22.5735 16.3317 22.602 16.3997 22.6592C16.4677 22.7157 16.5182 22.7977 16.5512 22.905C16.5842 23.0117 16.6007 23.14 16.6007 23.2899ZM15.8414 23.2899C15.8414 23.4195 15.8512 23.5275 15.8709 23.6139C15.8906 23.7002 15.9224 23.765 15.9662 23.8082C16.0107 23.8508 16.0688 23.872 16.1406 23.872C16.2123 23.872 16.2701 23.8508 16.314 23.8082C16.3584 23.7657 16.3905 23.7012 16.4102 23.6148C16.4305 23.5284 16.4407 23.4201 16.4407 23.2899C16.4407 23.1623 16.4308 23.0555 16.4111 22.9698C16.3914 22.8834 16.3597 22.8186 16.3159 22.7754C16.272 22.7316 16.2136 22.7097 16.1406 22.7097C16.0675 22.7097 16.0091 22.7316 15.9652 22.7754C15.9214 22.8186 15.8897 22.8834 15.87 22.9698C15.8509 23.0555 15.8414 23.1623 15.8414 23.2899ZM17.7173 23.2899C17.7173 23.403 17.7088 23.504 17.6916 23.5929C17.6745 23.6818 17.6475 23.7571 17.6106 23.8187C17.5738 23.8803 17.5262 23.9273 17.4677 23.9597C17.4093 23.9915 17.3391 24.0073 17.2572 24.0073C17.1536 24.0073 17.0679 23.9791 16.9999 23.9225C16.9326 23.866 16.8821 23.7844 16.8484 23.6777C16.8154 23.5703 16.7989 23.4411 16.7989 23.2899C16.7989 23.1413 16.8138 23.0136 16.8437 22.9069C16.8742 22.7996 16.9231 22.7173 16.9904 22.6602C17.0577 22.6024 17.1467 22.5735 17.2572 22.5735C17.362 22.5735 17.4484 22.602 17.5163 22.6592C17.5843 22.7157 17.6348 22.7977 17.6678 22.905C17.7008 23.0117 17.7173 23.14 17.7173 23.2899ZM16.958 23.2899C16.958 23.4195 16.9679 23.5275 16.9875 23.6139C17.0072 23.7002 17.039 23.765 17.0828 23.8082C17.1273 23.8508 17.1854 23.872 17.2572 23.872C17.3289 23.872 17.3867 23.8508 17.4306 23.8082C17.475 23.7657 17.5071 23.7012 17.5268 23.6148C17.5471 23.5284 17.5573 23.4201 17.5573 23.2899C17.5573 23.1623 17.5474 23.0555 17.5277 22.9698C17.5081 22.8834 17.4763 22.8186 17.4325 22.7754C17.3886 22.7316 17.3302 22.7097 17.2572 22.7097C17.1841 22.7097 17.1257 22.7316 17.0819 22.7754C17.038 22.8186 17.0063 22.8834 16.9866 22.9698C16.9675 23.0555 16.958 23.1623 16.958 23.2899Z" fill="#212121"/>
<path d="M14.3599 31.3789H13.4471V31.2465L13.8197 30.8682C13.8889 30.7984 13.947 30.7361 13.994 30.6815C14.0417 30.6269 14.0779 30.5732 14.1026 30.5205C14.1274 30.4671 14.1398 30.4087 14.1398 30.3452C14.1398 30.2664 14.1163 30.2064 14.0693 30.1651C14.0229 30.1232 13.9616 30.1022 13.8854 30.1022C13.8187 30.1022 13.7596 30.1137 13.7082 30.1365C13.6568 30.1594 13.604 30.1918 13.55 30.2337L13.4652 30.127C13.5021 30.0959 13.5421 30.0682 13.5853 30.0441C13.6291 30.02 13.6758 30.0009 13.7253 29.9869C13.7755 29.973 13.8289 29.966 13.8854 29.966C13.9712 29.966 14.0452 29.9809 14.1074 30.0108C14.1696 30.0406 14.2176 30.0832 14.2513 30.1384C14.2856 30.1937 14.3027 30.2594 14.3027 30.3357C14.3027 30.4093 14.2881 30.4779 14.2589 30.5414C14.2297 30.6043 14.1887 30.6669 14.136 30.7291C14.0833 30.7907 14.0217 30.8562 13.9511 30.9254L13.6482 31.2274V31.2341H14.3599V31.3789ZM15.4841 30.6805C15.4841 30.7936 15.4755 30.8946 15.4584 30.9835C15.4412 31.0724 15.4142 31.1477 15.3774 31.2093C15.3406 31.2709 15.2929 31.3179 15.2345 31.3503C15.1761 31.3821 15.1059 31.398 15.0239 31.398C14.9204 31.398 14.8347 31.3697 14.7667 31.3132C14.6994 31.2566 14.6489 31.175 14.6152 31.0683C14.5822 30.961 14.5657 30.8317 14.5657 30.6805C14.5657 30.5319 14.5806 30.4042 14.6104 30.2975C14.6409 30.1902 14.6898 30.1079 14.7572 30.0508C14.8245 29.993 14.9134 29.9641 15.0239 29.9641C15.1287 29.9641 15.2151 29.9927 15.2831 30.0498C15.351 30.1064 15.4015 30.1883 15.4346 30.2956C15.4676 30.4023 15.4841 30.5306 15.4841 30.6805ZM14.7248 30.6805C14.7248 30.8101 14.7346 30.9181 14.7543 31.0045C14.774 31.0909 14.8058 31.1556 14.8496 31.1988C14.894 31.2414 14.9522 31.2627 15.0239 31.2627C15.0957 31.2627 15.1535 31.2414 15.1973 31.1988C15.2418 31.1563 15.2739 31.0918 15.2936 31.0054C15.3139 30.919 15.3241 30.8108 15.3241 30.6805C15.3241 30.5529 15.3142 30.4462 15.2945 30.3604C15.2748 30.274 15.2431 30.2093 15.1992 30.1661C15.1554 30.1222 15.097 30.1003 15.0239 30.1003C14.9509 30.1003 14.8925 30.1222 14.8486 30.1661C14.8048 30.2093 14.773 30.274 14.7534 30.3604C14.7343 30.4462 14.7248 30.5529 14.7248 30.6805ZM16.6007 30.6805C16.6007 30.7936 16.5922 30.8946 16.575 30.9835C16.5579 31.0724 16.5309 31.1477 16.494 31.2093C16.4572 31.2709 16.4095 31.3179 16.3511 31.3503C16.2927 31.3821 16.2225 31.398 16.1406 31.398C16.037 31.398 15.9513 31.3697 15.8833 31.3132C15.816 31.2566 15.7655 31.175 15.7318 31.0683C15.6988 30.961 15.6823 30.8317 15.6823 30.6805C15.6823 30.5319 15.6972 30.4042 15.7271 30.2975C15.7576 30.1902 15.8065 30.1079 15.8738 30.0508C15.9411 29.993 16.03 29.9641 16.1406 29.9641C16.2454 29.9641 16.3317 29.9927 16.3997 30.0498C16.4677 30.1064 16.5182 30.1883 16.5512 30.2956C16.5842 30.4023 16.6007 30.5306 16.6007 30.6805ZM15.8414 30.6805C15.8414 30.8101 15.8512 30.9181 15.8709 31.0045C15.8906 31.0909 15.9224 31.1556 15.9662 31.1988C16.0107 31.2414 16.0688 31.2627 16.1406 31.2627C16.2123 31.2627 16.2701 31.2414 16.314 31.1988C16.3584 31.1563 16.3905 31.0918 16.4102 31.0054C16.4305 30.919 16.4407 30.8108 16.4407 30.6805C16.4407 30.5529 16.4308 30.4462 16.4111 30.3604C16.3914 30.274 16.3597 30.2093 16.3159 30.1661C16.272 30.1222 16.2136 30.1003 16.1406 30.1003C16.0675 30.1003 16.0091 30.1222 15.9652 30.1661C15.9214 30.2093 15.8897 30.274 15.87 30.3604C15.8509 30.4462 15.8414 30.5529 15.8414 30.6805ZM17.7173 30.6805C17.7173 30.7936 17.7088 30.8946 17.6916 30.9835C17.6745 31.0724 17.6475 31.1477 17.6106 31.2093C17.5738 31.2709 17.5262 31.3179 17.4677 31.3503C17.4093 31.3821 17.3391 31.398 17.2572 31.398C17.1536 31.398 17.0679 31.3697 16.9999 31.3132C16.9326 31.2566 16.8821 31.175 16.8484 31.0683C16.8154 30.961 16.7989 30.8317 16.7989 30.6805C16.7989 30.5319 16.8138 30.4042 16.8437 30.2975C16.8742 30.1902 16.9231 30.1079 16.9904 30.0508C17.0577 29.993 17.1467 29.9641 17.2572 29.9641C17.362 29.9641 17.4484 29.9927 17.5163 30.0498C17.5843 30.1064 17.6348 30.1883 17.6678 30.2956C17.7008 30.4023 17.7173 30.5306 17.7173 30.6805ZM16.958 30.6805C16.958 30.8101 16.9679 30.9181 16.9875 31.0045C17.0072 31.0909 17.039 31.1556 17.0828 31.1988C17.1273 31.2414 17.1854 31.2627 17.2572 31.2627C17.3289 31.2627 17.3867 31.2414 17.4306 31.1988C17.475 31.1563 17.5071 31.0918 17.5268 31.0054C17.5471 30.919 17.5573 30.8108 17.5573 30.6805C17.5573 30.5529 17.5474 30.4462 17.5277 30.3604C17.5081 30.274 17.4763 30.2093 17.4325 30.1661C17.3886 30.1222 17.3302 30.1003 17.2572 30.1003C17.1841 30.1003 17.1257 30.1222 17.0819 30.1661C17.038 30.2093 17.0063 30.274 16.9866 30.3604C16.9675 30.4462 16.958 30.5529 16.958 30.6805Z" fill="#212121"/>
<path d="M14.0359 38.7695H13.8816V37.7825C13.8816 37.745 13.8816 37.7129 13.8816 37.6863C13.8822 37.6589 13.8829 37.6342 13.8835 37.6119C13.8848 37.5891 13.8864 37.5659 13.8883 37.5424C13.8686 37.5627 13.8502 37.5802 13.833 37.5948C13.8159 37.6088 13.7946 37.6262 13.7692 37.6472L13.6101 37.7749L13.5272 37.6672L13.9045 37.3766H14.0359V38.7695ZM15.0039 37.9178C15.0986 37.9178 15.1808 37.934 15.2507 37.9664C15.3206 37.9981 15.3745 38.0445 15.4127 38.1055C15.4514 38.1664 15.4708 38.2404 15.4708 38.3275C15.4708 38.4227 15.4501 38.505 15.4088 38.5742C15.3676 38.6428 15.3082 38.6959 15.2307 38.7333C15.1532 38.7702 15.0605 38.7886 14.9525 38.7886C14.8801 38.7886 14.8127 38.7822 14.7505 38.7695C14.6883 38.7568 14.6359 38.7378 14.5933 38.7124V38.5618C14.6397 38.5898 14.6959 38.612 14.7619 38.6285C14.828 38.645 14.8921 38.6533 14.9544 38.6533C15.0249 38.6533 15.0865 38.6422 15.1392 38.62C15.1926 38.5971 15.2339 38.5628 15.2631 38.5171C15.2929 38.4707 15.3079 38.4126 15.3079 38.3427C15.3079 38.25 15.2793 38.1785 15.2221 38.1283C15.1656 38.0775 15.076 38.0521 14.9534 38.0521C14.9141 38.0521 14.8709 38.0553 14.8239 38.0616C14.7769 38.068 14.7381 38.075 14.7076 38.0826L14.6276 38.0302L14.6809 37.3766H15.3736V37.5214H14.8162L14.781 37.9416C14.8051 37.9365 14.8362 37.9314 14.8744 37.9264C14.9125 37.9206 14.9557 37.9178 15.0039 37.9178ZM16.6007 38.0712C16.6007 38.1842 16.5922 38.2852 16.575 38.3741C16.5579 38.4631 16.5309 38.5383 16.494 38.5999C16.4572 38.6616 16.4095 38.7086 16.3511 38.7409C16.2927 38.7727 16.2225 38.7886 16.1406 38.7886C16.037 38.7886 15.9513 38.7603 15.8833 38.7038C15.816 38.6473 15.7655 38.5656 15.7318 38.4589C15.6988 38.3516 15.6823 38.2223 15.6823 38.0712C15.6823 37.9225 15.6972 37.7949 15.7271 37.6882C15.7576 37.5808 15.8065 37.4986 15.8738 37.4414C15.9411 37.3836 16.03 37.3547 16.1406 37.3547C16.2454 37.3547 16.3317 37.3833 16.3997 37.4405C16.4677 37.497 16.5182 37.5789 16.5512 37.6863C16.5842 37.793 16.6007 37.9213 16.6007 38.0712ZM15.8414 38.0712C15.8414 38.2007 15.8512 38.3087 15.8709 38.3951C15.8906 38.4815 15.9224 38.5463 15.9662 38.5895C16.0107 38.632 16.0688 38.6533 16.1406 38.6533C16.2123 38.6533 16.2701 38.632 16.314 38.5895C16.3584 38.5469 16.3905 38.4824 16.4102 38.3961C16.4305 38.3097 16.4407 38.2014 16.4407 38.0712C16.4407 37.9435 16.4308 37.8368 16.4111 37.751C16.3914 37.6647 16.3597 37.5999 16.3159 37.5567C16.272 37.5129 16.2136 37.4909 16.1406 37.4909C16.0675 37.4909 16.0091 37.5129 15.9652 37.5567C15.9214 37.5999 15.8897 37.6647 15.87 37.751C15.8509 37.8368 15.8414 37.9435 15.8414 38.0712ZM17.7173 38.0712C17.7173 38.1842 17.7088 38.2852 17.6916 38.3741C17.6745 38.4631 17.6475 38.5383 17.6106 38.5999C17.5738 38.6616 17.5262 38.7086 17.4677 38.7409C17.4093 38.7727 17.3391 38.7886 17.2572 38.7886C17.1536 38.7886 17.0679 38.7603 16.9999 38.7038C16.9326 38.6473 16.8821 38.5656 16.8484 38.4589C16.8154 38.3516 16.7989 38.2223 16.7989 38.0712C16.7989 37.9225 16.8138 37.7949 16.8437 37.6882C16.8742 37.5808 16.9231 37.4986 16.9904 37.4414C17.0577 37.3836 17.1467 37.3547 17.2572 37.3547C17.362 37.3547 17.4484 37.3833 17.5163 37.4405C17.5843 37.497 17.6348 37.5789 17.6678 37.6863C17.7008 37.793 17.7173 37.9213 17.7173 38.0712ZM16.958 38.0712C16.958 38.2007 16.9679 38.3087 16.9875 38.3951C17.0072 38.4815 17.039 38.5463 17.0828 38.5895C17.1273 38.632 17.1854 38.6533 17.2572 38.6533C17.3289 38.6533 17.3867 38.632 17.4306 38.5895C17.475 38.5469 17.5071 38.4824 17.5268 38.3961C17.5471 38.3097 17.5573 38.2014 17.5573 38.0712C17.5573 37.9435 17.5474 37.8368 17.5277 37.751C17.5081 37.6647 17.4763 37.5999 17.4325 37.5567C17.3886 37.5129 17.3302 37.4909 17.2572 37.4909C17.1841 37.4909 17.1257 37.5129 17.0819 37.5567C17.038 37.5999 17.0063 37.6647 16.9866 37.751C16.9675 37.8368 16.958 37.9435 16.958 38.0712Z" fill="#212121"/>
<path d="M14.0359 46.1582H13.8816V45.1712C13.8816 45.1337 13.8816 45.1016 13.8816 45.0749C13.8822 45.0476 13.8829 45.0228 13.8835 45.0006C13.8848 44.9778 13.8864 44.9546 13.8883 44.9311C13.8686 44.9514 13.8502 44.9689 13.833 44.9835C13.8159 44.9974 13.7946 45.0149 13.7692 45.0359L13.6101 45.1635L13.5272 45.0559L13.9045 44.7653H14.0359V46.1582ZM15.4841 45.4598C15.4841 45.5729 15.4755 45.6739 15.4584 45.7628C15.4412 45.8517 15.4142 45.927 15.3774 45.9886C15.3406 46.0502 15.2929 46.0972 15.2345 46.1296C15.1761 46.1614 15.1059 46.1773 15.0239 46.1773C14.9204 46.1773 14.8347 46.149 14.7667 46.0925C14.6994 46.0359 14.6489 45.9543 14.6152 45.8476C14.5822 45.7403 14.5657 45.611 14.5657 45.4598C14.5657 45.3112 14.5806 45.1835 14.6104 45.0768C14.6409 44.9695 14.6898 44.8872 14.7572 44.8301C14.8245 44.7723 14.9134 44.7434 15.0239 44.7434C15.1287 44.7434 15.2151 44.772 15.2831 44.8291C15.351 44.8857 15.4015 44.9676 15.4346 45.0749C15.4676 45.1816 15.4841 45.3099 15.4841 45.4598ZM14.7248 45.4598C14.7248 45.5894 14.7346 45.6974 14.7543 45.7838C14.774 45.8702 14.8058 45.9349 14.8496 45.9781C14.894 46.0207 14.9522 46.042 15.0239 46.042C15.0957 46.042 15.1535 46.0207 15.1973 45.9781C15.2418 45.9356 15.2739 45.8711 15.2936 45.7847C15.3139 45.6983 15.3241 45.5901 15.3241 45.4598C15.3241 45.3322 15.3142 45.2255 15.2945 45.1397C15.2748 45.0533 15.2431 44.9886 15.1992 44.9454C15.1554 44.9015 15.097 44.8796 15.0239 44.8796C14.9509 44.8796 14.8925 44.9015 14.8486 44.9454C14.8048 44.9886 14.773 45.0533 14.7534 45.1397C14.7343 45.2255 14.7248 45.3322 14.7248 45.4598ZM16.6007 45.4598C16.6007 45.5729 16.5922 45.6739 16.575 45.7628C16.5579 45.8517 16.5309 45.927 16.494 45.9886C16.4572 46.0502 16.4095 46.0972 16.3511 46.1296C16.2927 46.1614 16.2225 46.1773 16.1406 46.1773C16.037 46.1773 15.9513 46.149 15.8833 46.0925C15.816 46.0359 15.7655 45.9543 15.7318 45.8476C15.6988 45.7403 15.6823 45.611 15.6823 45.4598C15.6823 45.3112 15.6972 45.1835 15.7271 45.0768C15.7576 44.9695 15.8065 44.8872 15.8738 44.8301C15.9411 44.7723 16.03 44.7434 16.1406 44.7434C16.2454 44.7434 16.3317 44.772 16.3997 44.8291C16.4677 44.8857 16.5182 44.9676 16.5512 45.0749C16.5842 45.1816 16.6007 45.3099 16.6007 45.4598ZM15.8414 45.4598C15.8414 45.5894 15.8512 45.6974 15.8709 45.7838C15.8906 45.8702 15.9224 45.9349 15.9662 45.9781C16.0107 46.0207 16.0688 46.042 16.1406 46.042C16.2123 46.042 16.2701 46.0207 16.314 45.9781C16.3584 45.9356 16.3905 45.8711 16.4102 45.7847C16.4305 45.6983 16.4407 45.5901 16.4407 45.4598C16.4407 45.3322 16.4308 45.2255 16.4111 45.1397C16.3914 45.0533 16.3597 44.9886 16.3159 44.9454C16.272 44.9015 16.2136 44.8796 16.1406 44.8796C16.0675 44.8796 16.0091 44.9015 15.9652 44.9454C15.9214 44.9886 15.8897 45.0533 15.87 45.1397C15.8509 45.2255 15.8414 45.3322 15.8414 45.4598ZM17.7173 45.4598C17.7173 45.5729 17.7088 45.6739 17.6916 45.7628C17.6745 45.8517 17.6475 45.927 17.6106 45.9886C17.5738 46.0502 17.5262 46.0972 17.4677 46.1296C17.4093 46.1614 17.3391 46.1773 17.2572 46.1773C17.1536 46.1773 17.0679 46.149 16.9999 46.0925C16.9326 46.0359 16.8821 45.9543 16.8484 45.8476C16.8154 45.7403 16.7989 45.611 16.7989 45.4598C16.7989 45.3112 16.8138 45.1835 16.8437 45.0768C16.8742 44.9695 16.9231 44.8872 16.9904 44.8301C17.0577 44.7723 17.1467 44.7434 17.2572 44.7434C17.362 44.7434 17.4484 44.772 17.5163 44.8291C17.5843 44.8857 17.6348 44.9676 17.6678 45.0749C17.7008 45.1816 17.7173 45.3099 17.7173 45.4598ZM16.958 45.4598C16.958 45.5894 16.9679 45.6974 16.9875 45.7838C17.0072 45.8702 17.039 45.9349 17.0828 45.9781C17.1273 46.0207 17.1854 46.042 17.2572 46.042C17.3289 46.042 17.3867 46.0207 17.4306 45.9781C17.475 45.9356 17.5071 45.8711 17.5268 45.7847C17.5471 45.6983 17.5573 45.5901 17.5573 45.4598C17.5573 45.3322 17.5474 45.2255 17.5277 45.1397C17.5081 45.0533 17.4763 44.9886 17.4325 44.9454C17.3886 44.9015 17.3302 44.8796 17.2572 44.8796C17.1841 44.8796 17.1257 44.9015 17.0819 44.9454C17.038 44.9886 17.0063 45.0533 16.9866 45.1397C16.9675 45.2255 16.958 45.3322 16.958 45.4598Z" fill="#212121"/>
<path d="M15.0035 52.6971C15.0982 52.6971 15.1804 52.7133 15.2503 52.7457C15.3202 52.7774 15.3741 52.8238 15.4123 52.8848C15.451 52.9457 15.4704 53.0197 15.4704 53.1068C15.4704 53.202 15.4497 53.2843 15.4084 53.3535C15.3672 53.4221 15.3078 53.4751 15.2303 53.5126C15.1528 53.5495 15.0601 53.5679 14.9521 53.5679C14.8797 53.5679 14.8123 53.5615 14.7501 53.5488C14.6878 53.5361 14.6354 53.5171 14.5929 53.4917V53.3411C14.6393 53.3691 14.6955 53.3913 14.7615 53.4078C14.8276 53.4243 14.8917 53.4326 14.954 53.4326C15.0245 53.4326 15.0861 53.4215 15.1388 53.3992C15.1922 53.3764 15.2335 53.3421 15.2627 53.2964C15.2925 53.25 15.3075 53.1919 15.3075 53.122C15.3075 53.0293 15.2789 52.9578 15.2217 52.9076C15.1652 52.8568 15.0756 52.8314 14.953 52.8314C14.9136 52.8314 14.8705 52.8346 14.8235 52.8409C14.7765 52.8473 14.7377 52.8543 14.7072 52.8619L14.6272 52.8095L14.6805 52.1559H15.3732V52.3007H14.8158L14.7806 52.7209C14.8047 52.7158 14.8358 52.7107 14.874 52.7056C14.9121 52.6999 14.9553 52.6971 15.0035 52.6971ZM16.6003 52.8505C16.6003 52.9635 16.5917 53.0645 16.5746 53.1534C16.5575 53.2424 16.5305 53.3176 16.4936 53.3792C16.4568 53.4409 16.4091 53.4879 16.3507 53.5202C16.2923 53.552 16.2221 53.5679 16.1401 53.5679C16.0366 53.5679 15.9509 53.5396 15.8829 53.4831C15.8156 53.4266 15.7651 53.3449 15.7314 53.2382C15.6984 53.1309 15.6819 53.0016 15.6819 52.8505C15.6819 52.7018 15.6968 52.5742 15.7267 52.4675C15.7571 52.3601 15.8061 52.2779 15.8734 52.2207C15.9407 52.1629 16.0296 52.134 16.1401 52.134C16.245 52.134 16.3313 52.1626 16.3993 52.2198C16.4673 52.2763 16.5178 52.3582 16.5508 52.4656C16.5838 52.5723 16.6003 52.7006 16.6003 52.8505ZM15.841 52.8505C15.841 52.98 15.8508 53.088 15.8705 53.1744C15.8902 53.2608 15.922 53.3256 15.9658 53.3688C16.0103 53.4113 16.0684 53.4326 16.1401 53.4326C16.2119 53.4326 16.2697 53.4113 16.3135 53.3688C16.358 53.3262 16.3901 53.2617 16.4098 53.1754C16.4301 53.089 16.4403 52.9807 16.4403 52.8505C16.4403 52.7228 16.4304 52.6161 16.4107 52.5303C16.391 52.444 16.3593 52.3792 16.3155 52.336C16.2716 52.2922 16.2132 52.2702 16.1401 52.2702C16.0671 52.2702 16.0087 52.2922 15.9648 52.336C15.921 52.3792 15.8893 52.444 15.8696 52.5303C15.8505 52.6161 15.841 52.7228 15.841 52.8505ZM17.7169 52.8505C17.7169 52.9635 17.7084 53.0645 17.6912 53.1534C17.6741 53.2424 17.6471 53.3176 17.6102 53.3792C17.5734 53.4409 17.5258 53.4879 17.4673 53.5202C17.4089 53.552 17.3387 53.5679 17.2568 53.5679C17.1532 53.5679 17.0675 53.5396 16.9995 53.4831C16.9322 53.4266 16.8817 53.3449 16.848 53.2382C16.815 53.1309 16.7985 53.0016 16.7985 52.8505C16.7985 52.7018 16.8134 52.5742 16.8433 52.4675C16.8738 52.3601 16.9227 52.2779 16.99 52.2207C17.0573 52.1629 17.1462 52.134 17.2568 52.134C17.3616 52.134 17.4479 52.1626 17.5159 52.2198C17.5839 52.2763 17.6344 52.3582 17.6674 52.4656C17.7004 52.5723 17.7169 52.7006 17.7169 52.8505ZM16.9576 52.8505C16.9576 52.98 16.9674 53.088 16.9871 53.1744C17.0068 53.2608 17.0386 53.3256 17.0824 53.3688C17.1269 53.4113 17.185 53.4326 17.2568 53.4326C17.3285 53.4326 17.3863 53.4113 17.4302 53.3688C17.4746 53.3262 17.5067 53.2617 17.5264 53.1754C17.5467 53.089 17.5569 52.9807 17.5569 52.8505C17.5569 52.7228 17.547 52.6161 17.5273 52.5303C17.5077 52.444 17.4759 52.3792 17.4321 52.336C17.3882 52.2922 17.3298 52.2702 17.2568 52.2702C17.1837 52.2702 17.1253 52.2922 17.0815 52.336C17.0376 52.3792 17.0059 52.444 16.9862 52.5303C16.9671 52.6161 16.9576 52.7228 16.9576 52.8505Z" fill="#212121"/>
<path d="M15.1522 60.9395H14.9978V59.9524C14.9978 59.9149 14.9978 59.8829 14.9978 59.8562C14.9984 59.8289 14.9991 59.8041 14.9997 59.7819C15.001 59.759 15.0026 59.7358 15.0045 59.7123C14.9848 59.7326 14.9664 59.7501 14.9492 59.7647C14.9321 59.7787 14.9108 59.7962 14.8854 59.8171L14.7263 59.9448L14.6434 59.8371L15.0207 59.5465H15.1522V60.9395ZM16.6003 60.2411C16.6003 60.3542 16.5917 60.4551 16.5746 60.5441C16.5575 60.633 16.5305 60.7083 16.4936 60.7699C16.4568 60.8315 16.4091 60.8785 16.3507 60.9109C16.2923 60.9426 16.2221 60.9585 16.1401 60.9585C16.0366 60.9585 15.9509 60.9302 15.8829 60.8737C15.8156 60.8172 15.7651 60.7356 15.7314 60.6289C15.6984 60.5215 15.6819 60.3923 15.6819 60.2411C15.6819 60.0925 15.6968 59.9648 15.7267 59.8581C15.7571 59.7507 15.8061 59.6685 15.8734 59.6113C15.9407 59.5535 16.0296 59.5246 16.1401 59.5246C16.245 59.5246 16.3313 59.5532 16.3993 59.6104C16.4673 59.6669 16.5178 59.7488 16.5508 59.8562C16.5838 59.9629 16.6003 60.0912 16.6003 60.2411ZM15.841 60.2411C15.841 60.3707 15.8508 60.4786 15.8705 60.565C15.8902 60.6514 15.922 60.7162 15.9658 60.7594C16.0103 60.8019 16.0684 60.8232 16.1401 60.8232C16.2119 60.8232 16.2697 60.8019 16.3135 60.7594C16.358 60.7168 16.3901 60.6524 16.4098 60.566C16.4301 60.4796 16.4403 60.3713 16.4403 60.2411C16.4403 60.1134 16.4304 60.0067 16.4107 59.921C16.391 59.8346 16.3593 59.7698 16.3155 59.7266C16.2716 59.6828 16.2132 59.6609 16.1401 59.6609C16.0671 59.6609 16.0087 59.6828 15.9648 59.7266C15.921 59.7698 15.8893 59.8346 15.8696 59.921C15.8505 60.0067 15.841 60.1134 15.841 60.2411ZM17.7169 60.2411C17.7169 60.3542 17.7084 60.4551 17.6912 60.5441C17.6741 60.633 17.6471 60.7083 17.6102 60.7699C17.5734 60.8315 17.5258 60.8785 17.4673 60.9109C17.4089 60.9426 17.3387 60.9585 17.2568 60.9585C17.1532 60.9585 17.0675 60.9302 16.9995 60.8737C16.9322 60.8172 16.8817 60.7356 16.848 60.6289C16.815 60.5215 16.7985 60.3923 16.7985 60.2411C16.7985 60.0925 16.8134 59.9648 16.8433 59.8581C16.8738 59.7507 16.9227 59.6685 16.99 59.6113C17.0573 59.5535 17.1462 59.5246 17.2568 59.5246C17.3616 59.5246 17.4479 59.5532 17.5159 59.6104C17.5839 59.6669 17.6344 59.7488 17.6674 59.8562C17.7004 59.9629 17.7169 60.0912 17.7169 60.2411ZM16.9576 60.2411C16.9576 60.3707 16.9674 60.4786 16.9871 60.565C17.0068 60.6514 17.0386 60.7162 17.0824 60.7594C17.1269 60.8019 17.185 60.8232 17.2568 60.8232C17.3285 60.8232 17.3863 60.8019 17.4302 60.7594C17.4746 60.7168 17.5067 60.6524 17.5264 60.566C17.5467 60.4796 17.5569 60.3713 17.5569 60.2411C17.5569 60.1134 17.547 60.0067 17.5273 59.921C17.5077 59.8346 17.4759 59.7698 17.4321 59.7266C17.3882 59.6828 17.3298 59.6609 17.2568 59.6609C17.1837 59.6609 17.1253 59.6828 17.0815 59.7266C17.0376 59.7698 17.0059 59.8346 16.9862 59.921C16.9671 60.0067 16.9576 60.1134 16.9576 60.2411Z" fill="#212121"/>
<path d="M17.7169 67.6317C17.7169 67.7448 17.7084 67.8458 17.6912 67.9347C17.6741 68.0236 17.6471 68.0989 17.6102 68.1605C17.5734 68.2221 17.5258 68.2691 17.4673 68.3015C17.4089 68.3333 17.3387 68.3491 17.2568 68.3491C17.1532 68.3491 17.0675 68.3209 16.9995 68.2643C16.9322 68.2078 16.8817 68.1262 16.848 68.0195C16.815 67.9121 16.7985 67.7829 16.7985 67.6317C16.7985 67.4831 16.8134 67.3554 16.8433 67.2487C16.8738 67.1414 16.9227 67.0591 16.99 67.002C17.0573 66.9442 17.1462 66.9153 17.2568 66.9153C17.3616 66.9153 17.4479 66.9438 17.5159 67.001C17.5839 67.0575 17.6344 67.1395 17.6674 67.2468C17.7004 67.3535 17.7169 67.4818 17.7169 67.6317ZM16.9576 67.6317C16.9576 67.7613 16.9674 67.8693 16.9871 67.9556C17.0068 68.042 17.0386 68.1068 17.0824 68.15C17.1269 68.1926 17.185 68.2138 17.2568 68.2138C17.3285 68.2138 17.3863 68.1926 17.4302 68.15C17.4746 68.1075 17.5067 68.043 17.5264 67.9566C17.5467 67.8702 17.5569 67.7619 17.5569 67.6317C17.5569 67.504 17.547 67.3973 17.5273 67.3116C17.5077 67.2252 17.4759 67.1604 17.4321 67.1172C17.3882 67.0734 17.3298 67.0515 17.2568 67.0515C17.1837 67.0515 17.1253 67.0734 17.0815 67.1172C17.0376 67.1604 17.0059 67.2252 16.9862 67.3116C16.9671 67.3973 16.9576 67.504 16.9576 67.6317Z" fill="#212121"/>
<path d="M29.1416 71.5488H28.9873V70.5618C28.9873 70.5243 28.9873 70.4922 28.9873 70.4656C28.9879 70.4382 28.9886 70.4135 28.9892 70.3912C28.9905 70.3684 28.9921 70.3452 28.994 70.3217C28.9743 70.342 28.9559 70.3595 28.9387 70.3741C28.9216 70.3881 28.9003 70.4055 28.8749 70.4265L28.7158 70.5542L28.6329 70.4465L29.0102 70.1559H29.1416V71.5488Z" fill="#212121"/>
<path d="M21.4244 70.8505C21.4244 70.9635 21.4158 71.0645 21.3987 71.1534C21.3815 71.2424 21.3545 71.3176 21.3177 71.3792C21.2808 71.4409 21.2332 71.4879 21.1748 71.5202C21.1163 71.552 21.0461 71.5679 20.9642 71.5679C20.8607 71.5679 20.7749 71.5396 20.707 71.4831C20.6396 71.4266 20.5891 71.3449 20.5555 71.2382C20.5224 71.1309 20.5059 71.0016 20.5059 70.8505C20.5059 70.7018 20.5209 70.5742 20.5507 70.4675C20.5812 70.3601 20.6301 70.2779 20.6974 70.2207C20.7648 70.1629 20.8537 70.134 20.9642 70.134C21.069 70.134 21.1554 70.1626 21.2233 70.2198C21.2913 70.2763 21.3418 70.3582 21.3748 70.4656C21.4079 70.5723 21.4244 70.7006 21.4244 70.8505ZM20.665 70.8505C20.665 70.98 20.6749 71.088 20.6946 71.1744C20.7143 71.2608 20.746 71.3256 20.7898 71.3688C20.8343 71.4113 20.8924 71.4326 20.9642 71.4326C21.036 71.4326 21.0938 71.4113 21.1376 71.3688C21.1821 71.3262 21.2141 71.2617 21.2338 71.1754C21.2542 71.089 21.2643 70.9807 21.2643 70.8505C21.2643 70.7228 21.2545 70.6161 21.2348 70.5303C21.2151 70.444 21.1833 70.3792 21.1395 70.336C21.0957 70.2922 21.0372 70.2702 20.9642 70.2702C20.8912 70.2702 20.8327 70.2922 20.7889 70.336C20.7451 70.3792 20.7133 70.444 20.6936 70.5303C20.6746 70.6161 20.665 70.7228 20.665 70.8505Z" fill="#212121"/>
<path d="M37.5144 71.5488H36.6017V71.4164L36.9742 71.0382C37.0434 70.9683 37.1016 70.906 37.1486 70.8514C37.1962 70.7968 37.2324 70.7431 37.2572 70.6904C37.2819 70.6371 37.2943 70.5786 37.2943 70.5151C37.2943 70.4363 37.2708 70.3763 37.2238 70.335C37.1775 70.2931 37.1162 70.2722 37.0399 70.2722C36.9733 70.2722 36.9142 70.2836 36.8627 70.3065C36.8113 70.3293 36.7586 70.3617 36.7046 70.4036L36.6198 70.2969C36.6566 70.2658 36.6966 70.2382 36.7398 70.214C36.7837 70.1899 36.8303 70.1708 36.8799 70.1569C36.9301 70.1429 36.9834 70.1359 37.0399 70.1359C37.1257 70.1359 37.1997 70.1508 37.2619 70.1807C37.3242 70.2105 37.3721 70.2531 37.4058 70.3084C37.4401 70.3636 37.4572 70.4294 37.4572 70.5056C37.4572 70.5793 37.4426 70.6478 37.4134 70.7114C37.3842 70.7742 37.3432 70.8368 37.2905 70.8991C37.2378 70.9607 37.1762 71.0261 37.1057 71.0953L36.8027 71.3973V71.404H37.5144V71.5488Z" fill="#212121"/>
<path d="M45.7559 70.4808C45.7559 70.543 45.7439 70.597 45.7197 70.6428C45.6956 70.6885 45.6619 70.726 45.6187 70.7552C45.5755 70.7838 45.5247 70.8038 45.4663 70.8152V70.8228C45.5768 70.8368 45.6597 70.8724 45.715 70.9295C45.7709 70.9867 45.7988 71.0617 45.7988 71.1544C45.7988 71.2351 45.7797 71.3065 45.7416 71.3688C45.7042 71.431 45.6464 71.4799 45.5682 71.5155C45.4908 71.5504 45.3913 71.5679 45.27 71.5679C45.1964 71.5679 45.1281 71.5618 45.0652 71.5498C45.0029 71.5383 44.9432 71.519 44.8861 71.4917V71.343C44.9439 71.3716 45.0068 71.3942 45.0747 71.4107C45.1427 71.4266 45.2084 71.4345 45.2719 71.4345C45.399 71.4345 45.4908 71.4094 45.5473 71.3592C45.6038 71.3084 45.6321 71.2392 45.6321 71.1515C45.6321 71.0912 45.6162 71.0426 45.5844 71.0058C45.5533 70.9683 45.5082 70.941 45.4491 70.9238C45.3907 70.906 45.3202 70.8972 45.2376 70.8972H45.0985V70.7619H45.2386C45.3142 70.7619 45.3783 70.7507 45.431 70.7285C45.4838 70.7063 45.5238 70.6752 45.5511 70.6351C45.579 70.5945 45.593 70.5465 45.593 70.4913C45.593 70.4208 45.5695 70.3665 45.5225 70.3284C45.4755 70.2896 45.4117 70.2702 45.331 70.2702C45.2815 70.2702 45.2364 70.2753 45.1957 70.2855C45.1551 70.2957 45.117 70.3096 45.0814 70.3274C45.0458 70.3452 45.0102 70.3658 44.9747 70.3893L44.8947 70.2807C44.9455 70.2413 45.0074 70.2074 45.0804 70.1788C45.1535 70.1502 45.2364 70.1359 45.3291 70.1359C45.4714 70.1359 45.5781 70.1683 45.6492 70.2331C45.7204 70.2979 45.7559 70.3804 45.7559 70.4808Z" fill="#212121"/>
<path d="M53.9258 71.2258H53.7171V71.5488H53.5628V71.2258H52.8892V71.0925L53.5523 70.1483H53.7171V71.0829H53.9258V71.2258ZM53.5628 71.0829V70.6275C53.5628 70.5926 53.5631 70.5612 53.5637 70.5332C53.5643 70.5046 53.5653 70.4783 53.5666 70.4541C53.5678 70.4294 53.5688 70.4059 53.5694 70.3836C53.5707 70.3614 53.5717 70.3395 53.5723 70.3179H53.5647C53.5526 70.3433 53.5386 70.3703 53.5227 70.3989C53.5075 70.4268 53.4919 70.4519 53.4761 70.4741L53.0464 71.0829H53.5628Z" fill="#212121"/>
<path d="M61.4315 70.6971C61.5261 70.6971 61.6084 70.7133 61.6783 70.7457C61.7481 70.7774 61.8021 70.8238 61.8402 70.8848C61.879 70.9457 61.8983 71.0197 61.8983 71.1068C61.8983 71.202 61.8777 71.2843 61.8364 71.3535C61.7951 71.4221 61.7357 71.4751 61.6583 71.5126C61.5808 71.5495 61.488 71.5679 61.38 71.5679C61.3076 71.5679 61.2403 71.5615 61.1781 71.5488C61.1158 71.5361 61.0634 71.5171 61.0209 71.4917V71.3411C61.0672 71.3691 61.1234 71.3913 61.1895 71.4078C61.2556 71.4243 61.3197 71.4326 61.382 71.4326C61.4525 71.4326 61.5141 71.4215 61.5668 71.3992C61.6201 71.3764 61.6614 71.3421 61.6906 71.2964C61.7205 71.25 61.7354 71.1919 61.7354 71.122C61.7354 71.0293 61.7068 70.9578 61.6497 70.9076C61.5931 70.8568 61.5036 70.8314 61.381 70.8314C61.3416 70.8314 61.2984 70.8346 61.2514 70.8409C61.2044 70.8473 61.1657 70.8543 61.1352 70.8619L61.0552 70.8095L61.1085 70.1559H61.8012V70.3007H61.2438L61.2086 70.7209C61.2327 70.7158 61.2638 70.7107 61.3019 70.7056C61.34 70.6999 61.3832 70.6971 61.4315 70.6971Z" fill="#212121"/>
<path d="M69.0544 70.9534C69.0544 70.8695 69.0602 70.7876 69.0716 70.7076C69.0837 70.6275 69.1037 70.5532 69.1316 70.4846C69.1596 70.4154 69.1977 70.3547 69.246 70.3026C69.2942 70.2506 69.3542 70.2099 69.426 70.1807C69.4984 70.1508 69.5851 70.1359 69.6861 70.1359C69.7147 70.1359 69.7455 70.1375 69.7785 70.1407C69.8116 70.1432 69.8389 70.1477 69.8605 70.154V70.2903C69.837 70.282 69.81 70.276 69.7795 70.2722C69.7496 70.2683 69.7195 70.2664 69.689 70.2664C69.5708 70.2664 69.4778 70.2922 69.4098 70.3436C69.3425 70.3951 69.2939 70.4649 69.2641 70.5532C69.2342 70.6409 69.2171 70.7396 69.2126 70.8495H69.2231C69.2428 70.8178 69.2679 70.7892 69.2984 70.7638C69.3288 70.7377 69.3657 70.7171 69.4089 70.7018C69.4527 70.6866 69.5035 70.679 69.5613 70.679C69.6426 70.679 69.7134 70.6955 69.7738 70.7285C69.8347 70.7615 69.8817 70.8095 69.9148 70.8724C69.9484 70.9353 69.9653 71.0115 69.9653 71.101C69.9653 71.1969 69.9475 71.2798 69.9119 71.3497C69.8763 71.4196 69.8255 71.4736 69.7595 71.5117C69.6941 71.5491 69.6159 71.5679 69.5251 71.5679C69.4571 71.5679 69.3946 71.5549 69.3374 71.5288C69.2802 71.5028 69.2304 71.464 69.1878 71.4126C69.1459 71.3611 69.1132 71.2973 69.0897 71.2211C69.0662 71.1442 69.0544 71.055 69.0544 70.9534ZM69.5232 71.4345C69.6096 71.4345 69.6788 71.4069 69.7309 71.3516C69.783 71.2964 69.809 71.2128 69.809 71.101C69.809 71.0096 69.7858 70.9372 69.7395 70.8838C69.6931 70.8305 69.6232 70.8038 69.5299 70.8038C69.4664 70.8038 69.4111 70.8171 69.3641 70.8438C69.3171 70.8698 69.2806 70.9029 69.2545 70.9429C69.2285 70.9829 69.2155 71.0235 69.2155 71.0648C69.2155 71.1068 69.2215 71.1493 69.2336 71.1925C69.2463 71.2357 69.2653 71.2757 69.2907 71.3125C69.3161 71.3494 69.3482 71.3789 69.387 71.4012C69.4257 71.4234 69.4711 71.4345 69.5232 71.4345Z" fill="#212121"/>
<path d="M77.0259 71.5488L77.5975 70.3007H76.8382V70.1559H77.7671V70.2779L77.1993 71.5488H77.0259Z" fill="#212121"/>
<path d="M20.1339 69.0615C20.1339 69.1288 20.1885 69.1834 20.2559 69.1834C20.3232 69.1834 20.3778 69.1288 20.3778 69.0615H20.1339ZM20.2559 21.9883H20.1339V69.0615H20.2559H20.3778V21.9883H20.2559Z" fill="#D4D4D4"/>
<path d="M20.2559 69.0605H76.5973" stroke="#D4D4D4" stroke-width="0.243902"/>
<path opacity="0.8" d="M20.1758 65.3603C20.1758 65.3603 20.6414 35.0943 27.3349 33.1735C34.0283 31.2528 37.4012 42.6405 45.2035 46.5022C51.4588 49.5983 51.8388 51.2168 62.1991 52.0316C72.5594 52.8465 76.4756 61.9871 76.4756 61.9871" stroke="#FFF952" stroke-width="0.349224"/>
<path opacity="0.8" d="M20.2559 65.4018C20.2559 65.4018 32.451 62.3533 36.2315 54.6701C40.012 46.987 37.451 34.9138 46.1095 34.5481C57.5627 34.0644 49.5242 53.2067 60.6217 55.158C71.7193 57.1092 76.7193 65.7677 76.7193 65.7677" stroke="#861DFF" stroke-width="0.349224"/>
<circle cx="20.2342" cy="65.4188" r="0.465632" fill="#5F00CB"/>
<circle cx="28.283" cy="32.9422" r="0.465632" fill="#D2CB00"/>
<circle cx="36.3318" cy="38.3074" r="0.465632" fill="#D2CB00"/>
<circle cx="44.3807" cy="46.1121" r="0.465632" fill="#D2CB00"/>
<circle cx="52.4295" cy="50.2586" r="0.465632" fill="#D2CB00"/>
<circle cx="60.4774" cy="51.9656" r="0.465632" fill="#D2CB00"/>
<circle cx="68.5262" cy="53.6727" r="0.465632" fill="#D2CB00"/>
<circle cx="76.575" cy="61.9656" r="0.465632" fill="#D2CB00"/>
<path opacity="0.8" d="M20.1758 67.6893C20.1758 67.6893 23.9008 50.752 30.5943 48.8312C37.2878 46.9105 45.1608 51.2486 50.9657 57.7364C54.9236 62.1599 55.8548 66.8745 66.2151 67.6893C76.5755 68.5042 76.5975 66.1346 76.5975 66.1346" stroke="#99F7FF" stroke-width="0.349224"/>
<path opacity="0.8" d="M20.2559 67.5867C20.2559 67.5867 23.1827 47.8405 31.4754 42.8407C39.7681 37.8408 45.2053 43.0993 51.002 52.7625C54.9542 59.351 55.8841 66.373 66.2297 67.5867C76.5753 68.8003 76.5973 65.271 76.5973 65.271" stroke="#A1C327" stroke-width="0.349224"/>
<path opacity="0.8" d="M20.2559 64.8346C20.2559 64.8346 23.9756 32.6117 30.6596 28.9576C37.3435 25.3035 45.2053 33.5567 51.002 45.8995C54.9542 54.3151 55.8841 63.2844 66.2297 64.8346C76.5753 66.3849 76.5973 61.8768 76.5973 61.8768" stroke="#A7A7A7" stroke-width="0.349224"/>
<path opacity="0.8" d="M20.2559 67.6027C20.2559 67.6027 29.2802 68.9398 33.4266 52.1102C37.5729 35.2806 55.6217 35.2808 60.1339 48.8174C62.4593 55.7934 62.9388 57.1099 65.9876 60.4025C69.0363 63.6952 76.5973 65.4232 76.5973 65.4232" stroke="#68BBFF" stroke-width="0.349224"/>
<g filter="url(#filter0_d_7650_40935)">
<rect x="23.915" y="28.0859" width="8.29268" height="3.65854" rx="1.82927" fill="white"/>
</g>
<path d="M26.6529 30.5723H25.7097V30.4036L26.0708 30.0378C26.1407 29.9666 26.1982 29.9053 26.2433 29.8539C26.2884 29.8018 26.3217 29.7526 26.3433 29.7062C26.3655 29.6599 26.3766 29.6094 26.3766 29.5547C26.3766 29.4874 26.3573 29.4366 26.3185 29.4023C26.2798 29.3674 26.2287 29.3499 26.1651 29.3499C26.1048 29.3499 26.0489 29.362 25.9975 29.3861C25.9466 29.4096 25.8939 29.4433 25.8393 29.4871L25.7164 29.3394C25.7551 29.3064 25.7964 29.2762 25.8402 29.2489C25.8847 29.2216 25.9343 29.2 25.9889 29.1841C26.0435 29.1676 26.1057 29.1593 26.1756 29.1593C26.2639 29.1593 26.3401 29.1752 26.4043 29.207C26.4684 29.2381 26.5176 29.2816 26.5519 29.3375C26.5869 29.3934 26.6043 29.4585 26.6043 29.5328C26.6043 29.6078 26.5894 29.677 26.5596 29.7405C26.5297 29.804 26.4872 29.8669 26.4319 29.9292C26.3766 29.9908 26.3109 30.0578 26.2347 30.1302L25.9936 30.3655V30.376H26.6529V30.5723ZM27.7696 29.8749C27.7696 29.9873 27.7607 30.088 27.7429 30.1769C27.7257 30.2652 27.6984 30.3401 27.6609 30.4017C27.6235 30.4633 27.5746 30.5103 27.5142 30.5427C27.4539 30.5751 27.3808 30.5913 27.2951 30.5913C27.1877 30.5913 27.0991 30.5631 27.0293 30.5065C26.9594 30.4494 26.9076 30.3674 26.874 30.2607C26.8403 30.1534 26.8235 30.0248 26.8235 29.8749C26.8235 29.725 26.8387 29.5967 26.8692 29.4899C26.9003 29.3826 26.9505 29.3004 27.0197 29.2432C27.089 29.186 27.1808 29.1574 27.2951 29.1574C27.4031 29.1574 27.492 29.186 27.5619 29.2432C27.6324 29.2997 27.6844 29.3817 27.7181 29.489C27.7524 29.5957 27.7696 29.7243 27.7696 29.8749ZM27.0493 29.8749C27.0493 29.9924 27.0569 30.0905 27.0721 30.1693C27.088 30.248 27.1141 30.3071 27.1503 30.3465C27.1865 30.3852 27.2347 30.4046 27.2951 30.4046C27.3554 30.4046 27.4037 30.3852 27.4399 30.3465C27.4761 30.3077 27.5022 30.249 27.518 30.1702C27.5345 30.0914 27.5428 29.993 27.5428 29.8749C27.5428 29.758 27.5349 29.6602 27.519 29.5814C27.5031 29.5027 27.4771 29.4436 27.4409 29.4042C27.4047 29.3642 27.3561 29.3442 27.2951 29.3442C27.2341 29.3442 27.1855 29.3642 27.1493 29.4042C27.1137 29.4436 27.088 29.5027 27.0721 29.5814C27.0569 29.6602 27.0493 29.758 27.0493 29.8749ZM28.8862 29.8749C28.8862 29.9873 28.8773 30.088 28.8595 30.1769C28.8423 30.2652 28.815 30.3401 28.7776 30.4017C28.7401 30.4633 28.6912 30.5103 28.6308 30.5427C28.5705 30.5751 28.4975 30.5913 28.4117 30.5913C28.3044 30.5913 28.2158 30.5631 28.1459 30.5065C28.076 30.4494 28.0243 30.3674 27.9906 30.2607C27.9569 30.1534 27.9401 30.0248 27.9401 29.8749C27.9401 29.725 27.9553 29.5967 27.9858 29.4899C28.017 29.3826 28.0671 29.3004 28.1364 29.2432C28.2056 29.186 28.2974 29.1574 28.4117 29.1574C28.5197 29.1574 28.6086 29.186 28.6785 29.2432C28.749 29.2997 28.8011 29.3817 28.8347 29.489C28.869 29.5957 28.8862 29.7243 28.8862 29.8749ZM28.1659 29.8749C28.1659 29.9924 28.1735 30.0905 28.1888 30.1693C28.2046 30.248 28.2307 30.3071 28.2669 30.3465C28.3031 30.3852 28.3514 30.4046 28.4117 30.4046C28.472 30.4046 28.5203 30.3852 28.5565 30.3465C28.5927 30.3077 28.6188 30.249 28.6346 30.1702C28.6512 30.0914 28.6594 29.993 28.6594 29.8749C28.6594 29.758 28.6515 29.6602 28.6356 29.5814C28.6197 29.5027 28.5937 29.4436 28.5575 29.4042C28.5213 29.3642 28.4727 29.3442 28.4117 29.3442C28.3507 29.3442 28.3021 29.3642 28.2659 29.4042C28.2304 29.4436 28.2046 29.5027 28.1888 29.5814C28.1735 29.6602 28.1659 29.758 28.1659 29.8749ZM30.0028 29.8749C30.0028 29.9873 29.9939 30.088 29.9761 30.1769C29.959 30.2652 29.9316 30.3401 29.8942 30.4017C29.8567 30.4633 29.8078 30.5103 29.7475 30.5427C29.6871 30.5751 29.6141 30.5913 29.5283 30.5913C29.421 30.5913 29.3324 30.5631 29.2625 30.5065C29.1926 30.4494 29.1409 30.3674 29.1072 30.2607C29.0735 30.1534 29.0567 30.0248 29.0567 29.8749C29.0567 29.725 29.072 29.5967 29.1024 29.4899C29.1336 29.3826 29.1837 29.3004 29.253 29.2432C29.3222 29.186 29.414 29.1574 29.5283 29.1574C29.6363 29.1574 29.7252 29.186 29.7951 29.2432C29.8656 29.2997 29.9177 29.3817 29.9513 29.489C29.9856 29.5957 30.0028 29.7243 30.0028 29.8749ZM29.2825 29.8749C29.2825 29.9924 29.2901 30.0905 29.3054 30.1693C29.3213 30.248 29.3473 30.3071 29.3835 30.3465C29.4197 30.3852 29.468 30.4046 29.5283 30.4046C29.5887 30.4046 29.6369 30.3852 29.6731 30.3465C29.7093 30.3077 29.7354 30.249 29.7513 30.1702C29.7678 30.0914 29.776 29.993 29.776 29.8749C29.776 29.758 29.7681 29.6602 29.7522 29.5814C29.7363 29.5027 29.7103 29.4436 29.6741 29.4042C29.6379 29.3642 29.5893 29.3442 29.5283 29.3442C29.4673 29.3442 29.4188 29.3642 29.3826 29.4042C29.347 29.4436 29.3213 29.5027 29.3054 29.5814C29.2901 29.6602 29.2825 29.758 29.2825 29.8749Z" fill="#444444"/>
<g filter="url(#filter1_d_7650_40935)">
<rect x="49.5244" y="54.9141" width="5.85366" height="3.65854" rx="1.82927" fill="white"/>
</g>
<path d="M51.775 57.4023H50.8318V57.2337L51.1929 56.8679C51.2628 56.7967 51.3202 56.7354 51.3653 56.684C51.4104 56.6319 51.4438 56.5827 51.4654 56.5363C51.4876 56.4899 51.4987 56.4394 51.4987 56.3848C51.4987 56.3175 51.4793 56.2667 51.4406 56.2324C51.4019 56.1974 51.3507 56.18 51.2872 56.18C51.2269 56.18 51.171 56.192 51.1195 56.2162C51.0687 56.2397 51.016 56.2733 50.9614 56.3172L50.8385 56.1695C50.8772 56.1365 50.9185 56.1063 50.9623 56.079C51.0068 56.0517 51.0563 56.0301 51.1109 56.0142C51.1656 55.9977 51.2278 55.9894 51.2977 55.9894C51.386 55.9894 51.4622 56.0053 51.5263 56.0371C51.5905 56.0682 51.6397 56.1117 51.674 56.1676C51.709 56.2235 51.7264 56.2886 51.7264 56.3629C51.7264 56.4378 51.7115 56.5071 51.6816 56.5706C51.6518 56.6341 51.6092 56.697 51.554 56.7592C51.4987 56.8209 51.433 56.8879 51.3568 56.9603L51.1157 57.1956V57.2061H51.775V57.4023ZM52.8916 56.7049C52.8916 56.8174 52.8827 56.918 52.8649 57.007C52.8478 57.0952 52.8205 57.1702 52.783 57.2318C52.7455 57.2934 52.6966 57.3404 52.6363 57.3728C52.5759 57.4052 52.5029 57.4214 52.4172 57.4214C52.3098 57.4214 52.2212 57.3931 52.1513 57.3366C52.0815 57.2794 52.0297 57.1975 51.996 57.0908C51.9624 56.9835 51.9456 56.8548 51.9456 56.7049C51.9456 56.555 51.9608 56.4267 51.9913 56.32C52.0224 56.2127 52.0726 56.1304 52.1418 56.0733C52.211 56.0161 52.3028 55.9875 52.4172 55.9875C52.5251 55.9875 52.6141 56.0161 52.6839 56.0733C52.7544 56.1298 52.8065 56.2117 52.8402 56.3191C52.8745 56.4258 52.8916 56.5544 52.8916 56.7049ZM52.1714 56.7049C52.1714 56.8224 52.179 56.9206 52.1942 56.9993C52.2101 57.0781 52.2361 57.1372 52.2723 57.1765C52.3085 57.2153 52.3568 57.2347 52.4172 57.2347C52.4775 57.2347 52.5258 57.2153 52.562 57.1765C52.5982 57.1378 52.6242 57.079 52.6401 57.0003C52.6566 56.9215 52.6649 56.8231 52.6649 56.7049C52.6649 56.5881 52.6569 56.4903 52.6411 56.4115C52.6252 56.3327 52.5991 56.2737 52.5629 56.2343C52.5267 56.1943 52.4781 56.1743 52.4172 56.1743C52.3562 56.1743 52.3076 56.1943 52.2714 56.2343C52.2358 56.2737 52.2101 56.3327 52.1942 56.4115C52.179 56.4903 52.1714 56.5881 52.1714 56.7049ZM54.0082 56.7049C54.0082 56.8174 53.9993 56.918 53.9816 57.007C53.9644 57.0952 53.9371 57.1702 53.8996 57.2318C53.8622 57.2934 53.8132 57.3404 53.7529 57.3728C53.6926 57.4052 53.6195 57.4214 53.5338 57.4214C53.4264 57.4214 53.3378 57.3931 53.268 57.3366C53.1981 57.2794 53.1463 57.1975 53.1127 57.0908C53.079 56.9835 53.0622 56.8548 53.0622 56.7049C53.0622 56.555 53.0774 56.4267 53.1079 56.32C53.139 56.2127 53.1892 56.1304 53.2584 56.0733C53.3277 56.0161 53.4194 55.9875 53.5338 55.9875C53.6418 55.9875 53.7307 56.0161 53.8005 56.0733C53.871 56.1298 53.9231 56.2117 53.9568 56.3191C53.9911 56.4258 54.0082 56.5544 54.0082 56.7049ZM53.288 56.7049C53.288 56.8224 53.2956 56.9206 53.3108 56.9993C53.3267 57.0781 53.3528 57.1372 53.389 57.1765C53.4252 57.2153 53.4734 57.2347 53.5338 57.2347C53.5941 57.2347 53.6424 57.2153 53.6786 57.1765C53.7148 57.1378 53.7408 57.079 53.7567 57.0003C53.7732 56.9215 53.7815 56.8231 53.7815 56.7049C53.7815 56.5881 53.7735 56.4903 53.7577 56.4115C53.7418 56.3327 53.7157 56.2737 53.6795 56.2343C53.6433 56.1943 53.5948 56.1743 53.5338 56.1743C53.4728 56.1743 53.4242 56.1943 53.388 56.2343C53.3524 56.2737 53.3267 56.3327 53.3108 56.4115C53.2956 56.4903 53.288 56.5881 53.288 56.7049Z" fill="#444444"/>
<g filter="url(#filter2_d_7650_40935)">
<rect x="49.0361" y="34.1836" width="6.34146" height="3.65854" rx="1.82927" fill="white"/>
</g>
<path d="M50.5146 36.6699H50.2897V35.7734C50.2897 35.7435 50.29 35.7137 50.2907 35.6838C50.2913 35.654 50.2919 35.6248 50.2926 35.5962C50.2938 35.5676 50.2954 35.5403 50.2973 35.5142C50.284 35.5289 50.2675 35.5447 50.2478 35.5619C50.2287 35.579 50.2084 35.5968 50.1868 35.6152L50.0267 35.7429L49.9143 35.6009L50.3278 35.277H50.5146V36.6699ZM51.4463 35.7991C51.5359 35.7991 51.6147 35.8153 51.6826 35.8477C51.7512 35.8795 51.8046 35.9265 51.8427 35.9887C51.8808 36.0503 51.8998 36.1259 51.8998 36.2155C51.8998 36.3133 51.8792 36.3978 51.8379 36.4689C51.7966 36.5394 51.736 36.5937 51.6559 36.6318C51.5759 36.6699 51.4784 36.689 51.3634 36.689C51.2904 36.689 51.2221 36.6826 51.1586 36.6699C51.0957 36.6572 51.0414 36.6382 50.9957 36.6128V36.4108C51.0433 36.4375 51.1005 36.4594 51.1672 36.4765C51.2339 36.493 51.2977 36.5013 51.3587 36.5013C51.4235 36.5013 51.479 36.4918 51.5254 36.4727C51.5718 36.4536 51.6074 36.4244 51.6321 36.3851C51.6575 36.3457 51.6702 36.2958 51.6702 36.2355C51.6702 36.1554 51.6445 36.0938 51.5931 36.0506C51.5422 36.0068 51.4625 35.9849 51.3539 35.9849C51.3158 35.9849 51.2752 35.9884 51.232 35.9954C51.1894 36.0017 51.1538 36.0087 51.1253 36.0163L51.0271 35.9582L51.0795 35.277H51.8036V35.4742H51.2767L51.2463 35.821C51.2691 35.8159 51.2964 35.8112 51.3282 35.8067C51.36 35.8017 51.3993 35.7991 51.4463 35.7991ZM53.0327 35.9725C53.0327 36.0849 53.0238 36.1856 53.006 36.2745C52.9888 36.3628 52.9615 36.4378 52.924 36.4994C52.8866 36.561 52.8377 36.608 52.7773 36.6404C52.717 36.6728 52.6439 36.689 52.5582 36.689C52.4508 36.689 52.3622 36.6607 52.2924 36.6042C52.2225 36.547 52.1707 36.4651 52.1371 36.3584C52.1034 36.251 52.0866 36.1224 52.0866 35.9725C52.0866 35.8226 52.1018 35.6943 52.1323 35.5876C52.1634 35.4803 52.2136 35.398 52.2828 35.3408C52.3521 35.2837 52.4439 35.2551 52.5582 35.2551C52.6662 35.2551 52.7551 35.2837 52.825 35.3408C52.8955 35.3974 52.9475 35.4793 52.9812 35.5867C53.0155 35.6934 53.0327 35.822 53.0327 35.9725ZM52.3124 35.9725C52.3124 36.09 52.32 36.1882 52.3352 36.2669C52.3511 36.3457 52.3772 36.4047 52.4134 36.4441C52.4496 36.4829 52.4978 36.5022 52.5582 36.5022C52.6185 36.5022 52.6668 36.4829 52.703 36.4441C52.7392 36.4054 52.7653 36.3466 52.7811 36.2679C52.7976 36.1891 52.8059 36.0907 52.8059 35.9725C52.8059 35.8556 52.798 35.7578 52.7821 35.6791C52.7662 35.6003 52.7402 35.5412 52.704 35.5019C52.6678 35.4618 52.6192 35.4418 52.5582 35.4418C52.4972 35.4418 52.4486 35.4618 52.4124 35.5019C52.3768 35.5412 52.3511 35.6003 52.3352 35.6791C52.32 35.7578 52.3124 35.8556 52.3124 35.9725ZM54.1493 35.9725C54.1493 36.0849 54.1404 36.1856 54.1226 36.2745C54.1054 36.3628 54.0781 36.4378 54.0407 36.4994C54.0032 36.561 53.9543 36.608 53.8939 36.6404C53.8336 36.6728 53.7606 36.689 53.6748 36.689C53.5675 36.689 53.4789 36.6607 53.409 36.6042C53.3391 36.547 53.2874 36.4651 53.2537 36.3584C53.22 36.251 53.2032 36.1224 53.2032 35.9725C53.2032 35.8226 53.2184 35.6943 53.2489 35.5876C53.2801 35.4803 53.3302 35.398 53.3995 35.3408C53.4687 35.2837 53.5605 35.2551 53.6748 35.2551C53.7828 35.2551 53.8717 35.2837 53.9416 35.3408C54.0121 35.3974 54.0642 35.4793 54.0978 35.5867C54.1321 35.6934 54.1493 35.822 54.1493 35.9725ZM53.429 35.9725C53.429 36.09 53.4366 36.1882 53.4519 36.2669C53.4677 36.3457 53.4938 36.4047 53.53 36.4441C53.5662 36.4829 53.6145 36.5022 53.6748 36.5022C53.7351 36.5022 53.7834 36.4829 53.8196 36.4441C53.8558 36.4054 53.8819 36.3466 53.8977 36.2679C53.9143 36.1891 53.9225 36.0907 53.9225 35.9725C53.9225 35.8556 53.9146 35.7578 53.8987 35.6791C53.8828 35.6003 53.8568 35.5412 53.8206 35.5019C53.7844 35.4618 53.7358 35.4418 53.6748 35.4418C53.6138 35.4418 53.5652 35.4618 53.529 35.5019C53.4935 35.5412 53.4677 35.6003 53.4519 35.6791C53.4366 35.7578 53.429 35.8556 53.429 35.9725Z" fill="#444444"/>
<circle cx="20.2342" cy="67.7469" r="0.465632" fill="#4491D1"/>
<circle cx="28.283" cy="50.2586" r="0.465632" fill="#41C2CE"/>
<circle cx="36.3318" cy="40.9891" r="0.465632" fill="#8AA32F"/>
<circle cx="60.4774" cy="65.868" r="0.465632" fill="#8AA32F"/>
<circle cx="28.283" cy="45.868" r="0.465632" fill="#8AA32F"/>
<circle cx="36.3318" cy="28.5516" r="0.465632" fill="#8B8B8B"/>
<circle cx="52.4295" cy="48.7957" r="0.465632" fill="#8B8B8B"/>
<circle cx="60.4774" cy="62.6981" r="0.465632" fill="#8B8B8B"/>
<circle cx="68.5262" cy="65.1356" r="0.465632" fill="#8B8B8B"/>
<circle cx="76.575" cy="61.9656" r="0.465632" fill="#8B8B8B"/>
<circle cx="28.283" cy="63.4285" r="0.465632" fill="#4491D1"/>
<circle cx="28.283" cy="61.9656" r="0.465632" fill="#5F00CB"/>
<circle cx="36.3318" cy="54.4051" r="0.465632" fill="#5F00CB"/>
<circle cx="44.3807" cy="34.6492" r="0.465632" fill="#5F00CB"/>
<circle cx="52.4295" cy="38.7957" r="0.465632" fill="#5F00CB"/>
<circle cx="60.4774" cy="55.1356" r="0.465632" fill="#5F00CB"/>
<circle cx="68.5262" cy="58.0633" r="0.465632" fill="#5F00CB"/>
<circle cx="36.3318" cy="48.5516" r="0.465632" fill="#41C2CE"/>
<circle cx="36.3318" cy="45.3797" r="0.465632" fill="#4491D1"/>
<circle cx="44.3807" cy="51.9656" r="0.465632" fill="#41C2CE"/>
<circle cx="52.4295" cy="59.5262" r="0.465632" fill="#41C2CE"/>
<circle cx="60.4774" cy="66.6004" r="0.465632" fill="#41C2CE"/>
<circle cx="68.5262" cy="67.8191" r="0.465632" fill="#41C2CE"/>
<circle cx="76.575" cy="66.1121" r="0.465632" fill="#41C2CE"/>
<g filter="url(#filter3_d_7650_40935)">
<rect x="25.3779" y="58.5723" width="5.85366" height="3.65854" rx="1.82927" fill="white"/>
</g>
<path d="M27.6423 59.6486C27.723 59.6486 27.7957 59.6613 27.8605 59.6867C27.9253 59.7115 27.9767 59.7486 28.0148 59.7982C28.0529 59.8477 28.072 59.909 28.072 59.982C28.072 60.0386 28.0603 60.0878 28.0368 60.1297C28.0139 60.1716 27.9828 60.2085 27.9434 60.2402C27.904 60.2714 27.8599 60.299 27.811 60.3231C27.8656 60.3498 27.9158 60.3806 27.9615 60.4155C28.0079 60.4498 28.045 60.4902 28.073 60.5365C28.1015 60.5829 28.1158 60.6372 28.1158 60.6995C28.1158 60.7776 28.0958 60.8452 28.0558 60.9024C28.0164 60.9589 27.9615 61.0027 27.891 61.0339C27.8205 61.0644 27.7382 61.0796 27.6442 61.0796C27.5432 61.0796 27.4572 61.0647 27.386 61.0348C27.3149 61.005 27.2609 60.9624 27.2241 60.9072C27.1872 60.8513 27.1688 60.7846 27.1688 60.7071C27.1688 60.6429 27.1815 60.5874 27.2069 60.5403C27.2323 60.4933 27.2663 60.4527 27.3089 60.4184C27.352 60.3841 27.3994 60.3552 27.4508 60.3317C27.407 60.3057 27.367 60.2764 27.3308 60.244C27.2946 60.211 27.2657 60.1732 27.2441 60.1307C27.2231 60.0875 27.2126 60.0376 27.2126 59.9811C27.2126 59.9087 27.232 59.848 27.2707 59.7991C27.3095 59.7496 27.3613 59.7121 27.426 59.6867C27.4915 59.6613 27.5636 59.6486 27.6423 59.6486ZM27.3822 60.6985C27.3822 60.7595 27.4038 60.8097 27.447 60.849C27.4902 60.8884 27.5547 60.9081 27.6404 60.9081C27.7255 60.9081 27.7903 60.8887 27.8348 60.85C27.8792 60.8112 27.9015 60.7601 27.9015 60.6966C27.9015 60.6559 27.89 60.6201 27.8672 60.5889C27.8449 60.5578 27.8148 60.5302 27.7767 60.506C27.7392 60.4813 27.6976 60.4584 27.6518 60.4375L27.6214 60.4251C27.5718 60.446 27.5293 60.4698 27.4937 60.4965C27.4581 60.5226 27.4305 60.5521 27.4108 60.5851C27.3917 60.6182 27.3822 60.6559 27.3822 60.6985ZM27.6404 59.821C27.5788 59.821 27.528 59.8363 27.488 59.8668C27.4486 59.8966 27.4289 59.9398 27.4289 59.9963C27.4289 60.0363 27.4384 60.0706 27.4575 60.0992C27.4772 60.1278 27.5035 60.1526 27.5366 60.1735C27.5696 60.1939 27.6061 60.2129 27.6461 60.2307C27.6849 60.2136 27.7198 60.1948 27.7509 60.1745C27.7827 60.1535 27.8078 60.1288 27.8262 60.1002C27.8453 60.071 27.8548 60.036 27.8548 59.9954C27.8548 59.9395 27.8348 59.8966 27.7948 59.8668C27.7554 59.8363 27.7039 59.821 27.6404 59.821ZM29.2324 60.3631C29.2324 60.4756 29.2236 60.5762 29.2058 60.6652C29.1886 60.7534 29.1613 60.8284 29.1238 60.89C29.0864 60.9516 29.0375 60.9986 28.9771 61.031C28.9168 61.0634 28.8437 61.0796 28.758 61.0796C28.6506 61.0796 28.562 61.0513 28.4922 60.9948C28.4223 60.9376 28.3705 60.8557 28.3369 60.749C28.3032 60.6417 28.2864 60.513 28.2864 60.3631C28.2864 60.2132 28.3016 60.0849 28.3321 59.9782C28.3632 59.8709 28.4134 59.7886 28.4826 59.7315C28.5519 59.6743 28.6437 59.6457 28.758 59.6457C28.866 59.6457 28.9549 59.6743 29.0247 59.7315C29.0953 59.788 29.1473 59.8699 29.181 59.9773C29.2153 60.084 29.2324 60.2126 29.2324 60.3631ZM28.5122 60.3631C28.5122 60.4806 28.5198 60.5788 28.535 60.6575C28.5509 60.7363 28.577 60.7954 28.6132 60.8347C28.6494 60.8735 28.6976 60.8929 28.758 60.8929C28.8183 60.8929 28.8666 60.8735 28.9028 60.8347C28.939 60.796 28.965 60.7372 28.9809 60.6585C28.9974 60.5797 29.0057 60.4813 29.0057 60.3631C29.0057 60.2463 28.9978 60.1485 28.9819 60.0697C28.966 59.9909 28.94 59.9319 28.9037 59.8925C28.8675 59.8525 28.819 59.8325 28.758 59.8325C28.697 59.8325 28.6484 59.8525 28.6122 59.8925C28.5766 59.9319 28.5509 59.9909 28.535 60.0697C28.5198 60.1485 28.5122 60.2463 28.5122 60.3631Z" fill="#444444"/>
<circle cx="44.3807" cy="39.5262" r="0.465632" fill="#4491D1"/>
<circle cx="52.4295" cy="40.0145" r="0.465632" fill="#4491D1"/>
<circle cx="60.4774" cy="49.7703" r="0.465632" fill="#4491D1"/>
<circle cx="68.5262" cy="62.4539" r="0.465632" fill="#4491D1"/>
<circle cx="76.575" cy="65.3797" r="0.465632" fill="#5F00CB"/>
<defs>
<filter id="filter0_d_7650_40935" x="23.0068" y="28.0859" width="10.1095" height="5.47477" filterUnits="userSpaceOnUse" color-interpolation-filters="sRGB">
<feFlood flood-opacity="0" result="BackgroundImageFix"/>
<feColorMatrix in="SourceAlpha" type="matrix" values="0 0 0 0 0 0 0 0 0 0 0 0 0 0 0 0 0 0 127 0" result="hardAlpha"/>
<feOffset dy="0.908283"/>
<feGaussianBlur stdDeviation="0.454141"/>
<feComposite in2="hardAlpha" operator="out"/>
<feColorMatrix type="matrix" values="0 0 0 0 0 0 0 0 0 0 0 0 0 0 0 0 0 0 0.25 0"/>
<feBlend mode="normal" in2="BackgroundImageFix" result="effect1_dropShadow_7650_40935"/>
<feBlend mode="normal" in="SourceGraphic" in2="effect1_dropShadow_7650_40935" result="shape"/>
</filter>
<filter id="filter1_d_7650_40935" x="48.6161" y="54.9141" width="7.67008" height="5.47477" filterUnits="userSpaceOnUse" color-interpolation-filters="sRGB">
<feFlood flood-opacity="0" result="BackgroundImageFix"/>
<feColorMatrix in="SourceAlpha" type="matrix" values="0 0 0 0 0 0 0 0 0 0 0 0 0 0 0 0 0 0 127 0" result="hardAlpha"/>
<feOffset dy="0.908283"/>
<feGaussianBlur stdDeviation="0.454141"/>
<feComposite in2="hardAlpha" operator="out"/>
<feColorMatrix type="matrix" values="0 0 0 0 0 0 0 0 0 0 0 0 0 0 0 0 0 0 0.25 0"/>
<feBlend mode="normal" in2="BackgroundImageFix" result="effect1_dropShadow_7650_40935"/>
<feBlend mode="normal" in="SourceGraphic" in2="effect1_dropShadow_7650_40935" result="shape"/>
</filter>
<filter id="filter2_d_7650_40935" x="48.1279" y="34.1836" width="8.15836" height="5.47477" filterUnits="userSpaceOnUse" color-interpolation-filters="sRGB">
<feFlood flood-opacity="0" result="BackgroundImageFix"/>
<feColorMatrix in="SourceAlpha" type="matrix" values="0 0 0 0 0 0 0 0 0 0 0 0 0 0 0 0 0 0 127 0" result="hardAlpha"/>
<feOffset dy="0.908283"/>
<feGaussianBlur stdDeviation="0.454141"/>
<feComposite in2="hardAlpha" operator="out"/>
<feColorMatrix type="matrix" values="0 0 0 0 0 0 0 0 0 0 0 0 0 0 0 0 0 0 0.25 0"/>
<feBlend mode="normal" in2="BackgroundImageFix" result="effect1_dropShadow_7650_40935"/>
<feBlend mode="normal" in="SourceGraphic" in2="effect1_dropShadow_7650_40935" result="shape"/>
</filter>
<filter id="filter3_d_7650_40935" x="24.4696" y="58.5723" width="7.67008" height="5.47477" filterUnits="userSpaceOnUse" color-interpolation-filters="sRGB">
<feFlood flood-opacity="0" result="BackgroundImageFix"/>
<feColorMatrix in="SourceAlpha" type="matrix" values="0 0 0 0 0 0 0 0 0 0 0 0 0 0 0 0 0 0 127 0" result="hardAlpha"/>
<feOffset dy="0.908283"/>
<feGaussianBlur stdDeviation="0.454141"/>
<feComposite in2="hardAlpha" operator="out"/>
<feColorMatrix type="matrix" values="0 0 0 0 0 0 0 0 0 0 0 0 0 0 0 0 0 0 0.25 0"/>
<feBlend mode="normal" in2="BackgroundImageFix" result="effect1_dropShadow_7650_40935"/>
<feBlend mode="normal" in="SourceGraphic" in2="effect1_dropShadow_7650_40935" result="shape"/>
</filter>
</defs>
</svg>
