<svg width="107" height="79" viewBox="0 0 107 79" fill="none" xmlns="http://www.w3.org/2000/svg">
<rect x="0.883789" y="8.01465" width="70.9855" height="70.9855" rx="7.39432" fill="#D9D9D9"/>
<path d="M0.883789 8C0.883789 3.58172 4.46551 0 8.88379 0H98.2171C102.635 0 106.217 3.58172 106.217 8V71C106.217 75.4183 102.635 79 98.2171 79H8.8838C4.46552 79 0.883789 75.4183 0.883789 71V8Z" fill="url(#paint0_linear_5383_46711)"/>
<rect x="5.46387" y="21.7539" width="96.1739" height="52.6667" rx="4.57971" fill="white"/>
<path opacity="0.3" d="M64.503 61.7822H53.4339V59.8032L57.6715 55.5097C58.4914 54.6749 59.166 53.9556 59.6952 53.3518C60.2245 52.7406 60.6158 52.1629 60.8692 51.6188C61.1301 51.0746 61.2606 50.482 61.2606 49.841C61.2606 49.0509 61.0332 48.4546 60.5785 48.052C60.1238 47.6421 59.5238 47.4371 58.7784 47.4371C58.0703 47.4371 57.4143 47.5787 56.8106 47.862C56.2142 48.1378 55.5956 48.5328 54.9545 49.0471L53.5122 47.3141C53.9669 46.9265 54.4514 46.5724 54.9657 46.2519C55.4875 45.9314 56.0689 45.678 56.7099 45.4916C57.351 45.2978 58.0815 45.2009 58.9014 45.2009C59.9375 45.2009 60.832 45.3873 61.5848 45.76C62.3377 46.1252 62.9154 46.6358 63.3179 47.2917C63.7278 47.9477 63.9328 48.7117 63.9328 49.5838C63.9328 50.4634 63.7576 51.2759 63.4073 52.0213C63.057 52.7667 62.5576 53.5046 61.9091 54.2351C61.2606 54.9581 60.4891 55.7445 59.5946 56.5943L56.7658 59.356V59.479H64.503V61.7822ZM73.0006 44.3847L72.5533 48.6558L76.8468 47.4371L77.1822 49.8186L73.1683 50.1764L75.7734 53.6537L73.6043 54.8277L71.7147 51.0821L70.0264 54.8165L67.7679 53.6537L70.3507 50.1764L66.3591 49.8074L66.7392 47.4371L70.9544 48.6558L70.5072 44.3847H73.0006ZM86.809 61.7822H84.1703V51.261C84.1703 50.9106 84.174 50.5603 84.1815 50.21C84.1889 49.8596 84.1964 49.5167 84.2038 49.1813C84.2188 48.8459 84.2374 48.5254 84.2598 48.2198C84.1032 48.3912 83.9094 48.5775 83.6783 48.7788C83.4547 48.9801 83.2162 49.1888 82.9628 49.4049L81.0844 50.9032L79.765 49.2372L84.6175 45.4357H86.809V61.7822Z" fill="#FF8A01"/>
<rect x="5.46387" y="4.58008" width="32.058" height="12.5942" rx="3.43478" fill="white"/>
<defs>
<linearGradient id="paint0_linear_5383_46711" x1="107.96" y1="75.0787" x2="-6.37571" y2="26.4787" gradientUnits="userSpaceOnUse">
<stop stop-color="#FE6500"/>
<stop offset="0.595" stop-color="#FF8A00"/>
</linearGradient>
</defs>
</svg>
