<svg width="92" height="92" viewBox="0 0 92 92" fill="none" xmlns="http://www.w3.org/2000/svg">
<rect x="0.389831" y="0.389831" width="91.079" height="91.2203" rx="17.5424" stroke="#BEBEBE" stroke-width="0.779661"/>
<rect width="70" height="60.7317" transform="translate(11 16)" fill="white"/>
<path d="M20.7559 21.8594V68.9325" stroke="#E0E0E0" stroke-width="0.243902"/>
<path d="M28.6808 68.9325C28.6808 68.9999 28.7354 69.0545 28.8027 69.0545C28.8701 69.0545 28.9247 68.9999 28.9247 68.9325H28.6808ZM28.8027 21.8594H28.6808V68.9325H28.8027H28.9247V21.8594H28.8027Z" fill="#E0E0E0"/>
<path d="M36.7316 68.9325C36.7316 68.9999 36.7862 69.0545 36.8535 69.0545C36.9209 69.0545 36.9755 68.9999 36.9755 68.9325H36.7316ZM36.8535 21.8594H36.7316V68.9325H36.8535H36.9755V21.8594H36.8535Z" fill="#E0E0E0"/>
<path d="M44.7784 68.9325C44.7784 68.9999 44.833 69.0545 44.9004 69.0545C44.9677 69.0545 45.0223 68.9999 45.0223 68.9325H44.7784ZM44.9004 21.8594H44.7784V68.9325H44.9004H45.0223V21.8594H44.9004Z" fill="#E0E0E0"/>
<path d="M52.8292 68.9325C52.8292 68.9999 52.8838 69.0545 52.9512 69.0545C53.0185 69.0545 53.0731 68.9999 53.0731 68.9325H52.8292ZM52.9512 21.8594H52.8292V68.9325H52.9512H53.0731V21.8594H52.9512Z" fill="#E0E0E0"/>
<path d="M60.8761 68.9325C60.8761 68.9999 60.9307 69.0545 60.998 69.0545C61.0654 69.0545 61.12 68.9999 61.12 68.9325H60.8761ZM60.998 21.8594H60.8761V68.9325H60.998H61.12V21.8594H60.998Z" fill="#E0E0E0"/>
<path d="M68.9269 68.9325C68.9269 68.9999 68.9815 69.0545 69.0488 69.0545C69.1162 69.0545 69.1708 68.9999 69.1708 68.9325H68.9269ZM69.0488 21.8594H68.9269V68.9325H69.0488H69.1708V21.8594H69.0488Z" fill="#E0E0E0"/>
<path d="M76.9738 68.9325C76.9738 68.9999 77.0284 69.0545 77.0957 69.0545C77.1631 69.0545 77.2177 68.9999 77.2177 68.9325H76.9738ZM77.0957 21.8594H76.9738V68.9325H77.0957H77.2177V21.8594H77.0957Z" fill="#E0E0E0"/>
<path d="M14.8589 23.8594H13.9462V23.7269L14.3187 23.3487C14.3879 23.2788 14.446 23.2166 14.493 23.162C14.5407 23.1073 14.5769 23.0537 14.6017 23.001C14.6264 22.9476 14.6388 22.8892 14.6388 22.8256C14.6388 22.7469 14.6153 22.6869 14.5683 22.6456C14.5219 22.6037 14.4607 22.5827 14.3844 22.5827C14.3177 22.5827 14.2587 22.5941 14.2072 22.617C14.1558 22.6399 14.1031 22.6723 14.0491 22.7142L13.9643 22.6075C14.0011 22.5763 14.0411 22.5487 14.0843 22.5246C14.1281 22.5004 14.1748 22.4814 14.2244 22.4674C14.2745 22.4534 14.3279 22.4465 14.3844 22.4465C14.4702 22.4465 14.5442 22.4614 14.6064 22.4912C14.6687 22.5211 14.7166 22.5636 14.7503 22.6189C14.7846 22.6742 14.8017 22.7399 14.8017 22.8161C14.8017 22.8898 14.7871 22.9584 14.7579 23.0219C14.7287 23.0848 14.6877 23.1474 14.635 23.2096C14.5823 23.2712 14.5207 23.3366 14.4502 23.4059L14.1472 23.7079V23.7146H14.8589V23.8594ZM15.503 23.0076C15.5976 23.0076 15.6798 23.0238 15.7497 23.0562C15.8196 23.088 15.8736 23.1343 15.9117 23.1953C15.9504 23.2563 15.9698 23.3303 15.9698 23.4173C15.9698 23.5126 15.9492 23.5948 15.9079 23.6641C15.8666 23.7327 15.8072 23.7857 15.7297 23.8232C15.6522 23.86 15.5595 23.8784 15.4515 23.8784C15.3791 23.8784 15.3118 23.8721 15.2495 23.8594C15.1873 23.8467 15.1349 23.8276 15.0923 23.8022V23.6517C15.1387 23.6796 15.1949 23.7019 15.261 23.7184C15.327 23.7349 15.3912 23.7431 15.4534 23.7431C15.5239 23.7431 15.5855 23.732 15.6382 23.7098C15.6916 23.6869 15.7329 23.6526 15.7621 23.6069C15.792 23.5605 15.8069 23.5024 15.8069 23.4325C15.8069 23.3398 15.7783 23.2684 15.7211 23.2182C15.6646 23.1674 15.575 23.142 15.4525 23.142C15.4131 23.142 15.3699 23.1451 15.3229 23.1515C15.2759 23.1578 15.2371 23.1648 15.2067 23.1724L15.1266 23.12L15.18 22.4665H15.8726V22.6113H15.3153L15.28 23.0314C15.3041 23.0264 15.3353 23.0213 15.3734 23.0162C15.4115 23.0105 15.4547 23.0076 15.503 23.0076ZM17.0998 23.161C17.0998 23.2741 17.0912 23.3751 17.074 23.464C17.0569 23.5529 17.0299 23.6282 16.993 23.6898C16.9562 23.7514 16.9086 23.7984 16.8501 23.8308C16.7917 23.8626 16.7215 23.8784 16.6396 23.8784C16.536 23.8784 16.4503 23.8502 16.3823 23.7936C16.315 23.7371 16.2645 23.6555 16.2308 23.5488C16.1978 23.4414 16.1813 23.3122 16.1813 23.161C16.1813 23.0124 16.1962 22.8847 16.2261 22.778C16.2566 22.6707 16.3055 22.5884 16.3728 22.5312C16.4401 22.4735 16.5291 22.4446 16.6396 22.4446C16.7444 22.4446 16.8308 22.4731 16.8987 22.5303C16.9667 22.5868 17.0172 22.6688 17.0502 22.7761C17.0832 22.8828 17.0998 23.0111 17.0998 23.161ZM16.3404 23.161C16.3404 23.2906 16.3503 23.3986 16.37 23.4849C16.3896 23.5713 16.4214 23.6361 16.4652 23.6793C16.5097 23.7219 16.5678 23.7431 16.6396 23.7431C16.7114 23.7431 16.7692 23.7219 16.813 23.6793C16.8574 23.6368 16.8895 23.5723 16.9092 23.4859C16.9295 23.3995 16.9397 23.2912 16.9397 23.161C16.9397 23.0333 16.9298 22.9266 16.9102 22.8409C16.8905 22.7545 16.8587 22.6897 16.8149 22.6465C16.7711 22.6027 16.7126 22.5808 16.6396 22.5808C16.5665 22.5808 16.5081 22.6027 16.4643 22.6465C16.4204 22.6897 16.3887 22.7545 16.369 22.8409C16.3499 22.9266 16.3404 23.0333 16.3404 23.161ZM18.2164 23.161C18.2164 23.2741 18.2078 23.3751 18.1906 23.464C18.1735 23.5529 18.1465 23.6282 18.1097 23.6898C18.0728 23.7514 18.0252 23.7984 17.9667 23.8308C17.9083 23.8626 17.8381 23.8784 17.7562 23.8784C17.6527 23.8784 17.5669 23.8502 17.499 23.7936C17.4316 23.7371 17.3811 23.6555 17.3475 23.5488C17.3144 23.4414 17.2979 23.3122 17.2979 23.161C17.2979 23.0124 17.3128 22.8847 17.3427 22.778C17.3732 22.6707 17.4221 22.5884 17.4894 22.5312C17.5568 22.4735 17.6457 22.4446 17.7562 22.4446C17.861 22.4446 17.9474 22.4731 18.0153 22.5303C18.0833 22.5868 18.1338 22.6688 18.1668 22.7761C18.1999 22.8828 18.2164 23.0111 18.2164 23.161ZM17.457 23.161C17.457 23.2906 17.4669 23.3986 17.4866 23.4849C17.5063 23.5713 17.538 23.6361 17.5818 23.6793C17.6263 23.7219 17.6844 23.7431 17.7562 23.7431C17.828 23.7431 17.8858 23.7219 17.9296 23.6793C17.9741 23.6368 18.0061 23.5723 18.0258 23.4859C18.0461 23.3995 18.0563 23.2912 18.0563 23.161C18.0563 23.0333 18.0465 22.9266 18.0268 22.8409C18.0071 22.7545 17.9753 22.6897 17.9315 22.6465C17.8877 22.6027 17.8292 22.5808 17.7562 22.5808C17.6831 22.5808 17.6247 22.6027 17.5809 22.6465C17.5371 22.6897 17.5053 22.7545 17.4856 22.8409C17.4666 22.9266 17.457 23.0333 17.457 23.161Z" fill="#212121"/>
<path d="M14.8589 31.25H13.9462V31.1176L14.3187 30.7393C14.3879 30.6695 14.446 30.6072 14.493 30.5526C14.5407 30.498 14.5769 30.4443 14.6017 30.3916C14.6264 30.3382 14.6388 30.2798 14.6388 30.2163C14.6388 30.1375 14.6153 30.0775 14.5683 30.0362C14.5219 29.9943 14.4607 29.9733 14.3844 29.9733C14.3177 29.9733 14.2587 29.9848 14.2072 30.0076C14.1558 30.0305 14.1031 30.0629 14.0491 30.1048L13.9643 29.9981C14.0011 29.967 14.0411 29.9393 14.0843 29.9152C14.1281 29.8911 14.1748 29.872 14.2244 29.858C14.2745 29.8441 14.3279 29.8371 14.3844 29.8371C14.4702 29.8371 14.5442 29.852 14.6064 29.8819C14.6687 29.9117 14.7166 29.9543 14.7503 30.0095C14.7846 30.0648 14.8017 30.1305 14.8017 30.2067C14.8017 30.2804 14.7871 30.349 14.7579 30.4125C14.7287 30.4754 14.6877 30.538 14.635 30.6002C14.5823 30.6618 14.5207 30.7273 14.4502 30.7965L14.1472 31.0985V31.1052H14.8589V31.25ZM15.9831 30.5516C15.9831 30.6647 15.9746 30.7657 15.9574 30.8546C15.9403 30.9435 15.9133 31.0188 15.8764 31.0804C15.8396 31.142 15.792 31.189 15.7335 31.2214C15.6751 31.2532 15.6049 31.2691 15.523 31.2691C15.4194 31.2691 15.3337 31.2408 15.2657 31.1843C15.1984 31.1277 15.1479 31.0461 15.1142 30.9394C15.0812 30.8321 15.0647 30.7028 15.0647 30.5516C15.0647 30.403 15.0796 30.2753 15.1095 30.1686C15.14 30.0613 15.1889 29.979 15.2562 29.9219C15.3235 29.8641 15.4124 29.8352 15.523 29.8352C15.6278 29.8352 15.7141 29.8638 15.7821 29.9209C15.8501 29.9775 15.9006 30.0594 15.9336 30.1667C15.9666 30.2734 15.9831 30.4017 15.9831 30.5516ZM15.2238 30.5516C15.2238 30.6812 15.2336 30.7892 15.2533 30.8756C15.273 30.962 15.3048 31.0267 15.3486 31.0699C15.3931 31.1125 15.4512 31.1338 15.523 31.1338C15.5947 31.1338 15.6525 31.1125 15.6964 31.0699C15.7408 31.0274 15.7729 30.9629 15.7926 30.8765C15.8129 30.7901 15.8231 30.6818 15.8231 30.5516C15.8231 30.424 15.8132 30.3173 15.7935 30.2315C15.7739 30.1451 15.7421 30.0803 15.6983 30.0372C15.6544 29.9933 15.596 29.9714 15.523 29.9714C15.4499 29.9714 15.3915 29.9933 15.3477 30.0372C15.3038 30.0803 15.2721 30.1451 15.2524 30.2315C15.2333 30.3173 15.2238 30.424 15.2238 30.5516ZM17.0998 30.5516C17.0998 30.6647 17.0912 30.7657 17.074 30.8546C17.0569 30.9435 17.0299 31.0188 16.993 31.0804C16.9562 31.142 16.9086 31.189 16.8501 31.2214C16.7917 31.2532 16.7215 31.2691 16.6396 31.2691C16.536 31.2691 16.4503 31.2408 16.3823 31.1843C16.315 31.1277 16.2645 31.0461 16.2308 30.9394C16.1978 30.8321 16.1813 30.7028 16.1813 30.5516C16.1813 30.403 16.1962 30.2753 16.2261 30.1686C16.2566 30.0613 16.3055 29.979 16.3728 29.9219C16.4401 29.8641 16.5291 29.8352 16.6396 29.8352C16.7444 29.8352 16.8308 29.8638 16.8987 29.9209C16.9667 29.9775 17.0172 30.0594 17.0502 30.1667C17.0832 30.2734 17.0998 30.4017 17.0998 30.5516ZM16.3404 30.5516C16.3404 30.6812 16.3503 30.7892 16.37 30.8756C16.3896 30.962 16.4214 31.0267 16.4652 31.0699C16.5097 31.1125 16.5678 31.1338 16.6396 31.1338C16.7114 31.1338 16.7692 31.1125 16.813 31.0699C16.8574 31.0274 16.8895 30.9629 16.9092 30.8765C16.9295 30.7901 16.9397 30.6818 16.9397 30.5516C16.9397 30.424 16.9298 30.3173 16.9102 30.2315C16.8905 30.1451 16.8587 30.0803 16.8149 30.0372C16.7711 29.9933 16.7126 29.9714 16.6396 29.9714C16.5665 29.9714 16.5081 29.9933 16.4643 30.0372C16.4204 30.0803 16.3887 30.1451 16.369 30.2315C16.3499 30.3173 16.3404 30.424 16.3404 30.5516ZM18.2164 30.5516C18.2164 30.6647 18.2078 30.7657 18.1906 30.8546C18.1735 30.9435 18.1465 31.0188 18.1097 31.0804C18.0728 31.142 18.0252 31.189 17.9667 31.2214C17.9083 31.2532 17.8381 31.2691 17.7562 31.2691C17.6527 31.2691 17.5669 31.2408 17.499 31.1843C17.4316 31.1277 17.3811 31.0461 17.3475 30.9394C17.3144 30.8321 17.2979 30.7028 17.2979 30.5516C17.2979 30.403 17.3128 30.2753 17.3427 30.1686C17.3732 30.0613 17.4221 29.979 17.4894 29.9219C17.5568 29.8641 17.6457 29.8352 17.7562 29.8352C17.861 29.8352 17.9474 29.8638 18.0153 29.9209C18.0833 29.9775 18.1338 30.0594 18.1668 30.1667C18.1999 30.2734 18.2164 30.4017 18.2164 30.5516ZM17.457 30.5516C17.457 30.6812 17.4669 30.7892 17.4866 30.8756C17.5063 30.962 17.538 31.0267 17.5818 31.0699C17.6263 31.1125 17.6844 31.1338 17.7562 31.1338C17.828 31.1338 17.8858 31.1125 17.9296 31.0699C17.9741 31.0274 18.0061 30.9629 18.0258 30.8765C18.0461 30.7901 18.0563 30.6818 18.0563 30.5516C18.0563 30.424 18.0465 30.3173 18.0268 30.2315C18.0071 30.1451 17.9753 30.0803 17.9315 30.0372C17.8877 29.9933 17.8292 29.9714 17.7562 29.9714C17.6831 29.9714 17.6247 29.9933 17.5809 30.0372C17.5371 30.0803 17.5053 30.1451 17.4856 30.2315C17.4666 30.3173 17.457 30.424 17.457 30.5516Z" fill="#212121"/>
<path d="M14.535 38.6406H14.3806V37.6536C14.3806 37.6161 14.3806 37.584 14.3806 37.5574C14.3813 37.53 14.3819 37.5053 14.3825 37.483C14.3838 37.4602 14.3854 37.437 14.3873 37.4135C14.3676 37.4338 14.3492 37.4513 14.332 37.4659C14.3149 37.4799 14.2936 37.4973 14.2682 37.5183L14.1091 37.646L14.0262 37.5383L14.4035 37.2477H14.535V38.6406ZM15.503 37.7889C15.5976 37.7889 15.6798 37.8051 15.7497 37.8375C15.8196 37.8692 15.8736 37.9156 15.9117 37.9766C15.9504 38.0375 15.9698 38.1115 15.9698 38.1986C15.9698 38.2938 15.9492 38.3761 15.9079 38.4453C15.8666 38.5139 15.8072 38.5669 15.7297 38.6044C15.6522 38.6413 15.5595 38.6597 15.4515 38.6597C15.3791 38.6597 15.3118 38.6533 15.2495 38.6406C15.1873 38.6279 15.1349 38.6089 15.0923 38.5835V38.4329C15.1387 38.4609 15.1949 38.4831 15.261 38.4996C15.327 38.5161 15.3912 38.5244 15.4534 38.5244C15.5239 38.5244 15.5855 38.5133 15.6382 38.491C15.6916 38.4682 15.7329 38.4339 15.7621 38.3881C15.792 38.3418 15.8069 38.2837 15.8069 38.2138C15.8069 38.1211 15.7783 38.0496 15.7211 37.9994C15.6646 37.9486 15.575 37.9232 15.4525 37.9232C15.4131 37.9232 15.3699 37.9264 15.3229 37.9327C15.2759 37.9391 15.2371 37.9461 15.2067 37.9537L15.1266 37.9013L15.18 37.2477H15.8726V37.3925H15.3153L15.28 37.8127C15.3041 37.8076 15.3353 37.8025 15.3734 37.7974C15.4115 37.7917 15.4547 37.7889 15.503 37.7889ZM17.0998 37.9423C17.0998 38.0553 17.0912 38.1563 17.074 38.2452C17.0569 38.3342 17.0299 38.4094 16.993 38.471C16.9562 38.5326 16.9086 38.5796 16.8501 38.612C16.7917 38.6438 16.7215 38.6597 16.6396 38.6597C16.536 38.6597 16.4503 38.6314 16.3823 38.5749C16.315 38.5184 16.2645 38.4367 16.2308 38.33C16.1978 38.2227 16.1813 38.0934 16.1813 37.9423C16.1813 37.7936 16.1962 37.666 16.2261 37.5593C16.2566 37.4519 16.3055 37.3697 16.3728 37.3125C16.4401 37.2547 16.5291 37.2258 16.6396 37.2258C16.7444 37.2258 16.8308 37.2544 16.8987 37.3115C16.9667 37.3681 17.0172 37.45 17.0502 37.5574C17.0832 37.6641 17.0998 37.7924 17.0998 37.9423ZM16.3404 37.9423C16.3404 38.0718 16.3503 38.1798 16.37 38.2662C16.3896 38.3526 16.4214 38.4174 16.4652 38.4606C16.5097 38.5031 16.5678 38.5244 16.6396 38.5244C16.7114 38.5244 16.7692 38.5031 16.813 38.4606C16.8574 38.418 16.8895 38.3535 16.9092 38.2671C16.9295 38.1808 16.9397 38.0725 16.9397 37.9423C16.9397 37.8146 16.9298 37.7079 16.9102 37.6221C16.8905 37.5358 16.8587 37.471 16.8149 37.4278C16.7711 37.384 16.7126 37.362 16.6396 37.362C16.5665 37.362 16.5081 37.384 16.4643 37.4278C16.4204 37.471 16.3887 37.5358 16.369 37.6221C16.3499 37.7079 16.3404 37.8146 16.3404 37.9423ZM18.2164 37.9423C18.2164 38.0553 18.2078 38.1563 18.1906 38.2452C18.1735 38.3342 18.1465 38.4094 18.1097 38.471C18.0728 38.5326 18.0252 38.5796 17.9667 38.612C17.9083 38.6438 17.8381 38.6597 17.7562 38.6597C17.6527 38.6597 17.5669 38.6314 17.499 38.5749C17.4316 38.5184 17.3811 38.4367 17.3475 38.33C17.3144 38.2227 17.2979 38.0934 17.2979 37.9423C17.2979 37.7936 17.3128 37.666 17.3427 37.5593C17.3732 37.4519 17.4221 37.3697 17.4894 37.3125C17.5568 37.2547 17.6457 37.2258 17.7562 37.2258C17.861 37.2258 17.9474 37.2544 18.0153 37.3115C18.0833 37.3681 18.1338 37.45 18.1668 37.5574C18.1999 37.6641 18.2164 37.7924 18.2164 37.9423ZM17.457 37.9423C17.457 38.0718 17.4669 38.1798 17.4866 38.2662C17.5063 38.3526 17.538 38.4174 17.5818 38.4606C17.6263 38.5031 17.6844 38.5244 17.7562 38.5244C17.828 38.5244 17.8858 38.5031 17.9296 38.4606C17.9741 38.418 18.0061 38.3535 18.0258 38.2671C18.0461 38.1808 18.0563 38.0725 18.0563 37.9423C18.0563 37.8146 18.0465 37.7079 18.0268 37.6221C18.0071 37.5358 17.9753 37.471 17.9315 37.4278C17.8877 37.384 17.8292 37.362 17.7562 37.362C17.6831 37.362 17.6247 37.384 17.5809 37.4278C17.5371 37.471 17.5053 37.5358 17.4856 37.6221C17.4666 37.7079 17.457 37.8146 17.457 37.9423Z" fill="#212121"/>
<path d="M14.535 46.0312H14.3806V45.0442C14.3806 45.0067 14.3806 44.9747 14.3806 44.948C14.3813 44.9207 14.3819 44.8959 14.3825 44.8737C14.3838 44.8508 14.3854 44.8276 14.3873 44.8041C14.3676 44.8244 14.3492 44.8419 14.332 44.8565C14.3149 44.8705 14.2936 44.888 14.2682 44.9089L14.1091 45.0366L14.0262 44.9289L14.4035 44.6383H14.535V46.0312ZM15.9831 45.3329C15.9831 45.4459 15.9746 45.5469 15.9574 45.6359C15.9403 45.7248 15.9133 45.8001 15.8764 45.8617C15.8396 45.9233 15.792 45.9703 15.7335 46.0027C15.6751 46.0344 15.6049 46.0503 15.523 46.0503C15.4194 46.0503 15.3337 46.022 15.2657 45.9655C15.1984 45.909 15.1479 45.8274 15.1142 45.7207C15.0812 45.6133 15.0647 45.4841 15.0647 45.3329C15.0647 45.1843 15.0796 45.0566 15.1095 44.9499C15.14 44.8425 15.1889 44.7603 15.2562 44.7031C15.3235 44.6453 15.4124 44.6164 15.523 44.6164C15.6278 44.6164 15.7141 44.645 15.7821 44.7022C15.8501 44.7587 15.9006 44.8406 15.9336 44.948C15.9666 45.0547 15.9831 45.183 15.9831 45.3329ZM15.2238 45.3329C15.2238 45.4625 15.2336 45.5704 15.2533 45.6568C15.273 45.7432 15.3048 45.808 15.3486 45.8512C15.3931 45.8937 15.4512 45.915 15.523 45.915C15.5947 45.915 15.6525 45.8937 15.6964 45.8512C15.7408 45.8086 15.7729 45.7442 15.7926 45.6578C15.8129 45.5714 15.8231 45.4631 15.8231 45.3329C15.8231 45.2052 15.8132 45.0985 15.7935 45.0128C15.7739 44.9264 15.7421 44.8616 15.6983 44.8184C15.6544 44.7746 15.596 44.7527 15.523 44.7527C15.4499 44.7527 15.3915 44.7746 15.3477 44.8184C15.3038 44.8616 15.2721 44.9264 15.2524 45.0128C15.2333 45.0985 15.2238 45.2052 15.2238 45.3329ZM17.0998 45.3329C17.0998 45.4459 17.0912 45.5469 17.074 45.6359C17.0569 45.7248 17.0299 45.8001 16.993 45.8617C16.9562 45.9233 16.9086 45.9703 16.8501 46.0027C16.7917 46.0344 16.7215 46.0503 16.6396 46.0503C16.536 46.0503 16.4503 46.022 16.3823 45.9655C16.315 45.909 16.2645 45.8274 16.2308 45.7207C16.1978 45.6133 16.1813 45.4841 16.1813 45.3329C16.1813 45.1843 16.1962 45.0566 16.2261 44.9499C16.2566 44.8425 16.3055 44.7603 16.3728 44.7031C16.4401 44.6453 16.5291 44.6164 16.6396 44.6164C16.7444 44.6164 16.8308 44.645 16.8987 44.7022C16.9667 44.7587 17.0172 44.8406 17.0502 44.948C17.0832 45.0547 17.0998 45.183 17.0998 45.3329ZM16.3404 45.3329C16.3404 45.4625 16.3503 45.5704 16.37 45.6568C16.3896 45.7432 16.4214 45.808 16.4652 45.8512C16.5097 45.8937 16.5678 45.915 16.6396 45.915C16.7114 45.915 16.7692 45.8937 16.813 45.8512C16.8574 45.8086 16.8895 45.7442 16.9092 45.6578C16.9295 45.5714 16.9397 45.4631 16.9397 45.3329C16.9397 45.2052 16.9298 45.0985 16.9102 45.0128C16.8905 44.9264 16.8587 44.8616 16.8149 44.8184C16.7711 44.7746 16.7126 44.7527 16.6396 44.7527C16.5665 44.7527 16.5081 44.7746 16.4643 44.8184C16.4204 44.8616 16.3887 44.9264 16.369 45.0128C16.3499 45.0985 16.3404 45.2052 16.3404 45.3329ZM18.2164 45.3329C18.2164 45.4459 18.2078 45.5469 18.1906 45.6359C18.1735 45.7248 18.1465 45.8001 18.1097 45.8617C18.0728 45.9233 18.0252 45.9703 17.9667 46.0027C17.9083 46.0344 17.8381 46.0503 17.7562 46.0503C17.6527 46.0503 17.5669 46.022 17.499 45.9655C17.4316 45.909 17.3811 45.8274 17.3475 45.7207C17.3144 45.6133 17.2979 45.4841 17.2979 45.3329C17.2979 45.1843 17.3128 45.0566 17.3427 44.9499C17.3732 44.8425 17.4221 44.7603 17.4894 44.7031C17.5568 44.6453 17.6457 44.6164 17.7562 44.6164C17.861 44.6164 17.9474 44.645 18.0153 44.7022C18.0833 44.7587 18.1338 44.8406 18.1668 44.948C18.1999 45.0547 18.2164 45.183 18.2164 45.3329ZM17.457 45.3329C17.457 45.4625 17.4669 45.5704 17.4866 45.6568C17.5063 45.7432 17.538 45.808 17.5818 45.8512C17.6263 45.8937 17.6844 45.915 17.7562 45.915C17.828 45.915 17.8858 45.8937 17.9296 45.8512C17.9741 45.8086 18.0061 45.7442 18.0258 45.6578C18.0461 45.5714 18.0563 45.4631 18.0563 45.3329C18.0563 45.2052 18.0465 45.0985 18.0268 45.0128C18.0071 44.9264 17.9753 44.8616 17.9315 44.8184C17.8877 44.7746 17.8292 44.7527 17.7562 44.7527C17.6831 44.7527 17.6247 44.7746 17.5809 44.8184C17.5371 44.8616 17.5053 44.9264 17.4856 45.0128C17.4666 45.0985 17.457 45.2052 17.457 45.3329Z" fill="#212121"/>
<path d="M15.5025 52.5701C15.5972 52.5701 15.6794 52.5863 15.7493 52.6187C15.8192 52.6505 15.8732 52.6968 15.9113 52.7578C15.95 52.8188 15.9694 52.8928 15.9694 52.9798C15.9694 53.0751 15.9488 53.1573 15.9075 53.2266C15.8662 53.2952 15.8068 53.3482 15.7293 53.3857C15.6518 53.4225 15.5591 53.4409 15.4511 53.4409C15.3787 53.4409 15.3114 53.4346 15.2491 53.4219C15.1869 53.4092 15.1345 53.3901 15.0919 53.3647V53.2142C15.1383 53.2421 15.1945 53.2644 15.2606 53.2809C15.3266 53.2974 15.3908 53.3056 15.453 53.3056C15.5235 53.3056 15.5851 53.2945 15.6378 53.2723C15.6912 53.2494 15.7325 53.2151 15.7617 53.1694C15.7915 53.123 15.8065 53.0649 15.8065 52.995C15.8065 52.9023 15.7779 52.8309 15.7207 52.7807C15.6642 52.7299 15.5746 52.7045 15.4521 52.7045C15.4127 52.7045 15.3695 52.7076 15.3225 52.714C15.2755 52.7203 15.2367 52.7273 15.2062 52.7349L15.1262 52.6825L15.1796 52.029H15.8722V52.1738H15.3149L15.2796 52.5939C15.3037 52.5889 15.3349 52.5838 15.373 52.5787C15.4111 52.573 15.4543 52.5701 15.5025 52.5701ZM17.0993 52.7235C17.0993 52.8366 17.0908 52.9376 17.0736 53.0265C17.0565 53.1154 17.0295 53.1907 16.9926 53.2523C16.9558 53.3139 16.9082 53.3609 16.8497 53.3933C16.7913 53.4251 16.7211 53.4409 16.6392 53.4409C16.5356 53.4409 16.4499 53.4127 16.3819 53.3561C16.3146 53.2996 16.2641 53.218 16.2304 53.1113C16.1974 53.0039 16.1809 52.8747 16.1809 52.7235C16.1809 52.5749 16.1958 52.4472 16.2257 52.3405C16.2562 52.2332 16.3051 52.1509 16.3724 52.0937C16.4397 52.036 16.5287 52.0071 16.6392 52.0071C16.744 52.0071 16.8304 52.0356 16.8983 52.0928C16.9663 52.1493 17.0168 52.2313 17.0498 52.3386C17.0828 52.4453 17.0993 52.5736 17.0993 52.7235ZM16.34 52.7235C16.34 52.8531 16.3499 52.9611 16.3695 53.0474C16.3892 53.1338 16.421 53.1986 16.4648 53.2418C16.5093 53.2844 16.5674 53.3056 16.6392 53.3056C16.7109 53.3056 16.7687 53.2844 16.8126 53.2418C16.857 53.1993 16.8891 53.1348 16.9088 53.0484C16.9291 52.962 16.9393 52.8537 16.9393 52.7235C16.9393 52.5958 16.9294 52.4891 16.9098 52.4034C16.8901 52.317 16.8583 52.2522 16.8145 52.209C16.7707 52.1652 16.7122 52.1433 16.6392 52.1433C16.5661 52.1433 16.5077 52.1652 16.4639 52.209C16.42 52.2522 16.3883 52.317 16.3686 52.4034C16.3495 52.4891 16.34 52.5958 16.34 52.7235ZM18.216 52.7235C18.216 52.8366 18.2074 52.9376 18.1902 53.0265C18.1731 53.1154 18.1461 53.1907 18.1093 53.2523C18.0724 53.3139 18.0248 53.3609 17.9663 53.3933C17.9079 53.4251 17.8377 53.4409 17.7558 53.4409C17.6523 53.4409 17.5665 53.4127 17.4985 53.3561C17.4312 53.2996 17.3807 53.218 17.3471 53.1113C17.314 53.0039 17.2975 52.8747 17.2975 52.7235C17.2975 52.5749 17.3124 52.4472 17.3423 52.3405C17.3728 52.2332 17.4217 52.1509 17.489 52.0937C17.5563 52.036 17.6453 52.0071 17.7558 52.0071C17.8606 52.0071 17.947 52.0356 18.0149 52.0928C18.0829 52.1493 18.1334 52.2313 18.1664 52.3386C18.1994 52.4453 18.216 52.5736 18.216 52.7235ZM17.4566 52.7235C17.4566 52.8531 17.4665 52.9611 17.4862 53.0474C17.5059 53.1338 17.5376 53.1986 17.5814 53.2418C17.6259 53.2844 17.684 53.3056 17.7558 53.3056C17.8276 53.3056 17.8854 53.2844 17.9292 53.2418C17.9736 53.1993 18.0057 53.1348 18.0254 53.0484C18.0457 52.962 18.0559 52.8537 18.0559 52.7235C18.0559 52.5958 18.0461 52.4891 18.0264 52.4034C18.0067 52.317 17.9749 52.2522 17.9311 52.209C17.8873 52.1652 17.8288 52.1433 17.7558 52.1433C17.6827 52.1433 17.6243 52.1652 17.5805 52.209C17.5367 52.2522 17.5049 52.317 17.4852 52.4034C17.4662 52.4891 17.4566 52.5958 17.4566 52.7235Z" fill="#212121"/>
<path d="M15.6512 60.8125H15.4968V59.8255C15.4968 59.788 15.4968 59.7559 15.4968 59.7292C15.4975 59.7019 15.4981 59.6771 15.4987 59.6549C15.5 59.6321 15.5016 59.6089 15.5035 59.5854C15.4838 59.6057 15.4654 59.6232 15.4482 59.6378C15.4311 59.6517 15.4098 59.6692 15.3844 59.6902L15.2253 59.8178L15.1424 59.7102L15.5197 59.4196H15.6512V60.8125ZM17.0993 60.1141C17.0993 60.2272 17.0908 60.3282 17.0736 60.4171C17.0565 60.506 17.0295 60.5813 16.9926 60.6429C16.9558 60.7045 16.9082 60.7515 16.8497 60.7839C16.7913 60.8157 16.7211 60.8316 16.6392 60.8316C16.5356 60.8316 16.4499 60.8033 16.3819 60.7468C16.3146 60.6902 16.2641 60.6086 16.2304 60.5019C16.1974 60.3946 16.1809 60.2653 16.1809 60.1141C16.1809 59.9655 16.1958 59.8378 16.2257 59.7311C16.2562 59.6238 16.3051 59.5415 16.3724 59.4844C16.4397 59.4266 16.5287 59.3977 16.6392 59.3977C16.744 59.3977 16.8304 59.4263 16.8983 59.4834C16.9663 59.54 17.0168 59.6219 17.0498 59.7292C17.0828 59.8359 17.0993 59.9642 17.0993 60.1141ZM16.34 60.1141C16.34 60.2437 16.3499 60.3517 16.3695 60.4381C16.3892 60.5245 16.421 60.5892 16.4648 60.6324C16.5093 60.675 16.5674 60.6963 16.6392 60.6963C16.7109 60.6963 16.7687 60.675 16.8126 60.6324C16.857 60.5899 16.8891 60.5254 16.9088 60.439C16.9291 60.3526 16.9393 60.2443 16.9393 60.1141C16.9393 59.9865 16.9294 59.8798 16.9098 59.794C16.8901 59.7076 16.8583 59.6428 16.8145 59.5997C16.7707 59.5558 16.7122 59.5339 16.6392 59.5339C16.5661 59.5339 16.5077 59.5558 16.4639 59.5997C16.42 59.6428 16.3883 59.7076 16.3686 59.794C16.3495 59.8798 16.34 59.9865 16.34 60.1141ZM18.216 60.1141C18.216 60.2272 18.2074 60.3282 18.1902 60.4171C18.1731 60.506 18.1461 60.5813 18.1093 60.6429C18.0724 60.7045 18.0248 60.7515 17.9663 60.7839C17.9079 60.8157 17.8377 60.8316 17.7558 60.8316C17.6523 60.8316 17.5665 60.8033 17.4985 60.7468C17.4312 60.6902 17.3807 60.6086 17.3471 60.5019C17.314 60.3946 17.2975 60.2653 17.2975 60.1141C17.2975 59.9655 17.3124 59.8378 17.3423 59.7311C17.3728 59.6238 17.4217 59.5415 17.489 59.4844C17.5563 59.4266 17.6453 59.3977 17.7558 59.3977C17.8606 59.3977 17.947 59.4263 18.0149 59.4834C18.0829 59.54 18.1334 59.6219 18.1664 59.7292C18.1994 59.8359 18.216 59.9642 18.216 60.1141ZM17.4566 60.1141C17.4566 60.2437 17.4665 60.3517 17.4862 60.4381C17.5059 60.5245 17.5376 60.5892 17.5814 60.6324C17.6259 60.675 17.684 60.6963 17.7558 60.6963C17.8276 60.6963 17.8854 60.675 17.9292 60.6324C17.9736 60.5899 18.0057 60.5254 18.0254 60.439C18.0457 60.3526 18.0559 60.2443 18.0559 60.1141C18.0559 59.9865 18.0461 59.8798 18.0264 59.794C18.0067 59.7076 17.9749 59.6428 17.9311 59.5997C17.8873 59.5558 17.8288 59.5339 17.7558 59.5339C17.6827 59.5339 17.6243 59.5558 17.5805 59.5997C17.5367 59.6428 17.5049 59.7076 17.4852 59.794C17.4662 59.8798 17.4566 59.9865 17.4566 60.1141Z" fill="#212121"/>
<path d="M18.216 67.5009C18.216 67.6139 18.2074 67.7149 18.1902 67.8038C18.1731 67.8928 18.1461 67.968 18.1093 68.0296C18.0724 68.0912 18.0248 68.1382 17.9663 68.1706C17.9079 68.2024 17.8377 68.2183 17.7558 68.2183C17.6523 68.2183 17.5665 68.19 17.4985 68.1335C17.4312 68.0769 17.3807 67.9953 17.3471 67.8886C17.314 67.7813 17.2975 67.652 17.2975 67.5009C17.2975 67.3522 17.3124 67.2246 17.3423 67.1179C17.3728 67.0105 17.4217 66.9283 17.489 66.8711C17.5563 66.8133 17.6453 66.7844 17.7558 66.7844C17.8606 66.7844 17.947 66.813 18.0149 66.8701C18.0829 66.9267 18.1334 67.0086 18.1664 67.1159C18.1994 67.2227 18.216 67.351 18.216 67.5009ZM17.4566 67.5009C17.4566 67.6304 17.4665 67.7384 17.4862 67.8248C17.5059 67.9112 17.5376 67.976 17.5814 68.0192C17.6259 68.0617 17.684 68.083 17.7558 68.083C17.8276 68.083 17.8854 68.0617 17.9292 68.0192C17.9736 67.9766 18.0057 67.9121 18.0254 67.8257C18.0457 67.7394 18.0559 67.6311 18.0559 67.5009C18.0559 67.3732 18.0461 67.2665 18.0264 67.1807C18.0067 67.0944 17.9749 67.0296 17.9311 66.9864C17.8873 66.9425 17.8288 66.9206 17.7558 66.9206C17.6827 66.9206 17.6243 66.9425 17.5805 66.9864C17.5367 67.0296 17.5049 67.0944 17.4852 67.1807C17.4662 67.2665 17.4566 67.3732 17.4566 67.5009Z" fill="#212121"/>
<path d="M29.6416 71.4141H29.4873V70.427C29.4873 70.3895 29.4873 70.3575 29.4873 70.3308C29.4879 70.3035 29.4886 70.2787 29.4892 70.2565C29.4905 70.2336 29.4921 70.2104 29.494 70.1869C29.4743 70.2073 29.4559 70.2247 29.4387 70.2393C29.4216 70.2533 29.4003 70.2708 29.3749 70.2917L29.2158 70.4194L29.1329 70.3117L29.5102 70.0212H29.6416V71.4141Z" fill="#212121"/>
<path d="M21.9224 70.7157C21.9224 70.8288 21.9138 70.9298 21.8967 71.0187C21.8795 71.1076 21.8526 71.1829 21.8157 71.2445C21.7789 71.3061 21.7312 71.3531 21.6728 71.3855C21.6144 71.4172 21.5442 71.4331 21.4622 71.4331C21.3587 71.4331 21.273 71.4049 21.205 71.3483C21.1377 71.2918 21.0872 71.2102 21.0535 71.1035C21.0205 70.9961 21.004 70.8669 21.004 70.7157C21.004 70.5671 21.0189 70.4394 21.0488 70.3327C21.0792 70.2254 21.1282 70.1431 21.1955 70.0859C21.2628 70.0281 21.3517 69.9992 21.4622 69.9992C21.567 69.9992 21.6534 70.0278 21.7214 70.085C21.7894 70.1415 21.8399 70.2235 21.8729 70.3308C21.9059 70.4375 21.9224 70.5658 21.9224 70.7157ZM21.1631 70.7157C21.1631 70.8453 21.1729 70.9533 21.1926 71.0396C21.2123 71.126 21.2441 71.1908 21.2879 71.234C21.3324 71.2765 21.3905 71.2978 21.4622 71.2978C21.534 71.2978 21.5918 71.2765 21.6356 71.234C21.6801 71.1914 21.7122 71.127 21.7319 71.0406C21.7522 70.9542 21.7624 70.8459 21.7624 70.7157C21.7624 70.588 21.7525 70.4813 21.7328 70.3956C21.7131 70.3092 21.6814 70.2444 21.6376 70.2012C21.5937 70.1574 21.5353 70.1355 21.4622 70.1355C21.3892 70.1355 21.3308 70.1574 21.2869 70.2012C21.2431 70.2444 21.2114 70.3092 21.1917 70.3956C21.1726 70.4813 21.1631 70.588 21.1631 70.7157Z" fill="#212121"/>
<path d="M38.0125 71.4141H37.0997V71.2816L37.4723 70.9034C37.5415 70.8335 37.5996 70.7713 37.6466 70.7167C37.6942 70.662 37.7304 70.6084 37.7552 70.5556C37.78 70.5023 37.7924 70.4439 37.7924 70.3803C37.7924 70.3016 37.7689 70.2416 37.7219 70.2003C37.6755 70.1583 37.6142 70.1374 37.538 70.1374C37.4713 70.1374 37.4122 70.1488 37.3608 70.1717C37.3093 70.1946 37.2566 70.2269 37.2026 70.2689L37.1178 70.1622C37.1547 70.131 37.1947 70.1034 37.2379 70.0793C37.2817 70.0551 37.3284 70.0361 37.3779 70.0221C37.4281 70.0081 37.4815 70.0011 37.538 70.0011C37.6237 70.0011 37.6977 70.0161 37.76 70.0459C37.8222 70.0758 37.8702 70.1183 37.9038 70.1736C37.9381 70.2288 37.9553 70.2946 37.9553 70.3708C37.9553 70.4445 37.9407 70.5131 37.9115 70.5766C37.8822 70.6395 37.8413 70.702 37.7886 70.7643C37.7358 70.8259 37.6742 70.8913 37.6037 70.9606L37.3008 71.2626V71.2692H38.0125V71.4141Z" fill="#212121"/>
<path d="M46.254 70.346C46.254 70.4083 46.2419 70.4623 46.2178 70.508C46.1936 70.5537 46.16 70.5912 46.1168 70.6204C46.0736 70.649 46.0228 70.669 45.9643 70.6804V70.6881C46.0749 70.702 46.1578 70.7376 46.213 70.7948C46.2689 70.8519 46.2969 70.9269 46.2969 71.0196C46.2969 71.1003 46.2778 71.1717 46.2397 71.234C46.2022 71.2962 46.1444 71.3451 46.0663 71.3807C45.9888 71.4157 45.8894 71.4331 45.7681 71.4331C45.6944 71.4331 45.6261 71.4271 45.5632 71.415C45.501 71.4036 45.4413 71.3842 45.3841 71.3569V71.2083C45.4419 71.2369 45.5048 71.2594 45.5728 71.2759C45.6407 71.2918 45.7065 71.2997 45.77 71.2997C45.897 71.2997 45.9888 71.2746 46.0453 71.2245C46.1019 71.1737 46.1301 71.1044 46.1301 71.0168C46.1301 70.9564 46.1142 70.9078 46.0825 70.871C46.0514 70.8335 46.0063 70.8062 45.9472 70.7891C45.8888 70.7713 45.8183 70.7624 45.7357 70.7624H45.5966V70.6271H45.7366C45.8122 70.6271 45.8764 70.616 45.9291 70.5937C45.9818 70.5715 46.0218 70.5404 46.0491 70.5004C46.0771 70.4597 46.0911 70.4118 46.0911 70.3565C46.0911 70.286 46.0676 70.2317 46.0206 70.1936C45.9736 70.1549 45.9097 70.1355 45.8291 70.1355C45.7795 70.1355 45.7344 70.1406 45.6938 70.1507C45.6531 70.1609 45.615 70.1749 45.5794 70.1926C45.5439 70.2104 45.5083 70.2311 45.4727 70.2546L45.3927 70.146C45.4435 70.1066 45.5054 70.0726 45.5785 70.044C45.6515 70.0154 45.7344 70.0011 45.8271 70.0011C45.9694 70.0011 46.0761 70.0335 46.1473 70.0983C46.2184 70.1631 46.254 70.2457 46.254 70.346Z" fill="#212121"/>
<path d="M54.4248 71.0911H54.2161V71.4141H54.0618V71.0911H53.3882V70.9577L54.0513 70.0135H54.2161V70.9482H54.4248V71.0911ZM54.0618 70.9482V70.4928C54.0618 70.4578 54.0621 70.4264 54.0627 70.3984C54.0634 70.3699 54.0643 70.3435 54.0656 70.3194C54.0669 70.2946 54.0678 70.2711 54.0685 70.2489C54.0697 70.2266 54.0707 70.2047 54.0713 70.1831H54.0637C54.0516 70.2085 54.0376 70.2355 54.0218 70.2641C54.0065 70.292 53.991 70.3171 53.9751 70.3394L53.5454 70.9482H54.0618Z" fill="#212121"/>
<path d="M61.9305 70.5623C62.0252 70.5623 62.1074 70.5785 62.1773 70.6109C62.2471 70.6427 62.3011 70.689 62.3392 70.75C62.378 70.811 62.3974 70.885 62.3974 70.972C62.3974 71.0673 62.3767 71.1495 62.3354 71.2187C62.2942 71.2873 62.2348 71.3404 62.1573 71.3779C62.0798 71.4147 61.9871 71.4331 61.8791 71.4331C61.8067 71.4331 61.7393 71.4268 61.6771 71.4141C61.6148 71.4014 61.5624 71.3823 61.5199 71.3569V71.2064C61.5663 71.2343 61.6225 71.2565 61.6885 71.2731C61.7546 71.2896 61.8187 71.2978 61.881 71.2978C61.9515 71.2978 62.0131 71.2867 62.0658 71.2645C62.1192 71.2416 62.1605 71.2073 62.1897 71.1616C62.2195 71.1152 62.2344 71.0571 62.2344 70.9872C62.2344 70.8945 62.2059 70.823 62.1487 70.7729C62.0922 70.7221 62.0026 70.6966 61.88 70.6966C61.8406 70.6966 61.7975 70.6998 61.7505 70.7062C61.7035 70.7125 61.6647 70.7195 61.6342 70.7271L61.5542 70.6747L61.6075 70.0212H62.3002V70.166H61.7428L61.7076 70.5861C61.7317 70.581 61.7628 70.576 61.8009 70.5709C61.8391 70.5652 61.8822 70.5623 61.9305 70.5623Z" fill="#212121"/>
<path d="M69.5544 70.8186C69.5544 70.7348 69.5602 70.6528 69.5716 70.5728C69.5837 70.4928 69.6037 70.4184 69.6316 70.3498C69.6596 70.2806 69.6977 70.22 69.746 70.1679C69.7942 70.1158 69.8542 70.0751 69.926 70.0459C69.9984 70.0161 70.0851 70.0011 70.1861 70.0011C70.2147 70.0011 70.2455 70.0027 70.2785 70.0059C70.3116 70.0084 70.3389 70.0129 70.3605 70.0192V70.1555C70.337 70.1472 70.31 70.1412 70.2795 70.1374C70.2496 70.1336 70.2195 70.1317 70.189 70.1317C70.0708 70.1317 69.9778 70.1574 69.9098 70.2088C69.8425 70.2603 69.7939 70.3302 69.7641 70.4184C69.7342 70.5061 69.7171 70.6049 69.7126 70.7147H69.7231C69.7428 70.683 69.7679 70.6544 69.7984 70.629C69.8288 70.603 69.8657 70.5823 69.9089 70.5671C69.9527 70.5518 70.0035 70.5442 70.0613 70.5442C70.1426 70.5442 70.2134 70.5607 70.2738 70.5937C70.3347 70.6268 70.3817 70.6747 70.4148 70.7376C70.4484 70.8005 70.4653 70.8767 70.4653 70.9663C70.4653 71.0622 70.4475 71.1451 70.4119 71.2149C70.3763 71.2848 70.3255 71.3388 70.2595 71.3769C70.1941 71.4144 70.1159 71.4331 70.0251 71.4331C69.9571 71.4331 69.8946 71.4201 69.8374 71.3941C69.7802 71.368 69.7304 71.3293 69.6878 71.2778C69.6459 71.2264 69.6132 71.1625 69.5897 71.0863C69.5662 71.0095 69.5544 70.9202 69.5544 70.8186ZM70.0232 71.2997C70.1096 71.2997 70.1788 71.2721 70.2309 71.2168C70.283 71.1616 70.309 71.0781 70.309 70.9663C70.309 70.8748 70.2858 70.8024 70.2395 70.749C70.1931 70.6957 70.1232 70.669 70.0299 70.669C69.9664 70.669 69.9111 70.6824 69.8641 70.709C69.8171 70.7351 69.7806 70.7681 69.7545 70.8081C69.7285 70.8481 69.7155 70.8888 69.7155 70.9301C69.7155 70.972 69.7215 71.0145 69.7336 71.0577C69.7463 71.1009 69.7653 71.1409 69.7907 71.1778C69.8161 71.2146 69.8482 71.2442 69.887 71.2664C69.9257 71.2886 69.9711 71.2997 70.0232 71.2997Z" fill="#212121"/>
<path d="M77.5259 71.4141L78.0975 70.166H77.3382V70.0212H78.2671V70.1431L77.6993 71.4141H77.5259Z" fill="#212121"/>
<path d="M20.6339 68.9325C20.6339 68.9999 20.6885 69.0545 20.7559 69.0545C20.8232 69.0545 20.8778 68.9999 20.8778 68.9325H20.6339ZM20.7559 21.8594H20.6339V68.9325H20.7559H20.8778V21.8594H20.7559Z" fill="#D4D4D4"/>
<path d="M20.7559 68.9297H77.0973" stroke="#D4D4D4" stroke-width="0.243902"/>
<path d="M20.9993 66.2447C21.4034 66.2447 21.731 65.9171 21.731 65.513C21.731 65.1088 21.4034 64.7812 20.9993 64.7812C20.5952 64.7812 20.2676 65.1088 20.2676 65.513C20.2676 65.9171 20.5952 66.2447 20.9993 66.2447Z" fill="#02CDD7"/>
<path opacity="0.1" d="M23.1034 59.2482C21.4363 59.5031 21.7888 59.7089 20.7559 60.2157V68.9287H77.0973V49.5272C77.0973 49.5272 75.5444 52.8466 74.3272 52.7061C72.4428 52.4886 73.2623 50.8301 71.3693 50.9554C69.9617 51.0486 69.726 55.4438 67.7071 55.3322C65.1567 55.1912 66.1584 53.006 63.6223 52.7061C61.8413 52.4955 61.8943 49.2964 60.101 49.2508C57.3306 49.1802 56.9408 46.5647 54.5607 46.3483C48.9437 45.8375 54.0876 37.6253 48.4571 37.9633C42.9626 38.2931 49.096 51.5176 43.6211 50.9554C42.2423 50.8138 41.6609 49.5715 40.2876 49.7575C38.5915 49.9873 38.7315 52.2126 37.0949 52.7061C34.9555 53.3513 33.8359 50.4904 31.6485 50.9554C29.5531 51.4009 29.6608 54.4971 27.5168 54.5029C24.6295 54.5107 25.9563 58.8121 23.1034 59.2482Z" fill="url(#paint0_linear_7927_89919)"/>
<path d="M20.7559 60.1482C21.7888 59.643 21.4363 59.4378 23.1034 59.1837C25.9563 58.7488 24.6295 54.4605 27.5168 54.4527C29.6608 54.4469 29.5531 51.3601 31.6485 50.916C33.8359 50.4523 34.9555 53.3046 37.0949 52.6614C38.7315 52.1693 38.5915 49.9509 40.2876 49.7218C41.6609 49.5362 42.2423 50.7748 43.6211 50.916C49.096 51.4764 42.9626 38.2921 48.4571 37.9632C54.0876 37.6263 48.9437 45.8136 54.5607 46.3228C56.9408 46.5386 57.3306 49.1462 60.101 49.2165C61.8943 49.262 61.8413 52.4514 63.6223 52.6614C66.1584 52.9604 65.1567 55.1389 67.7071 55.2795C69.726 55.3908 69.9617 51.0089 71.3693 50.916C73.2623 50.7911 72.4428 52.4445 74.3272 52.6614C75.5444 52.8014 77.0973 49.4921 77.0973 49.4921" stroke="#02CDD7" stroke-width="0.487805" stroke-linecap="round"/>
<rect x="49.17" y="40.2726" width="6.05203" height="3.65854" rx="1.82927" fill="white"/>
<rect x="49.17" y="40.2726" width="6.05203" height="3.65854" rx="1.82927" stroke="#D6D6D6" stroke-width="0.243902"/>
<path d="M51.2072 41.8022C51.2072 41.8867 51.2011 41.9689 51.189 42.049C51.1776 42.129 51.1576 42.2036 51.129 42.2729C51.1011 42.3421 51.063 42.4028 51.0147 42.4548C50.9664 42.5069 50.9058 42.5479 50.8327 42.5777C50.7603 42.607 50.6736 42.6216 50.5726 42.6216C50.5453 42.6216 50.5142 42.6197 50.4793 42.6159C50.4443 42.6127 50.4157 42.6079 50.3935 42.6016V42.4644C50.417 42.4726 50.4446 42.4793 50.4764 42.4844C50.5082 42.4888 50.5393 42.491 50.5698 42.491C50.6885 42.491 50.7819 42.4656 50.8499 42.4148C50.9178 42.3634 50.9667 42.2938 50.9966 42.2062C51.0264 42.1179 51.0433 42.0188 51.0471 41.9089H51.0357C51.0166 41.9394 50.9915 41.9677 50.9604 41.9937C50.9299 42.0191 50.8927 42.0398 50.8489 42.0556C50.8051 42.0709 50.754 42.0785 50.6955 42.0785C50.6149 42.0785 50.5444 42.062 50.484 42.029C50.4243 41.9959 50.3776 41.948 50.344 41.8851C50.3109 41.8222 50.2944 41.7463 50.2944 41.6574C50.2944 41.5615 50.3125 41.4786 50.3487 41.4087C50.3856 41.3382 50.437 41.2839 50.5031 41.2458C50.5691 41.2077 50.6469 41.1886 50.7365 41.1886C50.8051 41.1886 50.868 41.2017 50.9251 41.2277C50.9823 41.2537 51.0318 41.2928 51.0738 41.3449C51.1163 41.3963 51.149 41.4602 51.1719 41.5364C51.1954 41.6126 51.2072 41.7012 51.2072 41.8022ZM50.7365 41.323C50.652 41.323 50.5834 41.3506 50.5307 41.4059C50.4786 41.4611 50.4526 41.5443 50.4526 41.6555C50.4526 41.7476 50.4751 41.8203 50.5202 41.8737C50.5653 41.927 50.6349 41.9537 50.7289 41.9537C50.7937 41.9537 50.8496 41.9407 50.8966 41.9146C50.9442 41.8886 50.9807 41.8556 51.0061 41.8155C51.0322 41.7755 51.0452 41.7346 51.0452 41.6926C51.0452 41.6507 51.0388 41.6082 51.0261 41.565C51.0141 41.5218 50.9953 41.4821 50.9699 41.4459C50.9445 41.409 50.9124 41.3795 50.8737 41.3573C50.8349 41.3344 50.7892 41.323 50.7365 41.323ZM52.3295 41.9032C52.3295 42.0163 52.3209 42.1173 52.3038 42.2062C52.2866 42.2951 52.2596 42.3704 52.2228 42.432C52.1859 42.4936 52.1383 42.5406 52.0799 42.573C52.0214 42.6047 51.9512 42.6206 51.8693 42.6206C51.7658 42.6206 51.68 42.5924 51.6121 42.5358C51.5447 42.4793 51.4942 42.3977 51.4606 42.291C51.4276 42.1836 51.411 42.0544 51.411 41.9032C51.411 41.7546 51.426 41.6269 51.4558 41.5202C51.4863 41.4129 51.5352 41.3306 51.6025 41.2734C51.6699 41.2156 51.7588 41.1867 51.8693 41.1867C51.9741 41.1867 52.0605 41.2153 52.1285 41.2725C52.1964 41.329 52.2469 41.411 52.2799 41.5183C52.313 41.625 52.3295 41.7533 52.3295 41.9032ZM51.5701 41.9032C51.5701 42.0328 51.58 42.1408 51.5997 42.2271C51.6194 42.3135 51.6511 42.3783 51.695 42.4215C51.7394 42.464 51.7975 42.4853 51.8693 42.4853C51.9411 42.4853 51.9989 42.464 52.0427 42.4215C52.0872 42.3789 52.1192 42.3145 52.1389 42.2281C52.1593 42.1417 52.1694 42.0334 52.1694 41.9032C52.1694 41.7755 52.1596 41.6688 52.1399 41.5831C52.1202 41.4967 52.0884 41.4319 52.0446 41.3887C52.0008 41.3449 51.9424 41.323 51.8693 41.323C51.7963 41.323 51.7378 41.3449 51.694 41.3887C51.6502 41.4319 51.6184 41.4967 51.5987 41.5831C51.5797 41.6688 51.5701 41.7755 51.5701 41.9032ZM53.4461 41.9032C53.4461 42.0163 53.4375 42.1173 53.4204 42.2062C53.4032 42.2951 53.3762 42.3704 53.3394 42.432C53.3026 42.4936 53.2549 42.5406 53.1965 42.573C53.138 42.6047 53.0679 42.6206 52.9859 42.6206C52.8824 42.6206 52.7966 42.5924 52.7287 42.5358C52.6614 42.4793 52.6109 42.3977 52.5772 42.291C52.5442 42.1836 52.5277 42.0544 52.5277 41.9032C52.5277 41.7546 52.5426 41.6269 52.5724 41.5202C52.6029 41.4129 52.6518 41.3306 52.7192 41.2734C52.7865 41.2156 52.8754 41.1867 52.9859 41.1867C53.0907 41.1867 53.1771 41.2153 53.2451 41.2725C53.313 41.329 53.3635 41.411 53.3966 41.5183C53.4296 41.625 53.4461 41.7533 53.4461 41.9032ZM52.6868 41.9032C52.6868 42.0328 52.6966 42.1408 52.7163 42.2271C52.736 42.3135 52.7677 42.3783 52.8116 42.4215C52.856 42.464 52.9141 42.4853 52.9859 42.4853C53.0577 42.4853 53.1155 42.464 53.1593 42.4215C53.2038 42.3789 53.2359 42.3145 53.2555 42.2281C53.2759 42.1417 53.286 42.0334 53.286 41.9032C53.286 41.7755 53.2762 41.6688 53.2565 41.5831C53.2368 41.4967 53.2051 41.4319 53.1612 41.3887C53.1174 41.3449 53.059 41.323 52.9859 41.323C52.9129 41.323 52.8544 41.3449 52.8106 41.3887C52.7668 41.4319 52.735 41.4967 52.7153 41.5831C52.6963 41.6688 52.6868 41.7755 52.6868 41.9032Z" fill="#212121"/>
<rect x="41.1222" y="52.2218" width="6.05203" height="3.65854" rx="1.82927" fill="white"/>
<rect x="41.1222" y="52.2218" width="6.05203" height="3.65854" rx="1.82927" stroke="#D6D6D6" stroke-width="0.243902"/>
<path d="M43.1574 54.5508H42.2447V54.4183L42.6172 54.0401C42.6864 53.9702 42.7445 53.908 42.7915 53.8534C42.8392 53.7987 42.8754 53.7451 42.9002 53.6924C42.9249 53.639 42.9373 53.5806 42.9373 53.5171C42.9373 53.4383 42.9138 53.3783 42.8668 53.337C42.8204 53.2951 42.7591 53.2741 42.6829 53.2741C42.6162 53.2741 42.5572 53.2855 42.5057 53.3084C42.4543 53.3313 42.4015 53.3637 42.3476 53.4056L42.2628 53.2989C42.2996 53.2678 42.3396 53.2401 42.3828 53.216C42.4266 53.1919 42.4733 53.1728 42.5229 53.1588C42.573 53.1448 42.6264 53.1379 42.6829 53.1379C42.7687 53.1379 42.8427 53.1528 42.9049 53.1826C42.9672 53.2125 43.0151 53.255 43.0488 53.3103C43.0831 53.3656 43.1002 53.4313 43.1002 53.5075C43.1002 53.5812 43.0856 53.6498 43.0564 53.7133C43.0272 53.7762 42.9862 53.8388 42.9335 53.901C42.8808 53.9626 42.8192 54.028 42.7487 54.0973L42.4457 54.3993V54.406H43.1574V54.5508ZM44.2816 53.8524C44.2816 53.9655 44.2731 54.0665 44.2559 54.1554C44.2388 54.2443 44.2118 54.3196 44.1749 54.3812C44.1381 54.4428 44.0904 54.4898 44.032 54.5222C43.9736 54.554 43.9034 54.5698 43.8215 54.5698C43.7179 54.5698 43.6322 54.5416 43.5642 54.485C43.4969 54.4285 43.4464 54.3469 43.4127 54.2402C43.3797 54.1328 43.3632 54.0036 43.3632 53.8524C43.3632 53.7038 43.3781 53.5761 43.408 53.4694C43.4385 53.3621 43.4874 53.2798 43.5547 53.2227C43.622 53.1649 43.7109 53.136 43.8215 53.136C43.9263 53.136 44.0126 53.1645 44.0806 53.2217C44.1486 53.2782 44.1991 53.3602 44.2321 53.4675C44.2651 53.5742 44.2816 53.7025 44.2816 53.8524ZM43.5223 53.8524C43.5223 53.982 43.5321 54.09 43.5518 54.1764C43.5715 54.2627 43.6033 54.3275 43.6471 54.3707C43.6916 54.4133 43.7497 54.4345 43.8215 54.4345C43.8932 54.4345 43.951 54.4133 43.9949 54.3707C44.0393 54.3282 44.0714 54.2637 44.0911 54.1773C44.1114 54.0909 44.1216 53.9826 44.1216 53.8524C44.1216 53.7248 44.1117 53.618 44.092 53.5323C44.0723 53.4459 44.0406 53.3811 43.9968 53.3379C43.9529 53.2941 43.8945 53.2722 43.8215 53.2722C43.7484 53.2722 43.69 53.2941 43.6462 53.3379C43.6023 53.3811 43.5706 53.4459 43.5509 53.5323C43.5318 53.618 43.5223 53.7248 43.5223 53.8524ZM45.3982 53.8524C45.3982 53.9655 45.3897 54.0665 45.3725 54.1554C45.3554 54.2443 45.3284 54.3196 45.2915 54.3812C45.2547 54.4428 45.2071 54.4898 45.1486 54.5222C45.0902 54.554 45.02 54.5698 44.9381 54.5698C44.8345 54.5698 44.7488 54.5416 44.6808 54.485C44.6135 54.4285 44.563 54.3469 44.5293 54.2402C44.4963 54.1328 44.4798 54.0036 44.4798 53.8524C44.4798 53.7038 44.4947 53.5761 44.5246 53.4694C44.5551 53.3621 44.604 53.2798 44.6713 53.2227C44.7386 53.1649 44.8276 53.136 44.9381 53.136C45.0429 53.136 45.1293 53.1645 45.1972 53.2217C45.2652 53.2782 45.3157 53.3602 45.3487 53.4675C45.3817 53.5742 45.3982 53.7025 45.3982 53.8524ZM44.6389 53.8524C44.6389 53.982 44.6488 54.09 44.6684 54.1764C44.6881 54.2627 44.7199 54.3275 44.7637 54.3707C44.8082 54.4133 44.8663 54.4345 44.9381 54.4345C45.0098 54.4345 45.0676 54.4133 45.1115 54.3707C45.1559 54.3282 45.188 54.2637 45.2077 54.1773C45.228 54.0909 45.2382 53.9826 45.2382 53.8524C45.2382 53.7248 45.2283 53.618 45.2087 53.5323C45.189 53.4459 45.1572 53.3811 45.1134 53.3379C45.0696 53.2941 45.0111 53.2722 44.9381 53.2722C44.865 53.2722 44.8066 53.2941 44.7628 53.3379C44.7189 53.3811 44.6872 53.4459 44.6675 53.5323C44.6484 53.618 44.6389 53.7248 44.6389 53.8524Z" fill="#212121"/>
<rect x="33.0724" y="54.9015" width="6.05203" height="3.65854" rx="1.82927" fill="white"/>
<rect x="33.0724" y="54.9015" width="6.05203" height="3.65854" rx="1.82927" stroke="#D6D6D6" stroke-width="0.243902"/>
<path d="M34.7837 57.2305H34.6293V56.2434C34.6293 56.206 34.6293 56.1739 34.6293 56.1472C34.6299 56.1199 34.6306 56.0951 34.6312 56.0729C34.6325 56.05 34.6341 56.0268 34.636 56.0033C34.6163 56.0237 34.5979 56.0411 34.5807 56.0557C34.5636 56.0697 34.5423 56.0872 34.5169 56.1081L34.3578 56.2358L34.2749 56.1281L34.6522 55.8376H34.7837V57.2305ZM35.7516 56.3787C35.8463 56.3787 35.9285 56.3949 35.9984 56.4273C36.0683 56.4591 36.1223 56.5054 36.1604 56.5664C36.1991 56.6274 36.2185 56.7014 36.2185 56.7884C36.2185 56.8837 36.1978 56.9659 36.1566 57.0352C36.1153 57.1038 36.0559 57.1568 35.9784 57.1943C35.9009 57.2311 35.8082 57.2495 35.7002 57.2495C35.6278 57.2495 35.5605 57.2432 35.4982 57.2305C35.436 57.2178 35.3836 57.1987 35.341 57.1733V57.0228C35.3874 57.0507 35.4436 57.0729 35.5096 57.0895C35.5757 57.106 35.6399 57.1142 35.7021 57.1142C35.7726 57.1142 35.8342 57.1031 35.8869 57.0809C35.9403 57.058 35.9816 57.0237 36.0108 56.978C36.0406 56.9316 36.0556 56.8735 36.0556 56.8036C36.0556 56.7109 36.027 56.6394 35.9698 56.5893C35.9133 56.5385 35.8237 56.5131 35.7011 56.5131C35.6618 56.5131 35.6186 56.5162 35.5716 56.5226C35.5246 56.5289 35.4858 56.5359 35.4553 56.5435L35.3753 56.4911L35.4287 55.8376H36.1213V55.9824H35.564L35.5287 56.4025C35.5528 56.3975 35.584 56.3924 35.6221 56.3873C35.6602 56.3816 35.7034 56.3787 35.7516 56.3787ZM37.3484 56.5321C37.3484 56.6452 37.3399 56.7462 37.3227 56.8351C37.3056 56.924 37.2786 56.9993 37.2417 57.0609C37.2049 57.1225 37.1573 57.1695 37.0988 57.2019C37.0404 57.2336 36.9702 57.2495 36.8883 57.2495C36.7847 57.2495 36.699 57.2213 36.631 57.1647C36.5637 57.1082 36.5132 57.0266 36.4795 56.9199C36.4465 56.8125 36.43 56.6833 36.43 56.5321C36.43 56.3835 36.4449 56.2558 36.4748 56.1491C36.5053 56.0418 36.5542 55.9595 36.6215 55.9023C36.6888 55.8445 36.7777 55.8156 36.8883 55.8156C36.9931 55.8156 37.0795 55.8442 37.1474 55.9014C37.2154 55.9579 37.2659 56.0399 37.2989 56.1472C37.3319 56.2539 37.3484 56.3822 37.3484 56.5321ZM36.5891 56.5321C36.5891 56.6617 36.599 56.7697 36.6186 56.856C36.6383 56.9424 36.6701 57.0072 36.7139 57.0504C36.7584 57.093 36.8165 57.1142 36.8883 57.1142C36.96 57.1142 37.0178 57.093 37.0617 57.0504C37.1061 57.0078 37.1382 56.9434 37.1579 56.857C37.1782 56.7706 37.1884 56.6623 37.1884 56.5321C37.1884 56.4044 37.1785 56.2977 37.1588 56.212C37.1392 56.1256 37.1074 56.0608 37.0636 56.0176C37.0197 55.9738 36.9613 55.9519 36.8883 55.9519C36.8152 55.9519 36.7568 55.9738 36.713 56.0176C36.6691 56.0608 36.6374 56.1256 36.6177 56.212C36.5986 56.2977 36.5891 56.4044 36.5891 56.5321Z" fill="#212121"/>
<rect x="25.2677" y="49.2921" width="6.05203" height="3.65854" rx="1.82927" fill="white"/>
<rect x="25.2677" y="49.2921" width="6.05203" height="3.65854" rx="1.82927" stroke="#D6D6D6" stroke-width="0.243902"/>
<path d="M27.3725 51.2981H27.1638V51.6211H27.0095V51.2981H26.3359V51.1647L26.999 50.2206H27.1638V51.1552H27.3725V51.2981ZM27.0095 51.1552V50.6998C27.0095 50.6649 27.0098 50.6334 27.0104 50.6055C27.011 50.5769 27.012 50.5505 27.0133 50.5264C27.0145 50.5016 27.0155 50.4781 27.0161 50.4559C27.0174 50.4337 27.0183 50.4117 27.019 50.3901H27.0114C26.9993 50.4156 26.9853 50.4425 26.9694 50.4711C26.9542 50.4991 26.9386 50.5242 26.9228 50.5464L26.4931 51.1552H27.0095ZM28.4271 50.9227C28.4271 51.0358 28.4186 51.1368 28.4014 51.2257C28.3843 51.3146 28.3573 51.3899 28.3204 51.4515C28.2836 51.5131 28.236 51.5601 28.1775 51.5925C28.1191 51.6243 28.0489 51.6401 27.967 51.6401C27.8634 51.6401 27.7777 51.6119 27.7097 51.5554C27.6424 51.4988 27.5919 51.4172 27.5582 51.3105C27.5252 51.2032 27.5087 51.0739 27.5087 50.9227C27.5087 50.7741 27.5236 50.6464 27.5535 50.5397C27.584 50.4324 27.6329 50.3501 27.7002 50.293C27.7675 50.2352 27.8564 50.2063 27.967 50.2063C28.0718 50.2063 28.1581 50.2349 28.2261 50.292C28.2941 50.3485 28.3446 50.4305 28.3776 50.5378C28.4106 50.6445 28.4271 50.7728 28.4271 50.9227ZM27.6678 50.9227C27.6678 51.0523 27.6776 51.1603 27.6973 51.2467C27.717 51.333 27.7488 51.3978 27.7926 51.441C27.8371 51.4836 27.8952 51.5049 27.967 51.5049C28.0387 51.5049 28.0965 51.4836 28.1404 51.441C28.1848 51.3985 28.2169 51.334 28.2366 51.2476C28.2569 51.1612 28.2671 51.0529 28.2671 50.9227C28.2671 50.7951 28.2572 50.6884 28.2375 50.6026C28.2179 50.5162 28.1861 50.4514 28.1423 50.4083C28.0984 50.3644 28.04 50.3425 27.967 50.3425C27.8939 50.3425 27.8355 50.3644 27.7917 50.4083C27.7478 50.4514 27.7161 50.5162 27.6964 50.6026C27.6773 50.6884 27.6678 50.7951 27.6678 50.9227ZM29.5438 50.9227C29.5438 51.0358 29.5352 51.1368 29.518 51.2257C29.5009 51.3146 29.4739 51.3899 29.437 51.4515C29.4002 51.5131 29.3526 51.5601 29.2941 51.5925C29.2357 51.6243 29.1655 51.6401 29.0836 51.6401C28.98 51.6401 28.8943 51.6119 28.8263 51.5554C28.759 51.4988 28.7085 51.4172 28.6749 51.3105C28.6418 51.2032 28.6253 51.0739 28.6253 50.9227C28.6253 50.7741 28.6402 50.6464 28.6701 50.5397C28.7006 50.4324 28.7495 50.3501 28.8168 50.293C28.8841 50.2352 28.9731 50.2063 29.0836 50.2063C29.1884 50.2063 29.2748 50.2349 29.3427 50.292C29.4107 50.3485 29.4612 50.4305 29.4942 50.5378C29.5272 50.6445 29.5438 50.7728 29.5438 50.9227ZM28.7844 50.9227C28.7844 51.0523 28.7943 51.1603 28.814 51.2467C28.8336 51.333 28.8654 51.3978 28.9092 51.441C28.9537 51.4836 29.0118 51.5049 29.0836 51.5049C29.1554 51.5049 29.2132 51.4836 29.257 51.441C29.3014 51.3985 29.3335 51.334 29.3532 51.2476C29.3735 51.1612 29.3837 51.0529 29.3837 50.9227C29.3837 50.7951 29.3738 50.6884 29.3542 50.6026C29.3345 50.5162 29.3027 50.4514 29.2589 50.4083C29.2151 50.3644 29.1566 50.3425 29.0836 50.3425C29.0105 50.3425 28.9521 50.3644 28.9083 50.4083C28.8644 50.4514 28.8327 50.5162 28.813 50.6026C28.7939 50.6884 28.7844 50.7951 28.7844 50.9227Z" fill="#212121"/>
<path d="M44.9004 49.7861C45.3718 49.7861 45.7539 50.1682 45.7539 50.6396C45.7539 51.1111 45.3719 51.4932 44.9004 51.4932C44.4289 51.4932 44.0469 51.1111 44.0469 50.6396C44.0469 50.1682 44.4289 49.7861 44.9004 49.7861Z" fill="white" stroke="#02CDD7" stroke-width="0.243902"/>
<path d="M44.8999 51.1319C45.1693 51.1319 45.3877 50.9135 45.3877 50.6441C45.3877 50.3746 45.1693 50.1562 44.8999 50.1562C44.6305 50.1562 44.4121 50.3746 44.4121 50.6441C44.4121 50.9135 44.6305 51.1319 44.8999 51.1319Z" fill="#02CDD7"/>
<path d="M52.9502 44.8994C53.4216 44.8994 53.8037 45.2815 53.8037 45.7529C53.8037 46.2244 53.4217 46.6064 52.9502 46.6064C52.4787 46.6064 52.0967 46.2244 52.0967 45.7529C52.0967 45.2815 52.4788 44.8994 52.9502 44.8994Z" fill="white" stroke="#02CDD7" stroke-width="0.243902"/>
<path d="M52.9497 46.2451C53.2191 46.2451 53.4375 46.0267 53.4375 45.7573C53.4375 45.4879 53.2191 45.2695 52.9497 45.2695C52.6803 45.2695 52.4619 45.4879 52.4619 45.7573C52.4619 46.0267 52.6803 46.2451 52.9497 46.2451Z" fill="#02CDD7"/>
<path d="M61.002 48.8057C61.4734 48.8057 61.8555 49.1877 61.8555 49.6592C61.8555 50.1306 61.4734 50.5127 61.002 50.5127C60.5305 50.5127 60.1484 50.1306 60.1484 49.6592C60.1485 49.1877 60.5305 48.8057 61.002 48.8057Z" fill="white" stroke="#02CDD7" stroke-width="0.243902"/>
<path d="M61.0015 50.1514C61.2709 50.1514 61.4893 49.933 61.4893 49.6636C61.4893 49.3942 61.2709 49.1758 61.0015 49.1758C60.7321 49.1758 60.5137 49.3942 60.5137 49.6636C60.5137 49.933 60.7321 50.1514 61.0015 50.1514Z" fill="#02CDD7"/>
<path d="M69.0498 53.6846C69.5213 53.6846 69.9033 54.0666 69.9033 54.5381C69.9033 55.0095 69.5213 55.3916 69.0498 55.3916C68.5784 55.3916 68.1963 55.0095 68.1963 54.5381C68.1963 54.0666 68.5784 53.6846 69.0498 53.6846Z" fill="white" stroke="#02CDD7" stroke-width="0.243902"/>
<path d="M69.0493 55.0303C69.3187 55.0303 69.5371 54.8119 69.5371 54.5425C69.5371 54.2731 69.3187 54.0547 69.0493 54.0547C68.7799 54.0547 68.5615 54.2731 68.5615 54.5425C68.5615 54.8119 68.7799 55.0303 69.0493 55.0303Z" fill="#02CDD7"/>
<path d="M77.0957 48.5596C77.5672 48.5596 77.9492 48.9416 77.9492 49.4131C77.9492 49.8845 77.5672 50.2666 77.0957 50.2666C76.6243 50.2666 76.2422 49.8845 76.2422 49.4131C76.2422 48.9416 76.6243 48.5596 77.0957 48.5596Z" fill="white" stroke="#02CDD7" stroke-width="0.243902"/>
<path d="M77.0952 49.9053C77.3646 49.9053 77.583 49.6869 77.583 49.4175C77.583 49.1481 77.3646 48.9297 77.0952 48.9297C76.8258 48.9297 76.6074 49.1481 76.6074 49.4175C76.6074 49.6869 76.8258 49.9053 77.0952 49.9053Z" fill="#02CDD7"/>
<path d="M36.8525 51.9775C37.324 51.9775 37.706 52.3596 37.7061 52.8311C37.7061 53.3025 37.324 53.6846 36.8525 53.6846C36.3811 53.6846 35.999 53.3025 35.999 52.8311C35.999 52.3596 36.3811 51.9776 36.8525 51.9775Z" fill="white" stroke="#02CDD7" stroke-width="0.243902"/>
<path d="M36.8521 53.3233C37.1215 53.3233 37.3399 53.1049 37.3399 52.8355C37.3399 52.5661 37.1215 52.3477 36.8521 52.3477C36.5827 52.3477 36.3643 52.5661 36.3643 52.8355C36.3643 53.1049 36.5827 53.3233 36.8521 53.3233Z" fill="#02CDD7"/>
<path d="M28.8027 53.4346C29.2742 53.4346 29.6562 53.8166 29.6562 54.2881C29.6562 54.7595 29.2742 55.1416 28.8027 55.1416C28.3313 55.1416 27.9492 54.7595 27.9492 54.2881C27.9492 53.8166 28.3313 53.4346 28.8027 53.4346Z" fill="white" stroke="#02CDD7" stroke-width="0.243902"/>
<path d="M28.8023 54.7803C29.0717 54.7803 29.2901 54.5619 29.2901 54.2925C29.2901 54.0231 29.0717 53.8047 28.8023 53.8047C28.5329 53.8047 28.3145 54.0231 28.3145 54.2925C28.3145 54.5619 28.5329 54.7803 28.8023 54.7803Z" fill="#02CDD7"/>
<rect x="57.463" y="51.4913" width="6.05203" height="3.65854" rx="1.82927" fill="white"/>
<rect x="57.463" y="51.4913" width="6.05203" height="3.65854" rx="1.82927" stroke="#D6D6D6" stroke-width="0.243902"/>
<path d="M58.5998 53.2248C58.5998 53.141 58.6055 53.0591 58.6169 52.979C58.629 52.899 58.649 52.8247 58.6769 52.7561C58.7049 52.6869 58.743 52.6262 58.7913 52.5741C58.8396 52.522 58.8996 52.4814 58.9713 52.4522C59.0438 52.4223 59.1305 52.4074 59.2314 52.4074C59.26 52.4074 59.2908 52.409 59.3239 52.4122C59.3569 52.4147 59.3842 52.4191 59.4058 52.4255V52.5617C59.3823 52.5535 59.3553 52.5474 59.3248 52.5436C59.295 52.5398 59.2648 52.5379 59.2343 52.5379C59.1162 52.5379 59.0231 52.5636 58.9551 52.6151C58.8878 52.6665 58.8392 52.7364 58.8094 52.8247C58.7795 52.9123 58.7624 53.0111 58.7579 53.121H58.7684C58.7881 53.0892 58.8132 53.0607 58.8437 53.0353C58.8742 53.0092 58.911 52.9886 58.9542 52.9733C58.998 52.9581 59.0488 52.9505 59.1066 52.9505C59.1879 52.9505 59.2588 52.967 59.3191 53C59.3801 53.033 59.4271 53.081 59.4601 53.1439C59.4938 53.2067 59.5106 53.283 59.5106 53.3725C59.5106 53.4684 59.4928 53.5513 59.4572 53.6212C59.4217 53.6911 59.3709 53.745 59.3048 53.7832C59.2394 53.8206 59.1613 53.8394 59.0704 53.8394C59.0025 53.8394 58.9399 53.8263 58.8827 53.8003C58.8256 53.7743 58.7757 53.7355 58.7332 53.6841C58.6912 53.6326 58.6585 53.5688 58.635 53.4926C58.6115 53.4157 58.5998 53.3265 58.5998 53.2248ZM59.0685 53.706C59.1549 53.706 59.2241 53.6784 59.2762 53.6231C59.3283 53.5678 59.3543 53.4843 59.3543 53.3725C59.3543 53.2811 59.3312 53.2087 59.2848 53.1553C59.2384 53.1019 59.1686 53.0753 59.0752 53.0753C59.0117 53.0753 58.9564 53.0886 58.9094 53.1153C58.8624 53.1413 58.8259 53.1744 58.7999 53.2144C58.7738 53.2544 58.7608 53.295 58.7608 53.3363C58.7608 53.3782 58.7668 53.4208 58.7789 53.464C58.7916 53.5072 58.8107 53.5472 58.8361 53.584C58.8615 53.6209 58.8935 53.6504 58.9323 53.6726C58.971 53.6949 59.0164 53.706 59.0685 53.706ZM60.6225 53.122C60.6225 53.235 60.6139 53.336 60.5967 53.4249C60.5796 53.5138 60.5526 53.5891 60.5157 53.6507C60.4789 53.7123 60.4313 53.7593 60.3728 53.7917C60.3144 53.8235 60.2442 53.8394 60.1623 53.8394C60.0587 53.8394 59.973 53.8111 59.905 53.7546C59.8377 53.698 59.7872 53.6164 59.7535 53.5097C59.7205 53.4024 59.704 53.2731 59.704 53.122C59.704 52.9733 59.7189 52.8457 59.7488 52.7389C59.7793 52.6316 59.8282 52.5494 59.8955 52.4922C59.9628 52.4344 60.0518 52.4055 60.1623 52.4055C60.2671 52.4055 60.3535 52.4341 60.4214 52.4912C60.4894 52.5478 60.5399 52.6297 60.5729 52.737C60.6059 52.8437 60.6225 52.9721 60.6225 53.122ZM59.8631 53.122C59.8631 53.2515 59.873 53.3595 59.8926 53.4459C59.9123 53.5323 59.9441 53.5971 59.9879 53.6402C60.0324 53.6828 60.0905 53.7041 60.1623 53.7041C60.234 53.7041 60.2918 53.6828 60.3357 53.6402C60.3801 53.5977 60.4122 53.5332 60.4319 53.4468C60.4522 53.3605 60.4624 53.2522 60.4624 53.122C60.4624 52.9943 60.4525 52.8876 60.4329 52.8018C60.4132 52.7154 60.3814 52.6507 60.3376 52.6075C60.2938 52.5636 60.2353 52.5417 60.1623 52.5417C60.0892 52.5417 60.0308 52.5636 59.987 52.6075C59.9431 52.6507 59.9114 52.7154 59.8917 52.8018C59.8726 52.8876 59.8631 52.9943 59.8631 53.122ZM61.7391 53.122C61.7391 53.235 61.7305 53.336 61.7133 53.4249C61.6962 53.5138 61.6692 53.5891 61.6324 53.6507C61.5955 53.7123 61.5479 53.7593 61.4894 53.7917C61.431 53.8235 61.3608 53.8394 61.2789 53.8394C61.1754 53.8394 61.0896 53.8111 61.0217 53.7546C60.9543 53.698 60.9038 53.6164 60.8702 53.5097C60.8371 53.4024 60.8206 53.2731 60.8206 53.122C60.8206 52.9733 60.8355 52.8457 60.8654 52.7389C60.8959 52.6316 60.9448 52.5494 61.0121 52.4922C61.0795 52.4344 61.1684 52.4055 61.2789 52.4055C61.3837 52.4055 61.4701 52.4341 61.538 52.4912C61.606 52.5478 61.6565 52.6297 61.6895 52.737C61.7226 52.8437 61.7391 52.9721 61.7391 53.122ZM60.9797 53.122C60.9797 53.2515 60.9896 53.3595 61.0093 53.4459C61.029 53.5323 61.0607 53.5971 61.1045 53.6402C61.149 53.6828 61.2071 53.7041 61.2789 53.7041C61.3507 53.7041 61.4085 53.6828 61.4523 53.6402C61.4968 53.5977 61.5288 53.5332 61.5485 53.4468C61.5688 53.3605 61.579 53.2522 61.579 53.122C61.579 52.9943 61.5692 52.8876 61.5495 52.8018C61.5298 52.7154 61.498 52.6507 61.4542 52.6075C61.4104 52.5636 61.3519 52.5417 61.2789 52.5417C61.2058 52.5417 61.1474 52.5636 61.1036 52.6075C61.0598 52.6507 61.028 52.7154 61.0083 52.8018C60.9893 52.8876 60.9797 52.9943 60.9797 53.122Z" fill="#212121"/>
<rect x="65.2677" y="56.6085" width="6.05203" height="3.65854" rx="1.82927" fill="white"/>
<rect x="65.2677" y="56.6085" width="6.05203" height="3.65854" rx="1.82927" stroke="#D6D6D6" stroke-width="0.243902"/>
<path d="M67.3725 58.6145H67.1638V58.9375H67.0095V58.6145H66.3359V58.4811L66.999 57.537H67.1638V58.4716H67.3725V58.6145ZM67.0095 58.4716V58.0162C67.0095 57.9813 67.0098 57.9498 67.0104 57.9219C67.011 57.8933 67.012 57.8669 67.0133 57.8428C67.0145 57.818 67.0155 57.7945 67.0161 57.7723C67.0174 57.7501 67.0183 57.7282 67.019 57.7066H67.0114C66.9993 57.732 66.9853 57.759 66.9694 57.7875C66.9542 57.8155 66.9386 57.8406 66.9228 57.8628L66.4931 58.4716H67.0095ZM68.4271 58.2391C68.4271 58.3522 68.4186 58.4532 68.4014 58.5421C68.3843 58.631 68.3573 58.7063 68.3204 58.7679C68.2836 58.8295 68.236 58.8765 68.1775 58.9089C68.1191 58.9407 68.0489 58.9566 67.967 58.9566C67.8634 58.9566 67.7777 58.9283 67.7097 58.8718C67.6424 58.8152 67.5919 58.7336 67.5582 58.6269C67.5252 58.5196 67.5087 58.3903 67.5087 58.2391C67.5087 58.0905 67.5236 57.9628 67.5535 57.8561C67.584 57.7488 67.6329 57.6665 67.7002 57.6094C67.7675 57.5516 67.8564 57.5227 67.967 57.5227C68.0718 57.5227 68.1581 57.5513 68.2261 57.6084C68.2941 57.665 68.3446 57.7469 68.3776 57.8542C68.4106 57.9609 68.4271 58.0892 68.4271 58.2391ZM67.6678 58.2391C67.6678 58.3687 67.6776 58.4767 67.6973 58.5631C67.717 58.6495 67.7488 58.7142 67.7926 58.7574C67.8371 58.8 67.8952 58.8213 67.967 58.8213C68.0387 58.8213 68.0965 58.8 68.1404 58.7574C68.1848 58.7149 68.2169 58.6504 68.2366 58.564C68.2569 58.4776 68.2671 58.3693 68.2671 58.2391C68.2671 58.1115 68.2572 58.0048 68.2375 57.919C68.2179 57.8326 68.1861 57.7678 68.1423 57.7247C68.0984 57.6808 68.04 57.6589 67.967 57.6589C67.8939 57.6589 67.8355 57.6808 67.7917 57.7247C67.7478 57.7678 67.7161 57.8326 67.6964 57.919C67.6773 58.0048 67.6678 58.1115 67.6678 58.2391ZM69.5438 58.2391C69.5438 58.3522 69.5352 58.4532 69.518 58.5421C69.5009 58.631 69.4739 58.7063 69.437 58.7679C69.4002 58.8295 69.3526 58.8765 69.2941 58.9089C69.2357 58.9407 69.1655 58.9566 69.0836 58.9566C68.98 58.9566 68.8943 58.9283 68.8263 58.8718C68.759 58.8152 68.7085 58.7336 68.6749 58.6269C68.6418 58.5196 68.6253 58.3903 68.6253 58.2391C68.6253 58.0905 68.6402 57.9628 68.6701 57.8561C68.7006 57.7488 68.7495 57.6665 68.8168 57.6094C68.8841 57.5516 68.9731 57.5227 69.0836 57.5227C69.1884 57.5227 69.2748 57.5513 69.3427 57.6084C69.4107 57.665 69.4612 57.7469 69.4942 57.8542C69.5272 57.9609 69.5438 58.0892 69.5438 58.2391ZM68.7844 58.2391C68.7844 58.3687 68.7943 58.4767 68.814 58.5631C68.8336 58.6495 68.8654 58.7142 68.9092 58.7574C68.9537 58.8 69.0118 58.8213 69.0836 58.8213C69.1554 58.8213 69.2132 58.8 69.257 58.7574C69.3014 58.7149 69.3335 58.6504 69.3532 58.564C69.3735 58.4776 69.3837 58.3693 69.3837 58.2391C69.3837 58.1115 69.3738 58.0048 69.3542 57.919C69.3345 57.8326 69.3027 57.7678 69.2589 57.7247C69.2151 57.6808 69.1566 57.6589 69.0836 57.6589C69.0105 57.6589 68.9521 57.6808 68.9083 57.7247C68.8644 57.7678 68.8327 57.8326 68.813 57.919C68.7939 58.0048 68.7844 58.1115 68.7844 58.2391Z" fill="#212121"/>
<rect x="74.048" y="43.9288" width="6.05203" height="3.65854" rx="1.82927" fill="white"/>
<rect x="74.048" y="43.9288" width="6.05203" height="3.65854" rx="1.82927" stroke="#D6D6D6" stroke-width="0.243902"/>
<path d="M75.1847 45.6623C75.1847 45.5785 75.1905 45.4966 75.2019 45.4165C75.214 45.3365 75.234 45.2622 75.2619 45.1936C75.2899 45.1244 75.328 45.0637 75.3762 45.0116C75.4245 44.9595 75.4845 44.9189 75.5563 44.8897C75.6287 44.8598 75.7154 44.8449 75.8164 44.8449C75.845 44.8449 75.8758 44.8465 75.9088 44.8497C75.9419 44.8522 75.9692 44.8566 75.9908 44.863V44.9992C75.9673 44.991 75.9403 44.9849 75.9098 44.9811C75.8799 44.9773 75.8498 44.9754 75.8193 44.9754C75.7011 44.9754 75.6081 45.0011 75.5401 45.0526C75.4728 45.104 75.4242 45.1739 75.3943 45.2622C75.3645 45.3498 75.3473 45.4486 75.3429 45.5585H75.3534C75.3731 45.5267 75.3982 45.4982 75.4286 45.4728C75.4591 45.4467 75.496 45.4261 75.5392 45.4108C75.583 45.3956 75.6338 45.388 75.6916 45.388C75.7729 45.388 75.8437 45.4045 75.9041 45.4375C75.965 45.4705 76.012 45.5185 76.0451 45.5814C76.0787 45.6442 76.0956 45.7205 76.0956 45.81C76.0956 45.9059 76.0778 45.9888 76.0422 46.0587C76.0066 46.1286 75.9558 46.1825 75.8898 46.2207C75.8243 46.2581 75.7462 46.2769 75.6554 46.2769C75.5874 46.2769 75.5249 46.2638 75.4677 46.2378C75.4105 46.2118 75.3607 46.173 75.3181 46.1216C75.2762 46.0701 75.2435 46.0063 75.22 45.9301C75.1965 45.8532 75.1847 45.764 75.1847 45.6623ZM75.6535 46.1435C75.7399 46.1435 75.8091 46.1159 75.8612 46.0606C75.9133 46.0053 75.9393 45.9218 75.9393 45.81C75.9393 45.7186 75.9161 45.6462 75.8698 45.5928C75.8234 45.5394 75.7535 45.5128 75.6602 45.5128C75.5966 45.5128 75.5414 45.5261 75.4944 45.5528C75.4474 45.5788 75.4109 45.6119 75.3848 45.6519C75.3588 45.6919 75.3458 45.7325 75.3458 45.7738C75.3458 45.8157 75.3518 45.8583 75.3639 45.9015C75.3766 45.9447 75.3956 45.9847 75.421 46.0215C75.4464 46.0584 75.4785 46.0879 75.5172 46.1101C75.556 46.1324 75.6014 46.1435 75.6535 46.1435ZM76.7272 45.4061C76.8219 45.4061 76.9041 45.4223 76.974 45.4546C77.0439 45.4864 77.0978 45.5328 77.136 45.5937C77.1747 45.6547 77.1941 45.7287 77.1941 45.8157C77.1941 45.911 77.1734 45.9933 77.1321 46.0625C77.0909 46.1311 77.0315 46.1841 76.954 46.2216C76.8765 46.2584 76.7838 46.2769 76.6758 46.2769C76.6034 46.2769 76.536 46.2705 76.4738 46.2578C76.4116 46.2451 76.3592 46.2261 76.3166 46.2006V46.0501C76.363 46.0781 76.4192 46.1003 76.4852 46.1168C76.5513 46.1333 76.6154 46.1416 76.6777 46.1416C76.7482 46.1416 76.8098 46.1305 76.8625 46.1082C76.9159 46.0854 76.9572 46.0511 76.9864 46.0053C77.0162 45.959 77.0312 45.9009 77.0312 45.831C77.0312 45.7382 77.0026 45.6668 76.9454 45.6166C76.8889 45.5658 76.7993 45.5404 76.6767 45.5404C76.6374 45.5404 76.5942 45.5436 76.5472 45.5499C76.5002 45.5563 76.4614 45.5633 76.4309 45.5709L76.3509 45.5185L76.4042 44.8649H77.0969V45.0097H76.5395L76.5043 45.4299C76.5284 45.4248 76.5595 45.4197 76.5977 45.4146C76.6358 45.4089 76.679 45.4061 76.7272 45.4061ZM78.324 45.5595C78.324 45.6725 78.3155 45.7735 78.2983 45.8624C78.2812 45.9513 78.2542 46.0266 78.2173 46.0882C78.1805 46.1498 78.1328 46.1968 78.0744 46.2292C78.016 46.261 77.9458 46.2769 77.8639 46.2769C77.7603 46.2769 77.6746 46.2486 77.6066 46.1921C77.5393 46.1355 77.4888 46.0539 77.4551 45.9472C77.4221 45.8399 77.4056 45.7106 77.4056 45.5595C77.4056 45.4108 77.4205 45.2832 77.4504 45.1764C77.4808 45.0691 77.5298 44.9869 77.5971 44.9297C77.6644 44.8719 77.7533 44.843 77.8639 44.843C77.9687 44.843 78.055 44.8716 78.123 44.9287C78.191 44.9853 78.2415 45.0672 78.2745 45.1745C78.3075 45.2812 78.324 45.4096 78.324 45.5595ZM77.5647 45.5595C77.5647 45.689 77.5745 45.797 77.5942 45.8834C77.6139 45.9698 77.6457 46.0346 77.6895 46.0777C77.734 46.1203 77.7921 46.1416 77.8639 46.1416C77.9356 46.1416 77.9934 46.1203 78.0373 46.0777C78.0817 46.0352 78.1138 45.9707 78.1335 45.8843C78.1538 45.798 78.164 45.6897 78.164 45.5595C78.164 45.4318 78.1541 45.3251 78.1344 45.2393C78.1147 45.1529 78.083 45.0882 78.0392 45.045C77.9953 45.0011 77.9369 44.9792 77.8639 44.9792C77.7908 44.9792 77.7324 45.0011 77.6885 45.045C77.6447 45.0882 77.613 45.1529 77.5933 45.2393C77.5742 45.3251 77.5647 45.4318 77.5647 45.5595Z" fill="#212121"/>
<defs>
<linearGradient id="paint0_linear_7927_89919" x1="48.9266" y1="37.9531" x2="48.9266" y2="73.8068" gradientUnits="userSpaceOnUse">
<stop stop-color="#02CDD7"/>
<stop offset="1" stop-color="#02CDD7" stop-opacity="0"/>
</linearGradient>
</defs>
</svg>
