<svg width="93" height="92" viewBox="0 0 93 92" fill="none" xmlns="http://www.w3.org/2000/svg">
<rect x="1.26092" y="0.389831" width="91.079" height="91.2203" rx="17.5424" stroke="#BEBEBE" stroke-width="0.779661"/>
<rect width="70" height="60.7317" transform="translate(12 16)" fill="white"/>
<path d="M21.7559 21.8555V68.9286" stroke="#E0E0E0" stroke-width="0.243902"/>
<path d="M15.8589 23.8555H14.9462V23.723L15.3187 23.3448C15.3879 23.2749 15.446 23.2127 15.493 23.1581C15.5407 23.1034 15.5769 23.0498 15.6017 22.997C15.6264 22.9437 15.6388 22.8853 15.6388 22.8217C15.6388 22.743 15.6153 22.683 15.5683 22.6417C15.5219 22.5998 15.4607 22.5788 15.3844 22.5788C15.3177 22.5788 15.2587 22.5902 15.2072 22.6131C15.1558 22.636 15.1031 22.6683 15.0491 22.7103L14.9643 22.6036C15.0011 22.5724 15.0411 22.5448 15.0843 22.5207C15.1281 22.4965 15.1748 22.4775 15.2244 22.4635C15.2745 22.4495 15.3279 22.4425 15.3844 22.4425C15.4702 22.4425 15.5442 22.4575 15.6064 22.4873C15.6687 22.5172 15.7166 22.5597 15.7503 22.615C15.7846 22.6703 15.8017 22.736 15.8017 22.8122C15.8017 22.8859 15.7871 22.9545 15.7579 23.018C15.7287 23.0809 15.6877 23.1435 15.635 23.2057C15.5823 23.2673 15.5207 23.3327 15.4502 23.402L15.1472 23.704V23.7107H15.8589V23.8555ZM16.503 23.0037C16.5976 23.0037 16.6798 23.0199 16.7497 23.0523C16.8196 23.0841 16.8736 23.1304 16.9117 23.1914C16.9504 23.2524 16.9698 23.3264 16.9698 23.4134C16.9698 23.5087 16.9492 23.5909 16.9079 23.6602C16.8666 23.7288 16.8072 23.7818 16.7297 23.8193C16.6522 23.8561 16.5595 23.8745 16.4515 23.8745C16.3791 23.8745 16.3118 23.8682 16.2495 23.8555C16.1873 23.8428 16.1349 23.8237 16.0923 23.7983V23.6478C16.1387 23.6757 16.1949 23.6979 16.261 23.7145C16.327 23.731 16.3912 23.7392 16.4534 23.7392C16.5239 23.7392 16.5855 23.7281 16.6382 23.7059C16.6916 23.683 16.7329 23.6487 16.7621 23.603C16.792 23.5566 16.8069 23.4985 16.8069 23.4286C16.8069 23.3359 16.7783 23.2644 16.7211 23.2143C16.6646 23.1635 16.575 23.1381 16.4525 23.1381C16.4131 23.1381 16.3699 23.1412 16.3229 23.1476C16.2759 23.1539 16.2371 23.1609 16.2067 23.1685L16.1266 23.1161L16.18 22.4626H16.8726V22.6074H16.3153L16.28 23.0275C16.3041 23.0225 16.3353 23.0174 16.3734 23.0123C16.4115 23.0066 16.4547 23.0037 16.503 23.0037ZM18.0998 23.1571C18.0998 23.2702 18.0912 23.3712 18.074 23.4601C18.0569 23.549 18.0299 23.6243 17.993 23.6859C17.9562 23.7475 17.9086 23.7945 17.8501 23.8269C17.7917 23.8586 17.7215 23.8745 17.6396 23.8745C17.536 23.8745 17.4503 23.8463 17.3823 23.7897C17.315 23.7332 17.2645 23.6516 17.2308 23.5449C17.1978 23.4375 17.1813 23.3083 17.1813 23.1571C17.1813 23.0085 17.1962 22.8808 17.2261 22.7741C17.2566 22.6668 17.3055 22.5845 17.3728 22.5273C17.4401 22.4695 17.5291 22.4406 17.6396 22.4406C17.7444 22.4406 17.8308 22.4692 17.8987 22.5264C17.9667 22.5829 18.0172 22.6649 18.0502 22.7722C18.0832 22.8789 18.0998 23.0072 18.0998 23.1571ZM17.3404 23.1571C17.3404 23.2867 17.3503 23.3947 17.37 23.481C17.3896 23.5674 17.4214 23.6322 17.4652 23.6754C17.5097 23.718 17.5678 23.7392 17.6396 23.7392C17.7114 23.7392 17.7692 23.718 17.813 23.6754C17.8574 23.6328 17.8895 23.5684 17.9092 23.482C17.9295 23.3956 17.9397 23.2873 17.9397 23.1571C17.9397 23.0294 17.9298 22.9227 17.9102 22.837C17.8905 22.7506 17.8587 22.6858 17.8149 22.6426C17.7711 22.5988 17.7126 22.5769 17.6396 22.5769C17.5665 22.5769 17.5081 22.5988 17.4643 22.6426C17.4204 22.6858 17.3887 22.7506 17.369 22.837C17.3499 22.9227 17.3404 23.0294 17.3404 23.1571ZM19.2164 23.1571C19.2164 23.2702 19.2078 23.3712 19.1906 23.4601C19.1735 23.549 19.1465 23.6243 19.1097 23.6859C19.0728 23.7475 19.0252 23.7945 18.9667 23.8269C18.9083 23.8586 18.8381 23.8745 18.7562 23.8745C18.6527 23.8745 18.5669 23.8463 18.499 23.7897C18.4316 23.7332 18.3811 23.6516 18.3475 23.5449C18.3144 23.4375 18.2979 23.3083 18.2979 23.1571C18.2979 23.0085 18.3128 22.8808 18.3427 22.7741C18.3732 22.6668 18.4221 22.5845 18.4894 22.5273C18.5568 22.4695 18.6457 22.4406 18.7562 22.4406C18.861 22.4406 18.9474 22.4692 19.0153 22.5264C19.0833 22.5829 19.1338 22.6649 19.1668 22.7722C19.1999 22.8789 19.2164 23.0072 19.2164 23.1571ZM18.457 23.1571C18.457 23.2867 18.4669 23.3947 18.4866 23.481C18.5063 23.5674 18.538 23.6322 18.5818 23.6754C18.6263 23.718 18.6844 23.7392 18.7562 23.7392C18.828 23.7392 18.8858 23.718 18.9296 23.6754C18.9741 23.6328 19.0061 23.5684 19.0258 23.482C19.0461 23.3956 19.0563 23.2873 19.0563 23.1571C19.0563 23.0294 19.0465 22.9227 19.0268 22.837C19.0071 22.7506 18.9753 22.6858 18.9315 22.6426C18.8877 22.5988 18.8292 22.5769 18.7562 22.5769C18.6831 22.5769 18.6247 22.5988 18.5809 22.6426C18.5371 22.6858 18.5053 22.7506 18.4856 22.837C18.4666 22.9227 18.457 23.0294 18.457 23.1571Z" fill="#212121"/>
<path d="M15.8589 31.2461H14.9462V31.1137L15.3187 30.7354C15.3879 30.6656 15.446 30.6033 15.493 30.5487C15.5407 30.4941 15.5769 30.4404 15.6017 30.3877C15.6264 30.3343 15.6388 30.2759 15.6388 30.2124C15.6388 30.1336 15.6153 30.0736 15.5683 30.0323C15.5219 29.9904 15.4607 29.9694 15.3844 29.9694C15.3177 29.9694 15.2587 29.9808 15.2072 30.0037C15.1558 30.0266 15.1031 30.059 15.0491 30.1009L14.9643 29.9942C15.0011 29.9631 15.0411 29.9354 15.0843 29.9113C15.1281 29.8872 15.1748 29.8681 15.2244 29.8541C15.2745 29.8402 15.3279 29.8332 15.3844 29.8332C15.4702 29.8332 15.5442 29.8481 15.6064 29.878C15.6687 29.9078 15.7166 29.9504 15.7503 30.0056C15.7846 30.0609 15.8017 30.1266 15.8017 30.2028C15.8017 30.2765 15.7871 30.3451 15.7579 30.4086C15.7287 30.4715 15.6877 30.5341 15.635 30.5963C15.5823 30.6579 15.5207 30.7234 15.4502 30.7926L15.1472 31.0946V31.1013H15.8589V31.2461ZM16.9831 30.5477C16.9831 30.6608 16.9746 30.7618 16.9574 30.8507C16.9403 30.9396 16.9133 31.0149 16.8764 31.0765C16.8396 31.1381 16.792 31.1851 16.7335 31.2175C16.6751 31.2493 16.6049 31.2651 16.523 31.2651C16.4194 31.2651 16.3337 31.2369 16.2657 31.1804C16.1984 31.1238 16.1479 31.0422 16.1142 30.9355C16.0812 30.8282 16.0647 30.6989 16.0647 30.5477C16.0647 30.3991 16.0796 30.2714 16.1095 30.1647C16.14 30.0574 16.1889 29.9751 16.2562 29.918C16.3235 29.8602 16.4124 29.8313 16.523 29.8313C16.6278 29.8313 16.7141 29.8599 16.7821 29.917C16.8501 29.9735 16.9006 30.0555 16.9336 30.1628C16.9666 30.2695 16.9831 30.3978 16.9831 30.5477ZM16.2238 30.5477C16.2238 30.6773 16.2336 30.7853 16.2533 30.8717C16.273 30.958 16.3048 31.0228 16.3486 31.066C16.3931 31.1086 16.4512 31.1299 16.523 31.1299C16.5947 31.1299 16.6525 31.1086 16.6964 31.066C16.7408 31.0235 16.7729 30.959 16.7926 30.8726C16.8129 30.7862 16.8231 30.6779 16.8231 30.5477C16.8231 30.4201 16.8132 30.3134 16.7935 30.2276C16.7739 30.1412 16.7421 30.0764 16.6983 30.0333C16.6544 29.9894 16.596 29.9675 16.523 29.9675C16.4499 29.9675 16.3915 29.9894 16.3477 30.0333C16.3038 30.0764 16.2721 30.1412 16.2524 30.2276C16.2333 30.3134 16.2238 30.4201 16.2238 30.5477ZM18.0998 30.5477C18.0998 30.6608 18.0912 30.7618 18.074 30.8507C18.0569 30.9396 18.0299 31.0149 17.993 31.0765C17.9562 31.1381 17.9086 31.1851 17.8501 31.2175C17.7917 31.2493 17.7215 31.2651 17.6396 31.2651C17.536 31.2651 17.4503 31.2369 17.3823 31.1804C17.315 31.1238 17.2645 31.0422 17.2308 30.9355C17.1978 30.8282 17.1813 30.6989 17.1813 30.5477C17.1813 30.3991 17.1962 30.2714 17.2261 30.1647C17.2566 30.0574 17.3055 29.9751 17.3728 29.918C17.4401 29.8602 17.5291 29.8313 17.6396 29.8313C17.7444 29.8313 17.8308 29.8599 17.8987 29.917C17.9667 29.9735 18.0172 30.0555 18.0502 30.1628C18.0832 30.2695 18.0998 30.3978 18.0998 30.5477ZM17.3404 30.5477C17.3404 30.6773 17.3503 30.7853 17.37 30.8717C17.3896 30.958 17.4214 31.0228 17.4652 31.066C17.5097 31.1086 17.5678 31.1299 17.6396 31.1299C17.7114 31.1299 17.7692 31.1086 17.813 31.066C17.8574 31.0235 17.8895 30.959 17.9092 30.8726C17.9295 30.7862 17.9397 30.6779 17.9397 30.5477C17.9397 30.4201 17.9298 30.3134 17.9102 30.2276C17.8905 30.1412 17.8587 30.0764 17.8149 30.0333C17.7711 29.9894 17.7126 29.9675 17.6396 29.9675C17.5665 29.9675 17.5081 29.9894 17.4643 30.0333C17.4204 30.0764 17.3887 30.1412 17.369 30.2276C17.3499 30.3134 17.3404 30.4201 17.3404 30.5477ZM19.2164 30.5477C19.2164 30.6608 19.2078 30.7618 19.1906 30.8507C19.1735 30.9396 19.1465 31.0149 19.1097 31.0765C19.0728 31.1381 19.0252 31.1851 18.9667 31.2175C18.9083 31.2493 18.8381 31.2651 18.7562 31.2651C18.6527 31.2651 18.5669 31.2369 18.499 31.1804C18.4316 31.1238 18.3811 31.0422 18.3475 30.9355C18.3144 30.8282 18.2979 30.6989 18.2979 30.5477C18.2979 30.3991 18.3128 30.2714 18.3427 30.1647C18.3732 30.0574 18.4221 29.9751 18.4894 29.918C18.5568 29.8602 18.6457 29.8313 18.7562 29.8313C18.861 29.8313 18.9474 29.8599 19.0153 29.917C19.0833 29.9735 19.1338 30.0555 19.1668 30.1628C19.1999 30.2695 19.2164 30.3978 19.2164 30.5477ZM18.457 30.5477C18.457 30.6773 18.4669 30.7853 18.4866 30.8717C18.5063 30.958 18.538 31.0228 18.5818 31.066C18.6263 31.1086 18.6844 31.1299 18.7562 31.1299C18.828 31.1299 18.8858 31.1086 18.9296 31.066C18.9741 31.0235 19.0061 30.959 19.0258 30.8726C19.0461 30.7862 19.0563 30.6779 19.0563 30.5477C19.0563 30.4201 19.0465 30.3134 19.0268 30.2276C19.0071 30.1412 18.9753 30.0764 18.9315 30.0333C18.8877 29.9894 18.8292 29.9675 18.7562 29.9675C18.6831 29.9675 18.6247 29.9894 18.5809 30.0333C18.5371 30.0764 18.5053 30.1412 18.4856 30.2276C18.4666 30.3134 18.457 30.4201 18.457 30.5477Z" fill="#212121"/>
<path d="M15.535 38.6367H15.3806V37.6497C15.3806 37.6122 15.3806 37.5801 15.3806 37.5534C15.3813 37.5261 15.3819 37.5014 15.3825 37.4791C15.3838 37.4563 15.3854 37.4331 15.3873 37.4096C15.3676 37.4299 15.3492 37.4474 15.332 37.462C15.3149 37.476 15.2936 37.4934 15.2682 37.5144L15.1091 37.6421L15.0262 37.5344L15.4035 37.2438H15.535V38.6367ZM16.503 37.785C16.5976 37.785 16.6798 37.8012 16.7497 37.8336C16.8196 37.8653 16.8736 37.9117 16.9117 37.9727C16.9504 38.0336 16.9698 38.1076 16.9698 38.1946C16.9698 38.2899 16.9492 38.3722 16.9079 38.4414C16.8666 38.51 16.8072 38.563 16.7297 38.6005C16.6522 38.6374 16.5595 38.6558 16.4515 38.6558C16.3791 38.6558 16.3118 38.6494 16.2495 38.6367C16.1873 38.624 16.1349 38.605 16.0923 38.5796V38.429C16.1387 38.457 16.1949 38.4792 16.261 38.4957C16.327 38.5122 16.3912 38.5205 16.4534 38.5205C16.5239 38.5205 16.5855 38.5094 16.6382 38.4871C16.6916 38.4643 16.7329 38.43 16.7621 38.3842C16.792 38.3379 16.8069 38.2798 16.8069 38.2099C16.8069 38.1172 16.7783 38.0457 16.7211 37.9955C16.6646 37.9447 16.575 37.9193 16.4525 37.9193C16.4131 37.9193 16.3699 37.9225 16.3229 37.9288C16.2759 37.9352 16.2371 37.9422 16.2067 37.9498L16.1266 37.8974L16.18 37.2438H16.8726V37.3886H16.3153L16.28 37.8088C16.3041 37.8037 16.3353 37.7986 16.3734 37.7935C16.4115 37.7878 16.4547 37.785 16.503 37.785ZM18.0998 37.9384C18.0998 38.0514 18.0912 38.1524 18.074 38.2413C18.0569 38.3303 18.0299 38.4055 17.993 38.4671C17.9562 38.5287 17.9086 38.5757 17.8501 38.6081C17.7917 38.6399 17.7215 38.6558 17.6396 38.6558C17.536 38.6558 17.4503 38.6275 17.3823 38.571C17.315 38.5144 17.2645 38.4328 17.2308 38.3261C17.1978 38.2188 17.1813 38.0895 17.1813 37.9384C17.1813 37.7897 17.1962 37.6621 17.2261 37.5554C17.2566 37.448 17.3055 37.3658 17.3728 37.3086C17.4401 37.2508 17.5291 37.2219 17.6396 37.2219C17.7444 37.2219 17.8308 37.2505 17.8987 37.3076C17.9667 37.3642 18.0172 37.4461 18.0502 37.5534C18.0832 37.6602 18.0998 37.7885 18.0998 37.9384ZM17.3404 37.9384C17.3404 38.0679 17.3503 38.1759 17.37 38.2623C17.3896 38.3487 17.4214 38.4135 17.4652 38.4567C17.5097 38.4992 17.5678 38.5205 17.6396 38.5205C17.7114 38.5205 17.7692 38.4992 17.813 38.4567C17.8574 38.4141 17.8895 38.3496 17.9092 38.2632C17.9295 38.1769 17.9397 38.0686 17.9397 37.9384C17.9397 37.8107 17.9298 37.704 17.9102 37.6182C17.8905 37.5319 17.8587 37.4671 17.8149 37.4239C17.7711 37.38 17.7126 37.3581 17.6396 37.3581C17.5665 37.3581 17.5081 37.38 17.4643 37.4239C17.4204 37.4671 17.3887 37.5319 17.369 37.6182C17.3499 37.704 17.3404 37.8107 17.3404 37.9384ZM19.2164 37.9384C19.2164 38.0514 19.2078 38.1524 19.1906 38.2413C19.1735 38.3303 19.1465 38.4055 19.1097 38.4671C19.0728 38.5287 19.0252 38.5757 18.9667 38.6081C18.9083 38.6399 18.8381 38.6558 18.7562 38.6558C18.6527 38.6558 18.5669 38.6275 18.499 38.571C18.4316 38.5144 18.3811 38.4328 18.3475 38.3261C18.3144 38.2188 18.2979 38.0895 18.2979 37.9384C18.2979 37.7897 18.3128 37.6621 18.3427 37.5554C18.3732 37.448 18.4221 37.3658 18.4894 37.3086C18.5568 37.2508 18.6457 37.2219 18.7562 37.2219C18.861 37.2219 18.9474 37.2505 19.0153 37.3076C19.0833 37.3642 19.1338 37.4461 19.1668 37.5534C19.1999 37.6602 19.2164 37.7885 19.2164 37.9384ZM18.457 37.9384C18.457 38.0679 18.4669 38.1759 18.4866 38.2623C18.5063 38.3487 18.538 38.4135 18.5818 38.4567C18.6263 38.4992 18.6844 38.5205 18.7562 38.5205C18.828 38.5205 18.8858 38.4992 18.9296 38.4567C18.9741 38.4141 19.0061 38.3496 19.0258 38.2632C19.0461 38.1769 19.0563 38.0686 19.0563 37.9384C19.0563 37.8107 19.0465 37.704 19.0268 37.6182C19.0071 37.5319 18.9753 37.4671 18.9315 37.4239C18.8877 37.38 18.8292 37.3581 18.7562 37.3581C18.6831 37.3581 18.6247 37.38 18.5809 37.4239C18.5371 37.4671 18.5053 37.5319 18.4856 37.6182C18.4666 37.704 18.457 37.8107 18.457 37.9384Z" fill="#212121"/>
<path d="M15.535 46.0273H15.3806V45.0403C15.3806 45.0028 15.3806 44.9708 15.3806 44.9441C15.3813 44.9168 15.3819 44.892 15.3825 44.8698C15.3838 44.8469 15.3854 44.8237 15.3873 44.8002C15.3676 44.8205 15.3492 44.838 15.332 44.8526C15.3149 44.8666 15.2936 44.8841 15.2682 44.905L15.1091 45.0327L15.0262 44.925L15.4035 44.6344H15.535V46.0273ZM16.9831 45.329C16.9831 45.442 16.9746 45.543 16.9574 45.632C16.9403 45.7209 16.9133 45.7961 16.8764 45.8578C16.8396 45.9194 16.792 45.9664 16.7335 45.9988C16.6751 46.0305 16.6049 46.0464 16.523 46.0464C16.4194 46.0464 16.3337 46.0181 16.2657 45.9616C16.1984 45.9051 16.1479 45.8235 16.1142 45.7167C16.0812 45.6094 16.0647 45.4802 16.0647 45.329C16.0647 45.1804 16.0796 45.0527 16.1095 44.946C16.14 44.8386 16.1889 44.7564 16.2562 44.6992C16.3235 44.6414 16.4124 44.6125 16.523 44.6125C16.6278 44.6125 16.7141 44.6411 16.7821 44.6983C16.8501 44.7548 16.9006 44.8367 16.9336 44.9441C16.9666 45.0508 16.9831 45.1791 16.9831 45.329ZM16.2238 45.329C16.2238 45.4586 16.2336 45.5665 16.2533 45.6529C16.273 45.7393 16.3048 45.8041 16.3486 45.8473C16.3931 45.8898 16.4512 45.9111 16.523 45.9111C16.5947 45.9111 16.6525 45.8898 16.6964 45.8473C16.7408 45.8047 16.7729 45.7403 16.7926 45.6539C16.8129 45.5675 16.8231 45.4592 16.8231 45.329C16.8231 45.2013 16.8132 45.0946 16.7935 45.0089C16.7739 44.9225 16.7421 44.8577 16.6983 44.8145C16.6544 44.7707 16.596 44.7488 16.523 44.7488C16.4499 44.7488 16.3915 44.7707 16.3477 44.8145C16.3038 44.8577 16.2721 44.9225 16.2524 45.0089C16.2333 45.0946 16.2238 45.2013 16.2238 45.329ZM18.0998 45.329C18.0998 45.442 18.0912 45.543 18.074 45.632C18.0569 45.7209 18.0299 45.7961 17.993 45.8578C17.9562 45.9194 17.9086 45.9664 17.8501 45.9988C17.7917 46.0305 17.7215 46.0464 17.6396 46.0464C17.536 46.0464 17.4503 46.0181 17.3823 45.9616C17.315 45.9051 17.2645 45.8235 17.2308 45.7167C17.1978 45.6094 17.1813 45.4802 17.1813 45.329C17.1813 45.1804 17.1962 45.0527 17.2261 44.946C17.2566 44.8386 17.3055 44.7564 17.3728 44.6992C17.4401 44.6414 17.5291 44.6125 17.6396 44.6125C17.7444 44.6125 17.8308 44.6411 17.8987 44.6983C17.9667 44.7548 18.0172 44.8367 18.0502 44.9441C18.0832 45.0508 18.0998 45.1791 18.0998 45.329ZM17.3404 45.329C17.3404 45.4586 17.3503 45.5665 17.37 45.6529C17.3896 45.7393 17.4214 45.8041 17.4652 45.8473C17.5097 45.8898 17.5678 45.9111 17.6396 45.9111C17.7114 45.9111 17.7692 45.8898 17.813 45.8473C17.8574 45.8047 17.8895 45.7403 17.9092 45.6539C17.9295 45.5675 17.9397 45.4592 17.9397 45.329C17.9397 45.2013 17.9298 45.0946 17.9102 45.0089C17.8905 44.9225 17.8587 44.8577 17.8149 44.8145C17.7711 44.7707 17.7126 44.7488 17.6396 44.7488C17.5665 44.7488 17.5081 44.7707 17.4643 44.8145C17.4204 44.8577 17.3887 44.9225 17.369 45.0089C17.3499 45.0946 17.3404 45.2013 17.3404 45.329ZM19.2164 45.329C19.2164 45.442 19.2078 45.543 19.1906 45.632C19.1735 45.7209 19.1465 45.7961 19.1097 45.8578C19.0728 45.9194 19.0252 45.9664 18.9667 45.9988C18.9083 46.0305 18.8381 46.0464 18.7562 46.0464C18.6527 46.0464 18.5669 46.0181 18.499 45.9616C18.4316 45.9051 18.3811 45.8235 18.3475 45.7167C18.3144 45.6094 18.2979 45.4802 18.2979 45.329C18.2979 45.1804 18.3128 45.0527 18.3427 44.946C18.3732 44.8386 18.4221 44.7564 18.4894 44.6992C18.5568 44.6414 18.6457 44.6125 18.7562 44.6125C18.861 44.6125 18.9474 44.6411 19.0153 44.6983C19.0833 44.7548 19.1338 44.8367 19.1668 44.9441C19.1999 45.0508 19.2164 45.1791 19.2164 45.329ZM18.457 45.329C18.457 45.4586 18.4669 45.5665 18.4866 45.6529C18.5063 45.7393 18.538 45.8041 18.5818 45.8473C18.6263 45.8898 18.6844 45.9111 18.7562 45.9111C18.828 45.9111 18.8858 45.8898 18.9296 45.8473C18.9741 45.8047 19.0061 45.7403 19.0258 45.6539C19.0461 45.5675 19.0563 45.4592 19.0563 45.329C19.0563 45.2013 19.0465 45.0946 19.0268 45.0089C19.0071 44.9225 18.9753 44.8577 18.9315 44.8145C18.8877 44.7707 18.8292 44.7488 18.7562 44.7488C18.6831 44.7488 18.6247 44.7707 18.5809 44.8145C18.5371 44.8577 18.5053 44.9225 18.4856 45.0089C18.4666 45.0946 18.457 45.2013 18.457 45.329Z" fill="#212121"/>
<path d="M16.5035 52.5662C16.5982 52.5662 16.6804 52.5824 16.7503 52.6148C16.8202 52.6466 16.8741 52.6929 16.9123 52.7539C16.951 52.8149 16.9704 52.8889 16.9704 52.9759C16.9704 53.0712 16.9497 53.1534 16.9084 53.2227C16.8672 53.2913 16.8078 53.3443 16.7303 53.3818C16.6528 53.4186 16.5601 53.437 16.4521 53.437C16.3797 53.437 16.3123 53.4307 16.2501 53.418C16.1878 53.4053 16.1354 53.3862 16.0929 53.3608V53.2103C16.1393 53.2382 16.1955 53.2604 16.2615 53.277C16.3276 53.2935 16.3917 53.3017 16.454 53.3017C16.5245 53.3017 16.5861 53.2906 16.6388 53.2684C16.6922 53.2455 16.7335 53.2112 16.7627 53.1655C16.7925 53.1191 16.8075 53.061 16.8075 52.9911C16.8075 52.8984 16.7789 52.8269 16.7217 52.7768C16.6652 52.726 16.5756 52.7006 16.453 52.7006C16.4136 52.7006 16.3705 52.7037 16.3235 52.7101C16.2765 52.7164 16.2377 52.7234 16.2072 52.731L16.1272 52.6786L16.1805 52.0251H16.8732V52.1699H16.3158L16.2806 52.59C16.3047 52.585 16.3358 52.5799 16.374 52.5748C16.4121 52.5691 16.4553 52.5662 16.5035 52.5662ZM18.1003 52.7196C18.1003 52.8327 18.0917 52.9337 18.0746 53.0226C18.0575 53.1115 18.0305 53.1868 17.9936 53.2484C17.9568 53.31 17.9091 53.357 17.8507 53.3894C17.7923 53.4211 17.7221 53.437 17.6401 53.437C17.5366 53.437 17.4509 53.4088 17.3829 53.3522C17.3156 53.2957 17.2651 53.2141 17.2314 53.1074C17.1984 53 17.1819 52.8708 17.1819 52.7196C17.1819 52.571 17.1968 52.4433 17.2267 52.3366C17.2571 52.2293 17.3061 52.147 17.3734 52.0898C17.4407 52.032 17.5296 52.0031 17.6401 52.0031C17.745 52.0031 17.8313 52.0317 17.8993 52.0889C17.9673 52.1454 18.0178 52.2274 18.0508 52.3347C18.0838 52.4414 18.1003 52.5697 18.1003 52.7196ZM17.341 52.7196C17.341 52.8492 17.3508 52.9572 17.3705 53.0435C17.3902 53.1299 17.422 53.1947 17.4658 53.2379C17.5103 53.2805 17.5684 53.3017 17.6401 53.3017C17.7119 53.3017 17.7697 53.2805 17.8135 53.2379C17.858 53.1953 17.8901 53.1309 17.9098 53.0445C17.9301 52.9581 17.9403 52.8498 17.9403 52.7196C17.9403 52.5919 17.9304 52.4852 17.9107 52.3995C17.891 52.3131 17.8593 52.2483 17.8155 52.2051C17.7716 52.1613 17.7132 52.1394 17.6401 52.1394C17.5671 52.1394 17.5087 52.1613 17.4648 52.2051C17.421 52.2483 17.3893 52.3131 17.3696 52.3995C17.3505 52.4852 17.341 52.5919 17.341 52.7196ZM19.2169 52.7196C19.2169 52.8327 19.2084 52.9337 19.1912 53.0226C19.1741 53.1115 19.1471 53.1868 19.1102 53.2484C19.0734 53.31 19.0258 53.357 18.9673 53.3894C18.9089 53.4211 18.8387 53.437 18.7568 53.437C18.6532 53.437 18.5675 53.4088 18.4995 53.3522C18.4322 53.2957 18.3817 53.2141 18.348 53.1074C18.315 53 18.2985 52.8708 18.2985 52.7196C18.2985 52.571 18.3134 52.4433 18.3433 52.3366C18.3738 52.2293 18.4227 52.147 18.49 52.0898C18.5573 52.032 18.6462 52.0031 18.7568 52.0031C18.8616 52.0031 18.9479 52.0317 19.0159 52.0889C19.0839 52.1454 19.1344 52.2274 19.1674 52.3347C19.2004 52.4414 19.2169 52.5697 19.2169 52.7196ZM18.4576 52.7196C18.4576 52.8492 18.4674 52.9572 18.4871 53.0435C18.5068 53.1299 18.5386 53.1947 18.5824 53.2379C18.6269 53.2805 18.685 53.3017 18.7568 53.3017C18.8285 53.3017 18.8863 53.2805 18.9302 53.2379C18.9746 53.1953 19.0067 53.1309 19.0264 53.0445C19.0467 52.9581 19.0569 52.8498 19.0569 52.7196C19.0569 52.5919 19.047 52.4852 19.0273 52.3995C19.0077 52.3131 18.9759 52.2483 18.9321 52.2051C18.8882 52.1613 18.8298 52.1394 18.7568 52.1394C18.6837 52.1394 18.6253 52.1613 18.5815 52.2051C18.5376 52.2483 18.5059 52.3131 18.4862 52.3995C18.4671 52.4852 18.4576 52.5919 18.4576 52.7196Z" fill="#212121"/>
<path d="M16.6522 60.8086H16.4978V59.8216C16.4978 59.7841 16.4978 59.752 16.4978 59.7253C16.4984 59.698 16.4991 59.6732 16.4997 59.651C16.501 59.6281 16.5026 59.605 16.5045 59.5815C16.4848 59.6018 16.4664 59.6193 16.4492 59.6339C16.4321 59.6478 16.4108 59.6653 16.3854 59.6863L16.2263 59.8139L16.1434 59.7063L16.5207 59.4157H16.6522V60.8086ZM18.1003 60.1102C18.1003 60.2233 18.0917 60.3243 18.0746 60.4132C18.0575 60.5021 18.0305 60.5774 17.9936 60.639C17.9568 60.7006 17.9091 60.7476 17.8507 60.78C17.7923 60.8118 17.7221 60.8276 17.6401 60.8276C17.5366 60.8276 17.4509 60.7994 17.3829 60.7429C17.3156 60.6863 17.2651 60.6047 17.2314 60.498C17.1984 60.3907 17.1819 60.2614 17.1819 60.1102C17.1819 59.9616 17.1968 59.8339 17.2267 59.7272C17.2571 59.6199 17.3061 59.5376 17.3734 59.4805C17.4407 59.4227 17.5296 59.3938 17.6401 59.3938C17.745 59.3938 17.8313 59.4224 17.8993 59.4795C17.9673 59.536 18.0178 59.618 18.0508 59.7253C18.0838 59.832 18.1003 59.9603 18.1003 60.1102ZM17.341 60.1102C17.341 60.2398 17.3508 60.3478 17.3705 60.4342C17.3902 60.5205 17.422 60.5853 17.4658 60.6285C17.5103 60.6711 17.5684 60.6924 17.6401 60.6924C17.7119 60.6924 17.7697 60.6711 17.8135 60.6285C17.858 60.586 17.8901 60.5215 17.9098 60.4351C17.9301 60.3487 17.9403 60.2404 17.9403 60.1102C17.9403 59.9826 17.9304 59.8759 17.9107 59.7901C17.891 59.7037 17.8593 59.6389 17.8155 59.5958C17.7716 59.5519 17.7132 59.53 17.6401 59.53C17.5671 59.53 17.5087 59.5519 17.4648 59.5958C17.421 59.6389 17.3893 59.7037 17.3696 59.7901C17.3505 59.8759 17.341 59.9826 17.341 60.1102ZM19.2169 60.1102C19.2169 60.2233 19.2084 60.3243 19.1912 60.4132C19.1741 60.5021 19.1471 60.5774 19.1102 60.639C19.0734 60.7006 19.0258 60.7476 18.9673 60.78C18.9089 60.8118 18.8387 60.8276 18.7568 60.8276C18.6532 60.8276 18.5675 60.7994 18.4995 60.7429C18.4322 60.6863 18.3817 60.6047 18.348 60.498C18.315 60.3907 18.2985 60.2614 18.2985 60.1102C18.2985 59.9616 18.3134 59.8339 18.3433 59.7272C18.3738 59.6199 18.4227 59.5376 18.49 59.4805C18.5573 59.4227 18.6462 59.3938 18.7568 59.3938C18.8616 59.3938 18.9479 59.4224 19.0159 59.4795C19.0839 59.536 19.1344 59.618 19.1674 59.7253C19.2004 59.832 19.2169 59.9603 19.2169 60.1102ZM18.4576 60.1102C18.4576 60.2398 18.4674 60.3478 18.4871 60.4342C18.5068 60.5205 18.5386 60.5853 18.5824 60.6285C18.6269 60.6711 18.685 60.6924 18.7568 60.6924C18.8285 60.6924 18.8863 60.6711 18.9302 60.6285C18.9746 60.586 19.0067 60.5215 19.0264 60.4351C19.0467 60.3487 19.0569 60.2404 19.0569 60.1102C19.0569 59.9826 19.047 59.8759 19.0273 59.7901C19.0077 59.7037 18.9759 59.6389 18.9321 59.5958C18.8882 59.5519 18.8298 59.53 18.7568 59.53C18.6837 59.53 18.6253 59.5519 18.5815 59.5958C18.5376 59.6389 18.5059 59.7037 18.4862 59.7901C18.4671 59.8759 18.4576 59.9826 18.4576 60.1102Z" fill="#212121"/>
<path d="M19.2169 67.497C19.2169 67.61 19.2084 67.711 19.1912 67.7999C19.1741 67.8888 19.1471 67.9641 19.1102 68.0257C19.0734 68.0873 19.0258 68.1343 18.9673 68.1667C18.9089 68.1985 18.8387 68.2144 18.7568 68.2144C18.6532 68.2144 18.5675 68.1861 18.4995 68.1296C18.4322 68.073 18.3817 67.9914 18.348 67.8847C18.315 67.7774 18.2985 67.6481 18.2985 67.497C18.2985 67.3483 18.3134 67.2207 18.3433 67.1139C18.3738 67.0066 18.4227 66.9244 18.49 66.8672C18.5573 66.8094 18.6462 66.7805 18.7568 66.7805C18.8616 66.7805 18.9479 66.8091 19.0159 66.8662C19.0839 66.9228 19.1344 67.0047 19.1674 67.112C19.2004 67.2187 19.2169 67.3471 19.2169 67.497ZM18.4576 67.497C18.4576 67.6265 18.4674 67.7345 18.4871 67.8209C18.5068 67.9073 18.5386 67.9721 18.5824 68.0152C18.6269 68.0578 18.685 68.0791 18.7568 68.0791C18.8285 68.0791 18.8863 68.0578 18.9302 68.0152C18.9746 67.9727 19.0067 67.9082 19.0264 67.8218C19.0467 67.7355 19.0569 67.6272 19.0569 67.497C19.0569 67.3693 19.047 67.2626 19.0273 67.1768C19.0077 67.0904 18.9759 67.0257 18.9321 66.9825C18.8882 66.9386 18.8298 66.9167 18.7568 66.9167C18.6837 66.9167 18.6253 66.9386 18.5815 66.9825C18.5376 67.0257 18.5059 67.0904 18.4862 67.1768C18.4671 67.2626 18.4576 67.3693 18.4576 67.497Z" fill="#212121"/>
<path d="M30.6407 71.4141H30.4863V70.427C30.4863 70.3895 30.4863 70.3575 30.4863 70.3308C30.487 70.3035 30.4876 70.2787 30.4882 70.2565C30.4895 70.2336 30.4911 70.2104 30.493 70.1869C30.4733 70.2073 30.4549 70.2247 30.4377 70.2393C30.4206 70.2533 30.3993 70.2708 30.3739 70.2917L30.2148 70.4194L30.1319 70.3117L30.5092 70.0212H30.6407V71.4141Z" fill="#212121"/>
<path d="M22.9234 70.7157C22.9234 70.8288 22.9148 70.9298 22.8977 71.0187C22.8805 71.1076 22.8535 71.1829 22.8167 71.2445C22.7799 71.3061 22.7322 71.3531 22.6738 71.3855C22.6153 71.4172 22.5452 71.4331 22.4632 71.4331C22.3597 71.4331 22.2739 71.4049 22.206 71.3483C22.1387 71.2918 22.0882 71.2102 22.0545 71.1035C22.0215 70.9961 22.005 70.8669 22.005 70.7157C22.005 70.5671 22.0199 70.4394 22.0497 70.3327C22.0802 70.2254 22.1291 70.1431 22.1965 70.0859C22.2638 70.0281 22.3527 69.9992 22.4632 69.9992C22.568 69.9992 22.6544 70.0278 22.7224 70.085C22.7903 70.1415 22.8408 70.2235 22.8739 70.3308C22.9069 70.4375 22.9234 70.5658 22.9234 70.7157ZM22.1641 70.7157C22.1641 70.8453 22.1739 70.9533 22.1936 71.0396C22.2133 71.126 22.245 71.1908 22.2889 71.234C22.3333 71.2765 22.3915 71.2978 22.4632 71.2978C22.535 71.2978 22.5928 71.2765 22.6366 71.234C22.6811 71.1914 22.7132 71.127 22.7329 71.0406C22.7532 70.9542 22.7633 70.8459 22.7633 70.7157C22.7633 70.588 22.7535 70.4813 22.7338 70.3956C22.7141 70.3092 22.6824 70.2444 22.6385 70.2012C22.5947 70.1574 22.5363 70.1355 22.4632 70.1355C22.3902 70.1355 22.3317 70.1574 22.2879 70.2012C22.2441 70.2444 22.2123 70.3092 22.1926 70.3956C22.1736 70.4813 22.1641 70.588 22.1641 70.7157Z" fill="#212121"/>
<path d="M39.0134 71.4141H38.1007V71.2816L38.4732 70.9034C38.5425 70.8335 38.6006 70.7713 38.6476 70.7167C38.6952 70.662 38.7314 70.6084 38.7562 70.5556C38.781 70.5023 38.7933 70.4439 38.7933 70.3803C38.7933 70.3016 38.7698 70.2416 38.7228 70.2003C38.6765 70.1583 38.6152 70.1374 38.539 70.1374C38.4723 70.1374 38.4132 70.1488 38.3618 70.1717C38.3103 70.1946 38.2576 70.2269 38.2036 70.2689L38.1188 70.1622C38.1556 70.131 38.1957 70.1034 38.2389 70.0793C38.2827 70.0551 38.3294 70.0361 38.3789 70.0221C38.4291 70.0081 38.4824 70.0011 38.539 70.0011C38.6247 70.0011 38.6987 70.0161 38.761 70.0459C38.8232 70.0758 38.8712 70.1183 38.9048 70.1736C38.9391 70.2288 38.9563 70.2946 38.9563 70.3708C38.9563 70.4445 38.9417 70.5131 38.9124 70.5766C38.8832 70.6395 38.8423 70.702 38.7895 70.7643C38.7368 70.8259 38.6752 70.8913 38.6047 70.9606L38.3017 71.2626V71.2692H39.0134V71.4141Z" fill="#212121"/>
<path d="M47.255 70.346C47.255 70.4083 47.2429 70.4623 47.2187 70.508C47.1946 70.5537 47.161 70.5912 47.1178 70.6204C47.0746 70.649 47.0238 70.669 46.9653 70.6804V70.6881C47.0758 70.702 47.1587 70.7376 47.214 70.7948C47.2699 70.8519 47.2978 70.9269 47.2978 71.0196C47.2978 71.1003 47.2788 71.1717 47.2407 71.234C47.2032 71.2962 47.1454 71.3451 47.0673 71.3807C46.9898 71.4157 46.8904 71.4331 46.7691 71.4331C46.6954 71.4331 46.6271 71.4271 46.5642 71.415C46.502 71.4036 46.4423 71.3842 46.3851 71.3569V71.2083C46.4429 71.2369 46.5058 71.2594 46.5737 71.2759C46.6417 71.2918 46.7074 71.2997 46.771 71.2997C46.898 71.2997 46.9898 71.2746 47.0463 71.2245C47.1028 71.1737 47.1311 71.1044 47.1311 71.0168C47.1311 70.9564 47.1152 70.9078 47.0835 70.871C47.0523 70.8335 47.0072 70.8062 46.9482 70.7891C46.8897 70.7713 46.8192 70.7624 46.7367 70.7624H46.5976V70.6271H46.7376C46.8132 70.6271 46.8774 70.616 46.9301 70.5937C46.9828 70.5715 47.0228 70.5404 47.0501 70.5004C47.0781 70.4597 47.092 70.4118 47.092 70.3565C47.092 70.286 47.0685 70.2317 47.0215 70.1936C46.9745 70.1549 46.9107 70.1355 46.83 70.1355C46.7805 70.1355 46.7354 70.1406 46.6947 70.1507C46.6541 70.1609 46.616 70.1749 46.5804 70.1926C46.5448 70.2104 46.5093 70.2311 46.4737 70.2546L46.3937 70.146C46.4445 70.1066 46.5064 70.0726 46.5795 70.044C46.6525 70.0154 46.7354 70.0011 46.8281 70.0011C46.9704 70.0011 47.0771 70.0335 47.1482 70.0983C47.2194 70.1631 47.255 70.2457 47.255 70.346Z" fill="#212121"/>
<path d="M55.4248 71.0911H55.2161V71.4141H55.0618V71.0911H54.3882V70.9577L55.0513 70.0135H55.2161V70.9482H55.4248V71.0911ZM55.0618 70.9482V70.4928C55.0618 70.4578 55.0621 70.4264 55.0627 70.3984C55.0634 70.3699 55.0643 70.3435 55.0656 70.3194C55.0669 70.2946 55.0678 70.2711 55.0685 70.2489C55.0697 70.2266 55.0707 70.2047 55.0713 70.1831H55.0637C55.0516 70.2085 55.0376 70.2355 55.0218 70.2641C55.0065 70.292 54.991 70.3171 54.9751 70.3394L54.5454 70.9482H55.0618Z" fill="#212121"/>
<path d="M62.9315 70.5623C63.0261 70.5623 63.1084 70.5785 63.1783 70.6109C63.2481 70.6427 63.3021 70.689 63.3402 70.75C63.379 70.811 63.3983 70.885 63.3983 70.972C63.3983 71.0673 63.3777 71.1495 63.3364 71.2187C63.2951 71.2873 63.2357 71.3404 63.1583 71.3779C63.0808 71.4147 62.988 71.4331 62.88 71.4331C62.8076 71.4331 62.7403 71.4268 62.6781 71.4141C62.6158 71.4014 62.5634 71.3823 62.5209 71.3569V71.2064C62.5672 71.2343 62.6234 71.2565 62.6895 71.2731C62.7556 71.2896 62.8197 71.2978 62.882 71.2978C62.9525 71.2978 63.0141 71.2867 63.0668 71.2645C63.1201 71.2416 63.1614 71.2073 63.1906 71.1616C63.2205 71.1152 63.2354 71.0571 63.2354 70.9872C63.2354 70.8945 63.2068 70.823 63.1497 70.7729C63.0931 70.7221 63.0036 70.6966 62.881 70.6966C62.8416 70.6966 62.7984 70.6998 62.7514 70.7062C62.7044 70.7125 62.6657 70.7195 62.6352 70.7271L62.5552 70.6747L62.6085 70.0212H63.3012V70.166H62.7438L62.7086 70.5861C62.7327 70.581 62.7638 70.576 62.8019 70.5709C62.84 70.5652 62.8832 70.5623 62.9315 70.5623Z" fill="#212121"/>
<path d="M70.5544 70.8186C70.5544 70.7348 70.5602 70.6528 70.5716 70.5728C70.5837 70.4928 70.6037 70.4184 70.6316 70.3498C70.6596 70.2806 70.6977 70.22 70.746 70.1679C70.7942 70.1158 70.8542 70.0751 70.926 70.0459C70.9984 70.0161 71.0851 70.0011 71.1861 70.0011C71.2147 70.0011 71.2455 70.0027 71.2785 70.0059C71.3116 70.0084 71.3389 70.0129 71.3605 70.0192V70.1555C71.337 70.1472 71.31 70.1412 71.2795 70.1374C71.2496 70.1336 71.2195 70.1317 71.189 70.1317C71.0708 70.1317 70.9778 70.1574 70.9098 70.2088C70.8425 70.2603 70.7939 70.3302 70.7641 70.4184C70.7342 70.5061 70.7171 70.6049 70.7126 70.7147H70.7231C70.7428 70.683 70.7679 70.6544 70.7984 70.629C70.8288 70.603 70.8657 70.5823 70.9089 70.5671C70.9527 70.5518 71.0035 70.5442 71.0613 70.5442C71.1426 70.5442 71.2134 70.5607 71.2738 70.5937C71.3347 70.6268 71.3817 70.6747 71.4148 70.7376C71.4484 70.8005 71.4653 70.8767 71.4653 70.9663C71.4653 71.0622 71.4475 71.1451 71.4119 71.2149C71.3763 71.2848 71.3255 71.3388 71.2595 71.3769C71.1941 71.4144 71.1159 71.4331 71.0251 71.4331C70.9571 71.4331 70.8946 71.4201 70.8374 71.3941C70.7802 71.368 70.7304 71.3293 70.6878 71.2778C70.6459 71.2264 70.6132 71.1625 70.5897 71.0863C70.5662 71.0095 70.5544 70.9202 70.5544 70.8186ZM71.0232 71.2997C71.1096 71.2997 71.1788 71.2721 71.2309 71.2168C71.283 71.1616 71.309 71.0781 71.309 70.9663C71.309 70.8748 71.2858 70.8024 71.2395 70.749C71.1931 70.6957 71.1232 70.669 71.0299 70.669C70.9664 70.669 70.9111 70.6824 70.8641 70.709C70.8171 70.7351 70.7806 70.7681 70.7545 70.8081C70.7285 70.8481 70.7155 70.8888 70.7155 70.9301C70.7155 70.972 70.7215 71.0145 70.7336 71.0577C70.7463 71.1009 70.7653 71.1409 70.7907 71.1778C70.8161 71.2146 70.8482 71.2442 70.887 71.2664C70.9257 71.2886 70.9711 71.2997 71.0232 71.2997Z" fill="#212121"/>
<path d="M78.5249 71.4141L79.0966 70.166H78.3372V70.0212H79.2661V70.1431L78.6983 71.4141H78.5249Z" fill="#212121"/>
<path d="M21.6339 68.9286C21.6339 68.996 21.6885 69.0506 21.7559 69.0506C21.8232 69.0506 21.8778 68.996 21.8778 68.9286H21.6339ZM21.7559 21.8555H21.6339V68.9286H21.7559H21.8778V21.8555H21.7559Z" fill="#D4D4D4"/>
<path d="M21.7559 68.9297H78.0973" stroke="#D4D4D4" stroke-width="0.243902"/>
<rect x="26.1465" y="36.0039" width="4.54122" height="32.8722" fill="url(#paint0_linear_7927_89860)"/>
<rect x="34.0039" y="40.1445" width="4.54122" height="28.7302" fill="url(#paint1_linear_7927_89860)"/>
<rect x="41.8613" y="49.9688" width="4.54122" height="18.9068" fill="url(#paint2_linear_7927_89860)"/>
<rect x="49.7188" y="43.6484" width="4.54122" height="25.2267" fill="url(#paint3_linear_7927_89860)"/>
<rect x="57.5762" y="38.0859" width="4.54122" height="30.791" fill="url(#paint4_linear_7927_89860)"/>
<rect x="65.4336" y="43.6484" width="4.54122" height="25.2267" fill="url(#paint5_linear_7927_89860)"/>
<rect x="73.291" y="49.9688" width="4.54122" height="18.9068" fill="url(#paint6_linear_7927_89860)"/>
<g filter="url(#filter0_d_7927_89860)">
<rect x="32.7324" y="35.5195" width="7.31707" height="3.65854" rx="1.82927" fill="white"/>
</g>
<path d="M34.6972 38.0078H34.4723V37.1113C34.4723 37.0814 34.4726 37.0516 34.4733 37.0217C34.4739 36.9919 34.4745 36.9627 34.4752 36.9341C34.4765 36.9055 34.478 36.8782 34.4799 36.8521C34.4666 36.8667 34.4501 36.8826 34.4304 36.8998C34.4113 36.9169 34.391 36.9347 34.3694 36.9531L34.2094 37.0808L34.0969 36.9388L34.5104 36.6149H34.6972V38.0078ZM36.1492 37.702H35.9605V38.0078H35.7395V37.702H35.1059V37.5324L35.7423 36.6111H35.9605V37.5162H36.1492V37.702ZM35.7395 37.5162V37.1704C35.7395 37.1418 35.7398 37.1129 35.7404 37.0837C35.7417 37.0538 35.743 37.0252 35.7442 36.9979C35.7455 36.9706 35.7468 36.9455 35.748 36.9226C35.7493 36.8991 35.7503 36.8798 35.7509 36.8645H35.7433C35.7312 36.8899 35.7179 36.916 35.7033 36.9426C35.6887 36.9687 35.6731 36.9941 35.6566 37.0189L35.3136 37.5162H35.7395ZM37.2153 38.0078H36.2721V37.8392L36.6331 37.4733C36.703 37.4022 36.7605 37.3409 36.8056 37.2894C36.8507 37.2374 36.884 37.1881 36.9056 37.1418C36.9279 37.0954 36.939 37.0449 36.939 36.9903C36.939 36.923 36.9196 36.8721 36.8809 36.8378C36.8421 36.8029 36.791 36.7854 36.7275 36.7854C36.6671 36.7854 36.6112 36.7975 36.5598 36.8216C36.509 36.8451 36.4563 36.8788 36.4016 36.9226L36.2787 36.775C36.3175 36.7419 36.3588 36.7118 36.4026 36.6845C36.447 36.6571 36.4966 36.6355 36.5512 36.6197C36.6058 36.6032 36.6681 36.5949 36.7379 36.5949C36.8262 36.5949 36.9025 36.6108 36.9666 36.6425C37.0308 36.6737 37.08 36.7172 37.1143 36.7731C37.1492 36.829 37.1667 36.8941 37.1667 36.9684C37.1667 37.0433 37.1518 37.1126 37.1219 37.1761C37.0921 37.2396 37.0495 37.3025 36.9942 37.3647C36.939 37.4263 36.8732 37.4933 36.797 37.5657L36.556 37.8011V37.8115H37.2153V38.0078ZM38.3319 38.0078H37.3887V37.8392L37.7498 37.4733C37.8196 37.4022 37.8771 37.3409 37.9222 37.2894C37.9673 37.2374 38.0007 37.1881 38.0222 37.1418C38.0445 37.0954 38.0556 37.0449 38.0556 36.9903C38.0556 36.923 38.0362 36.8721 37.9975 36.8378C37.9587 36.8029 37.9076 36.7854 37.8441 36.7854C37.7837 36.7854 37.7278 36.7975 37.6764 36.8216C37.6256 36.8451 37.5729 36.8788 37.5182 36.9226L37.3953 36.775C37.4341 36.7419 37.4754 36.7118 37.5192 36.6845C37.5637 36.6571 37.6132 36.6355 37.6678 36.6197C37.7225 36.6032 37.7847 36.5949 37.8546 36.5949C37.9429 36.5949 38.0191 36.6108 38.0832 36.6425C38.1474 36.6737 38.1966 36.7172 38.2309 36.7731C38.2658 36.829 38.2833 36.8941 38.2833 36.9684C38.2833 37.0433 38.2684 37.1126 38.2385 37.1761C38.2087 37.2396 38.1661 37.3025 38.1109 37.3647C38.0556 37.4263 37.9899 37.4933 37.9136 37.5657L37.6726 37.8011V37.8115H38.3319V38.0078Z" fill="#444444"/>
<g filter="url(#filter1_d_7927_89860)">
<rect x="56.1465" y="33.8125" width="7.31707" height="3.65854" rx="1.82927" fill="white"/>
</g>
<path d="M58.1112 36.3008H57.8864V35.4042C57.8864 35.3744 57.8867 35.3445 57.8873 35.3147C57.888 35.2848 57.8886 35.2556 57.8892 35.227C57.8905 35.1985 57.8921 35.1711 57.894 35.1451C57.8807 35.1597 57.8642 35.1756 57.8445 35.1927C57.8254 35.2099 57.8051 35.2277 57.7835 35.2461L57.6234 35.3738L57.511 35.2318L57.9245 34.9079H58.1112V36.3008ZM59.5632 35.995H59.3746V36.3008H59.1535V35.995H58.52V35.8254L59.1564 34.9041H59.3746V35.8092H59.5632V35.995ZM59.1535 35.8092V35.4633C59.1535 35.4347 59.1539 35.4058 59.1545 35.3766C59.1558 35.3468 59.157 35.3182 59.1583 35.2909C59.1596 35.2636 59.1608 35.2385 59.1621 35.2156C59.1634 35.1921 59.1643 35.1727 59.165 35.1575H59.1573C59.1453 35.1829 59.1319 35.2089 59.1173 35.2356C59.1027 35.2617 59.0872 35.2871 59.0706 35.3118L58.7277 35.8092H59.1535ZM60.6293 36.3008H59.6861V36.1321L60.0472 35.7663C60.1171 35.6952 60.1746 35.6339 60.2197 35.5824C60.2648 35.5303 60.2981 35.4811 60.3197 35.4347C60.3419 35.3884 60.353 35.3379 60.353 35.2833C60.353 35.2159 60.3337 35.1651 60.2949 35.1308C60.2562 35.0959 60.205 35.0784 60.1415 35.0784C60.0812 35.0784 60.0253 35.0905 59.9738 35.1146C59.923 35.1381 59.8703 35.1718 59.8157 35.2156L59.6928 35.0679C59.7315 35.0349 59.7728 35.0047 59.8166 34.9774C59.8611 34.9501 59.9106 34.9285 59.9653 34.9126C60.0199 34.8961 60.0821 34.8879 60.152 34.8879C60.2403 34.8879 60.3165 34.9037 60.3807 34.9355C60.4448 34.9666 60.494 35.0101 60.5283 35.066C60.5633 35.1219 60.5807 35.187 60.5807 35.2613C60.5807 35.3363 60.5658 35.4055 60.536 35.469C60.5061 35.5326 60.4636 35.5954 60.4083 35.6577C60.353 35.7193 60.2873 35.7863 60.2111 35.8587L59.97 36.094V36.1045H60.6293V36.3008ZM61.746 36.3008H60.8027V36.1321L61.1638 35.7663C61.2337 35.6952 61.2912 35.6339 61.3363 35.5824C61.3814 35.5303 61.4147 35.4811 61.4363 35.4347C61.4585 35.3884 61.4697 35.3379 61.4697 35.2833C61.4697 35.2159 61.4503 35.1651 61.4115 35.1308C61.3728 35.0959 61.3217 35.0784 61.2581 35.0784C61.1978 35.0784 61.1419 35.0905 61.0905 35.1146C61.0397 35.1381 60.9869 35.1718 60.9323 35.2156L60.8094 35.0679C60.8481 35.0349 60.8894 35.0047 60.9333 34.9774C60.9777 34.9501 61.0273 34.9285 61.0819 34.9126C61.1365 34.8961 61.1988 34.8879 61.2686 34.8879C61.3569 34.8879 61.4331 34.9037 61.4973 34.9355C61.5614 34.9666 61.6107 35.0101 61.645 35.066C61.6799 35.1219 61.6974 35.187 61.6974 35.2613C61.6974 35.3363 61.6824 35.4055 61.6526 35.469C61.6227 35.5326 61.5802 35.5954 61.5249 35.6577C61.4697 35.7193 61.4039 35.7863 61.3277 35.8587L61.0867 36.094V36.1045H61.746V36.3008Z" fill="#444444"/>
<g filter="url(#filter2_d_7927_89860)">
<rect x="48.8301" y="39.4219" width="6.09756" height="3.65854" rx="1.82927" fill="white"/>
</g>
<path d="M51.0778 41.1108C51.0778 41.1934 51.0718 41.2744 51.0597 41.3538C51.0483 41.4331 51.0279 41.5075 50.9987 41.5767C50.9701 41.6459 50.9304 41.7072 50.8796 41.7606C50.8294 41.8133 50.7659 41.8546 50.6891 41.8844C50.6122 41.9143 50.5195 41.9292 50.4109 41.9292C50.3836 41.9292 50.3518 41.9276 50.3156 41.9244C50.28 41.9219 50.2508 41.9181 50.2279 41.913V41.7263C50.2521 41.7333 50.2791 41.739 50.3089 41.7434C50.3394 41.7472 50.3696 41.7491 50.3994 41.7491C50.5169 41.7491 50.6084 41.7272 50.6738 41.6834C50.7399 41.6396 50.7866 41.5792 50.8139 41.5024C50.8418 41.4255 50.8577 41.3382 50.8615 41.2404H50.8501C50.8317 41.2709 50.8085 41.2988 50.7805 41.3242C50.7526 41.349 50.718 41.369 50.6767 41.3842C50.6354 41.3989 50.5852 41.4062 50.5262 41.4062C50.4461 41.4062 50.3763 41.3893 50.3165 41.3557C50.2575 41.322 50.2114 41.2731 50.1784 41.2089C50.146 41.1442 50.1298 41.0663 50.1298 40.9755C50.1298 40.8771 50.1485 40.7923 50.186 40.7211C50.2235 40.65 50.2765 40.5954 50.3451 40.5573C50.4137 40.5185 50.4944 40.4991 50.5871 40.4991C50.657 40.4991 50.7215 40.5118 50.7805 40.5373C50.8402 40.562 50.8923 40.6001 50.9368 40.6516C50.9812 40.7024 51.0159 40.7662 51.0406 40.8431C51.0654 40.9193 51.0778 41.0085 51.0778 41.1108ZM50.59 40.684C50.5195 40.684 50.462 40.7078 50.4175 40.7554C50.3731 40.8024 50.3508 40.8748 50.3508 40.9727C50.3508 41.0521 50.3699 41.1149 50.408 41.1613C50.4461 41.2077 50.5046 41.2308 50.5833 41.2308C50.6379 41.2308 50.6849 41.2197 50.7243 41.1975C50.7643 41.1746 50.7951 41.1457 50.8167 41.1108C50.839 41.0759 50.8501 41.0403 50.8501 41.0041C50.8501 40.9666 50.8447 40.9291 50.8339 40.8917C50.8237 40.8542 50.8078 40.8199 50.7863 40.7888C50.7647 40.7577 50.7373 40.7326 50.7043 40.7135C50.6719 40.6938 50.6338 40.684 50.59 40.684ZM51.7228 40.4982C51.8035 40.4982 51.8762 40.5109 51.941 40.5363C52.0058 40.5611 52.0572 40.5982 52.0953 40.6478C52.1334 40.6973 52.1525 40.7586 52.1525 40.8317C52.1525 40.8882 52.1407 40.9374 52.1172 40.9793C52.0944 41.0212 52.0632 41.0581 52.0239 41.0898C51.9845 41.121 51.9403 41.1486 51.8914 41.1727C51.9461 41.1994 51.9962 41.2302 52.042 41.2651C52.0883 41.2994 52.1255 41.3398 52.1534 41.3861C52.182 41.4325 52.1963 41.4868 52.1963 41.5491C52.1963 41.6272 52.1763 41.6948 52.1363 41.752C52.0969 41.8085 52.042 41.8524 51.9715 41.8835C51.901 41.914 51.8187 41.9292 51.7247 41.9292C51.6237 41.9292 51.5376 41.9143 51.4665 41.8844C51.3954 41.8546 51.3414 41.812 51.3045 41.7568C51.2677 41.7009 51.2493 41.6342 51.2493 41.5567C51.2493 41.4925 51.262 41.437 51.2874 41.39C51.3128 41.343 51.3468 41.3023 51.3893 41.268C51.4325 41.2337 51.4798 41.2048 51.5313 41.1813C51.4875 41.1553 51.4475 41.126 51.4113 41.0937C51.375 41.0606 51.3461 41.0228 51.3246 40.9803C51.3036 40.9371 51.2931 40.8872 51.2931 40.8307C51.2931 40.7583 51.3125 40.6976 51.3512 40.6487C51.39 40.5992 51.4417 40.5617 51.5065 40.5363C51.5719 40.5109 51.644 40.4982 51.7228 40.4982ZM51.4627 41.5481C51.4627 41.6091 51.4843 41.6593 51.5275 41.6986C51.5707 41.738 51.6351 41.7577 51.7209 41.7577C51.806 41.7577 51.8708 41.7383 51.9153 41.6996C51.9597 41.6609 51.9819 41.6097 51.9819 41.5462C51.9819 41.5056 51.9705 41.4697 51.9476 41.4385C51.9254 41.4074 51.8952 41.3798 51.8571 41.3557C51.8197 41.3309 51.7781 41.308 51.7323 41.2871L51.7018 41.2747C51.6523 41.2956 51.6097 41.3195 51.5742 41.3461C51.5386 41.3722 51.511 41.4017 51.4913 41.4347C51.4722 41.4678 51.4627 41.5056 51.4627 41.5481ZM51.7209 40.6706C51.6593 40.6706 51.6085 40.6859 51.5685 40.7164C51.5291 40.7462 51.5094 40.7894 51.5094 40.8459C51.5094 40.886 51.5189 40.9203 51.538 40.9488C51.5577 40.9774 51.584 41.0022 51.617 41.0232C51.6501 41.0435 51.6866 41.0625 51.7266 41.0803C51.7654 41.0632 51.8003 41.0444 51.8314 41.0241C51.8632 41.0031 51.8883 40.9784 51.9067 40.9498C51.9257 40.9206 51.9353 40.8856 51.9353 40.845C51.9353 40.7891 51.9153 40.7462 51.8752 40.7164C51.8359 40.6859 51.7844 40.6706 51.7209 40.6706ZM53.3129 41.9102H52.3697V41.7415L52.7308 41.3757C52.8007 41.3045 52.8582 41.2432 52.9032 41.1918C52.9483 41.1397 52.9817 41.0905 53.0033 41.0441C53.0255 40.9977 53.0366 40.9472 53.0366 40.8926C53.0366 40.8253 53.0173 40.7745 52.9785 40.7402C52.9398 40.7053 52.8886 40.6878 52.8251 40.6878C52.7648 40.6878 52.7089 40.6999 52.6574 40.724C52.6066 40.7475 52.5539 40.7812 52.4993 40.825L52.3764 40.6773C52.4151 40.6443 52.4564 40.6141 52.5002 40.5868C52.5447 40.5595 52.5942 40.5379 52.6489 40.522C52.7035 40.5055 52.7657 40.4972 52.8356 40.4972C52.9239 40.4972 53.0001 40.5131 53.0643 40.5449C53.1284 40.576 53.1776 40.6195 53.2119 40.6754C53.2469 40.7313 53.2643 40.7964 53.2643 40.8707C53.2643 40.9457 53.2494 41.0149 53.2196 41.0784C53.1897 41.1419 53.1472 41.2048 53.0919 41.2671C53.0366 41.3287 52.9709 41.3957 52.8947 41.4681L52.6536 41.7034V41.7139H53.3129V41.9102Z" fill="#444444"/>
<defs>
<filter id="filter0_d_7927_89860" x="31.8241" y="35.5195" width="9.13297" height="5.47672" filterUnits="userSpaceOnUse" color-interpolation-filters="sRGB">
<feFlood flood-opacity="0" result="BackgroundImageFix"/>
<feColorMatrix in="SourceAlpha" type="matrix" values="0 0 0 0 0 0 0 0 0 0 0 0 0 0 0 0 0 0 127 0" result="hardAlpha"/>
<feOffset dy="0.908283"/>
<feGaussianBlur stdDeviation="0.454141"/>
<feComposite in2="hardAlpha" operator="out"/>
<feColorMatrix type="matrix" values="0 0 0 0 0 0 0 0 0 0 0 0 0 0 0 0 0 0 0.25 0"/>
<feBlend mode="normal" in2="BackgroundImageFix" result="effect1_dropShadow_7927_89860"/>
<feBlend mode="normal" in="SourceGraphic" in2="effect1_dropShadow_7927_89860" result="shape"/>
</filter>
<filter id="filter1_d_7927_89860" x="55.2382" y="33.8125" width="9.13297" height="5.47672" filterUnits="userSpaceOnUse" color-interpolation-filters="sRGB">
<feFlood flood-opacity="0" result="BackgroundImageFix"/>
<feColorMatrix in="SourceAlpha" type="matrix" values="0 0 0 0 0 0 0 0 0 0 0 0 0 0 0 0 0 0 127 0" result="hardAlpha"/>
<feOffset dy="0.908283"/>
<feGaussianBlur stdDeviation="0.454141"/>
<feComposite in2="hardAlpha" operator="out"/>
<feColorMatrix type="matrix" values="0 0 0 0 0 0 0 0 0 0 0 0 0 0 0 0 0 0 0.25 0"/>
<feBlend mode="normal" in2="BackgroundImageFix" result="effect1_dropShadow_7927_89860"/>
<feBlend mode="normal" in="SourceGraphic" in2="effect1_dropShadow_7927_89860" result="shape"/>
</filter>
<filter id="filter2_d_7927_89860" x="47.9218" y="39.4219" width="7.91422" height="5.47672" filterUnits="userSpaceOnUse" color-interpolation-filters="sRGB">
<feFlood flood-opacity="0" result="BackgroundImageFix"/>
<feColorMatrix in="SourceAlpha" type="matrix" values="0 0 0 0 0 0 0 0 0 0 0 0 0 0 0 0 0 0 127 0" result="hardAlpha"/>
<feOffset dy="0.908283"/>
<feGaussianBlur stdDeviation="0.454141"/>
<feComposite in2="hardAlpha" operator="out"/>
<feColorMatrix type="matrix" values="0 0 0 0 0 0 0 0 0 0 0 0 0 0 0 0 0 0 0.25 0"/>
<feBlend mode="normal" in2="BackgroundImageFix" result="effect1_dropShadow_7927_89860"/>
<feBlend mode="normal" in="SourceGraphic" in2="effect1_dropShadow_7927_89860" result="shape"/>
</filter>
<linearGradient id="paint0_linear_7927_89860" x1="28.4171" y1="36.0039" x2="28.4171" y2="68.8761" gradientUnits="userSpaceOnUse">
<stop stop-color="#02CDD7"/>
<stop offset="1" stop-color="#00FFF2"/>
</linearGradient>
<linearGradient id="paint1_linear_7927_89860" x1="36.2745" y1="40.1445" x2="36.2745" y2="68.8747" gradientUnits="userSpaceOnUse">
<stop stop-color="#02CDD7"/>
<stop offset="1" stop-color="#00FFF2"/>
</linearGradient>
<linearGradient id="paint2_linear_7927_89860" x1="44.1319" y1="49.9688" x2="44.1319" y2="68.8755" gradientUnits="userSpaceOnUse">
<stop stop-color="#02CDD7"/>
<stop offset="1" stop-color="#00FFF2"/>
</linearGradient>
<linearGradient id="paint3_linear_7927_89860" x1="51.9894" y1="43.6484" x2="51.9894" y2="68.8751" gradientUnits="userSpaceOnUse">
<stop stop-color="#02CDD7"/>
<stop offset="1" stop-color="#00FFF2"/>
</linearGradient>
<linearGradient id="paint4_linear_7927_89860" x1="59.8468" y1="38.0859" x2="59.8468" y2="68.877" gradientUnits="userSpaceOnUse">
<stop stop-color="#02CDD7"/>
<stop offset="1" stop-color="#00FFF2"/>
</linearGradient>
<linearGradient id="paint5_linear_7927_89860" x1="67.7042" y1="43.6484" x2="67.7042" y2="68.8751" gradientUnits="userSpaceOnUse">
<stop stop-color="#02CDD7"/>
<stop offset="1" stop-color="#00FFF2"/>
</linearGradient>
<linearGradient id="paint6_linear_7927_89860" x1="75.5616" y1="49.9688" x2="75.5616" y2="68.8755" gradientUnits="userSpaceOnUse">
<stop stop-color="#02CDD7"/>
<stop offset="1" stop-color="#00FFF2"/>
</linearGradient>
</defs>
</svg>
