<svg width="93" height="92" viewBox="0 0 93 92" fill="none" xmlns="http://www.w3.org/2000/svg">
<rect x="1.13104" y="0.389831" width="91.079" height="91.2203" rx="17.5424" stroke="#BEBEBE" stroke-width="0.779661"/>
<rect width="69.3073" height="60.6439" transform="translate(12.4385 16.1641)" fill="white"/>
<path d="M21.6152 21.9492V69.0224" stroke="#E0E0E0" stroke-width="0.243902"/>
<path d="M29.5421 69.0224C29.5421 69.0897 29.5967 69.1443 29.6641 69.1443C29.7314 69.1443 29.786 69.0897 29.786 69.0224H29.5421ZM29.6641 21.9492H29.5421V69.0224H29.6641H29.786V21.9492H29.6641Z" fill="#E0E0E0"/>
<path d="M37.5909 69.0224C37.5909 69.0897 37.6455 69.1443 37.7129 69.1443C37.7802 69.1443 37.8348 69.0897 37.8348 69.0224H37.5909ZM37.7129 21.9492H37.5909V69.0224H37.7129H37.8348V21.9492H37.7129Z" fill="#E0E0E0"/>
<path d="M45.6398 69.0224C45.6398 69.0897 45.6944 69.1443 45.7617 69.1443C45.8291 69.1443 45.8837 69.0897 45.8837 69.0224H45.6398ZM45.7617 21.9492H45.6398V69.0224H45.7617H45.8837V21.9492H45.7617Z" fill="#E0E0E0"/>
<path d="M53.6886 69.0224C53.6886 69.0897 53.7432 69.1443 53.8105 69.1443C53.8779 69.1443 53.9325 69.0897 53.9325 69.0224H53.6886ZM53.8105 21.9492H53.6886V69.0224H53.8105H53.9325V21.9492H53.8105Z" fill="#E0E0E0"/>
<path d="M61.7374 69.0224C61.7374 69.0897 61.792 69.1443 61.8594 69.1443C61.9267 69.1443 61.9813 69.0897 61.9813 69.0224H61.7374ZM61.8594 21.9492H61.7374V69.0224H61.8594H61.9813V21.9492H61.8594Z" fill="#E0E0E0"/>
<path d="M69.7853 69.0224C69.7853 69.0897 69.8399 69.1443 69.9072 69.1443C69.9746 69.1443 70.0292 69.0897 70.0292 69.0224H69.7853ZM69.9072 21.9492H69.7853V69.0224H69.9072H70.0292V21.9492H69.9072Z" fill="#E0E0E0"/>
<path d="M77.8351 69.0224C77.8351 69.0897 77.8897 69.1443 77.957 69.1443C78.0244 69.1443 78.079 69.0897 78.079 69.0224H77.8351ZM77.957 21.9492H77.8351V69.0224H77.957H78.079V21.9492H77.957Z" fill="#E0E0E0"/>
<path d="M15.7193 23.9492H14.8065V23.8168L15.179 23.4385C15.2483 23.3687 15.3064 23.3064 15.3534 23.2518C15.401 23.1972 15.4372 23.1435 15.462 23.0908C15.4868 23.0374 15.4992 22.979 15.4992 22.9155C15.4992 22.8367 15.4757 22.7767 15.4287 22.7354C15.3823 22.6935 15.321 22.6725 15.2448 22.6725C15.1781 22.6725 15.119 22.684 15.0676 22.7068C15.0161 22.7297 14.9634 22.7621 14.9094 22.804L14.8246 22.6973C14.8615 22.6662 14.9015 22.6386 14.9447 22.6144C14.9885 22.5903 15.0352 22.5712 15.0847 22.5573C15.1349 22.5433 15.1883 22.5363 15.2448 22.5363C15.3305 22.5363 15.4045 22.5512 15.4668 22.5811C15.529 22.6109 15.577 22.6535 15.6106 22.7087C15.6449 22.764 15.6621 22.8297 15.6621 22.906C15.6621 22.9796 15.6475 23.0482 15.6183 23.1118C15.589 23.1746 15.5481 23.2372 15.4954 23.2994C15.4426 23.3611 15.381 23.4265 15.3105 23.4957L15.0076 23.7977V23.8044H15.7193V23.9492ZM16.3633 23.0975C16.4579 23.0975 16.5402 23.1137 16.6101 23.1461C16.6799 23.1778 16.7339 23.2242 16.772 23.2852C16.8108 23.3461 16.8301 23.4201 16.8301 23.5071C16.8301 23.6024 16.8095 23.6847 16.7682 23.7539C16.7269 23.8225 16.6675 23.8755 16.5901 23.913C16.5126 23.9499 16.4198 23.9683 16.3119 23.9683C16.2394 23.9683 16.1721 23.9619 16.1099 23.9492C16.0476 23.9365 15.9952 23.9175 15.9527 23.8921V23.7415C15.999 23.7695 16.0553 23.7917 16.1213 23.8082C16.1874 23.8247 16.2515 23.833 16.3138 23.833C16.3843 23.833 16.4459 23.8219 16.4986 23.7996C16.5519 23.7768 16.5932 23.7425 16.6225 23.6967C16.6523 23.6504 16.6672 23.5923 16.6672 23.5224C16.6672 23.4297 16.6386 23.3582 16.5815 23.308C16.525 23.2572 16.4354 23.2318 16.3128 23.2318C16.2734 23.2318 16.2302 23.235 16.1832 23.2413C16.1362 23.2477 16.0975 23.2547 16.067 23.2623L15.987 23.2099L16.0403 22.5563H16.733V22.7011H16.1756L16.1404 23.1213C16.1645 23.1162 16.1956 23.1111 16.2337 23.106C16.2718 23.1003 16.315 23.0975 16.3633 23.0975ZM17.9601 23.2509C17.9601 23.3639 17.9515 23.4649 17.9344 23.5538C17.9172 23.6428 17.8902 23.718 17.8534 23.7796C17.8166 23.8412 17.7689 23.8882 17.7105 23.9206C17.652 23.9524 17.5819 23.9683 17.4999 23.9683C17.3964 23.9683 17.3107 23.94 17.2427 23.8835C17.1754 23.8269 17.1249 23.7453 17.0912 23.6386C17.0582 23.5313 17.0417 23.402 17.0417 23.2509C17.0417 23.1022 17.0566 22.9746 17.0864 22.8679C17.1169 22.7605 17.1658 22.6783 17.2332 22.6211C17.3005 22.5633 17.3894 22.5344 17.4999 22.5344C17.6047 22.5344 17.6911 22.563 17.7591 22.6201C17.827 22.6767 17.8775 22.7586 17.9106 22.8659C17.9436 22.9727 17.9601 23.101 17.9601 23.2509ZM17.2008 23.2509C17.2008 23.3804 17.2106 23.4884 17.2303 23.5748C17.25 23.6612 17.2818 23.726 17.3256 23.7692C17.37 23.8117 17.4282 23.833 17.4999 23.833C17.5717 23.833 17.6295 23.8117 17.6733 23.7692C17.7178 23.7266 17.7499 23.6621 17.7696 23.5757C17.7899 23.4894 17.8 23.3811 17.8 23.2509C17.8 23.1232 17.7902 23.0165 17.7705 22.9307C17.7508 22.8444 17.7191 22.7796 17.6752 22.7364C17.6314 22.6925 17.573 22.6706 17.4999 22.6706C17.4269 22.6706 17.3684 22.6925 17.3246 22.7364C17.2808 22.7796 17.249 22.8444 17.2293 22.9307C17.2103 23.0165 17.2008 23.1232 17.2008 23.2509ZM19.0767 23.2509C19.0767 23.3639 19.0681 23.4649 19.051 23.5538C19.0338 23.6428 19.0069 23.718 18.97 23.7796C18.9332 23.8412 18.8855 23.8882 18.8271 23.9206C18.7687 23.9524 18.6985 23.9683 18.6165 23.9683C18.513 23.9683 18.4273 23.94 18.3593 23.8835C18.292 23.8269 18.2415 23.7453 18.2078 23.6386C18.1748 23.5313 18.1583 23.402 18.1583 23.2509C18.1583 23.1022 18.1732 22.9746 18.2031 22.8679C18.2335 22.7605 18.2824 22.6783 18.3498 22.6211C18.4171 22.5633 18.506 22.5344 18.6165 22.5344C18.7213 22.5344 18.8077 22.563 18.8757 22.6201C18.9437 22.6767 18.9941 22.7586 19.0272 22.8659C19.0602 22.9727 19.0767 23.101 19.0767 23.2509ZM18.3174 23.2509C18.3174 23.3804 18.3272 23.4884 18.3469 23.5748C18.3666 23.6612 18.3984 23.726 18.4422 23.7692C18.4867 23.8117 18.5448 23.833 18.6165 23.833C18.6883 23.833 18.7461 23.8117 18.7899 23.7692C18.8344 23.7266 18.8665 23.6621 18.8862 23.5757C18.9065 23.4894 18.9167 23.3811 18.9167 23.2509C18.9167 23.1232 18.9068 23.0165 18.8871 22.9307C18.8674 22.8444 18.8357 22.7796 18.7918 22.7364C18.748 22.6925 18.6896 22.6706 18.6165 22.6706C18.5435 22.6706 18.4851 22.6925 18.4412 22.7364C18.3974 22.7796 18.3657 22.8444 18.346 22.9307C18.3269 23.0165 18.3174 23.1232 18.3174 23.2509Z" fill="#212121"/>
<path d="M15.7193 31.3398H14.8065V31.2074L15.179 30.8292C15.2483 30.7593 15.3064 30.6971 15.3534 30.6424C15.401 30.5878 15.4372 30.5341 15.462 30.4814C15.4868 30.4281 15.4992 30.3696 15.4992 30.3061C15.4992 30.2274 15.4757 30.1673 15.4287 30.126C15.3823 30.0841 15.321 30.0632 15.2448 30.0632C15.1781 30.0632 15.119 30.0746 15.0676 30.0975C15.0161 30.1203 14.9634 30.1527 14.9094 30.1946L14.8246 30.0879C14.8615 30.0568 14.9015 30.0292 14.9447 30.005C14.9885 29.9809 15.0352 29.9619 15.0847 29.9479C15.1349 29.9339 15.1883 29.9269 15.2448 29.9269C15.3305 29.9269 15.4045 29.9419 15.4668 29.9717C15.529 30.0016 15.577 30.0441 15.6106 30.0994C15.6449 30.1546 15.6621 30.2204 15.6621 30.2966C15.6621 30.3703 15.6475 30.4389 15.6183 30.5024C15.589 30.5653 15.5481 30.6278 15.4954 30.6901C15.4426 30.7517 15.381 30.8171 15.3105 30.8863L15.0076 31.1884V31.195H15.7193V31.3398ZM16.8435 30.6415C16.8435 30.7545 16.8349 30.8555 16.8178 30.9445C16.8006 31.0334 16.7736 31.1086 16.7368 31.1703C16.6999 31.2319 16.6523 31.2789 16.5939 31.3113C16.5354 31.343 16.4652 31.3589 16.3833 31.3589C16.2798 31.3589 16.194 31.3306 16.1261 31.2741C16.0587 31.2176 16.0082 31.136 15.9746 31.0292C15.9416 30.9219 15.925 30.7927 15.925 30.6415C15.925 30.4929 15.94 30.3652 15.9698 30.2585C16.0003 30.1511 16.0492 30.0689 16.1165 30.0117C16.1839 29.9539 16.2728 29.925 16.3833 29.925C16.4881 29.925 16.5745 29.9536 16.6425 30.0108C16.7104 30.0673 16.7609 30.1492 16.7939 30.2566C16.827 30.3633 16.8435 30.4916 16.8435 30.6415ZM16.0842 30.6415C16.0842 30.7711 16.094 30.879 16.1137 30.9654C16.1334 31.0518 16.1651 31.1166 16.209 31.1598C16.2534 31.2023 16.3115 31.2236 16.3833 31.2236C16.4551 31.2236 16.5129 31.2023 16.5567 31.1598C16.6012 31.1172 16.6332 31.0528 16.6529 30.9664C16.6733 30.88 16.6834 30.7717 16.6834 30.6415C16.6834 30.5138 16.6736 30.4071 16.6539 30.3214C16.6342 30.235 16.6024 30.1702 16.5586 30.127C16.5148 30.0832 16.4564 30.0613 16.3833 30.0613C16.3103 30.0613 16.2518 30.0832 16.208 30.127C16.1642 30.1702 16.1324 30.235 16.1127 30.3214C16.0937 30.4071 16.0842 30.5138 16.0842 30.6415ZM17.9601 30.6415C17.9601 30.7545 17.9515 30.8555 17.9344 30.9445C17.9172 31.0334 17.8902 31.1086 17.8534 31.1703C17.8166 31.2319 17.7689 31.2789 17.7105 31.3113C17.652 31.343 17.5819 31.3589 17.4999 31.3589C17.3964 31.3589 17.3107 31.3306 17.2427 31.2741C17.1754 31.2176 17.1249 31.136 17.0912 31.0292C17.0582 30.9219 17.0417 30.7927 17.0417 30.6415C17.0417 30.4929 17.0566 30.3652 17.0864 30.2585C17.1169 30.1511 17.1658 30.0689 17.2332 30.0117C17.3005 29.9539 17.3894 29.925 17.4999 29.925C17.6047 29.925 17.6911 29.9536 17.7591 30.0108C17.827 30.0673 17.8775 30.1492 17.9106 30.2566C17.9436 30.3633 17.9601 30.4916 17.9601 30.6415ZM17.2008 30.6415C17.2008 30.7711 17.2106 30.879 17.2303 30.9654C17.25 31.0518 17.2818 31.1166 17.3256 31.1598C17.37 31.2023 17.4282 31.2236 17.4999 31.2236C17.5717 31.2236 17.6295 31.2023 17.6733 31.1598C17.7178 31.1172 17.7499 31.0528 17.7696 30.9664C17.7899 30.88 17.8 30.7717 17.8 30.6415C17.8 30.5138 17.7902 30.4071 17.7705 30.3214C17.7508 30.235 17.7191 30.1702 17.6752 30.127C17.6314 30.0832 17.573 30.0613 17.4999 30.0613C17.4269 30.0613 17.3684 30.0832 17.3246 30.127C17.2808 30.1702 17.249 30.235 17.2293 30.3214C17.2103 30.4071 17.2008 30.5138 17.2008 30.6415ZM19.0767 30.6415C19.0767 30.7545 19.0681 30.8555 19.051 30.9445C19.0338 31.0334 19.0069 31.1086 18.97 31.1703C18.9332 31.2319 18.8855 31.2789 18.8271 31.3113C18.7687 31.343 18.6985 31.3589 18.6165 31.3589C18.513 31.3589 18.4273 31.3306 18.3593 31.2741C18.292 31.2176 18.2415 31.136 18.2078 31.0292C18.1748 30.9219 18.1583 30.7927 18.1583 30.6415C18.1583 30.4929 18.1732 30.3652 18.2031 30.2585C18.2335 30.1511 18.2824 30.0689 18.3498 30.0117C18.4171 29.9539 18.506 29.925 18.6165 29.925C18.7213 29.925 18.8077 29.9536 18.8757 30.0108C18.9437 30.0673 18.9941 30.1492 19.0272 30.2566C19.0602 30.3633 19.0767 30.4916 19.0767 30.6415ZM18.3174 30.6415C18.3174 30.7711 18.3272 30.879 18.3469 30.9654C18.3666 31.0518 18.3984 31.1166 18.4422 31.1598C18.4867 31.2023 18.5448 31.2236 18.6165 31.2236C18.6883 31.2236 18.7461 31.2023 18.7899 31.1598C18.8344 31.1172 18.8665 31.0528 18.8862 30.9664C18.9065 30.88 18.9167 30.7717 18.9167 30.6415C18.9167 30.5138 18.9068 30.4071 18.8871 30.3214C18.8674 30.235 18.8357 30.1702 18.7918 30.127C18.748 30.0832 18.6896 30.0613 18.6165 30.0613C18.5435 30.0613 18.4851 30.0832 18.4412 30.127C18.3974 30.1702 18.3657 30.235 18.346 30.3214C18.3269 30.4071 18.3174 30.5138 18.3174 30.6415Z" fill="#212121"/>
<path d="M15.3953 38.7305H15.241V37.7434C15.241 37.706 15.241 37.6739 15.241 37.6472C15.2416 37.6199 15.2422 37.5951 15.2429 37.5729C15.2441 37.55 15.2457 37.5268 15.2476 37.5033C15.228 37.5237 15.2095 37.5411 15.1924 37.5557C15.1752 37.5697 15.154 37.5872 15.1285 37.6081L14.9694 37.7358L14.8866 37.6281L15.2638 37.3376H15.3953V38.7305ZM16.3633 37.8787C16.4579 37.8787 16.5402 37.8949 16.6101 37.9273C16.6799 37.9591 16.7339 38.0054 16.772 38.0664C16.8108 38.1274 16.8301 38.2014 16.8301 38.2884C16.8301 38.3837 16.8095 38.4659 16.7682 38.5352C16.7269 38.6038 16.6675 38.6568 16.5901 38.6943C16.5126 38.7311 16.4198 38.7495 16.3119 38.7495C16.2394 38.7495 16.1721 38.7432 16.1099 38.7305C16.0476 38.7178 15.9952 38.6987 15.9527 38.6733V38.5228C15.999 38.5507 16.0553 38.5729 16.1213 38.5895C16.1874 38.606 16.2515 38.6142 16.3138 38.6142C16.3843 38.6142 16.4459 38.6031 16.4986 38.5809C16.5519 38.558 16.5932 38.5237 16.6225 38.478C16.6523 38.4316 16.6672 38.3735 16.6672 38.3036C16.6672 38.2109 16.6386 38.1394 16.5815 38.0893C16.525 38.0385 16.4354 38.0131 16.3128 38.0131C16.2734 38.0131 16.2302 38.0162 16.1832 38.0226C16.1362 38.0289 16.0975 38.0359 16.067 38.0435L15.987 37.9911L16.0403 37.3376H16.733V37.4824H16.1756L16.1404 37.9025C16.1645 37.8975 16.1956 37.8924 16.2337 37.8873C16.2718 37.8816 16.315 37.8787 16.3633 37.8787ZM17.9601 38.0321C17.9601 38.1452 17.9515 38.2462 17.9344 38.3351C17.9172 38.424 17.8902 38.4993 17.8534 38.5609C17.8166 38.6225 17.7689 38.6695 17.7105 38.7019C17.652 38.7336 17.5819 38.7495 17.4999 38.7495C17.3964 38.7495 17.3107 38.7213 17.2427 38.6647C17.1754 38.6082 17.1249 38.5266 17.0912 38.4199C17.0582 38.3125 17.0417 38.1833 17.0417 38.0321C17.0417 37.8835 17.0566 37.7558 17.0864 37.6491C17.1169 37.5418 17.1658 37.4595 17.2332 37.4023C17.3005 37.3445 17.3894 37.3156 17.4999 37.3156C17.6047 37.3156 17.6911 37.3442 17.7591 37.4014C17.827 37.4579 17.8775 37.5399 17.9106 37.6472C17.9436 37.7539 17.9601 37.8822 17.9601 38.0321ZM17.2008 38.0321C17.2008 38.1617 17.2106 38.2697 17.2303 38.356C17.25 38.4424 17.2818 38.5072 17.3256 38.5504C17.37 38.593 17.4282 38.6142 17.4999 38.6142C17.5717 38.6142 17.6295 38.593 17.6733 38.5504C17.7178 38.5078 17.7499 38.4434 17.7696 38.357C17.7899 38.2706 17.8 38.1623 17.8 38.0321C17.8 37.9044 17.7902 37.7977 17.7705 37.712C17.7508 37.6256 17.7191 37.5608 17.6752 37.5176C17.6314 37.4738 17.573 37.4519 17.4999 37.4519C17.4269 37.4519 17.3684 37.4738 17.3246 37.5176C17.2808 37.5608 17.249 37.6256 17.2293 37.712C17.2103 37.7977 17.2008 37.9044 17.2008 38.0321ZM19.0767 38.0321C19.0767 38.1452 19.0681 38.2462 19.051 38.3351C19.0338 38.424 19.0069 38.4993 18.97 38.5609C18.9332 38.6225 18.8855 38.6695 18.8271 38.7019C18.7687 38.7336 18.6985 38.7495 18.6165 38.7495C18.513 38.7495 18.4273 38.7213 18.3593 38.6647C18.292 38.6082 18.2415 38.5266 18.2078 38.4199C18.1748 38.3125 18.1583 38.1833 18.1583 38.0321C18.1583 37.8835 18.1732 37.7558 18.2031 37.6491C18.2335 37.5418 18.2824 37.4595 18.3498 37.4023C18.4171 37.3445 18.506 37.3156 18.6165 37.3156C18.7213 37.3156 18.8077 37.3442 18.8757 37.4014C18.9437 37.4579 18.9941 37.5399 19.0272 37.6472C19.0602 37.7539 19.0767 37.8822 19.0767 38.0321ZM18.3174 38.0321C18.3174 38.1617 18.3272 38.2697 18.3469 38.356C18.3666 38.4424 18.3984 38.5072 18.4422 38.5504C18.4867 38.593 18.5448 38.6142 18.6165 38.6142C18.6883 38.6142 18.7461 38.593 18.7899 38.5504C18.8344 38.5078 18.8665 38.4434 18.8862 38.357C18.9065 38.2706 18.9167 38.1623 18.9167 38.0321C18.9167 37.9044 18.9068 37.7977 18.8871 37.712C18.8674 37.6256 18.8357 37.5608 18.7918 37.5176C18.748 37.4738 18.6896 37.4519 18.6165 37.4519C18.5435 37.4519 18.4851 37.4738 18.4412 37.5176C18.3974 37.5608 18.3657 37.6256 18.346 37.712C18.3269 37.7977 18.3174 37.9044 18.3174 38.0321Z" fill="#212121"/>
<path d="M15.3953 46.1211H15.241V45.1341C15.241 45.0966 15.241 45.0645 15.241 45.0378C15.2416 45.0105 15.2422 44.9857 15.2429 44.9635C15.2441 44.9406 15.2457 44.9175 15.2476 44.894C15.228 44.9143 15.2095 44.9318 15.1924 44.9464C15.1752 44.9603 15.154 44.9778 15.1285 44.9988L14.9694 45.1264L14.8866 45.0188L15.2638 44.7282H15.3953V46.1211ZM16.8435 45.4227C16.8435 45.5358 16.8349 45.6368 16.8178 45.7257C16.8006 45.8146 16.7736 45.8899 16.7368 45.9515C16.6999 46.0131 16.6523 46.0601 16.5939 46.0925C16.5354 46.1243 16.4652 46.1401 16.3833 46.1401C16.2798 46.1401 16.194 46.1119 16.1261 46.0554C16.0587 45.9988 16.0082 45.9172 15.9746 45.8105C15.9416 45.7032 15.925 45.5739 15.925 45.4227C15.925 45.2741 15.94 45.1464 15.9698 45.0397C16.0003 44.9324 16.0492 44.8501 16.1165 44.793C16.1839 44.7352 16.2728 44.7063 16.3833 44.7063C16.4881 44.7063 16.5745 44.7349 16.6425 44.792C16.7104 44.8485 16.7609 44.9305 16.7939 45.0378C16.827 45.1445 16.8435 45.2728 16.8435 45.4227ZM16.0842 45.4227C16.0842 45.5523 16.094 45.6603 16.1137 45.7467C16.1334 45.833 16.1651 45.8978 16.209 45.941C16.2534 45.9836 16.3115 46.0049 16.3833 46.0049C16.4551 46.0049 16.5129 45.9836 16.5567 45.941C16.6012 45.8985 16.6332 45.834 16.6529 45.7476C16.6733 45.6612 16.6834 45.5529 16.6834 45.4227C16.6834 45.2951 16.6736 45.1884 16.6539 45.1026C16.6342 45.0162 16.6024 44.9514 16.5586 44.9083C16.5148 44.8644 16.4564 44.8425 16.3833 44.8425C16.3103 44.8425 16.2518 44.8644 16.208 44.9083C16.1642 44.9514 16.1324 45.0162 16.1127 45.1026C16.0937 45.1884 16.0842 45.2951 16.0842 45.4227ZM17.9601 45.4227C17.9601 45.5358 17.9515 45.6368 17.9344 45.7257C17.9172 45.8146 17.8902 45.8899 17.8534 45.9515C17.8166 46.0131 17.7689 46.0601 17.7105 46.0925C17.652 46.1243 17.5819 46.1401 17.4999 46.1401C17.3964 46.1401 17.3107 46.1119 17.2427 46.0554C17.1754 45.9988 17.1249 45.9172 17.0912 45.8105C17.0582 45.7032 17.0417 45.5739 17.0417 45.4227C17.0417 45.2741 17.0566 45.1464 17.0864 45.0397C17.1169 44.9324 17.1658 44.8501 17.2332 44.793C17.3005 44.7352 17.3894 44.7063 17.4999 44.7063C17.6047 44.7063 17.6911 44.7349 17.7591 44.792C17.827 44.8485 17.8775 44.9305 17.9106 45.0378C17.9436 45.1445 17.9601 45.2728 17.9601 45.4227ZM17.2008 45.4227C17.2008 45.5523 17.2106 45.6603 17.2303 45.7467C17.25 45.833 17.2818 45.8978 17.3256 45.941C17.37 45.9836 17.4282 46.0049 17.4999 46.0049C17.5717 46.0049 17.6295 45.9836 17.6733 45.941C17.7178 45.8985 17.7499 45.834 17.7696 45.7476C17.7899 45.6612 17.8 45.5529 17.8 45.4227C17.8 45.2951 17.7902 45.1884 17.7705 45.1026C17.7508 45.0162 17.7191 44.9514 17.6752 44.9083C17.6314 44.8644 17.573 44.8425 17.4999 44.8425C17.4269 44.8425 17.3684 44.8644 17.3246 44.9083C17.2808 44.9514 17.249 45.0162 17.2293 45.1026C17.2103 45.1884 17.2008 45.2951 17.2008 45.4227ZM19.0767 45.4227C19.0767 45.5358 19.0681 45.6368 19.051 45.7257C19.0338 45.8146 19.0069 45.8899 18.97 45.9515C18.9332 46.0131 18.8855 46.0601 18.8271 46.0925C18.7687 46.1243 18.6985 46.1401 18.6165 46.1401C18.513 46.1401 18.4273 46.1119 18.3593 46.0554C18.292 45.9988 18.2415 45.9172 18.2078 45.8105C18.1748 45.7032 18.1583 45.5739 18.1583 45.4227C18.1583 45.2741 18.1732 45.1464 18.2031 45.0397C18.2335 44.9324 18.2824 44.8501 18.3498 44.793C18.4171 44.7352 18.506 44.7063 18.6165 44.7063C18.7213 44.7063 18.8077 44.7349 18.8757 44.792C18.9437 44.8485 18.9941 44.9305 19.0272 45.0378C19.0602 45.1445 19.0767 45.2728 19.0767 45.4227ZM18.3174 45.4227C18.3174 45.5523 18.3272 45.6603 18.3469 45.7467C18.3666 45.833 18.3984 45.8978 18.4422 45.941C18.4867 45.9836 18.5448 46.0049 18.6165 46.0049C18.6883 46.0049 18.7461 45.9836 18.7899 45.941C18.8344 45.8985 18.8665 45.834 18.8862 45.7476C18.9065 45.6612 18.9167 45.5529 18.9167 45.4227C18.9167 45.2951 18.9068 45.1884 18.8871 45.1026C18.8674 45.0162 18.8357 44.9514 18.7918 44.9083C18.748 44.8644 18.6896 44.8425 18.6165 44.8425C18.5435 44.8425 18.4851 44.8644 18.4412 44.9083C18.3974 44.9514 18.3657 45.0162 18.346 45.1026C18.3269 45.1884 18.3174 45.2951 18.3174 45.4227Z" fill="#212121"/>
<path d="M16.3629 52.66C16.4575 52.66 16.5398 52.6762 16.6097 52.7086C16.6795 52.7403 16.7335 52.7867 16.7716 52.8477C16.8104 52.9086 16.8297 52.9826 16.8297 53.0696C16.8297 53.1649 16.8091 53.2472 16.7678 53.3164C16.7265 53.385 16.6671 53.438 16.5897 53.4755C16.5122 53.5124 16.4194 53.5308 16.3115 53.5308C16.239 53.5308 16.1717 53.5244 16.1095 53.5117C16.0472 53.499 15.9948 53.48 15.9523 53.4546V53.304C15.9986 53.332 16.0548 53.3542 16.1209 53.3707C16.187 53.3872 16.2511 53.3955 16.3134 53.3955C16.3839 53.3955 16.4455 53.3844 16.4982 53.3621C16.5515 53.3393 16.5928 53.305 16.622 53.2592C16.6519 53.2129 16.6668 53.1548 16.6668 53.0849C16.6668 52.9922 16.6382 52.9207 16.5811 52.8705C16.5245 52.8197 16.435 52.7943 16.3124 52.7943C16.273 52.7943 16.2298 52.7975 16.1828 52.8038C16.1358 52.8102 16.0971 52.8172 16.0666 52.8248L15.9866 52.7724L16.0399 52.1188H16.7326V52.2636H16.1752L16.14 52.6838C16.1641 52.6787 16.1952 52.6736 16.2333 52.6685C16.2714 52.6628 16.3146 52.66 16.3629 52.66ZM17.9597 52.8134C17.9597 52.9264 17.9511 53.0274 17.934 53.1163C17.9168 53.2053 17.8898 53.2805 17.853 53.3421C17.8162 53.4037 17.7685 53.4507 17.7101 53.4831C17.6516 53.5149 17.5815 53.5308 17.4995 53.5308C17.396 53.5308 17.3102 53.5025 17.2423 53.446C17.175 53.3894 17.1245 53.3078 17.0908 53.2011C17.0578 53.0938 17.0413 52.9645 17.0413 52.8134C17.0413 52.6647 17.0562 52.5371 17.086 52.4304C17.1165 52.323 17.1654 52.2408 17.2328 52.1836C17.3001 52.1258 17.389 52.0969 17.4995 52.0969C17.6043 52.0969 17.6907 52.1255 17.7587 52.1826C17.8266 52.2392 17.8771 52.3211 17.9102 52.4284C17.9432 52.5352 17.9597 52.6635 17.9597 52.8134ZM17.2004 52.8134C17.2004 52.9429 17.2102 53.0509 17.2299 53.1373C17.2496 53.2237 17.2813 53.2885 17.3252 53.3317C17.3696 53.3742 17.4277 53.3955 17.4995 53.3955C17.5713 53.3955 17.6291 53.3742 17.6729 53.3317C17.7174 53.2891 17.7495 53.2246 17.7691 53.1382C17.7895 53.0519 17.7996 52.9436 17.7996 52.8134C17.7996 52.6857 17.7898 52.579 17.7701 52.4932C17.7504 52.4069 17.7187 52.3421 17.6748 52.2989C17.631 52.255 17.5726 52.2331 17.4995 52.2331C17.4265 52.2331 17.368 52.255 17.3242 52.2989C17.2804 52.3421 17.2486 52.4069 17.2289 52.4932C17.2099 52.579 17.2004 52.6857 17.2004 52.8134ZM19.0763 52.8134C19.0763 52.9264 19.0677 53.0274 19.0506 53.1163C19.0334 53.2053 19.0064 53.2805 18.9696 53.3421C18.9328 53.4037 18.8851 53.4507 18.8267 53.4831C18.7683 53.5149 18.6981 53.5308 18.6161 53.5308C18.5126 53.5308 18.4269 53.5025 18.3589 53.446C18.2916 53.3894 18.2411 53.3078 18.2074 53.2011C18.1744 53.0938 18.1579 52.9645 18.1579 52.8134C18.1579 52.6647 18.1728 52.5371 18.2026 52.4304C18.2331 52.323 18.282 52.2408 18.3494 52.1836C18.4167 52.1258 18.5056 52.0969 18.6161 52.0969C18.7209 52.0969 18.8073 52.1255 18.8753 52.1826C18.9432 52.2392 18.9937 52.3211 19.0268 52.4284C19.0598 52.5352 19.0763 52.6635 19.0763 52.8134ZM18.317 52.8134C18.317 52.9429 18.3268 53.0509 18.3465 53.1373C18.3662 53.2237 18.398 53.2885 18.4418 53.3317C18.4862 53.3742 18.5444 53.3955 18.6161 53.3955C18.6879 53.3955 18.7457 53.3742 18.7895 53.3317C18.834 53.2891 18.8661 53.2246 18.8858 53.1382C18.9061 53.0519 18.9163 52.9436 18.9163 52.8134C18.9163 52.6857 18.9064 52.579 18.8867 52.4932C18.867 52.4069 18.8353 52.3421 18.7914 52.2989C18.7476 52.255 18.6892 52.2331 18.6161 52.2331C18.5431 52.2331 18.4847 52.255 18.4408 52.2989C18.397 52.3421 18.3652 52.4069 18.3456 52.4932C18.3265 52.579 18.317 52.6857 18.317 52.8134Z" fill="#212121"/>
<path d="M16.5115 60.9023H16.3572V59.9153C16.3572 59.8778 16.3572 59.8458 16.3572 59.8191C16.3578 59.7918 16.3585 59.767 16.3591 59.7448C16.3604 59.7219 16.3619 59.6987 16.3639 59.6752C16.3442 59.6955 16.3257 59.713 16.3086 59.7276C16.2914 59.7416 16.2702 59.7591 16.2448 59.78L16.0857 59.9077L16.0028 59.8L16.38 59.5094H16.5115V60.9023ZM17.9597 60.204C17.9597 60.317 17.9511 60.418 17.934 60.507C17.9168 60.5959 17.8898 60.6711 17.853 60.7328C17.8162 60.7944 17.7685 60.8414 17.7101 60.8738C17.6516 60.9055 17.5815 60.9214 17.4995 60.9214C17.396 60.9214 17.3102 60.8931 17.2423 60.8366C17.175 60.7801 17.1245 60.6985 17.0908 60.5917C17.0578 60.4844 17.0413 60.3552 17.0413 60.204C17.0413 60.0554 17.0562 59.9277 17.086 59.821C17.1165 59.7136 17.1654 59.6314 17.2328 59.5742C17.3001 59.5164 17.389 59.4875 17.4995 59.4875C17.6043 59.4875 17.6907 59.5161 17.7587 59.5733C17.8266 59.6298 17.8771 59.7117 17.9102 59.8191C17.9432 59.9258 17.9597 60.0541 17.9597 60.204ZM17.2004 60.204C17.2004 60.3336 17.2102 60.4415 17.2299 60.5279C17.2496 60.6143 17.2813 60.6791 17.3252 60.7223C17.3696 60.7648 17.4277 60.7861 17.4995 60.7861C17.5713 60.7861 17.6291 60.7648 17.6729 60.7223C17.7174 60.6797 17.7495 60.6153 17.7691 60.5289C17.7895 60.4425 17.7996 60.3342 17.7996 60.204C17.7996 60.0763 17.7898 59.9696 17.7701 59.8839C17.7504 59.7975 17.7187 59.7327 17.6748 59.6895C17.631 59.6457 17.5726 59.6238 17.4995 59.6238C17.4265 59.6238 17.368 59.6457 17.3242 59.6895C17.2804 59.7327 17.2486 59.7975 17.2289 59.8839C17.2099 59.9696 17.2004 60.0763 17.2004 60.204ZM19.0763 60.204C19.0763 60.317 19.0677 60.418 19.0506 60.507C19.0334 60.5959 19.0064 60.6711 18.9696 60.7328C18.9328 60.7944 18.8851 60.8414 18.8267 60.8738C18.7683 60.9055 18.6981 60.9214 18.6161 60.9214C18.5126 60.9214 18.4269 60.8931 18.3589 60.8366C18.2916 60.7801 18.2411 60.6985 18.2074 60.5917C18.1744 60.4844 18.1579 60.3552 18.1579 60.204C18.1579 60.0554 18.1728 59.9277 18.2026 59.821C18.2331 59.7136 18.282 59.6314 18.3494 59.5742C18.4167 59.5164 18.5056 59.4875 18.6161 59.4875C18.7209 59.4875 18.8073 59.5161 18.8753 59.5733C18.9432 59.6298 18.9937 59.7117 19.0268 59.8191C19.0598 59.9258 19.0763 60.0541 19.0763 60.204ZM18.317 60.204C18.317 60.3336 18.3268 60.4415 18.3465 60.5279C18.3662 60.6143 18.398 60.6791 18.4418 60.7223C18.4862 60.7648 18.5444 60.7861 18.6161 60.7861C18.6879 60.7861 18.7457 60.7648 18.7895 60.7223C18.834 60.6797 18.8661 60.6153 18.8858 60.5289C18.9061 60.4425 18.9163 60.3342 18.9163 60.204C18.9163 60.0763 18.9064 59.9696 18.8867 59.8839C18.867 59.7975 18.8353 59.7327 18.7914 59.6895C18.7476 59.6457 18.6892 59.6238 18.6161 59.6238C18.5431 59.6238 18.4847 59.6457 18.4408 59.6895C18.397 59.7327 18.3652 59.7975 18.3456 59.8839C18.3265 59.9696 18.317 60.0763 18.317 60.204Z" fill="#212121"/>
<path d="M19.0763 67.5907C19.0763 67.7038 19.0677 67.8048 19.0506 67.8937C19.0334 67.9826 19.0064 68.0579 18.9696 68.1195C18.9328 68.1811 18.8851 68.2281 18.8267 68.2605C18.7683 68.2922 18.6981 68.3081 18.6161 68.3081C18.5126 68.3081 18.4269 68.2799 18.3589 68.2233C18.2916 68.1668 18.2411 68.0852 18.2074 67.9785C18.1744 67.8711 18.1579 67.7419 18.1579 67.5907C18.1579 67.4421 18.1728 67.3144 18.2026 67.2077C18.2331 67.1004 18.282 67.0181 18.3494 66.9609C18.4167 66.9031 18.5056 66.8742 18.6161 66.8742C18.7209 66.8742 18.8073 66.9028 18.8753 66.96C18.9432 67.0165 18.9937 67.0985 19.0268 67.2058C19.0598 67.3125 19.0763 67.4408 19.0763 67.5907ZM18.317 67.5907C18.317 67.7203 18.3268 67.8283 18.3465 67.9146C18.3662 68.001 18.398 68.0658 18.4418 68.109C18.4862 68.1515 18.5444 68.1728 18.6161 68.1728C18.6879 68.1728 18.7457 68.1515 18.7895 68.109C18.834 68.0664 18.8661 68.002 18.8858 67.9156C18.9061 67.8292 18.9163 67.7209 18.9163 67.5907C18.9163 67.463 18.9064 67.3563 18.8867 67.2706C18.867 67.1842 18.8353 67.1194 18.7914 67.0762C18.7476 67.0324 18.6892 67.0105 18.6161 67.0105C18.5431 67.0105 18.4847 67.0324 18.4408 67.0762C18.397 67.1194 18.3652 67.1842 18.3456 67.2706C18.3265 67.3563 18.317 67.463 18.317 67.5907Z" fill="#212121"/>
<path d="M30.501 71.5117H30.3467V70.5247C30.3467 70.4872 30.3467 70.4551 30.3467 70.4284C30.3473 70.4011 30.3479 70.3764 30.3486 70.3541C30.3499 70.3313 30.3514 70.3081 30.3533 70.2846C30.3337 70.3049 30.3152 70.3224 30.2981 70.337C30.2809 70.351 30.2597 70.3684 30.2343 70.3894L30.0751 70.5171L29.9923 70.4094L30.3695 70.1188H30.501V71.5117Z" fill="#212121"/>
<path d="M22.7838 70.8134C22.7838 70.9264 22.7752 71.0274 22.758 71.1163C22.7409 71.2053 22.7139 71.2805 22.677 71.3421C22.6402 71.4037 22.5926 71.4507 22.5341 71.4831C22.4757 71.5149 22.4055 71.5308 22.3236 71.5308C22.22 71.5308 22.1343 71.5025 22.0663 71.446C21.999 71.3894 21.9485 71.3078 21.9148 71.2011C21.8818 71.0938 21.8653 70.9645 21.8653 70.8134C21.8653 70.6647 21.8802 70.5371 21.9101 70.4304C21.9406 70.323 21.9895 70.2408 22.0568 70.1836C22.1241 70.1258 22.2131 70.0969 22.3236 70.0969C22.4284 70.0969 22.5148 70.1255 22.5827 70.1826C22.6507 70.2392 22.7012 70.3211 22.7342 70.4284C22.7672 70.5352 22.7838 70.6635 22.7838 70.8134ZM22.0244 70.8134C22.0244 70.9429 22.0343 71.0509 22.0539 71.1373C22.0736 71.2237 22.1054 71.2885 22.1492 71.3317C22.1937 71.3742 22.2518 71.3955 22.3236 71.3955C22.3953 71.3955 22.4531 71.3742 22.497 71.3317C22.5414 71.2891 22.5735 71.2246 22.5932 71.1382C22.6135 71.0519 22.6237 70.9436 22.6237 70.8134C22.6237 70.6857 22.6138 70.579 22.5942 70.4932C22.5745 70.4069 22.5427 70.3421 22.4989 70.2989C22.4551 70.255 22.3966 70.2331 22.3236 70.2331C22.2505 70.2331 22.1921 70.255 22.1483 70.2989C22.1044 70.3421 22.0727 70.4069 22.053 70.4932C22.0339 70.579 22.0244 70.6857 22.0244 70.8134Z" fill="#212121"/>
<path d="M38.8738 71.5117H37.9611V71.3793L38.3336 71.001C38.4028 70.9312 38.4609 70.8689 38.5079 70.8143C38.5556 70.7597 38.5918 70.706 38.6165 70.6533C38.6413 70.5999 38.6537 70.5415 38.6537 70.478C38.6537 70.3992 38.6302 70.3392 38.5832 70.2979C38.5368 70.256 38.4755 70.235 38.3993 70.235C38.3326 70.235 38.2736 70.2465 38.2221 70.2693C38.1707 70.2922 38.1179 70.3246 38.064 70.3665L37.9792 70.2598C38.016 70.2287 38.056 70.2011 38.0992 70.1769C38.143 70.1528 38.1897 70.1337 38.2393 70.1198C38.2894 70.1058 38.3428 70.0988 38.3993 70.0988C38.4851 70.0988 38.5591 70.1137 38.6213 70.1436C38.6836 70.1734 38.7315 70.216 38.7652 70.2712C38.7995 70.3265 38.8166 70.3922 38.8166 70.4685C38.8166 70.5421 38.802 70.6107 38.7728 70.6743C38.7436 70.7371 38.7026 70.7997 38.6499 70.8619C38.5972 70.9236 38.5356 70.989 38.4651 71.0582L38.1621 71.3602V71.3669H38.8738V71.5117Z" fill="#212121"/>
<path d="M47.1143 70.4437C47.1143 70.5059 47.1023 70.5599 47.0781 70.6057C47.054 70.6514 47.0203 70.6889 46.9771 70.7181C46.9339 70.7467 46.8831 70.7667 46.8247 70.7781V70.7857C46.9352 70.7997 47.0181 70.8353 47.0734 70.8924C47.1293 70.9496 47.1572 71.0245 47.1572 71.1173C47.1572 71.1979 47.1381 71.2694 47.1 71.3317C47.0626 71.3939 47.0048 71.4428 46.9266 71.4784C46.8491 71.5133 46.7497 71.5308 46.6284 71.5308C46.5548 71.5308 46.4865 71.5247 46.4236 71.5127C46.3613 71.5012 46.3016 71.4819 46.2445 71.4546V71.3059C46.3023 71.3345 46.3652 71.3571 46.4331 71.3736C46.5011 71.3894 46.5668 71.3974 46.6303 71.3974C46.7574 71.3974 46.8491 71.3723 46.9057 71.3221C46.9622 71.2713 46.9905 71.2021 46.9905 71.1144C46.9905 71.0541 46.9746 71.0055 46.9428 70.9687C46.9117 70.9312 46.8666 70.9039 46.8075 70.8867C46.7491 70.8689 46.6786 70.86 46.596 70.86H46.4569V70.7248H46.597C46.6726 70.7248 46.7367 70.7136 46.7894 70.6914C46.8422 70.6692 46.8822 70.6381 46.9095 70.598C46.9374 70.5574 46.9514 70.5094 46.9514 70.4542C46.9514 70.3837 46.9279 70.3294 46.8809 70.2913C46.8339 70.2525 46.7701 70.2331 46.6894 70.2331C46.6399 70.2331 46.5948 70.2382 46.5541 70.2484C46.5135 70.2585 46.4754 70.2725 46.4398 70.2903C46.4042 70.3081 46.3686 70.3287 46.3331 70.3522L46.253 70.2436C46.3039 70.2042 46.3658 70.1703 46.4388 70.1417C46.5119 70.1131 46.5948 70.0988 46.6875 70.0988C46.8298 70.0988 46.9365 70.1312 47.0076 70.196C47.0788 70.2608 47.1143 70.3433 47.1143 70.4437Z" fill="#212121"/>
<path d="M55.2842 71.1887H55.0755V71.5117H54.9212V71.1887H54.2476V71.0554L54.9107 70.1112H55.0755V71.0458H55.2842V71.1887ZM54.9212 71.0458V70.5904C54.9212 70.5555 54.9215 70.524 54.9221 70.4961C54.9227 70.4675 54.9237 70.4412 54.925 70.417C54.9262 70.3922 54.9272 70.3687 54.9278 70.3465C54.9291 70.3243 54.9301 70.3024 54.9307 70.2808H54.9231C54.911 70.3062 54.897 70.3332 54.8811 70.3618C54.8659 70.3897 54.8503 70.4148 54.8345 70.437L54.4048 71.0458H54.9212Z" fill="#212121"/>
<path d="M62.7909 70.66C62.8855 70.66 62.9678 70.6762 63.0376 70.7086C63.1075 70.7403 63.1615 70.7867 63.1996 70.8477C63.2383 70.9086 63.2577 70.9826 63.2577 71.0696C63.2577 71.1649 63.2371 71.2472 63.1958 71.3164C63.1545 71.385 63.0951 71.438 63.0176 71.4755C62.9401 71.5124 62.8474 71.5308 62.7394 71.5308C62.667 71.5308 62.5997 71.5244 62.5374 71.5117C62.4752 71.499 62.4228 71.48 62.3802 71.4546V71.304C62.4266 71.332 62.4828 71.3542 62.5489 71.3707C62.6149 71.3872 62.6791 71.3955 62.7413 71.3955C62.8118 71.3955 62.8734 71.3844 62.9262 71.3621C62.9795 71.3393 63.0208 71.305 63.05 71.2592C63.0799 71.2129 63.0948 71.1548 63.0948 71.0849C63.0948 70.9922 63.0662 70.9207 63.0091 70.8705C62.9525 70.8197 62.863 70.7943 62.7404 70.7943C62.701 70.7943 62.6578 70.7975 62.6108 70.8038C62.5638 70.8102 62.5251 70.8172 62.4946 70.8248L62.4145 70.7724L62.4679 70.1188H63.1605V70.2636H62.6032L62.5679 70.6838C62.5921 70.6787 62.6232 70.6736 62.6613 70.6685C62.6994 70.6628 62.7426 70.66 62.7909 70.66Z" fill="#212121"/>
<path d="M70.4138 70.9163C70.4138 70.8324 70.4195 70.7505 70.431 70.6704C70.443 70.5904 70.463 70.5161 70.491 70.4475C70.5189 70.3783 70.5571 70.3176 70.6053 70.2655C70.6536 70.2134 70.7136 70.1728 70.7854 70.1436C70.8578 70.1137 70.9445 70.0988 71.0455 70.0988C71.0741 70.0988 71.1049 70.1004 71.1379 70.1036C71.1709 70.1061 71.1983 70.1106 71.2198 70.1169V70.2531C71.1963 70.2449 71.1694 70.2389 71.1389 70.235C71.109 70.2312 71.0788 70.2293 71.0484 70.2293C70.9302 70.2293 70.8372 70.255 70.7692 70.3065C70.7019 70.3579 70.6533 70.4278 70.6234 70.5161C70.5936 70.6038 70.5764 70.7025 70.572 70.8124H70.5825C70.6021 70.7806 70.6272 70.7521 70.6577 70.7267C70.6882 70.7006 70.7251 70.68 70.7682 70.6647C70.8121 70.6495 70.8629 70.6419 70.9207 70.6419C71.002 70.6419 71.0728 70.6584 71.1331 70.6914C71.1941 70.7244 71.2411 70.7724 71.2742 70.8353C71.3078 70.8982 71.3246 70.9744 71.3246 71.0639C71.3246 71.1598 71.3069 71.2427 71.2713 71.3126C71.2357 71.3825 71.1849 71.4365 71.1189 71.4746C71.0534 71.512 70.9753 71.5308 70.8845 71.5308C70.8165 71.5308 70.754 71.5178 70.6968 71.4917C70.6396 71.4657 70.5898 71.4269 70.5472 71.3755C70.5053 71.324 70.4726 71.2602 70.4491 71.184C70.4256 71.1071 70.4138 71.0179 70.4138 70.9163ZM70.8826 71.3974C70.969 71.3974 71.0382 71.3698 71.0903 71.3145C71.1424 71.2592 71.1684 71.1757 71.1684 71.0639C71.1684 70.9725 71.1452 70.9001 71.0988 70.8467C71.0525 70.7933 70.9826 70.7667 70.8892 70.7667C70.8257 70.7667 70.7705 70.78 70.7235 70.8067C70.6765 70.8327 70.6399 70.8658 70.6139 70.9058C70.5879 70.9458 70.5748 70.9864 70.5748 71.0277C70.5748 71.0696 70.5809 71.1122 70.5929 71.1554C70.6056 71.1986 70.6247 71.2386 70.6501 71.2754C70.6755 71.3123 70.7076 71.3418 70.7463 71.364C70.7851 71.3863 70.8305 71.3974 70.8826 71.3974Z" fill="#212121"/>
<path d="M78.3843 71.5117L78.9559 70.2636H78.1966V70.1188H79.1255V70.2408L78.5577 71.5117H78.3843Z" fill="#212121"/>
<path d="M21.4933 69.0224C21.4933 69.0897 21.5479 69.1443 21.6152 69.1443C21.6826 69.1443 21.7372 69.0897 21.7372 69.0224H21.4933ZM21.6152 21.9492H21.4933V69.0224H21.6152H21.7372V21.9492H21.6152Z" fill="#D4D4D4"/>
<path d="M21.6152 69.0234H77.9567" stroke="#D4D4D4" stroke-width="0.243902"/>
<path d="M21.583 49.8055V55.1842V68.8644H77.8952V56.2074L72.4692 50.6176L66.5486 53.9966L62.3197 45.8781L55.3227 48.4772L50.6324 43.3555L45.8879 57.4945L43.8774 52.8973L40.2083 53.9966L36.7905 47.6004L28.8963 52.8973L21.583 49.8055Z" fill="url(#paint0_linear_7927_89987)"/>
<g filter="url(#filter0_d_7927_89987)">
<circle cx="54.0823" cy="47.2464" r="1.19563" fill="#01FAEF"/>
<circle cx="54.0823" cy="47.2464" r="1.44298" stroke="white" stroke-width="0.494717"/>
</g>
<g filter="url(#filter1_d_7927_89987)">
<circle cx="29.5355" cy="52.2503" r="1.19563" fill="#01FAEF"/>
<circle cx="29.5355" cy="52.2503" r="1.44298" stroke="white" stroke-width="0.494717"/>
</g>
<g filter="url(#filter2_d_7927_89987)">
<path d="M55.6377 42.3965C56.1988 42.4535 56.6374 42.9278 56.6377 43.5039V43.999C56.6376 44.6134 56.1388 45.1119 55.5244 45.1123H54.4922L54.0391 45.5645L53.5869 45.1123H52.5557C51.9411 45.1122 51.4425 44.6136 51.4424 43.999V43.5039C51.4427 42.8895 51.9412 42.3907 52.5557 42.3906H55.5244L55.6377 42.3965Z" fill="white"/>
</g>
<g filter="url(#filter3_d_7927_89987)">
<path d="M31.0918 47.4512C31.6531 47.508 32.0916 47.9824 32.0918 48.5586V49.0537C32.0917 49.6683 31.5931 50.1668 30.9785 50.167H29.9463L29.4941 50.6191L29.042 50.167H28.0098C27.3952 50.1668 26.8966 49.6683 26.8965 49.0537V48.5586C26.8967 47.9442 27.3953 47.4455 28.0098 47.4453H30.9785L31.0918 47.4512Z" fill="white"/>
</g>
<path d="M53.647 43.9076C53.647 43.9704 53.6424 44.032 53.6333 44.0924C53.6246 44.1528 53.6091 44.2093 53.5869 44.262C53.5651 44.3146 53.5349 44.3613 53.4963 44.4018C53.4581 44.4419 53.4098 44.4734 53.3514 44.4961C53.2929 44.5188 53.2224 44.5301 53.1397 44.5301C53.119 44.5301 53.0948 44.5289 53.0673 44.5265C53.0402 44.5246 53.018 44.5217 53.0006 44.5178V44.3758C53.019 44.3811 53.0395 44.3854 53.0622 44.3888C53.0854 44.3917 53.1083 44.3932 53.131 44.3932C53.2204 44.3932 53.29 44.3765 53.3398 44.3432C53.39 44.3098 53.4255 44.2639 53.4463 44.2055C53.4675 44.147 53.4796 44.0806 53.4825 44.0062H53.4738C53.4598 44.0294 53.4422 44.0506 53.4209 44.0699C53.3997 44.0888 53.3733 44.104 53.3419 44.1156C53.3105 44.1267 53.2724 44.1323 53.2274 44.1323C53.1666 44.1323 53.1134 44.1195 53.068 44.0939C53.0231 44.0683 52.988 44.0311 52.9629 43.9823C52.9383 43.933 52.926 43.8738 52.926 43.8047C52.926 43.7298 52.9402 43.6653 52.9687 43.6112C52.9972 43.5571 53.0376 43.5156 53.0897 43.4866C53.1419 43.4571 53.2033 43.4424 53.2738 43.4424C53.327 43.4424 53.376 43.452 53.4209 43.4714C53.4663 43.4902 53.5059 43.5192 53.5398 43.5583C53.5736 43.597 53.5999 43.6455 53.6188 43.704C53.6376 43.762 53.647 43.8298 53.647 43.9076ZM53.276 43.583C53.2224 43.583 53.1786 43.6011 53.1448 43.6373C53.111 43.6731 53.0941 43.7281 53.0941 43.8025C53.0941 43.8629 53.1086 43.9108 53.1376 43.946C53.1666 43.9813 53.211 43.9989 53.2709 43.9989C53.3125 43.9989 53.3482 43.9905 53.3782 43.9736C53.4086 43.9562 53.432 43.9342 53.4485 43.9076C53.4654 43.881 53.4738 43.854 53.4738 43.8265C53.4738 43.7979 53.4697 43.7694 53.4615 43.7409C53.4538 43.7124 53.4417 43.6863 53.4253 43.6627C53.4088 43.639 53.3881 43.6199 53.3629 43.6054C53.3383 43.5904 53.3093 43.583 53.276 43.583ZM54.5596 43.9852C54.5596 44.0707 54.5529 44.1472 54.5393 44.2149C54.5263 44.282 54.5055 44.339 54.477 44.3859C54.4485 44.4328 54.4113 44.4685 54.3654 44.4932C54.3195 44.5178 54.264 44.5301 54.1987 44.5301C54.1171 44.5301 54.0497 44.5086 53.9966 44.4656C53.9434 44.4221 53.904 44.3598 53.8784 44.2787C53.8528 44.197 53.84 44.0992 53.84 43.9852C53.84 43.8711 53.8516 43.7735 53.8748 43.6924C53.8985 43.6107 53.9367 43.5482 53.9893 43.5047C54.042 43.4612 54.1118 43.4395 54.1987 43.4395C54.2809 43.4395 54.3485 43.4612 54.4017 43.5047C54.4553 43.5477 54.4949 43.61 54.5205 43.6917C54.5466 43.7728 54.5596 43.8707 54.5596 43.9852ZM54.0118 43.9852C54.0118 44.0745 54.0176 44.1492 54.0292 44.2091C54.0412 44.269 54.0611 44.3139 54.0886 44.3439C54.1161 44.3733 54.1528 44.3881 54.1987 44.3881C54.2446 44.3881 54.2814 44.3733 54.3089 44.3439C54.3364 44.3144 54.3562 44.2697 54.3683 44.2098C54.3809 44.1499 54.3872 44.075 54.3872 43.9852C54.3872 43.8963 54.3811 43.8219 54.369 43.762C54.357 43.702 54.3372 43.6571 54.3096 43.6272C54.2821 43.5967 54.2451 43.5815 54.1987 43.5815C54.1524 43.5815 54.1154 43.5967 54.0879 43.6272C54.0608 43.6571 54.0412 43.702 54.0292 43.762C54.0176 43.8219 54.0118 43.8963 54.0118 43.9852ZM55.4708 43.9852C55.4708 44.0707 55.464 44.1472 55.4505 44.2149C55.4375 44.282 55.4167 44.339 55.3882 44.3859C55.3597 44.4328 55.3225 44.4685 55.2766 44.4932C55.2307 44.5178 55.1751 44.5301 55.1099 44.5301C55.0283 44.5301 54.9609 44.5086 54.9077 44.4656C54.8546 44.4221 54.8152 44.3598 54.7896 44.2787C54.764 44.197 54.7512 44.0992 54.7512 43.9852C54.7512 43.8711 54.7628 43.7735 54.786 43.6924C54.8097 43.6107 54.8478 43.5482 54.9005 43.5047C54.9531 43.4612 55.023 43.4395 55.1099 43.4395C55.192 43.4395 55.2597 43.4612 55.3128 43.5047C55.3665 43.5477 55.4061 43.61 55.4317 43.6917C55.4578 43.7728 55.4708 43.8707 55.4708 43.9852ZM54.9229 43.9852C54.9229 44.0745 54.9287 44.1492 54.9403 44.2091C54.9524 44.269 54.9722 44.3139 54.9998 44.3439C55.0273 44.3733 55.064 44.3881 55.1099 44.3881C55.1558 44.3881 55.1925 44.3733 55.2201 44.3439C55.2476 44.3144 55.2674 44.2697 55.2795 44.2098C55.2921 44.1499 55.2983 44.075 55.2983 43.9852C55.2983 43.8963 55.2923 43.8219 55.2802 43.762C55.2681 43.702 55.2483 43.6571 55.2208 43.6272C55.1933 43.5967 55.1563 43.5815 55.1099 43.5815C55.0635 43.5815 55.0266 43.5967 54.999 43.6272C54.972 43.6571 54.9524 43.702 54.9403 43.762C54.9287 43.8219 54.9229 43.8963 54.9229 43.9852Z" fill="#212121"/>
<path d="M29.141 49.3377H28.9975V49.5703H28.8294V49.3377H28.3475V49.2087L28.8315 48.5079H28.9975V49.1964H29.141V49.3377ZM28.8294 49.1964V48.9333C28.8294 48.9116 28.8296 48.8896 28.8301 48.8674C28.8311 48.8447 28.832 48.8229 28.833 48.8021C28.834 48.7814 28.8349 48.7623 28.8359 48.7449C28.8369 48.727 28.8376 48.7123 28.8381 48.7007H28.8323C28.8231 48.72 28.8129 48.7398 28.8018 48.7601C28.7907 48.7799 28.7789 48.7992 28.7663 48.8181L28.5054 49.1964H28.8294ZM29.6536 48.4963C29.7149 48.4963 29.7702 48.506 29.8195 48.5253C29.8688 48.5442 29.9079 48.5724 29.9369 48.6101C29.9659 48.6478 29.9804 48.6944 29.9804 48.75C29.9804 48.793 29.9715 48.8304 29.9536 48.8623C29.9362 48.8942 29.9125 48.9222 29.8826 48.9464C29.8526 48.97 29.819 48.991 29.7818 49.0094C29.8234 49.0297 29.8616 49.0531 29.8963 49.0797C29.9316 49.1058 29.9599 49.1365 29.9811 49.1717C30.0029 49.207 30.0137 49.2483 30.0137 49.2957C30.0137 49.3551 29.9985 49.4065 29.9681 49.45C29.9381 49.493 29.8963 49.5263 29.8427 49.55C29.7891 49.5732 29.7265 49.5848 29.655 49.5848C29.5782 49.5848 29.5127 49.5735 29.4586 49.5507C29.4045 49.528 29.3635 49.4957 29.3354 49.4536C29.3074 49.4111 29.2934 49.3604 29.2934 49.3015C29.2934 49.2527 29.3031 49.2104 29.3224 49.1746C29.3417 49.1389 29.3676 49.108 29.3999 49.0819C29.4328 49.0558 29.4688 49.0338 29.5079 49.0159C29.4746 48.9961 29.4441 48.9739 29.4166 48.9493C29.3891 48.9241 29.3671 48.8954 29.3507 48.863C29.3347 48.8302 29.3267 48.7922 29.3267 48.7492C29.3267 48.6942 29.3415 48.648 29.3709 48.6108C29.4004 48.5731 29.4398 48.5446 29.4891 48.5253C29.5388 48.506 29.5937 48.4963 29.6536 48.4963ZM29.4557 49.2949C29.4557 49.3413 29.4722 49.3795 29.505 49.4094C29.5379 49.4394 29.5869 49.4544 29.6521 49.4544C29.7169 49.4544 29.7661 49.4396 29.8 49.4102C29.8338 49.3807 29.8507 49.3418 29.8507 49.2935C29.8507 49.2626 29.842 49.2353 29.8246 49.2116C29.8077 49.1879 29.7847 49.1669 29.7558 49.1485C29.7272 49.1297 29.6956 49.1123 29.6608 49.0964L29.6376 49.0869C29.5999 49.1029 29.5676 49.121 29.5405 49.1413C29.5135 49.1611 29.4925 49.1836 29.4775 49.2087C29.463 49.2338 29.4557 49.2626 29.4557 49.2949ZM29.6521 48.6275C29.6053 48.6275 29.5666 48.6391 29.5362 48.6623C29.5062 48.685 29.4912 48.7178 29.4912 48.7608C29.4912 48.7913 29.4985 48.8174 29.513 48.8391C29.528 48.8608 29.548 48.8797 29.5731 48.8956C29.5983 48.9111 29.626 48.9256 29.6565 48.9391C29.6859 48.9261 29.7125 48.9118 29.7362 48.8964C29.7603 48.8804 29.7794 48.8616 29.7934 48.8398C29.8079 48.8176 29.8152 48.791 29.8152 48.7601C29.8152 48.7176 29.8 48.685 29.7695 48.6623C29.7396 48.6391 29.7004 48.6275 29.6521 48.6275ZM30.9249 49.0398C30.9249 49.1254 30.9181 49.2019 30.9046 49.2696C30.8916 49.3367 30.8708 49.3937 30.8423 49.4406C30.8138 49.4875 30.7766 49.5232 30.7307 49.5478C30.6848 49.5725 30.6292 49.5848 30.564 49.5848C30.4824 49.5848 30.415 49.5633 30.3618 49.5203C30.3087 49.4768 30.2693 49.4145 30.2437 49.3333C30.2181 49.2517 30.2053 49.1539 30.2053 49.0398C30.2053 48.9258 30.2169 48.8282 30.2401 48.7471C30.2638 48.6654 30.3019 48.6029 30.3546 48.5594C30.4072 48.5159 30.4771 48.4942 30.564 48.4942C30.6461 48.4942 30.7138 48.5159 30.7669 48.5594C30.8206 48.6024 30.8602 48.6647 30.8858 48.7463C30.9119 48.8275 30.9249 48.9253 30.9249 49.0398ZM30.377 49.0398C30.377 49.1292 30.3828 49.2039 30.3944 49.2638C30.4065 49.3237 30.4263 49.3686 30.4539 49.3986C30.4814 49.428 30.5181 49.4428 30.564 49.4428C30.6099 49.4428 30.6466 49.428 30.6742 49.3986C30.7017 49.3691 30.7215 49.3244 30.7336 49.2645C30.7462 49.2046 30.7524 49.1297 30.7524 49.0398C30.7524 48.951 30.7464 48.8765 30.7343 48.8166C30.7222 48.7567 30.7024 48.7118 30.6749 48.6819C30.6474 48.6514 30.6104 48.6362 30.564 48.6362C30.5176 48.6362 30.4807 48.6514 30.4531 48.6819C30.4261 48.7118 30.4065 48.7567 30.3944 48.8166C30.3828 48.8765 30.377 48.951 30.377 49.0398Z" fill="#212121"/>
<defs>
<filter id="filter0_d_7927_89987" x="51.229" y="44.1447" width="6.20075" height="6.2027" filterUnits="userSpaceOnUse" color-interpolation-filters="sRGB">
<feFlood flood-opacity="0" result="BackgroundImageFix"/>
<feColorMatrix in="SourceAlpha" type="matrix" values="0 0 0 0 0 0 0 0 0 0 0 0 0 0 0 0 0 0 127 0" result="hardAlpha"/>
<feMorphology radius="0.247358" operator="dilate" in="SourceAlpha" result="effect1_dropShadow_7927_89987"/>
<feOffset dx="0.247358"/>
<feGaussianBlur stdDeviation="0.581292"/>
<feComposite in2="hardAlpha" operator="out"/>
<feColorMatrix type="matrix" values="0 0 0 0 0.192157 0 0 0 0 0.298039 0 0 0 0 1 0 0 0 0.15 0"/>
<feBlend mode="normal" in2="BackgroundImageFix" result="effect1_dropShadow_7927_89987"/>
<feBlend mode="normal" in="SourceGraphic" in2="effect1_dropShadow_7927_89987" result="shape"/>
</filter>
<filter id="filter1_d_7927_89987" x="26.6821" y="49.1487" width="6.20075" height="6.2027" filterUnits="userSpaceOnUse" color-interpolation-filters="sRGB">
<feFlood flood-opacity="0" result="BackgroundImageFix"/>
<feColorMatrix in="SourceAlpha" type="matrix" values="0 0 0 0 0 0 0 0 0 0 0 0 0 0 0 0 0 0 127 0" result="hardAlpha"/>
<feMorphology radius="0.247358" operator="dilate" in="SourceAlpha" result="effect1_dropShadow_7927_89987"/>
<feOffset dx="0.247358"/>
<feGaussianBlur stdDeviation="0.581292"/>
<feComposite in2="hardAlpha" operator="out"/>
<feColorMatrix type="matrix" values="0 0 0 0 0.192157 0 0 0 0 0.298039 0 0 0 0 1 0 0 0 0.15 0"/>
<feBlend mode="normal" in2="BackgroundImageFix" result="effect1_dropShadow_7927_89987"/>
<feBlend mode="normal" in="SourceGraphic" in2="effect1_dropShadow_7927_89987" result="shape"/>
</filter>
<filter id="filter2_d_7927_89987" x="49.4635" y="40.6591" width="9.15305" height="7.12961" filterUnits="userSpaceOnUse" color-interpolation-filters="sRGB">
<feFlood flood-opacity="0" result="BackgroundImageFix"/>
<feColorMatrix in="SourceAlpha" type="matrix" values="0 0 0 0 0 0 0 0 0 0 0 0 0 0 0 0 0 0 127 0" result="hardAlpha"/>
<feOffset dy="0.247358"/>
<feGaussianBlur stdDeviation="0.989434"/>
<feColorMatrix type="matrix" values="0 0 0 0 0.293333 0 0 0 0 0.333211 0 0 0 0 0.431373 0 0 0 0.2 0"/>
<feBlend mode="normal" in2="BackgroundImageFix" result="effect1_dropShadow_7927_89987"/>
<feBlend mode="normal" in="SourceGraphic" in2="effect1_dropShadow_7927_89987" result="shape"/>
</filter>
<filter id="filter3_d_7927_89987" x="24.9176" y="45.7138" width="9.15305" height="7.12961" filterUnits="userSpaceOnUse" color-interpolation-filters="sRGB">
<feFlood flood-opacity="0" result="BackgroundImageFix"/>
<feColorMatrix in="SourceAlpha" type="matrix" values="0 0 0 0 0 0 0 0 0 0 0 0 0 0 0 0 0 0 127 0" result="hardAlpha"/>
<feOffset dy="0.247358"/>
<feGaussianBlur stdDeviation="0.989434"/>
<feColorMatrix type="matrix" values="0 0 0 0 0.293333 0 0 0 0 0.333211 0 0 0 0 0.431373 0 0 0 0.2 0"/>
<feBlend mode="normal" in2="BackgroundImageFix" result="effect1_dropShadow_7927_89987"/>
<feBlend mode="normal" in="SourceGraphic" in2="effect1_dropShadow_7927_89987" result="shape"/>
</filter>
<linearGradient id="paint0_linear_7927_89987" x1="49.7391" y1="43.3555" x2="49.7391" y2="68.8644" gradientUnits="userSpaceOnUse">
<stop stop-color="#02CDD7"/>
<stop offset="1" stop-color="#00FFF2"/>
</linearGradient>
</defs>
</svg>
