<svg width="92" height="92" viewBox="0 0 92 92" fill="none" xmlns="http://www.w3.org/2000/svg">
<rect x="0.389831" y="0.389831" width="91.079" height="91.2203" rx="17.5424" stroke="#BEBEBE" stroke-width="0.779661"/>
<g clip-path="url(#clip0_7650_44557)">
<rect width="74.9641" height="65.0386" transform="translate(8 11)" fill="white"/>
<path d="M18.4482 17.2695V67.6809" stroke="#E0E0E0" stroke-width="0.261199"/>
<path d="M26.9368 67.6809C26.9368 67.7531 26.9953 67.8115 27.0674 67.8115C27.1395 67.8115 27.198 67.7531 27.198 67.6809H26.9368ZM27.0674 17.2695H26.9368V67.6809H27.0674H27.198V17.2695H27.0674Z" fill="#E0E0E0"/>
<path d="M35.5569 67.6809C35.5569 67.7531 35.6154 67.8115 35.6875 67.8115C35.7596 67.8115 35.8181 67.7531 35.8181 67.6809H35.5569ZM35.6875 17.2695H35.5569V67.6809H35.6875H35.8181V17.2695H35.6875Z" fill="#E0E0E0"/>
<path d="M44.176 67.6809C44.176 67.7531 44.2345 67.8115 44.3066 67.8115C44.3788 67.8115 44.4372 67.7531 44.4372 67.6809H44.176ZM44.3066 17.2695H44.176V67.6809H44.3066H44.4372V17.2695H44.3066Z" fill="#E0E0E0"/>
<path d="M52.7962 67.6809C52.7962 67.7531 52.8546 67.8115 52.9268 67.8115C52.9989 67.8115 53.0574 67.7531 53.0574 67.6809H52.7962ZM52.9268 17.2695H52.7962V67.6809H52.9268H53.0574V17.2695H52.9268Z" fill="#E0E0E0"/>
<path d="M61.4153 67.6809C61.4153 67.7531 61.4738 67.8115 61.5459 67.8115C61.618 67.8115 61.6765 67.7531 61.6765 67.6809H61.4153ZM61.5459 17.2695H61.4153V67.6809H61.5459H61.6765V17.2695H61.5459Z" fill="#E0E0E0"/>
<path d="M70.0354 67.6809C70.0354 67.7531 70.0939 67.8115 70.166 67.8115C70.2381 67.8115 70.2966 67.7531 70.2966 67.6809H70.0354ZM70.166 17.2695H70.0354V67.6809H70.166H70.2966V17.2695H70.166Z" fill="#E0E0E0"/>
<path d="M78.6546 67.6809C78.6546 67.7531 78.713 67.8115 78.7852 67.8115C78.8573 67.8115 78.9158 67.7531 78.9158 67.6809H78.6546ZM78.7852 17.2695H78.6546V67.6809H78.7852H78.9158V17.2695H78.7852Z" fill="#E0E0E0"/>
<path d="M18.5801 64.023L27.069 34.3582L35.7604 44.1622L44.3082 29.2602L52.9278 37.4955L61.6192 54.6198L70.2387 35.1426L78.7865 23.5371" stroke="#2081FF" stroke-width="0.522398"/>
<path d="M27.0664 33.0723C27.7154 33.0723 28.242 33.5981 28.2422 34.2471C28.2422 34.8962 27.7156 35.4229 27.0664 35.4229C26.4174 35.4227 25.8916 34.8961 25.8916 34.2471C25.8918 33.5982 26.4175 33.0724 27.0664 33.0723Z" fill="white" stroke="#2081FF" stroke-width="0.261199"/>
<path d="M27.0668 35.032C27.4996 35.032 27.8504 34.6812 27.8504 34.2484C27.8504 33.8157 27.4996 33.4648 27.0668 33.4648C26.634 33.4648 26.2832 33.8157 26.2832 34.2484C26.2832 34.6812 26.634 35.032 27.0668 35.032Z" fill="#2081FF"/>
<path d="M70.1654 35.8133C70.5982 35.8133 70.949 35.4625 70.949 35.0297C70.949 34.5969 70.5982 34.2461 70.1654 34.2461C69.7327 34.2461 69.3818 34.5969 69.3818 35.0297C69.3818 35.4625 69.7327 35.8133 70.1654 35.8133Z" fill="#2081FF"/>
<path d="M78.7846 24.3524C79.2173 24.3524 79.5682 24.0015 79.5682 23.5688C79.5682 23.136 79.2173 22.7852 78.7846 22.7852C78.3518 22.7852 78.001 23.136 78.001 23.5688C78.001 24.0015 78.3518 24.3524 78.7846 24.3524Z" fill="#2081FF"/>
<path d="M12.1342 19.2695H11.1568V19.1277L11.5557 18.7226C11.6298 18.6478 11.6921 18.5812 11.7424 18.5227C11.7934 18.4642 11.8322 18.4067 11.8587 18.3502C11.8853 18.2931 11.8985 18.2305 11.8985 18.1625C11.8985 18.0782 11.8734 18.0139 11.823 17.9697C11.7734 17.9248 11.7077 17.9023 11.6261 17.9023C11.5547 17.9023 11.4914 17.9146 11.4363 17.939C11.3812 17.9635 11.3248 17.9982 11.267 18.0431L11.1761 17.9288C11.2156 17.8955 11.2584 17.8659 11.3047 17.8401C11.3516 17.8142 11.4016 17.7938 11.4547 17.7789C11.5084 17.7639 11.5656 17.7564 11.6261 17.7564C11.7179 17.7564 11.7972 17.7724 11.8638 17.8044C11.9305 17.8363 11.9818 17.8819 12.0179 17.9411C12.0546 18.0003 12.073 18.0707 12.073 18.1523C12.073 18.2312 12.0574 18.3047 12.0261 18.3727C11.9948 18.44 11.9509 18.507 11.8944 18.5737C11.838 18.6397 11.772 18.7097 11.6965 18.7839L11.372 19.1073V19.1144H12.1342V19.2695ZM12.8239 18.3574C12.9253 18.3574 13.0134 18.3747 13.0882 18.4094C13.163 18.4434 13.2208 18.4931 13.2617 18.5584C13.3031 18.6237 13.3239 18.7029 13.3239 18.7961C13.3239 18.8981 13.3018 18.9862 13.2576 19.0604C13.2134 19.1338 13.1498 19.1906 13.0668 19.2308C12.9838 19.2702 12.8845 19.2899 12.7688 19.2899C12.6913 19.2899 12.6192 19.2831 12.5525 19.2695C12.4859 19.2559 12.4298 19.2355 12.3842 19.2083V19.0471C12.4338 19.077 12.494 19.1008 12.5648 19.1185C12.6355 19.1362 12.7042 19.1451 12.7709 19.1451C12.8464 19.1451 12.9124 19.1331 12.9688 19.1093C13.026 19.0849 13.0702 19.0481 13.1015 18.9991C13.1334 18.9495 13.1494 18.8873 13.1494 18.8124C13.1494 18.7131 13.1188 18.6366 13.0576 18.5829C12.9971 18.5284 12.9011 18.5012 12.7699 18.5012C12.7277 18.5012 12.6814 18.5046 12.6311 18.5114C12.5808 18.5182 12.5393 18.5257 12.5066 18.5339L12.4209 18.4778L12.4781 17.7778H13.2198V17.9329H12.6229L12.5852 18.3829C12.611 18.3774 12.6444 18.372 12.6852 18.3666C12.726 18.3604 12.7722 18.3574 12.8239 18.3574ZM14.534 18.5216C14.534 18.6427 14.5248 18.7509 14.5064 18.8461C14.4881 18.9413 14.4592 19.0219 14.4197 19.0879C14.3803 19.1539 14.3292 19.2042 14.2667 19.2389C14.2041 19.2729 14.1289 19.2899 14.0412 19.2899C13.9303 19.2899 13.8385 19.2597 13.7657 19.1991C13.6936 19.1386 13.6395 19.0512 13.6035 18.9369C13.5681 18.822 13.5504 18.6835 13.5504 18.5216C13.5504 18.3625 13.5664 18.2258 13.5984 18.1115C13.631 17.9965 13.6834 17.9084 13.7555 17.8472C13.8276 17.7853 13.9228 17.7544 14.0412 17.7544C14.1534 17.7544 14.2459 17.785 14.3187 17.8462C14.3915 17.9067 14.4456 17.9945 14.4809 18.1094C14.5163 18.2237 14.534 18.3611 14.534 18.5216ZM13.7208 18.5216C13.7208 18.6604 13.7313 18.776 13.7524 18.8685C13.7735 18.9611 13.8075 19.0304 13.8545 19.0767C13.9021 19.1223 13.9643 19.1451 14.0412 19.1451C14.118 19.1451 14.1799 19.1223 14.2269 19.0767C14.2745 19.0311 14.3088 18.9621 14.3299 18.8696C14.3517 18.7771 14.3626 18.6611 14.3626 18.5216C14.3626 18.3849 14.352 18.2706 14.3309 18.1788C14.3099 18.0863 14.2758 18.0169 14.2289 17.9707C14.182 17.9237 14.1194 17.9003 14.0412 17.9003C13.9629 17.9003 13.9004 17.9237 13.8534 17.9707C13.8065 18.0169 13.7725 18.0863 13.7514 18.1788C13.731 18.2706 13.7208 18.3849 13.7208 18.5216ZM15.7298 18.5216C15.7298 18.6427 15.7206 18.7509 15.7022 18.8461C15.6839 18.9413 15.655 19.0219 15.6155 19.0879C15.5761 19.1539 15.525 19.2042 15.4625 19.2389C15.3999 19.2729 15.3247 19.2899 15.237 19.2899C15.1261 19.2899 15.0343 19.2597 14.9615 19.1991C14.8894 19.1386 14.8353 19.0512 14.7993 18.9369C14.7639 18.822 14.7462 18.6835 14.7462 18.5216C14.7462 18.3625 14.7622 18.2258 14.7942 18.1115C14.8268 17.9965 14.8792 17.9084 14.9513 17.8472C15.0234 17.7853 15.1186 17.7544 15.237 17.7544C15.3492 17.7544 15.4417 17.785 15.5145 17.8462C15.5873 17.9067 15.6414 17.9945 15.6767 18.1094C15.7121 18.2237 15.7298 18.3611 15.7298 18.5216ZM14.9166 18.5216C14.9166 18.6604 14.9271 18.776 14.9482 18.8685C14.9693 18.9611 15.0033 19.0304 15.0503 19.0767C15.0979 19.1223 15.1601 19.1451 15.237 19.1451C15.3138 19.1451 15.3757 19.1223 15.4227 19.0767C15.4703 19.0311 15.5046 18.9621 15.5257 18.8696C15.5475 18.7771 15.5584 18.6611 15.5584 18.5216C15.5584 18.3849 15.5478 18.2706 15.5267 18.1788C15.5057 18.0863 15.4716 18.0169 15.4247 17.9707C15.3778 17.9237 15.3152 17.9003 15.237 17.9003C15.1587 17.9003 15.0962 17.9237 15.0492 17.9707C15.0023 18.0169 14.9683 18.0863 14.9472 18.1788C14.9268 18.2706 14.9166 18.3849 14.9166 18.5216Z" fill="#212121"/>
<path d="M12.1342 26.9707H11.1568V26.8289L11.5557 26.4238C11.6298 26.349 11.6921 26.2823 11.7424 26.2238C11.7934 26.1653 11.8322 26.1079 11.8587 26.0514C11.8853 25.9943 11.8985 25.9317 11.8985 25.8637C11.8985 25.7793 11.8734 25.715 11.823 25.6708C11.7734 25.6259 11.7077 25.6035 11.6261 25.6035C11.5547 25.6035 11.4914 25.6157 11.4363 25.6402C11.3812 25.6647 11.3248 25.6994 11.267 25.7443L11.1761 25.63C11.2156 25.5967 11.2584 25.5671 11.3047 25.5413C11.3516 25.5154 11.4016 25.495 11.4547 25.48C11.5084 25.4651 11.5656 25.4576 11.6261 25.4576C11.7179 25.4576 11.7972 25.4736 11.8638 25.5055C11.9305 25.5375 11.9818 25.5831 12.0179 25.6423C12.0546 25.7014 12.073 25.7718 12.073 25.8535C12.073 25.9324 12.0574 26.0058 12.0261 26.0739C11.9948 26.1412 11.9509 26.2082 11.8944 26.2749C11.838 26.3408 11.772 26.4109 11.6965 26.485L11.372 26.8085V26.8156H12.1342V26.9707ZM13.3382 26.2228C13.3382 26.3439 13.329 26.452 13.3106 26.5473C13.2923 26.6425 13.2634 26.7231 13.2239 26.7891C13.1845 26.8551 13.1334 26.9054 13.0709 26.9401C13.0083 26.9741 12.9331 26.9911 12.8454 26.9911C12.7345 26.9911 12.6427 26.9608 12.5699 26.9003C12.4978 26.8398 12.4437 26.7524 12.4077 26.6381C12.3723 26.5231 12.3546 26.3847 12.3546 26.2228C12.3546 26.0636 12.3706 25.9269 12.4026 25.8127C12.4352 25.6977 12.4876 25.6096 12.5597 25.5484C12.6318 25.4865 12.727 25.4555 12.8454 25.4555C12.9576 25.4555 13.0501 25.4862 13.1229 25.5474C13.1957 25.6079 13.2498 25.6957 13.2851 25.8106C13.3205 25.9249 13.3382 26.0623 13.3382 26.2228ZM12.525 26.2228C12.525 26.3616 12.5355 26.4772 12.5566 26.5697C12.5777 26.6622 12.6117 26.7316 12.6587 26.7779C12.7063 26.8234 12.7685 26.8462 12.8454 26.8462C12.9222 26.8462 12.9841 26.8234 13.0311 26.7779C13.0787 26.7323 13.113 26.6633 13.1341 26.5707C13.1559 26.4782 13.1668 26.3623 13.1668 26.2228C13.1668 26.0861 13.1562 25.9718 13.1351 25.88C13.1141 25.7875 13.08 25.7181 13.0331 25.6719C12.9862 25.6249 12.9236 25.6014 12.8454 25.6014C12.7671 25.6014 12.7046 25.6249 12.6576 25.6719C12.6107 25.7181 12.5767 25.7875 12.5556 25.88C12.5352 25.9718 12.525 26.0861 12.525 26.2228ZM14.534 26.2228C14.534 26.3439 14.5248 26.452 14.5064 26.5473C14.4881 26.6425 14.4592 26.7231 14.4197 26.7891C14.3803 26.8551 14.3292 26.9054 14.2667 26.9401C14.2041 26.9741 14.1289 26.9911 14.0412 26.9911C13.9303 26.9911 13.8385 26.9608 13.7657 26.9003C13.6936 26.8398 13.6395 26.7524 13.6035 26.6381C13.5681 26.5231 13.5504 26.3847 13.5504 26.2228C13.5504 26.0636 13.5664 25.9269 13.5984 25.8127C13.631 25.6977 13.6834 25.6096 13.7555 25.5484C13.8276 25.4865 13.9228 25.4555 14.0412 25.4555C14.1534 25.4555 14.2459 25.4862 14.3187 25.5474C14.3915 25.6079 14.4456 25.6957 14.4809 25.8106C14.5163 25.9249 14.534 26.0623 14.534 26.2228ZM13.7208 26.2228C13.7208 26.3616 13.7313 26.4772 13.7524 26.5697C13.7735 26.6622 13.8075 26.7316 13.8545 26.7779C13.9021 26.8234 13.9643 26.8462 14.0412 26.8462C14.118 26.8462 14.1799 26.8234 14.2269 26.7779C14.2745 26.7323 14.3088 26.6633 14.3299 26.5707C14.3517 26.4782 14.3626 26.3623 14.3626 26.2228C14.3626 26.0861 14.352 25.9718 14.3309 25.88C14.3099 25.7875 14.2758 25.7181 14.2289 25.6719C14.182 25.6249 14.1194 25.6014 14.0412 25.6014C13.9629 25.6014 13.9004 25.6249 13.8534 25.6719C13.8065 25.7181 13.7725 25.7875 13.7514 25.88C13.731 25.9718 13.7208 26.0861 13.7208 26.2228ZM15.7298 26.2228C15.7298 26.3439 15.7206 26.452 15.7022 26.5473C15.6839 26.6425 15.655 26.7231 15.6155 26.7891C15.5761 26.8551 15.525 26.9054 15.4625 26.9401C15.3999 26.9741 15.3247 26.9911 15.237 26.9911C15.1261 26.9911 15.0343 26.9608 14.9615 26.9003C14.8894 26.8398 14.8353 26.7524 14.7993 26.6381C14.7639 26.5231 14.7462 26.3847 14.7462 26.2228C14.7462 26.0636 14.7622 25.9269 14.7942 25.8127C14.8268 25.6977 14.8792 25.6096 14.9513 25.5484C15.0234 25.4865 15.1186 25.4555 15.237 25.4555C15.3492 25.4555 15.4417 25.4862 15.5145 25.5474C15.5873 25.6079 15.6414 25.6957 15.6767 25.8106C15.7121 25.9249 15.7298 26.0623 15.7298 26.2228ZM14.9166 26.2228C14.9166 26.3616 14.9271 26.4772 14.9482 26.5697C14.9693 26.6622 15.0033 26.7316 15.0503 26.7779C15.0979 26.8234 15.1601 26.8462 15.237 26.8462C15.3138 26.8462 15.3757 26.8234 15.4227 26.7779C15.4703 26.7323 15.5046 26.6633 15.5257 26.5707C15.5475 26.4782 15.5584 26.3623 15.5584 26.2228C15.5584 26.0861 15.5478 25.9718 15.5267 25.88C15.5057 25.7875 15.4716 25.7181 15.4247 25.6719C15.3778 25.6249 15.3152 25.6014 15.237 25.6014C15.1587 25.6014 15.0962 25.6249 15.0492 25.6719C15.0023 25.7181 14.9683 25.7875 14.9472 25.88C14.9268 25.9718 14.9166 26.0861 14.9166 26.2228Z" fill="#212121"/>
<path d="M11.7873 34.6719H11.622V33.6148C11.622 33.5747 11.622 33.5404 11.622 33.5118C11.6227 33.4825 11.6234 33.456 11.6241 33.4322C11.6254 33.4077 11.6271 33.3829 11.6292 33.3577C11.6081 33.3795 11.5883 33.3982 11.57 33.4138C11.5516 33.4288 11.5288 33.4475 11.5016 33.47L11.3312 33.6067L11.2425 33.4914L11.6465 33.1802H11.7873V34.6719ZM12.8239 33.7597C12.9253 33.7597 13.0134 33.7771 13.0882 33.8118C13.163 33.8458 13.2208 33.8954 13.2617 33.9607C13.3031 34.026 13.3239 34.1053 13.3239 34.1985C13.3239 34.3005 13.3018 34.3886 13.2576 34.4627C13.2134 34.5362 13.1498 34.593 13.0668 34.6331C12.9838 34.6726 12.8845 34.6923 12.7688 34.6923C12.6913 34.6923 12.6192 34.6855 12.5525 34.6719C12.4859 34.6583 12.4298 34.6379 12.3842 34.6107V34.4494C12.4338 34.4794 12.494 34.5032 12.5648 34.5209C12.6355 34.5386 12.7042 34.5474 12.7709 34.5474C12.8464 34.5474 12.9124 34.5355 12.9688 34.5117C13.026 34.4872 13.0702 34.4505 13.1015 34.4015C13.1334 34.3518 13.1494 34.2896 13.1494 34.2148C13.1494 34.1155 13.1188 34.0389 13.0576 33.9852C12.9971 33.9308 12.9011 33.9036 12.7699 33.9036C12.7277 33.9036 12.6814 33.907 12.6311 33.9138C12.5808 33.9206 12.5393 33.9281 12.5066 33.9362L12.4209 33.8801L12.4781 33.1802H13.2198V33.3353H12.6229L12.5852 33.7852C12.611 33.7798 12.6444 33.7743 12.6852 33.7689C12.726 33.7628 12.7722 33.7597 12.8239 33.7597ZM14.534 33.924C14.534 34.0451 14.5248 34.1532 14.5064 34.2484C14.4881 34.3437 14.4592 34.4243 14.4197 34.4903C14.3803 34.5562 14.3292 34.6066 14.2667 34.6413C14.2041 34.6753 14.1289 34.6923 14.0412 34.6923C13.9303 34.6923 13.8385 34.662 13.7657 34.6015C13.6936 34.5409 13.6395 34.4535 13.6035 34.3393C13.5681 34.2243 13.5504 34.0859 13.5504 33.924C13.5504 33.7648 13.5664 33.6281 13.5984 33.5138C13.631 33.3989 13.6834 33.3108 13.7555 33.2496C13.8276 33.1877 13.9228 33.1567 14.0412 33.1567C14.1534 33.1567 14.2459 33.1873 14.3187 33.2485C14.3915 33.3091 14.4456 33.3968 14.4809 33.5118C14.5163 33.6261 14.534 33.7635 14.534 33.924ZM13.7208 33.924C13.7208 34.0628 13.7313 34.1784 13.7524 34.2709C13.7735 34.3634 13.8075 34.4328 13.8545 34.479C13.9021 34.5246 13.9643 34.5474 14.0412 34.5474C14.118 34.5474 14.1799 34.5246 14.2269 34.479C14.2745 34.4335 14.3088 34.3644 14.3299 34.2719C14.3517 34.1794 14.3626 34.0634 14.3626 33.924C14.3626 33.7873 14.352 33.673 14.3309 33.5812C14.3099 33.4887 14.2758 33.4193 14.2289 33.373C14.182 33.3261 14.1194 33.3026 14.0412 33.3026C13.9629 33.3026 13.9004 33.3261 13.8534 33.373C13.8065 33.4193 13.7725 33.4887 13.7514 33.5812C13.731 33.673 13.7208 33.7873 13.7208 33.924ZM15.7298 33.924C15.7298 34.0451 15.7206 34.1532 15.7022 34.2484C15.6839 34.3437 15.655 34.4243 15.6155 34.4903C15.5761 34.5562 15.525 34.6066 15.4625 34.6413C15.3999 34.6753 15.3247 34.6923 15.237 34.6923C15.1261 34.6923 15.0343 34.662 14.9615 34.6015C14.8894 34.5409 14.8353 34.4535 14.7993 34.3393C14.7639 34.2243 14.7462 34.0859 14.7462 33.924C14.7462 33.7648 14.7622 33.6281 14.7942 33.5138C14.8268 33.3989 14.8792 33.3108 14.9513 33.2496C15.0234 33.1877 15.1186 33.1567 15.237 33.1567C15.3492 33.1567 15.4417 33.1873 15.5145 33.2485C15.5873 33.3091 15.6414 33.3968 15.6767 33.5118C15.7121 33.6261 15.7298 33.7635 15.7298 33.924ZM14.9166 33.924C14.9166 34.0628 14.9271 34.1784 14.9482 34.2709C14.9693 34.3634 15.0033 34.4328 15.0503 34.479C15.0979 34.5246 15.1601 34.5474 15.237 34.5474C15.3138 34.5474 15.3757 34.5246 15.4227 34.479C15.4703 34.4335 15.5046 34.3644 15.5257 34.2719C15.5475 34.1794 15.5584 34.0634 15.5584 33.924C15.5584 33.7873 15.5478 33.673 15.5267 33.5812C15.5057 33.4887 15.4716 33.4193 15.4247 33.373C15.3778 33.3261 15.3152 33.3026 15.237 33.3026C15.1587 33.3026 15.0962 33.3261 15.0492 33.373C15.0023 33.4193 14.9683 33.4887 14.9472 33.5812C14.9268 33.673 14.9166 33.7873 14.9166 33.924Z" fill="#212121"/>
<path d="M11.7873 42.375H11.622V41.318C11.622 41.2778 11.622 41.2435 11.622 41.2149C11.6227 41.1857 11.6234 41.1591 11.6241 41.1353C11.6254 41.1108 11.6271 41.086 11.6292 41.0608C11.6081 41.0826 11.5883 41.1013 11.57 41.117C11.5516 41.1319 11.5288 41.1506 11.5016 41.1731L11.3312 41.3098L11.2425 41.1945L11.6465 40.8833H11.7873V42.375ZM13.3382 41.6271C13.3382 41.7482 13.329 41.8563 13.3106 41.9516C13.2923 42.0468 13.2634 42.1274 13.2239 42.1934C13.1845 42.2594 13.1334 42.3097 13.0709 42.3444C13.0083 42.3784 12.9331 42.3954 12.8454 42.3954C12.7345 42.3954 12.6427 42.3651 12.5699 42.3046C12.4978 42.2441 12.4437 42.1567 12.4077 42.0424C12.3723 41.9274 12.3546 41.789 12.3546 41.6271C12.3546 41.4679 12.3706 41.3312 12.4026 41.2169C12.4352 41.102 12.4876 41.0139 12.5597 40.9527C12.6318 40.8908 12.727 40.8598 12.8454 40.8598C12.9576 40.8598 13.0501 40.8905 13.1229 40.9517C13.1957 41.0122 13.2498 41.1 13.2851 41.2149C13.3205 41.3292 13.3382 41.4666 13.3382 41.6271ZM12.525 41.6271C12.525 41.7659 12.5355 41.8815 12.5566 41.974C12.5777 42.0665 12.6117 42.1359 12.6587 42.1822C12.7063 42.2277 12.7685 42.2505 12.8454 42.2505C12.9222 42.2505 12.9841 42.2277 13.0311 42.1822C13.0787 42.1366 13.113 42.0675 13.1341 41.975C13.1559 41.8825 13.1668 41.7666 13.1668 41.6271C13.1668 41.4904 13.1562 41.3761 13.1351 41.2843C13.1141 41.1918 13.08 41.1224 13.0331 41.0761C12.9862 41.0292 12.9236 41.0057 12.8454 41.0057C12.7671 41.0057 12.7046 41.0292 12.6576 41.0761C12.6107 41.1224 12.5767 41.1918 12.5556 41.2843C12.5352 41.3761 12.525 41.4904 12.525 41.6271ZM14.534 41.6271C14.534 41.7482 14.5248 41.8563 14.5064 41.9516C14.4881 42.0468 14.4592 42.1274 14.4197 42.1934C14.3803 42.2594 14.3292 42.3097 14.2667 42.3444C14.2041 42.3784 14.1289 42.3954 14.0412 42.3954C13.9303 42.3954 13.8385 42.3651 13.7657 42.3046C13.6936 42.2441 13.6395 42.1567 13.6035 42.0424C13.5681 41.9274 13.5504 41.789 13.5504 41.6271C13.5504 41.4679 13.5664 41.3312 13.5984 41.2169C13.631 41.102 13.6834 41.0139 13.7555 40.9527C13.8276 40.8908 13.9228 40.8598 14.0412 40.8598C14.1534 40.8598 14.2459 40.8905 14.3187 40.9517C14.3915 41.0122 14.4456 41.1 14.4809 41.2149C14.5163 41.3292 14.534 41.4666 14.534 41.6271ZM13.7208 41.6271C13.7208 41.7659 13.7313 41.8815 13.7524 41.974C13.7735 42.0665 13.8075 42.1359 13.8545 42.1822C13.9021 42.2277 13.9643 42.2505 14.0412 42.2505C14.118 42.2505 14.1799 42.2277 14.2269 42.1822C14.2745 42.1366 14.3088 42.0675 14.3299 41.975C14.3517 41.8825 14.3626 41.7666 14.3626 41.6271C14.3626 41.4904 14.352 41.3761 14.3309 41.2843C14.3099 41.1918 14.2758 41.1224 14.2289 41.0761C14.182 41.0292 14.1194 41.0057 14.0412 41.0057C13.9629 41.0057 13.9004 41.0292 13.8534 41.0761C13.8065 41.1224 13.7725 41.1918 13.7514 41.2843C13.731 41.3761 13.7208 41.4904 13.7208 41.6271ZM15.7298 41.6271C15.7298 41.7482 15.7206 41.8563 15.7022 41.9516C15.6839 42.0468 15.655 42.1274 15.6155 42.1934C15.5761 42.2594 15.525 42.3097 15.4625 42.3444C15.3999 42.3784 15.3247 42.3954 15.237 42.3954C15.1261 42.3954 15.0343 42.3651 14.9615 42.3046C14.8894 42.2441 14.8353 42.1567 14.7993 42.0424C14.7639 41.9274 14.7462 41.789 14.7462 41.6271C14.7462 41.4679 14.7622 41.3312 14.7942 41.2169C14.8268 41.102 14.8792 41.0139 14.9513 40.9527C15.0234 40.8908 15.1186 40.8598 15.237 40.8598C15.3492 40.8598 15.4417 40.8905 15.5145 40.9517C15.5873 41.0122 15.6414 41.1 15.6767 41.2149C15.7121 41.3292 15.7298 41.4666 15.7298 41.6271ZM14.9166 41.6271C14.9166 41.7659 14.9271 41.8815 14.9482 41.974C14.9693 42.0665 15.0033 42.1359 15.0503 42.1822C15.0979 42.2277 15.1601 42.2505 15.237 42.2505C15.3138 42.2505 15.3757 42.2277 15.4227 42.1822C15.4703 42.1366 15.5046 42.0675 15.5257 41.975C15.5475 41.8825 15.5584 41.7666 15.5584 41.6271C15.5584 41.4904 15.5478 41.3761 15.5267 41.2843C15.5057 41.1918 15.4716 41.1224 15.4247 41.0761C15.3778 41.0292 15.3152 41.0057 15.237 41.0057C15.1587 41.0057 15.0962 41.0292 15.0492 41.0761C15.0023 41.1224 14.9683 41.1918 14.9472 41.2843C14.9268 41.3761 14.9166 41.4904 14.9166 41.6271Z" fill="#212121"/>
<path d="M12.8235 49.164C12.9249 49.164 13.0129 49.1814 13.0878 49.2161C13.1626 49.2501 13.2204 49.2997 13.2612 49.365C13.3027 49.4303 13.3235 49.5096 13.3235 49.6027C13.3235 49.7048 13.3013 49.7929 13.2571 49.867C13.2129 49.9405 13.1493 49.9973 13.0663 50.0374C12.9834 50.0769 12.884 50.0966 12.7684 50.0966C12.6909 50.0966 12.6188 50.0898 12.5521 50.0762C12.4854 50.0626 12.4293 50.0422 12.3837 50.015V49.8537C12.4334 49.8837 12.4936 49.9075 12.5643 49.9252C12.6351 49.9429 12.7038 49.9517 12.7704 49.9517C12.8459 49.9517 12.9119 49.9398 12.9684 49.916C13.0255 49.8915 13.0697 49.8548 13.101 49.8058C13.133 49.7561 13.149 49.6939 13.149 49.6191C13.149 49.5198 13.1184 49.4432 13.0572 49.3895C12.9966 49.3351 12.9007 49.3079 12.7694 49.3079C12.7273 49.3079 12.681 49.3113 12.6307 49.3181C12.5803 49.3249 12.5388 49.3324 12.5062 49.3405L12.4205 49.2844L12.4776 48.5845H13.2194V48.7396H12.6225L12.5847 49.1895C12.6106 49.1841 12.6439 49.1786 12.6847 49.1732C12.7256 49.1671 12.7718 49.164 12.8235 49.164ZM14.5335 49.3283C14.5335 49.4494 14.5244 49.5575 14.506 49.6527C14.4876 49.748 14.4587 49.8286 14.4193 49.8946C14.3798 49.9605 14.3288 50.0109 14.2662 50.0456C14.2036 50.0796 14.1285 50.0966 14.0407 50.0966C13.9299 50.0966 13.838 50.0663 13.7652 50.0058C13.6931 49.9452 13.6391 49.8578 13.603 49.7436C13.5676 49.6286 13.55 49.4902 13.55 49.3283C13.55 49.1691 13.5659 49.0324 13.5979 48.9181C13.6306 48.8032 13.6829 48.7151 13.755 48.6539C13.8271 48.592 13.9224 48.561 14.0407 48.561C14.153 48.561 14.2455 48.5916 14.3183 48.6528C14.391 48.7134 14.4451 48.8011 14.4805 48.9161C14.5159 49.0304 14.5335 49.1678 14.5335 49.3283ZM13.7204 49.3283C13.7204 49.467 13.7309 49.5827 13.752 49.6752C13.7731 49.7677 13.8071 49.8371 13.854 49.8833C13.9016 49.9289 13.9639 49.9517 14.0407 49.9517C14.1176 49.9517 14.1795 49.9289 14.2264 49.8833C14.274 49.8378 14.3084 49.7687 14.3295 49.6762C14.3512 49.5837 14.3621 49.4677 14.3621 49.3283C14.3621 49.1916 14.3516 49.0773 14.3305 48.9855C14.3094 48.893 14.2754 48.8236 14.2285 48.7773C14.1815 48.7304 14.119 48.7069 14.0407 48.7069C13.9625 48.7069 13.8999 48.7304 13.853 48.7773C13.8061 48.8236 13.772 48.893 13.751 48.9855C13.7306 49.0773 13.7204 49.1916 13.7204 49.3283ZM15.7293 49.3283C15.7293 49.4494 15.7202 49.5575 15.7018 49.6527C15.6834 49.748 15.6545 49.8286 15.6151 49.8946C15.5756 49.9605 15.5246 50.0109 15.462 50.0456C15.3994 50.0796 15.3243 50.0966 15.2365 50.0966C15.1257 50.0966 15.0338 50.0663 14.961 50.0058C14.8889 49.9452 14.8349 49.8578 14.7988 49.7436C14.7634 49.6286 14.7458 49.4902 14.7458 49.3283C14.7458 49.1691 14.7617 49.0324 14.7937 48.9181C14.8264 48.8032 14.8787 48.7151 14.9508 48.6539C15.0229 48.592 15.1182 48.561 15.2365 48.561C15.3488 48.561 15.4413 48.5916 15.5141 48.6528C15.5868 48.7134 15.6409 48.8011 15.6763 48.9161C15.7117 49.0304 15.7293 49.1678 15.7293 49.3283ZM14.9162 49.3283C14.9162 49.467 14.9267 49.5827 14.9478 49.6752C14.9689 49.7677 15.0029 49.8371 15.0498 49.8833C15.0974 49.9289 15.1597 49.9517 15.2365 49.9517C15.3134 49.9517 15.3753 49.9289 15.4222 49.8833C15.4698 49.8378 15.5042 49.7687 15.5253 49.6762C15.547 49.5837 15.5579 49.4677 15.5579 49.3283C15.5579 49.1916 15.5474 49.0773 15.5263 48.9855C15.5052 48.893 15.4712 48.8236 15.4243 48.7773C15.3773 48.7304 15.3148 48.7069 15.2365 48.7069C15.1583 48.7069 15.0957 48.7304 15.0488 48.7773C15.0019 48.8236 14.9679 48.893 14.9468 48.9855C14.9264 49.0773 14.9162 49.1916 14.9162 49.3283Z" fill="#212121"/>
<path d="M12.9827 57.7773H12.8174V56.7203C12.8174 56.6802 12.8174 56.6458 12.8174 56.6173C12.8181 56.588 12.8187 56.5615 12.8194 56.5377C12.8208 56.5132 12.8225 56.4884 12.8245 56.4632C12.8034 56.485 12.7837 56.5037 12.7653 56.5193C12.747 56.5343 12.7242 56.553 12.697 56.5754L12.5266 56.7121L12.4378 56.5968L12.8419 56.2857H12.9827V57.7773ZM14.5335 57.0295C14.5335 57.1505 14.5244 57.2587 14.506 57.3539C14.4876 57.4491 14.4587 57.5297 14.4193 57.5957C14.3798 57.6617 14.3288 57.712 14.2662 57.7467C14.2036 57.7807 14.1285 57.7977 14.0407 57.7977C13.9299 57.7977 13.838 57.7675 13.7652 57.7069C13.6931 57.6464 13.6391 57.559 13.603 57.4447C13.5676 57.3298 13.55 57.1913 13.55 57.0295C13.55 56.8703 13.5659 56.7336 13.5979 56.6193C13.6306 56.5043 13.6829 56.4163 13.755 56.355C13.8271 56.2931 13.9224 56.2622 14.0407 56.2622C14.153 56.2622 14.2455 56.2928 14.3183 56.354C14.391 56.4146 14.4451 56.5023 14.4805 56.6173C14.5159 56.7315 14.5335 56.8689 14.5335 57.0295ZM13.7204 57.0295C13.7204 57.1682 13.7309 57.2839 13.752 57.3764C13.7731 57.4689 13.8071 57.5383 13.854 57.5845C13.9016 57.6301 13.9639 57.6529 14.0407 57.6529C14.1176 57.6529 14.1795 57.6301 14.2264 57.5845C14.274 57.5389 14.3084 57.4699 14.3295 57.3774C14.3512 57.2849 14.3621 57.1689 14.3621 57.0295C14.3621 56.8927 14.3516 56.7785 14.3305 56.6866C14.3094 56.5941 14.2754 56.5247 14.2285 56.4785C14.1815 56.4316 14.119 56.4081 14.0407 56.4081C13.9625 56.4081 13.8999 56.4316 13.853 56.4785C13.8061 56.5247 13.772 56.5941 13.751 56.6866C13.7306 56.7785 13.7204 56.8927 13.7204 57.0295ZM15.7293 57.0295C15.7293 57.1505 15.7202 57.2587 15.7018 57.3539C15.6834 57.4491 15.6545 57.5297 15.6151 57.5957C15.5756 57.6617 15.5246 57.712 15.462 57.7467C15.3994 57.7807 15.3243 57.7977 15.2365 57.7977C15.1257 57.7977 15.0338 57.7675 14.961 57.7069C14.8889 57.6464 14.8349 57.559 14.7988 57.4447C14.7634 57.3298 14.7458 57.1913 14.7458 57.0295C14.7458 56.8703 14.7617 56.7336 14.7937 56.6193C14.8264 56.5043 14.8787 56.4163 14.9508 56.355C15.0229 56.2931 15.1182 56.2622 15.2365 56.2622C15.3488 56.2622 15.4413 56.2928 15.5141 56.354C15.5868 56.4146 15.6409 56.5023 15.6763 56.6173C15.7117 56.7315 15.7293 56.8689 15.7293 57.0295ZM14.9162 57.0295C14.9162 57.1682 14.9267 57.2839 14.9478 57.3764C14.9689 57.4689 15.0029 57.5383 15.0498 57.5845C15.0974 57.6301 15.1597 57.6529 15.2365 57.6529C15.3134 57.6529 15.3753 57.6301 15.4222 57.5845C15.4698 57.5389 15.5042 57.4699 15.5253 57.3774C15.547 57.2849 15.5579 57.1689 15.5579 57.0295C15.5579 56.8927 15.5474 56.7785 15.5263 56.6866C15.5052 56.5941 15.4712 56.5247 15.4243 56.4785C15.3773 56.4316 15.3148 56.4081 15.2365 56.4081C15.1583 56.4081 15.0957 56.4316 15.0488 56.4785C15.0019 56.5247 14.9679 56.5941 14.9468 56.6866C14.9264 56.7785 14.9162 56.8927 14.9162 57.0295Z" fill="#212121"/>
<path d="M15.7293 64.7306C15.7293 64.8517 15.7202 64.9599 15.7018 65.0551C15.6834 65.1503 15.6545 65.2309 15.6151 65.2969C15.5756 65.3629 15.5246 65.4132 15.462 65.4479C15.3994 65.4819 15.3243 65.4989 15.2365 65.4989C15.1257 65.4989 15.0338 65.4687 14.961 65.4081C14.8889 65.3476 14.8349 65.2602 14.7988 65.1459C14.7634 65.0309 14.7458 64.8925 14.7458 64.7306C14.7458 64.5715 14.7617 64.4347 14.7937 64.3205C14.8264 64.2055 14.8787 64.1174 14.9508 64.0562C15.0229 63.9943 15.1182 63.9634 15.2365 63.9634C15.3488 63.9634 15.4413 63.994 15.5141 64.0552C15.5868 64.1157 15.6409 64.2035 15.6763 64.3184C15.7117 64.4327 15.7293 64.5701 15.7293 64.7306ZM14.9162 64.7306C14.9162 64.8694 14.9267 64.985 14.9478 65.0775C14.9689 65.17 15.0029 65.2394 15.0498 65.2857C15.0974 65.3313 15.1597 65.354 15.2365 65.354C15.3134 65.354 15.3753 65.3313 15.4222 65.2857C15.4698 65.2401 15.5042 65.1711 15.5253 65.0786C15.547 64.986 15.5579 64.8701 15.5579 64.7306C15.5579 64.5939 15.5474 64.4796 15.5263 64.3878C15.5052 64.2953 15.4712 64.2259 15.4243 64.1797C15.3773 64.1327 15.3148 64.1093 15.2365 64.1093C15.1583 64.1093 15.0957 64.1327 15.0488 64.1797C15.0019 64.2259 14.9679 64.2953 14.9468 64.3878C14.9264 64.4796 14.9162 64.5939 14.9162 64.7306Z" fill="#212121"/>
<path d="M27.821 70.2051H27.6557V69.148C27.6557 69.1079 27.6557 69.0736 27.6557 69.045C27.6564 69.0157 27.6571 68.9892 27.6578 68.9654C27.6591 68.9409 27.6608 68.9161 27.6629 68.8909C27.6418 68.9127 27.622 68.9314 27.6037 68.947C27.5853 68.962 27.5625 68.9807 27.5353 69.0032L27.3649 69.1399L27.2762 69.0246L27.6802 68.7134H27.821V70.2051Z" fill="#212121"/>
<path d="M19.5569 69.4572C19.5569 69.5783 19.5477 69.6864 19.5294 69.7817C19.511 69.8769 19.4821 69.9575 19.4427 70.0235C19.4032 70.0894 19.3522 70.1398 19.2896 70.1745C19.227 70.2085 19.1519 70.2255 19.0641 70.2255C18.9532 70.2255 18.8614 70.1952 18.7886 70.1347C18.7165 70.0741 18.6625 69.9867 18.6264 69.8725C18.591 69.7575 18.5734 69.6191 18.5734 69.4572C18.5734 69.298 18.5893 69.1613 18.6213 69.047C18.654 68.9321 18.7063 68.844 18.7784 68.7828C18.8505 68.7209 18.9458 68.6899 19.0641 68.6899C19.1764 68.6899 19.2689 68.7205 19.3416 68.7817C19.4144 68.8423 19.4685 68.93 19.5039 69.045C19.5392 69.1593 19.5569 69.2967 19.5569 69.4572ZM18.7437 69.4572C18.7437 69.596 18.7543 69.7116 18.7754 69.8041C18.7965 69.8966 18.8305 69.966 18.8774 70.0122C18.925 70.0578 18.9873 70.0806 19.0641 70.0806C19.141 70.0806 19.2029 70.0578 19.2498 70.0122C19.2974 69.9667 19.3318 69.8976 19.3529 69.8051C19.3746 69.7126 19.3855 69.5966 19.3855 69.4572C19.3855 69.3205 19.375 69.2062 19.3539 69.1144C19.3328 69.0219 19.2988 68.9525 19.2519 68.9062C19.2049 68.8593 19.1423 68.8358 19.0641 68.8358C18.9859 68.8358 18.9233 68.8593 18.8764 68.9062C18.8294 68.9525 18.7954 69.0219 18.7744 69.1144C18.7539 69.2062 18.7437 69.3205 18.7437 69.4572Z" fill="#212121"/>
<path d="M36.788 70.2051H35.8106V70.0633L36.2095 69.6582C36.2837 69.5834 36.3459 69.5167 36.3962 69.4582C36.4472 69.3997 36.486 69.3422 36.5125 69.2858C36.5391 69.2286 36.5523 69.1661 36.5523 69.098C36.5523 69.0137 36.5272 68.9494 36.4768 68.9052C36.4272 68.8603 36.3615 68.8379 36.2799 68.8379C36.2085 68.8379 36.1452 68.8501 36.0901 68.8746C36.035 68.8991 35.9786 68.9338 35.9208 68.9787L35.83 68.8644C35.8694 68.8311 35.9123 68.8015 35.9585 68.7756C36.0054 68.7498 36.0554 68.7294 36.1085 68.7144C36.1622 68.6994 36.2194 68.692 36.2799 68.692C36.3717 68.692 36.451 68.7079 36.5176 68.7399C36.5843 68.7719 36.6357 68.8175 36.6717 68.8766C36.7084 68.9358 36.7268 69.0062 36.7268 69.0878C36.7268 69.1667 36.7112 69.2402 36.6799 69.3082C36.6486 69.3756 36.6047 69.4426 36.5483 69.5092C36.4918 69.5752 36.4258 69.6453 36.3503 69.7194L36.0259 70.0428V70.05H36.788V70.2051Z" fill="#212121"/>
<path d="M45.6138 69.0613C45.6138 69.128 45.6009 69.1858 45.575 69.2348C45.5492 69.2837 45.5131 69.3239 45.4669 69.3552C45.4206 69.3858 45.3662 69.4072 45.3036 69.4194V69.4276C45.422 69.4426 45.5107 69.4807 45.5699 69.5419C45.6298 69.6031 45.6597 69.6834 45.6597 69.7827C45.6597 69.8691 45.6393 69.9456 45.5985 70.0122C45.5584 70.0789 45.4965 70.1313 45.4128 70.1694C45.3298 70.2068 45.2233 70.2255 45.0934 70.2255C45.0145 70.2255 44.9414 70.219 44.8741 70.2061C44.8074 70.1939 44.7435 70.1731 44.6822 70.1439V69.9847C44.7441 70.0153 44.8115 70.0394 44.8843 70.0571C44.957 70.0741 45.0275 70.0826 45.0955 70.0826C45.2315 70.0826 45.3298 70.0558 45.3903 70.002C45.4509 69.9476 45.4811 69.8735 45.4811 69.7796C45.4811 69.715 45.4641 69.663 45.4301 69.6235C45.3968 69.5834 45.3485 69.5541 45.2852 69.5358C45.2227 69.5167 45.1472 69.5072 45.0587 69.5072H44.9098V69.3623H45.0598C45.1407 69.3623 45.2094 69.3504 45.2659 69.3266C45.3223 69.3028 45.3652 69.2695 45.3944 69.2266C45.4244 69.1831 45.4393 69.1317 45.4393 69.0725C45.4393 68.997 45.4141 68.9389 45.3638 68.8981C45.3135 68.8566 45.2451 68.8358 45.1587 68.8358C45.1057 68.8358 45.0574 68.8413 45.0138 68.8521C44.9703 68.863 44.9295 68.878 44.8914 68.897C44.8533 68.9161 44.8152 68.9382 44.7771 68.9634L44.6914 68.847C44.7458 68.8049 44.8122 68.7685 44.8904 68.7379C44.9686 68.7073 45.0574 68.692 45.1567 68.692C45.3091 68.692 45.4233 68.7267 45.4995 68.796C45.5757 68.8654 45.6138 68.9538 45.6138 69.0613Z" fill="#212121"/>
<path d="M54.3625 69.8592H54.1391V70.2051H53.9738V69.8592H53.2524V69.7164L53.9625 68.7052H54.1391V69.7061H54.3625V69.8592ZM53.9738 69.7061V69.2184C53.9738 69.181 53.9741 69.1474 53.9748 69.1174C53.9755 69.0868 53.9765 69.0586 53.9779 69.0327C53.9792 69.0062 53.9802 68.981 53.9809 68.9572C53.9823 68.9334 53.9833 68.91 53.984 68.8868H53.9758C53.9629 68.914 53.9479 68.943 53.9309 68.9736C53.9146 69.0035 53.8979 69.0304 53.8809 69.0542L53.4208 69.7061H53.9738Z" fill="#212121"/>
<path d="M62.4021 69.2929C62.5034 69.2929 62.5915 69.3103 62.6663 69.345C62.7412 69.379 62.799 69.4286 62.8398 69.4939C62.8813 69.5592 62.902 69.6385 62.902 69.7317C62.902 69.8337 62.8799 69.9218 62.8357 69.9959C62.7915 70.0694 62.7279 70.1262 62.6449 70.1663C62.5619 70.2058 62.4626 70.2255 62.347 70.2255C62.2694 70.2255 62.1973 70.2187 62.1307 70.2051C62.064 70.1915 62.0079 70.1711 61.9623 70.1439V69.9827C62.012 70.0126 62.0722 70.0364 62.1429 70.0541C62.2137 70.0718 62.2824 70.0806 62.349 70.0806C62.4245 70.0806 62.4905 70.0687 62.547 70.0449C62.6041 70.0204 62.6483 69.9837 62.6796 69.9347C62.7116 69.885 62.7275 69.8228 62.7275 69.748C62.7275 69.6487 62.6969 69.5721 62.6357 69.5184C62.5752 69.464 62.4793 69.4368 62.348 69.4368C62.3058 69.4368 62.2596 69.4402 62.2092 69.447C62.1589 69.4538 62.1174 69.4613 62.0848 69.4694L61.999 69.4133L62.0562 68.7134H62.7979V68.8685H62.2011L62.1633 69.3184C62.1892 69.313 62.2225 69.3075 62.2633 69.3021C62.3041 69.296 62.3504 69.2929 62.4021 69.2929Z" fill="#212121"/>
<path d="M70.5651 69.5674C70.5651 69.4776 70.5713 69.3899 70.5835 69.3041C70.5964 69.2184 70.6178 69.1389 70.6478 69.0654C70.6777 68.9913 70.7185 68.9263 70.7702 68.8705C70.8219 68.8147 70.8862 68.7712 70.9631 68.7399C71.0406 68.7079 71.1334 68.692 71.2416 68.692C71.2722 68.692 71.3052 68.6937 71.3406 68.6971C71.3759 68.6998 71.4052 68.7045 71.4283 68.7113V68.8573C71.4031 68.8484 71.3742 68.8419 71.3416 68.8379C71.3096 68.8338 71.2773 68.8317 71.2447 68.8317C71.1181 68.8317 71.0185 68.8593 70.9457 68.9144C70.8736 68.9695 70.8216 69.0443 70.7896 69.1389C70.7576 69.2327 70.7393 69.3385 70.7345 69.4562H70.7457C70.7668 69.4222 70.7937 69.3916 70.8263 69.3643C70.859 69.3365 70.8984 69.3143 70.9447 69.298C70.9916 69.2817 71.046 69.2735 71.1079 69.2735C71.195 69.2735 71.2708 69.2912 71.3355 69.3266C71.4008 69.362 71.4511 69.4133 71.4865 69.4807C71.5225 69.548 71.5405 69.6296 71.5405 69.7255C71.5405 69.8282 71.5215 69.917 71.4834 69.9918C71.4453 70.0667 71.3909 70.1245 71.3202 70.1653C71.2501 70.2054 71.1664 70.2255 71.0692 70.2255C70.9964 70.2255 70.9294 70.2115 70.8682 70.1837C70.8069 70.1558 70.7535 70.1143 70.708 70.0592C70.6631 70.0041 70.6281 69.9357 70.6029 69.8541C70.5777 69.7718 70.5651 69.6762 70.5651 69.5674ZM71.0671 70.0826C71.1596 70.0826 71.2338 70.0531 71.2896 69.9939C71.3453 69.9347 71.3732 69.8452 71.3732 69.7255C71.3732 69.6276 71.3484 69.55 71.2987 69.4929C71.2491 69.4358 71.1743 69.4072 71.0743 69.4072C71.0062 69.4072 70.9471 69.4215 70.8967 69.45C70.8464 69.4779 70.8073 69.5133 70.7794 69.5562C70.7515 69.599 70.7376 69.6425 70.7376 69.6868C70.7376 69.7317 70.744 69.7772 70.757 69.8235C70.7706 69.8697 70.791 69.9126 70.8182 69.952C70.8454 69.9915 70.8797 70.0231 70.9212 70.0469C70.9627 70.0707 71.0113 70.0826 71.0671 70.0826Z" fill="#212121"/>
<path d="M79.1011 70.2051L79.7132 68.8685H78.9001V68.7134H79.8949V68.844L79.2868 70.2051H79.1011Z" fill="#212121"/>
<path d="M18.3176 67.6809C18.3176 67.7531 18.3761 67.8115 18.4482 67.8115C18.5204 67.8115 18.5788 67.7531 18.5788 67.6809H18.3176ZM18.4482 17.2695H18.3176V67.6809H18.4482H18.5788V17.2695H18.4482Z" fill="#D4D4D4"/>
<path d="M18.4482 67.6816H78.7852" stroke="#D4D4D4" stroke-width="0.261199"/>
<path d="M35.6869 44.6961C36.1197 44.6961 36.4705 44.3453 36.4705 43.9125C36.4705 43.4797 36.1197 43.1289 35.6869 43.1289C35.2541 43.1289 34.9033 43.4797 34.9033 43.9125C34.9033 44.3453 35.2541 44.6961 35.6869 44.6961Z" fill="#2081FF"/>
<path d="M44.3061 30.3309C44.7388 30.3309 45.0897 29.98 45.0897 29.5473C45.0897 29.1145 44.7388 28.7637 44.3061 28.7637C43.8733 28.7637 43.5225 29.1145 43.5225 29.5473C43.5225 29.98 43.8733 30.3309 44.3061 30.3309Z" fill="#2081FF"/>
<path d="M52.9262 38.1649C53.3589 38.1649 53.7098 37.814 53.7098 37.3813C53.7098 36.9485 53.3589 36.5977 52.9262 36.5977C52.4934 36.5977 52.1426 36.9485 52.1426 37.3813C52.1426 37.814 52.4934 38.1649 52.9262 38.1649Z" fill="#2081FF"/>
<path d="M61.5453 55.4051C61.9781 55.4051 62.3289 55.0543 62.3289 54.6215C62.3289 54.1887 61.9781 53.8379 61.5453 53.8379C61.1125 53.8379 60.7617 54.1887 60.7617 54.6215C60.7617 55.0543 61.1125 55.4051 61.5453 55.4051Z" fill="#2081FF"/>
<path d="M35.6846 43C36.3336 43 36.8602 43.5258 36.8604 44.1748C36.8604 44.824 36.3337 45.3506 35.6846 45.3506C35.0356 45.3504 34.5098 44.8238 34.5098 44.1748C34.5099 43.5259 35.0357 43.0002 35.6846 43Z" fill="white" stroke="#2081FF" stroke-width="0.261199"/>
<path d="M35.685 44.9598C36.1177 44.9598 36.4686 44.6089 36.4686 44.1762C36.4686 43.7434 36.1177 43.3926 35.685 43.3926C35.2522 43.3926 34.9014 43.7434 34.9014 44.1762C34.9014 44.6089 35.2522 44.9598 35.685 44.9598Z" fill="#2081FF"/>
<path d="M44.3047 28.373C44.9537 28.373 45.4803 28.8989 45.4805 29.5479C45.4805 30.197 44.9538 30.7236 44.3047 30.7236C43.6557 30.7235 43.1299 30.1969 43.1299 29.5479C43.1301 28.899 43.6558 28.3732 44.3047 28.373Z" fill="white" stroke="#2081FF" stroke-width="0.261199"/>
<path d="M44.3051 30.3328C44.7379 30.3328 45.0887 29.982 45.0887 29.5492C45.0887 29.1165 44.7379 28.7656 44.3051 28.7656C43.8723 28.7656 43.5215 29.1165 43.5215 29.5492C43.5215 29.982 43.8723 30.3328 44.3051 30.3328Z" fill="#2081FF"/>
<path d="M52.9248 36.207C53.5738 36.207 54.1004 36.7328 54.1006 37.3818C54.1006 38.031 53.574 38.5576 52.9248 38.5576C52.2758 38.5574 51.75 38.0309 51.75 37.3818C51.7502 36.7329 52.2759 36.2072 52.9248 36.207Z" fill="white" stroke="#2081FF" stroke-width="0.261199"/>
<path d="M52.9252 38.1668C53.358 38.1668 53.7088 37.816 53.7088 37.3832C53.7088 36.9504 53.358 36.5996 52.9252 36.5996C52.4924 36.5996 52.1416 36.9504 52.1416 37.3832C52.1416 37.816 52.4924 38.1668 52.9252 38.1668Z" fill="#2081FF"/>
<path d="M61.5449 53.4453C62.194 53.4453 62.7205 53.9711 62.7207 54.6201C62.7207 55.2693 62.1941 55.7959 61.5449 55.7959C60.8959 55.7957 60.3701 55.2692 60.3701 54.6201C60.3703 53.9712 60.896 53.4455 61.5449 53.4453Z" fill="white" stroke="#2081FF" stroke-width="0.261199"/>
<path d="M61.5453 55.4051C61.9781 55.4051 62.3289 55.0543 62.3289 54.6215C62.3289 54.1887 61.9781 53.8379 61.5453 53.8379C61.1125 53.8379 60.7617 54.1887 60.7617 54.6215C60.7617 55.0543 61.1125 55.4051 61.5453 55.4051Z" fill="#2081FF"/>
<path d="M70.1631 34.1152C70.8121 34.1152 71.3387 34.641 71.3389 35.29C71.3389 35.9392 70.8122 36.4658 70.1631 36.4658C69.5141 36.4656 68.9883 35.9391 68.9883 35.29C68.9885 34.6411 69.5142 34.1154 70.1631 34.1152Z" fill="white" stroke="#2081FF" stroke-width="0.261199"/>
<path d="M70.1635 36.075C70.5962 36.075 70.9471 35.7242 70.9471 35.2914C70.9471 34.8586 70.5962 34.5078 70.1635 34.5078C69.7307 34.5078 69.3799 34.8586 69.3799 35.2914C69.3799 35.7242 69.7307 36.075 70.1635 36.075Z" fill="#2081FF"/>
<path d="M78.7832 22.8867C79.4322 22.8867 79.9588 23.4125 79.959 24.0615C79.959 24.7107 79.4324 25.2373 78.7832 25.2373C78.1342 25.2371 77.6084 24.7106 77.6084 24.0615C77.6086 23.4126 78.1343 22.8869 78.7832 22.8867Z" fill="white" stroke="#2081FF" stroke-width="0.261199"/>
<path d="M78.7836 24.8465C79.2164 24.8465 79.5672 24.4957 79.5672 24.0629C79.5672 23.6301 79.2164 23.2793 78.7836 23.2793C78.3508 23.2793 78 23.6301 78 24.0629C78 24.4957 78.3508 24.8465 78.7836 24.8465Z" fill="#2081FF"/>
<path d="M78.7832 22.8867C79.4322 22.8867 79.9588 23.4125 79.959 24.0615C79.959 24.7107 79.4324 25.2373 78.7832 25.2373C78.1342 25.2371 77.6084 24.7106 77.6084 24.0615C77.6086 23.4126 78.1343 22.8869 78.7832 22.8867Z" fill="white" stroke="#2081FF" stroke-width="0.261199"/>
<path d="M78.7836 24.8465C79.2164 24.8465 79.5672 24.4957 79.5672 24.0629C79.5672 23.6301 79.2164 23.2793 78.7836 23.2793C78.3508 23.2793 78 23.6301 78 24.0629C78 24.4957 78.3508 24.8465 78.7836 24.8465Z" fill="#2081FF"/>
<rect x="23.0198" y="28.1096" width="7.87319" height="3.91799" rx="1.95899" fill="white"/>
<rect x="23.0198" y="28.1096" width="7.87319" height="3.91799" rx="1.95899" stroke="#D6D6D6" stroke-width="0.261199"/>
<path d="M25.1897 30.5684H25.0244V29.5113C25.0244 29.4712 25.0244 29.4368 25.0244 29.4083C25.025 29.379 25.0257 29.3525 25.0264 29.3287C25.0278 29.3042 25.0295 29.2794 25.0315 29.2542C25.0104 29.276 24.9907 29.2947 24.9723 29.3103C24.954 29.3253 24.9312 29.344 24.904 29.3664L24.7336 29.5032L24.6448 29.3879L25.0489 29.0767H25.1897V30.5684ZM26.2263 29.6562C26.3276 29.6562 26.4157 29.6735 26.4906 29.7082C26.5654 29.7422 26.6232 29.7919 26.664 29.8572C26.7055 29.9225 26.7262 30.0017 26.7262 30.0949C26.7262 30.197 26.7041 30.2851 26.6599 30.3592C26.6157 30.4327 26.5521 30.4895 26.4691 30.5296C26.3861 30.569 26.2868 30.5888 26.1712 30.5888C26.0937 30.5888 26.0215 30.582 25.9549 30.5684C25.8882 30.5548 25.8321 30.5343 25.7865 30.5071V30.3459C25.8362 30.3759 25.8964 30.3997 25.9671 30.4174C26.0379 30.435 26.1066 30.4439 26.1732 30.4439C26.2487 30.4439 26.3147 30.432 26.3712 30.4082C26.4283 30.3837 26.4725 30.347 26.5038 30.298C26.5358 30.2483 26.5518 30.1861 26.5518 30.1113C26.5518 30.012 26.5212 29.9354 26.4599 29.8817C26.3994 29.8273 26.3035 29.8001 26.1722 29.8001C26.13 29.8001 26.0838 29.8035 26.0335 29.8103C25.9831 29.8171 25.9416 29.8246 25.909 29.8327L25.8233 29.7766L25.8804 29.0767H26.6222V29.2318H26.0253L25.9875 29.6817C26.0134 29.6763 26.0467 29.6708 26.0875 29.6654C26.1283 29.6593 26.1746 29.6562 26.2263 29.6562ZM27.4435 29.0552C27.5299 29.0552 27.6064 29.0688 27.6731 29.0961C27.7397 29.1233 27.7918 29.1634 27.8292 29.2165C27.8673 29.2688 27.8863 29.3334 27.8863 29.4103C27.8863 29.4708 27.8731 29.5239 27.8465 29.5695C27.8207 29.6144 27.7857 29.6538 27.7414 29.6878C27.6972 29.7212 27.6483 29.7511 27.5945 29.7776C27.6585 29.8069 27.7159 29.8399 27.767 29.8766C27.8187 29.9133 27.8595 29.9565 27.8894 30.0062C27.9193 30.0558 27.9343 30.1147 27.9343 30.1827C27.9343 30.2663 27.9139 30.3388 27.8731 30.4C27.8329 30.4605 27.7765 30.5071 27.7037 30.5398C27.6309 30.5724 27.5455 30.5888 27.4476 30.5888C27.3422 30.5888 27.2524 30.5731 27.1782 30.5418C27.1048 30.5099 27.0487 30.4643 27.0099 30.4051C26.9718 30.3453 26.9528 30.2735 26.9528 30.1898C26.9528 30.1211 26.9674 30.0616 26.9966 30.0113C27.0259 29.9603 27.0646 29.9164 27.1129 29.8797C27.1612 29.8429 27.2139 29.812 27.2711 29.7868C27.2214 29.7596 27.1759 29.7286 27.1344 29.694C27.0936 29.6593 27.0609 29.6188 27.0364 29.5725C27.0126 29.5256 27.0007 29.4712 27.0007 29.4093C27.0007 29.3338 27.0198 29.2698 27.0578 29.2175C27.0966 29.1644 27.1493 29.1243 27.216 29.0971C27.2833 29.0692 27.3592 29.0552 27.4435 29.0552ZM27.1191 30.1908C27.1191 30.267 27.1459 30.3299 27.1997 30.3796C27.2534 30.4286 27.3347 30.4531 27.4435 30.4531C27.5469 30.4531 27.6268 30.4286 27.6833 30.3796C27.7397 30.3299 27.768 30.265 27.768 30.1847C27.768 30.1351 27.7551 30.0915 27.7292 30.0541C27.7034 30.016 27.6666 29.982 27.619 29.9521C27.5714 29.9222 27.5153 29.895 27.4507 29.8705L27.4139 29.8572C27.3514 29.8831 27.298 29.912 27.2537 29.9439C27.2102 29.9752 27.1769 30.0109 27.1538 30.0511C27.1306 30.0912 27.1191 30.1378 27.1191 30.1908ZM27.4415 29.194C27.3612 29.194 27.2956 29.2134 27.2446 29.2522C27.1935 29.2903 27.168 29.3453 27.168 29.4175C27.168 29.4691 27.1803 29.513 27.2048 29.5491C27.2299 29.5844 27.2639 29.6151 27.3068 29.6409C27.3497 29.6661 27.3976 29.6895 27.4507 29.7113C27.5024 29.6895 27.5483 29.6657 27.5884 29.6399C27.6285 29.6134 27.6602 29.5821 27.6833 29.546C27.7064 29.51 27.718 29.4668 27.718 29.4164C27.718 29.3443 27.6925 29.2892 27.6415 29.2511C27.5911 29.213 27.5245 29.194 27.4415 29.194ZM29.1321 29.8205C29.1321 29.9415 29.1229 30.0497 29.1046 30.1449C29.0862 30.2402 29.0573 30.3208 29.0179 30.3867C28.9784 30.4527 28.9274 30.5031 28.8648 30.5378C28.8022 30.5718 28.7271 30.5888 28.6393 30.5888C28.5284 30.5888 28.4366 30.5585 28.3638 30.498C28.2917 30.4374 28.2377 30.35 28.2016 30.2357C28.1662 30.1208 28.1486 29.9824 28.1486 29.8205C28.1486 29.6613 28.1645 29.5246 28.1965 29.4103C28.2292 29.2954 28.2815 29.2073 28.3536 29.146C28.4257 29.0842 28.521 29.0532 28.6393 29.0532C28.7516 29.0532 28.8441 29.0838 28.9168 29.145C28.9896 29.2056 29.0437 29.2933 29.0791 29.4083C29.1144 29.5225 29.1321 29.6599 29.1321 29.8205ZM28.3189 29.8205C28.3189 29.9592 28.3295 30.0749 28.3506 30.1674C28.3717 30.2599 28.4057 30.3293 28.4526 30.3755C28.5002 30.4211 28.5625 30.4439 28.6393 30.4439C28.7162 30.4439 28.7781 30.4211 28.825 30.3755C28.8726 30.3299 28.907 30.2609 28.9281 30.1684C28.9498 30.0759 28.9607 29.9599 28.9607 29.8205C28.9607 29.6838 28.9502 29.5695 28.9291 29.4776C28.908 29.3851 28.874 29.3158 28.8271 29.2695C28.7801 29.2226 28.7175 29.1991 28.6393 29.1991C28.5611 29.1991 28.4985 29.2226 28.4516 29.2695C28.4046 29.3158 28.3706 29.3851 28.3496 29.4776C28.3291 29.5695 28.3189 29.6838 28.3189 29.8205Z" fill="#212121"/>
<rect x="31.6389" y="38.0354" width="7.87319" height="3.91799" rx="1.95899" fill="white"/>
<rect x="31.6389" y="38.0354" width="7.87319" height="3.91799" rx="1.95899" stroke="#D6D6D6" stroke-width="0.261199"/>
<path d="M33.8088 40.4941H33.6435V39.4371C33.6435 39.397 33.6435 39.3626 33.6435 39.334C33.6442 39.3048 33.6449 39.2783 33.6455 39.2545C33.6469 39.23 33.6486 39.2052 33.6506 39.18C33.6296 39.2017 33.6098 39.2205 33.5915 39.2361C33.5731 39.2511 33.5503 39.2698 33.5231 39.2922L33.3527 39.4289L33.264 39.3136L33.668 39.0024H33.8088V40.4941ZM34.3894 39.8564C34.3894 39.7667 34.3955 39.6789 34.4077 39.5932C34.4206 39.5075 34.4421 39.4279 34.472 39.3545C34.5019 39.2803 34.5427 39.2154 34.5944 39.1596C34.6461 39.1038 34.7104 39.0603 34.7873 39.029C34.8648 38.997 34.9577 38.981 35.0658 38.981C35.0964 38.981 35.1294 38.9827 35.1648 38.9861C35.2002 38.9888 35.2294 38.9936 35.2525 39.0004V39.1463C35.2274 39.1375 35.1985 39.131 35.1658 39.1269C35.1338 39.1228 35.1015 39.1208 35.0689 39.1208C34.9424 39.1208 34.8427 39.1484 34.7699 39.2035C34.6978 39.2585 34.6458 39.3334 34.6138 39.4279C34.5819 39.5218 34.5635 39.6276 34.5587 39.7452H34.5699C34.591 39.7112 34.6179 39.6806 34.6506 39.6534C34.6832 39.6255 34.7227 39.6034 34.7689 39.5871C34.8158 39.5708 34.8703 39.5626 34.9322 39.5626C35.0192 39.5626 35.0951 39.5803 35.1597 39.6157C35.225 39.651 35.2753 39.7024 35.3107 39.7697C35.3467 39.8371 35.3648 39.9187 35.3648 40.0146C35.3648 40.1173 35.3457 40.2061 35.3076 40.2809C35.2695 40.3557 35.2151 40.4135 35.1444 40.4543C35.0743 40.4945 34.9907 40.5145 34.8934 40.5145C34.8206 40.5145 34.7536 40.5006 34.6924 40.4727C34.6312 40.4448 34.5778 40.4033 34.5322 40.3482C34.4873 40.2931 34.4523 40.2248 34.4271 40.1432C34.4019 40.0608 34.3894 39.9653 34.3894 39.8564ZM34.8913 40.3717C34.9839 40.3717 35.058 40.3421 35.1138 40.2829C35.1695 40.2238 35.1974 40.1343 35.1974 40.0146C35.1974 39.9166 35.1726 39.8391 35.123 39.782C35.0733 39.7248 34.9985 39.6963 34.8985 39.6963C34.8305 39.6963 34.7713 39.7105 34.721 39.7391C34.6706 39.767 34.6315 39.8024 34.6036 39.8452C34.5757 39.8881 34.5618 39.9316 34.5618 39.9758C34.5618 40.0207 34.5682 40.0663 34.5812 40.1125C34.5948 40.1588 34.6152 40.2017 34.6424 40.2411C34.6696 40.2806 34.7039 40.3122 34.7454 40.336C34.7869 40.3598 34.8356 40.3717 34.8913 40.3717ZM36.5493 39.6381C36.5493 39.7286 36.5429 39.8167 36.53 39.9024C36.5177 39.9881 36.4963 40.068 36.4657 40.1421C36.4358 40.2163 36.3949 40.2812 36.3432 40.337C36.2915 40.3928 36.2266 40.4367 36.1484 40.4686C36.0708 40.4999 35.978 40.5156 35.8698 40.5156C35.8406 40.5156 35.8072 40.5135 35.7698 40.5094C35.7324 40.506 35.7018 40.5009 35.678 40.4941V40.3472C35.7032 40.3561 35.7328 40.3632 35.7668 40.3686C35.8008 40.3734 35.8341 40.3758 35.8668 40.3758C35.994 40.3758 36.0939 40.3486 36.1667 40.2942C36.2395 40.2391 36.2919 40.1646 36.3239 40.0707C36.3558 39.9762 36.3739 39.8701 36.3779 39.7524H36.3657C36.3453 39.785 36.3184 39.8153 36.2851 39.8432C36.2524 39.8704 36.2126 39.8925 36.1657 39.9095C36.1188 39.9258 36.064 39.934 36.0014 39.934C35.9151 39.934 35.8396 39.9163 35.7749 39.8809C35.711 39.8456 35.661 39.7942 35.6249 39.7269C35.5896 39.6595 35.5719 39.5782 35.5719 39.483C35.5719 39.3803 35.5913 39.2915 35.63 39.2167C35.6695 39.1412 35.7246 39.0831 35.7953 39.0422C35.8661 39.0014 35.9494 38.981 36.0453 38.981C36.1188 38.981 36.1861 38.995 36.2473 39.0229C36.3086 39.0507 36.3616 39.0926 36.4065 39.1484C36.4521 39.2035 36.4871 39.2718 36.5116 39.3534C36.5368 39.4351 36.5493 39.5299 36.5493 39.6381ZM36.0453 39.1249C35.9548 39.1249 35.8814 39.1545 35.8249 39.2137C35.7692 39.2728 35.7413 39.3619 35.7413 39.481C35.7413 39.5796 35.7654 39.6575 35.8137 39.7146C35.862 39.7718 35.9365 39.8003 36.0372 39.8003C36.1065 39.8003 36.1664 39.7864 36.2167 39.7585C36.2677 39.7306 36.3069 39.6952 36.3341 39.6524C36.3619 39.6095 36.3759 39.5657 36.3759 39.5208C36.3759 39.4759 36.3691 39.4303 36.3555 39.384C36.3426 39.3378 36.3225 39.2953 36.2953 39.2565C36.2681 39.2171 36.2337 39.1854 36.1922 39.1616C36.1507 39.1371 36.1018 39.1249 36.0453 39.1249ZM37.2585 38.981C37.3448 38.981 37.4214 38.9946 37.488 39.0218C37.5547 39.049 37.6067 39.0892 37.6441 39.1422C37.6822 39.1946 37.7013 39.2592 37.7013 39.3361C37.7013 39.3966 37.688 39.4497 37.6615 39.4953C37.6356 39.5402 37.6006 39.5796 37.5564 39.6136C37.5122 39.6469 37.4632 39.6769 37.4095 39.7034C37.4734 39.7327 37.5309 39.7656 37.5819 39.8024C37.6336 39.8391 37.6744 39.8823 37.7043 39.932C37.7343 39.9816 37.7492 40.0404 37.7492 40.1085C37.7492 40.1921 37.7288 40.2646 37.688 40.3258C37.6479 40.3863 37.5914 40.4329 37.5186 40.4656C37.4459 40.4982 37.3605 40.5145 37.2625 40.5145C37.1571 40.5145 37.0673 40.4989 36.9932 40.4676C36.9197 40.4356 36.8636 40.3901 36.8248 40.3309C36.7867 40.271 36.7677 40.1993 36.7677 40.1156C36.7677 40.0469 36.7823 39.9874 36.8116 39.9371C36.8408 39.886 36.8796 39.8422 36.9279 39.8054C36.9762 39.7687 37.0289 39.7378 37.086 39.7126C37.0364 39.6854 36.9908 39.6544 36.9493 39.6197C36.9085 39.585 36.8758 39.5446 36.8514 39.4983C36.8276 39.4514 36.8156 39.397 36.8156 39.3351C36.8156 39.2596 36.8347 39.1956 36.8728 39.1433C36.9116 39.0902 36.9643 39.0501 37.0309 39.0229C37.0983 38.995 37.1741 38.981 37.2585 38.981ZM36.934 40.1166C36.934 40.1928 36.9609 40.2557 37.0146 40.3054C37.0683 40.3544 37.1496 40.3788 37.2585 40.3788C37.3619 40.3788 37.4418 40.3544 37.4982 40.3054C37.5547 40.2557 37.5829 40.1908 37.5829 40.1105C37.5829 40.0608 37.57 40.0173 37.5441 39.9799C37.5183 39.9418 37.4816 39.9078 37.434 39.8779C37.3863 39.8479 37.3302 39.8207 37.2656 39.7962L37.2289 39.783C37.1663 39.8088 37.1129 39.8377 37.0687 39.8697C37.0252 39.901 36.9918 39.9367 36.9687 39.9768C36.9456 40.017 36.934 40.0636 36.934 40.1166ZM37.2564 39.1198C37.1762 39.1198 37.1105 39.1392 37.0595 39.1779C37.0085 39.216 36.983 39.2711 36.983 39.3432C36.983 39.3949 36.9952 39.4388 37.0197 39.4749C37.0449 39.5102 37.0789 39.5408 37.1217 39.5667C37.1646 39.5918 37.2125 39.6153 37.2656 39.6371C37.3173 39.6153 37.3632 39.5915 37.4033 39.5657C37.4435 39.5391 37.4751 39.5078 37.4982 39.4718C37.5214 39.4357 37.5329 39.3925 37.5329 39.3422C37.5329 39.2701 37.5074 39.215 37.4564 39.1769C37.4061 39.1388 37.3394 39.1198 37.2564 39.1198Z" fill="#212121"/>
<rect x="48.8782" y="31.2444" width="7.87319" height="3.91799" rx="1.95899" fill="white"/>
<rect x="48.8782" y="31.2444" width="7.87319" height="3.91799" rx="1.95899" stroke="#D6D6D6" stroke-width="0.261199"/>
<path d="M51.0481 33.7031H50.8828V32.6461C50.8828 32.606 50.8828 32.5716 50.8828 32.543C50.8834 32.5138 50.8841 32.4873 50.8848 32.4634C50.8862 32.439 50.8879 32.4141 50.8899 32.389C50.8688 32.4107 50.8491 32.4294 50.8307 32.4451C50.8124 32.46 50.7896 32.4788 50.7624 32.5012L50.592 32.6379L50.5032 32.5226L50.9073 32.2114H51.0481V33.7031ZM52.5357 32.5594C52.5357 32.626 52.5227 32.6838 52.4969 32.7328C52.471 32.7818 52.435 32.8219 52.3887 32.8532C52.3425 32.8838 52.2881 32.9052 52.2255 32.9175V32.9256C52.3438 32.9406 52.4326 32.9787 52.4918 33.0399C52.5517 33.1011 52.5816 33.1814 52.5816 33.2807C52.5816 33.3671 52.5612 33.4436 52.5204 33.5103C52.4802 33.5769 52.4183 33.6293 52.3347 33.6674C52.2517 33.7048 52.1452 33.7235 52.0153 33.7235C51.9364 33.7235 51.8633 33.7171 51.7959 33.7041C51.7293 33.6919 51.6653 33.6712 51.6041 33.6419V33.4827C51.666 33.5133 51.7334 33.5375 51.8061 33.5552C51.8789 33.5722 51.9493 33.5807 52.0173 33.5807C52.1534 33.5807 52.2517 33.5538 52.3122 33.5001C52.3728 33.4457 52.403 33.3715 52.403 33.2777C52.403 33.213 52.386 33.161 52.352 33.1215C52.3187 33.0814 52.2704 33.0522 52.2071 33.0338C52.1445 33.0148 52.069 33.0052 51.9806 33.0052H51.8317V32.8604H51.9816C52.0626 32.8604 52.1313 32.8484 52.1877 32.8246C52.2442 32.8008 52.2871 32.7675 52.3163 32.7246C52.3462 32.6811 52.3612 32.6298 52.3612 32.5706C52.3612 32.4951 52.336 32.4369 52.2857 32.3961C52.2354 32.3546 52.167 32.3339 52.0806 32.3339C52.0276 32.3339 51.9793 32.3393 51.9357 32.3502C51.8922 32.3611 51.8514 32.376 51.8133 32.3951C51.7752 32.4141 51.7371 32.4362 51.699 32.4614L51.6133 32.3451C51.6677 32.3029 51.734 32.2665 51.8123 32.2359C51.8905 32.2053 51.9793 32.19 52.0786 32.19C52.2309 32.19 52.3452 32.2247 52.4214 32.2941C52.4976 32.3635 52.5357 32.4519 52.5357 32.5594ZM52.8244 33.0654C52.8244 32.9756 52.8305 32.8879 52.8428 32.8022C52.8557 32.7165 52.8771 32.6369 52.9071 32.5634C52.937 32.4893 52.9778 32.4243 53.0295 32.3686C53.0812 32.3128 53.1455 32.2693 53.2223 32.238C53.2999 32.206 53.3927 32.19 53.5009 32.19C53.5315 32.19 53.5645 32.1917 53.5998 32.1951C53.6352 32.1978 53.6645 32.2026 53.6876 32.2094V32.3553C53.6624 32.3465 53.6335 32.34 53.6009 32.3359C53.5689 32.3318 53.5366 32.3298 53.5039 32.3298C53.3774 32.3298 53.2778 32.3573 53.205 32.4124C53.1329 32.4675 53.0809 32.5424 53.0489 32.6369C53.0169 32.7308 52.9985 32.8365 52.9938 32.9542H53.005C53.0261 32.9202 53.053 32.8896 53.0856 32.8624C53.1183 32.8345 53.1577 32.8124 53.204 32.7961C53.2509 32.7797 53.3053 32.7716 53.3672 32.7716C53.4543 32.7716 53.5301 32.7893 53.5947 32.8246C53.66 32.86 53.7104 32.9114 53.7458 32.9787C53.7818 33.046 53.7998 33.1277 53.7998 33.2236C53.7998 33.3263 53.7808 33.4151 53.7427 33.4899C53.7046 33.5647 53.6502 33.6225 53.5794 33.6633C53.5094 33.7035 53.4257 33.7235 53.3284 33.7235C53.2557 33.7235 53.1887 33.7096 53.1274 33.6817C53.0662 33.6538 53.0128 33.6123 52.9673 33.5572C52.9224 33.5021 52.8873 33.4338 52.8622 33.3521C52.837 33.2698 52.8244 33.1743 52.8244 33.0654ZM53.3264 33.5807C53.4189 33.5807 53.4931 33.5511 53.5488 33.4919C53.6046 33.4327 53.6325 33.3433 53.6325 33.2236C53.6325 33.1256 53.6077 33.0481 53.558 32.9909C53.5084 32.9338 53.4335 32.9052 53.3335 32.9052C53.2655 32.9052 53.2063 32.9195 53.156 32.9481C53.1057 32.976 53.0666 33.0114 53.0387 33.0542C53.0108 33.0971 52.9968 33.1406 52.9968 33.1848C52.9968 33.2297 53.0033 33.2753 53.0162 33.3215C53.0298 33.3678 53.0502 33.4106 53.0774 33.4501C53.1047 33.4895 53.139 33.5212 53.1805 33.545C53.222 33.5688 53.2706 33.5807 53.3264 33.5807ZM54.9824 33.7031H54.0049V33.5613L54.4039 33.1562C54.478 33.0814 54.5402 33.0148 54.5906 32.9563C54.6416 32.8978 54.6804 32.8403 54.7069 32.7838C54.7334 32.7267 54.7467 32.6641 54.7467 32.5961C54.7467 32.5117 54.7215 32.4475 54.6712 32.4033C54.6215 32.3584 54.5559 32.3359 54.4743 32.3359C54.4028 32.3359 54.3396 32.3482 54.2845 32.3726C54.2294 32.3971 54.1729 32.4318 54.1151 32.4767L54.0243 32.3624C54.0637 32.3291 54.1066 32.2995 54.1529 32.2737C54.1998 32.2478 54.2498 32.2274 54.3028 32.2125C54.3566 32.1975 54.4137 32.19 54.4743 32.19C54.5661 32.19 54.6453 32.206 54.712 32.238C54.7786 32.2699 54.83 32.3155 54.8661 32.3747C54.9028 32.4339 54.9211 32.5043 54.9211 32.5859C54.9211 32.6648 54.9055 32.7383 54.8742 32.8063C54.8429 32.8736 54.7991 32.9406 54.7426 33.0073C54.6861 33.0733 54.6202 33.1433 54.5447 33.2175L54.2202 33.5409V33.548H54.9824V33.7031Z" fill="#212121"/>
<rect x="57.4983" y="48.4846" width="6.87319" height="3.91799" rx="1.95899" fill="white"/>
<rect x="57.4983" y="48.4846" width="6.87319" height="3.91799" rx="1.95899" stroke="#D6D6D6" stroke-width="0.261199"/>
<path d="M59.0529 50.3057C59.0529 50.2159 59.059 50.1281 59.0713 50.0424C59.0842 49.9567 59.1056 49.8771 59.1356 49.8037C59.1655 49.7295 59.2063 49.6646 59.258 49.6088C59.3097 49.553 59.374 49.5095 59.4508 49.4782C59.5284 49.4462 59.6212 49.4302 59.7294 49.4302C59.76 49.4302 59.793 49.4319 59.8284 49.4353C59.8637 49.4381 59.893 49.4428 59.9161 49.4496V49.5955C59.8909 49.5867 59.862 49.5802 59.8294 49.5761C59.7974 49.5721 59.7651 49.57 59.7325 49.57C59.6059 49.57 59.5063 49.5976 59.4335 49.6527C59.3614 49.7078 59.3094 49.7826 59.2774 49.8771C59.2454 49.971 59.2271 50.0768 59.2223 50.1945H59.2335C59.2546 50.1604 59.2815 50.1298 59.3141 50.1026C59.3468 50.0747 59.3862 50.0526 59.4325 50.0363C59.4794 50.02 59.5338 50.0118 59.5957 50.0118C59.6828 50.0118 59.7586 50.0295 59.8233 50.0649C59.8886 50.1002 59.9389 50.1516 59.9743 50.2189C60.0103 50.2863 60.0283 50.3679 60.0283 50.4638C60.0283 50.5665 60.0093 50.6553 59.9712 50.7301C59.9331 50.8049 59.8787 50.8628 59.808 50.9036C59.7379 50.9437 59.6542 50.9638 59.557 50.9638C59.4842 50.9638 59.4172 50.9498 59.356 50.9219C59.2947 50.894 59.2413 50.8526 59.1958 50.7975C59.1509 50.7424 59.1158 50.674 59.0907 50.5924C59.0655 50.5101 59.0529 50.4145 59.0529 50.3057ZM59.5549 50.8209C59.6474 50.8209 59.7216 50.7913 59.7773 50.7322C59.8331 50.673 59.861 50.5835 59.861 50.4638C59.861 50.3659 59.8362 50.2883 59.7865 50.2312C59.7369 50.174 59.6621 50.1455 59.5621 50.1455C59.494 50.1455 59.4349 50.1598 59.3845 50.1883C59.3342 50.2162 59.2951 50.2516 59.2672 50.2944C59.2393 50.3373 59.2254 50.3808 59.2254 50.425C59.2254 50.4699 59.2318 50.5155 59.2447 50.5618C59.2583 50.608 59.2788 50.6509 59.306 50.6903C59.3332 50.7298 59.3675 50.7614 59.409 50.7852C59.4505 50.809 59.4991 50.8209 59.5549 50.8209ZM61.2109 50.9434H60.2334V50.8015L60.6324 50.3965C60.7065 50.3217 60.7687 50.255 60.8191 50.1965C60.8701 50.138 60.9089 50.0805 60.9354 50.0241C60.9619 49.9669 60.9752 49.9043 60.9752 49.8363C60.9752 49.752 60.95 49.6877 60.8997 49.6435C60.85 49.5986 60.7844 49.5761 60.7028 49.5761C60.6313 49.5761 60.5681 49.5884 60.513 49.6129C60.4579 49.6374 60.4014 49.6721 60.3436 49.7169L60.2528 49.6027C60.2923 49.5693 60.3351 49.5398 60.3814 49.5139C60.4283 49.4881 60.4783 49.4677 60.5314 49.4527C60.5851 49.4377 60.6422 49.4302 60.7028 49.4302C60.7946 49.4302 60.8738 49.4462 60.9405 49.4782C61.0072 49.5102 61.0585 49.5557 61.0946 49.6149C61.1313 49.6741 61.1497 49.7445 61.1497 49.8261C61.1497 49.905 61.134 49.9785 61.1027 50.0465C61.0714 50.1138 61.0276 50.1808 60.9711 50.2475C60.9146 50.3135 60.8487 50.3836 60.7732 50.4577L60.4487 50.7811V50.7883H61.2109V50.9434ZM62.4148 50.1955C62.4148 50.3165 62.4057 50.4247 62.3873 50.5199C62.3689 50.6152 62.34 50.6958 62.3006 50.7617C62.2611 50.8277 62.2101 50.8781 62.1475 50.9128C62.0849 50.9468 62.0098 50.9638 61.922 50.9638C61.8112 50.9638 61.7193 50.9335 61.6466 50.873C61.5744 50.8124 61.5204 50.725 61.4843 50.6107C61.449 50.4958 61.4313 50.3574 61.4313 50.1955C61.4313 50.0363 61.4473 49.8996 61.4792 49.7853C61.5119 49.6704 61.5642 49.5823 61.6363 49.521C61.7084 49.4592 61.8037 49.4282 61.922 49.4282C62.0343 49.4282 62.1268 49.4588 62.1996 49.52C62.2723 49.5806 62.3264 49.6683 62.3618 49.7833C62.3972 49.8975 62.4148 50.0349 62.4148 50.1955ZM61.6017 50.1955C61.6017 50.3342 61.6122 50.4499 61.6333 50.5424C61.6544 50.6349 61.6884 50.7043 61.7353 50.7505C61.7829 50.7961 61.8452 50.8189 61.922 50.8189C61.9989 50.8189 62.0608 50.7961 62.1077 50.7505C62.1553 50.7049 62.1897 50.6359 62.2108 50.5434C62.2325 50.4509 62.2434 50.3349 62.2434 50.1955C62.2434 50.0588 62.2329 49.9445 62.2118 49.8526C62.1907 49.7601 62.1567 49.6908 62.1098 49.6445C62.0628 49.5976 62.0003 49.5741 61.922 49.5741C61.8438 49.5741 61.7812 49.5976 61.7343 49.6445C61.6874 49.6908 61.6534 49.7601 61.6323 49.8526C61.6119 49.9445 61.6017 50.0588 61.6017 50.1955Z" fill="#212121"/>
<rect x="66.1174" y="29.1546" width="7.87319" height="3.91799" rx="1.95899" fill="white"/>
<rect x="66.1174" y="29.1546" width="7.87319" height="3.91799" rx="1.95899" stroke="#D6D6D6" stroke-width="0.261199"/>
<path d="M68.2873 31.6133H68.122V30.5562C68.122 30.5161 68.122 30.4818 68.122 30.4532C68.1227 30.4239 68.1234 30.3974 68.1241 30.3736C68.1254 30.3491 68.1271 30.3243 68.1292 30.2991C68.1081 30.3209 68.0884 30.3396 68.07 30.3552C68.0516 30.3702 68.0288 30.3889 68.0016 30.4114L67.8312 30.5481L67.7425 30.4328L68.1465 30.1216H68.2873V31.6133ZM69.9045 31.2674H69.6811V31.6133H69.5158V31.2674H68.7944V31.1246L69.5045 30.1134H69.6811V31.1144H69.9045V31.2674ZM69.5158 31.1144V30.6266C69.5158 30.5892 69.5161 30.5556 69.5168 30.5256C69.5175 30.495 69.5185 30.4668 69.5198 30.4409C69.5212 30.4144 69.5222 30.3893 69.5229 30.3654C69.5243 30.3416 69.5253 30.3182 69.526 30.295H69.5178C69.5049 30.3223 69.4899 30.3512 69.4729 30.3818C69.4566 30.4117 69.4399 30.4386 69.4229 30.4624L68.9628 31.1144H69.5158ZM70.0637 30.9756C70.0637 30.8858 70.0698 30.7981 70.082 30.7123C70.095 30.6266 70.1164 30.5471 70.1463 30.4736C70.1762 30.3995 70.2171 30.3345 70.2688 30.2787C70.3204 30.2229 70.3847 30.1794 70.4616 30.1481C70.5391 30.1161 70.632 30.1002 70.7401 30.1002C70.7707 30.1002 70.8037 30.1019 70.8391 30.1053C70.8745 30.108 70.9037 30.1127 70.9269 30.1195V30.2655C70.9017 30.2566 70.8728 30.2501 70.8401 30.2461C70.8082 30.242 70.7758 30.2399 70.7432 30.2399C70.6167 30.2399 70.517 30.2675 70.4442 30.3226C70.3721 30.3777 70.3201 30.4525 70.2881 30.5471C70.2562 30.6409 70.2378 30.7467 70.233 30.8644H70.2443C70.2654 30.8304 70.2922 30.7998 70.3249 30.7725C70.3575 30.7447 70.397 30.7226 70.4432 30.7062C70.4902 30.6899 70.5446 30.6817 70.6065 30.6817C70.6935 30.6817 70.7694 30.6994 70.834 30.7348C70.8993 30.7702 70.9496 30.8215 70.985 30.8889C71.0211 30.9562 71.0391 31.0378 71.0391 31.1337C71.0391 31.2364 71.02 31.3252 70.9819 31.4C70.9439 31.4749 70.8894 31.5327 70.8187 31.5735C70.7486 31.6136 70.665 31.6337 70.5677 31.6337C70.4949 31.6337 70.4279 31.6197 70.3667 31.5919C70.3055 31.564 70.2521 31.5225 70.2065 31.4674C70.1616 31.4123 70.1266 31.3439 70.1014 31.2623C70.0763 31.18 70.0637 31.0844 70.0637 30.9756ZM70.5657 31.4908C70.6582 31.4908 70.7323 31.4613 70.7881 31.4021C70.8439 31.3429 70.8718 31.2535 70.8718 31.1337C70.8718 31.0358 70.8469 30.9582 70.7973 30.9011C70.7476 30.844 70.6728 30.8154 70.5728 30.8154C70.5048 30.8154 70.4456 30.8297 70.3953 30.8583C70.3449 30.8861 70.3058 30.9215 70.2779 30.9644C70.25 31.0072 70.2361 31.0508 70.2361 31.095C70.2361 31.1399 70.2426 31.1854 70.2555 31.2317C70.2691 31.2779 70.2895 31.3208 70.3167 31.3602C70.3439 31.3997 70.3783 31.4313 70.4198 31.4551C70.4613 31.4789 70.5099 31.4908 70.5657 31.4908ZM71.7156 30.7011C71.8169 30.7011 71.905 30.7185 71.9798 30.7532C72.0546 30.7872 72.1125 30.8368 72.1533 30.9021C72.1948 30.9674 72.2155 31.0467 72.2155 31.1399C72.2155 31.2419 72.1934 31.33 72.1492 31.4041C72.105 31.4776 72.0414 31.5344 71.9584 31.5745C71.8754 31.614 71.7761 31.6337 71.6605 31.6337C71.5829 31.6337 71.5108 31.6269 71.4441 31.6133C71.3775 31.5997 71.3214 31.5793 71.2758 31.5521V31.3909C71.3255 31.4208 71.3857 31.4446 71.4564 31.4623C71.5271 31.48 71.5958 31.4888 71.6625 31.4888C71.738 31.4888 71.804 31.4769 71.8604 31.4531C71.9176 31.4286 71.9618 31.3919 71.9931 31.3429C72.025 31.2932 72.041 31.231 72.041 31.1562C72.041 31.0569 72.0104 30.9803 71.9492 30.9266C71.8887 30.8722 71.7928 30.845 71.6615 30.845C71.6193 30.845 71.573 30.8484 71.5227 30.8552C71.4724 30.862 71.4309 30.8695 71.3982 30.8776L71.3125 30.8215L71.3697 30.1216H72.1114V30.2767H71.5145L71.4768 30.7266C71.5026 30.7212 71.536 30.7157 71.5768 30.7103C71.6176 30.7042 71.6639 30.7011 71.7156 30.7011Z" fill="#212121"/>
<rect x="74.7376" y="17.9221" width="7.87319" height="3.91799" rx="1.95899" fill="white"/>
<rect x="74.7376" y="17.9221" width="7.87319" height="3.91799" rx="1.95899" stroke="#D6D6D6" stroke-width="0.261199"/>
<path d="M77.2543 20.3809H76.2769V20.239L76.6758 19.834C76.75 19.7592 76.8122 19.6925 76.8625 19.634C76.9136 19.5755 76.9523 19.518 76.9789 19.4616C77.0054 19.4044 77.0186 19.3418 77.0186 19.2738C77.0186 19.1895 76.9935 19.1252 76.9431 19.081C76.8935 19.0361 76.8278 19.0136 76.7462 19.0136C76.6748 19.0136 76.6115 19.0259 76.5564 19.0504C76.5013 19.0749 76.4449 19.1096 76.3871 19.1544L76.2963 19.0402C76.3357 19.0068 76.3786 18.9773 76.4248 18.9514C76.4718 18.9256 76.5218 18.9052 76.5748 18.8902C76.6285 18.8752 76.6857 18.8677 76.7462 18.8677C76.838 18.8677 76.9173 18.8837 76.984 18.9157C77.0506 18.9477 77.102 18.9932 77.138 19.0524C77.1748 19.1116 77.1931 19.182 77.1931 19.2636C77.1931 19.3425 77.1775 19.416 77.1462 19.484C77.1149 19.5513 77.071 19.6183 77.0146 19.685C76.9581 19.751 76.8921 19.8211 76.8166 19.8952L76.4922 20.2186V20.2258H77.2543V20.3809ZM78.4501 20.3809H77.4727V20.239L77.8716 19.834C77.9458 19.7592 78.008 19.6925 78.0583 19.634C78.1094 19.5755 78.1481 19.518 78.1747 19.4616C78.2012 19.4044 78.2144 19.3418 78.2144 19.2738C78.2144 19.1895 78.1893 19.1252 78.1389 19.081C78.0893 19.0361 78.0236 19.0136 77.942 19.0136C77.8706 19.0136 77.8073 19.0259 77.7522 19.0504C77.6971 19.0749 77.6407 19.1096 77.5829 19.1544L77.4921 19.0402C77.5315 19.0068 77.5744 18.9773 77.6206 18.9514C77.6676 18.9256 77.7176 18.9052 77.7706 18.8902C77.8243 18.8752 77.8815 18.8677 77.942 18.8677C78.0339 18.8677 78.1131 18.8837 78.1798 18.9157C78.2464 18.9477 78.2978 18.9932 78.3338 19.0524C78.3706 19.1116 78.3889 19.182 78.3889 19.2636C78.3889 19.3425 78.3733 19.416 78.342 19.484C78.3107 19.5513 78.2668 19.6183 78.2104 19.685C78.1539 19.751 78.0879 19.8211 78.0124 19.8952L77.688 20.2186V20.2258H78.4501V20.3809ZM79.648 19.5248C79.648 19.6153 79.6415 19.7034 79.6286 19.7891C79.6163 19.8748 79.5949 19.9547 79.5643 20.0289C79.5344 20.103 79.4936 20.168 79.4419 20.2237C79.3902 20.2795 79.3252 20.3234 79.247 20.3554C79.1695 20.3866 79.0766 20.4023 78.9685 20.4023C78.9392 20.4023 78.9059 20.4002 78.8685 20.3962C78.8311 20.3928 78.8004 20.3877 78.7766 20.3809V20.2339C78.8018 20.2428 78.8314 20.2499 78.8654 20.2554C78.8994 20.2601 78.9327 20.2625 78.9654 20.2625C79.0926 20.2625 79.1926 20.2353 79.2654 20.1809C79.3381 20.1258 79.3905 20.0513 79.4225 19.9574C79.4545 19.8629 79.4725 19.7568 79.4766 19.6391H79.4643C79.4439 19.6717 79.417 19.702 79.3837 19.7299C79.3511 19.7571 79.3113 19.7792 79.2643 19.7962C79.2174 19.8125 79.1627 19.8207 79.1001 19.8207C79.0137 19.8207 78.9382 19.803 78.8736 19.7677C78.8096 19.7323 78.7596 19.6809 78.7236 19.6136C78.6882 19.5462 78.6705 19.465 78.6705 19.3697C78.6705 19.267 78.6899 19.1783 78.7287 19.1034C78.7681 19.0279 78.8232 18.9698 78.894 18.929C78.9647 18.8881 79.048 18.8677 79.1439 18.8677C79.2174 18.8677 79.2847 18.8817 79.346 18.9096C79.4072 18.9375 79.4602 18.9793 79.5051 19.0351C79.5507 19.0902 79.5857 19.1585 79.6102 19.2402C79.6354 19.3218 79.648 19.4167 79.648 19.5248ZM79.1439 19.0116C79.0535 19.0116 78.98 19.0412 78.9236 19.1004C78.8678 19.1595 78.8399 19.2487 78.8399 19.3677C78.8399 19.4663 78.864 19.5442 78.9123 19.6013C78.9606 19.6585 79.0351 19.687 79.1358 19.687C79.2052 19.687 79.265 19.6731 79.3154 19.6452C79.3664 19.6173 79.4055 19.582 79.4327 19.5391C79.4606 19.4963 79.4745 19.4524 79.4745 19.4075C79.4745 19.3626 79.4677 19.317 79.4541 19.2708C79.4412 19.2245 79.4211 19.182 79.3939 19.1432C79.3667 19.1038 79.3324 19.0721 79.2909 19.0483C79.2494 19.0238 79.2004 19.0116 79.1439 19.0116ZM80.3571 18.8677C80.4435 18.8677 80.52 18.8813 80.5867 18.9086C80.6533 18.9358 80.7054 18.9759 80.7428 19.029C80.7809 19.0813 80.7999 19.1459 80.7999 19.2228C80.7999 19.2833 80.7866 19.3364 80.7601 19.382C80.7343 19.4269 80.6992 19.4663 80.655 19.5003C80.6108 19.5337 80.5618 19.5636 80.5081 19.5901C80.572 19.6194 80.6295 19.6524 80.6805 19.6891C80.7322 19.7258 80.773 19.769 80.803 19.8187C80.8329 19.8683 80.8479 19.9272 80.8479 19.9952C80.8479 20.0788 80.8275 20.1513 80.7866 20.2125C80.7465 20.273 80.6901 20.3196 80.6173 20.3523C80.5445 20.3849 80.4591 20.4013 80.3612 20.4013C80.2557 20.4013 80.166 20.3856 80.0918 20.3543C80.0184 20.3224 79.9622 20.2768 79.9235 20.2176C79.8854 20.1578 79.8663 20.086 79.8663 20.0023C79.8663 19.9336 79.881 19.8741 79.9102 19.8238C79.9394 19.7728 79.9782 19.7289 80.0265 19.6922C80.0748 19.6554 80.1275 19.6245 80.1847 19.5993C80.135 19.5721 80.0894 19.5411 80.0479 19.5065C80.0071 19.4718 79.9745 19.4313 79.95 19.385C79.9262 19.3381 79.9143 19.2837 79.9143 19.2218C79.9143 19.1463 79.9333 19.0823 79.9714 19.03C80.0102 18.9769 80.0629 18.9368 80.1296 18.9096C80.1969 18.8817 80.2727 18.8677 80.3571 18.8677ZM80.0326 20.0033C80.0326 20.0795 80.0595 20.1424 80.1132 20.1921C80.167 20.2411 80.2483 20.2656 80.3571 20.2656C80.4605 20.2656 80.5404 20.2411 80.5969 20.1921C80.6533 20.1424 80.6816 20.0775 80.6816 19.9972C80.6816 19.9476 80.6686 19.904 80.6428 19.8666C80.6169 19.8285 80.5802 19.7945 80.5326 19.7646C80.485 19.7347 80.4289 19.7075 80.3642 19.683L80.3275 19.6697C80.2649 19.6956 80.2115 19.7245 80.1673 19.7564C80.1238 19.7877 80.0905 19.8234 80.0673 19.8636C80.0442 19.9037 80.0326 19.9503 80.0326 20.0033ZM80.3551 19.0065C80.2748 19.0065 80.2091 19.0259 80.1581 19.0647C80.1071 19.1028 80.0816 19.1578 80.0816 19.23C80.0816 19.2816 80.0939 19.3255 80.1183 19.3616C80.1435 19.3969 80.1775 19.4276 80.2204 19.4534C80.2632 19.4786 80.3112 19.502 80.3642 19.5238C80.4159 19.502 80.4618 19.4782 80.502 19.4524C80.5421 19.4259 80.5737 19.3946 80.5969 19.3585C80.62 19.3225 80.6316 19.2793 80.6316 19.2289C80.6316 19.1568 80.606 19.1017 80.555 19.0636C80.5047 19.0255 80.438 19.0065 80.3551 19.0065Z" fill="#212121"/>
<rect x="40.259" y="23.4065" width="7.87319" height="3.91799" rx="1.95899" fill="white"/>
<rect x="40.259" y="23.4065" width="7.87319" height="3.91799" rx="1.95899" stroke="#D6D6D6" stroke-width="0.261199"/>
<path d="M42.4289 25.8652H42.2636V24.8082C42.2636 24.7681 42.2636 24.7337 42.2636 24.7051C42.2643 24.6759 42.265 24.6494 42.2657 24.6256C42.267 24.6011 42.2687 24.5762 42.2708 24.5511C42.2497 24.5728 42.23 24.5915 42.2116 24.6072C42.1932 24.6222 42.1704 24.6409 42.1432 24.6633L41.9728 24.8L41.8841 24.6847L42.2881 24.3735H42.4289V25.8652ZM43.9737 25.0092C43.9737 25.0997 43.9672 25.1877 43.9543 25.2735C43.942 25.3592 43.9206 25.4391 43.89 25.5132C43.8601 25.5874 43.8193 25.6523 43.7676 25.7081C43.7159 25.7639 43.6509 25.8078 43.5727 25.8397C43.4951 25.871 43.4023 25.8867 43.2941 25.8867C43.2649 25.8867 43.2316 25.8846 43.1941 25.8805C43.1567 25.8771 43.1261 25.872 43.1023 25.8652V25.7183C43.1275 25.7272 43.1571 25.7343 43.1911 25.7397C43.2251 25.7445 43.2584 25.7469 43.2911 25.7469C43.4183 25.7469 43.5183 25.7197 43.591 25.6653C43.6638 25.6102 43.7162 25.5357 43.7482 25.4418C43.7801 25.3473 43.7982 25.2411 43.8023 25.1235H43.79C43.7696 25.1561 43.7427 25.1864 43.7094 25.2143C43.6768 25.2415 43.637 25.2636 43.59 25.2806C43.5431 25.2969 43.4883 25.3051 43.4258 25.3051C43.3394 25.3051 43.2639 25.2874 43.1992 25.252C43.1353 25.2167 43.0853 25.1653 43.0493 25.098C43.0139 25.0306 42.9962 24.9493 42.9962 24.8541C42.9962 24.7514 43.0156 24.6626 43.0544 24.5878C43.0938 24.5123 43.1489 24.4541 43.2197 24.4133C43.2904 24.3725 43.3737 24.3521 43.4696 24.3521C43.5431 24.3521 43.6104 24.3661 43.6717 24.3939C43.7329 24.4218 43.7859 24.4637 43.8308 24.5194C43.8764 24.5745 43.9114 24.6429 43.9359 24.7245C43.9611 24.8062 43.9737 24.901 43.9737 25.0092ZM43.4696 24.496C43.3792 24.496 43.3057 24.5256 43.2492 24.5847C43.1935 24.6439 43.1656 24.733 43.1656 24.8521C43.1656 24.9507 43.1897 25.0286 43.238 25.0857C43.2863 25.1429 43.3608 25.1714 43.4615 25.1714C43.5308 25.1714 43.5907 25.1575 43.641 25.1296C43.6921 25.1017 43.7312 25.0663 43.7584 25.0235C43.7863 24.9806 43.8002 24.9368 43.8002 24.8919C43.8002 24.847 43.7934 24.8014 43.7798 24.7551C43.7669 24.7089 43.7468 24.6664 43.7196 24.6276C43.6924 24.5881 43.658 24.5565 43.6166 24.5327C43.5751 24.5082 43.5261 24.496 43.4696 24.496ZM44.6614 24.9531C44.7627 24.9531 44.8508 24.9704 44.9256 25.0051C45.0004 25.0391 45.0583 25.0888 45.0991 25.1541C45.1406 25.2194 45.1613 25.2986 45.1613 25.3918C45.1613 25.4938 45.1392 25.5819 45.095 25.6561C45.0508 25.7295 44.9872 25.7863 44.9042 25.8265C44.8212 25.8659 44.7219 25.8856 44.6063 25.8856C44.5287 25.8856 44.4566 25.8788 44.3899 25.8652C44.3233 25.8516 44.2672 25.8312 44.2216 25.804V25.6428C44.2713 25.6727 44.3315 25.6965 44.4022 25.7142C44.4729 25.7319 44.5416 25.7408 44.6083 25.7408C44.6838 25.7408 44.7498 25.7289 44.8062 25.705C44.8634 25.6806 44.9076 25.6438 44.9389 25.5949C44.9708 25.5452 44.9868 25.483 44.9868 25.4081C44.9868 25.3088 44.9562 25.2323 44.895 25.1786C44.8345 25.1242 44.7386 25.0969 44.6073 25.0969C44.5651 25.0969 44.5188 25.1003 44.4685 25.1071C44.4182 25.1139 44.3767 25.1214 44.344 25.1296L44.2583 25.0735L44.3155 24.3735H45.0572V24.5286H44.4603L44.4226 24.9786C44.4484 24.9731 44.4818 24.9677 44.5226 24.9623C44.5634 24.9561 44.6097 24.9531 44.6614 24.9531ZM46.3081 24.7215C46.3081 24.7881 46.2952 24.8459 46.2694 24.8949C46.2435 24.9439 46.2075 24.984 46.1612 25.0153C46.1149 25.0459 46.0605 25.0674 45.998 25.0796V25.0878C46.1163 25.1027 46.2051 25.1408 46.2643 25.202C46.3241 25.2633 46.354 25.3435 46.354 25.4428C46.354 25.5292 46.3336 25.6057 46.2928 25.6724C46.2527 25.7391 46.1908 25.7914 46.1071 25.8295C46.0241 25.8669 45.9177 25.8856 45.7878 25.8856C45.7089 25.8856 45.6357 25.8792 45.5684 25.8663C45.5017 25.854 45.4378 25.8333 45.3766 25.804V25.6448C45.4385 25.6755 45.5058 25.6996 45.5786 25.7173C45.6514 25.7343 45.7218 25.7428 45.7898 25.7428C45.9259 25.7428 46.0241 25.7159 46.0847 25.6622C46.1452 25.6078 46.1755 25.5336 46.1755 25.4398C46.1755 25.3751 46.1585 25.3231 46.1245 25.2837C46.0911 25.2435 46.0428 25.2143 45.9796 25.1959C45.917 25.1769 45.8415 25.1673 45.7531 25.1673H45.6041V25.0225H45.7541C45.835 25.0225 45.9037 25.0106 45.9602 24.9867C46.0167 24.9629 46.0595 24.9296 46.0888 24.8868C46.1187 24.8432 46.1337 24.7919 46.1337 24.7327C46.1337 24.6572 46.1085 24.599 46.0582 24.5582C46.0078 24.5167 45.9395 24.496 45.8531 24.496C45.8 24.496 45.7517 24.5014 45.7082 24.5123C45.6647 24.5232 45.6238 24.5382 45.5857 24.5572C45.5477 24.5762 45.5096 24.5984 45.4715 24.6235L45.3858 24.5072C45.4402 24.465 45.5065 24.4286 45.5847 24.398C45.663 24.3674 45.7517 24.3521 45.851 24.3521C46.0034 24.3521 46.1177 24.3868 46.1939 24.4562C46.27 24.5256 46.3081 24.614 46.3081 24.7215Z" fill="#212121"/>
<path d="M18.7084 64.8094C19.1412 64.8094 19.492 64.4586 19.492 64.0258C19.492 63.593 19.1412 63.2422 18.7084 63.2422C18.2756 63.2422 17.9248 63.593 17.9248 64.0258C17.9248 64.4586 18.2756 64.8094 18.7084 64.8094Z" fill="#2081FF"/>
</g>
<defs>
<clipPath id="clip0_7650_44557">
<rect width="74.9641" height="65.0386" fill="white" transform="translate(8 11)"/>
</clipPath>
</defs>
</svg>
