<svg width="92" height="92" viewBox="0 0 92 92" fill="none" xmlns="http://www.w3.org/2000/svg">
<rect x="0.389831" y="0.389831" width="91.079" height="91.2203" rx="17.5424" stroke="#BEBEBE" stroke-width="0.779661"/>
<rect width="70" height="60.7317" transform="translate(11 16)" fill="white"/>
<path d="M20.7559 21.8516V68.9247" stroke="#E0E0E0" stroke-width="0.243902" stroke-dasharray="0.49 0.49"/>
<path d="M28.6827 68.9247C28.6827 68.9921 28.7373 69.0467 28.8047 69.0467C28.872 69.0467 28.9266 68.9921 28.9266 68.9247H28.6827ZM28.8047 21.8516H28.6827V22.0967H28.8047H28.9266V21.8516H28.8047ZM28.8047 22.5871H28.6827V23.0774H28.8047H28.9266V22.5871H28.8047ZM28.8047 23.5678H28.6827V24.0581H28.8047H28.9266V23.5678H28.8047ZM28.8047 24.5485H28.6827V25.0388H28.8047H28.9266V24.5485H28.8047ZM28.8047 25.5292H28.6827V26.0195H28.8047H28.9266V25.5292H28.8047ZM28.8047 26.5098H28.6827V27.0002H28.8047H28.9266V26.5098H28.8047ZM28.8047 27.4905H28.6827V27.9809H28.8047H28.9266V27.4905H28.8047ZM28.8047 28.4712H28.6827V28.9616H28.8047H28.9266V28.4712H28.8047ZM28.8047 29.4519H28.6827V29.9423H28.8047H28.9266V29.4519H28.8047ZM28.8047 30.4326H28.6827V30.923H28.8047H28.9266V30.4326H28.8047ZM28.8047 31.4133H28.6827V31.9036H28.8047H28.9266V31.4133H28.8047ZM28.8047 32.394H28.6827V32.8843H28.8047H28.9266V32.394H28.8047ZM28.8047 33.3747H28.6827V33.865H28.8047H28.9266V33.3747H28.8047ZM28.8047 34.3554H28.6827V34.8457H28.8047H28.9266V34.3554H28.8047ZM28.8047 35.3361H28.6827V35.8264H28.8047H28.9266V35.3361H28.8047ZM28.8047 36.3168H28.6827V36.8071H28.8047H28.9266V36.3168H28.8047ZM28.8047 37.2975H28.6827V37.7878H28.8047H28.9266V37.2975H28.8047ZM28.8047 38.2781H28.6827V38.7685H28.8047H28.9266V38.2781H28.8047ZM28.8047 39.2588H28.6827V39.7492H28.8047H28.9266V39.2588H28.8047ZM28.8047 40.2395H28.6827V40.7299H28.8047H28.9266V40.2395H28.8047ZM28.8047 41.2202H28.6827V41.7106H28.8047H28.9266V41.2202H28.8047ZM28.8047 42.2009H28.6827V42.6912H28.8047H28.9266V42.2009H28.8047ZM28.8047 43.1816H28.6827V43.6719H28.8047H28.9266V43.1816H28.8047ZM28.8047 44.1623H28.6827V44.6526H28.8047H28.9266V44.1623H28.8047ZM28.8047 45.143H28.6827V45.6333H28.8047H28.9266V45.143H28.8047ZM28.8047 46.1237H28.6827V46.614H28.8047H28.9266V46.1237H28.8047ZM28.8047 47.1044H28.6827V47.5947H28.8047H28.9266V47.1044H28.8047ZM28.8047 48.085H28.6827V48.5754H28.8047H28.9266V48.085H28.8047ZM28.8047 49.0657H28.6827V49.5561H28.8047H28.9266V49.0657H28.8047ZM28.8047 50.0464H28.6827V50.5368H28.8047H28.9266V50.0464H28.8047ZM28.8047 51.0271H28.6827V51.5175H28.8047H28.9266V51.0271H28.8047ZM28.8047 52.0078H28.6827V52.4981H28.8047H28.9266V52.0078H28.8047ZM28.8047 52.9885H28.6827V53.4788H28.8047H28.9266V52.9885H28.8047ZM28.8047 53.9692H28.6827V54.4595H28.8047H28.9266V53.9692H28.8047ZM28.8047 54.9499H28.6827V55.4402H28.8047H28.9266V54.9499H28.8047ZM28.8047 55.9306H28.6827V56.4209H28.8047H28.9266V55.9306H28.8047ZM28.8047 56.9113H28.6827V57.4016H28.8047H28.9266V56.9113H28.8047ZM28.8047 57.8919H28.6827V58.3823H28.8047H28.9266V57.8919H28.8047ZM28.8047 58.8726H28.6827V59.363H28.8047H28.9266V58.8726H28.8047ZM28.8047 59.8533H28.6827V60.3437H28.8047H28.9266V59.8533H28.8047ZM28.8047 60.834H28.6827V61.3244H28.8047H28.9266V60.834H28.8047ZM28.8047 61.8147H28.6827V62.305H28.8047H28.9266V61.8147H28.8047ZM28.8047 62.7954H28.6827V63.2857H28.8047H28.9266V62.7954H28.8047ZM28.8047 63.7761H28.6827V64.2664H28.8047H28.9266V63.7761H28.8047ZM28.8047 64.7568H28.6827V65.2471H28.8047H28.9266V64.7568H28.8047ZM28.8047 65.7375H28.6827V66.2278H28.8047H28.9266V65.7375H28.8047ZM28.8047 66.7182H28.6827V67.2085H28.8047H28.9266V66.7182H28.8047ZM28.8047 67.6988H28.6827V68.1892H28.8047H28.9266V67.6988H28.8047ZM28.8047 68.6795H28.6827V68.9247H28.8047H28.9266V68.6795H28.8047Z" fill="#E0E0E0"/>
<path d="M36.7316 68.9247C36.7316 68.9921 36.7862 69.0467 36.8535 69.0467C36.9209 69.0467 36.9755 68.9921 36.9755 68.9247H36.7316ZM36.8535 21.8516H36.7316V22.0967H36.8535H36.9755V21.8516H36.8535ZM36.8535 22.5871H36.7316V23.0774H36.8535H36.9755V22.5871H36.8535ZM36.8535 23.5678H36.7316V24.0581H36.8535H36.9755V23.5678H36.8535ZM36.8535 24.5485H36.7316V25.0388H36.8535H36.9755V24.5485H36.8535ZM36.8535 25.5292H36.7316V26.0195H36.8535H36.9755V25.5292H36.8535ZM36.8535 26.5098H36.7316V27.0002H36.8535H36.9755V26.5098H36.8535ZM36.8535 27.4905H36.7316V27.9809H36.8535H36.9755V27.4905H36.8535ZM36.8535 28.4712H36.7316V28.9616H36.8535H36.9755V28.4712H36.8535ZM36.8535 29.4519H36.7316V29.9423H36.8535H36.9755V29.4519H36.8535ZM36.8535 30.4326H36.7316V30.923H36.8535H36.9755V30.4326H36.8535ZM36.8535 31.4133H36.7316V31.9036H36.8535H36.9755V31.4133H36.8535ZM36.8535 32.394H36.7316V32.8843H36.8535H36.9755V32.394H36.8535ZM36.8535 33.3747H36.7316V33.865H36.8535H36.9755V33.3747H36.8535ZM36.8535 34.3554H36.7316V34.8457H36.8535H36.9755V34.3554H36.8535ZM36.8535 35.3361H36.7316V35.8264H36.8535H36.9755V35.3361H36.8535ZM36.8535 36.3168H36.7316V36.8071H36.8535H36.9755V36.3168H36.8535ZM36.8535 37.2975H36.7316V37.7878H36.8535H36.9755V37.2975H36.8535ZM36.8535 38.2781H36.7316V38.7685H36.8535H36.9755V38.2781H36.8535ZM36.8535 39.2588H36.7316V39.7492H36.8535H36.9755V39.2588H36.8535ZM36.8535 40.2395H36.7316V40.7299H36.8535H36.9755V40.2395H36.8535ZM36.8535 41.2202H36.7316V41.7106H36.8535H36.9755V41.2202H36.8535ZM36.8535 42.2009H36.7316V42.6912H36.8535H36.9755V42.2009H36.8535ZM36.8535 43.1816H36.7316V43.6719H36.8535H36.9755V43.1816H36.8535ZM36.8535 44.1623H36.7316V44.6526H36.8535H36.9755V44.1623H36.8535ZM36.8535 45.143H36.7316V45.6333H36.8535H36.9755V45.143H36.8535ZM36.8535 46.1237H36.7316V46.614H36.8535H36.9755V46.1237H36.8535ZM36.8535 47.1044H36.7316V47.5947H36.8535H36.9755V47.1044H36.8535ZM36.8535 48.085H36.7316V48.5754H36.8535H36.9755V48.085H36.8535ZM36.8535 49.0657H36.7316V49.5561H36.8535H36.9755V49.0657H36.8535ZM36.8535 50.0464H36.7316V50.5368H36.8535H36.9755V50.0464H36.8535ZM36.8535 51.0271H36.7316V51.5175H36.8535H36.9755V51.0271H36.8535ZM36.8535 52.0078H36.7316V52.4981H36.8535H36.9755V52.0078H36.8535ZM36.8535 52.9885H36.7316V53.4788H36.8535H36.9755V52.9885H36.8535ZM36.8535 53.9692H36.7316V54.4595H36.8535H36.9755V53.9692H36.8535ZM36.8535 54.9499H36.7316V55.4402H36.8535H36.9755V54.9499H36.8535ZM36.8535 55.9306H36.7316V56.4209H36.8535H36.9755V55.9306H36.8535ZM36.8535 56.9113H36.7316V57.4016H36.8535H36.9755V56.9113H36.8535ZM36.8535 57.8919H36.7316V58.3823H36.8535H36.9755V57.8919H36.8535ZM36.8535 58.8726H36.7316V59.363H36.8535H36.9755V58.8726H36.8535ZM36.8535 59.8533H36.7316V60.3437H36.8535H36.9755V59.8533H36.8535ZM36.8535 60.834H36.7316V61.3244H36.8535H36.9755V60.834H36.8535ZM36.8535 61.8147H36.7316V62.305H36.8535H36.9755V61.8147H36.8535ZM36.8535 62.7954H36.7316V63.2857H36.8535H36.9755V62.7954H36.8535ZM36.8535 63.7761H36.7316V64.2664H36.8535H36.9755V63.7761H36.8535ZM36.8535 64.7568H36.7316V65.2471H36.8535H36.9755V64.7568H36.8535ZM36.8535 65.7375H36.7316V66.2278H36.8535H36.9755V65.7375H36.8535ZM36.8535 66.7182H36.7316V67.2085H36.8535H36.9755V66.7182H36.8535ZM36.8535 67.6988H36.7316V68.1892H36.8535H36.9755V67.6988H36.8535ZM36.8535 68.6795H36.7316V68.9247H36.8535H36.9755V68.6795H36.8535Z" fill="#E0E0E0"/>
<path d="M44.7804 68.9247C44.7804 68.9921 44.835 69.0467 44.9023 69.0467C44.9697 69.0467 45.0243 68.9921 45.0243 68.9247H44.7804ZM44.9023 21.8516H44.7804V22.0967H44.9023H45.0243V21.8516H44.9023ZM44.9023 22.5871H44.7804V23.0774H44.9023H45.0243V22.5871H44.9023ZM44.9023 23.5678H44.7804V24.0581H44.9023H45.0243V23.5678H44.9023ZM44.9023 24.5485H44.7804V25.0388H44.9023H45.0243V24.5485H44.9023ZM44.9023 25.5292H44.7804V26.0195H44.9023H45.0243V25.5292H44.9023ZM44.9023 26.5098H44.7804V27.0002H44.9023H45.0243V26.5098H44.9023ZM44.9023 27.4905H44.7804V27.9809H44.9023H45.0243V27.4905H44.9023ZM44.9023 28.4712H44.7804V28.9616H44.9023H45.0243V28.4712H44.9023ZM44.9023 29.4519H44.7804V29.9423H44.9023H45.0243V29.4519H44.9023ZM44.9023 30.4326H44.7804V30.923H44.9023H45.0243V30.4326H44.9023ZM44.9023 31.4133H44.7804V31.9036H44.9023H45.0243V31.4133H44.9023ZM44.9023 32.394H44.7804V32.8843H44.9023H45.0243V32.394H44.9023ZM44.9023 33.3747H44.7804V33.865H44.9023H45.0243V33.3747H44.9023ZM44.9023 34.3554H44.7804V34.8457H44.9023H45.0243V34.3554H44.9023ZM44.9023 35.3361H44.7804V35.8264H44.9023H45.0243V35.3361H44.9023ZM44.9023 36.3168H44.7804V36.8071H44.9023H45.0243V36.3168H44.9023ZM44.9023 37.2975H44.7804V37.7878H44.9023H45.0243V37.2975H44.9023ZM44.9023 38.2781H44.7804V38.7685H44.9023H45.0243V38.2781H44.9023ZM44.9023 39.2588H44.7804V39.7492H44.9023H45.0243V39.2588H44.9023ZM44.9023 40.2395H44.7804V40.7299H44.9023H45.0243V40.2395H44.9023ZM44.9023 41.2202H44.7804V41.7106H44.9023H45.0243V41.2202H44.9023ZM44.9023 42.2009H44.7804V42.6912H44.9023H45.0243V42.2009H44.9023ZM44.9023 43.1816H44.7804V43.6719H44.9023H45.0243V43.1816H44.9023ZM44.9023 44.1623H44.7804V44.6526H44.9023H45.0243V44.1623H44.9023ZM44.9023 45.143H44.7804V45.6333H44.9023H45.0243V45.143H44.9023ZM44.9023 46.1237H44.7804V46.614H44.9023H45.0243V46.1237H44.9023ZM44.9023 47.1044H44.7804V47.5947H44.9023H45.0243V47.1044H44.9023ZM44.9023 48.085H44.7804V48.5754H44.9023H45.0243V48.085H44.9023ZM44.9023 49.0657H44.7804V49.5561H44.9023H45.0243V49.0657H44.9023ZM44.9023 50.0464H44.7804V50.5368H44.9023H45.0243V50.0464H44.9023ZM44.9023 51.0271H44.7804V51.5175H44.9023H45.0243V51.0271H44.9023ZM44.9023 52.0078H44.7804V52.4981H44.9023H45.0243V52.0078H44.9023ZM44.9023 52.9885H44.7804V53.4788H44.9023H45.0243V52.9885H44.9023ZM44.9023 53.9692H44.7804V54.4595H44.9023H45.0243V53.9692H44.9023ZM44.9023 54.9499H44.7804V55.4402H44.9023H45.0243V54.9499H44.9023ZM44.9023 55.9306H44.7804V56.4209H44.9023H45.0243V55.9306H44.9023ZM44.9023 56.9113H44.7804V57.4016H44.9023H45.0243V56.9113H44.9023ZM44.9023 57.8919H44.7804V58.3823H44.9023H45.0243V57.8919H44.9023ZM44.9023 58.8726H44.7804V59.363H44.9023H45.0243V58.8726H44.9023ZM44.9023 59.8533H44.7804V60.3437H44.9023H45.0243V59.8533H44.9023ZM44.9023 60.834H44.7804V61.3244H44.9023H45.0243V60.834H44.9023ZM44.9023 61.8147H44.7804V62.305H44.9023H45.0243V61.8147H44.9023ZM44.9023 62.7954H44.7804V63.2857H44.9023H45.0243V62.7954H44.9023ZM44.9023 63.7761H44.7804V64.2664H44.9023H45.0243V63.7761H44.9023ZM44.9023 64.7568H44.7804V65.2471H44.9023H45.0243V64.7568H44.9023ZM44.9023 65.7375H44.7804V66.2278H44.9023H45.0243V65.7375H44.9023ZM44.9023 66.7182H44.7804V67.2085H44.9023H45.0243V66.7182H44.9023ZM44.9023 67.6988H44.7804V68.1892H44.9023H45.0243V67.6988H44.9023ZM44.9023 68.6795H44.7804V68.9247H44.9023H45.0243V68.6795H44.9023Z" fill="#E0E0E0"/>
<path d="M52.8292 68.9247C52.8292 68.9921 52.8838 69.0467 52.9512 69.0467C53.0185 69.0467 53.0731 68.9921 53.0731 68.9247H52.8292ZM52.9512 21.8516H52.8292V22.0967H52.9512H53.0731V21.8516H52.9512ZM52.9512 22.5871H52.8292V23.0774H52.9512H53.0731V22.5871H52.9512ZM52.9512 23.5678H52.8292V24.0581H52.9512H53.0731V23.5678H52.9512ZM52.9512 24.5485H52.8292V25.0388H52.9512H53.0731V24.5485H52.9512ZM52.9512 25.5292H52.8292V26.0195H52.9512H53.0731V25.5292H52.9512ZM52.9512 26.5098H52.8292V27.0002H52.9512H53.0731V26.5098H52.9512ZM52.9512 27.4905H52.8292V27.9809H52.9512H53.0731V27.4905H52.9512ZM52.9512 28.4712H52.8292V28.9616H52.9512H53.0731V28.4712H52.9512ZM52.9512 29.4519H52.8292V29.9423H52.9512H53.0731V29.4519H52.9512ZM52.9512 30.4326H52.8292V30.923H52.9512H53.0731V30.4326H52.9512ZM52.9512 31.4133H52.8292V31.9036H52.9512H53.0731V31.4133H52.9512ZM52.9512 32.394H52.8292V32.8843H52.9512H53.0731V32.394H52.9512ZM52.9512 33.3747H52.8292V33.865H52.9512H53.0731V33.3747H52.9512ZM52.9512 34.3554H52.8292V34.8457H52.9512H53.0731V34.3554H52.9512ZM52.9512 35.3361H52.8292V35.8264H52.9512H53.0731V35.3361H52.9512ZM52.9512 36.3168H52.8292V36.8071H52.9512H53.0731V36.3168H52.9512ZM52.9512 37.2975H52.8292V37.7878H52.9512H53.0731V37.2975H52.9512ZM52.9512 38.2781H52.8292V38.7685H52.9512H53.0731V38.2781H52.9512ZM52.9512 39.2588H52.8292V39.7492H52.9512H53.0731V39.2588H52.9512ZM52.9512 40.2395H52.8292V40.7299H52.9512H53.0731V40.2395H52.9512ZM52.9512 41.2202H52.8292V41.7106H52.9512H53.0731V41.2202H52.9512ZM52.9512 42.2009H52.8292V42.6912H52.9512H53.0731V42.2009H52.9512ZM52.9512 43.1816H52.8292V43.6719H52.9512H53.0731V43.1816H52.9512ZM52.9512 44.1623H52.8292V44.6526H52.9512H53.0731V44.1623H52.9512ZM52.9512 45.143H52.8292V45.6333H52.9512H53.0731V45.143H52.9512ZM52.9512 46.1237H52.8292V46.614H52.9512H53.0731V46.1237H52.9512ZM52.9512 47.1044H52.8292V47.5947H52.9512H53.0731V47.1044H52.9512ZM52.9512 48.085H52.8292V48.5754H52.9512H53.0731V48.085H52.9512ZM52.9512 49.0657H52.8292V49.5561H52.9512H53.0731V49.0657H52.9512ZM52.9512 50.0464H52.8292V50.5368H52.9512H53.0731V50.0464H52.9512ZM52.9512 51.0271H52.8292V51.5175H52.9512H53.0731V51.0271H52.9512ZM52.9512 52.0078H52.8292V52.4981H52.9512H53.0731V52.0078H52.9512ZM52.9512 52.9885H52.8292V53.4788H52.9512H53.0731V52.9885H52.9512ZM52.9512 53.9692H52.8292V54.4595H52.9512H53.0731V53.9692H52.9512ZM52.9512 54.9499H52.8292V55.4402H52.9512H53.0731V54.9499H52.9512ZM52.9512 55.9306H52.8292V56.4209H52.9512H53.0731V55.9306H52.9512ZM52.9512 56.9113H52.8292V57.4016H52.9512H53.0731V56.9113H52.9512ZM52.9512 57.8919H52.8292V58.3823H52.9512H53.0731V57.8919H52.9512ZM52.9512 58.8726H52.8292V59.363H52.9512H53.0731V58.8726H52.9512ZM52.9512 59.8533H52.8292V60.3437H52.9512H53.0731V59.8533H52.9512ZM52.9512 60.834H52.8292V61.3244H52.9512H53.0731V60.834H52.9512ZM52.9512 61.8147H52.8292V62.305H52.9512H53.0731V61.8147H52.9512ZM52.9512 62.7954H52.8292V63.2857H52.9512H53.0731V62.7954H52.9512ZM52.9512 63.7761H52.8292V64.2664H52.9512H53.0731V63.7761H52.9512ZM52.9512 64.7568H52.8292V65.2471H52.9512H53.0731V64.7568H52.9512ZM52.9512 65.7375H52.8292V66.2278H52.9512H53.0731V65.7375H52.9512ZM52.9512 66.7182H52.8292V67.2085H52.9512H53.0731V66.7182H52.9512ZM52.9512 67.6988H52.8292V68.1892H52.9512H53.0731V67.6988H52.9512ZM52.9512 68.6795H52.8292V68.9247H52.9512H53.0731V68.6795H52.9512Z" fill="#E0E0E0"/>
<path d="M60.878 68.9247C60.878 68.9921 60.9326 69.0467 61 69.0467C61.0674 69.0467 61.122 68.9921 61.122 68.9247H60.878ZM61 21.8516H60.878V22.0967H61H61.122V21.8516H61ZM61 22.5871H60.878V23.0774H61H61.122V22.5871H61ZM61 23.5678H60.878V24.0581H61H61.122V23.5678H61ZM61 24.5485H60.878V25.0388H61H61.122V24.5485H61ZM61 25.5292H60.878V26.0195H61H61.122V25.5292H61ZM61 26.5098H60.878V27.0002H61H61.122V26.5098H61ZM61 27.4905H60.878V27.9809H61H61.122V27.4905H61ZM61 28.4712H60.878V28.9616H61H61.122V28.4712H61ZM61 29.4519H60.878V29.9423H61H61.122V29.4519H61ZM61 30.4326H60.878V30.923H61H61.122V30.4326H61ZM61 31.4133H60.878V31.9036H61H61.122V31.4133H61ZM61 32.394H60.878V32.8843H61H61.122V32.394H61ZM61 33.3747H60.878V33.865H61H61.122V33.3747H61ZM61 34.3554H60.878V34.8457H61H61.122V34.3554H61ZM61 35.3361H60.878V35.8264H61H61.122V35.3361H61ZM61 36.3168H60.878V36.8071H61H61.122V36.3168H61ZM61 37.2975H60.878V37.7878H61H61.122V37.2975H61ZM61 38.2781H60.878V38.7685H61H61.122V38.2781H61ZM61 39.2588H60.878V39.7492H61H61.122V39.2588H61ZM61 40.2395H60.878V40.7299H61H61.122V40.2395H61ZM61 41.2202H60.878V41.7106H61H61.122V41.2202H61ZM61 42.2009H60.878V42.6912H61H61.122V42.2009H61ZM61 43.1816H60.878V43.6719H61H61.122V43.1816H61ZM61 44.1623H60.878V44.6526H61H61.122V44.1623H61ZM61 45.143H60.878V45.6333H61H61.122V45.143H61ZM61 46.1237H60.878V46.614H61H61.122V46.1237H61ZM61 47.1044H60.878V47.5947H61H61.122V47.1044H61ZM61 48.085H60.878V48.5754H61H61.122V48.085H61ZM61 49.0657H60.878V49.5561H61H61.122V49.0657H61ZM61 50.0464H60.878V50.5368H61H61.122V50.0464H61ZM61 51.0271H60.878V51.5175H61H61.122V51.0271H61ZM61 52.0078H60.878V52.4981H61H61.122V52.0078H61ZM61 52.9885H60.878V53.4788H61H61.122V52.9885H61ZM61 53.9692H60.878V54.4595H61H61.122V53.9692H61ZM61 54.9499H60.878V55.4402H61H61.122V54.9499H61ZM61 55.9306H60.878V56.4209H61H61.122V55.9306H61ZM61 56.9113H60.878V57.4016H61H61.122V56.9113H61ZM61 57.8919H60.878V58.3823H61H61.122V57.8919H61ZM61 58.8726H60.878V59.363H61H61.122V58.8726H61ZM61 59.8533H60.878V60.3437H61H61.122V59.8533H61ZM61 60.834H60.878V61.3244H61H61.122V60.834H61ZM61 61.8147H60.878V62.305H61H61.122V61.8147H61ZM61 62.7954H60.878V63.2857H61H61.122V62.7954H61ZM61 63.7761H60.878V64.2664H61H61.122V63.7761H61ZM61 64.7568H60.878V65.2471H61H61.122V64.7568H61ZM61 65.7375H60.878V66.2278H61H61.122V65.7375H61ZM61 66.7182H60.878V67.2085H61H61.122V66.7182H61ZM61 67.6988H60.878V68.1892H61H61.122V67.6988H61ZM61 68.6795H60.878V68.9247H61H61.122V68.6795H61Z" fill="#E0E0E0"/>
<path d="M68.9269 68.9247C68.9269 68.9921 68.9815 69.0467 69.0488 69.0467C69.1162 69.0467 69.1708 68.9921 69.1708 68.9247H68.9269ZM69.0488 21.8516H68.9269V22.0967H69.0488H69.1708V21.8516H69.0488ZM69.0488 22.5871H68.9269V23.0774H69.0488H69.1708V22.5871H69.0488ZM69.0488 23.5678H68.9269V24.0581H69.0488H69.1708V23.5678H69.0488ZM69.0488 24.5485H68.9269V25.0388H69.0488H69.1708V24.5485H69.0488ZM69.0488 25.5292H68.9269V26.0195H69.0488H69.1708V25.5292H69.0488ZM69.0488 26.5098H68.9269V27.0002H69.0488H69.1708V26.5098H69.0488ZM69.0488 27.4905H68.9269V27.9809H69.0488H69.1708V27.4905H69.0488ZM69.0488 28.4712H68.9269V28.9616H69.0488H69.1708V28.4712H69.0488ZM69.0488 29.4519H68.9269V29.9423H69.0488H69.1708V29.4519H69.0488ZM69.0488 30.4326H68.9269V30.923H69.0488H69.1708V30.4326H69.0488ZM69.0488 31.4133H68.9269V31.9036H69.0488H69.1708V31.4133H69.0488ZM69.0488 32.394H68.9269V32.8843H69.0488H69.1708V32.394H69.0488ZM69.0488 33.3747H68.9269V33.865H69.0488H69.1708V33.3747H69.0488ZM69.0488 34.3554H68.9269V34.8457H69.0488H69.1708V34.3554H69.0488ZM69.0488 35.3361H68.9269V35.8264H69.0488H69.1708V35.3361H69.0488ZM69.0488 36.3168H68.9269V36.8071H69.0488H69.1708V36.3168H69.0488ZM69.0488 37.2975H68.9269V37.7878H69.0488H69.1708V37.2975H69.0488ZM69.0488 38.2781H68.9269V38.7685H69.0488H69.1708V38.2781H69.0488ZM69.0488 39.2588H68.9269V39.7492H69.0488H69.1708V39.2588H69.0488ZM69.0488 40.2395H68.9269V40.7299H69.0488H69.1708V40.2395H69.0488ZM69.0488 41.2202H68.9269V41.7106H69.0488H69.1708V41.2202H69.0488ZM69.0488 42.2009H68.9269V42.6912H69.0488H69.1708V42.2009H69.0488ZM69.0488 43.1816H68.9269V43.6719H69.0488H69.1708V43.1816H69.0488ZM69.0488 44.1623H68.9269V44.6526H69.0488H69.1708V44.1623H69.0488ZM69.0488 45.143H68.9269V45.6333H69.0488H69.1708V45.143H69.0488ZM69.0488 46.1237H68.9269V46.614H69.0488H69.1708V46.1237H69.0488ZM69.0488 47.1044H68.9269V47.5947H69.0488H69.1708V47.1044H69.0488ZM69.0488 48.085H68.9269V48.5754H69.0488H69.1708V48.085H69.0488ZM69.0488 49.0657H68.9269V49.5561H69.0488H69.1708V49.0657H69.0488ZM69.0488 50.0464H68.9269V50.5368H69.0488H69.1708V50.0464H69.0488ZM69.0488 51.0271H68.9269V51.5175H69.0488H69.1708V51.0271H69.0488ZM69.0488 52.0078H68.9269V52.4981H69.0488H69.1708V52.0078H69.0488ZM69.0488 52.9885H68.9269V53.4788H69.0488H69.1708V52.9885H69.0488ZM69.0488 53.9692H68.9269V54.4595H69.0488H69.1708V53.9692H69.0488ZM69.0488 54.9499H68.9269V55.4402H69.0488H69.1708V54.9499H69.0488ZM69.0488 55.9306H68.9269V56.4209H69.0488H69.1708V55.9306H69.0488ZM69.0488 56.9113H68.9269V57.4016H69.0488H69.1708V56.9113H69.0488ZM69.0488 57.8919H68.9269V58.3823H69.0488H69.1708V57.8919H69.0488ZM69.0488 58.8726H68.9269V59.363H69.0488H69.1708V58.8726H69.0488ZM69.0488 59.8533H68.9269V60.3437H69.0488H69.1708V59.8533H69.0488ZM69.0488 60.834H68.9269V61.3244H69.0488H69.1708V60.834H69.0488ZM69.0488 61.8147H68.9269V62.305H69.0488H69.1708V61.8147H69.0488ZM69.0488 62.7954H68.9269V63.2857H69.0488H69.1708V62.7954H69.0488ZM69.0488 63.7761H68.9269V64.2664H69.0488H69.1708V63.7761H69.0488ZM69.0488 64.7568H68.9269V65.2471H69.0488H69.1708V64.7568H69.0488ZM69.0488 65.7375H68.9269V66.2278H69.0488H69.1708V65.7375H69.0488ZM69.0488 66.7182H68.9269V67.2085H69.0488H69.1708V66.7182H69.0488ZM69.0488 67.6988H68.9269V68.1892H69.0488H69.1708V67.6988H69.0488ZM69.0488 68.6795H68.9269V68.9247H69.0488H69.1708V68.6795H69.0488Z" fill="#E0E0E0"/>
<path d="M76.9757 68.9247C76.9757 68.9921 77.0303 69.0467 77.0977 69.0467C77.165 69.0467 77.2196 68.9921 77.2196 68.9247H76.9757ZM77.0977 21.8516H76.9757V22.0967H77.0977H77.2196V21.8516H77.0977ZM77.0977 22.5871H76.9757V23.0774H77.0977H77.2196V22.5871H77.0977ZM77.0977 23.5678H76.9757V24.0581H77.0977H77.2196V23.5678H77.0977ZM77.0977 24.5485H76.9757V25.0388H77.0977H77.2196V24.5485H77.0977ZM77.0977 25.5292H76.9757V26.0195H77.0977H77.2196V25.5292H77.0977ZM77.0977 26.5098H76.9757V27.0002H77.0977H77.2196V26.5098H77.0977ZM77.0977 27.4905H76.9757V27.9809H77.0977H77.2196V27.4905H77.0977ZM77.0977 28.4712H76.9757V28.9616H77.0977H77.2196V28.4712H77.0977ZM77.0977 29.4519H76.9757V29.9423H77.0977H77.2196V29.4519H77.0977ZM77.0977 30.4326H76.9757V30.923H77.0977H77.2196V30.4326H77.0977ZM77.0977 31.4133H76.9757V31.9036H77.0977H77.2196V31.4133H77.0977ZM77.0977 32.394H76.9757V32.8843H77.0977H77.2196V32.394H77.0977ZM77.0977 33.3747H76.9757V33.865H77.0977H77.2196V33.3747H77.0977ZM77.0977 34.3554H76.9757V34.8457H77.0977H77.2196V34.3554H77.0977ZM77.0977 35.3361H76.9757V35.8264H77.0977H77.2196V35.3361H77.0977ZM77.0977 36.3168H76.9757V36.8071H77.0977H77.2196V36.3168H77.0977ZM77.0977 37.2975H76.9757V37.7878H77.0977H77.2196V37.2975H77.0977ZM77.0977 38.2781H76.9757V38.7685H77.0977H77.2196V38.2781H77.0977ZM77.0977 39.2588H76.9757V39.7492H77.0977H77.2196V39.2588H77.0977ZM77.0977 40.2395H76.9757V40.7299H77.0977H77.2196V40.2395H77.0977ZM77.0977 41.2202H76.9757V41.7106H77.0977H77.2196V41.2202H77.0977ZM77.0977 42.2009H76.9757V42.6912H77.0977H77.2196V42.2009H77.0977ZM77.0977 43.1816H76.9757V43.6719H77.0977H77.2196V43.1816H77.0977ZM77.0977 44.1623H76.9757V44.6526H77.0977H77.2196V44.1623H77.0977ZM77.0977 45.143H76.9757V45.6333H77.0977H77.2196V45.143H77.0977ZM77.0977 46.1237H76.9757V46.614H77.0977H77.2196V46.1237H77.0977ZM77.0977 47.1044H76.9757V47.5947H77.0977H77.2196V47.1044H77.0977ZM77.0977 48.085H76.9757V48.5754H77.0977H77.2196V48.085H77.0977ZM77.0977 49.0657H76.9757V49.5561H77.0977H77.2196V49.0657H77.0977ZM77.0977 50.0464H76.9757V50.5368H77.0977H77.2196V50.0464H77.0977ZM77.0977 51.0271H76.9757V51.5175H77.0977H77.2196V51.0271H77.0977ZM77.0977 52.0078H76.9757V52.4981H77.0977H77.2196V52.0078H77.0977ZM77.0977 52.9885H76.9757V53.4788H77.0977H77.2196V52.9885H77.0977ZM77.0977 53.9692H76.9757V54.4595H77.0977H77.2196V53.9692H77.0977ZM77.0977 54.9499H76.9757V55.4402H77.0977H77.2196V54.9499H77.0977ZM77.0977 55.9306H76.9757V56.4209H77.0977H77.2196V55.9306H77.0977ZM77.0977 56.9113H76.9757V57.4016H77.0977H77.2196V56.9113H77.0977ZM77.0977 57.8919H76.9757V58.3823H77.0977H77.2196V57.8919H77.0977ZM77.0977 58.8726H76.9757V59.363H77.0977H77.2196V58.8726H77.0977ZM77.0977 59.8533H76.9757V60.3437H77.0977H77.2196V59.8533H77.0977ZM77.0977 60.834H76.9757V61.3244H77.0977H77.2196V60.834H77.0977ZM77.0977 61.8147H76.9757V62.305H77.0977H77.2196V61.8147H77.0977ZM77.0977 62.7954H76.9757V63.2857H77.0977H77.2196V62.7954H77.0977ZM77.0977 63.7761H76.9757V64.2664H77.0977H77.2196V63.7761H77.0977ZM77.0977 64.7568H76.9757V65.2471H77.0977H77.2196V64.7568H77.0977ZM77.0977 65.7375H76.9757V66.2278H77.0977H77.2196V65.7375H77.0977ZM77.0977 66.7182H76.9757V67.2085H77.0977H77.2196V66.7182H77.0977ZM77.0977 67.6988H76.9757V68.1892H77.0977H77.2196V67.6988H77.0977ZM77.0977 68.6795H76.9757V68.9247H77.0977H77.2196V68.6795H77.0977Z" fill="#E0E0E0"/>
<path d="M20.8789 65.5119L28.8057 37.8116L36.9216 46.9663L44.9033 33.0511L52.9521 40.7411L61.0679 56.7314L69.1167 38.544L77.0984 27.707" stroke="#179600" stroke-width="0.487805"/>
<path d="M21 65.5113L28.9268 56.243L36.9756 50.1455L45.0244 62.2187L52.9512 26.1211L61 66.4869L69.4146 45.6333L77.0976 43.0723" stroke="#F90000" stroke-width="0.487805"/>
<path d="M28.8057 36.6064C29.4117 36.6066 29.9033 37.0981 29.9033 37.7041C29.9032 38.31 29.4116 38.8016 28.8057 38.8018C28.1996 38.8018 27.7082 38.3101 27.708 37.7041C27.708 37.098 28.1995 36.6064 28.8057 36.6064Z" fill="white" stroke="#179600" stroke-width="0.243902"/>
<path d="M28.8059 38.436C29.21 38.436 29.5376 38.1084 29.5376 37.7043C29.5376 37.3002 29.21 36.9727 28.8059 36.9727C28.4018 36.9727 28.0742 37.3002 28.0742 37.7043C28.0742 38.1084 28.4018 38.436 28.8059 38.436Z" fill="#179600"/>
<path d="M28.8057 55.1455C29.4117 55.1457 29.9033 55.6371 29.9033 56.2432C29.9032 56.8491 29.4116 57.3407 28.8057 57.3408C28.1996 57.3408 27.7082 56.8492 27.708 56.2432C27.708 55.637 28.1995 55.1455 28.8057 55.1455Z" fill="white" stroke="#F90000" stroke-width="0.243902"/>
<path d="M28.8059 56.9751C29.21 56.9751 29.5376 56.6475 29.5376 56.2434C29.5376 55.8393 29.21 55.5117 28.8059 55.5117C28.4018 55.5117 28.0742 55.8393 28.0742 56.2434C28.0742 56.6475 28.4018 56.9751 28.8059 56.9751Z" fill="#F90000"/>
<path d="M69.0481 39.1704C69.4522 39.1704 69.7797 38.8428 69.7797 38.4387C69.7797 38.0346 69.4522 37.707 69.0481 37.707C68.644 37.707 68.3164 38.0346 68.3164 38.4387C68.3164 38.8428 68.644 39.1704 69.0481 39.1704Z" fill="#179600"/>
<path d="M77.0969 28.4633C77.501 28.4633 77.8286 28.1358 77.8286 27.7317C77.8286 27.3276 77.501 27 77.0969 27C76.6928 27 76.3652 27.3276 76.3652 27.7317C76.3652 28.1358 76.6928 28.4633 77.0969 28.4633Z" fill="#179600"/>
<path d="M14.8599 23.8516H13.9471V23.7191L14.3197 23.3409C14.3889 23.271 14.447 23.2088 14.494 23.1542C14.5417 23.0995 14.5779 23.0459 14.6026 22.9931C14.6274 22.9398 14.6398 22.8814 14.6398 22.8178C14.6398 22.7391 14.6163 22.6791 14.5693 22.6378C14.5229 22.5958 14.4616 22.5749 14.3854 22.5749C14.3187 22.5749 14.2596 22.5863 14.2082 22.6092C14.1568 22.6321 14.104 22.6644 14.05 22.7064L13.9652 22.5997C14.0021 22.5685 14.0421 22.5409 14.0853 22.5168C14.1291 22.4926 14.1758 22.4736 14.2253 22.4596C14.2755 22.4456 14.3289 22.4386 14.3854 22.4386C14.4712 22.4386 14.5452 22.4536 14.6074 22.4834C14.6696 22.5133 14.7176 22.5558 14.7513 22.6111C14.7856 22.6663 14.8027 22.7321 14.8027 22.8083C14.8027 22.882 14.7881 22.9506 14.7589 23.0141C14.7297 23.077 14.6887 23.1395 14.636 23.2018C14.5833 23.2634 14.5217 23.3288 14.4511 23.3981L14.1482 23.7001V23.7067H14.8599V23.8516ZM15.5039 22.9998C15.5986 22.9998 15.6808 23.016 15.7507 23.0484C15.8206 23.0802 15.8745 23.1265 15.9127 23.1875C15.9514 23.2485 15.9708 23.3225 15.9708 23.4095C15.9708 23.5048 15.9501 23.587 15.9088 23.6563C15.8676 23.7248 15.8082 23.7779 15.7307 23.8154C15.6532 23.8522 15.5605 23.8706 15.4525 23.8706C15.3801 23.8706 15.3127 23.8643 15.2505 23.8516C15.1883 23.8389 15.1359 23.8198 15.0933 23.7944V23.6439C15.1397 23.6718 15.1959 23.694 15.2619 23.7106C15.328 23.7271 15.3921 23.7353 15.4544 23.7353C15.5249 23.7353 15.5865 23.7242 15.6392 23.702C15.6926 23.6791 15.7339 23.6448 15.7631 23.5991C15.7929 23.5527 15.8079 23.4946 15.8079 23.4247C15.8079 23.332 15.7793 23.2605 15.7221 23.2104C15.6656 23.1596 15.576 23.1341 15.4534 23.1341C15.4141 23.1341 15.3709 23.1373 15.3239 23.1437C15.2769 23.15 15.2381 23.157 15.2076 23.1646L15.1276 23.1122L15.181 22.4587H15.8736V22.6035H15.3162L15.281 23.0236C15.3051 23.0185 15.3362 23.0135 15.3744 23.0084C15.4125 23.0027 15.4557 22.9998 15.5039 22.9998ZM17.1007 23.1532C17.1007 23.2663 17.0922 23.3673 17.075 23.4562C17.0579 23.5451 17.0309 23.6204 16.994 23.682C16.9572 23.7436 16.9095 23.7906 16.8511 23.823C16.7927 23.8547 16.7225 23.8706 16.6406 23.8706C16.537 23.8706 16.4513 23.8424 16.3833 23.7858C16.316 23.7293 16.2655 23.6477 16.2318 23.541C16.1988 23.4336 16.1823 23.3044 16.1823 23.1532C16.1823 23.0046 16.1972 22.8769 16.2271 22.7702C16.2576 22.6629 16.3065 22.5806 16.3738 22.5234C16.4411 22.4656 16.53 22.4367 16.6406 22.4367C16.7454 22.4367 16.8317 22.4653 16.8997 22.5225C16.9677 22.579 17.0182 22.661 17.0512 22.7683C17.0842 22.875 17.1007 23.0033 17.1007 23.1532ZM16.3414 23.1532C16.3414 23.2828 16.3512 23.3908 16.3709 23.4771C16.3906 23.5635 16.4224 23.6283 16.4662 23.6715C16.5107 23.714 16.5688 23.7353 16.6406 23.7353C16.7123 23.7353 16.7701 23.714 16.814 23.6715C16.8584 23.6289 16.8905 23.5645 16.9102 23.4781C16.9305 23.3917 16.9407 23.2834 16.9407 23.1532C16.9407 23.0255 16.9308 22.9188 16.9111 22.8331C16.8914 22.7467 16.8597 22.6819 16.8159 22.6387C16.772 22.5949 16.7136 22.573 16.6406 22.573C16.5675 22.573 16.5091 22.5949 16.4652 22.6387C16.4214 22.6819 16.3897 22.7467 16.37 22.8331C16.3509 22.9188 16.3414 23.0255 16.3414 23.1532ZM18.2173 23.1532C18.2173 23.2663 18.2088 23.3673 18.1916 23.4562C18.1745 23.5451 18.1475 23.6204 18.1106 23.682C18.0738 23.7436 18.0262 23.7906 17.9677 23.823C17.9093 23.8547 17.8391 23.8706 17.7572 23.8706C17.6536 23.8706 17.5679 23.8424 17.4999 23.7858C17.4326 23.7293 17.3821 23.6477 17.3484 23.541C17.3154 23.4336 17.2989 23.3044 17.2989 23.1532C17.2989 23.0046 17.3138 22.8769 17.3437 22.7702C17.3742 22.6629 17.4231 22.5806 17.4904 22.5234C17.5577 22.4656 17.6467 22.4367 17.7572 22.4367C17.862 22.4367 17.9484 22.4653 18.0163 22.5225C18.0843 22.579 18.1348 22.661 18.1678 22.7683C18.2008 22.875 18.2173 23.0033 18.2173 23.1532ZM17.458 23.1532C17.458 23.2828 17.4679 23.3908 17.4875 23.4771C17.5072 23.5635 17.539 23.6283 17.5828 23.6715C17.6273 23.714 17.6854 23.7353 17.7572 23.7353C17.8289 23.7353 17.8867 23.714 17.9306 23.6715C17.975 23.6289 18.0071 23.5645 18.0268 23.4781C18.0471 23.3917 18.0573 23.2834 18.0573 23.1532C18.0573 23.0255 18.0474 22.9188 18.0277 22.8331C18.0081 22.7467 17.9763 22.6819 17.9325 22.6387C17.8886 22.5949 17.8302 22.573 17.7572 22.573C17.6841 22.573 17.6257 22.5949 17.5819 22.6387C17.538 22.6819 17.5063 22.7467 17.4866 22.8331C17.4675 22.9188 17.458 23.0255 17.458 23.1532Z" fill="#212121"/>
<path d="M14.8599 31.2422H13.9471V31.1098L14.3197 30.7315C14.3889 30.6616 14.447 30.5994 14.494 30.5448C14.5417 30.4902 14.5779 30.4365 14.6026 30.3838C14.6274 30.3304 14.6398 30.272 14.6398 30.2085C14.6398 30.1297 14.6163 30.0697 14.5693 30.0284C14.5229 29.9865 14.4616 29.9655 14.3854 29.9655C14.3187 29.9655 14.2596 29.9769 14.2082 29.9998C14.1568 30.0227 14.104 30.0551 14.05 30.097L13.9652 29.9903C14.0021 29.9592 14.0421 29.9315 14.0853 29.9074C14.1291 29.8833 14.1758 29.8642 14.2253 29.8502C14.2755 29.8363 14.3289 29.8293 14.3854 29.8293C14.4712 29.8293 14.5452 29.8442 14.6074 29.874C14.6696 29.9039 14.7176 29.9465 14.7513 30.0017C14.7856 30.057 14.8027 30.1227 14.8027 30.1989C14.8027 30.2726 14.7881 30.3412 14.7589 30.4047C14.7297 30.4676 14.6887 30.5302 14.636 30.5924C14.5833 30.654 14.5217 30.7194 14.4511 30.7887L14.1482 31.0907V31.0974H14.8599V31.2422ZM15.9841 30.5438C15.9841 30.6569 15.9755 30.7579 15.9584 30.8468C15.9412 30.9357 15.9142 31.011 15.8774 31.0726C15.8406 31.1342 15.7929 31.1812 15.7345 31.2136C15.6761 31.2454 15.6059 31.2612 15.5239 31.2612C15.4204 31.2612 15.3347 31.233 15.2667 31.1764C15.1994 31.1199 15.1489 31.0383 15.1152 30.9316C15.0822 30.8243 15.0657 30.695 15.0657 30.5438C15.0657 30.3952 15.0806 30.2675 15.1104 30.1608C15.1409 30.0535 15.1898 29.9712 15.2572 29.9141C15.3245 29.8563 15.4134 29.8274 15.5239 29.8274C15.6287 29.8274 15.7151 29.8559 15.7831 29.9131C15.851 29.9696 15.9015 30.0516 15.9346 30.1589C15.9676 30.2656 15.9841 30.3939 15.9841 30.5438ZM15.2248 30.5438C15.2248 30.6734 15.2346 30.7814 15.2543 30.8678C15.274 30.9541 15.3058 31.0189 15.3496 31.0621C15.394 31.1047 15.4522 31.126 15.5239 31.126C15.5957 31.126 15.6535 31.1047 15.6973 31.0621C15.7418 31.0196 15.7739 30.9551 15.7936 30.8687C15.8139 30.7823 15.8241 30.674 15.8241 30.5438C15.8241 30.4162 15.8142 30.3095 15.7945 30.2237C15.7748 30.1373 15.7431 30.0725 15.6992 30.0293C15.6554 29.9855 15.597 29.9636 15.5239 29.9636C15.4509 29.9636 15.3925 29.9855 15.3486 30.0293C15.3048 30.0725 15.273 30.1373 15.2534 30.2237C15.2343 30.3095 15.2248 30.4162 15.2248 30.5438ZM17.1007 30.5438C17.1007 30.6569 17.0922 30.7579 17.075 30.8468C17.0579 30.9357 17.0309 31.011 16.994 31.0726C16.9572 31.1342 16.9095 31.1812 16.8511 31.2136C16.7927 31.2454 16.7225 31.2612 16.6406 31.2612C16.537 31.2612 16.4513 31.233 16.3833 31.1764C16.316 31.1199 16.2655 31.0383 16.2318 30.9316C16.1988 30.8243 16.1823 30.695 16.1823 30.5438C16.1823 30.3952 16.1972 30.2675 16.2271 30.1608C16.2576 30.0535 16.3065 29.9712 16.3738 29.9141C16.4411 29.8563 16.53 29.8274 16.6406 29.8274C16.7454 29.8274 16.8317 29.8559 16.8997 29.9131C16.9677 29.9696 17.0182 30.0516 17.0512 30.1589C17.0842 30.2656 17.1007 30.3939 17.1007 30.5438ZM16.3414 30.5438C16.3414 30.6734 16.3512 30.7814 16.3709 30.8678C16.3906 30.9541 16.4224 31.0189 16.4662 31.0621C16.5107 31.1047 16.5688 31.126 16.6406 31.126C16.7123 31.126 16.7701 31.1047 16.814 31.0621C16.8584 31.0196 16.8905 30.9551 16.9102 30.8687C16.9305 30.7823 16.9407 30.674 16.9407 30.5438C16.9407 30.4162 16.9308 30.3095 16.9111 30.2237C16.8914 30.1373 16.8597 30.0725 16.8159 30.0293C16.772 29.9855 16.7136 29.9636 16.6406 29.9636C16.5675 29.9636 16.5091 29.9855 16.4652 30.0293C16.4214 30.0725 16.3897 30.1373 16.37 30.2237C16.3509 30.3095 16.3414 30.4162 16.3414 30.5438ZM18.2173 30.5438C18.2173 30.6569 18.2088 30.7579 18.1916 30.8468C18.1745 30.9357 18.1475 31.011 18.1106 31.0726C18.0738 31.1342 18.0262 31.1812 17.9677 31.2136C17.9093 31.2454 17.8391 31.2612 17.7572 31.2612C17.6536 31.2612 17.5679 31.233 17.4999 31.1764C17.4326 31.1199 17.3821 31.0383 17.3484 30.9316C17.3154 30.8243 17.2989 30.695 17.2989 30.5438C17.2989 30.3952 17.3138 30.2675 17.3437 30.1608C17.3742 30.0535 17.4231 29.9712 17.4904 29.9141C17.5577 29.8563 17.6467 29.8274 17.7572 29.8274C17.862 29.8274 17.9484 29.8559 18.0163 29.9131C18.0843 29.9696 18.1348 30.0516 18.1678 30.1589C18.2008 30.2656 18.2173 30.3939 18.2173 30.5438ZM17.458 30.5438C17.458 30.6734 17.4679 30.7814 17.4875 30.8678C17.5072 30.9541 17.539 31.0189 17.5828 31.0621C17.6273 31.1047 17.6854 31.126 17.7572 31.126C17.8289 31.126 17.8867 31.1047 17.9306 31.0621C17.975 31.0196 18.0071 30.9551 18.0268 30.8687C18.0471 30.7823 18.0573 30.674 18.0573 30.5438C18.0573 30.4162 18.0474 30.3095 18.0277 30.2237C18.0081 30.1373 17.9763 30.0725 17.9325 30.0293C17.8886 29.9855 17.8302 29.9636 17.7572 29.9636C17.6841 29.9636 17.6257 29.9855 17.5819 30.0293C17.538 30.0725 17.5063 30.1373 17.4866 30.2237C17.4675 30.3095 17.458 30.4162 17.458 30.5438Z" fill="#212121"/>
<path d="M14.5359 38.6328H14.3816V37.6458C14.3816 37.6083 14.3816 37.5762 14.3816 37.5495C14.3822 37.5222 14.3829 37.4975 14.3835 37.4752C14.3848 37.4524 14.3864 37.4292 14.3883 37.4057C14.3686 37.426 14.3502 37.4435 14.333 37.4581C14.3159 37.4721 14.2946 37.4895 14.2692 37.5105L14.1101 37.6381L14.0272 37.5305L14.4045 37.2399H14.5359V38.6328ZM15.5039 37.7811C15.5986 37.7811 15.6808 37.7973 15.7507 37.8296C15.8206 37.8614 15.8745 37.9078 15.9127 37.9688C15.9514 38.0297 15.9708 38.1037 15.9708 38.1907C15.9708 38.286 15.9501 38.3683 15.9088 38.4375C15.8676 38.5061 15.8082 38.5591 15.7307 38.5966C15.6532 38.6334 15.5605 38.6519 15.4525 38.6519C15.3801 38.6519 15.3127 38.6455 15.2505 38.6328C15.1883 38.6201 15.1359 38.6011 15.0933 38.5756V38.4251C15.1397 38.4531 15.1959 38.4753 15.2619 38.4918C15.328 38.5083 15.3921 38.5166 15.4544 38.5166C15.5249 38.5166 15.5865 38.5055 15.6392 38.4832C15.6926 38.4604 15.7339 38.4261 15.7631 38.3803C15.7929 38.334 15.8079 38.2759 15.8079 38.206C15.8079 38.1132 15.7793 38.0418 15.7221 37.9916C15.6656 37.9408 15.576 37.9154 15.4534 37.9154C15.4141 37.9154 15.3709 37.9186 15.3239 37.9249C15.2769 37.9313 15.2381 37.9383 15.2076 37.9459L15.1276 37.8935L15.181 37.2399H15.8736V37.3847H15.3162L15.281 37.8049C15.3051 37.7998 15.3362 37.7947 15.3744 37.7896C15.4125 37.7839 15.4557 37.7811 15.5039 37.7811ZM17.1007 37.9345C17.1007 38.0475 17.0922 38.1485 17.075 38.2374C17.0579 38.3263 17.0309 38.4016 16.994 38.4632C16.9572 38.5248 16.9095 38.5718 16.8511 38.6042C16.7927 38.636 16.7225 38.6519 16.6406 38.6519C16.537 38.6519 16.4513 38.6236 16.3833 38.5671C16.316 38.5105 16.2655 38.4289 16.2318 38.3222C16.1988 38.2149 16.1823 38.0856 16.1823 37.9345C16.1823 37.7858 16.1972 37.6582 16.2271 37.5514C16.2576 37.4441 16.3065 37.3619 16.3738 37.3047C16.4411 37.2469 16.53 37.218 16.6406 37.218C16.7454 37.218 16.8317 37.2466 16.8997 37.3037C16.9677 37.3603 17.0182 37.4422 17.0512 37.5495C17.0842 37.6563 17.1007 37.7846 17.1007 37.9345ZM16.3414 37.9345C16.3414 38.064 16.3512 38.172 16.3709 38.2584C16.3906 38.3448 16.4224 38.4096 16.4662 38.4527C16.5107 38.4953 16.5688 38.5166 16.6406 38.5166C16.7123 38.5166 16.7701 38.4953 16.814 38.4527C16.8584 38.4102 16.8905 38.3457 16.9102 38.2593C16.9305 38.173 16.9407 38.0647 16.9407 37.9345C16.9407 37.8068 16.9308 37.7001 16.9111 37.6143C16.8914 37.5279 16.8597 37.4632 16.8159 37.42C16.772 37.3761 16.7136 37.3542 16.6406 37.3542C16.5675 37.3542 16.5091 37.3761 16.4652 37.42C16.4214 37.4632 16.3897 37.5279 16.37 37.6143C16.3509 37.7001 16.3414 37.8068 16.3414 37.9345ZM18.2173 37.9345C18.2173 38.0475 18.2088 38.1485 18.1916 38.2374C18.1745 38.3263 18.1475 38.4016 18.1106 38.4632C18.0738 38.5248 18.0262 38.5718 17.9677 38.6042C17.9093 38.636 17.8391 38.6519 17.7572 38.6519C17.6536 38.6519 17.5679 38.6236 17.4999 38.5671C17.4326 38.5105 17.3821 38.4289 17.3484 38.3222C17.3154 38.2149 17.2989 38.0856 17.2989 37.9345C17.2989 37.7858 17.3138 37.6582 17.3437 37.5514C17.3742 37.4441 17.4231 37.3619 17.4904 37.3047C17.5577 37.2469 17.6467 37.218 17.7572 37.218C17.862 37.218 17.9484 37.2466 18.0163 37.3037C18.0843 37.3603 18.1348 37.4422 18.1678 37.5495C18.2008 37.6563 18.2173 37.7846 18.2173 37.9345ZM17.458 37.9345C17.458 38.064 17.4679 38.172 17.4875 38.2584C17.5072 38.3448 17.539 38.4096 17.5828 38.4527C17.6273 38.4953 17.6854 38.5166 17.7572 38.5166C17.8289 38.5166 17.8867 38.4953 17.9306 38.4527C17.975 38.4102 18.0071 38.3457 18.0268 38.2593C18.0471 38.173 18.0573 38.0647 18.0573 37.9345C18.0573 37.8068 18.0474 37.7001 18.0277 37.6143C18.0081 37.5279 17.9763 37.4632 17.9325 37.42C17.8886 37.3761 17.8302 37.3542 17.7572 37.3542C17.6841 37.3542 17.6257 37.3761 17.5819 37.42C17.538 37.4632 17.5063 37.5279 17.4866 37.6143C17.4675 37.7001 17.458 37.8068 17.458 37.9345Z" fill="#212121"/>
<path d="M14.5359 46.0234H14.3816V45.0364C14.3816 44.9989 14.3816 44.9668 14.3816 44.9402C14.3822 44.9129 14.3829 44.8881 14.3835 44.8659C14.3848 44.843 14.3864 44.8198 14.3883 44.7963C14.3686 44.8166 14.3502 44.8341 14.333 44.8487C14.3159 44.8627 14.2946 44.8801 14.2692 44.9011L14.1101 45.0288L14.0272 44.9211L14.4045 44.6305H14.5359V46.0234ZM15.9841 45.3251C15.9841 45.4381 15.9755 45.5391 15.9584 45.628C15.9412 45.717 15.9142 45.7922 15.8774 45.8538C15.8406 45.9155 15.7929 45.9625 15.7345 45.9949C15.6761 46.0266 15.6059 46.0425 15.5239 46.0425C15.4204 46.0425 15.3347 46.0142 15.2667 45.9577C15.1994 45.9012 15.1489 45.8196 15.1152 45.7128C15.0822 45.6055 15.0657 45.4762 15.0657 45.3251C15.0657 45.1764 15.0806 45.0488 15.1104 44.9421C15.1409 44.8347 15.1898 44.7525 15.2572 44.6953C15.3245 44.6375 15.4134 44.6086 15.5239 44.6086C15.6287 44.6086 15.7151 44.6372 15.7831 44.6944C15.851 44.7509 15.9015 44.8328 15.9346 44.9402C15.9676 45.0469 15.9841 45.1752 15.9841 45.3251ZM15.2248 45.3251C15.2248 45.4546 15.2346 45.5626 15.2543 45.649C15.274 45.7354 15.3058 45.8002 15.3496 45.8434C15.394 45.8859 15.4522 45.9072 15.5239 45.9072C15.5957 45.9072 15.6535 45.8859 15.6973 45.8434C15.7418 45.8008 15.7739 45.7363 15.7936 45.65C15.8139 45.5636 15.8241 45.4553 15.8241 45.3251C15.8241 45.1974 15.8142 45.0907 15.7945 45.005C15.7748 44.9186 15.7431 44.8538 15.6992 44.8106C15.6554 44.7668 15.597 44.7449 15.5239 44.7449C15.4509 44.7449 15.3925 44.7668 15.3486 44.8106C15.3048 44.8538 15.273 44.9186 15.2534 45.005C15.2343 45.0907 15.2248 45.1974 15.2248 45.3251ZM17.1007 45.3251C17.1007 45.4381 17.0922 45.5391 17.075 45.628C17.0579 45.717 17.0309 45.7922 16.994 45.8538C16.9572 45.9155 16.9095 45.9625 16.8511 45.9949C16.7927 46.0266 16.7225 46.0425 16.6406 46.0425C16.537 46.0425 16.4513 46.0142 16.3833 45.9577C16.316 45.9012 16.2655 45.8196 16.2318 45.7128C16.1988 45.6055 16.1823 45.4762 16.1823 45.3251C16.1823 45.1764 16.1972 45.0488 16.2271 44.9421C16.2576 44.8347 16.3065 44.7525 16.3738 44.6953C16.4411 44.6375 16.53 44.6086 16.6406 44.6086C16.7454 44.6086 16.8317 44.6372 16.8997 44.6944C16.9677 44.7509 17.0182 44.8328 17.0512 44.9402C17.0842 45.0469 17.1007 45.1752 17.1007 45.3251ZM16.3414 45.3251C16.3414 45.4546 16.3512 45.5626 16.3709 45.649C16.3906 45.7354 16.4224 45.8002 16.4662 45.8434C16.5107 45.8859 16.5688 45.9072 16.6406 45.9072C16.7123 45.9072 16.7701 45.8859 16.814 45.8434C16.8584 45.8008 16.8905 45.7363 16.9102 45.65C16.9305 45.5636 16.9407 45.4553 16.9407 45.3251C16.9407 45.1974 16.9308 45.0907 16.9111 45.005C16.8914 44.9186 16.8597 44.8538 16.8159 44.8106C16.772 44.7668 16.7136 44.7449 16.6406 44.7449C16.5675 44.7449 16.5091 44.7668 16.4652 44.8106C16.4214 44.8538 16.3897 44.9186 16.37 45.005C16.3509 45.0907 16.3414 45.1974 16.3414 45.3251ZM18.2173 45.3251C18.2173 45.4381 18.2088 45.5391 18.1916 45.628C18.1745 45.717 18.1475 45.7922 18.1106 45.8538C18.0738 45.9155 18.0262 45.9625 17.9677 45.9949C17.9093 46.0266 17.8391 46.0425 17.7572 46.0425C17.6536 46.0425 17.5679 46.0142 17.4999 45.9577C17.4326 45.9012 17.3821 45.8196 17.3484 45.7128C17.3154 45.6055 17.2989 45.4762 17.2989 45.3251C17.2989 45.1764 17.3138 45.0488 17.3437 44.9421C17.3742 44.8347 17.4231 44.7525 17.4904 44.6953C17.5577 44.6375 17.6467 44.6086 17.7572 44.6086C17.862 44.6086 17.9484 44.6372 18.0163 44.6944C18.0843 44.7509 18.1348 44.8328 18.1678 44.9402C18.2008 45.0469 18.2173 45.1752 18.2173 45.3251ZM17.458 45.3251C17.458 45.4546 17.4679 45.5626 17.4875 45.649C17.5072 45.7354 17.539 45.8002 17.5828 45.8434C17.6273 45.8859 17.6854 45.9072 17.7572 45.9072C17.8289 45.9072 17.8867 45.8859 17.9306 45.8434C17.975 45.8008 18.0071 45.7363 18.0268 45.65C18.0471 45.5636 18.0573 45.4553 18.0573 45.3251C18.0573 45.1974 18.0474 45.0907 18.0277 45.005C18.0081 44.9186 17.9763 44.8538 17.9325 44.8106C17.8886 44.7668 17.8302 44.7449 17.7572 44.7449C17.6841 44.7449 17.6257 44.7668 17.5819 44.8106C17.538 44.8538 17.5063 44.9186 17.4866 45.005C17.4675 45.0907 17.458 45.1974 17.458 45.3251Z" fill="#212121"/>
<path d="M15.5034 52.5623C15.598 52.5623 15.6803 52.5785 15.7501 52.6109C15.82 52.6427 15.874 52.689 15.9121 52.75C15.9508 52.811 15.9702 52.885 15.9702 52.972C15.9702 53.0673 15.9496 53.1495 15.9083 53.2188C15.867 53.2873 15.8076 53.3404 15.7301 53.3779C15.6526 53.4147 15.5599 53.4331 15.4519 53.4331C15.3795 53.4331 15.3122 53.4268 15.2499 53.4141C15.1877 53.4014 15.1353 53.3823 15.0927 53.3569V53.2064C15.1391 53.2343 15.1953 53.2565 15.2614 53.2731C15.3274 53.2896 15.3916 53.2978 15.4538 53.2978C15.5243 53.2978 15.5859 53.2867 15.6386 53.2645C15.692 53.2416 15.7333 53.2073 15.7625 53.1616C15.7924 53.1152 15.8073 53.0571 15.8073 52.9872C15.8073 52.8945 15.7787 52.823 15.7215 52.7729C15.665 52.7221 15.5754 52.6966 15.4529 52.6966C15.4135 52.6966 15.3703 52.6998 15.3233 52.7062C15.2763 52.7125 15.2375 52.7195 15.2071 52.7271L15.127 52.6747L15.1804 52.0212H15.873V52.166H15.3157L15.2804 52.5861C15.3046 52.581 15.3357 52.576 15.3738 52.5709C15.4119 52.5652 15.4551 52.5623 15.5034 52.5623ZM17.1002 52.7157C17.1002 52.8288 17.0916 52.9298 17.0744 53.0187C17.0573 53.1076 17.0303 53.1829 16.9934 53.2445C16.9566 53.3061 16.909 53.3531 16.8505 53.3855C16.7921 53.4172 16.7219 53.4331 16.64 53.4331C16.5365 53.4331 16.4507 53.4049 16.3827 53.3483C16.3154 53.2918 16.2649 53.2102 16.2313 53.1035C16.1982 52.9961 16.1817 52.8669 16.1817 52.7157C16.1817 52.5671 16.1966 52.4394 16.2265 52.3327C16.257 52.2254 16.3059 52.1431 16.3732 52.0859C16.4405 52.0281 16.5295 51.9992 16.64 51.9992C16.7448 51.9992 16.8312 52.0278 16.8991 52.085C16.9671 52.1415 17.0176 52.2235 17.0506 52.3308C17.0836 52.4375 17.1002 52.5658 17.1002 52.7157ZM16.3408 52.7157C16.3408 52.8453 16.3507 52.9533 16.3704 53.0396C16.39 53.126 16.4218 53.1908 16.4656 53.234C16.5101 53.2765 16.5682 53.2978 16.64 53.2978C16.7118 53.2978 16.7696 53.2765 16.8134 53.234C16.8578 53.1914 16.8899 53.127 16.9096 53.0406C16.9299 52.9542 16.9401 52.8459 16.9401 52.7157C16.9401 52.588 16.9303 52.4813 16.9106 52.3956C16.8909 52.3092 16.8591 52.2444 16.8153 52.2012C16.7715 52.1574 16.713 52.1355 16.64 52.1355C16.5669 52.1355 16.5085 52.1574 16.4647 52.2012C16.4209 52.2444 16.3891 52.3092 16.3694 52.3956C16.3503 52.4813 16.3408 52.588 16.3408 52.7157ZM18.2168 52.7157C18.2168 52.8288 18.2082 52.9298 18.191 53.0187C18.1739 53.1076 18.1469 53.1829 18.1101 53.2445C18.0732 53.3061 18.0256 53.3531 17.9672 53.3855C17.9087 53.4172 17.8385 53.4331 17.7566 53.4331C17.6531 53.4331 17.5673 53.4049 17.4994 53.3483C17.432 53.2918 17.3815 53.2102 17.3479 53.1035C17.3148 52.9961 17.2983 52.8669 17.2983 52.7157C17.2983 52.5671 17.3133 52.4394 17.3431 52.3327C17.3736 52.2254 17.4225 52.1431 17.4898 52.0859C17.5572 52.0281 17.6461 51.9992 17.7566 51.9992C17.8614 51.9992 17.9478 52.0278 18.0157 52.085C18.0837 52.1415 18.1342 52.2235 18.1672 52.3308C18.2003 52.4375 18.2168 52.5658 18.2168 52.7157ZM17.4574 52.7157C17.4574 52.8453 17.4673 52.9533 17.487 53.0396C17.5067 53.126 17.5384 53.1908 17.5822 53.234C17.6267 53.2765 17.6848 53.2978 17.7566 53.2978C17.8284 53.2978 17.8862 53.2765 17.93 53.234C17.9745 53.1914 18.0065 53.127 18.0262 53.0406C18.0465 52.9542 18.0567 52.8459 18.0567 52.7157C18.0567 52.588 18.0469 52.4813 18.0272 52.3956C18.0075 52.3092 17.9757 52.2444 17.9319 52.2012C17.8881 52.1574 17.8296 52.1355 17.7566 52.1355C17.6836 52.1355 17.6251 52.1574 17.5813 52.2012C17.5375 52.2444 17.5057 52.3092 17.486 52.3956C17.467 52.4813 17.4574 52.588 17.4574 52.7157Z" fill="#212121"/>
<path d="M15.652 60.8047H15.4976V59.8176C15.4976 59.7802 15.4976 59.7481 15.4976 59.7214C15.4983 59.6941 15.4989 59.6693 15.4995 59.6471C15.5008 59.6242 15.5024 59.6011 15.5043 59.5776C15.4846 59.5979 15.4662 59.6153 15.4491 59.63C15.4319 59.6439 15.4106 59.6614 15.3852 59.6824L15.2261 59.81L15.1432 59.7024L15.5205 59.4118H15.652V60.8047ZM17.1002 60.1063C17.1002 60.2194 17.0916 60.3204 17.0744 60.4093C17.0573 60.4982 17.0303 60.5735 16.9934 60.6351C16.9566 60.6967 16.909 60.7437 16.8505 60.7761C16.7921 60.8079 16.7219 60.8237 16.64 60.8237C16.5365 60.8237 16.4507 60.7955 16.3827 60.7389C16.3154 60.6824 16.2649 60.6008 16.2313 60.4941C16.1982 60.3868 16.1817 60.2575 16.1817 60.1063C16.1817 59.9577 16.1966 59.83 16.2265 59.7233C16.257 59.616 16.3059 59.5337 16.3732 59.4766C16.4405 59.4188 16.5295 59.3899 16.64 59.3899C16.7448 59.3899 16.8312 59.4184 16.8991 59.4756C16.9671 59.5321 17.0176 59.6141 17.0506 59.7214C17.0836 59.8281 17.1002 59.9564 17.1002 60.1063ZM16.3408 60.1063C16.3408 60.2359 16.3507 60.3439 16.3704 60.4303C16.39 60.5166 16.4218 60.5814 16.4656 60.6246C16.5101 60.6672 16.5682 60.6885 16.64 60.6885C16.7118 60.6885 16.7696 60.6672 16.8134 60.6246C16.8578 60.5821 16.8899 60.5176 16.9096 60.4312C16.9299 60.3448 16.9401 60.2365 16.9401 60.1063C16.9401 59.9787 16.9303 59.872 16.9106 59.7862C16.8909 59.6998 16.8591 59.635 16.8153 59.5918C16.7715 59.548 16.713 59.5261 16.64 59.5261C16.5669 59.5261 16.5085 59.548 16.4647 59.5918C16.4209 59.635 16.3891 59.6998 16.3694 59.7862C16.3503 59.872 16.3408 59.9787 16.3408 60.1063ZM18.2168 60.1063C18.2168 60.2194 18.2082 60.3204 18.191 60.4093C18.1739 60.4982 18.1469 60.5735 18.1101 60.6351C18.0732 60.6967 18.0256 60.7437 17.9672 60.7761C17.9087 60.8079 17.8385 60.8237 17.7566 60.8237C17.6531 60.8237 17.5673 60.7955 17.4994 60.7389C17.432 60.6824 17.3815 60.6008 17.3479 60.4941C17.3148 60.3868 17.2983 60.2575 17.2983 60.1063C17.2983 59.9577 17.3133 59.83 17.3431 59.7233C17.3736 59.616 17.4225 59.5337 17.4898 59.4766C17.5572 59.4188 17.6461 59.3899 17.7566 59.3899C17.8614 59.3899 17.9478 59.4184 18.0157 59.4756C18.0837 59.5321 18.1342 59.6141 18.1672 59.7214C18.2003 59.8281 18.2168 59.9564 18.2168 60.1063ZM17.4574 60.1063C17.4574 60.2359 17.4673 60.3439 17.487 60.4303C17.5067 60.5166 17.5384 60.5814 17.5822 60.6246C17.6267 60.6672 17.6848 60.6885 17.7566 60.6885C17.8284 60.6885 17.8862 60.6672 17.93 60.6246C17.9745 60.5821 18.0065 60.5176 18.0262 60.4312C18.0465 60.3448 18.0567 60.2365 18.0567 60.1063C18.0567 59.9787 18.0469 59.872 18.0272 59.7862C18.0075 59.6998 17.9757 59.635 17.9319 59.5918C17.8881 59.548 17.8296 59.5261 17.7566 59.5261C17.6836 59.5261 17.6251 59.548 17.5813 59.5918C17.5375 59.635 17.5057 59.6998 17.486 59.7862C17.467 59.872 17.4574 59.9787 17.4574 60.1063Z" fill="#212121"/>
<path d="M18.2168 67.493C18.2168 67.6061 18.2082 67.7071 18.191 67.796C18.1739 67.8849 18.1469 67.9602 18.1101 68.0218C18.0732 68.0834 18.0256 68.1304 17.9672 68.1628C17.9087 68.1946 17.8385 68.2105 17.7566 68.2105C17.6531 68.2105 17.5673 68.1822 17.4994 68.1257C17.432 68.0691 17.3815 67.9875 17.3479 67.8808C17.3148 67.7735 17.2983 67.6442 17.2983 67.493C17.2983 67.3444 17.3133 67.2167 17.3431 67.11C17.3736 67.0027 17.4225 66.9204 17.4898 66.8633C17.5572 66.8055 17.6461 66.7766 17.7566 66.7766C17.8614 66.7766 17.9478 66.8052 18.0157 66.8623C18.0837 66.9189 18.1342 67.0008 18.1672 67.1081C18.2003 67.2148 18.2168 67.3431 18.2168 67.493ZM17.4574 67.493C17.4574 67.6226 17.4673 67.7306 17.487 67.817C17.5067 67.9034 17.5384 67.9681 17.5822 68.0113C17.6267 68.0539 17.6848 68.0752 17.7566 68.0752C17.8284 68.0752 17.8862 68.0539 17.93 68.0113C17.9745 67.9688 18.0065 67.9043 18.0262 67.8179C18.0465 67.7315 18.0567 67.6233 18.0567 67.493C18.0567 67.3654 18.0469 67.2587 18.0272 67.1729C18.0075 67.0865 17.9757 67.0218 17.9319 66.9786C17.8881 66.9347 17.8296 66.9128 17.7566 66.9128C17.6836 66.9128 17.6251 66.9347 17.5813 66.9786C17.5375 67.0218 17.5057 67.0865 17.486 67.1729C17.467 67.2587 17.4574 67.3654 17.4574 67.493Z" fill="#212121"/>
<path d="M29.6426 71.4141H29.4883V70.427C29.4883 70.3895 29.4883 70.3575 29.4883 70.3308C29.4889 70.3035 29.4896 70.2787 29.4902 70.2565C29.4915 70.2336 29.493 70.2104 29.495 70.1869C29.4753 70.2073 29.4568 70.2247 29.4397 70.2393C29.4225 70.2533 29.4013 70.2708 29.3759 70.2917L29.2167 70.4194L29.1339 70.3117L29.5111 70.0212H29.6426V71.4141Z" fill="#212121"/>
<path d="M21.9234 70.7157C21.9234 70.8288 21.9148 70.9298 21.8977 71.0187C21.8805 71.1076 21.8535 71.1829 21.8167 71.2445C21.7799 71.3061 21.7322 71.3531 21.6738 71.3855C21.6153 71.4172 21.5452 71.4331 21.4632 71.4331C21.3597 71.4331 21.2739 71.4049 21.206 71.3483C21.1387 71.2918 21.0882 71.2102 21.0545 71.1035C21.0215 70.9961 21.005 70.8669 21.005 70.7157C21.005 70.5671 21.0199 70.4394 21.0497 70.3327C21.0802 70.2254 21.1291 70.1431 21.1965 70.0859C21.2638 70.0281 21.3527 69.9992 21.4632 69.9992C21.568 69.9992 21.6544 70.0278 21.7224 70.085C21.7903 70.1415 21.8408 70.2235 21.8739 70.3308C21.9069 70.4375 21.9234 70.5658 21.9234 70.7157ZM21.1641 70.7157C21.1641 70.8453 21.1739 70.9533 21.1936 71.0396C21.2133 71.126 21.245 71.1908 21.2889 71.234C21.3333 71.2765 21.3915 71.2978 21.4632 71.2978C21.535 71.2978 21.5928 71.2765 21.6366 71.234C21.6811 71.1914 21.7132 71.127 21.7329 71.0406C21.7532 70.9542 21.7633 70.8459 21.7633 70.7157C21.7633 70.588 21.7535 70.4813 21.7338 70.3956C21.7141 70.3092 21.6824 70.2444 21.6385 70.2012C21.5947 70.1574 21.5363 70.1355 21.4632 70.1355C21.3902 70.1355 21.3317 70.1574 21.2879 70.2012C21.2441 70.2444 21.2123 70.3092 21.1926 70.3956C21.1736 70.4813 21.1641 70.588 21.1641 70.7157Z" fill="#212121"/>
<path d="M38.0134 71.4141H37.1007V71.2816L37.4732 70.9034C37.5425 70.8335 37.6006 70.7713 37.6476 70.7167C37.6952 70.662 37.7314 70.6084 37.7562 70.5556C37.781 70.5023 37.7933 70.4439 37.7933 70.3803C37.7933 70.3016 37.7698 70.2416 37.7228 70.2003C37.6765 70.1583 37.6152 70.1374 37.539 70.1374C37.4723 70.1374 37.4132 70.1488 37.3618 70.1717C37.3103 70.1946 37.2576 70.2269 37.2036 70.2689L37.1188 70.1622C37.1556 70.131 37.1957 70.1034 37.2389 70.0793C37.2827 70.0551 37.3294 70.0361 37.3789 70.0221C37.4291 70.0081 37.4824 70.0011 37.539 70.0011C37.6247 70.0011 37.6987 70.0161 37.761 70.0459C37.8232 70.0758 37.8712 70.1183 37.9048 70.1736C37.9391 70.2288 37.9563 70.2946 37.9563 70.3708C37.9563 70.4445 37.9417 70.5131 37.9124 70.5766C37.8832 70.6395 37.8423 70.702 37.7895 70.7643C37.7368 70.8259 37.6752 70.8913 37.6047 70.9606L37.3017 71.2626V71.2692H38.0134V71.4141Z" fill="#212121"/>
<path d="M46.255 70.346C46.255 70.4083 46.2429 70.4623 46.2188 70.508C46.1946 70.5537 46.161 70.5912 46.1178 70.6204C46.0746 70.649 46.0238 70.669 45.9653 70.6804V70.6881C46.0758 70.702 46.1587 70.7376 46.214 70.7948C46.2699 70.8519 46.2978 70.9269 46.2978 71.0196C46.2978 71.1003 46.2788 71.1717 46.2407 71.234C46.2032 71.2962 46.1454 71.3451 46.0673 71.3807C45.9898 71.4157 45.8904 71.4331 45.7691 71.4331C45.6954 71.4331 45.6271 71.4271 45.5642 71.415C45.502 71.4036 45.4423 71.3842 45.3851 71.3569V71.2083C45.4429 71.2369 45.5058 71.2594 45.5737 71.2759C45.6417 71.2918 45.7074 71.2997 45.771 71.2997C45.898 71.2997 45.9898 71.2746 46.0463 71.2245C46.1028 71.1737 46.1311 71.1044 46.1311 71.0168C46.1311 70.9564 46.1152 70.9078 46.0835 70.871C46.0523 70.8335 46.0072 70.8062 45.9482 70.7891C45.8897 70.7713 45.8192 70.7624 45.7367 70.7624H45.5976V70.6271H45.7376C45.8132 70.6271 45.8774 70.616 45.9301 70.5938C45.9828 70.5715 46.0228 70.5404 46.0501 70.5004C46.0781 70.4597 46.092 70.4118 46.092 70.3565C46.092 70.286 46.0685 70.2317 46.0215 70.1936C45.9745 70.1549 45.9107 70.1355 45.83 70.1355C45.7805 70.1355 45.7354 70.1406 45.6947 70.1507C45.6541 70.1609 45.616 70.1749 45.5804 70.1926C45.5448 70.2104 45.5093 70.2311 45.4737 70.2546L45.3937 70.146C45.4445 70.1066 45.5064 70.0726 45.5795 70.044C45.6525 70.0154 45.7354 70.0011 45.8281 70.0011C45.9704 70.0011 46.0771 70.0335 46.1482 70.0983C46.2194 70.1631 46.255 70.2457 46.255 70.346Z" fill="#212121"/>
<path d="M54.4248 71.0911H54.2161V71.4141H54.0618V71.0911H53.3882V70.9577L54.0513 70.0135H54.2161V70.9482H54.4248V71.0911ZM54.0618 70.9482V70.4928C54.0618 70.4578 54.0621 70.4264 54.0627 70.3984C54.0634 70.3699 54.0643 70.3435 54.0656 70.3194C54.0669 70.2946 54.0678 70.2711 54.0685 70.2489C54.0697 70.2266 54.0707 70.2047 54.0713 70.1831H54.0637C54.0516 70.2085 54.0376 70.2355 54.0218 70.2641C54.0065 70.292 53.991 70.3171 53.9751 70.3394L53.5454 70.9482H54.0618Z" fill="#212121"/>
<path d="M61.9315 70.5623C62.0261 70.5623 62.1084 70.5785 62.1783 70.6109C62.2481 70.6427 62.3021 70.689 62.3402 70.75C62.379 70.811 62.3983 70.885 62.3983 70.972C62.3983 71.0673 62.3777 71.1495 62.3364 71.2188C62.2951 71.2873 62.2357 71.3404 62.1583 71.3779C62.0808 71.4147 61.988 71.4331 61.88 71.4331C61.8076 71.4331 61.7403 71.4268 61.6781 71.4141C61.6158 71.4014 61.5634 71.3823 61.5209 71.3569V71.2064C61.5672 71.2343 61.6234 71.2565 61.6895 71.2731C61.7556 71.2896 61.8197 71.2978 61.882 71.2978C61.9525 71.2978 62.0141 71.2867 62.0668 71.2645C62.1201 71.2416 62.1614 71.2073 62.1906 71.1616C62.2205 71.1152 62.2354 71.0571 62.2354 70.9872C62.2354 70.8945 62.2068 70.823 62.1497 70.7729C62.0931 70.7221 62.0036 70.6966 61.881 70.6966C61.8416 70.6966 61.7984 70.6998 61.7514 70.7062C61.7044 70.7125 61.6657 70.7195 61.6352 70.7271L61.5552 70.6747L61.6085 70.0212H62.3012V70.166H61.7438L61.7086 70.5861C61.7327 70.581 61.7638 70.576 61.8019 70.5709C61.84 70.5652 61.8832 70.5623 61.9315 70.5623Z" fill="#212121"/>
<path d="M69.5544 70.8186C69.5544 70.7348 69.5602 70.6528 69.5716 70.5728C69.5837 70.4928 69.6037 70.4184 69.6316 70.3498C69.6596 70.2806 69.6977 70.22 69.746 70.1679C69.7942 70.1158 69.8542 70.0751 69.926 70.0459C69.9984 70.0161 70.0851 70.0011 70.1861 70.0011C70.2147 70.0011 70.2455 70.0027 70.2785 70.0059C70.3116 70.0084 70.3389 70.0129 70.3605 70.0192V70.1555C70.337 70.1472 70.31 70.1412 70.2795 70.1374C70.2496 70.1336 70.2195 70.1317 70.189 70.1317C70.0708 70.1317 69.9778 70.1574 69.9098 70.2088C69.8425 70.2603 69.7939 70.3302 69.7641 70.4184C69.7342 70.5061 69.7171 70.6049 69.7126 70.7147H69.7231C69.7428 70.683 69.7679 70.6544 69.7984 70.629C69.8288 70.603 69.8657 70.5823 69.9089 70.5671C69.9527 70.5518 70.0035 70.5442 70.0613 70.5442C70.1426 70.5442 70.2134 70.5607 70.2738 70.5938C70.3347 70.6268 70.3817 70.6747 70.4148 70.7376C70.4484 70.8005 70.4653 70.8767 70.4653 70.9663C70.4653 71.0622 70.4475 71.1451 70.4119 71.2149C70.3763 71.2848 70.3255 71.3388 70.2595 71.3769C70.1941 71.4144 70.1159 71.4331 70.0251 71.4331C69.9571 71.4331 69.8946 71.4201 69.8374 71.3941C69.7802 71.368 69.7304 71.3293 69.6878 71.2778C69.6459 71.2264 69.6132 71.1625 69.5897 71.0863C69.5662 71.0095 69.5544 70.9202 69.5544 70.8186ZM70.0232 71.2997C70.1096 71.2997 70.1788 71.2721 70.2309 71.2168C70.283 71.1616 70.309 71.0781 70.309 70.9663C70.309 70.8748 70.2858 70.8024 70.2395 70.749C70.1931 70.6957 70.1232 70.669 70.0299 70.669C69.9664 70.669 69.9111 70.6824 69.8641 70.709C69.8171 70.7351 69.7806 70.7681 69.7545 70.8081C69.7285 70.8481 69.7155 70.8888 69.7155 70.9301C69.7155 70.972 69.7215 71.0145 69.7336 71.0577C69.7463 71.1009 69.7653 71.1409 69.7907 71.1778C69.8161 71.2146 69.8482 71.2442 69.887 71.2664C69.9257 71.2886 69.9711 71.2997 70.0232 71.2997Z" fill="#212121"/>
<path d="M77.5249 71.4141L78.0966 70.166H77.3372V70.0212H78.2661V70.1431L77.6983 71.4141H77.5249Z" fill="#212121"/>
<path d="M20.7559 68.9258H77.0973" stroke="#D4D4D4" stroke-width="0.243902"/>
<path d="M36.8528 47.4594C37.2569 47.4594 37.5844 47.1319 37.5844 46.7278C37.5844 46.3237 37.2569 45.9961 36.8528 45.9961C36.4487 45.9961 36.1211 46.3237 36.1211 46.7278C36.1211 47.1319 36.4487 47.4594 36.8528 47.4594Z" fill="#179600"/>
<path d="M44.9035 34.0493C45.3076 34.0493 45.6352 33.7217 45.6352 33.3176C45.6352 32.9135 45.3076 32.5859 44.9035 32.5859C44.4995 32.5859 44.1719 32.9135 44.1719 33.3176C44.1719 33.7217 44.4995 34.0493 44.9035 34.0493Z" fill="#179600"/>
<path d="M52.9524 41.3657C53.3565 41.3657 53.684 41.0381 53.684 40.634C53.684 40.2299 53.3565 39.9023 52.9524 39.9023C52.5483 39.9023 52.2207 40.2299 52.2207 40.634C52.2207 41.0381 52.5483 41.3657 52.9524 41.3657Z" fill="#179600"/>
<path d="M60.9992 57.4633C61.4033 57.4633 61.7309 57.1358 61.7309 56.7317C61.7309 56.3276 61.4033 56 60.9992 56C60.5952 56 60.2676 56.3276 60.2676 56.7317C60.2676 57.1358 60.5952 57.4633 60.9992 57.4633Z" fill="#179600"/>
<path d="M36.8545 45.876C37.4605 45.8761 37.9521 46.3676 37.9521 46.9736C37.952 47.5795 37.4604 48.0711 36.8545 48.0713C36.2485 48.0713 35.757 47.5796 35.7568 46.9736C35.7568 46.3675 36.2484 45.876 36.8545 45.876Z" fill="white" stroke="#179600" stroke-width="0.243902"/>
<path d="M36.8547 47.7055C37.2588 47.7055 37.5864 47.378 37.5864 46.9739C37.5864 46.5698 37.2588 46.2422 36.8547 46.2422C36.4506 46.2422 36.123 46.5698 36.123 46.9739C36.123 47.378 36.4506 47.7055 36.8547 47.7055Z" fill="#179600"/>
<path d="M36.8545 49.2939C37.4605 49.2941 37.9521 49.7856 37.9521 50.3916C37.952 50.9975 37.4604 51.4891 36.8545 51.4893C36.2485 51.4893 35.757 50.9976 35.7568 50.3916C35.7568 49.7855 36.2484 49.2939 36.8545 49.2939Z" fill="white" stroke="#F90000" stroke-width="0.243902"/>
<path d="M36.8547 51.1235C37.2588 51.1235 37.5864 50.7959 37.5864 50.3918C37.5864 49.9877 37.2588 49.6602 36.8547 49.6602C36.4506 49.6602 36.123 49.9877 36.123 50.3918C36.123 50.7959 36.4506 51.1235 36.8547 51.1235Z" fill="#F90000"/>
<path d="M44.9033 32.2158C45.5093 32.216 46.001 32.7074 46.001 33.3135C46.0008 33.9194 45.5092 34.411 44.9033 34.4111C44.2973 34.4111 43.8058 33.9195 43.8057 33.3135C43.8057 32.7073 44.2972 32.2158 44.9033 32.2158Z" fill="white" stroke="#179600" stroke-width="0.243902"/>
<path d="M44.9035 34.0454C45.3076 34.0454 45.6352 33.7178 45.6352 33.3137C45.6352 32.9096 45.3076 32.582 44.9035 32.582C44.4995 32.582 44.1719 32.9096 44.1719 33.3137C44.1719 33.7178 44.4995 34.0454 44.9035 34.0454Z" fill="#179600"/>
<path d="M52.9521 25.3877C53.5582 25.3878 54.0498 25.8793 54.0498 26.4854C54.0497 27.0913 53.5581 27.5829 52.9521 27.583C52.3461 27.583 51.8546 27.0914 51.8545 26.4854C51.8545 25.8792 52.346 25.3877 52.9521 25.3877Z" fill="white" stroke="#F90000" stroke-width="0.243902"/>
<path d="M52.9524 27.2172C53.3565 27.2172 53.684 26.8897 53.684 26.4856C53.684 26.0815 53.3565 25.7539 52.9524 25.7539C52.5483 25.7539 52.2207 26.0815 52.2207 26.4856C52.2207 26.8897 52.5483 27.2172 52.9524 27.2172Z" fill="#F90000"/>
<path d="M44.9033 60.7549C45.5093 60.755 46.001 61.2465 46.001 61.8525C46.0008 62.4585 45.5092 62.95 44.9033 62.9502C44.2973 62.9502 43.8058 62.4585 43.8057 61.8525C43.8057 61.2464 44.2972 60.7549 44.9033 60.7549Z" fill="white" stroke="#F90000" stroke-width="0.243902"/>
<path d="M44.9035 62.5844C45.3076 62.5844 45.6352 62.2569 45.6352 61.8528C45.6352 61.4487 45.3076 61.1211 44.9035 61.1211C44.4995 61.1211 44.1719 61.4487 44.1719 61.8528C44.1719 62.2569 44.4995 62.5844 44.9035 62.5844Z" fill="#F90000"/>
<path d="M52.9521 39.5322C53.5582 39.5324 54.0498 40.0238 54.0498 40.6299C54.0497 41.2358 53.5581 41.7274 52.9521 41.7275C52.3461 41.7275 51.8546 41.2359 51.8545 40.6299C51.8545 40.0237 52.346 39.5322 52.9521 39.5322Z" fill="white" stroke="#179600" stroke-width="0.243902"/>
<path d="M52.9524 41.3618C53.3565 41.3618 53.684 41.0342 53.684 40.6301C53.684 40.226 53.3565 39.8984 52.9524 39.8984C52.5483 39.8984 52.2207 40.226 52.2207 40.6301C52.2207 41.0342 52.5483 41.3618 52.9524 41.3618Z" fill="#179600"/>
<path d="M61.001 55.6338C61.607 55.6339 62.0986 56.1254 62.0986 56.7314C62.0985 57.3374 61.6069 57.829 61.001 57.8291C60.3949 57.8291 59.9035 57.3375 59.9033 56.7314C59.9033 56.1253 60.3948 55.6338 61.001 55.6338Z" fill="white" stroke="#179600" stroke-width="0.243902"/>
<path d="M61.0012 57.4633C61.4053 57.4633 61.7329 57.1358 61.7329 56.7317C61.7329 56.3276 61.4053 56 61.0012 56C60.5971 56 60.2695 56.3276 60.2695 56.7317C60.2695 57.1358 60.5971 57.4633 61.0012 57.4633Z" fill="#179600"/>
<path d="M61.001 65.3916C61.607 65.3917 62.0986 65.8832 62.0986 66.4893C62.0985 67.0952 61.6069 67.5868 61.001 67.5869C60.3949 67.5869 59.9035 67.0953 59.9033 66.4893C59.9033 65.8831 60.3948 65.3916 61.001 65.3916Z" fill="white" stroke="#F90000" stroke-width="0.243902"/>
<path d="M61.0012 67.2212C61.4053 67.2212 61.7329 66.8936 61.7329 66.4895C61.7329 66.0854 61.4053 65.7578 61.0012 65.7578C60.5971 65.7578 60.2695 66.0854 60.2695 66.4895C60.2695 66.8936 60.5971 67.2212 61.0012 67.2212Z" fill="#F90000"/>
<path d="M69.0498 37.583C69.6558 37.5832 70.1475 38.0746 70.1475 38.6807C70.1473 39.2866 69.6557 39.7782 69.0498 39.7783C68.4438 39.7783 67.9523 39.2867 67.9521 38.6807C67.9521 38.0745 68.4437 37.583 69.0498 37.583Z" fill="white" stroke="#179600" stroke-width="0.243902"/>
<path d="M69.05 39.4126C69.4541 39.4126 69.7817 39.085 69.7817 38.6809C69.7817 38.2768 69.4541 37.9492 69.05 37.9492C68.6459 37.9492 68.3184 38.2768 68.3184 38.6809C68.3184 39.085 68.6459 39.4126 69.05 39.4126Z" fill="#179600"/>
<path d="M69.0498 45.1455C69.6558 45.1457 70.1475 45.6371 70.1475 46.2432C70.1473 46.8491 69.6557 47.3407 69.0498 47.3408C68.4438 47.3408 67.9523 46.8492 67.9521 46.2432C67.9521 45.637 68.4437 45.1455 69.0498 45.1455Z" fill="white" stroke="#F90000" stroke-width="0.243902"/>
<path d="M69.05 46.9751C69.4541 46.9751 69.7817 46.6475 69.7817 46.2434C69.7817 45.8393 69.4541 45.5117 69.05 45.5117C68.6459 45.5117 68.3184 45.8393 68.3184 46.2434C68.3184 46.6475 68.6459 46.9751 69.05 46.9751Z" fill="#F90000"/>
<path d="M77.0986 41.9736C77.7046 41.9738 78.1963 42.4652 78.1963 43.0713C78.1961 43.6772 77.7045 44.1688 77.0986 44.1689C76.4926 44.1689 76.0011 43.6773 76.001 43.0713C76.001 42.4652 76.4925 41.9736 77.0986 41.9736Z" fill="white" stroke="#F90000" stroke-width="0.243902"/>
<path d="M77.0989 43.8032C77.503 43.8032 77.8305 43.4756 77.8305 43.0715C77.8305 42.6674 77.503 42.3398 77.0989 42.3398C76.6948 42.3398 76.3672 42.6674 76.3672 43.0715C76.3672 43.4756 76.6948 43.8032 77.0989 43.8032Z" fill="#F90000"/>
<path d="M77.0986 27.0986C77.7046 27.0988 78.1963 27.5902 78.1963 28.1963C78.1961 28.8022 77.7045 29.2938 77.0986 29.2939C76.4926 29.2939 76.0011 28.8023 76.001 28.1963C76.001 27.5902 76.4925 27.0986 77.0986 27.0986Z" fill="white" stroke="#179600" stroke-width="0.243902"/>
<path d="M77.0989 28.9282C77.503 28.9282 77.8305 28.6006 77.8305 28.1965C77.8305 27.7924 77.503 27.4648 77.0989 27.4648C76.6948 27.4648 76.3672 27.7924 76.3672 28.1965C76.3672 28.6006 76.6948 28.9282 77.0989 28.9282Z" fill="#179600"/>
<path d="M77.0986 27.0986C77.7046 27.0988 78.1963 27.5902 78.1963 28.1963C78.1961 28.8022 77.7045 29.2938 77.0986 29.2939C76.4926 29.2939 76.0011 28.8023 76.001 28.1963C76.001 27.5902 76.4925 27.0986 77.0986 27.0986Z" fill="white" stroke="#179600" stroke-width="0.243902"/>
<path d="M77.0989 28.9282C77.503 28.9282 77.8305 28.6006 77.8305 28.1965C77.8305 27.7924 77.503 27.4648 77.0989 27.4648C76.6948 27.4648 76.3672 27.7924 76.3672 28.1965C76.3672 28.6006 76.6948 28.9282 77.0989 28.9282Z" fill="#179600"/>
<path d="M20.9992 66.2407C21.4033 66.2407 21.7309 65.9131 21.7309 65.509C21.7309 65.1049 21.4033 64.7773 20.9992 64.7773C20.5952 64.7773 20.2676 65.1049 20.2676 65.509C20.2676 65.9131 20.5952 66.2407 20.9992 66.2407Z" fill="#F90000"/>
</svg>
