<svg width="93" height="92" viewBox="0 0 93 92" fill="none" xmlns="http://www.w3.org/2000/svg">
<rect x="1.26092" y="0.389831" width="91.079" height="91.2203" rx="17.5424" stroke="#BEBEBE" stroke-width="0.779661"/>
<rect width="70" height="60.7317" transform="translate(12 16)" fill="white"/>
<path d="M21.7559 21.8516V68.9247" stroke="#E0E0E0" stroke-width="0.243902" stroke-dasharray="0.49 0.49"/>
<path d="M29.6827 68.9247C29.6827 68.9921 29.7373 69.0467 29.8047 69.0467C29.872 69.0467 29.9266 68.9921 29.9266 68.9247H29.6827ZM29.8047 21.8516H29.6827V22.0967H29.8047H29.9266V21.8516H29.8047ZM29.8047 22.5871H29.6827V23.0774H29.8047H29.9266V22.5871H29.8047ZM29.8047 23.5678H29.6827V24.0581H29.8047H29.9266V23.5678H29.8047ZM29.8047 24.5485H29.6827V25.0388H29.8047H29.9266V24.5485H29.8047ZM29.8047 25.5292H29.6827V26.0195H29.8047H29.9266V25.5292H29.8047ZM29.8047 26.5098H29.6827V27.0002H29.8047H29.9266V26.5098H29.8047ZM29.8047 27.4905H29.6827V27.9809H29.8047H29.9266V27.4905H29.8047ZM29.8047 28.4712H29.6827V28.9616H29.8047H29.9266V28.4712H29.8047ZM29.8047 29.4519H29.6827V29.9423H29.8047H29.9266V29.4519H29.8047ZM29.8047 30.4326H29.6827V30.923H29.8047H29.9266V30.4326H29.8047ZM29.8047 31.4133H29.6827V31.9036H29.8047H29.9266V31.4133H29.8047ZM29.8047 32.394H29.6827V32.8843H29.8047H29.9266V32.394H29.8047ZM29.8047 33.3747H29.6827V33.865H29.8047H29.9266V33.3747H29.8047ZM29.8047 34.3554H29.6827V34.8457H29.8047H29.9266V34.3554H29.8047ZM29.8047 35.3361H29.6827V35.8264H29.8047H29.9266V35.3361H29.8047ZM29.8047 36.3168H29.6827V36.8071H29.8047H29.9266V36.3168H29.8047ZM29.8047 37.2975H29.6827V37.7878H29.8047H29.9266V37.2975H29.8047ZM29.8047 38.2781H29.6827V38.7685H29.8047H29.9266V38.2781H29.8047ZM29.8047 39.2588H29.6827V39.7492H29.8047H29.9266V39.2588H29.8047ZM29.8047 40.2395H29.6827V40.7299H29.8047H29.9266V40.2395H29.8047ZM29.8047 41.2202H29.6827V41.7106H29.8047H29.9266V41.2202H29.8047ZM29.8047 42.2009H29.6827V42.6912H29.8047H29.9266V42.2009H29.8047ZM29.8047 43.1816H29.6827V43.6719H29.8047H29.9266V43.1816H29.8047ZM29.8047 44.1623H29.6827V44.6526H29.8047H29.9266V44.1623H29.8047ZM29.8047 45.143H29.6827V45.6333H29.8047H29.9266V45.143H29.8047ZM29.8047 46.1237H29.6827V46.614H29.8047H29.9266V46.1237H29.8047ZM29.8047 47.1044H29.6827V47.5947H29.8047H29.9266V47.1044H29.8047ZM29.8047 48.085H29.6827V48.5754H29.8047H29.9266V48.085H29.8047ZM29.8047 49.0657H29.6827V49.5561H29.8047H29.9266V49.0657H29.8047ZM29.8047 50.0464H29.6827V50.5368H29.8047H29.9266V50.0464H29.8047ZM29.8047 51.0271H29.6827V51.5175H29.8047H29.9266V51.0271H29.8047ZM29.8047 52.0078H29.6827V52.4981H29.8047H29.9266V52.0078H29.8047ZM29.8047 52.9885H29.6827V53.4788H29.8047H29.9266V52.9885H29.8047ZM29.8047 53.9692H29.6827V54.4595H29.8047H29.9266V53.9692H29.8047ZM29.8047 54.9499H29.6827V55.4402H29.8047H29.9266V54.9499H29.8047ZM29.8047 55.9306H29.6827V56.4209H29.8047H29.9266V55.9306H29.8047ZM29.8047 56.9113H29.6827V57.4016H29.8047H29.9266V56.9113H29.8047ZM29.8047 57.8919H29.6827V58.3823H29.8047H29.9266V57.8919H29.8047ZM29.8047 58.8726H29.6827V59.363H29.8047H29.9266V58.8726H29.8047ZM29.8047 59.8533H29.6827V60.3437H29.8047H29.9266V59.8533H29.8047ZM29.8047 60.834H29.6827V61.3244H29.8047H29.9266V60.834H29.8047ZM29.8047 61.8147H29.6827V62.305H29.8047H29.9266V61.8147H29.8047ZM29.8047 62.7954H29.6827V63.2857H29.8047H29.9266V62.7954H29.8047ZM29.8047 63.7761H29.6827V64.2664H29.8047H29.9266V63.7761H29.8047ZM29.8047 64.7568H29.6827V65.2471H29.8047H29.9266V64.7568H29.8047ZM29.8047 65.7375H29.6827V66.2278H29.8047H29.9266V65.7375H29.8047ZM29.8047 66.7182H29.6827V67.2085H29.8047H29.9266V66.7182H29.8047ZM29.8047 67.6988H29.6827V68.1892H29.8047H29.9266V67.6988H29.8047ZM29.8047 68.6795H29.6827V68.9247H29.8047H29.9266V68.6795H29.8047Z" fill="#E0E0E0"/>
<path d="M37.7316 68.9247C37.7316 68.9921 37.7862 69.0467 37.8535 69.0467C37.9209 69.0467 37.9755 68.9921 37.9755 68.9247H37.7316ZM37.8535 21.8516H37.7316V22.0967H37.8535H37.9755V21.8516H37.8535ZM37.8535 22.5871H37.7316V23.0774H37.8535H37.9755V22.5871H37.8535ZM37.8535 23.5678H37.7316V24.0581H37.8535H37.9755V23.5678H37.8535ZM37.8535 24.5485H37.7316V25.0388H37.8535H37.9755V24.5485H37.8535ZM37.8535 25.5292H37.7316V26.0195H37.8535H37.9755V25.5292H37.8535ZM37.8535 26.5098H37.7316V27.0002H37.8535H37.9755V26.5098H37.8535ZM37.8535 27.4905H37.7316V27.9809H37.8535H37.9755V27.4905H37.8535ZM37.8535 28.4712H37.7316V28.9616H37.8535H37.9755V28.4712H37.8535ZM37.8535 29.4519H37.7316V29.9423H37.8535H37.9755V29.4519H37.8535ZM37.8535 30.4326H37.7316V30.923H37.8535H37.9755V30.4326H37.8535ZM37.8535 31.4133H37.7316V31.9036H37.8535H37.9755V31.4133H37.8535ZM37.8535 32.394H37.7316V32.8843H37.8535H37.9755V32.394H37.8535ZM37.8535 33.3747H37.7316V33.865H37.8535H37.9755V33.3747H37.8535ZM37.8535 34.3554H37.7316V34.8457H37.8535H37.9755V34.3554H37.8535ZM37.8535 35.3361H37.7316V35.8264H37.8535H37.9755V35.3361H37.8535ZM37.8535 36.3168H37.7316V36.8071H37.8535H37.9755V36.3168H37.8535ZM37.8535 37.2975H37.7316V37.7878H37.8535H37.9755V37.2975H37.8535ZM37.8535 38.2781H37.7316V38.7685H37.8535H37.9755V38.2781H37.8535ZM37.8535 39.2588H37.7316V39.7492H37.8535H37.9755V39.2588H37.8535ZM37.8535 40.2395H37.7316V40.7299H37.8535H37.9755V40.2395H37.8535ZM37.8535 41.2202H37.7316V41.7106H37.8535H37.9755V41.2202H37.8535ZM37.8535 42.2009H37.7316V42.6912H37.8535H37.9755V42.2009H37.8535ZM37.8535 43.1816H37.7316V43.6719H37.8535H37.9755V43.1816H37.8535ZM37.8535 44.1623H37.7316V44.6526H37.8535H37.9755V44.1623H37.8535ZM37.8535 45.143H37.7316V45.6333H37.8535H37.9755V45.143H37.8535ZM37.8535 46.1237H37.7316V46.614H37.8535H37.9755V46.1237H37.8535ZM37.8535 47.1044H37.7316V47.5947H37.8535H37.9755V47.1044H37.8535ZM37.8535 48.085H37.7316V48.5754H37.8535H37.9755V48.085H37.8535ZM37.8535 49.0657H37.7316V49.5561H37.8535H37.9755V49.0657H37.8535ZM37.8535 50.0464H37.7316V50.5368H37.8535H37.9755V50.0464H37.8535ZM37.8535 51.0271H37.7316V51.5175H37.8535H37.9755V51.0271H37.8535ZM37.8535 52.0078H37.7316V52.4981H37.8535H37.9755V52.0078H37.8535ZM37.8535 52.9885H37.7316V53.4788H37.8535H37.9755V52.9885H37.8535ZM37.8535 53.9692H37.7316V54.4595H37.8535H37.9755V53.9692H37.8535ZM37.8535 54.9499H37.7316V55.4402H37.8535H37.9755V54.9499H37.8535ZM37.8535 55.9306H37.7316V56.4209H37.8535H37.9755V55.9306H37.8535ZM37.8535 56.9113H37.7316V57.4016H37.8535H37.9755V56.9113H37.8535ZM37.8535 57.8919H37.7316V58.3823H37.8535H37.9755V57.8919H37.8535ZM37.8535 58.8726H37.7316V59.363H37.8535H37.9755V58.8726H37.8535ZM37.8535 59.8533H37.7316V60.3437H37.8535H37.9755V59.8533H37.8535ZM37.8535 60.834H37.7316V61.3244H37.8535H37.9755V60.834H37.8535ZM37.8535 61.8147H37.7316V62.305H37.8535H37.9755V61.8147H37.8535ZM37.8535 62.7954H37.7316V63.2857H37.8535H37.9755V62.7954H37.8535ZM37.8535 63.7761H37.7316V64.2664H37.8535H37.9755V63.7761H37.8535ZM37.8535 64.7568H37.7316V65.2471H37.8535H37.9755V64.7568H37.8535ZM37.8535 65.7375H37.7316V66.2278H37.8535H37.9755V65.7375H37.8535ZM37.8535 66.7182H37.7316V67.2085H37.8535H37.9755V66.7182H37.8535ZM37.8535 67.6988H37.7316V68.1892H37.8535H37.9755V67.6988H37.8535ZM37.8535 68.6795H37.7316V68.9247H37.8535H37.9755V68.6795H37.8535Z" fill="#E0E0E0"/>
<path d="M45.7804 68.9247C45.7804 68.9921 45.835 69.0467 45.9023 69.0467C45.9697 69.0467 46.0243 68.9921 46.0243 68.9247H45.7804ZM45.9023 21.8516H45.7804V22.0967H45.9023H46.0243V21.8516H45.9023ZM45.9023 22.5871H45.7804V23.0774H45.9023H46.0243V22.5871H45.9023ZM45.9023 23.5678H45.7804V24.0581H45.9023H46.0243V23.5678H45.9023ZM45.9023 24.5485H45.7804V25.0388H45.9023H46.0243V24.5485H45.9023ZM45.9023 25.5292H45.7804V26.0195H45.9023H46.0243V25.5292H45.9023ZM45.9023 26.5098H45.7804V27.0002H45.9023H46.0243V26.5098H45.9023ZM45.9023 27.4905H45.7804V27.9809H45.9023H46.0243V27.4905H45.9023ZM45.9023 28.4712H45.7804V28.9616H45.9023H46.0243V28.4712H45.9023ZM45.9023 29.4519H45.7804V29.9423H45.9023H46.0243V29.4519H45.9023ZM45.9023 30.4326H45.7804V30.923H45.9023H46.0243V30.4326H45.9023ZM45.9023 31.4133H45.7804V31.9036H45.9023H46.0243V31.4133H45.9023ZM45.9023 32.394H45.7804V32.8843H45.9023H46.0243V32.394H45.9023ZM45.9023 33.3747H45.7804V33.865H45.9023H46.0243V33.3747H45.9023ZM45.9023 34.3554H45.7804V34.8457H45.9023H46.0243V34.3554H45.9023ZM45.9023 35.3361H45.7804V35.8264H45.9023H46.0243V35.3361H45.9023ZM45.9023 36.3168H45.7804V36.8071H45.9023H46.0243V36.3168H45.9023ZM45.9023 37.2975H45.7804V37.7878H45.9023H46.0243V37.2975H45.9023ZM45.9023 38.2781H45.7804V38.7685H45.9023H46.0243V38.2781H45.9023ZM45.9023 39.2588H45.7804V39.7492H45.9023H46.0243V39.2588H45.9023ZM45.9023 40.2395H45.7804V40.7299H45.9023H46.0243V40.2395H45.9023ZM45.9023 41.2202H45.7804V41.7106H45.9023H46.0243V41.2202H45.9023ZM45.9023 42.2009H45.7804V42.6912H45.9023H46.0243V42.2009H45.9023ZM45.9023 43.1816H45.7804V43.6719H45.9023H46.0243V43.1816H45.9023ZM45.9023 44.1623H45.7804V44.6526H45.9023H46.0243V44.1623H45.9023ZM45.9023 45.143H45.7804V45.6333H45.9023H46.0243V45.143H45.9023ZM45.9023 46.1237H45.7804V46.614H45.9023H46.0243V46.1237H45.9023ZM45.9023 47.1044H45.7804V47.5947H45.9023H46.0243V47.1044H45.9023ZM45.9023 48.085H45.7804V48.5754H45.9023H46.0243V48.085H45.9023ZM45.9023 49.0657H45.7804V49.5561H45.9023H46.0243V49.0657H45.9023ZM45.9023 50.0464H45.7804V50.5368H45.9023H46.0243V50.0464H45.9023ZM45.9023 51.0271H45.7804V51.5175H45.9023H46.0243V51.0271H45.9023ZM45.9023 52.0078H45.7804V52.4981H45.9023H46.0243V52.0078H45.9023ZM45.9023 52.9885H45.7804V53.4788H45.9023H46.0243V52.9885H45.9023ZM45.9023 53.9692H45.7804V54.4595H45.9023H46.0243V53.9692H45.9023ZM45.9023 54.9499H45.7804V55.4402H45.9023H46.0243V54.9499H45.9023ZM45.9023 55.9306H45.7804V56.4209H45.9023H46.0243V55.9306H45.9023ZM45.9023 56.9113H45.7804V57.4016H45.9023H46.0243V56.9113H45.9023ZM45.9023 57.8919H45.7804V58.3823H45.9023H46.0243V57.8919H45.9023ZM45.9023 58.8726H45.7804V59.363H45.9023H46.0243V58.8726H45.9023ZM45.9023 59.8533H45.7804V60.3437H45.9023H46.0243V59.8533H45.9023ZM45.9023 60.834H45.7804V61.3244H45.9023H46.0243V60.834H45.9023ZM45.9023 61.8147H45.7804V62.305H45.9023H46.0243V61.8147H45.9023ZM45.9023 62.7954H45.7804V63.2857H45.9023H46.0243V62.7954H45.9023ZM45.9023 63.7761H45.7804V64.2664H45.9023H46.0243V63.7761H45.9023ZM45.9023 64.7568H45.7804V65.2471H45.9023H46.0243V64.7568H45.9023ZM45.9023 65.7375H45.7804V66.2278H45.9023H46.0243V65.7375H45.9023ZM45.9023 66.7182H45.7804V67.2085H45.9023H46.0243V66.7182H45.9023ZM45.9023 67.6988H45.7804V68.1892H45.9023H46.0243V67.6988H45.9023ZM45.9023 68.6795H45.7804V68.9247H45.9023H46.0243V68.6795H45.9023Z" fill="#E0E0E0"/>
<path d="M53.8292 68.9247C53.8292 68.9921 53.8838 69.0467 53.9512 69.0467C54.0185 69.0467 54.0731 68.9921 54.0731 68.9247H53.8292ZM53.9512 21.8516H53.8292V22.0967H53.9512H54.0731V21.8516H53.9512ZM53.9512 22.5871H53.8292V23.0774H53.9512H54.0731V22.5871H53.9512ZM53.9512 23.5678H53.8292V24.0581H53.9512H54.0731V23.5678H53.9512ZM53.9512 24.5485H53.8292V25.0388H53.9512H54.0731V24.5485H53.9512ZM53.9512 25.5292H53.8292V26.0195H53.9512H54.0731V25.5292H53.9512ZM53.9512 26.5098H53.8292V27.0002H53.9512H54.0731V26.5098H53.9512ZM53.9512 27.4905H53.8292V27.9809H53.9512H54.0731V27.4905H53.9512ZM53.9512 28.4712H53.8292V28.9616H53.9512H54.0731V28.4712H53.9512ZM53.9512 29.4519H53.8292V29.9423H53.9512H54.0731V29.4519H53.9512ZM53.9512 30.4326H53.8292V30.923H53.9512H54.0731V30.4326H53.9512ZM53.9512 31.4133H53.8292V31.9036H53.9512H54.0731V31.4133H53.9512ZM53.9512 32.394H53.8292V32.8843H53.9512H54.0731V32.394H53.9512ZM53.9512 33.3747H53.8292V33.865H53.9512H54.0731V33.3747H53.9512ZM53.9512 34.3554H53.8292V34.8457H53.9512H54.0731V34.3554H53.9512ZM53.9512 35.3361H53.8292V35.8264H53.9512H54.0731V35.3361H53.9512ZM53.9512 36.3168H53.8292V36.8071H53.9512H54.0731V36.3168H53.9512ZM53.9512 37.2975H53.8292V37.7878H53.9512H54.0731V37.2975H53.9512ZM53.9512 38.2781H53.8292V38.7685H53.9512H54.0731V38.2781H53.9512ZM53.9512 39.2588H53.8292V39.7492H53.9512H54.0731V39.2588H53.9512ZM53.9512 40.2395H53.8292V40.7299H53.9512H54.0731V40.2395H53.9512ZM53.9512 41.2202H53.8292V41.7106H53.9512H54.0731V41.2202H53.9512ZM53.9512 42.2009H53.8292V42.6912H53.9512H54.0731V42.2009H53.9512ZM53.9512 43.1816H53.8292V43.6719H53.9512H54.0731V43.1816H53.9512ZM53.9512 44.1623H53.8292V44.6526H53.9512H54.0731V44.1623H53.9512ZM53.9512 45.143H53.8292V45.6333H53.9512H54.0731V45.143H53.9512ZM53.9512 46.1237H53.8292V46.614H53.9512H54.0731V46.1237H53.9512ZM53.9512 47.1044H53.8292V47.5947H53.9512H54.0731V47.1044H53.9512ZM53.9512 48.085H53.8292V48.5754H53.9512H54.0731V48.085H53.9512ZM53.9512 49.0657H53.8292V49.5561H53.9512H54.0731V49.0657H53.9512ZM53.9512 50.0464H53.8292V50.5368H53.9512H54.0731V50.0464H53.9512ZM53.9512 51.0271H53.8292V51.5175H53.9512H54.0731V51.0271H53.9512ZM53.9512 52.0078H53.8292V52.4981H53.9512H54.0731V52.0078H53.9512ZM53.9512 52.9885H53.8292V53.4788H53.9512H54.0731V52.9885H53.9512ZM53.9512 53.9692H53.8292V54.4595H53.9512H54.0731V53.9692H53.9512ZM53.9512 54.9499H53.8292V55.4402H53.9512H54.0731V54.9499H53.9512ZM53.9512 55.9306H53.8292V56.4209H53.9512H54.0731V55.9306H53.9512ZM53.9512 56.9113H53.8292V57.4016H53.9512H54.0731V56.9113H53.9512ZM53.9512 57.8919H53.8292V58.3823H53.9512H54.0731V57.8919H53.9512ZM53.9512 58.8726H53.8292V59.363H53.9512H54.0731V58.8726H53.9512ZM53.9512 59.8533H53.8292V60.3437H53.9512H54.0731V59.8533H53.9512ZM53.9512 60.834H53.8292V61.3244H53.9512H54.0731V60.834H53.9512ZM53.9512 61.8147H53.8292V62.305H53.9512H54.0731V61.8147H53.9512ZM53.9512 62.7954H53.8292V63.2857H53.9512H54.0731V62.7954H53.9512ZM53.9512 63.7761H53.8292V64.2664H53.9512H54.0731V63.7761H53.9512ZM53.9512 64.7568H53.8292V65.2471H53.9512H54.0731V64.7568H53.9512ZM53.9512 65.7375H53.8292V66.2278H53.9512H54.0731V65.7375H53.9512ZM53.9512 66.7182H53.8292V67.2085H53.9512H54.0731V66.7182H53.9512ZM53.9512 67.6988H53.8292V68.1892H53.9512H54.0731V67.6988H53.9512ZM53.9512 68.6795H53.8292V68.9247H53.9512H54.0731V68.6795H53.9512Z" fill="#E0E0E0"/>
<path d="M61.878 68.9247C61.878 68.9921 61.9326 69.0467 62 69.0467C62.0674 69.0467 62.122 68.9921 62.122 68.9247H61.878ZM62 21.8516H61.878V22.0967H62H62.122V21.8516H62ZM62 22.5871H61.878V23.0774H62H62.122V22.5871H62ZM62 23.5678H61.878V24.0581H62H62.122V23.5678H62ZM62 24.5485H61.878V25.0388H62H62.122V24.5485H62ZM62 25.5292H61.878V26.0195H62H62.122V25.5292H62ZM62 26.5098H61.878V27.0002H62H62.122V26.5098H62ZM62 27.4905H61.878V27.9809H62H62.122V27.4905H62ZM62 28.4712H61.878V28.9616H62H62.122V28.4712H62ZM62 29.4519H61.878V29.9423H62H62.122V29.4519H62ZM62 30.4326H61.878V30.923H62H62.122V30.4326H62ZM62 31.4133H61.878V31.9036H62H62.122V31.4133H62ZM62 32.394H61.878V32.8843H62H62.122V32.394H62ZM62 33.3747H61.878V33.865H62H62.122V33.3747H62ZM62 34.3554H61.878V34.8457H62H62.122V34.3554H62ZM62 35.3361H61.878V35.8264H62H62.122V35.3361H62ZM62 36.3168H61.878V36.8071H62H62.122V36.3168H62ZM62 37.2975H61.878V37.7878H62H62.122V37.2975H62ZM62 38.2781H61.878V38.7685H62H62.122V38.2781H62ZM62 39.2588H61.878V39.7492H62H62.122V39.2588H62ZM62 40.2395H61.878V40.7299H62H62.122V40.2395H62ZM62 41.2202H61.878V41.7106H62H62.122V41.2202H62ZM62 42.2009H61.878V42.6912H62H62.122V42.2009H62ZM62 43.1816H61.878V43.6719H62H62.122V43.1816H62ZM62 44.1623H61.878V44.6526H62H62.122V44.1623H62ZM62 45.143H61.878V45.6333H62H62.122V45.143H62ZM62 46.1237H61.878V46.614H62H62.122V46.1237H62ZM62 47.1044H61.878V47.5947H62H62.122V47.1044H62ZM62 48.085H61.878V48.5754H62H62.122V48.085H62ZM62 49.0657H61.878V49.5561H62H62.122V49.0657H62ZM62 50.0464H61.878V50.5368H62H62.122V50.0464H62ZM62 51.0271H61.878V51.5175H62H62.122V51.0271H62ZM62 52.0078H61.878V52.4981H62H62.122V52.0078H62ZM62 52.9885H61.878V53.4788H62H62.122V52.9885H62ZM62 53.9692H61.878V54.4595H62H62.122V53.9692H62ZM62 54.9499H61.878V55.4402H62H62.122V54.9499H62ZM62 55.9306H61.878V56.4209H62H62.122V55.9306H62ZM62 56.9113H61.878V57.4016H62H62.122V56.9113H62ZM62 57.8919H61.878V58.3823H62H62.122V57.8919H62ZM62 58.8726H61.878V59.363H62H62.122V58.8726H62ZM62 59.8533H61.878V60.3437H62H62.122V59.8533H62ZM62 60.834H61.878V61.3244H62H62.122V60.834H62ZM62 61.8147H61.878V62.305H62H62.122V61.8147H62ZM62 62.7954H61.878V63.2857H62H62.122V62.7954H62ZM62 63.7761H61.878V64.2664H62H62.122V63.7761H62ZM62 64.7568H61.878V65.2471H62H62.122V64.7568H62ZM62 65.7375H61.878V66.2278H62H62.122V65.7375H62ZM62 66.7182H61.878V67.2085H62H62.122V66.7182H62ZM62 67.6988H61.878V68.1892H62H62.122V67.6988H62ZM62 68.6795H61.878V68.9247H62H62.122V68.6795H62Z" fill="#E0E0E0"/>
<path d="M69.9269 68.9247C69.9269 68.9921 69.9815 69.0467 70.0488 69.0467C70.1162 69.0467 70.1708 68.9921 70.1708 68.9247H69.9269ZM70.0488 21.8516H69.9269V22.0967H70.0488H70.1708V21.8516H70.0488ZM70.0488 22.5871H69.9269V23.0774H70.0488H70.1708V22.5871H70.0488ZM70.0488 23.5678H69.9269V24.0581H70.0488H70.1708V23.5678H70.0488ZM70.0488 24.5485H69.9269V25.0388H70.0488H70.1708V24.5485H70.0488ZM70.0488 25.5292H69.9269V26.0195H70.0488H70.1708V25.5292H70.0488ZM70.0488 26.5098H69.9269V27.0002H70.0488H70.1708V26.5098H70.0488ZM70.0488 27.4905H69.9269V27.9809H70.0488H70.1708V27.4905H70.0488ZM70.0488 28.4712H69.9269V28.9616H70.0488H70.1708V28.4712H70.0488ZM70.0488 29.4519H69.9269V29.9423H70.0488H70.1708V29.4519H70.0488ZM70.0488 30.4326H69.9269V30.923H70.0488H70.1708V30.4326H70.0488ZM70.0488 31.4133H69.9269V31.9036H70.0488H70.1708V31.4133H70.0488ZM70.0488 32.394H69.9269V32.8843H70.0488H70.1708V32.394H70.0488ZM70.0488 33.3747H69.9269V33.865H70.0488H70.1708V33.3747H70.0488ZM70.0488 34.3554H69.9269V34.8457H70.0488H70.1708V34.3554H70.0488ZM70.0488 35.3361H69.9269V35.8264H70.0488H70.1708V35.3361H70.0488ZM70.0488 36.3168H69.9269V36.8071H70.0488H70.1708V36.3168H70.0488ZM70.0488 37.2975H69.9269V37.7878H70.0488H70.1708V37.2975H70.0488ZM70.0488 38.2781H69.9269V38.7685H70.0488H70.1708V38.2781H70.0488ZM70.0488 39.2588H69.9269V39.7492H70.0488H70.1708V39.2588H70.0488ZM70.0488 40.2395H69.9269V40.7299H70.0488H70.1708V40.2395H70.0488ZM70.0488 41.2202H69.9269V41.7106H70.0488H70.1708V41.2202H70.0488ZM70.0488 42.2009H69.9269V42.6912H70.0488H70.1708V42.2009H70.0488ZM70.0488 43.1816H69.9269V43.6719H70.0488H70.1708V43.1816H70.0488ZM70.0488 44.1623H69.9269V44.6526H70.0488H70.1708V44.1623H70.0488ZM70.0488 45.143H69.9269V45.6333H70.0488H70.1708V45.143H70.0488ZM70.0488 46.1237H69.9269V46.614H70.0488H70.1708V46.1237H70.0488ZM70.0488 47.1044H69.9269V47.5947H70.0488H70.1708V47.1044H70.0488ZM70.0488 48.085H69.9269V48.5754H70.0488H70.1708V48.085H70.0488ZM70.0488 49.0657H69.9269V49.5561H70.0488H70.1708V49.0657H70.0488ZM70.0488 50.0464H69.9269V50.5368H70.0488H70.1708V50.0464H70.0488ZM70.0488 51.0271H69.9269V51.5175H70.0488H70.1708V51.0271H70.0488ZM70.0488 52.0078H69.9269V52.4981H70.0488H70.1708V52.0078H70.0488ZM70.0488 52.9885H69.9269V53.4788H70.0488H70.1708V52.9885H70.0488ZM70.0488 53.9692H69.9269V54.4595H70.0488H70.1708V53.9692H70.0488ZM70.0488 54.9499H69.9269V55.4402H70.0488H70.1708V54.9499H70.0488ZM70.0488 55.9306H69.9269V56.4209H70.0488H70.1708V55.9306H70.0488ZM70.0488 56.9113H69.9269V57.4016H70.0488H70.1708V56.9113H70.0488ZM70.0488 57.8919H69.9269V58.3823H70.0488H70.1708V57.8919H70.0488ZM70.0488 58.8726H69.9269V59.363H70.0488H70.1708V58.8726H70.0488ZM70.0488 59.8533H69.9269V60.3437H70.0488H70.1708V59.8533H70.0488ZM70.0488 60.834H69.9269V61.3244H70.0488H70.1708V60.834H70.0488ZM70.0488 61.8147H69.9269V62.305H70.0488H70.1708V61.8147H70.0488ZM70.0488 62.7954H69.9269V63.2857H70.0488H70.1708V62.7954H70.0488ZM70.0488 63.7761H69.9269V64.2664H70.0488H70.1708V63.7761H70.0488ZM70.0488 64.7568H69.9269V65.2471H70.0488H70.1708V64.7568H70.0488ZM70.0488 65.7375H69.9269V66.2278H70.0488H70.1708V65.7375H70.0488ZM70.0488 66.7182H69.9269V67.2085H70.0488H70.1708V66.7182H70.0488ZM70.0488 67.6988H69.9269V68.1892H70.0488H70.1708V67.6988H70.0488ZM70.0488 68.6795H69.9269V68.9247H70.0488H70.1708V68.6795H70.0488Z" fill="#E0E0E0"/>
<path d="M77.9757 68.9247C77.9757 68.9921 78.0303 69.0467 78.0977 69.0467C78.165 69.0467 78.2196 68.9921 78.2196 68.9247H77.9757ZM78.0977 21.8516H77.9757V22.0967H78.0977H78.2196V21.8516H78.0977ZM78.0977 22.5871H77.9757V23.0774H78.0977H78.2196V22.5871H78.0977ZM78.0977 23.5678H77.9757V24.0581H78.0977H78.2196V23.5678H78.0977ZM78.0977 24.5485H77.9757V25.0388H78.0977H78.2196V24.5485H78.0977ZM78.0977 25.5292H77.9757V26.0195H78.0977H78.2196V25.5292H78.0977ZM78.0977 26.5098H77.9757V27.0002H78.0977H78.2196V26.5098H78.0977ZM78.0977 27.4905H77.9757V27.9809H78.0977H78.2196V27.4905H78.0977ZM78.0977 28.4712H77.9757V28.9616H78.0977H78.2196V28.4712H78.0977ZM78.0977 29.4519H77.9757V29.9423H78.0977H78.2196V29.4519H78.0977ZM78.0977 30.4326H77.9757V30.923H78.0977H78.2196V30.4326H78.0977ZM78.0977 31.4133H77.9757V31.9036H78.0977H78.2196V31.4133H78.0977ZM78.0977 32.394H77.9757V32.8843H78.0977H78.2196V32.394H78.0977ZM78.0977 33.3747H77.9757V33.865H78.0977H78.2196V33.3747H78.0977ZM78.0977 34.3554H77.9757V34.8457H78.0977H78.2196V34.3554H78.0977ZM78.0977 35.3361H77.9757V35.8264H78.0977H78.2196V35.3361H78.0977ZM78.0977 36.3168H77.9757V36.8071H78.0977H78.2196V36.3168H78.0977ZM78.0977 37.2975H77.9757V37.7878H78.0977H78.2196V37.2975H78.0977ZM78.0977 38.2781H77.9757V38.7685H78.0977H78.2196V38.2781H78.0977ZM78.0977 39.2588H77.9757V39.7492H78.0977H78.2196V39.2588H78.0977ZM78.0977 40.2395H77.9757V40.7299H78.0977H78.2196V40.2395H78.0977ZM78.0977 41.2202H77.9757V41.7106H78.0977H78.2196V41.2202H78.0977ZM78.0977 42.2009H77.9757V42.6912H78.0977H78.2196V42.2009H78.0977ZM78.0977 43.1816H77.9757V43.6719H78.0977H78.2196V43.1816H78.0977ZM78.0977 44.1623H77.9757V44.6526H78.0977H78.2196V44.1623H78.0977ZM78.0977 45.143H77.9757V45.6333H78.0977H78.2196V45.143H78.0977ZM78.0977 46.1237H77.9757V46.614H78.0977H78.2196V46.1237H78.0977ZM78.0977 47.1044H77.9757V47.5947H78.0977H78.2196V47.1044H78.0977ZM78.0977 48.085H77.9757V48.5754H78.0977H78.2196V48.085H78.0977ZM78.0977 49.0657H77.9757V49.5561H78.0977H78.2196V49.0657H78.0977ZM78.0977 50.0464H77.9757V50.5368H78.0977H78.2196V50.0464H78.0977ZM78.0977 51.0271H77.9757V51.5175H78.0977H78.2196V51.0271H78.0977ZM78.0977 52.0078H77.9757V52.4981H78.0977H78.2196V52.0078H78.0977ZM78.0977 52.9885H77.9757V53.4788H78.0977H78.2196V52.9885H78.0977ZM78.0977 53.9692H77.9757V54.4595H78.0977H78.2196V53.9692H78.0977ZM78.0977 54.9499H77.9757V55.4402H78.0977H78.2196V54.9499H78.0977ZM78.0977 55.9306H77.9757V56.4209H78.0977H78.2196V55.9306H78.0977ZM78.0977 56.9113H77.9757V57.4016H78.0977H78.2196V56.9113H78.0977ZM78.0977 57.8919H77.9757V58.3823H78.0977H78.2196V57.8919H78.0977ZM78.0977 58.8726H77.9757V59.363H78.0977H78.2196V58.8726H78.0977ZM78.0977 59.8533H77.9757V60.3437H78.0977H78.2196V59.8533H78.0977ZM78.0977 60.834H77.9757V61.3244H78.0977H78.2196V60.834H78.0977ZM78.0977 61.8147H77.9757V62.305H78.0977H78.2196V61.8147H78.0977ZM78.0977 62.7954H77.9757V63.2857H78.0977H78.2196V62.7954H78.0977ZM78.0977 63.7761H77.9757V64.2664H78.0977H78.2196V63.7761H78.0977ZM78.0977 64.7568H77.9757V65.2471H78.0977H78.2196V64.7568H78.0977ZM78.0977 65.7375H77.9757V66.2278H78.0977H78.2196V65.7375H78.0977ZM78.0977 66.7182H77.9757V67.2085H78.0977H78.2196V66.7182H78.0977ZM78.0977 67.6988H77.9757V68.1892H78.0977H78.2196V67.6988H78.0977ZM78.0977 68.6795H77.9757V68.9247H78.0977H78.2196V68.6795H78.0977Z" fill="#E0E0E0"/>
<path d="M15.8589 23.8516H14.9462V23.7191L15.3187 23.3409C15.3879 23.271 15.446 23.2088 15.493 23.1542C15.5407 23.0995 15.5769 23.0459 15.6017 22.9931C15.6264 22.9398 15.6388 22.8814 15.6388 22.8178C15.6388 22.7391 15.6153 22.6791 15.5683 22.6378C15.5219 22.5958 15.4607 22.5749 15.3844 22.5749C15.3177 22.5749 15.2587 22.5863 15.2072 22.6092C15.1558 22.6321 15.1031 22.6644 15.0491 22.7064L14.9643 22.5997C15.0011 22.5685 15.0411 22.5409 15.0843 22.5168C15.1281 22.4926 15.1748 22.4736 15.2244 22.4596C15.2745 22.4456 15.3279 22.4386 15.3844 22.4386C15.4702 22.4386 15.5442 22.4536 15.6064 22.4834C15.6687 22.5133 15.7166 22.5558 15.7503 22.6111C15.7846 22.6663 15.8017 22.7321 15.8017 22.8083C15.8017 22.882 15.7871 22.9506 15.7579 23.0141C15.7287 23.077 15.6877 23.1395 15.635 23.2018C15.5823 23.2634 15.5207 23.3288 15.4502 23.3981L15.1472 23.7001V23.7067H15.8589V23.8516ZM16.503 22.9998C16.5976 22.9998 16.6798 23.016 16.7497 23.0484C16.8196 23.0802 16.8736 23.1265 16.9117 23.1875C16.9504 23.2485 16.9698 23.3225 16.9698 23.4095C16.9698 23.5048 16.9492 23.587 16.9079 23.6563C16.8666 23.7248 16.8072 23.7779 16.7297 23.8154C16.6522 23.8522 16.5595 23.8706 16.4515 23.8706C16.3791 23.8706 16.3118 23.8643 16.2495 23.8516C16.1873 23.8389 16.1349 23.8198 16.0923 23.7944V23.6439C16.1387 23.6718 16.1949 23.694 16.261 23.7106C16.327 23.7271 16.3912 23.7353 16.4534 23.7353C16.5239 23.7353 16.5855 23.7242 16.6382 23.702C16.6916 23.6791 16.7329 23.6448 16.7621 23.5991C16.792 23.5527 16.8069 23.4946 16.8069 23.4247C16.8069 23.332 16.7783 23.2605 16.7211 23.2104C16.6646 23.1596 16.575 23.1341 16.4525 23.1341C16.4131 23.1341 16.3699 23.1373 16.3229 23.1437C16.2759 23.15 16.2371 23.157 16.2067 23.1646L16.1266 23.1122L16.18 22.4587H16.8726V22.6035H16.3153L16.28 23.0236C16.3041 23.0185 16.3353 23.0135 16.3734 23.0084C16.4115 23.0027 16.4547 22.9998 16.503 22.9998ZM18.0998 23.1532C18.0998 23.2663 18.0912 23.3673 18.074 23.4562C18.0569 23.5451 18.0299 23.6204 17.993 23.682C17.9562 23.7436 17.9086 23.7906 17.8501 23.823C17.7917 23.8547 17.7215 23.8706 17.6396 23.8706C17.536 23.8706 17.4503 23.8424 17.3823 23.7858C17.315 23.7293 17.2645 23.6477 17.2309 23.541C17.1978 23.4336 17.1813 23.3044 17.1813 23.1532C17.1813 23.0046 17.1962 22.8769 17.2261 22.7702C17.2566 22.6629 17.3055 22.5806 17.3728 22.5234C17.4401 22.4656 17.5291 22.4367 17.6396 22.4367C17.7444 22.4367 17.8308 22.4653 17.8987 22.5225C17.9667 22.579 18.0172 22.661 18.0502 22.7683C18.0832 22.875 18.0998 23.0033 18.0998 23.1532ZM17.3404 23.1532C17.3404 23.2828 17.3503 23.3908 17.37 23.4771C17.3896 23.5635 17.4214 23.6283 17.4652 23.6715C17.5097 23.714 17.5678 23.7353 17.6396 23.7353C17.7114 23.7353 17.7692 23.714 17.813 23.6715C17.8574 23.6289 17.8895 23.5645 17.9092 23.4781C17.9295 23.3917 17.9397 23.2834 17.9397 23.1532C17.9397 23.0255 17.9298 22.9188 17.9102 22.8331C17.8905 22.7467 17.8587 22.6819 17.8149 22.6387C17.7711 22.5949 17.7126 22.573 17.6396 22.573C17.5665 22.573 17.5081 22.5949 17.4643 22.6387C17.4204 22.6819 17.3887 22.7467 17.369 22.8331C17.3499 22.9188 17.3404 23.0255 17.3404 23.1532ZM19.2164 23.1532C19.2164 23.2663 19.2078 23.3673 19.1906 23.4562C19.1735 23.5451 19.1465 23.6204 19.1097 23.682C19.0728 23.7436 19.0252 23.7906 18.9667 23.823C18.9083 23.8547 18.8381 23.8706 18.7562 23.8706C18.6527 23.8706 18.5669 23.8424 18.499 23.7858C18.4316 23.7293 18.3811 23.6477 18.3475 23.541C18.3144 23.4336 18.2979 23.3044 18.2979 23.1532C18.2979 23.0046 18.3128 22.8769 18.3427 22.7702C18.3732 22.6629 18.4221 22.5806 18.4894 22.5234C18.5568 22.4656 18.6457 22.4367 18.7562 22.4367C18.861 22.4367 18.9474 22.4653 19.0153 22.5225C19.0833 22.579 19.1338 22.661 19.1668 22.7683C19.1999 22.875 19.2164 23.0033 19.2164 23.1532ZM18.457 23.1532C18.457 23.2828 18.4669 23.3908 18.4866 23.4771C18.5063 23.5635 18.538 23.6283 18.5818 23.6715C18.6263 23.714 18.6844 23.7353 18.7562 23.7353C18.828 23.7353 18.8858 23.714 18.9296 23.6715C18.9741 23.6289 19.0061 23.5645 19.0258 23.4781C19.0461 23.3917 19.0563 23.2834 19.0563 23.1532C19.0563 23.0255 19.0465 22.9188 19.0268 22.8331C19.0071 22.7467 18.9753 22.6819 18.9315 22.6387C18.8877 22.5949 18.8292 22.573 18.7562 22.573C18.6831 22.573 18.6247 22.5949 18.5809 22.6387C18.5371 22.6819 18.5053 22.7467 18.4856 22.8331C18.4666 22.9188 18.457 23.0255 18.457 23.1532Z" fill="#212121"/>
<path d="M15.8589 31.2422H14.9462V31.1098L15.3187 30.7315C15.3879 30.6616 15.446 30.5994 15.493 30.5448C15.5407 30.4902 15.5769 30.4365 15.6017 30.3838C15.6264 30.3304 15.6388 30.272 15.6388 30.2085C15.6388 30.1297 15.6153 30.0697 15.5683 30.0284C15.5219 29.9865 15.4607 29.9655 15.3844 29.9655C15.3177 29.9655 15.2587 29.9769 15.2072 29.9998C15.1558 30.0227 15.1031 30.0551 15.0491 30.097L14.9643 29.9903C15.0011 29.9592 15.0411 29.9315 15.0843 29.9074C15.1281 29.8833 15.1748 29.8642 15.2244 29.8502C15.2745 29.8363 15.3279 29.8293 15.3844 29.8293C15.4702 29.8293 15.5442 29.8442 15.6064 29.874C15.6687 29.9039 15.7166 29.9465 15.7503 30.0017C15.7846 30.057 15.8017 30.1227 15.8017 30.1989C15.8017 30.2726 15.7871 30.3412 15.7579 30.4047C15.7287 30.4676 15.6877 30.5302 15.635 30.5924C15.5823 30.654 15.5207 30.7194 15.4502 30.7887L15.1472 31.0907V31.0974H15.8589V31.2422ZM16.9831 30.5438C16.9831 30.6569 16.9746 30.7579 16.9574 30.8468C16.9403 30.9357 16.9133 31.011 16.8764 31.0726C16.8396 31.1342 16.792 31.1812 16.7335 31.2136C16.6751 31.2454 16.6049 31.2612 16.523 31.2612C16.4194 31.2612 16.3337 31.233 16.2657 31.1764C16.1984 31.1199 16.1479 31.0383 16.1142 30.9316C16.0812 30.8243 16.0647 30.695 16.0647 30.5438C16.0647 30.3952 16.0796 30.2675 16.1095 30.1608C16.14 30.0535 16.1889 29.9712 16.2562 29.9141C16.3235 29.8563 16.4124 29.8274 16.523 29.8274C16.6278 29.8274 16.7141 29.8559 16.7821 29.9131C16.8501 29.9696 16.9006 30.0516 16.9336 30.1589C16.9666 30.2656 16.9831 30.3939 16.9831 30.5438ZM16.2238 30.5438C16.2238 30.6734 16.2336 30.7814 16.2533 30.8678C16.273 30.9541 16.3048 31.0189 16.3486 31.0621C16.3931 31.1047 16.4512 31.126 16.523 31.126C16.5947 31.126 16.6525 31.1047 16.6964 31.0621C16.7408 31.0196 16.7729 30.9551 16.7926 30.8687C16.8129 30.7823 16.8231 30.674 16.8231 30.5438C16.8231 30.4162 16.8132 30.3095 16.7935 30.2237C16.7739 30.1373 16.7421 30.0725 16.6983 30.0293C16.6544 29.9855 16.596 29.9636 16.523 29.9636C16.4499 29.9636 16.3915 29.9855 16.3477 30.0293C16.3038 30.0725 16.2721 30.1373 16.2524 30.2237C16.2333 30.3095 16.2238 30.4162 16.2238 30.5438ZM18.0998 30.5438C18.0998 30.6569 18.0912 30.7579 18.074 30.8468C18.0569 30.9357 18.0299 31.011 17.993 31.0726C17.9562 31.1342 17.9086 31.1812 17.8501 31.2136C17.7917 31.2454 17.7215 31.2612 17.6396 31.2612C17.536 31.2612 17.4503 31.233 17.3823 31.1764C17.315 31.1199 17.2645 31.0383 17.2309 30.9316C17.1978 30.8243 17.1813 30.695 17.1813 30.5438C17.1813 30.3952 17.1962 30.2675 17.2261 30.1608C17.2566 30.0535 17.3055 29.9712 17.3728 29.9141C17.4401 29.8563 17.5291 29.8274 17.6396 29.8274C17.7444 29.8274 17.8308 29.8559 17.8987 29.9131C17.9667 29.9696 18.0172 30.0516 18.0502 30.1589C18.0832 30.2656 18.0998 30.3939 18.0998 30.5438ZM17.3404 30.5438C17.3404 30.6734 17.3503 30.7814 17.37 30.8678C17.3896 30.9541 17.4214 31.0189 17.4652 31.0621C17.5097 31.1047 17.5678 31.126 17.6396 31.126C17.7114 31.126 17.7692 31.1047 17.813 31.0621C17.8574 31.0196 17.8895 30.9551 17.9092 30.8687C17.9295 30.7823 17.9397 30.674 17.9397 30.5438C17.9397 30.4162 17.9298 30.3095 17.9102 30.2237C17.8905 30.1373 17.8587 30.0725 17.8149 30.0293C17.7711 29.9855 17.7126 29.9636 17.6396 29.9636C17.5665 29.9636 17.5081 29.9855 17.4643 30.0293C17.4204 30.0725 17.3887 30.1373 17.369 30.2237C17.3499 30.3095 17.3404 30.4162 17.3404 30.5438ZM19.2164 30.5438C19.2164 30.6569 19.2078 30.7579 19.1906 30.8468C19.1735 30.9357 19.1465 31.011 19.1097 31.0726C19.0728 31.1342 19.0252 31.1812 18.9667 31.2136C18.9083 31.2454 18.8381 31.2612 18.7562 31.2612C18.6527 31.2612 18.5669 31.233 18.499 31.1764C18.4316 31.1199 18.3811 31.0383 18.3475 30.9316C18.3144 30.8243 18.2979 30.695 18.2979 30.5438C18.2979 30.3952 18.3128 30.2675 18.3427 30.1608C18.3732 30.0535 18.4221 29.9712 18.4894 29.9141C18.5568 29.8563 18.6457 29.8274 18.7562 29.8274C18.861 29.8274 18.9474 29.8559 19.0153 29.9131C19.0833 29.9696 19.1338 30.0516 19.1668 30.1589C19.1999 30.2656 19.2164 30.3939 19.2164 30.5438ZM18.457 30.5438C18.457 30.6734 18.4669 30.7814 18.4866 30.8678C18.5063 30.9541 18.538 31.0189 18.5818 31.0621C18.6263 31.1047 18.6844 31.126 18.7562 31.126C18.828 31.126 18.8858 31.1047 18.9296 31.0621C18.9741 31.0196 19.0061 30.9551 19.0258 30.8687C19.0461 30.7823 19.0563 30.674 19.0563 30.5438C19.0563 30.4162 19.0465 30.3095 19.0268 30.2237C19.0071 30.1373 18.9753 30.0725 18.9315 30.0293C18.8877 29.9855 18.8292 29.9636 18.7562 29.9636C18.6831 29.9636 18.6247 29.9855 18.5809 30.0293C18.5371 30.0725 18.5053 30.1373 18.4856 30.2237C18.4666 30.3095 18.457 30.4162 18.457 30.5438Z" fill="#212121"/>
<path d="M15.535 38.6328H15.3806V37.6458C15.3806 37.6083 15.3806 37.5762 15.3806 37.5495C15.3813 37.5222 15.3819 37.4975 15.3825 37.4752C15.3838 37.4524 15.3854 37.4292 15.3873 37.4057C15.3676 37.426 15.3492 37.4435 15.332 37.4581C15.3149 37.4721 15.2936 37.4895 15.2682 37.5105L15.1091 37.6381L15.0262 37.5305L15.4035 37.2399H15.535V38.6328ZM16.503 37.7811C16.5976 37.7811 16.6798 37.7973 16.7497 37.8296C16.8196 37.8614 16.8736 37.9078 16.9117 37.9688C16.9504 38.0297 16.9698 38.1037 16.9698 38.1907C16.9698 38.286 16.9492 38.3683 16.9079 38.4375C16.8666 38.5061 16.8072 38.5591 16.7297 38.5966C16.6522 38.6334 16.5595 38.6519 16.4515 38.6519C16.3791 38.6519 16.3118 38.6455 16.2495 38.6328C16.1873 38.6201 16.1349 38.6011 16.0923 38.5756V38.4251C16.1387 38.4531 16.1949 38.4753 16.261 38.4918C16.327 38.5083 16.3912 38.5166 16.4534 38.5166C16.5239 38.5166 16.5855 38.5055 16.6382 38.4832C16.6916 38.4604 16.7329 38.4261 16.7621 38.3803C16.792 38.334 16.8069 38.2759 16.8069 38.206C16.8069 38.1132 16.7783 38.0418 16.7211 37.9916C16.6646 37.9408 16.575 37.9154 16.4525 37.9154C16.4131 37.9154 16.3699 37.9186 16.3229 37.9249C16.2759 37.9313 16.2371 37.9383 16.2067 37.9459L16.1266 37.8935L16.18 37.2399H16.8726V37.3847H16.3153L16.28 37.8049C16.3041 37.7998 16.3353 37.7947 16.3734 37.7896C16.4115 37.7839 16.4547 37.7811 16.503 37.7811ZM18.0998 37.9345C18.0998 38.0475 18.0912 38.1485 18.074 38.2374C18.0569 38.3263 18.0299 38.4016 17.993 38.4632C17.9562 38.5248 17.9086 38.5718 17.8501 38.6042C17.7917 38.636 17.7215 38.6519 17.6396 38.6519C17.536 38.6519 17.4503 38.6236 17.3823 38.5671C17.315 38.5105 17.2645 38.4289 17.2309 38.3222C17.1978 38.2149 17.1813 38.0856 17.1813 37.9345C17.1813 37.7858 17.1962 37.6582 17.2261 37.5514C17.2566 37.4441 17.3055 37.3619 17.3728 37.3047C17.4401 37.2469 17.5291 37.218 17.6396 37.218C17.7444 37.218 17.8308 37.2466 17.8987 37.3037C17.9667 37.3603 18.0172 37.4422 18.0502 37.5495C18.0832 37.6563 18.0998 37.7846 18.0998 37.9345ZM17.3404 37.9345C17.3404 38.064 17.3503 38.172 17.37 38.2584C17.3896 38.3448 17.4214 38.4096 17.4652 38.4527C17.5097 38.4953 17.5678 38.5166 17.6396 38.5166C17.7114 38.5166 17.7692 38.4953 17.813 38.4527C17.8574 38.4102 17.8895 38.3457 17.9092 38.2593C17.9295 38.173 17.9397 38.0647 17.9397 37.9345C17.9397 37.8068 17.9298 37.7001 17.9102 37.6143C17.8905 37.5279 17.8587 37.4632 17.8149 37.42C17.7711 37.3761 17.7126 37.3542 17.6396 37.3542C17.5665 37.3542 17.5081 37.3761 17.4643 37.42C17.4204 37.4632 17.3887 37.5279 17.369 37.6143C17.3499 37.7001 17.3404 37.8068 17.3404 37.9345ZM19.2164 37.9345C19.2164 38.0475 19.2078 38.1485 19.1906 38.2374C19.1735 38.3263 19.1465 38.4016 19.1097 38.4632C19.0728 38.5248 19.0252 38.5718 18.9667 38.6042C18.9083 38.636 18.8381 38.6519 18.7562 38.6519C18.6527 38.6519 18.5669 38.6236 18.499 38.5671C18.4316 38.5105 18.3811 38.4289 18.3475 38.3222C18.3144 38.2149 18.2979 38.0856 18.2979 37.9345C18.2979 37.7858 18.3128 37.6582 18.3427 37.5514C18.3732 37.4441 18.4221 37.3619 18.4894 37.3047C18.5568 37.2469 18.6457 37.218 18.7562 37.218C18.861 37.218 18.9474 37.2466 19.0153 37.3037C19.0833 37.3603 19.1338 37.4422 19.1668 37.5495C19.1999 37.6563 19.2164 37.7846 19.2164 37.9345ZM18.457 37.9345C18.457 38.064 18.4669 38.172 18.4866 38.2584C18.5063 38.3448 18.538 38.4096 18.5818 38.4527C18.6263 38.4953 18.6844 38.5166 18.7562 38.5166C18.828 38.5166 18.8858 38.4953 18.9296 38.4527C18.9741 38.4102 19.0061 38.3457 19.0258 38.2593C19.0461 38.173 19.0563 38.0647 19.0563 37.9345C19.0563 37.8068 19.0465 37.7001 19.0268 37.6143C19.0071 37.5279 18.9753 37.4632 18.9315 37.42C18.8877 37.3761 18.8292 37.3542 18.7562 37.3542C18.6831 37.3542 18.6247 37.3761 18.5809 37.42C18.5371 37.4632 18.5053 37.5279 18.4856 37.6143C18.4666 37.7001 18.457 37.8068 18.457 37.9345Z" fill="#212121"/>
<path d="M15.535 46.0234H15.3806V45.0364C15.3806 44.9989 15.3806 44.9668 15.3806 44.9402C15.3813 44.9129 15.3819 44.8881 15.3825 44.8659C15.3838 44.843 15.3854 44.8198 15.3873 44.7963C15.3676 44.8166 15.3492 44.8341 15.332 44.8487C15.3149 44.8627 15.2936 44.8801 15.2682 44.9011L15.1091 45.0288L15.0262 44.9211L15.4035 44.6305H15.535V46.0234ZM16.9831 45.3251C16.9831 45.4381 16.9746 45.5391 16.9574 45.628C16.9403 45.717 16.9133 45.7922 16.8764 45.8538C16.8396 45.9155 16.792 45.9625 16.7335 45.9949C16.6751 46.0266 16.6049 46.0425 16.523 46.0425C16.4194 46.0425 16.3337 46.0142 16.2657 45.9577C16.1984 45.9012 16.1479 45.8196 16.1142 45.7128C16.0812 45.6055 16.0647 45.4762 16.0647 45.3251C16.0647 45.1764 16.0796 45.0488 16.1095 44.9421C16.14 44.8347 16.1889 44.7525 16.2562 44.6953C16.3235 44.6375 16.4124 44.6086 16.523 44.6086C16.6278 44.6086 16.7141 44.6372 16.7821 44.6944C16.8501 44.7509 16.9006 44.8328 16.9336 44.9402C16.9666 45.0469 16.9831 45.1752 16.9831 45.3251ZM16.2238 45.3251C16.2238 45.4546 16.2336 45.5626 16.2533 45.649C16.273 45.7354 16.3048 45.8002 16.3486 45.8434C16.3931 45.8859 16.4512 45.9072 16.523 45.9072C16.5947 45.9072 16.6525 45.8859 16.6964 45.8434C16.7408 45.8008 16.7729 45.7363 16.7926 45.65C16.8129 45.5636 16.8231 45.4553 16.8231 45.3251C16.8231 45.1974 16.8132 45.0907 16.7935 45.005C16.7739 44.9186 16.7421 44.8538 16.6983 44.8106C16.6544 44.7668 16.596 44.7449 16.523 44.7449C16.4499 44.7449 16.3915 44.7668 16.3477 44.8106C16.3038 44.8538 16.2721 44.9186 16.2524 45.005C16.2333 45.0907 16.2238 45.1974 16.2238 45.3251ZM18.0998 45.3251C18.0998 45.4381 18.0912 45.5391 18.074 45.628C18.0569 45.717 18.0299 45.7922 17.993 45.8538C17.9562 45.9155 17.9086 45.9625 17.8501 45.9949C17.7917 46.0266 17.7215 46.0425 17.6396 46.0425C17.536 46.0425 17.4503 46.0142 17.3823 45.9577C17.315 45.9012 17.2645 45.8196 17.2309 45.7128C17.1978 45.6055 17.1813 45.4762 17.1813 45.3251C17.1813 45.1764 17.1962 45.0488 17.2261 44.9421C17.2566 44.8347 17.3055 44.7525 17.3728 44.6953C17.4401 44.6375 17.5291 44.6086 17.6396 44.6086C17.7444 44.6086 17.8308 44.6372 17.8987 44.6944C17.9667 44.7509 18.0172 44.8328 18.0502 44.9402C18.0832 45.0469 18.0998 45.1752 18.0998 45.3251ZM17.3404 45.3251C17.3404 45.4546 17.3503 45.5626 17.37 45.649C17.3896 45.7354 17.4214 45.8002 17.4652 45.8434C17.5097 45.8859 17.5678 45.9072 17.6396 45.9072C17.7114 45.9072 17.7692 45.8859 17.813 45.8434C17.8574 45.8008 17.8895 45.7363 17.9092 45.65C17.9295 45.5636 17.9397 45.4553 17.9397 45.3251C17.9397 45.1974 17.9298 45.0907 17.9102 45.005C17.8905 44.9186 17.8587 44.8538 17.8149 44.8106C17.7711 44.7668 17.7126 44.7449 17.6396 44.7449C17.5665 44.7449 17.5081 44.7668 17.4643 44.8106C17.4204 44.8538 17.3887 44.9186 17.369 45.005C17.3499 45.0907 17.3404 45.1974 17.3404 45.3251ZM19.2164 45.3251C19.2164 45.4381 19.2078 45.5391 19.1906 45.628C19.1735 45.717 19.1465 45.7922 19.1097 45.8538C19.0728 45.9155 19.0252 45.9625 18.9667 45.9949C18.9083 46.0266 18.8381 46.0425 18.7562 46.0425C18.6527 46.0425 18.5669 46.0142 18.499 45.9577C18.4316 45.9012 18.3811 45.8196 18.3475 45.7128C18.3144 45.6055 18.2979 45.4762 18.2979 45.3251C18.2979 45.1764 18.3128 45.0488 18.3427 44.9421C18.3732 44.8347 18.4221 44.7525 18.4894 44.6953C18.5568 44.6375 18.6457 44.6086 18.7562 44.6086C18.861 44.6086 18.9474 44.6372 19.0153 44.6944C19.0833 44.7509 19.1338 44.8328 19.1668 44.9402C19.1999 45.0469 19.2164 45.1752 19.2164 45.3251ZM18.457 45.3251C18.457 45.4546 18.4669 45.5626 18.4866 45.649C18.5063 45.7354 18.538 45.8002 18.5818 45.8434C18.6263 45.8859 18.6844 45.9072 18.7562 45.9072C18.828 45.9072 18.8858 45.8859 18.9296 45.8434C18.9741 45.8008 19.0061 45.7363 19.0258 45.65C19.0461 45.5636 19.0563 45.4553 19.0563 45.3251C19.0563 45.1974 19.0465 45.0907 19.0268 45.005C19.0071 44.9186 18.9753 44.8538 18.9315 44.8106C18.8877 44.7668 18.8292 44.7449 18.7562 44.7449C18.6831 44.7449 18.6247 44.7668 18.5809 44.8106C18.5371 44.8538 18.5053 44.9186 18.4856 45.005C18.4666 45.0907 18.457 45.1974 18.457 45.3251Z" fill="#212121"/>
<path d="M16.5034 52.5623C16.598 52.5623 16.6803 52.5785 16.7501 52.6109C16.82 52.6427 16.874 52.689 16.9121 52.75C16.9508 52.811 16.9702 52.885 16.9702 52.972C16.9702 53.0673 16.9496 53.1495 16.9083 53.2188C16.867 53.2873 16.8076 53.3404 16.7301 53.3779C16.6526 53.4147 16.5599 53.4331 16.4519 53.4331C16.3795 53.4331 16.3122 53.4268 16.2499 53.4141C16.1877 53.4014 16.1353 53.3823 16.0927 53.3569V53.2064C16.1391 53.2343 16.1953 53.2565 16.2614 53.2731C16.3274 53.2896 16.3916 53.2978 16.4538 53.2978C16.5243 53.2978 16.5859 53.2867 16.6386 53.2645C16.692 53.2416 16.7333 53.2073 16.7625 53.1616C16.7924 53.1152 16.8073 53.0571 16.8073 52.9872C16.8073 52.8945 16.7787 52.823 16.7215 52.7729C16.665 52.7221 16.5754 52.6966 16.4529 52.6966C16.4135 52.6966 16.3703 52.6998 16.3233 52.7062C16.2763 52.7125 16.2375 52.7195 16.2071 52.7271L16.127 52.6747L16.1804 52.0212H16.873V52.166H16.3157L16.2804 52.5861C16.3046 52.581 16.3357 52.576 16.3738 52.5709C16.4119 52.5652 16.4551 52.5623 16.5034 52.5623ZM18.1002 52.7157C18.1002 52.8288 18.0916 52.9298 18.0744 53.0187C18.0573 53.1076 18.0303 53.1829 17.9934 53.2445C17.9566 53.3061 17.909 53.3531 17.8505 53.3855C17.7921 53.4172 17.7219 53.4331 17.64 53.4331C17.5365 53.4331 17.4507 53.4049 17.3827 53.3483C17.3154 53.2918 17.2649 53.2102 17.2313 53.1035C17.1982 52.9961 17.1817 52.8669 17.1817 52.7157C17.1817 52.5671 17.1966 52.4394 17.2265 52.3327C17.257 52.2254 17.3059 52.1431 17.3732 52.0859C17.4405 52.0281 17.5295 51.9992 17.64 51.9992C17.7448 51.9992 17.8312 52.0278 17.8991 52.085C17.9671 52.1415 18.0176 52.2235 18.0506 52.3308C18.0836 52.4375 18.1002 52.5658 18.1002 52.7157ZM17.3408 52.7157C17.3408 52.8453 17.3507 52.9533 17.3704 53.0396C17.39 53.126 17.4218 53.1908 17.4656 53.234C17.5101 53.2765 17.5682 53.2978 17.64 53.2978C17.7118 53.2978 17.7696 53.2765 17.8134 53.234C17.8578 53.1914 17.8899 53.127 17.9096 53.0406C17.9299 52.9542 17.9401 52.8459 17.9401 52.7157C17.9401 52.588 17.9303 52.4813 17.9106 52.3956C17.8909 52.3092 17.8591 52.2444 17.8153 52.2012C17.7715 52.1574 17.713 52.1355 17.64 52.1355C17.5669 52.1355 17.5085 52.1574 17.4647 52.2012C17.4209 52.2444 17.3891 52.3092 17.3694 52.3956C17.3503 52.4813 17.3408 52.588 17.3408 52.7157ZM19.2168 52.7157C19.2168 52.8288 19.2082 52.9298 19.191 53.0187C19.1739 53.1076 19.1469 53.1829 19.1101 53.2445C19.0732 53.3061 19.0256 53.3531 18.9672 53.3855C18.9087 53.4172 18.8385 53.4331 18.7566 53.4331C18.6531 53.4331 18.5673 53.4049 18.4994 53.3483C18.432 53.2918 18.3815 53.2102 18.3479 53.1035C18.3148 52.9961 18.2983 52.8669 18.2983 52.7157C18.2983 52.5671 18.3133 52.4394 18.3431 52.3327C18.3736 52.2254 18.4225 52.1431 18.4898 52.0859C18.5572 52.0281 18.6461 51.9992 18.7566 51.9992C18.8614 51.9992 18.9478 52.0278 19.0157 52.085C19.0837 52.1415 19.1342 52.2235 19.1672 52.3308C19.2003 52.4375 19.2168 52.5658 19.2168 52.7157ZM18.4574 52.7157C18.4574 52.8453 18.4673 52.9533 18.487 53.0396C18.5067 53.126 18.5384 53.1908 18.5822 53.234C18.6267 53.2765 18.6848 53.2978 18.7566 53.2978C18.8284 53.2978 18.8862 53.2765 18.93 53.234C18.9745 53.1914 19.0065 53.127 19.0262 53.0406C19.0465 52.9542 19.0567 52.8459 19.0567 52.7157C19.0567 52.588 19.0469 52.4813 19.0272 52.3956C19.0075 52.3092 18.9757 52.2444 18.9319 52.2012C18.8881 52.1574 18.8296 52.1355 18.7566 52.1355C18.6836 52.1355 18.6251 52.1574 18.5813 52.2012C18.5375 52.2444 18.5057 52.3092 18.486 52.3956C18.467 52.4813 18.4574 52.588 18.4574 52.7157Z" fill="#212121"/>
<path d="M16.652 60.8047H16.4976V59.8176C16.4976 59.7802 16.4976 59.7481 16.4976 59.7214C16.4983 59.6941 16.4989 59.6693 16.4995 59.6471C16.5008 59.6242 16.5024 59.6011 16.5043 59.5776C16.4846 59.5979 16.4662 59.6153 16.4491 59.63C16.4319 59.6439 16.4106 59.6614 16.3852 59.6824L16.2261 59.81L16.1432 59.7024L16.5205 59.4118H16.652V60.8047ZM18.1002 60.1063C18.1002 60.2194 18.0916 60.3204 18.0744 60.4093C18.0573 60.4982 18.0303 60.5735 17.9934 60.6351C17.9566 60.6967 17.909 60.7437 17.8505 60.7761C17.7921 60.8079 17.7219 60.8237 17.64 60.8237C17.5365 60.8237 17.4507 60.7955 17.3827 60.7389C17.3154 60.6824 17.2649 60.6008 17.2313 60.4941C17.1982 60.3868 17.1817 60.2575 17.1817 60.1063C17.1817 59.9577 17.1966 59.83 17.2265 59.7233C17.257 59.616 17.3059 59.5337 17.3732 59.4766C17.4405 59.4188 17.5295 59.3899 17.64 59.3899C17.7448 59.3899 17.8312 59.4184 17.8991 59.4756C17.9671 59.5321 18.0176 59.6141 18.0506 59.7214C18.0836 59.8281 18.1002 59.9564 18.1002 60.1063ZM17.3408 60.1063C17.3408 60.2359 17.3507 60.3439 17.3704 60.4303C17.39 60.5166 17.4218 60.5814 17.4656 60.6246C17.5101 60.6672 17.5682 60.6885 17.64 60.6885C17.7118 60.6885 17.7696 60.6672 17.8134 60.6246C17.8578 60.5821 17.8899 60.5176 17.9096 60.4312C17.9299 60.3448 17.9401 60.2365 17.9401 60.1063C17.9401 59.9787 17.9303 59.872 17.9106 59.7862C17.8909 59.6998 17.8591 59.635 17.8153 59.5918C17.7715 59.548 17.713 59.5261 17.64 59.5261C17.5669 59.5261 17.5085 59.548 17.4647 59.5918C17.4209 59.635 17.3891 59.6998 17.3694 59.7862C17.3503 59.872 17.3408 59.9787 17.3408 60.1063ZM19.2168 60.1063C19.2168 60.2194 19.2082 60.3204 19.191 60.4093C19.1739 60.4982 19.1469 60.5735 19.1101 60.6351C19.0732 60.6967 19.0256 60.7437 18.9672 60.7761C18.9087 60.8079 18.8385 60.8237 18.7566 60.8237C18.6531 60.8237 18.5673 60.7955 18.4994 60.7389C18.432 60.6824 18.3815 60.6008 18.3479 60.4941C18.3148 60.3868 18.2983 60.2575 18.2983 60.1063C18.2983 59.9577 18.3133 59.83 18.3431 59.7233C18.3736 59.616 18.4225 59.5337 18.4898 59.4766C18.5572 59.4188 18.6461 59.3899 18.7566 59.3899C18.8614 59.3899 18.9478 59.4184 19.0157 59.4756C19.0837 59.5321 19.1342 59.6141 19.1672 59.7214C19.2003 59.8281 19.2168 59.9564 19.2168 60.1063ZM18.4574 60.1063C18.4574 60.2359 18.4673 60.3439 18.487 60.4303C18.5067 60.5166 18.5384 60.5814 18.5822 60.6246C18.6267 60.6672 18.6848 60.6885 18.7566 60.6885C18.8284 60.6885 18.8862 60.6672 18.93 60.6246C18.9745 60.5821 19.0065 60.5176 19.0262 60.4312C19.0465 60.3448 19.0567 60.2365 19.0567 60.1063C19.0567 59.9787 19.0469 59.872 19.0272 59.7862C19.0075 59.6998 18.9757 59.635 18.9319 59.5918C18.8881 59.548 18.8296 59.5261 18.7566 59.5261C18.6836 59.5261 18.6251 59.548 18.5813 59.5918C18.5375 59.635 18.5057 59.6998 18.486 59.7862C18.467 59.872 18.4574 59.9787 18.4574 60.1063Z" fill="#212121"/>
<path d="M19.2168 67.493C19.2168 67.6061 19.2082 67.7071 19.191 67.796C19.1739 67.8849 19.1469 67.9602 19.1101 68.0218C19.0732 68.0834 19.0256 68.1304 18.9672 68.1628C18.9087 68.1946 18.8385 68.2105 18.7566 68.2105C18.6531 68.2105 18.5673 68.1822 18.4994 68.1257C18.432 68.0691 18.3815 67.9875 18.3479 67.8808C18.3148 67.7735 18.2983 67.6442 18.2983 67.493C18.2983 67.3444 18.3133 67.2167 18.3431 67.11C18.3736 67.0027 18.4225 66.9204 18.4898 66.8633C18.5572 66.8055 18.6461 66.7766 18.7566 66.7766C18.8614 66.7766 18.9478 66.8052 19.0157 66.8623C19.0837 66.9189 19.1342 67.0008 19.1672 67.1081C19.2003 67.2148 19.2168 67.3431 19.2168 67.493ZM18.4574 67.493C18.4574 67.6226 18.4673 67.7306 18.487 67.817C18.5067 67.9034 18.5384 67.9681 18.5822 68.0113C18.6267 68.0539 18.6848 68.0752 18.7566 68.0752C18.8284 68.0752 18.8862 68.0539 18.93 68.0113C18.9745 67.9688 19.0065 67.9043 19.0262 67.8179C19.0465 67.7315 19.0567 67.6233 19.0567 67.493C19.0567 67.3654 19.0469 67.2587 19.0272 67.1729C19.0075 67.0865 18.9757 67.0218 18.9319 66.9786C18.8881 66.9347 18.8296 66.9128 18.7566 66.9128C18.6836 66.9128 18.6251 66.9347 18.5813 66.9786C18.5375 67.0218 18.5057 67.0865 18.486 67.1729C18.467 67.2587 18.4574 67.3654 18.4574 67.493Z" fill="#212121"/>
<path d="M30.6426 71.4141H30.4883V70.427C30.4883 70.3895 30.4883 70.3575 30.4883 70.3308C30.4889 70.3035 30.4896 70.2787 30.4902 70.2565C30.4915 70.2336 30.493 70.2104 30.495 70.1869C30.4753 70.2073 30.4568 70.2247 30.4397 70.2393C30.4225 70.2533 30.4013 70.2708 30.3759 70.2917L30.2167 70.4194L30.1339 70.3117L30.5111 70.0212H30.6426V71.4141Z" fill="#212121"/>
<path d="M22.9234 70.7157C22.9234 70.8288 22.9148 70.9298 22.8977 71.0187C22.8805 71.1076 22.8535 71.1829 22.8167 71.2445C22.7799 71.3061 22.7322 71.3531 22.6738 71.3855C22.6153 71.4172 22.5452 71.4331 22.4632 71.4331C22.3597 71.4331 22.2739 71.4049 22.206 71.3483C22.1387 71.2918 22.0882 71.2102 22.0545 71.1035C22.0215 70.9961 22.005 70.8669 22.005 70.7157C22.005 70.5671 22.0199 70.4394 22.0497 70.3327C22.0802 70.2254 22.1291 70.1431 22.1965 70.0859C22.2638 70.0281 22.3527 69.9992 22.4632 69.9992C22.568 69.9992 22.6544 70.0278 22.7224 70.085C22.7903 70.1415 22.8408 70.2235 22.8739 70.3308C22.9069 70.4375 22.9234 70.5658 22.9234 70.7157ZM22.1641 70.7157C22.1641 70.8453 22.1739 70.9533 22.1936 71.0396C22.2133 71.126 22.245 71.1908 22.2889 71.234C22.3333 71.2765 22.3915 71.2978 22.4632 71.2978C22.535 71.2978 22.5928 71.2765 22.6366 71.234C22.6811 71.1914 22.7132 71.127 22.7329 71.0406C22.7532 70.9542 22.7633 70.8459 22.7633 70.7157C22.7633 70.588 22.7535 70.4813 22.7338 70.3956C22.7141 70.3092 22.6824 70.2444 22.6385 70.2012C22.5947 70.1574 22.5363 70.1355 22.4632 70.1355C22.3902 70.1355 22.3317 70.1574 22.2879 70.2012C22.2441 70.2444 22.2123 70.3092 22.1926 70.3956C22.1736 70.4813 22.1641 70.588 22.1641 70.7157Z" fill="#212121"/>
<path d="M39.0134 71.4141H38.1007V71.2816L38.4732 70.9034C38.5425 70.8335 38.6006 70.7713 38.6476 70.7167C38.6952 70.662 38.7314 70.6084 38.7562 70.5556C38.781 70.5023 38.7933 70.4439 38.7933 70.3803C38.7933 70.3016 38.7698 70.2416 38.7228 70.2003C38.6765 70.1583 38.6152 70.1374 38.539 70.1374C38.4723 70.1374 38.4132 70.1488 38.3618 70.1717C38.3103 70.1946 38.2576 70.2269 38.2036 70.2689L38.1188 70.1622C38.1556 70.131 38.1957 70.1034 38.2389 70.0793C38.2827 70.0551 38.3294 70.0361 38.3789 70.0221C38.4291 70.0081 38.4824 70.0011 38.539 70.0011C38.6247 70.0011 38.6987 70.0161 38.761 70.0459C38.8232 70.0758 38.8712 70.1183 38.9048 70.1736C38.9391 70.2288 38.9563 70.2946 38.9563 70.3708C38.9563 70.4445 38.9417 70.5131 38.9124 70.5766C38.8832 70.6395 38.8423 70.702 38.7895 70.7643C38.7368 70.8259 38.6752 70.8913 38.6047 70.9606L38.3017 71.2626V71.2692H39.0134V71.4141Z" fill="#212121"/>
<path d="M47.255 70.346C47.255 70.4083 47.2429 70.4623 47.2188 70.508C47.1946 70.5537 47.161 70.5912 47.1178 70.6204C47.0746 70.649 47.0238 70.669 46.9653 70.6804V70.6881C47.0758 70.702 47.1587 70.7376 47.214 70.7948C47.2699 70.8519 47.2978 70.9269 47.2978 71.0196C47.2978 71.1003 47.2788 71.1717 47.2407 71.234C47.2032 71.2962 47.1454 71.3451 47.0673 71.3807C46.9898 71.4157 46.8904 71.4331 46.7691 71.4331C46.6954 71.4331 46.6271 71.4271 46.5642 71.415C46.502 71.4036 46.4423 71.3842 46.3851 71.3569V71.2083C46.4429 71.2369 46.5058 71.2594 46.5737 71.2759C46.6417 71.2918 46.7074 71.2997 46.771 71.2997C46.898 71.2997 46.9898 71.2746 47.0463 71.2245C47.1028 71.1737 47.1311 71.1044 47.1311 71.0168C47.1311 70.9564 47.1152 70.9078 47.0835 70.871C47.0523 70.8335 47.0072 70.8062 46.9482 70.7891C46.8897 70.7713 46.8192 70.7624 46.7367 70.7624H46.5976V70.6271H46.7376C46.8132 70.6271 46.8774 70.616 46.9301 70.5938C46.9828 70.5715 47.0228 70.5404 47.0501 70.5004C47.0781 70.4597 47.092 70.4118 47.092 70.3565C47.092 70.286 47.0685 70.2317 47.0215 70.1936C46.9745 70.1549 46.9107 70.1355 46.83 70.1355C46.7805 70.1355 46.7354 70.1406 46.6947 70.1507C46.6541 70.1609 46.616 70.1749 46.5804 70.1926C46.5448 70.2104 46.5093 70.2311 46.4737 70.2546L46.3937 70.146C46.4445 70.1066 46.5064 70.0726 46.5795 70.044C46.6525 70.0154 46.7354 70.0011 46.8281 70.0011C46.9704 70.0011 47.0771 70.0335 47.1482 70.0983C47.2194 70.1631 47.255 70.2457 47.255 70.346Z" fill="#212121"/>
<path d="M55.4248 71.0911H55.2161V71.4141H55.0618V71.0911H54.3882V70.9577L55.0513 70.0135H55.2161V70.9482H55.4248V71.0911ZM55.0618 70.9482V70.4928C55.0618 70.4578 55.0621 70.4264 55.0627 70.3984C55.0634 70.3699 55.0643 70.3435 55.0656 70.3194C55.0669 70.2946 55.0678 70.2711 55.0685 70.2489C55.0697 70.2266 55.0707 70.2047 55.0713 70.1831H55.0637C55.0516 70.2085 55.0376 70.2355 55.0218 70.2641C55.0065 70.292 54.991 70.3171 54.9751 70.3394L54.5454 70.9482H55.0618Z" fill="#212121"/>
<path d="M62.9315 70.5623C63.0261 70.5623 63.1084 70.5785 63.1783 70.6109C63.2481 70.6427 63.3021 70.689 63.3402 70.75C63.379 70.811 63.3983 70.885 63.3983 70.972C63.3983 71.0673 63.3777 71.1495 63.3364 71.2188C63.2951 71.2873 63.2357 71.3404 63.1583 71.3779C63.0808 71.4147 62.988 71.4331 62.88 71.4331C62.8076 71.4331 62.7403 71.4268 62.6781 71.4141C62.6158 71.4014 62.5634 71.3823 62.5209 71.3569V71.2064C62.5672 71.2343 62.6234 71.2565 62.6895 71.2731C62.7556 71.2896 62.8197 71.2978 62.882 71.2978C62.9525 71.2978 63.0141 71.2867 63.0668 71.2645C63.1201 71.2416 63.1614 71.2073 63.1906 71.1616C63.2205 71.1152 63.2354 71.0571 63.2354 70.9872C63.2354 70.8945 63.2068 70.823 63.1497 70.7729C63.0931 70.7221 63.0036 70.6966 62.881 70.6966C62.8416 70.6966 62.7984 70.6998 62.7514 70.7062C62.7044 70.7125 62.6657 70.7195 62.6352 70.7271L62.5552 70.6747L62.6085 70.0212H63.3012V70.166H62.7438L62.7086 70.5861C62.7327 70.581 62.7638 70.576 62.8019 70.5709C62.84 70.5652 62.8832 70.5623 62.9315 70.5623Z" fill="#212121"/>
<path d="M70.5544 70.8186C70.5544 70.7348 70.5602 70.6528 70.5716 70.5728C70.5837 70.4928 70.6037 70.4184 70.6316 70.3498C70.6596 70.2806 70.6977 70.22 70.746 70.1679C70.7942 70.1158 70.8542 70.0751 70.926 70.0459C70.9984 70.0161 71.0851 70.0011 71.1861 70.0011C71.2147 70.0011 71.2455 70.0027 71.2785 70.0059C71.3116 70.0084 71.3389 70.0129 71.3605 70.0192V70.1555C71.337 70.1472 71.31 70.1412 71.2795 70.1374C71.2496 70.1336 71.2195 70.1317 71.189 70.1317C71.0708 70.1317 70.9778 70.1574 70.9098 70.2088C70.8425 70.2603 70.7939 70.3302 70.7641 70.4184C70.7342 70.5061 70.7171 70.6049 70.7126 70.7147H70.7231C70.7428 70.683 70.7679 70.6544 70.7984 70.629C70.8288 70.603 70.8657 70.5823 70.9089 70.5671C70.9527 70.5518 71.0035 70.5442 71.0613 70.5442C71.1426 70.5442 71.2134 70.5607 71.2738 70.5938C71.3347 70.6268 71.3817 70.6747 71.4148 70.7376C71.4484 70.8005 71.4653 70.8767 71.4653 70.9663C71.4653 71.0622 71.4475 71.1451 71.4119 71.2149C71.3763 71.2848 71.3255 71.3388 71.2595 71.3769C71.1941 71.4144 71.1159 71.4331 71.0251 71.4331C70.9571 71.4331 70.8946 71.4201 70.8374 71.3941C70.7802 71.368 70.7304 71.3293 70.6878 71.2778C70.6459 71.2264 70.6132 71.1625 70.5897 71.0863C70.5662 71.0095 70.5544 70.9202 70.5544 70.8186ZM71.0232 71.2997C71.1096 71.2997 71.1788 71.2721 71.2309 71.2168C71.283 71.1616 71.309 71.0781 71.309 70.9663C71.309 70.8748 71.2858 70.8024 71.2395 70.749C71.1931 70.6957 71.1232 70.669 71.0299 70.669C70.9664 70.669 70.9111 70.6824 70.8641 70.709C70.8171 70.7351 70.7806 70.7681 70.7545 70.8081C70.7285 70.8481 70.7155 70.8888 70.7155 70.9301C70.7155 70.972 70.7215 71.0145 70.7336 71.0577C70.7463 71.1009 70.7653 71.1409 70.7907 71.1778C70.8161 71.2146 70.8482 71.2442 70.887 71.2664C70.9257 71.2886 70.9711 71.2997 71.0232 71.2997Z" fill="#212121"/>
<path d="M78.5249 71.4141L79.0966 70.166H78.3372V70.0212H79.2661V70.1431L78.6983 71.4141H78.5249Z" fill="#212121"/>
<path d="M21.7559 68.9258H78.0973" stroke="#D4D4D4" stroke-width="0.243902"/>
<path d="M35.7707 64.2212C28.775 64.2212 28.775 63.0562 21.7168 63.0562V68.8813H35.7707H49.8246H63.9409H77.9948V58.0633C70.9367 58.0633 70.9367 62.5569 63.9409 62.5569C56.8828 62.5569 56.8828 54.9844 49.8246 54.9844C42.8289 54.9844 42.8289 64.2212 35.7707 64.2212Z" fill="url(#paint0_linear_7961_41889)"/>
<rect x="51.6132" y="52.6932" width="4.90629" height="3.46326" rx="1.73163" fill="white" fill-opacity="0.6"/>
<rect x="51.6132" y="52.6932" width="4.90629" height="3.46326" rx="1.73163" stroke="#FF4D16" stroke-width="0.144303"/>
<path d="M53.4988 54.9258H53.2771V54.0417C53.2771 54.0123 53.2774 53.9829 53.2781 53.9534C53.2787 53.924 53.2793 53.8952 53.2799 53.867C53.2812 53.8388 53.2828 53.8119 53.2846 53.7862C53.2715 53.8006 53.2552 53.8163 53.2358 53.8332C53.217 53.8501 53.1969 53.8676 53.1757 53.8858L53.0178 54.0117L52.907 53.8717L53.3147 53.5523H53.4988V54.9258ZM54.8808 54.2381C54.8808 54.3489 54.872 54.4482 54.8545 54.5359C54.8376 54.623 54.8106 54.6969 54.7737 54.7576C54.7367 54.8184 54.6885 54.8647 54.629 54.8967C54.5695 54.9286 54.4975 54.9446 54.4129 54.9446C54.3071 54.9446 54.2197 54.9167 54.1508 54.861C54.0819 54.8046 54.0309 54.7238 53.9977 54.6186C53.9645 54.5127 53.9479 54.3859 53.9479 54.2381C53.9479 54.0903 53.9629 53.9638 53.993 53.8585C54.0237 53.7527 54.0732 53.6716 54.1414 53.6152C54.2097 53.5589 54.3002 53.5307 54.4129 53.5307C54.5194 53.5307 54.6071 53.5589 54.676 53.6152C54.7455 53.671 54.7969 53.7518 54.8301 53.8576C54.8639 53.9628 54.8808 54.0897 54.8808 54.2381ZM54.1706 54.2381C54.1706 54.354 54.1781 54.4507 54.1931 54.5284C54.2088 54.606 54.2344 54.6643 54.2701 54.7031C54.3058 54.7413 54.3534 54.7604 54.4129 54.7604C54.4724 54.7604 54.52 54.7413 54.5557 54.7031C54.5914 54.6649 54.6171 54.607 54.6328 54.5293C54.6491 54.4517 54.6572 54.3546 54.6572 54.2381C54.6572 54.1228 54.6494 54.0264 54.6337 53.9487C54.6181 53.8711 54.5924 53.8128 54.5567 53.774C54.521 53.7345 54.4731 53.7148 54.4129 53.7148C54.3528 53.7148 54.3049 53.7345 54.2692 53.774C54.2341 53.8128 54.2088 53.8711 54.1931 53.9487C54.1781 54.0264 54.1706 54.1228 54.1706 54.2381ZM55.5187 54.0671C55.607 54.0671 55.6847 54.0831 55.7517 54.115C55.8193 54.1463 55.8719 54.1927 55.9095 54.2541C55.9471 54.3148 55.9659 54.3893 55.9659 54.4777C55.9659 54.5741 55.9455 54.6574 55.9048 54.7276C55.8641 54.7971 55.8043 54.8506 55.7254 54.8882C55.6465 54.9258 55.5503 54.9446 55.437 54.9446C55.3649 54.9446 55.2976 54.9383 55.235 54.9258C55.173 54.9133 55.1194 54.8945 55.0743 54.8694V54.6702C55.1213 54.6966 55.1777 54.7182 55.2434 54.7351C55.3092 54.7514 55.3721 54.7595 55.4323 54.7595C55.4961 54.7595 55.5509 54.7501 55.5967 54.7313C55.6424 54.7125 55.6775 54.6837 55.7019 54.6449C55.7269 54.606 55.7395 54.5569 55.7395 54.4974C55.7395 54.4185 55.7141 54.3577 55.6634 54.3151C55.6133 54.2719 55.5347 54.2503 55.4276 54.2503C55.39 54.2503 55.3499 54.2537 55.3073 54.2606C55.2654 54.2669 55.2303 54.2738 55.2021 54.2813L55.1053 54.224L55.157 53.5523H55.871V53.7467H55.3515L55.3214 54.0887C55.344 54.0837 55.3709 54.079 55.4022 54.0746C55.4335 54.0696 55.4723 54.0671 55.5187 54.0671Z" fill="#212121"/>
<defs>
<linearGradient id="paint0_linear_7961_41889" x1="48.4128" y1="54.1868" x2="48.4128" y2="79.3195" gradientUnits="userSpaceOnUse">
<stop stop-color="#FF6301"/>
<stop offset="1" stop-color="#DA2B10"/>
</linearGradient>
</defs>
</svg>
