<svg width="92" height="92" viewBox="0 0 92 92" fill="none" xmlns="http://www.w3.org/2000/svg">
<rect x="0.389831" y="0.389831" width="91.079" height="91.2203" rx="17.5424" stroke="#BEBEBE" stroke-width="0.779661"/>
<mask id="mask0_7899_83943" style="mask-type:alpha" maskUnits="userSpaceOnUse" x="19" y="27" width="17" height="38">
<path d="M32.1653 27.9803C31.7194 27.2416 30.7558 27.0003 30.0459 27.491C27.4435 29.29 25.1973 31.5638 23.428 34.1977C21.3678 37.2645 20.0039 40.7452 19.4321 44.3953C18.8603 48.0455 19.0946 51.7765 20.1183 55.3265C20.9975 58.3752 22.4407 61.2269 24.3684 63.7355C24.8942 64.4198 25.8855 64.4847 26.536 63.9177L31.5958 59.5075C32.2463 58.9405 32.3067 57.9575 31.8082 57.2532C30.809 55.8416 30.0514 54.2694 29.5702 52.6007C28.9443 50.4303 28.8011 48.1493 29.1507 45.9177C29.5002 43.6861 30.3341 41.5581 31.5936 39.6831C32.5621 38.2415 33.7642 36.9763 35.1471 35.9378C35.8371 35.4196 36.0802 34.4653 35.6342 33.7265L32.1653 27.9803Z" fill="#D9D9D9"/>
</mask>
<g mask="url(#mask0_7899_83943)">
<g opacity="0.2">
<line y1="-0.312499" x2="58.6768" y2="-0.312499" transform="matrix(-0.607831 0.794066 0.375448 0.926844 70.8545 27.0508)" stroke="black" stroke-width="0.624997"/>
<line y1="-0.312499" x2="58.6768" y2="-0.312499" transform="matrix(-0.607831 0.794066 0.375448 0.926844 67.1221 26.543)" stroke="black" stroke-width="0.624997"/>
<line y1="-0.312499" x2="58.6768" y2="-0.312499" transform="matrix(-0.607831 0.794066 0.375448 0.926844 63.3867 26.0391)" stroke="black" stroke-width="0.624997"/>
<line y1="-0.312499" x2="58.6768" y2="-0.312499" transform="matrix(-0.607831 0.794066 0.375448 0.926844 59.6572 25.5391)" stroke="black" stroke-width="0.624997"/>
<line y1="-0.312499" x2="58.6768" y2="-0.312499" transform="matrix(-0.607831 0.794066 0.375448 0.926844 55.9248 25.0312)" stroke="black" stroke-width="0.624997"/>
<line y1="-0.312499" x2="58.6768" y2="-0.312499" transform="matrix(-0.607831 0.794066 0.375448 0.926844 52.1924 24.5312)" stroke="black" stroke-width="0.624997"/>
<line y1="-0.312499" x2="58.6768" y2="-0.312499" transform="matrix(-0.607831 0.794066 0.375448 0.926844 48.0947 23.9805)" stroke="black" stroke-width="0.624997"/>
<line y1="-0.312499" x2="58.6768" y2="-0.312499" transform="matrix(-0.607831 0.794066 0.375448 0.926844 44.7275 23.5195)" stroke="black" stroke-width="0.624997"/>
<line y1="-0.312499" x2="58.6768" y2="-0.312499" transform="matrix(-0.607831 0.794066 0.375448 0.926844 40.9971 23.0195)" stroke="black" stroke-width="0.624997"/>
<line y1="-0.312499" x2="58.6768" y2="-0.312499" transform="matrix(-0.607831 0.794066 0.375448 0.926844 37.2646 22.5117)" stroke="black" stroke-width="0.624997"/>
<line y1="-0.312499" x2="58.6768" y2="-0.312499" transform="matrix(-0.607831 0.794066 0.375448 0.926844 33.5322 22.0078)" stroke="black" stroke-width="0.624997"/>
<line y1="-0.312499" x2="58.6768" y2="-0.312499" transform="matrix(-0.607831 0.794066 0.375448 0.926844 29.7979 21.5078)" stroke="black" stroke-width="0.624997"/>
<line y1="-0.312499" x2="58.6768" y2="-0.312499" transform="matrix(-0.607831 0.794066 0.375448 0.926844 26.0674 21)" stroke="black" stroke-width="0.624997"/>
<line y1="-0.312499" x2="58.6768" y2="-0.312499" transform="matrix(-0.607831 0.794066 0.375448 0.926844 22.335 20.4961)" stroke="black" stroke-width="0.624997"/>
</g>
<g opacity="0.2">
<line y1="-0.312499" x2="58.6768" y2="-0.312499" transform="matrix(-0.607831 0.794066 0.375448 0.926844 70.8525 29.6094)" stroke="black" stroke-width="0.624997"/>
<line y1="-0.312499" x2="58.6768" y2="-0.312499" transform="matrix(-0.607831 0.794066 0.375448 0.926844 67.1201 29.1016)" stroke="black" stroke-width="0.624997"/>
<line y1="-0.312499" x2="58.6768" y2="-0.312499" transform="matrix(-0.607831 0.794066 0.375448 0.926844 63.3877 28.6016)" stroke="black" stroke-width="0.624997"/>
<line y1="-0.312499" x2="58.6768" y2="-0.312499" transform="matrix(-0.607831 0.794066 0.375448 0.926844 59.6553 28.0977)" stroke="black" stroke-width="0.624997"/>
<line y1="-0.312499" x2="58.6768" y2="-0.312499" transform="matrix(-0.607831 0.794066 0.375448 0.926844 55.9229 27.5898)" stroke="black" stroke-width="0.624997"/>
<line y1="-0.312499" x2="58.6768" y2="-0.312499" transform="matrix(-0.607831 0.794066 0.375448 0.926844 52.1904 27.0898)" stroke="black" stroke-width="0.624997"/>
<line y1="-0.312499" x2="58.6768" y2="-0.312499" transform="matrix(-0.607831 0.794066 0.375448 0.926844 48.0928 26.5391)" stroke="black" stroke-width="0.624997"/>
<line y1="-0.312499" x2="58.6768" y2="-0.312499" transform="matrix(-0.607831 0.794066 0.375448 0.926844 44.7275 26.0781)" stroke="black" stroke-width="0.624997"/>
<line y1="-0.312499" x2="58.6768" y2="-0.312499" transform="matrix(-0.607831 0.794066 0.375448 0.926844 40.9951 25.5781)" stroke="black" stroke-width="0.624997"/>
<line y1="-0.312499" x2="58.6768" y2="-0.312499" transform="matrix(-0.607831 0.794066 0.375448 0.926844 37.2627 25.0703)" stroke="black" stroke-width="0.624997"/>
<line y1="-0.312499" x2="58.6768" y2="-0.312499" transform="matrix(-0.607831 0.794066 0.375448 0.926844 33.5303 24.5664)" stroke="black" stroke-width="0.624997"/>
<line y1="-0.312499" x2="58.6768" y2="-0.312499" transform="matrix(-0.607831 0.794066 0.375448 0.926844 29.7979 24.0664)" stroke="black" stroke-width="0.624997"/>
<line y1="-0.312499" x2="58.6768" y2="-0.312499" transform="matrix(-0.607831 0.794066 0.375448 0.926844 26.0654 23.5586)" stroke="black" stroke-width="0.624997"/>
<line y1="-0.312499" x2="58.6768" y2="-0.312499" transform="matrix(-0.607831 0.794066 0.375448 0.926844 22.333 23.0547)" stroke="black" stroke-width="0.624997"/>
</g>
</g>
<path d="M62.1126 32.4497C62.7547 31.8732 62.8112 30.8815 62.1962 30.2761C58.5379 26.6754 53.8608 24.2627 48.7795 23.3786C43.6982 22.4945 38.481 23.1855 33.8215 25.3389C33.0382 25.701 32.7563 26.6535 33.166 27.413L36.3523 33.3206C36.7619 34.0801 37.7074 34.3557 38.5043 34.0247C41.2086 32.9014 44.1872 32.5644 47.0932 33.07C49.9991 33.5757 52.6888 34.899 54.8548 36.8696C55.493 37.4504 56.476 37.5104 57.1182 36.9339L62.1126 32.4497Z" fill="#FFE601"/>
<path d="M67.5408 53.8321C68.3802 54.0326 69.2281 53.5151 69.3764 52.665C69.9545 49.3501 69.8667 45.9477 69.1121 42.6578C68.3576 39.3679 66.9539 36.2673 64.989 33.5356C64.4851 32.8351 63.4964 32.7389 62.8283 33.285L57.6316 37.5331C56.9635 38.0793 56.872 39.0598 57.3481 39.7796C58.3697 41.3243 59.1081 43.0435 59.524 44.8568C59.9399 46.6702 60.0245 48.5394 59.7781 50.3749C59.6633 51.2302 60.1729 52.0729 61.0123 52.2733L67.5408 53.8321Z" fill="#A48DFF"/>
<path d="M45.9524 72.018C46.0073 72.8792 46.751 73.5378 47.6072 73.4298C52.2607 72.8431 56.671 70.9728 60.337 68.0143C64.003 65.0558 66.7624 61.14 68.3187 56.7153C68.605 55.9012 68.1183 55.0352 67.2882 54.7996L60.831 52.9674C60.0009 52.7318 59.1443 53.2178 58.8262 54.02C57.8462 56.4918 56.242 58.6782 54.1591 60.3592C52.0762 62.0401 49.6003 63.1464 46.9773 63.5823C46.126 63.7237 45.4701 64.4584 45.525 65.3196L45.9524 72.018Z" fill="#006FFF"/>
<path d="M27.6466 65.11C27.0364 65.7202 27.0333 66.7135 27.68 67.2849C29.8302 69.1848 32.2907 70.7078 34.958 71.7855C37.6254 72.8632 40.4533 73.4769 43.3197 73.6039C44.1818 73.6421 44.8697 72.9254 44.8546 72.0626L44.7375 65.3515C44.7225 64.4887 44.0092 63.8097 43.1493 63.7377C41.6048 63.6084 40.0856 63.2476 38.6431 62.6648C37.2006 62.082 35.8571 61.2861 34.6563 60.3063C33.9877 59.7607 33.0029 59.7537 32.3928 60.3639L27.6466 65.11Z" fill="#BBFF00"/>
<rect x="65.3779" y="39.8789" width="15.9374" height="7.49997" rx="3.74998" fill="#F4F4F4"/>
<path d="M68.1498 44.6289V44.0523H67.0857V43.7883L68.1389 42.3695H68.4326V43.7977H68.8076V44.0523H68.4326V44.6289H68.1498ZM67.3623 43.7977H68.1435V42.7492L67.3623 43.7977ZM69.8604 44.6633C69.6136 44.6633 69.4177 44.5664 69.2729 44.3727C69.1281 44.1779 69.0558 43.8898 69.0558 43.5086C69.0558 43.2513 69.0891 43.0357 69.1558 42.8617C69.2224 42.6878 69.3162 42.557 69.437 42.4695C69.5578 42.382 69.7 42.3383 69.8636 42.3383C70.1084 42.3383 70.3031 42.4367 70.4479 42.6336C70.5938 42.8294 70.6667 43.1195 70.6667 43.5039C70.6667 43.8862 70.5943 44.1753 70.4495 44.3711C70.3047 44.5659 70.1084 44.6633 69.8604 44.6633ZM69.8636 44.4133C70.025 44.4133 70.1469 44.3424 70.2292 44.2008C70.3125 44.0581 70.3542 43.8263 70.3542 43.5055C70.3542 43.1784 70.312 42.943 70.2276 42.7992C70.1443 42.6544 70.0224 42.582 69.862 42.582C69.7026 42.582 69.5797 42.655 69.4933 42.8008C69.4078 42.9456 69.3651 43.1805 69.3651 43.5055C69.3651 43.8253 69.4078 44.0565 69.4933 44.1992C69.5787 44.3419 69.7021 44.4133 69.8636 44.4133ZM71.3504 44.6414L72.877 42.3445H73.0661L71.5473 44.6414H71.3504ZM71.5223 43.6242C71.4192 43.6242 71.327 43.5977 71.2458 43.5445C71.1655 43.4904 71.102 43.4154 71.0551 43.3195C71.0083 43.2227 70.9848 43.1102 70.9848 42.982C70.9848 42.8529 71.0083 42.7399 71.0551 42.643C71.102 42.5461 71.1655 42.4706 71.2458 42.4164C71.327 42.3622 71.4192 42.3352 71.5223 42.3352C71.6234 42.3352 71.714 42.3622 71.7942 42.4164C71.8744 42.4706 71.9374 42.5461 71.9833 42.643C72.0291 42.7399 72.052 42.8529 72.052 42.982C72.052 43.1102 72.0291 43.2227 71.9833 43.3195C71.9385 43.4154 71.876 43.4904 71.7958 43.5445C71.7155 43.5977 71.6244 43.6242 71.5223 43.6242ZM71.5192 43.4633C71.6192 43.4633 71.6963 43.4221 71.7504 43.3398C71.8057 43.2576 71.8333 43.1383 71.8333 42.982C71.8333 42.8237 71.8057 42.7034 71.7504 42.6211C71.6952 42.5378 71.6182 42.4961 71.5192 42.4961C71.4192 42.4961 71.3416 42.5378 71.2864 42.6211C71.2322 42.7044 71.2051 42.8247 71.2051 42.982C71.2051 43.1372 71.2322 43.2565 71.2864 43.3398C71.3416 43.4221 71.4192 43.4633 71.5192 43.4633ZM72.9364 44.6602C72.8333 44.6602 72.7411 44.6341 72.6598 44.582C72.5786 44.5289 72.515 44.4539 72.4692 44.357C72.4234 44.2602 72.4004 44.1461 72.4004 44.0148C72.4004 43.8846 72.4234 43.7711 72.4692 43.6742C72.5161 43.5773 72.5801 43.5023 72.6614 43.4492C72.7426 43.3951 72.8343 43.368 72.9364 43.368C73.0385 43.368 73.1296 43.3951 73.2098 43.4492C73.29 43.5023 73.353 43.5773 73.3989 43.6742C73.4447 43.7711 73.4676 43.8846 73.4676 44.0148C73.4676 44.1461 73.4447 44.2602 73.3989 44.357C73.3541 44.4539 73.2916 44.5289 73.2114 44.582C73.1312 44.6341 73.0395 44.6602 72.9364 44.6602ZM72.9333 44.4977C73.0343 44.4977 73.1119 44.4565 73.1661 44.3742C73.2202 44.2919 73.2473 44.1732 73.2473 44.018C73.2473 43.8586 73.2197 43.7378 73.1645 43.6555C73.1103 43.5721 73.0333 43.5305 72.9333 43.5305C72.8343 43.5305 72.7572 43.5721 72.702 43.6555C72.6478 43.7388 72.6208 43.8596 72.6208 44.018C72.6208 44.1721 72.6478 44.2909 72.702 44.3742C72.7562 44.4565 72.8333 44.4977 72.9333 44.4977Z" fill="#666666"/>
<g clip-path="url(#clip0_7899_83943)">
<path d="M79.2029 45.2899C79.5806 45.2857 79.8834 44.9762 79.8793 44.5985C79.8751 44.2208 79.5656 43.918 79.1878 43.9222C78.8101 43.9263 78.5073 44.2359 78.5114 44.6135C78.5156 44.9912 78.8252 45.294 79.2029 45.2899Z" fill="black"/>
<path d="M75.5029 43.5184C75.5017 43.6331 75.6004 43.727 75.7198 43.7278C75.8768 43.7287 76.0337 43.7294 76.1906 43.73C76.7006 43.7309 77.1159 44.145 77.1136 44.6546C77.3847 44.6547 77.6558 44.6512 77.927 44.644C77.9281 44.6253 77.9293 44.6065 77.9303 44.5878C77.9557 44.1209 78.211 43.69 78.6054 43.463L78.6798 43.656C78.4061 43.8034 78.1918 44.0595 78.1071 44.383C78.0903 44.447 78.1265 44.5147 78.1903 44.5319C78.2006 44.5347 78.2111 44.536 78.2213 44.536C78.2743 44.536 78.3227 44.5004 78.3365 44.4466C78.4634 43.9546 78.967 43.6575 79.459 43.7844L79.5058 43.7964C79.5678 43.8124 79.6335 43.7785 79.6525 43.7172C79.6727 43.6519 79.6341 43.5836 79.5685 43.5667L79.5184 43.5538C79.3076 43.4994 79.095 43.5069 78.9 43.565L78.667 42.9608C78.7133 42.9883 78.7658 43.0042 78.8203 43.0033C78.8354 43.003 78.8503 43.0024 78.8654 43.0018C78.9444 42.9978 79.0134 42.9261 79.0165 42.8472C79.0204 42.7317 79.0204 42.6162 79.0165 42.5007C79.0134 42.4219 78.9444 42.35 78.8654 42.3461C78.8503 42.3454 78.8354 42.345 78.8203 42.3446C78.6845 42.3423 78.5608 42.444 78.517 42.5713L78.3621 42.1696C78.315 42.0471 78.1951 41.9648 78.0638 41.9648H77.7305C77.6664 41.9648 77.6112 42.0141 77.6082 42.0781C77.605 42.1465 77.6595 42.2029 77.7272 42.2029H78.0638C78.0976 42.2029 78.1278 42.2237 78.14 42.2552L78.2616 42.5706C78.0239 42.5478 77.4619 42.6208 77.2538 43.0647H76.0137C75.8361 43.0647 75.6922 43.2086 75.6922 43.3861H75.635C75.5621 43.3861 75.5029 43.4452 75.5029 43.5182V43.5184ZM77.6291 44.4744C77.5352 44.4757 77.4605 44.3981 77.4619 44.3015C77.4634 44.205 77.542 44.1264 77.6379 44.1256C77.7338 44.1249 77.8095 44.2019 77.8061 44.2979C77.8027 44.3938 77.723 44.4731 77.6291 44.4744Z" fill="black"/>
<path d="M76.2431 44.7681C76.1535 44.7681 76.0808 44.6954 76.0808 44.6057C76.0808 44.5161 76.1535 44.4434 76.2431 44.4434H76.8727C76.7998 44.144 76.5301 43.9219 76.2083 43.9219C75.8306 43.9219 75.5244 44.228 75.5244 44.6057C75.5244 44.9834 75.8306 45.2896 76.2083 45.2896C76.5301 45.2896 76.7998 45.0673 76.8727 44.7681H76.2431Z" fill="black"/>
</g>
<rect x="56.0039" y="63.625" width="15.9374" height="7.49997" rx="3.74998" fill="#F4F4F4"/>
<g clip-path="url(#clip1_7899_83943)">
<path d="M58.4646 68.859C58.7029 68.859 58.8961 68.6658 58.8961 68.4275C58.8961 68.1893 58.7029 67.9961 58.4646 67.9961C58.2264 67.9961 58.0332 68.1893 58.0332 68.4275C58.0332 68.6658 58.2264 68.859 58.4646 68.859Z" fill="black"/>
<path d="M61.0476 68.859C61.2859 68.859 61.4791 68.6658 61.4791 68.4275C61.4791 68.1893 61.2859 67.9961 61.0476 67.9961C60.8094 67.9961 60.6162 68.1893 60.6162 68.4275C60.6162 68.6658 60.8094 68.859 61.0476 68.859Z" fill="black"/>
<path d="M61.4837 66.8717L61.4836 66.8717C61.4301 66.8778 61.3917 66.9262 61.3978 66.9797L61.43 67.2606C61.4362 67.3141 61.4846 67.3525 61.5381 67.3464L61.5382 67.3464C61.5917 67.3403 61.6301 67.2919 61.624 67.2384L61.5917 66.9575C61.5856 66.904 61.5372 66.8655 61.4837 66.8717Z" fill="black"/>
<path d="M61.9306 67.2208C61.905 66.9141 61.8755 66.6893 61.827 66.5242C61.7443 66.2521 61.6503 66.0108 61.3732 65.9579C61.2049 65.9246 60.0542 65.8836 59.7476 65.887C59.4409 65.8835 58.5045 65.9167 58.3365 65.9499C58.06 66.0028 57.7783 66.2521 57.6984 66.5242C57.6516 66.6893 57.6007 66.9141 57.5782 67.2208C57.5568 67.5276 57.5683 67.9123 57.6025 68.0759C57.637 68.2412 57.7363 68.3232 57.8831 68.3646C57.9143 68.0712 58.1633 67.8418 58.465 67.8418C58.7877 67.8418 59.0502 68.1044 59.0502 68.427C59.0502 68.4689 59.0457 68.5096 59.0373 68.549C59.2946 68.5583 59.7861 68.5638 59.9198 68.5625C60.0511 68.5638 60.2597 68.5585 60.4768 68.5495C60.4683 68.51 60.4638 68.4691 60.4638 68.427C60.4638 68.1043 60.7264 67.8418 61.049 67.8418C61.3525 67.8418 61.6027 68.0739 61.6315 68.3699C61.7833 68.3308 61.8868 68.27 61.9134 68.1062C61.9373 67.941 61.9551 67.5276 61.9305 67.2208H61.9306ZM58.7599 67.1979C58.7599 67.2496 58.7177 67.2913 58.666 67.2907C58.5858 67.2898 58.3471 67.2888 58.2669 67.2877C58.17 67.2863 58.0619 67.2101 58.0601 67.129C58.0484 66.9753 58.0807 66.821 58.1519 66.6663C58.1845 66.6033 58.269 66.5566 58.3438 66.5556C58.3984 66.5549 58.6114 66.5542 58.666 66.5536C58.7177 66.553 58.7599 66.5948 58.7599 66.6464V67.1979H58.7599ZM59.7252 67.2053C59.7252 67.2567 59.6833 67.2984 59.6319 67.2982C59.4795 67.2974 59.2479 67.2963 59.0955 67.295C59.0446 67.2946 59.0035 67.2531 59.0035 67.2022V66.6423C59.0035 66.5914 59.0446 66.55 59.0955 66.5494C59.2479 66.5482 59.4795 66.5471 59.6319 66.5463C59.6833 66.546 59.7252 66.5876 59.7252 66.6392V67.2054V67.2053ZM60.6745 67.2069C60.6745 67.2581 60.6331 67.2997 60.5818 67.2997C60.4294 67.2999 60.1978 67.2999 60.0454 67.2996C59.9943 67.2995 59.9528 67.2579 59.9528 67.2067V66.6375C59.9528 66.5863 59.9943 66.5447 60.0454 66.5446C60.1978 66.5443 60.4294 66.5442 60.5818 66.5446C60.633 66.5446 60.6745 66.5862 60.6745 66.6374V67.2069ZM61.6971 67.4826C61.6714 67.5009 61.638 67.5047 61.608 67.4949L60.9738 67.2902C60.9392 67.279 60.9131 67.2488 60.9104 67.2125C60.9103 67.2102 60.9102 67.208 60.9102 67.2057V66.6386C60.9102 66.5872 60.952 66.5456 61.0033 66.5458C61.146 66.5464 61.3203 66.5472 61.463 66.5483C61.5356 66.5489 61.6006 66.5885 61.6221 66.6473C61.6222 66.6476 61.6224 66.648 61.6225 66.6483C61.6994 66.9221 61.7204 67.1478 61.7336 67.4092C61.7362 67.4384 61.7215 67.4652 61.6971 67.4826Z" fill="black"/>
</g>
<path d="M63.6977 68.375V68.1984V68.1063C63.6977 67.9906 63.719 67.8906 63.7617 67.8063C63.8055 67.7219 63.8628 67.6484 63.9336 67.5859C64.0055 67.5224 64.0836 67.4656 64.168 67.4156C64.2534 67.3656 64.3383 67.3177 64.4227 67.2719C64.5081 67.225 64.5862 67.1766 64.657 67.1266C64.7279 67.0755 64.7846 67.0182 64.8273 66.9547C64.8711 66.8901 64.893 66.8141 64.893 66.7266C64.893 66.612 64.8523 66.5188 64.7711 66.4469C64.6909 66.375 64.582 66.3391 64.4445 66.3391C64.2966 66.3391 64.1779 66.3807 64.0883 66.4641C63.9987 66.5474 63.9482 66.6583 63.9367 66.7969H63.6492C63.6523 66.6667 63.6846 66.5479 63.7461 66.4406C63.8076 66.3323 63.8977 66.2458 64.0164 66.1813C64.1352 66.1167 64.2815 66.0844 64.4555 66.0844C64.6065 66.0844 64.7378 66.1115 64.8492 66.1656C64.9607 66.2188 65.0466 66.2938 65.107 66.3906C65.1685 66.4865 65.1992 66.5984 65.1992 66.7266C65.1992 66.8432 65.1779 66.9432 65.1351 67.0266C65.0924 67.1099 65.0357 67.1823 64.9648 67.2438C64.895 67.3042 64.8185 67.3583 64.7352 67.4063C64.6518 67.4542 64.568 67.5005 64.4836 67.5453C64.3992 67.5891 64.3221 67.6354 64.2523 67.6844C64.1825 67.7323 64.1263 67.7875 64.0836 67.85C64.0409 67.9125 64.0195 67.987 64.0195 68.0734V68.1188H65.2117V68.375H63.6977ZM66.3202 68.4094C66.0733 68.4094 65.8774 68.3125 65.7327 68.1188C65.5879 67.924 65.5155 67.6359 65.5155 67.2547C65.5155 66.9974 65.5488 66.7818 65.6155 66.6078C65.6821 66.4339 65.7759 66.3031 65.8967 66.2156C66.0176 66.1281 66.1597 66.0844 66.3233 66.0844C66.5681 66.0844 66.7629 66.1828 66.9077 66.3797C67.0535 66.5755 67.1264 66.8656 67.1264 67.25C67.1264 67.6323 67.054 67.9214 66.9092 68.1172C66.7644 68.312 66.5681 68.4094 66.3202 68.4094ZM66.3233 68.1594C66.4847 68.1594 66.6066 68.0885 66.6889 67.9469C66.7722 67.8042 66.8139 67.5724 66.8139 67.2516C66.8139 66.9245 66.7717 66.6891 66.6873 66.5453C66.604 66.4005 66.4821 66.3281 66.3217 66.3281C66.1623 66.3281 66.0394 66.401 65.953 66.5469C65.8676 66.6917 65.8248 66.9266 65.8248 67.2516C65.8248 67.5714 65.8676 67.8026 65.953 67.9453C66.0384 68.088 66.1618 68.1594 66.3233 68.1594ZM67.8102 68.3875L69.3367 66.0906H69.5258L68.007 68.3875H67.8102ZM67.982 67.3703C67.8789 67.3703 67.7867 67.3438 67.7055 67.2906C67.6253 67.2365 67.5617 67.1615 67.5149 67.0656C67.468 66.9688 67.4445 66.8563 67.4445 66.7281C67.4445 66.599 67.468 66.4859 67.5149 66.3891C67.5617 66.2922 67.6253 66.2167 67.7055 66.1625C67.7867 66.1083 67.8789 66.0813 67.982 66.0813C68.0831 66.0813 68.1737 66.1083 68.2539 66.1625C68.3341 66.2167 68.3971 66.2922 68.443 66.3891C68.4888 66.4859 68.5117 66.599 68.5117 66.7281C68.5117 66.8563 68.4888 66.9688 68.443 67.0656C68.3982 67.1615 68.3357 67.2365 68.2555 67.2906C68.1753 67.3438 68.0841 67.3703 67.982 67.3703ZM67.9789 67.2094C68.0789 67.2094 68.156 67.1682 68.2102 67.0859C68.2654 67.0037 68.293 66.8844 68.293 66.7281C68.293 66.5698 68.2654 66.4495 68.2102 66.3672C68.155 66.2839 68.0779 66.2422 67.9789 66.2422C67.8789 66.2422 67.8013 66.2839 67.7461 66.3672C67.6919 66.4505 67.6649 66.5708 67.6649 66.7281C67.6649 66.8833 67.6919 67.0026 67.7461 67.0859C67.8013 67.1682 67.8789 67.2094 67.9789 67.2094ZM69.3961 68.4062C69.293 68.4062 69.2008 68.3802 69.1195 68.3281C69.0383 68.275 68.9747 68.2 68.9289 68.1031C68.8831 68.0063 68.8602 67.8922 68.8602 67.7609C68.8602 67.6307 68.8831 67.5172 68.9289 67.4203C68.9758 67.3234 69.0398 67.2484 69.1211 67.1953C69.2023 67.1412 69.294 67.1141 69.3961 67.1141C69.4982 67.1141 69.5893 67.1412 69.6695 67.1953C69.7497 67.2484 69.8128 67.3234 69.8586 67.4203C69.9044 67.5172 69.9273 67.6307 69.9273 67.7609C69.9273 67.8922 69.9044 68.0063 69.8586 68.1031C69.8138 68.2 69.7513 68.275 69.6711 68.3281C69.5909 68.3802 69.4992 68.4062 69.3961 68.4062ZM69.393 68.2438C69.494 68.2438 69.5716 68.2026 69.6258 68.1203C69.6799 68.038 69.707 67.9193 69.707 67.7641C69.707 67.6047 69.6794 67.4839 69.6242 67.4016C69.5701 67.3182 69.493 67.2766 69.393 67.2766C69.294 67.2766 69.2169 67.3182 69.1617 67.4016C69.1076 67.4849 69.0805 67.6057 69.0805 67.7641C69.0805 67.9182 69.1076 68.037 69.1617 68.1203C69.2159 68.2026 69.293 68.2438 69.393 68.2438Z" fill="#666666"/>
<rect x="44.4375" y="18" width="15.9374" height="7.49997" rx="3.74998" fill="#F4F4F4"/>
<g clip-path="url(#clip2_7899_83943)">
<path d="M49.6111 22.3867C49.4061 22.3867 49.2393 22.5536 49.2393 22.7586C49.2393 22.9636 49.4061 23.1305 49.6111 23.1305C49.8161 23.1305 49.983 22.9636 49.983 22.7586C49.983 22.5536 49.8161 22.3867 49.6111 22.3867ZM49.6111 22.868C49.5508 22.868 49.5018 22.8189 49.5018 22.7586C49.5018 22.6983 49.5508 22.6492 49.6111 22.6492C49.6715 22.6492 49.7205 22.6983 49.7205 22.7586C49.7205 22.8189 49.6715 22.868 49.6111 22.868Z" fill="black"/>
<path d="M49.5757 20.8438H48.9332C48.8849 20.8438 48.8457 20.883 48.8457 20.9312V22.6375C48.8457 22.6858 48.8849 22.725 48.9332 22.725H49.026C49.0693 22.725 49.1077 22.6938 49.1133 22.6508C49.1476 22.3877 49.3575 22.2245 49.6114 22.2245C49.8652 22.2245 50.0751 22.3877 50.1095 22.6508C50.1151 22.6938 50.1534 22.725 50.1967 22.725H50.2894C50.3377 22.725 50.3769 22.6858 50.3769 22.6375V21.7844C50.3769 21.7638 50.3697 21.7439 50.3566 21.7282L49.6428 20.8751C49.6262 20.8553 49.6016 20.8438 49.5757 20.8438ZM49.0207 21.5437V21.1062C49.0207 21.058 49.0599 21.0187 49.1082 21.0187H49.4936C49.5196 21.0187 49.5442 21.0303 49.5608 21.0502L49.9254 21.4877C49.9729 21.5447 49.9324 21.6312 49.8582 21.6312H49.1082C49.0599 21.6312 49.0207 21.5921 49.0207 21.5437Z" fill="black"/>
<path d="M46.0895 22.7219H46.3135C46.3568 22.7219 46.3952 22.6907 46.4008 22.6477C46.4351 22.3846 46.645 22.2214 46.8989 22.2214C47.1527 22.2214 47.3626 22.3846 47.397 22.6477C47.4026 22.6907 47.4409 22.7219 47.4842 22.7219H48.5832C48.6315 22.7219 48.6707 22.6827 48.6707 22.6344V20.4469C48.6707 20.3986 48.6315 20.3594 48.5832 20.3594H46.0895C46.0411 20.3594 46.002 20.3986 46.002 20.4469V22.6344C46.002 22.6827 46.0411 22.7219 46.0895 22.7219Z" fill="black"/>
<path d="M46.8973 22.3867C46.6922 22.3867 46.5254 22.5536 46.5254 22.7586C46.5254 22.9636 46.6922 23.1305 46.8973 23.1305C47.1023 23.1305 47.2691 22.9636 47.2691 22.7586C47.2691 22.5536 47.1023 22.3867 46.8973 22.3867ZM46.8973 22.868C46.8369 22.868 46.7879 22.8189 46.7879 22.7586C46.7879 22.6983 46.8369 22.6492 46.8973 22.6492C46.9576 22.6492 47.0066 22.6983 47.0066 22.7586C47.0066 22.8189 46.9576 22.868 46.8973 22.868Z" fill="black"/>
</g>
<path d="M52.1312 22.75V22.5734V22.4813C52.1312 22.3656 52.1526 22.2656 52.1953 22.1813C52.2391 22.0969 52.2964 22.0234 52.3672 21.9609C52.4391 21.8974 52.5172 21.8406 52.6016 21.7906C52.687 21.7406 52.7719 21.6927 52.8562 21.6469C52.9417 21.6 53.0198 21.5516 53.0906 21.5016C53.1615 21.4505 53.2182 21.3932 53.2609 21.3297C53.3047 21.2651 53.3266 21.1891 53.3266 21.1016C53.3266 20.987 53.2859 20.8938 53.2047 20.8219C53.1245 20.75 53.0156 20.7141 52.8781 20.7141C52.7302 20.7141 52.6115 20.7557 52.5219 20.8391C52.4323 20.9224 52.3818 21.0333 52.3703 21.1719H52.0828C52.0859 21.0417 52.1182 20.9229 52.1797 20.8156C52.2411 20.7073 52.3312 20.6208 52.45 20.5563C52.5687 20.4917 52.7151 20.4594 52.8891 20.4594C53.0401 20.4594 53.1713 20.4865 53.2828 20.5406C53.3943 20.5938 53.4802 20.6688 53.5406 20.7656C53.6021 20.8615 53.6328 20.9734 53.6328 21.1016C53.6328 21.2182 53.6115 21.3182 53.5687 21.4016C53.526 21.4849 53.4693 21.5573 53.3984 21.6188C53.3286 21.6792 53.2521 21.7333 53.1687 21.7813C53.0854 21.8292 53.0016 21.8755 52.9172 21.9203C52.8328 21.9641 52.7557 22.0104 52.6859 22.0594C52.6161 22.1073 52.5599 22.1625 52.5172 22.225C52.4745 22.2875 52.4531 22.362 52.4531 22.4484V22.4938H53.6453V22.75H52.1312ZM54.8287 22.7844C54.6892 22.7844 54.56 22.7599 54.4412 22.7109C54.3225 22.662 54.2204 22.5938 54.135 22.5063C54.0506 22.4188 53.9886 22.3182 53.9491 22.2047L54.1991 22.1C54.2366 22.1854 54.2834 22.2615 54.3397 22.3281C54.397 22.3948 54.4647 22.4469 54.5428 22.4844C54.6209 22.5219 54.7095 22.5406 54.8084 22.5406C54.9689 22.5406 55.0975 22.4943 55.1944 22.4016C55.2923 22.3078 55.3412 22.1807 55.3412 22.0203C55.3412 21.9203 55.3183 21.8333 55.2725 21.7594C55.2267 21.6844 55.1647 21.626 55.0866 21.5844C55.0095 21.5427 54.9241 21.5219 54.8303 21.5219C54.7689 21.5219 54.7116 21.5276 54.6584 21.5391C54.6053 21.5495 54.5527 21.5703 54.5006 21.6016C54.4485 21.6328 54.3939 21.6802 54.3366 21.7438C54.3303 21.7469 54.3256 21.7484 54.3225 21.7484C54.3194 21.7474 54.3142 21.7453 54.3069 21.7422L54.0631 21.6656L54.1647 20.4906H55.5131L55.5053 20.7406H54.4116L54.3537 21.4703C54.4287 21.4005 54.5105 21.351 54.5991 21.3219C54.6886 21.2917 54.7855 21.2766 54.8897 21.2766C55.0261 21.2766 55.1517 21.3047 55.2662 21.3609C55.3819 21.4162 55.4746 21.4984 55.5444 21.6078C55.6142 21.7162 55.6491 21.8505 55.6491 22.0109C55.6491 22.1672 55.6152 22.3031 55.5475 22.4188C55.4798 22.5344 55.3845 22.6245 55.2616 22.6891C55.1386 22.7526 54.9944 22.7844 54.8287 22.7844ZM56.3323 22.7625L57.8588 20.4656H58.0479L56.5291 22.7625H56.3323ZM56.5041 21.7453C56.401 21.7453 56.3088 21.7188 56.2276 21.6656C56.1474 21.6115 56.0838 21.5365 56.0369 21.4406C55.9901 21.3438 55.9666 21.2313 55.9666 21.1031C55.9666 20.974 55.9901 20.8609 56.0369 20.7641C56.0838 20.6672 56.1474 20.5917 56.2276 20.5375C56.3088 20.4833 56.401 20.4563 56.5041 20.4563C56.6052 20.4563 56.6958 20.4833 56.776 20.5375C56.8562 20.5917 56.9192 20.6672 56.9651 20.7641C57.0109 20.8609 57.0338 20.974 57.0338 21.1031C57.0338 21.2313 57.0109 21.3438 56.9651 21.4406C56.9203 21.5365 56.8578 21.6115 56.7776 21.6656C56.6974 21.7188 56.6062 21.7453 56.5041 21.7453ZM56.501 21.5844C56.601 21.5844 56.6781 21.5432 56.7323 21.4609C56.7875 21.3787 56.8151 21.2594 56.8151 21.1031C56.8151 20.9448 56.7875 20.8245 56.7323 20.7422C56.677 20.6589 56.6 20.6172 56.501 20.6172C56.401 20.6172 56.3234 20.6589 56.2682 20.7422C56.214 20.8255 56.1869 20.9458 56.1869 21.1031C56.1869 21.2583 56.214 21.3776 56.2682 21.4609C56.3234 21.5432 56.401 21.5844 56.501 21.5844ZM57.9182 22.7812C57.8151 22.7812 57.7229 22.7552 57.6416 22.7031C57.5604 22.65 57.4968 22.575 57.451 22.4781C57.4052 22.3813 57.3823 22.2672 57.3823 22.1359C57.3823 22.0057 57.4052 21.8922 57.451 21.7953C57.4979 21.6984 57.5619 21.6234 57.6432 21.5703C57.7244 21.5162 57.8161 21.4891 57.9182 21.4891C58.0203 21.4891 58.1114 21.5162 58.1916 21.5703C58.2718 21.6234 58.3349 21.6984 58.3807 21.7953C58.4265 21.8922 58.4494 22.0057 58.4494 22.1359C58.4494 22.2672 58.4265 22.3813 58.3807 22.4781C58.3359 22.575 58.2734 22.65 58.1932 22.7031C58.113 22.7552 58.0213 22.7812 57.9182 22.7812ZM57.9151 22.6188C58.0161 22.6188 58.0937 22.5776 58.1479 22.4953C58.202 22.413 58.2291 22.2943 58.2291 22.1391C58.2291 21.9797 58.2015 21.8589 58.1463 21.7766C58.0921 21.6932 58.0151 21.6516 57.9151 21.6516C57.8161 21.6516 57.739 21.6932 57.6838 21.7766C57.6296 21.8599 57.6026 21.9807 57.6026 22.1391C57.6026 22.2932 57.6296 22.412 57.6838 22.4953C57.738 22.5776 57.8151 22.6188 57.9151 22.6188Z" fill="#666666"/>
<rect x="15.6895" y="63.625" width="15.9374" height="7.49997" rx="3.74998" fill="#F4F4F4"/>
<path d="M18.4613 68.375V67.7984H17.3973V67.5344L18.4504 66.1156H18.7441V67.5438H19.1191V67.7984H18.7441V68.375H18.4613ZM17.6738 67.5438H18.4551V66.4953L17.6738 67.5438ZM20.172 68.4094C19.9251 68.4094 19.7293 68.3125 19.5845 68.1188C19.4397 67.924 19.3673 67.6359 19.3673 67.2547C19.3673 66.9974 19.4006 66.7818 19.4673 66.6078C19.5339 66.4339 19.6277 66.3031 19.7485 66.2156C19.8694 66.1281 20.0115 66.0844 20.1751 66.0844C20.4199 66.0844 20.6147 66.1828 20.7595 66.3797C20.9053 66.5755 20.9782 66.8656 20.9782 67.25C20.9782 67.6323 20.9058 67.9214 20.761 68.1172C20.6162 68.312 20.4199 68.4094 20.172 68.4094ZM20.1751 68.1594C20.3365 68.1594 20.4584 68.0885 20.5407 67.9469C20.624 67.8042 20.6657 67.5724 20.6657 67.2516C20.6657 66.9245 20.6235 66.6891 20.5391 66.5453C20.4558 66.4005 20.3339 66.3281 20.1735 66.3281C20.0141 66.3281 19.8912 66.401 19.8048 66.5469C19.7194 66.6917 19.6766 66.9266 19.6766 67.2516C19.6766 67.5714 19.7194 67.8026 19.8048 67.9453C19.8902 68.088 20.0136 68.1594 20.1751 68.1594ZM21.662 68.3875L23.1885 66.0906H23.3776L21.8588 68.3875H21.662ZM21.8338 67.3703C21.7307 67.3703 21.6385 67.3438 21.5573 67.2906C21.4771 67.2365 21.4135 67.1615 21.3667 67.0656C21.3198 66.9688 21.2963 66.8563 21.2963 66.7281C21.2963 66.599 21.3198 66.4859 21.3667 66.3891C21.4135 66.2922 21.4771 66.2167 21.5573 66.1625C21.6385 66.1083 21.7307 66.0813 21.8338 66.0813C21.9349 66.0813 22.0255 66.1083 22.1057 66.1625C22.1859 66.2167 22.2489 66.2922 22.2948 66.3891C22.3406 66.4859 22.3635 66.599 22.3635 66.7281C22.3635 66.8563 22.3406 66.9688 22.2948 67.0656C22.25 67.1615 22.1875 67.2365 22.1073 67.2906C22.0271 67.3438 21.9359 67.3703 21.8338 67.3703ZM21.8307 67.2094C21.9307 67.2094 22.0078 67.1682 22.062 67.0859C22.1172 67.0037 22.1448 66.8844 22.1448 66.7281C22.1448 66.5698 22.1172 66.4495 22.062 66.3672C22.0068 66.2839 21.9297 66.2422 21.8307 66.2422C21.7307 66.2422 21.6531 66.2839 21.5979 66.3672C21.5437 66.4505 21.5167 66.5708 21.5167 66.7281C21.5167 66.8833 21.5437 67.0026 21.5979 67.0859C21.6531 67.1682 21.7307 67.2094 21.8307 67.2094ZM23.2479 68.4062C23.1448 68.4062 23.0526 68.3802 22.9713 68.3281C22.8901 68.275 22.8265 68.2 22.7807 68.1031C22.7349 68.0063 22.712 67.8922 22.712 67.7609C22.712 67.6307 22.7349 67.5172 22.7807 67.4203C22.8276 67.3234 22.8917 67.2484 22.9729 67.1953C23.0542 67.1412 23.1458 67.1141 23.2479 67.1141C23.35 67.1141 23.4411 67.1412 23.5213 67.1953C23.6015 67.2484 23.6646 67.3234 23.7104 67.4203C23.7562 67.5172 23.7791 67.6307 23.7791 67.7609C23.7791 67.8922 23.7562 68.0063 23.7104 68.1031C23.6656 68.2 23.6031 68.275 23.5229 68.3281C23.4427 68.3802 23.351 68.4062 23.2479 68.4062ZM23.2448 68.2438C23.3458 68.2438 23.4234 68.2026 23.4776 68.1203C23.5318 68.038 23.5588 67.9193 23.5588 67.7641C23.5588 67.6047 23.5312 67.4839 23.476 67.4016C23.4219 67.3182 23.3448 67.2766 23.2448 67.2766C23.1458 67.2766 23.0687 67.3182 23.0135 67.4016C22.9594 67.4849 22.9323 67.6057 22.9323 67.7641C22.9323 67.9182 22.9594 68.037 23.0135 68.1203C23.0677 68.2026 23.1448 68.2438 23.2448 68.2438Z" fill="#666666"/>
<g clip-path="url(#clip3_7899_83943)">
<path d="M29.2929 66.9516C29.18 66.9516 29.0719 66.9727 28.9724 67.0111C28.8944 66.8379 28.8271 66.6546 28.7934 66.4842C28.7394 66.2104 28.4975 66.0117 28.2182 66.0117C28.1474 66.0117 28.09 66.0691 28.09 66.1399C28.09 66.2107 28.1474 66.2681 28.2182 66.2681C28.2487 66.2681 28.2784 66.2723 28.3067 66.2802C28.3927 66.3043 28.4657 66.3624 28.5082 66.4405C28.5048 66.4449 28.5015 66.4494 28.4986 66.4543L28.4588 66.5214L28.2573 66.8605H27.1809L27.1198 66.7065H27.1452C27.2159 66.7065 27.2733 66.6491 27.2733 66.5784C27.2733 66.5076 27.2159 66.4502 27.1452 66.4502H26.7032C26.6324 66.4502 26.5751 66.5076 26.5751 66.5784C26.5751 66.6491 26.6324 66.7065 26.7032 66.7065H26.8439L26.9558 66.988C26.8757 66.9644 26.7909 66.9516 26.7032 66.9516C26.211 66.9516 25.8105 67.3521 25.8105 67.8443C25.8105 68.3365 26.211 68.7369 26.7032 68.7369C27.1519 68.7369 27.5243 68.4042 27.5867 67.9724H27.822C27.8673 67.9724 27.9091 67.9486 27.9322 67.9097L28.6058 66.7758C28.6453 66.8981 28.6948 67.0206 28.7481 67.1376C28.5366 67.301 28.4002 67.557 28.4002 67.8443C28.4002 68.3365 28.8006 68.737 29.2929 68.737C29.7851 68.737 30.1855 68.3365 30.1855 67.8443C30.1855 67.3521 29.7851 66.9516 29.2929 66.9516ZM26.7032 67.9724H27.3266C27.2671 68.2621 27.0102 68.4806 26.7032 68.4806C26.3524 68.4806 26.0669 68.1951 26.0669 67.8443C26.0669 67.4934 26.3524 67.2079 26.7032 67.2079C27.0102 67.2079 27.2671 67.4265 27.3266 67.7161H26.7032C26.6324 67.7161 26.575 67.7735 26.575 67.8443C26.575 67.9151 26.6324 67.9724 26.7032 67.9724ZM27.7491 67.7161H27.5867C27.5569 67.5102 27.4566 67.3268 27.3112 67.1913C27.3098 67.1861 27.3083 67.181 27.3063 67.1759L27.2828 67.1169H28.105L27.7491 67.7161ZM29.2929 68.4806C28.942 68.4806 28.6565 68.1951 28.6565 67.8443C28.6565 67.6584 28.7367 67.4909 28.8642 67.3744C29.0218 67.6757 29.1758 67.9003 29.1874 67.9171C29.2122 67.9531 29.2523 67.9724 29.293 67.9724C29.3181 67.9724 29.3434 67.9651 29.3657 67.9497C29.4239 67.9095 29.4386 67.8297 29.3983 67.7714C29.3956 67.7674 29.2405 67.5413 29.0852 67.2429C29.1503 67.2204 29.2201 67.2079 29.2929 67.2079C29.6437 67.2079 29.9292 67.4934 29.9292 67.8443C29.9292 68.1951 29.6437 68.4806 29.2929 68.4806Z" fill="black"/>
</g>
<rect x="11.3154" y="33.3164" width="15.3124" height="7.49997" rx="3.74998" fill="#F4F4F4"/>
<g clip-path="url(#clip4_7899_83943)">
<path d="M16.337 38.553C16.5717 38.553 16.762 38.3627 16.762 38.1281C16.762 37.8934 16.5717 37.7031 16.337 37.7031C16.1024 37.7031 15.9121 37.8934 15.9121 38.1281C15.9121 38.3627 16.1024 38.553 16.337 38.553Z" fill="black"/>
<path d="M13.7921 38.553C14.0268 38.553 14.2171 38.3627 14.2171 38.1281C14.2171 37.8934 14.0268 37.7031 13.7921 37.7031C13.5574 37.7031 13.3672 37.8934 13.3672 38.1281C13.3672 38.3627 13.5574 38.553 13.7921 38.553Z" fill="black"/>
<path d="M17.2448 37.7412C17.2113 37.5915 17.1778 37.4389 17.1443 37.2832C17.1201 37.1715 17.0362 37.0774 16.9279 37.0416C16.6852 36.9625 16.4422 36.8793 16.1989 36.7965C16.1636 36.602 16.1161 36.456 16.0747 36.3464C15.9992 36.1491 15.779 35.9683 15.5751 35.9299C15.5242 35.9199 15.4367 35.909 15.3359 35.8997C15.3352 35.8968 15.3345 35.8937 15.3335 35.8907C15.3114 35.8239 15.2892 35.7542 15.2669 35.6823C15.2534 35.6389 15.2153 35.6055 15.1722 35.602C14.9722 35.5858 14.7712 35.5858 14.5712 35.602C14.5282 35.6056 14.49 35.639 14.4765 35.6823C14.4542 35.7542 14.432 35.8239 14.4099 35.8907C14.4084 35.895 14.4073 35.8994 14.4066 35.9038C14.3225 35.9122 14.2506 35.9217 14.2064 35.9305C14.002 35.9696 13.7792 36.1541 13.7009 36.3554C13.6562 36.472 13.6044 36.6285 13.5658 36.8393C13.4239 36.9045 13.2821 36.9684 13.1404 37.0298C13.036 37.0755 12.9607 37.174 12.9456 37.2851C12.9236 37.4469 12.9016 37.6067 12.8798 37.7643C12.8555 37.9362 12.9914 38.1093 13.1684 38.131C13.1833 38.1326 13.1982 38.1341 13.2131 38.1357C13.2131 38.1339 13.2129 38.132 13.2129 38.1302C13.2129 37.8106 13.473 37.5504 13.7927 37.5504C14.1124 37.5504 14.3725 37.8106 14.3725 38.1302C14.3725 38.1608 14.3701 38.1909 14.3655 38.2202C14.8312 38.2388 15.2975 38.2388 15.7632 38.2202C15.7585 38.1909 15.7561 38.1608 15.7561 38.1302C15.7561 37.8106 16.0162 37.5504 16.3359 37.5504C16.6556 37.5504 16.9157 37.8106 16.9157 38.1302C16.9157 38.132 16.9156 38.1339 16.9155 38.1357C16.9304 38.1341 16.9452 38.1326 16.9602 38.131C17.1468 38.1077 17.2852 37.9189 17.2447 37.7412H17.2448ZM14.74 36.6158C14.74 36.6697 14.6962 36.7135 14.6423 36.7135H13.9627C13.8967 36.7135 13.8498 36.6494 13.8695 36.5865C13.8875 36.5288 13.905 36.4811 13.9198 36.4425C13.9676 36.3199 14.1199 36.1913 14.2459 36.1672L14.2467 36.167L14.2475 36.1669C14.3135 36.1538 14.4735 36.1364 14.6367 36.1265C14.6927 36.1232 14.74 36.1679 14.74 36.224V36.6158ZM15.8028 36.7135H15.1094C15.0555 36.7135 15.0117 36.6697 15.0117 36.6158V36.2229C15.0117 36.1669 15.0589 36.1223 15.1148 36.1254C15.2844 36.1348 15.4542 36.1529 15.5228 36.1663L15.5237 36.1665L15.5247 36.1667C15.6493 36.1902 15.7983 36.3141 15.8436 36.4321C15.8591 36.4731 15.8777 36.5248 15.8965 36.5881C15.915 36.6507 15.868 36.7135 15.8028 36.7135Z" fill="black"/>
</g>
<path d="M19.3947 38.1953V36.3969H18.9588V36.2078C19.0942 36.2078 19.1994 36.1979 19.2744 36.1781C19.3494 36.1583 19.4025 36.1281 19.4338 36.0875C19.4661 36.0469 19.4838 35.9964 19.4869 35.9359H19.6932V38.1953H19.3947ZM21.1157 38.2297C20.9762 38.2297 20.847 38.2052 20.7282 38.1563C20.6095 38.1073 20.5074 38.0391 20.422 37.9516C20.3376 37.8641 20.2756 37.7635 20.2361 37.65L20.4861 37.5453C20.5236 37.6307 20.5704 37.7068 20.6267 37.7734C20.684 37.8401 20.7517 37.8922 20.8298 37.9297C20.9079 37.9672 20.9965 37.9859 21.0954 37.9859C21.2558 37.9859 21.3845 37.9396 21.4814 37.8469C21.5793 37.7531 21.6282 37.626 21.6282 37.4656C21.6282 37.3656 21.6053 37.2786 21.5595 37.2047C21.5137 37.1297 21.4517 37.0714 21.3735 37.0297C21.2965 36.988 21.211 36.9672 21.1173 36.9672C21.0558 36.9672 20.9986 36.9729 20.9454 36.9844C20.8923 36.9948 20.8397 37.0156 20.7876 37.0469C20.7355 37.0781 20.6808 37.1255 20.6236 37.1891C20.6173 37.1922 20.6126 37.1938 20.6095 37.1938C20.6064 37.1927 20.6012 37.1906 20.5939 37.1875L20.3501 37.1109L20.4517 35.9359H21.8001L21.7923 36.1859H20.6986L20.6407 36.9156C20.7157 36.8458 20.7975 36.7964 20.8861 36.7672C20.9756 36.737 21.0725 36.7219 21.1767 36.7219C21.3131 36.7219 21.4387 36.75 21.5532 36.8063C21.6689 36.8615 21.7616 36.9438 21.8314 37.0531C21.9012 37.1615 21.936 37.2958 21.936 37.4563C21.936 37.6125 21.9022 37.7484 21.8345 37.8641C21.7668 37.9797 21.6715 38.0698 21.5485 38.1344C21.4256 38.1979 21.2814 38.2297 21.1157 38.2297ZM22.6192 38.2078L24.1458 35.9109H24.3349L22.8161 38.2078H22.6192ZM22.7911 37.1906C22.688 37.1906 22.5958 37.1641 22.5146 37.1109C22.4344 37.0568 22.3708 36.9818 22.3239 36.8859C22.2771 36.7891 22.2536 36.6766 22.2536 36.5484C22.2536 36.4193 22.2771 36.3063 22.3239 36.2094C22.3708 36.1125 22.4344 36.037 22.5146 35.9828C22.5958 35.9287 22.688 35.9016 22.7911 35.9016C22.8922 35.9016 22.9828 35.9287 23.063 35.9828C23.1432 36.037 23.2062 36.1125 23.2521 36.2094C23.2979 36.3063 23.3208 36.4193 23.3208 36.5484C23.3208 36.6766 23.2979 36.7891 23.2521 36.8859C23.2073 36.9818 23.1448 37.0568 23.0646 37.1109C22.9843 37.1641 22.8932 37.1906 22.7911 37.1906ZM22.788 37.0297C22.888 37.0297 22.9651 36.9885 23.0192 36.9063C23.0745 36.824 23.1021 36.7047 23.1021 36.5484C23.1021 36.3901 23.0745 36.2698 23.0192 36.1875C22.964 36.1042 22.887 36.0625 22.788 36.0625C22.688 36.0625 22.6104 36.1042 22.5552 36.1875C22.501 36.2708 22.4739 36.3912 22.4739 36.5484C22.4739 36.7037 22.501 36.8229 22.5552 36.9063C22.6104 36.9885 22.688 37.0297 22.788 37.0297ZM24.2052 38.2266C24.1021 38.2266 24.0099 38.2005 23.9286 38.1484C23.8474 38.0953 23.7838 38.0203 23.738 37.9234C23.6922 37.8266 23.6692 37.7125 23.6692 37.5813C23.6692 37.451 23.6922 37.3375 23.738 37.2406C23.7849 37.1438 23.8489 37.0688 23.9302 37.0156C24.0114 36.9615 24.1031 36.9344 24.2052 36.9344C24.3073 36.9344 24.3984 36.9615 24.4786 37.0156C24.5588 37.0688 24.6218 37.1438 24.6677 37.2406C24.7135 37.3375 24.7364 37.451 24.7364 37.5813C24.7364 37.7125 24.7135 37.8266 24.6677 37.9234C24.6229 38.0203 24.5604 38.0953 24.4802 38.1484C24.4 38.2005 24.3083 38.2266 24.2052 38.2266ZM24.2021 38.0641C24.3031 38.0641 24.3807 38.0229 24.4349 37.9406C24.489 37.8583 24.5161 37.7396 24.5161 37.5844C24.5161 37.425 24.4885 37.3042 24.4333 37.2219C24.3791 37.1385 24.3021 37.0969 24.2021 37.0969C24.1031 37.0969 24.026 37.1385 23.9708 37.2219C23.9166 37.3052 23.8896 37.426 23.8896 37.5844C23.8896 37.7385 23.9166 37.8573 23.9708 37.9406C24.025 38.0229 24.1021 38.0641 24.2021 38.0641Z" fill="#666666"/>
<defs>
<clipPath id="clip0_7899_83943">
<rect width="4.37498" height="4.37498" fill="white" transform="translate(75.5029 41.4414)"/>
</clipPath>
<clipPath id="clip1_7899_83943">
<rect width="4.37498" height="4.37498" fill="white" transform="translate(57.5664 65.1875)"/>
</clipPath>
<clipPath id="clip2_7899_83943">
<rect width="4.37498" height="4.37498" fill="white" transform="translate(46 19.5625)"/>
</clipPath>
<clipPath id="clip3_7899_83943">
<rect width="4.37498" height="4.37498" fill="white" transform="translate(25.8145 65.1875)"/>
</clipPath>
<clipPath id="clip4_7899_83943">
<rect width="4.37498" height="4.37498" fill="white" transform="translate(12.877 34.8828)"/>
</clipPath>
</defs>
</svg>
