<svg width="93" height="92" viewBox="0 0 93 92" fill="none" xmlns="http://www.w3.org/2000/svg">
<rect x="1.25995" y="0.389831" width="91.079" height="91.2203" rx="17.5424" stroke="#BEBEBE" stroke-width="0.779661"/>
<rect width="70" height="60.7317" transform="translate(11.999 16)" fill="white"/>
<path d="M21.7549 21.8555V68.9286" stroke="#E0E0E0" stroke-width="0.243902"/>
<path d="M29.6818 68.9286C29.6818 68.996 29.7364 69.0506 29.8037 69.0506C29.8711 69.0506 29.9257 68.996 29.9257 68.9286H29.6818ZM29.8037 21.8555H29.6818V68.9286H29.8037H29.9257V21.8555H29.8037Z" fill="#E0E0E0"/>
<path d="M37.7306 68.9286C37.7306 68.996 37.7852 69.0506 37.8525 69.0506C37.9199 69.0506 37.9745 68.996 37.9745 68.9286H37.7306ZM37.8525 21.8555H37.7306V68.9286H37.8525H37.9745V21.8555H37.8525Z" fill="#E0E0E0"/>
<path d="M45.7794 68.9286C45.7794 68.996 45.834 69.0506 45.9014 69.0506C45.9687 69.0506 46.0233 68.996 46.0233 68.9286H45.7794ZM45.9014 21.8555H45.7794V68.9286H45.9014H46.0233V21.8555H45.9014Z" fill="#E0E0E0"/>
<path d="M53.8282 68.9286C53.8282 68.996 53.8828 69.0506 53.9502 69.0506C54.0175 69.0506 54.0721 68.996 54.0721 68.9286H53.8282ZM53.9502 21.8555H53.8282V68.9286H53.9502H54.0721V21.8555H53.9502Z" fill="#E0E0E0"/>
<path d="M61.8771 68.9286C61.8771 68.996 61.9317 69.0506 61.999 69.0506C62.0664 69.0506 62.121 68.996 62.121 68.9286H61.8771ZM61.999 21.8555H61.8771V68.9286H61.999H62.121V21.8555H61.999Z" fill="#E0E0E0"/>
<path d="M69.9259 68.9286C69.9259 68.996 69.9805 69.0506 70.0479 69.0506C70.1152 69.0506 70.1698 68.996 70.1698 68.9286H69.9259ZM70.0479 21.8555H69.9259V68.9286H70.0479H70.1698V21.8555H70.0479Z" fill="#E0E0E0"/>
<path d="M77.9747 68.9286C77.9747 68.996 78.0293 69.0506 78.0967 69.0506C78.164 69.0506 78.2186 68.996 78.2186 68.9286H77.9747ZM78.0967 21.8555H77.9747V68.9286H78.0967H78.2186V21.8555H78.0967Z" fill="#E0E0E0"/>
<path d="M15.8589 23.8555H14.9462V23.723L15.3187 23.3448C15.3879 23.2749 15.446 23.2127 15.493 23.1581C15.5407 23.1034 15.5769 23.0498 15.6017 22.997C15.6264 22.9437 15.6388 22.8853 15.6388 22.8217C15.6388 22.743 15.6153 22.683 15.5683 22.6417C15.5219 22.5998 15.4607 22.5788 15.3844 22.5788C15.3177 22.5788 15.2587 22.5902 15.2072 22.6131C15.1558 22.636 15.1031 22.6683 15.0491 22.7103L14.9643 22.6036C15.0011 22.5724 15.0411 22.5448 15.0843 22.5207C15.1281 22.4965 15.1748 22.4775 15.2244 22.4635C15.2745 22.4495 15.3279 22.4425 15.3844 22.4425C15.4702 22.4425 15.5442 22.4575 15.6064 22.4873C15.6687 22.5172 15.7166 22.5597 15.7503 22.615C15.7846 22.6703 15.8017 22.736 15.8017 22.8122C15.8017 22.8859 15.7871 22.9545 15.7579 23.018C15.7287 23.0809 15.6877 23.1435 15.635 23.2057C15.5823 23.2673 15.5207 23.3327 15.4502 23.402L15.1472 23.704V23.7107H15.8589V23.8555ZM16.503 23.0037C16.5976 23.0037 16.6798 23.0199 16.7497 23.0523C16.8196 23.0841 16.8736 23.1304 16.9117 23.1914C16.9504 23.2524 16.9698 23.3264 16.9698 23.4134C16.9698 23.5087 16.9492 23.5909 16.9079 23.6602C16.8666 23.7288 16.8072 23.7818 16.7297 23.8193C16.6522 23.8561 16.5595 23.8745 16.4515 23.8745C16.3791 23.8745 16.3118 23.8682 16.2495 23.8555C16.1873 23.8428 16.1349 23.8237 16.0923 23.7983V23.6478C16.1387 23.6757 16.1949 23.6979 16.261 23.7145C16.327 23.731 16.3912 23.7392 16.4534 23.7392C16.5239 23.7392 16.5855 23.7281 16.6382 23.7059C16.6916 23.683 16.7329 23.6487 16.7621 23.603C16.792 23.5566 16.8069 23.4985 16.8069 23.4286C16.8069 23.3359 16.7783 23.2644 16.7211 23.2143C16.6646 23.1635 16.575 23.1381 16.4525 23.1381C16.4131 23.1381 16.3699 23.1412 16.3229 23.1476C16.2759 23.1539 16.2371 23.1609 16.2067 23.1685L16.1266 23.1161L16.18 22.4626H16.8726V22.6074H16.3153L16.28 23.0275C16.3041 23.0225 16.3353 23.0174 16.3734 23.0123C16.4115 23.0066 16.4547 23.0037 16.503 23.0037ZM18.0998 23.1571C18.0998 23.2702 18.0912 23.3712 18.074 23.4601C18.0569 23.549 18.0299 23.6243 17.993 23.6859C17.9562 23.7475 17.9086 23.7945 17.8501 23.8269C17.7917 23.8586 17.7215 23.8745 17.6396 23.8745C17.536 23.8745 17.4503 23.8463 17.3823 23.7897C17.315 23.7332 17.2645 23.6516 17.2308 23.5449C17.1978 23.4375 17.1813 23.3083 17.1813 23.1571C17.1813 23.0085 17.1962 22.8808 17.2261 22.7741C17.2566 22.6668 17.3055 22.5845 17.3728 22.5273C17.4401 22.4695 17.5291 22.4406 17.6396 22.4406C17.7444 22.4406 17.8308 22.4692 17.8987 22.5264C17.9667 22.5829 18.0172 22.6649 18.0502 22.7722C18.0832 22.8789 18.0998 23.0072 18.0998 23.1571ZM17.3404 23.1571C17.3404 23.2867 17.3503 23.3947 17.37 23.481C17.3896 23.5674 17.4214 23.6322 17.4652 23.6754C17.5097 23.718 17.5678 23.7392 17.6396 23.7392C17.7114 23.7392 17.7692 23.718 17.813 23.6754C17.8574 23.6328 17.8895 23.5684 17.9092 23.482C17.9295 23.3956 17.9397 23.2873 17.9397 23.1571C17.9397 23.0294 17.9298 22.9227 17.9102 22.837C17.8905 22.7506 17.8587 22.6858 17.8149 22.6426C17.7711 22.5988 17.7126 22.5769 17.6396 22.5769C17.5665 22.5769 17.5081 22.5988 17.4643 22.6426C17.4204 22.6858 17.3887 22.7506 17.369 22.837C17.3499 22.9227 17.3404 23.0294 17.3404 23.1571ZM19.2164 23.1571C19.2164 23.2702 19.2078 23.3712 19.1906 23.4601C19.1735 23.549 19.1465 23.6243 19.1097 23.6859C19.0728 23.7475 19.0252 23.7945 18.9667 23.8269C18.9083 23.8586 18.8381 23.8745 18.7562 23.8745C18.6527 23.8745 18.5669 23.8463 18.499 23.7897C18.4316 23.7332 18.3811 23.6516 18.3475 23.5449C18.3144 23.4375 18.2979 23.3083 18.2979 23.1571C18.2979 23.0085 18.3128 22.8808 18.3427 22.7741C18.3732 22.6668 18.4221 22.5845 18.4894 22.5273C18.5568 22.4695 18.6457 22.4406 18.7562 22.4406C18.861 22.4406 18.9474 22.4692 19.0153 22.5264C19.0833 22.5829 19.1338 22.6649 19.1668 22.7722C19.1999 22.8789 19.2164 23.0072 19.2164 23.1571ZM18.457 23.1571C18.457 23.2867 18.4669 23.3947 18.4866 23.481C18.5063 23.5674 18.538 23.6322 18.5818 23.6754C18.6263 23.718 18.6844 23.7392 18.7562 23.7392C18.828 23.7392 18.8858 23.718 18.9296 23.6754C18.9741 23.6328 19.0061 23.5684 19.0258 23.482C19.0461 23.3956 19.0563 23.2873 19.0563 23.1571C19.0563 23.0294 19.0465 22.9227 19.0268 22.837C19.0071 22.7506 18.9753 22.6858 18.9315 22.6426C18.8877 22.5988 18.8292 22.5769 18.7562 22.5769C18.6831 22.5769 18.6247 22.5988 18.5809 22.6426C18.5371 22.6858 18.5053 22.7506 18.4856 22.837C18.4666 22.9227 18.457 23.0294 18.457 23.1571Z" fill="#212121"/>
<path d="M15.8589 31.2461H14.9462V31.1137L15.3187 30.7354C15.3879 30.6656 15.446 30.6033 15.493 30.5487C15.5407 30.4941 15.5769 30.4404 15.6017 30.3877C15.6264 30.3343 15.6388 30.2759 15.6388 30.2124C15.6388 30.1336 15.6153 30.0736 15.5683 30.0323C15.5219 29.9904 15.4607 29.9694 15.3844 29.9694C15.3177 29.9694 15.2587 29.9808 15.2072 30.0037C15.1558 30.0266 15.1031 30.059 15.0491 30.1009L14.9643 29.9942C15.0011 29.9631 15.0411 29.9354 15.0843 29.9113C15.1281 29.8872 15.1748 29.8681 15.2244 29.8541C15.2745 29.8402 15.3279 29.8332 15.3844 29.8332C15.4702 29.8332 15.5442 29.8481 15.6064 29.878C15.6687 29.9078 15.7166 29.9504 15.7503 30.0056C15.7846 30.0609 15.8017 30.1266 15.8017 30.2028C15.8017 30.2765 15.7871 30.3451 15.7579 30.4086C15.7287 30.4715 15.6877 30.5341 15.635 30.5963C15.5823 30.6579 15.5207 30.7234 15.4502 30.7926L15.1472 31.0946V31.1013H15.8589V31.2461ZM16.9831 30.5477C16.9831 30.6608 16.9746 30.7618 16.9574 30.8507C16.9403 30.9396 16.9133 31.0149 16.8764 31.0765C16.8396 31.1381 16.792 31.1851 16.7335 31.2175C16.6751 31.2493 16.6049 31.2651 16.523 31.2651C16.4194 31.2651 16.3337 31.2369 16.2657 31.1804C16.1984 31.1238 16.1479 31.0422 16.1142 30.9355C16.0812 30.8282 16.0647 30.6989 16.0647 30.5477C16.0647 30.3991 16.0796 30.2714 16.1095 30.1647C16.14 30.0574 16.1889 29.9751 16.2562 29.918C16.3235 29.8602 16.4124 29.8313 16.523 29.8313C16.6278 29.8313 16.7141 29.8599 16.7821 29.917C16.8501 29.9735 16.9006 30.0555 16.9336 30.1628C16.9666 30.2695 16.9831 30.3978 16.9831 30.5477ZM16.2238 30.5477C16.2238 30.6773 16.2336 30.7853 16.2533 30.8717C16.273 30.958 16.3048 31.0228 16.3486 31.066C16.3931 31.1086 16.4512 31.1299 16.523 31.1299C16.5947 31.1299 16.6525 31.1086 16.6964 31.066C16.7408 31.0235 16.7729 30.959 16.7926 30.8726C16.8129 30.7862 16.8231 30.6779 16.8231 30.5477C16.8231 30.4201 16.8132 30.3134 16.7935 30.2276C16.7739 30.1412 16.7421 30.0764 16.6983 30.0333C16.6544 29.9894 16.596 29.9675 16.523 29.9675C16.4499 29.9675 16.3915 29.9894 16.3477 30.0333C16.3038 30.0764 16.2721 30.1412 16.2524 30.2276C16.2333 30.3134 16.2238 30.4201 16.2238 30.5477ZM18.0998 30.5477C18.0998 30.6608 18.0912 30.7618 18.074 30.8507C18.0569 30.9396 18.0299 31.0149 17.993 31.0765C17.9562 31.1381 17.9086 31.1851 17.8501 31.2175C17.7917 31.2493 17.7215 31.2651 17.6396 31.2651C17.536 31.2651 17.4503 31.2369 17.3823 31.1804C17.315 31.1238 17.2645 31.0422 17.2308 30.9355C17.1978 30.8282 17.1813 30.6989 17.1813 30.5477C17.1813 30.3991 17.1962 30.2714 17.2261 30.1647C17.2566 30.0574 17.3055 29.9751 17.3728 29.918C17.4401 29.8602 17.5291 29.8313 17.6396 29.8313C17.7444 29.8313 17.8308 29.8599 17.8987 29.917C17.9667 29.9735 18.0172 30.0555 18.0502 30.1628C18.0832 30.2695 18.0998 30.3978 18.0998 30.5477ZM17.3404 30.5477C17.3404 30.6773 17.3503 30.7853 17.37 30.8717C17.3896 30.958 17.4214 31.0228 17.4652 31.066C17.5097 31.1086 17.5678 31.1299 17.6396 31.1299C17.7114 31.1299 17.7692 31.1086 17.813 31.066C17.8574 31.0235 17.8895 30.959 17.9092 30.8726C17.9295 30.7862 17.9397 30.6779 17.9397 30.5477C17.9397 30.4201 17.9298 30.3134 17.9102 30.2276C17.8905 30.1412 17.8587 30.0764 17.8149 30.0333C17.7711 29.9894 17.7126 29.9675 17.6396 29.9675C17.5665 29.9675 17.5081 29.9894 17.4643 30.0333C17.4204 30.0764 17.3887 30.1412 17.369 30.2276C17.3499 30.3134 17.3404 30.4201 17.3404 30.5477ZM19.2164 30.5477C19.2164 30.6608 19.2078 30.7618 19.1906 30.8507C19.1735 30.9396 19.1465 31.0149 19.1097 31.0765C19.0728 31.1381 19.0252 31.1851 18.9667 31.2175C18.9083 31.2493 18.8381 31.2651 18.7562 31.2651C18.6527 31.2651 18.5669 31.2369 18.499 31.1804C18.4316 31.1238 18.3811 31.0422 18.3475 30.9355C18.3144 30.8282 18.2979 30.6989 18.2979 30.5477C18.2979 30.3991 18.3128 30.2714 18.3427 30.1647C18.3732 30.0574 18.4221 29.9751 18.4894 29.918C18.5568 29.8602 18.6457 29.8313 18.7562 29.8313C18.861 29.8313 18.9474 29.8599 19.0153 29.917C19.0833 29.9735 19.1338 30.0555 19.1668 30.1628C19.1999 30.2695 19.2164 30.3978 19.2164 30.5477ZM18.457 30.5477C18.457 30.6773 18.4669 30.7853 18.4866 30.8717C18.5063 30.958 18.538 31.0228 18.5818 31.066C18.6263 31.1086 18.6844 31.1299 18.7562 31.1299C18.828 31.1299 18.8858 31.1086 18.9296 31.066C18.9741 31.0235 19.0061 30.959 19.0258 30.8726C19.0461 30.7862 19.0563 30.6779 19.0563 30.5477C19.0563 30.4201 19.0465 30.3134 19.0268 30.2276C19.0071 30.1412 18.9753 30.0764 18.9315 30.0333C18.8877 29.9894 18.8292 29.9675 18.7562 29.9675C18.6831 29.9675 18.6247 29.9894 18.5809 30.0333C18.5371 30.0764 18.5053 30.1412 18.4856 30.2276C18.4666 30.3134 18.457 30.4201 18.457 30.5477Z" fill="#212121"/>
<path d="M15.535 38.6367H15.3806V37.6497C15.3806 37.6122 15.3806 37.5801 15.3806 37.5534C15.3813 37.5261 15.3819 37.5014 15.3825 37.4791C15.3838 37.4563 15.3854 37.4331 15.3873 37.4096C15.3676 37.4299 15.3492 37.4474 15.332 37.462C15.3149 37.476 15.2936 37.4934 15.2682 37.5144L15.1091 37.6421L15.0262 37.5344L15.4035 37.2438H15.535V38.6367ZM16.503 37.785C16.5976 37.785 16.6798 37.8012 16.7497 37.8336C16.8196 37.8653 16.8736 37.9117 16.9117 37.9727C16.9504 38.0336 16.9698 38.1076 16.9698 38.1946C16.9698 38.2899 16.9492 38.3722 16.9079 38.4414C16.8666 38.51 16.8072 38.563 16.7297 38.6005C16.6522 38.6374 16.5595 38.6558 16.4515 38.6558C16.3791 38.6558 16.3118 38.6494 16.2495 38.6367C16.1873 38.624 16.1349 38.605 16.0923 38.5796V38.429C16.1387 38.457 16.1949 38.4792 16.261 38.4957C16.327 38.5122 16.3912 38.5205 16.4534 38.5205C16.5239 38.5205 16.5855 38.5094 16.6382 38.4871C16.6916 38.4643 16.7329 38.43 16.7621 38.3842C16.792 38.3379 16.8069 38.2798 16.8069 38.2099C16.8069 38.1172 16.7783 38.0457 16.7211 37.9955C16.6646 37.9447 16.575 37.9193 16.4525 37.9193C16.4131 37.9193 16.3699 37.9225 16.3229 37.9288C16.2759 37.9352 16.2371 37.9422 16.2067 37.9498L16.1266 37.8974L16.18 37.2438H16.8726V37.3886H16.3153L16.28 37.8088C16.3041 37.8037 16.3353 37.7986 16.3734 37.7935C16.4115 37.7878 16.4547 37.785 16.503 37.785ZM18.0998 37.9384C18.0998 38.0514 18.0912 38.1524 18.074 38.2413C18.0569 38.3303 18.0299 38.4055 17.993 38.4671C17.9562 38.5287 17.9086 38.5757 17.8501 38.6081C17.7917 38.6399 17.7215 38.6558 17.6396 38.6558C17.536 38.6558 17.4503 38.6275 17.3823 38.571C17.315 38.5144 17.2645 38.4328 17.2308 38.3261C17.1978 38.2188 17.1813 38.0895 17.1813 37.9384C17.1813 37.7897 17.1962 37.6621 17.2261 37.5554C17.2566 37.448 17.3055 37.3658 17.3728 37.3086C17.4401 37.2508 17.5291 37.2219 17.6396 37.2219C17.7444 37.2219 17.8308 37.2505 17.8987 37.3076C17.9667 37.3642 18.0172 37.4461 18.0502 37.5534C18.0832 37.6602 18.0998 37.7885 18.0998 37.9384ZM17.3404 37.9384C17.3404 38.0679 17.3503 38.1759 17.37 38.2623C17.3896 38.3487 17.4214 38.4135 17.4652 38.4567C17.5097 38.4992 17.5678 38.5205 17.6396 38.5205C17.7114 38.5205 17.7692 38.4992 17.813 38.4567C17.8574 38.4141 17.8895 38.3496 17.9092 38.2632C17.9295 38.1769 17.9397 38.0686 17.9397 37.9384C17.9397 37.8107 17.9298 37.704 17.9102 37.6182C17.8905 37.5319 17.8587 37.4671 17.8149 37.4239C17.7711 37.38 17.7126 37.3581 17.6396 37.3581C17.5665 37.3581 17.5081 37.38 17.4643 37.4239C17.4204 37.4671 17.3887 37.5319 17.369 37.6182C17.3499 37.704 17.3404 37.8107 17.3404 37.9384ZM19.2164 37.9384C19.2164 38.0514 19.2078 38.1524 19.1906 38.2413C19.1735 38.3303 19.1465 38.4055 19.1097 38.4671C19.0728 38.5287 19.0252 38.5757 18.9667 38.6081C18.9083 38.6399 18.8381 38.6558 18.7562 38.6558C18.6527 38.6558 18.5669 38.6275 18.499 38.571C18.4316 38.5144 18.3811 38.4328 18.3475 38.3261C18.3144 38.2188 18.2979 38.0895 18.2979 37.9384C18.2979 37.7897 18.3128 37.6621 18.3427 37.5554C18.3732 37.448 18.4221 37.3658 18.4894 37.3086C18.5568 37.2508 18.6457 37.2219 18.7562 37.2219C18.861 37.2219 18.9474 37.2505 19.0153 37.3076C19.0833 37.3642 19.1338 37.4461 19.1668 37.5534C19.1999 37.6602 19.2164 37.7885 19.2164 37.9384ZM18.457 37.9384C18.457 38.0679 18.4669 38.1759 18.4866 38.2623C18.5063 38.3487 18.538 38.4135 18.5818 38.4567C18.6263 38.4992 18.6844 38.5205 18.7562 38.5205C18.828 38.5205 18.8858 38.4992 18.9296 38.4567C18.9741 38.4141 19.0061 38.3496 19.0258 38.2632C19.0461 38.1769 19.0563 38.0686 19.0563 37.9384C19.0563 37.8107 19.0465 37.704 19.0268 37.6182C19.0071 37.5319 18.9753 37.4671 18.9315 37.4239C18.8877 37.38 18.8292 37.3581 18.7562 37.3581C18.6831 37.3581 18.6247 37.38 18.5809 37.4239C18.5371 37.4671 18.5053 37.5319 18.4856 37.6182C18.4666 37.704 18.457 37.8107 18.457 37.9384Z" fill="#212121"/>
<path d="M15.535 46.0273H15.3806V45.0403C15.3806 45.0028 15.3806 44.9708 15.3806 44.9441C15.3813 44.9168 15.3819 44.892 15.3825 44.8698C15.3838 44.8469 15.3854 44.8237 15.3873 44.8002C15.3676 44.8205 15.3492 44.838 15.332 44.8526C15.3149 44.8666 15.2936 44.8841 15.2682 44.905L15.1091 45.0327L15.0262 44.925L15.4035 44.6344H15.535V46.0273ZM16.9831 45.329C16.9831 45.442 16.9746 45.543 16.9574 45.632C16.9403 45.7209 16.9133 45.7961 16.8764 45.8578C16.8396 45.9194 16.792 45.9664 16.7335 45.9988C16.6751 46.0305 16.6049 46.0464 16.523 46.0464C16.4194 46.0464 16.3337 46.0181 16.2657 45.9616C16.1984 45.9051 16.1479 45.8235 16.1142 45.7167C16.0812 45.6094 16.0647 45.4802 16.0647 45.329C16.0647 45.1804 16.0796 45.0527 16.1095 44.946C16.14 44.8386 16.1889 44.7564 16.2562 44.6992C16.3235 44.6414 16.4124 44.6125 16.523 44.6125C16.6278 44.6125 16.7141 44.6411 16.7821 44.6983C16.8501 44.7548 16.9006 44.8367 16.9336 44.9441C16.9666 45.0508 16.9831 45.1791 16.9831 45.329ZM16.2238 45.329C16.2238 45.4586 16.2336 45.5665 16.2533 45.6529C16.273 45.7393 16.3048 45.8041 16.3486 45.8473C16.3931 45.8898 16.4512 45.9111 16.523 45.9111C16.5947 45.9111 16.6525 45.8898 16.6964 45.8473C16.7408 45.8047 16.7729 45.7403 16.7926 45.6539C16.8129 45.5675 16.8231 45.4592 16.8231 45.329C16.8231 45.2013 16.8132 45.0946 16.7935 45.0089C16.7739 44.9225 16.7421 44.8577 16.6983 44.8145C16.6544 44.7707 16.596 44.7488 16.523 44.7488C16.4499 44.7488 16.3915 44.7707 16.3477 44.8145C16.3038 44.8577 16.2721 44.9225 16.2524 45.0089C16.2333 45.0946 16.2238 45.2013 16.2238 45.329ZM18.0998 45.329C18.0998 45.442 18.0912 45.543 18.074 45.632C18.0569 45.7209 18.0299 45.7961 17.993 45.8578C17.9562 45.9194 17.9086 45.9664 17.8501 45.9988C17.7917 46.0305 17.7215 46.0464 17.6396 46.0464C17.536 46.0464 17.4503 46.0181 17.3823 45.9616C17.315 45.9051 17.2645 45.8235 17.2308 45.7167C17.1978 45.6094 17.1813 45.4802 17.1813 45.329C17.1813 45.1804 17.1962 45.0527 17.2261 44.946C17.2566 44.8386 17.3055 44.7564 17.3728 44.6992C17.4401 44.6414 17.5291 44.6125 17.6396 44.6125C17.7444 44.6125 17.8308 44.6411 17.8987 44.6983C17.9667 44.7548 18.0172 44.8367 18.0502 44.9441C18.0832 45.0508 18.0998 45.1791 18.0998 45.329ZM17.3404 45.329C17.3404 45.4586 17.3503 45.5665 17.37 45.6529C17.3896 45.7393 17.4214 45.8041 17.4652 45.8473C17.5097 45.8898 17.5678 45.9111 17.6396 45.9111C17.7114 45.9111 17.7692 45.8898 17.813 45.8473C17.8574 45.8047 17.8895 45.7403 17.9092 45.6539C17.9295 45.5675 17.9397 45.4592 17.9397 45.329C17.9397 45.2013 17.9298 45.0946 17.9102 45.0089C17.8905 44.9225 17.8587 44.8577 17.8149 44.8145C17.7711 44.7707 17.7126 44.7488 17.6396 44.7488C17.5665 44.7488 17.5081 44.7707 17.4643 44.8145C17.4204 44.8577 17.3887 44.9225 17.369 45.0089C17.3499 45.0946 17.3404 45.2013 17.3404 45.329ZM19.2164 45.329C19.2164 45.442 19.2078 45.543 19.1906 45.632C19.1735 45.7209 19.1465 45.7961 19.1097 45.8578C19.0728 45.9194 19.0252 45.9664 18.9667 45.9988C18.9083 46.0305 18.8381 46.0464 18.7562 46.0464C18.6527 46.0464 18.5669 46.0181 18.499 45.9616C18.4316 45.9051 18.3811 45.8235 18.3475 45.7167C18.3144 45.6094 18.2979 45.4802 18.2979 45.329C18.2979 45.1804 18.3128 45.0527 18.3427 44.946C18.3732 44.8386 18.4221 44.7564 18.4894 44.6992C18.5568 44.6414 18.6457 44.6125 18.7562 44.6125C18.861 44.6125 18.9474 44.6411 19.0153 44.6983C19.0833 44.7548 19.1338 44.8367 19.1668 44.9441C19.1999 45.0508 19.2164 45.1791 19.2164 45.329ZM18.457 45.329C18.457 45.4586 18.4669 45.5665 18.4866 45.6529C18.5063 45.7393 18.538 45.8041 18.5818 45.8473C18.6263 45.8898 18.6844 45.9111 18.7562 45.9111C18.828 45.9111 18.8858 45.8898 18.9296 45.8473C18.9741 45.8047 19.0061 45.7403 19.0258 45.6539C19.0461 45.5675 19.0563 45.4592 19.0563 45.329C19.0563 45.2013 19.0465 45.0946 19.0268 45.0089C19.0071 44.9225 18.9753 44.8577 18.9315 44.8145C18.8877 44.7707 18.8292 44.7488 18.7562 44.7488C18.6831 44.7488 18.6247 44.7707 18.5809 44.8145C18.5371 44.8577 18.5053 44.9225 18.4856 45.0089C18.4666 45.0946 18.457 45.2013 18.457 45.329Z" fill="#212121"/>
<path d="M16.5025 52.5662C16.5972 52.5662 16.6794 52.5824 16.7493 52.6148C16.8192 52.6466 16.8732 52.6929 16.9113 52.7539C16.95 52.8149 16.9694 52.8889 16.9694 52.9759C16.9694 53.0712 16.9488 53.1534 16.9075 53.2227C16.8662 53.2913 16.8068 53.3443 16.7293 53.3818C16.6518 53.4186 16.5591 53.437 16.4511 53.437C16.3787 53.437 16.3114 53.4307 16.2491 53.418C16.1869 53.4053 16.1345 53.3862 16.0919 53.3608V53.2103C16.1383 53.2382 16.1945 53.2604 16.2606 53.277C16.3266 53.2935 16.3908 53.3017 16.453 53.3017C16.5235 53.3017 16.5851 53.2906 16.6378 53.2684C16.6912 53.2455 16.7325 53.2112 16.7617 53.1655C16.7915 53.1191 16.8065 53.061 16.8065 52.9911C16.8065 52.8984 16.7779 52.8269 16.7207 52.7768C16.6642 52.726 16.5746 52.7006 16.4521 52.7006C16.4127 52.7006 16.3695 52.7037 16.3225 52.7101C16.2755 52.7164 16.2367 52.7234 16.2062 52.731L16.1262 52.6786L16.1796 52.0251H16.8722V52.1699H16.3149L16.2796 52.59C16.3037 52.585 16.3349 52.5799 16.373 52.5748C16.4111 52.5691 16.4543 52.5662 16.5025 52.5662ZM18.0993 52.7196C18.0993 52.8327 18.0908 52.9337 18.0736 53.0226C18.0565 53.1115 18.0295 53.1868 17.9926 53.2484C17.9558 53.31 17.9082 53.357 17.8497 53.3894C17.7913 53.4211 17.7211 53.437 17.6392 53.437C17.5356 53.437 17.4499 53.4088 17.3819 53.3522C17.3146 53.2957 17.2641 53.2141 17.2304 53.1074C17.1974 53 17.1809 52.8708 17.1809 52.7196C17.1809 52.571 17.1958 52.4433 17.2257 52.3366C17.2562 52.2293 17.3051 52.147 17.3724 52.0898C17.4397 52.032 17.5287 52.0031 17.6392 52.0031C17.744 52.0031 17.8304 52.0317 17.8983 52.0889C17.9663 52.1454 18.0168 52.2274 18.0498 52.3347C18.0828 52.4414 18.0993 52.5697 18.0993 52.7196ZM17.34 52.7196C17.34 52.8492 17.3499 52.9572 17.3695 53.0435C17.3892 53.1299 17.421 53.1947 17.4648 53.2379C17.5093 53.2805 17.5674 53.3017 17.6392 53.3017C17.7109 53.3017 17.7687 53.2805 17.8126 53.2379C17.857 53.1953 17.8891 53.1309 17.9088 53.0445C17.9291 52.9581 17.9393 52.8498 17.9393 52.7196C17.9393 52.5919 17.9294 52.4852 17.9098 52.3995C17.8901 52.3131 17.8583 52.2483 17.8145 52.2051C17.7707 52.1613 17.7122 52.1394 17.6392 52.1394C17.5661 52.1394 17.5077 52.1613 17.4639 52.2051C17.42 52.2483 17.3883 52.3131 17.3686 52.3995C17.3495 52.4852 17.34 52.5919 17.34 52.7196ZM19.216 52.7196C19.216 52.8327 19.2074 52.9337 19.1902 53.0226C19.1731 53.1115 19.1461 53.1868 19.1093 53.2484C19.0724 53.31 19.0248 53.357 18.9663 53.3894C18.9079 53.4211 18.8377 53.437 18.7558 53.437C18.6523 53.437 18.5665 53.4088 18.4985 53.3522C18.4312 53.2957 18.3807 53.2141 18.3471 53.1074C18.314 53 18.2975 52.8708 18.2975 52.7196C18.2975 52.571 18.3124 52.4433 18.3423 52.3366C18.3728 52.2293 18.4217 52.147 18.489 52.0898C18.5563 52.032 18.6453 52.0031 18.7558 52.0031C18.8606 52.0031 18.947 52.0317 19.0149 52.0889C19.0829 52.1454 19.1334 52.2274 19.1664 52.3347C19.1994 52.4414 19.216 52.5697 19.216 52.7196ZM18.4566 52.7196C18.4566 52.8492 18.4665 52.9572 18.4862 53.0435C18.5059 53.1299 18.5376 53.1947 18.5814 53.2379C18.6259 53.2805 18.684 53.3017 18.7558 53.3017C18.8276 53.3017 18.8854 53.2805 18.9292 53.2379C18.9736 53.1953 19.0057 53.1309 19.0254 53.0445C19.0457 52.9581 19.0559 52.8498 19.0559 52.7196C19.0559 52.5919 19.0461 52.4852 19.0264 52.3995C19.0067 52.3131 18.9749 52.2483 18.9311 52.2051C18.8873 52.1613 18.8288 52.1394 18.7558 52.1394C18.6827 52.1394 18.6243 52.1613 18.5805 52.2051C18.5367 52.2483 18.5049 52.3131 18.4852 52.3995C18.4662 52.4852 18.4566 52.5919 18.4566 52.7196Z" fill="#212121"/>
<path d="M16.6512 60.8086H16.4968V59.8216C16.4968 59.7841 16.4968 59.752 16.4968 59.7253C16.4975 59.698 16.4981 59.6732 16.4987 59.651C16.5 59.6281 16.5016 59.605 16.5035 59.5815C16.4838 59.6018 16.4654 59.6193 16.4482 59.6339C16.4311 59.6478 16.4098 59.6653 16.3844 59.6863L16.2253 59.8139L16.1424 59.7063L16.5197 59.4157H16.6512V60.8086ZM18.0993 60.1102C18.0993 60.2233 18.0908 60.3243 18.0736 60.4132C18.0565 60.5021 18.0295 60.5774 17.9926 60.639C17.9558 60.7006 17.9082 60.7476 17.8497 60.78C17.7913 60.8118 17.7211 60.8276 17.6392 60.8276C17.5356 60.8276 17.4499 60.7994 17.3819 60.7429C17.3146 60.6863 17.2641 60.6047 17.2304 60.498C17.1974 60.3907 17.1809 60.2614 17.1809 60.1102C17.1809 59.9616 17.1958 59.8339 17.2257 59.7272C17.2562 59.6199 17.3051 59.5376 17.3724 59.4805C17.4397 59.4227 17.5287 59.3938 17.6392 59.3938C17.744 59.3938 17.8304 59.4224 17.8983 59.4795C17.9663 59.536 18.0168 59.618 18.0498 59.7253C18.0828 59.832 18.0993 59.9603 18.0993 60.1102ZM17.34 60.1102C17.34 60.2398 17.3499 60.3478 17.3695 60.4342C17.3892 60.5205 17.421 60.5853 17.4648 60.6285C17.5093 60.6711 17.5674 60.6924 17.6392 60.6924C17.7109 60.6924 17.7687 60.6711 17.8126 60.6285C17.857 60.586 17.8891 60.5215 17.9088 60.4351C17.9291 60.3487 17.9393 60.2404 17.9393 60.1102C17.9393 59.9826 17.9294 59.8759 17.9098 59.7901C17.8901 59.7037 17.8583 59.6389 17.8145 59.5958C17.7707 59.5519 17.7122 59.53 17.6392 59.53C17.5661 59.53 17.5077 59.5519 17.4639 59.5958C17.42 59.6389 17.3883 59.7037 17.3686 59.7901C17.3495 59.8759 17.34 59.9826 17.34 60.1102ZM19.216 60.1102C19.216 60.2233 19.2074 60.3243 19.1902 60.4132C19.1731 60.5021 19.1461 60.5774 19.1093 60.639C19.0724 60.7006 19.0248 60.7476 18.9663 60.78C18.9079 60.8118 18.8377 60.8276 18.7558 60.8276C18.6523 60.8276 18.5665 60.7994 18.4985 60.7429C18.4312 60.6863 18.3807 60.6047 18.3471 60.498C18.314 60.3907 18.2975 60.2614 18.2975 60.1102C18.2975 59.9616 18.3124 59.8339 18.3423 59.7272C18.3728 59.6199 18.4217 59.5376 18.489 59.4805C18.5563 59.4227 18.6453 59.3938 18.7558 59.3938C18.8606 59.3938 18.947 59.4224 19.0149 59.4795C19.0829 59.536 19.1334 59.618 19.1664 59.7253C19.1994 59.832 19.216 59.9603 19.216 60.1102ZM18.4566 60.1102C18.4566 60.2398 18.4665 60.3478 18.4862 60.4342C18.5059 60.5205 18.5376 60.5853 18.5814 60.6285C18.6259 60.6711 18.684 60.6924 18.7558 60.6924C18.8276 60.6924 18.8854 60.6711 18.9292 60.6285C18.9736 60.586 19.0057 60.5215 19.0254 60.4351C19.0457 60.3487 19.0559 60.2404 19.0559 60.1102C19.0559 59.9826 19.0461 59.8759 19.0264 59.7901C19.0067 59.7037 18.9749 59.6389 18.9311 59.5958C18.8873 59.5519 18.8288 59.53 18.7558 59.53C18.6827 59.53 18.6243 59.5519 18.5805 59.5958C18.5367 59.6389 18.5049 59.7037 18.4852 59.7901C18.4662 59.8759 18.4566 59.9826 18.4566 60.1102Z" fill="#212121"/>
<path d="M19.216 67.497C19.216 67.61 19.2074 67.711 19.1902 67.7999C19.1731 67.8888 19.1461 67.9641 19.1093 68.0257C19.0724 68.0873 19.0248 68.1343 18.9663 68.1667C18.9079 68.1985 18.8377 68.2144 18.7558 68.2144C18.6523 68.2144 18.5665 68.1861 18.4985 68.1296C18.4312 68.073 18.3807 67.9914 18.3471 67.8847C18.314 67.7774 18.2975 67.6481 18.2975 67.497C18.2975 67.3483 18.3124 67.2207 18.3423 67.1139C18.3728 67.0066 18.4217 66.9244 18.489 66.8672C18.5563 66.8094 18.6453 66.7805 18.7558 66.7805C18.8606 66.7805 18.947 66.8091 19.0149 66.8662C19.0829 66.9228 19.1334 67.0047 19.1664 67.112C19.1994 67.2187 19.216 67.3471 19.216 67.497ZM18.4566 67.497C18.4566 67.6265 18.4665 67.7345 18.4862 67.8209C18.5059 67.9073 18.5376 67.9721 18.5814 68.0152C18.6259 68.0578 18.684 68.0791 18.7558 68.0791C18.8276 68.0791 18.8854 68.0578 18.9292 68.0152C18.9736 67.9727 19.0057 67.9082 19.0254 67.8218C19.0457 67.7355 19.0559 67.6272 19.0559 67.497C19.0559 67.3693 19.0461 67.2626 19.0264 67.1768C19.0067 67.0904 18.9749 67.0257 18.9311 66.9825C18.8873 66.9386 18.8288 66.9167 18.7558 66.9167C18.6827 66.9167 18.6243 66.9386 18.5805 66.9825C18.5367 67.0257 18.5049 67.0904 18.4852 67.1768C18.4662 67.2626 18.4566 67.3693 18.4566 67.497Z" fill="#212121"/>
<path d="M30.6407 71.4141H30.4863V70.427C30.4863 70.3895 30.4863 70.3575 30.4863 70.3308C30.487 70.3035 30.4876 70.2787 30.4882 70.2565C30.4895 70.2336 30.4911 70.2104 30.493 70.1869C30.4733 70.2073 30.4549 70.2247 30.4377 70.2393C30.4206 70.2533 30.3993 70.2708 30.3739 70.2917L30.2148 70.4194L30.1319 70.3117L30.5092 70.0212H30.6407V71.4141Z" fill="#212121"/>
<path d="M22.9234 70.7157C22.9234 70.8288 22.9148 70.9298 22.8977 71.0187C22.8805 71.1076 22.8535 71.1829 22.8167 71.2445C22.7799 71.3061 22.7322 71.3531 22.6738 71.3855C22.6153 71.4172 22.5452 71.4331 22.4632 71.4331C22.3597 71.4331 22.2739 71.4049 22.206 71.3483C22.1387 71.2918 22.0882 71.2102 22.0545 71.1035C22.0215 70.9961 22.005 70.8669 22.005 70.7157C22.005 70.5671 22.0199 70.4394 22.0497 70.3327C22.0802 70.2254 22.1291 70.1431 22.1965 70.0859C22.2638 70.0281 22.3527 69.9992 22.4632 69.9992C22.568 69.9992 22.6544 70.0278 22.7224 70.085C22.7903 70.1415 22.8408 70.2235 22.8739 70.3308C22.9069 70.4375 22.9234 70.5658 22.9234 70.7157ZM22.1641 70.7157C22.1641 70.8453 22.1739 70.9533 22.1936 71.0396C22.2133 71.126 22.245 71.1908 22.2889 71.234C22.3333 71.2765 22.3915 71.2978 22.4632 71.2978C22.535 71.2978 22.5928 71.2765 22.6366 71.234C22.6811 71.1914 22.7132 71.127 22.7329 71.0406C22.7532 70.9542 22.7633 70.8459 22.7633 70.7157C22.7633 70.588 22.7535 70.4813 22.7338 70.3956C22.7141 70.3092 22.6824 70.2444 22.6385 70.2012C22.5947 70.1574 22.5363 70.1355 22.4632 70.1355C22.3902 70.1355 22.3317 70.1574 22.2879 70.2012C22.2441 70.2444 22.2123 70.3092 22.1926 70.3956C22.1736 70.4813 22.1641 70.588 22.1641 70.7157Z" fill="#212121"/>
<path d="M39.0134 71.4141H38.1007V71.2816L38.4732 70.9034C38.5425 70.8335 38.6006 70.7713 38.6476 70.7167C38.6952 70.662 38.7314 70.6084 38.7562 70.5556C38.781 70.5023 38.7933 70.4439 38.7933 70.3803C38.7933 70.3016 38.7698 70.2416 38.7228 70.2003C38.6765 70.1583 38.6152 70.1374 38.539 70.1374C38.4723 70.1374 38.4132 70.1488 38.3618 70.1717C38.3103 70.1946 38.2576 70.2269 38.2036 70.2689L38.1188 70.1622C38.1556 70.131 38.1957 70.1034 38.2389 70.0793C38.2827 70.0551 38.3294 70.0361 38.3789 70.0221C38.4291 70.0081 38.4824 70.0011 38.539 70.0011C38.6247 70.0011 38.6987 70.0161 38.761 70.0459C38.8232 70.0758 38.8712 70.1183 38.9048 70.1736C38.9391 70.2288 38.9563 70.2946 38.9563 70.3708C38.9563 70.4445 38.9417 70.5131 38.9124 70.5766C38.8832 70.6395 38.8423 70.702 38.7895 70.7643C38.7368 70.8259 38.6752 70.8913 38.6047 70.9606L38.3017 71.2626V71.2692H39.0134V71.4141Z" fill="#212121"/>
<path d="M47.255 70.346C47.255 70.4083 47.2429 70.4623 47.2187 70.508C47.1946 70.5537 47.161 70.5912 47.1178 70.6204C47.0746 70.649 47.0238 70.669 46.9653 70.6804V70.6881C47.0758 70.702 47.1587 70.7376 47.214 70.7948C47.2699 70.8519 47.2978 70.9269 47.2978 71.0196C47.2978 71.1003 47.2788 71.1717 47.2407 71.234C47.2032 71.2962 47.1454 71.3451 47.0673 71.3807C46.9898 71.4157 46.8904 71.4331 46.7691 71.4331C46.6954 71.4331 46.6271 71.4271 46.5642 71.415C46.502 71.4036 46.4423 71.3842 46.3851 71.3569V71.2083C46.4429 71.2369 46.5058 71.2594 46.5737 71.2759C46.6417 71.2918 46.7074 71.2997 46.771 71.2997C46.898 71.2997 46.9898 71.2746 47.0463 71.2245C47.1028 71.1737 47.1311 71.1044 47.1311 71.0168C47.1311 70.9564 47.1152 70.9078 47.0835 70.871C47.0523 70.8335 47.0072 70.8062 46.9482 70.7891C46.8897 70.7713 46.8192 70.7624 46.7367 70.7624H46.5976V70.6271H46.7376C46.8132 70.6271 46.8774 70.616 46.9301 70.5937C46.9828 70.5715 47.0228 70.5404 47.0501 70.5004C47.0781 70.4597 47.092 70.4118 47.092 70.3565C47.092 70.286 47.0685 70.2317 47.0215 70.1936C46.9745 70.1549 46.9107 70.1355 46.83 70.1355C46.7805 70.1355 46.7354 70.1406 46.6947 70.1507C46.6541 70.1609 46.616 70.1749 46.5804 70.1926C46.5448 70.2104 46.5093 70.2311 46.4737 70.2546L46.3937 70.146C46.4445 70.1066 46.5064 70.0726 46.5795 70.044C46.6525 70.0154 46.7354 70.0011 46.8281 70.0011C46.9704 70.0011 47.0771 70.0335 47.1482 70.0983C47.2194 70.1631 47.255 70.2457 47.255 70.346Z" fill="#212121"/>
<path d="M55.4248 71.0911H55.2161V71.4141H55.0618V71.0911H54.3882V70.9577L55.0513 70.0135H55.2161V70.9482H55.4248V71.0911ZM55.0618 70.9482V70.4928C55.0618 70.4578 55.0621 70.4264 55.0627 70.3984C55.0634 70.3699 55.0643 70.3435 55.0656 70.3194C55.0669 70.2946 55.0678 70.2711 55.0685 70.2489C55.0697 70.2266 55.0707 70.2047 55.0713 70.1831H55.0637C55.0516 70.2085 55.0376 70.2355 55.0218 70.2641C55.0065 70.292 54.991 70.3171 54.9751 70.3394L54.5454 70.9482H55.0618Z" fill="#212121"/>
<path d="M62.9305 70.5623C63.0252 70.5623 63.1074 70.5785 63.1773 70.6109C63.2471 70.6427 63.3011 70.689 63.3392 70.75C63.378 70.811 63.3974 70.885 63.3974 70.972C63.3974 71.0673 63.3767 71.1495 63.3354 71.2187C63.2942 71.2873 63.2348 71.3404 63.1573 71.3779C63.0798 71.4147 62.9871 71.4331 62.8791 71.4331C62.8067 71.4331 62.7393 71.4268 62.6771 71.4141C62.6148 71.4014 62.5624 71.3823 62.5199 71.3569V71.2064C62.5663 71.2343 62.6225 71.2565 62.6885 71.2731C62.7546 71.2896 62.8187 71.2978 62.881 71.2978C62.9515 71.2978 63.0131 71.2867 63.0658 71.2645C63.1192 71.2416 63.1604 71.2073 63.1897 71.1616C63.2195 71.1152 63.2344 71.0571 63.2344 70.9872C63.2344 70.8945 63.2059 70.823 63.1487 70.7729C63.0922 70.7221 63.0026 70.6966 62.88 70.6966C62.8406 70.6966 62.7975 70.6998 62.7505 70.7062C62.7035 70.7125 62.6647 70.7195 62.6342 70.7271L62.5542 70.6747L62.6075 70.0212H63.3002V70.166H62.7428L62.7076 70.5861C62.7317 70.581 62.7628 70.576 62.8009 70.5709C62.8391 70.5652 62.8822 70.5623 62.9305 70.5623Z" fill="#212121"/>
<path d="M70.5535 70.8186C70.5535 70.7348 70.5592 70.6528 70.5706 70.5728C70.5827 70.4928 70.6027 70.4184 70.6306 70.3498C70.6586 70.2806 70.6967 70.22 70.745 70.1679C70.7932 70.1158 70.8533 70.0751 70.925 70.0459C70.9975 70.0161 71.0842 70.0011 71.1851 70.0011C71.2137 70.0011 71.2445 70.0027 71.2776 70.0059C71.3106 70.0084 71.3379 70.0129 71.3595 70.0192V70.1555C71.336 70.1472 71.309 70.1412 71.2785 70.1374C71.2487 70.1336 71.2185 70.1317 71.188 70.1317C71.0699 70.1317 70.9768 70.1574 70.9088 70.2088C70.8415 70.2603 70.7929 70.3302 70.7631 70.4184C70.7332 70.5061 70.7161 70.6049 70.7116 70.7147H70.7221C70.7418 70.683 70.7669 70.6544 70.7974 70.629C70.8279 70.603 70.8647 70.5823 70.9079 70.5671C70.9517 70.5518 71.0025 70.5442 71.0603 70.5442C71.1416 70.5442 71.2125 70.5607 71.2728 70.5937C71.3338 70.6268 71.3808 70.6747 71.4138 70.7376C71.4475 70.8005 71.4643 70.8767 71.4643 70.9663C71.4643 71.0622 71.4465 71.1451 71.4109 71.2149C71.3754 71.2848 71.3246 71.3388 71.2585 71.3769C71.1931 71.4144 71.115 71.4331 71.0241 71.4331C70.9562 71.4331 70.8936 71.4201 70.8364 71.3941C70.7793 71.368 70.7294 71.3293 70.6869 71.2778C70.6449 71.2264 70.6122 71.1625 70.5887 71.0863C70.5652 71.0095 70.5535 70.9202 70.5535 70.8186ZM71.0222 71.2997C71.1086 71.2997 71.1778 71.2721 71.2299 71.2168C71.282 71.1616 71.308 71.0781 71.308 70.9663C71.308 70.8748 71.2849 70.8024 71.2385 70.749C71.1921 70.6957 71.1223 70.669 71.0289 70.669C70.9654 70.669 70.9101 70.6824 70.8631 70.709C70.8161 70.7351 70.7796 70.7681 70.7535 70.8081C70.7275 70.8481 70.7145 70.8888 70.7145 70.9301C70.7145 70.972 70.7205 71.0145 70.7326 71.0577C70.7453 71.1009 70.7643 71.1409 70.7898 71.1778C70.8152 71.2146 70.8472 71.2442 70.886 71.2664C70.9247 71.2886 70.9701 71.2997 71.0222 71.2997Z" fill="#212121"/>
<path d="M78.5249 71.4141L79.0966 70.166H78.3372V70.0212H79.2661V70.1431L78.6983 71.4141H78.5249Z" fill="#212121"/>
<path d="M21.6329 68.9286C21.6329 68.996 21.6875 69.0506 21.7549 69.0506C21.8222 69.0506 21.8768 68.996 21.8768 68.9286H21.6329ZM21.7549 21.8555H21.6329V68.9286H21.7549H21.8768V21.8555H21.7549Z" fill="#D4D4D4"/>
<path d="M21.7549 68.9297H78.0963" stroke="#D4D4D4" stroke-width="0.243902"/>
<path opacity="0.8" d="M21.6748 65.2275C21.6748 65.2275 22.1404 34.9614 28.8339 33.0407C35.5274 31.12 38.9003 42.5077 46.7025 46.3694C52.9579 49.4655 53.3378 51.0839 63.6981 51.8988C74.0584 52.7137 77.9746 61.8543 77.9746 61.8543" stroke="#959595" stroke-width="0.349224"/>
<path opacity="0.8" d="M21.7549 65.269C21.7549 65.269 33.95 62.2205 37.7305 54.5373C41.511 46.8542 38.95 34.781 47.6085 34.4153C59.0617 33.9316 51.0232 53.0739 62.1207 55.0251C73.2183 56.9764 78.2183 65.6349 78.2183 65.6349" stroke="#861DFF" stroke-width="0.349224"/>
<circle cx="21.7322" cy="65.282" r="0.465632" fill="#5F00CB"/>
<circle cx="29.7811" cy="32.8055" r="0.465632" fill="#7B7B7B"/>
<circle cx="37.8299" cy="38.1727" r="0.465632" fill="#7B7B7B"/>
<circle cx="45.8787" cy="45.9774" r="0.465632" fill="#7B7B7B"/>
<circle cx="53.9275" cy="50.1219" r="0.465632" fill="#7B7B7B"/>
<circle cx="61.9764" cy="51.8289" r="0.465632" fill="#7B7B7B"/>
<circle cx="70.0252" cy="53.5359" r="0.465632" fill="#7B7B7B"/>
<circle cx="78.074" cy="61.8289" r="0.465632" fill="#7B7B7B"/>
<path opacity="0.8" d="M21.6748 67.5545C21.6748 67.5545 25.3999 50.6172 32.0933 48.6965C38.7868 46.7757 46.6598 51.1139 52.4647 57.6017C56.4226 62.0252 57.3539 66.7397 67.7142 67.5545C78.0745 68.3694 78.0965 65.9998 78.0965 65.9998" stroke="#0873FF" stroke-width="0.349224"/>
<path opacity="0.8" d="M21.7542 67.6384C21.7542 67.6384 21.2201 60.0857 32.1579 60.0853C43.0958 60.0849 50.7787 41.6094 61.9982 41.6094C68.4616 41.6094 70.5348 44.9021 78.0957 52.0972" stroke="#ACE322" stroke-width="0.349224"/>
<path opacity="0.8" d="M21.7549 67.4699C21.7549 67.4699 30.7793 68.807 34.9256 51.9774C39.072 35.1478 57.1207 35.148 61.6329 48.6846C63.9583 55.6606 64.4378 56.977 67.4866 60.2697C70.5354 63.5624 78.0963 65.2904 78.0963 65.2904" stroke="#FFD000" stroke-width="0.349224"/>
<g filter="url(#filter0_d_7899_82922)">
<rect x="25.4111" y="27.9492" width="8.29268" height="3.65854" rx="1.82927" fill="white"/>
</g>
<path d="M28.149 30.4375H27.2058V30.2689L27.5669 29.903C27.6368 29.8319 27.6943 29.7706 27.7394 29.7191C27.7844 29.667 27.8178 29.6178 27.8394 29.5715C27.8616 29.5251 27.8727 29.4746 27.8727 29.42C27.8727 29.3526 27.8534 29.3018 27.8146 29.2675C27.7759 29.2326 27.7247 29.2151 27.6612 29.2151C27.6009 29.2151 27.545 29.2272 27.4935 29.2513C27.4427 29.2748 27.39 29.3085 27.3354 29.3523L27.2125 29.2046C27.2512 29.1716 27.2925 29.1415 27.3363 29.1141C27.3808 29.0868 27.4303 29.0652 27.485 29.0494C27.5396 29.0328 27.6018 29.0246 27.6717 29.0246C27.76 29.0246 27.8362 29.0405 27.9004 29.0722C27.9645 29.1033 28.0137 29.1468 28.048 29.2027C28.083 29.2586 28.1004 29.3237 28.1004 29.3981C28.1004 29.473 28.0855 29.5422 28.0557 29.6058C28.0258 29.6693 27.9833 29.7322 27.928 29.7944C27.8727 29.856 27.807 29.923 27.7308 29.9954L27.4897 30.2308V30.2412H28.149V30.4375ZM29.2656 29.7401C29.2656 29.8525 29.2568 29.9532 29.239 30.0421C29.2218 30.1304 29.1945 30.2053 29.157 30.267C29.1196 30.3286 29.0707 30.3756 29.0103 30.408C28.95 30.4404 28.8769 30.4566 28.7912 30.4566C28.6838 30.4566 28.5952 30.4283 28.5254 30.3718C28.4555 30.3146 28.4037 30.2327 28.3701 30.126C28.3364 30.0186 28.3196 29.89 28.3196 29.7401C28.3196 29.5902 28.3348 29.4619 28.3653 29.3552C28.3964 29.2478 28.4466 29.1656 28.5158 29.1084C28.5851 29.0513 28.6769 29.0227 28.7912 29.0227C28.8992 29.0227 28.9881 29.0513 29.058 29.1084C29.1285 29.165 29.1805 29.2469 29.2142 29.3542C29.2485 29.4609 29.2656 29.5896 29.2656 29.7401ZM28.5454 29.7401C28.5454 29.8576 28.553 29.9557 28.5682 30.0345C28.5841 30.1132 28.6102 30.1723 28.6464 30.2117C28.6826 30.2504 28.7308 30.2698 28.7912 30.2698C28.8515 30.2698 28.8998 30.2504 28.936 30.2117C28.9722 30.173 28.9982 30.1142 29.0141 30.0354C29.0306 29.9567 29.0389 29.8582 29.0389 29.7401C29.0389 29.6232 29.031 29.5254 29.0151 29.4466C28.9992 29.3679 28.9732 29.3088 28.937 29.2694C28.9007 29.2294 28.8522 29.2094 28.7912 29.2094C28.7302 29.2094 28.6816 29.2294 28.6454 29.2694C28.6098 29.3088 28.5841 29.3679 28.5682 29.4466C28.553 29.5254 28.5454 29.6232 28.5454 29.7401ZM30.3823 29.7401C30.3823 29.8525 30.3734 29.9532 30.3556 30.0421C30.3384 30.1304 30.3111 30.2053 30.2737 30.267C30.2362 30.3286 30.1873 30.3756 30.1269 30.408C30.0666 30.4404 29.9935 30.4566 29.9078 30.4566C29.8005 30.4566 29.7119 30.4283 29.642 30.3718C29.5721 30.3146 29.5203 30.2327 29.4867 30.126C29.453 30.0186 29.4362 29.89 29.4362 29.7401C29.4362 29.5902 29.4514 29.4619 29.4819 29.3552C29.513 29.2478 29.5632 29.1656 29.6325 29.1084C29.7017 29.0513 29.7935 29.0227 29.9078 29.0227C30.0158 29.0227 30.1047 29.0513 30.1746 29.1084C30.2451 29.165 30.2972 29.2469 30.3308 29.3542C30.3651 29.4609 30.3823 29.5896 30.3823 29.7401ZM29.662 29.7401C29.662 29.8576 29.6696 29.9557 29.6849 30.0345C29.7007 30.1132 29.7268 30.1723 29.763 30.2117C29.7992 30.2504 29.8475 30.2698 29.9078 30.2698C29.9681 30.2698 30.0164 30.2504 30.0526 30.2117C30.0888 30.173 30.1149 30.1142 30.1307 30.0354C30.1473 29.9567 30.1555 29.8582 30.1555 29.7401C30.1555 29.6232 30.1476 29.5254 30.1317 29.4466C30.1158 29.3679 30.0898 29.3088 30.0536 29.2694C30.0174 29.2294 29.9688 29.2094 29.9078 29.2094C29.8468 29.2094 29.7982 29.2294 29.762 29.2694C29.7265 29.3088 29.7007 29.3679 29.6849 29.4466C29.6696 29.5254 29.662 29.6232 29.662 29.7401ZM31.4989 29.7401C31.4989 29.8525 31.49 29.9532 31.4722 30.0421C31.4551 30.1304 31.4277 30.2053 31.3903 30.267C31.3528 30.3286 31.3039 30.3756 31.2435 30.408C31.1832 30.4404 31.1102 30.4566 31.0244 30.4566C30.9171 30.4566 30.8285 30.4283 30.7586 30.3718C30.6887 30.3146 30.637 30.2327 30.6033 30.126C30.5696 30.0186 30.5528 29.89 30.5528 29.7401C30.5528 29.5902 30.568 29.4619 30.5985 29.3552C30.6297 29.2478 30.6798 29.1656 30.7491 29.1084C30.8183 29.0513 30.9101 29.0227 31.0244 29.0227C31.1324 29.0227 31.2213 29.0513 31.2912 29.1084C31.3617 29.165 31.4138 29.2469 31.4474 29.3542C31.4817 29.4609 31.4989 29.5896 31.4989 29.7401ZM30.7786 29.7401C30.7786 29.8576 30.7862 29.9557 30.8015 30.0345C30.8174 30.1132 30.8434 30.1723 30.8796 30.2117C30.9158 30.2504 30.9641 30.2698 31.0244 30.2698C31.0848 30.2698 31.133 30.2504 31.1692 30.2117C31.2054 30.173 31.2315 30.1142 31.2474 30.0354C31.2639 29.9567 31.2721 29.8582 31.2721 29.7401C31.2721 29.6232 31.2642 29.5254 31.2483 29.4466C31.2324 29.3679 31.2064 29.3088 31.1702 29.2694C31.134 29.2294 31.0854 29.2094 31.0244 29.2094C30.9634 29.2094 30.9148 29.2294 30.8786 29.2694C30.8431 29.3088 30.8174 29.3679 30.8015 29.4466C30.7862 29.5254 30.7786 29.6232 30.7786 29.7401Z" fill="#444444"/>
<g filter="url(#filter1_d_7899_82922)">
<rect x="51.0225" y="54.7812" width="5.85366" height="3.65854" rx="1.82927" fill="white"/>
</g>
<path d="M53.2731 57.2695H52.3298V57.1009L52.6909 56.735C52.7608 56.6639 52.8183 56.6026 52.8634 56.5512C52.9085 56.4991 52.9418 56.4499 52.9634 56.4035C52.9856 56.3571 52.9968 56.3066 52.9968 56.252C52.9968 56.1847 52.9774 56.1339 52.9386 56.0996C52.8999 56.0646 52.8488 56.0472 52.7853 56.0472C52.7249 56.0472 52.669 56.0592 52.6176 56.0834C52.5668 56.1069 52.514 56.1405 52.4594 56.1844L52.3365 56.0367C52.3753 56.0037 52.4165 55.9735 52.4604 55.9462C52.5048 55.9189 52.5544 55.8973 52.609 55.8814C52.6636 55.8649 52.7259 55.8566 52.7957 55.8566C52.884 55.8566 52.9602 55.8725 53.0244 55.9042C53.0885 55.9354 53.1378 55.9789 53.1721 56.0348C53.207 56.0907 53.2245 56.1558 53.2245 56.2301C53.2245 56.305 53.2095 56.3743 53.1797 56.4378C53.1498 56.5013 53.1073 56.5642 53.052 56.6264C52.9968 56.688 52.931 56.755 52.8548 56.8275L52.6138 57.0628V57.0733H53.2731V57.2695ZM54.3897 56.5721C54.3897 56.6845 54.3808 56.7852 54.363 56.8741C54.3458 56.9624 54.3185 57.0374 54.2811 57.099C54.2436 57.1606 54.1947 57.2076 54.1343 57.24C54.074 57.2724 54.001 57.2886 53.9152 57.2886C53.8079 57.2886 53.7193 57.2603 53.6494 57.2038C53.5795 57.1466 53.5278 57.0647 53.4941 56.958C53.4604 56.8506 53.4436 56.722 53.4436 56.5721C53.4436 56.4222 53.4588 56.2939 53.4893 56.1872C53.5205 56.0799 53.5706 55.9976 53.6399 55.9405C53.7091 55.8833 53.8009 55.8547 53.9152 55.8547C54.0232 55.8547 54.1121 55.8833 54.182 55.9405C54.2525 55.997 54.3046 56.0789 54.3382 56.1863C54.3725 56.293 54.3897 56.4216 54.3897 56.5721ZM53.6694 56.5721C53.6694 56.6896 53.677 56.7878 53.6923 56.8665C53.7081 56.9453 53.7342 57.0044 53.7704 57.0437C53.8066 57.0825 53.8549 57.1018 53.9152 57.1018C53.9755 57.1018 54.0238 57.0825 54.06 57.0437C54.0962 57.005 54.1223 56.9462 54.1381 56.8675C54.1547 56.7887 54.1629 56.6903 54.1629 56.5721C54.1629 56.4553 54.155 56.3574 54.1391 56.2787C54.1232 56.1999 54.0972 56.1408 54.061 56.1015C54.0248 56.0615 53.9762 56.0414 53.9152 56.0414C53.8542 56.0414 53.8056 56.0615 53.7694 56.1015C53.7339 56.1408 53.7081 56.1999 53.6923 56.2787C53.677 56.3574 53.6694 56.4553 53.6694 56.5721ZM55.5063 56.5721C55.5063 56.6845 55.4974 56.7852 55.4796 56.8741C55.4625 56.9624 55.4351 57.0374 55.3977 57.099C55.3602 57.1606 55.3113 57.2076 55.251 57.24C55.1906 57.2724 55.1176 57.2886 55.0318 57.2886C54.9245 57.2886 54.8359 57.2603 54.766 57.2038C54.6961 57.1466 54.6444 57.0647 54.6107 56.958C54.577 56.8506 54.5602 56.722 54.5602 56.5721C54.5602 56.4222 54.5755 56.2939 54.6059 56.1872C54.6371 56.0799 54.6872 55.9976 54.7565 55.9405C54.8257 55.8833 54.9175 55.8547 55.0318 55.8547C55.1398 55.8547 55.2287 55.8833 55.2986 55.9405C55.3691 55.997 55.4212 56.0789 55.4548 56.1863C55.4891 56.293 55.5063 56.4216 55.5063 56.5721ZM54.786 56.5721C54.786 56.6896 54.7936 56.7878 54.8089 56.8665C54.8248 56.9453 54.8508 57.0044 54.887 57.0437C54.9232 57.0825 54.9715 57.1018 55.0318 57.1018C55.0922 57.1018 55.1404 57.0825 55.1766 57.0437C55.2128 57.005 55.2389 56.9462 55.2548 56.8675C55.2713 56.7887 55.2795 56.6903 55.2795 56.5721C55.2795 56.4553 55.2716 56.3574 55.2557 56.2787C55.2398 56.1999 55.2138 56.1408 55.1776 56.1015C55.1414 56.0615 55.0928 56.0414 55.0318 56.0414C54.9708 56.0414 54.9223 56.0615 54.8861 56.1015C54.8505 56.1408 54.8248 56.1999 54.8089 56.2787C54.7936 56.3574 54.786 56.4553 54.786 56.5721Z" fill="#444444"/>
<g filter="url(#filter2_d_7899_82922)">
<rect x="50.5361" y="34.0469" width="6.34146" height="3.65854" rx="1.82927" fill="white"/>
</g>
<path d="M52.0136 36.5352H51.7887V35.6386C51.7887 35.6088 51.789 35.5789 51.7897 35.5491C51.7903 35.5192 51.791 35.49 51.7916 35.4614C51.7929 35.4328 51.7944 35.4055 51.7964 35.3795C51.783 35.3941 51.7665 35.41 51.7468 35.4271C51.7278 35.4443 51.7074 35.462 51.6858 35.4805L51.5258 35.6081L51.4133 35.4662L51.8268 35.1422H52.0136V36.5352ZM52.9454 35.6643C53.0349 35.6643 53.1137 35.6805 53.1816 35.7129C53.2502 35.7447 53.3036 35.7917 53.3417 35.8539C53.3798 35.9156 53.3989 35.9911 53.3989 36.0807C53.3989 36.1785 53.3782 36.263 53.3369 36.3341C53.2957 36.4046 53.235 36.4589 53.155 36.497C53.0749 36.5352 52.9774 36.5542 52.8625 36.5542C52.7894 36.5542 52.7211 36.5479 52.6576 36.5352C52.5948 36.5225 52.5404 36.5034 52.4947 36.478V36.276C52.5423 36.3027 52.5995 36.3246 52.6662 36.3417C52.7329 36.3583 52.7967 36.3665 52.8577 36.3665C52.9225 36.3665 52.9781 36.357 53.0244 36.3379C53.0708 36.3189 53.1064 36.2897 53.1311 36.2503C53.1566 36.2109 53.1693 36.161 53.1693 36.1007C53.1693 36.0207 53.1435 35.9591 53.0921 35.9159C53.0413 35.872 52.9616 35.8501 52.8529 35.8501C52.8148 35.8501 52.7742 35.8536 52.731 35.8606C52.6884 35.867 52.6529 35.874 52.6243 35.8816L52.5262 35.8235L52.5786 35.1422H53.3026V35.3395H52.7758L52.7453 35.6863C52.7681 35.6812 52.7955 35.6764 52.8272 35.672C52.859 35.6669 52.8984 35.6643 52.9454 35.6643ZM54.5317 35.8377C54.5317 35.9502 54.5228 36.0508 54.505 36.1398C54.4879 36.2281 54.4605 36.303 54.4231 36.3646C54.3856 36.4262 54.3367 36.4732 54.2763 36.5056C54.216 36.538 54.143 36.5542 54.0572 36.5542C53.9499 36.5542 53.8613 36.5259 53.7914 36.4694C53.7215 36.4123 53.6698 36.3303 53.6361 36.2236C53.6024 36.1163 53.5856 35.9876 53.5856 35.8377C53.5856 35.6878 53.6008 35.5595 53.6313 35.4528C53.6625 35.3455 53.7126 35.2632 53.7819 35.2061C53.8511 35.1489 53.9429 35.1203 54.0572 35.1203C54.1652 35.1203 54.2541 35.1489 54.324 35.2061C54.3945 35.2626 54.4466 35.3445 54.4802 35.4519C54.5145 35.5586 54.5317 35.6872 54.5317 35.8377ZM53.8114 35.8377C53.8114 35.9553 53.819 36.0534 53.8343 36.1321C53.8501 36.2109 53.8762 36.27 53.9124 36.3094C53.9486 36.3481 53.9969 36.3675 54.0572 36.3675C54.1176 36.3675 54.1658 36.3481 54.202 36.3094C54.2382 36.2706 54.2643 36.2119 54.2802 36.1331C54.2967 36.0543 54.3049 35.9559 54.3049 35.8377C54.3049 35.7209 54.297 35.6231 54.2811 35.5443C54.2652 35.4655 54.2392 35.4065 54.203 35.3671C54.1668 35.3271 54.1182 35.3071 54.0572 35.3071C53.9962 35.3071 53.9476 35.3271 53.9114 35.3671C53.8759 35.4065 53.8501 35.4655 53.8343 35.5443C53.819 35.6231 53.8114 35.7209 53.8114 35.8377ZM55.6483 35.8377C55.6483 35.9502 55.6394 36.0508 55.6216 36.1398C55.6045 36.2281 55.5772 36.303 55.5397 36.3646C55.5022 36.4262 55.4533 36.4732 55.393 36.5056C55.3326 36.538 55.2596 36.5542 55.1738 36.5542C55.0665 36.5542 54.9779 36.5259 54.908 36.4694C54.8381 36.4123 54.7864 36.3303 54.7527 36.2236C54.7191 36.1163 54.7022 35.9876 54.7022 35.8377C54.7022 35.6878 54.7175 35.5595 54.748 35.4528C54.7791 35.3455 54.8293 35.2632 54.8985 35.2061C54.9677 35.1489 55.0595 35.1203 55.1738 35.1203C55.2818 35.1203 55.3707 35.1489 55.4406 35.2061C55.5111 35.2626 55.5632 35.3445 55.5968 35.4519C55.6311 35.5586 55.6483 35.6872 55.6483 35.8377ZM54.928 35.8377C54.928 35.9553 54.9356 36.0534 54.9509 36.1321C54.9668 36.2109 54.9928 36.27 55.029 36.3094C55.0652 36.3481 55.1135 36.3675 55.1738 36.3675C55.2342 36.3675 55.2824 36.3481 55.3186 36.3094C55.3548 36.2706 55.3809 36.2119 55.3968 36.1331C55.4133 36.0543 55.4215 35.9559 55.4215 35.8377C55.4215 35.7209 55.4136 35.6231 55.3977 35.5443C55.3818 35.4655 55.3558 35.4065 55.3196 35.3671C55.2834 35.3271 55.2348 35.3071 55.1738 35.3071C55.1129 35.3071 55.0643 35.3271 55.0281 35.3671C54.9925 35.4065 54.9668 35.4655 54.9509 35.5443C54.9356 35.6231 54.928 35.7209 54.928 35.8377Z" fill="#444444"/>
<circle cx="21.7322" cy="67.6102" r="0.465632" fill="#C19E00"/>
<circle cx="29.7811" cy="50.1219" r="0.465632" fill="#1A71E2"/>
<circle cx="29.7811" cy="63.2938" r="0.465632" fill="#C19E00"/>
<circle cx="29.7811" cy="61.8289" r="0.465632" fill="#5F00CB"/>
<circle cx="37.8299" cy="54.2703" r="0.465632" fill="#5F00CB"/>
<circle cx="45.8787" cy="34.5125" r="0.465632" fill="#5F00CB"/>
<circle cx="53.9275" cy="38.657" r="0.465632" fill="#5F00CB"/>
<circle cx="61.9764" cy="55.0008" r="0.465632" fill="#5F00CB"/>
<circle cx="70.0252" cy="57.9266" r="0.465632" fill="#5F00CB"/>
<circle cx="37.8299" cy="48.4149" r="0.465632" fill="#1A71E2"/>
<circle cx="37.8299" cy="45.243" r="0.465632" fill="#C19E00"/>
<circle cx="45.8787" cy="51.8289" r="0.465632" fill="#92C219"/>
<circle cx="37.8299" cy="58.657" r="0.465632" fill="#92C219"/>
<circle cx="53.9275" cy="44.5125" r="0.465632" fill="#92C219"/>
<circle cx="61.9764" cy="41.5867" r="0.465632" fill="#92C219"/>
<circle cx="70.0252" cy="44.5125" r="0.465632" fill="#92C219"/>
<circle cx="78.3172" cy="52.075" r="0.465632" fill="#92C219"/>
<circle cx="53.9275" cy="59.3914" r="0.465632" fill="#1A71E2"/>
<circle cx="61.9764" cy="66.4656" r="0.465632" fill="#1A71E2"/>
<circle cx="70.0252" cy="67.6844" r="0.465632" fill="#1A71E2"/>
<circle cx="78.074" cy="65.9773" r="0.465632" fill="#1A71E2"/>
<g filter="url(#filter3_d_7899_82922)">
<rect x="26.877" y="58.4375" width="5.85366" height="3.65854" rx="1.82927" fill="white"/>
</g>
<path d="M29.1413 59.5138C29.222 59.5138 29.2947 59.5265 29.3595 59.5519C29.4243 59.5767 29.4758 59.6139 29.5139 59.6634C29.552 59.7129 29.571 59.7742 29.571 59.8473C29.571 59.9038 29.5593 59.953 29.5358 59.995C29.5129 60.0369 29.4818 60.0737 29.4424 60.1055C29.403 60.1366 29.3589 60.1642 29.31 60.1884C29.3646 60.215 29.4148 60.2458 29.4605 60.2808C29.5069 60.3151 29.544 60.3554 29.572 60.4018C29.6006 60.4481 29.6149 60.5024 29.6149 60.5647C29.6149 60.6428 29.5948 60.7105 29.5548 60.7676C29.5155 60.8242 29.4605 60.868 29.39 60.8991C29.3195 60.9296 29.2372 60.9448 29.1432 60.9448C29.0423 60.9448 28.9562 60.9299 28.8851 60.9001C28.8139 60.8702 28.7599 60.8276 28.7231 60.7724C28.6862 60.7165 28.6678 60.6498 28.6678 60.5723C28.6678 60.5082 28.6805 60.4526 28.7059 60.4056C28.7313 60.3586 28.7653 60.3179 28.8079 60.2836C28.8511 60.2493 28.8984 60.2204 28.9498 60.1969C28.906 60.1709 28.866 60.1417 28.8298 60.1093C28.7936 60.0763 28.7647 60.0385 28.7431 59.9959C28.7221 59.9527 28.7117 59.9029 28.7117 59.8463C28.7117 59.7739 28.731 59.7133 28.7698 59.6643C28.8085 59.6148 28.8603 59.5773 28.9251 59.5519C28.9905 59.5265 29.0626 59.5138 29.1413 59.5138ZM28.8812 60.5637C28.8812 60.6247 28.9028 60.6749 28.946 60.7143C28.9892 60.7537 29.0537 60.7733 29.1394 60.7733C29.2245 60.7733 29.2893 60.754 29.3338 60.7152C29.3783 60.6765 29.4005 60.6253 29.4005 60.5618C29.4005 60.5212 29.3891 60.4853 29.3662 60.4542C29.344 60.4231 29.3138 60.3954 29.2757 60.3713C29.2382 60.3465 29.1966 60.3236 29.1509 60.3027L29.1204 60.2903C29.0708 60.3113 29.0283 60.3351 28.9927 60.3618C28.9571 60.3878 28.9295 60.4173 28.9098 60.4504C28.8908 60.4834 28.8812 60.5212 28.8812 60.5637ZM29.1394 59.6863C29.0778 59.6863 29.027 59.7015 28.987 59.732C28.9476 59.7618 28.9279 59.805 28.9279 59.8616C28.9279 59.9016 28.9375 59.9359 28.9565 59.9645C28.9762 59.993 29.0026 60.0178 29.0356 60.0388C29.0686 60.0591 29.1051 60.0782 29.1452 60.0959C29.1839 60.0788 29.2188 60.0601 29.25 60.0397C29.2817 60.0188 29.3068 59.994 29.3252 59.9654C29.3443 59.9362 29.3538 59.9013 29.3538 59.8606C29.3538 59.8047 29.3338 59.7618 29.2938 59.732C29.2544 59.7015 29.203 59.6863 29.1394 59.6863ZM30.7315 60.2284C30.7315 60.3408 30.7226 60.4415 30.7048 60.5304C30.6876 60.6187 30.6603 60.6936 30.6229 60.7552C30.5854 60.8169 30.5365 60.8639 30.4761 60.8962C30.4158 60.9286 30.3427 60.9448 30.257 60.9448C30.1497 60.9448 30.0611 60.9166 29.9912 60.86C29.9213 60.8029 29.8696 60.7209 29.8359 60.6142C29.8022 60.5069 29.7854 60.3783 29.7854 60.2284C29.7854 60.0785 29.8006 59.9502 29.8311 59.8435C29.8622 59.7361 29.9124 59.6539 29.9817 59.5967C30.0509 59.5395 30.1427 59.511 30.257 59.511C30.365 59.511 30.4539 59.5395 30.5238 59.5967C30.5943 59.6532 30.6464 59.7352 30.68 59.8425C30.7143 59.9492 30.7315 60.0778 30.7315 60.2284ZM30.0112 60.2284C30.0112 60.3459 30.0188 60.444 30.0341 60.5228C30.0499 60.6015 30.076 60.6606 30.1122 60.7C30.1484 60.7387 30.1967 60.7581 30.257 60.7581C30.3173 60.7581 30.3656 60.7387 30.4018 60.7C30.438 60.6612 30.4641 60.6025 30.4799 60.5237C30.4965 60.445 30.5047 60.3465 30.5047 60.2284C30.5047 60.1115 30.4968 60.0137 30.4809 59.9349C30.465 59.8562 30.439 59.7971 30.4028 59.7577C30.3666 59.7177 30.318 59.6977 30.257 59.6977C30.196 59.6977 30.1474 59.7177 30.1112 59.7577C30.0757 59.7971 30.0499 59.8562 30.0341 59.9349C30.0188 60.0137 30.0112 60.1115 30.0112 60.2284Z" fill="#444444"/>
<circle cx="45.8797" cy="39.3914" r="0.465632" fill="#C19E00"/>
<circle cx="53.9285" cy="39.8797" r="0.465632" fill="#C19E00"/>
<circle cx="61.9764" cy="49.6375" r="0.465632" fill="#C19E00"/>
<circle cx="70.0252" cy="62.3211" r="0.465632" fill="#C19E00"/>
<circle cx="78.074" cy="65.2469" r="0.465632" fill="#5F00CB"/>
<defs>
<filter id="filter0_d_7899_82922" x="24.5029" y="27.9492" width="10.1095" height="5.47672" filterUnits="userSpaceOnUse" color-interpolation-filters="sRGB">
<feFlood flood-opacity="0" result="BackgroundImageFix"/>
<feColorMatrix in="SourceAlpha" type="matrix" values="0 0 0 0 0 0 0 0 0 0 0 0 0 0 0 0 0 0 127 0" result="hardAlpha"/>
<feOffset dy="0.908283"/>
<feGaussianBlur stdDeviation="0.454141"/>
<feComposite in2="hardAlpha" operator="out"/>
<feColorMatrix type="matrix" values="0 0 0 0 0 0 0 0 0 0 0 0 0 0 0 0 0 0 0.25 0"/>
<feBlend mode="normal" in2="BackgroundImageFix" result="effect1_dropShadow_7899_82922"/>
<feBlend mode="normal" in="SourceGraphic" in2="effect1_dropShadow_7899_82922" result="shape"/>
</filter>
<filter id="filter1_d_7899_82922" x="50.1142" y="54.7812" width="7.67008" height="5.47672" filterUnits="userSpaceOnUse" color-interpolation-filters="sRGB">
<feFlood flood-opacity="0" result="BackgroundImageFix"/>
<feColorMatrix in="SourceAlpha" type="matrix" values="0 0 0 0 0 0 0 0 0 0 0 0 0 0 0 0 0 0 127 0" result="hardAlpha"/>
<feOffset dy="0.908283"/>
<feGaussianBlur stdDeviation="0.454141"/>
<feComposite in2="hardAlpha" operator="out"/>
<feColorMatrix type="matrix" values="0 0 0 0 0 0 0 0 0 0 0 0 0 0 0 0 0 0 0.25 0"/>
<feBlend mode="normal" in2="BackgroundImageFix" result="effect1_dropShadow_7899_82922"/>
<feBlend mode="normal" in="SourceGraphic" in2="effect1_dropShadow_7899_82922" result="shape"/>
</filter>
<filter id="filter2_d_7899_82922" x="49.6279" y="34.0469" width="8.15836" height="5.47672" filterUnits="userSpaceOnUse" color-interpolation-filters="sRGB">
<feFlood flood-opacity="0" result="BackgroundImageFix"/>
<feColorMatrix in="SourceAlpha" type="matrix" values="0 0 0 0 0 0 0 0 0 0 0 0 0 0 0 0 0 0 127 0" result="hardAlpha"/>
<feOffset dy="0.908283"/>
<feGaussianBlur stdDeviation="0.454141"/>
<feComposite in2="hardAlpha" operator="out"/>
<feColorMatrix type="matrix" values="0 0 0 0 0 0 0 0 0 0 0 0 0 0 0 0 0 0 0.25 0"/>
<feBlend mode="normal" in2="BackgroundImageFix" result="effect1_dropShadow_7899_82922"/>
<feBlend mode="normal" in="SourceGraphic" in2="effect1_dropShadow_7899_82922" result="shape"/>
</filter>
<filter id="filter3_d_7899_82922" x="25.9687" y="58.4375" width="7.67008" height="5.47672" filterUnits="userSpaceOnUse" color-interpolation-filters="sRGB">
<feFlood flood-opacity="0" result="BackgroundImageFix"/>
<feColorMatrix in="SourceAlpha" type="matrix" values="0 0 0 0 0 0 0 0 0 0 0 0 0 0 0 0 0 0 127 0" result="hardAlpha"/>
<feOffset dy="0.908283"/>
<feGaussianBlur stdDeviation="0.454141"/>
<feComposite in2="hardAlpha" operator="out"/>
<feColorMatrix type="matrix" values="0 0 0 0 0 0 0 0 0 0 0 0 0 0 0 0 0 0 0.25 0"/>
<feBlend mode="normal" in2="BackgroundImageFix" result="effect1_dropShadow_7899_82922"/>
<feBlend mode="normal" in="SourceGraphic" in2="effect1_dropShadow_7899_82922" result="shape"/>
</filter>
</defs>
</svg>
