<svg width="409" height="393" viewBox="0 0 409 393" fill="none" xmlns="http://www.w3.org/2000/svg">
<rect x="1.32164" y="1.05211" width="406.355" height="390.896" rx="17.1155" fill="white" stroke="#EFEFEF" stroke-width="1.10423"/>
<path d="M54.876 236.251H351.912C370.512 236.251 385.591 251.33 385.591 269.931C385.591 288.531 370.512 303.609 351.912 303.609H54.875C36.2751 303.609 21.1965 288.531 21.1963 269.931C21.1963 251.33 36.2757 236.251 54.876 236.251Z" fill="url(#paint0_linear_7037_93336)" stroke="#ECECEC" stroke-width="1.10423"/>
<rect x="23.2972" y="331.102" width="271.86" height="38.8687" rx="19.4344" stroke="#EFEFEF" stroke-width="0.88338"/>
<path d="M42.1099 356.035H40.8191V346.132H37.3468V344.999H45.567V346.132H42.1099V356.035ZM54.1798 351.884C54.1798 352.563 54.0917 353.169 53.9156 353.703C53.7395 354.236 53.4853 354.687 53.1532 355.054C52.8211 355.421 52.4185 355.703 51.9454 355.899C51.4774 356.091 50.9465 356.186 50.3527 356.186C49.7992 356.186 49.2909 356.091 48.8279 355.899C48.37 355.703 47.9725 355.421 47.6353 355.054C47.3032 354.687 47.044 354.236 46.8578 353.703C46.6767 353.169 46.5861 352.563 46.5861 351.884C46.5861 350.978 46.7396 350.208 47.0465 349.574C47.3535 348.935 47.7913 348.449 48.3599 348.117C48.9336 347.78 49.6155 347.611 50.4056 347.611C51.1604 347.611 51.8196 347.78 52.3833 348.117C52.9519 348.454 53.3922 348.942 53.7042 349.581C54.0213 350.215 54.1798 350.983 54.1798 351.884ZM47.8844 351.884C47.8844 352.548 47.9725 353.124 48.1486 353.612C48.3247 354.1 48.5965 354.478 48.9638 354.744C49.3312 355.011 49.8042 355.144 50.3829 355.144C50.9566 355.144 51.4271 355.011 51.7945 354.744C52.1669 354.478 52.4411 354.1 52.6173 353.612C52.7934 353.124 52.8814 352.548 52.8814 351.884C52.8814 351.224 52.7934 350.656 52.6173 350.178C52.4411 349.694 52.1694 349.322 51.802 349.06C51.4347 348.799 50.9591 348.668 50.3754 348.668C49.5149 348.668 48.8833 348.952 48.4807 349.521C48.0832 350.09 47.8844 350.877 47.8844 351.884ZM59.0183 355.16C59.2246 355.16 59.436 355.142 59.6524 355.107C59.8688 355.071 60.0449 355.029 60.1808 354.978V355.952C60.0348 356.018 59.831 356.073 59.5693 356.118C59.3127 356.163 59.0611 356.186 58.8145 356.186C58.3767 356.186 57.9791 356.111 57.6219 355.96C57.2646 355.804 56.9777 355.542 56.7613 355.175C56.55 354.807 56.4443 354.299 56.4443 353.65V348.743H55.2667V348.132L56.4519 347.641L56.95 345.845H57.7049V347.762H60.1279V348.743H57.7049V353.612C57.7049 354.13 57.8231 354.518 58.0597 354.775C58.3012 355.031 58.6208 355.16 59.0183 355.16ZM64.9514 347.626C65.9377 347.626 66.6699 347.848 67.148 348.29C67.626 348.733 67.8651 349.44 67.8651 350.412V356.035H66.9517L66.7101 354.812H66.6498C66.4183 355.114 66.1767 355.368 65.9251 355.575C65.6735 355.776 65.3816 355.929 65.0495 356.035C64.7224 356.136 64.3198 356.186 63.8417 356.186C63.3385 356.186 62.8906 356.098 62.4981 355.922C62.1106 355.746 61.8037 355.479 61.5772 355.122C61.3558 354.765 61.2451 354.312 61.2451 353.763C61.2451 352.938 61.5722 352.304 62.2264 351.861C62.8806 351.418 63.877 351.176 65.2156 351.136L66.6422 351.076V350.57C66.6422 349.856 66.4887 349.355 66.1818 349.068C65.8748 348.781 65.442 348.638 64.8834 348.638C64.4507 348.638 64.038 348.701 63.6455 348.826C63.253 348.952 62.8806 349.101 62.5283 349.272L62.1434 348.321C62.5157 348.129 62.9435 347.966 63.4266 347.83C63.9097 347.694 64.4179 347.626 64.9514 347.626ZM66.6271 351.959L65.3665 352.012C64.3349 352.052 63.6077 352.221 63.185 352.518C62.7623 352.814 62.551 353.235 62.551 353.778C62.551 354.251 62.6944 354.601 62.9812 354.827C63.2681 355.054 63.648 355.167 64.121 355.167C64.8558 355.167 65.4571 354.963 65.9251 354.556C66.3931 354.148 66.6271 353.537 66.6271 352.721V351.959ZM71.7072 356.035H70.4466V344.29H71.7072V356.035ZM82.2901 347.611C83.2714 347.611 84.0136 347.853 84.5169 348.336C85.0201 348.814 85.2717 349.584 85.2717 350.646V356.035H84.0338V350.729C84.0338 350.039 83.8752 349.523 83.5582 349.181C83.2462 348.839 82.7656 348.668 82.1165 348.668C81.2006 348.668 80.5565 348.927 80.1841 349.445C79.8117 349.964 79.6255 350.716 79.6255 351.702V356.035H78.3724V347.762H79.3839L79.5726 348.955H79.6406C79.8167 348.663 80.0406 348.419 80.3124 348.223C80.5841 348.021 80.8886 347.87 81.2257 347.77C81.5629 347.664 81.9177 347.611 82.2901 347.611ZM94.9865 351.884C94.9865 352.563 94.8984 353.169 94.7223 353.703C94.5462 354.236 94.2921 354.687 93.9599 355.054C93.6278 355.421 93.2252 355.703 92.7522 355.899C92.2842 356.091 91.7533 356.186 91.1595 356.186C90.6059 356.186 90.0977 356.091 89.6347 355.899C89.1767 355.703 88.7792 355.421 88.442 355.054C88.1099 354.687 87.8507 354.236 87.6646 353.703C87.4834 353.169 87.3928 352.563 87.3928 351.884C87.3928 350.978 87.5463 350.208 87.8533 349.574C88.1602 348.935 88.598 348.449 89.1667 348.117C89.7404 347.78 90.4222 347.611 91.2123 347.611C91.9671 347.611 92.6264 347.78 93.19 348.117C93.7586 348.454 94.199 348.942 94.511 349.581C94.828 350.215 94.9865 350.983 94.9865 351.884ZM88.6911 351.884C88.6911 352.548 88.7792 353.124 88.9553 353.612C89.1315 354.1 89.4032 354.478 89.7706 354.744C90.1379 355.011 90.6109 355.144 91.1897 355.144C91.7633 355.144 92.2339 355.011 92.6012 354.744C92.9736 354.478 93.2479 354.1 93.424 353.612C93.6001 353.124 93.6882 352.548 93.6882 351.884C93.6882 351.224 93.6001 350.656 93.424 350.178C93.2479 349.694 92.9761 349.322 92.6088 349.06C92.2414 348.799 91.7659 348.668 91.1821 348.668C90.3216 348.668 89.69 348.952 89.2875 349.521C88.8899 350.09 88.6911 350.877 88.6911 351.884ZM108.302 351.884C108.302 352.563 108.214 353.169 108.038 353.703C107.862 354.236 107.607 354.687 107.275 355.054C106.943 355.421 106.541 355.703 106.068 355.899C105.6 356.091 105.069 356.186 104.475 356.186C103.921 356.186 103.413 356.091 102.95 355.899C102.492 355.703 102.095 355.421 101.757 355.054C101.425 354.687 101.166 354.236 100.98 353.703C100.799 353.169 100.708 352.563 100.708 351.884C100.708 350.978 100.862 350.208 101.169 349.574C101.476 348.935 101.913 348.449 102.482 348.117C103.056 347.78 103.738 347.611 104.528 347.611C105.283 347.611 105.942 347.78 106.505 348.117C107.074 348.454 107.514 348.942 107.826 349.581C108.143 350.215 108.302 350.983 108.302 351.884ZM102.007 351.884C102.007 352.548 102.095 353.124 102.271 353.612C102.447 354.1 102.719 354.478 103.086 354.744C103.453 355.011 103.926 355.144 104.505 355.144C105.079 355.144 105.549 355.011 105.917 354.744C106.289 354.478 106.563 354.1 106.739 353.612C106.916 353.124 107.004 352.548 107.004 351.884C107.004 351.224 106.916 350.656 106.739 350.178C106.563 349.694 106.292 349.322 105.924 349.06C105.557 348.799 105.081 348.668 104.498 348.668C103.637 348.668 103.005 348.952 102.603 349.521C102.205 350.09 102.007 350.877 102.007 351.884ZM114.152 348.743H112.091V356.035H110.838V348.743H109.374V348.14L110.838 347.724V347.173C110.838 346.479 110.941 345.915 111.148 345.482C111.354 345.045 111.653 344.723 112.046 344.516C112.438 344.31 112.917 344.207 113.48 344.207C113.797 344.207 114.087 344.234 114.348 344.29C114.615 344.345 114.849 344.408 115.05 344.479L114.726 345.467C114.555 345.412 114.361 345.362 114.144 345.316C113.933 345.266 113.717 345.241 113.495 345.241C113.017 345.241 112.662 345.397 112.431 345.709C112.204 346.016 112.091 346.499 112.091 347.158V347.762H114.152V348.743ZM126.109 353.099C126.109 353.753 125.945 354.312 125.618 354.775C125.296 355.233 124.843 355.582 124.259 355.824C123.676 356.065 122.989 356.186 122.199 356.186C121.781 356.186 121.386 356.166 121.013 356.126C120.641 356.085 120.299 356.028 119.987 355.952C119.675 355.877 119.401 355.784 119.164 355.673V354.442C119.542 354.598 120.002 354.744 120.545 354.88C121.089 355.011 121.658 355.077 122.251 355.077C122.805 355.077 123.273 355.004 123.655 354.858C124.038 354.707 124.327 354.493 124.523 354.216C124.725 353.934 124.825 353.597 124.825 353.205C124.825 352.827 124.742 352.513 124.576 352.261C124.41 352.004 124.133 351.773 123.746 351.566C123.364 351.355 122.84 351.131 122.176 350.895C121.708 350.729 121.295 350.547 120.938 350.351C120.581 350.15 120.281 349.923 120.04 349.672C119.798 349.42 119.614 349.128 119.489 348.796C119.368 348.464 119.308 348.084 119.308 347.656C119.308 347.068 119.456 346.564 119.753 346.147C120.055 345.724 120.47 345.402 120.998 345.181C121.532 344.954 122.143 344.841 122.833 344.841C123.421 344.841 123.965 344.896 124.463 345.007C124.966 345.118 125.427 345.266 125.844 345.452L125.444 346.554C125.047 346.388 124.624 346.25 124.176 346.139C123.733 346.028 123.275 345.973 122.802 345.973C122.329 345.973 121.929 346.044 121.602 346.184C121.28 346.32 121.034 346.514 120.862 346.766C120.691 347.017 120.606 347.317 120.606 347.664C120.606 348.051 120.686 348.374 120.847 348.63C121.013 348.887 121.275 349.116 121.632 349.317C121.995 349.513 122.473 349.72 123.067 349.936C123.716 350.173 124.267 350.424 124.72 350.691C125.173 350.953 125.517 351.275 125.754 351.657C125.99 352.034 126.109 352.515 126.109 353.099ZM130.849 355.16C131.055 355.16 131.267 355.142 131.483 355.107C131.699 355.071 131.876 355.029 132.011 354.978V355.952C131.866 356.018 131.662 356.073 131.4 356.118C131.143 356.163 130.892 356.186 130.645 356.186C130.207 356.186 129.81 356.111 129.453 355.96C129.095 355.804 128.808 355.542 128.592 355.175C128.381 354.807 128.275 354.299 128.275 353.65V348.743H127.097V348.132L128.283 347.641L128.781 345.845H129.536V347.762H131.959V348.743H129.536V353.612C129.536 354.13 129.654 354.518 129.89 354.775C130.132 355.031 130.451 355.16 130.849 355.16ZM140.82 351.884C140.82 352.563 140.732 353.169 140.556 353.703C140.38 354.236 140.126 354.687 139.794 355.054C139.462 355.421 139.059 355.703 138.586 355.899C138.118 356.091 137.587 356.186 136.993 356.186C136.44 356.186 135.932 356.091 135.469 355.899C135.011 355.703 134.613 355.421 134.276 355.054C133.944 354.687 133.685 354.236 133.499 353.703C133.317 353.169 133.227 352.563 133.227 351.884C133.227 350.978 133.38 350.208 133.687 349.574C133.994 348.935 134.432 348.449 135.001 348.117C135.574 347.78 136.256 347.611 137.046 347.611C137.801 347.611 138.46 347.78 139.024 348.117C139.593 348.454 140.033 348.942 140.345 349.581C140.662 350.215 140.82 350.983 140.82 351.884ZM134.525 351.884C134.525 352.548 134.613 353.124 134.789 353.612C134.965 354.1 135.237 354.478 135.605 354.744C135.972 355.011 136.445 355.144 137.024 355.144C137.597 355.144 138.068 355.011 138.435 354.744C138.808 354.478 139.082 354.1 139.258 353.612C139.434 353.124 139.522 352.548 139.522 351.884C139.522 351.224 139.434 350.656 139.258 350.178C139.082 349.694 138.81 349.322 138.443 349.06C138.075 348.799 137.6 348.668 137.016 348.668C136.156 348.668 135.524 348.952 135.121 349.521C134.724 350.09 134.525 350.877 134.525 351.884ZM146.874 347.611C147.906 347.611 148.729 347.966 149.343 348.675C149.957 349.385 150.264 350.452 150.264 351.876C150.264 352.817 150.123 353.607 149.841 354.246C149.559 354.885 149.161 355.368 148.648 355.695C148.14 356.023 147.539 356.186 146.844 356.186C146.406 356.186 146.021 356.128 145.689 356.013C145.357 355.897 145.073 355.741 144.836 355.545C144.6 355.348 144.403 355.134 144.247 354.903H144.157C144.172 355.099 144.19 355.336 144.21 355.612C144.235 355.889 144.247 356.131 144.247 356.337V359.734H142.987V347.762H144.021L144.187 348.985H144.247C144.409 348.733 144.605 348.504 144.836 348.298C145.068 348.087 145.35 347.921 145.682 347.8C146.019 347.674 146.416 347.611 146.874 347.611ZM146.655 348.668C146.082 348.668 145.619 348.779 145.267 349C144.919 349.221 144.665 349.554 144.504 349.996C144.343 350.434 144.258 350.985 144.247 351.65V351.891C144.247 352.591 144.323 353.182 144.474 353.665C144.63 354.148 144.884 354.515 145.236 354.767C145.594 355.019 146.072 355.144 146.671 355.144C147.184 355.144 147.612 355.006 147.954 354.729C148.296 354.453 148.55 354.068 148.716 353.574C148.887 353.076 148.973 352.505 148.973 351.861C148.973 350.885 148.782 350.11 148.399 349.536C148.022 348.957 147.44 348.668 146.655 348.668ZM156.34 347.611C157.372 347.611 158.194 347.966 158.808 348.675C159.422 349.385 159.729 350.452 159.729 351.876C159.729 352.817 159.588 353.607 159.307 354.246C159.025 354.885 158.627 355.368 158.114 355.695C157.606 356.023 157.004 356.186 156.31 356.186C155.872 356.186 155.487 356.128 155.155 356.013C154.823 355.897 154.538 355.741 154.302 355.545C154.065 355.348 153.869 355.134 153.713 354.903H153.623C153.638 355.099 153.655 355.336 153.675 355.612C153.701 355.889 153.713 356.131 153.713 356.337V359.734H152.453V347.762H153.487L153.653 348.985H153.713C153.874 348.733 154.07 348.504 154.302 348.298C154.533 348.087 154.815 347.921 155.147 347.8C155.485 347.674 155.882 347.611 156.34 347.611ZM156.121 348.668C155.547 348.668 155.084 348.779 154.732 349C154.385 349.221 154.131 349.554 153.97 349.996C153.809 350.434 153.723 350.985 153.713 351.65V351.891C153.713 352.591 153.789 353.182 153.94 353.665C154.096 354.148 154.35 354.515 154.702 354.767C155.059 355.019 155.537 355.144 156.136 355.144C156.65 355.144 157.077 355.006 157.419 354.729C157.762 354.453 158.016 354.068 158.182 353.574C158.353 353.076 158.438 352.505 158.438 351.861C158.438 350.885 158.247 350.11 157.865 349.536C157.487 348.957 156.906 348.668 156.121 348.668ZM165.104 347.611C165.808 347.611 166.412 347.767 166.915 348.079C167.419 348.391 167.804 348.829 168.07 349.393C168.337 349.951 168.47 350.605 168.47 351.355V352.133H162.756C162.771 353.104 163.013 353.844 163.481 354.352C163.949 354.86 164.608 355.114 165.459 355.114C165.982 355.114 166.445 355.066 166.847 354.971C167.25 354.875 167.668 354.734 168.1 354.548V355.65C167.683 355.836 167.268 355.972 166.855 356.058C166.447 356.143 165.964 356.186 165.406 356.186C164.611 356.186 163.916 356.025 163.322 355.703C162.734 355.376 162.276 354.898 161.949 354.269C161.621 353.64 161.458 352.87 161.458 351.959C161.458 351.068 161.606 350.298 161.903 349.649C162.205 348.995 162.628 348.492 163.171 348.14C163.72 347.787 164.364 347.611 165.104 347.611ZM165.089 348.638C164.419 348.638 163.886 348.857 163.488 349.294C163.091 349.732 162.854 350.344 162.779 351.129H167.157C167.152 350.636 167.074 350.203 166.923 349.83C166.777 349.453 166.553 349.161 166.251 348.955C165.949 348.743 165.562 348.638 165.089 348.638ZM173.543 356.186C172.496 356.186 171.666 355.829 171.052 355.114C170.443 354.4 170.139 353.338 170.139 351.929C170.139 350.505 170.451 349.43 171.075 348.706C171.699 347.976 172.529 347.611 173.566 347.611C174.003 347.611 174.386 347.669 174.713 347.785C175.04 347.9 175.322 348.056 175.558 348.253C175.795 348.444 175.994 348.663 176.155 348.909H176.245C176.225 348.753 176.205 348.54 176.185 348.268C176.165 347.996 176.155 347.775 176.155 347.604V344.29H177.408V356.035H176.396L176.207 354.858H176.155C175.999 355.104 175.8 355.328 175.558 355.529C175.322 355.731 175.037 355.892 174.705 356.013C174.378 356.128 173.991 356.186 173.543 356.186ZM173.739 355.144C174.625 355.144 175.251 354.893 175.619 354.39C175.986 353.886 176.17 353.139 176.17 352.148V351.921C176.17 350.87 175.994 350.062 175.641 349.498C175.294 348.935 174.66 348.653 173.739 348.653C172.969 348.653 172.393 348.95 172.011 349.544C171.628 350.132 171.437 350.937 171.437 351.959C171.437 352.976 171.626 353.761 172.003 354.314C172.385 354.868 172.964 355.144 173.739 355.144ZM185.9 356.035L182.759 347.762H184.103L185.922 352.767C186.048 353.109 186.176 353.486 186.307 353.899C186.438 354.312 186.529 354.644 186.579 354.895H186.632C186.692 354.644 186.793 354.312 186.934 353.899C187.075 353.481 187.203 353.104 187.319 352.767L189.138 347.762H190.482L187.334 356.035H185.9ZM194.995 347.611C195.7 347.611 196.304 347.767 196.807 348.079C197.31 348.391 197.695 348.829 197.962 349.393C198.229 349.951 198.362 350.605 198.362 351.355V352.133H192.648C192.663 353.104 192.905 353.844 193.373 354.352C193.841 354.86 194.5 355.114 195.35 355.114C195.874 355.114 196.337 355.066 196.739 354.971C197.142 354.875 197.559 354.734 197.992 354.548V355.65C197.575 355.836 197.159 355.972 196.747 356.058C196.339 356.143 195.856 356.186 195.297 356.186C194.502 356.186 193.808 356.025 193.214 355.703C192.625 355.376 192.167 354.898 191.84 354.269C191.513 353.64 191.35 352.87 191.35 351.959C191.35 351.068 191.498 350.298 191.795 349.649C192.097 348.995 192.52 348.492 193.063 348.14C193.612 347.787 194.256 347.611 194.995 347.611ZM194.98 348.638C194.311 348.638 193.778 348.857 193.38 349.294C192.983 349.732 192.746 350.344 192.671 351.129H197.049C197.044 350.636 196.966 350.203 196.815 349.83C196.669 349.453 196.445 349.161 196.143 348.955C195.841 348.743 195.453 348.638 194.98 348.638ZM201.744 344.29V347.8C201.744 348.001 201.739 348.205 201.729 348.411C201.719 348.613 201.701 348.799 201.676 348.97H201.759C201.93 348.678 202.146 348.434 202.408 348.238C202.675 348.036 202.977 347.885 203.314 347.785C203.651 347.679 204.008 347.626 204.386 347.626C205.05 347.626 205.604 347.732 206.046 347.943C206.494 348.155 206.829 348.482 207.05 348.925C207.277 349.367 207.39 349.941 207.39 350.646V356.035H206.152V350.729C206.152 350.039 205.994 349.523 205.676 349.181C205.364 348.839 204.884 348.668 204.235 348.668C203.621 348.668 203.13 348.786 202.763 349.023C202.4 349.254 202.139 349.596 201.978 350.049C201.822 350.502 201.744 351.056 201.744 351.71V356.035H200.491V344.29H201.744ZM211.225 347.762V356.035H209.972V347.762H211.225ZM210.613 344.667C210.819 344.667 210.996 344.735 211.142 344.871C211.293 345.002 211.368 345.208 211.368 345.49C211.368 345.767 211.293 345.973 211.142 346.109C210.996 346.245 210.819 346.313 210.613 346.313C210.397 346.313 210.216 346.245 210.07 346.109C209.929 345.973 209.858 345.767 209.858 345.49C209.858 345.208 209.929 345.002 210.07 344.871C210.216 344.735 210.397 344.667 210.613 344.667ZM217.195 356.186C216.451 356.186 215.794 356.033 215.225 355.726C214.657 355.419 214.214 354.951 213.897 354.322C213.58 353.693 213.421 352.9 213.421 351.944C213.421 350.942 213.587 350.125 213.919 349.491C214.257 348.852 214.719 348.379 215.308 348.072C215.897 347.765 216.566 347.611 217.316 347.611C217.729 347.611 218.126 347.654 218.509 347.739C218.896 347.82 219.213 347.923 219.46 348.049L219.082 349.098C218.831 348.998 218.539 348.907 218.207 348.826C217.88 348.746 217.573 348.706 217.286 348.706C216.712 348.706 216.234 348.829 215.852 349.076C215.474 349.322 215.19 349.684 214.999 350.162C214.813 350.641 214.719 351.229 214.719 351.929C214.719 352.598 214.81 353.169 214.991 353.642C215.177 354.115 215.452 354.478 215.814 354.729C216.181 354.976 216.639 355.099 217.188 355.099C217.626 355.099 218.021 355.054 218.373 354.963C218.725 354.868 219.045 354.757 219.332 354.631V355.748C219.055 355.889 218.745 355.997 218.403 356.073C218.066 356.148 217.663 356.186 217.195 356.186ZM222.555 356.035H221.294V344.29H222.555V356.035ZM228.39 347.611C229.094 347.611 229.698 347.767 230.201 348.079C230.705 348.391 231.089 348.829 231.356 349.393C231.623 349.951 231.756 350.605 231.756 351.355V352.133H226.042C226.057 353.104 226.299 353.844 226.767 354.352C227.235 354.86 227.894 355.114 228.744 355.114C229.268 355.114 229.731 355.066 230.133 354.971C230.536 354.875 230.954 354.734 231.386 354.548V355.65C230.969 355.836 230.554 355.972 230.141 356.058C229.733 356.143 229.25 356.186 228.692 356.186C227.897 356.186 227.202 356.025 226.608 355.703C226.019 355.376 225.562 354.898 225.234 354.269C224.907 353.64 224.744 352.87 224.744 351.959C224.744 351.068 224.892 350.298 225.189 349.649C225.491 348.995 225.914 348.492 226.457 348.14C227.006 347.787 227.65 347.611 228.39 347.611ZM228.375 348.638C227.705 348.638 227.172 348.857 226.774 349.294C226.377 349.732 226.14 350.344 226.065 351.129H230.443C230.438 350.636 230.36 350.203 230.209 349.83C230.063 349.453 229.839 349.161 229.537 348.955C229.235 348.743 228.848 348.638 228.375 348.638ZM233.696 355.25C233.696 354.898 233.782 354.649 233.953 354.503C234.124 354.352 234.333 354.276 234.579 354.276C234.836 354.276 235.052 354.352 235.229 354.503C235.405 354.649 235.493 354.898 235.493 355.25C235.493 355.597 235.405 355.851 235.229 356.013C235.052 356.169 234.836 356.247 234.579 356.247C234.333 356.247 234.124 356.169 233.953 356.013C233.782 355.851 233.696 355.597 233.696 355.25ZM233.696 348.555C233.696 348.192 233.782 347.938 233.953 347.792C234.124 347.641 234.333 347.566 234.579 347.566C234.836 347.566 235.052 347.641 235.229 347.792C235.405 347.938 235.493 348.192 235.493 348.555C235.493 348.897 235.405 349.146 235.229 349.302C235.052 349.458 234.836 349.536 234.579 349.536C234.333 349.536 234.124 349.458 233.953 349.302C233.782 349.146 233.696 348.897 233.696 348.555Z" fill="#212121"/>
<path d="M250.359 356.035H248.578V348.932C248.578 348.696 248.58 348.459 248.585 348.223C248.591 347.986 248.596 347.755 248.601 347.528C248.611 347.302 248.623 347.085 248.638 346.879C248.533 346.995 248.402 347.12 248.246 347.256C248.095 347.392 247.934 347.533 247.763 347.679L246.495 348.691L245.604 347.566L248.88 344.999H250.359V356.035ZM257.712 344.848C258.351 344.848 258.927 344.949 259.44 345.15C259.953 345.347 260.361 345.641 260.663 346.034C260.965 346.426 261.116 346.912 261.116 347.49C261.116 347.938 261.023 348.328 260.837 348.66C260.655 348.992 260.409 349.284 260.097 349.536C259.785 349.783 259.435 350.001 259.048 350.193C259.48 350.404 259.878 350.648 260.24 350.925C260.608 351.197 260.902 351.516 261.123 351.884C261.35 352.251 261.463 352.681 261.463 353.174C261.463 353.793 261.305 354.329 260.988 354.782C260.676 355.23 260.24 355.577 259.682 355.824C259.123 356.065 258.471 356.186 257.727 356.186C256.926 356.186 256.245 356.068 255.681 355.831C255.117 355.595 254.69 355.258 254.398 354.82C254.106 354.377 253.96 353.849 253.96 353.235C253.96 352.726 254.061 352.286 254.262 351.914C254.463 351.541 254.732 351.219 255.07 350.948C255.412 350.676 255.787 350.447 256.194 350.261C255.847 350.054 255.53 349.823 255.243 349.566C254.956 349.304 254.727 349.005 254.556 348.668C254.39 348.326 254.307 347.931 254.307 347.483C254.307 346.909 254.461 346.429 254.768 346.041C255.075 345.649 255.485 345.352 255.998 345.15C256.516 344.949 257.088 344.848 257.712 344.848ZM255.651 353.167C255.651 353.65 255.822 354.047 256.164 354.359C256.506 354.671 257.017 354.827 257.696 354.827C258.371 354.827 258.884 354.674 259.236 354.367C259.589 354.06 259.765 353.655 259.765 353.152C259.765 352.83 259.674 352.545 259.493 352.299C259.317 352.052 259.078 351.833 258.776 351.642C258.479 351.446 258.149 351.265 257.787 351.098L257.545 351C257.153 351.166 256.816 351.355 256.534 351.566C256.252 351.773 256.033 352.007 255.877 352.268C255.726 352.53 255.651 352.83 255.651 353.167ZM257.696 346.215C257.208 346.215 256.806 346.335 256.489 346.577C256.177 346.814 256.021 347.156 256.021 347.604C256.021 347.921 256.096 348.192 256.247 348.419C256.403 348.645 256.612 348.842 256.874 349.008C257.135 349.169 257.425 349.32 257.742 349.46C258.049 349.325 258.325 349.176 258.572 349.015C258.824 348.849 259.022 348.653 259.168 348.426C259.319 348.195 259.395 347.918 259.395 347.596C259.395 347.153 259.236 346.814 258.919 346.577C258.607 346.335 258.2 346.215 257.696 346.215ZM269.887 347.521C269.887 348.019 269.786 348.452 269.585 348.819C269.384 349.186 269.107 349.488 268.755 349.725C268.408 349.956 268.005 350.122 267.547 350.223V350.276C268.428 350.386 269.092 350.663 269.54 351.106C269.993 351.549 270.219 352.135 270.219 352.865C270.219 353.504 270.066 354.075 269.759 354.578C269.452 355.077 268.981 355.469 268.347 355.756C267.713 356.043 266.898 356.186 265.902 356.186C265.303 356.186 264.747 356.138 264.233 356.043C263.725 355.947 263.242 355.794 262.784 355.582V354.005C263.252 354.236 263.75 354.415 264.279 354.541C264.807 354.666 265.308 354.729 265.781 354.729C266.702 354.729 267.358 354.558 267.751 354.216C268.143 353.869 268.34 353.391 268.34 352.782C268.34 352.389 268.237 352.067 268.03 351.816C267.829 351.564 267.514 351.375 267.087 351.249C266.664 351.124 266.118 351.061 265.449 351.061H264.475V349.634H265.456C266.095 349.634 266.609 349.559 266.996 349.408C267.384 349.252 267.663 349.038 267.834 348.766C268.01 348.494 268.098 348.177 268.098 347.815C268.098 347.342 267.945 346.975 267.638 346.713C267.331 346.446 266.875 346.313 266.271 346.313C265.899 346.313 265.559 346.356 265.252 346.441C264.95 346.527 264.671 346.635 264.415 346.766C264.158 346.897 263.914 347.037 263.682 347.188L262.829 345.958C263.247 345.646 263.745 345.382 264.324 345.165C264.903 344.949 265.577 344.841 266.347 344.841C267.479 344.841 268.352 345.085 268.966 345.573C269.58 346.056 269.887 346.705 269.887 347.521ZM275.435 349.136C276.145 349.136 276.769 349.264 277.307 349.521C277.851 349.772 278.273 350.145 278.575 350.638C278.877 351.126 279.028 351.725 279.028 352.435C279.028 353.21 278.865 353.879 278.538 354.442C278.211 355.001 277.73 355.431 277.096 355.733C276.462 356.035 275.689 356.186 274.778 356.186C274.2 356.186 273.659 356.136 273.156 356.035C272.657 355.935 272.227 355.784 271.865 355.582V353.982C272.242 354.193 272.695 354.367 273.224 354.503C273.752 354.634 274.258 354.699 274.741 354.699C275.254 354.699 275.694 354.624 276.062 354.473C276.429 354.322 276.711 354.09 276.907 353.778C277.108 353.466 277.209 353.071 277.209 352.593C277.209 351.959 277.005 351.471 276.598 351.129C276.195 350.781 275.564 350.608 274.703 350.608C274.401 350.608 274.079 350.636 273.737 350.691C273.4 350.741 273.118 350.797 272.891 350.857L272.114 350.396L272.529 344.999H278.266V346.562H274.092L273.85 349.31C274.031 349.269 274.248 349.232 274.499 349.196C274.751 349.156 275.063 349.136 275.435 349.136Z" fill="#212121"/>
<path d="M32.908 39.7233C32.908 40.5644 32.701 41.2891 32.2869 41.8972C31.8793 42.5054 31.2905 42.9713 30.5205 43.2948C29.7571 43.6183 28.8448 43.78 27.7837 43.78C27.2661 43.78 26.7711 43.7509 26.2988 43.6927C25.8265 43.6345 25.3801 43.5504 24.9595 43.4404C24.5454 43.3239 24.1669 43.1848 23.824 43.023V40.8297C24.3999 41.082 25.0436 41.3117 25.7553 41.5187C26.4671 41.7193 27.1917 41.8196 27.9293 41.8196C28.531 41.8196 29.0292 41.742 29.4239 41.5867C29.825 41.4249 30.1226 41.1985 30.3167 40.9073C30.5108 40.6097 30.6079 40.2636 30.6079 39.8689C30.6079 39.4483 30.4947 39.0925 30.2682 38.8013C30.0418 38.5102 29.6989 38.2449 29.2395 38.0055C28.7866 37.7596 28.2172 37.4976 27.5314 37.2194C27.0655 37.0318 26.6191 36.8182 26.1921 36.5789C25.7715 36.3395 25.3963 36.058 25.0663 35.7345C24.7363 35.411 24.4743 35.0293 24.2802 34.5893C24.0925 34.1429 23.9987 33.6188 23.9987 33.0171C23.9987 32.2148 24.1896 31.529 24.5713 30.9596C24.9595 30.3902 25.503 29.9535 26.2018 29.6494C26.907 29.3453 27.7287 29.1933 28.6669 29.1933C29.4109 29.1933 30.1097 29.2709 30.7632 29.4262C31.4231 29.5815 32.0701 29.8015 32.7042 30.0861L31.9666 31.9592C31.3843 31.7198 30.8182 31.529 30.2682 31.3866C29.7247 31.2443 29.1683 31.1731 28.5989 31.1731C28.1072 31.1731 27.6899 31.2475 27.347 31.3963C27.0041 31.5451 26.742 31.7554 26.5609 32.0272C26.3862 32.2924 26.2988 32.6095 26.2988 32.9783C26.2988 33.3923 26.3991 33.7417 26.5997 34.0264C26.8067 34.3046 27.1238 34.5602 27.5508 34.7931C27.9843 35.026 28.5407 35.2848 29.2201 35.5695C30.0029 35.893 30.6661 36.2327 31.2096 36.5886C31.7596 36.9444 32.1801 37.3714 32.4713 37.8696C32.7624 38.3614 32.908 38.9792 32.908 39.7233ZM39.4104 41.9361C39.708 41.9361 40.0024 41.9102 40.2936 41.8584C40.5847 41.8002 40.85 41.7323 41.0894 41.6546V43.3821C40.8371 43.4921 40.5103 43.5859 40.1092 43.6636C39.708 43.7412 39.2907 43.78 38.8572 43.78C38.249 43.78 37.7023 43.6798 37.2171 43.4792C36.7318 43.2721 36.3468 42.9195 36.0622 42.4213C35.7775 41.9231 35.6351 41.2341 35.6351 40.3541V34.5796H34.1697V33.5606L35.7419 32.755L36.4892 30.4549H37.9255V32.8424H41.0021V34.5796H37.9255V40.325C37.9255 40.8685 38.0614 41.2729 38.3332 41.5382C38.6049 41.8034 38.964 41.9361 39.4104 41.9361ZM52.7841 38.1899C52.7841 39.0828 52.6676 39.8754 52.4347 40.5676C52.2018 41.2599 51.8621 41.8455 51.4156 42.3243C50.9692 42.7966 50.4322 43.1589 49.8046 43.4112C49.177 43.6571 48.4685 43.78 47.6792 43.78C46.9416 43.78 46.2655 43.6571 45.6508 43.4112C45.0362 43.1589 44.5024 42.7966 44.0495 42.3243C43.603 41.8455 43.2569 41.2599 43.011 40.5676C42.7652 39.8754 42.6422 39.0828 42.6422 38.1899C42.6422 37.0059 42.846 36.003 43.2536 35.1813C43.6677 34.3531 44.2565 33.7223 45.02 33.2888C45.7834 32.8553 46.6925 32.6386 47.7471 32.6386C48.737 32.6386 49.6105 32.8553 50.3675 33.2888C51.1245 33.7223 51.7165 34.3531 52.1435 35.1813C52.5706 36.0095 52.7841 37.0123 52.7841 38.1899ZM44.9909 38.1899C44.9909 38.9728 45.0847 39.6424 45.2723 40.1989C45.4664 40.7553 45.764 41.1823 46.1652 41.4799C46.5663 41.7711 47.0839 41.9167 47.718 41.9167C48.3521 41.9167 48.8697 41.7711 49.2708 41.4799C49.672 41.1823 49.9663 40.7553 50.154 40.1989C50.3416 39.6424 50.4354 38.9728 50.4354 38.1899C50.4354 37.407 50.3416 36.7438 50.154 36.2004C49.9663 35.6504 49.672 35.2331 49.2708 34.9484C48.8697 34.6572 48.3488 34.5117 47.7083 34.5117C46.7637 34.5117 46.0746 34.8287 45.6411 35.4628C45.2076 36.0968 44.9909 37.0059 44.9909 38.1899ZM60.9169 32.6386C62.1915 32.6386 63.2138 33.1044 63.9838 34.0361C64.7602 34.9678 65.1484 36.3524 65.1484 38.1899C65.1484 39.4063 64.9672 40.4318 64.6049 41.2664C64.249 42.0946 63.7476 42.7222 63.1006 43.1492C62.4601 43.5698 61.7128 43.78 60.8587 43.78C60.3152 43.78 59.8429 43.7089 59.4418 43.5665C59.0406 43.4242 58.6977 43.2398 58.413 43.0133C58.1283 42.7804 57.8889 42.5281 57.6948 42.2563H57.559C57.5913 42.5151 57.6204 42.8031 57.6463 43.1201C57.6787 43.4307 57.6948 43.7153 57.6948 43.9741V48.3511H55.4044V32.8424H57.2678L57.5881 34.3273H57.6948C57.8954 34.0232 58.138 33.7417 58.4227 33.4829C58.7139 33.2241 59.0633 33.0203 59.4709 32.8715C59.885 32.7162 60.367 32.6386 60.9169 32.6386ZM60.3055 34.502C59.6779 34.502 59.1733 34.6281 58.7915 34.8805C58.4163 35.1263 58.1413 35.4983 57.9666 35.9965C57.7984 36.4947 57.7078 37.1191 57.6948 37.8696V38.1899C57.6948 38.9857 57.7757 39.6618 57.9375 40.2183C58.1057 40.7682 58.3807 41.1888 58.7624 41.4799C59.1506 41.7646 59.6747 41.907 60.3346 41.907C60.8911 41.907 61.3504 41.7549 61.7128 41.4508C62.0816 41.1467 62.3565 40.7132 62.5377 40.1503C62.7189 39.5874 62.8094 38.9243 62.8094 38.1608C62.8094 37.0026 62.6024 36.1033 62.1883 35.4628C61.7807 34.8222 61.1531 34.502 60.3055 34.502ZM73.3007 32.6386C74.5753 32.6386 75.5975 33.1044 76.3675 34.0361C77.1439 34.9678 77.5321 36.3524 77.5321 38.1899C77.5321 39.4063 77.3509 40.4318 76.9886 41.2664C76.6327 42.0946 76.1313 42.7222 75.4843 43.1492C74.8438 43.5698 74.0965 43.78 73.2424 43.78C72.6989 43.78 72.2266 43.7089 71.8255 43.5665C71.4243 43.4242 71.0814 43.2398 70.7967 43.0133C70.5121 42.7804 70.2727 42.5281 70.0786 42.2563H69.9427C69.975 42.5151 70.0042 42.8031 70.03 43.1201C70.0624 43.4307 70.0786 43.7153 70.0786 43.9741V48.3511H67.7882V32.8424H69.6515L69.9718 34.3273H70.0786C70.2791 34.0232 70.5218 33.7417 70.8064 33.4829C71.0976 33.2241 71.447 33.0203 71.8546 32.8715C72.2687 32.7162 72.7507 32.6386 73.3007 32.6386ZM72.6892 34.502C72.0616 34.502 71.557 34.6281 71.1752 34.8805C70.8 35.1263 70.525 35.4983 70.3503 35.9965C70.1821 36.4947 70.0915 37.1191 70.0786 37.8696V38.1899C70.0786 38.9857 70.1594 39.6618 70.3212 40.2183C70.4894 40.7682 70.7644 41.1888 71.1461 41.4799C71.5343 41.7646 72.0584 41.907 72.7183 41.907C73.2748 41.907 73.7341 41.7549 74.0965 41.4508C74.4653 41.1467 74.7402 40.7132 74.9214 40.1503C75.1026 39.5874 75.1931 38.9243 75.1931 38.1608C75.1931 37.0026 74.9861 36.1033 74.572 35.4628C74.1644 34.8222 73.5368 34.502 72.6892 34.502ZM84.4518 32.6386C85.4094 32.6386 86.2311 32.8359 86.9169 33.2306C87.6027 33.6253 88.1301 34.1849 88.4989 34.9096C88.8676 35.6342 89.052 36.5012 89.052 37.5105V38.7334H81.88C81.9058 39.7751 82.1841 40.5774 82.7146 41.1403C83.2516 41.7031 84.0022 41.9846 84.9662 41.9846C85.652 41.9846 86.2667 41.9199 86.8102 41.7905C87.3601 41.6546 87.9262 41.4573 88.5086 41.1985V43.0522C87.9715 43.3045 87.4248 43.4889 86.8684 43.6053C86.312 43.7218 85.6455 43.78 84.8691 43.78C83.8145 43.78 82.8861 43.5762 82.0838 43.1686C81.288 42.7545 80.6636 42.1399 80.2107 41.3246C79.7643 40.5094 79.541 39.4969 79.541 38.2869C79.541 37.0835 79.7448 36.0612 80.1525 35.2201C80.5601 34.379 81.1327 33.7385 81.8703 33.2985C82.6079 32.8586 83.4684 32.6386 84.4518 32.6386ZM84.4518 34.3564C83.7336 34.3564 83.1513 34.5893 82.7049 35.0551C82.2649 35.521 82.0061 36.2036 81.9285 37.1029H86.8199C86.8134 36.5659 86.7228 36.0904 86.5481 35.6763C86.3799 35.2622 86.1211 34.9387 85.7717 34.7058C85.4288 34.4728 84.9888 34.3564 84.4518 34.3564ZM95.2342 43.78C93.9531 43.78 92.9244 43.3142 92.148 42.3825C91.378 41.4443 90.9931 40.063 90.9931 38.2384C90.9931 36.3945 91.3845 35.0002 92.1674 34.0555C92.9567 33.1109 93.9952 32.6386 95.2827 32.6386C95.8262 32.6386 96.3018 32.713 96.7094 32.8618C97.117 33.0041 97.4664 33.1982 97.7575 33.4441C98.0551 33.69 98.3075 33.9649 98.5145 34.269H98.6213C98.5889 34.0685 98.5501 33.7805 98.5048 33.4053C98.466 33.0235 98.4466 32.6709 98.4466 32.3474V28.4848H100.737V43.5859H98.9513L98.5436 42.1205H98.4466C98.2525 42.431 98.0066 42.7125 97.709 42.9648C97.4178 43.2107 97.0685 43.408 96.6608 43.5568C96.2597 43.7056 95.7842 43.78 95.2342 43.78ZM95.8747 41.9264C96.8517 41.9264 97.5408 41.6449 97.9419 41.082C98.3431 40.5191 98.5501 39.6748 98.563 38.549V38.2481C98.563 37.0447 98.3689 36.1227 97.9807 35.4822C97.5925 34.8352 96.8841 34.5117 95.8553 34.5117C95.0336 34.5117 94.406 34.8449 93.9725 35.5113C93.5455 36.1712 93.332 37.0932 93.332 38.2772C93.332 39.4613 93.5455 40.3671 93.9725 40.9947C94.406 41.6158 95.0401 41.9264 95.8747 41.9264ZM119.924 29.3971L114.965 43.5859H112.5L107.54 29.3971H109.928L112.917 38.2869C113.007 38.5458 113.105 38.8596 113.208 39.2283C113.318 39.5971 113.418 39.9692 113.509 40.3444C113.606 40.7197 113.68 41.0529 113.732 41.3441C113.784 41.0529 113.855 40.7197 113.946 40.3444C114.043 39.9692 114.143 39.5971 114.246 39.2283C114.35 38.8596 114.447 38.5425 114.538 38.2772L117.537 29.3971H119.924ZM125.834 32.6386C126.792 32.6386 127.614 32.8359 128.299 33.2306C128.985 33.6253 129.513 34.1849 129.881 34.9096C130.25 35.6342 130.435 36.5012 130.435 37.5105V38.7334H123.263C123.288 39.7751 123.567 40.5774 124.097 41.1403C124.634 41.7031 125.385 41.9846 126.349 41.9846C127.035 41.9846 127.649 41.9199 128.193 41.7905C128.743 41.6546 129.309 41.4573 129.891 41.1985V43.0522C129.354 43.3045 128.807 43.4889 128.251 43.6053C127.695 43.7218 127.028 43.78 126.252 43.78C125.197 43.78 124.269 43.5762 123.466 43.1686C122.671 42.7545 122.046 42.1399 121.593 41.3246C121.147 40.5094 120.924 39.4969 120.924 38.2869C120.924 37.0835 121.127 36.0612 121.535 35.2201C121.943 34.379 122.515 33.7385 123.253 33.2985C123.99 32.8586 124.851 32.6386 125.834 32.6386ZM125.834 34.3564C125.116 34.3564 124.534 34.5893 124.087 35.0551C123.648 35.521 123.389 36.2036 123.311 37.1029H128.202C128.196 36.5659 128.105 36.0904 127.931 35.6763C127.762 35.2622 127.504 34.9387 127.154 34.7058C126.811 34.4728 126.371 34.3564 125.834 34.3564ZM135.287 28.4848V32.2795C135.287 32.6742 135.274 33.0591 135.248 33.4344C135.229 33.8097 135.206 34.1008 135.18 34.3079H135.307C135.533 33.9326 135.811 33.6253 136.141 33.3859C136.471 33.14 136.84 32.9556 137.248 32.8327C137.662 32.7097 138.102 32.6483 138.567 32.6483C139.389 32.6483 140.088 32.7874 140.664 33.0656C141.24 33.3373 141.68 33.7611 141.984 34.337C142.294 34.9128 142.45 35.6601 142.45 36.5789V43.5859H140.169V37.0059C140.169 36.1712 139.997 35.5469 139.654 35.1328C139.312 34.7122 138.781 34.502 138.063 34.502C137.371 34.502 136.821 34.6475 136.413 34.9387C136.012 35.2234 135.724 35.6472 135.549 36.2101C135.375 36.7665 135.287 37.4458 135.287 38.2481V43.5859H133.006V28.4848H135.287ZM147.923 32.8424V43.5859H145.643V32.8424H147.923ZM146.797 28.7274C147.147 28.7274 147.448 28.8212 147.7 29.0089C147.959 29.1965 148.088 29.52 148.088 29.9794C148.088 30.4323 147.959 30.7558 147.7 30.9499C147.448 31.1375 147.147 31.2313 146.797 31.2313C146.435 31.2313 146.128 31.1375 145.875 30.9499C145.63 30.7558 145.507 30.4323 145.507 29.9794C145.507 29.52 145.63 29.1965 145.875 29.0089C146.128 28.8212 146.435 28.7274 146.797 28.7274ZM155.522 43.78C154.507 43.78 153.627 43.5827 152.883 43.188C152.138 42.7934 151.566 42.1884 151.165 41.3732C150.764 40.5579 150.563 39.5227 150.563 38.2675C150.563 36.9606 150.783 35.893 151.223 35.0649C151.663 34.2367 152.271 33.6253 153.048 33.2306C153.83 32.8359 154.726 32.6386 155.736 32.6386C156.376 32.6386 156.955 32.7033 157.473 32.8327C157.997 32.9556 158.44 33.1077 158.803 33.2888L158.123 35.1134C157.729 34.9516 157.324 34.8158 156.91 34.7058C156.496 34.5958 156.098 34.5408 155.716 34.5408C155.089 34.5408 154.565 34.6799 154.144 34.9581C153.73 35.2363 153.42 35.6504 153.212 36.2004C153.012 36.7503 152.912 37.4329 152.912 38.2481C152.912 39.0375 153.015 39.7039 153.222 40.2474C153.429 40.7844 153.737 41.192 154.144 41.4702C154.552 41.742 155.053 41.8778 155.648 41.8778C156.237 41.8778 156.765 41.8067 157.23 41.6643C157.696 41.522 158.136 41.3376 158.55 41.1111V43.091C158.143 43.3239 157.706 43.4954 157.24 43.6053C156.774 43.7218 156.202 43.78 155.522 43.78ZM163.364 43.5859H161.074V28.4848H163.364V43.5859ZM170.905 32.6386C171.862 32.6386 172.684 32.8359 173.37 33.2306C174.056 33.6253 174.583 34.1849 174.952 34.9096C175.321 35.6342 175.505 36.5012 175.505 37.5105V38.7334H168.333C168.359 39.7751 168.637 40.5774 169.168 41.1403C169.705 41.7031 170.455 41.9846 171.419 41.9846C172.105 41.9846 172.72 41.9199 173.263 41.7905C173.813 41.6546 174.379 41.4573 174.962 41.1985V43.0522C174.425 43.3045 173.878 43.4889 173.321 43.6053C172.765 43.7218 172.099 43.78 171.322 43.78C170.268 43.78 169.339 43.5762 168.537 43.1686C167.741 42.7545 167.117 42.1399 166.664 41.3246C166.217 40.5094 165.994 39.4969 165.994 38.2869C165.994 37.0835 166.198 36.0612 166.606 35.2201C167.013 34.379 167.586 33.7385 168.323 33.2985C169.061 32.8586 169.921 32.6386 170.905 32.6386ZM170.905 34.3564C170.187 34.3564 169.604 34.5893 169.158 35.0551C168.718 35.521 168.459 36.2036 168.382 37.1029H173.273C173.266 36.5659 173.176 36.0904 173.001 35.6763C172.833 35.2622 172.574 34.9387 172.225 34.7058C171.882 34.4728 171.442 34.3564 170.905 34.3564ZM189.519 31.1731C188.84 31.1731 188.232 31.296 187.695 31.5419C187.164 31.7878 186.715 32.1436 186.346 32.6095C185.977 33.0688 185.695 33.6285 185.501 34.2884C185.307 34.9419 185.21 35.6795 185.21 36.5012C185.21 37.6011 185.366 38.549 185.676 39.3448C185.987 40.1342 186.459 40.7423 187.093 41.1694C187.727 41.5899 188.529 41.8002 189.5 41.8002C190.102 41.8002 190.687 41.742 191.257 41.6255C191.826 41.509 192.415 41.3505 193.023 41.15V43.1298C192.447 43.3562 191.865 43.5212 191.276 43.6248C190.687 43.7283 190.008 43.78 189.238 43.78C187.789 43.78 186.585 43.4792 185.628 42.8775C184.676 42.2757 183.965 41.4282 183.492 40.3347C183.027 39.2413 182.794 37.9602 182.794 36.4915C182.794 35.4175 182.942 34.434 183.24 33.5412C183.538 32.6483 183.971 31.8783 184.541 31.2313C185.11 30.5779 185.812 30.0764 186.647 29.727C187.488 29.3712 188.448 29.1933 189.529 29.1933C190.241 29.1933 190.939 29.2741 191.625 29.4359C192.318 29.5912 192.958 29.8144 193.547 30.1055L192.732 32.0272C192.24 31.7942 191.726 31.5937 191.189 31.4254C190.652 31.2572 190.095 31.1731 189.519 31.1731ZM205.348 38.1899C205.348 39.0828 205.232 39.8754 204.999 40.5676C204.766 41.2599 204.426 41.8455 203.98 42.3243C203.533 42.7966 202.996 43.1589 202.369 43.4112C201.741 43.6571 201.033 43.78 200.243 43.78C199.506 43.78 198.83 43.6571 198.215 43.4112C197.6 43.1589 197.067 42.7966 196.614 42.3243C196.167 41.8455 195.821 41.2599 195.575 40.5676C195.329 39.8754 195.206 39.0828 195.206 38.1899C195.206 37.0059 195.41 36.003 195.818 35.1813C196.232 34.3531 196.821 33.7223 197.584 33.2888C198.348 32.8553 199.257 32.6386 200.311 32.6386C201.301 32.6386 202.175 32.8553 202.932 33.2888C203.689 33.7223 204.281 34.3531 204.708 35.1813C205.135 36.0095 205.348 37.0123 205.348 38.1899ZM197.555 38.1899C197.555 38.9728 197.649 39.6424 197.837 40.1989C198.031 40.7553 198.328 41.1823 198.729 41.4799C199.131 41.7711 199.648 41.9167 200.282 41.9167C200.916 41.9167 201.434 41.7711 201.835 41.4799C202.236 41.1823 202.531 40.7553 202.718 40.1989C202.906 39.6424 203 38.9728 203 38.1899C203 37.407 202.906 36.7438 202.718 36.2004C202.531 35.6504 202.236 35.2331 201.835 34.9484C201.434 34.6572 200.913 34.5117 200.273 34.5117C199.328 34.5117 198.639 34.8287 198.205 35.4628C197.772 36.0968 197.555 37.0059 197.555 38.1899ZM217.334 32.8424V43.5859H215.539L215.228 42.1399H215.102C214.875 42.5087 214.588 42.816 214.238 43.0619C213.889 43.3013 213.501 43.4792 213.074 43.5956C212.647 43.7186 212.197 43.78 211.725 43.78C210.916 43.78 210.224 43.6442 209.648 43.3724C209.078 43.0942 208.642 42.6672 208.337 42.0914C208.033 41.5155 207.881 40.7715 207.881 39.8592V32.8424H210.172V39.4322C210.172 40.2668 210.34 40.8912 210.676 41.3052C211.019 41.7193 211.55 41.9264 212.268 41.9264C212.96 41.9264 213.51 41.784 213.918 41.4993C214.326 41.2147 214.613 40.7941 214.782 40.2377C214.956 39.6812 215.044 38.9987 215.044 38.1899V32.8424H217.334ZM226.205 32.6386C227.414 32.6386 228.356 32.9524 229.029 33.58C229.708 34.2011 230.048 35.2007 230.048 36.5789V43.5859H227.767V37.0059C227.767 36.1712 227.596 35.5469 227.253 35.1328C226.91 34.7122 226.379 34.502 225.661 34.502C224.619 34.502 223.895 34.8222 223.487 35.4628C223.086 36.1033 222.885 37.0318 222.885 38.2481V43.5859H220.605V32.8424H222.381L222.701 34.2982H222.827C223.06 33.9229 223.348 33.6156 223.691 33.3762C224.04 33.1303 224.429 32.9459 224.856 32.823C225.289 32.7 225.739 32.6386 226.205 32.6386ZM237.239 41.9361C237.537 41.9361 237.831 41.9102 238.122 41.8584C238.414 41.8002 238.679 41.7323 238.918 41.6546V43.3821C238.666 43.4921 238.339 43.5859 237.938 43.6636C237.537 43.7412 237.12 43.78 236.686 43.78C236.078 43.78 235.531 43.6798 235.046 43.4792C234.561 43.2721 234.176 42.9195 233.891 42.4213C233.606 41.9231 233.464 41.2341 233.464 40.3541V34.5796H231.999V33.5606L233.571 32.755L234.318 30.4549H235.754V32.8424H238.831V34.5796H235.754V40.325C235.754 40.8685 235.89 41.2729 236.162 41.5382C236.434 41.8034 236.793 41.9361 237.239 41.9361ZM248.546 28.4848V32.1242C248.546 32.5448 248.533 32.9588 248.507 33.3665C248.488 33.7676 248.468 34.0814 248.449 34.3079H248.546C248.837 33.842 249.241 33.4506 249.759 33.1335C250.283 32.81 250.953 32.6483 251.768 32.6483C253.042 32.6483 254.068 33.1174 254.844 34.0555C255.621 34.9872 256.009 36.3686 256.009 38.1996C256.009 39.416 255.831 40.4382 255.475 41.2664C255.119 42.0946 254.618 42.7222 253.971 43.1492C253.33 43.5698 252.577 43.78 251.71 43.78C250.894 43.78 250.234 43.6312 249.73 43.3336C249.232 43.0295 248.84 42.6769 248.555 42.2757H248.39L247.973 43.5859H246.265V28.4848H248.546ZM251.166 34.502C250.519 34.502 250.005 34.6314 249.623 34.8902C249.248 35.149 248.976 35.5372 248.808 36.0548C248.64 36.5659 248.552 37.2162 248.546 38.0055V38.2093C248.546 39.4063 248.733 40.3218 249.109 40.9559C249.49 41.5899 250.183 41.907 251.186 41.907C251.981 41.907 252.593 41.5867 253.02 40.9461C253.447 40.2991 253.66 39.3739 253.66 38.1705C253.66 36.9541 253.447 36.0386 253.02 35.4239C252.599 34.8093 251.981 34.502 251.166 34.502ZM257.028 32.8424H259.513L261.716 38.976C261.813 39.2542 261.9 39.5292 261.978 39.8009C262.062 40.0662 262.133 40.3283 262.191 40.5871C262.256 40.8459 262.308 41.1047 262.346 41.3635H262.405C262.469 41.027 262.56 40.6518 262.676 40.2377C262.799 39.8171 262.935 39.3966 263.084 38.976L265.2 32.8424H267.655L263.045 45.0611C262.78 45.7599 262.453 46.3551 262.065 46.8469C261.683 47.345 261.23 47.7203 260.706 47.9726C260.182 48.2314 259.584 48.3608 258.911 48.3608C258.587 48.3608 258.306 48.3414 258.066 48.3026C257.827 48.2703 257.623 48.2347 257.455 48.1959V46.3713C257.591 46.4037 257.762 46.4328 257.969 46.4586C258.176 46.4845 258.39 46.4975 258.61 46.4975C259.018 46.4975 259.37 46.4166 259.668 46.2548C259.965 46.0931 260.218 45.8634 260.425 45.5658C260.632 45.2746 260.803 44.9414 260.939 44.5662L261.318 43.5568L257.028 32.8424ZM279.602 43.5859H277.263V31.3769H273.109V29.3971H283.746V31.3769H279.602V43.5859ZM284.066 32.8424H286.551L288.754 38.976C288.851 39.2542 288.938 39.5292 289.016 39.8009C289.1 40.0662 289.171 40.3283 289.23 40.5871C289.294 40.8459 289.346 41.1047 289.385 41.3635H289.443C289.508 41.027 289.598 40.6518 289.715 40.2377C289.838 39.8171 289.974 39.3966 290.122 38.976L292.238 32.8424H294.694L290.084 45.0611C289.818 45.7599 289.492 46.3551 289.103 46.8469C288.722 47.345 288.269 47.7203 287.745 47.9726C287.221 48.2314 286.622 48.3608 285.949 48.3608C285.626 48.3608 285.344 48.3414 285.105 48.3026C284.865 48.2703 284.662 48.2347 284.493 48.1959V46.3713C284.629 46.4037 284.801 46.4328 285.008 46.4586C285.215 46.4845 285.428 46.4975 285.648 46.4975C286.056 46.4975 286.409 46.4166 286.706 46.2548C287.004 46.0931 287.256 45.8634 287.463 45.5658C287.67 45.2746 287.842 44.9414 287.978 44.5662L288.356 43.5568L284.066 32.8424ZM301.836 32.6386C303.111 32.6386 304.133 33.1044 304.903 34.0361C305.68 34.9678 306.068 36.3524 306.068 38.1899C306.068 39.4063 305.887 40.4318 305.524 41.2664C305.169 42.0946 304.667 42.7222 304.02 43.1492C303.38 43.5698 302.632 43.78 301.778 43.78C301.235 43.78 300.762 43.7089 300.361 43.5665C299.96 43.4242 299.617 43.2398 299.333 43.0133C299.048 42.7804 298.808 42.5281 298.614 42.2563H298.479C298.511 42.5151 298.54 42.8031 298.566 43.1201C298.598 43.4307 298.614 43.7153 298.614 43.9741V48.3511H296.324V32.8424H298.187L298.508 34.3273H298.614C298.815 34.0232 299.058 33.7417 299.342 33.4829C299.633 33.2241 299.983 33.0203 300.39 32.8715C300.804 32.7162 301.287 32.6386 301.836 32.6386ZM301.225 34.502C300.597 34.502 300.093 34.6281 299.711 34.8805C299.336 35.1263 299.061 35.4983 298.886 35.9965C298.718 36.4947 298.627 37.1191 298.614 37.8696V38.1899C298.614 38.9857 298.695 39.6618 298.857 40.2183C299.025 40.7682 299.3 41.1888 299.682 41.4799C300.07 41.7646 300.594 41.907 301.254 41.907C301.811 41.907 302.27 41.7549 302.632 41.4508C303.001 41.1467 303.276 40.7132 303.457 40.1503C303.638 39.5874 303.729 38.9243 303.729 38.1608C303.729 37.0026 303.522 36.1033 303.108 35.4628C302.7 34.8222 302.073 34.502 301.225 34.502ZM312.988 32.6386C313.945 32.6386 314.767 32.8359 315.453 33.2306C316.139 33.6253 316.666 34.1849 317.035 34.9096C317.403 35.6342 317.588 36.5012 317.588 37.5105V38.7334H310.416C310.442 39.7751 310.72 40.5774 311.25 41.1403C311.787 41.7031 312.538 41.9846 313.502 41.9846C314.188 41.9846 314.803 41.9199 315.346 41.7905C315.896 41.6546 316.462 41.4573 317.044 41.1985V43.0522C316.507 43.3045 315.961 43.4889 315.404 43.6053C314.848 43.7218 314.181 43.78 313.405 43.78C312.35 43.78 311.422 43.5762 310.62 43.1686C309.824 42.7545 309.199 42.1399 308.747 41.3246C308.3 40.5094 308.077 39.4969 308.077 38.2869C308.077 37.0835 308.281 36.0612 308.688 35.2201C309.096 34.379 309.669 33.7385 310.406 33.2985C311.144 32.8586 312.004 32.6386 312.988 32.6386ZM312.988 34.3564C312.269 34.3564 311.687 34.5893 311.241 35.0551C310.801 35.521 310.542 36.2036 310.464 37.1029H315.356C315.349 36.5659 315.259 36.0904 315.084 35.6763C314.916 35.2622 314.657 34.9387 314.308 34.7058C313.965 34.4728 313.525 34.3564 312.988 34.3564Z" fill="#212121"/>
<defs>
<linearGradient id="paint0_linear_7037_93336" x1="386.143" y1="269.93" x2="20.6445" y2="269.93" gradientUnits="userSpaceOnUse">
<stop stop-color="#CCCCCC"/>
<stop offset="0.456731" stop-color="#FCFCFC"/>
<stop offset="1" stop-color="white"/>
</linearGradient>
</defs>
</svg>
