<svg width="92" height="92" viewBox="0 0 92 92" fill="none" xmlns="http://www.w3.org/2000/svg">
<rect x="0.389831" y="0.389831" width="91.079" height="91.2203" rx="17.5424" stroke="#BEBEBE" stroke-width="0.779661"/>
<rect width="70" height="60.7317" transform="translate(10.5273 16)" fill="white"/>
<path d="M20.2832 21.8516V68.9247" stroke="#E0E0E0" stroke-width="0.243902" stroke-dasharray="0.49 0.49"/>
<path d="M28.2101 68.9247C28.2101 68.9921 28.2647 69.0467 28.332 69.0467C28.3994 69.0467 28.454 68.9921 28.454 68.9247H28.2101ZM28.332 21.8516H28.2101V22.0967H28.332H28.454V21.8516H28.332ZM28.332 22.5871H28.2101V23.0774H28.332H28.454V22.5871H28.332ZM28.332 23.5678H28.2101V24.0581H28.332H28.454V23.5678H28.332ZM28.332 24.5485H28.2101V25.0388H28.332H28.454V24.5485H28.332ZM28.332 25.5292H28.2101V26.0195H28.332H28.454V25.5292H28.332ZM28.332 26.5098H28.2101V27.0002H28.332H28.454V26.5098H28.332ZM28.332 27.4905H28.2101V27.9809H28.332H28.454V27.4905H28.332ZM28.332 28.4712H28.2101V28.9616H28.332H28.454V28.4712H28.332ZM28.332 29.4519H28.2101V29.9423H28.332H28.454V29.4519H28.332ZM28.332 30.4326H28.2101V30.923H28.332H28.454V30.4326H28.332ZM28.332 31.4133H28.2101V31.9036H28.332H28.454V31.4133H28.332ZM28.332 32.394H28.2101V32.8843H28.332H28.454V32.394H28.332ZM28.332 33.3747H28.2101V33.865H28.332H28.454V33.3747H28.332ZM28.332 34.3554H28.2101V34.8457H28.332H28.454V34.3554H28.332ZM28.332 35.3361H28.2101V35.8264H28.332H28.454V35.3361H28.332ZM28.332 36.3168H28.2101V36.8071H28.332H28.454V36.3168H28.332ZM28.332 37.2975H28.2101V37.7878H28.332H28.454V37.2975H28.332ZM28.332 38.2781H28.2101V38.7685H28.332H28.454V38.2781H28.332ZM28.332 39.2588H28.2101V39.7492H28.332H28.454V39.2588H28.332ZM28.332 40.2395H28.2101V40.7299H28.332H28.454V40.2395H28.332ZM28.332 41.2202H28.2101V41.7106H28.332H28.454V41.2202H28.332ZM28.332 42.2009H28.2101V42.6912H28.332H28.454V42.2009H28.332ZM28.332 43.1816H28.2101V43.6719H28.332H28.454V43.1816H28.332ZM28.332 44.1623H28.2101V44.6526H28.332H28.454V44.1623H28.332ZM28.332 45.143H28.2101V45.6333H28.332H28.454V45.143H28.332ZM28.332 46.1237H28.2101V46.614H28.332H28.454V46.1237H28.332ZM28.332 47.1044H28.2101V47.5947H28.332H28.454V47.1044H28.332ZM28.332 48.085H28.2101V48.5754H28.332H28.454V48.085H28.332ZM28.332 49.0657H28.2101V49.5561H28.332H28.454V49.0657H28.332ZM28.332 50.0464H28.2101V50.5368H28.332H28.454V50.0464H28.332ZM28.332 51.0271H28.2101V51.5175H28.332H28.454V51.0271H28.332ZM28.332 52.0078H28.2101V52.4981H28.332H28.454V52.0078H28.332ZM28.332 52.9885H28.2101V53.4788H28.332H28.454V52.9885H28.332ZM28.332 53.9692H28.2101V54.4595H28.332H28.454V53.9692H28.332ZM28.332 54.9499H28.2101V55.4402H28.332H28.454V54.9499H28.332ZM28.332 55.9306H28.2101V56.4209H28.332H28.454V55.9306H28.332ZM28.332 56.9113H28.2101V57.4016H28.332H28.454V56.9113H28.332ZM28.332 57.8919H28.2101V58.3823H28.332H28.454V57.8919H28.332ZM28.332 58.8726H28.2101V59.363H28.332H28.454V58.8726H28.332ZM28.332 59.8533H28.2101V60.3437H28.332H28.454V59.8533H28.332ZM28.332 60.834H28.2101V61.3244H28.332H28.454V60.834H28.332ZM28.332 61.8147H28.2101V62.305H28.332H28.454V61.8147H28.332ZM28.332 62.7954H28.2101V63.2857H28.332H28.454V62.7954H28.332ZM28.332 63.7761H28.2101V64.2664H28.332H28.454V63.7761H28.332ZM28.332 64.7568H28.2101V65.2471H28.332H28.454V64.7568H28.332ZM28.332 65.7375H28.2101V66.2278H28.332H28.454V65.7375H28.332ZM28.332 66.7182H28.2101V67.2085H28.332H28.454V66.7182H28.332ZM28.332 67.6988H28.2101V68.1892H28.332H28.454V67.6988H28.332ZM28.332 68.6795H28.2101V68.9247H28.332H28.454V68.6795H28.332Z" fill="#E0E0E0"/>
<path d="M36.2589 68.9247C36.2589 68.9921 36.3135 69.0467 36.3809 69.0467C36.4482 69.0467 36.5028 68.9921 36.5028 68.9247H36.2589ZM36.3809 21.8516H36.2589V22.0967H36.3809H36.5028V21.8516H36.3809ZM36.3809 22.5871H36.2589V23.0774H36.3809H36.5028V22.5871H36.3809ZM36.3809 23.5678H36.2589V24.0581H36.3809H36.5028V23.5678H36.3809ZM36.3809 24.5485H36.2589V25.0388H36.3809H36.5028V24.5485H36.3809ZM36.3809 25.5292H36.2589V26.0195H36.3809H36.5028V25.5292H36.3809ZM36.3809 26.5098H36.2589V27.0002H36.3809H36.5028V26.5098H36.3809ZM36.3809 27.4905H36.2589V27.9809H36.3809H36.5028V27.4905H36.3809ZM36.3809 28.4712H36.2589V28.9616H36.3809H36.5028V28.4712H36.3809ZM36.3809 29.4519H36.2589V29.9423H36.3809H36.5028V29.4519H36.3809ZM36.3809 30.4326H36.2589V30.923H36.3809H36.5028V30.4326H36.3809ZM36.3809 31.4133H36.2589V31.9036H36.3809H36.5028V31.4133H36.3809ZM36.3809 32.394H36.2589V32.8843H36.3809H36.5028V32.394H36.3809ZM36.3809 33.3747H36.2589V33.865H36.3809H36.5028V33.3747H36.3809ZM36.3809 34.3554H36.2589V34.8457H36.3809H36.5028V34.3554H36.3809ZM36.3809 35.3361H36.2589V35.8264H36.3809H36.5028V35.3361H36.3809ZM36.3809 36.3168H36.2589V36.8071H36.3809H36.5028V36.3168H36.3809ZM36.3809 37.2975H36.2589V37.7878H36.3809H36.5028V37.2975H36.3809ZM36.3809 38.2781H36.2589V38.7685H36.3809H36.5028V38.2781H36.3809ZM36.3809 39.2588H36.2589V39.7492H36.3809H36.5028V39.2588H36.3809ZM36.3809 40.2395H36.2589V40.7299H36.3809H36.5028V40.2395H36.3809ZM36.3809 41.2202H36.2589V41.7106H36.3809H36.5028V41.2202H36.3809ZM36.3809 42.2009H36.2589V42.6912H36.3809H36.5028V42.2009H36.3809ZM36.3809 43.1816H36.2589V43.6719H36.3809H36.5028V43.1816H36.3809ZM36.3809 44.1623H36.2589V44.6526H36.3809H36.5028V44.1623H36.3809ZM36.3809 45.143H36.2589V45.6333H36.3809H36.5028V45.143H36.3809ZM36.3809 46.1237H36.2589V46.614H36.3809H36.5028V46.1237H36.3809ZM36.3809 47.1044H36.2589V47.5947H36.3809H36.5028V47.1044H36.3809ZM36.3809 48.085H36.2589V48.5754H36.3809H36.5028V48.085H36.3809ZM36.3809 49.0657H36.2589V49.5561H36.3809H36.5028V49.0657H36.3809ZM36.3809 50.0464H36.2589V50.5368H36.3809H36.5028V50.0464H36.3809ZM36.3809 51.0271H36.2589V51.5175H36.3809H36.5028V51.0271H36.3809ZM36.3809 52.0078H36.2589V52.4981H36.3809H36.5028V52.0078H36.3809ZM36.3809 52.9885H36.2589V53.4788H36.3809H36.5028V52.9885H36.3809ZM36.3809 53.9692H36.2589V54.4595H36.3809H36.5028V53.9692H36.3809ZM36.3809 54.9499H36.2589V55.4402H36.3809H36.5028V54.9499H36.3809ZM36.3809 55.9306H36.2589V56.4209H36.3809H36.5028V55.9306H36.3809ZM36.3809 56.9113H36.2589V57.4016H36.3809H36.5028V56.9113H36.3809ZM36.3809 57.8919H36.2589V58.3823H36.3809H36.5028V57.8919H36.3809ZM36.3809 58.8726H36.2589V59.363H36.3809H36.5028V58.8726H36.3809ZM36.3809 59.8533H36.2589V60.3437H36.3809H36.5028V59.8533H36.3809ZM36.3809 60.834H36.2589V61.3244H36.3809H36.5028V60.834H36.3809ZM36.3809 61.8147H36.2589V62.305H36.3809H36.5028V61.8147H36.3809ZM36.3809 62.7954H36.2589V63.2857H36.3809H36.5028V62.7954H36.3809ZM36.3809 63.7761H36.2589V64.2664H36.3809H36.5028V63.7761H36.3809ZM36.3809 64.7568H36.2589V65.2471H36.3809H36.5028V64.7568H36.3809ZM36.3809 65.7375H36.2589V66.2278H36.3809H36.5028V65.7375H36.3809ZM36.3809 66.7182H36.2589V67.2085H36.3809H36.5028V66.7182H36.3809ZM36.3809 67.6988H36.2589V68.1892H36.3809H36.5028V67.6988H36.3809ZM36.3809 68.6795H36.2589V68.9247H36.3809H36.5028V68.6795H36.3809Z" fill="#E0E0E0"/>
<path d="M44.3077 68.9247C44.3077 68.9921 44.3623 69.0467 44.4297 69.0467C44.497 69.0467 44.5516 68.9921 44.5516 68.9247H44.3077ZM44.4297 21.8516H44.3077V22.0967H44.4297H44.5516V21.8516H44.4297ZM44.4297 22.5871H44.3077V23.0774H44.4297H44.5516V22.5871H44.4297ZM44.4297 23.5678H44.3077V24.0581H44.4297H44.5516V23.5678H44.4297ZM44.4297 24.5485H44.3077V25.0388H44.4297H44.5516V24.5485H44.4297ZM44.4297 25.5292H44.3077V26.0195H44.4297H44.5516V25.5292H44.4297ZM44.4297 26.5098H44.3077V27.0002H44.4297H44.5516V26.5098H44.4297ZM44.4297 27.4905H44.3077V27.9809H44.4297H44.5516V27.4905H44.4297ZM44.4297 28.4712H44.3077V28.9616H44.4297H44.5516V28.4712H44.4297ZM44.4297 29.4519H44.3077V29.9423H44.4297H44.5516V29.4519H44.4297ZM44.4297 30.4326H44.3077V30.923H44.4297H44.5516V30.4326H44.4297ZM44.4297 31.4133H44.3077V31.9036H44.4297H44.5516V31.4133H44.4297ZM44.4297 32.394H44.3077V32.8843H44.4297H44.5516V32.394H44.4297ZM44.4297 33.3747H44.3077V33.865H44.4297H44.5516V33.3747H44.4297ZM44.4297 34.3554H44.3077V34.8457H44.4297H44.5516V34.3554H44.4297ZM44.4297 35.3361H44.3077V35.8264H44.4297H44.5516V35.3361H44.4297ZM44.4297 36.3168H44.3077V36.8071H44.4297H44.5516V36.3168H44.4297ZM44.4297 37.2975H44.3077V37.7878H44.4297H44.5516V37.2975H44.4297ZM44.4297 38.2781H44.3077V38.7685H44.4297H44.5516V38.2781H44.4297ZM44.4297 39.2588H44.3077V39.7492H44.4297H44.5516V39.2588H44.4297ZM44.4297 40.2395H44.3077V40.7299H44.4297H44.5516V40.2395H44.4297ZM44.4297 41.2202H44.3077V41.7106H44.4297H44.5516V41.2202H44.4297ZM44.4297 42.2009H44.3077V42.6912H44.4297H44.5516V42.2009H44.4297ZM44.4297 43.1816H44.3077V43.6719H44.4297H44.5516V43.1816H44.4297ZM44.4297 44.1623H44.3077V44.6526H44.4297H44.5516V44.1623H44.4297ZM44.4297 45.143H44.3077V45.6333H44.4297H44.5516V45.143H44.4297ZM44.4297 46.1237H44.3077V46.614H44.4297H44.5516V46.1237H44.4297ZM44.4297 47.1044H44.3077V47.5947H44.4297H44.5516V47.1044H44.4297ZM44.4297 48.085H44.3077V48.5754H44.4297H44.5516V48.085H44.4297ZM44.4297 49.0657H44.3077V49.5561H44.4297H44.5516V49.0657H44.4297ZM44.4297 50.0464H44.3077V50.5368H44.4297H44.5516V50.0464H44.4297ZM44.4297 51.0271H44.3077V51.5175H44.4297H44.5516V51.0271H44.4297ZM44.4297 52.0078H44.3077V52.4981H44.4297H44.5516V52.0078H44.4297ZM44.4297 52.9885H44.3077V53.4788H44.4297H44.5516V52.9885H44.4297ZM44.4297 53.9692H44.3077V54.4595H44.4297H44.5516V53.9692H44.4297ZM44.4297 54.9499H44.3077V55.4402H44.4297H44.5516V54.9499H44.4297ZM44.4297 55.9306H44.3077V56.4209H44.4297H44.5516V55.9306H44.4297ZM44.4297 56.9113H44.3077V57.4016H44.4297H44.5516V56.9113H44.4297ZM44.4297 57.8919H44.3077V58.3823H44.4297H44.5516V57.8919H44.4297ZM44.4297 58.8726H44.3077V59.363H44.4297H44.5516V58.8726H44.4297ZM44.4297 59.8533H44.3077V60.3437H44.4297H44.5516V59.8533H44.4297ZM44.4297 60.834H44.3077V61.3244H44.4297H44.5516V60.834H44.4297ZM44.4297 61.8147H44.3077V62.305H44.4297H44.5516V61.8147H44.4297ZM44.4297 62.7954H44.3077V63.2857H44.4297H44.5516V62.7954H44.4297ZM44.4297 63.7761H44.3077V64.2664H44.4297H44.5516V63.7761H44.4297ZM44.4297 64.7568H44.3077V65.2471H44.4297H44.5516V64.7568H44.4297ZM44.4297 65.7375H44.3077V66.2278H44.4297H44.5516V65.7375H44.4297ZM44.4297 66.7182H44.3077V67.2085H44.4297H44.5516V66.7182H44.4297ZM44.4297 67.6988H44.3077V68.1892H44.4297H44.5516V67.6988H44.4297ZM44.4297 68.6795H44.3077V68.9247H44.4297H44.5516V68.6795H44.4297Z" fill="#E0E0E0"/>
<path d="M52.3575 68.9247C52.3575 68.9921 52.4121 69.0467 52.4795 69.0467C52.5468 69.0467 52.6014 68.9921 52.6014 68.9247H52.3575ZM52.4795 21.8516H52.3575V22.0967H52.4795H52.6014V21.8516H52.4795ZM52.4795 22.5871H52.3575V23.0774H52.4795H52.6014V22.5871H52.4795ZM52.4795 23.5678H52.3575V24.0581H52.4795H52.6014V23.5678H52.4795ZM52.4795 24.5485H52.3575V25.0388H52.4795H52.6014V24.5485H52.4795ZM52.4795 25.5292H52.3575V26.0195H52.4795H52.6014V25.5292H52.4795ZM52.4795 26.5098H52.3575V27.0002H52.4795H52.6014V26.5098H52.4795ZM52.4795 27.4905H52.3575V27.9809H52.4795H52.6014V27.4905H52.4795ZM52.4795 28.4712H52.3575V28.9616H52.4795H52.6014V28.4712H52.4795ZM52.4795 29.4519H52.3575V29.9423H52.4795H52.6014V29.4519H52.4795ZM52.4795 30.4326H52.3575V30.923H52.4795H52.6014V30.4326H52.4795ZM52.4795 31.4133H52.3575V31.9036H52.4795H52.6014V31.4133H52.4795ZM52.4795 32.394H52.3575V32.8843H52.4795H52.6014V32.394H52.4795ZM52.4795 33.3747H52.3575V33.865H52.4795H52.6014V33.3747H52.4795ZM52.4795 34.3554H52.3575V34.8457H52.4795H52.6014V34.3554H52.4795ZM52.4795 35.3361H52.3575V35.8264H52.4795H52.6014V35.3361H52.4795ZM52.4795 36.3168H52.3575V36.8071H52.4795H52.6014V36.3168H52.4795ZM52.4795 37.2975H52.3575V37.7878H52.4795H52.6014V37.2975H52.4795ZM52.4795 38.2781H52.3575V38.7685H52.4795H52.6014V38.2781H52.4795ZM52.4795 39.2588H52.3575V39.7492H52.4795H52.6014V39.2588H52.4795ZM52.4795 40.2395H52.3575V40.7299H52.4795H52.6014V40.2395H52.4795ZM52.4795 41.2202H52.3575V41.7106H52.4795H52.6014V41.2202H52.4795ZM52.4795 42.2009H52.3575V42.6912H52.4795H52.6014V42.2009H52.4795ZM52.4795 43.1816H52.3575V43.6719H52.4795H52.6014V43.1816H52.4795ZM52.4795 44.1623H52.3575V44.6526H52.4795H52.6014V44.1623H52.4795ZM52.4795 45.143H52.3575V45.6333H52.4795H52.6014V45.143H52.4795ZM52.4795 46.1237H52.3575V46.614H52.4795H52.6014V46.1237H52.4795ZM52.4795 47.1044H52.3575V47.5947H52.4795H52.6014V47.1044H52.4795ZM52.4795 48.085H52.3575V48.5754H52.4795H52.6014V48.085H52.4795ZM52.4795 49.0657H52.3575V49.5561H52.4795H52.6014V49.0657H52.4795ZM52.4795 50.0464H52.3575V50.5368H52.4795H52.6014V50.0464H52.4795ZM52.4795 51.0271H52.3575V51.5175H52.4795H52.6014V51.0271H52.4795ZM52.4795 52.0078H52.3575V52.4981H52.4795H52.6014V52.0078H52.4795ZM52.4795 52.9885H52.3575V53.4788H52.4795H52.6014V52.9885H52.4795ZM52.4795 53.9692H52.3575V54.4595H52.4795H52.6014V53.9692H52.4795ZM52.4795 54.9499H52.3575V55.4402H52.4795H52.6014V54.9499H52.4795ZM52.4795 55.9306H52.3575V56.4209H52.4795H52.6014V55.9306H52.4795ZM52.4795 56.9113H52.3575V57.4016H52.4795H52.6014V56.9113H52.4795ZM52.4795 57.8919H52.3575V58.3823H52.4795H52.6014V57.8919H52.4795ZM52.4795 58.8726H52.3575V59.363H52.4795H52.6014V58.8726H52.4795ZM52.4795 59.8533H52.3575V60.3437H52.4795H52.6014V59.8533H52.4795ZM52.4795 60.834H52.3575V61.3244H52.4795H52.6014V60.834H52.4795ZM52.4795 61.8147H52.3575V62.305H52.4795H52.6014V61.8147H52.4795ZM52.4795 62.7954H52.3575V63.2857H52.4795H52.6014V62.7954H52.4795ZM52.4795 63.7761H52.3575V64.2664H52.4795H52.6014V63.7761H52.4795ZM52.4795 64.7568H52.3575V65.2471H52.4795H52.6014V64.7568H52.4795ZM52.4795 65.7375H52.3575V66.2278H52.4795H52.6014V65.7375H52.4795ZM52.4795 66.7182H52.3575V67.2085H52.4795H52.6014V66.7182H52.4795ZM52.4795 67.6988H52.3575V68.1892H52.4795H52.6014V67.6988H52.4795ZM52.4795 68.6795H52.3575V68.9247H52.4795H52.6014V68.6795H52.4795Z" fill="#E0E0E0"/>
<path d="M60.4054 68.9247C60.4054 68.9921 60.46 69.0467 60.5273 69.0467C60.5947 69.0467 60.6493 68.9921 60.6493 68.9247H60.4054ZM60.5273 21.8516H60.4054V22.0967H60.5273H60.6493V21.8516H60.5273ZM60.5273 22.5871H60.4054V23.0774H60.5273H60.6493V22.5871H60.5273ZM60.5273 23.5678H60.4054V24.0581H60.5273H60.6493V23.5678H60.5273ZM60.5273 24.5485H60.4054V25.0388H60.5273H60.6493V24.5485H60.5273ZM60.5273 25.5292H60.4054V26.0195H60.5273H60.6493V25.5292H60.5273ZM60.5273 26.5098H60.4054V27.0002H60.5273H60.6493V26.5098H60.5273ZM60.5273 27.4905H60.4054V27.9809H60.5273H60.6493V27.4905H60.5273ZM60.5273 28.4712H60.4054V28.9616H60.5273H60.6493V28.4712H60.5273ZM60.5273 29.4519H60.4054V29.9423H60.5273H60.6493V29.4519H60.5273ZM60.5273 30.4326H60.4054V30.923H60.5273H60.6493V30.4326H60.5273ZM60.5273 31.4133H60.4054V31.9036H60.5273H60.6493V31.4133H60.5273ZM60.5273 32.394H60.4054V32.8843H60.5273H60.6493V32.394H60.5273ZM60.5273 33.3747H60.4054V33.865H60.5273H60.6493V33.3747H60.5273ZM60.5273 34.3554H60.4054V34.8457H60.5273H60.6493V34.3554H60.5273ZM60.5273 35.3361H60.4054V35.8264H60.5273H60.6493V35.3361H60.5273ZM60.5273 36.3168H60.4054V36.8071H60.5273H60.6493V36.3168H60.5273ZM60.5273 37.2975H60.4054V37.7878H60.5273H60.6493V37.2975H60.5273ZM60.5273 38.2781H60.4054V38.7685H60.5273H60.6493V38.2781H60.5273ZM60.5273 39.2588H60.4054V39.7492H60.5273H60.6493V39.2588H60.5273ZM60.5273 40.2395H60.4054V40.7299H60.5273H60.6493V40.2395H60.5273ZM60.5273 41.2202H60.4054V41.7106H60.5273H60.6493V41.2202H60.5273ZM60.5273 42.2009H60.4054V42.6912H60.5273H60.6493V42.2009H60.5273ZM60.5273 43.1816H60.4054V43.6719H60.5273H60.6493V43.1816H60.5273ZM60.5273 44.1623H60.4054V44.6526H60.5273H60.6493V44.1623H60.5273ZM60.5273 45.143H60.4054V45.6333H60.5273H60.6493V45.143H60.5273ZM60.5273 46.1237H60.4054V46.614H60.5273H60.6493V46.1237H60.5273ZM60.5273 47.1044H60.4054V47.5947H60.5273H60.6493V47.1044H60.5273ZM60.5273 48.085H60.4054V48.5754H60.5273H60.6493V48.085H60.5273ZM60.5273 49.0657H60.4054V49.5561H60.5273H60.6493V49.0657H60.5273ZM60.5273 50.0464H60.4054V50.5368H60.5273H60.6493V50.0464H60.5273ZM60.5273 51.0271H60.4054V51.5175H60.5273H60.6493V51.0271H60.5273ZM60.5273 52.0078H60.4054V52.4981H60.5273H60.6493V52.0078H60.5273ZM60.5273 52.9885H60.4054V53.4788H60.5273H60.6493V52.9885H60.5273ZM60.5273 53.9692H60.4054V54.4595H60.5273H60.6493V53.9692H60.5273ZM60.5273 54.9499H60.4054V55.4402H60.5273H60.6493V54.9499H60.5273ZM60.5273 55.9306H60.4054V56.4209H60.5273H60.6493V55.9306H60.5273ZM60.5273 56.9113H60.4054V57.4016H60.5273H60.6493V56.9113H60.5273ZM60.5273 57.8919H60.4054V58.3823H60.5273H60.6493V57.8919H60.5273ZM60.5273 58.8726H60.4054V59.363H60.5273H60.6493V58.8726H60.5273ZM60.5273 59.8533H60.4054V60.3437H60.5273H60.6493V59.8533H60.5273ZM60.5273 60.834H60.4054V61.3244H60.5273H60.6493V60.834H60.5273ZM60.5273 61.8147H60.4054V62.305H60.5273H60.6493V61.8147H60.5273ZM60.5273 62.7954H60.4054V63.2857H60.5273H60.6493V62.7954H60.5273ZM60.5273 63.7761H60.4054V64.2664H60.5273H60.6493V63.7761H60.5273ZM60.5273 64.7568H60.4054V65.2471H60.5273H60.6493V64.7568H60.5273ZM60.5273 65.7375H60.4054V66.2278H60.5273H60.6493V65.7375H60.5273ZM60.5273 66.7182H60.4054V67.2085H60.5273H60.6493V66.7182H60.5273ZM60.5273 67.6988H60.4054V68.1892H60.5273H60.6493V67.6988H60.5273ZM60.5273 68.6795H60.4054V68.9247H60.5273H60.6493V68.6795H60.5273Z" fill="#E0E0E0"/>
<path d="M68.4542 68.9247C68.4542 68.9921 68.5088 69.0467 68.5762 69.0467C68.6435 69.0467 68.6981 68.9921 68.6981 68.9247H68.4542ZM68.5762 21.8516H68.4542V22.0967H68.5762H68.6981V21.8516H68.5762ZM68.5762 22.5871H68.4542V23.0774H68.5762H68.6981V22.5871H68.5762ZM68.5762 23.5678H68.4542V24.0581H68.5762H68.6981V23.5678H68.5762ZM68.5762 24.5485H68.4542V25.0388H68.5762H68.6981V24.5485H68.5762ZM68.5762 25.5292H68.4542V26.0195H68.5762H68.6981V25.5292H68.5762ZM68.5762 26.5098H68.4542V27.0002H68.5762H68.6981V26.5098H68.5762ZM68.5762 27.4905H68.4542V27.9809H68.5762H68.6981V27.4905H68.5762ZM68.5762 28.4712H68.4542V28.9616H68.5762H68.6981V28.4712H68.5762ZM68.5762 29.4519H68.4542V29.9423H68.5762H68.6981V29.4519H68.5762ZM68.5762 30.4326H68.4542V30.923H68.5762H68.6981V30.4326H68.5762ZM68.5762 31.4133H68.4542V31.9036H68.5762H68.6981V31.4133H68.5762ZM68.5762 32.394H68.4542V32.8843H68.5762H68.6981V32.394H68.5762ZM68.5762 33.3747H68.4542V33.865H68.5762H68.6981V33.3747H68.5762ZM68.5762 34.3554H68.4542V34.8457H68.5762H68.6981V34.3554H68.5762ZM68.5762 35.3361H68.4542V35.8264H68.5762H68.6981V35.3361H68.5762ZM68.5762 36.3168H68.4542V36.8071H68.5762H68.6981V36.3168H68.5762ZM68.5762 37.2975H68.4542V37.7878H68.5762H68.6981V37.2975H68.5762ZM68.5762 38.2781H68.4542V38.7685H68.5762H68.6981V38.2781H68.5762ZM68.5762 39.2588H68.4542V39.7492H68.5762H68.6981V39.2588H68.5762ZM68.5762 40.2395H68.4542V40.7299H68.5762H68.6981V40.2395H68.5762ZM68.5762 41.2202H68.4542V41.7106H68.5762H68.6981V41.2202H68.5762ZM68.5762 42.2009H68.4542V42.6912H68.5762H68.6981V42.2009H68.5762ZM68.5762 43.1816H68.4542V43.6719H68.5762H68.6981V43.1816H68.5762ZM68.5762 44.1623H68.4542V44.6526H68.5762H68.6981V44.1623H68.5762ZM68.5762 45.143H68.4542V45.6333H68.5762H68.6981V45.143H68.5762ZM68.5762 46.1237H68.4542V46.614H68.5762H68.6981V46.1237H68.5762ZM68.5762 47.1044H68.4542V47.5947H68.5762H68.6981V47.1044H68.5762ZM68.5762 48.085H68.4542V48.5754H68.5762H68.6981V48.085H68.5762ZM68.5762 49.0657H68.4542V49.5561H68.5762H68.6981V49.0657H68.5762ZM68.5762 50.0464H68.4542V50.5368H68.5762H68.6981V50.0464H68.5762ZM68.5762 51.0271H68.4542V51.5175H68.5762H68.6981V51.0271H68.5762ZM68.5762 52.0078H68.4542V52.4981H68.5762H68.6981V52.0078H68.5762ZM68.5762 52.9885H68.4542V53.4788H68.5762H68.6981V52.9885H68.5762ZM68.5762 53.9692H68.4542V54.4595H68.5762H68.6981V53.9692H68.5762ZM68.5762 54.9499H68.4542V55.4402H68.5762H68.6981V54.9499H68.5762ZM68.5762 55.9306H68.4542V56.4209H68.5762H68.6981V55.9306H68.5762ZM68.5762 56.9113H68.4542V57.4016H68.5762H68.6981V56.9113H68.5762ZM68.5762 57.8919H68.4542V58.3823H68.5762H68.6981V57.8919H68.5762ZM68.5762 58.8726H68.4542V59.363H68.5762H68.6981V58.8726H68.5762ZM68.5762 59.8533H68.4542V60.3437H68.5762H68.6981V59.8533H68.5762ZM68.5762 60.834H68.4542V61.3244H68.5762H68.6981V60.834H68.5762ZM68.5762 61.8147H68.4542V62.305H68.5762H68.6981V61.8147H68.5762ZM68.5762 62.7954H68.4542V63.2857H68.5762H68.6981V62.7954H68.5762ZM68.5762 63.7761H68.4542V64.2664H68.5762H68.6981V63.7761H68.5762ZM68.5762 64.7568H68.4542V65.2471H68.5762H68.6981V64.7568H68.5762ZM68.5762 65.7375H68.4542V66.2278H68.5762H68.6981V65.7375H68.5762ZM68.5762 66.7182H68.4542V67.2085H68.5762H68.6981V66.7182H68.5762ZM68.5762 67.6988H68.4542V68.1892H68.5762H68.6981V67.6988H68.5762ZM68.5762 68.6795H68.4542V68.9247H68.5762H68.6981V68.6795H68.5762Z" fill="#E0E0E0"/>
<path d="M76.503 68.9247C76.503 68.9921 76.5576 69.0467 76.625 69.0467C76.6924 69.0467 76.747 68.9921 76.747 68.9247H76.503ZM76.625 21.8516H76.503V22.0967H76.625H76.747V21.8516H76.625ZM76.625 22.5871H76.503V23.0774H76.625H76.747V22.5871H76.625ZM76.625 23.5678H76.503V24.0581H76.625H76.747V23.5678H76.625ZM76.625 24.5485H76.503V25.0388H76.625H76.747V24.5485H76.625ZM76.625 25.5292H76.503V26.0195H76.625H76.747V25.5292H76.625ZM76.625 26.5098H76.503V27.0002H76.625H76.747V26.5098H76.625ZM76.625 27.4905H76.503V27.9809H76.625H76.747V27.4905H76.625ZM76.625 28.4712H76.503V28.9616H76.625H76.747V28.4712H76.625ZM76.625 29.4519H76.503V29.9423H76.625H76.747V29.4519H76.625ZM76.625 30.4326H76.503V30.923H76.625H76.747V30.4326H76.625ZM76.625 31.4133H76.503V31.9036H76.625H76.747V31.4133H76.625ZM76.625 32.394H76.503V32.8843H76.625H76.747V32.394H76.625ZM76.625 33.3747H76.503V33.865H76.625H76.747V33.3747H76.625ZM76.625 34.3554H76.503V34.8457H76.625H76.747V34.3554H76.625ZM76.625 35.3361H76.503V35.8264H76.625H76.747V35.3361H76.625ZM76.625 36.3168H76.503V36.8071H76.625H76.747V36.3168H76.625ZM76.625 37.2975H76.503V37.7878H76.625H76.747V37.2975H76.625ZM76.625 38.2781H76.503V38.7685H76.625H76.747V38.2781H76.625ZM76.625 39.2588H76.503V39.7492H76.625H76.747V39.2588H76.625ZM76.625 40.2395H76.503V40.7299H76.625H76.747V40.2395H76.625ZM76.625 41.2202H76.503V41.7106H76.625H76.747V41.2202H76.625ZM76.625 42.2009H76.503V42.6912H76.625H76.747V42.2009H76.625ZM76.625 43.1816H76.503V43.6719H76.625H76.747V43.1816H76.625ZM76.625 44.1623H76.503V44.6526H76.625H76.747V44.1623H76.625ZM76.625 45.143H76.503V45.6333H76.625H76.747V45.143H76.625ZM76.625 46.1237H76.503V46.614H76.625H76.747V46.1237H76.625ZM76.625 47.1044H76.503V47.5947H76.625H76.747V47.1044H76.625ZM76.625 48.085H76.503V48.5754H76.625H76.747V48.085H76.625ZM76.625 49.0657H76.503V49.5561H76.625H76.747V49.0657H76.625ZM76.625 50.0464H76.503V50.5368H76.625H76.747V50.0464H76.625ZM76.625 51.0271H76.503V51.5175H76.625H76.747V51.0271H76.625ZM76.625 52.0078H76.503V52.4981H76.625H76.747V52.0078H76.625ZM76.625 52.9885H76.503V53.4788H76.625H76.747V52.9885H76.625ZM76.625 53.9692H76.503V54.4595H76.625H76.747V53.9692H76.625ZM76.625 54.9499H76.503V55.4402H76.625H76.747V54.9499H76.625ZM76.625 55.9306H76.503V56.4209H76.625H76.747V55.9306H76.625ZM76.625 56.9113H76.503V57.4016H76.625H76.747V56.9113H76.625ZM76.625 57.8919H76.503V58.3823H76.625H76.747V57.8919H76.625ZM76.625 58.8726H76.503V59.363H76.625H76.747V58.8726H76.625ZM76.625 59.8533H76.503V60.3437H76.625H76.747V59.8533H76.625ZM76.625 60.834H76.503V61.3244H76.625H76.747V60.834H76.625ZM76.625 61.8147H76.503V62.305H76.625H76.747V61.8147H76.625ZM76.625 62.7954H76.503V63.2857H76.625H76.747V62.7954H76.625ZM76.625 63.7761H76.503V64.2664H76.625H76.747V63.7761H76.625ZM76.625 64.7568H76.503V65.2471H76.625H76.747V64.7568H76.625ZM76.625 65.7375H76.503V66.2278H76.625H76.747V65.7375H76.625ZM76.625 66.7182H76.503V67.2085H76.625H76.747V66.7182H76.625ZM76.625 67.6988H76.503V68.1892H76.625H76.747V67.6988H76.625ZM76.625 68.6795H76.503V68.9247H76.625H76.747V68.6795H76.625Z" fill="#E0E0E0"/>
<path d="M14.3872 23.8516H13.4745V23.7191L13.847 23.3409C13.9162 23.271 13.9744 23.2088 14.0214 23.1542C14.069 23.0995 14.1052 23.0459 14.13 22.9931C14.1547 22.9398 14.1671 22.8814 14.1671 22.8178C14.1671 22.7391 14.1436 22.6791 14.0966 22.6378C14.0503 22.5958 13.989 22.5749 13.9128 22.5749C13.8461 22.5749 13.787 22.5863 13.7355 22.6092C13.6841 22.6321 13.6314 22.6644 13.5774 22.7064L13.4926 22.5997C13.5294 22.5685 13.5694 22.5409 13.6126 22.5168C13.6565 22.4926 13.7031 22.4736 13.7527 22.4596C13.8029 22.4456 13.8562 22.4386 13.9128 22.4386C13.9985 22.4386 14.0725 22.4536 14.1347 22.4834C14.197 22.5133 14.2449 22.5558 14.2786 22.6111C14.3129 22.6663 14.3301 22.7321 14.3301 22.8083C14.3301 22.882 14.3154 22.9506 14.2862 23.0141C14.257 23.077 14.216 23.1395 14.1633 23.2018C14.1106 23.2634 14.049 23.3288 13.9785 23.3981L13.6755 23.7001V23.7067H14.3872V23.8516ZM15.0313 22.9998C15.1259 22.9998 15.2082 23.016 15.278 23.0484C15.3479 23.0802 15.4019 23.1265 15.44 23.1875C15.4787 23.2485 15.4981 23.3225 15.4981 23.4095C15.4981 23.5048 15.4775 23.587 15.4362 23.6563C15.3949 23.7248 15.3355 23.7779 15.258 23.8154C15.1805 23.8522 15.0878 23.8706 14.9798 23.8706C14.9074 23.8706 14.8401 23.8643 14.7778 23.8516C14.7156 23.8389 14.6632 23.8198 14.6206 23.7944V23.6439C14.667 23.6718 14.7232 23.694 14.7893 23.7106C14.8553 23.7271 14.9195 23.7353 14.9817 23.7353C15.0522 23.7353 15.1138 23.7242 15.1666 23.702C15.2199 23.6791 15.2612 23.6448 15.2904 23.5991C15.3203 23.5527 15.3352 23.4946 15.3352 23.4247C15.3352 23.332 15.3066 23.2605 15.2495 23.2104C15.1929 23.1596 15.1034 23.1341 14.9808 23.1341C14.9414 23.1341 14.8982 23.1373 14.8512 23.1437C14.8042 23.15 14.7655 23.157 14.735 23.1646L14.6549 23.1122L14.7083 22.4587H15.4009V22.6035H14.8436L14.8083 23.0236C14.8325 23.0185 14.8636 23.0135 14.9017 23.0084C14.9398 23.0027 14.983 22.9998 15.0313 22.9998ZM16.6281 23.1532C16.6281 23.2663 16.6195 23.3673 16.6023 23.4562C16.5852 23.5451 16.5582 23.6204 16.5214 23.682C16.4845 23.7436 16.4369 23.7906 16.3785 23.823C16.32 23.8547 16.2498 23.8706 16.1679 23.8706C16.0644 23.8706 15.9786 23.8424 15.9107 23.7858C15.8433 23.7293 15.7928 23.6477 15.7592 23.541C15.7261 23.4336 15.7096 23.3044 15.7096 23.1532C15.7096 23.0046 15.7246 22.8769 15.7544 22.7702C15.7849 22.6629 15.8338 22.5806 15.9011 22.5234C15.9685 22.4656 16.0574 22.4367 16.1679 22.4367C16.2727 22.4367 16.3591 22.4653 16.427 22.5225C16.495 22.579 16.5455 22.661 16.5785 22.7683C16.6116 22.875 16.6281 23.0033 16.6281 23.1532ZM15.8687 23.1532C15.8687 23.2828 15.8786 23.3908 15.8983 23.4771C15.918 23.5635 15.9497 23.6283 15.9935 23.6715C16.038 23.714 16.0961 23.7353 16.1679 23.7353C16.2397 23.7353 16.2975 23.714 16.3413 23.6715C16.3858 23.6289 16.4178 23.5645 16.4375 23.4781C16.4578 23.3917 16.468 23.2834 16.468 23.1532C16.468 23.0255 16.4582 22.9188 16.4385 22.8331C16.4188 22.7467 16.387 22.6819 16.3432 22.6387C16.2994 22.5949 16.2409 22.573 16.1679 22.573C16.0949 22.573 16.0364 22.5949 15.9926 22.6387C15.9488 22.6819 15.917 22.7467 15.8973 22.8331C15.8783 22.9188 15.8687 23.0255 15.8687 23.1532ZM17.7447 23.1532C17.7447 23.2663 17.7361 23.3673 17.719 23.4562C17.7018 23.5451 17.6748 23.6204 17.638 23.682C17.6011 23.7436 17.5535 23.7906 17.4951 23.823C17.4366 23.8547 17.3664 23.8706 17.2845 23.8706C17.181 23.8706 17.0952 23.8424 17.0273 23.7858C16.9599 23.7293 16.9094 23.6477 16.8758 23.541C16.8428 23.4336 16.8262 23.3044 16.8262 23.1532C16.8262 23.0046 16.8412 22.8769 16.871 22.7702C16.9015 22.6629 16.9504 22.5806 17.0177 22.5234C17.0851 22.4656 17.174 22.4367 17.2845 22.4367C17.3893 22.4367 17.4757 22.4653 17.5437 22.5225C17.6116 22.579 17.6621 22.661 17.6951 22.7683C17.7282 22.875 17.7447 23.0033 17.7447 23.1532ZM16.9854 23.1532C16.9854 23.2828 16.9952 23.3908 17.0149 23.4771C17.0346 23.5635 17.0663 23.6283 17.1102 23.6715C17.1546 23.714 17.2127 23.7353 17.2845 23.7353C17.3563 23.7353 17.4141 23.714 17.4579 23.6715C17.5024 23.6289 17.5344 23.5645 17.5541 23.4781C17.5745 23.3917 17.5846 23.2834 17.5846 23.1532C17.5846 23.0255 17.5748 22.9188 17.5551 22.8331C17.5354 22.7467 17.5036 22.6819 17.4598 22.6387C17.416 22.5949 17.3576 22.573 17.2845 22.573C17.2115 22.573 17.153 22.5949 17.1092 22.6387C17.0654 22.6819 17.0336 22.7467 17.0139 22.8331C16.9949 22.9188 16.9854 23.0255 16.9854 23.1532Z" fill="#212121"/>
<path d="M14.3872 31.2422H13.4745V31.1098L13.847 30.7315C13.9162 30.6616 13.9744 30.5994 14.0214 30.5448C14.069 30.4902 14.1052 30.4365 14.13 30.3838C14.1547 30.3304 14.1671 30.272 14.1671 30.2085C14.1671 30.1297 14.1436 30.0697 14.0966 30.0284C14.0503 29.9865 13.989 29.9655 13.9128 29.9655C13.8461 29.9655 13.787 29.9769 13.7355 29.9998C13.6841 30.0227 13.6314 30.0551 13.5774 30.097L13.4926 29.9903C13.5294 29.9592 13.5694 29.9315 13.6126 29.9074C13.6565 29.8833 13.7031 29.8642 13.7527 29.8502C13.8029 29.8363 13.8562 29.8293 13.9128 29.8293C13.9985 29.8293 14.0725 29.8442 14.1347 29.874C14.197 29.9039 14.2449 29.9465 14.2786 30.0017C14.3129 30.057 14.3301 30.1227 14.3301 30.1989C14.3301 30.2726 14.3154 30.3412 14.2862 30.4047C14.257 30.4676 14.216 30.5302 14.1633 30.5924C14.1106 30.654 14.049 30.7194 13.9785 30.7887L13.6755 31.0907V31.0974H14.3872V31.2422ZM15.5115 30.5438C15.5115 30.6569 15.5029 30.7579 15.4857 30.8468C15.4686 30.9357 15.4416 31.011 15.4047 31.0726C15.3679 31.1342 15.3203 31.1812 15.2618 31.2136C15.2034 31.2454 15.1332 31.2612 15.0513 31.2612C14.9478 31.2612 14.862 31.233 14.794 31.1764C14.7267 31.1199 14.6762 31.0383 14.6426 30.9316C14.6095 30.8243 14.593 30.695 14.593 30.5438C14.593 30.3952 14.6079 30.2675 14.6378 30.1608C14.6683 30.0535 14.7172 29.9712 14.7845 29.9141C14.8518 29.8563 14.9408 29.8274 15.0513 29.8274C15.1561 29.8274 15.2425 29.8559 15.3104 29.9131C15.3784 29.9696 15.4289 30.0516 15.4619 30.1589C15.4949 30.2656 15.5115 30.3939 15.5115 30.5438ZM14.7521 30.5438C14.7521 30.6734 14.762 30.7814 14.7817 30.8678C14.8013 30.9541 14.8331 31.0189 14.8769 31.0621C14.9214 31.1047 14.9795 31.126 15.0513 31.126C15.1231 31.126 15.1809 31.1047 15.2247 31.0621C15.2691 31.0196 15.3012 30.9551 15.3209 30.8687C15.3412 30.7823 15.3514 30.674 15.3514 30.5438C15.3514 30.4162 15.3416 30.3095 15.3219 30.2237C15.3022 30.1373 15.2704 30.0725 15.2266 30.0293C15.1828 29.9855 15.1243 29.9636 15.0513 29.9636C14.9782 29.9636 14.9198 29.9855 14.876 30.0293C14.8322 30.0725 14.8004 30.1373 14.7807 30.2237C14.7616 30.3095 14.7521 30.4162 14.7521 30.5438ZM16.6281 30.5438C16.6281 30.6569 16.6195 30.7579 16.6023 30.8468C16.5852 30.9357 16.5582 31.011 16.5214 31.0726C16.4845 31.1342 16.4369 31.1812 16.3785 31.2136C16.32 31.2454 16.2498 31.2612 16.1679 31.2612C16.0644 31.2612 15.9786 31.233 15.9107 31.1764C15.8433 31.1199 15.7928 31.0383 15.7592 30.9316C15.7261 30.8243 15.7096 30.695 15.7096 30.5438C15.7096 30.3952 15.7246 30.2675 15.7544 30.1608C15.7849 30.0535 15.8338 29.9712 15.9011 29.9141C15.9685 29.8563 16.0574 29.8274 16.1679 29.8274C16.2727 29.8274 16.3591 29.8559 16.427 29.9131C16.495 29.9696 16.5455 30.0516 16.5785 30.1589C16.6116 30.2656 16.6281 30.3939 16.6281 30.5438ZM15.8687 30.5438C15.8687 30.6734 15.8786 30.7814 15.8983 30.8678C15.918 30.9541 15.9497 31.0189 15.9935 31.0621C16.038 31.1047 16.0961 31.126 16.1679 31.126C16.2397 31.126 16.2975 31.1047 16.3413 31.0621C16.3858 31.0196 16.4178 30.9551 16.4375 30.8687C16.4578 30.7823 16.468 30.674 16.468 30.5438C16.468 30.4162 16.4582 30.3095 16.4385 30.2237C16.4188 30.1373 16.387 30.0725 16.3432 30.0293C16.2994 29.9855 16.2409 29.9636 16.1679 29.9636C16.0949 29.9636 16.0364 29.9855 15.9926 30.0293C15.9488 30.0725 15.917 30.1373 15.8973 30.2237C15.8783 30.3095 15.8687 30.4162 15.8687 30.5438ZM17.7447 30.5438C17.7447 30.6569 17.7361 30.7579 17.719 30.8468C17.7018 30.9357 17.6748 31.011 17.638 31.0726C17.6011 31.1342 17.5535 31.1812 17.4951 31.2136C17.4366 31.2454 17.3664 31.2612 17.2845 31.2612C17.181 31.2612 17.0952 31.233 17.0273 31.1764C16.9599 31.1199 16.9094 31.0383 16.8758 30.9316C16.8428 30.8243 16.8262 30.695 16.8262 30.5438C16.8262 30.3952 16.8412 30.2675 16.871 30.1608C16.9015 30.0535 16.9504 29.9712 17.0177 29.9141C17.0851 29.8563 17.174 29.8274 17.2845 29.8274C17.3893 29.8274 17.4757 29.8559 17.5437 29.9131C17.6116 29.9696 17.6621 30.0516 17.6951 30.1589C17.7282 30.2656 17.7447 30.3939 17.7447 30.5438ZM16.9854 30.5438C16.9854 30.6734 16.9952 30.7814 17.0149 30.8678C17.0346 30.9541 17.0663 31.0189 17.1102 31.0621C17.1546 31.1047 17.2127 31.126 17.2845 31.126C17.3563 31.126 17.4141 31.1047 17.4579 31.0621C17.5024 31.0196 17.5344 30.9551 17.5541 30.8687C17.5745 30.7823 17.5846 30.674 17.5846 30.5438C17.5846 30.4162 17.5748 30.3095 17.5551 30.2237C17.5354 30.1373 17.5036 30.0725 17.4598 30.0293C17.416 29.9855 17.3576 29.9636 17.2845 29.9636C17.2115 29.9636 17.153 29.9855 17.1092 30.0293C17.0654 30.0725 17.0336 30.1373 17.0139 30.2237C16.9949 30.3095 16.9854 30.4162 16.9854 30.5438Z" fill="#212121"/>
<path d="M14.0633 38.6328H13.9089V37.6458C13.9089 37.6083 13.9089 37.5762 13.9089 37.5495C13.9096 37.5222 13.9102 37.4975 13.9108 37.4752C13.9121 37.4524 13.9137 37.4292 13.9156 37.4057C13.8959 37.426 13.8775 37.4435 13.8604 37.4581C13.8432 37.4721 13.8219 37.4895 13.7965 37.5105L13.6374 37.6381L13.5545 37.5305L13.9318 37.2399H14.0633V38.6328ZM15.0313 37.7811C15.1259 37.7811 15.2082 37.7973 15.278 37.8296C15.3479 37.8614 15.4019 37.9078 15.44 37.9688C15.4787 38.0297 15.4981 38.1037 15.4981 38.1907C15.4981 38.286 15.4775 38.3683 15.4362 38.4375C15.3949 38.5061 15.3355 38.5591 15.258 38.5966C15.1805 38.6334 15.0878 38.6519 14.9798 38.6519C14.9074 38.6519 14.8401 38.6455 14.7778 38.6328C14.7156 38.6201 14.6632 38.6011 14.6206 38.5756V38.4251C14.667 38.4531 14.7232 38.4753 14.7893 38.4918C14.8553 38.5083 14.9195 38.5166 14.9817 38.5166C15.0522 38.5166 15.1138 38.5055 15.1666 38.4832C15.2199 38.4604 15.2612 38.4261 15.2904 38.3803C15.3203 38.334 15.3352 38.2759 15.3352 38.206C15.3352 38.1132 15.3066 38.0418 15.2495 37.9916C15.1929 37.9408 15.1034 37.9154 14.9808 37.9154C14.9414 37.9154 14.8982 37.9186 14.8512 37.9249C14.8042 37.9313 14.7655 37.9383 14.735 37.9459L14.6549 37.8935L14.7083 37.2399H15.4009V37.3847H14.8436L14.8083 37.8049C14.8325 37.7998 14.8636 37.7947 14.9017 37.7896C14.9398 37.7839 14.983 37.7811 15.0313 37.7811ZM16.6281 37.9345C16.6281 38.0475 16.6195 38.1485 16.6023 38.2374C16.5852 38.3263 16.5582 38.4016 16.5214 38.4632C16.4845 38.5248 16.4369 38.5718 16.3785 38.6042C16.32 38.636 16.2498 38.6519 16.1679 38.6519C16.0644 38.6519 15.9786 38.6236 15.9107 38.5671C15.8433 38.5105 15.7928 38.4289 15.7592 38.3222C15.7261 38.2149 15.7096 38.0856 15.7096 37.9345C15.7096 37.7858 15.7246 37.6582 15.7544 37.5514C15.7849 37.4441 15.8338 37.3619 15.9011 37.3047C15.9685 37.2469 16.0574 37.218 16.1679 37.218C16.2727 37.218 16.3591 37.2466 16.427 37.3037C16.495 37.3603 16.5455 37.4422 16.5785 37.5495C16.6116 37.6563 16.6281 37.7846 16.6281 37.9345ZM15.8687 37.9345C15.8687 38.064 15.8786 38.172 15.8983 38.2584C15.918 38.3448 15.9497 38.4096 15.9935 38.4527C16.038 38.4953 16.0961 38.5166 16.1679 38.5166C16.2397 38.5166 16.2975 38.4953 16.3413 38.4527C16.3858 38.4102 16.4178 38.3457 16.4375 38.2593C16.4578 38.173 16.468 38.0647 16.468 37.9345C16.468 37.8068 16.4582 37.7001 16.4385 37.6143C16.4188 37.5279 16.387 37.4632 16.3432 37.42C16.2994 37.3761 16.2409 37.3542 16.1679 37.3542C16.0949 37.3542 16.0364 37.3761 15.9926 37.42C15.9488 37.4632 15.917 37.5279 15.8973 37.6143C15.8783 37.7001 15.8687 37.8068 15.8687 37.9345ZM17.7447 37.9345C17.7447 38.0475 17.7361 38.1485 17.719 38.2374C17.7018 38.3263 17.6748 38.4016 17.638 38.4632C17.6011 38.5248 17.5535 38.5718 17.4951 38.6042C17.4366 38.636 17.3664 38.6519 17.2845 38.6519C17.181 38.6519 17.0952 38.6236 17.0273 38.5671C16.9599 38.5105 16.9094 38.4289 16.8758 38.3222C16.8428 38.2149 16.8262 38.0856 16.8262 37.9345C16.8262 37.7858 16.8412 37.6582 16.871 37.5514C16.9015 37.4441 16.9504 37.3619 17.0177 37.3047C17.0851 37.2469 17.174 37.218 17.2845 37.218C17.3893 37.218 17.4757 37.2466 17.5437 37.3037C17.6116 37.3603 17.6621 37.4422 17.6951 37.5495C17.7282 37.6563 17.7447 37.7846 17.7447 37.9345ZM16.9854 37.9345C16.9854 38.064 16.9952 38.172 17.0149 38.2584C17.0346 38.3448 17.0663 38.4096 17.1102 38.4527C17.1546 38.4953 17.2127 38.5166 17.2845 38.5166C17.3563 38.5166 17.4141 38.4953 17.4579 38.4527C17.5024 38.4102 17.5344 38.3457 17.5541 38.2593C17.5745 38.173 17.5846 38.0647 17.5846 37.9345C17.5846 37.8068 17.5748 37.7001 17.5551 37.6143C17.5354 37.5279 17.5036 37.4632 17.4598 37.42C17.416 37.3761 17.3576 37.3542 17.2845 37.3542C17.2115 37.3542 17.153 37.3761 17.1092 37.42C17.0654 37.4632 17.0336 37.5279 17.0139 37.6143C16.9949 37.7001 16.9854 37.8068 16.9854 37.9345Z" fill="#212121"/>
<path d="M14.0633 46.0234H13.9089V45.0364C13.9089 44.9989 13.9089 44.9668 13.9089 44.9402C13.9096 44.9129 13.9102 44.8881 13.9108 44.8659C13.9121 44.843 13.9137 44.8198 13.9156 44.7963C13.8959 44.8166 13.8775 44.8341 13.8604 44.8487C13.8432 44.8627 13.8219 44.8801 13.7965 44.9011L13.6374 45.0288L13.5545 44.9211L13.9318 44.6305H14.0633V46.0234ZM15.5115 45.3251C15.5115 45.4381 15.5029 45.5391 15.4857 45.628C15.4686 45.717 15.4416 45.7922 15.4047 45.8538C15.3679 45.9155 15.3203 45.9625 15.2618 45.9949C15.2034 46.0266 15.1332 46.0425 15.0513 46.0425C14.9478 46.0425 14.862 46.0142 14.794 45.9577C14.7267 45.9012 14.6762 45.8196 14.6426 45.7128C14.6095 45.6055 14.593 45.4762 14.593 45.3251C14.593 45.1764 14.6079 45.0488 14.6378 44.9421C14.6683 44.8347 14.7172 44.7525 14.7845 44.6953C14.8518 44.6375 14.9408 44.6086 15.0513 44.6086C15.1561 44.6086 15.2425 44.6372 15.3104 44.6944C15.3784 44.7509 15.4289 44.8328 15.4619 44.9402C15.4949 45.0469 15.5115 45.1752 15.5115 45.3251ZM14.7521 45.3251C14.7521 45.4546 14.762 45.5626 14.7817 45.649C14.8013 45.7354 14.8331 45.8002 14.8769 45.8434C14.9214 45.8859 14.9795 45.9072 15.0513 45.9072C15.1231 45.9072 15.1809 45.8859 15.2247 45.8434C15.2691 45.8008 15.3012 45.7363 15.3209 45.65C15.3412 45.5636 15.3514 45.4553 15.3514 45.3251C15.3514 45.1974 15.3416 45.0907 15.3219 45.005C15.3022 44.9186 15.2704 44.8538 15.2266 44.8106C15.1828 44.7668 15.1243 44.7449 15.0513 44.7449C14.9782 44.7449 14.9198 44.7668 14.876 44.8106C14.8322 44.8538 14.8004 44.9186 14.7807 45.005C14.7616 45.0907 14.7521 45.1974 14.7521 45.3251ZM16.6281 45.3251C16.6281 45.4381 16.6195 45.5391 16.6023 45.628C16.5852 45.717 16.5582 45.7922 16.5214 45.8538C16.4845 45.9155 16.4369 45.9625 16.3785 45.9949C16.32 46.0266 16.2498 46.0425 16.1679 46.0425C16.0644 46.0425 15.9786 46.0142 15.9107 45.9577C15.8433 45.9012 15.7928 45.8196 15.7592 45.7128C15.7261 45.6055 15.7096 45.4762 15.7096 45.3251C15.7096 45.1764 15.7246 45.0488 15.7544 44.9421C15.7849 44.8347 15.8338 44.7525 15.9011 44.6953C15.9685 44.6375 16.0574 44.6086 16.1679 44.6086C16.2727 44.6086 16.3591 44.6372 16.427 44.6944C16.495 44.7509 16.5455 44.8328 16.5785 44.9402C16.6116 45.0469 16.6281 45.1752 16.6281 45.3251ZM15.8687 45.3251C15.8687 45.4546 15.8786 45.5626 15.8983 45.649C15.918 45.7354 15.9497 45.8002 15.9935 45.8434C16.038 45.8859 16.0961 45.9072 16.1679 45.9072C16.2397 45.9072 16.2975 45.8859 16.3413 45.8434C16.3858 45.8008 16.4178 45.7363 16.4375 45.65C16.4578 45.5636 16.468 45.4553 16.468 45.3251C16.468 45.1974 16.4582 45.0907 16.4385 45.005C16.4188 44.9186 16.387 44.8538 16.3432 44.8106C16.2994 44.7668 16.2409 44.7449 16.1679 44.7449C16.0949 44.7449 16.0364 44.7668 15.9926 44.8106C15.9488 44.8538 15.917 44.9186 15.8973 45.005C15.8783 45.0907 15.8687 45.1974 15.8687 45.3251ZM17.7447 45.3251C17.7447 45.4381 17.7361 45.5391 17.719 45.628C17.7018 45.717 17.6748 45.7922 17.638 45.8538C17.6011 45.9155 17.5535 45.9625 17.4951 45.9949C17.4366 46.0266 17.3664 46.0425 17.2845 46.0425C17.181 46.0425 17.0952 46.0142 17.0273 45.9577C16.9599 45.9012 16.9094 45.8196 16.8758 45.7128C16.8428 45.6055 16.8262 45.4762 16.8262 45.3251C16.8262 45.1764 16.8412 45.0488 16.871 44.9421C16.9015 44.8347 16.9504 44.7525 17.0177 44.6953C17.0851 44.6375 17.174 44.6086 17.2845 44.6086C17.3893 44.6086 17.4757 44.6372 17.5437 44.6944C17.6116 44.7509 17.6621 44.8328 17.6951 44.9402C17.7282 45.0469 17.7447 45.1752 17.7447 45.3251ZM16.9854 45.3251C16.9854 45.4546 16.9952 45.5626 17.0149 45.649C17.0346 45.7354 17.0663 45.8002 17.1102 45.8434C17.1546 45.8859 17.2127 45.9072 17.2845 45.9072C17.3563 45.9072 17.4141 45.8859 17.4579 45.8434C17.5024 45.8008 17.5344 45.7363 17.5541 45.65C17.5745 45.5636 17.5846 45.4553 17.5846 45.3251C17.5846 45.1974 17.5748 45.0907 17.5551 45.005C17.5354 44.9186 17.5036 44.8538 17.4598 44.8106C17.416 44.7668 17.3576 44.7449 17.2845 44.7449C17.2115 44.7449 17.153 44.7668 17.1092 44.8106C17.0654 44.8538 17.0336 44.9186 17.0139 45.005C16.9949 45.0907 16.9854 45.1974 16.9854 45.3251Z" fill="#212121"/>
<path d="M15.0307 52.5623C15.1253 52.5623 15.2076 52.5785 15.2775 52.6109C15.3473 52.6427 15.4013 52.689 15.4394 52.75C15.4782 52.811 15.4975 52.885 15.4975 52.972C15.4975 53.0673 15.4769 53.1495 15.4356 53.2188C15.3943 53.2873 15.3349 53.3404 15.2575 53.3779C15.18 53.4147 15.0872 53.4331 14.9793 53.4331C14.9068 53.4331 14.8395 53.4268 14.7773 53.4141C14.715 53.4014 14.6626 53.3823 14.6201 53.3569V53.2064C14.6664 53.2343 14.7226 53.2565 14.7887 53.2731C14.8548 53.2896 14.9189 53.2978 14.9812 53.2978C15.0517 53.2978 15.1133 53.2867 15.166 53.2645C15.2193 53.2416 15.2606 53.2073 15.2898 53.1616C15.3197 53.1152 15.3346 53.0571 15.3346 52.9872C15.3346 52.8945 15.306 52.823 15.2489 52.7729C15.1924 52.7221 15.1028 52.6966 14.9802 52.6966C14.9408 52.6966 14.8976 52.6998 14.8506 52.7062C14.8036 52.7125 14.7649 52.7195 14.7344 52.7271L14.6544 52.6747L14.7077 52.0212H15.4004V52.166H14.843L14.8078 52.5861C14.8319 52.581 14.863 52.576 14.9011 52.5709C14.9392 52.5652 14.9824 52.5623 15.0307 52.5623ZM16.6275 52.7157C16.6275 52.8288 16.6189 52.9298 16.6018 53.0187C16.5846 53.1076 16.5576 53.1829 16.5208 53.2445C16.484 53.3061 16.4363 53.3531 16.3779 53.3855C16.3194 53.4172 16.2493 53.4331 16.1673 53.4331C16.0638 53.4331 15.978 53.4049 15.9101 53.3483C15.8428 53.2918 15.7923 53.2102 15.7586 53.1035C15.7256 52.9961 15.7091 52.8669 15.7091 52.7157C15.7091 52.5671 15.724 52.4394 15.7538 52.3327C15.7843 52.2254 15.8332 52.1431 15.9006 52.0859C15.9679 52.0281 16.0568 51.9992 16.1673 51.9992C16.2721 51.9992 16.3585 52.0278 16.4265 52.085C16.4944 52.1415 16.5449 52.2235 16.578 52.3308C16.611 52.4375 16.6275 52.5658 16.6275 52.7157ZM15.8682 52.7157C15.8682 52.8453 15.878 52.9533 15.8977 53.0396C15.9174 53.126 15.9491 53.1908 15.993 53.234C16.0374 53.2765 16.0956 53.2978 16.1673 53.2978C16.2391 53.2978 16.2969 53.2765 16.3407 53.234C16.3852 53.1914 16.4173 53.127 16.437 53.0406C16.4573 52.9542 16.4674 52.8459 16.4674 52.7157C16.4674 52.588 16.4576 52.4813 16.4379 52.3956C16.4182 52.3092 16.3865 52.2444 16.3426 52.2012C16.2988 52.1574 16.2404 52.1355 16.1673 52.1355C16.0943 52.1355 16.0358 52.1574 15.992 52.2012C15.9482 52.2444 15.9164 52.3092 15.8967 52.3956C15.8777 52.4813 15.8682 52.588 15.8682 52.7157ZM17.7441 52.7157C17.7441 52.8288 17.7355 52.9298 17.7184 53.0187C17.7012 53.1076 17.6742 53.1829 17.6374 53.2445C17.6006 53.3061 17.5529 53.3531 17.4945 53.3855C17.4361 53.4172 17.3659 53.4331 17.2839 53.4331C17.1804 53.4331 17.0947 53.4049 17.0267 53.3483C16.9594 53.2918 16.9089 53.2102 16.8752 53.1035C16.8422 52.9961 16.8257 52.8669 16.8257 52.7157C16.8257 52.5671 16.8406 52.4394 16.8705 52.3327C16.9009 52.2254 16.9498 52.1431 17.0172 52.0859C17.0845 52.0281 17.1734 51.9992 17.2839 51.9992C17.3887 51.9992 17.4751 52.0278 17.5431 52.085C17.6111 52.1415 17.6615 52.2235 17.6946 52.3308C17.7276 52.4375 17.7441 52.5658 17.7441 52.7157ZM16.9848 52.7157C16.9848 52.8453 16.9946 52.9533 17.0143 53.0396C17.034 53.126 17.0658 53.1908 17.1096 53.234C17.1541 53.2765 17.2122 53.2978 17.2839 53.2978C17.3557 53.2978 17.4135 53.2765 17.4573 53.234C17.5018 53.1914 17.5339 53.127 17.5536 53.0406C17.5739 52.9542 17.5841 52.8459 17.5841 52.7157C17.5841 52.588 17.5742 52.4813 17.5545 52.3956C17.5348 52.3092 17.5031 52.2444 17.4592 52.2012C17.4154 52.1574 17.357 52.1355 17.2839 52.1355C17.2109 52.1355 17.1525 52.1574 17.1086 52.2012C17.0648 52.2444 17.0331 52.3092 17.0134 52.3956C16.9943 52.4813 16.9848 52.588 16.9848 52.7157Z" fill="#212121"/>
<path d="M15.1793 60.8047H15.025V59.8176C15.025 59.7802 15.025 59.7481 15.025 59.7214C15.0256 59.6941 15.0263 59.6693 15.0269 59.6471C15.0282 59.6242 15.0297 59.6011 15.0317 59.5776C15.012 59.5979 14.9935 59.6153 14.9764 59.63C14.9592 59.6439 14.938 59.6614 14.9126 59.6824L14.7535 59.81L14.6706 59.7024L15.0479 59.4118H15.1793V60.8047ZM16.6275 60.1063C16.6275 60.2194 16.6189 60.3204 16.6018 60.4093C16.5846 60.4982 16.5576 60.5735 16.5208 60.6351C16.484 60.6967 16.4363 60.7437 16.3779 60.7761C16.3194 60.8079 16.2493 60.8237 16.1673 60.8237C16.0638 60.8237 15.978 60.7955 15.9101 60.7389C15.8428 60.6824 15.7923 60.6008 15.7586 60.4941C15.7256 60.3868 15.7091 60.2575 15.7091 60.1063C15.7091 59.9577 15.724 59.83 15.7538 59.7233C15.7843 59.616 15.8332 59.5337 15.9006 59.4766C15.9679 59.4188 16.0568 59.3899 16.1673 59.3899C16.2721 59.3899 16.3585 59.4184 16.4265 59.4756C16.4944 59.5321 16.5449 59.6141 16.578 59.7214C16.611 59.8281 16.6275 59.9564 16.6275 60.1063ZM15.8682 60.1063C15.8682 60.2359 15.878 60.3439 15.8977 60.4303C15.9174 60.5166 15.9491 60.5814 15.993 60.6246C16.0374 60.6672 16.0956 60.6885 16.1673 60.6885C16.2391 60.6885 16.2969 60.6672 16.3407 60.6246C16.3852 60.5821 16.4173 60.5176 16.437 60.4312C16.4573 60.3448 16.4674 60.2365 16.4674 60.1063C16.4674 59.9787 16.4576 59.872 16.4379 59.7862C16.4182 59.6998 16.3865 59.635 16.3426 59.5918C16.2988 59.548 16.2404 59.5261 16.1673 59.5261C16.0943 59.5261 16.0358 59.548 15.992 59.5918C15.9482 59.635 15.9164 59.6998 15.8967 59.7862C15.8777 59.872 15.8682 59.9787 15.8682 60.1063ZM17.7441 60.1063C17.7441 60.2194 17.7355 60.3204 17.7184 60.4093C17.7012 60.4982 17.6742 60.5735 17.6374 60.6351C17.6006 60.6967 17.5529 60.7437 17.4945 60.7761C17.4361 60.8079 17.3659 60.8237 17.2839 60.8237C17.1804 60.8237 17.0947 60.7955 17.0267 60.7389C16.9594 60.6824 16.9089 60.6008 16.8752 60.4941C16.8422 60.3868 16.8257 60.2575 16.8257 60.1063C16.8257 59.9577 16.8406 59.83 16.8705 59.7233C16.9009 59.616 16.9498 59.5337 17.0172 59.4766C17.0845 59.4188 17.1734 59.3899 17.2839 59.3899C17.3887 59.3899 17.4751 59.4184 17.5431 59.4756C17.6111 59.5321 17.6615 59.6141 17.6946 59.7214C17.7276 59.8281 17.7441 59.9564 17.7441 60.1063ZM16.9848 60.1063C16.9848 60.2359 16.9946 60.3439 17.0143 60.4303C17.034 60.5166 17.0658 60.5814 17.1096 60.6246C17.1541 60.6672 17.2122 60.6885 17.2839 60.6885C17.3557 60.6885 17.4135 60.6672 17.4573 60.6246C17.5018 60.5821 17.5339 60.5176 17.5536 60.4312C17.5739 60.3448 17.5841 60.2365 17.5841 60.1063C17.5841 59.9787 17.5742 59.872 17.5545 59.7862C17.5348 59.6998 17.5031 59.635 17.4592 59.5918C17.4154 59.548 17.357 59.5261 17.2839 59.5261C17.2109 59.5261 17.1525 59.548 17.1086 59.5918C17.0648 59.635 17.0331 59.6998 17.0134 59.7862C16.9943 59.872 16.9848 59.9787 16.9848 60.1063Z" fill="#212121"/>
<path d="M17.7441 67.493C17.7441 67.6061 17.7355 67.7071 17.7184 67.796C17.7012 67.8849 17.6742 67.9602 17.6374 68.0218C17.6006 68.0834 17.5529 68.1304 17.4945 68.1628C17.4361 68.1946 17.3659 68.2105 17.2839 68.2105C17.1804 68.2105 17.0947 68.1822 17.0267 68.1257C16.9594 68.0691 16.9089 67.9875 16.8752 67.8808C16.8422 67.7735 16.8257 67.6442 16.8257 67.493C16.8257 67.3444 16.8406 67.2167 16.8705 67.11C16.9009 67.0027 16.9498 66.9204 17.0172 66.8633C17.0845 66.8055 17.1734 66.7766 17.2839 66.7766C17.3887 66.7766 17.4751 66.8052 17.5431 66.8623C17.6111 66.9189 17.6615 67.0008 17.6946 67.1081C17.7276 67.2148 17.7441 67.3431 17.7441 67.493ZM16.9848 67.493C16.9848 67.6226 16.9946 67.7306 17.0143 67.817C17.034 67.9034 17.0658 67.9681 17.1096 68.0113C17.1541 68.0539 17.2122 68.0752 17.2839 68.0752C17.3557 68.0752 17.4135 68.0539 17.4573 68.0113C17.5018 67.9688 17.5339 67.9043 17.5536 67.8179C17.5739 67.7315 17.5841 67.6233 17.5841 67.493C17.5841 67.3654 17.5742 67.2587 17.5545 67.1729C17.5348 67.0865 17.5031 67.0218 17.4592 66.9786C17.4154 66.9347 17.357 66.9128 17.2839 66.9128C17.2109 66.9128 17.1525 66.9347 17.1086 66.9786C17.0648 67.0218 17.0331 67.0865 17.0134 67.1729C16.9943 67.2587 16.9848 67.3654 16.9848 67.493Z" fill="#212121"/>
<path d="M29.169 71.4141H29.0146V70.427C29.0146 70.3895 29.0146 70.3575 29.0146 70.3308C29.0153 70.3035 29.0159 70.2787 29.0166 70.2565C29.0178 70.2336 29.0194 70.2104 29.0213 70.1869C29.0016 70.2073 28.9832 70.2247 28.9661 70.2393C28.9489 70.2533 28.9276 70.2708 28.9022 70.2917L28.7431 70.4194L28.6602 70.3117L29.0375 70.0212H29.169V71.4141Z" fill="#212121"/>
<path d="M21.4517 70.7157C21.4517 70.8288 21.4431 70.9298 21.426 71.0187C21.4088 71.1076 21.3819 71.1829 21.345 71.2445C21.3082 71.3061 21.2605 71.3531 21.2021 71.3855C21.1437 71.4172 21.0735 71.4331 20.9915 71.4331C20.888 71.4331 20.8023 71.4049 20.7343 71.3483C20.667 71.2918 20.6165 71.2102 20.5828 71.1035C20.5498 70.9961 20.5333 70.8669 20.5333 70.7157C20.5333 70.5671 20.5482 70.4394 20.5781 70.3327C20.6085 70.2254 20.6574 70.1431 20.7248 70.0859C20.7921 70.0281 20.881 69.9992 20.9915 69.9992C21.0963 69.9992 21.1827 70.0278 21.2507 70.085C21.3187 70.1415 21.3691 70.2235 21.4022 70.3308C21.4352 70.4375 21.4517 70.5658 21.4517 70.7157ZM20.6924 70.7157C20.6924 70.8453 20.7022 70.9533 20.7219 71.0396C20.7416 71.126 20.7734 71.1908 20.8172 71.234C20.8617 71.2765 20.9198 71.2978 20.9915 71.2978C21.0633 71.2978 21.1211 71.2765 21.1649 71.234C21.2094 71.1914 21.2415 71.127 21.2612 71.0406C21.2815 70.9542 21.2917 70.8459 21.2917 70.7157C21.2917 70.588 21.2818 70.4813 21.2621 70.3956C21.2424 70.3092 21.2107 70.2444 21.1668 70.2012C21.123 70.1574 21.0646 70.1355 20.9915 70.1355C20.9185 70.1355 20.8601 70.1574 20.8162 70.2012C20.7724 70.2444 20.7407 70.3092 20.721 70.3956C20.7019 70.4813 20.6924 70.588 20.6924 70.7157Z" fill="#212121"/>
<path d="M37.5418 71.4141H36.629V71.2816L37.0015 70.9034C37.0708 70.8335 37.1289 70.7713 37.1759 70.7167C37.2235 70.662 37.2597 70.6084 37.2845 70.5556C37.3093 70.5023 37.3217 70.4439 37.3217 70.3803C37.3217 70.3016 37.2982 70.2416 37.2512 70.2003C37.2048 70.1583 37.1435 70.1374 37.0673 70.1374C37.0006 70.1374 36.9415 70.1488 36.8901 70.1717C36.8386 70.1946 36.7859 70.2269 36.7319 70.2689L36.6471 70.1622C36.684 70.131 36.724 70.1034 36.7672 70.0793C36.811 70.0551 36.8577 70.0361 36.9072 70.0221C36.9574 70.0081 37.0108 70.0011 37.0673 70.0011C37.153 70.0011 37.227 70.0161 37.2893 70.0459C37.3515 70.0758 37.3995 70.1183 37.4331 70.1736C37.4674 70.2288 37.4846 70.2946 37.4846 70.3708C37.4846 70.4445 37.47 70.5131 37.4408 70.5766C37.4115 70.6395 37.3706 70.702 37.3179 70.7643C37.2651 70.8259 37.2035 70.8913 37.133 70.9606L36.8301 71.2626V71.2692H37.5418V71.4141Z" fill="#212121"/>
<path d="M45.7833 70.346C45.7833 70.4083 45.7712 70.4623 45.7471 70.508C45.7229 70.5537 45.6893 70.5912 45.6461 70.6204C45.6029 70.649 45.5521 70.669 45.4936 70.6804V70.6881C45.6042 70.702 45.687 70.7376 45.7423 70.7948C45.7982 70.8519 45.8261 70.9269 45.8261 71.0196C45.8261 71.1003 45.8071 71.1717 45.769 71.234C45.7315 71.2962 45.6737 71.3451 45.5956 71.3807C45.5181 71.4157 45.4187 71.4331 45.2974 71.4331C45.2237 71.4331 45.1554 71.4271 45.0925 71.415C45.0303 71.4036 44.9706 71.3842 44.9134 71.3569V71.2083C44.9712 71.2369 45.0341 71.2594 45.1021 71.2759C45.17 71.2918 45.2358 71.2997 45.2993 71.2997C45.4263 71.2997 45.5181 71.2746 45.5746 71.2245C45.6312 71.1737 45.6594 71.1044 45.6594 71.0168C45.6594 70.9564 45.6435 70.9078 45.6118 70.871C45.5807 70.8335 45.5356 70.8062 45.4765 70.7891C45.4181 70.7713 45.3476 70.7624 45.265 70.7624H45.1259V70.6271H45.2659C45.3415 70.6271 45.4057 70.616 45.4584 70.5938C45.5111 70.5715 45.5511 70.5404 45.5784 70.5004C45.6064 70.4597 45.6204 70.4118 45.6204 70.3565C45.6204 70.286 45.5969 70.2317 45.5499 70.1936C45.5029 70.1549 45.439 70.1355 45.3584 70.1355C45.3088 70.1355 45.2637 70.1406 45.2231 70.1507C45.1824 70.1609 45.1443 70.1749 45.1087 70.1926C45.0732 70.2104 45.0376 70.2311 45.002 70.2546L44.922 70.146C44.9728 70.1066 45.0347 70.0726 45.1078 70.044C45.1808 70.0154 45.2637 70.0011 45.3564 70.0011C45.4987 70.0011 45.6054 70.0335 45.6766 70.0983C45.7477 70.1631 45.7833 70.2457 45.7833 70.346Z" fill="#212121"/>
<path d="M53.9531 71.0911H53.7445V71.4141H53.5901V71.0911H52.9165V70.9577L53.5796 70.0135H53.7445V70.9482H53.9531V71.0911ZM53.5901 70.9482V70.4928C53.5901 70.4578 53.5904 70.4264 53.5911 70.3984C53.5917 70.3699 53.5926 70.3435 53.5939 70.3194C53.5952 70.2946 53.5961 70.2711 53.5968 70.2489C53.598 70.2266 53.599 70.2047 53.5996 70.1831H53.592C53.5799 70.2085 53.566 70.2355 53.5501 70.2641C53.5348 70.292 53.5193 70.3171 53.5034 70.3394L53.0737 70.9482H53.5901Z" fill="#212121"/>
<path d="M61.4598 70.5623C61.5545 70.5623 61.6367 70.5785 61.7066 70.6109C61.7764 70.6427 61.8304 70.689 61.8685 70.75C61.9073 70.811 61.9267 70.885 61.9267 70.972C61.9267 71.0673 61.906 71.1495 61.8647 71.2188C61.8234 71.2873 61.7641 71.3404 61.6866 71.3779C61.6091 71.4147 61.5163 71.4331 61.4084 71.4331C61.336 71.4331 61.2686 71.4268 61.2064 71.4141C61.1441 71.4014 61.0917 71.3823 61.0492 71.3569V71.2064C61.0956 71.2343 61.1518 71.2565 61.2178 71.2731C61.2839 71.2896 61.348 71.2978 61.4103 71.2978C61.4808 71.2978 61.5424 71.2867 61.5951 71.2645C61.6485 71.2416 61.6897 71.2073 61.719 71.1616C61.7488 71.1152 61.7637 71.0571 61.7637 70.9872C61.7637 70.8945 61.7352 70.823 61.678 70.7729C61.6215 70.7221 61.5319 70.6966 61.4093 70.6966C61.3699 70.6966 61.3268 70.6998 61.2797 70.7062C61.2327 70.7125 61.194 70.7195 61.1635 70.7271L61.0835 70.6747L61.1368 70.0212H61.8295V70.166H61.2721L61.2369 70.5861C61.261 70.581 61.2921 70.576 61.3302 70.5709C61.3684 70.5652 61.4115 70.5623 61.4598 70.5623Z" fill="#212121"/>
<path d="M69.0818 70.8186C69.0818 70.7348 69.0875 70.6528 69.0989 70.5728C69.111 70.4928 69.131 70.4184 69.159 70.3498C69.1869 70.2806 69.225 70.22 69.2733 70.1679C69.3216 70.1158 69.3816 70.0751 69.4534 70.0459C69.5258 70.0161 69.6125 70.0011 69.7135 70.0011C69.742 70.0011 69.7729 70.0027 69.8059 70.0059C69.8389 70.0084 69.8662 70.0129 69.8878 70.0192V70.1555C69.8643 70.1472 69.8373 70.1412 69.8068 70.1374C69.777 70.1336 69.7468 70.1317 69.7163 70.1317C69.5982 70.1317 69.5051 70.1574 69.4372 70.2088C69.3698 70.2603 69.3212 70.3302 69.2914 70.4184C69.2615 70.5061 69.2444 70.6049 69.2399 70.7147H69.2504C69.2701 70.683 69.2952 70.6544 69.3257 70.629C69.3562 70.603 69.393 70.5823 69.4362 70.5671C69.48 70.5518 69.5309 70.5442 69.5887 70.5442C69.67 70.5442 69.7408 70.5607 69.8011 70.5938C69.8621 70.6268 69.9091 70.6747 69.9421 70.7376C69.9758 70.8005 69.9926 70.8767 69.9926 70.9663C69.9926 71.0622 69.9748 71.1451 69.9393 71.2149C69.9037 71.2848 69.8529 71.3388 69.7868 71.3769C69.7214 71.4144 69.6433 71.4331 69.5524 71.4331C69.4845 71.4331 69.4219 71.4201 69.3648 71.3941C69.3076 71.368 69.2577 71.3293 69.2152 71.2778C69.1733 71.2264 69.1405 71.1625 69.117 71.0863C69.0935 71.0095 69.0818 70.9202 69.0818 70.8186ZM69.5505 71.2997C69.6369 71.2997 69.7062 71.2721 69.7582 71.2168C69.8103 71.1616 69.8364 71.0781 69.8364 70.9663C69.8364 70.8748 69.8132 70.8024 69.7668 70.749C69.7204 70.6957 69.6506 70.669 69.5572 70.669C69.4937 70.669 69.4384 70.6824 69.3914 70.709C69.3444 70.7351 69.3079 70.7681 69.2819 70.8081C69.2558 70.8481 69.2428 70.8888 69.2428 70.9301C69.2428 70.972 69.2488 71.0145 69.2609 71.0577C69.2736 71.1009 69.2927 71.1409 69.3181 71.1778C69.3435 71.2146 69.3756 71.2442 69.4143 71.2664C69.453 71.2886 69.4985 71.2997 69.5505 71.2997Z" fill="#212121"/>
<path d="M77.0532 71.4141L77.6249 70.166H76.8655V70.0212H77.7945V70.1431L77.2266 71.4141H77.0532Z" fill="#212121"/>
<path d="M20.2832 68.9258H76.6247" stroke="#D4D4D4" stroke-width="0.243902"/>
<path d="M34.299 60.9937C27.3033 60.9937 27.3033 58.9977 20.2451 58.9977V68.9779H34.299H48.3529H62.4693H76.5232V50.4432C69.465 50.4432 69.465 58.1423 62.4693 58.1423C55.4111 58.1423 55.4111 45.168 48.3529 45.168C41.3572 45.168 41.3572 60.9937 34.299 60.9937Z" fill="#FFB960"/>
<rect x="49.5859" y="42.0391" width="5.05059" height="3.60757" rx="1.80378" fill="white" fill-opacity="0.6"/>
<rect x="49.6581" y="42.1112" width="4.90629" height="3.46326" rx="1.73163" stroke="#FF4FFB" stroke-opacity="0.588235" stroke-width="0.144303"/>
<path d="M51.5438 44.3438H51.322V43.4597C51.322 43.4303 51.3224 43.4008 51.323 43.3714C51.3236 43.342 51.3242 43.3132 51.3249 43.285C51.3261 43.2568 51.3277 43.2299 51.3296 43.2042C51.3164 43.2186 51.3001 43.2342 51.2807 43.2511C51.2619 43.2681 51.2419 43.2856 51.2206 43.3038L51.0627 43.4296L50.9519 43.2897L51.3596 42.9702H51.5438V44.3438ZM52.9257 43.6561C52.9257 43.7669 52.9169 43.8662 52.8994 43.9539C52.8825 44.0409 52.8556 44.1148 52.8186 44.1756C52.7817 44.2363 52.7334 44.2827 52.6739 44.3146C52.6144 44.3466 52.5424 44.3625 52.4579 44.3625C52.352 44.3625 52.2646 44.3347 52.1957 44.2789C52.1269 44.2226 52.0758 44.1418 52.0426 44.0365C52.0094 43.9307 51.9928 43.8039 51.9928 43.6561C51.9928 43.5082 52.0079 43.3817 52.0379 43.2765C52.0686 43.1707 52.1181 43.0896 52.1864 43.0332C52.2546 42.9768 52.3451 42.9486 52.4579 42.9486C52.5643 42.9486 52.652 42.9768 52.7209 43.0332C52.7904 43.0889 52.8418 43.1697 52.875 43.2756C52.9088 43.3808 52.9257 43.5076 52.9257 43.6561ZM52.2155 43.6561C52.2155 43.7719 52.223 43.8687 52.238 43.9464C52.2537 44.024 52.2794 44.0823 52.3151 44.1211C52.3508 44.1593 52.3984 44.1784 52.4579 44.1784C52.5174 44.1784 52.565 44.1593 52.6007 44.1211C52.6364 44.0829 52.662 44.025 52.6777 43.9473C52.694 43.8696 52.7021 43.7726 52.7021 43.6561C52.7021 43.5408 52.6943 43.4444 52.6786 43.3667C52.663 43.289 52.6373 43.2308 52.6016 43.192C52.5659 43.1525 52.518 43.1328 52.4579 43.1328C52.3977 43.1328 52.3498 43.1525 52.3141 43.192C52.279 43.2308 52.2537 43.289 52.238 43.3667C52.223 43.4444 52.2155 43.5408 52.2155 43.6561ZM53.5636 43.4851C53.6519 43.4851 53.7296 43.501 53.7966 43.533C53.8642 43.5643 53.9169 43.6106 53.9544 43.672C53.992 43.7328 54.0108 43.8073 54.0108 43.8956C54.0108 43.9921 53.9904 44.0754 53.9497 44.1455C53.909 44.215 53.8492 44.2686 53.7703 44.3062C53.6914 44.3438 53.5952 44.3625 53.4819 44.3625C53.4099 44.3625 53.3425 44.3563 53.2799 44.3438C53.2179 44.3312 53.1643 44.3124 53.1192 44.2874V44.0882C53.1662 44.1145 53.2226 44.1361 53.2884 44.153C53.3541 44.1693 53.4171 44.1775 53.4772 44.1775C53.5411 44.1775 53.5959 44.1681 53.6416 44.1493C53.6873 44.1305 53.7224 44.1017 53.7468 44.0628C53.7719 44.024 53.7844 43.9749 53.7844 43.9154C53.7844 43.8364 53.759 43.7757 53.7083 43.7331C53.6582 43.6899 53.5796 43.6683 53.4725 43.6683C53.4349 43.6683 53.3948 43.6717 53.3522 43.6786C53.3103 43.6849 53.2752 43.6918 53.247 43.6993L53.1502 43.642L53.2019 42.9702H53.9159V43.1647H53.3964L53.3663 43.5067C53.3889 43.5017 53.4158 43.497 53.4471 43.4926C53.4784 43.4876 53.5173 43.4851 53.5636 43.4851Z" fill="#212121"/>
</svg>
