<svg width="45" height="45" viewBox="0 0 45 45" fill="none" xmlns="http://www.w3.org/2000/svg">
<rect x="1.22985" y="1.42125" width="43.015" height="43.015" rx="21.5075" fill="white"/>
<rect x="1.22985" y="1.42125" width="43.015" height="43.015" rx="21.5075" stroke="#CDCDCD" stroke-width="1.10423"/>
<path d="M34.5317 35.5202C34.441 34.8016 34.6224 36.1815 34.5317 35.4629C34.4689 34.9676 34.427 34.4688 34.2701 33.9874C33.9108 32.8887 33.1434 32.0899 32.1248 31.5806C30.5517 30.7923 28.9785 30.0004 27.4053 29.2121C27.2239 29.1214 27.0286 29.0377 26.8507 28.9331C26.167 28.5284 25.8531 27.6285 25.6508 26.9064C27.1367 25.9611 28.1657 24.4333 28.7448 22.7869C29.7494 22.6997 30.4714 22.009 30.8237 21.0916C31.1551 20.23 31.4795 18.4964 29.9622 18.7545C30.147 17.2442 30.2796 15.7163 30.2377 14.1955C30.2168 13.4944 30.1819 12.7444 29.9308 12.0816C29.6587 11.3631 29.1285 10.355 28.3611 10.0585C29.0692 8.01094 27.0425 6.97146 25.3473 6.76914C23.1253 6.50055 20.7987 7.05866 18.7546 7.9028C17.2791 8.51324 16.1141 9.57016 15.4687 11.0422C14.9037 12.3293 14.7432 13.7664 14.7851 15.1617C14.8199 16.3651 15.0013 17.5686 15.2978 18.7336C13.8537 18.6534 14.349 20.4882 14.6839 21.2556C15.0502 22.0997 15.7652 22.7101 16.6966 22.7904C17.3314 24.5833 18.4197 26.0379 19.7871 26.9134C19.6057 27.5727 19.3371 28.3157 18.8069 28.7796C18.6395 28.9261 18.4477 29.0098 18.2523 29.1075C17.4745 29.4981 16.6966 29.8888 15.9187 30.2795C15.1199 30.6806 14.3246 31.0783 13.5258 31.4794C12.6573 31.9155 11.9178 32.4492 11.4504 33.3352C10.8922 34.3921 11.0974 35.3369 11.0974 35.3369C11.3939 35.6647 11.8201 35.8671 12.1968 36.0833C12.6189 36.324 13.0479 36.5507 13.4805 36.7705C16.8117 38.4309 20.5406 39.3204 24.2659 39.0029C26.3449 38.825 28.382 38.3018 30.311 37.517C31.3191 37.1054 32.2958 36.624 33.241 36.0868C33.8825 35.8424 34.5504 35.6123 34.5317 35.5202ZM23.7741 7.30632C24.7648 7.26447 25.9124 7.30981 26.774 7.86792C27.2065 8.14698 27.5135 8.56207 27.6181 9.06786C27.6844 9.39226 27.7646 10.5573 27.1402 10.341C26.8437 10.2364 26.9239 9.95734 26.9484 9.71666C26.9763 9.44807 26.9588 9.1725 26.8367 8.92833C26.6414 8.54463 26.2403 8.33185 25.8461 8.20628C25.3543 8.04931 24.8241 8.00745 24.3113 8.00047C24.0601 7.99698 23.652 8.10163 23.4916 7.84699C23.352 7.61677 23.5125 7.32028 23.7741 7.30632ZM22.1102 7.4912C22.3265 7.42143 22.7591 7.32725 22.9649 7.41446C23.3695 7.58887 23.1323 8.02489 22.8079 8.08768C22.616 8.12605 22.2951 8.22023 22.0928 8.17139C21.744 8.08768 21.7475 7.56445 22.1102 7.4912ZM17.2756 22.3404C17.2756 22.0439 16.7524 22.0997 16.5815 22.0718C16.2431 22.009 15.9397 21.8346 15.7059 21.5835C15.3711 21.2207 15.2002 20.7254 15.0816 20.2545C15.0362 20.0766 14.9211 19.7138 15.0257 19.5324C15.2664 19.1069 16.1559 19.8743 16.4908 19.8359C16.8047 19.7975 16.7943 19.4975 16.7943 19.2568C16.7908 18.7964 16.8745 18.3394 16.8745 17.8825H16.878C16.8222 16.6337 16.7873 14.9803 17.5686 13.9129C18.0081 13.3165 18.6814 13.2293 19.3616 13.4141C20.2127 13.6478 20.9591 14.1467 21.8242 14.3629C22.5777 14.5513 23.216 14.4955 23.959 14.2687C24.7822 14.0141 25.5356 13.4804 26.3903 13.3444C27.8309 13.1176 28.3157 14.5443 28.4797 15.6989C28.5878 16.4384 28.5355 17.1674 28.5634 17.9104C28.5773 18.3081 28.6436 18.7057 28.6471 19.1068C28.6506 19.3545 28.5739 19.6824 28.8494 19.808C29.1424 19.944 29.6482 19.5429 29.9447 19.4696C30.0563 19.4417 30.29 19.372 30.3877 19.4731C30.5831 19.6789 30.3493 20.3033 30.29 20.5021C30.0947 21.13 29.7738 21.7614 29.118 22.002C28.9087 22.0788 28.7134 22.0613 28.5006 22.0997C28.1832 22.1555 28.1518 22.4067 28.0506 22.6753C27.5379 24.067 26.6693 25.3786 25.431 26.2227C23.8509 27.3006 21.8626 27.3738 20.2266 26.3692C18.7721 25.4728 17.7954 23.938 17.2756 22.3404ZM22.7067 33.5375C20.7917 33.5375 19.229 31.7236 19.1209 29.4075C19.7906 28.9086 20.1883 28.0261 20.415 27.2587C21.8765 27.9599 23.5648 27.9564 25.0264 27.2552C25.2531 28.0331 25.6542 28.9121 26.3205 29.4075C26.2089 31.7271 24.6462 33.5375 22.7067 33.5375Z" fill="#202020"/>
</svg>
