<svg width="92" height="92" viewBox="0 0 92 92" fill="none" xmlns="http://www.w3.org/2000/svg">
<rect x="0.389831" y="0.389831" width="91.079" height="91.2203" rx="17.5424" stroke="#BEBEBE" stroke-width="0.779661"/>
<rect width="69.6704" height="60.4458" transform="translate(12 16)" fill="white"/>
<path d="M21.71 21.8281V68.6797" stroke="#E0E0E0" stroke-width="0.242754"/>
<path d="M29.5993 68.6797C29.5993 68.7467 29.6537 68.801 29.7207 68.801C29.7877 68.801 29.8421 68.7467 29.8421 68.6797H29.5993ZM29.7207 21.8281H29.5993V68.6797H29.7207H29.8421V21.8281H29.7207Z" fill="#E0E0E0"/>
<path d="M37.6101 68.6797C37.6101 68.7467 37.6644 68.801 37.7314 68.801C37.7985 68.801 37.8528 68.7467 37.8528 68.6797H37.6101ZM37.7314 21.8281H37.6101V68.6797H37.7314H37.8528V21.8281H37.7314Z" fill="#E0E0E0"/>
<path d="M45.6208 68.6797C45.6208 68.7467 45.6752 68.801 45.7422 68.801C45.8092 68.801 45.8636 68.7467 45.8636 68.6797H45.6208ZM45.7422 21.8281H45.6208V68.6797H45.7422H45.8636V21.8281H45.7422Z" fill="#E0E0E0"/>
<path d="M53.6325 68.6797C53.6325 68.7467 53.6869 68.801 53.7539 68.801C53.8209 68.801 53.8753 68.7467 53.8753 68.6797H53.6325ZM53.7539 21.8281H53.6325V68.6797H53.7539H53.8753V21.8281H53.7539Z" fill="#E0E0E0"/>
<path d="M61.6433 68.6797C61.6433 68.7467 61.6976 68.801 61.7646 68.801C61.8317 68.801 61.886 68.7467 61.886 68.6797H61.6433ZM61.7646 21.8281H61.6433V68.6797H61.7646H61.886V21.8281H61.7646Z" fill="#E0E0E0"/>
<path d="M69.654 68.6797C69.654 68.7467 69.7084 68.801 69.7754 68.801C69.8424 68.801 69.8968 68.7467 69.8968 68.6797H69.654ZM69.7754 21.8281H69.654V68.6797H69.7754H69.8968V21.8281H69.7754Z" fill="#E0E0E0"/>
<path d="M77.6648 68.6797C77.6648 68.7467 77.7191 68.801 77.7861 68.801C77.8532 68.801 77.9075 68.7467 77.9075 68.6797H77.6648ZM77.7861 21.8281H77.6648V68.6797H77.7861H77.9075V21.8281H77.7861Z" fill="#E0E0E0"/>
<path d="M15.8837 23.8281H14.9145V23.6242L15.2626 23.2724C15.3327 23.2004 15.389 23.1403 15.4313 23.0923C15.4743 23.0436 15.5053 22.9993 15.5243 22.9595C15.5439 22.9197 15.5537 22.877 15.5537 22.8315C15.5537 22.7765 15.5382 22.7354 15.5072 22.7082C15.4769 22.6804 15.4361 22.6665 15.3849 22.6665C15.3312 22.6665 15.279 22.6788 15.2284 22.7035C15.1778 22.7281 15.1251 22.7632 15.0701 22.8087L14.9108 22.62C14.9506 22.5859 14.9926 22.5537 15.0369 22.5233C15.0818 22.493 15.1336 22.4686 15.1924 22.4503C15.2518 22.4313 15.3229 22.4219 15.4057 22.4219C15.4968 22.4219 15.5749 22.4383 15.64 22.4712C15.7057 22.504 15.7563 22.5489 15.7917 22.6058C15.8271 22.6621 15.8448 22.7259 15.8448 22.7974C15.8448 22.8739 15.8296 22.9437 15.7993 23.0069C15.7689 23.0702 15.7247 23.1327 15.6665 23.1947C15.609 23.2566 15.5395 23.3252 15.4579 23.4005L15.2796 23.5683V23.5816H15.8837V23.8281ZM16.5304 22.9425C16.6151 22.9425 16.6903 22.9586 16.7561 22.9908C16.8224 23.0231 16.8746 23.0705 16.9125 23.1331C16.9505 23.1956 16.9694 23.2728 16.9694 23.3644C16.9694 23.4643 16.9486 23.5506 16.9068 23.6233C16.8657 23.6954 16.8041 23.7507 16.7219 23.7892C16.6404 23.8278 16.5386 23.8471 16.4166 23.8471C16.3439 23.8471 16.2753 23.8408 16.2108 23.8281C16.147 23.8161 16.091 23.7975 16.043 23.7722V23.519C16.091 23.5443 16.1485 23.5658 16.2156 23.5835C16.2832 23.6005 16.3467 23.6091 16.4062 23.6091C16.4643 23.6091 16.5133 23.6015 16.5531 23.5863C16.593 23.5705 16.623 23.5465 16.6432 23.5143C16.6641 23.4814 16.6745 23.4397 16.6745 23.3891C16.6745 23.3214 16.6518 23.2696 16.6062 23.2336C16.5607 23.1975 16.4909 23.1795 16.3967 23.1795C16.3606 23.1795 16.323 23.183 16.2838 23.1899C16.2453 23.1969 16.213 23.2039 16.1871 23.2108L16.0705 23.1482L16.1226 22.4418H16.8746V22.6902H16.3796L16.354 22.9624C16.3755 22.9579 16.3989 22.9535 16.4242 22.9491C16.4495 22.9447 16.4849 22.9425 16.5304 22.9425ZM18.0988 23.1349C18.0988 23.2468 18.0899 23.3467 18.0722 23.4346C18.0552 23.5225 18.0274 23.5971 17.9888 23.6584C17.9509 23.7197 17.9009 23.7665 17.839 23.7987C17.777 23.831 17.7018 23.8471 17.6133 23.8471C17.502 23.8471 17.4107 23.819 17.3392 23.7627C17.2678 23.7058 17.215 23.6242 17.1809 23.518C17.1467 23.4112 17.1297 23.2835 17.1297 23.1349C17.1297 22.9851 17.1452 22.8571 17.1761 22.7509C17.2078 22.6441 17.259 22.5622 17.3298 22.5053C17.4006 22.4484 17.4951 22.42 17.6133 22.42C17.7239 22.42 17.815 22.4484 17.8864 22.5053C17.9585 22.5616 18.0119 22.6431 18.0466 22.75C18.0814 22.8562 18.0988 22.9845 18.0988 23.1349ZM17.4208 23.1349C17.4208 23.2405 17.4265 23.3287 17.4379 23.3995C17.4499 23.4697 17.4698 23.5225 17.4976 23.5579C17.5254 23.5933 17.564 23.611 17.6133 23.611C17.662 23.611 17.7002 23.5936 17.728 23.5588C17.7565 23.5234 17.7767 23.4706 17.7887 23.4005C17.8007 23.3297 17.8067 23.2412 17.8067 23.1349C17.8067 23.0294 17.8007 22.9412 17.7887 22.8704C17.7767 22.7996 17.7565 22.7465 17.728 22.7111C17.7002 22.675 17.662 22.657 17.6133 22.657C17.564 22.657 17.5254 22.675 17.4976 22.7111C17.4698 22.7465 17.4499 22.7996 17.4379 22.8704C17.4265 22.9412 17.4208 23.0294 17.4208 23.1349ZM19.2102 23.1349C19.2102 23.2468 19.2013 23.3467 19.1836 23.4346C19.1665 23.5225 19.1387 23.5971 19.1002 23.6584C19.0622 23.7197 19.0123 23.7665 18.9503 23.7987C18.8884 23.831 18.8132 23.8471 18.7247 23.8471C18.6134 23.8471 18.522 23.819 18.4506 23.7627C18.3792 23.7058 18.3264 23.6242 18.2922 23.518C18.2581 23.4112 18.241 23.2835 18.241 23.1349C18.241 22.9851 18.2565 22.8571 18.2875 22.7509C18.3191 22.6441 18.3703 22.5622 18.4411 22.5053C18.5119 22.4484 18.6064 22.42 18.7247 22.42C18.8353 22.42 18.9263 22.4484 18.9977 22.5053C19.0698 22.5616 19.1232 22.6431 19.158 22.75C19.1928 22.8562 19.2102 22.9845 19.2102 23.1349ZM18.5322 23.1349C18.5322 23.2405 18.5378 23.3287 18.5492 23.3995C18.5612 23.4697 18.5811 23.5225 18.609 23.5579C18.6368 23.5933 18.6753 23.611 18.7247 23.611C18.7733 23.611 18.8116 23.5936 18.8394 23.5588C18.8678 23.5234 18.8881 23.4706 18.9001 23.4005C18.9121 23.3297 18.9181 23.2412 18.9181 23.1349C18.9181 23.0294 18.9121 22.9412 18.9001 22.8704C18.8881 22.7996 18.8678 22.7465 18.8394 22.7111C18.8116 22.675 18.7733 22.657 18.7247 22.657C18.6753 22.657 18.6368 22.675 18.609 22.7111C18.5811 22.7465 18.5612 22.7996 18.5492 22.8704C18.5378 22.9412 18.5322 23.0294 18.5322 23.1349Z" fill="#212121"/>
<path d="M15.8837 31.1992H14.9145V30.9953L15.2626 30.6435C15.3327 30.5715 15.389 30.5114 15.4313 30.4634C15.4743 30.4147 15.5053 30.3704 15.5243 30.3306C15.5439 30.2908 15.5537 30.2481 15.5537 30.2026C15.5537 30.1476 15.5382 30.1065 15.5072 30.0793C15.4769 30.0515 15.4361 30.0376 15.3849 30.0376C15.3312 30.0376 15.279 30.0499 15.2284 30.0746C15.1778 30.0992 15.1251 30.1343 15.0701 30.1798L14.9108 29.9911C14.9506 29.957 14.9926 29.9248 15.0369 29.8944C15.0818 29.8641 15.1336 29.8397 15.1924 29.8214C15.2518 29.8024 15.3229 29.793 15.4057 29.793C15.4968 29.793 15.5749 29.8094 15.64 29.8423C15.7057 29.8751 15.7563 29.92 15.7917 29.9769C15.8271 30.0332 15.8448 30.097 15.8448 30.1685C15.8448 30.245 15.8296 30.3148 15.7993 30.378C15.7689 30.4412 15.7247 30.5038 15.6665 30.5658C15.609 30.6277 15.5395 30.6963 15.4579 30.7716L15.2796 30.9394V30.9527H15.8837V31.1992ZM16.9874 30.506C16.9874 30.6179 16.9786 30.7178 16.9609 30.8057C16.9438 30.8936 16.916 30.9682 16.8774 31.0295C16.8395 31.0908 16.7896 31.1376 16.7276 31.1698C16.6657 31.2021 16.5904 31.2182 16.5019 31.2182C16.3907 31.2182 16.2993 31.1901 16.2279 31.1338C16.1565 31.0769 16.1037 30.9953 16.0695 30.8891C16.0354 30.7823 16.0183 30.6546 16.0183 30.506C16.0183 30.3562 16.0338 30.2282 16.0648 30.122C16.0964 30.0152 16.1476 29.9333 16.2184 29.8764C16.2892 29.8195 16.3837 29.7911 16.5019 29.7911C16.6126 29.7911 16.7036 29.8195 16.775 29.8764C16.8471 29.9327 16.9005 30.0142 16.9353 30.121C16.9701 30.2273 16.9874 30.3556 16.9874 30.506ZM16.3094 30.506C16.3094 30.6116 16.3151 30.6998 16.3265 30.7706C16.3385 30.8408 16.3584 30.8936 16.3862 30.929C16.4141 30.9644 16.4526 30.9821 16.5019 30.9821C16.5506 30.9821 16.5889 30.9647 16.6167 30.9299C16.6451 30.8945 16.6653 30.8417 16.6774 30.7716C16.6894 30.7008 16.6954 30.6122 16.6954 30.506C16.6954 30.4005 16.6894 30.3123 16.6774 30.2415C16.6653 30.1707 16.6451 30.1176 16.6167 30.0822C16.5889 30.0461 16.5506 30.0281 16.5019 30.0281C16.4526 30.0281 16.4141 30.0461 16.3862 30.0822C16.3584 30.1176 16.3385 30.1707 16.3265 30.2415C16.3151 30.3123 16.3094 30.4005 16.3094 30.506ZM18.0988 30.506C18.0988 30.6179 18.0899 30.7178 18.0722 30.8057C18.0552 30.8936 18.0274 30.9682 17.9888 31.0295C17.9509 31.0908 17.9009 31.1376 17.839 31.1698C17.777 31.2021 17.7018 31.2182 17.6133 31.2182C17.502 31.2182 17.4107 31.1901 17.3392 31.1338C17.2678 31.0769 17.215 30.9953 17.1809 30.8891C17.1467 30.7823 17.1297 30.6546 17.1297 30.506C17.1297 30.3562 17.1452 30.2282 17.1761 30.122C17.2078 30.0152 17.259 29.9333 17.3298 29.8764C17.4006 29.8195 17.4951 29.7911 17.6133 29.7911C17.7239 29.7911 17.815 29.8195 17.8864 29.8764C17.9585 29.9327 18.0119 30.0142 18.0466 30.121C18.0814 30.2273 18.0988 30.3556 18.0988 30.506ZM17.4208 30.506C17.4208 30.6116 17.4265 30.6998 17.4379 30.7706C17.4499 30.8408 17.4698 30.8936 17.4976 30.929C17.5254 30.9644 17.564 30.9821 17.6133 30.9821C17.662 30.9821 17.7002 30.9647 17.728 30.9299C17.7565 30.8945 17.7767 30.8417 17.7887 30.7716C17.8007 30.7008 17.8067 30.6122 17.8067 30.506C17.8067 30.4005 17.8007 30.3123 17.7887 30.2415C17.7767 30.1707 17.7565 30.1176 17.728 30.0822C17.7002 30.0461 17.662 30.0281 17.6133 30.0281C17.564 30.0281 17.5254 30.0461 17.4976 30.0822C17.4698 30.1176 17.4499 30.1707 17.4379 30.2415C17.4265 30.3123 17.4208 30.4005 17.4208 30.506ZM19.2102 30.506C19.2102 30.6179 19.2013 30.7178 19.1836 30.8057C19.1665 30.8936 19.1387 30.9682 19.1002 31.0295C19.0622 31.0908 19.0123 31.1376 18.9503 31.1698C18.8884 31.2021 18.8132 31.2182 18.7247 31.2182C18.6134 31.2182 18.522 31.1901 18.4506 31.1338C18.3792 31.0769 18.3264 30.9953 18.2922 30.8891C18.2581 30.7823 18.241 30.6546 18.241 30.506C18.241 30.3562 18.2565 30.2282 18.2875 30.122C18.3191 30.0152 18.3703 29.9333 18.4411 29.8764C18.5119 29.8195 18.6064 29.7911 18.7247 29.7911C18.8353 29.7911 18.9263 29.8195 18.9977 29.8764C19.0698 29.9327 19.1232 30.0142 19.158 30.121C19.1928 30.2273 19.2102 30.3556 19.2102 30.506ZM18.5322 30.506C18.5322 30.6116 18.5378 30.6998 18.5492 30.7706C18.5612 30.8408 18.5811 30.8936 18.609 30.929C18.6368 30.9644 18.6753 30.9821 18.7247 30.9821C18.7733 30.9821 18.8116 30.9647 18.8394 30.9299C18.8678 30.8945 18.8881 30.8417 18.9001 30.7716C18.9121 30.7008 18.9181 30.6122 18.9181 30.506C18.9181 30.4005 18.9121 30.3123 18.9001 30.2415C18.8881 30.1707 18.8678 30.1176 18.8394 30.0822C18.8116 30.0461 18.7733 30.0281 18.7247 30.0281C18.6753 30.0281 18.6368 30.0461 18.609 30.0822C18.5811 30.1176 18.5612 30.1707 18.5492 30.2415C18.5378 30.3123 18.5322 30.4005 18.5322 30.506Z" fill="#212121"/>
<path d="M15.639 38.5664H15.346V37.7642C15.346 37.7421 15.3463 37.7149 15.347 37.6826C15.3476 37.6498 15.3485 37.6163 15.3498 37.5821C15.3511 37.5473 15.3523 37.5161 15.3536 37.4882C15.3466 37.4965 15.3324 37.5107 15.3109 37.5309C15.2901 37.5505 15.2705 37.5682 15.2521 37.584L15.0928 37.712L14.9515 37.5356L15.3982 37.1801H15.639V38.5664ZM16.5304 37.6807C16.6151 37.6807 16.6903 37.6969 16.7561 37.7291C16.8224 37.7613 16.8746 37.8087 16.9125 37.8713C16.9505 37.9339 16.9694 38.011 16.9694 38.1027C16.9694 38.2026 16.9486 38.2889 16.9068 38.3616C16.8657 38.4337 16.8041 38.489 16.7219 38.5275C16.6404 38.5661 16.5386 38.5854 16.4166 38.5854C16.3439 38.5854 16.2753 38.579 16.2108 38.5664C16.147 38.5544 16.091 38.5357 16.043 38.5105V38.2573C16.091 38.2826 16.1485 38.3041 16.2156 38.3218C16.2832 38.3388 16.3467 38.3474 16.4062 38.3474C16.4643 38.3474 16.5133 38.3398 16.5531 38.3246C16.593 38.3088 16.623 38.2848 16.6432 38.2525C16.6641 38.2197 16.6745 38.1779 16.6745 38.1274C16.6745 38.0597 16.6518 38.0079 16.6062 37.9718C16.5607 37.9358 16.4909 37.9178 16.3967 37.9178C16.3606 37.9178 16.323 37.9213 16.2838 37.9282C16.2453 37.9352 16.213 37.9421 16.1871 37.9491L16.0705 37.8865L16.1226 37.1801H16.8746V37.4285H16.3796L16.354 37.7006C16.3755 37.6962 16.3989 37.6918 16.4242 37.6874C16.4495 37.6829 16.4849 37.6807 16.5304 37.6807ZM18.0988 37.8732C18.0988 37.9851 18.0899 38.085 18.0722 38.1729C18.0552 38.2608 18.0274 38.3353 17.9888 38.3967C17.9509 38.458 17.9009 38.5048 17.839 38.537C17.777 38.5693 17.7018 38.5854 17.6133 38.5854C17.502 38.5854 17.4107 38.5572 17.3392 38.501C17.2678 38.4441 17.215 38.3625 17.1809 38.2563C17.1467 38.1495 17.1297 38.0218 17.1297 37.8732C17.1297 37.7234 17.1452 37.5954 17.1761 37.4892C17.2078 37.3823 17.259 37.3005 17.3298 37.2436C17.4006 37.1867 17.4951 37.1582 17.6133 37.1582C17.7239 37.1582 17.815 37.1867 17.8864 37.2436C17.9585 37.2998 18.0119 37.3814 18.0466 37.4882C18.0814 37.5944 18.0988 37.7228 18.0988 37.8732ZM17.4208 37.8732C17.4208 37.9788 17.4265 38.067 17.4379 38.1378C17.4499 38.208 17.4698 38.2608 17.4976 38.2962C17.5254 38.3316 17.564 38.3493 17.6133 38.3493C17.662 38.3493 17.7002 38.3319 17.728 38.2971C17.7565 38.2617 17.7767 38.2089 17.7887 38.1387C17.8007 38.0679 17.8067 37.9794 17.8067 37.8732C17.8067 37.7677 17.8007 37.6795 17.7887 37.6087C17.7767 37.5379 17.7565 37.4848 17.728 37.4494C17.7002 37.4133 17.662 37.3953 17.6133 37.3953C17.564 37.3953 17.5254 37.4133 17.4976 37.4494C17.4698 37.4848 17.4499 37.5379 17.4379 37.6087C17.4265 37.6795 17.4208 37.7677 17.4208 37.8732ZM19.2102 37.8732C19.2102 37.9851 19.2013 38.085 19.1836 38.1729C19.1665 38.2608 19.1387 38.3353 19.1002 38.3967C19.0622 38.458 19.0123 38.5048 18.9503 38.537C18.8884 38.5693 18.8132 38.5854 18.7247 38.5854C18.6134 38.5854 18.522 38.5572 18.4506 38.501C18.3792 38.4441 18.3264 38.3625 18.2922 38.2563C18.2581 38.1495 18.241 38.0218 18.241 37.8732C18.241 37.7234 18.2565 37.5954 18.2875 37.4892C18.3191 37.3823 18.3703 37.3005 18.4411 37.2436C18.5119 37.1867 18.6064 37.1582 18.7247 37.1582C18.8353 37.1582 18.9263 37.1867 18.9977 37.2436C19.0698 37.2998 19.1232 37.3814 19.158 37.4882C19.1928 37.5944 19.2102 37.7228 19.2102 37.8732ZM18.5322 37.8732C18.5322 37.9788 18.5378 38.067 18.5492 38.1378C18.5612 38.208 18.5811 38.2608 18.609 38.2962C18.6368 38.3316 18.6753 38.3493 18.7247 38.3493C18.7733 38.3493 18.8116 38.3319 18.8394 38.2971C18.8678 38.2617 18.8881 38.2089 18.9001 38.1387C18.9121 38.0679 18.9181 37.9794 18.9181 37.8732C18.9181 37.7677 18.9121 37.6795 18.9001 37.6087C18.8881 37.5379 18.8678 37.4848 18.8394 37.4494C18.8116 37.4133 18.7733 37.3953 18.7247 37.3953C18.6753 37.3953 18.6368 37.4133 18.609 37.4494C18.5811 37.4848 18.5612 37.5379 18.5492 37.6087C18.5378 37.6795 18.5322 37.7677 18.5322 37.8732Z" fill="#212121"/>
<path d="M15.639 45.9375H15.346V45.1353C15.346 45.1131 15.3463 45.086 15.347 45.0537C15.3476 45.0209 15.3485 44.9873 15.3498 44.9532C15.3511 44.9184 15.3523 44.8871 15.3536 44.8593C15.3466 44.8675 15.3324 44.8818 15.3109 44.902C15.2901 44.9216 15.2705 44.9393 15.2521 44.9551L15.0928 45.0831L14.9515 44.9067L15.3982 44.5511H15.639V45.9375ZM16.9874 45.2443C16.9874 45.3562 16.9786 45.4561 16.9609 45.544C16.9438 45.6318 16.916 45.7064 16.8774 45.7678C16.8395 45.8291 16.7896 45.8759 16.7276 45.9081C16.6657 45.9403 16.5904 45.9565 16.5019 45.9565C16.3907 45.9565 16.2993 45.9283 16.2279 45.8721C16.1565 45.8152 16.1037 45.7336 16.0695 45.6274C16.0354 45.5206 16.0183 45.3929 16.0183 45.2443C16.0183 45.0945 16.0338 44.9665 16.0648 44.8603C16.0964 44.7534 16.1476 44.6716 16.2184 44.6147C16.2892 44.5578 16.3837 44.5293 16.5019 44.5293C16.6126 44.5293 16.7036 44.5578 16.775 44.6147C16.8471 44.6709 16.9005 44.7525 16.9353 44.8593C16.9701 44.9655 16.9874 45.0939 16.9874 45.2443ZM16.3094 45.2443C16.3094 45.3499 16.3151 45.4381 16.3265 45.5089C16.3385 45.5791 16.3584 45.6318 16.3862 45.6672C16.4141 45.7026 16.4526 45.7203 16.5019 45.7203C16.5506 45.7203 16.5889 45.703 16.6167 45.6682C16.6451 45.6328 16.6653 45.58 16.6774 45.5098C16.6894 45.439 16.6954 45.3505 16.6954 45.2443C16.6954 45.1388 16.6894 45.0506 16.6774 44.9798C16.6653 44.909 16.6451 44.8559 16.6167 44.8205C16.5889 44.7844 16.5506 44.7664 16.5019 44.7664C16.4526 44.7664 16.4141 44.7844 16.3862 44.8205C16.3584 44.8559 16.3385 44.909 16.3265 44.9798C16.3151 45.0506 16.3094 45.1388 16.3094 45.2443ZM18.0988 45.2443C18.0988 45.3562 18.0899 45.4561 18.0722 45.544C18.0552 45.6318 18.0274 45.7064 17.9888 45.7678C17.9509 45.8291 17.9009 45.8759 17.839 45.9081C17.777 45.9403 17.7018 45.9565 17.6133 45.9565C17.502 45.9565 17.4107 45.9283 17.3392 45.8721C17.2678 45.8152 17.215 45.7336 17.1809 45.6274C17.1467 45.5206 17.1297 45.3929 17.1297 45.2443C17.1297 45.0945 17.1452 44.9665 17.1761 44.8603C17.2078 44.7534 17.259 44.6716 17.3298 44.6147C17.4006 44.5578 17.4951 44.5293 17.6133 44.5293C17.7239 44.5293 17.815 44.5578 17.8864 44.6147C17.9585 44.6709 18.0119 44.7525 18.0466 44.8593C18.0814 44.9655 18.0988 45.0939 18.0988 45.2443ZM17.4208 45.2443C17.4208 45.3499 17.4265 45.4381 17.4379 45.5089C17.4499 45.5791 17.4698 45.6318 17.4976 45.6672C17.5254 45.7026 17.564 45.7203 17.6133 45.7203C17.662 45.7203 17.7002 45.703 17.728 45.6682C17.7565 45.6328 17.7767 45.58 17.7887 45.5098C17.8007 45.439 17.8067 45.3505 17.8067 45.2443C17.8067 45.1388 17.8007 45.0506 17.7887 44.9798C17.7767 44.909 17.7565 44.8559 17.728 44.8205C17.7002 44.7844 17.662 44.7664 17.6133 44.7664C17.564 44.7664 17.5254 44.7844 17.4976 44.8205C17.4698 44.8559 17.4499 44.909 17.4379 44.9798C17.4265 45.0506 17.4208 45.1388 17.4208 45.2443ZM19.2102 45.2443C19.2102 45.3562 19.2013 45.4561 19.1836 45.544C19.1665 45.6318 19.1387 45.7064 19.1002 45.7678C19.0622 45.8291 19.0123 45.8759 18.9503 45.9081C18.8884 45.9403 18.8132 45.9565 18.7247 45.9565C18.6134 45.9565 18.522 45.9283 18.4506 45.8721C18.3792 45.8152 18.3264 45.7336 18.2922 45.6274C18.2581 45.5206 18.241 45.3929 18.241 45.2443C18.241 45.0945 18.2565 44.9665 18.2875 44.8603C18.3191 44.7534 18.3703 44.6716 18.4411 44.6147C18.5119 44.5578 18.6064 44.5293 18.7247 44.5293C18.8353 44.5293 18.9263 44.5578 18.9977 44.6147C19.0698 44.6709 19.1232 44.7525 19.158 44.8593C19.1928 44.9655 19.2102 45.0939 19.2102 45.2443ZM18.5322 45.2443C18.5322 45.3499 18.5378 45.4381 18.5492 45.5089C18.5612 45.5791 18.5811 45.6318 18.609 45.6672C18.6368 45.7026 18.6753 45.7203 18.7247 45.7203C18.7733 45.7203 18.8116 45.703 18.8394 45.6682C18.8678 45.6328 18.8881 45.58 18.9001 45.5098C18.9121 45.439 18.9181 45.3505 18.9181 45.2443C18.9181 45.1388 18.9121 45.0506 18.9001 44.9798C18.8881 44.909 18.8678 44.8559 18.8394 44.8205C18.8116 44.7844 18.7733 44.7664 18.7247 44.7664C18.6753 44.7664 18.6368 44.7844 18.609 44.8205C18.5811 44.8559 18.5612 44.909 18.5492 44.9798C18.5378 45.0506 18.5322 45.1388 18.5322 45.2443Z" fill="#212121"/>
<path d="M16.5305 52.419C16.6152 52.419 16.6904 52.4351 16.7562 52.4674C16.8226 52.4996 16.8747 52.547 16.9126 52.6096C16.9506 52.6722 16.9695 52.7493 16.9695 52.841C16.9695 52.9409 16.9487 53.0272 16.907 53.0999C16.8659 53.1719 16.8042 53.2272 16.722 53.2658C16.6405 53.3044 16.5387 53.3237 16.4167 53.3237C16.344 53.3237 16.2754 53.3173 16.2109 53.3047C16.1471 53.2927 16.0911 53.274 16.0431 53.2487V52.9956C16.0911 53.0208 16.1487 53.0423 16.2157 53.06C16.2833 53.0771 16.3469 53.0856 16.4063 53.0856C16.4644 53.0856 16.5134 53.0781 16.5533 53.0629C16.5931 53.0471 16.6231 53.0231 16.6433 52.9908C16.6642 52.9579 16.6746 52.9162 16.6746 52.8656C16.6746 52.798 16.6519 52.7462 16.6064 52.7101C16.5608 52.6741 16.491 52.6561 16.3968 52.6561C16.3608 52.6561 16.3231 52.6596 16.284 52.6665C16.2454 52.6735 16.2132 52.6804 16.1872 52.6874L16.0706 52.6248L16.1228 51.9183H16.8747V52.1668H16.3797L16.3541 52.4389C16.3756 52.4345 16.399 52.4301 16.4243 52.4257C16.4496 52.4212 16.485 52.419 16.5305 52.419ZM18.0989 52.6115C18.0989 52.7234 18.0901 52.8233 18.0724 52.9112C18.0553 52.999 18.0275 53.0736 17.9889 53.1349C17.951 53.1963 17.9011 53.2431 17.8391 53.2753C17.7771 53.3075 17.7019 53.3237 17.6134 53.3237C17.5021 53.3237 17.4108 53.2955 17.3394 53.2393C17.2679 53.1824 17.2151 53.1008 17.181 52.9946C17.1469 52.8878 17.1298 52.7601 17.1298 52.6115C17.1298 52.4617 17.1453 52.3337 17.1763 52.2275C17.2079 52.1206 17.2591 52.0388 17.3299 51.9819C17.4007 51.925 17.4952 51.8965 17.6134 51.8965C17.724 51.8965 17.8151 51.925 17.8865 51.9819C17.9586 52.0381 18.012 52.1197 18.0468 52.2265C18.0815 52.3327 18.0989 52.4611 18.0989 52.6115ZM17.4209 52.6115C17.4209 52.7171 17.4266 52.8053 17.438 52.8761C17.45 52.9462 17.4699 52.999 17.4977 53.0344C17.5255 53.0698 17.5641 53.0875 17.6134 53.0875C17.6621 53.0875 17.7003 53.0702 17.7282 53.0354C17.7566 53 17.7768 52.9472 17.7888 52.877C17.8009 52.8062 17.8069 52.7177 17.8069 52.6115C17.8069 52.5059 17.8009 52.4177 17.7888 52.3469C17.7768 52.2761 17.7566 52.223 17.7282 52.1876C17.7003 52.1516 17.6621 52.1336 17.6134 52.1336C17.5641 52.1336 17.5255 52.1516 17.4977 52.1876C17.4699 52.223 17.45 52.2761 17.438 52.3469C17.4266 52.4177 17.4209 52.5059 17.4209 52.6115ZM19.2103 52.6115C19.2103 52.7234 19.2014 52.8233 19.1837 52.9112C19.1667 52.999 19.1388 53.0736 19.1003 53.1349C19.0624 53.1963 19.0124 53.2431 18.9505 53.2753C18.8885 53.3075 18.8133 53.3237 18.7248 53.3237C18.6135 53.3237 18.5222 53.2955 18.4507 53.2393C18.3793 53.1824 18.3265 53.1008 18.2924 52.9946C18.2582 52.8878 18.2412 52.7601 18.2412 52.6115C18.2412 52.4617 18.2566 52.3337 18.2876 52.2275C18.3192 52.1206 18.3704 52.0388 18.4412 51.9819C18.512 51.925 18.6066 51.8965 18.7248 51.8965C18.8354 51.8965 18.9264 51.925 18.9979 51.9819C19.0699 52.0381 19.1234 52.1197 19.1581 52.2265C19.1929 52.3327 19.2103 52.4611 19.2103 52.6115ZM18.5323 52.6115C18.5323 52.7171 18.538 52.8053 18.5493 52.8761C18.5614 52.9462 18.5813 52.999 18.6091 53.0344C18.6369 53.0698 18.6755 53.0875 18.7248 53.0875C18.7734 53.0875 18.8117 53.0702 18.8395 53.0354C18.868 53 18.8882 52.9472 18.9002 52.877C18.9122 52.8062 18.9182 52.7177 18.9182 52.6115C18.9182 52.5059 18.9122 52.4177 18.9002 52.3469C18.8882 52.2761 18.868 52.223 18.8395 52.1876C18.8117 52.1516 18.7734 52.1336 18.7248 52.1336C18.6755 52.1336 18.6369 52.1516 18.6091 52.1876C18.5813 52.223 18.5614 52.2761 18.5493 52.3469C18.538 52.4177 18.5323 52.5059 18.5323 52.6115Z" fill="#212121"/>
<path d="M16.7505 60.6758H16.4575V59.8736C16.4575 59.8514 16.4578 59.8242 16.4584 59.792C16.4591 59.7591 16.46 59.7256 16.4613 59.6915C16.4625 59.6567 16.4638 59.6254 16.4651 59.5976C16.4581 59.6058 16.4439 59.6201 16.4224 59.6403C16.4015 59.6599 16.3819 59.6776 16.3636 59.6934L16.2043 59.8214L16.063 59.645L16.5096 59.2894H16.7505V60.6758ZM18.0989 59.9826C18.0989 60.0945 18.0901 60.1944 18.0724 60.2823C18.0553 60.3701 18.0275 60.4447 17.9889 60.506C17.951 60.5674 17.9011 60.6141 17.8391 60.6464C17.7771 60.6786 17.7019 60.6947 17.6134 60.6947C17.5021 60.6947 17.4108 60.6666 17.3394 60.6104C17.2679 60.5535 17.2151 60.4719 17.181 60.3657C17.1469 60.2589 17.1298 60.1312 17.1298 59.9826C17.1298 59.8328 17.1453 59.7048 17.1763 59.5986C17.2079 59.4917 17.2591 59.4099 17.3299 59.353C17.4007 59.2961 17.4952 59.2676 17.6134 59.2676C17.724 59.2676 17.8151 59.2961 17.8865 59.353C17.9586 59.4092 18.012 59.4908 18.0468 59.5976C18.0815 59.7038 18.0989 59.8321 18.0989 59.9826ZM17.4209 59.9826C17.4209 60.0882 17.4266 60.1764 17.438 60.2472C17.45 60.3173 17.4699 60.3701 17.4977 60.4055C17.5255 60.4409 17.5641 60.4586 17.6134 60.4586C17.6621 60.4586 17.7003 60.4412 17.7282 60.4065C17.7566 60.3711 17.7768 60.3183 17.7888 60.2481C17.8009 60.1773 17.8069 60.0888 17.8069 59.9826C17.8069 59.877 17.8009 59.7888 17.7888 59.718C17.7768 59.6472 17.7566 59.5941 17.7282 59.5587C17.7003 59.5227 17.6621 59.5047 17.6134 59.5047C17.5641 59.5047 17.5255 59.5227 17.4977 59.5587C17.4699 59.5941 17.45 59.6472 17.438 59.718C17.4266 59.7888 17.4209 59.877 17.4209 59.9826ZM19.2103 59.9826C19.2103 60.0945 19.2014 60.1944 19.1837 60.2823C19.1667 60.3701 19.1388 60.4447 19.1003 60.506C19.0624 60.5674 19.0124 60.6141 18.9505 60.6464C18.8885 60.6786 18.8133 60.6947 18.7248 60.6947C18.6135 60.6947 18.5222 60.6666 18.4507 60.6104C18.3793 60.5535 18.3265 60.4719 18.2924 60.3657C18.2582 60.2589 18.2412 60.1312 18.2412 59.9826C18.2412 59.8328 18.2566 59.7048 18.2876 59.5986C18.3192 59.4917 18.3704 59.4099 18.4412 59.353C18.512 59.2961 18.6066 59.2676 18.7248 59.2676C18.8354 59.2676 18.9264 59.2961 18.9979 59.353C19.0699 59.4092 19.1234 59.4908 19.1581 59.5976C19.1929 59.7038 19.2103 59.8321 19.2103 59.9826ZM18.5323 59.9826C18.5323 60.0882 18.538 60.1764 18.5493 60.2472C18.5614 60.3173 18.5813 60.3701 18.6091 60.4055C18.6369 60.4409 18.6755 60.4586 18.7248 60.4586C18.7734 60.4586 18.8117 60.4412 18.8395 60.4065C18.868 60.3711 18.8882 60.3183 18.9002 60.2481C18.9122 60.1773 18.9182 60.0888 18.9182 59.9826C18.9182 59.877 18.9122 59.7888 18.9002 59.718C18.8882 59.6472 18.868 59.5941 18.8395 59.5587C18.8117 59.5227 18.7734 59.5047 18.7248 59.5047C18.6755 59.5047 18.6369 59.5227 18.6091 59.5587C18.5813 59.5941 18.5614 59.6472 18.5493 59.718C18.538 59.7888 18.5323 59.877 18.5323 59.9826Z" fill="#212121"/>
<path d="M19.2103 67.3537C19.2103 67.4656 19.2014 67.5655 19.1837 67.6533C19.1667 67.7412 19.1388 67.8158 19.1003 67.8771C19.0624 67.9385 19.0124 67.9852 18.9505 68.0175C18.8885 68.0497 18.8133 68.0658 18.7248 68.0658C18.6135 68.0658 18.5222 68.0377 18.4507 67.9814C18.3793 67.9245 18.3265 67.843 18.2924 67.7368C18.2582 67.63 18.2412 67.5023 18.2412 67.3537C18.2412 67.2039 18.2566 67.0759 18.2876 66.9697C18.3192 66.8628 18.3704 66.781 18.4412 66.7241C18.512 66.6672 18.6066 66.6387 18.7248 66.6387C18.8354 66.6387 18.9264 66.6672 18.9979 66.7241C19.0699 66.7803 19.1234 66.8619 19.1581 66.9687C19.1929 67.0749 19.2103 67.2032 19.2103 67.3537ZM18.5323 67.3537C18.5323 67.4593 18.538 67.5475 18.5493 67.6183C18.5614 67.6884 18.5813 67.7412 18.6091 67.7766C18.6369 67.812 18.6755 67.8297 18.7248 67.8297C18.7734 67.8297 18.8117 67.8123 18.8395 67.7776C18.868 67.7422 18.8882 67.6894 18.9002 67.6192C18.9122 67.5484 18.9182 67.4599 18.9182 67.3537C18.9182 67.2481 18.9122 67.1599 18.9002 67.0891C18.8882 67.0183 18.868 66.9652 18.8395 66.9298C18.8117 66.8938 18.7734 66.8758 18.7248 66.8758C18.6755 66.8758 18.6369 66.8938 18.6091 66.9298C18.5813 66.9652 18.5614 67.0183 18.5493 67.0891C18.538 67.1599 18.5323 67.2481 18.5323 67.3537Z" fill="#212121"/>
<path d="M30.6831 71.1641H30.39V70.3618C30.39 70.3397 30.3904 70.3125 30.391 70.2803C30.3916 70.2474 30.3926 70.2139 30.3938 70.1798C30.3951 70.145 30.3964 70.1137 30.3976 70.0859C30.3907 70.0941 30.3765 70.1083 30.355 70.1286C30.3341 70.1482 30.3145 70.1659 30.2962 70.1817L30.1369 70.3097L29.9956 70.1333L30.4422 69.7777H30.6831V71.1641Z" fill="#212121"/>
<path d="M22.9094 70.4709C22.9094 70.5828 22.9005 70.6827 22.8828 70.7705C22.8658 70.8584 22.8379 70.933 22.7994 70.9943C22.7614 71.0556 22.7115 71.1024 22.6496 71.1347C22.5876 71.1669 22.5124 71.183 22.4239 71.183C22.3126 71.183 22.2213 71.1549 22.1498 71.0986C22.0784 71.0417 22.0256 70.9602 21.9915 70.854C21.9573 70.7471 21.9403 70.6194 21.9403 70.4709C21.9403 70.3211 21.9557 70.193 21.9867 70.0868C22.0183 69.98 22.0695 69.8981 22.1403 69.8412C22.2111 69.7843 22.3057 69.7559 22.4239 69.7559C22.5345 69.7559 22.6255 69.7843 22.697 69.8412C22.769 69.8975 22.8225 69.9791 22.8572 70.0859C22.892 70.1921 22.9094 70.3204 22.9094 70.4709ZM22.2314 70.4709C22.2314 70.5765 22.2371 70.6646 22.2484 70.7354C22.2605 70.8056 22.2804 70.8584 22.3082 70.8938C22.336 70.9292 22.3746 70.9469 22.4239 70.9469C22.4725 70.9469 22.5108 70.9295 22.5386 70.8948C22.5671 70.8594 22.5873 70.8066 22.5993 70.7364C22.6113 70.6656 22.6173 70.5771 22.6173 70.4709C22.6173 70.3653 22.6113 70.2771 22.5993 70.2063C22.5873 70.1355 22.5671 70.0824 22.5386 70.047C22.5108 70.011 22.4725 69.993 22.4239 69.993C22.3746 69.993 22.336 70.011 22.3082 70.047C22.2804 70.0824 22.2605 70.1355 22.2484 70.2063C22.2371 70.2771 22.2314 70.3653 22.2314 70.4709Z" fill="#212121"/>
<path d="M38.9394 71.1641H37.9703V70.9602L38.3183 70.6084C38.3885 70.5363 38.4447 70.4763 38.4871 70.4282C38.5301 70.3795 38.5611 70.3353 38.58 70.2955C38.5996 70.2556 38.6094 70.213 38.6094 70.1674C38.6094 70.1124 38.5939 70.0714 38.563 70.0442C38.5326 70.0164 38.4918 70.0024 38.4406 70.0024C38.3869 70.0024 38.3348 70.0148 38.2842 70.0394C38.2336 70.0641 38.1808 70.0992 38.1258 70.1447L37.9665 69.956C38.0063 69.9218 38.0484 69.8896 38.0926 69.8593C38.1375 69.8289 38.1894 69.8046 38.2481 69.7862C38.3076 69.7673 38.3787 69.7578 38.4615 69.7578C38.5525 69.7578 38.6306 69.7742 38.6957 69.8071C38.7615 69.84 38.812 69.8849 38.8474 69.9418C38.8828 69.998 38.9005 70.0619 38.9005 70.1333C38.9005 70.2098 38.8854 70.2797 38.855 70.3429C38.8247 70.4061 38.7804 70.4687 38.7223 70.5306C38.6647 70.5926 38.5952 70.6612 38.5137 70.7364L38.3354 70.9042V70.9175H38.9394V71.1641Z" fill="#212121"/>
<path d="M47.1383 70.0878C47.1383 70.1516 47.125 70.207 47.0985 70.2537C47.0719 70.3005 47.0359 70.3388 46.9904 70.3685C46.9455 70.3982 46.8949 70.42 46.8387 70.4339V70.4396C46.9499 70.4535 47.0343 70.4876 47.0918 70.542C47.15 70.5964 47.1791 70.6691 47.1791 70.7601C47.1791 70.841 47.1592 70.9134 47.1193 70.9773C47.0801 71.0411 47.0195 71.0914 46.9373 71.128C46.8551 71.1647 46.7492 71.183 46.6196 71.183C46.5431 71.183 46.4717 71.1767 46.4053 71.1641C46.3396 71.1521 46.2776 71.1334 46.2194 71.1081V70.8587C46.2789 70.8891 46.3411 70.9121 46.4062 70.9279C46.4714 70.9431 46.5321 70.9507 46.5883 70.9507C46.6933 70.9507 46.7666 70.9327 46.8083 70.8967C46.8507 70.86 46.8718 70.8088 46.8718 70.743C46.8718 70.7045 46.862 70.6719 46.8424 70.6454C46.8228 70.6188 46.7887 70.5986 46.74 70.5847C46.692 70.5708 46.6247 70.5638 46.5381 70.5638H46.4328V70.3391H46.54C46.6253 70.3391 46.6901 70.3312 46.7343 70.3154C46.7792 70.2989 46.8096 70.2768 46.8254 70.249C46.8418 70.2205 46.85 70.1883 46.85 70.1523C46.85 70.103 46.8349 70.0644 46.8045 70.0366C46.7742 70.0088 46.7236 69.9949 46.6528 69.9949C46.6085 69.9949 46.5681 70.0005 46.5314 70.0119C46.4954 70.0227 46.4628 70.036 46.4337 70.0518C46.4047 70.0669 46.3791 70.0818 46.3569 70.0963L46.2213 69.8943C46.2757 69.8552 46.3392 69.8226 46.4119 69.7967C46.4853 69.7708 46.5725 69.7578 46.6737 69.7578C46.8165 69.7578 46.9297 69.7866 47.0131 69.8441C47.0966 69.9016 47.1383 69.9828 47.1383 70.0878Z" fill="#212121"/>
<path d="M55.2354 70.8767H55.0685V71.1641H54.7821V70.8767H54.1904V70.6729L54.7982 69.7777H55.0685V70.6492H55.2354V70.8767ZM54.7821 70.6492V70.414C54.7821 70.3919 54.7824 70.3656 54.783 70.3353C54.7843 70.3049 54.7856 70.2746 54.7868 70.2443C54.7881 70.2139 54.7894 70.187 54.7906 70.1637C54.7925 70.1396 54.7938 70.1229 54.7944 70.1134H54.7868C54.7748 70.1393 54.7622 70.1646 54.7489 70.1893C54.7356 70.2133 54.7201 70.2386 54.7024 70.2651L54.4483 70.6492H54.7821Z" fill="#212121"/>
<path d="M62.7492 70.2784C62.8339 70.2784 62.9091 70.2945 62.9749 70.3268C63.0413 70.359 63.0934 70.4064 63.1313 70.469C63.1693 70.5316 63.1882 70.6087 63.1882 70.7004C63.1882 70.8002 63.1674 70.8865 63.1257 70.9592C63.0846 71.0313 63.0229 71.0866 62.9407 71.1252C62.8592 71.1637 62.7574 71.183 62.6354 71.183C62.5627 71.183 62.4941 71.1767 62.4296 71.1641C62.3658 71.1521 62.3098 71.1334 62.2618 71.1081V70.8549C62.3098 70.8802 62.3674 70.9017 62.4344 70.9194C62.502 70.9365 62.5655 70.945 62.625 70.945C62.6831 70.945 62.7321 70.9374 62.772 70.9223C62.8118 70.9065 62.8418 70.8824 62.862 70.8502C62.8829 70.8173 62.8933 70.7756 62.8933 70.725C62.8933 70.6574 62.8706 70.6055 62.8251 70.5695C62.7795 70.5335 62.7097 70.5155 62.6155 70.5155C62.5795 70.5155 62.5418 70.5189 62.5026 70.5259C62.4641 70.5328 62.4318 70.5398 62.4059 70.5467L62.2893 70.4842L62.3414 69.7777H63.0934V70.0262H62.5984L62.5728 70.2983C62.5943 70.2939 62.6177 70.2895 62.643 70.285C62.6683 70.2806 62.7037 70.2784 62.7492 70.2784Z" fill="#212121"/>
<path d="M70.247 70.5752C70.247 70.4955 70.2526 70.4168 70.264 70.3391C70.276 70.2607 70.2966 70.187 70.3257 70.1181C70.3547 70.0486 70.3955 69.9873 70.448 69.9342C70.5005 69.8804 70.5672 69.8384 70.6481 69.8081C70.729 69.7771 70.827 69.7616 70.942 69.7616C70.9692 69.7616 71.0008 69.7629 71.0369 69.7654C71.0735 69.7673 71.1039 69.7708 71.1279 69.7758V70.01C71.1026 70.0043 71.0754 69.9999 71.0463 69.9968C71.0179 69.993 70.9894 69.9911 70.961 69.9911C70.8459 69.9911 70.7568 70.0094 70.6936 70.0461C70.631 70.0827 70.5867 70.1336 70.5608 70.1987C70.5355 70.2632 70.5207 70.3384 70.5163 70.4244H70.5286C70.5463 70.3934 70.5684 70.3659 70.595 70.3419C70.6221 70.3179 70.655 70.2989 70.6936 70.285C70.7321 70.2705 70.7773 70.2632 70.8292 70.2632C70.9101 70.2632 70.9803 70.2806 71.0397 70.3154C71.0991 70.3495 71.145 70.3991 71.1772 70.4642C71.2094 70.5294 71.2256 70.6087 71.2256 70.7023C71.2256 70.8021 71.2063 70.8881 71.1677 70.9602C71.1292 71.0323 71.0745 71.0876 71.0037 71.1261C70.9335 71.1641 70.85 71.183 70.7533 71.183C70.6825 71.183 70.6165 71.171 70.5551 71.147C70.4938 71.1223 70.4401 71.085 70.3939 71.0351C70.3478 70.9852 70.3118 70.9223 70.2858 70.8464C70.2599 70.7699 70.247 70.6795 70.247 70.5752ZM70.7476 70.9488C70.8052 70.9488 70.8519 70.9292 70.888 70.89C70.924 70.8508 70.942 70.7895 70.942 70.7061C70.942 70.6384 70.9262 70.5853 70.8946 70.5467C70.8636 70.5076 70.8165 70.488 70.7533 70.488C70.7103 70.488 70.6724 70.4978 70.6395 70.5174C70.6073 70.5363 70.5823 70.5607 70.5646 70.5904C70.5469 70.6194 70.5381 70.6495 70.5381 70.6805C70.5381 70.7127 70.5425 70.7446 70.5513 70.7762C70.5602 70.8078 70.5735 70.8366 70.5912 70.8625C70.6089 70.8884 70.6307 70.9093 70.6566 70.9251C70.6832 70.9409 70.7135 70.9488 70.7476 70.9488Z" fill="#212121"/>
<path d="M78.1625 71.1641L78.6831 70.0243H77.9994V69.7777H78.9941V69.9617L78.4697 71.1641H78.1625Z" fill="#212121"/>
<path d="M21.5886 68.6797C21.5886 68.7467 21.6429 68.801 21.71 68.801C21.777 68.801 21.8313 68.7467 21.8313 68.6797H21.5886ZM21.71 21.8281H21.5886V68.6797H21.71H21.8313V21.8281H21.71Z" fill="#D4D4D4"/>
<path d="M21.71 68.6797H77.7862" stroke="#D4D4D4" stroke-width="0.242754"/>
<path d="M21.9529 66.0073C22.3551 66.0073 22.6811 65.6813 22.6811 65.279C22.6811 64.8768 22.3551 64.5508 21.9529 64.5508C21.5507 64.5508 21.2246 64.8768 21.2246 65.279C21.2246 65.6813 21.5507 66.0073 21.9529 66.0073Z" fill="#6A59FD"/>
<path opacity="0.1" d="M24.0465 57.9409C22.3872 58.1946 22.738 58.3995 21.71 58.9039V67.5759H77.7862V48.2657C77.7862 48.2657 76.2406 51.5694 75.0291 51.4296C73.1536 51.2131 73.9692 49.5624 72.0851 49.6871C70.6841 49.7799 70.4495 54.1544 68.4401 54.0433C65.9017 53.903 66.8988 51.7281 64.3746 51.4296C62.602 51.22 62.6547 48.036 60.8698 47.9905C58.1125 47.9203 57.7245 45.3171 55.3557 45.1017C49.7651 44.5933 54.8848 36.4198 49.2808 36.7562C43.8122 37.0845 49.9166 50.2467 44.4676 49.6871C43.0952 49.5462 42.5166 48.3097 41.1497 48.4949C39.4616 48.7237 39.601 50.9384 37.9721 51.4296C35.8427 52.0717 34.7285 49.2243 32.5514 49.6871C30.4658 50.1305 30.573 53.2122 28.4391 53.2179C25.5654 53.2257 26.8859 57.5068 24.0465 57.9409Z" fill="url(#paint0_linear_7800_43290)"/>
<path d="M21.71 58.8367C22.738 58.3338 22.3872 58.1296 24.0465 57.8767C26.8859 57.4439 25.5654 53.1758 28.4391 53.168C30.573 53.1622 30.4658 50.09 32.5514 49.6479C34.7285 49.1865 35.8427 52.0253 37.9721 51.3851C39.601 50.8954 39.4616 48.6874 41.1497 48.4593C42.5166 48.2747 43.0952 49.5074 44.4676 49.6479C49.9166 50.2057 43.8122 37.0834 49.2808 36.7562C54.8848 36.4208 49.7651 44.5695 55.3557 45.0764C57.7245 45.2911 58.1125 47.8865 60.8698 47.9564C62.6547 48.0017 62.602 51.1761 64.3746 51.3851C66.8988 51.6827 65.9017 53.851 68.4401 53.9909C70.4495 54.1016 70.6841 49.7404 72.0851 49.6479C73.9692 49.5236 73.1536 51.1693 75.0291 51.3851C76.2406 51.5245 77.7862 48.2307 77.7862 48.2307" stroke="#6C5BFF" stroke-width="0.485508" stroke-linecap="round"/>
<rect x="49.9909" y="39.0544" width="6.22962" height="3.64131" rx="1.82066" fill="white"/>
<rect x="49.9909" y="39.0544" width="6.22962" height="3.64131" rx="1.82066" stroke="#D6D6D6" stroke-width="0.242754"/>
<path d="M52.1467 40.5804C52.1467 40.66 52.1407 40.739 52.1286 40.8174C52.1173 40.8958 52.097 40.9698 52.068 41.0393C52.0389 41.1082 51.9981 41.1695 51.9456 41.2233C51.8932 41.2764 51.8265 41.3181 51.7455 41.3484C51.6646 41.3788 51.5666 41.394 51.4516 41.394C51.4244 41.394 51.3925 41.3927 51.3558 41.3902C51.3191 41.3883 51.2888 41.3851 51.2648 41.3807V41.1455C51.2901 41.1518 51.3169 41.1569 51.3454 41.1607C51.3738 41.1639 51.4026 41.1654 51.4317 41.1654C51.5474 41.1654 51.6365 41.1471 51.6991 41.1104C51.7623 41.0738 51.8065 41.0229 51.8318 40.9578C51.8578 40.8927 51.8726 40.8174 51.8764 40.7321H51.865C51.8467 40.7624 51.8249 40.7899 51.7996 40.8146C51.7749 40.8386 51.7433 40.8579 51.7048 40.8724C51.6662 40.8863 51.6172 40.8933 51.5578 40.8933C51.4788 40.8933 51.4099 40.8762 51.3511 40.8421C51.2929 40.8073 51.2477 40.7574 51.2155 40.6923C51.1839 40.6265 51.1681 40.5472 51.1681 40.4542C51.1681 40.3537 51.187 40.2678 51.2249 40.1963C51.2635 40.1242 51.3182 40.0689 51.389 40.0304C51.4598 39.9918 51.5432 39.9725 51.6393 39.9725C51.7101 39.9725 51.7762 39.9849 51.8375 40.0095C51.8988 40.0335 51.9526 40.0705 51.9987 40.1205C52.0455 40.1704 52.0819 40.2336 52.1078 40.3101C52.1337 40.3866 52.1467 40.4767 52.1467 40.5804ZM51.645 40.2077C51.5881 40.2077 51.5417 40.2273 51.5056 40.2665C51.4696 40.3057 51.4516 40.367 51.4516 40.4504C51.4516 40.5175 51.4671 40.5706 51.498 40.6098C51.529 40.649 51.5761 40.6685 51.6393 40.6685C51.683 40.6685 51.7209 40.6591 51.7531 40.6401C51.7854 40.6205 51.8103 40.5962 51.828 40.5671C51.8464 40.5374 51.8555 40.507 51.8555 40.4761C51.8555 40.4438 51.8511 40.4119 51.8423 40.3803C51.8334 40.3487 51.8201 40.3199 51.8024 40.294C51.7847 40.2681 51.7626 40.2472 51.7361 40.2314C51.7101 40.2156 51.6798 40.2077 51.645 40.2077ZM53.2561 40.6818C53.2561 40.7937 53.2473 40.8936 53.2296 40.9815C53.2125 41.0693 53.1847 41.1439 53.1461 41.2053C53.1082 41.2666 53.0582 41.3134 52.9963 41.3456C52.9343 41.3778 52.8591 41.394 52.7706 41.394C52.6593 41.394 52.568 41.3658 52.4966 41.3096C52.4251 41.2527 52.3723 41.1711 52.3382 41.0649C52.3041 40.9581 52.287 40.8304 52.287 40.6818C52.287 40.532 52.3025 40.404 52.3335 40.2978C52.3651 40.1909 52.4163 40.1091 52.4871 40.0522C52.5579 39.9953 52.6524 39.9668 52.7706 39.9668C52.8812 39.9668 52.9723 39.9953 53.0437 40.0522C53.1158 40.1084 53.1692 40.19 53.204 40.2968C53.2387 40.403 53.2561 40.5314 53.2561 40.6818ZM52.5781 40.6818C52.5781 40.7874 52.5838 40.8756 52.5952 40.9464C52.6072 41.0166 52.6271 41.0693 52.6549 41.1047C52.6827 41.1401 52.7213 41.1578 52.7706 41.1578C52.8193 41.1578 52.8575 41.1405 52.8853 41.1057C52.9138 41.0703 52.934 41.0175 52.946 40.9473C52.958 40.8765 52.9641 40.788 52.9641 40.6818C52.9641 40.5763 52.958 40.4881 52.946 40.4173C52.934 40.3465 52.9138 40.2934 52.8853 40.258C52.8575 40.2219 52.8193 40.2039 52.7706 40.2039C52.7213 40.2039 52.6827 40.2219 52.6549 40.258C52.6271 40.2934 52.6072 40.3465 52.5952 40.4173C52.5838 40.4881 52.5781 40.5763 52.5781 40.6818ZM54.3675 40.6818C54.3675 40.7937 54.3586 40.8936 54.3409 40.9815C54.3239 41.0693 54.296 41.1439 54.2575 41.2053C54.2195 41.2666 54.1696 41.3134 54.1077 41.3456C54.0457 41.3778 53.9705 41.394 53.882 41.394C53.7707 41.394 53.6794 41.3658 53.6079 41.3096C53.5365 41.2527 53.4837 41.1711 53.4496 41.0649C53.4154 40.9581 53.3984 40.8304 53.3984 40.6818C53.3984 40.532 53.4138 40.404 53.4448 40.2978C53.4764 40.1909 53.5276 40.1091 53.5984 40.0522C53.6692 39.9953 53.7638 39.9668 53.882 39.9668C53.9926 39.9668 54.0836 39.9953 54.1551 40.0522C54.2271 40.1084 54.2806 40.19 54.3153 40.2968C54.3501 40.403 54.3675 40.5314 54.3675 40.6818ZM53.6895 40.6818C53.6895 40.7874 53.6952 40.8756 53.7065 40.9464C53.7186 41.0166 53.7385 41.0693 53.7663 41.1047C53.7941 41.1401 53.8327 41.1578 53.882 41.1578C53.9306 41.1578 53.9689 41.1405 53.9967 41.1057C54.0252 41.0703 54.0454 41.0175 54.0574 40.9473C54.0694 40.8765 54.0754 40.788 54.0754 40.6818C54.0754 40.5763 54.0694 40.4881 54.0574 40.4173C54.0454 40.3465 54.0252 40.2934 53.9967 40.258C53.9689 40.2219 53.9306 40.2039 53.882 40.2039C53.8327 40.2039 53.7941 40.2219 53.7663 40.258C53.7385 40.2934 53.7186 40.3465 53.7065 40.4173C53.6952 40.4881 53.6895 40.5763 53.6895 40.6818Z" fill="#212121"/>
<rect x="41.9802" y="50.9489" width="6.22962" height="3.64131" rx="1.82066" fill="white"/>
<rect x="41.9802" y="50.9489" width="6.22962" height="3.64131" rx="1.82066" stroke="#D6D6D6" stroke-width="0.242754"/>
<path d="M44.1416 53.2695H43.1725V53.0657L43.5205 52.7139C43.5907 52.6418 43.6469 52.5817 43.6893 52.5337C43.7323 52.485 43.7632 52.4408 43.7822 52.4009C43.8018 52.3611 43.8116 52.3184 43.8116 52.2729C43.8116 52.2179 43.7961 52.1768 43.7651 52.1496C43.7348 52.1218 43.694 52.1079 43.6428 52.1079C43.5891 52.1079 43.5369 52.1202 43.4864 52.1449C43.4358 52.1696 43.383 52.2046 43.328 52.2502L43.1687 52.0615C43.2085 52.0273 43.2506 51.9951 43.2948 51.9647C43.3397 51.9344 43.3915 51.91 43.4503 51.8917C43.5097 51.8727 43.5809 51.8633 43.6637 51.8633C43.7547 51.8633 43.8328 51.8797 43.8979 51.9126C43.9636 51.9454 44.0142 51.9903 44.0496 52.0472C44.085 52.1035 44.1027 52.1673 44.1027 52.2388C44.1027 52.3153 44.0876 52.3851 44.0572 52.4483C44.0269 52.5116 43.9826 52.5741 43.9245 52.6361C43.8669 52.698 43.7974 52.7666 43.7158 52.8419L43.5376 53.0097V53.023H44.1416V53.2695ZM45.2454 52.5764C45.2454 52.6882 45.2365 52.7881 45.2188 52.876C45.2018 52.9639 45.1739 53.0385 45.1354 53.0998C45.0974 53.1611 45.0475 53.2079 44.9856 53.2401C44.9236 53.2724 44.8484 53.2885 44.7599 53.2885C44.6486 53.2885 44.5573 53.2604 44.4858 53.2041C44.4144 53.1472 44.3616 53.0657 44.3275 52.9595C44.2933 52.8526 44.2763 52.7249 44.2763 52.5764C44.2763 52.4265 44.2917 52.2985 44.3227 52.1923C44.3543 52.0855 44.4055 52.0036 44.4763 51.9467C44.5471 51.8898 44.6417 51.8614 44.7599 51.8614C44.8705 51.8614 44.9615 51.8898 45.033 51.9467C45.105 52.003 45.1585 52.0845 45.1932 52.1914C45.228 52.2976 45.2454 52.4259 45.2454 52.5764ZM44.5674 52.5764C44.5674 52.6819 44.5731 52.7701 44.5844 52.8409C44.5965 52.9111 44.6164 52.9639 44.6442 52.9993C44.672 53.0347 44.7106 53.0524 44.7599 53.0524C44.8085 53.0524 44.8468 53.035 44.8746 53.0002C44.9031 52.9648 44.9233 52.912 44.9353 52.8419C44.9473 52.7711 44.9533 52.6826 44.9533 52.5764C44.9533 52.4708 44.9473 52.3826 44.9353 52.3118C44.9233 52.241 44.9031 52.1879 44.8746 52.1525C44.8468 52.1164 44.8085 52.0984 44.7599 52.0984C44.7106 52.0984 44.672 52.1164 44.6442 52.1525C44.6164 52.1879 44.5965 52.241 44.5844 52.3118C44.5731 52.3826 44.5674 52.4708 44.5674 52.5764ZM46.3567 52.5764C46.3567 52.6882 46.3479 52.7881 46.3302 52.876C46.3131 52.9639 46.2853 53.0385 46.2467 53.0998C46.2088 53.1611 46.1589 53.2079 46.0969 53.2401C46.035 53.2724 45.9597 53.2885 45.8712 53.2885C45.76 53.2885 45.6686 53.2604 45.5972 53.2041C45.5257 53.1472 45.473 53.0657 45.4388 52.9595C45.4047 52.8526 45.3876 52.7249 45.3876 52.5764C45.3876 52.4265 45.4031 52.2985 45.4341 52.1923C45.4657 52.0855 45.5169 52.0036 45.5877 51.9467C45.6585 51.8898 45.753 51.8614 45.8712 51.8614C45.9819 51.8614 46.0729 51.8898 46.1443 51.9467C46.2164 52.003 46.2698 52.0845 46.3046 52.1914C46.3394 52.2976 46.3567 52.4259 46.3567 52.5764ZM45.6787 52.5764C45.6787 52.6819 45.6844 52.7701 45.6958 52.8409C45.7078 52.9111 45.7277 52.9639 45.7555 52.9993C45.7834 53.0347 45.8219 53.0524 45.8712 53.0524C45.9199 53.0524 45.9582 53.035 45.986 53.0002C46.0144 52.9648 46.0346 52.912 46.0467 52.8419C46.0587 52.7711 46.0647 52.6826 46.0647 52.5764C46.0647 52.4708 46.0587 52.3826 46.0467 52.3118C46.0346 52.241 46.0144 52.1879 45.986 52.1525C45.9582 52.1164 45.9199 52.0984 45.8712 52.0984C45.8219 52.0984 45.7834 52.1164 45.7555 52.1525C45.7277 52.1879 45.7078 52.241 45.6958 52.3118C45.6844 52.3826 45.6787 52.4708 45.6787 52.5764Z" fill="#212121"/>
<rect x="33.9694" y="53.6169" width="6.22962" height="3.64131" rx="1.82066" fill="white"/>
<rect x="33.9694" y="53.6169" width="6.22962" height="3.64131" rx="1.82066" stroke="#D6D6D6" stroke-width="0.242754"/>
<path d="M35.8862 55.9375H35.5932V55.1353C35.5932 55.1131 35.5935 55.086 35.5941 55.0537C35.5948 55.0209 35.5957 54.9873 35.597 54.9532C35.5983 54.9184 35.5995 54.8871 35.6008 54.8593C35.5938 54.8675 35.5796 54.8818 35.5581 54.902C35.5373 54.9216 35.5177 54.9393 35.4993 54.9551L35.34 55.0831L35.1987 54.9067L35.6454 54.5511H35.8862V55.9375ZM36.7776 55.0518C36.8623 55.0518 36.9375 55.0679 37.0033 55.1002C37.0696 55.1324 37.1218 55.1798 37.1597 55.2424C37.1977 55.305 37.2166 55.3821 37.2166 55.4738C37.2166 55.5737 37.1958 55.66 37.154 55.7327C37.1129 55.8047 37.0513 55.8601 36.9691 55.8986C36.8876 55.9372 36.7858 55.9565 36.6638 55.9565C36.5911 55.9565 36.5225 55.9501 36.458 55.9375C36.3942 55.9255 36.3382 55.9068 36.2902 55.8816V55.6284C36.3382 55.6537 36.3957 55.6751 36.4628 55.6928C36.5304 55.7099 36.5939 55.7185 36.6534 55.7185C36.7115 55.7185 36.7605 55.7109 36.8003 55.6957C36.8402 55.6799 36.8702 55.6559 36.8904 55.6236C36.9113 55.5908 36.9217 55.549 36.9217 55.4985C36.9217 55.4308 36.899 55.379 36.8534 55.3429C36.8079 55.3069 36.7381 55.2889 36.6439 55.2889C36.6078 55.2889 36.5702 55.2924 36.531 55.2993C36.4925 55.3063 36.4602 55.3132 36.4343 55.3202L36.3177 55.2576L36.3698 54.5511H37.1218V54.7996H36.6268L36.6012 55.0717C36.6227 55.0673 36.6461 55.0629 36.6714 55.0585C36.6967 55.054 36.7321 55.0518 36.7776 55.0518ZM38.346 55.2443C38.346 55.3562 38.3371 55.4561 38.3194 55.544C38.3024 55.6318 38.2746 55.7064 38.236 55.7678C38.1981 55.8291 38.1481 55.8759 38.0862 55.9081C38.0242 55.9403 37.949 55.9565 37.8605 55.9565C37.7492 55.9565 37.6579 55.9283 37.5864 55.8721C37.515 55.8152 37.4622 55.7336 37.4281 55.6274C37.3939 55.5206 37.3769 55.3929 37.3769 55.2443C37.3769 55.0945 37.3924 54.9665 37.4233 54.8603C37.4549 54.7534 37.5062 54.6716 37.577 54.6147C37.6478 54.5578 37.7423 54.5293 37.8605 54.5293C37.9711 54.5293 38.0621 54.5578 38.1336 54.6147C38.2057 54.6709 38.2591 54.7525 38.2938 54.8593C38.3286 54.9655 38.346 55.0939 38.346 55.2443ZM37.668 55.2443C37.668 55.3499 37.6737 55.4381 37.6851 55.5089C37.6971 55.5791 37.717 55.6318 37.7448 55.6672C37.7726 55.7026 37.8112 55.7203 37.8605 55.7203C37.9092 55.7203 37.9474 55.703 37.9752 55.6682C38.0037 55.6328 38.0239 55.58 38.0359 55.5098C38.0479 55.439 38.0539 55.3505 38.0539 55.2443C38.0539 55.1388 38.0479 55.0506 38.0359 54.9798C38.0239 54.909 38.0037 54.8559 37.9752 54.8205C37.9474 54.7844 37.9092 54.7664 37.8605 54.7664C37.8112 54.7664 37.7726 54.7844 37.7448 54.8205C37.717 54.8559 37.6971 54.909 37.6851 54.9798C37.6737 55.0506 37.668 55.1388 37.668 55.2443Z" fill="#212121"/>
<rect x="26.2009" y="48.0349" width="6.22962" height="3.64131" rx="1.82066" fill="white"/>
<rect x="26.2009" y="48.0349" width="6.22962" height="3.64131" rx="1.82066" stroke="#D6D6D6" stroke-width="0.242754"/>
<path d="M28.3936 50.0681H28.2267V50.3555H27.9403V50.0681H27.3486V49.8643L27.9565 48.9691H28.2267V49.8406H28.3936V50.0681ZM27.9403 49.8406V49.6054C27.9403 49.5833 27.9406 49.557 27.9413 49.5267C27.9425 49.4963 27.9438 49.466 27.9451 49.4357C27.9463 49.4053 27.9476 49.3784 27.9489 49.3551C27.9508 49.331 27.952 49.3143 27.9527 49.3048H27.9451C27.9331 49.3307 27.9204 49.356 27.9071 49.3807C27.8939 49.4047 27.8784 49.43 27.8607 49.4565L27.6065 49.8406H27.9403ZM29.4661 49.6623C29.4661 49.7742 29.4572 49.8741 29.4395 49.9619C29.4225 50.0498 29.3946 50.1244 29.3561 50.1857C29.3182 50.2471 29.2682 50.2938 29.2063 50.3261C29.1443 50.3583 29.0691 50.3744 28.9806 50.3744C28.8693 50.3744 28.778 50.3463 28.7065 50.29C28.6351 50.2331 28.5823 50.1516 28.5482 50.0454C28.514 49.9386 28.497 49.8109 28.497 49.6623C28.497 49.5125 28.5124 49.3845 28.5434 49.2782C28.575 49.1714 28.6262 49.0895 28.697 49.0326C28.7678 48.9758 28.8624 48.9473 28.9806 48.9473C29.0912 48.9473 29.1822 48.9758 29.2537 49.0326C29.3257 49.0889 29.3792 49.1705 29.4139 49.2773C29.4487 49.3835 29.4661 49.5118 29.4661 49.6623ZM28.7881 49.6623C28.7881 49.7679 28.7938 49.8561 28.8051 49.9269C28.8172 49.997 28.8371 50.0498 28.8649 50.0852C28.8927 50.1206 28.9313 50.1383 28.9806 50.1383C29.0292 50.1383 29.0675 50.1209 29.0953 50.0862C29.1238 50.0508 29.144 49.998 29.156 49.9278C29.168 49.857 29.174 49.7685 29.174 49.6623C29.174 49.5567 29.168 49.4685 29.156 49.3977C29.144 49.3269 29.1238 49.2738 29.0953 49.2384C29.0675 49.2024 29.0292 49.1844 28.9806 49.1844C28.9313 49.1844 28.8927 49.2024 28.8649 49.2384C28.8371 49.2738 28.8172 49.3269 28.8051 49.3977C28.7938 49.4685 28.7881 49.5567 28.7881 49.6623ZM30.5774 49.6623C30.5774 49.7742 30.5686 49.8741 30.5509 49.9619C30.5338 50.0498 30.506 50.1244 30.4674 50.1857C30.4295 50.2471 30.3796 50.2938 30.3176 50.3261C30.2557 50.3583 30.1804 50.3744 30.0919 50.3744C29.9807 50.3744 29.8893 50.3463 29.8179 50.29C29.7464 50.2331 29.6937 50.1516 29.6595 50.0454C29.6254 49.9386 29.6083 49.8109 29.6083 49.6623C29.6083 49.5125 29.6238 49.3845 29.6548 49.2782C29.6864 49.1714 29.7376 49.0895 29.8084 49.0326C29.8792 48.9758 29.9737 48.9473 30.0919 48.9473C30.2026 48.9473 30.2936 48.9758 30.365 49.0326C30.4371 49.0889 30.4905 49.1705 30.5253 49.2773C30.5601 49.3835 30.5774 49.5118 30.5774 49.6623ZM29.8994 49.6623C29.8994 49.7679 29.9051 49.8561 29.9165 49.9269C29.9285 49.997 29.9484 50.0498 29.9762 50.0852C30.0041 50.1206 30.0426 50.1383 30.0919 50.1383C30.1406 50.1383 30.1789 50.1209 30.2067 50.0862C30.2351 50.0508 30.2553 49.998 30.2674 49.9278C30.2794 49.857 30.2854 49.7685 30.2854 49.6623C30.2854 49.5567 30.2794 49.4685 30.2674 49.3977C30.2553 49.3269 30.2351 49.2738 30.2067 49.2384C30.1789 49.2024 30.1406 49.1844 30.0919 49.1844C30.0426 49.1844 30.0041 49.2024 29.9762 49.2384C29.9484 49.2738 29.9285 49.3269 29.9165 49.3977C29.9051 49.4685 29.8994 49.5567 29.8994 49.6623Z" fill="#212121"/>
<path d="M45.7422 48.5195C46.2113 48.5195 46.5916 48.9 46.5918 49.3691C46.5918 49.8384 46.2114 50.2188 45.7422 50.2188C45.2731 50.2186 44.8926 49.8383 44.8926 49.3691C44.8927 48.9001 45.2732 48.5197 45.7422 48.5195Z" fill="white" stroke="#6A59FD" stroke-width="0.242754"/>
<path d="M45.7423 49.8538C46.0105 49.8538 46.2279 49.6365 46.2279 49.3683C46.2279 49.1002 46.0105 48.8828 45.7423 48.8828C45.4742 48.8828 45.2568 49.1002 45.2568 49.3683C45.2568 49.6365 45.4742 49.8538 45.7423 49.8538Z" fill="#6A59FD"/>
<path d="M53.7529 43.6641C54.2221 43.6641 54.6024 44.0446 54.6025 44.5137C54.6025 44.9829 54.2222 45.3633 53.7529 45.3633C53.2838 45.3631 52.9033 44.9828 52.9033 44.5137C52.9035 44.0447 53.2839 43.6642 53.7529 43.6641Z" fill="white" stroke="#6A59FD" stroke-width="0.242754"/>
<path d="M53.7531 44.9984C54.0212 44.9984 54.2386 44.781 54.2386 44.5129C54.2386 44.2447 54.0212 44.0273 53.7531 44.0273C53.4849 44.0273 53.2676 44.2447 53.2676 44.5129C53.2676 44.781 53.4849 44.9984 53.7531 44.9984Z" fill="#6A59FD"/>
<path d="M61.7646 47.5469C62.2338 47.5469 62.6141 47.9274 62.6143 48.3965C62.6143 48.8657 62.2339 49.2461 61.7646 49.2461C61.2955 49.2459 60.915 48.8656 60.915 48.3965C60.9152 47.9275 61.2957 47.547 61.7646 47.5469Z" fill="white" stroke="#6A59FD" stroke-width="0.242754"/>
<path d="M61.7648 48.8812C62.0329 48.8812 62.2503 48.6638 62.2503 48.3957C62.2503 48.1275 62.0329 47.9102 61.7648 47.9102C61.4967 47.9102 61.2793 48.1275 61.2793 48.3957C61.2793 48.6638 61.4967 48.8812 61.7648 48.8812Z" fill="#6A59FD"/>
<path d="M69.7744 52.4023C70.2436 52.4023 70.6239 52.7829 70.624 53.252C70.624 53.7212 70.2437 54.1016 69.7744 54.1016C69.3053 54.1014 68.9248 53.7211 68.9248 53.252C68.925 52.783 69.3054 52.4025 69.7744 52.4023Z" fill="white" stroke="#6A59FD" stroke-width="0.242754"/>
<path d="M69.7746 53.7366C70.0427 53.7366 70.2601 53.5193 70.2601 53.2511C70.2601 52.983 70.0427 52.7656 69.7746 52.7656C69.5064 52.7656 69.2891 52.983 69.2891 53.2511C69.2891 53.5193 69.5064 53.7366 69.7746 53.7366Z" fill="#6A59FD"/>
<path d="M77.7871 47.3047C78.2562 47.3047 78.6365 47.6852 78.6367 48.1543C78.6367 48.6235 78.2564 49.0039 77.7871 49.0039C77.318 49.0037 76.9375 48.6234 76.9375 48.1543C76.9377 47.6853 77.3181 47.3049 77.7871 47.3047Z" fill="white" stroke="#6A59FD" stroke-width="0.242754"/>
<path d="M77.7873 48.639C78.0554 48.639 78.2728 48.4216 78.2728 48.1535C78.2728 47.8853 78.0554 47.668 77.7873 47.668C77.5191 47.668 77.3018 47.8853 77.3018 48.1535C77.3018 48.4216 77.5191 48.639 77.7873 48.639Z" fill="#6A59FD"/>
<path d="M37.7305 50.7031C38.1996 50.7031 38.5799 51.0836 38.5801 51.5527C38.5801 52.022 38.1997 52.4023 37.7305 52.4023C37.2614 52.4022 36.8809 52.0219 36.8809 51.5527C36.881 51.0837 37.2615 50.7033 37.7305 50.7031Z" fill="white" stroke="#6A59FD" stroke-width="0.242754"/>
<path d="M37.7306 52.0374C37.9988 52.0374 38.2161 51.8201 38.2161 51.5519C38.2161 51.2838 37.9988 51.0664 37.7306 51.0664C37.4625 51.0664 37.2451 51.2838 37.2451 51.5519C37.2451 51.8201 37.4625 52.0374 37.7306 52.0374Z" fill="#6A59FD"/>
<path d="M29.7197 52.1602C30.1889 52.1602 30.5692 52.5407 30.5693 53.0098C30.5693 53.479 30.189 53.8594 29.7197 53.8594C29.2506 53.8592 28.8701 53.4789 28.8701 53.0098C28.8703 52.5408 29.2507 52.1603 29.7197 52.1602Z" fill="white" stroke="#6A59FD" stroke-width="0.242754"/>
<path d="M29.7199 53.4945C29.988 53.4945 30.2054 53.2771 30.2054 53.0089C30.2054 52.7408 29.988 52.5234 29.7199 52.5234C29.4517 52.5234 29.2344 52.7408 29.2344 53.0089C29.2344 53.2771 29.4517 53.4945 29.7199 53.4945Z" fill="#6A59FD"/>
<rect x="58.2448" y="50.2185" width="6.22962" height="3.64131" rx="1.82066" fill="white"/>
<rect x="58.2448" y="50.2185" width="6.22962" height="3.64131" rx="1.82066" stroke="#D6D6D6" stroke-width="0.242754"/>
<path d="M59.4276 51.9502C59.4276 51.8705 59.4333 51.7918 59.4447 51.7141C59.4567 51.6357 59.4773 51.562 59.5064 51.4931C59.5354 51.4236 59.5762 51.3623 59.6287 51.3092C59.6812 51.2554 59.7478 51.2134 59.8288 51.1831C59.9097 51.1521 60.0077 51.1366 60.1227 51.1366C60.1499 51.1366 60.1815 51.1379 60.2175 51.1404C60.2542 51.1423 60.2846 51.1458 60.3086 51.1508V51.385C60.2833 51.3793 60.2561 51.3749 60.227 51.3718C60.1986 51.368 60.1701 51.3661 60.1417 51.3661C60.0266 51.3661 59.9375 51.3844 59.8743 51.4211C59.8117 51.4577 59.7674 51.5086 59.7415 51.5737C59.7162 51.6382 59.7014 51.7134 59.697 51.7994H59.7093C59.727 51.7684 59.7491 51.7409 59.7757 51.7169C59.8028 51.6929 59.8357 51.6739 59.8743 51.66C59.9128 51.6455 59.958 51.6382 60.0099 51.6382C60.0908 51.6382 60.161 51.6556 60.2204 51.6904C60.2798 51.7245 60.3257 51.7741 60.3579 51.8392C60.3901 51.9044 60.4063 51.9837 60.4063 52.0773C60.4063 52.1771 60.387 52.2631 60.3484 52.3352C60.3098 52.4073 60.2552 52.4626 60.1844 52.5011C60.1142 52.5391 60.0307 52.558 59.934 52.558C59.8632 52.558 59.7972 52.546 59.7358 52.522C59.6745 52.4973 59.6208 52.46 59.5746 52.4101C59.5285 52.3602 59.4924 52.2973 59.4665 52.2214C59.4406 52.1449 59.4276 52.0545 59.4276 51.9502ZM59.9283 52.3238C59.9859 52.3238 60.0326 52.3042 60.0687 52.265C60.1047 52.2258 60.1227 52.1645 60.1227 52.0811C60.1227 52.0134 60.1069 51.9603 60.0753 51.9217C60.0443 51.8826 59.9972 51.863 59.934 51.863C59.891 51.863 59.8531 51.8728 59.8202 51.8924C59.788 51.9113 59.763 51.9357 59.7453 51.9654C59.7276 51.9944 59.7188 52.0245 59.7188 52.0555C59.7188 52.0877 59.7232 52.1196 59.732 52.1512C59.7409 52.1828 59.7542 52.2116 59.7719 52.2375C59.7896 52.2634 59.8114 52.2843 59.8373 52.3001C59.8638 52.3159 59.8942 52.3238 59.9283 52.3238ZM61.51 51.8459C61.51 51.9578 61.5012 52.0577 61.4835 52.1455C61.4664 52.2334 61.4386 52.308 61.4 52.3693C61.3621 52.4306 61.3122 52.4774 61.2502 52.5097C61.1882 52.5419 61.113 52.558 61.0245 52.558C60.9133 52.558 60.8219 52.5299 60.7505 52.4736C60.679 52.4167 60.6262 52.3352 60.5921 52.229C60.558 52.1221 60.5409 51.9944 60.5409 51.8459C60.5409 51.6961 60.5564 51.568 60.5874 51.4618C60.619 51.355 60.6702 51.2731 60.741 51.2162C60.8118 51.1593 60.9063 51.1309 61.0245 51.1309C61.1351 51.1309 61.2262 51.1593 61.2976 51.2162C61.3697 51.2725 61.4231 51.3541 61.4579 51.4609C61.4926 51.5671 61.51 51.6954 61.51 51.8459ZM60.832 51.8459C60.832 51.9515 60.8377 52.0396 60.8491 52.1104C60.8611 52.1806 60.881 52.2334 60.9088 52.2688C60.9366 52.3042 60.9752 52.3219 61.0245 52.3219C61.0732 52.3219 61.1114 52.3045 61.1393 52.2698C61.1677 52.2344 61.1879 52.1816 61.1999 52.1114C61.212 52.0406 61.218 51.9521 61.218 51.8459C61.218 51.7403 61.212 51.6521 61.1999 51.5813C61.1879 51.5105 61.1677 51.4574 61.1393 51.422C61.1114 51.386 61.0732 51.368 61.0245 51.368C60.9752 51.368 60.9366 51.386 60.9088 51.422C60.881 51.4574 60.8611 51.5105 60.8491 51.5813C60.8377 51.6521 60.832 51.7403 60.832 51.8459ZM62.6214 51.8459C62.6214 51.9578 62.6125 52.0577 62.5948 52.1455C62.5778 52.2334 62.5499 52.308 62.5114 52.3693C62.4735 52.4306 62.4235 52.4774 62.3616 52.5097C62.2996 52.5419 62.2244 52.558 62.1359 52.558C62.0246 52.558 61.9333 52.5299 61.8618 52.4736C61.7904 52.4167 61.7376 52.3352 61.7035 52.229C61.6693 52.1221 61.6523 51.9944 61.6523 51.8459C61.6523 51.6961 61.6678 51.568 61.6987 51.4618C61.7303 51.355 61.7815 51.2731 61.8523 51.2162C61.9231 51.1593 62.0177 51.1309 62.1359 51.1309C62.2465 51.1309 62.3375 51.1593 62.409 51.2162C62.481 51.2725 62.5345 51.3541 62.5692 51.4609C62.604 51.5671 62.6214 51.6954 62.6214 51.8459ZM61.9434 51.8459C61.9434 51.9515 61.9491 52.0396 61.9604 52.1104C61.9725 52.1806 61.9924 52.2334 62.0202 52.2688C62.048 52.3042 62.0866 52.3219 62.1359 52.3219C62.1846 52.3219 62.2228 52.3045 62.2506 52.2698C62.2791 52.2344 62.2993 52.1816 62.3113 52.1114C62.3233 52.0406 62.3293 51.9521 62.3293 51.8459C62.3293 51.7403 62.3233 51.6521 62.3113 51.5813C62.2993 51.5105 62.2791 51.4574 62.2506 51.422C62.2228 51.386 62.1846 51.368 62.1359 51.368C62.0866 51.368 62.048 51.386 62.0202 51.422C61.9924 51.4574 61.9725 51.5105 61.9604 51.5813C61.9491 51.6521 61.9434 51.7403 61.9434 51.8459Z" fill="#212121"/>
<rect x="66.0124" y="55.3161" width="6.22962" height="3.64131" rx="1.82066" fill="white"/>
<rect x="66.0124" y="55.3161" width="6.22962" height="3.64131" rx="1.82066" stroke="#D6D6D6" stroke-width="0.242754"/>
<path d="M68.2051 57.3494H68.0382V57.6367H67.7519V57.3494H67.1601V57.1455L67.768 56.2504H68.0382V57.1218H68.2051V57.3494ZM67.7519 57.1218V56.8866C67.7519 56.8645 67.7522 56.8383 67.7528 56.8079C67.7541 56.7776 67.7553 56.7473 67.7566 56.7169C67.7579 56.6866 67.7591 56.6597 67.7604 56.6363C67.7623 56.6123 67.7636 56.5955 67.7642 56.586H67.7566C67.7446 56.612 67.7319 56.6373 67.7187 56.6619C67.7054 56.6859 67.6899 56.7112 67.6722 56.7378L67.4181 57.1218H67.7519ZM69.2776 56.9435C69.2776 57.0554 69.2688 57.1553 69.2511 57.2432C69.234 57.3311 69.2062 57.4057 69.1676 57.467C69.1297 57.5283 69.0797 57.5751 69.0178 57.6073C68.9558 57.6396 68.8806 57.6557 68.7921 57.6557C68.6808 57.6557 68.5895 57.6276 68.518 57.5713C68.4466 57.5144 68.3938 57.4328 68.3597 57.3266C68.3256 57.2198 68.3085 57.0921 68.3085 56.9435C68.3085 56.7937 68.324 56.6657 68.3549 56.5595C68.3866 56.4527 68.4378 56.3708 68.5086 56.3139C68.5794 56.257 68.6739 56.2286 68.7921 56.2286C68.9027 56.2286 68.9938 56.257 69.0652 56.3139C69.1373 56.3702 69.1907 56.4517 69.2254 56.5585C69.2602 56.6648 69.2776 56.7931 69.2776 56.9435ZM68.5996 56.9435C68.5996 57.0491 68.6053 57.1373 68.6167 57.2081C68.6287 57.2783 68.6486 57.3311 68.6764 57.3665C68.7042 57.4019 68.7428 57.4196 68.7921 57.4196C68.8408 57.4196 68.879 57.4022 68.9068 57.3674C68.9353 57.332 68.9555 57.2792 68.9675 57.2091C68.9795 57.1383 68.9855 57.0497 68.9855 56.9435C68.9855 56.838 68.9795 56.7498 68.9675 56.679C68.9555 56.6082 68.9353 56.5551 68.9068 56.5197C68.879 56.4836 68.8408 56.4656 68.7921 56.4656C68.7428 56.4656 68.7042 56.4836 68.6764 56.5197C68.6486 56.5551 68.6287 56.6082 68.6167 56.679C68.6053 56.7498 68.5996 56.838 68.5996 56.9435ZM70.389 56.9435C70.389 57.0554 70.3801 57.1553 70.3624 57.2432C70.3453 57.3311 70.3175 57.4057 70.279 57.467C70.241 57.5283 70.1911 57.5751 70.1291 57.6073C70.0672 57.6396 69.992 57.6557 69.9035 57.6557C69.7922 57.6557 69.7008 57.6276 69.6294 57.5713C69.558 57.5144 69.5052 57.4328 69.471 57.3266C69.4369 57.2198 69.4198 57.0921 69.4198 56.9435C69.4198 56.7937 69.4353 56.6657 69.4663 56.5595C69.4979 56.4527 69.5491 56.3708 69.6199 56.3139C69.6907 56.257 69.7852 56.2286 69.9035 56.2286C70.0141 56.2286 70.1051 56.257 70.1766 56.3139C70.2486 56.3702 70.302 56.4517 70.3368 56.5585C70.3716 56.6648 70.389 56.7931 70.389 56.9435ZM69.711 56.9435C69.711 57.0491 69.7166 57.1373 69.728 57.2081C69.74 57.2783 69.76 57.3311 69.7878 57.3665C69.8156 57.4019 69.8541 57.4196 69.9035 57.4196C69.9521 57.4196 69.9904 57.4022 70.0182 57.3674C70.0466 57.332 70.0669 57.2792 70.0789 57.2091C70.0909 57.1383 70.0969 57.0497 70.0969 56.9435C70.0969 56.838 70.0909 56.7498 70.0789 56.679C70.0669 56.6082 70.0466 56.5551 70.0182 56.5197C69.9904 56.4836 69.9521 56.4656 69.9035 56.4656C69.8541 56.4656 69.8156 56.4836 69.7878 56.5197C69.76 56.5551 69.74 56.6082 69.728 56.679C69.7166 56.7498 69.711 56.838 69.711 56.9435Z" fill="#212121"/>
<rect x="74.7517" y="42.695" width="6.22962" height="3.64131" rx="1.82066" fill="white"/>
<rect x="74.7517" y="42.695" width="6.22962" height="3.64131" rx="1.82066" stroke="#D6D6D6" stroke-width="0.242754"/>
<path d="M75.9345 44.4268C75.9345 44.3471 75.9402 44.2684 75.9516 44.1906C75.9636 44.1123 75.9841 44.0386 76.0132 43.9697C76.0423 43.9002 76.083 43.8388 76.1355 43.7857C76.188 43.732 76.2547 43.69 76.3356 43.6596C76.4165 43.6286 76.5145 43.6132 76.6296 43.6132C76.6567 43.6132 76.6884 43.6144 76.7244 43.6169C76.7611 43.6188 76.7914 43.6223 76.8154 43.6274V43.8616C76.7901 43.8559 76.7629 43.8515 76.7339 43.8483C76.7054 43.8445 76.677 43.8426 76.6485 43.8426C76.5335 43.8426 76.4443 43.861 76.3811 43.8976C76.3185 43.9343 76.2743 43.9852 76.2484 44.0503C76.2231 44.1148 76.2082 44.19 76.2038 44.276H76.2161C76.2338 44.245 76.2559 44.2175 76.2825 44.1935C76.3097 44.1695 76.3426 44.1505 76.3811 44.1366C76.4197 44.122 76.4649 44.1148 76.5167 44.1148C76.5976 44.1148 76.6678 44.1322 76.7272 44.1669C76.7867 44.2011 76.8325 44.2507 76.8647 44.3158C76.897 44.3809 76.9131 44.4603 76.9131 44.5538C76.9131 44.6537 76.8938 44.7397 76.8552 44.8117C76.8167 44.8838 76.762 44.9391 76.6912 44.9777C76.621 45.0156 76.5376 45.0346 76.4409 45.0346C76.3701 45.0346 76.304 45.0226 76.2427 44.9986C76.1813 44.9739 76.1276 44.9366 76.0815 44.8867C76.0353 44.8367 75.9993 44.7738 75.9734 44.698C75.9474 44.6215 75.9345 44.5311 75.9345 44.4268ZM76.4352 44.8004C76.4927 44.8004 76.5395 44.7808 76.5755 44.7416C76.6115 44.7024 76.6296 44.6411 76.6296 44.5576C76.6296 44.49 76.6138 44.4369 76.5821 44.3983C76.5512 44.3591 76.5041 44.3395 76.4409 44.3395C76.3979 44.3395 76.3599 44.3493 76.3271 44.3689C76.2948 44.3879 76.2699 44.4122 76.2522 44.4419C76.2345 44.471 76.2256 44.501 76.2256 44.532C76.2256 44.5643 76.23 44.5962 76.2389 44.6278C76.2477 44.6594 76.261 44.6882 76.2787 44.7141C76.2964 44.74 76.3182 44.7609 76.3441 44.7767C76.3707 44.7925 76.401 44.8004 76.4352 44.8004ZM77.5598 44.13C77.6445 44.13 77.7197 44.1461 77.7855 44.1783C77.8519 44.2106 77.904 44.258 77.9419 44.3206C77.9799 44.3831 77.9988 44.4603 77.9988 44.5519C77.9988 44.6518 77.978 44.7381 77.9363 44.8108C77.8952 44.8829 77.8335 44.9382 77.7513 44.9767C77.6698 45.0153 77.568 45.0346 77.446 45.0346C77.3733 45.0346 77.3047 45.0283 77.2402 45.0156C77.1764 45.0036 77.1204 44.985 77.0724 44.9597V44.7065C77.1204 44.7318 77.178 44.7533 77.245 44.771C77.3126 44.788 77.3762 44.7966 77.4356 44.7966C77.4937 44.7966 77.5427 44.789 77.5826 44.7738C77.6224 44.758 77.6524 44.734 77.6726 44.7018C77.6935 44.6689 77.7039 44.6272 77.7039 44.5766C77.7039 44.5089 77.6812 44.4571 77.6357 44.4211C77.5901 44.385 77.5203 44.367 77.4261 44.367C77.3901 44.367 77.3524 44.3705 77.3133 44.3774C77.2747 44.3844 77.2424 44.3914 77.2165 44.3983L77.0999 44.3357L77.152 43.6293H77.904V43.8777H77.409L77.3834 44.1499C77.4049 44.1454 77.4283 44.141 77.4536 44.1366C77.4789 44.1322 77.5143 44.13 77.5598 44.13ZM79.1282 44.3224C79.1282 44.4343 79.1194 44.5342 79.1017 44.6221C79.0846 44.71 79.0568 44.7846 79.0182 44.8459C78.9803 44.9072 78.9303 44.954 78.8684 44.9862C78.8064 45.0185 78.7312 45.0346 78.6427 45.0346C78.5314 45.0346 78.4401 45.0065 78.3687 44.9502C78.2972 44.8933 78.2444 44.8117 78.2103 44.7055C78.1762 44.5987 78.1591 44.471 78.1591 44.3224C78.1591 44.1726 78.1746 44.0446 78.2056 43.9384C78.2372 43.8316 78.2884 43.7497 78.3592 43.6928C78.43 43.6359 78.5245 43.6075 78.6427 43.6075C78.7533 43.6075 78.8444 43.6359 78.9158 43.6928C78.9879 43.7491 79.0413 43.8306 79.0761 43.9375C79.1108 44.0437 79.1282 44.172 79.1282 44.3224ZM78.4502 44.3224C78.4502 44.428 78.4559 44.5162 78.4673 44.587C78.4793 44.6572 78.4992 44.71 78.527 44.7454C78.5548 44.7808 78.5934 44.7985 78.6427 44.7985C78.6914 44.7985 78.7296 44.7811 78.7575 44.7463C78.7859 44.7109 78.8061 44.6581 78.8181 44.588C78.8302 44.5172 78.8362 44.4287 78.8362 44.3224C78.8362 44.2169 78.8302 44.1287 78.8181 44.0579C78.8061 43.9871 78.7859 43.934 78.7575 43.8986C78.7296 43.8625 78.6914 43.8445 78.6427 43.8445C78.5934 43.8445 78.5548 43.8625 78.527 43.8986C78.4992 43.934 78.4793 43.9871 78.4673 44.0579C78.4559 44.1287 78.4502 44.2169 78.4502 44.3224Z" fill="#212121"/>
<defs>
<linearGradient id="paint0_linear_7800_43290" x1="49.7481" y1="36.7461" x2="49.7481" y2="72.431" gradientUnits="userSpaceOnUse">
<stop stop-color="#6C5BFF"/>
<stop offset="1" stop-color="#6C5BFF" stop-opacity="0"/>
</linearGradient>
</defs>
</svg>
