<svg width="93" height="92" viewBox="0 0 93 92" fill="none" xmlns="http://www.w3.org/2000/svg">
<rect x="1.13104" y="0.389831" width="91.079" height="91.2203" rx="17.5424" stroke="#BEBEBE" stroke-width="0.779661"/>
<g clip-path="url(#clip0_7813_52779)">
<rect width="70" height="54.9158" transform="translate(11.6807 18.0625)" fill="white"/>
<path d="M21.1094 23.7148V69.2031" stroke="#E0E0E0" stroke-width="0.23569"/>
<path d="M15.4109 25.7148H14.5289V25.5869L14.8888 25.2214C14.9557 25.1539 15.0119 25.0937 15.0573 25.0409C15.1034 24.9881 15.1383 24.9363 15.1623 24.8853C15.1862 24.8338 15.1982 24.7773 15.1982 24.7159C15.1982 24.6398 15.1755 24.5818 15.1301 24.5419C15.0853 24.5014 15.026 24.4812 14.9524 24.4812C14.8879 24.4812 14.8308 24.4922 14.7811 24.5143C14.7314 24.5364 14.6805 24.5677 14.6283 24.6082L14.5464 24.5051C14.582 24.475 14.6206 24.4483 14.6624 24.425C14.7047 24.4017 14.7498 24.3833 14.7977 24.3698C14.8462 24.3562 14.8977 24.3495 14.9524 24.3495C15.0352 24.3495 15.1067 24.3639 15.1669 24.3928C15.227 24.4216 15.2734 24.4627 15.3059 24.5161C15.339 24.5695 15.3556 24.6331 15.3556 24.7067C15.3556 24.7779 15.3415 24.8442 15.3133 24.9056C15.285 24.9663 15.2454 25.0268 15.1945 25.087C15.1436 25.1465 15.084 25.2097 15.0159 25.2766L14.7231 25.5685V25.5749H15.4109V25.7148ZM16.0332 24.8918C16.1247 24.8918 16.2042 24.9074 16.2717 24.9387C16.3392 24.9694 16.3914 25.0142 16.4282 25.0731C16.4656 25.1321 16.4844 25.2036 16.4844 25.2877C16.4844 25.3797 16.4644 25.4592 16.4245 25.5261C16.3846 25.5924 16.3272 25.6436 16.2523 25.6799C16.1775 25.7155 16.0879 25.7333 15.9835 25.7333C15.9135 25.7333 15.8485 25.7271 15.7883 25.7148C15.7282 25.7026 15.6775 25.6842 15.6364 25.6596V25.5141C15.6812 25.5411 15.7355 25.5626 15.7994 25.5786C15.8632 25.5945 15.9252 25.6025 15.9854 25.6025C16.0535 25.6025 16.113 25.5918 16.164 25.5703C16.2155 25.5482 16.2554 25.5151 16.2837 25.4709C16.3125 25.4261 16.3269 25.3699 16.3269 25.3024C16.3269 25.2128 16.2993 25.1437 16.2441 25.0952C16.1894 25.0461 16.1029 25.0216 15.9844 25.0216C15.9464 25.0216 15.9046 25.0247 15.8592 25.0308C15.8138 25.0369 15.7764 25.0437 15.7469 25.051L15.6696 25.0004L15.7211 24.3688H16.3904V24.5088H15.8519L15.8178 24.9148C15.8411 24.9099 15.8712 24.905 15.908 24.9001C15.9448 24.8945 15.9866 24.8918 16.0332 24.8918ZM17.5763 25.04C17.5763 25.1492 17.568 25.2468 17.5514 25.3328C17.5348 25.4187 17.5087 25.4914 17.4731 25.551C17.4376 25.6105 17.3915 25.6559 17.335 25.6872C17.2786 25.7179 17.2108 25.7333 17.1316 25.7333C17.0315 25.7333 16.9487 25.7059 16.883 25.6513C16.8179 25.5967 16.7691 25.5178 16.7366 25.4147C16.7047 25.311 16.6887 25.1861 16.6887 25.04C16.6887 24.8964 16.7032 24.773 16.732 24.6699C16.7615 24.5662 16.8087 24.4867 16.8738 24.4314C16.9389 24.3756 17.0248 24.3477 17.1316 24.3477C17.2329 24.3477 17.3163 24.3753 17.382 24.4305C17.4477 24.4851 17.4965 24.5643 17.5284 24.668C17.5603 24.7712 17.5763 24.8951 17.5763 25.04ZM16.8425 25.04C16.8425 25.1652 16.852 25.2695 16.871 25.353C16.8901 25.4365 16.9208 25.4991 16.9631 25.5408C17.0061 25.582 17.0622 25.6025 17.1316 25.6025C17.2009 25.6025 17.2568 25.582 17.2991 25.5408C17.3421 25.4997 17.3731 25.4374 17.3921 25.3539C17.4118 25.2705 17.4216 25.1658 17.4216 25.04C17.4216 24.9166 17.4121 24.8135 17.3931 24.7307C17.374 24.6472 17.3433 24.5846 17.301 24.5428C17.2586 24.5005 17.2022 24.4793 17.1316 24.4793C17.061 24.4793 17.0045 24.5005 16.9622 24.5428C16.9198 24.5846 16.8891 24.6472 16.8701 24.7307C16.8517 24.8135 16.8425 24.9166 16.8425 25.04ZM18.6553 25.04C18.6553 25.1492 18.647 25.2468 18.6304 25.3328C18.6139 25.4187 18.5878 25.4914 18.5522 25.551C18.5166 25.6105 18.4705 25.6559 18.4141 25.6872C18.3576 25.7179 18.2898 25.7333 18.2106 25.7333C18.1106 25.7333 18.0277 25.7059 17.962 25.6513C17.897 25.5967 17.8482 25.5178 17.8156 25.4147C17.7837 25.311 17.7678 25.1861 17.7678 25.04C17.7678 24.8964 17.7822 24.773 17.811 24.6699C17.8405 24.5662 17.8878 24.4867 17.9528 24.4314C18.0179 24.3756 18.1038 24.3477 18.2106 24.3477C18.3119 24.3477 18.3953 24.3753 18.461 24.4305C18.5267 24.4851 18.5755 24.5643 18.6074 24.668C18.6393 24.7712 18.6553 24.8951 18.6553 25.04ZM17.9215 25.04C17.9215 25.1652 17.931 25.2695 17.9501 25.353C17.9691 25.4365 17.9998 25.4991 18.0421 25.5408C18.0851 25.582 18.1412 25.6025 18.2106 25.6025C18.28 25.6025 18.3358 25.582 18.3782 25.5408C18.4211 25.4997 18.4521 25.4374 18.4712 25.3539C18.4908 25.2705 18.5006 25.1658 18.5006 25.04C18.5006 24.9166 18.4911 24.8135 18.4721 24.7307C18.453 24.6472 18.4224 24.5846 18.38 24.5428C18.3377 24.5005 18.2812 24.4793 18.2106 24.4793C18.14 24.4793 18.0836 24.5005 18.0412 24.5428C17.9988 24.5846 17.9682 24.6472 17.9491 24.7307C17.9307 24.8135 17.9215 24.9166 17.9215 25.04Z" fill="#212121"/>
<path d="M15.4109 32.957H14.5289V32.8291L14.8888 32.4636C14.9557 32.396 15.0119 32.3359 15.0573 32.2831C15.1034 32.2303 15.1383 32.1785 15.1623 32.1275C15.1862 32.076 15.1982 32.0195 15.1982 31.9581C15.1982 31.882 15.1755 31.824 15.1301 31.7841C15.0853 31.7436 15.026 31.7233 14.9524 31.7233C14.8879 31.7233 14.8308 31.7344 14.7811 31.7565C14.7314 31.7786 14.6805 31.8099 14.6283 31.8504L14.5464 31.7473C14.582 31.7172 14.6206 31.6905 14.6624 31.6672C14.7047 31.6439 14.7498 31.6254 14.7977 31.6119C14.8462 31.5984 14.8977 31.5917 14.9524 31.5917C15.0352 31.5917 15.1067 31.6061 15.1669 31.635C15.227 31.6638 15.2734 31.7049 15.3059 31.7583C15.339 31.8117 15.3556 31.8752 15.3556 31.9489C15.3556 32.0201 15.3415 32.0864 15.3133 32.1478C15.285 32.2085 15.2454 32.269 15.1945 32.3291C15.1436 32.3887 15.084 32.4519 15.0159 32.5188L14.7231 32.8106V32.8171H15.4109V32.957ZM16.4972 32.2822C16.4972 32.3914 16.489 32.489 16.4724 32.575C16.4558 32.6609 16.4297 32.7336 16.3941 32.7932C16.3585 32.8527 16.3125 32.8981 16.256 32.9294C16.1996 32.9601 16.1317 32.9754 16.0526 32.9754C15.9525 32.9754 15.8697 32.9481 15.804 32.8935C15.7389 32.8389 15.6901 32.76 15.6576 32.6569C15.6257 32.5532 15.6097 32.4283 15.6097 32.2822C15.6097 32.1386 15.6241 32.0152 15.653 31.9121C15.6825 31.8083 15.7297 31.7289 15.7948 31.6736C15.8598 31.6178 15.9458 31.5898 16.0526 31.5898C16.1538 31.5898 16.2373 31.6175 16.303 31.6727C16.3687 31.7273 16.4175 31.8065 16.4494 31.9102C16.4813 32.0133 16.4972 32.1373 16.4972 32.2822ZM15.7635 32.2822C15.7635 32.4074 15.773 32.5117 15.792 32.5952C15.811 32.6787 15.8417 32.7413 15.8841 32.783C15.927 32.8241 15.9832 32.8447 16.0526 32.8447C16.1219 32.8447 16.1778 32.8241 16.2201 32.783C16.2631 32.7419 16.2941 32.6796 16.3131 32.5961C16.3328 32.5127 16.3426 32.408 16.3426 32.2822C16.3426 32.1588 16.3331 32.0557 16.314 31.9728C16.295 31.8894 16.2643 31.8268 16.222 31.785C16.1796 31.7427 16.1231 31.7215 16.0526 31.7215C15.982 31.7215 15.9255 31.7427 15.8832 31.785C15.8408 31.8268 15.8101 31.8894 15.7911 31.9728C15.7727 32.0557 15.7635 32.1588 15.7635 32.2822ZM17.5763 32.2822C17.5763 32.3914 17.568 32.489 17.5514 32.575C17.5348 32.6609 17.5087 32.7336 17.4731 32.7932C17.4376 32.8527 17.3915 32.8981 17.335 32.9294C17.2786 32.9601 17.2108 32.9754 17.1316 32.9754C17.0315 32.9754 16.9487 32.9481 16.883 32.8935C16.8179 32.8389 16.7691 32.76 16.7366 32.6569C16.7047 32.5532 16.6887 32.4283 16.6887 32.2822C16.6887 32.1386 16.7032 32.0152 16.732 31.9121C16.7615 31.8083 16.8087 31.7289 16.8738 31.6736C16.9389 31.6178 17.0248 31.5898 17.1316 31.5898C17.2329 31.5898 17.3163 31.6175 17.382 31.6727C17.4477 31.7273 17.4965 31.8065 17.5284 31.9102C17.5603 32.0133 17.5763 32.1373 17.5763 32.2822ZM16.8425 32.2822C16.8425 32.4074 16.852 32.5117 16.871 32.5952C16.8901 32.6787 16.9208 32.7413 16.9631 32.783C17.0061 32.8241 17.0622 32.8447 17.1316 32.8447C17.2009 32.8447 17.2568 32.8241 17.2991 32.783C17.3421 32.7419 17.3731 32.6796 17.3921 32.5961C17.4118 32.5127 17.4216 32.408 17.4216 32.2822C17.4216 32.1588 17.4121 32.0557 17.3931 31.9728C17.374 31.8894 17.3433 31.8268 17.301 31.785C17.2586 31.7427 17.2022 31.7215 17.1316 31.7215C17.061 31.7215 17.0045 31.7427 16.9622 31.785C16.9198 31.8268 16.8891 31.8894 16.8701 31.9728C16.8517 32.0557 16.8425 32.1588 16.8425 32.2822ZM18.6553 32.2822C18.6553 32.3914 18.647 32.489 18.6304 32.575C18.6139 32.6609 18.5878 32.7336 18.5522 32.7932C18.5166 32.8527 18.4705 32.8981 18.4141 32.9294C18.3576 32.9601 18.2898 32.9754 18.2106 32.9754C18.1106 32.9754 18.0277 32.9481 17.962 32.8935C17.897 32.8389 17.8482 32.76 17.8156 32.6569C17.7837 32.5532 17.7678 32.4283 17.7678 32.2822C17.7678 32.1386 17.7822 32.0152 17.811 31.9121C17.8405 31.8083 17.8878 31.7289 17.9528 31.6736C18.0179 31.6178 18.1038 31.5898 18.2106 31.5898C18.3119 31.5898 18.3953 31.6175 18.461 31.6727C18.5267 31.7273 18.5755 31.8065 18.6074 31.9102C18.6393 32.0133 18.6553 32.1373 18.6553 32.2822ZM17.9215 32.2822C17.9215 32.4074 17.931 32.5117 17.9501 32.5952C17.9691 32.6787 17.9998 32.7413 18.0421 32.783C18.0851 32.8241 18.1412 32.8447 18.2106 32.8447C18.28 32.8447 18.3358 32.8241 18.3782 32.783C18.4211 32.7419 18.4521 32.6796 18.4712 32.5961C18.4908 32.5127 18.5006 32.408 18.5006 32.2822C18.5006 32.1588 18.4911 32.0557 18.4721 31.9728C18.453 31.8894 18.4224 31.8268 18.38 31.785C18.3377 31.7427 18.2812 31.7215 18.2106 31.7215C18.14 31.7215 18.0836 31.7427 18.0412 31.785C17.9988 31.8268 17.9682 31.8894 17.9491 31.9728C17.9307 32.0557 17.9215 32.1588 17.9215 32.2822Z" fill="#212121"/>
<path d="M15.0978 40.1992H14.9487V39.2454C14.9487 39.2092 14.9487 39.1782 14.9487 39.1524C14.9493 39.126 14.9499 39.1021 14.9505 39.0806C14.9518 39.0585 14.9533 39.0361 14.9551 39.0134C14.9361 39.033 14.9183 39.0499 14.9017 39.064C14.8852 39.0775 14.8646 39.0944 14.84 39.1147L14.6863 39.238L14.6062 39.134L14.9708 38.8532H15.0978V40.1992ZM16.0332 39.3761C16.1247 39.3761 16.2042 39.3918 16.2717 39.4231C16.3392 39.4538 16.3914 39.4986 16.4282 39.5575C16.4656 39.6164 16.4844 39.6879 16.4844 39.772C16.4844 39.8641 16.4644 39.9436 16.4245 40.0105C16.3846 40.0768 16.3272 40.128 16.2523 40.1642C16.1775 40.1998 16.0879 40.2176 15.9835 40.2176C15.9135 40.2176 15.8485 40.2115 15.7883 40.1992C15.7282 40.1869 15.6775 40.1685 15.6364 40.144V39.9985C15.6812 40.0255 15.7355 40.047 15.7994 40.063C15.8632 40.0789 15.9252 40.0869 15.9854 40.0869C16.0535 40.0869 16.113 40.0762 16.164 40.0547C16.2155 40.0326 16.2554 39.9994 16.2837 39.9552C16.3125 39.9104 16.3269 39.8543 16.3269 39.7868C16.3269 39.6971 16.2993 39.6281 16.2441 39.5796C16.1894 39.5305 16.1029 39.506 15.9844 39.506C15.9464 39.506 15.9046 39.509 15.8592 39.5152C15.8138 39.5213 15.7764 39.5281 15.7469 39.5354L15.6696 39.4848L15.7211 38.8532H16.3904V38.9931H15.8519L15.8178 39.3992C15.8411 39.3943 15.8712 39.3893 15.908 39.3844C15.9448 39.3789 15.9866 39.3761 16.0332 39.3761ZM17.5763 39.5244C17.5763 39.6336 17.568 39.7312 17.5514 39.8171C17.5348 39.9031 17.5087 39.9758 17.4731 40.0353C17.4376 40.0949 17.3915 40.1403 17.335 40.1716C17.2786 40.2023 17.2108 40.2176 17.1316 40.2176C17.0315 40.2176 16.9487 40.1903 16.883 40.1357C16.8179 40.0811 16.7691 40.0022 16.7366 39.8991C16.7047 39.7954 16.6887 39.6705 16.6887 39.5244C16.6887 39.3807 16.7032 39.2574 16.732 39.1543C16.7615 39.0505 16.8087 38.9711 16.8738 38.9158C16.9389 38.86 17.0248 38.832 17.1316 38.832C17.2329 38.832 17.3163 38.8597 17.382 38.9149C17.4477 38.9695 17.4965 39.0487 17.5284 39.1524C17.5603 39.2555 17.5763 39.3795 17.5763 39.5244ZM16.8425 39.5244C16.8425 39.6496 16.852 39.7539 16.871 39.8374C16.8901 39.9209 16.9208 39.9835 16.9631 40.0252C17.0061 40.0663 17.0622 40.0869 17.1316 40.0869C17.2009 40.0869 17.2568 40.0663 17.2991 40.0252C17.3421 39.9841 17.3731 39.9218 17.3921 39.8383C17.4118 39.7548 17.4216 39.6502 17.4216 39.5244C17.4216 39.401 17.4121 39.2979 17.3931 39.215C17.374 39.1316 17.3433 39.0689 17.301 39.0272C17.2586 38.9849 17.2022 38.9637 17.1316 38.9637C17.061 38.9637 17.0045 38.9849 16.9622 39.0272C16.9198 39.0689 16.8891 39.1316 16.8701 39.215C16.8517 39.2979 16.8425 39.401 16.8425 39.5244ZM18.6553 39.5244C18.6553 39.6336 18.647 39.7312 18.6304 39.8171C18.6139 39.9031 18.5878 39.9758 18.5522 40.0353C18.5166 40.0949 18.4705 40.1403 18.4141 40.1716C18.3576 40.2023 18.2898 40.2176 18.2106 40.2176C18.1106 40.2176 18.0277 40.1903 17.962 40.1357C17.897 40.0811 17.8482 40.0022 17.8156 39.8991C17.7837 39.7954 17.7678 39.6705 17.7678 39.5244C17.7678 39.3807 17.7822 39.2574 17.811 39.1543C17.8405 39.0505 17.8878 38.9711 17.9528 38.9158C18.0179 38.86 18.1038 38.832 18.2106 38.832C18.3119 38.832 18.3953 38.8597 18.461 38.9149C18.5267 38.9695 18.5755 39.0487 18.6074 39.1524C18.6393 39.2555 18.6553 39.3795 18.6553 39.5244ZM17.9215 39.5244C17.9215 39.6496 17.931 39.7539 17.9501 39.8374C17.9691 39.9209 17.9998 39.9835 18.0421 40.0252C18.0851 40.0663 18.1412 40.0869 18.2106 40.0869C18.28 40.0869 18.3358 40.0663 18.3782 40.0252C18.4211 39.9841 18.4521 39.9218 18.4712 39.8383C18.4908 39.7548 18.5006 39.6502 18.5006 39.5244C18.5006 39.401 18.4911 39.2979 18.4721 39.215C18.453 39.1316 18.4224 39.0689 18.38 39.0272C18.3377 38.9849 18.2812 38.9637 18.2106 38.9637C18.14 38.9637 18.0836 38.9849 18.0412 39.0272C17.9988 39.0689 17.9682 39.1316 17.9491 39.215C17.9307 39.2979 17.9215 39.401 17.9215 39.5244Z" fill="#212121"/>
<path d="M15.0978 47.4414H14.9487V46.4876C14.9487 46.4514 14.9487 46.4204 14.9487 46.3946C14.9493 46.3682 14.9499 46.3443 14.9505 46.3228C14.9518 46.3007 14.9533 46.2783 14.9551 46.2556C14.9361 46.2752 14.9183 46.2921 14.9017 46.3062C14.8852 46.3197 14.8646 46.3366 14.84 46.3569L14.6863 46.4802L14.6062 46.3762L14.9708 46.0954H15.0978V47.4414ZM16.4972 46.7666C16.4972 46.8758 16.489 46.9734 16.4724 47.0593C16.4558 47.1453 16.4297 47.218 16.3941 47.2775C16.3585 47.3371 16.3125 47.3825 16.256 47.4138C16.1996 47.4445 16.1317 47.4598 16.0526 47.4598C15.9525 47.4598 15.8697 47.4325 15.804 47.3779C15.7389 47.3233 15.6901 47.2444 15.6576 47.1413C15.6257 47.0375 15.6097 46.9126 15.6097 46.7666C15.6097 46.6229 15.6241 46.4996 15.653 46.3965C15.6825 46.2927 15.7297 46.2132 15.7948 46.158C15.8598 46.1021 15.9458 46.0742 16.0526 46.0742C16.1538 46.0742 16.2373 46.1018 16.303 46.1571C16.3687 46.2117 16.4175 46.2909 16.4494 46.3946C16.4813 46.4977 16.4972 46.6217 16.4972 46.7666ZM15.7635 46.7666C15.7635 46.8918 15.773 46.9961 15.792 47.0796C15.811 47.1631 15.8417 47.2257 15.8841 47.2674C15.927 47.3085 15.9832 47.3291 16.0526 47.3291C16.1219 47.3291 16.1778 47.3085 16.2201 47.2674C16.2631 47.2263 16.2941 47.164 16.3131 47.0805C16.3328 46.997 16.3426 46.8924 16.3426 46.7666C16.3426 46.6432 16.3331 46.5401 16.314 46.4572C16.295 46.3737 16.2643 46.3111 16.222 46.2694C16.1796 46.227 16.1231 46.2059 16.0526 46.2059C15.982 46.2059 15.9255 46.227 15.8832 46.2694C15.8408 46.3111 15.8101 46.3737 15.7911 46.4572C15.7727 46.5401 15.7635 46.6432 15.7635 46.7666ZM17.5763 46.7666C17.5763 46.8758 17.568 46.9734 17.5514 47.0593C17.5348 47.1453 17.5087 47.218 17.4731 47.2775C17.4376 47.3371 17.3915 47.3825 17.335 47.4138C17.2786 47.4445 17.2108 47.4598 17.1316 47.4598C17.0315 47.4598 16.9487 47.4325 16.883 47.3779C16.8179 47.3233 16.7691 47.2444 16.7366 47.1413C16.7047 47.0375 16.6887 46.9126 16.6887 46.7666C16.6887 46.6229 16.7032 46.4996 16.732 46.3965C16.7615 46.2927 16.8087 46.2132 16.8738 46.158C16.9389 46.1021 17.0248 46.0742 17.1316 46.0742C17.2329 46.0742 17.3163 46.1018 17.382 46.1571C17.4477 46.2117 17.4965 46.2909 17.5284 46.3946C17.5603 46.4977 17.5763 46.6217 17.5763 46.7666ZM16.8425 46.7666C16.8425 46.8918 16.852 46.9961 16.871 47.0796C16.8901 47.1631 16.9208 47.2257 16.9631 47.2674C17.0061 47.3085 17.0622 47.3291 17.1316 47.3291C17.2009 47.3291 17.2568 47.3085 17.2991 47.2674C17.3421 47.2263 17.3731 47.164 17.3921 47.0805C17.4118 46.997 17.4216 46.8924 17.4216 46.7666C17.4216 46.6432 17.4121 46.5401 17.3931 46.4572C17.374 46.3737 17.3433 46.3111 17.301 46.2694C17.2586 46.227 17.2022 46.2059 17.1316 46.2059C17.061 46.2059 17.0045 46.227 16.9622 46.2694C16.9198 46.3111 16.8891 46.3737 16.8701 46.4572C16.8517 46.5401 16.8425 46.6432 16.8425 46.7666ZM18.6553 46.7666C18.6553 46.8758 18.647 46.9734 18.6304 47.0593C18.6139 47.1453 18.5878 47.218 18.5522 47.2775C18.5166 47.3371 18.4705 47.3825 18.4141 47.4138C18.3576 47.4445 18.2898 47.4598 18.2106 47.4598C18.1106 47.4598 18.0277 47.4325 17.962 47.3779C17.897 47.3233 17.8482 47.2444 17.8156 47.1413C17.7837 47.0375 17.7678 46.9126 17.7678 46.7666C17.7678 46.6229 17.7822 46.4996 17.811 46.3965C17.8405 46.2927 17.8878 46.2132 17.9528 46.158C18.0179 46.1021 18.1038 46.0742 18.2106 46.0742C18.3119 46.0742 18.3953 46.1018 18.461 46.1571C18.5267 46.2117 18.5755 46.2909 18.6074 46.3946C18.6393 46.4977 18.6553 46.6217 18.6553 46.7666ZM17.9215 46.7666C17.9215 46.8918 17.931 46.9961 17.9501 47.0796C17.9691 47.1631 17.9998 47.2257 18.0421 47.2674C18.0851 47.3085 18.1412 47.3291 18.2106 47.3291C18.28 47.3291 18.3358 47.3085 18.3782 47.2674C18.4211 47.2263 18.4521 47.164 18.4712 47.0805C18.4908 46.997 18.5006 46.8924 18.5006 46.7666C18.5006 46.6432 18.4911 46.5401 18.4721 46.4572C18.453 46.3737 18.4224 46.3111 18.38 46.2694C18.3377 46.227 18.2812 46.2059 18.2106 46.2059C18.14 46.2059 18.0836 46.227 18.0412 46.2694C17.9988 46.3111 17.9682 46.3737 17.9491 46.4572C17.9307 46.5401 17.9215 46.6432 17.9215 46.7666Z" fill="#212121"/>
<path d="M14.8787 53.8605C14.9702 53.8605 15.0497 53.8762 15.1172 53.9075C15.1847 53.9382 15.2369 53.983 15.2737 54.0419C15.3111 54.1008 15.3298 54.1723 15.3298 54.2564C15.3298 54.3485 15.3099 54.428 15.27 54.4949C15.2301 54.5611 15.1727 54.6124 15.0978 54.6486C15.023 54.6842 14.9333 54.702 14.829 54.702C14.759 54.702 14.694 54.6959 14.6338 54.6836C14.5737 54.6713 14.523 54.6529 14.4819 54.6284V54.4829C14.5267 54.5099 14.581 54.5314 14.6449 54.5473C14.7087 54.5633 14.7707 54.5713 14.8308 54.5713C14.899 54.5713 14.9585 54.5605 15.0094 54.539C15.061 54.517 15.1009 54.4838 15.1291 54.4396C15.158 54.3948 15.1724 54.3387 15.1724 54.2711C15.1724 54.1815 15.1448 54.1125 15.0895 54.064C15.0349 54.0149 14.9484 53.9903 14.8299 53.9903C14.7919 53.9903 14.7501 53.9934 14.7047 53.9995C14.6593 54.0057 14.6218 54.0124 14.5924 54.0198L14.5151 53.9692L14.5666 53.3376H15.2359V53.4775H14.6973L14.6633 53.8835C14.6866 53.8786 14.7167 53.8737 14.7535 53.8688C14.7903 53.8633 14.8321 53.8605 14.8787 53.8605ZM16.4218 54.0087C16.4218 54.118 16.4135 54.2156 16.3969 54.3015C16.3803 54.3874 16.3542 54.4602 16.3186 54.5197C16.283 54.5793 16.237 54.6247 16.1805 54.656C16.1241 54.6867 16.0562 54.702 15.9771 54.702C15.877 54.702 15.7942 54.6747 15.7285 54.6201C15.6634 54.5654 15.6146 54.4866 15.5821 54.3835C15.5502 54.2797 15.5342 54.1548 15.5342 54.0087C15.5342 53.8651 15.5487 53.7418 15.5775 53.6386C15.607 53.5349 15.6542 53.4554 15.7193 53.4002C15.7843 53.3443 15.8703 53.3164 15.9771 53.3164C16.0783 53.3164 16.1618 53.344 16.2275 53.3993C16.2932 53.4539 16.342 53.5331 16.3739 53.6368C16.4058 53.7399 16.4218 53.8639 16.4218 54.0087ZM15.688 54.0087C15.688 54.134 15.6975 54.2383 15.7165 54.3218C15.7355 54.4052 15.7662 54.4679 15.8086 54.5096C15.8516 54.5507 15.9077 54.5713 15.9771 54.5713C16.0464 54.5713 16.1023 54.5507 16.1446 54.5096C16.1876 54.4685 16.2186 54.4062 16.2376 54.3227C16.2573 54.2392 16.2671 54.1346 16.2671 54.0087C16.2671 53.8854 16.2576 53.7823 16.2385 53.6994C16.2195 53.6159 16.1888 53.5533 16.1465 53.5116C16.1041 53.4692 16.0477 53.4481 15.9771 53.4481C15.9065 53.4481 15.85 53.4692 15.8077 53.5116C15.7653 53.5533 15.7346 53.6159 15.7156 53.6994C15.6972 53.7823 15.688 53.8854 15.688 54.0087ZM17.5008 54.0087C17.5008 54.118 17.4925 54.2156 17.4759 54.3015C17.4593 54.3874 17.4333 54.4602 17.3977 54.5197C17.3621 54.5793 17.316 54.6247 17.2596 54.656C17.2031 54.6867 17.1353 54.702 17.0561 54.702C16.956 54.702 16.8732 54.6747 16.8075 54.6201C16.7424 54.5654 16.6937 54.4866 16.6611 54.3835C16.6292 54.2797 16.6132 54.1548 16.6132 54.0087C16.6132 53.8651 16.6277 53.7418 16.6565 53.6386C16.686 53.5349 16.7332 53.4554 16.7983 53.4002C16.8634 53.3443 16.9493 53.3164 17.0561 53.3164C17.1574 53.3164 17.2408 53.344 17.3065 53.3993C17.3722 53.4539 17.421 53.5331 17.4529 53.6368C17.4848 53.7399 17.5008 53.8639 17.5008 54.0087ZM16.767 54.0087C16.767 54.134 16.7765 54.2383 16.7955 54.3218C16.8146 54.4052 16.8453 54.4679 16.8876 54.5096C16.9306 54.5507 16.9867 54.5713 17.0561 54.5713C17.1254 54.5713 17.1813 54.5507 17.2236 54.5096C17.2666 54.4685 17.2976 54.4062 17.3166 54.3227C17.3363 54.2392 17.3461 54.1346 17.3461 54.0087C17.3461 53.8854 17.3366 53.7823 17.3176 53.6994C17.2985 53.6159 17.2678 53.5533 17.2255 53.5116C17.1831 53.4692 17.1267 53.4481 17.0561 53.4481C16.9855 53.4481 16.929 53.4692 16.8867 53.5116C16.8443 53.5533 16.8136 53.6159 16.7946 53.6994C16.7762 53.7823 16.767 53.8854 16.767 54.0087ZM18.752 54.6836H18.5669L18.0817 54.029L17.9381 54.1579V54.6836H17.7816V53.3376H17.9381V54.0087C17.9731 53.9689 18.009 53.9293 18.0458 53.89C18.0826 53.8501 18.1191 53.8099 18.1554 53.7694L18.5485 53.3376H18.7317L18.1959 53.9213L18.752 54.6836Z" fill="#212121"/>
<path d="M15.0223 61.9258H14.8732V60.972C14.8732 60.9358 14.8732 60.9048 14.8732 60.879C14.8738 60.8526 14.8744 60.8287 14.875 60.8072C14.8763 60.7851 14.8778 60.7627 14.8796 60.74C14.8606 60.7596 14.8428 60.7765 14.8262 60.7906C14.8097 60.8041 14.7891 60.821 14.7646 60.8412L14.6108 60.9646L14.5307 60.8606L14.8953 60.5798H15.0223V61.9258ZM16.4218 61.2509C16.4218 61.3602 16.4135 61.4578 16.3969 61.5437C16.3803 61.6296 16.3542 61.7024 16.3186 61.7619C16.283 61.8214 16.237 61.8669 16.1805 61.8982C16.1241 61.9289 16.0562 61.9442 15.9771 61.9442C15.877 61.9442 15.7942 61.9169 15.7285 61.8623C15.6634 61.8076 15.6146 61.7288 15.5821 61.6256C15.5502 61.5219 15.5342 61.397 15.5342 61.2509C15.5342 61.1073 15.5487 60.9839 15.5775 60.8808C15.607 60.7771 15.6542 60.6976 15.7193 60.6424C15.7843 60.5865 15.8703 60.5586 15.9771 60.5586C16.0783 60.5586 16.1618 60.5862 16.2275 60.6415C16.2932 60.6961 16.342 60.7753 16.3739 60.879C16.4058 60.9821 16.4218 61.1061 16.4218 61.2509ZM15.688 61.2509C15.688 61.3761 15.6975 61.4805 15.7165 61.564C15.7355 61.6474 15.7662 61.71 15.8086 61.7518C15.8516 61.7929 15.9077 61.8135 15.9771 61.8135C16.0464 61.8135 16.1023 61.7929 16.1446 61.7518C16.1876 61.7107 16.2186 61.6484 16.2376 61.5649C16.2573 61.4814 16.2671 61.3768 16.2671 61.2509C16.2671 61.1276 16.2576 61.0245 16.2385 60.9416C16.2195 60.8581 16.1888 60.7955 16.1465 60.7538C16.1041 60.7114 16.0477 60.6902 15.9771 60.6902C15.9065 60.6902 15.85 60.7114 15.8077 60.7538C15.7653 60.7955 15.7346 60.8581 15.7156 60.9416C15.6972 61.0245 15.688 61.1276 15.688 61.2509ZM17.5008 61.2509C17.5008 61.3602 17.4925 61.4578 17.4759 61.5437C17.4593 61.6296 17.4333 61.7024 17.3977 61.7619C17.3621 61.8214 17.316 61.8669 17.2596 61.8982C17.2031 61.9289 17.1353 61.9442 17.0561 61.9442C16.956 61.9442 16.8732 61.9169 16.8075 61.8623C16.7424 61.8076 16.6937 61.7288 16.6611 61.6256C16.6292 61.5219 16.6132 61.397 16.6132 61.2509C16.6132 61.1073 16.6277 60.9839 16.6565 60.8808C16.686 60.7771 16.7332 60.6976 16.7983 60.6424C16.8634 60.5865 16.9493 60.5586 17.0561 60.5586C17.1574 60.5586 17.2408 60.5862 17.3065 60.6415C17.3722 60.6961 17.421 60.7753 17.4529 60.879C17.4848 60.9821 17.5008 61.1061 17.5008 61.2509ZM16.767 61.2509C16.767 61.3761 16.7765 61.4805 16.7955 61.564C16.8146 61.6474 16.8453 61.71 16.8876 61.7518C16.9306 61.7929 16.9867 61.8135 17.0561 61.8135C17.1254 61.8135 17.1813 61.7929 17.2236 61.7518C17.2666 61.7107 17.2976 61.6484 17.3166 61.5649C17.3363 61.4814 17.3461 61.3768 17.3461 61.2509C17.3461 61.1276 17.3366 61.0245 17.3176 60.9416C17.2985 60.8581 17.2678 60.7955 17.2255 60.7538C17.1831 60.7114 17.1267 60.6902 17.0561 60.6902C16.9855 60.6902 16.929 60.7114 16.8867 60.7538C16.8443 60.7955 16.8136 60.8581 16.7946 60.9416C16.7762 61.0245 16.767 61.1276 16.767 61.2509ZM18.752 61.9258H18.5669L18.0817 61.2712L17.9381 61.4001V61.9258H17.7816V60.5798H17.9381V61.2509C17.9731 61.211 18.009 61.1714 18.0458 61.1322C18.0826 61.0923 18.1191 61.0521 18.1554 61.0116L18.5485 60.5798H18.7317L18.1959 61.1635L18.752 61.9258Z" fill="#212121"/>
<path d="M18.6551 68.4931C18.6551 68.6024 18.6469 68.7 18.6303 68.7859C18.6137 68.8718 18.5876 68.9446 18.552 69.0041C18.5164 69.0636 18.4704 69.109 18.4139 69.1403C18.3575 69.171 18.2896 69.1864 18.2105 69.1864C18.1104 69.1864 18.0276 69.1591 17.9619 69.1044C17.8968 69.0498 17.848 68.9709 17.8155 68.8678C17.7836 68.7641 17.7676 68.6392 17.7676 68.4931C17.7676 68.3495 17.782 68.2261 17.8109 68.123C17.8404 68.0193 17.8876 67.9398 17.9527 67.8846C18.0177 67.8287 18.1037 67.8008 18.2105 67.8008C18.3117 67.8008 18.3952 67.8284 18.4609 67.8836C18.5266 67.9383 18.5754 68.0174 18.6073 68.1212C18.6392 68.2243 18.6551 68.3483 18.6551 68.4931ZM17.9214 68.4931C17.9214 68.6183 17.9309 68.7227 17.9499 68.8061C17.9689 68.8896 17.9996 68.9522 18.042 68.994C18.0849 69.0351 18.1411 69.0556 18.2105 69.0556C18.2798 69.0556 18.3357 69.0351 18.378 68.994C18.421 68.9528 18.452 68.8905 18.471 68.8071C18.4906 68.7236 18.5005 68.6189 18.5005 68.4931C18.5005 68.3698 18.491 68.2666 18.4719 68.1838C18.4529 68.1003 18.4222 68.0377 18.3799 67.996C18.3375 67.9536 18.281 67.9324 18.2105 67.9324C18.1399 67.9324 18.0834 67.9536 18.0411 67.996C17.9987 68.0377 17.968 68.1003 17.949 68.1838C17.9306 68.2666 17.9214 68.3698 17.9214 68.4931Z" fill="#212121"/>
<path d="M29.7597 71.6797H29.6105V70.7259C29.6105 70.6897 29.6105 70.6587 29.6105 70.6329C29.6112 70.6065 29.6118 70.5826 29.6124 70.5611C29.6136 70.539 29.6152 70.5166 29.617 70.4939C29.598 70.5135 29.5802 70.5304 29.5636 70.5445C29.547 70.558 29.5265 70.5749 29.5019 70.5951L29.3482 70.7185L29.2681 70.6145L29.6326 70.3337H29.7597V71.6797Z" fill="#212121"/>
<path d="M22.3047 71.0048C22.3047 71.1141 22.2964 71.2117 22.2798 71.2976C22.2633 71.3835 22.2372 71.4563 22.2016 71.5158C22.166 71.5753 22.12 71.6208 22.0635 71.6521C22.007 71.6828 21.9392 71.6981 21.86 71.6981C21.76 71.6981 21.6771 71.6708 21.6114 71.6162C21.5464 71.5615 21.4976 71.4827 21.4651 71.3796C21.4331 71.2758 21.4172 71.1509 21.4172 71.0048C21.4172 70.8612 21.4316 70.7378 21.4604 70.6347C21.4899 70.531 21.5372 70.4515 21.6022 70.3963C21.6673 70.3404 21.7532 70.3125 21.86 70.3125C21.9613 70.3125 22.0448 70.3401 22.1104 70.3954C22.1761 70.45 22.2249 70.5292 22.2568 70.6329C22.2887 70.736 22.3047 70.86 22.3047 71.0048ZM21.5709 71.0048C21.5709 71.1301 21.5804 71.2344 21.5995 71.3179C21.6185 71.4013 21.6492 71.4639 21.6915 71.5057C21.7345 71.5468 21.7907 71.5674 21.86 71.5674C21.9294 71.5674 21.9852 71.5468 22.0276 71.5057C22.0705 71.4646 22.1015 71.4023 22.1206 71.3188C22.1402 71.2353 22.15 71.1307 22.15 71.0048C22.15 70.8815 22.1405 70.7784 22.1215 70.6955C22.1025 70.612 22.0718 70.5494 22.0294 70.5077C21.9871 70.4653 21.9306 70.4442 21.86 70.4442C21.7894 70.4442 21.733 70.4653 21.6906 70.5077C21.6483 70.5494 21.6176 70.612 21.5985 70.6955C21.5801 70.7784 21.5709 70.8815 21.5709 71.0048Z" fill="#212121"/>
<path d="M37.853 71.6797H36.971V71.5517L37.331 71.1862C37.3979 71.1187 37.454 71.0585 37.4995 71.0058C37.5455 70.953 37.5805 70.9011 37.6044 70.8502C37.6284 70.7986 37.6403 70.7421 37.6403 70.6808C37.6403 70.6047 37.6176 70.5467 37.5722 70.5068C37.5274 70.4663 37.4682 70.446 37.3945 70.446C37.3301 70.446 37.273 70.457 37.2233 70.4791C37.1735 70.5012 37.1226 70.5325 37.0704 70.573L36.9885 70.4699C37.0241 70.4399 37.0628 70.4132 37.1045 70.3898C37.1468 70.3665 37.192 70.3481 37.2398 70.3346C37.2883 70.3211 37.3399 70.3143 37.3945 70.3143C37.4774 70.3143 37.5489 70.3288 37.609 70.3576C37.6692 70.3865 37.7155 70.4276 37.748 70.481C37.7812 70.5344 37.7978 70.5979 37.7978 70.6716C37.7978 70.7428 37.7836 70.809 37.7554 70.8704C37.7272 70.9312 37.6876 70.9916 37.6366 71.0518C37.5857 71.1113 37.5262 71.1745 37.458 71.2415L37.1653 71.5333V71.5397H37.853V71.6797Z" fill="#212121"/>
<path d="M45.816 70.6476C45.816 70.7078 45.8043 70.7599 45.781 70.8041C45.7577 70.8483 45.7251 70.8845 45.6834 70.9128C45.6417 70.9404 45.5926 70.9597 45.5361 70.9708V70.9781C45.6429 70.9916 45.723 71.026 45.7764 71.0813C45.8304 71.1365 45.8574 71.2089 45.8574 71.2985C45.8574 71.3765 45.839 71.4455 45.8022 71.5057C45.766 71.5658 45.7101 71.6131 45.6346 71.6475C45.5597 71.6812 45.4637 71.6981 45.3464 71.6981C45.2752 71.6981 45.2093 71.6923 45.1485 71.6806C45.0883 71.6696 45.0306 71.6508 44.9754 71.6244V71.4808C45.0313 71.5084 45.092 71.5302 45.1577 71.5462C45.2234 71.5615 45.2869 71.5692 45.3483 71.5692C45.471 71.5692 45.5597 71.545 45.6143 71.4965C45.669 71.4474 45.6963 71.3805 45.6963 71.2958C45.6963 71.2375 45.6809 71.1905 45.6503 71.1549C45.6202 71.1187 45.5766 71.0923 45.5195 71.0757C45.4631 71.0585 45.3949 71.05 45.3151 71.05H45.1807V70.9192H45.3161C45.3891 70.9192 45.4511 70.9085 45.502 70.887C45.553 70.8655 45.5916 70.8354 45.618 70.7968C45.645 70.7575 45.6585 70.7111 45.6585 70.6577C45.6585 70.5896 45.6358 70.5371 45.5904 70.5003C45.545 70.4629 45.4833 70.4442 45.4054 70.4442C45.3575 70.4442 45.3139 70.4491 45.2746 70.4589C45.2353 70.4687 45.1985 70.4822 45.1641 70.4994C45.1298 70.5166 45.0954 70.5365 45.061 70.5592L44.9837 70.4543C45.0328 70.4162 45.0926 70.3834 45.1632 70.3558C45.2338 70.3282 45.3139 70.3143 45.4035 70.3143C45.541 70.3143 45.6441 70.3456 45.7129 70.4082C45.7816 70.4709 45.816 70.5506 45.816 70.6476Z" fill="#212121"/>
<path d="M53.7132 71.3676H53.5115V71.6797H53.3624V71.3676H52.7115V71.2387L53.3523 70.3263H53.5115V71.2295H53.7132V71.3676ZM53.3624 71.2295V70.7894C53.3624 70.7556 53.3627 70.7253 53.3633 70.6983C53.3639 70.6706 53.3649 70.6452 53.3661 70.6218C53.3673 70.5979 53.3682 70.5752 53.3688 70.5537C53.3701 70.5322 53.371 70.5111 53.3716 70.4902H53.3642C53.3526 70.5147 53.3391 70.5408 53.3237 70.5684C53.309 70.5955 53.294 70.6197 53.2786 70.6412L52.8634 71.2295H53.3624Z" fill="#212121"/>
<path d="M60.9647 70.8566C61.0562 70.8566 61.1356 70.8723 61.2032 70.9036C61.2707 70.9343 61.3228 70.9791 61.3597 71.038C61.3971 71.0969 61.4158 71.1684 61.4158 71.2525C61.4158 71.3446 61.3959 71.424 61.356 71.491C61.3161 71.5572 61.2587 71.6085 61.1838 71.6447C61.1089 71.6803 61.0193 71.6981 60.915 71.6981C60.845 71.6981 60.78 71.692 60.7198 71.6797C60.6597 71.6674 60.609 71.649 60.5679 71.6244V71.479C60.6127 71.506 60.667 71.5275 60.7309 71.5434C60.7947 71.5594 60.8567 71.5674 60.9168 71.5674C60.985 71.5674 61.0445 71.5566 61.0954 71.5351C61.147 71.513 61.1869 71.4799 61.2151 71.4357C61.244 71.3909 61.2584 71.3347 61.2584 71.2672C61.2584 71.1776 61.2308 71.1086 61.1755 71.0601C61.1209 71.011 61.0344 70.9864 60.9159 70.9864C60.8779 70.9864 60.8361 70.9895 60.7907 70.9956C60.7453 71.0018 60.7078 71.0085 60.6784 71.0159L60.601 70.9653L60.6526 70.3337H61.3219V70.4736H60.7833L60.7493 70.8796C60.7726 70.8747 60.8027 70.8698 60.8395 70.8649C60.8763 70.8594 60.9181 70.8566 60.9647 70.8566Z" fill="#212121"/>
<path d="M68.3334 71.1043C68.3334 71.0233 68.339 70.9441 68.35 70.8667C68.3617 70.7894 68.381 70.7176 68.408 70.6513C68.435 70.5844 68.4718 70.5258 68.5185 70.4755C68.5651 70.4251 68.6231 70.3858 68.6925 70.3576C68.7625 70.3288 68.8463 70.3143 68.9438 70.3143C68.9715 70.3143 69.0012 70.3159 69.0331 70.3189C69.0651 70.3214 69.0915 70.3257 69.1123 70.3318V70.4635C69.0896 70.4555 69.0635 70.4497 69.0341 70.446C69.0052 70.4423 68.9761 70.4405 68.9466 70.4405C68.8324 70.4405 68.7425 70.4653 68.6768 70.515C68.6118 70.5648 68.5648 70.6323 68.536 70.7176C68.5071 70.8023 68.4906 70.8977 68.4863 71.0039H68.4964C68.5154 70.9732 68.5397 70.9456 68.5691 70.9211C68.5986 70.8959 68.6342 70.8759 68.6759 70.8612C68.7183 70.8465 68.7674 70.8391 68.8232 70.8391C68.9018 70.8391 68.9702 70.8551 69.0285 70.887C69.0875 70.9189 69.1329 70.9653 69.1648 71.026C69.1973 71.0868 69.2136 71.1604 69.2136 71.247C69.2136 71.3397 69.1964 71.4198 69.162 71.4873C69.1277 71.5548 69.0786 71.607 69.0147 71.6438C68.9515 71.68 68.876 71.6981 68.7883 71.6981C68.7226 71.6981 68.6621 71.6855 68.6069 71.6604C68.5516 71.6352 68.5035 71.5977 68.4623 71.548C68.4218 71.4983 68.3902 71.4366 68.3675 71.363C68.3448 71.2887 68.3334 71.2025 68.3334 71.1043ZM68.7864 71.5692C68.8699 71.5692 68.9368 71.5425 68.9871 71.4891C69.0374 71.4357 69.0626 71.355 69.0626 71.247C69.0626 71.1586 69.0402 71.0886 68.9954 71.0371C68.9506 70.9855 68.8831 70.9597 68.7929 70.9597C68.7315 70.9597 68.6781 70.9726 68.6327 70.9984C68.5872 71.0236 68.5519 71.0555 68.5268 71.0941C68.5016 71.1328 68.489 71.1721 68.489 71.212C68.489 71.2525 68.4949 71.2936 68.5065 71.3354C68.5188 71.3771 68.5372 71.4158 68.5618 71.4514C68.5863 71.487 68.6173 71.5155 68.6548 71.537C68.6922 71.5585 68.7361 71.5692 68.7864 71.5692Z" fill="#212121"/>
<path d="M76.0317 71.6797L76.5841 70.4736H75.8504V70.3337H76.748V70.4515L76.1993 71.6797H76.0317Z" fill="#212121"/>
<path d="M20.9915 69.2031C20.9915 69.2681 21.0443 69.3209 21.1094 69.3209C21.1745 69.3209 21.2272 69.2681 21.2272 69.2031H20.9915ZM21.1094 23.7148H20.9915V69.2031H21.1094H21.2272V23.7148H21.1094Z" fill="#D4D4D4"/>
<path d="M21.1094 69.207H77.4393" stroke="#D4D4D4" stroke-width="0.23569"/>
<rect x="27" y="44.457" width="1.88552" height="24.7475" rx="0.942761" fill="#FF9500"/>
<rect x="29.3555" y="58.3594" width="1.88552" height="10.8418" rx="0.942761" fill="#3CBD00"/>
<rect x="34.7783" y="28.6641" width="1.88552" height="40.5387" rx="0.942761" fill="#FF9500"/>
<rect x="37.1338" y="38.5625" width="1.88552" height="30.6397" rx="0.942761" fill="#3CBD00"/>
<rect x="42.5527" y="44.457" width="1.88552" height="24.7475" rx="0.942761" fill="#FF9500"/>
<rect x="44.9082" y="58.3594" width="1.88552" height="10.8418" rx="0.942761" fill="#3CBD00"/>
<rect x="50.335" y="35.4961" width="1.88552" height="33.7037" rx="0.942761" fill="#FF9500"/>
<rect x="52.6904" y="46.8086" width="1.88552" height="22.3906" rx="0.942761" fill="#3CBD00"/>
<rect x="58.1104" y="44.457" width="1.88552" height="24.7475" rx="0.942761" fill="#FF9500"/>
<rect x="60.4658" y="58.3594" width="1.88552" height="10.8418" rx="0.942761" fill="#3CBD00"/>
<rect x="65.8906" y="59.3086" width="1.88552" height="9.89899" rx="0.942761" fill="#FF9500"/>
<rect x="68.2461" y="64.7266" width="1.88552" height="4.47811" rx="0.942761" fill="#3CBD00"/>
<rect x="73.666" y="41.6328" width="1.88552" height="27.5758" rx="0.942761" fill="#FF9500"/>
<rect x="76.0215" y="49.6484" width="1.88552" height="19.5623" rx="0.942761" fill="#3CBD00"/>
<g filter="url(#filter0_d_7813_52779)">
<path d="M37.123 24.6738C37.6573 24.7284 38.0748 25.18 38.0752 25.7285V26.2002C38.0752 26.7857 37.6001 27.2603 37.0146 27.2607H36.0273L35.5996 27.6885L35.1719 27.2607H34.1855C33.6 27.2605 33.125 26.7858 33.125 26.2002V25.7285C33.1254 25.1432 33.6002 24.6682 34.1855 24.668H37.0146L37.123 24.6738Z" fill="white"/>
</g>
<g filter="url(#filter1_d_7813_52779)">
<path d="M39.4883 35.5059C40.0226 35.5605 40.4402 36.0118 40.4404 36.5605V37.0322C40.4404 37.6177 39.9653 38.0924 39.3799 38.0928H38.3926L37.9648 38.5195L37.5371 38.0928H36.5508C35.9652 38.0926 35.4902 37.6179 35.4902 37.0322V36.5605C35.4905 35.9751 35.9653 35.5002 36.5508 35.5H39.3799L39.4883 35.5059Z" fill="white"/>
</g>
<g filter="url(#filter2_d_7813_52779)">
<path d="M29.585 41.4082C30.1193 41.4627 30.5367 41.9143 30.5371 42.4629V42.9346C30.5371 43.5201 30.062 43.9948 29.4766 43.9951H28.4893L28.0615 44.4229L27.6338 43.9951H26.6475C26.0619 43.9949 25.5869 43.5202 25.5869 42.9346V42.4629C25.5874 41.8776 26.0622 41.4025 26.6475 41.4023H29.4766L29.585 41.4082Z" fill="white"/>
</g>
<g filter="url(#filter3_d_7813_52779)">
<path d="M31.7041 55.3145C32.2386 55.3689 32.6561 55.8203 32.6562 56.3691V56.8408C32.6561 57.4263 32.1812 57.9011 31.5957 57.9014H30.6123L30.1855 58.3281L29.7598 57.9014H28.7666C28.1812 57.9011 27.7062 57.4263 27.7061 56.8408V56.3691C27.7063 55.7837 28.1812 55.3089 28.7666 55.3086H31.5957L31.7041 55.3145Z" fill="white"/>
</g>
<g filter="url(#filter4_d_7813_52779)">
<path d="M45.1406 41.6426C45.6749 41.6972 46.0926 42.1486 46.0928 42.6973V43.1689C46.0927 43.7544 45.6176 44.2291 45.0322 44.2295H44.0439L43.6172 44.6562L43.1904 44.2295H42.2031C41.6176 44.2293 41.1427 43.7545 41.1426 43.1689V42.6973C41.1428 42.1118 41.6177 41.6369 42.2031 41.6367H45.0322L45.1406 41.6426Z" fill="white"/>
</g>
<g filter="url(#filter5_d_7813_52779)">
<path d="M47.4961 55.3145C48.0306 55.3689 48.4481 55.8203 48.4482 56.3691V56.8408C48.4481 57.4263 47.9732 57.9011 47.3877 57.9014H46.3994L45.9727 58.3281L45.5469 57.9014H44.5586C43.9731 57.9011 43.4982 57.4263 43.498 56.8408V56.3691C43.4983 55.7837 43.9732 55.3088 44.5586 55.3086H47.3877L47.4961 55.3145Z" fill="white"/>
</g>
<g filter="url(#filter6_d_7813_52779)">
<path d="M52.916 32.4395C53.4504 32.4941 53.868 32.9454 53.8682 33.4941V33.9658C53.8681 34.5513 53.393 35.0259 52.8076 35.0264H51.8193L51.3926 35.4531L50.9658 35.0264H49.9785C49.393 35.0262 48.918 34.5514 48.918 33.9658V33.4941C48.9182 32.9087 49.3931 32.4338 49.9785 32.4336H52.8076L52.916 32.4395Z" fill="white"/>
</g>
<g filter="url(#filter7_d_7813_52779)">
<path d="M55.2773 43.7559C55.8117 43.8104 56.2291 44.2619 56.2295 44.8105V45.2822C56.2295 45.8678 55.7544 46.3425 55.1689 46.3428H54.1816L53.7539 46.7695L53.3271 46.3428H52.3398C51.7543 46.3426 51.2793 45.8679 51.2793 45.2822V44.8105C51.2797 44.2253 51.7545 43.7502 52.3398 43.75H55.1689L55.2773 43.7559Z" fill="white"/>
</g>
<g filter="url(#filter8_d_7813_52779)">
<path d="M60.458 41.4082C60.9924 41.4627 61.4097 41.9143 61.4102 42.4629V42.9346C61.4102 43.5202 60.9352 43.9949 60.3496 43.9951H59.3623L58.9355 44.4229L58.5078 43.9951H57.5205C56.9351 43.9948 56.46 43.5201 56.46 42.9346V42.4629C56.4604 41.8777 56.9353 41.4027 57.5205 41.4023H60.3496L60.458 41.4082Z" fill="white"/>
</g>
<g filter="url(#filter9_d_7813_52779)">
<path d="M62.8193 55.3145C63.3538 55.3689 63.7713 55.8203 63.7715 56.3691V56.8408C63.7713 57.4263 63.2964 57.9011 62.7109 57.9014H61.7227L61.2969 58.3281L60.8701 57.9014H59.8818C59.2966 57.9009 58.8214 57.4262 58.8213 56.8408V56.3691C58.8215 55.7838 59.2966 55.3091 59.8818 55.3086H62.7109L62.8193 55.3145Z" fill="white"/>
</g>
<g filter="url(#filter10_d_7813_52779)">
<path d="M68.4697 56.252C69.0042 56.3064 69.4217 56.7578 69.4219 57.3066V57.7783C69.4218 58.3638 68.9468 58.8386 68.3613 58.8389H67.373L66.9473 59.2656L66.5205 58.8389H65.5322C64.9469 58.8384 64.4718 58.3637 64.4717 57.7783V57.3066C64.4719 56.7213 64.947 56.2465 65.5322 56.2461H68.3613L68.4697 56.252Z" fill="white"/>
</g>
<g filter="url(#filter11_d_7813_52779)">
<path d="M70.5977 61.6699C71.132 61.7244 71.5494 62.1759 71.5498 62.7246V63.1963C71.5498 63.7819 71.0748 64.2566 70.4893 64.2568H69.502L69.0752 64.6846L68.6475 64.2568H67.6602C67.0747 64.2565 66.5996 63.7818 66.5996 63.1963V62.7246C66.6 62.1394 67.075 61.6644 67.6602 61.6641H70.4893L70.5977 61.6699Z" fill="white"/>
</g>
<g filter="url(#filter12_d_7813_52779)">
<path d="M76.0146 38.5762C76.5492 38.6307 76.9666 39.082 76.9668 39.6309V40.1025C76.9666 40.688 76.4917 41.1628 75.9062 41.1631H74.918L74.4912 41.5898L74.0654 41.1631H73.0771C72.4917 41.1628 72.0168 40.688 72.0166 40.1025V39.6309C72.0168 39.0454 72.4917 38.5706 73.0771 38.5703H75.9062L76.0146 38.5762Z" fill="white"/>
</g>
<g filter="url(#filter13_d_7813_52779)">
<path d="M78.373 46.5957C78.9075 46.6502 79.325 47.1016 79.3252 47.6504V48.1221C79.325 48.7075 78.8501 49.1824 78.2646 49.1826H77.2764L76.8506 49.6094L76.4238 49.1826H75.4355C74.8502 49.1823 74.3752 48.7074 74.375 48.1221V47.6504C74.3752 47.065 74.8502 46.5902 75.4355 46.5898H78.2646L78.373 46.5957Z" fill="white"/>
</g>
<path d="M34.8976 26.7773H34.214V26.6551L34.4757 26.39C34.5264 26.3384 34.568 26.294 34.6007 26.2567C34.6334 26.219 34.6576 26.1833 34.6732 26.1497C34.6893 26.1161 34.6974 26.0795 34.6974 26.0399C34.6974 25.9911 34.6833 25.9543 34.6553 25.9294C34.6272 25.9041 34.5901 25.8914 34.5441 25.8914C34.5004 25.8914 34.4599 25.9002 34.4226 25.9177C34.3857 25.9347 34.3475 25.9591 34.3079 25.9909L34.2189 25.8838C34.2469 25.8599 34.2769 25.838 34.3086 25.8182C34.3409 25.7984 34.3768 25.7828 34.4164 25.7713C34.4559 25.7593 34.5011 25.7533 34.5517 25.7533C34.6157 25.7533 34.6709 25.7648 34.7174 25.7879C34.7639 25.8104 34.7996 25.8419 34.8244 25.8825C34.8498 25.923 34.8624 25.9702 34.8624 26.024C34.8624 26.0783 34.8516 26.1285 34.83 26.1745C34.8083 26.2206 34.7775 26.2661 34.7374 26.3113C34.6974 26.3559 34.6497 26.4045 34.5945 26.457L34.4198 26.6275V26.6351H34.8976V26.7773ZM35.7658 26.7773H35.0822V26.6551L35.3439 26.39C35.3946 26.3384 35.4362 26.294 35.4689 26.2567C35.5016 26.219 35.5258 26.1833 35.5414 26.1497C35.5575 26.1161 35.5656 26.0795 35.5656 26.0399C35.5656 25.9911 35.5515 25.9543 35.5235 25.9294C35.4954 25.9041 35.4583 25.8914 35.4123 25.8914C35.3685 25.8914 35.328 25.9002 35.2908 25.9177C35.2539 25.9347 35.2157 25.9591 35.1761 25.9909L35.0871 25.8838C35.1151 25.8599 35.1451 25.838 35.1768 25.8182C35.209 25.7984 35.2449 25.7828 35.2845 25.7713C35.3241 25.7593 35.3692 25.7533 35.4199 25.7533C35.4839 25.7533 35.5391 25.7648 35.5856 25.7879C35.6321 25.8104 35.6678 25.8419 35.6926 25.8825C35.7179 25.923 35.7306 25.9702 35.7306 26.024C35.7306 26.0783 35.7198 26.1285 35.6981 26.1745C35.6765 26.2206 35.6457 26.2661 35.6056 26.3113C35.5656 26.3559 35.5179 26.4045 35.4627 26.457L35.288 26.6275V26.6351H35.7658V26.7773ZM36.4275 26.7773H36.2646V26.1276C36.2646 26.1059 36.2648 26.0843 36.2653 26.0627C36.2657 26.041 36.2662 26.0199 36.2667 25.9992C36.2676 25.9784 36.2687 25.9586 36.2701 25.9398C36.2604 25.9504 36.2485 25.9619 36.2342 25.9743C36.2204 25.9867 36.2057 25.9996 36.19 26.013L36.074 26.1055L35.9925 26.0026L36.2922 25.7678H36.4275V26.7773ZM37.5022 26.7773H36.8186V26.6551L37.0803 26.39C37.1309 26.3384 37.1726 26.294 37.2053 26.2567C37.238 26.219 37.2621 26.1833 37.2778 26.1497C37.2939 26.1161 37.3019 26.0795 37.3019 26.0399C37.3019 25.9911 37.2879 25.9543 37.2598 25.9294C37.2317 25.9041 37.1947 25.8914 37.1487 25.8914C37.1049 25.8914 37.0644 25.9002 37.0271 25.9177C36.9903 25.9347 36.9521 25.9591 36.9125 25.9909L36.8234 25.8838C36.8515 25.8599 36.8814 25.838 36.9132 25.8182C36.9454 25.7984 36.9813 25.7828 37.0209 25.7713C37.0605 25.7593 37.1056 25.7533 37.1562 25.7533C37.2202 25.7533 37.2755 25.7648 37.322 25.7879C37.3685 25.8104 37.4041 25.8419 37.429 25.8825C37.4543 25.923 37.467 25.9702 37.467 26.024C37.467 26.0783 37.4562 26.1285 37.4345 26.1745C37.4129 26.2206 37.382 26.2661 37.342 26.3113C37.3019 26.3559 37.2543 26.4045 37.1991 26.457L37.0244 26.6275V26.6351H37.5022V26.7773Z" fill="#212121"/>
<path d="M37.0466 37.6172H36.8837V36.9674C36.8837 36.9458 36.8839 36.9242 36.8844 36.9025C36.8848 36.8809 36.8853 36.8597 36.8858 36.839C36.8867 36.8183 36.8878 36.7985 36.8892 36.7796C36.8795 36.7902 36.8676 36.8017 36.8533 36.8141C36.8395 36.8266 36.8248 36.8395 36.8091 36.8528L36.6931 36.9453L36.6116 36.8424L36.9113 36.6077H37.0466V37.6172ZM38.1579 37.3955H38.0212V37.6172H37.861V37.3955H37.4018V37.2726L37.863 36.6049H38.0212V37.2609H38.1579V37.3955ZM37.861 37.2609V37.0102C37.861 36.9895 37.8612 36.9686 37.8617 36.9474C37.8626 36.9258 37.8635 36.9051 37.8644 36.8853C37.8653 36.8655 37.8663 36.8473 37.8672 36.8307C37.8681 36.8137 37.8688 36.7996 37.8693 36.7886H37.8637C37.855 36.807 37.8453 36.8259 37.8347 36.8452C37.8241 36.8641 37.8129 36.8825 37.8009 36.9004L37.5523 37.2609H37.861ZM38.6491 36.9861C38.714 36.9861 38.771 36.9978 38.8203 37.0213C38.87 37.0443 38.9087 37.0784 38.9363 37.1235C38.9639 37.1681 38.9777 37.2229 38.9777 37.2878C38.9777 37.3587 38.9628 37.4199 38.9329 37.4715C38.9029 37.5226 38.859 37.5619 38.801 37.5896C38.743 37.6172 38.6723 37.631 38.589 37.631C38.536 37.631 38.4866 37.6264 38.4405 37.6172C38.395 37.608 38.3556 37.5942 38.3224 37.5758V37.4294C38.357 37.4487 38.3984 37.4646 38.4467 37.477C38.4951 37.489 38.5413 37.495 38.5855 37.495C38.6325 37.495 38.6728 37.4881 38.7064 37.4743C38.74 37.4604 38.7658 37.4393 38.7837 37.4107C38.8021 37.3822 38.8113 37.3461 38.8113 37.3023C38.8113 37.2443 38.7927 37.1997 38.7554 37.1684C38.7186 37.1366 38.6608 37.1207 38.5821 37.1207C38.5545 37.1207 38.525 37.1233 38.4937 37.1283C38.4629 37.1329 38.4371 37.138 38.4164 37.1435L38.3452 37.1014L38.3832 36.6077H38.908V36.7506H38.5261L38.5041 37.002C38.5206 36.9983 38.5404 36.9948 38.5634 36.9916C38.5865 36.9879 38.615 36.9861 38.6491 36.9861ZM39.8577 37.1117C39.8577 37.1932 39.8512 37.2662 39.8383 37.3306C39.8259 37.3946 39.8061 37.4489 39.7789 37.4936C39.7518 37.5382 39.7163 37.5723 39.6726 37.5958C39.6289 37.6193 39.5759 37.631 39.5138 37.631C39.436 37.631 39.3718 37.6105 39.3211 37.5695C39.2705 37.5281 39.233 37.4687 39.2086 37.3914C39.1842 37.3136 39.172 37.2204 39.172 37.1117C39.172 37.0031 39.183 36.9101 39.2051 36.8328C39.2277 36.755 39.2641 36.6954 39.3142 36.6539C39.3644 36.6125 39.4309 36.5918 39.5138 36.5918C39.592 36.5918 39.6565 36.6125 39.7071 36.6539C39.7582 36.6949 39.796 36.7543 39.8204 36.8321C39.8452 36.9094 39.8577 37.0026 39.8577 37.1117ZM39.3356 37.1117C39.3356 37.1969 39.3412 37.268 39.3522 37.3251C39.3637 37.3822 39.3826 37.425 39.4088 37.4535C39.4351 37.4816 39.4701 37.4957 39.5138 37.4957C39.5575 37.4957 39.5925 37.4816 39.6187 37.4535C39.645 37.4255 39.6639 37.3829 39.6754 37.3258C39.6873 37.2687 39.6933 37.1974 39.6933 37.1117C39.6933 37.027 39.6876 36.9562 39.6761 36.8991C39.6645 36.842 39.6457 36.7992 39.6194 36.7706C39.5932 36.7416 39.558 36.7271 39.5138 36.7271C39.4696 36.7271 39.4344 36.7416 39.4081 36.7706C39.3824 36.7992 39.3637 36.842 39.3522 36.8991C39.3412 36.9562 39.3356 37.027 39.3356 37.1117Z" fill="#212121"/>
<path d="M27.1482 43.5117H26.9852V42.862C26.9852 42.8403 26.9855 42.8187 26.9859 42.7971C26.9864 42.7754 26.9869 42.7542 26.9873 42.7335C26.9882 42.7128 26.9894 42.693 26.9908 42.6741C26.9811 42.6847 26.9691 42.6962 26.9549 42.7087C26.9411 42.7211 26.9263 42.734 26.9107 42.7473L26.7947 42.8399L26.7132 42.737L27.0129 42.5022H27.1482V43.5117ZM28.2228 43.5117H27.5393V43.3895L27.801 43.1243C27.8516 43.0728 27.8932 43.0284 27.9259 42.9911C27.9586 42.9533 27.9828 42.9177 27.9984 42.8841C28.0145 42.8505 28.0226 42.8139 28.0226 42.7743C28.0226 42.7255 28.0086 42.6886 27.9805 42.6638C27.9524 42.6385 27.9153 42.6258 27.8693 42.6258C27.8256 42.6258 27.7851 42.6346 27.7478 42.652C27.711 42.6691 27.6727 42.6935 27.6332 42.7252L27.5441 42.6182C27.5722 42.5943 27.6021 42.5724 27.6339 42.5526C27.6661 42.5328 27.702 42.5172 27.7416 42.5057C27.7812 42.4937 27.8263 42.4877 27.8769 42.4877C27.9409 42.4877 27.9961 42.4992 28.0426 42.5222C28.0891 42.5448 28.1248 42.5763 28.1497 42.6168C28.175 42.6573 28.1876 42.7045 28.1876 42.7584C28.1876 42.8127 28.1768 42.8629 28.1552 42.9089C28.1335 42.9549 28.1027 43.0005 28.0627 43.0456C28.0226 43.0903 27.975 43.1388 27.9197 43.1913L27.745 43.3619V43.3695H28.2228V43.5117ZM29.091 43.0063C29.091 43.0878 29.0846 43.1607 29.0717 43.2252C29.0593 43.2891 29.0395 43.3435 29.0123 43.3881C28.9852 43.4328 28.9497 43.4668 28.906 43.4903C28.8622 43.5138 28.8093 43.5255 28.7472 43.5255C28.6694 43.5255 28.6052 43.505 28.5545 43.4641C28.5039 43.4226 28.4664 43.3633 28.442 43.2859C28.4176 43.2081 28.4054 43.1149 28.4054 43.0063C28.4054 42.8976 28.4164 42.8046 28.4385 42.7273C28.4611 42.6495 28.4974 42.5899 28.5476 42.5485C28.5978 42.507 28.6643 42.4863 28.7472 42.4863C28.8254 42.4863 28.8899 42.507 28.9405 42.5485C28.9916 42.5894 29.0293 42.6488 29.0537 42.7266C29.0786 42.804 29.091 42.8972 29.091 43.0063ZM28.569 43.0063C28.569 43.0914 28.5745 43.1626 28.5856 43.2196C28.5971 43.2767 28.616 43.3195 28.6422 43.3481C28.6684 43.3762 28.7034 43.3902 28.7472 43.3902C28.7909 43.3902 28.8259 43.3762 28.8521 43.3481C28.8784 43.32 28.8972 43.2774 28.9087 43.2203C28.9207 43.1632 28.9267 43.0919 28.9267 43.0063C28.9267 42.9216 28.9209 42.8507 28.9094 42.7936C28.8979 42.7365 28.8791 42.6937 28.8528 42.6652C28.8266 42.6362 28.7914 42.6217 28.7472 42.6217C28.703 42.6217 28.6678 42.6362 28.6415 42.6652C28.6157 42.6937 28.5971 42.7365 28.5856 42.7936C28.5745 42.8507 28.569 42.9216 28.569 43.0063ZM29.9592 43.0063C29.9592 43.0878 29.9528 43.1607 29.9399 43.2252C29.9275 43.2891 29.9077 43.3435 29.8805 43.3881C29.8533 43.4328 29.8179 43.4668 29.7742 43.4903C29.7304 43.5138 29.6775 43.5255 29.6154 43.5255C29.5376 43.5255 29.4733 43.505 29.4227 43.4641C29.3721 43.4226 29.3345 43.3633 29.3102 43.2859C29.2858 43.2081 29.2736 43.1149 29.2736 43.0063C29.2736 42.8976 29.2846 42.8046 29.3067 42.7273C29.3293 42.6495 29.3656 42.5899 29.4158 42.5485C29.466 42.507 29.5325 42.4863 29.6154 42.4863C29.6936 42.4863 29.7581 42.507 29.8087 42.5485C29.8598 42.5894 29.8975 42.6488 29.9219 42.7266C29.9468 42.804 29.9592 42.8972 29.9592 43.0063ZM29.4372 43.0063C29.4372 43.0914 29.4427 43.1626 29.4538 43.2196C29.4653 43.2767 29.4842 43.3195 29.5104 43.3481C29.5366 43.3762 29.5716 43.3902 29.6154 43.3902C29.6591 43.3902 29.6941 43.3762 29.7203 43.3481C29.7465 43.32 29.7654 43.2774 29.7769 43.2203C29.7889 43.1632 29.7949 43.0919 29.7949 43.0063C29.7949 42.9216 29.7891 42.8507 29.7776 42.7936C29.7661 42.7365 29.7472 42.6937 29.721 42.6652C29.6948 42.6362 29.6595 42.6217 29.6154 42.6217C29.5712 42.6217 29.5359 42.6362 29.5097 42.6652C29.4839 42.6937 29.4653 42.7365 29.4538 42.7936C29.4427 42.8507 29.4372 42.9216 29.4372 43.0063Z" fill="#212121"/>
<path d="M29.676 57.4141H29.5131V56.7643C29.5131 56.7427 29.5133 56.721 29.5138 56.6994C29.5142 56.6778 29.5147 56.6566 29.5152 56.6359C29.5161 56.6152 29.5172 56.5954 29.5186 56.5765C29.5089 56.5871 29.497 56.5986 29.4827 56.611C29.4689 56.6234 29.4542 56.6363 29.4385 56.6497L29.3225 56.7422L29.241 56.6393L29.5407 56.4046H29.676V57.4141ZM30.7507 56.9086C30.7507 56.9901 30.7442 57.0631 30.7314 57.1275C30.7189 57.1915 30.6991 57.2458 30.672 57.2905C30.6448 57.3351 30.6094 57.3692 30.5656 57.3927C30.5219 57.4161 30.469 57.4279 30.4068 57.4279C30.329 57.4279 30.2648 57.4074 30.2142 57.3664C30.1635 57.325 30.126 57.2656 30.1016 57.1883C30.0772 57.1105 30.065 57.0173 30.065 56.9086C30.065 56.8 30.0761 56.707 30.0982 56.6297C30.1207 56.5519 30.1571 56.4922 30.2073 56.4508C30.2574 56.4094 30.324 56.3887 30.4068 56.3887C30.4851 56.3887 30.5495 56.4094 30.6002 56.4508C30.6513 56.4918 30.689 56.5512 30.7134 56.629C30.7383 56.7063 30.7507 56.7995 30.7507 56.9086ZM30.2287 56.9086C30.2287 56.9938 30.2342 57.0649 30.2452 57.122C30.2568 57.1791 30.2756 57.2219 30.3019 57.2504C30.3281 57.2785 30.3631 57.2925 30.4068 57.2925C30.4506 57.2925 30.4855 57.2785 30.5118 57.2504C30.538 57.2223 30.5569 57.1798 30.5684 57.1227C30.5804 57.0656 30.5864 56.9942 30.5864 56.9086C30.5864 56.8239 30.5806 56.753 30.5691 56.6959C30.5576 56.6389 30.5387 56.5961 30.5125 56.5675C30.4862 56.5385 30.451 56.524 30.4068 56.524C30.3626 56.524 30.3274 56.5385 30.3012 56.5675C30.2754 56.5961 30.2568 56.6389 30.2452 56.6959C30.2342 56.753 30.2287 56.8239 30.2287 56.9086ZM31.6189 56.9086C31.6189 56.9901 31.6124 57.0631 31.5995 57.1275C31.5871 57.1915 31.5673 57.2458 31.5402 57.2905C31.513 57.3351 31.4776 57.3692 31.4338 57.3927C31.3901 57.4161 31.3372 57.4279 31.275 57.4279C31.1972 57.4279 31.133 57.4074 31.0824 57.3664C31.0317 57.325 30.9942 57.2656 30.9698 57.1883C30.9454 57.1105 30.9332 57.0173 30.9332 56.9086C30.9332 56.8 30.9443 56.707 30.9664 56.6297C30.9889 56.5519 31.0253 56.4922 31.0755 56.4508C31.1256 56.4094 31.1921 56.3887 31.275 56.3887C31.3533 56.3887 31.4177 56.4094 31.4683 56.4508C31.5194 56.4918 31.5572 56.5512 31.5816 56.629C31.6064 56.7063 31.6189 56.7995 31.6189 56.9086ZM31.0969 56.9086C31.0969 56.9938 31.1024 57.0649 31.1134 57.122C31.1249 57.1791 31.1438 57.2219 31.1701 57.2504C31.1963 57.2785 31.2313 57.2925 31.275 57.2925C31.3187 57.2925 31.3537 57.2785 31.38 57.2504C31.4062 57.2223 31.4251 57.1798 31.4366 57.1227C31.4486 57.0656 31.4545 56.9942 31.4545 56.9086C31.4545 56.8239 31.4488 56.753 31.4373 56.6959C31.4258 56.6389 31.4069 56.5961 31.3807 56.5675C31.3544 56.5385 31.3192 56.524 31.275 56.524C31.2308 56.524 31.1956 56.5385 31.1694 56.5675C31.1436 56.5961 31.1249 56.6389 31.1134 56.6959C31.1024 56.753 31.0969 56.8239 31.0969 56.9086Z" fill="#212121"/>
<path d="M42.7039 43.7461H42.5409V43.0963C42.5409 43.0747 42.5411 43.0531 42.5416 43.0314C42.5421 43.0098 42.5425 42.9886 42.543 42.9679C42.5439 42.9472 42.545 42.9274 42.5464 42.9085C42.5368 42.9191 42.5248 42.9306 42.5105 42.943C42.4967 42.9555 42.482 42.9684 42.4663 42.9817L42.3503 43.0742L42.2689 42.9714L42.5685 42.7366H42.7039V43.7461ZM43.7785 43.2406C43.7785 43.3221 43.7721 43.3951 43.7592 43.4595C43.7467 43.5235 43.727 43.5778 43.6998 43.6225C43.6726 43.6671 43.6372 43.7012 43.5935 43.7247C43.5497 43.7482 43.4968 43.7599 43.4346 43.7599C43.3568 43.7599 43.2926 43.7394 43.242 43.6984C43.1914 43.657 43.1538 43.5976 43.1294 43.5203C43.105 43.4425 43.0928 43.3493 43.0928 43.2406C43.0928 43.132 43.1039 43.039 43.126 42.9617C43.1485 42.8839 43.1849 42.8243 43.2351 42.7828C43.2853 42.7414 43.3518 42.7207 43.4346 42.7207C43.5129 42.7207 43.5773 42.7414 43.628 42.7828C43.6791 42.8238 43.7168 42.8832 43.7412 42.961C43.7661 43.0383 43.7785 43.1315 43.7785 43.2406ZM43.2565 43.2406C43.2565 43.3258 43.262 43.3969 43.2731 43.454C43.2846 43.5111 43.3034 43.5539 43.3297 43.5824C43.3559 43.6105 43.3909 43.6246 43.4346 43.6246C43.4784 43.6246 43.5134 43.6105 43.5396 43.5824C43.5658 43.5544 43.5847 43.5118 43.5962 43.4547C43.6082 43.3976 43.6142 43.3263 43.6142 43.2406C43.6142 43.1559 43.6084 43.0851 43.5969 43.028C43.5854 42.9709 43.5665 42.9281 43.5403 42.8995C43.5141 42.8705 43.4788 42.856 43.4346 42.856C43.3905 42.856 43.3552 42.8705 43.329 42.8995C43.3032 42.9281 43.2846 42.9709 43.2731 43.028C43.262 43.0851 43.2565 43.1559 43.2565 43.2406ZM44.6467 43.7461H43.9631V43.6239L44.2248 43.3587C44.2754 43.3072 44.3171 43.2627 44.3498 43.2255C44.3825 43.1877 44.4066 43.152 44.4223 43.1184C44.4384 43.0848 44.4465 43.0482 44.4465 43.0086C44.4465 42.9598 44.4324 42.923 44.4043 42.8982C44.3763 42.8728 44.3392 42.8602 44.2932 42.8602C44.2494 42.8602 44.2089 42.8689 44.1716 42.8864C44.1348 42.9035 44.0966 42.9279 44.057 42.9596L43.9679 42.8526C43.996 42.8287 44.0259 42.8068 44.0577 42.787C44.0899 42.7672 44.1258 42.7515 44.1654 42.74C44.205 42.7281 44.2501 42.7221 44.3008 42.7221C44.3647 42.7221 44.42 42.7336 44.4665 42.7566C44.513 42.7792 44.5486 42.8107 44.5735 42.8512C44.5988 42.8917 44.6115 42.9389 44.6115 42.9928C44.6115 43.0471 44.6007 43.0973 44.579 43.1433C44.5574 43.1893 44.5266 43.2349 44.4865 43.28C44.4465 43.3247 44.3988 43.3732 44.3436 43.4257L44.1689 43.5963V43.6039H44.6467V43.7461ZM44.8327 43.3159C44.8327 43.2565 44.8368 43.1981 44.8451 43.1405C44.8538 43.083 44.8686 43.0291 44.8893 42.9789C44.91 42.9288 44.9385 42.8846 44.9749 42.8464C45.0117 42.8082 45.058 42.7782 45.1137 42.7566C45.1694 42.7345 45.2364 42.7235 45.3146 42.7235C45.3349 42.7235 45.3577 42.7244 45.383 42.7262C45.4083 42.7281 45.4293 42.7311 45.4458 42.7352V42.8699C45.4279 42.8648 45.4081 42.8609 45.3865 42.8581C45.3653 42.8554 45.3441 42.854 45.3229 42.854C45.2382 42.854 45.1722 42.8701 45.1248 42.9023C45.0773 42.9341 45.0435 42.9778 45.0233 43.0335C45.003 43.0887 44.9913 43.152 44.988 43.2234H44.9963C45.0101 43.2004 45.0274 43.1799 45.0481 43.1619C45.0688 43.144 45.0941 43.1297 45.1241 43.1191C45.154 43.1081 45.1887 43.1025 45.2283 43.1025C45.2873 43.1025 45.3386 43.115 45.3823 43.1398C45.426 43.1642 45.4596 43.1997 45.4831 43.2462C45.5071 43.2927 45.519 43.3491 45.519 43.4153C45.519 43.4867 45.5054 43.5482 45.4783 43.5997C45.4516 43.6513 45.4134 43.6909 45.3637 43.7185C45.3144 43.7461 45.2557 43.7599 45.1876 43.7599C45.1374 43.7599 45.0907 43.7507 45.0474 43.7323C45.0046 43.7139 44.9671 43.6863 44.9349 43.6494C44.9026 43.6126 44.8776 43.5666 44.8596 43.5113C44.8416 43.4556 44.8327 43.3905 44.8327 43.3159ZM45.1848 43.6259C45.2373 43.6259 45.2794 43.6089 45.3112 43.5749C45.3434 43.5403 45.3595 43.4876 45.3595 43.4167C45.3595 43.3592 45.3453 43.3136 45.3167 43.28C45.2886 43.2464 45.2463 43.2296 45.1897 43.2296C45.151 43.2296 45.1172 43.2379 45.0882 43.2545C45.0592 43.271 45.0366 43.292 45.0205 43.3173C45.0048 43.3426 44.997 43.3684 44.997 43.3946C44.997 43.4213 45.0009 43.4483 45.0087 43.4754C45.0166 43.5026 45.0283 43.5277 45.044 43.5507C45.0596 43.5732 45.0792 43.5914 45.1027 43.6052C45.1261 43.619 45.1535 43.6259 45.1848 43.6259Z" fill="#212121"/>
<path d="M50.4793 34.5547H50.3163V33.9049C50.3163 33.8833 50.3165 33.8617 50.317 33.84C50.3174 33.8184 50.3179 33.7972 50.3184 33.7765C50.3193 33.7558 50.3204 33.736 50.3218 33.7171C50.3122 33.7277 50.3002 33.7392 50.2859 33.7516C50.2721 33.7641 50.2574 33.777 50.2417 33.7903L50.1257 33.8828L50.0442 33.7799L50.3439 33.5452H50.4793V34.5547ZM50.8717 34.1245C50.8717 34.0651 50.8758 34.0067 50.8841 33.9491C50.8929 33.8916 50.9076 33.8377 50.9283 33.7875C50.949 33.7374 50.9776 33.6932 51.0139 33.655C51.0508 33.6168 51.097 33.5868 51.1527 33.5652C51.2084 33.5431 51.2754 33.5321 51.3537 33.5321C51.3739 33.5321 51.3967 33.533 51.422 33.5348C51.4473 33.5367 51.4683 33.5397 51.4849 33.5438V33.6784C51.4669 33.6734 51.4471 33.6695 51.4255 33.6667C51.4043 33.6639 51.3831 33.6626 51.3619 33.6626C51.2772 33.6626 51.2112 33.6787 51.1638 33.7109C51.1164 33.7427 51.0825 33.7864 51.0623 33.8421C51.042 33.8973 51.0303 33.9606 51.0271 34.032H51.0353C51.0491 34.009 51.0664 33.9885 51.0871 33.9705C51.1078 33.9526 51.1332 33.9383 51.1631 33.9277C51.193 33.9167 51.2278 33.9111 51.2673 33.9111C51.3263 33.9111 51.3776 33.9236 51.4213 33.9484C51.4651 33.9728 51.4987 34.0083 51.5221 34.0548C51.5461 34.1013 51.558 34.1577 51.558 34.2239C51.558 34.2953 51.5445 34.3567 51.5173 34.4083C51.4906 34.4599 51.4524 34.4994 51.4027 34.5271C51.3534 34.5547 51.2947 34.5685 51.2266 34.5685C51.1764 34.5685 51.1297 34.5593 51.0864 34.5409C51.0436 34.5225 51.0061 34.4948 50.9739 34.458C50.9417 34.4212 50.9166 34.3752 50.8986 34.3199C50.8807 34.2642 50.8717 34.1991 50.8717 34.1245ZM51.2238 34.4345C51.2763 34.4345 51.3184 34.4175 51.3502 34.3834C51.3824 34.3489 51.3985 34.2962 51.3985 34.2253C51.3985 34.1678 51.3843 34.1222 51.3557 34.0886C51.3276 34.055 51.2853 34.0382 51.2287 34.0382C51.19 34.0382 51.1562 34.0465 51.1272 34.0631C51.0982 34.0796 51.0756 34.1006 51.0595 34.1259C51.0439 34.1512 51.036 34.177 51.036 34.2032C51.036 34.2299 51.0399 34.2569 51.0478 34.284C51.0556 34.3112 51.0673 34.3363 51.083 34.3593C51.0986 34.3818 51.1182 34.4 51.1417 34.4138C51.1652 34.4276 51.1925 34.4345 51.2238 34.4345ZM52.4221 34.0492C52.4221 34.1307 52.4156 34.2037 52.4028 34.2681C52.3903 34.3321 52.3705 34.3864 52.3434 34.4311C52.3162 34.4757 52.2808 34.5098 52.237 34.5333C52.1933 34.5568 52.1404 34.5685 52.0782 34.5685C52.0004 34.5685 51.9362 34.548 51.8856 34.507C51.8349 34.4656 51.7974 34.4062 51.773 34.3289C51.7486 34.2511 51.7364 34.1579 51.7364 34.0492C51.7364 33.9406 51.7475 33.8476 51.7696 33.7703C51.7921 33.6925 51.8285 33.6329 51.8787 33.5914C51.9288 33.55 51.9954 33.5293 52.0782 33.5293C52.1565 33.5293 52.2209 33.55 52.2716 33.5914C52.3227 33.6324 52.3604 33.6918 52.3848 33.7696C52.4097 33.8469 52.4221 33.9401 52.4221 34.0492ZM51.9001 34.0492C51.9001 34.1344 51.9056 34.2055 51.9166 34.2626C51.9282 34.3197 51.947 34.3625 51.9733 34.391C51.9995 34.4191 52.0345 34.4332 52.0782 34.4332C52.122 34.4332 52.1569 34.4191 52.1832 34.391C52.2094 34.363 52.2283 34.3204 52.2398 34.2633C52.2518 34.2062 52.2578 34.1349 52.2578 34.0492C52.2578 33.9645 52.252 33.8937 52.2405 33.8366C52.229 33.7795 52.2101 33.7367 52.1839 33.7081C52.1576 33.6791 52.1224 33.6646 52.0782 33.6646C52.034 33.6646 51.9988 33.6791 51.9726 33.7081C51.9468 33.7367 51.9282 33.7795 51.9166 33.8366C51.9056 33.8937 51.9001 33.9645 51.9001 34.0492ZM53.3269 34.333H53.1902V34.5547H53.03V34.333H52.5708V34.2101L53.032 33.5424H53.1902V34.1984H53.3269V34.333ZM53.03 34.1984V33.9477C53.03 33.927 53.0302 33.9061 53.0306 33.8849C53.0316 33.8633 53.0325 33.8426 53.0334 33.8228C53.0343 33.803 53.0353 33.7848 53.0362 33.7682C53.0371 33.7512 53.0378 33.7371 53.0382 33.7261H53.0327C53.024 33.7445 53.0143 33.7634 53.0037 33.7827C52.9931 33.8016 52.9819 33.82 52.9699 33.8379L52.7213 34.1984H53.03Z" fill="#212121"/>
<path d="M45.4641 57.4141H45.3012V56.7643C45.3012 56.7427 45.3014 56.721 45.3019 56.6994C45.3023 56.6778 45.3028 56.6566 45.3032 56.6359C45.3042 56.6152 45.3053 56.5954 45.3067 56.5765C45.297 56.5871 45.2851 56.5986 45.2708 56.611C45.257 56.6234 45.2422 56.6363 45.2266 56.6497L45.1106 56.7422L45.0291 56.6393L45.3288 56.4046H45.4641V57.4141ZM46.5388 56.9086C46.5388 56.9901 46.5323 57.0631 46.5194 57.1275C46.507 57.1915 46.4872 57.2458 46.4601 57.2905C46.4329 57.3351 46.3975 57.3692 46.3537 57.3927C46.31 57.4161 46.2571 57.4279 46.1949 57.4279C46.1171 57.4279 46.0529 57.4074 46.0023 57.3664C45.9516 57.325 45.9141 57.2656 45.8897 57.1883C45.8653 57.1105 45.8531 57.0173 45.8531 56.9086C45.8531 56.8 45.8642 56.707 45.8863 56.6297C45.9088 56.5519 45.9452 56.4922 45.9954 56.4508C46.0455 56.4094 46.112 56.3887 46.1949 56.3887C46.2732 56.3887 46.3376 56.4094 46.3882 56.4508C46.4393 56.4918 46.4771 56.5512 46.5015 56.629C46.5263 56.7063 46.5388 56.7995 46.5388 56.9086ZM46.0168 56.9086C46.0168 56.9938 46.0223 57.0649 46.0333 57.122C46.0448 57.1791 46.0637 57.2219 46.09 57.2504C46.1162 57.2785 46.1512 57.2925 46.1949 57.2925C46.2386 57.2925 46.2736 57.2785 46.2999 57.2504C46.3261 57.2223 46.345 57.1798 46.3565 57.1227C46.3685 57.0656 46.3744 56.9942 46.3744 56.9086C46.3744 56.8239 46.3687 56.753 46.3572 56.6959C46.3457 56.6389 46.3268 56.5961 46.3006 56.5675C46.2743 56.5385 46.2391 56.524 46.1949 56.524C46.1507 56.524 46.1155 56.5385 46.0893 56.5675C46.0635 56.5961 46.0448 56.6389 46.0333 56.6959C46.0223 56.753 46.0168 56.8239 46.0168 56.9086ZM47.407 56.9086C47.407 56.9901 47.4005 57.0631 47.3876 57.1275C47.3752 57.1915 47.3554 57.2458 47.3282 57.2905C47.3011 57.3351 47.2656 57.3692 47.2219 57.3927C47.1782 57.4161 47.1252 57.4279 47.0631 57.4279C46.9853 57.4279 46.9211 57.4074 46.8704 57.3664C46.8198 57.325 46.7823 57.2656 46.7579 57.1883C46.7335 57.1105 46.7213 57.0173 46.7213 56.9086C46.7213 56.8 46.7323 56.707 46.7544 56.6297C46.777 56.5519 46.8134 56.4922 46.8635 56.4508C46.9137 56.4094 46.9802 56.3887 47.0631 56.3887C47.1414 56.3887 47.2058 56.4094 47.2564 56.4508C47.3075 56.4918 47.3453 56.5512 47.3697 56.629C47.3945 56.7063 47.407 56.7995 47.407 56.9086ZM46.8849 56.9086C46.8849 56.9938 46.8905 57.0649 46.9015 57.122C46.913 57.1791 46.9319 57.2219 46.9581 57.2504C46.9844 57.2785 47.0194 57.2925 47.0631 57.2925C47.1068 57.2925 47.1418 57.2785 47.1681 57.2504C47.1943 57.2223 47.2132 57.1798 47.2247 57.1227C47.2366 57.0656 47.2426 56.9942 47.2426 56.9086C47.2426 56.8239 47.2369 56.753 47.2254 56.6959C47.2139 56.6389 47.195 56.5961 47.1687 56.5675C47.1425 56.5385 47.1073 56.524 47.0631 56.524C47.0189 56.524 46.9837 56.5385 46.9574 56.5675C46.9317 56.5961 46.913 56.6389 46.9015 56.6959C46.8905 56.753 46.8849 56.8239 46.8849 56.9086Z" fill="#212121"/>
<path d="M53.4495 45.2879C53.4495 45.3477 53.4451 45.4064 53.4364 45.4639C53.4281 45.5215 53.4133 45.5753 53.3922 45.6255C53.3715 45.6757 53.3427 45.7201 53.3059 45.7588C53.2695 45.797 53.2235 45.8269 53.1678 45.8485C53.1121 45.8702 53.0448 45.881 52.9661 45.881C52.9463 45.881 52.9233 45.8798 52.8971 45.8775C52.8713 45.8757 52.8501 45.8729 52.8336 45.8693V45.7339C52.851 45.739 52.8706 45.7431 52.8922 45.7464C52.9143 45.7491 52.9362 45.7505 52.9578 45.7505C53.043 45.7505 53.1093 45.7346 53.1567 45.7028C53.2046 45.6711 53.2384 45.6274 53.2582 45.5717C53.2785 45.516 53.29 45.4527 53.2927 45.3818H53.2845C53.2711 45.4039 53.2543 45.4241 53.234 45.4425C53.2138 45.4605 53.1887 45.475 53.1588 45.486C53.1289 45.4966 53.0925 45.5019 53.0497 45.5019C52.9917 45.5019 52.941 45.4897 52.8978 45.4653C52.855 45.4409 52.8216 45.4055 52.7977 45.359C52.7742 45.312 52.7624 45.2556 52.7624 45.1898C52.7624 45.1185 52.776 45.057 52.8032 45.0054C52.8303 44.9539 52.8688 44.9143 52.9185 44.8867C52.9682 44.8586 53.0267 44.8446 53.0939 44.8446C53.1445 44.8446 53.1912 44.8538 53.234 44.8722C53.2773 44.8901 53.3151 44.9178 53.3473 44.955C53.3795 44.9919 53.4046 45.0381 53.4226 45.0938C53.4405 45.1491 53.4495 45.2137 53.4495 45.2879ZM53.0959 44.9785C53.0448 44.9785 53.0032 44.9958 52.971 45.0303C52.9387 45.0644 52.9226 45.1168 52.9226 45.1877C52.9226 45.2453 52.9364 45.2909 52.9641 45.3245C52.9917 45.3581 53.034 45.3749 53.0911 45.3749C53.1307 45.3749 53.1648 45.3668 53.1933 45.3507C53.2223 45.3341 53.2446 45.3132 53.2603 45.2879C53.2764 45.2625 53.2845 45.2368 53.2845 45.2105C53.2845 45.1834 53.2805 45.1562 53.2727 45.129C53.2653 45.1019 53.2538 45.077 53.2382 45.0545C53.2225 45.0319 53.2027 45.0137 53.1788 44.9999C53.1553 44.9857 53.1277 44.9785 53.0959 44.9785ZM53.9759 44.8439C54.0343 44.8439 54.087 44.8531 54.134 44.8715C54.181 44.8894 54.2182 44.9164 54.2459 44.9523C54.2735 44.9882 54.2873 45.0326 54.2873 45.0855C54.2873 45.1265 54.2788 45.1622 54.2617 45.1926C54.2452 45.223 54.2226 45.2497 54.1941 45.2727C54.1655 45.2952 54.1335 45.3152 54.0981 45.3327C54.1377 45.3521 54.174 45.3744 54.2072 45.3997C54.2408 45.4246 54.2677 45.4538 54.288 45.4874C54.3087 45.521 54.319 45.5604 54.319 45.6055C54.319 45.6621 54.3045 45.7111 54.2755 45.7526C54.247 45.7935 54.2072 45.8253 54.1561 45.8479C54.105 45.8699 54.0454 45.881 53.9773 45.881C53.9041 45.881 53.8417 45.8702 53.7901 45.8485C53.7386 45.8269 53.6994 45.7961 53.6727 45.756C53.646 45.7155 53.6327 45.6672 53.6327 45.611C53.6327 45.5645 53.6419 45.5242 53.6603 45.4902C53.6787 45.4561 53.7034 45.4266 53.7342 45.4018C53.7655 45.3769 53.7998 45.356 53.8371 45.339C53.8053 45.3201 53.7763 45.2989 53.7501 45.2754C53.7238 45.2515 53.7029 45.2241 53.6872 45.1933C53.6721 45.162 53.6645 45.1258 53.6645 45.0849C53.6645 45.0324 53.6785 44.9884 53.7066 44.953C53.7347 44.9171 53.7722 44.8899 53.8191 44.8715C53.8665 44.8531 53.9188 44.8439 53.9759 44.8439ZM53.7874 45.6048C53.7874 45.649 53.803 45.6854 53.8343 45.7139C53.8656 45.7424 53.9123 45.7567 53.9745 45.7567C54.0362 45.7567 54.0831 45.7427 54.1154 45.7146C54.1476 45.6865 54.1637 45.6495 54.1637 45.6034C54.1637 45.574 54.1554 45.5479 54.1388 45.5254C54.1227 45.5028 54.1009 45.4828 54.0732 45.4653C54.0461 45.4474 54.0159 45.4308 53.9828 45.4156L53.9607 45.4066C53.9248 45.4218 53.8939 45.4391 53.8682 45.4584C53.8424 45.4773 53.8224 45.4987 53.8081 45.5226C53.7943 45.5466 53.7874 45.574 53.7874 45.6048ZM53.9745 44.9688C53.9298 44.9688 53.893 44.9799 53.864 45.002C53.8355 45.0236 53.8212 45.0549 53.8212 45.0959C53.8212 45.1249 53.8281 45.1498 53.8419 45.1705C53.8562 45.1912 53.8753 45.2091 53.8992 45.2243C53.9232 45.2391 53.9496 45.2529 53.9786 45.2658C54.0067 45.2533 54.032 45.2398 54.0546 45.225C54.0776 45.2098 54.0958 45.1919 54.1091 45.1712C54.1229 45.15 54.1299 45.1247 54.1299 45.0952C54.1299 45.0547 54.1154 45.0236 54.0864 45.002C54.0578 44.9799 54.0205 44.9688 53.9745 44.9688ZM55.1872 45.8672H54.5036V45.745L54.7653 45.4798C54.816 45.4283 54.8576 45.3838 54.8903 45.3466C54.923 45.3088 54.9472 45.2731 54.9628 45.2395C54.9789 45.2059 54.987 45.1693 54.987 45.1297C54.987 45.0809 54.973 45.0441 54.9449 45.0193C54.9168 44.9939 54.8797 44.9813 54.8337 44.9813C54.79 44.9813 54.7495 44.99 54.7122 45.0075C54.6753 45.0245 54.6371 45.0489 54.5976 45.0807L54.5085 44.9737C54.5366 44.9497 54.5665 44.9279 54.5982 44.9081C54.6305 44.8883 54.6664 44.8726 54.706 44.8611C54.7455 44.8492 54.7907 44.8432 54.8413 44.8432C54.9053 44.8432 54.9605 44.8547 55.007 44.8777C55.0535 44.9003 55.0892 44.9318 55.114 44.9723C55.1394 45.0128 55.152 45.06 55.152 45.1139C55.152 45.1682 55.1412 45.2183 55.1196 45.2644C55.0979 45.3104 55.0671 45.356 55.027 45.4011C54.987 45.4458 54.9393 45.4943 54.8841 45.5468L54.7094 45.7173V45.7249H55.1872V45.8672Z" fill="#212121"/>
<path d="M58.0222 43.5117H57.8593V42.862C57.8593 42.8403 57.8595 42.8187 57.86 42.7971C57.8604 42.7754 57.8609 42.7542 57.8613 42.7335C57.8623 42.7128 57.8634 42.693 57.8648 42.6741C57.8551 42.6847 57.8432 42.6962 57.8289 42.7087C57.8151 42.7211 57.8003 42.734 57.7847 42.7473L57.6687 42.8399L57.5872 42.737L57.8869 42.5022H58.0222V43.5117ZM59.0969 43.0063C59.0969 43.0878 59.0904 43.1607 59.0775 43.2252C59.0651 43.2891 59.0453 43.3435 59.0182 43.3881C58.991 43.4328 58.9555 43.4668 58.9118 43.4903C58.8681 43.5138 58.8151 43.5255 58.753 43.5255C58.6752 43.5255 58.611 43.505 58.5604 43.4641C58.5097 43.4226 58.4722 43.3633 58.4478 43.2859C58.4234 43.2081 58.4112 43.1149 58.4112 43.0063C58.4112 42.8976 58.4223 42.8046 58.4443 42.7273C58.4669 42.6495 58.5033 42.5899 58.5534 42.5485C58.6036 42.507 58.6701 42.4863 58.753 42.4863C58.8313 42.4863 58.8957 42.507 58.9463 42.5485C58.9974 42.5894 59.0352 42.6488 59.0596 42.7266C59.0844 42.804 59.0969 42.8972 59.0969 43.0063ZM58.5749 43.0063C58.5749 43.0914 58.5804 43.1626 58.5914 43.2196C58.6029 43.2767 58.6218 43.3195 58.648 43.3481C58.6743 43.3762 58.7093 43.3902 58.753 43.3902C58.7967 43.3902 58.8317 43.3762 58.858 43.3481C58.8842 43.32 58.9031 43.2774 58.9146 43.2203C58.9265 43.1632 58.9325 43.0919 58.9325 43.0063C58.9325 42.9216 58.9268 42.8507 58.9153 42.7936C58.9038 42.7365 58.8849 42.6937 58.8586 42.6652C58.8324 42.6362 58.7972 42.6217 58.753 42.6217C58.7088 42.6217 58.6736 42.6362 58.6474 42.6652C58.6216 42.6937 58.6029 42.7365 58.5914 42.7936C58.5804 42.8507 58.5749 42.9216 58.5749 43.0063ZM59.9651 43.0063C59.9651 43.0878 59.9586 43.1607 59.9457 43.2252C59.9333 43.2891 59.9135 43.3435 59.8863 43.3881C59.8592 43.4328 59.8237 43.4668 59.78 43.4903C59.7363 43.5138 59.6833 43.5255 59.6212 43.5255C59.5434 43.5255 59.4792 43.505 59.4285 43.4641C59.3779 43.4226 59.3404 43.3633 59.316 43.2859C59.2916 43.2081 59.2794 43.1149 59.2794 43.0063C59.2794 42.8976 59.2904 42.8046 59.3125 42.7273C59.3351 42.6495 59.3715 42.5899 59.4216 42.5485C59.4718 42.507 59.5383 42.4863 59.6212 42.4863C59.6994 42.4863 59.7639 42.507 59.8145 42.5485C59.8656 42.5894 59.9034 42.6488 59.9278 42.7266C59.9526 42.804 59.9651 42.8972 59.9651 43.0063ZM59.443 43.0063C59.443 43.0914 59.4486 43.1626 59.4596 43.2196C59.4711 43.2767 59.49 43.3195 59.5162 43.3481C59.5425 43.3762 59.5775 43.3902 59.6212 43.3902C59.6649 43.3902 59.6999 43.3762 59.7261 43.3481C59.7524 43.32 59.7713 43.2774 59.7828 43.2203C59.7947 43.1632 59.8007 43.0919 59.8007 43.0063C59.8007 42.9216 59.795 42.8507 59.7835 42.7936C59.7719 42.7365 59.7531 42.6937 59.7268 42.6652C59.7006 42.6362 59.6654 42.6217 59.6212 42.6217C59.577 42.6217 59.5418 42.6362 59.5155 42.6652C59.4898 42.6937 59.4711 42.7365 59.4596 42.7936C59.4486 42.8507 59.443 42.9216 59.443 43.0063ZM60.8332 43.0063C60.8332 43.0878 60.8268 43.1607 60.8139 43.2252C60.8015 43.2891 60.7817 43.3435 60.7545 43.3881C60.7274 43.4328 60.6919 43.4668 60.6482 43.4903C60.6045 43.5138 60.5515 43.5255 60.4894 43.5255C60.4116 43.5255 60.3474 43.505 60.2967 43.4641C60.2461 43.4226 60.2086 43.3633 60.1842 43.2859C60.1598 43.2081 60.1476 43.1149 60.1476 43.0063C60.1476 42.8976 60.1586 42.8046 60.1807 42.7273C60.2033 42.6495 60.2396 42.5899 60.2898 42.5485C60.34 42.507 60.4065 42.4863 60.4894 42.4863C60.5676 42.4863 60.6321 42.507 60.6827 42.5485C60.7338 42.5894 60.7716 42.6488 60.796 42.7266C60.8208 42.804 60.8332 42.8972 60.8332 43.0063ZM60.3112 43.0063C60.3112 43.0914 60.3168 43.1626 60.3278 43.2196C60.3393 43.2767 60.3582 43.3195 60.3844 43.3481C60.4107 43.3762 60.4456 43.3902 60.4894 43.3902C60.5331 43.3902 60.5681 43.3762 60.5943 43.3481C60.6206 43.32 60.6394 43.2774 60.651 43.2203C60.6629 43.1632 60.6689 43.0919 60.6689 43.0063C60.6689 42.9216 60.6632 42.8507 60.6516 42.7936C60.6401 42.7365 60.6213 42.6937 60.595 42.6652C60.5688 42.6362 60.5336 42.6217 60.4894 42.6217C60.4452 42.6217 60.41 42.6362 60.3837 42.6652C60.358 42.6937 60.3393 42.7365 60.3278 42.7936C60.3168 42.8507 60.3112 42.9216 60.3112 43.0063Z" fill="#212121"/>
<path d="M60.7874 57.4141H60.6244V56.7643C60.6244 56.7427 60.6246 56.721 60.6251 56.6994C60.6256 56.6778 60.626 56.6566 60.6265 56.6359C60.6274 56.6152 60.6286 56.5954 60.6299 56.5765C60.6203 56.5871 60.6083 56.5986 60.594 56.611C60.5802 56.6234 60.5655 56.6363 60.5498 56.6497L60.4338 56.7422L60.3524 56.6393L60.652 56.4046H60.7874V57.4141ZM61.862 56.9086C61.862 56.9901 61.8556 57.0631 61.8427 57.1275C61.8303 57.1915 61.8105 57.2458 61.7833 57.2905C61.7561 57.3351 61.7207 57.3692 61.677 57.3927C61.6332 57.4161 61.5803 57.4279 61.5182 57.4279C61.4404 57.4279 61.3761 57.4074 61.3255 57.3664C61.2749 57.325 61.2373 57.2656 61.2129 57.1883C61.1886 57.1105 61.1764 57.0173 61.1764 56.9086C61.1764 56.8 61.1874 56.707 61.2095 56.6297C61.2321 56.5519 61.2684 56.4922 61.3186 56.4508C61.3688 56.4094 61.4353 56.3887 61.5182 56.3887C61.5964 56.3887 61.6609 56.4094 61.7115 56.4508C61.7626 56.4918 61.8003 56.5512 61.8247 56.629C61.8496 56.7063 61.862 56.7995 61.862 56.9086ZM61.34 56.9086C61.34 56.9938 61.3455 57.0649 61.3566 57.122C61.3681 57.1791 61.387 57.2219 61.4132 57.2504C61.4394 57.2785 61.4744 57.2925 61.5182 57.2925C61.5619 57.2925 61.5969 57.2785 61.6231 57.2504C61.6493 57.2223 61.6682 57.1798 61.6797 57.1227C61.6917 57.0656 61.6977 56.9942 61.6977 56.9086C61.6977 56.8239 61.6919 56.753 61.6804 56.6959C61.6689 56.6389 61.65 56.5961 61.6238 56.5675C61.5976 56.5385 61.5623 56.524 61.5182 56.524C61.474 56.524 61.4387 56.5385 61.4125 56.5675C61.3867 56.5961 61.3681 56.6389 61.3566 56.6959C61.3455 56.753 61.34 56.8239 61.34 56.9086ZM62.6915 56.6352C62.6915 56.6808 62.6823 56.7203 62.6639 56.7539C62.6455 56.7875 62.6202 56.8152 62.588 56.8368C62.5562 56.858 62.5194 56.8732 62.4775 56.8824V56.8872C62.558 56.8973 62.6188 56.9227 62.6598 56.9632C62.7012 57.0037 62.7219 57.0573 62.7219 57.1241C62.7219 57.1825 62.7079 57.2348 62.6798 57.2808C62.6517 57.3264 62.6087 57.3623 62.5507 57.3885C62.4927 57.4148 62.4181 57.4279 62.327 57.4279C62.2722 57.4279 62.2213 57.4235 62.1744 57.4148C62.1279 57.406 62.0837 57.392 62.0418 57.3726V57.2283C62.0846 57.2495 62.1302 57.2658 62.1785 57.2773C62.2268 57.2889 62.2726 57.2946 62.3159 57.2946C62.4001 57.2946 62.4602 57.279 62.4961 57.2477C62.532 57.2159 62.55 57.1722 62.55 57.1165C62.55 57.0806 62.5405 57.0511 62.5217 57.0281C62.5033 57.0051 62.4745 56.9878 62.4354 56.9763C62.3967 56.9648 62.3467 56.959 62.2855 56.959H62.1965V56.8285H62.2862C62.3447 56.8285 62.3916 56.8216 62.4271 56.8078C62.4625 56.7935 62.4881 56.774 62.5037 56.7491C62.5198 56.7243 62.5279 56.6953 62.5279 56.6621C62.5279 56.6188 62.5138 56.5852 62.4858 56.5613C62.4577 56.5369 62.416 56.5247 62.3608 56.5247C62.3267 56.5247 62.2957 56.5286 62.2676 56.5364C62.24 56.5443 62.2144 56.5542 62.1909 56.5661C62.1674 56.5781 62.1451 56.591 62.1239 56.6048L62.0459 56.4922C62.0841 56.4637 62.1297 56.4395 62.1826 56.4197C62.2356 56.4 62.2973 56.3901 62.3677 56.3901C62.4713 56.3901 62.5511 56.4124 62.6073 56.457C62.6635 56.5012 62.6915 56.5606 62.6915 56.6352Z" fill="#212121"/>
<path d="M66.8162 57.784C66.8162 57.8438 66.8118 57.9025 66.8031 57.96C66.7948 58.0176 66.7801 58.0714 66.7589 58.1216C66.7382 58.1718 66.7094 58.2162 66.6726 58.2549C66.6362 58.2931 66.5902 58.323 66.5345 58.3446C66.4788 58.3663 66.4116 58.3771 66.3328 58.3771C66.313 58.3771 66.29 58.3759 66.2638 58.3736C66.238 58.3718 66.2168 58.369 66.2003 58.3654V58.23C66.2178 58.2351 66.2373 58.2392 66.259 58.2424C66.2811 58.2452 66.3029 58.2466 66.3246 58.2466C66.4097 58.2466 66.476 58.2307 66.5234 58.1989C66.5713 58.1672 66.6051 58.1234 66.6249 58.0677C66.6452 58.012 66.6567 57.9488 66.6594 57.8779H66.6512C66.6378 57.9 66.621 57.9202 66.6008 57.9386C66.5805 57.9566 66.5554 57.9711 66.5255 57.9821C66.4956 57.9927 66.4592 57.998 66.4164 57.998C66.3584 57.998 66.3078 57.9858 66.2645 57.9614C66.2217 57.937 66.1883 57.9016 66.1644 57.8551C66.1409 57.8081 66.1291 57.7517 66.1291 57.6859C66.1291 57.6146 66.1427 57.5531 66.1699 57.5015C66.197 57.45 66.2355 57.4104 66.2852 57.3828C66.3349 57.3547 66.3934 57.3407 66.4606 57.3407C66.5112 57.3407 66.5579 57.3499 66.6008 57.3683C66.644 57.3862 66.6818 57.4138 66.714 57.4511C66.7462 57.488 66.7713 57.5342 66.7893 57.5899C66.8072 57.6452 66.8162 57.7098 66.8162 57.784ZM66.4627 57.4746C66.4116 57.4746 66.3699 57.4919 66.3377 57.5264C66.3055 57.5605 66.2893 57.6129 66.2893 57.6838C66.2893 57.7414 66.3032 57.7869 66.3308 57.8205C66.3584 57.8542 66.4007 57.871 66.4578 57.871C66.4974 57.871 66.5315 57.8629 66.56 57.8468C66.589 57.8302 66.6113 57.8093 66.627 57.784C66.6431 57.7586 66.6512 57.7329 66.6512 57.7066C66.6512 57.6795 66.6473 57.6523 66.6394 57.6251C66.6321 57.598 66.6206 57.5731 66.6049 57.5506C66.5892 57.528 66.5695 57.5098 66.5455 57.496C66.522 57.4817 66.4944 57.4746 66.4627 57.4746ZM67.3426 57.34C67.401 57.34 67.4538 57.3492 67.5007 57.3676C67.5477 57.3855 67.5849 57.4125 67.6126 57.4484C67.6402 57.4843 67.654 57.5287 67.654 57.5816C67.654 57.6226 67.6455 57.6583 67.6284 57.6887C67.6119 57.719 67.5893 57.7457 67.5608 57.7688C67.5322 57.7913 67.5002 57.8113 67.4648 57.8288C67.5044 57.8482 67.5408 57.8705 67.5739 57.8958C67.6075 57.9207 67.6344 57.9499 67.6547 57.9835C67.6754 58.0171 67.6858 58.0565 67.6858 58.1016C67.6858 58.1582 67.6713 58.2072 67.6423 58.2487C67.6137 58.2896 67.5739 58.3214 67.5228 58.3439C67.4717 58.366 67.4121 58.3771 67.344 58.3771C67.2708 58.3771 67.2084 58.3663 67.1568 58.3446C67.1053 58.323 67.0662 58.2922 67.0395 58.2521C67.0128 58.2116 66.9994 58.1633 66.9994 58.1071C66.9994 58.0606 67.0086 58.0203 67.027 57.9863C67.0454 57.9522 67.0701 57.9227 67.1009 57.8979C67.1322 57.873 67.1665 57.8521 67.2038 57.835C67.172 57.8162 67.143 57.795 67.1168 57.7715C67.0906 57.7476 67.0696 57.7202 67.054 57.6894C67.0388 57.6581 67.0312 57.6219 67.0312 57.5809C67.0312 57.5285 67.0452 57.4845 67.0733 57.4491C67.1014 57.4132 67.1389 57.386 67.1858 57.3676C67.2333 57.3492 67.2855 57.34 67.3426 57.34ZM67.1541 58.1009C67.1541 58.1451 67.1697 58.1814 67.201 58.21C67.2323 58.2385 67.2791 58.2528 67.3412 58.2528C67.4029 58.2528 67.4498 58.2388 67.4821 58.2107C67.5143 58.1826 67.5304 58.1455 67.5304 58.0995C67.5304 58.07 67.5221 58.044 67.5055 58.0215C67.4894 57.9989 67.4676 57.9789 67.4399 57.9614C67.4128 57.9435 67.3826 57.9269 67.3495 57.9117L67.3274 57.9027C67.2915 57.9179 67.2606 57.9352 67.2349 57.9545C67.2091 57.9734 67.1891 57.9948 67.1748 58.0187C67.161 58.0427 67.1541 58.07 67.1541 58.1009ZM67.3412 57.4649C67.2965 57.4649 67.2597 57.476 67.2307 57.4981C67.2022 57.5197 67.1879 57.551 67.1879 57.592C67.1879 57.621 67.1948 57.6459 67.2086 57.6666C67.2229 57.6873 67.242 57.7052 67.2659 57.7204C67.2899 57.7352 67.3163 57.749 67.3453 57.7619C67.3734 57.7494 67.3987 57.7358 67.4213 57.7211C67.4443 57.7059 67.4625 57.688 67.4758 57.6673C67.4897 57.6461 67.4966 57.6208 67.4966 57.5913C67.4966 57.5508 67.4821 57.5197 67.4531 57.4981C67.4245 57.476 67.3872 57.4649 67.3412 57.4649Z" fill="#212121"/>
<path d="M68.9406 63.7852H68.257V63.6629L68.5187 63.3978C68.5694 63.3462 68.611 63.3018 68.6437 63.2645C68.6764 63.2268 68.7006 63.1911 68.7162 63.1575C68.7323 63.1239 68.7404 63.0873 68.7404 63.0477C68.7404 62.9989 68.7263 62.9621 68.6983 62.9372C68.6702 62.9119 68.6331 62.8992 68.5871 62.8992C68.5434 62.8992 68.5028 62.908 68.4656 62.9255C68.4287 62.9425 68.3905 62.9669 68.3509 62.9987L68.2619 62.8917C68.2899 62.8677 68.3199 62.8458 68.3516 62.8261C68.3838 62.8063 68.4198 62.7906 68.4593 62.7791C68.4989 62.7671 68.544 62.7611 68.5947 62.7611C68.6587 62.7611 68.7139 62.7727 68.7604 62.7957C68.8069 62.8182 68.8426 62.8498 68.8674 62.8903C68.8927 62.9308 68.9054 62.978 68.9054 63.0318C68.9054 63.0861 68.8946 63.1363 68.873 63.1824C68.8513 63.2284 68.8205 63.274 68.7804 63.3191C68.7404 63.3637 68.6927 63.4123 68.6375 63.4648L68.4628 63.6353V63.6429H68.9406V63.7852ZM69.8088 63.2797C69.8088 63.3612 69.8024 63.4342 69.7895 63.4986C69.777 63.5626 69.7573 63.6169 69.7301 63.6616C69.7029 63.7062 69.6675 63.7403 69.6238 63.7638C69.58 63.7872 69.5271 63.799 69.4649 63.799C69.3871 63.799 69.3229 63.7785 69.2723 63.7375C69.2217 63.6961 69.1841 63.6367 69.1597 63.5594C69.1353 63.4816 69.1231 63.3883 69.1231 63.2797C69.1231 63.1711 69.1342 63.0781 69.1563 63.0007C69.1788 62.923 69.2152 62.8633 69.2654 62.8219C69.3156 62.7805 69.3821 62.7598 69.4649 62.7598C69.5432 62.7598 69.6076 62.7805 69.6583 62.8219C69.7094 62.8629 69.7471 62.9223 69.7715 63.0001C69.7964 63.0774 69.8088 63.1706 69.8088 63.2797ZM69.2868 63.2797C69.2868 63.3649 69.2923 63.436 69.3034 63.4931C69.3149 63.5502 69.3337 63.593 69.36 63.6215C69.3862 63.6496 69.4212 63.6636 69.4649 63.6636C69.5087 63.6636 69.5437 63.6496 69.5699 63.6215C69.5961 63.5934 69.615 63.5508 69.6265 63.4938C69.6385 63.4367 69.6445 63.3653 69.6445 63.2797C69.6445 63.195 69.6387 63.1241 69.6272 63.067C69.6157 63.01 69.5968 62.9671 69.5706 62.9386C69.5443 62.9096 69.5091 62.8951 69.4649 62.8951C69.4207 62.8951 69.3855 62.9096 69.3593 62.9386C69.3335 62.9671 69.3149 63.01 69.3034 63.067C69.2923 63.1241 69.2868 63.195 69.2868 63.2797Z" fill="#212121"/>
<path d="M73.5779 40.6797H73.4149V40.0299C73.4149 40.0083 73.4152 39.9867 73.4156 39.965C73.4161 39.9434 73.4165 39.9222 73.417 39.9015C73.4179 39.8808 73.4191 39.861 73.4205 39.8421C73.4108 39.8527 73.3988 39.8642 73.3845 39.8766C73.3707 39.8891 73.356 39.902 73.3404 39.9153L73.2244 40.0078L73.1429 39.9049L73.4426 39.6702H73.5779V40.6797ZM74.6525 40.6797H73.9689V40.5575L74.2306 40.2923C74.2813 40.2408 74.3229 40.1963 74.3556 40.1591C74.3883 40.1213 74.4125 40.0856 74.4281 40.052C74.4442 40.0184 74.4523 39.9818 74.4523 39.9422C74.4523 39.8934 74.4382 39.8566 74.4102 39.8318C74.3821 39.8064 74.345 39.7938 74.299 39.7938C74.2553 39.7938 74.2148 39.8025 74.1775 39.82C74.1406 39.837 74.1024 39.8614 74.0628 39.8932L73.9738 39.7862C74.0019 39.7622 74.0318 39.7404 74.0635 39.7206C74.0958 39.7008 74.1317 39.6851 74.1713 39.6736C74.2108 39.6617 74.256 39.6557 74.3066 39.6557C74.3706 39.6557 74.4258 39.6672 74.4723 39.6902C74.5188 39.7128 74.5545 39.7443 74.5793 39.7848C74.6047 39.8253 74.6173 39.8725 74.6173 39.9264C74.6173 39.9807 74.6065 40.0308 74.5849 40.0769C74.5632 40.1229 74.5324 40.1685 74.4923 40.2136C74.4523 40.2583 74.4046 40.3068 74.3494 40.3593L74.1747 40.5298V40.5374H74.6525V40.6797ZM75.5207 40.1742C75.5207 40.2557 75.5143 40.3287 75.5014 40.3931C75.489 40.4571 75.4692 40.5114 75.442 40.5561C75.4148 40.6007 75.3794 40.6348 75.3357 40.6583C75.2919 40.6818 75.239 40.6935 75.1769 40.6935C75.0991 40.6935 75.0348 40.673 74.9842 40.632C74.9336 40.5906 74.8961 40.5312 74.8717 40.4539C74.8473 40.3761 74.8351 40.2829 74.8351 40.1742C74.8351 40.0656 74.8461 39.9726 74.8682 39.8953C74.8908 39.8175 74.9271 39.7579 74.9773 39.7164C75.0275 39.675 75.094 39.6543 75.1769 39.6543C75.2551 39.6543 75.3196 39.675 75.3702 39.7164C75.4213 39.7574 75.459 39.8168 75.4834 39.8946C75.5083 39.9719 75.5207 40.0651 75.5207 40.1742ZM74.9987 40.1742C74.9987 40.2594 75.0042 40.3305 75.0153 40.3876C75.0268 40.4447 75.0457 40.4875 75.0719 40.516C75.0981 40.5441 75.1331 40.5582 75.1769 40.5582C75.2206 40.5582 75.2556 40.5441 75.2818 40.516C75.308 40.488 75.3269 40.4454 75.3384 40.3883C75.3504 40.3312 75.3564 40.2599 75.3564 40.1742C75.3564 40.0895 75.3506 40.0187 75.3391 39.9616C75.3276 39.9045 75.3087 39.8617 75.2825 39.8331C75.2563 39.8041 75.221 39.7896 75.1769 39.7896C75.1327 39.7896 75.0974 39.8041 75.0712 39.8331C75.0454 39.8617 75.0268 39.9045 75.0153 39.9616C75.0042 40.0187 74.9987 40.0895 74.9987 40.1742ZM76.0485 40.0486C76.1134 40.0486 76.1705 40.0603 76.2197 40.0838C76.2695 40.1068 76.3081 40.1409 76.3357 40.186C76.3634 40.2306 76.3772 40.2854 76.3772 40.3503C76.3772 40.4212 76.3622 40.4824 76.3323 40.534C76.3024 40.5851 76.2584 40.6244 76.2004 40.6521C76.1424 40.6797 76.0717 40.6935 75.9884 40.6935C75.9355 40.6935 75.886 40.6889 75.84 40.6797C75.7944 40.6705 75.755 40.6567 75.7219 40.6383V40.4919C75.7564 40.5112 75.7978 40.5271 75.8462 40.5395C75.8945 40.5515 75.9408 40.5575 75.985 40.5575C76.0319 40.5575 76.0722 40.5506 76.1058 40.5368C76.1394 40.5229 76.1652 40.5018 76.1831 40.4732C76.2016 40.4447 76.2108 40.4086 76.2108 40.3648C76.2108 40.3068 76.1921 40.2622 76.1548 40.2309C76.118 40.1991 76.0602 40.1832 75.9815 40.1832C75.9539 40.1832 75.9244 40.1858 75.8931 40.1908C75.8623 40.1954 75.8365 40.2005 75.8158 40.206L75.7447 40.1639L75.7827 39.6702H76.3074V39.8131H75.9256L75.9035 40.0645C75.9201 40.0608 75.9399 40.0573 75.9629 40.0541C75.9859 40.0504 76.0144 40.0486 76.0485 40.0486Z" fill="#212121"/>
<path d="M76.2053 47.6759C76.2638 47.6759 76.3165 47.6851 76.3635 47.7035C76.4104 47.7215 76.4477 47.7484 76.4753 47.7843C76.5029 47.8202 76.5168 47.8646 76.5168 47.9176C76.5168 47.9585 76.5082 47.9942 76.4912 48.0246C76.4746 48.055 76.4521 48.0817 76.4235 48.1047C76.395 48.1273 76.363 48.1473 76.3276 48.1648C76.3671 48.1841 76.4035 48.2064 76.4367 48.2318C76.4703 48.2566 76.4972 48.2858 76.5174 48.3194C76.5382 48.353 76.5485 48.3924 76.5485 48.4375C76.5485 48.4941 76.534 48.5432 76.505 48.5846C76.4765 48.6256 76.4367 48.6573 76.3856 48.6799C76.3345 48.702 76.2749 48.713 76.2067 48.713C76.1335 48.713 76.0712 48.7022 76.0196 48.6806C75.968 48.6589 75.9289 48.6281 75.9022 48.588C75.8755 48.5475 75.8622 48.4992 75.8622 48.443C75.8622 48.3966 75.8714 48.3563 75.8898 48.3222C75.9082 48.2881 75.9328 48.2587 75.9637 48.2338C75.995 48.209 76.0293 48.188 76.0666 48.171C76.0348 48.1521 76.0058 48.1309 75.9795 48.1075C75.9533 48.0835 75.9324 48.0561 75.9167 48.0253C75.9015 47.994 75.8939 47.9579 75.8939 47.9169C75.8939 47.8644 75.908 47.8204 75.936 47.785C75.9641 47.7491 76.0016 47.7219 76.0486 47.7035C76.096 47.6851 76.1483 47.6759 76.2053 47.6759ZM76.0168 48.4368C76.0168 48.481 76.0325 48.5174 76.0638 48.5459C76.0951 48.5745 76.1418 48.5887 76.204 48.5887C76.2656 48.5887 76.3126 48.5747 76.3448 48.5466C76.377 48.5185 76.3932 48.4815 76.3932 48.4354C76.3932 48.406 76.3849 48.38 76.3683 48.3574C76.3522 48.3349 76.3303 48.3148 76.3027 48.2973C76.2755 48.2794 76.2454 48.2628 76.2122 48.2476L76.1902 48.2387C76.1542 48.2538 76.1234 48.2711 76.0976 48.2904C76.0718 48.3093 76.0518 48.3307 76.0375 48.3547C76.0237 48.3786 76.0168 48.406 76.0168 48.4368ZM76.204 47.8009C76.1593 47.8009 76.1225 47.8119 76.0935 47.834C76.0649 47.8557 76.0507 47.887 76.0507 47.9279C76.0507 47.9569 76.0576 47.9818 76.0714 48.0025C76.0857 48.0232 76.1048 48.0412 76.1287 48.0564C76.1526 48.0711 76.1791 48.0849 76.2081 48.0978C76.2362 48.0854 76.2615 48.0718 76.2841 48.0571C76.3071 48.0419 76.3253 48.0239 76.3386 48.0032C76.3524 47.982 76.3593 47.9567 76.3593 47.9272C76.3593 47.8867 76.3448 47.8557 76.3158 47.834C76.2873 47.8119 76.25 47.8009 76.204 47.8009ZM77.4167 48.1938C77.4167 48.2753 77.4103 48.3482 77.3974 48.4127C77.3849 48.4766 77.3651 48.531 77.338 48.5756C77.3108 48.6203 77.2754 48.6543 77.2317 48.6778C77.1879 48.7013 77.135 48.713 77.0728 48.713C76.995 48.713 76.9308 48.6925 76.8802 48.6516C76.8296 48.6101 76.792 48.5508 76.7676 48.4734C76.7432 48.3956 76.731 48.3024 76.731 48.1938C76.731 48.0851 76.7421 47.9921 76.7642 47.9148C76.7867 47.837 76.8231 47.7774 76.8733 47.736C76.9235 47.6945 76.99 47.6738 77.0728 47.6738C77.1511 47.6738 77.2155 47.6945 77.2662 47.736C77.3173 47.7769 77.355 47.8363 77.3794 47.9141C77.4043 47.9915 77.4167 48.0847 77.4167 48.1938ZM76.8947 48.1938C76.8947 48.2789 76.9002 48.3501 76.9113 48.4071C76.9228 48.4642 76.9416 48.507 76.9679 48.5356C76.9941 48.5637 77.0291 48.5777 77.0728 48.5777C77.1166 48.5777 77.1516 48.5637 77.1778 48.5356C77.204 48.5075 77.2229 48.4649 77.2344 48.4078C77.2464 48.3507 77.2524 48.2794 77.2524 48.1938C77.2524 48.1091 77.2466 48.0382 77.2351 47.9811C77.2236 47.924 77.2047 47.8812 77.1785 47.8527C77.1522 47.8237 77.117 47.8092 77.0728 47.8092C77.0286 47.8092 76.9934 47.8237 76.9672 47.8527C76.9414 47.8812 76.9228 47.924 76.9113 47.9811C76.9002 48.0382 76.8947 48.1091 76.8947 48.1938ZM78.2849 48.1938C78.2849 48.2753 78.2784 48.3482 78.2656 48.4127C78.2531 48.4766 78.2333 48.531 78.2062 48.5756C78.179 48.6203 78.1436 48.6543 78.0998 48.6778C78.0561 48.7013 78.0032 48.713 77.941 48.713C77.8632 48.713 77.799 48.6925 77.7484 48.6516C77.6977 48.6101 77.6602 48.5508 77.6358 48.4734C77.6114 48.3956 77.5992 48.3024 77.5992 48.1938C77.5992 48.0851 77.6103 47.9921 77.6324 47.9148C77.6549 47.837 77.6913 47.7774 77.7415 47.736C77.7916 47.6945 77.8582 47.6738 77.941 47.6738C78.0193 47.6738 78.0837 47.6945 78.1344 47.736C78.1855 47.7769 78.2232 47.8363 78.2476 47.9141C78.2725 47.9915 78.2849 48.0847 78.2849 48.1938ZM77.7629 48.1938C77.7629 48.2789 77.7684 48.3501 77.7794 48.4071C77.791 48.4642 77.8098 48.507 77.8361 48.5356C77.8623 48.5637 77.8973 48.5777 77.941 48.5777C77.9848 48.5777 78.0197 48.5637 78.046 48.5356C78.0722 48.5075 78.0911 48.4649 78.1026 48.4078C78.1146 48.3507 78.1206 48.2794 78.1206 48.1938C78.1206 48.1091 78.1148 48.0382 78.1033 47.9811C78.0918 47.924 78.0729 47.8812 78.0467 47.8527C78.0204 47.8237 77.9852 47.8092 77.941 47.8092C77.8968 47.8092 77.8616 47.8237 77.8354 47.8527C77.8096 47.8812 77.791 47.924 77.7794 47.9811C77.7684 48.0382 77.7629 48.1091 77.7629 48.1938Z" fill="#212121"/>
</g>
<defs>
<filter id="filter0_d_7813_52779" x="31.2395" y="23.0181" width="8.72124" height="6.79058" filterUnits="userSpaceOnUse" color-interpolation-filters="sRGB">
<feFlood flood-opacity="0" result="BackgroundImageFix"/>
<feColorMatrix in="SourceAlpha" type="matrix" values="0 0 0 0 0 0 0 0 0 0 0 0 0 0 0 0 0 0 127 0" result="hardAlpha"/>
<feOffset dy="0.23569"/>
<feGaussianBlur stdDeviation="0.942761"/>
<feColorMatrix type="matrix" values="0 0 0 0 0.293333 0 0 0 0 0.333211 0 0 0 0 0.431373 0 0 0 0.2 0"/>
<feBlend mode="normal" in2="BackgroundImageFix" result="effect1_dropShadow_7813_52779"/>
<feBlend mode="normal" in="SourceGraphic" in2="effect1_dropShadow_7813_52779" result="shape"/>
</filter>
<filter id="filter1_d_7813_52779" x="33.6047" y="33.8502" width="8.72124" height="6.79058" filterUnits="userSpaceOnUse" color-interpolation-filters="sRGB">
<feFlood flood-opacity="0" result="BackgroundImageFix"/>
<feColorMatrix in="SourceAlpha" type="matrix" values="0 0 0 0 0 0 0 0 0 0 0 0 0 0 0 0 0 0 127 0" result="hardAlpha"/>
<feOffset dy="0.23569"/>
<feGaussianBlur stdDeviation="0.942761"/>
<feColorMatrix type="matrix" values="0 0 0 0 0.293333 0 0 0 0 0.333211 0 0 0 0 0.431373 0 0 0 0.2 0"/>
<feBlend mode="normal" in2="BackgroundImageFix" result="effect1_dropShadow_7813_52779"/>
<feBlend mode="normal" in="SourceGraphic" in2="effect1_dropShadow_7813_52779" result="shape"/>
</filter>
<filter id="filter2_d_7813_52779" x="23.7014" y="39.7525" width="8.72124" height="6.79058" filterUnits="userSpaceOnUse" color-interpolation-filters="sRGB">
<feFlood flood-opacity="0" result="BackgroundImageFix"/>
<feColorMatrix in="SourceAlpha" type="matrix" values="0 0 0 0 0 0 0 0 0 0 0 0 0 0 0 0 0 0 127 0" result="hardAlpha"/>
<feOffset dy="0.23569"/>
<feGaussianBlur stdDeviation="0.942761"/>
<feColorMatrix type="matrix" values="0 0 0 0 0.293333 0 0 0 0 0.333211 0 0 0 0 0.431373 0 0 0 0.2 0"/>
<feBlend mode="normal" in2="BackgroundImageFix" result="effect1_dropShadow_7813_52779"/>
<feBlend mode="normal" in="SourceGraphic" in2="effect1_dropShadow_7813_52779" result="shape"/>
</filter>
<filter id="filter3_d_7813_52779" x="25.8205" y="53.6588" width="8.72124" height="6.79058" filterUnits="userSpaceOnUse" color-interpolation-filters="sRGB">
<feFlood flood-opacity="0" result="BackgroundImageFix"/>
<feColorMatrix in="SourceAlpha" type="matrix" values="0 0 0 0 0 0 0 0 0 0 0 0 0 0 0 0 0 0 127 0" result="hardAlpha"/>
<feOffset dy="0.23569"/>
<feGaussianBlur stdDeviation="0.942761"/>
<feColorMatrix type="matrix" values="0 0 0 0 0.293333 0 0 0 0 0.333211 0 0 0 0 0.431373 0 0 0 0.2 0"/>
<feBlend mode="normal" in2="BackgroundImageFix" result="effect1_dropShadow_7813_52779"/>
<feBlend mode="normal" in="SourceGraphic" in2="effect1_dropShadow_7813_52779" result="shape"/>
</filter>
<filter id="filter4_d_7813_52779" x="39.2571" y="39.9869" width="8.72124" height="6.79058" filterUnits="userSpaceOnUse" color-interpolation-filters="sRGB">
<feFlood flood-opacity="0" result="BackgroundImageFix"/>
<feColorMatrix in="SourceAlpha" type="matrix" values="0 0 0 0 0 0 0 0 0 0 0 0 0 0 0 0 0 0 127 0" result="hardAlpha"/>
<feOffset dy="0.23569"/>
<feGaussianBlur stdDeviation="0.942761"/>
<feColorMatrix type="matrix" values="0 0 0 0 0.293333 0 0 0 0 0.333211 0 0 0 0 0.431373 0 0 0 0.2 0"/>
<feBlend mode="normal" in2="BackgroundImageFix" result="effect1_dropShadow_7813_52779"/>
<feBlend mode="normal" in="SourceGraphic" in2="effect1_dropShadow_7813_52779" result="shape"/>
</filter>
<filter id="filter5_d_7813_52779" x="41.6125" y="53.6588" width="8.72124" height="6.79058" filterUnits="userSpaceOnUse" color-interpolation-filters="sRGB">
<feFlood flood-opacity="0" result="BackgroundImageFix"/>
<feColorMatrix in="SourceAlpha" type="matrix" values="0 0 0 0 0 0 0 0 0 0 0 0 0 0 0 0 0 0 127 0" result="hardAlpha"/>
<feOffset dy="0.23569"/>
<feGaussianBlur stdDeviation="0.942761"/>
<feColorMatrix type="matrix" values="0 0 0 0 0.293333 0 0 0 0 0.333211 0 0 0 0 0.431373 0 0 0 0.2 0"/>
<feBlend mode="normal" in2="BackgroundImageFix" result="effect1_dropShadow_7813_52779"/>
<feBlend mode="normal" in="SourceGraphic" in2="effect1_dropShadow_7813_52779" result="shape"/>
</filter>
<filter id="filter6_d_7813_52779" x="47.0324" y="30.7838" width="8.72124" height="6.79058" filterUnits="userSpaceOnUse" color-interpolation-filters="sRGB">
<feFlood flood-opacity="0" result="BackgroundImageFix"/>
<feColorMatrix in="SourceAlpha" type="matrix" values="0 0 0 0 0 0 0 0 0 0 0 0 0 0 0 0 0 0 127 0" result="hardAlpha"/>
<feOffset dy="0.23569"/>
<feGaussianBlur stdDeviation="0.942761"/>
<feColorMatrix type="matrix" values="0 0 0 0 0.293333 0 0 0 0 0.333211 0 0 0 0 0.431373 0 0 0 0.2 0"/>
<feBlend mode="normal" in2="BackgroundImageFix" result="effect1_dropShadow_7813_52779"/>
<feBlend mode="normal" in="SourceGraphic" in2="effect1_dropShadow_7813_52779" result="shape"/>
</filter>
<filter id="filter7_d_7813_52779" x="49.3938" y="42.1002" width="8.72124" height="6.79058" filterUnits="userSpaceOnUse" color-interpolation-filters="sRGB">
<feFlood flood-opacity="0" result="BackgroundImageFix"/>
<feColorMatrix in="SourceAlpha" type="matrix" values="0 0 0 0 0 0 0 0 0 0 0 0 0 0 0 0 0 0 127 0" result="hardAlpha"/>
<feOffset dy="0.23569"/>
<feGaussianBlur stdDeviation="0.942761"/>
<feColorMatrix type="matrix" values="0 0 0 0 0.293333 0 0 0 0 0.333211 0 0 0 0 0.431373 0 0 0 0.2 0"/>
<feBlend mode="normal" in2="BackgroundImageFix" result="effect1_dropShadow_7813_52779"/>
<feBlend mode="normal" in="SourceGraphic" in2="effect1_dropShadow_7813_52779" result="shape"/>
</filter>
<filter id="filter8_d_7813_52779" x="54.5744" y="39.7525" width="8.72124" height="6.79058" filterUnits="userSpaceOnUse" color-interpolation-filters="sRGB">
<feFlood flood-opacity="0" result="BackgroundImageFix"/>
<feColorMatrix in="SourceAlpha" type="matrix" values="0 0 0 0 0 0 0 0 0 0 0 0 0 0 0 0 0 0 127 0" result="hardAlpha"/>
<feOffset dy="0.23569"/>
<feGaussianBlur stdDeviation="0.942761"/>
<feColorMatrix type="matrix" values="0 0 0 0 0.293333 0 0 0 0 0.333211 0 0 0 0 0.431373 0 0 0 0.2 0"/>
<feBlend mode="normal" in2="BackgroundImageFix" result="effect1_dropShadow_7813_52779"/>
<feBlend mode="normal" in="SourceGraphic" in2="effect1_dropShadow_7813_52779" result="shape"/>
</filter>
<filter id="filter9_d_7813_52779" x="56.9358" y="53.6588" width="8.72124" height="6.79058" filterUnits="userSpaceOnUse" color-interpolation-filters="sRGB">
<feFlood flood-opacity="0" result="BackgroundImageFix"/>
<feColorMatrix in="SourceAlpha" type="matrix" values="0 0 0 0 0 0 0 0 0 0 0 0 0 0 0 0 0 0 127 0" result="hardAlpha"/>
<feOffset dy="0.23569"/>
<feGaussianBlur stdDeviation="0.942761"/>
<feColorMatrix type="matrix" values="0 0 0 0 0.293333 0 0 0 0 0.333211 0 0 0 0 0.431373 0 0 0 0.2 0"/>
<feBlend mode="normal" in2="BackgroundImageFix" result="effect1_dropShadow_7813_52779"/>
<feBlend mode="normal" in="SourceGraphic" in2="effect1_dropShadow_7813_52779" result="shape"/>
</filter>
<filter id="filter10_d_7813_52779" x="62.5862" y="54.5963" width="8.72124" height="6.79058" filterUnits="userSpaceOnUse" color-interpolation-filters="sRGB">
<feFlood flood-opacity="0" result="BackgroundImageFix"/>
<feColorMatrix in="SourceAlpha" type="matrix" values="0 0 0 0 0 0 0 0 0 0 0 0 0 0 0 0 0 0 127 0" result="hardAlpha"/>
<feOffset dy="0.23569"/>
<feGaussianBlur stdDeviation="0.942761"/>
<feColorMatrix type="matrix" values="0 0 0 0 0.293333 0 0 0 0 0.333211 0 0 0 0 0.431373 0 0 0 0.2 0"/>
<feBlend mode="normal" in2="BackgroundImageFix" result="effect1_dropShadow_7813_52779"/>
<feBlend mode="normal" in="SourceGraphic" in2="effect1_dropShadow_7813_52779" result="shape"/>
</filter>
<filter id="filter11_d_7813_52779" x="64.7141" y="60.0142" width="8.72124" height="6.79058" filterUnits="userSpaceOnUse" color-interpolation-filters="sRGB">
<feFlood flood-opacity="0" result="BackgroundImageFix"/>
<feColorMatrix in="SourceAlpha" type="matrix" values="0 0 0 0 0 0 0 0 0 0 0 0 0 0 0 0 0 0 127 0" result="hardAlpha"/>
<feOffset dy="0.23569"/>
<feGaussianBlur stdDeviation="0.942761"/>
<feColorMatrix type="matrix" values="0 0 0 0 0.293333 0 0 0 0 0.333211 0 0 0 0 0.431373 0 0 0 0.2 0"/>
<feBlend mode="normal" in2="BackgroundImageFix" result="effect1_dropShadow_7813_52779"/>
<feBlend mode="normal" in="SourceGraphic" in2="effect1_dropShadow_7813_52779" result="shape"/>
</filter>
<filter id="filter12_d_7813_52779" x="70.1311" y="36.9205" width="8.72124" height="6.79058" filterUnits="userSpaceOnUse" color-interpolation-filters="sRGB">
<feFlood flood-opacity="0" result="BackgroundImageFix"/>
<feColorMatrix in="SourceAlpha" type="matrix" values="0 0 0 0 0 0 0 0 0 0 0 0 0 0 0 0 0 0 127 0" result="hardAlpha"/>
<feOffset dy="0.23569"/>
<feGaussianBlur stdDeviation="0.942761"/>
<feColorMatrix type="matrix" values="0 0 0 0 0.293333 0 0 0 0 0.333211 0 0 0 0 0.431373 0 0 0 0.2 0"/>
<feBlend mode="normal" in2="BackgroundImageFix" result="effect1_dropShadow_7813_52779"/>
<feBlend mode="normal" in="SourceGraphic" in2="effect1_dropShadow_7813_52779" result="shape"/>
</filter>
<filter id="filter13_d_7813_52779" x="72.4895" y="44.94" width="8.72124" height="6.79058" filterUnits="userSpaceOnUse" color-interpolation-filters="sRGB">
<feFlood flood-opacity="0" result="BackgroundImageFix"/>
<feColorMatrix in="SourceAlpha" type="matrix" values="0 0 0 0 0 0 0 0 0 0 0 0 0 0 0 0 0 0 127 0" result="hardAlpha"/>
<feOffset dy="0.23569"/>
<feGaussianBlur stdDeviation="0.942761"/>
<feColorMatrix type="matrix" values="0 0 0 0 0.293333 0 0 0 0 0.333211 0 0 0 0 0.431373 0 0 0 0.2 0"/>
<feBlend mode="normal" in2="BackgroundImageFix" result="effect1_dropShadow_7813_52779"/>
<feBlend mode="normal" in="SourceGraphic" in2="effect1_dropShadow_7813_52779" result="shape"/>
</filter>
<clipPath id="clip0_7813_52779">
<rect width="70" height="54.9158" fill="white" transform="translate(11.6807 18.0625)"/>
</clipPath>
</defs>
</svg>
