<svg width="93" height="92" viewBox="0 0 93 92" fill="none" xmlns="http://www.w3.org/2000/svg">
<rect x="1.13104" y="0.389831" width="91.079" height="91.2203" rx="17.5424" stroke="#BEBEBE" stroke-width="0.779661"/>
<rect width="70" height="60.7317" transform="translate(11.5 15.8281)" fill="white"/>
<path d="M29.1827 68.7568C29.1827 68.8241 29.2373 68.8787 29.3047 68.8787C29.372 68.8787 29.4266 68.8241 29.4266 68.7568H29.1827ZM29.3047 21.6836H29.1827V21.9288H29.3047H29.4266V21.6836H29.3047ZM29.3047 22.4191H29.1827V22.9095H29.3047H29.4266V22.4191H29.3047ZM29.3047 23.3998H29.1827V23.8901H29.3047H29.4266V23.3998H29.3047ZM29.3047 24.3805H29.1827V24.8708H29.3047H29.4266V24.3805H29.3047ZM29.3047 25.3612H29.1827V25.8515H29.3047H29.4266V25.3612H29.3047ZM29.3047 26.3419H29.1827V26.8322H29.3047H29.4266V26.3419H29.3047ZM29.3047 27.3226H29.1827V27.8129H29.3047H29.4266V27.3226H29.3047ZM29.3047 28.3033H29.1827V28.7936H29.3047H29.4266V28.3033H29.3047ZM29.3047 29.2839H29.1827V29.7743H29.3047H29.4266V29.2839H29.3047ZM29.3047 30.2646H29.1827V30.755H29.3047H29.4266V30.2646H29.3047ZM29.3047 31.2453H29.1827V31.7357H29.3047H29.4266V31.2453H29.3047ZM29.3047 32.226H29.1827V32.7164H29.3047H29.4266V32.226H29.3047ZM29.3047 33.2067H29.1827V33.6971H29.3047H29.4266V33.2067H29.3047ZM29.3047 34.1874H29.1827V34.6778H29.3047H29.4266V34.1874H29.3047ZM29.3047 35.1681H29.1827V35.6584H29.3047H29.4266V35.1681H29.3047ZM29.3047 36.1488H29.1827V36.6391H29.3047H29.4266V36.1488H29.3047ZM29.3047 37.1295H29.1827V37.6198H29.3047H29.4266V37.1295H29.3047ZM29.3047 38.1102H29.1827V38.6005H29.3047H29.4266V38.1102H29.3047ZM29.3047 39.0909H29.1827V39.5812H29.3047H29.4266V39.0909H29.3047ZM29.3047 40.0716H29.1827V40.5619H29.3047H29.4266V40.0716H29.3047ZM29.3047 41.0522H29.1827V41.5426H29.3047H29.4266V41.0522H29.3047ZM29.3047 42.0329H29.1827V42.5233H29.3047H29.4266V42.0329H29.3047ZM29.3047 43.0136H29.1827V43.504H29.3047H29.4266V43.0136H29.3047ZM29.3047 43.9943H29.1827V44.4847H29.3047H29.4266V43.9943H29.3047ZM29.3047 44.975H29.1827V45.4654H29.3047H29.4266V44.975H29.3047ZM29.3047 45.9557H29.1827V46.446H29.3047H29.4266V45.9557H29.3047ZM29.3047 46.9364H29.1827V47.4267H29.3047H29.4266V46.9364H29.3047ZM29.3047 47.9171H29.1827V48.4074H29.3047H29.4266V47.9171H29.3047ZM29.3047 48.8978H29.1827V49.3881H29.3047H29.4266V48.8978H29.3047ZM29.3047 49.8785H29.1827V50.3688H29.3047H29.4266V49.8785H29.3047ZM29.3047 50.8591H29.1827V51.3495H29.3047H29.4266V50.8591H29.3047ZM29.3047 51.8398H29.1827V52.3302H29.3047H29.4266V51.8398H29.3047ZM29.3047 52.8205H29.1827V53.3109H29.3047H29.4266V52.8205H29.3047ZM29.3047 53.8012H29.1827V54.2916H29.3047H29.4266V53.8012H29.3047ZM29.3047 54.7819H29.1827V55.2723H29.3047H29.4266V54.7819H29.3047ZM29.3047 55.7626H29.1827V56.2529H29.3047H29.4266V55.7626H29.3047ZM29.3047 56.7433H29.1827V57.2336H29.3047H29.4266V56.7433H29.3047ZM29.3047 57.724H29.1827V58.2143H29.3047H29.4266V57.724H29.3047ZM29.3047 58.7047H29.1827V59.195H29.3047H29.4266V58.7047H29.3047ZM29.3047 59.6854H29.1827V60.1757H29.3047H29.4266V59.6854H29.3047ZM29.3047 60.666H29.1827V61.1564H29.3047H29.4266V60.666H29.3047ZM29.3047 61.6467H29.1827V62.1371H29.3047H29.4266V61.6467H29.3047ZM29.3047 62.6274H29.1827V63.1178H29.3047H29.4266V62.6274H29.3047ZM29.3047 63.6081H29.1827V64.0985H29.3047H29.4266V63.6081H29.3047ZM29.3047 64.5888H29.1827V65.0792H29.3047H29.4266V64.5888H29.3047ZM29.3047 65.5695H29.1827V66.0598H29.3047H29.4266V65.5695H29.3047ZM29.3047 66.5502H29.1827V67.0405H29.3047H29.4266V66.5502H29.3047ZM29.3047 67.5309H29.1827V68.0212H29.3047H29.4266V67.5309H29.3047ZM29.3047 68.5116H29.1827V68.7568H29.3047H29.4266V68.5116H29.3047Z" fill="#E0E0E0"/>
<path d="M37.2316 68.7568C37.2316 68.8241 37.2862 68.8787 37.3535 68.8787C37.4209 68.8787 37.4755 68.8241 37.4755 68.7568H37.2316ZM37.3535 21.6836H37.2316V21.9288H37.3535H37.4755V21.6836H37.3535ZM37.3535 22.4191H37.2316V22.9095H37.3535H37.4755V22.4191H37.3535ZM37.3535 23.3998H37.2316V23.8901H37.3535H37.4755V23.3998H37.3535ZM37.3535 24.3805H37.2316V24.8708H37.3535H37.4755V24.3805H37.3535ZM37.3535 25.3612H37.2316V25.8515H37.3535H37.4755V25.3612H37.3535ZM37.3535 26.3419H37.2316V26.8322H37.3535H37.4755V26.3419H37.3535ZM37.3535 27.3226H37.2316V27.8129H37.3535H37.4755V27.3226H37.3535ZM37.3535 28.3033H37.2316V28.7936H37.3535H37.4755V28.3033H37.3535ZM37.3535 29.2839H37.2316V29.7743H37.3535H37.4755V29.2839H37.3535ZM37.3535 30.2646H37.2316V30.755H37.3535H37.4755V30.2646H37.3535ZM37.3535 31.2453H37.2316V31.7357H37.3535H37.4755V31.2453H37.3535ZM37.3535 32.226H37.2316V32.7164H37.3535H37.4755V32.226H37.3535ZM37.3535 33.2067H37.2316V33.6971H37.3535H37.4755V33.2067H37.3535ZM37.3535 34.1874H37.2316V34.6778H37.3535H37.4755V34.1874H37.3535ZM37.3535 35.1681H37.2316V35.6584H37.3535H37.4755V35.1681H37.3535ZM37.3535 36.1488H37.2316V36.6391H37.3535H37.4755V36.1488H37.3535ZM37.3535 37.1295H37.2316V37.6198H37.3535H37.4755V37.1295H37.3535ZM37.3535 38.1102H37.2316V38.6005H37.3535H37.4755V38.1102H37.3535ZM37.3535 39.0909H37.2316V39.5812H37.3535H37.4755V39.0909H37.3535ZM37.3535 40.0716H37.2316V40.5619H37.3535H37.4755V40.0716H37.3535ZM37.3535 41.0522H37.2316V41.5426H37.3535H37.4755V41.0522H37.3535ZM37.3535 42.0329H37.2316V42.5233H37.3535H37.4755V42.0329H37.3535ZM37.3535 43.0136H37.2316V43.504H37.3535H37.4755V43.0136H37.3535ZM37.3535 43.9943H37.2316V44.4847H37.3535H37.4755V43.9943H37.3535ZM37.3535 44.975H37.2316V45.4654H37.3535H37.4755V44.975H37.3535ZM37.3535 45.9557H37.2316V46.446H37.3535H37.4755V45.9557H37.3535ZM37.3535 46.9364H37.2316V47.4267H37.3535H37.4755V46.9364H37.3535ZM37.3535 47.9171H37.2316V48.4074H37.3535H37.4755V47.9171H37.3535ZM37.3535 48.8978H37.2316V49.3881H37.3535H37.4755V48.8978H37.3535ZM37.3535 49.8785H37.2316V50.3688H37.3535H37.4755V49.8785H37.3535ZM37.3535 50.8591H37.2316V51.3495H37.3535H37.4755V50.8591H37.3535ZM37.3535 51.8398H37.2316V52.3302H37.3535H37.4755V51.8398H37.3535ZM37.3535 52.8205H37.2316V53.3109H37.3535H37.4755V52.8205H37.3535ZM37.3535 53.8012H37.2316V54.2916H37.3535H37.4755V53.8012H37.3535ZM37.3535 54.7819H37.2316V55.2723H37.3535H37.4755V54.7819H37.3535ZM37.3535 55.7626H37.2316V56.2529H37.3535H37.4755V55.7626H37.3535ZM37.3535 56.7433H37.2316V57.2336H37.3535H37.4755V56.7433H37.3535ZM37.3535 57.724H37.2316V58.2143H37.3535H37.4755V57.724H37.3535ZM37.3535 58.7047H37.2316V59.195H37.3535H37.4755V58.7047H37.3535ZM37.3535 59.6854H37.2316V60.1757H37.3535H37.4755V59.6854H37.3535ZM37.3535 60.666H37.2316V61.1564H37.3535H37.4755V60.666H37.3535ZM37.3535 61.6467H37.2316V62.1371H37.3535H37.4755V61.6467H37.3535ZM37.3535 62.6274H37.2316V63.1178H37.3535H37.4755V62.6274H37.3535ZM37.3535 63.6081H37.2316V64.0985H37.3535H37.4755V63.6081H37.3535ZM37.3535 64.5888H37.2316V65.0792H37.3535H37.4755V64.5888H37.3535ZM37.3535 65.5695H37.2316V66.0598H37.3535H37.4755V65.5695H37.3535ZM37.3535 66.5502H37.2316V67.0405H37.3535H37.4755V66.5502H37.3535ZM37.3535 67.5309H37.2316V68.0212H37.3535H37.4755V67.5309H37.3535ZM37.3535 68.5116H37.2316V68.7568H37.3535H37.4755V68.5116H37.3535Z" fill="#E0E0E0"/>
<path d="M45.2804 68.7568C45.2804 68.8241 45.335 68.8787 45.4023 68.8787C45.4697 68.8787 45.5243 68.8241 45.5243 68.7568H45.2804ZM45.4023 21.6836H45.2804V21.9288H45.4023H45.5243V21.6836H45.4023ZM45.4023 22.4191H45.2804V22.9095H45.4023H45.5243V22.4191H45.4023ZM45.4023 23.3998H45.2804V23.8901H45.4023H45.5243V23.3998H45.4023ZM45.4023 24.3805H45.2804V24.8708H45.4023H45.5243V24.3805H45.4023ZM45.4023 25.3612H45.2804V25.8515H45.4023H45.5243V25.3612H45.4023ZM45.4023 26.3419H45.2804V26.8322H45.4023H45.5243V26.3419H45.4023ZM45.4023 27.3226H45.2804V27.8129H45.4023H45.5243V27.3226H45.4023ZM45.4023 28.3033H45.2804V28.7936H45.4023H45.5243V28.3033H45.4023ZM45.4023 29.2839H45.2804V29.7743H45.4023H45.5243V29.2839H45.4023ZM45.4023 30.2646H45.2804V30.755H45.4023H45.5243V30.2646H45.4023ZM45.4023 31.2453H45.2804V31.7357H45.4023H45.5243V31.2453H45.4023ZM45.4023 32.226H45.2804V32.7164H45.4023H45.5243V32.226H45.4023ZM45.4023 33.2067H45.2804V33.6971H45.4023H45.5243V33.2067H45.4023ZM45.4023 34.1874H45.2804V34.6778H45.4023H45.5243V34.1874H45.4023ZM45.4023 35.1681H45.2804V35.6584H45.4023H45.5243V35.1681H45.4023ZM45.4023 36.1488H45.2804V36.6391H45.4023H45.5243V36.1488H45.4023ZM45.4023 37.1295H45.2804V37.6198H45.4023H45.5243V37.1295H45.4023ZM45.4023 38.1102H45.2804V38.6005H45.4023H45.5243V38.1102H45.4023ZM45.4023 39.0909H45.2804V39.5812H45.4023H45.5243V39.0909H45.4023ZM45.4023 40.0716H45.2804V40.5619H45.4023H45.5243V40.0716H45.4023ZM45.4023 41.0522H45.2804V41.5426H45.4023H45.5243V41.0522H45.4023ZM45.4023 42.0329H45.2804V42.5233H45.4023H45.5243V42.0329H45.4023ZM45.4023 43.0136H45.2804V43.504H45.4023H45.5243V43.0136H45.4023ZM45.4023 43.9943H45.2804V44.4847H45.4023H45.5243V43.9943H45.4023ZM45.4023 44.975H45.2804V45.4654H45.4023H45.5243V44.975H45.4023ZM45.4023 45.9557H45.2804V46.446H45.4023H45.5243V45.9557H45.4023ZM45.4023 46.9364H45.2804V47.4267H45.4023H45.5243V46.9364H45.4023ZM45.4023 47.9171H45.2804V48.4074H45.4023H45.5243V47.9171H45.4023ZM45.4023 48.8978H45.2804V49.3881H45.4023H45.5243V48.8978H45.4023ZM45.4023 49.8785H45.2804V50.3688H45.4023H45.5243V49.8785H45.4023ZM45.4023 50.8591H45.2804V51.3495H45.4023H45.5243V50.8591H45.4023ZM45.4023 51.8398H45.2804V52.3302H45.4023H45.5243V51.8398H45.4023ZM45.4023 52.8205H45.2804V53.3109H45.4023H45.5243V52.8205H45.4023ZM45.4023 53.8012H45.2804V54.2916H45.4023H45.5243V53.8012H45.4023ZM45.4023 54.7819H45.2804V55.2723H45.4023H45.5243V54.7819H45.4023ZM45.4023 55.7626H45.2804V56.2529H45.4023H45.5243V55.7626H45.4023ZM45.4023 56.7433H45.2804V57.2336H45.4023H45.5243V56.7433H45.4023ZM45.4023 57.724H45.2804V58.2143H45.4023H45.5243V57.724H45.4023ZM45.4023 58.7047H45.2804V59.195H45.4023H45.5243V58.7047H45.4023ZM45.4023 59.6854H45.2804V60.1757H45.4023H45.5243V59.6854H45.4023ZM45.4023 60.666H45.2804V61.1564H45.4023H45.5243V60.666H45.4023ZM45.4023 61.6467H45.2804V62.1371H45.4023H45.5243V61.6467H45.4023ZM45.4023 62.6274H45.2804V63.1178H45.4023H45.5243V62.6274H45.4023ZM45.4023 63.6081H45.2804V64.0985H45.4023H45.5243V63.6081H45.4023ZM45.4023 64.5888H45.2804V65.0792H45.4023H45.5243V64.5888H45.4023ZM45.4023 65.5695H45.2804V66.0598H45.4023H45.5243V65.5695H45.4023ZM45.4023 66.5502H45.2804V67.0405H45.4023H45.5243V66.5502H45.4023ZM45.4023 67.5309H45.2804V68.0212H45.4023H45.5243V67.5309H45.4023ZM45.4023 68.5116H45.2804V68.7568H45.4023H45.5243V68.5116H45.4023Z" fill="#E0E0E0"/>
<path d="M53.3292 68.7568C53.3292 68.8241 53.3838 68.8787 53.4512 68.8787C53.5185 68.8787 53.5731 68.8241 53.5731 68.7568H53.3292ZM53.4512 21.6836H53.3292V21.9288H53.4512H53.5731V21.6836H53.4512ZM53.4512 22.4191H53.3292V22.9095H53.4512H53.5731V22.4191H53.4512ZM53.4512 23.3998H53.3292V23.8901H53.4512H53.5731V23.3998H53.4512ZM53.4512 24.3805H53.3292V24.8708H53.4512H53.5731V24.3805H53.4512ZM53.4512 25.3612H53.3292V25.8515H53.4512H53.5731V25.3612H53.4512ZM53.4512 26.3419H53.3292V26.8322H53.4512H53.5731V26.3419H53.4512ZM53.4512 27.3226H53.3292V27.8129H53.4512H53.5731V27.3226H53.4512ZM53.4512 28.3033H53.3292V28.7936H53.4512H53.5731V28.3033H53.4512ZM53.4512 29.2839H53.3292V29.7743H53.4512H53.5731V29.2839H53.4512ZM53.4512 30.2646H53.3292V30.755H53.4512H53.5731V30.2646H53.4512ZM53.4512 31.2453H53.3292V31.7357H53.4512H53.5731V31.2453H53.4512ZM53.4512 32.226H53.3292V32.7164H53.4512H53.5731V32.226H53.4512ZM53.4512 33.2067H53.3292V33.6971H53.4512H53.5731V33.2067H53.4512ZM53.4512 34.1874H53.3292V34.6778H53.4512H53.5731V34.1874H53.4512ZM53.4512 35.1681H53.3292V35.6584H53.4512H53.5731V35.1681H53.4512ZM53.4512 36.1488H53.3292V36.6391H53.4512H53.5731V36.1488H53.4512ZM53.4512 37.1295H53.3292V37.6198H53.4512H53.5731V37.1295H53.4512ZM53.4512 38.1102H53.3292V38.6005H53.4512H53.5731V38.1102H53.4512ZM53.4512 39.0909H53.3292V39.5812H53.4512H53.5731V39.0909H53.4512ZM53.4512 40.0716H53.3292V40.5619H53.4512H53.5731V40.0716H53.4512ZM53.4512 41.0522H53.3292V41.5426H53.4512H53.5731V41.0522H53.4512ZM53.4512 42.0329H53.3292V42.5233H53.4512H53.5731V42.0329H53.4512ZM53.4512 43.0136H53.3292V43.504H53.4512H53.5731V43.0136H53.4512ZM53.4512 43.9943H53.3292V44.4847H53.4512H53.5731V43.9943H53.4512ZM53.4512 44.975H53.3292V45.4654H53.4512H53.5731V44.975H53.4512ZM53.4512 45.9557H53.3292V46.446H53.4512H53.5731V45.9557H53.4512ZM53.4512 46.9364H53.3292V47.4267H53.4512H53.5731V46.9364H53.4512ZM53.4512 47.9171H53.3292V48.4074H53.4512H53.5731V47.9171H53.4512ZM53.4512 48.8978H53.3292V49.3881H53.4512H53.5731V48.8978H53.4512ZM53.4512 49.8785H53.3292V50.3688H53.4512H53.5731V49.8785H53.4512ZM53.4512 50.8591H53.3292V51.3495H53.4512H53.5731V50.8591H53.4512ZM53.4512 51.8398H53.3292V52.3302H53.4512H53.5731V51.8398H53.4512ZM53.4512 52.8205H53.3292V53.3109H53.4512H53.5731V52.8205H53.4512ZM53.4512 53.8012H53.3292V54.2916H53.4512H53.5731V53.8012H53.4512ZM53.4512 54.7819H53.3292V55.2723H53.4512H53.5731V54.7819H53.4512ZM53.4512 55.7626H53.3292V56.2529H53.4512H53.5731V55.7626H53.4512ZM53.4512 56.7433H53.3292V57.2336H53.4512H53.5731V56.7433H53.4512ZM53.4512 57.724H53.3292V58.2143H53.4512H53.5731V57.724H53.4512ZM53.4512 58.7047H53.3292V59.195H53.4512H53.5731V58.7047H53.4512ZM53.4512 59.6854H53.3292V60.1757H53.4512H53.5731V59.6854H53.4512ZM53.4512 60.666H53.3292V61.1564H53.4512H53.5731V60.666H53.4512ZM53.4512 61.6467H53.3292V62.1371H53.4512H53.5731V61.6467H53.4512ZM53.4512 62.6274H53.3292V63.1178H53.4512H53.5731V62.6274H53.4512ZM53.4512 63.6081H53.3292V64.0985H53.4512H53.5731V63.6081H53.4512ZM53.4512 64.5888H53.3292V65.0792H53.4512H53.5731V64.5888H53.4512ZM53.4512 65.5695H53.3292V66.0598H53.4512H53.5731V65.5695H53.4512ZM53.4512 66.5502H53.3292V67.0405H53.4512H53.5731V66.5502H53.4512ZM53.4512 67.5309H53.3292V68.0212H53.4512H53.5731V67.5309H53.4512ZM53.4512 68.5116H53.3292V68.7568H53.4512H53.5731V68.5116H53.4512Z" fill="#E0E0E0"/>
<path d="M61.378 68.7568C61.378 68.8241 61.4326 68.8787 61.5 68.8787C61.5674 68.8787 61.622 68.8241 61.622 68.7568H61.378ZM61.5 21.6836H61.378V21.9288H61.5H61.622V21.6836H61.5ZM61.5 22.4191H61.378V22.9095H61.5H61.622V22.4191H61.5ZM61.5 23.3998H61.378V23.8901H61.5H61.622V23.3998H61.5ZM61.5 24.3805H61.378V24.8708H61.5H61.622V24.3805H61.5ZM61.5 25.3612H61.378V25.8515H61.5H61.622V25.3612H61.5ZM61.5 26.3419H61.378V26.8322H61.5H61.622V26.3419H61.5ZM61.5 27.3226H61.378V27.8129H61.5H61.622V27.3226H61.5ZM61.5 28.3033H61.378V28.7936H61.5H61.622V28.3033H61.5ZM61.5 29.2839H61.378V29.7743H61.5H61.622V29.2839H61.5ZM61.5 30.2646H61.378V30.755H61.5H61.622V30.2646H61.5ZM61.5 31.2453H61.378V31.7357H61.5H61.622V31.2453H61.5ZM61.5 32.226H61.378V32.7164H61.5H61.622V32.226H61.5ZM61.5 33.2067H61.378V33.6971H61.5H61.622V33.2067H61.5ZM61.5 34.1874H61.378V34.6778H61.5H61.622V34.1874H61.5ZM61.5 35.1681H61.378V35.6584H61.5H61.622V35.1681H61.5ZM61.5 36.1488H61.378V36.6391H61.5H61.622V36.1488H61.5ZM61.5 37.1295H61.378V37.6198H61.5H61.622V37.1295H61.5ZM61.5 38.1102H61.378V38.6005H61.5H61.622V38.1102H61.5ZM61.5 39.0909H61.378V39.5812H61.5H61.622V39.0909H61.5ZM61.5 40.0716H61.378V40.5619H61.5H61.622V40.0716H61.5ZM61.5 41.0522H61.378V41.5426H61.5H61.622V41.0522H61.5ZM61.5 42.0329H61.378V42.5233H61.5H61.622V42.0329H61.5ZM61.5 43.0136H61.378V43.504H61.5H61.622V43.0136H61.5ZM61.5 43.9943H61.378V44.4847H61.5H61.622V43.9943H61.5ZM61.5 44.975H61.378V45.4654H61.5H61.622V44.975H61.5ZM61.5 45.9557H61.378V46.446H61.5H61.622V45.9557H61.5ZM61.5 46.9364H61.378V47.4267H61.5H61.622V46.9364H61.5ZM61.5 47.9171H61.378V48.4074H61.5H61.622V47.9171H61.5ZM61.5 48.8978H61.378V49.3881H61.5H61.622V48.8978H61.5ZM61.5 49.8785H61.378V50.3688H61.5H61.622V49.8785H61.5ZM61.5 50.8591H61.378V51.3495H61.5H61.622V50.8591H61.5ZM61.5 51.8398H61.378V52.3302H61.5H61.622V51.8398H61.5ZM61.5 52.8205H61.378V53.3109H61.5H61.622V52.8205H61.5ZM61.5 53.8012H61.378V54.2916H61.5H61.622V53.8012H61.5ZM61.5 54.7819H61.378V55.2723H61.5H61.622V54.7819H61.5ZM61.5 55.7626H61.378V56.2529H61.5H61.622V55.7626H61.5ZM61.5 56.7433H61.378V57.2336H61.5H61.622V56.7433H61.5ZM61.5 57.724H61.378V58.2143H61.5H61.622V57.724H61.5ZM61.5 58.7047H61.378V59.195H61.5H61.622V58.7047H61.5ZM61.5 59.6854H61.378V60.1757H61.5H61.622V59.6854H61.5ZM61.5 60.666H61.378V61.1564H61.5H61.622V60.666H61.5ZM61.5 61.6467H61.378V62.1371H61.5H61.622V61.6467H61.5ZM61.5 62.6274H61.378V63.1178H61.5H61.622V62.6274H61.5ZM61.5 63.6081H61.378V64.0985H61.5H61.622V63.6081H61.5ZM61.5 64.5888H61.378V65.0792H61.5H61.622V64.5888H61.5ZM61.5 65.5695H61.378V66.0598H61.5H61.622V65.5695H61.5ZM61.5 66.5502H61.378V67.0405H61.5H61.622V66.5502H61.5ZM61.5 67.5309H61.378V68.0212H61.5H61.622V67.5309H61.5ZM61.5 68.5116H61.378V68.7568H61.5H61.622V68.5116H61.5Z" fill="#E0E0E0"/>
<path d="M69.4269 68.7568C69.4269 68.8241 69.4815 68.8787 69.5488 68.8787C69.6162 68.8787 69.6708 68.8241 69.6708 68.7568H69.4269ZM69.5488 21.6836H69.4269V21.9288H69.5488H69.6708V21.6836H69.5488ZM69.5488 22.4191H69.4269V22.9095H69.5488H69.6708V22.4191H69.5488ZM69.5488 23.3998H69.4269V23.8901H69.5488H69.6708V23.3998H69.5488ZM69.5488 24.3805H69.4269V24.8708H69.5488H69.6708V24.3805H69.5488ZM69.5488 25.3612H69.4269V25.8515H69.5488H69.6708V25.3612H69.5488ZM69.5488 26.3419H69.4269V26.8322H69.5488H69.6708V26.3419H69.5488ZM69.5488 27.3226H69.4269V27.8129H69.5488H69.6708V27.3226H69.5488ZM69.5488 28.3033H69.4269V28.7936H69.5488H69.6708V28.3033H69.5488ZM69.5488 29.2839H69.4269V29.7743H69.5488H69.6708V29.2839H69.5488ZM69.5488 30.2646H69.4269V30.755H69.5488H69.6708V30.2646H69.5488ZM69.5488 31.2453H69.4269V31.7357H69.5488H69.6708V31.2453H69.5488ZM69.5488 32.226H69.4269V32.7164H69.5488H69.6708V32.226H69.5488ZM69.5488 33.2067H69.4269V33.6971H69.5488H69.6708V33.2067H69.5488ZM69.5488 34.1874H69.4269V34.6778H69.5488H69.6708V34.1874H69.5488ZM69.5488 35.1681H69.4269V35.6584H69.5488H69.6708V35.1681H69.5488ZM69.5488 36.1488H69.4269V36.6391H69.5488H69.6708V36.1488H69.5488ZM69.5488 37.1295H69.4269V37.6198H69.5488H69.6708V37.1295H69.5488ZM69.5488 38.1102H69.4269V38.6005H69.5488H69.6708V38.1102H69.5488ZM69.5488 39.0909H69.4269V39.5812H69.5488H69.6708V39.0909H69.5488ZM69.5488 40.0716H69.4269V40.5619H69.5488H69.6708V40.0716H69.5488ZM69.5488 41.0522H69.4269V41.5426H69.5488H69.6708V41.0522H69.5488ZM69.5488 42.0329H69.4269V42.5233H69.5488H69.6708V42.0329H69.5488ZM69.5488 43.0136H69.4269V43.504H69.5488H69.6708V43.0136H69.5488ZM69.5488 43.9943H69.4269V44.4847H69.5488H69.6708V43.9943H69.5488ZM69.5488 44.975H69.4269V45.4654H69.5488H69.6708V44.975H69.5488ZM69.5488 45.9557H69.4269V46.446H69.5488H69.6708V45.9557H69.5488ZM69.5488 46.9364H69.4269V47.4267H69.5488H69.6708V46.9364H69.5488ZM69.5488 47.9171H69.4269V48.4074H69.5488H69.6708V47.9171H69.5488ZM69.5488 48.8978H69.4269V49.3881H69.5488H69.6708V48.8978H69.5488ZM69.5488 49.8785H69.4269V50.3688H69.5488H69.6708V49.8785H69.5488ZM69.5488 50.8591H69.4269V51.3495H69.5488H69.6708V50.8591H69.5488ZM69.5488 51.8398H69.4269V52.3302H69.5488H69.6708V51.8398H69.5488ZM69.5488 52.8205H69.4269V53.3109H69.5488H69.6708V52.8205H69.5488ZM69.5488 53.8012H69.4269V54.2916H69.5488H69.6708V53.8012H69.5488ZM69.5488 54.7819H69.4269V55.2723H69.5488H69.6708V54.7819H69.5488ZM69.5488 55.7626H69.4269V56.2529H69.5488H69.6708V55.7626H69.5488ZM69.5488 56.7433H69.4269V57.2336H69.5488H69.6708V56.7433H69.5488ZM69.5488 57.724H69.4269V58.2143H69.5488H69.6708V57.724H69.5488ZM69.5488 58.7047H69.4269V59.195H69.5488H69.6708V58.7047H69.5488ZM69.5488 59.6854H69.4269V60.1757H69.5488H69.6708V59.6854H69.5488ZM69.5488 60.666H69.4269V61.1564H69.5488H69.6708V60.666H69.5488ZM69.5488 61.6467H69.4269V62.1371H69.5488H69.6708V61.6467H69.5488ZM69.5488 62.6274H69.4269V63.1178H69.5488H69.6708V62.6274H69.5488ZM69.5488 63.6081H69.4269V64.0985H69.5488H69.6708V63.6081H69.5488ZM69.5488 64.5888H69.4269V65.0792H69.5488H69.6708V64.5888H69.5488ZM69.5488 65.5695H69.4269V66.0598H69.5488H69.6708V65.5695H69.5488ZM69.5488 66.5502H69.4269V67.0405H69.5488H69.6708V66.5502H69.5488ZM69.5488 67.5309H69.4269V68.0212H69.5488H69.6708V67.5309H69.5488ZM69.5488 68.5116H69.4269V68.7568H69.5488H69.6708V68.5116H69.5488Z" fill="#E0E0E0"/>
<path d="M77.4757 68.7568C77.4757 68.8241 77.5303 68.8787 77.5977 68.8787C77.665 68.8787 77.7196 68.8241 77.7196 68.7568H77.4757ZM77.5977 21.6836H77.4757V21.9288H77.5977H77.7196V21.6836H77.5977ZM77.5977 22.4191H77.4757V22.9095H77.5977H77.7196V22.4191H77.5977ZM77.5977 23.3998H77.4757V23.8901H77.5977H77.7196V23.3998H77.5977ZM77.5977 24.3805H77.4757V24.8708H77.5977H77.7196V24.3805H77.5977ZM77.5977 25.3612H77.4757V25.8515H77.5977H77.7196V25.3612H77.5977ZM77.5977 26.3419H77.4757V26.8322H77.5977H77.7196V26.3419H77.5977ZM77.5977 27.3226H77.4757V27.8129H77.5977H77.7196V27.3226H77.5977ZM77.5977 28.3033H77.4757V28.7936H77.5977H77.7196V28.3033H77.5977ZM77.5977 29.2839H77.4757V29.7743H77.5977H77.7196V29.2839H77.5977ZM77.5977 30.2646H77.4757V30.755H77.5977H77.7196V30.2646H77.5977ZM77.5977 31.2453H77.4757V31.7357H77.5977H77.7196V31.2453H77.5977ZM77.5977 32.226H77.4757V32.7164H77.5977H77.7196V32.226H77.5977ZM77.5977 33.2067H77.4757V33.6971H77.5977H77.7196V33.2067H77.5977ZM77.5977 34.1874H77.4757V34.6778H77.5977H77.7196V34.1874H77.5977ZM77.5977 35.1681H77.4757V35.6584H77.5977H77.7196V35.1681H77.5977ZM77.5977 36.1488H77.4757V36.6391H77.5977H77.7196V36.1488H77.5977ZM77.5977 37.1295H77.4757V37.6198H77.5977H77.7196V37.1295H77.5977ZM77.5977 38.1102H77.4757V38.6005H77.5977H77.7196V38.1102H77.5977ZM77.5977 39.0909H77.4757V39.5812H77.5977H77.7196V39.0909H77.5977ZM77.5977 40.0716H77.4757V40.5619H77.5977H77.7196V40.0716H77.5977ZM77.5977 41.0522H77.4757V41.5426H77.5977H77.7196V41.0522H77.5977ZM77.5977 42.0329H77.4757V42.5233H77.5977H77.7196V42.0329H77.5977ZM77.5977 43.0136H77.4757V43.504H77.5977H77.7196V43.0136H77.5977ZM77.5977 43.9943H77.4757V44.4847H77.5977H77.7196V43.9943H77.5977ZM77.5977 44.975H77.4757V45.4654H77.5977H77.7196V44.975H77.5977ZM77.5977 45.9557H77.4757V46.446H77.5977H77.7196V45.9557H77.5977ZM77.5977 46.9364H77.4757V47.4267H77.5977H77.7196V46.9364H77.5977ZM77.5977 47.9171H77.4757V48.4074H77.5977H77.7196V47.9171H77.5977ZM77.5977 48.8978H77.4757V49.3881H77.5977H77.7196V48.8978H77.5977ZM77.5977 49.8785H77.4757V50.3688H77.5977H77.7196V49.8785H77.5977ZM77.5977 50.8591H77.4757V51.3495H77.5977H77.7196V50.8591H77.5977ZM77.5977 51.8398H77.4757V52.3302H77.5977H77.7196V51.8398H77.5977ZM77.5977 52.8205H77.4757V53.3109H77.5977H77.7196V52.8205H77.5977ZM77.5977 53.8012H77.4757V54.2916H77.5977H77.7196V53.8012H77.5977ZM77.5977 54.7819H77.4757V55.2723H77.5977H77.7196V54.7819H77.5977ZM77.5977 55.7626H77.4757V56.2529H77.5977H77.7196V55.7626H77.5977ZM77.5977 56.7433H77.4757V57.2336H77.5977H77.7196V56.7433H77.5977ZM77.5977 57.724H77.4757V58.2143H77.5977H77.7196V57.724H77.5977ZM77.5977 58.7047H77.4757V59.195H77.5977H77.7196V58.7047H77.5977ZM77.5977 59.6854H77.4757V60.1757H77.5977H77.7196V59.6854H77.5977ZM77.5977 60.666H77.4757V61.1564H77.5977H77.7196V60.666H77.5977ZM77.5977 61.6467H77.4757V62.1371H77.5977H77.7196V61.6467H77.5977ZM77.5977 62.6274H77.4757V63.1178H77.5977H77.7196V62.6274H77.5977ZM77.5977 63.6081H77.4757V64.0985H77.5977H77.7196V63.6081H77.5977ZM77.5977 64.5888H77.4757V65.0792H77.5977H77.7196V64.5888H77.5977ZM77.5977 65.5695H77.4757V66.0598H77.5977H77.7196V65.5695H77.5977ZM77.5977 66.5502H77.4757V67.0405H77.5977H77.7196V66.5502H77.5977ZM77.5977 67.5309H77.4757V68.0212H77.5977H77.7196V67.5309H77.5977ZM77.5977 68.5116H77.4757V68.7568H77.5977H77.7196V68.5116H77.5977Z" fill="#E0E0E0"/>
<path d="M15.3599 23.6836H14.4471V23.5512L14.8197 23.1729C14.8889 23.1031 14.947 23.0408 14.994 22.9862C15.0417 22.9316 15.0779 22.8779 15.1026 22.8252C15.1274 22.7718 15.1398 22.7134 15.1398 22.6499C15.1398 22.5711 15.1163 22.5111 15.0693 22.4698C15.0229 22.4279 14.9616 22.4069 14.8854 22.4069C14.8187 22.4069 14.7596 22.4183 14.7082 22.4412C14.6568 22.4641 14.604 22.4965 14.55 22.5384L14.4652 22.4317C14.5021 22.4006 14.5421 22.3729 14.5853 22.3488C14.6291 22.3247 14.6758 22.3056 14.7253 22.2916C14.7755 22.2777 14.8289 22.2707 14.8854 22.2707C14.9712 22.2707 15.0452 22.2856 15.1074 22.3155C15.1696 22.3453 15.2176 22.3879 15.2513 22.4431C15.2856 22.4984 15.3027 22.5641 15.3027 22.6403C15.3027 22.714 15.2881 22.7826 15.2589 22.8461C15.2297 22.909 15.1887 22.9716 15.136 23.0338C15.0833 23.0954 15.0217 23.1609 14.9511 23.2301L14.6482 23.5321V23.5388H15.3599V23.6836ZM16.0039 22.8318C16.0986 22.8318 16.1808 22.848 16.2507 22.8804C16.3206 22.9122 16.3745 22.9586 16.4127 23.0195C16.4514 23.0805 16.4708 23.1545 16.4708 23.2415C16.4708 23.3368 16.4501 23.419 16.4088 23.4883C16.3676 23.5569 16.3082 23.6099 16.2307 23.6474C16.1532 23.6842 16.0605 23.7026 15.9525 23.7026C15.8801 23.7026 15.8127 23.6963 15.7505 23.6836C15.6883 23.6709 15.6359 23.6518 15.5933 23.6264V23.4759C15.6397 23.5038 15.6959 23.5261 15.7619 23.5426C15.828 23.5591 15.8921 23.5674 15.9544 23.5674C16.0249 23.5674 16.0865 23.5562 16.1392 23.534C16.1926 23.5111 16.2339 23.4768 16.2631 23.4311C16.2929 23.3847 16.3079 23.3266 16.3079 23.2568C16.3079 23.164 16.2793 23.0926 16.2221 23.0424C16.1656 22.9916 16.076 22.9662 15.9534 22.9662C15.9141 22.9662 15.8709 22.9694 15.8239 22.9757C15.7769 22.9821 15.7381 22.989 15.7076 22.9967L15.6276 22.9443L15.6809 22.2907H16.3736V22.4355H15.8162L15.781 22.8557C15.8051 22.8506 15.8362 22.8455 15.8744 22.8404C15.9125 22.8347 15.9557 22.8318 16.0039 22.8318ZM17.6007 22.9852C17.6007 23.0983 17.5922 23.1993 17.575 23.2882C17.5579 23.3771 17.5309 23.4524 17.494 23.514C17.4572 23.5756 17.4095 23.6226 17.3511 23.655C17.2927 23.6868 17.2225 23.7026 17.1406 23.7026C17.037 23.7026 16.9513 23.6744 16.8833 23.6179C16.816 23.5613 16.7655 23.4797 16.7318 23.373C16.6988 23.2657 16.6823 23.1364 16.6823 22.9852C16.6823 22.8366 16.6972 22.7089 16.7271 22.6022C16.7576 22.4949 16.8065 22.4126 16.8738 22.3555C16.9411 22.2977 17.03 22.2688 17.1406 22.2688C17.2454 22.2688 17.3317 22.2974 17.3997 22.3545C17.4677 22.411 17.5182 22.493 17.5512 22.6003C17.5842 22.707 17.6007 22.8353 17.6007 22.9852ZM16.8414 22.9852C16.8414 23.1148 16.8512 23.2228 16.8709 23.3092C16.8906 23.3955 16.9224 23.4603 16.9662 23.5035C17.0107 23.5461 17.0688 23.5674 17.1406 23.5674C17.2123 23.5674 17.2701 23.5461 17.314 23.5035C17.3584 23.461 17.3905 23.3965 17.4102 23.3101C17.4305 23.2237 17.4407 23.1154 17.4407 22.9852C17.4407 22.8576 17.4308 22.7509 17.4111 22.6651C17.3914 22.5787 17.3597 22.5139 17.3159 22.4708C17.272 22.4269 17.2136 22.405 17.1406 22.405C17.0675 22.405 17.0091 22.4269 16.9652 22.4708C16.9214 22.5139 16.8897 22.5787 16.87 22.6651C16.8509 22.7509 16.8414 22.8576 16.8414 22.9852ZM18.7173 22.9852C18.7173 23.0983 18.7088 23.1993 18.6916 23.2882C18.6745 23.3771 18.6475 23.4524 18.6106 23.514C18.5738 23.5756 18.5262 23.6226 18.4677 23.655C18.4093 23.6868 18.3391 23.7026 18.2572 23.7026C18.1536 23.7026 18.0679 23.6744 17.9999 23.6179C17.9326 23.5613 17.8821 23.4797 17.8484 23.373C17.8154 23.2657 17.7989 23.1364 17.7989 22.9852C17.7989 22.8366 17.8138 22.7089 17.8437 22.6022C17.8742 22.4949 17.9231 22.4126 17.9904 22.3555C18.0577 22.2977 18.1467 22.2688 18.2572 22.2688C18.362 22.2688 18.4484 22.2974 18.5163 22.3545C18.5843 22.411 18.6348 22.493 18.6678 22.6003C18.7008 22.707 18.7173 22.8353 18.7173 22.9852ZM17.958 22.9852C17.958 23.1148 17.9679 23.2228 17.9875 23.3092C18.0072 23.3955 18.039 23.4603 18.0828 23.5035C18.1273 23.5461 18.1854 23.5674 18.2572 23.5674C18.3289 23.5674 18.3867 23.5461 18.4306 23.5035C18.475 23.461 18.5071 23.3965 18.5268 23.3101C18.5471 23.2237 18.5573 23.1154 18.5573 22.9852C18.5573 22.8576 18.5474 22.7509 18.5277 22.6651C18.5081 22.5787 18.4763 22.5139 18.4325 22.4708C18.3886 22.4269 18.3302 22.405 18.2572 22.405C18.1841 22.405 18.1257 22.4269 18.0819 22.4708C18.038 22.5139 18.0063 22.5787 17.9866 22.6651C17.9675 22.7509 17.958 22.8576 17.958 22.9852Z" fill="#212121"/>
<path d="M15.3599 31.0742H14.4471V30.9418L14.8197 30.5635C14.8889 30.4937 14.947 30.4314 14.994 30.3768C15.0417 30.3222 15.0779 30.2685 15.1026 30.2158C15.1274 30.1624 15.1398 30.104 15.1398 30.0405C15.1398 29.9617 15.1163 29.9017 15.0693 29.8604C15.0229 29.8185 14.9616 29.7975 14.8854 29.7975C14.8187 29.7975 14.7596 29.809 14.7082 29.8318C14.6568 29.8547 14.604 29.8871 14.55 29.929L14.4652 29.8223C14.5021 29.7912 14.5421 29.7636 14.5853 29.7394C14.6291 29.7153 14.6758 29.6962 14.7253 29.6823C14.7755 29.6683 14.8289 29.6613 14.8854 29.6613C14.9712 29.6613 15.0452 29.6762 15.1074 29.7061C15.1696 29.7359 15.2176 29.7785 15.2513 29.8337C15.2856 29.889 15.3027 29.9547 15.3027 30.031C15.3027 30.1046 15.2881 30.1732 15.2589 30.2368C15.2297 30.2996 15.1887 30.3622 15.136 30.4244C15.0833 30.4861 15.0217 30.5515 14.9511 30.6207L14.6482 30.9227V30.9294H15.3599V31.0742ZM16.4841 30.3759C16.4841 30.4889 16.4755 30.5899 16.4584 30.6788C16.4412 30.7678 16.4142 30.843 16.3774 30.9046C16.3406 30.9662 16.2929 31.0132 16.2345 31.0456C16.1761 31.0774 16.1059 31.0933 16.0239 31.0933C15.9204 31.0933 15.8347 31.065 15.7667 31.0085C15.6994 30.9519 15.6489 30.8703 15.6152 30.7636C15.5822 30.6563 15.5657 30.527 15.5657 30.3759C15.5657 30.2272 15.5806 30.0996 15.6104 29.9929C15.6409 29.8855 15.6898 29.8033 15.7572 29.7461C15.8245 29.6883 15.9134 29.6594 16.0239 29.6594C16.1287 29.6594 16.2151 29.688 16.2831 29.7451C16.351 29.8017 16.4015 29.8836 16.4346 29.9909C16.4676 30.0977 16.4841 30.226 16.4841 30.3759ZM15.7248 30.3759C15.7248 30.5054 15.7346 30.6134 15.7543 30.6998C15.774 30.7862 15.8058 30.851 15.8496 30.8942C15.894 30.9367 15.9522 30.958 16.0239 30.958C16.0957 30.958 16.1535 30.9367 16.1973 30.8942C16.2418 30.8516 16.2739 30.7871 16.2936 30.7007C16.3139 30.6144 16.3241 30.5061 16.3241 30.3759C16.3241 30.2482 16.3142 30.1415 16.2945 30.0557C16.2748 29.9694 16.2431 29.9046 16.1992 29.8614C16.1554 29.8175 16.097 29.7956 16.0239 29.7956C15.9509 29.7956 15.8925 29.8175 15.8486 29.8614C15.8048 29.9046 15.773 29.9694 15.7534 30.0557C15.7343 30.1415 15.7248 30.2482 15.7248 30.3759ZM17.6007 30.3759C17.6007 30.4889 17.5922 30.5899 17.575 30.6788C17.5579 30.7678 17.5309 30.843 17.494 30.9046C17.4572 30.9662 17.4095 31.0132 17.3511 31.0456C17.2927 31.0774 17.2225 31.0933 17.1406 31.0933C17.037 31.0933 16.9513 31.065 16.8833 31.0085C16.816 30.9519 16.7655 30.8703 16.7318 30.7636C16.6988 30.6563 16.6823 30.527 16.6823 30.3759C16.6823 30.2272 16.6972 30.0996 16.7271 29.9929C16.7576 29.8855 16.8065 29.8033 16.8738 29.7461C16.9411 29.6883 17.03 29.6594 17.1406 29.6594C17.2454 29.6594 17.3317 29.688 17.3997 29.7451C17.4677 29.8017 17.5182 29.8836 17.5512 29.9909C17.5842 30.0977 17.6007 30.226 17.6007 30.3759ZM16.8414 30.3759C16.8414 30.5054 16.8512 30.6134 16.8709 30.6998C16.8906 30.7862 16.9224 30.851 16.9662 30.8942C17.0107 30.9367 17.0688 30.958 17.1406 30.958C17.2123 30.958 17.2701 30.9367 17.314 30.8942C17.3584 30.8516 17.3905 30.7871 17.4102 30.7007C17.4305 30.6144 17.4407 30.5061 17.4407 30.3759C17.4407 30.2482 17.4308 30.1415 17.4111 30.0557C17.3914 29.9694 17.3597 29.9046 17.3159 29.8614C17.272 29.8175 17.2136 29.7956 17.1406 29.7956C17.0675 29.7956 17.0091 29.8175 16.9652 29.8614C16.9214 29.9046 16.8897 29.9694 16.87 30.0557C16.8509 30.1415 16.8414 30.2482 16.8414 30.3759ZM18.7173 30.3759C18.7173 30.4889 18.7088 30.5899 18.6916 30.6788C18.6745 30.7678 18.6475 30.843 18.6106 30.9046C18.5738 30.9662 18.5262 31.0132 18.4677 31.0456C18.4093 31.0774 18.3391 31.0933 18.2572 31.0933C18.1536 31.0933 18.0679 31.065 17.9999 31.0085C17.9326 30.9519 17.8821 30.8703 17.8484 30.7636C17.8154 30.6563 17.7989 30.527 17.7989 30.3759C17.7989 30.2272 17.8138 30.0996 17.8437 29.9929C17.8742 29.8855 17.9231 29.8033 17.9904 29.7461C18.0577 29.6883 18.1467 29.6594 18.2572 29.6594C18.362 29.6594 18.4484 29.688 18.5163 29.7451C18.5843 29.8017 18.6348 29.8836 18.6678 29.9909C18.7008 30.0977 18.7173 30.226 18.7173 30.3759ZM17.958 30.3759C17.958 30.5054 17.9679 30.6134 17.9875 30.6998C18.0072 30.7862 18.039 30.851 18.0828 30.8942C18.1273 30.9367 18.1854 30.958 18.2572 30.958C18.3289 30.958 18.3867 30.9367 18.4306 30.8942C18.475 30.8516 18.5071 30.7871 18.5268 30.7007C18.5471 30.6144 18.5573 30.5061 18.5573 30.3759C18.5573 30.2482 18.5474 30.1415 18.5277 30.0557C18.5081 29.9694 18.4763 29.9046 18.4325 29.8614C18.3886 29.8175 18.3302 29.7956 18.2572 29.7956C18.1841 29.7956 18.1257 29.8175 18.0819 29.8614C18.038 29.9046 18.0063 29.9694 17.9866 30.0557C17.9675 30.1415 17.958 30.2482 17.958 30.3759Z" fill="#212121"/>
<path d="M15.0359 38.4648H14.8816V37.4778C14.8816 37.4403 14.8816 37.4083 14.8816 37.3816C14.8822 37.3543 14.8829 37.3295 14.8835 37.3073C14.8848 37.2844 14.8864 37.2612 14.8883 37.2377C14.8686 37.258 14.8502 37.2755 14.833 37.2901C14.8159 37.3041 14.7946 37.3216 14.7692 37.3425L14.6101 37.4702L14.5272 37.3625L14.9045 37.0719H15.0359V38.4648ZM16.0039 37.6131C16.0986 37.6131 16.1808 37.6293 16.2507 37.6617C16.3206 37.6934 16.3745 37.7398 16.4127 37.8008C16.4514 37.8618 16.4708 37.9358 16.4708 38.0228C16.4708 38.118 16.4501 38.2003 16.4088 38.2695C16.3676 38.3381 16.3082 38.3912 16.2307 38.4286C16.1532 38.4655 16.0605 38.4839 15.9525 38.4839C15.8801 38.4839 15.8127 38.4775 15.7505 38.4648C15.6883 38.4521 15.6359 38.4331 15.5933 38.4077V38.2571C15.6397 38.2851 15.6959 38.3073 15.7619 38.3238C15.828 38.3404 15.8921 38.3486 15.9544 38.3486C16.0249 38.3486 16.0865 38.3375 16.1392 38.3153C16.1926 38.2924 16.2339 38.2581 16.2631 38.2124C16.2929 38.166 16.3079 38.1079 16.3079 38.038C16.3079 37.9453 16.2793 37.8738 16.2221 37.8236C16.1656 37.7728 16.076 37.7474 15.9534 37.7474C15.9141 37.7474 15.8709 37.7506 15.8239 37.757C15.7769 37.7633 15.7381 37.7703 15.7076 37.7779L15.6276 37.7255L15.6809 37.0719H16.3736V37.2167H15.8162L15.781 37.6369C15.8051 37.6318 15.8362 37.6267 15.8744 37.6217C15.9125 37.6159 15.9557 37.6131 16.0039 37.6131ZM17.6007 37.7665C17.6007 37.8795 17.5922 37.9805 17.575 38.0695C17.5579 38.1584 17.5309 38.2336 17.494 38.2953C17.4572 38.3569 17.4095 38.4039 17.3511 38.4363C17.2927 38.468 17.2225 38.4839 17.1406 38.4839C17.037 38.4839 16.9513 38.4556 16.8833 38.3991C16.816 38.3426 16.7655 38.261 16.7318 38.1542C16.6988 38.0469 16.6823 37.9177 16.6823 37.7665C16.6823 37.6179 16.6972 37.4902 16.7271 37.3835C16.7576 37.2761 16.8065 37.1939 16.8738 37.1367C16.9411 37.0789 17.03 37.05 17.1406 37.05C17.2454 37.05 17.3317 37.0786 17.3997 37.1358C17.4677 37.1923 17.5182 37.2742 17.5512 37.3816C17.5842 37.4883 17.6007 37.6166 17.6007 37.7665ZM16.8414 37.7665C16.8414 37.8961 16.8512 38.004 16.8709 38.0904C16.8906 38.1768 16.9224 38.2416 16.9662 38.2848C17.0107 38.3273 17.0688 38.3486 17.1406 38.3486C17.2123 38.3486 17.2701 38.3273 17.314 38.2848C17.3584 38.2422 17.3905 38.1778 17.4102 38.0914C17.4305 38.005 17.4407 37.8967 17.4407 37.7665C17.4407 37.6388 17.4308 37.5321 17.4111 37.4464C17.3914 37.36 17.3597 37.2952 17.3159 37.252C17.272 37.2082 17.2136 37.1863 17.1406 37.1863C17.0675 37.1863 17.0091 37.2082 16.9652 37.252C16.9214 37.2952 16.8897 37.36 16.87 37.4464C16.8509 37.5321 16.8414 37.6388 16.8414 37.7665ZM18.7173 37.7665C18.7173 37.8795 18.7088 37.9805 18.6916 38.0695C18.6745 38.1584 18.6475 38.2336 18.6106 38.2953C18.5738 38.3569 18.5262 38.4039 18.4677 38.4363C18.4093 38.468 18.3391 38.4839 18.2572 38.4839C18.1536 38.4839 18.0679 38.4556 17.9999 38.3991C17.9326 38.3426 17.8821 38.261 17.8484 38.1542C17.8154 38.0469 17.7989 37.9177 17.7989 37.7665C17.7989 37.6179 17.8138 37.4902 17.8437 37.3835C17.8742 37.2761 17.9231 37.1939 17.9904 37.1367C18.0577 37.0789 18.1467 37.05 18.2572 37.05C18.362 37.05 18.4484 37.0786 18.5163 37.1358C18.5843 37.1923 18.6348 37.2742 18.6678 37.3816C18.7008 37.4883 18.7173 37.6166 18.7173 37.7665ZM17.958 37.7665C17.958 37.8961 17.9679 38.004 17.9875 38.0904C18.0072 38.1768 18.039 38.2416 18.0828 38.2848C18.1273 38.3273 18.1854 38.3486 18.2572 38.3486C18.3289 38.3486 18.3867 38.3273 18.4306 38.2848C18.475 38.2422 18.5071 38.1778 18.5268 38.0914C18.5471 38.005 18.5573 37.8967 18.5573 37.7665C18.5573 37.6388 18.5474 37.5321 18.5277 37.4464C18.5081 37.36 18.4763 37.2952 18.4325 37.252C18.3886 37.2082 18.3302 37.1863 18.2572 37.1863C18.1841 37.1863 18.1257 37.2082 18.0819 37.252C18.038 37.2952 18.0063 37.36 17.9866 37.4464C17.9675 37.5321 17.958 37.6388 17.958 37.7665Z" fill="#212121"/>
<path d="M15.0359 45.8555H14.8816V44.8684C14.8816 44.831 14.8816 44.7989 14.8816 44.7722C14.8822 44.7449 14.8829 44.7201 14.8835 44.6979C14.8848 44.675 14.8864 44.6518 14.8883 44.6283C14.8686 44.6487 14.8502 44.6661 14.833 44.6807C14.8159 44.6947 14.7946 44.7122 14.7692 44.7331L14.6101 44.8608L14.5272 44.7531L14.9045 44.4626H15.0359V45.8555ZM16.4841 45.1571C16.4841 45.2702 16.4755 45.3712 16.4584 45.4601C16.4412 45.549 16.4142 45.6243 16.3774 45.6859C16.3406 45.7475 16.2929 45.7945 16.2345 45.8269C16.1761 45.8586 16.1059 45.8745 16.0239 45.8745C15.9204 45.8745 15.8347 45.8463 15.7667 45.7897C15.6994 45.7332 15.6489 45.6516 15.6152 45.5449C15.5822 45.4375 15.5657 45.3083 15.5657 45.1571C15.5657 45.0085 15.5806 44.8808 15.6104 44.7741C15.6409 44.6668 15.6898 44.5845 15.7572 44.5273C15.8245 44.4695 15.9134 44.4406 16.0239 44.4406C16.1287 44.4406 16.2151 44.4692 16.2831 44.5264C16.351 44.5829 16.4015 44.6649 16.4346 44.7722C16.4676 44.8789 16.4841 45.0072 16.4841 45.1571ZM15.7248 45.1571C15.7248 45.2867 15.7346 45.3947 15.7543 45.481C15.774 45.5674 15.8058 45.6322 15.8496 45.6754C15.894 45.718 15.9522 45.7392 16.0239 45.7392C16.0957 45.7392 16.1535 45.718 16.1973 45.6754C16.2418 45.6328 16.2739 45.5684 16.2936 45.482C16.3139 45.3956 16.3241 45.2873 16.3241 45.1571C16.3241 45.0294 16.3142 44.9227 16.2945 44.837C16.2748 44.7506 16.2431 44.6858 16.1992 44.6426C16.1554 44.5988 16.097 44.5769 16.0239 44.5769C15.9509 44.5769 15.8925 44.5988 15.8486 44.6426C15.8048 44.6858 15.773 44.7506 15.7534 44.837C15.7343 44.9227 15.7248 45.0294 15.7248 45.1571ZM17.6007 45.1571C17.6007 45.2702 17.5922 45.3712 17.575 45.4601C17.5579 45.549 17.5309 45.6243 17.494 45.6859C17.4572 45.7475 17.4095 45.7945 17.3511 45.8269C17.2927 45.8586 17.2225 45.8745 17.1406 45.8745C17.037 45.8745 16.9513 45.8463 16.8833 45.7897C16.816 45.7332 16.7655 45.6516 16.7318 45.5449C16.6988 45.4375 16.6823 45.3083 16.6823 45.1571C16.6823 45.0085 16.6972 44.8808 16.7271 44.7741C16.7576 44.6668 16.8065 44.5845 16.8738 44.5273C16.9411 44.4695 17.03 44.4406 17.1406 44.4406C17.2454 44.4406 17.3317 44.4692 17.3997 44.5264C17.4677 44.5829 17.5182 44.6649 17.5512 44.7722C17.5842 44.8789 17.6007 45.0072 17.6007 45.1571ZM16.8414 45.1571C16.8414 45.2867 16.8512 45.3947 16.8709 45.481C16.8906 45.5674 16.9224 45.6322 16.9662 45.6754C17.0107 45.718 17.0688 45.7392 17.1406 45.7392C17.2123 45.7392 17.2701 45.718 17.314 45.6754C17.3584 45.6328 17.3905 45.5684 17.4102 45.482C17.4305 45.3956 17.4407 45.2873 17.4407 45.1571C17.4407 45.0294 17.4308 44.9227 17.4111 44.837C17.3914 44.7506 17.3597 44.6858 17.3159 44.6426C17.272 44.5988 17.2136 44.5769 17.1406 44.5769C17.0675 44.5769 17.0091 44.5988 16.9652 44.6426C16.9214 44.6858 16.8897 44.7506 16.87 44.837C16.8509 44.9227 16.8414 45.0294 16.8414 45.1571ZM18.7173 45.1571C18.7173 45.2702 18.7088 45.3712 18.6916 45.4601C18.6745 45.549 18.6475 45.6243 18.6106 45.6859C18.5738 45.7475 18.5262 45.7945 18.4677 45.8269C18.4093 45.8586 18.3391 45.8745 18.2572 45.8745C18.1536 45.8745 18.0679 45.8463 17.9999 45.7897C17.9326 45.7332 17.8821 45.6516 17.8484 45.5449C17.8154 45.4375 17.7989 45.3083 17.7989 45.1571C17.7989 45.0085 17.8138 44.8808 17.8437 44.7741C17.8742 44.6668 17.9231 44.5845 17.9904 44.5273C18.0577 44.4695 18.1467 44.4406 18.2572 44.4406C18.362 44.4406 18.4484 44.4692 18.5163 44.5264C18.5843 44.5829 18.6348 44.6649 18.6678 44.7722C18.7008 44.8789 18.7173 45.0072 18.7173 45.1571ZM17.958 45.1571C17.958 45.2867 17.9679 45.3947 17.9875 45.481C18.0072 45.5674 18.039 45.6322 18.0828 45.6754C18.1273 45.718 18.1854 45.7392 18.2572 45.7392C18.3289 45.7392 18.3867 45.718 18.4306 45.6754C18.475 45.6328 18.5071 45.5684 18.5268 45.482C18.5471 45.3956 18.5573 45.2873 18.5573 45.1571C18.5573 45.0294 18.5474 44.9227 18.5277 44.837C18.5081 44.7506 18.4763 44.6858 18.4325 44.6426C18.3886 44.5988 18.3302 44.5769 18.2572 44.5769C18.1841 44.5769 18.1257 44.5988 18.0819 44.6426C18.038 44.6858 18.0063 44.7506 17.9866 44.837C17.9675 44.9227 17.958 45.0294 17.958 45.1571Z" fill="#212121"/>
<path d="M16.0035 52.3943C16.0982 52.3943 16.1804 52.4105 16.2503 52.4429C16.3202 52.4747 16.3741 52.5211 16.4123 52.582C16.451 52.643 16.4704 52.717 16.4704 52.804C16.4704 52.8993 16.4497 52.9815 16.4084 53.0508C16.3672 53.1194 16.3078 53.1724 16.2303 53.2099C16.1528 53.2467 16.0601 53.2651 15.9521 53.2651C15.8797 53.2651 15.8123 53.2588 15.7501 53.2461C15.6878 53.2334 15.6354 53.2143 15.5929 53.1889V53.0384C15.6393 53.0663 15.6955 53.0886 15.7615 53.1051C15.8276 53.1216 15.8917 53.1299 15.954 53.1299C16.0245 53.1299 16.0861 53.1187 16.1388 53.0965C16.1922 53.0736 16.2335 53.0393 16.2627 52.9936C16.2925 52.9472 16.3075 52.8891 16.3075 52.8193C16.3075 52.7265 16.2789 52.6551 16.2217 52.6049C16.1652 52.5541 16.0756 52.5287 15.953 52.5287C15.9136 52.5287 15.8705 52.5319 15.8235 52.5382C15.7765 52.5446 15.7377 52.5515 15.7072 52.5592L15.6272 52.5068L15.6805 51.8532H16.3732V51.998H15.8158L15.7806 52.4182C15.8047 52.4131 15.8358 52.408 15.874 52.4029C15.9121 52.3972 15.9553 52.3943 16.0035 52.3943ZM17.6003 52.5477C17.6003 52.6608 17.5917 52.7618 17.5746 52.8507C17.5575 52.9396 17.5305 53.0149 17.4936 53.0765C17.4568 53.1381 17.4091 53.1851 17.3507 53.2175C17.2923 53.2493 17.2221 53.2651 17.1401 53.2651C17.0366 53.2651 16.9509 53.2369 16.8829 53.1804C16.8156 53.1238 16.7651 53.0422 16.7314 52.9355C16.6984 52.8282 16.6819 52.6989 16.6819 52.5477C16.6819 52.3991 16.6968 52.2714 16.7267 52.1647C16.7571 52.0574 16.8061 51.9751 16.8734 51.918C16.9407 51.8602 17.0296 51.8313 17.1401 51.8313C17.245 51.8313 17.3313 51.8599 17.3993 51.917C17.4673 51.9735 17.5178 52.0555 17.5508 52.1628C17.5838 52.2695 17.6003 52.3978 17.6003 52.5477ZM16.841 52.5477C16.841 52.6773 16.8508 52.7853 16.8705 52.8717C16.8902 52.958 16.922 53.0228 16.9658 53.066C17.0103 53.1086 17.0684 53.1299 17.1401 53.1299C17.2119 53.1299 17.2697 53.1086 17.3135 53.066C17.358 53.0235 17.3901 52.959 17.4098 52.8726C17.4301 52.7862 17.4403 52.6779 17.4403 52.5477C17.4403 52.4201 17.4304 52.3134 17.4107 52.2276C17.391 52.1412 17.3593 52.0764 17.3155 52.0333C17.2716 51.9894 17.2132 51.9675 17.1401 51.9675C17.0671 51.9675 17.0087 51.9894 16.9648 52.0333C16.921 52.0764 16.8893 52.1412 16.8696 52.2276C16.8505 52.3134 16.841 52.4201 16.841 52.5477ZM18.7169 52.5477C18.7169 52.6608 18.7084 52.7618 18.6912 52.8507C18.6741 52.9396 18.6471 53.0149 18.6102 53.0765C18.5734 53.1381 18.5258 53.1851 18.4673 53.2175C18.4089 53.2493 18.3387 53.2651 18.2568 53.2651C18.1532 53.2651 18.0675 53.2369 17.9995 53.1804C17.9322 53.1238 17.8817 53.0422 17.848 52.9355C17.815 52.8282 17.7985 52.6989 17.7985 52.5477C17.7985 52.3991 17.8134 52.2714 17.8433 52.1647C17.8738 52.0574 17.9227 51.9751 17.99 51.918C18.0573 51.8602 18.1462 51.8313 18.2568 51.8313C18.3616 51.8313 18.4479 51.8599 18.5159 51.917C18.5839 51.9735 18.6344 52.0555 18.6674 52.1628C18.7004 52.2695 18.7169 52.3978 18.7169 52.5477ZM17.9576 52.5477C17.9576 52.6773 17.9674 52.7853 17.9871 52.8717C18.0068 52.958 18.0386 53.0228 18.0824 53.066C18.1269 53.1086 18.185 53.1299 18.2568 53.1299C18.3285 53.1299 18.3863 53.1086 18.4302 53.066C18.4746 53.0235 18.5067 52.959 18.5264 52.8726C18.5467 52.7862 18.5569 52.6779 18.5569 52.5477C18.5569 52.4201 18.547 52.3134 18.5273 52.2276C18.5077 52.1412 18.4759 52.0764 18.4321 52.0333C18.3882 51.9894 18.3298 51.9675 18.2568 51.9675C18.1837 51.9675 18.1253 51.9894 18.0815 52.0333C18.0376 52.0764 18.0059 52.1412 17.9862 52.2276C17.9671 52.3134 17.9576 52.4201 17.9576 52.5477Z" fill="#212121"/>
<path d="M16.1522 60.6367H15.9978V59.6497C15.9978 59.6122 15.9978 59.5801 15.9978 59.5534C15.9984 59.5261 15.9991 59.5014 15.9997 59.4791C16.001 59.4563 16.0026 59.4331 16.0045 59.4096C15.9848 59.4299 15.9664 59.4474 15.9492 59.462C15.9321 59.476 15.9108 59.4934 15.8854 59.5144L15.7263 59.6421L15.6434 59.5344L16.0207 59.2438H16.1522V60.6367ZM17.6003 59.9384C17.6003 60.0514 17.5917 60.1524 17.5746 60.2413C17.5575 60.3303 17.5305 60.4055 17.4936 60.4671C17.4568 60.5287 17.4091 60.5757 17.3507 60.6081C17.2923 60.6399 17.2221 60.6558 17.1401 60.6558C17.0366 60.6558 16.9509 60.6275 16.8829 60.571C16.8156 60.5144 16.7651 60.4328 16.7314 60.3261C16.6984 60.2188 16.6819 60.0895 16.6819 59.9384C16.6819 59.7897 16.6968 59.6621 16.7267 59.5554C16.7571 59.448 16.8061 59.3658 16.8734 59.3086C16.9407 59.2508 17.0296 59.2219 17.1401 59.2219C17.245 59.2219 17.3313 59.2505 17.3993 59.3076C17.4673 59.3642 17.5178 59.4461 17.5508 59.5534C17.5838 59.6602 17.6003 59.7885 17.6003 59.9384ZM16.841 59.9384C16.841 60.0679 16.8508 60.1759 16.8705 60.2623C16.8902 60.3487 16.922 60.4135 16.9658 60.4567C17.0103 60.4992 17.0684 60.5205 17.1401 60.5205C17.2119 60.5205 17.2697 60.4992 17.3135 60.4567C17.358 60.4141 17.3901 60.3496 17.4098 60.2632C17.4301 60.1769 17.4403 60.0686 17.4403 59.9384C17.4403 59.8107 17.4304 59.704 17.4107 59.6182C17.391 59.5319 17.3593 59.4671 17.3155 59.4239C17.2716 59.38 17.2132 59.3581 17.1401 59.3581C17.0671 59.3581 17.0087 59.38 16.9648 59.4239C16.921 59.4671 16.8893 59.5319 16.8696 59.6182C16.8505 59.704 16.841 59.8107 16.841 59.9384ZM18.7169 59.9384C18.7169 60.0514 18.7084 60.1524 18.6912 60.2413C18.6741 60.3303 18.6471 60.4055 18.6102 60.4671C18.5734 60.5287 18.5258 60.5757 18.4673 60.6081C18.4089 60.6399 18.3387 60.6558 18.2568 60.6558C18.1532 60.6558 18.0675 60.6275 17.9995 60.571C17.9322 60.5144 17.8817 60.4328 17.848 60.3261C17.815 60.2188 17.7985 60.0895 17.7985 59.9384C17.7985 59.7897 17.8134 59.6621 17.8433 59.5554C17.8738 59.448 17.9227 59.3658 17.99 59.3086C18.0573 59.2508 18.1462 59.2219 18.2568 59.2219C18.3616 59.2219 18.4479 59.2505 18.5159 59.3076C18.5839 59.3642 18.6344 59.4461 18.6674 59.5534C18.7004 59.6602 18.7169 59.7885 18.7169 59.9384ZM17.9576 59.9384C17.9576 60.0679 17.9674 60.1759 17.9871 60.2623C18.0068 60.3487 18.0386 60.4135 18.0824 60.4567C18.1269 60.4992 18.185 60.5205 18.2568 60.5205C18.3285 60.5205 18.3863 60.4992 18.4302 60.4567C18.4746 60.4141 18.5067 60.3496 18.5264 60.2632C18.5467 60.1769 18.5569 60.0686 18.5569 59.9384C18.5569 59.8107 18.547 59.704 18.5273 59.6182C18.5077 59.5319 18.4759 59.4671 18.4321 59.4239C18.3882 59.38 18.3298 59.3581 18.2568 59.3581C18.1837 59.3581 18.1253 59.38 18.0815 59.4239C18.0376 59.4671 18.0059 59.5319 17.9862 59.6182C17.9671 59.704 17.9576 59.8107 17.9576 59.9384Z" fill="#212121"/>
<path d="M18.7169 67.3251C18.7169 67.4381 18.7084 67.5391 18.6912 67.628C18.6741 67.717 18.6471 67.7922 18.6102 67.8538C18.5734 67.9155 18.5258 67.9625 18.4673 67.9949C18.4089 68.0266 18.3387 68.0425 18.2568 68.0425C18.1532 68.0425 18.0675 68.0142 17.9995 67.9577C17.9322 67.9012 17.8817 67.8196 17.848 67.7128C17.815 67.6055 17.7985 67.4762 17.7985 67.3251C17.7985 67.1764 17.8134 67.0488 17.8433 66.9421C17.8738 66.8347 17.9227 66.7525 17.99 66.6953C18.0573 66.6375 18.1462 66.6086 18.2568 66.6086C18.3616 66.6086 18.4479 66.6372 18.5159 66.6944C18.5839 66.7509 18.6344 66.8328 18.6674 66.9402C18.7004 67.0469 18.7169 67.1752 18.7169 67.3251ZM17.9576 67.3251C17.9576 67.4546 17.9674 67.5626 17.9871 67.649C18.0068 67.7354 18.0386 67.8002 18.0824 67.8434C18.1269 67.8859 18.185 67.9072 18.2568 67.9072C18.3285 67.9072 18.3863 67.8859 18.4302 67.8434C18.4746 67.8008 18.5067 67.7363 18.5264 67.65C18.5467 67.5636 18.5569 67.4553 18.5569 67.3251C18.5569 67.1974 18.547 67.0907 18.5273 67.005C18.5077 66.9186 18.4759 66.8538 18.4321 66.8106C18.3882 66.7668 18.3298 66.7449 18.2568 66.7449C18.1837 66.7449 18.1253 66.7668 18.0815 66.8106C18.0376 66.8538 18.0059 66.9186 17.9862 67.005C17.9671 67.0907 17.9576 67.1974 17.9576 67.3251Z" fill="#212121"/>
<path d="M30.1416 71.2422H29.9873V70.2551C29.9873 70.2177 29.9873 70.1856 29.9873 70.1589C29.9879 70.1316 29.9886 70.1068 29.9892 70.0846C29.9905 70.0617 29.9921 70.0386 29.994 70.0151C29.9743 70.0354 29.9559 70.0528 29.9387 70.0675C29.9216 70.0814 29.9003 70.0989 29.8749 70.1199L29.7158 70.2475L29.6329 70.1399L30.0102 69.8493H30.1416V71.2422Z" fill="#212121"/>
<path d="M22.4244 70.5438C22.4244 70.6569 22.4158 70.7579 22.3987 70.8468C22.3815 70.9357 22.3545 71.011 22.3177 71.0726C22.2808 71.1342 22.2332 71.1812 22.1748 71.2136C22.1163 71.2454 22.0461 71.2612 21.9642 71.2612C21.8607 71.2612 21.7749 71.233 21.707 71.1764C21.6396 71.1199 21.5891 71.0383 21.5555 70.9316C21.5224 70.8243 21.5059 70.695 21.5059 70.5438C21.5059 70.3952 21.5209 70.2675 21.5507 70.1608C21.5812 70.0535 21.6301 69.9712 21.6974 69.9141C21.7648 69.8563 21.8537 69.8274 21.9642 69.8274C22.069 69.8274 22.1554 69.8559 22.2233 69.9131C22.2913 69.9696 22.3418 70.0516 22.3748 70.1589C22.4079 70.2656 22.4244 70.3939 22.4244 70.5438ZM21.665 70.5438C21.665 70.6734 21.6749 70.7814 21.6946 70.8678C21.7143 70.9541 21.746 71.0189 21.7898 71.0621C21.8343 71.1047 21.8924 71.126 21.9642 71.126C22.036 71.126 22.0938 71.1047 22.1376 71.0621C22.1821 71.0196 22.2141 70.9551 22.2338 70.8687C22.2542 70.7823 22.2643 70.674 22.2643 70.5438C22.2643 70.4162 22.2545 70.3095 22.2348 70.2237C22.2151 70.1373 22.1833 70.0725 22.1395 70.0293C22.0957 69.9855 22.0372 69.9636 21.9642 69.9636C21.8912 69.9636 21.8327 69.9855 21.7889 70.0293C21.7451 70.0725 21.7133 70.1373 21.6936 70.2237C21.6746 70.3095 21.665 70.4162 21.665 70.5438Z" fill="#212121"/>
<path d="M38.5144 71.2422H37.6017V71.1098L37.9742 70.7315C38.0434 70.6616 38.1016 70.5994 38.1486 70.5448C38.1962 70.4902 38.2324 70.4365 38.2572 70.3838C38.2819 70.3304 38.2943 70.272 38.2943 70.2085C38.2943 70.1297 38.2708 70.0697 38.2238 70.0284C38.1775 69.9865 38.1162 69.9655 38.0399 69.9655C37.9733 69.9655 37.9142 69.9769 37.8627 69.9998C37.8113 70.0227 37.7586 70.0551 37.7046 70.097L37.6198 69.9903C37.6566 69.9592 37.6966 69.9315 37.7398 69.9074C37.7837 69.8833 37.8303 69.8642 37.8799 69.8502C37.9301 69.8363 37.9834 69.8293 38.0399 69.8293C38.1257 69.8293 38.1997 69.8442 38.2619 69.874C38.3242 69.9039 38.3721 69.9465 38.4058 70.0017C38.4401 70.057 38.4572 70.1227 38.4572 70.1989C38.4572 70.2726 38.4426 70.3412 38.4134 70.4047C38.3842 70.4676 38.3432 70.5302 38.2905 70.5924C38.2378 70.654 38.1762 70.7194 38.1057 70.7887L37.8027 71.0907V71.0974H38.5144V71.2422Z" fill="#212121"/>
<path d="M46.7559 70.1742C46.7559 70.2364 46.7439 70.2904 46.7197 70.3361C46.6956 70.3819 46.6619 70.4193 46.6187 70.4486C46.5755 70.4771 46.5247 70.4971 46.4663 70.5086V70.5162C46.5768 70.5302 46.6597 70.5657 46.715 70.6229C46.7709 70.6801 46.7988 70.755 46.7988 70.8478C46.7988 70.9284 46.7797 70.9999 46.7416 71.0621C46.7042 71.1244 46.6464 71.1733 46.5682 71.2088C46.4908 71.2438 46.3913 71.2612 46.27 71.2612C46.1964 71.2612 46.1281 71.2552 46.0652 71.2431C46.0029 71.2317 45.9432 71.2123 45.8861 71.185V71.0364C45.9439 71.065 46.0068 71.0875 46.0747 71.104C46.1427 71.1199 46.2084 71.1279 46.2719 71.1279C46.399 71.1279 46.4908 71.1028 46.5473 71.0526C46.6038 71.0018 46.6321 70.9325 46.6321 70.8449C46.6321 70.7846 46.6162 70.736 46.5844 70.6991C46.5533 70.6616 46.5082 70.6343 46.4491 70.6172C46.3907 70.5994 46.3202 70.5905 46.2376 70.5905H46.0985V70.4552H46.2386C46.3142 70.4552 46.3783 70.4441 46.431 70.4219C46.4838 70.3996 46.5238 70.3685 46.5511 70.3285C46.579 70.2879 46.593 70.2399 46.593 70.1846C46.593 70.1141 46.5695 70.0598 46.5225 70.0217C46.4755 69.983 46.4117 69.9636 46.331 69.9636C46.2815 69.9636 46.2364 69.9687 46.1957 69.9788C46.1551 69.989 46.117 70.003 46.0814 70.0208C46.0458 70.0386 46.0102 70.0592 45.9747 70.0827L45.8947 69.9741C45.9455 69.9347 46.0074 69.9007 46.0804 69.8721C46.1535 69.8436 46.2364 69.8293 46.3291 69.8293C46.4714 69.8293 46.5781 69.8617 46.6492 69.9264C46.7204 69.9912 46.7559 70.0738 46.7559 70.1742Z" fill="#212121"/>
<path d="M54.9258 70.9192H54.7171V71.2422H54.5628V70.9192H53.8892V70.7858L54.5523 69.8417H54.7171V70.7763H54.9258V70.9192ZM54.5628 70.7763V70.3209C54.5628 70.286 54.5631 70.2545 54.5637 70.2266C54.5643 70.198 54.5653 70.1716 54.5666 70.1475C54.5678 70.1227 54.5688 70.0992 54.5694 70.077C54.5707 70.0548 54.5717 70.0328 54.5723 70.0112H54.5647C54.5526 70.0366 54.5386 70.0636 54.5227 70.0922C54.5075 70.1202 54.4919 70.1453 54.4761 70.1675L54.0464 70.7763H54.5628Z" fill="#212121"/>
<path d="M62.4315 70.3904C62.5261 70.3904 62.6084 70.4066 62.6783 70.439C62.7481 70.4708 62.8021 70.5171 62.8402 70.5781C62.879 70.6391 62.8983 70.7131 62.8983 70.8001C62.8983 70.8954 62.8777 70.9776 62.8364 71.0469C62.7951 71.1155 62.7357 71.1685 62.6583 71.206C62.5808 71.2428 62.488 71.2612 62.38 71.2612C62.3076 71.2612 62.2403 71.2549 62.1781 71.2422C62.1158 71.2295 62.0634 71.2104 62.0209 71.185V71.0345C62.0672 71.0624 62.1234 71.0847 62.1895 71.1012C62.2556 71.1177 62.3197 71.126 62.382 71.126C62.4525 71.126 62.5141 71.1148 62.5668 71.0926C62.6201 71.0697 62.6614 71.0354 62.6906 70.9897C62.7205 70.9433 62.7354 70.8852 62.7354 70.8154C62.7354 70.7226 62.7068 70.6512 62.6497 70.601C62.5931 70.5502 62.5036 70.5248 62.381 70.5248C62.3416 70.5248 62.2984 70.5279 62.2514 70.5343C62.2044 70.5407 62.1657 70.5476 62.1352 70.5553L62.0552 70.5029L62.1085 69.8493H62.8012V69.9941H62.2438L62.2086 70.4143C62.2327 70.4092 62.2638 70.4041 62.3019 70.399C62.34 70.3933 62.3832 70.3904 62.4315 70.3904Z" fill="#212121"/>
<path d="M70.0544 70.6467C70.0544 70.5629 70.0602 70.4809 70.0716 70.4009C70.0837 70.3209 70.1037 70.2466 70.1316 70.178C70.1596 70.1087 70.1977 70.0481 70.246 69.996C70.2942 69.9439 70.3542 69.9033 70.426 69.874C70.4984 69.8442 70.5851 69.8293 70.6861 69.8293C70.7147 69.8293 70.7455 69.8309 70.7785 69.834C70.8116 69.8366 70.8389 69.841 70.8605 69.8474V69.9836C70.837 69.9754 70.81 69.9693 70.7795 69.9655C70.7496 69.9617 70.7195 69.9598 70.689 69.9598C70.5708 69.9598 70.4778 69.9855 70.4098 70.037C70.3425 70.0884 70.2939 70.1583 70.2641 70.2466C70.2342 70.3342 70.2171 70.433 70.2126 70.5429H70.2231C70.2428 70.5111 70.2679 70.4825 70.2984 70.4571C70.3288 70.4311 70.3657 70.4104 70.4089 70.3952C70.4527 70.38 70.5035 70.3723 70.5613 70.3723C70.6426 70.3723 70.7134 70.3888 70.7738 70.4219C70.8347 70.4549 70.8817 70.5029 70.9148 70.5657C70.9484 70.6286 70.9653 70.7048 70.9653 70.7944C70.9653 70.8903 70.9475 70.9732 70.9119 71.0431C70.8763 71.1129 70.8255 71.1669 70.7595 71.205C70.6941 71.2425 70.6159 71.2612 70.5251 71.2612C70.4571 71.2612 70.3946 71.2482 70.3374 71.2222C70.2802 71.1961 70.2304 71.1574 70.1878 71.1059C70.1459 71.0545 70.1132 70.9907 70.0897 70.9144C70.0662 70.8376 70.0544 70.7483 70.0544 70.6467ZM70.5232 71.1279C70.6096 71.1279 70.6788 71.1002 70.7309 71.045C70.783 70.9897 70.809 70.9062 70.809 70.7944C70.809 70.7029 70.7858 70.6305 70.7395 70.5772C70.6931 70.5238 70.6232 70.4971 70.5299 70.4971C70.4664 70.4971 70.4111 70.5105 70.3641 70.5372C70.3171 70.5632 70.2806 70.5962 70.2545 70.6362C70.2285 70.6763 70.2155 70.7169 70.2155 70.7582C70.2155 70.8001 70.2215 70.8427 70.2336 70.8859C70.2463 70.9291 70.2653 70.9691 70.2907 71.0059C70.3161 71.0427 70.3482 71.0723 70.387 71.0945C70.4257 71.1167 70.4711 71.1279 70.5232 71.1279Z" fill="#212121"/>
<path d="M78.0259 71.2422L78.5975 69.9941H77.8382V69.8493H78.7671V69.9712L78.1993 71.2422H78.0259Z" fill="#212121"/>
<path d="M21.1339 68.7568C21.1339 68.8241 21.1885 68.8787 21.2559 68.8787C21.3232 68.8787 21.3778 68.8241 21.3778 68.7568H21.1339ZM21.2559 21.6836H21.1339V21.9288H21.2559H21.3778V21.6836H21.2559ZM21.2559 22.4191H21.1339V22.9095H21.2559H21.3778V22.4191H21.2559ZM21.2559 23.3998H21.1339V23.8901H21.2559H21.3778V23.3998H21.2559ZM21.2559 24.3805H21.1339V24.8708H21.2559H21.3778V24.3805H21.2559ZM21.2559 25.3612H21.1339V25.8515H21.2559H21.3778V25.3612H21.2559ZM21.2559 26.3419H21.1339V26.8322H21.2559H21.3778V26.3419H21.2559ZM21.2559 27.3226H21.1339V27.8129H21.2559H21.3778V27.3226H21.2559ZM21.2559 28.3033H21.1339V28.7936H21.2559H21.3778V28.3033H21.2559ZM21.2559 29.2839H21.1339V29.7743H21.2559H21.3778V29.2839H21.2559ZM21.2559 30.2646H21.1339V30.755H21.2559H21.3778V30.2646H21.2559ZM21.2559 31.2453H21.1339V31.7357H21.2559H21.3778V31.2453H21.2559ZM21.2559 32.226H21.1339V32.7164H21.2559H21.3778V32.226H21.2559ZM21.2559 33.2067H21.1339V33.6971H21.2559H21.3778V33.2067H21.2559ZM21.2559 34.1874H21.1339V34.6778H21.2559H21.3778V34.1874H21.2559ZM21.2559 35.1681H21.1339V35.6584H21.2559H21.3778V35.1681H21.2559ZM21.2559 36.1488H21.1339V36.6391H21.2559H21.3778V36.1488H21.2559ZM21.2559 37.1295H21.1339V37.6198H21.2559H21.3778V37.1295H21.2559ZM21.2559 38.1102H21.1339V38.6005H21.2559H21.3778V38.1102H21.2559ZM21.2559 39.0909H21.1339V39.5812H21.2559H21.3778V39.0909H21.2559ZM21.2559 40.0716H21.1339V40.5619H21.2559H21.3778V40.0716H21.2559ZM21.2559 41.0522H21.1339V41.5426H21.2559H21.3778V41.0522H21.2559ZM21.2559 42.0329H21.1339V42.5233H21.2559H21.3778V42.0329H21.2559ZM21.2559 43.0136H21.1339V43.504H21.2559H21.3778V43.0136H21.2559ZM21.2559 43.9943H21.1339V44.4847H21.2559H21.3778V43.9943H21.2559ZM21.2559 44.975H21.1339V45.4654H21.2559H21.3778V44.975H21.2559ZM21.2559 45.9557H21.1339V46.446H21.2559H21.3778V45.9557H21.2559ZM21.2559 46.9364H21.1339V47.4267H21.2559H21.3778V46.9364H21.2559ZM21.2559 47.9171H21.1339V48.4074H21.2559H21.3778V47.9171H21.2559ZM21.2559 48.8978H21.1339V49.3881H21.2559H21.3778V48.8978H21.2559ZM21.2559 49.8785H21.1339V50.3688H21.2559H21.3778V49.8785H21.2559ZM21.2559 50.8591H21.1339V51.3495H21.2559H21.3778V50.8591H21.2559ZM21.2559 51.8398H21.1339V52.3302H21.2559H21.3778V51.8398H21.2559ZM21.2559 52.8205H21.1339V53.3109H21.2559H21.3778V52.8205H21.2559ZM21.2559 53.8012H21.1339V54.2916H21.2559H21.3778V53.8012H21.2559ZM21.2559 54.7819H21.1339V55.2723H21.2559H21.3778V54.7819H21.2559ZM21.2559 55.7626H21.1339V56.2529H21.2559H21.3778V55.7626H21.2559ZM21.2559 56.7433H21.1339V57.2336H21.2559H21.3778V56.7433H21.2559ZM21.2559 57.724H21.1339V58.2143H21.2559H21.3778V57.724H21.2559ZM21.2559 58.7047H21.1339V59.195H21.2559H21.3778V58.7047H21.2559ZM21.2559 59.6854H21.1339V60.1757H21.2559H21.3778V59.6854H21.2559ZM21.2559 60.666H21.1339V61.1564H21.2559H21.3778V60.666H21.2559ZM21.2559 61.6467H21.1339V62.1371H21.2559H21.3778V61.6467H21.2559ZM21.2559 62.6274H21.1339V63.1178H21.2559H21.3778V62.6274H21.2559ZM21.2559 63.6081H21.1339V64.0985H21.2559H21.3778V63.6081H21.2559ZM21.2559 64.5888H21.1339V65.0792H21.2559H21.3778V64.5888H21.2559ZM21.2559 65.5695H21.1339V66.0598H21.2559H21.3778V65.5695H21.2559ZM21.2559 66.5502H21.1339V67.0405H21.2559H21.3778V66.5502H21.2559ZM21.2559 67.5309H21.1339V68.0212H21.2559H21.3778V67.5309H21.2559ZM21.2559 68.5116H21.1339V68.7568H21.2559H21.3778V68.5116H21.2559Z" fill="#D4D4D4"/>
<path d="M21.2559 68.7578H77.5973" stroke="#D4D4D4" stroke-width="0.243902"/>
<path opacity="0.8" d="M21.1758 65.0556C21.1758 65.0556 21.6414 34.7896 28.3349 32.8688C35.0283 30.9481 38.4012 42.3358 46.2035 46.1975C52.4588 49.2936 52.8388 50.9121 63.1991 51.7269C73.5594 52.5418 77.4756 61.6825 77.4756 61.6825" stroke="#FFCC00" stroke-width="0.349224"/>
<path opacity="0.8" d="M21.2559 65.0971C21.2559 65.0971 33.451 62.0486 37.2315 54.3655C41.012 46.6823 38.451 34.6091 47.1095 34.2434C58.5627 33.7597 50.5242 52.902 61.6217 54.8533C72.7193 56.8045 77.7193 65.463 77.7193 65.463" stroke="#20A2FF" stroke-width="0.349224"/>
<circle cx="21.2332" cy="65.1102" r="0.465632" fill="#2A8ED5"/>
<circle cx="29.282" cy="32.6336" r="0.465632" fill="#DEB40F"/>
<circle cx="37.3309" cy="38.0008" r="0.465632" fill="#DEB40F"/>
<circle cx="45.3797" cy="45.8055" r="0.465632" fill="#DEB40F"/>
<circle cx="53.4285" cy="49.95" r="0.465632" fill="#DEB40F"/>
<circle cx="61.4774" cy="51.657" r="0.465632" fill="#DEB40F"/>
<circle cx="69.5262" cy="53.3641" r="0.465632" fill="#DEB40F"/>
<circle cx="77.575" cy="61.657" r="0.465632" fill="#DEB40F"/>
<path opacity="0.8" d="M21.1758 67.3827C21.1758 67.3827 24.9008 50.4453 31.5943 48.5246C38.2878 46.6038 46.1608 50.942 51.9657 57.4298C55.9236 61.8533 56.8548 66.5678 67.2151 67.3827C77.5755 68.1975 77.5975 65.8279 77.5975 65.8279" stroke="#FF5683" stroke-width="0.349224"/>
<g filter="url(#filter0_d_7908_88332)">
<rect x="24.9121" y="27.7773" width="8.29268" height="3.65854" rx="1.82927" fill="white"/>
</g>
<path d="M27.65 30.2656H26.7068V30.097L27.0679 29.7311C27.1378 29.66 27.1952 29.5987 27.2403 29.5473C27.2854 29.4952 27.3188 29.4459 27.3404 29.3996C27.3626 29.3532 27.3737 29.3027 27.3737 29.2481C27.3737 29.1808 27.3543 29.13 27.3156 29.0957C27.2769 29.0607 27.2257 29.0433 27.1622 29.0433C27.1019 29.0433 27.046 29.0553 26.9945 29.0795C26.9437 29.103 26.891 29.1366 26.8364 29.1804L26.7135 29.0328C26.7522 28.9997 26.7935 28.9696 26.8373 28.9423C26.8818 28.915 26.9313 28.8934 26.9859 28.8775C27.0406 28.861 27.1028 28.8527 27.1727 28.8527C27.261 28.8527 27.3372 28.8686 27.4013 28.9003C27.4655 28.9315 27.5147 28.975 27.549 29.0309C27.584 29.0868 27.6014 29.1519 27.6014 29.2262C27.6014 29.3011 27.5865 29.3704 27.5566 29.4339C27.5268 29.4974 27.4842 29.5603 27.429 29.6225C27.3737 29.6841 27.308 29.7511 27.2318 29.8236L26.9907 30.0589V30.0694H27.65V30.2656ZM28.7666 29.5682C28.7666 29.6806 28.7577 29.7813 28.7399 29.8702C28.7228 29.9585 28.6955 30.0335 28.658 30.0951C28.6205 30.1567 28.5716 30.2037 28.5113 30.2361C28.4509 30.2685 28.3779 30.2847 28.2922 30.2847C28.1848 30.2847 28.0962 30.2564 28.0263 30.1999C27.9565 30.1427 27.9047 30.0608 27.871 29.9541C27.8374 29.8467 27.8206 29.7181 27.8206 29.5682C27.8206 29.4183 27.8358 29.29 27.8663 29.1833C27.8974 29.076 27.9476 28.9937 28.0168 28.9365C28.086 28.8794 28.1778 28.8508 28.2922 28.8508C28.4001 28.8508 28.4891 28.8794 28.5589 28.9365C28.6294 28.9931 28.6815 29.075 28.7152 29.1824C28.7495 29.2891 28.7666 29.4177 28.7666 29.5682ZM28.0464 29.5682C28.0464 29.6857 28.054 29.7839 28.0692 29.8626C28.0851 29.9414 28.1111 30.0004 28.1473 30.0398C28.1835 30.0786 28.2318 30.0979 28.2922 30.0979C28.3525 30.0979 28.4008 30.0786 28.437 30.0398C28.4732 30.0011 28.4992 29.9423 28.5151 29.8636C28.5316 29.7848 28.5399 29.6864 28.5399 29.5682C28.5399 29.4513 28.5319 29.3535 28.5161 29.2748C28.5002 29.196 28.4741 29.1369 28.4379 29.0976C28.4017 29.0575 28.3531 29.0375 28.2922 29.0375C28.2312 29.0375 28.1826 29.0575 28.1464 29.0976C28.1108 29.1369 28.0851 29.196 28.0692 29.2748C28.054 29.3535 28.0464 29.4513 28.0464 29.5682ZM29.8832 29.5682C29.8832 29.6806 29.8743 29.7813 29.8566 29.8702C29.8394 29.9585 29.8121 30.0335 29.7746 30.0951C29.7372 30.1567 29.6882 30.2037 29.6279 30.2361C29.5676 30.2685 29.4945 30.2847 29.4088 30.2847C29.3014 30.2847 29.2128 30.2564 29.143 30.1999C29.0731 30.1427 29.0213 30.0608 28.9877 29.9541C28.954 29.8467 28.9372 29.7181 28.9372 29.5682C28.9372 29.4183 28.9524 29.29 28.9829 29.1833C29.014 29.076 29.0642 28.9937 29.1334 28.9365C29.2027 28.8794 29.2944 28.8508 29.4088 28.8508C29.5168 28.8508 29.6057 28.8794 29.6755 28.9365C29.746 28.9931 29.7981 29.075 29.8318 29.1824C29.8661 29.2891 29.8832 29.4177 29.8832 29.5682ZM29.163 29.5682C29.163 29.6857 29.1706 29.7839 29.1858 29.8626C29.2017 29.9414 29.2278 30.0004 29.264 30.0398C29.3002 30.0786 29.3484 30.0979 29.4088 30.0979C29.4691 30.0979 29.5174 30.0786 29.5536 30.0398C29.5898 30.0011 29.6158 29.9423 29.6317 29.8636C29.6482 29.7848 29.6565 29.6864 29.6565 29.5682C29.6565 29.4513 29.6485 29.3535 29.6327 29.2748C29.6168 29.196 29.5907 29.1369 29.5545 29.0976C29.5183 29.0575 29.4698 29.0375 29.4088 29.0375C29.3478 29.0375 29.2992 29.0575 29.263 29.0976C29.2274 29.1369 29.2017 29.196 29.1858 29.2748C29.1706 29.3535 29.163 29.4513 29.163 29.5682ZM30.9999 29.5682C30.9999 29.6806 30.991 29.7813 30.9732 29.8702C30.956 29.9585 30.9287 30.0335 30.8912 30.0951C30.8538 30.1567 30.8049 30.2037 30.7445 30.2361C30.6842 30.2685 30.6111 30.2847 30.5254 30.2847C30.418 30.2847 30.3294 30.2564 30.2596 30.1999C30.1897 30.1427 30.1379 30.0608 30.1043 29.9541C30.0706 29.8467 30.0538 29.7181 30.0538 29.5682C30.0538 29.4183 30.069 29.29 30.0995 29.1833C30.1306 29.076 30.1808 28.9937 30.25 28.9365C30.3193 28.8794 30.4111 28.8508 30.5254 28.8508C30.6334 28.8508 30.7223 28.8794 30.7922 28.9365C30.8627 28.9931 30.9147 29.075 30.9484 29.1824C30.9827 29.2891 30.9999 29.4177 30.9999 29.5682ZM30.2796 29.5682C30.2796 29.6857 30.2872 29.7839 30.3024 29.8626C30.3183 29.9414 30.3444 30.0004 30.3806 30.0398C30.4168 30.0786 30.4651 30.0979 30.5254 30.0979C30.5857 30.0979 30.634 30.0786 30.6702 30.0398C30.7064 30.0011 30.7325 29.9423 30.7483 29.8636C30.7648 29.7848 30.7731 29.6864 30.7731 29.5682C30.7731 29.4513 30.7652 29.3535 30.7493 29.2748C30.7334 29.196 30.7074 29.1369 30.6712 29.0976C30.635 29.0575 30.5864 29.0375 30.5254 29.0375C30.4644 29.0375 30.4158 29.0575 30.3796 29.0976C30.3441 29.1369 30.3183 29.196 30.3024 29.2748C30.2872 29.3535 30.2796 29.4513 30.2796 29.5682Z" fill="#444444"/>
<g filter="url(#filter1_d_7908_88332)">
<rect x="50.5234" y="54.6094" width="5.85366" height="3.65854" rx="1.82927" fill="white"/>
</g>
<path d="M52.774 57.0977H51.8308V56.929L52.1919 56.5632C52.2618 56.492 52.3193 56.4307 52.3644 56.3793C52.4094 56.3272 52.4428 56.278 52.4644 56.2316C52.4866 56.1852 52.4977 56.1347 52.4977 56.0801C52.4977 56.0128 52.4784 55.962 52.4396 55.9277C52.4009 55.8928 52.3497 55.8753 52.2862 55.8753C52.2259 55.8753 52.17 55.8874 52.1185 55.9115C52.0677 55.935 52.015 55.9687 51.9604 56.0125L51.8375 55.8648C51.8762 55.8318 51.9175 55.8016 51.9613 55.7743C52.0058 55.747 52.0553 55.7254 52.11 55.7095C52.1646 55.693 52.2268 55.6847 52.2967 55.6847C52.385 55.6847 52.4612 55.7006 52.5254 55.7324C52.5895 55.7635 52.6387 55.807 52.673 55.8629C52.708 55.9188 52.7254 55.9839 52.7254 56.0582C52.7254 56.1332 52.7105 56.2024 52.6807 56.2659C52.6508 56.3294 52.6083 56.3923 52.553 56.4546C52.4977 56.5162 52.432 56.5832 52.3558 56.6556L52.1147 56.8909V56.9014H52.774V57.0977ZM53.8906 56.4002C53.8906 56.5127 53.8818 56.6133 53.864 56.7023C53.8468 56.7906 53.8195 56.8655 53.782 56.9271C53.7446 56.9887 53.6957 57.0357 53.6353 57.0681C53.575 57.1005 53.5019 57.1167 53.4162 57.1167C53.3088 57.1167 53.2202 57.0884 53.1504 57.0319C53.0805 56.9748 53.0287 56.8928 52.9951 56.7861C52.9614 56.6788 52.9446 56.5501 52.9446 56.4002C52.9446 56.2503 52.9598 56.122 52.9903 56.0153C53.0214 55.908 53.0716 55.8257 53.1408 55.7686C53.2101 55.7114 53.3019 55.6828 53.4162 55.6828C53.5242 55.6828 53.6131 55.7114 53.683 55.7686C53.7535 55.8251 53.8055 55.907 53.8392 56.0144C53.8735 56.1211 53.8906 56.2497 53.8906 56.4002ZM53.1704 56.4002C53.1704 56.5178 53.178 56.6159 53.1932 56.6946C53.2091 56.7734 53.2352 56.8325 53.2714 56.8719C53.3076 56.9106 53.3558 56.93 53.4162 56.93C53.4765 56.93 53.5248 56.9106 53.561 56.8719C53.5972 56.8331 53.6232 56.7744 53.6391 56.6956C53.6556 56.6168 53.6639 56.5184 53.6639 56.4002C53.6639 56.2834 53.656 56.1856 53.6401 56.1068C53.6242 56.028 53.5982 55.969 53.562 55.9296C53.5257 55.8896 53.4772 55.8696 53.4162 55.8696C53.3552 55.8696 53.3066 55.8896 53.2704 55.9296C53.2348 55.969 53.2091 56.028 53.1932 56.1068C53.178 56.1856 53.1704 56.2834 53.1704 56.4002ZM55.0073 56.4002C55.0073 56.5127 54.9984 56.6133 54.9806 56.7023C54.9634 56.7906 54.9361 56.8655 54.8987 56.9271C54.8612 56.9887 54.8123 57.0357 54.7519 57.0681C54.6916 57.1005 54.6185 57.1167 54.5328 57.1167C54.4255 57.1167 54.3369 57.0884 54.267 57.0319C54.1971 56.9748 54.1453 56.8928 54.1117 56.7861C54.078 56.6788 54.0612 56.5501 54.0612 56.4002C54.0612 56.2503 54.0764 56.122 54.1069 56.0153C54.138 55.908 54.1882 55.8257 54.2575 55.7686C54.3267 55.7114 54.4185 55.6828 54.5328 55.6828C54.6408 55.6828 54.7297 55.7114 54.7996 55.7686C54.8701 55.8251 54.9222 55.907 54.9558 56.0144C54.9901 56.1211 55.0073 56.2497 55.0073 56.4002ZM54.287 56.4002C54.287 56.5178 54.2946 56.6159 54.3099 56.6946C54.3257 56.7734 54.3518 56.8325 54.388 56.8719C54.4242 56.9106 54.4725 56.93 54.5328 56.93C54.5931 56.93 54.6414 56.9106 54.6776 56.8719C54.7138 56.8331 54.7399 56.7744 54.7557 56.6956C54.7723 56.6168 54.7805 56.5184 54.7805 56.4002C54.7805 56.2834 54.7726 56.1856 54.7567 56.1068C54.7408 56.028 54.7148 55.969 54.6786 55.9296C54.6424 55.8896 54.5938 55.8696 54.5328 55.8696C54.4718 55.8696 54.4232 55.8896 54.387 55.9296C54.3515 55.969 54.3257 56.028 54.3099 56.1068C54.2946 56.1856 54.287 56.2834 54.287 56.4002Z" fill="#444444"/>
<g filter="url(#filter2_d_7908_88332)">
<rect x="50.0381" y="33.875" width="6.34146" height="3.65854" rx="1.82927" fill="white"/>
</g>
<path d="M51.5155 36.3633H51.2907V35.4667C51.2907 35.4369 51.291 35.407 51.2916 35.3772C51.2923 35.3473 51.2929 35.3181 51.2935 35.2895C51.2948 35.261 51.2964 35.2336 51.2983 35.2076C51.285 35.2222 51.2685 35.2381 51.2488 35.2552C51.2297 35.2724 51.2094 35.2902 51.1878 35.3086L51.0277 35.4363L50.9153 35.2943L51.3288 34.9704H51.5155V36.3633ZM52.4473 35.4925C52.5369 35.4925 52.6156 35.5087 52.6836 35.5411C52.7522 35.5728 52.8055 35.6198 52.8437 35.6821C52.8818 35.7437 52.9008 35.8193 52.9008 35.9088C52.9008 36.0066 52.8802 36.0911 52.8389 36.1623C52.7976 36.2328 52.7369 36.2871 52.6569 36.3252C52.5769 36.3633 52.4794 36.3823 52.3644 36.3823C52.2914 36.3823 52.2231 36.376 52.1596 36.3633C52.0967 36.3506 52.0424 36.3315 51.9967 36.3061V36.1041C52.0443 36.1308 52.1015 36.1527 52.1682 36.1699C52.2349 36.1864 52.2987 36.1946 52.3597 36.1946C52.4244 36.1946 52.48 36.1851 52.5264 36.1661C52.5728 36.147 52.6083 36.1178 52.6331 36.0784C52.6585 36.039 52.6712 35.9892 52.6712 35.9288C52.6712 35.8488 52.6455 35.7872 52.594 35.744C52.5432 35.7002 52.4635 35.6783 52.3549 35.6783C52.3168 35.6783 52.2761 35.6818 52.2329 35.6887C52.1904 35.6951 52.1548 35.7021 52.1262 35.7097L52.0281 35.6516L52.0805 34.9704H52.8046V35.1676H52.2777L52.2472 35.5144C52.2701 35.5093 52.2974 35.5045 52.3292 35.5001C52.3609 35.495 52.4003 35.4925 52.4473 35.4925ZM54.0336 35.6659C54.0336 35.7783 54.0247 35.879 54.007 35.9679C53.9898 36.0562 53.9625 36.1311 53.925 36.1927C53.8875 36.2544 53.8386 36.3014 53.7783 36.3337C53.718 36.3661 53.6449 36.3823 53.5592 36.3823C53.4518 36.3823 53.3632 36.3541 53.2933 36.2975C53.2235 36.2404 53.1717 36.1584 53.1381 36.0517C53.1044 35.9444 53.0876 35.8158 53.0876 35.6659C53.0876 35.516 53.1028 35.3877 53.1333 35.281C53.1644 35.1736 53.2146 35.0914 53.2838 35.0342C53.3531 34.977 53.4448 34.9485 53.5592 34.9485C53.6671 34.9485 53.7561 34.977 53.8259 35.0342C53.8964 35.0907 53.9485 35.1727 53.9822 35.28C54.0165 35.3867 54.0336 35.5153 54.0336 35.6659ZM53.3134 35.6659C53.3134 35.7834 53.321 35.8815 53.3362 35.9603C53.3521 36.039 53.3781 36.0981 53.4143 36.1375C53.4506 36.1762 53.4988 36.1956 53.5592 36.1956C53.6195 36.1956 53.6678 36.1762 53.704 36.1375C53.7402 36.0987 53.7662 36.04 53.7821 35.9612C53.7986 35.8825 53.8069 35.784 53.8069 35.6659C53.8069 35.549 53.7989 35.4512 53.7831 35.3724C53.7672 35.2937 53.7411 35.2346 53.7049 35.1952C53.6687 35.1552 53.6201 35.1352 53.5592 35.1352C53.4982 35.1352 53.4496 35.1552 53.4134 35.1952C53.3778 35.2346 53.3521 35.2937 53.3362 35.3724C53.321 35.4512 53.3134 35.549 53.3134 35.6659ZM55.1502 35.6659C55.1502 35.7783 55.1414 35.879 55.1236 35.9679C55.1064 36.0562 55.0791 36.1311 55.0416 36.1927C55.0042 36.2544 54.9553 36.3014 54.8949 36.3337C54.8346 36.3661 54.7615 36.3823 54.6758 36.3823C54.5684 36.3823 54.4798 36.3541 54.41 36.2975C54.3401 36.2404 54.2883 36.1584 54.2547 36.0517C54.221 35.9444 54.2042 35.8158 54.2042 35.6659C54.2042 35.516 54.2194 35.3877 54.2499 35.281C54.281 35.1736 54.3312 35.0914 54.4004 35.0342C54.4697 34.977 54.5615 34.9485 54.6758 34.9485C54.7838 34.9485 54.8727 34.977 54.9425 35.0342C55.0131 35.0907 55.0651 35.1727 55.0988 35.28C55.1331 35.3867 55.1502 35.5153 55.1502 35.6659ZM54.43 35.6659C54.43 35.7834 54.4376 35.8815 54.4528 35.9603C54.4687 36.039 54.4948 36.0981 54.531 36.1375C54.5672 36.1762 54.6154 36.1956 54.6758 36.1956C54.7361 36.1956 54.7844 36.1762 54.8206 36.1375C54.8568 36.0987 54.8828 36.04 54.8987 35.9612C54.9152 35.8825 54.9235 35.784 54.9235 35.6659C54.9235 35.549 54.9156 35.4512 54.8997 35.3724C54.8838 35.2937 54.8578 35.2346 54.8216 35.1952C54.7853 35.1552 54.7368 35.1352 54.6758 35.1352C54.6148 35.1352 54.5662 35.1552 54.53 35.1952C54.4944 35.2346 54.4687 35.2937 54.4528 35.3724C54.4376 35.4512 54.43 35.549 54.43 35.6659Z" fill="#444444"/>
<circle cx="21.2332" cy="67.4422" r="0.465632" fill="#CF2955"/>
<circle cx="29.282" cy="49.9539" r="0.465632" fill="#CF2955"/>
<circle cx="29.282" cy="61.6609" r="0.465632" fill="#5F00CB"/>
<circle cx="37.3309" cy="54.1024" r="0.465632" fill="#2A8ED5"/>
<circle cx="45.3797" cy="34.3445" r="0.465632" fill="#2A8ED5"/>
<circle cx="53.4285" cy="38.4891" r="0.465632" fill="#2A8ED5"/>
<circle cx="61.4774" cy="54.8328" r="0.465632" fill="#2A8ED5"/>
<circle cx="69.5262" cy="57.7586" r="0.465632" fill="#2A8ED5"/>
<circle cx="37.3309" cy="48.2469" r="0.465632" fill="#CF2955"/>
<circle cx="45.3797" cy="51.6609" r="0.465632" fill="#CF2955"/>
<circle cx="53.4285" cy="59.2234" r="0.465632" fill="#CF2955"/>
<circle cx="61.4774" cy="66.2977" r="0.465632" fill="#CF2955"/>
<circle cx="69.5262" cy="67.5164" r="0.465632" fill="#CF2955"/>
<circle cx="77.575" cy="65.8094" r="0.465632" fill="#CF2955"/>
<g filter="url(#filter3_d_7908_88332)">
<rect x="26.3779" y="58.2656" width="5.85366" height="3.65854" rx="1.82927" fill="white"/>
</g>
<path d="M28.6423 59.3419C28.723 59.3419 28.7957 59.3546 28.8605 59.38C28.9253 59.4048 28.9767 59.442 29.0148 59.4915C29.0529 59.5411 29.072 59.6024 29.072 59.6754C29.072 59.7319 29.0603 59.7812 29.0368 59.8231C29.0139 59.865 28.9828 59.9018 28.9434 59.9336C28.904 59.9647 28.8599 59.9923 28.811 60.0165C28.8656 60.0432 28.9158 60.074 28.9615 60.1089C29.0079 60.1432 29.045 60.1835 29.073 60.2299C29.1015 60.2763 29.1158 60.3306 29.1158 60.3928C29.1158 60.4709 29.0958 60.5386 29.0558 60.5958C29.0164 60.6523 28.9615 60.6961 28.891 60.7272C28.8205 60.7577 28.7382 60.773 28.6442 60.773C28.5432 60.773 28.4572 60.758 28.386 60.7282C28.3149 60.6983 28.2609 60.6558 28.2241 60.6005C28.1872 60.5446 28.1688 60.4779 28.1688 60.4004C28.1688 60.3363 28.1815 60.2807 28.2069 60.2337C28.2323 60.1867 28.2663 60.1461 28.3089 60.1118C28.352 60.0775 28.3994 60.0486 28.4508 60.0251C28.407 59.999 28.367 59.9698 28.3308 59.9374C28.2946 59.9044 28.2657 59.8666 28.2441 59.824C28.2231 59.7808 28.2126 59.731 28.2126 59.6744C28.2126 59.602 28.232 59.5414 28.2707 59.4925C28.3095 59.4429 28.3613 59.4055 28.426 59.38C28.4915 59.3546 28.5636 59.3419 28.6423 59.3419ZM28.3822 60.3919C28.3822 60.4528 28.4038 60.503 28.447 60.5424C28.4902 60.5818 28.5547 60.6015 28.6404 60.6015C28.7255 60.6015 28.7903 60.5821 28.8348 60.5433C28.8792 60.5046 28.9015 60.4535 28.9015 60.39C28.9015 60.3493 28.89 60.3134 28.8672 60.2823C28.8449 60.2512 28.8148 60.2235 28.7767 60.1994C28.7392 60.1746 28.6976 60.1518 28.6518 60.1308L28.6214 60.1184C28.5718 60.1394 28.5293 60.1632 28.4937 60.1899C28.4581 60.2159 28.4305 60.2455 28.4108 60.2785C28.3917 60.3115 28.3822 60.3493 28.3822 60.3919ZM28.6404 59.5144C28.5788 59.5144 28.528 59.5296 28.488 59.5601C28.4486 59.59 28.4289 59.6332 28.4289 59.6897C28.4289 59.7297 28.4384 59.764 28.4575 59.7926C28.4772 59.8212 28.5035 59.8459 28.5366 59.8669C28.5696 59.8872 28.6061 59.9063 28.6461 59.9241C28.6849 59.9069 28.7198 59.8882 28.7509 59.8679C28.7827 59.8469 28.8078 59.8221 28.8262 59.7935C28.8453 59.7643 28.8548 59.7294 28.8548 59.6887C28.8548 59.6328 28.8348 59.59 28.7948 59.5601C28.7554 59.5296 28.7039 59.5144 28.6404 59.5144ZM30.2324 60.0565C30.2324 60.1689 30.2236 60.2696 30.2058 60.3585C30.1886 60.4468 30.1613 60.5218 30.1238 60.5834C30.0864 60.645 30.0375 60.692 29.9771 60.7244C29.9168 60.7568 29.8437 60.773 29.758 60.773C29.6506 60.773 29.562 60.7447 29.4922 60.6882C29.4223 60.631 29.3705 60.5491 29.3369 60.4424C29.3032 60.335 29.2864 60.2064 29.2864 60.0565C29.2864 59.9066 29.3016 59.7783 29.3321 59.6716C29.3632 59.5642 29.4134 59.482 29.4826 59.4248C29.5519 59.3677 29.6437 59.3391 29.758 59.3391C29.866 59.3391 29.9549 59.3677 30.0247 59.4248C30.0953 59.4814 30.1473 59.5633 30.181 59.6706C30.2153 59.7773 30.2324 59.906 30.2324 60.0565ZM29.5122 60.0565C29.5122 60.174 29.5198 60.2721 29.535 60.3509C29.5509 60.4297 29.577 60.4887 29.6132 60.5281C29.6494 60.5669 29.6976 60.5862 29.758 60.5862C29.8183 60.5862 29.8666 60.5669 29.9028 60.5281C29.939 60.4894 29.965 60.4306 29.9809 60.3518C29.9974 60.2731 30.0057 60.1746 30.0057 60.0565C30.0057 59.9396 29.9978 59.8418 29.9819 59.7631C29.966 59.6843 29.94 59.6252 29.9037 59.5858C29.8675 59.5458 29.819 59.5258 29.758 59.5258C29.697 59.5258 29.6484 59.5458 29.6122 59.5858C29.5766 59.6252 29.5509 59.6843 29.535 59.7631C29.5198 59.8418 29.5122 59.9396 29.5122 60.0565Z" fill="#444444"/>
<defs>
<filter id="filter0_d_7908_88332" x="24.0038" y="27.7773" width="10.1095" height="5.47672" filterUnits="userSpaceOnUse" color-interpolation-filters="sRGB">
<feFlood flood-opacity="0" result="BackgroundImageFix"/>
<feColorMatrix in="SourceAlpha" type="matrix" values="0 0 0 0 0 0 0 0 0 0 0 0 0 0 0 0 0 0 127 0" result="hardAlpha"/>
<feOffset dy="0.908283"/>
<feGaussianBlur stdDeviation="0.454141"/>
<feComposite in2="hardAlpha" operator="out"/>
<feColorMatrix type="matrix" values="0 0 0 0 0 0 0 0 0 0 0 0 0 0 0 0 0 0 0.25 0"/>
<feBlend mode="normal" in2="BackgroundImageFix" result="effect1_dropShadow_7908_88332"/>
<feBlend mode="normal" in="SourceGraphic" in2="effect1_dropShadow_7908_88332" result="shape"/>
</filter>
<filter id="filter1_d_7908_88332" x="49.6152" y="54.6094" width="7.67008" height="5.47672" filterUnits="userSpaceOnUse" color-interpolation-filters="sRGB">
<feFlood flood-opacity="0" result="BackgroundImageFix"/>
<feColorMatrix in="SourceAlpha" type="matrix" values="0 0 0 0 0 0 0 0 0 0 0 0 0 0 0 0 0 0 127 0" result="hardAlpha"/>
<feOffset dy="0.908283"/>
<feGaussianBlur stdDeviation="0.454141"/>
<feComposite in2="hardAlpha" operator="out"/>
<feColorMatrix type="matrix" values="0 0 0 0 0 0 0 0 0 0 0 0 0 0 0 0 0 0 0.25 0"/>
<feBlend mode="normal" in2="BackgroundImageFix" result="effect1_dropShadow_7908_88332"/>
<feBlend mode="normal" in="SourceGraphic" in2="effect1_dropShadow_7908_88332" result="shape"/>
</filter>
<filter id="filter2_d_7908_88332" x="49.1298" y="33.875" width="8.15836" height="5.47672" filterUnits="userSpaceOnUse" color-interpolation-filters="sRGB">
<feFlood flood-opacity="0" result="BackgroundImageFix"/>
<feColorMatrix in="SourceAlpha" type="matrix" values="0 0 0 0 0 0 0 0 0 0 0 0 0 0 0 0 0 0 127 0" result="hardAlpha"/>
<feOffset dy="0.908283"/>
<feGaussianBlur stdDeviation="0.454141"/>
<feComposite in2="hardAlpha" operator="out"/>
<feColorMatrix type="matrix" values="0 0 0 0 0 0 0 0 0 0 0 0 0 0 0 0 0 0 0.25 0"/>
<feBlend mode="normal" in2="BackgroundImageFix" result="effect1_dropShadow_7908_88332"/>
<feBlend mode="normal" in="SourceGraphic" in2="effect1_dropShadow_7908_88332" result="shape"/>
</filter>
<filter id="filter3_d_7908_88332" x="25.4696" y="58.2656" width="7.67008" height="5.47672" filterUnits="userSpaceOnUse" color-interpolation-filters="sRGB">
<feFlood flood-opacity="0" result="BackgroundImageFix"/>
<feColorMatrix in="SourceAlpha" type="matrix" values="0 0 0 0 0 0 0 0 0 0 0 0 0 0 0 0 0 0 127 0" result="hardAlpha"/>
<feOffset dy="0.908283"/>
<feGaussianBlur stdDeviation="0.454141"/>
<feComposite in2="hardAlpha" operator="out"/>
<feColorMatrix type="matrix" values="0 0 0 0 0 0 0 0 0 0 0 0 0 0 0 0 0 0 0.25 0"/>
<feBlend mode="normal" in2="BackgroundImageFix" result="effect1_dropShadow_7908_88332"/>
<feBlend mode="normal" in="SourceGraphic" in2="effect1_dropShadow_7908_88332" result="shape"/>
</filter>
</defs>
</svg>
