<svg width="154" height="207" viewBox="0 0 154 207" fill="none" xmlns="http://www.w3.org/2000/svg">
<rect x="153.5" y="0.5" width="206" height="153" rx="22.5" transform="rotate(90 153.5 0.5)" fill="#F4FFDB" stroke="#8DCE00"/>
<rect x="10.5" y="10.5" width="133" height="186" rx="13.5" fill="white"/>
<rect x="10.5" y="10.5" width="133" height="186" rx="13.5" stroke="#8DCE00" stroke-dasharray="2 2"/>
<path fill-rule="evenodd" clip-rule="evenodd" d="M40.096 34.0651C40.1907 35.0841 37.755 36.9937 36.8599 36.3772C36.8771 35.4352 38.2886 34.4248 39.132 34.0822C39.6915 33.851 39.6656 33.8938 40.096 34.0651ZM57.1543 36.3772C56.2506 36.9852 53.8235 35.0841 53.9182 34.0651C54.4604 33.7311 55.1748 34.1679 55.7858 34.5875C56.4658 35.0584 57.1457 35.6664 57.1543 36.3772ZM54.9768 39.5028C55.1317 39.8967 55.235 46.833 55.1489 47.1926L51.0952 46.5504C47.4116 46.2592 46.6456 46.2164 42.9189 46.5504L38.8566 47.2012C38.6845 46.4647 38.9255 43.8101 38.9255 42.714C38.9255 42.3886 38.8738 42.1317 38.8824 41.8149C38.8911 41.2411 38.8222 40.4876 39.0288 39.9738C38.9083 39.6826 38.9943 38.7578 39.0288 38.7064C41.6968 36.9424 44.7608 36.5142 47.0071 36.5056C49.2276 36.5056 53.4707 37.2506 55.0457 38.8006L54.9854 39.5285L54.9768 39.5028ZM53.5309 63.3772C53.1006 64.3192 51.8182 63.9852 51.1727 64.028L43.9001 64.088C43.4784 64.0623 43.1083 64.0195 42.6866 64.028C42.196 64.0366 41.9378 64.1051 41.4816 64.028C40.2767 63.8568 40.3542 62.5466 40.3972 61.9215C40.6038 58.8729 39.4849 56.4752 41.7054 56.5951L52.61 56.5865C54.0559 56.5352 53.703 57.931 53.7289 58.539C53.7719 59.4895 53.7375 60.0718 53.6944 60.9538C53.66 61.9129 53.7547 62.8977 53.5309 63.3943V63.3772ZM36.3693 81.8568C37.2902 81.6598 39.5538 83.5523 39.6657 84.5371C39.1062 84.9224 38.2025 84.1432 37.7033 83.7321C37.1525 83.2868 36.2488 82.559 36.3779 81.8653L36.3693 81.8568ZM56.9563 72.8825C57.2662 74.0813 57.1026 74.5694 55.5793 75.8796C53.3674 77.7721 49.1587 78.6884 46.6284 78.4828C43.6247 78.2345 40.1476 77.8749 37.7033 75.1689C37.23 74.6465 36.8341 74.2183 36.8943 73.6788C36.9374 73.3449 37.0148 72.5485 37.1869 72.2745C37.0751 71.7179 37.4796 69.637 37.5656 69.0718C37.6603 68.4124 37.9013 66.3401 38.0906 65.8777C39.9755 66.6912 42.8157 66.8796 44.8124 67.1022C45.1997 67.1451 45.5526 67.1022 45.9399 67.1279C47.3169 67.2136 50.1743 67.0766 51.4653 66.8882C53.7719 66.5456 54.2797 66.2459 55.9235 65.9291L56.9477 72.5485C56.9563 72.6256 56.9563 72.6941 56.9563 72.7626L56.9477 72.891L56.9563 72.8825ZM57.6449 81.8568C57.774 82.5675 56.81 83.3382 56.242 83.7835C55.7256 84.1946 54.8907 84.9053 54.3485 84.5371C54.4604 83.5523 56.724 81.6598 57.6449 81.8568ZM58.2129 67.402L58.7379 60.8682C58.7465 60.6198 58.7809 60.4315 58.7637 60.1917C58.583 55.2164 59.0391 56.989 59.1682 55.5932C59.2027 55.2507 59.1338 54.6684 58.9272 54.2402C58.4883 53.2897 58.5744 51.6969 58.5055 50.3268C58.4883 49.9157 58.3764 49.3763 58.3592 48.9652C58.3334 48.5285 58.6604 47.9633 58.7465 47.6037C58.8412 47.2012 58.9186 46.5932 58.9445 46.2421C59.0736 44.401 59.0994 42.7654 58.9789 40.9671C58.867 39.3658 59.0477 37.5247 57.9375 35.7007C56.8186 33.851 54.5637 32.5665 52.8252 32.0699C50.6563 31.4533 49.4944 31.4619 47.4546 31.4019C44.8554 31.3334 39.8034 31.4276 36.8083 34.6817C35.655 35.949 35.3107 37.0965 35.1472 38.6293C34.9923 40.1536 34.8287 44.0499 34.9492 45.3344C35.0267 46.1136 35.0611 47.1241 35.3365 47.9804C35.8787 49.6503 35.4828 48.4857 35.4742 50.6179C35.4742 51.0632 35.3796 51.4486 35.3882 51.9024C35.4226 54.8824 34.4759 54.5057 34.8804 55.97C35.0267 56.4752 35.2332 56.6636 35.2677 57.2459C35.371 59.147 35.216 61.322 35.3968 63.8825C35.4312 64.3962 35.5517 66.1945 35.698 66.5799C35.7927 66.3144 35.5947 63.9253 35.5689 63.6598L35.5087 54.8482C35.7496 51.7654 35.7324 49.3163 36.2919 46.0366C36.4468 45.1117 36.5156 43.9814 36.7824 43.1336L37.4624 50.1812C37.5054 52.6217 37.6431 54.8311 37.5312 57.3401L37.3763 61.7074C37.3763 62.0499 37.316 62.264 37.3074 62.6151C37.2816 63.6855 36.6275 70.7416 36.3263 71.6408C36.1283 71.0157 36.0939 70.1422 36.0337 69.5513C35.2505 69.5257 34.0369 68.4381 32.9009 68.6265C32.1779 69.8767 34.2005 70.5704 35.0181 70.8016L34.8459 73.6103C34.7685 74.578 34.8373 75.5713 34.8373 76.5475C34.8201 78.4143 34.648 80.0414 35.8787 82.3449C37.8066 85.9415 41.7829 87.1575 45.4923 87.1489C45.9915 87.1489 46.4907 87.166 47.0071 87.166C51.121 87.166 55.7686 86.7721 58.144 82.3535C59.3834 80.0414 59.2027 78.4229 59.1854 76.5561C59.1768 75.3144 59.2457 73.5333 59.0908 72.2659C59.0305 71.7778 59.0047 71.3068 58.9875 70.8101C59.8309 70.5875 61.8363 69.8768 61.1047 68.6351C59.9686 68.4467 58.7637 69.5257 57.9547 69.5599C57.9117 70.048 57.8084 71.4524 57.6707 71.8806C57.292 70.6817 56.767 65.912 56.6809 64.7302C56.4313 61.3306 56.1645 57.2802 56.3711 53.9576C56.5174 51.5685 56.5174 49.2221 56.7756 46.7216C56.8358 46.0965 56.8961 45.5399 56.9649 44.9062C57.0338 44.2897 57.0596 43.7159 57.2059 43.1593C57.2317 43.5104 57.3436 44.1698 57.4125 44.5979L58.2904 54.3943L58.4195 59.7464C58.4022 61.1165 58.4969 61.245 58.4108 62.8377C58.3936 63.1118 58.3592 63.3173 58.3592 63.5913L58.1871 67.205C58.1957 67.3848 58.1785 67.2821 58.2129 67.4191V67.402Z" fill="#2B2A29"/>
<path fill-rule="evenodd" clip-rule="evenodd" d="M35.7151 66.5795C35.7753 66.7594 35.8184 66.8878 35.827 67.0505L35.7839 67.4187C35.7409 67.2903 35.6721 67.0848 35.6548 66.982C35.586 66.4511 35.5946 66.8707 35.6979 66.5795H35.7151ZM35.7926 67.4102C35.9303 67.8384 35.913 67.8384 35.8442 68.1466C35.7151 67.6928 35.6807 67.7099 35.7926 67.4102ZM35.9216 68.806C35.7753 68.335 35.827 68.4549 35.8786 68.1809L35.9216 68.806ZM58.2042 67.3931C58.2816 67.6243 58.3849 67.2989 58.1525 68.1466L58.1095 67.7099C58.1267 67.5729 58.1525 67.5472 58.2042 67.3931ZM58.1267 68.1723C58.2472 68.5491 58.2128 68.395 58.0837 68.8146C58.0406 68.5662 58.0234 68.8574 58.0579 68.4635C58.0751 68.2408 58.0665 68.4035 58.1267 68.1723ZM35.7237 66.571C35.586 66.1771 35.4655 64.3788 35.4225 63.8736C35.2331 61.3217 35.388 59.1466 35.2934 57.237C35.2675 56.6461 35.0524 56.4663 34.9061 55.9611C34.5016 54.4968 35.4483 54.8735 35.4139 51.8935C35.4053 51.4397 35.4999 51.0543 35.4999 50.609C35.4999 48.4853 35.8958 49.6499 35.3622 47.9715C35.0868 47.1152 35.0524 46.1219 34.9749 45.3255C34.8458 44.0324 35.0007 40.1447 35.1729 38.6204C35.3364 37.0876 35.6721 35.9316 36.834 34.6728C39.8118 31.4187 44.8725 31.316 47.4803 31.393C49.5287 31.4444 50.682 31.4444 52.8509 32.061C54.5894 32.5576 56.8529 33.8336 57.9632 35.6918C59.0648 37.5243 58.8927 39.3569 59.0046 40.9582C59.1251 42.7565 59.0906 44.3835 58.9702 46.2332C58.9443 46.5843 58.8669 47.1923 58.7722 47.5948C58.6861 47.9544 58.3591 48.5196 58.3849 48.9563C58.4021 49.3674 58.514 49.9068 58.5312 50.3179C58.6001 51.688 58.514 53.2808 58.9529 54.2313C59.1509 54.668 59.2197 55.2503 59.1939 55.5843C59.0648 56.9801 58.6001 55.1989 58.7894 60.1828C58.798 60.4311 58.7722 60.6109 58.7636 60.8593L58.2386 67.3931C58.2042 67.2732 58.2128 67.3674 58.2128 67.179L58.3849 63.5653C58.3849 63.2912 58.4193 63.0857 58.4365 62.8117C58.5226 61.2189 58.4452 61.0905 58.4452 59.7204L58.3161 54.3683L57.4382 44.5719C57.3779 44.1352 57.2574 43.4672 57.2316 43.1333C57.0853 43.6899 57.0509 44.2551 56.9906 44.8802C56.9304 45.5053 56.8701 46.0619 56.8013 46.6956C56.5431 49.1961 56.5431 51.5424 56.3968 53.9316C56.1902 57.2713 56.4484 61.3131 56.7066 64.7042C56.7927 65.8688 57.3263 70.6471 57.6964 71.8545C57.8513 71.4264 57.9374 70.022 57.9804 69.5339C58.7894 69.4996 59.9943 68.4207 61.1304 68.609C61.8534 69.8593 59.848 70.57 59.0132 70.7841C59.0218 71.2722 59.0562 71.7518 59.1165 72.2399C59.2714 73.5072 59.2025 75.2884 59.2111 76.5301C59.2284 78.3969 59.4005 80.0239 58.1697 82.3274C55.8029 86.7546 51.1554 87.1314 47.0328 87.14C46.5164 87.14 46.0172 87.1229 45.518 87.1229C41.8 87.14 37.8237 85.924 35.9044 82.3189C34.6651 80.0068 34.8458 78.3883 34.863 76.5215C34.8716 75.5367 34.7942 74.552 34.8716 73.5843L35.0438 70.7756C34.2261 70.5443 32.2036 69.8507 32.9265 68.6005C34.0626 68.4121 35.2934 69.4996 36.0594 69.5253C36.1196 70.1162 36.154 70.9896 36.352 71.6148C36.6532 70.7156 37.3073 63.6595 37.3331 62.5891C37.3417 62.238 37.402 62.0239 37.402 61.6814L37.5569 57.3141C37.6688 54.805 37.5225 52.6043 37.4881 50.1552L36.8081 43.1076C36.5413 43.9554 36.4725 45.0857 36.3176 46.0105C35.7581 49.2903 35.7753 51.7394 35.5344 54.8222L35.5946 63.6338C35.6204 63.8992 35.8098 66.297 35.7237 66.5539V66.571ZM59.3402 71.1267C59.8997 70.8441 60.5021 70.7584 61.0616 70.2532C61.9394 69.4654 62.3956 67.0762 58.5312 68.9345C58.4882 68.4635 58.5915 67.9839 58.6431 67.5044L59.1079 57.708C59.2111 56.1152 59.7361 56.158 59.521 54.8479C59.4349 54.3341 59.1079 53.8545 59.0304 53.4178C58.9615 52.9896 58.9443 52.5101 58.9788 52.0648C59.0304 51.1571 58.6173 49.2046 58.8669 48.5282C59.6673 46.3103 59.521 43.0648 59.3661 40.8383L59.2886 39.4083C59.1337 37.8497 59.1509 36.7879 58.1181 35.2636C55.648 31.59 50.7939 31.0419 47.007 31.0419C43.2373 31.0419 38.3659 31.59 35.8958 35.2636C34.6565 37.1133 34.7856 38.903 34.6393 40.9154C34.5188 42.6109 34.493 44.7432 34.6823 46.4901C34.8458 47.9715 34.9147 47.6633 35.2073 48.6737C35.345 49.1361 34.9835 51.3968 35.0266 52.1419C35.1557 54.5653 33.9507 54.6166 34.6393 56.3636C35.018 57.3398 34.8975 58.1447 34.9061 59.1466C34.9061 59.6604 34.8458 60.0629 34.8802 60.5767L35.3794 67.5815C35.4311 68.061 35.5257 68.4806 35.4827 68.9345C34.7425 68.5748 32.72 67.6585 32.4274 68.7032C32.0315 70.1076 33.6925 70.6471 34.6823 71.1352C34.3639 72.3084 34.3811 78.9021 34.5962 79.9383C35.6893 85.3246 40.552 87.5767 45.5697 87.5168L47.7643 87.5596C48.1172 87.5339 48.2119 87.5082 48.5217 87.5253C48.7885 87.5339 49.0037 87.5767 49.2791 87.5596C52.7734 87.3198 56.457 86.1038 58.3505 82.7299C58.8927 81.7622 59.2972 80.709 59.4521 79.7841C59.6329 78.7308 59.6673 72.3598 59.3316 71.1352L59.3402 71.1267Z" fill="#2B2A29"/>
<path fill-rule="evenodd" clip-rule="evenodd" d="M35.7141 66.5793C35.6023 66.8619 35.5936 66.4423 35.6711 66.9818C35.6883 67.0846 35.74 67.2901 35.8002 67.4186L35.8432 67.0503C35.826 66.8791 35.7916 66.7592 35.7313 66.5793L35.7141 66.5793Z" fill="#2B2A29"/>
<path fill-rule="evenodd" clip-rule="evenodd" d="M58.2047 67.395C58.1531 67.5491 58.1273 67.5748 58.1101 67.7118L58.1531 68.1486C58.3941 67.2922 58.2822 67.6262 58.2047 67.395Z" fill="#2B2A29"/>
<path fill-rule="evenodd" clip-rule="evenodd" d="M35.7916 67.4108C35.6797 67.7105 35.7227 67.6848 35.8432 68.1472C35.9121 67.8389 35.9293 67.8389 35.7916 67.4108Z" fill="#2B2A29"/>
<path fill-rule="evenodd" clip-rule="evenodd" d="M58.1255 68.171C58.0653 68.4022 58.0739 68.2395 58.0567 68.4621C58.0222 68.8561 58.0395 68.5649 58.0825 68.8132C58.2116 68.3936 58.246 68.5478 58.1255 68.171Z" fill="#2B2A29"/>
<path fill-rule="evenodd" clip-rule="evenodd" d="M35.8802 68.1797C35.8199 68.4452 35.7855 68.3253 35.9232 68.8048L35.8802 68.1797Z" fill="#2B2A29"/>
<path fill-rule="evenodd" clip-rule="evenodd" d="M40.096 34.0651C40.1907 35.0841 37.755 36.9937 36.8599 36.3772C36.8771 35.4352 38.2886 34.4248 39.132 34.0822C39.6915 33.851 39.6656 33.8938 40.096 34.0651ZM57.1543 36.3772C56.2506 36.9852 53.8235 35.0841 53.9182 34.0651C54.4604 33.7311 55.1748 34.1679 55.7858 34.5875C56.4658 35.0584 57.1457 35.6664 57.1543 36.3772ZM54.9768 39.5028C55.1317 39.8967 55.235 46.833 55.1489 47.1926L51.0952 46.5504C47.4116 46.2592 46.6456 46.2164 42.9189 46.5504L38.8566 47.2012C38.6845 46.4647 38.9255 43.8101 38.9255 42.714C38.9255 42.3886 38.8738 42.1317 38.8824 41.8149C38.8911 41.2411 38.8222 40.4876 39.0288 39.9738C38.9083 39.6826 38.9943 38.7578 39.0288 38.7064C41.6968 36.9424 44.7608 36.5142 47.0071 36.5056C49.2276 36.5056 53.4707 37.2506 55.0457 38.8006L54.9854 39.5285L54.9768 39.5028ZM53.5309 63.3772C53.1006 64.3192 51.8182 63.9852 51.1727 64.028L43.9001 64.088C43.4784 64.0623 43.1083 64.0195 42.6866 64.028C42.196 64.0366 41.9378 64.1051 41.4816 64.028C40.2767 63.8568 40.3542 62.5466 40.3972 61.9215C40.6038 58.8729 39.4849 56.4752 41.7054 56.5951L52.61 56.5865C54.0559 56.5352 53.703 57.931 53.7289 58.539C53.7719 59.4895 53.7375 60.0718 53.6944 60.9538C53.66 61.9129 53.7547 62.8977 53.5309 63.3943V63.3772ZM36.3693 81.8568C37.2902 81.6598 39.5538 83.5523 39.6657 84.5371C39.1062 84.9224 38.2025 84.1432 37.7033 83.7321C37.1525 83.2868 36.2488 82.559 36.3779 81.8653L36.3693 81.8568ZM56.9563 72.8825C57.2662 74.0813 57.1026 74.5694 55.5793 75.8796C53.3674 77.7721 49.1587 78.6884 46.6284 78.4828C43.6247 78.2345 40.1476 77.8749 37.7033 75.1689C37.23 74.6465 36.8341 74.2183 36.8943 73.6788C36.9374 73.3449 37.0148 72.5485 37.1869 72.2745C37.0751 71.7179 37.4796 69.637 37.5656 69.0718C37.6603 68.4124 37.9013 66.3401 38.0906 65.8777C39.9755 66.6912 42.8157 66.8796 44.8124 67.1022C45.1997 67.1451 45.5526 67.1022 45.9399 67.1279C47.3169 67.2136 50.1743 67.0766 51.4653 66.8882C53.7719 66.5456 54.2797 66.2459 55.9235 65.9291L56.9477 72.5485C56.9563 72.6256 56.9563 72.6941 56.9563 72.7626L56.9477 72.891L56.9563 72.8825ZM57.6449 81.8568C57.774 82.5675 56.81 83.3382 56.242 83.7835C55.7256 84.1946 54.8907 84.9053 54.3485 84.5371C54.4604 83.5523 56.724 81.6598 57.6449 81.8568ZM58.2129 67.402L58.7379 60.8682C58.7465 60.6198 58.7809 60.4315 58.7637 60.1917C58.583 55.2164 59.0391 56.989 59.1682 55.5932C59.2027 55.2507 59.1338 54.6684 58.9272 54.2402C58.4883 53.2897 58.5744 51.6969 58.5055 50.3268C58.4883 49.9157 58.3764 49.3763 58.3592 48.9652C58.3334 48.5285 58.6604 47.9633 58.7465 47.6037C58.8412 47.2012 58.9186 46.5932 58.9445 46.2421C59.0736 44.401 59.0994 42.7654 58.9789 40.9671C58.867 39.3658 59.0477 37.5247 57.9375 35.7007C56.8186 33.851 54.5637 32.5665 52.8252 32.0699C50.6563 31.4533 49.4944 31.4619 47.4546 31.4019C44.8554 31.3334 39.8034 31.4276 36.8083 34.6817C35.655 35.949 35.3107 37.0965 35.1472 38.6293C34.9923 40.1536 34.8287 44.0499 34.9492 45.3344C35.0267 46.1136 35.0611 47.1241 35.3365 47.9804C35.8787 49.6503 35.4828 48.4857 35.4742 50.6179C35.4742 51.0632 35.3796 51.4486 35.3882 51.9024C35.4226 54.8824 34.4759 54.5057 34.8804 55.97C35.0267 56.4752 35.2332 56.6636 35.2677 57.2459C35.371 59.147 35.216 61.322 35.3968 63.8825C35.4312 64.3962 35.5517 66.1945 35.698 66.5799C35.7927 66.3144 35.5947 63.9253 35.5689 63.6598L35.5087 54.8482C35.7496 51.7654 35.7324 49.3163 36.2919 46.0366C36.4468 45.1117 36.5156 43.9814 36.7824 43.1336L37.4624 50.1812C37.5054 52.6217 37.6431 54.8311 37.5312 57.3401L37.3763 61.7074C37.3763 62.0499 37.316 62.264 37.3074 62.6151C37.2816 63.6855 36.6275 70.7416 36.3263 71.6408C36.1283 71.0157 36.0939 70.1422 36.0337 69.5513C35.2505 69.5257 34.0369 68.4381 32.9009 68.6265C32.1779 69.8767 34.2005 70.5704 35.0181 70.8016L34.8459 73.6103C34.7685 74.578 34.8373 75.5713 34.8373 76.5475C34.8201 78.4143 34.648 80.0414 35.8787 82.3449C37.8066 85.9415 41.7829 87.1575 45.4923 87.1489C45.9915 87.1489 46.4907 87.166 47.0071 87.166C51.121 87.166 55.7686 86.7721 58.144 82.3535C59.3834 80.0414 59.2027 78.4229 59.1854 76.5561C59.1768 75.3144 59.2457 73.5333 59.0908 72.2659C59.0305 71.7778 59.0047 71.3068 58.9875 70.8101C59.8309 70.5875 61.8363 69.8768 61.1047 68.6351C59.9686 68.4467 58.7637 69.5257 57.9547 69.5599C57.9117 70.048 57.8084 71.4524 57.6707 71.8806C57.292 70.6817 56.767 65.912 56.6809 64.7302C56.4313 61.3306 56.1645 57.2802 56.3711 53.9576C56.5174 51.5685 56.5174 49.2221 56.7756 46.7216C56.8358 46.0965 56.8961 45.5399 56.9649 44.9062C57.0338 44.2897 57.0596 43.7159 57.2059 43.1593C57.2317 43.5104 57.3436 44.1698 57.4125 44.5979L58.2904 54.3943L58.4195 59.7464C58.4022 61.1165 58.4969 61.245 58.4108 62.8377C58.3936 63.1118 58.3592 63.3173 58.3592 63.5913L58.1871 67.205C58.1957 67.3848 58.1785 67.2821 58.2129 67.4191V67.402Z" fill="#2B2A29"/>
<path fill-rule="evenodd" clip-rule="evenodd" d="M35.7151 66.5795C35.7753 66.7594 35.8184 66.8878 35.827 67.0505L35.7839 67.4187C35.7409 67.2903 35.6721 67.0848 35.6548 66.982C35.586 66.4511 35.5946 66.8707 35.6979 66.5795H35.7151ZM35.7926 67.4102C35.9303 67.8384 35.913 67.8384 35.8442 68.1466C35.7151 67.6928 35.6807 67.7099 35.7926 67.4102ZM35.9216 68.806C35.7753 68.335 35.827 68.4549 35.8786 68.1809L35.9216 68.806ZM58.2042 67.3931C58.2816 67.6243 58.3849 67.2989 58.1525 68.1466L58.1095 67.7099C58.1267 67.5729 58.1525 67.5472 58.2042 67.3931ZM58.1267 68.1723C58.2472 68.5491 58.2128 68.395 58.0837 68.8146C58.0406 68.5662 58.0234 68.8574 58.0579 68.4635C58.0751 68.2408 58.0665 68.4035 58.1267 68.1723ZM35.7237 66.571C35.586 66.1771 35.4655 64.3788 35.4225 63.8736C35.2331 61.3217 35.388 59.1466 35.2934 57.237C35.2675 56.6461 35.0524 56.4663 34.9061 55.9611C34.5016 54.4968 35.4483 54.8735 35.4139 51.8935C35.4053 51.4397 35.4999 51.0543 35.4999 50.609C35.4999 48.4853 35.8958 49.6499 35.3622 47.9715C35.0868 47.1152 35.0524 46.1219 34.9749 45.3255C34.8458 44.0324 35.0007 40.1447 35.1729 38.6204C35.3364 37.0876 35.6721 35.9316 36.834 34.6728C39.8118 31.4187 44.8725 31.316 47.4803 31.393C49.5287 31.4444 50.682 31.4444 52.8509 32.061C54.5894 32.5576 56.8529 33.8336 57.9632 35.6918C59.0648 37.5243 58.8927 39.3569 59.0046 40.9582C59.1251 42.7565 59.0906 44.3835 58.9702 46.2332C58.9443 46.5843 58.8669 47.1923 58.7722 47.5948C58.6861 47.9544 58.3591 48.5196 58.3849 48.9563C58.4021 49.3674 58.514 49.9068 58.5312 50.3179C58.6001 51.688 58.514 53.2808 58.9529 54.2313C59.1509 54.668 59.2197 55.2503 59.1939 55.5843C59.0648 56.9801 58.6001 55.1989 58.7894 60.1828C58.798 60.4311 58.7722 60.6109 58.7636 60.8593L58.2386 67.3931C58.2042 67.2732 58.2128 67.3674 58.2128 67.179L58.3849 63.5653C58.3849 63.2912 58.4193 63.0857 58.4365 62.8117C58.5226 61.2189 58.4452 61.0905 58.4452 59.7204L58.3161 54.3683L57.4382 44.5719C57.3779 44.1352 57.2574 43.4672 57.2316 43.1333C57.0853 43.6899 57.0509 44.2551 56.9906 44.8802C56.9304 45.5053 56.8701 46.0619 56.8013 46.6956C56.5431 49.1961 56.5431 51.5424 56.3968 53.9316C56.1902 57.2713 56.4484 61.3131 56.7066 64.7042C56.7927 65.8688 57.3263 70.6471 57.6964 71.8545C57.8513 71.4264 57.9374 70.022 57.9804 69.5339C58.7894 69.4996 59.9943 68.4207 61.1304 68.609C61.8534 69.8593 59.848 70.57 59.0132 70.7841C59.0218 71.2722 59.0562 71.7518 59.1165 72.2399C59.2714 73.5072 59.2025 75.2884 59.2111 76.5301C59.2284 78.3969 59.4005 80.0239 58.1697 82.3274C55.8029 86.7546 51.1554 87.1314 47.0328 87.14C46.5164 87.14 46.0172 87.1229 45.518 87.1229C41.8 87.14 37.8237 85.924 35.9044 82.3189C34.6651 80.0068 34.8458 78.3883 34.863 76.5215C34.8716 75.5367 34.7942 74.552 34.8716 73.5843L35.0438 70.7756C34.2261 70.5443 32.2036 69.8507 32.9265 68.6005C34.0626 68.4121 35.2934 69.4996 36.0594 69.5253C36.1196 70.1162 36.154 70.9896 36.352 71.6148C36.6532 70.7156 37.3073 63.6595 37.3331 62.5891C37.3417 62.238 37.402 62.0239 37.402 61.6814L37.5569 57.3141C37.6688 54.805 37.5225 52.6043 37.4881 50.1552L36.8081 43.1076C36.5413 43.9554 36.4725 45.0857 36.3176 46.0105C35.7581 49.2903 35.7753 51.7394 35.5344 54.8222L35.5946 63.6338C35.6204 63.8992 35.8098 66.297 35.7237 66.5539V66.571ZM59.3402 71.1267C59.8997 70.8441 60.5021 70.7584 61.0616 70.2532C61.9394 69.4654 62.3956 67.0762 58.5312 68.9345C58.4882 68.4635 58.5915 67.9839 58.6431 67.5044L59.1079 57.708C59.2111 56.1152 59.7361 56.158 59.521 54.8479C59.4349 54.3341 59.1079 53.8545 59.0304 53.4178C58.9615 52.9896 58.9443 52.5101 58.9788 52.0648C59.0304 51.1571 58.6173 49.2046 58.8669 48.5282C59.6673 46.3103 59.521 43.0648 59.3661 40.8383L59.2886 39.4083C59.1337 37.8497 59.1509 36.7879 58.1181 35.2636C55.648 31.59 50.7939 31.0419 47.007 31.0419C43.2373 31.0419 38.3659 31.59 35.8958 35.2636C34.6565 37.1133 34.7856 38.903 34.6393 40.9154C34.5188 42.6109 34.493 44.7432 34.6823 46.4901C34.8458 47.9715 34.9147 47.6633 35.2073 48.6737C35.345 49.1361 34.9835 51.3968 35.0266 52.1419C35.1557 54.5653 33.9507 54.6166 34.6393 56.3636C35.018 57.3398 34.8975 58.1447 34.9061 59.1466C34.9061 59.6604 34.8458 60.0629 34.8802 60.5767L35.3794 67.5815C35.4311 68.061 35.5257 68.4806 35.4827 68.9345C34.7425 68.5748 32.72 67.6585 32.4274 68.7032C32.0315 70.1076 33.6925 70.6471 34.6823 71.1352C34.3639 72.3084 34.3811 78.9021 34.5962 79.9383C35.6893 85.3246 40.552 87.5767 45.5697 87.5168L47.7643 87.5596C48.1172 87.5339 48.2119 87.5082 48.5217 87.5253C48.7885 87.5339 49.0037 87.5767 49.2791 87.5596C52.7734 87.3198 56.457 86.1038 58.3505 82.7299C58.8927 81.7622 59.2972 80.709 59.4521 79.7841C59.6329 78.7308 59.6673 72.3598 59.3316 71.1352L59.3402 71.1267Z" fill="#2B2A29"/>
<path fill-rule="evenodd" clip-rule="evenodd" d="M35.7141 66.5793C35.6023 66.8619 35.5936 66.4423 35.6711 66.9818C35.6883 67.0846 35.74 67.2901 35.8002 67.4186L35.8432 67.0503C35.826 66.8791 35.7916 66.7592 35.7313 66.5793L35.7141 66.5793Z" fill="#2B2A29"/>
<path fill-rule="evenodd" clip-rule="evenodd" d="M58.2047 67.395C58.1531 67.5491 58.1273 67.5748 58.1101 67.7118L58.1531 68.1486C58.3941 67.2922 58.2822 67.6262 58.2047 67.395Z" fill="#2B2A29"/>
<path fill-rule="evenodd" clip-rule="evenodd" d="M35.7916 67.4108C35.6797 67.7105 35.7227 67.6848 35.8432 68.1472C35.9121 67.8389 35.9293 67.8389 35.7916 67.4108Z" fill="#2B2A29"/>
<path fill-rule="evenodd" clip-rule="evenodd" d="M58.1255 68.171C58.0653 68.4022 58.0739 68.2395 58.0567 68.4621C58.0222 68.8561 58.0395 68.5649 58.0825 68.8132C58.2116 68.3936 58.246 68.5478 58.1255 68.171Z" fill="#2B2A29"/>
<path fill-rule="evenodd" clip-rule="evenodd" d="M35.8802 68.1797C35.8199 68.4452 35.7855 68.3253 35.9232 68.8048L35.8802 68.1797Z" fill="#2B2A29"/>
<path fill-rule="evenodd" clip-rule="evenodd" d="M98.01 116.067C98.1047 117.086 95.669 118.996 94.774 118.379C94.7912 117.437 96.2027 116.427 97.0461 116.084C97.6055 115.853 97.5797 115.896 98.01 116.067ZM115.068 118.379C114.165 118.987 111.738 117.086 111.832 116.067C112.374 115.733 113.089 116.17 113.7 116.589C114.38 117.06 115.06 117.668 115.068 118.379ZM112.891 121.505C113.046 121.899 113.149 128.835 113.063 129.195L109.009 128.552C105.326 128.261 104.56 128.218 100.833 128.552L96.7707 129.203C96.5986 128.467 96.8395 125.812 96.8395 124.716C96.8395 124.391 96.7879 124.134 96.7965 123.817C96.8051 123.243 96.7363 122.49 96.9428 121.976C96.8223 121.685 96.9084 120.76 96.9428 120.708C99.6109 118.944 102.675 118.516 104.921 118.508C107.142 118.508 111.385 119.253 112.96 120.803L112.899 121.53L112.891 121.505ZM111.445 145.379C111.015 146.321 109.732 145.987 109.087 146.03L101.814 146.09C101.392 146.064 101.022 146.021 100.601 146.03C100.11 146.039 99.8519 146.107 99.3957 146.03C98.1908 145.859 98.2682 144.549 98.3113 143.923C98.5178 140.875 97.399 138.477 99.6195 138.597L110.524 138.588C111.97 138.537 111.617 139.933 111.643 140.541C111.686 141.491 111.652 142.074 111.608 142.956C111.574 143.915 111.669 144.9 111.445 145.396V145.379ZM94.2834 163.859C95.2043 163.662 97.4678 165.554 97.5797 166.539C97.0203 166.924 96.1166 166.145 95.6174 165.734C95.0666 165.289 94.1629 164.561 94.292 163.867L94.2834 163.859ZM114.87 154.884C115.18 156.083 115.017 156.571 113.493 157.882C111.281 159.774 107.073 160.69 104.542 160.485C101.539 160.236 98.0617 159.877 95.6174 157.171C95.144 156.648 94.7481 156.22 94.8084 155.681C94.8514 155.347 94.9289 154.55 95.101 154.276C94.9891 153.72 95.3936 151.639 95.4797 151.074C95.5744 150.414 95.8154 148.342 96.0047 147.88C97.8896 148.693 100.73 148.882 102.726 149.104C103.114 149.147 103.467 149.104 103.854 149.13C105.231 149.216 108.088 149.079 109.379 148.89C111.686 148.548 112.194 148.248 113.838 147.931L114.862 154.55C114.87 154.628 114.87 154.696 114.87 154.765L114.862 154.893L114.87 154.884ZM115.559 163.859C115.688 164.569 114.724 165.34 114.156 165.785C113.64 166.197 112.805 166.907 112.263 166.539C112.374 165.554 114.638 163.662 115.559 163.859ZM116.127 149.404L116.652 142.87C116.661 142.622 116.695 142.433 116.678 142.194C116.497 137.218 116.953 138.991 117.082 137.595C117.117 137.253 117.048 136.67 116.841 136.242C116.402 135.292 116.488 133.699 116.42 132.329C116.402 131.918 116.29 131.378 116.273 130.967C116.247 130.53 116.575 129.965 116.661 129.606C116.755 129.203 116.833 128.595 116.859 128.244C116.988 126.403 117.013 124.767 116.893 122.969C116.781 121.368 116.962 119.527 115.852 117.703C114.733 115.853 112.478 114.568 110.739 114.072C108.57 113.455 107.408 113.464 105.369 113.404C102.769 113.335 97.7174 113.43 94.7223 116.684C93.569 117.951 93.2248 119.098 93.0612 120.631C92.9063 122.156 92.7428 126.052 92.8633 127.336C92.9407 128.116 92.9752 129.126 93.2506 129.982C93.7928 131.652 93.3969 130.488 93.3883 132.62C93.3883 133.065 93.2936 133.451 93.3022 133.904C93.3367 136.884 92.3899 136.508 92.7944 137.972C92.9407 138.477 93.1473 138.666 93.1817 139.248C93.285 141.149 93.1301 143.324 93.3108 145.884C93.3453 146.398 93.4658 148.196 93.6121 148.582C93.7067 148.316 93.5088 145.927 93.483 145.662L93.4227 136.85C93.6637 133.767 93.6465 131.318 94.2059 128.039C94.3608 127.114 94.4297 125.983 94.6965 125.136L95.3764 132.183C95.4195 134.624 95.5572 136.833 95.4453 139.342L95.2904 143.709C95.2904 144.052 95.2301 144.266 95.2215 144.617C95.1957 145.687 94.5416 152.744 94.2403 153.643C94.0424 153.018 94.008 152.144 93.9477 151.553C93.1645 151.528 91.951 150.44 90.8149 150.628C90.092 151.879 92.1145 152.572 92.9321 152.804L92.76 155.612C92.6826 156.58 92.7514 157.573 92.7514 158.549C92.7342 160.416 92.5621 162.043 93.7928 164.347C95.7207 167.943 99.6969 169.159 103.406 169.151C103.906 169.151 104.405 169.168 104.921 169.168C109.035 169.168 113.683 168.774 116.058 164.355C117.297 162.043 117.117 160.425 117.1 158.558C117.091 157.316 117.16 155.535 117.005 154.268C116.945 153.78 116.919 153.309 116.902 152.812C117.745 152.589 119.75 151.879 119.019 150.637C117.883 150.449 116.678 151.528 115.869 151.562C115.826 152.05 115.722 153.454 115.585 153.883C115.206 152.684 114.681 147.914 114.595 146.732C114.345 143.333 114.079 139.282 114.285 135.96C114.431 133.57 114.431 131.224 114.69 128.724C114.75 128.098 114.81 127.542 114.879 126.908C114.948 126.292 114.974 125.718 115.12 125.161C115.146 125.512 115.258 126.172 115.327 126.6L116.204 136.396L116.334 141.748C116.316 143.118 116.411 143.247 116.325 144.84C116.308 145.114 116.273 145.319 116.273 145.593L116.101 149.207C116.11 149.387 116.093 149.284 116.127 149.421V149.404Z" fill="#2B2A29"/>
<path fill-rule="evenodd" clip-rule="evenodd" d="M93.6292 148.582C93.6894 148.761 93.7324 148.89 93.741 149.052L93.698 149.421C93.655 149.292 93.5861 149.087 93.5689 148.984C93.5001 148.453 93.5087 148.873 93.6119 148.582H93.6292ZM93.7066 149.412C93.8443 149.84 93.8271 149.84 93.7583 150.149C93.6292 149.695 93.5947 149.712 93.7066 149.412ZM93.8357 150.808C93.6894 150.337 93.741 150.457 93.7927 150.183L93.8357 150.808ZM116.118 149.395C116.196 149.626 116.299 149.301 116.067 150.149L116.024 149.712C116.041 149.575 116.067 149.549 116.118 149.395ZM116.041 150.174C116.161 150.551 116.127 150.397 115.998 150.817C115.955 150.568 115.937 150.859 115.972 150.465C115.989 150.243 115.981 150.405 116.041 150.174ZM93.6378 148.573C93.5001 148.179 93.3796 146.381 93.3365 145.876C93.1472 143.324 93.3021 141.149 93.2074 139.239C93.1816 138.648 92.9664 138.468 92.8201 137.963C92.4156 136.499 93.3623 136.875 93.3279 133.895C93.3193 133.442 93.414 133.056 93.414 132.611C93.414 130.487 93.8099 131.652 93.2763 129.973C93.0009 129.117 92.9664 128.124 92.889 127.327C92.7599 126.034 92.9148 122.147 93.0869 120.622C93.2505 119.09 93.5861 117.934 94.748 116.675C97.7259 113.421 102.787 113.318 105.394 113.395C107.443 113.446 108.596 113.446 110.765 114.063C112.503 114.56 114.767 115.836 115.877 117.694C116.979 119.526 116.807 121.359 116.919 122.96C117.039 124.758 117.005 126.385 116.884 128.235C116.858 128.586 116.781 129.194 116.686 129.597C116.6 129.956 116.273 130.522 116.299 130.958C116.316 131.369 116.428 131.909 116.445 132.32C116.514 133.69 116.428 135.283 116.867 136.233C117.065 136.67 117.134 137.252 117.108 137.586C116.979 138.982 116.514 137.201 116.703 142.185C116.712 142.433 116.686 142.613 116.678 142.861L116.153 149.395C116.118 149.275 116.127 149.369 116.127 149.181L116.299 145.567C116.299 145.293 116.333 145.088 116.351 144.814C116.437 143.221 116.359 143.092 116.359 141.722L116.23 136.37L115.352 126.574C115.292 126.137 115.172 125.469 115.146 125.135C114.999 125.692 114.965 126.257 114.905 126.882C114.844 127.507 114.784 128.064 114.715 128.698C114.457 131.198 114.457 133.544 114.311 135.934C114.104 139.273 114.362 143.315 114.621 146.706C114.707 147.871 115.24 152.649 115.61 153.856C115.765 153.428 115.851 152.024 115.894 151.536C116.703 151.502 117.908 150.423 119.044 150.611C119.767 151.861 117.762 152.572 116.927 152.786C116.936 153.274 116.97 153.754 117.031 154.242C117.185 155.509 117.117 157.29 117.125 158.532C117.142 160.399 117.315 162.026 116.084 164.329C113.717 168.757 109.069 169.133 104.947 169.142C104.43 169.142 103.931 169.125 103.432 169.125C99.714 169.142 95.7378 167.926 93.8185 164.321C92.5791 162.009 92.7599 160.39 92.7771 158.523C92.7857 157.539 92.7082 156.554 92.7857 155.586L92.9578 152.778C92.1402 152.546 90.1177 151.853 90.8406 150.602C91.9767 150.414 93.2074 151.502 93.9734 151.527C94.0337 152.118 94.0681 152.992 94.266 153.617C94.5673 152.718 95.2214 145.661 95.2472 144.591C95.2558 144.24 95.316 144.026 95.316 143.683L95.471 139.316C95.5829 136.807 95.4365 134.606 95.4021 132.157L94.7222 125.11C94.4554 125.957 94.3865 127.088 94.2316 128.012C93.6722 131.292 93.6894 133.741 93.4484 136.824L93.5087 145.636C93.5345 145.901 93.7238 148.299 93.6378 148.556V148.573ZM117.254 153.129C117.814 152.846 118.416 152.76 118.976 152.255C119.853 151.467 120.31 149.078 116.445 150.936C116.402 150.465 116.506 149.986 116.557 149.506L117.022 139.71C117.125 138.117 117.65 138.16 117.435 136.85C117.349 136.336 117.022 135.856 116.944 135.42C116.876 134.992 116.858 134.512 116.893 134.067C116.944 133.159 116.531 131.207 116.781 130.53C117.581 128.312 117.435 125.067 117.28 122.84L117.203 121.41C117.048 119.852 117.065 118.79 116.032 117.266C113.562 113.592 108.708 113.044 104.921 113.044C101.151 113.044 96.28 113.592 93.8099 117.266C92.5705 119.115 92.6996 120.905 92.5533 122.917C92.4328 124.613 92.407 126.745 92.5964 128.492C92.7599 129.973 92.8287 129.665 93.1214 130.676C93.2591 131.138 92.8976 133.399 92.9406 134.144C93.0697 136.567 91.8648 136.619 92.5533 138.366C92.932 139.342 92.8115 140.147 92.8201 141.149C92.8201 141.662 92.7599 142.065 92.7943 142.579L93.2935 149.583C93.3451 150.063 93.4398 150.483 93.3968 150.936C92.6566 150.577 90.6341 149.66 90.3414 150.705C89.9455 152.11 91.6066 152.649 92.5964 153.137C92.2779 154.31 92.2951 160.904 92.5103 161.94C93.6033 167.327 98.4661 169.579 103.484 169.519L105.678 169.562C106.031 169.536 106.126 169.51 106.436 169.527C106.703 169.536 106.918 169.579 107.193 169.562C110.687 169.322 114.371 168.106 116.265 164.732C116.807 163.764 117.211 162.711 117.366 161.786C117.547 160.733 117.581 154.362 117.246 153.137L117.254 153.129Z" fill="#2B2A29"/>
<path fill-rule="evenodd" clip-rule="evenodd" d="M93.6282 148.581C93.5163 148.864 93.5077 148.444 93.5852 148.984C93.6024 149.087 93.654 149.292 93.7143 149.421L93.7573 149.052C93.7401 148.881 93.7057 148.761 93.6454 148.581L93.6282 148.581Z" fill="#2B2A29"/>
<path fill-rule="evenodd" clip-rule="evenodd" d="M116.119 149.397C116.067 149.551 116.041 149.577 116.024 149.714L116.067 150.151C116.308 149.294 116.196 149.628 116.119 149.397Z" fill="#2B2A29"/>
<path fill-rule="evenodd" clip-rule="evenodd" d="M93.7057 149.413C93.5938 149.712 93.6368 149.687 93.7573 150.149C93.8262 149.841 93.8434 149.841 93.7057 149.413Z" fill="#2B2A29"/>
<path fill-rule="evenodd" clip-rule="evenodd" d="M116.04 150.173C115.979 150.404 115.988 150.241 115.971 150.464C115.936 150.858 115.954 150.567 115.997 150.815C116.126 150.396 116.16 150.55 116.04 150.173Z" fill="#2B2A29"/>
<path fill-rule="evenodd" clip-rule="evenodd" d="M93.7942 150.182C93.734 150.447 93.6996 150.327 93.8373 150.807L93.7942 150.182Z" fill="#2B2A29"/>
<path fill-rule="evenodd" clip-rule="evenodd" d="M98.01 116.067C98.1047 117.086 95.669 118.996 94.774 118.379C94.7912 117.437 96.2027 116.427 97.0461 116.084C97.6055 115.853 97.5797 115.896 98.01 116.067ZM115.068 118.379C114.165 118.987 111.738 117.086 111.832 116.067C112.374 115.733 113.089 116.17 113.7 116.589C114.38 117.06 115.06 117.668 115.068 118.379ZM112.891 121.505C113.046 121.899 113.149 128.835 113.063 129.195L109.009 128.552C105.326 128.261 104.56 128.218 100.833 128.552L96.7707 129.203C96.5986 128.467 96.8395 125.812 96.8395 124.716C96.8395 124.391 96.7879 124.134 96.7965 123.817C96.8051 123.243 96.7363 122.49 96.9428 121.976C96.8223 121.685 96.9084 120.76 96.9428 120.708C99.6109 118.944 102.675 118.516 104.921 118.508C107.142 118.508 111.385 119.253 112.96 120.803L112.899 121.53L112.891 121.505ZM111.445 145.379C111.015 146.321 109.732 145.987 109.087 146.03L101.814 146.09C101.392 146.064 101.022 146.021 100.601 146.03C100.11 146.039 99.8519 146.107 99.3957 146.03C98.1908 145.859 98.2682 144.549 98.3113 143.923C98.5178 140.875 97.399 138.477 99.6195 138.597L110.524 138.588C111.97 138.537 111.617 139.933 111.643 140.541C111.686 141.491 111.652 142.074 111.608 142.956C111.574 143.915 111.669 144.9 111.445 145.396V145.379ZM94.2834 163.859C95.2043 163.662 97.4678 165.554 97.5797 166.539C97.0203 166.924 96.1166 166.145 95.6174 165.734C95.0666 165.289 94.1629 164.561 94.292 163.867L94.2834 163.859ZM114.87 154.884C115.18 156.083 115.017 156.571 113.493 157.882C111.281 159.774 107.073 160.69 104.542 160.485C101.539 160.236 98.0617 159.877 95.6174 157.171C95.144 156.648 94.7481 156.22 94.8084 155.681C94.8514 155.347 94.9289 154.55 95.101 154.276C94.9891 153.72 95.3936 151.639 95.4797 151.074C95.5744 150.414 95.8154 148.342 96.0047 147.88C97.8896 148.693 100.73 148.882 102.726 149.104C103.114 149.147 103.467 149.104 103.854 149.13C105.231 149.216 108.088 149.079 109.379 148.89C111.686 148.548 112.194 148.248 113.838 147.931L114.862 154.55C114.87 154.628 114.87 154.696 114.87 154.765L114.862 154.893L114.87 154.884ZM115.559 163.859C115.688 164.569 114.724 165.34 114.156 165.785C113.64 166.197 112.805 166.907 112.263 166.539C112.374 165.554 114.638 163.662 115.559 163.859ZM116.127 149.404L116.652 142.87C116.661 142.622 116.695 142.433 116.678 142.194C116.497 137.218 116.953 138.991 117.082 137.595C117.117 137.253 117.048 136.67 116.841 136.242C116.402 135.292 116.488 133.699 116.42 132.329C116.402 131.918 116.29 131.378 116.273 130.967C116.247 130.53 116.575 129.965 116.661 129.606C116.755 129.203 116.833 128.595 116.859 128.244C116.988 126.403 117.013 124.767 116.893 122.969C116.781 121.368 116.962 119.527 115.852 117.703C114.733 115.853 112.478 114.568 110.739 114.072C108.57 113.455 107.408 113.464 105.369 113.404C102.769 113.335 97.7174 113.43 94.7223 116.684C93.569 117.951 93.2248 119.098 93.0612 120.631C92.9063 122.156 92.7428 126.052 92.8633 127.336C92.9407 128.116 92.9752 129.126 93.2506 129.982C93.7928 131.652 93.3969 130.488 93.3883 132.62C93.3883 133.065 93.2936 133.451 93.3022 133.904C93.3367 136.884 92.3899 136.508 92.7944 137.972C92.9407 138.477 93.1473 138.666 93.1817 139.248C93.285 141.149 93.1301 143.324 93.3108 145.884C93.3453 146.398 93.4658 148.196 93.6121 148.582C93.7067 148.316 93.5088 145.927 93.483 145.662L93.4227 136.85C93.6637 133.767 93.6465 131.318 94.2059 128.039C94.3608 127.114 94.4297 125.983 94.6965 125.136L95.3764 132.183C95.4195 134.624 95.5572 136.833 95.4453 139.342L95.2904 143.709C95.2904 144.052 95.2301 144.266 95.2215 144.617C95.1957 145.687 94.5416 152.744 94.2403 153.643C94.0424 153.018 94.008 152.144 93.9477 151.553C93.1645 151.528 91.951 150.44 90.8149 150.628C90.092 151.879 92.1145 152.572 92.9321 152.804L92.76 155.612C92.6826 156.58 92.7514 157.573 92.7514 158.549C92.7342 160.416 92.5621 162.043 93.7928 164.347C95.7207 167.943 99.6969 169.159 103.406 169.151C103.906 169.151 104.405 169.168 104.921 169.168C109.035 169.168 113.683 168.774 116.058 164.355C117.297 162.043 117.117 160.425 117.1 158.558C117.091 157.316 117.16 155.535 117.005 154.268C116.945 153.78 116.919 153.309 116.902 152.812C117.745 152.589 119.75 151.879 119.019 150.637C117.883 150.449 116.678 151.528 115.869 151.562C115.826 152.05 115.722 153.454 115.585 153.883C115.206 152.684 114.681 147.914 114.595 146.732C114.345 143.333 114.079 139.282 114.285 135.96C114.431 133.57 114.431 131.224 114.69 128.724C114.75 128.098 114.81 127.542 114.879 126.908C114.948 126.292 114.974 125.718 115.12 125.161C115.146 125.512 115.258 126.172 115.327 126.6L116.204 136.396L116.334 141.748C116.316 143.118 116.411 143.247 116.325 144.84C116.308 145.114 116.273 145.319 116.273 145.593L116.101 149.207C116.11 149.387 116.093 149.284 116.127 149.421V149.404Z" fill="#2B2A29"/>
<path fill-rule="evenodd" clip-rule="evenodd" d="M93.6292 148.582C93.6894 148.761 93.7324 148.89 93.741 149.052L93.698 149.421C93.655 149.292 93.5861 149.087 93.5689 148.984C93.5001 148.453 93.5087 148.873 93.6119 148.582H93.6292ZM93.7066 149.412C93.8443 149.84 93.8271 149.84 93.7583 150.149C93.6292 149.695 93.5947 149.712 93.7066 149.412ZM93.8357 150.808C93.6894 150.337 93.741 150.457 93.7927 150.183L93.8357 150.808ZM116.118 149.395C116.196 149.626 116.299 149.301 116.067 150.149L116.024 149.712C116.041 149.575 116.067 149.549 116.118 149.395ZM116.041 150.174C116.161 150.551 116.127 150.397 115.998 150.817C115.955 150.568 115.937 150.859 115.972 150.465C115.989 150.243 115.981 150.405 116.041 150.174ZM93.6378 148.573C93.5001 148.179 93.3796 146.381 93.3365 145.876C93.1472 143.324 93.3021 141.149 93.2074 139.239C93.1816 138.648 92.9664 138.468 92.8201 137.963C92.4156 136.499 93.3623 136.875 93.3279 133.895C93.3193 133.442 93.414 133.056 93.414 132.611C93.414 130.487 93.8099 131.652 93.2763 129.973C93.0009 129.117 92.9664 128.124 92.889 127.327C92.7599 126.034 92.9148 122.147 93.0869 120.622C93.2505 119.09 93.5861 117.934 94.748 116.675C97.7259 113.421 102.787 113.318 105.394 113.395C107.443 113.446 108.596 113.446 110.765 114.063C112.503 114.56 114.767 115.836 115.877 117.694C116.979 119.526 116.807 121.359 116.919 122.96C117.039 124.758 117.005 126.385 116.884 128.235C116.858 128.586 116.781 129.194 116.686 129.597C116.6 129.956 116.273 130.522 116.299 130.958C116.316 131.369 116.428 131.909 116.445 132.32C116.514 133.69 116.428 135.283 116.867 136.233C117.065 136.67 117.134 137.252 117.108 137.586C116.979 138.982 116.514 137.201 116.703 142.185C116.712 142.433 116.686 142.613 116.678 142.861L116.153 149.395C116.118 149.275 116.127 149.369 116.127 149.181L116.299 145.567C116.299 145.293 116.333 145.088 116.351 144.814C116.437 143.221 116.359 143.092 116.359 141.722L116.23 136.37L115.352 126.574C115.292 126.137 115.172 125.469 115.146 125.135C114.999 125.692 114.965 126.257 114.905 126.882C114.844 127.507 114.784 128.064 114.715 128.698C114.457 131.198 114.457 133.544 114.311 135.934C114.104 139.273 114.362 143.315 114.621 146.706C114.707 147.871 115.24 152.649 115.61 153.856C115.765 153.428 115.851 152.024 115.894 151.536C116.703 151.502 117.908 150.423 119.044 150.611C119.767 151.861 117.762 152.572 116.927 152.786C116.936 153.274 116.97 153.754 117.031 154.242C117.185 155.509 117.117 157.29 117.125 158.532C117.142 160.399 117.315 162.026 116.084 164.329C113.717 168.757 109.069 169.133 104.947 169.142C104.43 169.142 103.931 169.125 103.432 169.125C99.714 169.142 95.7378 167.926 93.8185 164.321C92.5791 162.009 92.7599 160.39 92.7771 158.523C92.7857 157.539 92.7082 156.554 92.7857 155.586L92.9578 152.778C92.1402 152.546 90.1177 151.853 90.8406 150.602C91.9767 150.414 93.2074 151.502 93.9734 151.527C94.0337 152.118 94.0681 152.992 94.266 153.617C94.5673 152.718 95.2214 145.661 95.2472 144.591C95.2558 144.24 95.316 144.026 95.316 143.683L95.471 139.316C95.5829 136.807 95.4365 134.606 95.4021 132.157L94.7222 125.11C94.4554 125.957 94.3865 127.088 94.2316 128.012C93.6722 131.292 93.6894 133.741 93.4484 136.824L93.5087 145.636C93.5345 145.901 93.7238 148.299 93.6378 148.556V148.573ZM117.254 153.129C117.814 152.846 118.416 152.76 118.976 152.255C119.853 151.467 120.31 149.078 116.445 150.936C116.402 150.465 116.506 149.986 116.557 149.506L117.022 139.71C117.125 138.117 117.65 138.16 117.435 136.85C117.349 136.336 117.022 135.856 116.944 135.42C116.876 134.992 116.858 134.512 116.893 134.067C116.944 133.159 116.531 131.207 116.781 130.53C117.581 128.312 117.435 125.067 117.28 122.84L117.203 121.41C117.048 119.852 117.065 118.79 116.032 117.266C113.562 113.592 108.708 113.044 104.921 113.044C101.151 113.044 96.28 113.592 93.8099 117.266C92.5705 119.115 92.6996 120.905 92.5533 122.917C92.4328 124.613 92.407 126.745 92.5964 128.492C92.7599 129.973 92.8287 129.665 93.1214 130.676C93.2591 131.138 92.8976 133.399 92.9406 134.144C93.0697 136.567 91.8648 136.619 92.5533 138.366C92.932 139.342 92.8115 140.147 92.8201 141.149C92.8201 141.662 92.7599 142.065 92.7943 142.579L93.2935 149.583C93.3451 150.063 93.4398 150.483 93.3968 150.936C92.6566 150.577 90.6341 149.66 90.3414 150.705C89.9455 152.11 91.6066 152.649 92.5964 153.137C92.2779 154.31 92.2951 160.904 92.5103 161.94C93.6033 167.327 98.4661 169.579 103.484 169.519L105.678 169.562C106.031 169.536 106.126 169.51 106.436 169.527C106.703 169.536 106.918 169.579 107.193 169.562C110.687 169.322 114.371 168.106 116.265 164.732C116.807 163.764 117.211 162.711 117.366 161.786C117.547 160.733 117.581 154.362 117.246 153.137L117.254 153.129Z" fill="#2B2A29"/>
<path fill-rule="evenodd" clip-rule="evenodd" d="M93.6282 148.581C93.5163 148.864 93.5077 148.444 93.5852 148.984C93.6024 149.087 93.654 149.292 93.7143 149.421L93.7573 149.052C93.7401 148.881 93.7057 148.761 93.6454 148.581L93.6282 148.581Z" fill="#2B2A29"/>
<path fill-rule="evenodd" clip-rule="evenodd" d="M116.119 149.397C116.067 149.551 116.041 149.577 116.024 149.714L116.067 150.151C116.308 149.294 116.196 149.628 116.119 149.397Z" fill="#2B2A29"/>
<path fill-rule="evenodd" clip-rule="evenodd" d="M93.7057 149.413C93.5938 149.712 93.6368 149.687 93.7573 150.149C93.8262 149.841 93.8434 149.841 93.7057 149.413Z" fill="#2B2A29"/>
<path fill-rule="evenodd" clip-rule="evenodd" d="M116.04 150.173C115.979 150.404 115.988 150.241 115.971 150.464C115.936 150.858 115.954 150.567 115.997 150.815C116.126 150.396 116.16 150.55 116.04 150.173Z" fill="#2B2A29"/>
<path fill-rule="evenodd" clip-rule="evenodd" d="M93.7942 150.182C93.734 150.447 93.6996 150.327 93.8373 150.807L93.7942 150.182Z" fill="#2B2A29"/>
<g clip-path="url(#clip0_7333_139629)">
<path fill-rule="evenodd" clip-rule="evenodd" d="M31.6302 146.734C31.3441 148.063 32.7707 149.549 34.9062 149.781L34.9062 160.547C34.9062 162.203 36.3902 164.045 37.1322 164.484C37.9753 165.239 38.582 165.636 40.6302 166.154C40.8422 166.418 41.2662 166.726 41.5842 166.857C43.0682 167.473 44.6781 168 47.3281 168C49.9781 168 51.588 167.473 53.072 166.857C53.39 166.726 53.814 166.418 54.026 166.154C56.0743 165.636 56.681 165.239 57.524 164.484C58.266 164.045 59.75 162.203 59.75 160.547L59.75 149.781C61.8856 149.549 63.3121 148.063 63.0261 146.734C62.9734 146.49 62.6956 146.414 62.4742 146.507C61.6929 146.837 60.3696 147.116 59.75 147.206L59.75 123.701C59.75 120.361 57.6797 116.242 56.0234 115.828C53.7203 115.252 51.4687 115 47.3281 115C43.1875 115 40.936 115.252 38.6328 115.828C36.9766 116.242 34.9062 120.361 34.9062 123.701L34.9062 147.206C34.2867 147.116 32.9633 146.837 32.182 146.507C31.9606 146.414 31.6828 146.49 31.6302 146.734ZM37.3906 163.031C36.5625 161.902 36.5625 160.547 36.5625 159.719C37.814 161.677 39.323 163.332 41.5312 164.687C39.875 164.687 38.3567 163.822 37.3906 163.031ZM36.5625 124.109L36.5625 136.531C36.6541 136.46 36.7394 136.389 36.822 136.321C37.2142 135.995 37.5481 135.718 38.2187 135.703C38.2187 131.355 38.2187 128.664 37.8047 124.938C37.7187 124.873 37.6372 124.81 37.5572 124.748L37.5556 124.747C37.2508 124.511 36.9701 124.293 36.5625 124.109ZM36.5625 147.297L36.5625 137.359C36.9766 136.945 37.5844 136.511 38.2187 136.534C38.2187 144.813 37.3906 146.469 36.5625 147.297ZM57.2656 163.031C58.0937 161.902 58.0937 160.547 58.0937 159.719C56.8423 161.677 55.3333 163.332 53.125 164.687C54.7812 164.687 56.2995 163.822 57.2656 163.031ZM58.0937 136.531L58.0937 124.109C57.6861 124.293 57.4054 124.511 57.1007 124.747C57.0203 124.809 56.9382 124.873 56.8516 124.938C56.4375 128.664 56.4375 131.355 56.4375 135.703C57.1081 135.718 57.442 135.995 57.8342 136.321C57.9169 136.389 58.0022 136.46 58.0937 136.531ZM47.3281 153.094C43.1875 153.094 41.06 152.541 38.7305 151.666C38.3756 151.532 38.1704 151.165 38.2285 150.79L39.1802 144.676C39.2484 144.238 39.6539 143.932 40.0943 143.992C40.9742 144.11 41.6826 144.233 42.3365 144.346C43.8227 144.604 45.2578 144.813 47.3281 144.813C49.3984 144.813 50.8332 144.604 52.3194 144.346C52.9733 144.233 53.6818 144.11 54.562 143.992C55.0024 143.932 55.4078 144.238 55.476 144.676L56.4277 150.79C56.4859 151.165 56.2807 151.532 55.9257 151.666C53.5962 152.541 51.4687 153.094 47.3281 153.094ZM39.8755 124.281C39.8558 124.824 40.3538 125.239 40.8886 125.154C45.495 124.769 49.6083 124.783 53.7676 125.154C54.3024 125.239 54.8005 124.824 54.7808 124.281L54.5999 119.321C54.576 118.665 54.1684 118.081 53.5555 117.852C49.3668 116.287 45.2174 116.287 41.1008 117.852C40.4878 118.081 40.0802 118.665 40.0564 119.321L39.8755 124.281ZM58.0937 137.359L58.0937 147.297C57.2656 146.469 56.4375 144.812 56.4375 136.534C57.0718 136.511 57.6797 136.945 58.0937 137.359Z" fill="#373737"/>
</g>
<g clip-path="url(#clip1_7333_139629)">
<path fill-rule="evenodd" clip-rule="evenodd" d="M88.6302 64.7344C88.3441 66.0626 89.7707 67.5492 91.9062 67.7813L91.9062 78.5469C91.9062 80.2031 93.3902 82.0448 94.1322 82.4842C94.9753 83.2388 95.582 83.6357 97.6302 84.1542C97.8422 84.4179 98.2662 84.7255 98.5842 84.8574C100.068 85.4726 101.678 86 104.328 86C106.978 86 108.588 85.4726 110.072 84.8574C110.39 84.7255 110.814 84.4179 111.026 84.1542C113.074 83.6357 113.681 83.2388 114.524 82.4842C115.266 82.0448 116.75 80.2031 116.75 78.5469L116.75 67.7813C118.886 67.5492 120.312 66.0626 120.026 64.7344C119.973 64.4901 119.696 64.4139 119.474 64.5073C118.693 64.8368 117.37 65.1163 116.75 65.2058L116.75 41.7014C116.75 38.3614 114.68 34.2422 113.023 33.8281C110.72 33.2522 108.469 33 104.328 33C100.187 33 97.936 33.2523 95.6328 33.8281C93.9766 34.2422 91.9062 38.3615 91.9062 41.7014L91.9062 65.2058C91.2867 65.1163 89.9633 64.8368 89.182 64.5073C88.9606 64.4139 88.6828 64.4901 88.6302 64.7344ZM94.3906 81.0313C93.5625 79.902 93.5625 78.5469 93.5625 77.7188C94.814 79.6774 96.323 81.3324 98.5312 82.6875C96.875 82.6875 95.3567 81.8217 94.3906 81.0313ZM93.5625 42.1094L93.5625 54.5313C93.6541 54.4604 93.7394 54.3895 93.822 54.3209C94.2142 53.9953 94.5481 53.7179 95.2187 53.7031C95.2187 49.3555 95.2187 46.6641 94.8047 42.9375C94.7187 42.8732 94.6372 42.8101 94.5572 42.7482L94.5556 42.7469C94.2508 42.5105 93.9701 42.2929 93.5625 42.1094ZM93.5625 65.2969L93.5625 55.3594C93.9766 54.9453 94.5844 54.5107 95.2187 54.5344C95.2187 62.8125 94.3906 64.4688 93.5625 65.2969ZM114.266 81.0312C115.094 79.902 115.094 78.5469 115.094 77.7187C113.842 79.6774 112.333 81.3324 110.125 82.6875C111.781 82.6875 113.3 81.8217 114.266 81.0312ZM115.094 54.5313L115.094 42.1094C114.686 42.2929 114.405 42.5105 114.101 42.7469C114.02 42.8091 113.938 42.8729 113.852 42.9375C113.437 46.6641 113.437 49.3555 113.437 53.7031C114.108 53.7179 114.442 53.9953 114.834 54.3209C114.917 54.3895 115.002 54.4604 115.094 54.5313ZM104.328 71.0938C100.187 71.0938 98.06 70.5414 95.7305 69.6656C95.3756 69.5321 95.1704 69.1646 95.2285 68.7902L96.1802 62.676C96.2484 62.2376 96.6539 61.9324 97.0943 61.9917C97.9742 62.1103 98.6826 62.233 99.3365 62.3463C100.823 62.6036 102.258 62.8125 104.328 62.8125C106.398 62.8125 107.833 62.6038 109.319 62.3463C109.973 62.233 110.682 62.1103 111.562 61.9917C112.002 61.9324 112.408 62.2376 112.476 62.676L113.428 68.7902C113.486 69.1645 113.281 69.5321 112.926 69.6656C110.596 70.5414 108.469 71.0938 104.328 71.0938ZM96.8755 42.2811C96.8558 42.8241 97.3538 43.2386 97.8886 43.1541C102.495 42.7687 106.608 42.7835 110.768 43.1541C111.302 43.2386 111.8 42.8241 111.781 42.2811L111.6 37.3207C111.576 36.6646 111.168 36.081 110.555 35.8519C106.367 34.2872 102.217 34.2871 98.1008 35.8519C97.4878 36.081 97.0802 36.6646 97.0564 37.3207L96.8755 42.2811ZM115.094 55.3594L115.094 65.2969C114.266 64.4688 113.437 62.8125 113.437 54.5344C114.072 54.5107 114.68 54.9453 115.094 55.3594Z" fill="#373737"/>
</g>
<defs>
<clipPath id="clip0_7333_139629">
<rect width="53" height="53" fill="white" transform="translate(20 168) rotate(-90)"/>
</clipPath>
<clipPath id="clip1_7333_139629">
<rect width="53" height="53" fill="white" transform="translate(77 86) rotate(-90)"/>
</clipPath>
</defs>
</svg>
