<svg width="93" height="92" viewBox="0 0 93 92" fill="none" xmlns="http://www.w3.org/2000/svg">
<rect x="1.26092" y="0.389831" width="91.079" height="91.2203" rx="17.5424" stroke="#BEBEBE" stroke-width="0.779661"/>
<rect width="70" height="60.7317" transform="translate(12 16)" fill="white"/>
<path d="M29.6827 68.9286C29.6827 68.996 29.7373 69.0506 29.8047 69.0506C29.872 69.0506 29.9266 68.996 29.9266 68.9286H29.6827ZM29.8047 21.8555H29.6827V22.1006H29.8047H29.9266V21.8555H29.8047ZM29.8047 22.591H29.6827V23.0813H29.8047H29.9266V22.591H29.8047ZM29.8047 23.5717H29.6827V24.062H29.8047H29.9266V23.5717H29.8047ZM29.8047 24.5524H29.6827V25.0427H29.8047H29.9266V24.5524H29.8047ZM29.8047 25.5331H29.6827V26.0234H29.8047H29.9266V25.5331H29.8047ZM29.8047 26.5138H29.6827V27.0041H29.8047H29.9266V26.5138H29.8047ZM29.8047 27.4944H29.6827V27.9848H29.8047H29.9266V27.4944H29.8047ZM29.8047 28.4751H29.6827V28.9655H29.8047H29.9266V28.4751H29.8047ZM29.8047 29.4558H29.6827V29.9462H29.8047H29.9266V29.4558H29.8047ZM29.8047 30.4365H29.6827V30.9269H29.8047H29.9266V30.4365H29.8047ZM29.8047 31.4172H29.6827V31.9076H29.8047H29.9266V31.4172H29.8047ZM29.8047 32.3979H29.6827V32.8882H29.8047H29.9266V32.3979H29.8047ZM29.8047 33.3786H29.6827V33.8689H29.8047H29.9266V33.3786H29.8047ZM29.8047 34.3593H29.6827V34.8496H29.8047H29.9266V34.3593H29.8047ZM29.8047 35.34H29.6827V35.8303H29.8047H29.9266V35.34H29.8047ZM29.8047 36.3207H29.6827V36.811H29.8047H29.9266V36.3207H29.8047ZM29.8047 37.3014H29.6827V37.7917H29.8047H29.9266V37.3014H29.8047ZM29.8047 38.2821H29.6827V38.7724H29.8047H29.9266V38.2821H29.8047ZM29.8047 39.2627H29.6827V39.7531H29.8047H29.9266V39.2627H29.8047ZM29.8047 40.2434H29.6827V40.7338H29.8047H29.9266V40.2434H29.8047ZM29.8047 41.2241H29.6827V41.7145H29.8047H29.9266V41.2241H29.8047ZM29.8047 42.2048H29.6827V42.6952H29.8047H29.9266V42.2048H29.8047ZM29.8047 43.1855H29.6827V43.6758H29.8047H29.9266V43.1855H29.8047ZM29.8047 44.1662H29.6827V44.6565H29.8047H29.9266V44.1662H29.8047ZM29.8047 45.1469H29.6827V45.6372H29.8047H29.9266V45.1469H29.8047ZM29.8047 46.1276H29.6827V46.6179H29.8047H29.9266V46.1276H29.8047ZM29.8047 47.1083H29.6827V47.5986H29.8047H29.9266V47.1083H29.8047ZM29.8047 48.089H29.6827V48.5793H29.8047H29.9266V48.089H29.8047ZM29.8047 49.0696H29.6827V49.56H29.8047H29.9266V49.0696H29.8047ZM29.8047 50.0503H29.6827V50.5407H29.8047H29.9266V50.0503H29.8047ZM29.8047 51.031H29.6827V51.5214H29.8047H29.9266V51.031H29.8047ZM29.8047 52.0117H29.6827V52.5021H29.8047H29.9266V52.0117H29.8047ZM29.8047 52.9924H29.6827V53.4827H29.8047H29.9266V52.9924H29.8047ZM29.8047 53.9731H29.6827V54.4634H29.8047H29.9266V53.9731H29.8047ZM29.8047 54.9538H29.6827V55.4441H29.8047H29.9266V54.9538H29.8047ZM29.8047 55.9345H29.6827V56.4248H29.8047H29.9266V55.9345H29.8047ZM29.8047 56.9152H29.6827V57.4055H29.8047H29.9266V56.9152H29.8047ZM29.8047 57.8959H29.6827V58.3862H29.8047H29.9266V57.8959H29.8047ZM29.8047 58.8765H29.6827V59.3669H29.8047H29.9266V58.8765H29.8047ZM29.8047 59.8572H29.6827V60.3476H29.8047H29.9266V59.8572H29.8047ZM29.8047 60.8379H29.6827V61.3283H29.8047H29.9266V60.8379H29.8047ZM29.8047 61.8186H29.6827V62.309H29.8047H29.9266V61.8186H29.8047ZM29.8047 62.7993H29.6827V63.2896H29.8047H29.9266V62.7993H29.8047ZM29.8047 63.78H29.6827V64.2703H29.8047H29.9266V63.78H29.8047ZM29.8047 64.7607H29.6827V65.251H29.8047H29.9266V64.7607H29.8047ZM29.8047 65.7414H29.6827V66.2317H29.8047H29.9266V65.7414H29.8047ZM29.8047 66.7221H29.6827V67.2124H29.8047H29.9266V66.7221H29.8047ZM29.8047 67.7028H29.6827V68.1931H29.8047H29.9266V67.7028H29.8047ZM29.8047 68.6834H29.6827V68.9286H29.8047H29.9266V68.6834H29.8047Z" fill="#E0E0E0"/>
<path d="M37.7316 68.9286C37.7316 68.996 37.7862 69.0506 37.8535 69.0506C37.9209 69.0506 37.9755 68.996 37.9755 68.9286H37.7316ZM37.8535 21.8555H37.7316V22.1006H37.8535H37.9755V21.8555H37.8535ZM37.8535 22.591H37.7316V23.0813H37.8535H37.9755V22.591H37.8535ZM37.8535 23.5717H37.7316V24.062H37.8535H37.9755V23.5717H37.8535ZM37.8535 24.5524H37.7316V25.0427H37.8535H37.9755V24.5524H37.8535ZM37.8535 25.5331H37.7316V26.0234H37.8535H37.9755V25.5331H37.8535ZM37.8535 26.5138H37.7316V27.0041H37.8535H37.9755V26.5138H37.8535ZM37.8535 27.4944H37.7316V27.9848H37.8535H37.9755V27.4944H37.8535ZM37.8535 28.4751H37.7316V28.9655H37.8535H37.9755V28.4751H37.8535ZM37.8535 29.4558H37.7316V29.9462H37.8535H37.9755V29.4558H37.8535ZM37.8535 30.4365H37.7316V30.9269H37.8535H37.9755V30.4365H37.8535ZM37.8535 31.4172H37.7316V31.9076H37.8535H37.9755V31.4172H37.8535ZM37.8535 32.3979H37.7316V32.8882H37.8535H37.9755V32.3979H37.8535ZM37.8535 33.3786H37.7316V33.8689H37.8535H37.9755V33.3786H37.8535ZM37.8535 34.3593H37.7316V34.8496H37.8535H37.9755V34.3593H37.8535ZM37.8535 35.34H37.7316V35.8303H37.8535H37.9755V35.34H37.8535ZM37.8535 36.3207H37.7316V36.811H37.8535H37.9755V36.3207H37.8535ZM37.8535 37.3014H37.7316V37.7917H37.8535H37.9755V37.3014H37.8535ZM37.8535 38.2821H37.7316V38.7724H37.8535H37.9755V38.2821H37.8535ZM37.8535 39.2627H37.7316V39.7531H37.8535H37.9755V39.2627H37.8535ZM37.8535 40.2434H37.7316V40.7338H37.8535H37.9755V40.2434H37.8535ZM37.8535 41.2241H37.7316V41.7145H37.8535H37.9755V41.2241H37.8535ZM37.8535 42.2048H37.7316V42.6952H37.8535H37.9755V42.2048H37.8535ZM37.8535 43.1855H37.7316V43.6758H37.8535H37.9755V43.1855H37.8535ZM37.8535 44.1662H37.7316V44.6565H37.8535H37.9755V44.1662H37.8535ZM37.8535 45.1469H37.7316V45.6372H37.8535H37.9755V45.1469H37.8535ZM37.8535 46.1276H37.7316V46.6179H37.8535H37.9755V46.1276H37.8535ZM37.8535 47.1083H37.7316V47.5986H37.8535H37.9755V47.1083H37.8535ZM37.8535 48.089H37.7316V48.5793H37.8535H37.9755V48.089H37.8535ZM37.8535 49.0696H37.7316V49.56H37.8535H37.9755V49.0696H37.8535ZM37.8535 50.0503H37.7316V50.5407H37.8535H37.9755V50.0503H37.8535ZM37.8535 51.031H37.7316V51.5214H37.8535H37.9755V51.031H37.8535ZM37.8535 52.0117H37.7316V52.5021H37.8535H37.9755V52.0117H37.8535ZM37.8535 52.9924H37.7316V53.4827H37.8535H37.9755V52.9924H37.8535ZM37.8535 53.9731H37.7316V54.4634H37.8535H37.9755V53.9731H37.8535ZM37.8535 54.9538H37.7316V55.4441H37.8535H37.9755V54.9538H37.8535ZM37.8535 55.9345H37.7316V56.4248H37.8535H37.9755V55.9345H37.8535ZM37.8535 56.9152H37.7316V57.4055H37.8535H37.9755V56.9152H37.8535ZM37.8535 57.8959H37.7316V58.3862H37.8535H37.9755V57.8959H37.8535ZM37.8535 58.8765H37.7316V59.3669H37.8535H37.9755V58.8765H37.8535ZM37.8535 59.8572H37.7316V60.3476H37.8535H37.9755V59.8572H37.8535ZM37.8535 60.8379H37.7316V61.3283H37.8535H37.9755V60.8379H37.8535ZM37.8535 61.8186H37.7316V62.309H37.8535H37.9755V61.8186H37.8535ZM37.8535 62.7993H37.7316V63.2896H37.8535H37.9755V62.7993H37.8535ZM37.8535 63.78H37.7316V64.2703H37.8535H37.9755V63.78H37.8535ZM37.8535 64.7607H37.7316V65.251H37.8535H37.9755V64.7607H37.8535ZM37.8535 65.7414H37.7316V66.2317H37.8535H37.9755V65.7414H37.8535ZM37.8535 66.7221H37.7316V67.2124H37.8535H37.9755V66.7221H37.8535ZM37.8535 67.7028H37.7316V68.1931H37.8535H37.9755V67.7028H37.8535ZM37.8535 68.6834H37.7316V68.9286H37.8535H37.9755V68.6834H37.8535Z" fill="#E0E0E0"/>
<path d="M45.7804 68.9286C45.7804 68.996 45.835 69.0506 45.9023 69.0506C45.9697 69.0506 46.0243 68.996 46.0243 68.9286H45.7804ZM45.9023 21.8555H45.7804V22.1006H45.9023H46.0243V21.8555H45.9023ZM45.9023 22.591H45.7804V23.0813H45.9023H46.0243V22.591H45.9023ZM45.9023 23.5717H45.7804V24.062H45.9023H46.0243V23.5717H45.9023ZM45.9023 24.5524H45.7804V25.0427H45.9023H46.0243V24.5524H45.9023ZM45.9023 25.5331H45.7804V26.0234H45.9023H46.0243V25.5331H45.9023ZM45.9023 26.5138H45.7804V27.0041H45.9023H46.0243V26.5138H45.9023ZM45.9023 27.4944H45.7804V27.9848H45.9023H46.0243V27.4944H45.9023ZM45.9023 28.4751H45.7804V28.9655H45.9023H46.0243V28.4751H45.9023ZM45.9023 29.4558H45.7804V29.9462H45.9023H46.0243V29.4558H45.9023ZM45.9023 30.4365H45.7804V30.9269H45.9023H46.0243V30.4365H45.9023ZM45.9023 31.4172H45.7804V31.9076H45.9023H46.0243V31.4172H45.9023ZM45.9023 32.3979H45.7804V32.8882H45.9023H46.0243V32.3979H45.9023ZM45.9023 33.3786H45.7804V33.8689H45.9023H46.0243V33.3786H45.9023ZM45.9023 34.3593H45.7804V34.8496H45.9023H46.0243V34.3593H45.9023ZM45.9023 35.34H45.7804V35.8303H45.9023H46.0243V35.34H45.9023ZM45.9023 36.3207H45.7804V36.811H45.9023H46.0243V36.3207H45.9023ZM45.9023 37.3014H45.7804V37.7917H45.9023H46.0243V37.3014H45.9023ZM45.9023 38.2821H45.7804V38.7724H45.9023H46.0243V38.2821H45.9023ZM45.9023 39.2627H45.7804V39.7531H45.9023H46.0243V39.2627H45.9023ZM45.9023 40.2434H45.7804V40.7338H45.9023H46.0243V40.2434H45.9023ZM45.9023 41.2241H45.7804V41.7145H45.9023H46.0243V41.2241H45.9023ZM45.9023 42.2048H45.7804V42.6952H45.9023H46.0243V42.2048H45.9023ZM45.9023 43.1855H45.7804V43.6758H45.9023H46.0243V43.1855H45.9023ZM45.9023 44.1662H45.7804V44.6565H45.9023H46.0243V44.1662H45.9023ZM45.9023 45.1469H45.7804V45.6372H45.9023H46.0243V45.1469H45.9023ZM45.9023 46.1276H45.7804V46.6179H45.9023H46.0243V46.1276H45.9023ZM45.9023 47.1083H45.7804V47.5986H45.9023H46.0243V47.1083H45.9023ZM45.9023 48.089H45.7804V48.5793H45.9023H46.0243V48.089H45.9023ZM45.9023 49.0696H45.7804V49.56H45.9023H46.0243V49.0696H45.9023ZM45.9023 50.0503H45.7804V50.5407H45.9023H46.0243V50.0503H45.9023ZM45.9023 51.031H45.7804V51.5214H45.9023H46.0243V51.031H45.9023ZM45.9023 52.0117H45.7804V52.5021H45.9023H46.0243V52.0117H45.9023ZM45.9023 52.9924H45.7804V53.4827H45.9023H46.0243V52.9924H45.9023ZM45.9023 53.9731H45.7804V54.4634H45.9023H46.0243V53.9731H45.9023ZM45.9023 54.9538H45.7804V55.4441H45.9023H46.0243V54.9538H45.9023ZM45.9023 55.9345H45.7804V56.4248H45.9023H46.0243V55.9345H45.9023ZM45.9023 56.9152H45.7804V57.4055H45.9023H46.0243V56.9152H45.9023ZM45.9023 57.8959H45.7804V58.3862H45.9023H46.0243V57.8959H45.9023ZM45.9023 58.8765H45.7804V59.3669H45.9023H46.0243V58.8765H45.9023ZM45.9023 59.8572H45.7804V60.3476H45.9023H46.0243V59.8572H45.9023ZM45.9023 60.8379H45.7804V61.3283H45.9023H46.0243V60.8379H45.9023ZM45.9023 61.8186H45.7804V62.309H45.9023H46.0243V61.8186H45.9023ZM45.9023 62.7993H45.7804V63.2896H45.9023H46.0243V62.7993H45.9023ZM45.9023 63.78H45.7804V64.2703H45.9023H46.0243V63.78H45.9023ZM45.9023 64.7607H45.7804V65.251H45.9023H46.0243V64.7607H45.9023ZM45.9023 65.7414H45.7804V66.2317H45.9023H46.0243V65.7414H45.9023ZM45.9023 66.7221H45.7804V67.2124H45.9023H46.0243V66.7221H45.9023ZM45.9023 67.7028H45.7804V68.1931H45.9023H46.0243V67.7028H45.9023ZM45.9023 68.6834H45.7804V68.9286H45.9023H46.0243V68.6834H45.9023Z" fill="#E0E0E0"/>
<path d="M53.8292 68.9286C53.8292 68.996 53.8838 69.0506 53.9512 69.0506C54.0185 69.0506 54.0731 68.996 54.0731 68.9286H53.8292ZM53.9512 21.8555H53.8292V22.1006H53.9512H54.0731V21.8555H53.9512ZM53.9512 22.591H53.8292V23.0813H53.9512H54.0731V22.591H53.9512ZM53.9512 23.5717H53.8292V24.062H53.9512H54.0731V23.5717H53.9512ZM53.9512 24.5524H53.8292V25.0427H53.9512H54.0731V24.5524H53.9512ZM53.9512 25.5331H53.8292V26.0234H53.9512H54.0731V25.5331H53.9512ZM53.9512 26.5138H53.8292V27.0041H53.9512H54.0731V26.5138H53.9512ZM53.9512 27.4944H53.8292V27.9848H53.9512H54.0731V27.4944H53.9512ZM53.9512 28.4751H53.8292V28.9655H53.9512H54.0731V28.4751H53.9512ZM53.9512 29.4558H53.8292V29.9462H53.9512H54.0731V29.4558H53.9512ZM53.9512 30.4365H53.8292V30.9269H53.9512H54.0731V30.4365H53.9512ZM53.9512 31.4172H53.8292V31.9076H53.9512H54.0731V31.4172H53.9512ZM53.9512 32.3979H53.8292V32.8882H53.9512H54.0731V32.3979H53.9512ZM53.9512 33.3786H53.8292V33.8689H53.9512H54.0731V33.3786H53.9512ZM53.9512 34.3593H53.8292V34.8496H53.9512H54.0731V34.3593H53.9512ZM53.9512 35.34H53.8292V35.8303H53.9512H54.0731V35.34H53.9512ZM53.9512 36.3207H53.8292V36.811H53.9512H54.0731V36.3207H53.9512ZM53.9512 37.3014H53.8292V37.7917H53.9512H54.0731V37.3014H53.9512ZM53.9512 38.2821H53.8292V38.7724H53.9512H54.0731V38.2821H53.9512ZM53.9512 39.2627H53.8292V39.7531H53.9512H54.0731V39.2627H53.9512ZM53.9512 40.2434H53.8292V40.7338H53.9512H54.0731V40.2434H53.9512ZM53.9512 41.2241H53.8292V41.7145H53.9512H54.0731V41.2241H53.9512ZM53.9512 42.2048H53.8292V42.6952H53.9512H54.0731V42.2048H53.9512ZM53.9512 43.1855H53.8292V43.6758H53.9512H54.0731V43.1855H53.9512ZM53.9512 44.1662H53.8292V44.6565H53.9512H54.0731V44.1662H53.9512ZM53.9512 45.1469H53.8292V45.6372H53.9512H54.0731V45.1469H53.9512ZM53.9512 46.1276H53.8292V46.6179H53.9512H54.0731V46.1276H53.9512ZM53.9512 47.1083H53.8292V47.5986H53.9512H54.0731V47.1083H53.9512ZM53.9512 48.089H53.8292V48.5793H53.9512H54.0731V48.089H53.9512ZM53.9512 49.0696H53.8292V49.56H53.9512H54.0731V49.0696H53.9512ZM53.9512 50.0503H53.8292V50.5407H53.9512H54.0731V50.0503H53.9512ZM53.9512 51.031H53.8292V51.5214H53.9512H54.0731V51.031H53.9512ZM53.9512 52.0117H53.8292V52.5021H53.9512H54.0731V52.0117H53.9512ZM53.9512 52.9924H53.8292V53.4827H53.9512H54.0731V52.9924H53.9512ZM53.9512 53.9731H53.8292V54.4634H53.9512H54.0731V53.9731H53.9512ZM53.9512 54.9538H53.8292V55.4441H53.9512H54.0731V54.9538H53.9512ZM53.9512 55.9345H53.8292V56.4248H53.9512H54.0731V55.9345H53.9512ZM53.9512 56.9152H53.8292V57.4055H53.9512H54.0731V56.9152H53.9512ZM53.9512 57.8959H53.8292V58.3862H53.9512H54.0731V57.8959H53.9512ZM53.9512 58.8765H53.8292V59.3669H53.9512H54.0731V58.8765H53.9512ZM53.9512 59.8572H53.8292V60.3476H53.9512H54.0731V59.8572H53.9512ZM53.9512 60.8379H53.8292V61.3283H53.9512H54.0731V60.8379H53.9512ZM53.9512 61.8186H53.8292V62.309H53.9512H54.0731V61.8186H53.9512ZM53.9512 62.7993H53.8292V63.2896H53.9512H54.0731V62.7993H53.9512ZM53.9512 63.78H53.8292V64.2703H53.9512H54.0731V63.78H53.9512ZM53.9512 64.7607H53.8292V65.251H53.9512H54.0731V64.7607H53.9512ZM53.9512 65.7414H53.8292V66.2317H53.9512H54.0731V65.7414H53.9512ZM53.9512 66.7221H53.8292V67.2124H53.9512H54.0731V66.7221H53.9512ZM53.9512 67.7028H53.8292V68.1931H53.9512H54.0731V67.7028H53.9512ZM53.9512 68.6834H53.8292V68.9286H53.9512H54.0731V68.6834H53.9512Z" fill="#E0E0E0"/>
<path d="M61.878 68.9286C61.878 68.996 61.9326 69.0506 62 69.0506C62.0674 69.0506 62.122 68.996 62.122 68.9286H61.878ZM62 21.8555H61.878V22.1006H62H62.122V21.8555H62ZM62 22.591H61.878V23.0813H62H62.122V22.591H62ZM62 23.5717H61.878V24.062H62H62.122V23.5717H62ZM62 24.5524H61.878V25.0427H62H62.122V24.5524H62ZM62 25.5331H61.878V26.0234H62H62.122V25.5331H62ZM62 26.5138H61.878V27.0041H62H62.122V26.5138H62ZM62 27.4944H61.878V27.9848H62H62.122V27.4944H62ZM62 28.4751H61.878V28.9655H62H62.122V28.4751H62ZM62 29.4558H61.878V29.9462H62H62.122V29.4558H62ZM62 30.4365H61.878V30.9269H62H62.122V30.4365H62ZM62 31.4172H61.878V31.9076H62H62.122V31.4172H62ZM62 32.3979H61.878V32.8882H62H62.122V32.3979H62ZM62 33.3786H61.878V33.8689H62H62.122V33.3786H62ZM62 34.3593H61.878V34.8496H62H62.122V34.3593H62ZM62 35.34H61.878V35.8303H62H62.122V35.34H62ZM62 36.3207H61.878V36.811H62H62.122V36.3207H62ZM62 37.3014H61.878V37.7917H62H62.122V37.3014H62ZM62 38.2821H61.878V38.7724H62H62.122V38.2821H62ZM62 39.2627H61.878V39.7531H62H62.122V39.2627H62ZM62 40.2434H61.878V40.7338H62H62.122V40.2434H62ZM62 41.2241H61.878V41.7145H62H62.122V41.2241H62ZM62 42.2048H61.878V42.6952H62H62.122V42.2048H62ZM62 43.1855H61.878V43.6758H62H62.122V43.1855H62ZM62 44.1662H61.878V44.6565H62H62.122V44.1662H62ZM62 45.1469H61.878V45.6372H62H62.122V45.1469H62ZM62 46.1276H61.878V46.6179H62H62.122V46.1276H62ZM62 47.1083H61.878V47.5986H62H62.122V47.1083H62ZM62 48.089H61.878V48.5793H62H62.122V48.089H62ZM62 49.0696H61.878V49.56H62H62.122V49.0696H62ZM62 50.0503H61.878V50.5407H62H62.122V50.0503H62ZM62 51.031H61.878V51.5214H62H62.122V51.031H62ZM62 52.0117H61.878V52.5021H62H62.122V52.0117H62ZM62 52.9924H61.878V53.4827H62H62.122V52.9924H62ZM62 53.9731H61.878V54.4634H62H62.122V53.9731H62ZM62 54.9538H61.878V55.4441H62H62.122V54.9538H62ZM62 55.9345H61.878V56.4248H62H62.122V55.9345H62ZM62 56.9152H61.878V57.4055H62H62.122V56.9152H62ZM62 57.8959H61.878V58.3862H62H62.122V57.8959H62ZM62 58.8765H61.878V59.3669H62H62.122V58.8765H62ZM62 59.8572H61.878V60.3476H62H62.122V59.8572H62ZM62 60.8379H61.878V61.3283H62H62.122V60.8379H62ZM62 61.8186H61.878V62.309H62H62.122V61.8186H62ZM62 62.7993H61.878V63.2896H62H62.122V62.7993H62ZM62 63.78H61.878V64.2703H62H62.122V63.78H62ZM62 64.7607H61.878V65.251H62H62.122V64.7607H62ZM62 65.7414H61.878V66.2317H62H62.122V65.7414H62ZM62 66.7221H61.878V67.2124H62H62.122V66.7221H62ZM62 67.7028H61.878V68.1931H62H62.122V67.7028H62ZM62 68.6834H61.878V68.9286H62H62.122V68.6834H62Z" fill="#E0E0E0"/>
<path d="M69.9269 68.9286C69.9269 68.996 69.9815 69.0506 70.0488 69.0506C70.1162 69.0506 70.1708 68.996 70.1708 68.9286H69.9269ZM70.0488 21.8555H69.9269V22.1006H70.0488H70.1708V21.8555H70.0488ZM70.0488 22.591H69.9269V23.0813H70.0488H70.1708V22.591H70.0488ZM70.0488 23.5717H69.9269V24.062H70.0488H70.1708V23.5717H70.0488ZM70.0488 24.5524H69.9269V25.0427H70.0488H70.1708V24.5524H70.0488ZM70.0488 25.5331H69.9269V26.0234H70.0488H70.1708V25.5331H70.0488ZM70.0488 26.5138H69.9269V27.0041H70.0488H70.1708V26.5138H70.0488ZM70.0488 27.4944H69.9269V27.9848H70.0488H70.1708V27.4944H70.0488ZM70.0488 28.4751H69.9269V28.9655H70.0488H70.1708V28.4751H70.0488ZM70.0488 29.4558H69.9269V29.9462H70.0488H70.1708V29.4558H70.0488ZM70.0488 30.4365H69.9269V30.9269H70.0488H70.1708V30.4365H70.0488ZM70.0488 31.4172H69.9269V31.9076H70.0488H70.1708V31.4172H70.0488ZM70.0488 32.3979H69.9269V32.8882H70.0488H70.1708V32.3979H70.0488ZM70.0488 33.3786H69.9269V33.8689H70.0488H70.1708V33.3786H70.0488ZM70.0488 34.3593H69.9269V34.8496H70.0488H70.1708V34.3593H70.0488ZM70.0488 35.34H69.9269V35.8303H70.0488H70.1708V35.34H70.0488ZM70.0488 36.3207H69.9269V36.811H70.0488H70.1708V36.3207H70.0488ZM70.0488 37.3014H69.9269V37.7917H70.0488H70.1708V37.3014H70.0488ZM70.0488 38.2821H69.9269V38.7724H70.0488H70.1708V38.2821H70.0488ZM70.0488 39.2627H69.9269V39.7531H70.0488H70.1708V39.2627H70.0488ZM70.0488 40.2434H69.9269V40.7338H70.0488H70.1708V40.2434H70.0488ZM70.0488 41.2241H69.9269V41.7145H70.0488H70.1708V41.2241H70.0488ZM70.0488 42.2048H69.9269V42.6952H70.0488H70.1708V42.2048H70.0488ZM70.0488 43.1855H69.9269V43.6758H70.0488H70.1708V43.1855H70.0488ZM70.0488 44.1662H69.9269V44.6565H70.0488H70.1708V44.1662H70.0488ZM70.0488 45.1469H69.9269V45.6372H70.0488H70.1708V45.1469H70.0488ZM70.0488 46.1276H69.9269V46.6179H70.0488H70.1708V46.1276H70.0488ZM70.0488 47.1083H69.9269V47.5986H70.0488H70.1708V47.1083H70.0488ZM70.0488 48.089H69.9269V48.5793H70.0488H70.1708V48.089H70.0488ZM70.0488 49.0696H69.9269V49.56H70.0488H70.1708V49.0696H70.0488ZM70.0488 50.0503H69.9269V50.5407H70.0488H70.1708V50.0503H70.0488ZM70.0488 51.031H69.9269V51.5214H70.0488H70.1708V51.031H70.0488ZM70.0488 52.0117H69.9269V52.5021H70.0488H70.1708V52.0117H70.0488ZM70.0488 52.9924H69.9269V53.4827H70.0488H70.1708V52.9924H70.0488ZM70.0488 53.9731H69.9269V54.4634H70.0488H70.1708V53.9731H70.0488ZM70.0488 54.9538H69.9269V55.4441H70.0488H70.1708V54.9538H70.0488ZM70.0488 55.9345H69.9269V56.4248H70.0488H70.1708V55.9345H70.0488ZM70.0488 56.9152H69.9269V57.4055H70.0488H70.1708V56.9152H70.0488ZM70.0488 57.8959H69.9269V58.3862H70.0488H70.1708V57.8959H70.0488ZM70.0488 58.8765H69.9269V59.3669H70.0488H70.1708V58.8765H70.0488ZM70.0488 59.8572H69.9269V60.3476H70.0488H70.1708V59.8572H70.0488ZM70.0488 60.8379H69.9269V61.3283H70.0488H70.1708V60.8379H70.0488ZM70.0488 61.8186H69.9269V62.309H70.0488H70.1708V61.8186H70.0488ZM70.0488 62.7993H69.9269V63.2896H70.0488H70.1708V62.7993H70.0488ZM70.0488 63.78H69.9269V64.2703H70.0488H70.1708V63.78H70.0488ZM70.0488 64.7607H69.9269V65.251H70.0488H70.1708V64.7607H70.0488ZM70.0488 65.7414H69.9269V66.2317H70.0488H70.1708V65.7414H70.0488ZM70.0488 66.7221H69.9269V67.2124H70.0488H70.1708V66.7221H70.0488ZM70.0488 67.7028H69.9269V68.1931H70.0488H70.1708V67.7028H70.0488ZM70.0488 68.6834H69.9269V68.9286H70.0488H70.1708V68.6834H70.0488Z" fill="#E0E0E0"/>
<path d="M77.9757 68.9286C77.9757 68.996 78.0303 69.0506 78.0977 69.0506C78.165 69.0506 78.2196 68.996 78.2196 68.9286H77.9757ZM78.0977 21.8555H77.9757V22.1006H78.0977H78.2196V21.8555H78.0977ZM78.0977 22.591H77.9757V23.0813H78.0977H78.2196V22.591H78.0977ZM78.0977 23.5717H77.9757V24.062H78.0977H78.2196V23.5717H78.0977ZM78.0977 24.5524H77.9757V25.0427H78.0977H78.2196V24.5524H78.0977ZM78.0977 25.5331H77.9757V26.0234H78.0977H78.2196V25.5331H78.0977ZM78.0977 26.5138H77.9757V27.0041H78.0977H78.2196V26.5138H78.0977ZM78.0977 27.4944H77.9757V27.9848H78.0977H78.2196V27.4944H78.0977ZM78.0977 28.4751H77.9757V28.9655H78.0977H78.2196V28.4751H78.0977ZM78.0977 29.4558H77.9757V29.9462H78.0977H78.2196V29.4558H78.0977ZM78.0977 30.4365H77.9757V30.9269H78.0977H78.2196V30.4365H78.0977ZM78.0977 31.4172H77.9757V31.9076H78.0977H78.2196V31.4172H78.0977ZM78.0977 32.3979H77.9757V32.8882H78.0977H78.2196V32.3979H78.0977ZM78.0977 33.3786H77.9757V33.8689H78.0977H78.2196V33.3786H78.0977ZM78.0977 34.3593H77.9757V34.8496H78.0977H78.2196V34.3593H78.0977ZM78.0977 35.34H77.9757V35.8303H78.0977H78.2196V35.34H78.0977ZM78.0977 36.3207H77.9757V36.811H78.0977H78.2196V36.3207H78.0977ZM78.0977 37.3014H77.9757V37.7917H78.0977H78.2196V37.3014H78.0977ZM78.0977 38.2821H77.9757V38.7724H78.0977H78.2196V38.2821H78.0977ZM78.0977 39.2627H77.9757V39.7531H78.0977H78.2196V39.2627H78.0977ZM78.0977 40.2434H77.9757V40.7338H78.0977H78.2196V40.2434H78.0977ZM78.0977 41.2241H77.9757V41.7145H78.0977H78.2196V41.2241H78.0977ZM78.0977 42.2048H77.9757V42.6952H78.0977H78.2196V42.2048H78.0977ZM78.0977 43.1855H77.9757V43.6758H78.0977H78.2196V43.1855H78.0977ZM78.0977 44.1662H77.9757V44.6565H78.0977H78.2196V44.1662H78.0977ZM78.0977 45.1469H77.9757V45.6372H78.0977H78.2196V45.1469H78.0977ZM78.0977 46.1276H77.9757V46.6179H78.0977H78.2196V46.1276H78.0977ZM78.0977 47.1083H77.9757V47.5986H78.0977H78.2196V47.1083H78.0977ZM78.0977 48.089H77.9757V48.5793H78.0977H78.2196V48.089H78.0977ZM78.0977 49.0696H77.9757V49.56H78.0977H78.2196V49.0696H78.0977ZM78.0977 50.0503H77.9757V50.5407H78.0977H78.2196V50.0503H78.0977ZM78.0977 51.031H77.9757V51.5214H78.0977H78.2196V51.031H78.0977ZM78.0977 52.0117H77.9757V52.5021H78.0977H78.2196V52.0117H78.0977ZM78.0977 52.9924H77.9757V53.4827H78.0977H78.2196V52.9924H78.0977ZM78.0977 53.9731H77.9757V54.4634H78.0977H78.2196V53.9731H78.0977ZM78.0977 54.9538H77.9757V55.4441H78.0977H78.2196V54.9538H78.0977ZM78.0977 55.9345H77.9757V56.4248H78.0977H78.2196V55.9345H78.0977ZM78.0977 56.9152H77.9757V57.4055H78.0977H78.2196V56.9152H78.0977ZM78.0977 57.8959H77.9757V58.3862H78.0977H78.2196V57.8959H78.0977ZM78.0977 58.8765H77.9757V59.3669H78.0977H78.2196V58.8765H78.0977ZM78.0977 59.8572H77.9757V60.3476H78.0977H78.2196V59.8572H78.0977ZM78.0977 60.8379H77.9757V61.3283H78.0977H78.2196V60.8379H78.0977ZM78.0977 61.8186H77.9757V62.309H78.0977H78.2196V61.8186H78.0977ZM78.0977 62.7993H77.9757V63.2896H78.0977H78.2196V62.7993H78.0977ZM78.0977 63.78H77.9757V64.2703H78.0977H78.2196V63.78H78.0977ZM78.0977 64.7607H77.9757V65.251H78.0977H78.2196V64.7607H78.0977ZM78.0977 65.7414H77.9757V66.2317H78.0977H78.2196V65.7414H78.0977ZM78.0977 66.7221H77.9757V67.2124H78.0977H78.2196V66.7221H78.0977ZM78.0977 67.7028H77.9757V68.1931H78.0977H78.2196V67.7028H78.0977ZM78.0977 68.6834H77.9757V68.9286H78.0977H78.2196V68.6834H78.0977Z" fill="#E0E0E0"/>
<path d="M15.9018 23.8555H14.9281V23.6506L15.2777 23.2972C15.3482 23.2248 15.4048 23.1644 15.4473 23.1161C15.4905 23.0672 15.5216 23.0228 15.5407 22.9828C15.5604 22.9427 15.5702 22.8999 15.5702 22.8541C15.5702 22.7989 15.5547 22.7576 15.5235 22.7303C15.493 22.7023 15.4521 22.6884 15.4006 22.6884C15.3466 22.6884 15.2942 22.7007 15.2434 22.7255C15.1926 22.7503 15.1396 22.7855 15.0843 22.8313L14.9243 22.6417C14.9643 22.6074 15.0065 22.575 15.051 22.5445C15.0961 22.514 15.1482 22.4896 15.2072 22.4711C15.2669 22.4521 15.3384 22.4425 15.4216 22.4425C15.5131 22.4425 15.5915 22.4591 15.6569 22.4921C15.723 22.5251 15.7738 22.5702 15.8094 22.6274C15.8449 22.6839 15.8627 22.7481 15.8627 22.8198C15.8627 22.8967 15.8475 22.9669 15.817 23.0304C15.7865 23.0939 15.742 23.1568 15.6836 23.219C15.6258 23.2813 15.5559 23.3502 15.474 23.4258L15.2949 23.5944V23.6078H15.9018V23.8555ZM16.5515 22.9656C16.6367 22.9656 16.7122 22.9818 16.7783 23.0142C16.845 23.0466 16.8974 23.0942 16.9355 23.1571C16.9736 23.22 16.9927 23.2975 16.9927 23.3896C16.9927 23.4899 16.9717 23.5766 16.9298 23.6497C16.8885 23.7221 16.8266 23.7777 16.744 23.8164C16.6621 23.8552 16.5598 23.8745 16.4372 23.8745C16.3642 23.8745 16.2953 23.8682 16.2305 23.8555C16.1663 23.8434 16.1101 23.8247 16.0618 23.7993V23.5449C16.1101 23.5703 16.1679 23.5919 16.2352 23.6097C16.3032 23.6268 16.367 23.6354 16.4267 23.6354C16.4852 23.6354 16.5344 23.6278 16.5744 23.6125C16.6144 23.5966 16.6446 23.5725 16.6649 23.5401C16.6859 23.5071 16.6964 23.4652 16.6964 23.4143C16.6964 23.3464 16.6735 23.2943 16.6278 23.2581C16.582 23.2219 16.5118 23.2038 16.4172 23.2038C16.381 23.2038 16.3432 23.2073 16.3038 23.2143C16.2651 23.2213 16.2327 23.2282 16.2067 23.2352L16.0895 23.1724L16.1419 22.4626H16.8974V22.7122H16.4001L16.3743 22.9856C16.3959 22.9812 16.4194 22.9767 16.4448 22.9723C16.4702 22.9678 16.5058 22.9656 16.5515 22.9656ZM18.1274 23.159C18.1274 23.2714 18.1185 23.3718 18.1007 23.4601C18.0836 23.5484 18.0556 23.6233 18.0169 23.6849C17.9788 23.7465 17.9286 23.7935 17.8663 23.8259C17.8041 23.8583 17.7285 23.8745 17.6396 23.8745C17.5278 23.8745 17.436 23.8463 17.3642 23.7897C17.2925 23.7326 17.2394 23.6506 17.2051 23.5439C17.1708 23.4366 17.1537 23.3083 17.1537 23.159C17.1537 23.0085 17.1692 22.8799 17.2004 22.7732C17.2321 22.6658 17.2836 22.5836 17.3547 22.5264C17.4258 22.4692 17.5208 22.4406 17.6396 22.4406C17.7507 22.4406 17.8422 22.4692 17.914 22.5264C17.9864 22.5829 18.04 22.6649 18.075 22.7722C18.1099 22.8789 18.1274 23.0078 18.1274 23.159ZM17.4462 23.159C17.4462 23.2651 17.4519 23.3537 17.4633 23.4248C17.4754 23.4953 17.4954 23.5484 17.5233 23.5839C17.5513 23.6195 17.59 23.6373 17.6396 23.6373C17.6885 23.6373 17.7269 23.6198 17.7549 23.5849C17.7834 23.5493 17.8038 23.4963 17.8158 23.4258C17.8279 23.3546 17.8339 23.2657 17.8339 23.159C17.8339 23.0529 17.8279 22.9643 17.8158 22.8932C17.8038 22.8221 17.7834 22.7687 17.7549 22.7331C17.7269 22.6969 17.6885 22.6788 17.6396 22.6788C17.59 22.6788 17.5513 22.6969 17.5233 22.7331C17.4954 22.7687 17.4754 22.8221 17.4633 22.8932C17.4519 22.9643 17.4462 23.0529 17.4462 23.159ZM19.244 23.159C19.244 23.2714 19.2351 23.3718 19.2173 23.4601C19.2002 23.5484 19.1722 23.6233 19.1335 23.6849C19.0954 23.7465 19.0452 23.7935 18.9829 23.8259C18.9207 23.8583 18.8451 23.8745 18.7562 23.8745C18.6444 23.8745 18.5526 23.8463 18.4808 23.7897C18.4091 23.7326 18.356 23.6506 18.3217 23.5439C18.2874 23.4366 18.2703 23.3083 18.2703 23.159C18.2703 23.0085 18.2859 22.8799 18.317 22.7732C18.3487 22.6658 18.4002 22.5836 18.4713 22.5264C18.5425 22.4692 18.6374 22.4406 18.7562 22.4406C18.8673 22.4406 18.9588 22.4692 19.0306 22.5264C19.103 22.5829 19.1567 22.6649 19.1916 22.7722C19.2265 22.8789 19.244 23.0078 19.244 23.159ZM18.5628 23.159C18.5628 23.2651 18.5685 23.3537 18.5799 23.4248C18.592 23.4953 18.612 23.5484 18.64 23.5839C18.6679 23.6195 18.7067 23.6373 18.7562 23.6373C18.8051 23.6373 18.8435 23.6198 18.8715 23.5849C18.9001 23.5493 18.9204 23.4963 18.9325 23.4258C18.9445 23.3546 18.9506 23.2657 18.9506 23.159C18.9506 23.0529 18.9445 22.9643 18.9325 22.8932C18.9204 22.8221 18.9001 22.7687 18.8715 22.7331C18.8435 22.6969 18.8051 22.6788 18.7562 22.6788C18.7067 22.6788 18.6679 22.6969 18.64 22.7331C18.612 22.7687 18.592 22.8221 18.5799 22.8932C18.5685 22.9643 18.5628 23.0529 18.5628 23.159Z" fill="#212121"/>
<path d="M15.9018 31.2461H14.9281V31.0413L15.2777 30.6878C15.3482 30.6154 15.4048 30.555 15.4473 30.5068C15.4905 30.4579 15.5216 30.4134 15.5407 30.3734C15.5604 30.3334 15.5702 30.2905 15.5702 30.2448C15.5702 30.1895 15.5547 30.1482 15.5235 30.1209C15.493 30.093 15.4521 30.079 15.4006 30.079C15.3466 30.079 15.2942 30.0914 15.2434 30.1161C15.1926 30.1409 15.1396 30.1762 15.0843 30.2219L14.9243 30.0323C14.9643 29.998 15.0065 29.9656 15.051 29.9351C15.0961 29.9046 15.1482 29.8802 15.2072 29.8618C15.2669 29.8427 15.3384 29.8332 15.4216 29.8332C15.5131 29.8332 15.5915 29.8497 15.6569 29.8827C15.723 29.9157 15.7738 29.9608 15.8094 30.018C15.8449 30.0745 15.8627 30.1387 15.8627 30.2105C15.8627 30.2873 15.8475 30.3575 15.817 30.421C15.7865 30.4845 15.742 30.5474 15.6836 30.6097C15.6258 30.6719 15.5559 30.7408 15.474 30.8164L15.2949 30.985V30.9984H15.9018V31.2461ZM17.0108 30.5496C17.0108 30.6621 17.0019 30.7624 16.9841 30.8507C16.9669 30.939 16.939 31.0139 16.9002 31.0756C16.8621 31.1372 16.812 31.1842 16.7497 31.2166C16.6875 31.249 16.6119 31.2651 16.523 31.2651C16.4112 31.2651 16.3194 31.2369 16.2476 31.1804C16.1758 31.1232 16.1228 31.0413 16.0885 30.9345C16.0542 30.8272 16.0371 30.6989 16.0371 30.5496C16.0371 30.3991 16.0526 30.2705 16.0837 30.1638C16.1155 30.0564 16.167 29.9742 16.2381 29.917C16.3092 29.8599 16.4042 29.8313 16.523 29.8313C16.6341 29.8313 16.7256 29.8599 16.7974 29.917C16.8698 29.9735 16.9234 30.0555 16.9584 30.1628C16.9933 30.2695 17.0108 30.3985 17.0108 30.5496ZM16.3296 30.5496C16.3296 30.6557 16.3353 30.7443 16.3467 30.8155C16.3588 30.886 16.3788 30.939 16.4067 30.9746C16.4347 31.0101 16.4734 31.0279 16.523 31.0279C16.5719 31.0279 16.6103 31.0104 16.6382 30.9755C16.6668 30.9399 16.6872 30.8869 16.6992 30.8164C16.7113 30.7453 16.7173 30.6563 16.7173 30.5496C16.7173 30.4436 16.7113 30.355 16.6992 30.2838C16.6872 30.2127 16.6668 30.1593 16.6382 30.1238C16.6103 30.0876 16.5719 30.0695 16.523 30.0695C16.4734 30.0695 16.4347 30.0876 16.4067 30.1238C16.3788 30.1593 16.3588 30.2127 16.3467 30.2838C16.3353 30.355 16.3296 30.4436 16.3296 30.5496ZM18.1274 30.5496C18.1274 30.6621 18.1185 30.7624 18.1007 30.8507C18.0836 30.939 18.0556 31.0139 18.0169 31.0756C17.9788 31.1372 17.9286 31.1842 17.8663 31.2166C17.8041 31.249 17.7285 31.2651 17.6396 31.2651C17.5278 31.2651 17.436 31.2369 17.3642 31.1804C17.2925 31.1232 17.2394 31.0413 17.2051 30.9345C17.1708 30.8272 17.1537 30.6989 17.1537 30.5496C17.1537 30.3991 17.1692 30.2705 17.2004 30.1638C17.2321 30.0564 17.2836 29.9742 17.3547 29.917C17.4258 29.8599 17.5208 29.8313 17.6396 29.8313C17.7507 29.8313 17.8422 29.8599 17.914 29.917C17.9864 29.9735 18.04 30.0555 18.075 30.1628C18.1099 30.2695 18.1274 30.3985 18.1274 30.5496ZM17.4462 30.5496C17.4462 30.6557 17.4519 30.7443 17.4633 30.8155C17.4754 30.886 17.4954 30.939 17.5233 30.9746C17.5513 31.0101 17.59 31.0279 17.6396 31.0279C17.6885 31.0279 17.7269 31.0104 17.7549 30.9755C17.7834 30.9399 17.8038 30.8869 17.8158 30.8164C17.8279 30.7453 17.8339 30.6563 17.8339 30.5496C17.8339 30.4436 17.8279 30.355 17.8158 30.2838C17.8038 30.2127 17.7834 30.1593 17.7549 30.1238C17.7269 30.0876 17.6885 30.0695 17.6396 30.0695C17.59 30.0695 17.5513 30.0876 17.5233 30.1238C17.4954 30.1593 17.4754 30.2127 17.4633 30.2838C17.4519 30.355 17.4462 30.4436 17.4462 30.5496ZM19.244 30.5496C19.244 30.6621 19.2351 30.7624 19.2173 30.8507C19.2002 30.939 19.1722 31.0139 19.1335 31.0756C19.0954 31.1372 19.0452 31.1842 18.9829 31.2166C18.9207 31.249 18.8451 31.2651 18.7562 31.2651C18.6444 31.2651 18.5526 31.2369 18.4808 31.1804C18.4091 31.1232 18.356 31.0413 18.3217 30.9345C18.2874 30.8272 18.2703 30.6989 18.2703 30.5496C18.2703 30.3991 18.2859 30.2705 18.317 30.1638C18.3487 30.0564 18.4002 29.9742 18.4713 29.917C18.5425 29.8599 18.6374 29.8313 18.7562 29.8313C18.8673 29.8313 18.9588 29.8599 19.0306 29.917C19.103 29.9735 19.1567 30.0555 19.1916 30.1628C19.2265 30.2695 19.244 30.3985 19.244 30.5496ZM18.5628 30.5496C18.5628 30.6557 18.5685 30.7443 18.5799 30.8155C18.592 30.886 18.612 30.939 18.64 30.9746C18.6679 31.0101 18.7067 31.0279 18.7562 31.0279C18.8051 31.0279 18.8435 31.0104 18.8715 30.9755C18.9001 30.9399 18.9204 30.8869 18.9325 30.8164C18.9445 30.7453 18.9506 30.6563 18.9506 30.5496C18.9506 30.4436 18.9445 30.355 18.9325 30.2838C18.9204 30.2127 18.9001 30.1593 18.8715 30.1238C18.8435 30.0876 18.8051 30.0695 18.7562 30.0695C18.7067 30.0695 18.6679 30.0876 18.64 30.1238C18.612 30.1593 18.592 30.2127 18.5799 30.2838C18.5685 30.355 18.5628 30.4436 18.5628 30.5496Z" fill="#212121"/>
<path d="M15.656 38.6367H15.3616V37.8307C15.3616 37.8085 15.3619 37.7812 15.3625 37.7488C15.3632 37.7157 15.3641 37.6821 15.3654 37.6478C15.3666 37.6128 15.3679 37.5814 15.3692 37.5534C15.3622 37.5617 15.3479 37.576 15.3263 37.5963C15.3054 37.616 15.2857 37.6338 15.2672 37.6497L15.1072 37.7783L14.9652 37.6011L15.414 37.2438H15.656V38.6367ZM16.5515 37.7469C16.6367 37.7469 16.7122 37.7631 16.7783 37.7954C16.845 37.8278 16.8974 37.8755 16.9355 37.9384C16.9736 38.0012 16.9927 38.0787 16.9927 38.1708C16.9927 38.2712 16.9717 38.3579 16.9298 38.4309C16.8885 38.5033 16.8266 38.5589 16.744 38.5977C16.6621 38.6364 16.5598 38.6558 16.4372 38.6558C16.3642 38.6558 16.2953 38.6494 16.2305 38.6367C16.1663 38.6247 16.1101 38.6059 16.0618 38.5805V38.3261C16.1101 38.3515 16.1679 38.3731 16.2352 38.3909C16.3032 38.4081 16.367 38.4166 16.4267 38.4166C16.4852 38.4166 16.5344 38.409 16.5744 38.3938C16.6144 38.3779 16.6446 38.3538 16.6649 38.3214C16.6859 38.2883 16.6964 38.2464 16.6964 38.1956C16.6964 38.1276 16.6735 38.0756 16.6278 38.0393C16.582 38.0031 16.5118 37.985 16.4172 37.985C16.381 37.985 16.3432 37.9885 16.3038 37.9955C16.2651 38.0025 16.2327 38.0095 16.2067 38.0165L16.0895 37.9536L16.1419 37.2438H16.8974V37.4934H16.4001L16.3743 37.7669C16.3959 37.7624 16.4194 37.758 16.4448 37.7535C16.4702 37.7491 16.5058 37.7469 16.5515 37.7469ZM18.1274 37.9403C18.1274 38.0527 18.1185 38.153 18.1007 38.2413C18.0836 38.3296 18.0556 38.4046 18.0169 38.4662C17.9788 38.5278 17.9286 38.5748 17.8663 38.6072C17.8041 38.6396 17.7285 38.6558 17.6396 38.6558C17.5278 38.6558 17.436 38.6275 17.3642 38.571C17.2925 38.5138 17.2394 38.4319 17.2051 38.3252C17.1708 38.2178 17.1537 38.0895 17.1537 37.9403C17.1537 37.7897 17.1692 37.6611 17.2004 37.5544C17.2321 37.4471 17.2836 37.3648 17.3547 37.3076C17.4258 37.2505 17.5208 37.2219 17.6396 37.2219C17.7507 37.2219 17.8422 37.2505 17.914 37.3076C17.9864 37.3642 18.04 37.4461 18.075 37.5534C18.1099 37.6602 18.1274 37.7891 18.1274 37.9403ZM17.4462 37.9403C17.4462 38.0463 17.4519 38.1349 17.4633 38.2061C17.4754 38.2766 17.4954 38.3296 17.5233 38.3652C17.5513 38.4008 17.59 38.4185 17.6396 38.4185C17.6885 38.4185 17.7269 38.4011 17.7549 38.3661C17.7834 38.3306 17.8038 38.2775 17.8158 38.207C17.8279 38.1359 17.8339 38.047 17.8339 37.9403C17.8339 37.8342 17.8279 37.7456 17.8158 37.6744C17.8038 37.6033 17.7834 37.55 17.7549 37.5144C17.7269 37.4782 17.6885 37.4601 17.6396 37.4601C17.59 37.4601 17.5513 37.4782 17.5233 37.5144C17.4954 37.55 17.4754 37.6033 17.4633 37.6744C17.4519 37.7456 17.4462 37.8342 17.4462 37.9403ZM19.244 37.9403C19.244 38.0527 19.2351 38.153 19.2173 38.2413C19.2002 38.3296 19.1722 38.4046 19.1335 38.4662C19.0954 38.5278 19.0452 38.5748 18.9829 38.6072C18.9207 38.6396 18.8451 38.6558 18.7562 38.6558C18.6444 38.6558 18.5526 38.6275 18.4808 38.571C18.4091 38.5138 18.356 38.4319 18.3217 38.3252C18.2874 38.2178 18.2703 38.0895 18.2703 37.9403C18.2703 37.7897 18.2859 37.6611 18.317 37.5544C18.3487 37.4471 18.4002 37.3648 18.4713 37.3076C18.5425 37.2505 18.6374 37.2219 18.7562 37.2219C18.8673 37.2219 18.9588 37.2505 19.0306 37.3076C19.103 37.3642 19.1567 37.4461 19.1916 37.5534C19.2265 37.6602 19.244 37.7891 19.244 37.9403ZM18.5628 37.9403C18.5628 38.0463 18.5685 38.1349 18.5799 38.2061C18.592 38.2766 18.612 38.3296 18.64 38.3652C18.6679 38.4008 18.7067 38.4185 18.7562 38.4185C18.8051 38.4185 18.8435 38.4011 18.8715 38.3661C18.9001 38.3306 18.9204 38.2775 18.9325 38.207C18.9445 38.1359 18.9506 38.047 18.9506 37.9403C18.9506 37.8342 18.9445 37.7456 18.9325 37.6744C18.9204 37.6033 18.9001 37.55 18.8715 37.5144C18.8435 37.4782 18.8051 37.4601 18.7562 37.4601C18.7067 37.4601 18.6679 37.4782 18.64 37.5144C18.612 37.55 18.592 37.6033 18.5799 37.6744C18.5685 37.7456 18.5628 37.8342 18.5628 37.9403Z" fill="#212121"/>
<path d="M15.656 46.0273H15.3616V45.2213C15.3616 45.1991 15.3619 45.1718 15.3625 45.1394C15.3632 45.1064 15.3641 45.0727 15.3654 45.0384C15.3666 45.0035 15.3679 44.972 15.3692 44.9441C15.3622 44.9523 15.3479 44.9666 15.3263 44.9869C15.3054 45.0066 15.2857 45.0244 15.2672 45.0403L15.1072 45.1689L14.9652 44.9917L15.414 44.6344H15.656V46.0273ZM17.0108 45.3309C17.0108 45.4433 17.0019 45.5437 16.9841 45.632C16.9669 45.7202 16.939 45.7952 16.9002 45.8568C16.8621 45.9184 16.812 45.9654 16.7497 45.9978C16.6875 46.0302 16.6119 46.0464 16.523 46.0464C16.4112 46.0464 16.3194 46.0181 16.2476 45.9616C16.1758 45.9044 16.1228 45.8225 16.0885 45.7158C16.0542 45.6085 16.0371 45.4802 16.0371 45.3309C16.0371 45.1804 16.0526 45.0517 16.0837 44.945C16.1155 44.8377 16.167 44.7554 16.2381 44.6983C16.3092 44.6411 16.4042 44.6125 16.523 44.6125C16.6341 44.6125 16.7256 44.6411 16.7974 44.6983C16.8698 44.7548 16.9234 44.8367 16.9584 44.9441C16.9933 45.0508 17.0108 45.1797 17.0108 45.3309ZM16.3296 45.3309C16.3296 45.437 16.3353 45.5256 16.3467 45.5967C16.3588 45.6672 16.3788 45.7202 16.4067 45.7558C16.4347 45.7914 16.4734 45.8092 16.523 45.8092C16.5719 45.8092 16.6103 45.7917 16.6382 45.7568C16.6668 45.7212 16.6872 45.6682 16.6992 45.5977C16.7113 45.5265 16.7173 45.4376 16.7173 45.3309C16.7173 45.2248 16.7113 45.1362 16.6992 45.0651C16.6872 44.9939 16.6668 44.9406 16.6382 44.905C16.6103 44.8688 16.5719 44.8507 16.523 44.8507C16.4734 44.8507 16.4347 44.8688 16.4067 44.905C16.3788 44.9406 16.3588 44.9939 16.3467 45.0651C16.3353 45.1362 16.3296 45.2248 16.3296 45.3309ZM18.1274 45.3309C18.1274 45.4433 18.1185 45.5437 18.1007 45.632C18.0836 45.7202 18.0556 45.7952 18.0169 45.8568C17.9788 45.9184 17.9286 45.9654 17.8663 45.9978C17.8041 46.0302 17.7285 46.0464 17.6396 46.0464C17.5278 46.0464 17.436 46.0181 17.3642 45.9616C17.2925 45.9044 17.2394 45.8225 17.2051 45.7158C17.1708 45.6085 17.1537 45.4802 17.1537 45.3309C17.1537 45.1804 17.1692 45.0517 17.2004 44.945C17.2321 44.8377 17.2836 44.7554 17.3547 44.6983C17.4258 44.6411 17.5208 44.6125 17.6396 44.6125C17.7507 44.6125 17.8422 44.6411 17.914 44.6983C17.9864 44.7548 18.04 44.8367 18.075 44.9441C18.1099 45.0508 18.1274 45.1797 18.1274 45.3309ZM17.4462 45.3309C17.4462 45.437 17.4519 45.5256 17.4633 45.5967C17.4754 45.6672 17.4954 45.7202 17.5233 45.7558C17.5513 45.7914 17.59 45.8092 17.6396 45.8092C17.6885 45.8092 17.7269 45.7917 17.7549 45.7568C17.7834 45.7212 17.8038 45.6682 17.8158 45.5977C17.8279 45.5265 17.8339 45.4376 17.8339 45.3309C17.8339 45.2248 17.8279 45.1362 17.8158 45.0651C17.8038 44.9939 17.7834 44.9406 17.7549 44.905C17.7269 44.8688 17.6885 44.8507 17.6396 44.8507C17.59 44.8507 17.5513 44.8688 17.5233 44.905C17.4954 44.9406 17.4754 44.9939 17.4633 45.0651C17.4519 45.1362 17.4462 45.2248 17.4462 45.3309ZM19.244 45.3309C19.244 45.4433 19.2351 45.5437 19.2173 45.632C19.2002 45.7202 19.1722 45.7952 19.1335 45.8568C19.0954 45.9184 19.0452 45.9654 18.9829 45.9978C18.9207 46.0302 18.8451 46.0464 18.7562 46.0464C18.6444 46.0464 18.5526 46.0181 18.4808 45.9616C18.4091 45.9044 18.356 45.8225 18.3217 45.7158C18.2874 45.6085 18.2703 45.4802 18.2703 45.3309C18.2703 45.1804 18.2859 45.0517 18.317 44.945C18.3487 44.8377 18.4002 44.7554 18.4713 44.6983C18.5425 44.6411 18.6374 44.6125 18.7562 44.6125C18.8673 44.6125 18.9588 44.6411 19.0306 44.6983C19.103 44.7548 19.1567 44.8367 19.1916 44.9441C19.2265 45.0508 19.244 45.1797 19.244 45.3309ZM18.5628 45.3309C18.5628 45.437 18.5685 45.5256 18.5799 45.5967C18.592 45.6672 18.612 45.7202 18.64 45.7558C18.6679 45.7914 18.7067 45.8092 18.7562 45.8092C18.8051 45.8092 18.8435 45.7917 18.8715 45.7568C18.9001 45.7212 18.9204 45.6682 18.9325 45.5977C18.9445 45.5265 18.9506 45.4376 18.9506 45.3309C18.9506 45.2248 18.9445 45.1362 18.9325 45.0651C18.9204 44.9939 18.9001 44.9406 18.8715 44.905C18.8435 44.8688 18.8051 44.8507 18.7562 44.8507C18.7067 44.8507 18.6679 44.8688 18.64 44.905C18.612 44.9406 18.592 44.9939 18.5799 45.0651C18.5685 45.1362 18.5628 45.2248 18.5628 45.3309Z" fill="#212121"/>
<path d="M16.5521 52.5281C16.6372 52.5281 16.7128 52.5443 16.7789 52.5767C16.8456 52.6091 16.898 52.6567 16.9361 52.7196C16.9742 52.7825 16.9932 52.86 16.9932 52.9521C16.9932 53.0524 16.9723 53.1391 16.9304 53.2122C16.8891 53.2846 16.8271 53.3402 16.7446 53.3789C16.6626 53.4177 16.5604 53.437 16.4378 53.437C16.3647 53.437 16.2958 53.4307 16.231 53.418C16.1669 53.4059 16.1107 53.3872 16.0624 53.3618V53.1074C16.1107 53.1328 16.1685 53.1544 16.2358 53.1722C16.3038 53.1893 16.3676 53.1979 16.4273 53.1979C16.4857 53.1979 16.535 53.1903 16.575 53.175C16.615 53.1591 16.6452 53.135 16.6655 53.1026C16.6865 53.0696 16.6969 53.0277 16.6969 52.9768C16.6969 52.9089 16.6741 52.8568 16.6283 52.8206C16.5826 52.7844 16.5124 52.7663 16.4178 52.7663C16.3816 52.7663 16.3438 52.7698 16.3044 52.7768C16.2657 52.7838 16.2333 52.7907 16.2072 52.7977L16.09 52.7349L16.1424 52.0251H16.898V52.2747H16.4006L16.3749 52.5481C16.3965 52.5437 16.42 52.5392 16.4454 52.5348C16.4708 52.5303 16.5064 52.5281 16.5521 52.5281ZM18.128 52.7215C18.128 52.8339 18.1191 52.9343 18.1013 53.0226C18.0841 53.1109 18.0562 53.1858 18.0174 53.2474C17.9793 53.309 17.9291 53.356 17.8669 53.3884C17.8047 53.4208 17.7291 53.437 17.6401 53.437C17.5284 53.437 17.4366 53.4088 17.3648 53.3522C17.293 53.2951 17.24 53.2131 17.2057 53.1064C17.1714 52.9991 17.1542 52.8708 17.1542 52.7215C17.1542 52.571 17.1698 52.4424 17.2009 52.3357C17.2327 52.2283 17.2841 52.1461 17.3553 52.0889C17.4264 52.0317 17.5214 52.0031 17.6401 52.0031C17.7513 52.0031 17.8428 52.0317 17.9145 52.0889C17.9869 52.1454 18.0406 52.2274 18.0756 52.3347C18.1105 52.4414 18.128 52.5703 18.128 52.7215ZM17.4467 52.7215C17.4467 52.8276 17.4525 52.9162 17.4639 52.9873C17.476 53.0578 17.496 53.1109 17.5239 53.1464C17.5519 53.182 17.5906 53.1998 17.6401 53.1998C17.6891 53.1998 17.7275 53.1823 17.7554 53.1474C17.784 53.1118 17.8043 53.0588 17.8164 52.9883C17.8285 52.9171 17.8345 52.8282 17.8345 52.7215C17.8345 52.6154 17.8285 52.5268 17.8164 52.4557C17.8043 52.3846 17.784 52.3312 17.7554 52.2956C17.7275 52.2594 17.6891 52.2413 17.6401 52.2413C17.5906 52.2413 17.5519 52.2594 17.5239 52.2956C17.496 52.3312 17.476 52.3846 17.4639 52.4557C17.4525 52.5268 17.4467 52.6154 17.4467 52.7215ZM19.2446 52.7215C19.2446 52.8339 19.2357 52.9343 19.2179 53.0226C19.2007 53.1109 19.1728 53.1858 19.1341 53.2474C19.0959 53.309 19.0458 53.356 18.9835 53.3884C18.9213 53.4208 18.8457 53.437 18.7568 53.437C18.645 53.437 18.5532 53.4088 18.4814 53.3522C18.4096 53.2951 18.3566 53.2131 18.3223 53.1064C18.288 52.9991 18.2709 52.8708 18.2709 52.7215C18.2709 52.571 18.2864 52.4424 18.3175 52.3357C18.3493 52.2283 18.4008 52.1461 18.4719 52.0889C18.543 52.0317 18.638 52.0031 18.7568 52.0031C18.8679 52.0031 18.9594 52.0317 19.0312 52.0889C19.1036 52.1454 19.1572 52.2274 19.1922 52.3347C19.2271 52.4414 19.2446 52.5703 19.2446 52.7215ZM18.5634 52.7215C18.5634 52.8276 18.5691 52.9162 18.5805 52.9873C18.5926 53.0578 18.6126 53.1109 18.6405 53.1464C18.6685 53.182 18.7072 53.1998 18.7568 53.1998C18.8057 53.1998 18.8441 53.1823 18.872 53.1474C18.9006 53.1118 18.921 53.0588 18.933 52.9883C18.9451 52.9171 18.9511 52.8282 18.9511 52.7215C18.9511 52.6154 18.9451 52.5268 18.933 52.4557C18.921 52.3846 18.9006 52.3312 18.872 52.2956C18.8441 52.2594 18.8057 52.2413 18.7568 52.2413C18.7072 52.2413 18.6685 52.2594 18.6405 52.2956C18.6126 52.3312 18.5926 52.3846 18.5805 52.4557C18.5691 52.5268 18.5634 52.6154 18.5634 52.7215Z" fill="#212121"/>
<path d="M16.7732 60.8086H16.4788V60.0026C16.4788 59.9803 16.4791 59.953 16.4797 59.9206C16.4803 59.8876 16.4813 59.8539 16.4826 59.8196C16.4838 59.7847 16.4851 59.7533 16.4864 59.7253C16.4794 59.7336 16.4651 59.7479 16.4435 59.7682C16.4225 59.7879 16.4029 59.8057 16.3844 59.8216L16.2244 59.9502L16.0824 59.773L16.5312 59.4157H16.7732V60.8086ZM18.128 60.1121C18.128 60.2246 18.1191 60.3249 18.1013 60.4132C18.0841 60.5015 18.0562 60.5764 18.0174 60.6381C17.9793 60.6997 17.9291 60.7467 17.8669 60.7791C17.8047 60.8115 17.7291 60.8276 17.6401 60.8276C17.5284 60.8276 17.4366 60.7994 17.3648 60.7429C17.293 60.6857 17.24 60.6038 17.2057 60.497C17.1714 60.3897 17.1542 60.2614 17.1542 60.1121C17.1542 59.9616 17.1698 59.833 17.2009 59.7263C17.2327 59.6189 17.2841 59.5367 17.3553 59.4795C17.4264 59.4224 17.5214 59.3938 17.6401 59.3938C17.7513 59.3938 17.8428 59.4224 17.9145 59.4795C17.9869 59.536 18.0406 59.618 18.0756 59.7253C18.1105 59.832 18.128 59.961 18.128 60.1121ZM17.4467 60.1121C17.4467 60.2182 17.4525 60.3068 17.4639 60.378C17.476 60.4485 17.496 60.5015 17.5239 60.5371C17.5519 60.5726 17.5906 60.5904 17.6401 60.5904C17.6891 60.5904 17.7275 60.5729 17.7554 60.538C17.784 60.5024 17.8043 60.4494 17.8164 60.3789C17.8285 60.3078 17.8345 60.2188 17.8345 60.1121C17.8345 60.0061 17.8285 59.9175 17.8164 59.8463C17.8043 59.7752 17.784 59.7218 17.7554 59.6863C17.7275 59.6501 17.6891 59.632 17.6401 59.632C17.5906 59.632 17.5519 59.6501 17.5239 59.6863C17.496 59.7218 17.476 59.7752 17.4639 59.8463C17.4525 59.9175 17.4467 60.0061 17.4467 60.1121ZM19.2446 60.1121C19.2446 60.2246 19.2357 60.3249 19.2179 60.4132C19.2007 60.5015 19.1728 60.5764 19.1341 60.6381C19.0959 60.6997 19.0458 60.7467 18.9835 60.7791C18.9213 60.8115 18.8457 60.8276 18.7568 60.8276C18.645 60.8276 18.5532 60.7994 18.4814 60.7429C18.4096 60.6857 18.3566 60.6038 18.3223 60.497C18.288 60.3897 18.2709 60.2614 18.2709 60.1121C18.2709 59.9616 18.2864 59.833 18.3175 59.7263C18.3493 59.6189 18.4008 59.5367 18.4719 59.4795C18.543 59.4224 18.638 59.3938 18.7568 59.3938C18.8679 59.3938 18.9594 59.4224 19.0312 59.4795C19.1036 59.536 19.1572 59.618 19.1922 59.7253C19.2271 59.832 19.2446 59.961 19.2446 60.1121ZM18.5634 60.1121C18.5634 60.2182 18.5691 60.3068 18.5805 60.378C18.5926 60.4485 18.6126 60.5015 18.6405 60.5371C18.6685 60.5726 18.7072 60.5904 18.7568 60.5904C18.8057 60.5904 18.8441 60.5729 18.872 60.538C18.9006 60.5024 18.921 60.4494 18.933 60.3789C18.9451 60.3078 18.9511 60.2188 18.9511 60.1121C18.9511 60.0061 18.9451 59.9175 18.933 59.8463C18.921 59.7752 18.9006 59.7218 18.872 59.6863C18.8441 59.6501 18.8057 59.632 18.7568 59.632C18.7072 59.632 18.6685 59.6501 18.6405 59.6863C18.6126 59.7218 18.5926 59.7752 18.5805 59.8463C18.5691 59.9175 18.5634 60.0061 18.5634 60.1121Z" fill="#212121"/>
<path d="M19.2446 67.4989C19.2446 67.6113 19.2357 67.7116 19.2179 67.7999C19.2007 67.8882 19.1728 67.9632 19.1341 68.0248C19.0959 68.0864 19.0458 68.1334 18.9835 68.1658C18.9213 68.1982 18.8457 68.2144 18.7568 68.2144C18.645 68.2144 18.5532 68.1861 18.4814 68.1296C18.4096 68.0724 18.3566 67.9905 18.3223 67.8838C18.288 67.7764 18.2709 67.6481 18.2709 67.4989C18.2709 67.3483 18.2864 67.2197 18.3175 67.113C18.3493 67.0057 18.4008 66.9234 18.4719 66.8662C18.543 66.8091 18.638 66.7805 18.7568 66.7805C18.8679 66.7805 18.9594 66.8091 19.0312 66.8662C19.1036 66.9228 19.1572 67.0047 19.1922 67.112C19.2271 67.2187 19.2446 67.3477 19.2446 67.4989ZM18.5634 67.4989C18.5634 67.6049 18.5691 67.6935 18.5805 67.7647C18.5926 67.8352 18.6126 67.8882 18.6405 67.9238C18.6685 67.9593 18.7072 67.9771 18.7568 67.9771C18.8057 67.9771 18.8441 67.9597 18.872 67.9247C18.9006 67.8892 18.921 67.8361 18.933 67.7656C18.9451 67.6945 18.9511 67.6056 18.9511 67.4989C18.9511 67.3928 18.9451 67.3042 18.933 67.233C18.921 67.1619 18.9006 67.1085 18.872 67.073C18.8441 67.0368 18.8057 67.0187 18.7568 67.0187C18.7072 67.0187 18.6685 67.0368 18.6405 67.073C18.6126 67.1085 18.5926 67.1619 18.5805 67.233C18.5691 67.3042 18.5634 67.3928 18.5634 67.4989Z" fill="#212121"/>
<path d="M30.7617 71.4141H30.4673V70.608C30.4673 70.5858 30.4676 70.5585 30.4682 70.5261C30.4689 70.4931 30.4698 70.4594 30.4711 70.4251C30.4724 70.3902 30.4736 70.3587 30.4749 70.3308C30.4679 70.339 30.4536 70.3533 30.432 70.3737C30.4111 70.3934 30.3914 70.4111 30.373 70.427L30.2129 70.5556L30.0709 70.3784L30.5197 70.0212H30.7617V71.4141Z" fill="#212121"/>
<path d="M22.951 70.7176C22.951 70.83 22.9421 70.9304 22.9244 71.0187C22.9072 71.107 22.8793 71.1819 22.8405 71.2435C22.8024 71.3051 22.7522 71.3521 22.69 71.3845C22.6277 71.4169 22.5521 71.4331 22.4632 71.4331C22.3514 71.4331 22.2597 71.4049 22.1879 71.3483C22.1161 71.2912 22.0631 71.2092 22.0288 71.1025C21.9945 70.9952 21.9773 70.8669 21.9773 70.7176C21.9773 70.5671 21.9929 70.4385 22.024 70.3317C22.0558 70.2244 22.1072 70.1421 22.1784 70.085C22.2495 70.0278 22.3444 69.9992 22.4632 69.9992C22.5744 69.9992 22.6658 70.0278 22.7376 70.085C22.81 70.1415 22.8637 70.2235 22.8986 70.3308C22.9336 70.4375 22.951 70.5664 22.951 70.7176ZM22.2698 70.7176C22.2698 70.8237 22.2755 70.9123 22.287 70.9834C22.299 71.0539 22.319 71.107 22.347 71.1425C22.3749 71.1781 22.4137 71.1959 22.4632 71.1959C22.5121 71.1959 22.5506 71.1784 22.5785 71.1435C22.6071 71.1079 22.6274 71.0549 22.6395 70.9844C22.6515 70.9132 22.6576 70.8243 22.6576 70.7176C22.6576 70.6115 22.6515 70.5229 22.6395 70.4518C22.6274 70.3807 22.6071 70.3273 22.5785 70.2917C22.5506 70.2555 22.5121 70.2374 22.4632 70.2374C22.4137 70.2374 22.3749 70.2555 22.347 70.2917C22.319 70.3273 22.299 70.3807 22.287 70.4518C22.2755 70.5229 22.2698 70.6115 22.2698 70.7176Z" fill="#212121"/>
<path d="M39.0563 71.4141H38.0826V71.2092L38.4323 70.8558C38.5028 70.7833 38.5593 70.723 38.6018 70.6747C38.645 70.6258 38.6762 70.5814 38.6952 70.5413C38.7149 70.5013 38.7248 70.4585 38.7248 70.4127C38.7248 70.3575 38.7092 70.3162 38.6781 70.2889C38.6476 70.2609 38.6066 70.247 38.5552 70.247C38.5012 70.247 38.4488 70.2593 38.398 70.2841C38.3471 70.3089 38.2941 70.3441 38.2389 70.3899L38.0788 70.2003C38.1188 70.166 38.161 70.1336 38.2055 70.1031C38.2506 70.0726 38.3027 70.0481 38.3618 70.0297C38.4215 70.0107 38.4929 70.0011 38.5761 70.0011C38.6676 70.0011 38.746 70.0177 38.8115 70.0507C38.8775 70.0837 38.9283 70.1288 38.9639 70.186C38.9995 70.2425 39.0172 70.3067 39.0172 70.3784C39.0172 70.4553 39.002 70.5255 38.9715 70.589C38.941 70.6525 38.8966 70.7154 38.8381 70.7776C38.7803 70.8399 38.7105 70.9088 38.6285 70.9844L38.4494 71.153V71.1663H39.0563V71.4141Z" fill="#212121"/>
<path d="M47.295 70.3327C47.295 70.3968 47.2816 70.4524 47.255 70.4994C47.2283 70.5464 47.1921 70.5849 47.1463 70.6147C47.1012 70.6446 47.0504 70.6665 46.9939 70.6804V70.6862C47.1057 70.7001 47.1905 70.7344 47.2483 70.7891C47.3067 70.8437 47.3359 70.9167 47.3359 71.0082C47.3359 71.0895 47.3159 71.1622 47.2759 71.2264C47.2365 71.2905 47.1756 71.341 47.093 71.3779C47.0104 71.4147 46.904 71.4331 46.7738 71.4331C46.697 71.4331 46.6252 71.4268 46.5585 71.4141C46.4924 71.402 46.4302 71.3833 46.3718 71.3579V71.1073C46.4315 71.1378 46.494 71.161 46.5595 71.1768C46.6249 71.1921 46.6858 71.1997 46.7424 71.1997C46.8478 71.1997 46.9215 71.1816 46.9634 71.1454C47.006 71.1085 47.0272 71.0571 47.0272 70.991C47.0272 70.9523 47.0174 70.9196 46.9977 70.8929C46.978 70.8662 46.9437 70.8459 46.8948 70.8319C46.8465 70.818 46.7789 70.811 46.6919 70.811H46.5861V70.5852H46.6938C46.7795 70.5852 46.8446 70.5772 46.8891 70.5614C46.9342 70.5448 46.9647 70.5226 46.9806 70.4947C46.9971 70.4661 47.0053 70.4337 47.0053 70.3975C47.0053 70.3479 46.9901 70.3092 46.9596 70.2812C46.9291 70.2533 46.8783 70.2393 46.8072 70.2393C46.7627 70.2393 46.7221 70.245 46.6852 70.2565C46.649 70.2673 46.6163 70.2806 46.5871 70.2965C46.5579 70.3117 46.5321 70.3267 46.5099 70.3413L46.3737 70.1383C46.4283 70.099 46.4921 70.0662 46.5652 70.0402C46.6388 70.0142 46.7265 70.0011 46.8281 70.0011C46.9717 70.0011 47.0854 70.03 47.1692 70.0878C47.253 70.1456 47.295 70.2273 47.295 70.3327Z" fill="#212121"/>
<path d="M55.4295 71.1254H55.2619V71.4141H54.9741V71.1254H54.3796V70.9205L54.9903 70.0212H55.2619V70.8967H55.4295V71.1254ZM54.9741 70.8967V70.6604C54.9741 70.6382 54.9745 70.6119 54.9751 70.5814C54.9764 70.5509 54.9776 70.5204 54.9789 70.4899C54.9802 70.4594 54.9814 70.4324 54.9827 70.4089C54.9846 70.3848 54.9859 70.3679 54.9865 70.3584H54.9789C54.9668 70.3845 54.9541 70.4099 54.9408 70.4346C54.9274 70.4588 54.9119 70.4842 54.8941 70.5109L54.6388 70.8967H54.9741Z" fill="#212121"/>
<path d="M62.9801 70.5242C63.0652 70.5242 63.1408 70.5404 63.2068 70.5728C63.2735 70.6052 63.3259 70.6528 63.364 70.7157C63.4022 70.7786 63.4212 70.8561 63.4212 70.9482C63.4212 71.0485 63.4002 71.1352 63.3583 71.2083C63.317 71.2807 63.2551 71.3363 63.1725 71.375C63.0906 71.4137 62.9883 71.4331 62.8658 71.4331C62.7927 71.4331 62.7238 71.4268 62.659 71.4141C62.5949 71.402 62.5386 71.3833 62.4904 71.3579V71.1035C62.5386 71.1289 62.5964 71.1505 62.6638 71.1683C62.7317 71.1854 62.7956 71.194 62.8553 71.194C62.9137 71.194 62.9629 71.1864 63.003 71.1711C63.043 71.1552 63.0731 71.1311 63.0935 71.0987C63.1144 71.0657 63.1249 71.0238 63.1249 70.9729C63.1249 70.905 63.102 70.8529 63.0563 70.8167C63.0106 70.7805 62.9404 70.7624 62.8458 70.7624C62.8095 70.7624 62.7718 70.7659 62.7324 70.7729C62.6936 70.7799 62.6612 70.7868 62.6352 70.7938L62.518 70.7309L62.5704 70.0212H63.3259V70.2708H62.8286L62.8029 70.5442C62.8245 70.5398 62.848 70.5353 62.8734 70.5309C62.8988 70.5264 62.9344 70.5242 62.9801 70.5242Z" fill="#212121"/>
<path d="M70.5125 70.8224C70.5125 70.7424 70.5182 70.6633 70.5297 70.5852C70.5417 70.5064 70.5624 70.4324 70.5916 70.3632C70.6208 70.2933 70.6618 70.2317 70.7145 70.1784C70.7672 70.1244 70.8342 70.0821 70.9155 70.0516C70.9968 70.0205 71.0953 70.005 71.2109 70.005C71.2382 70.005 71.27 70.0062 71.3062 70.0088C71.343 70.0107 71.3735 70.0142 71.3976 70.0192V70.2546C71.3722 70.2489 71.3449 70.2444 71.3157 70.2412C71.2871 70.2374 71.2585 70.2355 71.2299 70.2355C71.1143 70.2355 71.0248 70.2539 70.9613 70.2908C70.8984 70.3276 70.8539 70.3787 70.8279 70.4442C70.8025 70.509 70.7876 70.5845 70.7831 70.6709H70.7955C70.8133 70.6398 70.8355 70.6122 70.8622 70.588C70.8895 70.5639 70.9225 70.5448 70.9613 70.5309C71 70.5163 71.0454 70.509 71.0975 70.509C71.1788 70.509 71.2493 70.5264 71.309 70.5614C71.3687 70.5957 71.4148 70.6455 71.4472 70.7109C71.4796 70.7764 71.4958 70.8561 71.4958 70.9501C71.4958 71.0504 71.4764 71.1368 71.4376 71.2092C71.3989 71.2816 71.344 71.3372 71.2728 71.376C71.2023 71.4141 71.1185 71.4331 71.0213 71.4331C70.9502 71.4331 70.8838 71.421 70.8222 71.3969C70.7606 71.3721 70.7066 71.3347 70.6602 71.2845C70.6138 71.2343 70.5776 71.1711 70.5516 71.0949C70.5255 71.018 70.5125 70.9272 70.5125 70.8224ZM71.0156 71.1978C71.0734 71.1978 71.1204 71.1781 71.1566 71.1387C71.1928 71.0993 71.2109 71.0377 71.2109 70.9539C71.2109 70.8859 71.195 70.8326 71.1633 70.7938C71.1321 70.7544 71.0848 70.7348 71.0213 70.7348C70.9781 70.7348 70.94 70.7446 70.907 70.7643C70.8746 70.7833 70.8495 70.8078 70.8317 70.8377C70.8139 70.8669 70.805 70.897 70.805 70.9282C70.805 70.9606 70.8095 70.9926 70.8184 71.0244C70.8273 71.0561 70.8406 71.085 70.8584 71.1111C70.8762 71.1371 70.8981 71.1581 70.9241 71.174C70.9508 71.1899 70.9813 71.1978 71.0156 71.1978Z" fill="#212121"/>
<path d="M78.4649 71.4141L78.9879 70.2689H78.301V70.0212H79.3004V70.206L78.7736 71.4141H78.4649Z" fill="#212121"/>
<path d="M21.6339 68.9286C21.6339 68.996 21.6885 69.0506 21.7559 69.0506C21.8232 69.0506 21.8778 68.996 21.8778 68.9286H21.6339ZM21.7559 21.8555H21.6339V22.1006H21.7559H21.8778V21.8555H21.7559ZM21.7559 22.591H21.6339V23.0813H21.7559H21.8778V22.591H21.7559ZM21.7559 23.5717H21.6339V24.062H21.7559H21.8778V23.5717H21.7559ZM21.7559 24.5524H21.6339V25.0427H21.7559H21.8778V24.5524H21.7559ZM21.7559 25.5331H21.6339V26.0234H21.7559H21.8778V25.5331H21.7559ZM21.7559 26.5138H21.6339V27.0041H21.7559H21.8778V26.5138H21.7559ZM21.7559 27.4944H21.6339V27.9848H21.7559H21.8778V27.4944H21.7559ZM21.7559 28.4751H21.6339V28.9655H21.7559H21.8778V28.4751H21.7559ZM21.7559 29.4558H21.6339V29.9462H21.7559H21.8778V29.4558H21.7559ZM21.7559 30.4365H21.6339V30.9269H21.7559H21.8778V30.4365H21.7559ZM21.7559 31.4172H21.6339V31.9076H21.7559H21.8778V31.4172H21.7559ZM21.7559 32.3979H21.6339V32.8882H21.7559H21.8778V32.3979H21.7559ZM21.7559 33.3786H21.6339V33.8689H21.7559H21.8778V33.3786H21.7559ZM21.7559 34.3593H21.6339V34.8496H21.7559H21.8778V34.3593H21.7559ZM21.7559 35.34H21.6339V35.8303H21.7559H21.8778V35.34H21.7559ZM21.7559 36.3207H21.6339V36.811H21.7559H21.8778V36.3207H21.7559ZM21.7559 37.3014H21.6339V37.7917H21.7559H21.8778V37.3014H21.7559ZM21.7559 38.2821H21.6339V38.7724H21.7559H21.8778V38.2821H21.7559ZM21.7559 39.2627H21.6339V39.7531H21.7559H21.8778V39.2627H21.7559ZM21.7559 40.2434H21.6339V40.7338H21.7559H21.8778V40.2434H21.7559ZM21.7559 41.2241H21.6339V41.7145H21.7559H21.8778V41.2241H21.7559ZM21.7559 42.2048H21.6339V42.6952H21.7559H21.8778V42.2048H21.7559ZM21.7559 43.1855H21.6339V43.6758H21.7559H21.8778V43.1855H21.7559ZM21.7559 44.1662H21.6339V44.6565H21.7559H21.8778V44.1662H21.7559ZM21.7559 45.1469H21.6339V45.6372H21.7559H21.8778V45.1469H21.7559ZM21.7559 46.1276H21.6339V46.6179H21.7559H21.8778V46.1276H21.7559ZM21.7559 47.1083H21.6339V47.5986H21.7559H21.8778V47.1083H21.7559ZM21.7559 48.089H21.6339V48.5793H21.7559H21.8778V48.089H21.7559ZM21.7559 49.0696H21.6339V49.56H21.7559H21.8778V49.0696H21.7559ZM21.7559 50.0503H21.6339V50.5407H21.7559H21.8778V50.0503H21.7559ZM21.7559 51.031H21.6339V51.5214H21.7559H21.8778V51.031H21.7559ZM21.7559 52.0117H21.6339V52.5021H21.7559H21.8778V52.0117H21.7559ZM21.7559 52.9924H21.6339V53.4827H21.7559H21.8778V52.9924H21.7559ZM21.7559 53.9731H21.6339V54.4634H21.7559H21.8778V53.9731H21.7559ZM21.7559 54.9538H21.6339V55.4441H21.7559H21.8778V54.9538H21.7559ZM21.7559 55.9345H21.6339V56.4248H21.7559H21.8778V55.9345H21.7559ZM21.7559 56.9152H21.6339V57.4055H21.7559H21.8778V56.9152H21.7559ZM21.7559 57.8959H21.6339V58.3862H21.7559H21.8778V57.8959H21.7559ZM21.7559 58.8765H21.6339V59.3669H21.7559H21.8778V58.8765H21.7559ZM21.7559 59.8572H21.6339V60.3476H21.7559H21.8778V59.8572H21.7559ZM21.7559 60.8379H21.6339V61.3283H21.7559H21.8778V60.8379H21.7559ZM21.7559 61.8186H21.6339V62.309H21.7559H21.8778V61.8186H21.7559ZM21.7559 62.7993H21.6339V63.2896H21.7559H21.8778V62.7993H21.7559ZM21.7559 63.78H21.6339V64.2703H21.7559H21.8778V63.78H21.7559ZM21.7559 64.7607H21.6339V65.251H21.7559H21.8778V64.7607H21.7559ZM21.7559 65.7414H21.6339V66.2317H21.7559H21.8778V65.7414H21.7559ZM21.7559 66.7221H21.6339V67.2124H21.7559H21.8778V66.7221H21.7559ZM21.7559 67.7028H21.6339V68.1931H21.7559H21.8778V67.7028H21.7559ZM21.7559 68.6834H21.6339V68.9286H21.7559H21.8778V68.6834H21.7559Z" fill="#D4D4D4"/>
<path d="M21.7559 68.9297H78.0973" stroke="#D4D4D4" stroke-width="0.243902"/>
<path d="M23.7104 45.9591L21.8444 48.6535C21.7867 48.7368 21.7559 48.8356 21.7559 48.9369V68.3085C21.7559 68.5833 21.9787 68.8061 22.2535 68.8061H77.5763C77.8511 68.8061 78.0739 68.5833 78.0739 68.3085V58.5276C78.0739 58.2555 77.8536 58.0385 77.5857 57.991C75.5811 57.6354 74.5576 55.3005 74.1008 53.6318C74.004 53.2784 73.5789 53.1196 73.2868 53.3408L72.0839 54.2516C71.8592 54.4217 71.5383 54.3715 71.3763 54.141L69.7323 51.8012C69.556 51.5504 69.1971 51.517 68.9776 51.731L68.5387 52.159C68.3081 52.384 67.9279 52.3338 67.7634 52.0569L65.9837 49.0601C65.7837 48.7232 65.2908 48.7389 65.1126 49.0878L63.2259 52.7827C63.1165 52.997 62.8693 53.1023 62.6389 53.0328L61.452 52.6744C61.2981 52.628 61.1313 52.6587 61.0041 52.7569L59.6595 53.7948C59.4317 53.9707 59.1026 53.9172 58.9422 53.6782L57.8222 52.0096C57.6697 51.7824 57.3625 51.7209 57.1343 51.8719L55.541 52.9263C55.3422 53.0579 55.0781 53.03 54.9111 52.8599L54.1845 52.1193C53.8829 51.8119 53.3367 52.0067 53.2293 52.4236C52.8894 53.7423 52.156 54.6409 51.6386 55.0787C51.4979 55.1977 51.2972 55.2071 51.1473 55.0998C49.1826 53.6933 48.3995 49.0702 48.1998 46.2297C48.173 45.8485 47.7497 45.623 47.4245 45.8238L47.1725 45.9793C46.9347 46.1261 46.6227 46.0483 46.4816 45.8071L44.8738 43.0583C44.7258 42.8053 44.3923 42.7344 44.1542 42.9052L43.4467 43.4128C43.211 43.5819 42.8813 43.5144 42.731 43.2663L41.7801 41.697C41.547 41.3122 40.9506 41.4106 40.8179 41.8405C39.4628 46.2287 36.8159 46.2431 35.3331 45.5444C35.1377 45.4524 34.9033 45.4687 34.7397 45.6098L33.9386 46.3004C33.7315 46.4789 33.4192 46.4569 33.2391 46.2512L32.6941 45.6283C32.4507 45.3501 31.9997 45.425 31.8593 45.7669L30.1955 49.8178C30.0493 50.1738 29.5718 50.2362 29.3389 49.9299L28.2058 48.439C28.0652 48.254 27.8153 48.1909 27.6038 48.287L26.8911 48.6108C26.6734 48.7097 26.416 48.6398 26.2783 48.4442L24.5265 45.9559C24.3273 45.673 23.9074 45.6746 23.7104 45.9591Z" fill="url(#paint0_linear_7800_42556)"/>
<path d="M21.7559 48.7814L23.7104 45.9591C23.9074 45.6746 24.3273 45.673 24.5265 45.9559L26.2783 48.4442C26.416 48.6398 26.6734 48.7097 26.8911 48.6108L27.6038 48.287C27.8153 48.1909 28.0652 48.254 28.2058 48.439L29.3389 49.9299C29.5718 50.2362 30.0493 50.1738 30.1955 49.8178L31.8593 45.7669C31.9997 45.425 32.4507 45.3501 32.6941 45.6283L33.2391 46.2512C33.4192 46.4569 33.7315 46.4789 33.9386 46.3004L34.7397 45.6098C34.9033 45.4687 35.1377 45.4524 35.3331 45.5444C36.8159 46.2431 39.4628 46.2287 40.8179 41.8405C40.9506 41.4106 41.547 41.3122 41.7801 41.697L42.731 43.2663C42.8813 43.5144 43.211 43.5819 43.4467 43.4128L44.1542 42.9052C44.3923 42.7344 44.7258 42.8053 44.8738 43.0583L46.4816 45.8071C46.6227 46.0483 46.9347 46.1261 47.1725 45.9793L47.4245 45.8238C47.7497 45.623 48.173 45.8485 48.1998 46.2297C48.3995 49.0702 49.1826 53.6933 51.1473 55.0998C51.2972 55.2071 51.4979 55.1977 51.6386 55.0787C52.156 54.6409 52.8894 53.7423 53.2293 52.4236C53.3367 52.0067 53.8829 51.8119 54.1845 52.1193L54.9111 52.8599C55.0781 53.03 55.3422 53.0579 55.541 52.9263L57.1344 51.8719C57.3625 51.7209 57.6697 51.7824 57.8222 52.0096L58.9422 53.6782C59.1026 53.9172 59.4317 53.9707 59.6595 53.7948L61.0041 52.7569C61.1313 52.6587 61.2981 52.628 61.452 52.6744L62.6389 53.0328C62.8693 53.1023 63.1165 52.997 63.2259 52.7827L65.1126 49.0878C65.2908 48.7389 65.7837 48.7232 65.9837 49.0601L67.7634 52.0569C67.9279 52.3338 68.3081 52.384 68.5387 52.159L68.9776 51.731C69.1971 51.517 69.556 51.5504 69.7323 51.8012L71.3763 54.141C71.5383 54.3715 71.8592 54.4217 72.0839 54.2516L73.2868 53.3408C73.5789 53.1196 74.0042 53.2783 74.1018 53.6315C74.599 55.4315 75.7678 58.0084 78.0973 58.0407" stroke="#90DFFF" stroke-width="0.497651" stroke-linecap="round"/>
<g filter="url(#filter0_d_7800_42556)">
<path d="M31.2578 46.2363C31.8111 46.2926 32.2432 46.7599 32.2432 47.3281V47.8164C32.2429 48.4223 31.7514 48.913 31.1455 48.9131H30.1289L29.6816 49.3594L29.2354 48.9131H28.2188C27.6127 48.9131 27.1213 48.4224 27.1211 47.8164V47.3281C27.1211 46.722 27.6126 46.2305 28.2188 46.2305H31.1455L31.2578 46.2363Z" fill="white"/>
</g>
<g filter="url(#filter1_d_7800_42556)">
<path d="M39.3066 42.0957C39.8599 42.152 40.2919 42.6194 40.292 43.1875V43.6758C40.2917 44.2816 39.8002 44.7723 39.1943 44.7725H38.1777L37.7305 45.2188L37.2842 44.7725H36.2676C35.6616 44.7724 35.1702 44.2817 35.1699 43.6758V43.1875C35.17 42.5814 35.6615 42.0899 36.2676 42.0898H39.1943L39.3066 42.0957Z" fill="white"/>
</g>
<g filter="url(#filter2_d_7800_42556)">
<path d="M47.3555 41.1152C47.9087 41.1716 48.3407 41.6389 48.3408 42.207V42.6953C48.3406 43.3012 47.849 43.7918 47.2432 43.792H46.2266L45.7793 44.2383L45.333 43.792H44.3164C43.7104 43.792 43.219 43.3013 43.2188 42.6953V42.207C43.2188 41.6009 43.7103 41.1094 44.3164 41.1094H47.2432L47.3555 41.1152Z" fill="white"/>
</g>
<g filter="url(#filter3_d_7800_42556)">
<path d="M55.4043 48.6777C55.9575 48.7341 56.3896 49.2014 56.3896 49.7695V50.2578C56.3892 50.8634 55.8977 51.3543 55.292 51.3545H54.2744L53.8281 51.8008L53.3828 51.3545H52.3652C51.7594 51.3545 51.2681 50.8636 51.2676 50.2578V49.7695C51.2676 49.1634 51.7591 48.6719 52.3652 48.6719H55.292L55.4043 48.6777Z" fill="white"/>
</g>
<g filter="url(#filter4_d_7800_42556)">
<path d="M63.4531 49.166C64.0063 49.2224 64.4384 49.6897 64.4385 50.2578V50.7461C64.4382 51.3519 63.9466 51.8425 63.3408 51.8428H62.3242L61.877 52.2891L61.4307 51.8428H60.4141C59.8081 51.8428 59.3167 51.352 59.3164 50.7461V50.2578C59.3165 49.6517 59.8079 49.1602 60.4141 49.1602H63.3408L63.4531 49.166Z" fill="white"/>
</g>
<g filter="url(#filter5_d_7800_42556)">
<path d="M71.502 47.9473C72.0551 48.0037 72.4871 48.4711 72.4873 49.0391V49.5273C72.4871 50.1331 71.9954 50.6238 71.3896 50.624H70.373L69.9258 51.0703L69.4795 50.624H68.4629C67.8569 50.624 67.3655 50.1333 67.3652 49.5273V49.0391C67.3654 48.433 67.8568 47.9414 68.4629 47.9414H71.3896L71.502 47.9473Z" fill="white"/>
</g>
<g filter="url(#filter6_d_7800_42556)">
<path d="M79.5488 54.5293C80.1023 54.5855 80.5342 55.0528 80.5342 55.6211V56.1094C80.5338 56.7152 80.0424 57.2061 79.4365 57.2061H78.4199L77.9736 57.6523L77.5283 57.2061H76.5098C75.9041 57.2058 75.4125 56.715 75.4121 56.1094V55.6211C75.4121 55.0151 75.9038 54.5237 76.5098 54.5234H79.4365L79.5488 54.5293Z" fill="white"/>
</g>
<path d="M28.6113 47.9103C28.6113 47.8488 28.6156 47.7883 28.6242 47.7288C28.6332 47.6693 28.6485 47.6135 28.6699 47.5616C28.6914 47.5097 28.7209 47.4639 28.7585 47.4244C28.7966 47.3849 28.8445 47.3539 28.9022 47.3315C28.9598 47.3086 29.0291 47.2972 29.1101 47.2972C29.131 47.2972 29.1546 47.2982 29.1808 47.3001C29.207 47.302 29.2287 47.3051 29.2459 47.3094V47.4487C29.2273 47.4435 29.2068 47.4394 29.1844 47.4365C29.1625 47.4337 29.1406 47.4323 29.1187 47.4323C29.031 47.4323 28.9627 47.4489 28.9136 47.4823C28.8645 47.5151 28.8295 47.5604 28.8085 47.618C28.7876 47.6752 28.7754 47.7407 28.7721 47.8145H28.7807C28.795 47.7907 28.8128 47.7695 28.8343 47.751C28.8557 47.7324 28.8819 47.7176 28.9129 47.7067C28.9438 47.6952 28.9798 47.6895 29.0208 47.6895C29.0817 47.6895 29.1349 47.7024 29.1801 47.7281C29.2254 47.7533 29.2601 47.79 29.2844 47.8381C29.3092 47.8862 29.3216 47.9446 29.3216 48.0132C29.3216 48.087 29.3075 48.1506 29.2794 48.204C29.2518 48.2573 29.2123 48.2983 29.1608 48.3269C29.1099 48.3555 29.0491 48.3698 28.9786 48.3698C28.9267 48.3698 28.8783 48.3602 28.8336 48.3412C28.7893 48.3221 28.7504 48.2935 28.7171 48.2554C28.6837 48.2173 28.6578 48.1697 28.6392 48.1125C28.6206 48.0549 28.6113 47.9875 28.6113 47.9103ZM28.9758 48.2311C29.0301 48.2311 29.0736 48.2135 29.1065 48.1783C29.1399 48.1425 29.1565 48.088 29.1565 48.0146C29.1565 47.9551 29.1418 47.9079 29.1122 47.8731C29.0832 47.8384 29.0393 47.821 28.9808 47.821C28.9407 47.821 28.9057 47.8296 28.8757 47.8467C28.8457 47.8639 28.8224 47.8855 28.8057 47.9117C28.7895 47.9379 28.7814 47.9646 28.7814 47.9918C28.7814 48.0194 28.7854 48.0473 28.7935 48.0754C28.8016 48.1035 28.8138 48.1294 28.83 48.1532C28.8462 48.1766 28.8664 48.1954 28.8907 48.2097C28.915 48.224 28.9434 48.2311 28.9758 48.2311ZM29.8635 47.7024C29.9306 47.7024 29.9897 47.7145 30.0407 47.7388C30.0921 47.7626 30.1321 47.7979 30.1607 47.8446C30.1893 47.8908 30.2036 47.9475 30.2036 48.0146C30.2036 48.088 30.1881 48.1513 30.1572 48.2047C30.1262 48.2576 30.0807 48.2983 30.0207 48.3269C29.9607 48.3555 29.8875 48.3698 29.8013 48.3698C29.7465 48.3698 29.6953 48.365 29.6477 48.3555C29.6005 48.3459 29.5598 48.3317 29.5255 48.3126V48.1611C29.5612 48.1811 29.6041 48.1976 29.6541 48.2104C29.7041 48.2228 29.752 48.229 29.7977 48.229C29.8463 48.229 29.888 48.2218 29.9228 48.2076C29.9576 48.1933 29.9842 48.1714 30.0028 48.1418C30.0219 48.1123 30.0314 48.0749 30.0314 48.0296C30.0314 47.9696 30.0121 47.9234 29.9735 47.891C29.9354 47.8581 29.8756 47.8417 29.7942 47.8417C29.7656 47.8417 29.7351 47.8443 29.7027 47.8496C29.6708 47.8543 29.6441 47.8596 29.6227 47.8653L29.5491 47.8217L29.5884 47.3108H30.1314V47.4587H29.7363L29.7134 47.7188C29.7306 47.715 29.751 47.7114 29.7749 47.7081C29.7987 47.7043 29.8282 47.7024 29.8635 47.7024ZM31.1142 47.8324C31.1142 47.9167 31.1075 47.9922 31.0942 48.0589C31.0813 48.1251 31.0608 48.1814 31.0327 48.2276C31.0046 48.2738 30.9679 48.309 30.9227 48.3333C30.8774 48.3576 30.8226 48.3698 30.7583 48.3698C30.6778 48.3698 30.6114 48.3486 30.559 48.3062C30.5066 48.2633 30.4677 48.2018 30.4425 48.1218C30.4173 48.0413 30.4046 47.9448 30.4046 47.8324C30.4046 47.72 30.4161 47.6238 30.4389 47.5437C30.4623 47.4632 30.4999 47.4015 30.5518 47.3587C30.6038 47.3158 30.6726 47.2944 30.7583 47.2944C30.8393 47.2944 30.906 47.3158 30.9584 47.3587C31.0113 47.4011 31.0504 47.4625 31.0756 47.543C31.1013 47.623 31.1142 47.7195 31.1142 47.8324ZM30.574 47.8324C30.574 47.9205 30.5797 47.9941 30.5911 48.0532C30.603 48.1123 30.6226 48.1566 30.6497 48.1861C30.6769 48.2152 30.7131 48.2297 30.7583 48.2297C30.8036 48.2297 30.8398 48.2152 30.8669 48.1861C30.8941 48.1571 30.9136 48.113 30.9255 48.0539C30.9379 47.9949 30.9441 47.921 30.9441 47.8324C30.9441 47.7448 30.9382 47.6714 30.9263 47.6123C30.9143 47.5533 30.8948 47.509 30.8677 47.4794C30.8405 47.4494 30.8041 47.4344 30.7583 47.4344C30.7126 47.4344 30.6762 47.4494 30.649 47.4794C30.6223 47.509 30.603 47.5533 30.5911 47.6123C30.5797 47.6714 30.574 47.7448 30.574 47.8324Z" fill="#212121"/>
<path d="M37.3647 43.6075C37.3647 43.6694 37.3602 43.7302 37.3511 43.7897C37.3426 43.8493 37.3273 43.905 37.3054 43.9569C37.284 44.0089 37.2542 44.0548 37.2161 44.0948C37.1784 44.1344 37.1308 44.1653 37.0732 44.1877C37.0155 44.2101 36.946 44.2213 36.8645 44.2213C36.844 44.2213 36.8202 44.2201 36.7931 44.2177C36.7664 44.2158 36.7445 44.213 36.7273 44.2092V44.0691C36.7454 44.0744 36.7657 44.0786 36.7881 44.082C36.8109 44.0848 36.8336 44.0863 36.8559 44.0863C36.9441 44.0863 37.0127 44.0698 37.0617 44.037C37.1113 44.0041 37.1463 43.9588 37.1668 43.9012C37.1877 43.8436 37.1996 43.7781 37.2025 43.7047H37.1939C37.1801 43.7276 37.1627 43.7485 37.1418 43.7676C37.1208 43.7862 37.0948 43.8012 37.0639 43.8126C37.0329 43.8236 36.9953 43.829 36.951 43.829C36.891 43.829 36.8386 43.8164 36.7938 43.7912C36.7495 43.7659 36.7149 43.7292 36.6902 43.6811C36.6659 43.6325 36.6537 43.5742 36.6537 43.506C36.6537 43.4322 36.6678 43.3686 36.6959 43.3153C36.724 43.2619 36.7638 43.2209 36.8152 43.1924C36.8667 43.1633 36.9272 43.1488 36.9967 43.1488C37.0491 43.1488 37.0975 43.1583 37.1418 43.1774C37.1865 43.1959 37.2256 43.2245 37.259 43.2631C37.2923 43.3012 37.3183 43.3491 37.3368 43.4067C37.3554 43.4639 37.3647 43.5308 37.3647 43.6075ZM36.9989 43.2874C36.946 43.2874 36.9029 43.3053 36.8695 43.341C36.8362 43.3762 36.8195 43.4305 36.8195 43.5039C36.8195 43.5635 36.8338 43.6106 36.8624 43.6454C36.891 43.6802 36.9348 43.6976 36.9939 43.6976C37.0348 43.6976 37.0701 43.6892 37.0996 43.6725C37.1296 43.6554 37.1527 43.6337 37.1689 43.6075C37.1856 43.5813 37.1939 43.5546 37.1939 43.5275C37.1939 43.4994 37.1899 43.4713 37.1818 43.4432C37.1742 43.4151 37.1623 43.3893 37.1461 43.366C37.1299 43.3427 37.1094 43.3238 37.0846 43.3095C37.0603 43.2948 37.0317 43.2874 36.9989 43.2874ZM37.9123 43.5539C37.9795 43.5539 38.0385 43.5661 38.0895 43.5904C38.141 43.6142 38.181 43.6494 38.2096 43.6961C38.2381 43.7423 38.2524 43.799 38.2524 43.8662C38.2524 43.9395 38.2369 44.0029 38.206 44.0563C38.175 44.1091 38.1295 44.1499 38.0695 44.1784C38.0095 44.207 37.9364 44.2213 37.8501 44.2213C37.7954 44.2213 37.7441 44.2166 37.6965 44.207C37.6493 44.1975 37.6086 44.1832 37.5743 44.1642V44.0127C37.61 44.0327 37.6529 44.0491 37.7029 44.062C37.753 44.0744 37.8008 44.0806 37.8466 44.0806C37.8952 44.0806 37.9368 44.0734 37.9716 44.0591C38.0064 44.0448 38.0331 44.0229 38.0516 43.9934C38.0707 43.9638 38.0802 43.9264 38.0802 43.8812C38.0802 43.8212 38.0609 43.775 38.0223 43.7426C37.9842 43.7097 37.9244 43.6933 37.843 43.6933C37.8144 43.6933 37.7839 43.6959 37.7515 43.7011C37.7196 43.7059 37.6929 43.7111 37.6715 43.7168L37.5979 43.6733L37.6372 43.1623H38.1803V43.3103H37.7851L37.7622 43.5704C37.7794 43.5665 37.7999 43.563 37.8237 43.5596C37.8475 43.5558 37.877 43.5539 37.9123 43.5539ZM39.163 43.684C39.163 43.7683 39.1563 43.8438 39.143 43.9105C39.1301 43.9767 39.1097 44.0329 39.0816 44.0791C39.0534 44.1253 39.0168 44.1606 38.9715 44.1849C38.9263 44.2092 38.8715 44.2213 38.8072 44.2213C38.7267 44.2213 38.6602 44.2001 38.6078 44.1577C38.5554 44.1149 38.5166 44.0534 38.4913 43.9734C38.4661 43.8929 38.4535 43.7964 38.4535 43.684C38.4535 43.5716 38.4649 43.4753 38.4878 43.3953C38.5111 43.3148 38.5487 43.2531 38.6007 43.2102C38.6526 43.1673 38.7214 43.1459 38.8072 43.1459C38.8881 43.1459 38.9548 43.1673 39.0072 43.2102C39.0601 43.2526 39.0992 43.3141 39.1244 43.3946C39.1502 43.4746 39.163 43.5711 39.163 43.684ZM38.6228 43.684C38.6228 43.7721 38.6285 43.8457 38.64 43.9048C38.6519 43.9638 38.6714 44.0081 38.6986 44.0377C38.7257 44.0667 38.7619 44.0813 38.8072 44.0813C38.8524 44.0813 38.8886 44.0667 38.9158 44.0377C38.9429 44.0086 38.9625 43.9646 38.9744 43.9055C38.9868 43.8464 38.9929 43.7726 38.9929 43.684C38.9929 43.5963 38.987 43.523 38.9751 43.4639C38.9632 43.4048 38.9436 43.3605 38.9165 43.331C38.8893 43.301 38.8529 43.286 38.8072 43.286C38.7614 43.286 38.725 43.301 38.6978 43.331C38.6712 43.3605 38.6519 43.4048 38.64 43.4639C38.6285 43.523 38.6228 43.5963 38.6228 43.684Z" fill="#212121"/>
<path d="M45.2013 43.2344H45.0327V42.562C45.0327 42.5396 45.0329 42.5172 45.0334 42.4948C45.0339 42.4724 45.0343 42.4505 45.0348 42.4291C45.0358 42.4076 45.037 42.3871 45.0384 42.3676C45.0284 42.3786 45.016 42.3905 45.0012 42.4033C44.9869 42.4162 44.9717 42.4295 44.9555 42.4434L44.8355 42.5391L44.7511 42.4326L45.0613 42.1897H45.2013V43.2344ZM46.3134 42.7113C46.3134 42.7956 46.3067 42.8711 46.2934 42.9378C46.2805 43.004 46.2601 43.0603 46.2319 43.1065C46.2038 43.1527 46.1672 43.1879 46.1219 43.2122C46.0766 43.2365 46.0219 43.2487 45.9576 43.2487C45.877 43.2487 45.8106 43.2275 45.7582 43.1851C45.7058 43.1422 45.667 43.0807 45.6417 43.0007C45.6165 42.9202 45.6038 42.8237 45.6038 42.7113C45.6038 42.5989 45.6153 42.5027 45.6381 42.4226C45.6615 42.3421 45.6991 42.2804 45.751 42.2376C45.803 42.1947 45.8718 42.1733 45.9576 42.1733C46.0385 42.1733 46.1052 42.1947 46.1576 42.2376C46.2105 42.28 46.2496 42.3414 46.2748 42.4219C46.3005 42.502 46.3134 42.5984 46.3134 42.7113ZM45.7732 42.7113C45.7732 42.7994 45.7789 42.873 45.7903 42.9321C45.8023 42.9912 45.8218 43.0355 45.8489 43.065C45.8761 43.0941 45.9123 43.1086 45.9576 43.1086C46.0028 43.1086 46.039 43.0941 46.0662 43.065C46.0933 43.036 46.1129 42.9919 46.1248 42.9328C46.1371 42.8738 46.1433 42.7999 46.1433 42.7113C46.1433 42.6237 46.1374 42.5503 46.1255 42.4912C46.1136 42.4322 46.094 42.3879 46.0669 42.3583C46.0397 42.3283 46.0033 42.3133 45.9576 42.3133C45.9118 42.3133 45.8754 42.3283 45.8482 42.3583C45.8216 42.3879 45.8023 42.4322 45.7903 42.4912C45.7789 42.5503 45.7732 42.6237 45.7732 42.7113ZM47.2118 42.7113C47.2118 42.7956 47.2052 42.8711 47.1918 42.9378C47.179 43.004 47.1585 43.0603 47.1304 43.1065C47.1023 43.1527 47.0656 43.1879 47.0203 43.2122C46.9751 43.2365 46.9203 43.2487 46.856 43.2487C46.7755 43.2487 46.709 43.2275 46.6566 43.1851C46.6042 43.1422 46.5654 43.0807 46.5402 43.0007C46.5149 42.9202 46.5023 42.8237 46.5023 42.7113C46.5023 42.5989 46.5137 42.5027 46.5366 42.4226C46.5599 42.3421 46.5976 42.2804 46.6495 42.2376C46.7014 42.1947 46.7702 42.1733 46.856 42.1733C46.937 42.1733 47.0037 42.1947 47.0561 42.2376C47.1089 42.28 47.148 42.3414 47.1733 42.4219C47.199 42.502 47.2118 42.5984 47.2118 42.7113ZM46.6716 42.7113C46.6716 42.7994 46.6774 42.873 46.6888 42.9321C46.7007 42.9912 46.7202 43.0355 46.7474 43.065C46.7745 43.0941 46.8107 43.1086 46.856 43.1086C46.9012 43.1086 46.9375 43.0941 46.9646 43.065C46.9918 43.036 47.0113 42.9919 47.0232 42.9328C47.0356 42.8738 47.0418 42.7999 47.0418 42.7113C47.0418 42.6237 47.0358 42.5503 47.0239 42.4912C47.012 42.4322 46.9925 42.3879 46.9653 42.3583C46.9382 42.3283 46.9017 42.3133 46.856 42.3133C46.8103 42.3133 46.7738 42.3283 46.7467 42.3583C46.72 42.3879 46.7007 42.4322 46.6888 42.4912C46.6774 42.5503 46.6716 42.6237 46.6716 42.7113Z" fill="#212121"/>
<path d="M53.1115 50.1399C53.1787 50.1399 53.2378 50.152 53.2887 50.1763C53.3402 50.2001 53.3802 50.2354 53.4088 50.2821C53.4374 50.3283 53.4516 50.385 53.4516 50.4521C53.4516 50.5255 53.4362 50.5888 53.4052 50.6422C53.3742 50.6951 53.3287 50.7358 53.2687 50.7644C53.2087 50.793 53.1356 50.8073 53.0494 50.8073C52.9946 50.8073 52.9434 50.8025 52.8957 50.793C52.8486 50.7834 52.8078 50.7692 52.7735 50.7501V50.5986C52.8093 50.6186 52.8521 50.6351 52.9022 50.6479C52.9522 50.6603 53 50.6665 53.0458 50.6665C53.0944 50.6665 53.1361 50.6593 53.1708 50.6451C53.2056 50.6308 53.2323 50.6089 53.2509 50.5793C53.2699 50.5498 53.2794 50.5124 53.2794 50.4671C53.2794 50.4071 53.2601 50.3609 53.2216 50.3285C53.1835 50.2956 53.1237 50.2792 53.0422 50.2792C53.0136 50.2792 52.9831 50.2818 52.9507 50.2871C52.9188 50.2918 52.8921 50.2971 52.8707 50.3028L52.7971 50.2592L52.8364 49.7483H53.3795V49.8962H52.9843L52.9615 50.1563C52.9786 50.1525 52.9991 50.1489 53.0229 50.1456C53.0467 50.1418 53.0763 50.1399 53.1115 50.1399ZM54.3622 50.2699C54.3622 50.3542 54.3556 50.4297 54.3422 50.4964C54.3294 50.5626 54.3089 50.6189 54.2808 50.6651C54.2527 50.7113 54.216 50.7465 54.1707 50.7708C54.1255 50.7951 54.0707 50.8073 54.0064 50.8073C53.9259 50.8073 53.8594 50.7861 53.807 50.7437C53.7546 50.7008 53.7158 50.6393 53.6905 50.5593C53.6653 50.4788 53.6527 50.3823 53.6527 50.2699C53.6527 50.1575 53.6641 50.0613 53.687 49.9812C53.7103 49.9007 53.748 49.839 53.7999 49.7962C53.8518 49.7533 53.9206 49.7319 54.0064 49.7319C54.0874 49.7319 54.1541 49.7533 54.2065 49.7962C54.2593 49.8386 54.2984 49.9 54.3236 49.9805C54.3494 50.0605 54.3622 50.157 54.3622 50.2699ZM53.822 50.2699C53.822 50.358 53.8277 50.4316 53.8392 50.4907C53.8511 50.5498 53.8706 50.5941 53.8978 50.6236C53.9249 50.6527 53.9611 50.6672 54.0064 50.6672C54.0516 50.6672 54.0878 50.6527 54.115 50.6236C54.1421 50.5946 54.1617 50.5505 54.1736 50.4914C54.186 50.4324 54.1922 50.3585 54.1922 50.2699C54.1922 50.1823 54.1862 50.1089 54.1743 50.0498C54.1624 49.9908 54.1429 49.9465 54.1157 49.9169C54.0886 49.8869 54.0521 49.8719 54.0064 49.8719C53.9607 49.8719 53.9242 49.8869 53.8971 49.9169C53.8704 49.9465 53.8511 49.9908 53.8392 50.0498C53.8277 50.1089 53.822 50.1823 53.822 50.2699ZM55.2607 50.793H54.5533V50.6665L54.8241 50.3921C54.8765 50.3387 54.9196 50.2928 54.9534 50.2542C54.9872 50.2151 55.0122 50.1782 55.0284 50.1434C55.0451 50.1087 55.0534 50.0708 55.0534 50.0298C55.0534 49.9793 55.0389 49.9412 55.0099 49.9155C54.9808 49.8893 54.9425 49.8762 54.8948 49.8762C54.8496 49.8762 54.8076 49.8852 54.7691 49.9033C54.7309 49.921 54.6914 49.9462 54.6504 49.9791L54.5583 49.8683C54.5873 49.8436 54.6183 49.8209 54.6512 49.8004C54.6845 49.78 54.7217 49.7638 54.7626 49.7519C54.8036 49.7395 54.8503 49.7333 54.9027 49.7333C54.9689 49.7333 55.0261 49.7452 55.0742 49.769C55.1223 49.7923 55.1592 49.825 55.1849 49.8669C55.2111 49.9088 55.2242 49.9577 55.2242 50.0134C55.2242 50.0696 55.213 50.1215 55.1906 50.1692C55.1683 50.2168 55.1363 50.264 55.0949 50.3106C55.0534 50.3569 55.0041 50.4071 54.947 50.4614L54.7662 50.6379V50.6458H55.2607V50.793Z" fill="#212121"/>
<path d="M61.5505 51.0519H61.409V51.2812H61.2432V51.0519H60.7681V50.9247L61.2454 50.2337H61.409V50.9125H61.5505V51.0519ZM61.2432 50.9125V50.6532C61.2432 50.6317 61.2435 50.61 61.244 50.5881C61.2449 50.5657 61.2459 50.5443 61.2468 50.5238C61.2478 50.5033 61.2487 50.4845 61.2497 50.4674C61.2506 50.4497 61.2513 50.4352 61.2518 50.4238H61.2461C61.237 50.4428 61.227 50.4624 61.2161 50.4824C61.2051 50.5019 61.1935 50.521 61.1811 50.5395L60.9238 50.9125H61.2432ZM61.7051 50.8361C61.7051 50.7746 61.7094 50.7141 61.7179 50.6546C61.727 50.595 61.7422 50.5393 61.7637 50.4874C61.7851 50.4355 61.8146 50.3897 61.8523 50.3502C61.8904 50.3106 61.9383 50.2797 61.9959 50.2573C62.0535 50.2344 62.1229 50.223 62.2038 50.223C62.2248 50.223 62.2484 50.2239 62.2746 50.2258C62.3008 50.2278 62.3225 50.2308 62.3396 50.2351V50.3745C62.321 50.3692 62.3005 50.3652 62.2782 50.3623C62.2562 50.3595 62.2343 50.358 62.2124 50.358C62.1248 50.358 62.0564 50.3747 62.0073 50.4081C61.9583 50.4409 61.9233 50.4862 61.9023 50.5438C61.8813 50.601 61.8692 50.6665 61.8659 50.7403H61.8744C61.8887 50.7165 61.9066 50.6953 61.928 50.6767C61.9495 50.6582 61.9757 50.6434 62.0066 50.6324C62.0376 50.621 62.0736 50.6153 62.1145 50.6153C62.1755 50.6153 62.2286 50.6281 62.2739 50.6539C62.3191 50.6791 62.3539 50.7158 62.3782 50.7639C62.403 50.812 62.4153 50.8704 62.4153 50.939C62.4153 51.0128 62.4013 51.0764 62.3732 51.1298C62.3456 51.1831 62.306 51.2241 62.2546 51.2527C62.2036 51.2812 62.1429 51.2955 62.0724 51.2955C62.0204 51.2955 61.9721 51.286 61.9273 51.267C61.883 51.2479 61.8442 51.2193 61.8108 51.1812C61.7775 51.1431 61.7515 51.0955 61.7329 51.0383C61.7144 50.9807 61.7051 50.9133 61.7051 50.8361ZM62.0695 51.1569C62.1238 51.1569 62.1674 51.1393 62.2003 51.104C62.2336 51.0683 62.2503 51.0138 62.2503 50.9404C62.2503 50.8809 62.2355 50.8337 62.206 50.7989C62.1769 50.7641 62.1331 50.7468 62.0745 50.7468C62.0345 50.7468 61.9995 50.7553 61.9695 50.7725C61.9395 50.7896 61.9161 50.8113 61.8994 50.8375C61.8832 50.8637 61.8751 50.8904 61.8751 50.9175C61.8751 50.9452 61.8792 50.973 61.8873 51.0011C61.8954 51.0292 61.9075 51.0552 61.9237 51.079C61.9399 51.1024 61.9602 51.1212 61.9845 51.1355C62.0088 51.1498 62.0371 51.1569 62.0695 51.1569ZM63.3081 50.6817C63.3081 50.7437 63.3035 50.8044 63.2945 50.8639C63.2859 50.9235 63.2707 50.9792 63.2488 51.0312C63.2273 51.0831 63.1976 51.129 63.1594 51.1691C63.1218 51.2086 63.0742 51.2396 63.0165 51.262C62.9589 51.2843 62.8893 51.2955 62.8079 51.2955C62.7874 51.2955 62.7636 51.2944 62.7364 51.292C62.7097 51.2901 62.6878 51.2872 62.6707 51.2834V51.1433C62.6888 51.1486 62.709 51.1529 62.7314 51.1562C62.7543 51.1591 62.7769 51.1605 62.7993 51.1605C62.8874 51.1605 62.956 51.1441 63.0051 51.1112C63.0546 51.0783 63.0897 51.0331 63.1101 50.9754C63.1311 50.9178 63.143 50.8523 63.1459 50.7789H63.1373C63.1235 50.8018 63.1061 50.8227 63.0851 50.8418C63.0642 50.8604 63.0382 50.8754 63.0072 50.8868C62.9763 50.8978 62.9386 50.9032 62.8943 50.9032C62.8343 50.9032 62.7819 50.8906 62.7371 50.8654C62.6928 50.8401 62.6583 50.8034 62.6335 50.7553C62.6092 50.7067 62.5971 50.6484 62.5971 50.5803C62.5971 50.5064 62.6111 50.4428 62.6392 50.3895C62.6673 50.3361 62.7071 50.2952 62.7586 50.2666C62.81 50.2375 62.8705 50.223 62.9401 50.223C62.9925 50.223 63.0408 50.2325 63.0851 50.2516C63.1299 50.2702 63.169 50.2987 63.2023 50.3373C63.2357 50.3754 63.2616 50.4233 63.2802 50.4809C63.2988 50.5381 63.3081 50.605 63.3081 50.6817ZM62.9422 50.3616C62.8893 50.3616 62.8462 50.3795 62.8129 50.4152C62.7795 50.4505 62.7629 50.5048 62.7629 50.5781C62.7629 50.6377 62.7772 50.6848 62.8057 50.7196C62.8343 50.7544 62.8781 50.7718 62.9372 50.7718C62.9782 50.7718 63.0134 50.7634 63.043 50.7468C63.073 50.7296 63.0961 50.7079 63.1123 50.6817C63.129 50.6555 63.1373 50.6289 63.1373 50.6017C63.1373 50.5736 63.1332 50.5455 63.1251 50.5174C63.1175 50.4893 63.1056 50.4636 63.0894 50.4402C63.0732 50.4169 63.0527 50.3981 63.028 50.3838C63.0037 50.369 62.9751 50.3616 62.9422 50.3616Z" fill="#212121"/>
<path d="M69.5993 49.8331H69.4578V50.0625H69.2921V49.8331H68.8169V49.7059L69.2942 49.015H69.4578V49.6938H69.5993V49.8331ZM69.2921 49.6938V49.4344C69.2921 49.413 69.2923 49.3913 69.2928 49.3694C69.2937 49.347 69.2947 49.3256 69.2956 49.3051C69.2966 49.2846 69.2975 49.2658 69.2985 49.2486C69.2994 49.231 69.3002 49.2165 69.3006 49.205H69.2949C69.2859 49.2241 69.2759 49.2436 69.2649 49.2636C69.254 49.2832 69.2423 49.3022 69.2299 49.3208L68.9727 49.6938H69.2921ZM70.1048 49.0035C70.1653 49.0035 70.2198 49.0131 70.2684 49.0321C70.317 49.0507 70.3556 49.0786 70.3841 49.1157C70.4127 49.1529 70.427 49.1988 70.427 49.2536C70.427 49.296 70.4182 49.3329 70.4006 49.3644C70.3834 49.3958 70.3601 49.4234 70.3306 49.4473C70.301 49.4706 70.2679 49.4913 70.2312 49.5094C70.2722 49.5294 70.3098 49.5525 70.3441 49.5787C70.3789 49.6045 70.4068 49.6347 70.4277 49.6695C70.4492 49.7043 70.4599 49.745 70.4599 49.7917C70.4599 49.8503 70.4449 49.901 70.4149 49.9439C70.3853 49.9863 70.3441 50.0192 70.2913 50.0425C70.2384 50.0654 70.1767 50.0768 70.1062 50.0768C70.0304 50.0768 69.9659 50.0656 69.9125 50.0432C69.8592 50.0208 69.8187 49.9889 69.7911 49.9475C69.7634 49.9055 69.7496 49.8555 69.7496 49.7974C69.7496 49.7493 69.7591 49.7076 69.7782 49.6724C69.7973 49.6371 69.8227 49.6066 69.8547 49.5809C69.8871 49.5552 69.9225 49.5335 69.9611 49.5159C69.9283 49.4963 69.8982 49.4744 69.8711 49.4501C69.8439 49.4254 69.8223 49.397 69.8061 49.3651C69.7903 49.3327 69.7825 49.2953 69.7825 49.2529C69.7825 49.1986 69.797 49.1531 69.8261 49.1164C69.8551 49.0793 69.894 49.0512 69.9425 49.0321C69.9916 49.0131 70.0457 49.0035 70.1048 49.0035ZM69.9097 49.791C69.9097 49.8367 69.9259 49.8743 69.9583 49.9039C69.9907 49.9334 70.039 49.9482 70.1033 49.9482C70.1672 49.9482 70.2157 49.9336 70.2491 49.9046C70.2824 49.8755 70.2991 49.8372 70.2991 49.7895C70.2991 49.7591 70.2905 49.7321 70.2734 49.7088C70.2567 49.6855 70.2341 49.6647 70.2055 49.6466C70.1774 49.628 70.1462 49.6109 70.1119 49.5952L70.089 49.5859C70.0519 49.6016 70.02 49.6195 69.9933 49.6395C69.9666 49.659 69.9459 49.6812 69.9311 49.7059C69.9168 49.7307 69.9097 49.7591 69.9097 49.791ZM70.1033 49.1329C70.0571 49.1329 70.019 49.1443 69.989 49.1672C69.9595 49.1895 69.9447 49.2219 69.9447 49.2643C69.9447 49.2944 69.9518 49.3201 69.9661 49.3415C69.9809 49.3629 70.0007 49.3815 70.0254 49.3972C70.0502 49.4125 70.0776 49.4268 70.1076 49.4401C70.1367 49.4273 70.1629 49.4132 70.1862 49.398C70.21 49.3822 70.2288 49.3637 70.2427 49.3422C70.257 49.3203 70.2641 49.2941 70.2641 49.2636C70.2641 49.2217 70.2491 49.1895 70.2191 49.1672C70.1895 49.1443 70.151 49.1329 70.1033 49.1329ZM71.3569 49.463C71.3569 49.5249 71.3524 49.5857 71.3433 49.6452C71.3347 49.7047 71.3195 49.7605 71.2976 49.8124C71.2762 49.8643 71.2464 49.9103 71.2083 49.9503C71.1706 49.9899 71.123 50.0208 71.0654 50.0432C71.0077 50.0656 70.9382 50.0768 70.8567 50.0768C70.8362 50.0768 70.8124 50.0756 70.7853 50.0732C70.7586 50.0713 70.7367 50.0685 70.7195 50.0646V49.9246C70.7376 49.9298 70.7579 49.9341 70.7802 49.9375C70.8031 49.9403 70.8257 49.9417 70.8481 49.9417C70.9363 49.9417 71.0049 49.9253 71.0539 49.8924C71.1035 49.8596 71.1385 49.8143 71.159 49.7567C71.1799 49.699 71.1918 49.6335 71.1947 49.5602H71.1861C71.1723 49.583 71.1549 49.604 71.134 49.623C71.113 49.6416 71.087 49.6566 71.0561 49.6681C71.0251 49.679 70.9875 49.6845 70.9432 49.6845C70.8831 49.6845 70.8307 49.6719 70.786 49.6466C70.7417 49.6214 70.7071 49.5847 70.6824 49.5366C70.6581 49.488 70.6459 49.4296 70.6459 49.3615C70.6459 49.2877 70.66 49.2241 70.6881 49.1707C70.7162 49.1174 70.756 49.0764 70.8074 49.0478C70.8589 49.0188 70.9194 49.0042 70.9889 49.0042C71.0413 49.0042 71.0897 49.0138 71.134 49.0328C71.1787 49.0514 71.2178 49.08 71.2511 49.1186C71.2845 49.1567 71.3105 49.2046 71.329 49.2622C71.3476 49.3194 71.3569 49.3863 71.3569 49.463ZM70.991 49.1429C70.9382 49.1429 70.8951 49.1607 70.8617 49.1965C70.8284 49.2317 70.8117 49.286 70.8117 49.3594C70.8117 49.4189 70.826 49.4661 70.8546 49.5009C70.8831 49.5356 70.927 49.553 70.986 49.553C71.027 49.553 71.0623 49.5447 71.0918 49.528C71.1218 49.5109 71.1449 49.4892 71.1611 49.463C71.1778 49.4368 71.1861 49.4101 71.1861 49.383C71.1861 49.3548 71.1821 49.3267 71.174 49.2986C71.1663 49.2705 71.1544 49.2448 71.1382 49.2215C71.122 49.1981 71.1016 49.1793 71.0768 49.165C71.0525 49.1502 71.0239 49.1429 70.991 49.1429Z" fill="#212121"/>
<path d="M77.3966 56.6484H77.228V55.976C77.228 55.9536 77.2282 55.9313 77.2287 55.9089C77.2292 55.8865 77.2297 55.8646 77.2301 55.8431C77.2311 55.8217 77.2323 55.8012 77.2337 55.7817C77.2237 55.7926 77.2113 55.8045 77.1966 55.8174C77.1823 55.8303 77.167 55.8436 77.1508 55.8574L77.0308 55.9532L76.9465 55.8467L77.2566 55.6038H77.3966V56.6484ZM78.1536 55.5895C78.2141 55.5895 78.2686 55.599 78.3172 55.618C78.3658 55.6366 78.4044 55.6645 78.433 55.7016C78.4616 55.7388 78.4758 55.7848 78.4758 55.8396C78.4758 55.882 78.467 55.9189 78.4494 55.9503C78.4323 55.9818 78.4089 56.0094 78.3794 56.0332C78.3498 56.0565 78.3167 56.0773 78.2801 56.0954C78.321 56.1154 78.3587 56.1385 78.393 56.1647C78.4277 56.1904 78.4556 56.2207 78.4766 56.2554C78.498 56.2902 78.5087 56.3309 78.5087 56.3776C78.5087 56.4362 78.4937 56.4869 78.4637 56.5298C78.4342 56.5722 78.393 56.6051 78.3401 56.6284C78.2872 56.6513 78.2255 56.6627 78.155 56.6627C78.0793 56.6627 78.0147 56.6515 77.9614 56.6291C77.908 56.6068 77.8675 56.5748 77.8399 56.5334C77.8123 56.4915 77.7984 56.4415 77.7984 56.3833C77.7984 56.3352 77.808 56.2935 77.827 56.2583C77.8461 56.223 77.8716 56.1925 77.9035 56.1668C77.9359 56.1411 77.9714 56.1194 78.01 56.1018C77.9771 56.0823 77.9471 56.0604 77.9199 56.0361C77.8928 56.0113 77.8711 55.9829 77.8549 55.951C77.8392 55.9186 77.8313 55.8812 77.8313 55.8388C77.8313 55.7845 77.8458 55.739 77.8749 55.7024C77.904 55.6652 77.9428 55.6371 77.9914 55.618C78.0404 55.599 78.0945 55.5895 78.1536 55.5895ZM77.9585 56.3769C77.9585 56.4226 77.9747 56.4603 78.0071 56.4898C78.0395 56.5193 78.0878 56.5341 78.1522 56.5341C78.216 56.5341 78.2646 56.5196 78.2979 56.4905C78.3313 56.4615 78.3479 56.4231 78.3479 56.3755C78.3479 56.345 78.3394 56.3181 78.3222 56.2947C78.3055 56.2714 78.2829 56.2507 78.2543 56.2326C78.2262 56.214 78.195 56.1968 78.1607 56.1811L78.1379 56.1718C78.1007 56.1875 78.0688 56.2054 78.0421 56.2254C78.0154 56.245 77.9947 56.2671 77.9799 56.2919C77.9657 56.3166 77.9585 56.345 77.9585 56.3769ZM78.1522 55.7188C78.1059 55.7188 78.0678 55.7302 78.0378 55.7531C78.0083 55.7755 77.9935 55.8079 77.9935 55.8503C77.9935 55.8803 78.0007 55.906 78.015 55.9274C78.0297 55.9489 78.0495 55.9675 78.0743 55.9832C78.099 55.9984 78.1264 56.0127 78.1564 56.0261C78.1855 56.0132 78.2117 55.9991 78.235 55.9839C78.2589 55.9682 78.2777 55.9496 78.2915 55.9282C78.3058 55.9062 78.3129 55.88 78.3129 55.8496C78.3129 55.8076 78.2979 55.7755 78.2679 55.7531C78.2384 55.7302 78.1998 55.7188 78.1522 55.7188ZM79.4072 56.1254C79.4072 56.2097 79.4005 56.2852 79.3871 56.3519C79.3743 56.4181 79.3538 56.4743 79.3257 56.5205C79.2976 56.5667 79.2609 56.602 79.2157 56.6263C79.1704 56.6506 79.1156 56.6627 79.0513 56.6627C78.9708 56.6627 78.9043 56.6415 78.8519 56.5991C78.7995 56.5563 78.7607 56.4948 78.7355 56.4148C78.7102 56.3343 78.6976 56.2378 78.6976 56.1254C78.6976 56.013 78.709 55.9167 78.7319 55.8367C78.7552 55.7562 78.7929 55.6945 78.8448 55.6516C78.8967 55.6088 78.9656 55.5873 79.0513 55.5873C79.1323 55.5873 79.199 55.6088 79.2514 55.6516C79.3043 55.694 79.3433 55.7555 79.3686 55.836C79.3943 55.916 79.4072 56.0125 79.4072 56.1254ZM78.8669 56.1254C78.8669 56.2135 78.8727 56.2871 78.8841 56.3462C78.896 56.4052 78.9155 56.4496 78.9427 56.4791C78.9698 56.5081 79.006 56.5227 79.0513 56.5227C79.0966 56.5227 79.1328 56.5081 79.1599 56.4791C79.1871 56.45 79.2066 56.406 79.2185 56.3469C79.2309 56.2878 79.2371 56.214 79.2371 56.1254C79.2371 56.0377 79.2311 55.9644 79.2192 55.9053C79.2073 55.8462 79.1878 55.8019 79.1606 55.7724C79.1335 55.7424 79.097 55.7274 79.0513 55.7274C79.0056 55.7274 78.9691 55.7424 78.942 55.7724C78.9153 55.8019 78.896 55.8462 78.8841 55.9053C78.8727 55.9644 78.8669 56.0377 78.8669 56.1254Z" fill="#212121"/>
<defs>
<filter id="filter0_d_7800_42556" x="25.1699" y="44.5232" width="9.02353" height="7.03135" filterUnits="userSpaceOnUse" color-interpolation-filters="sRGB">
<feFlood flood-opacity="0" result="BackgroundImageFix"/>
<feColorMatrix in="SourceAlpha" type="matrix" values="0 0 0 0 0 0 0 0 0 0 0 0 0 0 0 0 0 0 127 0" result="hardAlpha"/>
<feOffset dy="0.243902"/>
<feGaussianBlur stdDeviation="0.97561"/>
<feColorMatrix type="matrix" values="0 0 0 0 0.293333 0 0 0 0 0.333211 0 0 0 0 0.431373 0 0 0 0.2 0"/>
<feBlend mode="normal" in2="BackgroundImageFix" result="effect1_dropShadow_7800_42556"/>
<feBlend mode="normal" in="SourceGraphic" in2="effect1_dropShadow_7800_42556" result="shape"/>
</filter>
<filter id="filter1_d_7800_42556" x="33.2187" y="40.3825" width="9.02549" height="7.03135" filterUnits="userSpaceOnUse" color-interpolation-filters="sRGB">
<feFlood flood-opacity="0" result="BackgroundImageFix"/>
<feColorMatrix in="SourceAlpha" type="matrix" values="0 0 0 0 0 0 0 0 0 0 0 0 0 0 0 0 0 0 127 0" result="hardAlpha"/>
<feOffset dy="0.243902"/>
<feGaussianBlur stdDeviation="0.97561"/>
<feColorMatrix type="matrix" values="0 0 0 0 0.293333 0 0 0 0 0.333211 0 0 0 0 0.431373 0 0 0 0.2 0"/>
<feBlend mode="normal" in2="BackgroundImageFix" result="effect1_dropShadow_7800_42556"/>
<feBlend mode="normal" in="SourceGraphic" in2="effect1_dropShadow_7800_42556" result="shape"/>
</filter>
<filter id="filter2_d_7800_42556" x="41.2675" y="39.4021" width="9.02353" height="7.03135" filterUnits="userSpaceOnUse" color-interpolation-filters="sRGB">
<feFlood flood-opacity="0" result="BackgroundImageFix"/>
<feColorMatrix in="SourceAlpha" type="matrix" values="0 0 0 0 0 0 0 0 0 0 0 0 0 0 0 0 0 0 127 0" result="hardAlpha"/>
<feOffset dy="0.243902"/>
<feGaussianBlur stdDeviation="0.97561"/>
<feColorMatrix type="matrix" values="0 0 0 0 0.293333 0 0 0 0 0.333211 0 0 0 0 0.431373 0 0 0 0.2 0"/>
<feBlend mode="normal" in2="BackgroundImageFix" result="effect1_dropShadow_7800_42556"/>
<feBlend mode="normal" in="SourceGraphic" in2="effect1_dropShadow_7800_42556" result="shape"/>
</filter>
<filter id="filter3_d_7800_42556" x="49.3164" y="46.9646" width="9.02549" height="7.03135" filterUnits="userSpaceOnUse" color-interpolation-filters="sRGB">
<feFlood flood-opacity="0" result="BackgroundImageFix"/>
<feColorMatrix in="SourceAlpha" type="matrix" values="0 0 0 0 0 0 0 0 0 0 0 0 0 0 0 0 0 0 127 0" result="hardAlpha"/>
<feOffset dy="0.243902"/>
<feGaussianBlur stdDeviation="0.97561"/>
<feColorMatrix type="matrix" values="0 0 0 0 0.293333 0 0 0 0 0.333211 0 0 0 0 0.431373 0 0 0 0.2 0"/>
<feBlend mode="normal" in2="BackgroundImageFix" result="effect1_dropShadow_7800_42556"/>
<feBlend mode="normal" in="SourceGraphic" in2="effect1_dropShadow_7800_42556" result="shape"/>
</filter>
<filter id="filter4_d_7800_42556" x="57.3652" y="47.4528" width="9.02353" height="7.03135" filterUnits="userSpaceOnUse" color-interpolation-filters="sRGB">
<feFlood flood-opacity="0" result="BackgroundImageFix"/>
<feColorMatrix in="SourceAlpha" type="matrix" values="0 0 0 0 0 0 0 0 0 0 0 0 0 0 0 0 0 0 127 0" result="hardAlpha"/>
<feOffset dy="0.243902"/>
<feGaussianBlur stdDeviation="0.97561"/>
<feColorMatrix type="matrix" values="0 0 0 0 0.293333 0 0 0 0 0.333211 0 0 0 0 0.431373 0 0 0 0.2 0"/>
<feBlend mode="normal" in2="BackgroundImageFix" result="effect1_dropShadow_7800_42556"/>
<feBlend mode="normal" in="SourceGraphic" in2="effect1_dropShadow_7800_42556" result="shape"/>
</filter>
<filter id="filter5_d_7800_42556" x="65.414" y="46.2341" width="9.02549" height="7.03135" filterUnits="userSpaceOnUse" color-interpolation-filters="sRGB">
<feFlood flood-opacity="0" result="BackgroundImageFix"/>
<feColorMatrix in="SourceAlpha" type="matrix" values="0 0 0 0 0 0 0 0 0 0 0 0 0 0 0 0 0 0 127 0" result="hardAlpha"/>
<feOffset dy="0.243902"/>
<feGaussianBlur stdDeviation="0.97561"/>
<feColorMatrix type="matrix" values="0 0 0 0 0.293333 0 0 0 0 0.333211 0 0 0 0 0.431373 0 0 0 0.2 0"/>
<feBlend mode="normal" in2="BackgroundImageFix" result="effect1_dropShadow_7800_42556"/>
<feBlend mode="normal" in="SourceGraphic" in2="effect1_dropShadow_7800_42556" result="shape"/>
</filter>
<filter id="filter6_d_7800_42556" x="73.4609" y="52.8161" width="9.02549" height="7.03135" filterUnits="userSpaceOnUse" color-interpolation-filters="sRGB">
<feFlood flood-opacity="0" result="BackgroundImageFix"/>
<feColorMatrix in="SourceAlpha" type="matrix" values="0 0 0 0 0 0 0 0 0 0 0 0 0 0 0 0 0 0 127 0" result="hardAlpha"/>
<feOffset dy="0.243902"/>
<feGaussianBlur stdDeviation="0.97561"/>
<feColorMatrix type="matrix" values="0 0 0 0 0.293333 0 0 0 0 0.333211 0 0 0 0 0.431373 0 0 0 0.2 0"/>
<feBlend mode="normal" in2="BackgroundImageFix" result="effect1_dropShadow_7800_42556"/>
<feBlend mode="normal" in="SourceGraphic" in2="effect1_dropShadow_7800_42556" result="shape"/>
</filter>
<linearGradient id="paint0_linear_7800_42556" x1="50.0393" y1="40.6289" x2="50.0393" y2="68.8061" gradientUnits="userSpaceOnUse">
<stop stop-color="#AFE8FF"/>
<stop offset="0.932292" stop-color="#AFE8FF" stop-opacity="0.1"/>
</linearGradient>
</defs>
</svg>
