<svg width="93" height="92" viewBox="0 0 93 92" fill="none" xmlns="http://www.w3.org/2000/svg">
<rect x="1.24921" y="0.389831" width="91.079" height="91.2203" rx="17.5424" stroke="#BEBEBE" stroke-width="0.779661"/>
<rect width="70" height="60.7317" transform="translate(11.4883 16)" fill="white"/>
<path d="M29.171 68.9247C29.171 68.9921 29.2256 69.0467 29.293 69.0467C29.3603 69.0467 29.4149 68.9921 29.4149 68.9247H29.171ZM29.293 21.8516H29.171V22.0967H29.293H29.4149V21.8516H29.293ZM29.293 22.5871H29.171V23.0774H29.293H29.4149V22.5871H29.293ZM29.293 23.5678H29.171V24.0581H29.293H29.4149V23.5678H29.293ZM29.293 24.5485H29.171V25.0388H29.293H29.4149V24.5485H29.293ZM29.293 25.5292H29.171V26.0195H29.293H29.4149V25.5292H29.293ZM29.293 26.5098H29.171V27.0002H29.293H29.4149V26.5098H29.293ZM29.293 27.4905H29.171V27.9809H29.293H29.4149V27.4905H29.293ZM29.293 28.4712H29.171V28.9616H29.293H29.4149V28.4712H29.293ZM29.293 29.4519H29.171V29.9423H29.293H29.4149V29.4519H29.293ZM29.293 30.4326H29.171V30.923H29.293H29.4149V30.4326H29.293ZM29.293 31.4133H29.171V31.9036H29.293H29.4149V31.4133H29.293ZM29.293 32.394H29.171V32.8843H29.293H29.4149V32.394H29.293ZM29.293 33.3747H29.171V33.865H29.293H29.4149V33.3747H29.293ZM29.293 34.3554H29.171V34.8457H29.293H29.4149V34.3554H29.293ZM29.293 35.3361H29.171V35.8264H29.293H29.4149V35.3361H29.293ZM29.293 36.3168H29.171V36.8071H29.293H29.4149V36.3168H29.293ZM29.293 37.2975H29.171V37.7878H29.293H29.4149V37.2975H29.293ZM29.293 38.2781H29.171V38.7685H29.293H29.4149V38.2781H29.293ZM29.293 39.2588H29.171V39.7492H29.293H29.4149V39.2588H29.293ZM29.293 40.2395H29.171V40.7299H29.293H29.4149V40.2395H29.293ZM29.293 41.2202H29.171V41.7106H29.293H29.4149V41.2202H29.293ZM29.293 42.2009H29.171V42.6912H29.293H29.4149V42.2009H29.293ZM29.293 43.1816H29.171V43.6719H29.293H29.4149V43.1816H29.293ZM29.293 44.1623H29.171V44.6526H29.293H29.4149V44.1623H29.293ZM29.293 45.143H29.171V45.6333H29.293H29.4149V45.143H29.293ZM29.293 46.1237H29.171V46.614H29.293H29.4149V46.1237H29.293ZM29.293 47.1044H29.171V47.5947H29.293H29.4149V47.1044H29.293ZM29.293 48.085H29.171V48.5754H29.293H29.4149V48.085H29.293ZM29.293 49.0657H29.171V49.5561H29.293H29.4149V49.0657H29.293ZM29.293 50.0464H29.171V50.5368H29.293H29.4149V50.0464H29.293ZM29.293 51.0271H29.171V51.5175H29.293H29.4149V51.0271H29.293ZM29.293 52.0078H29.171V52.4981H29.293H29.4149V52.0078H29.293ZM29.293 52.9885H29.171V53.4788H29.293H29.4149V52.9885H29.293ZM29.293 53.9692H29.171V54.4595H29.293H29.4149V53.9692H29.293ZM29.293 54.9499H29.171V55.4402H29.293H29.4149V54.9499H29.293ZM29.293 55.9306H29.171V56.4209H29.293H29.4149V55.9306H29.293ZM29.293 56.9113H29.171V57.4016H29.293H29.4149V56.9113H29.293ZM29.293 57.8919H29.171V58.3823H29.293H29.4149V57.8919H29.293ZM29.293 58.8726H29.171V59.363H29.293H29.4149V58.8726H29.293ZM29.293 59.8533H29.171V60.3437H29.293H29.4149V59.8533H29.293ZM29.293 60.834H29.171V61.3244H29.293H29.4149V60.834H29.293ZM29.293 61.8147H29.171V62.305H29.293H29.4149V61.8147H29.293ZM29.293 62.7954H29.171V63.2857H29.293H29.4149V62.7954H29.293ZM29.293 63.7761H29.171V64.2664H29.293H29.4149V63.7761H29.293ZM29.293 64.7568H29.171V65.2471H29.293H29.4149V64.7568H29.293ZM29.293 65.7375H29.171V66.2278H29.293H29.4149V65.7375H29.293ZM29.293 66.7182H29.171V67.2085H29.293H29.4149V66.7182H29.293ZM29.293 67.6988H29.171V68.1892H29.293H29.4149V67.6988H29.293ZM29.293 68.6795H29.171V68.9247H29.293H29.4149V68.6795H29.293Z" fill="#E0E0E0"/>
<path d="M37.2198 68.9247C37.2198 68.9921 37.2744 69.0467 37.3418 69.0467C37.4091 69.0467 37.4637 68.9921 37.4637 68.9247H37.2198ZM37.3418 21.8516H37.2198V22.0967H37.3418H37.4637V21.8516H37.3418ZM37.3418 22.5871H37.2198V23.0774H37.3418H37.4637V22.5871H37.3418ZM37.3418 23.5678H37.2198V24.0581H37.3418H37.4637V23.5678H37.3418ZM37.3418 24.5485H37.2198V25.0388H37.3418H37.4637V24.5485H37.3418ZM37.3418 25.5292H37.2198V26.0195H37.3418H37.4637V25.5292H37.3418ZM37.3418 26.5098H37.2198V27.0002H37.3418H37.4637V26.5098H37.3418ZM37.3418 27.4905H37.2198V27.9809H37.3418H37.4637V27.4905H37.3418ZM37.3418 28.4712H37.2198V28.9616H37.3418H37.4637V28.4712H37.3418ZM37.3418 29.4519H37.2198V29.9423H37.3418H37.4637V29.4519H37.3418ZM37.3418 30.4326H37.2198V30.923H37.3418H37.4637V30.4326H37.3418ZM37.3418 31.4133H37.2198V31.9036H37.3418H37.4637V31.4133H37.3418ZM37.3418 32.394H37.2198V32.8843H37.3418H37.4637V32.394H37.3418ZM37.3418 33.3747H37.2198V33.865H37.3418H37.4637V33.3747H37.3418ZM37.3418 34.3554H37.2198V34.8457H37.3418H37.4637V34.3554H37.3418ZM37.3418 35.3361H37.2198V35.8264H37.3418H37.4637V35.3361H37.3418ZM37.3418 36.3168H37.2198V36.8071H37.3418H37.4637V36.3168H37.3418ZM37.3418 37.2975H37.2198V37.7878H37.3418H37.4637V37.2975H37.3418ZM37.3418 38.2781H37.2198V38.7685H37.3418H37.4637V38.2781H37.3418ZM37.3418 39.2588H37.2198V39.7492H37.3418H37.4637V39.2588H37.3418ZM37.3418 40.2395H37.2198V40.7299H37.3418H37.4637V40.2395H37.3418ZM37.3418 41.2202H37.2198V41.7106H37.3418H37.4637V41.2202H37.3418ZM37.3418 42.2009H37.2198V42.6912H37.3418H37.4637V42.2009H37.3418ZM37.3418 43.1816H37.2198V43.6719H37.3418H37.4637V43.1816H37.3418ZM37.3418 44.1623H37.2198V44.6526H37.3418H37.4637V44.1623H37.3418ZM37.3418 45.143H37.2198V45.6333H37.3418H37.4637V45.143H37.3418ZM37.3418 46.1237H37.2198V46.614H37.3418H37.4637V46.1237H37.3418ZM37.3418 47.1044H37.2198V47.5947H37.3418H37.4637V47.1044H37.3418ZM37.3418 48.085H37.2198V48.5754H37.3418H37.4637V48.085H37.3418ZM37.3418 49.0657H37.2198V49.5561H37.3418H37.4637V49.0657H37.3418ZM37.3418 50.0464H37.2198V50.5368H37.3418H37.4637V50.0464H37.3418ZM37.3418 51.0271H37.2198V51.5175H37.3418H37.4637V51.0271H37.3418ZM37.3418 52.0078H37.2198V52.4981H37.3418H37.4637V52.0078H37.3418ZM37.3418 52.9885H37.2198V53.4788H37.3418H37.4637V52.9885H37.3418ZM37.3418 53.9692H37.2198V54.4595H37.3418H37.4637V53.9692H37.3418ZM37.3418 54.9499H37.2198V55.4402H37.3418H37.4637V54.9499H37.3418ZM37.3418 55.9306H37.2198V56.4209H37.3418H37.4637V55.9306H37.3418ZM37.3418 56.9113H37.2198V57.4016H37.3418H37.4637V56.9113H37.3418ZM37.3418 57.8919H37.2198V58.3823H37.3418H37.4637V57.8919H37.3418ZM37.3418 58.8726H37.2198V59.363H37.3418H37.4637V58.8726H37.3418ZM37.3418 59.8533H37.2198V60.3437H37.3418H37.4637V59.8533H37.3418ZM37.3418 60.834H37.2198V61.3244H37.3418H37.4637V60.834H37.3418ZM37.3418 61.8147H37.2198V62.305H37.3418H37.4637V61.8147H37.3418ZM37.3418 62.7954H37.2198V63.2857H37.3418H37.4637V62.7954H37.3418ZM37.3418 63.7761H37.2198V64.2664H37.3418H37.4637V63.7761H37.3418ZM37.3418 64.7568H37.2198V65.2471H37.3418H37.4637V64.7568H37.3418ZM37.3418 65.7375H37.2198V66.2278H37.3418H37.4637V65.7375H37.3418ZM37.3418 66.7182H37.2198V67.2085H37.3418H37.4637V66.7182H37.3418ZM37.3418 67.6988H37.2198V68.1892H37.3418H37.4637V67.6988H37.3418ZM37.3418 68.6795H37.2198V68.9247H37.3418H37.4637V68.6795H37.3418Z" fill="#E0E0E0"/>
<path d="M45.2687 68.9247C45.2687 68.9921 45.3233 69.0467 45.3906 69.0467C45.458 69.0467 45.5126 68.9921 45.5126 68.9247H45.2687ZM45.3906 21.8516H45.2687V22.0967H45.3906H45.5126V21.8516H45.3906ZM45.3906 22.5871H45.2687V23.0774H45.3906H45.5126V22.5871H45.3906ZM45.3906 23.5678H45.2687V24.0581H45.3906H45.5126V23.5678H45.3906ZM45.3906 24.5485H45.2687V25.0388H45.3906H45.5126V24.5485H45.3906ZM45.3906 25.5292H45.2687V26.0195H45.3906H45.5126V25.5292H45.3906ZM45.3906 26.5098H45.2687V27.0002H45.3906H45.5126V26.5098H45.3906ZM45.3906 27.4905H45.2687V27.9809H45.3906H45.5126V27.4905H45.3906ZM45.3906 28.4712H45.2687V28.9616H45.3906H45.5126V28.4712H45.3906ZM45.3906 29.4519H45.2687V29.9423H45.3906H45.5126V29.4519H45.3906ZM45.3906 30.4326H45.2687V30.923H45.3906H45.5126V30.4326H45.3906ZM45.3906 31.4133H45.2687V31.9036H45.3906H45.5126V31.4133H45.3906ZM45.3906 32.394H45.2687V32.8843H45.3906H45.5126V32.394H45.3906ZM45.3906 33.3747H45.2687V33.865H45.3906H45.5126V33.3747H45.3906ZM45.3906 34.3554H45.2687V34.8457H45.3906H45.5126V34.3554H45.3906ZM45.3906 35.3361H45.2687V35.8264H45.3906H45.5126V35.3361H45.3906ZM45.3906 36.3168H45.2687V36.8071H45.3906H45.5126V36.3168H45.3906ZM45.3906 37.2975H45.2687V37.7878H45.3906H45.5126V37.2975H45.3906ZM45.3906 38.2781H45.2687V38.7685H45.3906H45.5126V38.2781H45.3906ZM45.3906 39.2588H45.2687V39.7492H45.3906H45.5126V39.2588H45.3906ZM45.3906 40.2395H45.2687V40.7299H45.3906H45.5126V40.2395H45.3906ZM45.3906 41.2202H45.2687V41.7106H45.3906H45.5126V41.2202H45.3906ZM45.3906 42.2009H45.2687V42.6912H45.3906H45.5126V42.2009H45.3906ZM45.3906 43.1816H45.2687V43.6719H45.3906H45.5126V43.1816H45.3906ZM45.3906 44.1623H45.2687V44.6526H45.3906H45.5126V44.1623H45.3906ZM45.3906 45.143H45.2687V45.6333H45.3906H45.5126V45.143H45.3906ZM45.3906 46.1237H45.2687V46.614H45.3906H45.5126V46.1237H45.3906ZM45.3906 47.1044H45.2687V47.5947H45.3906H45.5126V47.1044H45.3906ZM45.3906 48.085H45.2687V48.5754H45.3906H45.5126V48.085H45.3906ZM45.3906 49.0657H45.2687V49.5561H45.3906H45.5126V49.0657H45.3906ZM45.3906 50.0464H45.2687V50.5368H45.3906H45.5126V50.0464H45.3906ZM45.3906 51.0271H45.2687V51.5175H45.3906H45.5126V51.0271H45.3906ZM45.3906 52.0078H45.2687V52.4981H45.3906H45.5126V52.0078H45.3906ZM45.3906 52.9885H45.2687V53.4788H45.3906H45.5126V52.9885H45.3906ZM45.3906 53.9692H45.2687V54.4595H45.3906H45.5126V53.9692H45.3906ZM45.3906 54.9499H45.2687V55.4402H45.3906H45.5126V54.9499H45.3906ZM45.3906 55.9306H45.2687V56.4209H45.3906H45.5126V55.9306H45.3906ZM45.3906 56.9113H45.2687V57.4016H45.3906H45.5126V56.9113H45.3906ZM45.3906 57.8919H45.2687V58.3823H45.3906H45.5126V57.8919H45.3906ZM45.3906 58.8726H45.2687V59.363H45.3906H45.5126V58.8726H45.3906ZM45.3906 59.8533H45.2687V60.3437H45.3906H45.5126V59.8533H45.3906ZM45.3906 60.834H45.2687V61.3244H45.3906H45.5126V60.834H45.3906ZM45.3906 61.8147H45.2687V62.305H45.3906H45.5126V61.8147H45.3906ZM45.3906 62.7954H45.2687V63.2857H45.3906H45.5126V62.7954H45.3906ZM45.3906 63.7761H45.2687V64.2664H45.3906H45.5126V63.7761H45.3906ZM45.3906 64.7568H45.2687V65.2471H45.3906H45.5126V64.7568H45.3906ZM45.3906 65.7375H45.2687V66.2278H45.3906H45.5126V65.7375H45.3906ZM45.3906 66.7182H45.2687V67.2085H45.3906H45.5126V66.7182H45.3906ZM45.3906 67.6988H45.2687V68.1892H45.3906H45.5126V67.6988H45.3906ZM45.3906 68.6795H45.2687V68.9247H45.3906H45.5126V68.6795H45.3906Z" fill="#E0E0E0"/>
<path d="M53.3175 68.9247C53.3175 68.9921 53.3721 69.0467 53.4395 69.0467C53.5068 69.0467 53.5614 68.9921 53.5614 68.9247H53.3175ZM53.4395 21.8516H53.3175V22.0967H53.4395H53.5614V21.8516H53.4395ZM53.4395 22.5871H53.3175V23.0774H53.4395H53.5614V22.5871H53.4395ZM53.4395 23.5678H53.3175V24.0581H53.4395H53.5614V23.5678H53.4395ZM53.4395 24.5485H53.3175V25.0388H53.4395H53.5614V24.5485H53.4395ZM53.4395 25.5292H53.3175V26.0195H53.4395H53.5614V25.5292H53.4395ZM53.4395 26.5098H53.3175V27.0002H53.4395H53.5614V26.5098H53.4395ZM53.4395 27.4905H53.3175V27.9809H53.4395H53.5614V27.4905H53.4395ZM53.4395 28.4712H53.3175V28.9616H53.4395H53.5614V28.4712H53.4395ZM53.4395 29.4519H53.3175V29.9423H53.4395H53.5614V29.4519H53.4395ZM53.4395 30.4326H53.3175V30.923H53.4395H53.5614V30.4326H53.4395ZM53.4395 31.4133H53.3175V31.9036H53.4395H53.5614V31.4133H53.4395ZM53.4395 32.394H53.3175V32.8843H53.4395H53.5614V32.394H53.4395ZM53.4395 33.3747H53.3175V33.865H53.4395H53.5614V33.3747H53.4395ZM53.4395 34.3554H53.3175V34.8457H53.4395H53.5614V34.3554H53.4395ZM53.4395 35.3361H53.3175V35.8264H53.4395H53.5614V35.3361H53.4395ZM53.4395 36.3168H53.3175V36.8071H53.4395H53.5614V36.3168H53.4395ZM53.4395 37.2975H53.3175V37.7878H53.4395H53.5614V37.2975H53.4395ZM53.4395 38.2781H53.3175V38.7685H53.4395H53.5614V38.2781H53.4395ZM53.4395 39.2588H53.3175V39.7492H53.4395H53.5614V39.2588H53.4395ZM53.4395 40.2395H53.3175V40.7299H53.4395H53.5614V40.2395H53.4395ZM53.4395 41.2202H53.3175V41.7106H53.4395H53.5614V41.2202H53.4395ZM53.4395 42.2009H53.3175V42.6912H53.4395H53.5614V42.2009H53.4395ZM53.4395 43.1816H53.3175V43.6719H53.4395H53.5614V43.1816H53.4395ZM53.4395 44.1623H53.3175V44.6526H53.4395H53.5614V44.1623H53.4395ZM53.4395 45.143H53.3175V45.6333H53.4395H53.5614V45.143H53.4395ZM53.4395 46.1237H53.3175V46.614H53.4395H53.5614V46.1237H53.4395ZM53.4395 47.1044H53.3175V47.5947H53.4395H53.5614V47.1044H53.4395ZM53.4395 48.085H53.3175V48.5754H53.4395H53.5614V48.085H53.4395ZM53.4395 49.0657H53.3175V49.5561H53.4395H53.5614V49.0657H53.4395ZM53.4395 50.0464H53.3175V50.5368H53.4395H53.5614V50.0464H53.4395ZM53.4395 51.0271H53.3175V51.5175H53.4395H53.5614V51.0271H53.4395ZM53.4395 52.0078H53.3175V52.4981H53.4395H53.5614V52.0078H53.4395ZM53.4395 52.9885H53.3175V53.4788H53.4395H53.5614V52.9885H53.4395ZM53.4395 53.9692H53.3175V54.4595H53.4395H53.5614V53.9692H53.4395ZM53.4395 54.9499H53.3175V55.4402H53.4395H53.5614V54.9499H53.4395ZM53.4395 55.9306H53.3175V56.4209H53.4395H53.5614V55.9306H53.4395ZM53.4395 56.9113H53.3175V57.4016H53.4395H53.5614V56.9113H53.4395ZM53.4395 57.8919H53.3175V58.3823H53.4395H53.5614V57.8919H53.4395ZM53.4395 58.8726H53.3175V59.363H53.4395H53.5614V58.8726H53.4395ZM53.4395 59.8533H53.3175V60.3437H53.4395H53.5614V59.8533H53.4395ZM53.4395 60.834H53.3175V61.3244H53.4395H53.5614V60.834H53.4395ZM53.4395 61.8147H53.3175V62.305H53.4395H53.5614V61.8147H53.4395ZM53.4395 62.7954H53.3175V63.2857H53.4395H53.5614V62.7954H53.4395ZM53.4395 63.7761H53.3175V64.2664H53.4395H53.5614V63.7761H53.4395ZM53.4395 64.7568H53.3175V65.2471H53.4395H53.5614V64.7568H53.4395ZM53.4395 65.7375H53.3175V66.2278H53.4395H53.5614V65.7375H53.4395ZM53.4395 66.7182H53.3175V67.2085H53.4395H53.5614V66.7182H53.4395ZM53.4395 67.6988H53.3175V68.1892H53.4395H53.5614V67.6988H53.4395ZM53.4395 68.6795H53.3175V68.9247H53.4395H53.5614V68.6795H53.4395Z" fill="#E0E0E0"/>
<path d="M61.3663 68.9247C61.3663 68.9921 61.4209 69.0467 61.4883 69.0467C61.5556 69.0467 61.6102 68.9921 61.6102 68.9247H61.3663ZM61.4883 21.8516H61.3663V22.0967H61.4883H61.6102V21.8516H61.4883ZM61.4883 22.5871H61.3663V23.0774H61.4883H61.6102V22.5871H61.4883ZM61.4883 23.5678H61.3663V24.0581H61.4883H61.6102V23.5678H61.4883ZM61.4883 24.5485H61.3663V25.0388H61.4883H61.6102V24.5485H61.4883ZM61.4883 25.5292H61.3663V26.0195H61.4883H61.6102V25.5292H61.4883ZM61.4883 26.5098H61.3663V27.0002H61.4883H61.6102V26.5098H61.4883ZM61.4883 27.4905H61.3663V27.9809H61.4883H61.6102V27.4905H61.4883ZM61.4883 28.4712H61.3663V28.9616H61.4883H61.6102V28.4712H61.4883ZM61.4883 29.4519H61.3663V29.9423H61.4883H61.6102V29.4519H61.4883ZM61.4883 30.4326H61.3663V30.923H61.4883H61.6102V30.4326H61.4883ZM61.4883 31.4133H61.3663V31.9036H61.4883H61.6102V31.4133H61.4883ZM61.4883 32.394H61.3663V32.8843H61.4883H61.6102V32.394H61.4883ZM61.4883 33.3747H61.3663V33.865H61.4883H61.6102V33.3747H61.4883ZM61.4883 34.3554H61.3663V34.8457H61.4883H61.6102V34.3554H61.4883ZM61.4883 35.3361H61.3663V35.8264H61.4883H61.6102V35.3361H61.4883ZM61.4883 36.3168H61.3663V36.8071H61.4883H61.6102V36.3168H61.4883ZM61.4883 37.2975H61.3663V37.7878H61.4883H61.6102V37.2975H61.4883ZM61.4883 38.2781H61.3663V38.7685H61.4883H61.6102V38.2781H61.4883ZM61.4883 39.2588H61.3663V39.7492H61.4883H61.6102V39.2588H61.4883ZM61.4883 40.2395H61.3663V40.7299H61.4883H61.6102V40.2395H61.4883ZM61.4883 41.2202H61.3663V41.7106H61.4883H61.6102V41.2202H61.4883ZM61.4883 42.2009H61.3663V42.6912H61.4883H61.6102V42.2009H61.4883ZM61.4883 43.1816H61.3663V43.6719H61.4883H61.6102V43.1816H61.4883ZM61.4883 44.1623H61.3663V44.6526H61.4883H61.6102V44.1623H61.4883ZM61.4883 45.143H61.3663V45.6333H61.4883H61.6102V45.143H61.4883ZM61.4883 46.1237H61.3663V46.614H61.4883H61.6102V46.1237H61.4883ZM61.4883 47.1044H61.3663V47.5947H61.4883H61.6102V47.1044H61.4883ZM61.4883 48.085H61.3663V48.5754H61.4883H61.6102V48.085H61.4883ZM61.4883 49.0657H61.3663V49.5561H61.4883H61.6102V49.0657H61.4883ZM61.4883 50.0464H61.3663V50.5368H61.4883H61.6102V50.0464H61.4883ZM61.4883 51.0271H61.3663V51.5175H61.4883H61.6102V51.0271H61.4883ZM61.4883 52.0078H61.3663V52.4981H61.4883H61.6102V52.0078H61.4883ZM61.4883 52.9885H61.3663V53.4788H61.4883H61.6102V52.9885H61.4883ZM61.4883 53.9692H61.3663V54.4595H61.4883H61.6102V53.9692H61.4883ZM61.4883 54.9499H61.3663V55.4402H61.4883H61.6102V54.9499H61.4883ZM61.4883 55.9306H61.3663V56.4209H61.4883H61.6102V55.9306H61.4883ZM61.4883 56.9113H61.3663V57.4016H61.4883H61.6102V56.9113H61.4883ZM61.4883 57.8919H61.3663V58.3823H61.4883H61.6102V57.8919H61.4883ZM61.4883 58.8726H61.3663V59.363H61.4883H61.6102V58.8726H61.4883ZM61.4883 59.8533H61.3663V60.3437H61.4883H61.6102V59.8533H61.4883ZM61.4883 60.834H61.3663V61.3244H61.4883H61.6102V60.834H61.4883ZM61.4883 61.8147H61.3663V62.305H61.4883H61.6102V61.8147H61.4883ZM61.4883 62.7954H61.3663V63.2857H61.4883H61.6102V62.7954H61.4883ZM61.4883 63.7761H61.3663V64.2664H61.4883H61.6102V63.7761H61.4883ZM61.4883 64.7568H61.3663V65.2471H61.4883H61.6102V64.7568H61.4883ZM61.4883 65.7375H61.3663V66.2278H61.4883H61.6102V65.7375H61.4883ZM61.4883 66.7182H61.3663V67.2085H61.4883H61.6102V66.7182H61.4883ZM61.4883 67.6988H61.3663V68.1892H61.4883H61.6102V67.6988H61.4883ZM61.4883 68.6795H61.3663V68.9247H61.4883H61.6102V68.6795H61.4883Z" fill="#E0E0E0"/>
<path d="M69.4152 68.9247C69.4152 68.9921 69.4698 69.0467 69.5371 69.0467C69.6045 69.0467 69.6591 68.9921 69.6591 68.9247H69.4152ZM69.5371 21.8516H69.4152V22.0967H69.5371H69.6591V21.8516H69.5371ZM69.5371 22.5871H69.4152V23.0774H69.5371H69.6591V22.5871H69.5371ZM69.5371 23.5678H69.4152V24.0581H69.5371H69.6591V23.5678H69.5371ZM69.5371 24.5485H69.4152V25.0388H69.5371H69.6591V24.5485H69.5371ZM69.5371 25.5292H69.4152V26.0195H69.5371H69.6591V25.5292H69.5371ZM69.5371 26.5098H69.4152V27.0002H69.5371H69.6591V26.5098H69.5371ZM69.5371 27.4905H69.4152V27.9809H69.5371H69.6591V27.4905H69.5371ZM69.5371 28.4712H69.4152V28.9616H69.5371H69.6591V28.4712H69.5371ZM69.5371 29.4519H69.4152V29.9423H69.5371H69.6591V29.4519H69.5371ZM69.5371 30.4326H69.4152V30.923H69.5371H69.6591V30.4326H69.5371ZM69.5371 31.4133H69.4152V31.9036H69.5371H69.6591V31.4133H69.5371ZM69.5371 32.394H69.4152V32.8843H69.5371H69.6591V32.394H69.5371ZM69.5371 33.3747H69.4152V33.865H69.5371H69.6591V33.3747H69.5371ZM69.5371 34.3554H69.4152V34.8457H69.5371H69.6591V34.3554H69.5371ZM69.5371 35.3361H69.4152V35.8264H69.5371H69.6591V35.3361H69.5371ZM69.5371 36.3168H69.4152V36.8071H69.5371H69.6591V36.3168H69.5371ZM69.5371 37.2975H69.4152V37.7878H69.5371H69.6591V37.2975H69.5371ZM69.5371 38.2781H69.4152V38.7685H69.5371H69.6591V38.2781H69.5371ZM69.5371 39.2588H69.4152V39.7492H69.5371H69.6591V39.2588H69.5371ZM69.5371 40.2395H69.4152V40.7299H69.5371H69.6591V40.2395H69.5371ZM69.5371 41.2202H69.4152V41.7106H69.5371H69.6591V41.2202H69.5371ZM69.5371 42.2009H69.4152V42.6912H69.5371H69.6591V42.2009H69.5371ZM69.5371 43.1816H69.4152V43.6719H69.5371H69.6591V43.1816H69.5371ZM69.5371 44.1623H69.4152V44.6526H69.5371H69.6591V44.1623H69.5371ZM69.5371 45.143H69.4152V45.6333H69.5371H69.6591V45.143H69.5371ZM69.5371 46.1237H69.4152V46.614H69.5371H69.6591V46.1237H69.5371ZM69.5371 47.1044H69.4152V47.5947H69.5371H69.6591V47.1044H69.5371ZM69.5371 48.085H69.4152V48.5754H69.5371H69.6591V48.085H69.5371ZM69.5371 49.0657H69.4152V49.5561H69.5371H69.6591V49.0657H69.5371ZM69.5371 50.0464H69.4152V50.5368H69.5371H69.6591V50.0464H69.5371ZM69.5371 51.0271H69.4152V51.5175H69.5371H69.6591V51.0271H69.5371ZM69.5371 52.0078H69.4152V52.4981H69.5371H69.6591V52.0078H69.5371ZM69.5371 52.9885H69.4152V53.4788H69.5371H69.6591V52.9885H69.5371ZM69.5371 53.9692H69.4152V54.4595H69.5371H69.6591V53.9692H69.5371ZM69.5371 54.9499H69.4152V55.4402H69.5371H69.6591V54.9499H69.5371ZM69.5371 55.9306H69.4152V56.4209H69.5371H69.6591V55.9306H69.5371ZM69.5371 56.9113H69.4152V57.4016H69.5371H69.6591V56.9113H69.5371ZM69.5371 57.8919H69.4152V58.3823H69.5371H69.6591V57.8919H69.5371ZM69.5371 58.8726H69.4152V59.363H69.5371H69.6591V58.8726H69.5371ZM69.5371 59.8533H69.4152V60.3437H69.5371H69.6591V59.8533H69.5371ZM69.5371 60.834H69.4152V61.3244H69.5371H69.6591V60.834H69.5371ZM69.5371 61.8147H69.4152V62.305H69.5371H69.6591V61.8147H69.5371ZM69.5371 62.7954H69.4152V63.2857H69.5371H69.6591V62.7954H69.5371ZM69.5371 63.7761H69.4152V64.2664H69.5371H69.6591V63.7761H69.5371ZM69.5371 64.7568H69.4152V65.2471H69.5371H69.6591V64.7568H69.5371ZM69.5371 65.7375H69.4152V66.2278H69.5371H69.6591V65.7375H69.5371ZM69.5371 66.7182H69.4152V67.2085H69.5371H69.6591V66.7182H69.5371ZM69.5371 67.6988H69.4152V68.1892H69.5371H69.6591V67.6988H69.5371ZM69.5371 68.6795H69.4152V68.9247H69.5371H69.6591V68.6795H69.5371Z" fill="#E0E0E0"/>
<path d="M77.464 68.9247C77.464 68.9921 77.5186 69.0467 77.5859 69.0467C77.6533 69.0467 77.7079 68.9921 77.7079 68.9247H77.464ZM77.5859 21.8516H77.464V22.0967H77.5859H77.7079V21.8516H77.5859ZM77.5859 22.5871H77.464V23.0774H77.5859H77.7079V22.5871H77.5859ZM77.5859 23.5678H77.464V24.0581H77.5859H77.7079V23.5678H77.5859ZM77.5859 24.5485H77.464V25.0388H77.5859H77.7079V24.5485H77.5859ZM77.5859 25.5292H77.464V26.0195H77.5859H77.7079V25.5292H77.5859ZM77.5859 26.5098H77.464V27.0002H77.5859H77.7079V26.5098H77.5859ZM77.5859 27.4905H77.464V27.9809H77.5859H77.7079V27.4905H77.5859ZM77.5859 28.4712H77.464V28.9616H77.5859H77.7079V28.4712H77.5859ZM77.5859 29.4519H77.464V29.9423H77.5859H77.7079V29.4519H77.5859ZM77.5859 30.4326H77.464V30.923H77.5859H77.7079V30.4326H77.5859ZM77.5859 31.4133H77.464V31.9036H77.5859H77.7079V31.4133H77.5859ZM77.5859 32.394H77.464V32.8843H77.5859H77.7079V32.394H77.5859ZM77.5859 33.3747H77.464V33.865H77.5859H77.7079V33.3747H77.5859ZM77.5859 34.3554H77.464V34.8457H77.5859H77.7079V34.3554H77.5859ZM77.5859 35.3361H77.464V35.8264H77.5859H77.7079V35.3361H77.5859ZM77.5859 36.3168H77.464V36.8071H77.5859H77.7079V36.3168H77.5859ZM77.5859 37.2975H77.464V37.7878H77.5859H77.7079V37.2975H77.5859ZM77.5859 38.2781H77.464V38.7685H77.5859H77.7079V38.2781H77.5859ZM77.5859 39.2588H77.464V39.7492H77.5859H77.7079V39.2588H77.5859ZM77.5859 40.2395H77.464V40.7299H77.5859H77.7079V40.2395H77.5859ZM77.5859 41.2202H77.464V41.7106H77.5859H77.7079V41.2202H77.5859ZM77.5859 42.2009H77.464V42.6912H77.5859H77.7079V42.2009H77.5859ZM77.5859 43.1816H77.464V43.6719H77.5859H77.7079V43.1816H77.5859ZM77.5859 44.1623H77.464V44.6526H77.5859H77.7079V44.1623H77.5859ZM77.5859 45.143H77.464V45.6333H77.5859H77.7079V45.143H77.5859ZM77.5859 46.1237H77.464V46.614H77.5859H77.7079V46.1237H77.5859ZM77.5859 47.1044H77.464V47.5947H77.5859H77.7079V47.1044H77.5859ZM77.5859 48.085H77.464V48.5754H77.5859H77.7079V48.085H77.5859ZM77.5859 49.0657H77.464V49.5561H77.5859H77.7079V49.0657H77.5859ZM77.5859 50.0464H77.464V50.5368H77.5859H77.7079V50.0464H77.5859ZM77.5859 51.0271H77.464V51.5175H77.5859H77.7079V51.0271H77.5859ZM77.5859 52.0078H77.464V52.4981H77.5859H77.7079V52.0078H77.5859ZM77.5859 52.9885H77.464V53.4788H77.5859H77.7079V52.9885H77.5859ZM77.5859 53.9692H77.464V54.4595H77.5859H77.7079V53.9692H77.5859ZM77.5859 54.9499H77.464V55.4402H77.5859H77.7079V54.9499H77.5859ZM77.5859 55.9306H77.464V56.4209H77.5859H77.7079V55.9306H77.5859ZM77.5859 56.9113H77.464V57.4016H77.5859H77.7079V56.9113H77.5859ZM77.5859 57.8919H77.464V58.3823H77.5859H77.7079V57.8919H77.5859ZM77.5859 58.8726H77.464V59.363H77.5859H77.7079V58.8726H77.5859ZM77.5859 59.8533H77.464V60.3437H77.5859H77.7079V59.8533H77.5859ZM77.5859 60.834H77.464V61.3244H77.5859H77.7079V60.834H77.5859ZM77.5859 61.8147H77.464V62.305H77.5859H77.7079V61.8147H77.5859ZM77.5859 62.7954H77.464V63.2857H77.5859H77.7079V62.7954H77.5859ZM77.5859 63.7761H77.464V64.2664H77.5859H77.7079V63.7761H77.5859ZM77.5859 64.7568H77.464V65.2471H77.5859H77.7079V64.7568H77.5859ZM77.5859 65.7375H77.464V66.2278H77.5859H77.7079V65.7375H77.5859ZM77.5859 66.7182H77.464V67.2085H77.5859H77.7079V66.7182H77.5859ZM77.5859 67.6988H77.464V68.1892H77.5859H77.7079V67.6988H77.5859ZM77.5859 68.6795H77.464V68.9247H77.5859H77.7079V68.6795H77.5859Z" fill="#E0E0E0"/>
<path d="M15.3901 23.8516H14.4163V23.6467L14.766 23.2933C14.8365 23.2208 14.893 23.1605 14.9356 23.1122C14.9788 23.0633 15.0099 23.0189 15.029 22.9788C15.0487 22.9388 15.0585 22.896 15.0585 22.8502C15.0585 22.795 15.0429 22.7537 15.0118 22.7264C14.9813 22.6984 14.9404 22.6845 14.8889 22.6845C14.8349 22.6845 14.7825 22.6968 14.7317 22.7216C14.6809 22.7464 14.6279 22.7816 14.5726 22.8274L14.4125 22.6378C14.4526 22.6035 14.4948 22.5711 14.5393 22.5406C14.5843 22.5101 14.6364 22.4856 14.6955 22.4672C14.7552 22.4482 14.8267 22.4386 14.9099 22.4386C15.0013 22.4386 15.0798 22.4552 15.1452 22.4882C15.2113 22.5212 15.2621 22.5663 15.2976 22.6235C15.3332 22.68 15.351 22.7442 15.351 22.8159C15.351 22.8928 15.3357 22.963 15.3053 23.0265C15.2748 23.09 15.2303 23.1529 15.1719 23.2151C15.1141 23.2774 15.0442 23.3463 14.9623 23.4219L14.7832 23.5905V23.6038H15.3901V23.8516ZM16.0398 22.9617C16.1249 22.9617 16.2005 22.9779 16.2666 23.0103C16.3333 23.0427 16.3857 23.0903 16.4238 23.1532C16.4619 23.2161 16.4809 23.2936 16.4809 23.3857C16.4809 23.486 16.46 23.5727 16.4181 23.6458C16.3768 23.7182 16.3149 23.7738 16.2323 23.8125C16.1503 23.8512 16.0481 23.8706 15.9255 23.8706C15.8525 23.8706 15.7835 23.8643 15.7187 23.8516C15.6546 23.8395 15.5984 23.8208 15.5501 23.7954V23.541C15.5984 23.5664 15.6562 23.588 15.7235 23.6058C15.7915 23.6229 15.8553 23.6315 15.915 23.6315C15.9735 23.6315 16.0227 23.6239 16.0627 23.6086C16.1027 23.5927 16.1329 23.5686 16.1532 23.5362C16.1742 23.5032 16.1846 23.4613 16.1846 23.4104C16.1846 23.3425 16.1618 23.2904 16.116 23.2542C16.0703 23.218 16.0001 23.1999 15.9055 23.1999C15.8693 23.1999 15.8315 23.2034 15.7921 23.2104C15.7534 23.2174 15.721 23.2243 15.6949 23.2313L15.5777 23.1684L15.6301 22.4587H16.3857V22.7083H15.8883L15.8626 22.9817C15.8842 22.9773 15.9077 22.9728 15.9331 22.9684C15.9585 22.9639 15.9941 22.9617 16.0398 22.9617ZM17.6157 23.1551C17.6157 23.2675 17.6068 23.3679 17.589 23.4562C17.5718 23.5445 17.5439 23.6194 17.5051 23.681C17.467 23.7426 17.4169 23.7896 17.3546 23.822C17.2924 23.8544 17.2168 23.8706 17.1279 23.8706C17.0161 23.8706 16.9243 23.8424 16.8525 23.7858C16.7807 23.7287 16.7277 23.6467 16.6934 23.54C16.6591 23.4327 16.642 23.3044 16.642 23.1551C16.642 23.0046 16.6575 22.876 16.6886 22.7692C16.7204 22.6619 16.7718 22.5796 16.843 22.5225C16.9141 22.4653 17.0091 22.4367 17.1279 22.4367C17.239 22.4367 17.3305 22.4653 17.4022 22.5225C17.4747 22.579 17.5283 22.661 17.5633 22.7683C17.5982 22.875 17.6157 23.0039 17.6157 23.1551ZM16.9345 23.1551C16.9345 23.2612 16.9402 23.3498 16.9516 23.4209C16.9637 23.4914 16.9837 23.5445 17.0116 23.58C17.0396 23.6156 17.0783 23.6334 17.1279 23.6334C17.1768 23.6334 17.2152 23.6159 17.2431 23.581C17.2717 23.5454 17.292 23.4924 17.3041 23.4219C17.3162 23.3507 17.3222 23.2618 17.3222 23.1551C17.3222 23.049 17.3162 22.9604 17.3041 22.8893C17.292 22.8182 17.2717 22.7648 17.2431 22.7292C17.2152 22.693 17.1768 22.6749 17.1279 22.6749C17.0783 22.6749 17.0396 22.693 17.0116 22.7292C16.9837 22.7648 16.9637 22.8182 16.9516 22.8893C16.9402 22.9604 16.9345 23.049 16.9345 23.1551ZM18.7323 23.1551C18.7323 23.2675 18.7234 23.3679 18.7056 23.4562C18.6885 23.5445 18.6605 23.6194 18.6218 23.681C18.5837 23.7426 18.5335 23.7896 18.4712 23.822C18.409 23.8544 18.3334 23.8706 18.2445 23.8706C18.1327 23.8706 18.0409 23.8424 17.9691 23.7858C17.8974 23.7287 17.8443 23.6467 17.81 23.54C17.7757 23.4327 17.7586 23.3044 17.7586 23.1551C17.7586 23.0046 17.7741 22.876 17.8053 22.7692C17.837 22.6619 17.8885 22.5796 17.9596 22.5225C18.0307 22.4653 18.1257 22.4367 18.2445 22.4367C18.3556 22.4367 18.4471 22.4653 18.5189 22.5225C18.5913 22.579 18.6449 22.661 18.6799 22.7683C18.7148 22.875 18.7323 23.0039 18.7323 23.1551ZM18.0511 23.1551C18.0511 23.2612 18.0568 23.3498 18.0682 23.4209C18.0803 23.4914 18.1003 23.5445 18.1282 23.58C18.1562 23.6156 18.1949 23.6334 18.2445 23.6334C18.2934 23.6334 18.3318 23.6159 18.3598 23.581C18.3883 23.5454 18.4087 23.4924 18.4207 23.4219C18.4328 23.3507 18.4388 23.2618 18.4388 23.1551C18.4388 23.049 18.4328 22.9604 18.4207 22.8893C18.4087 22.8182 18.3883 22.7648 18.3598 22.7292C18.3318 22.693 18.2934 22.6749 18.2445 22.6749C18.1949 22.6749 18.1562 22.693 18.1282 22.7292C18.1003 22.7648 18.0803 22.8182 18.0682 22.8893C18.0568 22.9604 18.0511 23.049 18.0511 23.1551Z" fill="#212121"/>
<path d="M15.3901 31.2422H14.4163V31.0373L14.766 30.6839C14.8365 30.6115 14.893 30.5511 14.9356 30.5029C14.9788 30.454 15.0099 30.4095 15.029 30.3695C15.0487 30.3295 15.0585 30.2866 15.0585 30.2409C15.0585 30.1856 15.0429 30.1443 15.0118 30.117C14.9813 30.089 14.9404 30.0751 14.8889 30.0751C14.8349 30.0751 14.7825 30.0875 14.7317 30.1122C14.6809 30.137 14.6279 30.1723 14.5726 30.218L14.4125 30.0284C14.4526 29.9941 14.4948 29.9617 14.5393 29.9312C14.5843 29.9007 14.6364 29.8763 14.6955 29.8579C14.7552 29.8388 14.8267 29.8293 14.9099 29.8293C15.0013 29.8293 15.0798 29.8458 15.1452 29.8788C15.2113 29.9118 15.2621 29.9569 15.2976 30.0141C15.3332 30.0706 15.351 30.1348 15.351 30.2066C15.351 30.2834 15.3357 30.3536 15.3053 30.4171C15.2748 30.4806 15.2303 30.5435 15.1719 30.6058C15.1141 30.668 15.0442 30.7369 14.9623 30.8125L14.7832 30.9811V30.9945H15.3901V31.2422ZM16.499 30.5457C16.499 30.6582 16.4902 30.7585 16.4724 30.8468C16.4552 30.9351 16.4273 31.01 16.3885 31.0716C16.3504 31.1333 16.3002 31.1803 16.238 31.2127C16.1757 31.245 16.1002 31.2612 16.0112 31.2612C15.8995 31.2612 15.8077 31.233 15.7359 31.1764C15.6641 31.1193 15.6111 31.0373 15.5768 30.9306C15.5425 30.8233 15.5253 30.695 15.5253 30.5457C15.5253 30.3952 15.5409 30.2666 15.572 30.1599C15.6038 30.0525 15.6552 29.9703 15.7264 29.9131C15.7975 29.8559 15.8925 29.8274 16.0112 29.8274C16.1224 29.8274 16.2139 29.8559 16.2856 29.9131C16.358 29.9696 16.4117 30.0516 16.4466 30.1589C16.4816 30.2656 16.499 30.3946 16.499 30.5457ZM15.8178 30.5457C15.8178 30.6518 15.8236 30.7404 15.835 30.8115C15.8471 30.8821 15.8671 30.9351 15.895 30.9707C15.923 31.0062 15.9617 31.024 16.0112 31.024C16.0601 31.024 16.0986 31.0065 16.1265 30.9716C16.1551 30.936 16.1754 30.883 16.1875 30.8125C16.1996 30.7414 16.2056 30.6524 16.2056 30.5457C16.2056 30.4397 16.1996 30.3511 16.1875 30.2799C16.1754 30.2088 16.1551 30.1554 16.1265 30.1199C16.0986 30.0837 16.0601 30.0655 16.0112 30.0655C15.9617 30.0655 15.923 30.0837 15.895 30.1199C15.8671 30.1554 15.8471 30.2088 15.835 30.2799C15.8236 30.3511 15.8178 30.4397 15.8178 30.5457ZM17.6157 30.5457C17.6157 30.6582 17.6068 30.7585 17.589 30.8468C17.5718 30.9351 17.5439 31.01 17.5051 31.0716C17.467 31.1333 17.4169 31.1803 17.3546 31.2127C17.2924 31.245 17.2168 31.2612 17.1279 31.2612C17.0161 31.2612 16.9243 31.233 16.8525 31.1764C16.7807 31.1193 16.7277 31.0373 16.6934 30.9306C16.6591 30.8233 16.642 30.695 16.642 30.5457C16.642 30.3952 16.6575 30.2666 16.6886 30.1599C16.7204 30.0525 16.7718 29.9703 16.843 29.9131C16.9141 29.8559 17.0091 29.8274 17.1279 29.8274C17.239 29.8274 17.3305 29.8559 17.4022 29.9131C17.4747 29.9696 17.5283 30.0516 17.5633 30.1589C17.5982 30.2656 17.6157 30.3946 17.6157 30.5457ZM16.9345 30.5457C16.9345 30.6518 16.9402 30.7404 16.9516 30.8115C16.9637 30.8821 16.9837 30.9351 17.0116 30.9707C17.0396 31.0062 17.0783 31.024 17.1279 31.024C17.1768 31.024 17.2152 31.0065 17.2431 30.9716C17.2717 30.936 17.292 30.883 17.3041 30.8125C17.3162 30.7414 17.3222 30.6524 17.3222 30.5457C17.3222 30.4397 17.3162 30.3511 17.3041 30.2799C17.292 30.2088 17.2717 30.1554 17.2431 30.1199C17.2152 30.0837 17.1768 30.0655 17.1279 30.0655C17.0783 30.0655 17.0396 30.0837 17.0116 30.1199C16.9837 30.1554 16.9637 30.2088 16.9516 30.2799C16.9402 30.3511 16.9345 30.4397 16.9345 30.5457ZM18.7323 30.5457C18.7323 30.6582 18.7234 30.7585 18.7056 30.8468C18.6885 30.9351 18.6605 31.01 18.6218 31.0716C18.5837 31.1333 18.5335 31.1803 18.4712 31.2127C18.409 31.245 18.3334 31.2612 18.2445 31.2612C18.1327 31.2612 18.0409 31.233 17.9691 31.1764C17.8974 31.1193 17.8443 31.0373 17.81 30.9306C17.7757 30.8233 17.7586 30.695 17.7586 30.5457C17.7586 30.3952 17.7741 30.2666 17.8053 30.1599C17.837 30.0525 17.8885 29.9703 17.9596 29.9131C18.0307 29.8559 18.1257 29.8274 18.2445 29.8274C18.3556 29.8274 18.4471 29.8559 18.5189 29.9131C18.5913 29.9696 18.6449 30.0516 18.6799 30.1589C18.7148 30.2656 18.7323 30.3946 18.7323 30.5457ZM18.0511 30.5457C18.0511 30.6518 18.0568 30.7404 18.0682 30.8115C18.0803 30.8821 18.1003 30.9351 18.1282 30.9707C18.1562 31.0062 18.1949 31.024 18.2445 31.024C18.2934 31.024 18.3318 31.0065 18.3598 30.9716C18.3883 30.936 18.4087 30.883 18.4207 30.8125C18.4328 30.7414 18.4388 30.6524 18.4388 30.5457C18.4388 30.4397 18.4328 30.3511 18.4207 30.2799C18.4087 30.2088 18.3883 30.1554 18.3598 30.1199C18.3318 30.0837 18.2934 30.0655 18.2445 30.0655C18.1949 30.0655 18.1562 30.0837 18.1282 30.1199C18.1003 30.1554 18.0803 30.2088 18.0682 30.2799C18.0568 30.3511 18.0511 30.4397 18.0511 30.5457Z" fill="#212121"/>
<path d="M15.1442 38.6328H14.8498V37.8268C14.8498 37.8046 14.8502 37.7772 14.8508 37.7449C14.8514 37.7118 14.8524 37.6782 14.8537 37.6439C14.8549 37.6089 14.8562 37.5775 14.8575 37.5495C14.8505 37.5578 14.8362 37.5721 14.8146 37.5924C14.7936 37.6121 14.7739 37.6299 14.7555 37.6458L14.5955 37.7744L14.4535 37.5972L14.9022 37.2399H15.1442V38.6328ZM16.0398 37.7429C16.1249 37.7429 16.2005 37.7591 16.2666 37.7915C16.3333 37.8239 16.3857 37.8716 16.4238 37.9345C16.4619 37.9973 16.4809 38.0748 16.4809 38.1669C16.4809 38.2673 16.46 38.354 16.4181 38.427C16.3768 38.4994 16.3149 38.555 16.2323 38.5937C16.1503 38.6325 16.0481 38.6519 15.9255 38.6519C15.8525 38.6519 15.7835 38.6455 15.7187 38.6328C15.6546 38.6207 15.5984 38.602 15.5501 38.5766V38.3222C15.5984 38.3476 15.6562 38.3692 15.7235 38.387C15.7915 38.4042 15.8553 38.4127 15.915 38.4127C15.9735 38.4127 16.0227 38.4051 16.0627 38.3899C16.1027 38.374 16.1329 38.3498 16.1532 38.3175C16.1742 38.2844 16.1846 38.2425 16.1846 38.1917C16.1846 38.1237 16.1618 38.0716 16.116 38.0354C16.0703 37.9992 16.0001 37.9811 15.9055 37.9811C15.8693 37.9811 15.8315 37.9846 15.7921 37.9916C15.7534 37.9986 15.721 38.0056 15.6949 38.0126L15.5777 37.9497L15.6301 37.2399H16.3857V37.4895H15.8883L15.8626 37.763C15.8842 37.7585 15.9077 37.7541 15.9331 37.7496C15.9585 37.7452 15.9941 37.7429 16.0398 37.7429ZM17.6157 37.9364C17.6157 38.0488 17.6068 38.1491 17.589 38.2374C17.5718 38.3257 17.5439 38.4007 17.5051 38.4623C17.467 38.5239 17.4169 38.5709 17.3546 38.6033C17.2924 38.6357 17.2168 38.6519 17.1279 38.6519C17.0161 38.6519 16.9243 38.6236 16.8525 38.5671C16.7807 38.5099 16.7277 38.428 16.6934 38.3213C16.6591 38.2139 16.642 38.0856 16.642 37.9364C16.642 37.7858 16.6575 37.6572 16.6886 37.5505C16.7204 37.4432 16.7718 37.3609 16.843 37.3037C16.9141 37.2466 17.0091 37.218 17.1279 37.218C17.239 37.218 17.3305 37.2466 17.4022 37.3037C17.4747 37.3603 17.5283 37.4422 17.5633 37.5495C17.5982 37.6562 17.6157 37.7852 17.6157 37.9364ZM16.9345 37.9364C16.9345 38.0424 16.9402 38.131 16.9516 38.2022C16.9637 38.2727 16.9837 38.3257 17.0116 38.3613C17.0396 38.3968 17.0783 38.4146 17.1279 38.4146C17.1768 38.4146 17.2152 38.3972 17.2431 38.3622C17.2717 38.3267 17.292 38.2736 17.3041 38.2031C17.3162 38.132 17.3222 38.0431 17.3222 37.9364C17.3222 37.8303 17.3162 37.7417 17.3041 37.6705C17.292 37.5994 17.2717 37.546 17.2431 37.5105C17.2152 37.4743 17.1768 37.4562 17.1279 37.4562C17.0783 37.4562 17.0396 37.4743 17.0116 37.5105C16.9837 37.546 16.9637 37.5994 16.9516 37.6705C16.9402 37.7417 16.9345 37.8303 16.9345 37.9364ZM18.7323 37.9364C18.7323 38.0488 18.7234 38.1491 18.7056 38.2374C18.6885 38.3257 18.6605 38.4007 18.6218 38.4623C18.5837 38.5239 18.5335 38.5709 18.4712 38.6033C18.409 38.6357 18.3334 38.6519 18.2445 38.6519C18.1327 38.6519 18.0409 38.6236 17.9691 38.5671C17.8974 38.5099 17.8443 38.428 17.81 38.3213C17.7757 38.2139 17.7586 38.0856 17.7586 37.9364C17.7586 37.7858 17.7741 37.6572 17.8053 37.5505C17.837 37.4432 17.8885 37.3609 17.9596 37.3037C18.0307 37.2466 18.1257 37.218 18.2445 37.218C18.3556 37.218 18.4471 37.2466 18.5189 37.3037C18.5913 37.3603 18.6449 37.4422 18.6799 37.5495C18.7148 37.6562 18.7323 37.7852 18.7323 37.9364ZM18.0511 37.9364C18.0511 38.0424 18.0568 38.131 18.0682 38.2022C18.0803 38.2727 18.1003 38.3257 18.1282 38.3613C18.1562 38.3968 18.1949 38.4146 18.2445 38.4146C18.2934 38.4146 18.3318 38.3972 18.3598 38.3622C18.3883 38.3267 18.4087 38.2736 18.4207 38.2031C18.4328 38.132 18.4388 38.0431 18.4388 37.9364C18.4388 37.8303 18.4328 37.7417 18.4207 37.6705C18.4087 37.5994 18.3883 37.546 18.3598 37.5105C18.3318 37.4743 18.2934 37.4562 18.2445 37.4562C18.1949 37.4562 18.1562 37.4743 18.1282 37.5105C18.1003 37.546 18.0803 37.5994 18.0682 37.6705C18.0568 37.7417 18.0511 37.8303 18.0511 37.9364Z" fill="#212121"/>
<path d="M15.1442 46.0234H14.8498V45.2174C14.8498 45.1952 14.8502 45.1679 14.8508 45.1355C14.8514 45.1025 14.8524 45.0688 14.8537 45.0345C14.8549 44.9996 14.8562 44.9681 14.8575 44.9402C14.8505 44.9484 14.8362 44.9627 14.8146 44.983C14.7936 45.0027 14.7739 45.0205 14.7555 45.0364L14.5955 45.165L14.4535 44.9878L14.9022 44.6305H15.1442V46.0234ZM16.499 45.327C16.499 45.4394 16.4902 45.5398 16.4724 45.628C16.4552 45.7163 16.4273 45.7913 16.3885 45.8529C16.3504 45.9145 16.3002 45.9615 16.238 45.9939C16.1757 46.0263 16.1002 46.0425 16.0112 46.0425C15.8995 46.0425 15.8077 46.0142 15.7359 45.9577C15.6641 45.9005 15.6111 45.8186 15.5768 45.7119C15.5425 45.6045 15.5253 45.4762 15.5253 45.327C15.5253 45.1764 15.5409 45.0478 15.572 44.9411C15.6038 44.8338 15.6552 44.7515 15.7264 44.6944C15.7975 44.6372 15.8925 44.6086 16.0112 44.6086C16.1224 44.6086 16.2139 44.6372 16.2856 44.6944C16.358 44.7509 16.4117 44.8328 16.4466 44.9402C16.4816 45.0469 16.499 45.1758 16.499 45.327ZM15.8178 45.327C15.8178 45.4331 15.8236 45.5217 15.835 45.5928C15.8471 45.6633 15.8671 45.7163 15.895 45.7519C15.923 45.7875 15.9617 45.8053 16.0112 45.8053C16.0601 45.8053 16.0986 45.7878 16.1265 45.7529C16.1551 45.7173 16.1754 45.6643 16.1875 45.5937C16.1996 45.5226 16.2056 45.4337 16.2056 45.327C16.2056 45.2209 16.1996 45.1323 16.1875 45.0612C16.1754 44.99 16.1551 44.9367 16.1265 44.9011C16.0986 44.8649 16.0601 44.8468 16.0112 44.8468C15.9617 44.8468 15.923 44.8649 15.895 44.9011C15.8671 44.9367 15.8471 44.99 15.835 45.0612C15.8236 45.1323 15.8178 45.2209 15.8178 45.327ZM17.6157 45.327C17.6157 45.4394 17.6068 45.5398 17.589 45.628C17.5718 45.7163 17.5439 45.7913 17.5051 45.8529C17.467 45.9145 17.4169 45.9615 17.3546 45.9939C17.2924 46.0263 17.2168 46.0425 17.1279 46.0425C17.0161 46.0425 16.9243 46.0142 16.8525 45.9577C16.7807 45.9005 16.7277 45.8186 16.6934 45.7119C16.6591 45.6045 16.642 45.4762 16.642 45.327C16.642 45.1764 16.6575 45.0478 16.6886 44.9411C16.7204 44.8338 16.7718 44.7515 16.843 44.6944C16.9141 44.6372 17.0091 44.6086 17.1279 44.6086C17.239 44.6086 17.3305 44.6372 17.4022 44.6944C17.4747 44.7509 17.5283 44.8328 17.5633 44.9402C17.5982 45.0469 17.6157 45.1758 17.6157 45.327ZM16.9345 45.327C16.9345 45.4331 16.9402 45.5217 16.9516 45.5928C16.9637 45.6633 16.9837 45.7163 17.0116 45.7519C17.0396 45.7875 17.0783 45.8053 17.1279 45.8053C17.1768 45.8053 17.2152 45.7878 17.2431 45.7529C17.2717 45.7173 17.292 45.6643 17.3041 45.5937C17.3162 45.5226 17.3222 45.4337 17.3222 45.327C17.3222 45.2209 17.3162 45.1323 17.3041 45.0612C17.292 44.99 17.2717 44.9367 17.2431 44.9011C17.2152 44.8649 17.1768 44.8468 17.1279 44.8468C17.0783 44.8468 17.0396 44.8649 17.0116 44.9011C16.9837 44.9367 16.9637 44.99 16.9516 45.0612C16.9402 45.1323 16.9345 45.2209 16.9345 45.327ZM18.7323 45.327C18.7323 45.4394 18.7234 45.5398 18.7056 45.628C18.6885 45.7163 18.6605 45.7913 18.6218 45.8529C18.5837 45.9145 18.5335 45.9615 18.4712 45.9939C18.409 46.0263 18.3334 46.0425 18.2445 46.0425C18.1327 46.0425 18.0409 46.0142 17.9691 45.9577C17.8974 45.9005 17.8443 45.8186 17.81 45.7119C17.7757 45.6045 17.7586 45.4762 17.7586 45.327C17.7586 45.1764 17.7741 45.0478 17.8053 44.9411C17.837 44.8338 17.8885 44.7515 17.9596 44.6944C18.0307 44.6372 18.1257 44.6086 18.2445 44.6086C18.3556 44.6086 18.4471 44.6372 18.5189 44.6944C18.5913 44.7509 18.6449 44.8328 18.6799 44.9402C18.7148 45.0469 18.7323 45.1758 18.7323 45.327ZM18.0511 45.327C18.0511 45.4331 18.0568 45.5217 18.0682 45.5928C18.0803 45.6633 18.1003 45.7163 18.1282 45.7519C18.1562 45.7875 18.1949 45.8053 18.2445 45.8053C18.2934 45.8053 18.3318 45.7878 18.3598 45.7529C18.3883 45.7173 18.4087 45.6643 18.4207 45.5937C18.4328 45.5226 18.4388 45.4337 18.4388 45.327C18.4388 45.2209 18.4328 45.1323 18.4207 45.0612C18.4087 44.99 18.3883 44.9367 18.3598 44.9011C18.3318 44.8649 18.2934 44.8468 18.2445 44.8468C18.1949 44.8468 18.1562 44.8649 18.1282 44.9011C18.1003 44.9367 18.0803 44.99 18.0682 45.0612C18.0568 45.1323 18.0511 45.2209 18.0511 45.327Z" fill="#212121"/>
<path d="M16.0404 52.5242C16.1255 52.5242 16.2011 52.5404 16.2671 52.5728C16.3338 52.6052 16.3862 52.6528 16.4244 52.7157C16.4625 52.7786 16.4815 52.8561 16.4815 52.9482C16.4815 53.0485 16.4606 53.1352 16.4186 53.2083C16.3773 53.2807 16.3154 53.3363 16.2329 53.375C16.1509 53.4137 16.0487 53.4331 15.9261 53.4331C15.853 53.4331 15.7841 53.4268 15.7193 53.4141C15.6552 53.402 15.599 53.3833 15.5507 53.3579V53.1035C15.599 53.1289 15.6568 53.1505 15.7241 53.1683C15.792 53.1854 15.8559 53.194 15.9156 53.194C15.974 53.194 16.0232 53.1864 16.0633 53.1711C16.1033 53.1552 16.1334 53.1311 16.1538 53.0987C16.1747 53.0657 16.1852 53.0238 16.1852 52.9729C16.1852 52.905 16.1623 52.8529 16.1166 52.8167C16.0709 52.7805 16.0007 52.7624 15.9061 52.7624C15.8699 52.7624 15.8321 52.7659 15.7927 52.7729C15.7539 52.7799 15.7215 52.7868 15.6955 52.7938L15.5783 52.7309L15.6307 52.0212H16.3862V52.2708H15.8889L15.8632 52.5442C15.8848 52.5398 15.9083 52.5353 15.9337 52.5309C15.9591 52.5264 15.9947 52.5242 16.0404 52.5242ZM17.6162 52.7176C17.6162 52.83 17.6073 52.9304 17.5896 53.0187C17.5724 53.107 17.5445 53.1819 17.5057 53.2435C17.4676 53.3051 17.4174 53.3521 17.3552 53.3845C17.2929 53.4169 17.2174 53.4331 17.1284 53.4331C17.0166 53.4331 16.9249 53.4049 16.8531 53.3483C16.7813 53.2912 16.7283 53.2092 16.694 53.1025C16.6597 52.9952 16.6425 52.8669 16.6425 52.7176C16.6425 52.5671 16.6581 52.4385 16.6892 52.3317C16.721 52.2244 16.7724 52.1421 16.8436 52.085C16.9147 52.0278 17.0097 51.9992 17.1284 51.9992C17.2396 51.9992 17.331 52.0278 17.4028 52.085C17.4752 52.1415 17.5289 52.2235 17.5638 52.3308C17.5988 52.4375 17.6162 52.5664 17.6162 52.7176ZM16.935 52.7176C16.935 52.8237 16.9407 52.9123 16.9522 52.9834C16.9642 53.0539 16.9842 53.107 17.0122 53.1425C17.0401 53.1781 17.0789 53.1959 17.1284 53.1959C17.1773 53.1959 17.2158 53.1784 17.2437 53.1435C17.2723 53.1079 17.2926 53.0549 17.3047 52.9844C17.3168 52.9132 17.3228 52.8243 17.3228 52.7176C17.3228 52.6115 17.3168 52.5229 17.3047 52.4518C17.2926 52.3807 17.2723 52.3273 17.2437 52.2917C17.2158 52.2555 17.1773 52.2374 17.1284 52.2374C17.0789 52.2374 17.0401 52.2555 17.0122 52.2917C16.9842 52.3273 16.9642 52.3807 16.9522 52.4518C16.9407 52.5229 16.935 52.6115 16.935 52.7176ZM18.7329 52.7176C18.7329 52.83 18.724 52.9304 18.7062 53.0187C18.689 53.107 18.6611 53.1819 18.6223 53.2435C18.5842 53.3051 18.534 53.3521 18.4718 53.3845C18.4096 53.4169 18.334 53.4331 18.245 53.4331C18.1333 53.4331 18.0415 53.4049 17.9697 53.3483C17.8979 53.2912 17.8449 53.2092 17.8106 53.1025C17.7763 52.9952 17.7591 52.8669 17.7591 52.7176C17.7591 52.5671 17.7747 52.4385 17.8058 52.3317C17.8376 52.2244 17.889 52.1421 17.9602 52.085C18.0313 52.0278 18.1263 51.9992 18.245 51.9992C18.3562 51.9992 18.4477 52.0278 18.5194 52.085C18.5918 52.1415 18.6455 52.2235 18.6804 52.3308C18.7154 52.4375 18.7329 52.5664 18.7329 52.7176ZM18.0516 52.7176C18.0516 52.8237 18.0574 52.9123 18.0688 52.9834C18.0809 53.0539 18.1009 53.107 18.1288 53.1425C18.1568 53.1781 18.1955 53.1959 18.245 53.1959C18.294 53.1959 18.3324 53.1784 18.3603 53.1435C18.3889 53.1079 18.4092 53.0549 18.4213 52.9844C18.4334 52.9132 18.4394 52.8243 18.4394 52.7176C18.4394 52.6115 18.4334 52.5229 18.4213 52.4518C18.4092 52.3807 18.3889 52.3273 18.3603 52.2917C18.3324 52.2555 18.294 52.2374 18.245 52.2374C18.1955 52.2374 18.1568 52.2555 18.1288 52.2917C18.1009 52.3273 18.0809 52.3807 18.0688 52.4518C18.0574 52.5229 18.0516 52.6115 18.0516 52.7176Z" fill="#212121"/>
<path d="M16.2614 60.8047H15.967V59.9987C15.967 59.9764 15.9674 59.9491 15.968 59.9167C15.9686 59.8837 15.9696 59.85 15.9708 59.8157C15.9721 59.7808 15.9734 59.7494 15.9747 59.7214C15.9677 59.7297 15.9534 59.744 15.9318 59.7643C15.9108 59.784 15.8911 59.8018 15.8727 59.8176L15.7127 59.9463L15.5707 59.7691L16.0194 59.4118H16.2614V60.8047ZM17.6162 60.1082C17.6162 60.2207 17.6073 60.321 17.5896 60.4093C17.5724 60.4976 17.5445 60.5725 17.5057 60.6341C17.4676 60.6958 17.4174 60.7428 17.3552 60.7752C17.2929 60.8075 17.2174 60.8237 17.1284 60.8237C17.0166 60.8237 16.9249 60.7955 16.8531 60.7389C16.7813 60.6818 16.7283 60.5998 16.694 60.4931C16.6597 60.3858 16.6425 60.2575 16.6425 60.1082C16.6425 59.9577 16.6581 59.8291 16.6892 59.7224C16.721 59.615 16.7724 59.5328 16.8436 59.4756C16.9147 59.4184 17.0097 59.3899 17.1284 59.3899C17.2396 59.3899 17.331 59.4184 17.4028 59.4756C17.4752 59.5321 17.5289 59.6141 17.5638 59.7214C17.5988 59.8281 17.6162 59.9571 17.6162 60.1082ZM16.935 60.1082C16.935 60.2143 16.9407 60.3029 16.9522 60.374C16.9642 60.4446 16.9842 60.4976 17.0122 60.5332C17.0401 60.5687 17.0789 60.5865 17.1284 60.5865C17.1773 60.5865 17.2158 60.569 17.2437 60.5341C17.2723 60.4985 17.2926 60.4455 17.3047 60.375C17.3168 60.3039 17.3228 60.2149 17.3228 60.1082C17.3228 60.0022 17.3168 59.9136 17.3047 59.8424C17.2926 59.7713 17.2723 59.7179 17.2437 59.6824C17.2158 59.6462 17.1773 59.628 17.1284 59.628C17.0789 59.628 17.0401 59.6462 17.0122 59.6824C16.9842 59.7179 16.9642 59.7713 16.9522 59.8424C16.9407 59.9136 16.935 60.0022 16.935 60.1082ZM18.7329 60.1082C18.7329 60.2207 18.724 60.321 18.7062 60.4093C18.689 60.4976 18.6611 60.5725 18.6223 60.6341C18.5842 60.6958 18.534 60.7428 18.4718 60.7752C18.4096 60.8075 18.334 60.8237 18.245 60.8237C18.1333 60.8237 18.0415 60.7955 17.9697 60.7389C17.8979 60.6818 17.8449 60.5998 17.8106 60.4931C17.7763 60.3858 17.7591 60.2575 17.7591 60.1082C17.7591 59.9577 17.7747 59.8291 17.8058 59.7224C17.8376 59.615 17.889 59.5328 17.9602 59.4756C18.0313 59.4184 18.1263 59.3899 18.245 59.3899C18.3562 59.3899 18.4477 59.4184 18.5194 59.4756C18.5918 59.5321 18.6455 59.6141 18.6804 59.7214C18.7154 59.8281 18.7329 59.9571 18.7329 60.1082ZM18.0516 60.1082C18.0516 60.2143 18.0574 60.3029 18.0688 60.374C18.0809 60.4446 18.1009 60.4976 18.1288 60.5332C18.1568 60.5687 18.1955 60.5865 18.245 60.5865C18.294 60.5865 18.3324 60.569 18.3603 60.5341C18.3889 60.4985 18.4092 60.4455 18.4213 60.375C18.4334 60.3039 18.4394 60.2149 18.4394 60.1082C18.4394 60.0022 18.4334 59.9136 18.4213 59.8424C18.4092 59.7713 18.3889 59.7179 18.3603 59.6824C18.3324 59.6462 18.294 59.628 18.245 59.628C18.1955 59.628 18.1568 59.6462 18.1288 59.6824C18.1009 59.7179 18.0809 59.7713 18.0688 59.8424C18.0574 59.9136 18.0516 60.0022 18.0516 60.1082Z" fill="#212121"/>
<path d="M18.7329 67.495C18.7329 67.6074 18.724 67.7077 18.7062 67.796C18.689 67.8843 18.6611 67.9593 18.6223 68.0209C18.5842 68.0825 18.534 68.1295 18.4718 68.1619C18.4096 68.1943 18.334 68.2105 18.245 68.2105C18.1333 68.2105 18.0415 68.1822 17.9697 68.1257C17.8979 68.0685 17.8449 67.9866 17.8106 67.8799C17.7763 67.7725 17.7591 67.6442 17.7591 67.495C17.7591 67.3444 17.7747 67.2158 17.8058 67.1091C17.8376 67.0017 17.889 66.9195 17.9602 66.8623C18.0313 66.8052 18.1263 66.7766 18.245 66.7766C18.3562 66.7766 18.4477 66.8052 18.5194 66.8623C18.5918 66.9189 18.6455 67.0008 18.6804 67.1081C18.7154 67.2148 18.7329 67.3438 18.7329 67.495ZM18.0516 67.495C18.0516 67.601 18.0574 67.6896 18.0688 67.7608C18.0809 67.8313 18.1009 67.8843 18.1288 67.9199C18.1568 67.9554 18.1955 67.9732 18.245 67.9732C18.294 67.9732 18.3324 67.9558 18.3603 67.9208C18.3889 67.8853 18.4092 67.8322 18.4213 67.7617C18.4334 67.6906 18.4394 67.6017 18.4394 67.495C18.4394 67.3889 18.4334 67.3003 18.4213 67.2291C18.4092 67.158 18.3889 67.1046 18.3603 67.0691C18.3324 67.0329 18.294 67.0148 18.245 67.0148C18.1955 67.0148 18.1568 67.0329 18.1288 67.0691C18.1009 67.1046 18.0809 67.158 18.0688 67.2291C18.0574 67.3003 18.0516 67.3889 18.0516 67.495Z" fill="#212121"/>
<path d="M30.25 71.4141H29.9556V70.608C29.9556 70.5858 29.9559 70.5585 29.9565 70.5261C29.9571 70.4931 29.9581 70.4594 29.9594 70.4251C29.9606 70.3902 29.9619 70.3587 29.9632 70.3308C29.9562 70.339 29.9419 70.3533 29.9203 70.3737C29.8993 70.3934 29.8797 70.4111 29.8612 70.427L29.7012 70.5556L29.5592 70.3784L30.008 70.0212H30.25V71.4141Z" fill="#212121"/>
<path d="M22.4393 70.7176C22.4393 70.83 22.4304 70.9304 22.4126 71.0187C22.3955 71.107 22.3675 71.1819 22.3288 71.2435C22.2907 71.3051 22.2405 71.3521 22.1783 71.3845C22.116 71.4169 22.0404 71.4331 21.9515 71.4331C21.8397 71.4331 21.7479 71.4049 21.6762 71.3483C21.6044 71.2912 21.5514 71.2092 21.5171 71.1025C21.4828 70.9952 21.4656 70.8669 21.4656 70.7176C21.4656 70.5671 21.4812 70.4385 21.5123 70.3317C21.544 70.2244 21.5955 70.1421 21.6666 70.085C21.7378 70.0278 21.8327 69.9992 21.9515 69.9992C22.0627 69.9992 22.1541 70.0278 22.2259 70.085C22.2983 70.1415 22.352 70.2235 22.3869 70.3308C22.4218 70.4375 22.4393 70.5664 22.4393 70.7176ZM21.7581 70.7176C21.7581 70.8237 21.7638 70.9123 21.7752 70.9834C21.7873 71.0539 21.8073 71.107 21.8353 71.1425C21.8632 71.1781 21.902 71.1959 21.9515 71.1959C22.0004 71.1959 22.0388 71.1784 22.0668 71.1435C22.0954 71.1079 22.1157 71.0549 22.1278 70.9844C22.1398 70.9132 22.1459 70.8243 22.1459 70.7176C22.1459 70.6115 22.1398 70.5229 22.1278 70.4518C22.1157 70.3807 22.0954 70.3273 22.0668 70.2917C22.0388 70.2555 22.0004 70.2374 21.9515 70.2374C21.902 70.2374 21.8632 70.2555 21.8353 70.2917C21.8073 70.3273 21.7873 70.3807 21.7752 70.4518C21.7638 70.5229 21.7581 70.6115 21.7581 70.7176Z" fill="#212121"/>
<path d="M38.5446 71.4141H37.5709V71.2092L37.9205 70.8558C37.991 70.7833 38.0476 70.723 38.0901 70.6747C38.1333 70.6258 38.1644 70.5814 38.1835 70.5413C38.2032 70.5013 38.213 70.4585 38.213 70.4127C38.213 70.3575 38.1975 70.3162 38.1663 70.2889C38.1359 70.2609 38.0949 70.247 38.0434 70.247C37.9895 70.247 37.9371 70.2593 37.8862 70.2841C37.8354 70.3089 37.7824 70.3441 37.7271 70.3899L37.5671 70.2003C37.6071 70.166 37.6493 70.1336 37.6938 70.1031C37.7389 70.0726 37.791 70.0481 37.85 70.0297C37.9097 70.0107 37.9812 70.0011 38.0644 70.0011C38.1559 70.0011 38.2343 70.0177 38.2997 70.0507C38.3658 70.0837 38.4166 70.1288 38.4522 70.186C38.4877 70.2425 38.5055 70.3067 38.5055 70.3784C38.5055 70.4553 38.4903 70.5255 38.4598 70.589C38.4293 70.6525 38.3848 70.7154 38.3264 70.7776C38.2686 70.8399 38.1987 70.9088 38.1168 70.9844L37.9377 71.153V71.1663H38.5446V71.4141Z" fill="#212121"/>
<path d="M46.7833 70.3327C46.7833 70.3968 46.7699 70.4524 46.7432 70.4994C46.7166 70.5464 46.6804 70.5849 46.6346 70.6147C46.5895 70.6446 46.5387 70.6665 46.4822 70.6804V70.6862C46.594 70.7001 46.6788 70.7344 46.7366 70.7891C46.795 70.8437 46.8242 70.9167 46.8242 71.0082C46.8242 71.0895 46.8042 71.1622 46.7642 71.2264C46.7248 71.2905 46.6638 71.341 46.5813 71.3779C46.4987 71.4147 46.3923 71.4331 46.2621 71.4331C46.1852 71.4331 46.1135 71.4268 46.0468 71.4141C45.9807 71.402 45.9185 71.3833 45.86 71.3579V71.1073C45.9197 71.1378 45.9823 71.161 46.0477 71.1768C46.1132 71.1921 46.1741 71.1997 46.2307 71.1997C46.3361 71.1997 46.4098 71.1816 46.4517 71.1454C46.4943 71.1085 46.5155 71.0571 46.5155 70.991C46.5155 70.9523 46.5057 70.9196 46.486 70.8929C46.4663 70.8662 46.432 70.8459 46.3831 70.8319C46.3348 70.818 46.2672 70.811 46.1802 70.811H46.0744V70.5852H46.1821C46.2678 70.5852 46.3329 70.5772 46.3774 70.5614C46.4225 70.5448 46.453 70.5226 46.4688 70.4947C46.4854 70.4661 46.4936 70.4337 46.4936 70.3975C46.4936 70.3479 46.4784 70.3092 46.4479 70.2812C46.4174 70.2533 46.3666 70.2393 46.2954 70.2393C46.251 70.2393 46.2103 70.245 46.1735 70.2565C46.1373 70.2673 46.1046 70.2806 46.0754 70.2965C46.0461 70.3117 46.0204 70.3267 45.9982 70.3413L45.8619 70.1383C45.9166 70.099 45.9804 70.0662 46.0534 70.0402C46.1271 70.0142 46.2148 70.0011 46.3164 70.0011C46.46 70.0011 46.5736 70.03 46.6575 70.0878C46.7413 70.1456 46.7833 70.2273 46.7833 70.3327Z" fill="#212121"/>
<path d="M54.9178 71.1254H54.7501V71.4141H54.4624V71.1254H53.8679V70.9205L54.4786 70.0212H54.7501V70.8967H54.9178V71.1254ZM54.4624 70.8967V70.6604C54.4624 70.6382 54.4627 70.6119 54.4634 70.5814C54.4646 70.5509 54.4659 70.5204 54.4672 70.4899C54.4684 70.4594 54.4697 70.4324 54.471 70.4089C54.4729 70.3848 54.4742 70.3679 54.4748 70.3584H54.4672C54.4551 70.3845 54.4424 70.4099 54.4291 70.4346C54.4157 70.4588 54.4002 70.4842 54.3824 70.5109L54.127 70.8967H54.4624Z" fill="#212121"/>
<path d="M62.4684 70.5242C62.5535 70.5242 62.6291 70.5404 62.6951 70.5728C62.7618 70.6052 62.8142 70.6528 62.8523 70.7157C62.8904 70.7786 62.9095 70.8561 62.9095 70.9482C62.9095 71.0485 62.8885 71.1352 62.8466 71.2083C62.8053 71.2807 62.7434 71.3363 62.6608 71.375C62.5789 71.4137 62.4766 71.4331 62.354 71.4331C62.281 71.4331 62.2121 71.4268 62.1473 71.4141C62.0831 71.402 62.0269 71.3833 61.9787 71.3579V71.1035C62.0269 71.1289 62.0847 71.1505 62.1521 71.1683C62.22 71.1854 62.2839 71.194 62.3436 71.194C62.402 71.194 62.4512 71.1864 62.4912 71.1711C62.5312 71.1552 62.5614 71.1311 62.5817 71.0987C62.6027 71.0657 62.6132 71.0238 62.6132 70.9729C62.6132 70.905 62.5903 70.8529 62.5446 70.8167C62.4989 70.7805 62.4287 70.7624 62.334 70.7624C62.2978 70.7624 62.26 70.7659 62.2207 70.7729C62.1819 70.7799 62.1495 70.7868 62.1235 70.7938L62.0063 70.7309L62.0587 70.0212H62.8142V70.2708H62.3169L62.2912 70.5442C62.3128 70.5398 62.3363 70.5353 62.3617 70.5309C62.3871 70.5264 62.4226 70.5242 62.4684 70.5242Z" fill="#212121"/>
<path d="M70.0008 70.8224C70.0008 70.7424 70.0065 70.6633 70.018 70.5852C70.03 70.5064 70.0507 70.4324 70.0799 70.3632C70.1091 70.2933 70.1501 70.2317 70.2028 70.1784C70.2555 70.1244 70.3225 70.0821 70.4038 70.0516C70.4851 70.0205 70.5836 70.005 70.6992 70.005C70.7265 70.005 70.7582 70.0062 70.7944 70.0088C70.8313 70.0107 70.8618 70.0142 70.8859 70.0192V70.2546C70.8605 70.2489 70.8332 70.2444 70.804 70.2412C70.7754 70.2374 70.7468 70.2355 70.7182 70.2355C70.6026 70.2355 70.5131 70.2539 70.4496 70.2908C70.3867 70.3276 70.3422 70.3787 70.3162 70.4442C70.2908 70.509 70.2758 70.5845 70.2714 70.6709H70.2838C70.3016 70.6398 70.3238 70.6122 70.3505 70.588C70.3778 70.5639 70.4108 70.5448 70.4496 70.5309C70.4883 70.5163 70.5337 70.509 70.5858 70.509C70.6671 70.509 70.7376 70.5264 70.7973 70.5614C70.857 70.5957 70.9031 70.6455 70.9355 70.7109C70.9678 70.7764 70.984 70.8561 70.984 70.9501C70.984 71.0504 70.9647 71.1368 70.9259 71.2092C70.8872 71.2816 70.8322 71.3372 70.7611 71.376C70.6906 71.4141 70.6068 71.4331 70.5096 71.4331C70.4384 71.4331 70.3721 71.421 70.3105 71.3969C70.2488 71.3721 70.1949 71.3347 70.1485 71.2845C70.1021 71.2343 70.0659 71.1711 70.0399 71.0949C70.0138 71.018 70.0008 70.9272 70.0008 70.8224ZM70.5039 71.1978C70.5617 71.1978 70.6087 71.1781 70.6449 71.1387C70.6811 71.0993 70.6992 71.0377 70.6992 70.9539C70.6992 70.8859 70.6833 70.8326 70.6515 70.7938C70.6204 70.7544 70.5731 70.7348 70.5096 70.7348C70.4664 70.7348 70.4283 70.7446 70.3952 70.7643C70.3629 70.7833 70.3378 70.8078 70.32 70.8377C70.3022 70.8669 70.2933 70.897 70.2933 70.9282C70.2933 70.9606 70.2977 70.9926 70.3066 71.0244C70.3155 71.0561 70.3289 71.085 70.3467 71.1111C70.3644 71.1371 70.3864 71.1581 70.4124 71.174C70.4391 71.1899 70.4696 71.1978 70.5039 71.1978Z" fill="#212121"/>
<path d="M77.9532 71.4141L78.4762 70.2689H77.7893V70.0212H78.7887V70.206L78.2619 71.4141H77.9532Z" fill="#212121"/>
<path d="M21.1222 68.9247C21.1222 68.9921 21.1768 69.0467 21.2441 69.0467C21.3115 69.0467 21.3661 68.9921 21.3661 68.9247H21.1222ZM21.2441 21.8516H21.1222V22.0967H21.2441H21.3661V21.8516H21.2441ZM21.2441 22.5871H21.1222V23.0774H21.2441H21.3661V22.5871H21.2441ZM21.2441 23.5678H21.1222V24.0581H21.2441H21.3661V23.5678H21.2441ZM21.2441 24.5485H21.1222V25.0388H21.2441H21.3661V24.5485H21.2441ZM21.2441 25.5292H21.1222V26.0195H21.2441H21.3661V25.5292H21.2441ZM21.2441 26.5098H21.1222V27.0002H21.2441H21.3661V26.5098H21.2441ZM21.2441 27.4905H21.1222V27.9809H21.2441H21.3661V27.4905H21.2441ZM21.2441 28.4712H21.1222V28.9616H21.2441H21.3661V28.4712H21.2441ZM21.2441 29.4519H21.1222V29.9423H21.2441H21.3661V29.4519H21.2441ZM21.2441 30.4326H21.1222V30.923H21.2441H21.3661V30.4326H21.2441ZM21.2441 31.4133H21.1222V31.9036H21.2441H21.3661V31.4133H21.2441ZM21.2441 32.394H21.1222V32.8843H21.2441H21.3661V32.394H21.2441ZM21.2441 33.3747H21.1222V33.865H21.2441H21.3661V33.3747H21.2441ZM21.2441 34.3554H21.1222V34.8457H21.2441H21.3661V34.3554H21.2441ZM21.2441 35.3361H21.1222V35.8264H21.2441H21.3661V35.3361H21.2441ZM21.2441 36.3168H21.1222V36.8071H21.2441H21.3661V36.3168H21.2441ZM21.2441 37.2975H21.1222V37.7878H21.2441H21.3661V37.2975H21.2441ZM21.2441 38.2781H21.1222V38.7685H21.2441H21.3661V38.2781H21.2441ZM21.2441 39.2588H21.1222V39.7492H21.2441H21.3661V39.2588H21.2441ZM21.2441 40.2395H21.1222V40.7299H21.2441H21.3661V40.2395H21.2441ZM21.2441 41.2202H21.1222V41.7106H21.2441H21.3661V41.2202H21.2441ZM21.2441 42.2009H21.1222V42.6912H21.2441H21.3661V42.2009H21.2441ZM21.2441 43.1816H21.1222V43.6719H21.2441H21.3661V43.1816H21.2441ZM21.2441 44.1623H21.1222V44.6526H21.2441H21.3661V44.1623H21.2441ZM21.2441 45.143H21.1222V45.6333H21.2441H21.3661V45.143H21.2441ZM21.2441 46.1237H21.1222V46.614H21.2441H21.3661V46.1237H21.2441ZM21.2441 47.1044H21.1222V47.5947H21.2441H21.3661V47.1044H21.2441ZM21.2441 48.085H21.1222V48.5754H21.2441H21.3661V48.085H21.2441ZM21.2441 49.0657H21.1222V49.5561H21.2441H21.3661V49.0657H21.2441ZM21.2441 50.0464H21.1222V50.5368H21.2441H21.3661V50.0464H21.2441ZM21.2441 51.0271H21.1222V51.5175H21.2441H21.3661V51.0271H21.2441ZM21.2441 52.0078H21.1222V52.4981H21.2441H21.3661V52.0078H21.2441ZM21.2441 52.9885H21.1222V53.4788H21.2441H21.3661V52.9885H21.2441ZM21.2441 53.9692H21.1222V54.4595H21.2441H21.3661V53.9692H21.2441ZM21.2441 54.9499H21.1222V55.4402H21.2441H21.3661V54.9499H21.2441ZM21.2441 55.9306H21.1222V56.4209H21.2441H21.3661V55.9306H21.2441ZM21.2441 56.9113H21.1222V57.4016H21.2441H21.3661V56.9113H21.2441ZM21.2441 57.8919H21.1222V58.3823H21.2441H21.3661V57.8919H21.2441ZM21.2441 58.8726H21.1222V59.363H21.2441H21.3661V58.8726H21.2441ZM21.2441 59.8533H21.1222V60.3437H21.2441H21.3661V59.8533H21.2441ZM21.2441 60.834H21.1222V61.3244H21.2441H21.3661V60.834H21.2441ZM21.2441 61.8147H21.1222V62.305H21.2441H21.3661V61.8147H21.2441ZM21.2441 62.7954H21.1222V63.2857H21.2441H21.3661V62.7954H21.2441ZM21.2441 63.7761H21.1222V64.2664H21.2441H21.3661V63.7761H21.2441ZM21.2441 64.7568H21.1222V65.2471H21.2441H21.3661V64.7568H21.2441ZM21.2441 65.7375H21.1222V66.2278H21.2441H21.3661V65.7375H21.2441ZM21.2441 66.7182H21.1222V67.2085H21.2441H21.3661V66.7182H21.2441ZM21.2441 67.6988H21.1222V68.1892H21.2441H21.3661V67.6988H21.2441ZM21.2441 68.6795H21.1222V68.9247H21.2441H21.3661V68.6795H21.2441Z" fill="#D4D4D4"/>
<path d="M21.2441 68.9258H77.5856" stroke="#D4D4D4" stroke-width="0.243902"/>
<path d="M26.9344 52.0773L26.3618 51.8338C24.0275 50.8412 21.4375 52.5792 21.4375 55.1159V68.7894H77.3955V56.1386C75.8974 57.384 74.4675 55.9104 73.4127 53.9776C72.5044 52.3132 70.4302 51.4548 68.7857 52.3988C67.3327 53.2329 65.4775 52.6875 64.707 51.1998L63.3607 48.6003C62.5373 47.0104 60.6563 46.2858 58.9791 46.9124L56.8071 47.724C55.6944 48.1397 54.4408 47.8364 53.6411 46.9581C52.1467 45.3167 49.4381 45.8891 48.7356 47.9949L46.7722 53.8801C46.3565 55.126 44.6232 55.2025 44.0995 53.998C43.8099 53.3319 43.0678 52.988 42.3724 53.1976L41.6966 53.4012C40.6789 53.7079 39.5864 53.2526 39.0878 52.314L38.3947 51.0094C37.4086 49.1531 35.0314 48.5603 33.2891 49.7362L30.2994 51.7539C29.305 52.425 28.0384 52.5467 26.9344 52.0773Z" fill="url(#paint0_linear_7800_43669)"/>
<g filter="url(#filter0_d_7800_43669)">
<circle cx="54.8567" cy="47.2336" r="1.17892" fill="#314CFF"/>
<circle cx="54.8567" cy="47.2336" r="1.42282" stroke="white" stroke-width="0.487805"/>
</g>
<g filter="url(#filter1_d_7800_43669)">
<path d="M56.3574 42.5957C56.9108 42.652 57.3428 43.1193 57.3428 43.6875V44.1758C57.3425 44.7817 56.8511 45.2724 56.2451 45.2725H55.2285L54.7812 45.7188L54.335 45.2725H53.3184C52.7124 45.2724 52.221 44.7817 52.2207 44.1758V43.6875C52.2207 43.0814 52.7122 42.5899 53.3184 42.5898H56.2451L56.3574 42.5957Z" fill="white"/>
</g>
<path d="M54.2033 44.7148H54.0346V44.0424C54.0346 44.0201 54.0349 43.9977 54.0353 43.9753C54.0358 43.9529 54.0363 43.931 54.0368 43.9095C54.0377 43.8881 54.0389 43.8676 54.0403 43.8481C54.0303 43.859 54.018 43.871 54.0032 43.8838C53.9889 43.8967 53.9737 43.91 53.9575 43.9238L53.8374 44.0196L53.7531 43.9131L54.0632 43.6702H54.2033V44.7148ZM55.3154 44.1918C55.3154 44.2761 55.3087 44.3516 55.2954 44.4183C55.2825 44.4845 55.262 44.5407 55.2339 44.5869C55.2058 44.6331 55.1691 44.6684 55.1239 44.6927C55.0786 44.717 55.0238 44.7291 54.9595 44.7291C54.879 44.7291 54.8125 44.7079 54.7601 44.6655C54.7077 44.6227 54.6689 44.5612 54.6437 44.4812C54.6184 44.4007 54.6058 44.3042 54.6058 44.1918C54.6058 44.0794 54.6172 43.9831 54.6401 43.9031C54.6634 43.8226 54.7011 43.7609 54.753 43.718C54.8049 43.6752 54.8738 43.6537 54.9595 43.6537C55.0405 43.6537 55.1072 43.6752 55.1596 43.718C55.2125 43.7604 55.2515 43.8219 55.2768 43.9024C55.3025 43.9824 55.3154 44.0789 55.3154 44.1918ZM54.7752 44.1918C54.7752 44.2799 54.7809 44.3535 54.7923 44.4126C54.8042 44.4717 54.8237 44.516 54.8509 44.5455C54.878 44.5746 54.9143 44.5891 54.9595 44.5891C55.0048 44.5891 55.041 44.5746 55.0681 44.5455C55.0953 44.5164 55.1148 44.4724 55.1267 44.4133C55.1391 44.3542 55.1453 44.2804 55.1453 44.1918C55.1453 44.1041 55.1393 44.0308 55.1274 43.9717C55.1155 43.9126 55.096 43.8683 55.0688 43.8388C55.0417 43.8088 55.0052 43.7938 54.9595 43.7938C54.9138 43.7938 54.8773 43.8088 54.8502 43.8388C54.8235 43.8683 54.8042 43.9126 54.7923 43.9717C54.7809 44.0308 54.7752 44.1041 54.7752 44.1918ZM56.2138 44.1918C56.2138 44.2761 56.2071 44.3516 56.1938 44.4183C56.1809 44.4845 56.1604 44.5407 56.1323 44.5869C56.1042 44.6331 56.0675 44.6684 56.0223 44.6927C55.977 44.717 55.9223 44.7291 55.8579 44.7291C55.7774 44.7291 55.711 44.7079 55.6586 44.6655C55.6062 44.6227 55.5674 44.5612 55.5421 44.4812C55.5169 44.4007 55.5042 44.3042 55.5042 44.1918C55.5042 44.0794 55.5157 43.9831 55.5385 43.9031C55.5619 43.8226 55.5995 43.7609 55.6514 43.718C55.7034 43.6752 55.7722 43.6537 55.8579 43.6537C55.9389 43.6537 56.0056 43.6752 56.058 43.718C56.1109 43.7604 56.15 43.8219 56.1752 43.9024C56.2009 43.9824 56.2138 44.0789 56.2138 44.1918ZM55.6736 44.1918C55.6736 44.2799 55.6793 44.3535 55.6907 44.4126C55.7026 44.4717 55.7222 44.516 55.7493 44.5455C55.7765 44.5746 55.8127 44.5891 55.8579 44.5891C55.9032 44.5891 55.9394 44.5746 55.9666 44.5455C55.9937 44.5164 56.0132 44.4724 56.0252 44.4133C56.0375 44.3542 56.0437 44.2804 56.0437 44.1918C56.0437 44.1041 56.0378 44.0308 56.0259 43.9717C56.014 43.9126 55.9944 43.8683 55.9673 43.8388C55.9401 43.8088 55.9037 43.7938 55.8579 43.7938C55.8122 43.7938 55.7758 43.8088 55.7486 43.8388C55.7219 43.8683 55.7026 43.9126 55.6907 43.9717C55.6793 44.0308 55.6736 44.1041 55.6736 44.1918Z" fill="#212121"/>
<defs>
<filter id="filter0_d_7800_43669" x="52.0431" y="44.1762" width="6.11447" height="6.11252" filterUnits="userSpaceOnUse" color-interpolation-filters="sRGB">
<feFlood flood-opacity="0" result="BackgroundImageFix"/>
<feColorMatrix in="SourceAlpha" type="matrix" values="0 0 0 0 0 0 0 0 0 0 0 0 0 0 0 0 0 0 127 0" result="hardAlpha"/>
<feMorphology radius="0.243902" operator="dilate" in="SourceAlpha" result="effect1_dropShadow_7800_43669"/>
<feOffset dx="0.243902"/>
<feGaussianBlur stdDeviation="0.573171"/>
<feComposite in2="hardAlpha" operator="out"/>
<feColorMatrix type="matrix" values="0 0 0 0 0.192157 0 0 0 0 0.298039 0 0 0 0 1 0 0 0 0.15 0"/>
<feBlend mode="normal" in2="BackgroundImageFix" result="effect1_dropShadow_7800_43669"/>
<feBlend mode="normal" in="SourceGraphic" in2="effect1_dropShadow_7800_43669" result="shape"/>
</filter>
<filter id="filter1_d_7800_43669" x="50.2695" y="40.8825" width="9.02549" height="7.03135" filterUnits="userSpaceOnUse" color-interpolation-filters="sRGB">
<feFlood flood-opacity="0" result="BackgroundImageFix"/>
<feColorMatrix in="SourceAlpha" type="matrix" values="0 0 0 0 0 0 0 0 0 0 0 0 0 0 0 0 0 0 127 0" result="hardAlpha"/>
<feOffset dy="0.243902"/>
<feGaussianBlur stdDeviation="0.97561"/>
<feColorMatrix type="matrix" values="0 0 0 0 0.293333 0 0 0 0 0.333211 0 0 0 0 0.431373 0 0 0 0.2 0"/>
<feBlend mode="normal" in2="BackgroundImageFix" result="effect1_dropShadow_7800_43669"/>
<feBlend mode="normal" in="SourceGraphic" in2="effect1_dropShadow_7800_43669" result="shape"/>
</filter>
<linearGradient id="paint0_linear_7800_43669" x1="49.4165" y1="43.293" x2="49.4165" y2="68.7894" gradientUnits="userSpaceOnUse">
<stop stop-color="#394CFF"/>
<stop offset="1" stop-color="#04129B"/>
</linearGradient>
</defs>
</svg>
