<svg width="92" height="92" viewBox="0 0 92 92" fill="none" xmlns="http://www.w3.org/2000/svg">
<rect x="0.389831" y="0.389831" width="91.079" height="91.2203" rx="17.5424" stroke="#BEBEBE" stroke-width="0.779661"/>
<g clip-path="url(#clip0_7800_42338)">
<rect width="70" height="60.7317" transform="translate(11 16)" fill="white"/>
<path d="M20.7559 21.8516V68.9247" stroke="#E0E0E0" stroke-width="0.243902"/>
<path d="M28.6847 68.9247C28.6847 68.9921 28.7393 69.0467 28.8066 69.0467C28.874 69.0467 28.9286 68.9921 28.9286 68.9247H28.6847ZM28.8066 21.8516H28.6847V68.9247H28.8066H28.9286V21.8516H28.8066Z" fill="#E0E0E0"/>
<path d="M36.7316 68.9247C36.7316 68.9921 36.7862 69.0467 36.8535 69.0467C36.9209 69.0467 36.9755 68.9921 36.9755 68.9247H36.7316ZM36.8535 21.8516H36.7316V68.9247H36.8535H36.9755V21.8516H36.8535Z" fill="#E0E0E0"/>
<path d="M44.7823 68.9247C44.7823 68.9921 44.8369 69.0467 44.9043 69.0467C44.9716 69.0467 45.0262 68.9921 45.0262 68.9247H44.7823ZM44.9043 21.8516H44.7823V68.9247H44.9043H45.0262V21.8516H44.9043Z" fill="#E0E0E0"/>
<path d="M52.8292 68.9247C52.8292 68.9921 52.8838 69.0467 52.9512 69.0467C53.0185 69.0467 53.0731 68.9921 53.0731 68.9247H52.8292ZM52.9512 21.8516H52.8292V68.9247H52.9512H53.0731V21.8516H52.9512Z" fill="#E0E0E0"/>
<path d="M60.88 68.9247C60.88 68.9921 60.9346 69.0467 61.002 69.0467C61.0693 69.0467 61.1239 68.9921 61.1239 68.9247H60.88ZM61.002 21.8516H60.88V68.9247H61.002H61.1239V21.8516H61.002Z" fill="#E0E0E0"/>
<path d="M68.9269 68.9247C68.9269 68.9921 68.9815 69.0467 69.0488 69.0467C69.1162 69.0467 69.1708 68.9921 69.1708 68.9247H68.9269ZM69.0488 21.8516H68.9269V68.9247H69.0488H69.1708V21.8516H69.0488Z" fill="#E0E0E0"/>
<path d="M76.9757 68.9247C76.9757 68.9921 77.0303 69.0467 77.0977 69.0467C77.165 69.0467 77.2196 68.9921 77.2196 68.9247H76.9757ZM77.0977 21.8516H76.9757V68.9247H77.0977H77.2196V21.8516H77.0977Z" fill="#E0E0E0"/>
<path d="M20.877 65.508L28.8038 37.8077L36.9196 46.9624L44.9013 33.0472L52.9501 40.7372L61.066 56.7275L69.1148 38.5401L77.0965 27.7031" stroke="#90DFFF" stroke-width="0.487805"/>
<path d="M28.8037 36.6025C29.4098 36.6027 29.9014 37.0941 29.9014 37.7002C29.9013 38.3062 29.4097 38.7977 28.8037 38.7979C28.1976 38.7979 27.7062 38.3063 27.7061 37.7002C27.7061 37.094 28.1975 36.6025 28.8037 36.6025Z" fill="white" stroke="#90DFFF" stroke-width="0.243902"/>
<path d="M28.804 38.4361C29.2081 38.4361 29.5357 38.1085 29.5357 37.7044C29.5357 37.3003 29.2081 36.9727 28.804 36.9727C28.3999 36.9727 28.0723 37.3003 28.0723 37.7044C28.0723 38.1085 28.3999 38.4361 28.804 38.4361Z" fill="#90DFFF"/>
<path d="M69.0501 39.1704C69.4542 39.1704 69.7818 38.8428 69.7818 38.4387C69.7818 38.0346 69.4542 37.707 69.0501 37.707C68.646 37.707 68.3184 38.0346 68.3184 38.4387C68.3184 38.8428 68.646 39.1704 69.0501 39.1704Z" fill="#90DFFF"/>
<path d="M77.0969 28.4634C77.5011 28.4634 77.8286 28.1358 77.8286 27.7317C77.8286 27.3276 77.5011 27 77.0969 27C76.6928 27 76.3652 27.3276 76.3652 27.7317C76.3652 28.1358 76.6928 28.4634 77.0969 28.4634Z" fill="#90DFFF"/>
<path d="M14.9008 23.8516H13.9271V23.6467L14.2767 23.2933C14.3473 23.2208 14.4038 23.1605 14.4463 23.1122C14.4895 23.0633 14.5207 23.0189 14.5397 22.9788C14.5594 22.9388 14.5692 22.896 14.5692 22.8502C14.5692 22.795 14.5537 22.7537 14.5226 22.7264C14.4921 22.6984 14.4511 22.6845 14.3997 22.6845C14.3457 22.6845 14.2933 22.6968 14.2424 22.7216C14.1916 22.7464 14.1386 22.7816 14.0833 22.8274L13.9233 22.6378C13.9633 22.6035 14.0055 22.5711 14.05 22.5406C14.0951 22.5101 14.1472 22.4856 14.2062 22.4672C14.266 22.4482 14.3374 22.4386 14.4206 22.4386C14.5121 22.4386 14.5905 22.4552 14.6559 22.4882C14.722 22.5212 14.7728 22.5663 14.8084 22.6235C14.8439 22.68 14.8617 22.7442 14.8617 22.8159C14.8617 22.8928 14.8465 22.963 14.816 23.0265C14.7855 23.09 14.7411 23.1529 14.6826 23.2151C14.6248 23.2774 14.5549 23.3463 14.473 23.4219L14.2939 23.5905V23.6038H14.9008V23.8516ZM15.5506 22.9617C15.6357 22.9617 15.7113 22.9779 15.7773 23.0103C15.844 23.0427 15.8964 23.0903 15.9345 23.1532C15.9726 23.2161 15.9917 23.2936 15.9917 23.3857C15.9917 23.486 15.9707 23.5727 15.9288 23.6458C15.8875 23.7182 15.8256 23.7738 15.743 23.8125C15.6611 23.8512 15.5588 23.8706 15.4362 23.8706C15.3632 23.8706 15.2943 23.8643 15.2295 23.8516C15.1653 23.8395 15.1091 23.8208 15.0609 23.7954V23.541C15.1091 23.5664 15.1669 23.588 15.2343 23.6058C15.3022 23.6229 15.3661 23.6315 15.4258 23.6315C15.4842 23.6315 15.5334 23.6239 15.5734 23.6086C15.6134 23.5927 15.6436 23.5686 15.6639 23.5362C15.6849 23.5032 15.6954 23.4613 15.6954 23.4104C15.6954 23.3425 15.6725 23.2904 15.6268 23.2542C15.5811 23.218 15.5109 23.1999 15.4162 23.1999C15.38 23.1999 15.3422 23.2034 15.3029 23.2104C15.2641 23.2174 15.2317 23.2243 15.2057 23.2313L15.0885 23.1684L15.1409 22.4587H15.8964V22.7083H15.3991L15.3734 22.9817C15.395 22.9773 15.4185 22.9728 15.4439 22.9684C15.4693 22.9639 15.5048 22.9617 15.5506 22.9617ZM17.1264 23.1551C17.1264 23.2675 17.1175 23.3679 17.0997 23.4562C17.0826 23.5445 17.0546 23.6194 17.0159 23.681C16.9778 23.7426 16.9276 23.7896 16.8654 23.822C16.8031 23.8544 16.7275 23.8706 16.6386 23.8706C16.5268 23.8706 16.435 23.8424 16.3633 23.7858C16.2915 23.7287 16.2384 23.6467 16.2041 23.54C16.1699 23.4327 16.1527 23.3044 16.1527 23.1551C16.1527 23.0046 16.1683 22.876 16.1994 22.7692C16.2311 22.6619 16.2826 22.5796 16.3537 22.5225C16.4249 22.4653 16.5198 22.4367 16.6386 22.4367C16.7498 22.4367 16.8412 22.4653 16.913 22.5225C16.9854 22.579 17.0391 22.661 17.074 22.7683C17.1089 22.875 17.1264 23.0039 17.1264 23.1551ZM16.4452 23.1551C16.4452 23.2612 16.4509 23.3498 16.4623 23.4209C16.4744 23.4914 16.4944 23.5445 16.5224 23.58C16.5503 23.6156 16.5891 23.6334 16.6386 23.6334C16.6875 23.6334 16.7259 23.6159 16.7539 23.581C16.7825 23.5454 16.8028 23.4924 16.8149 23.4219C16.8269 23.3507 16.833 23.2618 16.833 23.1551C16.833 23.049 16.8269 22.9604 16.8149 22.8893C16.8028 22.8182 16.7825 22.7648 16.7539 22.7292C16.7259 22.693 16.6875 22.6749 16.6386 22.6749C16.5891 22.6749 16.5503 22.693 16.5224 22.7292C16.4944 22.7648 16.4744 22.8182 16.4623 22.8893C16.4509 22.9604 16.4452 23.049 16.4452 23.1551ZM18.243 23.1551C18.243 23.2675 18.2341 23.3679 18.2163 23.4562C18.1992 23.5445 18.1712 23.6194 18.1325 23.681C18.0944 23.7426 18.0442 23.7896 17.982 23.822C17.9197 23.8544 17.8441 23.8706 17.7552 23.8706C17.6434 23.8706 17.5516 23.8424 17.4799 23.7858C17.4081 23.7287 17.3551 23.6467 17.3208 23.54C17.2865 23.4327 17.2693 23.3044 17.2693 23.1551C17.2693 23.0046 17.2849 22.876 17.316 22.7692C17.3478 22.6619 17.3992 22.5796 17.4703 22.5225C17.5415 22.4653 17.6364 22.4367 17.7552 22.4367C17.8664 22.4367 17.9578 22.4653 18.0296 22.5225C18.102 22.579 18.1557 22.661 18.1906 22.7683C18.2256 22.875 18.243 23.0039 18.243 23.1551ZM17.5618 23.1551C17.5618 23.2612 17.5675 23.3498 17.579 23.4209C17.591 23.4914 17.611 23.5445 17.639 23.58C17.6669 23.6156 17.7057 23.6334 17.7552 23.6334C17.8041 23.6334 17.8426 23.6159 17.8705 23.581C17.8991 23.5454 17.9194 23.4924 17.9315 23.4219C17.9435 23.3507 17.9496 23.2618 17.9496 23.1551C17.9496 23.049 17.9435 22.9604 17.9315 22.8893C17.9194 22.8182 17.8991 22.7648 17.8705 22.7292C17.8426 22.693 17.8041 22.6749 17.7552 22.6749C17.7057 22.6749 17.6669 22.693 17.639 22.7292C17.611 22.7648 17.591 22.8182 17.579 22.8893C17.5675 22.9604 17.5618 23.049 17.5618 23.1551Z" fill="#212121"/>
<path d="M14.9008 31.2422H13.9271V31.0373L14.2767 30.6839C14.3473 30.6115 14.4038 30.5511 14.4463 30.5029C14.4895 30.454 14.5207 30.4095 14.5397 30.3695C14.5594 30.3295 14.5692 30.2866 14.5692 30.2409C14.5692 30.1856 14.5537 30.1443 14.5226 30.117C14.4921 30.089 14.4511 30.0751 14.3997 30.0751C14.3457 30.0751 14.2933 30.0875 14.2424 30.1122C14.1916 30.137 14.1386 30.1723 14.0833 30.218L13.9233 30.0284C13.9633 29.9941 14.0055 29.9617 14.05 29.9312C14.0951 29.9007 14.1472 29.8763 14.2062 29.8579C14.266 29.8388 14.3374 29.8293 14.4206 29.8293C14.5121 29.8293 14.5905 29.8458 14.6559 29.8788C14.722 29.9118 14.7728 29.9569 14.8084 30.0141C14.8439 30.0706 14.8617 30.1348 14.8617 30.2066C14.8617 30.2834 14.8465 30.3536 14.816 30.4171C14.7855 30.4806 14.7411 30.5435 14.6826 30.6058C14.6248 30.668 14.5549 30.7369 14.473 30.8125L14.2939 30.9811V30.9945H14.9008V31.2422ZM16.0098 30.5457C16.0098 30.6582 16.0009 30.7585 15.9831 30.8468C15.966 30.9351 15.938 31.01 15.8993 31.0716C15.8612 31.1333 15.811 31.1803 15.7487 31.2127C15.6865 31.245 15.6109 31.2612 15.522 31.2612C15.4102 31.2612 15.3184 31.233 15.2466 31.1764C15.1749 31.1193 15.1218 31.0373 15.0875 30.9306C15.0532 30.8233 15.0361 30.695 15.0361 30.5457C15.0361 30.3952 15.0516 30.2666 15.0828 30.1599C15.1145 30.0525 15.166 29.9703 15.2371 29.9131C15.3083 29.8559 15.4032 29.8274 15.522 29.8274C15.6331 29.8274 15.7246 29.8559 15.7964 29.9131C15.8688 29.9696 15.9225 30.0516 15.9574 30.1589C15.9923 30.2656 16.0098 30.3946 16.0098 30.5457ZM15.3286 30.5457C15.3286 30.6518 15.3343 30.7404 15.3457 30.8115C15.3578 30.8821 15.3778 30.9351 15.4058 30.9707C15.4337 31.0062 15.4724 31.024 15.522 31.024C15.5709 31.024 15.6093 31.0065 15.6373 30.9716C15.6658 30.936 15.6862 30.883 15.6982 30.8125C15.7103 30.7414 15.7163 30.6524 15.7163 30.5457C15.7163 30.4397 15.7103 30.3511 15.6982 30.2799C15.6862 30.2088 15.6658 30.1554 15.6373 30.1199C15.6093 30.0837 15.5709 30.0655 15.522 30.0655C15.4724 30.0655 15.4337 30.0837 15.4058 30.1199C15.3778 30.1554 15.3578 30.2088 15.3457 30.2799C15.3343 30.3511 15.3286 30.4397 15.3286 30.5457ZM17.1264 30.5457C17.1264 30.6582 17.1175 30.7585 17.0997 30.8468C17.0826 30.9351 17.0546 31.01 17.0159 31.0716C16.9778 31.1333 16.9276 31.1803 16.8654 31.2127C16.8031 31.245 16.7275 31.2612 16.6386 31.2612C16.5268 31.2612 16.435 31.233 16.3633 31.1764C16.2915 31.1193 16.2384 31.0373 16.2041 30.9306C16.1699 30.8233 16.1527 30.695 16.1527 30.5457C16.1527 30.3952 16.1683 30.2666 16.1994 30.1599C16.2311 30.0525 16.2826 29.9703 16.3537 29.9131C16.4249 29.8559 16.5198 29.8274 16.6386 29.8274C16.7498 29.8274 16.8412 29.8559 16.913 29.9131C16.9854 29.9696 17.0391 30.0516 17.074 30.1589C17.1089 30.2656 17.1264 30.3946 17.1264 30.5457ZM16.4452 30.5457C16.4452 30.6518 16.4509 30.7404 16.4623 30.8115C16.4744 30.8821 16.4944 30.9351 16.5224 30.9707C16.5503 31.0062 16.5891 31.024 16.6386 31.024C16.6875 31.024 16.7259 31.0065 16.7539 30.9716C16.7825 30.936 16.8028 30.883 16.8149 30.8125C16.8269 30.7414 16.833 30.6524 16.833 30.5457C16.833 30.4397 16.8269 30.3511 16.8149 30.2799C16.8028 30.2088 16.7825 30.1554 16.7539 30.1199C16.7259 30.0837 16.6875 30.0655 16.6386 30.0655C16.5891 30.0655 16.5503 30.0837 16.5224 30.1199C16.4944 30.1554 16.4744 30.2088 16.4623 30.2799C16.4509 30.3511 16.4452 30.4397 16.4452 30.5457ZM18.243 30.5457C18.243 30.6582 18.2341 30.7585 18.2163 30.8468C18.1992 30.9351 18.1712 31.01 18.1325 31.0716C18.0944 31.1333 18.0442 31.1803 17.982 31.2127C17.9197 31.245 17.8441 31.2612 17.7552 31.2612C17.6434 31.2612 17.5516 31.233 17.4799 31.1764C17.4081 31.1193 17.3551 31.0373 17.3208 30.9306C17.2865 30.8233 17.2693 30.695 17.2693 30.5457C17.2693 30.3952 17.2849 30.2666 17.316 30.1599C17.3478 30.0525 17.3992 29.9703 17.4703 29.9131C17.5415 29.8559 17.6364 29.8274 17.7552 29.8274C17.8664 29.8274 17.9578 29.8559 18.0296 29.9131C18.102 29.9696 18.1557 30.0516 18.1906 30.1589C18.2256 30.2656 18.243 30.3946 18.243 30.5457ZM17.5618 30.5457C17.5618 30.6518 17.5675 30.7404 17.579 30.8115C17.591 30.8821 17.611 30.9351 17.639 30.9707C17.6669 31.0062 17.7057 31.024 17.7552 31.024C17.8041 31.024 17.8426 31.0065 17.8705 30.9716C17.8991 30.936 17.9194 30.883 17.9315 30.8125C17.9435 30.7414 17.9496 30.6524 17.9496 30.5457C17.9496 30.4397 17.9435 30.3511 17.9315 30.2799C17.9194 30.2088 17.8991 30.1554 17.8705 30.1199C17.8426 30.0837 17.8041 30.0655 17.7552 30.0655C17.7057 30.0655 17.6669 30.0837 17.639 30.1199C17.611 30.1554 17.591 30.2088 17.579 30.2799C17.5675 30.3511 17.5618 30.4397 17.5618 30.5457Z" fill="#212121"/>
<path d="M14.655 38.6328H14.3606V37.8268C14.3606 37.8046 14.3609 37.7772 14.3615 37.7449C14.3622 37.7118 14.3631 37.6782 14.3644 37.6439C14.3657 37.6089 14.3669 37.5775 14.3682 37.5495C14.3612 37.5578 14.3469 37.5721 14.3253 37.5924C14.3044 37.6121 14.2847 37.6299 14.2663 37.6458L14.1062 37.7744L13.9642 37.5972L14.413 37.2399H14.655V38.6328ZM15.5506 37.7429C15.6357 37.7429 15.7113 37.7591 15.7773 37.7915C15.844 37.8239 15.8964 37.8716 15.9345 37.9345C15.9726 37.9973 15.9917 38.0748 15.9917 38.1669C15.9917 38.2673 15.9707 38.354 15.9288 38.427C15.8875 38.4994 15.8256 38.555 15.743 38.5938C15.6611 38.6325 15.5588 38.6519 15.4362 38.6519C15.3632 38.6519 15.2943 38.6455 15.2295 38.6328C15.1653 38.6207 15.1091 38.602 15.0609 38.5766V38.3222C15.1091 38.3476 15.1669 38.3692 15.2343 38.387C15.3022 38.4042 15.3661 38.4127 15.4258 38.4127C15.4842 38.4127 15.5334 38.4051 15.5734 38.3899C15.6134 38.374 15.6436 38.3498 15.6639 38.3175C15.6849 38.2844 15.6954 38.2425 15.6954 38.1917C15.6954 38.1237 15.6725 38.0716 15.6268 38.0354C15.5811 37.9992 15.5109 37.9811 15.4162 37.9811C15.38 37.9811 15.3422 37.9846 15.3029 37.9916C15.2641 37.9986 15.2317 38.0056 15.2057 38.0126L15.0885 37.9497L15.1409 37.2399H15.8964V37.4895H15.3991L15.3734 37.763C15.395 37.7585 15.4185 37.7541 15.4439 37.7496C15.4693 37.7452 15.5048 37.7429 15.5506 37.7429ZM17.1264 37.9364C17.1264 38.0488 17.1175 38.1491 17.0997 38.2374C17.0826 38.3257 17.0546 38.4007 17.0159 38.4623C16.9778 38.5239 16.9276 38.5709 16.8654 38.6033C16.8031 38.6357 16.7275 38.6519 16.6386 38.6519C16.5268 38.6519 16.435 38.6236 16.3633 38.5671C16.2915 38.5099 16.2384 38.428 16.2041 38.3213C16.1699 38.2139 16.1527 38.0856 16.1527 37.9364C16.1527 37.7858 16.1683 37.6572 16.1994 37.5505C16.2311 37.4432 16.2826 37.3609 16.3537 37.3037C16.4249 37.2466 16.5198 37.218 16.6386 37.218C16.7498 37.218 16.8412 37.2466 16.913 37.3037C16.9854 37.3603 17.0391 37.4422 17.074 37.5495C17.1089 37.6563 17.1264 37.7852 17.1264 37.9364ZM16.4452 37.9364C16.4452 38.0424 16.4509 38.131 16.4623 38.2022C16.4744 38.2727 16.4944 38.3257 16.5224 38.3613C16.5503 38.3968 16.5891 38.4146 16.6386 38.4146C16.6875 38.4146 16.7259 38.3972 16.7539 38.3622C16.7825 38.3267 16.8028 38.2736 16.8149 38.2031C16.8269 38.132 16.833 38.0431 16.833 37.9364C16.833 37.8303 16.8269 37.7417 16.8149 37.6705C16.8028 37.5994 16.7825 37.546 16.7539 37.5105C16.7259 37.4743 16.6875 37.4562 16.6386 37.4562C16.5891 37.4562 16.5503 37.4743 16.5224 37.5105C16.4944 37.546 16.4744 37.5994 16.4623 37.6705C16.4509 37.7417 16.4452 37.8303 16.4452 37.9364ZM18.243 37.9364C18.243 38.0488 18.2341 38.1491 18.2163 38.2374C18.1992 38.3257 18.1712 38.4007 18.1325 38.4623C18.0944 38.5239 18.0442 38.5709 17.982 38.6033C17.9197 38.6357 17.8441 38.6519 17.7552 38.6519C17.6434 38.6519 17.5516 38.6236 17.4799 38.5671C17.4081 38.5099 17.3551 38.428 17.3208 38.3213C17.2865 38.2139 17.2693 38.0856 17.2693 37.9364C17.2693 37.7858 17.2849 37.6572 17.316 37.5505C17.3478 37.4432 17.3992 37.3609 17.4703 37.3037C17.5415 37.2466 17.6364 37.218 17.7552 37.218C17.8664 37.218 17.9578 37.2466 18.0296 37.3037C18.102 37.3603 18.1557 37.4422 18.1906 37.5495C18.2256 37.6563 18.243 37.7852 18.243 37.9364ZM17.5618 37.9364C17.5618 38.0424 17.5675 38.131 17.579 38.2022C17.591 38.2727 17.611 38.3257 17.639 38.3613C17.6669 38.3968 17.7057 38.4146 17.7552 38.4146C17.8041 38.4146 17.8426 38.3972 17.8705 38.3622C17.8991 38.3267 17.9194 38.2736 17.9315 38.2031C17.9435 38.132 17.9496 38.0431 17.9496 37.9364C17.9496 37.8303 17.9435 37.7417 17.9315 37.6705C17.9194 37.5994 17.8991 37.546 17.8705 37.5105C17.8426 37.4743 17.8041 37.4562 17.7552 37.4562C17.7057 37.4562 17.6669 37.4743 17.639 37.5105C17.611 37.546 17.591 37.5994 17.579 37.6705C17.5675 37.7417 17.5618 37.8303 17.5618 37.9364Z" fill="#212121"/>
<path d="M14.655 46.0234H14.3606V45.2174C14.3606 45.1952 14.3609 45.1679 14.3615 45.1355C14.3622 45.1025 14.3631 45.0688 14.3644 45.0345C14.3657 44.9996 14.3669 44.9681 14.3682 44.9402C14.3612 44.9484 14.3469 44.9627 14.3253 44.983C14.3044 45.0027 14.2847 45.0205 14.2663 45.0364L14.1062 45.165L13.9642 44.9878L14.413 44.6305H14.655V46.0234ZM16.0098 45.327C16.0098 45.4394 16.0009 45.5398 15.9831 45.628C15.966 45.7163 15.938 45.7913 15.8993 45.8529C15.8612 45.9145 15.811 45.9615 15.7487 45.9939C15.6865 46.0263 15.6109 46.0425 15.522 46.0425C15.4102 46.0425 15.3184 46.0142 15.2466 45.9577C15.1749 45.9005 15.1218 45.8186 15.0875 45.7119C15.0532 45.6045 15.0361 45.4762 15.0361 45.327C15.0361 45.1764 15.0516 45.0478 15.0828 44.9411C15.1145 44.8338 15.166 44.7515 15.2371 44.6944C15.3083 44.6372 15.4032 44.6086 15.522 44.6086C15.6331 44.6086 15.7246 44.6372 15.7964 44.6944C15.8688 44.7509 15.9225 44.8328 15.9574 44.9402C15.9923 45.0469 16.0098 45.1758 16.0098 45.327ZM15.3286 45.327C15.3286 45.4331 15.3343 45.5217 15.3457 45.5928C15.3578 45.6633 15.3778 45.7163 15.4058 45.7519C15.4337 45.7875 15.4724 45.8053 15.522 45.8053C15.5709 45.8053 15.6093 45.7878 15.6373 45.7529C15.6658 45.7173 15.6862 45.6643 15.6982 45.5938C15.7103 45.5226 15.7163 45.4337 15.7163 45.327C15.7163 45.2209 15.7103 45.1323 15.6982 45.0612C15.6862 44.99 15.6658 44.9367 15.6373 44.9011C15.6093 44.8649 15.5709 44.8468 15.522 44.8468C15.4724 44.8468 15.4337 44.8649 15.4058 44.9011C15.3778 44.9367 15.3578 44.99 15.3457 45.0612C15.3343 45.1323 15.3286 45.2209 15.3286 45.327ZM17.1264 45.327C17.1264 45.4394 17.1175 45.5398 17.0997 45.628C17.0826 45.7163 17.0546 45.7913 17.0159 45.8529C16.9778 45.9145 16.9276 45.9615 16.8654 45.9939C16.8031 46.0263 16.7275 46.0425 16.6386 46.0425C16.5268 46.0425 16.435 46.0142 16.3633 45.9577C16.2915 45.9005 16.2384 45.8186 16.2041 45.7119C16.1699 45.6045 16.1527 45.4762 16.1527 45.327C16.1527 45.1764 16.1683 45.0478 16.1994 44.9411C16.2311 44.8338 16.2826 44.7515 16.3537 44.6944C16.4249 44.6372 16.5198 44.6086 16.6386 44.6086C16.7498 44.6086 16.8412 44.6372 16.913 44.6944C16.9854 44.7509 17.0391 44.8328 17.074 44.9402C17.1089 45.0469 17.1264 45.1758 17.1264 45.327ZM16.4452 45.327C16.4452 45.4331 16.4509 45.5217 16.4623 45.5928C16.4744 45.6633 16.4944 45.7163 16.5224 45.7519C16.5503 45.7875 16.5891 45.8053 16.6386 45.8053C16.6875 45.8053 16.7259 45.7878 16.7539 45.7529C16.7825 45.7173 16.8028 45.6643 16.8149 45.5938C16.8269 45.5226 16.833 45.4337 16.833 45.327C16.833 45.2209 16.8269 45.1323 16.8149 45.0612C16.8028 44.99 16.7825 44.9367 16.7539 44.9011C16.7259 44.8649 16.6875 44.8468 16.6386 44.8468C16.5891 44.8468 16.5503 44.8649 16.5224 44.9011C16.4944 44.9367 16.4744 44.99 16.4623 45.0612C16.4509 45.1323 16.4452 45.2209 16.4452 45.327ZM18.243 45.327C18.243 45.4394 18.2341 45.5398 18.2163 45.628C18.1992 45.7163 18.1712 45.7913 18.1325 45.8529C18.0944 45.9145 18.0442 45.9615 17.982 45.9939C17.9197 46.0263 17.8441 46.0425 17.7552 46.0425C17.6434 46.0425 17.5516 46.0142 17.4799 45.9577C17.4081 45.9005 17.3551 45.8186 17.3208 45.7119C17.2865 45.6045 17.2693 45.4762 17.2693 45.327C17.2693 45.1764 17.2849 45.0478 17.316 44.9411C17.3478 44.8338 17.3992 44.7515 17.4703 44.6944C17.5415 44.6372 17.6364 44.6086 17.7552 44.6086C17.8664 44.6086 17.9578 44.6372 18.0296 44.6944C18.102 44.7509 18.1557 44.8328 18.1906 44.9402C18.2256 45.0469 18.243 45.1758 18.243 45.327ZM17.5618 45.327C17.5618 45.4331 17.5675 45.5217 17.579 45.5928C17.591 45.6633 17.611 45.7163 17.639 45.7519C17.6669 45.7875 17.7057 45.8053 17.7552 45.8053C17.8041 45.8053 17.8426 45.7878 17.8705 45.7529C17.8991 45.7173 17.9194 45.6643 17.9315 45.5938C17.9435 45.5226 17.9496 45.4337 17.9496 45.327C17.9496 45.2209 17.9435 45.1323 17.9315 45.0612C17.9194 44.99 17.8991 44.9367 17.8705 44.9011C17.8426 44.8649 17.8041 44.8468 17.7552 44.8468C17.7057 44.8468 17.6669 44.8649 17.639 44.9011C17.611 44.9367 17.591 44.99 17.579 45.0612C17.5675 45.1323 17.5618 45.2209 17.5618 45.327Z" fill="#212121"/>
<path d="M15.5502 52.5242C15.6353 52.5242 15.7109 52.5404 15.7769 52.5728C15.8436 52.6052 15.896 52.6528 15.9341 52.7157C15.9722 52.7786 15.9913 52.8561 15.9913 52.9482C15.9913 53.0485 15.9703 53.1352 15.9284 53.2083C15.8871 53.2807 15.8252 53.3363 15.7426 53.375C15.6607 53.4137 15.5584 53.4331 15.4358 53.4331C15.3628 53.4331 15.2939 53.4268 15.2291 53.4141C15.1649 53.402 15.1087 53.3833 15.0605 53.3579V53.1035C15.1087 53.1289 15.1665 53.1505 15.2339 53.1683C15.3018 53.1854 15.3656 53.194 15.4254 53.194C15.4838 53.194 15.533 53.1864 15.573 53.1711C15.613 53.1552 15.6432 53.1311 15.6635 53.0987C15.6845 53.0657 15.695 53.0238 15.695 52.9729C15.695 52.905 15.6721 52.8529 15.6264 52.8167C15.5806 52.7805 15.5105 52.7624 15.4158 52.7624C15.3796 52.7624 15.3418 52.7659 15.3024 52.7729C15.2637 52.7799 15.2313 52.7868 15.2053 52.7938L15.0881 52.7309L15.1405 52.0212H15.896V52.2708H15.3987L15.373 52.5442C15.3945 52.5398 15.418 52.5353 15.4435 52.5309C15.4689 52.5264 15.5044 52.5242 15.5502 52.5242ZM17.126 52.7176C17.126 52.83 17.1171 52.9304 17.0993 53.0187C17.0822 53.107 17.0542 53.1819 17.0155 53.2435C16.9774 53.3051 16.9272 53.3521 16.8649 53.3845C16.8027 53.4169 16.7271 53.4331 16.6382 53.4331C16.5264 53.4331 16.4346 53.4049 16.3629 53.3483C16.2911 53.2912 16.238 53.2092 16.2037 53.1025C16.1694 52.9952 16.1523 52.8669 16.1523 52.7176C16.1523 52.5671 16.1679 52.4385 16.199 52.3317C16.2307 52.2244 16.2822 52.1421 16.3533 52.085C16.4245 52.0278 16.5194 51.9992 16.6382 51.9992C16.7493 51.9992 16.8408 52.0278 16.9126 52.085C16.985 52.1415 17.0387 52.2235 17.0736 52.3308C17.1085 52.4375 17.126 52.5664 17.126 52.7176ZM16.4448 52.7176C16.4448 52.8237 16.4505 52.9123 16.4619 52.9834C16.474 53.0539 16.494 53.107 16.522 53.1425C16.5499 53.1781 16.5887 53.1959 16.6382 53.1959C16.6871 53.1959 16.7255 53.1784 16.7535 53.1435C16.7821 53.1079 16.8024 53.0549 16.8145 52.9844C16.8265 52.9132 16.8326 52.8243 16.8326 52.7176C16.8326 52.6115 16.8265 52.5229 16.8145 52.4518C16.8024 52.3807 16.7821 52.3273 16.7535 52.2917C16.7255 52.2555 16.6871 52.2374 16.6382 52.2374C16.5887 52.2374 16.5499 52.2555 16.522 52.2917C16.494 52.3273 16.474 52.3807 16.4619 52.4518C16.4505 52.5229 16.4448 52.6115 16.4448 52.7176ZM18.2426 52.7176C18.2426 52.83 18.2337 52.9304 18.2159 53.0187C18.1988 53.107 18.1708 53.1819 18.1321 53.2435C18.094 53.3051 18.0438 53.3521 17.9816 53.3845C17.9193 53.4169 17.8437 53.4331 17.7548 53.4331C17.643 53.4331 17.5512 53.4049 17.4795 53.3483C17.4077 53.2912 17.3547 53.2092 17.3204 53.1025C17.2861 52.9952 17.2689 52.8669 17.2689 52.7176C17.2689 52.5671 17.2845 52.4385 17.3156 52.3317C17.3474 52.2244 17.3988 52.1421 17.4699 52.085C17.5411 52.0278 17.636 51.9992 17.7548 51.9992C17.866 51.9992 17.9574 52.0278 18.0292 52.085C18.1016 52.1415 18.1553 52.2235 18.1902 52.3308C18.2251 52.4375 18.2426 52.5664 18.2426 52.7176ZM17.5614 52.7176C17.5614 52.8237 17.5671 52.9123 17.5786 52.9834C17.5906 53.0539 17.6106 53.107 17.6386 53.1425C17.6665 53.1781 17.7053 53.1959 17.7548 53.1959C17.8037 53.1959 17.8421 53.1784 17.8701 53.1435C17.8987 53.1079 17.919 53.0549 17.9311 52.9844C17.9431 52.9132 17.9492 52.8243 17.9492 52.7176C17.9492 52.6115 17.9431 52.5229 17.9311 52.4518C17.919 52.3807 17.8987 52.3273 17.8701 52.2917C17.8421 52.2555 17.8037 52.2374 17.7548 52.2374C17.7053 52.2374 17.6665 52.2555 17.6386 52.2917C17.6106 52.3273 17.5906 52.3807 17.5786 52.4518C17.5671 52.5229 17.5614 52.6115 17.5614 52.7176Z" fill="#212121"/>
<path d="M15.7712 60.8047H15.4768V59.9987C15.4768 59.9764 15.4771 59.9491 15.4778 59.9167C15.4784 59.8837 15.4793 59.85 15.4806 59.8157C15.4819 59.7808 15.4832 59.7494 15.4844 59.7214C15.4774 59.7297 15.4631 59.744 15.4415 59.7643C15.4206 59.784 15.4009 59.8018 15.3825 59.8176L15.2224 59.9463L15.0805 59.7691L15.5292 59.4118H15.7712V60.8047ZM17.126 60.1082C17.126 60.2207 17.1171 60.321 17.0993 60.4093C17.0822 60.4976 17.0542 60.5725 17.0155 60.6341C16.9774 60.6958 16.9272 60.7428 16.8649 60.7752C16.8027 60.8075 16.7271 60.8237 16.6382 60.8237C16.5264 60.8237 16.4346 60.7955 16.3629 60.7389C16.2911 60.6818 16.238 60.5998 16.2037 60.4931C16.1694 60.3858 16.1523 60.2575 16.1523 60.1082C16.1523 59.9577 16.1679 59.8291 16.199 59.7224C16.2307 59.615 16.2822 59.5328 16.3533 59.4756C16.4245 59.4184 16.5194 59.3899 16.6382 59.3899C16.7493 59.3899 16.8408 59.4184 16.9126 59.4756C16.985 59.5321 17.0387 59.6141 17.0736 59.7214C17.1085 59.8281 17.126 59.9571 17.126 60.1082ZM16.4448 60.1082C16.4448 60.2143 16.4505 60.3029 16.4619 60.374C16.474 60.4446 16.494 60.4976 16.522 60.5332C16.5499 60.5687 16.5887 60.5865 16.6382 60.5865C16.6871 60.5865 16.7255 60.569 16.7535 60.5341C16.7821 60.4985 16.8024 60.4455 16.8145 60.375C16.8265 60.3039 16.8326 60.2149 16.8326 60.1082C16.8326 60.0022 16.8265 59.9136 16.8145 59.8424C16.8024 59.7713 16.7821 59.7179 16.7535 59.6824C16.7255 59.6462 16.6871 59.628 16.6382 59.628C16.5887 59.628 16.5499 59.6462 16.522 59.6824C16.494 59.7179 16.474 59.7713 16.4619 59.8424C16.4505 59.9136 16.4448 60.0022 16.4448 60.1082ZM18.2426 60.1082C18.2426 60.2207 18.2337 60.321 18.2159 60.4093C18.1988 60.4976 18.1708 60.5725 18.1321 60.6341C18.094 60.6958 18.0438 60.7428 17.9816 60.7752C17.9193 60.8075 17.8437 60.8237 17.7548 60.8237C17.643 60.8237 17.5512 60.7955 17.4795 60.7389C17.4077 60.6818 17.3547 60.5998 17.3204 60.4931C17.2861 60.3858 17.2689 60.2575 17.2689 60.1082C17.2689 59.9577 17.2845 59.8291 17.3156 59.7224C17.3474 59.615 17.3988 59.5328 17.4699 59.4756C17.5411 59.4184 17.636 59.3899 17.7548 59.3899C17.866 59.3899 17.9574 59.4184 18.0292 59.4756C18.1016 59.5321 18.1553 59.6141 18.1902 59.7214C18.2251 59.8281 18.2426 59.9571 18.2426 60.1082ZM17.5614 60.1082C17.5614 60.2143 17.5671 60.3029 17.5786 60.374C17.5906 60.4446 17.6106 60.4976 17.6386 60.5332C17.6665 60.5687 17.7053 60.5865 17.7548 60.5865C17.8037 60.5865 17.8421 60.569 17.8701 60.5341C17.8987 60.4985 17.919 60.4455 17.9311 60.375C17.9431 60.3039 17.9492 60.2149 17.9492 60.1082C17.9492 60.0022 17.9431 59.9136 17.9311 59.8424C17.919 59.7713 17.8987 59.7179 17.8701 59.6824C17.8421 59.6462 17.8037 59.628 17.7548 59.628C17.7053 59.628 17.6665 59.6462 17.6386 59.6824C17.6106 59.7179 17.5906 59.7713 17.5786 59.8424C17.5671 59.9136 17.5614 60.0022 17.5614 60.1082Z" fill="#212121"/>
<path d="M18.2426 67.495C18.2426 67.6074 18.2337 67.7077 18.2159 67.796C18.1988 67.8843 18.1708 67.9593 18.1321 68.0209C18.094 68.0825 18.0438 68.1295 17.9816 68.1619C17.9193 68.1943 17.8437 68.2105 17.7548 68.2105C17.643 68.2105 17.5512 68.1822 17.4795 68.1257C17.4077 68.0685 17.3547 67.9866 17.3204 67.8799C17.2861 67.7725 17.2689 67.6442 17.2689 67.495C17.2689 67.3444 17.2845 67.2158 17.3156 67.1091C17.3474 67.0017 17.3988 66.9195 17.4699 66.8623C17.5411 66.8052 17.636 66.7766 17.7548 66.7766C17.866 66.7766 17.9574 66.8052 18.0292 66.8623C18.1016 66.9189 18.1553 67.0008 18.1902 67.1081C18.2251 67.2148 18.2426 67.3438 18.2426 67.495ZM17.5614 67.495C17.5614 67.601 17.5671 67.6896 17.5786 67.7608C17.5906 67.8313 17.6106 67.8843 17.6386 67.9199C17.6665 67.9554 17.7053 67.9732 17.7548 67.9732C17.8037 67.9732 17.8421 67.9558 17.8701 67.9208C17.8987 67.8853 17.919 67.8322 17.9311 67.7617C17.9431 67.6906 17.9492 67.6017 17.9492 67.495C17.9492 67.3889 17.9431 67.3003 17.9311 67.2291C17.919 67.158 17.8987 67.1046 17.8701 67.0691C17.8421 67.0329 17.8037 67.0148 17.7548 67.0148C17.7053 67.0148 17.6665 67.0329 17.6386 67.0691C17.6106 67.1046 17.5906 67.158 17.5786 67.2291C17.5671 67.3003 17.5614 67.3889 17.5614 67.495Z" fill="#212121"/>
<path d="M29.7617 71.4141H29.4673V70.608C29.4673 70.5858 29.4676 70.5585 29.4682 70.5261C29.4689 70.4931 29.4698 70.4594 29.4711 70.4251C29.4724 70.3902 29.4736 70.3587 29.4749 70.3308C29.4679 70.339 29.4536 70.3533 29.432 70.3737C29.4111 70.3934 29.3914 70.4111 29.373 70.427L29.2129 70.5556L29.0709 70.3784L29.5197 70.0212H29.7617V71.4141Z" fill="#212121"/>
<path d="M21.953 70.7176C21.953 70.83 21.9441 70.9304 21.9263 71.0187C21.9092 71.107 21.8812 71.1819 21.8425 71.2435C21.8044 71.3051 21.7542 71.3521 21.6919 71.3845C21.6297 71.4169 21.5541 71.4331 21.4652 71.4331C21.3534 71.4331 21.2616 71.4049 21.1898 71.3483C21.1181 71.2912 21.065 71.2092 21.0307 71.1025C20.9964 70.9952 20.9793 70.8669 20.9793 70.7176C20.9793 70.5671 20.9948 70.4385 21.026 70.3317C21.0577 70.2244 21.1092 70.1421 21.1803 70.085C21.2514 70.0278 21.3464 69.9992 21.4652 69.9992C21.5763 69.9992 21.6678 70.0278 21.7396 70.085C21.812 70.1415 21.8656 70.2235 21.9006 70.3308C21.9355 70.4375 21.953 70.5664 21.953 70.7176ZM21.2718 70.7176C21.2718 70.8237 21.2775 70.9123 21.2889 70.9834C21.301 71.0539 21.321 71.107 21.3489 71.1425C21.3769 71.1781 21.4156 71.1959 21.4652 71.1959C21.5141 71.1959 21.5525 71.1784 21.5805 71.1435C21.609 71.1079 21.6294 71.0549 21.6414 70.9844C21.6535 70.9132 21.6595 70.8243 21.6595 70.7176C21.6595 70.6115 21.6535 70.5229 21.6414 70.4518C21.6294 70.3807 21.609 70.3273 21.5805 70.2917C21.5525 70.2555 21.5141 70.2374 21.4652 70.2374C21.4156 70.2374 21.3769 70.2555 21.3489 70.2917C21.321 70.3273 21.301 70.3807 21.2889 70.4518C21.2775 70.5229 21.2718 70.6115 21.2718 70.7176Z" fill="#212121"/>
<path d="M38.0583 71.4141H37.0846V71.2092L37.4342 70.8558C37.5047 70.7833 37.5612 70.723 37.6038 70.6747C37.647 70.6258 37.6781 70.5814 37.6972 70.5413C37.7169 70.5013 37.7267 70.4585 37.7267 70.4127C37.7267 70.3575 37.7111 70.3162 37.68 70.2889C37.6495 70.2609 37.6086 70.247 37.5571 70.247C37.5031 70.247 37.4507 70.2593 37.3999 70.2841C37.3491 70.3089 37.2961 70.3441 37.2408 70.3899L37.0807 70.2003C37.1208 70.166 37.163 70.1336 37.2075 70.1031C37.2526 70.0726 37.3046 70.0481 37.3637 70.0297C37.4234 70.0107 37.4949 70.0011 37.5781 70.0011C37.6695 70.0011 37.748 70.0177 37.8134 70.0507C37.8795 70.0837 37.9303 70.1288 37.9658 70.186C38.0014 70.2425 38.0192 70.3067 38.0192 70.3784C38.0192 70.4553 38.004 70.5255 37.9735 70.589C37.943 70.6525 37.8985 70.7154 37.8401 70.7776C37.7823 70.8399 37.7124 70.9088 37.6305 70.9844L37.4514 71.153V71.1663H38.0583V71.4141Z" fill="#212121"/>
<path d="M46.2969 70.3327C46.2969 70.3968 46.2836 70.4524 46.2569 70.4994C46.2302 70.5464 46.194 70.5849 46.1483 70.6147C46.1032 70.6446 46.0524 70.6665 45.9959 70.6804V70.6862C46.1076 70.7001 46.1924 70.7344 46.2502 70.7891C46.3087 70.8437 46.3379 70.9167 46.3379 71.0082C46.3379 71.0895 46.3179 71.1622 46.2779 71.2264C46.2385 71.2905 46.1775 71.341 46.0949 71.3779C46.0124 71.4147 45.906 71.4331 45.7758 71.4331C45.6989 71.4331 45.6271 71.4268 45.5605 71.4141C45.4944 71.402 45.4321 71.3833 45.3737 71.3579V71.1073C45.4334 71.1378 45.496 71.161 45.5614 71.1768C45.6268 71.1921 45.6878 71.1997 45.7443 71.1997C45.8498 71.1997 45.9234 71.1816 45.9654 71.1454C46.0079 71.1085 46.0292 71.0571 46.0292 70.991C46.0292 70.9523 46.0194 70.9196 45.9997 70.8929C45.98 70.8662 45.9457 70.8459 45.8968 70.8319C45.8485 70.818 45.7809 70.811 45.6938 70.811H45.5881V70.5852H45.6957C45.7815 70.5852 45.8466 70.5772 45.8911 70.5614C45.9362 70.5448 45.9666 70.5226 45.9825 70.4947C45.999 70.4661 46.0073 70.4337 46.0073 70.3975C46.0073 70.3479 45.992 70.3092 45.9616 70.2813C45.9311 70.2533 45.8803 70.2393 45.8091 70.2393C45.7647 70.2393 45.724 70.245 45.6872 70.2565C45.651 70.2673 45.6183 70.2806 45.589 70.2965C45.5598 70.3117 45.5341 70.3267 45.5119 70.3413L45.3756 70.1383C45.4302 70.099 45.4941 70.0662 45.5671 70.0402C45.6408 70.0142 45.7285 70.0011 45.8301 70.0011C45.9736 70.0011 46.0873 70.03 46.1712 70.0878C46.255 70.1456 46.2969 70.2273 46.2969 70.3327Z" fill="#212121"/>
<path d="M54.4295 71.1254H54.2619V71.4141H53.9741V71.1254H53.3796V70.9205L53.9903 70.0212H54.2619V70.8967H54.4295V71.1254ZM53.9741 70.8967V70.6604C53.9741 70.6382 53.9745 70.6119 53.9751 70.5814C53.9764 70.5509 53.9776 70.5204 53.9789 70.4899C53.9802 70.4594 53.9814 70.4324 53.9827 70.4089C53.9846 70.3848 53.9859 70.3679 53.9865 70.3584H53.9789C53.9668 70.3845 53.9541 70.4099 53.9408 70.4346C53.9274 70.4588 53.9119 70.4842 53.8941 70.5109L53.6388 70.8967H53.9741Z" fill="#212121"/>
<path d="M61.982 70.5242C62.0672 70.5242 62.1427 70.5404 62.2088 70.5728C62.2755 70.6052 62.3279 70.6528 62.366 70.7157C62.4041 70.7786 62.4232 70.8561 62.4232 70.9482C62.4232 71.0485 62.4022 71.1352 62.3603 71.2083C62.319 71.2807 62.2571 71.3363 62.1745 71.375C62.0926 71.4137 61.9903 71.4331 61.8677 71.4331C61.7947 71.4331 61.7258 71.4268 61.661 71.4141C61.5968 71.402 61.5406 71.3833 61.4923 71.3579V71.1035C61.5406 71.1289 61.5984 71.1505 61.6657 71.1683C61.7337 71.1854 61.7975 71.194 61.8572 71.194C61.9157 71.194 61.9649 71.1864 62.0049 71.1711C62.0449 71.1552 62.0751 71.1311 62.0954 71.0987C62.1164 71.0657 62.1269 71.0238 62.1269 70.9729C62.1269 70.905 62.104 70.8529 62.0583 70.8167C62.0125 70.7805 61.9423 70.7624 61.8477 70.7624C61.8115 70.7624 61.7737 70.7659 61.7343 70.7729C61.6956 70.7799 61.6632 70.7868 61.6371 70.7938L61.52 70.7309L61.5724 70.0212H62.3279V70.2708H61.8306L61.8048 70.5442C61.8264 70.5398 61.8499 70.5353 61.8753 70.5309C61.9007 70.5264 61.9363 70.5242 61.982 70.5242Z" fill="#212121"/>
<path d="M69.5125 70.8224C69.5125 70.7424 69.5182 70.6633 69.5297 70.5852C69.5417 70.5064 69.5624 70.4324 69.5916 70.3632C69.6208 70.2933 69.6618 70.2317 69.7145 70.1784C69.7672 70.1244 69.8342 70.0821 69.9155 70.0516C69.9968 70.0205 70.0953 70.005 70.2109 70.005C70.2382 70.005 70.27 70.0062 70.3062 70.0088C70.343 70.0107 70.3735 70.0142 70.3976 70.0192V70.2546C70.3722 70.2489 70.3449 70.2444 70.3157 70.2412C70.2871 70.2374 70.2585 70.2355 70.2299 70.2355C70.1143 70.2355 70.0248 70.2539 69.9613 70.2908C69.8984 70.3276 69.8539 70.3787 69.8279 70.4442C69.8025 70.509 69.7876 70.5845 69.7831 70.6709H69.7955C69.8133 70.6398 69.8355 70.6122 69.8622 70.588C69.8895 70.5639 69.9225 70.5448 69.9613 70.5309C70 70.5163 70.0454 70.509 70.0975 70.509C70.1788 70.509 70.2493 70.5264 70.309 70.5614C70.3687 70.5957 70.4148 70.6455 70.4472 70.7109C70.4796 70.7764 70.4958 70.8561 70.4958 70.9501C70.4958 71.0504 70.4764 71.1368 70.4376 71.2092C70.3989 71.2816 70.344 71.3372 70.2728 71.376C70.2023 71.4141 70.1185 71.4331 70.0213 71.4331C69.9502 71.4331 69.8838 71.421 69.8222 71.3969C69.7606 71.3721 69.7066 71.3347 69.6602 71.2845C69.6138 71.2343 69.5776 71.1711 69.5516 71.0949C69.5255 71.018 69.5125 70.9272 69.5125 70.8224ZM70.0156 71.1978C70.0734 71.1978 70.1204 71.1781 70.1566 71.1387C70.1928 71.0993 70.2109 71.0377 70.2109 70.9539C70.2109 70.8859 70.195 70.8326 70.1633 70.7938C70.1321 70.7544 70.0848 70.7348 70.0213 70.7348C69.9781 70.7348 69.94 70.7446 69.907 70.7643C69.8746 70.7833 69.8495 70.8078 69.8317 70.8377C69.8139 70.8669 69.805 70.897 69.805 70.9282C69.805 70.9606 69.8095 70.9926 69.8184 71.0244C69.8273 71.0561 69.8406 71.085 69.8584 71.1111C69.8762 71.1371 69.8981 71.1581 69.9241 71.174C69.9508 71.1899 69.9813 71.1978 70.0156 71.1978Z" fill="#212121"/>
<path d="M77.4649 71.4141L77.9879 70.2689H77.301V70.0212H78.3004V70.206L77.7736 71.4141H77.4649Z" fill="#212121"/>
<path d="M20.6339 68.9247C20.6339 68.9921 20.6885 69.0467 20.7559 69.0467C20.8232 69.0467 20.8778 68.9921 20.8778 68.9247H20.6339ZM20.7559 21.8516H20.6339V68.9247H20.7559H20.8778V21.8516H20.7559Z" fill="#D4D4D4"/>
<path d="M20.7559 68.9258H77.0973" stroke="#D4D4D4" stroke-width="0.243902"/>
<path d="M36.8548 47.4634C37.2589 47.4634 37.5865 47.1358 37.5865 46.7317C37.5865 46.3276 37.2589 46 36.8548 46C36.4506 46 36.123 46.3276 36.123 46.7317C36.123 47.1358 36.4506 47.4634 36.8548 47.4634Z" fill="#90DFFF"/>
<path d="M44.9016 34.0454C45.3057 34.0454 45.6333 33.7178 45.6333 33.3137C45.6333 32.9096 45.3057 32.582 44.9016 32.582C44.4975 32.582 44.1699 32.9096 44.1699 33.3137C44.1699 33.7178 44.4975 34.0454 44.9016 34.0454Z" fill="#90DFFF"/>
<path d="M52.9524 41.3619C53.3565 41.3619 53.6841 41.0343 53.6841 40.6301C53.6841 40.226 53.3565 39.8984 52.9524 39.8984C52.5483 39.8984 52.2207 40.226 52.2207 40.6301C52.2207 41.0343 52.5483 41.3619 52.9524 41.3619Z" fill="#90DFFF"/>
<path d="M60.9993 57.4634C61.4034 57.4634 61.731 57.1358 61.731 56.7317C61.731 56.3276 61.4034 56 60.9993 56C60.5952 56 60.2676 56.3276 60.2676 56.7317C60.2676 57.1358 60.5952 57.4634 60.9993 57.4634Z" fill="#90DFFF"/>
<path d="M36.8564 45.8721C37.4625 45.8722 37.9541 46.3636 37.9541 46.9697C37.954 47.5757 37.4624 48.0673 36.8564 48.0674C36.2504 48.0674 35.7589 47.5758 35.7588 46.9697C35.7588 46.3636 36.2503 45.8721 36.8564 45.8721Z" fill="white" stroke="#90DFFF" stroke-width="0.243902"/>
<path d="M36.8567 47.7056C37.2608 47.7056 37.5884 47.378 37.5884 46.9739C37.5884 46.5698 37.2608 46.2422 36.8567 46.2422C36.4526 46.2422 36.125 46.5698 36.125 46.9739C36.125 47.378 36.4526 47.7056 36.8567 47.7056Z" fill="#90DFFF"/>
<path d="M44.9014 32.2158C45.5074 32.2159 45.999 32.7074 45.999 33.3135C45.9989 33.9195 45.5074 34.411 44.9014 34.4111C44.2953 34.4111 43.8038 33.9195 43.8037 33.3135C43.8037 32.7073 44.2952 32.2158 44.9014 32.2158Z" fill="white" stroke="#90DFFF" stroke-width="0.243902"/>
<path d="M44.9016 34.0494C45.3057 34.0494 45.6333 33.7218 45.6333 33.3176C45.6333 32.9135 45.3057 32.5859 44.9016 32.5859C44.4975 32.5859 44.1699 32.9135 44.1699 33.3176C44.1699 33.7218 44.4975 34.0494 44.9016 34.0494Z" fill="#90DFFF"/>
<path d="M52.9541 39.5361C53.5602 39.5362 54.0518 40.0277 54.0518 40.6338C54.0516 41.2398 53.5601 41.7313 52.9541 41.7314C52.348 41.7314 51.8566 41.2399 51.8564 40.6338C51.8564 40.0276 52.3479 39.5361 52.9541 39.5361Z" fill="white" stroke="#90DFFF" stroke-width="0.243902"/>
<path d="M52.9544 41.3697C53.3585 41.3697 53.6861 41.0421 53.6861 40.638C53.6861 40.2338 53.3585 39.9062 52.9544 39.9062C52.5503 39.9062 52.2227 40.2338 52.2227 40.638C52.2227 41.0421 52.5503 41.3697 52.9544 41.3697Z" fill="#90DFFF"/>
<path d="M60.999 55.6338C61.6051 55.6339 62.0967 56.1254 62.0967 56.7314C62.0966 57.3374 61.605 57.829 60.999 57.8291C60.3929 57.8291 59.9015 57.3375 59.9014 56.7314C59.9014 56.1253 60.3929 55.6338 60.999 55.6338Z" fill="white" stroke="#90DFFF" stroke-width="0.243902"/>
<path d="M60.9993 57.4673C61.4034 57.4673 61.731 57.1397 61.731 56.7356C61.731 56.3315 61.4034 56.0039 60.9993 56.0039C60.5952 56.0039 60.2676 56.3315 60.2676 56.7356C60.2676 57.1397 60.5952 57.4673 60.9993 57.4673Z" fill="#90DFFF"/>
<path d="M69.0479 37.583C69.6539 37.5831 70.1455 38.0746 70.1455 38.6807C70.1454 39.2867 69.6538 39.7782 69.0479 39.7783C68.4418 39.7783 67.9503 39.2867 67.9502 38.6807C67.9502 38.0745 68.4417 37.583 69.0479 37.583Z" fill="white" stroke="#90DFFF" stroke-width="0.243902"/>
<path d="M69.0481 39.4165C69.4522 39.4165 69.7798 39.0889 69.7798 38.6848C69.7798 38.2807 69.4522 37.9531 69.0481 37.9531C68.644 37.9531 68.3164 38.2807 68.3164 38.6848C68.3164 39.0889 68.644 39.4165 69.0481 39.4165Z" fill="#90DFFF"/>
<path d="M77.0967 27.0986C77.7027 27.0987 78.1943 27.5902 78.1943 28.1963C78.1942 28.8023 77.7027 29.2938 77.0967 29.2939C76.4906 29.2939 75.9991 28.8024 75.999 28.1963C75.999 27.5901 76.4905 27.0986 77.0967 27.0986Z" fill="white" stroke="#90DFFF" stroke-width="0.243902"/>
<path d="M77.0969 28.9322C77.5011 28.9322 77.8286 28.6046 77.8286 28.2005C77.8286 27.7963 77.5011 27.4688 77.0969 27.4688C76.6928 27.4688 76.3652 27.7963 76.3652 28.2005C76.3652 28.6046 76.6928 28.9322 77.0969 28.9322Z" fill="#90DFFF"/>
<path d="M77.0967 27.0986C77.7027 27.0987 78.1943 27.5902 78.1943 28.1963C78.1942 28.8023 77.7027 29.2938 77.0967 29.2939C76.4906 29.2939 75.9991 28.8024 75.999 28.1963C75.999 27.5901 76.4905 27.0986 77.0967 27.0986Z" fill="white" stroke="#90DFFF" stroke-width="0.243902"/>
<path d="M77.0969 28.9322C77.5011 28.9322 77.8286 28.6046 77.8286 28.2005C77.8286 27.7963 77.5011 27.4688 77.0969 27.4688C76.6928 27.4688 76.3652 27.7963 76.3652 28.2005C76.3652 28.6046 76.6928 28.9322 77.0969 28.9322Z" fill="#90DFFF"/>
<rect x="25.0245" y="31.9757" width="7.68293" height="3.65854" rx="1.82927" fill="white"/>
<rect x="25.0245" y="31.9757" width="7.68293" height="3.65854" rx="1.82927" stroke="#D6D6D6" stroke-width="0.243902"/>
<path d="M27.1722 34.3047H26.8778V33.4987C26.8778 33.4764 26.8782 33.4491 26.8788 33.4167C26.8794 33.3837 26.8804 33.35 26.8816 33.3157C26.8829 33.2808 26.8842 33.2494 26.8855 33.2214C26.8785 33.2297 26.8642 33.244 26.8426 33.2643C26.8216 33.284 26.8019 33.3018 26.7835 33.3176L26.6235 33.4463L26.4815 33.2691L26.9302 32.9118H27.1722V34.3047ZM28.0678 33.4148C28.1529 33.4148 28.2285 33.431 28.2946 33.4634C28.3613 33.4958 28.4137 33.5434 28.4518 33.6063C28.4899 33.6692 28.5089 33.7467 28.5089 33.8388C28.5089 33.9392 28.488 34.0259 28.4461 34.0989C28.4048 34.1713 28.3428 34.2269 28.2603 34.2656C28.1783 34.3044 28.0761 34.3237 27.9535 34.3237C27.8804 34.3237 27.8115 34.3174 27.7467 34.3047C27.6826 34.2926 27.6264 34.2739 27.5781 34.2485V33.9941C27.6264 34.0195 27.6842 34.0411 27.7515 34.0589C27.8195 34.076 27.8833 34.0846 27.943 34.0846C28.0014 34.0846 28.0507 34.077 28.0907 34.0617C28.1307 34.0459 28.1609 34.0217 28.1812 33.9893C28.2021 33.9563 28.2126 33.9144 28.2126 33.8636C28.2126 33.7956 28.1898 33.7435 28.144 33.7073C28.0983 33.6711 28.0281 33.653 27.9335 33.653C27.8973 33.653 27.8595 33.6565 27.8201 33.6635C27.7814 33.6705 27.749 33.6775 27.7229 33.6845L27.6057 33.6216L27.6581 32.9118H28.4137V33.1614H27.9163L27.8906 33.4348C27.9122 33.4304 27.9357 33.4259 27.9611 33.4215C27.9865 33.417 28.0221 33.4148 28.0678 33.4148ZM29.1578 32.8937C29.2378 32.8937 29.3115 32.9061 29.3788 32.9308C29.4467 32.9556 29.5011 32.9931 29.5417 33.0433C29.5824 33.0928 29.6027 33.155 29.6027 33.23C29.6027 33.2859 29.5916 33.3348 29.5693 33.3767C29.5477 33.4186 29.5182 33.4555 29.4807 33.4872C29.4433 33.5184 29.4007 33.5457 29.3531 33.5692C29.4026 33.5952 29.4496 33.6257 29.4941 33.6606C29.5385 33.6949 29.5747 33.7353 29.6027 33.7816C29.6313 33.828 29.6456 33.882 29.6456 33.9436C29.6456 34.0211 29.6249 34.0884 29.5836 34.1456C29.5423 34.2021 29.4852 34.2459 29.4121 34.2771C29.3391 34.3082 29.2543 34.3237 29.1578 34.3237C29.0536 34.3237 28.965 34.3088 28.8919 34.279C28.8189 34.2491 28.7633 34.2066 28.7252 34.1513C28.6871 34.0954 28.668 34.0287 28.668 33.9512C28.668 33.8877 28.6798 33.8324 28.7033 33.7854C28.7274 33.7384 28.7598 33.6981 28.8005 33.6644C28.8411 33.6301 28.8859 33.6009 28.9348 33.5768C28.8935 33.5507 28.8557 33.5212 28.8214 33.4882C28.7878 33.4552 28.7608 33.4174 28.7404 33.3748C28.7208 33.3323 28.7109 33.2833 28.7109 33.2281C28.7109 33.1544 28.7316 33.0928 28.7728 33.0433C28.8148 32.9937 28.8697 32.9566 28.9377 32.9318C29.0056 32.9064 29.079 32.8937 29.1578 32.8937ZM28.9405 33.9341C28.9405 33.9842 28.9583 34.0259 28.9939 34.0589C29.0301 34.0913 29.0834 34.1075 29.1539 34.1075C29.227 34.1075 29.2816 34.0919 29.3178 34.0608C29.354 34.029 29.3721 33.9874 29.3721 33.936C29.3721 33.9004 29.3616 33.8693 29.3407 33.8426C29.3204 33.8159 29.2946 33.7921 29.2635 33.7712C29.2324 33.7496 29.2009 33.7295 29.1692 33.7111L29.1435 33.6978C29.1028 33.7162 29.0672 33.7369 29.0368 33.7597C29.0069 33.7826 28.9834 33.8083 28.9662 33.8369C28.9491 33.8655 28.9405 33.8979 28.9405 33.9341ZM29.1558 33.109C29.1076 33.109 29.0676 33.1214 29.0358 33.1462C29.004 33.1709 28.9882 33.2059 28.9882 33.251C28.9882 33.2827 28.9958 33.3107 29.011 33.3348C29.0269 33.3583 29.0475 33.3789 29.073 33.3967C29.099 33.4145 29.1273 33.431 29.1578 33.4463C29.187 33.4323 29.2143 33.4167 29.2397 33.3996C29.2651 33.3824 29.2857 33.3618 29.3016 33.3377C29.3175 33.3135 29.3254 33.2846 29.3254 33.251C29.3254 33.2059 29.3092 33.1709 29.2768 33.1462C29.2451 33.1214 29.2048 33.109 29.1558 33.109ZM30.7603 33.6082C30.7603 33.7207 30.7514 33.821 30.7336 33.9093C30.7164 33.9976 30.6885 34.0725 30.6497 34.1341C30.6116 34.1958 30.5615 34.2428 30.4992 34.2752C30.437 34.3075 30.3614 34.3237 30.2725 34.3237C30.1607 34.3237 30.0689 34.2955 29.9971 34.2389C29.9253 34.1818 29.8723 34.0998 29.838 33.9931C29.8037 33.8858 29.7866 33.7575 29.7866 33.6082C29.7866 33.4577 29.8021 33.3291 29.8332 33.2224C29.865 33.115 29.9165 33.0328 29.9876 32.9756C30.0587 32.9184 30.1537 32.8899 30.2725 32.8899C30.3836 32.8899 30.4751 32.9184 30.5469 32.9756C30.6193 33.0321 30.6729 33.1141 30.7079 33.2214C30.7428 33.3281 30.7603 33.4571 30.7603 33.6082ZM30.0791 33.6082C30.0791 33.7143 30.0848 33.8029 30.0962 33.874C30.1083 33.9446 30.1283 33.9976 30.1562 34.0332C30.1842 34.0687 30.2229 34.0865 30.2725 34.0865C30.3214 34.0865 30.3598 34.069 30.3877 34.0341C30.4163 33.9985 30.4367 33.9455 30.4487 33.875C30.4608 33.8039 30.4668 33.7149 30.4668 33.6082C30.4668 33.5022 30.4608 33.4136 30.4487 33.3424C30.4367 33.2713 30.4163 33.2179 30.3877 33.1824C30.3598 33.1462 30.3214 33.128 30.2725 33.128C30.2229 33.128 30.1842 33.1462 30.1562 33.1824C30.1283 33.2179 30.1083 33.2713 30.0962 33.3424C30.0848 33.4136 30.0791 33.5022 30.0791 33.6082Z" fill="#212121"/>
<rect x="33.0734" y="41.2413" width="7.68293" height="3.65854" rx="1.82927" fill="white"/>
<rect x="33.0734" y="41.2413" width="7.68293" height="3.65854" rx="1.82927" stroke="#D6D6D6" stroke-width="0.243902"/>
<path d="M35.2211 43.5703H34.9267V42.7643C34.9267 42.7421 34.927 42.7147 34.9276 42.6824C34.9283 42.6493 34.9292 42.6157 34.9305 42.5814C34.9317 42.5464 34.933 42.515 34.9343 42.487C34.9273 42.4953 34.913 42.5096 34.8914 42.5299C34.8705 42.5496 34.8508 42.5674 34.8323 42.5833L34.6723 42.7119L34.5303 42.5347L34.9791 42.1774H35.2211V43.5703ZM35.6003 42.9787C35.6003 42.8986 35.606 42.8196 35.6174 42.7414C35.6295 42.6627 35.6501 42.5887 35.6793 42.5194C35.7085 42.4496 35.7495 42.388 35.8022 42.3346C35.855 42.2806 35.922 42.2384 36.0033 42.2079C36.0846 42.1768 36.183 42.1612 36.2986 42.1612C36.3259 42.1612 36.3577 42.1625 36.3939 42.165C36.4307 42.1669 36.4612 42.1704 36.4854 42.1755V42.4108C36.4599 42.4051 36.4326 42.4007 36.4034 42.3975C36.3748 42.3937 36.3463 42.3918 36.3177 42.3918C36.2021 42.3918 36.1125 42.4102 36.049 42.447C35.9861 42.4839 35.9417 42.535 35.9156 42.6004C35.8902 42.6652 35.8753 42.7408 35.8708 42.8272H35.8832C35.901 42.796 35.9232 42.7684 35.9499 42.7443C35.9772 42.7201 36.0102 42.7011 36.049 42.6871C36.0877 42.6725 36.1332 42.6652 36.1852 42.6652C36.2665 42.6652 36.337 42.6827 36.3967 42.7176C36.4565 42.7519 36.5025 42.8018 36.5349 42.8672C36.5673 42.9326 36.5835 43.0123 36.5835 43.1063C36.5835 43.2067 36.5641 43.2931 36.5254 43.3655C36.4866 43.4379 36.4317 43.4935 36.3605 43.5322C36.29 43.5703 36.2062 43.5894 36.109 43.5894C36.0379 43.5894 35.9715 43.5773 35.9099 43.5532C35.8483 43.5284 35.7943 43.4909 35.7479 43.4407C35.7016 43.3906 35.6654 43.3274 35.6393 43.2511C35.6133 43.1743 35.6003 43.0835 35.6003 42.9787ZM36.1033 43.354C36.1611 43.354 36.2081 43.3343 36.2443 43.295C36.2805 43.2556 36.2986 43.194 36.2986 43.1101C36.2986 43.0422 36.2827 42.9888 36.251 42.9501C36.2199 42.9107 36.1725 42.891 36.109 42.891C36.0658 42.891 36.0277 42.9009 35.9947 42.9205C35.9623 42.9396 35.9372 42.964 35.9194 42.9939C35.9016 43.0231 35.8927 43.0533 35.8927 43.0844C35.8927 43.1168 35.8972 43.1489 35.9061 43.1806C35.915 43.2124 35.9283 43.2413 35.9461 43.2673C35.9639 43.2934 35.9858 43.3143 36.0118 43.3302C36.0385 43.3461 36.069 43.354 36.1033 43.354ZM37.6944 42.7719C37.6944 42.8519 37.6883 42.9313 37.6763 43.0101C37.6648 43.0889 37.6445 43.1632 37.6153 43.233C37.5861 43.3023 37.5451 43.3639 37.4924 43.4179C37.4397 43.4712 37.3727 43.5131 37.2914 43.5436C37.2101 43.5741 37.1116 43.5894 36.996 43.5894C36.9687 43.5894 36.9366 43.5881 36.8998 43.5856C36.863 43.5837 36.8325 43.5805 36.8083 43.576V43.3397C36.8337 43.3461 36.8607 43.3512 36.8893 43.355C36.9179 43.3582 36.9468 43.3598 36.976 43.3598C37.0922 43.3598 37.1818 43.3413 37.2447 43.3045C37.3082 43.2677 37.3527 43.2165 37.3781 43.1511C37.4041 43.0857 37.419 43.0101 37.4229 42.9244H37.4114C37.393 42.9548 37.3711 42.9825 37.3457 43.0072C37.3209 43.0314 37.2891 43.0507 37.2504 43.0654C37.2117 43.0793 37.1624 43.0863 37.1027 43.0863C37.0233 43.0863 36.9541 43.0692 36.895 43.0349C36.8366 42.9999 36.7912 42.9498 36.7588 42.8843C36.727 42.8183 36.7112 42.7386 36.7112 42.6452C36.7112 42.5442 36.7302 42.4578 36.7683 42.3861C36.8071 42.3136 36.862 42.2581 36.9331 42.2193C37.0043 42.1806 37.0881 42.1612 37.1847 42.1612C37.2558 42.1612 37.3222 42.1736 37.3838 42.1984C37.4454 42.2225 37.4994 42.2597 37.5458 42.3098C37.5928 42.36 37.6293 42.4235 37.6553 42.5004C37.6814 42.5772 37.6944 42.6677 37.6944 42.7719ZM37.1904 42.3975C37.1332 42.3975 37.0865 42.4172 37.0503 42.4566C37.0141 42.4959 36.996 42.5575 36.996 42.6414C36.996 42.7087 37.0116 42.7621 37.0427 42.8014C37.0738 42.8408 37.1211 42.8605 37.1847 42.8605C37.2285 42.8605 37.2666 42.851 37.299 42.8319C37.3314 42.8122 37.3565 42.7878 37.3743 42.7586C37.3927 42.7287 37.4019 42.6982 37.4019 42.6671C37.4019 42.6347 37.3974 42.6026 37.3886 42.5709C37.3797 42.5391 37.3663 42.5102 37.3485 42.4842C37.3308 42.4581 37.3085 42.4372 37.2818 42.4213C37.2558 42.4054 37.2253 42.3975 37.1904 42.3975ZM38.3232 42.1593C38.4032 42.1593 38.4769 42.1717 38.5442 42.1965C38.6122 42.2212 38.6665 42.2587 38.7072 42.3089C38.7478 42.3584 38.7681 42.4207 38.7681 42.4956C38.7681 42.5515 38.757 42.6004 38.7348 42.6423C38.7132 42.6843 38.6836 42.7211 38.6462 42.7529C38.6087 42.784 38.5661 42.8113 38.5185 42.8348C38.568 42.8608 38.6151 42.8913 38.6595 42.9263C38.704 42.9606 38.7402 43.0009 38.7681 43.0473C38.7967 43.0936 38.811 43.1476 38.811 43.2092C38.811 43.2867 38.7904 43.354 38.7491 43.4112C38.7078 43.4677 38.6506 43.5116 38.5776 43.5427C38.5045 43.5738 38.4197 43.5894 38.3232 43.5894C38.219 43.5894 38.1304 43.5744 38.0574 43.5446C37.9843 43.5147 37.9288 43.4722 37.8906 43.4169C37.8525 43.361 37.8335 43.2943 37.8335 43.2168C37.8335 43.1533 37.8452 43.0981 37.8687 43.0511C37.8929 43.0041 37.9253 42.9637 37.9659 42.9301C38.0066 42.8958 38.0513 42.8666 38.1003 42.8424C38.059 42.8164 38.0212 42.7868 37.9869 42.7538C37.9532 42.7208 37.9262 42.683 37.9059 42.6404C37.8862 42.5979 37.8764 42.549 37.8764 42.4937C37.8764 42.42 37.897 42.3584 37.9383 42.3089C37.9802 42.2593 38.0351 42.2222 38.1031 42.1974C38.1711 42.172 38.2444 42.1593 38.3232 42.1593ZM38.106 43.1997C38.106 43.2499 38.1238 43.2915 38.1593 43.3245C38.1955 43.3569 38.2489 43.3731 38.3194 43.3731C38.3924 43.3731 38.4471 43.3575 38.4833 43.3264C38.5195 43.2947 38.5376 43.253 38.5376 43.2016C38.5376 43.166 38.5271 43.1349 38.5061 43.1082C38.4858 43.0816 38.4601 43.0577 38.4289 43.0368C38.3978 43.0152 38.3664 42.9952 38.3346 42.9768L38.3089 42.9634C38.2683 42.9818 38.2327 43.0025 38.2022 43.0253C38.1723 43.0482 38.1488 43.0739 38.1317 43.1025C38.1145 43.1311 38.106 43.1635 38.106 43.1997ZM38.3213 42.3746C38.273 42.3746 38.233 42.387 38.2012 42.4118C38.1695 42.4365 38.1536 42.4715 38.1536 42.5166C38.1536 42.5483 38.1612 42.5763 38.1765 42.6004C38.1924 42.6239 38.213 42.6446 38.2384 42.6623C38.2644 42.6801 38.2927 42.6966 38.3232 42.7119C38.3524 42.6979 38.3797 42.6824 38.4051 42.6652C38.4305 42.6481 38.4512 42.6274 38.4671 42.6033C38.4829 42.5791 38.4909 42.5502 38.4909 42.5166C38.4909 42.4715 38.4747 42.4365 38.4423 42.4118C38.4105 42.387 38.3702 42.3746 38.3213 42.3746Z" fill="#212121"/>
<rect x="49.171" y="34.9015" width="7.68293" height="3.65854" rx="1.82927" fill="white"/>
<rect x="49.171" y="34.9015" width="7.68293" height="3.65854" rx="1.82927" stroke="#D6D6D6" stroke-width="0.243902"/>
<path d="M51.3187 37.2305H51.0243V36.4244C51.0243 36.4022 51.0246 36.3749 51.0253 36.3425C51.0259 36.3095 51.0269 36.2758 51.0281 36.2415C51.0294 36.2066 51.0307 36.1751 51.0319 36.1472C51.025 36.1555 51.0107 36.1697 50.9891 36.1901C50.9681 36.2098 50.9484 36.2275 50.93 36.2434L50.7699 36.372L50.628 36.1948L51.0767 35.8376H51.3187V37.2305ZM52.6268 36.1491C52.6268 36.2133 52.6135 36.2688 52.5868 36.3158C52.5601 36.3628 52.5239 36.4013 52.4782 36.4311C52.4331 36.461 52.3823 36.4829 52.3258 36.4969V36.5026C52.4376 36.5165 52.5223 36.5508 52.5801 36.6055C52.6386 36.6601 52.6678 36.7331 52.6678 36.8246C52.6678 36.9059 52.6478 36.9786 52.6078 37.0428C52.5684 37.1069 52.5074 37.1574 52.4249 37.1943C52.3423 37.2311 52.2359 37.2495 52.1057 37.2495C52.0288 37.2495 51.9571 37.2432 51.8904 37.2305C51.8243 37.2184 51.7621 37.1997 51.7036 37.1743V36.9237C51.7633 36.9542 51.8259 36.9774 51.8913 36.9932C51.9567 37.0085 52.0177 37.0161 52.0742 37.0161C52.1797 37.0161 52.2534 36.998 52.2953 36.9618C52.3378 36.925 52.3591 36.8735 52.3591 36.8075C52.3591 36.7687 52.3493 36.736 52.3296 36.7093C52.3099 36.6826 52.2756 36.6623 52.2267 36.6483C52.1784 36.6344 52.1108 36.6274 52.0237 36.6274H51.918V36.4016H52.0257C52.1114 36.4016 52.1765 36.3936 52.221 36.3778C52.2661 36.3612 52.2965 36.339 52.3124 36.3111C52.3289 36.2825 52.3372 36.2501 52.3372 36.2139C52.3372 36.1643 52.322 36.1256 52.2915 36.0977C52.261 36.0697 52.2102 36.0557 52.139 36.0557C52.0946 36.0557 52.0539 36.0615 52.0171 36.0729C51.9809 36.0837 51.9482 36.097 51.9189 36.1129C51.8897 36.1281 51.864 36.1431 51.8418 36.1577L51.7055 35.9547C51.7602 35.9154 51.824 35.8827 51.897 35.8566C51.9707 35.8306 52.0584 35.8175 52.16 35.8175C52.3035 35.8175 52.4172 35.8464 52.5011 35.9042C52.5849 35.962 52.6268 36.0437 52.6268 36.1491ZM52.8145 36.6388C52.8145 36.5588 52.8202 36.4797 52.8317 36.4016C52.8437 36.3228 52.8644 36.2488 52.8936 36.1796C52.9228 36.1097 52.9638 36.0481 53.0165 35.9948C53.0692 35.9408 53.1362 35.8985 53.2175 35.868C53.2988 35.8369 53.3973 35.8214 53.5129 35.8214C53.5402 35.8214 53.572 35.8226 53.6082 35.8252C53.645 35.8271 53.6755 35.8306 53.6996 35.8357V36.071C53.6742 36.0653 53.6469 36.0608 53.6177 36.0576C53.5891 36.0538 53.5605 36.0519 53.5319 36.0519C53.4163 36.0519 53.3268 36.0703 53.2633 36.1072C53.2004 36.144 53.1559 36.1952 53.1299 36.2606C53.1045 36.3254 53.0895 36.4009 53.0851 36.4873H53.0975C53.1153 36.4562 53.1375 36.4286 53.1642 36.4044C53.1915 36.3803 53.2245 36.3612 53.2633 36.3473C53.302 36.3327 53.3474 36.3254 53.3995 36.3254C53.4808 36.3254 53.5513 36.3428 53.611 36.3778C53.6707 36.4121 53.7168 36.4619 53.7492 36.5273C53.7816 36.5928 53.7978 36.6725 53.7978 36.7665C53.7978 36.8668 53.7784 36.9532 53.7396 37.0256C53.7009 37.098 53.646 37.1536 53.5748 37.1924C53.5043 37.2305 53.4205 37.2495 53.3233 37.2495C53.2522 37.2495 53.1858 37.2375 53.1242 37.2133C53.0626 37.1885 53.0086 37.1511 52.9622 37.1009C52.9158 37.0507 52.8796 36.9875 52.8536 36.9113C52.8275 36.8344 52.8145 36.7436 52.8145 36.6388ZM53.3176 37.0142C53.3754 37.0142 53.4224 36.9945 53.4586 36.9551C53.4948 36.9157 53.5129 36.8541 53.5129 36.7703C53.5129 36.7023 53.497 36.649 53.4652 36.6102C53.4341 36.5709 53.3868 36.5512 53.3233 36.5512C53.2801 36.5512 53.242 36.561 53.209 36.5807C53.1766 36.5998 53.1515 36.6242 53.1337 36.6541C53.1159 36.6833 53.107 36.7134 53.107 36.7446C53.107 36.777 53.1115 36.809 53.1204 36.8408C53.1292 36.8726 53.1426 36.9015 53.1604 36.9275C53.1782 36.9535 53.2001 36.9745 53.2261 36.9904C53.2528 37.0063 53.2833 37.0142 53.3176 37.0142ZM54.9144 37.2305H53.9407V37.0256L54.2903 36.6722C54.3608 36.5998 54.4174 36.5394 54.4599 36.4911C54.5031 36.4422 54.5342 36.3978 54.5533 36.3578C54.573 36.3177 54.5828 36.2749 54.5828 36.2291C54.5828 36.1739 54.5673 36.1326 54.5361 36.1053C54.5056 36.0773 54.4647 36.0634 54.4132 36.0634C54.3592 36.0634 54.3068 36.0757 54.256 36.1005C54.2052 36.1253 54.1522 36.1605 54.0969 36.2063L53.9369 36.0167C53.9769 35.9824 54.0191 35.95 54.0636 35.9195C54.1087 35.889 54.1608 35.8646 54.2198 35.8461C54.2795 35.8271 54.351 35.8175 54.4342 35.8175C54.5257 35.8175 54.6041 35.8341 54.6695 35.8671C54.7356 35.9001 54.7864 35.9452 54.822 36.0024C54.8575 36.0589 54.8753 36.1231 54.8753 36.1948C54.8753 36.2717 54.8601 36.3419 54.8296 36.4054C54.7991 36.4689 54.7546 36.5318 54.6962 36.594C54.6384 36.6563 54.5685 36.7252 54.4866 36.8008L54.3075 36.9694V36.9828H54.9144V37.2305Z" fill="#212121"/>
<rect x="57.2198" y="50.9991" width="6.68293" height="3.65854" rx="1.82927" fill="white"/>
<rect x="57.2198" y="50.9991" width="6.68293" height="3.65854" rx="1.82927" stroke="#D6D6D6" stroke-width="0.243902"/>
<path d="M58.6301 52.7365C58.6301 52.6564 58.6358 52.5774 58.6473 52.4992C58.6593 52.4205 58.68 52.3465 58.7092 52.2772C58.7384 52.2074 58.7794 52.1458 58.8321 52.0924C58.8848 52.0384 58.9518 51.9962 59.0331 51.9657C59.1144 51.9346 59.2129 51.919 59.3285 51.919C59.3558 51.919 59.3876 51.9203 59.4238 51.9228C59.4606 51.9247 59.4911 51.9282 59.5152 51.9333V52.1686C59.4898 52.1629 59.4625 52.1585 59.4333 52.1553C59.4047 52.1515 59.3761 52.1496 59.3475 52.1496C59.2319 52.1496 59.1424 52.168 59.0789 52.2048C59.016 52.2417 58.9715 52.2928 58.9455 52.3582C58.9201 52.423 58.9051 52.4986 58.9007 52.585H58.9131C58.9309 52.5539 58.9531 52.5262 58.9798 52.5021C59.0071 52.478 59.0401 52.4589 59.0789 52.4449C59.1176 52.4303 59.163 52.423 59.2151 52.423C59.2964 52.423 59.3669 52.4405 59.4266 52.4754C59.4863 52.5097 59.5324 52.5596 59.5648 52.625C59.5972 52.6904 59.6134 52.7701 59.6134 52.8641C59.6134 52.9645 59.594 53.0509 59.5552 53.1233C59.5165 53.1957 59.4615 53.2513 59.3904 53.29C59.3199 53.3281 59.2361 53.3472 59.1389 53.3472C59.0677 53.3472 59.0014 53.3351 58.9398 53.311C58.8782 53.2862 58.8242 53.2487 58.7778 53.1986C58.7314 53.1484 58.6952 53.0852 58.6692 53.009C58.6431 52.9321 58.6301 52.8413 58.6301 52.7365ZM59.1332 53.1119C59.191 53.1119 59.238 53.0922 59.2742 53.0528C59.3104 53.0134 59.3285 52.9518 59.3285 52.8679C59.3285 52.8 59.3126 52.7466 59.2808 52.7079C59.2497 52.6685 59.2024 52.6488 59.1389 52.6488C59.0957 52.6488 59.0576 52.6587 59.0246 52.6784C58.9922 52.6974 58.9671 52.7219 58.9493 52.7517C58.9315 52.7809 58.9226 52.8111 58.9226 52.8422C58.9226 52.8746 58.9271 52.9067 58.936 52.9385C58.9448 52.9702 58.9582 52.9991 58.976 53.0252C58.9938 53.0512 59.0157 53.0722 59.0417 53.088C59.0684 53.1039 59.0989 53.1119 59.1332 53.1119ZM60.73 53.3281H59.7563V53.1233L60.1059 52.7698C60.1764 52.6974 60.233 52.6371 60.2755 52.5888C60.3187 52.5399 60.3498 52.4954 60.3689 52.4554C60.3886 52.4154 60.3984 52.3725 60.3984 52.3268C60.3984 52.2715 60.3829 52.2302 60.3517 52.2029C60.3212 52.175 60.2803 52.161 60.2288 52.161C60.1748 52.161 60.1224 52.1734 60.0716 52.1982C60.0208 52.2229 59.9678 52.2582 59.9125 52.3039L59.7525 52.1143C59.7925 52.08 59.8347 52.0476 59.8792 52.0171C59.9243 51.9867 59.9763 51.9622 60.0354 51.9438C60.0951 51.9247 60.1666 51.9152 60.2498 51.9152C60.3412 51.9152 60.4197 51.9317 60.4851 51.9647C60.5512 51.9978 60.602 52.0429 60.6376 52.1C60.6731 52.1566 60.6909 52.2207 60.6909 52.2925C60.6909 52.3693 60.6757 52.4395 60.6452 52.503C60.6147 52.5666 60.5702 52.6294 60.5118 52.6917C60.454 52.7539 60.3841 52.8229 60.3022 52.8984L60.1231 53.0671V53.0804H60.73V53.3281ZM61.839 52.6317C61.839 52.7441 61.8301 52.8444 61.8123 52.9327C61.7951 53.021 61.7672 53.096 61.7284 53.1576C61.6903 53.2192 61.6402 53.2662 61.5779 53.2986C61.5157 53.331 61.4401 53.3472 61.3512 53.3472C61.2394 53.3472 61.1476 53.3189 61.0758 53.2624C61.004 53.2052 60.951 53.1233 60.9167 53.0166C60.8824 52.9092 60.8653 52.7809 60.8653 52.6317C60.8653 52.4811 60.8808 52.3525 60.9119 52.2458C60.9437 52.1385 60.9951 52.0562 61.0663 51.999C61.1374 51.9419 61.2324 51.9133 61.3512 51.9133C61.4623 51.9133 61.5538 51.9419 61.6255 51.999C61.698 52.0556 61.7516 52.1375 61.7866 52.2449C61.8215 52.3516 61.839 52.4805 61.839 52.6317ZM61.1578 52.6317C61.1578 52.7377 61.1635 52.8263 61.1749 52.8975C61.187 52.968 61.207 53.021 61.2349 53.0566C61.2629 53.0922 61.3016 53.1099 61.3512 53.1099C61.4001 53.1099 61.4385 53.0925 61.4664 53.0575C61.495 53.022 61.5153 52.9689 61.5274 52.8984C61.5395 52.8273 61.5455 52.7384 61.5455 52.6317C61.5455 52.5256 61.5395 52.437 61.5274 52.3659C61.5153 52.2947 61.495 52.2414 61.4664 52.2058C61.4385 52.1696 61.4001 52.1515 61.3512 52.1515C61.3016 52.1515 61.2629 52.1696 61.2349 52.2058C61.207 52.2414 61.187 52.2947 61.1749 52.3659C61.1635 52.437 61.1578 52.5256 61.1578 52.6317Z" fill="#212121"/>
<rect x="65.2687" y="32.9484" width="7.68293" height="3.65854" rx="1.82927" fill="white"/>
<rect x="65.2687" y="32.9484" width="7.68293" height="3.65854" rx="1.82927" stroke="#D6D6D6" stroke-width="0.243902"/>
<path d="M67.4164 35.2773H67.122V34.4713C67.122 34.4491 67.1223 34.4218 67.1229 34.3894C67.1236 34.3564 67.1245 34.3227 67.1258 34.2884C67.1271 34.2535 67.1283 34.222 67.1296 34.1941C67.1226 34.2023 67.1083 34.2166 67.0867 34.2369C67.0658 34.2566 67.0461 34.2744 67.0277 34.2903L66.8676 34.4189L66.7256 34.2417L67.1744 33.8844H67.4164V35.2773ZM68.8102 34.9887H68.6426V35.2773H68.3548V34.9887H67.7603V34.7838L68.371 33.8844H68.6426V34.76H68.8102V34.9887ZM68.3548 34.76V34.5237C68.3548 34.5015 68.3551 34.4751 68.3558 34.4446C68.357 34.4142 68.3583 34.3837 68.3596 34.3532C68.3609 34.3227 68.3621 34.2957 68.3634 34.2722C68.3653 34.2481 68.3666 34.2312 68.3672 34.2217H68.3596C68.3475 34.2477 68.3348 34.2732 68.3215 34.2979C68.3081 34.3221 68.2926 34.3475 68.2748 34.3741L68.0195 34.76H68.3548ZM68.9122 34.6857C68.9122 34.6057 68.9179 34.5266 68.9293 34.4485C68.9414 34.3697 68.962 34.2957 68.9913 34.2265C69.0205 34.1566 69.0614 34.095 69.1142 34.0416C69.1669 33.9876 69.2339 33.9454 69.3152 33.9149C69.3965 33.8838 69.4949 33.8682 69.6105 33.8682C69.6379 33.8682 69.6696 33.8695 69.7058 33.872C69.7427 33.874 69.7731 33.8774 69.7973 33.8825V34.1179C69.7719 34.1121 69.7446 34.1077 69.7153 34.1045C69.6868 34.1007 69.6582 34.0988 69.6296 34.0988C69.514 34.0988 69.4244 34.1172 69.3609 34.1541C69.298 34.1909 69.2536 34.242 69.2275 34.3075C69.2021 34.3722 69.1872 34.4478 69.1828 34.5342H69.1951C69.2129 34.5031 69.2352 34.4755 69.2618 34.4513C69.2891 34.4272 69.3222 34.4081 69.3609 34.3942C69.3997 34.3795 69.4451 34.3722 69.4972 34.3722C69.5785 34.3722 69.649 34.3897 69.7087 34.4246C69.7684 34.4589 69.8144 34.5088 69.8468 34.5742C69.8792 34.6396 69.8954 34.7194 69.8954 34.8134C69.8954 34.9137 69.876 35.0001 69.8373 35.0725C69.7986 35.1449 69.7436 35.2005 69.6725 35.2392C69.602 35.2773 69.5181 35.2964 69.4209 35.2964C69.3498 35.2964 69.2834 35.2843 69.2218 35.2602C69.1602 35.2354 69.1062 35.1979 69.0599 35.1478C69.0135 35.0976 68.9773 35.0344 68.9512 34.9582C68.9252 34.8813 68.9122 34.7905 68.9122 34.6857ZM69.4152 35.0611C69.473 35.0611 69.52 35.0414 69.5562 35.002C69.5924 34.9626 69.6105 34.901 69.6105 34.8172C69.6105 34.7492 69.5947 34.6959 69.5629 34.6571C69.5318 34.6177 69.4845 34.598 69.4209 34.598C69.3778 34.598 69.3396 34.6079 69.3066 34.6276C69.2742 34.6466 69.2491 34.6711 69.2313 34.7009C69.2136 34.7302 69.2047 34.7603 69.2047 34.7914C69.2047 34.8238 69.2091 34.8559 69.218 34.8877C69.2269 34.9194 69.2402 34.9483 69.258 34.9744C69.2758 35.0004 69.2977 35.0214 69.3238 35.0373C69.3504 35.0531 69.3809 35.0611 69.4152 35.0611ZM70.5452 34.3875C70.6303 34.3875 70.7059 34.4037 70.7719 34.4361C70.8386 34.4685 70.891 34.5161 70.9291 34.579C70.9672 34.6419 70.9863 34.7194 70.9863 34.8115C70.9863 34.9118 70.9653 34.9985 70.9234 35.0716C70.8821 35.144 70.8202 35.1995 70.7376 35.2383C70.6557 35.277 70.5534 35.2964 70.4309 35.2964C70.3578 35.2964 70.2889 35.29 70.2241 35.2773C70.16 35.2653 70.1037 35.2465 70.0555 35.2211V34.9667C70.1037 34.9922 70.1615 35.0138 70.2289 35.0315C70.2968 35.0487 70.3607 35.0573 70.4204 35.0573C70.4788 35.0573 70.528 35.0496 70.568 35.0344C70.6081 35.0185 70.6382 34.9944 70.6586 34.962C70.6795 34.929 70.69 34.887 70.69 34.8362C70.69 34.7683 70.6671 34.7162 70.6214 34.68C70.5757 34.6438 70.5055 34.6257 70.4108 34.6257C70.3746 34.6257 70.3369 34.6292 70.2975 34.6361C70.2587 34.6431 70.2263 34.6501 70.2003 34.6571L70.0831 34.5942L70.1355 33.8844H70.891V34.1341H70.3937L70.368 34.4075C70.3896 34.403 70.4131 34.3986 70.4385 34.3942C70.4639 34.3897 70.4995 34.3875 70.5452 34.3875Z" fill="#212121"/>
<rect x="73.3175" y="22.464" width="7.68293" height="3.65854" rx="1.82927" fill="white"/>
<rect x="73.3175" y="22.464" width="7.68293" height="3.65854" rx="1.82927" stroke="#D6D6D6" stroke-width="0.243902"/>
<path d="M75.711 24.793H74.7373V24.5881L75.087 24.2347C75.1575 24.1623 75.214 24.1019 75.2566 24.0536C75.2997 24.0047 75.3309 23.9603 75.3499 23.9203C75.3696 23.8802 75.3795 23.8374 75.3795 23.7916C75.3795 23.7364 75.3639 23.6951 75.3328 23.6678C75.3023 23.6398 75.2613 23.6259 75.2099 23.6259C75.1559 23.6259 75.1035 23.6382 75.0527 23.663C75.0018 23.6878 74.9488 23.723 74.8936 23.7688L74.7335 23.5792C74.7735 23.5449 74.8157 23.5125 74.8602 23.482C74.9053 23.4515 74.9574 23.4271 75.0165 23.4086C75.0762 23.3896 75.1476 23.38 75.2308 23.38C75.3223 23.38 75.4007 23.3966 75.4662 23.4296C75.5322 23.4626 75.583 23.5077 75.6186 23.5649C75.6542 23.6214 75.6719 23.6856 75.6719 23.7573C75.6719 23.8342 75.6567 23.9044 75.6262 23.9679C75.5957 24.0314 75.5513 24.0943 75.4928 24.1565C75.435 24.2188 75.3652 24.2877 75.2832 24.3633L75.1041 24.5319V24.5453H75.711V24.793ZM76.8276 24.793H75.8539V24.5881L76.2036 24.2347C76.2741 24.1623 76.3306 24.1019 76.3732 24.0536C76.4164 24.0047 76.4475 23.9603 76.4665 23.9203C76.4862 23.8802 76.4961 23.8374 76.4961 23.7916C76.4961 23.7364 76.4805 23.6951 76.4494 23.6678C76.4189 23.6398 76.3779 23.6259 76.3265 23.6259C76.2725 23.6259 76.2201 23.6382 76.1693 23.663C76.1185 23.6878 76.0654 23.723 76.0102 23.7688L75.8501 23.5792C75.8901 23.5449 75.9324 23.5125 75.9768 23.482C76.0219 23.4515 76.074 23.4271 76.1331 23.4086C76.1928 23.3896 76.2642 23.38 76.3474 23.38C76.4389 23.38 76.5173 23.3966 76.5828 23.4296C76.6488 23.4626 76.6996 23.5077 76.7352 23.5649C76.7708 23.6214 76.7886 23.6856 76.7886 23.7573C76.7886 23.8342 76.7733 23.9044 76.7428 23.9679C76.7123 24.0314 76.6679 24.0943 76.6094 24.1565C76.5516 24.2188 76.4818 24.2877 76.3998 24.3633L76.2207 24.5319V24.5453H76.8276V24.793ZM77.9385 23.9946C77.9385 24.0746 77.9325 24.154 77.9204 24.2328C77.909 24.3115 77.8887 24.3858 77.8594 24.4557C77.8302 24.5249 77.7893 24.5865 77.7365 24.6405C77.6838 24.6939 77.6168 24.7358 77.5355 24.7663C77.4542 24.7968 77.3558 24.812 77.2402 24.812C77.2129 24.812 77.1808 24.8108 77.1439 24.8082C77.1071 24.8063 77.0766 24.8031 77.0525 24.7987V24.5624C77.0779 24.5688 77.1049 24.5738 77.1335 24.5776C77.162 24.5808 77.1909 24.5824 77.2202 24.5824C77.3364 24.5824 77.4259 24.564 77.4888 24.5272C77.5523 24.4903 77.5968 24.4392 77.6222 24.3738C77.6483 24.3083 77.6632 24.2328 77.667 24.147H77.6556C77.6371 24.1775 77.6152 24.2051 77.5898 24.2299C77.565 24.254 77.5333 24.2734 77.4945 24.288C77.4558 24.302 77.4066 24.309 77.3469 24.309C77.2675 24.309 77.1982 24.2918 77.1392 24.2575C77.0807 24.2226 77.0353 24.1724 77.0029 24.107C76.9712 24.0409 76.9553 23.9612 76.9553 23.8679C76.9553 23.7669 76.9743 23.6805 77.0125 23.6087C77.0512 23.5363 77.1061 23.4807 77.1773 23.442C77.2484 23.4032 77.3323 23.3839 77.4288 23.3839C77.4999 23.3839 77.5663 23.3962 77.6279 23.421C77.6895 23.4452 77.7435 23.4823 77.7899 23.5325C77.8369 23.5827 77.8734 23.6462 77.8995 23.723C77.9255 23.7999 77.9385 23.8904 77.9385 23.9946ZM77.4345 23.6201C77.3774 23.6201 77.3307 23.6398 77.2945 23.6792C77.2583 23.7186 77.2402 23.7802 77.2402 23.864C77.2402 23.9314 77.2557 23.9847 77.2868 24.0241C77.318 24.0635 77.3653 24.0832 77.4288 24.0832C77.4726 24.0832 77.5107 24.0736 77.5431 24.0546C77.5755 24.0349 77.6006 24.0104 77.6184 23.9812C77.6368 23.9514 77.646 23.9209 77.646 23.8898C77.646 23.8574 77.6416 23.8253 77.6327 23.7935C77.6238 23.7618 77.6105 23.7329 77.5927 23.7068C77.5749 23.6808 77.5527 23.6598 77.526 23.644C77.4999 23.6281 77.4695 23.6201 77.4345 23.6201ZM78.5673 23.382C78.6474 23.382 78.721 23.3943 78.7884 23.4191C78.8563 23.4439 78.9106 23.4814 78.9513 23.5315C78.9919 23.5811 79.0123 23.6433 79.0123 23.7183C79.0123 23.7742 79.0012 23.8231 78.9789 23.865C78.9573 23.9069 78.9278 23.9438 78.8903 23.9755C78.8528 24.0066 78.8103 24.0339 78.7626 24.0575C78.8122 24.0835 78.8592 24.114 78.9037 24.1489C78.9481 24.1832 78.9843 24.2235 79.0123 24.2699C79.0408 24.3163 79.0551 24.3703 79.0551 24.4319C79.0551 24.5094 79.0345 24.5767 78.9932 24.6339C78.9519 24.6904 78.8948 24.7342 78.8217 24.7653C78.7487 24.7965 78.6639 24.812 78.5673 24.812C78.4632 24.812 78.3746 24.7971 78.3015 24.7672C78.2285 24.7374 78.1729 24.6948 78.1348 24.6396C78.0967 24.5837 78.0776 24.517 78.0776 24.4395C78.0776 24.376 78.0894 24.3207 78.1129 24.2737C78.137 24.2267 78.1694 24.1864 78.2101 24.1527C78.2507 24.1184 78.2955 24.0892 78.3444 24.0651C78.3031 24.039 78.2653 24.0095 78.231 23.9765C78.1974 23.9434 78.1704 23.9056 78.15 23.8631C78.1303 23.8205 78.1205 23.7716 78.1205 23.7164C78.1205 23.6427 78.1411 23.5811 78.1824 23.5315C78.2243 23.482 78.2793 23.4448 78.3473 23.4201C78.4152 23.3947 78.4886 23.382 78.5673 23.382ZM78.3501 24.4224C78.3501 24.4725 78.3679 24.5141 78.4035 24.5472C78.4397 24.5796 78.493 24.5958 78.5635 24.5958C78.6366 24.5958 78.6912 24.5802 78.7274 24.5491C78.7636 24.5173 78.7817 24.4757 78.7817 24.4243C78.7817 24.3887 78.7712 24.3576 78.7503 24.3309C78.7299 24.3042 78.7042 24.2804 78.6731 24.2594C78.642 24.2378 78.6105 24.2178 78.5788 24.1994L78.553 24.1861C78.5124 24.2045 78.4768 24.2251 78.4463 24.248C78.4165 24.2709 78.393 24.2966 78.3758 24.3252C78.3587 24.3538 78.3501 24.3861 78.3501 24.4224ZM78.5654 23.5973C78.5172 23.5973 78.4771 23.6097 78.4454 23.6344C78.4136 23.6592 78.3977 23.6941 78.3977 23.7392C78.3977 23.771 78.4054 23.7989 78.4206 23.8231C78.4365 23.8466 78.4571 23.8672 78.4825 23.885C78.5086 23.9028 78.5368 23.9193 78.5673 23.9345C78.5966 23.9206 78.6239 23.905 78.6493 23.8879C78.6747 23.8707 78.6953 23.8501 78.7112 23.8259C78.7271 23.8018 78.735 23.7729 78.735 23.7392C78.735 23.6941 78.7188 23.6592 78.6864 23.6344C78.6547 23.6097 78.6143 23.5973 78.5654 23.5973Z" fill="#212121"/>
<rect x="41.1222" y="27.5812" width="7.68293" height="3.65854" rx="1.82927" fill="white"/>
<rect x="41.1222" y="27.5812" width="7.68293" height="3.65854" rx="1.82927" stroke="#D6D6D6" stroke-width="0.243902"/>
<path d="M43.2699 29.9102H42.9755V29.1041C42.9755 29.0819 42.9758 29.0546 42.9764 29.0222C42.9771 28.9892 42.978 28.9555 42.9793 28.9212C42.9806 28.8863 42.9818 28.8548 42.9831 28.8269C42.9761 28.8351 42.9618 28.8494 42.9402 28.8698C42.9193 28.8894 42.8996 28.9072 42.8812 28.9231L42.7211 29.0517L42.5791 28.8745L43.0279 28.5172H43.2699V29.9102ZM44.6266 29.1118C44.6266 29.1918 44.6206 29.2712 44.6085 29.3499C44.5971 29.4287 44.5767 29.503 44.5475 29.5729C44.5183 29.6421 44.4773 29.7037 44.4246 29.7577C44.3719 29.8111 44.3049 29.853 44.2236 29.8835C44.1423 29.914 44.0438 29.9292 43.9282 29.9292C43.9009 29.9292 43.8688 29.9279 43.832 29.9254C43.7952 29.9235 43.7647 29.9203 43.7405 29.9159V29.6796C43.766 29.6859 43.7929 29.691 43.8215 29.6948C43.8501 29.698 43.879 29.6996 43.9082 29.6996C44.0245 29.6996 44.114 29.6812 44.1769 29.6443C44.2404 29.6075 44.2849 29.5564 44.3103 29.4909C44.3363 29.4255 44.3513 29.3499 44.3551 29.2642H44.3436C44.3252 29.2947 44.3033 29.3223 44.2779 29.3471C44.2531 29.3712 44.2214 29.3906 44.1826 29.4052C44.1439 29.4192 44.0946 29.4262 44.0349 29.4262C43.9555 29.4262 43.8863 29.409 43.8272 29.3747C43.7688 29.3398 43.7234 29.2896 43.691 29.2242C43.6592 29.1581 43.6434 29.0784 43.6434 28.985C43.6434 28.8841 43.6624 28.7977 43.7005 28.7259C43.7393 28.6535 43.7942 28.5979 43.8654 28.5592C43.9365 28.5204 44.0203 28.501 44.1169 28.501C44.188 28.501 44.2544 28.5134 44.316 28.5382C44.3776 28.5623 44.4316 28.5995 44.478 28.6497C44.525 28.6999 44.5615 28.7634 44.5875 28.8402C44.6136 28.9171 44.6266 29.0076 44.6266 29.1118ZM44.1226 28.7373C44.0654 28.7373 44.0187 28.757 43.9825 28.7964C43.9463 28.8358 43.9282 28.8974 43.9282 28.9812C43.9282 29.0486 43.9438 29.1019 43.9749 29.1413C44.006 29.1807 44.0534 29.2004 44.1169 29.2004C44.1607 29.2004 44.1988 29.1908 44.2312 29.1718C44.2636 29.1521 44.2887 29.1276 44.3065 29.0984C44.3249 29.0686 44.3341 29.0381 44.3341 29.007C44.3341 28.9746 44.3297 28.9425 44.3208 28.9107C44.3119 28.879 44.2985 28.8501 44.2807 28.824C44.263 28.798 44.2407 28.777 44.2141 28.7611C44.188 28.7453 44.1575 28.7373 44.1226 28.7373ZM45.2821 29.0203C45.3672 29.0203 45.4428 29.0365 45.5088 29.0689C45.5755 29.1013 45.6279 29.1489 45.666 29.2118C45.7041 29.2747 45.7232 29.3522 45.7232 29.4443C45.7232 29.5446 45.7022 29.6313 45.6603 29.7044C45.619 29.7768 45.5571 29.8323 45.4745 29.8711C45.3926 29.9098 45.2903 29.9292 45.1678 29.9292C45.0947 29.9292 45.0258 29.9229 44.961 29.9102C44.8969 29.8981 44.8406 29.8794 44.7924 29.8539V29.5996C44.8406 29.625 44.8984 29.6466 44.9658 29.6643C45.0337 29.6815 45.0976 29.6901 45.1573 29.6901C45.2157 29.6901 45.2649 29.6825 45.3049 29.6672C45.345 29.6513 45.3751 29.6272 45.3955 29.5948C45.4164 29.5618 45.4269 29.5198 45.4269 29.469C45.4269 29.4011 45.404 29.349 45.3583 29.3128C45.3126 29.2766 45.2424 29.2585 45.1477 29.2585C45.1115 29.2585 45.0738 29.262 45.0344 29.269C44.9956 29.2759 44.9632 29.2829 44.9372 29.2899L44.82 29.227L44.8724 28.5172H45.6279V28.7669H45.1306L45.1049 29.0403C45.1265 29.0359 45.15 29.0314 45.1754 29.027C45.2008 29.0225 45.2364 29.0203 45.2821 29.0203ZM46.8112 28.8288C46.8112 28.8929 46.7979 28.9485 46.7712 28.9955C46.7445 29.0425 46.7083 29.081 46.6626 29.1108C46.6175 29.1407 46.5667 29.1626 46.5102 29.1765V29.1823C46.622 29.1962 46.7068 29.2305 46.7646 29.2852C46.823 29.3398 46.8522 29.4128 46.8522 29.5043C46.8522 29.5856 46.8322 29.6583 46.7922 29.7225C46.7528 29.7866 46.6918 29.8371 46.6093 29.874C46.5267 29.9108 46.4203 29.9292 46.2901 29.9292C46.2132 29.9292 46.1415 29.9229 46.0748 29.9102C46.0087 29.8981 45.9465 29.8794 45.888 29.8539V29.6034C45.9477 29.6339 46.0103 29.657 46.0757 29.6729C46.1411 29.6882 46.2021 29.6958 46.2586 29.6958C46.3641 29.6958 46.4378 29.6777 46.4797 29.6415C46.5222 29.6046 46.5435 29.5532 46.5435 29.4871C46.5435 29.4484 46.5337 29.4157 46.514 29.389C46.4943 29.3623 46.46 29.342 46.4111 29.328C46.3628 29.3141 46.2952 29.3071 46.2082 29.3071H46.1024V29.0813H46.2101C46.2958 29.0813 46.3609 29.0733 46.4054 29.0575C46.4505 29.0409 46.481 29.0187 46.4968 28.9908C46.5133 28.9622 46.5216 28.9298 46.5216 28.8936C46.5216 28.844 46.5064 28.8053 46.4759 28.7773C46.4454 28.7494 46.3946 28.7354 46.3234 28.7354C46.279 28.7354 46.2383 28.7411 46.2015 28.7526C46.1653 28.7634 46.1326 28.7767 46.1033 28.7926C46.0741 28.8078 46.0484 28.8228 46.0262 28.8374L45.8899 28.6344C45.9446 28.5951 46.0084 28.5623 46.0814 28.5363C46.1551 28.5103 46.2428 28.4972 46.3444 28.4972C46.4879 28.4972 46.6016 28.5261 46.6855 28.5839C46.7693 28.6417 46.8112 28.7234 46.8112 28.8288Z" fill="#212121"/>
<path d="M20.9993 66.2447C21.4034 66.2447 21.731 65.9171 21.731 65.513C21.731 65.1088 21.4034 64.7812 20.9993 64.7812C20.5952 64.7812 20.2676 65.1088 20.2676 65.513C20.2676 65.9171 20.5952 66.2447 20.9993 66.2447Z" fill="#90DFFF"/>
</g>
<defs>
<clipPath id="clip0_7800_42338">
<rect width="70" height="60.7317" fill="white" transform="translate(11 16)"/>
</clipPath>
</defs>
</svg>
