<svg width="93" height="92" viewBox="0 0 93 92" fill="none" xmlns="http://www.w3.org/2000/svg">
<rect x="1.13104" y="0.389831" width="91.079" height="91.2203" rx="17.5424" stroke="#BEBEBE" stroke-width="0.779661"/>
<rect width="70" height="60.7317" transform="translate(11.499 16)" fill="white"/>
<path d="M21.2549 21.8555V68.9286" stroke="#E0E0E0" stroke-width="0.243902"/>
<path d="M15.3589 23.8555H14.4462V23.723L14.8187 23.3448C14.8879 23.2749 14.946 23.2127 14.993 23.1581C15.0407 23.1034 15.0769 23.0498 15.1017 22.997C15.1264 22.9437 15.1388 22.8853 15.1388 22.8217C15.1388 22.743 15.1153 22.683 15.0683 22.6417C15.0219 22.5998 14.9607 22.5788 14.8844 22.5788C14.8177 22.5788 14.7587 22.5902 14.7072 22.6131C14.6558 22.636 14.6031 22.6683 14.5491 22.7103L14.4643 22.6036C14.5011 22.5724 14.5411 22.5448 14.5843 22.5207C14.6281 22.4965 14.6748 22.4775 14.7244 22.4635C14.7745 22.4495 14.8279 22.4425 14.8844 22.4425C14.9702 22.4425 15.0442 22.4575 15.1064 22.4873C15.1687 22.5172 15.2166 22.5597 15.2503 22.615C15.2846 22.6703 15.3017 22.736 15.3017 22.8122C15.3017 22.8859 15.2871 22.9545 15.2579 23.018C15.2287 23.0809 15.1877 23.1435 15.135 23.2057C15.0823 23.2673 15.0207 23.3327 14.9502 23.402L14.6472 23.704V23.7107H15.3589V23.8555ZM16.003 23.0037C16.0976 23.0037 16.1798 23.0199 16.2497 23.0523C16.3196 23.0841 16.3736 23.1304 16.4117 23.1914C16.4504 23.2524 16.4698 23.3264 16.4698 23.4134C16.4698 23.5087 16.4492 23.5909 16.4079 23.6602C16.3666 23.7288 16.3072 23.7818 16.2297 23.8193C16.1522 23.8561 16.0595 23.8745 15.9515 23.8745C15.8791 23.8745 15.8118 23.8682 15.7495 23.8555C15.6873 23.8428 15.6349 23.8237 15.5923 23.7983V23.6478C15.6387 23.6757 15.6949 23.6979 15.761 23.7145C15.827 23.731 15.8912 23.7392 15.9534 23.7392C16.0239 23.7392 16.0855 23.7281 16.1382 23.7059C16.1916 23.683 16.2329 23.6487 16.2621 23.603C16.292 23.5566 16.3069 23.4985 16.3069 23.4286C16.3069 23.3359 16.2783 23.2644 16.2211 23.2143C16.1646 23.1635 16.075 23.1381 15.9525 23.1381C15.9131 23.1381 15.8699 23.1412 15.8229 23.1476C15.7759 23.1539 15.7371 23.1609 15.7067 23.1685L15.6266 23.1161L15.68 22.4626H16.3726V22.6074H15.8153L15.78 23.0275C15.8041 23.0225 15.8353 23.0174 15.8734 23.0123C15.9115 23.0066 15.9547 23.0037 16.003 23.0037ZM17.5998 23.1571C17.5998 23.2702 17.5912 23.3712 17.574 23.4601C17.5569 23.549 17.5299 23.6243 17.493 23.6859C17.4562 23.7475 17.4086 23.7945 17.3501 23.8269C17.2917 23.8586 17.2215 23.8745 17.1396 23.8745C17.036 23.8745 16.9503 23.8463 16.8823 23.7897C16.815 23.7332 16.7645 23.6516 16.7308 23.5449C16.6978 23.4375 16.6813 23.3083 16.6813 23.1571C16.6813 23.0085 16.6962 22.8808 16.7261 22.7741C16.7566 22.6668 16.8055 22.5845 16.8728 22.5273C16.9401 22.4695 17.0291 22.4406 17.1396 22.4406C17.2444 22.4406 17.3308 22.4692 17.3987 22.5264C17.4667 22.5829 17.5172 22.6649 17.5502 22.7722C17.5832 22.8789 17.5998 23.0072 17.5998 23.1571ZM16.8404 23.1571C16.8404 23.2867 16.8503 23.3947 16.87 23.481C16.8896 23.5674 16.9214 23.6322 16.9652 23.6754C17.0097 23.718 17.0678 23.7392 17.1396 23.7392C17.2114 23.7392 17.2692 23.718 17.313 23.6754C17.3574 23.6328 17.3895 23.5684 17.4092 23.482C17.4295 23.3956 17.4397 23.2873 17.4397 23.1571C17.4397 23.0294 17.4298 22.9227 17.4102 22.837C17.3905 22.7506 17.3587 22.6858 17.3149 22.6426C17.2711 22.5988 17.2126 22.5769 17.1396 22.5769C17.0665 22.5769 17.0081 22.5988 16.9643 22.6426C16.9204 22.6858 16.8887 22.7506 16.869 22.837C16.8499 22.9227 16.8404 23.0294 16.8404 23.1571ZM18.7164 23.1571C18.7164 23.2702 18.7078 23.3712 18.6906 23.4601C18.6735 23.549 18.6465 23.6243 18.6097 23.6859C18.5728 23.7475 18.5252 23.7945 18.4667 23.8269C18.4083 23.8586 18.3381 23.8745 18.2562 23.8745C18.1527 23.8745 18.0669 23.8463 17.999 23.7897C17.9316 23.7332 17.8811 23.6516 17.8475 23.5449C17.8144 23.4375 17.7979 23.3083 17.7979 23.1571C17.7979 23.0085 17.8128 22.8808 17.8427 22.7741C17.8732 22.6668 17.9221 22.5845 17.9894 22.5273C18.0568 22.4695 18.1457 22.4406 18.2562 22.4406C18.361 22.4406 18.4474 22.4692 18.5153 22.5264C18.5833 22.5829 18.6338 22.6649 18.6668 22.7722C18.6999 22.8789 18.7164 23.0072 18.7164 23.1571ZM17.957 23.1571C17.957 23.2867 17.9669 23.3947 17.9866 23.481C18.0063 23.5674 18.038 23.6322 18.0818 23.6754C18.1263 23.718 18.1844 23.7392 18.2562 23.7392C18.328 23.7392 18.3858 23.718 18.4296 23.6754C18.4741 23.6328 18.5061 23.5684 18.5258 23.482C18.5461 23.3956 18.5563 23.2873 18.5563 23.1571C18.5563 23.0294 18.5465 22.9227 18.5268 22.837C18.5071 22.7506 18.4753 22.6858 18.4315 22.6426C18.3877 22.5988 18.3292 22.5769 18.2562 22.5769C18.1831 22.5769 18.1247 22.5988 18.0809 22.6426C18.0371 22.6858 18.0053 22.7506 17.9856 22.837C17.9666 22.9227 17.957 23.0294 17.957 23.1571Z" fill="#212121"/>
<path d="M15.3589 31.2461H14.4462V31.1137L14.8187 30.7354C14.8879 30.6656 14.946 30.6033 14.993 30.5487C15.0407 30.4941 15.0769 30.4404 15.1017 30.3877C15.1264 30.3343 15.1388 30.2759 15.1388 30.2124C15.1388 30.1336 15.1153 30.0736 15.0683 30.0323C15.0219 29.9904 14.9607 29.9694 14.8844 29.9694C14.8177 29.9694 14.7587 29.9808 14.7072 30.0037C14.6558 30.0266 14.6031 30.059 14.5491 30.1009L14.4643 29.9942C14.5011 29.9631 14.5411 29.9354 14.5843 29.9113C14.6281 29.8872 14.6748 29.8681 14.7244 29.8541C14.7745 29.8402 14.8279 29.8332 14.8844 29.8332C14.9702 29.8332 15.0442 29.8481 15.1064 29.878C15.1687 29.9078 15.2166 29.9504 15.2503 30.0056C15.2846 30.0609 15.3017 30.1266 15.3017 30.2028C15.3017 30.2765 15.2871 30.3451 15.2579 30.4086C15.2287 30.4715 15.1877 30.5341 15.135 30.5963C15.0823 30.6579 15.0207 30.7234 14.9502 30.7926L14.6472 31.0946V31.1013H15.3589V31.2461ZM16.4831 30.5477C16.4831 30.6608 16.4746 30.7618 16.4574 30.8507C16.4403 30.9396 16.4133 31.0149 16.3764 31.0765C16.3396 31.1381 16.292 31.1851 16.2335 31.2175C16.1751 31.2493 16.1049 31.2651 16.023 31.2651C15.9194 31.2651 15.8337 31.2369 15.7657 31.1804C15.6984 31.1238 15.6479 31.0422 15.6142 30.9355C15.5812 30.8282 15.5647 30.6989 15.5647 30.5477C15.5647 30.3991 15.5796 30.2714 15.6095 30.1647C15.64 30.0574 15.6889 29.9751 15.7562 29.918C15.8235 29.8602 15.9124 29.8313 16.023 29.8313C16.1278 29.8313 16.2141 29.8599 16.2821 29.917C16.3501 29.9735 16.4006 30.0555 16.4336 30.1628C16.4666 30.2695 16.4831 30.3978 16.4831 30.5477ZM15.7238 30.5477C15.7238 30.6773 15.7336 30.7853 15.7533 30.8717C15.773 30.958 15.8048 31.0228 15.8486 31.066C15.8931 31.1086 15.9512 31.1299 16.023 31.1299C16.0947 31.1299 16.1525 31.1086 16.1964 31.066C16.2408 31.0235 16.2729 30.959 16.2926 30.8726C16.3129 30.7862 16.3231 30.6779 16.3231 30.5477C16.3231 30.4201 16.3132 30.3134 16.2935 30.2276C16.2739 30.1412 16.2421 30.0764 16.1983 30.0333C16.1544 29.9894 16.096 29.9675 16.023 29.9675C15.9499 29.9675 15.8915 29.9894 15.8477 30.0333C15.8038 30.0764 15.7721 30.1412 15.7524 30.2276C15.7333 30.3134 15.7238 30.4201 15.7238 30.5477ZM17.5998 30.5477C17.5998 30.6608 17.5912 30.7618 17.574 30.8507C17.5569 30.9396 17.5299 31.0149 17.493 31.0765C17.4562 31.1381 17.4086 31.1851 17.3501 31.2175C17.2917 31.2493 17.2215 31.2651 17.1396 31.2651C17.036 31.2651 16.9503 31.2369 16.8823 31.1804C16.815 31.1238 16.7645 31.0422 16.7308 30.9355C16.6978 30.8282 16.6813 30.6989 16.6813 30.5477C16.6813 30.3991 16.6962 30.2714 16.7261 30.1647C16.7566 30.0574 16.8055 29.9751 16.8728 29.918C16.9401 29.8602 17.0291 29.8313 17.1396 29.8313C17.2444 29.8313 17.3308 29.8599 17.3987 29.917C17.4667 29.9735 17.5172 30.0555 17.5502 30.1628C17.5832 30.2695 17.5998 30.3978 17.5998 30.5477ZM16.8404 30.5477C16.8404 30.6773 16.8503 30.7853 16.87 30.8717C16.8896 30.958 16.9214 31.0228 16.9652 31.066C17.0097 31.1086 17.0678 31.1299 17.1396 31.1299C17.2114 31.1299 17.2692 31.1086 17.313 31.066C17.3574 31.0235 17.3895 30.959 17.4092 30.8726C17.4295 30.7862 17.4397 30.6779 17.4397 30.5477C17.4397 30.4201 17.4298 30.3134 17.4102 30.2276C17.3905 30.1412 17.3587 30.0764 17.3149 30.0333C17.2711 29.9894 17.2126 29.9675 17.1396 29.9675C17.0665 29.9675 17.0081 29.9894 16.9643 30.0333C16.9204 30.0764 16.8887 30.1412 16.869 30.2276C16.8499 30.3134 16.8404 30.4201 16.8404 30.5477ZM18.7164 30.5477C18.7164 30.6608 18.7078 30.7618 18.6906 30.8507C18.6735 30.9396 18.6465 31.0149 18.6097 31.0765C18.5728 31.1381 18.5252 31.1851 18.4667 31.2175C18.4083 31.2493 18.3381 31.2651 18.2562 31.2651C18.1527 31.2651 18.0669 31.2369 17.999 31.1804C17.9316 31.1238 17.8811 31.0422 17.8475 30.9355C17.8144 30.8282 17.7979 30.6989 17.7979 30.5477C17.7979 30.3991 17.8128 30.2714 17.8427 30.1647C17.8732 30.0574 17.9221 29.9751 17.9894 29.918C18.0568 29.8602 18.1457 29.8313 18.2562 29.8313C18.361 29.8313 18.4474 29.8599 18.5153 29.917C18.5833 29.9735 18.6338 30.0555 18.6668 30.1628C18.6999 30.2695 18.7164 30.3978 18.7164 30.5477ZM17.957 30.5477C17.957 30.6773 17.9669 30.7853 17.9866 30.8717C18.0063 30.958 18.038 31.0228 18.0818 31.066C18.1263 31.1086 18.1844 31.1299 18.2562 31.1299C18.328 31.1299 18.3858 31.1086 18.4296 31.066C18.4741 31.0235 18.5061 30.959 18.5258 30.8726C18.5461 30.7862 18.5563 30.6779 18.5563 30.5477C18.5563 30.4201 18.5465 30.3134 18.5268 30.2276C18.5071 30.1412 18.4753 30.0764 18.4315 30.0333C18.3877 29.9894 18.3292 29.9675 18.2562 29.9675C18.1831 29.9675 18.1247 29.9894 18.0809 30.0333C18.0371 30.0764 18.0053 30.1412 17.9856 30.2276C17.9666 30.3134 17.957 30.4201 17.957 30.5477Z" fill="#212121"/>
<path d="M15.035 38.6367H14.8806V37.6497C14.8806 37.6122 14.8806 37.5801 14.8806 37.5534C14.8813 37.5261 14.8819 37.5014 14.8825 37.4791C14.8838 37.4563 14.8854 37.4331 14.8873 37.4096C14.8676 37.4299 14.8492 37.4474 14.832 37.462C14.8149 37.476 14.7936 37.4934 14.7682 37.5144L14.6091 37.6421L14.5262 37.5344L14.9035 37.2438H15.035V38.6367ZM16.003 37.785C16.0976 37.785 16.1798 37.8012 16.2497 37.8336C16.3196 37.8653 16.3736 37.9117 16.4117 37.9727C16.4504 38.0336 16.4698 38.1076 16.4698 38.1946C16.4698 38.2899 16.4492 38.3722 16.4079 38.4414C16.3666 38.51 16.3072 38.563 16.2297 38.6005C16.1522 38.6374 16.0595 38.6558 15.9515 38.6558C15.8791 38.6558 15.8118 38.6494 15.7495 38.6367C15.6873 38.624 15.6349 38.605 15.5923 38.5796V38.429C15.6387 38.457 15.6949 38.4792 15.761 38.4957C15.827 38.5122 15.8912 38.5205 15.9534 38.5205C16.0239 38.5205 16.0855 38.5094 16.1382 38.4871C16.1916 38.4643 16.2329 38.43 16.2621 38.3842C16.292 38.3379 16.3069 38.2798 16.3069 38.2099C16.3069 38.1172 16.2783 38.0457 16.2211 37.9955C16.1646 37.9447 16.075 37.9193 15.9525 37.9193C15.9131 37.9193 15.8699 37.9225 15.8229 37.9288C15.7759 37.9352 15.7371 37.9422 15.7067 37.9498L15.6266 37.8974L15.68 37.2438H16.3726V37.3886H15.8153L15.78 37.8088C15.8041 37.8037 15.8353 37.7986 15.8734 37.7935C15.9115 37.7878 15.9547 37.785 16.003 37.785ZM17.5998 37.9384C17.5998 38.0514 17.5912 38.1524 17.574 38.2413C17.5569 38.3303 17.5299 38.4055 17.493 38.4671C17.4562 38.5287 17.4086 38.5757 17.3501 38.6081C17.2917 38.6399 17.2215 38.6558 17.1396 38.6558C17.036 38.6558 16.9503 38.6275 16.8823 38.571C16.815 38.5144 16.7645 38.4328 16.7308 38.3261C16.6978 38.2188 16.6813 38.0895 16.6813 37.9384C16.6813 37.7897 16.6962 37.6621 16.7261 37.5554C16.7566 37.448 16.8055 37.3658 16.8728 37.3086C16.9401 37.2508 17.0291 37.2219 17.1396 37.2219C17.2444 37.2219 17.3308 37.2505 17.3987 37.3076C17.4667 37.3642 17.5172 37.4461 17.5502 37.5534C17.5832 37.6602 17.5998 37.7885 17.5998 37.9384ZM16.8404 37.9384C16.8404 38.0679 16.8503 38.1759 16.87 38.2623C16.8896 38.3487 16.9214 38.4135 16.9652 38.4567C17.0097 38.4992 17.0678 38.5205 17.1396 38.5205C17.2114 38.5205 17.2692 38.4992 17.313 38.4567C17.3574 38.4141 17.3895 38.3496 17.4092 38.2632C17.4295 38.1769 17.4397 38.0686 17.4397 37.9384C17.4397 37.8107 17.4298 37.704 17.4102 37.6182C17.3905 37.5319 17.3587 37.4671 17.3149 37.4239C17.2711 37.38 17.2126 37.3581 17.1396 37.3581C17.0665 37.3581 17.0081 37.38 16.9643 37.4239C16.9204 37.4671 16.8887 37.5319 16.869 37.6182C16.8499 37.704 16.8404 37.8107 16.8404 37.9384ZM18.7164 37.9384C18.7164 38.0514 18.7078 38.1524 18.6906 38.2413C18.6735 38.3303 18.6465 38.4055 18.6097 38.4671C18.5728 38.5287 18.5252 38.5757 18.4667 38.6081C18.4083 38.6399 18.3381 38.6558 18.2562 38.6558C18.1527 38.6558 18.0669 38.6275 17.999 38.571C17.9316 38.5144 17.8811 38.4328 17.8475 38.3261C17.8144 38.2188 17.7979 38.0895 17.7979 37.9384C17.7979 37.7897 17.8128 37.6621 17.8427 37.5554C17.8732 37.448 17.9221 37.3658 17.9894 37.3086C18.0568 37.2508 18.1457 37.2219 18.2562 37.2219C18.361 37.2219 18.4474 37.2505 18.5153 37.3076C18.5833 37.3642 18.6338 37.4461 18.6668 37.5534C18.6999 37.6602 18.7164 37.7885 18.7164 37.9384ZM17.957 37.9384C17.957 38.0679 17.9669 38.1759 17.9866 38.2623C18.0063 38.3487 18.038 38.4135 18.0818 38.4567C18.1263 38.4992 18.1844 38.5205 18.2562 38.5205C18.328 38.5205 18.3858 38.4992 18.4296 38.4567C18.4741 38.4141 18.5061 38.3496 18.5258 38.2632C18.5461 38.1769 18.5563 38.0686 18.5563 37.9384C18.5563 37.8107 18.5465 37.704 18.5268 37.6182C18.5071 37.5319 18.4753 37.4671 18.4315 37.4239C18.3877 37.38 18.3292 37.3581 18.2562 37.3581C18.1831 37.3581 18.1247 37.38 18.0809 37.4239C18.0371 37.4671 18.0053 37.5319 17.9856 37.6182C17.9666 37.704 17.957 37.8107 17.957 37.9384Z" fill="#212121"/>
<path d="M15.035 46.0273H14.8806V45.0403C14.8806 45.0028 14.8806 44.9708 14.8806 44.9441C14.8813 44.9168 14.8819 44.892 14.8825 44.8698C14.8838 44.8469 14.8854 44.8237 14.8873 44.8002C14.8676 44.8205 14.8492 44.838 14.832 44.8526C14.8149 44.8666 14.7936 44.8841 14.7682 44.905L14.6091 45.0327L14.5262 44.925L14.9035 44.6344H15.035V46.0273ZM16.4831 45.329C16.4831 45.442 16.4746 45.543 16.4574 45.632C16.4403 45.7209 16.4133 45.7961 16.3764 45.8578C16.3396 45.9194 16.292 45.9664 16.2335 45.9988C16.1751 46.0305 16.1049 46.0464 16.023 46.0464C15.9194 46.0464 15.8337 46.0181 15.7657 45.9616C15.6984 45.9051 15.6479 45.8235 15.6142 45.7167C15.5812 45.6094 15.5647 45.4802 15.5647 45.329C15.5647 45.1804 15.5796 45.0527 15.6095 44.946C15.64 44.8386 15.6889 44.7564 15.7562 44.6992C15.8235 44.6414 15.9124 44.6125 16.023 44.6125C16.1278 44.6125 16.2141 44.6411 16.2821 44.6983C16.3501 44.7548 16.4006 44.8367 16.4336 44.9441C16.4666 45.0508 16.4831 45.1791 16.4831 45.329ZM15.7238 45.329C15.7238 45.4586 15.7336 45.5665 15.7533 45.6529C15.773 45.7393 15.8048 45.8041 15.8486 45.8473C15.8931 45.8898 15.9512 45.9111 16.023 45.9111C16.0947 45.9111 16.1525 45.8898 16.1964 45.8473C16.2408 45.8047 16.2729 45.7403 16.2926 45.6539C16.3129 45.5675 16.3231 45.4592 16.3231 45.329C16.3231 45.2013 16.3132 45.0946 16.2935 45.0089C16.2739 44.9225 16.2421 44.8577 16.1983 44.8145C16.1544 44.7707 16.096 44.7488 16.023 44.7488C15.9499 44.7488 15.8915 44.7707 15.8477 44.8145C15.8038 44.8577 15.7721 44.9225 15.7524 45.0089C15.7333 45.0946 15.7238 45.2013 15.7238 45.329ZM17.5998 45.329C17.5998 45.442 17.5912 45.543 17.574 45.632C17.5569 45.7209 17.5299 45.7961 17.493 45.8578C17.4562 45.9194 17.4086 45.9664 17.3501 45.9988C17.2917 46.0305 17.2215 46.0464 17.1396 46.0464C17.036 46.0464 16.9503 46.0181 16.8823 45.9616C16.815 45.9051 16.7645 45.8235 16.7308 45.7167C16.6978 45.6094 16.6813 45.4802 16.6813 45.329C16.6813 45.1804 16.6962 45.0527 16.7261 44.946C16.7566 44.8386 16.8055 44.7564 16.8728 44.6992C16.9401 44.6414 17.0291 44.6125 17.1396 44.6125C17.2444 44.6125 17.3308 44.6411 17.3987 44.6983C17.4667 44.7548 17.5172 44.8367 17.5502 44.9441C17.5832 45.0508 17.5998 45.1791 17.5998 45.329ZM16.8404 45.329C16.8404 45.4586 16.8503 45.5665 16.87 45.6529C16.8896 45.7393 16.9214 45.8041 16.9652 45.8473C17.0097 45.8898 17.0678 45.9111 17.1396 45.9111C17.2114 45.9111 17.2692 45.8898 17.313 45.8473C17.3574 45.8047 17.3895 45.7403 17.4092 45.6539C17.4295 45.5675 17.4397 45.4592 17.4397 45.329C17.4397 45.2013 17.4298 45.0946 17.4102 45.0089C17.3905 44.9225 17.3587 44.8577 17.3149 44.8145C17.2711 44.7707 17.2126 44.7488 17.1396 44.7488C17.0665 44.7488 17.0081 44.7707 16.9643 44.8145C16.9204 44.8577 16.8887 44.9225 16.869 45.0089C16.8499 45.0946 16.8404 45.2013 16.8404 45.329ZM18.7164 45.329C18.7164 45.442 18.7078 45.543 18.6906 45.632C18.6735 45.7209 18.6465 45.7961 18.6097 45.8578C18.5728 45.9194 18.5252 45.9664 18.4667 45.9988C18.4083 46.0305 18.3381 46.0464 18.2562 46.0464C18.1527 46.0464 18.0669 46.0181 17.999 45.9616C17.9316 45.9051 17.8811 45.8235 17.8475 45.7167C17.8144 45.6094 17.7979 45.4802 17.7979 45.329C17.7979 45.1804 17.8128 45.0527 17.8427 44.946C17.8732 44.8386 17.9221 44.7564 17.9894 44.6992C18.0568 44.6414 18.1457 44.6125 18.2562 44.6125C18.361 44.6125 18.4474 44.6411 18.5153 44.6983C18.5833 44.7548 18.6338 44.8367 18.6668 44.9441C18.6999 45.0508 18.7164 45.1791 18.7164 45.329ZM17.957 45.329C17.957 45.4586 17.9669 45.5665 17.9866 45.6529C18.0063 45.7393 18.038 45.8041 18.0818 45.8473C18.1263 45.8898 18.1844 45.9111 18.2562 45.9111C18.328 45.9111 18.3858 45.8898 18.4296 45.8473C18.4741 45.8047 18.5061 45.7403 18.5258 45.6539C18.5461 45.5675 18.5563 45.4592 18.5563 45.329C18.5563 45.2013 18.5465 45.0946 18.5268 45.0089C18.5071 44.9225 18.4753 44.8577 18.4315 44.8145C18.3877 44.7707 18.3292 44.7488 18.2562 44.7488C18.1831 44.7488 18.1247 44.7707 18.0809 44.8145C18.0371 44.8577 18.0053 44.9225 17.9856 45.0089C17.9666 45.0946 17.957 45.2013 17.957 45.329Z" fill="#212121"/>
<path d="M16.0025 52.5662C16.0972 52.5662 16.1794 52.5824 16.2493 52.6148C16.3192 52.6466 16.3732 52.6929 16.4113 52.7539C16.45 52.8149 16.4694 52.8889 16.4694 52.9759C16.4694 53.0712 16.4488 53.1534 16.4075 53.2227C16.3662 53.2913 16.3068 53.3443 16.2293 53.3818C16.1518 53.4186 16.0591 53.437 15.9511 53.437C15.8787 53.437 15.8114 53.4307 15.7491 53.418C15.6869 53.4053 15.6345 53.3862 15.5919 53.3608V53.2103C15.6383 53.2382 15.6945 53.2604 15.7606 53.277C15.8266 53.2935 15.8908 53.3017 15.953 53.3017C16.0235 53.3017 16.0851 53.2906 16.1378 53.2684C16.1912 53.2455 16.2325 53.2112 16.2617 53.1655C16.2915 53.1191 16.3065 53.061 16.3065 52.9911C16.3065 52.8984 16.2779 52.8269 16.2207 52.7768C16.1642 52.726 16.0746 52.7006 15.9521 52.7006C15.9127 52.7006 15.8695 52.7037 15.8225 52.7101C15.7755 52.7164 15.7367 52.7234 15.7062 52.731L15.6262 52.6786L15.6796 52.0251H16.3722V52.1699H15.8149L15.7796 52.59C15.8037 52.585 15.8349 52.5799 15.873 52.5748C15.9111 52.5691 15.9543 52.5662 16.0025 52.5662ZM17.5993 52.7196C17.5993 52.8327 17.5908 52.9337 17.5736 53.0226C17.5565 53.1115 17.5295 53.1868 17.4926 53.2484C17.4558 53.31 17.4082 53.357 17.3497 53.3894C17.2913 53.4211 17.2211 53.437 17.1392 53.437C17.0356 53.437 16.9499 53.4088 16.8819 53.3522C16.8146 53.2957 16.7641 53.2141 16.7304 53.1074C16.6974 53 16.6809 52.8708 16.6809 52.7196C16.6809 52.571 16.6958 52.4433 16.7257 52.3366C16.7562 52.2293 16.8051 52.147 16.8724 52.0898C16.9397 52.032 17.0287 52.0031 17.1392 52.0031C17.244 52.0031 17.3304 52.0317 17.3983 52.0889C17.4663 52.1454 17.5168 52.2274 17.5498 52.3347C17.5828 52.4414 17.5993 52.5697 17.5993 52.7196ZM16.84 52.7196C16.84 52.8492 16.8499 52.9572 16.8695 53.0435C16.8892 53.1299 16.921 53.1947 16.9648 53.2379C17.0093 53.2805 17.0674 53.3017 17.1392 53.3017C17.2109 53.3017 17.2687 53.2805 17.3126 53.2379C17.357 53.1953 17.3891 53.1309 17.4088 53.0445C17.4291 52.9581 17.4393 52.8498 17.4393 52.7196C17.4393 52.5919 17.4294 52.4852 17.4098 52.3995C17.3901 52.3131 17.3583 52.2483 17.3145 52.2051C17.2707 52.1613 17.2122 52.1394 17.1392 52.1394C17.0661 52.1394 17.0077 52.1613 16.9639 52.2051C16.92 52.2483 16.8883 52.3131 16.8686 52.3995C16.8495 52.4852 16.84 52.5919 16.84 52.7196ZM18.716 52.7196C18.716 52.8327 18.7074 52.9337 18.6902 53.0226C18.6731 53.1115 18.6461 53.1868 18.6093 53.2484C18.5724 53.31 18.5248 53.357 18.4663 53.3894C18.4079 53.4211 18.3377 53.437 18.2558 53.437C18.1523 53.437 18.0665 53.4088 17.9985 53.3522C17.9312 53.2957 17.8807 53.2141 17.8471 53.1074C17.814 53 17.7975 52.8708 17.7975 52.7196C17.7975 52.571 17.8124 52.4433 17.8423 52.3366C17.8728 52.2293 17.9217 52.147 17.989 52.0898C18.0563 52.032 18.1453 52.0031 18.2558 52.0031C18.3606 52.0031 18.447 52.0317 18.5149 52.0889C18.5829 52.1454 18.6334 52.2274 18.6664 52.3347C18.6994 52.4414 18.716 52.5697 18.716 52.7196ZM17.9566 52.7196C17.9566 52.8492 17.9665 52.9572 17.9862 53.0435C18.0059 53.1299 18.0376 53.1947 18.0814 53.2379C18.1259 53.2805 18.184 53.3017 18.2558 53.3017C18.3276 53.3017 18.3854 53.2805 18.4292 53.2379C18.4736 53.1953 18.5057 53.1309 18.5254 53.0445C18.5457 52.9581 18.5559 52.8498 18.5559 52.7196C18.5559 52.5919 18.5461 52.4852 18.5264 52.3995C18.5067 52.3131 18.4749 52.2483 18.4311 52.2051C18.3873 52.1613 18.3288 52.1394 18.2558 52.1394C18.1827 52.1394 18.1243 52.1613 18.0805 52.2051C18.0367 52.2483 18.0049 52.3131 17.9852 52.3995C17.9662 52.4852 17.9566 52.5919 17.9566 52.7196Z" fill="#212121"/>
<path d="M16.1512 60.8086H15.9968V59.8216C15.9968 59.7841 15.9968 59.752 15.9968 59.7253C15.9975 59.698 15.9981 59.6732 15.9987 59.651C16 59.6281 16.0016 59.605 16.0035 59.5815C15.9838 59.6018 15.9654 59.6193 15.9482 59.6339C15.9311 59.6478 15.9098 59.6653 15.8844 59.6863L15.7253 59.8139L15.6424 59.7063L16.0197 59.4157H16.1512V60.8086ZM17.5993 60.1102C17.5993 60.2233 17.5908 60.3243 17.5736 60.4132C17.5565 60.5021 17.5295 60.5774 17.4926 60.639C17.4558 60.7006 17.4082 60.7476 17.3497 60.78C17.2913 60.8118 17.2211 60.8276 17.1392 60.8276C17.0356 60.8276 16.9499 60.7994 16.8819 60.7429C16.8146 60.6863 16.7641 60.6047 16.7304 60.498C16.6974 60.3907 16.6809 60.2614 16.6809 60.1102C16.6809 59.9616 16.6958 59.8339 16.7257 59.7272C16.7562 59.6199 16.8051 59.5376 16.8724 59.4805C16.9397 59.4227 17.0287 59.3938 17.1392 59.3938C17.244 59.3938 17.3304 59.4224 17.3983 59.4795C17.4663 59.536 17.5168 59.618 17.5498 59.7253C17.5828 59.832 17.5993 59.9603 17.5993 60.1102ZM16.84 60.1102C16.84 60.2398 16.8499 60.3478 16.8695 60.4342C16.8892 60.5205 16.921 60.5853 16.9648 60.6285C17.0093 60.6711 17.0674 60.6924 17.1392 60.6924C17.2109 60.6924 17.2687 60.6711 17.3126 60.6285C17.357 60.586 17.3891 60.5215 17.4088 60.4351C17.4291 60.3487 17.4393 60.2404 17.4393 60.1102C17.4393 59.9826 17.4294 59.8759 17.4098 59.7901C17.3901 59.7037 17.3583 59.6389 17.3145 59.5958C17.2707 59.5519 17.2122 59.53 17.1392 59.53C17.0661 59.53 17.0077 59.5519 16.9639 59.5958C16.92 59.6389 16.8883 59.7037 16.8686 59.7901C16.8495 59.8759 16.84 59.9826 16.84 60.1102ZM18.716 60.1102C18.716 60.2233 18.7074 60.3243 18.6902 60.4132C18.6731 60.5021 18.6461 60.5774 18.6093 60.639C18.5724 60.7006 18.5248 60.7476 18.4663 60.78C18.4079 60.8118 18.3377 60.8276 18.2558 60.8276C18.1523 60.8276 18.0665 60.7994 17.9985 60.7429C17.9312 60.6863 17.8807 60.6047 17.8471 60.498C17.814 60.3907 17.7975 60.2614 17.7975 60.1102C17.7975 59.9616 17.8124 59.8339 17.8423 59.7272C17.8728 59.6199 17.9217 59.5376 17.989 59.4805C18.0563 59.4227 18.1453 59.3938 18.2558 59.3938C18.3606 59.3938 18.447 59.4224 18.5149 59.4795C18.5829 59.536 18.6334 59.618 18.6664 59.7253C18.6994 59.832 18.716 59.9603 18.716 60.1102ZM17.9566 60.1102C17.9566 60.2398 17.9665 60.3478 17.9862 60.4342C18.0059 60.5205 18.0376 60.5853 18.0814 60.6285C18.1259 60.6711 18.184 60.6924 18.2558 60.6924C18.3276 60.6924 18.3854 60.6711 18.4292 60.6285C18.4736 60.586 18.5057 60.5215 18.5254 60.4351C18.5457 60.3487 18.5559 60.2404 18.5559 60.1102C18.5559 59.9826 18.5461 59.8759 18.5264 59.7901C18.5067 59.7037 18.4749 59.6389 18.4311 59.5958C18.3873 59.5519 18.3288 59.53 18.2558 59.53C18.1827 59.53 18.1243 59.5519 18.0805 59.5958C18.0367 59.6389 18.0049 59.7037 17.9852 59.7901C17.9662 59.8759 17.9566 59.9826 17.9566 60.1102Z" fill="#212121"/>
<path d="M18.716 67.497C18.716 67.61 18.7074 67.711 18.6902 67.7999C18.6731 67.8888 18.6461 67.9641 18.6093 68.0257C18.5724 68.0873 18.5248 68.1343 18.4663 68.1667C18.4079 68.1985 18.3377 68.2144 18.2558 68.2144C18.1523 68.2144 18.0665 68.1861 17.9985 68.1296C17.9312 68.073 17.8807 67.9914 17.8471 67.8847C17.814 67.7774 17.7975 67.6481 17.7975 67.497C17.7975 67.3483 17.8124 67.2207 17.8423 67.1139C17.8728 67.0066 17.9217 66.9244 17.989 66.8672C18.0563 66.8094 18.1453 66.7805 18.2558 66.7805C18.3606 66.7805 18.447 66.8091 18.5149 66.8662C18.5829 66.9228 18.6334 67.0047 18.6664 67.112C18.6994 67.2187 18.716 67.3471 18.716 67.497ZM17.9566 67.497C17.9566 67.6265 17.9665 67.7345 17.9862 67.8209C18.0059 67.9073 18.0376 67.9721 18.0814 68.0152C18.1259 68.0578 18.184 68.0791 18.2558 68.0791C18.3276 68.0791 18.3854 68.0578 18.4292 68.0152C18.4736 67.9727 18.5057 67.9082 18.5254 67.8218C18.5457 67.7355 18.5559 67.6272 18.5559 67.497C18.5559 67.3693 18.5461 67.2626 18.5264 67.1768C18.5067 67.0904 18.4749 67.0257 18.4311 66.9825C18.3873 66.9386 18.3288 66.9167 18.2558 66.9167C18.1827 66.9167 18.1243 66.9386 18.0805 66.9825C18.0367 67.0257 18.0049 67.0904 17.9852 67.1768C17.9662 67.2626 17.9566 67.3693 17.9566 67.497Z" fill="#212121"/>
<path d="M30.1407 71.4141H29.9863V70.427C29.9863 70.3895 29.9863 70.3575 29.9863 70.3308C29.987 70.3035 29.9876 70.2787 29.9882 70.2565C29.9895 70.2336 29.9911 70.2104 29.993 70.1869C29.9733 70.2073 29.9549 70.2247 29.9377 70.2393C29.9206 70.2533 29.8993 70.2708 29.8739 70.2917L29.7148 70.4194L29.6319 70.3117L30.0092 70.0212H30.1407V71.4141Z" fill="#212121"/>
<path d="M22.4234 70.7157C22.4234 70.8288 22.4148 70.9298 22.3977 71.0187C22.3805 71.1076 22.3535 71.1829 22.3167 71.2445C22.2799 71.3061 22.2322 71.3531 22.1738 71.3855C22.1153 71.4172 22.0452 71.4331 21.9632 71.4331C21.8597 71.4331 21.7739 71.4049 21.706 71.3483C21.6387 71.2918 21.5882 71.2102 21.5545 71.1035C21.5215 70.9961 21.505 70.8669 21.505 70.7157C21.505 70.5671 21.5199 70.4394 21.5497 70.3327C21.5802 70.2254 21.6291 70.1431 21.6965 70.0859C21.7638 70.0281 21.8527 69.9992 21.9632 69.9992C22.068 69.9992 22.1544 70.0278 22.2224 70.085C22.2903 70.1415 22.3408 70.2235 22.3739 70.3308C22.4069 70.4375 22.4234 70.5658 22.4234 70.7157ZM21.6641 70.7157C21.6641 70.8453 21.6739 70.9533 21.6936 71.0396C21.7133 71.126 21.745 71.1908 21.7889 71.234C21.8333 71.2765 21.8915 71.2978 21.9632 71.2978C22.035 71.2978 22.0928 71.2765 22.1366 71.234C22.1811 71.1914 22.2132 71.127 22.2329 71.0406C22.2532 70.9542 22.2633 70.8459 22.2633 70.7157C22.2633 70.588 22.2535 70.4813 22.2338 70.3956C22.2141 70.3092 22.1824 70.2444 22.1385 70.2012C22.0947 70.1574 22.0363 70.1355 21.9632 70.1355C21.8902 70.1355 21.8317 70.1574 21.7879 70.2012C21.7441 70.2444 21.7123 70.3092 21.6926 70.3956C21.6736 70.4813 21.6641 70.588 21.6641 70.7157Z" fill="#212121"/>
<path d="M38.5134 71.4141H37.6007V71.2816L37.9732 70.9034C38.0425 70.8335 38.1006 70.7713 38.1476 70.7167C38.1952 70.662 38.2314 70.6084 38.2562 70.5556C38.281 70.5023 38.2933 70.4439 38.2933 70.3803C38.2933 70.3016 38.2698 70.2416 38.2228 70.2003C38.1765 70.1583 38.1152 70.1374 38.039 70.1374C37.9723 70.1374 37.9132 70.1488 37.8618 70.1717C37.8103 70.1946 37.7576 70.2269 37.7036 70.2689L37.6188 70.1622C37.6556 70.131 37.6957 70.1034 37.7389 70.0793C37.7827 70.0551 37.8294 70.0361 37.8789 70.0221C37.9291 70.0081 37.9824 70.0011 38.039 70.0011C38.1247 70.0011 38.1987 70.0161 38.261 70.0459C38.3232 70.0758 38.3712 70.1183 38.4048 70.1736C38.4391 70.2288 38.4563 70.2946 38.4563 70.3708C38.4563 70.4445 38.4417 70.5131 38.4124 70.5766C38.3832 70.6395 38.3423 70.702 38.2895 70.7643C38.2368 70.8259 38.1752 70.8913 38.1047 70.9606L37.8017 71.2626V71.2692H38.5134V71.4141Z" fill="#212121"/>
<path d="M46.755 70.346C46.755 70.4083 46.7429 70.4623 46.7187 70.508C46.6946 70.5537 46.661 70.5912 46.6178 70.6204C46.5746 70.649 46.5238 70.669 46.4653 70.6804V70.6881C46.5758 70.702 46.6587 70.7376 46.714 70.7948C46.7699 70.8519 46.7978 70.9269 46.7978 71.0196C46.7978 71.1003 46.7788 71.1717 46.7407 71.234C46.7032 71.2962 46.6454 71.3451 46.5673 71.3807C46.4898 71.4157 46.3904 71.4331 46.2691 71.4331C46.1954 71.4331 46.1271 71.4271 46.0642 71.415C46.002 71.4036 45.9423 71.3842 45.8851 71.3569V71.2083C45.9429 71.2369 46.0058 71.2594 46.0737 71.2759C46.1417 71.2918 46.2074 71.2997 46.271 71.2997C46.398 71.2997 46.4898 71.2746 46.5463 71.2245C46.6028 71.1737 46.6311 71.1044 46.6311 71.0168C46.6311 70.9564 46.6152 70.9078 46.5835 70.871C46.5523 70.8335 46.5072 70.8062 46.4482 70.7891C46.3897 70.7713 46.3192 70.7624 46.2367 70.7624H46.0976V70.6271H46.2376C46.3132 70.6271 46.3774 70.616 46.4301 70.5937C46.4828 70.5715 46.5228 70.5404 46.5501 70.5004C46.5781 70.4597 46.592 70.4118 46.592 70.3565C46.592 70.286 46.5685 70.2317 46.5215 70.1936C46.4745 70.1549 46.4107 70.1355 46.33 70.1355C46.2805 70.1355 46.2354 70.1406 46.1947 70.1507C46.1541 70.1609 46.116 70.1749 46.0804 70.1926C46.0448 70.2104 46.0093 70.2311 45.9737 70.2546L45.8937 70.146C45.9445 70.1066 46.0064 70.0726 46.0795 70.044C46.1525 70.0154 46.2354 70.0011 46.3281 70.0011C46.4704 70.0011 46.5771 70.0335 46.6482 70.0983C46.7194 70.1631 46.755 70.2457 46.755 70.346Z" fill="#212121"/>
<path d="M54.9248 71.0911H54.7161V71.4141H54.5618V71.0911H53.8882V70.9577L54.5513 70.0135H54.7161V70.9482H54.9248V71.0911ZM54.5618 70.9482V70.4928C54.5618 70.4578 54.5621 70.4264 54.5627 70.3984C54.5634 70.3699 54.5643 70.3435 54.5656 70.3194C54.5669 70.2946 54.5678 70.2711 54.5685 70.2489C54.5697 70.2266 54.5707 70.2047 54.5713 70.1831H54.5637C54.5516 70.2085 54.5376 70.2355 54.5218 70.2641C54.5065 70.292 54.491 70.3171 54.4751 70.3394L54.0454 70.9482H54.5618Z" fill="#212121"/>
<path d="M62.4305 70.5623C62.5252 70.5623 62.6074 70.5785 62.6773 70.6109C62.7471 70.6427 62.8011 70.689 62.8392 70.75C62.878 70.811 62.8974 70.885 62.8974 70.972C62.8974 71.0673 62.8767 71.1495 62.8354 71.2187C62.7942 71.2873 62.7348 71.3404 62.6573 71.3779C62.5798 71.4147 62.4871 71.4331 62.3791 71.4331C62.3067 71.4331 62.2393 71.4268 62.1771 71.4141C62.1148 71.4014 62.0624 71.3823 62.0199 71.3569V71.2064C62.0663 71.2343 62.1225 71.2565 62.1885 71.2731C62.2546 71.2896 62.3187 71.2978 62.381 71.2978C62.4515 71.2978 62.5131 71.2867 62.5658 71.2645C62.6192 71.2416 62.6604 71.2073 62.6897 71.1616C62.7195 71.1152 62.7344 71.0571 62.7344 70.9872C62.7344 70.8945 62.7059 70.823 62.6487 70.7729C62.5922 70.7221 62.5026 70.6966 62.38 70.6966C62.3406 70.6966 62.2975 70.6998 62.2505 70.7062C62.2035 70.7125 62.1647 70.7195 62.1342 70.7271L62.0542 70.6747L62.1075 70.0212H62.8002V70.166H62.2428L62.2076 70.5861C62.2317 70.581 62.2628 70.576 62.3009 70.5709C62.3391 70.5652 62.3822 70.5623 62.4305 70.5623Z" fill="#212121"/>
<path d="M70.0535 70.8186C70.0535 70.7348 70.0592 70.6528 70.0706 70.5728C70.0827 70.4928 70.1027 70.4184 70.1306 70.3498C70.1586 70.2806 70.1967 70.22 70.245 70.1679C70.2932 70.1158 70.3533 70.0751 70.425 70.0459C70.4975 70.0161 70.5842 70.0011 70.6851 70.0011C70.7137 70.0011 70.7445 70.0027 70.7776 70.0059C70.8106 70.0084 70.8379 70.0129 70.8595 70.0192V70.1555C70.836 70.1472 70.809 70.1412 70.7785 70.1374C70.7487 70.1336 70.7185 70.1317 70.688 70.1317C70.5699 70.1317 70.4768 70.1574 70.4088 70.2088C70.3415 70.2603 70.2929 70.3302 70.2631 70.4184C70.2332 70.5061 70.2161 70.6049 70.2116 70.7147H70.2221C70.2418 70.683 70.2669 70.6544 70.2974 70.629C70.3279 70.603 70.3647 70.5823 70.4079 70.5671C70.4517 70.5518 70.5025 70.5442 70.5603 70.5442C70.6416 70.5442 70.7125 70.5607 70.7728 70.5937C70.8338 70.6268 70.8808 70.6747 70.9138 70.7376C70.9475 70.8005 70.9643 70.8767 70.9643 70.9663C70.9643 71.0622 70.9465 71.1451 70.9109 71.2149C70.8754 71.2848 70.8246 71.3388 70.7585 71.3769C70.6931 71.4144 70.615 71.4331 70.5241 71.4331C70.4562 71.4331 70.3936 71.4201 70.3364 71.3941C70.2793 71.368 70.2294 71.3293 70.1869 71.2778C70.1449 71.2264 70.1122 71.1625 70.0887 71.0863C70.0652 71.0095 70.0535 70.9202 70.0535 70.8186ZM70.5222 71.2997C70.6086 71.2997 70.6778 71.2721 70.7299 71.2168C70.782 71.1616 70.808 71.0781 70.808 70.9663C70.808 70.8748 70.7849 70.8024 70.7385 70.749C70.6921 70.6957 70.6223 70.669 70.5289 70.669C70.4654 70.669 70.4101 70.6824 70.3631 70.709C70.3161 70.7351 70.2796 70.7681 70.2535 70.8081C70.2275 70.8481 70.2145 70.8888 70.2145 70.9301C70.2145 70.972 70.2205 71.0145 70.2326 71.0577C70.2453 71.1009 70.2643 71.1409 70.2898 71.1778C70.3152 71.2146 70.3472 71.2442 70.386 71.2664C70.4247 71.2886 70.4701 71.2997 70.5222 71.2997Z" fill="#212121"/>
<path d="M78.0249 71.4141L78.5966 70.166H77.8372V70.0212H78.7661V70.1431L78.1983 71.4141H78.0249Z" fill="#212121"/>
<path d="M21.1329 68.9286C21.1329 68.996 21.1875 69.0506 21.2549 69.0506C21.3222 69.0506 21.3768 68.996 21.3768 68.9286H21.1329ZM21.2549 21.8555H21.1329V68.9286H21.2549H21.3768V21.8555H21.2549Z" fill="#D4D4D4"/>
<path d="M21.2549 68.9297H77.5963" stroke="#D4D4D4" stroke-width="0.243902"/>
<rect x="25.6455" y="36.0039" width="4.54122" height="32.8722" rx="2.27061" fill="#8DCE00"/>
<rect x="33.5029" y="40.1445" width="4.54122" height="28.7302" rx="2.27061" fill="#8DCE00"/>
<rect x="41.3604" y="49.9688" width="4.54122" height="18.9068" rx="2.27061" fill="#8DCE00"/>
<rect x="49.2188" y="43.6484" width="4.54122" height="25.2267" rx="2.27061" fill="#8DCE00"/>
<rect x="57.0752" y="38.0859" width="4.54122" height="30.791" rx="2.27061" fill="#8DCE00"/>
<rect x="64.9336" y="43.6484" width="4.54122" height="25.2267" rx="2.27061" fill="#8DCE00"/>
<rect x="72.791" y="49.9688" width="4.54122" height="18.9068" rx="2.27061" fill="#8DCE00"/>
<g filter="url(#filter0_d_7899_80477)">
<rect x="32.2314" y="35.5195" width="7.31707" height="3.65854" rx="1.82927" fill="white"/>
</g>
<path d="M34.1972 38.0078H33.9723V37.1113C33.9723 37.0814 33.9726 37.0516 33.9733 37.0217C33.9739 36.9919 33.9745 36.9627 33.9752 36.9341C33.9765 36.9055 33.978 36.8782 33.9799 36.8521C33.9666 36.8667 33.9501 36.8826 33.9304 36.8998C33.9113 36.9169 33.891 36.9347 33.8694 36.9531L33.7094 37.0808L33.5969 36.9388L34.0104 36.6149H34.1972V38.0078ZM35.6492 37.702H35.4605V38.0078H35.2395V37.702H34.6059V37.5324L35.2423 36.6111H35.4605V37.5162H35.6492V37.702ZM35.2395 37.5162V37.1704C35.2395 37.1418 35.2398 37.1129 35.2404 37.0837C35.2417 37.0538 35.243 37.0252 35.2442 36.9979C35.2455 36.9706 35.2468 36.9455 35.248 36.9226C35.2493 36.8991 35.2503 36.8798 35.2509 36.8645H35.2433C35.2312 36.8899 35.2179 36.916 35.2033 36.9426C35.1887 36.9687 35.1731 36.9941 35.1566 37.0189L34.8136 37.5162H35.2395ZM36.7153 38.0078H35.7721V37.8392L36.1331 37.4733C36.203 37.4022 36.2605 37.3409 36.3056 37.2894C36.3507 37.2374 36.384 37.1881 36.4056 37.1418C36.4279 37.0954 36.439 37.0449 36.439 36.9903C36.439 36.923 36.4196 36.8721 36.3809 36.8378C36.3421 36.8029 36.291 36.7854 36.2275 36.7854C36.1671 36.7854 36.1112 36.7975 36.0598 36.8216C36.009 36.8451 35.9563 36.8788 35.9016 36.9226L35.7787 36.775C35.8175 36.7419 35.8588 36.7118 35.9026 36.6845C35.947 36.6571 35.9966 36.6355 36.0512 36.6197C36.1058 36.6032 36.1681 36.5949 36.2379 36.5949C36.3262 36.5949 36.4025 36.6108 36.4666 36.6425C36.5308 36.6737 36.58 36.7172 36.6143 36.7731C36.6492 36.829 36.6667 36.8941 36.6667 36.9684C36.6667 37.0433 36.6518 37.1126 36.6219 37.1761C36.5921 37.2396 36.5495 37.3025 36.4942 37.3647C36.439 37.4263 36.3732 37.4933 36.297 37.5657L36.056 37.8011V37.8115H36.7153V38.0078ZM37.8319 38.0078H36.8887V37.8392L37.2498 37.4733C37.3196 37.4022 37.3771 37.3409 37.4222 37.2894C37.4673 37.2374 37.5007 37.1881 37.5222 37.1418C37.5445 37.0954 37.5556 37.0449 37.5556 36.9903C37.5556 36.923 37.5362 36.8721 37.4975 36.8378C37.4587 36.8029 37.4076 36.7854 37.3441 36.7854C37.2837 36.7854 37.2278 36.7975 37.1764 36.8216C37.1256 36.8451 37.0729 36.8788 37.0182 36.9226L36.8953 36.775C36.9341 36.7419 36.9754 36.7118 37.0192 36.6845C37.0637 36.6571 37.1132 36.6355 37.1678 36.6197C37.2225 36.6032 37.2847 36.5949 37.3546 36.5949C37.4429 36.5949 37.5191 36.6108 37.5832 36.6425C37.6474 36.6737 37.6966 36.7172 37.7309 36.7731C37.7658 36.829 37.7833 36.8941 37.7833 36.9684C37.7833 37.0433 37.7684 37.1126 37.7385 37.1761C37.7087 37.2396 37.6661 37.3025 37.6109 37.3647C37.5556 37.4263 37.4899 37.4933 37.4136 37.5657L37.1726 37.8011V37.8115H37.8319V38.0078Z" fill="#444444"/>
<g filter="url(#filter1_d_7899_80477)">
<rect x="55.6445" y="33.8125" width="7.31707" height="3.65854" rx="1.82927" fill="white"/>
</g>
<path d="M57.6103 36.3008H57.3854V35.4042C57.3854 35.3744 57.3857 35.3445 57.3864 35.3147C57.387 35.2848 57.3876 35.2556 57.3883 35.227C57.3895 35.1985 57.3911 35.1711 57.393 35.1451C57.3797 35.1597 57.3632 35.1756 57.3435 35.1927C57.3244 35.2099 57.3041 35.2277 57.2825 35.2461L57.1225 35.3738L57.01 35.2318L57.4235 34.9079H57.6103V36.3008ZM59.0622 35.995H58.8736V36.3008H58.6526V35.995H58.019V35.8254L58.6554 34.9041H58.8736V35.8092H59.0622V35.995ZM58.6526 35.8092V35.4633C58.6526 35.4347 58.6529 35.4058 58.6535 35.3766C58.6548 35.3468 58.6561 35.3182 58.6573 35.2909C58.6586 35.2636 58.6599 35.2385 58.6611 35.2156C58.6624 35.1921 58.6634 35.1727 58.664 35.1575H58.6564C58.6443 35.1829 58.631 35.2089 58.6164 35.2356C58.6017 35.2617 58.5862 35.2871 58.5697 35.3118L58.2267 35.8092H58.6526ZM60.1284 36.3008H59.1851V36.1321L59.5462 35.7663C59.6161 35.6952 59.6736 35.6339 59.7187 35.5824C59.7638 35.5303 59.7971 35.4811 59.8187 35.4347C59.8409 35.3884 59.8521 35.3379 59.8521 35.2833C59.8521 35.2159 59.8327 35.1651 59.7939 35.1308C59.7552 35.0959 59.7041 35.0784 59.6406 35.0784C59.5802 35.0784 59.5243 35.0905 59.4729 35.1146C59.4221 35.1381 59.3693 35.1718 59.3147 35.2156L59.1918 35.0679C59.2306 35.0349 59.2718 35.0047 59.3157 34.9774C59.3601 34.9501 59.4097 34.9285 59.4643 34.9126C59.5189 34.8961 59.5812 34.8879 59.651 34.8879C59.7393 34.8879 59.8155 34.9037 59.8797 34.9355C59.9438 34.9666 59.9931 35.0101 60.0274 35.066C60.0623 35.1219 60.0798 35.187 60.0798 35.2613C60.0798 35.3363 60.0648 35.4055 60.035 35.469C60.0051 35.5326 59.9626 35.5954 59.9073 35.6577C59.8521 35.7193 59.7863 35.7863 59.7101 35.8587L59.4691 36.094V36.1045H60.1284V36.3008ZM61.245 36.3008H60.3018V36.1321L60.6628 35.7663C60.7327 35.6952 60.7902 35.6339 60.8353 35.5824C60.8804 35.5303 60.9137 35.4811 60.9353 35.4347C60.9576 35.3884 60.9687 35.3379 60.9687 35.2833C60.9687 35.2159 60.9493 35.1651 60.9106 35.1308C60.8718 35.0959 60.8207 35.0784 60.7572 35.0784C60.6968 35.0784 60.6409 35.0905 60.5895 35.1146C60.5387 35.1381 60.486 35.1718 60.4313 35.2156L60.3084 35.0679C60.3472 35.0349 60.3885 35.0047 60.4323 34.9774C60.4767 34.9501 60.5263 34.9285 60.5809 34.9126C60.6355 34.8961 60.6978 34.8879 60.7676 34.8879C60.8559 34.8879 60.9322 34.9037 60.9963 34.9355C61.0605 34.9666 61.1097 35.0101 61.144 35.066C61.1789 35.1219 61.1964 35.187 61.1964 35.2613C61.1964 35.3363 61.1815 35.4055 61.1516 35.469C61.1218 35.5326 61.0792 35.5954 61.0239 35.6577C60.9687 35.7193 60.9029 35.7863 60.8267 35.8587L60.5857 36.094V36.1045H61.245V36.3008Z" fill="#444444"/>
<g filter="url(#filter2_d_7899_80477)">
<rect x="48.3291" y="39.4219" width="6.09756" height="3.65854" rx="1.82927" fill="white"/>
</g>
<path d="M50.5778 41.1108C50.5778 41.1934 50.5718 41.2744 50.5597 41.3538C50.5483 41.4331 50.5279 41.5075 50.4987 41.5767C50.4701 41.6459 50.4304 41.7072 50.3796 41.7606C50.3294 41.8133 50.2659 41.8546 50.1891 41.8844C50.1122 41.9143 50.0195 41.9292 49.9109 41.9292C49.8836 41.9292 49.8518 41.9276 49.8156 41.9244C49.78 41.9219 49.7508 41.9181 49.7279 41.913V41.7263C49.7521 41.7333 49.7791 41.739 49.8089 41.7434C49.8394 41.7472 49.8696 41.7491 49.8994 41.7491C50.0169 41.7491 50.1084 41.7272 50.1738 41.6834C50.2399 41.6396 50.2866 41.5792 50.3139 41.5024C50.3418 41.4255 50.3577 41.3382 50.3615 41.2404H50.3501C50.3317 41.2709 50.3085 41.2988 50.2805 41.3242C50.2526 41.349 50.218 41.369 50.1767 41.3842C50.1354 41.3989 50.0852 41.4062 50.0262 41.4062C49.9461 41.4062 49.8763 41.3893 49.8165 41.3557C49.7575 41.322 49.7114 41.2731 49.6784 41.2089C49.646 41.1442 49.6298 41.0663 49.6298 40.9755C49.6298 40.8771 49.6485 40.7923 49.686 40.7211C49.7235 40.65 49.7765 40.5954 49.8451 40.5573C49.9137 40.5185 49.9944 40.4991 50.0871 40.4991C50.157 40.4991 50.2215 40.5118 50.2805 40.5373C50.3402 40.562 50.3923 40.6001 50.4368 40.6516C50.4812 40.7024 50.5159 40.7662 50.5406 40.8431C50.5654 40.9193 50.5778 41.0085 50.5778 41.1108ZM50.09 40.684C50.0195 40.684 49.962 40.7078 49.9175 40.7554C49.8731 40.8024 49.8508 40.8748 49.8508 40.9727C49.8508 41.0521 49.8699 41.1149 49.908 41.1613C49.9461 41.2077 50.0046 41.2308 50.0833 41.2308C50.1379 41.2308 50.1849 41.2197 50.2243 41.1975C50.2643 41.1746 50.2951 41.1457 50.3167 41.1108C50.339 41.0759 50.3501 41.0403 50.3501 41.0041C50.3501 40.9666 50.3447 40.9291 50.3339 40.8917C50.3237 40.8542 50.3078 40.8199 50.2863 40.7888C50.2647 40.7577 50.2373 40.7326 50.2043 40.7135C50.1719 40.6938 50.1338 40.684 50.09 40.684ZM51.2228 40.4982C51.3035 40.4982 51.3762 40.5109 51.441 40.5363C51.5058 40.5611 51.5572 40.5982 51.5953 40.6478C51.6334 40.6973 51.6525 40.7586 51.6525 40.8317C51.6525 40.8882 51.6407 40.9374 51.6172 40.9793C51.5944 41.0212 51.5632 41.0581 51.5239 41.0898C51.4845 41.121 51.4403 41.1486 51.3914 41.1727C51.4461 41.1994 51.4962 41.2302 51.542 41.2651C51.5883 41.2994 51.6255 41.3398 51.6534 41.3861C51.682 41.4325 51.6963 41.4868 51.6963 41.5491C51.6963 41.6272 51.6763 41.6948 51.6363 41.752C51.5969 41.8085 51.542 41.8524 51.4715 41.8835C51.401 41.914 51.3187 41.9292 51.2247 41.9292C51.1237 41.9292 51.0376 41.9143 50.9665 41.8844C50.8954 41.8546 50.8414 41.812 50.8045 41.7568C50.7677 41.7009 50.7493 41.6342 50.7493 41.5567C50.7493 41.4925 50.762 41.437 50.7874 41.39C50.8128 41.343 50.8468 41.3023 50.8893 41.268C50.9325 41.2337 50.9798 41.2048 51.0313 41.1813C50.9875 41.1553 50.9475 41.126 50.9113 41.0937C50.875 41.0606 50.8461 41.0228 50.8246 40.9803C50.8036 40.9371 50.7931 40.8872 50.7931 40.8307C50.7931 40.7583 50.8125 40.6976 50.8512 40.6487C50.89 40.5992 50.9417 40.5617 51.0065 40.5363C51.0719 40.5109 51.144 40.4982 51.2228 40.4982ZM50.9627 41.5481C50.9627 41.6091 50.9843 41.6593 51.0275 41.6986C51.0707 41.738 51.1351 41.7577 51.2209 41.7577C51.306 41.7577 51.3708 41.7383 51.4153 41.6996C51.4597 41.6609 51.4819 41.6097 51.4819 41.5462C51.4819 41.5056 51.4705 41.4697 51.4476 41.4385C51.4254 41.4074 51.3952 41.3798 51.3571 41.3557C51.3197 41.3309 51.2781 41.308 51.2323 41.2871L51.2018 41.2747C51.1523 41.2956 51.1097 41.3195 51.0742 41.3461C51.0386 41.3722 51.011 41.4017 50.9913 41.4347C50.9722 41.4678 50.9627 41.5056 50.9627 41.5481ZM51.2209 40.6706C51.1593 40.6706 51.1085 40.6859 51.0685 40.7164C51.0291 40.7462 51.0094 40.7894 51.0094 40.8459C51.0094 40.886 51.0189 40.9203 51.038 40.9488C51.0577 40.9774 51.084 41.0022 51.117 41.0232C51.1501 41.0435 51.1866 41.0625 51.2266 41.0803C51.2654 41.0632 51.3003 41.0444 51.3314 41.0241C51.3632 41.0031 51.3883 40.9784 51.4067 40.9498C51.4257 40.9206 51.4353 40.8856 51.4353 40.845C51.4353 40.7891 51.4153 40.7462 51.3752 40.7164C51.3359 40.6859 51.2844 40.6706 51.2209 40.6706ZM52.8129 41.9102H51.8697V41.7415L52.2308 41.3757C52.3007 41.3045 52.3582 41.2432 52.4032 41.1918C52.4483 41.1397 52.4817 41.0905 52.5033 41.0441C52.5255 40.9977 52.5366 40.9472 52.5366 40.8926C52.5366 40.8253 52.5173 40.7745 52.4785 40.7402C52.4398 40.7053 52.3886 40.6878 52.3251 40.6878C52.2648 40.6878 52.2089 40.6999 52.1574 40.724C52.1066 40.7475 52.0539 40.7812 51.9993 40.825L51.8764 40.6773C51.9151 40.6443 51.9564 40.6141 52.0002 40.5868C52.0447 40.5595 52.0942 40.5379 52.1489 40.522C52.2035 40.5055 52.2657 40.4972 52.3356 40.4972C52.4239 40.4972 52.5001 40.5131 52.5643 40.5449C52.6284 40.576 52.6776 40.6195 52.7119 40.6754C52.7469 40.7313 52.7643 40.7964 52.7643 40.8707C52.7643 40.9457 52.7494 41.0149 52.7196 41.0784C52.6897 41.1419 52.6472 41.2048 52.5919 41.2671C52.5366 41.3287 52.4709 41.3957 52.3947 41.4681L52.1536 41.7034V41.7139H52.8129V41.9102Z" fill="#444444"/>
<g filter="url(#filter3_d_7899_80477)">
<rect x="24.9121" y="31.6133" width="6.09756" height="3.65854" rx="1.82927" fill="white"/>
</g>
<path d="M26.3896 34.1016H26.1647V33.205C26.1647 33.1752 26.165 33.1453 26.1657 33.1155C26.1663 33.0856 26.1669 33.0564 26.1676 33.0278C26.1688 32.9992 26.1704 32.9719 26.1723 32.9459C26.159 32.9605 26.1425 32.9764 26.1228 32.9935C26.1037 33.0107 26.0834 33.0285 26.0618 33.0469L25.9017 33.1745L25.7893 33.0326L26.2028 32.7087H26.3896V34.1016ZM27.3175 32.6896C27.3982 32.6896 27.4709 32.7023 27.5357 32.7277C27.6005 32.7525 27.6519 32.7896 27.69 32.8392C27.7282 32.8887 27.7472 32.95 27.7472 33.0231C27.7472 33.0796 27.7355 33.1288 27.712 33.1707C27.6891 33.2127 27.658 33.2495 27.6186 33.2812C27.5792 33.3124 27.5351 33.34 27.4862 33.3641C27.5408 33.3908 27.591 33.4216 27.6367 33.4566C27.6831 33.4909 27.7202 33.5312 27.7482 33.5776C27.7767 33.6239 27.791 33.6782 27.791 33.7405C27.791 33.8186 27.771 33.8862 27.731 33.9434C27.6916 33.9999 27.6367 34.0438 27.5662 34.0749C27.4957 34.1054 27.4134 34.1206 27.3194 34.1206C27.2184 34.1206 27.1324 34.1057 27.0612 34.0758C26.9901 34.046 26.9361 34.0034 26.8993 33.9482C26.8624 33.8923 26.844 33.8256 26.844 33.7481C26.844 33.6839 26.8567 33.6284 26.8821 33.5814C26.9075 33.5344 26.9415 33.4937 26.9841 33.4594C27.0273 33.4251 27.0746 33.3962 27.126 33.3727C27.0822 33.3467 27.0422 33.3175 27.006 33.2851C26.9698 33.252 26.9409 33.2142 26.9193 33.1717C26.8983 33.1285 26.8878 33.0786 26.8878 33.0221C26.8878 32.9497 26.9072 32.889 26.946 32.8401C26.9847 32.7906 27.0365 32.7531 27.1013 32.7277C27.1667 32.7023 27.2388 32.6896 27.3175 32.6896ZM27.0574 33.7395C27.0574 33.8005 27.079 33.8507 27.1222 33.8901C27.1654 33.9294 27.2299 33.9491 27.3156 33.9491C27.4007 33.9491 27.4655 33.9298 27.51 33.891C27.5544 33.8523 27.5767 33.8011 27.5767 33.7376C27.5767 33.697 27.5652 33.6611 27.5424 33.63C27.5201 33.5988 27.49 33.5712 27.4519 33.5471C27.4144 33.5223 27.3728 33.4994 27.3271 33.4785L27.2966 33.4661C27.247 33.487 27.2045 33.5109 27.1689 33.5375C27.1333 33.5636 27.1057 33.5931 27.086 33.6261C27.067 33.6592 27.0574 33.697 27.0574 33.7395ZM27.3156 32.862C27.254 32.862 27.2032 32.8773 27.1632 32.9078C27.1238 32.9376 27.1041 32.9808 27.1041 33.0373C27.1041 33.0774 27.1136 33.1117 27.1327 33.1402C27.1524 33.1688 27.1787 33.1936 27.2118 33.2146C27.2448 33.2349 27.2813 33.2539 27.3213 33.2717C27.3601 33.2546 27.395 33.2358 27.4261 33.2155C27.4579 33.1946 27.483 33.1698 27.5014 33.1412C27.5205 33.112 27.53 33.077 27.53 33.0364C27.53 32.9805 27.51 32.9376 27.47 32.9078C27.4306 32.8773 27.3791 32.862 27.3156 32.862ZM28.438 33.2308C28.5275 33.2308 28.6063 33.247 28.6742 33.2793C28.7428 33.3111 28.7962 33.3581 28.8343 33.4204C28.8724 33.482 28.8915 33.5575 28.8915 33.6471C28.8915 33.7449 28.8708 33.8294 28.8295 33.9005C28.7882 33.971 28.7276 34.0253 28.6476 34.0635C28.5675 34.1016 28.47 34.1206 28.3551 34.1206C28.282 34.1206 28.2137 34.1143 28.1502 34.1016C28.0873 34.0889 28.033 34.0698 27.9873 34.0444V33.8424C28.0349 33.8691 28.0921 33.891 28.1588 33.9082C28.2255 33.9247 28.2893 33.9329 28.3503 33.9329C28.4151 33.9329 28.4707 33.9234 28.517 33.9043C28.5634 33.8853 28.599 33.8561 28.6237 33.8167C28.6491 33.7773 28.6618 33.7275 28.6618 33.6671C28.6618 33.5871 28.6361 33.5255 28.5847 33.4823C28.5339 33.4385 28.4541 33.4165 28.3455 33.4165C28.3074 33.4165 28.2668 33.42 28.2236 33.427C28.181 33.4334 28.1455 33.4404 28.1169 33.448L28.0187 33.3899L28.0711 32.7087H28.7952V32.9059H28.2684L28.2379 33.2527C28.2607 33.2476 28.2881 33.2428 28.3198 33.2384C28.3516 33.2333 28.391 33.2308 28.438 33.2308ZM30.0243 33.4042C30.0243 33.5166 30.0154 33.6173 29.9976 33.7062C29.9804 33.7945 29.9531 33.8694 29.9157 33.931C29.8782 33.9926 29.8293 34.0396 29.7689 34.072C29.7086 34.1044 29.6356 34.1206 29.5498 34.1206C29.4425 34.1206 29.3539 34.0924 29.284 34.0358C29.2141 33.9787 29.1624 33.8967 29.1287 33.79C29.095 33.6827 29.0782 33.5541 29.0782 33.4042C29.0782 33.2543 29.0934 33.126 29.1239 33.0192C29.1551 32.9119 29.2052 32.8296 29.2745 32.7725C29.3437 32.7153 29.4355 32.6867 29.5498 32.6867C29.6578 32.6867 29.7467 32.7153 29.8166 32.7725C29.8871 32.829 29.9392 32.911 29.9728 33.0183C30.0071 33.125 30.0243 33.2536 30.0243 33.4042ZM29.304 33.4042C29.304 33.5217 29.3116 33.6198 29.3269 33.6986C29.3427 33.7773 29.3688 33.8364 29.405 33.8758C29.4412 33.9145 29.4895 33.9339 29.5498 33.9339C29.6101 33.9339 29.6584 33.9145 29.6946 33.8758C29.7308 33.837 29.7569 33.7783 29.7727 33.6995C29.7893 33.6207 29.7975 33.5223 29.7975 33.4042C29.7975 33.2873 29.7896 33.1895 29.7737 33.1107C29.7578 33.0319 29.7318 32.9729 29.6956 32.9335C29.6594 32.8935 29.6108 32.8735 29.5498 32.8735C29.4888 32.8735 29.4402 32.8935 29.404 32.9335C29.3685 32.9729 29.3427 33.0319 29.3269 33.1107C29.3116 33.1895 29.304 33.2873 29.304 33.4042Z" fill="#444444"/>
<g filter="url(#filter4_d_7899_80477)">
<rect x="40.5234" y="45.5156" width="6.09756" height="3.65854" rx="1.82927" fill="white"/>
</g>
<path d="M42.0769 47.4103C42.0769 47.3284 42.0826 47.2477 42.094 47.1683C42.1061 47.089 42.1264 47.0146 42.155 46.9454C42.1836 46.8762 42.223 46.8152 42.2731 46.7625C42.3239 46.7098 42.3878 46.6685 42.4646 46.6386C42.5415 46.6081 42.6339 46.5929 42.7419 46.5929C42.7698 46.5929 42.8013 46.5942 42.8362 46.5967C42.8711 46.5992 42.9 46.6034 42.9229 46.6091V46.7949C42.8981 46.7879 42.8708 46.7825 42.841 46.7787C42.8117 46.7749 42.7825 46.773 42.7533 46.773C42.6364 46.773 42.5453 46.7952 42.4799 46.8397C42.4145 46.8835 42.3678 46.9438 42.3398 47.0207C42.3119 47.0969 42.2957 47.1842 42.2912 47.2827H42.3027C42.3217 47.2509 42.3455 47.2227 42.3741 47.1979C42.4027 47.1731 42.4376 47.1534 42.4789 47.1388C42.5202 47.1236 42.5682 47.1159 42.6228 47.1159C42.7041 47.1159 42.7749 47.1331 42.8352 47.1674C42.8956 47.2011 42.942 47.25 42.9743 47.3141C43.0074 47.3783 43.0239 47.4561 43.0239 47.5475C43.0239 47.646 43.0052 47.7308 42.9677 47.8019C42.9308 47.8731 42.8781 47.9277 42.8095 47.9658C42.7416 48.0039 42.6606 48.023 42.5666 48.023C42.4973 48.023 42.4329 48.0103 42.3732 47.9849C42.3141 47.9594 42.2623 47.9213 42.2179 47.8705C42.1734 47.8197 42.1388 47.7562 42.114 47.68C42.0892 47.6031 42.0769 47.5132 42.0769 47.4103ZM42.5628 47.8381C42.6352 47.8381 42.6933 47.8146 42.7371 47.7676C42.7816 47.72 42.8038 47.6473 42.8038 47.5494C42.8038 47.4701 42.7841 47.4072 42.7447 47.3608C42.706 47.3144 42.6476 47.2913 42.5694 47.2913C42.5161 47.2913 42.4694 47.3027 42.4294 47.3256C42.3894 47.3484 42.3582 47.3773 42.336 47.4123C42.3144 47.4472 42.3036 47.4828 42.3036 47.519C42.3036 47.5558 42.309 47.593 42.3198 47.6304C42.3306 47.6679 42.3468 47.7025 42.3684 47.7343C42.39 47.7654 42.417 47.7905 42.4494 47.8095C42.4818 47.8286 42.5196 47.8381 42.5628 47.8381ZM44.1853 47.6981H43.9966V48.0039H43.7756V47.6981H43.142V47.5285L43.7785 46.6072H43.9966V47.5123H44.1853V47.6981ZM43.7756 47.5123V47.1664C43.7756 47.1379 43.7759 47.109 43.7766 47.0797C43.7778 47.0499 43.7791 47.0213 43.7804 46.994C43.7816 46.9667 43.7829 46.9416 43.7842 46.9187C43.7855 46.8952 43.7864 46.8759 43.787 46.8606H43.7794C43.7673 46.886 43.754 46.9121 43.7394 46.9387C43.7248 46.9648 43.7092 46.9902 43.6927 47.015L43.3497 47.5123H43.7756ZM45.1981 46.9292C45.1981 46.9921 45.1853 47.0467 45.1599 47.0931C45.1345 47.1394 45.0996 47.1776 45.0551 47.2074C45.0113 47.2366 44.9605 47.2576 44.9027 47.2703V47.277C45.0139 47.2909 45.0977 47.3259 45.1542 47.3818C45.2114 47.4377 45.24 47.5117 45.24 47.6038C45.24 47.6844 45.2206 47.7565 45.1819 47.82C45.1431 47.8829 45.0837 47.9325 45.0037 47.9687C44.9237 48.0049 44.8208 48.023 44.695 48.023C44.6194 48.023 44.5492 48.0169 44.4844 48.0049C44.4203 47.9928 44.3593 47.9734 44.3015 47.9467V47.7476C44.3606 47.7768 44.4235 47.7994 44.4902 47.8153C44.5569 47.8311 44.6201 47.8391 44.6798 47.8391C44.796 47.8391 44.8789 47.8175 44.9284 47.7743C44.978 47.7305 45.0027 47.6701 45.0027 47.5933C45.0027 47.5437 44.9897 47.5031 44.9637 47.4713C44.9383 47.4396 44.8986 47.4157 44.8446 47.3999C44.7912 47.384 44.7223 47.376 44.6378 47.376H44.5149V47.196H44.6388C44.7195 47.196 44.7842 47.1865 44.8332 47.1674C44.8821 47.1477 44.9173 47.1207 44.9389 47.0864C44.9611 47.0521 44.9723 47.0121 44.9723 46.9664C44.9723 46.9067 44.9529 46.8603 44.9141 46.8273C44.8754 46.7936 44.8179 46.7768 44.7417 46.7768C44.6947 46.7768 44.6518 46.7822 44.6131 46.793C44.575 46.8038 44.5397 46.8174 44.5073 46.8339C44.4749 46.8505 44.4441 46.8682 44.4149 46.8873L44.3072 46.732C44.36 46.6926 44.4228 46.6593 44.4959 46.632C44.5689 46.6046 44.654 46.591 44.7512 46.591C44.8941 46.591 45.0043 46.6218 45.0818 46.6834C45.1593 46.7444 45.1981 46.8263 45.1981 46.9292Z" fill="#444444"/>
<g filter="url(#filter5_d_7899_80477)">
<rect x="71.9863" y="45.7578" width="6.09756" height="3.65854" rx="1.82927" fill="white"/>
</g>
<path d="M73.5398 47.6525C73.5398 47.5706 73.5455 47.4899 73.5569 47.4105C73.569 47.3311 73.5893 47.2568 73.6179 47.1876C73.6465 47.1184 73.6858 47.0574 73.736 47.0047C73.7868 46.9519 73.8507 46.9107 73.9275 46.8808C74.0044 46.8503 74.0968 46.8351 74.2048 46.8351C74.2327 46.8351 74.2642 46.8364 74.2991 46.8389C74.334 46.8414 74.3629 46.8456 74.3858 46.8513V47.0371C74.361 47.0301 74.3337 47.0247 74.3039 47.0209C74.2746 47.0171 74.2454 47.0151 74.2162 47.0151C74.0993 47.0151 74.0082 47.0374 73.9428 47.0818C73.8773 47.1257 73.8307 47.186 73.8027 47.2629C73.7748 47.3391 73.7586 47.4264 73.7541 47.5249H73.7656C73.7846 47.4931 73.8084 47.4648 73.837 47.4401C73.8656 47.4153 73.9005 47.3956 73.9418 47.381C73.9831 47.3658 74.0311 47.3581 74.0857 47.3581C74.167 47.3581 74.2378 47.3753 74.2981 47.4096C74.3585 47.4432 74.4048 47.4922 74.4372 47.5563C74.4703 47.6205 74.4868 47.6983 74.4868 47.7897C74.4868 47.8882 74.468 47.973 74.4306 48.0441C74.3937 48.1153 74.341 48.1699 74.2724 48.208C74.2045 48.2461 74.1235 48.2651 74.0295 48.2651C73.9602 48.2651 73.8958 48.2524 73.8361 48.227C73.777 48.2016 73.7252 48.1635 73.6808 48.1127C73.6363 48.0619 73.6017 47.9984 73.5769 47.9222C73.5521 47.8453 73.5398 47.7554 73.5398 47.6525ZM74.0257 48.0803C74.0981 48.0803 74.1562 48.0568 74.2 48.0098C74.2445 47.9622 74.2667 47.8894 74.2667 47.7916C74.2667 47.7122 74.247 47.6494 74.2076 47.603C74.1689 47.5566 74.1104 47.5334 74.0323 47.5334C73.979 47.5334 73.9323 47.5449 73.8923 47.5677C73.8523 47.5906 73.8211 47.6195 73.7989 47.6544C73.7773 47.6894 73.7665 47.7249 73.7665 47.7611C73.7665 47.798 73.7719 47.8351 73.7827 47.8726C73.7935 47.9101 73.8097 47.9447 73.8313 47.9765C73.8529 48.0076 73.8799 48.0327 73.9123 48.0517C73.9447 48.0708 73.9825 48.0803 74.0257 48.0803ZM75.6482 47.9403H75.4595V48.2461H75.2385V47.9403H74.6049V47.7707L75.2414 46.8494H75.4595V47.7545H75.6482V47.9403ZM75.2385 47.7545V47.4086C75.2385 47.38 75.2388 47.3511 75.2394 47.3219C75.2407 47.2921 75.242 47.2635 75.2433 47.2362C75.2445 47.2089 75.2458 47.1838 75.2471 47.1609C75.2483 47.1374 75.2493 47.118 75.2499 47.1028H75.2423C75.2302 47.1282 75.2169 47.1542 75.2023 47.1809C75.1877 47.207 75.1721 47.2324 75.1556 47.2571L74.8126 47.7545H75.2385ZM76.6609 47.1714C76.6609 47.2343 76.6482 47.2889 76.6228 47.3353C76.5974 47.3816 76.5625 47.4197 76.518 47.4496C76.4742 47.4788 76.4234 47.4998 76.3656 47.5125V47.5192C76.4767 47.5331 76.5606 47.5681 76.6171 47.624C76.6743 47.6798 76.7029 47.7538 76.7029 47.8459C76.7029 47.9266 76.6835 47.9987 76.6447 48.0622C76.606 48.1251 76.5466 48.1746 76.4666 48.2108C76.3866 48.247 76.2837 48.2651 76.1579 48.2651C76.0823 48.2651 76.0121 48.2591 75.9473 48.247C75.8832 48.235 75.8222 48.2156 75.7644 48.1889V47.9898C75.8235 48.019 75.8864 48.0416 75.9531 48.0575C76.0197 48.0733 76.0829 48.0813 76.1426 48.0813C76.2589 48.0813 76.3418 48.0597 76.3913 48.0165C76.4409 47.9727 76.4656 47.9123 76.4656 47.8355C76.4656 47.7859 76.4526 47.7453 76.4266 47.7135C76.4012 47.6818 76.3615 47.6579 76.3075 47.6421C76.2541 47.6262 76.1852 47.6182 76.1007 47.6182H75.9778V47.4382H76.1017C76.1823 47.4382 76.2471 47.4286 76.296 47.4096C76.3449 47.3899 76.3802 47.3629 76.4018 47.3286C76.424 47.2943 76.4351 47.2543 76.4351 47.2086C76.4351 47.1489 76.4158 47.1025 76.377 47.0695C76.3383 47.0358 76.2808 47.019 76.2046 47.019C76.1576 47.019 76.1147 47.0244 76.076 47.0352C76.0378 47.046 76.0026 47.0596 75.9702 47.0761C75.9378 47.0926 75.907 47.1104 75.8778 47.1295L75.7701 46.9742C75.8228 46.9348 75.8857 46.9015 75.9588 46.8741C76.0318 46.8468 76.1169 46.8332 76.2141 46.8332C76.357 46.8332 76.4672 46.864 76.5447 46.9256C76.6222 46.9866 76.6609 47.0685 76.6609 47.1714Z" fill="#444444"/>
<g filter="url(#filter6_d_7899_80477)">
<rect x="64.1826" y="39.1719" width="6.09756" height="3.65854" rx="1.82927" fill="white"/>
</g>
<path d="M66.6754 40.8608C66.6754 40.9434 66.6694 41.0244 66.6573 41.1038C66.6459 41.1831 66.6256 41.2575 66.5964 41.3267C66.5678 41.3959 66.5281 41.4572 66.4773 41.5106C66.4271 41.5633 66.3636 41.6046 66.2867 41.6344C66.2099 41.6643 66.1171 41.6792 66.0085 41.6792C65.9812 41.6792 65.9495 41.6776 65.9133 41.6744C65.8777 41.6719 65.8485 41.6681 65.8256 41.663V41.4763C65.8497 41.4833 65.8767 41.489 65.9066 41.4934C65.9371 41.4972 65.9672 41.4991 65.9971 41.4991C66.1146 41.4991 66.2061 41.4772 66.2715 41.4334C66.3375 41.3896 66.3842 41.3292 66.4115 41.2524C66.4395 41.1755 66.4554 41.0882 66.4592 40.9904H66.4477C66.4293 41.0209 66.4061 41.0488 66.3782 41.0742C66.3502 41.099 66.3156 41.119 66.2743 41.1342C66.2331 41.1489 66.1829 41.1562 66.1238 41.1562C66.0438 41.1562 65.9739 41.1393 65.9142 41.1057C65.8551 41.072 65.8091 41.0231 65.7761 40.9589C65.7437 40.8942 65.7275 40.8163 65.7275 40.7255C65.7275 40.6271 65.7462 40.5423 65.7837 40.4711C65.8212 40.4 65.8742 40.3454 65.9428 40.3073C66.0114 40.2685 66.0921 40.2491 66.1848 40.2491C66.2547 40.2491 66.3191 40.2618 66.3782 40.2873C66.4379 40.312 66.49 40.3501 66.5344 40.4016C66.5789 40.4524 66.6135 40.5162 66.6383 40.5931C66.6631 40.6693 66.6754 40.7585 66.6754 40.8608ZM66.1876 40.434C66.1171 40.434 66.0597 40.4578 66.0152 40.5054C65.9707 40.5524 65.9485 40.6248 65.9485 40.7227C65.9485 40.8021 65.9676 40.8649 66.0057 40.9113C66.0438 40.9577 66.1022 40.9808 66.181 40.9808C66.2356 40.9808 66.2826 40.9697 66.322 40.9475C66.362 40.9246 66.3928 40.8957 66.4144 40.8608C66.4366 40.8259 66.4477 40.7903 66.4477 40.7541C66.4477 40.7166 66.4423 40.6791 66.4315 40.6417C66.4214 40.6042 66.4055 40.5699 66.3839 40.5388C66.3623 40.5077 66.335 40.4826 66.302 40.4635C66.2696 40.4438 66.2315 40.434 66.1876 40.434ZM67.7921 40.8608C67.7921 40.9434 67.786 41.0244 67.774 41.1038C67.7625 41.1831 67.7422 41.2575 67.713 41.3267C67.6844 41.3959 67.6447 41.4572 67.5939 41.5106C67.5437 41.5633 67.4802 41.6046 67.4033 41.6344C67.3265 41.6643 67.2338 41.6792 67.1251 41.6792C67.0978 41.6792 67.0661 41.6776 67.0299 41.6744C66.9943 41.6719 66.9651 41.6681 66.9422 41.663V41.4763C66.9664 41.4833 66.9933 41.489 67.0232 41.4934C67.0537 41.4972 67.0839 41.4991 67.1137 41.4991C67.2312 41.4991 67.3227 41.4772 67.3881 41.4334C67.4542 41.3896 67.5008 41.3292 67.5282 41.2524C67.5561 41.1755 67.572 41.0882 67.5758 40.9904H67.5644C67.5459 41.0209 67.5228 41.0488 67.4948 41.0742C67.4669 41.099 67.4322 41.119 67.391 41.1342C67.3497 41.1489 67.2995 41.1562 67.2404 41.1562C67.1604 41.1562 67.0905 41.1393 67.0308 41.1057C66.9718 41.072 66.9257 41.0231 66.8927 40.9589C66.8603 40.8942 66.8441 40.8163 66.8441 40.7255C66.8441 40.6271 66.8628 40.5423 66.9003 40.4711C66.9378 40.4 66.9908 40.3454 67.0594 40.3073C67.128 40.2685 67.2087 40.2491 67.3014 40.2491C67.3713 40.2491 67.4357 40.2618 67.4948 40.2873C67.5545 40.312 67.6066 40.3501 67.6511 40.4016C67.6955 40.4524 67.7301 40.5162 67.7549 40.5931C67.7797 40.6693 67.7921 40.7585 67.7921 40.8608ZM67.3043 40.434C67.2338 40.434 67.1763 40.4578 67.1318 40.5054C67.0874 40.5524 67.0651 40.6248 67.0651 40.7227C67.0651 40.8021 67.0842 40.8649 67.1223 40.9113C67.1604 40.9577 67.2188 40.9808 67.2976 40.9808C67.3522 40.9808 67.3992 40.9697 67.4386 40.9475C67.4786 40.9246 67.5094 40.8957 67.531 40.8608C67.5532 40.8259 67.5644 40.7903 67.5644 40.7541C67.5644 40.7166 67.559 40.6791 67.5482 40.6417C67.538 40.6042 67.5221 40.5699 67.5005 40.5388C67.4789 40.5077 67.4516 40.4826 67.4186 40.4635C67.3862 40.4438 67.3481 40.434 67.3043 40.434ZM68.4371 40.2482C68.5177 40.2482 68.5905 40.2609 68.6552 40.2863C68.72 40.3111 68.7715 40.3482 68.8096 40.3978C68.8477 40.4473 68.8668 40.5086 68.8668 40.5817C68.8668 40.6382 68.855 40.6874 68.8315 40.7293C68.8086 40.7712 68.7775 40.8081 68.7381 40.8398C68.6988 40.871 68.6546 40.8986 68.6057 40.9227C68.6603 40.9494 68.7105 40.9802 68.7562 41.0151C68.8026 41.0494 68.8398 41.0898 68.8677 41.1361C68.8963 41.1825 68.9106 41.2368 68.9106 41.2991C68.9106 41.3772 68.8906 41.4448 68.8506 41.502C68.8112 41.5585 68.7562 41.6024 68.6857 41.6335C68.6152 41.664 68.533 41.6792 68.439 41.6792C68.338 41.6792 68.2519 41.6643 68.1808 41.6344C68.1096 41.6046 68.0557 41.562 68.0188 41.5068C67.982 41.4509 67.9636 41.3842 67.9636 41.3067C67.9636 41.2425 67.9763 41.187 68.0017 41.14C68.0271 41.093 68.0611 41.0523 68.1036 41.018C68.1468 40.9837 68.1941 40.9548 68.2456 40.9313C68.2017 40.9053 68.1617 40.876 68.1255 40.8437C68.0893 40.8106 68.0604 40.7728 68.0388 40.7303C68.0179 40.6871 68.0074 40.6372 68.0074 40.5807C68.0074 40.5083 68.0268 40.4476 68.0655 40.3987C68.1042 40.3492 68.156 40.3117 68.2208 40.2863C68.2862 40.2609 68.3583 40.2482 68.4371 40.2482ZM68.177 41.2981C68.177 41.3591 68.1986 41.4093 68.2418 41.4486C68.2849 41.488 68.3494 41.5077 68.4352 41.5077C68.5203 41.5077 68.5851 41.4883 68.6295 41.4496C68.674 41.4109 68.6962 41.3597 68.6962 41.2962C68.6962 41.2556 68.6848 41.2197 68.6619 41.1885C68.6397 41.1574 68.6095 41.1298 68.5714 41.1057C68.5339 41.0809 68.4923 41.058 68.4466 41.0371L68.4161 41.0247C68.3666 41.0456 68.324 41.0695 68.2884 41.0961C68.2529 41.1222 68.2252 41.1517 68.2056 41.1847C68.1865 41.2178 68.177 41.2556 68.177 41.2981ZM68.4352 40.4206C68.3736 40.4206 68.3227 40.4359 68.2827 40.4664C68.2433 40.4962 68.2237 40.5394 68.2237 40.5959C68.2237 40.636 68.2332 40.6703 68.2522 40.6988C68.2719 40.7274 68.2983 40.7522 68.3313 40.7732C68.3643 40.7935 68.4009 40.8125 68.4409 40.8303C68.4796 40.8132 68.5146 40.7944 68.5457 40.7741C68.5774 40.7531 68.6025 40.7284 68.621 40.6998C68.64 40.6706 68.6495 40.6356 68.6495 40.595C68.6495 40.5391 68.6295 40.4962 68.5895 40.4664C68.5501 40.4359 68.4987 40.4206 68.4352 40.4206Z" fill="#444444"/>
<defs>
<filter id="filter0_d_7899_80477" x="31.3232" y="35.5195" width="9.13395" height="5.47672" filterUnits="userSpaceOnUse" color-interpolation-filters="sRGB">
<feFlood flood-opacity="0" result="BackgroundImageFix"/>
<feColorMatrix in="SourceAlpha" type="matrix" values="0 0 0 0 0 0 0 0 0 0 0 0 0 0 0 0 0 0 127 0" result="hardAlpha"/>
<feOffset dy="0.908283"/>
<feGaussianBlur stdDeviation="0.454141"/>
<feComposite in2="hardAlpha" operator="out"/>
<feColorMatrix type="matrix" values="0 0 0 0 0 0 0 0 0 0 0 0 0 0 0 0 0 0 0.25 0"/>
<feBlend mode="normal" in2="BackgroundImageFix" result="effect1_dropShadow_7899_80477"/>
<feBlend mode="normal" in="SourceGraphic" in2="effect1_dropShadow_7899_80477" result="shape"/>
</filter>
<filter id="filter1_d_7899_80477" x="54.7362" y="33.8125" width="9.13395" height="5.47672" filterUnits="userSpaceOnUse" color-interpolation-filters="sRGB">
<feFlood flood-opacity="0" result="BackgroundImageFix"/>
<feColorMatrix in="SourceAlpha" type="matrix" values="0 0 0 0 0 0 0 0 0 0 0 0 0 0 0 0 0 0 127 0" result="hardAlpha"/>
<feOffset dy="0.908283"/>
<feGaussianBlur stdDeviation="0.454141"/>
<feComposite in2="hardAlpha" operator="out"/>
<feColorMatrix type="matrix" values="0 0 0 0 0 0 0 0 0 0 0 0 0 0 0 0 0 0 0.25 0"/>
<feBlend mode="normal" in2="BackgroundImageFix" result="effect1_dropShadow_7899_80477"/>
<feBlend mode="normal" in="SourceGraphic" in2="effect1_dropShadow_7899_80477" result="shape"/>
</filter>
<filter id="filter2_d_7899_80477" x="47.4208" y="39.4219" width="7.91422" height="5.47672" filterUnits="userSpaceOnUse" color-interpolation-filters="sRGB">
<feFlood flood-opacity="0" result="BackgroundImageFix"/>
<feColorMatrix in="SourceAlpha" type="matrix" values="0 0 0 0 0 0 0 0 0 0 0 0 0 0 0 0 0 0 127 0" result="hardAlpha"/>
<feOffset dy="0.908283"/>
<feGaussianBlur stdDeviation="0.454141"/>
<feComposite in2="hardAlpha" operator="out"/>
<feColorMatrix type="matrix" values="0 0 0 0 0 0 0 0 0 0 0 0 0 0 0 0 0 0 0.25 0"/>
<feBlend mode="normal" in2="BackgroundImageFix" result="effect1_dropShadow_7899_80477"/>
<feBlend mode="normal" in="SourceGraphic" in2="effect1_dropShadow_7899_80477" result="shape"/>
</filter>
<filter id="filter3_d_7899_80477" x="24.0038" y="31.6133" width="7.91422" height="5.47672" filterUnits="userSpaceOnUse" color-interpolation-filters="sRGB">
<feFlood flood-opacity="0" result="BackgroundImageFix"/>
<feColorMatrix in="SourceAlpha" type="matrix" values="0 0 0 0 0 0 0 0 0 0 0 0 0 0 0 0 0 0 127 0" result="hardAlpha"/>
<feOffset dy="0.908283"/>
<feGaussianBlur stdDeviation="0.454141"/>
<feComposite in2="hardAlpha" operator="out"/>
<feColorMatrix type="matrix" values="0 0 0 0 0 0 0 0 0 0 0 0 0 0 0 0 0 0 0.25 0"/>
<feBlend mode="normal" in2="BackgroundImageFix" result="effect1_dropShadow_7899_80477"/>
<feBlend mode="normal" in="SourceGraphic" in2="effect1_dropShadow_7899_80477" result="shape"/>
</filter>
<filter id="filter4_d_7899_80477" x="39.6152" y="45.5156" width="7.91422" height="5.47672" filterUnits="userSpaceOnUse" color-interpolation-filters="sRGB">
<feFlood flood-opacity="0" result="BackgroundImageFix"/>
<feColorMatrix in="SourceAlpha" type="matrix" values="0 0 0 0 0 0 0 0 0 0 0 0 0 0 0 0 0 0 127 0" result="hardAlpha"/>
<feOffset dy="0.908283"/>
<feGaussianBlur stdDeviation="0.454141"/>
<feComposite in2="hardAlpha" operator="out"/>
<feColorMatrix type="matrix" values="0 0 0 0 0 0 0 0 0 0 0 0 0 0 0 0 0 0 0.25 0"/>
<feBlend mode="normal" in2="BackgroundImageFix" result="effect1_dropShadow_7899_80477"/>
<feBlend mode="normal" in="SourceGraphic" in2="effect1_dropShadow_7899_80477" result="shape"/>
</filter>
<filter id="filter5_d_7899_80477" x="71.078" y="45.7578" width="7.91422" height="5.47672" filterUnits="userSpaceOnUse" color-interpolation-filters="sRGB">
<feFlood flood-opacity="0" result="BackgroundImageFix"/>
<feColorMatrix in="SourceAlpha" type="matrix" values="0 0 0 0 0 0 0 0 0 0 0 0 0 0 0 0 0 0 127 0" result="hardAlpha"/>
<feOffset dy="0.908283"/>
<feGaussianBlur stdDeviation="0.454141"/>
<feComposite in2="hardAlpha" operator="out"/>
<feColorMatrix type="matrix" values="0 0 0 0 0 0 0 0 0 0 0 0 0 0 0 0 0 0 0.25 0"/>
<feBlend mode="normal" in2="BackgroundImageFix" result="effect1_dropShadow_7899_80477"/>
<feBlend mode="normal" in="SourceGraphic" in2="effect1_dropShadow_7899_80477" result="shape"/>
</filter>
<filter id="filter6_d_7899_80477" x="63.2743" y="39.1719" width="7.91422" height="5.47672" filterUnits="userSpaceOnUse" color-interpolation-filters="sRGB">
<feFlood flood-opacity="0" result="BackgroundImageFix"/>
<feColorMatrix in="SourceAlpha" type="matrix" values="0 0 0 0 0 0 0 0 0 0 0 0 0 0 0 0 0 0 127 0" result="hardAlpha"/>
<feOffset dy="0.908283"/>
<feGaussianBlur stdDeviation="0.454141"/>
<feComposite in2="hardAlpha" operator="out"/>
<feColorMatrix type="matrix" values="0 0 0 0 0 0 0 0 0 0 0 0 0 0 0 0 0 0 0.25 0"/>
<feBlend mode="normal" in2="BackgroundImageFix" result="effect1_dropShadow_7899_80477"/>
<feBlend mode="normal" in="SourceGraphic" in2="effect1_dropShadow_7899_80477" result="shape"/>
</filter>
</defs>
</svg>
