<svg width="93" height="92" viewBox="0 0 93 92" fill="none" xmlns="http://www.w3.org/2000/svg">
<rect x="1.13202" y="0.389831" width="91.079" height="91.2203" rx="17.5424" stroke="#BEBEBE" stroke-width="0.779661"/>
<path d="M66.2788 29.9411C66.9907 29.3019 67.0533 28.2024 66.3715 27.5313C62.3537 23.5766 57.2263 20.9137 51.6514 19.9115C46.0765 18.9093 40.3427 19.6197 35.1991 21.9274C34.3262 22.319 34.002 23.3715 34.4467 24.2186L37.9057 30.8073C38.3504 31.6543 39.3952 31.9716 40.2828 31.6145C43.2646 30.4149 46.5356 30.0727 49.7218 30.6455C52.9079 31.2183 55.855 32.6783 58.2323 34.8413C58.9399 35.4851 60.0297 35.5516 60.7416 34.9125L66.2788 29.9411Z" fill="#FF4D8F"/>
<path d="M72.2969 53.6471C73.2275 53.8693 74.1676 53.2956 74.3319 52.3531C74.9728 48.678 74.8755 44.9059 74.039 41.2584C73.2024 37.611 71.6462 34.1735 69.4678 31.145C68.9092 30.3683 67.813 30.2616 67.0723 30.8671L61.3109 35.5768C60.5701 36.1823 60.4688 37.2694 60.9965 38.0674C62.1292 39.78 62.9478 41.686 63.4089 43.6964C63.87 45.7068 63.9638 47.7791 63.6906 49.8141C63.5634 50.7623 64.1284 51.6966 65.0589 51.9188L72.2969 53.6471Z" fill="#9E4AFF"/>
<path d="M48.3625 73.8092C48.4234 74.7639 49.2479 75.4941 50.1971 75.3744C55.3563 74.7239 60.2459 72.6504 64.3103 69.3704C68.3746 66.0904 71.4339 61.749 73.1593 56.8435C73.4767 55.941 72.9372 54.9809 72.0168 54.7197L64.858 52.6883C63.9376 52.4271 62.9879 52.9659 62.6353 53.8553C61.5488 56.5957 59.7703 59.0198 57.4611 60.8834C55.1518 62.747 52.4068 63.9735 49.4988 64.4567C48.555 64.6136 47.8278 65.428 47.8887 66.3828L48.3625 73.8092Z" fill="#ACE322"/>
<path d="M25.2074 62.7625C24.427 63.3159 24.2388 64.401 24.8393 65.1458C27.3493 68.259 30.5002 70.8052 34.0853 72.6068C37.6703 74.4084 41.5938 75.4172 45.5897 75.5735C46.5457 75.6108 47.3041 74.8123 47.2824 73.8558L47.1139 66.4163C47.0922 65.4598 46.2975 64.7111 45.3438 64.6362C43.1338 64.4628 40.9727 63.8623 38.9823 62.862C36.9918 61.8617 35.2203 60.486 33.7623 58.8162C33.133 58.0956 32.058 57.9047 31.2776 58.4581L25.2074 62.7625Z" fill="#39EFFF"/>
<path d="M33.4227 24.7856C32.9408 23.9591 31.8767 23.6753 31.0815 24.2073C28.4087 25.9955 26.0594 28.2323 24.1395 30.8229C21.8754 33.8781 20.2558 37.3615 19.3791 41.0617C18.5024 44.762 18.3868 48.6018 19.0394 52.348C19.5928 55.5246 20.6887 58.5777 22.275 61.375C22.747 62.2072 23.8253 62.4311 24.6268 61.9087L30.8611 57.8456C31.6626 57.3232 31.8802 56.2533 31.4413 55.4032C30.6433 53.8576 30.0833 52.1966 29.7836 50.4763C29.3846 48.186 29.4553 45.8384 29.9913 43.5762C30.5273 41.314 31.5175 39.1843 32.9017 37.3164C33.9414 35.9135 35.1871 34.6803 36.5938 33.6571C37.3675 33.0943 37.653 32.0405 37.1711 31.214L33.4227 24.7856Z" fill="#FFBD06"/>
<g filter="url(#filter0_d_7961_38949)">
<rect x="63.7129" y="65.1914" width="10.0901" height="6.62162" rx="3.31081" fill="white"/>
<rect x="63.8597" y="65.3382" width="9.79653" height="6.32807" rx="3.16403" stroke="url(#paint0_linear_7961_38949)" stroke-width="0.293555"/>
</g>
<path d="M66.1747 68.7676H65.9751V67.4915C65.9751 67.4431 65.9751 67.4016 65.9751 67.3671C65.9759 67.3318 65.9768 67.2998 65.9776 67.2711C65.9792 67.2415 65.9813 67.2115 65.9837 67.1811C65.9583 67.2074 65.9345 67.23 65.9123 67.2489C65.8901 67.267 65.8626 67.2895 65.8298 67.3166L65.6241 67.4817L65.5169 67.3425L66.0047 66.9668H66.1747V68.7676ZM67.4519 66.941C67.5562 66.941 67.6486 66.9574 67.7291 66.9902C67.8095 67.0231 67.8723 67.0715 67.9175 67.1356C67.9635 67.1988 67.9865 67.2768 67.9865 67.3696C67.9865 67.4427 67.9705 67.5067 67.9385 67.5617C67.9072 67.6159 67.865 67.6636 67.8116 67.7046C67.7582 67.7449 67.6991 67.781 67.6342 67.813C67.7114 67.8483 67.7808 67.8881 67.8424 67.9325C67.9048 67.9768 67.9541 68.029 67.9902 68.0889C68.0263 68.1489 68.0444 68.2199 68.0444 68.302C68.0444 68.403 68.0197 68.4904 67.9705 68.5643C67.922 68.6374 67.8539 68.6937 67.766 68.7331C67.6782 68.7725 67.5751 68.7922 67.4569 68.7922C67.3296 68.7922 67.2212 68.7733 67.1317 68.7356C67.043 68.697 66.9753 68.6419 66.9285 68.5705C66.8825 68.4982 66.8595 68.4116 66.8595 68.3106C66.8595 68.2277 66.8771 68.1558 66.9124 68.0951C66.9478 68.0335 66.9946 67.9805 67.0529 67.9362C67.1112 67.8918 67.1748 67.8545 67.2438 67.8241C67.1838 67.7913 67.1288 67.7539 67.0787 67.712C67.0295 67.6701 66.99 67.6213 66.9605 67.5654C66.9317 67.5088 66.9174 67.4431 66.9174 67.3684C66.9174 67.2772 66.9404 67.2 66.9863 67.1368C67.0332 67.0728 67.0968 67.0243 67.1773 66.9915C67.2586 66.9578 67.3501 66.941 67.4519 66.941ZM67.0602 68.3118C67.0602 68.4038 67.0927 68.4798 67.1576 68.5397C67.2224 68.5988 67.3205 68.6284 67.4519 68.6284C67.5767 68.6284 67.6732 68.5988 67.7414 68.5397C67.8095 68.4798 67.8436 68.4014 67.8436 68.3045C67.8436 68.2445 67.828 68.192 67.7968 68.1468C67.7656 68.1008 67.7213 68.0598 67.6638 68.0236C67.6063 67.9875 67.5386 67.9547 67.4606 67.9251L67.4162 67.9091C67.3407 67.9403 67.2762 67.9752 67.2228 68.0138C67.1703 68.0515 67.13 68.0947 67.1021 68.1431C67.0742 68.1916 67.0602 68.2478 67.0602 68.3118ZM67.4495 67.1085C67.3526 67.1085 67.2733 67.1319 67.2117 67.1787C67.1502 67.2247 67.1194 67.2912 67.1194 67.3782C67.1194 67.4406 67.1341 67.4936 67.1637 67.5371C67.1941 67.5798 67.2351 67.6168 67.2869 67.648C67.3386 67.6783 67.3965 67.7067 67.4606 67.7329C67.523 67.7067 67.5784 67.6779 67.6268 67.6467C67.6753 67.6147 67.7135 67.5769 67.7414 67.5334C67.7693 67.4899 67.7833 67.4378 67.7833 67.377C67.7833 67.2899 67.7525 67.2234 67.6909 67.1775C67.6301 67.1315 67.5496 67.1085 67.4495 67.1085ZM68.3609 68.6395C68.3609 68.582 68.3749 68.5414 68.4028 68.5175C68.4307 68.4929 68.4648 68.4806 68.505 68.4806C68.5469 68.4806 68.5822 68.4929 68.611 68.5175C68.6397 68.5414 68.6541 68.582 68.6541 68.6395C68.6541 68.6961 68.6397 68.7376 68.611 68.7639C68.5822 68.7893 68.5469 68.8021 68.505 68.8021C68.4648 68.8021 68.4307 68.7893 68.4028 68.7639C68.3749 68.7376 68.3609 68.6961 68.3609 68.6395ZM69.7244 68.7676H69.5249V67.4915C69.5249 67.4431 69.5249 67.4016 69.5249 67.3671C69.5257 67.3318 69.5265 67.2998 69.5273 67.2711C69.529 67.2415 69.531 67.2115 69.5335 67.1811C69.508 67.2074 69.4842 67.23 69.4621 67.2489C69.4399 67.267 69.4124 67.2895 69.3795 67.3166L69.1738 67.4817L69.0667 67.3425L69.5544 66.9668H69.7244V68.7676ZM70.7012 66.8511V67.8463C70.7012 67.8791 70.6999 67.9193 70.6975 67.967C70.695 68.0138 70.6929 68.0552 70.6913 68.0914H70.6999C70.7172 68.07 70.7422 68.0384 70.7751 67.9965C70.8087 67.9547 70.8371 67.921 70.86 67.8955L71.3084 67.4176H71.5486L71.0054 67.9941L71.588 68.7676H71.3416L70.865 68.1283L70.7012 68.2786V68.7676H70.4979V66.8511H70.7012Z" fill="#626262"/>
<g filter="url(#filter1_d_7961_38949)">
<rect x="71.9102" y="38.0742" width="10.0901" height="6.62162" rx="3.31081" fill="white"/>
<rect x="72.0569" y="38.221" width="9.79653" height="6.32807" rx="3.16403" stroke="url(#paint1_linear_7961_38949)" stroke-width="0.293555"/>
</g>
<path d="M74.3719 41.6504H74.1724V40.3743C74.1724 40.3259 74.1724 40.2844 74.1724 40.2499C74.1732 40.2146 74.174 40.1826 74.1748 40.1539C74.1765 40.1243 74.1785 40.0943 74.181 40.064C74.1556 40.0902 74.1317 40.1128 74.1096 40.1317C74.0874 40.1498 74.0599 40.1724 74.027 40.1994L73.8214 40.3645L73.7142 40.2253L74.2019 39.8496H74.3719V41.6504ZM75.0728 40.8806C75.0728 40.7722 75.0801 40.6663 75.0949 40.5628C75.1105 40.4593 75.1364 40.3633 75.1725 40.2746C75.2087 40.1851 75.2579 40.1067 75.3203 40.0393C75.3827 39.972 75.4603 39.9194 75.5531 39.8817C75.6467 39.8431 75.7588 39.8238 75.8894 39.8238C75.9263 39.8238 75.9662 39.8258 76.0089 39.8299C76.0515 39.8332 76.0869 39.839 76.1148 39.8472V40.0233C76.0844 40.0126 76.0495 40.0048 76.0101 39.9999C75.9715 39.995 75.9325 39.9925 75.8931 39.9925C75.7403 39.9925 75.62 40.0258 75.5322 40.0923C75.4451 40.1588 75.3823 40.2491 75.3437 40.3633C75.3051 40.4766 75.283 40.6043 75.2772 40.7463H75.2908C75.3162 40.7053 75.3487 40.6683 75.3881 40.6355C75.4275 40.6018 75.4751 40.5751 75.531 40.5554C75.5876 40.5357 75.6533 40.5258 75.728 40.5258C75.8331 40.5258 75.9247 40.5472 76.0027 40.5899C76.0815 40.6326 76.1423 40.6946 76.185 40.7759C76.2285 40.8572 76.2503 40.9557 76.2503 41.0715C76.2503 41.1955 76.2273 41.3026 76.1813 41.393C76.1353 41.4833 76.0696 41.5531 75.9842 41.6024C75.8996 41.6508 75.7986 41.675 75.6812 41.675C75.5934 41.675 75.5125 41.6582 75.4386 41.6245C75.3647 41.5909 75.3002 41.5408 75.2452 41.4743C75.191 41.4077 75.1487 41.3252 75.1183 41.2267C75.0879 41.1273 75.0728 41.012 75.0728 40.8806ZM75.6788 41.5026C75.7904 41.5026 75.8799 41.4669 75.9473 41.3954C76.0146 41.324 76.0483 41.216 76.0483 41.0715C76.0483 40.9532 76.0183 40.8596 75.9584 40.7907C75.8984 40.7217 75.8081 40.6872 75.6874 40.6872C75.6053 40.6872 75.5338 40.7044 75.4731 40.7389C75.4123 40.7726 75.3651 40.8153 75.3314 40.867C75.2977 40.9188 75.2809 40.9713 75.2809 41.0247C75.2809 41.0789 75.2887 41.1339 75.3043 41.1897C75.3207 41.2456 75.3454 41.2973 75.3782 41.3449C75.4111 41.3926 75.4525 41.4307 75.5026 41.4595C75.5527 41.4882 75.6114 41.5026 75.6788 41.5026ZM76.5582 41.5223C76.5582 41.4648 76.5721 41.4242 76.6001 41.4004C76.628 41.3757 76.6621 41.3634 76.7023 41.3634C76.7442 41.3634 76.7795 41.3757 76.8082 41.4004C76.837 41.4242 76.8513 41.4648 76.8513 41.5223C76.8513 41.579 76.837 41.6204 76.8082 41.6467C76.7795 41.6722 76.7442 41.6849 76.7023 41.6849C76.6621 41.6849 76.628 41.6722 76.6001 41.6467C76.5721 41.6204 76.5582 41.579 76.5582 41.5223ZM78.3405 41.6504H77.1605V41.4792L77.6421 40.9902C77.7316 40.8999 77.8067 40.8194 77.8675 40.7488C77.9291 40.6782 77.9759 40.6088 78.0079 40.5406C78.0399 40.4717 78.0559 40.3961 78.0559 40.314C78.0559 40.2122 78.0256 40.1346 77.9648 40.0812C77.9048 40.027 77.8256 39.9999 77.7271 39.9999C77.6409 39.9999 77.5645 40.0147 77.498 40.0443C77.4315 40.0738 77.3633 40.1157 77.2935 40.1699L77.1839 40.0319C77.2315 39.9917 77.2832 39.956 77.3391 39.9248C77.3957 39.8936 77.4561 39.8689 77.5201 39.8509C77.585 39.8328 77.654 39.8238 77.7271 39.8238C77.8379 39.8238 77.9336 39.8431 78.0141 39.8817C78.0945 39.9203 78.1565 39.9753 78.2 40.0467C78.2444 40.1182 78.2666 40.2031 78.2666 40.3017C78.2666 40.3969 78.2477 40.4856 78.2099 40.5677C78.1721 40.649 78.1192 40.7299 78.051 40.8104C77.9829 40.89 77.9032 40.9746 77.8121 41.0641L77.4204 41.4546V41.4632H78.3405V41.6504ZM78.8984 39.7339V40.7291C78.8984 40.7619 78.8972 40.8022 78.8947 40.8498C78.8923 40.8966 78.8902 40.9381 78.8886 40.9742H78.8972C78.9144 40.9528 78.9395 40.9212 78.9723 40.8793C79.006 40.8375 79.0343 40.8038 79.0573 40.7783L79.5056 40.3004H79.7458L79.2026 40.8769L79.7852 41.6504H79.5389L79.0622 41.0111L78.8984 41.1614V41.6504H78.6952V39.7339H78.8984Z" fill="#626262"/>
<g filter="url(#filter2_d_7961_38949)">
<rect x="51.416" y="16" width="10.0901" height="6.62162" rx="3.31081" fill="white"/>
<rect x="51.5628" y="16.1468" width="9.79653" height="6.32807" rx="3.16403" stroke="url(#paint2_linear_7961_38949)" stroke-width="0.293555"/>
</g>
<path d="M54.2966 19.5762H53.1166V19.405L53.5982 18.916C53.6877 18.8257 53.7628 18.7452 53.8236 18.6746C53.8852 18.6039 53.932 18.5346 53.964 18.4664C53.996 18.3974 54.012 18.3219 54.012 18.2398C54.012 18.138 53.9817 18.0604 53.9209 18.007C53.8609 17.9528 53.7817 17.9257 53.6832 17.9257C53.597 17.9257 53.5206 17.9405 53.4541 17.97C53.3876 17.9996 53.3194 18.0415 53.2496 18.0957L53.14 17.9577C53.1876 17.9175 53.2393 17.8818 53.2952 17.8506C53.3518 17.8194 53.4122 17.7947 53.4762 17.7767C53.5411 17.7586 53.6101 17.7496 53.6832 17.7496C53.794 17.7496 53.8897 17.7689 53.9702 17.8075C54.0506 17.846 54.1126 17.9011 54.1561 17.9725C54.2005 18.0439 54.2227 18.1289 54.2227 18.2275C54.2227 18.3227 54.2038 18.4114 54.166 18.4935C54.1282 18.5748 54.0753 18.6557 54.0071 18.7362C53.939 18.8158 53.8593 18.9004 53.7682 18.9899L53.3765 19.3803V19.389H54.2966V19.5762ZM55.75 18.6733C55.75 18.8195 55.7389 18.9501 55.7167 19.065C55.6945 19.18 55.6596 19.2773 55.612 19.3569C55.5644 19.4366 55.5028 19.4973 55.4273 19.5392C55.3517 19.5803 55.261 19.6008 55.1551 19.6008C55.0212 19.6008 54.9104 19.5643 54.8225 19.4912C54.7355 19.4181 54.6702 19.3126 54.6267 19.1746C54.584 19.0359 54.5626 18.8688 54.5626 18.6733C54.5626 18.4812 54.5819 18.3161 54.6205 18.1782C54.6599 18.0394 54.7231 17.9331 54.8102 17.8592C54.8972 17.7845 55.0122 17.7471 55.1551 17.7471C55.2905 17.7471 55.4022 17.784 55.4901 17.8579C55.5779 17.931 55.6432 18.037 55.6859 18.1757C55.7286 18.3137 55.75 18.4795 55.75 18.6733ZM54.7683 18.6733C54.7683 18.8408 54.781 18.9804 54.8065 19.0921C54.8319 19.2038 54.873 19.2875 54.9297 19.3434C54.9871 19.3984 55.0623 19.4259 55.1551 19.4259C55.2478 19.4259 55.3226 19.3984 55.3792 19.3434C55.4367 19.2884 55.4782 19.205 55.5036 19.0933C55.5299 18.9817 55.543 18.8417 55.543 18.6733C55.543 18.5083 55.5303 18.3703 55.5049 18.2595C55.4794 18.1478 55.4383 18.0641 55.3817 18.0082C55.325 17.9516 55.2495 17.9232 55.1551 17.9232C55.0606 17.9232 54.9851 17.9516 54.9284 18.0082C54.8718 18.0641 54.8307 18.1478 54.8053 18.2595C54.7806 18.3703 54.7683 18.5083 54.7683 18.6733ZM56.064 19.4481C56.064 19.3906 56.078 19.3499 56.1059 19.3261C56.1338 19.3015 56.1679 19.2892 56.2082 19.2892C56.25 19.2892 56.2853 19.3015 56.3141 19.3261C56.3428 19.3499 56.3572 19.3906 56.3572 19.4481C56.3572 19.5047 56.3428 19.5462 56.3141 19.5725C56.2853 19.5979 56.25 19.6107 56.2082 19.6107C56.1679 19.6107 56.1338 19.5979 56.1059 19.5725C56.078 19.5462 56.064 19.5047 56.064 19.4481ZM57.4275 19.5762H57.228V18.3001C57.228 18.2517 57.228 18.2102 57.228 18.1757C57.2288 18.1404 57.2296 18.1084 57.2305 18.0797C57.2321 18.0501 57.2342 18.0201 57.2366 17.9897C57.2112 18.016 57.1874 18.0386 57.1652 18.0575C57.143 18.0756 57.1155 18.0981 57.0827 18.1252L56.877 18.2903L56.7698 18.1511L57.2576 17.7754H57.4275V19.5762ZM59.5301 19.5762H59.2825L58.6334 18.7004L58.4412 18.8729V19.5762H58.2318V17.7754H58.4412V18.6733C58.488 18.62 58.5361 18.567 58.5853 18.5144C58.6346 18.4611 58.6835 18.4073 58.7319 18.3531L59.2578 17.7754H59.503L58.7861 18.5563L59.5301 19.5762Z" fill="#626262"/>
<g filter="url(#filter3_d_7961_38949)">
<rect x="12" y="36.4961" width="10.0901" height="6.62162" rx="3.31081" fill="white"/>
<rect x="12.1468" y="36.6429" width="9.79653" height="6.32807" rx="3.16403" stroke="url(#paint3_linear_7961_38949)" stroke-width="0.293555"/>
</g>
<path d="M14.8805 40.0723H13.7006V39.9011L14.1822 39.4121C14.2717 39.3217 14.3468 39.2413 14.4076 39.1707C14.4692 39.1 14.516 39.0307 14.548 38.9625C14.58 38.8935 14.596 38.818 14.596 38.7359C14.596 38.6341 14.5656 38.5565 14.5049 38.5031C14.4449 38.4489 14.3657 38.4218 14.2672 38.4218C14.1809 38.4218 14.1046 38.4366 14.0381 38.4661C13.9715 38.4957 13.9034 38.5376 13.8336 38.5918L13.724 38.4538C13.7716 38.4136 13.8233 38.3779 13.8792 38.3467C13.9358 38.3155 13.9962 38.2908 14.0602 38.2728C14.1251 38.2547 14.1941 38.2457 14.2672 38.2457C14.378 38.2457 14.4737 38.265 14.5541 38.3035C14.6346 38.3421 14.6966 38.3972 14.7401 38.4686C14.7845 38.54 14.8066 38.625 14.8066 38.7236C14.8066 38.8188 14.7878 38.9075 14.75 38.9896C14.7122 39.0709 14.6592 39.1518 14.5911 39.2322C14.5229 39.3119 14.4433 39.3965 14.3521 39.486L13.9605 39.8764V39.885H14.8805V40.0723ZM16.3339 39.1694C16.3339 39.3156 16.3229 39.4462 16.3007 39.5611C16.2785 39.6761 16.2436 39.7734 16.196 39.853C16.1484 39.9327 16.0868 39.9934 16.0112 40.0353C15.9357 40.0764 15.845 40.0969 15.739 40.0969C15.6052 40.0969 15.4943 40.0604 15.4065 39.9873C15.3194 39.9142 15.2542 39.8087 15.2106 39.6707C15.1679 39.532 15.1466 39.3649 15.1466 39.1694C15.1466 38.9773 15.1659 38.8122 15.2045 38.6743C15.2439 38.5355 15.3071 38.4292 15.3942 38.3553C15.4812 38.2806 15.5962 38.2432 15.739 38.2432C15.8745 38.2432 15.9862 38.2801 16.0741 38.354C16.1619 38.4271 16.2272 38.5331 16.2699 38.6718C16.3126 38.8098 16.3339 38.9756 16.3339 39.1694ZM15.3523 39.1694C15.3523 39.3369 15.365 39.4765 15.3905 39.5882C15.4159 39.6999 15.457 39.7836 15.5136 39.8395C15.5711 39.8945 15.6462 39.922 15.739 39.922C15.8318 39.922 15.9065 39.8945 15.9632 39.8395C16.0207 39.7845 16.0622 39.7011 16.0876 39.5894C16.1139 39.4778 16.127 39.3378 16.127 39.1694C16.127 39.0044 16.1143 38.8664 16.0888 38.7556C16.0634 38.6439 16.0223 38.5601 15.9657 38.5043C15.909 38.4477 15.8335 38.4193 15.739 38.4193C15.6446 38.4193 15.5691 38.4477 15.5124 38.5043C15.4557 38.5601 15.4147 38.6439 15.3892 38.7556C15.3646 38.8664 15.3523 39.0044 15.3523 39.1694ZM16.648 39.9442C16.648 39.8867 16.662 39.846 16.6899 39.8222C16.7178 39.7976 16.7519 39.7853 16.7921 39.7853C16.834 39.7853 16.8693 39.7976 16.8981 39.8222C16.9268 39.846 16.9412 39.8867 16.9412 39.9442C16.9412 40.0008 16.9268 40.0423 16.8981 40.0686C16.8693 40.094 16.834 40.1068 16.7921 40.1068C16.7519 40.1068 16.7178 40.094 16.6899 40.0686C16.662 40.0423 16.648 40.0008 16.648 39.9442ZM18.0115 40.0723H17.812V38.7962C17.812 38.7478 17.812 38.7063 17.812 38.6718C17.8128 38.6365 17.8136 38.6045 17.8145 38.5757C17.8161 38.5462 17.8181 38.5162 17.8206 38.4858C17.7952 38.5121 17.7713 38.5347 17.7492 38.5536C17.727 38.5716 17.6995 38.5942 17.6666 38.6213L17.461 38.7864L17.3538 38.6472L17.8416 38.2715H18.0115V40.0723ZM20.114 40.0723H19.8665L19.2174 39.1965L19.0252 39.369V40.0723H18.8158V38.2715H19.0252V39.1694C19.072 39.1161 19.1201 39.0631 19.1693 39.0105C19.2186 38.9572 19.2674 38.9034 19.3159 38.8492L19.8418 38.2715H20.0869L19.3701 39.0524L20.114 40.0723Z" fill="#626262"/>
<g filter="url(#filter4_d_7961_38949)">
<rect x="24.6113" y="68.3418" width="10.0901" height="6.62162" rx="3.31081" fill="white"/>
<rect x="24.7581" y="68.4886" width="9.79653" height="6.32807" rx="3.16403" stroke="url(#paint4_linear_7961_38949)" stroke-width="0.293555"/>
</g>
<path d="M27.8083 71.918H26.6283V71.7468L27.1099 71.2578C27.1994 71.1675 27.2745 71.087 27.3353 71.0164C27.3969 70.9457 27.4437 70.8764 27.4757 70.8082C27.5077 70.7392 27.5238 70.6637 27.5238 70.5816C27.5238 70.4798 27.4934 70.4022 27.4326 70.3488C27.3727 70.2946 27.2934 70.2675 27.1949 70.2675C27.1087 70.2675 27.0323 70.2823 26.9658 70.3118C26.8993 70.3414 26.8311 70.3833 26.7613 70.4375L26.6517 70.2995C26.6993 70.2593 26.7511 70.2236 26.8069 70.1924C26.8636 70.1612 26.9239 70.1365 26.988 70.1185C27.0528 70.1004 27.1218 70.0914 27.1949 70.0914C27.3057 70.0914 27.4014 70.1107 27.4819 70.1492C27.5623 70.1878 27.6243 70.2429 27.6679 70.3143C27.7122 70.3857 27.7344 70.4707 27.7344 70.5693C27.7344 70.6645 27.7155 70.7532 27.6777 70.8353C27.6399 70.9166 27.587 70.9975 27.5188 71.0779C27.4507 71.1576 27.371 71.2422 27.2799 71.3317L26.8882 71.7221V71.7308H27.8083V71.918ZM29.2518 71.918H28.0719V71.7468L28.5535 71.2578C28.643 71.1675 28.7181 71.087 28.7789 71.0164C28.8404 70.9457 28.8872 70.8764 28.9193 70.8082C28.9513 70.7392 28.9673 70.6637 28.9673 70.5816C28.9673 70.4798 28.9369 70.4022 28.8762 70.3488C28.8162 70.2946 28.737 70.2675 28.6384 70.2675C28.5522 70.2675 28.4759 70.2823 28.4093 70.3118C28.3428 70.3414 28.2747 70.3833 28.2049 70.4375L28.0953 70.2995C28.1429 70.2593 28.1946 70.2236 28.2505 70.1924C28.3071 70.1612 28.3675 70.1365 28.4315 70.1185C28.4964 70.1004 28.5654 70.0914 28.6384 70.0914C28.7493 70.0914 28.845 70.1107 28.9254 70.1492C29.0059 70.1878 29.0679 70.2429 29.1114 70.3143C29.1558 70.3857 29.1779 70.4707 29.1779 70.5693C29.1779 70.6645 29.159 70.7532 29.1213 70.8353C29.0835 70.9166 29.0305 70.9975 28.9624 71.0779C28.8942 71.1576 28.8146 71.2422 28.7234 71.3317L28.3317 71.7221V71.7308H29.2518V71.918ZM29.5758 71.7899C29.5758 71.7324 29.5897 71.6917 29.6176 71.6679C29.6456 71.6433 29.6796 71.631 29.7199 71.631C29.7618 71.631 29.7971 71.6433 29.8258 71.6679C29.8545 71.6917 29.8689 71.7324 29.8689 71.7899C29.8689 71.8465 29.8545 71.888 29.8258 71.9143C29.7971 71.9397 29.7618 71.9525 29.7199 71.9525C29.6796 71.9525 29.6456 71.9397 29.6176 71.9143C29.5897 71.888 29.5758 71.8465 29.5758 71.7899ZM31.2915 70.5372C31.2915 70.6177 31.2759 70.6875 31.2447 70.7466C31.2135 70.8057 31.17 70.8542 31.1142 70.892C31.0583 70.9289 30.9926 70.9548 30.9171 70.9696V70.9794C31.06 70.9975 31.1671 71.0435 31.2386 71.1174C31.3108 71.1913 31.347 71.2882 31.347 71.408C31.347 71.5123 31.3223 71.6047 31.2731 71.6852C31.2246 71.7656 31.1499 71.8289 31.0489 71.8749C30.9487 71.92 30.8202 71.9426 30.6634 71.9426C30.5681 71.9426 30.4798 71.9348 30.3985 71.9192C30.3181 71.9044 30.2409 71.8794 30.167 71.8441V71.6519C30.2417 71.6889 30.323 71.718 30.4109 71.7394C30.4987 71.7599 30.5837 71.7702 30.6658 71.7702C30.83 71.7702 30.9487 71.7377 31.0218 71.6729C31.0949 71.6072 31.1314 71.5177 31.1314 71.4043C31.1314 71.3263 31.1109 71.2635 31.0698 71.2159C31.0296 71.1675 30.9713 71.1321 30.8949 71.11C30.8194 71.087 30.7282 71.0755 30.6215 71.0755H30.4417V70.9006H30.6227C30.7204 70.9006 30.8034 70.8862 30.8715 70.8575C30.9397 70.8287 30.9914 70.7885 31.0267 70.7368C31.0628 70.6842 31.0809 70.6222 31.0809 70.5508C31.0809 70.4596 31.0505 70.3894 30.9898 70.3402C30.929 70.2901 30.8465 70.265 30.7422 70.265C30.6781 70.265 30.6198 70.2716 30.5673 70.2847C30.5147 70.2979 30.4655 70.3159 30.4195 70.3389C30.3735 70.3619 30.3275 70.3886 30.2815 70.419L30.1781 70.2786C30.2438 70.2277 30.3238 70.1837 30.4183 70.1468C30.5127 70.1098 30.6198 70.0914 30.7397 70.0914C30.9237 70.0914 31.0616 70.1332 31.1536 70.217C31.2455 70.3007 31.2915 70.4075 31.2915 70.5372ZM31.916 70.0014V70.9967C31.916 71.0295 31.9148 71.0697 31.9123 71.1174C31.9098 71.1642 31.9078 71.2056 31.9061 71.2418H31.9148C31.932 71.2204 31.9571 71.1888 31.9899 71.1469C32.0236 71.105 32.0519 71.0714 32.0749 71.0459L32.5232 70.568H32.7634L32.2202 71.1445L32.8028 71.918H32.5565L32.0798 71.2787L31.916 71.429V71.918H31.7128V70.0014H31.916Z" fill="#626262"/>
<defs>
<filter id="filter0_d_7961_38949" x="62.5387" y="65.1914" width="12.4383" height="8.96954" filterUnits="userSpaceOnUse" color-interpolation-filters="sRGB">
<feFlood flood-opacity="0" result="BackgroundImageFix"/>
<feColorMatrix in="SourceAlpha" type="matrix" values="0 0 0 0 0 0 0 0 0 0 0 0 0 0 0 0 0 0 127 0" result="hardAlpha"/>
<feOffset dy="1.17422"/>
<feGaussianBlur stdDeviation="0.587111"/>
<feComposite in2="hardAlpha" operator="out"/>
<feColorMatrix type="matrix" values="0 0 0 0 0 0 0 0 0 0 0 0 0 0 0 0 0 0 0.25 0"/>
<feBlend mode="normal" in2="BackgroundImageFix" result="effect1_dropShadow_7961_38949"/>
<feBlend mode="normal" in="SourceGraphic" in2="effect1_dropShadow_7961_38949" result="shape"/>
</filter>
<filter id="filter1_d_7961_38949" x="70.7359" y="38.0742" width="12.4383" height="8.96954" filterUnits="userSpaceOnUse" color-interpolation-filters="sRGB">
<feFlood flood-opacity="0" result="BackgroundImageFix"/>
<feColorMatrix in="SourceAlpha" type="matrix" values="0 0 0 0 0 0 0 0 0 0 0 0 0 0 0 0 0 0 127 0" result="hardAlpha"/>
<feOffset dy="1.17422"/>
<feGaussianBlur stdDeviation="0.587111"/>
<feComposite in2="hardAlpha" operator="out"/>
<feColorMatrix type="matrix" values="0 0 0 0 0 0 0 0 0 0 0 0 0 0 0 0 0 0 0.25 0"/>
<feBlend mode="normal" in2="BackgroundImageFix" result="effect1_dropShadow_7961_38949"/>
<feBlend mode="normal" in="SourceGraphic" in2="effect1_dropShadow_7961_38949" result="shape"/>
</filter>
<filter id="filter2_d_7961_38949" x="50.2418" y="16" width="12.4383" height="8.96954" filterUnits="userSpaceOnUse" color-interpolation-filters="sRGB">
<feFlood flood-opacity="0" result="BackgroundImageFix"/>
<feColorMatrix in="SourceAlpha" type="matrix" values="0 0 0 0 0 0 0 0 0 0 0 0 0 0 0 0 0 0 127 0" result="hardAlpha"/>
<feOffset dy="1.17422"/>
<feGaussianBlur stdDeviation="0.587111"/>
<feComposite in2="hardAlpha" operator="out"/>
<feColorMatrix type="matrix" values="0 0 0 0 0 0 0 0 0 0 0 0 0 0 0 0 0 0 0.25 0"/>
<feBlend mode="normal" in2="BackgroundImageFix" result="effect1_dropShadow_7961_38949"/>
<feBlend mode="normal" in="SourceGraphic" in2="effect1_dropShadow_7961_38949" result="shape"/>
</filter>
<filter id="filter3_d_7961_38949" x="10.8258" y="36.4961" width="12.4383" height="8.96954" filterUnits="userSpaceOnUse" color-interpolation-filters="sRGB">
<feFlood flood-opacity="0" result="BackgroundImageFix"/>
<feColorMatrix in="SourceAlpha" type="matrix" values="0 0 0 0 0 0 0 0 0 0 0 0 0 0 0 0 0 0 127 0" result="hardAlpha"/>
<feOffset dy="1.17422"/>
<feGaussianBlur stdDeviation="0.587111"/>
<feComposite in2="hardAlpha" operator="out"/>
<feColorMatrix type="matrix" values="0 0 0 0 0 0 0 0 0 0 0 0 0 0 0 0 0 0 0.25 0"/>
<feBlend mode="normal" in2="BackgroundImageFix" result="effect1_dropShadow_7961_38949"/>
<feBlend mode="normal" in="SourceGraphic" in2="effect1_dropShadow_7961_38949" result="shape"/>
</filter>
<filter id="filter4_d_7961_38949" x="23.4371" y="68.3418" width="12.4383" height="8.96954" filterUnits="userSpaceOnUse" color-interpolation-filters="sRGB">
<feFlood flood-opacity="0" result="BackgroundImageFix"/>
<feColorMatrix in="SourceAlpha" type="matrix" values="0 0 0 0 0 0 0 0 0 0 0 0 0 0 0 0 0 0 127 0" result="hardAlpha"/>
<feOffset dy="1.17422"/>
<feGaussianBlur stdDeviation="0.587111"/>
<feComposite in2="hardAlpha" operator="out"/>
<feColorMatrix type="matrix" values="0 0 0 0 0 0 0 0 0 0 0 0 0 0 0 0 0 0 0.25 0"/>
<feBlend mode="normal" in2="BackgroundImageFix" result="effect1_dropShadow_7961_38949"/>
<feBlend mode="normal" in="SourceGraphic" in2="effect1_dropShadow_7961_38949" result="shape"/>
</filter>
<linearGradient id="paint0_linear_7961_38949" x1="68.7579" y1="65.1914" x2="68.7579" y2="71.813" gradientUnits="userSpaceOnUse">
<stop stop-color="#ECECEC"/>
<stop offset="1" stop-color="#868686" stop-opacity="0"/>
</linearGradient>
<linearGradient id="paint1_linear_7961_38949" x1="76.9552" y1="38.0742" x2="76.9552" y2="44.6958" gradientUnits="userSpaceOnUse">
<stop stop-color="#ECECEC"/>
<stop offset="1" stop-color="#868686" stop-opacity="0"/>
</linearGradient>
<linearGradient id="paint2_linear_7961_38949" x1="56.4611" y1="16" x2="56.4611" y2="22.6216" gradientUnits="userSpaceOnUse">
<stop stop-color="#ECECEC"/>
<stop offset="1" stop-color="#868686" stop-opacity="0"/>
</linearGradient>
<linearGradient id="paint3_linear_7961_38949" x1="17.045" y1="36.4961" x2="17.045" y2="43.1177" gradientUnits="userSpaceOnUse">
<stop stop-color="#ECECEC"/>
<stop offset="1" stop-color="#868686" stop-opacity="0"/>
</linearGradient>
<linearGradient id="paint4_linear_7961_38949" x1="29.6564" y1="68.3418" x2="29.6564" y2="74.9634" gradientUnits="userSpaceOnUse">
<stop stop-color="#ECECEC"/>
<stop offset="1" stop-color="#868686" stop-opacity="0"/>
</linearGradient>
</defs>
</svg>
