<svg width="93" height="92" viewBox="0 0 93 92" fill="none" xmlns="http://www.w3.org/2000/svg">
<rect x="1.25995" y="0.389831" width="91.079" height="91.2203" rx="17.5424" stroke="#BEBEBE" stroke-width="0.779661"/>
<g clip-path="url(#clip0_7813_53106)">
<rect width="70" height="60.7317" transform="translate(12.1885 15.9453)" fill="white"/>
<path d="M21.9453 21.793V68.8661" stroke="#E0E0E0" stroke-width="0.243902"/>
<path d="M29.8702 68.8661C29.8702 68.9335 29.9248 68.9881 29.9922 68.9881C30.0595 68.9881 30.1141 68.9335 30.1141 68.8661H29.8702ZM29.9922 21.793H29.8702V68.8661H29.9922H30.1141V21.793H29.9922Z" fill="#E0E0E0"/>
<path d="M37.921 68.8661C37.921 68.9335 37.9756 68.9881 38.043 68.9881C38.1103 68.9881 38.1649 68.9335 38.1649 68.8661H37.921ZM38.043 21.793H37.921V68.8661H38.043H38.1649V21.793H38.043Z" fill="#E0E0E0"/>
<path d="M45.9679 68.8661C45.9679 68.9335 46.0225 68.9881 46.0898 68.9881C46.1572 68.9881 46.2118 68.9335 46.2118 68.8661H45.9679ZM46.0898 21.793H45.9679V68.8661H46.0898H46.2118V21.793H46.0898Z" fill="#E0E0E0"/>
<path d="M54.0187 68.8661C54.0187 68.9335 54.0733 68.9881 54.1406 68.9881C54.208 68.9881 54.2626 68.9335 54.2626 68.8661H54.0187ZM54.1406 21.793H54.0187V68.8661H54.1406H54.2626V21.793H54.1406Z" fill="#E0E0E0"/>
<path d="M62.0646 68.8661C62.0646 68.9335 62.1192 68.9881 62.1865 68.9881C62.2539 68.9881 62.3085 68.9335 62.3085 68.8661H62.0646ZM62.1865 21.793H62.0646V68.8661H62.1865H62.3085V21.793H62.1865Z" fill="#E0E0E0"/>
<path d="M70.1163 68.8661C70.1163 68.9335 70.1709 68.9881 70.2383 68.9881C70.3056 68.9881 70.3602 68.9335 70.3602 68.8661H70.1163ZM70.2383 21.793H70.1163V68.8661H70.2383H70.3602V21.793H70.2383Z" fill="#E0E0E0"/>
<path d="M78.1622 68.8661C78.1622 68.9335 78.2168 68.9881 78.2842 68.9881C78.3515 68.9881 78.4061 68.9335 78.4061 68.8661H78.1622ZM78.2842 21.793H78.1622V68.8661H78.2842H78.4061V21.793H78.2842Z" fill="#E0E0E0"/>
<path d="M22.0664 65.4572L29.9932 37.7569L38.1091 46.9117L46.0908 32.9964L54.1396 40.6864L62.2554 56.6767L70.3042 38.4893L78.2859 27.6523" stroke="#FF9500" stroke-width="0.487805"/>
<path d="M29.9932 36.5518C30.5992 36.5519 31.0908 37.0433 31.0908 37.6494C31.0907 38.2554 30.5992 38.747 29.9932 38.7471C29.3871 38.7471 28.8956 38.2555 28.8955 37.6494C28.8955 37.0432 29.387 36.5518 29.9932 36.5518Z" fill="white" stroke="#FF9500" stroke-width="0.243902"/>
<path d="M29.9915 38.3853C30.3956 38.3853 30.7232 38.0577 30.7232 37.6536C30.7232 37.2495 30.3956 36.9219 29.9915 36.9219C29.5874 36.9219 29.2598 37.2495 29.2598 37.6536C29.2598 38.0577 29.5874 38.3853 29.9915 38.3853Z" fill="#FF9500"/>
<path d="M70.2376 39.1158C70.6417 39.1158 70.9693 38.7882 70.9693 38.3841C70.9693 37.9799 70.6417 37.6523 70.2376 37.6523C69.8335 37.6523 69.5059 37.9799 69.5059 38.3841C69.5059 38.7882 69.8335 39.1158 70.2376 39.1158Z" fill="#FF9500"/>
<path d="M78.2883 28.4126C78.6925 28.4126 79.0201 28.085 79.0201 27.6809C79.0201 27.2768 78.6925 26.9492 78.2883 26.9492C77.8842 26.9492 77.5566 27.2768 77.5566 27.6809C77.5566 28.085 77.8842 28.4126 78.2883 28.4126Z" fill="#FF9500"/>
<path d="M16.0493 23.793H15.1366V23.6605L15.5091 23.2823C15.5784 23.2124 15.6365 23.1502 15.6835 23.0956C15.7311 23.0409 15.7673 22.9873 15.7921 22.9345C15.8169 22.8812 15.8292 22.8228 15.8292 22.7592C15.8292 22.6805 15.8057 22.6205 15.7587 22.5792C15.7124 22.5373 15.6511 22.5163 15.5749 22.5163C15.5082 22.5163 15.4491 22.5277 15.3977 22.5506C15.3462 22.5735 15.2935 22.6058 15.2395 22.6478L15.1547 22.5411C15.1915 22.5099 15.2316 22.4823 15.2747 22.4582C15.3186 22.434 15.3653 22.415 15.4148 22.401C15.465 22.387 15.5183 22.38 15.5749 22.38C15.6606 22.38 15.7346 22.395 15.7969 22.4248C15.8591 22.4547 15.9071 22.4972 15.9407 22.5525C15.975 22.6078 15.9922 22.6735 15.9922 22.7497C15.9922 22.8234 15.9776 22.892 15.9483 22.9555C15.9191 23.0184 15.8782 23.081 15.8254 23.1432C15.7727 23.2048 15.7111 23.2702 15.6406 23.3395L15.3376 23.6415V23.6482H16.0493V23.793ZM16.6934 22.9412C16.788 22.9412 16.8703 22.9574 16.9401 22.9898C17.01 23.0216 17.064 23.0679 17.1021 23.1289C17.1409 23.1899 17.1602 23.2639 17.1602 23.3509C17.1602 23.4462 17.1396 23.5284 17.0983 23.5977C17.057 23.6663 16.9976 23.7193 16.9201 23.7568C16.8426 23.7936 16.7499 23.812 16.6419 23.812C16.5695 23.812 16.5022 23.8057 16.44 23.793C16.3777 23.7803 16.3253 23.7612 16.2828 23.7358V23.5853C16.3291 23.6132 16.3853 23.6354 16.4514 23.652C16.5174 23.6685 16.5816 23.6767 16.6438 23.6767C16.7143 23.6767 16.776 23.6656 16.8287 23.6434C16.882 23.6205 16.9233 23.5862 16.9525 23.5405C16.9824 23.4941 16.9973 23.436 16.9973 23.3661C16.9973 23.2734 16.9687 23.2019 16.9116 23.1518C16.855 23.101 16.7655 23.0756 16.6429 23.0756C16.6035 23.0756 16.5603 23.0787 16.5133 23.0851C16.4663 23.0914 16.4276 23.0984 16.3971 23.106L16.317 23.0536L16.3704 22.4001H17.063V22.5449H16.5057L16.4704 22.965C16.4946 22.96 16.5257 22.9549 16.5638 22.9498C16.6019 22.9441 16.6451 22.9412 16.6934 22.9412ZM18.2902 23.0946C18.2902 23.2077 18.2816 23.3087 18.2645 23.3976C18.2473 23.4865 18.2203 23.5618 18.1835 23.6234C18.1466 23.685 18.099 23.732 18.0406 23.7644C17.9821 23.7961 17.9119 23.812 17.83 23.812C17.7265 23.812 17.6407 23.7838 17.5728 23.7272C17.5054 23.6707 17.4549 23.5891 17.4213 23.4824C17.3883 23.375 17.3717 23.2458 17.3717 23.0946C17.3717 22.946 17.3867 22.8183 17.4165 22.7116C17.447 22.6043 17.4959 22.522 17.5632 22.4648C17.6306 22.407 17.7195 22.3781 17.83 22.3781C17.9348 22.3781 18.0212 22.4067 18.0892 22.4639C18.1571 22.5204 18.2076 22.6024 18.2406 22.7097C18.2737 22.8164 18.2902 22.9447 18.2902 23.0946ZM17.5308 23.0946C17.5308 23.2242 17.5407 23.3322 17.5604 23.4185C17.5801 23.5049 17.6118 23.5697 17.6557 23.6129C17.7001 23.6555 17.7582 23.6767 17.83 23.6767C17.9018 23.6767 17.9596 23.6555 18.0034 23.6129C18.0479 23.5703 18.0799 23.5059 18.0996 23.4195C18.12 23.3331 18.1301 23.2248 18.1301 23.0946C18.1301 22.9669 18.1203 22.8602 18.1006 22.7745C18.0809 22.6881 18.0491 22.6233 18.0053 22.5801C17.9615 22.5363 17.9031 22.5144 17.83 22.5144C17.757 22.5144 17.6985 22.5363 17.6547 22.5801C17.6109 22.6233 17.5791 22.6881 17.5594 22.7745C17.5404 22.8602 17.5308 22.9669 17.5308 23.0946ZM19.4068 23.0946C19.4068 23.2077 19.3982 23.3087 19.3811 23.3976C19.3639 23.4865 19.3369 23.5618 19.3001 23.6234C19.2633 23.685 19.2156 23.732 19.1572 23.7644C19.0987 23.7961 19.0286 23.812 18.9466 23.812C18.8431 23.812 18.7573 23.7838 18.6894 23.7272C18.6221 23.6707 18.5716 23.5891 18.5379 23.4824C18.5049 23.375 18.4884 23.2458 18.4884 23.0946C18.4884 22.946 18.5033 22.8183 18.5331 22.7116C18.5636 22.6043 18.6125 22.522 18.6799 22.4648C18.7472 22.407 18.8361 22.3781 18.9466 22.3781C19.0514 22.3781 19.1378 22.4067 19.2058 22.4639C19.2737 22.5204 19.3242 22.6024 19.3573 22.7097C19.3903 22.8164 19.4068 22.9447 19.4068 23.0946ZM18.6475 23.0946C18.6475 23.2242 18.6573 23.3322 18.677 23.4185C18.6967 23.5049 18.7284 23.5697 18.7723 23.6129C18.8167 23.6555 18.8748 23.6767 18.9466 23.6767C19.0184 23.6767 19.0762 23.6555 19.12 23.6129C19.1645 23.5703 19.1966 23.5059 19.2162 23.4195C19.2366 23.3331 19.2467 23.2248 19.2467 23.0946C19.2467 22.9669 19.2369 22.8602 19.2172 22.7745C19.1975 22.6881 19.1658 22.6233 19.1219 22.5801C19.0781 22.5363 19.0197 22.5144 18.9466 22.5144C18.8736 22.5144 18.8151 22.5363 18.7713 22.5801C18.7275 22.6233 18.6957 22.6881 18.676 22.7745C18.657 22.8602 18.6475 22.9669 18.6475 23.0946Z" fill="#212121"/>
<path d="M16.0493 31.1836H15.1366V31.0512L15.5091 30.6729C15.5784 30.6031 15.6365 30.5408 15.6835 30.4862C15.7311 30.4316 15.7673 30.3779 15.7921 30.3252C15.8169 30.2718 15.8292 30.2134 15.8292 30.1499C15.8292 30.0711 15.8057 30.0111 15.7587 29.9698C15.7124 29.9279 15.6511 29.9069 15.5749 29.9069C15.5082 29.9069 15.4491 29.9183 15.3977 29.9412C15.3462 29.9641 15.2935 29.9965 15.2395 30.0384L15.1547 29.9317C15.1915 29.9006 15.2316 29.8729 15.2747 29.8488C15.3186 29.8247 15.3653 29.8056 15.4148 29.7916C15.465 29.7777 15.5183 29.7707 15.5749 29.7707C15.6606 29.7707 15.7346 29.7856 15.7969 29.8155C15.8591 29.8453 15.9071 29.8879 15.9407 29.9431C15.975 29.9984 15.9922 30.0641 15.9922 30.1403C15.9922 30.214 15.9776 30.2826 15.9483 30.3461C15.9191 30.409 15.8782 30.4716 15.8254 30.5338C15.7727 30.5954 15.7111 30.6609 15.6406 30.7301L15.3376 31.0321V31.0388H16.0493V31.1836ZM17.1736 30.4852C17.1736 30.5983 17.165 30.6993 17.1478 30.7882C17.1307 30.8771 17.1037 30.9524 17.0669 31.014C17.03 31.0756 16.9824 31.1226 16.9239 31.155C16.8655 31.1868 16.7953 31.2026 16.7134 31.2026C16.6099 31.2026 16.5241 31.1744 16.4561 31.1179C16.3888 31.0613 16.3383 30.9797 16.3047 30.873C16.2716 30.7657 16.2551 30.6364 16.2551 30.4852C16.2551 30.3366 16.27 30.2089 16.2999 30.1022C16.3304 29.9949 16.3793 29.9126 16.4466 29.8555C16.5139 29.7977 16.6029 29.7688 16.7134 29.7688C16.8182 29.7688 16.9046 29.7974 16.9725 29.8545C17.0405 29.911 17.091 29.993 17.124 30.1003C17.1571 30.207 17.1736 30.3353 17.1736 30.4852ZM16.4142 30.4852C16.4142 30.6148 16.4241 30.7228 16.4438 30.8092C16.4635 30.8955 16.4952 30.9603 16.539 31.0035C16.5835 31.0461 16.6416 31.0674 16.7134 31.0674C16.7852 31.0674 16.843 31.0461 16.8868 31.0035C16.9313 30.961 16.9633 30.8965 16.983 30.8101C17.0033 30.7237 17.0135 30.6154 17.0135 30.4852C17.0135 30.3576 17.0037 30.2509 16.984 30.1651C16.9643 30.0787 16.9325 30.0139 16.8887 29.9708C16.8449 29.9269 16.7864 29.905 16.7134 29.905C16.6403 29.905 16.5819 29.9269 16.5381 29.9708C16.4943 30.0139 16.4625 30.0787 16.4428 30.1651C16.4238 30.2509 16.4142 30.3576 16.4142 30.4852ZM18.2902 30.4852C18.2902 30.5983 18.2816 30.6993 18.2645 30.7882C18.2473 30.8771 18.2203 30.9524 18.1835 31.014C18.1466 31.0756 18.099 31.1226 18.0406 31.155C17.9821 31.1868 17.9119 31.2026 17.83 31.2026C17.7265 31.2026 17.6407 31.1744 17.5728 31.1179C17.5054 31.0613 17.4549 30.9797 17.4213 30.873C17.3883 30.7657 17.3717 30.6364 17.3717 30.4852C17.3717 30.3366 17.3867 30.2089 17.4165 30.1022C17.447 29.9949 17.4959 29.9126 17.5632 29.8555C17.6306 29.7977 17.7195 29.7688 17.83 29.7688C17.9348 29.7688 18.0212 29.7974 18.0892 29.8545C18.1571 29.911 18.2076 29.993 18.2406 30.1003C18.2737 30.207 18.2902 30.3353 18.2902 30.4852ZM17.5308 30.4852C17.5308 30.6148 17.5407 30.7228 17.5604 30.8092C17.5801 30.8955 17.6118 30.9603 17.6557 31.0035C17.7001 31.0461 17.7582 31.0674 17.83 31.0674C17.9018 31.0674 17.9596 31.0461 18.0034 31.0035C18.0479 30.961 18.0799 30.8965 18.0996 30.8101C18.12 30.7237 18.1301 30.6154 18.1301 30.4852C18.1301 30.3576 18.1203 30.2509 18.1006 30.1651C18.0809 30.0787 18.0491 30.0139 18.0053 29.9708C17.9615 29.9269 17.9031 29.905 17.83 29.905C17.757 29.905 17.6985 29.9269 17.6547 29.9708C17.6109 30.0139 17.5791 30.0787 17.5594 30.1651C17.5404 30.2509 17.5308 30.3576 17.5308 30.4852ZM19.4068 30.4852C19.4068 30.5983 19.3982 30.6993 19.3811 30.7882C19.3639 30.8771 19.3369 30.9524 19.3001 31.014C19.2633 31.0756 19.2156 31.1226 19.1572 31.155C19.0987 31.1868 19.0286 31.2026 18.9466 31.2026C18.8431 31.2026 18.7573 31.1744 18.6894 31.1179C18.6221 31.0613 18.5716 30.9797 18.5379 30.873C18.5049 30.7657 18.4884 30.6364 18.4884 30.4852C18.4884 30.3366 18.5033 30.2089 18.5331 30.1022C18.5636 29.9949 18.6125 29.9126 18.6799 29.8555C18.7472 29.7977 18.8361 29.7688 18.9466 29.7688C19.0514 29.7688 19.1378 29.7974 19.2058 29.8545C19.2737 29.911 19.3242 29.993 19.3573 30.1003C19.3903 30.207 19.4068 30.3353 19.4068 30.4852ZM18.6475 30.4852C18.6475 30.6148 18.6573 30.7228 18.677 30.8092C18.6967 30.8955 18.7284 30.9603 18.7723 31.0035C18.8167 31.0461 18.8748 31.0674 18.9466 31.0674C19.0184 31.0674 19.0762 31.0461 19.12 31.0035C19.1645 30.961 19.1966 30.8965 19.2162 30.8101C19.2366 30.7237 19.2467 30.6154 19.2467 30.4852C19.2467 30.3576 19.2369 30.2509 19.2172 30.1651C19.1975 30.0787 19.1658 30.0139 19.1219 29.9708C19.0781 29.9269 19.0197 29.905 18.9466 29.905C18.8736 29.905 18.8151 29.9269 18.7713 29.9708C18.7275 30.0139 18.6957 30.0787 18.676 30.1651C18.657 30.2509 18.6475 30.3576 18.6475 30.4852Z" fill="#212121"/>
<path d="M15.7254 38.5742H15.5711V37.5872C15.5711 37.5497 15.5711 37.5176 15.5711 37.4909C15.5717 37.4636 15.5723 37.4389 15.573 37.4166C15.5742 37.3938 15.5758 37.3706 15.5777 37.3471C15.558 37.3674 15.5396 37.3849 15.5225 37.3995C15.5053 37.4135 15.484 37.4309 15.4586 37.4519L15.2995 37.5796L15.2166 37.4719L15.5939 37.1813H15.7254V38.5742ZM16.6934 37.7225C16.788 37.7225 16.8703 37.7387 16.9401 37.7711C17.01 37.8028 17.064 37.8492 17.1021 37.9102C17.1409 37.9711 17.1602 38.0451 17.1602 38.1321C17.1602 38.2274 17.1396 38.3097 17.0983 38.3789C17.057 38.4475 16.9976 38.5005 16.9201 38.538C16.8426 38.5749 16.7499 38.5933 16.6419 38.5933C16.5695 38.5933 16.5022 38.5869 16.44 38.5742C16.3777 38.5615 16.3253 38.5425 16.2828 38.5171V38.3665C16.3291 38.3945 16.3853 38.4167 16.4514 38.4332C16.5174 38.4497 16.5816 38.458 16.6438 38.458C16.7143 38.458 16.776 38.4469 16.8287 38.4246C16.882 38.4018 16.9233 38.3675 16.9525 38.3217C16.9824 38.2754 16.9973 38.2173 16.9973 38.1474C16.9973 38.0547 16.9687 37.9832 16.9116 37.933C16.855 37.8822 16.7655 37.8568 16.6429 37.8568C16.6035 37.8568 16.5603 37.86 16.5133 37.8663C16.4663 37.8727 16.4276 37.8797 16.3971 37.8873L16.317 37.8349L16.3704 37.1813H17.063V37.3261H16.5057L16.4704 37.7463C16.4946 37.7412 16.5257 37.7361 16.5638 37.731C16.6019 37.7253 16.6451 37.7225 16.6934 37.7225ZM18.2902 37.8759C18.2902 37.9889 18.2816 38.0899 18.2645 38.1788C18.2473 38.2678 18.2203 38.343 18.1835 38.4046C18.1466 38.4662 18.099 38.5132 18.0406 38.5456C17.9821 38.5774 17.9119 38.5933 17.83 38.5933C17.7265 38.5933 17.6407 38.565 17.5728 38.5085C17.5054 38.4519 17.4549 38.3703 17.4213 38.2636C17.3883 38.1563 17.3717 38.027 17.3717 37.8759C17.3717 37.7272 17.3867 37.5996 17.4165 37.4929C17.447 37.3855 17.4959 37.3033 17.5632 37.2461C17.6306 37.1883 17.7195 37.1594 17.83 37.1594C17.9348 37.1594 18.0212 37.188 18.0892 37.2451C18.1571 37.3017 18.2076 37.3836 18.2406 37.4909C18.2737 37.5977 18.2902 37.726 18.2902 37.8759ZM17.5308 37.8759C17.5308 38.0054 17.5407 38.1134 17.5604 38.1998C17.5801 38.2862 17.6118 38.351 17.6557 38.3942C17.7001 38.4367 17.7582 38.458 17.83 38.458C17.9018 38.458 17.9596 38.4367 18.0034 38.3942C18.0479 38.3516 18.0799 38.2871 18.0996 38.2007C18.12 38.1144 18.1301 38.0061 18.1301 37.8759C18.1301 37.7482 18.1203 37.6415 18.1006 37.5557C18.0809 37.4694 18.0491 37.4046 18.0053 37.3614C17.9615 37.3175 17.9031 37.2956 17.83 37.2956C17.757 37.2956 17.6985 37.3175 17.6547 37.3614C17.6109 37.4046 17.5791 37.4694 17.5594 37.5557C17.5404 37.6415 17.5308 37.7482 17.5308 37.8759ZM19.4068 37.8759C19.4068 37.9889 19.3982 38.0899 19.3811 38.1788C19.3639 38.2678 19.3369 38.343 19.3001 38.4046C19.2633 38.4662 19.2156 38.5132 19.1572 38.5456C19.0987 38.5774 19.0286 38.5933 18.9466 38.5933C18.8431 38.5933 18.7573 38.565 18.6894 38.5085C18.6221 38.4519 18.5716 38.3703 18.5379 38.2636C18.5049 38.1563 18.4884 38.027 18.4884 37.8759C18.4884 37.7272 18.5033 37.5996 18.5331 37.4929C18.5636 37.3855 18.6125 37.3033 18.6799 37.2461C18.7472 37.1883 18.8361 37.1594 18.9466 37.1594C19.0514 37.1594 19.1378 37.188 19.2058 37.2451C19.2737 37.3017 19.3242 37.3836 19.3573 37.4909C19.3903 37.5977 19.4068 37.726 19.4068 37.8759ZM18.6475 37.8759C18.6475 38.0054 18.6573 38.1134 18.677 38.1998C18.6967 38.2862 18.7284 38.351 18.7723 38.3942C18.8167 38.4367 18.8748 38.458 18.9466 38.458C19.0184 38.458 19.0762 38.4367 19.12 38.3942C19.1645 38.3516 19.1966 38.2871 19.2162 38.2007C19.2366 38.1144 19.2467 38.0061 19.2467 37.8759C19.2467 37.7482 19.2369 37.6415 19.2172 37.5557C19.1975 37.4694 19.1658 37.4046 19.1219 37.3614C19.0781 37.3175 19.0197 37.2956 18.9466 37.2956C18.8736 37.2956 18.8151 37.3175 18.7713 37.3614C18.7275 37.4046 18.6957 37.4694 18.676 37.5557C18.657 37.6415 18.6475 37.7482 18.6475 37.8759Z" fill="#212121"/>
<path d="M15.7254 45.9648H15.5711V44.9778C15.5711 44.9403 15.5711 44.9083 15.5711 44.8816C15.5717 44.8543 15.5723 44.8295 15.573 44.8073C15.5742 44.7844 15.5758 44.7612 15.5777 44.7377C15.558 44.758 15.5396 44.7755 15.5225 44.7901C15.5053 44.8041 15.484 44.8216 15.4586 44.8425L15.2995 44.9702L15.2166 44.8625L15.5939 44.5719H15.7254V45.9648ZM17.1736 45.2665C17.1736 45.3795 17.165 45.4805 17.1478 45.5695C17.1307 45.6584 17.1037 45.7336 17.0669 45.7953C17.03 45.8569 16.9824 45.9039 16.9239 45.9363C16.8655 45.968 16.7953 45.9839 16.7134 45.9839C16.6099 45.9839 16.5241 45.9556 16.4561 45.8991C16.3888 45.8426 16.3383 45.761 16.3047 45.6542C16.2716 45.5469 16.2551 45.4177 16.2551 45.2665C16.2551 45.1179 16.27 44.9902 16.2999 44.8835C16.3304 44.7761 16.3793 44.6939 16.4466 44.6367C16.5139 44.5789 16.6029 44.55 16.7134 44.55C16.8182 44.55 16.9046 44.5786 16.9725 44.6358C17.0405 44.6923 17.091 44.7742 17.124 44.8816C17.1571 44.9883 17.1736 45.1166 17.1736 45.2665ZM16.4142 45.2665C16.4142 45.3961 16.4241 45.504 16.4438 45.5904C16.4635 45.6768 16.4952 45.7416 16.539 45.7848C16.5835 45.8273 16.6416 45.8486 16.7134 45.8486C16.7852 45.8486 16.843 45.8273 16.8868 45.7848C16.9313 45.7422 16.9633 45.6778 16.983 45.5914C17.0033 45.505 17.0135 45.3967 17.0135 45.2665C17.0135 45.1388 17.0037 45.0321 16.984 44.9464C16.9643 44.86 16.9325 44.7952 16.8887 44.752C16.8449 44.7082 16.7864 44.6863 16.7134 44.6863C16.6403 44.6863 16.5819 44.7082 16.5381 44.752C16.4943 44.7952 16.4625 44.86 16.4428 44.9464C16.4238 45.0321 16.4142 45.1388 16.4142 45.2665ZM18.2902 45.2665C18.2902 45.3795 18.2816 45.4805 18.2645 45.5695C18.2473 45.6584 18.2203 45.7336 18.1835 45.7953C18.1466 45.8569 18.099 45.9039 18.0406 45.9363C17.9821 45.968 17.9119 45.9839 17.83 45.9839C17.7265 45.9839 17.6407 45.9556 17.5728 45.8991C17.5054 45.8426 17.4549 45.761 17.4213 45.6542C17.3883 45.5469 17.3717 45.4177 17.3717 45.2665C17.3717 45.1179 17.3867 44.9902 17.4165 44.8835C17.447 44.7761 17.4959 44.6939 17.5632 44.6367C17.6306 44.5789 17.7195 44.55 17.83 44.55C17.9348 44.55 18.0212 44.5786 18.0892 44.6358C18.1571 44.6923 18.2076 44.7742 18.2406 44.8816C18.2737 44.9883 18.2902 45.1166 18.2902 45.2665ZM17.5308 45.2665C17.5308 45.3961 17.5407 45.504 17.5604 45.5904C17.5801 45.6768 17.6118 45.7416 17.6557 45.7848C17.7001 45.8273 17.7582 45.8486 17.83 45.8486C17.9018 45.8486 17.9596 45.8273 18.0034 45.7848C18.0479 45.7422 18.0799 45.6778 18.0996 45.5914C18.12 45.505 18.1301 45.3967 18.1301 45.2665C18.1301 45.1388 18.1203 45.0321 18.1006 44.9464C18.0809 44.86 18.0491 44.7952 18.0053 44.752C17.9615 44.7082 17.9031 44.6863 17.83 44.6863C17.757 44.6863 17.6985 44.7082 17.6547 44.752C17.6109 44.7952 17.5791 44.86 17.5594 44.9464C17.5404 45.0321 17.5308 45.1388 17.5308 45.2665ZM19.4068 45.2665C19.4068 45.3795 19.3982 45.4805 19.3811 45.5695C19.3639 45.6584 19.3369 45.7336 19.3001 45.7953C19.2633 45.8569 19.2156 45.9039 19.1572 45.9363C19.0987 45.968 19.0286 45.9839 18.9466 45.9839C18.8431 45.9839 18.7573 45.9556 18.6894 45.8991C18.6221 45.8426 18.5716 45.761 18.5379 45.6542C18.5049 45.5469 18.4884 45.4177 18.4884 45.2665C18.4884 45.1179 18.5033 44.9902 18.5331 44.8835C18.5636 44.7761 18.6125 44.6939 18.6799 44.6367C18.7472 44.5789 18.8361 44.55 18.9466 44.55C19.0514 44.55 19.1378 44.5786 19.2058 44.6358C19.2737 44.6923 19.3242 44.7742 19.3573 44.8816C19.3903 44.9883 19.4068 45.1166 19.4068 45.2665ZM18.6475 45.2665C18.6475 45.3961 18.6573 45.504 18.677 45.5904C18.6967 45.6768 18.7284 45.7416 18.7723 45.7848C18.8167 45.8273 18.8748 45.8486 18.9466 45.8486C19.0184 45.8486 19.0762 45.8273 19.12 45.7848C19.1645 45.7422 19.1966 45.6778 19.2162 45.5914C19.2366 45.505 19.2467 45.3967 19.2467 45.2665C19.2467 45.1388 19.2369 45.0321 19.2172 44.9464C19.1975 44.86 19.1658 44.7952 19.1219 44.752C19.0781 44.7082 19.0197 44.6863 18.9466 44.6863C18.8736 44.6863 18.8151 44.7082 18.7713 44.752C18.7275 44.7952 18.6957 44.86 18.676 44.9464C18.657 45.0321 18.6475 45.1388 18.6475 45.2665Z" fill="#212121"/>
<path d="M16.693 52.5037C16.7876 52.5037 16.8699 52.5199 16.9397 52.5523C17.0096 52.5841 17.0636 52.6304 17.1017 52.6914C17.1405 52.7524 17.1598 52.8264 17.1598 52.9134C17.1598 53.0087 17.1392 53.0909 17.0979 53.1602C17.0566 53.2288 16.9972 53.2818 16.9197 53.3193C16.8422 53.3561 16.7495 53.3745 16.6415 53.3745C16.5691 53.3745 16.5018 53.3682 16.4395 53.3555C16.3773 53.3428 16.3249 53.3237 16.2823 53.2983V53.1478C16.3287 53.1757 16.3849 53.1979 16.451 53.2145C16.517 53.231 16.5812 53.2392 16.6434 53.2392C16.7139 53.2392 16.7755 53.2281 16.8283 53.2059C16.8816 53.183 16.9229 53.1487 16.9521 53.103C16.982 53.0566 16.9969 52.9985 16.9969 52.9286C16.9969 52.8359 16.9683 52.7644 16.9112 52.7143C16.8546 52.6635 16.7651 52.6381 16.6425 52.6381C16.6031 52.6381 16.5599 52.6412 16.5129 52.6476C16.4659 52.6539 16.4272 52.6609 16.3967 52.6685L16.3166 52.6161L16.37 51.9626H17.0626V52.1074H16.5053L16.47 52.5275C16.4942 52.5225 16.5253 52.5174 16.5634 52.5123C16.6015 52.5066 16.6447 52.5037 16.693 52.5037ZM18.2898 52.6571C18.2898 52.7702 18.2812 52.8712 18.2641 52.9601C18.2469 53.049 18.2199 53.1243 18.1831 53.1859C18.1462 53.2475 18.0986 53.2945 18.0402 53.3269C17.9817 53.3586 17.9115 53.3745 17.8296 53.3745C17.7261 53.3745 17.6403 53.3463 17.5724 53.2897C17.505 53.2332 17.4545 53.1516 17.4209 53.0449C17.3878 52.9375 17.3713 52.8083 17.3713 52.6571C17.3713 52.5085 17.3863 52.3808 17.4161 52.2741C17.4466 52.1668 17.4955 52.0845 17.5628 52.0273C17.6302 51.9695 17.7191 51.9406 17.8296 51.9406C17.9344 51.9406 18.0208 51.9692 18.0887 52.0264C18.1567 52.0829 18.2072 52.1649 18.2402 52.2722C18.2733 52.3789 18.2898 52.5072 18.2898 52.6571ZM17.5304 52.6571C17.5304 52.7867 17.5403 52.8947 17.56 52.981C17.5797 53.0674 17.6114 53.1322 17.6552 53.1754C17.6997 53.218 17.7578 53.2392 17.8296 53.2392C17.9014 53.2392 17.9592 53.218 18.003 53.1754C18.0475 53.1328 18.0795 53.0684 18.0992 52.982C18.1196 52.8956 18.1297 52.7873 18.1297 52.6571C18.1297 52.5294 18.1199 52.4227 18.1002 52.337C18.0805 52.2506 18.0487 52.1858 18.0049 52.1426C17.9611 52.0988 17.9026 52.0769 17.8296 52.0769C17.7566 52.0769 17.6981 52.0988 17.6543 52.1426C17.6105 52.1858 17.5787 52.2506 17.559 52.337C17.54 52.4227 17.5304 52.5294 17.5304 52.6571ZM19.4064 52.6571C19.4064 52.7702 19.3978 52.8712 19.3807 52.9601C19.3635 53.049 19.3365 53.1243 19.2997 53.1859C19.2628 53.2475 19.2152 53.2945 19.1568 53.3269C19.0983 53.3586 19.0282 53.3745 18.9462 53.3745C18.8427 53.3745 18.7569 53.3463 18.689 53.2897C18.6216 53.2332 18.5712 53.1516 18.5375 53.0449C18.5045 52.9375 18.4879 52.8083 18.4879 52.6571C18.4879 52.5085 18.5029 52.3808 18.5327 52.2741C18.5632 52.1668 18.6121 52.0845 18.6794 52.0273C18.7468 51.9695 18.8357 51.9406 18.9462 51.9406C19.051 51.9406 19.1374 51.9692 19.2054 52.0264C19.2733 52.0829 19.3238 52.1649 19.3569 52.2722C19.3899 52.3789 19.4064 52.5072 19.4064 52.6571ZM18.6471 52.6571C18.6471 52.7867 18.6569 52.8947 18.6766 52.981C18.6963 53.0674 18.728 53.1322 18.7719 53.1754C18.8163 53.218 18.8744 53.2392 18.9462 53.2392C19.018 53.2392 19.0758 53.218 19.1196 53.1754C19.1641 53.1328 19.1962 53.0684 19.2158 52.982C19.2362 52.8956 19.2463 52.7873 19.2463 52.6571C19.2463 52.5294 19.2365 52.4227 19.2168 52.337C19.1971 52.2506 19.1653 52.1858 19.1215 52.1426C19.0777 52.0988 19.0193 52.0769 18.9462 52.0769C18.8732 52.0769 18.8147 52.0988 18.7709 52.1426C18.7271 52.1858 18.6953 52.2506 18.6756 52.337C18.6566 52.4227 18.6471 52.5294 18.6471 52.6571Z" fill="#212121"/>
<path d="M16.8416 60.7461H16.6873V59.7591C16.6873 59.7216 16.6873 59.6895 16.6873 59.6628C16.6879 59.6355 16.6885 59.6107 16.6892 59.5885C16.6904 59.5656 16.692 59.5425 16.6939 59.519C16.6742 59.5393 16.6558 59.5568 16.6387 59.5714C16.6215 59.5853 16.6002 59.6028 16.5748 59.6238L16.4157 59.7514L16.3328 59.6438L16.7101 59.3532H16.8416V60.7461ZM18.2898 60.0477C18.2898 60.1608 18.2812 60.2618 18.2641 60.3507C18.2469 60.4396 18.2199 60.5149 18.1831 60.5765C18.1462 60.6381 18.0986 60.6851 18.0402 60.7175C17.9817 60.7493 17.9115 60.7651 17.8296 60.7651C17.7261 60.7651 17.6403 60.7369 17.5724 60.6804C17.505 60.6238 17.4545 60.5422 17.4209 60.4355C17.3878 60.3282 17.3713 60.1989 17.3713 60.0477C17.3713 59.8991 17.3863 59.7714 17.4161 59.6647C17.4466 59.5574 17.4955 59.4751 17.5628 59.418C17.6302 59.3602 17.7191 59.3313 17.8296 59.3313C17.9344 59.3313 18.0208 59.3599 18.0887 59.417C18.1567 59.4735 18.2072 59.5555 18.2402 59.6628C18.2733 59.7695 18.2898 59.8978 18.2898 60.0477ZM17.5304 60.0477C17.5304 60.1773 17.5403 60.2853 17.56 60.3717C17.5797 60.458 17.6114 60.5228 17.6552 60.566C17.6997 60.6086 17.7578 60.6299 17.8296 60.6299C17.9014 60.6299 17.9592 60.6086 18.003 60.566C18.0475 60.5235 18.0795 60.459 18.0992 60.3726C18.1196 60.2862 18.1297 60.1779 18.1297 60.0477C18.1297 59.9201 18.1199 59.8134 18.1002 59.7276C18.0805 59.6412 18.0487 59.5764 18.0049 59.5333C17.9611 59.4894 17.9026 59.4675 17.8296 59.4675C17.7566 59.4675 17.6981 59.4894 17.6543 59.5333C17.6105 59.5764 17.5787 59.6412 17.559 59.7276C17.54 59.8134 17.5304 59.9201 17.5304 60.0477ZM19.4064 60.0477C19.4064 60.1608 19.3978 60.2618 19.3807 60.3507C19.3635 60.4396 19.3365 60.5149 19.2997 60.5765C19.2628 60.6381 19.2152 60.6851 19.1568 60.7175C19.0983 60.7493 19.0282 60.7651 18.9462 60.7651C18.8427 60.7651 18.7569 60.7369 18.689 60.6804C18.6216 60.6238 18.5712 60.5422 18.5375 60.4355C18.5045 60.3282 18.4879 60.1989 18.4879 60.0477C18.4879 59.8991 18.5029 59.7714 18.5327 59.6647C18.5632 59.5574 18.6121 59.4751 18.6794 59.418C18.7468 59.3602 18.8357 59.3313 18.9462 59.3313C19.051 59.3313 19.1374 59.3599 19.2054 59.417C19.2733 59.4735 19.3238 59.5555 19.3569 59.6628C19.3899 59.7695 19.4064 59.8978 19.4064 60.0477ZM18.6471 60.0477C18.6471 60.1773 18.6569 60.2853 18.6766 60.3717C18.6963 60.458 18.728 60.5228 18.7719 60.566C18.8163 60.6086 18.8744 60.6299 18.9462 60.6299C19.018 60.6299 19.0758 60.6086 19.1196 60.566C19.1641 60.5235 19.1962 60.459 19.2158 60.3726C19.2362 60.2862 19.2463 60.1779 19.2463 60.0477C19.2463 59.9201 19.2365 59.8134 19.2168 59.7276C19.1971 59.6412 19.1653 59.5764 19.1215 59.5333C19.0777 59.4894 19.0193 59.4675 18.9462 59.4675C18.8732 59.4675 18.8147 59.4894 18.7709 59.5333C18.7271 59.5764 18.6953 59.6412 18.6756 59.7276C18.6566 59.8134 18.6471 59.9201 18.6471 60.0477Z" fill="#212121"/>
<path d="M19.4064 67.4345C19.4064 67.5475 19.3978 67.6485 19.3807 67.7374C19.3635 67.8263 19.3365 67.9016 19.2997 67.9632C19.2628 68.0248 19.2152 68.0718 19.1568 68.1042C19.0983 68.136 19.0282 68.1519 18.9462 68.1519C18.8427 68.1519 18.7569 68.1236 18.689 68.0671C18.6216 68.0105 18.5712 67.9289 18.5375 67.8222C18.5045 67.7149 18.4879 67.5856 18.4879 67.4345C18.4879 67.2858 18.5029 67.1582 18.5327 67.0514C18.5632 66.9441 18.6121 66.8619 18.6794 66.8047C18.7468 66.7469 18.8357 66.718 18.9462 66.718C19.051 66.718 19.1374 66.7466 19.2054 66.8037C19.2733 66.8603 19.3238 66.9422 19.3569 67.0495C19.3899 67.1562 19.4064 67.2846 19.4064 67.4345ZM18.6471 67.4345C18.6471 67.564 18.6569 67.672 18.6766 67.7584C18.6963 67.8448 18.728 67.9096 18.7719 67.9527C18.8163 67.9953 18.8744 68.0166 18.9462 68.0166C19.018 68.0166 19.0758 67.9953 19.1196 67.9527C19.1641 67.9102 19.1962 67.8457 19.2158 67.7593C19.2362 67.673 19.2463 67.5647 19.2463 67.4345C19.2463 67.3068 19.2365 67.2001 19.2168 67.1143C19.1971 67.0279 19.1653 66.9632 19.1215 66.92C19.0777 66.8761 19.0193 66.8542 18.9462 66.8542C18.8732 66.8542 18.8147 66.8761 18.7709 66.92C18.7271 66.9632 18.6953 67.0279 18.6756 67.1143C18.6566 67.2001 18.6471 67.3068 18.6471 67.4345Z" fill="#212121"/>
<path d="M30.8331 71.3594H30.6787V70.3723C30.6787 70.3349 30.6787 70.3028 30.6787 70.2761C30.6793 70.2488 30.68 70.224 30.6806 70.2018C30.6819 70.1789 30.6835 70.1557 30.6854 70.1322C30.6657 70.1526 30.6473 70.17 30.6301 70.1846C30.613 70.1986 30.5917 70.2161 30.5663 70.237L30.4072 70.3647L30.3243 70.2571L30.7016 69.9665H30.8331V71.3594Z" fill="#212121"/>
<path d="M23.1129 70.661C23.1129 70.7741 23.1043 70.8751 23.0871 70.964C23.07 71.0529 23.043 71.1282 23.0061 71.1898C22.9693 71.2514 22.9217 71.2984 22.8632 71.3308C22.8048 71.3626 22.7346 71.3784 22.6527 71.3784C22.5491 71.3784 22.4634 71.3502 22.3954 71.2936C22.3281 71.2371 22.2776 71.1555 22.244 71.0488C22.2109 70.9414 22.1944 70.8122 22.1944 70.661C22.1944 70.5124 22.2093 70.3847 22.2392 70.278C22.2697 70.1707 22.3186 70.0884 22.3859 70.0312C22.4532 69.9735 22.5422 69.9446 22.6527 69.9446C22.7575 69.9446 22.8439 69.9731 22.9118 70.0303C22.9798 70.0868 23.0303 70.1688 23.0633 70.2761C23.0963 70.3828 23.1129 70.5111 23.1129 70.661ZM22.3535 70.661C22.3535 70.7906 22.3634 70.8986 22.3831 70.9849C22.4027 71.0713 22.4345 71.1361 22.4783 71.1793C22.5228 71.2219 22.5809 71.2431 22.6527 71.2431C22.7245 71.2431 22.7823 71.2219 22.8261 71.1793C22.8705 71.1368 22.9026 71.0723 22.9223 70.9859C22.9426 70.8995 22.9528 70.7912 22.9528 70.661C22.9528 70.5333 22.9429 70.4266 22.9233 70.3409C22.9036 70.2545 22.8718 70.1897 22.828 70.1465C22.7842 70.1027 22.7257 70.0808 22.6527 70.0808C22.5796 70.0808 22.5212 70.1027 22.4774 70.1465C22.4335 70.1897 22.4018 70.2545 22.3821 70.3409C22.363 70.4266 22.3535 70.5333 22.3535 70.661Z" fill="#212121"/>
<path d="M39.2029 71.3594H38.2902V71.2269L38.6627 70.8487C38.7319 70.7788 38.79 70.7166 38.837 70.662C38.8847 70.6073 38.9209 70.5537 38.9456 70.501C38.9704 70.4476 38.9828 70.3892 38.9828 70.3256C38.9828 70.2469 38.9593 70.1869 38.9123 70.1456C38.8659 70.1037 38.8046 70.0827 38.7284 70.0827C38.6617 70.0827 38.6027 70.0941 38.5512 70.117C38.4998 70.1399 38.447 70.1723 38.3931 70.2142L38.3083 70.1075C38.3451 70.0763 38.3851 70.0487 38.4283 70.0246C38.4721 70.0004 38.5188 69.9814 38.5684 69.9674C38.6185 69.9534 38.6719 69.9465 38.7284 69.9465C38.8142 69.9465 38.8882 69.9614 38.9504 69.9912C39.0127 70.0211 39.0606 70.0636 39.0943 70.1189C39.1286 70.1742 39.1457 70.2399 39.1457 70.3161C39.1457 70.3898 39.1311 70.4584 39.1019 70.5219C39.0727 70.5848 39.0317 70.6474 38.979 70.7096C38.9263 70.7712 38.8647 70.8366 38.7942 70.9059L38.4912 71.2079V71.2146H39.2029V71.3594Z" fill="#212121"/>
<path d="M47.4434 70.2913C47.4434 70.3536 47.4314 70.4076 47.4072 70.4533C47.3831 70.499 47.3494 70.5365 47.3062 70.5657C47.263 70.5943 47.2122 70.6143 47.1538 70.6258V70.6334C47.2643 70.6474 47.3472 70.6829 47.4025 70.7401C47.4584 70.7973 47.4863 70.8722 47.4863 70.9649C47.4863 71.0456 47.4672 71.1171 47.4291 71.1793C47.3917 71.2416 47.3339 71.2905 47.2557 71.326C47.1783 71.361 47.0788 71.3784 46.9575 71.3784C46.8839 71.3784 46.8156 71.3724 46.7527 71.3603C46.6904 71.3489 46.6307 71.3295 46.5736 71.3022V71.1536C46.6314 71.1822 46.6943 71.2047 46.7622 71.2212C46.8302 71.2371 46.8959 71.245 46.9594 71.245C47.0865 71.245 47.1783 71.22 47.2348 71.1698C47.2913 71.119 47.3196 71.0497 47.3196 70.9621C47.3196 70.9017 47.3037 70.8532 47.2719 70.8163C47.2408 70.7788 47.1957 70.7515 47.1366 70.7344C47.0782 70.7166 47.0077 70.7077 46.9251 70.7077H46.786V70.5724H46.9261C47.0017 70.5724 47.0658 70.5613 47.1185 70.5391C47.1713 70.5168 47.2113 70.4857 47.2386 70.4457C47.2665 70.405 47.2805 70.3571 47.2805 70.3018C47.2805 70.2313 47.257 70.177 47.21 70.1389C47.163 70.1002 47.0992 70.0808 47.0185 70.0808C46.969 70.0808 46.9239 70.0859 46.8832 70.096C46.8426 70.1062 46.8045 70.1202 46.7689 70.138C46.7333 70.1557 46.6977 70.1764 46.6622 70.1999L46.5822 70.0913C46.633 70.0519 46.6949 70.0179 46.7679 69.9893C46.841 69.9607 46.9239 69.9465 47.0166 69.9465C47.1589 69.9465 47.2656 69.9788 47.3367 70.0436C47.4079 70.1084 47.4434 70.191 47.4434 70.2913Z" fill="#212121"/>
<path d="M55.6162 71.0364H55.4075V71.3594H55.2532V71.0364H54.5796V70.903L55.2427 69.9588H55.4075V70.8935H55.6162V71.0364ZM55.2532 70.8935V70.4381C55.2532 70.4031 55.2535 70.3717 55.2541 70.3437C55.2548 70.3152 55.2557 70.2888 55.257 70.2647C55.2583 70.2399 55.2592 70.2164 55.2599 70.1942C55.2611 70.1719 55.2621 70.15 55.2627 70.1284H55.2551C55.243 70.1538 55.2291 70.1808 55.2132 70.2094C55.1979 70.2374 55.1824 70.2624 55.1665 70.2847L54.7368 70.8935H55.2532Z" fill="#212121"/>
<path d="M63.12 70.5076C63.2146 70.5076 63.2969 70.5238 63.3667 70.5562C63.4366 70.588 63.4906 70.6343 63.5287 70.6953C63.5674 70.7563 63.5868 70.8303 63.5868 70.9173C63.5868 71.0126 63.5662 71.0948 63.5249 71.1641C63.4836 71.2327 63.4242 71.2857 63.3467 71.3232C63.2692 71.36 63.1765 71.3784 63.0685 71.3784C62.9961 71.3784 62.9288 71.3721 62.8665 71.3594C62.8043 71.3467 62.7519 71.3276 62.7093 71.3022V71.1517C62.7557 71.1796 62.8119 71.2019 62.878 71.2184C62.944 71.2349 63.0082 71.2431 63.0704 71.2431C63.1409 71.2431 63.2025 71.232 63.2553 71.2098C63.3086 71.1869 63.3499 71.1526 63.3791 71.1069C63.409 71.0605 63.4239 71.0024 63.4239 70.9325C63.4239 70.8398 63.3953 70.7684 63.3382 70.7182C63.2816 70.6674 63.1921 70.642 63.0695 70.642C63.0301 70.642 62.9869 70.6451 62.9399 70.6515C62.8929 70.6578 62.8542 70.6648 62.8237 70.6724L62.7436 70.62L62.797 69.9665H63.4896V70.1113H62.9323L62.897 70.5314C62.9212 70.5264 62.9523 70.5213 62.9904 70.5162C63.0285 70.5105 63.0717 70.5076 63.12 70.5076Z" fill="#212121"/>
<path d="M70.7449 70.7639C70.7449 70.6801 70.7506 70.5981 70.762 70.5181C70.7741 70.4381 70.7941 70.3638 70.8221 70.2952C70.85 70.2259 70.8881 70.1653 70.9364 70.1132C70.9847 70.0611 71.0447 70.0205 71.1164 69.9912C71.1889 69.9614 71.2756 69.9465 71.3765 69.9465C71.4051 69.9465 71.4359 69.948 71.469 69.9512C71.502 69.9538 71.5293 69.9582 71.5509 69.9646V70.1008C71.5274 70.0925 71.5004 70.0865 71.4699 70.0827C71.4401 70.0789 71.4099 70.077 71.3794 70.077C71.2613 70.077 71.1682 70.1027 71.1003 70.1542C71.0329 70.2056 70.9843 70.2755 70.9545 70.3638C70.9246 70.4514 70.9075 70.5502 70.903 70.6601H70.9135C70.9332 70.6283 70.9583 70.5997 70.9888 70.5743C71.0193 70.5483 71.0561 70.5276 71.0993 70.5124C71.1431 70.4971 71.1939 70.4895 71.2517 70.4895C71.333 70.4895 71.4039 70.506 71.4642 70.5391C71.5252 70.5721 71.5722 70.62 71.6052 70.6829C71.6389 70.7458 71.6557 70.822 71.6557 70.9116C71.6557 71.0075 71.6379 71.0904 71.6023 71.1603C71.5668 71.2301 71.516 71.2841 71.4499 71.3222C71.3845 71.3597 71.3064 71.3784 71.2155 71.3784C71.1476 71.3784 71.085 71.3654 71.0278 71.3394C70.9707 71.3133 70.9208 71.2746 70.8783 71.2231C70.8363 71.1717 70.8036 71.1079 70.7801 71.0316C70.7566 70.9548 70.7449 70.8655 70.7449 70.7639ZM71.2136 71.245C71.3 71.245 71.3692 71.2174 71.4213 71.1622C71.4734 71.1069 71.4995 71.0234 71.4995 70.9116C71.4995 70.8201 71.4763 70.7477 71.4299 70.6944C71.3835 70.641 71.3137 70.6143 71.2203 70.6143C71.1568 70.6143 71.1015 70.6277 71.0545 70.6543C71.0075 70.6804 70.971 70.7134 70.945 70.7534C70.9189 70.7934 70.9059 70.8341 70.9059 70.8754C70.9059 70.9173 70.9119 70.9599 70.924 71.003C70.9367 71.0462 70.9558 71.0863 70.9812 71.1231C71.0066 71.1599 71.0386 71.1895 71.0774 71.2117C71.1161 71.2339 71.1615 71.245 71.2136 71.245Z" fill="#212121"/>
<path d="M78.7163 71.3594L79.288 70.1113H78.5286V69.9665H79.4576V70.0884L78.8897 71.3594H78.7163Z" fill="#212121"/>
<path d="M21.8234 68.8661C21.8234 68.9335 21.878 68.9881 21.9453 68.9881C22.0127 68.9881 22.0673 68.9335 22.0673 68.8661H21.8234ZM21.9453 21.793H21.8234V68.8661H21.9453H22.0673V21.793H21.9453Z" fill="#D4D4D4"/>
<path d="M21.9453 68.8672H78.2868" stroke="#D4D4D4" stroke-width="0.243902"/>
<path d="M38.0423 47.4048C38.4464 47.4048 38.774 47.0772 38.774 46.6731C38.774 46.269 38.4464 45.9414 38.0423 45.9414C37.6381 45.9414 37.3105 46.269 37.3105 46.6731C37.3105 47.0772 37.6381 47.4048 38.0423 47.4048Z" fill="#FF9500"/>
<path d="M46.094 33.9908C46.4981 33.9908 46.8257 33.6632 46.8257 33.2591C46.8257 32.8549 46.4981 32.5273 46.094 32.5273C45.6899 32.5273 45.3623 32.8549 45.3623 33.2591C45.3623 33.6632 45.6899 33.9908 46.094 33.9908Z" fill="#FF9500"/>
<path d="M54.1399 41.3033C54.544 41.3033 54.8716 40.9757 54.8716 40.5716C54.8716 40.1674 54.544 39.8398 54.1399 39.8398C53.7358 39.8398 53.4082 40.1674 53.4082 40.5716C53.4082 40.9757 53.7358 41.3033 54.1399 41.3033Z" fill="#FF9500"/>
<path d="M62.1907 57.4087C62.5948 57.4087 62.9224 57.0811 62.9224 56.677C62.9224 56.2729 62.5948 55.9453 62.1907 55.9453C61.7866 55.9453 61.459 56.2729 61.459 56.677C61.459 57.0811 61.7866 57.4087 62.1907 57.4087Z" fill="#FF9500"/>
<path d="M38.0449 45.8252C38.651 45.8253 39.1426 46.3168 39.1426 46.9229C39.1425 47.5288 38.6509 48.0204 38.0449 48.0205C37.4388 48.0205 36.9474 47.5289 36.9473 46.9229C36.9473 46.3167 37.4388 45.8252 38.0449 45.8252Z" fill="white" stroke="#FF9500" stroke-width="0.243902"/>
<path d="M38.0432 47.6587C38.4473 47.6587 38.7749 47.3311 38.7749 46.927C38.7749 46.5229 38.4473 46.1953 38.0432 46.1953C37.6391 46.1953 37.3115 46.5229 37.3115 46.927C37.3115 47.3311 37.6391 47.6587 38.0432 47.6587Z" fill="#FF9500"/>
<path d="M46.0908 32.165C46.6969 32.1652 47.1885 32.6566 47.1885 33.2627C47.1884 33.8687 46.6968 34.3602 46.0908 34.3604C45.4847 34.3604 44.9933 33.8688 44.9932 33.2627C44.9932 32.6565 45.4847 32.165 46.0908 32.165Z" fill="white" stroke="#FF9500" stroke-width="0.243902"/>
<path d="M46.0891 33.9986C46.4932 33.9986 46.8208 33.671 46.8208 33.2669C46.8208 32.8628 46.4932 32.5352 46.0891 32.5352C45.685 32.5352 45.3574 32.8628 45.3574 33.2669C45.3574 33.671 45.685 33.9986 46.0891 33.9986Z" fill="#FF9500"/>
<path d="M54.1416 39.4697C54.7477 39.4698 55.2393 39.9613 55.2393 40.5674C55.2391 41.1734 54.7476 41.6649 54.1416 41.665C53.5355 41.665 53.0441 41.1735 53.0439 40.5674C53.0439 39.9612 53.5354 39.4697 54.1416 39.4697Z" fill="white" stroke="#FF9500" stroke-width="0.243902"/>
<path d="M54.1399 41.3033C54.544 41.3033 54.8716 40.9757 54.8716 40.5716C54.8716 40.1674 54.544 39.8398 54.1399 39.8398C53.7358 39.8398 53.4082 40.1674 53.4082 40.5716C53.4082 40.9757 53.7358 41.3033 54.1399 41.3033Z" fill="#FF9500"/>
<path d="M62.1875 55.5752C62.7936 55.5753 63.2852 56.0668 63.2852 56.6729C63.285 57.2788 62.7935 57.7704 62.1875 57.7705C61.5814 57.7705 61.09 57.2789 61.0898 56.6729C61.0898 56.0667 61.5813 55.5752 62.1875 55.5752Z" fill="white" stroke="#FF9500" stroke-width="0.243902"/>
<path d="M62.1858 57.4087C62.5899 57.4087 62.9175 57.0811 62.9175 56.677C62.9175 56.2729 62.5899 55.9453 62.1858 55.9453C61.7817 55.9453 61.4541 56.2729 61.4541 56.677C61.4541 57.0811 61.7817 57.4087 62.1858 57.4087Z" fill="#FF9500"/>
<path d="M70.2393 37.5283C70.8453 37.5284 71.3369 38.0199 71.3369 38.626C71.3368 39.232 70.8453 39.7235 70.2393 39.7236C69.6332 39.7236 69.1417 39.232 69.1416 38.626C69.1416 38.0198 69.6331 37.5283 70.2393 37.5283Z" fill="white" stroke="#FF9500" stroke-width="0.243902"/>
<path d="M70.2376 39.3619C70.6417 39.3619 70.9693 39.0343 70.9693 38.6301C70.9693 38.226 70.6417 37.8984 70.2376 37.8984C69.8335 37.8984 69.5059 38.226 69.5059 38.6301C69.5059 39.0343 69.8335 39.3619 70.2376 39.3619Z" fill="#FF9500"/>
<path d="M78.2852 27.0439C78.8912 27.0441 79.3828 27.5355 79.3828 28.1416C79.3827 28.7476 78.8912 29.2391 78.2852 29.2393C77.6791 29.2393 77.1876 28.7477 77.1875 28.1416C77.1875 27.5354 77.679 27.0439 78.2852 27.0439Z" fill="white" stroke="#FF9500" stroke-width="0.243902"/>
<path d="M78.2835 28.8775C78.6876 28.8775 79.0152 28.5499 79.0152 28.1458C79.0152 27.7417 78.6876 27.4141 78.2835 27.4141C77.8794 27.4141 77.5518 27.7417 77.5518 28.1458C77.5518 28.5499 77.8794 28.8775 78.2835 28.8775Z" fill="#FF9500"/>
<path d="M78.2852 27.0439C78.8912 27.0441 79.3828 27.5355 79.3828 28.1416C79.3827 28.7476 78.8912 29.2391 78.2852 29.2393C77.6791 29.2393 77.1876 28.7477 77.1875 28.1416C77.1875 27.5354 77.679 27.0439 78.2852 27.0439Z" fill="white" stroke="#FF9500" stroke-width="0.243902"/>
<path d="M78.2835 28.8775C78.6876 28.8775 79.0152 28.5499 79.0152 28.1458C79.0152 27.7417 78.6876 27.4141 78.2835 27.4141C77.8794 27.4141 77.5518 27.7417 77.5518 28.1458C77.5518 28.5499 77.8794 28.8775 78.2835 28.8775Z" fill="#FF9500"/>
<rect x="26.213" y="31.9132" width="7.68293" height="3.65854" rx="1.82927" fill="white"/>
<rect x="26.213" y="31.9132" width="7.68293" height="3.65854" rx="1.82927" stroke="#D6D6D6" stroke-width="0.243902"/>
<path d="M28.2397 34.2422H28.0854V33.2551C28.0854 33.2177 28.0854 33.1856 28.0854 33.1589C28.086 33.1316 28.0866 33.1068 28.0873 33.0846C28.0885 33.0617 28.0901 33.0386 28.092 33.0151C28.0723 33.0354 28.0539 33.0528 28.0368 33.0675C28.0196 33.0814 27.9983 33.0989 27.9729 33.1199L27.8138 33.2475L27.7309 33.1399L28.1082 32.8493H28.2397V34.2422ZM29.2077 33.3904C29.3023 33.3904 29.3846 33.4066 29.4545 33.439C29.5243 33.4708 29.5783 33.5171 29.6164 33.5781C29.6552 33.6391 29.6745 33.7131 29.6745 33.8001C29.6745 33.8954 29.6539 33.9776 29.6126 34.0469C29.5713 34.1155 29.5119 34.1685 29.4345 34.206C29.357 34.2428 29.2642 34.2612 29.1563 34.2612C29.0838 34.2612 29.0165 34.2549 28.9543 34.2422C28.892 34.2295 28.8396 34.2104 28.7971 34.185V34.0345C28.8434 34.0624 28.8996 34.0847 28.9657 34.1012C29.0318 34.1177 29.0959 34.126 29.1582 34.126C29.2287 34.126 29.2903 34.1148 29.343 34.0926C29.3963 34.0697 29.4376 34.0354 29.4668 33.9897C29.4967 33.9433 29.5116 33.8852 29.5116 33.8154C29.5116 33.7226 29.483 33.6512 29.4259 33.601C29.3693 33.5502 29.2798 33.5248 29.1572 33.5248C29.1178 33.5248 29.0746 33.5279 29.0276 33.5343C28.9806 33.5407 28.9419 33.5476 28.9114 33.5553L28.8314 33.5029L28.8847 32.8493H29.5774V32.9941H29.02L28.9848 33.4143C29.0089 33.4092 29.04 33.4041 29.0781 33.399C29.1162 33.3933 29.1594 33.3904 29.2077 33.3904ZM30.3443 32.8293C30.425 32.8293 30.4964 32.842 30.5587 32.8674C30.6209 32.8928 30.6695 32.9303 30.7045 32.9798C30.74 33.0287 30.7578 33.089 30.7578 33.1608C30.7578 33.2174 30.7454 33.2669 30.7207 33.3095C30.6965 33.3514 30.6638 33.3882 30.6225 33.42C30.5812 33.4511 30.5355 33.479 30.4853 33.5038C30.545 33.5311 30.5987 33.5619 30.6463 33.5962C30.6946 33.6305 30.7327 33.6709 30.7607 33.7172C30.7886 33.7636 30.8026 33.8185 30.8026 33.8821C30.8026 33.9602 30.7835 34.0278 30.7454 34.085C30.708 34.1415 30.6552 34.185 30.5873 34.2155C30.5193 34.246 30.4396 34.2612 30.3481 34.2612C30.2497 34.2612 30.1658 34.2466 30.0966 34.2174C30.028 34.1876 29.9756 34.145 29.9394 34.0897C29.9038 34.0339 29.8861 33.9668 29.8861 33.8887C29.8861 33.8246 29.8997 33.769 29.927 33.722C29.9543 33.6744 29.9905 33.6334 30.0356 33.5991C30.0807 33.5648 30.13 33.5359 30.1833 33.5124C30.1369 33.487 30.0944 33.4581 30.0556 33.4257C30.0175 33.3933 29.987 33.3555 29.9642 33.3123C29.9419 33.2685 29.9308 33.2177 29.9308 33.1599C29.9308 33.0894 29.9486 33.0297 29.9842 32.9808C30.0204 32.9312 30.0696 32.8937 30.1319 32.8683C30.1947 32.8423 30.2656 32.8293 30.3443 32.8293ZM30.0413 33.8897C30.0413 33.9608 30.0664 34.0196 30.1166 34.0659C30.1668 34.1117 30.2427 34.1345 30.3443 34.1345C30.4409 34.1345 30.5155 34.1117 30.5682 34.0659C30.6209 34.0196 30.6473 33.9589 30.6473 33.884C30.6473 33.8376 30.6352 33.7969 30.6111 33.762C30.587 33.7264 30.5527 33.6947 30.5082 33.6667C30.4637 33.6388 30.4113 33.6134 30.351 33.5905L30.3167 33.5781C30.2583 33.6023 30.2084 33.6293 30.1671 33.6591C30.1265 33.6883 30.0953 33.7217 30.0737 33.7591C30.0521 33.7966 30.0413 33.8401 30.0413 33.8897ZM30.3424 32.9588C30.2675 32.9588 30.2062 32.9769 30.1585 33.0131C30.1109 33.0487 30.0871 33.1002 30.0871 33.1675C30.0871 33.2158 30.0985 33.2567 30.1214 33.2904C30.1449 33.3234 30.1766 33.352 30.2167 33.3761C30.2567 33.3996 30.3014 33.4216 30.351 33.4419C30.3993 33.4216 30.4421 33.3993 30.4796 33.3752C30.5171 33.3504 30.5466 33.3212 30.5682 33.2875C30.5898 33.2539 30.6006 33.2135 30.6006 33.1665C30.6006 33.0992 30.5768 33.0478 30.5292 33.0122C30.4822 32.9766 30.4199 32.9588 30.3424 32.9588ZM31.9211 33.5438C31.9211 33.6569 31.9125 33.7579 31.8954 33.8468C31.8782 33.9357 31.8512 34.011 31.8144 34.0726C31.7776 34.1342 31.7299 34.1812 31.6715 34.2136C31.6131 34.2454 31.5429 34.2612 31.4609 34.2612C31.3574 34.2612 31.2717 34.233 31.2037 34.1764C31.1364 34.1199 31.0859 34.0383 31.0522 33.9316C31.0192 33.8243 31.0027 33.695 31.0027 33.5438C31.0027 33.3952 31.0176 33.2675 31.0474 33.1608C31.0779 33.0535 31.1268 32.9712 31.1942 32.9141C31.2615 32.8563 31.3504 32.8274 31.4609 32.8274C31.5657 32.8274 31.6521 32.8559 31.7201 32.9131C31.788 32.9696 31.8385 33.0516 31.8716 33.1589C31.9046 33.2656 31.9211 33.3939 31.9211 33.5438ZM31.1618 33.5438C31.1618 33.6734 31.1716 33.7814 31.1913 33.8678C31.211 33.9541 31.2428 34.0189 31.2866 34.0621C31.331 34.1047 31.3892 34.126 31.4609 34.126C31.5327 34.126 31.5905 34.1047 31.6343 34.0621C31.6788 34.0196 31.7109 33.9551 31.7306 33.8687C31.7509 33.7823 31.7611 33.674 31.7611 33.5438C31.7611 33.4162 31.7512 33.3095 31.7315 33.2237C31.7118 33.1373 31.6801 33.0725 31.6362 33.0293C31.5924 32.9855 31.534 32.9636 31.4609 32.9636C31.3879 32.9636 31.3295 32.9855 31.2856 33.0293C31.2418 33.0725 31.21 33.1373 31.1904 33.2237C31.1713 33.3095 31.1618 33.4162 31.1618 33.5438Z" fill="#212121"/>
<rect x="34.2638" y="41.1827" width="7.68293" height="3.65854" rx="1.82927" fill="white"/>
<rect x="34.2638" y="41.1827" width="7.68293" height="3.65854" rx="1.82927" stroke="#D6D6D6" stroke-width="0.243902"/>
<path d="M36.2905 43.5117H36.1361V42.5247C36.1361 42.4872 36.1361 42.4551 36.1361 42.4284C36.1368 42.4011 36.1374 42.3764 36.1381 42.3541C36.1393 42.3313 36.1409 42.3081 36.1428 42.2846C36.1231 42.3049 36.1047 42.3224 36.0876 42.337C36.0704 42.351 36.0491 42.3684 36.0237 42.3894L35.8646 42.5171L35.7817 42.4094L36.159 42.1188H36.2905V43.5117ZM36.8326 42.9163C36.8326 42.8324 36.8383 42.7505 36.8498 42.6704C36.8618 42.5904 36.8818 42.5161 36.9098 42.4475C36.9377 42.3783 36.9758 42.3176 37.0241 42.2655C37.0724 42.2134 37.1324 42.1728 37.2042 42.1436C37.2766 42.1137 37.3633 42.0988 37.4643 42.0988C37.4929 42.0988 37.5237 42.1004 37.5567 42.1036C37.5897 42.1061 37.617 42.1106 37.6386 42.1169V42.2531C37.6151 42.2449 37.5881 42.2389 37.5576 42.235C37.5278 42.2312 37.4976 42.2293 37.4671 42.2293C37.349 42.2293 37.2559 42.255 37.188 42.3065C37.1206 42.3579 37.0721 42.4278 37.0422 42.5161C37.0124 42.6038 36.9952 42.7025 36.9908 42.8124H37.0012C37.0209 42.7806 37.046 42.7521 37.0765 42.7267C37.107 42.7006 37.1438 42.68 37.187 42.6647C37.2308 42.6495 37.2817 42.6419 37.3395 42.6419C37.4208 42.6419 37.4916 42.6584 37.5519 42.6914C37.6129 42.7244 37.6599 42.7724 37.6929 42.8353C37.7266 42.8982 37.7434 42.9744 37.7434 43.0639C37.7434 43.1598 37.7256 43.2427 37.6901 43.3126C37.6545 43.3825 37.6037 43.4365 37.5376 43.4746C37.4722 43.512 37.3941 43.5308 37.3033 43.5308C37.2353 43.5308 37.1727 43.5178 37.1156 43.4917C37.0584 43.4657 37.0085 43.4269 36.966 43.3755C36.9241 43.324 36.8914 43.2602 36.8679 43.184C36.8444 43.1071 36.8326 43.0179 36.8326 42.9163ZM37.3014 43.3974C37.3877 43.3974 37.457 43.3698 37.5091 43.3145C37.5611 43.2592 37.5872 43.1757 37.5872 43.0639C37.5872 42.9725 37.564 42.9001 37.5176 42.8467C37.4713 42.7933 37.4014 42.7667 37.308 42.7667C37.2445 42.7667 37.1892 42.78 37.1422 42.8067C37.0952 42.8327 37.0587 42.8658 37.0327 42.9058C37.0066 42.9458 36.9936 42.9864 36.9936 43.0277C36.9936 43.0696 36.9997 43.1122 37.0117 43.1554C37.0244 43.1986 37.0435 43.2386 37.0689 43.2754C37.0943 43.3123 37.1264 43.3418 37.1651 43.364C37.2039 43.3863 37.2493 43.3974 37.3014 43.3974ZM38.8496 42.7124C38.8496 42.7968 38.8435 42.8791 38.8315 42.9591C38.82 43.0392 38.8 43.1138 38.7714 43.183C38.7435 43.2523 38.7054 43.3129 38.6571 43.365C38.6088 43.4171 38.5482 43.458 38.4751 43.4879C38.4027 43.5171 38.316 43.5317 38.215 43.5317C38.1877 43.5317 38.1566 43.5298 38.1217 43.526C38.0867 43.5228 38.0581 43.5181 38.0359 43.5117V43.3745C38.0594 43.3828 38.087 43.3894 38.1188 43.3945C38.1506 43.399 38.1817 43.4012 38.2122 43.4012C38.331 43.4012 38.4243 43.3758 38.4923 43.325C38.5602 43.2735 38.6092 43.204 38.639 43.1163C38.6689 43.028 38.6857 42.929 38.6895 42.8191H38.6781C38.659 42.8496 38.6339 42.8778 38.6028 42.9039C38.5723 42.9293 38.5352 42.9499 38.4913 42.9658C38.4475 42.981 38.3964 42.9887 38.3379 42.9887C38.2573 42.9887 38.1868 42.9721 38.1264 42.9391C38.0667 42.9061 38.02 42.8581 37.9864 42.7953C37.9533 42.7324 37.9368 42.6565 37.9368 42.5675C37.9368 42.4716 37.9549 42.3888 37.9911 42.3189C38.028 42.2484 38.0794 42.1941 38.1455 42.156C38.2115 42.1179 38.2893 42.0988 38.3789 42.0988C38.4475 42.0988 38.5104 42.1118 38.5675 42.1379C38.6247 42.1639 38.6743 42.203 38.7162 42.255C38.7587 42.3065 38.7914 42.3703 38.8143 42.4466C38.8378 42.5228 38.8496 42.6114 38.8496 42.7124ZM38.3789 42.2331C38.2944 42.2331 38.2258 42.2608 38.1731 42.316C38.121 42.3713 38.095 42.4545 38.095 42.5656C38.095 42.6577 38.1175 42.7305 38.1626 42.7838C38.2077 42.8372 38.2773 42.8639 38.3713 42.8639C38.4361 42.8639 38.492 42.8508 38.539 42.8248C38.5866 42.7987 38.6231 42.7657 38.6485 42.7257C38.6746 42.6857 38.6876 42.6447 38.6876 42.6028C38.6876 42.5609 38.6812 42.5183 38.6685 42.4751C38.6565 42.4319 38.6377 42.3922 38.6123 42.356C38.5869 42.3192 38.5548 42.2897 38.5161 42.2674C38.4774 42.2446 38.4316 42.2331 38.3789 42.2331ZM39.5117 42.0988C39.5924 42.0988 39.6638 42.1115 39.7261 42.1369C39.7883 42.1623 39.8369 42.1998 39.8719 42.2493C39.9074 42.2982 39.9252 42.3586 39.9252 42.4304C39.9252 42.4869 39.9128 42.5364 39.8881 42.579C39.8639 42.6209 39.8312 42.6577 39.7899 42.6895C39.7486 42.7206 39.7029 42.7486 39.6527 42.7733C39.7124 42.8007 39.7661 42.8315 39.8137 42.8658C39.862 42.9001 39.9001 42.9404 39.9281 42.9868C39.956 43.0331 39.97 43.0881 39.97 43.1516C39.97 43.2297 39.9509 43.2974 39.9128 43.3545C39.8753 43.411 39.8226 43.4546 39.7547 43.485C39.6867 43.5155 39.607 43.5308 39.5155 43.5308C39.4171 43.5308 39.3332 43.5162 39.264 43.4869C39.1954 43.4571 39.143 43.4145 39.1068 43.3593C39.0712 43.3034 39.0534 43.2364 39.0534 43.1583C39.0534 43.0941 39.0671 43.0385 39.0944 42.9915C39.1217 42.9439 39.1579 42.9029 39.203 42.8686C39.2481 42.8343 39.2974 42.8054 39.3507 42.7819C39.3043 42.7565 39.2618 42.7276 39.223 42.6952C39.1849 42.6628 39.1544 42.625 39.1316 42.5818C39.1093 42.538 39.0982 42.4872 39.0982 42.4294C39.0982 42.3589 39.116 42.2992 39.1516 42.2503C39.1878 42.2007 39.237 42.1633 39.2993 42.1379C39.3621 42.1118 39.433 42.0988 39.5117 42.0988ZM39.2087 43.1592C39.2087 43.2303 39.2338 43.2891 39.284 43.3355C39.3342 43.3812 39.4101 43.4041 39.5117 43.4041C39.6083 43.4041 39.6829 43.3812 39.7356 43.3355C39.7883 43.2891 39.8147 43.2284 39.8147 43.1535C39.8147 43.1071 39.8026 43.0665 39.7785 43.0315C39.7544 42.996 39.7201 42.9642 39.6756 42.9363C39.6311 42.9083 39.5787 42.8829 39.5184 42.86L39.4841 42.8477C39.4257 42.8718 39.3758 42.8988 39.3345 42.9286C39.2939 42.9579 39.2627 42.9912 39.2411 43.0287C39.2195 43.0662 39.2087 43.1097 39.2087 43.1592ZM39.5098 42.2284C39.4349 42.2284 39.3736 42.2465 39.3259 42.2827C39.2783 42.3182 39.2545 42.3697 39.2545 42.437C39.2545 42.4853 39.2659 42.5263 39.2888 42.5599C39.3123 42.593 39.344 42.6215 39.3841 42.6457C39.4241 42.6692 39.4688 42.6911 39.5184 42.7114C39.5667 42.6911 39.6095 42.6689 39.647 42.6447C39.6845 42.62 39.714 42.5907 39.7356 42.5571C39.7572 42.5234 39.768 42.4831 39.768 42.4361C39.768 42.3687 39.7442 42.3173 39.6966 42.2817C39.6495 42.2462 39.5873 42.2284 39.5098 42.2284Z" fill="#212121"/>
<rect x="50.3614" y="34.8429" width="7.68293" height="3.65854" rx="1.82927" fill="white"/>
<rect x="50.3614" y="34.8429" width="7.68293" height="3.65854" rx="1.82927" stroke="#D6D6D6" stroke-width="0.243902"/>
<path d="M52.3881 37.1719H52.2338V36.1848C52.2338 36.1474 52.2338 36.1153 52.2338 36.0886C52.2344 36.0613 52.2351 36.0365 52.2357 36.0143C52.237 35.9914 52.2386 35.9682 52.2405 35.9447C52.2208 35.9651 52.2024 35.9825 52.1852 35.9971C52.1681 36.0111 52.1468 36.0286 52.1214 36.0495L51.9623 36.1772L51.8794 36.0696L52.2567 35.779H52.3881V37.1719ZM53.7772 36.1038C53.7772 36.1661 53.7652 36.2201 53.741 36.2658C53.7169 36.3115 53.6832 36.349 53.6401 36.3782C53.5969 36.4068 53.546 36.4268 53.4876 36.4383V36.4459C53.5981 36.4599 53.681 36.4954 53.7363 36.5526C53.7922 36.6098 53.8201 36.6847 53.8201 36.7774C53.8201 36.8581 53.8011 36.9296 53.763 36.9918C53.7255 37.0541 53.6677 37.103 53.5896 37.1385C53.5121 37.1735 53.4127 37.1909 53.2913 37.1909C53.2177 37.1909 53.1494 37.1849 53.0865 37.1728C53.0243 37.1614 52.9646 37.142 52.9074 37.1147V36.9661C52.9652 36.9947 53.0281 37.0172 53.096 37.0337C53.164 37.0496 53.2297 37.0575 53.2933 37.0575C53.4203 37.0575 53.5121 37.0325 53.5686 36.9823C53.6251 36.9315 53.6534 36.8622 53.6534 36.7746C53.6534 36.7142 53.6375 36.6657 53.6058 36.6288C53.5746 36.5913 53.5295 36.564 53.4705 36.5469C53.412 36.5291 53.3415 36.5202 53.259 36.5202H53.1199V36.3849H53.2599C53.3355 36.3849 53.3996 36.3738 53.4524 36.3516C53.5051 36.3293 53.5451 36.2982 53.5724 36.2582C53.6004 36.2175 53.6143 36.1696 53.6143 36.1143C53.6143 36.0438 53.5908 35.9895 53.5438 35.9514C53.4968 35.9127 53.433 35.8933 53.3523 35.8933C53.3028 35.8933 53.2577 35.8984 53.217 35.9085C53.1764 35.9187 53.1383 35.9327 53.1027 35.9505C53.0671 35.9682 53.0316 35.9889 52.996 36.0124L52.916 35.9038C52.9668 35.8644 53.0287 35.8304 53.1018 35.8018C53.1748 35.7732 53.2577 35.759 53.3504 35.759C53.4927 35.759 53.5994 35.7913 53.6705 35.8561C53.7417 35.9209 53.7772 36.0035 53.7772 36.1038ZM54.0469 36.5764C54.0469 36.4926 54.0526 36.4106 54.064 36.3306C54.0761 36.2506 54.0961 36.1763 54.124 36.1077C54.152 36.0384 54.1901 35.9778 54.2384 35.9257C54.2866 35.8736 54.3467 35.833 54.4184 35.8037C54.4909 35.7739 54.5776 35.759 54.6785 35.759C54.7071 35.759 54.7379 35.7605 54.771 35.7637C54.804 35.7663 54.8313 35.7707 54.8529 35.7771V35.9133C54.8294 35.905 54.8024 35.899 54.7719 35.8952C54.7421 35.8914 54.7119 35.8895 54.6814 35.8895C54.5633 35.8895 54.4702 35.9152 54.4022 35.9667C54.3349 36.0181 54.2863 36.088 54.2565 36.1763C54.2266 36.2639 54.2095 36.3627 54.205 36.4726H54.2155C54.2352 36.4408 54.2603 36.4122 54.2908 36.3868C54.3213 36.3608 54.3581 36.3401 54.4013 36.3249C54.4451 36.3096 54.4959 36.302 54.5537 36.302C54.635 36.302 54.7059 36.3185 54.7662 36.3516C54.8272 36.3846 54.8742 36.4325 54.9072 36.4954C54.9409 36.5583 54.9577 36.6345 54.9577 36.7241C54.9577 36.82 54.9399 36.9029 54.9043 36.9728C54.8688 37.0426 54.818 37.0966 54.7519 37.1347C54.6865 37.1722 54.6084 37.1909 54.5175 37.1909C54.4496 37.1909 54.387 37.1779 54.3298 37.1519C54.2727 37.1258 54.2228 37.0871 54.1803 37.0356C54.1383 36.9842 54.1056 36.9204 54.0821 36.8441C54.0586 36.7673 54.0469 36.678 54.0469 36.5764ZM54.5156 37.0575C54.602 37.0575 54.6712 37.0299 54.7233 36.9747C54.7754 36.9194 54.8014 36.8359 54.8014 36.7241C54.8014 36.6326 54.7783 36.5602 54.7319 36.5069C54.6855 36.4535 54.6157 36.4268 54.5223 36.4268C54.4588 36.4268 54.4035 36.4402 54.3565 36.4668C54.3095 36.4929 54.273 36.5259 54.247 36.5659C54.2209 36.6059 54.2079 36.6466 54.2079 36.6879C54.2079 36.7298 54.2139 36.7724 54.226 36.8155C54.2387 36.8587 54.2577 36.8988 54.2832 36.9356C54.3086 36.9724 54.3406 37.002 54.3794 37.0242C54.4181 37.0464 54.4635 37.0575 54.5156 37.0575ZM56.0619 37.1719H55.1492V37.0394L55.5217 36.6612C55.591 36.5913 55.6491 36.5291 55.6961 36.4745C55.7437 36.4198 55.7799 36.3662 55.8047 36.3135C55.8295 36.2601 55.8418 36.2017 55.8418 36.1381C55.8418 36.0594 55.8183 35.9994 55.7713 35.9581C55.725 35.9162 55.6637 35.8952 55.5875 35.8952C55.5208 35.8952 55.4617 35.9066 55.4103 35.9295C55.3588 35.9524 55.3061 35.9848 55.2521 36.0267L55.1673 35.92C55.2041 35.8888 55.2442 35.8612 55.2873 35.8371C55.3312 35.8129 55.3779 35.7939 55.4274 35.7799C55.4776 35.7659 55.5309 35.759 55.5875 35.759C55.6732 35.759 55.7472 35.7739 55.8095 35.8037C55.8717 35.8336 55.9197 35.8761 55.9533 35.9314C55.9876 35.9867 56.0048 36.0524 56.0048 36.1286C56.0048 36.2023 55.9902 36.2709 55.9609 36.3344C55.9317 36.3973 55.8908 36.4599 55.838 36.5221C55.7853 36.5837 55.7237 36.6491 55.6532 36.7184L55.3502 37.0204V37.0271H56.0619V37.1719Z" fill="#212121"/>
<rect x="58.4083" y="50.9445" width="6.68293" height="3.65854" rx="1.82927" fill="white"/>
<rect x="58.4083" y="50.9445" width="6.68293" height="3.65854" rx="1.82927" stroke="#D6D6D6" stroke-width="0.243902"/>
<path d="M59.8605 52.678C59.8605 52.5941 59.8662 52.5122 59.8777 52.4322C59.8897 52.3521 59.9097 52.2778 59.9377 52.2092C59.9656 52.14 60.0037 52.0793 60.052 52.0272C60.1003 51.9752 60.1603 51.9345 60.2321 51.9053C60.3045 51.8754 60.3912 51.8605 60.4922 51.8605C60.5208 51.8605 60.5516 51.8621 60.5846 51.8653C60.6176 51.8678 60.6449 51.8723 60.6665 51.8786V52.0149C60.643 52.0066 60.616 52.0006 60.5856 51.9968C60.5557 51.9929 60.5255 51.991 60.495 51.991C60.3769 51.991 60.2839 52.0168 60.2159 52.0682C60.1486 52.1197 60.1 52.1895 60.0701 52.2778C60.0403 52.3655 60.0231 52.4642 60.0187 52.5741H60.0292C60.0488 52.5424 60.0739 52.5138 60.1044 52.4884C60.1349 52.4623 60.1717 52.4417 60.2149 52.4264C60.2588 52.4112 60.3096 52.4036 60.3674 52.4036C60.4487 52.4036 60.5195 52.4201 60.5798 52.4531C60.6408 52.4862 60.6878 52.5341 60.7208 52.597C60.7545 52.6599 60.7713 52.7361 60.7713 52.8256C60.7713 52.9216 60.7536 53.0044 60.718 53.0743C60.6824 53.1442 60.6316 53.1982 60.5655 53.2363C60.5001 53.2738 60.422 53.2925 60.3312 53.2925C60.2632 53.2925 60.2006 53.2795 60.1435 53.2534C60.0863 53.2274 60.0365 53.1886 59.9939 53.1372C59.952 53.0857 59.9193 53.0219 59.8958 52.9457C59.8723 52.8688 59.8605 52.7796 59.8605 52.678ZM60.3293 53.1591C60.4157 53.1591 60.4849 53.1315 60.537 53.0762C60.589 53.021 60.6151 52.9374 60.6151 52.8256C60.6151 52.7342 60.5919 52.6618 60.5455 52.6084C60.4992 52.5551 60.4293 52.5284 60.3359 52.5284C60.2724 52.5284 60.2172 52.5417 60.1702 52.5684C60.1232 52.5944 60.0866 52.6275 60.0606 52.6675C60.0346 52.7075 60.0215 52.7482 60.0215 52.7894C60.0215 52.8314 60.0276 52.8739 60.0396 52.9171C60.0523 52.9603 60.0714 53.0003 60.0968 53.0372C60.1222 53.074 60.1543 53.1035 60.193 53.1258C60.2318 53.148 60.2772 53.1591 60.3293 53.1591ZM61.8756 53.2734H60.9628V53.141L61.3354 52.7628C61.4046 52.6929 61.4627 52.6307 61.5097 52.576C61.5574 52.5214 61.5936 52.4677 61.6183 52.415C61.6431 52.3617 61.6555 52.3032 61.6555 52.2397C61.6555 52.161 61.632 52.1009 61.585 52.0596C61.5386 52.0177 61.4773 51.9968 61.4011 51.9968C61.3344 51.9968 61.2753 52.0082 61.2239 52.0311C61.1724 52.0539 61.1197 52.0863 61.0657 52.1282L60.9809 52.0215C61.0178 51.9904 61.0578 51.9628 61.101 51.9386C61.1448 51.9145 61.1915 51.8955 61.241 51.8815C61.2912 51.8675 61.3446 51.8605 61.4011 51.8605C61.4869 51.8605 61.5608 51.8754 61.6231 51.9053C61.6853 51.9351 61.7333 51.9777 61.767 52.033C61.8013 52.0882 61.8184 52.154 61.8184 52.2302C61.8184 52.3039 61.8038 52.3725 61.7746 52.436C61.7454 52.4989 61.7044 52.5614 61.6517 52.6237C61.599 52.6853 61.5373 52.7507 61.4668 52.8199L61.1639 53.122V53.1286H61.8756V53.2734ZM62.9998 52.5751C62.9998 52.6881 62.9912 52.7891 62.9741 52.878C62.9569 52.967 62.9299 53.0422 62.8931 53.1038C62.8563 53.1655 62.8086 53.2125 62.7502 53.2449C62.6918 53.2766 62.6216 53.2925 62.5396 53.2925C62.4361 53.2925 62.3504 53.2642 62.2824 53.2077C62.2151 53.1512 62.1646 53.0696 62.1309 52.9628C62.0979 52.8555 62.0814 52.7262 62.0814 52.5751C62.0814 52.4264 62.0963 52.2988 62.1261 52.1921C62.1566 52.0847 62.2055 52.0025 62.2729 51.9453C62.3402 51.8875 62.4291 51.8586 62.5396 51.8586C62.6444 51.8586 62.7308 51.8872 62.7988 51.9444C62.8667 52.0009 62.9172 52.0828 62.9503 52.1902C62.9833 52.2969 62.9998 52.4252 62.9998 52.5751ZM62.2405 52.5751C62.2405 52.7046 62.2503 52.8126 62.27 52.899C62.2897 52.9854 62.3215 53.0502 62.3653 53.0934C62.4097 53.1359 62.4679 53.1572 62.5396 53.1572C62.6114 53.1572 62.6692 53.1359 62.713 53.0934C62.7575 53.0508 62.7896 52.9863 62.8093 52.9C62.8296 52.8136 62.8397 52.7053 62.8397 52.5751C62.8397 52.4474 62.8299 52.3407 62.8102 52.255C62.7905 52.1686 62.7588 52.1038 62.7149 52.0606C62.6711 52.0168 62.6127 51.9949 62.5396 51.9949C62.4666 51.9949 62.4082 52.0168 62.3643 52.0606C62.3205 52.1038 62.2887 52.1686 62.2691 52.255C62.25 52.3407 62.2405 52.4474 62.2405 52.5751Z" fill="#212121"/>
<rect x="66.4591" y="32.8976" width="7.68293" height="3.65854" rx="1.82927" fill="white"/>
<rect x="66.4591" y="32.8976" width="7.68293" height="3.65854" rx="1.82927" stroke="#D6D6D6" stroke-width="0.243902"/>
<path d="M68.4858 35.2266H68.3315V34.2395C68.3315 34.202 68.3315 34.17 68.3315 34.1433C68.3321 34.116 68.3327 34.0912 68.3334 34.069C68.3346 34.0461 68.3362 34.0229 68.3381 33.9994C68.3184 34.0198 68.3 34.0372 68.2829 34.0518C68.2657 34.0658 68.2444 34.0833 68.219 34.1042L68.0599 34.2319L67.977 34.1242L68.3543 33.8337H68.4858V35.2266ZM69.9959 34.9036H69.7873V35.2266H69.6329V34.9036H68.9593V34.7702L69.6224 33.826H69.7873V34.7607H69.9959V34.9036ZM69.6329 34.7607V34.3053C69.6329 34.2703 69.6332 34.2389 69.6339 34.2109C69.6345 34.1824 69.6354 34.156 69.6367 34.1319C69.638 34.1071 69.6389 34.0836 69.6396 34.0614C69.6408 34.0391 69.6418 34.0172 69.6424 33.9956H69.6348C69.6227 34.021 69.6088 34.048 69.5929 34.0766C69.5776 34.1045 69.5621 34.1296 69.5462 34.1519L69.1165 34.7607H69.6329ZM70.1445 34.6311C70.1445 34.5473 70.1502 34.4653 70.1617 34.3853C70.1737 34.3053 70.1938 34.2309 70.2217 34.1623C70.2497 34.0931 70.2878 34.0325 70.336 33.9804C70.3843 33.9283 70.4443 33.8876 70.5161 33.8584C70.5885 33.8286 70.6752 33.8136 70.7762 33.8136C70.8048 33.8136 70.8356 33.8152 70.8686 33.8184C70.9016 33.8209 70.929 33.8254 70.9506 33.8317V33.968C70.9271 33.9597 70.9001 33.9537 70.8696 33.9499C70.8397 33.9461 70.8095 33.9442 70.7791 33.9442C70.6609 33.9442 70.5679 33.9699 70.4999 34.0213C70.4326 34.0728 70.384 34.1427 70.3541 34.2309C70.3243 34.3186 70.3071 34.4174 70.3027 34.5272H70.3132C70.3329 34.4955 70.3579 34.4669 70.3884 34.4415C70.4189 34.4155 70.4558 34.3948 70.499 34.3796C70.5428 34.3643 70.5936 34.3567 70.6514 34.3567C70.7327 34.3567 70.8035 34.3732 70.8639 34.4062C70.9248 34.4393 70.9718 34.4872 71.0049 34.5501C71.0385 34.613 71.0554 34.6892 71.0554 34.7788C71.0554 34.8747 71.0376 34.9576 71.002 35.0274C70.9664 35.0973 70.9156 35.1513 70.8496 35.1894C70.7841 35.2269 70.706 35.2456 70.6152 35.2456C70.5472 35.2456 70.4847 35.2326 70.4275 35.2066C70.3703 35.1805 70.3205 35.1418 70.2779 35.0903C70.236 35.0389 70.2033 34.975 70.1798 34.8988C70.1563 34.822 70.1445 34.7327 70.1445 34.6311ZM70.6133 35.1122C70.6997 35.1122 70.7689 35.0846 70.821 35.0293C70.8731 34.9741 70.8991 34.8906 70.8991 34.7788C70.8991 34.6873 70.8759 34.6149 70.8296 34.5615C70.7832 34.5082 70.7133 34.4815 70.62 34.4815C70.5564 34.4815 70.5012 34.4949 70.4542 34.5215C70.4072 34.5476 70.3706 34.5806 70.3446 34.6206C70.3186 34.6606 70.3055 34.7013 70.3055 34.7426C70.3055 34.7845 70.3116 34.827 70.3236 34.8702C70.3364 34.9134 70.3554 34.9534 70.3808 34.9903C70.4062 35.0271 70.4383 35.0567 70.477 35.0789C70.5158 35.1011 70.5612 35.1122 70.6133 35.1122ZM71.687 34.3748C71.7817 34.3748 71.8639 34.391 71.9338 34.4234C72.0037 34.4552 72.0576 34.5015 72.0958 34.5625C72.1345 34.6235 72.1539 34.6975 72.1539 34.7845C72.1539 34.8798 72.1332 34.962 72.0919 35.0312C72.0507 35.0998 71.9913 35.1529 71.9138 35.1904C71.8363 35.2272 71.7436 35.2456 71.6356 35.2456C71.5632 35.2456 71.4958 35.2393 71.4336 35.2266C71.3713 35.2139 71.3189 35.1948 71.2764 35.1694V35.0189C71.3228 35.0468 71.379 35.069 71.445 35.0856C71.5111 35.1021 71.5752 35.1103 71.6375 35.1103C71.708 35.1103 71.7696 35.0992 71.8223 35.077C71.8757 35.0541 71.917 35.0198 71.9462 34.9741C71.976 34.9277 71.9909 34.8696 71.9909 34.7997C71.9909 34.707 71.9624 34.6355 71.9052 34.5854C71.8487 34.5346 71.7591 34.5091 71.6365 34.5091C71.5971 34.5091 71.554 34.5123 71.507 34.5187C71.46 34.525 71.4212 34.532 71.3907 34.5396L71.3107 34.4872L71.364 33.8337H72.0567V33.9785H71.4993L71.4641 34.3986C71.4882 34.3935 71.5193 34.3885 71.5575 34.3834C71.5956 34.3777 71.6388 34.3748 71.687 34.3748Z" fill="#212121"/>
<rect x="74.505" y="22.4015" width="7.68293" height="3.65854" rx="1.82927" fill="white"/>
<rect x="74.505" y="22.4015" width="7.68293" height="3.65854" rx="1.82927" stroke="#D6D6D6" stroke-width="0.243902"/>
<path d="M76.8556 24.7305H75.9429V24.598L76.3154 24.2198C76.3847 24.1499 76.4428 24.0877 76.4898 24.0331C76.5374 23.9784 76.5736 23.9248 76.5984 23.872C76.6232 23.8187 76.6356 23.7603 76.6356 23.6967C76.6356 23.618 76.6121 23.558 76.565 23.5167C76.5187 23.4748 76.4574 23.4538 76.3812 23.4538C76.3145 23.4538 76.2554 23.4652 76.204 23.4881C76.1525 23.511 76.0998 23.5433 76.0458 23.5853L75.961 23.4786C75.9978 23.4474 76.0379 23.4198 76.0811 23.3957C76.1249 23.3715 76.1716 23.3525 76.2211 23.3385C76.2713 23.3245 76.3246 23.3175 76.3812 23.3175C76.4669 23.3175 76.5409 23.3325 76.6032 23.3623C76.6654 23.3922 76.7134 23.4347 76.747 23.49C76.7813 23.5453 76.7985 23.611 76.7985 23.6872C76.7985 23.7609 76.7839 23.8295 76.7546 23.893C76.7254 23.9559 76.6845 24.0185 76.6317 24.0807C76.579 24.1423 76.5174 24.2077 76.4469 24.277L76.1439 24.579V24.5857H76.8556V24.7305ZM77.9723 24.7305H77.0595V24.598L77.432 24.2198C77.5013 24.1499 77.5594 24.0877 77.6064 24.0331C77.654 23.9784 77.6902 23.9248 77.715 23.872C77.7398 23.8187 77.7522 23.7603 77.7522 23.6967C77.7522 23.618 77.7287 23.558 77.6817 23.5167C77.6353 23.4748 77.574 23.4538 77.4978 23.4538C77.4311 23.4538 77.372 23.4652 77.3206 23.4881C77.2691 23.511 77.2164 23.5433 77.1624 23.5853L77.0776 23.4786C77.1145 23.4474 77.1545 23.4198 77.1977 23.3957C77.2415 23.3715 77.2882 23.3525 77.3377 23.3385C77.3879 23.3245 77.4413 23.3175 77.4978 23.3175C77.5835 23.3175 77.6575 23.3325 77.7198 23.3623C77.782 23.3922 77.83 23.4347 77.8636 23.49C77.8979 23.5453 77.9151 23.611 77.9151 23.6872C77.9151 23.7609 77.9005 23.8295 77.8713 23.893C77.842 23.9559 77.8011 24.0185 77.7484 24.0807C77.6956 24.1423 77.634 24.2077 77.5635 24.277L77.2606 24.579V24.5857H77.9723V24.7305ZM79.0908 23.9311C79.0908 24.0156 79.0847 24.0978 79.0727 24.1779C79.0612 24.2579 79.0412 24.3325 79.0126 24.4018C78.9847 24.471 78.9466 24.5317 78.8983 24.5837C78.85 24.6358 78.7894 24.6768 78.7163 24.7067C78.6439 24.7359 78.5572 24.7505 78.4562 24.7505C78.4289 24.7505 78.3978 24.7486 78.3629 24.7448C78.3279 24.7416 78.2994 24.7368 78.2771 24.7305V24.5933C78.3006 24.6015 78.3283 24.6082 78.36 24.6133C78.3918 24.6177 78.4229 24.62 78.4534 24.62C78.5722 24.62 78.6655 24.5945 78.7335 24.5437C78.8015 24.4923 78.8504 24.4227 78.8802 24.3351C78.9101 24.2468 78.9269 24.1477 78.9307 24.0378H78.9193C78.9002 24.0683 78.8751 24.0966 78.844 24.1226C78.8135 24.148 78.7764 24.1687 78.7325 24.1845C78.6887 24.1998 78.6376 24.2074 78.5791 24.2074C78.4985 24.2074 78.428 24.1909 78.3676 24.1579C78.3079 24.1248 78.2613 24.0769 78.2276 24.014C78.1946 23.9511 78.178 23.8752 78.178 23.7863C78.178 23.6904 78.1961 23.6075 78.2324 23.5376C78.2692 23.4671 78.3206 23.4128 78.3867 23.3747C78.4528 23.3366 78.5306 23.3175 78.6201 23.3175C78.6887 23.3175 78.7516 23.3306 78.8088 23.3566C78.8659 23.3827 78.9155 23.4217 78.9574 23.4738C78.9999 23.5252 79.0327 23.5891 79.0555 23.6653C79.079 23.7415 79.0908 23.8301 79.0908 23.9311ZM78.6201 23.4519C78.5356 23.4519 78.467 23.4795 78.4143 23.5348C78.3622 23.59 78.3362 23.6732 78.3362 23.7844C78.3362 23.8765 78.3587 23.9492 78.4038 24.0026C78.4489 24.0559 78.5185 24.0826 78.6125 24.0826C78.6773 24.0826 78.7332 24.0696 78.7802 24.0435C78.8278 24.0175 78.8643 23.9845 78.8897 23.9445C78.9158 23.9044 78.9288 23.8635 78.9288 23.8216C78.9288 23.7796 78.9225 23.7371 78.9098 23.6939C78.8977 23.6507 78.8789 23.611 78.8535 23.5748C78.8281 23.538 78.7961 23.5084 78.7573 23.4862C78.7186 23.4633 78.6728 23.4519 78.6201 23.4519ZM79.7529 23.3175C79.8336 23.3175 79.9051 23.3303 79.9673 23.3557C80.0295 23.3811 80.0781 23.4185 80.1131 23.4681C80.1486 23.517 80.1664 23.5773 80.1664 23.6491C80.1664 23.7056 80.154 23.7552 80.1293 23.7977C80.1051 23.8397 80.0724 23.8765 80.0311 23.9083C79.9898 23.9394 79.9441 23.9673 79.8939 23.9921C79.9536 24.0194 80.0073 24.0502 80.0549 24.0845C80.1032 24.1188 80.1413 24.1591 80.1693 24.2055C80.1972 24.2519 80.2112 24.3068 80.2112 24.3703C80.2112 24.4485 80.1921 24.5161 80.154 24.5733C80.1166 24.6298 80.0638 24.6733 79.9959 24.7038C79.9279 24.7343 79.8482 24.7495 79.7567 24.7495C79.6583 24.7495 79.5744 24.7349 79.5052 24.7057C79.4366 24.6758 79.3842 24.6333 79.348 24.578C79.3124 24.5221 79.2947 24.4551 79.2947 24.377C79.2947 24.3128 79.3083 24.2573 79.3356 24.2103C79.3629 24.1626 79.3991 24.1217 79.4442 24.0874C79.4893 24.0531 79.5386 24.0242 79.5919 24.0007C79.5455 23.9753 79.503 23.9464 79.4642 23.914C79.4261 23.8816 79.3957 23.8438 79.3728 23.8006C79.3506 23.7568 79.3394 23.706 79.3394 23.6482C79.3394 23.5776 79.3572 23.5179 79.3928 23.469C79.429 23.4195 79.4782 23.382 79.5405 23.3566C79.6033 23.3306 79.6742 23.3175 79.7529 23.3175ZM79.45 24.378C79.45 24.4491 79.475 24.5078 79.5252 24.5542C79.5754 24.5999 79.6513 24.6228 79.7529 24.6228C79.8495 24.6228 79.9241 24.5999 79.9768 24.5542C80.0295 24.5078 80.0559 24.4472 80.0559 24.3722C80.0559 24.3259 80.0438 24.2852 80.0197 24.2503C79.9956 24.2147 79.9613 24.183 79.9168 24.155C79.8723 24.1271 79.8199 24.1017 79.7596 24.0788L79.7253 24.0664C79.6669 24.0905 79.617 24.1175 79.5757 24.1474C79.5351 24.1766 79.5039 24.21 79.4824 24.2474C79.4608 24.2849 79.45 24.3284 79.45 24.378ZM79.751 23.4471C79.6761 23.4471 79.6148 23.4652 79.5671 23.5014C79.5195 23.537 79.4957 23.5884 79.4957 23.6558C79.4957 23.704 79.5071 23.745 79.53 23.7787C79.5535 23.8117 79.5852 23.8403 79.6253 23.8644C79.6653 23.8879 79.7101 23.9098 79.7596 23.9302C79.8079 23.9098 79.8507 23.8876 79.8882 23.8635C79.9257 23.8387 79.9552 23.8095 79.9768 23.7758C79.9984 23.7422 80.0092 23.7018 80.0092 23.6548C80.0092 23.5875 79.9854 23.536 79.9378 23.5005C79.8908 23.4649 79.8285 23.4471 79.751 23.4471Z" fill="#212121"/>
<rect x="42.3107" y="27.5304" width="7.68293" height="3.65854" rx="1.82927" fill="white"/>
<rect x="42.3107" y="27.5304" width="7.68293" height="3.65854" rx="1.82927" stroke="#D6D6D6" stroke-width="0.243902"/>
<path d="M44.3374 29.8594H44.183V28.8723C44.183 28.8349 44.183 28.8028 44.183 28.7761C44.1837 28.7488 44.1843 28.724 44.1849 28.7018C44.1862 28.6789 44.1878 28.6557 44.1897 28.6322C44.17 28.6526 44.1516 28.67 44.1344 28.6846C44.1173 28.6986 44.096 28.7161 44.0706 28.737L43.9115 28.8647L43.8286 28.7571L44.2059 28.4665H44.3374V29.8594ZM45.7798 29.06C45.7798 29.1445 45.7738 29.2268 45.7617 29.3068C45.7503 29.3868 45.7303 29.4614 45.7017 29.5307C45.6737 29.5999 45.6356 29.6606 45.5874 29.7127C45.5391 29.7647 45.4784 29.8057 45.4054 29.8356C45.333 29.8648 45.2463 29.8794 45.1453 29.8794C45.118 29.8794 45.0869 29.8775 45.0519 29.8737C45.017 29.8705 44.9884 29.8657 44.9662 29.8594V29.7222C44.9897 29.7304 45.0173 29.7371 45.0491 29.7422C45.0808 29.7466 45.1119 29.7489 45.1424 29.7489C45.2612 29.7489 45.3546 29.7235 45.4225 29.6726C45.4905 29.6212 45.5394 29.5516 45.5693 29.464C45.5991 29.3757 45.6159 29.2766 45.6198 29.1667H45.6083C45.5893 29.1972 45.5642 29.2255 45.5331 29.2515C45.5026 29.2769 45.4654 29.2976 45.4216 29.3135C45.3778 29.3287 45.3266 29.3363 45.2682 29.3363C45.1875 29.3363 45.117 29.3198 45.0567 29.2868C44.997 29.2537 44.9503 29.2058 44.9166 29.1429C44.8836 29.08 44.8671 29.0041 44.8671 28.9152C44.8671 28.8193 44.8852 28.7364 44.9214 28.6665C44.9582 28.596 45.0097 28.5417 45.0757 28.5036C45.1418 28.4655 45.2196 28.4465 45.3092 28.4465C45.3778 28.4465 45.4406 28.4595 45.4978 28.4855C45.555 28.5116 45.6045 28.5506 45.6464 28.6027C45.689 28.6542 45.7217 28.718 45.7446 28.7942C45.7681 28.8704 45.7798 28.959 45.7798 29.06ZM45.3092 28.5808C45.2247 28.5808 45.1561 28.6084 45.1034 28.6637C45.0513 28.7189 45.0252 28.8021 45.0252 28.9133C45.0252 29.0054 45.0478 29.0781 45.0929 29.1315C45.138 29.1848 45.2075 29.2115 45.3015 29.2115C45.3663 29.2115 45.4222 29.1985 45.4692 29.1724C45.5169 29.1464 45.5534 29.1134 45.5788 29.0734C45.6048 29.0333 45.6179 28.9924 45.6179 28.9505C45.6179 28.9085 45.6115 28.866 45.5988 28.8228C45.5867 28.7796 45.568 28.7399 45.5426 28.7037C45.5172 28.6669 45.4851 28.6373 45.4464 28.6151C45.4076 28.5922 45.3619 28.5808 45.3092 28.5808ZM46.422 29.0076C46.5166 29.0076 46.5989 29.0238 46.6687 29.0562C46.7386 29.088 46.7926 29.1343 46.8307 29.1953C46.8694 29.2563 46.8888 29.3303 46.8888 29.4173C46.8888 29.5126 46.8682 29.5948 46.8269 29.6641C46.7856 29.7327 46.7262 29.7857 46.6487 29.8232C46.5712 29.86 46.4785 29.8784 46.3705 29.8784C46.2981 29.8784 46.2308 29.8721 46.1685 29.8594C46.1063 29.8467 46.0539 29.8276 46.0113 29.8022V29.6517C46.0577 29.6796 46.1139 29.7019 46.18 29.7184C46.246 29.7349 46.3102 29.7431 46.3724 29.7431C46.4429 29.7431 46.5045 29.732 46.5573 29.7098C46.6106 29.6869 46.6519 29.6526 46.6811 29.6069C46.711 29.5605 46.7259 29.5024 46.7259 29.4325C46.7259 29.3398 46.6973 29.2684 46.6401 29.2182C46.5836 29.1674 46.4941 29.142 46.3715 29.142C46.3321 29.142 46.2889 29.1451 46.2419 29.1515C46.1949 29.1578 46.1562 29.1648 46.1257 29.1724L46.0456 29.12L46.099 28.4665H46.7916V28.6113H46.2343L46.199 29.0314C46.2232 29.0264 46.2543 29.0213 46.2924 29.0162C46.3305 29.0105 46.3737 29.0076 46.422 29.0076ZM47.9597 28.7913C47.9597 28.8536 47.9476 28.9076 47.9235 28.9533C47.8994 28.999 47.8657 29.0365 47.8225 29.0657C47.7793 29.0943 47.7285 29.1143 47.6701 29.1258V29.1334C47.7806 29.1474 47.8635 29.1829 47.9187 29.2401C47.9746 29.2973 48.0026 29.3722 48.0026 29.4649C48.0026 29.5456 47.9835 29.6171 47.9454 29.6793C47.9079 29.7416 47.8501 29.7905 47.772 29.826C47.6945 29.861 47.5951 29.8784 47.4738 29.8784C47.4001 29.8784 47.3318 29.8724 47.269 29.8603C47.2067 29.8489 47.147 29.8295 47.0898 29.8022V29.6536C47.1476 29.6822 47.2105 29.7047 47.2785 29.7212C47.3464 29.7371 47.4122 29.745 47.4757 29.745C47.6027 29.745 47.6945 29.72 47.751 29.6698C47.8076 29.619 47.8358 29.5497 47.8358 29.4621C47.8358 29.4017 47.82 29.3532 47.7882 29.3163C47.7571 29.2788 47.712 29.2515 47.6529 29.2344C47.5945 29.2166 47.524 29.2077 47.4414 29.2077H47.3023V29.0724H47.4424C47.5179 29.0724 47.5821 29.0613 47.6348 29.0391C47.6875 29.0168 47.7275 28.9857 47.7549 28.9457C47.7828 28.905 47.7968 28.8571 47.7968 28.8018C47.7968 28.7313 47.7733 28.677 47.7263 28.6389C47.6793 28.6002 47.6154 28.5808 47.5348 28.5808C47.4852 28.5808 47.4401 28.5859 47.3995 28.596C47.3588 28.6062 47.3207 28.6202 47.2852 28.638C47.2496 28.6557 47.214 28.6764 47.1784 28.6999L47.0984 28.5913C47.1492 28.5519 47.2112 28.5179 47.2842 28.4893C47.3572 28.4607 47.4401 28.4465 47.5329 28.4465C47.6751 28.4465 47.7819 28.4788 47.853 28.5436C47.9241 28.6084 47.9597 28.691 47.9597 28.7913Z" fill="#212121"/>
<path d="M22.1865 65.6936L30.1134 49.596L38.0402 54.1082L46.2109 43.3765L54.2597 54.9619L62.3085 37.4009L70.3573 53.0107L78.406 35.9375" stroke="#3CBD00" stroke-width="0.487805"/>
<path d="M22.1907 66.1861C22.5948 66.1861 22.9224 65.8585 22.9224 65.4544C22.9224 65.0503 22.5948 64.7227 22.1907 64.7227C21.7866 64.7227 21.459 65.0503 21.459 65.4544C21.459 65.8585 21.7866 66.1861 22.1907 66.1861Z" fill="#FF9500"/>
<path d="M29.9932 48.9932C30.5992 48.9933 31.0908 49.4847 31.0908 50.0908C31.0907 50.6968 30.5992 51.1884 29.9932 51.1885C29.3871 51.1885 28.8956 50.6969 28.8955 50.0908C28.8955 49.4847 29.387 48.9932 29.9932 48.9932Z" fill="white" stroke="#3CBD00" stroke-width="0.243902"/>
<path d="M29.9915 50.8267C30.3956 50.8267 30.7232 50.4991 30.7232 50.095C30.7232 49.6909 30.3956 49.3633 29.9915 49.3633C29.5874 49.3633 29.2598 49.6909 29.2598 50.095C29.2598 50.4991 29.5874 50.8267 29.9915 50.8267Z" fill="#3CBD00"/>
<path d="M38.0449 53.3838C38.651 53.3839 39.1426 53.8754 39.1426 54.4814C39.1425 55.0874 38.6509 55.579 38.0449 55.5791C37.4388 55.5791 36.9474 55.0875 36.9473 54.4814C36.9473 53.8753 37.4388 53.3838 38.0449 53.3838Z" fill="white" stroke="#3CBD00" stroke-width="0.243902"/>
<path d="M38.0432 55.2173C38.4473 55.2173 38.7749 54.8897 38.7749 54.4856C38.7749 54.0815 38.4473 53.7539 38.0432 53.7539C37.6391 53.7539 37.3115 54.0815 37.3115 54.4856C37.3115 54.8897 37.6391 55.2173 38.0432 55.2173Z" fill="#3CBD00"/>
<path d="M46.0908 42.6416C46.6969 42.6417 47.1885 43.1332 47.1885 43.7393C47.1884 44.3453 46.6968 44.8368 46.0908 44.8369C45.4847 44.8369 44.9933 44.3453 44.9932 43.7393C44.9932 43.1331 45.4847 42.6416 46.0908 42.6416Z" fill="white" stroke="#3CBD00" stroke-width="0.243902"/>
<path d="M46.0891 44.4751C46.4932 44.4751 46.8208 44.1475 46.8208 43.7434C46.8208 43.3393 46.4932 43.0117 46.0891 43.0117C45.685 43.0117 45.3574 43.3393 45.3574 43.7434C45.3574 44.1475 45.685 44.4751 46.0891 44.4751Z" fill="#3CBD00"/>
<path d="M54.1416 54.5986C54.7477 54.5987 55.2393 55.0902 55.2393 55.6963C55.2391 56.3023 54.7476 56.7938 54.1416 56.7939C53.5355 56.7939 53.0441 56.3024 53.0439 55.6963C53.0439 55.0901 53.5354 54.5986 54.1416 54.5986Z" fill="white" stroke="#3CBD00" stroke-width="0.243902"/>
<path d="M54.1399 56.4322C54.544 56.4322 54.8716 56.1046 54.8716 55.7005C54.8716 55.2963 54.544 54.9688 54.1399 54.9688C53.7358 54.9688 53.4082 55.2963 53.4082 55.7005C53.4082 56.1046 53.7358 56.4322 54.1399 56.4322Z" fill="#3CBD00"/>
<path d="M62.1875 36.79C62.7936 36.7902 63.2852 37.2816 63.2852 37.8877C63.285 38.4937 62.7935 38.9852 62.1875 38.9854C61.5814 38.9854 61.09 38.4938 61.0898 37.8877C61.0898 37.2815 61.5813 36.79 62.1875 36.79Z" fill="white" stroke="#3CBD00" stroke-width="0.243902"/>
<path d="M62.1858 38.6236C62.5899 38.6236 62.9175 38.296 62.9175 37.8919C62.9175 37.4878 62.5899 37.1602 62.1858 37.1602C61.7817 37.1602 61.4541 37.4878 61.4541 37.8919C61.4541 38.296 61.7817 38.6236 62.1858 38.6236Z" fill="#3CBD00"/>
<path d="M70.2393 52.4033C70.8453 52.4034 71.3369 52.8949 71.3369 53.501C71.3368 54.107 70.8453 54.5985 70.2393 54.5986C69.6332 54.5986 69.1417 54.107 69.1416 53.501C69.1416 52.8948 69.6331 52.4033 70.2393 52.4033Z" fill="white" stroke="#3CBD00" stroke-width="0.243902"/>
<path d="M70.2376 54.2369C70.6417 54.2369 70.9693 53.9093 70.9693 53.5051C70.9693 53.101 70.6417 52.7734 70.2376 52.7734C69.8335 52.7734 69.5059 53.101 69.5059 53.5051C69.5059 53.9093 69.8335 54.2369 70.2376 54.2369Z" fill="#3CBD00"/>
<path d="M78.2852 35.8174C78.8912 35.8175 79.3828 36.3089 79.3828 36.915C79.3827 37.521 78.8912 38.0126 78.2852 38.0127C77.6791 38.0127 77.1876 37.5211 77.1875 36.915C77.1875 36.3089 77.679 35.8174 78.2852 35.8174Z" fill="white" stroke="#3CBD00" stroke-width="0.243902"/>
<path d="M78.2835 37.6509C78.6876 37.6509 79.0152 37.3233 79.0152 36.9192C79.0152 36.5151 78.6876 36.1875 78.2835 36.1875C77.8794 36.1875 77.5518 36.5151 77.5518 36.9192C77.5518 37.3233 77.8794 37.6509 78.2835 37.6509Z" fill="#3CBD00"/>
</g>
<defs>
<clipPath id="clip0_7813_53106">
<rect width="70" height="60.7317" fill="white" transform="translate(12.1885 15.9453)"/>
</clipPath>
</defs>
</svg>
