<svg width="92" height="92" viewBox="0 0 92 92" fill="none" xmlns="http://www.w3.org/2000/svg">
<rect x="0.389831" y="0.389831" width="91.079" height="91.2203" rx="17.5424" stroke="#BEBEBE" stroke-width="0.779661"/>
<circle cx="34.6937" cy="33.5697" r="18.5697" fill="#FF5683"/>
<rect x="10.339" y="20.337" width="11.5703" height="5.5709" rx="2.78545" fill="white"/>
<rect x="10.339" y="20.337" width="11.5703" height="5.5709" rx="2.78545" stroke="#D5D5D5" stroke-width="0.142844"/>
<circle cx="13.2668" cy="23.1232" r="1.14275" fill="#FF5683"/>
<path d="M17.6124 23.0986C17.6124 23.2641 17.5999 23.412 17.5748 23.5422C17.5497 23.6724 17.5101 23.7826 17.4562 23.8728C17.4023 23.963 17.3325 24.0318 17.247 24.0792C17.1614 24.1257 17.0586 24.149 16.9387 24.149C16.7871 24.149 16.6615 24.1076 16.562 24.0248C16.4635 23.9421 16.3895 23.8226 16.3402 23.6663C16.2919 23.5092 16.2677 23.3199 16.2677 23.0986C16.2677 22.881 16.2896 22.6941 16.3333 22.5378C16.3779 22.3807 16.4495 22.2602 16.5481 22.1765C16.6467 22.0919 16.7769 22.0496 16.9387 22.0496C17.0921 22.0496 17.2186 22.0914 17.3181 22.1751C17.4176 22.2579 17.4915 22.3779 17.5399 22.535C17.5883 22.6913 17.6124 22.8791 17.6124 23.0986ZM16.5007 23.0986C16.5007 23.2883 16.5151 23.4464 16.5439 23.5729C16.5727 23.6994 16.6192 23.7942 16.6834 23.8574C16.7485 23.9198 16.8336 23.9509 16.9387 23.9509C17.0438 23.9509 17.1284 23.9198 17.1926 23.8574C17.2577 23.7951 17.3046 23.7007 17.3335 23.5743C17.3632 23.4478 17.3781 23.2892 17.3781 23.0986C17.3781 22.9117 17.3637 22.7554 17.3348 22.6299C17.306 22.5034 17.2595 22.4086 17.1954 22.3453C17.1312 22.2811 17.0456 22.2491 16.9387 22.2491C16.8317 22.2491 16.7462 22.2811 16.682 22.3453C16.6178 22.4086 16.5713 22.5034 16.5425 22.6299C16.5146 22.7554 16.5007 22.9117 16.5007 23.0986ZM18.7619 24.1211H18.5359V22.6759C18.5359 22.621 18.5359 22.5741 18.5359 22.535C18.5368 22.495 18.5378 22.4588 18.5387 22.4262C18.5406 22.3927 18.5429 22.3588 18.5457 22.3244C18.5168 22.3541 18.4899 22.3797 18.4648 22.4011C18.4397 22.4216 18.4085 22.4471 18.3713 22.4778L18.1383 22.6648L18.017 22.5071L18.5694 22.0817H18.7619V24.1211Z" fill="#252525"/>
<circle cx="59.9635" cy="31.7526" r="13.9987" fill="#20A2FF"/>
<ellipse cx="53.8487" cy="57.9881" rx="17.8487" ry="17.9881" fill="#FFD900"/>
<rect x="68.9044" y="21.4503" width="11.2915" height="5.5709" rx="2.78545" fill="white"/>
<rect x="68.9044" y="21.4503" width="11.2915" height="5.5709" rx="2.78545" stroke="#D5D5D5" stroke-width="0.142844"/>
<circle cx="71.6935" cy="24.2365" r="1.14275" fill="#256AFF"/>
<path d="M76.0382 24.2119C76.0382 24.3774 76.0257 24.5253 76.0006 24.6555C75.9755 24.7857 75.9359 24.8959 75.882 24.9861C75.8281 25.0763 75.7583 25.1451 75.6727 25.1925C75.5872 25.239 75.4844 25.2623 75.3645 25.2623C75.2129 25.2623 75.0873 25.2209 74.9878 25.1381C74.8892 25.0554 74.8153 24.9359 74.766 24.7796C74.7177 24.6225 74.6935 24.4332 74.6935 24.2119C74.6935 23.9943 74.7153 23.8073 74.759 23.6511C74.8037 23.4939 74.8753 23.3735 74.9739 23.2898C75.0724 23.2052 75.2026 23.1629 75.3645 23.1629C75.5179 23.1629 75.6444 23.2047 75.7439 23.2884C75.8434 23.3712 75.9173 23.4911 75.9657 23.6483C76.014 23.8045 76.0382 23.9924 76.0382 24.2119ZM74.9264 24.2119C74.9264 24.4016 74.9409 24.5597 74.9697 24.6862C74.9985 24.8126 75.045 24.9075 75.1092 24.9707C75.1743 25.033 75.2594 25.0642 75.3645 25.0642C75.4695 25.0642 75.5542 25.033 75.6183 24.9707C75.6834 24.9084 75.7304 24.814 75.7592 24.6876C75.789 24.5611 75.8039 24.4025 75.8039 24.2119C75.8039 24.0249 75.7895 23.8687 75.7606 23.7432C75.7318 23.6167 75.6853 23.5218 75.6211 23.4586C75.557 23.3944 75.4714 23.3623 75.3645 23.3623C75.2575 23.3623 75.172 23.3944 75.1078 23.4586C75.0436 23.5218 74.9971 23.6167 74.9683 23.7432C74.9404 23.8687 74.9264 24.0249 74.9264 24.2119ZM77.662 25.2344H76.3256V25.0405L76.871 24.4867C76.9724 24.3844 77.0575 24.2932 77.1263 24.2133C77.196 24.1333 77.249 24.0547 77.2853 23.9775C77.3216 23.8994 77.3397 23.8138 77.3397 23.7208C77.3397 23.6055 77.3053 23.5176 77.2365 23.4572C77.1686 23.3958 77.0789 23.3651 76.9673 23.3651C76.8696 23.3651 76.7831 23.3819 76.7078 23.4154C76.6325 23.4488 76.5553 23.4963 76.4762 23.5576L76.3521 23.4014C76.406 23.3558 76.4646 23.3154 76.5279 23.28C76.592 23.2447 76.6604 23.2168 76.7329 23.1963C76.8064 23.1759 76.8845 23.1657 76.9673 23.1657C77.0928 23.1657 77.2012 23.1875 77.2923 23.2312C77.3834 23.2749 77.4536 23.3372 77.5029 23.4181C77.5531 23.499 77.5783 23.5953 77.5783 23.7069C77.5783 23.8148 77.5569 23.9152 77.5141 24.0082C77.4713 24.1003 77.4113 24.1919 77.3341 24.283C77.257 24.3732 77.1667 24.469 77.0635 24.5704L76.6199 25.0126V25.0223H77.662V25.2344Z" fill="#626262"/>
<rect x="61.171" y="69.0753" width="11.2915" height="5.5709" rx="2.78545" fill="white"/>
<rect x="61.171" y="69.0753" width="11.2915" height="5.5709" rx="2.78545" stroke="#D5D5D5" stroke-width="0.142844"/>
<circle cx="63.9601" cy="71.8615" r="1.14275" fill="#FFD900"/>
<path d="M68.3048 71.8369C68.3048 72.0024 68.2923 72.1503 68.2672 72.2805C68.2421 72.4107 68.2025 72.5209 68.1486 72.6111C68.0947 72.7013 68.0249 72.7701 67.9393 72.8175C67.8538 72.864 67.751 72.8873 67.6311 72.8873C67.4795 72.8873 67.3539 72.8459 67.2544 72.7631C67.1558 72.6804 67.0819 72.5609 67.0326 72.4046C66.9843 72.2475 66.9601 72.0582 66.9601 71.8369C66.9601 71.6193 66.9819 71.4323 67.0256 71.2761C67.0703 71.1189 67.1419 70.9985 67.2405 70.9148C67.3391 70.8302 67.4692 70.7879 67.6311 70.7879C67.7845 70.7879 67.911 70.8297 68.0105 70.9134C68.11 70.9962 68.1839 71.1161 68.2323 71.2733C68.2806 71.4295 68.3048 71.6174 68.3048 71.8369ZM67.193 71.8369C67.193 72.0266 67.2075 72.1847 67.2363 72.3112C67.2651 72.4376 67.3116 72.5325 67.3758 72.5957C67.4409 72.658 67.526 72.6892 67.6311 72.6892C67.7361 72.6892 67.8208 72.658 67.8849 72.5957C67.95 72.5334 67.997 72.439 68.0258 72.3126C68.0556 72.1861 68.0705 72.0275 68.0705 71.8369C68.0705 71.6499 68.0561 71.4937 68.0272 71.3682C67.9984 71.2417 67.9519 71.1468 67.8877 71.0836C67.8236 71.0194 67.738 70.9873 67.6311 70.9873C67.5241 70.9873 67.4386 71.0194 67.3744 71.0836C67.3102 71.1468 67.2637 71.2417 67.2349 71.3682C67.207 71.4937 67.193 71.6499 67.193 71.8369ZM69.8532 71.2956C69.8532 71.3868 69.8356 71.4658 69.8002 71.5328C69.7649 71.5997 69.7156 71.6546 69.6524 71.6974C69.5891 71.7392 69.5147 71.7685 69.4292 71.7853V71.7964C69.591 71.8169 69.7123 71.869 69.7932 71.9527C69.8751 72.0364 69.916 72.1461 69.916 72.2819C69.916 72.4 69.8881 72.5046 69.8323 72.5957C69.7774 72.6869 69.6928 72.7585 69.5784 72.8106C69.465 72.8617 69.3194 72.8873 69.1418 72.8873C69.0339 72.8873 68.934 72.8784 68.8419 72.8608C68.7507 72.844 68.6633 72.8157 68.5796 72.7757V72.5581C68.6643 72.5999 68.7563 72.6329 68.8558 72.6571C68.9553 72.6804 69.0516 72.692 69.1446 72.692C69.3306 72.692 69.465 72.6552 69.5477 72.5818C69.6305 72.5074 69.6719 72.406 69.6719 72.2777C69.6719 72.1893 69.6486 72.1182 69.6021 72.0642C69.5566 72.0094 69.4905 71.9694 69.4041 71.9443C69.3185 71.9182 69.2153 71.9052 69.0944 71.9052H68.8907V71.7071H69.0958C69.2064 71.7071 69.3004 71.6909 69.3775 71.6583C69.4547 71.6258 69.5133 71.5802 69.5533 71.5216C69.5942 71.4621 69.6147 71.3919 69.6147 71.311C69.6147 71.2077 69.5803 71.1282 69.5115 71.0724C69.4426 71.0157 69.3492 70.9873 69.2311 70.9873C69.1585 70.9873 69.0925 70.9948 69.033 71.0097C68.9735 71.0245 68.9177 71.045 68.8656 71.071C68.8135 71.0971 68.7614 71.1273 68.7094 71.1617L68.5922 71.0027C68.6666 70.945 68.7573 70.8953 68.8642 70.8534C68.9712 70.8116 69.0925 70.7907 69.2283 70.7907C69.4366 70.7907 69.5928 70.8381 69.697 70.9329C69.8012 71.0278 69.8532 71.1487 69.8532 71.2956Z" fill="black"/>
<path d="M31.9745 35.8555H31.3161V33.2302C31.3161 33.1427 31.3171 33.0553 31.3189 32.9679C31.3208 32.8805 31.3226 32.7949 31.3245 32.7112C31.3282 32.6275 31.3329 32.5476 31.3384 32.4713C31.2994 32.5141 31.251 32.5606 31.1934 32.6108C31.1376 32.661 31.078 32.7131 31.0148 32.767L30.5461 33.1409L30.2169 32.7252L31.4277 31.7766H31.9745V35.8555ZM36.0785 35.8555H33.3165V35.3617L34.3739 34.2903C34.5785 34.082 34.7468 33.9025 34.8788 33.7519C35.0109 33.5994 35.1085 33.4552 35.1718 33.3194C35.2369 33.1837 35.2694 33.0358 35.2694 32.8758C35.2694 32.6787 35.2127 32.5299 35.0992 32.4295C34.9858 32.3272 34.8361 32.276 34.6501 32.276C34.4734 32.276 34.3097 32.3113 34.159 32.382C34.0103 32.4508 33.8559 32.5494 33.6959 32.6778L33.336 32.2453C33.4495 32.1486 33.5704 32.0603 33.6987 31.9803C33.8289 31.9003 33.974 31.8371 34.1339 31.7906C34.2939 31.7422 34.4762 31.718 34.6808 31.718C34.9393 31.718 35.1625 31.7645 35.3503 31.8575C35.5382 31.9487 35.6823 32.0761 35.7828 32.2397C35.8851 32.4034 35.9362 32.5941 35.9362 32.8117C35.9362 33.0311 35.8925 33.2339 35.8051 33.4199C35.7177 33.6059 35.5931 33.79 35.4312 33.9723C35.2694 34.1527 35.0769 34.3489 34.8537 34.5609L34.1479 35.2501V35.2807H36.0785V35.8555ZM37.9729 33.3055C38.2351 33.3055 38.4657 33.3529 38.6648 33.4478C38.8656 33.5408 39.0219 33.6784 39.1335 33.8607C39.2451 34.0411 39.3009 34.2624 39.3009 34.5247C39.3009 34.8111 39.2404 35.0585 39.1195 35.2668C38.9986 35.4733 38.821 35.6323 38.5866 35.7439C38.3523 35.8555 38.0668 35.9113 37.7301 35.9113C37.5162 35.9113 37.3163 35.8927 37.1303 35.8555C36.9462 35.8183 36.7871 35.7625 36.6532 35.6881V35.0966C36.7927 35.1747 36.9601 35.2389 37.1554 35.2891C37.3507 35.3375 37.5376 35.3617 37.7162 35.3617C37.9059 35.3617 38.0686 35.3338 38.2044 35.278C38.3402 35.2222 38.4444 35.1366 38.5169 35.0213C38.5913 34.906 38.6285 34.76 38.6285 34.5833C38.6285 34.3489 38.5532 34.1685 38.4025 34.042C38.2537 33.9137 38.0203 33.8495 37.7022 33.8495C37.5906 33.8495 37.4716 33.8597 37.3451 33.8802C37.2205 33.8988 37.1164 33.9193 37.0327 33.9416L36.7453 33.7714L36.8987 31.7766H39.0191V32.3541H37.4763L37.387 33.3697C37.4539 33.3548 37.5339 33.3408 37.6269 33.3278C37.7199 33.3129 37.8352 33.3055 37.9729 33.3055Z" fill="#212121"/>
<path d="M51.8468 60.2227H49.0848V59.7288L50.1422 58.6575C50.3468 58.4492 50.5151 58.2697 50.6471 58.1191C50.7792 57.9665 50.8769 57.8224 50.9401 57.6866C51.0052 57.5508 51.0377 57.403 51.0377 57.243C51.0377 57.0459 50.981 56.8971 50.8676 56.7966C50.7541 56.6943 50.6044 56.6432 50.4184 56.6432C50.2417 56.6432 50.078 56.6785 49.9274 56.7492C49.7786 56.818 49.6242 56.9166 49.4642 57.0449L49.1043 56.6125C49.2178 56.5158 49.3387 56.4274 49.467 56.3475C49.5972 56.2675 49.7423 56.2042 49.9022 56.1577C50.0622 56.1094 50.2445 56.0852 50.4491 56.0852C50.7076 56.0852 50.9308 56.1317 51.1186 56.2247C51.3065 56.3158 51.4506 56.4433 51.5511 56.6069C51.6534 56.7706 51.7045 56.9612 51.7045 57.1789C51.7045 57.3983 51.6608 57.6011 51.5734 57.7871C51.486 57.9731 51.3614 58.1572 51.1996 58.3395C51.0377 58.5199 50.8452 58.7161 50.622 58.9281L49.9162 59.6172V59.6479H51.8468V60.2227ZM54.9604 57.0756C54.9604 57.2598 54.9232 57.4197 54.8488 57.5555C54.7744 57.6913 54.6721 57.8029 54.5419 57.8903C54.4135 57.9758 54.2647 58.0372 54.0955 58.0744V58.094C54.421 58.1349 54.6665 58.2372 54.832 58.4008C54.9994 58.5645 55.0831 58.7812 55.0831 59.0509C55.0831 59.2871 55.0264 59.4982 54.9129 59.6842C54.7995 59.8683 54.6256 60.0134 54.3912 60.1194C54.1569 60.2254 53.8556 60.2785 53.4873 60.2785C53.2659 60.2785 53.0604 60.2608 52.8707 60.2254C52.6829 60.1901 52.5043 60.1334 52.335 60.0553V59.4722C52.508 59.5577 52.6922 59.6238 52.8875 59.6703C53.0827 59.7168 53.2678 59.74 53.4426 59.74C53.783 59.74 54.0257 59.6768 54.1708 59.5503C54.3159 59.422 54.3884 59.2453 54.3884 59.0202C54.3884 58.8751 54.3503 58.7561 54.274 58.6631C54.1996 58.5701 54.0834 58.5003 53.9253 58.4539C53.7691 58.4074 53.5673 58.3841 53.3199 58.3841H52.96V57.8568H53.3227C53.5589 57.8568 53.7486 57.8289 53.8918 57.7731C54.035 57.7155 54.1383 57.6364 54.2015 57.536C54.2666 57.4355 54.2991 57.3184 54.2991 57.1844C54.2991 57.0096 54.2424 56.8738 54.129 56.7771C54.0155 56.6785 53.8472 56.6292 53.624 56.6292C53.4864 56.6292 53.3608 56.6451 53.2474 56.6767C53.1358 56.7083 53.0325 56.7483 52.9377 56.7966C52.8428 56.845 52.7526 56.8971 52.667 56.9529L52.3518 56.4981C52.5062 56.3828 52.6903 56.2852 52.9042 56.2052C53.1181 56.1252 53.3673 56.0852 53.6519 56.0852C54.0704 56.0852 54.3931 56.1754 54.62 56.3558C54.8469 56.5344 54.9604 56.7743 54.9604 57.0756ZM58.3864 58.1804C58.3864 58.5096 58.3603 58.8044 58.3083 59.0648C58.258 59.3234 58.1781 59.5428 58.0683 59.7233C57.9586 59.9037 57.8154 60.0413 57.6387 60.1362C57.462 60.231 57.2481 60.2785 56.997 60.2785C56.6827 60.2785 56.4232 60.1957 56.2186 60.0302C56.014 59.8628 55.8624 59.6228 55.7639 59.3104C55.6653 58.996 55.616 58.6194 55.616 58.1804C55.616 57.7415 55.6606 57.3658 55.7499 57.0533C55.841 56.739 55.988 56.4981 56.1907 56.3307C56.3934 56.1633 56.6622 56.0796 56.997 56.0796C57.3132 56.0796 57.5736 56.1633 57.7782 56.3307C57.9846 56.4963 58.1371 56.7362 58.2357 57.0505C58.3362 57.363 58.3864 57.7396 58.3864 58.1804ZM56.2772 58.1804C56.2772 58.5245 56.2995 58.8119 56.3442 59.0425C56.3907 59.2732 56.4669 59.4461 56.5729 59.5614C56.6789 59.6749 56.8203 59.7316 56.997 59.7316C57.1737 59.7316 57.315 59.6749 57.4211 59.5614C57.5271 59.448 57.6033 59.2759 57.6498 59.0453C57.6982 58.8147 57.7224 58.5264 57.7224 58.1804C57.7224 57.8382 57.6991 57.5518 57.6526 57.3211C57.6061 57.0905 57.5299 56.9175 57.4239 56.8022C57.3178 56.685 57.1756 56.6265 56.997 56.6265C56.8184 56.6265 56.6762 56.685 56.5701 56.8022C56.466 56.9175 56.3907 57.0905 56.3442 57.3211C56.2995 57.5518 56.2772 57.8382 56.2772 58.1804Z" fill="#121212"/>
<path d="M58.1946 29.6622C58.4308 29.6622 58.6438 29.6994 58.8335 29.7738C59.0232 29.8464 59.1739 29.9552 59.2855 30.1002C59.3971 30.2453 59.4529 30.4248 59.4529 30.6387C59.4529 30.8042 59.4184 30.9484 59.3496 31.0711C59.2827 31.1939 59.1915 31.3018 59.0762 31.3948C58.9609 31.4859 58.8316 31.5668 58.6884 31.6375C58.8484 31.7156 58.9953 31.8058 59.1292 31.9081C59.265 32.0085 59.3738 32.1266 59.4556 32.2624C59.5393 32.3982 59.5812 32.5572 59.5812 32.7395C59.5812 32.9683 59.5226 33.1664 59.4054 33.3337C59.2901 33.4993 59.1292 33.6276 58.9228 33.7188C58.7163 33.808 58.4755 33.8527 58.2002 33.8527C57.9044 33.8527 57.6524 33.809 57.4441 33.7215C57.2358 33.6341 57.0777 33.5095 56.9698 33.3477C56.862 33.184 56.808 32.9887 56.808 32.7618C56.808 32.574 56.8452 32.4112 56.9196 32.2736C56.994 32.1359 57.0935 32.0169 57.2181 31.9165C57.3446 31.816 57.4832 31.7314 57.6338 31.6626C57.5055 31.5863 57.3883 31.5008 57.2823 31.4059C57.1763 31.3092 57.0917 31.1985 57.0284 31.0739C56.967 30.9474 56.9363 30.8014 56.9363 30.6359C56.9363 30.4239 56.9931 30.2462 57.1065 30.103C57.22 29.958 57.3716 29.8482 57.5613 29.7738C57.7529 29.6994 57.964 29.6622 58.1946 29.6622ZM57.433 32.7367C57.433 32.9153 57.4962 33.0622 57.6227 33.1775C57.7491 33.2928 57.9379 33.3505 58.189 33.3505C58.4383 33.3505 58.628 33.2938 58.7582 33.1803C58.8884 33.0668 58.9535 32.9171 58.9535 32.7311C58.9535 32.6121 58.92 32.507 58.853 32.4159C58.7879 32.3247 58.6996 32.2438 58.588 32.1731C58.4782 32.1006 58.3564 32.0336 58.2225 31.9723L58.1332 31.936C57.9881 31.9974 57.8635 32.0671 57.7594 32.1452C57.6552 32.2215 57.5743 32.308 57.5167 32.4047C57.4609 32.5014 57.433 32.6121 57.433 32.7367ZM58.189 30.1672C58.0086 30.1672 57.8598 30.2118 57.7426 30.3011C57.6273 30.3885 57.5697 30.515 57.5697 30.6805C57.5697 30.7977 57.5976 30.8982 57.6534 30.9819C57.711 31.0655 57.7882 31.1381 57.8849 31.1995C57.9816 31.259 58.0886 31.3148 58.2058 31.3669C58.3192 31.3166 58.4215 31.2618 58.5127 31.2023C58.6056 31.1409 58.6791 31.0683 58.7331 30.9846C58.7889 30.8991 58.8168 30.7968 58.8168 30.6777C58.8168 30.5141 58.7582 30.3885 58.641 30.3011C58.5257 30.2118 58.375 30.1672 58.189 30.1672ZM62.851 31.7547C62.851 32.0839 62.8249 32.3787 62.7729 32.6391C62.7226 32.8976 62.6427 33.1171 62.5329 33.2975C62.4232 33.4779 62.28 33.6155 62.1033 33.7104C61.9266 33.8052 61.7127 33.8527 61.4616 33.8527C61.1473 33.8527 60.8878 33.7699 60.6832 33.6044C60.4786 33.437 60.327 33.197 60.2284 32.8846C60.1299 32.5702 60.0806 32.1936 60.0806 31.7547C60.0806 31.3157 60.1252 30.94 60.2145 30.6275C60.3056 30.3132 60.4526 30.0723 60.6553 29.9049C60.858 29.7375 61.1268 29.6539 61.4616 29.6539C61.7778 29.6539 62.0382 29.7375 62.2428 29.9049C62.4492 30.0705 62.6017 30.3104 62.7003 30.6247C62.8008 30.9372 62.851 31.3139 62.851 31.7547ZM60.7418 31.7547C60.7418 32.0987 60.7641 32.3861 60.8088 32.6167C60.8552 32.8474 60.9315 33.0203 61.0375 33.1357C61.1435 33.2491 61.2849 33.3058 61.4616 33.3058C61.6383 33.3058 61.7796 33.2491 61.8857 33.1357C61.9917 33.0222 62.0679 32.8502 62.1144 32.6195C62.1628 32.3889 62.187 32.1006 62.187 31.7547C62.187 31.4124 62.1637 31.126 62.1172 30.8954C62.0707 30.6647 61.9945 30.4918 61.8884 30.3764C61.7824 30.2593 61.6401 30.2007 61.4616 30.2007C61.283 30.2007 61.1408 30.2593 61.0347 30.3764C60.9306 30.4918 60.8552 30.6647 60.8088 30.8954C60.7641 31.126 60.7418 31.4124 60.7418 31.7547Z" fill="white"/>
</svg>
