<svg width="92" height="92" viewBox="0 0 92 92" fill="none" xmlns="http://www.w3.org/2000/svg">
<rect x="0.389831" y="0.389831" width="91.079" height="91.2203" rx="17.5424" fill="white" stroke="#FF8A01" stroke-width="0.779661"/>
<path d="M74.1117 26.959H73.0389V26.8033L73.4768 26.3587C73.5581 26.2766 73.6264 26.2034 73.6817 26.1392C73.7377 26.075 73.7802 26.0119 73.8094 25.95C73.8385 25.8873 73.853 25.8186 73.853 25.7439C73.853 25.6513 73.8254 25.5808 73.7702 25.5323C73.7157 25.483 73.6436 25.4584 73.554 25.4584C73.4756 25.4584 73.4062 25.4718 73.3457 25.4987C73.2853 25.5255 73.2233 25.5636 73.1598 25.6129L73.0602 25.4875C73.1035 25.4509 73.1505 25.4184 73.2013 25.39C73.2528 25.3617 73.3077 25.3393 73.3659 25.3228C73.4249 25.3064 73.4876 25.2982 73.554 25.2982C73.6548 25.2982 73.7418 25.3158 73.815 25.3508C73.8881 25.3859 73.9445 25.436 73.9841 25.5009C74.0244 25.5659 74.0445 25.6431 74.0445 25.7327C74.0445 25.8193 74.0274 25.9 73.993 25.9746C73.9587 26.0485 73.9105 26.1221 73.8486 26.1952C73.7866 26.2676 73.7142 26.3445 73.6313 26.4259L73.2752 26.7809V26.7888H74.1117V26.959ZM74.3682 26.2591C74.3682 26.1605 74.3749 26.0642 74.3883 25.9701C74.4025 25.8761 74.426 25.7887 74.4589 25.7081C74.4917 25.6267 74.5365 25.5554 74.5933 25.4942C74.65 25.433 74.7206 25.3852 74.8049 25.3508C74.89 25.3158 74.992 25.2982 75.1107 25.2982C75.1443 25.2982 75.1805 25.3001 75.2193 25.3038C75.2581 25.3068 75.2902 25.312 75.3156 25.3195V25.4796C75.288 25.4699 75.2562 25.4628 75.2204 25.4584C75.1853 25.4539 75.1499 25.4516 75.114 25.4516C74.9752 25.4516 74.8658 25.4819 74.7859 25.5423C74.7068 25.6028 74.6496 25.6849 74.6146 25.7887C74.5795 25.8917 74.5593 26.0078 74.5541 26.137H74.5664C74.5895 26.0997 74.619 26.0661 74.6549 26.0362C74.6907 26.0056 74.734 25.9813 74.7848 25.9634C74.8363 25.9455 74.896 25.9365 74.964 25.9365C75.0595 25.9365 75.1428 25.9559 75.2137 25.9948C75.2854 26.0336 75.3406 26.09 75.3794 26.1639C75.419 26.2378 75.4388 26.3274 75.4388 26.4326C75.4388 26.5454 75.4179 26.6428 75.3761 26.7249C75.3343 26.8071 75.2745 26.8705 75.1969 26.9153C75.12 26.9594 75.0282 26.9814 74.9214 26.9814C74.8415 26.9814 74.768 26.9661 74.7008 26.9355C74.6336 26.9049 74.575 26.8593 74.525 26.7988C74.4757 26.7384 74.4372 26.6633 74.4096 26.5737C74.382 26.4834 74.3682 26.3785 74.3682 26.2591ZM74.9192 26.8246C75.0207 26.8246 75.1021 26.7921 75.1633 26.7272C75.2245 26.6622 75.2551 26.564 75.2551 26.4326C75.2551 26.3251 75.2279 26.24 75.1734 26.1773C75.1189 26.1146 75.0367 26.0832 74.927 26.0832C74.8523 26.0832 74.7874 26.0989 74.7321 26.1303C74.6769 26.1609 74.634 26.1997 74.6034 26.2467C74.5727 26.2938 74.5574 26.3416 74.5574 26.3901C74.5574 26.4394 74.5645 26.4894 74.5787 26.5402C74.5936 26.5909 74.616 26.638 74.6459 26.6813C74.6758 26.7246 74.7135 26.7593 74.759 26.7854C74.8046 26.8115 74.8579 26.8246 74.9192 26.8246ZM76.739 26.0194C76.739 26.1187 76.7319 26.2154 76.7177 26.3095C76.7042 26.4035 76.6807 26.4912 76.6471 26.5726C76.6143 26.654 76.5695 26.7253 76.5127 26.7865C76.456 26.8477 76.3847 26.8959 76.2988 26.931C76.2137 26.9653 76.1118 26.9825 75.9931 26.9825C75.961 26.9825 75.9244 26.9803 75.8834 26.9758C75.8423 26.972 75.8087 26.9665 75.7826 26.959V26.7977C75.8102 26.8074 75.8427 26.8153 75.88 26.8212C75.9173 26.8265 75.9539 26.8291 75.9898 26.8291C76.1294 26.8291 76.2391 26.7992 76.319 26.7395C76.3989 26.679 76.4564 26.5973 76.4915 26.4942C76.5266 26.3905 76.5463 26.274 76.5508 26.1448H76.5374C76.515 26.1807 76.4855 26.2139 76.4489 26.2445C76.4131 26.2744 76.3694 26.2986 76.3179 26.3173C76.2664 26.3352 76.2063 26.3442 76.1376 26.3442C76.0428 26.3442 75.9599 26.3248 75.889 26.2859C75.8188 26.2471 75.7639 26.1907 75.7244 26.1168C75.6855 26.0429 75.6661 25.9537 75.6661 25.8492C75.6661 25.7365 75.6874 25.639 75.7299 25.5569C75.7733 25.474 75.8337 25.4102 75.9114 25.3654C75.989 25.3206 76.0805 25.2982 76.1857 25.2982C76.2664 25.2982 76.3403 25.3135 76.4075 25.3441C76.4747 25.3747 76.5329 25.4206 76.5822 25.4819C76.6322 25.5423 76.6706 25.6174 76.6975 25.707C76.7251 25.7966 76.739 25.9007 76.739 26.0194ZM76.1857 25.4561C76.0864 25.4561 76.0058 25.4886 75.9438 25.5535C75.8826 25.6185 75.852 25.7163 75.852 25.8469C75.852 25.9552 75.8785 26.0407 75.9315 26.1034C75.9845 26.1661 76.0663 26.1975 76.1768 26.1975C76.2529 26.1975 76.3186 26.1822 76.3739 26.1516C76.4299 26.1209 76.4728 26.0821 76.5027 26.0351C76.5333 25.9881 76.5486 25.9399 76.5486 25.8906C76.5486 25.8413 76.5411 25.7913 76.5262 25.7406C76.512 25.6898 76.49 25.6431 76.4601 25.6006C76.4302 25.5573 76.3925 25.5226 76.347 25.4964C76.3015 25.4696 76.2477 25.4561 76.1857 25.4561ZM77.5173 25.2982C77.6121 25.2982 77.6961 25.3131 77.7692 25.343C77.8424 25.3729 77.8995 25.4169 77.9406 25.4751C77.9824 25.5326 78.0033 25.6036 78.0033 25.6879C78.0033 25.7544 77.9887 25.8126 77.9596 25.8626C77.9313 25.9119 77.8928 25.9552 77.8443 25.9925C77.7957 26.0291 77.742 26.062 77.683 26.0911C77.7532 26.1232 77.8163 26.1594 77.8723 26.1997C77.929 26.24 77.9738 26.2874 78.0067 26.3419C78.0395 26.3964 78.0559 26.461 78.0559 26.5357C78.0559 26.6275 78.0335 26.707 77.9887 26.7742C77.9447 26.8407 77.8827 26.8918 77.8028 26.9276C77.723 26.9635 77.6293 26.9814 77.5218 26.9814C77.406 26.9814 77.3075 26.9642 77.2261 26.9299C77.1455 26.8948 77.0839 26.8448 77.0413 26.7798C76.9995 26.7141 76.9786 26.6353 76.9786 26.5435C76.9786 26.4681 76.9947 26.4028 77.0268 26.3475C77.0589 26.2915 77.1014 26.2434 77.1544 26.2031C77.2074 26.1628 77.2653 26.1288 77.328 26.1012C77.2735 26.0713 77.2235 26.0373 77.1779 25.9993C77.1332 25.9612 77.0973 25.9168 77.0704 25.866C77.0443 25.8145 77.0312 25.7547 77.0312 25.6868C77.0312 25.6039 77.0521 25.5338 77.094 25.4763C77.1365 25.418 77.1944 25.374 77.2675 25.3441C77.3415 25.3135 77.4247 25.2982 77.5173 25.2982ZM77.1612 26.5446C77.1612 26.6282 77.1906 26.6973 77.2496 26.7518C77.3086 26.8056 77.3978 26.8324 77.5173 26.8324C77.6308 26.8324 77.7185 26.8056 77.7804 26.7518C77.8424 26.6973 77.8734 26.626 77.8734 26.5379C77.8734 26.4834 77.8592 26.4356 77.8308 26.3946C77.8025 26.3528 77.7622 26.3154 77.7099 26.2826C77.6576 26.2497 77.596 26.2199 77.5251 26.193L77.4848 26.1784C77.4161 26.2068 77.3575 26.2385 77.309 26.2736C77.2612 26.308 77.2246 26.3472 77.1992 26.3912C77.1738 26.4353 77.1612 26.4864 77.1612 26.5446ZM77.515 25.4505C77.4269 25.4505 77.3549 25.4718 77.2989 25.5143C77.2429 25.5562 77.2149 25.6166 77.2149 25.6958C77.2149 25.7525 77.2283 25.8007 77.2552 25.8402C77.2828 25.8791 77.3202 25.9126 77.3672 25.941C77.4142 25.9686 77.4669 25.9944 77.5251 26.0183C77.5819 25.9944 77.6322 25.9683 77.6763 25.9399C77.7203 25.9108 77.7551 25.8764 77.7804 25.8369C77.8058 25.7973 77.8185 25.7499 77.8185 25.6946C77.8185 25.6155 77.7905 25.555 77.7345 25.5132C77.6793 25.4714 77.6061 25.4505 77.515 25.4505ZM78.8062 25.9578C78.9175 25.9578 79.0142 25.9769 79.0963 26.0149C79.1784 26.0523 79.2419 26.1068 79.2867 26.1784C79.3322 26.2501 79.355 26.3371 79.355 26.4394C79.355 26.5513 79.3307 26.648 79.2822 26.7294C79.2337 26.81 79.1639 26.8724 79.0728 26.9164C78.9817 26.9597 78.8727 26.9814 78.7458 26.9814C78.6607 26.9814 78.5815 26.9739 78.5084 26.959C78.4352 26.9441 78.3736 26.9217 78.3236 26.8918V26.7149C78.3781 26.7477 78.4442 26.7738 78.5218 26.7932C78.5994 26.8127 78.6748 26.8224 78.748 26.8224C78.8309 26.8224 78.9033 26.8093 78.9653 26.7832C79.028 26.7563 79.0765 26.716 79.1109 26.6622C79.1459 26.6077 79.1635 26.5394 79.1635 26.4573C79.1635 26.3483 79.1299 26.2643 79.0627 26.2053C78.9963 26.1456 78.891 26.1157 78.7469 26.1157C78.7006 26.1157 78.6498 26.1195 78.5946 26.1269C78.5393 26.1344 78.4938 26.1426 78.458 26.1516L78.3639 26.09L78.4266 25.3217H79.2408V25.4919H78.5856L78.5442 25.9858C78.5726 25.9798 78.6091 25.9739 78.6539 25.9679C78.6987 25.9612 78.7495 25.9578 78.8062 25.9578ZM79.6182 26.2591C79.6182 26.1605 79.6249 26.0642 79.6383 25.9701C79.6525 25.8761 79.676 25.7887 79.7089 25.7081C79.7417 25.6267 79.7865 25.5554 79.8433 25.4942C79.9 25.433 79.9705 25.3852 80.0549 25.3508C80.14 25.3158 80.2419 25.2982 80.3606 25.2982C80.3942 25.2982 80.4304 25.3001 80.4693 25.3038C80.5081 25.3068 80.5402 25.312 80.5656 25.3195V25.4796C80.5379 25.4699 80.5062 25.4628 80.4704 25.4584C80.4353 25.4539 80.3998 25.4516 80.364 25.4516C80.2251 25.4516 80.1158 25.4819 80.0359 25.5423C79.9567 25.6028 79.8996 25.6849 79.8645 25.7887C79.8294 25.8917 79.8093 26.0078 79.8041 26.137H79.8164C79.8395 26.0997 79.869 26.0661 79.9048 26.0362C79.9407 26.0056 79.984 25.9813 80.0348 25.9634C80.0863 25.9455 80.146 25.9365 80.2139 25.9365C80.3095 25.9365 80.3927 25.9559 80.4637 25.9948C80.5353 26.0336 80.5906 26.09 80.6294 26.1639C80.669 26.2378 80.6888 26.3274 80.6888 26.4326C80.6888 26.5454 80.6679 26.6428 80.626 26.7249C80.5842 26.8071 80.5245 26.8705 80.4469 26.9153C80.37 26.9594 80.2781 26.9814 80.1714 26.9814C80.0915 26.9814 80.018 26.9661 79.9508 26.9355C79.8836 26.9049 79.825 26.8593 79.7749 26.7988C79.7257 26.7384 79.6872 26.6633 79.6596 26.5737C79.632 26.4834 79.6182 26.3785 79.6182 26.2591ZM80.1691 26.8246C80.2707 26.8246 80.352 26.7921 80.4133 26.7272C80.4745 26.6622 80.5051 26.564 80.5051 26.4326C80.5051 26.3251 80.4778 26.24 80.4233 26.1773C80.3688 26.1146 80.2867 26.0832 80.177 26.0832C80.1023 26.0832 80.0374 26.0989 79.9821 26.1303C79.9269 26.1609 79.8839 26.1997 79.8533 26.2467C79.8227 26.2938 79.8074 26.3416 79.8074 26.3901C79.8074 26.4394 79.8145 26.4894 79.8287 26.5402C79.8436 26.5909 79.866 26.638 79.8959 26.6813C79.9257 26.7246 79.9635 26.7593 80.009 26.7854C80.0545 26.8115 80.1079 26.8246 80.1691 26.8246Z" fill="#212121"/>
<path d="M74.1117 31.3164H73.0389V31.1607L73.4768 30.7162C73.5581 30.634 73.6264 30.5609 73.6817 30.4967C73.7377 30.4325 73.7802 30.3694 73.8094 30.3074C73.8385 30.2447 73.853 30.176 73.853 30.1013C73.853 30.0088 73.8254 29.9382 73.7702 29.8897C73.7157 29.8404 73.6436 29.8158 73.554 29.8158C73.4756 29.8158 73.4062 29.8292 73.3457 29.8561C73.2853 29.883 73.2233 29.921 73.1598 29.9703L73.0602 29.8449C73.1035 29.8083 73.1505 29.7758 73.2013 29.7475C73.2528 29.7191 73.3077 29.6967 73.3659 29.6803C73.4249 29.6638 73.4876 29.6556 73.554 29.6556C73.6548 29.6556 73.7418 29.6732 73.815 29.7083C73.8881 29.7434 73.9445 29.7934 73.9841 29.8583C74.0244 29.9233 74.0445 30.0006 74.0445 30.0901C74.0445 30.1767 74.0274 30.2574 73.993 30.332C73.9587 30.4059 73.9105 30.4795 73.8486 30.5527C73.7866 30.6251 73.7142 30.702 73.6313 30.7833L73.2752 31.1383V31.1462H74.1117V31.3164ZM75.4332 30.4955C75.4332 30.6284 75.4231 30.7471 75.4029 30.8517C75.3828 30.9562 75.3511 31.0446 75.3078 31.1171C75.2645 31.1895 75.2085 31.2447 75.1398 31.2828C75.0711 31.3201 74.9886 31.3388 74.8923 31.3388C74.7706 31.3388 74.6698 31.3056 74.5899 31.2391C74.5108 31.1727 74.4514 31.0768 74.4119 30.9513C74.373 30.8252 74.3536 30.6732 74.3536 30.4955C74.3536 30.3208 74.3712 30.1708 74.4063 30.0453C74.4421 29.9192 74.4996 29.8225 74.5787 29.7553C74.6579 29.6874 74.7624 29.6534 74.8923 29.6534C75.0155 29.6534 75.117 29.687 75.1969 29.7542C75.2768 29.8206 75.3361 29.9169 75.3749 30.0431C75.4138 30.1685 75.4332 30.3193 75.4332 30.4955ZM74.5406 30.4955C74.5406 30.6478 74.5522 30.7748 74.5754 30.8763C74.5985 30.9778 74.6358 31.054 74.6873 31.1047C74.7396 31.1548 74.8079 31.1798 74.8923 31.1798C74.9766 31.1798 75.0446 31.1548 75.0961 31.1047C75.1484 31.0547 75.1861 30.979 75.2092 30.8774C75.2331 30.7759 75.245 30.6486 75.245 30.4955C75.245 30.3455 75.2335 30.22 75.2103 30.1193C75.1872 30.0177 75.1499 29.9416 75.0983 29.8908C75.0468 29.8393 74.9781 29.8135 74.8923 29.8135C74.8064 29.8135 74.7377 29.8393 74.6862 29.8908C74.6347 29.9416 74.5974 30.0177 74.5742 30.1193C74.5518 30.22 74.5406 30.3455 74.5406 30.4955ZM76.7457 30.4955C76.7457 30.6284 76.7356 30.7471 76.7154 30.8517C76.6953 30.9562 76.6636 31.0446 76.6203 31.1171C76.5769 31.1895 76.521 31.2447 76.4523 31.2828C76.3836 31.3201 76.3011 31.3388 76.2048 31.3388C76.0831 31.3388 75.9823 31.3056 75.9024 31.2391C75.8233 31.1727 75.7639 31.0768 75.7244 30.9513C75.6855 30.8252 75.6661 30.6732 75.6661 30.4955C75.6661 30.3208 75.6837 30.1708 75.7188 30.0453C75.7546 29.9192 75.8121 29.8225 75.8912 29.7553C75.9703 29.6874 76.0749 29.6534 76.2048 29.6534C76.328 29.6534 76.4295 29.687 76.5094 29.7542C76.5893 29.8206 76.6486 29.9169 76.6874 30.0431C76.7263 30.1685 76.7457 30.3193 76.7457 30.4955ZM75.8531 30.4955C75.8531 30.6478 75.8647 30.7748 75.8879 30.8763C75.911 30.9778 75.9483 31.054 75.9998 31.1047C76.0521 31.1548 76.1204 31.1798 76.2048 31.1798C76.2891 31.1798 76.3571 31.1548 76.4086 31.1047C76.4609 31.0547 76.4986 30.979 76.5217 30.8774C76.5456 30.7759 76.5575 30.6486 76.5575 30.4955C76.5575 30.3455 76.546 30.22 76.5228 30.1193C76.4997 30.0177 76.4623 29.9416 76.4108 29.8908C76.3593 29.8393 76.2906 29.8135 76.2048 29.8135C76.1189 29.8135 76.0502 29.8393 75.9987 29.8908C75.9472 29.9416 75.9099 30.0177 75.8867 30.1193C75.8643 30.22 75.8531 30.3455 75.8531 30.4955ZM78.0492 31.3164H76.9764V31.1607L77.4142 30.7162C77.4956 30.634 77.5639 30.5609 77.6192 30.4967C77.6752 30.4325 77.7177 30.3694 77.7468 30.3074C77.776 30.2447 77.7905 30.176 77.7905 30.1013C77.7905 30.0088 77.7629 29.9382 77.7076 29.8897C77.6531 29.8404 77.5811 29.8158 77.4915 29.8158C77.4131 29.8158 77.3437 29.8292 77.2832 29.8561C77.2227 29.883 77.1608 29.921 77.0973 29.9703L76.9976 29.8449C77.041 29.8083 77.088 29.7758 77.1388 29.7475C77.1903 29.7191 77.2451 29.6967 77.3034 29.6803C77.3624 29.6638 77.4251 29.6556 77.4915 29.6556C77.5923 29.6556 77.6793 29.6732 77.7524 29.7083C77.8256 29.7434 77.882 29.7934 77.9215 29.8583C77.9619 29.9233 77.982 30.0006 77.982 30.0901C77.982 30.1767 77.9648 30.2574 77.9305 30.332C77.8962 30.4059 77.848 30.4795 77.786 30.5527C77.7241 30.6251 77.6517 30.702 77.5688 30.7833L77.2127 31.1383V31.1462H78.0492V31.3164ZM78.8062 30.3152C78.9175 30.3152 79.0142 30.3343 79.0963 30.3724C79.1784 30.4097 79.2419 30.4642 79.2867 30.5359C79.3322 30.6075 79.355 30.6945 79.355 30.7968C79.355 30.9088 79.3307 31.0055 79.2822 31.0868C79.2337 31.1675 79.1639 31.2298 79.0728 31.2739C78.9817 31.3172 78.8727 31.3388 78.7458 31.3388C78.6607 31.3388 78.5815 31.3313 78.5084 31.3164C78.4352 31.3015 78.3736 31.2791 78.3236 31.2492V31.0723C78.3781 31.1051 78.4442 31.1313 78.5218 31.1507C78.5994 31.1701 78.6748 31.1798 78.748 31.1798C78.8309 31.1798 78.9033 31.1667 78.9653 31.1406C79.028 31.1137 79.0765 31.0734 79.1109 31.0196C79.1459 30.9651 79.1635 30.8968 79.1635 30.8147C79.1635 30.7057 79.1299 30.6217 79.0627 30.5627C78.9963 30.503 78.891 30.4731 78.7469 30.4731C78.7006 30.4731 78.6498 30.4769 78.5946 30.4843C78.5393 30.4918 78.4938 30.5 78.458 30.509L78.3639 30.4474L78.4266 29.6791H79.2408V29.8494H78.5856L78.5442 30.3432C78.5726 30.3373 78.6091 30.3313 78.6539 30.3253C78.6987 30.3186 78.7495 30.3152 78.8062 30.3152ZM80.1423 29.6556C80.2371 29.6556 80.3211 29.6706 80.3942 29.7004C80.4674 29.7303 80.5245 29.7743 80.5656 29.8326C80.6074 29.8901 80.6283 29.961 80.6283 30.0453C80.6283 30.1118 80.6137 30.17 80.5846 30.22C80.5562 30.2693 80.5178 30.3126 80.4693 30.35C80.4207 30.3865 80.367 30.4194 80.308 30.4485C80.3782 30.4806 80.4413 30.5168 80.4973 30.5571C80.554 30.5974 80.5988 30.6449 80.6316 30.6994C80.6645 30.7539 80.6809 30.8184 80.6809 30.8931C80.6809 30.9849 80.6585 31.0644 80.6137 31.1316C80.5697 31.1981 80.5077 31.2492 80.4278 31.285C80.3479 31.3209 80.2542 31.3388 80.1467 31.3388C80.031 31.3388 79.9325 31.3216 79.8511 31.2873C79.7705 31.2522 79.7089 31.2022 79.6663 31.1372C79.6245 31.0715 79.6036 30.9928 79.6036 30.9009C79.6036 30.8255 79.6197 30.7602 79.6518 30.705C79.6839 30.649 79.7264 30.6008 79.7794 30.5605C79.8324 30.5202 79.8903 30.4862 79.953 30.4586C79.8985 30.4287 79.8485 30.3947 79.8029 30.3567C79.7581 30.3186 79.7223 30.2742 79.6954 30.2234C79.6693 30.1719 79.6562 30.1122 79.6562 30.0442C79.6562 29.9614 79.6771 29.8912 79.7189 29.8337C79.7615 29.7755 79.8194 29.7314 79.8925 29.7015C79.9664 29.6709 80.0497 29.6556 80.1423 29.6556ZM79.7861 30.9021C79.7861 30.9857 79.8156 31.0547 79.8746 31.1092C79.9336 31.163 80.0228 31.1899 80.1423 31.1899C80.2557 31.1899 80.3435 31.163 80.4054 31.1092C80.4674 31.0547 80.4984 30.9834 80.4984 30.8953C80.4984 30.8408 80.4842 30.7931 80.4558 30.752C80.4275 30.7102 80.3871 30.6729 80.3349 30.64C80.2826 30.6072 80.221 30.5773 80.1501 30.5504L80.1098 30.5359C80.0411 30.5642 79.9825 30.596 79.934 30.631C79.8862 30.6654 79.8496 30.7046 79.8242 30.7486C79.7988 30.7927 79.7861 30.8438 79.7861 30.9021ZM80.14 29.8079C80.0519 29.8079 79.9799 29.8292 79.9239 29.8718C79.8679 29.9136 79.8399 29.974 79.8399 30.0532C79.8399 30.1099 79.8533 30.1581 79.8802 30.1977C79.9078 30.2365 79.9452 30.2701 79.9922 30.2984C80.0392 30.3261 80.0919 30.3518 80.1501 30.3757C80.2068 30.3518 80.2572 30.3257 80.3013 30.2973C80.3453 30.2682 80.38 30.2339 80.4054 30.1943C80.4308 30.1547 80.4435 30.1073 80.4435 30.0521C80.4435 29.9729 80.4155 29.9125 80.3595 29.8706C80.3043 29.8288 80.2311 29.8079 80.14 29.8079Z" fill="#212121"/>
<rect x="11.002" y="25.6484" width="48.1636" height="2.29351" rx="1.14675" fill="#E7E7E7"/>
<rect x="11.002" y="29.5469" width="43.5766" height="2.29351" rx="1.14675" fill="#D5F263"/>
<path d="M73.731 38.5703H73.5496V37.4101C73.5496 37.3661 73.5496 37.3284 73.5496 37.297C73.5503 37.2649 73.551 37.2358 73.5518 37.2097C73.5533 37.1828 73.5552 37.1555 73.5574 37.1279C73.5342 37.1518 73.5126 37.1723 73.4924 37.1895C73.4723 37.2059 73.4473 37.2265 73.4174 37.2511L73.2304 37.4012L73.133 37.2746L73.5764 36.9331H73.731V38.5703ZM74.8923 36.9095C74.9871 36.9095 75.0711 36.9245 75.1443 36.9543C75.2174 36.9842 75.2745 37.0282 75.3156 37.0865C75.3574 37.144 75.3783 37.2149 75.3783 37.2993C75.3783 37.3657 75.3638 37.4239 75.3346 37.474C75.3063 37.5232 75.2678 37.5665 75.2193 37.6039C75.1708 37.6404 75.117 37.6733 75.058 37.7024C75.1282 37.7345 75.1913 37.7707 75.2473 37.811C75.304 37.8514 75.3488 37.8988 75.3817 37.9533C75.4145 38.0078 75.4309 38.0723 75.4309 38.147C75.4309 38.2388 75.4085 38.3183 75.3638 38.3855C75.3197 38.452 75.2577 38.5031 75.1779 38.539C75.098 38.5748 75.0043 38.5927 74.8968 38.5927C74.781 38.5927 74.6825 38.5755 74.6011 38.5412C74.5205 38.5061 74.4589 38.4561 74.4163 38.3911C74.3745 38.3254 74.3536 38.2467 74.3536 38.1548C74.3536 38.0794 74.3697 38.0141 74.4018 37.9589C74.4339 37.9029 74.4764 37.8547 74.5294 37.8144C74.5825 37.7741 74.6403 37.7401 74.703 37.7125C74.6485 37.6826 74.5985 37.6487 74.553 37.6106C74.5082 37.5725 74.4723 37.5281 74.4455 37.4773C74.4193 37.4258 74.4063 37.3661 74.4063 37.2981C74.4063 37.2153 74.4272 37.1451 74.469 37.0876C74.5115 37.0294 74.5694 36.9853 74.6426 36.9555C74.7165 36.9248 74.7997 36.9095 74.8923 36.9095ZM74.5362 38.156C74.5362 38.2396 74.5657 38.3086 74.6246 38.3631C74.6836 38.4169 74.7728 38.4438 74.8923 38.4438C75.0058 38.4438 75.0935 38.4169 75.1555 38.3631C75.2174 38.3086 75.2484 38.2373 75.2484 38.1492C75.2484 38.0947 75.2342 38.047 75.2058 38.0059C75.1775 37.9641 75.1372 37.9268 75.0849 37.8939C75.0326 37.8611 74.971 37.8312 74.9001 37.8043L74.8598 37.7898C74.7911 37.8181 74.7325 37.8499 74.684 37.8849C74.6362 37.9193 74.5996 37.9585 74.5742 38.0025C74.5489 38.0466 74.5362 38.0977 74.5362 38.156ZM74.89 37.0618C74.8019 37.0618 74.7299 37.0831 74.6739 37.1257C74.6179 37.1675 74.5899 37.228 74.5899 37.3071C74.5899 37.3638 74.6034 37.412 74.6302 37.4516C74.6579 37.4904 74.6952 37.524 74.7422 37.5523C74.7893 37.58 74.8419 37.6057 74.9001 37.6296C74.9569 37.6057 75.0073 37.5796 75.0513 37.5512C75.0954 37.5221 75.1301 37.4878 75.1555 37.4482C75.1808 37.4086 75.1935 37.3612 75.1935 37.306C75.1935 37.2268 75.1655 37.1664 75.1095 37.1246C75.0543 37.0827 74.9811 37.0618 74.89 37.0618ZM76.739 37.6307C76.739 37.73 76.7319 37.8267 76.7177 37.9208C76.7042 38.0149 76.6807 38.1026 76.6471 38.184C76.6143 38.2653 76.5695 38.3366 76.5127 38.3979C76.456 38.4591 76.3847 38.5072 76.2988 38.5423C76.2137 38.5767 76.1118 38.5938 75.9931 38.5938C75.961 38.5938 75.9244 38.5916 75.8834 38.5871C75.8423 38.5834 75.8087 38.5778 75.7826 38.5703V38.4091C75.8102 38.4188 75.8427 38.4266 75.88 38.4326C75.9173 38.4378 75.9539 38.4404 75.9898 38.4404C76.1294 38.4404 76.2391 38.4105 76.319 38.3508C76.3989 38.2903 76.4564 38.2086 76.4915 38.1056C76.5266 38.0018 76.5463 37.8853 76.5508 37.7562H76.5374C76.515 37.792 76.4855 37.8252 76.4489 37.8558C76.4131 37.8857 76.3694 37.91 76.3179 37.9286C76.2664 37.9465 76.2063 37.9555 76.1376 37.9555C76.0428 37.9555 75.9599 37.9361 75.889 37.8973C75.8188 37.8584 75.7639 37.8021 75.7244 37.7282C75.6855 37.6543 75.6661 37.565 75.6661 37.4605C75.6661 37.3478 75.6874 37.2504 75.7299 37.1682C75.7733 37.0854 75.8337 37.0215 75.9114 36.9767C75.989 36.9319 76.0805 36.9095 76.1857 36.9095C76.2664 36.9095 76.3403 36.9248 76.4075 36.9555C76.4747 36.9861 76.5329 37.032 76.5822 37.0932C76.6322 37.1537 76.6706 37.2287 76.6975 37.3183C76.7251 37.4079 76.739 37.512 76.739 37.6307ZM76.1857 37.0674C76.0864 37.0674 76.0058 37.0999 75.9438 37.1649C75.8826 37.2298 75.852 37.3276 75.852 37.4583C75.852 37.5665 75.8785 37.652 75.9315 37.7147C75.9845 37.7774 76.0663 37.8088 76.1768 37.8088C76.2529 37.8088 76.3186 37.7935 76.3739 37.7629C76.4299 37.7323 76.4728 37.6935 76.5027 37.6464C76.5333 37.5994 76.5486 37.5512 76.5486 37.502C76.5486 37.4527 76.5411 37.4027 76.5262 37.3519C76.512 37.3011 76.49 37.2545 76.4601 37.2119C76.4302 37.1686 76.3925 37.1339 76.347 37.1078C76.3015 37.0809 76.2477 37.0674 76.1857 37.0674ZM77.5173 36.9095C77.6121 36.9095 77.6961 36.9245 77.7692 36.9543C77.8424 36.9842 77.8995 37.0282 77.9406 37.0865C77.9824 37.144 78.0033 37.2149 78.0033 37.2993C78.0033 37.3657 77.9887 37.4239 77.9596 37.474C77.9313 37.5232 77.8928 37.5665 77.8443 37.6039C77.7957 37.6404 77.742 37.6733 77.683 37.7024C77.7532 37.7345 77.8163 37.7707 77.8723 37.811C77.929 37.8514 77.9738 37.8988 78.0067 37.9533C78.0395 38.0078 78.0559 38.0723 78.0559 38.147C78.0559 38.2388 78.0335 38.3183 77.9887 38.3855C77.9447 38.452 77.8827 38.5031 77.8028 38.539C77.723 38.5748 77.6293 38.5927 77.5218 38.5927C77.406 38.5927 77.3075 38.5755 77.2261 38.5412C77.1455 38.5061 77.0839 38.4561 77.0413 38.3911C76.9995 38.3254 76.9786 38.2467 76.9786 38.1548C76.9786 38.0794 76.9947 38.0141 77.0268 37.9589C77.0589 37.9029 77.1014 37.8547 77.1544 37.8144C77.2074 37.7741 77.2653 37.7401 77.328 37.7125C77.2735 37.6826 77.2235 37.6487 77.1779 37.6106C77.1332 37.5725 77.0973 37.5281 77.0704 37.4773C77.0443 37.4258 77.0312 37.3661 77.0312 37.2981C77.0312 37.2153 77.0521 37.1451 77.094 37.0876C77.1365 37.0294 77.1944 36.9853 77.2675 36.9555C77.3415 36.9248 77.4247 36.9095 77.5173 36.9095ZM77.1612 38.156C77.1612 38.2396 77.1906 38.3086 77.2496 38.3631C77.3086 38.4169 77.3978 38.4438 77.5173 38.4438C77.6308 38.4438 77.7185 38.4169 77.7804 38.3631C77.8424 38.3086 77.8734 38.2373 77.8734 38.1492C77.8734 38.0947 77.8592 38.047 77.8308 38.0059C77.8025 37.9641 77.7622 37.9268 77.7099 37.8939C77.6576 37.8611 77.596 37.8312 77.5251 37.8043L77.4848 37.7898C77.4161 37.8181 77.3575 37.8499 77.309 37.8849C77.2612 37.9193 77.2246 37.9585 77.1992 38.0025C77.1738 38.0466 77.1612 38.0977 77.1612 38.156ZM77.515 37.0618C77.4269 37.0618 77.3549 37.0831 77.2989 37.1257C77.2429 37.1675 77.2149 37.228 77.2149 37.3071C77.2149 37.3638 77.2283 37.412 77.2552 37.4516C77.2828 37.4904 77.3202 37.524 77.3672 37.5523C77.4142 37.58 77.4669 37.6057 77.5251 37.6296C77.5819 37.6057 77.6322 37.5796 77.6763 37.5512C77.7203 37.5221 77.7551 37.4878 77.7804 37.4482C77.8058 37.4086 77.8185 37.3612 77.8185 37.306C77.8185 37.2268 77.7905 37.1664 77.7345 37.1246C77.6793 37.0827 77.6061 37.0618 77.515 37.0618ZM78.8062 37.5691C78.9175 37.5691 79.0142 37.5882 79.0963 37.6263C79.1784 37.6636 79.2419 37.7181 79.2867 37.7898C79.3322 37.8614 79.355 37.9484 79.355 38.0507C79.355 38.1627 79.3307 38.2594 79.2822 38.3407C79.2337 38.4214 79.1639 38.4837 79.0728 38.5278C78.9817 38.5711 78.8727 38.5927 78.7458 38.5927C78.6607 38.5927 78.5815 38.5852 78.5084 38.5703C78.4352 38.5554 78.3736 38.533 78.3236 38.5031V38.3262C78.3781 38.359 78.4442 38.3852 78.5218 38.4046C78.5994 38.424 78.6748 38.4337 78.748 38.4337C78.8309 38.4337 78.9033 38.4206 78.9653 38.3945C79.028 38.3676 79.0765 38.3273 79.1109 38.2735C79.1459 38.219 79.1635 38.1507 79.1635 38.0686C79.1635 37.9596 79.1299 37.8756 79.0627 37.8166C78.9963 37.7569 78.891 37.727 78.7469 37.727C78.7006 37.727 78.6498 37.7308 78.5946 37.7382C78.5393 37.7457 78.4938 37.7539 78.458 37.7629L78.3639 37.7013L78.4266 36.9331H79.2408V37.1033H78.5856L78.5442 37.5971C78.5726 37.5912 78.6091 37.5852 78.6539 37.5792C78.6987 37.5725 78.7495 37.5691 78.8062 37.5691ZM79.6182 37.8704C79.6182 37.7718 79.6249 37.6755 79.6383 37.5815C79.6525 37.4874 79.676 37.4 79.7089 37.3194C79.7417 37.238 79.7865 37.1667 79.8433 37.1055C79.9 37.0443 79.9705 36.9965 80.0549 36.9622C80.14 36.9271 80.2419 36.9095 80.3606 36.9095C80.3942 36.9095 80.4304 36.9114 80.4693 36.9151C80.5081 36.9181 80.5402 36.9233 80.5656 36.9308V37.091C80.5379 37.0813 80.5062 37.0742 80.4704 37.0697C80.4353 37.0652 80.3998 37.063 80.364 37.063C80.2251 37.063 80.1158 37.0932 80.0359 37.1537C79.9567 37.2141 79.8996 37.2963 79.8645 37.4C79.8294 37.5031 79.8093 37.6192 79.8041 37.7483H79.8164C79.8395 37.711 79.869 37.6774 79.9048 37.6475C79.9407 37.6169 79.984 37.5927 80.0348 37.5747C80.0863 37.5568 80.146 37.5479 80.2139 37.5479C80.3095 37.5479 80.3927 37.5673 80.4637 37.6061C80.5353 37.6449 80.5906 37.7013 80.6294 37.7752C80.669 37.8491 80.6888 37.9387 80.6888 38.044C80.6888 38.1567 80.6679 38.2541 80.626 38.3363C80.5842 38.4184 80.5245 38.4818 80.4469 38.5266C80.37 38.5707 80.2781 38.5927 80.1714 38.5927C80.0915 38.5927 80.018 38.5774 79.9508 38.5468C79.8836 38.5162 79.825 38.4706 79.7749 38.4102C79.7257 38.3497 79.6872 38.2747 79.6596 38.1851C79.632 38.0947 79.6182 37.9898 79.6182 37.8704ZM80.1691 38.4359C80.2707 38.4359 80.352 38.4035 80.4133 38.3385C80.4745 38.2735 80.5051 38.1754 80.5051 38.044C80.5051 37.9365 80.4778 37.8514 80.4233 37.7886C80.3688 37.7259 80.2867 37.6946 80.177 37.6946C80.1023 37.6946 80.0374 37.7102 79.9821 37.7416C79.9269 37.7722 79.8839 37.811 79.8533 37.8581C79.8227 37.9051 79.8074 37.9529 79.8074 38.0014C79.8074 38.0507 79.8145 38.1007 79.8287 38.1515C79.8436 38.2022 79.866 38.2493 79.8959 38.2926C79.9257 38.3359 79.9635 38.3706 80.009 38.3967C80.0545 38.4229 80.1079 38.4359 80.1691 38.4359Z" fill="#212121"/>
<path d="M73.731 43.6152H73.5496V42.455C73.5496 42.411 73.5496 42.3733 73.5496 42.3419C73.5503 42.3098 73.551 42.2807 73.5518 42.2546C73.5533 42.2277 73.5552 42.2005 73.5574 42.1728C73.5342 42.1967 73.5126 42.2173 73.4924 42.2344C73.4723 42.2509 73.4473 42.2714 73.4174 42.296L73.2304 42.4461L73.133 42.3195L73.5764 41.978H73.731V43.6152ZM74.8923 41.9545C74.9871 41.9545 75.0711 41.9694 75.1443 41.9993C75.2174 42.0291 75.2745 42.0732 75.3156 42.1314C75.3574 42.1889 75.3783 42.2598 75.3783 42.3442C75.3783 42.4106 75.3638 42.4689 75.3346 42.5189C75.3063 42.5682 75.2678 42.6115 75.2193 42.6488C75.1708 42.6854 75.117 42.7182 75.058 42.7473C75.1282 42.7794 75.1913 42.8156 75.2473 42.856C75.304 42.8963 75.3488 42.9437 75.3817 42.9982C75.4145 43.0527 75.4309 43.1173 75.4309 43.1919C75.4309 43.2838 75.4085 43.3633 75.3638 43.4305C75.3197 43.4969 75.2577 43.548 75.1779 43.5839C75.098 43.6197 75.0043 43.6376 74.8968 43.6376C74.781 43.6376 74.6825 43.6205 74.6011 43.5861C74.5205 43.551 74.4589 43.501 74.4163 43.4361C74.3745 43.3704 74.3536 43.2916 74.3536 43.1998C74.3536 43.1244 74.3697 43.059 74.4018 43.0038C74.4339 42.9478 74.4764 42.8996 74.5294 42.8593C74.5825 42.819 74.6403 42.785 74.703 42.7574C74.6485 42.7275 74.5985 42.6936 74.553 42.6555C74.5082 42.6174 74.4723 42.573 74.4455 42.5222C74.4193 42.4707 74.4063 42.411 74.4063 42.3431C74.4063 42.2602 74.4272 42.19 74.469 42.1325C74.5115 42.0743 74.5694 42.0302 74.6426 42.0004C74.7165 41.9698 74.7997 41.9545 74.8923 41.9545ZM74.5362 43.2009C74.5362 43.2845 74.5657 43.3536 74.6246 43.4081C74.6836 43.4618 74.7728 43.4887 74.8923 43.4887C75.0058 43.4887 75.0935 43.4618 75.1555 43.4081C75.2174 43.3536 75.2484 43.2823 75.2484 43.1942C75.2484 43.1397 75.2342 43.0919 75.2058 43.0508C75.1775 43.009 75.1372 42.9717 75.0849 42.9388C75.0326 42.906 74.971 42.8761 74.9001 42.8492L74.8598 42.8347C74.7911 42.8631 74.7325 42.8948 74.684 42.9299C74.6362 42.9642 74.5996 43.0034 74.5742 43.0475C74.5489 43.0915 74.5362 43.1426 74.5362 43.2009ZM74.89 42.1068C74.8019 42.1068 74.7299 42.128 74.6739 42.1706C74.6179 42.2124 74.5899 42.2729 74.5899 42.352C74.5899 42.4088 74.6034 42.4569 74.6302 42.4965C74.6579 42.5353 74.6952 42.5689 74.7422 42.5973C74.7893 42.6249 74.8419 42.6506 74.9001 42.6745C74.9569 42.6506 75.0073 42.6245 75.0513 42.5961C75.0954 42.567 75.1301 42.5327 75.1555 42.4931C75.1808 42.4536 75.1935 42.4061 75.1935 42.3509C75.1935 42.2718 75.1655 42.2113 75.1095 42.1695C75.0543 42.1277 74.9811 42.1068 74.89 42.1068ZM76.739 42.6757C76.739 42.775 76.7319 42.8716 76.7177 42.9657C76.7042 43.0598 76.6807 43.1475 76.6471 43.2289C76.6143 43.3103 76.5695 43.3816 76.5127 43.4428C76.456 43.504 76.3847 43.5521 76.2988 43.5872C76.2137 43.6216 76.1118 43.6388 75.9931 43.6388C75.961 43.6388 75.9244 43.6365 75.8834 43.632C75.8423 43.6283 75.8087 43.6227 75.7826 43.6152V43.454C75.8102 43.4637 75.8427 43.4715 75.88 43.4775C75.9173 43.4827 75.9539 43.4853 75.9898 43.4853C76.1294 43.4853 76.2391 43.4555 76.319 43.3957C76.3989 43.3353 76.4564 43.2535 76.4915 43.1505C76.5266 43.0467 76.5463 42.9302 76.5508 42.8011H76.5374C76.515 42.8369 76.4855 42.8701 76.4489 42.9008C76.4131 42.9306 76.3694 42.9549 76.3179 42.9735C76.2664 42.9915 76.2063 43.0004 76.1376 43.0004C76.0428 43.0004 75.9599 42.981 75.889 42.9422C75.8188 42.9034 75.7639 42.847 75.7244 42.7731C75.6855 42.6992 75.6661 42.61 75.6661 42.5054C75.6661 42.3927 75.6874 42.2953 75.7299 42.2132C75.7733 42.1303 75.8337 42.0664 75.9114 42.0217C75.989 41.9769 76.0805 41.9545 76.1857 41.9545C76.2664 41.9545 76.3403 41.9698 76.4075 42.0004C76.4747 42.031 76.5329 42.0769 76.5822 42.1381C76.6322 42.1986 76.6706 42.2736 76.6975 42.3632C76.7251 42.4528 76.739 42.557 76.739 42.6757ZM76.1857 42.1124C76.0864 42.1124 76.0058 42.1448 75.9438 42.2098C75.8826 42.2747 75.852 42.3725 75.852 42.5032C75.852 42.6115 75.8785 42.6969 75.9315 42.7596C75.9845 42.8224 76.0663 42.8537 76.1768 42.8537C76.2529 42.8537 76.3186 42.8384 76.3739 42.8078C76.4299 42.7772 76.4728 42.7384 76.5027 42.6913C76.5333 42.6443 76.5486 42.5961 76.5486 42.5469C76.5486 42.4976 76.5411 42.4476 76.5262 42.3968C76.512 42.346 76.49 42.2994 76.4601 42.2568C76.4302 42.2135 76.3925 42.1788 76.347 42.1527C76.3015 42.1258 76.2477 42.1124 76.1857 42.1124ZM77.5173 41.9545C77.6121 41.9545 77.6961 41.9694 77.7692 41.9993C77.8424 42.0291 77.8995 42.0732 77.9406 42.1314C77.9824 42.1889 78.0033 42.2598 78.0033 42.3442C78.0033 42.4106 77.9887 42.4689 77.9596 42.5189C77.9313 42.5682 77.8928 42.6115 77.8443 42.6488C77.7957 42.6854 77.742 42.7182 77.683 42.7473C77.7532 42.7794 77.8163 42.8156 77.8723 42.856C77.929 42.8963 77.9738 42.9437 78.0067 42.9982C78.0395 43.0527 78.0559 43.1173 78.0559 43.1919C78.0559 43.2838 78.0335 43.3633 77.9887 43.4305C77.9447 43.4969 77.8827 43.548 77.8028 43.5839C77.723 43.6197 77.6293 43.6376 77.5218 43.6376C77.406 43.6376 77.3075 43.6205 77.2261 43.5861C77.1455 43.551 77.0839 43.501 77.0413 43.4361C76.9995 43.3704 76.9786 43.2916 76.9786 43.1998C76.9786 43.1244 76.9947 43.059 77.0268 43.0038C77.0589 42.9478 77.1014 42.8996 77.1544 42.8593C77.2074 42.819 77.2653 42.785 77.328 42.7574C77.2735 42.7275 77.2235 42.6936 77.1779 42.6555C77.1332 42.6174 77.0973 42.573 77.0704 42.5222C77.0443 42.4707 77.0312 42.411 77.0312 42.3431C77.0312 42.2602 77.0521 42.19 77.094 42.1325C77.1365 42.0743 77.1944 42.0302 77.2675 42.0004C77.3415 41.9698 77.4247 41.9545 77.5173 41.9545ZM77.1612 43.2009C77.1612 43.2845 77.1906 43.3536 77.2496 43.4081C77.3086 43.4618 77.3978 43.4887 77.5173 43.4887C77.6308 43.4887 77.7185 43.4618 77.7804 43.4081C77.8424 43.3536 77.8734 43.2823 77.8734 43.1942C77.8734 43.1397 77.8592 43.0919 77.8308 43.0508C77.8025 43.009 77.7622 42.9717 77.7099 42.9388C77.6576 42.906 77.596 42.8761 77.5251 42.8492L77.4848 42.8347C77.4161 42.8631 77.3575 42.8948 77.309 42.9299C77.2612 42.9642 77.2246 43.0034 77.1992 43.0475C77.1738 43.0915 77.1612 43.1426 77.1612 43.2009ZM77.515 42.1068C77.4269 42.1068 77.3549 42.128 77.2989 42.1706C77.2429 42.2124 77.2149 42.2729 77.2149 42.352C77.2149 42.4088 77.2283 42.4569 77.2552 42.4965C77.2828 42.5353 77.3202 42.5689 77.3672 42.5973C77.4142 42.6249 77.4669 42.6506 77.5251 42.6745C77.5819 42.6506 77.6322 42.6245 77.6763 42.5961C77.7203 42.567 77.7551 42.5327 77.7804 42.4931C77.8058 42.4536 77.8185 42.4061 77.8185 42.3509C77.8185 42.2718 77.7905 42.2113 77.7345 42.1695C77.6793 42.1277 77.6061 42.1068 77.515 42.1068ZM78.8062 42.6141C78.9175 42.6141 79.0142 42.6331 79.0963 42.6712C79.1784 42.7085 79.2419 42.763 79.2867 42.8347C79.3322 42.9064 79.355 42.9933 79.355 43.0956C79.355 43.2076 79.3307 43.3043 79.2822 43.3857C79.2337 43.4663 79.1639 43.5286 79.0728 43.5727C78.9817 43.616 78.8727 43.6376 78.7458 43.6376C78.6607 43.6376 78.5815 43.6302 78.5084 43.6152C78.4352 43.6003 78.3736 43.5779 78.3236 43.548V43.3711C78.3781 43.404 78.4442 43.4301 78.5218 43.4495C78.5994 43.4689 78.6748 43.4786 78.748 43.4786C78.8309 43.4786 78.9033 43.4655 78.9653 43.4394C79.028 43.4125 79.0765 43.3722 79.1109 43.3185C79.1459 43.264 79.1635 43.1957 79.1635 43.1135C79.1635 43.0045 79.1299 42.9205 79.0627 42.8616C78.9963 42.8018 78.891 42.772 78.7469 42.772C78.7006 42.772 78.6498 42.7757 78.5946 42.7832C78.5393 42.7906 78.4938 42.7988 78.458 42.8078L78.3639 42.7462L78.4266 41.978H79.2408V42.1482H78.5856L78.5442 42.6421C78.5726 42.6361 78.6091 42.6301 78.6539 42.6241C78.6987 42.6174 78.7495 42.6141 78.8062 42.6141ZM79.6182 42.9153C79.6182 42.8168 79.6249 42.7205 79.6383 42.6264C79.6525 42.5323 79.676 42.445 79.7089 42.3643C79.7417 42.283 79.7865 42.2117 79.8433 42.1504C79.9 42.0892 79.9705 42.0414 80.0549 42.0071C80.14 41.972 80.2419 41.9545 80.3606 41.9545C80.3942 41.9545 80.4304 41.9563 80.4693 41.9601C80.5081 41.963 80.5402 41.9683 80.5656 41.9757V42.1359C80.5379 42.1262 80.5062 42.1191 80.4704 42.1146C80.4353 42.1101 80.3998 42.1079 80.364 42.1079C80.2251 42.1079 80.1158 42.1381 80.0359 42.1986C79.9567 42.2591 79.8996 42.3412 79.8645 42.445C79.8294 42.548 79.8093 42.6641 79.8041 42.7932H79.8164C79.8395 42.7559 79.869 42.7223 79.9048 42.6925C79.9407 42.6618 79.984 42.6376 80.0348 42.6197C80.0863 42.6017 80.146 42.5928 80.2139 42.5928C80.3095 42.5928 80.3927 42.6122 80.4637 42.651C80.5353 42.6898 80.5906 42.7462 80.6294 42.8201C80.669 42.894 80.6888 42.9836 80.6888 43.0889C80.6888 43.2016 80.6679 43.2991 80.626 43.3812C80.5842 43.4633 80.5245 43.5268 80.4469 43.5716C80.37 43.6156 80.2781 43.6376 80.1714 43.6376C80.0915 43.6376 80.018 43.6223 79.9508 43.5917C79.8836 43.5611 79.825 43.5156 79.7749 43.4551C79.7257 43.3946 79.6872 43.3196 79.6596 43.23C79.632 43.1397 79.6182 43.0348 79.6182 42.9153ZM80.1691 43.4808C80.2707 43.4808 80.352 43.4484 80.4133 43.3834C80.4745 43.3185 80.5051 43.2203 80.5051 43.0889C80.5051 42.9814 80.4778 42.8963 80.4233 42.8336C80.3688 42.7708 80.2867 42.7395 80.177 42.7395C80.1023 42.7395 80.0374 42.7552 79.9821 42.7865C79.9269 42.8171 79.8839 42.856 79.8533 42.903C79.8227 42.95 79.8074 42.9978 79.8074 43.0463C79.8074 43.0956 79.8145 43.1456 79.8287 43.1964C79.8436 43.2472 79.866 43.2942 79.8959 43.3375C79.9257 43.3808 79.9635 43.4155 80.009 43.4417C80.0545 43.4678 80.1079 43.4808 80.1691 43.4808Z" fill="#212121"/>
<rect x="11.002" y="37.9453" width="39.4483" height="2.29351" rx="1.14675" fill="#E7E7E7"/>
<rect x="11.002" y="41.8438" width="39.4483" height="2.29351" rx="1.14675" fill="#D5F263"/>
<path d="M73.731 51.0762H73.5496V49.916C73.5496 49.8719 73.5496 49.8342 73.5496 49.8029C73.5503 49.7708 73.551 49.7417 73.5518 49.7155C73.5533 49.6886 73.5552 49.6614 73.5574 49.6338C73.5342 49.6577 73.5126 49.6782 73.4924 49.6954C73.4723 49.7118 73.4473 49.7323 73.4174 49.757L73.2304 49.907L73.133 49.7805L73.5764 49.4389H73.731V51.0762ZM75.4332 50.2553C75.4332 50.3882 75.4231 50.5069 75.4029 50.6114C75.3828 50.7159 75.3511 50.8044 75.3078 50.8768C75.2645 50.9493 75.2085 51.0045 75.1398 51.0426C75.0711 51.0799 74.9886 51.0986 74.8923 51.0986C74.7706 51.0986 74.6698 51.0653 74.5899 50.9989C74.5108 50.9325 74.4514 50.8365 74.4119 50.7111C74.373 50.5849 74.3536 50.433 74.3536 50.2553C74.3536 50.0806 74.3712 49.9305 74.4063 49.8051C74.4421 49.6789 74.4996 49.5823 74.5787 49.5151C74.6579 49.4471 74.7624 49.4132 74.8923 49.4132C75.0155 49.4132 75.117 49.4468 75.1969 49.5139C75.2768 49.5804 75.3361 49.6767 75.3749 49.8029C75.4138 49.9283 75.4332 50.0791 75.4332 50.2553ZM74.5406 50.2553C74.5406 50.4076 74.5522 50.5345 74.5754 50.6361C74.5985 50.7376 74.6358 50.8137 74.6873 50.8645C74.7396 50.9145 74.8079 50.9395 74.8923 50.9395C74.9766 50.9395 75.0446 50.9145 75.0961 50.8645C75.1484 50.8145 75.1861 50.7387 75.2092 50.6372C75.2331 50.5356 75.245 50.4084 75.245 50.2553C75.245 50.1052 75.2335 49.9798 75.2103 49.879C75.1872 49.7775 75.1499 49.7013 75.0983 49.6506C75.0468 49.5991 74.9781 49.5733 74.8923 49.5733C74.8064 49.5733 74.7377 49.5991 74.6862 49.6506C74.6347 49.7013 74.5974 49.7775 74.5742 49.879C74.5518 49.9798 74.5406 50.1052 74.5406 50.2553ZM76.7457 50.2553C76.7457 50.3882 76.7356 50.5069 76.7154 50.6114C76.6953 50.7159 76.6636 50.8044 76.6203 50.8768C76.5769 50.9493 76.521 51.0045 76.4523 51.0426C76.3836 51.0799 76.3011 51.0986 76.2048 51.0986C76.0831 51.0986 75.9823 51.0653 75.9024 50.9989C75.8233 50.9325 75.7639 50.8365 75.7244 50.7111C75.6855 50.5849 75.6661 50.433 75.6661 50.2553C75.6661 50.0806 75.6837 49.9305 75.7188 49.8051C75.7546 49.6789 75.8121 49.5823 75.8912 49.5151C75.9703 49.4471 76.0749 49.4132 76.2048 49.4132C76.328 49.4132 76.4295 49.4468 76.5094 49.5139C76.5893 49.5804 76.6486 49.6767 76.6874 49.8029C76.7263 49.9283 76.7457 50.0791 76.7457 50.2553ZM75.8531 50.2553C75.8531 50.4076 75.8647 50.5345 75.8879 50.6361C75.911 50.7376 75.9483 50.8137 75.9998 50.8645C76.0521 50.9145 76.1204 50.9395 76.2048 50.9395C76.2891 50.9395 76.3571 50.9145 76.4086 50.8645C76.4609 50.8145 76.4986 50.7387 76.5217 50.6372C76.5456 50.5356 76.5575 50.4084 76.5575 50.2553C76.5575 50.1052 76.546 49.9798 76.5228 49.879C76.4997 49.7775 76.4623 49.7013 76.4108 49.6506C76.3593 49.5991 76.2906 49.5733 76.2048 49.5733C76.1189 49.5733 76.0502 49.5991 75.9987 49.6506C75.9472 49.7013 75.9099 49.7775 75.8867 49.879C75.8643 49.9798 75.8531 50.1052 75.8531 50.2553ZM77.5173 49.4154C77.6121 49.4154 77.6961 49.4303 77.7692 49.4602C77.8424 49.4901 77.8995 49.5341 77.9406 49.5923C77.9824 49.6498 78.0033 49.7207 78.0033 49.8051C78.0033 49.8716 77.9887 49.9298 77.9596 49.9798C77.9313 50.0291 77.8928 50.0724 77.8443 50.1097C77.7957 50.1463 77.742 50.1792 77.683 50.2083C77.7532 50.2404 77.8163 50.2766 77.8723 50.3169C77.929 50.3572 77.9738 50.4046 78.0067 50.4591C78.0395 50.5136 78.0559 50.5782 78.0559 50.6529C78.0559 50.7447 78.0335 50.8242 77.9887 50.8914C77.9447 50.9578 77.8827 51.009 77.8028 51.0448C77.723 51.0807 77.6293 51.0986 77.5218 51.0986C77.406 51.0986 77.3075 51.0814 77.2261 51.0471C77.1455 51.012 77.0839 50.9619 77.0413 50.897C76.9995 50.8313 76.9786 50.7525 76.9786 50.6607C76.9786 50.5853 76.9947 50.52 77.0268 50.4647C77.0589 50.4087 77.1014 50.3606 77.1544 50.3203C77.2074 50.2799 77.2653 50.246 77.328 50.2183C77.2735 50.1885 77.2235 50.1545 77.1779 50.1164C77.1332 50.0784 77.0973 50.0339 77.0704 49.9832C77.0443 49.9317 77.0312 49.8719 77.0312 49.804C77.0312 49.7211 77.0521 49.6509 77.094 49.5935C77.1365 49.5352 77.1944 49.4912 77.2675 49.4613C77.3415 49.4307 77.4247 49.4154 77.5173 49.4154ZM77.1612 50.6618C77.1612 50.7454 77.1906 50.8145 77.2496 50.869C77.3086 50.9227 77.3978 50.9496 77.5173 50.9496C77.6308 50.9496 77.7185 50.9227 77.7804 50.869C77.8424 50.8145 77.8734 50.7432 77.8734 50.6551C77.8734 50.6006 77.8592 50.5528 77.8308 50.5118C77.8025 50.4699 77.7622 50.4326 77.7099 50.3998C77.6576 50.3669 77.596 50.3371 77.5251 50.3102L77.4848 50.2956C77.4161 50.324 77.3575 50.3557 77.309 50.3908C77.2612 50.4252 77.2246 50.4643 77.1992 50.5084C77.1738 50.5524 77.1612 50.6036 77.1612 50.6618ZM77.515 49.5677C77.4269 49.5677 77.3549 49.589 77.2989 49.6315C77.2429 49.6733 77.2149 49.7338 77.2149 49.813C77.2149 49.8697 77.2283 49.9178 77.2552 49.9574C77.2828 49.9962 77.3202 50.0298 77.3672 50.0582C77.4142 50.0858 77.4669 50.1116 77.5251 50.1355C77.5819 50.1116 77.6322 50.0855 77.6763 50.0571C77.7203 50.028 77.7551 49.9936 77.7804 49.9541C77.8058 49.9145 77.8185 49.8671 77.8185 49.8118C77.8185 49.7327 77.7905 49.6722 77.7345 49.6304C77.6793 49.5886 77.6061 49.5677 77.515 49.5677ZM78.8062 50.075C78.9175 50.075 79.0142 50.094 79.0963 50.1321C79.1784 50.1694 79.2419 50.2239 79.2867 50.2956C79.3322 50.3673 79.355 50.4543 79.355 50.5565C79.355 50.6685 79.3307 50.7652 79.2822 50.8466C79.2337 50.9272 79.1639 50.9896 79.0728 51.0336C78.9817 51.0769 78.8727 51.0986 78.7458 51.0986C78.6607 51.0986 78.5815 51.0911 78.5084 51.0762C78.4352 51.0612 78.3736 51.0388 78.3236 51.009V50.832C78.3781 50.8649 78.4442 50.891 78.5218 50.9104C78.5994 50.9298 78.6748 50.9395 78.748 50.9395C78.8309 50.9395 78.9033 50.9265 78.9653 50.9004C79.028 50.8735 79.0765 50.8332 79.1109 50.7794C79.1459 50.7249 79.1635 50.6566 79.1635 50.5745C79.1635 50.4655 79.1299 50.3815 79.0627 50.3225C78.9963 50.2628 78.891 50.2329 78.7469 50.2329C78.7006 50.2329 78.6498 50.2366 78.5946 50.2441C78.5393 50.2516 78.4938 50.2598 78.458 50.2687L78.3639 50.2071L78.4266 49.4389H79.2408V49.6091H78.5856L78.5442 50.103C78.5726 50.097 78.6091 50.0911 78.6539 50.0851C78.6987 50.0784 78.7495 50.075 78.8062 50.075ZM79.6182 50.3762C79.6182 50.2777 79.6249 50.1814 79.6383 50.0873C79.6525 49.9933 79.676 49.9059 79.7089 49.8253C79.7417 49.7439 79.7865 49.6726 79.8433 49.6114C79.9 49.5502 79.9705 49.5024 80.0549 49.468C80.14 49.4329 80.2419 49.4154 80.3606 49.4154C80.3942 49.4154 80.4304 49.4173 80.4693 49.421C80.5081 49.424 80.5402 49.4292 80.5656 49.4367V49.5968C80.5379 49.5871 80.5062 49.58 80.4704 49.5755C80.4353 49.5711 80.3998 49.5688 80.364 49.5688C80.2251 49.5688 80.1158 49.5991 80.0359 49.6595C79.9567 49.72 79.8996 49.8021 79.8645 49.9059C79.8294 50.0089 79.8093 50.125 79.8041 50.2542H79.8164C79.8395 50.2169 79.869 50.1833 79.9048 50.1534C79.9407 50.1228 79.984 50.0985 80.0348 50.0806C80.0863 50.0627 80.146 50.0537 80.2139 50.0537C80.3095 50.0537 80.3927 50.0731 80.4637 50.112C80.5353 50.1508 80.5906 50.2071 80.6294 50.2811C80.669 50.355 80.6888 50.4446 80.6888 50.5498C80.6888 50.6626 80.6679 50.76 80.626 50.8421C80.5842 50.9242 80.5245 50.9877 80.4469 51.0325C80.37 51.0765 80.2781 51.0986 80.1714 51.0986C80.0915 51.0986 80.018 51.0833 79.9508 51.0527C79.8836 51.022 79.825 50.9765 79.7749 50.916C79.7257 50.8556 79.6872 50.7805 79.6596 50.6909C79.632 50.6006 79.6182 50.4957 79.6182 50.3762ZM80.1691 50.9418C80.2707 50.9418 80.352 50.9093 80.4133 50.8444C80.4745 50.7794 80.5051 50.6812 80.5051 50.5498C80.5051 50.4423 80.4778 50.3572 80.4233 50.2945C80.3688 50.2318 80.2867 50.2004 80.177 50.2004C80.1023 50.2004 80.0374 50.2161 79.9821 50.2475C79.9269 50.2781 79.8839 50.3169 79.8533 50.3639C79.8227 50.411 79.8074 50.4587 79.8074 50.5073C79.8074 50.5565 79.8145 50.6066 79.8287 50.6573C79.8436 50.7081 79.866 50.7551 79.8959 50.7984C79.9257 50.8417 79.9635 50.8765 80.009 50.9026C80.0545 50.9287 80.1079 50.9418 80.1691 50.9418Z" fill="#212121"/>
<path d="M74.9332 54.4324C75.0445 54.4324 75.1411 54.4515 75.2233 54.4895C75.3054 54.5269 75.3689 54.5814 75.4137 54.653C75.4592 54.7247 75.482 54.8117 75.482 54.914C75.482 55.026 75.4577 55.1226 75.4092 55.204C75.3606 55.2847 75.2908 55.347 75.1998 55.391C75.1087 55.4343 74.9997 55.456 74.8728 55.456C74.7876 55.456 74.7085 55.4485 74.6353 55.4336C74.5622 55.4187 74.5006 55.3963 74.4506 55.3664V55.1895C74.5051 55.2223 74.5711 55.2484 74.6488 55.2679C74.7264 55.2873 74.8018 55.297 74.875 55.297C74.9579 55.297 75.0303 55.2839 75.0922 55.2578C75.155 55.2309 75.2035 55.1906 75.2378 55.1368C75.2729 55.0823 75.2905 55.014 75.2905 54.9319C75.2905 54.8229 75.2569 54.7389 75.1897 54.6799C75.1232 54.6202 75.018 54.5903 74.8739 54.5903C74.8276 54.5903 74.7768 54.5941 74.7216 54.6015C74.6663 54.609 74.6208 54.6172 74.5849 54.6262L74.4909 54.5646L74.5536 53.7963H75.3677V53.9666H74.7126L74.6712 54.4604C74.6995 54.4544 74.7361 54.4485 74.7809 54.4425C74.8257 54.4358 74.8765 54.4324 74.9332 54.4324ZM76.8034 54.494C76.8034 54.5933 76.7963 54.69 76.7821 54.7841C76.7687 54.8781 76.7452 54.9659 76.7116 55.0472C76.6787 55.1286 76.6339 55.1999 76.5772 55.2611C76.5205 55.3224 76.4492 55.3705 76.3633 55.4056C76.2782 55.4399 76.1763 55.4571 76.0576 55.4571C76.0255 55.4571 75.9889 55.4549 75.9478 55.4504C75.9068 55.4467 75.8732 55.4411 75.847 55.4336V55.2723C75.8747 55.282 75.9071 55.2899 75.9445 55.2958C75.9818 55.3011 76.0184 55.3037 76.0542 55.3037C76.1938 55.3037 76.3036 55.2738 76.3835 55.2141C76.4633 55.1536 76.5208 55.0719 76.5559 54.9688C76.591 54.8651 76.6108 54.7486 76.6153 54.6194H76.6018C76.5794 54.6553 76.55 54.6885 76.5134 54.7191C76.4775 54.749 76.4339 54.7732 76.3823 54.7919C76.3308 54.8098 76.2707 54.8188 76.202 54.8188C76.1072 54.8188 76.0244 54.7994 75.9534 54.7605C75.8833 54.7217 75.8284 54.6654 75.7888 54.5914C75.75 54.5175 75.7306 54.4283 75.7306 54.3238C75.7306 54.2111 75.7519 54.1136 75.7944 54.0315C75.8377 53.9486 75.8982 53.8848 75.9758 53.84C76.0535 53.7952 76.1449 53.7728 76.2502 53.7728C76.3308 53.7728 76.4047 53.7881 76.4719 53.8187C76.5391 53.8493 76.5974 53.8953 76.6466 53.9565C76.6967 54.017 76.7351 54.092 76.762 54.1816C76.7896 54.2712 76.8034 54.3753 76.8034 54.494ZM76.2502 53.9307C76.1509 53.9307 76.0703 53.9632 76.0083 54.0282C75.9471 54.0931 75.9165 54.1909 75.9165 54.3216C75.9165 54.4298 75.943 54.5153 75.996 54.578C76.049 54.6407 76.1307 54.6721 76.2412 54.6721C76.3174 54.6721 76.3831 54.6568 76.4383 54.6262C76.4943 54.5956 76.5373 54.5567 76.5671 54.5097C76.5977 54.4627 76.613 54.4145 76.613 54.3652C76.613 54.316 76.6056 54.2659 76.5906 54.2152C76.5765 54.1644 76.5544 54.1177 76.5246 54.0752C76.4947 54.0319 76.457 53.9972 76.4115 53.971C76.3659 53.9442 76.3122 53.9307 76.2502 53.9307ZM77.5817 53.7728C77.6765 53.7728 77.7605 53.7878 77.8337 53.8176C77.9069 53.8475 77.964 53.8915 78.005 53.9498C78.0469 54.0072 78.0678 54.0782 78.0678 54.1625C78.0678 54.229 78.0532 54.2872 78.0241 54.3372C77.9957 54.3865 77.9573 54.4298 77.9087 54.4671C77.8602 54.5037 77.8065 54.5366 77.7475 54.5657C77.8177 54.5978 77.8807 54.634 77.9367 54.6743C77.9935 54.7146 78.0383 54.762 78.0711 54.8165C78.104 54.871 78.1204 54.9356 78.1204 55.0103C78.1204 55.1021 78.098 55.1816 78.0532 55.2488C78.0091 55.3153 77.9472 55.3664 77.8673 55.4022C77.7874 55.4381 77.6937 55.456 77.5862 55.456C77.4705 55.456 77.3719 55.4388 77.2906 55.4045C77.2099 55.3694 77.1483 55.3194 77.1058 55.2544C77.064 55.1887 77.0431 55.1099 77.0431 55.0181C77.0431 54.9427 77.0591 54.8774 77.0912 54.8221C77.1233 54.7661 77.1659 54.718 77.2189 54.6777C77.2719 54.6374 77.3298 54.6034 77.3925 54.5758C77.338 54.5459 77.2879 54.5119 77.2424 54.4739C77.1976 54.4358 77.1618 54.3914 77.1349 54.3406C77.1088 54.2891 77.0957 54.2294 77.0957 54.1614C77.0957 54.0785 77.1166 54.0084 77.1584 53.9509C77.201 53.8926 77.2588 53.8486 77.332 53.8187C77.4059 53.7881 77.4892 53.7728 77.5817 53.7728ZM77.2256 55.0192C77.2256 55.1029 77.2551 55.1719 77.3141 55.2264C77.3731 55.2802 77.4623 55.307 77.5817 55.307C77.6952 55.307 77.7829 55.2802 77.8449 55.2264C77.9069 55.1719 77.9379 55.1006 77.9379 55.0125C77.9379 54.958 77.9237 54.9102 77.8953 54.8692C77.8669 54.8274 77.8266 54.79 77.7743 54.7572C77.7221 54.7243 77.6605 54.6945 77.5896 54.6676L77.5493 54.653C77.4806 54.6814 77.422 54.7131 77.3734 54.7482C77.3257 54.7826 77.2891 54.8218 77.2637 54.8658C77.2383 54.9099 77.2256 54.961 77.2256 55.0192ZM77.5795 53.9251C77.4914 53.9251 77.4193 53.9464 77.3634 53.989C77.3074 54.0308 77.2794 54.0912 77.2794 54.1704C77.2794 54.2271 77.2928 54.2753 77.3197 54.3148C77.3473 54.3537 77.3846 54.3873 77.4317 54.4156C77.4787 54.4433 77.5313 54.469 77.5896 54.4929C77.6463 54.469 77.6967 54.4429 77.7408 54.4145C77.7848 54.3854 77.8195 54.351 77.8449 54.3115C77.8703 54.2719 77.883 54.2245 77.883 54.1693C77.883 54.0901 77.855 54.0296 77.799 53.9878C77.7437 53.946 77.6706 53.9251 77.5795 53.9251ZM78.8707 54.4324C78.9819 54.4324 79.0786 54.4515 79.1608 54.4895C79.2429 54.5269 79.3063 54.5814 79.3511 54.653C79.3967 54.7247 79.4194 54.8117 79.4194 54.914C79.4194 55.026 79.3952 55.1226 79.3467 55.204C79.2981 55.2847 79.2283 55.347 79.1372 55.391C79.0462 55.4343 78.9372 55.456 78.8102 55.456C78.7251 55.456 78.646 55.4485 78.5728 55.4336C78.4997 55.4187 78.4381 55.3963 78.388 55.3664V55.1895C78.4425 55.2223 78.5086 55.2484 78.5863 55.2679C78.6639 55.2873 78.7393 55.297 78.8125 55.297C78.8953 55.297 78.9678 55.2839 79.0297 55.2578C79.0924 55.2309 79.141 55.1906 79.1753 55.1368C79.2104 55.0823 79.2279 55.014 79.2279 54.9319C79.2279 54.8229 79.1944 54.7389 79.1272 54.6799C79.0607 54.6202 78.9554 54.5903 78.8114 54.5903C78.7651 54.5903 78.7143 54.5941 78.659 54.6015C78.6038 54.609 78.5583 54.6172 78.5224 54.6262L78.4284 54.5646L78.4911 53.7963H79.3052V53.9666H78.6501L78.6087 54.4604C78.637 54.4544 78.6736 54.4485 78.7184 54.4425C78.7632 54.4358 78.814 54.4324 78.8707 54.4324ZM79.6826 54.7337C79.6826 54.6351 79.6893 54.5388 79.7028 54.4447C79.717 54.3507 79.7405 54.2633 79.7733 54.1827C79.8062 54.1013 79.851 54.03 79.9077 53.9688C79.9645 53.9076 80.035 53.8598 80.1194 53.8255C80.2045 53.7904 80.3064 53.7728 80.4251 53.7728C80.4587 53.7728 80.4949 53.7747 80.5337 53.7784C80.5725 53.7814 80.6046 53.7866 80.63 53.7941V53.9542C80.6024 53.9445 80.5707 53.9374 80.5348 53.933C80.4998 53.9285 80.4643 53.9262 80.4285 53.9262C80.2896 53.9262 80.1802 53.9565 80.1003 54.017C80.0212 54.0774 79.9641 54.1595 79.929 54.2633C79.8939 54.3664 79.8737 54.4824 79.8685 54.6116H79.8808C79.904 54.5743 79.9335 54.5407 79.9693 54.5108C80.0051 54.4802 80.0484 54.4559 80.0992 54.438C80.1507 54.4201 80.2105 54.4111 80.2784 54.4111C80.374 54.4111 80.4572 54.4306 80.5281 54.4694C80.5998 54.5082 80.655 54.5646 80.6939 54.6385C80.7334 54.7124 80.7532 54.802 80.7532 54.9073C80.7532 55.02 80.7323 55.1174 80.6905 55.1995C80.6487 55.2817 80.589 55.3451 80.5113 55.3899C80.4344 55.434 80.3426 55.456 80.2358 55.456C80.156 55.456 80.0824 55.4407 80.0152 55.4101C79.948 55.3795 79.8894 55.3339 79.8394 55.2735C79.7901 55.213 79.7517 55.1379 79.7241 55.0484C79.6964 54.958 79.6826 54.8531 79.6826 54.7337ZM80.2336 55.2992C80.3351 55.2992 80.4165 55.2667 80.4777 55.2018C80.5389 55.1368 80.5696 55.0387 80.5696 54.9073C80.5696 54.7997 80.5423 54.7146 80.4878 54.6519C80.4333 54.5892 80.3512 54.5579 80.2414 54.5579C80.1668 54.5579 80.1018 54.5735 80.0466 54.6049C79.9913 54.6355 79.9484 54.6743 79.9178 54.7214C79.8872 54.7684 79.8719 54.8162 79.8719 54.8647C79.8719 54.914 79.879 54.964 79.8932 55.0148C79.9081 55.0655 79.9305 55.1126 79.9603 55.1559C79.9902 55.1992 80.0279 55.2339 80.0735 55.26C80.119 55.2861 80.1724 55.2992 80.2336 55.2992Z" fill="#212121"/>
<rect x="11.002" y="49.7656" width="33.2558" height="2.29351" rx="1.14675" fill="#E7E7E7"/>
<rect x="11.002" y="53.6641" width="22.0176" height="2.29351" rx="1.14675" fill="#D5F263"/>
<path d="M74.1117 62.6855H73.0389V62.5299L73.4768 62.0853C73.5581 62.0032 73.6264 61.93 73.6817 61.8658C73.7377 61.8016 73.7802 61.7385 73.8094 61.6765C73.8385 61.6138 73.853 61.5451 73.853 61.4705C73.853 61.3779 73.8254 61.3074 73.7702 61.2588C73.7157 61.2096 73.6436 61.1849 73.554 61.1849C73.4756 61.1849 73.4062 61.1984 73.3457 61.2252C73.2853 61.2521 73.2233 61.2902 73.1598 61.3395L73.0602 61.214C73.1035 61.1774 73.1505 61.145 73.2013 61.1166C73.2528 61.0882 73.3077 61.0658 73.3659 61.0494C73.4249 61.033 73.4876 61.0248 73.554 61.0248C73.6548 61.0248 73.7418 61.0423 73.815 61.0774C73.8881 61.1125 73.9445 61.1625 73.9841 61.2275C74.0244 61.2924 74.0445 61.3697 74.0445 61.4593C74.0445 61.5459 74.0274 61.6265 73.993 61.7012C73.9587 61.7751 73.9105 61.8486 73.8486 61.9218C73.7866 61.9942 73.7142 62.0711 73.6313 62.1525L73.2752 62.5075V62.5153H74.1117V62.6855ZM74.3682 61.9856C74.3682 61.8871 74.3749 61.7908 74.3883 61.6967C74.4025 61.6026 74.426 61.5153 74.4589 61.4346C74.4917 61.3533 74.5365 61.282 74.5933 61.2207C74.65 61.1595 74.7206 61.1117 74.8049 61.0774C74.89 61.0423 74.992 61.0248 75.1107 61.0248C75.1443 61.0248 75.1805 61.0266 75.2193 61.0304C75.2581 61.0334 75.2902 61.0386 75.3156 61.046V61.2062C75.288 61.1965 75.2562 61.1894 75.2204 61.1849C75.1853 61.1804 75.1499 61.1782 75.114 61.1782C74.9752 61.1782 74.8658 61.2084 74.7859 61.2689C74.7068 61.3294 74.6496 61.4115 74.6146 61.5153C74.5795 61.6183 74.5593 61.7344 74.5541 61.8636H74.5664C74.5895 61.8262 74.619 61.7926 74.6549 61.7628C74.6907 61.7322 74.734 61.7079 74.7848 61.69C74.8363 61.6721 74.896 61.6631 74.964 61.6631C75.0595 61.6631 75.1428 61.6825 75.2137 61.7213C75.2854 61.7602 75.3406 61.8165 75.3794 61.8904C75.419 61.9643 75.4388 62.0539 75.4388 62.1592C75.4388 62.2719 75.4179 62.3694 75.3761 62.4515C75.3343 62.5336 75.2745 62.5971 75.1969 62.6419C75.12 62.6859 75.0282 62.7079 74.9214 62.7079C74.8415 62.7079 74.768 62.6926 74.7008 62.662C74.6336 62.6314 74.575 62.5859 74.525 62.5254C74.4757 62.4649 74.4372 62.3899 74.4096 62.3003C74.382 62.21 74.3682 62.1051 74.3682 61.9856ZM74.9192 62.5512C75.0207 62.5512 75.1021 62.5187 75.1633 62.4537C75.2245 62.3888 75.2551 62.2906 75.2551 62.1592C75.2551 62.0517 75.2279 61.9666 75.1734 61.9039C75.1189 61.8412 75.0367 61.8098 74.927 61.8098C74.8523 61.8098 74.7874 61.8255 74.7321 61.8568C74.6769 61.8874 74.634 61.9263 74.6034 61.9733C74.5727 62.0203 74.5574 62.0681 74.5574 62.1167C74.5574 62.1659 74.5645 62.2159 74.5787 62.2667C74.5936 62.3175 74.616 62.3645 74.6459 62.4078C74.6758 62.4511 74.7135 62.4858 74.759 62.512C74.8046 62.5381 74.8579 62.5512 74.9192 62.5512ZM76.739 61.746C76.739 61.8453 76.7319 61.9419 76.7177 62.036C76.7042 62.1301 76.6807 62.2178 76.6471 62.2992C76.6143 62.3806 76.5695 62.4519 76.5127 62.5131C76.456 62.5743 76.3847 62.6225 76.2988 62.6575C76.2137 62.6919 76.1118 62.7091 75.9931 62.7091C75.961 62.7091 75.9244 62.7068 75.8834 62.7023C75.8423 62.6986 75.8087 62.693 75.7826 62.6855V62.5243C75.8102 62.534 75.8427 62.5418 75.88 62.5478C75.9173 62.553 75.9539 62.5556 75.9898 62.5556C76.1294 62.5556 76.2391 62.5258 76.319 62.4661C76.3989 62.4056 76.4564 62.3238 76.4915 62.2208C76.5266 62.117 76.5463 62.0006 76.5508 61.8714H76.5374C76.515 61.9072 76.4855 61.9405 76.4489 61.9711C76.4131 62.0009 76.3694 62.0252 76.3179 62.0439C76.2664 62.0618 76.2063 62.0707 76.1376 62.0707C76.0428 62.0707 75.9599 62.0513 75.889 62.0125C75.8188 61.9737 75.7639 61.9173 75.7244 61.8434C75.6855 61.7695 75.6661 61.6803 75.6661 61.5758C75.6661 61.463 75.6874 61.3656 75.7299 61.2835C75.7733 61.2006 75.8337 61.1368 75.9114 61.092C75.989 61.0472 76.0805 61.0248 76.1857 61.0248C76.2664 61.0248 76.3403 61.0401 76.4075 61.0707C76.4747 61.1013 76.5329 61.1472 76.5822 61.2084C76.6322 61.2689 76.6706 61.3439 76.6975 61.4335C76.7251 61.5231 76.739 61.6273 76.739 61.746ZM76.1857 61.1827C76.0864 61.1827 76.0058 61.2152 75.9438 61.2801C75.8826 61.3451 75.852 61.4429 75.852 61.5735C75.852 61.6818 75.8785 61.7672 75.9315 61.83C75.9845 61.8927 76.0663 61.924 76.1768 61.924C76.2529 61.924 76.3186 61.9087 76.3739 61.8781C76.4299 61.8475 76.4728 61.8087 76.5027 61.7616C76.5333 61.7146 76.5486 61.6665 76.5486 61.6172C76.5486 61.5679 76.5411 61.5179 76.5262 61.4671C76.512 61.4164 76.49 61.3697 76.4601 61.3271C76.4302 61.2838 76.3925 61.2491 76.347 61.223C76.3015 61.1961 76.2477 61.1827 76.1857 61.1827ZM77.5173 61.0248C77.6121 61.0248 77.6961 61.0397 77.7692 61.0696C77.8424 61.0994 77.8995 61.1435 77.9406 61.2017C77.9824 61.2592 78.0033 61.3301 78.0033 61.4145C78.0033 61.4809 77.9887 61.5392 77.9596 61.5892C77.9313 61.6385 77.8928 61.6818 77.8443 61.7191C77.7957 61.7557 77.742 61.7885 77.683 61.8176C77.7532 61.8497 77.8163 61.886 77.8723 61.9263C77.929 61.9666 77.9738 62.014 78.0067 62.0685C78.0395 62.123 78.0559 62.1876 78.0559 62.2622C78.0559 62.3541 78.0335 62.4336 77.9887 62.5008C77.9447 62.5672 77.8827 62.6184 77.8028 62.6542C77.723 62.69 77.6293 62.7079 77.5218 62.7079C77.406 62.7079 77.3075 62.6908 77.2261 62.6564C77.1455 62.6213 77.0839 62.5713 77.0413 62.5064C76.9995 62.4407 76.9786 62.3619 76.9786 62.2701C76.9786 62.1947 76.9947 62.1293 77.0268 62.0741C77.0589 62.0181 77.1014 61.9699 77.1544 61.9296C77.2074 61.8893 77.2653 61.8553 77.328 61.8277C77.2735 61.7979 77.2235 61.7639 77.1779 61.7258C77.1332 61.6877 77.0973 61.6433 77.0704 61.5925C77.0443 61.541 77.0312 61.4813 77.0312 61.4134C77.0312 61.3305 77.0521 61.2603 77.094 61.2028C77.1365 61.1446 77.1944 61.1005 77.2675 61.0707C77.3415 61.0401 77.4247 61.0248 77.5173 61.0248ZM77.1612 62.2712C77.1612 62.3548 77.1906 62.4239 77.2496 62.4784C77.3086 62.5321 77.3978 62.559 77.5173 62.559C77.6308 62.559 77.7185 62.5321 77.7804 62.4784C77.8424 62.4239 77.8734 62.3526 77.8734 62.2645C77.8734 62.21 77.8592 62.1622 77.8308 62.1211C77.8025 62.0793 77.7622 62.042 77.7099 62.0091C77.6576 61.9763 77.596 61.9464 77.5251 61.9196L77.4848 61.905C77.4161 61.9334 77.3575 61.9651 77.309 62.0002C77.2612 62.0345 77.2246 62.0737 77.1992 62.1178C77.1738 62.1618 77.1612 62.213 77.1612 62.2712ZM77.515 61.1771C77.4269 61.1771 77.3549 61.1984 77.2989 61.2409C77.2429 61.2827 77.2149 61.3432 77.2149 61.4223C77.2149 61.4791 77.2283 61.5272 77.2552 61.5668C77.2828 61.6056 77.3202 61.6392 77.3672 61.6676C77.4142 61.6952 77.4669 61.721 77.5251 61.7449C77.5819 61.721 77.6322 61.6948 77.6763 61.6665C77.7203 61.6373 77.7551 61.603 77.7804 61.5634C77.8058 61.5239 77.8185 61.4765 77.8185 61.4212C77.8185 61.3421 77.7905 61.2816 77.7345 61.2398C77.6793 61.198 77.6061 61.1771 77.515 61.1771ZM78.8062 61.6844C78.9175 61.6844 79.0142 61.7034 79.0963 61.7415C79.1784 61.7788 79.2419 61.8333 79.2867 61.905C79.3322 61.9767 79.355 62.0636 79.355 62.1659C79.355 62.2779 79.3307 62.3746 79.2822 62.456C79.2337 62.5366 79.1639 62.5989 79.0728 62.643C78.9817 62.6863 78.8727 62.7079 78.7458 62.7079C78.6607 62.7079 78.5815 62.7005 78.5084 62.6855C78.4352 62.6706 78.3736 62.6482 78.3236 62.6184V62.4414C78.3781 62.4743 78.4442 62.5004 78.5218 62.5198C78.5994 62.5392 78.6748 62.5489 78.748 62.5489C78.8309 62.5489 78.9033 62.5359 78.9653 62.5097C79.028 62.4828 79.0765 62.4425 79.1109 62.3888C79.1459 62.3343 79.1635 62.266 79.1635 62.1838C79.1635 62.0748 79.1299 61.9909 79.0627 61.9319C78.9963 61.8721 78.891 61.8423 78.7469 61.8423C78.7006 61.8423 78.6498 61.846 78.5946 61.8535C78.5393 61.8609 78.4938 61.8692 78.458 61.8781L78.3639 61.8165L78.4266 61.0483H79.2408V61.2185H78.5856L78.5442 61.7124C78.5726 61.7064 78.6091 61.7004 78.6539 61.6945C78.6987 61.6877 78.7495 61.6844 78.8062 61.6844ZM79.6182 61.9856C79.6182 61.8871 79.6249 61.7908 79.6383 61.6967C79.6525 61.6026 79.676 61.5153 79.7089 61.4346C79.7417 61.3533 79.7865 61.282 79.8433 61.2207C79.9 61.1595 79.9705 61.1117 80.0549 61.0774C80.14 61.0423 80.2419 61.0248 80.3606 61.0248C80.3942 61.0248 80.4304 61.0266 80.4693 61.0304C80.5081 61.0334 80.5402 61.0386 80.5656 61.046V61.2062C80.5379 61.1965 80.5062 61.1894 80.4704 61.1849C80.4353 61.1804 80.3998 61.1782 80.364 61.1782C80.2251 61.1782 80.1158 61.2084 80.0359 61.2689C79.9567 61.3294 79.8996 61.4115 79.8645 61.5153C79.8294 61.6183 79.8093 61.7344 79.8041 61.8636H79.8164C79.8395 61.8262 79.869 61.7926 79.9048 61.7628C79.9407 61.7322 79.984 61.7079 80.0348 61.69C80.0863 61.6721 80.146 61.6631 80.2139 61.6631C80.3095 61.6631 80.3927 61.6825 80.4637 61.7213C80.5353 61.7602 80.5906 61.8165 80.6294 61.8904C80.669 61.9643 80.6888 62.0539 80.6888 62.1592C80.6888 62.2719 80.6679 62.3694 80.626 62.4515C80.5842 62.5336 80.5245 62.5971 80.4469 62.6419C80.37 62.6859 80.2781 62.7079 80.1714 62.7079C80.0915 62.7079 80.018 62.6926 79.9508 62.662C79.8836 62.6314 79.825 62.5859 79.7749 62.5254C79.7257 62.4649 79.6872 62.3899 79.6596 62.3003C79.632 62.21 79.6182 62.1051 79.6182 61.9856ZM80.1691 62.5512C80.2707 62.5512 80.352 62.5187 80.4133 62.4537C80.4745 62.3888 80.5051 62.2906 80.5051 62.1592C80.5051 62.0517 80.4778 61.9666 80.4233 61.9039C80.3688 61.8412 80.2867 61.8098 80.177 61.8098C80.1023 61.8098 80.0374 61.8255 79.9821 61.8568C79.9269 61.8874 79.8839 61.9263 79.8533 61.9733C79.8227 62.0203 79.8074 62.0681 79.8074 62.1167C79.8074 62.1659 79.8145 62.2159 79.8287 62.2667C79.8436 62.3175 79.866 62.3645 79.8959 62.4078C79.9257 62.4511 79.9635 62.4858 80.009 62.512C80.0545 62.5381 80.1079 62.5512 80.1691 62.5512Z" fill="#212121"/>
<path d="M74.1117 67.043H73.0389V66.8873L73.4768 66.4427C73.5581 66.3606 73.6264 66.2874 73.6817 66.2232C73.7377 66.159 73.7802 66.0959 73.8094 66.034C73.8385 65.9712 73.853 65.9026 73.853 65.8279C73.853 65.7353 73.8254 65.6648 73.7702 65.6162C73.7157 65.567 73.6436 65.5423 73.554 65.5423C73.4756 65.5423 73.4062 65.5558 73.3457 65.5827C73.2853 65.6095 73.2233 65.6476 73.1598 65.6969L73.0602 65.5715C73.1035 65.5349 73.1505 65.5024 73.2013 65.474C73.2528 65.4457 73.3077 65.4233 73.3659 65.4068C73.4249 65.3904 73.4876 65.3822 73.554 65.3822C73.6548 65.3822 73.7418 65.3997 73.815 65.4348C73.8881 65.4699 73.9445 65.5199 73.9841 65.5849C74.0244 65.6498 74.0445 65.7271 74.0445 65.8167C74.0445 65.9033 74.0274 65.9839 73.993 66.0586C73.9587 66.1325 73.9105 66.206 73.8486 66.2792C73.7866 66.3516 73.7142 66.4285 73.6313 66.5099L73.2752 66.8649V66.8727H74.1117V67.043ZM75.4332 66.2221C75.4332 66.355 75.4231 66.4737 75.4029 66.5782C75.3828 66.6827 75.3511 66.7712 75.3078 66.8436C75.2645 66.916 75.2085 66.9713 75.1398 67.0094C75.0711 67.0467 74.9886 67.0654 74.8923 67.0654C74.7706 67.0654 74.6698 67.0321 74.5899 66.9657C74.5108 66.8993 74.4514 66.8033 74.4119 66.6779C74.373 66.5517 74.3536 66.3998 74.3536 66.2221C74.3536 66.0474 74.3712 65.8973 74.4063 65.7719C74.4421 65.6457 74.4996 65.5491 74.5787 65.4819C74.6579 65.4139 74.7624 65.38 74.8923 65.38C75.0155 65.38 75.117 65.4135 75.1969 65.4807C75.2768 65.5472 75.3361 65.6435 75.3749 65.7697C75.4138 65.8951 75.4332 66.0459 75.4332 66.2221ZM74.5406 66.2221C74.5406 66.3744 74.5522 66.5013 74.5754 66.6029C74.5985 66.7044 74.6358 66.7805 74.6873 66.8313C74.7396 66.8813 74.8079 66.9063 74.8923 66.9063C74.9766 66.9063 75.0446 66.8813 75.0961 66.8313C75.1484 66.7813 75.1861 66.7055 75.2092 66.604C75.2331 66.5024 75.245 66.3751 75.245 66.2221C75.245 66.072 75.2335 65.9466 75.2103 65.8458C75.1872 65.7443 75.1499 65.6681 75.0983 65.6174C75.0468 65.5659 74.9781 65.5401 74.8923 65.5401C74.8064 65.5401 74.7377 65.5659 74.6862 65.6174C74.6347 65.6681 74.5974 65.7443 74.5742 65.8458C74.5518 65.9466 74.5406 66.072 74.5406 66.2221ZM76.7457 66.2221C76.7457 66.355 76.7356 66.4737 76.7154 66.5782C76.6953 66.6827 76.6636 66.7712 76.6203 66.8436C76.5769 66.916 76.521 66.9713 76.4523 67.0094C76.3836 67.0467 76.3011 67.0654 76.2048 67.0654C76.0831 67.0654 75.9823 67.0321 75.9024 66.9657C75.8233 66.8993 75.7639 66.8033 75.7244 66.6779C75.6855 66.5517 75.6661 66.3998 75.6661 66.2221C75.6661 66.0474 75.6837 65.8973 75.7188 65.7719C75.7546 65.6457 75.8121 65.5491 75.8912 65.4819C75.9703 65.4139 76.0749 65.38 76.2048 65.38C76.328 65.38 76.4295 65.4135 76.5094 65.4807C76.5893 65.5472 76.6486 65.6435 76.6874 65.7697C76.7263 65.8951 76.7457 66.0459 76.7457 66.2221ZM75.8531 66.2221C75.8531 66.3744 75.8647 66.5013 75.8879 66.6029C75.911 66.7044 75.9483 66.7805 75.9998 66.8313C76.0521 66.8813 76.1204 66.9063 76.2048 66.9063C76.2891 66.9063 76.3571 66.8813 76.4086 66.8313C76.4609 66.7813 76.4986 66.7055 76.5217 66.604C76.5456 66.5024 76.5575 66.3751 76.5575 66.2221C76.5575 66.072 76.546 65.9466 76.5228 65.8458C76.4997 65.7443 76.4623 65.6681 76.4108 65.6174C76.3593 65.5659 76.2906 65.5401 76.2048 65.5401C76.1189 65.5401 76.0502 65.5659 75.9987 65.6174C75.9472 65.6681 75.9099 65.7443 75.8867 65.8458C75.8643 65.9466 75.8531 66.072 75.8531 66.2221ZM78.0492 67.043H76.9764V66.8873L77.4142 66.4427C77.4956 66.3606 77.5639 66.2874 77.6192 66.2232C77.6752 66.159 77.7177 66.0959 77.7468 66.034C77.776 65.9712 77.7905 65.9026 77.7905 65.8279C77.7905 65.7353 77.7629 65.6648 77.7076 65.6162C77.6531 65.567 77.5811 65.5423 77.4915 65.5423C77.4131 65.5423 77.3437 65.5558 77.2832 65.5827C77.2227 65.6095 77.1608 65.6476 77.0973 65.6969L76.9976 65.5715C77.041 65.5349 77.088 65.5024 77.1388 65.474C77.1903 65.4457 77.2451 65.4233 77.3034 65.4068C77.3624 65.3904 77.4251 65.3822 77.4915 65.3822C77.5923 65.3822 77.6793 65.3997 77.7524 65.4348C77.8256 65.4699 77.882 65.5199 77.9215 65.5849C77.9619 65.6498 77.982 65.7271 77.982 65.8167C77.982 65.9033 77.9648 65.9839 77.9305 66.0586C77.8962 66.1325 77.848 66.206 77.786 66.2792C77.7241 66.3516 77.6517 66.4285 77.5688 66.5099L77.2127 66.8649V66.8727H78.0492V67.043ZM78.8062 66.0418C78.9175 66.0418 79.0142 66.0608 79.0963 66.0989C79.1784 66.1362 79.2419 66.1907 79.2867 66.2624C79.3322 66.3341 79.355 66.4211 79.355 66.5233C79.355 66.6353 79.3307 66.732 79.2822 66.8134C79.2337 66.894 79.1639 66.9564 79.0728 67.0004C78.9817 67.0437 78.8727 67.0654 78.7458 67.0654C78.6607 67.0654 78.5815 67.0579 78.5084 67.043C78.4352 67.028 78.3736 67.0056 78.3236 66.9758V66.7988C78.3781 66.8317 78.4442 66.8578 78.5218 66.8772C78.5994 66.8966 78.6748 66.9063 78.748 66.9063C78.8309 66.9063 78.9033 66.8933 78.9653 66.8671C79.028 66.8403 79.0765 66.8 79.1109 66.7462C79.1459 66.6917 79.1635 66.6234 79.1635 66.5413C79.1635 66.4323 79.1299 66.3483 79.0627 66.2893C78.9963 66.2296 78.891 66.1997 78.7469 66.1997C78.7006 66.1997 78.6498 66.2034 78.5946 66.2109C78.5393 66.2184 78.4938 66.2266 78.458 66.2355L78.3639 66.1739L78.4266 65.4057H79.2408V65.5759H78.5856L78.5442 66.0698C78.5726 66.0638 78.6091 66.0579 78.6539 66.0519C78.6987 66.0452 78.7495 66.0418 78.8062 66.0418ZM80.1423 65.3822C80.2371 65.3822 80.3211 65.3971 80.3942 65.427C80.4674 65.4569 80.5245 65.5009 80.5656 65.5591C80.6074 65.6166 80.6283 65.6875 80.6283 65.7719C80.6283 65.8384 80.6137 65.8966 80.5846 65.9466C80.5562 65.9959 80.5178 66.0392 80.4693 66.0765C80.4207 66.1131 80.367 66.1459 80.308 66.1751C80.3782 66.2072 80.4413 66.2434 80.4973 66.2837C80.554 66.324 80.5988 66.3714 80.6316 66.4259C80.6645 66.4804 80.6809 66.545 80.6809 66.6197C80.6809 66.7115 80.6585 66.791 80.6137 66.8582C80.5697 66.9246 80.5077 66.9758 80.4278 67.0116C80.3479 67.0474 80.2542 67.0654 80.1467 67.0654C80.031 67.0654 79.9325 67.0482 79.8511 67.0139C79.7705 66.9788 79.7089 66.9287 79.6663 66.8638C79.6245 66.7981 79.6036 66.7193 79.6036 66.6275C79.6036 66.5521 79.6197 66.4868 79.6518 66.4315C79.6839 66.3755 79.7264 66.3274 79.7794 66.2871C79.8324 66.2467 79.8903 66.2128 79.953 66.1851C79.8985 66.1553 79.8485 66.1213 79.8029 66.0832C79.7581 66.0452 79.7223 66.0007 79.6954 65.95C79.6693 65.8985 79.6562 65.8387 79.6562 65.7708C79.6562 65.6879 79.6771 65.6177 79.7189 65.5603C79.7615 65.502 79.8194 65.458 79.8925 65.4281C79.9664 65.3975 80.0497 65.3822 80.1423 65.3822ZM79.7861 66.6286C79.7861 66.7122 79.8156 66.7813 79.8746 66.8358C79.9336 66.8895 80.0228 66.9164 80.1423 66.9164C80.2557 66.9164 80.3435 66.8895 80.4054 66.8358C80.4674 66.7813 80.4984 66.71 80.4984 66.6219C80.4984 66.5674 80.4842 66.5196 80.4558 66.4786C80.4275 66.4367 80.3871 66.3994 80.3349 66.3666C80.2826 66.3337 80.221 66.3039 80.1501 66.277L80.1098 66.2624C80.0411 66.2908 79.9825 66.3225 79.934 66.3576C79.8862 66.3919 79.8496 66.4311 79.8242 66.4752C79.7988 66.5192 79.7861 66.5704 79.7861 66.6286ZM80.14 65.5345C80.0519 65.5345 79.9799 65.5558 79.9239 65.5983C79.8679 65.6401 79.8399 65.7006 79.8399 65.7797C79.8399 65.8365 79.8533 65.8846 79.8802 65.9242C79.9078 65.963 79.9452 65.9966 79.9922 66.025C80.0392 66.0526 80.0919 66.0784 80.1501 66.1023C80.2068 66.0784 80.2572 66.0523 80.3013 66.0239C80.3453 65.9948 80.38 65.9604 80.4054 65.9209C80.4308 65.8813 80.4435 65.8339 80.4435 65.7786C80.4435 65.6995 80.4155 65.639 80.3595 65.5972C80.3043 65.5554 80.2311 65.5345 80.14 65.5345Z" fill="#212121"/>
<rect x="11.002" y="61.373" width="48.1636" height="2.29351" rx="1.14675" fill="#E7E7E7"/>
<rect x="11.002" y="65.2715" width="43.5766" height="2.29351" rx="1.14675" fill="#D5F263"/>
<path d="M12.2241 17.1591C12.2241 17.2952 12.2137 17.4168 12.1931 17.5239C12.1724 17.631 12.1399 17.7216 12.0956 17.7958C12.0512 17.87 11.9938 17.9266 11.9235 17.9656C11.8531 18.0038 11.7686 18.0229 11.67 18.0229C11.5453 18.0229 11.4421 17.9889 11.3602 17.9208C11.2791 17.8528 11.2183 17.7545 11.1778 17.626C11.138 17.4968 11.1182 17.3411 11.1182 17.1591C11.1182 16.9801 11.1361 16.8264 11.1721 16.6979C11.2088 16.5687 11.2677 16.4696 11.3487 16.4008C11.4298 16.3312 11.5369 16.2964 11.67 16.2964C11.7961 16.2964 11.9002 16.3308 11.982 16.3997C12.0638 16.4677 12.1246 16.5664 12.1644 16.6956C12.2042 16.8241 12.2241 16.9786 12.2241 17.1591ZM11.3097 17.1591C11.3097 17.3151 11.3216 17.4451 11.3453 17.5492C11.369 17.6532 11.4073 17.7312 11.46 17.7832C11.5136 17.8344 11.5835 17.86 11.67 17.86C11.7564 17.86 11.826 17.8344 11.8787 17.7832C11.9323 17.7319 11.9709 17.6543 11.9946 17.5503C12.0191 17.4463 12.0313 17.3159 12.0313 17.1591C12.0313 17.0054 12.0195 16.8769 11.9958 16.7737C11.9721 16.6696 11.9338 16.5916 11.881 16.5396C11.8283 16.4869 11.7579 16.4605 11.67 16.4605C11.582 16.4605 11.5116 16.4869 11.4589 16.5396C11.4061 16.5916 11.3679 16.6696 11.3442 16.7737C11.3212 16.8769 11.3097 17.0054 11.3097 17.1591Z" fill="#212121"/>
<path d="M21.3932 18H21.2073V16.8115C21.2073 16.7664 21.2073 16.7278 21.2073 16.6956C21.2081 16.6628 21.2089 16.6329 21.2096 16.6062C21.2112 16.5786 21.2131 16.5507 21.2154 16.5224C21.1917 16.5469 21.1695 16.5679 21.1488 16.5855C21.1282 16.6023 21.1026 16.6234 21.072 16.6486L20.8804 16.8023L20.7806 16.6727L21.2349 16.3228H21.3932V18ZM23.1369 17.1591C23.1369 17.2952 23.1266 17.4168 23.1059 17.5239C23.0853 17.631 23.0528 17.7216 23.0084 17.7958C22.9641 17.87 22.9067 17.9266 22.8364 17.9656C22.766 18.0038 22.6815 18.0229 22.5828 18.0229C22.4582 18.0229 22.3549 17.9889 22.2731 17.9208C22.192 17.8528 22.1312 17.7545 22.0907 17.626C22.0509 17.4968 22.031 17.3411 22.031 17.1591C22.031 16.9801 22.049 16.8264 22.0849 16.6979C22.1217 16.5687 22.1805 16.4696 22.2616 16.4008C22.3427 16.3312 22.4498 16.2964 22.5828 16.2964C22.709 16.2964 22.813 16.3308 22.8949 16.3997C22.9767 16.4677 23.0375 16.5664 23.0773 16.6956C23.117 16.8241 23.1369 16.9786 23.1369 17.1591ZM22.2226 17.1591C22.2226 17.3151 22.2345 17.4451 22.2582 17.5492C22.2819 17.6532 22.3201 17.7312 22.3729 17.7832C22.4264 17.8344 22.4964 17.86 22.5828 17.86C22.6692 17.86 22.7388 17.8344 22.7916 17.7832C22.8451 17.7319 22.8838 17.6543 22.9075 17.5503C22.932 17.4463 22.9442 17.3159 22.9442 17.1591C22.9442 17.0054 22.9323 16.8769 22.9086 16.7737C22.8849 16.6696 22.8467 16.5916 22.7939 16.5396C22.7411 16.4869 22.6708 16.4605 22.5828 16.4605C22.4949 16.4605 22.4245 16.4869 22.3717 16.5396C22.319 16.5916 22.2807 16.6696 22.257 16.7737C22.2341 16.8769 22.2226 17.0054 22.2226 17.1591ZM23.6474 16.215V17.1419C23.6474 17.1725 23.6463 17.21 23.644 17.2543C23.6417 17.2979 23.6398 17.3365 23.6382 17.3702H23.6463C23.6623 17.3503 23.6857 17.3209 23.7162 17.2819C23.7476 17.2429 23.774 17.2115 23.7954 17.1878L24.213 16.7427H24.4367L23.9308 17.2796L24.4734 18H24.244L23.8 17.4046L23.6474 17.5446V18H23.4581V16.215H23.6474Z" fill="#212121"/>
<path d="M32.7826 16.9744C32.8965 16.9744 32.9956 16.9939 33.0797 17.0329C33.1638 17.0712 33.2288 17.127 33.2747 17.2004C33.3214 17.2738 33.3447 17.3629 33.3447 17.4677C33.3447 17.5824 33.3199 17.6815 33.2701 17.7648C33.2204 17.8474 33.1489 17.9113 33.0556 17.9564C32.9623 18.0008 32.8507 18.0229 32.7206 18.0229C32.6335 18.0229 32.5524 18.0153 32.4774 18C32.4025 17.9847 32.3394 17.9618 32.2881 17.9312V17.7499C32.344 17.7836 32.4117 17.8103 32.4912 17.8302C32.5707 17.8501 32.648 17.86 32.7229 17.86C32.8078 17.86 32.882 17.8467 32.9455 17.8199C33.0097 17.7924 33.0594 17.7511 33.0946 17.696C33.1306 17.6402 33.1485 17.5702 33.1485 17.4861C33.1485 17.3744 33.1141 17.2884 33.0453 17.2279C32.9772 17.1668 32.8694 17.1362 32.7218 17.1362C32.6744 17.1362 32.6224 17.14 32.5658 17.1476C32.5092 17.1553 32.4625 17.1637 32.4258 17.1729L32.3294 17.1098L32.3937 16.3228H33.2277V16.4972H32.5566L32.5141 17.0031C32.5432 16.997 32.5807 16.9909 32.6266 16.9847C32.6725 16.9779 32.7245 16.9744 32.7826 16.9744ZM34.7053 17.1591C34.7053 17.2952 34.695 17.4168 34.6743 17.5239C34.6537 17.631 34.6211 17.7216 34.5768 17.7958C34.5324 17.87 34.4751 17.9266 34.4047 17.9656C34.3344 18.0038 34.2498 18.0229 34.1512 18.0229C34.0265 18.0229 33.9233 17.9889 33.8414 17.9208C33.7604 17.8528 33.6996 17.7545 33.659 17.626C33.6193 17.4968 33.5994 17.3411 33.5994 17.1591C33.5994 16.9801 33.6174 16.8264 33.6533 16.6979C33.69 16.5687 33.7489 16.4696 33.83 16.4008C33.911 16.3312 34.0181 16.2964 34.1512 16.2964C34.2774 16.2964 34.3814 16.3308 34.4632 16.3997C34.5451 16.4677 34.6059 16.5664 34.6456 16.6956C34.6854 16.8241 34.7053 16.9786 34.7053 17.1591ZM33.791 17.1591C33.791 17.3151 33.8028 17.4451 33.8265 17.5492C33.8502 17.6532 33.8885 17.7312 33.9412 17.7832C33.9948 17.8344 34.0648 17.86 34.1512 17.86C34.2376 17.86 34.3072 17.8344 34.36 17.7832C34.4135 17.7319 34.4521 17.6543 34.4758 17.5503C34.5003 17.4463 34.5125 17.3159 34.5125 17.1591C34.5125 17.0054 34.5007 16.8769 34.477 16.7737C34.4533 16.6696 34.415 16.5916 34.3623 16.5396C34.3095 16.4869 34.2391 16.4605 34.1512 16.4605C34.0632 16.4605 33.9929 16.4869 33.9401 16.5396C33.8873 16.5916 33.8491 16.6696 33.8254 16.7737C33.8024 16.8769 33.791 17.0054 33.791 17.1591ZM35.2158 16.215V17.1419C35.2158 17.1725 35.2146 17.21 35.2123 17.2543C35.21 17.2979 35.2081 17.3365 35.2066 17.3702H35.2146C35.2307 17.3503 35.254 17.3209 35.2846 17.2819C35.316 17.2429 35.3423 17.2115 35.3638 17.1878L35.7813 16.7427H36.005L35.4991 17.2796L36.0418 18H35.8123L35.3684 17.4046L35.2158 17.5446V18H35.0265V16.215H35.2158Z" fill="#212121"/>
<path d="M44.5299 18H44.3441V16.8115C44.3441 16.7664 44.3441 16.7278 44.3441 16.6956C44.3448 16.6628 44.3456 16.6329 44.3464 16.6062C44.3479 16.5786 44.3498 16.5507 44.3521 16.5224C44.3284 16.5469 44.3062 16.5679 44.2856 16.5855C44.2649 16.6023 44.2393 16.6234 44.2087 16.6486L44.0171 16.8023L43.9173 16.6727L44.3716 16.3228H44.5299V18ZM45.279 18V16.3228H45.474V17.8256H46.2186V18H45.279Z" fill="#212121"/>
<path d="M55.4883 18H54.3893V17.8405L54.8379 17.3851C54.9212 17.301 54.9912 17.226 55.0478 17.1603C55.1051 17.0945 55.1487 17.0299 55.1786 16.9664C55.2084 16.9021 55.2233 16.8318 55.2233 16.7553C55.2233 16.6605 55.195 16.5882 55.1384 16.5385C55.0826 16.488 55.0088 16.4628 54.917 16.4628C54.8367 16.4628 54.7656 16.4765 54.7036 16.5041C54.6417 16.5316 54.5782 16.5706 54.5132 16.6211L54.4111 16.4926C54.4555 16.4551 54.5036 16.4218 54.5556 16.3928C54.6084 16.3637 54.6646 16.3408 54.7243 16.324C54.7847 16.3071 54.8489 16.2987 54.917 16.2987C55.0203 16.2987 55.1094 16.3167 55.1843 16.3526C55.2593 16.3886 55.317 16.4398 55.3575 16.5064C55.3988 16.5729 55.4195 16.6521 55.4195 16.7438C55.4195 16.8325 55.4019 16.9151 55.3667 16.9916C55.3315 17.0673 55.2822 17.1427 55.2187 17.2176C55.1552 17.2918 55.0811 17.3706 54.9962 17.4539L54.6314 17.8176V17.8256H55.4883V18ZM55.8474 18V16.3228H56.0424V17.8256H56.7869V18H55.8474Z" fill="#212121"/>
<path d="M65.9967 16.714C65.9967 16.789 65.9821 16.854 65.9531 16.909C65.924 16.9641 65.8835 17.0092 65.8315 17.0444C65.7795 17.0788 65.7183 17.1029 65.6479 17.1167V17.1258C65.781 17.1427 65.8808 17.1855 65.9473 17.2543C66.0146 17.3232 66.0483 17.4134 66.0483 17.5251C66.0483 17.6222 66.0254 17.7082 65.9795 17.7832C65.9343 17.8581 65.8647 17.917 65.7707 17.9598C65.6774 18.0019 65.5577 18.0229 65.4116 18.0229C65.3229 18.0229 65.2407 18.0157 65.165 18.0011C65.09 17.9874 65.0181 17.9641 64.9493 17.9312V17.7522C65.0189 17.7866 65.0946 17.8138 65.1764 17.8337C65.2583 17.8528 65.3374 17.8623 65.4139 17.8623C65.5669 17.8623 65.6774 17.8321 65.7454 17.7717C65.8135 17.7105 65.8475 17.6272 65.8475 17.5216C65.8475 17.449 65.8284 17.3905 65.7902 17.3461C65.7527 17.301 65.6984 17.2681 65.6273 17.2474C65.5569 17.226 65.472 17.2153 65.3726 17.2153H65.2051V17.0524H65.3738C65.4648 17.0524 65.542 17.039 65.6055 17.0123C65.669 16.9855 65.7171 16.948 65.75 16.8998C65.7837 16.8509 65.8005 16.7932 65.8005 16.7266C65.8005 16.6417 65.7722 16.5763 65.7156 16.5305C65.659 16.4838 65.5822 16.4605 65.485 16.4605C65.4254 16.4605 65.3711 16.4666 65.3221 16.4788C65.2732 16.4911 65.2273 16.5079 65.1845 16.5293C65.1416 16.5507 65.0988 16.5756 65.056 16.6039L64.9596 16.4731C65.0208 16.4257 65.0954 16.3848 65.1833 16.3503C65.2713 16.3159 65.3711 16.2987 65.4827 16.2987C65.654 16.2987 65.7825 16.3377 65.8682 16.4157C65.9538 16.4937 65.9967 16.5932 65.9967 16.714ZM66.4177 18V16.3228H66.6127V17.8256H67.3572V18H66.4177Z" fill="#212121"/>
<path d="M11 71.043H67.1909" stroke="#F0F0F0" stroke-width="0.234944" stroke-linecap="round"/>
<path d="M11 21.7344H67.1909" stroke="#F0F0F0" stroke-width="0.234944" stroke-linecap="round"/>
<path d="M15.3236 73.7006C15.5349 73.7006 15.6891 73.7421 15.7862 73.8249C15.884 73.9071 15.9329 74.025 15.9329 74.1788C15.9329 74.2483 15.9213 74.3143 15.8981 74.377C15.8757 74.439 15.8392 74.4939 15.7884 74.5417C15.7376 74.5887 15.6708 74.626 15.5879 74.6536C15.5058 74.6805 15.405 74.694 15.2856 74.694H15.0862V75.3379H14.8959V73.7006H15.3236ZM15.3057 73.863H15.0862V74.5305H15.2643C15.3688 74.5305 15.4558 74.5193 15.5252 74.4969C15.5954 74.4745 15.648 74.4383 15.6831 74.3882C15.7182 74.3375 15.7358 74.2703 15.7358 74.1867C15.7358 74.0777 15.701 73.9967 15.6316 73.9436C15.5622 73.8899 15.4535 73.863 15.3057 73.863ZM16.7201 74.0881C16.8246 74.0881 16.9142 74.1113 16.9889 74.1575C17.0636 74.2038 17.1207 74.2688 17.1602 74.3524C17.1998 74.4353 17.2196 74.5323 17.2196 74.6436V74.7589H16.3718C16.3741 74.903 16.4099 75.0128 16.4794 75.0882C16.5488 75.1636 16.6466 75.2013 16.7728 75.2013C16.8504 75.2013 16.9191 75.1942 16.9788 75.18C17.0385 75.1658 17.1005 75.1449 17.1647 75.1173V75.2808C17.1028 75.3084 17.0412 75.3286 16.9799 75.3413C16.9195 75.3539 16.8478 75.3603 16.7649 75.3603C16.647 75.3603 16.5439 75.3364 16.4558 75.2886C16.3685 75.2401 16.3005 75.1692 16.252 75.0758C16.2035 74.9825 16.1792 74.8683 16.1792 74.7332C16.1792 74.601 16.2013 74.4868 16.2453 74.3905C16.2901 74.2934 16.3528 74.2188 16.4334 74.1665C16.5148 74.1142 16.6104 74.0881 16.7201 74.0881ZM16.7179 74.2404C16.6186 74.2404 16.5395 74.2729 16.4805 74.3378C16.4215 74.4028 16.3864 74.4935 16.3752 74.61H17.0247C17.024 74.5368 17.0124 74.4726 16.99 74.4174C16.9684 74.3614 16.9351 74.3181 16.8903 74.2874C16.8456 74.2561 16.7881 74.2404 16.7179 74.2404ZM18.5937 74.722C18.5937 74.8227 18.5806 74.9127 18.5545 74.9918C18.5284 75.071 18.4907 75.1378 18.4414 75.1923C18.3921 75.2468 18.3324 75.2886 18.2622 75.3177C18.1928 75.3461 18.114 75.3603 18.0259 75.3603C17.9438 75.3603 17.8684 75.3461 17.7997 75.3177C17.7317 75.2886 17.6728 75.2468 17.6227 75.1923C17.5735 75.1378 17.535 75.071 17.5074 74.9918C17.4805 74.9127 17.4671 74.8227 17.4671 74.722C17.4671 74.5876 17.4899 74.4733 17.5354 74.3793C17.5809 74.2845 17.6459 74.2124 17.7303 74.1631C17.8154 74.1131 17.9165 74.0881 18.0337 74.0881C18.1457 74.0881 18.2435 74.1131 18.3271 74.1631C18.4115 74.2132 18.4768 74.2856 18.5231 74.3804C18.5702 74.4745 18.5937 74.5883 18.5937 74.722ZM17.6597 74.722C17.6597 74.8205 17.6728 74.906 17.6989 74.9784C17.725 75.0508 17.7653 75.1068 17.8198 75.1464C17.8743 75.186 17.9445 75.2057 18.0304 75.2057C18.1155 75.2057 18.1853 75.186 18.2398 75.1464C18.295 75.1068 18.3357 75.0508 18.3619 74.9784C18.388 74.906 18.4011 74.8205 18.4011 74.722C18.4011 74.6242 18.388 74.5398 18.3619 74.4689C18.3357 74.3972 18.2954 74.3419 18.2409 74.3031C18.1864 74.2643 18.1159 74.2449 18.0293 74.2449C17.9016 74.2449 17.8079 74.2871 17.7482 74.3714C17.6892 74.4558 17.6597 74.5726 17.6597 74.722ZM19.4918 74.0881C19.6449 74.0881 19.7669 74.1407 19.858 74.246C19.9491 74.3513 19.9946 74.5096 19.9946 74.7208C19.9946 74.8605 19.9737 74.9777 19.9319 75.0725C19.8901 75.1673 19.8311 75.239 19.755 75.2875C19.6796 75.336 19.5904 75.3603 19.4873 75.3603C19.4224 75.3603 19.3653 75.3517 19.316 75.3345C19.2667 75.3174 19.2245 75.2942 19.1895 75.2651C19.1544 75.236 19.1252 75.2043 19.1021 75.1699H19.0887C19.0909 75.199 19.0935 75.2341 19.0965 75.2752C19.1002 75.3162 19.1021 75.3521 19.1021 75.3827V75.8866H18.9151V74.1105H19.0685L19.0931 74.2919H19.1021C19.126 74.2546 19.1551 74.2206 19.1895 74.19C19.2238 74.1587 19.2656 74.134 19.3149 74.1161C19.3649 74.0974 19.4239 74.0881 19.4918 74.0881ZM19.4593 74.2449C19.3742 74.2449 19.3055 74.2613 19.2533 74.2942C19.2018 74.327 19.1641 74.3763 19.1402 74.442C19.1163 74.5069 19.1036 74.5887 19.1021 74.6872V74.7231C19.1021 74.8269 19.1133 74.9146 19.1357 74.9862C19.1588 75.0579 19.1965 75.1124 19.2488 75.1498C19.3018 75.1871 19.3727 75.2057 19.4616 75.2057C19.5377 75.2057 19.6012 75.1852 19.652 75.1442C19.7027 75.1031 19.7404 75.046 19.7651 74.9728C19.7905 74.8989 19.8031 74.8142 19.8031 74.7186C19.8031 74.5738 19.7748 74.4588 19.718 74.3737C19.662 74.2878 19.5758 74.2449 19.4593 74.2449ZM20.5064 75.3379H20.3194V73.5954H20.5064V75.3379ZM21.3721 74.0881C21.4766 74.0881 21.5662 74.1113 21.6409 74.1575C21.7155 74.2038 21.7726 74.2688 21.8122 74.3524C21.8518 74.4353 21.8716 74.5323 21.8716 74.6436V74.7589H21.0238C21.026 74.903 21.0619 75.0128 21.1313 75.0882C21.2007 75.1636 21.2986 75.2013 21.4247 75.2013C21.5024 75.2013 21.5711 75.1942 21.6308 75.18C21.6905 75.1658 21.7525 75.1449 21.8167 75.1173V75.2808C21.7547 75.3084 21.6931 75.3286 21.6319 75.3413C21.5714 75.3539 21.4998 75.3603 21.4169 75.3603C21.2989 75.3603 21.1959 75.3364 21.1078 75.2886C21.0204 75.2401 20.9525 75.1692 20.904 75.0758C20.8555 74.9825 20.8312 74.8683 20.8312 74.7332C20.8312 74.601 20.8532 74.4868 20.8973 74.3905C20.9421 74.2934 21.0048 74.2188 21.0854 74.1665C21.1668 74.1142 21.2623 74.0881 21.3721 74.0881ZM21.3699 74.2404C21.2706 74.2404 21.1914 74.2729 21.1324 74.3378C21.0735 74.4028 21.0384 74.4935 21.0272 74.61H21.6767C21.6759 74.5368 21.6644 74.4726 21.642 74.4174C21.6203 74.3614 21.5871 74.3181 21.5423 74.2874C21.4975 74.2561 21.44 74.2404 21.3699 74.2404ZM24.2311 74.517C24.2311 74.6432 24.2151 74.7582 24.183 74.8619C24.1509 74.965 24.1031 75.0538 24.0396 75.1285C23.9769 75.2024 23.8989 75.2595 23.8056 75.2998C23.7123 75.3401 23.604 75.3603 23.4808 75.3603C23.3539 75.3603 23.243 75.3401 23.1482 75.2998C23.0541 75.2595 22.9758 75.202 22.913 75.1274C22.8511 75.0527 22.8044 74.9635 22.7731 74.8597C22.7424 74.7559 22.7271 74.641 22.7271 74.5148C22.7271 74.3475 22.7548 74.2008 22.81 74.0747C22.8653 73.9485 22.9489 73.8503 23.0609 73.7801C23.1736 73.71 23.3147 73.6749 23.4842 73.6749C23.6462 73.6749 23.7824 73.7096 23.8929 73.779C24.0042 73.8485 24.0882 73.9463 24.1449 74.0724C24.2024 74.1979 24.2311 74.3461 24.2311 74.517ZM22.9276 74.517C22.9276 74.6559 22.9474 74.7761 22.987 74.8776C23.0265 74.9792 23.087 75.0575 23.1684 75.1128C23.2505 75.168 23.3546 75.1957 23.4808 75.1957C23.6077 75.1957 23.7115 75.168 23.7921 75.1128C23.8735 75.0575 23.9336 74.9792 23.9724 74.8776C24.0113 74.7761 24.0307 74.6559 24.0307 74.517C24.0307 74.3057 23.9863 74.1407 23.8974 74.022C23.8093 73.9026 23.6716 73.8429 23.4842 73.8429C23.3573 73.8429 23.2527 73.8701 23.1706 73.9246C23.0885 73.9791 23.0273 74.0568 22.987 74.1575C22.9474 74.2576 22.9276 74.3774 22.9276 74.517ZM25.5817 74.1105V75.3379H25.4294L25.4025 75.1654H25.3924C25.3671 75.208 25.3342 75.2438 25.2939 75.2729C25.2536 75.3021 25.208 75.3237 25.1573 75.3379C25.1072 75.3528 25.0539 75.3603 24.9971 75.3603C24.9001 75.3603 24.8187 75.3446 24.753 75.3133C24.6873 75.2819 24.6376 75.2334 24.6041 75.1677C24.5712 75.102 24.5548 75.0176 24.5548 74.9146V74.1105H24.7429V74.9011C24.7429 75.0034 24.7661 75.0799 24.8123 75.1307C24.8586 75.1807 24.9292 75.2057 25.024 75.2057C25.1151 75.2057 25.1875 75.1886 25.2413 75.1542C25.2958 75.1199 25.335 75.0695 25.3588 75.003C25.3827 74.9359 25.3947 74.8537 25.3947 74.7567V74.1105H25.5817ZM26.3712 75.208C26.4018 75.208 26.4332 75.2054 26.4653 75.2001C26.4974 75.1949 26.5235 75.1886 26.5437 75.1811V75.3256C26.522 75.3353 26.4918 75.3435 26.453 75.3502C26.4149 75.3569 26.3776 75.3603 26.341 75.3603C26.276 75.3603 26.217 75.3491 26.164 75.3267C26.111 75.3035 26.0685 75.2647 26.0364 75.2102C26.005 75.1557 25.9893 75.0803 25.9893 74.984V74.2561H25.8146V74.1654L25.9905 74.0926L26.0644 73.8261H26.1764V74.1105H26.5358V74.2561H26.1764V74.9784C26.1764 75.0553 26.1939 75.1128 26.229 75.1509C26.2648 75.1889 26.3122 75.208 26.3712 75.208Z" fill="#212121"/>
<circle cx="11.9194" cy="74.9428" r="0.917402" fill="#D5F263"/>
<path d="M34.1303 73.7006C34.3416 73.7006 34.4957 73.7421 34.5928 73.8249C34.6906 73.9071 34.7395 74.025 34.7395 74.1788C34.7395 74.2483 34.7279 74.3143 34.7048 74.377C34.6824 74.439 34.6458 74.4939 34.595 74.5417C34.5443 74.5887 34.4774 74.626 34.3946 74.6536C34.3124 74.6805 34.2117 74.694 34.0922 74.694H33.8929V75.3379H33.7025V73.7006H34.1303ZM34.1124 73.863H33.8929V74.5305H34.0709C34.1755 74.5305 34.2624 74.5193 34.3319 74.4969C34.402 74.4745 34.4547 74.4383 34.4898 74.3882C34.5249 74.3375 34.5424 74.2703 34.5424 74.1867C34.5424 74.0777 34.5077 73.9967 34.4382 73.9436C34.3688 73.8899 34.2602 73.863 34.1124 73.863ZM35.5268 74.0881C35.6313 74.0881 35.7209 74.1113 35.7955 74.1575C35.8702 74.2038 35.9273 74.2688 35.9669 74.3524C36.0064 74.4353 36.0262 74.5323 36.0262 74.6436V74.7589H35.1785C35.1807 74.903 35.2166 75.0128 35.286 75.0882C35.3554 75.1636 35.4532 75.2013 35.5794 75.2013C35.657 75.2013 35.7257 75.1942 35.7855 75.18C35.8452 75.1658 35.9072 75.1449 35.9714 75.1173V75.2808C35.9094 75.3084 35.8478 75.3286 35.7866 75.3413C35.7261 75.3539 35.6544 75.3603 35.5716 75.3603C35.4536 75.3603 35.3506 75.3364 35.2625 75.2886C35.1751 75.2401 35.1072 75.1692 35.0587 75.0758C35.0101 74.9825 34.9859 74.8683 34.9859 74.7332C34.9859 74.601 35.0079 74.4868 35.0519 74.3905C35.0967 74.2934 35.1594 74.2188 35.2401 74.1665C35.3215 74.1142 35.417 74.0881 35.5268 74.0881ZM35.5245 74.2404C35.4252 74.2404 35.3461 74.2729 35.2871 74.3378C35.2281 74.4028 35.193 74.4935 35.1818 74.61H35.8314C35.8306 74.5368 35.8191 74.4726 35.7967 74.4174C35.775 74.3614 35.7418 74.3181 35.697 74.2874C35.6522 74.2561 35.5947 74.2404 35.5245 74.2404ZM37.4003 74.722C37.4003 74.8227 37.3873 74.9127 37.3611 74.9918C37.335 75.071 37.2973 75.1378 37.248 75.1923C37.1987 75.2468 37.139 75.2886 37.0688 75.3177C36.9994 75.3461 36.9206 75.3603 36.8325 75.3603C36.7504 75.3603 36.675 75.3461 36.6063 75.3177C36.5384 75.2886 36.4794 75.2468 36.4294 75.1923C36.3801 75.1378 36.3417 75.071 36.314 74.9918C36.2872 74.9127 36.2737 74.8227 36.2737 74.722C36.2737 74.5876 36.2965 74.4733 36.342 74.3793C36.3876 74.2845 36.4525 74.2124 36.5369 74.1631C36.622 74.1131 36.7232 74.0881 36.8404 74.0881C36.9524 74.0881 37.0502 74.1131 37.1338 74.1631C37.2182 74.2132 37.2835 74.2856 37.3298 74.3804C37.3768 74.4745 37.4003 74.5883 37.4003 74.722ZM36.4663 74.722C36.4663 74.8205 36.4794 74.906 36.5055 74.9784C36.5317 75.0508 36.572 75.1068 36.6265 75.1464C36.681 75.186 36.7512 75.2057 36.837 75.2057C36.9221 75.2057 36.9919 75.186 37.0464 75.1464C37.1017 75.1068 37.1424 75.0508 37.1685 74.9784C37.1946 74.906 37.2077 74.8205 37.2077 74.722C37.2077 74.6242 37.1946 74.5398 37.1685 74.4689C37.1424 74.3972 37.1021 74.3419 37.0476 74.3031C36.9931 74.2643 36.9225 74.2449 36.8359 74.2449C36.7082 74.2449 36.6145 74.2871 36.5548 74.3714C36.4958 74.4558 36.4663 74.5726 36.4663 74.722ZM38.2985 74.0881C38.4515 74.0881 38.5736 74.1407 38.6647 74.246C38.7557 74.3513 38.8013 74.5096 38.8013 74.7208C38.8013 74.8605 38.7804 74.9777 38.7386 75.0725C38.6968 75.1673 38.6378 75.239 38.5616 75.2875C38.4862 75.336 38.397 75.3603 38.294 75.3603C38.229 75.3603 38.1719 75.3517 38.1226 75.3345C38.0734 75.3174 38.0312 75.2942 37.9961 75.2651C37.961 75.236 37.9319 75.2043 37.9087 75.1699H37.8953C37.8975 75.199 37.9002 75.2341 37.9031 75.2752C37.9069 75.3162 37.9087 75.3521 37.9087 75.3827V75.8866H37.7217V74.1105H37.8751L37.8998 74.2919H37.9087C37.9326 74.2546 37.9618 74.2206 37.9961 74.19C38.0304 74.1587 38.0722 74.134 38.1215 74.1161C38.1715 74.0974 38.2305 74.0881 38.2985 74.0881ZM38.266 74.2449C38.1809 74.2449 38.1122 74.2613 38.0599 74.2942C38.0084 74.327 37.9707 74.3763 37.9468 74.442C37.9229 74.5069 37.9102 74.5887 37.9087 74.6872V74.7231C37.9087 74.8269 37.9199 74.9146 37.9423 74.9862C37.9655 75.0579 38.0032 75.1124 38.0554 75.1498C38.1085 75.1871 38.1794 75.2057 38.2682 75.2057C38.3444 75.2057 38.4078 75.1852 38.4586 75.1442C38.5094 75.1031 38.5471 75.046 38.5717 74.9728C38.5971 74.8989 38.6098 74.8142 38.6098 74.7186C38.6098 74.5738 38.5814 74.4588 38.5247 74.3737C38.4687 74.2878 38.3825 74.2449 38.266 74.2449ZM39.3131 75.3379H39.126V73.5954H39.3131V75.3379ZM40.1787 74.0881C40.2833 74.0881 40.3728 74.1113 40.4475 74.1575C40.5222 74.2038 40.5793 74.2688 40.6188 74.3524C40.6584 74.4353 40.6782 74.5323 40.6782 74.6436V74.7589H39.8304C39.8327 74.903 39.8685 75.0128 39.938 75.0882C40.0074 75.1636 40.1052 75.2013 40.2314 75.2013C40.309 75.2013 40.3777 75.1942 40.4374 75.18C40.4971 75.1658 40.5591 75.1449 40.6233 75.1173V75.2808C40.5614 75.3084 40.4998 75.3286 40.4385 75.3413C40.3781 75.3539 40.3064 75.3603 40.2235 75.3603C40.1056 75.3603 40.0025 75.3364 39.9144 75.2886C39.8271 75.2401 39.7592 75.1692 39.7106 75.0758C39.6621 74.9825 39.6378 74.8683 39.6378 74.7332C39.6378 74.601 39.6599 74.4868 39.7039 74.3905C39.7487 74.2934 39.8114 74.2188 39.892 74.1665C39.9734 74.1142 40.069 74.0881 40.1787 74.0881ZM40.1765 74.2404C40.0772 74.2404 39.9981 74.2729 39.9391 74.3378C39.8801 74.4028 39.845 74.4935 39.8338 74.61H40.4833C40.4826 74.5368 40.471 74.4726 40.4486 74.4174C40.427 74.3614 40.3937 74.3181 40.349 74.2874C40.3042 74.2561 40.2467 74.2404 40.1765 74.2404ZM41.6178 75.3379V73.7006H41.8081V75.3379H41.6178ZM42.8116 74.0881C42.9571 74.0881 43.0673 74.1239 43.1419 74.1956C43.2166 74.2665 43.2539 74.3808 43.2539 74.5383V75.3379H43.0702V74.5506C43.0702 74.4483 43.0467 74.3718 42.9997 74.321C42.9534 74.2703 42.8821 74.2449 42.7858 74.2449C42.6499 74.2449 42.5544 74.2833 42.4991 74.3602C42.4439 74.4371 42.4162 74.5488 42.4162 74.6951V75.3379H42.2303V74.1105H42.3804L42.4084 74.2874H42.4185C42.4446 74.2441 42.4778 74.2079 42.5182 74.1788C42.5585 74.149 42.6036 74.1266 42.6537 74.1116C42.7037 74.0959 42.7563 74.0881 42.8116 74.0881Z" fill="#212121"/>
<circle cx="30.726" cy="74.9428" r="0.917402" fill="#E7E7E7"/>
</svg>
