<svg width="93" height="92" viewBox="0 0 93 92" fill="none" xmlns="http://www.w3.org/2000/svg">
<rect x="1.26092" y="0.389831" width="91.079" height="91.2203" rx="17.5424" stroke="#BEBEBE" stroke-width="0.779661"/>
<g clip-path="url(#clip0_7837_43870)">
<rect width="70" height="61" transform="translate(12 16)" fill="white"/>
<path d="M15.3711 9.77734V59.8144" stroke="#E0E0E0" stroke-width="0.259259"/>
<path d="M16.4855 61.5917C16.4855 61.7118 16.4763 61.8192 16.4581 61.9137C16.4399 62.0082 16.4112 62.0882 16.372 62.1537C16.3329 62.2192 16.2822 62.2692 16.2201 62.3036C16.158 62.3374 16.0834 62.3542 15.9963 62.3542C15.8863 62.3542 15.7951 62.3242 15.7229 62.2641C15.6513 62.204 15.5976 62.1173 15.5618 62.0038C15.5267 61.8897 15.5092 61.7523 15.5092 61.5917C15.5092 61.4337 15.5251 61.298 15.5568 61.1845C15.5892 61.0704 15.6412 60.983 15.7127 60.9222C15.7843 60.8608 15.8788 60.8301 15.9963 60.8301C16.1077 60.8301 16.1995 60.8605 16.2718 60.9212C16.344 60.9813 16.3977 61.0684 16.4328 61.1825C16.4679 61.2959 16.4855 61.4323 16.4855 61.5917ZM15.6783 61.5917C15.6783 61.7294 15.6888 61.8442 15.7097 61.936C15.7306 62.0278 15.7644 62.0967 15.811 62.1426C15.8582 62.1878 15.92 62.2104 15.9963 62.2104C16.0726 62.2104 16.134 62.1878 16.1806 62.1426C16.2279 62.0973 16.262 62.0288 16.2829 61.937C16.3045 61.8452 16.3153 61.7301 16.3153 61.5917C16.3153 61.4559 16.3049 61.3425 16.2839 61.2514C16.263 61.1596 16.2292 61.0907 16.1827 61.0448C16.1361 60.9982 16.074 60.9749 15.9963 60.9749C15.9187 60.9749 15.8566 60.9982 15.81 61.0448C15.7634 61.0907 15.7296 61.1596 15.7087 61.2514C15.6884 61.3425 15.6783 61.4559 15.6783 61.5917Z" fill="#212121"/>
<path d="M15.2415 59.8144C15.2415 59.886 15.2995 59.944 15.3711 59.944C15.4427 59.944 15.5007 59.886 15.5007 59.8144H15.2415ZM15.3711 9.77734H15.2415V59.8144H15.3711H15.5007V9.77734H15.3711Z" fill="#D4D4D4"/>
<path d="M15.3711 59.8145H77.3341" stroke="#D4D4D4" stroke-width="0.259259"/>
<rect x="21.8516" y="50.2227" width="2.07407" height="9.59259" rx="1.03704" fill="#C1E044"/>
<rect x="21.8516" y="40.1113" width="2.07407" height="9.59259" rx="1.03704" fill="#D5D5D5"/>
<rect x="30.4062" y="42.7031" width="2.07407" height="17.1111" rx="1.03704" fill="#C1E044"/>
<rect x="30.4062" y="33.8887" width="2.07407" height="8.2963" rx="1.03704" fill="#D5D5D5"/>
<rect x="38.9629" y="47.8867" width="2.07407" height="11.9259" rx="1.03704" fill="#C1E044"/>
<rect x="38.9629" y="24.2949" width="2.07407" height="23.0741" rx="1.03704" fill="#D5D5D5"/>
<rect x="47.5195" y="38.2949" width="2.07407" height="21.5185" rx="1.03704" fill="#C1E044"/>
<rect x="47.5195" y="29.7422" width="2.07407" height="8.03704" rx="1.03704" fill="#D5D5D5"/>
<rect x="56.0742" y="51.7754" width="2.07407" height="8.03704" rx="1.03704" fill="#C1E044"/>
<rect x="56.0742" y="43.2207" width="2.07407" height="8.03704" rx="1.03704" fill="#D5D5D5"/>
<rect x="64.6309" y="40.1094" width="2.07407" height="19.7037" rx="1.03704" fill="#C1E044"/>
<rect x="64.6309" y="26.3691" width="2.07407" height="13.2222" rx="1.03704" fill="#D5D5D5"/>
<rect x="73.1855" y="44.5195" width="2.07407" height="15.2963" rx="1.03704" fill="#C1E044"/>
<rect x="73.1855" y="28.7051" width="2.07407" height="15.2963" rx="1.03704" fill="#D5D5D5"/>
<g filter="url(#filter0_d_7837_43870)">
<path d="M32.8721 44C33.5163 44.0002 34.0381 44.5228 34.0381 45.167V45.6855C34.038 46.3297 33.5162 46.8524 32.8721 46.8525H31.79L31.3164 47.3262L30.8428 46.8525H29.7607C29.1164 46.8525 28.5938 46.3298 28.5938 45.6855V45.167C28.5938 44.5227 29.1164 44 29.7607 44H32.8721Z" fill="white"/>
</g>
<g filter="url(#filter1_d_7837_43870)">
<path d="M24.5752 41.4062C25.2194 41.4064 25.7412 41.929 25.7412 42.5732V43.0918C25.7412 43.736 25.2194 44.2586 24.5752 44.2588H23.4951L23.0195 44.7344L22.5439 44.2588H21.4639C20.8196 44.2588 20.2969 43.7361 20.2969 43.0918V42.5732C20.2969 41.9289 20.8195 41.4062 21.4639 41.4062H24.5752Z" fill="white"/>
</g>
<g filter="url(#filter2_d_7837_43870)">
<path d="M24.5752 51.5195C25.2194 51.5197 25.7412 52.0423 25.7412 52.6865V53.2051C25.7412 53.8493 25.2194 54.3719 24.5752 54.3721H23.4932L23.0195 54.8457L22.5459 54.3721H21.4639C20.8196 54.3721 20.2969 53.8494 20.2969 53.2051V52.6865C20.2969 52.0422 20.8195 51.5195 21.4639 51.5195H24.5752Z" fill="white"/>
</g>
<g filter="url(#filter3_d_7837_43870)">
<path d="M67.3525 41.4062C67.9967 41.4064 68.5186 41.929 68.5186 42.5732V43.0918C68.5185 43.736 67.9967 44.2586 67.3525 44.2588H66.2725L65.7969 44.7344L65.3213 44.2588H64.2412C63.5969 44.2588 63.0743 43.7361 63.0742 43.0918V42.5732C63.0742 41.9289 63.5969 41.4062 64.2412 41.4062H67.3525Z" fill="white"/>
</g>
<g filter="url(#filter4_d_7837_43870)">
<path d="M67.3525 27.668C67.9967 27.6681 68.5186 28.1907 68.5186 28.835V29.3535C68.5185 29.9977 67.9967 30.5204 67.3525 30.5205H66.2705L65.7969 30.9941L65.3232 30.5205H64.2412C63.5969 30.5205 63.0743 29.9978 63.0742 29.3535V28.835C63.0742 28.1906 63.5969 27.668 64.2412 27.668H67.3525Z" fill="white"/>
</g>
<path d="M30.1097 46.1289H29.9304V45.4142C29.9304 45.3904 29.9307 45.3666 29.9312 45.3428C29.9317 45.319 29.9322 45.2957 29.9327 45.2729C29.9337 45.2501 29.935 45.2283 29.9365 45.2076C29.9259 45.2192 29.9127 45.2319 29.897 45.2456C29.8818 45.2592 29.8656 45.2734 29.8484 45.2881L29.7208 45.3899L29.6312 45.2767L29.9608 45.0184H30.1097V46.1289ZM31.3321 45.8851H31.1817V46.1289H31.0055V45.8851H30.5004V45.7499L31.0077 45.0154H31.1817V45.737H31.3321V45.8851ZM31.0055 45.737V45.4613C31.0055 45.4385 31.0057 45.4154 31.0062 45.3921C31.0072 45.3683 31.0082 45.3456 31.0093 45.3238C31.0103 45.302 31.0113 45.282 31.0123 45.2638C31.0133 45.245 31.0141 45.2296 31.0146 45.2174H31.0085C30.9989 45.2377 30.9882 45.2585 30.9766 45.2797C30.965 45.3005 30.9525 45.3207 30.9394 45.3405L30.6659 45.737H31.0055ZM31.8724 45.4347C31.9438 45.4347 32.0065 45.4476 32.0607 45.4734C32.1154 45.4987 32.1579 45.5362 32.1883 45.5858C32.2187 45.6349 32.2339 45.6952 32.2339 45.7666C32.2339 45.8446 32.2174 45.9119 32.1845 45.9686C32.1516 46.0248 32.1033 46.0681 32.0395 46.0985C31.9757 46.1289 31.8979 46.1441 31.8063 46.1441C31.748 46.1441 31.6936 46.139 31.643 46.1289C31.5928 46.1188 31.5496 46.1036 31.5131 46.0833V45.9223C31.5511 45.9436 31.5966 45.961 31.6498 45.9747C31.703 45.9879 31.7539 45.9945 31.8025 45.9945C31.8541 45.9945 31.8984 45.9869 31.9354 45.9717C31.9724 45.9565 32.0007 45.9332 32.0205 45.9018C32.0407 45.8704 32.0509 45.8307 32.0509 45.7826C32.0509 45.7187 32.0303 45.6696 31.9893 45.6352C31.9488 45.6003 31.8853 45.5828 31.7987 45.5828C31.7683 45.5828 31.7359 45.5856 31.7015 45.5911C31.6675 45.5962 31.6392 45.6018 31.6164 45.6079L31.5382 45.5615L31.5799 45.0184H32.1572V45.1757H31.7372L31.7129 45.4521C31.7311 45.4481 31.7529 45.4443 31.7782 45.4408C31.8035 45.4367 31.8349 45.4347 31.8724 45.4347ZM33.2018 45.5729C33.2018 45.6625 33.1947 45.7428 33.1806 45.8137C33.1669 45.8841 33.1451 45.9438 33.1152 45.9929C33.0854 46.0421 33.0464 46.0795 32.9983 46.1054C32.9502 46.1312 32.8919 46.1441 32.8236 46.1441C32.738 46.1441 32.6674 46.1216 32.6117 46.0765C32.556 46.0309 32.5147 45.9656 32.4878 45.8805C32.461 45.795 32.4476 45.6924 32.4476 45.5729C32.4476 45.4534 32.4597 45.3511 32.484 45.2661C32.5089 45.1805 32.5489 45.1149 32.6041 45.0693C32.6593 45.0238 32.7324 45.001 32.8236 45.001C32.9097 45.001 32.9805 45.0238 33.0362 45.0693C33.0924 45.1144 33.134 45.1797 33.1608 45.2653C33.1882 45.3504 33.2018 45.4529 33.2018 45.5729ZM32.6276 45.5729C32.6276 45.6666 32.6337 45.7448 32.6458 45.8076C32.6585 45.8704 32.6793 45.9175 32.7081 45.9489C32.737 45.9798 32.7755 45.9952 32.8236 45.9952C32.8717 45.9952 32.9102 45.9798 32.939 45.9489C32.9679 45.918 32.9886 45.8712 33.0013 45.8084C33.0145 45.7456 33.0211 45.6671 33.0211 45.5729C33.0211 45.4797 33.0147 45.4018 33.0021 45.339C32.9894 45.2762 32.9686 45.2291 32.9398 45.1977C32.9109 45.1658 32.8722 45.1498 32.8236 45.1498C32.775 45.1498 32.7362 45.1658 32.7074 45.1977C32.679 45.2291 32.6585 45.2762 32.6458 45.339C32.6337 45.4018 32.6276 45.4797 32.6276 45.5729Z" fill="#212121"/>
<path d="M21.8128 43.5371H21.6336V42.8224C21.6336 42.7986 21.6338 42.7748 21.6343 42.751C21.6348 42.7272 21.6353 42.7039 21.6359 42.6811C21.6369 42.6583 21.6381 42.6365 21.6396 42.6158C21.629 42.6274 21.6158 42.6401 21.6002 42.6538C21.585 42.6674 21.5688 42.6816 21.5515 42.6963L21.4239 42.7981L21.3343 42.6849L21.664 42.4266H21.8128V43.5371ZM22.9949 43.5371H22.243V43.4027L22.5309 43.111C22.5866 43.0543 22.6324 43.0054 22.6683 42.9644C22.7043 42.9229 22.7309 42.8836 22.7481 42.8467C22.7658 42.8097 22.7747 42.7695 22.7747 42.7259C22.7747 42.6722 22.7592 42.6317 22.7283 42.6044C22.6974 42.5765 22.6567 42.5626 22.606 42.5626C22.5579 42.5626 22.5134 42.5722 22.4724 42.5915C22.4319 42.6102 22.3898 42.637 22.3463 42.672L22.2483 42.5543C22.2792 42.5279 22.3121 42.5039 22.347 42.4821C22.3825 42.4603 22.422 42.4431 22.4655 42.4304C22.5091 42.4173 22.5587 42.4107 22.6144 42.4107C22.6848 42.4107 22.7456 42.4234 22.7967 42.4487C22.8478 42.4735 22.8871 42.5082 22.9144 42.5527C22.9423 42.5973 22.9562 42.6492 22.9562 42.7084C22.9562 42.7682 22.9443 42.8234 22.9205 42.874C22.8967 42.9247 22.8628 42.9748 22.8187 43.0244C22.7747 43.0735 22.7223 43.127 22.6615 43.1847L22.4693 43.3723V43.3806H22.9949V43.5371ZM23.9499 42.9811C23.9499 43.0707 23.9429 43.151 23.9287 43.2219C23.915 43.2923 23.8932 43.352 23.8634 43.4012C23.8335 43.4503 23.7945 43.4877 23.7464 43.5136C23.6983 43.5394 23.64 43.5523 23.5717 43.5523C23.4861 43.5523 23.4155 43.5298 23.3598 43.4847C23.3041 43.4391 23.2628 43.3738 23.236 43.2887C23.2091 43.2032 23.1957 43.1006 23.1957 42.9811C23.1957 42.8616 23.2079 42.7593 23.2322 42.6743C23.257 42.5887 23.297 42.5231 23.3522 42.4775C23.4074 42.432 23.4805 42.4092 23.5717 42.4092C23.6578 42.4092 23.7287 42.432 23.7844 42.4775C23.8406 42.5226 23.8821 42.5879 23.9089 42.6735C23.9363 42.7586 23.9499 42.8611 23.9499 42.9811ZM23.3757 42.9811C23.3757 43.0748 23.3818 43.153 23.394 43.2158C23.4066 43.2786 23.4274 43.3257 23.4562 43.3571C23.4851 43.388 23.5236 43.4034 23.5717 43.4034C23.6198 43.4034 23.6583 43.388 23.6871 43.3571C23.716 43.3262 23.7368 43.2794 23.7494 43.2166C23.7626 43.1538 23.7692 43.0753 23.7692 42.9811C23.7692 42.8879 23.7628 42.81 23.7502 42.7472C23.7375 42.6844 23.7168 42.6373 23.6879 42.6059C23.659 42.574 23.6203 42.5581 23.5717 42.5581C23.5231 42.5581 23.4843 42.574 23.4555 42.6059C23.4271 42.6373 23.4066 42.6844 23.394 42.7472C23.3818 42.81 23.3757 42.8879 23.3757 42.9811ZM24.9049 42.9811C24.9049 43.0707 24.8979 43.151 24.8837 43.2219C24.87 43.2923 24.8482 43.352 24.8184 43.4012C24.7885 43.4503 24.7495 43.4877 24.7014 43.5136C24.6533 43.5394 24.5951 43.5523 24.5267 43.5523C24.4411 43.5523 24.3705 43.5298 24.3148 43.4847C24.2591 43.4391 24.2178 43.3738 24.191 43.2887C24.1641 43.2032 24.1507 43.1006 24.1507 42.9811C24.1507 42.8616 24.1629 42.7593 24.1872 42.6743C24.212 42.5887 24.252 42.5231 24.3072 42.4775C24.3624 42.432 24.4355 42.4092 24.5267 42.4092C24.6128 42.4092 24.6837 42.432 24.7394 42.4775C24.7956 42.5226 24.8371 42.5879 24.8639 42.6735C24.8913 42.7586 24.9049 42.8611 24.9049 42.9811ZM24.3307 42.9811C24.3307 43.0748 24.3368 43.153 24.349 43.2158C24.3616 43.2786 24.3824 43.3257 24.4112 43.3571C24.4401 43.388 24.4786 43.4034 24.5267 43.4034C24.5748 43.4034 24.6133 43.388 24.6421 43.3571C24.671 43.3262 24.6918 43.2794 24.7044 43.2166C24.7176 43.1538 24.7242 43.0753 24.7242 42.9811C24.7242 42.8879 24.7178 42.81 24.7052 42.7472C24.6925 42.6844 24.6718 42.6373 24.6429 42.6059C24.614 42.574 24.5753 42.5581 24.5267 42.5581C24.4781 42.5581 24.4393 42.574 24.4105 42.6059C24.3821 42.6373 24.3616 42.6844 24.349 42.7472C24.3368 42.81 24.3307 42.8879 24.3307 42.9811Z" fill="#212121"/>
<path d="M22.3099 53.6484H22.1306V52.9337C22.1306 52.9099 22.1309 52.8861 22.1314 52.8623C22.1319 52.8385 22.1324 52.8152 22.1329 52.7924C22.1339 52.7696 22.1352 52.7479 22.1367 52.7271C22.126 52.7388 22.1129 52.7514 22.0972 52.7651C22.082 52.7788 22.0658 52.7929 22.0486 52.8076L21.921 52.9094L21.8313 52.7962L22.161 52.538H22.3099V53.6484ZM23.492 53.0924C23.492 53.1821 23.4849 53.2623 23.4707 53.3332C23.457 53.4036 23.4353 53.4634 23.4054 53.5125C23.3755 53.5616 23.3365 53.5991 23.2884 53.6249C23.2403 53.6507 23.1821 53.6636 23.1137 53.6636C23.0281 53.6636 22.9575 53.6411 22.9018 53.596C22.8461 53.5505 22.8048 53.4851 22.778 53.4001C22.7512 53.3145 22.7377 53.212 22.7377 53.0924C22.7377 52.9729 22.7499 52.8707 22.7742 52.7856C22.799 52.7 22.839 52.6344 22.8942 52.5889C22.9494 52.5433 23.0226 52.5205 23.1137 52.5205C23.1998 52.5205 23.2707 52.5433 23.3264 52.5889C23.3826 52.6339 23.4241 52.6993 23.451 52.7848C23.4783 52.8699 23.492 52.9724 23.492 53.0924ZM22.9178 53.0924C22.9178 53.1861 22.9238 53.2644 22.936 53.3271C22.9486 53.3899 22.9694 53.437 22.9983 53.4684C23.0271 53.4993 23.0656 53.5148 23.1137 53.5148C23.1618 53.5148 23.2003 53.4993 23.2292 53.4684C23.258 53.4375 23.2788 53.3907 23.2914 53.3279C23.3046 53.2651 23.3112 53.1866 23.3112 53.0924C23.3112 52.9993 23.3049 52.9213 23.2922 52.8585C23.2796 52.7957 23.2588 52.7486 23.2299 52.7172C23.2011 52.6853 23.1623 52.6694 23.1137 52.6694C23.0651 52.6694 23.0264 52.6853 22.9975 52.7172C22.9691 52.7486 22.9486 52.7957 22.936 52.8585C22.9238 52.9213 22.9178 52.9993 22.9178 53.0924ZM24.447 53.0924C24.447 53.1821 24.4399 53.2623 24.4257 53.3332C24.412 53.4036 24.3903 53.4634 24.3604 53.5125C24.3305 53.5616 24.2915 53.5991 24.2434 53.6249C24.1953 53.6507 24.1371 53.6636 24.0687 53.6636C23.9831 53.6636 23.9125 53.6411 23.8568 53.596C23.8011 53.5505 23.7598 53.4851 23.733 53.4001C23.7062 53.3145 23.6927 53.212 23.6927 53.0924C23.6927 52.9729 23.7049 52.8707 23.7292 52.7856C23.754 52.7 23.794 52.6344 23.8492 52.5889C23.9044 52.5433 23.9776 52.5205 24.0687 52.5205C24.1548 52.5205 24.2257 52.5433 24.2814 52.5889C24.3376 52.6339 24.3791 52.6993 24.406 52.7848C24.4333 52.8699 24.447 52.9724 24.447 53.0924ZM23.8728 53.0924C23.8728 53.1861 23.8788 53.2644 23.891 53.3271C23.9036 53.3899 23.9244 53.437 23.9533 53.4684C23.9821 53.4993 24.0206 53.5148 24.0687 53.5148C24.1168 53.5148 24.1553 53.4993 24.1842 53.4684C24.213 53.4375 24.2338 53.3907 24.2465 53.3279C24.2596 53.2651 24.2662 53.1866 24.2662 53.0924C24.2662 52.9993 24.2599 52.9213 24.2472 52.8585C24.2346 52.7957 24.2138 52.7486 24.1849 52.7172C24.1561 52.6853 24.1173 52.6694 24.0687 52.6694C24.0201 52.6694 23.9814 52.6853 23.9525 52.7172C23.9242 52.7486 23.9036 52.7957 23.891 52.8585C23.8788 52.9213 23.8728 52.9993 23.8728 53.0924Z" fill="#212121"/>
<path d="M64.5902 43.5371H64.4109V42.8224C64.4109 42.7986 64.4112 42.7748 64.4117 42.751C64.4122 42.7272 64.4127 42.7039 64.4132 42.6811C64.4142 42.6583 64.4155 42.6365 64.417 42.6158C64.4064 42.6274 64.3932 42.6401 64.3775 42.6538C64.3623 42.6674 64.3461 42.6816 64.3289 42.6963L64.2013 42.7981L64.1117 42.6849L64.4413 42.4266H64.5902V43.5371ZM65.7723 43.5371H65.0203V43.4027L65.3082 43.111C65.3639 43.0543 65.4097 43.0054 65.4457 42.9644C65.4816 42.9229 65.5082 42.8836 65.5254 42.8467C65.5431 42.8097 65.552 42.7695 65.552 42.7259C65.552 42.6722 65.5366 42.6317 65.5057 42.6044C65.4748 42.5765 65.434 42.5626 65.3834 42.5626C65.3353 42.5626 65.2907 42.5722 65.2497 42.5915C65.2092 42.6102 65.1672 42.637 65.1236 42.672L65.0256 42.5543C65.0565 42.5279 65.0894 42.5039 65.1244 42.4821C65.1598 42.4603 65.1993 42.4431 65.2429 42.4304C65.2864 42.4173 65.336 42.4107 65.3917 42.4107C65.4621 42.4107 65.5229 42.4234 65.574 42.4487C65.6252 42.4735 65.6644 42.5082 65.6918 42.5527C65.7196 42.5973 65.7335 42.6492 65.7335 42.7084C65.7335 42.7682 65.7216 42.8234 65.6978 42.874C65.674 42.9247 65.6401 42.9748 65.5961 43.0244C65.552 43.0735 65.4996 43.127 65.4388 43.1847L65.2467 43.3723V43.3806H65.7723V43.5371ZM66.7273 42.9811C66.7273 43.0707 66.7202 43.151 66.706 43.2219C66.6923 43.2923 66.6706 43.352 66.6407 43.4012C66.6108 43.4503 66.5718 43.4877 66.5237 43.5136C66.4756 43.5394 66.4174 43.5523 66.349 43.5523C66.2635 43.5523 66.1928 43.5298 66.1371 43.4847C66.0814 43.4391 66.0401 43.3738 66.0133 43.2887C65.9865 43.2032 65.9731 43.1006 65.9731 42.9811C65.9731 42.8616 65.9852 42.7593 66.0095 42.6743C66.0343 42.5887 66.0743 42.5231 66.1295 42.4775C66.1847 42.432 66.2579 42.4092 66.349 42.4092C66.4351 42.4092 66.506 42.432 66.5617 42.4775C66.6179 42.5226 66.6594 42.5879 66.6863 42.6735C66.7136 42.7586 66.7273 42.8611 66.7273 42.9811ZM66.1531 42.9811C66.1531 43.0748 66.1591 43.153 66.1713 43.2158C66.184 43.2786 66.2047 43.3257 66.2336 43.3571C66.2624 43.388 66.3009 43.4034 66.349 43.4034C66.3971 43.4034 66.4356 43.388 66.4645 43.3571C66.4933 43.3262 66.5141 43.2794 66.5268 43.2166C66.5399 43.1538 66.5465 43.0753 66.5465 42.9811C66.5465 42.8879 66.5402 42.81 66.5275 42.7472C66.5149 42.6844 66.4941 42.6373 66.4652 42.6059C66.4364 42.574 66.3976 42.5581 66.349 42.5581C66.3004 42.5581 66.2617 42.574 66.2328 42.6059C66.2045 42.6373 66.184 42.6844 66.1713 42.7472C66.1591 42.81 66.1531 42.8879 66.1531 42.9811ZM67.3078 42.8429C67.3792 42.8429 67.442 42.8558 67.4962 42.8816C67.5509 42.9069 67.5934 42.9444 67.6238 42.994C67.6542 43.0431 67.6694 43.1034 67.6694 43.1748C67.6694 43.2528 67.6529 43.3201 67.62 43.3768C67.5871 43.4331 67.5387 43.4763 67.4749 43.5067C67.4111 43.5371 67.3334 43.5523 67.2418 43.5523C67.1835 43.5523 67.1291 43.5472 67.0785 43.5371C67.0283 43.527 66.985 43.5118 66.9486 43.4915V43.3305C66.9865 43.3518 67.0321 43.3692 67.0853 43.3829C67.1385 43.3961 67.1893 43.4027 67.238 43.4027C67.2896 43.4027 67.3339 43.3951 67.3709 43.3799C67.4078 43.3647 67.4362 43.3414 67.4559 43.31C67.4762 43.2786 67.4863 43.2389 67.4863 43.1908C67.4863 43.127 67.4658 43.0778 67.4248 43.0434C67.3843 43.0085 67.3207 42.991 67.2342 42.991C67.2038 42.991 67.1714 42.9938 67.1369 42.9993C67.103 43.0044 67.0747 43.01 67.0519 43.0161L66.9736 42.9697L67.0154 42.4266H67.5927V42.5839H67.1726L67.1483 42.8604C67.1666 42.8563 67.1883 42.8525 67.2137 42.849C67.239 42.8449 67.2704 42.8429 67.3078 42.8429Z" fill="#212121"/>
<path d="M64.9368 28.6712C65.0011 28.6712 65.0591 28.6814 65.1107 28.7016C65.1624 28.7214 65.2034 28.751 65.2338 28.7905C65.2642 28.83 65.2794 28.8788 65.2794 28.9371C65.2794 28.9821 65.27 29.0214 65.2513 29.0548C65.233 29.0882 65.2082 29.1176 65.1768 29.1429C65.1454 29.1677 65.1102 29.1897 65.0713 29.209C65.1148 29.2303 65.1548 29.2548 65.1913 29.2827C65.2282 29.31 65.2578 29.3422 65.2801 29.3791C65.3029 29.4161 65.3143 29.4594 65.3143 29.509C65.3143 29.5713 65.2984 29.6252 65.2665 29.6708C65.2351 29.7159 65.1913 29.7508 65.1351 29.7756C65.0788 29.7999 65.0133 29.8121 64.9383 29.8121C64.8578 29.8121 64.7892 29.8002 64.7325 29.7764C64.6758 29.7526 64.6327 29.7186 64.6034 29.6746C64.574 29.63 64.5593 29.5769 64.5593 29.5151C64.5593 29.4639 64.5694 29.4196 64.5897 29.3822C64.61 29.3447 64.637 29.3123 64.671 29.2849C64.7054 29.2576 64.7431 29.2346 64.7841 29.2158C64.7492 29.1951 64.7173 29.1718 64.6884 29.1459C64.6596 29.1196 64.6365 29.0895 64.6193 29.0556C64.6026 29.0211 64.5943 28.9814 64.5943 28.9363C64.5943 28.8786 64.6097 28.8302 64.6406 28.7912C64.6715 28.7517 64.7127 28.7219 64.7644 28.7016C64.8166 28.6814 64.874 28.6712 64.9368 28.6712ZM64.7295 29.5082C64.7295 29.5569 64.7467 29.5969 64.7811 29.6283C64.8155 29.6596 64.8669 29.6753 64.9353 29.6753C65.0031 29.6753 65.0548 29.6599 65.0902 29.629C65.1257 29.5981 65.1434 29.5574 65.1434 29.5067C65.1434 29.4743 65.1343 29.4457 65.1161 29.4209C65.0983 29.3961 65.0743 29.3741 65.0439 29.3548C65.014 29.3351 64.9809 29.3168 64.9444 29.3001L64.9201 29.2903C64.8806 29.307 64.8467 29.326 64.8183 29.3472C64.79 29.368 64.7679 29.3915 64.7522 29.4179C64.7371 29.4442 64.7295 29.4743 64.7295 29.5082ZM64.9353 28.8087C64.8862 28.8087 64.8457 28.8209 64.8138 28.8452C64.7824 28.869 64.7667 28.9034 64.7667 28.9485C64.7667 28.9804 64.7743 29.0077 64.7895 29.0305C64.8052 29.0533 64.8262 29.073 64.8525 29.0897C64.8788 29.1059 64.9079 29.1211 64.9399 29.1353C64.9707 29.1216 64.9986 29.1067 65.0234 29.0905C65.0487 29.0738 65.0687 29.054 65.0834 29.0312C65.0986 29.008 65.1062 28.9801 65.1062 28.9477C65.1062 28.9031 65.0902 28.869 65.0583 28.8452C65.0269 28.8209 64.9859 28.8087 64.9353 28.8087ZM66.2693 29.2409C66.2693 29.3305 66.2622 29.4108 66.248 29.4817C66.2344 29.552 66.2126 29.6118 66.1827 29.6609C66.1529 29.71 66.1139 29.7475 66.0658 29.7733C66.0177 29.7992 65.9594 29.8121 65.8911 29.8121C65.8055 29.8121 65.7348 29.7895 65.6791 29.7445C65.6234 29.6989 65.5822 29.6336 65.5553 29.5485C65.5285 29.4629 65.5151 29.3604 65.5151 29.2409C65.5151 29.1214 65.5272 29.0191 65.5515 28.934C65.5764 28.8485 65.6164 28.7829 65.6715 28.7373C65.7267 28.6917 65.7999 28.6689 65.8911 28.6689C65.9771 28.6689 66.048 28.6917 66.1037 28.7373C66.1599 28.7824 66.2015 28.8477 66.2283 28.9333C66.2556 29.0183 66.2693 29.1209 66.2693 29.2409ZM65.6951 29.2409C65.6951 29.3346 65.7012 29.4128 65.7133 29.4756C65.726 29.5384 65.7467 29.5855 65.7756 29.6169C65.8045 29.6478 65.843 29.6632 65.8911 29.6632C65.9392 29.6632 65.9776 29.6478 66.0065 29.6169C66.0354 29.586 66.0561 29.5391 66.0688 29.4763C66.082 29.4136 66.0885 29.3351 66.0885 29.2409C66.0885 29.1477 66.0822 29.0697 66.0696 29.0069C66.0569 28.9442 66.0361 28.8971 66.0073 28.8657C65.9784 28.8338 65.9397 28.8178 65.8911 28.8178C65.8424 28.8178 65.8037 28.8338 65.7748 28.8657C65.7465 28.8971 65.726 28.9442 65.7133 29.0069C65.7012 29.0697 65.6951 29.1477 65.6951 29.2409ZM67.2243 29.2409C67.2243 29.3305 67.2172 29.4108 67.2031 29.4817C67.1894 29.552 67.1676 29.6118 67.1377 29.6609C67.1079 29.71 67.0689 29.7475 67.0208 29.7733C66.9727 29.7992 66.9144 29.8121 66.8461 29.8121C66.7605 29.8121 66.6899 29.7895 66.6342 29.7445C66.5785 29.6989 66.5372 29.6336 66.5103 29.5485C66.4835 29.4629 66.4701 29.3604 66.4701 29.2409C66.4701 29.1214 66.4822 29.0191 66.5065 28.934C66.5314 28.8485 66.5714 28.7829 66.6266 28.7373C66.6817 28.6917 66.7549 28.6689 66.8461 28.6689C66.9321 28.6689 67.003 28.6917 67.0587 28.7373C67.1149 28.7824 67.1565 28.8477 67.1833 28.9333C67.2106 29.0183 67.2243 29.1209 67.2243 29.2409ZM66.6501 29.2409C66.6501 29.3346 66.6562 29.4128 66.6683 29.4756C66.681 29.5384 66.7018 29.5855 66.7306 29.6169C66.7595 29.6478 66.798 29.6632 66.8461 29.6632C66.8942 29.6632 66.9327 29.6478 66.9615 29.6169C66.9904 29.586 67.0111 29.5391 67.0238 29.4763C67.037 29.4136 67.0435 29.3351 67.0435 29.2409C67.0435 29.1477 67.0372 29.0697 67.0246 29.0069C67.0119 28.9442 66.9911 28.8971 66.9623 28.8657C66.9334 28.8338 66.8947 28.8178 66.8461 28.8178C66.7975 28.8178 66.7587 28.8338 66.7299 28.8657C66.7015 28.8971 66.681 28.9442 66.6683 29.0069C66.6562 29.0697 66.6501 29.1477 66.6501 29.2409Z" fill="#212121"/>
<g filter="url(#filter5_d_7837_43870)">
<path d="M41.6846 25.5938C42.3288 25.5939 42.8506 26.1165 42.8506 26.7607V27.2793C42.8505 27.9235 42.3287 28.4461 41.6846 28.4463H40.6025L40.1289 28.9199L39.6553 28.4463H38.5732C37.9289 28.4463 37.4063 27.9236 37.4062 27.2793V26.7607C37.4062 26.1164 37.9289 25.5938 38.5732 25.5938H41.6846Z" fill="white"/>
</g>
<path d="M38.9242 27.7227H38.7449V27.0079C38.7449 26.9841 38.7452 26.9603 38.7457 26.9365C38.7462 26.9127 38.7467 26.8894 38.7472 26.8666C38.7482 26.8439 38.7495 26.8221 38.751 26.8013C38.7403 26.813 38.7272 26.8256 38.7115 26.8393C38.6963 26.853 38.6801 26.8672 38.6629 26.8818L38.5353 26.9836L38.4456 26.8704L38.7753 26.6122H38.9242V27.7227ZM40.1063 27.1667C40.1063 27.2563 40.0992 27.3366 40.085 27.4074C40.0713 27.4778 40.0496 27.5376 40.0197 27.5867C39.9898 27.6358 39.9508 27.6733 39.9027 27.6991C39.8546 27.7249 39.7964 27.7378 39.728 27.7378C39.6424 27.7378 39.5718 27.7153 39.5161 27.6702C39.4604 27.6247 39.4191 27.5594 39.3923 27.4743C39.3655 27.3887 39.352 27.2862 39.352 27.1667C39.352 27.0472 39.3642 26.9449 39.3885 26.8598C39.4133 26.7742 39.4533 26.7087 39.5085 26.6631C39.5637 26.6175 39.6369 26.5947 39.728 26.5947C39.8141 26.5947 39.885 26.6175 39.9407 26.6631C39.9969 26.7082 40.0384 26.7735 40.0652 26.859C40.0926 26.9441 40.1063 27.0467 40.1063 27.1667ZM39.532 27.1667C39.532 27.2603 39.5381 27.3386 39.5503 27.4014C39.5629 27.4642 39.5837 27.5112 39.6126 27.5426C39.6414 27.5735 39.6799 27.589 39.728 27.589C39.7761 27.589 39.8146 27.5735 39.8435 27.5426C39.8723 27.5118 39.8931 27.4649 39.9057 27.4021C39.9189 27.3393 39.9255 27.2609 39.9255 27.1667C39.9255 27.0735 39.9192 26.9955 39.9065 26.9327C39.8938 26.8699 39.8731 26.8228 39.8442 26.7914C39.8154 26.7595 39.7766 26.7436 39.728 26.7436C39.6794 26.7436 39.6407 26.7595 39.6118 26.7914C39.5834 26.8228 39.5629 26.8699 39.5503 26.9327C39.5381 26.9955 39.532 27.0735 39.532 27.1667ZM41.0613 27.1667C41.0613 27.2563 41.0542 27.3366 41.04 27.4074C41.0263 27.4778 41.0046 27.5376 40.9747 27.5867C40.9448 27.6358 40.9058 27.6733 40.8577 27.6991C40.8096 27.7249 40.7514 27.7378 40.683 27.7378C40.5974 27.7378 40.5268 27.7153 40.4711 27.6702C40.4154 27.6247 40.3741 27.5594 40.3473 27.4743C40.3205 27.3887 40.307 27.2862 40.307 27.1667C40.307 27.0472 40.3192 26.9449 40.3435 26.8598C40.3683 26.7742 40.4083 26.7087 40.4635 26.6631C40.5187 26.6175 40.5919 26.5947 40.683 26.5947C40.7691 26.5947 40.84 26.6175 40.8957 26.6631C40.9519 26.7082 40.9934 26.7735 41.0203 26.859C41.0476 26.9441 41.0613 27.0467 41.0613 27.1667ZM40.4871 27.1667C40.4871 27.2603 40.4931 27.3386 40.5053 27.4014C40.5179 27.4642 40.5387 27.5112 40.5676 27.5426C40.5964 27.5735 40.6349 27.589 40.683 27.589C40.7311 27.589 40.7696 27.5735 40.7985 27.5426C40.8273 27.5118 40.8481 27.4649 40.8607 27.4021C40.8739 27.3393 40.8805 27.2609 40.8805 27.1667C40.8805 27.0735 40.8742 26.9955 40.8615 26.9327C40.8488 26.8699 40.8281 26.8228 40.7992 26.7914C40.7704 26.7595 40.7316 26.7436 40.683 26.7436C40.6344 26.7436 40.5957 26.7595 40.5668 26.7914C40.5384 26.8228 40.5179 26.8699 40.5053 26.9327C40.4931 26.9955 40.4871 27.0735 40.4871 27.1667ZM42.0163 27.1667C42.0163 27.2563 42.0092 27.3366 41.995 27.4074C41.9813 27.4778 41.9596 27.5376 41.9297 27.5867C41.8998 27.6358 41.8608 27.6733 41.8127 27.6991C41.7646 27.7249 41.7064 27.7378 41.638 27.7378C41.5524 27.7378 41.4818 27.7153 41.4261 27.6702C41.3704 27.6247 41.3291 27.5594 41.3023 27.4743C41.2755 27.3887 41.262 27.2862 41.262 27.1667C41.262 27.0472 41.2742 26.9449 41.2985 26.8598C41.3233 26.7742 41.3633 26.7087 41.4185 26.6631C41.4737 26.6175 41.5469 26.5947 41.638 26.5947C41.7241 26.5947 41.795 26.6175 41.8507 26.6631C41.9069 26.7082 41.9484 26.7735 41.9753 26.859C42.0026 26.9441 42.0163 27.0467 42.0163 27.1667ZM41.4421 27.1667C41.4421 27.2603 41.4481 27.3386 41.4603 27.4014C41.4729 27.4642 41.4937 27.5112 41.5226 27.5426C41.5514 27.5735 41.5899 27.589 41.638 27.589C41.6861 27.589 41.7246 27.5735 41.7535 27.5426C41.7823 27.5118 41.8031 27.4649 41.8158 27.4021C41.8289 27.3393 41.8355 27.2609 41.8355 27.1667C41.8355 27.0735 41.8292 26.9955 41.8165 26.9327C41.8039 26.8699 41.7831 26.8228 41.7542 26.7914C41.7254 26.7595 41.6866 26.7436 41.638 26.7436C41.5894 26.7436 41.5507 26.7595 41.5218 26.7914C41.4935 26.8228 41.4729 26.8699 41.4603 26.9327C41.4481 26.9955 41.4421 27.0735 41.4421 27.1667Z" fill="#212121"/>
<path d="M19.6058 65.3053L18.9542 65.7851L18.8882 65.6954L18.8643 64.6364L18.4052 64.9745L18.3271 64.8685L18.9371 64.4193L19.0109 64.5197L19.0342 65.564L19.5284 65.2001L19.6058 65.3053ZM20.255 64.1356C20.309 64.209 20.3477 64.2815 20.3711 64.3532C20.3946 64.4248 20.4029 64.4937 20.3963 64.5598C20.3896 64.6259 20.3685 64.6884 20.333 64.7472C20.2977 64.8051 20.2479 64.8577 20.1838 64.9049C20.124 64.9489 20.0615 64.979 19.9962 64.9952C19.9312 65.0104 19.8658 65.0116 19.8001 64.9988C19.735 64.9855 19.6712 64.9574 19.6087 64.9146C19.5466 64.8714 19.4886 64.8131 19.4346 64.7397C19.3625 64.6418 19.3179 64.5465 19.3006 64.4535C19.2829 64.3601 19.2916 64.2728 19.3266 64.1917C19.3617 64.1096 19.422 64.0371 19.5073 63.9743C19.5889 63.9142 19.6735 63.88 19.7612 63.8716C19.8495 63.8628 19.9359 63.8805 20.0204 63.9247C20.1051 63.968 20.1833 64.0383 20.255 64.1356ZM19.5748 64.6364C19.6277 64.7082 19.683 64.7634 19.7409 64.8022C19.7988 64.8409 19.8581 64.86 19.919 64.8596C19.98 64.8592 20.0417 64.836 20.1042 64.79C20.1662 64.7443 20.2064 64.6925 20.2249 64.6344C20.2439 64.576 20.2435 64.5134 20.2237 64.4467C20.2039 64.3799 20.1676 64.3107 20.1147 64.2389C20.0623 64.1677 20.0075 64.1133 19.9505 64.0756C19.893 64.0374 19.834 64.0188 19.7735 64.0198C19.713 64.0207 19.6512 64.0444 19.5882 64.0909C19.4952 64.1593 19.4496 64.2403 19.4513 64.3337C19.4536 64.4268 19.4948 64.5277 19.5748 64.6364ZM20.5724 63.1901C20.6784 63.112 20.7778 63.079 20.8706 63.0912C20.963 63.1028 21.0514 63.166 21.1359 63.2807L21.5647 63.863L21.4309 63.9614L21.0088 63.3881C20.9539 63.3137 20.8958 63.2705 20.8343 63.2588C20.7734 63.2466 20.7078 63.2664 20.6377 63.318C20.5388 63.3909 20.4898 63.4701 20.4908 63.5558C20.4918 63.6414 20.5315 63.7375 20.61 63.844L20.9547 64.3121L20.8193 64.4118L20.1612 63.518L20.2704 63.4376L20.3857 63.5514L20.393 63.546C20.3888 63.5004 20.3936 63.4563 20.4074 63.4134C20.4207 63.3701 20.4416 63.3295 20.47 63.2918C20.498 63.2536 20.5322 63.2197 20.5724 63.1901ZM21.5176 62.4941C21.5937 62.438 21.6713 62.4069 21.7505 62.4005C21.8297 62.3942 21.9061 62.4109 21.9798 62.4506C22.053 62.4897 22.1195 62.5498 22.1791 62.6308L22.241 62.7148L21.6236 63.1693C21.7025 63.2731 21.7875 63.3338 21.8785 63.3514C21.9695 63.3691 22.0609 63.3441 22.1528 63.2765C22.2093 63.2348 22.2555 63.1928 22.2914 63.1505C22.3273 63.1081 22.3612 63.0597 22.3932 63.0051L22.4808 63.1242C22.4505 63.1775 22.4165 63.2253 22.3787 63.2673C22.3415 63.309 22.2927 63.352 22.2323 63.3965C22.1464 63.4597 22.0586 63.4976 21.9688 63.51C21.8792 63.5215 21.7917 63.5063 21.7063 63.4644C21.6209 63.4224 21.542 63.3523 21.4696 63.2539C21.3987 63.1576 21.3535 63.0626 21.3339 62.9689C21.3145 62.8742 21.3201 62.7862 21.3508 62.7049C21.3821 62.6232 21.4376 62.5529 21.5176 62.4941ZM21.5976 62.6062C21.5253 62.6594 21.4851 62.7255 21.4769 62.8045C21.4688 62.8834 21.4919 62.9682 21.5462 63.0591L22.0192 62.7108C21.9794 62.6579 21.9366 62.6174 21.8906 62.5891C21.8448 62.56 21.7974 62.5462 21.7484 62.548C21.699 62.5492 21.6487 62.5686 21.5976 62.6062ZM23.6589 62.3209L23.5268 62.4182L22.9047 61.5733C22.881 61.5413 22.8608 61.5138 22.844 61.491C22.8273 61.4672 22.8123 61.4456 22.7988 61.4262C22.7855 61.4058 22.7722 61.3849 22.759 61.3636C22.755 61.3934 22.7502 61.42 22.7448 61.4433C22.7389 61.4661 22.7317 61.4944 22.7232 61.5284L22.6674 61.7379L22.5286 61.698L22.6684 61.2115L22.781 61.1287L23.6589 62.3209Z" fill="#212121"/>
<path d="M27.3851 65.3053L26.7335 65.7851L26.6675 65.6954L26.6436 64.6364L26.1845 64.9745L26.1064 64.8685L26.7164 64.4193L26.7902 64.5197L26.8135 65.564L27.3077 65.2001L27.3851 65.3053ZM28.0343 64.1356C28.0883 64.209 28.127 64.2815 28.1504 64.3532C28.1739 64.4248 28.1822 64.4937 28.1756 64.5598C28.1689 64.6259 28.1478 64.6884 28.1123 64.7472C28.077 64.8051 28.0272 64.8577 27.9631 64.9049C27.9033 64.9489 27.8408 64.979 27.7755 64.9952C27.7105 65.0104 27.6451 65.0116 27.5794 64.9988C27.5143 64.9855 27.4505 64.9574 27.388 64.9146C27.3259 64.8714 27.2679 64.8131 27.2139 64.7397C27.1418 64.6418 27.0972 64.5465 27.0799 64.4535C27.0622 64.3601 27.0709 64.2728 27.1059 64.1917C27.141 64.1096 27.2013 64.0371 27.2866 63.9743C27.3682 63.9142 27.4528 63.88 27.5405 63.8716C27.6288 63.8628 27.7152 63.8805 27.7997 63.9247C27.8844 63.968 27.9626 64.0383 28.0343 64.1356ZM27.3541 64.6364C27.407 64.7082 27.4623 64.7634 27.5202 64.8022C27.5781 64.8409 27.6374 64.86 27.6983 64.8596C27.7592 64.8592 27.821 64.836 27.8835 64.79C27.9455 64.7443 27.9857 64.6925 28.0042 64.6344C28.0232 64.576 28.0228 64.5134 28.003 64.4467C27.9832 64.3799 27.9468 64.3107 27.894 64.2389C27.8416 64.1677 27.7868 64.1133 27.7298 64.0756C27.6723 64.0374 27.6133 64.0188 27.5528 64.0198C27.4923 64.0207 27.4305 64.0444 27.3675 64.0909C27.2745 64.1593 27.2289 64.2403 27.2306 64.3337C27.2329 64.4268 27.2741 64.5277 27.3541 64.6364ZM28.3517 63.1901C28.4577 63.112 28.5571 63.079 28.6499 63.0912C28.7423 63.1028 28.8307 63.166 28.9152 63.2807L29.344 63.863L29.2102 63.9614L28.7881 63.3881C28.7332 63.3137 28.6751 63.2705 28.6136 63.2588C28.5527 63.2466 28.4871 63.2664 28.417 63.318C28.3181 63.3909 28.2691 63.4701 28.2701 63.5558C28.2711 63.6414 28.3108 63.7375 28.3893 63.844L28.734 64.3121L28.5986 64.4118L27.9405 63.518L28.0497 63.4376L28.165 63.5514L28.1723 63.546C28.1681 63.5004 28.1729 63.4563 28.1867 63.4134C28.2 63.3701 28.2209 63.3295 28.2493 63.2918C28.2773 63.2536 28.3115 63.2197 28.3517 63.1901ZM29.2969 62.4941C29.373 62.438 29.4506 62.4069 29.5298 62.4005C29.609 62.3942 29.6854 62.4109 29.7591 62.4506C29.8323 62.4897 29.8988 62.5498 29.9584 62.6308L30.0203 62.7148L29.4029 63.1693C29.4818 63.2731 29.5668 63.3338 29.6578 63.3514C29.7487 63.3691 29.8402 63.3441 29.9321 63.2765C29.9886 63.2348 30.0348 63.1928 30.0707 63.1505C30.1066 63.1081 30.1405 63.0597 30.1725 63.0051L30.2601 63.1242C30.2298 63.1775 30.1958 63.2253 30.158 63.2673C30.1208 63.309 30.072 63.352 30.0116 63.3965C29.9257 63.4597 29.8379 63.4976 29.7481 63.51C29.6585 63.5215 29.571 63.5063 29.4856 63.4644C29.4002 63.4224 29.3213 63.3523 29.2488 63.2539C29.178 63.1576 29.1328 63.0626 29.1132 62.9689C29.0938 62.8742 29.0994 62.7862 29.1301 62.7049C29.1614 62.6232 29.2169 62.5529 29.2969 62.4941ZM29.3769 62.6062C29.3046 62.6594 29.2644 62.7255 29.2562 62.8045C29.2481 62.8834 29.2712 62.9682 29.3255 63.0591L29.7985 62.7108C29.7587 62.6579 29.7159 62.6174 29.6699 62.5891C29.6241 62.56 29.5767 62.5462 29.5277 62.548C29.4783 62.5492 29.428 62.5686 29.3769 62.6062ZM31.7154 62.1167L30.9342 62.692L30.8507 62.5787L30.9312 62.0201C30.9464 61.9167 30.9569 61.8268 30.9627 61.7504C30.9691 61.6736 30.9662 61.6049 30.9542 61.5441C30.9418 61.4828 30.9156 61.425 30.8755 61.3706C30.8259 61.3032 30.7679 61.2667 30.7017 61.2609C30.6356 61.2543 30.5699 61.275 30.5047 61.323C30.4476 61.3651 30.4042 61.4121 30.3746 61.4641C30.345 61.5161 30.3203 61.577 30.3005 61.6469L30.1606 61.609C30.1726 61.5592 30.1894 61.5103 30.2111 61.4624C30.2334 61.4141 30.2614 61.3684 30.295 61.3252C30.3291 61.2816 30.3704 61.242 30.4188 61.2064C30.4922 61.1524 30.5649 61.1185 30.637 61.1048C30.7091 61.0911 30.777 61.0973 30.8406 61.1234C30.9048 61.1491 30.9609 61.1946 31.009 61.2598C31.0554 61.3229 31.0861 61.3908 31.1012 61.4636C31.1158 61.5358 31.1202 61.6152 31.1143 61.7017C31.108 61.7877 31.0965 61.8825 31.0798 61.9862L31.0108 62.4356L31.015 62.4414L31.6242 61.9928L31.7154 62.1167Z" fill="#212121"/>
<path d="M36.7172 65.3053L36.0656 65.7851L35.9995 65.6954L35.9756 64.6364L35.5165 64.9745L35.4384 64.8685L36.0484 64.4193L36.1223 64.5197L36.1455 65.564L36.6397 65.2001L36.7172 65.3053ZM37.3663 64.1356C37.4203 64.209 37.4591 64.2815 37.4825 64.3532C37.5059 64.4248 37.5143 64.4937 37.5076 64.5598C37.5009 64.6259 37.4799 64.6884 37.4444 64.7472C37.409 64.8051 37.3593 64.8577 37.2951 64.9049C37.2353 64.9489 37.1728 64.979 37.1076 64.9952C37.0425 65.0104 36.9771 65.0116 36.9115 64.9988C36.8464 64.9855 36.7825 64.9574 36.72 64.9146C36.658 64.8714 36.6 64.8131 36.5459 64.7397C36.4738 64.6418 36.4292 64.5465 36.4119 64.4535C36.3942 64.3601 36.4029 64.2728 36.4379 64.1917C36.4731 64.1096 36.5333 64.0371 36.6187 63.9743C36.7002 63.9142 36.7849 63.88 36.8726 63.8716C36.9608 63.8628 37.0472 63.8805 37.1318 63.9247C37.2165 63.968 37.2946 64.0383 37.3663 64.1356ZM36.6862 64.6364C36.739 64.7082 36.7944 64.7634 36.8522 64.8022C36.9101 64.8409 36.9695 64.86 37.0304 64.8596C37.0913 64.8592 37.153 64.836 37.2155 64.79C37.2775 64.7443 37.3177 64.6925 37.3362 64.6344C37.3552 64.576 37.3548 64.5134 37.335 64.4467C37.3152 64.3799 37.2789 64.3107 37.226 64.2389C37.1736 64.1677 37.1188 64.1133 37.0618 64.0756C37.0043 64.0374 36.9453 64.0188 36.8848 64.0198C36.8243 64.0207 36.7625 64.0444 36.6995 64.0909C36.6065 64.1593 36.5609 64.2403 36.5626 64.3337C36.5649 64.4268 36.6061 64.5277 36.6862 64.6364ZM37.6837 63.1901C37.7897 63.112 37.8891 63.079 37.9819 63.0912C38.0743 63.1028 38.1628 63.166 38.2472 63.2807L38.676 63.863L38.5422 63.9614L38.1201 63.3881C38.0653 63.3137 38.0071 63.2705 37.9456 63.2588C37.8847 63.2466 37.8192 63.2664 37.749 63.318C37.6501 63.3909 37.6011 63.4701 37.6021 63.5558C37.6031 63.6414 37.6428 63.7375 37.7213 63.844L38.066 64.3121L37.9306 64.4118L37.2725 63.518L37.3818 63.4376L37.497 63.5514L37.5044 63.546C37.5002 63.5004 37.505 63.4563 37.5187 63.4134C37.532 63.3701 37.5529 63.3295 37.5813 63.2918C37.6094 63.2536 37.6435 63.2197 37.6837 63.1901ZM38.6289 62.4941C38.705 62.438 38.7826 62.4069 38.8618 62.4005C38.941 62.3942 39.0174 62.4109 39.0911 62.4506C39.1643 62.4897 39.2308 62.5498 39.2904 62.6308L39.3523 62.7148L38.735 63.1693C38.8138 63.2731 38.8988 63.3338 38.9898 63.3514C39.0808 63.3691 39.1722 63.3441 39.2641 63.2765C39.3206 63.2348 39.3669 63.1928 39.4027 63.1505C39.4386 63.1081 39.4725 63.0597 39.5045 63.0051L39.5922 63.1242C39.5618 63.1775 39.5278 63.2253 39.49 63.2673C39.4528 63.309 39.404 63.352 39.3437 63.3965C39.2578 63.4597 39.1699 63.4976 39.0801 63.51C38.9905 63.5215 38.903 63.5063 38.8176 63.4644C38.7323 63.4224 38.6533 63.3523 38.5809 63.2539C38.51 63.1576 38.4648 63.0626 38.4452 62.9689C38.4258 62.8742 38.4315 62.7862 38.4622 62.7049C38.4934 62.6232 38.549 62.5529 38.6289 62.4941ZM38.7089 62.6062C38.6366 62.6594 38.5964 62.7255 38.5883 62.8045C38.5802 62.8834 38.6032 62.9682 38.6575 63.0591L39.1305 62.7108C39.0908 62.6579 39.0479 62.6174 39.002 62.5891C38.9562 62.56 38.9088 62.5462 38.8597 62.548C38.8103 62.5492 38.76 62.5686 38.7089 62.6062ZM40.3303 61.235C40.3695 61.2883 40.3932 61.3421 40.4014 61.3965C40.4095 61.4508 40.4043 61.5041 40.3858 61.5563C40.3668 61.608 40.336 61.6572 40.2931 61.7038L40.2979 61.7103C40.4013 61.6526 40.4947 61.6308 40.578 61.6449C40.6619 61.6586 40.7331 61.7052 40.7915 61.7845C40.8424 61.8536 40.8711 61.9268 40.8777 62.0041C40.8849 62.081 40.8662 62.1592 40.8218 62.2389C40.7774 62.3177 40.7034 62.3953 40.5995 62.4717C40.5365 62.5182 40.4742 62.556 40.4128 62.5853C40.3523 62.6148 40.289 62.6358 40.2228 62.6485L40.1292 62.5213C40.1967 62.5093 40.2647 62.489 40.3333 62.4603C40.4015 62.431 40.4627 62.3964 40.5171 62.3564C40.6258 62.2763 40.6886 62.197 40.7053 62.1184C40.7217 62.0393 40.7023 61.9622 40.647 61.8872C40.609 61.8355 40.5648 61.8039 40.5144 61.7924C40.4641 61.78 40.4083 61.785 40.3469 61.8076C40.2857 61.8292 40.2197 61.866 40.1491 61.918L40.03 62.0057L39.9447 61.8899L40.0646 61.8016C40.1293 61.754 40.1772 61.704 40.2083 61.6518C40.2394 61.5995 40.2541 61.5477 40.2522 61.4962C40.2505 61.4438 40.2323 61.394 40.1974 61.3467C40.153 61.2863 40.0987 61.2546 40.0344 61.2516C39.9698 61.2481 39.9029 61.2717 39.8339 61.3226C39.7915 61.3538 39.7561 61.3866 39.7277 61.4209C39.6993 61.4552 39.6755 61.4912 39.6562 61.5288C39.637 61.5665 39.6196 61.6066 39.6039 61.6491L39.467 61.6066C39.4856 61.5408 39.5172 61.4727 39.5617 61.4022C39.6062 61.3317 39.6682 61.2673 39.7476 61.2088C39.8693 61.1191 39.9811 61.0796 40.0828 61.0902C40.1845 61.1008 40.267 61.1491 40.3303 61.235Z" fill="#212121"/>
<path d="M44.4945 65.3053L43.8429 65.7851L43.7769 65.6954L43.753 64.6364L43.2938 64.9745L43.2158 64.8685L43.8258 64.4193L43.8996 64.5197L43.9228 65.564L44.417 65.2001L44.4945 65.3053ZM45.1436 64.1356C45.1977 64.209 45.2364 64.2815 45.2598 64.3532C45.2832 64.4248 45.2916 64.4937 45.2849 64.5598C45.2783 64.6259 45.2572 64.6884 45.2217 64.7472C45.1864 64.8051 45.1366 64.8577 45.0725 64.9049C45.0127 64.9489 44.9501 64.979 44.8849 64.9952C44.8198 65.0104 44.7545 65.0116 44.6888 64.9988C44.6237 64.9855 44.5599 64.9574 44.4973 64.9146C44.4353 64.8714 44.3773 64.8131 44.3233 64.7397C44.2512 64.6418 44.2065 64.5465 44.1892 64.4535C44.1716 64.3601 44.1802 64.2728 44.2153 64.1917C44.2504 64.1096 44.3107 64.0371 44.396 63.9743C44.4776 63.9142 44.5622 63.88 44.6499 63.8716C44.7382 63.8628 44.8246 63.8805 44.9091 63.9247C44.9938 63.968 45.072 64.0383 45.1436 64.1356ZM44.4635 64.6364C44.5164 64.7082 44.5717 64.7634 44.6296 64.8022C44.6874 64.8409 44.7468 64.86 44.8077 64.8596C44.8686 64.8592 44.9303 64.836 44.9929 64.79C45.0548 64.7443 45.0951 64.6925 45.1135 64.6344C45.1325 64.576 45.1322 64.5134 45.1123 64.4467C45.0925 64.3799 45.0562 64.3107 45.0034 64.2389C44.9509 64.1677 44.8962 64.1133 44.8391 64.0756C44.7817 64.0374 44.7227 64.0188 44.6622 64.0198C44.6017 64.0207 44.5399 64.0444 44.4768 64.0909C44.3839 64.1593 44.3382 64.2403 44.34 64.3337C44.3423 64.4268 44.3835 64.5277 44.4635 64.6364ZM45.4611 63.1901C45.5671 63.112 45.6665 63.079 45.7593 63.0912C45.8517 63.1028 45.9401 63.166 46.0246 63.2807L46.4533 63.863L46.3196 63.9614L45.8974 63.3881C45.8426 63.3137 45.7844 63.2705 45.723 63.2588C45.662 63.2466 45.5965 63.2664 45.5264 63.318C45.4274 63.3909 45.3785 63.4701 45.3795 63.5558C45.3805 63.6414 45.4202 63.7375 45.4987 63.844L45.8433 64.3121L45.708 64.4118L45.0498 63.518L45.1591 63.4376L45.2744 63.5514L45.2817 63.546C45.2775 63.5004 45.2823 63.4563 45.296 63.4134C45.3094 63.3701 45.3303 63.3295 45.3587 63.2918C45.3867 63.2536 45.4208 63.2197 45.4611 63.1901ZM46.4062 62.4941C46.4823 62.438 46.56 62.4069 46.6392 62.4005C46.7184 62.3942 46.7948 62.4109 46.8684 62.4506C46.9417 62.4897 47.0081 62.5498 47.0678 62.6308L47.1296 62.7148L46.5123 63.1693C46.5912 63.2731 46.6761 63.3338 46.7671 63.3514C46.8581 63.3691 46.9496 63.3441 47.0414 63.2765C47.098 63.2348 47.1442 63.1928 47.1801 63.1505C47.216 63.1081 47.2499 63.0597 47.2818 63.0051L47.3695 63.1242C47.3392 63.1775 47.3051 63.2253 47.2674 63.2673C47.2301 63.309 47.1813 63.352 47.121 63.3965C47.0351 63.4597 46.9473 63.4976 46.8575 63.51C46.7679 63.5215 46.6804 63.5063 46.595 63.4644C46.5096 63.4224 46.4307 63.3523 46.3582 63.2539C46.2874 63.1576 46.2422 63.0626 46.2226 62.9689C46.2032 62.8742 46.2088 62.7862 46.2395 62.7049C46.2707 62.6232 46.3263 62.5529 46.4062 62.4941ZM46.4863 62.6062C46.414 62.6594 46.3737 62.7255 46.3656 62.8045C46.3575 62.8834 46.3806 62.9682 46.4349 63.0591L46.9079 62.7108C46.8681 62.6579 46.8252 62.6174 46.7793 62.5891C46.7335 62.56 46.6861 62.5462 46.6371 62.548C46.5876 62.5492 46.5374 62.5686 46.4863 62.6062ZM48.6808 61.7965L48.5022 61.928L48.7057 62.2044L48.5736 62.3017L48.3701 62.0252L47.7935 62.4498L47.7094 62.3356L47.6819 61.1095L47.823 61.0056L48.4121 61.8056L48.5907 61.6741L48.6808 61.7965ZM48.28 61.9029L47.993 61.5131C47.9709 61.4832 47.9514 61.4561 47.9343 61.4318C47.9169 61.4069 47.9011 61.3837 47.8869 61.3623C47.8724 61.3403 47.8584 61.3196 47.8449 61.3001C47.832 61.2803 47.819 61.261 47.806 61.2421L47.7994 61.2469C47.8051 61.2762 47.8102 61.3081 47.8146 61.3426C47.8192 61.3761 47.8217 61.4074 47.8221 61.4365L47.838 62.2284L48.28 61.9029Z" fill="#212121"/>
<path d="M53.0511 65.3053L52.3996 65.7851L52.3335 65.6954L52.3096 64.6364L51.8505 64.9745L51.7724 64.8685L52.3824 64.4193L52.4563 64.5197L52.4795 65.564L52.9737 65.2001L53.0511 65.3053ZM53.7003 64.1356C53.7543 64.209 53.7931 64.2815 53.8165 64.3532C53.8399 64.4248 53.8482 64.4937 53.8416 64.5598C53.8349 64.6259 53.8138 64.6884 53.7784 64.7472C53.743 64.8051 53.6933 64.8577 53.6291 64.9049C53.5693 64.9489 53.5068 64.979 53.4416 64.9952C53.3765 65.0104 53.3111 65.0116 53.2455 64.9988C53.1803 64.9855 53.1165 64.9574 53.054 64.9146C52.992 64.8714 52.9339 64.8131 52.8799 64.7397C52.8078 64.6418 52.7632 64.5465 52.7459 64.4535C52.7282 64.3601 52.7369 64.2728 52.7719 64.1917C52.807 64.1096 52.8673 64.0371 52.9527 63.9743C53.0342 63.9142 53.1188 63.88 53.2066 63.8716C53.2948 63.8628 53.3812 63.8805 53.4658 63.9247C53.5505 63.968 53.6286 64.0383 53.7003 64.1356ZM53.0202 64.6364C53.073 64.7082 53.1284 64.7634 53.1862 64.8022C53.2441 64.8409 53.3035 64.86 53.3644 64.8596C53.4253 64.8592 53.487 64.836 53.5495 64.79C53.6115 64.7443 53.6517 64.6925 53.6702 64.6344C53.6892 64.576 53.6888 64.5134 53.669 64.4467C53.6492 64.3799 53.6129 64.3107 53.56 64.2389C53.5076 64.1677 53.4528 64.1133 53.3958 64.0756C53.3383 64.0374 53.2793 64.0188 53.2188 64.0198C53.1583 64.0207 53.0965 64.0444 53.0335 64.0909C52.9405 64.1593 52.8949 64.2403 52.8966 64.3337C52.8989 64.4268 52.9401 64.5277 53.0202 64.6364ZM54.0177 63.1901C54.1237 63.112 54.2231 63.079 54.3159 63.0912C54.4083 63.1028 54.4968 63.166 54.5812 63.2807L55.01 63.863L54.8762 63.9614L54.4541 63.3881C54.3992 63.3137 54.3411 63.2705 54.2796 63.2588C54.2187 63.2466 54.1531 63.2664 54.083 63.318C53.9841 63.3909 53.9351 63.4701 53.9361 63.5558C53.9371 63.6414 53.9768 63.7375 54.0553 63.844L54.4 64.3121L54.2646 64.4118L53.6065 63.518L53.7157 63.4376L53.831 63.5514L53.8384 63.546C53.8342 63.5004 53.8389 63.4563 53.8527 63.4134C53.866 63.3701 53.8869 63.3295 53.9153 63.2918C53.9433 63.2536 53.9775 63.2197 54.0177 63.1901ZM54.9629 62.4941C55.039 62.438 55.1166 62.4069 55.1958 62.4005C55.275 62.3942 55.3514 62.4109 55.4251 62.4506C55.4983 62.4897 55.5648 62.5498 55.6244 62.6308L55.6863 62.7148L55.0689 63.1693C55.1478 63.2731 55.2328 63.3338 55.3238 63.3514C55.4148 63.3691 55.5062 63.3441 55.5981 63.2765C55.6546 63.2348 55.7008 63.1928 55.7367 63.1505C55.7726 63.1081 55.8065 63.0597 55.8385 63.0051L55.9261 63.1242C55.8958 63.1775 55.8618 63.2253 55.824 63.2673C55.7868 63.309 55.738 63.352 55.6776 63.3965C55.5917 63.4597 55.5039 63.4976 55.4141 63.51C55.3245 63.5215 55.237 63.5063 55.1516 63.4644C55.0662 63.4224 54.9873 63.3523 54.9149 63.2539C54.844 63.1576 54.7988 63.0626 54.7792 62.9689C54.7598 62.8742 54.7654 62.7862 54.7961 62.7049C54.8274 62.6232 54.883 62.5529 54.9629 62.4941ZM55.0429 62.6062C54.9706 62.6594 54.9304 62.7255 54.9223 62.8045C54.9141 62.8834 54.9372 62.9682 54.9915 63.0591L55.4645 62.7108C55.4247 62.6579 55.3819 62.6174 55.3359 62.5891C55.2902 62.56 55.2427 62.5462 55.1937 62.548C55.1443 62.5492 55.094 62.5686 55.0429 62.6062ZM56.4401 61.6855C56.5211 61.6259 56.6017 61.5879 56.682 61.5716C56.7618 61.5547 56.8372 61.5604 56.9083 61.5886C56.9799 61.6163 57.0431 61.6675 57.0979 61.742C57.158 61.8235 57.1922 61.9069 57.2004 61.9922C57.2083 62.0769 57.1909 62.1598 57.1482 62.2407C57.1051 62.3211 57.0374 62.3953 56.9449 62.4633C56.883 62.509 56.8213 62.546 56.76 62.5743C56.6987 62.6027 56.6419 62.6194 56.5894 62.6245L56.4946 62.4956C56.5519 62.4903 56.614 62.4739 56.6809 62.4464C56.7479 62.4189 56.808 62.3856 56.8613 62.3463C56.9216 62.3019 56.9674 62.2535 56.9985 62.2013C57.0297 62.1481 57.0435 62.0927 57.0396 62.0352C57.036 61.9766 57.0121 61.9175 56.9681 61.8577C56.9096 61.7783 56.8401 61.7352 56.7596 61.7282C56.6792 61.7204 56.5865 61.7551 56.4816 61.8323C56.4479 61.8572 56.4129 61.8871 56.3767 61.9222C56.3404 61.9572 56.3117 61.9876 56.2904 62.0134L56.1889 62.019L55.8226 61.4259L56.4155 60.9893L56.5067 61.1133L56.0297 61.4646L56.2643 61.8464C56.2818 61.8269 56.3052 61.8029 56.3346 61.7745C56.3636 61.7456 56.3988 61.716 56.4401 61.6855Z" fill="#212121"/>
<path d="M61.6058 65.3053L60.9542 65.7851L60.8882 65.6954L60.8643 64.6364L60.4052 64.9745L60.3271 64.8685L60.9371 64.4193L61.0109 64.5197L61.0342 65.564L61.5284 65.2001L61.6058 65.3053ZM62.255 64.1356C62.309 64.209 62.3477 64.2815 62.3711 64.3532C62.3946 64.4248 62.4029 64.4937 62.3963 64.5598C62.3896 64.6259 62.3685 64.6884 62.333 64.7472C62.2977 64.8051 62.2479 64.8577 62.1838 64.9049C62.124 64.9489 62.0615 64.979 61.9962 64.9952C61.9312 65.0104 61.8658 65.0116 61.8001 64.9988C61.735 64.9855 61.6712 64.9574 61.6087 64.9146C61.5466 64.8714 61.4886 64.8131 61.4346 64.7397C61.3625 64.6418 61.3179 64.5465 61.3006 64.4535C61.2829 64.3601 61.2916 64.2728 61.3266 64.1917C61.3617 64.1096 61.422 64.0371 61.5073 63.9743C61.5889 63.9142 61.6735 63.88 61.7612 63.8716C61.8495 63.8628 61.9359 63.8805 62.0204 63.9247C62.1051 63.968 62.1833 64.0383 62.255 64.1356ZM61.5748 64.6364C61.6277 64.7082 61.683 64.7634 61.7409 64.8022C61.7988 64.8409 61.8581 64.86 61.919 64.8596C61.98 64.8592 62.0417 64.836 62.1042 64.79C62.1662 64.7443 62.2064 64.6925 62.2249 64.6344C62.2439 64.576 62.2435 64.5134 62.2237 64.4467C62.2039 64.3799 62.1676 64.3107 62.1147 64.2389C62.0623 64.1677 62.0075 64.1133 61.9505 64.0756C61.893 64.0374 61.834 64.0188 61.7735 64.0198C61.713 64.0207 61.6512 64.0444 61.5882 64.0909C61.4952 64.1593 61.4496 64.2403 61.4513 64.3337C61.4536 64.4268 61.4948 64.5277 61.5748 64.6364ZM62.5724 63.1901C62.6784 63.112 62.7778 63.079 62.8706 63.0912C62.963 63.1028 63.0514 63.166 63.1359 63.2807L63.5647 63.863L63.4309 63.9614L63.0088 63.3881C62.9539 63.3137 62.8958 63.2705 62.8343 63.2588C62.7734 63.2466 62.7078 63.2664 62.6377 63.318C62.5388 63.3909 62.4898 63.4701 62.4908 63.5558C62.4918 63.6414 62.5315 63.7375 62.61 63.844L62.9547 64.3121L62.8193 64.4118L62.1612 63.518L62.2704 63.4376L62.3857 63.5514L62.393 63.546C62.3888 63.5004 62.3936 63.4563 62.4074 63.4134C62.4207 63.3701 62.4416 63.3295 62.47 63.2918C62.498 63.2536 62.5322 63.2197 62.5724 63.1901ZM63.5176 62.4941C63.5937 62.438 63.6713 62.4069 63.7505 62.4005C63.8297 62.3942 63.9061 62.4109 63.9798 62.4506C64.053 62.4897 64.1195 62.5498 64.1791 62.6308L64.241 62.7148L63.6236 63.1693C63.7025 63.2731 63.7875 63.3338 63.8785 63.3514C63.9695 63.3691 64.0609 63.3441 64.1528 63.2765C64.2093 63.2348 64.2555 63.1928 64.2914 63.1505C64.3273 63.1081 64.3612 63.0597 64.3932 63.0051L64.4808 63.1242C64.4505 63.1775 64.4165 63.2253 64.3787 63.2673C64.3415 63.309 64.2927 63.352 64.2323 63.3965C64.1464 63.4597 64.0586 63.4976 63.9688 63.51C63.8792 63.5215 63.7917 63.5063 63.7063 63.4644C63.6209 63.4224 63.542 63.3523 63.4696 63.2539C63.3987 63.1576 63.3535 63.0626 63.3339 62.9689C63.3145 62.8742 63.3201 62.7862 63.3508 62.7049C63.3821 62.6232 63.4376 62.5529 63.5176 62.4941ZM63.5976 62.6062C63.5253 62.6594 63.4851 62.7255 63.4769 62.8045C63.4688 62.8834 63.4919 62.9682 63.5462 63.0591L64.0192 62.7108C63.9794 62.6579 63.9366 62.6174 63.8906 62.5891C63.8448 62.56 63.7974 62.5462 63.7484 62.548C63.699 62.5492 63.6487 62.5686 63.5976 62.6062ZM64.7918 62.1733C64.739 62.1016 64.6922 62.0278 64.6516 61.9521C64.6115 61.876 64.5817 61.7998 64.5624 61.7235C64.5427 61.6466 64.5371 61.5706 64.5456 61.4956C64.5541 61.4206 64.5798 61.348 64.6229 61.2778C64.666 61.2066 64.7308 61.1391 64.8173 61.0755C64.8417 61.0575 64.8691 61.0394 64.8994 61.0213C64.9293 61.0027 64.9554 60.9893 64.9779 60.9811L65.0638 61.0977C65.0385 61.1055 65.0116 61.1173 64.9831 61.1333C64.9551 61.1488 64.9281 61.1662 64.902 61.1854C64.8009 61.2599 64.7374 61.3405 64.7117 61.4274C64.6865 61.5139 64.6889 61.6043 64.719 61.6987C64.7487 61.7925 64.7963 61.8879 64.8617 61.9847L64.8707 61.9781C64.8675 61.9385 64.871 61.8983 64.8811 61.8573C64.8908 61.8158 64.9093 61.7749 64.9367 61.7346C64.9646 61.694 65.0032 61.6554 65.0527 61.619C65.1223 61.5678 65.1933 61.5373 65.2658 61.5275C65.3388 61.5173 65.4093 61.5288 65.4772 61.5618C65.5456 61.5944 65.6081 61.649 65.6645 61.7257C65.725 61.8078 65.762 61.8899 65.7756 61.9721C65.7892 62.0544 65.7797 62.1326 65.7472 62.2068C65.7148 62.2802 65.6597 62.3454 65.582 62.4027C65.5238 62.4455 65.4621 62.4738 65.3967 62.4875C65.3314 62.5013 65.2643 62.4995 65.1954 62.4823C65.1271 62.4647 65.0589 62.4307 64.9907 62.3803C64.9222 62.3293 64.8559 62.2603 64.7918 62.1733ZM65.4963 62.2897C65.5702 62.2353 65.6121 62.168 65.6218 62.0879C65.6316 62.0077 65.6012 61.9198 65.5308 61.8241C65.4731 61.7458 65.4076 61.6985 65.3343 61.682C65.261 61.6656 65.1844 61.6868 65.1045 61.7456C65.0501 61.7857 65.0112 61.8319 64.9878 61.8844C64.964 61.9363 64.9535 61.9876 64.9565 62.0382C64.9594 62.0889 64.9739 62.1319 64.9999 62.1673C65.0263 62.2031 65.0583 62.2358 65.0958 62.2651C65.1339 62.2941 65.1755 62.3163 65.2204 62.3318C65.2654 62.3474 65.3115 62.3524 65.3587 62.347C65.4058 62.3416 65.4517 62.3225 65.4963 62.2897Z" fill="#212121"/>
<path d="M70.1625 65.3053L69.5109 65.7851L69.4448 65.6954L69.4209 64.6364L68.9618 64.9745L68.8837 64.8685L69.4937 64.4193L69.5676 64.5197L69.5908 65.564L70.085 65.2001L70.1625 65.3053ZM70.8116 64.1356C70.8657 64.209 70.9044 64.2815 70.9278 64.3532C70.9512 64.4248 70.9596 64.4937 70.9529 64.5598C70.9463 64.6259 70.9252 64.6884 70.8897 64.7472C70.8543 64.8051 70.8046 64.8577 70.7404 64.9049C70.6806 64.9489 70.6181 64.979 70.5529 64.9952C70.4878 65.0104 70.4224 65.0116 70.3568 64.9988C70.2917 64.9855 70.2278 64.9574 70.1653 64.9146C70.1033 64.8714 70.0453 64.8131 69.9912 64.7397C69.9192 64.6418 69.8745 64.5465 69.8572 64.4535C69.8395 64.3601 69.8482 64.2728 69.8832 64.1917C69.9184 64.1096 69.9786 64.0371 70.064 63.9743C70.1455 63.9142 70.2302 63.88 70.3179 63.8716C70.4061 63.8628 70.4925 63.8805 70.5771 63.9247C70.6618 63.968 70.74 64.0383 70.8116 64.1356ZM70.1315 64.6364C70.1843 64.7082 70.2397 64.7634 70.2975 64.8022C70.3554 64.8409 70.4148 64.86 70.4757 64.8596C70.5366 64.8592 70.5983 64.836 70.6608 64.79C70.7228 64.7443 70.763 64.6925 70.7815 64.6344C70.8005 64.576 70.8001 64.5134 70.7803 64.4467C70.7605 64.3799 70.7242 64.3107 70.6713 64.2389C70.6189 64.1677 70.5642 64.1133 70.5071 64.0756C70.4496 64.0374 70.3907 64.0188 70.3301 64.0198C70.2696 64.0207 70.2079 64.0444 70.1448 64.0909C70.0518 64.1593 70.0062 64.2403 70.008 64.3337C70.0102 64.4268 70.0514 64.5277 70.1315 64.6364ZM71.129 63.1901C71.235 63.112 71.3345 63.079 71.4273 63.0912C71.5197 63.1028 71.6081 63.166 71.6926 63.2807L72.1213 63.863L71.9876 63.9614L71.5654 63.3881C71.5106 63.3137 71.4524 63.2705 71.3909 63.2588C71.33 63.2466 71.2645 63.2664 71.1943 63.318C71.0954 63.3909 71.0464 63.4701 71.0474 63.5558C71.0484 63.6414 71.0882 63.7375 71.1666 63.844L71.5113 64.3121L71.3759 64.4118L70.7178 63.518L70.8271 63.4376L70.9423 63.5514L70.9497 63.546C70.9455 63.5004 70.9503 63.4563 70.964 63.4134C70.9774 63.3701 70.9982 63.3295 71.0267 63.2918C71.0547 63.2536 71.0888 63.2197 71.129 63.1901ZM72.0742 62.4941C72.1503 62.438 72.228 62.4069 72.3071 62.4005C72.3863 62.3942 72.4628 62.4109 72.5364 62.4506C72.6097 62.4897 72.6761 62.5498 72.7358 62.6308L72.7976 62.7148L72.1803 63.1693C72.2592 63.2731 72.3441 63.3338 72.4351 63.3514C72.5261 63.3691 72.6175 63.3441 72.7094 63.2765C72.766 63.2348 72.8122 63.1928 72.8481 63.1505C72.8839 63.1081 72.9179 63.0597 72.9498 63.0051L73.0375 63.1242C73.0072 63.1775 72.9731 63.2253 72.9353 63.2673C72.8981 63.309 72.8493 63.352 72.789 63.3965C72.7031 63.4597 72.6152 63.4976 72.5255 63.51C72.4358 63.5215 72.3483 63.5063 72.2629 63.4644C72.1776 63.4224 72.0987 63.3523 72.0262 63.2539C71.9553 63.1576 71.9101 63.0626 71.8906 62.9689C71.8711 62.8742 71.8768 62.7862 71.9075 62.7049C71.9387 62.6232 71.9943 62.5529 72.0742 62.4941ZM72.1542 62.6062C72.0819 62.6594 72.0417 62.7255 72.0336 62.8045C72.0255 62.8834 72.0486 62.9682 72.1029 63.0591L72.5758 62.7108C72.5361 62.6579 72.4932 62.6174 72.4473 62.5891C72.4015 62.56 72.3541 62.5462 72.305 62.548C72.2556 62.5492 72.2053 62.5686 72.1542 62.6062ZM73.8657 62.5785L73.5683 61.1499L72.9184 61.6285L72.8271 61.5046L73.6222 60.9191L73.6991 61.0235L74.0141 62.4692L73.8657 62.5785Z" fill="#212121"/>
<rect x="77.332" y="70.1855" width="1.03704" height="61.963" rx="0.51852" transform="rotate(90 77.332 70.1855)" fill="#F4F4F4"/>
<rect x="63.8496" y="71.25" width="1.06518" height="9.05402" rx="0.532591" transform="rotate(-90 63.8496 71.25)" fill="#9F9F9F"/>
<path d="M32.5751 74.3939C32.8204 74.3939 32.9994 74.442 33.1121 74.5383C33.2257 74.6336 33.2825 74.7706 33.2825 74.9491C33.2825 75.0298 33.269 75.1065 33.2422 75.1793C33.2161 75.2512 33.1737 75.315 33.1147 75.3704C33.0558 75.425 32.9782 75.4684 32.882 75.5005C32.7866 75.5317 32.6696 75.5473 32.5309 75.5473H32.2995V76.2949H32.0784V74.3939H32.5751ZM32.5543 74.5825H32.2995V75.3574H32.5062C32.6276 75.3574 32.7285 75.3444 32.8092 75.3184C32.8906 75.2924 32.9518 75.2504 32.9925 75.1923C33.0332 75.1333 33.0536 75.0553 33.0536 74.9582C33.0536 74.8317 33.0133 74.7376 32.9327 74.6761C32.8521 74.6137 32.7259 74.5825 32.5543 74.5825ZM34.1965 74.8438C34.3179 74.8438 34.4219 74.8707 34.5086 74.9244C34.5953 74.9782 34.6616 75.0536 34.7076 75.1507C34.7535 75.2469 34.7765 75.3596 34.7765 75.4888V75.6227H33.7922C33.7948 75.79 33.8364 75.9174 33.917 76.005C33.9976 76.0925 34.1112 76.1363 34.2577 76.1363C34.3478 76.1363 34.4276 76.1281 34.4969 76.1116C34.5663 76.0951 34.6382 76.0708 34.7128 76.0388V76.2286C34.6408 76.2607 34.5693 76.2841 34.4982 76.2988C34.428 76.3136 34.3448 76.3209 34.2486 76.3209C34.1116 76.3209 33.992 76.2932 33.8897 76.2377C33.7883 76.1814 33.7094 76.099 33.653 75.9907C33.5967 75.8823 33.5685 75.7497 33.5685 75.5928C33.5685 75.4393 33.5941 75.3067 33.6452 75.1949C33.6972 75.0822 33.7701 74.9955 33.8637 74.9348C33.9582 74.8742 34.0691 74.8438 34.1965 74.8438ZM34.1939 75.0207C34.0787 75.0207 33.9868 75.0584 33.9183 75.1338C33.8498 75.2092 33.8091 75.3145 33.7961 75.4497H34.5502C34.5494 75.3648 34.5359 75.2902 34.5099 75.2261C34.4848 75.1611 34.4462 75.1108 34.3942 75.0753C34.3422 75.0389 34.2754 75.0207 34.1939 75.0207ZM36.3719 75.5798C36.3719 75.6968 36.3567 75.8013 36.3264 75.8931C36.296 75.985 36.2523 76.0626 36.1951 76.1259C36.1378 76.1892 36.0685 76.2377 35.987 76.2715C35.9064 76.3045 35.8149 76.3209 35.7127 76.3209C35.6173 76.3209 35.5298 76.3045 35.45 76.2715C35.3711 76.2377 35.3026 76.1892 35.2446 76.1259C35.1874 76.0626 35.1427 75.985 35.1106 75.8931C35.0794 75.8013 35.0638 75.6968 35.0638 75.5798C35.0638 75.4237 35.0903 75.2911 35.1431 75.1819C35.196 75.0718 35.2714 74.9882 35.3694 74.9309C35.4682 74.8729 35.5857 74.8438 35.7218 74.8438C35.8518 74.8438 35.9653 74.8729 36.0624 74.9309C36.1604 74.989 36.2362 75.0731 36.29 75.1832C36.3446 75.2924 36.3719 75.4246 36.3719 75.5798ZM35.2875 75.5798C35.2875 75.6942 35.3026 75.7935 35.333 75.8775C35.3633 75.9616 35.4101 76.0266 35.4734 76.0726C35.5367 76.1185 35.6182 76.1415 35.7179 76.1415C35.8167 76.1415 35.8977 76.1185 35.961 76.0726C36.0252 76.0266 36.0724 75.9616 36.1027 75.8775C36.1331 75.7935 36.1482 75.6942 36.1482 75.5798C36.1482 75.4662 36.1331 75.3683 36.1027 75.2859C36.0724 75.2027 36.0256 75.1386 35.9623 75.0935C35.899 75.0484 35.8171 75.0259 35.7166 75.0259C35.5683 75.0259 35.4595 75.0748 35.3902 75.1728C35.3217 75.2707 35.2875 75.4064 35.2875 75.5798ZM37.4147 74.8438C37.5924 74.8438 37.7341 74.9049 37.8399 75.0272C37.9457 75.1494 37.9985 75.3332 37.9985 75.5785C37.9985 75.7406 37.9743 75.8767 37.9257 75.9868C37.8772 76.0968 37.8087 76.1801 37.7203 76.2364C37.6327 76.2928 37.5291 76.3209 37.4095 76.3209C37.3341 76.3209 37.2678 76.311 37.2106 76.291C37.1534 76.2711 37.1044 76.2442 37.0636 76.2104C37.0229 76.1766 36.9891 76.1398 36.9622 76.0999H36.9466C36.9492 76.1337 36.9522 76.1744 36.9557 76.2221C36.9601 76.2698 36.9622 76.3114 36.9622 76.3469V76.9321H36.7451V74.8698H36.9232L36.9518 75.0805H36.9622C36.99 75.0371 37.0238 74.9977 37.0636 74.9621C37.1035 74.9257 37.1521 74.8971 37.2093 74.8763C37.2673 74.8547 37.3358 74.8438 37.4147 74.8438ZM37.377 75.0259C37.2782 75.0259 37.1984 75.0449 37.1378 75.0831C37.0779 75.1212 37.0342 75.1784 37.0064 75.2547C36.9787 75.3301 36.964 75.425 36.9622 75.5395V75.5811C36.9622 75.7016 36.9752 75.8034 37.0012 75.8866C37.0281 75.9699 37.0719 76.0331 37.1326 76.0765C37.1941 76.1198 37.2764 76.1415 37.3796 76.1415C37.468 76.1415 37.5417 76.1177 37.6006 76.07C37.6596 76.0223 37.7034 75.956 37.732 75.871C37.7614 75.7852 37.7762 75.6868 37.7762 75.5759C37.7762 75.4077 37.7432 75.2742 37.6774 75.1754C37.6124 75.0757 37.5122 75.0259 37.377 75.0259ZM38.5928 76.2949H38.3756V74.2717H38.5928V76.2949ZM39.5979 74.8438C39.7192 74.8438 39.8232 74.8707 39.9099 74.9244C39.9966 74.9782 40.0629 75.0536 40.1089 75.1507C40.1548 75.2469 40.1778 75.3596 40.1778 75.4888V75.6227H39.1935C39.1961 75.79 39.2377 75.9174 39.3183 76.005C39.3989 76.0925 39.5125 76.1363 39.659 76.1363C39.7491 76.1363 39.8289 76.1281 39.8982 76.1116C39.9676 76.0951 40.0395 76.0708 40.1141 76.0388V76.2286C40.0421 76.2607 39.9706 76.2841 39.8995 76.2988C39.8293 76.3136 39.7461 76.3209 39.6499 76.3209C39.5129 76.3209 39.3933 76.2932 39.291 76.2377C39.1896 76.1814 39.1107 76.099 39.0543 75.9907C38.998 75.8823 38.9698 75.7497 38.9698 75.5928C38.9698 75.4393 38.9954 75.3067 39.0465 75.1949C39.0986 75.0822 39.1714 74.9955 39.265 74.9348C39.3595 74.8742 39.4704 74.8438 39.5979 74.8438ZM39.5953 75.0207C39.48 75.0207 39.3881 75.0584 39.3196 75.1338C39.2511 75.2092 39.2104 75.3145 39.1974 75.4497H39.9515C39.9507 75.3648 39.9372 75.2902 39.9112 75.2261C39.8861 75.1611 39.8475 75.1108 39.7955 75.0753C39.7435 75.0389 39.6767 75.0207 39.5953 75.0207ZM42.9174 75.3418C42.9174 75.4883 42.8988 75.6218 42.8615 75.7423C42.8243 75.8619 42.7688 75.9651 42.6951 76.0518C42.6223 76.1376 42.5317 76.2039 42.4233 76.2507C42.315 76.2975 42.1893 76.3209 42.0463 76.3209C41.8989 76.3209 41.7702 76.2975 41.6601 76.2507C41.5509 76.2039 41.4598 76.1372 41.387 76.0505C41.3151 75.9638 41.2609 75.8602 41.2245 75.7397C41.189 75.6192 41.1712 75.4857 41.1712 75.3392C41.1712 75.1451 41.2033 74.9747 41.2674 74.8282C41.3315 74.6817 41.4286 74.5677 41.5587 74.4862C41.6896 74.4048 41.8534 74.364 42.0502 74.364C42.2383 74.364 42.3965 74.4043 42.5248 74.4849C42.6539 74.5656 42.7514 74.6791 42.8173 74.8256C42.8841 74.9712 42.9174 75.1433 42.9174 75.3418ZM41.4039 75.3418C41.4039 75.5031 41.4269 75.6426 41.4728 75.7605C41.5188 75.8784 41.589 75.9694 41.6835 76.0336C41.7788 76.0977 41.8998 76.1298 42.0463 76.1298C42.1936 76.1298 42.3141 76.0977 42.4077 76.0336C42.5022 75.9694 42.572 75.8784 42.6171 75.7605C42.6622 75.6426 42.6847 75.5031 42.6847 75.3418C42.6847 75.0965 42.6331 74.9049 42.53 74.7671C42.4277 74.6284 42.2677 74.5591 42.0502 74.5591C41.9028 74.5591 41.7814 74.5907 41.6861 74.654C41.5907 74.7173 41.5197 74.8074 41.4728 74.9244C41.4269 75.0406 41.4039 75.1797 41.4039 75.3418ZM44.4856 74.8698V76.2949H44.3087L44.2775 76.0947H44.2658C44.2363 76.1441 44.1982 76.1857 44.1514 76.2195C44.1046 76.2533 44.0517 76.2785 43.9928 76.2949C43.9347 76.3123 43.8727 76.3209 43.8068 76.3209C43.6941 76.3209 43.5996 76.3027 43.5234 76.2663C43.4471 76.2299 43.3894 76.1736 43.3504 76.0973C43.3123 76.021 43.2932 75.923 43.2932 75.8034V74.8698H43.5117V75.7878C43.5117 75.9066 43.5385 75.9954 43.5923 76.0544C43.646 76.1125 43.7279 76.1415 43.838 76.1415C43.9438 76.1415 44.0279 76.1216 44.0903 76.0817C44.1536 76.0418 44.1991 75.9833 44.2268 75.9061C44.2546 75.8281 44.2684 75.7328 44.2684 75.6201V74.8698H44.4856ZM45.4023 76.1441C45.4378 76.1441 45.4742 76.1411 45.5115 76.135C45.5487 76.1289 45.5791 76.1216 45.6025 76.1129V76.2806C45.5774 76.2919 45.5422 76.3014 45.4972 76.3092C45.453 76.317 45.4096 76.3209 45.3671 76.3209C45.2917 76.3209 45.2232 76.3079 45.1617 76.2819C45.1002 76.255 45.0507 76.21 45.0135 76.1467C44.9771 76.0834 44.9589 75.9959 44.9589 75.884V75.0389H44.756V74.9335L44.9602 74.849L45.046 74.5396H45.176V74.8698H45.5934V75.0389H45.176V75.8775C45.176 75.9668 45.1964 76.0336 45.2371 76.0778C45.2787 76.122 45.3338 76.1441 45.4023 76.1441Z" fill="#212121"/>
<circle cx="28.6238" cy="75.1589" r="1.06518" fill="#D5F263"/>
<path d="M54.4111 74.3939C54.6564 74.3939 54.8354 74.442 54.9481 74.5383C55.0616 74.6336 55.1184 74.7706 55.1184 74.9491C55.1184 75.0298 55.105 75.1065 55.0781 75.1793C55.0521 75.2512 55.0096 75.315 54.9507 75.3704C54.8917 75.425 54.8141 75.4684 54.7179 75.5005C54.6226 75.5317 54.5055 75.5473 54.3668 75.5473H54.1354V76.2949H53.9144V74.3939H54.4111ZM54.3902 74.5825H54.1354V75.3574H54.3421C54.4635 75.3574 54.5645 75.3444 54.6451 75.3184C54.7266 75.2924 54.7877 75.2504 54.8284 75.1923C54.8692 75.1333 54.8896 75.0553 54.8896 74.9582C54.8896 74.8317 54.8492 74.7376 54.7686 74.6761C54.688 74.6137 54.5619 74.5825 54.3902 74.5825ZM56.0325 74.8438C56.1538 74.8438 56.2579 74.8707 56.3446 74.9244C56.4312 74.9782 56.4975 75.0536 56.5435 75.1507C56.5894 75.2469 56.6124 75.3596 56.6124 75.4888V75.6227H55.6281C55.6307 75.79 55.6723 75.9174 55.7529 76.005C55.8335 76.0925 55.9471 76.1363 56.0936 76.1363C56.1838 76.1363 56.2635 76.1281 56.3328 76.1116C56.4022 76.0951 56.4741 76.0708 56.5487 76.0388V76.2286C56.4767 76.2607 56.4052 76.2841 56.3341 76.2988C56.2639 76.3136 56.1807 76.3209 56.0845 76.3209C55.9475 76.3209 55.8279 76.2932 55.7256 76.2377C55.6242 76.1814 55.5453 76.099 55.489 75.9907C55.4326 75.8823 55.4045 75.7497 55.4045 75.5928C55.4045 75.4393 55.43 75.3067 55.4812 75.1949C55.5332 75.0822 55.606 74.9955 55.6996 74.9348C55.7941 74.8742 55.9051 74.8438 56.0325 74.8438ZM56.0299 75.0207C55.9146 75.0207 55.8227 75.0584 55.7542 75.1338C55.6857 75.2092 55.645 75.3145 55.632 75.4497H56.3862C56.3853 75.3648 56.3719 75.2902 56.3459 75.2261C56.3207 75.1611 56.2821 75.1108 56.2301 75.0753C56.1781 75.0389 56.1114 75.0207 56.0299 75.0207ZM58.2078 75.5798C58.2078 75.6968 58.1927 75.8013 58.1623 75.8931C58.132 75.985 58.0882 76.0626 58.031 76.1259C57.9738 76.1892 57.9044 76.2377 57.823 76.2715C57.7423 76.3045 57.6509 76.3209 57.5486 76.3209C57.4532 76.3209 57.3657 76.3045 57.2859 76.2715C57.2071 76.2377 57.1386 76.1892 57.0805 76.1259C57.0233 76.0626 56.9786 75.985 56.9466 75.8931C56.9154 75.8013 56.8998 75.6968 56.8998 75.5798C56.8998 75.4237 56.9262 75.2911 56.9791 75.1819C57.032 75.0718 57.1074 74.9882 57.2053 74.9309C57.3041 74.8729 57.4216 74.8438 57.5577 74.8438C57.6877 74.8438 57.8013 74.8729 57.8984 74.9309C57.9963 74.989 58.0722 75.0731 58.1259 75.1832C58.1805 75.2924 58.2078 75.4246 58.2078 75.5798ZM57.1234 75.5798C57.1234 75.6942 57.1386 75.7935 57.1689 75.8775C57.1993 75.9616 57.2461 76.0266 57.3093 76.0726C57.3726 76.1185 57.4541 76.1415 57.5538 76.1415C57.6526 76.1415 57.7337 76.1185 57.7969 76.0726C57.8611 76.0266 57.9083 75.9616 57.9387 75.8775C57.969 75.7935 57.9842 75.6942 57.9842 75.5798C57.9842 75.4662 57.969 75.3683 57.9387 75.2859C57.9083 75.2027 57.8615 75.1386 57.7982 75.0935C57.735 75.0484 57.6531 75.0259 57.5525 75.0259C57.4043 75.0259 57.2955 75.0748 57.2261 75.1728C57.1577 75.2707 57.1234 75.4064 57.1234 75.5798ZM59.2506 74.8438C59.4284 74.8438 59.5701 74.9049 59.6758 75.0272C59.7816 75.1494 59.8345 75.3332 59.8345 75.5785C59.8345 75.7406 59.8102 75.8767 59.7617 75.9868C59.7131 76.0968 59.6446 76.1801 59.5562 76.2364C59.4687 76.2928 59.3651 76.3209 59.2454 76.3209C59.17 76.3209 59.1037 76.311 59.0465 76.291C58.9893 76.2711 58.9403 76.2442 58.8996 76.2104C58.8588 76.1766 58.825 76.1398 58.7982 76.0999H58.7826C58.7852 76.1337 58.7882 76.1744 58.7917 76.2221C58.796 76.2698 58.7982 76.3114 58.7982 76.3469V76.9321H58.581V74.8698H58.7591L58.7878 75.0805H58.7982C58.8259 75.0371 58.8597 74.9977 58.8996 74.9621C58.9395 74.9257 58.988 74.8971 59.0452 74.8763C59.1033 74.8547 59.1718 74.8438 59.2506 74.8438ZM59.2129 75.0259C59.1141 75.0259 59.0344 75.0449 58.9737 75.0831C58.9139 75.1212 58.8701 75.1784 58.8424 75.2547C58.8146 75.3301 58.7999 75.425 58.7982 75.5395V75.5811C58.7982 75.7016 58.8112 75.8034 58.8372 75.8866C58.864 75.9699 58.9078 76.0331 58.9685 76.0765C59.03 76.1198 59.1124 76.1415 59.2155 76.1415C59.304 76.1415 59.3776 76.1177 59.4366 76.07C59.4955 76.0223 59.5393 75.956 59.5679 75.871C59.5974 75.7852 59.6121 75.6868 59.6121 75.5759C59.6121 75.4077 59.5792 75.2742 59.5133 75.1754C59.4483 75.0757 59.3482 75.0259 59.2129 75.0259ZM60.4287 76.2949H60.2115V74.2717H60.4287V76.2949ZM61.4338 74.8438C61.5552 74.8438 61.6592 74.8707 61.7459 74.9244C61.8325 74.9782 61.8989 75.0536 61.9448 75.1507C61.9907 75.2469 62.0137 75.3596 62.0137 75.4888V75.6227H61.0294C61.032 75.79 61.0736 75.9174 61.1542 76.005C61.2349 76.0925 61.3484 76.1363 61.4949 76.1363C61.5851 76.1363 61.6648 76.1281 61.7342 76.1116C61.8035 76.0951 61.8755 76.0708 61.95 76.0388V76.2286C61.8781 76.2607 61.8065 76.2841 61.7355 76.2988C61.6652 76.3136 61.582 76.3209 61.4858 76.3209C61.3488 76.3209 61.2292 76.2932 61.1269 76.2377C61.0255 76.1814 60.9466 76.099 60.8903 75.9907C60.8339 75.8823 60.8058 75.7497 60.8058 75.5928C60.8058 75.4393 60.8313 75.3067 60.8825 75.1949C60.9345 75.0822 61.0073 74.9955 61.1009 74.9348C61.1954 74.8742 61.3064 74.8438 61.4338 74.8438ZM61.4312 75.0207C61.3159 75.0207 61.224 75.0584 61.1555 75.1338C61.0871 75.2092 61.0463 75.3145 61.0333 75.4497H61.7875C61.7866 75.3648 61.7732 75.2902 61.7472 75.2261C61.722 75.1611 61.6834 75.1108 61.6314 75.0753C61.5794 75.0389 61.5127 75.0207 61.4312 75.0207ZM63.1046 76.2949V74.3939H63.3257V76.2949H63.1046ZM64.4907 74.8438C64.6598 74.8438 64.7876 74.8854 64.8743 74.9686C64.961 75.051 65.0043 75.1836 65.0043 75.3665V76.2949H64.7911V75.3808C64.7911 75.2621 64.7638 75.1732 64.7092 75.1143C64.6554 75.0553 64.5726 75.0259 64.4608 75.0259C64.3031 75.0259 64.1921 75.0705 64.128 75.1598C64.0638 75.2491 64.0317 75.3787 64.0317 75.5486V76.2949H63.8159V74.8698H63.9901L64.0226 75.0753H64.0343C64.0647 75.025 64.1032 74.983 64.1501 74.9491C64.1969 74.9145 64.2493 74.8885 64.3074 74.8711C64.3655 74.8529 64.4266 74.8438 64.4907 74.8438Z" fill="#212121"/>
<circle cx="50.4597" cy="75.1589" r="1.06518" fill="#E7E7E7"/>
</g>
<defs>
<filter id="filter0_d_7837_43870" x="26.5197" y="42.1852" width="9.59346" height="7.47432" filterUnits="userSpaceOnUse" color-interpolation-filters="sRGB">
<feFlood flood-opacity="0" result="BackgroundImageFix"/>
<feColorMatrix in="SourceAlpha" type="matrix" values="0 0 0 0 0 0 0 0 0 0 0 0 0 0 0 0 0 0 127 0" result="hardAlpha"/>
<feOffset dy="0.259259"/>
<feGaussianBlur stdDeviation="1.03704"/>
<feColorMatrix type="matrix" values="0 0 0 0 0.293333 0 0 0 0 0.333211 0 0 0 0 0.431373 0 0 0 0.2 0"/>
<feBlend mode="normal" in2="BackgroundImageFix" result="effect1_dropShadow_7837_43870"/>
<feBlend mode="normal" in="SourceGraphic" in2="effect1_dropShadow_7837_43870" result="shape"/>
</filter>
<filter id="filter1_d_7837_43870" x="18.2228" y="39.5914" width="9.59346" height="7.47627" filterUnits="userSpaceOnUse" color-interpolation-filters="sRGB">
<feFlood flood-opacity="0" result="BackgroundImageFix"/>
<feColorMatrix in="SourceAlpha" type="matrix" values="0 0 0 0 0 0 0 0 0 0 0 0 0 0 0 0 0 0 127 0" result="hardAlpha"/>
<feOffset dy="0.259259"/>
<feGaussianBlur stdDeviation="1.03704"/>
<feColorMatrix type="matrix" values="0 0 0 0 0.293333 0 0 0 0 0.333211 0 0 0 0 0.431373 0 0 0 0.2 0"/>
<feBlend mode="normal" in2="BackgroundImageFix" result="effect1_dropShadow_7837_43870"/>
<feBlend mode="normal" in="SourceGraphic" in2="effect1_dropShadow_7837_43870" result="shape"/>
</filter>
<filter id="filter2_d_7837_43870" x="18.2228" y="49.7047" width="9.59346" height="7.47432" filterUnits="userSpaceOnUse" color-interpolation-filters="sRGB">
<feFlood flood-opacity="0" result="BackgroundImageFix"/>
<feColorMatrix in="SourceAlpha" type="matrix" values="0 0 0 0 0 0 0 0 0 0 0 0 0 0 0 0 0 0 127 0" result="hardAlpha"/>
<feOffset dy="0.259259"/>
<feGaussianBlur stdDeviation="1.03704"/>
<feColorMatrix type="matrix" values="0 0 0 0 0.293333 0 0 0 0 0.333211 0 0 0 0 0.431373 0 0 0 0.2 0"/>
<feBlend mode="normal" in2="BackgroundImageFix" result="effect1_dropShadow_7837_43870"/>
<feBlend mode="normal" in="SourceGraphic" in2="effect1_dropShadow_7837_43870" result="shape"/>
</filter>
<filter id="filter3_d_7837_43870" x="61.0001" y="39.5914" width="9.59346" height="7.47627" filterUnits="userSpaceOnUse" color-interpolation-filters="sRGB">
<feFlood flood-opacity="0" result="BackgroundImageFix"/>
<feColorMatrix in="SourceAlpha" type="matrix" values="0 0 0 0 0 0 0 0 0 0 0 0 0 0 0 0 0 0 127 0" result="hardAlpha"/>
<feOffset dy="0.259259"/>
<feGaussianBlur stdDeviation="1.03704"/>
<feColorMatrix type="matrix" values="0 0 0 0 0.293333 0 0 0 0 0.333211 0 0 0 0 0.431373 0 0 0 0.2 0"/>
<feBlend mode="normal" in2="BackgroundImageFix" result="effect1_dropShadow_7837_43870"/>
<feBlend mode="normal" in="SourceGraphic" in2="effect1_dropShadow_7837_43870" result="shape"/>
</filter>
<filter id="filter4_d_7837_43870" x="61.0001" y="25.8532" width="9.59346" height="7.47432" filterUnits="userSpaceOnUse" color-interpolation-filters="sRGB">
<feFlood flood-opacity="0" result="BackgroundImageFix"/>
<feColorMatrix in="SourceAlpha" type="matrix" values="0 0 0 0 0 0 0 0 0 0 0 0 0 0 0 0 0 0 127 0" result="hardAlpha"/>
<feOffset dy="0.259259"/>
<feGaussianBlur stdDeviation="1.03704"/>
<feColorMatrix type="matrix" values="0 0 0 0 0.293333 0 0 0 0 0.333211 0 0 0 0 0.431373 0 0 0 0.2 0"/>
<feBlend mode="normal" in2="BackgroundImageFix" result="effect1_dropShadow_7837_43870"/>
<feBlend mode="normal" in="SourceGraphic" in2="effect1_dropShadow_7837_43870" result="shape"/>
</filter>
<filter id="filter5_d_7837_43870" x="35.3322" y="23.7789" width="9.59346" height="7.47432" filterUnits="userSpaceOnUse" color-interpolation-filters="sRGB">
<feFlood flood-opacity="0" result="BackgroundImageFix"/>
<feColorMatrix in="SourceAlpha" type="matrix" values="0 0 0 0 0 0 0 0 0 0 0 0 0 0 0 0 0 0 127 0" result="hardAlpha"/>
<feOffset dy="0.259259"/>
<feGaussianBlur stdDeviation="1.03704"/>
<feColorMatrix type="matrix" values="0 0 0 0 0.293333 0 0 0 0 0.333211 0 0 0 0 0.431373 0 0 0 0.2 0"/>
<feBlend mode="normal" in2="BackgroundImageFix" result="effect1_dropShadow_7837_43870"/>
<feBlend mode="normal" in="SourceGraphic" in2="effect1_dropShadow_7837_43870" result="shape"/>
</filter>
<clipPath id="clip0_7837_43870">
<rect width="70" height="61" fill="white" transform="translate(12 16)"/>
</clipPath>
</defs>
</svg>
