<svg width="92" height="92" viewBox="0 0 92 92" fill="none" xmlns="http://www.w3.org/2000/svg">
<rect x="0.389831" y="0.389831" width="91.079" height="91.2203" rx="17.5424" stroke="#BEBEBE" stroke-width="0.779661"/>
<g clip-path="url(#clip0_7626_143576)">
<rect width="70" height="63.3134" transform="translate(11 11)" fill="white"/>
<path d="M18.2383 17.0977V66.1381" stroke="#E0E0E0" stroke-width="0.254095"/>
<path d="M26.496 66.1381C26.496 66.2082 26.5529 66.2651 26.623 66.2651C26.6932 66.2651 26.7501 66.2082 26.7501 66.1381H26.496ZM26.623 17.0977H26.496V66.1381H26.623H26.7501V17.0977H26.623Z" fill="#E0E0E0"/>
<path d="M34.8817 66.1381C34.8817 66.2082 34.9386 66.2651 35.0088 66.2651C35.079 66.2651 35.1358 66.2082 35.1358 66.1381H34.8817ZM35.0088 17.0977H34.8817V66.1381H35.0088H35.1358V17.0977H35.0088Z" fill="#E0E0E0"/>
<path d="M43.2665 66.1381C43.2665 66.2082 43.3234 66.2651 43.3936 66.2651C43.4637 66.2651 43.5206 66.2082 43.5206 66.1381H43.2665ZM43.3936 17.0977H43.2665V66.1381H43.3936H43.5206V17.0977H43.3936Z" fill="#E0E0E0"/>
<path d="M51.6522 66.1381C51.6522 66.2082 51.7091 66.2651 51.7793 66.2651C51.8495 66.2651 51.9063 66.2082 51.9063 66.1381H51.6522ZM51.7793 17.0977H51.6522V66.1381H51.7793H51.9063V17.0977H51.7793Z" fill="#E0E0E0"/>
<path d="M60.037 66.1381C60.037 66.2082 60.0939 66.2651 60.1641 66.2651C60.2342 66.2651 60.2911 66.2082 60.2911 66.1381H60.037ZM60.1641 17.0977H60.037V66.1381H60.1641H60.2911V17.0977H60.1641Z" fill="#E0E0E0"/>
<path d="M68.4218 66.1381C68.4218 66.2082 68.4787 66.2651 68.5488 66.2651C68.619 66.2651 68.6759 66.2082 68.6759 66.1381H68.4218ZM68.5488 17.0977H68.4218V66.1381H68.5488H68.6759V17.0977H68.5488Z" fill="#E0E0E0"/>
<path d="M76.8075 66.1381C76.8075 66.2082 76.8644 66.2651 76.9346 66.2651C77.0047 66.2651 77.0616 66.2082 77.0616 66.1381H76.8075ZM76.9346 17.0977H76.8075V66.1381H76.9346H77.0616V17.0977H76.9346Z" fill="#E0E0E0"/>
<path d="M12.418 19H11.5544V18.8747L11.9069 18.5168C11.9724 18.4507 12.0274 18.3918 12.0719 18.3401C12.1169 18.2884 12.1512 18.2377 12.1746 18.1878C12.1981 18.1373 12.2098 18.082 12.2098 18.0219C12.2098 17.9474 12.1875 17.8906 12.1431 17.8515C12.0992 17.8119 12.0412 17.792 11.9691 17.792C11.906 17.792 11.8501 17.8028 11.8014 17.8245C11.7527 17.8461 11.7028 17.8768 11.6518 17.9164L11.5715 17.8155C11.6064 17.786 11.6443 17.7599 11.6851 17.737C11.7266 17.7142 11.7708 17.6962 11.8176 17.683C11.8651 17.6697 11.9156 17.6631 11.9691 17.6631C12.0502 17.6631 12.1202 17.6772 12.1791 17.7055C12.238 17.7337 12.2834 17.774 12.3152 17.8263C12.3477 17.8786 12.3639 17.9408 12.3639 18.0129C12.3639 18.0826 12.3501 18.1475 12.3225 18.2076C12.2948 18.2671 12.2561 18.3263 12.2062 18.3852C12.1563 18.4435 12.098 18.5054 12.0313 18.5709L11.7446 18.8567V18.863H12.418V19ZM13.0274 18.1941C13.117 18.1941 13.1948 18.2094 13.2609 18.2401C13.327 18.2701 13.3781 18.314 13.4141 18.3717C13.4508 18.4294 13.4691 18.4994 13.4691 18.5817C13.4691 18.6719 13.4496 18.7497 13.4105 18.8152C13.3715 18.8801 13.3153 18.9303 13.242 18.9657C13.1686 19.0006 13.0809 19.018 12.9787 19.018C12.9102 19.018 12.8465 19.012 12.7876 19C12.7287 18.988 12.6791 18.97 12.6389 18.9459V18.8035C12.6827 18.8299 12.7359 18.851 12.7984 18.8666C12.8609 18.8822 12.9216 18.89 12.9805 18.89C13.0472 18.89 13.1055 18.8795 13.1554 18.8585C13.2059 18.8368 13.245 18.8044 13.2726 18.7611C13.3009 18.7172 13.315 18.6622 13.315 18.5961C13.315 18.5084 13.2879 18.4408 13.2338 18.3933C13.1804 18.3452 13.0956 18.3212 12.9796 18.3212C12.9424 18.3212 12.9015 18.3242 12.857 18.3302C12.8126 18.3362 12.7759 18.3428 12.7471 18.35L12.6713 18.3005L12.7218 17.682H13.3772V17.8191H12.8498L12.8165 18.2166C12.8393 18.2118 12.8688 18.207 12.9048 18.2022C12.9409 18.1968 12.9817 18.1941 13.0274 18.1941ZM14.5383 18.3392C14.5383 18.4462 14.5302 18.5418 14.5139 18.6259C14.4977 18.71 14.4722 18.7812 14.4373 18.8395C14.4025 18.8978 14.3574 18.9423 14.3021 18.973C14.2468 19.003 14.1804 19.018 14.1029 19.018C14.0049 19.018 13.9238 18.9913 13.8595 18.9378C13.7958 18.8843 13.748 18.8071 13.7161 18.7061C13.6849 18.6046 13.6693 18.4823 13.6693 18.3392C13.6693 18.1986 13.6834 18.0778 13.7116 17.9768C13.7405 17.8753 13.7867 17.7974 13.8505 17.7433C13.9142 17.6887 13.9983 17.6613 14.1029 17.6613C14.202 17.6613 14.2838 17.6884 14.3481 17.7424C14.4124 17.7959 14.4601 17.8735 14.4914 17.975C14.5226 18.076 14.5383 18.1974 14.5383 18.3392ZM13.8198 18.3392C13.8198 18.4618 13.8291 18.564 13.8477 18.6457C13.8664 18.7275 13.8964 18.7888 13.9379 18.8296C13.98 18.8699 14.035 18.89 14.1029 18.89C14.1708 18.89 14.2255 18.8699 14.2669 18.8296C14.309 18.7894 14.3394 18.7284 14.358 18.6466C14.3772 18.5649 14.3868 18.4624 14.3868 18.3392C14.3868 18.2184 14.3775 18.1175 14.3589 18.0363C14.3403 17.9546 14.3102 17.8933 14.2687 17.8524C14.2273 17.811 14.172 17.7902 14.1029 17.7902C14.0338 17.7902 13.9785 17.811 13.937 17.8524C13.8955 17.8933 13.8655 17.9546 13.8468 18.0363C13.8288 18.1175 13.8198 18.2184 13.8198 18.3392ZM15.5948 18.3392C15.5948 18.4462 15.5867 18.5418 15.5705 18.6259C15.5542 18.71 15.5287 18.7812 15.4938 18.8395C15.459 18.8978 15.4139 18.9423 15.3586 18.973C15.3033 19.003 15.2369 19.018 15.1594 19.018C15.0614 19.018 14.9803 18.9913 14.916 18.9378C14.8523 18.8843 14.8045 18.8071 14.7727 18.7061C14.7414 18.6046 14.7258 18.4823 14.7258 18.3392C14.7258 18.1986 14.7399 18.0778 14.7681 17.9768C14.797 17.8753 14.8433 17.7974 14.907 17.7433C14.9707 17.6887 15.0548 17.6613 15.1594 17.6613C15.2586 17.6613 15.3403 17.6884 15.4046 17.7424C15.4689 17.7959 15.5167 17.8735 15.5479 17.975C15.5792 18.076 15.5948 18.1974 15.5948 18.3392ZM14.8763 18.3392C14.8763 18.4618 14.8856 18.564 14.9043 18.6457C14.9229 18.7275 14.953 18.7888 14.9944 18.8296C15.0365 18.8699 15.0915 18.89 15.1594 18.89C15.2273 18.89 15.282 18.8699 15.3235 18.8296C15.3655 18.7894 15.3959 18.7284 15.4145 18.6466C15.4337 18.5649 15.4434 18.4624 15.4434 18.3392C15.4434 18.2184 15.434 18.1175 15.4154 18.0363C15.3968 17.9546 15.3667 17.8933 15.3253 17.8524C15.2838 17.811 15.2285 17.7902 15.1594 17.7902C15.0903 17.7902 15.035 17.811 14.9935 17.8524C14.952 17.8933 14.922 17.9546 14.9034 18.0363C14.8853 18.1175 14.8763 18.2184 14.8763 18.3392Z" fill="#212121"/>
<path d="M12.418 26.5742H11.5544V26.4489L11.9069 26.091C11.9724 26.0249 12.0274 25.966 12.0719 25.9143C12.1169 25.8627 12.1512 25.8119 12.1746 25.762C12.1981 25.7115 12.2098 25.6562 12.2098 25.5961C12.2098 25.5216 12.1875 25.4648 12.1431 25.4257C12.0992 25.3861 12.0412 25.3662 11.9691 25.3662C11.906 25.3662 11.8501 25.3771 11.8014 25.3987C11.7527 25.4203 11.7028 25.451 11.6518 25.4907L11.5715 25.3897C11.6064 25.3602 11.6443 25.3341 11.6851 25.3113C11.7266 25.2884 11.7708 25.2704 11.8176 25.2572C11.8651 25.2439 11.9156 25.2373 11.9691 25.2373C12.0502 25.2373 12.1202 25.2515 12.1791 25.2797C12.238 25.308 12.2834 25.3482 12.3152 25.4005C12.3477 25.4528 12.3639 25.515 12.3639 25.5871C12.3639 25.6568 12.3501 25.7217 12.3225 25.7818C12.2948 25.8413 12.2561 25.9005 12.2062 25.9594C12.1563 26.0177 12.098 26.0796 12.0313 26.1451L11.7446 26.4309V26.4372H12.418V26.5742ZM13.4818 25.9134C13.4818 26.0204 13.4736 26.116 13.4574 26.2001C13.4412 26.2842 13.4156 26.3555 13.3808 26.4138C13.3459 26.4721 13.3009 26.5165 13.2456 26.5472C13.1903 26.5772 13.1239 26.5922 13.0463 26.5922C12.9484 26.5922 12.8672 26.5655 12.8029 26.512C12.7392 26.4585 12.6915 26.3813 12.6596 26.2803C12.6284 26.1788 12.6127 26.0565 12.6127 25.9134C12.6127 25.7728 12.6269 25.652 12.6551 25.551C12.6839 25.4495 12.7302 25.3717 12.7939 25.3176C12.8576 25.2629 12.9418 25.2355 13.0463 25.2355C13.1455 25.2355 13.2272 25.2626 13.2915 25.3167C13.3558 25.3702 13.4036 25.4477 13.4349 25.5492C13.4661 25.6502 13.4818 25.7716 13.4818 25.9134ZM12.7633 25.9134C12.7633 26.036 12.7726 26.1382 12.7912 26.2199C12.8099 26.3017 12.8399 26.363 12.8814 26.4038C12.9234 26.4441 12.9784 26.4642 13.0463 26.4642C13.1143 26.4642 13.1689 26.4441 13.2104 26.4038C13.2525 26.3636 13.2828 26.3026 13.3015 26.2208C13.3207 26.1391 13.3303 26.0366 13.3303 25.9134C13.3303 25.7926 13.321 25.6917 13.3024 25.6105C13.2837 25.5288 13.2537 25.4675 13.2122 25.4266C13.1707 25.3852 13.1155 25.3644 13.0463 25.3644C12.9772 25.3644 12.9219 25.3852 12.8805 25.4266C12.839 25.4675 12.809 25.5288 12.7903 25.6105C12.7723 25.6917 12.7633 25.7926 12.7633 25.9134ZM14.5383 25.9134C14.5383 26.0204 14.5302 26.116 14.5139 26.2001C14.4977 26.2842 14.4722 26.3555 14.4373 26.4138C14.4025 26.4721 14.3574 26.5165 14.3021 26.5472C14.2468 26.5772 14.1804 26.5922 14.1029 26.5922C14.0049 26.5922 13.9238 26.5655 13.8595 26.512C13.7958 26.4585 13.748 26.3813 13.7161 26.2803C13.6849 26.1788 13.6693 26.0565 13.6693 25.9134C13.6693 25.7728 13.6834 25.652 13.7116 25.551C13.7405 25.4495 13.7867 25.3717 13.8505 25.3176C13.9142 25.2629 13.9983 25.2355 14.1029 25.2355C14.202 25.2355 14.2838 25.2626 14.3481 25.3167C14.4124 25.3702 14.4601 25.4477 14.4914 25.5492C14.5226 25.6502 14.5383 25.7716 14.5383 25.9134ZM13.8198 25.9134C13.8198 26.036 13.8291 26.1382 13.8477 26.2199C13.8664 26.3017 13.8964 26.363 13.9379 26.4038C13.98 26.4441 14.035 26.4642 14.1029 26.4642C14.1708 26.4642 14.2255 26.4441 14.2669 26.4038C14.309 26.3636 14.3394 26.3026 14.358 26.2208C14.3772 26.1391 14.3868 26.0366 14.3868 25.9134C14.3868 25.7926 14.3775 25.6917 14.3589 25.6105C14.3403 25.5288 14.3102 25.4675 14.2687 25.4266C14.2273 25.3852 14.172 25.3644 14.1029 25.3644C14.0338 25.3644 13.9785 25.3852 13.937 25.4266C13.8955 25.4675 13.8655 25.5288 13.8468 25.6105C13.8288 25.6917 13.8198 25.7926 13.8198 25.9134ZM15.5948 25.9134C15.5948 26.0204 15.5867 26.116 15.5705 26.2001C15.5542 26.2842 15.5287 26.3555 15.4938 26.4138C15.459 26.4721 15.4139 26.5165 15.3586 26.5472C15.3033 26.5772 15.2369 26.5922 15.1594 26.5922C15.0614 26.5922 14.9803 26.5655 14.916 26.512C14.8523 26.4585 14.8045 26.3813 14.7727 26.2803C14.7414 26.1788 14.7258 26.0565 14.7258 25.9134C14.7258 25.7728 14.7399 25.652 14.7681 25.551C14.797 25.4495 14.8433 25.3717 14.907 25.3176C14.9707 25.2629 15.0548 25.2355 15.1594 25.2355C15.2586 25.2355 15.3403 25.2626 15.4046 25.3167C15.4689 25.3702 15.5167 25.4477 15.5479 25.5492C15.5792 25.6502 15.5948 25.7716 15.5948 25.9134ZM14.8763 25.9134C14.8763 26.036 14.8856 26.1382 14.9043 26.2199C14.9229 26.3017 14.953 26.363 14.9944 26.4038C15.0365 26.4441 15.0915 26.4642 15.1594 26.4642C15.2273 26.4642 15.282 26.4441 15.3235 26.4038C15.3655 26.3636 15.3959 26.3026 15.4145 26.2208C15.4337 26.1391 15.4434 26.0366 15.4434 25.9134C15.4434 25.7926 15.434 25.6917 15.4154 25.6105C15.3968 25.5288 15.3667 25.4675 15.3253 25.4266C15.2838 25.3852 15.2285 25.3644 15.1594 25.3644C15.0903 25.3644 15.035 25.3852 14.9935 25.4266C14.952 25.4675 14.922 25.5288 14.9034 25.6105C14.8853 25.6917 14.8763 25.7926 14.8763 25.9134Z" fill="#212121"/>
<path d="M12.1115 34.1465H11.9655V33.2126C11.9655 33.1771 11.9655 33.1468 11.9655 33.1215C11.9661 33.0957 11.9667 33.0722 11.9673 33.0512C11.9685 33.0296 11.97 33.0076 11.9718 32.9854C11.9532 33.0046 11.9357 33.0211 11.9195 33.035C11.9033 33.0482 11.8831 33.0647 11.8591 33.0846L11.7086 33.2053L11.6301 33.1035L11.9871 32.8285H12.1115V34.1465ZM13.0274 33.3406C13.117 33.3406 13.1948 33.3559 13.2609 33.3865C13.327 33.4166 13.3781 33.4605 13.4141 33.5182C13.4508 33.5759 13.4691 33.6459 13.4691 33.7282C13.4691 33.8183 13.4496 33.8962 13.4105 33.9617C13.3715 34.0266 13.3153 34.0768 13.242 34.1122C13.1686 34.1471 13.0809 34.1645 12.9787 34.1645C12.9102 34.1645 12.8465 34.1585 12.7876 34.1465C12.7287 34.1345 12.6791 34.1164 12.6389 34.0924V33.95C12.6827 33.9764 12.7359 33.9974 12.7984 34.0131C12.8609 34.0287 12.9216 34.0365 12.9805 34.0365C13.0472 34.0365 13.1055 34.026 13.1554 34.005C13.2059 33.9833 13.245 33.9509 13.2726 33.9076C13.3009 33.8637 13.315 33.8087 13.315 33.7426C13.315 33.6549 13.2879 33.5873 13.2338 33.5398C13.1804 33.4917 13.0956 33.4677 12.9796 33.4677C12.9424 33.4677 12.9015 33.4707 12.857 33.4767C12.8126 33.4827 12.7759 33.4893 12.7471 33.4965L12.6713 33.4469L12.7218 32.8285H13.3772V32.9656H12.8498L12.8165 33.3631C12.8393 33.3583 12.8688 33.3535 12.9048 33.3487C12.9409 33.3433 12.9817 33.3406 13.0274 33.3406ZM14.5383 33.4857C14.5383 33.5927 14.5302 33.6882 14.5139 33.7724C14.4977 33.8565 14.4722 33.9277 14.4373 33.986C14.4025 34.0443 14.3574 34.0888 14.3021 34.1194C14.2468 34.1495 14.1804 34.1645 14.1029 34.1645C14.0049 34.1645 13.9238 34.1378 13.8595 34.0843C13.7958 34.0308 13.748 33.9536 13.7161 33.8526C13.6849 33.751 13.6693 33.6287 13.6693 33.4857C13.6693 33.3451 13.6834 33.2243 13.7116 33.1233C13.7405 33.0217 13.7867 32.9439 13.8505 32.8898C13.9142 32.8351 13.9983 32.8078 14.1029 32.8078C14.202 32.8078 14.2838 32.8348 14.3481 32.8889C14.4124 32.9424 14.4601 33.0199 14.4914 33.1215C14.5226 33.2225 14.5383 33.3439 14.5383 33.4857ZM13.8198 33.4857C13.8198 33.6083 13.8291 33.7105 13.8477 33.7922C13.8664 33.8739 13.8964 33.9352 13.9379 33.9761C13.98 34.0164 14.035 34.0365 14.1029 34.0365C14.1708 34.0365 14.2255 34.0164 14.2669 33.9761C14.309 33.9358 14.3394 33.8748 14.358 33.7931C14.3772 33.7114 14.3868 33.6089 14.3868 33.4857C14.3868 33.3649 14.3775 33.2639 14.3589 33.1828C14.3403 33.1011 14.3102 33.0398 14.2687 32.9989C14.2273 32.9574 14.172 32.9367 14.1029 32.9367C14.0338 32.9367 13.9785 32.9574 13.937 32.9989C13.8955 33.0398 13.8655 33.1011 13.8468 33.1828C13.8288 33.2639 13.8198 33.3649 13.8198 33.4857ZM15.5948 33.4857C15.5948 33.5927 15.5867 33.6882 15.5705 33.7724C15.5542 33.8565 15.5287 33.9277 15.4938 33.986C15.459 34.0443 15.4139 34.0888 15.3586 34.1194C15.3033 34.1495 15.2369 34.1645 15.1594 34.1645C15.0614 34.1645 14.9803 34.1378 14.916 34.0843C14.8523 34.0308 14.8045 33.9536 14.7727 33.8526C14.7414 33.751 14.7258 33.6287 14.7258 33.4857C14.7258 33.3451 14.7399 33.2243 14.7681 33.1233C14.797 33.0217 14.8433 32.9439 14.907 32.8898C14.9707 32.8351 15.0548 32.8078 15.1594 32.8078C15.2586 32.8078 15.3403 32.8348 15.4046 32.8889C15.4689 32.9424 15.5167 33.0199 15.5479 33.1215C15.5792 33.2225 15.5948 33.3439 15.5948 33.4857ZM14.8763 33.4857C14.8763 33.6083 14.8856 33.7105 14.9043 33.7922C14.9229 33.8739 14.953 33.9352 14.9944 33.9761C15.0365 34.0164 15.0915 34.0365 15.1594 34.0365C15.2273 34.0365 15.282 34.0164 15.3235 33.9761C15.3655 33.9358 15.3959 33.8748 15.4145 33.7931C15.4337 33.7114 15.4434 33.6089 15.4434 33.4857C15.4434 33.3649 15.434 33.2639 15.4154 33.1828C15.3968 33.1011 15.3667 33.0398 15.3253 32.9989C15.2838 32.9574 15.2285 32.9367 15.1594 32.9367C15.0903 32.9367 15.035 32.9574 14.9935 32.9989C14.952 33.0398 14.922 33.1011 14.9034 33.1828C14.8853 33.2639 14.8763 33.3649 14.8763 33.4857Z" fill="#212121"/>
<path d="M12.1115 41.7207H11.9655V40.7868C11.9655 40.7513 11.9655 40.721 11.9655 40.6957C11.9661 40.6699 11.9667 40.6465 11.9673 40.6254C11.9685 40.6038 11.97 40.5818 11.9718 40.5596C11.9532 40.5788 11.9357 40.5954 11.9195 40.6092C11.9033 40.6224 11.8831 40.6389 11.8591 40.6588L11.7086 40.7796L11.6301 40.6777L11.9871 40.4028H12.1115V41.7207ZM13.4818 41.0599C13.4818 41.1669 13.4736 41.2625 13.4574 41.3466C13.4412 41.4307 13.4156 41.5019 13.3808 41.5602C13.3459 41.6185 13.3009 41.663 13.2456 41.6937C13.1903 41.7237 13.1239 41.7387 13.0463 41.7387C12.9484 41.7387 12.8672 41.712 12.8029 41.6585C12.7392 41.605 12.6915 41.5278 12.6596 41.4268C12.6284 41.3253 12.6127 41.203 12.6127 41.0599C12.6127 40.9193 12.6269 40.7985 12.6551 40.6975C12.6839 40.596 12.7302 40.5181 12.7939 40.4641C12.8576 40.4094 12.9418 40.382 13.0463 40.382C13.1455 40.382 13.2272 40.4091 13.2915 40.4632C13.3558 40.5166 13.4036 40.5942 13.4349 40.6957C13.4661 40.7967 13.4818 40.9181 13.4818 41.0599ZM12.7633 41.0599C12.7633 41.1825 12.7726 41.2847 12.7912 41.3664C12.8099 41.4482 12.8399 41.5095 12.8814 41.5503C12.9234 41.5906 12.9784 41.6107 13.0463 41.6107C13.1143 41.6107 13.1689 41.5906 13.2104 41.5503C13.2525 41.5101 13.2828 41.4491 13.3015 41.3673C13.3207 41.2856 13.3303 41.1831 13.3303 41.0599C13.3303 40.9391 13.321 40.8382 13.3024 40.757C13.2837 40.6753 13.2537 40.614 13.2122 40.5731C13.1707 40.5317 13.1155 40.5109 13.0463 40.5109C12.9772 40.5109 12.9219 40.5317 12.8805 40.5731C12.839 40.614 12.809 40.6753 12.7903 40.757C12.7723 40.8382 12.7633 40.9391 12.7633 41.0599ZM14.5383 41.0599C14.5383 41.1669 14.5302 41.2625 14.5139 41.3466C14.4977 41.4307 14.4722 41.5019 14.4373 41.5602C14.4025 41.6185 14.3574 41.663 14.3021 41.6937C14.2468 41.7237 14.1804 41.7387 14.1029 41.7387C14.0049 41.7387 13.9238 41.712 13.8595 41.6585C13.7958 41.605 13.748 41.5278 13.7161 41.4268C13.6849 41.3253 13.6693 41.203 13.6693 41.0599C13.6693 40.9193 13.6834 40.7985 13.7116 40.6975C13.7405 40.596 13.7867 40.5181 13.8505 40.4641C13.9142 40.4094 13.9983 40.382 14.1029 40.382C14.202 40.382 14.2838 40.4091 14.3481 40.4632C14.4124 40.5166 14.4601 40.5942 14.4914 40.6957C14.5226 40.7967 14.5383 40.9181 14.5383 41.0599ZM13.8198 41.0599C13.8198 41.1825 13.8291 41.2847 13.8477 41.3664C13.8664 41.4482 13.8964 41.5095 13.9379 41.5503C13.98 41.5906 14.035 41.6107 14.1029 41.6107C14.1708 41.6107 14.2255 41.5906 14.2669 41.5503C14.309 41.5101 14.3394 41.4491 14.358 41.3673C14.3772 41.2856 14.3868 41.1831 14.3868 41.0599C14.3868 40.9391 14.3775 40.8382 14.3589 40.757C14.3403 40.6753 14.3102 40.614 14.2687 40.5731C14.2273 40.5317 14.172 40.5109 14.1029 40.5109C14.0338 40.5109 13.9785 40.5317 13.937 40.5731C13.8955 40.614 13.8655 40.6753 13.8468 40.757C13.8288 40.8382 13.8198 40.9391 13.8198 41.0599ZM15.5948 41.0599C15.5948 41.1669 15.5867 41.2625 15.5705 41.3466C15.5542 41.4307 15.5287 41.5019 15.4938 41.5602C15.459 41.6185 15.4139 41.663 15.3586 41.6937C15.3033 41.7237 15.2369 41.7387 15.1594 41.7387C15.0614 41.7387 14.9803 41.712 14.916 41.6585C14.8523 41.605 14.8045 41.5278 14.7727 41.4268C14.7414 41.3253 14.7258 41.203 14.7258 41.0599C14.7258 40.9193 14.7399 40.7985 14.7681 40.6975C14.797 40.596 14.8433 40.5181 14.907 40.4641C14.9707 40.4094 15.0548 40.382 15.1594 40.382C15.2586 40.382 15.3403 40.4091 15.4046 40.4632C15.4689 40.5166 15.5167 40.5942 15.5479 40.6957C15.5792 40.7967 15.5948 40.9181 15.5948 41.0599ZM14.8763 41.0599C14.8763 41.1825 14.8856 41.2847 14.9043 41.3664C14.9229 41.4482 14.953 41.5095 14.9944 41.5503C15.0365 41.5906 15.0915 41.6107 15.1594 41.6107C15.2273 41.6107 15.282 41.5906 15.3235 41.5503C15.3655 41.5101 15.3959 41.4491 15.4145 41.3673C15.4337 41.2856 15.4434 41.1831 15.4434 41.0599C15.4434 40.9391 15.434 40.8382 15.4154 40.757C15.3968 40.6753 15.3667 40.614 15.3253 40.5731C15.2838 40.5317 15.2285 40.5109 15.1594 40.5109C15.0903 40.5109 15.035 40.5317 14.9935 40.5731C14.952 40.614 14.922 40.6753 14.9034 40.757C14.8853 40.8382 14.8763 40.9391 14.8763 41.0599Z" fill="#212121"/>
<path d="M13.0277 48.489C13.1173 48.489 13.1951 48.5043 13.2612 48.535C13.3273 48.565 13.3784 48.6089 13.4144 48.6666C13.4511 48.7243 13.4694 48.7943 13.4694 48.8766C13.4694 48.9668 13.4499 49.0446 13.4108 49.1101C13.3718 49.175 13.3156 49.2252 13.2423 49.2607C13.1689 49.2955 13.0812 49.313 12.979 49.313C12.9105 49.313 12.8468 49.3069 12.7879 49.2949C12.729 49.2829 12.6794 49.2649 12.6392 49.2408V49.0984C12.683 49.1248 12.7362 49.1459 12.7987 49.1615C12.8612 49.1771 12.9219 49.1849 12.9808 49.1849C13.0475 49.1849 13.1058 49.1744 13.1557 49.1534C13.2062 49.1318 13.2453 49.0993 13.2729 49.056C13.3012 49.0122 13.3153 48.9572 13.3153 48.8911C13.3153 48.8033 13.2882 48.7357 13.2341 48.6882C13.1807 48.6402 13.0959 48.6161 12.9799 48.6161C12.9427 48.6161 12.9018 48.6191 12.8573 48.6251C12.8129 48.6311 12.7762 48.6377 12.7473 48.645L12.6716 48.5954L12.7221 47.977H13.3775V48.114H12.8501L12.8168 48.5115C12.8396 48.5067 12.869 48.5019 12.9051 48.4971C12.9412 48.4917 12.982 48.489 13.0277 48.489ZM14.5386 48.6341C14.5386 48.7411 14.5305 48.8367 14.5142 48.9208C14.498 49.0049 14.4725 49.0762 14.4376 49.1345C14.4027 49.1928 14.3577 49.2372 14.3024 49.2679C14.2471 49.2979 14.1807 49.313 14.1032 49.313C14.0052 49.313 13.9241 49.2862 13.8598 49.2327C13.7961 49.1792 13.7483 49.102 13.7164 49.001C13.6852 48.8995 13.6696 48.7772 13.6696 48.6341C13.6696 48.4935 13.6837 48.3727 13.7119 48.2718C13.7408 48.1702 13.787 48.0924 13.8507 48.0383C13.9145 47.9836 13.9986 47.9562 14.1032 47.9562C14.2023 47.9562 14.2841 47.9833 14.3484 48.0374C14.4127 48.0909 14.4604 48.1684 14.4917 48.2699C14.5229 48.3709 14.5386 48.4923 14.5386 48.6341ZM13.8201 48.6341C13.8201 48.7567 13.8294 48.8589 13.848 48.9406C13.8667 49.0224 13.8967 49.0837 13.9382 49.1245C13.9803 49.1648 14.0352 49.1849 14.1032 49.1849C14.1711 49.1849 14.2258 49.1648 14.2672 49.1245C14.3093 49.0843 14.3396 49.0233 14.3583 48.9415C14.3775 48.8598 14.3871 48.7573 14.3871 48.6341C14.3871 48.5133 14.3778 48.4124 14.3592 48.3312C14.3405 48.2495 14.3105 48.1882 14.269 48.1473C14.2276 48.1059 14.1723 48.0851 14.1032 48.0851C14.034 48.0851 13.9788 48.1059 13.9373 48.1473C13.8958 48.1882 13.8658 48.2495 13.8471 48.3312C13.8291 48.4124 13.8201 48.5133 13.8201 48.6341ZM15.5951 48.6341C15.5951 48.7411 15.587 48.8367 15.5708 48.9208C15.5545 49.0049 15.529 49.0762 15.4941 49.1345C15.4593 49.1928 15.4142 49.2372 15.3589 49.2679C15.3036 49.2979 15.2372 49.313 15.1597 49.313C15.0617 49.313 14.9806 49.2862 14.9163 49.2327C14.8526 49.1792 14.8048 49.102 14.773 49.001C14.7417 48.8995 14.7261 48.7772 14.7261 48.6341C14.7261 48.4935 14.7402 48.3727 14.7684 48.2718C14.7973 48.1702 14.8436 48.0924 14.9073 48.0383C14.971 47.9836 15.0551 47.9562 15.1597 47.9562C15.2588 47.9562 15.3406 47.9833 15.4049 48.0374C15.4692 48.0909 15.517 48.1684 15.5482 48.2699C15.5795 48.3709 15.5951 48.4923 15.5951 48.6341ZM14.8766 48.6341C14.8766 48.7567 14.8859 48.8589 14.9046 48.9406C14.9232 49.0224 14.9532 49.0837 14.9947 49.1245C15.0368 49.1648 15.0918 49.1849 15.1597 49.1849C15.2276 49.1849 15.2823 49.1648 15.3238 49.1245C15.3658 49.0843 15.3962 49.0233 15.4148 48.9415C15.434 48.8598 15.4436 48.7573 15.4436 48.6341C15.4436 48.5133 15.4343 48.4124 15.4157 48.3312C15.3971 48.2495 15.367 48.1882 15.3256 48.1473C15.2841 48.1059 15.2288 48.0851 15.1597 48.0851C15.0906 48.0851 15.0353 48.1059 14.9938 48.1473C14.9523 48.1882 14.9223 48.2495 14.9037 48.3312C14.8856 48.4124 14.8766 48.5133 14.8766 48.6341Z" fill="#212121"/>
<path d="M13.1683 56.8691H13.0223V55.9352C13.0223 55.8998 13.0223 55.8694 13.0223 55.8442C13.0229 55.8183 13.0235 55.7949 13.0241 55.7739C13.0253 55.7522 13.0268 55.7303 13.0286 55.708C13.01 55.7273 12.9925 55.7438 12.9763 55.7576C12.9601 55.7708 12.94 55.7874 12.9159 55.8072L12.7654 55.928L12.6869 55.8261L13.0439 55.5512H13.1683V56.8691ZM14.5386 56.2084C14.5386 56.3153 14.5305 56.4109 14.5142 56.495C14.498 56.5792 14.4725 56.6504 14.4376 56.7087C14.4027 56.767 14.3577 56.8114 14.3024 56.8421C14.2471 56.8721 14.1807 56.8872 14.1032 56.8872C14.0052 56.8872 13.9241 56.8604 13.8598 56.8069C13.7961 56.7535 13.7483 56.6762 13.7164 56.5753C13.6852 56.4737 13.6696 56.3514 13.6696 56.2084C13.6696 56.0677 13.6837 55.9469 13.7119 55.846C13.7408 55.7444 13.787 55.6666 13.8507 55.6125C13.9145 55.5578 13.9986 55.5305 14.1032 55.5305C14.2023 55.5305 14.2841 55.5575 14.3484 55.6116C14.4127 55.6651 14.4604 55.7426 14.4917 55.8442C14.5229 55.9451 14.5386 56.0665 14.5386 56.2084ZM13.8201 56.2084C13.8201 56.331 13.8294 56.4331 13.848 56.5149C13.8667 56.5966 13.8967 56.6579 13.9382 56.6988C13.9803 56.739 14.0352 56.7592 14.1032 56.7592C14.1711 56.7592 14.2258 56.739 14.2672 56.6988C14.3093 56.6585 14.3396 56.5975 14.3583 56.5158C14.3775 56.434 14.3871 56.3316 14.3871 56.2084C14.3871 56.0876 14.3778 55.9866 14.3592 55.9055C14.3405 55.8237 14.3105 55.7624 14.269 55.7216C14.2276 55.6801 14.1723 55.6594 14.1032 55.6594C14.034 55.6594 13.9788 55.6801 13.9373 55.7216C13.8958 55.7624 13.8658 55.8237 13.8471 55.9055C13.8291 55.9866 13.8201 56.0876 13.8201 56.2084ZM15.5951 56.2084C15.5951 56.3153 15.587 56.4109 15.5708 56.495C15.5545 56.5792 15.529 56.6504 15.4941 56.7087C15.4593 56.767 15.4142 56.8114 15.3589 56.8421C15.3036 56.8721 15.2372 56.8872 15.1597 56.8872C15.0617 56.8872 14.9806 56.8604 14.9163 56.8069C14.8526 56.7535 14.8048 56.6762 14.773 56.5753C14.7417 56.4737 14.7261 56.3514 14.7261 56.2084C14.7261 56.0677 14.7402 55.9469 14.7684 55.846C14.7973 55.7444 14.8436 55.6666 14.9073 55.6125C14.971 55.5578 15.0551 55.5305 15.1597 55.5305C15.2588 55.5305 15.3406 55.5575 15.4049 55.6116C15.4692 55.6651 15.517 55.7426 15.5482 55.8442C15.5795 55.9451 15.5951 56.0665 15.5951 56.2084ZM14.8766 56.2084C14.8766 56.331 14.8859 56.4331 14.9046 56.5149C14.9232 56.5966 14.9532 56.6579 14.9947 56.6988C15.0368 56.739 15.0918 56.7592 15.1597 56.7592C15.2276 56.7592 15.2823 56.739 15.3238 56.6988C15.3658 56.6585 15.3962 56.5975 15.4148 56.5158C15.434 56.434 15.4436 56.3316 15.4436 56.2084C15.4436 56.0876 15.4343 55.9866 15.4157 55.9055C15.3971 55.8237 15.367 55.7624 15.3256 55.7216C15.2841 55.6801 15.2288 55.6594 15.1597 55.6594C15.0906 55.6594 15.0353 55.6801 14.9938 55.7216C14.9523 55.7624 14.9223 55.8237 14.9037 55.9055C14.8856 55.9866 14.8766 56.0876 14.8766 56.2084Z" fill="#212121"/>
<path d="M15.5951 63.7806C15.5951 63.8876 15.587 63.9832 15.5708 64.0673C15.5545 64.1514 15.529 64.2226 15.4941 64.2809C15.4593 64.3392 15.4142 64.3837 15.3589 64.4144C15.3036 64.4444 15.2372 64.4594 15.1597 64.4594C15.0617 64.4594 14.9806 64.4327 14.9163 64.3792C14.8526 64.3257 14.8048 64.2485 14.773 64.1475C14.7417 64.046 14.7261 63.9237 14.7261 63.7806C14.7261 63.64 14.7402 63.5192 14.7684 63.4182C14.7973 63.3167 14.8436 63.2388 14.9073 63.1848C14.971 63.1301 15.0551 63.1027 15.1597 63.1027C15.2588 63.1027 15.3406 63.1298 15.4049 63.1839C15.4692 63.2373 15.517 63.3149 15.5482 63.4164C15.5795 63.5174 15.5951 63.6388 15.5951 63.7806ZM14.8766 63.7806C14.8766 63.9032 14.8859 64.0054 14.9046 64.0871C14.9232 64.1689 14.9532 64.2302 14.9947 64.271C15.0368 64.3113 15.0918 64.3314 15.1597 64.3314C15.2276 64.3314 15.2823 64.3113 15.3238 64.271C15.3658 64.2308 15.3962 64.1698 15.4148 64.088C15.434 64.0063 15.4436 63.9038 15.4436 63.7806C15.4436 63.6598 15.4343 63.5589 15.4157 63.4777C15.3971 63.396 15.367 63.3347 15.3256 63.2938C15.2841 63.2524 15.2288 63.2316 15.1597 63.2316C15.0906 63.2316 15.0353 63.2524 14.9938 63.2938C14.9523 63.3347 14.9223 63.396 14.9037 63.4777C14.8856 63.5589 14.8766 63.6598 14.8766 63.7806Z" fill="#212121"/>
<path d="M27.2117 68.6465H27.0657V67.7126C27.0657 67.6771 27.0657 67.6468 27.0657 67.6215C27.0663 67.5957 27.0669 67.5722 27.0675 67.5512C27.0687 67.5296 27.0702 67.5076 27.072 67.4854C27.0533 67.5046 27.0359 67.5211 27.0197 67.535C27.0035 67.5482 26.9833 67.5647 26.9593 67.5846L26.8087 67.7053L26.7303 67.6035L27.0873 67.3285H27.2117V68.6465Z" fill="#212121"/>
<path d="M19.1406 67.9857C19.1406 68.0927 19.1325 68.1882 19.1163 68.2724C19.1001 68.3565 19.0745 68.4277 19.0397 68.486C19.0048 68.5443 18.9597 68.5888 18.9045 68.6194C18.8492 68.6495 18.7828 68.6645 18.7052 68.6645C18.6073 68.6645 18.5261 68.6378 18.4618 68.5843C18.3981 68.5308 18.3503 68.4536 18.3185 68.3526C18.2872 68.251 18.2716 68.1287 18.2716 67.9857C18.2716 67.8451 18.2857 67.7243 18.314 67.6233C18.3428 67.5217 18.3891 67.4439 18.4528 67.3898C18.5165 67.3351 18.6007 67.3078 18.7052 67.3078C18.8044 67.3078 18.8861 67.3348 18.9504 67.3889C19.0147 67.4424 19.0625 67.5199 19.0938 67.6215C19.125 67.7225 19.1406 67.8439 19.1406 67.9857ZM18.4222 67.9857C18.4222 68.1083 18.4315 68.2105 18.4501 68.2922C18.4687 68.3739 18.4988 68.4352 18.5403 68.4761C18.5823 68.5164 18.6373 68.5365 18.7052 68.5365C18.7731 68.5365 18.8278 68.5164 18.8693 68.4761C18.9114 68.4358 18.9417 68.3748 18.9603 68.2931C18.9796 68.2114 18.9892 68.1089 18.9892 67.9857C18.9892 67.8649 18.9799 67.7639 18.9612 67.6828C18.9426 67.6011 18.9126 67.5398 18.8711 67.4989C18.8296 67.4574 18.7743 67.4367 18.7052 67.4367C18.6361 67.4367 18.5808 67.4574 18.5394 67.4989C18.4979 67.5398 18.4678 67.6011 18.4492 67.6828C18.4312 67.7639 18.4222 67.8649 18.4222 67.9857Z" fill="#212121"/>
<path d="M35.9039 68.6465H35.0403V68.5212L35.3928 68.1633C35.4583 68.0972 35.5133 68.0383 35.5578 67.9866C35.6028 67.9349 35.6371 67.8841 35.6605 67.8343C35.684 67.7838 35.6957 67.7285 35.6957 67.6684C35.6957 67.5939 35.6735 67.5371 35.629 67.498C35.5851 67.4583 35.5271 67.4385 35.455 67.4385C35.3919 67.4385 35.336 67.4493 35.2873 67.471C35.2386 67.4926 35.1888 67.5233 35.1377 67.5629L35.0575 67.462C35.0923 67.4325 35.1302 67.4064 35.171 67.3835C35.2125 67.3607 35.2567 67.3427 35.3036 67.3294C35.351 67.3162 35.4015 67.3096 35.455 67.3096C35.5361 67.3096 35.6061 67.3237 35.665 67.352C35.7239 67.3802 35.7693 67.4205 35.8012 67.4728C35.8336 67.5251 35.8498 67.5873 35.8498 67.6594C35.8498 67.7291 35.836 67.794 35.8084 67.8541C35.7807 67.9136 35.742 67.9728 35.6921 68.0317C35.6422 68.09 35.5839 68.1519 35.5172 68.2174L35.2305 68.5032V68.5095H35.9039V68.6465Z" fill="#212121"/>
<path d="M44.4939 67.6359C44.4939 67.6948 44.4825 67.7459 44.4597 67.7892C44.4368 67.8325 44.405 67.8679 44.3641 67.8956C44.3232 67.9226 44.2752 67.9415 44.2199 67.9524V67.9596C44.3245 67.9728 44.4029 68.0064 44.4552 68.0605C44.5081 68.1146 44.5345 68.1855 44.5345 68.2733C44.5345 68.3496 44.5165 68.4172 44.4804 68.4761C44.4449 68.535 44.3903 68.5813 44.3163 68.6149C44.243 68.648 44.149 68.6645 44.0342 68.6645C43.9645 68.6645 43.8999 68.6588 43.8404 68.6474C43.7815 68.6366 43.725 68.6182 43.6709 68.5924V68.4518C43.7256 68.4788 43.7851 68.5001 43.8494 68.5158C43.9137 68.5308 43.9759 68.5383 44.036 68.5383C44.1562 68.5383 44.243 68.5146 44.2965 68.4671C44.35 68.419 44.3767 68.3535 44.3767 68.2706C44.3767 68.2135 44.3617 68.1675 44.3317 68.1326C44.3022 68.0972 44.2595 68.0713 44.2037 68.0551C44.1484 68.0383 44.0817 68.0299 44.0035 68.0299H43.8719V67.9019H44.0044C44.0759 67.9019 44.1366 67.8914 44.1865 67.8703C44.2364 67.8493 44.2743 67.8198 44.3001 67.782C44.3266 67.7435 44.3398 67.6981 44.3398 67.6459C44.3398 67.5791 44.3175 67.5278 44.2731 67.4917C44.2286 67.455 44.1682 67.4367 44.0919 67.4367C44.045 67.4367 44.0023 67.4415 43.9639 67.4511C43.9254 67.4607 43.8893 67.474 43.8557 67.4908C43.822 67.5076 43.7884 67.5272 43.7547 67.5494L43.679 67.4466C43.7271 67.4094 43.7857 67.3772 43.8548 67.3502C43.9239 67.3231 44.0023 67.3096 44.0901 67.3096C44.2247 67.3096 44.3257 67.3403 44.393 67.4016C44.4603 67.4629 44.4939 67.541 44.4939 67.6359Z" fill="#212121"/>
<path d="M52.9932 68.3409H52.7958V68.6465H52.6497V68.3409H52.0124V68.2147L52.6398 67.3213H52.7958V68.2057H52.9932V68.3409ZM52.6497 68.2057V67.7748C52.6497 67.7417 52.65 67.712 52.6506 67.6855C52.6512 67.6585 52.6521 67.6335 52.6533 67.6107C52.6545 67.5873 52.6554 67.565 52.656 67.544C52.6572 67.523 52.6581 67.5022 52.6587 67.4818H52.6515C52.6401 67.5058 52.6269 67.5314 52.6119 67.5584C52.5974 67.5849 52.5827 67.6086 52.5677 67.6296L52.1611 68.2057H52.6497Z" fill="#212121"/>
<path d="M60.866 67.8406C60.9555 67.8406 61.0334 67.8559 61.0995 67.8865C61.1656 67.9166 61.2167 67.9605 61.2527 68.0182C61.2894 68.0759 61.3077 68.1459 61.3077 68.2282C61.3077 68.3183 61.2882 68.3962 61.2491 68.4617C61.21 68.5266 61.1539 68.5768 61.0805 68.6122C61.0072 68.6471 60.9195 68.6645 60.8173 68.6645C60.7488 68.6645 60.6851 68.6585 60.6262 68.6465C60.5673 68.6345 60.5177 68.6164 60.4775 68.5924V68.45C60.5213 68.4764 60.5745 68.4974 60.637 68.5131C60.6995 68.5287 60.7602 68.5365 60.8191 68.5365C60.8858 68.5365 60.9441 68.526 60.994 68.505C61.0445 68.4833 61.0835 68.4509 61.1112 68.4076C61.1394 68.3637 61.1536 68.3087 61.1536 68.2426C61.1536 68.1549 61.1265 68.0873 61.0724 68.0398C61.0189 67.9917 60.9342 67.9677 60.8182 67.9677C60.7809 67.9677 60.7401 67.9707 60.6956 67.9767C60.6511 67.9827 60.6145 67.9893 60.5856 67.9965L60.5099 67.9469L60.5604 67.3285H61.2158V67.4656H60.6884L60.655 67.8631C60.6779 67.8583 60.7073 67.8535 60.7434 67.8487C60.7794 67.8433 60.8203 67.8406 60.866 67.8406Z" fill="#212121"/>
<path d="M68.8478 68.0831C68.8478 68.0037 68.8532 67.9262 68.864 67.8505C68.8754 67.7748 68.8944 67.7044 68.9208 67.6395C68.9473 67.574 68.9833 67.5166 69.029 67.4674C69.0747 67.4181 69.1315 67.3796 69.1994 67.352C69.2679 67.3237 69.3499 67.3096 69.4455 67.3096C69.4725 67.3096 69.5017 67.3111 69.5329 67.3141C69.5642 67.3165 69.59 67.3207 69.6104 67.3267V67.4556C69.5882 67.4478 69.5627 67.4421 69.5338 67.4385C69.5056 67.4349 69.477 67.4331 69.4482 67.4331C69.3364 67.4331 69.2483 67.4574 69.184 67.5061C69.1203 67.5548 69.0744 67.6209 69.0461 67.7044C69.0179 67.7874 69.0016 67.8808 68.9974 67.9848H69.0074C69.026 67.9548 69.0497 67.9277 69.0786 67.9037C69.1074 67.879 69.1423 67.8595 69.1831 67.8451C69.2246 67.8307 69.2727 67.8234 69.3274 67.8234C69.4043 67.8234 69.4713 67.8391 69.5284 67.8703C69.5861 67.9016 69.6306 67.9469 69.6618 68.0064C69.6937 68.0659 69.7096 68.1381 69.7096 68.2228C69.7096 68.3135 69.6928 68.392 69.6591 68.4581C69.6255 68.5242 69.5774 68.5753 69.5149 68.6113C69.453 68.6468 69.3791 68.6645 69.2931 68.6645C69.2288 68.6645 69.1696 68.6522 69.1155 68.6276C69.0614 68.6029 69.0143 68.5663 68.974 68.5176C68.9343 68.4689 68.9034 68.4085 68.8811 68.3364C68.8589 68.2637 68.8478 68.1792 68.8478 68.0831ZM69.2913 68.5383C69.3731 68.5383 69.4386 68.5122 69.4878 68.4599C69.5371 68.4076 69.5618 68.3286 69.5618 68.2228C69.5618 68.1363 69.5398 68.0677 69.496 68.0173C69.4521 67.9668 69.386 67.9415 69.2976 67.9415C69.2375 67.9415 69.1852 67.9542 69.1408 67.9794C69.0963 68.004 69.0617 68.0353 69.0371 68.0731C69.0125 68.111 69.0001 68.1495 69.0001 68.1885C69.0001 68.2282 69.0059 68.2685 69.0173 68.3093C69.0293 68.3502 69.0473 68.3881 69.0714 68.4229C69.0954 68.4578 69.1257 68.4857 69.1624 68.5068C69.1991 68.5278 69.242 68.5383 69.2913 68.5383Z" fill="#212121"/>
<path d="M77.1365 68.6465L77.6774 67.4656H76.9589V67.3285H77.8378V67.4439L77.3006 68.6465H77.1365Z" fill="#212121"/>
<path d="M18.1112 66.1381C18.1112 66.2082 18.1681 66.2651 18.2383 66.2651C18.3084 66.2651 18.3653 66.2082 18.3653 66.1381H18.1112ZM18.2383 17.0977H18.1112V66.1381H18.2383H18.3653V17.0977H18.2383Z" fill="#D4D4D4"/>
<path d="M18.2383 66.1387H76.9343" stroke="#D4D4D4" stroke-width="0.254095"/>
<path opacity="0.8" d="M18.2383 59.2057L26.6234 53.4342L35.0086 36.2828L43.3937 39.0778L51.7701 23.7051L60.2607 36.9947L68.6283 25.797L76.8728 23.7051" stroke="#FFE501" stroke-width="0.369157"/>
<path opacity="0.8" d="M18.2383 53.7924L26.7289 58.3453L35.158 51.3929L43.5871 48.7473L51.8316 44.748L60.2607 45.4864L68.6283 48.0705L76.9343 51.9466" stroke="#A079FF" stroke-width="0.369157"/>
<path d="M18.2383 61.1751L26.6234 60.4224L35.0086 61.1751L43.3937 56.1028L51.7701 55.8223L60.1992 57.8526L68.5667 55.4531L76.9343 59.3293" stroke="#FC90FF" stroke-width="0.369157"/>
<path opacity="0.8" d="M18.2383 62.4048L26.6234 50.3848L35.0086 57.3724L43.3937 53.688L51.8316 59.4515L60.1992 59.0824L68.6898 61.5434L76.8728 62.897" stroke="#65B2FF" stroke-width="0.369157"/>
<circle cx="77.0369" cy="23.4685" r="0.439223" fill="#FFBF00"/>
</g>
<circle cx="26.8875" cy="50.2166" r="0.439223" fill="#4090E0"/>
<circle cx="26.6013" cy="53.4128" r="0.485091" fill="#FFBF00"/>
<circle cx="26.6013" cy="58.241" r="0.485091" fill="#7F57E0"/>
<circle cx="26.6013" cy="60.5281" r="0.485091" fill="#A15FA3"/>
<circle cx="35.2459" cy="36.0076" r="0.439223" fill="#FFBF00"/>
<circle cx="35.2459" cy="51.0525" r="0.439223" fill="#7F57E0"/>
<circle cx="34.9861" cy="57.2234" r="0.485091" fill="#4090E0"/>
<circle cx="34.9861" cy="61.0359" r="0.485091" fill="#A15FA3"/>
<circle cx="43.6033" cy="38.7244" r="0.439223" fill="#FFBF00"/>
<circle cx="43.6033" cy="48.5447" r="0.439223" fill="#7F57E0"/>
<circle cx="43.3718" cy="53.6667" r="0.485091" fill="#4090E0"/>
<circle cx="43.3718" cy="56.2077" r="0.485091" fill="#A15FA3"/>
<circle cx="51.9627" cy="23.4705" r="0.439223" fill="#FFBF00"/>
<circle cx="51.9627" cy="44.574" r="0.439223" fill="#7F57E0"/>
<circle cx="51.7566" cy="55.9538" r="0.485091" fill="#A15FA3"/>
<circle cx="51.7566" cy="59.2566" r="0.485091" fill="#4090E0"/>
<circle cx="60.3201" cy="36.6345" r="0.439223" fill="#FFBF00"/>
<circle cx="60.3201" cy="45.2009" r="0.439223" fill="#7F57E0"/>
<circle cx="60.1413" cy="57.7331" r="0.485091" fill="#A15FA3"/>
<circle cx="60.1413" cy="59.0027" r="0.485091" fill="#4090E0"/>
<circle cx="68.6775" cy="25.5603" r="0.439223" fill="#FFBF00"/>
<circle cx="68.8865" cy="47.7088" r="0.439223" fill="#7F57E0"/>
<circle cx="68.5261" cy="55.446" r="0.485091" fill="#A15FA3"/>
<circle cx="68.5261" cy="61.5437" r="0.485091" fill="#4090E0"/>
<circle cx="18.2156" cy="53.9206" r="0.485091" fill="#7F57E0"/>
<circle cx="18.2156" cy="59.2566" r="0.485091" fill="#FFBF00"/>
<circle cx="18.2156" cy="61.0359" r="0.485091" fill="#FDA6FF"/>
<circle cx="18.2156" cy="62.5593" r="0.485091" fill="#FFEA34"/>
<circle cx="76.9118" cy="51.8874" r="0.485091" fill="#7F57E0"/>
<circle cx="76.9118" cy="59.2566" r="0.485091" fill="#A15FA3"/>
<circle cx="76.9118" cy="62.8132" r="0.485091" fill="#4090E0"/>
<path d="M29.5878 78.2012H28.6266V78.08L29.3719 76.9606H28.6522V76.8167H29.5679V76.9379L28.8217 78.0572H29.5878V78.2012ZM30.7233 77.6803C30.7233 77.7656 30.7122 77.8416 30.6901 77.9085C30.668 77.9755 30.6361 78.032 30.5945 78.0781C30.5528 78.1241 30.5023 78.1595 30.4429 78.1841C30.3842 78.2081 30.3176 78.2201 30.2431 78.2201C30.1737 78.2201 30.1099 78.2081 30.0518 78.1841C29.9944 78.1595 29.9445 78.1241 29.9022 78.0781C29.8605 78.032 29.828 77.9755 29.8047 77.9085C29.7819 77.8416 29.7706 77.7656 29.7706 77.6803C29.7706 77.5667 29.7898 77.4701 29.8283 77.3905C29.8669 77.3104 29.9218 77.2494 29.9931 77.2078C30.0651 77.1655 30.1506 77.1443 30.2498 77.1443C30.3445 77.1443 30.4272 77.1655 30.4979 77.2078C30.5692 77.2501 30.6245 77.3113 30.6636 77.3915C30.7034 77.471 30.7233 77.5673 30.7233 77.6803ZM29.9335 77.6803C29.9335 77.7637 29.9445 77.8359 29.9666 77.8972C29.9887 77.9584 30.0228 78.0058 30.0689 78.0392C30.115 78.0727 30.1743 78.0894 30.2469 78.0894C30.3189 78.0894 30.3779 78.0727 30.424 78.0392C30.4707 78.0058 30.5051 77.9584 30.5272 77.8972C30.5493 77.8359 30.5604 77.7637 30.5604 77.6803C30.5604 77.5976 30.5493 77.5263 30.5272 77.4663C30.5051 77.4057 30.471 77.359 30.425 77.3261C30.3789 77.2933 30.3192 77.2769 30.246 77.2769C30.138 77.2769 30.0588 77.3126 30.0083 77.3839C29.9584 77.4553 29.9335 77.5541 29.9335 77.6803ZM31.4865 77.1443C31.6096 77.1443 31.7028 77.1746 31.7659 77.2352C31.829 77.2952 31.8606 77.3918 31.8606 77.525V78.2012H31.7053V77.5354C31.7053 77.4489 31.6854 77.3842 31.6456 77.3413C31.6065 77.2984 31.5462 77.2769 31.4648 77.2769C31.3499 77.2769 31.269 77.3094 31.2223 77.3744C31.1756 77.4395 31.1522 77.5339 31.1522 77.6576V78.2012H30.995V77.1633H31.1219L31.1456 77.3129H31.1541C31.1762 77.2763 31.2043 77.2457 31.2384 77.221C31.2725 77.1958 31.3107 77.1768 31.353 77.1642C31.3953 77.151 31.4398 77.1443 31.4865 77.1443ZM32.5841 77.1443C32.6725 77.1443 32.7483 77.1639 32.8114 77.203C32.8745 77.2422 32.9228 77.2971 32.9563 77.3678C32.9897 77.4379 33.0065 77.52 33.0065 77.614V77.7116H32.2896C32.2915 77.8334 32.3218 77.9262 32.3805 77.99C32.4392 78.0538 32.5219 78.0856 32.6286 78.0856C32.6943 78.0856 32.7524 78.0796 32.8029 78.0676C32.8534 78.0556 32.9058 78.038 32.9601 78.0146V78.1529C32.9077 78.1762 32.8556 78.1933 32.8038 78.204C32.7527 78.2147 32.6921 78.2201 32.622 78.2201C32.5222 78.2201 32.4351 78.1999 32.3606 78.1595C32.2867 78.1185 32.2293 78.0585 32.1883 77.9796C32.1472 77.9007 32.1267 77.8041 32.1267 77.6898C32.1267 77.578 32.1453 77.4815 32.1826 77.4C32.2205 77.3179 32.2735 77.2548 32.3417 77.2106C32.4105 77.1664 32.4913 77.1443 32.5841 77.1443ZM32.5822 77.2731C32.4982 77.2731 32.4313 77.3006 32.3814 77.3555C32.3316 77.4104 32.3019 77.4871 32.2924 77.5856H32.8417C32.8411 77.5238 32.8313 77.4695 32.8123 77.4227C32.794 77.3754 32.7659 77.3388 32.7281 77.3129C32.6902 77.2864 32.6416 77.2731 32.5822 77.2731ZM33.7887 78.2012H33.6353V77.2201C33.6353 77.1828 33.6353 77.151 33.6353 77.1244C33.6359 77.0973 33.6365 77.0727 33.6372 77.0506C33.6384 77.0278 33.64 77.0048 33.6419 76.9814C33.6223 77.0016 33.604 77.019 33.587 77.0335C33.5699 77.0474 33.5488 77.0648 33.5235 77.0856L33.3654 77.2125L33.283 77.1055L33.658 76.8167H33.7887V78.2012Z" fill="#626262"/>
<path d="M29.3846 80.5663C29.3846 80.6299 29.3798 80.6931 29.3702 80.7557C29.3611 80.8183 29.3449 80.8774 29.3217 80.933C29.2985 80.988 29.2659 81.037 29.224 81.08C29.182 81.1224 29.1288 81.1557 29.0641 81.18C28.9995 81.2042 28.9212 81.2163 28.8293 81.2163C28.8075 81.2163 28.782 81.2153 28.7527 81.2133C28.7234 81.2118 28.6992 81.2093 28.68 81.2057V81.0178C28.7002 81.0229 28.7217 81.0269 28.7444 81.03C28.7671 81.0325 28.7901 81.0337 28.8133 81.0337C28.9058 81.0337 28.977 81.0191 29.027 80.9898C29.0775 80.9605 29.1129 80.9199 29.1331 80.8678C29.1538 80.8158 29.1656 80.7557 29.1687 80.6875H29.1596C29.1449 80.7118 29.1275 80.7337 29.1073 80.7534C29.0876 80.7726 29.0623 80.788 29.0315 80.7996C29.0007 80.8108 28.9616 80.8163 28.9141 80.8163C28.851 80.8163 28.7959 80.8027 28.749 80.7754C28.7025 80.7476 28.6664 80.7077 28.6406 80.6557C28.6154 80.6032 28.6027 80.5398 28.6027 80.4655C28.6027 80.3852 28.6179 80.3165 28.6482 80.2595C28.679 80.2019 28.7227 80.1577 28.7793 80.1269C28.8358 80.0961 28.9025 80.0807 28.9793 80.0807C29.0358 80.0807 29.0886 80.0905 29.1376 80.1102C29.1866 80.1294 29.2295 80.159 29.2664 80.1989C29.3038 80.2388 29.3328 80.2893 29.3535 80.3504C29.3742 80.4115 29.3846 80.4835 29.3846 80.5663ZM28.9838 80.2686C28.9384 80.2686 28.9012 80.2842 28.8724 80.3155C28.8437 80.3469 28.8293 80.3958 28.8293 80.4625C28.8293 80.5161 28.8416 80.5585 28.8664 80.5898C28.8911 80.6211 28.9288 80.6368 28.9793 80.6368C29.0141 80.6368 29.0444 80.6292 29.0702 80.614C29.0959 80.5984 29.1159 80.5789 29.13 80.5557C29.1447 80.532 29.152 80.5077 29.152 80.483C29.152 80.4572 29.1485 80.4317 29.1414 80.4065C29.1343 80.3812 29.1237 80.3582 29.1096 80.3375C29.0954 80.3168 29.0778 80.3001 29.0565 80.2875C29.0358 80.2749 29.0116 80.2686 28.9838 80.2686ZM30.271 80.6474C30.271 80.7368 30.2639 80.8166 30.2498 80.8868C30.2361 80.957 30.2139 81.0166 30.1831 81.0656C30.1528 81.1146 30.1129 81.1519 30.0634 81.1777C30.0139 81.2034 29.9538 81.2163 29.8831 81.2163C29.7942 81.2163 29.7212 81.1938 29.6641 81.1489C29.6071 81.1034 29.5649 81.0383 29.5376 80.9534C29.5103 80.8681 29.4967 80.7661 29.4967 80.6474C29.4967 80.5277 29.5091 80.4254 29.5338 80.3405C29.5591 80.2552 29.6 80.1898 29.6566 80.1443C29.7131 80.0989 29.7886 80.0761 29.8831 80.0761C29.9715 80.0761 30.0442 80.0989 30.1013 80.1443C30.1588 80.1893 30.2015 80.2544 30.2293 80.3398C30.2571 80.4246 30.271 80.5272 30.271 80.6474ZM29.7293 80.6474C29.7293 80.7317 29.7338 80.8022 29.7429 80.8587C29.7525 80.9148 29.7684 80.957 29.7907 80.9853C29.8129 81.0135 29.8437 81.0277 29.8831 81.0277C29.922 81.0277 29.9525 81.0138 29.9747 80.986C29.9975 80.9577 30.0136 80.9156 30.0232 80.8595C30.0328 80.8029 30.0376 80.7322 30.0376 80.6474C30.0376 80.563 30.0328 80.4926 30.0232 80.436C30.0136 80.3794 29.9975 80.337 29.9747 80.3087C29.9525 80.2799 29.922 80.2655 29.8831 80.2655C29.8437 80.2655 29.8129 80.2799 29.7907 80.3087C29.7684 80.337 29.7525 80.3794 29.7429 80.436C29.7338 80.4926 29.7293 80.563 29.7293 80.6474ZM30.6376 80.0777C30.7245 80.0777 30.7904 80.108 30.8354 80.1686C30.8803 80.2292 30.9028 80.3143 30.9028 80.4239C30.9028 80.5335 30.8816 80.6191 30.8392 80.6807C30.7967 80.7423 30.7296 80.7731 30.6376 80.7731C30.5523 80.7731 30.4874 80.7423 30.4429 80.6807C30.3985 80.6191 30.3763 80.5335 30.3763 80.4239C30.3763 80.3143 30.397 80.2292 30.4384 80.1686C30.4803 80.108 30.5467 80.0777 30.6376 80.0777ZM30.6392 80.236C30.6144 80.236 30.5962 80.2516 30.5846 80.283C30.573 80.3143 30.5672 80.3618 30.5672 80.4254C30.5672 80.489 30.573 80.5368 30.5846 80.5686C30.5962 80.6004 30.6144 80.6163 30.6392 80.6163C30.6639 80.6163 30.6821 80.6006 30.6937 80.5693C30.7058 80.5375 30.7119 80.4895 30.7119 80.4254C30.7119 80.3618 30.7058 80.3143 30.6937 80.283C30.6821 80.2516 30.6639 80.236 30.6392 80.236ZM31.424 80.0936L30.8096 81.2012H30.6278L31.2422 80.0936H31.424ZM31.4134 80.5201C31.5003 80.5201 31.5662 80.5504 31.6112 80.611C31.6561 80.6716 31.6786 80.7567 31.6786 80.8663C31.6786 80.9754 31.6574 81.0608 31.6149 81.1224C31.5725 81.184 31.5053 81.2148 31.4134 81.2148C31.3281 81.2148 31.2632 81.184 31.2187 81.1224C31.1743 81.0608 31.1521 80.9754 31.1521 80.8663C31.1521 80.7567 31.1728 80.6716 31.2142 80.611C31.2561 80.5504 31.3225 80.5201 31.4134 80.5201ZM31.4149 80.6784C31.3902 80.6784 31.372 80.6941 31.3604 80.7254C31.3488 80.7567 31.343 80.8042 31.343 80.8678C31.343 80.9315 31.3488 80.9792 31.3604 81.011C31.372 81.0428 31.3902 81.0587 31.4149 81.0587C31.4397 81.0587 31.4579 81.0431 31.4695 81.0118C31.4816 80.98 31.4877 80.932 31.4877 80.8678C31.4877 80.8042 31.4816 80.7567 31.4695 80.7254C31.4579 80.6941 31.4397 80.6784 31.4149 80.6784Z" fill="#FF8A01"/>
<circle cx="26.1938" cy="77.4984" r="0.775781" fill="#FC90FF"/>
<path d="M40.1396 78.2012H39.1784V78.08L39.9236 76.9606H39.2039V76.8167H40.1197V76.9379L39.3734 78.0572H40.1396V78.2012ZM41.275 77.6803C41.275 77.7656 41.264 77.8416 41.2419 77.9085C41.2198 77.9755 41.1879 78.032 41.1462 78.0781C41.1046 78.1241 41.054 78.1595 40.9947 78.1841C40.936 78.2081 40.8694 78.2201 40.7949 78.2201C40.7254 78.2201 40.6617 78.2081 40.6036 78.1841C40.5461 78.1595 40.4963 78.1241 40.454 78.0781C40.4123 78.032 40.3798 77.9755 40.3564 77.9085C40.3337 77.8416 40.3223 77.7656 40.3223 77.6803C40.3223 77.5667 40.3416 77.4701 40.3801 77.3905C40.4186 77.3104 40.4735 77.2494 40.5449 77.2078C40.6168 77.1655 40.7024 77.1443 40.8015 77.1443C40.8962 77.1443 40.9789 77.1655 41.0496 77.2078C41.121 77.2501 41.1762 77.3113 41.2154 77.3915C41.2551 77.471 41.275 77.5673 41.275 77.6803ZM40.4852 77.6803C40.4852 77.7637 40.4963 77.8359 40.5184 77.8972C40.5405 77.9584 40.5745 78.0058 40.6206 78.0392C40.6667 78.0727 40.7261 78.0894 40.7987 78.0894C40.8706 78.0894 40.9297 78.0727 40.9758 78.0392C41.0225 78.0058 41.0569 77.9584 41.079 77.8972C41.1011 77.8359 41.1121 77.7637 41.1121 77.6803C41.1121 77.5976 41.1011 77.5263 41.079 77.4663C41.0569 77.4057 41.0228 77.359 40.9767 77.3261C40.9306 77.2933 40.871 77.2769 40.7977 77.2769C40.6898 77.2769 40.6105 77.3126 40.56 77.3839C40.5102 77.4553 40.4852 77.5541 40.4852 77.6803ZM42.0383 77.1443C42.1614 77.1443 42.2545 77.1746 42.3177 77.2352C42.3808 77.2952 42.4124 77.3918 42.4124 77.525V78.2012H42.257V77.5354C42.257 77.4489 42.2372 77.3842 42.1974 77.3413C42.1582 77.2984 42.098 77.2769 42.0165 77.2769C41.9016 77.2769 41.8208 77.3094 41.7741 77.3744C41.7274 77.4395 41.704 77.5339 41.704 77.6576V78.2012H41.5468V77.1633H41.6737L41.6974 77.3129H41.7059C41.728 77.2763 41.7561 77.2457 41.7902 77.221C41.8243 77.1958 41.8625 77.1768 41.9048 77.1642C41.9471 77.151 41.9916 77.1443 42.0383 77.1443ZM43.1359 77.1443C43.2243 77.1443 43.3 77.1639 43.3631 77.203C43.4263 77.2422 43.4746 77.2971 43.508 77.3678C43.5415 77.4379 43.5582 77.52 43.5582 77.614V77.7116H42.8413C42.8432 77.8334 42.8735 77.9262 42.9323 77.99C42.991 78.0538 43.0737 78.0856 43.1804 78.0856C43.246 78.0856 43.3041 78.0796 43.3546 78.0676C43.4051 78.0556 43.4575 78.038 43.5118 78.0146V78.1529C43.4594 78.1762 43.4073 78.1933 43.3556 78.204C43.3044 78.2147 43.2438 78.2201 43.1737 78.2201C43.074 78.2201 42.9869 78.1999 42.9124 78.1595C42.8385 78.1185 42.7811 78.0585 42.74 77.9796C42.699 77.9007 42.6785 77.8041 42.6785 77.6898C42.6785 77.578 42.6971 77.4815 42.7343 77.4C42.7722 77.3179 42.8252 77.2548 42.8934 77.2106C42.9622 77.1664 43.0431 77.1443 43.1359 77.1443ZM43.134 77.2731C43.05 77.2731 42.9831 77.3006 42.9332 77.3555C42.8833 77.4104 42.8537 77.4871 42.8442 77.5856H43.3934C43.3928 77.5238 43.383 77.4695 43.3641 77.4227C43.3458 77.3754 43.3177 77.3388 43.2798 77.3129C43.2419 77.2864 43.1933 77.2731 43.134 77.2731ZM44.6624 78.2012H43.7552V78.0695L44.1255 77.6936C44.1943 77.6241 44.2521 77.5623 44.2988 77.508C44.3461 77.4537 44.3821 77.4003 44.4067 77.3479C44.4314 77.2949 44.4437 77.2368 44.4437 77.1737C44.4437 77.0954 44.4203 77.0357 44.3736 76.9947C44.3275 76.953 44.2666 76.9322 44.1908 76.9322C44.1245 76.9322 44.0658 76.9436 44.0147 76.9663C43.9635 76.989 43.9111 77.0212 43.8575 77.0629L43.7732 76.9568C43.8098 76.9259 43.8496 76.8984 43.8925 76.8744C43.9361 76.8504 43.9825 76.8315 44.0317 76.8176C44.0816 76.8037 44.1346 76.7968 44.1908 76.7968C44.2761 76.7968 44.3496 76.8116 44.4115 76.8413C44.4733 76.871 44.521 76.9133 44.5545 76.9682C44.5886 77.0231 44.6056 77.0884 44.6056 77.1642C44.6056 77.2374 44.5911 77.3056 44.562 77.3688C44.533 77.4313 44.4923 77.4934 44.4399 77.5553C44.3875 77.6166 44.3262 77.6816 44.2562 77.7504L43.955 78.0506V78.0572H44.6624V78.2012Z" fill="#626262"/>
<path d="M39.9659 80.9716H39.8325V81.2012H39.6037V80.9716H39.131V80.8087L39.6166 80.0936H39.8325V80.7898H39.9659V80.9716ZM39.6037 80.7898V80.6019C39.6037 80.5842 39.604 80.5633 39.6045 80.539C39.6055 80.5148 39.6065 80.4905 39.6075 80.4663C39.6085 80.4421 39.6096 80.4206 39.6106 80.4019C39.6121 80.3827 39.6131 80.3693 39.6136 80.3618H39.6075C39.5979 80.3825 39.5878 80.4027 39.5772 80.4224C39.5666 80.4416 39.5543 80.4618 39.5401 80.483L39.3371 80.7898H39.6037ZM40.8227 80.6474C40.8227 80.7368 40.8157 80.8166 40.8015 80.8868C40.7879 80.957 40.7657 81.0166 40.7348 81.0656C40.7045 81.1146 40.6646 81.1519 40.6151 81.1777C40.5656 81.2034 40.5055 81.2163 40.4348 81.2163C40.3459 81.2163 40.273 81.1938 40.2159 81.1489C40.1588 81.1034 40.1166 81.0383 40.0894 80.9534C40.0621 80.8681 40.0485 80.7661 40.0485 80.6474C40.0485 80.5277 40.0608 80.4254 40.0856 80.3405C40.1108 80.2552 40.1517 80.1898 40.2083 80.1443C40.2649 80.0989 40.3404 80.0761 40.4348 80.0761C40.5232 80.0761 40.596 80.0989 40.653 80.1443C40.7106 80.1893 40.7533 80.2544 40.7811 80.3398C40.8088 80.4246 40.8227 80.5272 40.8227 80.6474ZM40.281 80.6474C40.281 80.7317 40.2856 80.8022 40.2947 80.8587C40.3043 80.9148 40.3202 80.957 40.3424 80.9853C40.3646 81.0135 40.3954 81.0277 40.4348 81.0277C40.4737 81.0277 40.5043 81.0138 40.5265 80.986C40.5492 80.9577 40.5654 80.9156 40.575 80.8595C40.5846 80.8029 40.5894 80.7322 40.5894 80.6474C40.5894 80.563 40.5846 80.4926 40.575 80.436C40.5654 80.3794 40.5492 80.337 40.5265 80.3087C40.5043 80.2799 40.4737 80.2655 40.4348 80.2655C40.3954 80.2655 40.3646 80.2799 40.3424 80.3087C40.3202 80.337 40.3043 80.3794 40.2947 80.436C40.2856 80.4926 40.281 80.563 40.281 80.6474ZM41.1894 80.0777C41.2763 80.0777 41.3422 80.108 41.3871 80.1686C41.4321 80.2292 41.4546 80.3143 41.4546 80.4239C41.4546 80.5335 41.4334 80.6191 41.3909 80.6807C41.3485 80.7423 41.2813 80.7731 41.1894 80.7731C41.104 80.7731 41.0391 80.7423 40.9947 80.6807C40.9503 80.6191 40.928 80.5335 40.928 80.4239C40.928 80.3143 40.9487 80.2292 40.9902 80.1686C41.0321 80.108 41.0985 80.0777 41.1894 80.0777ZM41.1909 80.236C41.1662 80.236 41.148 80.2516 41.1364 80.283C41.1248 80.3143 41.1189 80.3618 41.1189 80.4254C41.1189 80.489 41.1248 80.5368 41.1364 80.5686C41.148 80.6004 41.1662 80.6163 41.1909 80.6163C41.2157 80.6163 41.2338 80.6006 41.2455 80.5693C41.2576 80.5375 41.2636 80.4895 41.2636 80.4254C41.2636 80.3618 41.2576 80.3143 41.2455 80.283C41.2338 80.2516 41.2157 80.236 41.1909 80.236ZM41.9758 80.0936L41.3614 81.2012H41.1796L41.794 80.0936H41.9758ZM41.9652 80.5201C42.0521 80.5201 42.118 80.5504 42.1629 80.611C42.2079 80.6716 42.2303 80.7567 42.2303 80.8663C42.2303 80.9754 42.2091 81.0608 42.1667 81.1224C42.1243 81.184 42.0571 81.2148 41.9652 81.2148C41.8798 81.2148 41.8149 81.184 41.7705 81.1224C41.726 81.0608 41.7038 80.9754 41.7038 80.8663C41.7038 80.7567 41.7245 80.6716 41.7659 80.611C41.8079 80.5504 41.8743 80.5201 41.9652 80.5201ZM41.9667 80.6784C41.942 80.6784 41.9238 80.6941 41.9122 80.7254C41.9005 80.7567 41.8947 80.8042 41.8947 80.8678C41.8947 80.9315 41.9005 80.9792 41.9122 81.011C41.9238 81.0428 41.942 81.0587 41.9667 81.0587C41.9914 81.0587 42.0096 81.0431 42.0212 81.0118C42.0334 80.98 42.0394 80.932 42.0394 80.8678C42.0394 80.8042 42.0334 80.7567 42.0212 80.7254C42.0096 80.6941 41.9914 80.6784 41.9667 80.6784Z" fill="#FF8A01"/>
<circle cx="36.926" cy="77.5872" r="0.792233" fill="#65B2FF"/>
<path d="M51.0497 78.2012H50.0885V78.08L50.8338 76.9606H50.1141V76.8167H51.0298V76.9379L50.2836 78.0572H51.0497V78.2012ZM52.1852 77.6803C52.1852 77.7656 52.1741 77.8416 52.152 77.9085C52.1299 77.9755 52.098 78.032 52.0564 78.0781C52.0147 78.1241 51.9642 78.1595 51.9049 78.1841C51.8461 78.2081 51.7795 78.2201 51.705 78.2201C51.6356 78.2201 51.5718 78.2081 51.5137 78.1841C51.4563 78.1595 51.4064 78.1241 51.3641 78.0781C51.3225 78.032 51.2899 77.9755 51.2666 77.9085C51.2439 77.8416 51.2325 77.7656 51.2325 77.6803C51.2325 77.5667 51.2517 77.4701 51.2903 77.3905C51.3288 77.3104 51.3837 77.2494 51.455 77.2078C51.527 77.1655 51.6126 77.1443 51.7117 77.1443C51.8064 77.1443 51.8891 77.1655 51.9598 77.2078C52.0311 77.2501 52.0864 77.3113 52.1255 77.3915C52.1653 77.471 52.1852 77.5673 52.1852 77.6803ZM51.3954 77.6803C51.3954 77.7637 51.4064 77.8359 51.4285 77.8972C51.4506 77.9584 51.4847 78.0058 51.5308 78.0392C51.5769 78.0727 51.6362 78.0894 51.7088 78.0894C51.7808 78.0894 51.8398 78.0727 51.8859 78.0392C51.9326 78.0058 51.967 77.9584 51.9891 77.8972C52.0112 77.8359 52.0223 77.7637 52.0223 77.6803C52.0223 77.5976 52.0112 77.5263 51.9891 77.4663C51.967 77.4057 51.933 77.359 51.8869 77.3261C51.8408 77.2933 51.7811 77.2769 51.7079 77.2769C51.5999 77.2769 51.5207 77.3126 51.4702 77.3839C51.4203 77.4553 51.3954 77.5541 51.3954 77.6803ZM52.9484 77.1443C53.0716 77.1443 53.1647 77.1746 53.2278 77.2352C53.2909 77.2952 53.3225 77.3918 53.3225 77.525V78.2012H53.1672V77.5354C53.1672 77.4489 53.1473 77.3842 53.1075 77.3413C53.0684 77.2984 53.0081 77.2769 52.9267 77.2769C52.8118 77.2769 52.731 77.3094 52.6842 77.3744C52.6375 77.4395 52.6142 77.5339 52.6142 77.6576V78.2012H52.457V77.1633H52.5839L52.6075 77.3129H52.6161C52.6381 77.2763 52.6662 77.2457 52.7003 77.221C52.7344 77.1958 52.7726 77.1768 52.8149 77.1642C52.8572 77.151 52.9017 77.1443 52.9484 77.1443ZM54.046 77.1443C54.1344 77.1443 54.2102 77.1639 54.2733 77.203C54.3364 77.2422 54.3847 77.2971 54.4182 77.3678C54.4517 77.4379 54.4684 77.52 54.4684 77.614V77.7116H53.7515C53.7534 77.8334 53.7837 77.9262 53.8424 77.99C53.9011 78.0538 53.9838 78.0856 54.0905 78.0856C54.1562 78.0856 54.2143 78.0796 54.2648 78.0676C54.3153 78.0556 54.3677 78.038 54.422 78.0146V78.1529C54.3696 78.1762 54.3175 78.1933 54.2657 78.204C54.2146 78.2147 54.154 78.2201 54.0839 78.2201C53.9842 78.2201 53.897 78.1999 53.8225 78.1595C53.7487 78.1185 53.6912 78.0585 53.6502 77.9796C53.6091 77.9007 53.5886 77.8041 53.5886 77.6898C53.5886 77.578 53.6072 77.4815 53.6445 77.4C53.6824 77.3179 53.7354 77.2548 53.8036 77.2106C53.8724 77.1664 53.9532 77.1443 54.046 77.1443ZM54.0441 77.2731C53.9602 77.2731 53.8932 77.3006 53.8434 77.3555C53.7935 77.4104 53.7638 77.4871 53.7543 77.5856H54.3036C54.303 77.5238 54.2932 77.4695 54.2742 77.4227C54.2559 77.3754 54.2278 77.3388 54.19 77.3129C54.1521 77.2864 54.1035 77.2731 54.0441 77.2731ZM55.5214 77.1396C55.5214 77.2015 55.5094 77.2551 55.4855 77.3006C55.4615 77.346 55.428 77.3833 55.3851 77.4123C55.3421 77.4407 55.2916 77.4606 55.2336 77.472V77.4796C55.3434 77.4934 55.4258 77.5288 55.4807 77.5856C55.5363 77.6424 55.5641 77.7169 55.5641 77.8091C55.5641 77.8893 55.5451 77.9603 55.5072 78.0222C55.47 78.0841 55.4125 78.1327 55.3349 78.168C55.2579 78.2028 55.1591 78.2201 55.0385 78.2201C54.9652 78.2201 54.8974 78.2141 54.8349 78.2021C54.773 78.1908 54.7137 78.1715 54.6568 78.1444V77.9966C54.7143 78.025 54.7768 78.0474 54.8443 78.0639C54.9119 78.0796 54.9772 78.0875 55.0404 78.0875C55.1666 78.0875 55.2579 78.0626 55.3141 78.0127C55.3702 77.9622 55.3983 77.8934 55.3983 77.8063C55.3983 77.7463 55.3826 77.698 55.351 77.6614C55.32 77.6241 55.2752 77.597 55.2165 77.5799C55.1584 77.5623 55.0884 77.5534 55.0063 77.5534H54.868V77.419H55.0072C55.0824 77.419 55.1461 77.4079 55.1985 77.3858C55.2509 77.3637 55.2907 77.3328 55.3178 77.293C55.3456 77.2526 55.3595 77.2049 55.3595 77.15C55.3595 77.0799 55.3361 77.0259 55.2894 76.9881C55.2427 76.9496 55.1793 76.9303 55.0991 76.9303C55.0498 76.9303 55.005 76.9354 54.9646 76.9455C54.9242 76.9556 54.8863 76.9694 54.851 76.9871C54.8156 77.0048 54.7803 77.0253 54.7449 77.0487L54.6654 76.9407C54.7159 76.9016 54.7774 76.8678 54.85 76.8394C54.9226 76.811 55.005 76.7968 55.0972 76.7968C55.2386 76.7968 55.3447 76.829 55.4154 76.8934C55.4861 76.9578 55.5214 77.0398 55.5214 77.1396Z" fill="#626262"/>
<path d="M50.8079 80.3413C50.8079 80.3923 50.7972 80.4365 50.776 80.4739C50.7548 80.5113 50.726 80.5418 50.6897 80.5655C50.6538 80.5893 50.6134 80.6067 50.5685 80.6178V80.6224C50.6573 80.6335 50.7248 80.6608 50.7707 80.7042C50.8172 80.7476 50.8404 80.8057 50.8404 80.8784C50.8404 80.9431 50.8245 81.0009 50.7927 81.0519C50.7614 81.1029 50.7129 81.1431 50.6472 81.1724C50.5816 81.2017 50.497 81.2163 50.3934 81.2163C50.3323 81.2163 50.2753 81.2113 50.2222 81.2012C50.1697 81.1916 50.1202 81.1767 50.0737 81.1565V80.9572C50.1212 80.9815 50.171 80.9999 50.223 81.0125C50.275 81.0247 50.3235 81.0307 50.3684 81.0307C50.4523 81.0307 50.5109 81.0163 50.5442 80.9875C50.578 80.9582 50.595 80.9173 50.595 80.8648C50.595 80.834 50.5871 80.808 50.5715 80.7868C50.5558 80.7656 50.5286 80.7494 50.4897 80.7383C50.4513 80.7272 50.3975 80.7216 50.3283 80.7216H50.2442V80.5421H50.3298C50.398 80.5421 50.4498 80.5357 50.4851 80.5231C50.521 80.51 50.5452 80.4923 50.5578 80.4701C50.571 80.4474 50.5775 80.4216 50.5775 80.3928C50.5775 80.3534 50.5654 80.3226 50.5412 80.3004C50.5169 80.2782 50.4765 80.2671 50.42 80.2671C50.3846 80.2671 50.3523 80.2716 50.323 80.2807C50.2942 80.2893 50.2682 80.2999 50.245 80.3125C50.2217 80.3246 50.2013 80.3365 50.1836 80.3481L50.0753 80.1867C50.1187 80.1554 50.1695 80.1294 50.2275 80.1087C50.2861 80.088 50.3558 80.0777 50.4366 80.0777C50.5508 80.0777 50.6412 80.1006 50.7079 80.1466C50.7745 80.1926 50.8079 80.2575 50.8079 80.3413ZM51.7329 80.6474C51.7329 80.7368 51.7258 80.8166 51.7117 80.8868C51.698 80.957 51.6758 81.0166 51.645 81.0656C51.6147 81.1146 51.5748 81.1519 51.5253 81.1777C51.4758 81.2034 51.4157 81.2163 51.345 81.2163C51.2561 81.2163 51.1831 81.1938 51.126 81.1489C51.069 81.1034 51.0268 81.0383 50.9995 80.9534C50.9723 80.8681 50.9586 80.7661 50.9586 80.6474C50.9586 80.5277 50.971 80.4254 50.9957 80.3405C51.021 80.2552 51.0619 80.1898 51.1185 80.1443C51.175 80.0989 51.2505 80.0761 51.345 80.0761C51.4334 80.0761 51.5061 80.0989 51.5632 80.1443C51.6208 80.1893 51.6634 80.2544 51.6912 80.3398C51.719 80.4246 51.7329 80.5272 51.7329 80.6474ZM51.1912 80.6474C51.1912 80.7317 51.1957 80.8022 51.2048 80.8587C51.2144 80.9148 51.2303 80.957 51.2526 80.9853C51.2748 81.0135 51.3056 81.0277 51.345 81.0277C51.3839 81.0277 51.4144 81.0138 51.4367 80.986C51.4594 80.9577 51.4756 80.9156 51.4851 80.8595C51.4947 80.8029 51.4995 80.7322 51.4995 80.6474C51.4995 80.563 51.4947 80.4926 51.4851 80.436C51.4756 80.3794 51.4594 80.337 51.4367 80.3087C51.4144 80.2799 51.3839 80.2655 51.345 80.2655C51.3056 80.2655 51.2748 80.2799 51.2526 80.3087C51.2303 80.337 51.2144 80.3794 51.2048 80.436C51.1957 80.4926 51.1912 80.563 51.1912 80.6474ZM52.0996 80.0777C52.1864 80.0777 52.2523 80.108 52.2973 80.1686C52.3422 80.2292 52.3647 80.3143 52.3647 80.4239C52.3647 80.5335 52.3435 80.6191 52.3011 80.6807C52.2587 80.7423 52.1915 80.7731 52.0996 80.7731C52.0142 80.7731 51.9493 80.7423 51.9049 80.6807C51.8604 80.6191 51.8382 80.5335 51.8382 80.4239C51.8382 80.3143 51.8589 80.2292 51.9003 80.1686C51.9422 80.108 52.0086 80.0777 52.0996 80.0777ZM52.1011 80.236C52.0763 80.236 52.0581 80.2516 52.0465 80.283C52.0349 80.3143 52.0291 80.3618 52.0291 80.4254C52.0291 80.489 52.0349 80.5368 52.0465 80.5686C52.0581 80.6004 52.0763 80.6163 52.1011 80.6163C52.1258 80.6163 52.144 80.6006 52.1556 80.5693C52.1677 80.5375 52.1738 80.4895 52.1738 80.4254C52.1738 80.3618 52.1677 80.3143 52.1556 80.283C52.144 80.2516 52.1258 80.236 52.1011 80.236ZM52.8859 80.0936L52.2715 81.2012H52.0897L52.7041 80.0936H52.8859ZM52.8753 80.5201C52.9622 80.5201 53.0281 80.5504 53.0731 80.611C53.118 80.6716 53.1405 80.7567 53.1405 80.8663C53.1405 80.9754 53.1193 81.0608 53.0769 81.1224C53.0344 81.184 52.9673 81.2148 52.8753 81.2148C52.79 81.2148 52.7251 81.184 52.6806 81.1224C52.6362 81.0608 52.614 80.9754 52.614 80.8663C52.614 80.7567 52.6347 80.6716 52.6761 80.611C52.718 80.5504 52.7844 80.5201 52.8753 80.5201ZM52.8769 80.6784C52.8521 80.6784 52.8339 80.6941 52.8223 80.7254C52.8107 80.7567 52.8049 80.8042 52.8049 80.8678C52.8049 80.9315 52.8107 80.9792 52.8223 81.011C52.8339 81.0428 52.8521 81.0587 52.8769 81.0587C52.9016 81.0587 52.9198 81.0431 52.9314 81.0118C52.9435 80.98 52.9496 80.932 52.9496 80.8678C52.9496 80.8042 52.9435 80.7567 52.9314 80.7254C52.9198 80.6941 52.9016 80.6784 52.8769 80.6784Z" fill="#FF8A01"/>
<circle cx="47.8362" cy="77.5872" r="0.792233" fill="#A079FF"/>
<path d="M61.9609 78.2012H60.9996V78.08L61.7449 76.9606H61.0252V76.8167H61.941V76.9379L61.1947 78.0572H61.9609V78.2012ZM63.0963 77.6803C63.0963 77.7656 63.0853 77.8416 63.0632 77.9085C63.0411 77.9755 63.0092 78.032 62.9675 78.0781C62.9258 78.1241 62.8753 78.1595 62.816 78.1841C62.7573 78.2081 62.6907 78.2201 62.6162 78.2201C62.5467 78.2201 62.483 78.2081 62.4249 78.1841C62.3674 78.1595 62.3176 78.1241 62.2753 78.0781C62.2336 78.032 62.2011 77.9755 62.1777 77.9085C62.155 77.8416 62.1436 77.7656 62.1436 77.6803C62.1436 77.5667 62.1629 77.4701 62.2014 77.3905C62.2399 77.3104 62.2948 77.2494 62.3662 77.2078C62.4381 77.1655 62.5237 77.1443 62.6228 77.1443C62.7175 77.1443 62.8002 77.1655 62.8709 77.2078C62.9423 77.2501 62.9975 77.3113 63.0366 77.3915C63.0764 77.471 63.0963 77.5673 63.0963 77.6803ZM62.3065 77.6803C62.3065 77.7637 62.3176 77.8359 62.3396 77.8972C62.3617 77.9584 62.3958 78.0058 62.4419 78.0392C62.488 78.0727 62.5474 78.0894 62.62 78.0894C62.6919 78.0894 62.751 78.0727 62.7971 78.0392C62.8438 78.0058 62.8782 77.9584 62.9003 77.8972C62.9224 77.8359 62.9334 77.7637 62.9334 77.6803C62.9334 77.5976 62.9224 77.5263 62.9003 77.4663C62.8782 77.4057 62.8441 77.359 62.798 77.3261C62.7519 77.2933 62.6922 77.2769 62.619 77.2769C62.5111 77.2769 62.4318 77.3126 62.3813 77.3839C62.3314 77.4553 62.3065 77.5541 62.3065 77.6803ZM63.8596 77.1443C63.9827 77.1443 64.0758 77.1746 64.1389 77.2352C64.2021 77.2952 64.2336 77.3918 64.2336 77.525V78.2012H64.0783V77.5354C64.0783 77.4489 64.0585 77.3842 64.0187 77.3413C63.9795 77.2984 63.9192 77.2769 63.8378 77.2769C63.7229 77.2769 63.6421 77.3094 63.5954 77.3744C63.5487 77.4395 63.5253 77.5339 63.5253 77.6576V78.2012H63.3681V77.1633H63.495L63.5187 77.3129H63.5272C63.5493 77.2763 63.5774 77.2457 63.6115 77.221C63.6456 77.1958 63.6838 77.1768 63.7261 77.1642C63.7684 77.151 63.8129 77.1443 63.8596 77.1443ZM64.9572 77.1443C65.0455 77.1443 65.1213 77.1639 65.1844 77.203C65.2476 77.2422 65.2959 77.2971 65.3293 77.3678C65.3628 77.4379 65.3795 77.52 65.3795 77.614V77.7116H64.6626C64.6645 77.8334 64.6948 77.9262 64.7535 77.99C64.8123 78.0538 64.895 78.0856 65.0017 78.0856C65.0673 78.0856 65.1254 78.0796 65.1759 78.0676C65.2264 78.0556 65.2788 78.038 65.3331 78.0146V78.1529C65.2807 78.1762 65.2286 78.1933 65.1769 78.204C65.1257 78.2147 65.0651 78.2201 64.995 78.2201C64.8953 78.2201 64.8082 78.1999 64.7337 78.1595C64.6598 78.1185 64.6023 78.0585 64.5613 77.9796C64.5203 77.9007 64.4998 77.8041 64.4998 77.6898C64.4998 77.578 64.5184 77.4815 64.5556 77.4C64.5935 77.3179 64.6465 77.2548 64.7147 77.2106C64.7835 77.1664 64.8643 77.1443 64.9572 77.1443ZM64.9553 77.2731C64.8713 77.2731 64.8044 77.3006 64.7545 77.3555C64.7046 77.4104 64.6749 77.4871 64.6655 77.5856H65.2147C65.2141 77.5238 65.2043 77.4695 65.1854 77.4227C65.1671 77.3754 65.139 77.3388 65.1011 77.3129C65.0632 77.2864 65.0146 77.2731 64.9553 77.2731ZM66.5528 77.8801H66.3455V78.2012H66.192V77.8801H65.5225V77.7476L66.1816 76.8091H66.3455V77.7381H66.5528V77.8801ZM66.192 77.7381V77.2854C66.192 77.2507 66.1924 77.2195 66.193 77.1917C66.1936 77.1633 66.1946 77.1371 66.1958 77.1131C66.1971 77.0884 66.198 77.0651 66.1987 77.043C66.1999 77.0209 66.2009 76.9991 66.2015 76.9776H66.1939C66.1819 77.0029 66.168 77.0297 66.1523 77.0581C66.1371 77.0859 66.1216 77.1109 66.1059 77.133L65.6788 77.7381H66.192Z" fill="#626262"/>
<path d="M61.3909 80.4936C61.4586 80.4936 61.5187 80.5065 61.5713 80.5322C61.6243 80.558 61.666 80.5959 61.6963 80.6459C61.7266 80.6959 61.7417 80.7575 61.7417 80.8307C61.7417 80.9105 61.725 80.9794 61.6917 81.0375C61.6589 81.0951 61.6096 81.1393 61.544 81.1701C61.4788 81.2009 61.3975 81.2163 61.3 81.2163C61.242 81.2163 61.1872 81.2113 61.1356 81.2012C61.0846 81.1916 61.0399 81.1767 61.0015 81.1565V80.9542C61.0399 80.9744 61.0859 80.9916 61.1394 81.0057C61.1935 81.0193 61.2442 81.0262 61.2917 81.0262C61.3382 81.0262 61.3773 81.0201 61.4091 81.008C61.4409 80.9954 61.4649 80.9762 61.4811 80.9504C61.4978 80.9241 61.5061 80.8908 61.5061 80.8504C61.5061 80.7964 61.4879 80.7549 61.4516 80.7262C61.4152 80.6974 61.3594 80.683 61.2841 80.683C61.2553 80.683 61.2253 80.6858 61.194 80.6913C61.1632 80.6969 61.1374 80.7024 61.1167 80.708L61.0235 80.658L61.0652 80.0936H61.666V80.2921H61.2705L61.25 80.5095C61.2672 80.5059 61.2859 80.5024 61.3061 80.4989C61.3263 80.4953 61.3546 80.4936 61.3909 80.4936ZM62.644 80.6474C62.644 80.7368 62.6369 80.8166 62.6228 80.8868C62.6092 80.957 62.5869 81.0166 62.5561 81.0656C62.5258 81.1146 62.4859 81.1519 62.4364 81.1777C62.3869 81.2034 62.3268 81.2163 62.2561 81.2163C62.1672 81.2163 62.0943 81.1938 62.0372 81.1489C61.9801 81.1034 61.9379 81.0383 61.9107 80.9534C61.8834 80.8681 61.8697 80.7661 61.8697 80.6474C61.8697 80.5277 61.8821 80.4254 61.9069 80.3405C61.9321 80.2552 61.973 80.1898 62.0296 80.1443C62.0862 80.0989 62.1617 80.0761 62.2561 80.0761C62.3445 80.0761 62.4172 80.0989 62.4743 80.1443C62.5319 80.1893 62.5746 80.2544 62.6023 80.3398C62.6301 80.4246 62.644 80.5272 62.644 80.6474ZM62.1023 80.6474C62.1023 80.7317 62.1069 80.8022 62.116 80.8587C62.1256 80.9148 62.1415 80.957 62.1637 80.9853C62.1859 81.0135 62.2167 81.0277 62.2561 81.0277C62.295 81.0277 62.3256 81.0138 62.3478 80.986C62.3705 80.9577 62.3867 80.9156 62.3963 80.8595C62.4059 80.8029 62.4107 80.7322 62.4107 80.6474C62.4107 80.563 62.4059 80.4926 62.3963 80.436C62.3867 80.3794 62.3705 80.337 62.3478 80.3087C62.3256 80.2799 62.295 80.2655 62.2561 80.2655C62.2167 80.2655 62.1859 80.2799 62.1637 80.3087C62.1415 80.337 62.1256 80.3794 62.116 80.436C62.1069 80.4926 62.1023 80.563 62.1023 80.6474ZM63.0107 80.0777C63.0976 80.0777 63.1635 80.108 63.2084 80.1686C63.2534 80.2292 63.2759 80.3143 63.2759 80.4239C63.2759 80.5335 63.2546 80.6191 63.2122 80.6807C63.1698 80.7423 63.1026 80.7731 63.0107 80.7731C62.9253 80.7731 62.8604 80.7423 62.816 80.6807C62.7715 80.6191 62.7493 80.5335 62.7493 80.4239C62.7493 80.3143 62.77 80.2292 62.8114 80.1686C62.8534 80.108 62.9198 80.0777 63.0107 80.0777ZM63.0122 80.236C62.9875 80.236 62.9693 80.2516 62.9577 80.283C62.946 80.3143 62.9402 80.3618 62.9402 80.4254C62.9402 80.489 62.946 80.5368 62.9577 80.5686C62.9693 80.6004 62.9875 80.6163 63.0122 80.6163C63.037 80.6163 63.0551 80.6006 63.0668 80.5693C63.0789 80.5375 63.0849 80.4895 63.0849 80.4254C63.0849 80.3618 63.0789 80.3143 63.0668 80.283C63.0551 80.2516 63.037 80.236 63.0122 80.236ZM63.7971 80.0936L63.1827 81.2012H63.0008L63.6153 80.0936H63.7971ZM63.7865 80.5201C63.8733 80.5201 63.9393 80.5504 63.9842 80.611C64.0292 80.6716 64.0516 80.7567 64.0516 80.8663C64.0516 80.9754 64.0304 81.0608 63.988 81.1224C63.9456 81.184 63.8784 81.2148 63.7865 81.2148C63.7011 81.2148 63.6362 81.184 63.5918 81.1224C63.5473 81.0608 63.5251 80.9754 63.5251 80.8663C63.5251 80.7567 63.5458 80.6716 63.5872 80.611C63.6291 80.5504 63.6956 80.5201 63.7865 80.5201ZM63.788 80.6784C63.7632 80.6784 63.7451 80.6941 63.7334 80.7254C63.7218 80.7567 63.716 80.8042 63.716 80.8678C63.716 80.9315 63.7218 80.9792 63.7334 81.011C63.7451 81.0428 63.7632 81.0587 63.788 81.0587C63.8127 81.0587 63.8309 81.0431 63.8425 81.0118C63.8547 80.98 63.8607 80.932 63.8607 80.8678C63.8607 80.8042 63.8547 80.7567 63.8425 80.7254C63.8309 80.6941 63.8127 80.6784 63.788 80.6784Z" fill="#FF8A01"/>
<circle cx="58.7473" cy="77.5872" r="0.792233" fill="#FFE501"/>
<defs>
<clipPath id="clip0_7626_143576">
<rect width="70" height="63.3134" fill="white" transform="translate(11 11)"/>
</clipPath>
</defs>
</svg>
