<svg width="18" height="18" viewBox="0 0 18 18" fill="none" xmlns="http://www.w3.org/2000/svg">
<path d="M8.93625 6.92641V7.26953C8.93407 7.30205 8.9255 7.33382 8.91103 7.36301C8.89655 7.39221 8.87646 7.41827 8.85191 7.43969C8.82735 7.46111 8.79881 7.47748 8.76791 7.48786C8.73702 7.49823 8.70439 7.50241 8.67187 7.50016H8.58188C8.54952 7.50237 8.51705 7.49814 8.48634 7.48772C8.45563 7.47729 8.42729 7.46088 8.40296 7.43943C8.37864 7.41799 8.35881 7.39193 8.34462 7.36276C8.33043 7.3336 8.32217 7.30191 8.32031 7.26953V6.92641C8.32451 6.86118 8.3544 6.80027 8.40343 6.75704C8.45246 6.7138 8.51663 6.69178 8.58188 6.69578H8.67187C8.73741 6.69176 8.8019 6.7137 8.85138 6.75686C8.90085 6.80002 8.93135 6.86093 8.93625 6.92641Z" fill="white" fill-opacity="0.8"/>
<path d="M5.80344 6.92641V7.26953C5.80126 7.30205 5.79269 7.33382 5.77822 7.36301C5.76374 7.39221 5.74365 7.41827 5.71909 7.43969C5.69454 7.46111 5.66599 7.47748 5.6351 7.48786C5.60421 7.49823 5.57157 7.50241 5.53906 7.50016H5.44906C5.41671 7.50237 5.38423 7.49814 5.35352 7.48772C5.32281 7.47729 5.29448 7.46088 5.27015 7.43943C5.24582 7.41799 5.22599 7.39193 5.21181 7.36276C5.19762 7.3336 5.18936 7.30191 5.1875 7.26953V6.92641C5.1917 6.86118 5.22158 6.80027 5.27061 6.75704C5.31965 6.7138 5.38382 6.69178 5.44906 6.69578H5.53906C5.6046 6.69176 5.66908 6.7137 5.71856 6.75686C5.76804 6.80002 5.79853 6.86093 5.80344 6.92641Z" fill="white" fill-opacity="0.8"/>
<path d="M5.65377 6.84647C5.62163 6.84646 5.59047 6.83544 5.56546 6.81525C5.48157 6.74775 5.37712 6.71095 5.26945 6.71095C5.16177 6.71095 5.05733 6.74775 4.97343 6.81525C4.94415 6.83658 4.90776 6.84579 4.87185 6.84095C4.83594 6.83612 4.80329 6.81761 4.78069 6.78928C4.7581 6.76096 4.74731 6.72501 4.75057 6.68892C4.75384 6.65284 4.7709 6.6194 4.79821 6.59559C4.93212 6.48821 5.09864 6.42969 5.27029 6.42969C5.44194 6.42969 5.60846 6.48821 5.74237 6.59559C5.76501 6.61388 5.78142 6.63874 5.78934 6.66675C5.79726 6.69476 5.79629 6.72453 5.78657 6.75197C5.77685 6.7794 5.75885 6.80314 5.73507 6.81992C5.71128 6.83669 5.68288 6.84567 5.65377 6.84562V6.84647Z" fill="white" fill-opacity="0.8"/>
<path d="M8.79652 6.84647C8.76435 6.8466 8.73314 6.83556 8.7082 6.81525C8.62431 6.74775 8.51986 6.71095 8.41219 6.71095C8.30451 6.71095 8.20007 6.74775 8.11617 6.81525C8.08694 6.83739 8.05022 6.84724 8.01384 6.8427C7.97745 6.83816 7.94427 6.81959 7.92139 6.79094C7.8985 6.76229 7.8877 6.72584 7.89131 6.68934C7.89491 6.65285 7.91262 6.61921 7.94067 6.59559C8.07458 6.48821 8.2411 6.42969 8.41275 6.42969C8.5844 6.42969 8.75092 6.48821 8.88483 6.59559C8.90745 6.61386 8.92386 6.6387 8.93178 6.66668C8.93971 6.69466 8.93876 6.72441 8.92908 6.75183C8.91939 6.77925 8.90144 6.803 8.8777 6.8198C8.85396 6.83659 8.8256 6.84562 8.79652 6.84562V6.84647Z" fill="white" fill-opacity="0.8"/>
<path d="M6.83949 8.66251C6.70828 8.66055 6.58259 8.60936 6.48736 8.51907C6.43435 8.47694 6.39432 8.42069 6.37187 8.3568C6.34943 8.29291 6.3455 8.22398 6.36052 8.15795C6.37223 8.12343 6.39688 8.09481 6.42929 8.07811C6.46169 8.06142 6.49931 8.05796 6.53421 8.06847C6.56912 8.07897 6.59858 8.10262 6.61639 8.13442C6.63419 8.16622 6.63896 8.2037 6.62967 8.23895C6.64565 8.28278 6.67651 8.31961 6.71686 8.34301C6.74526 8.36274 6.77807 8.37516 6.81241 8.37918C6.84675 8.3832 6.88155 8.3787 6.91374 8.36607C6.94842 8.35235 6.98714 8.35296 7.02137 8.36778C7.0556 8.38261 7.08254 8.41042 7.09627 8.4451C7.10999 8.47979 7.10938 8.51851 7.09456 8.55274C7.07973 8.58697 7.05192 8.61391 7.01724 8.62763C6.9607 8.65031 6.9004 8.66214 6.83949 8.66251Z" fill="white" fill-opacity="0.8"/>
<path d="M8.99039 6.15868C8.95922 6.15865 8.92895 6.14826 8.90433 6.12915C8.63197 6.03211 8.34167 5.99592 8.05383 6.02312C8.01653 6.02685 7.97928 6.01561 7.95027 5.99188C7.92126 5.96814 7.90287 5.93385 7.89914 5.89656C7.89541 5.85926 7.90665 5.82201 7.93038 5.793C7.95412 5.76399 7.98841 5.7456 8.0257 5.74187C8.28811 5.71515 8.88605 5.75762 9.07673 5.90556C9.0999 5.92354 9.11687 5.94831 9.12526 5.97641C9.13365 6.00452 9.13305 6.03454 9.12353 6.06228C9.11402 6.09002 9.09607 6.11409 9.07219 6.13112C9.04832 6.14816 9.01972 6.1573 8.99039 6.15728V6.15868Z" fill="white" fill-opacity="0.8"/>
<path d="M4.78869 6.30241C4.75747 6.30233 4.72717 6.29186 4.70255 6.27265C4.67794 6.25345 4.66042 6.2266 4.65275 6.19634C4.64508 6.16607 4.6477 6.13412 4.66019 6.10551C4.67268 6.0769 4.69434 6.05326 4.72175 6.03832C4.90212 5.94172 5.10158 5.88611 5.30591 5.87547C5.32437 5.87396 5.34296 5.8761 5.3606 5.88176C5.37824 5.88743 5.39459 5.89652 5.40872 5.90851C5.42285 5.92049 5.43448 5.93515 5.44295 5.95163C5.45141 5.96811 5.45655 5.9861 5.45806 6.00457C5.45958 6.02303 5.45744 6.04162 5.45177 6.05926C5.4461 6.0769 5.43702 6.09325 5.42503 6.10738C5.41304 6.12151 5.39839 6.13314 5.38191 6.1416C5.36543 6.15007 5.34744 6.15521 5.32897 6.15672C5.16352 6.16429 5.00184 6.20858 4.85563 6.28638C4.83499 6.29718 4.81199 6.30269 4.78869 6.30241Z" fill="white" fill-opacity="0.8"/>
<path d="M6.93743 9.51259C6.91352 9.51259 6.8899 9.51259 6.86655 9.51259C6.75888 9.51813 6.65121 9.50162 6.55014 9.46409C6.44907 9.42657 6.35672 9.3688 6.27874 9.29434C6.26733 9.27935 6.25904 9.26222 6.25438 9.24397C6.24971 9.22571 6.24876 9.2067 6.25159 9.18807C6.25441 9.16944 6.26095 9.15157 6.27082 9.13552C6.28068 9.11947 6.29368 9.10556 6.30902 9.09463C6.32437 9.08369 6.34175 9.07595 6.36015 9.07187C6.37854 9.06779 6.39757 9.06744 6.4161 9.07086C6.43463 9.07427 6.45229 9.08137 6.46802 9.09174C6.48375 9.10211 6.49724 9.11554 6.50768 9.13122C6.61541 9.20695 6.74629 9.24248 6.87752 9.23163C7.14128 9.25997 7.40622 9.18985 7.62143 9.03475C7.64537 9.00615 7.6797 8.98822 7.71686 8.98493C7.75402 8.98163 7.79096 8.99323 7.81957 9.01717C7.84818 9.04112 7.8661 9.07544 7.8694 9.1126C7.87269 9.14976 7.86109 9.18671 7.83715 9.21531C7.58801 9.42887 7.26476 9.53568 6.93743 9.51259Z" fill="white" fill-opacity="0.8"/>
<path d="M11.4602 8.10599C11.4508 8.10602 11.4413 8.10498 11.4321 8.1029C11.3956 8.09526 11.3637 8.07346 11.3433 8.0423C11.3229 8.01114 11.3157 7.97315 11.3232 7.93668C11.3613 7.79569 11.4485 7.67297 11.5692 7.5907C11.6898 7.50843 11.8359 7.47203 11.9811 7.48809C11.9994 7.4903 12.0172 7.49611 12.0332 7.50517C12.0493 7.51424 12.0635 7.52638 12.0749 7.54092C12.0863 7.55545 12.0947 7.57209 12.0997 7.58988C12.1047 7.60767 12.1061 7.62626 12.1039 7.6446C12.1016 7.66294 12.0958 7.68066 12.0868 7.69675C12.0777 7.71285 12.0656 7.727 12.051 7.7384C12.0365 7.7498 12.0199 7.75822 12.0021 7.76319C11.9843 7.76817 11.9657 7.76958 11.9473 7.76737C11.8722 7.76071 11.797 7.77942 11.7337 7.82051C11.6705 7.8616 11.6228 7.9227 11.5983 7.99405C11.5917 8.02576 11.5744 8.05422 11.5492 8.07461C11.524 8.095 11.4926 8.10609 11.4602 8.10599Z" fill="white" fill-opacity="0.8"/>
<path d="M13.8185 15.2779C13.5755 14.181 12.6735 13.1595 11.3435 12.4783C11.2157 12.4242 11.0926 12.3594 10.9756 12.2848C10.5734 11.9614 10.3529 10.9955 10.2725 10.4336C10.6367 10.0778 10.928 9.65441 11.13 9.18711C11.2143 9.2419 11.3078 9.28114 11.4059 9.30298C12.059 9.44895 12.5996 8.86873 12.7467 8.22355C12.8252 7.88578 12.7885 7.53142 12.6423 7.21695C13.2031 6.94386 13.9079 6.2607 13.4222 4.57855C13.1779 3.57503 12.6636 2.65748 11.9352 1.92524C10.9748 1.01933 9.58709 0.571579 7.92181 0.630079C4.39494 0.755517 3.21875 4.1592 3.21875 5.0623C3.21875 5.55842 3.34278 5.90127 3.58747 6.08098C3.6905 6.14814 3.80694 6.19201 3.92867 6.20955C4.0504 6.22708 4.17448 6.21786 4.29228 6.18252C4.36751 6.54284 4.42039 6.90748 4.45062 7.27433C4.53753 8.96914 4.841 10.0179 5.435 10.6749C5.71088 10.9569 6.04305 11.1776 6.40987 11.3227C6.77669 11.4677 7.16996 11.5339 7.56406 11.517C7.60062 11.517 7.65209 11.513 7.71003 11.5071C7.82506 11.8857 7.97047 12.3711 7.80959 12.4887C7.63691 12.5919 7.45591 12.6804 7.26847 12.7534L7.02716 12.8628C5.93759 13.3631 4.60194 14.109 3.93959 15.4475C3.61025 16.1022 3.88137 16.4794 4.16797 16.681C4.90062 17.1873 6.18509 17.4457 7.98594 17.4457C9.53377 17.4734 11.0714 17.19 12.5076 16.6121C12.6996 16.5245 12.8868 16.4268 13.0684 16.3193C13.4169 16.1154 13.9349 15.7959 13.8185 15.2779ZM7.37478 13.0138C7.58201 12.9255 7.78375 12.8248 7.97891 12.7123C8.29306 12.4825 8.14569 11.9695 7.99269 11.4661C8.20128 11.4349 8.40788 11.3916 8.61144 11.3364C8.6294 11.3314 8.64619 11.3229 8.66082 11.3113C8.67546 11.2998 8.68765 11.2854 8.69669 11.2691C8.70573 11.2528 8.71143 11.2349 8.71347 11.2163C8.71551 11.1978 8.71384 11.179 8.70856 11.1612C8.70328 11.1433 8.6945 11.1266 8.68273 11.1122C8.67095 11.0977 8.65642 11.0857 8.63997 11.0769C8.62353 11.0681 8.6055 11.0627 8.58694 11.061C8.56837 11.0592 8.54964 11.0612 8.53184 11.0667C8.28853 11.1308 8.0415 11.1798 7.79216 11.2135C7.7164 11.2249 7.64006 11.2319 7.5635 11.2346C7.20871 11.2512 6.85439 11.1931 6.52352 11.064C6.19264 10.9348 5.8926 10.7376 5.64284 10.4851C5.09553 9.87955 4.81428 8.88448 4.73103 7.25858C4.69918 6.8647 4.64121 6.47337 4.5575 6.08717C4.7 5.98932 4.81146 5.85267 4.87869 5.69342C4.93335 5.85757 5.04036 5.99925 5.18328 6.09673C5.34784 6.18174 5.52851 6.231 5.71344 6.2413C5.76304 6.24135 5.8126 6.23882 5.86194 6.2337C6.07959 6.21772 6.28968 6.14703 6.47273 6.0282C6.65578 5.90936 6.80585 5.74623 6.90903 5.55392C6.94398 5.64577 6.99717 5.72958 7.06541 5.8003C7.17288 5.8964 7.30014 5.96773 7.43822 6.00923C7.57629 6.05074 7.72179 6.06141 7.86444 6.04048C7.93479 6.03686 8.00485 6.02897 8.07425 6.01686C8.61172 5.88945 8.94781 5.29517 9.12697 4.85642C9.27881 5.37614 9.57071 5.84405 9.97072 6.20895C10.0146 6.24692 10.059 6.2832 10.1032 6.31948C10.4649 6.57791 10.7159 6.96312 10.8063 7.39836C10.8114 7.41717 10.8203 7.43474 10.8324 7.44998C10.8446 7.46522 10.8597 7.47781 10.8769 7.48695C10.9099 7.50428 10.9485 7.5078 10.9841 7.49672C11.0197 7.48565 11.0494 7.46089 11.0668 7.42789C11.1292 7.32483 11.2074 7.2322 11.2985 7.15339C11.3897 7.08015 11.495 7.0265 11.6078 6.99577C11.7207 6.96504 11.8386 6.9579 11.9544 6.9748C12.1094 7.0074 12.2457 7.09923 12.3341 7.23073C12.4182 7.36882 12.4738 7.52238 12.4976 7.68233C12.5214 7.84228 12.5128 8.00537 12.4724 8.16195C12.3585 8.66173 11.9428 9.13677 11.4667 9.02876C11.3492 8.99763 11.241 8.93825 11.1517 8.8558C11.1339 8.84195 11.1131 8.83259 11.0909 8.82849C11.0687 8.82438 11.0459 8.82567 11.0244 8.83223C11.0028 8.83879 10.9831 8.85044 10.967 8.86619C10.9509 8.88194 10.9388 8.90133 10.9317 8.92273C10.7377 9.4387 10.4282 9.90345 10.027 10.2815C9.89398 10.4062 9.74878 10.5173 9.59356 10.613C9.56179 10.6327 9.5391 10.6641 9.53051 10.7004C9.52191 10.7368 9.5281 10.7751 9.54772 10.8068C9.56734 10.8386 9.59877 10.8613 9.63511 10.8699C9.67146 10.8785 9.70972 10.8723 9.7415 10.8527C9.839 10.7917 9.9329 10.7251 10.0227 10.6533C10.1035 11.1111 10.304 11.985 10.7107 12.4175C10.2635 13.1904 9.1655 13.5738 8.32456 13.5482C7.88075 13.5341 7.50612 13.3991 7.39194 13.2124C7.37386 13.1829 7.36289 13.1496 7.35991 13.1151C7.35693 13.0806 7.36203 13.046 7.37478 13.0138Z" fill="white" fill-opacity="0.8"/>
</svg>
