<svg width="50" height="50" viewBox="0 0 50 50" fill="none" xmlns="http://www.w3.org/2000/svg">
<rect x="0.5" y="0.5" width="49" height="49" rx="24.5" fill="white"/>
<rect x="0.5" y="0.5" width="49" height="49" rx="24.5" stroke="#D5D5D5"/>
<g clip-path="url(#clip0_11132_45590)">
<path d="M22 31C22 31.7956 22.3161 32.5587 22.8787 33.1213C23.4413 33.6839 24.2044 34 25 34C25.7956 34 26.5587 33.6839 27.1213 33.1213C27.6839 32.5587 28 31.7956 28 31" stroke="#5E5E5E" stroke-width="1.5" stroke-linecap="round" stroke-linejoin="round"/>
<path d="M18.2533 22.7461C18.2533 20.9559 18.9645 19.239 20.2303 17.9731C21.4962 16.7073 23.2131 15.9961 25.0033 15.9961C26.7935 15.9961 28.5104 16.7073 29.7763 17.9731C31.0421 19.239 31.7533 20.9559 31.7533 22.7461C31.7533 26.1042 32.5314 28.8023 33.1502 29.8711C33.2159 29.9849 33.2505 30.114 33.2507 30.2454C33.2508 30.3769 33.2164 30.506 33.1508 30.62C33.0853 30.7339 32.991 30.8286 32.8774 30.8946C32.7637 30.9606 32.6347 30.9956 32.5033 30.9961H17.5033C17.372 30.9953 17.2433 30.9601 17.1299 30.8939C17.0165 30.8278 16.9225 30.733 16.8572 30.6191C16.7919 30.5053 16.7576 30.3762 16.7578 30.245C16.758 30.1137 16.7927 29.9848 16.8583 29.8711C17.4761 28.8023 18.2533 26.1033 18.2533 22.7461Z" stroke="#5E5E5E" stroke-width="1.5" stroke-linecap="round" stroke-linejoin="round"/>
<circle cx="28" cy="17" r="4" fill="#FE6500"/>
</g>
<defs>
<clipPath id="clip0_11132_45590">
<rect width="24" height="24" fill="white" transform="translate(13 13)"/>
</clipPath>
</defs>
</svg>
