<svg width="44" height="44" viewBox="0 0 44 44" fill="none" xmlns="http://www.w3.org/2000/svg">
<circle cx="22" cy="22" r="22" fill="white"/>
<path d="M32 15.8596C32 15.0651 31.2094 14.3337 29.883 13.7528C28.7083 13.2383 27.5 14.2196 27.5 15.502V18.7195M32 15.8596V28.5761C32 30.467 27.5228 31.9998 22 31.9998C16.4772 31.9998 12 30.467 12 28.5761V15.8596M32 15.8596C32 17.0549 30.2111 18.1071 27.5 18.7195M12 15.8596C12 15.0651 12.7906 14.3337 14.117 13.7528C15.2917 13.2383 16.5 14.2196 16.5 15.502V18.7195M12 15.8596C12 17.0549 13.7889 18.1071 16.5 18.7195M16.5 18.7195C18.0779 19.0759 19.9682 19.2834 22 19.2834C24.0318 19.2834 25.9221 19.0759 27.5 18.7195" stroke="#FF8A01"/>
<path d="M29.5 23C29.5 23.8284 28.8284 24.5 28 24.5C27.1716 24.5 26.5 23.8284 26.5 23C26.5 22.1716 27.1716 21.5 28 21.5C28.8284 21.5 29.5 22.1716 29.5 23Z" stroke="#FF8A01"/>
<path d="M31 30L28.5044 27.8514C27.6996 27.1586 26.501 27.0896 25.6152 27.6851L25.3843 27.8403C24.7687 28.2542 23.9312 28.1848 23.3991 27.6758L20.0781 24.4989C19.4152 23.8648 18.3519 23.8309 17.6464 24.4214L16.2903 25.5565L12.5 29.1035" stroke="#FF8A01" stroke-linecap="round"/>
</svg>
