<svg width="24" height="24" viewBox="0 0 24 24" fill="none" xmlns="http://www.w3.org/2000/svg">
<g clip-path="url(#clip0_15225_57211)">
<path d="M19.5 4.5L4.5 19.5" stroke="#1C274C" stroke-linecap="round"/>
<circle cx="12" cy="12" r="11" stroke="#1C274C"/>
<path d="M14.6832 8.04249C14.6602 7.30445 15.3216 6.67903 16.1604 6.64557C16.9992 6.61211 17.6979 7.18328 17.7209 7.92132L17.9083 13.9349C18.0002 16.887 15.3547 19.3887 11.9993 19.5226C8.64393 19.6564 5.84929 17.3717 5.75731 14.4195L5.63241 10.4105C5.60942 9.67248 6.2708 9.04705 7.10965 9.01359C7.94849 8.98013 8.64715 9.55131 8.67015 10.2893M14.6832 8.04249L14.7664 10.7152M14.6832 8.04249L14.5791 4.70164C14.5561 3.9636 13.8574 3.39243 13.0186 3.42589C12.1797 3.45935 11.5184 4.08477 11.5413 4.82281L11.583 6.15915M11.583 6.15915L11.7079 10.1682M11.583 6.15915C11.56 5.42111 10.8613 4.84994 10.0225 4.8834C9.18363 4.91686 8.52225 5.54228 8.54525 6.28032L8.67015 10.2893M8.67015 10.2893L8.75341 12.962" stroke="#1C274C" stroke-linecap="round"/>
</g>
<defs>
<clipPath id="clip0_15225_57211">
<rect width="24" height="24" fill="white"/>
</clipPath>
</defs>
</svg>
