<svg width="21" height="20" viewBox="0 0 21 20" fill="none" xmlns="http://www.w3.org/2000/svg">
<path d="M18.001 5.61718C17.9844 5.61718 17.9594 5.61718 17.9344 5.61718C13.526 5.17552 9.12603 5.00885 4.76769 5.45052L3.06769 5.61718C2.71769 5.65052 2.40936 5.40052 2.37603 5.05052C2.34269 4.70052 2.5927 4.40052 2.93436 4.36718L4.63436 4.20052C9.06769 3.75052 13.5594 3.92552 18.0594 4.36718C18.401 4.40052 18.651 4.70885 18.6177 5.05052C18.5927 5.37552 18.3177 5.61718 18.001 5.61718Z" fill="#212121"/>
<path d="M7.58265 4.77187C7.54932 4.77187 7.51598 4.77187 7.47432 4.76354C7.14098 4.70521 6.90765 4.38021 6.96598 4.04687L7.14932 2.95521C7.28265 2.15521 7.46598 1.04688 9.40765 1.04688H11.591C13.541 1.04688 13.7243 2.19687 13.8493 2.96354L14.0326 4.04687C14.091 4.38854 13.8576 4.71354 13.5243 4.76354C13.1826 4.82187 12.8576 4.58854 12.8076 4.25521L12.6243 3.17188C12.5076 2.44687 12.4826 2.30521 11.5993 2.30521H9.41598C8.53265 2.30521 8.51598 2.42188 8.39098 3.16354L8.19932 4.24688C8.14932 4.55521 7.88265 4.77187 7.58265 4.77187Z" fill="#212121"/>
<path d="M13.174 18.9596H7.82402C4.91569 18.9596 4.79902 17.3513 4.70735 16.0513L4.16569 7.65962C4.14069 7.31795 4.40735 7.01795 4.74902 6.99295C5.09902 6.97628 5.39069 7.23462 5.41569 7.57628L5.95735 15.9679C6.04902 17.2346 6.08235 17.7096 7.82402 17.7096H13.174C14.924 17.7096 14.9574 17.2346 15.0407 15.9679L15.5824 7.57628C15.6074 7.23462 15.9074 6.97628 16.249 6.99295C16.5907 7.01795 16.8574 7.30962 16.8324 7.65962L16.2907 16.0513C16.199 17.3513 16.0824 18.9596 13.174 18.9596Z" fill="#212121"/>
<path d="M11.8844 14.375H9.10937C8.76771 14.375 8.48438 14.0917 8.48438 13.75C8.48438 13.4083 8.76771 13.125 9.10937 13.125H11.8844C12.226 13.125 12.5094 13.4083 12.5094 13.75C12.5094 14.0917 12.226 14.375 11.8844 14.375Z" fill="#212121"/>
<path d="M12.5846 11.0469H8.41797C8.0763 11.0469 7.79297 10.7635 7.79297 10.4219C7.79297 10.0802 8.0763 9.79688 8.41797 9.79688H12.5846C12.9263 9.79688 13.2096 10.0802 13.2096 10.4219C13.2096 10.7635 12.9263 11.0469 12.5846 11.0469Z" fill="#212121"/>
</svg>
