<svg width="15" height="13" viewBox="0 0 15 13" fill="none" xmlns="http://www.w3.org/2000/svg">
<path d="M14.6251 9.9106L13.758 7.63571C13.7024 7.48995 13.6044 7.36413 13.4763 7.27415C13.3482 7.18417 13.1958 7.13407 13.0383 7.1302C12.8809 7.12632 12.7255 7.16884 12.5918 7.25237C12.4581 7.3359 12.352 7.4567 12.2871 7.59949L11.7827 8.70858L8.10308 7.08361C7.91382 6.99488 7.76687 6.83695 7.69282 6.64267C7.61876 6.44838 7.62331 6.23271 7.70549 6.04052L7.78518 5.86662C8.03155 5.29032 8.04511 4.64364 7.82307 4.06108C7.60102 3.47852 7.16045 3.00494 6.593 2.73883L1.35873 0.428199C1.16548 0.343216 0.94554 0.338102 0.747297 0.413981C0.549054 0.489859 0.388746 0.640516 0.301636 0.832809C0.214527 1.0251 0.207753 1.24328 0.282804 1.43934C0.357856 1.6354 0.508585 1.79329 0.701833 1.87828L5.9361 4.18891C6.1255 4.27748 6.27258 4.4354 6.34665 4.62974C6.42072 4.82408 6.41608 5.03983 6.33369 5.232L6.254 5.4059C6.00804 5.98224 5.99468 6.62877 6.21669 7.21122C6.43869 7.79367 6.87901 8.26727 7.44619 8.53368L11.1266 10.1584L10.6223 11.2675C10.5592 11.41 10.5397 11.5675 10.5662 11.7203C10.5928 11.873 10.6642 12.0144 10.7715 12.1266C10.8788 12.2388 11.0173 12.3169 11.1697 12.3511C11.3221 12.3854 11.4817 12.3743 11.6284 12.3192L13.9286 11.4425C14.2251 11.3295 14.465 11.1046 14.5957 10.8173C14.7263 10.53 14.7369 10.2039 14.6251 9.9106Z" fill="#FF8F57"/>
</svg>
