<svg width="20" height="20" viewBox="0 0 20 20" fill="none" xmlns="http://www.w3.org/2000/svg">
<path d="M3.33398 18.3335H16.6673" stroke="#616161" stroke-width="1.5" stroke-linecap="round"/>
<path d="M11.574 3.05228L12.1919 2.43436C13.2158 1.41055 14.8757 1.41055 15.8995 2.43436C16.9233 3.45816 16.9233 5.11807 15.8995 6.14187L15.2815 6.75979M11.574 3.05228C11.574 3.05228 11.6513 4.36535 12.8099 5.52395C13.9685 6.68255 15.2815 6.75979 15.2815 6.75979M11.574 3.05228L5.8932 8.7331C5.50843 9.11788 5.31604 9.31027 5.15058 9.52239C4.95541 9.77263 4.78807 10.0434 4.65155 10.3299C4.53581 10.5727 4.44977 10.8308 4.27769 11.3471L3.54852 13.5346M15.2815 6.75979L9.60072 12.4406C9.21594 12.8254 9.02356 13.0178 8.81143 13.1832C8.5612 13.3784 8.29045 13.5457 8.00397 13.6823C7.76112 13.798 7.503 13.8841 6.98677 14.0561L4.79926 14.7853M4.79926 14.7853L4.26455 14.9635C4.0105 15.0482 3.73042 14.9821 3.54107 14.7927C3.35172 14.6034 3.2856 14.3233 3.37028 14.0693L3.54852 13.5346M4.79926 14.7853L3.54852 13.5346" stroke="#616161" stroke-width="1.5"/>
</svg>
