<svg width="530" height="626" viewBox="0 0 530 626" fill="none" xmlns="http://www.w3.org/2000/svg">
<path d="M522.581 264.073V392.274C522.581 397.131 518.569 401.068 513.621 401.068H398.098C393.148 401.068 389.138 397.131 389.138 392.274V240.477C389.138 235.62 393.15 231.683 398.098 231.683H488.976L489.576 232.26L522.583 264.071L522.581 264.073Z" fill="#F5F5F5"/>
<path opacity="0.1" d="M522.581 264.073H496.87C492.841 264.073 489.576 260.867 489.576 256.916V232.262L522.583 264.073H522.581Z" fill="black"/>
<path d="M505.784 351.91H406.592C406.084 351.91 405.672 352.322 405.672 352.831V355.704C405.672 356.212 406.084 356.624 406.592 356.624H505.784C506.292 356.624 506.704 356.212 506.704 355.704V352.831C506.704 352.322 506.292 351.91 505.784 351.91Z" fill="#A7A7A7"/>
<path d="M504.234 367.68H406.367C405.493 367.68 404.783 366.985 404.783 366.125V364.52C404.783 363.663 405.493 362.966 406.367 362.966H504.234C505.108 362.966 505.818 363.661 505.818 364.52V366.125C505.818 366.982 505.108 367.68 504.234 367.68Z" fill="#A7A7A7"/>
<path d="M424.542 301.109H414.027V326.17H424.542V301.109Z" fill="#A7A7A7"/>
<path d="M439.486 307.769H428.972V326.169H439.486V307.769Z" fill="#A7A7A7"/>
<path d="M454.695 296.296H444.181V326.169H454.695V296.296Z" fill="#A7A7A7"/>
<path d="M469.059 290.559H458.545V326.169H469.059V290.559Z" fill="#A7A7A7"/>
<path d="M483.327 296.296H472.812V326.169H483.327V296.296Z" fill="#A7A7A7"/>
<path d="M497.69 282.343H487.176V326.172H497.69V282.343Z" fill="#A7A7A7"/>
<path d="M528.683 465.53L529.289 523.506C529.313 525.703 527.55 527.502 525.355 527.525L474.087 528.062C471.89 528.085 470.091 526.322 470.068 524.128L469.35 455.479C469.327 453.282 471.09 451.483 473.284 451.46L513.615 451.039L513.884 451.298L528.683 465.53Z" fill="#F5F5F5"/>
<path opacity="0.1" d="M528.682 465.529L517.273 465.649C515.484 465.668 514.021 464.234 514.002 462.446L513.886 451.297L528.684 465.529H528.682Z" fill="black"/>
<path d="M520.525 469.989L477.821 470.435C477.233 470.441 476.751 469.97 476.744 469.38C476.738 468.792 477.21 468.31 477.799 468.304L520.504 467.857C521.091 467.851 521.574 468.322 521.58 468.912C521.586 469.5 521.114 469.982 520.525 469.989Z" fill="#A7A7A7"/>
<path d="M520.645 475.341L477.941 475.787C477.353 475.793 476.871 475.322 476.864 474.732C476.858 474.144 477.33 473.662 477.92 473.656L520.624 473.209C521.211 473.203 521.694 473.675 521.7 474.264C521.706 474.852 521.235 475.334 520.645 475.341Z" fill="#A7A7A7"/>
<path d="M520.765 480.69L478.061 481.137C477.473 481.143 476.991 480.671 476.984 480.081C476.978 479.494 477.45 479.012 478.04 479.005L520.744 478.559C521.331 478.552 521.814 479.024 521.82 479.614C521.826 480.202 521.355 480.684 520.765 480.69Z" fill="#A7A7A7"/>
<path d="M520.885 486.042L478.181 486.489C477.593 486.495 477.111 486.023 477.105 485.434C477.098 484.846 477.57 484.364 478.16 484.357L520.864 483.911C521.452 483.904 521.934 484.376 521.94 484.966C521.947 485.554 521.475 486.036 520.885 486.042Z" fill="#A7A7A7"/>
<path d="M520.647 491.415L477.943 491.862C477.355 491.868 476.873 491.396 476.866 490.807C476.86 490.219 477.332 489.737 477.922 489.73L520.626 489.284C521.213 489.277 521.696 489.749 521.702 490.339C521.708 490.927 521.236 491.409 520.647 491.415Z" fill="#A7A7A7"/>
<path d="M520.767 496.767L478.063 497.214C477.475 497.22 476.993 496.748 476.986 496.159C476.98 495.571 477.452 495.089 478.042 495.082L520.746 494.636C521.333 494.629 521.816 495.101 521.822 495.691C521.828 496.279 521.357 496.761 520.767 496.767Z" fill="#A7A7A7"/>
<path d="M520.887 502.117L478.183 502.563C477.595 502.57 477.113 502.098 477.107 501.508C477.1 500.921 477.572 500.438 478.162 500.432L520.866 499.985C521.454 499.979 521.936 500.451 521.942 501.041C521.949 501.628 521.477 502.111 520.887 502.117Z" fill="#A7A7A7"/>
<path d="M521.007 507.469L478.303 507.916C477.715 507.922 477.233 507.45 477.227 506.86C477.22 506.273 477.692 505.79 478.282 505.784L520.986 505.337C521.574 505.331 522.056 505.803 522.062 506.393C522.069 506.98 521.597 507.463 521.007 507.469Z" fill="#A7A7A7"/>
<path d="M520.665 512.471L477.961 512.918C477.373 512.924 476.891 512.453 476.885 511.863C476.879 511.275 477.35 510.793 477.94 510.786L520.644 510.34C521.232 510.334 521.714 510.805 521.721 511.395C521.727 511.983 521.255 512.465 520.665 512.471Z" fill="#A7A7A7"/>
<path d="M365.611 223.148L364.926 320.379C364.901 324.063 361.935 327.098 358.304 327.159L273.53 328.595C269.898 328.656 266.975 325.72 267 322.039L267.811 206.911C267.836 203.227 270.802 200.192 274.433 200.131L341.121 199L341.559 199.432L365.611 223.148Z" fill="#F5F5F5"/>
<path opacity="0.1" d="M365.611 223.148L346.743 223.468C343.786 223.519 341.408 221.128 341.429 218.131L341.562 199.434L365.613 223.15L365.611 223.148Z" fill="black"/>
<path d="M351.916 275.617L280.705 276.823C279.897 276.838 279.246 276.183 279.25 275.362L279.254 274.759C279.261 273.938 279.92 273.262 280.731 273.249L351.941 272.042C352.75 272.027 353.401 272.683 353.396 273.504L353.392 274.106C353.386 274.928 352.727 275.604 351.916 275.617Z" fill="#A7A7A7"/>
<path d="M351.958 284.592L280.748 285.799C279.939 285.813 279.288 285.158 279.293 284.337L279.297 283.734C279.303 282.913 279.962 282.237 280.773 282.224L351.983 281.017C352.792 281.003 353.443 281.658 353.439 282.479L353.435 283.081C353.428 283.903 352.769 284.579 351.958 284.592Z" fill="#A7A7A7"/>
<path d="M352.002 293.564L280.792 294.771C279.983 294.785 279.332 294.13 279.336 293.309L279.341 292.707C279.347 291.885 280.006 291.209 280.817 291.196L352.027 289.99C352.836 289.975 353.487 290.63 353.483 291.451L353.479 292.054C353.472 292.875 352.813 293.551 352.002 293.564Z" fill="#A7A7A7"/>
<path d="M351.29 301.96L280.08 303.167C279.271 303.181 278.62 302.526 278.625 301.705L278.629 301.103C278.635 300.281 279.294 299.605 280.105 299.592L351.315 298.385C352.124 298.371 352.775 299.026 352.771 299.847L352.767 300.45C352.76 301.271 352.101 301.947 351.29 301.96Z" fill="#A7A7A7"/>
<path d="M289.278 260.089C289.783 257.564 290.822 254.518 293.2 253.425C295.984 252.147 297.918 254.78 301.528 253.792C305.723 252.644 305.867 248.335 309.411 247.869C312.899 247.41 313.948 251.426 317.211 251.081C321.838 250.592 322.706 242.201 327.232 241.748C330.56 241.415 331.847 245.771 335.127 245.609C336.527 245.54 338.358 244.642 340.487 241.255" stroke="#A7A7A7" stroke-width="1.02574" stroke-miterlimit="10" stroke-linecap="round"/>
<path d="M344.251 244.838L343.689 234.627L335.127 240.217L344.251 244.838Z" fill="#A7A7A7"/>
<path d="M106.92 394.323V368.76C106.92 363.239 103.074 358.766 98.3302 358.766H8.58929C3.84602 358.766 0 363.241 0 368.76V625.562H282.732V423.122C282.732 412.983 275.67 404.764 266.956 404.764H115.892C110.936 404.764 106.92 400.088 106.92 394.321V394.323Z" fill="url(#paint0_linear_9010_45031)"/>
<path d="M455.419 469.767L457.82 599.388C457.911 604.298 454.004 608.352 449.094 608.443L334.476 610.566C329.567 610.656 325.512 606.749 325.421 601.84L322.58 448.364C322.49 443.454 326.397 439.399 331.306 439.309L421.473 437.639L422.079 438.212L455.423 469.767H455.419Z" fill="#E5E5E5"/>
<path opacity="0.1" d="M455.419 469.767L429.908 470.239C425.911 470.313 422.61 467.132 422.537 463.137L422.075 438.211L455.419 469.767Z" fill="#F5F5F5"/>
<path d="M439.629 563.668L342.933 565.458C341.954 565.477 341.145 564.698 341.128 563.719L341.105 562.499C341.086 561.52 341.865 560.711 342.845 560.694L439.54 558.904C440.52 558.885 441.329 559.664 441.345 560.643L441.369 561.863C441.388 562.842 440.608 563.651 439.629 563.668Z" fill="white"/>
<path d="M438.955 574.86L342.259 576.651C341.28 576.67 340.471 575.89 340.454 574.911L340.431 573.691C340.412 572.712 341.191 571.903 342.171 571.886L438.867 570.096C439.846 570.077 440.655 570.856 440.672 571.836L440.695 573.055C440.714 574.035 439.934 574.843 438.955 574.86Z" fill="white"/>
<path d="M358.834 509.028L348.401 509.221L348.87 534.559L359.303 534.366L358.834 509.028Z" fill="white"/>
<path d="M373.785 515.487L363.353 515.68L363.697 534.284L374.129 534.091L373.785 515.487Z" fill="white"/>
<path d="M388.658 503.606L378.226 503.799L378.784 534.004L389.217 533.811L388.658 503.606Z" fill="white"/>
<path d="M402.801 497.544L392.368 497.737L393.034 533.742L403.467 533.549L402.801 497.544Z" fill="white"/>
<path d="M417.067 503.081L406.635 503.274L407.194 533.479L417.626 533.286L417.067 503.081Z" fill="white"/>
<path d="M431.057 488.708L420.624 488.901L421.444 533.216L431.877 533.023L431.057 488.708Z" fill="white"/>
<path d="M319.275 366.577L322.885 511.086C323.022 516.561 318.695 521.11 313.221 521.245L185.437 524.438C179.963 524.575 175.414 520.249 175.279 514.774L171.003 343.669C170.866 338.195 175.192 333.645 180.667 333.511L281.189 331L281.87 331.634L319.275 366.579V366.577Z" fill="#F5F5F5"/>
<path opacity="0.1" d="M319.274 366.577L290.834 367.286C286.377 367.398 282.674 363.876 282.565 359.42L281.87 331.632L319.274 366.577Z" fill="black"/>
<path d="M191.633 375.368L299.843 372.667C300.823 372.642 301.636 373.416 301.661 374.395L301.705 376.164C301.729 377.143 300.955 377.957 299.976 377.981L191.765 380.682C190.786 380.707 189.973 379.933 189.948 378.954L189.904 377.185C189.88 376.206 190.654 375.392 191.633 375.368Z" fill="#A7A7A7"/>
<path d="M300.48 391.304L192.27 394.008C191.29 394.034 190.477 393.258 190.452 392.281L190.408 390.512C190.383 389.533 191.158 388.72 192.135 388.694L300.346 385.99C301.325 385.965 302.138 386.74 302.163 387.717L302.208 389.486C302.233 390.466 301.458 391.279 300.48 391.304Z" fill="#A7A7A7"/>
<path d="M192.618 402.038L300.829 399.336C301.808 399.312 302.621 400.086 302.646 401.065L302.69 402.834C302.715 403.813 301.941 404.627 300.961 404.651L192.751 407.352C191.772 407.377 190.958 406.603 190.934 405.624L190.889 403.855C190.865 402.876 191.639 402.062 192.618 402.038Z" fill="#A7A7A7"/>
<path d="M193.111 415.373L301.321 412.671C302.301 412.647 303.114 413.421 303.139 414.4L303.183 416.169C303.207 417.148 302.433 417.962 301.454 417.986L193.243 420.687C192.264 420.712 191.451 419.938 191.426 418.959L191.382 417.19C191.358 416.211 192.132 415.397 193.111 415.373Z" fill="#A7A7A7"/>
<path d="M301.07 431.378L192.86 434.082C191.88 434.107 191.067 433.332 191.042 432.355L190.998 430.586C190.972 429.606 191.747 428.793 192.725 428.768L300.935 426.064C301.915 426.038 302.728 426.813 302.753 427.791L302.797 429.56C302.823 430.539 302.047 431.352 301.07 431.378Z" fill="#A7A7A7"/>
<path d="M301.563 444.712L193.352 447.417C192.373 447.442 191.56 446.667 191.535 445.689L191.49 443.92C191.465 442.941 192.24 442.128 193.217 442.102L301.428 439.398C302.408 439.373 303.221 440.148 303.246 441.125L303.29 442.894C303.315 443.874 302.54 444.687 301.563 444.712Z" fill="#A7A7A7"/>
<path d="M193.7 455.449L301.911 452.748C302.89 452.723 303.703 453.497 303.728 454.476L303.772 456.245C303.797 457.224 303.023 458.038 302.043 458.062L193.833 460.763C192.854 460.788 192.04 460.014 192.016 459.035L191.972 457.266C191.947 456.287 192.721 455.473 193.7 455.449Z" fill="#A7A7A7"/>
<path d="M194.193 468.784L302.403 466.083C303.383 466.058 304.196 466.832 304.221 467.811L304.265 469.58C304.289 470.559 303.515 471.373 302.536 471.397L194.326 474.098C193.346 474.123 192.533 473.349 192.508 472.37L192.464 470.601C192.44 469.622 193.214 468.808 194.193 468.784Z" fill="#A7A7A7"/>
<path d="M301.874 483.869L193.664 486.574C192.684 486.599 191.871 485.824 191.846 484.847L191.802 483.077C191.777 482.098 192.552 481.285 193.529 481.26L301.74 478.555C302.719 478.53 303.532 479.305 303.557 480.282L303.602 482.052C303.627 483.031 302.852 483.844 301.874 483.869Z" fill="#A7A7A7"/>
<path d="M519.414 37.9757V188.29C519.414 193.983 514.799 198.6 509.103 198.6H376.187C370.493 198.6 365.876 193.986 365.876 188.29V10.3101C365.876 4.6169 370.491 0 376.187 0H480.749L481.44 0.678219L519.416 37.9757H519.414Z" fill="#F5F5F5"/>
<path opacity="0.1" d="M519.414 37.9758H489.832C485.196 37.9758 481.438 34.2183 481.438 29.5824V0.67627L519.414 37.9737V37.9758Z" fill="black"/>
<path d="M484.012 67.5244C484.012 90.3709 465.492 108.891 442.645 108.891H442.548C419.746 108.839 401.278 90.3393 401.278 67.5244C401.278 59.4238 403.608 51.8645 407.631 45.4847C414.956 33.8708 427.899 26.1577 442.645 26.1577C465.492 26.1577 484.012 44.678 484.012 67.5244Z" fill="white"/>
<path d="M484.012 67.5244C484.012 90.3709 465.492 108.891 442.646 108.891V26.1577C465.492 26.1577 484.012 44.678 484.012 67.5244Z" fill="#D9D9D9"/>
<path d="M442.546 67.4273V108.891C419.744 108.838 401.276 90.339 401.276 67.5242C401.276 59.4235 403.606 51.8642 407.629 45.4844L442.546 67.4252V67.4273Z" fill="#A7A7A7"/>
<path d="M461.627 126.891H401.999C401.766 126.891 401.578 127.08 401.578 127.312V129.018C401.578 129.251 401.766 129.44 401.999 129.44H461.627C461.859 129.44 462.048 129.251 462.048 129.018V127.312C462.048 127.08 461.859 126.891 461.627 126.891Z" fill="#A7A7A7"/>
<path d="M494.526 135.588H401.988C401.763 135.588 401.578 135.405 401.578 135.179V133.522C401.578 133.296 401.761 133.111 401.988 133.111H494.526C494.752 133.111 494.937 133.294 494.937 133.519V135.177C494.937 135.402 494.754 135.588 494.526 135.588Z" fill="#A7A7A7"/>
<path d="M439.086 139.851H402.068C401.797 139.851 401.578 140.07 401.578 140.341V142.325C401.578 142.596 401.797 142.816 402.068 142.816H439.086C439.357 142.816 439.576 142.596 439.576 142.325V140.341C439.576 140.07 439.357 139.851 439.086 139.851Z" fill="#A7A7A7"/>
<path d="M486.325 146.071H401.974C401.755 146.071 401.578 146.248 401.578 146.467V148.065C401.578 148.284 401.755 148.461 401.974 148.461H486.325C486.543 148.461 486.721 148.284 486.721 148.065V146.467C486.721 146.248 486.543 146.071 486.325 146.071Z" fill="#A7A7A7"/>
<path d="M446.131 152.808H402.009C401.771 152.808 401.578 153.001 401.578 153.24V154.99C401.578 155.229 401.771 155.422 402.009 155.422H446.131C446.37 155.422 446.563 155.229 446.563 154.99V153.24C446.563 153.001 446.37 152.808 446.131 152.808Z" fill="#A7A7A7"/>
<path d="M503.067 159.028H401.974C401.755 159.028 401.578 159.205 401.578 159.424V161.022C401.578 161.241 401.755 161.418 401.974 161.418H503.067C503.286 161.418 503.463 161.241 503.463 161.022V159.424C503.463 159.205 503.286 159.028 503.067 159.028Z" fill="#A7A7A7"/>
<path d="M387.676 129.859C387.676 131.474 386.366 132.784 384.751 132.784C383.135 132.784 381.825 131.474 381.825 129.859C381.825 128.243 383.135 126.933 384.751 126.933C386.366 126.933 387.676 128.243 387.676 129.859Z" fill="white"/>
<path d="M386.035 145.496C387.488 144.789 388.092 143.038 387.385 141.585C386.678 140.133 384.927 139.528 383.474 140.235C382.021 140.942 381.417 142.693 382.124 144.146C382.831 145.599 384.582 146.203 386.035 145.496Z" fill="#A7A7A7"/>
<path d="M387.676 155.774C387.676 157.39 386.366 158.7 384.751 158.7C383.135 158.7 381.825 157.39 381.825 155.774C381.825 154.159 383.135 152.849 384.751 152.849C386.366 152.849 387.676 154.159 387.676 155.774Z" fill="#D9D9D9"/>
<path d="M225.841 459.129L228.242 588.749C228.332 593.659 224.425 597.714 219.515 597.804L104.898 599.927C99.988 600.018 95.9334 596.111 95.8429 591.201L93.0015 437.725C92.911 432.815 96.8181 428.761 101.728 428.67L191.894 427L192.501 427.573L225.845 459.129H225.841Z" fill="white"/>
<path opacity="0.1" d="M225.84 459.129L200.329 459.601C196.332 459.675 193.031 456.494 192.957 452.499L192.496 427.573L225.84 459.129Z" fill="black"/>
<path d="M210.05 553.03L113.354 554.82C112.375 554.839 111.566 554.06 111.549 553.08L111.526 551.861C111.507 550.881 112.286 550.073 113.265 550.056L209.961 548.265C210.941 548.247 211.749 549.026 211.766 550.005L211.789 551.225C211.808 552.204 211.029 553.013 210.05 553.03Z" fill="#A7A7A7"/>
<path d="M209.376 564.222L112.68 566.012C111.701 566.031 110.892 565.252 110.875 564.273L110.852 563.053C110.833 562.074 111.612 561.265 112.592 561.248L209.287 559.458C210.267 559.439 211.076 560.218 211.092 561.198L211.116 562.417C211.135 563.397 210.355 564.205 209.376 564.222Z" fill="#A7A7A7"/>
<path d="M129.255 498.385L118.823 498.578L119.292 523.916L129.724 523.723L129.255 498.385Z" fill="#A7A7A7"/>
<path d="M144.207 504.845L133.774 505.038L134.118 523.641L144.551 523.448L144.207 504.845Z" fill="#A7A7A7"/>
<path d="M159.078 492.964L148.645 493.157L149.204 523.361L159.636 523.168L159.078 492.964Z" fill="#A7A7A7"/>
<path d="M173.222 486.902L162.79 487.095L163.456 523.099L173.888 522.906L173.222 486.902Z" fill="#A7A7A7"/>
<path d="M187.487 492.438L177.054 492.631L177.613 522.836L188.046 522.643L187.487 492.438Z" fill="#A7A7A7"/>
<path d="M201.478 478.066L191.045 478.259L191.865 522.573L202.298 522.38L201.478 478.066Z" fill="#A7A7A7"/>
<defs>
<linearGradient id="paint0_linear_9010_45031" x1="141.366" y1="358.766" x2="300" y2="664.5" gradientUnits="userSpaceOnUse">
<stop stop-color="#D9D9D9"/>
<stop offset="0.544446" stop-color="#EEEEEE"/>
</linearGradient>
</defs>
</svg>
