<svg width="20" height="22" viewBox="0 0 20 22" fill="none" xmlns="http://www.w3.org/2000/svg">
<path d="M18.9752 11.1852L18.2361 11.0574L18.9752 11.1852ZM18.2696 15.265L17.5306 15.1371L18.2696 15.265ZM4.93777 19.4771L4.19056 19.5417L4.93777 19.4771ZM4.12561 10.0844L4.87282 10.0198L4.12561 10.0844ZM11.995 4.22142L12.7351 4.34269V4.34269L11.995 4.22142ZM11.3323 8.26598L12.0724 8.38725V8.38725L11.3323 8.26598ZM4.69814 8.67749L4.20855 8.10933H4.20855L4.69814 8.67749ZM6.13688 7.43769L6.62647 8.00585H6.62647L6.13688 7.43769ZM8.51805 3.78374L7.79208 3.59542L8.51805 3.78374ZM8.99376 1.94989L9.71973 2.13821V2.13821L8.99376 1.94989ZM10.6676 1.06435L10.4382 1.77841L10.4382 1.77841L10.6676 1.06435ZM10.8126 1.11093L11.042 0.396866L11.042 0.396866L10.8126 1.11093ZM7.86195 5.46262L8.52348 5.81599V5.81599L7.86195 5.46262ZM11.9047 2.24752L11.1787 2.43584V2.43584L11.9047 2.24752ZM9.6742 1.13239L9.34862 0.456746V0.456746L9.6742 1.13239ZM1.9716 20.4707L1.22439 20.5353L1.9716 20.4707ZM1 9.2342L1.74721 9.16959C1.71261 8.76945 1.36893 8.46758 0.967665 8.4849C0.566401 8.50221 0.25 8.83256 0.25 9.2342H1ZM18.9752 11.1852L18.2361 11.0574L17.5306 15.1371L18.2696 15.265L19.0087 15.3928L19.7142 11.313L18.9752 11.1852ZM11.245 21V20.25H6.59635V21V21.75H11.245V21ZM4.93777 19.4771L5.68498 19.4125L4.87282 10.0198L4.12561 10.0844L3.3784 10.149L4.19056 19.5417L4.93777 19.4771ZM18.2696 15.265L17.5306 15.1371C17.0238 18.0677 14.3813 20.25 11.245 20.25V21V21.75C15.0712 21.75 18.3708 19.081 19.0087 15.3928L18.2696 15.265ZM11.995 4.22142L11.2548 4.10015L10.5921 8.14472L11.3323 8.26598L12.0724 8.38725L12.7351 4.34269L11.995 4.22142ZM4.69814 8.67749L5.18773 9.24564L6.62647 8.00585L6.13688 7.43769L5.64729 6.86954L4.20855 8.10933L4.69814 8.67749ZM8.51805 3.78374L9.24403 3.97206L9.71973 2.13821L8.99376 1.94989L8.26779 1.76157L7.79208 3.59542L8.51805 3.78374ZM10.6676 1.06435L10.4382 1.77841L10.5832 1.82498L10.8126 1.11093L11.042 0.396866L10.897 0.350295L10.6676 1.06435ZM7.86195 5.46262L8.52348 5.81599C8.83545 5.23198 9.07766 4.61339 9.24403 3.97206L8.51805 3.78374L7.79208 3.59542C7.65573 4.12107 7.45699 4.62893 7.20042 5.10924L7.86195 5.46262ZM10.8126 1.11093L10.5832 1.82498C10.8896 1.92342 11.1072 2.16009 11.1787 2.43584L11.9047 2.24752L12.6307 2.05921C12.4252 1.26719 11.819 0.64648 11.042 0.396866L10.8126 1.11093ZM8.99376 1.94989L9.71973 2.13821C9.75476 2.0032 9.85225 1.87913 9.99978 1.80804L9.6742 1.13239L9.34862 0.456746C8.81664 0.713094 8.41702 1.18627 8.26779 1.76157L8.99376 1.94989ZM9.6742 1.13239L9.99978 1.80804C10.1345 1.74311 10.2931 1.73181 10.4382 1.77841L10.6676 1.06435L10.897 0.350295C10.3873 0.186546 9.83121 0.224198 9.34862 0.456746L9.6742 1.13239ZM12.1537 9.2342V9.9842H17.3348V9.2342V8.4842H12.1537V9.2342ZM1.9716 20.4707L2.71881 20.4061L1.74721 9.16959L1 9.2342L0.252788 9.29881L1.22439 20.5353L1.9716 20.4707ZM1 20.5127H1.75V9.2342H1H0.25V20.5127H1ZM1.9716 20.4707L1.22439 20.5353C1.2112 20.3828 1.33146 20.25 1.48671 20.25V21V21.75C2.21268 21.75 2.78122 21.1279 2.71881 20.4061L1.9716 20.4707ZM11.995 4.22142L12.7351 4.34269C12.8596 3.58256 12.8241 2.80477 12.6307 2.0592L11.9047 2.24752L11.1787 2.43584C11.3197 2.97923 11.3456 3.54613 11.2548 4.10016L11.995 4.22142ZM6.59635 21V20.25C6.12244 20.25 5.72601 19.887 5.68498 19.4125L4.93777 19.4771L4.19056 19.5417C4.29852 20.7902 5.3427 21.75 6.59635 21.75V21ZM6.13688 7.43769L6.62647 8.00585C7.30632 7.42 8.03916 6.72267 8.52348 5.81599L7.86195 5.46262L7.20042 5.10924C6.85404 5.75767 6.3025 6.30493 5.64729 6.86954L6.13688 7.43769ZM18.9752 11.1852L19.7142 11.313C19.9695 9.83651 18.8341 8.4842 17.3348 8.4842V9.2342V9.9842C17.9014 9.9842 18.3332 10.4959 18.2361 11.0574L18.9752 11.1852ZM1.48671 21V20.25C1.63292 20.25 1.75 20.3684 1.75 20.5127H1H0.25C0.25 21.1953 0.80289 21.75 1.48671 21.75V21ZM11.3323 8.26598L10.5921 8.14471C10.4344 9.10756 11.1766 9.9842 12.1537 9.9842V9.2342V8.4842C12.1038 8.4842 12.0639 8.43901 12.0724 8.38725L11.3323 8.26598ZM4.12561 10.0844L4.87282 10.0198C4.8474 9.72582 4.96475 9.43779 5.18773 9.24564L4.69814 8.67749L4.20855 8.10933C3.62022 8.61631 3.31149 9.37529 3.3784 10.149L4.12561 10.0844Z" fill="#CECECE"/>
</svg>
