<svg width="20" height="20" viewBox="0 0 20 20" fill="none" xmlns="http://www.w3.org/2000/svg">
<path d="M12.7174 18.5403H7.28405C3.19238 18.5403 1.44238 16.7903 1.44238 12.6986V12.5903C1.44238 8.89026 2.90072 7.10693 6.16738 6.7986C6.50072 6.7736 6.81738 7.0236 6.85072 7.36526C6.88405 7.70693 6.63405 8.01526 6.28405 8.0486C3.66738 8.29026 2.69238 9.5236 2.69238 12.5986V12.7069C2.69238 16.0986 3.89238 17.2986 7.28405 17.2986H12.7174C16.109 17.2986 17.309 16.0986 17.309 12.7069V12.5986C17.309 9.50693 16.3174 8.2736 13.6507 8.0486C13.309 8.01526 13.0507 7.71526 13.084 7.3736C13.1174 7.03193 13.409 6.7736 13.759 6.80693C17.0757 7.09026 18.559 8.88193 18.559 12.6069V12.7153C18.559 16.7903 16.809 18.5403 12.7174 18.5403Z" fill="#616161"/>
<path d="M10 13.124C9.65833 13.124 9.375 12.8406 9.375 12.499V3.01562C9.375 2.67396 9.65833 2.39062 10 2.39062C10.3417 2.39062 10.625 2.67396 10.625 3.01562V12.499C10.625 12.8406 10.3417 13.124 10 13.124Z" fill="#616161"/>
<path d="M12.7912 5.50052C12.6329 5.50052 12.4745 5.44219 12.3495 5.31719L9.99954 2.96719L7.64954 5.31719C7.40788 5.55885 7.00788 5.55885 6.76621 5.31719C6.52454 5.07552 6.52454 4.67552 6.76621 4.43385L9.55788 1.64219C9.79954 1.40052 10.1995 1.40052 10.4412 1.64219L13.2329 4.43385C13.4745 4.67552 13.4745 5.07552 13.2329 5.31719C13.1162 5.44219 12.9495 5.50052 12.7912 5.50052Z" fill="#616161"/>
</svg>
