<svg width="18" height="18" viewBox="0 0 18 18" fill="none" xmlns="http://www.w3.org/2000/svg">
<path d="M15.9998 6.56401V3.386C15.9998 2.399 15.5518 2 14.4388 2H11.6108C10.4978 2 10.0498 2.399 10.0498 3.386V6.55701C10.0498 7.55101 10.4978 7.94301 11.6108 7.94301H14.4388C15.5518 7.95001 15.9998 7.55101 15.9998 6.56401Z" stroke="#090909" stroke-width="0.933334" stroke-linecap="round" stroke-linejoin="round"/>
<path d="M15.9998 14.4388V11.6108C15.9998 10.4978 15.5518 10.0498 14.4388 10.0498H11.6108C10.4978 10.0498 10.0498 10.4978 10.0498 11.6108V14.4388C10.0498 15.5518 10.4978 15.9998 11.6108 15.9998H14.4388C15.5518 15.9998 15.9998 15.5518 15.9998 14.4388Z" stroke="#090909" stroke-width="0.933334" stroke-linecap="round" stroke-linejoin="round"/>
<path d="M7.95001 6.56401V3.386C7.95001 2.399 7.50201 2 6.38901 2H3.561C2.448 2 2 2.399 2 3.386V6.55701C2 7.55101 2.448 7.94301 3.561 7.94301H6.38901C7.50201 7.95001 7.95001 7.55101 7.95001 6.56401Z" stroke="#090909" stroke-width="0.933334" stroke-linecap="round" stroke-linejoin="round"/>
<path d="M7.95001 14.4388V11.6108C7.95001 10.4978 7.50201 10.0498 6.38901 10.0498H3.561C2.448 10.0498 2 10.4978 2 11.6108V14.4388C2 15.5518 2.448 15.9998 3.561 15.9998H6.38901C7.50201 15.9998 7.95001 15.5518 7.95001 14.4388Z" stroke="#090909" stroke-width="0.933334" stroke-linecap="round" stroke-linejoin="round"/>
</svg>
