<svg width="20" height="20" viewBox="0 0 20 20" fill="none" xmlns="http://www.w3.org/2000/svg">
<path d="M6.24967 3.33203H13.7497C14.2663 3.33203 14.7247 3.3487 15.133 3.40703C17.3247 3.6487 17.9163 4.68203 17.9163 7.4987V12.4987C17.9163 15.3154 17.3247 16.3487 15.133 16.5904C14.7247 16.6487 14.2663 16.6654 13.7497 16.6654H6.24967C5.73301 16.6654 5.27467 16.6487 4.86634 16.5904C2.67467 16.3487 2.08301 15.3154 2.08301 12.4987V7.4987C2.08301 4.68203 2.67467 3.6487 4.86634 3.40703C5.27467 3.3487 5.73301 3.33203 6.24967 3.33203Z" stroke="#616161" stroke-width="1.25" stroke-linecap="round" stroke-linejoin="round"/>
<path d="M11.25 8.33203H14.1667" stroke="#616161" stroke-width="1.25" stroke-linecap="round" stroke-linejoin="round"/>
<path d="M5.83301 12.918H5.84967H14.1663" stroke="#616161" stroke-width="1.25" stroke-linecap="round" stroke-linejoin="round"/>
<path d="M8.41209 8.33464H8.41957" stroke="#616161" stroke-width="1.66667" stroke-linecap="round" stroke-linejoin="round"/>
<path d="M5.91209 8.33464H5.91957" stroke="#616161" stroke-width="1.66667" stroke-linecap="round" stroke-linejoin="round"/>
</svg>
