<svg width="26" height="26" viewBox="0 0 26 26" fill="none" xmlns="http://www.w3.org/2000/svg">
<circle cx="13" cy="13" r="12.5" fill="black" stroke="white"/>
<path d="M6.30078 6L19.6992 6C19.8653 6 20 6.13477 20 6.30102L20 9.83318C20 9.99942 19.8653 10.1342 19.6992 10.1342L18.9774 10.1342L18.1813 14.4736C18.1551 14.6165 18.0306 14.7203 17.8855 14.7203C17.8116 14.7203 17.7381 14.7165 17.6652 14.7096C17.6893 14.9034 17.7019 15.0989 17.7019 15.2944C17.7019 17.8891 15.5926 20 13 20C10.4073 20 8.29805 17.8891 8.29805 15.2944C8.29805 15.0989 8.31063 14.9035 8.33472 14.7097C8.26207 14.7165 8.18884 14.7203 8.11515 14.7203C7.96998 14.7203 7.84554 14.6165 7.81932 14.4736L7.02328 10.1342L6.30078 10.1342C6.13467 10.1342 6 9.99945 6 9.8332L6 6.30102C6 6.13477 6.13467 6 6.30078 6ZM6.60156 6.60203L6.60156 7.76609L19.3984 7.76609L19.3984 6.60203L6.60156 6.60203ZM8.89961 15.2944C8.89961 17.5571 10.739 19.3979 13 19.3979C15.2609 19.3979 17.1003 17.5571 17.1003 15.2944C17.1003 15.0479 17.0779 14.8015 17.0341 14.5595C16.5323 14.3642 16.0993 13.9997 15.8207 13.5157C15.1631 12.3732 14.1088 11.6911 13.0003 11.6909C11.8919 11.6911 10.8375 12.3732 10.1799 13.5157C9.90116 14 9.4679 14.3646 8.96576 14.5599C8.92209 14.8017 8.89961 15.048 8.89961 15.2944ZM8.36247 14.1004C8.89794 14.0232 9.38034 13.6987 9.65865 13.2151C10.4249 11.8839 11.6741 11.089 13.0003 11.0889C14.3265 11.089 15.5758 11.8839 16.342 13.2151C16.6203 13.6986 17.1027 14.0232 17.6382 14.1005L18.3657 10.1342L7.63491 10.1342L8.36247 14.1004ZM19.3984 9.53216L19.3984 8.36813L6.60156 8.36813L6.60156 9.53219L19.3984 9.53216Z" fill="white"/>
<path d="M13.2733 17.6149C13.3577 17.8062 13.2041 18.0356 12.9952 18.0311C12.7862 18.0356 12.6328 17.8063 12.7172 17.6149C12.8164 17.3691 13.1739 17.3694 13.2733 17.6149Z" fill="#FF8A01"/>
<path d="M12.9968 13.1629C12.9181 13.1629 12.8398 13.1304 12.7839 13.0748C12.5758 12.8647 12.7651 12.5097 13.0556 12.5666C13.2881 12.6091 13.3789 12.9103 13.2097 13.0748C13.1539 13.1302 13.0755 13.163 12.9968 13.1629Z" fill="#FF8A01"/>
<path d="M11.4904 16.8037C11.6793 16.9898 11.5423 17.3192 11.2775 17.3176C11.116 17.3204 10.9733 17.178 10.9765 17.0163C10.9746 16.7513 11.3045 16.6147 11.4904 16.8037Z" fill="#FF8A01"/>
<path d="M14.8303 13.8522C14.7937 13.8672 14.7546 13.8753 14.7151 13.8752C14.449 13.876 14.3141 13.549 14.5023 13.3612C14.6294 13.2284 14.8673 13.2513 14.9655 13.4072C15.0711 13.5575 15.0021 13.7863 14.8303 13.8522Z" fill="#FF8A01"/>
<path d="M14.8866 16.7685C15.132 16.933 15.0151 17.3193 14.7194 17.3196C14.6205 17.3204 14.5237 17.2685 14.4691 17.1858C14.2905 16.9114 14.6124 16.5894 14.8866 16.7685Z" fill="#FF8A01"/>
<path d="M11.2801 13.8772C10.9847 13.8769 10.8672 13.4906 11.1129 13.3261C11.3874 13.1471 11.7091 13.4688 11.5306 13.7434C11.4759 13.8261 11.3791 13.878 11.2801 13.8772Z" fill="#FF8A01"/>
<path d="M15.4295 15.5972C15.2632 15.5972 15.1284 15.4624 15.1284 15.2961C15.1284 15.1299 15.2632 14.9951 15.4295 14.9951C15.5957 14.9951 15.7305 15.1299 15.7305 15.2961C15.7305 15.4624 15.5957 15.5972 15.4295 15.5972Z" fill="#FF8A01"/>
<path d="M10.5662 15.5981C10.3999 15.5981 10.2652 15.4634 10.2652 15.2971C10.2652 15.1309 10.3999 14.9961 10.5662 14.9961C10.7324 14.9961 10.8672 15.1309 10.8672 15.2971C10.8672 15.4634 10.7324 15.5981 10.5662 15.5981Z" fill="#FF8A01"/>
<path d="M13.0036 16.5426C13.6909 16.5426 14.25 15.9831 14.25 15.2952C14.25 14.6074 13.6909 14.0479 13.0036 14.0479C12.3163 14.0479 11.7572 14.6074 11.7572 15.2952C11.7572 15.9831 12.3163 16.5426 13.0036 16.5426ZM13.0036 14.6499C13.3592 14.6499 13.6484 14.9394 13.6484 15.2953C13.6484 15.6511 13.3592 15.9406 13.0036 15.9406C12.648 15.9406 12.3588 15.6511 12.3588 15.2953C12.3588 14.9394 12.648 14.6499 13.0036 14.6499Z" fill="#FF8A01"/>
</svg>
