<svg width="24" height="24" viewBox="0 0 24 24" fill="none" xmlns="http://www.w3.org/2000/svg">
<path d="M12 2.25C15.1756 2.25 17.75 4.82436 17.75 8V11C17.75 14.1756 15.1756 16.75 12 16.75C8.82436 16.75 6.25 14.1756 6.25 11V8C6.25 4.82436 8.82436 2.25 12 2.25ZM12 3.75C9.65279 3.75 7.75 5.65279 7.75 8V11C7.75 13.3472 9.65279 15.25 12 15.25C14.3472 15.25 16.25 13.3472 16.25 11V8C16.25 5.65279 14.3472 3.75 12 3.75ZM14 10.25C14.4142 10.25 14.75 10.5858 14.75 11C14.75 11.4142 14.4142 11.75 14 11.75H10C9.58579 11.75 9.25 11.4142 9.25 11C9.25 10.5858 9.58579 10.25 10 10.25H14ZM13 7.25C13.4142 7.25 13.75 7.58579 13.75 8C13.75 8.41421 13.4142 8.75 13 8.75H11C10.5858 8.75 10.25 8.41421 10.25 8C10.25 7.58579 10.5858 7.25 11 7.25H13Z" fill="#1C274C"/>
<path d="M20 9.25C20.4142 9.25 20.75 9.58579 20.75 10V11C20.75 15.8325 16.8325 19.75 12 19.75C7.16751 19.75 3.25 15.8325 3.25 11V10C3.25 9.58579 3.58579 9.25 4 9.25C4.41421 9.25 4.75 9.58579 4.75 10V11C4.75 15.0041 7.99594 18.25 12 18.25C16.0041 18.25 19.25 15.0041 19.25 11V10C19.25 9.58579 19.5858 9.25 20 9.25Z" fill="#1C274C"/>
<path d="M12 19V22" stroke="#1C274C" stroke-width="1.5" stroke-linecap="round"/>
<path d="M18.4092 4.46973C18.7021 4.17689 19.1769 4.17685 19.4697 4.46973C19.7623 4.76262 19.7625 5.23747 19.4697 5.53027L4.53027 20.4697C4.23747 20.7625 3.76262 20.7623 3.46973 20.4697C3.17685 20.1769 3.17689 19.7021 3.46973 19.4092L18.4092 4.46973Z" fill="#1C274C"/>
</svg>
