<svg width="174" height="38" viewBox="0 0 174 38" fill="none" xmlns="http://www.w3.org/2000/svg">
<path d="M0 11.4239C0 10.9564 0.248099 10.524 0.651706 10.2882L16.276 1.15673C17.153 0.644206 18.2552 1.27671 18.2552 2.29246V16.0525L9.22453 10.669V37.3887H1.31547C0.588956 37.3887 0 36.7997 0 36.0732V11.4239Z" fill="#393095"/>
<path d="M18.2554 16.0688L26.7712 21.2939C27.1611 21.5331 27.3987 21.9577 27.3987 22.4152V36.0729C27.3987 36.7994 26.8097 37.3883 26.0832 37.3883H19.5708C18.8443 37.3883 18.2554 36.7994 18.2554 36.0729V16.0688Z" fill="#393095"/>
<path d="M39.6415 27V9.32191H43.758L49.213 20.3833L54.6174 9.32191H58.7339V27H55.3245V15.0547H55.2993L50.5767 24.4746H47.7987L43.0761 15.0547H43.0509V27H39.6415ZM67.9957 27.3031C66.7835 27.3031 65.6892 27.0253 64.7127 26.4697C63.753 25.9141 62.9869 25.1396 62.4145 24.1463C61.8421 23.1529 61.5559 22.0165 61.5559 20.7369C61.5559 19.4405 61.8421 18.3041 62.4145 17.3276C62.9869 16.3342 63.7614 15.5597 64.7379 15.0042C65.7144 14.4486 66.8004 14.1708 67.9957 14.1708C69.2079 14.1708 70.3023 14.4486 71.2788 15.0042C72.2553 15.5597 73.0214 16.3342 73.577 17.3276C74.1494 18.3041 74.4356 19.4405 74.4356 20.7369C74.4356 22.0333 74.1494 23.1782 73.577 24.1715C73.0214 25.148 72.2553 25.9141 71.2788 26.4697C70.3023 27.0253 69.2079 27.3031 67.9957 27.3031ZM67.9957 24.3735C68.5345 24.3735 69.0227 24.2389 69.4605 23.9695C69.9151 23.7001 70.277 23.296 70.5464 22.7573C70.8326 22.2017 70.9758 21.5282 70.9758 20.7369C70.9758 19.9288 70.8411 19.2553 70.5717 18.7166C70.3023 18.1778 69.9403 17.7737 69.4857 17.5043C69.048 17.235 68.5597 17.1003 68.021 17.1003C67.4822 17.1003 66.9856 17.235 66.531 17.5043C66.0764 17.7737 65.7144 18.1778 65.445 18.7166C65.1757 19.2553 65.041 19.9288 65.041 20.7369C65.041 21.5282 65.1757 22.2017 65.445 22.7573C65.7144 23.296 66.068 23.7001 66.5057 23.9695C66.9603 24.2389 67.457 24.3735 67.9957 24.3735ZM84.8018 27.3031C84.1788 27.3031 83.6064 27.2189 83.0845 27.0505C82.5625 26.899 82.0995 26.6801 81.6955 26.3939C81.2914 26.0908 80.9463 25.7289 80.66 25.308H80.6348L80.2812 27H77.2507V8.86733H80.66V16.2164C81.0641 15.6608 81.5944 15.1809 82.2511 14.7769C82.9077 14.3728 83.7579 14.1708 84.8018 14.1708C85.9803 14.1708 87.0241 14.457 87.9333 15.0294C88.8593 15.6018 89.5917 16.3847 90.1304 17.3781C90.6692 18.3714 90.9386 19.4994 90.9386 20.7622C90.9386 22.008 90.6692 23.1277 90.1304 24.121C89.5917 25.1143 88.8593 25.8972 87.9333 26.4697C87.0241 27.0253 85.9803 27.3031 84.8018 27.3031ZM84.0189 24.3483C84.6923 24.3483 85.29 24.1968 85.8119 23.8937C86.3339 23.5738 86.7379 23.1445 87.0241 22.6057C87.3272 22.067 87.4787 21.444 87.4787 20.7369C87.4787 20.0466 87.3272 19.4321 87.0241 18.8933C86.7379 18.3377 86.3339 17.9084 85.8119 17.6054C85.29 17.2855 84.6923 17.1255 84.0189 17.1255C83.3454 17.1255 82.7477 17.2855 82.2258 17.6054C81.7039 17.9084 81.2998 18.3293 81.0136 18.8681C80.7274 19.4068 80.5843 20.0298 80.5843 20.7369C80.5843 21.444 80.7274 22.067 81.0136 22.6057C81.2998 23.1445 81.7039 23.5738 82.2258 23.8937C82.7477 24.1968 83.3454 24.3483 84.0189 24.3483ZM104.697 27L98.3328 9.32191H101.969L106.844 23.6412L111.743 9.32191H115.354L108.99 27H104.697ZM117.429 27V14.4738H120.838V27H117.429ZM119.121 12.6807C118.515 12.6807 118.01 12.4955 117.606 12.1251C117.218 11.7548 117.025 11.3002 117.025 10.7614C117.025 10.189 117.218 9.72598 117.606 9.37242C118.01 9.01886 118.515 8.84208 119.121 8.84208C119.744 8.84208 120.249 9.01886 120.636 9.37242C121.04 9.72598 121.242 10.189 121.242 10.7614C121.242 11.3002 121.04 11.7548 120.636 12.1251C120.249 12.4955 119.744 12.6807 119.121 12.6807ZM129.337 27.3031C128.209 27.3031 127.216 27.1179 126.357 26.7475C125.515 26.3771 124.833 25.872 124.311 25.2322C123.806 24.5756 123.512 23.8348 123.428 23.0098H126.837C126.921 23.3129 127.064 23.5991 127.266 23.8685C127.485 24.121 127.763 24.323 128.1 24.4746C128.436 24.6261 128.832 24.7018 129.287 24.7018C129.741 24.7018 130.112 24.6429 130.398 24.5251C130.684 24.3904 130.894 24.222 131.029 24.02C131.164 23.8011 131.231 23.5822 131.231 23.3634C131.231 23.0266 131.13 22.7741 130.928 22.6057C130.726 22.4205 130.423 22.269 130.019 22.1512C129.632 22.0333 129.169 21.907 128.63 21.7723C128.091 21.6376 127.536 21.4861 126.963 21.3178C126.391 21.1494 125.869 20.9389 125.397 20.6864C124.943 20.417 124.572 20.0803 124.286 19.6762C124 19.2721 123.857 18.7586 123.857 18.1357C123.857 17.3949 124.059 16.7299 124.463 16.1406C124.867 15.5345 125.448 15.0547 126.206 14.7011C126.98 14.3475 127.906 14.1708 128.984 14.1708C130.482 14.1708 131.677 14.5159 132.57 15.2062C133.479 15.8965 134.009 16.8477 134.161 18.0599H130.953C130.869 17.6559 130.65 17.3444 130.297 17.1255C129.96 16.9067 129.514 16.7972 128.958 16.7972C128.369 16.7972 127.914 16.9067 127.595 17.1255C127.292 17.3276 127.14 17.5969 127.14 17.9337C127.14 18.1525 127.249 18.3546 127.468 18.5398C127.687 18.7081 127.99 18.8597 128.377 18.9944C128.782 19.1122 129.245 19.2301 129.766 19.3479C130.676 19.5668 131.492 19.8025 132.216 20.055C132.957 20.3076 133.546 20.6696 133.984 21.141C134.422 21.5956 134.641 22.2774 134.641 23.1866C134.657 23.9611 134.447 24.6598 134.009 25.2827C133.571 25.9056 132.957 26.4023 132.166 26.7727C131.374 27.1263 130.431 27.3031 129.337 27.3031ZM137.504 27V14.4738H140.914V27H137.504ZM139.196 12.6807C138.59 12.6807 138.085 12.4955 137.681 12.1251C137.294 11.7548 137.1 11.3002 137.1 10.7614C137.1 10.189 137.294 9.72598 137.681 9.37242C138.085 9.01886 138.59 8.84208 139.196 8.84208C139.819 8.84208 140.324 9.01886 140.711 9.37242C141.116 9.72598 141.318 10.189 141.318 10.7614C141.318 11.3002 141.116 11.7548 140.711 12.1251C140.324 12.4955 139.819 12.6807 139.196 12.6807ZM150.221 27.3031C149.008 27.3031 147.914 27.0253 146.937 26.4697C145.978 25.9141 145.212 25.1396 144.639 24.1463C144.067 23.1529 143.781 22.0165 143.781 20.7369C143.781 19.4405 144.067 18.3041 144.639 17.3276C145.212 16.3342 145.986 15.5597 146.963 15.0042C147.939 14.4486 149.025 14.1708 150.221 14.1708C151.433 14.1708 152.527 14.4486 153.504 15.0042C154.48 15.5597 155.246 16.3342 155.802 17.3276C156.374 18.3041 156.66 19.4405 156.66 20.7369C156.66 22.0333 156.374 23.1782 155.802 24.1715C155.246 25.148 154.48 25.9141 153.504 26.4697C152.527 27.0253 151.433 27.3031 150.221 27.3031ZM150.221 24.3735C150.759 24.3735 151.248 24.2389 151.685 23.9695C152.14 23.7001 152.502 23.296 152.771 22.7573C153.057 22.2017 153.201 21.5282 153.201 20.7369C153.201 19.9288 153.066 19.2553 152.797 18.7166C152.527 18.1778 152.165 17.7737 151.711 17.5043C151.273 17.235 150.785 17.1003 150.246 17.1003C149.707 17.1003 149.21 17.235 148.756 17.5043C148.301 17.7737 147.939 18.1778 147.67 18.7166C147.4 19.2553 147.266 19.9288 147.266 20.7369C147.266 21.5282 147.4 22.2017 147.67 22.7573C147.939 23.296 148.293 23.7001 148.731 23.9695C149.185 24.2389 149.682 24.3735 150.221 24.3735ZM159.476 27V14.4738H162.456L162.733 16.5699C163.137 15.846 163.693 15.2651 164.4 14.8274C165.124 14.3896 165.991 14.1708 167.001 14.1708C168.045 14.1708 168.929 14.398 169.653 14.8526C170.377 15.2904 170.933 15.9386 171.32 16.7972C171.707 17.6559 171.901 18.7166 171.901 19.9793V27H168.491V20.2823C168.491 19.2385 168.281 18.4388 167.86 17.8832C167.439 17.3276 166.774 17.0498 165.865 17.0498C165.292 17.0498 164.779 17.1929 164.324 17.4791C163.87 17.7485 163.516 18.1441 163.264 18.666C163.011 19.1711 162.885 19.7941 162.885 20.5349V27H159.476Z" fill="#170F49"/>
</svg>
