<svg width="70" height="70" viewBox="0 0 70 70" fill="none" xmlns="http://www.w3.org/2000/svg">
<path d="M44.25 55.8125H12.041C12.3357 54.6562 12.9793 53.3543 13.6489 52.6836L15.6836 50.6489C17.4677 48.866 18.8125 45.6174 18.8125 43.0938V30.375C18.8125 29.0979 17.7771 28.0625 16.5 28.0625C15.2229 28.0625 14.1875 29.0979 14.1875 30.375V43.0938C14.1875 44.3844 13.3248 46.4665 12.4136 47.3789L10.3789 49.4136C8.59482 51.1965 7.25 54.4451 7.25 56.9688V58.125C7.25 59.4021 8.28543 60.4375 9.5625 60.4375H28.0625V62.75C28.0625 66.5756 31.1744 69.6875 35 69.6875C38.8256 69.6875 41.9375 66.5756 41.9375 62.75V60.4375H44.25C45.5271 60.4375 46.5625 59.4021 46.5625 58.125C46.5625 56.8479 45.5271 55.8125 44.25 55.8125ZM37.3125 62.75C37.3125 64.0248 36.2748 65.0625 35 65.0625C33.7252 65.0625 32.6875 64.0248 32.6875 62.75V60.4375H37.3125V62.75ZM69.01 65.74L62.4587 59.1887C62.6292 58.8657 62.75 58.5157 62.75 58.125V56.9688C62.75 54.4451 61.4052 51.1965 59.6211 49.4136L57.5864 47.3789C56.6752 46.4665 55.8125 44.3844 55.8125 43.0938V25.75C55.8125 15.0569 47.7029 6.22925 37.3125 5.07413V2.625C37.3125 1.34793 36.2771 0.3125 35 0.3125C33.7229 0.3125 32.6875 1.34793 32.6875 2.625V5.10687C26.5269 5.79904 20.9918 9.18875 17.6122 14.3422L4.26001 0.98999C3.35669 0.0866699 1.89331 0.0866699 0.98999 0.98999C0.0866699 1.89331 0.0866699 3.35669 0.98999 4.26001L65.74 69.01C66.1917 69.4617 66.7833 69.6875 67.375 69.6875C67.9667 69.6875 68.5583 69.4617 69.01 69.01C69.9133 68.1067 69.9133 66.6433 69.01 65.74ZM35 9.5625C43.9259 9.5625 51.1875 16.8241 51.1875 25.75V43.0938C51.1875 45.6174 52.5323 48.866 54.3164 50.6489L56.3511 52.6836C56.665 52.9975 56.9688 53.4571 57.2386 53.9686L20.9918 17.7217C23.8463 12.7332 29.1679 9.5625 35 9.5625Z" fill="#FF8A01"/>
</svg>
