<svg width="40" height="40" viewBox="0 0 40 40" fill="none" xmlns="http://www.w3.org/2000/svg">
<circle cx="20" cy="20" r="20" fill="white"/>
<path d="M28.9752 20.1852L28.2361 20.0574L28.9752 20.1852ZM28.2696 24.265L27.5306 24.1371L28.2696 24.265ZM14.9378 28.4771L14.1906 28.5417L14.9378 28.4771ZM14.1256 19.0844L14.8728 19.0198L14.1256 19.0844ZM21.995 13.2214L22.7351 13.3427V13.3427L21.995 13.2214ZM21.3323 17.266L22.0724 17.3872V17.3872L21.3323 17.266ZM14.6981 17.6775L14.2085 17.1093H14.2085L14.6981 17.6775ZM16.1369 16.4377L16.6265 17.0058H16.6265L16.1369 16.4377ZM18.5181 12.7837L17.7921 12.5954L18.5181 12.7837ZM18.9938 10.9499L19.7197 11.1382V11.1382L18.9938 10.9499ZM20.6676 10.0644L20.4382 10.7784L20.4382 10.7784L20.6676 10.0644ZM20.8126 10.1109L21.042 9.39687L21.042 9.39687L20.8126 10.1109ZM17.8619 14.4626L18.5235 14.816V14.816L17.8619 14.4626ZM21.9047 11.2475L21.1787 11.4358V11.4358L21.9047 11.2475ZM19.6742 10.1324L19.3486 9.45675V9.45675L19.6742 10.1324ZM11.9716 29.4707L11.2244 29.5353L11.9716 29.4707ZM11 18.2342L11.7472 18.1696C11.7126 17.7694 11.3689 17.4676 10.9677 17.4849C10.5664 17.5022 10.25 17.8326 10.25 18.2342H11ZM28.9752 20.1852L28.2361 20.0574L27.5306 24.1371L28.2696 24.265L29.0087 24.3928L29.7142 20.313L28.9752 20.1852ZM21.245 30V29.25H16.5963V30V30.75H21.245V30ZM14.9378 28.4771L15.685 28.4125L14.8728 19.0198L14.1256 19.0844L13.3784 19.149L14.1906 28.5417L14.9378 28.4771ZM28.2696 24.265L27.5306 24.1371C27.0238 27.0677 24.3813 29.25 21.245 29.25V30V30.75C25.0712 30.75 28.3708 28.081 29.0087 24.3928L28.2696 24.265ZM21.995 13.2214L21.2548 13.1002L20.5921 17.1447L21.3323 17.266L22.0724 17.3872L22.7351 13.3427L21.995 13.2214ZM14.6981 17.6775L15.1877 18.2456L16.6265 17.0058L16.1369 16.4377L15.6473 15.8695L14.2085 17.1093L14.6981 17.6775ZM18.5181 12.7837L19.244 12.9721L19.7197 11.1382L18.9938 10.9499L18.2678 10.7616L17.7921 12.5954L18.5181 12.7837ZM20.6676 10.0644L20.4382 10.7784L20.5832 10.825L20.8126 10.1109L21.042 9.39687L20.897 9.3503L20.6676 10.0644ZM17.8619 14.4626L18.5235 14.816C18.8354 14.232 19.0777 13.6134 19.244 12.9721L18.5181 12.7837L17.7921 12.5954C17.6557 13.1211 17.457 13.6289 17.2004 14.1092L17.8619 14.4626ZM20.8126 10.1109L20.5832 10.825C20.8896 10.9234 21.1072 11.1601 21.1787 11.4358L21.9047 11.2475L22.6307 11.0592C22.4252 10.2672 21.819 9.64648 21.042 9.39687L20.8126 10.1109ZM18.9938 10.9499L19.7197 11.1382C19.7548 11.0032 19.8523 10.8791 19.9998 10.808L19.6742 10.1324L19.3486 9.45675C18.8166 9.71309 18.417 10.1863 18.2678 10.7616L18.9938 10.9499ZM19.6742 10.1324L19.9998 10.808C20.1345 10.7431 20.2931 10.7318 20.4382 10.7784L20.6676 10.0644L20.897 9.3503C20.3873 9.18655 19.8312 9.2242 19.3486 9.45675L19.6742 10.1324ZM22.1537 18.2342V18.9842H27.3348V18.2342V17.4842H22.1537V18.2342ZM11.9716 29.4707L12.7188 29.4061L11.7472 18.1696L11 18.2342L10.2528 18.2988L11.2244 29.5353L11.9716 29.4707ZM11 29.5127H11.75V18.2342H11H10.25V29.5127H11ZM11.9716 29.4707L11.2244 29.5353C11.2112 29.3828 11.3315 29.25 11.4867 29.25V30V30.75C12.2127 30.75 12.7812 30.1279 12.7188 29.4061L11.9716 29.4707ZM21.995 13.2214L22.7351 13.3427C22.8596 12.5826 22.8241 11.8048 22.6307 11.0592L21.9047 11.2475L21.1787 11.4358C21.3197 11.9792 21.3456 12.5461 21.2548 13.1002L21.995 13.2214ZM16.5963 30V29.25C16.1224 29.25 15.726 28.887 15.685 28.4125L14.9378 28.4771L14.1906 28.5417C14.2985 29.7902 15.3427 30.75 16.5963 30.75V30ZM16.1369 16.4377L16.6265 17.0058C17.3063 16.42 18.0392 15.7227 18.5235 14.816L17.8619 14.4626L17.2004 14.1092C16.854 14.7577 16.3025 15.3049 15.6473 15.8695L16.1369 16.4377ZM28.9752 20.1852L29.7142 20.313C29.9695 18.8365 28.8341 17.4842 27.3348 17.4842V18.2342V18.9842C27.9014 18.9842 28.3332 19.4959 28.2361 20.0574L28.9752 20.1852ZM11.4867 30V29.25C11.6329 29.25 11.75 29.3684 11.75 29.5127H11H10.25C10.25 30.1953 10.8029 30.75 11.4867 30.75V30ZM21.3323 17.266L20.5921 17.1447C20.4344 18.1076 21.1766 18.9842 22.1537 18.9842V18.2342V17.4842C22.1038 17.4842 22.0639 17.439 22.0724 17.3872L21.3323 17.266ZM14.1256 19.0844L14.8728 19.0198C14.8474 18.7258 14.9647 18.4378 15.1877 18.2456L14.6981 17.6775L14.2085 17.1093C13.6202 17.6163 13.3115 18.3753 13.3784 19.149L14.1256 19.0844Z" fill="black"/>
</svg>
