<svg width="25" height="25" viewBox="0 0 25 25" fill="none" xmlns="http://www.w3.org/2000/svg">
<g clip-path="url(#clip0_10212_43287)">
<path d="M24.1279 0.0205078H1.15918C0.874414 0.0205078 0.643555 0.251367 0.643555 0.536133V6.58652C0.643555 6.87129 0.874414 7.10215 1.15918 7.10215H2.39663L3.76126 14.5353C3.80621 14.7801 4.01959 14.9578 4.2684 14.9578C4.39515 14.9578 4.5211 14.9514 4.64602 14.9396C4.60473 15.2716 4.58316 15.6064 4.58316 15.9413C4.58316 20.3858 8.1991 24.0017 12.6436 24.0017C17.0881 24.0017 20.704 20.3858 20.704 15.9413C20.704 15.6064 20.6825 15.2717 20.6412 14.9396C20.7657 14.9515 20.8913 14.9578 21.0176 14.9578C21.2664 14.9578 21.4798 14.7801 21.5247 14.5353L22.8894 7.10219H24.1279C24.4127 7.10219 24.6436 6.87134 24.6436 6.58657V0.536133C24.6436 0.251367 24.4127 0.0205078 24.1279 0.0205078ZM23.6123 1.05176V3.04573H1.6748V1.05176H23.6123ZM19.6728 15.9412C19.6728 19.8171 16.5195 22.9704 12.6436 22.9704C8.7677 22.9704 5.61441 19.8171 5.61441 15.9412C5.61441 15.519 5.65295 15.0969 5.7279 14.6825C6.58815 14.3479 7.33041 13.7236 7.80802 12.8944C8.93532 10.9374 10.7428 9.76901 12.643 9.76877C14.5432 9.76901 16.3507 10.9375 17.478 12.8944C17.9559 13.724 18.6986 14.3486 19.5594 14.6831C19.6343 15.0973 19.6728 15.5192 19.6728 15.9412ZM20.5936 13.8961C19.6756 13.7638 18.8487 13.2079 18.3716 12.3796C17.0581 10.0993 14.9165 8.73776 12.643 8.73748C10.3695 8.73776 8.22798 10.0993 6.91449 12.3796C6.43735 13.2079 5.61038 13.7638 4.69243 13.8961L3.44513 7.10215H21.8409L20.5936 13.8961ZM1.6748 6.0709V4.07698H23.6123V6.07094L1.6748 6.0709Z" fill="black"/>
<path d="M12.1664 19.9122C12.0217 20.24 12.2848 20.6329 12.6427 20.6252C13.0007 20.6329 13.2635 20.2402 13.1189 19.9122C12.949 19.4913 12.3366 19.4917 12.1664 19.9122Z" fill="#FF0004"/>
<path d="M12.6439 12.2887C12.7788 12.2886 12.9129 12.233 13.0086 12.1378C13.3651 11.7779 13.0408 11.1697 12.5431 11.2673C12.145 11.34 11.9894 11.8559 12.2792 12.1378C12.3747 12.2327 12.5091 12.2888 12.6439 12.2887Z" fill="#FF0004"/>
<path d="M15.2254 18.5245C14.9019 18.8433 15.1365 19.4075 15.5901 19.4048C15.8667 19.4096 16.1112 19.1657 16.1058 18.8887C16.109 18.4348 15.5439 18.2009 15.2254 18.5245Z" fill="#FF0004"/>
<path d="M9.49999 13.4701C9.56276 13.496 9.6297 13.5097 9.69734 13.5095C10.1533 13.511 10.3843 12.9508 10.062 12.6292C9.8442 12.4016 9.43662 12.4409 9.26843 12.7079C9.08754 12.9654 9.20576 13.3574 9.49999 13.4701Z" fill="#FF0004"/>
<path d="M9.41027 18.4601C8.98989 18.742 9.19023 19.4036 9.69667 19.4042C9.86622 19.4055 10.0319 19.3166 10.1255 19.175C10.4315 18.7049 9.88 18.1534 9.41027 18.4601Z" fill="#FF0004"/>
<path d="M15.5923 13.5092C16.0984 13.5086 16.2996 12.8469 15.8787 12.5651C15.4087 12.2585 14.8575 12.8095 15.1634 13.2799C15.257 13.4215 15.4228 13.5104 15.5923 13.5092Z" fill="#FF0004"/>
<path d="M8.47559 16.4585C8.76036 16.4585 8.99121 16.2276 8.99121 15.9429C8.99121 15.6581 8.76036 15.4272 8.47559 15.4272C8.19081 15.4272 7.95996 15.6581 7.95996 15.9429C7.95996 16.2276 8.19081 16.4585 8.47559 16.4585Z" fill="#FF0004"/>
<path d="M16.8096 16.4565C17.0943 16.4565 17.3252 16.2257 17.3252 15.9409C17.3252 15.6561 17.0943 15.4253 16.8096 15.4253C16.5248 15.4253 16.2939 15.6561 16.2939 15.9409C16.2939 16.2257 16.5248 16.4565 16.8096 16.4565Z" fill="#FF0004"/>
<path d="M12.6455 18.0781C11.4673 18.0781 10.5088 17.1196 10.5088 15.9414C10.5088 14.7632 11.4673 13.8047 12.6455 13.8047C13.8236 13.8047 14.7821 14.7632 14.7821 15.9414C14.7821 17.1196 13.8236 18.0781 12.6455 18.0781ZM12.6455 14.836C12.0359 14.836 11.54 15.3319 11.54 15.9414C11.54 16.551 12.0359 17.0469 12.6455 17.0469C13.255 17.0469 13.7509 16.551 13.7509 15.9414C13.7509 15.3319 13.255 14.836 12.6455 14.836Z" fill="#FF0004"/>
</g>
<defs>
<clipPath id="clip0_10212_43287">
<rect width="24" height="24" fill="white" transform="translate(0.643555 0.0112305)"/>
</clipPath>
</defs>
</svg>
