<svg width="25" height="25" viewBox="0 0 25 25" fill="none" xmlns="http://www.w3.org/2000/svg">
<path d="M5.49785 9.72896H4.5458V4.28125C4.5458 3.98462 4.30532 3.74414 4.00869 3.74414C3.71206 3.74414 3.47158 3.98462 3.47158 4.28125V9.72896H2.51953C2.2229 9.72896 1.98242 9.96943 1.98242 10.2661V13.2444C1.98242 13.541 2.2229 13.7815 2.51953 13.7815C2.81616 13.7815 3.05664 13.541 3.05664 13.2444V10.8032H4.96074V13.2444C4.96074 13.541 5.20122 13.7815 5.49785 13.7815C5.79448 13.7815 6.03496 13.541 6.03496 13.2444V10.2661C6.03496 9.96943 5.79448 9.72896 5.49785 9.72896Z" fill="#FE3300"/>
<path d="M22.4803 9.72896H21.5282V4.28125C21.5282 3.98462 21.2877 3.74414 20.9911 3.74414C20.6945 3.74414 20.454 3.98462 20.454 4.28125V9.72896H19.502C19.2053 9.72896 18.9648 9.96943 18.9648 10.2661V13.2444C18.9648 13.541 19.2053 13.7815 19.502 13.7815C19.7986 13.7815 20.0391 13.541 20.0391 13.2444V10.8032H21.9432V13.2444C21.9432 13.541 22.1836 13.7815 22.4803 13.7815C22.7769 13.7815 23.0174 13.541 23.0174 13.2444V10.2661C23.0174 9.96943 22.7769 9.72896 22.4803 9.72896Z" fill="#FE3300"/>
<path d="M22.6692 22.7664H2.32812C2.03149 22.7664 1.79102 22.5259 1.79102 22.2293V19.251C1.79102 18.9543 2.03149 18.7139 2.32812 18.7139C2.62476 18.7139 2.86523 18.9543 2.86523 19.251V21.6922H22.1321V19.251C22.1321 18.9543 22.3726 18.7139 22.6692 18.7139C22.9658 18.7139 23.2063 18.9543 23.2063 19.251V22.2293C23.2063 22.5259 22.9658 22.7664 22.6692 22.7664Z" fill="#FE3300"/>
<path d="M22.6998 19.7881H2.3002C1.03188 19.7881 0 18.7563 0 17.4879V15.0575C0 13.7892 1.03188 12.7573 2.3002 12.7573H22.6998C23.9681 12.7573 25 13.7892 25 15.0575V17.4879C25 18.7563 23.9681 19.7881 22.6998 19.7881ZM2.3002 13.8315C1.62422 13.8315 1.07422 14.3815 1.07422 15.0575V17.4879C1.07422 18.1639 1.62422 18.7139 2.3002 18.7139H22.6998C23.3758 18.7139 23.9257 18.1639 23.9257 17.4879V15.0575C23.9257 14.3815 23.3757 13.8315 22.6998 13.8315H2.3002Z" fill="black"/>
<path d="M5.05301 16.8094C4.6326 16.8168 4.366 16.32 4.60672 15.9744C4.83255 15.6206 5.39515 15.675 5.5491 16.0667C5.70125 16.4049 5.42347 16.8202 5.05301 16.8094Z" fill="black"/>
<path d="M8.03175 16.8097C7.611 16.8169 7.34479 16.3209 7.58497 15.9748C7.81163 15.6203 8.37374 15.6751 8.52736 16.067C8.68024 16.4048 8.40182 16.8205 8.03175 16.8097Z" fill="black"/>
<path d="M19.9463 16.8096H14.9824C14.6858 16.8096 14.4453 16.5691 14.4453 16.2725C14.4453 15.9758 14.6858 15.7354 14.9824 15.7354H19.9463C20.2429 15.7354 20.4834 15.9758 20.4834 16.2725C20.4834 16.5691 20.2429 16.8096 19.9463 16.8096Z" fill="black"/>
<path d="M12.4986 9.26452C12.1285 9.27487 11.8501 8.86008 12.0025 8.52184C12.1755 8.08454 12.8217 8.08449 12.9947 8.52184C13.1471 8.86003 12.8688 9.27497 12.4986 9.26452Z" fill="black"/>
<path d="M14.03 6.70913C13.9358 6.70913 13.8406 6.68438 13.754 6.63242C13.3767 6.40586 12.9432 6.28613 12.5001 6.28613C12.0571 6.28613 11.6235 6.40586 11.2463 6.63242C10.992 6.78516 10.662 6.70273 10.5093 6.44844C10.3566 6.19409 10.439 5.86416 10.6933 5.71143C11.2375 5.38467 11.8623 5.21191 12.5001 5.21191C13.1379 5.21191 13.7627 5.38467 14.307 5.71143C14.5613 5.86416 14.6437 6.19409 14.491 6.44844C14.3902 6.61616 14.2123 6.70908 14.03 6.70913Z" fill="black"/>
<path d="M15.5585 4.154C15.4644 4.154 15.3691 4.12925 15.2825 4.07729C14.4444 3.57407 13.4815 3.30811 12.4978 3.30811C11.5141 3.30811 10.5512 3.57407 9.7131 4.07729C9.45875 4.23003 9.12887 4.14766 8.97614 3.89326C8.8234 3.63896 8.90583 3.30898 9.16012 3.1563C10.1652 2.55283 11.3194 2.23389 12.4978 2.23389C13.6763 2.23389 14.8304 2.55283 15.8355 3.15635C16.0898 3.30903 16.1722 3.63901 16.0195 3.89331C15.9188 4.06104 15.7409 4.15395 15.5585 4.154Z" fill="black"/>
</svg>
