<svg width="19" height="13" viewBox="0 0 19 13" fill="none" xmlns="http://www.w3.org/2000/svg">
<path d="M17.1156 0.0507812L14.1796 0.0507812C13.9915 0.0508219 13.8076 0.107261 13.6512 0.212965C13.4947 0.318668 13.3728 0.468889 13.3008 0.644638C13.2288 0.820386 13.21 1.01377 13.2467 1.20034C13.2834 1.38692 13.374 1.5583 13.507 1.69283L14.5402 2.73751L11.1285 6.18611C10.9472 6.36127 10.7062 6.45903 10.4554 6.45903C10.2047 6.45903 9.96358 6.36127 9.78231 6.18611L9.62057 6.02161C9.07696 5.49645 8.35405 5.2034 7.60221 5.2034C6.85036 5.2034 6.12745 5.49645 5.58384 6.02161L0.731772 10.9276C0.553001 11.1088 0.452769 11.3545 0.453126 11.6105C0.453483 11.8665 0.554399 12.1118 0.733675 12.2926C0.912951 12.4733 1.1559 12.5747 1.40908 12.5743C1.66225 12.574 1.90492 12.4719 2.08369 12.2906L6.93576 7.3847C7.11692 7.20931 7.35805 7.11141 7.60887 7.11141C7.85968 7.11141 8.10081 7.20931 8.28197 7.3847L8.44371 7.54919C8.98754 8.07391 9.71036 8.36667 10.4621 8.36667C11.2138 8.36667 11.9366 8.07391 12.4804 7.54919L15.8921 4.09963L16.9253 5.14431C17.0588 5.27663 17.2279 5.36624 17.4115 5.40197C17.5951 5.43769 17.785 5.41794 17.9575 5.34519C18.13 5.27243 18.2776 5.14989 18.3816 4.99287C18.4857 4.83585 18.5417 4.6513 18.5427 4.46229V1.49371C18.5427 1.11102 18.3923 0.744006 18.1247 0.473405C17.8571 0.202803 17.4941 0.0507812 17.1156 0.0507812Z" fill="black"/>
</svg>
