<svg width="38" height="38" viewBox="0 0 38 38" fill="none" xmlns="http://www.w3.org/2000/svg">
<mask id="mask0_15293_55725" style="mask-type:luminance" maskUnits="userSpaceOnUse" x="0" y="0" width="38" height="38">
<path d="M38 0H0V38H38V0Z" fill="white"/>
</mask>
<g mask="url(#mask0_15293_55725)">
<path d="M19 37.5C29.2173 37.5 37.5 29.2173 37.5 19C37.5 8.78273 29.2173 0.5 19 0.5C8.78273 0.5 0.5 8.78273 0.5 19C0.5 29.2173 8.78273 37.5 19 37.5Z" stroke="#FF8A01"/>
<path d="M26.5 17.3331C27.8333 18.1029 27.8333 20.0274 26.5 20.7972L16 26.8594C14.6667 27.6292 13 26.6669 13 25.1273V13.003C13 11.4634 14.6667 10.5011 16 11.2709L26.5 17.3331Z" fill="#FF8A01"/>
</g>
</svg>
