<svg width="81" height="82" viewBox="0 0 81 82" fill="none" xmlns="http://www.w3.org/2000/svg">
<g clip-path="url(#clip0_9527_5085)">
<path d="M74.324 34.3013L70.5413 35.2287L66.7586 34.3013C66.3892 34.3013 66.0898 34.0019 66.0898 33.6326V26.0673C66.0898 25.6979 66.3893 25.3985 66.7586 25.3985H69.0575L70.5413 26.3539L72.0251 25.3984H74.324C74.6933 25.3984 74.9927 25.6979 74.9927 26.0672V33.6325C74.9927 34.0019 74.6933 34.3013 74.324 34.3013Z" fill="#E2AE83"/>
<path d="M66.0898 26.0672V33.6325C66.0898 34.0019 66.3893 34.3012 66.7586 34.3012H68.0005V25.3984H66.7586C66.3893 25.3984 66.0898 25.6979 66.0898 26.0672Z" fill="#D39C72"/>
<path d="M69.0566 25.3984H72.0243V27.6973C72.0243 28.0667 71.7248 28.3661 71.3555 28.3661H69.7255C69.3561 28.3661 69.0567 28.0666 69.0567 27.6973V25.3984H69.0566Z" fill="#F27A55"/>
<path d="M74.324 43.2076L70.5413 44.1349L66.7586 43.2076C66.3892 43.2076 66.0898 42.9081 66.0898 42.5388V34.9735C66.0898 34.6041 66.3893 34.3048 66.7586 34.3048L67.0452 35.2322L68.0006 34.3048H69.0575L70.5413 35.2602L72.0251 34.3047H74.324C74.6933 34.3047 74.9927 34.6041 74.9927 34.9734V42.5387C74.9927 42.9081 74.6933 43.2076 74.324 43.2076Z" fill="#E2AE83"/>
<path d="M66.0898 34.9735V42.5388C66.0898 42.9082 66.3893 43.2076 66.7586 43.2076H68.0005V34.3047H66.7586C66.3893 34.3048 66.0898 34.6042 66.0898 34.9735Z" fill="#D39C72"/>
<path d="M69.0566 34.3047H72.0243V36.6036C72.0243 36.973 71.7248 37.2723 71.3555 37.2723H69.7255C69.3561 37.2723 69.0567 36.9729 69.0567 36.6036V34.3047H69.0566Z" fill="#F27A55"/>
<path d="M43.8329 43.2048L42.2983 44.1602L40.8652 43.2048V37.9383C40.8652 37.5689 41.1647 37.2695 41.534 37.2695C42.8036 37.2695 43.8329 38.2987 43.8329 39.5684V43.2048Z" fill="#495959"/>
<path d="M42.4849 37.4749C42.1951 37.343 41.8731 37.2695 41.534 37.2695C41.1646 37.2695 40.8652 37.569 40.8652 37.9383V43.2048L42.2983 44.1602V37.9383C42.2982 37.7584 42.3693 37.595 42.4849 37.4749Z" fill="#364444"/>
<path d="M46.8005 46.1747L44.5748 47.102L40.8652 46.1747V43.207H46.8005C47.62 43.207 48.2843 43.8713 48.2843 44.6908C48.2843 45.5104 47.62 46.1747 46.8005 46.1747Z" fill="#607882"/>
<path d="M40.8652 43.207V46.1747L42.2983 47.102V43.207H40.8652Z" fill="#526970"/>
<path d="M74.324 52.1099L70.5413 53.0373L66.7586 52.1099C66.3892 52.1099 66.0898 51.8104 66.0898 51.4412V43.8759C66.0898 43.5065 66.3893 43.2071 66.7586 43.2071L67.0452 44.1345L68.0006 43.2071H69.0575L70.5413 44.1625L72.0251 43.207H74.324C74.6933 43.207 74.9927 43.5065 74.9927 43.8758V51.4411C74.9927 51.8104 74.6933 52.1099 74.324 52.1099Z" fill="#E2AE83"/>
<path d="M66.0898 43.8758V51.4411C66.0898 51.8104 66.3893 52.1098 66.7586 52.1098L68.0005 53.0372V43.207H66.7586C66.3893 43.207 66.0898 43.5065 66.0898 43.8758Z" fill="#D39C72"/>
<path d="M69.0566 43.207H72.0243V45.5059C72.0243 45.8753 71.7248 46.1747 71.3555 46.1747H69.7255C69.3561 46.1747 69.0567 45.8752 69.0567 45.5059V43.207H69.0566Z" fill="#F27A55"/>
<path d="M75.8072 55.077H75.3939L70.5407 56.0044L65.2742 55.077C64.9048 55.077 64.6055 54.7775 64.6055 54.4083V52.7781C64.6055 52.4087 64.9049 52.1094 65.2742 52.1094H75.8071C76.1765 52.1094 76.4759 52.4088 76.4759 52.7781V54.4083C76.476 54.7775 76.1765 55.077 75.8072 55.077Z" fill="#3A7F1E"/>
<path d="M64.6055 52.7781V54.4083C64.6055 54.7776 64.9049 55.077 65.2742 55.077L66.5162 56.0044V52.1094H65.2742C64.9049 52.1094 64.6055 52.4088 64.6055 52.7781Z" fill="#93D200"/>
<path d="M56.6473 49.1395V55.0747H43.8319L37.8966 49.1395L36.9414 47.6557L37.8966 46.1719H46.8301L48.0997 48.7648C48.2119 48.9939 48.4456 49.1395 48.7006 49.1395H56.6473Z" fill="#495959"/>
<path d="M56.6464 51.0409V55.074H48.1562C48.7062 52.3921 51.0794 50.375 53.9246 50.375C54.9067 50.375 55.8322 50.6152 56.6464 51.0409Z" fill="#364444"/>
<path d="M56.6484 46.1747H53.1491C52.8958 46.1747 52.6643 46.0316 52.5509 45.805L51.252 43.207H56.0729L56.6484 44.9334V46.1747Z" fill="#495959"/>
<path d="M52.6831 42.8637L51.501 40.4996L51.5592 40.4661C51.9019 40.2683 52.0194 39.83 51.8215 39.4873C51.6236 39.1446 51.1854 39.0271 50.8427 39.2251L49.5576 39.967C49.2149 40.1648 49.0975 40.603 49.2954 40.9457C49.4281 41.1756 49.6689 41.3041 49.9165 41.3041C50.0322 41.3041 50.1494 41.276 50.2577 41.2172L51.4014 43.5045C51.5269 43.7557 51.7799 43.9008 52.0428 43.9008C52.1505 43.9008 52.2598 43.8764 52.3627 43.8251C52.7166 43.6481 52.86 43.2177 52.6831 42.8637Z" fill="#9BB9C3"/>
<path d="M74.5799 58.0418H61.639L60.6836 55.0742H75.395C75.8922 55.0742 76.2155 55.5974 75.9932 56.042L75.1781 57.6721C75.0649 57.8987 74.8333 58.0418 74.5799 58.0418Z" fill="#495959"/>
<path d="M60.6836 55.0742L61.639 58.0418H63.5498V55.0742H60.6836Z" fill="#364444"/>
<path d="M52.7351 55.0747V58.0424H29.6628C29.2937 58.0424 28.9941 57.7428 28.9941 57.3737V49.0876C28.9941 47.4776 30.2999 46.1719 31.9098 46.1719H34.9294L37.897 49.1395H40.451C40.7042 49.1395 40.936 49.2823 41.0492 49.5095L43.6477 54.7047C43.7608 54.9319 43.9927 55.0747 44.2459 55.0747H52.7351Z" fill="#93D200"/>
<path d="M33.8207 46.1719H31.91C30.2996 46.1719 28.9941 47.4773 28.9941 49.0877V57.3736C28.9941 57.7429 29.2936 58.0424 29.6629 58.0424H30.9049V49.0877C30.9049 47.4774 32.2104 46.1719 33.8207 46.1719Z" fill="#3A7F1E"/>
<path d="M61.6375 58.0473H59.3387C58.9693 58.0473 58.6699 57.7479 58.6699 57.3786V21.4805H60.103L61.6375 22.4359V58.0473Z" fill="#607882"/>
<path d="M58.6696 21.4805V43.2092L57.7422 49.1445L58.6696 56.2694V57.3786C58.6696 57.748 58.969 58.0473 59.3383 58.0473H60.1027V21.4805H58.6696Z" fill="#526970"/>
<path d="M61.6384 22.4325H56.3719C56.0025 22.4325 55.7031 22.133 55.7031 21.7637V20.1336C55.7031 19.7642 56.0026 19.4648 56.3719 19.4648H60.9695C61.3389 19.4648 61.6383 19.7643 61.6383 20.1336V22.4325H61.6384Z" fill="#495959"/>
<path d="M55.7031 20.1336V21.7636C55.7031 22.133 56.0026 22.4324 56.3719 22.4324H57.6139V19.4648H56.3719C56.0026 19.4648 55.7031 19.7643 55.7031 20.1336Z" fill="#364444"/>
<path d="M37.8973 49.1428H34.9297V28.3695L36.3628 27.4141L37.8973 28.3695V49.1428Z" fill="#9BB9C3"/>
<path d="M34.9297 28.3695V49.1428H36.3628V27.4141L34.9297 28.3695Z" fill="#8BAAB2"/>
<path d="M58.6722 56.2633H55.6932V44.9295L50.5087 29.3761C50.3091 28.7771 49.7509 28.3742 49.1196 28.3733L32.619 28.3497C32.2496 28.3492 31.9506 28.0493 31.9512 27.68L31.9536 26.0272C31.9541 25.6578 32.254 25.3588 32.6233 25.3594L49.1241 25.3829C51.0426 25.3857 52.7392 26.6104 53.3458 28.4305C53.3458 28.4305 57.8111 40.3391 58.6714 43.2031L58.6722 56.2633Z" fill="#9BB9C3"/>
<path d="M33.3834 28.3488L33.3877 25.3605L32.6233 25.3594C32.254 25.3588 31.9541 25.6578 31.9536 26.0272L31.9512 27.679C31.9506 28.0488 32.2503 28.3488 32.6199 28.3488H33.3834Z" fill="#8BAAB2"/>
<path d="M51.9433 29.3778C51.7436 28.7789 51.1854 28.3759 50.5542 28.375H49.1211C49.7524 28.3759 50.3106 28.7789 50.5102 29.3778L55.6947 44.9313V56.265H57.1277V44.9313L51.9433 29.3778Z" fill="#8BAAB2"/>
<path d="M52.7352 55.0742V58.0418H48.3107C48.1326 57.4808 48.0371 56.8835 48.0371 56.264C48.0371 55.8569 48.0788 55.4591 48.1577 55.0742H52.7352Z" fill="#3A7F1E"/>
<path d="M53.9272 61.0068C56.5482 61.0068 58.6728 58.8821 58.6728 56.2612C58.6728 53.6403 56.5482 51.5156 53.9272 51.5156C51.3063 51.5156 49.1816 53.6403 49.1816 56.2612C49.1816 58.8821 51.3063 61.0068 53.9272 61.0068Z" fill="#495959"/>
<path d="M53.9264 58.1068C54.9418 58.1068 55.765 57.2836 55.765 56.2682C55.765 55.2528 54.9418 54.4297 53.9264 54.4297C52.911 54.4297 52.0879 55.2528 52.0879 56.2682C52.0879 57.2836 52.911 58.1068 53.9264 58.1068Z" fill="#F1F6F7"/>
<path d="M36.3628 61.0146C38.9837 61.0146 41.1084 58.89 41.1084 56.269C41.1084 53.6481 38.9837 51.5234 36.3628 51.5234C33.7419 51.5234 31.6172 53.6481 31.6172 56.269C31.6172 58.89 33.7419 61.0146 36.3628 61.0146Z" fill="#495959"/>
<path d="M36.362 58.1068C37.3774 58.1068 38.2005 57.2836 38.2005 56.2682C38.2005 55.2528 37.3774 54.4297 36.362 54.4297C35.3466 54.4297 34.5234 55.2528 34.5234 56.2682C34.5234 57.2836 35.3466 58.1068 36.362 58.1068Z" fill="#F1F6F7"/>
<path d="M9.25186 68.4297H0.285156V70.2454H8.41248L9.25186 68.4297Z" fill="#607882"/>
<path d="M80.4588 70.2454V68.4297H30.3809L30.4332 70.2454H80.4588Z" fill="#607882"/>
<path d="M18.0835 68.4297L17.2441 70.2454H22.4118L22.3594 68.4297H18.0835Z" fill="#607882"/>
<path d="M26.3446 29.2587C26.6631 26.4299 24.6285 23.8788 21.7996 23.5602C18.9711 23.2416 16.4197 25.2764 16.1012 28.1051C15.8775 30.0914 16.8152 31.9397 18.3724 32.9754L21.9526 33.7851C24.2222 33.4622 26.0761 31.6424 26.3446 29.2587Z" fill="#799199"/>
<path d="M9.00254 71.6939C8.33904 73.1294 8.96475 74.8309 10.4002 75.4946C10.7892 75.6745 11.1977 75.7594 11.5999 75.7594C12.6815 75.7594 13.717 75.1434 14.2009 74.0969L19.584 62.4524C19.927 61.7106 19.9366 60.8574 19.6102 60.108L17.6701 55.6512L23.3158 61.8927L23.629 72.7489C23.674 74.3016 24.9466 75.5297 26.4897 75.5297C26.5177 75.5297 26.5459 75.5292 26.5738 75.5286C28.1545 75.4829 29.3992 74.1644 29.3535 72.5837L29.0099 60.6721C28.9903 59.991 28.7283 59.3391 28.2713 58.8338L21.6285 51.4899L23.9093 42.8575L25.9244 46.7174C26.1432 47.1364 26.5152 47.4548 26.9631 47.6057L35.3358 50.4304C35.5302 50.496 35.7275 50.5271 35.9219 50.5271C36.6865 50.5271 37.4001 50.0446 37.658 49.2799C37.9815 48.3209 37.4665 47.2812 36.5075 46.9577L28.8326 44.3684L24.5652 36.1943C24.2632 35.6159 23.6955 35.2678 23.0897 35.2177L14.9009 33.3656C14.7542 33.3124 14.6016 33.2777 14.4468 33.263L14.3889 33.25C14.3831 33.2522 14.3777 33.2554 14.3719 33.2576C13.9435 33.2346 13.5053 33.3592 13.1415 33.6455L8.17828 37.5491C7.77361 37.8674 7.52149 38.3412 7.48347 38.8546C7.44567 39.368 7.62551 39.8738 7.97897 40.248L10.9515 43.3946L9.49612 48.903C9.18449 49.6092 9.15476 50.4374 9.48716 51.2011L13.8466 61.2157L9.00254 71.6939Z" fill="#495959"/>
</g>
<defs>
<clipPath id="clip0_9527_5085">
<rect width="80.6085" height="80.6085" fill="white" transform="translate(0.285156 0.691406)"/>
</clipPath>
</defs>
</svg>
