<svg width="19" height="18" viewBox="0 0 19 18" fill="none" xmlns="http://www.w3.org/2000/svg">
<path d="M12.5 3C14.1313 3.00908 15.0147 3.08142 15.591 3.65771C16.25 4.31672 16.25 5.37738 16.25 7.4987V11.9987C16.25 14.12 16.25 15.1807 15.591 15.8397C14.932 16.4987 13.8713 16.4987 11.75 16.4987H7.25C5.12868 16.4987 4.06802 16.4987 3.40901 15.8397C2.75 15.1807 2.75 14.12 2.75 11.9987V7.4987C2.75 5.37738 2.75 4.31672 3.40901 3.65771C3.9853 3.08142 4.86873 3.00908 6.5 3" stroke="#090909"/>
<path d="M6.5 2.625C6.5 2.00368 7.00368 1.5 7.625 1.5H11.375C11.9963 1.5 12.5 2.00368 12.5 2.625V3.375C12.5 3.99632 11.9963 4.5 11.375 4.5H7.625C7.00368 4.5 6.5 3.99632 6.5 3.375V2.625Z" stroke="#090909"/>
<path d="M11.375 8.25003L7.62503 12M7.62502 8.25002L11.375 12" stroke="#090909" stroke-linecap="round"/>
</svg>
