<svg width="28" height="27" viewBox="0 0 28 27" fill="none" xmlns="http://www.w3.org/2000/svg">
<path d="M10.625 24.75H17.375C23 24.75 25.25 22.5 25.25 16.875V10.125C25.25 4.5 23 2.25 17.375 2.25H10.625C5 2.25 2.75 4.5 2.75 10.125V16.875C2.75 22.5 5 24.75 10.625 24.75Z" stroke="#626262" stroke-width="1.5" stroke-linecap="round" stroke-linejoin="round"/>
<path d="M17.9375 20.8125C19.175 20.8125 20.1875 19.8 20.1875 18.5625V8.4375C20.1875 7.2 19.175 6.1875 17.9375 6.1875C16.7 6.1875 15.6875 7.2 15.6875 8.4375V18.5625C15.6875 19.8 16.6887 20.8125 17.9375 20.8125Z" stroke="#626262" stroke-width="1.5" stroke-linecap="round" stroke-linejoin="round"/>
<path d="M10.0625 20.8125C11.3 20.8125 12.3125 19.8 12.3125 18.5625V14.625C12.3125 13.3875 11.3 12.375 10.0625 12.375C8.825 12.375 7.8125 13.3875 7.8125 14.625V18.5625C7.8125 19.8 8.81375 20.8125 10.0625 20.8125Z" stroke="#626262" stroke-width="1.5" stroke-linecap="round" stroke-linejoin="round"/>
</svg>
