<svg width="119" height="120" viewBox="0 0 119 120" fill="none" xmlns="http://www.w3.org/2000/svg">
<g filter="url(#filter0_d_2088_26565)">
<path d="M59.5 14C51.6877 14 44.0507 16.3166 37.555 20.6569C31.0593 24.9973 25.9964 31.1663 23.0068 38.384C20.0171 45.6017 19.2349 53.5438 20.759 61.2061C22.2831 68.8683 26.0451 75.9065 31.5693 81.4307C37.0935 86.9549 44.1317 90.7169 51.7939 92.241C59.4562 93.7651 67.3983 92.9829 74.616 89.9932C81.8337 87.0036 88.0027 81.9408 92.3431 75.445C96.6834 68.9493 99 61.3124 99 53.5C98.9861 43.0282 94.8201 32.9893 87.4154 25.5846C80.0107 18.1799 69.9718 14.0139 59.5 14ZM81.5706 42.654L56.8831 67.3414C56.58 67.649 56.2187 67.8932 55.8203 68.0599C55.4219 68.2266 54.9944 68.3125 54.5625 68.3125C54.1307 68.3125 53.7031 68.2266 53.3047 68.0599C52.9063 67.8932 52.5451 67.649 52.2419 67.3414L40.7211 55.8206C40.1056 55.2052 39.7598 54.3704 39.7598 53.5C39.7598 52.6296 40.1056 51.7948 40.7211 51.1794C41.3365 50.5639 42.1713 50.2181 43.0417 50.2181C43.9121 50.2181 44.7468 50.5639 45.3623 51.1794L54.5625 60.3631L76.9294 38.0127C77.5449 37.3972 78.3796 37.0515 79.25 37.0515C80.1204 37.0515 80.9552 37.3972 81.5706 38.0127C82.1861 38.6282 82.5319 39.4629 82.5319 40.3333C82.5319 41.2037 82.1861 42.0385 81.5706 42.654Z" fill="#88C941"/>
<path d="M81.5706 42.654L56.8831 67.3415C56.5799 67.6491 56.2186 67.8933 55.8203 68.06C55.4219 68.2267 54.9943 68.3125 54.5625 68.3125C54.1306 68.3125 53.703 68.2267 53.3047 68.06C52.9063 67.8933 52.545 67.6491 52.2418 67.3415L40.721 55.8207C40.1055 55.2052 39.7598 54.3704 39.7598 53.5C39.7598 52.6296 40.1055 51.7949 40.721 51.1794C41.3365 50.5639 42.1712 50.2182 43.0416 50.2182C43.912 50.2182 44.7468 50.5639 45.3622 51.1794L54.5625 60.3632L76.9293 38.0127C77.5448 37.3973 78.3795 37.0515 79.25 37.0515C80.1204 37.0515 80.9551 37.3973 81.5706 38.0127C82.186 38.6282 82.5318 39.463 82.5318 40.3334C82.5318 41.2038 82.186 42.0385 81.5706 42.654Z" fill="white"/>
</g>
<defs>
<filter id="filter0_d_2088_26565" x="0.25" y="0.57" width="118.5" height="118.5" filterUnits="userSpaceOnUse" color-interpolation-filters="sRGB">
<feFlood flood-opacity="0" result="BackgroundImageFix"/>
<feColorMatrix in="SourceAlpha" type="matrix" values="0 0 0 0 0 0 0 0 0 0 0 0 0 0 0 0 0 0 127 0" result="hardAlpha"/>
<feOffset dy="6.32"/>
<feGaussianBlur stdDeviation="9.875"/>
<feComposite in2="hardAlpha" operator="out"/>
<feColorMatrix type="matrix" values="0 0 0 0 0.404167 0 0 0 0 0.404167 0 0 0 0 0.404167 0 0 0 0.14 0"/>
<feBlend mode="normal" in2="BackgroundImageFix" result="effect1_dropShadow_2088_26565"/>
<feBlend mode="normal" in="SourceGraphic" in2="effect1_dropShadow_2088_26565" result="shape"/>
</filter>
</defs>
</svg>
