<svg width="24" height="24" viewBox="0 0 24 24" fill="none" xmlns="http://www.w3.org/2000/svg">
<path d="M12.0876 24C8.72929 24 5.87509 22.8265 3.52506 20.4794C1.17502 18.1323 0 15.2817 0 11.9276C0 8.87022 0.99723 6.21932 2.99169 3.97485C4.98615 1.73038 7.45606 0.405433 10.4014 0C10.483 0 10.5631 0.00301817 10.6417 0.00905439C10.7475 0.0171834 10.7993 0.137666 10.7398 0.225517C10.2924 0.885645 9.93336 1.61178 9.66255 2.40392C9.3654 3.27314 9.21682 4.1841 9.21682 5.13682C9.21682 7.81992 10.1566 10.1001 12.0363 11.9774C13.9159 13.8546 16.1994 14.7938 18.8869 14.7948C19.8449 14.7948 20.758 14.6464 21.6263 14.3496C22.4163 14.0796 23.1329 13.7217 23.7762 13.276C23.8634 13.2155 23.9841 13.2659 23.9909 13.3717C23.996 13.4502 23.999 13.5302 24 13.6117C23.6132 16.5523 22.2961 19.0186 20.0489 21.0106C17.8016 23.0025 15.1488 23.999 12.0876 24ZM12.0861 22.4909C14.3022 22.4909 16.2916 21.8808 18.0544 20.6605C19.8172 19.4401 21.1015 17.8496 21.9073 15.8888C21.4037 16.0146 20.9 16.1152 20.3964 16.1906C19.8927 16.2661 19.3891 16.3038 18.8854 16.3038C15.789 16.3038 13.1513 15.2163 10.9726 13.0412C8.79375 10.8662 7.70486 8.23139 7.70587 5.13682C7.70587 4.6338 7.74364 4.13078 7.81919 3.62777C7.89474 3.12475 7.99547 2.62173 8.12138 2.11871C6.15714 2.92354 4.56409 4.20624 3.34223 5.9668C2.12037 7.72736 1.50995 9.71429 1.51095 11.9276C1.51095 14.8451 2.54344 17.335 4.60841 19.3974C6.67338 21.4598 9.16495 22.4909 12.0861 22.4909Z" fill="#616161"/>
</svg>
