<svg width="15" height="11" viewBox="0 0 15 11" fill="none" xmlns="http://www.w3.org/2000/svg">
<path d="M13.8167 0H11.3821C11.2261 3.36806e-05 11.0736 0.0468338 10.9439 0.134484C10.8142 0.222134 10.7131 0.346699 10.6534 0.492431C10.5937 0.638162 10.5781 0.798518 10.6085 0.953226C10.639 1.10793 10.7141 1.25005 10.8244 1.3616L11.6811 2.22786L8.85213 5.08746C8.70181 5.23271 8.5019 5.31377 8.29398 5.31377C8.08606 5.31377 7.88615 5.23271 7.73584 5.08746L7.60172 4.95106C7.15096 4.5156 6.55152 4.27259 5.92808 4.27259C5.30464 4.27259 4.7052 4.5156 4.25443 4.95106L0.231056 9.01912C0.082818 9.16942 -0.000295106 9.37312 7.87366e-07 9.58539C0.000296681 9.79765 0.0839776 10.0011 0.232634 10.151C0.381291 10.3009 0.582747 10.3849 0.792684 10.3846C1.00262 10.3843 1.20384 10.2997 1.35208 10.1494L5.37545 6.08134C5.52567 5.93591 5.72562 5.85473 5.9336 5.85473C6.14158 5.85473 6.34153 5.93591 6.49174 6.08134L6.62586 6.21774C7.07681 6.65284 7.67618 6.8956 8.2995 6.8956C8.92283 6.8956 9.5222 6.65284 9.97315 6.21774L12.8021 3.35734L13.6589 4.2236C13.7696 4.33331 13.9098 4.40763 14.062 4.43725C14.2142 4.46687 14.3717 4.45049 14.5148 4.39016C14.6578 4.32983 14.7802 4.22822 14.8665 4.09802C14.9528 3.96781 14.9992 3.81479 15 3.65806V1.19649C15 0.879158 14.8753 0.574828 14.6534 0.350443C14.4315 0.126058 14.1305 0 13.8167 0Z" fill="#49D100"/>
</svg>
