<svg width="22" height="23" viewBox="0 0 22 23" fill="none" xmlns="http://www.w3.org/2000/svg">
<path d="M16.5 17.5754H15.8033C15.07 17.5754 14.3733 17.8596 13.86 18.3729L12.2925 19.9221C11.5775 20.6279 10.4133 20.6279 9.69835 19.9221L8.13083 18.3729C7.6175 17.8596 6.91167 17.5754 6.1875 17.5754H5.5C3.97833 17.5754 2.75 16.3563 2.75 14.8529V4.84294C2.75 3.3396 3.97833 2.12044 5.5 2.12044H16.5C18.0217 2.12044 19.25 3.3396 19.25 4.84294V14.8438C19.25 16.3471 18.0217 17.5754 16.5 17.5754Z" stroke="#090909" stroke-width="1.5" stroke-miterlimit="10" stroke-linecap="round" stroke-linejoin="round"/>
<path d="M11.064 8.49127C11.0273 8.49127 10.9723 8.49127 10.9265 8.49127C9.96396 8.45461 9.20312 7.67544 9.20312 6.70377C9.20312 5.71377 10.0006 4.91628 10.9906 4.91628C11.9806 4.91628 12.7781 5.72294 12.7781 6.70377C12.7873 7.67544 12.0265 8.46377 11.064 8.49127Z" stroke="#090909" stroke-width="1.5" stroke-linecap="round" stroke-linejoin="round"/>
<path d="M8.47883 11.2504C7.25966 12.0663 7.25966 13.3954 8.47883 14.2113C9.86299 15.1371 12.1363 15.1371 13.5205 14.2113C14.7397 13.3954 14.7397 12.0663 13.5205 11.2504C12.1363 10.3338 9.87216 10.3338 8.47883 11.2504Z" stroke="#090909" stroke-width="1.5" stroke-linecap="round" stroke-linejoin="round"/>
</svg>
