<svg width="39" height="39" viewBox="0 0 39 39" fill="none" xmlns="http://www.w3.org/2000/svg">
<g clip-path="url(#clip0_9554_138632)">
<path d="M29.1433 27.8386C27.2989 27.8386 25.7983 26.3488 25.7983 24.5176C25.9817 20.112 32.3054 20.1132 32.4881 24.5176C32.4881 26.3488 30.9876 27.8386 29.1433 27.8386ZM29.1433 22.8034C28.1849 22.8034 27.4051 23.5724 27.4051 24.5176C27.5003 26.7915 30.7865 26.791 30.8813 24.5176C30.8813 23.5724 30.1016 22.8034 29.1433 22.8034Z" fill="black"/>
<path d="M7.73206 27.8386C5.88767 27.8386 4.38721 26.3488 4.38721 24.5176C4.5706 20.1119 10.8942 20.1133 11.077 24.5176C11.077 26.3488 9.57644 27.8386 7.73206 27.8386ZM7.73206 22.8034C6.77367 22.8034 5.99401 23.5724 5.99401 24.5176C6.08917 26.7916 9.37537 26.7909 9.47018 24.5176C9.47018 23.5724 8.69044 22.8034 7.73206 22.8034Z" fill="black"/>
<path d="M25.8594 23.8848H11.0149C11.1203 24.4068 11.0878 24.9906 10.9292 25.4916H25.945C25.7864 24.9906 25.7539 24.4067 25.8594 23.8848Z" fill="#FF8A01"/>
<path d="M3.20583 16.6838H3.86893C5.98121 14.1502 9.15209 12.7225 12.5079 12.8081V16.6838H14.1147V12.8081H18.5785C22.0719 12.8081 24.6324 15.1768 25.9079 16.6838H27.5063C27.5505 16.6838 27.5947 16.6875 27.6385 16.6948L27.9861 16.7527C26.0506 13.8198 22.2422 11.0913 18.5785 11.2015L12.1957 11.2014C7.96846 11.1727 3.84205 13.4544 1.61897 17.05L1.15088 17.7479C1.60794 17.1046 2.35846 16.6838 3.20583 16.6838Z" fill="black"/>
<path d="M37.0536 21.8002H35.2912C34.8475 21.8002 34.4878 21.4405 34.4878 20.9968C34.4878 20.5531 34.8475 20.1934 35.2912 20.1934H37.0536C38.1189 20.2354 38.1195 21.7578 37.0536 21.8002Z" fill="black"/>
<path d="M34.7201 17.8757L27.639 16.6948C27.564 16.6575 3.30687 16.6987 3.20616 16.6839C1.81657 16.6839 0.686035 17.8145 0.686035 19.2042V24.6882C0.686035 25.1319 1.04574 25.4916 1.48944 25.4916H4.53432C4.37576 24.9907 4.34319 24.4068 4.44865 23.8848H2.29284V19.2042C2.29284 18.7005 2.70257 18.2907 3.2063 18.2907H27.4404C27.4637 18.2943 34.4684 19.4634 34.4899 19.466C35.0372 19.5409 35.5188 19.8087 35.8707 20.1941H37.0541C38.1199 20.2364 38.1195 21.7587 37.0541 21.8009H36.4739V23.8849H32.4266C32.532 24.4069 32.4995 24.9908 32.3409 25.4917H37.2773C37.721 25.4917 38.0807 25.132 38.0807 24.6883V21.74C38.0807 19.8033 36.6367 18.1443 34.7201 17.8757Z" fill="#FF8A01"/>
</g>
<defs>
<clipPath id="clip0_9554_138632">
<rect width="37.3946" height="37.3946" fill="white" transform="translate(0.686035 0.821289)"/>
</clipPath>
</defs>
</svg>
