<svg width="207" height="32" viewBox="0 0 207 32" fill="none" xmlns="http://www.w3.org/2000/svg">
<path d="M9.26752 25.0738L9.5069 24.3557L18.1954 1.48949C18.2763 1.27644 18.4805 1.13558 18.7084 1.13558H22.2376C22.3647 1.13558 22.4677 1.23861 22.4677 1.36571C22.4677 1.39442 22.4624 1.42289 22.4519 1.44963L13.2002 25.0738H9.26752ZM9.26752 25.0738L0.0158458 1.44963C0.0053745 1.42289 0 1.39442 0 1.36571C0 1.23861 0.103031 1.13558 0.230126 1.13558H3.7593C3.98721 1.13558 4.19142 1.27644 4.27237 1.48949L12.9608 24.3557L13.2002 25.0738H9.26752Z" fill="url(#paint0_linear_8064_49765)"/>
<path d="M24.1339 25.0738C23.8308 25.0738 23.585 24.8281 23.585 24.525V8.35296C23.585 8.04983 23.8308 7.80409 24.1339 7.80409H26.9689C27.272 7.80409 27.5177 8.04983 27.5177 8.35296V24.525C27.5177 24.8281 27.272 25.0738 26.9689 25.0738H24.1339ZM25.5685 5.20508C24.8845 5.20508 24.3032 4.9657 23.8244 4.48694C23.3457 4.00817 23.1063 3.41542 23.1063 2.70867C23.1063 2.04752 23.3457 1.47756 23.8244 0.998793C24.3032 0.497231 24.8959 0.24645 25.6027 0.24645C26.2638 0.24645 26.8338 0.497231 27.3126 0.998793C27.8141 1.47756 28.0649 2.05892 28.0649 2.74286C28.0649 3.42681 27.8141 4.00817 27.3126 4.48694C26.8338 4.9657 26.2524 5.20508 25.5685 5.20508Z" fill="url(#paint1_linear_8064_49765)"/>
<path d="M38.057 25.5868C36.1875 25.5868 34.5916 25.1422 33.2693 24.2531C32.104 23.4695 31.284 22.4292 30.8092 21.1322C30.7028 20.8415 30.8845 20.5324 31.185 20.458L34.132 19.7283C34.1945 19.7128 34.2596 19.7108 34.323 19.7223C34.4944 19.7534 34.6302 19.8807 34.692 20.0435C34.9217 20.6477 35.3252 21.139 35.9025 21.5173C36.5865 21.9277 37.373 22.1328 38.2622 22.1328C39.1285 22.1328 39.8581 21.9504 40.4508 21.5857C41.0664 21.1981 41.3741 20.7079 41.3741 20.1152C41.3741 19.6136 41.1917 19.2146 40.827 18.9183C40.485 18.5991 39.9492 18.3597 39.2197 18.2001L35.9709 17.482C34.3751 17.1172 33.1553 16.513 32.3118 15.6695C31.4911 14.8032 31.0807 13.7659 31.0807 12.5575C31.0807 11.5088 31.3657 10.5969 31.9356 9.82174C32.5284 9.0238 33.3377 8.40825 34.3637 7.97508C35.3896 7.51911 36.5637 7.29113 37.886 7.29113C39.6871 7.29113 41.2146 7.7357 42.4685 8.62483C43.5744 9.40902 44.3522 10.4681 44.8019 11.802C44.9019 12.0984 44.7092 12.406 44.4032 12.4703L41.6334 13.052C41.5751 13.0642 41.515 13.065 41.4564 13.0544C41.2809 13.0225 41.143 12.8907 41.0788 12.7243C40.8645 12.1684 40.4727 11.7139 39.9036 11.3606C39.2653 10.9503 38.5357 10.7451 37.715 10.7451C36.9399 10.7451 36.2787 10.9047 35.7316 11.2238C35.2072 11.5202 34.945 11.9306 34.945 12.4549C34.945 12.8425 35.1046 13.1959 35.4238 13.5151C35.743 13.8114 36.2445 14.028 36.9285 14.1648L40.1772 14.9172C41.8643 15.3047 43.1296 15.8975 43.9731 16.6954C44.8395 17.4706 45.2726 18.5307 45.2726 19.8758C45.2726 21.0385 44.9535 22.053 44.3151 22.9194C43.6996 23.7629 42.8446 24.4241 41.7503 24.9028C40.6788 25.3588 39.4477 25.5868 38.057 25.5868Z" fill="url(#paint2_linear_8064_49765)"/>
<path d="M49.0473 25.0738C48.7442 25.0738 48.4984 24.8281 48.4984 24.525V8.35296C48.4984 8.04983 48.7442 7.80409 49.0473 7.80409H51.8823C52.1854 7.80409 52.4311 8.04983 52.4311 8.35296V24.525C52.4311 24.8281 52.1854 25.0738 51.8823 25.0738H49.0473ZM50.4819 5.20508C49.7979 5.20508 49.2166 4.9657 48.7378 4.48694C48.2591 4.00817 48.0197 3.41542 48.0197 2.70867C48.0197 2.04752 48.2591 1.47756 48.7378 0.998793C49.2166 0.497231 49.8093 0.24645 50.5161 0.24645C51.1772 0.24645 51.7472 0.497231 52.226 0.998793C52.7275 1.47756 52.9783 2.05892 52.9783 2.74286C52.9783 3.42681 52.7275 4.00817 52.226 4.48694C51.7472 4.9657 51.1658 5.20508 50.4819 5.20508Z" fill="url(#paint3_linear_8064_49765)"/>
<path d="M64.7144 25.5868C62.9818 25.5868 61.4543 25.1992 60.132 24.4241C58.8097 23.6489 57.7724 22.5774 57.02 21.2095C56.2677 19.8188 55.8915 18.2229 55.8915 16.4219C55.8915 14.6436 56.2677 13.0705 57.02 11.7026C57.7724 10.3119 58.8097 9.22899 60.132 8.45384C61.4543 7.6787 62.9818 7.29113 64.7144 7.29113C66.4699 7.29113 68.0088 7.6787 69.3311 8.45384C70.6534 9.22899 71.6907 10.3119 72.4431 11.7026C73.1954 13.0705 73.5716 14.6436 73.5716 16.4219C73.5716 18.2229 73.1954 19.8188 72.4431 21.2095C71.6907 22.5774 70.6534 23.6489 69.3311 24.4241C68.0088 25.1992 66.4699 25.5868 64.7144 25.5868ZM64.7144 22.0302C65.7176 22.0302 66.5839 21.8023 67.3135 21.3463C68.043 20.8903 68.613 20.2406 69.0233 19.397C69.4337 18.5535 69.6389 17.5732 69.6389 16.4561C69.6389 15.2933 69.4337 14.3016 69.0233 13.4809C68.613 12.6373 68.043 11.9876 67.3135 11.5316C66.5839 11.0757 65.7176 10.8477 64.7144 10.8477C63.7341 10.8477 62.8792 11.0757 62.1496 11.5316C61.4201 11.9876 60.8501 12.6373 60.4398 13.4809C60.0294 14.3016 59.8242 15.2819 59.8242 16.4219C59.8242 17.5618 60.0294 18.5535 60.4398 19.397C60.8501 20.2406 61.4201 20.8903 62.1496 21.3463C62.8792 21.8023 63.7341 22.0302 64.7144 22.0302Z" fill="url(#paint4_linear_8064_49765)"/>
<path d="M77.5341 25.0738C77.2309 25.0738 76.9852 24.8281 76.9852 24.525V8.35296C76.9852 8.04983 77.2309 7.80409 77.5341 7.80409H80.1297C80.4328 7.80409 80.6785 8.04983 80.6785 8.35296V11.7717C80.6785 12.0117 80.4752 12.2015 80.2357 12.185C79.9608 12.1661 79.7805 11.8887 79.8919 11.6367C80.239 10.8508 80.695 10.166 81.2599 9.58236C81.9438 8.85281 82.7418 8.29426 83.6537 7.90668C84.5656 7.49631 85.5574 7.29113 86.6289 7.29113C87.86 7.29113 88.9657 7.56471 89.946 8.11187C90.9492 8.63623 91.7357 9.42277 92.3057 10.4715C92.8984 11.4974 93.1948 12.7855 93.1948 14.3358V24.525C93.1948 24.8281 92.9491 25.0738 92.6459 25.0738H89.811C89.5078 25.0738 89.2621 24.8281 89.2621 24.525V15.5327C89.2621 14.4384 89.1139 13.5493 88.8175 12.8653C88.5211 12.1814 88.088 11.6798 87.518 11.3606C86.9709 11.0415 86.3325 10.8819 85.603 10.8819C84.919 10.8819 84.2123 11.0529 83.4827 11.3948C82.776 11.7368 82.1718 12.3068 81.6702 13.1047C81.1687 13.9026 80.9179 14.9856 80.9179 16.3535V24.525C80.9179 24.8281 80.6722 25.0738 80.369 25.0738H77.5341Z" fill="url(#paint5_linear_8064_49765)"/>
<path d="M106.463 25.0738C106.16 25.0738 105.914 24.8281 105.914 24.525V1.68445C105.914 1.38132 106.16 1.13558 106.463 1.13558H109.298C109.601 1.13558 109.847 1.38132 109.847 1.68445V24.525C109.847 24.8281 109.601 25.0738 109.298 25.0738H106.463Z" fill="white"/>
<path d="M115.071 25.0738C114.768 25.0738 114.522 24.8281 114.522 24.525V8.35296C114.522 8.04983 114.768 7.80409 115.071 7.80409H117.667C117.97 7.80409 118.216 8.04983 118.216 8.35296V11.7717C118.216 12.0117 118.012 12.2015 117.773 12.185C117.498 12.1661 117.318 11.8887 117.429 11.6367C117.776 10.8508 118.232 10.166 118.797 9.58236C119.481 8.85281 120.279 8.29426 121.191 7.90668C122.103 7.49631 123.094 7.29113 124.166 7.29113C125.397 7.29113 126.503 7.56471 127.483 8.11187C128.486 8.63623 129.273 9.42277 129.843 10.4715C130.436 11.4974 130.732 12.7855 130.732 14.3358V24.525C130.732 24.8281 130.486 25.0738 130.183 25.0738H127.348C127.045 25.0738 126.799 24.8281 126.799 24.525V15.5327C126.799 14.4384 126.651 13.5493 126.355 12.8653C126.058 12.1814 125.625 11.6798 125.055 11.3606C124.508 11.0415 123.87 10.8819 123.14 10.8819C122.456 10.8819 121.749 11.0529 121.02 11.3948C120.313 11.7368 119.709 12.3068 119.207 13.1047C118.706 13.9026 118.455 14.9856 118.455 16.3535V24.525C118.455 24.8281 118.209 25.0738 117.906 25.0738H115.071Z" fill="white"/>
<path d="M141.084 25.5868C139.214 25.5868 137.618 25.1422 136.296 24.2531C135.131 23.4695 134.311 22.4292 133.836 21.1322C133.729 20.8415 133.911 20.5324 134.212 20.458L137.159 19.7283C137.221 19.7128 137.286 19.7108 137.35 19.7223C137.521 19.7534 137.657 19.8807 137.719 20.0435C137.948 20.6477 138.352 21.139 138.929 21.5173C139.613 21.9277 140.4 22.1328 141.289 22.1328C142.155 22.1328 142.885 21.9504 143.477 21.5857C144.093 21.1981 144.401 20.7079 144.401 20.1152C144.401 19.6136 144.218 19.2146 143.854 18.9183C143.512 18.5991 142.976 18.3597 142.246 18.2001L138.998 17.482C137.402 17.1172 136.182 16.513 135.338 15.6695C134.518 14.8032 134.107 13.7659 134.107 12.5575C134.107 11.5088 134.392 10.5969 134.962 9.82174C135.555 9.0238 136.364 8.40825 137.39 7.97508C138.416 7.51911 139.59 7.29113 140.913 7.29113C142.714 7.29113 144.241 7.7357 145.495 8.62483C146.601 9.40902 147.379 10.4681 147.829 11.802C147.928 12.0984 147.736 12.406 147.43 12.4703L144.66 13.052C144.602 13.0642 144.542 13.065 144.483 13.0544C144.307 13.0225 144.17 12.8907 144.105 12.7243C143.891 12.1684 143.499 11.7139 142.93 11.3606C142.292 10.9503 141.562 10.7451 140.742 10.7451C139.966 10.7451 139.305 10.9047 138.758 11.2238C138.234 11.5202 137.972 11.9306 137.972 12.4549C137.972 12.8425 138.131 13.1959 138.45 13.5151C138.77 13.8114 139.271 14.028 139.955 14.1648L143.204 14.9172C144.891 15.3047 146.156 15.8975 147 16.6954C147.866 17.4706 148.299 18.5307 148.299 19.8758C148.299 21.0385 147.98 22.053 147.342 22.9194C146.726 23.7629 145.871 24.4241 144.777 24.9028C143.705 25.3588 142.474 25.5868 141.084 25.5868Z" fill="white"/>
<path d="M152.074 25.0738C151.771 25.0738 151.525 24.8281 151.525 24.525V8.35296C151.525 8.04983 151.771 7.80409 152.074 7.80409H154.909C155.212 7.80409 155.458 8.04983 155.458 8.35296V24.525C155.458 24.8281 155.212 25.0738 154.909 25.0738H152.074ZM153.508 5.20508C152.825 5.20508 152.243 4.9657 151.764 4.48694C151.286 4.00817 151.046 3.41542 151.046 2.70867C151.046 2.04752 151.286 1.47756 151.764 0.998793C152.243 0.497231 152.836 0.24645 153.543 0.24645C154.204 0.24645 154.774 0.497231 155.253 0.998793C155.754 1.47756 156.005 2.05892 156.005 2.74286C156.005 3.42681 155.754 4.00817 155.253 4.48694C154.774 4.9657 154.192 5.20508 153.508 5.20508Z" fill="white"/>
<path d="M165.56 31.9133C163.235 31.9133 161.411 31.4573 160.089 30.5454C158.766 29.6563 158.105 28.4138 158.105 26.8179C158.105 25.792 158.379 24.8914 158.926 24.1163C159.439 23.4189 160.145 22.8599 161.046 22.4393C161.233 22.3519 161.453 22.3885 161.61 22.5229L162.6 23.3714C162.908 23.636 162.829 24.142 162.528 24.416C162.382 24.5497 162.253 24.7006 162.141 24.8686C161.89 25.279 161.764 25.7236 161.764 26.2023C161.764 26.8635 162.015 27.4448 162.517 27.9464C163.041 28.448 163.885 28.6987 165.047 28.6987H167.441C168.672 28.6987 169.596 28.5164 170.211 28.1516C170.827 27.8096 171.135 27.2967 171.135 26.6127C171.135 26.0655 170.907 25.6438 170.451 25.3474C170.017 25.051 169.413 24.9028 168.638 24.9028H164.363C163.36 24.9028 162.46 24.7318 161.662 24.3899C160.887 24.0479 160.271 23.5805 159.815 22.9878C159.359 22.3722 159.131 21.6769 159.131 20.9017C159.131 20.0354 159.393 19.2716 159.918 18.6105C160.41 17.9958 161.086 17.4915 161.946 17.0978C162.128 17.0146 162.34 17.047 162.496 17.1725L163.297 17.8185C163.682 18.1294 163.476 18.8545 163.138 19.2165C163.124 19.2308 163.111 19.2454 163.098 19.2602C162.802 19.5794 162.654 19.9214 162.654 20.2862C162.654 20.7421 162.836 21.1069 163.201 21.3805C163.566 21.6313 164.124 21.7567 164.876 21.7567H169.049C170.781 21.7567 172.161 22.1898 173.186 23.0562C174.235 23.9225 174.76 25.0738 174.76 26.5101C174.76 28.1516 174.098 29.4625 172.776 30.4428C171.454 31.4231 169.664 31.9133 167.407 31.9133H165.56ZM166.586 19.568C165.173 19.568 163.93 19.3058 162.859 18.7815C161.787 18.2571 160.944 17.539 160.328 16.627C159.735 15.6923 159.439 14.6208 159.439 13.4125C159.439 12.2042 159.735 11.144 160.328 10.2321C160.944 9.32018 161.787 8.60203 162.859 8.07767C163.93 7.55331 165.173 7.29113 166.586 7.29113C168 7.29113 169.231 7.55331 170.28 8.07767C171.351 8.60203 172.183 9.32018 172.776 10.2321C173.392 11.144 173.699 12.2042 173.699 13.4125C173.699 14.6208 173.392 15.6923 172.776 16.627C172.183 17.539 171.351 18.2571 170.28 18.7815C169.231 19.3058 168 19.568 166.586 19.568ZM166.586 16.4219C167.612 16.4219 168.444 16.1483 169.083 15.6011C169.721 15.0312 170.04 14.3016 170.04 13.4125C170.04 12.5233 169.721 11.8052 169.083 11.258C168.444 10.7109 167.612 10.4373 166.586 10.4373C165.538 10.4373 164.694 10.7109 164.056 11.258C163.44 11.8052 163.132 12.5233 163.132 13.4125C163.132 14.3016 163.44 15.0312 164.056 15.6011C164.694 16.1483 165.538 16.4219 166.586 16.4219ZM171.664 9.46317C171.58 9.85985 171.155 10.1285 170.79 9.95125L169.426 9.28795C169.237 9.1961 169.115 9.00426 169.125 8.79438C169.164 7.93056 169.356 7.1559 169.698 6.47039C170.086 5.69525 170.61 5.09109 171.271 4.65792C171.955 4.20196 172.719 3.97397 173.563 3.97397C173.813 3.97397 174.053 3.98537 174.281 4.00817C174.333 4.00817 174.383 4.00938 174.429 4.01181C174.654 4.0235 174.794 4.22373 174.794 4.44816V7.30993C174.794 7.36503 174.781 7.41938 174.756 7.46867C174.679 7.62302 174.502 7.69772 174.331 7.6715C174.165 7.6459 173.977 7.6331 173.768 7.6331C173.038 7.6331 172.491 7.88388 172.126 8.38545C171.905 8.69004 171.751 9.04928 171.664 9.46317Z" fill="white"/>
<path d="M178.227 25.0738C177.924 25.0738 177.678 24.8281 177.678 24.525V0.936161C177.678 0.659356 177.884 0.425869 178.159 0.391536L181.272 0.00233981C181.411 -0.01494 181.543 0.0648952 181.592 0.195339C181.604 0.229137 181.611 0.264939 181.611 0.301036V11.6733C181.611 11.9678 181.363 12.2018 181.069 12.1855C180.726 12.1664 180.498 11.8208 180.643 11.5087C180.982 10.7762 181.419 10.1341 181.953 9.58236C182.637 8.85281 183.435 8.29426 184.347 7.90668C185.259 7.49631 186.25 7.29113 187.322 7.29113C188.553 7.29113 189.659 7.56471 190.639 8.11187C191.642 8.63623 192.429 9.42277 192.999 10.4715C193.591 11.4974 193.888 12.7855 193.888 14.3358V24.525C193.888 24.8281 193.642 25.0738 193.339 25.0738H190.504C190.201 25.0738 189.955 24.8281 189.955 24.525V15.5327C189.955 14.4384 189.807 13.5493 189.51 12.8653C189.214 12.1814 188.781 11.6798 188.211 11.3606C187.664 11.0415 187.025 10.8819 186.296 10.8819C185.612 10.8819 184.905 11.0529 184.176 11.3948C183.469 11.7368 182.865 12.3068 182.363 13.1047C181.862 13.9026 181.611 14.9856 181.611 16.3535V24.525C181.611 24.8281 181.365 25.0738 181.062 25.0738H178.227Z" fill="white"/>
<path d="M203.922 25.0738C202.235 25.0738 200.89 24.5495 199.887 23.5007C198.884 22.4292 198.382 20.9929 198.382 19.1919V3.87308C198.382 3.56996 198.628 3.32422 198.931 3.32422H201.766C202.069 3.32422 202.315 3.56996 202.315 3.87309V18.7815C202.315 19.6934 202.543 20.3774 202.999 20.8333C203.478 21.2893 204.162 21.5173 205.051 21.5173H206.52C206.708 21.5173 206.879 21.6273 206.957 21.7988C206.985 21.8612 207 21.9289 207 21.9975V24.525C207 24.8281 206.754 25.0738 206.451 25.0738H203.922ZM195.99 11.3264C195.687 11.3264 195.441 11.0807 195.441 10.7776V8.35296C195.441 8.04983 195.687 7.80409 195.99 7.80409H206.451C206.754 7.80409 207 8.04983 207 8.35296V10.7776C207 11.0807 206.754 11.3264 206.451 11.3264H195.99Z" fill="white"/>
<defs>
<linearGradient id="paint0_linear_8064_49765" x1="106.926" y1="30.7123" x2="82.8511" y2="-29.5406" gradientUnits="userSpaceOnUse">
<stop stop-color="#FE6500"/>
<stop offset="0.595" stop-color="#FF8A00"/>
</linearGradient>
<linearGradient id="paint1_linear_8064_49765" x1="106.926" y1="30.7123" x2="82.8511" y2="-29.5406" gradientUnits="userSpaceOnUse">
<stop stop-color="#FE6500"/>
<stop offset="0.595" stop-color="#FF8A00"/>
</linearGradient>
<linearGradient id="paint2_linear_8064_49765" x1="106.926" y1="30.7123" x2="82.8511" y2="-29.5406" gradientUnits="userSpaceOnUse">
<stop stop-color="#FE6500"/>
<stop offset="0.595" stop-color="#FF8A00"/>
</linearGradient>
<linearGradient id="paint3_linear_8064_49765" x1="106.926" y1="30.7123" x2="82.8511" y2="-29.5406" gradientUnits="userSpaceOnUse">
<stop stop-color="#FE6500"/>
<stop offset="0.595" stop-color="#FF8A00"/>
</linearGradient>
<linearGradient id="paint4_linear_8064_49765" x1="106.926" y1="30.7123" x2="82.8511" y2="-29.5406" gradientUnits="userSpaceOnUse">
<stop stop-color="#FE6500"/>
<stop offset="0.595" stop-color="#FF8A00"/>
</linearGradient>
<linearGradient id="paint5_linear_8064_49765" x1="106.926" y1="30.7123" x2="82.8511" y2="-29.5406" gradientUnits="userSpaceOnUse">
<stop stop-color="#FE6500"/>
<stop offset="0.595" stop-color="#FF8A00"/>
</linearGradient>
</defs>
</svg>
