<svg width="323" height="51" viewBox="0 0 323 51" fill="none" xmlns="http://www.w3.org/2000/svg">
<path d="M14.4333 39.4698L14.8059 38.3521L28.3278 2.76537C28.4538 2.43379 28.7716 2.21458 29.1263 2.21458H34.6188C34.8166 2.21458 34.9769 2.37493 34.9769 2.57272C34.9769 2.61741 34.9685 2.66171 34.9522 2.70332L20.5538 39.4698H14.4333ZM14.4333 39.4698L0.0349148 2.70332C0.0186183 2.66171 0.0102539 2.61741 0.0102539 2.57272C0.0102539 2.37493 0.170602 2.21458 0.3684 2.21458H5.86086C6.21557 2.21458 6.53337 2.43379 6.65936 2.76537L20.1813 38.3521L20.5538 39.4698H14.4333Z" fill="url(#paint0_linear_4935_6049)"/>
<path d="M37.5699 39.4698C37.0982 39.4698 36.7157 39.0873 36.7157 38.6156V13.447C36.7157 12.9752 37.0982 12.5928 37.5699 12.5928H41.982C42.4538 12.5928 42.8362 12.9752 42.8362 13.447V38.6156C42.8362 39.0873 42.4538 39.4698 41.982 39.4698H37.5699ZM39.8026 8.54796C38.7382 8.54796 37.8334 8.17541 37.0883 7.4303C36.3432 6.6852 35.9706 5.76269 35.9706 4.66278C35.9706 3.63382 36.3432 2.7468 37.0883 2.00169C37.8334 1.22111 38.7559 0.830816 39.8558 0.830816C40.8848 0.830816 41.7718 1.22111 42.5169 2.00169C43.2975 2.7468 43.6878 3.65156 43.6878 4.716C43.6878 5.78043 43.2975 6.6852 42.5169 7.4303C41.7718 8.17541 40.867 8.54796 39.8026 8.54796Z" fill="url(#paint1_linear_4935_6049)"/>
<path d="M59.2385 40.2681C56.329 40.2681 53.8454 39.5762 51.7875 38.1924C49.9739 36.973 48.6977 35.3539 47.9588 33.3353C47.7932 32.883 48.076 32.402 48.5436 32.2862L53.13 31.1505C53.2274 31.1264 53.3287 31.1232 53.4273 31.1412C53.694 31.1896 53.9053 31.3876 54.0016 31.641C54.359 32.5814 54.987 33.346 55.8855 33.9347C56.95 34.5734 58.1741 34.8927 59.5578 34.8927C60.9061 34.8927 62.0415 34.6088 62.964 34.0411C63.922 33.438 64.401 32.6751 64.401 31.7526C64.401 30.972 64.1171 30.3511 63.5495 29.8899C63.0172 29.3931 62.1834 29.0206 61.048 28.7722L55.992 27.6545C53.5083 27.0868 51.6101 26.1466 50.2973 24.8338C49.0199 23.4855 48.3813 21.8711 48.3813 19.9906C48.3813 18.3585 48.8248 16.9392 49.7118 15.7329C50.6343 14.491 51.8939 13.5331 53.4906 12.8589C55.0872 12.1493 56.9145 11.7945 58.9724 11.7945C61.7754 11.7945 64.1526 12.4864 66.1041 13.8701C67.8252 15.0906 69.0358 16.7388 69.7357 18.8148C69.8912 19.276 69.5914 19.7548 69.1151 19.8549L64.8045 20.7601C64.7138 20.7791 64.6202 20.7804 64.529 20.7638C64.2559 20.7142 64.0413 20.5092 63.9414 20.2502C63.6078 19.385 62.9981 18.6776 62.1125 18.1279C61.119 17.4892 59.9836 17.1699 58.7063 17.1699C57.4999 17.1699 56.471 17.4182 55.6194 17.915C54.8034 18.3762 54.3953 19.0149 54.3953 19.831C54.3953 20.4341 54.6437 20.9841 55.1404 21.4808C55.6372 21.9421 56.4178 22.2792 57.4822 22.492L62.5382 23.6629C65.1638 24.2661 67.133 25.1886 68.4459 26.4304C69.7941 27.6368 70.4683 29.2867 70.4683 31.3801C70.4683 33.1896 69.9715 34.7685 68.9781 36.1168C68.0201 37.4296 66.6895 38.4585 64.9864 39.2036C63.3188 39.9133 61.4028 40.2681 59.2385 40.2681Z" fill="url(#paint2_linear_4935_6049)"/>
<path d="M76.3428 39.4698C75.871 39.4698 75.4886 39.0873 75.4886 38.6156V13.447C75.4886 12.9752 75.871 12.5928 76.3428 12.5928H80.7549C81.2266 12.5928 81.6091 12.9752 81.6091 13.447V38.6156C81.6091 39.0873 81.2266 39.4698 80.7549 39.4698H76.3428ZM78.5754 8.54796C77.511 8.54796 76.6062 8.17541 75.8611 7.4303C75.116 6.6852 74.7435 5.76269 74.7435 4.66278C74.7435 3.63382 75.116 2.7468 75.8611 2.00169C76.6062 1.22111 77.5287 0.830816 78.6287 0.830816C79.6576 0.830816 80.5446 1.22111 81.2897 2.00169C82.0703 2.7468 82.4606 3.65156 82.4606 4.716C82.4606 5.78043 82.0703 6.6852 81.2897 7.4303C80.5446 8.17541 79.6399 8.54796 78.5754 8.54796Z" fill="url(#paint3_linear_4935_6049)"/>
<path d="M100.726 40.2681C98.0291 40.2681 95.6518 39.6649 93.5939 38.4585C91.536 37.2522 89.9216 35.5846 88.7507 33.4557C87.5799 31.2914 86.9944 28.8077 86.9944 26.0047C86.9944 23.2371 87.5799 20.7889 88.7507 18.6601C89.9216 16.4957 91.536 14.8104 93.5939 13.604C95.6518 12.3977 98.0291 11.7945 100.726 11.7945C103.458 11.7945 105.853 12.3977 107.911 13.604C109.968 14.8104 111.583 16.4957 112.754 18.6601C113.925 20.7889 114.51 23.2371 114.51 26.0047C114.51 28.8077 113.925 31.2914 112.754 33.4557C111.583 35.5846 109.968 37.2522 107.911 38.4585C105.853 39.6649 103.458 40.2681 100.726 40.2681ZM100.726 34.733C102.287 34.733 103.635 34.3782 104.77 33.6686C105.906 32.959 106.793 31.9478 107.432 30.635C108.07 29.3222 108.39 27.7965 108.39 26.0579C108.39 24.2484 108.07 22.7049 107.432 21.4276C106.793 20.1148 105.906 19.1036 104.77 18.394C103.635 17.6843 102.287 17.3295 100.726 17.3295C99.1999 17.3295 97.8694 17.6843 96.734 18.394C95.5986 19.1036 94.7116 20.1148 94.0729 21.4276C93.4343 22.7049 93.1149 24.2306 93.1149 26.0047C93.1149 27.7787 93.4343 29.3222 94.0729 30.635C94.7116 31.9478 95.5986 32.959 96.734 33.6686C97.8694 34.3782 99.1999 34.733 100.726 34.733Z" fill="url(#paint4_linear_4935_6049)"/>
<path d="M120.677 39.4698C120.205 39.4698 119.823 39.0873 119.823 38.6156V13.447C119.823 12.9752 120.205 12.5928 120.677 12.5928H124.716C125.188 12.5928 125.571 12.9752 125.571 13.447V18.7676C125.571 19.1412 125.254 19.4366 124.881 19.4109C124.454 19.3814 124.173 18.9497 124.346 18.5575C124.887 17.3344 125.596 16.2687 126.475 15.3603C127.54 14.2249 128.782 13.3556 130.201 12.7525C131.62 12.1138 133.164 11.7945 134.831 11.7945C136.747 11.7945 138.468 12.2203 139.994 13.0718C141.555 13.8879 142.779 15.112 143.666 16.7441C144.588 18.3407 145.05 20.3454 145.05 22.7581V38.6156C145.05 39.0873 144.667 39.4698 144.196 39.4698H139.783C139.312 39.4698 138.929 39.0873 138.929 38.6156V24.6209C138.929 22.9178 138.699 21.534 138.237 20.4696C137.776 19.4052 137.102 18.6246 136.215 18.1279C135.363 17.6311 134.37 17.3828 133.235 17.3828C132.17 17.3828 131.07 17.6489 129.935 18.1811C128.835 18.7133 127.895 19.6003 127.114 20.8422C126.333 22.084 125.943 23.7694 125.943 25.8982V38.6156C125.943 39.0873 125.561 39.4698 125.089 39.4698H120.677Z" fill="url(#paint5_linear_4935_6049)"/>
<path d="M165.699 39.4698C165.227 39.4698 164.845 39.0873 164.845 38.6156V3.06878C164.845 2.59702 165.227 2.21458 165.699 2.21458H170.111C170.583 2.21458 170.965 2.59702 170.965 3.06878V38.6156C170.965 39.0873 170.583 39.4698 170.111 39.4698H165.699Z" fill="#6A6666"/>
<path d="M179.096 39.4698C178.624 39.4698 178.242 39.0873 178.242 38.6156V13.447C178.242 12.9752 178.624 12.5928 179.096 12.5928H183.135C183.607 12.5928 183.99 12.9752 183.99 13.447V18.7676C183.99 19.1412 183.673 19.4366 183.301 19.4109C182.873 19.3814 182.592 18.9497 182.765 18.5575C183.306 17.3344 184.015 16.2687 184.894 15.3603C185.959 14.2249 187.201 13.3556 188.62 12.7525C190.039 12.1138 191.583 11.7945 193.25 11.7945C195.166 11.7945 196.887 12.2203 198.413 13.0718C199.974 13.8879 201.198 15.112 202.085 16.7441C203.008 18.3407 203.469 20.3454 203.469 22.7581V38.6156C203.469 39.0873 203.086 39.4698 202.615 39.4698H198.203C197.731 39.4698 197.348 39.0873 197.348 38.6156V24.6209C197.348 22.9178 197.118 21.534 196.656 20.4696C196.195 19.4052 195.521 18.6246 194.634 18.1279C193.782 17.6311 192.789 17.3828 191.654 17.3828C190.589 17.3828 189.489 17.6489 188.354 18.1811C187.254 18.7133 186.314 19.6003 185.533 20.8422C184.753 22.084 184.362 23.7694 184.362 25.8982V38.6156C184.362 39.0873 183.98 39.4698 183.508 39.4698H179.096Z" fill="#6A6666"/>
<path d="M219.579 40.2681C216.67 40.2681 214.186 39.5762 212.128 38.1924C210.315 36.973 209.038 35.3539 208.299 33.3353C208.134 32.883 208.417 32.402 208.884 32.2862L213.471 31.1505C213.568 31.1264 213.669 31.1232 213.768 31.1412C214.035 31.1896 214.246 31.3876 214.342 31.641C214.7 32.5814 215.328 33.346 216.226 33.9347C217.291 34.5734 218.515 34.8927 219.899 34.8927C221.247 34.8927 222.382 34.6088 223.305 34.0411C224.263 33.438 224.742 32.6751 224.742 31.7526C224.742 30.972 224.458 30.3511 223.89 29.8899C223.358 29.3931 222.524 29.0206 221.389 28.7722L216.333 27.6545C213.849 27.0868 211.951 26.1466 210.638 24.8338C209.361 23.4855 208.722 21.8711 208.722 19.9906C208.722 18.3585 209.165 16.9392 210.053 15.7329C210.975 14.491 212.235 13.5331 213.831 12.8589C215.428 12.1493 217.255 11.7945 219.313 11.7945C222.116 11.7945 224.493 12.4864 226.445 13.8701C228.166 15.0906 229.376 16.7388 230.076 18.8148C230.232 19.276 229.932 19.7548 229.456 19.8549L225.145 20.7601C225.054 20.7791 224.961 20.7804 224.87 20.7638C224.597 20.7142 224.382 20.5092 224.282 20.2502C223.949 19.385 223.339 18.6776 222.453 18.1279C221.46 17.4892 220.324 17.1699 219.047 17.1699C217.841 17.1699 216.812 17.4182 215.96 17.915C215.144 18.3762 214.736 19.0149 214.736 19.831C214.736 20.4341 214.984 20.9841 215.481 21.4808C215.978 21.9421 216.758 22.2792 217.823 22.492L222.879 23.6629C225.505 24.2661 227.474 25.1886 228.787 26.4304C230.135 27.6368 230.809 29.2867 230.809 31.3801C230.809 33.1896 230.312 34.7685 229.319 36.1168C228.361 37.4296 227.03 38.4585 225.327 39.2036C223.66 39.9133 221.744 40.2681 219.579 40.2681Z" fill="#6A6666"/>
<path d="M236.683 39.4698C236.212 39.4698 235.829 39.0873 235.829 38.6156V13.447C235.829 12.9752 236.212 12.5928 236.683 12.5928H241.096C241.567 12.5928 241.95 12.9752 241.95 13.447V38.6156C241.95 39.0873 241.567 39.4698 241.096 39.4698H236.683ZM238.916 8.54796C237.852 8.54796 236.947 8.17541 236.202 7.4303C235.457 6.6852 235.084 5.76269 235.084 4.66278C235.084 3.63382 235.457 2.7468 236.202 2.00169C236.947 1.22111 237.869 0.830816 238.969 0.830816C239.998 0.830816 240.885 1.22111 241.63 2.00169C242.411 2.7468 242.801 3.65156 242.801 4.716C242.801 5.78043 242.411 6.6852 241.63 7.4303C240.885 8.17541 239.981 8.54796 238.916 8.54796Z" fill="#6A6666"/>
<path d="M257.673 50.1141C254.054 50.1141 251.215 49.4045 249.157 47.9852C247.099 46.6015 246.07 44.6677 246.07 42.1841C246.07 40.5874 246.496 39.1859 247.348 37.9795C248.146 36.8941 249.245 36.0242 250.647 35.3696C250.938 35.2336 251.28 35.2906 251.524 35.4998L253.065 36.8203C253.545 37.232 253.421 38.0196 252.954 38.446C252.726 38.6541 252.525 38.8888 252.35 39.1504C251.96 39.7891 251.765 40.481 251.765 41.2261C251.765 42.255 252.155 43.1598 252.936 43.9404C253.752 44.721 255.065 45.1113 256.874 45.1113H260.6C262.516 45.1113 263.953 44.8274 264.911 44.2597C265.869 43.7275 266.348 42.9292 266.348 41.8647C266.348 41.0132 265.993 40.3568 265.283 39.8955C264.609 39.4343 263.669 39.2036 262.463 39.2036H255.81C254.249 39.2036 252.847 38.9375 251.605 38.4053C250.399 37.8731 249.441 37.1457 248.731 36.2232C248.022 35.2652 247.667 34.1831 247.667 32.9767C247.667 31.6284 248.075 30.4398 248.891 29.4109C249.656 28.4541 250.708 27.6694 252.047 27.0567C252.33 26.9271 252.661 26.9776 252.903 27.1729L254.149 28.1783C254.749 28.6621 254.428 29.7906 253.902 30.3539C253.881 30.3762 253.861 30.3989 253.841 30.4221C253.379 30.9188 253.149 31.451 253.149 32.0187C253.149 32.7283 253.433 33.296 254 33.7218C254.568 34.1121 255.437 34.3073 256.608 34.3073H263.101C265.798 34.3073 267.944 34.9814 269.541 36.3297C271.173 37.678 271.989 39.4698 271.989 41.7051C271.989 44.2597 270.96 46.2999 268.902 47.8256C266.844 49.3512 264.059 50.1141 260.547 50.1141H257.673ZM259.269 30.9011C257.069 30.9011 255.136 30.493 253.468 29.677C251.8 28.8609 250.488 27.7432 249.53 26.324C248.607 24.8693 248.146 23.2017 248.146 21.3212C248.146 19.4407 248.607 17.7908 249.53 16.3715C250.488 14.9523 251.8 13.8346 253.468 13.0186C255.136 12.2025 257.069 11.7945 259.269 11.7945C261.469 11.7945 263.385 12.2025 265.017 13.0186C266.685 13.8346 267.98 14.9523 268.902 16.3715C269.86 17.7908 270.339 19.4407 270.339 21.3212C270.339 23.2017 269.86 24.8693 268.902 26.324C267.98 27.7432 266.685 28.8609 265.017 29.677C263.385 30.493 261.469 30.9011 259.269 30.9011ZM259.269 26.0047C260.866 26.0047 262.161 25.5789 263.154 24.7274C264.148 23.8403 264.645 22.7049 264.645 21.3212C264.645 19.9374 264.148 18.8197 263.154 17.9682C262.161 17.1166 260.866 16.6909 259.269 16.6909C257.637 16.6909 256.324 17.1166 255.331 17.9682C254.373 18.8197 253.894 19.9374 253.894 21.3212C253.894 22.7049 254.373 23.8403 255.331 24.7274C256.324 25.5789 257.637 26.0047 259.269 26.0047ZM267.171 15.1748C267.041 15.7922 266.379 16.2102 265.812 15.9344L263.688 14.9021C263.394 14.7592 263.205 14.4606 263.22 14.134C263.281 12.7896 263.579 11.584 264.112 10.5172C264.716 9.3108 265.532 8.37055 266.561 7.69641C267.625 6.98679 268.814 6.63198 270.126 6.63198C270.517 6.63198 270.889 6.64972 271.244 6.6852C271.326 6.6852 271.403 6.68709 271.475 6.69086C271.824 6.70905 272.042 7.02068 272.042 7.36996V11.8237C272.042 11.9095 272.022 11.9941 271.984 12.0708C271.864 12.311 271.589 12.4273 271.323 12.3865C271.064 12.3466 270.771 12.3267 270.446 12.3267C269.31 12.3267 268.459 12.717 267.891 13.4976C267.546 13.9716 267.306 14.5307 267.171 15.1748Z" fill="#6A6666"/>
<path d="M277.386 39.4698C276.914 39.4698 276.531 39.0873 276.531 38.6156V1.90422C276.531 1.47342 276.852 1.11005 277.28 1.05661L282.125 0.450907C282.34 0.424014 282.546 0.548262 282.622 0.751273C282.642 0.803873 282.652 0.859592 282.652 0.915769V18.6145C282.652 19.0728 282.267 19.437 281.809 19.4116C281.275 19.3819 280.92 18.844 281.145 18.3582C281.673 17.2184 282.353 16.2191 283.184 15.3603C284.249 14.2249 285.49 13.3556 286.91 12.7525C288.329 12.1138 289.872 11.7945 291.54 11.7945C293.456 11.7945 295.177 12.2203 296.702 13.0718C298.264 13.8879 299.488 15.112 300.375 16.7441C301.297 18.3407 301.758 20.3454 301.758 22.7581V38.6156C301.758 39.0873 301.376 39.4698 300.904 39.4698H296.492C296.02 39.4698 295.638 39.0873 295.638 38.6156V24.6209C295.638 22.9178 295.407 21.534 294.946 20.4696C294.485 19.4052 293.811 18.6246 292.924 18.1279C292.072 17.6311 291.079 17.3828 289.943 17.3828C288.879 17.3828 287.779 17.6489 286.644 18.1811C285.544 18.7133 284.603 19.6003 283.823 20.8422C283.042 22.084 282.652 23.7694 282.652 25.8982V38.6156C282.652 39.0873 282.269 39.4698 281.798 39.4698H277.386Z" fill="#6A6666"/>
<path d="M317.375 39.4698C314.75 39.4698 312.656 38.6537 311.095 37.0216C309.534 35.3539 308.753 33.1186 308.753 30.3156V6.47496C308.753 6.0032 309.136 5.62077 309.608 5.62077H314.02C314.491 5.62077 314.874 6.0032 314.874 6.47497V29.677C314.874 31.0962 315.229 32.1606 315.938 32.8703C316.683 33.5799 317.748 33.9347 319.132 33.9347H321.418C321.711 33.9347 321.977 34.106 322.098 34.3728C322.142 34.4699 322.165 34.5753 322.165 34.682V38.6156C322.165 39.0873 321.783 39.4698 321.311 39.4698H317.375ZM305.03 18.0746C304.559 18.0746 304.176 17.6922 304.176 17.2204V13.447C304.176 12.9752 304.559 12.5928 305.03 12.5928H321.311C321.783 12.5928 322.165 12.9752 322.165 13.447V17.2204C322.165 17.6922 321.783 18.0746 321.311 18.0746H305.03Z" fill="#6A6666"/>
<defs>
<linearGradient id="paint0_linear_4935_6049" x1="166.419" y1="48.2449" x2="128.952" y2="-45.5269" gradientUnits="userSpaceOnUse">
<stop stop-color="#FE6500"/>
<stop offset="0.595" stop-color="#FF8A00"/>
</linearGradient>
<linearGradient id="paint1_linear_4935_6049" x1="166.419" y1="48.2449" x2="128.952" y2="-45.5269" gradientUnits="userSpaceOnUse">
<stop stop-color="#FE6500"/>
<stop offset="0.595" stop-color="#FF8A00"/>
</linearGradient>
<linearGradient id="paint2_linear_4935_6049" x1="166.419" y1="48.2449" x2="128.952" y2="-45.5269" gradientUnits="userSpaceOnUse">
<stop stop-color="#FE6500"/>
<stop offset="0.595" stop-color="#FF8A00"/>
</linearGradient>
<linearGradient id="paint3_linear_4935_6049" x1="166.419" y1="48.2449" x2="128.952" y2="-45.5269" gradientUnits="userSpaceOnUse">
<stop stop-color="#FE6500"/>
<stop offset="0.595" stop-color="#FF8A00"/>
</linearGradient>
<linearGradient id="paint4_linear_4935_6049" x1="166.419" y1="48.2449" x2="128.952" y2="-45.5269" gradientUnits="userSpaceOnUse">
<stop stop-color="#FE6500"/>
<stop offset="0.595" stop-color="#FF8A00"/>
</linearGradient>
<linearGradient id="paint5_linear_4935_6049" x1="166.419" y1="48.2449" x2="128.952" y2="-45.5269" gradientUnits="userSpaceOnUse">
<stop stop-color="#FE6500"/>
<stop offset="0.595" stop-color="#FF8A00"/>
</linearGradient>
</defs>
</svg>
