<svg width="48" height="48" viewBox="0 0 48 48" fill="none" xmlns="http://www.w3.org/2000/svg">
<path d="M16.638 40.0502L16.9485 39.1187L28.2183 9.45906C28.3233 9.1827 28.5882 9 28.8838 9H33.4615C33.6264 9 33.76 9.13364 33.76 9.2985C33.76 9.33574 33.753 9.37266 33.7395 9.40734L21.7392 40.0502H16.638ZM16.638 40.0502L10.6379 24.7288L4.63774 9.40734C4.62416 9.37266 4.61719 9.33574 4.61719 9.2985C4.61719 9.13364 4.75083 9 4.91568 9H9.49336C9.78899 9 10.0539 9.1827 10.1589 9.45906L21.4286 39.1187L21.7392 40.0502H16.638Z" fill="url(#paint0_linear_425_145)"/>
<path d="M38.9902 40.5093C38.597 40.5093 38.2783 40.1905 38.2783 39.7973V10.171C38.2783 9.7778 38.597 9.45906 38.9902 9.45906H42.6675C43.0607 9.45906 43.3794 9.7778 43.3794 10.171V39.7973C43.3794 40.1905 43.0607 40.5093 42.6675 40.5093H38.9902Z" fill="#6A6666"/>
<defs>
<linearGradient id="paint0_linear_425_145" x1="24.6398" y1="39.3234" x2="-2.08514" y2="26.6378" gradientUnits="userSpaceOnUse">
<stop stop-color="#FE6500"/>
<stop offset="0.595" stop-color="#FF8A00"/>
</linearGradient>
</defs>
</svg>
