<svg width="22" height="23" viewBox="0 0 22 23" fill="none" xmlns="http://www.w3.org/2000/svg">
<path d="M8.39635 10.2513C8.30469 10.2421 8.19469 10.2421 8.09385 10.2513C5.91219 10.1779 4.17969 8.39045 4.17969 6.19045C4.17969 3.94461 5.99469 2.12045 8.24969 2.12045C10.4955 2.12045 12.3197 3.94461 12.3197 6.19045C12.3105 8.39045 10.578 10.1779 8.39635 10.2513Z" stroke="#090909" stroke-width="1.5" stroke-linecap="round" stroke-linejoin="round"/>
<path d="M15.043 3.95377C16.8213 3.95377 18.2513 5.39294 18.2513 7.16211C18.2513 8.89461 16.8763 10.3063 15.1622 10.3704C15.0888 10.3613 15.0063 10.3613 14.9238 10.3704" stroke="#090909" stroke-width="1.5" stroke-linecap="round" stroke-linejoin="round"/>
<path d="M3.81316 13.6338C1.59483 15.1188 1.59483 17.5388 3.81316 19.0146C6.334 20.7013 10.4682 20.7013 12.989 19.0146C15.2073 17.5296 15.2073 15.1096 12.989 13.6338C10.4773 11.9563 6.34316 11.9563 3.81316 13.6338Z" stroke="#090909" stroke-width="1.5" stroke-linecap="round" stroke-linejoin="round"/>
<path d="M16.8115 18.6204C17.4715 18.4829 18.0949 18.2171 18.6082 17.8229C20.0382 16.7504 20.0382 14.9813 18.6082 13.9088C18.104 13.5238 17.4899 13.2671 16.839 13.1204" stroke="#090909" stroke-width="1.5" stroke-linecap="round" stroke-linejoin="round"/>
</svg>
