<svg width="119" height="120" viewBox="0 0 119 120" fill="none" xmlns="http://www.w3.org/2000/svg">
<g filter="url(#filter0_d_1492_5737)">
<circle cx="59.5" cy="53.5" r="39.5" fill="#F4731F"/>
<path d="M74.3125 44.8254C74.2796 44.8254 74.2302 44.8254 74.1809 44.8254C65.4744 43.9531 56.7844 43.624 48.1767 44.4963L44.8192 44.8254C44.1279 44.8913 43.519 44.3975 43.4532 43.7063C43.3873 43.015 43.8811 42.4225 44.5559 42.3567L47.9134 42.0275C56.6692 41.1388 65.5402 41.4844 74.4277 42.3567C75.1025 42.4225 75.5963 43.0315 75.5304 43.7063C75.4811 44.3481 74.9379 44.8254 74.3125 44.8254Z" fill="white"/>
<path d="M53.7395 43.1621C53.6737 43.1621 53.6078 43.1621 53.5255 43.1456C52.8672 43.0304 52.4064 42.3885 52.5216 41.7302L52.8837 39.5741C53.147 37.9941 53.5091 35.8052 57.3439 35.8052H61.656C65.5072 35.8052 65.8693 38.0764 66.1162 39.5906L66.4783 41.7302C66.5935 42.405 66.1326 43.0468 65.4743 43.1456C64.7995 43.2608 64.1576 42.8 64.0589 42.1416L63.6968 40.0021C63.4664 38.5702 63.417 38.2904 61.6724 38.2904H57.3603C55.6158 38.2904 55.5828 38.5208 55.336 39.9856L54.9574 42.1252C54.8587 42.7341 54.332 43.1621 53.7395 43.1621Z" fill="white"/>
<path d="M64.7839 71.1921H54.2177C48.4737 71.1921 48.2433 68.0156 48.0623 65.4481L46.9925 48.8746C46.9431 48.1998 47.4698 47.6073 48.1445 47.5579C48.8358 47.525 49.4118 48.0352 49.4612 48.71L50.531 65.2835C50.712 67.7852 50.7779 68.7233 54.2177 68.7233H64.7839C68.2402 68.7233 68.306 67.7852 68.4706 65.2835L69.5404 48.71C69.5898 48.0352 70.1823 47.525 70.857 47.5579C71.5318 47.6073 72.0585 48.1833 72.0091 48.8746L70.9393 65.4481C70.7583 68.0156 70.5279 71.1921 64.7839 71.1921Z" fill="white"/>
<path d="M62.2326 62.1406H56.752C56.0772 62.1406 55.5176 61.581 55.5176 60.9062C55.5176 60.2315 56.0772 59.6719 56.752 59.6719H62.2326C62.9074 59.6719 63.467 60.2315 63.467 60.9062C63.467 61.581 62.9074 62.1406 62.2326 62.1406Z" fill="white"/>
<path d="M63.6139 55.5552H55.3848C54.71 55.5552 54.1504 54.9956 54.1504 54.3208C54.1504 53.646 54.71 53.0864 55.3848 53.0864H63.6139C64.2887 53.0864 64.8483 53.646 64.8483 54.3208C64.8483 54.9956 64.2887 55.5552 63.6139 55.5552Z" fill="white"/>
</g>
<defs>
<filter id="filter0_d_1492_5737" x="0.25" y="0.57" width="118.5" height="118.5" filterUnits="userSpaceOnUse" color-interpolation-filters="sRGB">
<feFlood flood-opacity="0" result="BackgroundImageFix"/>
<feColorMatrix in="SourceAlpha" type="matrix" values="0 0 0 0 0 0 0 0 0 0 0 0 0 0 0 0 0 0 127 0" result="hardAlpha"/>
<feOffset dy="6.32"/>
<feGaussianBlur stdDeviation="9.875"/>
<feComposite in2="hardAlpha" operator="out"/>
<feColorMatrix type="matrix" values="0 0 0 0 0.404167 0 0 0 0 0.404167 0 0 0 0 0.404167 0 0 0 0.14 0"/>
<feBlend mode="normal" in2="BackgroundImageFix" result="effect1_dropShadow_1492_5737"/>
<feBlend mode="normal" in="SourceGraphic" in2="effect1_dropShadow_1492_5737" result="shape"/>
</filter>
</defs>
</svg>
