<svg width="18" height="18" viewBox="0 0 18 18" fill="none" xmlns="http://www.w3.org/2000/svg">
<path d="M7.59692 13.0908C7.33709 13.0908 7.12646 12.8802 7.12646 12.6203V7.83398C7.12646 7.57415 7.33709 7.36353 7.59692 7.36353C7.85674 7.36353 8.06737 7.57416 8.06737 7.83398V8.63807C8.06737 9.19036 8.51509 9.63807 9.06737 9.63807H9.66919C10.2215 9.63807 10.6692 9.19036 10.6692 8.63807V7.84216C10.6692 7.57782 10.8835 7.36353 11.1478 7.36353C11.4122 7.36353 11.6265 7.57782 11.6265 7.84216V12.6122C11.6265 12.8765 11.4122 13.0908 11.1478 13.0908C10.8835 13.0908 10.6692 12.8765 10.6692 12.6122V11.5135C10.6692 10.9612 10.2215 10.5135 9.66919 10.5135H9.06737C8.51509 10.5135 8.06737 10.9612 8.06737 11.5135V12.6203C8.06737 12.8802 7.85674 13.0908 7.59692 13.0908Z" fill="#7BA220"/>
<path d="M16.4998 8.25V12.75C16.4998 15.75 15.7498 16.5 12.7498 16.5H5.24976C2.24976 16.5 1.49976 15.75 1.49976 12.75V5.25C1.49976 2.25 2.24976 1.5 5.24976 1.5H6.37476C7.49976 1.5 7.74726 1.83 8.17476 2.4L9.29976 3.9C9.58476 4.275 9.74976 4.5 10.4998 4.5H12.7498C15.7498 4.5 16.4998 5.25 16.4998 8.25Z" stroke="#7BA220" stroke-width="1.5" stroke-miterlimit="10"/>
<path d="M5.99976 1.5H12.7498C14.2498 1.5 14.9998 2.25 14.9998 3.75V4.785" stroke="#7BA220" stroke-width="1.5" stroke-miterlimit="10" stroke-linecap="round" stroke-linejoin="round"/>
</svg>
