<svg width="274" height="42" viewBox="0 0 274 42" fill="none" xmlns="http://www.w3.org/2000/svg">
<path d="M12.2671 32.9988L12.584 32.0536L24.0847 1.96027C24.1919 1.67988 24.4621 1.4945 24.7638 1.4945H29.4353C29.6035 1.4945 29.7399 1.6301 29.7399 1.79736C29.7399 1.83515 29.7328 1.87261 29.7189 1.9078L17.4728 32.9988H12.2671ZM12.2671 32.9988L0.0209746 1.9078C0.00711408 1.87261 0 1.83515 0 1.79736C0 1.6301 0.136379 1.4945 0.304612 1.4945H4.97607C5.27776 1.4945 5.54806 1.67988 5.65521 1.96027L17.1559 32.0536L17.4728 32.9988H12.2671Z" fill="url(#paint0_linear_14890_124751)"/>
<path d="M31.9454 32.9988C31.5441 32.9988 31.2188 32.6754 31.2188 32.2764V10.993C31.2188 10.5941 31.5441 10.2707 31.9454 10.2707H35.6979C36.0992 10.2707 36.4245 10.5941 36.4245 10.993V32.2764C36.4245 32.6754 36.0992 32.9988 35.6979 32.9988H31.9454ZM33.8443 6.85023C32.939 6.85023 32.1694 6.53519 31.5357 5.9051C30.902 5.27501 30.5851 4.49491 30.5851 3.56478C30.5851 2.69466 30.902 1.94456 31.5357 1.31448C32.1694 0.654388 32.954 0.324344 33.8895 0.324344C34.7647 0.324344 35.5191 0.654388 36.1529 1.31448C36.8168 1.94456 37.1487 2.70967 37.1487 3.60979C37.1487 4.50991 36.8168 5.27501 36.1529 5.9051C35.5191 6.53519 34.7496 6.85023 33.8443 6.85023Z" fill="url(#paint1_linear_14890_124751)"/>
<path d="M50.3749 33.6739C47.9004 33.6739 45.788 33.0888 44.0377 31.9186C42.4952 30.8874 41.4097 29.5183 40.7813 27.8113C40.6405 27.4288 40.881 27.022 41.2787 26.9241L45.1796 25.9637C45.2623 25.9434 45.3485 25.9407 45.4324 25.9558C45.6592 25.9968 45.839 26.1643 45.9209 26.3785C46.2248 27.1738 46.7589 27.8203 47.5232 28.3181C48.4285 28.8582 49.4696 29.1283 50.6465 29.1283C51.7933 29.1283 52.759 28.8882 53.5436 28.4082C54.3584 27.8981 54.7658 27.253 54.7658 26.4729C54.7658 25.8128 54.5243 25.2877 54.0415 24.8977C53.5888 24.4776 52.8797 24.1626 51.914 23.9526L47.6137 23.0074C45.5013 22.5274 43.8868 21.7322 42.7702 20.6221C41.6838 19.4819 41.1406 18.1168 41.1406 16.5265C41.1406 15.1464 41.5178 13.9462 42.2723 12.9261C43.0569 11.8759 44.1282 11.0658 45.4862 10.4957C46.8442 9.89564 48.3983 9.5956 50.1486 9.5956C52.5326 9.5956 54.5545 10.1807 56.2143 11.3508C57.6781 12.3829 58.7077 13.7767 59.303 15.5322C59.4353 15.9223 59.1803 16.3272 58.7752 16.4117L55.109 17.1772C55.0318 17.1933 54.9522 17.1944 54.8746 17.1804C54.6424 17.1384 54.4598 16.965 54.3749 16.7461C54.0911 16.0144 53.5726 15.4162 52.8193 14.9513C51.9743 14.4113 51.0087 14.1412 49.9223 14.1412C48.8962 14.1412 48.0211 14.3512 47.2968 14.7713C46.6028 15.1614 46.2557 15.7014 46.2557 16.3915C46.2557 16.9016 46.467 17.3667 46.8894 17.7867C47.3119 18.1768 47.9758 18.4618 48.8812 18.6418L53.1814 19.632C55.4146 20.142 57.0894 20.9221 58.206 21.9723C59.3527 22.9924 59.9261 24.3876 59.9261 26.1579C59.9261 27.6881 59.5036 29.0232 58.6587 30.1634C57.8439 31.2735 56.7122 32.1437 55.2637 32.7738C53.8454 33.3738 52.2158 33.6739 50.3749 33.6739Z" fill="url(#paint2_linear_14890_124751)"/>
<path d="M64.9225 32.9988C64.5213 32.9988 64.196 32.6754 64.196 32.2764V10.993C64.196 10.5941 64.5213 10.2707 64.9225 10.2707H68.6751C69.0763 10.2707 69.4016 10.5941 69.4016 10.993V32.2764C69.4016 32.6754 69.0763 32.9988 68.6751 32.9988H64.9225ZM66.8214 6.85023C65.9161 6.85023 65.1466 6.53519 64.5129 5.9051C63.8791 5.27501 63.5623 4.49491 63.5623 3.56478C63.5623 2.69466 63.8791 1.94456 64.5129 1.31448C65.1466 0.654388 65.9312 0.324344 66.8667 0.324344C67.7418 0.324344 68.4963 0.654388 69.13 1.31448C69.7939 1.94456 70.1259 2.70967 70.1259 3.60979C70.1259 4.50991 69.7939 5.27501 69.13 5.9051C68.4963 6.53519 67.7268 6.85023 66.8214 6.85023Z" fill="url(#paint3_linear_14890_124751)"/>
<path d="M85.6607 33.6739C83.3672 33.6739 81.3453 33.1638 79.595 32.1437C77.8447 31.1235 76.4716 29.7133 75.4758 27.9131C74.4799 26.0828 73.982 23.9826 73.982 21.6122C73.982 19.2719 74.4799 17.2016 75.4758 15.4014C76.4716 13.5711 77.8447 12.1459 79.595 11.1258C81.3453 10.1057 83.3672 9.5956 85.6607 9.5956C87.9843 9.5956 90.0213 10.1057 91.7716 11.1258C93.5219 12.1459 94.895 13.5711 95.8908 15.4014C96.8867 17.2016 97.3846 19.2719 97.3846 21.6122C97.3846 23.9826 96.8867 26.0828 95.8908 27.9131C94.895 29.7133 93.5219 31.1235 91.7716 32.1437C90.0213 33.1638 87.9843 33.6739 85.6607 33.6739ZM85.6607 28.9932C86.9885 28.9932 88.1352 28.6932 89.1009 28.0931C90.0666 27.493 90.821 26.6379 91.3642 25.5278C91.9074 24.4176 92.179 23.1274 92.179 21.6572C92.179 20.127 91.9074 18.8219 91.3642 17.7417C90.821 16.6316 90.0666 15.7764 89.1009 15.1764C88.1352 14.5763 86.9885 14.2762 85.6607 14.2762C84.363 14.2762 83.2314 14.5763 82.2657 15.1764C81.3 15.7764 80.5456 16.6316 80.0024 17.7417C79.4592 18.8219 79.1876 20.112 79.1876 21.6122C79.1876 23.1124 79.4592 24.4176 80.0024 25.5278C80.5456 26.6379 81.3 27.493 82.2657 28.0931C83.2314 28.6932 84.363 28.9932 85.6607 28.9932Z" fill="url(#paint4_linear_14890_124751)"/>
<path d="M102.63 32.9988C102.228 32.9988 101.903 32.6754 101.903 32.2764V10.993C101.903 10.5941 102.228 10.2707 102.63 10.2707H106.065C106.467 10.2707 106.792 10.5941 106.792 10.993V15.4923C106.792 15.8082 106.523 16.058 106.206 16.0363C105.842 16.0113 105.603 15.6463 105.751 15.3146C106.21 14.2804 106.814 13.3792 107.561 12.611C108.467 11.6509 109.523 10.9158 110.73 10.4057C111.937 9.86564 113.25 9.5956 114.668 9.5956C116.298 9.5956 117.761 9.95565 119.059 10.6757C120.387 11.3658 121.428 12.401 122.182 13.7812C122.967 15.1314 123.359 16.8266 123.359 18.8669V32.2764C123.359 32.6754 123.034 32.9988 122.633 32.9988H118.88C118.479 32.9988 118.154 32.6754 118.154 32.2764V20.4421C118.154 19.0019 117.958 17.8317 117.565 16.9316C117.173 16.0315 116.6 15.3714 115.845 14.9513C115.121 14.5313 114.276 14.3212 113.31 14.3212C112.405 14.3212 111.469 14.5463 110.504 14.9963C109.568 15.4464 108.768 16.1965 108.105 17.2466C107.441 18.2968 107.109 19.722 107.109 21.5222V32.2764C107.109 32.6754 106.783 32.9988 106.382 32.9988H102.63Z" fill="url(#paint5_linear_14890_124751)"/>
<path d="M140.922 32.9988C140.521 32.9988 140.195 32.6754 140.195 32.2764V2.21684C140.195 1.8179 140.521 1.4945 140.922 1.4945H144.675C145.076 1.4945 145.401 1.8179 145.401 2.21684V32.2764C145.401 32.6754 145.076 32.9988 144.675 32.9988H140.922Z" fill="white"/>
<path d="M152.316 32.9988C151.915 32.9988 151.59 32.6754 151.59 32.2764V10.993C151.59 10.5941 151.915 10.2707 152.316 10.2707H155.752C156.153 10.2707 156.479 10.5941 156.479 10.993V15.4923C156.479 15.8082 156.209 16.058 155.892 16.0363C155.529 16.0113 155.29 15.6463 155.437 15.3146C155.897 14.2804 156.5 13.3792 157.248 12.611C158.153 11.6509 159.21 10.9158 160.417 10.4057C161.624 9.86564 162.937 9.5956 164.355 9.5956C165.985 9.5956 167.448 9.95565 168.746 10.6757C170.074 11.3658 171.115 12.401 171.869 13.7812C172.654 15.1314 173.046 16.8266 173.046 18.8669V32.2764C173.046 32.6754 172.721 32.9988 172.32 32.9988H168.567C168.166 32.9988 167.84 32.6754 167.84 32.2764V20.4421C167.84 19.0019 167.644 17.8317 167.252 16.9316C166.86 16.0315 166.286 15.3714 165.532 14.9513C164.808 14.5313 163.963 14.3212 162.997 14.3212C162.092 14.3212 161.156 14.5463 160.19 14.9963C159.255 15.4464 158.455 16.1965 157.791 17.2466C157.127 18.2968 156.795 19.722 156.795 21.5222V32.2764C156.795 32.6754 156.47 32.9988 156.069 32.9988H152.316Z" fill="white"/>
<path d="M186.748 33.6739C184.274 33.6739 182.161 33.0888 180.411 31.9186C178.869 30.8874 177.783 29.5183 177.155 27.8113C177.014 27.4288 177.254 27.022 177.652 26.9241L181.553 25.9637C181.636 25.9434 181.722 25.9407 181.806 25.9558C182.033 25.9968 182.212 26.1643 182.294 26.3785C182.598 27.1738 183.132 27.8203 183.897 28.3181C184.802 28.8582 185.843 29.1283 187.02 29.1283C188.167 29.1283 189.132 28.8882 189.917 28.4082C190.732 27.8981 191.139 27.253 191.139 26.4729C191.139 25.8128 190.898 25.2877 190.415 24.8977C189.962 24.4776 189.253 24.1626 188.287 23.9526L183.987 23.0074C181.875 22.5274 180.26 21.7322 179.144 20.6221C178.057 19.4819 177.514 18.1168 177.514 16.5265C177.514 15.1464 177.891 13.9462 178.646 12.9261C179.43 11.8759 180.502 11.0658 181.86 10.4957C183.218 9.89564 184.772 9.5956 186.522 9.5956C188.906 9.5956 190.928 10.1807 192.588 11.3508C194.051 12.3829 195.081 13.7767 195.676 15.5322C195.809 15.9223 195.554 16.3272 195.149 16.4117L191.482 17.1772C191.405 17.1933 191.326 17.1944 191.248 17.1804C191.016 17.1384 190.833 16.965 190.748 16.7461C190.464 16.0144 189.946 15.4162 189.193 14.9513C188.348 14.4113 187.382 14.1412 186.296 14.1412C185.27 14.1412 184.394 14.3512 183.67 14.7713C182.976 15.1614 182.629 15.7014 182.629 16.3915C182.629 16.9016 182.84 17.3667 183.263 17.7867C183.685 18.1768 184.349 18.4618 185.254 18.6418L189.555 19.632C191.788 20.142 193.463 20.9221 194.579 21.9723C195.726 22.9924 196.299 24.3876 196.299 26.1579C196.299 27.6881 195.877 29.0232 195.032 30.1634C194.217 31.2735 193.086 32.1437 191.637 32.7738C190.219 33.3738 188.589 33.6739 186.748 33.6739Z" fill="white"/>
<path d="M201.296 32.9988C200.895 32.9988 200.569 32.6754 200.569 32.2764V10.993C200.569 10.5941 200.895 10.2707 201.296 10.2707H205.048C205.45 10.2707 205.775 10.5941 205.775 10.993V32.2764C205.775 32.6754 205.45 32.9988 205.048 32.9988H201.296ZM203.195 6.85023C202.289 6.85023 201.52 6.53519 200.886 5.9051C200.252 5.27501 199.936 4.49491 199.936 3.56478C199.936 2.69466 200.252 1.94456 200.886 1.31448C201.52 0.654388 202.305 0.324344 203.24 0.324344C204.115 0.324344 204.87 0.654388 205.503 1.31448C206.167 1.94456 206.499 2.70967 206.499 3.60979C206.499 4.50991 206.167 5.27501 205.503 5.9051C204.87 6.53519 204.1 6.85023 203.195 6.85023Z" fill="white"/>
<path d="M219.148 42C216.069 42 213.655 41.3999 211.905 40.1998C210.155 39.0296 209.28 37.3944 209.28 35.2941C209.28 33.9439 209.642 32.7587 210.366 31.7386C211.045 30.8208 211.98 30.0851 213.172 29.5315C213.42 29.4165 213.711 29.4647 213.918 29.6416L215.229 30.7583C215.637 31.1065 215.532 31.7725 215.134 32.1331C214.94 32.309 214.769 32.5075 214.621 32.7287C214.289 33.2688 214.123 33.8539 214.123 34.484C214.123 35.3541 214.455 36.1192 215.119 36.7793C215.813 37.4394 216.93 37.7694 218.469 37.7694H221.637C223.267 37.7694 224.489 37.5294 225.304 37.0493C226.119 36.5993 226.526 35.9242 226.526 35.0241C226.526 34.304 226.224 33.7489 225.621 33.3588C225.047 32.9688 224.248 32.7738 223.222 32.7738H217.563C216.235 32.7738 215.043 32.5487 213.987 32.0987C212.961 31.6486 212.146 31.0335 211.543 30.2534C210.939 29.4433 210.638 28.5282 210.638 27.508C210.638 26.3679 210.985 25.3627 211.679 24.4926C212.33 23.6836 213.224 23.02 214.363 22.5018C214.604 22.3923 214.885 22.4349 215.091 22.6001L216.151 23.4503C216.661 23.8595 216.388 24.8137 215.941 25.2901C215.923 25.3089 215.905 25.3282 215.888 25.3477C215.496 25.7678 215.3 26.2179 215.3 26.6979C215.3 27.298 215.541 27.7781 216.024 28.1381C216.507 28.4682 217.246 28.6332 218.242 28.6332H223.765C226.058 28.6332 227.884 29.2033 229.242 30.3434C230.63 31.4836 231.324 32.9988 231.324 34.889C231.324 37.0493 230.449 38.7746 228.699 40.0647C226.948 41.3549 224.58 42 221.592 42H219.148ZM220.506 25.7528C218.635 25.7528 216.99 25.4077 215.572 24.7177C214.153 24.0276 213.037 23.0824 212.222 21.8823C211.437 20.6521 211.045 19.2419 211.045 17.6517C211.045 16.0615 211.437 14.6663 212.222 13.4661C213.037 12.266 214.153 11.3208 215.572 10.6307C216.99 9.94065 218.635 9.5956 220.506 9.5956C222.377 9.5956 224.006 9.94065 225.394 10.6307C226.813 11.3208 227.914 12.266 228.699 13.4661C229.514 14.6663 229.921 16.0615 229.921 17.6517C229.921 19.2419 229.514 20.6521 228.699 21.8823C227.914 23.0824 226.813 24.0276 225.394 24.7177C224.006 25.4077 222.377 25.7528 220.506 25.7528ZM220.506 21.6122C221.864 21.6122 222.965 21.2522 223.81 20.5321C224.655 19.782 225.077 18.8219 225.077 17.6517C225.077 16.4815 224.655 15.5364 223.81 14.8163C222.965 14.0962 221.864 13.7362 220.506 13.7362C219.117 13.7362 218.001 14.0962 217.156 14.8163C216.341 15.5364 215.934 16.4815 215.934 17.6517C215.934 18.8219 216.341 19.782 217.156 20.5321C218.001 21.2522 219.117 21.6122 220.506 21.6122ZM227.226 12.4542C227.116 12.9762 226.553 13.3297 226.07 13.0965L224.264 12.2236C224.014 12.1027 223.853 11.8502 223.866 11.574C223.918 10.4371 224.171 9.41763 224.625 8.51546C225.138 7.49532 225.832 6.70021 226.707 6.13013C227.612 5.53005 228.623 5.23001 229.74 5.23001C230.072 5.23001 230.389 5.24501 230.69 5.27501C230.76 5.27501 230.826 5.27661 230.887 5.2798C231.184 5.29518 231.369 5.55871 231.369 5.85407V9.62035C231.369 9.69287 231.352 9.76439 231.32 9.82925C231.218 10.0324 230.983 10.1307 230.758 10.0962C230.537 10.0625 230.288 10.0457 230.011 10.0457C229.046 10.0457 228.322 10.3757 227.839 11.0358C227.545 11.4367 227.341 11.9094 227.226 12.4542Z" fill="white"/>
<path d="M235.914 32.9988C235.513 32.9988 235.187 32.6754 235.187 32.2764V1.23205C235.187 0.867756 235.46 0.560472 235.824 0.515287L239.945 0.00307934C240.128 -0.019662 240.303 0.0854063 240.368 0.257079C240.384 0.30156 240.393 0.348678 240.393 0.396183V15.3628C240.393 15.7504 240.066 16.0584 239.676 16.0369C239.222 16.0118 238.92 15.5569 239.112 15.1461C239.561 14.1822 240.139 13.3372 240.846 12.611C241.751 11.6509 242.807 10.9158 244.014 10.4057C245.221 9.86564 246.534 9.5956 247.952 9.5956C249.582 9.5956 251.046 9.95565 252.343 10.6757C253.671 11.3658 254.712 12.401 255.467 13.7812C256.251 15.1314 256.644 16.8266 256.644 18.8669V32.2764C256.644 32.6754 256.318 32.9988 255.917 32.9988H252.164C251.763 32.9988 251.438 32.6754 251.438 32.2764V20.4421C251.438 19.0019 251.242 17.8317 250.85 16.9316C250.457 16.0315 249.884 15.3714 249.129 14.9513C248.405 14.5313 247.56 14.3212 246.594 14.3212C245.689 14.3212 244.754 14.5463 243.788 14.9963C242.852 15.4464 242.053 16.1965 241.389 17.2466C240.725 18.2968 240.393 19.722 240.393 21.5222V32.2764C240.393 32.6754 240.068 32.9988 239.667 32.9988H235.914Z" fill="white"/>
<path d="M269.926 32.9988C267.693 32.9988 265.912 32.3087 264.585 30.9285C263.257 29.5183 262.593 27.628 262.593 25.2577V5.09723C262.593 4.69829 262.918 4.37489 263.319 4.37489H267.072C267.473 4.37489 267.798 4.6983 267.798 5.09723V24.7177C267.798 25.9178 268.1 26.8179 268.704 27.418C269.338 28.0181 270.243 28.3181 271.42 28.3181H273.364C273.614 28.3181 273.84 28.463 273.943 28.6886C273.981 28.7707 274 28.8599 274 28.9501V32.2764C274 32.6754 273.675 32.9988 273.273 32.9988H269.926ZM259.427 14.9063C259.025 14.9063 258.7 14.5829 258.7 14.184V10.993C258.7 10.5941 259.025 10.2707 259.427 10.2707H273.273C273.675 10.2707 274 10.5941 274 10.993V14.184C274 14.5829 273.675 14.9063 273.273 14.9063H259.427Z" fill="white"/>
<defs>
<linearGradient id="paint0_linear_14890_124751" x1="141.534" y1="40.4194" x2="109.983" y2="-39.0027" gradientUnits="userSpaceOnUse">
<stop stop-color="#FE6500"/>
<stop offset="0.595" stop-color="#FF8A00"/>
</linearGradient>
<linearGradient id="paint1_linear_14890_124751" x1="141.534" y1="40.4194" x2="109.983" y2="-39.0027" gradientUnits="userSpaceOnUse">
<stop stop-color="#FE6500"/>
<stop offset="0.595" stop-color="#FF8A00"/>
</linearGradient>
<linearGradient id="paint2_linear_14890_124751" x1="141.534" y1="40.4194" x2="109.983" y2="-39.0027" gradientUnits="userSpaceOnUse">
<stop stop-color="#FE6500"/>
<stop offset="0.595" stop-color="#FF8A00"/>
</linearGradient>
<linearGradient id="paint3_linear_14890_124751" x1="141.534" y1="40.4194" x2="109.983" y2="-39.0027" gradientUnits="userSpaceOnUse">
<stop stop-color="#FE6500"/>
<stop offset="0.595" stop-color="#FF8A00"/>
</linearGradient>
<linearGradient id="paint4_linear_14890_124751" x1="141.534" y1="40.4194" x2="109.983" y2="-39.0027" gradientUnits="userSpaceOnUse">
<stop stop-color="#FE6500"/>
<stop offset="0.595" stop-color="#FF8A00"/>
</linearGradient>
<linearGradient id="paint5_linear_14890_124751" x1="141.534" y1="40.4194" x2="109.983" y2="-39.0027" gradientUnits="userSpaceOnUse">
<stop stop-color="#FE6500"/>
<stop offset="0.595" stop-color="#FF8A00"/>
</linearGradient>
</defs>
</svg>
