<svg width="207" height="33" viewBox="0 0 207 33" fill="none" xmlns="http://www.w3.org/2000/svg">
<path d="M9.26752 25.9438L9.5069 25.2257L18.1954 2.35949C18.2763 2.14643 18.4805 2.00558 18.7084 2.00558H22.2376C22.3647 2.00558 22.4677 2.10861 22.4677 2.2357C22.4677 2.26442 22.4624 2.29288 22.4519 2.31962L13.2002 25.9438H9.26752ZM9.26752 25.9438L0.0158458 2.31962C0.0053745 2.29288 0 2.26442 0 2.2357C0 2.10861 0.103031 2.00558 0.230126 2.00558H3.7593C3.98721 2.00558 4.19142 2.14643 4.27237 2.35949L12.9608 25.2257L13.2002 25.9438H9.26752Z" fill="url(#paint0_linear_14884_123548)"/>
<path d="M24.1339 25.9438C23.8308 25.9438 23.585 25.6981 23.585 25.3949V9.22295C23.585 8.91982 23.8308 8.67409 24.1339 8.67409H26.9689C27.272 8.67409 27.5177 8.91982 27.5177 9.22295V25.3949C27.5177 25.6981 27.272 25.9438 26.9689 25.9438H24.1339ZM25.5685 6.07508C24.8845 6.07508 24.3032 5.8357 23.8244 5.35693C23.3457 4.87817 23.1063 4.28541 23.1063 3.57866C23.1063 2.91751 23.3457 2.34755 23.8244 1.86879C24.3032 1.36723 24.8959 1.11644 25.6027 1.11644C26.2638 1.11644 26.8338 1.36723 27.3126 1.86879C27.8141 2.34755 28.0649 2.92891 28.0649 3.61286C28.0649 4.29681 27.8141 4.87817 27.3126 5.35693C26.8338 5.8357 26.2524 6.07508 25.5685 6.07508Z" fill="url(#paint1_linear_14884_123548)"/>
<path d="M38.057 26.4568C36.1875 26.4568 34.5916 26.0122 33.2693 25.1231C32.104 24.3395 31.284 23.2992 30.8092 22.0022C30.7028 21.7115 30.8845 21.4024 31.185 21.328L34.132 20.5983C34.1945 20.5828 34.2596 20.5808 34.323 20.5923C34.4944 20.6234 34.6302 20.7507 34.692 20.9135C34.9217 21.5177 35.3252 22.009 35.9025 22.3873C36.5865 22.7976 37.373 23.0028 38.2622 23.0028C39.1285 23.0028 39.8581 22.8204 40.4508 22.4557C41.0664 22.0681 41.3741 21.5779 41.3741 20.9852C41.3741 20.4836 41.1917 20.0846 40.827 19.7883C40.485 19.4691 39.9492 19.2297 39.2197 19.0701L35.9709 18.352C34.3751 17.9872 33.1553 17.383 32.3118 16.5395C31.4911 15.6732 31.0807 14.6358 31.0807 13.4275C31.0807 12.3788 31.3657 11.4669 31.9356 10.6917C32.5284 9.8938 33.3377 9.27824 34.3637 8.84507C35.3896 8.38911 36.5637 8.16112 37.886 8.16112C39.6871 8.16112 41.2146 8.60569 42.4685 9.49483C43.5744 10.279 44.3522 11.3381 44.8019 12.672C44.9019 12.9684 44.7092 13.276 44.4032 13.3403L41.6334 13.922C41.5751 13.9342 41.515 13.935 41.4564 13.9244C41.2809 13.8925 41.143 13.7607 41.0788 13.5943C40.8645 13.0384 40.4727 12.5838 39.9036 12.2306C39.2653 11.8203 38.5357 11.6151 37.715 11.6151C36.9399 11.6151 36.2787 11.7747 35.7316 12.0938C35.2072 12.3902 34.945 12.8006 34.945 13.3249C34.945 13.7125 35.1046 14.0659 35.4238 14.3851C35.743 14.6814 36.2445 14.898 36.9285 15.0348L40.1772 15.7872C41.8643 16.1747 43.1296 16.7675 43.9731 17.5654C44.8395 18.3406 45.2726 19.4007 45.2726 20.7458C45.2726 21.9085 44.9535 22.923 44.3151 23.7894C43.6996 24.6329 42.8446 25.2941 41.7503 25.7728C40.6788 26.2288 39.4477 26.4568 38.057 26.4568Z" fill="url(#paint2_linear_14884_123548)"/>
<path d="M49.0473 25.9438C48.7442 25.9438 48.4984 25.6981 48.4984 25.3949V9.22295C48.4984 8.91982 48.7442 8.67409 49.0473 8.67409H51.8823C52.1854 8.67409 52.4311 8.91982 52.4311 9.22295V25.3949C52.4311 25.6981 52.1854 25.9438 51.8823 25.9438H49.0473ZM50.4819 6.07508C49.7979 6.07508 49.2166 5.8357 48.7378 5.35693C48.2591 4.87817 48.0197 4.28541 48.0197 3.57866C48.0197 2.91751 48.2591 2.34755 48.7378 1.86879C49.2166 1.36723 49.8093 1.11644 50.5161 1.11644C51.1772 1.11644 51.7472 1.36723 52.226 1.86879C52.7275 2.34755 52.9783 2.92891 52.9783 3.61286C52.9783 4.29681 52.7275 4.87817 52.226 5.35693C51.7472 5.8357 51.1658 6.07508 50.4819 6.07508Z" fill="url(#paint3_linear_14884_123548)"/>
<path d="M64.7144 26.4568C62.9818 26.4568 61.4543 26.0692 60.132 25.2941C58.8097 24.5189 57.7724 23.4474 57.02 22.0795C56.2677 20.6888 55.8915 19.0929 55.8915 17.2918C55.8915 15.5136 56.2677 13.9405 57.02 12.5726C57.7724 11.1819 58.8097 10.099 60.132 9.32384C61.4543 8.5487 62.9818 8.16112 64.7144 8.16112C66.4699 8.16112 68.0088 8.5487 69.3311 9.32384C70.6534 10.099 71.6907 11.1819 72.4431 12.5726C73.1954 13.9405 73.5716 15.5136 73.5716 17.2918C73.5716 19.0929 73.1954 20.6888 72.4431 22.0795C71.6907 23.4474 70.6534 24.5189 69.3311 25.2941C68.0088 26.0692 66.4699 26.4568 64.7144 26.4568ZM64.7144 22.9002C65.7176 22.9002 66.5839 22.6723 67.3135 22.2163C68.043 21.7603 68.613 21.1106 69.0233 20.267C69.4337 19.4235 69.6389 18.4432 69.6389 17.326C69.6389 16.1633 69.4337 15.1716 69.0233 14.3509C68.613 13.5073 68.043 12.8576 67.3135 12.4016C66.5839 11.9456 65.7176 11.7177 64.7144 11.7177C63.7341 11.7177 62.8792 11.9456 62.1496 12.4016C61.4201 12.8576 60.8501 13.5073 60.4398 14.3509C60.0294 15.1716 59.8242 16.1519 59.8242 17.2918C59.8242 18.4318 60.0294 19.4235 60.4398 20.267C60.8501 21.1106 61.4201 21.7603 62.1496 22.2163C62.8792 22.6723 63.7341 22.9002 64.7144 22.9002Z" fill="url(#paint4_linear_14884_123548)"/>
<path d="M77.5341 25.9438C77.2309 25.9438 76.9852 25.6981 76.9852 25.3949V9.22295C76.9852 8.91982 77.2309 8.67409 77.5341 8.67409H80.1297C80.4328 8.67409 80.6785 8.91982 80.6785 9.22295V12.6417C80.6785 12.8817 80.4752 13.0715 80.2357 13.055C79.9608 13.0361 79.7805 12.7587 79.8919 12.5067C80.239 11.7208 80.695 11.036 81.2599 10.4524C81.9438 9.72281 82.7418 9.16425 83.6537 8.77668C84.5656 8.36631 85.5574 8.16112 86.6289 8.16112C87.86 8.16112 88.9657 8.4347 89.946 8.98186C90.9492 9.50622 91.7357 10.2928 92.3057 11.3415C92.8984 12.3674 93.1948 13.6555 93.1948 15.2058V25.3949C93.1948 25.6981 92.9491 25.9438 92.6459 25.9438H89.811C89.5078 25.9438 89.2621 25.6981 89.2621 25.3949V16.4027C89.2621 15.3084 89.1139 14.4193 88.8175 13.7353C88.5211 13.0514 88.088 12.5498 87.518 12.2306C86.9709 11.9114 86.3325 11.7519 85.603 11.7519C84.919 11.7519 84.2123 11.9228 83.4827 12.2648C82.776 12.6068 82.1718 13.1768 81.6702 13.9747C81.1687 14.7726 80.9179 15.8556 80.9179 17.2235V25.3949C80.9179 25.6981 80.6722 25.9438 80.369 25.9438H77.5341Z" fill="url(#paint5_linear_14884_123548)"/>
<path d="M106.463 25.9438C106.16 25.9438 105.914 25.6981 105.914 25.3949V2.55444C105.914 2.25131 106.16 2.00558 106.463 2.00558H109.298C109.601 2.00558 109.847 2.25131 109.847 2.55444V25.3949C109.847 25.6981 109.601 25.9438 109.298 25.9438H106.463Z" fill="#6A6666"/>
<path d="M115.071 25.9438C114.768 25.9438 114.522 25.6981 114.522 25.3949V9.22295C114.522 8.91982 114.768 8.67409 115.071 8.67409H117.667C117.97 8.67409 118.216 8.91982 118.216 9.22295V12.6417C118.216 12.8817 118.012 13.0715 117.773 13.055C117.498 13.0361 117.318 12.7587 117.429 12.5067C117.776 11.7208 118.232 11.036 118.797 10.4524C119.481 9.72281 120.279 9.16425 121.191 8.77668C122.103 8.36631 123.094 8.16112 124.166 8.16112C125.397 8.16112 126.503 8.4347 127.483 8.98186C128.486 9.50622 129.273 10.2928 129.843 11.3415C130.436 12.3674 130.732 13.6555 130.732 15.2058V25.3949C130.732 25.6981 130.486 25.9438 130.183 25.9438H127.348C127.045 25.9438 126.799 25.6981 126.799 25.3949V16.4027C126.799 15.3084 126.651 14.4193 126.355 13.7353C126.058 13.0514 125.625 12.5498 125.055 12.2306C124.508 11.9114 123.87 11.7519 123.14 11.7519C122.456 11.7519 121.749 11.9228 121.02 12.2648C120.313 12.6068 119.709 13.1768 119.207 13.9747C118.706 14.7726 118.455 15.8556 118.455 17.2235V25.3949C118.455 25.6981 118.209 25.9438 117.906 25.9438H115.071Z" fill="#6A6666"/>
<path d="M141.084 26.4568C139.214 26.4568 137.618 26.0122 136.296 25.1231C135.131 24.3395 134.311 23.2992 133.836 22.0022C133.729 21.7115 133.911 21.4024 134.212 21.328L137.159 20.5983C137.221 20.5828 137.286 20.5808 137.35 20.5923C137.521 20.6234 137.657 20.7507 137.719 20.9135C137.948 21.5177 138.352 22.009 138.929 22.3873C139.613 22.7976 140.4 23.0028 141.289 23.0028C142.155 23.0028 142.885 22.8204 143.477 22.4557C144.093 22.0681 144.401 21.5779 144.401 20.9852C144.401 20.4836 144.218 20.0846 143.854 19.7883C143.512 19.4691 142.976 19.2297 142.246 19.0701L138.998 18.352C137.402 17.9872 136.182 17.383 135.338 16.5395C134.518 15.6732 134.107 14.6358 134.107 13.4275C134.107 12.3788 134.392 11.4669 134.962 10.6917C135.555 9.8938 136.364 9.27824 137.39 8.84507C138.416 8.38911 139.59 8.16112 140.913 8.16112C142.714 8.16112 144.241 8.60569 145.495 9.49483C146.601 10.279 147.379 11.3381 147.829 12.672C147.928 12.9684 147.736 13.276 147.43 13.3403L144.66 13.922C144.602 13.9342 144.542 13.935 144.483 13.9244C144.307 13.8925 144.17 13.7607 144.105 13.5943C143.891 13.0384 143.499 12.5839 142.93 12.2306C142.292 11.8203 141.562 11.6151 140.742 11.6151C139.966 11.6151 139.305 11.7747 138.758 12.0938C138.234 12.3902 137.972 12.8006 137.972 13.3249C137.972 13.7125 138.131 14.0659 138.45 14.3851C138.77 14.6814 139.271 14.898 139.955 15.0348L143.204 15.7872C144.891 16.1747 146.156 16.7675 147 17.5654C147.866 18.3406 148.299 19.4007 148.299 20.7458C148.299 21.9085 147.98 22.923 147.342 23.7894C146.726 24.6329 145.871 25.2941 144.777 25.7728C143.705 26.2288 142.474 26.4568 141.084 26.4568Z" fill="#6A6666"/>
<path d="M152.074 25.9438C151.771 25.9438 151.525 25.6981 151.525 25.3949V9.22295C151.525 8.91982 151.771 8.67409 152.074 8.67409H154.909C155.212 8.67409 155.458 8.91982 155.458 9.22295V25.3949C155.458 25.6981 155.212 25.9438 154.909 25.9438H152.074ZM153.508 6.07508C152.825 6.07508 152.243 5.8357 151.764 5.35693C151.286 4.87817 151.046 4.28541 151.046 3.57866C151.046 2.91751 151.286 2.34755 151.764 1.86879C152.243 1.36723 152.836 1.11644 153.543 1.11644C154.204 1.11644 154.774 1.36723 155.253 1.86879C155.754 2.34755 156.005 2.92891 156.005 3.61286C156.005 4.29681 155.754 4.87817 155.253 5.35693C154.774 5.8357 154.192 6.07508 153.508 6.07508Z" fill="#6A6666"/>
<path d="M165.56 32.7833C163.235 32.7833 161.411 32.3273 160.089 31.4154C158.766 30.5263 158.105 29.2838 158.105 27.6879C158.105 26.662 158.379 25.7614 158.926 24.9863C159.439 24.2889 160.145 23.7299 161.046 23.3093C161.233 23.2219 161.453 23.2585 161.61 23.3929L162.6 24.2414C162.908 24.506 162.829 25.012 162.528 25.286C162.382 25.4197 162.253 25.5706 162.141 25.7386C161.89 26.149 161.764 26.5936 161.764 27.0723C161.764 27.7335 162.015 28.3148 162.517 28.8164C163.041 29.318 163.885 29.5687 165.047 29.5687H167.441C168.672 29.5687 169.596 29.3864 170.211 29.0216C170.827 28.6796 171.135 28.1666 171.135 27.4827C171.135 26.9355 170.907 26.5138 170.451 26.2174C170.017 25.921 169.413 25.7728 168.638 25.7728H164.363C163.36 25.7728 162.46 25.6018 161.662 25.2599C160.887 24.9179 160.271 24.4505 159.815 23.8578C159.359 23.2422 159.131 22.5469 159.131 21.7717C159.131 20.9054 159.393 20.1416 159.918 19.4805C160.41 18.8658 161.086 18.3615 161.946 17.9678C162.128 17.8846 162.34 17.917 162.496 18.0425L163.297 18.6885C163.682 18.9994 163.476 19.7245 163.138 20.0864C163.124 20.1008 163.111 20.1154 163.098 20.1302C162.802 20.4494 162.654 20.7914 162.654 21.1562C162.654 21.6121 162.836 21.9769 163.201 22.2505C163.566 22.5013 164.124 22.6267 164.876 22.6267H169.049C170.781 22.6267 172.161 23.0598 173.186 23.9262C174.235 24.7925 174.76 25.9438 174.76 27.3801C174.76 29.0216 174.098 30.3325 172.776 31.3128C171.454 32.2931 169.664 32.7833 167.407 32.7833H165.56ZM166.586 20.438C165.173 20.438 163.93 20.1758 162.859 19.6515C161.787 19.1271 160.944 18.409 160.328 17.497C159.735 16.5623 159.439 15.4908 159.439 14.2825C159.439 13.0742 159.735 12.014 160.328 11.1021C160.944 10.1902 161.787 9.47203 162.859 8.94767C163.93 8.42331 165.173 8.16112 166.586 8.16112C168 8.16112 169.231 8.42331 170.28 8.94767C171.351 9.47203 172.183 10.1902 172.776 11.1021C173.392 12.014 173.699 13.0742 173.699 14.2825C173.699 15.4908 173.392 16.5623 172.776 17.497C172.183 18.409 171.351 19.1271 170.28 19.6515C169.231 20.1758 168 20.438 166.586 20.438ZM166.586 17.2918C167.612 17.2918 168.444 17.0183 169.083 16.4711C169.721 15.9012 170.04 15.1716 170.04 14.2825C170.04 13.3933 169.721 12.6752 169.083 12.128C168.444 11.5809 167.612 11.3073 166.586 11.3073C165.538 11.3073 164.694 11.5809 164.056 12.128C163.44 12.6752 163.132 13.3933 163.132 14.2825C163.132 15.1716 163.44 15.9012 164.056 16.4711C164.694 17.0183 165.538 17.2918 166.586 17.2918ZM171.664 10.3332C171.58 10.7298 171.155 10.9985 170.79 10.8212L169.426 10.1579C169.237 10.0661 169.115 9.87426 169.125 9.66437C169.164 8.80056 169.356 8.02589 169.698 7.34038C170.086 6.56524 170.61 5.96109 171.271 5.52792C171.955 5.07195 172.719 4.84397 173.563 4.84397C173.813 4.84397 174.053 4.85537 174.281 4.87817C174.333 4.87817 174.383 4.87938 174.429 4.8818C174.654 4.89349 174.794 5.09373 174.794 5.31816V8.17993C174.794 8.23503 174.781 8.28938 174.756 8.33866C174.679 8.49301 174.502 8.56771 174.331 8.5415C174.165 8.5159 173.977 8.5031 173.768 8.5031C173.038 8.5031 172.491 8.75388 172.126 9.25544C171.905 9.56003 171.751 9.91928 171.664 10.3332Z" fill="#6A6666"/>
<path d="M178.227 25.9438C177.924 25.9438 177.678 25.6981 177.678 25.3949V1.80616C177.678 1.52935 177.884 1.29586 178.159 1.26153L181.272 0.872335C181.411 0.855055 181.543 0.93489 181.592 1.06533C181.604 1.09913 181.611 1.13493 181.611 1.17103V12.5433C181.611 12.8378 181.363 13.0718 181.069 13.0555C180.726 13.0364 180.498 12.6908 180.643 12.3787C180.982 11.6462 181.419 11.0041 181.953 10.4524C182.637 9.72281 183.435 9.16425 184.347 8.77668C185.259 8.36631 186.25 8.16112 187.322 8.16112C188.553 8.16112 189.659 8.4347 190.639 8.98186C191.642 9.50622 192.429 10.2928 192.999 11.3415C193.591 12.3674 193.888 13.6555 193.888 15.2058V25.3949C193.888 25.6981 193.642 25.9438 193.339 25.9438H190.504C190.201 25.9438 189.955 25.6981 189.955 25.3949V16.4027C189.955 15.3084 189.807 14.4193 189.51 13.7353C189.214 13.0514 188.781 12.5498 188.211 12.2306C187.664 11.9114 187.025 11.7519 186.296 11.7519C185.612 11.7519 184.905 11.9228 184.176 12.2648C183.469 12.6068 182.865 13.1768 182.363 13.9747C181.862 14.7726 181.611 15.8556 181.611 17.2235V25.3949C181.611 25.6981 181.365 25.9438 181.062 25.9438H178.227Z" fill="#6A6666"/>
<path d="M203.922 25.9438C202.235 25.9438 200.89 25.4195 199.887 24.3707C198.884 23.2992 198.382 21.8629 198.382 20.0618V4.74308C198.382 4.43995 198.628 4.19422 198.931 4.19422H201.766C202.069 4.19422 202.315 4.43995 202.315 4.74308V19.6515C202.315 20.5634 202.543 21.2474 202.999 21.7033C203.478 22.1593 204.162 22.3873 205.051 22.3873H206.52C206.708 22.3873 206.879 22.4973 206.957 22.6688C206.985 22.7312 207 22.7989 207 22.8675V25.3949C207 25.6981 206.754 25.9438 206.451 25.9438H203.922ZM195.99 12.1964C195.687 12.1964 195.441 11.9507 195.441 11.6476V9.22295C195.441 8.91982 195.687 8.67409 195.99 8.67409H206.451C206.754 8.67409 207 8.91982 207 9.22295V11.6476C207 11.9507 206.754 12.1964 206.451 12.1964H195.99Z" fill="#6A6666"/>
<defs>
<linearGradient id="paint0_linear_14884_123548" x1="106.926" y1="31.5823" x2="82.8511" y2="-28.6706" gradientUnits="userSpaceOnUse">
<stop stop-color="#FE6500"/>
<stop offset="0.595" stop-color="#FF8A00"/>
</linearGradient>
<linearGradient id="paint1_linear_14884_123548" x1="106.926" y1="31.5823" x2="82.8511" y2="-28.6706" gradientUnits="userSpaceOnUse">
<stop stop-color="#FE6500"/>
<stop offset="0.595" stop-color="#FF8A00"/>
</linearGradient>
<linearGradient id="paint2_linear_14884_123548" x1="106.926" y1="31.5823" x2="82.8511" y2="-28.6706" gradientUnits="userSpaceOnUse">
<stop stop-color="#FE6500"/>
<stop offset="0.595" stop-color="#FF8A00"/>
</linearGradient>
<linearGradient id="paint3_linear_14884_123548" x1="106.926" y1="31.5823" x2="82.8511" y2="-28.6706" gradientUnits="userSpaceOnUse">
<stop stop-color="#FE6500"/>
<stop offset="0.595" stop-color="#FF8A00"/>
</linearGradient>
<linearGradient id="paint4_linear_14884_123548" x1="106.926" y1="31.5823" x2="82.8511" y2="-28.6706" gradientUnits="userSpaceOnUse">
<stop stop-color="#FE6500"/>
<stop offset="0.595" stop-color="#FF8A00"/>
</linearGradient>
<linearGradient id="paint5_linear_14884_123548" x1="106.926" y1="31.5823" x2="82.8511" y2="-28.6706" gradientUnits="userSpaceOnUse">
<stop stop-color="#FE6500"/>
<stop offset="0.595" stop-color="#FF8A00"/>
</linearGradient>
</defs>
</svg>
