<svg width="20" height="20" viewBox="0 0 20 20" fill="none" xmlns="http://www.w3.org/2000/svg">
<circle cx="7.49967" cy="7.49998" r="1.66667" stroke="#428AFF"/>
<path d="M10.8337 12.5C10.8337 13.4205 10.8337 14.1666 7.50033 14.1666C4.16699 14.1666 4.16699 13.4205 4.16699 12.5C4.16699 11.5795 5.65938 10.8333 7.50033 10.8333C9.34127 10.8333 10.8337 11.5795 10.8337 12.5Z" stroke="#428AFF"/>
<path d="M1.66699 9.99998C1.66699 6.85728 1.66699 5.28593 2.6433 4.30962C3.61961 3.33331 5.19096 3.33331 8.33366 3.33331H11.667C14.8097 3.33331 16.381 3.33331 17.3573 4.30962C18.3337 5.28593 18.3337 6.85728 18.3337 9.99998C18.3337 13.1427 18.3337 14.714 17.3573 15.6903C16.381 16.6666 14.8097 16.6666 11.667 16.6666H8.33366C5.19096 16.6666 3.61961 16.6666 2.6433 15.6903C1.66699 14.714 1.66699 13.1427 1.66699 9.99998Z" stroke="#428AFF" stroke-width="1.2"/>
<path d="M15.833 10H12.4997" stroke="#428AFF" stroke-linecap="round"/>
<path d="M15.833 7.5H11.6663" stroke="#428AFF" stroke-linecap="round"/>
<path d="M15.833 12.5H13.333" stroke="#428AFF" stroke-linecap="round"/>
</svg>
