<svg width="20" height="20" viewBox="0 0 20 20" fill="none" xmlns="http://www.w3.org/2000/svg">
<circle cx="7.49967" cy="7.50001" r="1.66667" stroke="#428AFF"/>
<path d="M10.8337 12.5C10.8337 13.4205 10.8337 14.1667 7.50033 14.1667C4.16699 14.1667 4.16699 13.4205 4.16699 12.5C4.16699 11.5795 5.65938 10.8333 7.50033 10.8333C9.34127 10.8333 10.8337 11.5795 10.8337 12.5Z" stroke="#428AFF"/>
<path d="M1.66699 10C1.66699 6.85731 1.66699 5.28596 2.6433 4.30965C3.61961 3.33334 5.19096 3.33334 8.33366 3.33334H11.667C14.8097 3.33334 16.381 3.33334 17.3573 4.30965C18.3337 5.28596 18.3337 6.85731 18.3337 10C18.3337 13.1427 18.3337 14.7141 17.3573 15.6904C16.381 16.6667 14.8097 16.6667 11.667 16.6667H8.33366C5.19096 16.6667 3.61961 16.6667 2.6433 15.6904C1.66699 14.7141 1.66699 13.1427 1.66699 10Z" stroke="#428AFF" stroke-width="1.2"/>
<path d="M15.833 10H12.4997" stroke="#428AFF" stroke-linecap="round"/>
<path d="M15.833 7.5H11.6663" stroke="#428AFF" stroke-linecap="round"/>
<path d="M15.833 12.5H13.333" stroke="#428AFF" stroke-linecap="round"/>
</svg>
