<svg width="379" height="58" viewBox="0 0 379 58" fill="none" xmlns="http://www.w3.org/2000/svg">
<path d="M16.9681 45.5697L17.4064 44.2646L33.3142 2.70704C33.4625 2.31983 33.8363 2.06383 34.2536 2.06383H40.7153C40.948 2.06383 41.1366 2.25109 41.1366 2.48207C41.1366 2.53426 41.1268 2.58599 41.1076 2.63458L24.1685 45.5697H16.9681ZM16.9681 45.5697L0.0290123 2.63458C0.00984028 2.58599 0 2.53426 0 2.48207C0 2.25109 0.188641 2.06383 0.421342 2.06383H6.88296C7.30026 2.06383 7.67414 2.31983 7.82236 2.70704L23.7302 44.2646L24.1685 45.5697H16.9681Z" fill="white"/>
<path d="M44.1872 45.5697C43.6322 45.5697 43.1823 45.1231 43.1823 44.5722V15.1809C43.1823 14.6299 43.6322 14.1833 44.1872 14.1833H49.3778C49.9328 14.1833 50.3827 14.6299 50.3827 15.1809V44.5722C50.3827 45.1231 49.9328 45.5697 49.3778 45.5697H44.1872ZM46.8138 9.45984C45.5616 9.45984 44.4971 9.02478 43.6206 8.15466C42.744 7.28454 42.3057 6.20726 42.3057 4.92279C42.3057 3.7212 42.744 2.68535 43.6206 1.81523C44.4971 0.903679 45.5824 0.447904 46.8764 0.447904C48.0869 0.447904 49.1305 0.903679 50.0071 1.81523C50.9254 2.68535 51.3845 3.74192 51.3845 4.98495C51.3845 6.22797 50.9254 7.28454 50.0071 8.15466C49.1305 9.02478 48.0661 9.45984 46.8138 9.45984Z" fill="white"/>
<path d="M69.6792 46.502C66.2564 46.502 63.3345 45.694 60.9134 44.0781C58.7798 42.654 57.2784 40.7634 56.4092 38.4061C56.2144 37.8778 56.547 37.3161 57.0971 37.1809L62.4929 35.8547C62.6074 35.8265 62.7266 35.8228 62.8426 35.8438C63.1563 35.9004 63.405 36.1316 63.5183 36.4275C63.9387 37.5257 64.6775 38.4185 65.7346 39.106C66.9869 39.8518 68.427 40.2247 70.0549 40.2247C71.6411 40.2247 72.9768 39.8933 74.0621 39.2303C75.1891 38.5259 75.7527 37.6351 75.7527 36.5578C75.7527 35.6462 75.4187 34.9212 74.7508 34.3825C74.1247 33.8024 73.1438 33.3674 71.808 33.0773L65.8598 31.7722C62.9379 31.1092 60.7047 30.0112 59.1603 28.4781C57.6576 26.9036 56.9062 25.0184 56.9062 22.8224C56.9062 20.9164 57.428 19.259 58.4715 17.8503C59.5568 16.4001 61.0387 15.2813 62.917 14.4941C64.7954 13.6654 66.9451 13.2511 69.3661 13.2511C72.6637 13.2511 75.4605 14.059 77.7563 15.675C79.7811 17.1002 81.2052 19.0249 82.0287 21.4493C82.2116 21.9879 81.8589 22.547 81.2985 22.6638L76.2274 23.7209C76.1206 23.7432 76.0105 23.7447 75.9032 23.7253C75.582 23.6673 75.3295 23.4279 75.212 23.1255C74.8195 22.1152 74.1023 21.289 73.0603 20.6471C71.8915 19.9013 70.5558 19.5283 69.0531 19.5283C67.6339 19.5283 66.4233 19.8184 65.4215 20.3985C64.4615 20.9371 63.9814 21.6829 63.9814 22.6359C63.9814 23.3403 64.2736 23.9825 64.858 24.5626C65.4424 25.1012 66.3607 25.4949 67.613 25.7435L73.5612 27.1108C76.6501 27.8152 78.9668 28.8925 80.5112 30.3427C82.0974 31.7514 82.8905 33.6781 82.8905 36.1227C82.8905 38.2359 82.3061 40.0797 81.1373 41.6542C80.0103 43.1873 78.445 44.3889 76.4414 45.259C74.4795 46.0877 72.2255 46.502 69.6792 46.502Z" fill="white"/>
<path d="M89.8016 45.5697C89.2466 45.5697 88.7967 45.1231 88.7967 44.5722V15.1809C88.7967 14.6299 89.2466 14.1833 89.8016 14.1833H94.9922C95.5472 14.1833 95.9971 14.6299 95.9971 15.1809V44.5722C95.9971 45.1231 95.5472 45.5697 94.9922 45.5697H89.8016ZM92.4282 9.45984C91.1759 9.45984 90.1115 9.02478 89.2349 8.15466C88.3584 7.28454 87.9201 6.20726 87.9201 4.92279C87.9201 3.7212 88.3584 2.68535 89.2349 1.81523C90.1115 0.903679 91.1968 0.447904 92.4908 0.447904C93.7013 0.447904 94.7449 0.903679 95.6214 1.81523C96.5398 2.68535 96.9989 3.74192 96.9989 4.98495C96.9989 6.22797 96.5398 7.28454 95.6214 8.15466C94.7449 9.02478 93.6805 9.45984 92.4282 9.45984Z" fill="white"/>
<path d="M118.487 46.502C115.314 46.502 112.518 45.7976 110.097 44.3889C107.676 42.9801 105.776 41.0327 104.399 38.5466C103.021 36.0192 102.333 33.1188 102.333 29.8455C102.333 26.6136 103.021 23.7546 104.399 21.2686C105.776 18.7411 107.676 16.773 110.097 15.3642C112.518 13.9554 115.314 13.2511 118.487 13.2511C121.701 13.2511 124.519 13.9554 126.94 15.3642C129.361 16.773 131.26 18.7411 132.637 21.2686C134.015 23.7546 134.704 26.6136 134.704 29.8455C134.704 33.1188 134.015 36.0192 132.637 38.5466C131.26 41.0327 129.361 42.9801 126.94 44.3889C124.519 45.7976 121.701 46.502 118.487 46.502ZM118.487 40.0383C120.323 40.0383 121.91 39.6239 123.245 38.7952C124.581 37.9666 125.625 36.7857 126.376 35.2526C127.127 33.7196 127.503 31.9379 127.503 29.9076C127.503 27.7945 127.127 25.9921 126.376 24.5005C125.625 22.9674 124.581 21.7865 123.245 20.9578C121.91 20.1291 120.323 19.7148 118.487 19.7148C116.692 19.7148 115.127 20.1291 113.791 20.9578C112.455 21.7865 111.412 22.9674 110.66 24.5005C109.909 25.9921 109.533 27.7738 109.533 29.8455C109.533 31.9172 109.909 33.7196 110.66 35.2526C111.412 36.7857 112.455 37.9666 113.791 38.7952C115.127 39.6239 116.692 40.0383 118.487 40.0383Z" fill="white"/>
<path d="M141.959 45.5697C141.404 45.5697 140.954 45.1231 140.954 44.5722V15.1809C140.954 14.6299 141.404 14.1833 141.959 14.1833H146.711C147.266 14.1833 147.716 14.6299 147.716 15.1809V21.3941C147.716 21.8304 147.343 22.1754 146.905 22.1454C146.402 22.1109 146.072 21.6068 146.275 21.1487C146.911 19.7205 147.746 18.476 148.78 17.4152C150.032 16.0893 151.493 15.0742 153.163 14.3698C154.833 13.624 156.649 13.2511 158.61 13.2511C160.864 13.2511 162.889 13.7483 164.684 14.7427C166.52 15.6957 167.961 17.1252 169.004 19.0311C170.089 20.8957 170.632 23.2367 170.632 26.0542V44.5722C170.632 45.1231 170.182 45.5697 169.627 45.5697H164.436C163.881 45.5697 163.432 45.1231 163.432 44.5722V28.2295C163.432 26.2407 163.16 24.6248 162.618 23.3817C162.075 22.1387 161.282 21.2271 160.238 20.6471C159.237 20.067 158.068 19.777 156.732 19.777C155.48 19.777 154.186 20.0877 152.85 20.7092C151.556 21.3307 150.45 22.3666 149.532 23.8168C148.613 25.267 148.154 27.2351 148.154 29.7212V44.5722C148.154 45.1231 147.704 45.5697 147.149 45.5697H141.959Z" fill="white"/>
<path d="M194.925 45.5697C194.37 45.5697 193.92 45.1231 193.92 44.5722V3.06135C193.92 2.51044 194.37 2.06383 194.925 2.06383H200.116C200.671 2.06383 201.121 2.51044 201.121 3.06135V44.5722C201.121 45.1231 200.671 45.5697 200.116 45.5697H194.925Z" fill="white"/>
<path d="M210.686 45.5697C210.131 45.5697 209.681 45.1231 209.681 44.5722V15.1809C209.681 14.6299 210.131 14.1833 210.686 14.1833H215.438C215.993 14.1833 216.443 14.6299 216.443 15.1809V21.3941C216.443 21.8304 216.071 22.1754 215.632 22.1454C215.129 22.1109 214.799 21.6068 215.003 21.1487C215.638 19.7205 216.473 18.476 217.507 17.4152C218.76 16.0893 220.221 15.0742 221.89 14.3698C223.56 13.624 225.376 13.2511 227.338 13.2511C229.592 13.2511 231.616 13.7483 233.411 14.7427C235.248 15.6957 236.688 17.1252 237.731 19.0311C238.817 20.8957 239.359 23.2367 239.359 26.0542V44.5722C239.359 45.1231 238.909 45.5697 238.354 45.5697H233.164C232.609 45.5697 232.159 45.1231 232.159 44.5722V28.2295C232.159 26.2407 231.888 24.6248 231.345 23.3817C230.802 22.1387 230.009 21.2271 228.966 20.6471C227.964 20.067 226.795 19.777 225.459 19.777C224.207 19.777 222.913 20.0877 221.577 20.7092C220.283 21.3307 219.177 22.3666 218.259 23.8168C217.341 25.267 216.881 27.2351 216.881 29.7212V44.5722C216.881 45.1231 216.431 45.5697 215.876 45.5697H210.686Z" fill="white"/>
<path d="M258.312 46.502C254.89 46.502 251.968 45.694 249.547 44.0781C247.413 42.654 245.912 40.7634 245.042 38.4061C244.848 37.8778 245.18 37.3161 245.73 37.1809L251.126 35.8547C251.241 35.8265 251.36 35.8228 251.476 35.8438C251.79 35.9004 252.038 36.1316 252.151 36.4275C252.572 37.5257 253.311 38.4185 254.368 39.106C255.62 39.8518 257.06 40.2247 258.688 40.2247C260.274 40.2247 261.61 39.8933 262.695 39.2303C263.822 38.5259 264.386 37.6351 264.386 36.5578C264.386 35.6462 264.052 34.9212 263.384 34.3825C262.758 33.8024 261.777 33.3674 260.441 33.0773L254.493 31.7722C251.571 31.1092 249.338 30.0112 247.793 28.4781C246.291 26.9036 245.539 25.0184 245.539 22.8224C245.539 20.9164 246.061 19.259 247.105 17.8503C248.19 16.4001 249.672 15.2813 251.55 14.4941C253.429 13.6654 255.578 13.2511 257.999 13.2511C261.297 13.2511 264.094 14.059 266.389 15.675C268.414 17.1002 269.838 19.0249 270.662 21.4493C270.845 21.9879 270.492 22.547 269.932 22.6638L264.861 23.7209C264.754 23.7432 264.644 23.7447 264.536 23.7253C264.215 23.6673 263.963 23.4279 263.845 23.1255C263.453 22.1152 262.735 21.289 261.694 20.6471C260.525 19.9013 259.189 19.5283 257.686 19.5283C256.267 19.5283 255.057 19.8184 254.055 20.3985C253.095 20.9371 252.615 21.6829 252.615 22.6359C252.615 23.3403 252.907 23.9825 253.491 24.5626C254.076 25.1012 254.994 25.4949 256.246 25.7435L262.194 27.1108C265.283 27.8152 267.6 28.8925 269.144 30.3427C270.731 31.7514 271.524 33.6781 271.524 36.1227C271.524 38.2359 270.939 40.0797 269.771 41.6542C268.644 43.1873 267.078 44.3889 265.075 45.259C263.113 46.0877 260.859 46.502 258.312 46.502Z" fill="white"/>
<path d="M278.435 45.5697C277.88 45.5697 277.43 45.1231 277.43 44.5722V15.1809C277.43 14.6299 277.88 14.1833 278.435 14.1833H283.625C284.18 14.1833 284.63 14.6299 284.63 15.1809V44.5722C284.63 45.1231 284.18 45.5697 283.625 45.5697H278.435ZM281.061 9.45984C279.809 9.45984 278.745 9.02478 277.868 8.15466C276.992 7.28454 276.553 6.20726 276.553 4.92279C276.553 3.7212 276.992 2.68535 277.868 1.81523C278.745 0.903679 279.83 0.447904 281.124 0.447904C282.335 0.447904 283.378 0.903679 284.255 1.81523C285.173 2.68535 285.632 3.74192 285.632 4.98495C285.632 6.22797 285.173 7.28454 284.255 8.15466C283.378 9.02478 282.314 9.45984 281.061 9.45984Z" fill="white"/>
<path d="M303.128 58C298.87 58 295.53 57.1713 293.109 55.5139C290.688 53.898 289.478 51.6399 289.478 48.7395C289.478 46.8749 289.979 45.2383 290.981 43.8295C291.92 42.562 293.213 41.546 294.862 40.7817C295.204 40.6228 295.607 40.6894 295.894 40.9336L297.707 42.4758C298.272 42.9566 298.126 43.8763 297.576 44.3743C297.308 44.6172 297.071 44.8914 296.866 45.1968C296.407 45.9426 296.177 46.7506 296.177 47.6207C296.177 48.8223 296.637 49.8789 297.555 50.7905C298.515 51.702 300.059 52.1578 302.188 52.1578H306.571C308.825 52.1578 310.516 51.8263 311.643 51.1634C312.77 50.5418 313.333 49.6096 313.333 48.3666C313.333 47.3721 312.916 46.6056 312.081 46.067C311.288 45.5283 310.182 45.259 308.763 45.259H300.936C299.099 45.259 297.451 44.9482 295.99 44.3267C294.57 43.7052 293.443 42.8558 292.609 41.7785C291.774 40.6598 291.356 39.396 291.356 37.9873C291.356 36.4128 291.836 35.0247 292.796 33.8231C293.697 32.7059 294.934 31.7895 296.509 31.074C296.842 30.9227 297.231 30.9816 297.516 31.2097L298.983 32.3838C299.689 32.9488 299.31 34.2666 298.692 34.9244C298.667 34.9505 298.643 34.977 298.619 35.004C298.077 35.5841 297.805 36.2056 297.805 36.8686C297.805 37.6972 298.139 38.3602 298.807 38.8574C299.475 39.3132 300.498 39.5411 301.875 39.5411H309.514C312.686 39.5411 315.212 40.3283 317.09 41.9028C319.01 43.4773 319.97 45.5697 319.97 48.1801C319.97 51.1634 318.76 53.5458 316.339 55.3275C313.918 57.1092 310.641 58 306.509 58H303.128ZM305.006 35.5634C302.418 35.5634 300.143 35.0869 298.181 34.1339C296.219 33.1809 294.675 31.8757 293.548 30.2184C292.462 28.5196 291.92 26.5722 291.92 24.3762C291.92 22.1801 292.462 20.2534 293.548 18.5961C294.675 16.9387 296.219 15.6335 298.181 14.6805C300.143 13.7276 302.418 13.2511 305.006 13.2511C307.594 13.2511 309.848 13.7276 311.768 14.6805C313.73 15.6335 315.254 16.9387 316.339 18.5961C317.466 20.2534 318.029 22.1801 318.029 24.3762C318.029 26.5722 317.466 28.5196 316.339 30.2184C315.254 31.8757 313.73 33.1809 311.768 34.1339C309.848 35.0869 307.594 35.5634 305.006 35.5634ZM305.006 29.8455C306.884 29.8455 308.408 29.3483 309.577 28.3538C310.745 27.318 311.33 25.9921 311.33 24.3762C311.33 22.7602 310.745 21.455 309.577 20.4606C308.408 19.4662 306.884 18.969 305.006 18.969C303.086 18.969 301.541 19.4662 300.373 20.4606C299.246 21.455 298.682 22.7602 298.682 24.3762C298.682 25.9921 299.246 27.318 300.373 28.3538C301.541 29.3483 303.086 29.8455 305.006 29.8455ZM314.302 17.1986C314.149 17.9195 313.371 18.4077 312.703 18.0856L310.205 16.8801C309.859 16.7132 309.636 16.3646 309.653 15.9831C309.726 14.4132 310.076 13.0053 310.704 11.7594C311.413 10.3507 312.373 9.25267 313.584 8.46542C314.836 7.63673 316.234 7.22239 317.779 7.22239C318.238 7.22239 318.676 7.24311 319.094 7.28454C319.19 7.28454 319.281 7.28675 319.366 7.29116C319.776 7.3124 320.033 7.67631 320.033 8.0842V13.2852C320.033 13.3854 320.009 13.4842 319.964 13.5737C319.823 13.8542 319.499 13.99 319.187 13.9424C318.882 13.8958 318.538 13.8726 318.155 13.8726C316.819 13.8726 315.817 14.3284 315.149 15.2399C314.744 15.7935 314.461 16.4464 314.302 17.1986Z" fill="white"/>
<path d="M326.319 45.5697C325.764 45.5697 325.314 45.1231 325.314 44.5722V1.7014C325.314 1.19833 325.691 0.773985 326.194 0.711586L331.895 0.00425243C332.148 -0.0271523 332.39 0.117942 332.479 0.355014C332.503 0.41644 332.514 0.481507 332.514 0.547109V21.2153C332.514 21.7506 332.061 22.1759 331.523 22.1462C330.894 22.1115 330.477 21.4834 330.742 20.9161C331.363 19.585 332.163 18.418 333.141 17.4152C334.393 16.0893 335.854 15.0742 337.523 14.3698C339.193 13.624 341.009 13.2511 342.971 13.2511C345.225 13.2511 347.249 13.7483 349.044 14.7427C350.881 15.6957 352.321 17.1252 353.365 19.0311C354.45 20.8957 354.992 23.2367 354.992 26.0542V44.5722C354.992 45.1231 354.543 45.5697 353.988 45.5697H348.797C348.242 45.5697 347.792 45.1231 347.792 44.5722V28.2295C347.792 26.2407 347.521 24.6248 346.978 23.3817C346.435 22.1387 345.642 21.2271 344.599 20.6471C343.597 20.067 342.428 19.777 341.092 19.777C339.84 19.777 338.546 20.0877 337.21 20.7092C335.916 21.3307 334.81 22.3666 333.892 23.8168C332.974 25.267 332.514 27.2351 332.514 29.7212V44.5722C332.514 45.1231 332.065 45.5697 331.51 45.5697H326.319Z" fill="white"/>
<path d="M373.365 45.5697C370.276 45.5697 367.813 44.6168 365.977 42.7108C364.14 40.7634 363.222 38.153 363.222 34.8797V7.03903C363.222 6.48812 363.672 6.04152 364.227 6.04152H369.417C369.972 6.04152 370.422 6.48812 370.422 7.03904V34.1339C370.422 35.7913 370.839 37.0343 371.674 37.863C372.551 38.6917 373.803 39.106 375.431 39.106H378.121C378.466 39.106 378.779 39.306 378.921 39.6176C378.973 39.731 379 39.8541 379 39.9787V44.5722C379 45.1231 378.55 45.5697 377.995 45.5697H373.365ZM358.842 20.5849C358.287 20.5849 357.837 20.1383 357.837 19.5874V15.1809C357.837 14.6299 358.287 14.1833 358.842 14.1833H377.995C378.55 14.1833 379 14.6299 379 15.1809V19.5874C379 20.1383 378.55 20.5849 377.995 20.5849H358.842Z" fill="white"/>
</svg>
