<svg width="83" height="87" viewBox="0 0 83 87" fill="none" xmlns="http://www.w3.org/2000/svg">
<path d="M41.5 43.5146C39.7578 43.5146 38.3438 42.1006 38.3438 40.3584V3.5166C38.3438 1.77435 39.7578 0.360352 41.5 0.360352C43.2422 0.360352 44.6562 1.77435 44.6562 3.5166V40.3457C44.6562 42.1006 43.2422 43.5146 41.5 43.5146Z" fill="#F4731F"/>
<path d="M41.5 86.6398C30.5415 86.6398 20.2395 82.3725 12.4877 74.6208C4.736 66.869 0.46875 56.567 0.46875 45.6085C0.46875 37.3896 2.89275 29.4485 7.48825 22.6562C11.9575 16.0281 18.2069 10.8897 25.542 7.79662C27.1454 7.11487 29.0012 7.87237 29.683 9.47575C30.3647 11.0791 29.6073 12.935 28.0039 13.6167C15.1138 19.0581 6.78125 31.6074 6.78125 45.6085C6.78125 64.748 22.3605 80.3273 41.5 80.3273C60.6395 80.3273 76.2188 64.748 76.2188 45.6085C76.2188 31.62 67.8862 19.0581 54.9961 13.6167C53.3927 12.935 52.6353 11.0917 53.317 9.47575C53.9987 7.87237 55.842 7.11487 57.458 7.79662C64.7931 10.9024 71.0425 16.0407 75.5117 22.6562C80.0946 29.4485 82.5312 37.377 82.5312 45.6085C82.5312 56.567 78.264 66.869 70.5122 74.6208C62.7605 82.3725 52.4585 86.6398 41.5 86.6398Z" fill="#F4731F"/>
</svg>
