<svg width="18" height="18" viewBox="0 0 18 18" fill="none" xmlns="http://www.w3.org/2000/svg">
<path d="M9 6.75V1.5L7.5 3" stroke="#FF9D00" stroke-width="1.5" stroke-linecap="round" stroke-linejoin="round"/>
<path d="M9 1.5L10.5 3" stroke="#FF9D00" stroke-width="1.5" stroke-linecap="round" stroke-linejoin="round"/>
<path d="M1.48486 9.75H4.79236C5.07736 9.75 5.33236 9.9075 5.45986 10.1625L6.33736 11.9175C6.59236 12.4275 7.10986 12.75 7.67986 12.75H10.3274C10.8974 12.75 11.4149 12.4275 11.6699 11.9175L12.5474 10.1625C12.6749 9.9075 12.9374 9.75 13.2149 9.75H16.4849" stroke="#FF9D00" stroke-width="1.5" stroke-linecap="round" stroke-linejoin="round"/>
<path d="M5.25 3.84741C2.595 4.23741 1.5 5.79741 1.5 8.99991V11.2499C1.5 14.9999 3 16.4999 6.75 16.4999H11.25C15 16.4999 16.5 14.9999 16.5 11.2499V8.99991C16.5 5.79741 15.405 4.23741 12.75 3.84741" stroke="#FF9D00" stroke-width="1.5" stroke-linecap="round" stroke-linejoin="round"/>
</svg>
