<svg width="60" height="36" viewBox="0 0 60 36" fill="none" xmlns="http://www.w3.org/2000/svg">
<rect width="60" height="36" rx="18" fill="#FF8A01"/>
<path d="M12.5 18H21.5" stroke="white" stroke-width="1.2" stroke-linecap="round" stroke-linejoin="round"/>
<path d="M17 22.5V13.5" stroke="white" stroke-width="1.2" stroke-linecap="round" stroke-linejoin="round"/>
<path d="M33.5449 22L32.4902 19.2812H29.0566L28.0078 22H27L30.3516 13.3984H31.248L34.5762 22H33.5449ZM32.1914 18.3965L31.1895 15.6953C31.166 15.625 31.127 15.5098 31.0723 15.3496C31.0215 15.1895 30.9688 15.0234 30.9141 14.8516C30.8594 14.6797 30.8145 14.541 30.7793 14.4355C30.7402 14.5957 30.6973 14.7559 30.6504 14.916C30.6074 15.0723 30.5645 15.2188 30.5215 15.3555C30.4785 15.4883 30.4414 15.6016 30.4102 15.6953L29.3906 18.3965H32.1914ZM37.9043 22.1172C37.0918 22.1172 36.4473 21.8398 35.9707 21.2852C35.498 20.7305 35.2617 19.9062 35.2617 18.8125C35.2617 17.707 35.5039 16.873 35.9883 16.3105C36.4727 15.7441 37.1172 15.4609 37.9219 15.4609C38.2617 15.4609 38.5586 15.5059 38.8125 15.5957C39.0664 15.6855 39.2852 15.8066 39.4688 15.959C39.6523 16.1074 39.8066 16.2773 39.9316 16.4688H40.002C39.9863 16.3477 39.9707 16.1816 39.9551 15.9707C39.9395 15.7598 39.9316 15.5879 39.9316 15.4551V12.8828H40.9043V22H40.1191L39.9727 21.0859H39.9316C39.8105 21.2773 39.6562 21.4512 39.4688 21.6074C39.2852 21.7637 39.0645 21.8887 38.8066 21.9824C38.5527 22.0723 38.252 22.1172 37.9043 22.1172ZM38.0566 21.3086C38.7441 21.3086 39.2305 21.1133 39.5156 20.7227C39.8008 20.332 39.9434 19.752 39.9434 18.9824V18.8066C39.9434 17.9902 39.8066 17.3633 39.5332 16.9258C39.2637 16.4883 38.7715 16.2695 38.0566 16.2695C37.459 16.2695 37.0117 16.5 36.7148 16.9609C36.418 17.418 36.2695 18.043 36.2695 18.8359C36.2695 19.625 36.416 20.2344 36.709 20.6641C37.0059 21.0938 37.4551 21.3086 38.0566 21.3086ZM45.252 22.1172C44.4395 22.1172 43.7949 21.8398 43.3184 21.2852C42.8457 20.7305 42.6094 19.9062 42.6094 18.8125C42.6094 17.707 42.8516 16.873 43.3359 16.3105C43.8203 15.7441 44.4648 15.4609 45.2695 15.4609C45.6094 15.4609 45.9062 15.5059 46.1602 15.5957C46.4141 15.6855 46.6328 15.8066 46.8164 15.959C47 16.1074 47.1543 16.2773 47.2793 16.4688H47.3496C47.334 16.3477 47.3184 16.1816 47.3027 15.9707C47.2871 15.7598 47.2793 15.5879 47.2793 15.4551V12.8828H48.252V22H47.4668L47.3203 21.0859H47.2793C47.1582 21.2773 47.0039 21.4512 46.8164 21.6074C46.6328 21.7637 46.4121 21.8887 46.1543 21.9824C45.9004 22.0723 45.5996 22.1172 45.252 22.1172ZM45.4043 21.3086C46.0918 21.3086 46.5781 21.1133 46.8633 20.7227C47.1484 20.332 47.291 19.752 47.291 18.9824V18.8066C47.291 17.9902 47.1543 17.3633 46.8809 16.9258C46.6113 16.4883 46.1191 16.2695 45.4043 16.2695C44.8066 16.2695 44.3594 16.5 44.0625 16.9609C43.7656 17.418 43.6172 18.043 43.6172 18.8359C43.6172 19.625 43.7637 20.2344 44.0566 20.6641C44.3535 21.0938 44.8027 21.3086 45.4043 21.3086Z" fill="white"/>
</svg>
