<svg width="82" height="82" viewBox="0 0 82 82" fill="none" xmlns="http://www.w3.org/2000/svg">
<g clip-path="url(#clip0_9527_5043)">
<path d="M77.7288 30.9227L71.307 32.4971L64.8853 30.9227C64.2582 30.9227 63.75 30.4143 63.75 29.7874V16.944C63.75 16.317 64.2584 15.8088 64.8853 15.8088H68.788L71.307 17.4307L73.8261 15.8086H77.7288C78.3559 15.8086 78.8641 16.317 78.8641 16.9439V29.7872C78.8641 30.4143 78.3557 30.9227 77.7288 30.9227Z" fill="#E2AE83"/>
<path d="M63.75 16.9439V29.7872C63.75 30.4143 64.2584 30.9225 64.8853 30.9225H66.9937V15.8086H64.8853C64.2584 15.8086 63.75 16.317 63.75 16.9439Z" fill="#D39C72"/>
<path d="M68.7871 15.8086H73.8251V19.7113C73.8251 20.3384 73.3168 20.8466 72.6898 20.8466H69.9226C69.2955 20.8466 68.7873 20.3383 68.7873 19.7113V15.8086H68.7871Z" fill="#F27A55"/>
<path d="M77.7288 46.036L71.307 47.6103L64.8853 46.036C64.2582 46.036 63.75 45.5276 63.75 44.9007V32.0573C63.75 31.4302 64.2584 30.922 64.8853 30.922L65.3719 32.4964L66.9939 30.922H68.788L71.307 32.544L73.8261 30.9219H77.7288C78.3559 30.9219 78.8641 31.4302 78.8641 32.0572V44.9005C78.8641 45.5276 78.3557 46.036 77.7288 46.036Z" fill="#E2AE83"/>
<path d="M63.75 32.0573V44.9007C63.75 45.5277 64.2584 46.036 64.8853 46.036H66.9937V30.9219H64.8853C64.2584 30.922 63.75 31.4304 63.75 32.0573Z" fill="#D39C72"/>
<path d="M68.7871 30.9219H73.8251V34.8246C73.8251 35.4517 73.3168 35.9599 72.6898 35.9599H69.9226C69.2955 35.9599 68.7873 35.4515 68.7873 34.8246V30.9219H68.7871Z" fill="#F27A55"/>
<path d="M25.9658 46.037L23.3606 47.6589L20.9277 46.037V37.0962C20.9277 36.4691 21.4361 35.9609 22.063 35.9609C24.2184 35.9609 25.9658 37.7082 25.9658 39.8637V46.037Z" fill="#495959"/>
<path d="M23.6774 36.3095C23.1854 36.0856 22.6388 35.9609 22.063 35.9609C21.4359 35.9609 20.9277 36.4693 20.9277 37.0962V46.037L23.3606 47.6589V37.0962C23.3605 36.7908 23.4811 36.5135 23.6774 36.3095Z" fill="#364444"/>
<path d="M31.0038 51.0732L27.2253 52.6476L20.9277 51.0732V46.0352H31.0038C32.3951 46.0352 33.5228 47.1629 33.5228 48.5542C33.5228 49.9455 32.3951 51.0732 31.0038 51.0732Z" fill="#607882"/>
<path d="M20.9277 46.0352V51.0732L23.3606 52.6476V46.0352H20.9277Z" fill="#526970"/>
<path d="M77.7288 61.1492L71.307 62.7236L64.8853 61.1492C64.2582 61.1492 63.75 60.6409 63.75 60.014V47.1706C63.75 46.5435 64.2584 46.0353 64.8853 46.0353L65.3719 47.6097L66.9939 46.0353H68.788L71.307 47.6572L73.8261 46.0352H77.7288C78.3559 46.0352 78.8641 46.5435 78.8641 47.1704V60.0138C78.8641 60.6409 78.3557 61.1492 77.7288 61.1492Z" fill="#E2AE83"/>
<path d="M63.75 47.1704V60.0138C63.75 60.6409 64.2584 61.1491 64.8853 61.1491L66.9937 62.7235V46.0352H64.8853C64.2584 46.0352 63.75 46.5435 63.75 47.1704Z" fill="#D39C72"/>
<path d="M68.7871 46.0352H73.8251V49.9379C73.8251 50.565 73.3168 51.0732 72.6898 51.0732H69.9226C69.2955 51.0732 68.7873 50.5648 68.7873 49.9379V46.0352H68.7871Z" fill="#F27A55"/>
<path d="M80.2473 66.1865H79.5456L71.3065 67.7609L62.3658 66.1865C61.7387 66.1865 61.2305 65.6781 61.2305 65.0512V62.2837C61.2305 61.6566 61.7388 61.1484 62.3658 61.1484H80.2471C80.8742 61.1484 81.3824 61.6568 81.3824 62.2837V65.0512C81.3826 65.6781 80.8742 66.1865 80.2473 66.1865Z" fill="#3A7F1E"/>
<path d="M61.2305 62.2837V65.0512C61.2305 65.6783 61.7388 66.1865 62.3658 66.1865L64.4742 67.7609V61.1484H62.3658C61.7388 61.1484 61.2305 61.6568 61.2305 62.2837Z" fill="#93D200"/>
<path d="M47.7217 56.1122V66.1883H25.9653L15.8892 56.1122L14.2676 53.5932L15.8892 51.0742H31.0552L33.2106 55.4762C33.4011 55.8651 33.7978 56.1122 34.2308 56.1122H47.7217Z" fill="#495959"/>
<path d="M47.7221 59.3374V66.1844H33.3086C34.2422 61.6313 38.2711 58.207 43.1013 58.207C44.7685 58.207 46.3398 58.6148 47.7221 59.3374Z" fill="#364444"/>
<path d="M47.7219 51.0732H41.7813C41.3513 51.0732 40.9582 50.8303 40.7658 50.4456L38.5605 46.0352H46.745L47.7219 48.966V51.0732Z" fill="#495959"/>
<path d="M40.9887 45.4538L38.982 41.4403L39.0807 41.3833C39.6624 41.0475 39.8619 40.3035 39.5259 39.7217C39.1899 39.1398 38.446 38.9405 37.8643 39.2765L35.6827 40.536C35.1008 40.8718 34.9015 41.6159 35.2374 42.1976C35.4627 42.5879 35.8716 42.8061 36.292 42.8061C36.4883 42.8061 36.6873 42.7584 36.8712 42.6584L38.8127 46.5417C39.0259 46.968 39.4554 47.2144 39.9017 47.2144C40.0845 47.2144 40.2701 47.173 40.4447 47.0858C41.0455 46.7854 41.2891 46.0547 40.9887 45.4538Z" fill="#9BB9C3"/>
<path d="M78.1617 71.2255H56.1922L54.5703 66.1875H79.5454C80.3894 66.1875 80.9383 67.0758 80.5609 67.8305L79.1771 70.5978C78.9849 70.9826 78.5918 71.2255 78.1617 71.2255Z" fill="#495959"/>
<path d="M54.5703 66.1875L56.1922 71.2255H59.4361V66.1875H54.5703Z" fill="#364444"/>
<path d="M41.0796 66.1883V71.2263H1.91052C1.28392 71.2263 0.775391 70.7178 0.775391 70.0912V56.0241C0.775391 53.291 2.99212 51.0742 5.72525 51.0742H10.8514L15.8895 56.1122H20.2253C20.6551 56.1122 21.0487 56.3547 21.2408 56.7404L25.6522 65.5601C25.8443 65.9458 26.2379 66.1883 26.6677 66.1883H41.0796Z" fill="#93D200"/>
<path d="M8.96927 51.0742H5.72557C2.99165 51.0742 0.775391 53.2905 0.775391 56.0244V70.091C0.775391 70.718 1.28376 71.2263 1.91068 71.2263H4.01925V56.0242C4.01925 53.2905 6.23551 51.0742 8.96927 51.0742Z" fill="#3A7F1E"/>
<path d="M56.1923 71.2267H52.2896C51.6625 71.2267 51.1543 70.7183 51.1543 70.0914V9.14844H53.5872L56.1923 10.7704V71.2267Z" fill="#607882"/>
<path d="M51.1545 9.14844V46.0366L49.5801 56.1128L51.1545 68.2085V70.0914C51.1545 70.7185 51.6628 71.2267 52.2898 71.2267H53.5874V9.14844H51.1545Z" fill="#526970"/>
<path d="M56.1932 10.7685H47.2525C46.6254 10.7685 46.1172 10.2601 46.1172 9.63321V6.86576C46.1172 6.23868 46.6256 5.73047 47.2525 5.73047H55.0578C55.6849 5.73047 56.1931 6.23884 56.1931 6.86576V10.7685H56.1932Z" fill="#495959"/>
<path d="M46.1172 6.86576V9.63305C46.1172 10.2601 46.6256 10.7683 47.2525 10.7683H49.361V5.73047H47.2525C46.6256 5.73047 46.1172 6.23884 46.1172 6.86576Z" fill="#364444"/>
<path d="M15.8896 56.1108H10.8516V20.8446L13.2845 19.2227L15.8896 20.8446V56.1108Z" fill="#9BB9C3"/>
<path d="M10.8516 20.8446V56.1108H13.2845V19.2227L10.8516 20.8446Z" fill="#8BAAB2"/>
<path d="M51.1563 68.2066H46.0989V48.9658L37.2975 22.5612C36.9585 21.5444 36.0109 20.8604 34.9392 20.8588L6.92668 20.8188C6.29961 20.8178 5.79203 20.3088 5.79297 19.6818L5.79706 16.8759C5.79801 16.2488 6.30701 15.7412 6.93408 15.7422L34.9468 15.7822C38.2039 15.7869 41.084 17.866 42.1138 20.9559C42.1138 20.9559 49.6945 41.1727 51.1549 46.0349L51.1563 68.2066Z" fill="#9BB9C3"/>
<path d="M8.22445 20.8172L8.23169 15.7441L6.93408 15.7422C6.30701 15.7412 5.79801 16.2488 5.79706 16.8759L5.79297 19.6802C5.79203 20.3079 6.30071 20.8172 6.92826 20.8172H8.22445Z" fill="#8BAAB2"/>
<path d="M39.7306 22.5618C39.3917 21.545 38.444 20.8609 37.3723 20.8594H34.9395C36.0111 20.8609 36.9589 21.545 37.2977 22.5618L46.0992 48.9664V68.2072H48.5321V48.9664L39.7306 22.5618Z" fill="#8BAAB2"/>
<path d="M41.0793 66.1875V71.2255H33.568C33.2657 70.273 33.1035 69.2591 33.1035 68.2074C33.1035 67.5163 33.1744 66.8409 33.3082 66.1875H41.0793Z" fill="#3A7F1E"/>
<path d="M43.1014 76.2613C47.5508 76.2613 51.1578 72.6543 51.1578 68.2049C51.1578 63.7554 47.5508 60.1484 43.1014 60.1484C38.6519 60.1484 35.0449 63.7554 35.0449 68.2049C35.0449 72.6543 38.6519 76.2613 43.1014 76.2613Z" fill="#495959"/>
<path d="M43.0997 71.3284C44.8235 71.3284 46.2209 69.931 46.2209 68.2072C46.2209 66.4834 44.8235 65.0859 43.0997 65.0859C41.3759 65.0859 39.9785 66.4834 39.9785 68.2072C39.9785 69.931 41.3759 71.3284 43.0997 71.3284Z" fill="#F1F6F7"/>
<path d="M13.285 76.2652C17.7344 76.2652 21.3414 72.6582 21.3414 68.2088C21.3414 63.7593 17.7344 60.1523 13.285 60.1523C8.83551 60.1523 5.22852 63.7593 5.22852 68.2088C5.22852 72.6582 8.83551 76.2652 13.285 76.2652Z" fill="#495959"/>
<path d="M13.2833 71.3284C15.0071 71.3284 16.4045 69.931 16.4045 68.2072C16.4045 66.4834 15.0071 65.0859 13.2833 65.0859C11.5595 65.0859 10.1621 66.4834 10.1621 68.2072C10.1621 69.931 11.5595 71.3284 13.2833 71.3284Z" fill="#F1F6F7"/>
</g>
<defs>
<clipPath id="clip0_9527_5043">
<rect width="80.6085" height="80.6085" fill="white" transform="translate(0.775391 0.691406)"/>
</clipPath>
</defs>
</svg>
