<svg width="21" height="20" viewBox="0 0 21 20" fill="none" xmlns="http://www.w3.org/2000/svg">
<path d="M3.8335 18.333H17.1668" stroke="#090909" stroke-width="1.1" stroke-linecap="round"/>
<path d="M12.0735 3.05276L12.6915 2.43484C13.7153 1.41104 15.3752 1.41104 16.399 2.43484C17.4228 3.45865 17.4228 5.11856 16.399 6.14236L15.7811 6.76028M12.0735 3.05276C12.0735 3.05276 12.1508 4.36584 13.3094 5.52444C14.468 6.68304 15.7811 6.76028 15.7811 6.76028M12.0735 3.05276L6.39271 8.73359C6.00794 9.11837 5.81555 9.31075 5.65009 9.52288C5.45492 9.77311 5.28759 10.0439 5.15106 10.3303C5.03532 10.5732 4.94928 10.8313 4.7772 11.3475L4.04803 13.535M15.7811 6.76028L10.1002 12.4411C9.71546 12.8259 9.52307 13.0183 9.31094 13.1837C9.06071 13.3789 8.78996 13.5462 8.50348 13.6828C8.26063 13.7985 8.00251 13.8845 7.48628 14.0566L5.29878 14.7858M5.29878 14.7858L4.76406 14.964C4.51002 15.0487 4.22993 14.9826 4.04058 14.7932C3.85123 14.6039 3.78511 14.3238 3.8698 14.0698L4.04803 13.535M5.29878 14.7858L4.04803 13.535" stroke="#090909" stroke-width="1.1"/>
</svg>
