<svg width="119" height="120" viewBox="0 0 119 120" fill="none" xmlns="http://www.w3.org/2000/svg">
<g filter="url(#filter0_d_2140_35213)">
<circle cx="59.5" cy="53.5" r="39.5" fill="#F4731F"/>
<path d="M71.4435 49.2957L71.5045 49.2347L71.6263 49.1129C71.7482 48.991 71.8701 48.8691 72.0529 48.7472C72.1748 48.6254 72.2966 48.5035 72.4185 48.3816L73.3935 47.4676C73.6373 47.2238 73.7591 46.8582 73.6373 46.4926C73.5763 46.3707 73.5154 46.2488 73.4545 46.1269C73.1498 45.8222 72.6623 45.7613 72.2966 45.9441C72.2357 46.0051 72.1748 46.0051 72.1138 46.066L71.3216 46.7972C68.8841 48.991 66.5076 51.1238 64.0701 53.3176C63.5216 53.8051 62.9732 54.2926 62.4248 54.7801C61.5716 55.5113 60.5357 55.8769 59.4998 55.8769C58.4638 55.8769 57.4888 55.5722 56.5748 54.7801C56.0263 54.2926 55.4779 53.8051 54.9295 53.3176C52.492 51.1238 50.1154 48.991 47.6779 46.7972L46.8857 46.066C46.8248 46.0051 46.7638 46.0051 46.7029 45.9441C46.3373 45.7004 45.8498 45.8222 45.5451 46.1269C45.4232 46.2488 45.3623 46.3707 45.3623 46.4926C45.2404 46.7972 45.3623 47.2238 45.606 47.4676L46.581 48.3816L46.9466 48.7472C47.0685 48.8691 47.1904 48.991 47.3732 49.1129L47.4951 49.2347L47.556 49.2957C48.7138 50.3926 49.9326 51.4285 51.0904 52.4644C51.517 52.8301 51.9435 53.2566 52.431 53.6832C52.3701 53.7441 52.3091 53.8051 52.2482 53.866C50.3591 55.7551 48.4701 57.5832 46.581 59.4722C46.5201 59.5332 46.3982 59.6551 46.3373 59.716C46.0935 60.0207 46.0935 60.4472 46.2763 60.7519C46.5201 61.0566 46.8857 61.2394 47.2513 61.0566C47.4341 60.9957 47.617 60.8738 47.7388 60.691C49.6279 58.8629 51.517 56.9738 53.406 55.1457C53.5279 55.0238 53.5888 54.9629 53.7107 54.841C54.2591 55.3285 54.7466 55.7551 55.2341 56.1816C56.2091 57.0957 57.4279 57.6441 58.7685 57.766C59.0123 57.766 59.256 57.8269 59.4998 57.8269C59.7435 57.8269 59.9873 57.8269 60.231 57.766C61.5716 57.6441 62.7295 57.0347 63.7654 56.1816C64.2529 55.7551 64.7404 55.2676 65.2888 54.841C65.4107 54.9629 65.5326 55.0238 65.5935 55.1457C67.4826 56.9738 69.3716 58.8629 71.2607 60.691C71.3826 60.8129 71.5654 60.9957 71.7482 61.0566C72.1138 61.1785 72.4795 61.0566 72.7232 60.7519C72.967 60.4472 72.906 60.0207 72.6623 59.716C72.6013 59.6551 72.4795 59.5332 72.4185 59.4722C70.5295 57.5832 68.6404 55.7551 66.7513 53.866C66.6904 53.8051 66.6295 53.7441 66.5685 53.6832C66.9951 53.2566 67.4216 52.891 67.9091 52.4644C69.067 51.4285 70.2857 50.3926 71.4435 49.2957Z" fill="white"/>
<path d="M72.784 67.3939H46.2152C43.1684 67.3939 40.6699 64.8955 40.6699 61.8486V45.1518C40.6699 42.1049 43.1684 39.6064 46.2152 39.6064H72.8449C75.8918 39.6064 78.3902 42.1049 78.3902 45.1518V61.8486C78.3293 64.8955 75.8918 67.3939 72.784 67.3939ZM46.2152 41.6783C44.2652 41.6783 42.7418 43.2627 42.7418 45.1518V61.8486C42.7418 63.7986 44.3262 65.3221 46.2152 65.3221H72.8449C74.7949 65.3221 76.3184 63.7377 76.3184 61.8486V45.1518C76.3184 43.2018 74.734 41.6783 72.8449 41.6783H46.2152Z" fill="white"/>
</g>
<defs>
<filter id="filter0_d_2140_35213" x="0.25" y="0.57" width="118.5" height="118.5" filterUnits="userSpaceOnUse" color-interpolation-filters="sRGB">
<feFlood flood-opacity="0" result="BackgroundImageFix"/>
<feColorMatrix in="SourceAlpha" type="matrix" values="0 0 0 0 0 0 0 0 0 0 0 0 0 0 0 0 0 0 127 0" result="hardAlpha"/>
<feOffset dy="6.32"/>
<feGaussianBlur stdDeviation="9.875"/>
<feComposite in2="hardAlpha" operator="out"/>
<feColorMatrix type="matrix" values="0 0 0 0 0.404167 0 0 0 0 0.404167 0 0 0 0 0.404167 0 0 0 0.14 0"/>
<feBlend mode="normal" in2="BackgroundImageFix" result="effect1_dropShadow_2140_35213"/>
<feBlend mode="normal" in="SourceGraphic" in2="effect1_dropShadow_2140_35213" result="shape"/>
</filter>
</defs>
</svg>
