<svg width="30" height="30" viewBox="0 0 30 30" fill="none" xmlns="http://www.w3.org/2000/svg">
<circle cx="14.8425" cy="14.9177" r="14.2644" fill="#D9D9D9"/>
<rect x="2.71582" y="2.79297" width="24.2494" height="24.2494" rx="12.1247" fill="white"/>
<path d="M8.55565 13.443C8.47366 13.443 8.39082 13.4196 8.31757 13.3706C8.1206 13.2389 8.06767 12.9724 8.19938 12.7754L9.13763 11.3722C9.26935 11.1753 9.53578 11.1224 9.73275 11.2541C9.92972 11.3858 9.98265 11.6522 9.85094 11.8492L8.91269 13.2524C8.83 13.3761 8.69411 13.443 8.55565 13.443Z" fill="#33CCCC"/>
<path d="M12.0254 13.8609C11.9434 13.8609 11.8605 13.8375 11.7873 13.7885C11.5903 13.6568 11.5374 13.3903 11.6691 13.1934L12.6073 11.7902C12.739 11.5933 13.0055 11.5403 13.2024 11.672C13.3994 11.8037 13.4523 12.0702 13.3206 12.2672L12.3824 13.6704C12.2997 13.794 12.1638 13.8609 12.0254 13.8609Z" fill="#33CCCC"/>
<path d="M15.4765 14.2818C15.3946 14.2818 15.3117 14.2584 15.2385 14.2094C15.0415 14.0777 14.9886 13.8112 15.1203 13.6143L16.0585 12.2111C16.1902 12.0141 16.4567 11.9612 16.6537 12.0929C16.8506 12.2246 16.9036 12.4911 16.7718 12.6881L15.8336 14.0913C15.7509 14.2149 15.615 14.2818 15.4765 14.2818Z" fill="#33CCCC"/>
<path d="M18.9375 14.7009C18.8555 14.7009 18.7727 14.6774 18.6994 14.6285C18.5024 14.4967 18.4495 14.2303 18.5812 14.0333L19.5194 12.6301C19.6511 12.4331 19.9175 12.3801 20.1146 12.5119C20.3115 12.6436 20.3644 12.9101 20.2327 13.1071L19.2945 14.5103C19.2118 14.634 19.0759 14.7009 18.9375 14.7009Z" fill="#33CCCC"/>
<path d="M21.4917 17.4997C21.3532 17.4997 21.2174 17.4328 21.1347 17.3091L20.1965 15.9059C20.0647 15.7089 20.1176 15.4425 20.3146 15.3107C20.5116 15.179 20.7781 15.2319 20.9098 15.4289L21.848 16.8321C21.9797 17.0291 21.9268 17.2955 21.7298 17.4273C21.6565 17.4763 21.5737 17.4997 21.4917 17.4997Z" fill="#33CCCC"/>
<path d="M18.0298 17.9196C17.8914 17.9196 17.7555 17.8527 17.6728 17.729L16.7345 16.3258C16.6028 16.1288 16.6557 15.8623 16.8527 15.7306C17.0497 15.5989 17.3162 15.6519 17.4479 15.8488L18.3861 17.252C18.5178 17.449 18.4649 17.7154 18.2679 17.8471C18.1947 17.8961 18.1118 17.9196 18.0298 17.9196Z" fill="#33CCCC"/>
<path d="M14.5669 18.3395C14.4285 18.3395 14.2926 18.2726 14.2099 18.1489L13.2717 16.7457C13.1399 16.5487 13.1928 16.2823 13.3898 16.1505C13.5869 16.0189 13.8533 16.0717 13.985 16.2687L14.9232 17.6719C15.0549 17.8689 15.002 18.1353 14.805 18.2671C14.7317 18.3161 14.6489 18.3395 14.5669 18.3395Z" fill="#33CCCC"/>
<path d="M11.1119 18.7594C10.9734 18.7594 10.8376 18.6925 10.7548 18.5688L9.81658 17.1656C9.68486 16.9686 9.73775 16.7022 9.93476 16.5704C10.1317 16.4388 10.3982 16.4917 10.5299 16.6886L11.4681 18.0918C11.5999 18.2888 11.547 18.5553 11.35 18.687C11.2767 18.736 11.1939 18.7594 11.1119 18.7594Z" fill="#33CCCC"/>
<path d="M24.3936 21.6001H24.0426V8.96274C24.0426 8.18847 23.4127 7.55859 22.6384 7.55859C21.8642 7.55859 21.2343 8.18847 21.2343 8.96274V12.357L8.44092 10.768V8.96274C8.44092 8.18847 7.81104 7.55859 7.03677 7.55859C6.26254 7.55859 5.63262 8.18847 5.63262 8.96274V21.6001H5.28158C5.04463 21.6001 4.85254 21.7922 4.85254 22.0291C4.85254 22.2661 5.04463 22.4582 5.28158 22.4582H24.3936C24.6306 22.4582 24.8227 22.2661 24.8227 22.0291C24.8227 21.7922 24.6306 21.6001 24.3936 21.6001ZM20.1326 15.0084L8.44092 16.4605V13.5563L20.1326 15.0084ZM23.1845 16.5529L8.44092 18.3841V17.3252L23.1845 15.494V16.5529ZM8.44092 19.2488L21.2343 17.6598V21.6001H8.44092V19.2488ZM22.0924 17.5532L23.1845 17.4176V21.6001H22.0924V17.5532ZM22.6384 8.41668C22.9395 8.41668 23.1845 8.66163 23.1845 8.96274V14.6293L22.0924 14.765V8.96274C22.0924 8.66163 22.3373 8.41668 22.6384 8.41668ZM21.2343 14.2805L6.49071 12.4494V11.3905L21.2343 13.2217V14.2805ZM7.03677 8.41668C7.33784 8.41668 7.58283 8.66163 7.58283 8.96274V10.6615L6.49071 10.5258V8.96274C6.49071 8.66163 6.73566 8.41668 7.03677 8.41668ZM6.49071 13.314L7.58283 13.4497V21.6001H6.49071V13.314Z" fill="black"/>
</svg>
