<svg width="44" height="36" viewBox="0 0 44 36" fill="none" xmlns="http://www.w3.org/2000/svg">
<rect width="44" height="36" rx="12" fill="#F6F6F6"/>
<path d="M31.1667 14.8102V10.6485C31.1667 9.356 30.58 8.8335 29.1225 8.8335H25.4192C23.9617 8.8335 23.375 9.356 23.375 10.6485V14.801C23.375 16.1027 23.9617 16.616 25.4192 16.616H29.1225C30.58 16.6252 31.1667 16.1027 31.1667 14.8102Z" stroke="#616161" stroke-width="1.2" stroke-linecap="round" stroke-linejoin="round"/>
<path d="M31.1667 25.1225V21.4192C31.1667 19.9617 30.58 19.375 29.1225 19.375H25.4192C23.9617 19.375 23.375 19.9617 23.375 21.4192V25.1225C23.375 26.58 23.9617 27.1667 25.4192 27.1667H29.1225C30.58 27.1667 31.1667 26.58 31.1667 25.1225Z" stroke="#616161" stroke-width="1.2" stroke-linecap="round" stroke-linejoin="round"/>
<path d="M20.6257 14.8102V10.6485C20.6257 9.356 20.039 8.8335 18.5815 8.8335H14.8782C13.4207 8.8335 12.834 9.356 12.834 10.6485V14.801C12.834 16.1027 13.4207 16.616 14.8782 16.616H18.5815C20.039 16.6252 20.6257 16.1027 20.6257 14.8102Z" stroke="#616161" stroke-width="1.2" stroke-linecap="round" stroke-linejoin="round"/>
<path d="M20.6257 25.1225V21.4192C20.6257 19.9617 20.039 19.375 18.5815 19.375H14.8782C13.4207 19.375 12.834 19.9617 12.834 21.4192V25.1225C12.834 26.58 13.4207 27.1667 14.8782 27.1667H18.5815C20.039 27.1667 20.6257 26.58 20.6257 25.1225Z" stroke="#616161" stroke-width="1.2" stroke-linecap="round" stroke-linejoin="round"/>
</svg>
