<svg width="40" height="40" viewBox="0 0 40 40" fill="none" xmlns="http://www.w3.org/2000/svg">
<circle cx="20" cy="20" r="20" fill="#F3F3F3"/>
<path d="M28.2696 24.265L28.9752 20.1852C29.1514 19.1662 28.3678 18.2342 27.3348 18.2342H22.1537C21.6402 18.2342 21.2492 17.7733 21.3323 17.266L21.995 13.2214C22.1026 12.5643 22.0719 11.892 21.9047 11.2475C21.7662 10.7136 21.3543 10.2849 20.8126 10.1109L20.6676 10.0644C20.3402 9.95918 19.9829 9.98365 19.6742 10.1324C19.3344 10.2961 19.0859 10.5947 18.9938 10.9499L18.5181 12.7837C18.3667 13.3672 18.1462 13.9305 17.8619 14.4626C17.4466 15.2402 16.8044 15.8625 16.1369 16.4377L14.6981 17.6775C14.2925 18.0271 14.0794 18.5506 14.1256 19.0844L14.9378 28.4771C15.0123 29.3386 15.7326 30 16.5963 30H21.245C24.7263 30 27.6973 27.5744 28.2696 24.265Z" fill="#00B712"/>
<path d="M11 18.2342L11.9716 29.4707C11.9962 29.7553 11.7721 30 11.4867 30C11.2179 30 11 29.7818 11 29.5127V18.2342Z" fill="#00B712"/>
</svg>
