<svg width="27" height="27" viewBox="0 0 27 27" fill="none" xmlns="http://www.w3.org/2000/svg">
<path d="M22.5 20.717C22.8527 20.5456 23.1595 20.3294 23.432 20.057C24.75 18.739 24.75 16.6176 24.75 12.375C24.75 8.13236 24.75 6.01104 23.432 4.69302C22.114 3.375 19.9926 3.375 15.75 3.375H11.25C7.00736 3.375 4.88604 3.375 3.56802 4.69302C2.25 6.01104 2.25 8.13236 2.25 12.375C2.25 16.6176 2.25 18.739 3.56802 20.057C3.84047 20.3294 4.14725 20.5456 4.5 20.717" stroke="#626262" stroke-width="1.5" stroke-linecap="round"/>
<path d="M11.1934 18.0568C12.2408 17.0093 12.7645 16.4856 13.4111 16.4516C13.4703 16.4484 13.5295 16.4484 13.5887 16.4516C14.2353 16.4856 14.759 17.0093 15.8064 18.0568C18.0855 20.3358 19.2251 21.4754 18.906 22.4586C18.8786 22.5431 18.8446 22.6253 18.8042 22.7044C18.3346 23.6252 16.723 23.6252 13.4999 23.6252C10.2768 23.6252 8.66525 23.6252 8.19562 22.7044C8.15525 22.6253 8.1212 22.5431 8.09377 22.4586C7.77475 21.4754 8.91429 20.3358 11.1934 18.0568Z" stroke="#626262" stroke-width="1.5"/>
</svg>
