<svg width="28" height="27" viewBox="0 0 28 27" fill="none" xmlns="http://www.w3.org/2000/svg">
<path d="M3.50098 7.39188C3.50098 6.5571 3.50142 5.97037 3.53427 5.51061C3.5666 5.05803 3.62754 4.78622 3.72 4.57431C3.98482 3.96733 4.46928 3.48287 5.07626 3.21805C5.28818 3.12559 5.55999 3.06465 6.01256 3.03232C6.47233 2.99947 7.05905 2.99902 7.89383 2.99902C8.72861 2.99902 9.31534 2.99947 9.7751 3.03232C10.2277 3.06465 10.4995 3.12559 10.7114 3.21805C11.3184 3.48287 11.8028 3.96733 12.0677 4.57431C12.1601 4.78622 12.2211 5.05803 12.2534 5.51061C12.2862 5.97037 12.2867 6.5571 12.2867 7.39188C12.2867 8.22666 12.2862 8.81339 12.2534 9.27315C12.2211 9.72573 12.1601 9.99754 12.0677 10.2095C11.8028 10.8164 11.3184 11.3009 10.7114 11.5657C10.4995 11.6582 10.2277 11.7191 9.7751 11.7514C9.31534 11.7843 8.72861 11.7847 7.89383 11.7847C7.05905 11.7847 6.47233 11.7843 6.01256 11.7514C5.55998 11.7191 5.28818 11.6582 5.07626 11.5657C4.46928 11.3009 3.98482 10.8164 3.72 10.2095C3.62754 9.99754 3.5666 9.72573 3.53427 9.27315C3.50142 8.81339 3.50098 8.22666 3.50098 7.39188Z" stroke="#626262" stroke-width="1.5"/>
<path d="M3.50098 19.6067C3.50098 18.7719 3.50142 18.1852 3.53427 17.7255C3.5666 17.2729 3.62754 17.0011 3.72 16.7892C3.98482 16.1822 4.46928 15.6977 5.07626 15.4329C5.28818 15.3404 5.55999 15.2795 6.01256 15.2472C6.47233 15.2143 7.05905 15.2139 7.89383 15.2139C8.72861 15.2139 9.31534 15.2143 9.7751 15.2472C10.2277 15.2795 10.4995 15.3404 10.7114 15.4329C11.3184 15.6977 11.8028 16.1822 12.0677 16.7892C12.1601 17.0011 12.2211 17.2729 12.2534 17.7255C12.2862 18.1852 12.2867 18.7719 12.2867 19.6067C12.2867 20.4415 12.2862 21.0282 12.2534 21.488C12.2211 21.9406 12.1601 22.2124 12.0677 22.4243C11.8028 23.0313 11.3184 23.5157 10.7114 23.7806C10.4995 23.873 10.2277 23.934 9.7751 23.9663C9.31534 23.9991 8.72861 23.9996 7.89383 23.9996C7.05905 23.9996 6.47233 23.9991 6.01256 23.9663C5.55998 23.934 5.28818 23.873 5.07626 23.7806C4.46928 23.5157 3.98482 23.0313 3.72 22.4243C3.62754 22.2124 3.5666 21.9406 3.53427 21.488C3.50142 21.0282 3.50098 20.4415 3.50098 19.6067Z" stroke="#626262" stroke-width="1.5"/>
<path d="M15.7139 7.39188C15.7139 6.5571 15.7143 5.97037 15.7472 5.51061C15.7795 5.05803 15.8404 4.78622 15.9329 4.57431C16.1977 3.96733 16.6822 3.48287 17.2892 3.21805C17.5011 3.12559 17.7729 3.06465 18.2255 3.03232C18.6852 2.99947 19.2719 2.99902 20.1067 2.99902C20.9415 2.99902 21.5282 2.99947 21.988 3.03232C22.4406 3.06465 22.7124 3.12559 22.9243 3.21805C23.5313 3.48287 24.0157 3.96733 24.2806 4.57431C24.373 4.78622 24.434 5.05803 24.4663 5.51061C24.4991 5.97037 24.4996 6.5571 24.4996 7.39188C24.4996 8.22666 24.4991 8.81339 24.4663 9.27315C24.434 9.72573 24.373 9.99754 24.2806 10.2095C24.0157 10.8164 23.5313 11.3009 22.9243 11.5657C22.7124 11.6582 22.4406 11.7191 21.988 11.7514C21.5282 11.7843 20.9415 11.7847 20.1067 11.7847C19.2719 11.7847 18.6852 11.7843 18.2255 11.7514C17.7729 11.7191 17.5011 11.6582 17.2892 11.5657C16.6822 11.3009 16.1977 10.8164 15.9329 10.2095C15.8404 9.99754 15.7795 9.72573 15.7472 9.27315C15.7143 8.81339 15.7139 8.22666 15.7139 7.39188Z" stroke="#626262" stroke-width="1.5"/>
<path d="M15.7139 19.6067C15.7139 18.7719 15.7143 18.1852 15.7472 17.7255C15.7795 17.2729 15.8404 17.0011 15.9329 16.7892C16.1977 16.1822 16.6822 15.6977 17.2892 15.4329C17.5011 15.3404 17.7729 15.2795 18.2255 15.2472C18.6852 15.2143 19.2719 15.2139 20.1067 15.2139C20.9415 15.2139 21.5282 15.2143 21.988 15.2472C22.4406 15.2795 22.7124 15.3404 22.9243 15.4329C23.5313 15.6977 24.0157 16.1822 24.2806 16.7892C24.373 17.0011 24.434 17.2729 24.4663 17.7255C24.4991 18.1852 24.4996 18.7719 24.4996 19.6067C24.4996 20.4415 24.4991 21.0282 24.4663 21.488C24.434 21.9406 24.373 22.2124 24.2806 22.4243C24.0157 23.0313 23.5313 23.5157 22.9243 23.7806C22.7124 23.873 22.4406 23.934 21.988 23.9663C21.5282 23.9991 20.9415 23.9996 20.1067 23.9996C19.2719 23.9996 18.6852 23.9991 18.2255 23.9663C17.7729 23.934 17.5011 23.873 17.2892 23.7806C16.6822 23.5157 16.1977 23.0313 15.9329 22.4243C15.8404 22.2124 15.7795 21.9406 15.7472 21.488C15.7143 21.0282 15.7139 20.4415 15.7139 19.6067Z" stroke="#626262" stroke-width="1.5"/>
</svg>
