<svg width="28" height="27" viewBox="0 0 28 27" fill="none" xmlns="http://www.w3.org/2000/svg">
<path d="M3.875 10.2485V16.7398C3.875 19.1248 3.875 19.1248 6.125 20.6435L12.3125 24.221C13.2462 24.761 14.765 24.761 15.6875 24.221L21.875 20.6435C24.125 19.1248 24.125 19.1248 24.125 16.751V10.2485C24.125 7.87478 24.125 7.87479 21.875 6.35604L15.6875 2.77854C14.765 2.23854 13.2462 2.23854 12.3125 2.77854L6.125 6.35604C3.875 7.87479 3.875 7.87478 3.875 10.2485Z" stroke="#090909" stroke-width="1.5" stroke-linecap="round" stroke-linejoin="round"/>
<path d="M14 16.875C15.864 16.875 17.375 15.364 17.375 13.5C17.375 11.636 15.864 10.125 14 10.125C12.136 10.125 10.625 11.636 10.625 13.5C10.625 15.364 12.136 16.875 14 16.875Z" stroke="#090909" stroke-width="1.5" stroke-linecap="round" stroke-linejoin="round"/>
</svg>
