<svg width="20" height="20" viewBox="0 0 20 20" fill="none" xmlns="http://www.w3.org/2000/svg">
<path d="M17.501 5.61718C17.4844 5.61718 17.4594 5.61718 17.4344 5.61718C13.026 5.17552 8.62603 5.00885 4.26769 5.45052L2.56769 5.61718C2.21769 5.65052 1.90936 5.40052 1.87603 5.05052C1.84269 4.70052 2.0927 4.40052 2.43436 4.36718L4.13436 4.20052C8.56769 3.75052 13.0594 3.92552 17.5594 4.36718C17.901 4.40052 18.151 4.70885 18.1177 5.05052C18.0927 5.37552 17.8177 5.61718 17.501 5.61718Z" fill="#FF6973"/>
<path d="M7.08265 4.77187C7.04932 4.77187 7.01598 4.77187 6.97432 4.76354C6.64098 4.70521 6.40765 4.38021 6.46598 4.04687L6.64932 2.95521C6.78265 2.15521 6.96598 1.04688 8.90765 1.04688H11.091C13.041 1.04688 13.2243 2.19687 13.3493 2.96354L13.5326 4.04687C13.591 4.38854 13.3576 4.71354 13.0243 4.76354C12.6826 4.82187 12.3576 4.58854 12.3076 4.25521L12.1243 3.17188C12.0076 2.44687 11.9826 2.30521 11.0993 2.30521H8.91598C8.03265 2.30521 8.01598 2.42188 7.89098 3.16354L7.69932 4.24688C7.64932 4.55521 7.38265 4.77187 7.08265 4.77187Z" fill="#FF6973"/>
<path d="M12.674 18.9596H7.32402C4.41569 18.9596 4.29902 17.3513 4.20735 16.0513L3.66569 7.65962C3.64069 7.31795 3.90735 7.01795 4.24902 6.99295C4.59902 6.97628 4.89069 7.23462 4.91569 7.57628L5.45735 15.9679C5.54902 17.2346 5.58235 17.7096 7.32402 17.7096H12.674C14.424 17.7096 14.4574 17.2346 14.5407 15.9679L15.0824 7.57628C15.1074 7.23462 15.4074 6.97628 15.749 6.99295C16.0907 7.01795 16.3574 7.30962 16.3324 7.65962L15.7907 16.0513C15.699 17.3513 15.5824 18.9596 12.674 18.9596Z" fill="#FF6973"/>
<path d="M11.3844 14.375H8.60937C8.26771 14.375 7.98438 14.0917 7.98438 13.75C7.98438 13.4083 8.26771 13.125 8.60937 13.125H11.3844C11.726 13.125 12.0094 13.4083 12.0094 13.75C12.0094 14.0917 11.726 14.375 11.3844 14.375Z" fill="#FF6973"/>
<path d="M12.0846 11.0469H7.91797C7.5763 11.0469 7.29297 10.7635 7.29297 10.4219C7.29297 10.0802 7.5763 9.79688 7.91797 9.79688H12.0846C12.4263 9.79688 12.7096 10.0802 12.7096 10.4219C12.7096 10.7635 12.4263 11.0469 12.0846 11.0469Z" fill="#FF6973"/>
</svg>
