<svg width="20" height="20" viewBox="0 0 20 20" fill="none" xmlns="http://www.w3.org/2000/svg">
<path d="M3.33301 18.3333H16.6663" stroke="#FFB600" stroke-width="1.2" stroke-linecap="round"/>
<path d="M11.5731 3.05243L12.191 2.43451C13.2148 1.41071 14.8747 1.41071 15.8985 2.43451C16.9223 3.45831 16.9223 5.11822 15.8985 6.14203L15.2806 6.75995M11.5731 3.05243C11.5731 3.05243 11.6503 4.36551 12.8089 5.52411C13.9675 6.68271 15.2806 6.75995 15.2806 6.75995M11.5731 3.05243L5.89222 8.73326C5.50745 9.11803 5.31506 9.31042 5.14961 9.52255C4.95443 9.77278 4.7871 10.0435 4.65057 10.33C4.53483 10.5729 4.44879 10.831 4.27671 11.3472L3.54755 13.5347M15.2806 6.75995L9.59974 12.4408C9.21497 12.8255 9.02258 13.0179 8.81045 13.1834C8.56022 13.3786 8.28947 13.5459 8.00299 13.6824C7.76014 13.7982 7.50202 13.8842 6.98579 14.0563L4.79829 14.7855M4.79829 14.7855L4.26357 14.9637C4.00953 15.0484 3.72945 14.9823 3.5401 14.7929C3.35074 14.6036 3.28463 14.3235 3.36931 14.0694L3.54755 13.5347M4.79829 14.7855L3.54755 13.5347" stroke="#FFB600" stroke-width="1.2"/>
</svg>
