<svg width="39" height="38" viewBox="0 0 39 38" fill="none" xmlns="http://www.w3.org/2000/svg">
<g clip-path="url(#clip0_9554_138651)">
<path d="M21.2533 25.3529H10.964C10.5203 25.3529 10.1606 24.9932 10.1606 24.5495C10.1606 24.1058 10.5203 23.7461 10.964 23.7461H21.2533C21.697 23.7461 22.0567 24.1058 22.0567 24.5495C22.0567 24.9932 21.697 25.3529 21.2533 25.3529Z" fill="#FF8A01"/>
<path d="M21.2523 29.1078H10.9631C10.5194 29.1078 10.1597 28.7481 10.1597 28.3044C10.1597 27.8607 10.5194 27.501 10.9631 27.501H21.2523C21.696 27.501 22.0557 27.8607 22.0557 28.3044C22.0557 28.7481 21.6961 29.1078 21.2523 29.1078Z" fill="#FF8A01"/>
<path d="M21.2523 32.8656H10.9631C10.5194 32.8656 10.1597 32.5059 10.1597 32.0622C10.1597 31.6185 10.5194 31.2588 10.9631 31.2588H21.2523C21.696 31.2588 22.0557 31.6185 22.0557 32.0622C22.0557 32.5059 21.6961 32.8656 21.2523 32.8656Z" fill="#FF8A01"/>
<path d="M16.0293 14.0371H14.0314C13.5877 14.0371 13.228 14.3968 13.228 14.8405C13.228 15.2842 13.5877 15.6439 14.0314 15.6439H16.0293C16.473 15.6439 16.8327 15.2842 16.8327 14.8405C16.8327 14.3968 16.473 14.0371 16.0293 14.0371Z" fill="black"/>
<path d="M25.0498 14.0371H23.0519C22.6082 14.0371 22.2485 14.3968 22.2485 14.8405C22.2485 15.2842 22.6082 15.6439 23.0519 15.6439H25.0498C25.4935 15.6439 25.8532 15.2842 25.8532 14.8405C25.8532 14.3968 25.4935 14.0371 25.0498 14.0371Z" fill="black"/>
<path d="M27.5317 7.5134H26.7592L26.6449 6.27485C26.5169 4.80207 25.3075 3.69141 23.8316 3.69141H15.2486C13.7727 3.69141 12.5633 4.80207 12.4357 6.27054L12.321 7.5134H11.5485C10.3632 7.5134 9.39893 8.4785 9.39893 9.66476V10.531C9.39893 11.2846 9.78814 11.949 10.3759 12.3333C10.1582 12.7066 10.0333 13.1403 10.0333 13.6027V16.2463C10.0333 17.2663 10.6839 18.1373 11.5919 18.466V20.9639C11.5919 21.4076 11.9516 21.7673 12.3953 21.7673H15.9977C16.4414 21.7673 16.8011 21.4076 16.8011 20.9639V18.6061H22.279V20.9639C22.279 21.4076 22.6387 21.7673 23.0824 21.7673H26.6847C27.1284 21.7673 27.4881 21.4076 27.4881 20.9639V18.466C28.3961 18.1373 29.0467 17.2663 29.0467 16.2463V13.6027C29.0467 13.1403 28.9218 12.7066 28.7041 12.3333C29.2919 11.949 29.6811 11.2846 29.6811 10.531V9.66476C29.6813 8.4785 28.717 7.5134 27.5317 7.5134ZM27.5317 9.1202C27.8311 9.1202 28.0745 9.36451 28.0745 9.66476V10.531C28.0745 10.8312 27.8311 11.0755 27.5317 11.0755H27.0878L26.9074 9.12027L27.5317 9.1202ZM27.44 16.2463C27.44 16.6615 27.1022 16.9993 26.6869 16.9993H12.3932C11.9779 16.9993 11.6401 16.6615 11.6401 16.2463V13.6027C11.6401 13.0952 12.053 12.6823 12.5606 12.6823H26.5195C27.0271 12.6823 27.44 13.0951 27.44 13.6027V16.2463ZM15.2486 5.29821H23.8316C24.4676 5.29821 24.9888 5.77784 25.0445 6.41815L25.4742 11.0755H13.606L14.0362 6.41391C14.0914 5.77791 14.6126 5.29821 15.2486 5.29821ZM11.0057 9.66476C11.0057 9.36451 11.2492 9.1202 11.5485 9.1202H12.1728L11.9924 11.0755H11.5485C11.2492 11.0755 11.0057 10.8312 11.0057 10.5309V9.66476ZM15.1944 20.1605H13.1988V18.6061H15.1944V20.1605ZM23.8858 20.1605V18.6061H25.8814V20.1605H23.8858Z" fill="black"/>
<path d="M27.5874 30.947L26.5074 31.8962L26.2299 31.6163C25.9177 31.3012 25.4089 31.2991 25.0937 31.6114C24.7787 31.9237 24.7764 32.4324 25.0888 32.7475L25.899 33.5646C26.0556 33.7226 26.2623 33.8025 26.4696 33.8025C26.6584 33.8025 26.8477 33.7362 26.9998 33.6025L28.6481 32.1539C28.9814 31.861 29.0142 31.3534 28.7212 31.0201C28.4283 30.6868 27.9205 30.6541 27.5874 30.947Z" fill="black"/>
<path d="M27.5874 27.1912L26.5074 28.1403L26.2299 27.8605C25.9177 27.5453 25.4089 27.5432 25.0937 27.8555C24.7787 28.1679 24.7764 28.6766 25.0888 28.9917L25.899 29.8088C26.0556 29.9668 26.2623 30.0466 26.4696 30.0466C26.6584 30.0466 26.8477 29.9803 26.9998 29.8467L28.6481 28.3981C28.9814 28.1051 29.0142 27.5975 28.7212 27.2643C28.4283 26.9309 27.9205 26.8983 27.5874 27.1912Z" fill="black"/>
<path d="M27.5874 23.4343L26.5074 24.3835L26.2299 24.1036C25.9177 23.7885 25.4089 23.7864 25.0937 24.0987C24.7787 24.411 24.7764 24.9197 25.0888 25.2348L25.899 26.0519C26.0556 26.2099 26.2623 26.2898 26.4696 26.2898C26.6584 26.2898 26.8477 26.2235 26.9998 26.0899L28.6481 24.6412C28.9814 24.3483 29.0142 23.8407 28.7212 23.5074C28.4283 23.1741 27.9205 23.1414 27.5874 23.4343Z" fill="black"/>
<path d="M30.9048 0.0488281H8.1751C6.50914 0.0488281 5.15381 1.40416 5.15381 3.07013V34.4222C5.15381 36.0881 6.50922 37.4435 8.1751 37.4435H30.9048C32.5708 37.4435 33.9261 36.0881 33.9261 34.4222V3.07013C33.9261 1.40416 32.5707 0.0488281 30.9048 0.0488281ZM32.3193 34.4222C32.3193 35.2021 31.6848 35.8367 30.9048 35.8367H8.1751C7.39515 35.8367 6.76061 35.2021 6.76061 34.4222V3.07013C6.76054 2.29017 7.39515 1.65563 8.1751 1.65563H30.9048C31.6848 1.65563 32.3193 2.29017 32.3193 3.07013V34.4222Z" fill="black"/>
</g>
<defs>
<clipPath id="clip0_9554_138651">
<rect width="37.3946" height="37.3946" fill="white" transform="translate(0.843262 0.0488281)"/>
</clipPath>
</defs>
</svg>
