<svg width="20" height="20" viewBox="0 0 20 20" fill="none" xmlns="http://www.w3.org/2000/svg">
<path d="M1.66666 9.99984C1.66666 6.07147 1.66666 4.10728 2.88704 2.88689C4.10743 1.6665 6.07162 1.6665 9.99999 1.6665C13.9284 1.6665 15.8925 1.6665 17.1129 2.88689C18.3333 4.10728 18.3333 6.07147 18.3333 9.99984C18.3333 13.9282 18.3333 15.8924 17.1129 17.1128C15.8925 18.3332 13.9284 18.3332 9.99999 18.3332C6.07162 18.3332 4.10743 18.3332 2.88704 17.1128C1.66666 15.8924 1.66666 13.9282 1.66666 9.99984Z" stroke="#0065F3"/>
<path d="M17.9167 6.6665H2.08334" stroke="#0065F3" stroke-linecap="round"/>
<path d="M8.75001 2.0835L5.83334 6.66683" stroke="#0065F3" stroke-linecap="round"/>
<path d="M14.1667 2.0835L11.25 6.66683" stroke="#0065F3" stroke-linecap="round"/>
<path d="M12.5 12.0835C12.5 11.5557 11.9483 11.1997 10.845 10.4878C9.72656 9.76621 9.16735 9.40539 8.75034 9.67032C8.33334 9.93524 8.33334 10.6513 8.33334 12.0835C8.33334 13.5157 8.33334 14.2318 8.75034 14.4967C9.16735 14.7616 9.72656 14.4008 10.845 13.6792C11.9483 12.9672 12.5 12.6113 12.5 12.0835Z" stroke="#0065F3" stroke-linecap="round"/>
</svg>
