<svg width="20" height="21" viewBox="0 0 20 21" fill="none" xmlns="http://www.w3.org/2000/svg">
<path d="M3.33398 19.2174H16.6673" stroke="white" stroke-width="1.1" stroke-linecap="round"/>
<path d="M11.574 3.93655L12.1919 3.31863C13.2158 2.29483 14.8757 2.29483 15.8995 3.31863C16.9233 4.34244 16.9233 6.00235 15.8995 7.02615L15.2815 7.64407M11.574 3.93655C11.574 3.93655 11.6513 5.24963 12.8099 6.40823C13.9685 7.56683 15.2815 7.64407 15.2815 7.64407M11.574 3.93655L5.8932 9.61738C5.50843 10.0022 5.31604 10.1945 5.15058 10.4067C4.95541 10.6569 4.78807 10.9277 4.65155 11.2141C4.53581 11.457 4.44977 11.7151 4.27769 12.2313L3.54852 14.4188M15.2815 7.64407L9.60072 13.3249C9.21594 13.7097 9.02356 13.9021 8.81143 14.0675C8.5612 14.2627 8.29045 14.43 8.00397 14.5666C7.76112 14.6823 7.503 14.7683 6.98677 14.9404L4.79926 15.6696M4.79926 15.6696L4.26455 15.8478C4.0105 15.9325 3.73042 15.8664 3.54107 15.677C3.35172 15.4877 3.2856 15.2076 3.37028 14.9536L3.54852 14.4188M4.79926 15.6696L3.54852 14.4188" stroke="white" stroke-width="1.1"/>
</svg>
