<svg width="38" height="38" viewBox="0 0 38 38" fill="none" xmlns="http://www.w3.org/2000/svg">
<path d="M19 0.5C29.2173 0.5 37.5 8.78273 37.5 19C37.5 29.2173 29.2173 37.5 19 37.5C8.78273 37.5 0.5 29.2173 0.5 19C0.5 8.78273 8.78273 0.5 19 0.5Z" fill="#101010"/>
<path d="M19 0.5C29.2173 0.5 37.5 8.78273 37.5 19C37.5 29.2173 29.2173 37.5 19 37.5C8.78273 37.5 0.5 29.2173 0.5 19C0.5 8.78273 8.78273 0.5 19 0.5Z" stroke="#434343"/>
<g clip-path="url(#clip0_15729_121379)">
<circle cx="19.0007" cy="19.0002" r="14.6667" fill="#363636" stroke="white"/>
<path d="M21.8694 14.7561C21.8448 13.9647 22.554 13.294 23.4536 13.2581C24.3531 13.2222 25.1023 13.8347 25.127 14.6262L25.3279 21.0749C25.4265 24.2407 22.5896 26.9234 18.9914 27.067C15.3932 27.2105 12.3963 24.7604 12.2977 21.5946L12.1637 17.2955C12.1391 16.5041 12.8483 15.8334 13.7479 15.7975C14.6474 15.7616 15.3966 16.3741 15.4213 17.1656M21.8694 14.7561L21.9587 17.6222M21.8694 14.7561L21.7578 11.1735C21.7332 10.3821 20.984 9.76956 20.0844 9.80544C19.1849 9.84132 18.4756 10.512 18.5003 11.3035L18.5449 12.7365M18.5449 12.7365L18.6789 17.0356M18.5449 12.7365C18.5203 11.945 17.771 11.3325 16.8715 11.3684C15.9719 11.4043 15.2627 12.075 15.2874 12.8664L15.4213 17.1656M15.4213 17.1656L15.5106 20.0317" stroke="#FF8A01" stroke-linecap="round"/>
</g>
<defs>
<clipPath id="clip0_15729_121379">
<rect width="32" height="32" fill="white" transform="translate(3 3)"/>
</clipPath>
</defs>
</svg>
