<svg width="25" height="24" viewBox="0 0 25 24" fill="none" xmlns="http://www.w3.org/2000/svg">
<path d="M24.127 0.020752H1.1582C0.873438 0.020752 0.642578 0.251611 0.642578 0.536377V6.58677C0.642578 6.87153 0.873438 7.10239 1.1582 7.10239H2.39566L3.76028 14.5355C3.80523 14.7803 4.01861 14.9581 4.26742 14.9581C4.39417 14.9581 4.52013 14.9517 4.64505 14.9398C4.60375 15.2718 4.58219 15.6066 4.58219 15.9415C4.58219 20.386 8.19813 24.002 12.6426 24.002C17.0871 24.002 20.7031 20.3861 20.7031 15.9415C20.7031 15.6067 20.6815 15.2719 20.6402 14.9399C20.7647 14.9517 20.8903 14.9581 21.0166 14.9581C21.2655 14.9581 21.4788 14.7803 21.5238 14.5355L22.8884 7.10244H24.127C24.4117 7.10244 24.6426 6.87158 24.6426 6.58681V0.536377C24.6426 0.251611 24.4117 0.020752 24.127 0.020752ZM23.6113 1.052V3.04597H1.67383V1.052H23.6113ZM19.6718 15.9415C19.6718 19.8174 16.5185 22.9707 12.6426 22.9707C8.76672 22.9707 5.61344 19.8174 5.61344 15.9415C5.61344 15.5192 5.65197 15.0972 5.72692 14.6827C6.58717 14.3481 7.32944 13.7238 7.80705 12.8946C8.93434 10.9377 10.7418 9.76925 12.642 9.76902C14.5422 9.76925 16.3497 10.9377 17.477 12.8946C17.9549 13.7242 18.6976 14.3488 19.5584 14.6833C19.6333 15.0975 19.6718 15.5195 19.6718 15.9415ZM20.5926 13.8964C19.6747 13.7641 18.8477 13.2081 18.3706 12.3799C17.0571 10.0995 14.9155 8.738 12.642 8.73772C10.3685 8.738 8.227 10.0995 6.91352 12.3799C6.43638 13.2081 5.60941 13.764 4.69145 13.8964L3.44416 7.10239H21.8399L20.5926 13.8964ZM1.67383 6.07114V4.07722H23.6113V6.07119L1.67383 6.07114Z" fill="white"/>
<path d="M12.1655 19.9125C12.0208 20.2402 12.2839 20.6331 12.6417 20.6255C12.9997 20.6332 13.2625 20.2404 13.118 19.9125C12.948 19.4915 12.3356 19.4919 12.1655 19.9125Z" fill="#FF0004"/>
<path d="M12.6429 12.2889C12.7778 12.2889 12.9119 12.2333 13.0076 12.138C13.3641 11.7781 13.0399 11.17 12.5421 11.2675C12.144 11.3402 11.9884 11.8561 12.2782 12.138C12.3738 12.2329 12.5082 12.2891 12.6429 12.2889Z" fill="#FF0004"/>
<path d="M15.2245 18.5247C14.9009 18.8435 15.1355 19.4078 15.5892 19.405C15.8658 19.4098 16.1102 19.166 16.1048 18.8889C16.1081 18.435 15.5429 18.2011 15.2245 18.5247Z" fill="#FF0004"/>
<path d="M9.49902 13.4704C9.56178 13.4962 9.62872 13.51 9.69636 13.5098C10.1523 13.5113 10.3834 12.951 10.061 12.6294C9.84322 12.4019 9.43564 12.4412 9.26746 12.7082C9.08656 12.9656 9.20478 13.3576 9.49902 13.4704Z" fill="#FF0004"/>
<path d="M9.40929 18.4605C8.98891 18.7424 9.18926 19.4039 9.6957 19.4046C9.86524 19.4059 10.0309 19.317 10.1246 19.1754C10.4305 18.7052 9.87902 18.1538 9.40929 18.4605Z" fill="#FF0004"/>
<path d="M15.5914 13.5094C16.0975 13.5088 16.2986 12.8472 15.8778 12.5653C15.4077 12.2588 14.8565 12.8098 15.1624 13.2802C15.2561 13.4218 15.4219 13.5107 15.5914 13.5094Z" fill="#FF0004"/>
<path d="M8.47461 16.4586C8.75938 16.4586 8.99023 16.2278 8.99023 15.943C8.99023 15.6582 8.75938 15.4274 8.47461 15.4274C8.18984 15.4274 7.95898 15.6582 7.95898 15.943C7.95898 16.2278 8.18984 16.4586 8.47461 16.4586Z" fill="#FF0004"/>
<path d="M16.8086 16.4568C17.0934 16.4568 17.3242 16.2259 17.3242 15.9412C17.3242 15.6564 17.0934 15.4255 16.8086 15.4255C16.5238 15.4255 16.293 15.6564 16.293 15.9412C16.293 16.2259 16.5238 16.4568 16.8086 16.4568Z" fill="#FF0004"/>
<path d="M12.6445 18.0783C11.4663 18.0783 10.5078 17.1198 10.5078 15.9416C10.5078 14.7634 11.4663 13.8049 12.6445 13.8049C13.8227 13.8049 14.7812 14.7634 14.7812 15.9416C14.7812 17.1198 13.8227 18.0783 12.6445 18.0783ZM12.6445 14.8362C12.035 14.8362 11.5391 15.3321 11.5391 15.9417C11.5391 16.5512 12.035 17.0471 12.6445 17.0471C13.254 17.0471 13.7499 16.5512 13.7499 15.9417C13.7499 15.3321 13.254 14.8362 12.6445 14.8362Z" fill="#FF0004"/>
</svg>
