<svg width="38" height="39" viewBox="0 0 38 39" fill="none" xmlns="http://www.w3.org/2000/svg">
<g clip-path="url(#clip0_9982_120132)">
<path d="M33.5773 17.0022C34.6984 16.1476 35.4268 14.8021 35.4268 13.2869C35.4268 10.709 33.3303 8.61255 30.7525 8.61255C28.1746 8.61255 26.0781 10.709 26.0781 13.2869C26.0781 14.8076 26.8112 16.1561 27.9385 17.0108C27.8193 17.0637 27.697 17.1089 27.5817 17.1689C27.2 17.3668 27.0504 17.8373 27.2483 18.2191C27.4469 18.6016 27.9183 18.7496 28.2984 18.5517C29.0432 18.1653 29.8924 17.9612 30.7525 17.9612C33.7588 17.9612 36.2058 20.4074 36.2058 23.4146V26.5308C36.2058 27.8194 35.1572 28.868 33.8687 28.868H29.9267C29.4958 28.868 29.1476 29.217 29.1476 29.647C29.1476 30.0771 29.4958 30.4261 29.9267 30.4261H33.8687C36.0165 30.4261 37.7639 28.6787 37.7639 26.5308V23.4146C37.7639 20.5539 36.0399 18.0913 33.5773 17.0022ZM27.6362 13.2869C27.6362 11.5683 29.0339 10.1707 30.7525 10.1707C32.471 10.1707 33.8687 11.5683 33.8687 13.2869C33.8687 15.0055 32.471 16.4031 30.7525 16.4031C29.0339 16.4031 27.6362 15.0055 27.6362 13.2869Z" fill="white"/>
<path d="M10.8868 18.2191C11.0847 17.8373 10.9351 17.3668 10.5533 17.1689C10.438 17.1089 10.3157 17.0637 10.1965 17.0108C11.3238 16.1569 12.0569 14.8076 12.0569 13.2869C12.0569 10.709 9.96048 8.61255 7.38259 8.61255C4.8047 8.61255 2.70826 10.709 2.70826 13.2869C2.70826 14.8021 3.43667 16.1476 4.55773 17.0022C2.09514 18.0913 0.371094 20.5539 0.371094 23.4146V26.5308C0.371094 28.6787 2.11851 30.4261 4.26637 30.4261H8.20839C8.6392 30.4261 8.98744 30.0771 8.98744 29.647C8.98744 29.217 8.6392 28.868 8.20839 28.868H4.26637C2.97781 28.868 1.9292 27.8194 1.9292 26.5308V23.4146C1.9292 20.4074 4.37621 17.9612 7.38259 17.9612C8.24266 17.9612 9.09183 18.1653 9.83661 18.5517C10.216 18.7481 10.6881 18.6008 10.8868 18.2191ZM4.26637 13.2869C4.26637 11.5683 5.66399 10.1707 7.38259 10.1707C9.10118 10.1707 10.4988 11.5683 10.4988 13.2869C10.4988 15.0055 9.10118 16.4031 7.38259 16.4031C5.66399 16.4031 4.26637 15.0055 4.26637 13.2869Z" fill="white"/>
<path d="M22.1644 16.212C23.5862 15.2265 24.521 13.5858 24.521 11.7285C24.521 8.72138 22.074 6.27515 19.0677 6.27515C16.0613 6.27515 13.6143 8.72138 13.6143 11.7285C13.6143 13.5858 14.5491 15.2265 15.9709 16.212C12.7737 17.4569 10.498 20.5615 10.498 24.1934V28.8677C10.498 31.0156 12.2455 32.763 14.3933 32.763H23.742C25.8898 32.763 27.6373 31.0156 27.6373 28.8677V24.1934C27.6373 20.5607 25.3616 17.4569 22.1644 16.212ZM15.1724 11.7285C15.1724 9.58068 16.9198 7.83326 19.0677 7.83326C21.2155 7.83326 22.9629 9.58068 22.9629 11.7285C22.9629 13.8764 21.2155 15.6238 19.0677 15.6238C16.9198 15.6238 15.1724 13.8764 15.1724 11.7285ZM26.0791 28.8677C26.0791 30.1563 25.0305 31.2049 23.742 31.2049H14.3933C13.1048 31.2049 12.0562 30.1563 12.0562 28.8677V24.1934C12.0562 20.3277 15.2012 17.1819 19.0677 17.1819C22.9341 17.1819 26.0791 20.3277 26.0791 24.1934V28.8677Z" fill="#FF8A01"/>
</g>
<defs>
<clipPath id="clip0_9982_120132">
<rect width="37.3946" height="37.3946" fill="white" transform="translate(0.371094 0.822021)"/>
</clipPath>
</defs>
</svg>
