<svg width="38" height="39" viewBox="0 0 38 39" fill="none" xmlns="http://www.w3.org/2000/svg">
<g clip-path="url(#clip0_9554_138597)">
<path d="M33.5788 17.0019C34.6998 16.1473 35.4282 14.8019 35.4282 13.2866C35.4282 10.7087 33.3318 8.6123 30.7539 8.6123C28.176 8.6123 26.0796 10.7087 26.0796 13.2866C26.0796 14.8073 26.8127 16.1559 27.94 17.0105C27.8208 17.0635 27.6985 17.1087 27.5832 17.1687C27.2014 17.3665 27.0518 17.8371 27.2497 18.2188C27.4484 18.6013 27.9197 18.7494 28.2999 18.5515C29.0447 18.1651 29.8938 17.961 30.7539 17.961C33.7603 17.961 36.2073 20.4072 36.2073 23.4143V26.5306C36.2073 27.8191 35.1587 28.8677 33.8701 28.8677H29.9281C29.4973 28.8677 29.1491 29.2167 29.1491 29.6468C29.1491 30.0768 29.4973 30.4258 29.9281 30.4258H33.8701C36.018 30.4258 37.7654 28.6784 37.7654 26.5306V23.4143C37.7654 20.5537 36.0414 18.0911 33.5788 17.0019ZM27.6377 13.2866C27.6377 11.568 29.0353 10.1704 30.7539 10.1704C32.4725 10.1704 33.8701 11.568 33.8701 13.2866C33.8701 15.0052 32.4725 16.4029 30.7539 16.4029C29.0353 16.4029 27.6377 15.0052 27.6377 13.2866Z" fill="#212121"/>
<path d="M10.8873 18.2188C11.0851 17.8371 10.9356 17.3665 10.5538 17.1687C10.4385 17.1087 10.3162 17.0635 10.197 17.0105C11.3243 16.1567 12.0574 14.8073 12.0574 13.2866C12.0574 10.7087 9.96097 8.6123 7.38308 8.6123C4.80518 8.6123 2.70875 10.7087 2.70875 13.2866C2.70875 14.8019 3.43716 16.1473 4.55822 17.0019C2.09563 18.0911 0.371582 20.5537 0.371582 23.4143V26.5306C0.371582 28.6784 2.119 30.4258 4.26686 30.4258H8.20887C8.63969 30.4258 8.98793 30.0768 8.98793 29.6468C8.98793 29.2167 8.63969 28.8677 8.20887 28.8677H4.26686C2.9783 28.8677 1.92969 27.8191 1.92969 26.5306V23.4143C1.92969 20.4072 4.3767 17.961 7.38308 17.961C8.24315 17.961 9.09232 18.1651 9.8371 18.5515C10.2165 18.7478 10.6886 18.6006 10.8873 18.2188ZM4.26686 13.2866C4.26686 11.568 5.66448 10.1704 7.38308 10.1704C9.10167 10.1704 10.4993 11.568 10.4993 13.2866C10.4993 15.0052 9.10167 16.4029 7.38308 16.4029C5.66448 16.4029 4.26686 15.0052 4.26686 13.2866Z" fill="#212121"/>
<path d="M22.1659 16.2113C23.5876 15.2258 24.5225 13.5851 24.5225 11.7278C24.5225 8.72065 22.0755 6.27441 19.0691 6.27441C16.0627 6.27441 13.6157 8.72065 13.6157 11.7278C13.6157 13.5851 14.5506 15.2258 15.9724 16.2113C12.7751 17.4562 10.4995 20.5607 10.4995 24.1927V28.867C10.4995 31.0149 12.2469 32.7623 14.3948 32.7623H23.7434C25.8913 32.7623 27.6387 31.0149 27.6387 28.867V24.1927C27.6387 20.5599 25.3631 17.4562 22.1659 16.2113ZM15.1738 11.7278C15.1738 9.57994 16.9213 7.83252 19.0691 7.83252C21.217 7.83252 22.9644 9.57994 22.9644 11.7278C22.9644 13.8757 21.217 15.6231 19.0691 15.6231C16.9213 15.6231 15.1738 13.8757 15.1738 11.7278ZM26.0806 28.867C26.0806 30.1556 25.032 31.2042 23.7434 31.2042H14.3948C13.1062 31.2042 12.0576 30.1556 12.0576 28.867V24.1927C12.0576 20.327 15.2027 17.1812 19.0691 17.1812C22.9356 17.1812 26.0806 20.327 26.0806 24.1927V28.867Z" fill="#FF8A01"/>
</g>
<defs>
<clipPath id="clip0_9554_138597">
<rect width="37.3946" height="37.3946" fill="white" transform="translate(0.371582 0.821289)"/>
</clipPath>
</defs>
</svg>
