<svg width="38" height="38" viewBox="0 0 38 38" fill="none" xmlns="http://www.w3.org/2000/svg">
<path d="M37.1207 19.224H32.8449C32.4012 19.224 32.0415 18.8643 32.0415 18.4206C32.0415 17.9769 32.4012 17.6172 32.8449 17.6172H37.1207C37.5644 17.6172 37.9241 17.9769 37.9241 18.4206C37.9241 18.8643 37.5644 19.224 37.1207 19.224Z" fill="#FF8A01"/>
<path d="M31.7638 12.0254C31.486 12.0254 31.216 11.8813 31.0672 11.6235C30.8454 11.2393 30.9771 10.7479 31.3613 10.5261L35.9102 7.89976C36.2946 7.67788 36.7859 7.80963 37.0076 8.19381C37.2294 8.57805 37.0978 9.06944 36.7136 9.29125L32.1647 11.9176C32.0382 11.9907 31.9 12.0254 31.7638 12.0254Z" fill="#FF8A01"/>
<path d="M27.3638 6.17755C27.2275 6.17755 27.0893 6.14278 26.9628 6.06974C26.5785 5.84786 26.447 5.35654 26.6688 4.9723L29.0911 0.776797C29.3129 0.392406 29.8045 0.261014 30.1886 0.482752C30.5729 0.704637 30.7044 1.19595 30.4826 1.5802L28.0603 5.7757C27.9115 6.03344 27.6414 6.17755 27.3638 6.17755Z" fill="#FF8A01"/>
<path d="M35.0925 28.3458C34.9562 28.3458 34.8181 28.311 34.6916 28.238L29.9531 25.5022C29.5688 25.2803 29.4372 24.789 29.659 24.4047C29.8808 24.0205 30.3723 23.8889 30.7565 24.1107L35.495 26.8465C35.8792 27.0684 36.0109 27.5597 35.789 27.9439C35.6403 28.2017 35.3702 28.3458 35.0925 28.3458Z" fill="#FF8A01"/>
<path d="M5.60798 19.224H1.33221C0.888513 19.224 0.528809 18.8643 0.528809 18.4206C0.528809 17.9769 0.888513 17.6172 1.33221 17.6172H5.60798C6.05167 17.6172 6.41138 17.9769 6.41138 18.4206C6.41138 18.8643 6.05167 19.224 5.60798 19.224Z" fill="#FF8A01"/>
<path d="M6.68805 12.0254C6.55176 12.0254 6.41365 11.9906 6.28715 11.9175L1.73822 9.29123C1.35398 9.06935 1.22237 8.57803 1.44418 8.19379C1.66599 7.80954 2.15745 7.67793 2.54162 7.89974L7.09055 10.5261C7.47479 10.7479 7.60641 11.2393 7.38459 11.6235C7.23582 11.8813 6.96573 12.0254 6.68805 12.0254Z" fill="#FF8A01"/>
<path d="M11.0893 6.17755C10.8117 6.17755 10.5417 6.03345 10.3929 5.7757L7.97055 1.5802C7.74873 1.19595 7.88035 0.704564 8.26459 0.482753C8.64891 0.260941 9.14015 0.392553 9.36204 0.776797L11.7844 4.9723C12.0062 5.35654 11.8746 5.84793 11.4903 6.06974C11.3638 6.14285 11.2256 6.17755 11.0893 6.17755Z" fill="#FF8A01"/>
<path d="M3.36044 28.3458C3.08268 28.3458 2.81266 28.2017 2.66389 27.944C2.44208 27.5597 2.57376 27.0683 2.95793 26.8465L7.69646 24.1107C8.08093 23.8888 8.5721 24.0206 8.79391 24.4048C9.01572 24.789 8.88403 25.2804 8.49986 25.5022L3.76133 28.238C3.63476 28.3111 3.49665 28.3458 3.36044 28.3458Z" fill="#FF8A01"/>
<path d="M27.6137 14.0229L26.3408 11.4401C25.5886 9.91375 24.1185 8.92527 22.4447 8.7933C22.9696 8.1096 23.2827 7.25508 23.2827 6.32846C23.2827 4.09194 21.4632 2.27246 19.2267 2.27246C16.9901 2.27246 15.1707 4.09194 15.1707 6.32846C15.1707 7.25508 15.4837 8.10953 16.0086 8.7933C14.3348 8.9252 12.8647 9.91368 12.1125 11.4401L10.8396 14.0229C10.045 15.6351 10.3591 17.5782 11.621 18.8581L14.5566 21.8354L12.152 36.1833C12.1129 36.4163 12.1784 36.6547 12.3311 36.8351C12.4837 37.0154 12.708 37.1195 12.9443 37.1195H16.7253C17.1091 37.1195 17.4392 36.848 17.5135 36.4715L19.2261 27.7847L20.9388 36.4715C21.0131 36.848 21.3432 37.1195 21.7271 37.1195H25.5081C25.7444 37.1195 25.9687 37.0155 26.1213 36.8351C26.2739 36.6547 26.3395 36.4163 26.3004 36.1833L23.8959 21.8361L26.8322 18.8581C28.0942 17.5782 28.4082 15.6351 27.6137 14.0229ZM19.2267 3.87933C20.5772 3.87933 21.6759 4.97802 21.6759 6.32854C21.6759 7.67905 20.5772 8.77767 19.2267 8.77767C17.8761 8.77767 16.7775 7.67898 16.7775 6.32846C16.7775 4.97795 17.8761 3.87933 19.2267 3.87933ZM22.3876 35.5126L20.0144 23.4757C19.9401 23.0992 19.61 22.8278 19.2262 22.8278C18.8424 22.8278 18.5123 23.0992 18.438 23.4757L16.0649 35.5126H13.8936L16.4799 20.0806H21.9725L24.5588 35.5126H22.3876ZM25.6881 17.7299L23.5682 19.8799L23.456 19.2104L23.4563 17.2793L24.2856 16.4377C24.5541 16.1653 24.5933 15.7413 24.3792 15.4242L23.3191 13.8544C23.1215 13.5618 22.7558 13.4323 22.4183 13.5357C22.0806 13.639 21.85 13.9507 21.8499 14.3038L21.8492 18.4738H16.6034V14.3039C16.6034 13.9508 16.3728 13.639 16.0351 13.5356C15.6973 13.4323 15.3318 13.5616 15.1342 13.8543L14.0742 15.4241C13.8601 15.7412 13.8992 16.1652 14.1677 16.4377L14.9966 17.2787V19.2103L14.8845 19.8791L12.7652 17.7297C11.9831 16.9365 11.7884 15.7323 12.2809 14.7331L13.5538 12.1502C14.0906 11.0609 15.1784 10.3842 16.3928 10.3842H18.4233V12.2476C18.4233 12.6913 18.783 13.051 19.2267 13.051C19.6704 13.051 20.0301 12.6913 20.0301 12.2476V10.3842H22.0605C23.2748 10.3842 24.3627 11.0609 24.8995 12.1502L26.1724 14.733C26.6648 15.7324 26.4702 16.9367 25.6881 17.7299Z" fill="#212121"/>
</svg>
