<svg width="29" height="39" viewBox="0 0 29 39" fill="none" xmlns="http://www.w3.org/2000/svg">
<path d="M16.2528 26.1263H5.96356C5.51986 26.1263 5.16016 25.7666 5.16016 25.3229C5.16016 24.8792 5.51986 24.5195 5.96356 24.5195H16.2528C16.6965 24.5195 17.0562 24.8792 17.0562 25.3229C17.0562 25.7666 16.6965 26.1263 16.2528 26.1263Z" fill="#FF8A01"/>
<path d="M16.2508 29.8815H5.9616C5.51791 29.8815 5.1582 29.5218 5.1582 29.0781C5.1582 28.6344 5.51791 28.2747 5.9616 28.2747H16.2508C16.6945 28.2747 17.0542 28.6344 17.0542 29.0781C17.0542 29.5218 16.6946 29.8815 16.2508 29.8815Z" fill="#FF8A01"/>
<path d="M16.2508 33.6388H5.9616C5.51791 33.6388 5.1582 33.2791 5.1582 32.8354C5.1582 32.3917 5.51791 32.032 5.9616 32.032H16.2508C16.6945 32.032 17.0542 32.3917 17.0542 32.8354C17.0542 33.2791 16.6946 33.6388 16.2508 33.6388Z" fill="#FF8A01"/>
<path d="M11.0279 14.8103H9.02996C8.58627 14.8103 8.22656 15.17 8.22656 15.6137C8.22656 16.0574 8.58627 16.4171 9.02996 16.4171H11.0279C11.4716 16.4171 11.8313 16.0574 11.8313 15.6137C11.8313 15.17 11.4716 14.8103 11.0279 14.8103Z" fill="white"/>
<path d="M20.0474 14.8103H18.0495C17.6058 14.8103 17.2461 15.17 17.2461 15.6137C17.2461 16.0574 17.6058 16.4171 18.0495 16.4171H20.0474C20.4911 16.4171 20.8508 16.0574 20.8508 15.6137C20.8508 15.17 20.4911 14.8103 20.0474 14.8103Z" fill="white"/>
<path d="M22.5313 8.28659H21.7587L21.6445 7.04804C21.5164 5.57526 20.307 4.4646 18.8312 4.4646H10.2481C8.77222 4.4646 7.56281 5.57526 7.43522 7.04373L7.32055 8.28659H6.54797C5.36266 8.28659 4.39844 9.2517 4.39844 10.438V11.3042C4.39844 12.0578 4.78765 12.7222 5.37545 13.1065C5.15772 13.4798 5.03283 13.9135 5.03283 14.3759V17.0195C5.03283 18.0395 5.68337 18.9105 6.59143 19.2392V21.7371C6.59143 22.1808 6.95113 22.5405 7.39483 22.5405H10.9972C11.4409 22.5405 11.8006 22.1808 11.8006 21.7371V19.3793H17.2785V21.7371C17.2785 22.1808 17.6382 22.5405 18.0819 22.5405H21.6843C22.128 22.5405 22.4877 22.1808 22.4877 21.7371V19.2392C23.3956 18.9105 24.0463 18.0395 24.0463 17.0195V14.3759C24.0463 13.9135 23.9214 13.4798 23.7036 13.1065C24.2914 12.7222 24.6806 12.0578 24.6806 11.3042V10.438C24.6808 9.2517 23.7165 8.28659 22.5313 8.28659ZM22.5313 9.89339C22.8306 9.89339 23.074 10.1377 23.074 10.438V11.3042C23.074 11.6044 22.8306 11.8487 22.5313 11.8487H22.0873L21.9069 9.89347L22.5313 9.89339ZM22.4395 17.0195C22.4395 17.4347 22.1017 17.7725 21.6864 17.7725H7.39271C6.97743 17.7725 6.63963 17.4347 6.63963 17.0195V14.3759C6.63963 13.8684 7.05251 13.4555 7.56011 13.4555H21.519C22.0266 13.4555 22.4395 13.8683 22.4395 14.3759V17.0195ZM10.2481 6.0714H18.8312C19.4671 6.0714 19.9883 6.55103 20.044 7.19134L20.4737 11.8487H8.60555L9.03567 7.1871C9.09088 6.5511 9.61214 6.0714 10.2481 6.0714ZM6.00524 10.438C6.00524 10.1377 6.24867 9.89339 6.54797 9.89339H7.17236L6.99196 11.8487H6.54797C6.24867 11.8487 6.00524 11.6043 6.00524 11.3041V10.438ZM10.1939 20.9337H8.1983V19.3793H10.1939V20.9337ZM18.8854 20.9337V19.3793H20.8809V20.9337H18.8854Z" fill="white"/>
<path d="M22.5869 31.7202L21.5069 32.6694L21.2294 32.3895C20.9172 32.0744 20.4084 32.0722 20.0932 32.3846C19.7782 32.6969 19.7759 33.2056 20.0884 33.5207L20.8985 34.3378C21.0551 34.4958 21.2618 34.5756 21.4691 34.5756C21.6579 34.5756 21.8472 34.5094 21.9994 34.3757L23.6476 32.9271C23.9809 32.6342 24.0137 32.1266 23.7207 31.7933C23.4278 31.46 22.92 31.4273 22.5869 31.7202Z" fill="white"/>
<path d="M22.5869 27.9644L21.5069 28.9135L21.2294 28.6337C20.9172 28.3185 20.4084 28.3164 20.0932 28.6287C19.7782 28.9411 19.7759 29.4498 20.0884 29.7648L20.8985 30.582C21.0551 30.74 21.2618 30.8198 21.4691 30.8198C21.6579 30.8198 21.8472 30.7535 21.9994 30.6199L23.6476 29.1713C23.9809 28.8783 24.0137 28.3707 23.7207 28.0375C23.4278 27.7041 22.92 27.6715 22.5869 27.9644Z" fill="white"/>
<path d="M22.5869 24.208L21.5069 25.1572L21.2294 24.8773C20.9172 24.5622 20.4084 24.56 20.0932 24.8723C19.7782 25.1847 19.7759 25.6934 20.0884 26.0085L20.8985 26.8256C21.0551 26.9836 21.2618 27.0634 21.4691 27.0634C21.6579 27.0634 21.8472 26.9972 21.9994 26.8635L23.6476 25.4149C23.9809 25.122 24.0137 24.6144 23.7207 24.2811C23.4278 23.9478 22.92 23.9151 22.5869 24.208Z" fill="white"/>
<path d="M25.9033 0.822021H3.17364C1.50768 0.822021 0.152344 2.17736 0.152344 3.84332V35.1954C0.152344 36.8613 1.50775 38.2167 3.17364 38.2167H25.9034C27.5693 38.2167 28.9247 36.8613 28.9247 35.1954V3.84332C28.9247 2.17736 27.5693 0.822021 25.9033 0.822021ZM27.3179 35.1954C27.3179 35.9753 26.6833 36.6099 25.9034 36.6099H3.17364C2.39368 36.6099 1.75914 35.9753 1.75914 35.1954V3.84332C1.75907 3.06336 2.39368 2.42882 3.17364 2.42882H25.9034C26.6833 2.42882 27.3179 3.06336 27.3179 3.84332V35.1954Z" fill="white"/>
</svg>
