<svg width="39" height="17" viewBox="0 0 39 17" fill="none" xmlns="http://www.w3.org/2000/svg">
<path d="M29.1437 16.8386C27.2994 16.8386 25.7988 15.3488 25.7988 13.5176C25.9822 9.11199 32.3059 9.11324 32.4886 13.5176C32.4886 15.3488 30.9881 16.8386 29.1437 16.8386ZM29.1437 11.8034C28.1854 11.8034 27.4056 12.5724 27.4056 13.5176C27.5008 15.7915 30.787 15.791 30.8818 13.5176C30.8818 12.5724 30.1021 11.8034 29.1437 11.8034Z" fill="white"/>
<path d="M7.73157 16.8386C5.88718 16.8386 4.38672 15.3488 4.38672 13.5176C4.57011 9.11192 10.8938 9.11331 11.0765 13.5176C11.0765 15.3488 9.57596 16.8386 7.73157 16.8386ZM7.73157 11.8034C6.77318 11.8034 5.99352 12.5724 5.99352 13.5176C6.08869 15.7916 9.37489 15.7909 9.46969 13.5176C9.46969 12.5724 8.68995 11.8034 7.73157 11.8034Z" fill="white"/>
<path d="M25.8599 12.8855H11.0154C11.1208 13.4075 11.0883 13.9913 10.9297 14.4923H25.9455C25.7869 13.9913 25.7544 13.4074 25.8599 12.8855Z" fill="#FF8A01"/>
<path d="M3.20534 5.68404H3.86844C5.98073 3.15041 9.1516 1.7227 12.5074 1.80837V5.68404H14.1142V1.80837H18.578C22.0714 1.80837 24.6319 4.17709 25.9074 5.68404H27.5058C27.5501 5.68404 27.5942 5.6877 27.638 5.695L27.9856 5.75299C26.0501 2.82007 22.2417 0.0915031 18.578 0.201715L12.1952 0.201641C7.96797 0.172938 3.84156 2.45467 1.61848 6.05025L1.15039 6.74811C1.60745 6.10488 2.35797 5.68404 3.20534 5.68404Z" fill="white"/>
<path d="M37.0541 10.8009H35.2917C34.848 10.8009 34.4883 10.4412 34.4883 9.99749C34.4883 9.5538 34.848 9.19409 35.2917 9.19409H37.0541C38.1194 9.23616 38.1199 10.7585 37.0541 10.8009Z" fill="white"/>
<path d="M34.7196 6.87594L27.6385 5.69509C27.5635 5.65777 3.30639 5.69896 3.20567 5.68413C1.81608 5.68413 0.685547 6.81474 0.685547 8.2044V13.6885C0.685547 14.1322 1.04525 14.4919 1.48895 14.4919H4.53383C4.37527 13.9909 4.3427 13.4071 4.44816 12.8851H2.29235V8.2044C2.29235 7.70074 2.70208 7.29093 3.20581 7.29093H27.4399C27.4632 7.29451 34.4679 8.46361 34.4894 8.46624C35.0367 8.54117 35.5183 8.80892 35.8702 9.19434H37.0537C38.1194 9.23662 38.119 10.759 37.0537 10.8011H36.4735V12.8852H32.4261C32.5315 13.4071 32.499 13.991 32.3404 14.492H37.2768C37.7205 14.492 38.0802 14.1323 38.0802 13.6886V10.7402C38.0802 8.80359 36.6363 7.1445 34.7196 6.87594Z" fill="#FF8A01"/>
</svg>
