<svg width="20" height="20" viewBox="0 0 20 20" fill="none" xmlns="http://www.w3.org/2000/svg">
<path d="M1.66602 10C1.66602 6.07165 1.66602 4.10746 2.8864 2.88708C4.10679 1.66669 6.07098 1.66669 9.99935 1.66669C13.9277 1.66669 15.8919 1.66669 17.1123 2.88708C18.3327 4.10746 18.3327 6.07165 18.3327 10C18.3327 13.9284 18.3327 15.8926 17.1123 17.113C15.8919 18.3334 13.9277 18.3334 9.99935 18.3334C6.07098 18.3334 4.10679 18.3334 2.8864 17.113C1.66602 15.8926 1.66602 13.9284 1.66602 10Z" stroke="#8EBDFF"/>
<path d="M17.9173 6.66669H2.08398" stroke="#8EBDFF" stroke-linecap="round"/>
<path d="M8.75065 2.08331L5.83398 6.66665" stroke="#8EBDFF" stroke-linecap="round"/>
<path d="M14.1667 2.08331L11.25 6.66665" stroke="#8EBDFF" stroke-linecap="round"/>
<path d="M12.5007 12.0833C12.5007 11.5555 11.949 11.1996 10.8456 10.4877C9.7272 9.76602 9.16799 9.40521 8.75099 9.67013C8.33398 9.93506 8.33398 10.6511 8.33398 12.0833C8.33398 13.5155 8.33398 14.2316 8.75099 14.4965C9.16799 14.7614 9.7272 14.4006 10.8456 13.679C11.949 12.9671 12.5007 12.6111 12.5007 12.0833Z" stroke="#8EBDFF" stroke-linecap="round"/>
</svg>
