<svg width="40" height="40" viewBox="0 0 40 40" fill="none" xmlns="http://www.w3.org/2000/svg">
<rect x="0.764294" y="0.761852" width="38.7696" height="38.7696" rx="19.3848" stroke="#3C3C3C" stroke-width="0.881127"/>
<g clip-path="url(#clip0_14015_29441)">
<path d="M11.3381 20.1461H20.1494H28.9607M11.3381 20.1461H28.9607M11.3381 20.1461L13.541 17.3926M11.3381 20.1461L13.541 22.8996M28.9607 20.1461L26.7579 22.8996M28.9607 20.1461L26.7579 17.3926" stroke="#E8E8E8" stroke-width="1.32169" stroke-linecap="round" stroke-linejoin="round"/>
<path d="M20.1496 11.335L20.1496 20.1462L20.1496 28.9575M20.1496 11.335L20.1496 28.9575M20.1496 11.335L22.9031 13.5378M20.1496 11.335L17.396 13.5378M20.1496 28.9575L17.396 26.7547M20.1496 28.9575L22.9031 26.7547" stroke="#E8E8E8" stroke-width="1.32169" stroke-linecap="round" stroke-linejoin="round"/>
</g>
<defs>
<clipPath id="clip0_14015_29441">
<rect width="19.8254" height="19.8254" fill="white" transform="translate(10.2366 10.2334)"/>
</clipPath>
</defs>
</svg>
