<svg width="36" height="36" viewBox="0 0 36 36" fill="none" xmlns="http://www.w3.org/2000/svg">
<rect x="0.4" y="0.4" width="35.2" height="35.2" rx="17.6" stroke="#EFEFEF" stroke-width="0.8"/>
<g clip-path="url(#clip0_13543_37802)">
<path d="M10 18H18H26M10 18H26M10 18L12 15.5M10 18L12 20.5M26 18L24 20.5M26 18L24 15.5" stroke="#1A1A1A" stroke-width="1.2" stroke-linecap="round" stroke-linejoin="round"/>
<path d="M18 10L18 18L18 26M18 10L18 26M18 10L20.5 12M18 10L15.5 12M18 26L15.5 24M18 26L20.5 24" stroke="#1A1A1A" stroke-width="1.2" stroke-linecap="round" stroke-linejoin="round"/>
</g>
<defs>
<clipPath id="clip0_13543_37802">
<rect width="18" height="18" fill="white" transform="translate(9 9)"/>
</clipPath>
</defs>
</svg>
