<svg width="45" height="46" viewBox="0 0 45 46" fill="none" xmlns="http://www.w3.org/2000/svg">
<rect x="1.22985" y="1.49938" width="43.015" height="43.015" rx="21.5075" fill="white"/>
<rect x="1.22985" y="1.49938" width="43.015" height="43.015" rx="21.5075" stroke="#95B6E1" stroke-width="1.10423"/>
<path d="M15.1285 17.5122C15.072 17.512 15.017 17.4932 14.9722 17.4587C14.9273 17.4243 14.895 17.3761 14.8802 17.3216C14.8653 17.267 14.8688 17.2091 14.89 17.1566C14.9112 17.1042 14.9491 17.0602 14.9977 17.0314C15.334 16.8782 15.6975 16.7936 16.0669 16.7825C16.4362 16.7714 16.8041 16.834 17.149 16.9667C17.2144 16.9873 17.269 17.033 17.3007 17.0938C17.3324 17.1546 17.3387 17.2255 17.3181 17.2909C17.2975 17.3563 17.2518 17.4109 17.191 17.4426C17.1302 17.4743 17.0593 17.4806 16.9939 17.46C16.4341 17.2389 15.8099 17.246 15.2552 17.4796C15.2164 17.5012 15.1728 17.5124 15.1285 17.5122Z" fill="black"/>
<path d="M20.4636 17.3948C20.4093 17.3948 20.3565 17.3777 20.3124 17.346C20.2684 17.3143 20.2355 17.2695 20.2183 17.2181C20.2012 17.1666 20.2007 17.111 20.2168 17.0592C20.233 17.0074 20.2651 16.9621 20.3085 16.9295C20.6011 16.7781 20.9208 16.6862 21.2491 16.6589C21.5774 16.6317 21.9079 16.6697 22.2215 16.7708C22.2542 16.7824 22.2842 16.8004 22.3097 16.8239C22.3353 16.8473 22.3559 16.8757 22.3702 16.9072C22.3846 16.9388 22.3925 16.9729 22.3934 17.0076C22.3943 17.0423 22.3882 17.0768 22.3755 17.1091C22.3628 17.1413 22.3438 17.1707 22.3195 17.1955C22.2952 17.2202 22.2661 17.2398 22.2341 17.2531C22.2021 17.2664 22.1677 17.2732 22.133 17.2729C22.0983 17.2726 22.0641 17.2654 22.0322 17.2516C21.5665 17.1158 21.068 17.1476 20.6233 17.3416C20.5775 17.3766 20.5213 17.3954 20.4636 17.3948Z" fill="black"/>
<path d="M17.0135 19.0012C16.955 19.0011 16.8984 18.9812 16.8527 18.9448C16.6953 18.8183 16.4995 18.7493 16.2976 18.7493C16.0958 18.7493 15.8999 18.8183 15.7426 18.9448C15.7161 18.966 15.6856 18.9818 15.653 18.9912C15.6203 19.0007 15.5861 19.0036 15.5524 18.9998C15.5186 18.9961 15.4859 18.9857 15.4561 18.9693C15.4264 18.9529 15.4001 18.9308 15.3789 18.9042C15.3577 18.8777 15.3419 18.8472 15.3325 18.8146C15.323 18.7819 15.3201 18.7477 15.3239 18.714C15.3315 18.6457 15.3659 18.5833 15.4195 18.5405C15.669 18.3411 15.979 18.2324 16.2984 18.2324C16.6179 18.2324 16.9278 18.3411 17.1774 18.5405C17.2193 18.5739 17.2498 18.6196 17.2647 18.6712C17.2795 18.7228 17.2779 18.7777 17.2601 18.8283C17.2424 18.879 17.2092 18.9228 17.1654 18.9538C17.1216 18.9847 17.0692 19.0013 17.0155 19.0012H17.0135Z" fill="black"/>
<path d="M22.5366 19.0142C22.4782 19.0141 22.4215 18.9943 22.3758 18.9578C22.2173 18.8315 22.0206 18.7627 21.8179 18.7627C21.6152 18.7627 21.4185 18.8315 21.2601 18.9578C21.2063 19.0001 21.1381 19.0193 21.0702 19.0113C21.0023 19.0034 20.9404 18.9689 20.8979 18.9154C20.8554 18.8619 20.8358 18.7937 20.8434 18.7258C20.851 18.6579 20.8852 18.5958 20.9385 18.553C21.1883 18.3543 21.4981 18.2461 21.8174 18.2461C22.1367 18.2461 22.4465 18.3543 22.6963 18.553C22.7381 18.5865 22.7684 18.6322 22.7831 18.6836C22.7978 18.7351 22.7962 18.7899 22.7784 18.8404C22.7607 18.8909 22.7277 18.9347 22.684 18.9656C22.6403 18.9966 22.5881 19.0132 22.5345 19.0132L22.5366 19.0142Z" fill="black"/>
<path d="M19.027 23.8518C19.0074 23.8518 18.9877 23.8518 18.9681 23.8518C18.7947 23.8525 18.6232 23.8151 18.4659 23.7422C18.3086 23.6693 18.1692 23.5627 18.0576 23.4299C18.0178 23.3755 18.0009 23.3076 18.0104 23.2409C18.0199 23.1741 18.0552 23.1137 18.1086 23.0726C18.162 23.0314 18.2294 23.0128 18.2964 23.0206C18.3633 23.0285 18.4246 23.0621 18.4671 23.1145C18.5333 23.186 18.6138 23.2426 18.7035 23.2807C18.7931 23.3187 18.8898 23.3373 18.9872 23.3353C19.1398 23.3412 19.2918 23.3146 19.4332 23.2571C19.5746 23.1996 19.7021 23.1125 19.8072 23.0018C19.8294 22.975 19.8567 22.953 19.8876 22.937C19.9185 22.9211 19.9523 22.9115 19.987 22.9089C20.0217 22.9063 20.0565 22.9108 20.0894 22.9219C20.1223 22.9331 20.1527 22.9508 20.1786 22.974C20.2045 22.9972 20.2255 23.0253 20.2403 23.0568C20.255 23.0883 20.2633 23.1224 20.2646 23.1571C20.2659 23.1919 20.2602 23.2265 20.2478 23.259C20.2354 23.2915 20.2165 23.3211 20.1924 23.3461C20.044 23.5069 19.8638 23.6349 19.6631 23.722C19.4624 23.8091 19.2458 23.8533 19.027 23.8518Z" fill="black"/>
<path d="M18.4812 22.2582C18.3358 22.2568 18.1957 22.2038 18.0857 22.1088C17.9973 22.0418 17.9291 21.9517 17.8888 21.8484C17.8485 21.7451 17.8375 21.6326 17.8571 21.5235C17.8748 21.4597 17.9163 21.4051 17.9731 21.3709C18.0298 21.3368 18.0975 21.3258 18.1622 21.3401C18.2269 21.3544 18.2836 21.393 18.3206 21.4479C18.3576 21.5028 18.3722 21.5699 18.3612 21.6352C18.3772 21.6752 18.4061 21.7087 18.4435 21.7303C18.4544 21.7366 18.4668 21.7399 18.4794 21.7399C18.492 21.7399 18.5044 21.7366 18.5153 21.7303C18.5463 21.7139 18.5804 21.704 18.6153 21.7011C18.6503 21.6983 18.6855 21.7026 18.7188 21.7138C18.752 21.725 18.7827 21.7429 18.8088 21.7663C18.8349 21.7897 18.856 21.8182 18.8708 21.8501C18.8855 21.8819 18.8936 21.9164 18.8946 21.9515C18.8956 21.9866 18.8895 22.0215 18.8765 22.0541C18.8636 22.0867 18.8441 22.1164 18.8194 22.1412C18.7946 22.1661 18.765 22.1857 18.7325 22.1987C18.6542 22.237 18.5683 22.2573 18.4812 22.2582Z" fill="black"/>
<path d="M35.6958 24.8493C35.6896 22.1975 34.4394 20.9876 33.3361 19.92C32.5089 19.1191 31.7261 18.3627 31.4614 17.0686C30.6388 13.0436 28.6358 10.2388 25.6692 8.96223C21.3153 7.09216 18.1723 8.68045 17.0277 9.44978C13.9958 11.4729 13.7017 14.7591 13.4654 17.3995C13.4385 17.6999 13.4137 17.9936 13.3827 18.2924C13.3351 19.0865 13.1647 19.8684 12.8775 20.6102C12.7224 20.9468 12.5228 21.2823 12.3119 21.6412C11.5012 23.0128 10.4925 24.7205 11.4185 27.5921C12.0725 29.6085 14.7414 31.5882 16.6699 32.0002C15.7722 32.6871 15.0375 33.5641 14.5186 34.5683C13.9638 35.6866 14.426 36.3261 14.913 36.6689C16.1467 37.5267 18.3114 37.9615 21.3474 37.9615C23.5373 37.9113 25.7095 37.5563 27.8014 36.9068C28.535 36.6945 29.2452 36.4085 29.9212 36.0532C30.5173 35.73 31.3761 35.1696 31.178 34.2865C30.9358 33.2803 30.437 32.3541 29.7304 31.598C31.8331 31.0934 35.7061 29.5237 35.6958 24.8493ZM21.6907 28.1758C21.6277 27.8282 21.5335 27.487 21.4094 27.1562C21.8495 27.0445 22.2826 26.9063 22.7061 26.7426C22.7703 26.7185 22.8223 26.6699 22.8506 26.6074C22.8789 26.545 22.8812 26.4738 22.8571 26.4097C22.833 26.3455 22.7843 26.2935 22.7219 26.2652C22.6594 26.2369 22.5883 26.2346 22.5241 26.2587C22.0322 26.4559 21.5239 26.6093 21.0051 26.7173C20.4833 26.8191 19.9508 26.8559 19.4199 26.8269C17.753 26.7266 15.7568 25.1378 15.4704 23.6798C15.3184 22.777 15.2274 21.8649 15.1979 20.9499C15.1757 20.5549 15.0051 18.5271 15.0087 18.4646C15.0655 18.0812 15.1851 17.7098 15.3629 17.3654C16.1986 15.7858 17.2258 14.3152 18.421 12.9867C19.8201 14.9395 21.4792 17.155 24.0892 18.7557C24.6471 19.0722 25.2377 19.3274 25.8506 19.5167C25.9088 19.5344 25.9712 19.5318 26.0276 19.5092C26.084 19.4867 26.131 19.4455 26.1609 19.3926C26.2455 19.2301 26.3614 19.086 26.5021 18.9687C26.6701 18.8293 26.8656 18.7271 27.076 18.6689C27.2863 18.6106 27.5065 18.5975 27.7223 18.6305C27.939 18.6858 28.1374 18.7972 28.2974 18.9535C28.4574 19.1098 28.5734 19.3055 28.6338 19.5209C28.7744 19.9685 28.7933 20.4455 28.6886 20.9029C28.5693 21.501 28.2256 22.0309 27.728 22.3836C27.5946 22.4737 27.4442 22.5357 27.286 22.5656C27.1279 22.5956 26.9653 22.5929 26.8082 22.5578C26.5872 22.4944 26.3842 22.3798 26.2157 22.2233C26.1791 22.1946 26.1354 22.1762 26.0893 22.1702C26.0432 22.1642 25.9963 22.1708 25.9535 22.1892C25.9114 22.2086 25.875 22.2385 25.8478 22.2761C25.8206 22.3137 25.8036 22.3577 25.7984 22.4038C25.7509 22.8235 25.6309 23.2318 25.4438 23.6105C25.2698 23.9899 25.0304 24.3357 24.7365 24.6321C24.6423 24.7308 24.5411 24.8224 24.4335 24.9062C24.3798 24.9484 24.3449 25.0101 24.3366 25.0779C24.3282 25.1458 24.3471 25.2141 24.389 25.2681C24.424 25.3097 24.4708 25.3399 24.5232 25.3545C24.5756 25.3692 24.6312 25.3677 24.6827 25.3503C24.7308 26.4764 24.9784 29.0341 26.2286 29.7657C26.347 29.8174 26.4607 29.8794 26.5755 29.9363C25.9826 30.7979 25.1515 31.4681 24.1838 31.865C23.2162 32.262 22.1538 32.3684 21.1266 32.1714C20.7701 32.1185 20.4351 31.9683 20.1584 31.7374C19.8817 31.5064 19.6742 31.2036 19.5585 30.8623C19.8687 30.7139 21.1742 30.1276 21.3495 29.9968C21.8349 29.6385 21.8029 28.8092 21.6907 28.1758Z" fill="black"/>
<path d="M26.6931 20.971C26.7102 20.9742 26.7275 20.9759 26.7448 20.9762C26.804 20.9762 26.8613 20.956 26.9073 20.9188C26.9533 20.8816 26.9852 20.8298 26.9976 20.772C27.0433 20.6364 27.1326 20.5198 27.2516 20.4403C27.3706 20.3609 27.5126 20.3232 27.6553 20.333C27.689 20.3376 27.7233 20.3353 27.7561 20.3264C27.789 20.3174 27.8197 20.302 27.8464 20.281C27.8732 20.26 27.8954 20.2338 27.9119 20.204C27.9284 20.1742 27.9387 20.1415 27.9422 20.1076C27.9463 20.0739 27.9436 20.0397 27.9345 20.007C27.9253 19.9743 27.9098 19.9438 27.8888 19.9171C27.8678 19.8904 27.8418 19.8681 27.8122 19.8515C27.7826 19.8348 27.75 19.8242 27.7163 19.8202C27.4454 19.7931 27.1736 19.863 26.9494 20.0175C26.7252 20.172 26.5631 20.4011 26.492 20.6639C26.4849 20.6973 26.4845 20.7318 26.4907 20.7653C26.497 20.7989 26.5099 20.8308 26.5286 20.8594C26.5473 20.8879 26.5714 20.9125 26.5997 20.9317C26.6279 20.9508 26.6597 20.9642 26.6931 20.971Z" fill="black"/>
<path d="M22.1641 18.7578H21.9521C21.7294 18.7578 21.5488 18.9384 21.5488 19.1611V19.6574C21.5488 19.8802 21.7294 20.0607 21.9521 20.0607H22.1641C22.3868 20.0607 22.5674 19.8802 22.5674 19.6574V19.1611C22.5674 18.9384 22.3868 18.7578 22.1641 18.7578Z" fill="black"/>
<path d="M16.7454 18.7793H16.5283C16.3056 18.7793 16.125 18.9599 16.125 19.1826V19.6789C16.125 19.9016 16.3056 20.0822 16.5283 20.0822H16.7454C16.9682 20.0822 17.1487 19.9016 17.1487 19.6789V19.1826C17.1487 18.9599 16.9682 18.7793 16.7454 18.7793Z" fill="black"/>
</svg>
