<svg width="45" height="45" viewBox="0 0 45 45" fill="none" xmlns="http://www.w3.org/2000/svg">
<rect x="1.22985" y="0.577503" width="43.015" height="43.015" rx="21.5075" fill="white"/>
<rect x="1.22985" y="0.577503" width="43.015" height="43.015" rx="21.5075" stroke="#EECA00" stroke-width="1.10423"/>
<path d="M22.5161 17.5371H22.3369C22.0581 17.5371 21.832 17.7631 21.832 18.042V18.7911C21.832 19.07 22.0581 19.296 22.3369 19.296H22.5161C22.7949 19.296 23.0209 19.07 23.0209 18.7911V18.042C23.0209 17.7631 22.7949 17.5371 22.5161 17.5371Z" fill="#202020"/>
<path d="M17.0502 18.1787V18.9279C17.0502 18.9946 17.037 19.0607 17.0113 19.1223C16.9856 19.1839 16.9479 19.2398 16.9005 19.2868C16.853 19.3338 16.7967 19.3708 16.7348 19.3959C16.6729 19.4209 16.6067 19.4335 16.5399 19.4327H16.3662C16.2998 19.4333 16.2338 19.4207 16.1723 19.3955C16.1108 19.3703 16.0549 19.3332 16.0079 19.2862C15.9609 19.2392 15.9238 19.1833 15.8986 19.1218C15.8734 19.0602 15.8608 18.9943 15.8613 18.9279V18.1787C15.8612 18.1124 15.8742 18.0466 15.8995 17.9853C15.9248 17.924 15.962 17.8683 16.0089 17.8214C16.0558 17.7745 16.1115 17.7373 16.1728 17.712C16.2342 17.6866 16.2999 17.6737 16.3662 17.6738H16.5399C16.6745 17.6734 16.8037 17.7263 16.8993 17.8209C16.995 17.9155 17.0492 18.0442 17.0502 18.1787Z" fill="#202020"/>
<path d="M15.3789 17.943C15.3227 17.943 15.2679 17.9256 15.222 17.8931C15.1761 17.8606 15.1414 17.8146 15.1228 17.7616C15.1041 17.7086 15.1024 17.651 15.1179 17.597C15.1333 17.5429 15.1651 17.495 15.209 17.4598C15.4672 17.252 15.7887 17.1387 16.1202 17.1387C16.4517 17.1387 16.7732 17.252 17.0314 17.4598C17.0874 17.5051 17.1232 17.5708 17.1307 17.6424C17.1383 17.714 17.1172 17.7857 17.0719 17.8417C17.0266 17.8977 16.9609 17.9335 16.8893 17.9411C16.8177 17.9486 16.746 17.9275 16.69 17.8822C16.528 17.7532 16.327 17.683 16.1199 17.683C15.9129 17.683 15.7119 17.7532 15.5499 17.8822C15.5016 17.9215 15.4412 17.9429 15.3789 17.943Z" fill="#202020"/>
<path d="M22.8483 17.808C22.7865 17.8081 22.7265 17.787 22.6783 17.7483C22.5165 17.6178 22.3149 17.5467 22.107 17.5467C21.8991 17.5467 21.6974 17.6178 21.5356 17.7483C21.4794 17.7935 21.4077 17.8144 21.336 17.8067C21.2644 17.7989 21.1988 17.7629 21.1537 17.7068C21.1085 17.6506 21.0876 17.5789 21.0953 17.5072C21.1031 17.4356 21.1391 17.37 21.1952 17.3249C21.4537 17.1171 21.7753 17.0039 22.107 17.0039C22.4386 17.0039 22.7602 17.1171 23.0187 17.3249C23.0626 17.3601 23.0945 17.4081 23.1099 17.4622C23.1253 17.5163 23.1236 17.5739 23.1048 17.6269C23.0861 17.68 23.0514 17.7259 23.0054 17.7584C22.9594 17.7908 22.9045 17.8082 22.8483 17.808Z" fill="#202020"/>
<path d="M19.242 23.1642C19.0554 23.176 18.8683 23.1504 18.6918 23.0887C18.5153 23.0271 18.3529 22.9307 18.2143 22.8053C18.1685 22.7497 18.1467 22.6783 18.1536 22.6066C18.1605 22.5349 18.1956 22.4689 18.2512 22.4231C18.3068 22.3774 18.3783 22.3555 18.4499 22.3624C18.5216 22.3694 18.5876 22.4045 18.6334 22.4601C18.8107 22.5861 19.0276 22.6439 19.2441 22.6229C19.4174 22.6339 19.5912 22.6094 19.7547 22.551C19.9182 22.4925 20.0681 22.4014 20.1952 22.2831C20.2409 22.2274 20.3068 22.1921 20.3785 22.1849C20.4501 22.1778 20.5217 22.1994 20.5774 22.2451C20.6331 22.2907 20.6685 22.3566 20.6756 22.4283C20.6827 22.5 20.6611 22.5715 20.6154 22.6273C20.4388 22.81 20.2251 22.9526 19.9886 23.0455C19.7521 23.1384 19.4984 23.1794 19.2447 23.1658L19.242 23.1642Z" fill="#202020"/>
<path d="M19.0658 21.3399C18.8787 21.339 18.699 21.2666 18.5636 21.1375C18.4841 21.0728 18.4245 20.9869 18.3918 20.8898C18.359 20.7927 18.3544 20.6882 18.3785 20.5886C18.3996 20.5246 18.4438 20.4708 18.5025 20.4376C18.5611 20.4044 18.63 20.3942 18.6957 20.4089C18.7614 20.4237 18.8193 20.4624 18.8581 20.5175C18.8969 20.5725 18.9139 20.6401 18.9056 20.707C18.9274 20.7386 18.9572 20.7639 18.992 20.7802C19.0125 20.7906 19.0351 20.7965 19.0581 20.7976C19.0811 20.7986 19.1041 20.7947 19.1255 20.7862C19.159 20.772 19.195 20.7646 19.2314 20.7646C19.2678 20.7645 19.3038 20.7718 19.3373 20.786C19.3708 20.8001 19.4012 20.8209 19.4265 20.847C19.4518 20.8731 19.4717 20.904 19.4848 20.938C19.498 20.9719 19.5042 21.0081 19.503 21.0445C19.5019 21.0809 19.4934 21.1166 19.4782 21.1497C19.463 21.1827 19.4412 21.2124 19.4143 21.2368C19.3874 21.2613 19.3558 21.2801 19.3215 21.2922C19.2399 21.3237 19.1532 21.3399 19.0658 21.3399Z" fill="#202020"/>
<path d="M23.1192 16.6091C23.0588 16.609 23.0002 16.5888 22.9526 16.5516C22.2396 16.33 21.4868 16.267 20.7469 16.367C20.7145 16.382 20.6795 16.3904 20.6439 16.3919C20.6083 16.3933 20.5727 16.3877 20.5392 16.3754C20.5057 16.3631 20.475 16.3444 20.4488 16.3202C20.4226 16.296 20.4014 16.2669 20.3864 16.2346C20.3714 16.2022 20.363 16.1672 20.3616 16.1316C20.3601 16.0959 20.3657 16.0604 20.378 16.0269C20.3903 15.9934 20.4091 15.9627 20.4332 15.9365C20.4574 15.9103 20.4865 15.8891 20.5189 15.8741C20.9662 15.6673 22.8635 15.7932 23.2875 16.1238C23.3321 16.1586 23.3646 16.2064 23.3807 16.2606C23.3967 16.3148 23.3955 16.3727 23.377 16.4261C23.3586 16.4796 23.324 16.5259 23.278 16.5587C23.232 16.5915 23.1768 16.6092 23.1203 16.6091H23.1192Z" fill="#202020"/>
<path d="M28.0159 19.8075C27.9753 19.8075 27.9352 19.7985 27.8986 19.7809C27.8619 19.7634 27.8297 19.7379 27.8042 19.7063C27.7787 19.6747 27.7607 19.6378 27.7514 19.5982C27.7421 19.5587 27.7417 19.5176 27.7504 19.4779C27.8262 19.2067 27.9958 18.9712 28.2291 18.8134C28.4624 18.6556 28.7441 18.5858 29.024 18.6164C29.0954 18.6252 29.1604 18.662 29.2047 18.7187C29.2489 18.7754 29.2689 18.8474 29.2602 18.9188C29.2505 18.9899 29.2134 19.0545 29.1568 19.0986C29.1002 19.1427 29.0286 19.163 28.9572 19.1549C28.8118 19.1427 28.6664 19.1791 28.544 19.2585C28.4215 19.3379 28.3289 19.4558 28.2808 19.5936C28.2677 19.6541 28.2343 19.7083 28.1861 19.7472C28.1379 19.7861 28.0778 19.8074 28.0159 19.8075Z" fill="#202020"/>
<path d="M32.6776 34.1052C31.7813 31.4538 30.5555 30.2508 27.2146 28.7503C27.0935 28.6962 26.9798 28.6267 26.8764 28.5435C25.7261 27.6521 25.472 25.3123 25.4264 24.7434C26.2933 23.9622 26.9673 22.9907 27.3954 21.9052C27.5557 22.009 27.7331 22.0838 27.9193 22.1262C29.1847 22.4079 30.2276 21.2896 30.5066 20.0443C30.6898 19.3146 30.5838 18.5424 30.2108 17.889C30.151 17.7966 30.0834 17.7094 30.0088 17.6285C30.0964 17.555 30.1949 17.4956 30.3009 17.4526C30.4873 17.364 30.6686 17.2648 30.8437 17.1556C33.1238 15.7176 32.791 12.8588 31.5158 10.8111C30.3344 8.95582 28.5564 7.55814 26.4747 6.84809C25.7331 6.61371 24.953 6.52576 24.1778 6.58913C23.9219 6.60614 23.6676 6.53675 23.4558 6.39207C21.7794 5.32207 19.1329 5.77645 17.716 6.87197C17.0247 7.42149 16.2565 7.86651 15.4359 8.19278C15.064 8.35293 14.6428 8.53534 14.1064 8.81112C12.3975 9.68894 11.6684 11.0581 10.9219 13.2757C10.7309 13.8147 10.6789 14.3932 10.7707 14.9576C10.8626 15.522 11.0953 16.0541 11.4474 16.5047C11.7763 16.9125 12.1976 17.2359 12.6765 17.4484C13.1553 17.6608 13.6779 17.756 14.2009 17.7262C14.2872 18.2023 14.342 18.6225 14.3502 18.768C14.5174 22.0388 15.1031 24.0626 16.2502 25.3308C16.782 25.8758 17.4227 26.3027 18.1305 26.5836C18.8383 26.8644 19.5973 26.9931 20.3581 26.961C20.4266 26.961 20.521 26.9539 20.6296 26.9431C20.901 28.0831 20.8722 28.8725 20.5357 29.12C20.2342 29.2835 19.9193 29.4208 19.5943 29.5304L19.3831 29.6119C17.7849 30.2248 14.4587 31.5005 13.0055 34.4065C12.4208 35.5672 12.9056 36.23 13.4126 36.578C14.5689 37.3891 17.26 38.3375 21.0384 38.3429C26.0719 38.3429 29.6559 37.1757 31.1972 36.1763C32.1396 35.5617 32.9637 34.9396 32.6776 34.1052ZM20.1258 29.9034C20.3813 29.8153 20.626 29.6988 20.8554 29.5559C21.3923 29.1607 21.4917 28.2487 21.1643 26.8551C21.5652 26.7651 21.9569 26.6379 22.3342 26.4751C22.3676 26.4609 22.3979 26.4401 22.4231 26.4139C22.4484 26.3877 22.4681 26.3568 22.4811 26.3229C22.4942 26.2889 22.5003 26.2527 22.4991 26.2164C22.4979 26.1801 22.4894 26.1443 22.4741 26.1114C22.4588 26.0784 22.4371 26.0488 22.4102 26.0244C22.3832 26 22.3517 25.9812 22.3174 25.9692C22.2831 25.9572 22.2467 25.9522 22.2104 25.9545C22.1741 25.9569 22.1387 25.9665 22.1062 25.9827C21.6871 26.1628 21.2486 26.294 20.7995 26.3736C20.6534 26.3962 20.506 26.41 20.3581 26.4149C19.6733 26.447 18.9893 26.3348 18.3506 26.0855C17.7119 25.8361 17.1328 25.4552 16.6509 24.9676C15.5944 23.7993 15.0521 21.8786 14.8909 18.7403C14.8816 18.5638 14.8236 18.1355 14.7421 17.6752C14.7541 17.6752 14.766 17.6752 14.778 17.6703C17.2209 17.217 18.5238 15.0428 18.8973 13.3186C19.0498 12.6161 19.3267 11.6449 19.9705 11.3197C20.2047 11.2295 20.4561 11.193 20.7063 11.2127C20.9565 11.2324 21.1991 11.3079 21.4162 11.4337C21.6354 11.5319 21.8836 11.5435 22.1111 11.4663C22.3602 11.3615 22.6318 11.3212 22.9006 11.3492C23.1694 11.3772 23.4269 11.4725 23.649 11.6265C24.5632 12.3072 24.8434 14.0249 24.8043 15.2887C24.7973 15.9904 24.9934 16.6793 25.3691 17.272C25.7448 17.8648 26.2839 18.3363 26.9215 18.6295C26.9843 18.6552 27.0543 18.6568 27.1182 18.634C27.1821 18.6113 27.2354 18.5658 27.2678 18.5063C27.3895 18.307 27.5417 18.128 27.719 17.9759C27.8937 17.8334 28.0963 17.7291 28.3138 17.6696C28.5313 17.6102 28.7588 17.5969 28.9817 17.6306C29.1407 17.6648 29.291 17.7312 29.4235 17.8255C29.556 17.9199 29.6678 18.0404 29.752 18.1795C30.045 18.7119 30.1251 19.3356 29.9762 19.9248C29.7591 20.8895 28.9583 21.801 28.0376 21.5963C27.8101 21.5332 27.6005 21.4175 27.4258 21.2587C27.3909 21.2319 27.3501 21.2141 27.3068 21.2066C27.2635 21.1991 27.2191 21.2023 27.1772 21.2158C27.1354 21.2293 27.0975 21.2528 27.0668 21.2842C27.0361 21.3156 27.0134 21.3539 27.0007 21.396C26.5316 22.7867 25.626 23.9889 24.4188 24.8237C24.3876 24.8419 24.3602 24.8662 24.3385 24.8951C24.3167 24.924 24.3009 24.957 24.2921 24.9921C24.2832 25.0271 24.2815 25.0637 24.287 25.0994C24.2925 25.1352 24.305 25.1695 24.324 25.2004C24.3429 25.2312 24.3678 25.2579 24.3972 25.279C24.4266 25.3001 24.46 25.3151 24.4953 25.3231C24.5306 25.3311 24.5671 25.3319 24.6027 25.3256C24.6384 25.3193 24.6724 25.3059 24.7028 25.2862C24.7788 25.239 24.8445 25.1842 24.9167 25.1348C25.0193 26.0229 25.351 27.8882 26.3873 28.835C25.7641 30.4245 22.5986 32.5689 20.926 32.4945C20.8054 32.4896 20.6878 32.4551 20.5836 32.3941C20.4795 32.333 20.392 32.2472 20.3288 32.1444C19.9718 31.4523 19.899 30.6483 20.1258 29.9034Z" fill="#202020"/>
</svg>
