<svg width="44" height="36" viewBox="0 0 44 36" fill="none" xmlns="http://www.w3.org/2000/svg">
<rect x="0.4" y="0.4" width="43.2" height="35.2" rx="17.6" stroke="#EFEFEF" stroke-width="0.8"/>
<g clip-path="url(#clip0_7000_56849)">
<path d="M27.25 27H26.5C26.3011 27 26.1103 26.921 25.9697 26.7803C25.829 26.6397 25.75 26.4489 25.75 26.25C25.75 26.0511 25.829 25.8603 25.9697 25.7197C26.1103 25.579 26.3011 25.5 26.5 25.5H27.25C27.8467 25.5 28.419 25.2629 28.841 24.841C29.2629 24.419 29.5 23.8467 29.5 23.25V22.5C29.5 22.3011 29.579 22.1103 29.7197 21.9697C29.8603 21.829 30.0511 21.75 30.25 21.75C30.4489 21.75 30.6397 21.829 30.7803 21.9697C30.921 22.1103 31 22.3011 31 22.5V23.25C30.9988 24.2442 30.6033 25.1973 29.9003 25.9003C29.1973 26.6033 28.2442 26.9988 27.25 27ZM31 13.5V12.75C30.9988 11.7558 30.6033 10.8027 29.9003 10.0997C29.1973 9.39666 28.2442 9.00119 27.25 9H26.5C26.3011 9 26.1103 9.07902 25.9697 9.21967C25.829 9.36032 25.75 9.55109 25.75 9.75C25.75 9.94891 25.829 10.1397 25.9697 10.2803C26.1103 10.421 26.3011 10.5 26.5 10.5H27.25C27.8467 10.5 28.419 10.7371 28.841 11.159C29.2629 11.581 29.5 12.1533 29.5 12.75V13.5C29.5 13.6989 29.579 13.8897 29.7197 14.0303C29.8603 14.171 30.0511 14.25 30.25 14.25C30.4489 14.25 30.6397 14.171 30.7803 14.0303C30.921 13.8897 31 13.6989 31 13.5ZM18.25 26.25C18.25 26.0511 18.171 25.8603 18.0303 25.7197C17.8897 25.579 17.6989 25.5 17.5 25.5H16.75C16.1533 25.5 15.581 25.2629 15.159 24.841C14.7371 24.419 14.5 23.8467 14.5 23.25V22.5C14.5 22.3011 14.421 22.1103 14.2803 21.9697C14.1397 21.829 13.9489 21.75 13.75 21.75C13.5511 21.75 13.3603 21.829 13.2197 21.9697C13.079 22.1103 13 22.3011 13 22.5V23.25C13.0012 24.2442 13.3967 25.1973 14.0997 25.9003C14.8027 26.6033 15.7558 26.9988 16.75 27H17.5C17.6989 27 17.8897 26.921 18.0303 26.7803C18.171 26.6397 18.25 26.4489 18.25 26.25ZM14.5 13.5V12.75C14.5 12.1533 14.7371 11.581 15.159 11.159C15.581 10.7371 16.1533 10.5 16.75 10.5H17.5C17.6989 10.5 17.8897 10.421 18.0303 10.2803C18.171 10.1397 18.25 9.94891 18.25 9.75C18.25 9.55109 18.171 9.36032 18.0303 9.21967C17.8897 9.07902 17.6989 9 17.5 9H16.75C15.7558 9.00119 14.8027 9.39666 14.0997 10.0997C13.3967 10.8027 13.0012 11.7558 13 12.75L13 13.5C13 13.6989 13.079 13.8897 13.2197 14.0303C13.3603 14.171 13.5511 14.25 13.75 14.25C13.9489 14.25 14.1397 14.171 14.2803 14.0303C14.421 13.8897 14.5 13.6989 14.5 13.5Z" fill="black"/>
</g>
<defs>
<clipPath id="clip0_7000_56849">
<rect width="18" height="18" fill="white" transform="translate(13 9)"/>
</clipPath>
</defs>
</svg>
